v -6.08341466e-08 -3.05816866e-05 0.757469714
v -0.00592958415 -0.00121003529 0.756874263
v -0.00558555033 -0.002344165 0.756874263
v -0.0109563936 -0.00456883851 0.7551108
v -0.0116312392 -0.00234416337 0.7551108
v -0.00986049976 -0.00661911117 0.7551108
v -0.0118591078 -3.05784815e-05 0.7551108
v -0.00502686901 -0.00338938483 0.756874263
v -0.00592958601 0.00114886276 0.756874263
v -0.0159061886 -0.00661910931 0.752247095
v -0.0168859158 -0.00338938157 0.752247095
v -6.06927415e-08 -0.0118896281 0.7551108
v -6.0762062e-08 -0.00607627118 0.756874263
v -0.00117951666 -0.00596010452 0.756874263
v -6.06288566e-08 -0.0172472484 0.752247095
v 0.00335874595 -0.0169164352 0.752247095
v 0.00231352542 -0.0116617605 0.7551108
v 0.00117939524 -0.00596010452 0.756874263
v 0.00658847485 -0.0159367062 0.752247095
v 0.00453820173 -0.0109869111 0.7551108
v 0.00231352518 -0.00561606977 0.756874263
v 0.00956501067 -0.0143457148 0.752247095
v 0.00658847531 -0.00989101734 0.7551108
v 0.00335874571 -0.00505738752 0.756874263
v 0.0121739656 -0.0122046005 0.752247095
v 0.00838555396 -0.00841619074 0.7551108
v 0.00427488843 -0.00430552848 0.756874263
v 0.014315078 -0.00959564373 0.752247095
v 0.00986037869 -0.00661911117 0.7551108
v 0.00502674747 -0.00338938483 0.756874263
v 0.0159060694 -0.00661910698 0.752247095
v 0.0109562725 -0.00456883665 0.7551108
v 0.00558542926 -0.00234416407 0.756874263
v 0.0168857928 -0.00338937715 0.752247095
v 0.0116311191 -0.00234416034 0.7551108
v 0.00592946261 -0.00121003378 0.756874263
v 0.0172166061 -3.05704671e-05 0.752247095
v 0.0118589858 -3.05739559e-05 0.7551108
v 0.00604562834 -3.05777467e-05 0.756874263
v 0.016885791 0.00332823582 0.752247095
v 0.0116311163 0.00228301203 0.7551108
v 0.00592946168 0.00114887813 0.756874263
v 0.0159060601 0.00655796472 0.752247095
v 0.010956266 0.00450768787 0.7551108
v 0.005585426 0.00228300784 0.756874263
v 0.0143150659 0.00953449961 0.752247095
v 0.00986037031 0.00655796053 0.7551108
v 0.00502674328 0.0033282279 0.756874263
v 0.0121739497 0.0121434517 0.752247095
v 0.00838554278 0.00835503917 0.7551108
v 0.00427488284 0.00424437039 0.756874263
v 0.00956499204 0.0142845633 0.752247095
v 0.00658846227 0.00982986204 0.7551108
v 0.0033587392 0.00499622896 0.756874263
v 0.00658845436 0.0158755518 0.752247095
v 0.00453818729 0.010925754 0.7551108
v 0.00231351797 0.00555490982 0.756874263
v 0.0033587236 0.0168552753 0.752247095
v 0.00231351028 0.0116005987 0.7551108
v 0.00117938744 0.00589894271 0.756874263
v -8.30684286e-08 0.0171860848 0.752247095
v -7.61493908e-08 0.0118284654 0.7551108
v -6.86417891e-08 0.0060151075 0.756874263
v -0.00335888914 0.0168552678 0.752247095
v -0.00231366209 0.011600594 0.7551108
v -0.00117952446 0.00589893991 0.756874263
v -0.00658861687 0.0158755351 0.752247095
v -0.0045383377 0.0109257428 0.7551108
v -0.00231365394 0.0055549033 0.756874263
v -0.0095651513 0.014284539 0.752247095
v -0.00658860942 0.00982984528 0.7551108
v -0.00335887354 0.00499622012 0.756874263
v -0.0121741025 0.012143421 0.752247095
v -0.00838568714 0.00835501682 0.7551108
v -0.00427501556 0.00424435968 0.756874263
v -0.0143152121 0.00953446236 0.752247095
v -0.00986050908 0.00655793538 0.7551108
v -0.0143152 -0.00959564373 0.752247095
v -0.0121740866 -0.0122045996 0.752247095
v -0.0116312439 0.00228298199 0.7551108
v -0.00838567596 -0.00841619167 0.7551108
v -0.00427500997 -0.00430552848 0.756874263
v -0.00956513174 -0.0143457148 0.752247095
v -0.00658859685 -0.00989101641 0.7551108
v -0.00335886702 -0.00505738799 0.756874263
v -0.00658859638 -0.0159367081 0.752247095
v -0.00453832326 -0.0109869121 0.7551108
v -0.00231364672 -0.00561607024 0.756874263
v -0.00335886725 -0.0169164333 0.752247095
v -0.00231364695 -0.0116617596 0.7551108
v -0.00502687367 0.00332821487 0.756874263
v -0.0159061998 0.00655792328 0.752247095
v -0.00558555359 0.00228299364 0.756874263
v -0.0109563991 0.00450765993 0.7551108
v -0.0168859214 0.00332819205 0.752247095
v -0.0172167271 -3.05770336e-05 0.752247095
v -0.0219127219 -3.0575764e-05 0.748393238
v -0.021491684 0.00424432661 0.748393238
v -0.0202447344 0.00835499447 0.748393238
v -0.0214916747 -0.00430552289 0.748393238
v -0.0202447232 -0.00841618702 0.748393238
v -0.0182197932 0.0121434098 0.748393238
v -0.0182197765 -0.0122045968 0.748393238
v -0.0154946754 0.0154639836 0.748393238
v -0.0154946567 -0.0155251678 0.748393238
v -0.0121741118 0.0181891117 0.748393238
v -0.0121740876 -0.0182502903 0.748393238
v -0.00838570204 0.020214064 0.748393238
v -0.00838567596 -0.0202752408 0.748393238
v -0.00427503837 0.0214610267 0.748393238
v -0.00427501043 -0.021522196 0.748393238
v -8.91330245e-08 0.0218820777 0.748393238
v -6.05728658e-08 -0.0219432414 0.748393238
v 0.00427486096 0.0214610379 0.748393238
v 0.00427488936 -0.021522196 0.748393238
v 0.00838552788 0.0202140864 0.748393238
v 0.00838555396 -0.020275237 0.748393238
v 0.0121739423 0.0181891434 0.748393238
v 0.0121739665 -0.0182502903 0.748393238
v 0.0154945152 0.0154640237 0.748393238
v 0.0154945357 -0.0155251687 0.748393238
v 0.0182196386 0.0121434573 0.748393238
v 0.0182196554 -0.0122045968 0.748393238
v 0.0202445909 0.00835504662 0.748393238
v 0.0202446021 -0.00841618329 0.748393238
v 0.0214915499 0.00424438203 0.748393238
v 0.0214915555 -0.0043055173 0.748393238
v 0.021912599 -3.05674039e-05 0.748393238
v 0.0252714083 -0.00505737448 0.743697226
v 0.0257665031 -3.05648937e-05 0.743697226
v 0.0252714027 0.00499624433 0.743697226
v 0.0238051321 0.00982987508 0.743697226
v 0.0238051452 -0.0098910071 0.743697226
v 0.0214240421 0.0142845744 0.743697226
v 0.0214240588 -0.0143457092 0.743697226
v 0.018219633 0.018189149 0.743697226
v 0.0182196591 -0.0182502884 0.743697226
v 0.0143150538 0.0213935506 0.743697226
v 0.0143150818 -0.0214546937 0.743697226
v 0.00986034982 0.0237746313 0.743697226
v 0.00986038055 -0.023835782 0.743697226
v 0.00502671581 0.0252408907 0.743697226
v 0.00502674934 -0.0253020488 0.743697226
v -9.41101064e-08 0.0257359836 0.743697226
v -6.05269079e-08 -0.0257971473 0.743697226
v -0.005026903 0.0252408776 0.743697226
v -0.00502686994 -0.0253020469 0.743697226
v -0.00986053329 0.0237746052 0.743697226
v -0.00986050162 -0.023835782 0.743697226
v -0.0143152308 0.0213935114 0.743697226
v -0.0143152019 -0.0214546937 0.743697226
v -0.0182198044 0.0181891005 0.743697226
v -0.0182197783 -0.0182502884 0.743697226
v -0.0214242004 0.0142845195 0.743697226
v -0.0214241818 -0.0143457102 0.743697226
v -0.0238052793 0.00982981455 0.743697226
v -0.0238052662 -0.00989101082 0.743697226
v -0.0252715368 0.00499617867 0.743697226
v -0.0252715275 -0.00505738147 0.743697226
v -0.025766626 -3.05747235e-05 0.743697226
v -0.026450986 -0.0109869028 0.738339603
v -0.0280802101 -0.00561606139 0.738339603
v -0.0286303312 -3.05739486e-05 0.738339603
v -0.0280802194 0.0055548544 0.738339603
v -0.0238052662 -0.0159366988 0.738339603
v -0.0264509991 0.0109257018 0.738339603
v -0.020244725 -0.0202752333 0.738339603
v -0.0238052867 0.0158755034 0.738339603
v -0.0159061924 -0.0238357782 0.738339603
v -0.0202447511 0.0202140417 0.738339603
v -0.0109563945 -0.0264815018 0.738339603
v -0.015906224 0.0237745941 0.738339603
v -0.00558555126 -0.0281107277 0.738339603
v -0.0109564289 0.0264203232 0.738339603
v -6.04927664e-08 -0.0286608506 0.738339603
v -0.00558558805 0.0280495584 0.738339603
v 0.00558543066 -0.0281107277 0.738339603
v -9.78084103e-08 0.0285996888 0.738339603
v 0.0109562734 -0.026481498 0.738339603
v 0.0055853934 0.0280495714 0.738339603
v 0.0159060713 -0.0238357764 0.738339603
v 0.010956239 0.026420353 0.738339603
v 0.020244604 -0.0202752333 0.738339603
v 0.0159060415 0.0237746332 0.738339603
v 0.0238051433 -0.0159366969 0.738339603
v 0.0202445779 0.0202140938 0.738339603
v 0.026450865 -0.0109868981 0.738339603
v 0.0238051228 0.0158755668 0.738339603
v 0.0280800872 -0.0056160544 0.738339603
v 0.0264508482 0.0109257698 0.738339603
v 0.0286302082 -3.05630274e-05 0.738339603
v 0.0280800816 0.00555492751 0.738339603
v 0.0303936694 -3.05618778e-05 0.732526243
v 0.0298096593 0.00589896319 0.732526243
v 0.028080076 0.0116006183 0.732526243
v 0.0252713859 0.016855292 0.732526243
v 0.0298096649 -0.00596008729 0.732526243
v 0.0214915313 0.021461051 0.732526243
v 0.0280800909 -0.0116617447 0.732526243
v 0.0168857649 0.0252408981 0.732526243
v 0.0252714083 -0.016916424 0.732526243
v 0.0116310846 0.028049577 0.732526243
v 0.0214915592 -0.0215221886 0.732526243
v 0.00592942536 0.0297791492 0.732526243
v 0.0168857966 -0.0253020395 0.732526243
v -1.00085813e-07 0.0303631481 0.732526243
v 0.0116311209 -0.0281107258 0.732526243
v -0.00592962466 0.0297791343 0.732526243
v 0.00592946494 -0.0298403054 0.732526243
v -0.0116312783 0.0280495472 0.732526243
v -6.04717414e-08 -0.0304243118 0.732526243
v -0.0168859512 0.0252408553 0.732526243
v -0.00592958601 -0.0298403036 0.732526243
v -0.0214917082 0.0214609969 0.732526243
v -0.011631242 -0.0281107258 0.732526243
v -0.0252715517 0.0168552268 0.732526243
v -0.0168859195 -0.0253020395 0.732526243
v -0.0280802269 0.0116005465 0.732526243
v -0.0214916803 -0.0215221886 0.732526243
v -0.0298097972 0.00589888543 0.732526243
v -0.0252715293 -0.016916424 0.732526243
v -0.0303937923 -3.0573472e-05 0.732526243
v -0.028080212 -0.0116617484 0.732526243
v -0.029809786 -0.00596009521 0.732526243
v -0.0257666316 -0.0172472391 0.726480544
v -0.0286303367 -0.0118896179 0.726480544
v -0.0303937942 -0.0060762614 0.726480544
v -0.0309892427 -3.0573312e-05 0.726480544
v -0.0219127275 -0.0219432358 0.726480544
v -0.0303938072 0.00601505116 0.726480544
v -0.0172167346 -0.0257971417 0.726480544
v -0.0286303516 0.0118284142 0.726480544
v -0.0118591115 -0.0286608506 0.726480544
v -0.0257666521 0.0171860419 0.726480544
v -0.00604575267 -0.0304243136 0.726480544
v -0.0219127554 0.0218820423 0.726480544
v -6.0464636e-08 -0.031019764 0.726480544
v -0.0172167681 0.0257359538 0.726480544
v 0.0060456316 -0.0304243136 0.726480544
v -0.0118591497 0.028599672 0.726480544
v 0.0118589904 -0.0286608487 0.726480544
v -0.00604579225 0.0303631444 0.726480544
v 0.0172166117 -0.0257971417 0.726480544
v -1.00854798e-07 0.0309586003 0.726480544
v 0.0219126064 -0.0219432358 0.726480544
v 0.00604559155 0.0303631574 0.726480544
v 0.0257665087 -0.0172472391 0.726480544
v 0.0118589522 0.0285997018 0.726480544
v 0.0286302157 -0.0118896142 0.726480544
v 0.01721658 0.0257359985 0.726480544
v 0.030393675 -0.00607625395 0.726480544
v 0.0219125785 0.0218820982 0.726480544
v 0.0309891216 -3.05614885e-05 0.726480544
v 0.0257664863 0.0171861071 0.726480544
v 0.0303936675 0.00601513032 0.726480544
v 0.0286301989 0.0118284877 0.726480544
v 0.0298096612 0.00589896366 0.720434844
v 0.0280800778 0.0116006201 0.720434844
v 0.0252713896 0.0168552957 0.720434844
v 0.0214915331 0.0214610528 0.720434844
v 0.0303936731 -3.05618778e-05 0.720434844
v 0.0168857668 0.0252409019 0.720434844
v 0.0298096687 -0.00596008822 0.720434844
v 0.0116310855 0.0280495808 0.720434844
v 0.0280800946 -0.0116617465 0.720434844
v 0.00592942629 0.0297791511 0.720434844
v 0.025271412 -0.0169164259 0.720434844
v -1.00085813e-07 0.0303631518 0.720434844
v 0.0214915611 -0.0215221904 0.720434844
v -0.00592962513 0.029779138 0.720434844
v 0.0168858003 -0.0253020432 0.720434844
v -0.0116312802 0.028049551 0.720434844
v 0.0116311228 -0.0281107277 0.720434844
v -0.0168859549 0.025240859 0.720434844
v 0.00592946541 -0.0298403073 0.720434844
v -0.0214917101 0.0214609988 0.720434844
v -6.04717343e-08 -0.0304243155 0.720434844
v -0.0252715554 0.0168552287 0.720434844
v -0.00592958648 -0.0298403073 0.720434844
v -0.0280802306 0.0116005484 0.720434844
v -0.0116312439 -0.0281107295 0.720434844
v -0.029809799 0.00589888636 0.720434844
v -0.0168859214 -0.0253020432 0.720434844
v -0.0303937942 -3.0573472e-05 0.720434844
v -0.0214916822 -0.0215221904 0.720434844
v -0.0298097897 -0.00596009567 0.720434844
v -0.0252715331 -0.0169164259 0.720434844
v -0.0280802157 -0.0116617503 0.720434844
v -0.0202447269 -0.0202752352 0.714621484
v -0.0238052681 -0.0159366988 0.714621484
v -0.0264509879 -0.0109869028 0.714621484
v -0.028080212 -0.00561606186 0.714621484
v -0.0159061924 -0.0238357782 0.714621484
v -0.028630333 -3.05739486e-05 0.714621484
v -0.0109563954 -0.0264815036 0.714621484
v -0.0280802194 0.00555485487 0.714621484
v -0.00558555173 -0.0281107295 0.714621484
v -0.0264510009 0.0109257028 0.714621484
v -6.04927664e-08 -0.0286608525 0.714621484
v -0.0238052886 0.0158755053 0.714621484
v 0.00558543112 -0.0281107295 0.714621484
v -0.0202447511 0.0202140436 0.714621484
v 0.0109562734 -0.0264814999 0.714621484
v -0.0159062259 0.0237745959 0.714621484
v 0.0159060732 -0.0238357782 0.714621484
v -0.0109564299 0.026420325 0.714621484
v 0.020244604 -0.0202752352 0.714621484
v -0.00558558851 0.0280495603 0.714621484
v 0.0238051452 -0.0159366988 0.714621484
v -9.78084103e-08 0.0285996888 0.714621484
v 0.0264508668 -0.010986899 0.714621484
v 0.00558539387 0.0280495733 0.714621484
v 0.028080089 -0.0056160544 0.714621484
v 0.0109562399 0.026420353 0.714621484
v 0.0286302101 -3.05630274e-05 0.714621484
v 0.0159060415 0.023774635 0.714621484
v 0.0280800834 0.00555492751 0.714621484
v 0.0202445798 0.0202140957 0.714621484
v 0.0264508501 0.0109257698 0.714621484
v 0.0238051247 0.0158755668 0.714621484
v 0.0238051321 0.00982987508 0.709263861
v 0.0214240421 0.0142845744 0.709263861
v 0.018219633 0.018189149 0.709263861
v 0.0143150538 0.0213935506 0.709263861
v 0.0252714027 0.00499624433 0.709263861
v 0.00986034982 0.0237746313 0.709263861
v 0.0257665031 -3.05648937e-05 0.709263861
v 0.00502671581 0.0252408907 0.709263861
v 0.0252714083 -0.00505737448 0.709263861
v -9.41101064e-08 0.0257359836 0.709263861
v 0.0238051452 -0.0098910071 0.709263861
v -0.005026903 0.0252408776 0.709263861
v 0.0214240588 -0.0143457092 0.709263861
v -0.00986053329 0.0237746052 0.709263861
v 0.0182196591 -0.0182502884 0.709263861
v -0.0143152308 0.0213935114 0.709263861
v 0.0143150818 -0.0214546937 0.709263861
v -0.0182198044 0.0181891005 0.709263861
v 0.00986038055 -0.023835782 0.709263861
v -0.0214242004 0.0142845195 0.709263861
v 0.00502674934 -0.0253020488 0.709263861
v -0.0238052793 0.00982981455 0.709263861
v -6.05269079e-08 -0.0257971473 0.709263861
v -0.0252715368 0.00499617867 0.709263861
v -0.00502686994 -0.0253020469 0.709263861
v -0.025766626 -3.05747235e-05 0.709263861
v -0.00986050162 -0.023835782 0.709263861
v -0.0252715275 -0.00505738147 0.709263861
v -0.0143152019 -0.0214546937 0.709263861
v -0.0238052662 -0.00989101082 0.709263861
v -0.0182197783 -0.0182502884 0.709263861
v -0.0214241818 -0.0143457102 0.709263861
v -0.0114015844 -0.0170941576 0.701233745
v -0.0145114455 -0.0145419575 0.701233745
v -0.0170636438 -0.0114320945 0.701233745
v -0.0189600959 -0.00788407773 0.701233745
v -0.00785356574 -0.0189906135 0.701233745
v -0.0201279242 -0.0040342561 0.701233745
v -0.00400374318 -0.0201584436 0.701233745
v -0.0205222517 -3.05761387e-05 0.701233745
v -6.06853021e-08 -0.020552773 0.701233745
v -0.0201279297 0.00397306215 0.701233745
v 0.00400362164 -0.0201584436 0.701233745
v -0.0189601071 0.00782288704 0.701233745
v 0.00785344373 -0.0189906135 0.701233745
v -0.0170636587 0.0113709085 0.701233745
v 0.0114014624 -0.0170941576 0.701233745
v -0.0145114642 0.0144807743 0.701233745
v 0.0145113254 -0.0145419575 0.701233745
v -0.0114016067 0.0170329791 0.701233745
v 0.0170635227 -0.0114320936 0.701233745
v -0.00785358995 0.0189294387 0.701233745
v 0.0189599767 -0.007884074 0.701233745
v -0.00400376972 0.0200972762 0.701233745
v 0.0201278049 -0.00403425097 0.701233745
v -8.74331789e-08 0.0204916093 0.701233745
v 0.0205221307 -3.05683097e-05 0.701233745
v 0.00400359556 0.0200972855 0.701233745
v 0.0201277975 0.00397311384 0.701233745
v 0.00785341952 0.0189294592 0.701233745
v 0.0189599656 0.0078229364 0.701233745
v 0.0114014409 0.0170330107 0.701233745
v 0.0170635078 0.0113709522 0.701233745
v 0.0145113049 0.0144808125 0.701233745
v 0.0143150631 0.00953449868 0.693307519
v 0.0121739469 0.0121434499 0.693307519
v 0.00956499018 0.0142845623 0.693307519
v 0.0113062458 0.011275745 0.68500632
v 0.0088832425 0.0132642491 0.68500632
v 0.0132947536 0.00885274541 0.68500632
v 0.00611885637 0.0147418389 0.68500638
v 0.0159060601 0.00655796379 0.693307519
v 0.014772349 0.00608836487 0.68500632
v 0.016885791 0.00332823559 0.693307519
v 0.0156822484 0.00308883516 0.68500632
v 0.0172166061 -3.05704671e-05 0.693307519
v 0.0159894843 -3.05713584e-05 0.68500632
v 0.0168857928 -0.00338937691 0.693307519
v 0.0156822521 -0.00314997858 0.68500632
v 0.0159060694 -0.00661910651 0.693307519
v 0.0147723574 -0.00614950852 0.68500632
v 0.0143150762 -0.0095956428 0.693307519
v 0.0132947657 -0.00891389139 0.68500632
v 0.0121739628 -0.0122045986 0.693307519
v 0.0113062598 -0.0113368938 0.68500632
v 0.00956500974 -0.014345713 0.693307519
v 0.00888326019 -0.0133254007 0.68500632
v 0.00658847392 -0.0159367044 0.693307519
v 0.00611887593 -0.0148029933 0.68500638
v 0.00335874502 -0.0169164333 0.693307519
v 0.00311934808 -0.0157128926 0.68500638
v -6.09526012e-08 -0.0172472466 0.693307519
v -5.9433436e-08 -0.0160201266 0.68500638
v -0.00335886725 -0.0169164315 0.693307519
v -0.00311946589 -0.0157128908 0.68500638
v -0.00658859592 -0.0159367062 0.693307519
v -0.00611899607 -0.0148029942 0.68500638
v -0.00956513174 -0.0143457139 0.693307519
v -0.00888337847 -0.0133253997 0.68500638
v -0.0121740857 -0.0122045977 0.693307519
v -0.011306379 -0.0113368947 0.68500638
v -0.0143151991 -0.0095956428 0.693307519
v -0.013294884 -0.00891389232 0.68500638
v -0.0159061868 -0.00661910838 0.693307519
v -0.0147724748 -0.00614951085 0.68500638
v -0.016885912 -0.00338938134 0.693307519
v -0.0156823713 -0.00314998277 0.68500638
v -0.0172167234 -3.05770336e-05 0.693307519
v -0.0159896053 -3.05774593e-05 0.68500638
v -0.0168859176 0.00332819158 0.693307519
v -0.0156823769 0.00308879465 0.68500638
v -0.0159061961 0.00655792281 0.693307519
v -0.0147724841 0.00608832622 0.68500638
v -0.0143152112 0.00953446142 0.693307519
v -0.0132948952 0.00885271095 0.68500638
v -0.0121741015 0.0121434191 0.693307519
v -0.011306393 0.0112757152 0.68500638
v -0.0095651513 0.0142845372 0.693307519
v -0.00888339523 0.0132642258 0.68500638
v -0.00658861641 0.0158755332 0.693307519
v -0.00611901563 0.0147418231 0.68500638
v -0.00335888937 0.0168552659 0.693307519
v -0.00311948638 0.0156517252 0.68500638
v -8.33921732e-08 0.0171860829 0.693307519
v -8.02736224e-08 0.015958963 0.68500638
v 0.0033587229 0.0168552753 0.693307519
v 0.0031193269 0.0156517327 0.68500638
v 0.00658845343 0.01587555 0.693307519
f 1 2 3
f 4 3 2
f 2 5 4
f 3 4 6
f 2 7 5
f 1 3 8
f 6 8 3
f 1 9 2
f 7 2 9
f 10 4 5
f 11 5 7
f 5 11 10
f 12 13 14
f 1 14 13
f 12 15 16
f 13 12 17
f 16 17 12
f 17 18 13
f 1 13 18
f 17 16 19
f 18 17 20
f 19 20 17
f 20 21 18
f 1 18 21
f 20 19 22
f 21 20 23
f 22 23 20
f 23 24 21
f 1 21 24
f 23 22 25
f 24 23 26
f 25 26 23
f 26 27 24
f 1 24 27
f 26 25 28
f 27 26 29
f 28 29 26
f 29 30 27
f 1 27 30
f 29 28 31
f 30 29 32
f 31 32 29
f 32 33 30
f 1 30 33
f 32 31 34
f 33 32 35
f 34 35 32
f 35 36 33
f 1 33 36
f 35 34 37
f 36 35 38
f 37 38 35
f 38 39 36
f 1 36 39
f 38 37 40
f 39 38 41
f 40 41 38
f 41 42 39
f 1 39 42
f 41 40 43
f 42 41 44
f 43 44 41
f 44 45 42
f 1 42 45
f 44 43 46
f 45 44 47
f 46 47 44
f 47 48 45
f 1 45 48
f 47 46 49
f 48 47 50
f 49 50 47
f 50 51 48
f 1 48 51
f 50 49 52
f 51 50 53
f 52 53 50
f 53 54 51
f 1 51 54
f 53 52 55
f 54 53 56
f 55 56 53
f 56 57 54
f 1 54 57
f 56 55 58
f 57 56 59
f 58 59 56
f 59 60 57
f 1 57 60
f 59 58 61
f 60 59 62
f 61 62 59
f 62 63 60
f 1 60 63
f 62 61 64
f 63 62 65
f 64 65 62
f 65 66 63
f 1 63 66
f 65 64 67
f 66 65 68
f 67 68 65
f 68 69 66
f 1 66 69
f 68 67 70
f 69 68 71
f 70 71 68
f 71 72 69
f 1 69 72
f 71 70 73
f 72 71 74
f 73 74 71
f 74 75 72
f 1 72 75
f 74 73 76
f 75 74 77
f 76 77 74
f 78 6 4
f 4 10 78
f 6 78 79
f 9 80 7
f 8 6 81
f 79 81 6
f 81 82 8
f 1 8 82
f 81 79 83
f 82 81 84
f 83 84 81
f 84 85 82
f 1 82 85
f 84 83 86
f 85 84 87
f 86 87 84
f 87 88 85
f 1 85 88
f 87 86 89
f 88 87 90
f 89 90 87
f 90 14 88
f 1 88 14
f 90 89 15
f 14 90 12
f 15 12 90
f 77 91 75
f 1 75 91
f 77 76 92
f 1 91 93
f 1 93 9
f 91 77 94
f 94 93 91
f 92 94 77
f 80 9 93
f 93 94 80
f 94 92 95
f 95 80 94
f 80 95 96
f 96 7 80
f 7 96 11
f 97 96 95
f 98 95 92
f 95 98 97
f 92 99 98
f 99 92 76
f 100 11 96
f 96 97 100
f 11 100 101
f 101 10 11
f 76 102 99
f 102 76 73
f 10 101 103
f 103 78 10
f 73 104 102
f 104 73 70
f 78 103 105
f 105 79 78
f 70 106 104
f 106 70 67
f 79 105 107
f 107 83 79
f 67 108 106
f 108 67 64
f 83 107 109
f 109 86 83
f 64 110 108
f 110 64 61
f 86 109 111
f 111 89 86
f 61 112 110
f 112 61 58
f 89 111 113
f 113 15 89
f 58 114 112
f 114 58 55
f 15 113 115
f 115 16 15
f 55 116 114
f 116 55 52
f 16 115 117
f 117 19 16
f 52 118 116
f 118 52 49
f 19 117 119
f 119 22 19
f 49 120 118
f 120 49 46
f 22 119 121
f 121 25 22
f 46 122 120
f 122 46 43
f 25 121 123
f 123 28 25
f 43 124 122
f 124 43 40
f 28 123 125
f 125 31 28
f 40 126 124
f 126 40 37
f 31 125 127
f 127 34 31
f 128 37 34
f 34 127 128
f 37 128 126
f 129 127 125
f 130 128 127
f 127 129 130
f 131 126 128
f 128 130 131
f 126 131 132
f 132 124 126
f 125 133 129
f 133 125 123
f 124 132 134
f 134 122 124
f 123 135 133
f 135 123 121
f 122 134 136
f 136 120 122
f 121 137 135
f 137 121 119
f 120 136 138
f 138 118 120
f 119 139 137
f 139 119 117
f 118 138 140
f 140 116 118
f 117 141 139
f 141 117 115
f 116 140 142
f 142 114 116
f 115 143 141
f 143 115 113
f 114 142 144
f 144 112 114
f 113 145 143
f 145 113 111
f 112 144 146
f 146 110 112
f 111 147 145
f 147 111 109
f 110 146 148
f 148 108 110
f 109 149 147
f 149 109 107
f 108 148 150
f 150 106 108
f 107 151 149
f 151 107 105
f 106 150 152
f 152 104 106
f 105 153 151
f 153 105 103
f 104 152 154
f 154 102 104
f 103 155 153
f 155 103 101
f 102 154 156
f 156 99 102
f 101 157 155
f 157 101 100
f 99 156 158
f 158 98 99
f 100 159 157
f 159 100 97
f 160 97 98
f 97 160 159
f 98 158 160
f 161 157 159
f 162 159 160
f 159 162 161
f 163 160 158
f 160 163 162
f 158 164 163
f 164 158 156
f 157 161 165
f 165 155 157
f 156 166 164
f 166 156 154
f 155 165 167
f 167 153 155
f 154 168 166
f 168 154 152
f 153 167 169
f 169 151 153
f 152 170 168
f 170 152 150
f 151 169 171
f 171 149 151
f 150 172 170
f 172 150 148
f 149 171 173
f 173 147 149
f 148 174 172
f 174 148 146
f 147 173 175
f 175 145 147
f 146 176 174
f 176 146 144
f 145 175 177
f 177 143 145
f 144 178 176
f 178 144 142
f 143 177 179
f 179 141 143
f 142 180 178
f 180 142 140
f 141 179 181
f 181 139 141
f 140 182 180
f 182 140 138
f 139 181 183
f 183 137 139
f 138 184 182
f 184 138 136
f 137 183 185
f 185 135 137
f 136 186 184
f 186 136 134
f 135 185 187
f 187 133 135
f 134 188 186
f 188 134 132
f 133 187 189
f 189 129 133
f 132 190 188
f 190 132 131
f 129 189 191
f 191 130 129
f 192 131 130
f 130 191 192
f 131 192 190
f 193 191 189
f 194 192 191
f 191 193 194
f 195 190 192
f 192 194 195
f 190 195 196
f 196 188 190
f 189 197 193
f 197 189 187
f 188 196 198
f 198 186 188
f 187 199 197
f 199 187 185
f 186 198 200
f 200 184 186
f 185 201 199
f 201 185 183
f 184 200 202
f 202 182 184
f 183 203 201
f 203 183 181
f 182 202 204
f 204 180 182
f 181 205 203
f 205 181 179
f 180 204 206
f 206 178 180
f 179 207 205
f 207 179 177
f 178 206 208
f 208 176 178
f 177 209 207
f 209 177 175
f 176 208 210
f 210 174 176
f 175 211 209
f 211 175 173
f 174 210 212
f 212 172 174
f 173 213 211
f 213 173 171
f 172 212 214
f 214 170 172
f 171 215 213
f 215 171 169
f 170 214 216
f 216 168 170
f 169 217 215
f 217 169 167
f 168 216 218
f 218 166 168
f 167 219 217
f 219 167 165
f 166 218 220
f 220 164 166
f 165 221 219
f 221 165 161
f 164 220 222
f 222 163 164
f 161 223 221
f 223 161 162
f 224 162 163
f 162 224 223
f 163 222 224
f 225 221 223
f 226 223 224
f 223 226 225
f 227 224 222
f 224 227 226
f 222 228 227
f 228 222 220
f 221 225 229
f 229 219 221
f 220 230 228
f 230 220 218
f 219 229 231
f 231 217 219
f 218 232 230
f 232 218 216
f 217 231 233
f 233 215 217
f 216 234 232
f 234 216 214
f 215 233 235
f 235 213 215
f 214 236 234
f 236 214 212
f 213 235 237
f 237 211 213
f 212 238 236
f 238 212 210
f 211 237 239
f 239 209 211
f 210 240 238
f 240 210 208
f 209 239 241
f 241 207 209
f 208 242 240
f 242 208 206
f 207 241 243
f 243 205 207
f 206 244 242
f 244 206 204
f 205 243 245
f 245 203 205
f 204 246 244
f 246 204 202
f 203 245 247
f 247 201 203
f 202 248 246
f 248 202 200
f 201 247 249
f 249 199 201
f 200 250 248
f 250 200 198
f 199 249 251
f 251 197 199
f 198 252 250
f 252 198 196
f 197 251 253
f 253 193 197
f 196 254 252
f 254 196 195
f 193 253 255
f 255 194 193
f 256 195 194
f 194 255 256
f 195 256 254
f 257 255 253
f 258 256 255
f 255 257 258
f 259 254 256
f 256 258 259
f 254 259 260
f 260 252 254
f 253 261 257
f 261 253 251
f 252 260 262
f 262 250 252
f 251 263 261
f 263 251 249
f 250 262 264
f 264 248 250
f 249 265 263
f 265 249 247
f 248 264 266
f 266 246 248
f 247 267 265
f 267 247 245
f 246 266 268
f 268 244 246
f 245 269 267
f 269 245 243
f 244 268 270
f 270 242 244
f 243 271 269
f 271 243 241
f 242 270 272
f 272 240 242
f 241 273 271
f 273 241 239
f 240 272 274
f 274 238 240
f 239 275 273
f 275 239 237
f 238 274 276
f 276 236 238
f 237 277 275
f 277 237 235
f 236 276 278
f 278 234 236
f 235 279 277
f 279 235 233
f 234 278 280
f 280 232 234
f 233 281 279
f 281 233 231
f 232 280 282
f 282 230 232
f 231 283 281
f 283 231 229
f 230 282 284
f 284 228 230
f 229 285 283
f 285 229 225
f 228 284 286
f 286 227 228
f 225 287 285
f 287 225 226
f 288 226 227
f 226 288 287
f 227 286 288
f 289 285 287
f 290 287 288
f 287 290 289
f 291 288 286
f 288 291 290
f 286 292 291
f 292 286 284
f 285 289 293
f 293 283 285
f 284 294 292
f 294 284 282
f 283 293 295
f 295 281 283
f 282 296 294
f 296 282 280
f 281 295 297
f 297 279 281
f 280 298 296
f 298 280 278
f 279 297 299
f 299 277 279
f 278 300 298
f 300 278 276
f 277 299 301
f 301 275 277
f 276 302 300
f 302 276 274
f 275 301 303
f 303 273 275
f 274 304 302
f 304 274 272
f 273 303 305
f 305 271 273
f 272 306 304
f 306 272 270
f 271 305 307
f 307 269 271
f 270 308 306
f 308 270 268
f 269 307 309
f 309 267 269
f 268 310 308
f 310 268 266
f 267 309 311
f 311 265 267
f 266 312 310
f 312 266 264
f 265 311 313
f 313 263 265
f 264 314 312
f 314 264 262
f 263 313 315
f 315 261 263
f 262 316 314
f 316 262 260
f 261 315 317
f 317 257 261
f 260 318 316
f 318 260 259
f 257 317 319
f 319 258 257
f 320 259 258
f 258 319 320
f 259 320 318
f 321 319 317
f 322 320 319
f 319 321 322
f 323 318 320
f 320 322 323
f 318 323 324
f 324 316 318
f 317 325 321
f 325 317 315
f 316 324 326
f 326 314 316
f 315 327 325
f 327 315 313
f 314 326 328
f 328 312 314
f 313 329 327
f 329 313 311
f 312 328 330
f 330 310 312
f 311 331 329
f 331 311 309
f 310 330 332
f 332 308 310
f 309 333 331
f 333 309 307
f 308 332 334
f 334 306 308
f 307 335 333
f 335 307 305
f 306 334 336
f 336 304 306
f 305 337 335
f 337 305 303
f 304 336 338
f 338 302 304
f 303 339 337
f 339 303 301
f 302 338 340
f 340 300 302
f 301 341 339
f 341 301 299
f 300 340 342
f 342 298 300
f 299 343 341
f 343 299 297
f 298 342 344
f 344 296 298
f 297 345 343
f 345 297 295
f 296 344 346
f 346 294 296
f 295 347 345
f 347 295 293
f 294 346 348
f 348 292 294
f 293 349 347
f 349 293 289
f 292 348 350
f 350 291 292
f 289 351 349
f 351 289 290
f 352 290 291
f 290 352 351
f 291 350 352
f 353 349 351
f 354 351 352
f 351 354 353
f 355 352 350
f 352 355 354
f 350 356 355
f 356 350 348
f 349 353 357
f 357 347 349
f 348 358 356
f 358 348 346
f 347 357 359
f 359 345 347
f 346 360 358
f 360 346 344
f 345 359 361
f 361 343 345
f 344 362 360
f 362 344 342
f 343 361 363
f 363 341 343
f 342 364 362
f 364 342 340
f 341 363 365
f 365 339 341
f 340 366 364
f 366 340 338
f 339 365 367
f 367 337 339
f 338 368 366
f 368 338 336
f 337 367 369
f 369 335 337
f 336 370 368
f 370 336 334
f 335 369 371
f 371 333 335
f 334 372 370
f 372 334 332
f 333 371 373
f 373 331 333
f 332 374 372
f 374 332 330
f 331 373 375
f 375 329 331
f 330 376 374
f 376 330 328
f 329 375 377
f 377 327 329
f 328 378 376
f 378 328 326
f 327 377 379
f 379 325 327
f 326 380 378
f 380 326 324
f 325 379 381
f 381 321 325
f 324 382 380
f 382 324 323
f 321 381 383
f 383 322 321
f 384 323 322
f 322 383 384
f 323 384 382
f 385 383 381
f 386 384 383
f 383 385 386
f 387 382 384
f 384 386 387
f 388 386 385
f 386 388 389
f 389 387 386
f 385 390 388
f 387 389 391
f 390 385 392
f 381 392 385
f 392 393 390
f 392 381 379
f 393 392 394
f 379 394 392
f 394 395 393
f 394 379 377
f 395 394 396
f 377 396 394
f 396 397 395
f 396 377 375
f 397 396 398
f 375 398 396
f 398 399 397
f 398 375 373
f 399 398 400
f 373 400 398
f 400 401 399
f 400 373 371
f 401 400 402
f 371 402 400
f 402 403 401
f 402 371 369
f 403 402 404
f 369 404 402
f 404 405 403
f 404 369 367
f 405 404 406
f 367 406 404
f 406 407 405
f 406 367 365
f 407 406 408
f 365 408 406
f 408 409 407
f 408 365 363
f 409 408 410
f 363 410 408
f 410 411 409
f 410 363 361
f 411 410 412
f 361 412 410
f 412 413 411
f 412 361 359
f 413 412 414
f 359 414 412
f 414 415 413
f 414 359 357
f 415 414 416
f 357 416 414
f 416 417 415
f 416 357 353
f 417 416 418
f 353 418 416
f 418 419 417
f 418 353 354
f 419 418 420
f 354 420 418
f 420 421 419
f 420 354 355
f 421 420 422
f 355 422 420
f 422 423 421
f 422 355 356
f 423 422 424
f 356 424 422
f 424 425 423
f 424 356 358
f 425 424 426
f 358 426 424
f 426 427 425
f 426 358 360
f 427 426 428
f 360 428 426
f 428 429 427
f 428 360 362
f 429 428 430
f 362 430 428
f 430 431 429
f 430 362 364
f 431 430 432
f 364 432 430
f 432 433 431
f 432 364 366
f 433 432 434
f 366 434 432
f 434 435 433
f 434 366 368
f 435 434 436
f 368 436 434
f 436 437 435
f 436 368 370
f 437 436 438
f 370 438 436
f 438 439 437
f 438 370 372
f 439 438 440
f 372 440 438
f 440 441 439
f 440 372 374
f 441 440 442
f 374 442 440
f 442 443 441
f 442 374 376
f 443 442 444
f 376 444 442
f 444 445 443
f 444 376 378
f 445 444 446
f 378 446 444
f 446 447 445
f 446 378 380
f 447 446 448
f 380 448 446
f 448 391 447
f 448 380 382
f 391 448 387
f 382 387 448
