v 0.0995942727 -0.0563868023 5.11851574e-08
v -0.0986319706 -0.0563867949 5.11851574e-08
v -0.0986319706 0.0563870519 5.61146578e-08
v 0.0995942727 0.0563870631 5.61146614e-08
v 0.0750857964 -0.0359420143 0.532434881
v 0.0750857964 0.0359422341 0.532434881
v -0.0741234794 0.0359422229 0.532434881
v -0.0741234794 -0.0359420106 0.532434881
v 0.0995942727 0.0563870631 5.61146614e-08
v 0.101693109 0.0563010573 0.00219772221
v 0.101693124 -0.0563007966 0.00219771732
v 0.0995942727 -0.0563868023 5.11851574e-08
v -0.0986319706 -0.0563867949 5.11851574e-08
v -0.100730807 -0.0563007891 0.00219771732
v -0.100730807 0.0563010462 0.00219772221
v -0.0986319706 0.0563870519 5.61146578e-08
v 0.0773869529 0.0360250026 0.530237257
v 0.0750857964 0.0359422341 0.532434881
v 0.0750857964 -0.0359420143 0.532434881
v 0.0773869529 -0.0360247865 0.530237198
v -0.0741234794 0.0359422229 0.532434881
v -0.0764246359 0.0360249951 0.530237257
v -0.0764246359 -0.0360247791 0.530237198
v -0.0741234794 -0.0359420106 0.532434881
v 0.0995942727 0.0563870631 5.61146614e-08
v 0.0994907543 0.0585026443 0.00219842815
v 0.101693109 0.0563010573 0.00219772221
v 0.0995942727 -0.0563868023 5.11851574e-08
v 0.101693124 -0.0563007966 0.00219771732
v 0.0994907543 -0.0585023873 0.00219842303
v -0.100730807 0.0563010462 0.00219772221
v -0.0985284448 0.0585026368 0.00219842815
v -0.0986319706 0.0563870519 5.61146578e-08
v -0.0985284448 -0.0585023761 0.00219842303
v -0.100730807 -0.0563007891 0.00219771732
v -0.0986319706 -0.0563867949 5.11851574e-08
v 0.0994907543 0.0585026443 0.00219842815
v 0.0995942727 0.0563870631 5.61146614e-08
v -0.0986319706 0.0563870519 5.61146578e-08
v -0.0985284448 0.0585026368 0.00219842815
v -0.0985284448 -0.0585023761 0.00219842303
v -0.0986319706 -0.0563867949 5.11851574e-08
v 0.0995942727 -0.0563868023 5.11851574e-08
v 0.0994907543 -0.0585023873 0.00219842303
v 0.0773869529 0.0360250026 0.530237257
v 0.0751846582 0.0382266492 0.530236542
v 0.0750857964 0.0359422341 0.532434881
v 0.0773869529 -0.0360247865 0.530237198
v 0.0750857964 -0.0359420143 0.532434881
v 0.0751846582 -0.0382264331 0.530236483
v -0.0741234794 0.0359422229 0.532434881
v -0.0742223412 0.038226638 0.530236542
v -0.0764246359 0.0360249951 0.530237257
v -0.0742223412 -0.0382264219 0.530236483
v -0.0741234794 -0.0359420106 0.532434881
v -0.0764246359 -0.0360247791 0.530237198
v -0.0742223412 0.038226638 0.530236542
v -0.0741234794 0.0359422229 0.532434881
v 0.0750857964 0.0359422341 0.532434881
v 0.0751846582 0.0382266492 0.530236542
v 0.0751846582 -0.0382264331 0.530236483
v 0.0750857964 -0.0359420143 0.532434881
v -0.0741234794 -0.0359420106 0.532434881
v -0.0742223412 -0.0382264219 0.530236483
v 0.0751846582 0.0382266492 0.530236542
v 0.0773869529 0.0360250026 0.530237257
v 0.101693109 0.0563010573 0.00219772221
v 0.0994907543 0.0585026443 0.00219842815
v 0.0994907543 -0.0585023873 0.00219842303
v 0.101693124 -0.0563007966 0.00219771732
v 0.0773869529 -0.0360247865 0.530237198
v 0.0751846582 -0.0382264331 0.530236483
v -0.0985284448 0.0585026368 0.00219842815
v -0.100730807 0.0563010462 0.00219772221
v -0.0764246359 0.0360249951 0.530237257
v -0.0742223412 0.038226638 0.530236542
v -0.0742223412 -0.0382264219 0.530236483
v -0.0764246359 -0.0360247791 0.530237198
v -0.100730807 -0.0563007891 0.00219771732
v -0.0985284448 -0.0585023761 0.00219842303
v 0.101693124 -0.0563007966 0.00219771732
v 0.101693109 0.0563010573 0.00219772221
v 0.0773869529 0.0360250026 0.530237257
v 0.0773869529 -0.0360247865 0.530237198
v -0.100730807 -0.0563007891 0.00219771732
v -0.0764246359 -0.0360247791 0.530237198
v -0.0764246359 0.0360249951 0.530237257
v -0.100730807 0.0563010462 0.00219772221
v -0.0985284448 0.0585026368 0.00219842815
v -0.0742223412 0.038226638 0.530236542
v 0.0751846582 0.0382266492 0.530236542
v 0.0994907543 0.0585026443 0.00219842815
v -0.0985284448 -0.0585023761 0.00219842303
v 0.0994907543 -0.0585023873 0.00219842303
v 0.0751846582 -0.0382264331 0.530236483
v -0.0742223412 -0.0382264219 0.530236483
vt 0.989142299 0.0185624361
vt 0.0108577311 0.0185623169
vt 0.0108577013 0.981436908
vt 0.989142239 0.981437147
vt 0.13181138 0.193122983
vt 0.13181141 0.80687803
vt 0.868187785 0.806877851
vt 0.868187785 0.193122983
vt 0.0185628533 0.000499606133
vt 0.0192971826 0.00462305546
vt 0.980703235 0.00462305546
vt 0.981437564 0.000499606133
vt 0.0185623467 0.000499606133
vt 0.0192966759 0.00462305546
vt 0.980702579 0.00462305546
vt 0.981436908 0.000499606133
vt 0.192415267 0.995376945
vt 0.19312197 0.999500394
vt 0.806877017 0.999500394
vt 0.80758369 0.995376885
vt 0.806877851 0.999500453
vt 0.807584524 0.995377004
vt 0.192416251 0.995376945
vt 0.193122953 0.999500394
vt 0.989142239 0.000499606133
vt 0.988631368 0.00462436676
vt 0.999500394 0.00462305546
vt 0.0108577311 0.000499606133
vt 0.000499516726 0.00462305546
vt 0.0113686323 0.00462436676
vt 0.000499516726 0.00462305546
vt 0.0113686025 0.00462436676
vt 0.0108577013 0.000499606133
vt 0.988631368 0.00462436676
vt 0.999500453 0.00462305546
vt 0.989142299 0.000499606133
vt 0.988631368 0.00462436676
vt 0.989142239 0.000499606133
vt 0.0108577013 0.000499606133
vt 0.0113686025 0.00462436676
vt 0.988631368 0.00462436676
vt 0.989142299 0.000499606133
vt 0.0108577311 0.000499606133
vt 0.0113686323 0.00462436676
vt 0.879545212 0.995376945
vt 0.868676543 0.995375633
vt 0.86818862 0.999500394
vt 0.120454729 0.995376885
vt 0.13181138 0.999500394
vt 0.131323487 0.995375574
vt 0.131812185 0.999500453
vt 0.131324291 0.995375633
vt 0.120455533 0.995377004
vt 0.868675709 0.995375633
vt 0.868187785 0.999500394
vt 0.879544437 0.995376945
vt 0.131324291 0.995375633
vt 0.131812185 0.999500453
vt 0.86818862 0.999500394
vt 0.868676543 0.995375633
vt 0.131323487 0.995375574
vt 0.13181138 0.999500394
vt 0.868187785 0.999500394
vt 0.868675709 0.995375633
vt 0.868676543 0.995375633
vt 0.879545212 0.995376945
vt 0.999500394 0.00462305546
vt 0.988631368 0.00462436676
vt 0.0113686323 0.00462436676
vt 0.000499516726 0.00462305546
vt 0.120454729 0.995376885
vt 0.131323487 0.995375574
vt 0.0113686025 0.00462436676
vt 0.000499516726 0.00462305546
vt 0.120455533 0.995377004
vt 0.131324291 0.995375633
vt 0.868675709 0.995375633
vt 0.879544437 0.995376945
vt 0.999500453 0.00462305546
vt 0.988631368 0.00462436676
vt -0.996468306 0.995964468
vt -0.00783659425 1
vt -0.00387068186 0.00134515762
vt -0.995053709 0
vt -0.00437860657 0.998654842
vt -0.00471024681 -0.00134515762
vt -0.996854067 -0.00269031525
vt -0.997285604 0.997309685
vt 0.0113686025 0.00462436676
vt 0.131324291 0.995375633
vt 0.868676543 0.995375633
vt 0.988631368 0.00462436676
vt 0.988631368 0.00462436676
vt 0.0113686323 0.00462436676
vt 0.131323487 0.995375574
vt 0.868675709 0.995375633
f 1/1 2/2 3/3
f 3/3 4/4 1/1
f 5/5 6/6 7/7
f 7/7 8/8 5/5
f 9/9 10/10 11/11
f 11/11 12/12 9/9
f 13/13 14/14 15/15
f 15/15 16/16 13/13
f 17/17 18/18 19/19
f 19/19 20/20 17/17
f 21/21 22/22 23/23
f 23/23 24/24 21/21
f 25/25 26/26 27/27
f 28/28 29/29 30/30
f 31/31 32/32 33/33
f 34/34 35/35 36/36
f 37/37 38/38 39/39
f 39/39 40/40 37/37
f 41/41 42/42 43/43
f 43/43 44/44 41/41
f 45/45 46/46 47/47
f 48/48 49/49 50/50
f 51/51 52/52 53/53
f 54/54 55/55 56/56
f 57/57 58/58 59/59
f 59/59 60/60 57/57
f 61/61 62/62 63/63
f 63/63 64/64 61/61
f 65/65 66/66 67/67
f 67/67 68/68 65/65
f 69/69 70/70 71/71
f 71/71 72/72 69/69
f 73/73 74/74 75/75
f 75/75 76/76 73/73
f 77/77 78/78 79/79
f 79/79 80/80 77/77
f 81/81 82/82 83/83
f 83/83 84/84 81/81
f 85/85 86/86 87/87
f 87/87 88/88 85/85
f 89/89 90/90 91/91
f 91/91 92/92 89/89
f 93/93 94/94 95/95
f 95/95 96/96 93/93
