v -0.349219203 -0.417211682 0.0249306485
v 0.349280775 -0.417211682 0.0249306485
v 0.341680795 -0.409611702 0.0249306485
v 0.341680795 0.387988299 0.0249306485
v -0.341619223 -0.409611702 0.0249306485
v 0.349280775 0.395588309 0.0249306485
v -0.349219203 0.395588309 0.0249306485
v -0.341619223 0.387988299 0.0249306485
v -0.341619223 -0.409611702 0.02293065
v 0.341680795 -0.409611702 0.02293065
v 0.32788077 -0.395811707 0.02293065
v 0.32788077 0.374188304 0.02293065
v -0.327819228 -0.395811707 0.02293065
v 0.341680795 0.387988299 0.02293065
v -0.341619223 0.387988299 0.02293065
v -0.327819228 0.374188304 0.02293065
v -0.327819228 -0.395811707 0.0181306526
v 0.32788077 -0.395811707 0.0181306526
v 0.318910778 -0.386841714 0.0181306526
v 0.318910778 0.365218312 0.0181306526
v -0.318849206 -0.386841714 0.0181306526
v 0.32788077 0.374188304 0.0181306526
v -0.327819228 0.374188304 0.0181306526
v -0.318849206 0.365218312 0.0181306526
v 0.318910778 -0.386841714 0.0181306526
v 0.318910778 0.365218312 0.0181306526
v 0.318910778 0.365218312 0.0153306546
v 0.318910778 -0.386841714 0.0153306546
v -0.318849206 0.365218312 0.0181306526
v -0.318849206 -0.386841714 0.0181306526
v -0.318849206 -0.386841714 0.0153306546
v -0.318849206 0.365218312 0.0153306546
v 0.32788077 -0.395811707 0.02293065
v 0.32788077 0.374188304 0.02293065
v 0.32788077 0.374188304 0.0181306526
v 0.32788077 -0.395811707 0.0181306526
v -0.327819228 0.374188304 0.02293065
v -0.327819228 -0.395811707 0.02293065
v -0.327819228 -0.395811707 0.0181306526
v -0.327819228 0.374188304 0.0181306526
v 0.341680795 -0.409611702 0.0249306485
v 0.341680795 0.387988299 0.0249306485
v 0.341680795 0.387988299 0.02293065
v 0.341680795 -0.409611702 0.02293065
v -0.341619223 0.387988299 0.0249306485
v -0.341619223 -0.409611702 0.0249306485
v -0.341619223 -0.409611702 0.02293065
v -0.341619223 0.387988299 0.02293065
v -0.318849206 -0.386841714 0.0181306526
v 0.318910778 -0.386841714 0.0181306526
v 0.318910778 -0.386841714 0.0153306546
v -0.318849206 -0.386841714 0.0153306546
v 0.318910778 0.365218312 0.0181306526
v -0.318849206 0.365218312 0.0181306526
v -0.318849206 0.365218312 0.0153306546
v 0.318910778 0.365218312 0.0153306546
v -0.327819228 -0.395811707 0.02293065
v 0.32788077 -0.395811707 0.02293065
v 0.32788077 -0.395811707 0.0181306526
v -0.327819228 -0.395811707 0.0181306526
v 0.32788077 0.374188304 0.02293065
v -0.327819228 0.374188304 0.02293065
v -0.327819228 0.374188304 0.0181306526
v 0.32788077 0.374188304 0.0181306526
v -0.341619223 -0.409611702 0.0249306485
v 0.341680795 -0.409611702 0.0249306485
v 0.341680795 -0.409611702 0.02293065
v -0.341619223 -0.409611702 0.02293065
v 0.341680795 0.387988299 0.0249306485
v -0.341619223 0.387988299 0.0249306485
v -0.341619223 0.387988299 0.02293065
v 0.341680795 0.387988299 0.02293065
vt 0.00049957633 0.999500275
vt 0.999500155 0.999500453
vt 0.988630533 0.990159392
vt 0.988630891 0.00984072685
vt 0.011369139 0.990159273
vt 0.999500394 0.000499725342
vt 0.000499874353 0.000499546528
vt 0.011369437 0.00984060764
vt 0.011369139 0.990159273
vt 0.988630533 0.990159392
vt 0.968893707 0.973198056
vt 0.968893945 0.0268021822
vt 0.0311060548 0.973197818
vt 0.988630891 0.00984072685
vt 0.011369437 0.00984060764
vt 0.0311062932 0.0268019438
vt 0.0311060548 0.973197818
vt 0.968893707 0.973198056
vt 0.956064761 0.962173164
vt 0.956064999 0.0378270149
vt 0.0439350009 0.962172985
vt 0.968893945 0.0268021822
vt 0.0311062932 0.0268019438
vt 0.0439352393 0.0378268361
vt 0.956064761 0.962173164
vt 0.956064999 0.0378270149
vt 0.956064999 0.0378270149
vt 0.956064761 0.962173164
vt 0.0439352393 0.0378268361
vt 0.0439350009 0.962172985
vt 0.0439350009 0.962172985
vt 0.0439352393 0.0378268361
vt 0.968893707 0.973198056
vt 0.968893945 0.0268021822
vt 0.968893945 0.0268021822
vt 0.968893707 0.973198056
vt 0.0311062932 0.0268019438
vt 0.0311060548 0.973197818
vt 0.0311060548 0.973197818
vt 0.0311062932 0.0268019438
vt 0.988630533 0.990159392
vt 0.988630891 0.00984072685
vt 0.988630891 0.00984072685
vt 0.988630533 0.990159392
vt 0.011369437 0.00984060764
vt 0.011369139 0.990159273
vt 0.011369139 0.990159273
vt 0.011369437 0.00984060764
vt 0.0439350009 0.962172985
vt 0.956064761 0.962173164
vt 0.956064761 0.962173164
vt 0.0439350009 0.962172985
vt 0.956064999 0.0378270149
vt 0.0439352393 0.0378268361
vt 0.0439352393 0.0378268361
vt 0.956064999 0.0378270149
vt 0.0311060548 0.973197818
vt 0.968893707 0.973198056
vt 0.968893707 0.973198056
vt 0.0311060548 0.973197818
vt 0.968893945 0.0268021822
vt 0.0311062932 0.0268019438
vt 0.0311062932 0.0268019438
vt 0.968893945 0.0268021822
vt 0.011369139 0.990159273
vt 0.988630533 0.990159392
vt 0.988630533 0.990159392
vt 0.011369139 0.990159273
vt 0.988630891 0.00984072685
vt 0.011369437 0.00984060764
vt 0.011369437 0.00984060764
vt 0.988630891 0.00984072685
f 1/1 2/2 3/3
f 4/4 3/3 2/2
f 3/3 5/5 1/1
f 2/2 6/6 4/4
f 7/7 1/1 5/5
f 8/8 4/4 6/6
f 6/6 7/7 8/8
f 5/5 8/8 7/7
f 9/9 10/10 11/11
f 12/12 11/11 10/10
f 11/11 13/13 9/9
f 10/10 14/14 12/12
f 15/15 9/9 13/13
f 16/16 12/12 14/14
f 14/14 15/15 16/16
f 13/13 16/16 15/15
f 17/17 18/18 19/19
f 20/20 19/19 18/18
f 19/19 21/21 17/17
f 18/18 22/22 20/20
f 23/23 17/17 21/21
f 24/24 20/20 22/22
f 22/22 23/23 24/24
f 21/21 24/24 23/23
f 25/25 26/26 27/27
f 27/27 28/28 25/25
f 29/29 30/30 31/31
f 31/31 32/32 29/29
f 33/33 34/34 35/35
f 35/35 36/36 33/33
f 37/37 38/38 39/39
f 39/39 40/40 37/37
f 41/41 42/42 43/43
f 43/43 44/44 41/41
f 45/45 46/46 47/47
f 47/47 48/48 45/45
f 49/49 50/50 51/51
f 51/51 52/52 49/49
f 53/53 54/54 55/55
f 55/55 56/56 53/53
f 57/57 58/58 59/59
f 59/59 60/60 57/57
f 61/61 62/62 63/63
f 63/63 64/64 61/61
f 65/65 66/66 67/67
f 67/67 68/68 65/65
f 69/69 70/70 71/71
f 71/71 72/72 69/69
