v -0.349219203 -0.417211682 -9.2639603e-17
v 0.349280775 -0.417211682 -9.2639603e-17
v 0.349280775 -0.417211682 0.0249306485
v -0.349219203 -0.417211682 0.0249306485
v 0.349280775 0.395588309 8.78382497e-17
v -0.349219203 0.395588309 8.78382497e-17
v -0.349219203 0.395588309 0.0249306485
v 0.349280775 0.395588309 0.0249306485
v 0.349280775 -0.417211682 -9.2639603e-17
v 0.349280775 0.395588309 8.78382497e-17
v 0.349280775 0.395588309 0.0249306485
v 0.349280775 -0.417211682 0.0249306485
v -0.349219203 0.395588309 8.78382497e-17
v -0.349219203 -0.417211682 -9.2639603e-17
v -0.349219203 -0.417211682 0.0249306485
v -0.349219203 0.395588309 0.0249306485
v -0.349219203 -0.417211682 -9.2639603e-17
v -0.349219203 0.395588309 8.78382497e-17
v 0.349280775 0.395588309 8.78382497e-17
v 0.349280775 -0.417211682 -9.2639603e-17
f 1 2 3
f 3 4 1
f 5 6 7
f 7 8 5
f 9 10 11
f 11 12 9
f 13 14 15
f 15 16 13
f 17 18 19
f 19 20 17
