v 0.065555051 0.00676577585 0.359905213
v 0.0673016533 -0.00873579271 0.359905213
v 0.0700803623 -0.00873579271 0.359905213
v 0.0682640821 -0.0248556752 0.359905213
v 0.0682640895 0.00738409581 0.359905213
v 0.0655550435 -0.0242373552 0.359905213
v 0.0604028106 0.02149003 0.359905213
v 0.0629063249 -0.040167246 0.359905213
v 0.0629063398 0.0226956662 0.359905213
v 0.0604027994 -0.0389616117 0.359905213
v 0.0521032996 0.0346986391 0.359905213
v 0.0542757623 -0.0539027117 0.359905213
v 0.0542757809 0.0364311375 0.359905213
v 0.052103281 -0.052170217 0.359905213
v 0.0410726741 0.0457292609 0.359905183
v 0.0428051762 -0.065373309 0.359905243
v 0.0428051725 0.0479017422 0.359905183
v 0.0410726778 -0.063200824 0.359905243
v 0.0278640687 0.054028783 0.359905183
v 0.0290697012 -0.0740038827 0.359905243
v 0.0290697049 0.0565323122 0.359905183
v 0.0278640669 -0.0715003535 0.359905243
v 0.0131398188 0.0591810159 0.359905183
v 0.0137581266 -0.079361625 0.359905243
v 0.0137581397 0.0618900582 0.359905183
v 0.0131398076 -0.0766525865 0.359905243
v -0.00236174255 0.0609276295 0.359905183
v -0.00236176886 -0.0811778978 0.359905243
v -0.00236174255 0.0637063384 0.359905183
v -0.00236176886 -0.0783991888 0.359905243
v -0.0178633202 0.0591810234 0.359905183
v -0.0184816308 -0.0793616325 0.359905243
v -0.0184816401 0.0618900619 0.359905183
v -0.0178633109 -0.0766525939 0.359905243
v -0.0325875692 0.0540287904 0.359905183
v -0.0337932371 -0.0740038604 0.359905243
v -0.033793211 0.0565323196 0.359905183
v -0.0325875953 -0.0715003312 0.359905243
v -0.0457961783 0.0457292646 0.359905183
v -0.0475286767 -0.0653733164 0.359905243
v -0.0475286767 0.0479017459 0.359905183
v -0.0457961783 -0.0632008314 0.359905243
v -0.0568267964 0.0346986502 0.359905213
v -0.0589992851 -0.0539027005 0.359905213
v -0.0589992777 0.0364311449 0.359905213
v -0.0568268038 -0.0521702059 0.359905213
v -0.0651263073 0.0214900393 0.359905213
v -0.0676298514 -0.040167246 0.359905213
v -0.067629844 0.0226956774 0.359905213
v -0.0651263148 -0.038961608 0.359905213
v -0.0702785552 0.00676579773 0.359905213
v -0.0729876086 -0.024855651 0.359905213
v -0.0729875937 0.00738412002 0.359905213
v -0.0702785775 -0.024237331 0.359905213
v -0.072025165 -0.00873577595 0.359905213
v -0.0748038739 -0.00873577408 0.359905213
v 0.0700803623 -0.00873577688 -0.000545508403
v 0.0682640895 -0.0248556603 -0.000545498915
v 0.0682640821 0.00738411164 -0.000545517891
v 0.0629063323 0.0226956792 -0.00054551725
v 0.054275766 0.0364311486 -0.000545526855
v 0.0428051502 0.0479017496 -0.000545536517
v 0.0542757772 -0.053902708 -0.000545490009
v 0.0629063398 -0.0401672348 -0.000545499614
v 0.0290696826 0.0565323085 -0.000545536168
v 0.0428051949 -0.0653733015 -0.000545480289
v 0.0137581155 0.0618900508 -0.000545535935
v 0.0290697254 -0.0740038753 -0.000545480696
v -0.00236176886 0.063706331 -0.000545535877
v 0.0137581509 -0.0793616325 -0.000545480929
v -0.0184816662 0.0618900508 -0.000545535935
v -0.00236174255 -0.0811779052 -0.000545480987
v -0.0337932259 0.056532301 -0.000545536168
v -0.0184816048 -0.0793616399 -0.000545480929
v -0.0475286953 0.0479017273 -0.000545536517
v -0.033793211 -0.0740038827 -0.000545480696
v -0.0589992926 0.0364311151 -0.000545526855
v -0.0475286581 -0.0653733313 -0.000545480289
v -0.0676298514 0.0226956438 -0.00054551725
v -0.0589992777 -0.0539027341 -0.000545490009
v -0.0729876012 0.00738408556 -0.000545517891
v -0.067629844 -0.0401672758 -0.000545499614
v -0.0748038739 -0.00873580854 -0.000545508403
v -0.0729876012 -0.0248556864 -0.000545498915
v 0.0682640821 0.00738411164 -0.000545517891
v 0.0682640895 0.00738409581 0.359905213
v 0.0700803623 -0.00873579271 0.359905213
v 0.0629063323 0.0226956792 -0.00054551725
v 0.0700803623 -0.00873577688 -0.000545508403
v 0.0629063398 0.0226956662 0.359905213
v 0.0682640821 -0.0248556752 0.359905213
v 0.054275766 0.0364311486 -0.000545526855
v 0.0682640895 -0.0248556603 -0.000545498915
v 0.0542757809 0.0364311375 0.359905213
v 0.0629063249 -0.040167246 0.359905213
v 0.0428051502 0.0479017496 -0.000545536517
v 0.0629063398 -0.0401672348 -0.000545499614
v 0.0428051725 0.0479017422 0.359905183
v 0.0542757623 -0.0539027117 0.359905213
v 0.0290696826 0.0565323085 -0.000545536168
v 0.0542757772 -0.053902708 -0.000545490009
v 0.0290697049 0.0565323122 0.359905183
v 0.0428051762 -0.065373309 0.359905243
v 0.0137581155 0.0618900508 -0.000545535935
v 0.0428051949 -0.0653733015 -0.000545480289
v 0.0137581397 0.0618900582 0.359905183
v 0.0290697012 -0.0740038827 0.359905243
v -0.00236176886 0.063706331 -0.000545535877
v 0.0290697254 -0.0740038753 -0.000545480696
v -0.00236174255 0.0637063384 0.359905183
v 0.0137581266 -0.079361625 0.359905243
v -0.0184816662 0.0618900508 -0.000545535935
v 0.0137581509 -0.0793616325 -0.000545480929
v -0.0184816401 0.0618900619 0.359905183
v -0.00236176886 -0.0811778978 0.359905243
v -0.0337932259 0.056532301 -0.000545536168
v -0.00236174255 -0.0811779052 -0.000545480987
v -0.033793211 0.0565323196 0.359905183
v -0.0184816308 -0.0793616325 0.359905243
v -0.0475286953 0.0479017273 -0.000545536517
v -0.0184816048 -0.0793616399 -0.000545480929
v -0.0475286767 0.0479017459 0.359905183
v -0.0337932371 -0.0740038604 0.359905243
v -0.0589992926 0.0364311151 -0.000545526855
v -0.033793211 -0.0740038827 -0.000545480696
v -0.0589992777 0.0364311449 0.359905213
v -0.0475286767 -0.0653733164 0.359905243
v -0.0676298514 0.0226956438 -0.00054551725
v -0.0475286581 -0.0653733313 -0.000545480289
v -0.067629844 0.0226956774 0.359905213
v -0.0589992851 -0.0539027005 0.359905213
v -0.0729876012 0.00738408556 -0.000545517891
v -0.0589992777 -0.0539027341 -0.000545490009
v -0.0729875937 0.00738412002 0.359905213
v -0.0676298514 -0.040167246 0.359905213
v -0.0748038739 -0.00873580854 -0.000545508403
v -0.067629844 -0.0401672758 -0.000545499614
v -0.0748038739 -0.00873577408 0.359905213
v -0.0729876086 -0.024855651 0.359905213
v -0.0729876012 -0.0248556864 -0.000545498915
v -0.0325875692 0.0540287904 0.359905183
v -0.0457961783 0.0457292646 0.359905183
v -0.0457961969 0.045729246 0.00548737124
v -0.0568267964 0.0346986502 0.359905213
v -0.056826815 0.0346986204 0.00548738101
v -0.0651263148 0.0214900095 0.00548739079
v -0.0651263073 0.0214900393 0.359905213
v -0.0702785701 0.00676576514 0.00548739033
v -0.0702785552 0.00676579773 0.359905213
v -0.072025165 -0.00873580854 0.00548739964
v -0.072025165 -0.00873577595 0.359905213
v -0.0702785701 -0.0242373645 0.00548740895
v -0.0702785775 -0.024237331 0.359905213
v -0.0651263073 -0.0389616415 0.00548740849
v -0.0651263148 -0.038961608 0.359905213
v -0.0568268038 -0.0521702059 0.359905213
v -0.0568267964 -0.0521702357 0.00548741827
v -0.0457961783 -0.0632008314 0.359905243
v -0.0457961634 -0.0632008463 0.00548742805
v -0.0325875804 -0.0715003461 0.159659162
v -0.0325875692 -0.0715003535 0.00548742758
v -0.0325875953 -0.0715003312 0.359905243
v -0.0178632848 -0.0766526014 0.00548742712
v -0.0178633109 -0.0766525939 0.359905243
v -0.00236176886 -0.0783991888 0.359905243
v -0.00236174255 -0.0783991963 0.00548742712
v 0.0131398207 -0.0766525939 0.159659162
v 0.01313983 -0.0766525939 0.00548742712
v 0.0131398076 -0.0766525865 0.359905243
v 0.0278640781 -0.0715003461 0.159659162
v 0.0278640874 -0.0715003461 0.00548742758
v 0.0278640669 -0.0715003535 0.359905243
v 0.0410726964 -0.0632008165 0.00548742805
v 0.0410726778 -0.063200824 0.359905243
v 0.0521032885 -0.0521702133 0.159659147
v 0.0521032959 -0.0521702096 0.00548741827
v 0.052103281 -0.052170217 0.359905213
v 0.0604027994 -0.0389616117 0.359905213
v 0.0673016533 -0.00873577688 0.00548739964
v 0.0673016533 -0.0087357834 0.159659147
v 0.0655550435 0.00676579028 0.00548739033
v 0.065555051 -0.0242373385 0.00548740895
v 0.0673016533 -0.00873579271 0.359905213
v 0.0655550435 -0.0242373552 0.359905213
v 0.065555051 0.00676577585 0.359905213
v 0.0655550435 -0.0242373459 0.159659147
v 0.0604028106 -0.0389616005 0.00548740849
v 0.0604028106 0.02149003 0.359905213
v 0.0604027994 0.0214900412 0.00548739079
v 0.0521032847 0.0346986502 0.00548738101
v 0.0521032996 0.0346986391 0.359905213
v 0.0410726741 0.0457292609 0.359905183
v 0.0410726555 0.0457292683 0.00548737124
v 0.0278640464 0.0540287793 0.0054873717
v 0.0278640687 0.054028783 0.359905183
v 0.0131397946 0.0591810122 0.00548737217
v 0.0131398188 0.0591810159 0.359905183
v -0.00236174255 0.0609276295 0.359905183
v -0.00236176886 0.060927622 0.00548737217
v -0.0178633463 0.0591810122 0.00548737217
v -0.0178633202 0.0591810234 0.359905183
v -0.0325875878 0.0540287718 0.0054873717
v 0.0655550435 0.00676579028 0.00548739033
v -0.00236176001 -0.00873578992 0.00587004004
v 0.0673016533 -0.00873577688 0.00548739964
v 0.065555051 -0.0242373385 0.00548740895
v 0.0604027994 0.0214900412 0.00548739079
v 0.0604028106 -0.0389616005 0.00548740849
v 0.0521032847 0.0346986502 0.00548738101
v 0.0521032959 -0.0521702096 0.00548741827
v 0.0410726555 0.0457292683 0.00548737124
v 0.0410726964 -0.0632008165 0.00548742805
v 0.0278640464 0.0540287793 0.0054873717
v 0.0278640874 -0.0715003461 0.00548742758
v 0.0131397946 0.0591810122 0.00548737217
v 0.01313983 -0.0766525939 0.00548742712
v -0.00236176886 0.060927622 0.00548737217
v -0.00236174255 -0.0783991963 0.00548742712
v -0.0178633463 0.0591810122 0.00548737217
v -0.0178632848 -0.0766526014 0.00548742712
v -0.0325875878 0.0540287718 0.0054873717
v -0.0325875692 -0.0715003535 0.00548742758
v -0.0457961969 0.045729246 0.00548737124
v -0.0457961634 -0.0632008463 0.00548742805
v -0.056826815 0.0346986204 0.00548738101
v -0.0568267964 -0.0521702357 0.00548741827
v -0.0651263148 0.0214900095 0.00548739079
v -0.0651263073 -0.0389616415 0.00548740849
v -0.0702785701 0.00676576514 0.00548739033
v -0.0702785701 -0.0242373645 0.00548740895
v -0.072025165 -0.00873580854 0.00548739964
f 1 2 3
f 4 3 2
f 3 5 1
f 2 6 4
f 7 1 5
f 8 4 6
f 5 9 7
f 6 10 8
f 11 7 9
f 12 8 10
f 9 13 11
f 10 14 12
f 15 11 13
f 16 12 14
f 13 17 15
f 14 18 16
f 19 15 17
f 20 16 18
f 17 21 19
f 18 22 20
f 23 19 21
f 24 20 22
f 21 25 23
f 22 26 24
f 27 23 25
f 28 24 26
f 25 29 27
f 26 30 28
f 31 27 29
f 32 28 30
f 29 33 31
f 30 34 32
f 35 31 33
f 36 32 34
f 33 37 35
f 34 38 36
f 39 35 37
f 40 36 38
f 37 41 39
f 38 42 40
f 43 39 41
f 44 40 42
f 41 45 43
f 42 46 44
f 47 43 45
f 48 44 46
f 45 49 47
f 46 50 48
f 51 47 49
f 52 48 50
f 49 53 51
f 50 54 52
f 55 51 53
f 56 52 54
f 54 55 56
f 53 56 55
f 57 58 59
f 59 58 60
f 60 58 61
f 61 58 62
f 63 58 64
f 62 58 65
f 66 58 63
f 65 58 67
f 68 58 66
f 67 58 69
f 70 58 68
f 69 58 71
f 72 58 70
f 71 58 73
f 74 58 72
f 73 58 75
f 76 58 74
f 75 58 77
f 78 58 76
f 77 58 79
f 80 58 78
f 79 58 81
f 82 58 80
f 81 58 83
f 84 58 82
f 83 58 84
f 85 86 87
f 86 85 88
f 87 89 85
f 88 90 86
f 89 87 91
f 90 88 92
f 91 93 89
f 92 94 90
f 93 91 95
f 94 92 96
f 95 97 93
f 96 98 94
f 97 95 99
f 98 96 100
f 99 101 97
f 100 102 98
f 101 99 103
f 102 100 104
f 103 105 101
f 104 106 102
f 105 103 107
f 106 104 108
f 107 109 105
f 108 110 106
f 109 107 111
f 110 108 112
f 111 113 109
f 112 114 110
f 113 111 115
f 114 112 116
f 115 117 113
f 116 118 114
f 117 115 119
f 118 116 120
f 119 121 117
f 120 122 118
f 121 119 123
f 122 120 124
f 123 125 121
f 124 126 122
f 125 123 127
f 126 124 128
f 127 129 125
f 128 130 126
f 129 127 131
f 130 128 132
f 131 133 129
f 132 134 130
f 133 131 135
f 134 132 136
f 135 137 133
f 136 138 134
f 137 135 139
f 138 136 140
f 139 140 137
f 140 139 138
f 141 142 143
f 144 143 142
f 144 145 143
f 145 144 146
f 144 147 146
f 148 146 147
f 147 149 148
f 150 148 149
f 149 151 150
f 152 150 151
f 151 153 152
f 154 152 153
f 153 155 154
f 156 154 155
f 156 157 154
f 157 156 158
f 158 159 157
f 159 158 160
f 160 161 159
f 158 162 160
f 161 160 163
f 163 160 162
f 162 164 163
f 165 163 164
f 165 166 163
f 166 165 167
f 167 168 166
f 165 169 167
f 168 167 170
f 170 167 169
f 170 171 168
f 169 172 170
f 171 170 173
f 173 170 172
f 172 174 173
f 175 173 174
f 175 176 173
f 174 177 175
f 176 175 178
f 178 175 177
f 179 180 181
f 180 179 182
f 181 180 183
f 184 183 180
f 183 185 181
f 180 186 184
f 182 186 180
f 178 184 186
f 186 182 187
f 188 181 185
f 188 189 181
f 187 178 186
f 178 187 176
f 189 188 190
f 188 191 190
f 192 190 191
f 192 193 190
f 193 192 194
f 192 195 194
f 196 194 195
f 195 197 196
f 198 196 197
f 198 199 196
f 199 198 200
f 198 201 200
f 141 200 201
f 141 202 200
f 202 141 143
f 203 204 205
f 205 204 206
f 207 204 203
f 206 204 208
f 209 204 207
f 208 204 210
f 211 204 209
f 210 204 212
f 213 204 211
f 212 204 214
f 215 204 213
f 214 204 216
f 217 204 215
f 216 204 218
f 219 204 217
f 218 204 220
f 221 204 219
f 220 204 222
f 223 204 221
f 222 204 224
f 225 204 223
f 224 204 226
f 227 204 225
f 226 204 228
f 229 204 227
f 228 204 230
f 231 204 229
f 230 204 231
