v 0.196161017 -0.310608327 0.291110247
v 0.196161017 -0.30594027 0.287193269
v 0.196161017 -0.300214052 0.285109103
v 0.196161017 -0.313659787 0.296395481
v 0.196161002 -0.318975031 0.323708236
v 0.196161002 -0.308572799 0.32395497
v 0.196161002 -0.318602681 0.323745281
v 0.196161017 -0.294120342 0.285109103
v 0.196161017 -0.288394094 0.287193298
v 0.196161017 -0.280674607 0.296395481
v 0.196161017 -0.283726037 0.291110247
v 0.196161002 -0.275731713 0.323745281
v 0.196161002 -0.301128328 0.324002534
v 0.196161002 -0.275359362 0.323708236
v -0.00419565942 0.00336065609 0.253476739
v -0.00576696452 0.00336065609 0.255048037
v -0.00634210138 0.00336065609 0.257194489
v -0.00204921747 0.00336065609 0.252901584
v 9.72245762e-05 0.00336065609 0.253476739
v 0.00166852586 0.00336065609 0.255048037
v 0.00224366644 0.00336065609 0.257194489
v 0.0016685297 0.00336065609 0.259340912
v 9.72245762e-05 0.00336065609 0.26091224
v -0.00204921747 0.00336065609 0.261487365
v -0.00419565942 0.00336065609 0.26091224
v -0.00576696452 0.00336065609 0.259340912
v 0.195157066 -0.314613163 0.296038896
v 0.196161017 -0.313659787 0.296395481
v 0.196161002 -0.318975031 0.323708236
v 0.195157051 -0.319978386 0.323608398
v 0.195157066 -0.311389267 0.290454954
v 0.196161017 -0.310608327 0.291110247
v 0.196161017 -0.313659787 0.296395481
v 0.195157066 -0.314613163 0.296038896
v 0.195157066 -0.30644998 0.286310434
v 0.196161017 -0.30594027 0.287193269
v 0.196161017 -0.310608327 0.291110247
v 0.195157066 -0.311389267 0.290454954
v 0.195157066 -0.300391078 0.284105152
v 0.196161017 -0.300214052 0.285109103
v 0.196161017 -0.30594027 0.287193269
v 0.195157066 -0.30644998 0.286310434
v -0.225687802 -0.229017273 0.240497231
v -0.225687787 -0.227500841 0.238872901
v -0.225687802 -0.22699976 0.236707985
v -0.225687802 -0.2311427 0.241145745
v -0.225687817 -0.233307615 0.240644649
v -0.225687832 -0.234931946 0.239128232
v -0.225687832 -0.235580459 0.237002805
v -0.225687847 -0.235079363 0.234837875
v -0.225687832 -0.233562946 0.233213544
v -0.225687832 -0.231437519 0.232565045
v -0.225687817 -0.229272589 0.233066127
v -0.225687802 -0.227648258 0.234582558
v 0.195157066 -0.293943316 0.284105152
v 0.196161017 -0.294120342 0.285109103
v 0.196161017 -0.300214052 0.285109103
v 0.195157066 -0.300391078 0.284105152
v 0.0983023047 -0.28068009 0.308390051
v 0.108341768 -0.28068009 0.308390051
v 0.108341768 -0.279621929 0.302388906
v 0.0983023047 -0.28372696 0.313667357
v 0.0983023047 -0.279621929 0.302388906
v 0.108341768 -0.28372696 0.313667357
v 0.108341768 -0.28068009 0.296387732
v 0.0983023047 -0.288395017 0.317584336
v 0.0983023047 -0.28068009 0.296387732
v 0.108341768 -0.288395017 0.317584336
v 0.108341768 -0.28372696 0.291110426
v 0.0983023047 -0.294121265 0.319668502
v 0.0983022973 -0.28372696 0.291110426
v 0.108341768 -0.294121265 0.319668502
v 0.108341761 -0.288395017 0.287193447
v 0.0983023047 -0.300214976 0.319668502
v 0.0983022973 -0.288395017 0.287193447
v 0.108341768 -0.300214976 0.319668502
v 0.108341761 -0.294121236 0.285109282
v 0.0983023047 -0.305941194 0.317584336
v 0.0983022973 -0.294121236 0.285109282
v 0.108341768 -0.305941194 0.317584336
v 0.108341761 -0.300214976 0.285109282
v 0.0983022973 -0.310609251 0.313667357
v 0.0983022973 -0.300214976 0.285109282
v 0.108341768 -0.310609251 0.313667357
v 0.108341761 -0.305941194 0.287193447
v 0.0983022973 -0.313656121 0.308390051
v 0.0983022973 -0.305941194 0.287193447
v 0.108341761 -0.313656121 0.308390021
v 0.108341761 -0.310609251 0.291110426
v 0.0983022973 -0.314714283 0.302388877
v 0.0983022973 -0.310609251 0.291110426
v 0.108341761 -0.314714283 0.302388877
v 0.108341761 -0.313656121 0.296387732
v 0.0983022973 -0.313656121 0.296387732
v 0.108341768 -0.279621929 0.302388906
v 0.108341768 -0.28068009 0.308390051
v 0.108341768 -0.28372696 0.313667357
v 0.108341768 -0.28068009 0.296387732
v 0.108341768 -0.28372696 0.291110426
v 0.108341761 -0.294121236 0.285109282
v 0.108341761 -0.288395017 0.287193447
v 0.108341761 -0.305941194 0.287193447
v 0.108341761 -0.300214976 0.285109282
v 0.108341761 -0.313656121 0.296387732
v 0.108341761 -0.310609251 0.291110426
v 0.108341768 -0.288395017 0.317584336
v 0.108341768 -0.294121265 0.319668502
v 0.108341768 -0.305941194 0.317584336
v 0.108341768 -0.300214976 0.319668502
v 0.108341761 -0.313656121 0.308390021
v 0.108341761 -0.314714283 0.302388877
v 0.108341768 -0.310609251 0.313667357
v -0.201307163 -0.314613998 0.296039075
v -0.201307163 -0.319979221 0.323608577
v -0.202311113 -0.318975866 0.323708385
v -0.202311113 -0.313660622 0.29639563
v 0.195157066 -0.287884384 0.286310434
v 0.196161017 -0.288394094 0.287193298
v 0.196161017 -0.294120342 0.285109103
v 0.195157066 -0.293943316 0.284105152
v -0.202311113 -0.318975866 0.323708385
v -0.202311113 -0.318603545 0.32374543
v -0.202311113 -0.314642429 0.323865801
v -0.202311113 -0.313660622 0.29639563
v -0.202311113 -0.310609162 0.291110426
v -0.202311099 -0.300214887 0.285109282
v -0.202311099 -0.305941105 0.287193447
v -0.202311099 -0.288394928 0.287193477
v -0.202311099 -0.294121146 0.285109282
v -0.202311099 -0.280675441 0.296395659
v -0.202311099 -0.283726871 0.291110426
v -0.202311113 -0.301129162 0.324002683
v -0.202311099 -0.285762459 0.323955178
v -0.202311113 -0.29320693 0.324002713
v -0.202311099 -0.275732547 0.323745459
v -0.202311099 -0.275360227 0.323708415
v 0.0983023047 -0.279722124 0.308738708
v 0.0983023047 -0.28068009 0.308390051
v 0.0983023047 -0.279621929 0.302388906
v 0.0983023047 -0.28294602 0.31432265
v 0.0983023047 -0.278602481 0.302388906
v 0.0983023047 -0.28372696 0.313667357
v 0.0983023047 -0.28068009 0.296387732
v 0.0983023047 -0.287885308 0.3184672
v 0.0983023047 -0.279722124 0.296039075
v 0.0983023047 -0.288395017 0.317584336
v 0.0983022973 -0.28372696 0.291110426
v 0.0983023047 -0.29394424 0.320672452
v 0.0983022973 -0.28294602 0.290455133
v 0.0983023047 -0.294121265 0.319668502
v 0.0983022973 -0.288395017 0.287193447
v 0.0983023047 -0.300392002 0.320672452
v 0.0983022973 -0.287885308 0.286310613
v 0.0983023047 -0.300214976 0.319668502
v 0.0983022973 -0.294121236 0.285109282
v 0.0983023047 -0.306450933 0.31846717
v 0.0983022973 -0.29394421 0.284105331
v 0.0983023047 -0.305941194 0.317584336
v 0.0983022973 -0.300214976 0.285109282
v 0.0983022973 -0.311390191 0.31432265
v 0.0983022973 -0.300392002 0.284105331
v 0.0983022973 -0.310609251 0.313667357
v 0.0983022973 -0.305941194 0.287193447
v 0.0983022973 -0.314614087 0.308738708
v 0.0983022973 -0.306450903 0.286310613
v 0.0983022973 -0.313656121 0.308390051
v 0.0983022973 -0.310609251 0.291110426
v 0.0983022973 -0.315733731 0.302388877
v 0.0983022973 -0.311390191 0.290455163
v 0.0983022973 -0.314714283 0.302388877
v 0.0983022973 -0.313656121 0.296387732
v 0.0983022973 -0.314614087 0.296039075
v -0.201307163 -0.311390102 0.290455133
v -0.201307163 -0.314613998 0.296039075
v -0.202311113 -0.313660622 0.29639563
v -0.202311113 -0.310609162 0.291110426
v 0.195157066 -0.282945096 0.290454984
v 0.196161017 -0.283726037 0.291110247
v 0.196161017 -0.288394094 0.287193298
v 0.195157066 -0.287884384 0.286310434
v 0.195157066 -0.274356008 0.323608398
v 0.196161002 -0.275359362 0.323708236
v 0.196161017 -0.280674607 0.296395481
v 0.195157066 -0.27972123 0.296038926
v 0.195157066 -0.27972123 0.296038926
v 0.196161017 -0.280674607 0.296395481
v 0.196161017 -0.283726037 0.291110247
v 0.195157066 -0.282945096 0.290454984
v -0.201307163 -0.306450814 0.286310583
v -0.201307163 -0.311390102 0.290455133
v -0.202311113 -0.310609162 0.291110426
v -0.202311099 -0.305941105 0.287193447
v 0.0875491127 -0.29394421 0.284105331
v 0.0494660065 0.0276745893 0.265700966
v 0.0494660027 0.0337335095 0.267906249
v 0.0875491127 -0.287885308 0.286310613
v 0.0494660027 0.0386727788 0.272050798
v 0.0875491127 -0.28294602 0.290455163
v 0.0494660102 0.0418966524 0.27763471
v 0.0875491202 -0.279722124 0.296039075
v 0.0494660176 0.0430163406 0.283984542
v 0.0875491276 -0.278602481 0.302388906
v 0.0494660102 0.0418966487 0.290334344
v 0.0875491202 -0.279722124 0.308738708
v 0.0494660102 0.0386727713 0.295918286
v 0.0875491202 -0.28294602 0.31432265
v 0.0494660102 0.0337334983 0.300062835
v 0.0875491202 -0.287885308 0.3184672
v 0.0494660065 0.0276745763 0.302268088
v 0.0875491202 -0.29394424 0.320672452
v -0.173679918 -0.272332162 0.323193967
v -0.170949742 -0.271338463 0.326055229
v -0.171832889 -0.266329944 0.326055229
v -0.174738273 -0.266329944 0.323193967
v -0.170632496 -0.277610451 0.323193967
v -0.168406844 -0.275742918 0.326055229
v -0.170949742 -0.271338463 0.326055229
v -0.173679918 -0.272332162 0.323193967
v -0.201307163 -0.300391912 0.284105331
v -0.201307163 -0.306450814 0.286310583
v -0.202311099 -0.305941105 0.287193447
v -0.202311099 -0.300214887 0.285109282
v -0.174738273 -0.266329944 0.323193967
v -0.171832889 -0.266329944 0.326055229
v -0.170949742 -0.261321396 0.326055229
v -0.173679918 -0.260327697 0.323193967
v -0.16596359 -0.281528145 0.323193967
v -0.164510906 -0.279011995 0.326055229
v -0.168406844 -0.275742918 0.326055229
v -0.170632496 -0.277610451 0.323193967
v -0.201307148 -0.29394415 0.284105331
v -0.201307163 -0.300391912 0.284105331
v -0.202311099 -0.300214887 0.285109282
v -0.202311099 -0.294121146 0.285109282
v -0.173679918 -0.260327697 0.323193967
v -0.170949742 -0.261321396 0.326055229
v -0.168406844 -0.25691697 0.326055229
v -0.170632496 -0.255049437 0.323193967
v -0.160236329 -0.283612698 0.323193967
v -0.15973182 -0.280751437 0.326055229
v -0.164510906 -0.279011995 0.326055229
v -0.16596359 -0.281528145 0.323193967
v -0.201307148 -0.287885219 0.286310613
v -0.201307148 -0.29394415 0.284105331
v -0.202311099 -0.294121146 0.285109282
v -0.202311099 -0.288394928 0.287193477
v -0.201307148 -0.282945931 0.290455163
v -0.201307148 -0.287885219 0.286310613
v -0.202311099 -0.288394928 0.287193477
v -0.202311099 -0.283726871 0.291110426
v -0.170632496 -0.255049437 0.323193967
v -0.168406844 -0.25691697 0.326055229
v -0.164510891 -0.253647894 0.326055229
v -0.16596359 -0.251131743 0.323193967
v -0.173574299 -0.260366142 0.273892015
v -0.170546398 -0.255121678 0.273892015
v -0.175355777 -0.251086116 0.275179446
v -0.179473877 -0.258218884 0.275179446
v -0.180188611 -0.274701148 0.273906469
v -0.18166469 -0.266329944 0.273906469
v -0.172215149 -0.266329944 0.266369522
v -0.17130895 -0.271469206 0.266369522
v -0.180904076 -0.266329944 0.275179446
v -0.174625874 -0.266329944 0.273892015
v -0.175938442 -0.28206265 0.273906469
v -0.168699682 -0.275988609 0.266369522
v -0.179473877 -0.274441004 0.275179446
v -0.173574299 -0.272293717 0.273892015
v -0.169426799 -0.287526578 0.273906469
v -0.164702028 -0.279343039 0.266369522
v -0.175355777 -0.281573743 0.275179446
v -0.170546398 -0.27753821 0.273892015
v -0.161439091 -0.290433884 0.273906469
v -0.15979819 -0.2811279 0.266369551
v -0.169046491 -0.286867857 0.275179446
v -0.165907398 -0.281430781 0.273892015
v -0.152938753 -0.290433884 0.273906469
v -0.154579639 -0.2811279 0.266369551
v -0.161307007 -0.289684802 0.275179446
v -0.160216808 -0.283501983 0.273892015
v -0.144951031 -0.287526578 0.273906469
v -0.149675801 -0.279343039 0.266369522
v -0.138439387 -0.28206268 0.273906469
v -0.153070822 -0.289684832 0.275179446
v -0.145331338 -0.286867887 0.275179446
v -0.139022052 -0.281573772 0.275179446
v -0.154161021 -0.283502012 0.273892015
v -0.148470432 -0.281430811 0.273892015
v -0.143831432 -0.27753821 0.273892015
v -0.140803531 -0.272293746 0.273892015
v -0.15449433 -0.281611681 0.275882691
v -0.159883499 -0.281611681 0.275882691
v -0.164947659 -0.279768497 0.275882691
v -0.149430171 -0.279768497 0.275882691
v -0.145301819 -0.276304394 0.275882691
v -0.142607242 -0.271637261 0.275882691
v -0.139751941 -0.266329944 0.273892015
v -0.141671419 -0.266329944 0.275882691
v -0.169076011 -0.276304394 0.275882691
v -0.171770588 -0.271637231 0.275882691
v -0.165404931 -0.280560493 0.284575045
v -0.17270641 -0.266329944 0.275882691
v -0.169776574 -0.276892245 0.284575045
v -0.172629967 -0.271950036 0.284575045
v -0.171770588 -0.261022657 0.275882691
v -0.173620939 -0.266329944 0.284575045
v -0.169075996 -0.256355494 0.275882691
v -0.172629967 -0.260709852 0.284575045
v -0.164947659 -0.252891392 0.275882691
v -0.165907398 -0.251229078 0.273892015
v -0.169776574 -0.255767643 0.284575045
v -0.159883499 -0.251048177 0.275882691
v -0.160216808 -0.249157891 0.273892015
v -0.165404931 -0.252099395 0.284575045
v -0.15449433 -0.251048177 0.275882691
v -0.154161021 -0.249157891 0.273892015
v -0.160042301 -0.250147551 0.284575045
v -0.149430156 -0.252891392 0.275882691
v -0.148470432 -0.251229078 0.273892015
v -0.154335514 -0.250147551 0.284575045
v -0.145301819 -0.256355494 0.275882691
v -0.143831417 -0.255121678 0.273892015
v -0.148972899 -0.252099395 0.284575045
v -0.142607227 -0.261022657 0.275882691
v -0.140803531 -0.260366142 0.273892015
v -0.144601241 -0.255767643 0.284575045
v -0.141747847 -0.260709852 0.284575045
v -0.140756875 -0.266329944 0.284575045
v -0.140697911 -0.260327697 0.290077478
v -0.141747862 -0.271950036 0.284575045
v -0.139639542 -0.266329944 0.290077478
v -0.140697911 -0.272332191 0.290077478
v -0.144601256 -0.276892245 0.284575045
v -0.143745333 -0.277610451 0.290077478
v -0.139639542 -0.266329944 0.323193967
v -0.140697911 -0.260327697 0.323193967
v -0.140697911 -0.272332191 0.323193967
v -0.143745318 -0.255049437 0.323193967
v -0.143745333 -0.277610451 0.323193967
v -0.143745318 -0.255049437 0.290077478
v -0.148414224 -0.251131743 0.323193967
v -0.148414239 -0.281528145 0.290077478
v -0.148414239 -0.281528145 0.323193967
v -0.148414224 -0.251131743 0.290077478
v -0.154141501 -0.24904719 0.323193967
v -0.154141501 -0.24904719 0.290077478
v -0.160236329 -0.24904719 0.323193967
v -0.160236329 -0.24904719 0.290077478
v -0.16596359 -0.251131743 0.323193967
v -0.16596359 -0.251131743 0.290077478
v -0.170632496 -0.255049437 0.323193967
v -0.170632496 -0.255049437 0.290077478
v -0.173679918 -0.260327697 0.323193967
v -0.173679918 -0.260327697 0.290077478
v -0.174738273 -0.266329944 0.323193967
v -0.174738273 -0.266329944 0.290077478
v -0.173679918 -0.272332162 0.323193967
v -0.173679918 -0.272332162 0.290077478
v -0.170632496 -0.277610451 0.323193967
v -0.170632496 -0.277610451 0.290077478
v -0.16596359 -0.281528145 0.323193967
v -0.16596359 -0.281528145 0.290077478
v -0.160236329 -0.283612698 0.323193967
v -0.160042316 -0.282512337 0.284575045
v -0.160236329 -0.283612698 0.290077478
v -0.154141501 -0.283612698 0.323193967
v -0.154335529 -0.282512337 0.284575045
v -0.154141501 -0.283612698 0.290077478
v -0.148972899 -0.280560493 0.284575045
v -0.201307148 -0.274356872 0.323608577
v -0.201307148 -0.279722065 0.296039104
v -0.202311099 -0.280675441 0.296395659
v -0.202311099 -0.275360227 0.323708415
v -0.201307148 -0.279722065 0.296039104
v -0.201307148 -0.282945931 0.290455163
v -0.202311099 -0.283726871 0.291110426
v -0.202311099 -0.280675441 0.296395659
v -0.154141501 -0.283612698 0.323193967
v -0.154646024 -0.280751437 0.326055229
v -0.15973182 -0.280751437 0.326055229
v -0.160236329 -0.283612698 0.323193967
v -0.0947641805 -0.315733671 0.302388936
v -0.105517358 -0.315733671 0.302388936
v -0.105517358 -0.314614028 0.296039104
v 0.0983022973 -0.314614087 0.308738708
v 0.0875491127 -0.314614087 0.308738708
v 0.0875491127 -0.315733731 0.302388906
v 0.0983022973 -0.315733731 0.302388877
v -0.0947641805 -0.314614028 0.296039104
v -0.105517358 -0.311390132 0.290455192
v 0.0875491127 -0.314614058 0.296039075
v 0.0983022973 -0.314614087 0.296039075
v -0.0947641805 -0.311390132 0.290455192
v -0.105517358 -0.306450874 0.286310643
v -0.0947641805 -0.306450874 0.286310643
v 0.0875491127 -0.311390191 0.290455163
v 0.0983022973 -0.311390191 0.290455163
v 0.0983022973 -0.306450903 0.286310613
v -0.115556821 -0.280680031 0.296387792
v -0.115556821 -0.283726901 0.291110456
v -0.115556821 -0.288394958 0.287193507
v -0.115556821 -0.279621869 0.302388936
v -0.115556821 -0.280680031 0.308390081
v -0.115556821 -0.288394958 0.317584366
v -0.115556821 -0.283726901 0.313667417
v -0.115556821 -0.300214916 0.319668561
v -0.115556821 -0.294121206 0.319668561
v -0.115556821 -0.310609221 0.313667387
v -0.115556821 -0.305941164 0.317584366
v -0.115556821 -0.294121206 0.285109311
v -0.115556821 -0.300214916 0.285109311
v -0.115556821 -0.310609192 0.291110456
v -0.115556821 -0.305941135 0.287193507
v -0.115556821 -0.314714223 0.302388936
v -0.115556821 -0.313656062 0.308390081
v -0.115556821 -0.313656062 0.296387792
v -0.0566808581 0.0418968014 0.290334374
v 0.0494660102 0.0418966487 0.290334344
v 0.0494660176 0.0430163406 0.283984542
v -0.0566808581 0.0386728831 0.295918286
v -0.0566808693 0.0430164188 0.283984572
v 0.0494660102 0.0386727713 0.295918286
v 0.0494660102 0.0418966524 0.27763471
v -0.0566808395 0.0337336138 0.300062835
v -0.0566808693 0.0418968052 0.27763474
v 0.0494660102 0.0337334983 0.300062835
v 0.0494660027 0.0386727788 0.272050798
v -0.0566808395 0.0386728942 0.272050798
v 0.0494660027 0.0337335095 0.267906249
v -0.0566808395 0.0337335877 0.267906278
v -0.0566808283 0.0276746899 0.302268118
v 0.0494660065 0.0276745893 0.265700966
v 0.0494660065 0.0276745763 0.302268088
v -0.0566808395 0.0276747029 0.265700996
v -0.0566808395 0.0212269183 0.302268118
v 0.0494660102 0.0212268028 0.302268088
v 0.0875491202 -0.29394424 0.320672452
v -0.0947641805 -0.300391942 0.320672482
v 0.0875491202 -0.300392002 0.320672452
v -0.0947641805 -0.29394418 0.320672482
v -0.105517358 -0.300391942 0.320672482
v -0.105517358 -0.29394418 0.320672482
v -0.0947641805 -0.287885249 0.31846723
v -0.105517358 -0.306450874 0.31846723
v -0.105517358 -0.287885249 0.31846723
v -0.0947641805 -0.282945991 0.31432268
v -0.105517358 -0.282945961 0.31432268
v -0.0947641805 -0.279722095 0.308738768
v -0.105517358 -0.279722095 0.308738768
v -0.0947641805 -0.278602451 0.302388936
v -0.105517358 -0.278602451 0.302388936
v -0.0947641805 -0.279722095 0.296039104
v -0.105517358 -0.279722095 0.296039104
v -0.0947641805 -0.282945961 0.290455192
v -0.105517358 -0.282945961 0.290455192
v -0.0947641805 -0.287885249 0.286310643
v -0.105517358 -0.287885249 0.286310643
v -0.0947641805 -0.29394418 0.284105361
v -0.105517358 -0.29394418 0.284105361
v -0.0947641805 -0.300391942 0.284105361
v -0.105517358 -0.300391942 0.28410539
v -0.056680847 0.0212268922 0.265700996
v 0.0494660065 0.0212268159 0.265700966
v 0.0875491127 -0.300392002 0.284105331
v 0.0875491127 -0.29394421 0.284105331
v 0.0983022973 -0.300392002 0.284105331
v 0.0983022973 -0.29394421 0.284105331
v 0.0875491127 -0.287885308 0.286310613
v 0.0983022973 -0.287885308 0.286310613
v 0.0875491127 -0.28294602 0.290455163
v 0.0983022973 -0.28294602 0.290455133
v 0.0875491202 -0.279722124 0.296039075
v 0.0983023047 -0.279722124 0.296039075
v 0.0875491276 -0.278602481 0.302388906
v 0.0983023047 -0.278602481 0.302388906
v 0.0875491202 -0.279722124 0.308738708
v 0.0983023047 -0.279722124 0.308738708
v 0.0875491202 -0.28294602 0.31432265
v 0.0983023047 -0.28294602 0.31432265
v 0.0875491202 -0.287885308 0.3184672
v 0.0983023047 -0.287885308 0.3184672
v 0.0983023047 -0.29394424 0.320672452
v 0.0983023047 -0.300392002 0.320672452
v -0.0947641805 -0.306450874 0.31846723
v 0.0983023047 -0.306450933 0.31846717
v -0.105517358 -0.311390132 0.31432268
v -0.0947641805 -0.311390162 0.31432268
v -0.105517358 -0.314614028 0.308738738
v 0.0875491127 -0.311390191 0.31432265
v 0.0983022973 -0.311390191 0.31432265
v -0.0947641805 -0.314614028 0.308738738
v -0.105517358 -0.278602451 0.302388936
v -0.105517358 -0.279621869 0.302388936
v -0.105517358 -0.280680031 0.308390081
v -0.105517358 -0.279722095 0.296039104
v -0.105517358 -0.279722095 0.308738768
v -0.105517358 -0.280680031 0.296387792
v -0.105517358 -0.283726901 0.313667417
v -0.105517358 -0.282945961 0.290455192
v -0.105517358 -0.282945961 0.31432268
v -0.105517358 -0.283726901 0.291110456
v -0.105517358 -0.288394958 0.317584366
v -0.105517358 -0.287885249 0.286310643
v -0.105517358 -0.287885249 0.31846723
v -0.105517358 -0.288394958 0.287193507
v -0.105517358 -0.294121206 0.319668561
v -0.105517358 -0.29394418 0.284105361
v -0.105517358 -0.29394418 0.320672482
v -0.105517358 -0.294121206 0.285109311
v -0.105517358 -0.300214916 0.319668531
v -0.105517358 -0.300391942 0.28410539
v -0.105517358 -0.300391942 0.320672482
v -0.105517358 -0.300214916 0.285109311
v -0.105517358 -0.305941164 0.317584366
v -0.105517358 -0.306450874 0.286310643
v -0.105517358 -0.306450874 0.31846723
v -0.105517358 -0.305941135 0.287193507
v -0.105517358 -0.310609221 0.313667387
v -0.105517358 -0.311390132 0.290455192
v -0.105517358 -0.311390132 0.31432268
v -0.105517358 -0.310609221 0.291110456
v -0.105517358 -0.313656062 0.308390081
v -0.105517358 -0.314614028 0.296039104
v -0.105517358 -0.314614028 0.308738738
v -0.105517358 -0.313656062 0.296387792
v -0.105517358 -0.314714223 0.302388936
v -0.105517358 -0.315733671 0.302388936
v -0.172215149 -0.266329944 0.266369522
v -0.166546002 -0.266329944 0.26444605
v -0.16598171 -0.269530267 0.26444605
v -0.17130895 -0.271469206 0.266369522
v -0.17130895 -0.271469206 0.266369522
v -0.16598171 -0.269530267 0.26444605
v -0.164356858 -0.272344559 0.26444605
v -0.168699682 -0.275988609 0.266369522
v -0.143428072 -0.261321396 0.326055229
v -0.14597097 -0.25691697 0.326055229
v -0.149866924 -0.253647894 0.326055229
v -0.14254494 -0.266329944 0.326055229
v -0.143428072 -0.271338493 0.326055229
v -0.149866924 -0.279011995 0.326055229
v -0.145970985 -0.275742918 0.326055229
v -0.154646009 -0.251908451 0.326055229
v -0.159731805 -0.251908451 0.326055229
v -0.168406844 -0.25691697 0.326055229
v -0.164510891 -0.253647894 0.326055229
v -0.15973182 -0.280751437 0.326055229
v -0.154646024 -0.280751437 0.326055229
v -0.168406844 -0.275742918 0.326055229
v -0.164510906 -0.279011995 0.326055229
v -0.171832889 -0.266329944 0.326055229
v -0.170949742 -0.271338463 0.326055229
v -0.170949742 -0.261321396 0.326055229
v -0.16596359 -0.251131743 0.323193967
v -0.164510891 -0.253647894 0.326055229
v -0.159731805 -0.251908451 0.326055229
v -0.160236329 -0.24904719 0.323193967
v -0.17130895 -0.261190653 0.266369522
v -0.16598171 -0.263129622 0.26444605
v -0.166546002 -0.266329944 0.26444605
v -0.172215149 -0.266329944 0.266369522
v -0.168699682 -0.275988609 0.266369522
v -0.164356858 -0.272344559 0.26444605
v -0.161867455 -0.274433434 0.26444605
v -0.164702028 -0.279343039 0.266369522
v 0.00166852586 0.00336065609 0.255048037
v 0.00166852586 -0.0578275695 0.255048037
v 9.72245762e-05 -0.0576179177 0.253476739
v 0.00224366644 0.00336065609 0.257194489
v 9.72284033e-05 -0.0648273155 0.251518041
v -0.00204921351 -0.0646260604 0.250976741
v -0.00204921351 -0.0758195147 0.245616138
v -0.0041956557 -0.0760837793 0.246127263
v 0.00224366644 -0.0581139475 0.257194489
v 0.0016685297 0.00336065609 0.259340912
v 0.00166853354 -0.065377146 0.252996922
v 9.72284033e-05 -0.0760837793 0.246127263
v 0.0016685297 -0.0584003292 0.259340912
v 9.72245762e-05 0.00336065609 0.26091224
v 0.0022436704 -0.0661282316 0.255017132
v 0.00166853354 -0.0768057704 0.247523695
v 9.72245762e-05 -0.0586099774 0.26091224
v -0.00204921747 0.00336065609 0.261487365
v 0.00166853354 -0.0668793246 0.257037312
v 0.0022436704 -0.077792041 0.249431267
v -0.00204921747 -0.0586867183 0.261487365
v -0.00419565942 0.00336065609 0.26091224
v -0.00419565942 -0.0586099774 0.26091224
v 9.72284033e-05 -0.0674291551 0.258516192
v -0.00204921351 -0.0676304102 0.259057492
v -0.148414239 -0.281528145 0.323193967
v -0.149866924 -0.279011995 0.326055229
v -0.154646024 -0.280751437 0.326055229
v -0.154141501 -0.283612698 0.323193967
v -0.168699667 -0.25667125 0.266369551
v -0.164356858 -0.260315329 0.26444605
v -0.16598171 -0.263129622 0.26444605
v -0.17130895 -0.261190653 0.266369522
v -0.0947641805 -0.29394418 0.320672482
v -0.0566808283 0.0276746899 0.302268118
v -0.0566808395 0.0337336138 0.300062835
v -0.0947641805 -0.287885249 0.31846723
v -0.0566808581 0.0386728831 0.295918286
v -0.0947641805 -0.282945991 0.31432268
v -0.0566808581 0.0418968014 0.290334374
v -0.0947641805 -0.279722095 0.308738768
v -0.0566808693 0.0430164188 0.283984572
v -0.0947641805 -0.278602451 0.302388936
v -0.0566808693 0.0418968052 0.27763474
v -0.0947641805 -0.279722095 0.296039104
v -0.0566808395 0.0386728942 0.272050798
v -0.0947641805 -0.282945961 0.290455192
v -0.0566808395 0.0337335877 0.267906278
v -0.0947641805 -0.287885249 0.286310643
v -0.0566808395 0.0276747029 0.265700996
v -0.0947641805 -0.29394418 0.284105361
v -0.164702028 -0.279343039 0.266369522
v -0.161867455 -0.274433434 0.26444605
v -0.15881376 -0.275544882 0.26444605
v -0.15979819 -0.2811279 0.266369551
v -0.111379869 -0.31997925 0.323608577
v -0.110375926 -0.318975896 0.323708415
v -0.110375926 -0.318603575 0.323745459
v -0.202311113 -0.318975866 0.323708385
v -0.202311113 -0.318603545 0.32374543
v -0.201307163 -0.319979221 0.323608577
v -0.201307163 -0.314613998 0.296039075
v -0.202311113 -0.314642429 0.323865801
v -0.111379869 -0.314614028 0.296039075
v -0.110375918 -0.301129192 0.324002713
v -0.201307163 -0.311390102 0.290455133
v -0.202311113 -0.301129162 0.324002683
v -0.111379862 -0.311390132 0.290455163
v -0.201307163 -0.306450814 0.286310583
v -0.111379862 -0.306450844 0.286310613
v -0.110375918 -0.29320693 0.324002713
v -0.201307163 -0.300391912 0.284105331
v -0.202311113 -0.29320693 0.324002713
v -0.111379862 -0.300391942 0.284105361
v -0.201307148 -0.29394415 0.284105331
v -0.202311099 -0.285762459 0.323955178
v -0.111379862 -0.29394415 0.284105361
v -0.110375911 -0.275732577 0.323745489
v -0.201307148 -0.287885219 0.286310613
v -0.202311099 -0.275732547 0.323745459
v -0.111379854 -0.287885249 0.286310613
v -0.201307148 -0.282945931 0.290455163
v -0.111379854 -0.282945961 0.290455163
v -0.201307148 -0.279722065 0.296039104
v -0.111379854 -0.279722095 0.296039104
v -0.110375911 -0.275360227 0.323708445
v -0.201307148 -0.274356872 0.323608577
v -0.202311099 -0.275360227 0.323708415
v -0.111379854 -0.274356872 0.323608607
v -0.164702028 -0.253316849 0.266369551
v -0.161867455 -0.258226454 0.26444605
v -0.164356858 -0.260315329 0.26444605
v -0.168699667 -0.25667125 0.266369551
v -0.15979819 -0.2811279 0.266369551
v -0.15881376 -0.275544882 0.26444605
v -0.15556407 -0.275544882 0.26444605
v -0.154579639 -0.2811279 0.266369551
v 0.196161002 -0.318975031 0.323708236
v 0.196161002 -0.318602681 0.323745281
v 0.104225829 -0.318602681 0.323745251
v 0.104225829 -0.314641565 0.323865622
v 0.196161002 -0.308572799 0.32395497
v 0.196161002 -0.301128328 0.324002534
v 0.104225837 -0.293206066 0.324002504
v 0.196161002 -0.275731713 0.323745281
v 0.104225837 -0.279692799 0.323865622
v 0.104225837 -0.275731683 0.323745251
v 0.104225837 -0.275359362 0.323708206
v 0.195157066 -0.274356008 0.323608398
v 0.196161002 -0.275359362 0.323708236
v 0.105229788 -0.274356008 0.323608398
v 0.105229788 -0.2797212 0.296038896
v -0.160236329 -0.24904719 0.323193967
v -0.159731805 -0.251908451 0.326055229
v -0.154646009 -0.251908451 0.326055229
v -0.154141501 -0.24904719 0.323193967
v -0.15979819 -0.251531988 0.266369522
v -0.15881376 -0.257115006 0.26444605
v -0.161867455 -0.258226454 0.26444605
v -0.164702028 -0.253316849 0.266369551
v -0.143745333 -0.277610451 0.323193967
v -0.145970985 -0.275742918 0.326055229
v -0.149866924 -0.279011995 0.326055229
v -0.148414239 -0.281528145 0.323193967
v -0.154579639 -0.2811279 0.266369551
v -0.15556407 -0.275544882 0.26444605
v -0.15251036 -0.274433434 0.26444605
v -0.149675801 -0.279343039 0.266369522
v -0.150020957 -0.272344589 0.26444605
v -0.15251036 -0.274433434 0.26444605
v -0.15556407 -0.275544882 0.26444605
v -0.148396119 -0.269530267 0.26444605
v -0.147831813 -0.266329944 0.26444605
v -0.150020957 -0.260315329 0.26444605
v -0.148396119 -0.263129622 0.26444605
v -0.15881376 -0.275544882 0.26444605
v -0.161867455 -0.274433434 0.26444605
v -0.16598171 -0.269530267 0.26444605
v -0.164356858 -0.272344559 0.26444605
v -0.15556407 -0.257115006 0.26444605
v -0.15251036 -0.258226454 0.26444605
v -0.161867455 -0.258226454 0.26444605
v -0.15881376 -0.257115006 0.26444605
v -0.16598171 -0.263129622 0.26444605
v -0.164356858 -0.260315329 0.26444605
v -0.166546002 -0.266329944 0.26444605
v -0.111379869 -0.31997925 0.323608577
v -0.111379869 -0.314614028 0.296039075
v -0.110375926 -0.313660651 0.296395659
v -0.110375926 -0.318975896 0.323708415
v -0.154579639 -0.251531988 0.266369522
v -0.15556407 -0.257115006 0.26444605
v -0.15881376 -0.257115006 0.26444605
v -0.15979819 -0.251531988 0.266369522
v 0.195157066 -0.27972123 0.296038926
v 0.105229788 -0.282945096 0.290454954
v 0.195157066 -0.282945096 0.290454984
v 0.105229788 -0.287884384 0.286310434
v 0.195157066 -0.287884384 0.286310434
v 0.105229788 -0.293943286 0.284105152
v 0.195157066 -0.293943316 0.284105152
v 0.105229788 -0.300391048 0.284105152
v 0.195157066 -0.300391078 0.284105152
v 0.105229788 -0.30644998 0.286310405
v 0.195157066 -0.30644998 0.286310434
v 0.105229788 -0.311389267 0.290454954
v 0.195157066 -0.311389267 0.290454954
v 0.10522978 -0.314613134 0.296038896
v 0.195157066 -0.314613163 0.296038896
v 0.10522978 -0.319978356 0.323608398
v 0.195157051 -0.319978386 0.323608398
v 0.104225829 -0.318975002 0.323708206
v -0.149675801 -0.279343039 0.266369522
v -0.15251036 -0.274433434 0.26444605
v -0.150020957 -0.272344589 0.26444605
v -0.145678148 -0.275988638 0.266369522
v -0.111379869 -0.314614028 0.296039075
v -0.111379862 -0.311390132 0.290455163
v -0.110375926 -0.310609192 0.291110426
v -0.110375926 -0.313660651 0.296395659
v -0.154141501 -0.24904719 0.323193967
v -0.154646009 -0.251908451 0.326055229
v -0.149866924 -0.253647894 0.326055229
v -0.148414224 -0.251131743 0.323193967
v -0.105517358 -0.279621869 0.302388936
v -0.115556821 -0.279621869 0.302388936
v -0.115556821 -0.280680031 0.308390081
v -0.105517358 -0.280680031 0.296387792
v -0.105517358 -0.280680031 0.308390081
v -0.115556821 -0.280680031 0.296387792
v -0.115556821 -0.283726901 0.313667417
v -0.105517358 -0.283726901 0.291110456
v -0.105517358 -0.283726901 0.313667417
v -0.115556821 -0.283726901 0.291110456
v -0.115556821 -0.288394958 0.317584366
v -0.105517358 -0.288394958 0.287193507
v -0.105517358 -0.288394958 0.317584366
v -0.115556821 -0.288394958 0.287193507
v -0.115556821 -0.294121206 0.319668561
v -0.105517358 -0.294121206 0.285109311
v -0.105517358 -0.294121206 0.319668561
v -0.115556821 -0.294121206 0.285109311
v -0.115556821 -0.300214916 0.319668561
v -0.105517358 -0.300214916 0.285109311
v -0.105517358 -0.300214916 0.319668531
v -0.115556821 -0.300214916 0.285109311
v -0.115556821 -0.305941164 0.317584366
v -0.105517358 -0.305941135 0.287193507
v -0.105517358 -0.305941164 0.317584366
v -0.115556821 -0.305941135 0.287193507
v -0.115556821 -0.310609221 0.313667387
v -0.105517358 -0.310609221 0.291110456
v -0.105517358 -0.310609221 0.313667387
v -0.115556821 -0.310609192 0.291110456
v -0.115556821 -0.313656062 0.308390081
v -0.105517358 -0.313656062 0.296387792
v -0.105517358 -0.313656062 0.308390081
v -0.115556821 -0.313656062 0.296387792
v -0.115556821 -0.314714223 0.302388936
v -0.105517358 -0.314714223 0.302388936
v -0.149675786 -0.253316849 0.266369551
v -0.15251036 -0.258226454 0.26444605
v -0.15556407 -0.257115006 0.26444605
v -0.154579639 -0.251531988 0.266369522
v -0.140697911 -0.272332191 0.323193967
v -0.143428072 -0.271338493 0.326055229
v -0.145970985 -0.275742918 0.326055229
v -0.143745333 -0.277610451 0.323193967
v -0.145678148 -0.275988638 0.266369522
v -0.150020957 -0.272344589 0.26444605
v -0.148396119 -0.269530267 0.26444605
v -0.143068865 -0.271469235 0.266369522
v -0.111379862 -0.311390132 0.290455163
v -0.111379862 -0.306450844 0.286310613
v -0.110375918 -0.305941135 0.287193477
v -0.110375926 -0.310609192 0.291110426
v -0.145678148 -0.25667125 0.266369551
v -0.150020957 -0.260315329 0.26444605
v -0.15251036 -0.258226454 0.26444605
v -0.149675786 -0.253316849 0.266369551
v -0.143068865 -0.271469235 0.266369522
v -0.148396119 -0.269530267 0.26444605
v -0.147831813 -0.266329944 0.26444605
v -0.142162666 -0.266329944 0.266369522
v -0.143068865 -0.261190653 0.266369522
v -0.148396119 -0.263129622 0.26444605
v -0.150020957 -0.260315329 0.26444605
v -0.145678148 -0.25667125 0.266369551
v -0.148414224 -0.251131743 0.323193967
v -0.149866924 -0.253647894 0.326055229
v -0.14597097 -0.25691697 0.326055229
v -0.143745318 -0.255049437 0.323193967
v -0.142162666 -0.266329944 0.266369522
v -0.147831813 -0.266329944 0.26444605
v -0.148396119 -0.263129622 0.26444605
v -0.143068865 -0.261190653 0.266369522
v -0.00576696452 -0.0584003292 0.259340912
v -0.00576696452 0.00336065609 0.259340912
v -0.00634210138 0.00336065609 0.257194489
v -0.00634210138 -0.0581139475 0.257194489
v -0.00576696452 0.00336065609 0.255048037
v -0.0041956557 -0.0674291551 0.258516192
v -0.00576696452 -0.0578275695 0.255048037
v -0.00419565942 0.00336065609 0.253476739
v -0.00576696079 -0.0668793246 0.257037312
v -0.00634209765 -0.0661282316 0.255017132
v -0.00419565942 -0.0576179177 0.253476739
v -0.00204921747 0.00336065609 0.252901584
v -0.00576696079 -0.065377146 0.252996922
v -0.00576696079 -0.0787783116 0.25133884
v -0.00634209765 -0.077792041 0.249431267
v -0.00204921747 -0.0575411804 0.252901584
v 9.72245762e-05 0.00336065609 0.253476739
v -0.0041956557 -0.0648273155 0.251518041
v -0.00576696079 -0.0768057704 0.24752371
v -0.139639542 -0.266329944 0.323193967
v -0.14254494 -0.266329944 0.326055229
v -0.143428072 -0.271338493 0.326055229
v -0.140697911 -0.272332191 0.323193967
v -0.111379862 -0.306450844 0.286310613
v -0.111379862 -0.300391942 0.284105361
v -0.110375918 -0.300214916 0.285109282
v -0.110375918 -0.305941135 0.287193477
v -0.143745318 -0.255049437 0.323193967
v -0.14597097 -0.25691697 0.326055229
v -0.143428072 -0.261321396 0.326055229
v -0.140697911 -0.260327697 0.323193967
v -0.140697911 -0.260327697 0.323193967
v -0.143428072 -0.261321396 0.326055229
v -0.14254494 -0.266329944 0.326055229
v -0.139639542 -0.266329944 0.323193967
v -0.133473754 -0.266329944 0.275179446
v -0.134903952 -0.274441034 0.275179446
v -0.134903952 -0.258218884 0.275179446
v -0.132713139 -0.266329944 0.273906469
v -0.134189203 -0.25795874 0.273906469
v -0.142162666 -0.266329944 0.266369522
v -0.143068865 -0.271469235 0.266369522
v -0.143068865 -0.261190653 0.266369522
v -0.134189218 -0.274701178 0.273906469
v -0.145678148 -0.275988638 0.266369522
v -0.138439372 -0.250597209 0.273906469
v -0.145678148 -0.25667125 0.266369551
v -0.144951031 -0.245133296 0.273906469
v -0.149675786 -0.253316849 0.266369551
v -0.139022037 -0.251086116 0.275179446
v -0.152938738 -0.242226005 0.273906469
v -0.154579639 -0.251531988 0.266369522
v -0.145331323 -0.245792016 0.275179446
v -0.161439091 -0.242226005 0.273906469
v -0.15979819 -0.251531988 0.266369522
v -0.153070822 -0.242975071 0.275179446
v -0.169426799 -0.245133296 0.273906469
v -0.164702028 -0.253316849 0.266369551
v -0.161307007 -0.242975071 0.275179446
v -0.175938442 -0.250597209 0.273906469
v -0.168699667 -0.25667125 0.266369551
v -0.169046491 -0.245792016 0.275179446
v -0.180188611 -0.25795874 0.273906469
v -0.17130895 -0.261190653 0.266369522
v -0.00204921747 -0.13640976 0.212610617
v -0.00216716994 -0.219773844 0.232563019
v -0.00429699058 -0.219315678 0.233105168
v 9.72245762e-05 -0.136450514 0.213211745
v -0.00419565942 -0.136977404 0.220983297
v -0.00409268867 -0.218446717 0.240539789
v -0.00193126488 -0.218770444 0.241147771
v -0.00204921747 -0.137018159 0.221584424
v -5.74597016e-06 -0.220097572 0.233171001
v 0.00166852586 -0.136561871 0.214854062
v 0.000198555979 -0.21922861 0.240605608
v 9.72245762e-05 -0.136977404 0.220983297
v 0.00160813448 -0.220200136 0.234766215
v 0.00224366644 -0.136713967 0.217097521
v 0.00172608707 -0.219698429 0.239058584
v 0.0016685297 -0.136866063 0.219340965
v 0.00224203127 -0.22005403 0.236921221
v -0.000784487755 -0.22626771 0.239128232
v -0.000250038196 -0.226689294 0.237002805
v -0.000663011859 -0.226363555 0.234837875
v -0.00191274798 -0.225377738 0.233213544
v -0.00212315843 -0.22521174 0.240644649
v -0.00366438855 -0.223996013 0.232565045
v -0.00390734803 -0.22380434 0.241145745
v -0.00544857793 -0.222588614 0.233066127
v -0.00565898838 -0.222422615 0.240497231
v -0.00570656918 -0.218344152 0.23894456
v -0.00678724889 -0.221532643 0.234582558
v -0.00582452165 -0.218845859 0.234652191
v -0.00690872455 -0.221436799 0.238872901
v -0.00634046597 -0.218490258 0.236789554
v -0.00732169813 -0.221111059 0.236707985
v -0.00962450169 -0.225101098 0.240497231
v -0.0102756936 -0.223711014 0.238872901
v -0.0104908794 -0.223251671 0.236707985
v -0.0102124028 -0.223846152 0.234582558
v -0.00871179532 -0.227049455 0.241145745
v -0.0095148785 -0.225335166 0.233066127
v -0.00778212631 -0.229034007 0.240644649
v -0.00858521368 -0.227319717 0.232565045
v -0.00708460622 -0.23052302 0.239128232
v -0.00767250732 -0.229268074 0.233213544
v -0.00680612959 -0.231117502 0.237002805
v -0.0070213154 -0.230658159 0.234837875
v -0.0152313849 -0.233559817 0.237002805
v -0.0153347263 -0.233068049 0.234837875
v -0.0156474411 -0.23157984 0.233213544
v -0.0160857458 -0.229493976 0.232565045
v -0.0153651116 -0.232923374 0.239128232
v -0.0165321864 -0.227369338 0.233066127
v -0.0157000739 -0.231329277 0.240644649
v -0.0168671478 -0.225775242 0.234582558
v -0.0161465146 -0.22920464 0.241145745
v -0.0170008764 -0.225138798 0.236707985
v -0.0165848192 -0.227118775 0.240497231
v -0.0168975331 -0.225630566 0.238872901
v -0.0256814081 -0.230471388 0.241145745
v -0.025878733 -0.2283535 0.240497231
v -0.0260195211 -0.226842463 0.238872901
v -0.0260660481 -0.22634314 0.236707985
v -0.0254804194 -0.232628644 0.240644649
v -0.0260058474 -0.226989344 0.234582558
v -0.0253296215 -0.234247208 0.239128232
v -0.0258550495 -0.228607923 0.233066127
v -0.0252694208 -0.234893411 0.237002805
v -0.0256540608 -0.230765164 0.232565045
v -0.0253159497 -0.234394103 0.234837875
v -0.0254567359 -0.232883066 0.233213544
v -0.0366573222 -0.235003456 0.234837875
v -0.0367073566 -0.233487532 0.233213544
v -0.0367774814 -0.23136282 0.232565045
v -0.0368489027 -0.229198605 0.233066127
v -0.0366407819 -0.235504389 0.237002805
v -0.036902491 -0.22757481 0.234582558
v -0.0366621725 -0.234856099 0.239128232
v -0.0369238816 -0.22692652 0.236707985
v -0.0367157608 -0.233232304 0.240644649
v -0.0369073413 -0.227427453 0.238872901
v -0.0367871821 -0.23106809 0.241145745
v -0.036857307 -0.228943363 0.240497231
v -0.0489324331 -0.233382344 0.240644649
v -0.0489393882 -0.23121734 0.241145745
v -0.0489510968 -0.227575362 0.238872901
v -0.0489272177 -0.235006735 0.239128232
v -0.0489527099 -0.227074251 0.236707985
v -0.048925139 -0.235655263 0.237002805
v -0.0489506349 -0.227722779 0.234582558
v -0.0489267558 -0.235154152 0.234837875
v -0.0489454195 -0.229347169 0.233066127
v -0.0489316322 -0.233637676 0.233213544
v -0.225687832 -0.231437519 0.232565045
v -0.225687817 -0.229272589 0.233066127
v -0.225687832 -0.233562946 0.233213544
v -0.225687802 -0.227648258 0.234582558
v -0.0616276301 -0.235079363 0.234837875
v -0.225687847 -0.235079363 0.234837875
v -0.0616290979 -0.235580459 0.237002805
v -0.225687832 -0.235580459 0.237002805
v -0.0616271868 -0.234931946 0.239128232
v -0.225687832 -0.234931946 0.239128232
v -0.0616224147 -0.233307615 0.240644649
v -0.225687817 -0.233307615 0.240644649
v -0.225687802 -0.2311427 0.241145745
v -0.061609827 -0.229017273 0.240497231
v -0.225687802 -0.229017273 0.240497231
v -0.0616053827 -0.227500841 0.238872901
v -0.225687787 -0.227500841 0.238872901
v -0.0616039149 -0.22699976 0.236707985
v -0.225687802 -0.22699976 0.236707985
v -0.061605826 -0.227648258 0.234582558
v -0.111379862 -0.300391942 0.284105361
v -0.111379862 -0.29394415 0.284105361
v -0.110375918 -0.294121176 0.285109311
v -0.110375918 -0.300214916 0.285109282
v 0.10522978 -0.319978356 0.323608398
v 0.104225829 -0.318975002 0.323708206
v 0.104225837 -0.313659757 0.296395451
v 0.10522978 -0.314613134 0.296038896
v 0.00166853354 -0.0787783116 0.25133884
v 9.72284033e-05 -0.0795003027 0.252735257
v -0.00204921351 -0.0797645748 0.253246397
v -0.0041956557 -0.0795003027 0.252735257
v -0.00204921747 -0.0936881304 0.245499581
v 9.72245762e-05 -0.0934028178 0.245000154
v 0.0016685297 -0.0926233381 0.243635714
v -0.00419565942 -0.0934028178 0.245000154
v -0.00576696452 -0.0926233381 0.243635714
v 0.00224366644 -0.0915585458 0.241771832
v -0.00634210138 -0.0915585458 0.241771847
v 0.00166852586 -0.0904937536 0.239907965
v -0.00576696452 -0.0904937536 0.239907965
v 9.72245762e-05 -0.0897142738 0.238543525
v -0.00419565942 -0.0897142738 0.238543525
v -0.00204921747 -0.0894289613 0.238044098
v -0.00576696452 -0.104795933 0.231521741
v -0.00419565942 -0.104001723 0.230165914
v -0.00634210138 -0.105880842 0.233373806
v -0.00576696452 -0.10696575 0.235225886
v 0.00224366644 -0.105880842 0.233373806
v -0.00419566315 -0.121039554 0.228810236
v 0.0016685297 -0.10696575 0.235225886
v 9.72245762e-05 -0.10775996 0.236581698
v -0.00204922119 -0.121322267 0.229311168
v 9.72207417e-05 -0.121039554 0.228810236
v 0.00166852586 -0.120267175 0.227441639
v 0.00224366272 -0.119212084 0.225572109
v 0.00166852586 -0.118156999 0.223702595
v -0.00576696824 -0.120267175 0.227441639
v 9.72207417e-05 -0.117384613 0.222333997
v -0.0063421051 -0.119212084 0.225572109
v -0.00204922119 -0.1171019 0.221833065
v -0.00576696824 -0.118156999 0.223702595
v -0.00419566315 -0.117384613 0.222333997
v -0.00634209765 -0.130005419 0.219701692
v -0.00576696079 -0.129100561 0.21775046
v -0.0041956557 -0.128438175 0.216322049
v -0.00204921351 -0.128195718 0.215799212
v -0.00576696079 -0.130910262 0.22165294
v 9.72284033e-05 -0.128438175 0.216322049
v -0.0041956557 -0.131572649 0.22308135
v 0.00166853354 -0.129100561 0.21775046
v -0.00204921351 -0.131815106 0.223604187
v 0.0022436704 -0.130005419 0.219701692
v 9.72284033e-05 -0.131572664 0.22308135
v 0.00166853354 -0.130910262 0.22165294
v -0.00576696452 -0.136866063 0.219340965
v -0.00419565942 -0.136450514 0.213211745
v -0.00634210138 -0.136713967 0.217097521
v -0.00576696452 -0.136561856 0.214854062
v -0.110375926 -0.313660651 0.296395659
v -0.110375926 -0.310609192 0.291110426
v -0.110375918 -0.305941135 0.287193477
v -0.110375926 -0.318975896 0.323708415
v -0.110375926 -0.318603575 0.323745459
v -0.110375918 -0.301129192 0.324002713
v -0.110375911 -0.275732577 0.323745489
v -0.110375918 -0.29320693 0.324002713
v -0.110375918 -0.300214916 0.285109282
v -0.110375918 -0.294121176 0.285109311
v -0.110375911 -0.283726901 0.291110456
v -0.110375911 -0.288394958 0.287193477
v -0.110375911 -0.275360227 0.323708445
v -0.110375911 -0.280675471 0.296395689
v -0.111379862 -0.29394415 0.284105361
v -0.111379854 -0.287885249 0.286310613
v -0.110375911 -0.288394958 0.287193477
v -0.110375918 -0.294121176 0.285109311
v 0.10522978 -0.314613134 0.296038896
v 0.104225837 -0.313659757 0.296395451
v 0.104225837 -0.310608327 0.291110247
v 0.105229788 -0.311389267 0.290454954
v -0.111379854 -0.287885249 0.286310613
v -0.111379854 -0.282945961 0.290455163
v -0.110375911 -0.283726901 0.291110456
v -0.110375911 -0.288394958 0.287193477
v -0.111379854 -0.279722095 0.296039104
v -0.111379854 -0.274356872 0.323608607
v -0.110375911 -0.275360227 0.323708445
v -0.110375911 -0.280675471 0.296395689
v -0.111379854 -0.282945961 0.290455163
v -0.111379854 -0.279722095 0.296039104
v -0.110375911 -0.280675471 0.296395689
v -0.110375911 -0.283726901 0.291110456
v 0.105229788 -0.311389267 0.290454954
v 0.104225837 -0.310608327 0.291110247
v 0.104225837 -0.30594027 0.287193269
v 0.105229788 -0.30644998 0.286310405
v 0.105229788 -0.30644998 0.286310405
v 0.104225837 -0.30594027 0.287193269
v 0.104225844 -0.300214022 0.285109103
v 0.105229788 -0.300391048 0.284105152
v 0.105229788 -0.300391048 0.284105152
v 0.104225844 -0.300214022 0.285109103
v 0.104225844 -0.294120312 0.285109103
v 0.105229788 -0.293943286 0.284105152
v 0.105229788 -0.293943286 0.284105152
v 0.104225844 -0.294120312 0.285109103
v 0.104225844 -0.288394094 0.287193269
v 0.105229788 -0.287884384 0.286310434
v 0.105229788 -0.287884384 0.286310434
v 0.104225844 -0.288394094 0.287193269
v 0.104225844 -0.283726037 0.291110247
v 0.105229788 -0.282945096 0.290454954
v 0.105229788 -0.2797212 0.296038896
v 0.104225844 -0.280674607 0.296395481
v 0.104225837 -0.275359362 0.323708206
v 0.105229788 -0.274356008 0.323608398
v 0.105229788 -0.282945096 0.290454954
v 0.104225844 -0.283726037 0.291110247
v 0.104225844 -0.280674607 0.296395481
v 0.105229788 -0.2797212 0.296038896
v 0.104225829 -0.318975002 0.323708206
v 0.104225829 -0.318602681 0.323745251
v 0.104225837 -0.313659757 0.296395451
v 0.104225829 -0.314641565 0.323865622
v 0.104225837 -0.30594027 0.287193269
v 0.104225837 -0.310608327 0.291110247
v 0.104225837 -0.293206066 0.324002504
v 0.104225837 -0.279692799 0.323865622
v 0.104225844 -0.294120312 0.285109103
v 0.104225844 -0.300214022 0.285109103
v 0.104225844 -0.283726037 0.291110247
v 0.104225844 -0.288394094 0.287193269
v 0.104225837 -0.275359362 0.323708206
v 0.104225844 -0.280674607 0.296395481
v 0.104225837 -0.275731683 0.323745251
f 1 2 3
f 4 1 5
f 1 3 5
f 3 6 5
f 6 7 5
f 3 8 9
f 3 9 10
f 3 10 6
f 9 11 10
f 12 13 6
f 10 12 6
f 10 14 12
f 15 16 17
f 18 15 17
f 19 18 17
f 20 19 17
f 21 20 17
f 22 21 17
f 23 22 17
f 24 23 17
f 25 24 17
f 26 25 17
f 27 28 29
f 29 30 27
f 31 32 33
f 33 34 31
f 35 36 37
f 37 38 35
f 39 40 41
f 41 42 39
f 43 44 45
f 46 43 45
f 46 45 47
f 45 48 47
f 45 49 48
f 45 50 49
f 45 51 50
f 45 52 51
f 45 53 52
f 54 53 45
f 55 56 57
f 57 58 55
f 59 60 61
f 60 59 62
f 61 63 59
f 62 64 60
f 63 61 65
f 64 62 66
f 65 67 63
f 66 68 64
f 67 65 69
f 68 66 70
f 69 71 67
f 70 72 68
f 71 69 73
f 72 70 74
f 73 75 71
f 74 76 72
f 75 73 77
f 76 74 78
f 77 79 75
f 78 80 76
f 79 77 81
f 80 78 82
f 81 83 79
f 82 84 80
f 83 81 85
f 84 82 86
f 85 87 83
f 86 88 84
f 87 85 89
f 88 86 90
f 89 91 87
f 90 92 88
f 91 89 93
f 92 90 94
f 93 94 91
f 94 93 92
f 95 96 97
f 98 95 99
f 95 100 99
f 100 101 99
f 95 97 100
f 102 103 100
f 104 102 100
f 97 104 100
f 104 105 102
f 97 106 107
f 97 107 108
f 97 108 104
f 107 109 108
f 108 110 104
f 110 111 104
f 108 112 110
f 113 114 115
f 115 116 113
f 117 118 119
f 119 120 117
f 121 122 123
f 124 121 125
f 121 126 125
f 126 127 125
f 121 123 126
f 128 129 126
f 130 128 126
f 123 130 126
f 130 131 128
f 123 132 133
f 123 133 130
f 132 134 133
f 133 135 130
f 135 136 130
f 137 138 139
f 138 137 140
f 139 141 137
f 140 142 138
f 141 139 143
f 142 140 144
f 143 145 141
f 144 146 142
f 145 143 147
f 146 144 148
f 147 149 145
f 148 150 146
f 149 147 151
f 150 148 152
f 151 153 149
f 152 154 150
f 153 151 155
f 154 152 156
f 155 157 153
f 156 158 154
f 157 155 159
f 158 156 160
f 159 161 157
f 160 162 158
f 161 159 163
f 162 160 164
f 163 165 161
f 164 166 162
f 165 163 167
f 166 164 168
f 167 169 165
f 168 170 166
f 169 167 171
f 170 168 172
f 171 172 169
f 172 171 170
f 173 174 175
f 175 176 173
f 177 178 179
f 179 180 177
f 181 182 183
f 183 184 181
f 185 186 187
f 187 188 185
f 189 190 191
f 191 192 189
f 193 194 195
f 195 196 193
f 196 195 197
f 197 198 196
f 198 197 199
f 199 200 198
f 200 199 201
f 201 202 200
f 202 201 203
f 203 204 202
f 204 203 205
f 205 206 204
f 206 205 207
f 207 208 206
f 208 207 209
f 209 210 208
f 211 212 213
f 213 214 211
f 215 216 217
f 217 218 215
f 219 220 221
f 221 222 219
f 223 224 225
f 225 226 223
f 227 228 229
f 229 230 227
f 231 232 233
f 233 234 231
f 235 236 237
f 237 238 235
f 239 240 241
f 241 242 239
f 243 244 245
f 245 246 243
f 247 248 249
f 249 250 247
f 251 252 253
f 253 254 251
f 255 256 257
f 257 258 255
f 259 260 261
f 261 262 259
f 260 263 258
f 263 260 259
f 264 255 258
f 258 263 264
f 265 259 262
f 262 266 265
f 259 267 263
f 267 259 265
f 268 264 263
f 263 267 268
f 269 265 266
f 266 270 269
f 265 271 267
f 271 265 269
f 272 268 267
f 267 271 272
f 273 269 270
f 270 274 273
f 269 275 271
f 275 269 273
f 276 272 271
f 271 275 276
f 277 273 274
f 274 278 277
f 273 279 275
f 279 273 277
f 280 276 275
f 275 279 280
f 281 277 278
f 278 282 281
f 283 281 282
f 284 277 281
f 277 284 279
f 285 281 283
f 281 285 284
f 283 286 285
f 279 284 287
f 287 280 279
f 284 285 288
f 288 287 284
f 285 286 289
f 289 288 285
f 290 289 286
f 291 287 288
f 292 280 287
f 287 291 292
f 280 292 293
f 293 276 280
f 294 288 289
f 288 294 291
f 295 289 290
f 289 295 294
f 290 296 295
f 296 290 297
f 297 298 296
f 276 293 299
f 299 272 276
f 272 299 300
f 300 268 272
f 299 293 301
f 268 300 302
f 302 264 268
f 300 299 303
f 301 303 299
f 302 300 304
f 303 304 300
f 264 302 305
f 305 255 264
f 304 306 302
f 305 302 306
f 255 305 307
f 307 256 255
f 306 308 305
f 307 305 308
f 256 307 309
f 309 310 256
f 308 311 307
f 309 307 311
f 310 309 312
f 312 313 310
f 311 314 309
f 312 309 314
f 313 312 315
f 315 316 313
f 314 317 312
f 315 312 317
f 316 315 318
f 318 319 316
f 317 320 315
f 318 315 320
f 319 318 321
f 321 322 319
f 320 323 318
f 321 318 323
f 322 321 324
f 324 325 322
f 325 324 298
f 324 321 326
f 323 326 321
f 298 324 327
f 326 327 324
f 327 328 298
f 296 298 328
f 329 327 326
f 328 330 296
f 295 296 330
f 331 328 327
f 327 329 331
f 332 330 328
f 328 331 332
f 330 333 295
f 294 295 333
f 330 332 334
f 334 333 330
f 332 331 335
f 336 335 331
f 331 329 336
f 335 337 332
f 334 332 337
f 338 336 329
f 337 339 334
f 329 340 338
f 326 340 329
f 341 338 340
f 340 326 323
f 342 334 339
f 333 334 342
f 339 343 342
f 323 344 340
f 340 344 341
f 344 323 320
f 345 341 344
f 320 346 344
f 344 346 345
f 346 320 317
f 347 345 346
f 317 348 346
f 346 348 347
f 348 317 314
f 349 347 348
f 314 350 348
f 348 350 349
f 350 314 311
f 351 349 350
f 311 352 350
f 350 352 351
f 352 311 308
f 353 351 352
f 308 354 352
f 352 354 353
f 354 308 306
f 355 353 354
f 306 356 354
f 354 356 355
f 356 306 304
f 357 355 356
f 304 358 356
f 356 358 357
f 358 304 303
f 359 357 358
f 303 360 358
f 358 360 359
f 360 303 301
f 361 359 360
f 360 362 361
f 301 362 360
f 363 361 362
f 362 301 364
f 364 301 293
f 293 292 364
f 362 365 363
f 364 365 362
f 366 363 365
f 367 364 292
f 365 364 367
f 292 291 367
f 365 368 366
f 367 368 365
f 343 366 368
f 368 342 343
f 368 367 369
f 369 342 368
f 369 367 291
f 342 369 333
f 291 294 369
f 333 369 294
f 370 371 372
f 372 373 370
f 374 375 376
f 376 377 374
f 378 379 380
f 380 381 378
f 382 383 384
f 385 386 387
f 382 387 386
f 387 388 385
f 384 389 382
f 387 382 389
f 389 384 390
f 388 387 391
f 389 391 387
f 391 392 388
f 390 393 389
f 391 389 393
f 393 390 394
f 394 395 393
f 393 396 391
f 392 391 396
f 396 393 395
f 396 397 392
f 397 396 395
f 395 398 397
f 399 400 401
f 402 399 403
f 399 404 403
f 404 405 403
f 399 401 404
f 406 407 404
f 408 406 404
f 401 408 404
f 408 409 406
f 401 410 411
f 401 411 412
f 401 412 408
f 411 413 412
f 412 414 408
f 414 415 408
f 412 416 414
f 417 418 419
f 418 417 420
f 419 421 417
f 420 422 418
f 421 419 423
f 422 420 424
f 423 425 421
f 424 426 422
f 425 423 427
f 427 428 425
f 428 427 429
f 429 430 428
f 426 424 431
f 430 429 432
f 431 433 426
f 432 434 430
f 433 431 435
f 435 436 433
f 437 433 436
f 438 435 431
f 439 436 435
f 436 439 437
f 435 438 439
f 431 440 438
f 441 438 440
f 440 442 441
f 442 440 443
f 438 441 444
f 443 445 442
f 445 443 446
f 446 447 445
f 447 446 448
f 448 449 447
f 449 448 450
f 450 451 449
f 451 450 452
f 452 453 451
f 453 452 454
f 454 455 453
f 455 454 456
f 456 457 455
f 457 456 458
f 458 459 457
f 459 458 460
f 460 461 459
f 462 460 458
f 458 434 462
f 463 462 434
f 460 462 463
f 434 432 463
f 464 463 432
f 463 464 460
f 432 465 464
f 461 460 395
f 395 394 461
f 460 464 395
f 466 464 465
f 464 466 398
f 398 395 464
f 465 467 466
f 467 465 468
f 468 469 467
f 469 468 470
f 470 471 469
f 471 470 472
f 472 473 471
f 473 472 474
f 474 475 473
f 475 474 476
f 476 477 475
f 477 476 478
f 478 479 477
f 479 478 480
f 480 481 479
f 481 480 437
f 437 482 481
f 482 437 439
f 439 483 482
f 483 439 484
f 484 485 483
f 439 438 484
f 444 484 438
f 484 444 486
f 486 487 484
f 487 486 488
f 485 484 489
f 487 489 484
f 489 490 485
f 488 491 487
f 489 487 491
f 491 488 383
f 490 489 386
f 491 386 489
f 386 385 490
f 383 382 491
f 386 491 382
f 492 493 494
f 493 492 495
f 494 496 492
f 495 497 493
f 496 494 498
f 497 495 499
f 498 500 496
f 499 501 497
f 500 498 502
f 501 499 503
f 502 504 500
f 503 505 501
f 504 502 506
f 505 503 507
f 506 508 504
f 507 509 505
f 508 506 510
f 509 507 511
f 510 512 508
f 511 513 509
f 512 510 514
f 513 511 515
f 514 516 512
f 515 517 513
f 516 514 518
f 517 515 519
f 518 520 516
f 519 521 517
f 520 518 522
f 521 519 523
f 522 524 520
f 523 525 521
f 524 522 526
f 525 523 527
f 526 527 524
f 527 526 525
f 528 529 530
f 530 531 528
f 532 533 534
f 534 535 532
f 536 537 538
f 539 536 540
f 536 538 540
f 538 541 540
f 541 542 540
f 538 543 544
f 538 544 545
f 538 545 541
f 544 546 545
f 547 548 541
f 549 547 541
f 545 549 541
f 549 550 547
f 545 551 549
f 551 552 549
f 545 553 551
f 554 555 556
f 556 557 554
f 558 559 560
f 560 561 558
f 562 563 564
f 564 565 562
f 566 567 568
f 567 566 569
f 568 570 571
f 570 568 567
f 571 572 573
f 572 571 570
f 569 574 567
f 574 569 575
f 567 576 570
f 576 567 574
f 570 577 572
f 577 570 576
f 575 578 574
f 578 575 579
f 574 580 576
f 580 574 578
f 576 581 577
f 581 576 580
f 579 582 578
f 582 579 583
f 578 584 580
f 584 578 582
f 580 585 581
f 585 580 584
f 583 586 582
f 586 583 587
f 587 588 586
f 589 582 586
f 582 589 584
f 590 586 588
f 586 590 589
f 591 592 593
f 593 594 591
f 595 596 597
f 597 598 595
f 599 600 601
f 601 602 599
f 602 601 603
f 603 604 602
f 604 603 605
f 605 606 604
f 606 605 607
f 607 608 606
f 608 607 609
f 609 610 608
f 610 609 611
f 611 612 610
f 612 611 613
f 613 614 612
f 614 613 615
f 615 616 614
f 617 618 619
f 619 620 617
f 621 622 623
f 621 623 624
f 623 625 624
f 626 621 624
f 621 626 627
f 623 628 625
f 627 629 621
f 628 623 630
f 629 627 631
f 630 632 628
f 631 633 629
f 633 631 634
f 634 635 633
f 632 630 636
f 635 634 637
f 636 638 632
f 637 639 635
f 639 637 640
f 636 641 638
f 640 642 639
f 641 636 643
f 642 640 644
f 643 645 641
f 644 646 642
f 646 644 647
f 647 648 646
f 648 647 649
f 649 650 648
f 645 643 651
f 650 649 652
f 645 651 652
f 645 652 653
f 652 654 650
f 651 654 652
f 655 656 657
f 657 658 655
f 659 660 661
f 661 662 659
f 663 664 665
f 666 665 664
f 664 667 666
f 667 668 666
f 669 666 668
f 668 670 669
f 671 669 670
f 672 671 670
f 670 673 672
f 670 674 673
f 670 675 674
f 674 676 673
f 677 676 674
f 678 679 680
f 680 681 678
f 682 683 684
f 684 685 682
f 686 687 688
f 688 689 686
f 690 691 692
f 692 693 690
f 694 695 696
f 697 694 698
f 694 696 698
f 696 699 698
f 699 700 698
f 696 701 702
f 696 702 703
f 696 703 699
f 702 704 703
f 705 706 699
f 707 705 699
f 703 707 699
f 707 708 705
f 703 709 707
f 709 710 707
f 703 711 709
f 712 713 714
f 714 715 712
f 716 717 718
f 718 719 716
f 674 720 677
f 721 677 720
f 720 722 721
f 723 721 722
f 722 724 723
f 725 723 724
f 724 726 725
f 727 725 726
f 726 728 727
f 729 727 728
f 728 730 729
f 731 729 730
f 730 732 731
f 733 731 732
f 732 734 733
f 735 733 734
f 734 736 735
f 736 663 735
f 663 665 735
f 665 737 735
f 738 739 740
f 740 741 738
f 742 743 744
f 744 745 742
f 746 747 748
f 748 749 746
f 750 751 752
f 751 750 753
f 752 754 750
f 753 755 751
f 754 752 756
f 755 753 757
f 756 758 754
f 757 759 755
f 758 756 760
f 759 757 761
f 760 762 758
f 761 763 759
f 762 760 764
f 763 761 765
f 764 766 762
f 765 767 763
f 766 764 768
f 767 765 769
f 768 770 766
f 769 771 767
f 770 768 772
f 771 769 773
f 772 774 770
f 773 775 771
f 774 772 776
f 775 773 777
f 776 778 774
f 777 779 775
f 778 776 780
f 779 777 781
f 780 782 778
f 781 783 779
f 782 780 784
f 783 781 785
f 784 785 782
f 785 784 783
f 786 787 788
f 788 789 786
f 790 791 792
f 792 793 790
f 794 795 796
f 796 797 794
f 798 799 800
f 800 801 798
f 802 803 804
f 804 805 802
f 806 807 808
f 808 809 806
f 810 811 812
f 812 813 810
f 814 815 816
f 816 817 814
f 818 819 820
f 820 821 818
f 822 823 824
f 823 822 588
f 588 587 823
f 824 825 822
f 825 824 826
f 827 588 822
f 826 828 825
f 828 826 829
f 830 822 825
f 822 830 827
f 831 825 828
f 825 831 830
f 829 832 828
f 832 829 833
f 828 834 831
f 834 828 832
f 835 830 831
f 836 831 834
f 831 836 835
f 833 837 832
f 837 833 838
f 832 839 834
f 839 832 837
f 834 840 836
f 840 834 839
f 838 568 837
f 568 838 566
f 837 571 839
f 571 837 568
f 839 573 840
f 573 839 571
f 841 842 843
f 843 844 841
f 845 846 847
f 847 848 845
f 849 850 851
f 851 852 849
f 853 854 855
f 855 856 853
f 325 297 857
f 858 857 297
f 857 859 325
f 298 297 325
f 860 857 858
f 297 290 858
f 857 860 861
f 861 859 857
f 861 860 862
f 863 862 860
f 862 864 861
f 860 865 863
f 858 865 860
f 866 863 865
f 867 861 864
f 859 861 867
f 864 868 867
f 865 858 286
f 286 858 290
f 865 283 866
f 286 283 865
f 282 866 283
f 869 867 868
f 868 870 869
f 871 867 869
f 867 871 859
f 872 869 870
f 870 873 872
f 869 874 871
f 874 869 872
f 859 871 322
f 322 325 859
f 871 874 319
f 319 322 871
f 875 872 873
f 873 876 875
f 872 877 874
f 877 872 875
f 316 319 874
f 874 877 316
f 878 875 876
f 876 879 878
f 875 880 877
f 880 875 878
f 313 316 877
f 877 880 313
f 881 878 879
f 879 882 881
f 878 883 880
f 883 878 881
f 310 313 880
f 880 883 310
f 884 881 882
f 882 885 884
f 881 257 883
f 257 881 884
f 256 310 883
f 883 257 256
f 260 884 885
f 885 261 260
f 884 258 257
f 258 884 260
f 886 887 888
f 887 886 889
f 890 891 892
f 892 893 890
f 889 894 887
f 894 889 895
f 893 892 896
f 896 897 893
f 895 898 894
f 898 895 899
f 897 896 900
f 900 901 897
f 902 899 901
f 901 900 902
f 899 902 898
f 903 900 896
f 904 902 900
f 900 903 904
f 905 898 902
f 902 904 905
f 898 905 906
f 906 894 898
f 896 907 903
f 907 896 892
f 894 906 908
f 908 887 894
f 892 909 907
f 909 892 891
f 887 908 910
f 910 888 887
f 891 911 909
f 911 891 912
f 888 910 913
f 913 914 888
f 912 915 911
f 915 912 916
f 917 916 914
f 916 917 915
f 914 913 917
f 918 911 915
f 919 915 917
f 915 919 918
f 920 917 913
f 917 920 919
f 913 921 920
f 921 913 910
f 911 918 922
f 922 909 911
f 910 923 921
f 923 910 908
f 909 922 924
f 924 907 909
f 908 925 923
f 925 908 906
f 907 924 926
f 926 903 907
f 906 927 925
f 927 906 905
f 903 926 928
f 928 904 903
f 929 905 904
f 904 928 929
f 905 929 927
f 930 928 926
f 931 929 928
f 928 930 931
f 932 927 929
f 929 931 932
f 927 932 933
f 933 925 927
f 926 934 930
f 934 926 924
f 925 933 935
f 935 923 925
f 924 936 934
f 936 924 922
f 923 935 937
f 937 921 923
f 922 938 936
f 938 922 918
f 921 937 939
f 939 920 921
f 918 940 938
f 940 918 919
f 941 919 920
f 919 941 940
f 920 939 941
f 942 938 940
f 943 940 941
f 940 943 942
f 944 941 939
f 941 944 943
f 939 945 944
f 945 939 937
f 938 942 946
f 946 936 938
f 937 947 945
f 947 937 935
f 936 946 948
f 948 934 936
f 935 949 947
f 949 935 933
f 934 948 950
f 950 930 934
f 933 951 949
f 951 933 932
f 930 950 952
f 952 931 930
f 953 932 931
f 931 952 953
f 932 953 951
f 954 952 950
f 955 953 952
f 952 954 955
f 956 951 953
f 953 955 956
f 951 956 957
f 957 949 951
f 950 958 954
f 958 950 948
f 949 957 959
f 959 947 949
f 948 960 958
f 960 948 946
f 947 959 961
f 961 945 947
f 946 962 960
f 962 946 942
f 945 961 963
f 963 944 945
f 942 964 962
f 964 942 943
f 965 943 944
f 943 965 964
f 944 963 965
f 966 962 964
f 967 964 965
f 964 967 966
f 963 968 965
f 968 963 961
f 962 966 969
f 969 960 962
f 961 970 968
f 970 961 959
f 960 969 971
f 971 958 960
f 959 972 970
f 972 959 957
f 958 971 973
f 973 954 958
f 957 974 972
f 974 957 956
f 954 973 975
f 975 955 954
f 955 975 956
f 976 956 975
f 956 976 977
f 977 974 956
f 975 978 976
f 974 977 979
f 978 975 980
f 973 980 975
f 980 981 978
f 980 973 971
f 981 980 982
f 971 982 980
f 982 983 981
f 982 971 969
f 983 982 984
f 969 984 982
f 984 985 983
f 984 969 966
f 985 984 986
f 966 986 984
f 986 987 985
f 986 966 967
f 987 986 967
f 967 988 987
f 988 967 989
f 965 989 967
f 989 990 988
f 989 965 968
f 990 989 991
f 968 991 989
f 991 992 990
f 991 968 970
f 992 991 993
f 970 993 991
f 993 994 992
f 993 970 972
f 994 993 995
f 972 995 993
f 995 979 994
f 995 972 974
f 979 995 974
f 996 997 998
f 998 999 996
f 1000 1001 1002
f 1002 1003 1000
f 588 827 590
f 1004 584 589
f 584 1004 585
f 1005 589 590
f 589 1005 1004
f 1006 590 827
f 590 1006 1005
f 827 1007 1006
f 1007 827 830
f 830 835 1007
f 1008 1006 1007
f 1009 1005 1006
f 1006 1008 1009
f 1005 1009 1010
f 1010 1004 1005
f 1011 1007 835
f 1007 1011 1008
f 835 1012 1011
f 1012 835 836
f 1004 1010 1013
f 1013 585 1004
f 836 1014 1012
f 1014 836 840
f 585 1013 1015
f 1015 581 585
f 840 1016 1014
f 1016 840 573
f 581 1015 1017
f 1017 577 581
f 573 1018 1016
f 1018 573 572
f 1019 572 577
f 572 1019 1018
f 577 1017 1019
f 1020 1016 1018
f 1021 1018 1019
f 1018 1021 1020
f 1016 1020 1022
f 1022 1014 1016
f 1014 1022 1023
f 1023 1012 1014
f 1013 1024 1015
f 1024 1013 1010
f 1012 1023 1025
f 1025 1011 1012
f 1010 1026 1024
f 1026 1010 1009
f 1011 1025 1008
f 1027 1009 1008
f 1009 1027 1026
f 1028 1008 1025
f 1029 1027 1008
f 1008 1028 1029
f 1030 1026 1027
f 1027 1029 1030
f 1026 1030 1031
f 1031 1024 1026
f 1024 1031 1032
f 1032 1015 1024
f 1023 1033 1025
f 1033 1023 1022
f 1015 1032 1034
f 1034 1017 1015
f 1022 1035 1033
f 1035 1022 1020
f 1017 1034 1036
f 1036 1019 1017
f 1020 1037 1035
f 1037 1020 1021
f 1038 1021 1019
f 1021 1038 1037
f 1019 1036 1038
f 1039 1035 1037
f 1040 1037 1038
f 1037 1040 1039
f 1041 1038 1036
f 1038 1041 1040
f 1036 1042 1041
f 1042 1036 1034
f 1035 1039 1043
f 1043 1033 1035
f 1034 1044 1042
f 1044 1034 1032
f 1033 1043 1045
f 1045 1025 1033
f 1032 1046 1044
f 1046 1032 1031
f 1025 1045 1047
f 1047 1028 1025
f 1031 1048 1046
f 1048 1031 1030
f 1028 1047 1049
f 1049 1029 1028
f 1050 1030 1029
f 1029 1049 1050
f 1030 1050 1048
f 897 1049 1047
f 901 1050 1049
f 1049 897 901
f 899 1048 1050
f 1050 901 899
f 1048 899 895
f 895 1046 1048
f 1047 893 897
f 893 1047 1045
f 1046 895 889
f 889 1044 1046
f 1045 890 893
f 890 1045 1043
f 1044 889 886
f 886 1042 1044
f 1043 1051 890
f 1051 1043 1039
f 1042 886 1052
f 1052 1041 1042
f 1039 1053 1051
f 1053 1039 1040
f 1054 1040 1041
f 1040 1054 1053
f 1041 1052 1054
f 912 1051 1053
f 916 1053 1054
f 1053 916 912
f 914 1054 1052
f 1054 914 916
f 1052 888 914
f 888 1052 886
f 1051 912 891
f 891 890 1051
f 1055 1056 1057
f 1058 1055 1059
f 1055 1060 1059
f 1055 1057 1060
f 1061 1062 1060
f 1057 1061 1060
f 1057 1063 1064
f 1057 1064 1065
f 1057 1065 1061
f 1064 1066 1065
f 1065 1067 1061
f 1065 1068 1067
f 1069 1070 1071
f 1071 1072 1069
f 1073 1074 1075
f 1075 1076 1073
f 1077 1078 1079
f 1079 1080 1077
f 1081 1082 1083
f 1083 1084 1081
f 1085 1086 1087
f 1087 1088 1085
f 1089 1090 1091
f 1091 1092 1089
f 1093 1094 1095
f 1095 1096 1093
f 1097 1098 1099
f 1099 1100 1097
f 1101 1102 1103
f 1103 1104 1101
f 1105 1106 1107
f 1107 1108 1105
f 1109 1110 1111
f 1111 1112 1109
f 1113 1114 1115
f 1115 1116 1113
f 1117 1118 1119
f 1118 1120 1119
f 1120 1121 1119
f 1121 1122 1119
f 1120 1123 1124
f 1120 1124 1121
f 1125 1126 1121
f 1127 1125 1121
f 1124 1127 1121
f 1127 1128 1125
f 1124 1129 1127
f 1129 1130 1127
f 1124 1131 1129
