v -0.596488595 -0.672688603 0.0444499999
v -0.596899986 -0.673099995 0.0440386012
v 0.596899986 -0.673099995 0.0440386012
v 0.596488595 -0.672688603 0.0444499999
v 0.596488595 0.672688603 0.0444499999
v 0.596899986 0.673099995 0.0440386012
v -0.596899986 0.673099995 0.0440386012
v -0.596488595 0.672688603 0.0444499999
v 0.596488595 -0.672688603 0.0444499999
v 0.596899986 -0.673099995 0.0440386012
v 0.596899986 0.673099995 0.0440386012
v 0.596488595 0.672688603 0.0444499999
v -0.596488595 0.672688603 0.0444499999
v -0.596899986 0.673099995 0.0440386012
v -0.596899986 -0.673099995 0.0440386012
v -0.596488595 -0.672688603 0.0444499999
v -0.596488595 -0.672688603 0.0444499999
v 0.596488595 -0.672688603 0.0444499999
v 0.588311374 -0.664511323 0.0444499999
v 0.588311374 0.664511323 0.0444499999
v -0.588311374 -0.664511323 0.0444499999
v 0.596488595 0.672688603 0.0444499999
v -0.596488595 0.672688603 0.0444499999
v -0.588311374 0.664511323 0.0444499999
v -0.587899983 -0.664099932 0.0394500121
v 0.587899983 -0.664099932 0.0394500121
v 0.567899942 -0.644099951 0.0394500121
v 0.567899942 0.644099951 0.0394500121
v -0.567899942 -0.644099951 0.0394500121
v 0.587899983 0.664099932 0.0394500121
v -0.587899983 0.664099932 0.0394500121
v -0.567899942 0.644099951 0.0394500121
v -0.56129998 -0.637499988 0.0296500213
v 0.56129998 -0.637499988 0.0296500213
v 0.555885971 -0.632085979 0.0296500213
v 0.555885971 0.632085979 0.0296500213
v -0.555885971 -0.632085979 0.0296500213
v 0.56129998 0.637499988 0.0296500213
v -0.56129998 0.637499988 0.0296500213
v -0.555885971 0.632085979 0.0296500213
v 0.567899942 0.644099951 0.0394500121
v 0.565012455 0.641212463 0.0390375108
v 0.565012455 -0.641212463 0.0390375108
v 0.567899942 -0.644099951 0.0394500121
v -0.567899942 -0.644099951 0.0394500121
v -0.565012455 -0.641212463 0.0390375108
v -0.565012455 0.641212463 0.0390375108
v -0.567899942 0.644099951 0.0394500121
v 0.567899942 -0.644099951 0.0394500121
v 0.565012455 -0.641212463 0.0390375108
v -0.565012455 -0.641212463 0.0390375108
v -0.567899942 -0.644099951 0.0394500121
v -0.567899942 0.644099951 0.0394500121
v -0.565012455 0.641212463 0.0390375108
v 0.565012455 0.641212463 0.0390375108
v 0.567899942 0.644099951 0.0394500121
v 0.555885971 0.632085979 0.0296500213
v 0.554608166 0.630808175 0.0293944646
v 0.554608166 -0.630808175 0.0293944646
v 0.555885971 -0.632085979 0.0296500213
v -0.555885971 -0.632085979 0.0296500213
v -0.554608166 -0.630808175 0.0293944646
v -0.554608166 0.630808175 0.0293944646
v -0.555885971 0.632085979 0.0296500213
v 0.555885971 -0.632085979 0.0296500213
v 0.554608166 -0.630808175 0.0293944646
v -0.554608166 -0.630808175 0.0293944646
v -0.555885971 -0.632085979 0.0296500213
v -0.555885971 0.632085979 0.0296500213
v -0.554608166 0.630808175 0.0293944646
v 0.554608166 0.630808175 0.0293944646
v 0.555885971 0.632085979 0.0296500213
v 0.565012455 0.641212463 0.0390375108
v 0.562949955 0.639149964 0.0378000103
v 0.562949955 -0.639149964 0.0378000103
v 0.565012455 -0.641212463 0.0390375108
v -0.565012455 -0.641212463 0.0390375108
v -0.562949955 -0.639149964 0.0378000103
v -0.562949955 0.639149964 0.0378000103
v -0.565012455 0.641212463 0.0390375108
v 0.565012455 -0.641212463 0.0390375108
v 0.562949955 -0.639149964 0.0378000103
v -0.562949955 -0.639149964 0.0378000103
v -0.565012455 -0.641212463 0.0390375108
v -0.565012455 0.641212463 0.0390375108
v -0.562949955 0.639149964 0.0378000103
v 0.562949955 0.639149964 0.0378000103
v 0.565012455 0.641212463 0.0390375108
v 0.554608166 0.630808175 0.0293944646
v 0.553841531 0.63004148 0.028627798
v 0.553841531 -0.63004148 0.028627798
v 0.554608166 -0.630808175 0.0293944646
v -0.554608166 -0.630808175 0.0293944646
v -0.553841531 -0.63004148 0.028627798
v -0.553841531 0.63004148 0.028627798
v -0.554608166 0.630808175 0.0293944646
v 0.587899983 -0.664099932 0.0440386012
v 0.588311374 -0.664511323 0.0444499999
v 0.588311374 0.664511323 0.0444499999
v 0.587899983 0.664099932 0.0440386012
v -0.587899983 0.664099932 0.0440386012
v -0.588311374 0.664511323 0.0444499999
v -0.588311374 -0.664511323 0.0444499999
v -0.587899983 -0.664099932 0.0440386012
v 0.554608166 -0.630808175 0.0293944646
v 0.553841531 -0.63004148 0.028627798
v -0.553841531 -0.63004148 0.028627798
v -0.554608166 -0.630808175 0.0293944646
v -0.554608166 0.630808175 0.0293944646
v -0.553841531 0.63004148 0.028627798
v 0.553841531 0.63004148 0.028627798
v 0.554608166 0.630808175 0.0293944646
v -0.587899983 -0.664099932 0.0440386012
v -0.588311374 -0.664511323 0.0444499999
v 0.588311374 -0.664511323 0.0444499999
v 0.587899983 -0.664099932 0.0440386012
v 0.587899983 0.664099932 0.0440386012
v 0.588311374 0.664511323 0.0444499999
v -0.588311374 0.664511323 0.0444499999
v -0.587899983 0.664099932 0.0440386012
v 0.562949955 0.639149964 0.0378000103
v 0.561712444 0.637912452 0.0357375108
v 0.561712444 -0.637912452 0.0357375108
v 0.562949955 -0.639149964 0.0378000103
v -0.562949955 -0.639149964 0.0378000103
v -0.561712444 -0.637912452 0.0357375108
v -0.561712444 0.637912452 0.0357375108
v -0.562949955 0.639149964 0.0378000103
v 0.553841531 0.63004148 0.028627798
v 0.553585947 0.629785955 0.0273500197
v 0.553585947 -0.629785955 0.0273500197
v 0.553841531 -0.63004148 0.028627798
v -0.553841531 -0.63004148 0.028627798
v -0.553585947 -0.629785955 0.0273500197
v -0.553585947 0.629785955 0.0273500197
v -0.553841531 0.63004148 0.028627798
v 0.562949955 -0.639149964 0.0378000103
v 0.561712444 -0.637912452 0.0357375108
v -0.561712444 -0.637912452 0.0357375108
v -0.562949955 -0.639149964 0.0378000103
v -0.562949955 0.639149964 0.0378000103
v -0.561712444 0.637912452 0.0357375108
v 0.561712444 0.637912452 0.0357375108
v 0.562949955 0.639149964 0.0378000103
v 0.553585947 -0.629785955 0.0273500197
v 0.553585947 0.629785955 0.0273500197
v 0.553585947 0.629785955 0.02455003
v 0.553585947 -0.629785955 0.02455003
v -0.553585947 0.629785955 0.0273500197
v -0.553585947 -0.629785955 0.0273500197
v -0.553585947 -0.629785955 0.02455003
v -0.553585947 0.629785955 0.02455003
v 0.561712444 0.637912452 0.0357375108
v 0.56129998 0.637499988 0.0328500122
v 0.56129998 -0.637499988 0.0328500122
v 0.561712444 -0.637912452 0.0357375108
v -0.561712444 -0.637912452 0.0357375108
v -0.56129998 -0.637499988 0.0328500122
v -0.56129998 0.637499988 0.0328500122
v -0.561712444 0.637912452 0.0357375108
v 0.56129998 -0.637499988 0.0328500122
v 0.56129998 0.637499988 0.0328500122
v 0.56129998 0.637499988 0.0296500213
v 0.56129998 -0.637499988 0.0296500213
v -0.56129998 0.637499988 0.0328500122
v -0.56129998 -0.637499988 0.0328500122
v -0.56129998 -0.637499988 0.0296500213
v -0.56129998 0.637499988 0.0296500213
v 0.587899983 -0.664099932 0.0440386012
v 0.587899983 0.664099932 0.0440386012
v 0.587899983 0.664099932 0.0394500121
v 0.587899983 -0.664099932 0.0394500121
v -0.587899983 0.664099932 0.0440386012
v -0.587899983 -0.664099932 0.0440386012
v -0.587899983 -0.664099932 0.0394500121
v -0.587899983 0.664099932 0.0394500121
v 0.553841531 -0.63004148 0.028627798
v 0.553585947 -0.629785955 0.0273500197
v -0.553585947 -0.629785955 0.0273500197
v -0.553841531 -0.63004148 0.028627798
v -0.553841531 0.63004148 0.028627798
v -0.553585947 0.629785955 0.0273500197
v 0.553585947 0.629785955 0.0273500197
v 0.553841531 0.63004148 0.028627798
v -0.553585947 -0.629785955 0.0273500197
v 0.553585947 -0.629785955 0.0273500197
v 0.553585947 -0.629785955 0.02455003
v -0.553585947 -0.629785955 0.02455003
v 0.553585947 0.629785955 0.0273500197
v -0.553585947 0.629785955 0.0273500197
v -0.553585947 0.629785955 0.02455003
v 0.553585947 0.629785955 0.02455003
v 0.561712444 -0.637912452 0.0357375108
v 0.56129998 -0.637499988 0.0328500122
v -0.56129998 -0.637499988 0.0328500122
v -0.561712444 -0.637912452 0.0357375108
v -0.561712444 0.637912452 0.0357375108
v -0.56129998 0.637499988 0.0328500122
v 0.56129998 0.637499988 0.0328500122
v 0.561712444 0.637912452 0.0357375108
v -0.56129998 -0.637499988 0.0328500122
v 0.56129998 -0.637499988 0.0328500122
v 0.56129998 -0.637499988 0.0296500213
v -0.56129998 -0.637499988 0.0296500213
v 0.56129998 0.637499988 0.0328500122
v -0.56129998 0.637499988 0.0328500122
v -0.56129998 0.637499988 0.0296500213
v 0.56129998 0.637499988 0.0296500213
v -0.587899983 -0.664099932 0.0440386012
v 0.587899983 -0.664099932 0.0440386012
v 0.587899983 -0.664099932 0.0394500121
v -0.587899983 -0.664099932 0.0394500121
v 0.587899983 0.664099932 0.0440386012
v -0.587899983 0.664099932 0.0440386012
v -0.587899983 0.664099932 0.0394500121
v 0.587899983 0.664099932 0.0394500121
vt 0.000843733549 0.99919498
vt 0.000499457121 0.999500275
vt 0.999500275 0.999500513
vt 0.999155998 0.999195218
vt 0.999156237 0.000805020332
vt 0.999500513 0.000499725342
vt 0.000499755144 0.000499486923
vt 0.000844031572 0.000804781914
vt 0.999155998 0.999195218
vt 0.999500275 0.999500513
vt 0.999500513 0.000499725342
vt 0.999156237 0.000805020332
vt 0.000844031572 0.000804781914
vt 0.000499755144 0.000499486923
vt 0.000499457121 0.999500275
vt 0.000843733549 0.99919498
vt 0.000843733549 0.99919498
vt 0.999155998 0.999195218
vt 0.992313147 0.993126988
vt 0.992313385 0.00687325001
vt 0.00768664479 0.99312675
vt 0.999156237 0.000805020332
vt 0.000844031572 0.000804781914
vt 0.00768688321 0.00687301159
vt 0.00803092122 0.992821455
vt 0.99196887 0.992821693
vt 0.975232363 0.977979898
vt 0.975232601 0.0220202804
vt 0.0247673988 0.97797972
vt 0.991969109 0.007178545
vt 0.00803115964 0.00717830658
vt 0.0247676373 0.0220201015
vt 0.0302904546 0.973081946
vt 0.969709277 0.973082066
vt 0.965178728 0.969064415
vt 0.965178967 0.0309357643
vt 0.0348210335 0.969064236
vt 0.969709516 0.0269180536
vt 0.030290693 0.0269179344
vt 0.0348212719 0.0309355855
vt 0.975232601 0.0220202804
vt 0.972816229 0.0241630673
vt 0.97281599 0.975837111
vt 0.975232363 0.977979898
vt 0.0247673988 0.97797972
vt 0.0271837413 0.975836933
vt 0.0271839797 0.0241628885
vt 0.0247676373 0.0220201015
vt 0.975232363 0.977979898
vt 0.97281599 0.975837111
vt 0.0271837413 0.975836933
vt 0.0247673988 0.97797972
vt 0.0247676373 0.0220201015
vt 0.0271839797 0.0241628885
vt 0.972816229 0.0241630673
vt 0.975232601 0.0220202804
vt 0.965178967 0.0309357643
vt 0.964109719 0.031883955
vt 0.96410948 0.968116164
vt 0.965178728 0.969064415
vt 0.0348210335 0.969064236
vt 0.0358902812 0.968116045
vt 0.0358905196 0.0318838358
vt 0.0348212719 0.0309355855
vt 0.965178728 0.969064415
vt 0.96410948 0.968116164
vt 0.0358902812 0.968116045
vt 0.0348210335 0.969064236
vt 0.0348212719 0.0309355855
vt 0.0358905196 0.0318838358
vt 0.964109719 0.031883955
vt 0.965178967 0.0309357643
vt 0.972816229 0.0241630673
vt 0.971090317 0.025693655
vt 0.971090078 0.974306583
vt 0.97281599 0.975837111
vt 0.0271837413 0.975836933
vt 0.0289096832 0.974306345
vt 0.0289099216 0.0256934166
vt 0.0271839797 0.0241628885
vt 0.97281599 0.975837111
vt 0.971090078 0.974306583
vt 0.0289096832 0.974306345
vt 0.0271837413 0.975836933
vt 0.0271839797 0.0241628885
vt 0.0289099216 0.0256934166
vt 0.971090317 0.025693655
vt 0.972816229 0.0241630673
vt 0.964109719 0.031883955
vt 0.963468134 0.0324529409
vt 0.963467896 0.967547297
vt 0.96410948 0.968116164
vt 0.0358902812 0.968116045
vt 0.0365318656 0.967547059
vt 0.036532104 0.0324527025
vt 0.0358905196 0.0318838358
vt 0.99196887 0.992821693
vt 0.992313147 0.993126988
vt 0.992313385 0.00687325001
vt 0.991969109 0.007178545
vt 0.00803115964 0.00717830658
vt 0.00768688321 0.00687301159
vt 0.00768664479 0.99312675
vt 0.00803092122 0.992821455
vt 0.96410948 0.968116164
vt 0.963467896 0.967547297
vt 0.0365318656 0.967547059
vt 0.0358902812 0.968116045
vt 0.0358905196 0.0318838358
vt 0.036532104 0.0324527025
vt 0.963468134 0.0324529409
vt 0.964109719 0.031883955
vt 0.00803092122 0.992821455
vt 0.00768664479 0.99312675
vt 0.992313147 0.993126988
vt 0.99196887 0.992821693
vt 0.991969109 0.007178545
vt 0.992313385 0.00687325001
vt 0.00768688321 0.00687301159
vt 0.00803115964 0.00717830658
vt 0.971090317 0.025693655
vt 0.970054746 0.0266119838
vt 0.970054507 0.973388195
vt 0.971090078 0.974306583
vt 0.0289096832 0.974306345
vt 0.0299452841 0.973388016
vt 0.0299455225 0.026611805
vt 0.0289099216 0.0256934166
vt 0.963468134 0.0324529409
vt 0.963254273 0.0326426029
vt 0.963254035 0.967357635
vt 0.963467896 0.967547297
vt 0.0365318656 0.967547059
vt 0.0367457271 0.967357397
vt 0.0367459655 0.0326423645
vt 0.036532104 0.0324527025
vt 0.971090078 0.974306583
vt 0.970054507 0.973388195
vt 0.0299452841 0.973388016
vt 0.0289096832 0.974306345
vt 0.0289099216 0.0256934166
vt 0.0299455225 0.026611805
vt 0.970054746 0.0266119838
vt 0.971090317 0.025693655
vt 0.963254035 0.967357635
vt 0.963254273 0.0326426029
vt 0.963254273 0.0326426029
vt 0.963254035 0.967357635
vt 0.0367459655 0.0326423645
vt 0.0367457271 0.967357397
vt 0.0367457271 0.967357397
vt 0.0367459655 0.0326423645
vt 0.970054746 0.0266119838
vt 0.969709516 0.0269180536
vt 0.969709277 0.973082066
vt 0.970054507 0.973388195
vt 0.0299452841 0.973388016
vt 0.0302904546 0.973081946
vt 0.030290693 0.0269179344
vt 0.0299455225 0.026611805
vt 0.969709277 0.973082066
vt 0.969709516 0.0269180536
vt 0.969709516 0.0269180536
vt 0.969709277 0.973082066
vt 0.030290693 0.0269179344
vt 0.0302904546 0.973081946
vt 0.0302904546 0.973081946
vt 0.030290693 0.0269179344
vt 0.99196887 0.992821693
vt 0.991969109 0.007178545
vt 0.991969109 0.007178545
vt 0.99196887 0.992821693
vt 0.00803115964 0.00717830658
vt 0.00803092122 0.992821455
vt 0.00803092122 0.992821455
vt 0.00803115964 0.00717830658
vt 0.963467896 0.967547297
vt 0.963254035 0.967357635
vt 0.0367457271 0.967357397
vt 0.0365318656 0.967547059
vt 0.036532104 0.0324527025
vt 0.0367459655 0.0326423645
vt 0.963254273 0.0326426029
vt 0.963468134 0.0324529409
vt 0.0367457271 0.967357397
vt 0.963254035 0.967357635
vt 0.963254035 0.967357635
vt 0.0367457271 0.967357397
vt 0.963254273 0.0326426029
vt 0.0367459655 0.0326423645
vt 0.0367459655 0.0326423645
vt 0.963254273 0.0326426029
vt 0.970054507 0.973388195
vt 0.969709277 0.973082066
vt 0.0302904546 0.973081946
vt 0.0299452841 0.973388016
vt 0.0299455225 0.026611805
vt 0.030290693 0.0269179344
vt 0.969709516 0.0269180536
vt 0.970054746 0.0266119838
vt 0.0302904546 0.973081946
vt 0.969709277 0.973082066
vt 0.969709277 0.973082066
vt 0.0302904546 0.973081946
vt 0.969709516 0.0269180536
vt 0.030290693 0.0269179344
vt 0.030290693 0.0269179344
vt 0.969709516 0.0269180536
vt 0.00803092122 0.992821455
vt 0.99196887 0.992821693
vt 0.99196887 0.992821693
vt 0.00803092122 0.992821455
vt 0.991969109 0.007178545
vt 0.00803115964 0.00717830658
vt 0.00803115964 0.00717830658
vt 0.991969109 0.007178545
f 1/1 2/2 3/3
f 3/3 4/4 1/1
f 5/5 6/6 7/7
f 7/7 8/8 5/5
f 9/9 10/10 11/11
f 11/11 12/12 9/9
f 13/13 14/14 15/15
f 15/15 16/16 13/13
f 17/17 18/18 19/19
f 20/20 19/19 18/18
f 19/19 21/21 17/17
f 18/18 22/22 20/20
f 23/23 17/17 21/21
f 24/24 20/20 22/22
f 22/22 23/23 24/24
f 21/21 24/24 23/23
f 25/25 26/26 27/27
f 28/28 27/27 26/26
f 27/27 29/29 25/25
f 26/26 30/30 28/28
f 31/31 25/25 29/29
f 32/32 28/28 30/30
f 30/30 31/31 32/32
f 29/29 32/32 31/31
f 33/33 34/34 35/35
f 36/36 35/35 34/34
f 35/35 37/37 33/33
f 34/34 38/38 36/36
f 39/39 33/33 37/37
f 40/40 36/36 38/38
f 38/38 39/39 40/40
f 37/37 40/40 39/39
f 41/41 42/42 43/43
f 43/43 44/44 41/41
f 45/45 46/46 47/47
f 47/47 48/48 45/45
f 49/49 50/50 51/51
f 51/51 52/52 49/49
f 53/53 54/54 55/55
f 55/55 56/56 53/53
f 57/57 58/58 59/59
f 59/59 60/60 57/57
f 61/61 62/62 63/63
f 63/63 64/64 61/61
f 65/65 66/66 67/67
f 67/67 68/68 65/65
f 69/69 70/70 71/71
f 71/71 72/72 69/69
f 73/73 74/74 75/75
f 75/75 76/76 73/73
f 77/77 78/78 79/79
f 79/79 80/80 77/77
f 81/81 82/82 83/83
f 83/83 84/84 81/81
f 85/85 86/86 87/87
f 87/87 88/88 85/85
f 89/89 90/90 91/91
f 91/91 92/92 89/89
f 93/93 94/94 95/95
f 95/95 96/96 93/93
f 97/97 98/98 99/99
f 99/99 100/100 97/97
f 101/101 102/102 103/103
f 103/103 104/104 101/101
f 105/105 106/106 107/107
f 107/107 108/108 105/105
f 109/109 110/110 111/111
f 111/111 112/112 109/109
f 113/113 114/114 115/115
f 115/115 116/116 113/113
f 117/117 118/118 119/119
f 119/119 120/120 117/117
f 121/121 122/122 123/123
f 123/123 124/124 121/121
f 125/125 126/126 127/127
f 127/127 128/128 125/125
f 129/129 130/130 131/131
f 131/131 132/132 129/129
f 133/133 134/134 135/135
f 135/135 136/136 133/133
f 137/137 138/138 139/139
f 139/139 140/140 137/137
f 141/141 142/142 143/143
f 143/143 144/144 141/141
f 145/145 146/146 147/147
f 147/147 148/148 145/145
f 149/149 150/150 151/151
f 151/151 152/152 149/149
f 153/153 154/154 155/155
f 155/155 156/156 153/153
f 157/157 158/158 159/159
f 159/159 160/160 157/157
f 161/161 162/162 163/163
f 163/163 164/164 161/161
f 165/165 166/166 167/167
f 167/167 168/168 165/165
f 169/169 170/170 171/171
f 171/171 172/172 169/169
f 173/173 174/174 175/175
f 175/175 176/176 173/173
f 177/177 178/178 179/179
f 179/179 180/180 177/177
f 181/181 182/182 183/183
f 183/183 184/184 181/181
f 185/185 186/186 187/187
f 187/187 188/188 185/185
f 189/189 190/190 191/191
f 191/191 192/192 189/189
f 193/193 194/194 195/195
f 195/195 196/196 193/193
f 197/197 198/198 199/199
f 199/199 200/200 197/197
f 201/201 202/202 203/203
f 203/203 204/204 201/201
f 205/205 206/206 207/207
f 207/207 208/208 205/205
f 209/209 210/210 211/211
f 211/211 212/212 209/209
f 213/213 214/214 215/215
f 215/215 216/216 213/213
