# Blender v3.0.1 OBJ File: ''
# www.blender.org
o Proxy
v 0.104539 -0.092334 1.119971
v 0.110220 0.090341 1.115241
v 0.046176 0.041635 1.122784
v -0.109113 -0.092523 1.114997
v -0.048275 -0.042462 1.131284
v -0.045178 0.041011 1.122955
v -0.045178 0.041011 1.122955
v -0.048275 -0.042462 1.131284
v -0.043593 -0.027366 1.195874
v 0.046176 0.041635 1.122784
v 0.043227 0.054623 1.176965
v 0.043796 -0.027596 1.195775
v -0.130918 -0.028843 1.475661
v -0.130919 0.220873 1.394446
v -0.130919 0.141314 1.153479
v 0.130918 -0.028408 1.475748
v 0.131492 -0.112359 1.218810
v 0.130917 0.141412 1.153397
v -0.043593 -0.027366 1.195874
v -0.130917 -0.111965 1.219865
v -0.130919 0.141314 1.153479
v 0.043227 0.054623 1.176965
v 0.130917 0.141412 1.153397
v 0.131492 -0.112359 1.218810
v -0.121548 0.100869 0.641000
v -0.121547 -0.100870 0.641000
v -0.069335 -0.091560 1.021798
v 0.092556 -0.094565 1.031143
v 0.121549 -0.100869 0.641000
v 0.121547 0.100871 0.641000
v -0.109113 -0.092523 1.114997
v -0.106992 -0.083935 1.107337
v -0.070703 -0.082885 1.029614
v -0.109113 -0.092523 1.114997
v -0.105077 0.090333 1.120709
v -0.105314 0.025237 1.111902
v -0.105077 0.090333 1.120709
v -0.093663 0.091550 1.017887
v -0.093499 0.026696 1.027725
v 0.104539 -0.092334 1.119971
v 0.102708 -0.083831 1.111997
v 0.107389 0.025222 1.109602
v 0.104539 -0.092334 1.119971
v 0.092248 -0.085625 1.036951
v 0.093662 0.091507 1.017857
v 0.092194 0.026987 1.039586
v 0.110220 0.090341 1.115241
v 0.107389 0.025222 1.109602
v -0.106992 -0.083935 1.107337
v -0.105314 0.025237 1.111902
v -0.213667 0.037186 0.865337
v 0.102708 -0.083831 1.111997
v 0.206144 -0.095388 0.864883
v 0.214661 -0.003444 0.860756
v -0.070703 -0.082885 1.029614
v -0.142768 -0.055607 0.829142
v -0.140758 0.039379 0.836752
v -0.204829 0.074230 0.675101
v -0.192708 0.125867 0.713170
v 0.092248 -0.085625 1.036951
v 0.092194 0.026987 1.039586
v 0.141990 0.003459 0.832314
v -0.215616 -0.054928 0.857957
v -0.142768 -0.055607 0.829142
v -0.070703 -0.082885 1.029614
v -0.260888 0.074736 0.693957
v -0.204829 0.074230 0.675101
v 0.206854 0.010629 0.667413
v 0.133208 -0.091352 0.836570
v -0.093499 0.026696 1.027725
v -0.140758 0.039379 0.836752
v -0.213667 0.037186 0.865337
v -0.249133 0.124811 0.730877
v 0.214661 -0.003444 0.860756
v 0.141990 0.003459 0.832314
v 0.092194 0.026987 1.039586
v 0.257477 0.062350 0.716348
v 0.201238 0.067603 0.698798
v 0.092248 -0.085625 1.036951
v 0.133208 -0.091352 0.836570
v 0.206144 -0.095388 0.864883
v 0.262923 0.007098 0.685912
v -0.260888 0.074736 0.693957
v -0.215616 -0.054928 0.857957
v 0.262923 0.007098 0.685912
v 0.257477 0.062350 0.716348
v -0.045178 0.041011 1.122955
v 0.000185 0.041317 1.122626
v -0.007052 0.089611 1.125938
v 0.046176 0.041635 1.122784
v 0.110220 0.090341 1.115241
v -0.007389 -0.092483 1.132173
v -0.002873 -0.042258 1.129707
v -0.048275 -0.042462 1.131284
v 0.104539 -0.092334 1.119971
v 0.047416 -0.041528 1.131450
v -0.000000 0.054630 1.176997
v 0.000185 0.041317 1.122626
v -0.045178 0.041011 1.122955
v 0.043227 0.054623 1.176965
v 0.046176 0.041635 1.122784
v -0.002873 -0.042258 1.129707
v 0.000000 -0.027227 1.195874
v -0.043593 -0.027366 1.195874
v 0.047416 -0.041528 1.131450
v 0.043796 -0.027596 1.195775
v -0.000001 0.221426 1.393925
v -0.000001 0.141522 1.153762
v -0.130919 0.141314 1.153479
v 0.130917 0.220539 1.394763
v 0.130917 0.141412 1.153397
v 0.000001 -0.112220 1.219340
v 0.000000 -0.026685 1.476142
v -0.130918 -0.028843 1.475661
v 0.131492 -0.112359 1.218810
v 0.130918 -0.028408 1.475748
v 0.000000 -0.026685 1.476142
v -0.000001 0.221426 1.393925
v -0.130919 0.220873 1.394446
v 0.130918 -0.028408 1.475748
v 0.130917 0.220539 1.394763
v -0.000001 0.141522 1.153762
v -0.000000 0.054630 1.176997
v -0.043251 0.054209 1.177282
v 0.130917 0.141412 1.153397
v 0.043227 0.054623 1.176965
v -0.043593 -0.027366 1.195874
v 0.000000 -0.027227 1.195874
v 0.000001 -0.112220 1.219340
v 0.043796 -0.027596 1.195775
v 0.131492 -0.112359 1.218810
v 0.001924 -0.094190 1.029768
v -0.007389 -0.092483 1.132173
v -0.109113 -0.092523 1.114997
v 0.092556 -0.094565 1.031143
v 0.104539 -0.092334 1.119971
v 0.000001 -0.100870 0.641000
v 0.001924 -0.094190 1.029768
v -0.069335 -0.091560 1.021798
v 0.121549 -0.100869 0.641000
v 0.092556 -0.094565 1.031143
v -0.105077 0.090333 1.120709
v -0.007052 0.089611 1.125938
v -0.000001 0.091808 1.018059
v 0.110220 0.090341 1.115241
v 0.093662 0.091507 1.017857
v -0.093663 0.091550 1.017887
v -0.000001 0.114870 0.641000
v 0.121547 0.100871 0.641000
v -0.119926 0.091729 0.604416
v -0.119925 -0.091225 0.604416
v -0.121548 0.100869 0.641000
v -0.020421 0.103483 0.604416
v 0.000001 -0.100870 0.641000
v -0.020420 -0.091224 0.604416
v -0.020421 0.103483 0.604416
v -0.121547 -0.100870 0.641000
v -0.119925 -0.091225 0.604416
v -0.020420 -0.091224 0.604416
v 0.000001 -0.100870 0.641000
v -0.000001 0.114870 0.641000
v 0.020420 0.103483 0.604416
v 0.119926 0.091730 0.604416
v 0.020420 0.103483 0.604416
v 0.121549 -0.100869 0.641000
v 0.119927 -0.091223 0.604416
v 0.121549 -0.100869 0.641000
v 0.000001 -0.100870 0.641000
v 0.020421 -0.091224 0.604416
v -0.122835 0.103808 0.353697
v -0.121001 0.007941 0.354190
v -0.119740 0.042219 0.102943
v -0.116010 -0.044363 0.103446
v -0.035165 0.112728 0.353698
v -0.122835 0.103808 0.353697
v -0.119926 0.091729 0.604416
v -0.037884 0.043126 0.102331
v -0.119740 0.042219 0.102943
v -0.033331 0.007941 0.354190
v -0.035165 0.112728 0.353698
v -0.039405 -0.041711 0.102527
v -0.037884 0.043126 0.102331
v -0.121001 0.007941 0.354190
v -0.033331 0.007941 0.354190
v -0.116010 -0.044363 0.103446
v -0.039405 -0.041711 0.102527
v 0.033330 0.007942 0.354190
v 0.035163 0.112728 0.353698
v 0.037882 0.043126 0.102331
v 0.020421 -0.091224 0.604416
v 0.037882 0.043126 0.102331
v 0.035163 0.112728 0.353698
v 0.122833 0.103809 0.353697
v 0.119738 0.042220 0.102943
v 0.122833 0.103809 0.353697
v 0.121000 0.007942 0.354190
v 0.119926 0.091730 0.604416
v 0.116009 -0.044362 0.103446
v 0.121000 0.007942 0.354190
v 0.033330 0.007942 0.354190
v 0.119927 -0.091223 0.604416
v -0.249133 0.124811 0.730877
v -0.255239 0.167118 0.711440
v -0.192708 0.125867 0.713170
v -0.199331 0.168710 0.694341
v -0.255239 0.167118 0.711440
v -0.219513 0.082734 0.630955
v -0.199331 0.168710 0.694341
v -0.274803 0.083783 0.650001
v 0.277028 0.009022 0.641135
v 0.267963 0.100971 0.691785
v 0.206854 0.010629 0.667413
v 0.221659 0.011907 0.622513
v 0.277028 0.009022 0.641135
v 0.201238 0.067603 0.698798
v 0.212307 0.106770 0.674769
v 0.267963 0.100971 0.691785
v -0.249779 0.239955 0.564111
v -0.259197 0.199835 0.534532
v -0.224374 0.237143 0.561162
v -0.249779 0.239955 0.564111
v -0.234079 0.195800 0.530682
v -0.219513 0.082734 0.630955
v -0.259197 0.199835 0.534532
v -0.224374 0.237143 0.561162
v -0.234079 0.195800 0.530682
v -0.259197 0.199835 0.534532
v 0.272606 0.110971 0.512172
v 0.247134 0.109365 0.508920
v 0.272606 0.110971 0.512172
v 0.242637 0.154982 0.534047
v 0.247134 0.109365 0.508920
v 0.212307 0.106770 0.674769
v 0.268243 0.155238 0.536557
v 0.272606 0.110971 0.512172
v 0.247134 0.109365 0.508920
v 0.242637 0.154982 0.534047
v -0.119990 0.042110 0.076945
v -0.038134 0.043017 0.076333
v -0.039655 -0.050673 0.076541
v -0.038134 0.043017 0.076333
v -0.116261 -0.053325 0.077459
v -0.039655 -0.050673 0.076541
v 0.039403 -0.041710 0.102527
v 0.038132 0.043017 0.076333
v 0.119738 0.042220 0.102943
v 0.119988 0.042112 0.076944
v 0.038132 0.043017 0.076333
v 0.116009 -0.044362 0.103446
v 0.116260 -0.053324 0.077459
v 0.119988 0.042112 0.076944
v 0.039403 -0.041710 0.102527
v 0.039654 -0.050673 0.076541
v -0.116261 -0.053325 0.077459
v -0.120742 0.041785 0.000000
v -0.065681 -0.084512 0.000000
v -0.038886 0.042692 0.000001
v -0.100649 -0.083130 -0.000000
v -0.065681 -0.084512 0.000000
v -0.120742 0.041785 0.000000
v -0.038886 0.042692 0.000001
v -0.065681 -0.084512 0.000000
v 0.039654 -0.050673 0.076541
v 0.038884 0.042692 0.000000
v 0.100648 -0.083130 -0.000000
v 0.120740 0.041786 0.000000
v 0.116260 -0.053324 0.077459
v 0.065680 -0.084512 0.000000
v 0.120740 0.041786 0.000000
v 0.100648 -0.083130 -0.000000
v 0.065680 -0.084512 0.000000
v 0.132238 0.177902 0.000000
v 0.131494 0.177902 0.042357
v -0.131498 0.177900 0.042357
v -0.132242 0.177900 0.000001
v 0.038884 0.042692 0.000000
v 0.058381 0.177902 0.000001
v -0.132242 0.177900 0.000001
v -0.058385 0.177901 0.000001
v 0.057638 0.177901 0.041882
v -0.058385 0.177901 0.000001
v -0.057642 0.177901 0.041882
v 0.119988 0.042112 0.076944
v 0.131494 0.177902 0.042357
v 0.057638 0.177901 0.041882
v -0.119990 0.042110 0.076945
v -0.038134 0.043017 0.076333
v -0.057642 0.177901 0.041882
v -0.058385 0.177901 0.000001
v -0.132242 0.177900 0.000001
v -0.131498 0.177900 0.042357
v 0.131494 0.177902 0.042357
v 0.132238 0.177902 0.000000
v 0.058381 0.177902 0.000001
v 0.047416 -0.041528 1.131450
v 0.104539 -0.092334 1.119971
v 0.046176 0.041635 1.122784
v -0.105077 0.090333 1.120709
v -0.109113 -0.092523 1.114997
v -0.045178 0.041011 1.122955
v -0.043251 0.054209 1.177282
v 0.047416 -0.041528 1.131450
v -0.130917 -0.111965 1.219865
v 0.130917 0.220539 1.394763
v -0.043251 0.054209 1.177282
v -0.043593 -0.027366 1.195874
v -0.130919 0.141314 1.153479
v 0.043796 -0.027596 1.195775
v 0.043227 0.054623 1.176965
v 0.131492 -0.112359 1.218810
v -0.106992 -0.083935 1.107337
v -0.109113 -0.092523 1.114997
v -0.105314 0.025237 1.111902
v -0.105314 0.025237 1.111902
v 0.110220 0.090341 1.115241
v 0.102708 -0.083831 1.111997
v 0.107389 0.025222 1.109602
v -0.093499 0.026696 1.027725
v -0.106992 -0.083935 1.107337
v -0.105314 0.025237 1.111902
v 0.107389 0.025222 1.109602
v 0.102708 -0.083831 1.111997
v -0.105077 0.090333 1.120709
v -0.109113 -0.092523 1.114997
v -0.043251 0.054209 1.177282
v -0.048275 -0.042462 1.131284
v -0.130919 0.220873 1.394446
v -0.000001 0.221426 1.393925
v -0.130919 0.141314 1.153479
v 0.130917 0.220539 1.394763
v -0.000001 0.141522 1.153762
v -0.130917 -0.111965 1.219865
v -0.130918 -0.028843 1.475661
v -0.130919 0.141314 1.153479
v -0.130917 -0.111965 1.219865
v -0.069335 -0.091560 1.021798
v -0.121547 -0.100870 0.641000
v -0.121547 -0.100870 0.641000
v -0.000001 0.114870 0.641000
v -0.274803 0.083783 0.650001
v 0.221659 0.011907 0.622513
v -0.224374 0.237143 0.561162
v -0.234079 0.195800 0.530682
v -0.249779 0.239955 0.564111
v -0.224374 0.237143 0.561162
v -0.259197 0.199835 0.534532
v 0.268243 0.155238 0.536557
v 0.242637 0.154982 0.534047
v 0.268243 0.155238 0.536557
v 0.272606 0.110971 0.512172
v 0.242637 0.154982 0.534047
v -0.119990 0.042110 0.076945
v -0.100649 -0.083130 -0.000000
v -0.100649 -0.083130 -0.000000
v 0.065680 -0.084512 0.000000
v 0.100648 -0.083130 -0.000000
v 0.132238 0.177902 0.000000
v 0.058381 0.177902 0.000001
v 0.038132 0.043017 0.076333
v 0.119988 0.042112 0.076944
v 0.057638 0.177901 0.041882
v -0.131498 0.177900 0.042357
v -0.119990 0.042110 0.076945
v -0.057642 0.177901 0.041882
v -0.057642 0.177901 0.041882
v -0.058385 0.177901 0.000001
v -0.131498 0.177900 0.042357
v 0.057638 0.177901 0.041882
v 0.131494 0.177902 0.042357
v 0.058381 0.177902 0.000001
vn 0.0999 0.0226 0.9947
vn -0.3375 0.1058 0.9354
vn -0.9971 0.0432 0.0622
vn 0.9986 0.0183 0.0500
vn -1.0000 -0.0000 -0.0000
vn 1.0000 0.0026 0.0014
vn -0.0201 -0.2535 -0.9671
vn -0.0132 -0.2496 -0.9683
vn -0.8946 -0.1534 -0.4197
vn -0.9843 0.0272 -0.1743
vn 0.9614 -0.0472 -0.2711
vn 0.9768 -0.0241 -0.2126
vn 0.0077 -0.0673 0.9977
vn 0.0906 0.0350 0.9953
vn 0.0344 0.0459 0.9984
vn 0.1079 -0.1021 0.9889
vn -0.0083 0.9713 -0.2379
vn -0.0059 0.9724 -0.2334
vn 0.0031 -0.9752 0.2214
vn -0.0078 -0.9774 0.2113
vn -0.0008 0.9489 -0.3157
vn -0.0001 0.9502 -0.3115
vn 0.0145 -0.9487 0.3160
vn -0.0116 -0.9505 0.3105
vn 0.0025 0.3146 0.9492
vn -0.0040 0.3094 0.9509
vn -0.0039 -0.2583 -0.9661
vn -0.0029 -0.2593 -0.9658
vn 0.0008 -0.2661 -0.9639
vn -0.0042 -0.2663 -0.9639
vn -0.0024 -0.9999 0.0164
vn -0.0045 -0.9997 0.0257
vn -0.0269 0.5973 -0.8016
vn 0.0804 0.4870 -0.8697
vn 0.0000 0.0000 -1.0000
vn -0.0062 0.2473 0.9689
vn 0.0045 0.2481 0.9687
vn -0.0000 1.0000 0.0000
vn 0.2837 0.1036 0.9533
vn -0.0619 -0.0298 0.9976
vn -0.9994 0.0116 0.0326
vn 0.9985 0.0203 0.0518
vn 1.0000 0.0000 -0.0000
vn 0.0437 -0.2222 -0.9740
vn 0.0407 -0.2226 -0.9741
vn -0.9703 0.0250 -0.2407
vn -0.9901 0.0224 -0.1386
vn 0.9934 -0.0337 -0.1093
vn 0.9868 0.0817 -0.1395
vn -0.0534 -0.0194 0.9984
vn -0.0029 -0.0689 0.9976
vn -0.1653 -0.1177 0.9792
vn -0.0353 0.0522 0.9980
vn -0.0110 0.9718 -0.2357
vn -0.0000 0.9713 -0.2378
vn 0.0123 -0.9739 0.2267
vn 0.0065 -0.9752 0.2212
vn -0.0053 0.9496 -0.3135
vn 0.0084 0.9488 -0.3157
vn -0.0006 -0.9510 0.3090
vn 0.0003 -0.9488 0.3160
vn -0.0086 0.3093 0.9509
vn 0.0070 0.3145 0.9492
vn 0.0025 -0.2613 -0.9653
vn -0.0008 -0.2583 -0.9661
vn -0.0044 -0.2686 -0.9632
vn -0.0044 -0.2661 -0.9639
vn -0.0341 -0.9991 -0.0249
vn 0.0032 -0.9999 0.0170
vn -0.0270 0.5973 -0.8016
vn -0.0045 0.2481 0.9687
vn 0.0062 0.2473 0.9689
vn -0.9973 -0.0371 0.0641
vn -0.9966 -0.0001 0.0821
vn -0.9967 -0.0368 -0.0724
vn 0.9993 0.0379 0.0049
vn 0.9998 0.0001 0.0201
vn 0.9998 -0.0001 0.0198
vn -0.9937 -0.0193 -0.1105
vn -0.9952 -0.0819 -0.0541
vn -0.8283 -0.0896 -0.5531
vn -0.9868 -0.0098 -0.1618
vn 0.9832 0.1221 -0.1357
vn 0.9981 0.0539 -0.0300
vn 0.9992 -0.0317 -0.0222
vn 0.9997 -0.0249 -0.0065
vn -0.9159 -0.0048 0.4013
vn -0.9155 -0.0027 0.4022
vn -0.9455 -0.0023 0.3255
vn 0.9172 -0.0383 0.3965
vn 0.9378 -0.0716 0.3398
vn 0.9455 -0.0667 0.3187
vn 0.9558 0.1393 -0.2589
vn 0.9373 0.0081 -0.3486
vn 0.9400 0.0372 -0.3391
vn 0.9420 0.0204 -0.3349
vn 0.9420 0.0255 -0.3345
vn -0.9739 0.0252 -0.2257
vn -0.9722 0.0050 -0.2341
vn -0.9524 0.0683 -0.2971
vn -0.1522 -0.9268 -0.3435
vn -0.1458 -0.9235 -0.3548
vn -0.1043 -0.9918 -0.0735
vn -0.1443 -0.9081 -0.3931
vn -0.1429 -0.9093 -0.3908
vn -0.9393 0.0856 -0.3323
vn -0.9614 0.0772 -0.2640
vn 0.0454 0.9985 0.0309
vn 0.0883 0.9475 0.3075
vn 0.0894 0.9538 0.2868
vn 0.2160 0.6663 0.7137
vn 0.0380 0.9862 0.1613
vn 0.0286 0.9841 0.1754
vn 0.2002 0.9793 -0.0295
vn -0.1280 0.7694 0.6258
vn -0.1225 0.7653 0.6319
vn -0.0437 -0.9987 0.0277
vn 0.0385 -0.9686 -0.2457
vn 0.0354 -0.9735 -0.2257
vn 0.0350 -0.9601 -0.2775
vn -0.9576 0.0087 0.2879
vn -0.9376 -0.0080 0.3477
vn 0.9572 -0.0645 0.2820
vn 0.9576 -0.0608 0.2817
vn -0.0026 -0.9957 -0.0922
vn -0.0208 -0.9996 0.0173
vn -0.0321 -0.9993 0.0186
vn 0.0000 -0.9924 -0.1234
vn -0.0036 -0.9998 0.0170
vn 0.0022 0.9999 0.0166
vn 0.0012 0.9998 0.0204
vn 0.0002 0.9993 0.0386
vn -0.0009 0.9999 0.0161
vn 0.0138 0.9994 0.0330
vn -0.0135 0.9994 0.0334
vn 0.0000 0.9972 -0.0744
vn 0.1148 0.9874 -0.1090
vn -0.9998 -0.0000 0.0193
vn -0.9998 -0.0021 -0.0207
vn -0.9997 -0.0000 -0.0251
vn -0.1149 0.9874 -0.1090
vn -0.1151 0.9859 -0.1218
vn 0.8732 0.0000 -0.4874
vn 0.9469 0.0000 -0.3214
vn 0.9564 0.0021 -0.2922
vn 0.0000 -0.9927 -0.1205
vn 0.0000 -0.9502 -0.3116
vn 0.0000 -0.9528 -0.3036
vn -0.8732 -0.0000 -0.4874
vn -0.9564 0.0021 -0.2922
vn 0.1150 0.9881 -0.1019
vn 0.1151 0.9859 -0.1218
vn 0.9998 0.0000 0.0193
vn 0.9998 0.0000 0.0195
vn 0.9997 0.0000 -0.0251
vn 0.0000 -0.9956 -0.0932
vn -0.9998 -0.0191 0.0021
vn -0.9998 -0.0177 0.0005
vn -0.9992 -0.0404 -0.0009
vn -0.9991 -0.0410 0.0076
vn -0.1026 0.9891 -0.1052
vn -0.0922 0.9899 -0.1076
vn -0.1150 0.9881 -0.1019
vn -0.0209 0.9919 -0.1254
vn -0.0119 0.9924 -0.1228
vn 0.9993 0.0107 -0.0371
vn 0.9991 0.0173 -0.0385
vn 0.9998 -0.0171 -0.0115
vn 0.9998 -0.0137 -0.0149
vn 0.0000 -0.9962 -0.0872
vn 0.0035 -0.9956 -0.0936
vn 0.0327 -0.9649 0.2606
vn 0.0365 -0.9652 0.2591
vn -0.9993 0.0107 -0.0371
vn -0.9991 0.0173 -0.0385
vn -0.9998 -0.0137 -0.0149
vn -0.9469 -0.0000 -0.3214
vn 0.0209 0.9919 -0.1254
vn 0.1026 0.9891 -0.1052
vn 0.0922 0.9899 -0.1076
vn 0.9992 -0.0404 -0.0009
vn 0.9998 -0.0191 0.0021
vn 0.9998 -0.0177 0.0005
vn 0.9998 -0.0021 -0.0207
vn -0.0327 -0.9649 0.2606
vn -0.0034 -0.9956 -0.0936
vn -0.9575 0.0124 0.2880
vn -0.9801 0.1071 0.1669
vn 0.2101 0.6622 0.7192
vn 0.1920 0.7022 0.6856
vn 0.2039 0.6670 0.7166
vn 0.9648 -0.0341 -0.2609
vn -0.1611 -0.8885 -0.4296
vn 0.9886 0.0151 0.1496
vn 0.9886 0.0150 0.1497
vn 0.0335 -0.9608 -0.2751
vn 0.0698 -0.9308 -0.3587
vn 0.0532 -0.9472 -0.3162
vn -0.9387 0.0907 -0.3326
vn -0.9667 0.0436 -0.2521
vn -0.1158 0.7690 0.6286
vn -0.9805 0.1883 0.0568
vn 0.1485 0.8907 0.4297
vn 0.1402 0.8905 0.4329
vn 0.9736 -0.0679 -0.2180
vn -0.1759 -0.8652 -0.4695
vn -0.2248 -0.6637 -0.7135
vn 0.9962 0.0815 0.0303
vn 0.1286 -0.7667 -0.6290
vn 0.1370 -0.7677 -0.6260
vn -0.9786 0.0166 -0.2052
vn -0.1005 0.7985 0.5935
vn -0.0322 0.9472 0.3191
vn -0.9985 -0.0529 0.0108
vn -0.0111 0.9999 -0.0041
vn 0.9907 -0.0919 -0.1000
vn 0.9995 0.0299 -0.0095
vn 0.0276 -0.9353 0.3528
vn 0.0366 -0.9337 0.3561
vn -0.9998 -0.0171 -0.0115
vn -0.9995 0.0299 -0.0095
vn 0.0119 0.9924 -0.1228
vn 0.0111 0.9999 -0.0041
vn 0.9991 -0.0410 0.0076
vn 0.9953 -0.0864 -0.0434
vn 0.9985 -0.0529 0.0108
vn -0.0365 -0.9652 0.2591
vn -0.0366 -0.9337 0.3561
vn -0.9953 -0.0864 -0.0434
vn -0.9960 -0.0867 -0.0215
vn 0.9512 -0.2004 -0.2348
vn 0.9979 0.0206 -0.0621
vn -0.0370 -0.9351 0.3524
vn -0.0035 -0.9284 0.3715
vn -0.9907 -0.0920 -0.1000
vn -0.9979 0.0206 -0.0621
vn 0.9781 -0.1573 -0.1366
vn 0.9960 -0.0867 -0.0215
vn -0.0276 -0.9353 0.3528
vn 0.0035 -0.9284 0.3715
vn 0.9963 -0.0842 0.0175
vn 0.9964 -0.0835 0.0153
vn -0.9964 -0.0835 0.0153
vn -0.9963 -0.0842 0.0175
vn -0.9897 0.1421 -0.0154
vn 0.9896 0.1427 -0.0176
vn 0.9897 0.1421 -0.0154
vn -0.9014 0.2026 -0.3826
vn 0.9826 -0.0789 -0.1680
vn 0.9166 -0.0306 0.3986
vn 0.9551 0.1948 -0.2234
vn -0.1129 -0.9914 -0.0661
vn 0.0536 0.9983 0.0248
vn 0.2117 0.9771 -0.0213
vn -0.0409 -0.9987 0.0296
vn -0.0029 -0.9933 -0.1151
vn -0.9998 -0.0000 0.0195
vn -0.9802 0.1071 0.1668
vn -0.9667 0.0435 -0.2521
vn -0.2164 -0.6632 -0.7164
vn -0.0405 0.9479 0.3160
vn -0.9781 -0.1573 -0.1366
vn -0.9512 -0.2004 -0.2348
vn 0.0370 -0.9351 0.3524
vn -0.9896 0.1427 -0.0176
s off
f 1//1 2//1 3//1
f 4//2 5//2 6//2
f 7//3 8//3 9//3
f 10//4 11//4 12//4
f 13//5 14//5 15//5
f 16//6 17//6 18//6
f 19//7 20//7 21//7
f 22//8 23//8 24//8
f 31//9 32//9 33//9
f 34//10 35//10 36//10
f 40//11 41//11 42//11
f 47//12 48//12 46//12
f 87//13 88//13 89//13
f 90//14 91//14 89//14
f 92//15 93//15 94//15
f 92//16 95//16 96//16
f 97//17 98//17 99//17
f 100//18 101//18 98//18
f 102//19 103//19 104//19
f 105//20 106//20 103//20
f 107//21 108//21 109//21
f 110//22 111//22 108//22
f 112//23 113//23 114//23
f 115//24 116//24 113//24
f 117//25 118//25 119//25
f 120//26 121//26 118//26
f 122//27 123//27 124//27
f 122//28 125//28 126//28
f 127//29 128//29 129//29
f 130//30 131//30 129//30
f 132//31 133//31 134//31
f 132//32 135//32 136//32
f 225//33 226//33 227//33
f 235//34 236//34 237//34
f 260//35 261//35 262//35
f 269//35 270//35 271//35
f 269//35 276//35 277//35
f 260//35 278//35 279//35
f 283//36 284//36 285//36
f 286//37 287//37 288//37
f 289//38 290//38 291//38
f 292//38 293//38 294//38
f 295//39 296//39 297//39
f 298//40 299//40 300//40
f 301//41 7//41 9//41
f 302//42 10//42 12//42
f 303//5 13//5 15//5
f 304//43 16//43 18//43
f 305//44 306//44 307//44
f 308//45 309//45 310//45
f 311//46 312//46 313//46
f 314//47 37//47 39//47
f 315//48 40//48 42//48
f 316//49 43//49 44//49
f 323//50 87//50 89//50
f 88//51 90//51 89//51
f 324//52 92//52 94//52
f 93//53 92//53 96//53
f 325//54 97//54 99//54
f 97//55 100//55 98//55
f 326//56 102//56 104//56
f 102//57 105//57 103//57
f 327//58 328//58 329//58
f 328//59 330//59 331//59
f 332//60 112//60 114//60
f 112//61 115//61 113//61
f 333//62 117//62 119//62
f 117//63 120//63 118//63
f 334//64 122//64 124//64
f 123//65 122//65 126//65
f 335//66 127//66 129//66
f 128//67 130//67 129//67
f 336//68 132//68 134//68
f 133//69 132//69 136//69
f 344//70 345//70 346//70
f 349//34 350//34 351//34
f 354//35 260//35 262//35
f 276//35 269//35 271//35
f 357//35 269//35 277//35
f 261//35 260//35 279//35
f 359//71 360//71 361//71
f 362//72 363//72 364//72
f 365//38 366//38 367//38
f 368//38 369//38 370//38
s 1
f 25//73 26//74 27//75
f 28//76 29//77 30//78
f 37//79 38//80 39//81
f 27//75 33//82 39//81
f 43//83 28//76 44//84
f 28//76 45//85 46//86
f 49//87 50//88 51//89
f 52//90 53//91 54//92
f 55//93 56//94 57//95
f 58//96 59//97 57//95
f 60//98 61//99 62//100
f 63//101 64//102 65//103
f 66//104 67//105 64//102
f 68//106 69//107 62//100
f 70//108 71//109 72//110
f 73//111 72//110 71//109
f 74//112 75//113 76//114
f 77//115 78//116 75//113
f 79//117 80//118 81//119
f 82//120 81//119 80//118
f 83//121 84//122 51//89
f 85//123 86//124 54//92
f 137//125 138//126 139//127
f 137//125 140//128 141//129
f 142//130 143//131 144//132
f 145//133 146//134 144//132
f 147//135 144//132 148//136
f 146//134 149//137 148//136
f 25//138 150//139 151//140
f 152//141 148//136 153//142
f 154//143 155//144 156//145
f 157//146 158//147 159//148
f 160//149 161//149 162//150
f 149//137 163//151 164//152
f 30//153 165//154 166//155
f 167//146 168//156 169//148
f 150//139 170//157 171//158
f 172//159 173//160 171//158
f 174//161 175//162 176//163
f 177//164 178//165 175//162
f 179//166 180//167 156//145
f 179//166 181//168 182//169
f 158//147 183//170 184//171
f 185//172 186//173 184//171
f 187//174 188//175 189//176
f 187//174 190//177 162//150
f 191//178 192//179 193//180
f 192//179 164//152 163//151
f 194//181 195//182 196//183
f 197//184 166//155 196//183
f 198//185 199//170 200//186
f 201//147 169//148 200//186
f 83//121 202//187 203//188
f 204//189 205//190 206//191
f 58//96 207//192 208//192
f 67//105 66//104 209//193
f 85//123 210//194 211//195
f 212//196 213//197 214//198
f 68//106 215//199 216//200
f 78//116 77//115 217//201
f 203//188 218//202 219//202
f 205//190 220//203 221//204
f 208//192 207//192 222//205
f 223//206 209//193 224//207
f 211//195 210//194 228//208
f 213//197 229//209 230//210
f 216//200 231//211 232//211
f 233//212 217//201 234//213
f 173//160 172//159 238//214
f 178//165 177//164 239//215
f 181//168 240//216 241//217
f 185//172 242//218 243//219
f 244//220 189//176 245//221
f 246//222 247//223 248//223
f 249//224 250//225 251//226
f 198//185 252//227 253//228
f 254//229 238//214 255//230
f 240//216 256//231 257//232
f 242//218 258//233 259//234
f 263//235 245//221 264//236
f 250//225 265//237 266//238
f 267//239 253//228 268//240
f 266//238 272//241 273//242
f 274//243 275//244 255//230
f 264//236 245//221 280//245
f 257//232 281//246 282//247
f 38//80 25//73 27//75
f 45//85 28//76 30//78
f 27//75 31//248 33//82
f 38//80 27//75 39//81
f 44//84 28//76 46//86
f 45//85 47//249 46//86
f 84//122 49//87 51//89
f 317//250 52//90 54//92
f 318//251 55//93 57//95
f 56//94 58//96 57//95
f 69//107 60//98 62//100
f 319//252 63//101 65//103
f 63//101 66//104 64//102
f 215//199 68//106 62//100
f 320//253 70//108 72//110
f 204//189 73//111 71//109
f 321//254 74//112 76//114
f 74//112 77//115 75//113
f 322//255 79//117 81//119
f 212//196 82//120 80//118
f 202//187 83//121 51//89
f 53//91 85//123 54//92
f 337//256 137//125 139//127
f 138//126 137//125 141//129
f 147//135 142//130 144//132
f 143//131 145//133 144//132
f 152//141 147//135 148//136
f 144//132 146//134 148//136
f 338//257 25//138 151//140
f 176//163 152//141 153//142
f 339//143 154//143 156//145
f 168//156 157//146 159//148
f 190//177 160//149 162//150
f 148//136 149//137 164//152
f 197//184 30//153 166//155
f 201//147 167//146 169//148
f 151//140 150//139 171//158
f 170//157 172//159 171//158
f 153//142 174//161 176//163
f 174//161 177//164 175//162
f 155//144 179//166 156//145
f 180//167 179//166 182//169
f 159//148 158//147 184//171
f 183//170 185//172 184//171
f 244//220 187//174 189//176
f 188//175 187//174 162//150
f 246//222 191//178 193//180
f 193//180 192//179 163//151
f 249//224 194//181 196//183
f 195//182 197//184 196//183
f 252//227 198//185 200//186
f 199//170 201//147 200//186
f 340//258 83//121 203//188
f 73//111 204//189 206//191
f 59//97 58//96 208//192
f 223//206 67//105 209//193
f 86//124 85//123 211//195
f 82//120 212//196 214//198
f 341//259 68//106 216//200
f 233//212 78//116 217//201
f 340//258 203//188 219//202
f 206//191 205//190 221//204
f 342//205 208//192 222//205
f 343//260 223//206 224//207
f 347//208 211//195 228//208
f 214//198 213//197 230//210
f 341//259 216//200 232//211
f 348//261 233//212 234//213
f 254//229 173//160 238//214
f 352//215 178//165 239//215
f 182//169 181//168 241//217
f 186//173 185//172 243//219
f 263//235 244//220 245//221
f 191//178 246//222 248//223
f 194//181 249//224 251//226
f 267//239 198//185 253//228
f 353//262 254//229 255//230
f 241//217 240//216 257//232
f 243//219 242//218 259//234
f 355//263 263//235 264//236
f 251//226 250//225 266//238
f 356//264 267//239 268//240
f 251//226 266//238 273//242
f 238//214 274//243 255//230
f 358//265 264//236 280//245
f 241//217 257//232 282//247
