v -0.646402001 -0.393932879 0.178419143
v -0.646402001 -0.393932879 0.182819128
v -0.648602009 -0.391732872 0.182819128
v -0.648602009 -0.391732872 0.178419143
v -0.646402001 -0.393932879 0.260510236
v -0.648602009 -0.391732872 0.260510236
v -0.646402001 -0.393932879 0.178419143
v -0.648602009 -0.391732872 0.178419143
v -0.648602009 -0.391732872 0.00219971896
v -0.646402001 -0.393932879 0.00219971896
v 0.646401823 -0.393932849 0.178419143
v 0.64860183 -0.391732872 0.178419143
v 0.64860183 -0.391732872 0.182819128
v 0.646401823 -0.393932849 0.182819128
v 0.646401823 -0.393932849 0.260510236
v 0.64860183 -0.391732872 0.260510236
v 0.646401823 -0.393932849 0.178419143
v 0.646401823 -0.393932849 0.00219971896
v 0.64860183 -0.391732872 0.00219971896
v 0.64860183 -0.391732872 0.178419143
v -0.642876029 0.338866204 1.2803514e-07
v -0.645076036 0.338481545 0.00217670831
v -0.642876029 0.340681523 0.00217670901
v -0.645076036 0.338481545 0.00217670831
v -0.645076036 0.306900918 0.180873513
v -0.642876029 0.309100896 0.180873528
v -0.642876029 0.340681523 0.00217670901
v -0.642876029 0.295516878 0.257737696
v -0.645076036 0.293316901 0.257737696
v 0.642876029 0.33886525 1.28034927e-07
v 0.642876029 0.340680569 0.00217670901
v 0.645076036 0.338480562 0.00217670831
v 0.642876029 0.30986926 0.176520362
v 0.642876029 0.309099972 0.180873543
v 0.645076036 0.306899935 0.180873543
v 0.645076036 0.306899935 0.180873543
v 0.645076036 0.307669282 0.176520362
v 0.642876029 0.30986926 0.176520362
v 0.645076036 0.338480562 0.00217670831
v 0.642876029 0.340680569 0.00217670901
v 0.642876029 0.309099972 0.180873543
v 0.642876029 0.295515925 0.257737666
v 0.645076036 0.293315947 0.257737666
v -0.646402001 -0.391732872 -2.83694249e-07
v -0.646402001 -0.393932879 0.00219971896
v -0.648602009 -0.391732872 0.00219971896
v 0.646401823 -0.391732872 -2.83694249e-07
v 0.64860183 -0.391732872 0.00219971896
v 0.646401823 -0.393932849 0.00219971896
v -0.648602009 -0.339306951 0.182819143
v -0.648602009 -0.391732872 0.182819128
v -0.648602009 -0.391732872 0.260510236
v -0.648602009 -0.339306951 0.260510236
v -0.648602009 -0.391732872 0.178419143
v -0.648602009 -0.339511901 0.178419143
v -0.648602009 -0.35767141 0.00219972036
v -0.648602009 -0.391732872 0.00219971896
v 0.64860183 -0.339306951 0.182819128
v 0.64860183 -0.33930698 0.260510236
v 0.64860183 -0.391732872 0.260510236
v 0.64860183 -0.391732872 0.182819128
v 0.64860183 -0.391732872 0.178419143
v 0.64860183 -0.339511901 0.178419143
v 0.64860183 -0.35767141 0.00219972036
v 0.64860183 -0.391732872 0.00219971896
v -0.645076036 0.254474968 0.180873498
v -0.645076036 0.240890965 0.257737637
v -0.645076036 0.293316901 0.257737696
v -0.645076036 0.306900918 0.180873513
v -0.645076036 0.255449235 0.176520318
v -0.645076036 0.304420084 0.00217669643
v -0.645076036 0.338481545 0.00217670831
v 0.645075977 0.254474014 0.180873498
v 0.645076036 0.306899935 0.180873543
v 0.645076036 0.293315947 0.257737666
v 0.645075977 0.240890011 0.257737637
v 0.645076036 0.307669282 0.176520362
v 0.645075977 0.255448312 0.176520318
v 0.645076036 0.30441913 0.00217669643
v 0.645076036 0.338480562 0.00217670831
v -0.648602009 -0.391732872 0.260510236
v -0.646402001 -0.393932879 0.260510236
v -0.646402001 -0.391732872 0.262710243
v 0.64860183 -0.391732872 0.260510236
v 0.646401823 -0.391732872 0.262710273
v 0.646401823 -0.393932849 0.260510236
v -0.645076036 0.293316901 0.257737696
v -0.642876029 0.292932212 0.259914219
v -0.642876029 0.295516878 0.257737696
v 0.645076036 0.293315947 0.257737666
v 0.642876029 0.295515925 0.257737666
v 0.642876029 0.292931288 0.259914249
v -0.646402001 -0.391732872 -2.83694249e-07
v -0.648602009 -0.391732872 0.00219971896
v -0.648602009 -0.35767141 0.00219972036
v -0.646402001 -0.357858896 -2.82213563e-07
v 0.646401823 -0.391732872 -2.83694249e-07
v 0.646401823 -0.357858896 -2.82213563e-07
v 0.64860183 -0.35767141 0.00219972036
v 0.64860183 -0.391732872 0.00219971896
v -0.642876029 0.338866204 1.2803514e-07
v -0.642876029 0.304992229 1.16189725e-07
v -0.645076036 0.304420084 0.00217669643
v -0.645076036 0.338481545 0.00217670831
v 0.642876029 0.33886525 1.28034927e-07
v 0.645076036 0.338480562 0.00217670831
v 0.645076036 0.30441913 0.00217669643
v 0.642876029 0.304991275 1.16189504e-07
v -0.646402001 -0.339306951 0.262710243
v -0.648602009 -0.339306951 0.260510236
v -0.648602009 -0.391732872 0.260510236
v -0.646402001 -0.391732872 0.262710243
v 0.646401823 -0.33930698 0.262710273
v 0.646401823 -0.391732872 0.262710273
v 0.64860183 -0.391732872 0.260510236
v 0.64860183 -0.33930698 0.260510236
v -0.642876029 0.240506306 0.259914219
v -0.642876029 0.292932212 0.259914219
v -0.645076036 0.293316901 0.257737696
v -0.645076036 0.240890965 0.257737637
v 0.642875969 0.240505368 0.259914219
v 0.645075977 0.240890011 0.257737637
v 0.645076036 0.293315947 0.257737666
v 0.642876029 0.292931288 0.259914249
v -0.642876029 0.340681523 0.00217670901
v -0.608411551 0.340681523 0.00217670901
v -0.608611047 0.338866174 1.2803514e-07
v -0.642876029 0.338866204 1.2803514e-07
v 0.642876029 0.340680569 0.00217670901
v 0.642876029 0.33886525 1.28034927e-07
v 0.608611047 0.33886531 1.28034941e-07
v 0.60841161 0.340680629 0.00217670901
v -0.646402001 -0.393932879 0.00219971896
v -0.646402001 -0.391732872 -2.83694249e-07
v -0.61213702 -0.391732872 -2.83694249e-07
v -0.611937582 -0.393932879 0.00219971896
v 0.646401823 -0.393932849 0.00219971896
v 0.611937404 -0.393932849 0.00219971896
v 0.6121369 -0.391732872 -2.83694249e-07
v 0.646401823 -0.391732872 -2.83694249e-07
v -0.611937582 -0.393932879 0.00219971896
v -0.595162988 -0.393932879 0.178419143
v -0.646402001 -0.393932879 0.178419143
v -0.646402001 -0.393932879 0.00219971896
v -0.646402001 -0.393932879 0.182819128
v -0.594943643 -0.393932879 0.182819128
v -0.594943643 -0.393932879 0.260510236
v -0.646402001 -0.393932879 0.260510236
v 0.611937404 -0.393932849 0.00219971896
v 0.646401823 -0.393932849 0.00219971896
v 0.646401823 -0.393932849 0.178419143
v 0.595162809 -0.393932849 0.178419143
v 0.646401823 -0.393932849 0.182819128
v 0.594943464 -0.393932849 0.182819128
v 0.594943464 -0.393932849 0.260510236
v 0.646401823 -0.393932849 0.260510236
v -0.608411551 0.340681523 0.00217670901
v -0.642876029 0.340681523 0.00217670901
v -0.642876029 0.309100896 0.180873528
v -0.591637015 0.309870183 0.176520348
v -0.591417611 0.309100866 0.180873528
v -0.591417611 0.295516849 0.257737696
v -0.642876029 0.295516878 0.257737696
v 0.60841161 0.340680629 0.00217670901
v 0.591637015 0.309869319 0.176520362
v 0.642876029 0.30986926 0.176520362
v 0.642876029 0.340680569 0.00217670901
v 0.642876029 0.309099972 0.180873543
v 0.59141767 0.309100002 0.180873543
v 0.59141767 0.295515954 0.257737666
v 0.642876029 0.295515925 0.257737666
v -0.594943643 -0.393932879 0.260510236
v -0.594943643 -0.391732872 0.262710243
v -0.646402001 -0.391732872 0.262710243
v -0.646402001 -0.393932879 0.260510236
v 0.594943464 -0.393932849 0.260510236
v 0.646401823 -0.393932849 0.260510236
v 0.646401823 -0.391732872 0.262710273
v 0.594943464 -0.391732872 0.262710273
v -0.591417611 0.295516849 0.257737696
v -0.642876029 0.295516878 0.257737696
v -0.642876029 0.292932212 0.259914219
v -0.591417611 0.292932212 0.259914219
v 0.59141767 0.295515954 0.257737666
v 0.59141767 0.292931318 0.259914249
v 0.642876029 0.292931288 0.259914249
v 0.642876029 0.295515925 0.257737666
v -0.646402001 -0.357858896 -2.82213563e-07
v -0.648602009 -0.35767141 0.00219972036
v -0.646402001 -0.355463445 0.00219102297
v 0.646401823 -0.357858896 -2.82213563e-07
v 0.646401823 -0.355463445 0.00219102297
v 0.64860183 -0.35767141 0.00219972036
v -0.642876029 0.238690972 0.257737637
v -0.642876029 0.240506306 0.259914219
v -0.645076036 0.240890965 0.257737637
v 0.642875969 0.238690004 0.257737637
v 0.645075977 0.240890011 0.257737637
v 0.642875969 0.240505368 0.259914219
v -0.646402001 -0.337106943 0.260510236
v -0.648602009 -0.339306951 0.260510236
v -0.646402001 -0.339306951 0.262710243
v 0.646401823 -0.337106943 0.260510236
v 0.646401823 -0.33930698 0.262710273
v 0.64860183 -0.33930698 0.260510236
v -0.642876029 0.304992229 1.16189725e-07
v -0.642876029 0.302213669 0.00216808403
v -0.645076036 0.304420084 0.00217669643
v 0.642876029 0.304991275 1.16189504e-07
v 0.645076036 0.30441913 0.00217669643
v 0.642876029 0.302212685 0.00216808403
v -0.646402001 -0.337106943 0.182819143
v -0.646402001 -0.337302387 0.178427845
v -0.648602009 -0.339511901 0.178419143
v -0.646402001 -0.337106943 0.182819143
v -0.648602009 -0.339306951 0.182819143
v -0.648602009 -0.339306951 0.260510236
v -0.646402001 -0.337106943 0.260510236
v 0.64860183 -0.339511901 0.178419143
v 0.646401823 -0.337302387 0.178427845
v 0.646401823 -0.337106943 0.182819128
v 0.646401823 -0.337106943 0.182819128
v 0.646401823 -0.337106943 0.260510236
v 0.64860183 -0.33930698 0.260510236
v 0.64860183 -0.339306951 0.182819128
v -0.648602009 -0.339511901 0.178419143
v -0.648602009 -0.339306951 0.182819143
v -0.646402001 -0.337106943 0.182819143
v 0.646401823 -0.337106943 0.182819128
v 0.64860183 -0.339306951 0.182819128
v 0.64860183 -0.339511901 0.178419143
v -0.646402001 -0.355463445 0.00219102297
v -0.648602009 -0.35767141 0.00219972036
v -0.648602009 -0.339511901 0.178419143
v -0.646402001 -0.337302387 0.178427845
v 0.646401823 -0.355463445 0.00219102297
v 0.646401823 -0.337302387 0.178427845
v 0.64860183 -0.339511901 0.178419143
v 0.64860183 -0.35767141 0.00219972036
v -0.642876029 0.25227499 0.180873498
v -0.642876029 0.238690972 0.257737637
v -0.645076036 0.240890965 0.257737637
v -0.645076036 0.254474968 0.180873498
v 0.642875969 0.252274036 0.180873498
v 0.645075977 0.254474014 0.180873498
v 0.645075977 0.240890011 0.257737637
v 0.642875969 0.238690004 0.257737637
v -0.645076036 0.255449235 0.176520318
v -0.642876029 0.253238201 0.17652896
v -0.642876029 0.25227499 0.180873498
v 0.642875969 0.252274036 0.180873498
v 0.642875969 0.253237277 0.176528946
v 0.645075977 0.255448312 0.176520318
v -0.642876029 0.25227499 0.180873498
v -0.645076036 0.254474968 0.180873498
v -0.645076036 0.255449235 0.176520318
v 0.645075977 0.255448312 0.176520318
v 0.645075977 0.254474014 0.180873498
v 0.642875969 0.252274036 0.180873498
v -0.642876029 0.302213669 0.00216808403
v -0.642876029 0.253238201 0.17652896
v -0.645076036 0.255449235 0.176520318
v -0.645076036 0.304420084 0.00217669643
v 0.642876029 0.302212685 0.00216808403
v 0.645076036 0.30441913 0.00217669643
v 0.645075977 0.255448312 0.176520318
v 0.645075977 0.255448312 0.176520318
v 0.642875969 0.253237277 0.176528946
v 0.642876029 0.302212685 0.00216808403
v -0.646402001 -0.357858896 -2.82213563e-07
v -0.61213702 -0.357858896 -2.82213563e-07
v -0.61213702 -0.391732872 -2.83694249e-07
v -0.646402001 -0.391732872 -2.83694249e-07
v 0.646401823 -0.357858896 -2.82213563e-07
v 0.646401823 -0.391732872 -2.83694249e-07
v 0.6121369 -0.391732872 -2.83694249e-07
v 0.6121369 -0.357858896 -2.82213563e-07
v -0.642876029 0.304992229 1.16189725e-07
v -0.642876029 0.338866204 1.2803514e-07
v -0.608611047 0.338866174 1.2803514e-07
v -0.608611047 0.304992199 1.16189717e-07
v 0.642876029 0.304991275 1.16189504e-07
v 0.608611047 0.304991305 1.16189511e-07
v 0.608611047 0.33886531 1.28034941e-07
v 0.642876029 0.33886525 1.28034927e-07
v -0.594943643 -0.339306951 0.262710243
v -0.646402001 -0.339306951 0.262710243
v -0.646402001 -0.391732872 0.262710243
v -0.594943643 -0.391732872 0.262710243
v 0.594943464 -0.33930698 0.262710273
v 0.594943464 -0.391732872 0.262710273
v 0.646401823 -0.391732872 0.262710273
v 0.646401823 -0.33930698 0.262710273
v -0.59141767 0.240506262 0.259914219
v -0.591417611 0.292932212 0.259914219
v -0.642876029 0.292932212 0.259914219
v -0.642876029 0.240506306 0.259914219
v 0.591417611 0.240505397 0.259914219
v 0.642875969 0.240505368 0.259914219
v 0.642876029 0.292931288 0.259914249
v 0.59141767 0.292931318 0.259914249
v -0.609728575 -0.391732872 0.00218981993
v -0.611937582 -0.393932879 0.00219971896
v -0.61213702 -0.391732872 -2.83694249e-07
v 0.609728396 -0.391732872 0.00218981993
v 0.6121369 -0.391732872 -2.83694249e-07
v 0.611937404 -0.393932849 0.00219971896
v -0.606202543 0.338483244 0.00216691406
v -0.608611047 0.338866174 1.2803514e-07
v -0.608411551 0.340681523 0.00217670901
v 0.606202602 0.33848238 0.00216691406
v 0.60841161 0.340680629 0.00217670901
v 0.608611047 0.33886531 1.28034941e-07
v -0.591417611 0.292932212 0.259914219
v -0.589217663 0.293316871 0.257737696
v -0.591417611 0.295516849 0.257737696
v 0.59141767 0.292931318 0.259914249
v 0.59141767 0.295515954 0.257737666
v 0.589217603 0.293315977 0.257737666
v -0.594943643 -0.391732872 0.262710243
v -0.594943643 -0.393932879 0.260510236
v -0.592743635 -0.391732872 0.260510236
v 0.594943464 -0.391732872 0.262710273
v 0.592743456 -0.391732872 0.260510236
v 0.594943464 -0.393932849 0.260510236
v -0.608412325 0.302213639 0.00216808403
v -0.642876029 0.302213669 0.00216808403
v -0.642876029 0.304992229 1.16189725e-07
v -0.608611047 0.304992199 1.16189717e-07
v 0.608412325 0.302212745 0.00216808403
v 0.608611047 0.304991305 1.16189511e-07
v 0.642876029 0.304991275 1.16189504e-07
v 0.642876029 0.302212685 0.00216808403
v -0.611938298 -0.355463445 0.00219102297
v -0.61213702 -0.357858896 -2.82213563e-07
v -0.646402001 -0.357858896 -2.82213563e-07
v -0.646402001 -0.355463445 0.00219102297
v 0.611938059 -0.355463445 0.00219102297
v 0.646401823 -0.355463445 0.00219102297
v 0.646401823 -0.357858896 -2.82213563e-07
v 0.6121369 -0.357858896 -2.82213563e-07
v -0.646402001 -0.337106943 0.260510236
v -0.646402001 -0.339306951 0.262710243
v -0.594943643 -0.339306951 0.262710243
v -0.594943643 -0.337106943 0.260510236
v 0.646401823 -0.337106943 0.260510236
v 0.594943464 -0.337106943 0.260510236
v 0.594943464 -0.33930698 0.262710273
v 0.646401823 -0.33930698 0.262710273
v -0.642876029 0.238690972 0.257737637
v -0.59141767 0.238690928 0.257737637
v -0.59141767 0.240506262 0.259914219
v -0.642876029 0.240506306 0.259914219
v 0.642875969 0.238690004 0.257737637
v 0.642875969 0.240505368 0.259914219
v 0.591417611 0.240505397 0.259914219
v 0.591417611 0.240505397 0.259914219
v 0.591417611 0.238690063 0.257737637
v 0.642875969 0.238690004 0.257737637
v -0.591417611 0.309100866 0.180873528
v -0.591417611 0.295516849 0.257737696
v -0.589217663 0.293316871 0.257737696
v -0.589217603 0.306900859 0.180873513
v 0.59141767 0.309100002 0.180873543
v 0.589217663 0.306899995 0.180873543
v 0.589217603 0.293315977 0.257737666
v 0.59141767 0.295515954 0.257737666
v -0.5894261 0.307668447 0.176530182
v -0.591637015 0.309870183 0.176520348
v -0.591417611 0.309100866 0.180873528
v 0.59141767 0.309100002 0.180873543
v 0.591637015 0.309869319 0.176520362
v 0.58942616 0.307667583 0.176530167
v -0.608411551 0.340681523 0.00217670901
v -0.591637015 0.309870183 0.176520348
v -0.5894261 0.307668447 0.176530182
v -0.606202543 0.338483244 0.00216691406
v 0.60841161 0.340680629 0.00217670901
v 0.606202602 0.33848238 0.00216691406
v 0.58942616 0.307667583 0.176530167
v 0.591637015 0.309869319 0.176520362
v -0.591417611 0.309100866 0.180873528
v -0.589217603 0.306900859 0.180873513
v -0.5894261 0.307668447 0.176530182
v 0.58942616 0.307667583 0.176530167
v 0.589217663 0.306899995 0.180873543
v 0.59141767 0.309100002 0.180873543
v -0.594943643 -0.393932879 0.182819128
v -0.595162988 -0.393932879 0.178419143
v -0.592952132 -0.391732872 0.178429037
v 0.592951894 -0.391732872 0.178429037
v 0.595162809 -0.393932849 0.178419143
v 0.594943464 -0.393932849 0.182819128
v -0.611937582 -0.393932879 0.00219971896
v -0.609728575 -0.391732872 0.00218981993
v -0.592952132 -0.391732872 0.178429037
v -0.595162988 -0.393932879 0.178419143
v -0.594943643 -0.393932879 0.182819128
v -0.592743635 -0.391732872 0.182819128
v -0.592743635 -0.391732872 0.260510236
v -0.594943643 -0.393932879 0.260510236
v 0.611937404 -0.393932849 0.00219971896
v 0.595162809 -0.393932849 0.178419143
v 0.592951894 -0.391732872 0.178429037
v 0.609728396 -0.391732872 0.00218981993
v 0.594943464 -0.393932849 0.182819128
v 0.594943464 -0.393932849 0.260510236
v 0.592743456 -0.391732872 0.260510236
v 0.592743456 -0.391732872 0.182819128
v -0.592952132 -0.391732872 0.178429037
v -0.592743635 -0.391732872 0.182819128
v -0.594943643 -0.393932879 0.182819128
v 0.594943464 -0.393932849 0.182819128
v 0.592743456 -0.391732872 0.182819128
v 0.592951894 -0.391732872 0.178429037
v -0.642876029 0.253238201 0.17652896
v -0.642876029 0.302213669 0.00216808403
v -0.608412325 0.302213639 0.00216808403
v -0.591636121 0.253238171 0.176528946
v -0.59141767 0.25227493 0.180873498
v -0.642876029 0.25227499 0.180873498
v -0.642876029 0.238690972 0.257737637
v -0.59141767 0.238690928 0.257737637
v 0.642875969 0.253237277 0.176528946
v 0.591636062 0.253237307 0.176528946
v 0.608412325 0.302212745 0.00216808403
v 0.642876029 0.302212685 0.00216808403
v 0.591417611 0.252274066 0.180873498
v 0.642875969 0.252274036 0.180873498
v 0.642875969 0.238690004 0.257737637
v 0.591417611 0.238690063 0.257737637
v -0.608611047 0.304992199 1.16189717e-07
v -0.608611047 0.338866174 1.2803514e-07
v -0.606202543 0.338483244 0.00216691406
v -0.606202543 0.304422587 0.00216690218
v 0.608611047 0.304991305 1.16189511e-07
v 0.606202602 0.304421693 0.00216690218
v 0.606202602 0.33848238 0.00216691406
v 0.608611047 0.33886531 1.28034941e-07
v -0.61213702 -0.357858896 -2.82213563e-07
v -0.609728575 -0.357672215 0.00218982133
v -0.609728575 -0.391732872 0.00218981993
v -0.61213702 -0.391732872 -2.83694249e-07
v 0.6121369 -0.357858896 -2.82213563e-07
v 0.6121369 -0.391732872 -2.83694249e-07
v 0.609728396 -0.391732872 0.00218981993
v 0.609728396 -0.357672215 0.00218982133
v -0.646402001 -0.337302387 0.178427845
v -0.595162094 -0.337302387 0.178427845
v -0.611938298 -0.355463445 0.00219102297
v -0.646402001 -0.355463445 0.00219102297
v -0.594943643 -0.337106943 0.182819143
v -0.646402001 -0.337106943 0.182819143
v -0.646402001 -0.337106943 0.260510236
v -0.594943643 -0.337106943 0.260510236
v 0.646401823 -0.337302387 0.178427845
v 0.646401823 -0.355463445 0.00219102297
v 0.611938059 -0.355463445 0.00219102297
v 0.595161855 -0.337302387 0.178427845
v 0.594943464 -0.337106943 0.182819128
v 0.646401823 -0.337106943 0.182819128
v 0.646401823 -0.337106943 0.260510236
v 0.594943464 -0.337106943 0.260510236
v -0.589217663 0.24089092 0.257737637
v -0.589217663 0.293316871 0.257737696
v -0.591417611 0.292932212 0.259914219
v -0.59141767 0.240506262 0.259914219
v 0.589217603 0.240890056 0.257737637
v 0.591417611 0.240505397 0.259914219
v 0.59141767 0.292931318 0.259914249
v 0.589217603 0.293315977 0.257737666
v -0.592743635 -0.339306951 0.260510236
v -0.594943643 -0.339306951 0.262710243
v -0.594943643 -0.391732872 0.262710243
v -0.592743635 -0.391732872 0.260510236
v 0.592743456 -0.33930698 0.260510236
v 0.592743456 -0.391732872 0.260510236
v 0.594943464 -0.391732872 0.262710273
v 0.594943464 -0.33930698 0.262710273
v -0.608412325 0.302213639 0.00216808403
v -0.608611047 0.304992199 1.16189717e-07
v -0.606202543 0.304422587 0.00216690218
v 0.608412325 0.302212745 0.00216808403
v 0.606202602 0.304421693 0.00216690218
v 0.608611047 0.304991305 1.16189511e-07
v -0.611938298 -0.355463445 0.00219102297
v -0.609728575 -0.357672215 0.00218982133
v -0.61213702 -0.357858896 -2.82213563e-07
v 0.611938059 -0.355463445 0.00219102297
v 0.6121369 -0.357858896 -2.82213563e-07
v 0.609728396 -0.357672215 0.00218982133
v -0.594943643 -0.339306951 0.262710243
v -0.592743635 -0.339306951 0.260510236
v -0.594943643 -0.337106943 0.260510236
v 0.594943464 -0.33930698 0.262710273
v 0.594943464 -0.337106943 0.260510236
v 0.592743456 -0.33930698 0.260510236
v -0.59141767 0.240506262 0.259914219
v -0.59141767 0.238690928 0.257737637
v -0.589217663 0.24089092 0.257737637
v 0.591417611 0.240505397 0.259914219
v 0.589217603 0.240890056 0.257737637
v 0.591417611 0.238690063 0.257737637
v -0.58942616 0.255446523 0.176530153
v -0.606202543 0.304422587 0.00216690218
v -0.606202543 0.338483244 0.00216691406
v -0.5894261 0.307668447 0.176530182
v -0.589217603 0.306900859 0.180873513
v -0.589217663 0.254474938 0.180873498
v -0.589217663 0.24089092 0.257737637
v -0.589217663 0.293316871 0.257737696
v 0.5894261 0.255445659 0.176530123
v 0.58942616 0.307667583 0.176530167
v 0.606202602 0.33848238 0.00216691406
v 0.606202602 0.304421693 0.00216690218
v 0.589217663 0.306899995 0.180873543
v 0.589217603 0.254474074 0.180873498
v 0.589217603 0.240890056 0.257737637
v 0.589217603 0.293315977 0.257737666
v -0.592952132 -0.339510918 0.178429037
v -0.592952132 -0.391732872 0.178429037
v -0.609728575 -0.391732872 0.00218981993
v -0.609728575 -0.357672215 0.00218982133
v -0.592743635 -0.391732872 0.182819128
v -0.592743635 -0.339306951 0.182819143
v -0.592743635 -0.339306951 0.260510236
v -0.592743635 -0.391732872 0.260510236
v 0.592951894 -0.339510947 0.178429052
v 0.609728396 -0.357672215 0.00218982133
v 0.609728396 -0.391732872 0.00218981993
v 0.592951894 -0.391732872 0.178429037
v 0.592743456 -0.391732872 0.182819128
v 0.592743456 -0.339306951 0.182819128
v 0.592743456 -0.33930698 0.260510236
v 0.592743456 -0.391732872 0.260510236
v -0.591636121 0.253238171 0.176528946
v -0.608412325 0.302213639 0.00216808403
v -0.606202543 0.304422587 0.00216690218
v -0.58942616 0.255446523 0.176530153
v 0.591636062 0.253237307 0.176528946
v 0.5894261 0.255445659 0.176530123
v 0.606202602 0.304421693 0.00216690218
v 0.608412325 0.302212745 0.00216808403
v -0.591636121 0.253238171 0.176528946
v -0.58942616 0.255446523 0.176530153
v -0.589217663 0.254474938 0.180873498
v -0.589217663 0.254474938 0.180873498
v -0.59141767 0.25227493 0.180873498
v -0.591636121 0.253238171 0.176528946
v 0.591636062 0.253237307 0.176528946
v 0.591417611 0.252274066 0.180873498
v 0.589217603 0.254474074 0.180873498
v 0.589217603 0.254474074 0.180873498
v 0.5894261 0.255445659 0.176530123
v 0.591636062 0.253237307 0.176528946
v -0.59141767 0.238690928 0.257737637
v -0.59141767 0.25227493 0.180873498
v -0.589217663 0.254474938 0.180873498
v -0.589217663 0.24089092 0.257737637
v 0.591417611 0.238690063 0.257737637
v 0.589217603 0.240890056 0.257737637
v 0.589217603 0.254474074 0.180873498
v 0.591417611 0.252274066 0.180873498
v -0.595162094 -0.337302387 0.178427845
v -0.592952132 -0.339510918 0.178429037
v -0.609728575 -0.357672215 0.00218982133
v -0.611938298 -0.355463445 0.00219102297
v 0.595161855 -0.337302387 0.178427845
v 0.611938059 -0.355463445 0.00219102297
v 0.609728396 -0.357672215 0.00218982133
v 0.592951894 -0.339510947 0.178429052
v -0.594943643 -0.337106943 0.260510236
v -0.592743635 -0.339306951 0.260510236
v -0.592743635 -0.339306951 0.182819143
v -0.594943643 -0.337106943 0.182819143
v 0.594943464 -0.337106943 0.260510236
v 0.594943464 -0.337106943 0.182819128
v 0.592743456 -0.339306951 0.182819128
v 0.592743456 -0.33930698 0.260510236
v -0.595162094 -0.337302387 0.178427845
v -0.594943643 -0.337106943 0.182819143
v -0.592743635 -0.339306951 0.182819143
v -0.592743635 -0.339306951 0.182819143
v -0.592952132 -0.339510918 0.178429037
v -0.595162094 -0.337302387 0.178427845
v 0.595161855 -0.337302387 0.178427845
v 0.592951894 -0.339510947 0.178429052
v 0.592743456 -0.339306951 0.182819128
v 0.592743456 -0.339306951 0.182819128
v 0.594943464 -0.337106943 0.182819128
v 0.595161855 -0.337302387 0.178427845
vt 0.435677052 0.382339597
vt 0.435677052 0.371339619
vt 0.430177033 0.371339619
vt 0.430177033 0.382339597
vt 0.435677052 0.177111864
vt 0.430177063 0.177111864
vt 0.571032405 0.382339597
vt 0.565532386 0.382339597
vt 0.565532327 0.822888136
vt 0.571032345 0.822888136
vt 0.435677052 0.382339597
vt 0.430177033 0.382339597
vt 0.430177033 0.371339619
vt 0.435677052 0.371339619
vt 0.435677052 0.177111864
vt 0.430177063 0.177111864
vt 0.571032405 0.382339597
vt 0.571032345 0.822888136
vt 0.565532327 0.822888136
vt 0.565532386 0.382339597
vt 0.564664841 0.841306806
vt 0.564662695 0.835780978
vt 0.570079148 0.836736083
vt 0.430176973 0.835780978
vt 0.430177033 0.382116199
vt 0.435677052 0.383071244
vt 0.435676962 0.836736083
vt 0.435677052 0.187933207
vt 0.430177063 0.186978102
vt 0.564664841 0.841306806
vt 0.570079148 0.836736083
vt 0.564662695 0.835780978
vt 0.435677022 0.394122839
vt 0.435677052 0.383071244
vt 0.430177033 0.382116199
vt 0.430177033 0.382116199
vt 0.430177033 0.393167794
vt 0.435677022 0.394122839
vt 0.430176973 0.835780978
vt 0.435676962 0.836736083
vt 0.435677052 0.383071244
vt 0.435677052 0.187933207
vt 0.430177063 0.186978102
vt 0.565532327 0.828388214
vt 0.571032345 0.822888136
vt 0.565532327 0.822888136
vt 0.565532327 0.828388214
vt 0.565532327 0.822888136
vt 0.571032345 0.822888136
vt 0.434467554 0.371339619
vt 0.565532386 0.371339619
vt 0.565532386 0.177111864
vt 0.434467554 0.177111864
vt 0.565532386 0.382339597
vt 0.434979916 0.382339597
vt 0.480378687 0.822888136
vt 0.565532327 0.822888136
vt 0.434467554 0.371339619
vt 0.434467554 0.177111864
vt 0.565532386 0.177111864
vt 0.565532386 0.371339619
vt 0.565532386 0.382339597
vt 0.434979916 0.382339597
vt 0.480378687 0.822888136
vt 0.565532327 0.822888136
vt 0.435413003 0.359356999
vt 0.435337305 0.164218962
vt 0.564410925 0.186978102
vt 0.564486623 0.382116199
vt 0.435921848 0.370497584
vt 0.480802715 0.820994258
vt 0.564662695 0.835780978
vt 0.435413003 0.359356999
vt 0.564486623 0.382116199
vt 0.564410925 0.186978102
vt 0.435337305 0.164218962
vt 0.564490974 0.393167794
vt 0.435921848 0.370497584
vt 0.480802715 0.820994258
vt 0.564662695 0.835780978
vt 0.430177063 0.177111864
vt 0.435677052 0.177111864
vt 0.435677052 0.171611786
vt 0.430177063 0.177111864
vt 0.435677052 0.171611786
vt 0.435677052 0.177111864
vt 0.430177063 0.186978102
vt 0.435677052 0.181452334
vt 0.435677052 0.187933207
vt 0.430177063 0.186978102
vt 0.435677052 0.187933207
vt 0.435677052 0.181452334
vt 0.565532327 0.828388214
vt 0.565532327 0.822888136
vt 0.480378687 0.822888136
vt 0.480847418 0.828388214
vt 0.565532327 0.828388214
vt 0.480847418 0.828388214
vt 0.480378687 0.822888136
vt 0.565532327 0.822888136
vt 0.564664841 0.841306806
vt 0.481266439 0.826601386
vt 0.480802715 0.820994258
vt 0.564662695 0.835780978
vt 0.564664841 0.841306806
vt 0.564662695 0.835780978
vt 0.480802715 0.820994258
vt 0.481266439 0.826601386
vt 0.434467554 0.171611786
vt 0.434467554 0.177111864
vt 0.565532386 0.177111864
vt 0.565532386 0.171611786
vt 0.434467554 0.171611786
vt 0.565532386 0.171611786
vt 0.565532386 0.177111864
vt 0.434467554 0.177111864
vt 0.435335159 0.158693194
vt 0.564408779 0.181452334
vt 0.564410925 0.186978102
vt 0.435337305 0.164218962
vt 0.435335159 0.158693194
vt 0.435337305 0.164218962
vt 0.564410925 0.186978102
vt 0.564408779 0.181452334
vt 0.564323068 0.570079148
vt 0.478161931 0.570079148
vt 0.478660583 0.564664841
vt 0.564323068 0.564664841
vt 0.564323068 0.570079148
vt 0.564323068 0.564664841
vt 0.478660583 0.564664841
vt 0.478161931 0.570079148
vt 0.435676962 0.822888136
vt 0.435676962 0.828388214
vt 0.521339417 0.828388214
vt 0.521838069 0.822888136
vt 0.435676962 0.822888136
vt 0.521838069 0.822888136
vt 0.521339417 0.828388214
vt 0.435676962 0.828388214
vt 0.521838069 0.822888136
vt 0.563774586 0.382339597
vt 0.435677052 0.382339597
vt 0.435676962 0.822888136
vt 0.435677052 0.371339619
vt 0.564323008 0.371339619
vt 0.564323008 0.177111864
vt 0.435677052 0.177111864
vt 0.521838069 0.822888136
vt 0.435676962 0.822888136
vt 0.435677052 0.382339597
vt 0.563774586 0.382339597
vt 0.435677052 0.371339619
vt 0.564323008 0.371339619
vt 0.564323008 0.177111864
vt 0.435677052 0.177111864
vt 0.521838069 0.836736083
vt 0.435676962 0.836736083
vt 0.435677052 0.383071244
vt 0.563774586 0.394122839
vt 0.564323008 0.383071303
vt 0.564323008 0.187933207
vt 0.435677052 0.187933207
vt 0.521838069 0.836736083
vt 0.563774586 0.394122839
vt 0.435677022 0.394122839
vt 0.435676962 0.836736083
vt 0.435677052 0.383071244
vt 0.564323008 0.383071303
vt 0.564323008 0.187933207
vt 0.435677052 0.187933207
vt 0.564323008 0.177111864
vt 0.564323008 0.171611786
vt 0.435677052 0.171611786
vt 0.435677052 0.177111864
vt 0.564323008 0.177111864
vt 0.435677052 0.177111864
vt 0.435677052 0.171611786
vt 0.564323008 0.171611786
vt 0.564323008 0.187933207
vt 0.435677052 0.187933207
vt 0.435677052 0.181452334
vt 0.564323008 0.181452334
vt 0.564323008 0.187933207
vt 0.564323008 0.181452334
vt 0.435677052 0.181452334
vt 0.435677052 0.187933207
vt 0.564323008 0.480847418
vt 0.569823027 0.480378687
vt 0.564323008 0.47485882
vt 0.564323008 0.480847418
vt 0.564323008 0.47485882
vt 0.569823027 0.480378687
vt 0.429920852 0.163263917
vt 0.435335159 0.158693194
vt 0.435337305 0.164218962
vt 0.429920852 0.163263917
vt 0.435337305 0.164218962
vt 0.435335159 0.158693194
vt 0.564322948 0.177111864
vt 0.569822907 0.177111864
vt 0.564322948 0.171611786
vt 0.564322948 0.177111864
vt 0.564322948 0.171611786
vt 0.569822907 0.177111864
vt 0.564323008 0.826601386
vt 0.564323008 0.820057571
vt 0.569823027 0.820994258
vt 0.564323008 0.826601386
vt 0.569823027 0.820994258
vt 0.564323008 0.820057571
vt 0.428967535 0.371339619
vt 0.429456174 0.382317841
vt 0.434979916 0.382339597
vt 0.564322948 0.371339619
vt 0.569822967 0.371339619
vt 0.569822907 0.177111864
vt 0.564322948 0.177111864
vt 0.434979916 0.382339597
vt 0.429456174 0.382317841
vt 0.428967535 0.371339619
vt 0.564322948 0.371339619
vt 0.564322948 0.177111864
vt 0.569822907 0.177111864
vt 0.569822967 0.371339619
vt 0.434979916 0.382339597
vt 0.434467554 0.371339619
vt 0.428967535 0.371339619
vt 0.428967535 0.371339619
vt 0.434467554 0.371339619
vt 0.434979916 0.382339597
vt 0.47485882 0.822909951
vt 0.480378687 0.822888136
vt 0.434979916 0.382339597
vt 0.429456174 0.382317841
vt 0.47485882 0.822909951
vt 0.429456174 0.382317841
vt 0.434979916 0.382339597
vt 0.480378687 0.822888136
vt 0.564322948 0.358401954
vt 0.564322948 0.163263917
vt 0.569822907 0.164218962
vt 0.569822967 0.359356999
vt 0.564322948 0.358401954
vt 0.569822967 0.359356999
vt 0.569822907 0.164218962
vt 0.564322948 0.163263917
vt 0.569822967 0.370497584
vt 0.564322948 0.369516492
vt 0.564322948 0.358401954
vt 0.564322948 0.358401954
vt 0.564322948 0.369516492
vt 0.569822967 0.370497584
vt 0.564322948 0.358401954
vt 0.569822967 0.359356999
vt 0.569822967 0.370497584
vt 0.569822967 0.370497584
vt 0.569822967 0.359356999
vt 0.564322948 0.358401954
vt 0.564323008 0.820057571
vt 0.564322948 0.369516492
vt 0.569822967 0.370497584
vt 0.569823027 0.820994258
vt 0.564323008 0.820057571
vt 0.569823027 0.820994258
vt 0.569822967 0.370497584
vt 0.569822967 0.370497584
vt 0.564322948 0.369516492
vt 0.564323008 0.820057571
vt 0.564323008 0.480847418
vt 0.478660583 0.480847418
vt 0.478660583 0.565532386
vt 0.564323068 0.565532327
vt 0.564323008 0.480847418
vt 0.564323068 0.565532327
vt 0.478660583 0.565532386
vt 0.478660583 0.480847418
vt 0.564323008 0.481266439
vt 0.564323068 0.564664841
vt 0.478660583 0.564664841
vt 0.478660583 0.481266439
vt 0.564323008 0.481266439
vt 0.478660583 0.481266439
vt 0.478660583 0.564664841
vt 0.564323068 0.564664841
vt 0.564323068 0.434467554
vt 0.435677081 0.434467554
vt 0.435677052 0.565532386
vt 0.564323008 0.565532386
vt 0.564323068 0.434467554
vt 0.564323008 0.565532386
vt 0.435677052 0.565532386
vt 0.435677081 0.434467554
vt 0.564323068 0.435335159
vt 0.564323008 0.564408779
vt 0.435677052 0.564408779
vt 0.435677081 0.435335159
vt 0.564323068 0.435335159
vt 0.435677081 0.435335159
vt 0.435677052 0.564408779
vt 0.564323008 0.564408779
vt 0.472639382 0.565532327
vt 0.478161931 0.571032345
vt 0.478660583 0.565532386
vt 0.472639382 0.565532327
vt 0.478660583 0.565532386
vt 0.478161931 0.571032345
vt 0.472639382 0.564662695
vt 0.478660583 0.564664841
vt 0.478161931 0.570079148
vt 0.472639382 0.564662695
vt 0.478161931 0.570079148
vt 0.478660583 0.564664841
vt 0.564323008 0.181452334
vt 0.569823027 0.186978102
vt 0.564323008 0.187933207
vt 0.564323008 0.181452334
vt 0.564323008 0.187933207
vt 0.569823027 0.186978102
vt 0.564323008 0.171611786
vt 0.564323008 0.177111864
vt 0.569823027 0.177111864
vt 0.564323008 0.171611786
vt 0.569823027 0.177111864
vt 0.564323008 0.177111864
vt 0.478163779 0.820057571
vt 0.564323008 0.820057571
vt 0.564323008 0.826601386
vt 0.478660583 0.826601386
vt 0.478163779 0.820057571
vt 0.478660583 0.826601386
vt 0.564323008 0.826601386
vt 0.564323008 0.820057571
vt 0.478163779 0.47485882
vt 0.478660583 0.480847418
vt 0.564323008 0.480847418
vt 0.564323008 0.47485882
vt 0.478163779 0.47485882
vt 0.564323008 0.47485882
vt 0.564323008 0.480847418
vt 0.478660583 0.480847418
vt 0.564322948 0.177111864
vt 0.564322948 0.171611786
vt 0.435676932 0.171611786
vt 0.435676932 0.177111864
vt 0.564322948 0.177111864
vt 0.435676932 0.177111864
vt 0.435676932 0.171611786
vt 0.564322948 0.171611786
vt 0.435677081 0.429920852
vt 0.564323068 0.429920852
vt 0.564323068 0.435335159
vt 0.435677081 0.435335159
vt 0.435677081 0.429920852
vt 0.435677081 0.435335159
vt 0.564323068 0.435335159
vt 0.564323068 0.435335159
vt 0.564323068 0.429920852
vt 0.435677081 0.429920852
vt 0.564323008 0.383071303
vt 0.564323008 0.187933207
vt 0.569823027 0.186978102
vt 0.569822967 0.382116199
vt 0.564323008 0.383071303
vt 0.569822967 0.382116199
vt 0.569823027 0.186978102
vt 0.564323008 0.187933207
vt 0.569301784 0.393142879
vt 0.563774586 0.394122839
vt 0.564323008 0.383071303
vt 0.564323008 0.383071303
vt 0.563774586 0.394122839
vt 0.569301784 0.393142879
vt 0.521838069 0.836736083
vt 0.563774586 0.394122839
vt 0.569301784 0.393142879
vt 0.527360618 0.835805893
vt 0.521838069 0.836736083
vt 0.527360618 0.835805893
vt 0.569301784 0.393142879
vt 0.563774586 0.394122839
vt 0.564323008 0.383071303
vt 0.569822967 0.382116199
vt 0.569301784 0.393142879
vt 0.569301784 0.393142879
vt 0.569822967 0.382116199
vt 0.564323008 0.383071303
vt 0.564323008 0.371339619
vt 0.563774586 0.382339597
vt 0.569301784 0.382314861
vt 0.569301784 0.382314861
vt 0.563774586 0.382339597
vt 0.564323008 0.371339619
vt 0.521838069 0.822888136
vt 0.527360618 0.822912931
vt 0.569301784 0.382314861
vt 0.563774586 0.382339597
vt 0.564323008 0.371339619
vt 0.569823027 0.371339619
vt 0.569823027 0.177111864
vt 0.564323008 0.177111864
vt 0.521838069 0.822888136
vt 0.563774586 0.382339597
vt 0.569301784 0.382314861
vt 0.527360618 0.822912931
vt 0.564323008 0.371339619
vt 0.564323008 0.177111864
vt 0.569823027 0.177111864
vt 0.569823027 0.371339619
vt 0.569301784 0.382314861
vt 0.569823027 0.371339619
vt 0.564323008 0.371339619
vt 0.564323008 0.371339619
vt 0.569823027 0.371339619
vt 0.569301784 0.382314861
vt 0.564322948 0.369516492
vt 0.564323008 0.820057571
vt 0.478163779 0.820057571
vt 0.436223149 0.369516551
vt 0.435676992 0.358402014
vt 0.564322948 0.358401954
vt 0.564322948 0.163263917
vt 0.435676932 0.163263917
vt 0.564322948 0.369516492
vt 0.436223149 0.369516551
vt 0.478163779 0.820057571
vt 0.564323008 0.820057571
vt 0.435676992 0.358402014
vt 0.564322948 0.358401954
vt 0.564322948 0.163263917
vt 0.435676932 0.163263917
vt 0.478660583 0.481266439
vt 0.478660583 0.564664841
vt 0.472639382 0.564662695
vt 0.472639382 0.480804741
vt 0.478660583 0.481266439
vt 0.472639382 0.480804741
vt 0.472639382 0.564662695
vt 0.478660583 0.564664841
vt 0.478660583 0.480847418
vt 0.472639382 0.480380714
vt 0.472639382 0.565532327
vt 0.478660583 0.565532386
vt 0.478660583 0.480847418
vt 0.478660583 0.565532386
vt 0.472639382 0.565532327
vt 0.472639382 0.480380714
vt 0.564322948 0.382317841
vt 0.436223149 0.382317841
vt 0.478163779 0.822909951
vt 0.564323008 0.822909951
vt 0.435676992 0.371339619
vt 0.564322948 0.371339619
vt 0.564322948 0.177111864
vt 0.435676932 0.177111864
vt 0.564322948 0.382317841
vt 0.564323008 0.822909951
vt 0.478163779 0.822909951
vt 0.436223149 0.382317841
vt 0.435676992 0.371339619
vt 0.564322948 0.371339619
vt 0.564322948 0.177111864
vt 0.435676932 0.177111864
vt 0.564662695 0.164218962
vt 0.435589045 0.186978102
vt 0.435591191 0.181452334
vt 0.564664841 0.158693194
vt 0.564662695 0.164218962
vt 0.564664841 0.158693194
vt 0.435591191 0.181452334
vt 0.435589045 0.186978102
vt 0.565532446 0.177111864
vt 0.565532446 0.171611786
vt 0.434467614 0.171611786
vt 0.434467614 0.177111864
vt 0.565532446 0.177111864
vt 0.434467614 0.177111864
vt 0.434467614 0.171611786
vt 0.565532446 0.171611786
vt 0.478163779 0.820057571
vt 0.478660583 0.826601386
vt 0.472639382 0.821019411
vt 0.478163779 0.820057571
vt 0.472639382 0.821019411
vt 0.478660583 0.826601386
vt 0.478163779 0.47485882
vt 0.472639382 0.480380714
vt 0.478660583 0.480847418
vt 0.478163779 0.47485882
vt 0.478660583 0.480847418
vt 0.472639382 0.480380714
vt 0.565532446 0.171611786
vt 0.565532446 0.177111864
vt 0.571032405 0.177111864
vt 0.565532446 0.171611786
vt 0.571032405 0.177111864
vt 0.565532446 0.177111864
vt 0.564664841 0.158693194
vt 0.570079148 0.163263917
vt 0.564662695 0.164218962
vt 0.564664841 0.158693194
vt 0.564662695 0.164218962
vt 0.570079148 0.163263917
vt 0.564080477 0.370472252
vt 0.519195259 0.821019411
vt 0.435337305 0.835805893
vt 0.435509056 0.393142879
vt 0.435513318 0.382116199
vt 0.564586997 0.359357059
vt 0.564662695 0.164218962
vt 0.435589045 0.186978102
vt 0.564080477 0.370472252
vt 0.435509056 0.393142879
vt 0.435337305 0.835805893
vt 0.519195259 0.821019411
vt 0.435513318 0.382116199
vt 0.564586997 0.359357059
vt 0.564662695 0.164218962
vt 0.435589045 0.186978102
vt 0.565022469 0.382314861
vt 0.434467614 0.382314861
vt 0.434467643 0.822912931
vt 0.519619286 0.822912931
vt 0.434467614 0.371339619
vt 0.565532446 0.371339619
vt 0.565532446 0.177111864
vt 0.434467614 0.177111864
vt 0.565022469 0.382314861
vt 0.519619286 0.822912931
vt 0.434467643 0.822912931
vt 0.434467614 0.382314861
vt 0.434467614 0.371339619
vt 0.565532446 0.371339619
vt 0.565532446 0.177111864
vt 0.434467614 0.177111864
vt 0.436223149 0.369516551
vt 0.478163779 0.820057571
vt 0.472639382 0.821019411
vt 0.430698216 0.370472252
vt 0.436223149 0.369516551
vt 0.430698216 0.370472252
vt 0.472639382 0.821019411
vt 0.478163779 0.820057571
vt 0.436223149 0.369516551
vt 0.430698216 0.370472252
vt 0.430176973 0.359357059
vt 0.430176973 0.359357059
vt 0.435676992 0.358402014
vt 0.436223149 0.369516551
vt 0.436223149 0.369516551
vt 0.435676992 0.358402014
vt 0.430176973 0.359357059
vt 0.430176973 0.359357059
vt 0.430698216 0.370472252
vt 0.436223149 0.369516551
vt 0.435676932 0.163263917
vt 0.435676992 0.358402014
vt 0.430176973 0.359357059
vt 0.430176973 0.164218962
vt 0.435676932 0.163263917
vt 0.430176973 0.164218962
vt 0.430176973 0.359357059
vt 0.435676992 0.358402014
vt 0.436223149 0.382317841
vt 0.430698216 0.382314861
vt 0.472639382 0.822912931
vt 0.478163779 0.822909951
vt 0.436223149 0.382317841
vt 0.478163779 0.822909951
vt 0.472639382 0.822912931
vt 0.430698216 0.382314861
vt 0.571032405 0.177111864
vt 0.565532446 0.177111864
vt 0.565532446 0.371339619
vt 0.571032405 0.371339619
vt 0.571032405 0.177111864
vt 0.571032405 0.371339619
vt 0.565532446 0.371339619
vt 0.565532446 0.177111864
vt 0.436223149 0.382317841
vt 0.435676992 0.371339619
vt 0.430176973 0.371339619
vt 0.430176973 0.371339619
vt 0.430698216 0.382314861
vt 0.436223149 0.382317841
vt 0.436223149 0.382317841
vt 0.430698216 0.382314861
vt 0.430176973 0.371339619
vt 0.430176973 0.371339619
vt 0.435676992 0.371339619
vt 0.436223149 0.382317841
f 1/1 2/2 3/3
f 3/3 4/4 1/1
f 3/3 2/2 5/5
f 5/5 6/6 3/3
f 7/7 8/8 9/9
f 9/9 10/10 7/7
f 11/11 12/12 13/13
f 13/13 14/14 11/11
f 15/15 14/14 13/13
f 13/13 16/16 15/15
f 17/17 18/18 19/19
f 19/19 20/20 17/17
f 21/21 22/22 23/23
f 24/24 25/25 26/26
f 26/26 27/27 24/24
f 28/28 26/26 25/25
f 25/25 29/29 28/28
f 30/30 31/31 32/32
f 33/33 34/34 35/35
f 36/36 37/37 38/38
f 38/38 37/37 39/39
f 39/39 40/40 38/38
f 36/36 41/41 42/42
f 42/42 43/43 36/36
f 44/44 45/45 46/46
f 47/47 48/48 49/49
f 50/50 51/51 52/52
f 52/52 53/53 50/50
f 54/54 51/51 50/50
f 50/50 55/55 54/54
f 54/54 55/55 56/56
f 56/56 57/57 54/54
f 58/58 59/59 60/60
f 60/60 61/61 58/58
f 58/58 61/61 62/62
f 62/62 63/63 58/58
f 64/64 63/63 62/62
f 62/62 65/65 64/64
f 66/66 67/67 68/68
f 68/68 69/69 66/66
f 69/69 70/70 66/66
f 71/71 70/70 69/69
f 69/69 72/72 71/71
f 73/73 74/74 75/75
f 75/75 76/76 73/73
f 77/77 74/74 73/73
f 73/73 78/78 77/77
f 77/77 78/78 79/79
f 79/79 80/80 77/77
f 81/81 82/82 83/83
f 84/84 85/85 86/86
f 87/87 88/88 89/89
f 90/90 91/91 92/92
f 93/93 94/94 95/95
f 95/95 96/96 93/93
f 97/97 98/98 99/99
f 99/99 100/100 97/97
f 101/101 102/102 103/103
f 103/103 104/104 101/101
f 105/105 106/106 107/107
f 107/107 108/108 105/105
f 109/109 110/110 111/111
f 111/111 112/112 109/109
f 113/113 114/114 115/115
f 115/115 116/116 113/113
f 117/117 118/118 119/119
f 119/119 120/120 117/117
f 121/121 122/122 123/123
f 123/123 124/124 121/121
f 125/125 126/126 127/127
f 127/127 128/128 125/125
f 129/129 130/130 131/131
f 131/131 132/132 129/129
f 133/133 134/134 135/135
f 135/135 136/136 133/133
f 137/137 138/138 139/139
f 139/139 140/140 137/137
f 141/141 142/142 143/143
f 143/143 144/144 141/141
f 145/145 143/143 142/142
f 142/142 146/146 145/145
f 145/145 146/146 147/147
f 147/147 148/148 145/145
f 149/149 150/150 151/151
f 151/151 152/152 149/149
f 152/152 151/151 153/153
f 153/153 154/154 152/152
f 155/155 154/154 153/153
f 153/153 156/156 155/155
f 157/157 158/158 159/159
f 159/159 160/160 157/157
f 159/159 161/161 160/160
f 162/162 161/161 159/159
f 159/159 163/163 162/162
f 164/164 165/165 166/166
f 166/166 167/167 164/164
f 168/168 166/166 165/165
f 165/165 169/169 168/168
f 168/168 169/169 170/170
f 170/170 171/171 168/168
f 172/172 173/173 174/174
f 174/174 175/175 172/172
f 176/176 177/177 178/178
f 178/178 179/179 176/176
f 180/180 181/181 182/182
f 182/182 183/183 180/180
f 184/184 185/185 186/186
f 186/186 187/187 184/184
f 188/188 189/189 190/190
f 191/191 192/192 193/193
f 194/194 195/195 196/196
f 197/197 198/198 199/199
f 200/200 201/201 202/202
f 203/203 204/204 205/205
f 206/206 207/207 208/208
f 209/209 210/210 211/211
f 212/212 213/213 214/214
f 215/215 216/216 217/217
f 217/217 218/218 215/215
f 219/219 220/220 221/221
f 222/222 223/223 224/224
f 224/224 225/225 222/222
f 226/226 227/227 228/228
f 229/229 230/230 231/231
f 232/232 233/233 234/234
f 234/234 235/235 232/232
f 236/236 237/237 238/238
f 238/238 239/239 236/236
f 240/240 241/241 242/242
f 242/242 243/243 240/240
f 244/244 245/245 246/246
f 246/246 247/247 244/244
f 248/248 249/249 250/250
f 251/251 252/252 253/253
f 254/254 255/255 256/256
f 257/257 258/258 259/259
f 260/260 261/261 262/262
f 262/262 263/263 260/260
f 264/264 265/265 266/266
f 267/267 268/268 269/269
f 270/270 271/271 272/272
f 272/272 273/273 270/270
f 274/274 275/275 276/276
f 276/276 277/277 274/274
f 278/278 279/279 280/280
f 280/280 281/281 278/278
f 282/282 283/283 284/284
f 284/284 285/285 282/282
f 286/286 287/287 288/288
f 288/288 289/289 286/286
f 290/290 291/291 292/292
f 292/292 293/293 290/290
f 294/294 295/295 296/296
f 296/296 297/297 294/294
f 298/298 299/299 300/300
f 300/300 301/301 298/298
f 302/302 303/303 304/304
f 305/305 306/306 307/307
f 308/308 309/309 310/310
f 311/311 312/312 313/313
f 314/314 315/315 316/316
f 317/317 318/318 319/319
f 320/320 321/321 322/322
f 323/323 324/324 325/325
f 326/326 327/327 328/328
f 328/328 329/329 326/326
f 330/330 331/331 332/332
f 332/332 333/333 330/330
f 334/334 335/335 336/336
f 336/336 337/337 334/334
f 338/338 339/339 340/340
f 340/340 341/341 338/338
f 342/342 343/343 344/344
f 344/344 345/345 342/342
f 346/346 347/347 348/348
f 348/348 349/349 346/346
f 350/350 351/351 352/352
f 352/352 353/353 350/350
f 354/354 355/355 356/356
f 357/357 358/358 359/359
f 360/360 361/361 362/362
f 362/362 363/363 360/360
f 364/364 365/365 366/366
f 366/366 367/367 364/364
f 368/368 369/369 370/370
f 371/371 372/372 373/373
f 374/374 375/375 376/376
f 376/376 377/377 374/374
f 378/378 379/379 380/380
f 380/380 381/381 378/378
f 382/382 383/383 384/384
f 385/385 386/386 387/387
f 388/388 389/389 390/390
f 391/391 392/392 393/393
f 394/394 395/395 396/396
f 396/396 397/397 394/394
f 398/398 399/399 400/400
f 400/400 401/401 398/398
f 402/402 403/403 404/404
f 404/404 405/405 402/402
f 406/406 407/407 408/408
f 408/408 409/409 406/406
f 410/410 411/411 412/412
f 413/413 414/414 415/415
f 416/416 417/417 418/418
f 418/418 419/419 416/416
f 416/416 419/419 420/420
f 420/420 421/421 416/416
f 422/422 421/421 420/420
f 420/420 423/423 422/422
f 424/424 425/425 426/426
f 426/426 427/427 424/424
f 428/428 425/425 424/424
f 424/424 429/429 428/428
f 428/428 429/429 430/430
f 430/430 431/431 428/428
f 432/432 433/433 434/434
f 434/434 435/435 432/432
f 436/436 437/437 438/438
f 438/438 439/439 436/436
f 440/440 441/441 442/442
f 442/442 443/443 440/440
f 444/444 445/445 446/446
f 446/446 447/447 444/444
f 448/448 449/449 450/450
f 450/450 451/451 448/448
f 452/452 449/449 448/448
f 448/448 453/453 452/452
f 452/452 453/453 454/454
f 454/454 455/455 452/452
f 456/456 457/457 458/458
f 458/458 459/459 456/456
f 456/456 459/459 460/460
f 460/460 461/461 456/456
f 462/462 461/461 460/460
f 460/460 463/463 462/462
f 464/464 465/465 466/466
f 466/466 467/467 464/464
f 468/468 469/469 470/470
f 470/470 471/471 468/468
f 472/472 473/473 474/474
f 474/474 475/475 472/472
f 476/476 477/477 478/478
f 478/478 479/479 476/476
f 480/480 481/481 482/482
f 483/483 484/484 485/485
f 486/486 487/487 488/488
f 489/489 490/490 491/491
f 492/492 493/493 494/494
f 495/495 496/496 497/497
f 498/498 499/499 500/500
f 501/501 502/502 503/503
f 504/504 505/505 506/506
f 506/506 507/507 504/504
f 504/504 507/507 508/508
f 508/508 509/509 504/504
f 510/510 509/509 508/508
f 508/508 511/511 510/510
f 512/512 513/513 514/514
f 514/514 515/515 512/512
f 516/516 513/513 512/512
f 512/512 517/517 516/516
f 516/516 517/517 518/518
f 518/518 519/519 516/516
f 520/520 521/521 522/522
f 522/522 523/523 520/520
f 524/524 521/521 520/520
f 520/520 525/525 524/524
f 524/524 525/525 526/526
f 526/526 527/527 524/524
f 528/528 529/529 530/530
f 530/530 531/531 528/528
f 528/528 531/531 532/532
f 532/532 533/533 528/528
f 534/534 533/533 532/532
f 532/532 535/535 534/534
f 536/536 537/537 538/538
f 538/538 539/539 536/536
f 540/540 541/541 542/542
f 542/542 543/543 540/540
f 544/544 545/545 546/546
f 547/547 548/548 549/549
f 550/550 551/551 552/552
f 553/553 554/554 555/555
f 556/556 557/557 558/558
f 558/558 559/559 556/556
f 560/560 561/561 562/562
f 562/562 563/563 560/560
f 564/564 565/565 566/566
f 566/566 567/567 564/564
f 568/568 569/569 570/570
f 570/570 571/571 568/568
f 572/572 573/573 574/574
f 574/574 575/575 572/572
f 576/576 577/577 578/578
f 578/578 579/579 576/576
f 580/580 581/581 582/582
f 583/583 584/584 585/585
f 586/586 587/587 588/588
f 589/589 590/590 591/591
