v -0.149760395 0.191423357 0.00610350957
v -0.149788693 0.191472396 0.00631479826
v -0.149577409 0.191529006 0.00631479826
v -0.149894342 0.191289425 0.00610350957
v -0.149943382 0.191317722 0.00631479826
v -0.149577409 0.191472396 0.00610350957
v 0.149788707 0.191472396 0.00631479826
v -0.149760395 0.191212073 0.00594883505
v -0.149683058 0.191289425 0.00594883505
v 0.149577424 0.191472396 0.00610350957
v -0.149577409 0.191106424 0.00589221995
v 0.149683073 0.191289425 0.00594883505
v -0.149943382 -0.208048433 0.00610350957
v -0.149999991 -0.208048433 0.00631479826
v -0.149788693 -0.208048433 0.00594883505
v -0.149577409 -0.208048433 0.00589221995
v 0.149577424 0.191106424 0.00589221995
v -0.149683058 -0.208231419 0.00594883505
v -0.149760395 -0.208365351 0.00610350957
v -0.149788693 -0.208414391 0.00631479826
v -0.149577409 -0.208259717 0.00594883505
v -0.149577409 -0.208414391 0.00610350957
v -0.149577409 -0.208471 0.00631479826
v 0.149577424 -0.208048433 0.00589221995
v 0.149577424 -0.208414391 0.00610350957
v 0.149577424 -0.208259717 0.00594883505
v 0.149577424 -0.208471 0.00631479826
v 0.14976041 -0.208365351 0.00610350957
v 0.149788707 -0.208414391 0.00631479826
v 0.149788707 -0.208048433 0.00594883505
v 0.149894357 -0.208231419 0.00610350957
v 0.149943382 -0.208259717 0.00631479826
v 0.149943382 -0.208048433 0.00610350957
v 0.149943382 0.191106424 0.00610350957
v 0.149943382 0.191317722 0.00631479826
v -0.149577409 0.191106424 0.0208922196
v -0.149683058 0.191289425 0.0208356045
v -0.149760395 0.191212073 0.0208356045
v -0.149894342 0.191289425 0.0206809305
v -0.149943382 0.191106424 0.0206809305
v -0.149760395 -0.208154082 0.0208356045
v -0.149943382 0.191317722 0.0204696413
v -0.149943382 -0.208259717 0.0204696413
v -0.149760395 0.191423357 0.0206809305
v -0.149788693 0.191472396 0.0204696413
v -0.149894342 -0.208231419 0.0206809305
v -0.149577409 0.191529006 0.0204696413
v -0.149788693 -0.208414391 0.0204696413
v 0.149577424 0.191472396 0.0206809305
v 0.149788707 0.191472396 0.0204696413
v 0.149683073 0.191289425 0.0208356045
v 0.149577424 0.191106424 0.0208922196
v 0.14976041 0.191423357 0.0206809305
v 0.14976041 0.191212073 0.0208356045
v 0.149943382 0.191317722 0.0204696413
v 0.149788707 0.191106424 0.0208356045
v 0.149577424 -0.208048433 0.0208922196
v 0.149943382 0.191106424 0.0206809305
v 0.150000006 0.191106424 0.0204696413
v 0.149788707 -0.208048433 0.0208356045
v 0.149943382 -0.208048433 0.0206809305
v 0.149943382 -0.208259717 0.0204696413
v 0.149894357 -0.208231419 0.0206809305
v 0.149788707 -0.208414391 0.0204696413
v 0.149577424 -0.208471 0.0204696413
v -0.149577409 -0.208414391 0.0206809305
v -0.149577409 -0.208048433 0.0208922196
v -0.149577409 -0.208471 0.0204696413
v -0.149788693 0.191472396 0.00631479826
v -0.149788693 0.191472396 0.0204696413
v -0.149577409 0.191529006 0.0204696413
v -0.149577409 0.191529006 0.00631479826
v -0.149943382 0.191317722 0.00631479826
v -0.149943382 0.191317722 0.0204696413
v -0.149999991 -0.208048433 0.00631479826
v -0.149943382 -0.208259717 0.0204696413
v -0.149788693 -0.208414391 0.00631479826
v -0.149788693 -0.208414391 0.0204696413
v -0.149577409 -0.208471 0.00631479826
v -0.149577409 -0.208471 0.0204696413
v 0.149577424 -0.208471 0.00631479826
v 0.149577424 -0.208471 0.0204696413
v 0.149788707 -0.208414391 0.00631479826
v 0.149788707 -0.208414391 0.0204696413
v 0.149943382 -0.208259717 0.00631479826
v 0.149943382 -0.208259717 0.0204696413
v 0.149943382 0.191317722 0.00631479826
v 0.150000006 0.191106424 0.0204696413
v 0.149943382 0.191317722 0.0204696413
v 0.149788707 0.191472396 0.00631479826
v 0.149788707 0.191472396 0.0204696413
v -0.149577409 0.191529006 0.00631479826
v -0.149577409 0.191529006 0.0204696413
f 1 2 3
f 2 1 4
f 4 5 2
f 3 6 1
f 6 3 7
f 8 4 1
f 9 1 6
f 1 9 8
f 7 10 6
f 9 6 10
f 9 11 8
f 11 9 12
f 10 12 9
f 5 4 13
f 13 14 5
f 4 8 15
f 15 13 4
f 8 11 16
f 16 15 8
f 12 17 11
f 16 11 17
f 15 16 18
f 13 15 18
f 14 13 19
f 18 19 13
f 19 20 14
f 18 16 21
f 19 18 21
f 20 19 22
f 21 22 19
f 22 23 20
f 21 16 24
f 23 22 25
f 22 21 26
f 26 25 22
f 24 26 21
f 25 27 23
f 17 24 16
f 26 24 25
f 27 25 28
f 28 29 27
f 25 24 30
f 28 25 30
f 29 28 31
f 30 31 28
f 31 32 29
f 30 24 17
f 32 31 33
f 30 33 31
f 17 34 30
f 33 30 34
f 32 33 34
f 34 35 32
f 34 17 12
f 35 34 10
f 12 10 34
f 10 7 35
f 36 37 38
f 39 38 37
f 38 39 40
f 36 38 41
f 42 40 39
f 40 42 43
f 37 44 39
f 42 39 44
f 44 45 42
f 43 46 40
f 38 40 46
f 46 41 38
f 44 47 45
f 46 43 48
f 47 44 49
f 49 50 47
f 44 37 51
f 51 49 44
f 52 51 37
f 37 36 52
f 50 49 53
f 51 53 49
f 52 54 51
f 53 51 54
f 50 53 54
f 54 55 50
f 52 56 54
f 56 52 57
f 55 54 58
f 56 58 54
f 58 59 55
f 58 56 60
f 57 60 56
f 59 58 61
f 60 61 58
f 61 62 59
f 62 61 63
f 60 63 61
f 62 63 60
f 60 64 62
f 64 60 65
f 57 65 60
f 65 57 66
f 67 66 57
f 66 68 65
f 48 68 46
f 68 66 41
f 41 46 68
f 67 41 66
f 41 67 36
f 69 70 71
f 71 72 69
f 70 69 73
f 73 74 70
f 74 73 75
f 75 76 74
f 76 75 77
f 77 78 76
f 78 77 79
f 79 80 78
f 80 79 81
f 81 82 80
f 82 81 83
f 83 84 82
f 84 83 85
f 85 86 84
f 86 85 87
f 87 88 86
f 87 89 88
f 89 87 90
f 90 91 89
f 91 90 92
f 92 93 91
