v 0.0717592165 -0.073706463 -1.63661225e-17
v 0.0737592205 -0.0717064589 -1.59220323e-17
v 0.0737592131 -0.0717064589 0.0452692285
v 0.071759209 -0.073706463 0.0452692285
v 0.0737592131 -0.0717064589 0.090538457
v 0.071759209 -0.073706463 0.090538457
v 0.0737592205 -0.0717064589 0.135807693
v 0.0717592165 -0.073706463 0.135807693
v -0.0740507916 0.0742927641 1.64963074e-17
v -0.0760507956 0.07229276 1.60522173e-17
v -0.0760507956 0.07229276 0.0452692285
v -0.0740507916 0.0742927641 0.0452692285
v -0.0760507956 0.07229276 0.135807693
v -0.0740507916 0.0742927641 0.135807693
v 0.0737592205 -0.0717064589 -1.59220323e-17
v 0.0749592185 -0.0689064637 -1.53003085e-17
v 0.0749592111 -0.0689064637 0.0452692285
v 0.0737592131 -0.0717064589 0.0452692285
v 0.0737592131 -0.0717064589 0.090538457
v 0.0749592185 -0.0689064637 0.135807693
v 0.0737592205 -0.0717064589 0.135807693
v -0.0760507956 0.07229276 1.60522173e-17
v -0.0772507936 0.0694927648 1.54304935e-17
v -0.0772507936 0.0694927648 0.0452692285
v -0.0760507956 0.07229276 0.0452692285
v -0.0772507936 0.0694927648 0.135807693
v -0.0760507956 0.07229276 0.135807693
v 0.0689592212 -0.0749064609 -1.66325755e-17
v 0.0717592165 -0.073706463 -1.63661225e-17
v 0.071759209 -0.073706463 0.0452692285
v 0.0689592138 -0.0749064609 0.0452692285
v 0.071759209 -0.073706463 0.090538457
v 0.0689592138 -0.0749064609 0.090538457
v 0.0717592165 -0.073706463 0.135807693
v 0.0689592212 -0.0749064609 0.135807693
v -0.0712507963 0.075492762 1.67627605e-17
v -0.0740507916 0.0742927641 1.64963074e-17
v -0.0740507916 0.0742927641 0.0452692285
v -0.0712507963 0.075492762 0.090538457
v -0.0740507916 0.0742927641 0.135807693
v -0.0712507963 0.075492762 0.135807693
v 0.0749592185 -0.0689064637 -1.53003085e-17
v 0.0753592178 -0.0653064623 -1.45009476e-17
v 0.0753592104 -0.0653064623 0.0452692285
v 0.0749592111 -0.0689064637 0.0452692285
v 0.0753592104 -0.0653064623 0.090538457
v 0.0753592178 -0.0653064623 0.135807693
v 0.0749592185 -0.0689064637 0.135807693
v -0.0772507936 0.0694927648 1.54304935e-17
v -0.0776507929 0.0658927634 1.46311326e-17
v -0.0776507929 0.0658927634 0.090538457
v -0.0772507936 0.0694927648 0.0452692285
v -0.0776507929 0.0658927634 0.135807693
v -0.0772507936 0.0694927648 0.135807693
v 0.0653592199 -0.0753064603 -1.67213932e-17
v 0.0689592212 -0.0749064609 -1.66325755e-17
v 0.0689592138 -0.0749064609 0.0452692285
v 0.0653592125 -0.0753064603 0.0452692285
v 0.0689592138 -0.0749064609 0.090538457
v 0.0653592125 -0.0753064603 0.090538457
v 0.0689592212 -0.0749064609 0.135807693
v 0.0653592199 -0.0753064603 0.135807693
v -0.067650795 0.0758927613 1.68515782e-17
v -0.0712507963 0.075492762 1.67627605e-17
v -0.0712507963 0.075492762 0.090538457
v -0.067650795 0.0758927613 0.0452692285
v -0.0712507963 0.075492762 0.135807693
v -0.067650795 0.0758927613 0.135807693
v -0.0776507929 -0.024906721 -5.53040302e-18
v -0.026647456 -0.0753064603 -1.67213932e-17
v -0.0776507929 -0.0753064603 -1.67213932e-17
v 0.0753592178 -0.024906721 -5.53040302e-18
v 0.0243558809 -0.0753064603 -1.67213932e-17
v 0.0653592199 -0.0753064603 -1.67213932e-17
v 0.0689592212 -0.0749064609 -1.66325755e-17
v 0.0717592165 -0.073706463 -1.63661225e-17
v 0.0737592205 -0.0717064589 -1.59220323e-17
v 0.0749592185 -0.0689064637 -1.53003085e-17
v 0.0753592178 -0.0653064623 -1.45009476e-17
v 0.0753592178 0.0254930202 5.6605876e-18
v 0.0753592178 -0.0653064623 -1.45009476e-17
v 0.0753592178 -0.024906721 -5.53040302e-18
v 0.0753592104 -0.0653064623 0.0452692285
v 0.0753592104 0.0254930202 0.0452692285
v 0.0753592178 0.0254930202 5.6605876e-18
v 0.0753592104 0.0254930202 0.090538457
v 0.0753592104 -0.0653064623 0.090538457
v 0.0753592178 -0.024906721 0.135807693
v 0.0753592178 -0.0653064623 0.135807693
v 0.0753592178 0.0208930224 0.135807693
v 0.0753592178 0.0254930202 0.131207675
v 0.0753592178 0.02530168 0.132169619
v 0.0753592178 0.0244323611 0.13376835
v 0.0753592178 0.0249772556 0.132952854
v 0.0753592178 0.0226381905 0.135291919
v 0.0753592178 0.0218549613 0.135616347
v 0.0753592178 0.0234536808 0.134747013
v -0.0776507929 0.0658927634 1.46311326e-17
v -0.0776507929 0.0254930202 5.6605876e-18
v -0.0776507929 0.0658927634 0.090538457
v -0.0776507929 -0.024906721 0.131207675
v -0.0776507929 -0.024906721 -5.53040302e-18
v -0.0776507929 0.0254930202 0.135807693
v -0.0776507929 0.0658927634 0.135807693
v -0.0776507929 -0.0203067232 0.135807693
v -0.0776507929 -0.0247153807 0.132169619
v -0.0776507929 -0.0238460619 0.13376835
v -0.0776507929 -0.0243909545 0.132952854
v -0.0776507929 -0.0220518894 0.135291919
v -0.0776507929 -0.0212686602 0.135616347
v -0.0776507929 -0.0228673816 0.134747013
v 0.0243558809 -0.0753064603 0.0452692285
v -0.026647456 -0.0753064603 0.0452692285
v -0.026647456 -0.0753064603 -1.67213932e-17
v 0.0243558809 -0.0753064603 -1.67213932e-17
v 0.0653592125 -0.0753064603 0.0452692285
v 0.0653592199 -0.0753064603 -1.67213932e-17
v 0.0653592125 -0.0753064603 0.090538457
v 0.0243558809 -0.0753064603 0.090538457
v 0.0653592199 -0.0753064603 0.135807693
v -0.026647456 -0.0753064603 0.090538457
v 0.0243558809 -0.0753064603 0.135807693
v -0.026647456 -0.0753064603 0.131207675
v -0.0220474582 -0.0753064603 0.135807693
v -0.0246081166 -0.0753064603 0.134747013
v -0.0237926245 -0.0753064603 0.135291919
v -0.0261316895 -0.0753064603 0.132952854
v -0.0264561158 -0.0753064603 0.132169619
v -0.0255867969 -0.0753064603 0.13376835
v -0.067650795 0.0758927613 0.0452692285
v 0.0243558809 0.0758927613 1.68515782e-17
v -0.026647456 0.0758927613 1.68515782e-17
v -0.067650795 0.0758927613 1.68515782e-17
v 0.0243558809 0.0758927613 0.131207675
v -0.067650795 0.0758927613 0.135807693
v 0.0197558831 0.0758927613 0.135807693
v 0.0207178202 0.0758927613 0.135616347
v 0.0223165415 0.0758927613 0.134747013
v 0.0215010494 0.0758927613 0.135291919
v 0.0238401145 0.0758927613 0.132952854
v 0.0241645407 0.0758927613 0.132169619
v 0.0232952219 0.0758927613 0.13376835
v -0.0776507929 0.0254930202 5.6605876e-18
v 0.0243558809 0.0758927613 1.68515782e-17
v 0.0753592178 0.0758927613 1.68515782e-17
v -0.026647456 0.0758927613 1.68515782e-17
v -0.067650795 0.0758927613 1.68515782e-17
v -0.0712507963 0.075492762 1.67627605e-17
v -0.0740507916 0.0742927641 1.64963074e-17
v -0.0760507956 0.07229276 1.60522173e-17
v -0.0772507936 0.0694927648 1.54304935e-17
v -0.0776507929 0.0658927634 1.46311326e-17
v -0.0776507929 -0.024906721 0.131207675
v -0.0763985962 -0.024906721 0.00221366854
v -0.0748507977 -0.024906721 0.0452692285
v -0.0748507977 -0.024906721 0.131207675
v -0.0776507929 -0.0247153807 0.132169619
v -0.0748507977 -0.0247153807 0.132169619
v -0.0776507929 -0.0243909545 0.132952854
v -0.0748507977 -0.0243909545 0.132952854
v -0.0776507929 -0.0238460619 0.13376835
v -0.0748507977 -0.0238460619 0.13376835
v -0.0776507929 -0.0228673816 0.134747013
v -0.0748507977 -0.0228673816 0.134747013
v -0.0776507929 -0.0220518894 0.135291919
v -0.0748507977 -0.0220518894 0.135291919
v -0.0776507929 -0.0212686602 0.135616347
v -0.0748507977 -0.0212686602 0.135616347
v -0.0776507929 -0.0203067232 0.135807693
v -0.0748507977 -0.0203067232 0.135807693
v -0.0776507929 0.0254930202 0.135807693
v -0.0748507977 0.0254930202 0.135807693
v -0.0776507929 0.0658927634 0.135807693
v -0.0748550743 0.0657379255 0.135807693
v -0.0772507936 0.0694927648 0.135807693
v -0.0745433047 0.0687789619 0.135807693
v -0.0760507956 0.07229276 0.135807693
v -0.0737322047 0.0707229972 0.135807693
v -0.0776507929 -0.0753064603 0.00221366854
v -0.0763985962 -0.024906721 0.00221366854
v -0.0776507929 -0.024906721 -5.53040302e-18
v -0.0776507929 -0.0753064603 -1.67213932e-17
v 0.0753592178 0.0758927613 0.00221366854
v 0.0741070211 0.0254930202 0.00221366854
v 0.0753592178 0.0254930202 5.6605876e-18
v 0.0753592178 0.0758927613 1.68515782e-17
v -0.026647456 -0.0740542635 0.00221366854
v -0.0776507929 -0.0753064603 0.00221366854
v -0.0776507929 -0.0753064603 -1.67213932e-17
v -0.026647456 -0.0753064603 -1.67213932e-17
v 0.0243558809 0.0746405646 0.00221366854
v 0.0753592178 0.0758927613 0.00221366854
v 0.0753592178 0.0758927613 1.68515782e-17
v 0.0243558809 0.0758927613 1.68515782e-17
v -0.026647456 -0.072506465 0.0452692285
v -0.026647456 -0.0740542635 0.00221366854
v -0.026647456 -0.0753064603 -1.67213932e-17
v -0.026647456 -0.0753064603 0.0452692285
v -0.026647456 -0.072506465 0.090538457
v -0.026647456 -0.0753064603 0.090538457
v -0.026647456 -0.072506465 0.131207675
v -0.026647456 -0.0753064603 0.131207675
v -0.0264561158 -0.072506465 0.132169619
v -0.0264561158 -0.0753064603 0.132169619
v -0.0261316895 -0.072506465 0.132952854
v -0.0261316895 -0.0753064603 0.132952854
v -0.0255867969 -0.072506465 0.13376835
v -0.0255867969 -0.0753064603 0.13376835
v -0.0246081166 -0.072506465 0.134747013
v -0.0246081166 -0.0753064603 0.134747013
v -0.0237926245 -0.072506465 0.135291919
v -0.0237926245 -0.0753064603 0.135291919
v -0.0230093952 -0.072506465 0.135616347
v -0.0220474582 -0.0753064603 0.135807693
v -0.0220474582 -0.072506465 0.135807693
v 0.0243558809 -0.072506465 0.135807693
v 0.0243558809 -0.0753064603 0.135807693
v 0.0652043819 -0.0725107491 0.135807693
v 0.0653592199 -0.0753064603 0.135807693
v -0.0740507916 0.0742927641 0.135807693
v -0.0724810287 0.0719741806 0.135807693
v -0.0712507963 0.075492762 0.135807693
v -0.0705369934 0.0727852806 0.135807693
v -0.067650795 0.0758927613 0.135807693
v -0.067495957 0.0730970502 0.135807693
v 0.0197558831 0.0758927613 0.135807693
v -0.026647456 0.0730927661 0.135807693
v 0.0197558831 0.0730927661 0.135807693
v 0.0207178202 0.0758927613 0.135616347
v 0.0207178202 0.0730927661 0.135616347
v 0.0215010494 0.0758927613 0.135291919
v 0.0215010494 0.0730927661 0.135291919
v 0.0223165415 0.0758927613 0.134747013
v 0.0223165415 0.0730927661 0.134747013
v 0.0232952219 0.0758927613 0.13376835
v 0.0232952219 0.0730927661 0.13376835
v 0.0238401145 0.0758927613 0.132952854
v 0.0238401145 0.0730927661 0.132952854
v 0.0241645407 0.0758927613 0.132169619
v 0.0241645407 0.0730927661 0.132169619
v 0.0243558809 0.0758927613 0.131207675
v 0.0243558809 0.0730927661 0.131207675
v 0.0243558753 0.0730927661 0.0452692285
v 0.0243558809 0.0746405646 0.00221366854
v 0.0682454184 -0.0721989796 0.135807693
v 0.0689592212 -0.0749064609 0.135807693
v 0.0701894537 -0.0713878796 0.135807693
v 0.0717592165 -0.073706463 0.135807693
v 0.0714406297 -0.0701366961 0.135807693
v 0.0737592205 -0.0717064589 0.135807693
v 0.0722517297 -0.0681926608 0.135807693
v 0.0749592185 -0.0689064637 0.135807693
v 0.0725634992 -0.0651516244 0.135807693
v 0.0753592178 -0.0653064623 0.135807693
v 0.0725592151 -0.024906721 0.135807693
v 0.0753592178 -0.024906721 0.135807693
v 0.0725592151 0.0208930224 0.135807693
v 0.0753592178 0.0208930224 0.135807693
v 0.0725592151 0.0218549613 0.135616347
v 0.0753592178 0.0218549613 0.135616347
v 0.0725592151 0.0226381905 0.135291919
v 0.0753592178 0.0226381905 0.135291919
v 0.0725592151 0.0234536808 0.134747013
v 0.0753592178 0.0234536808 0.134747013
v 0.0725592151 0.0244323611 0.13376835
v 0.0753592178 0.0244323611 0.13376835
v 0.0725592151 0.0249772556 0.132952854
v 0.0753592178 0.0249772556 0.132952854
v 0.0725592151 0.02530168 0.132169619
v 0.0753592178 0.02530168 0.132169619
v 0.0725592151 0.0254930239 0.131207675
v 0.0753592178 0.0254930202 0.131207675
v 0.0725592151 0.0254930202 0.090538457
v 0.0753592104 0.0254930202 0.090538457
v 0.0725592151 0.0254930202 0.0452692285
v 0.0753592104 0.0254930202 0.0452692285
v 0.0741070211 0.0254930202 0.00221366854
v 0.0753592178 0.0254930202 5.6605876e-18
v -0.026647456 -0.0740542635 0.00221366854
v -0.026647456 -0.072506465 0.0452692285
v 0.0243558809 -0.072506465 0.0452692285
v 0.0243558809 -0.0733265653 0.00221366854
v 0.0652043745 -0.0725107491 0.0452692285
v 0.0652478635 -0.0732959658 0.00221366854
v 0.0652043745 -0.0725107491 0.090538457
v 0.0243558809 -0.072506465 0.090538457
v 0.0652043819 -0.0725107491 0.135807693
v -0.026647456 -0.072506465 0.090538457
v 0.0243558809 -0.072506465 0.135807693
v -0.026647456 -0.072506465 0.131207675
v -0.0230093952 -0.072506465 0.135616347
v -0.0220474582 -0.072506465 0.135807693
v -0.0246081166 -0.072506465 0.134747013
v -0.0237926245 -0.072506465 0.135291919
v -0.0261316895 -0.072506465 0.132952854
v -0.0255867969 -0.072506465 0.13376835
v -0.0264561158 -0.072506465 0.132169619
v 0.0243558809 0.0746405646 0.00221366854
v 0.0243558753 0.0730927661 0.0452692285
v -0.0266474616 0.0730927661 0.0452692285
v -0.026647456 0.0739128664 0.00221366854
v -0.067495957 0.0730970502 0.0452692285
v -0.0675394386 0.0738822669 0.00221366854
v -0.067495957 0.0730970502 0.090538457
v -0.067495957 0.0730970502 0.135807693
v -0.026647456 0.0730927661 0.135807693
v 0.0243558809 0.0730927661 0.131207675
v 0.0207178202 0.0730927661 0.135616347
v 0.0197558831 0.0730927661 0.135807693
v 0.0223165415 0.0730927661 0.134747013
v 0.0215010494 0.0730927661 0.135291919
v 0.0238401145 0.0730927661 0.132952854
v 0.0232952219 0.0730927661 0.13376835
v 0.0241645407 0.0730927661 0.132169619
v 0.0733487234 -0.0651951134 0.00221366854
v 0.0725634992 -0.0651516244 0.0452692285
v 0.0725592151 -0.024906721 0.0452692285
v 0.0733793154 -0.024906721 0.00221366854
v 0.0725592151 0.0254930202 0.0452692285
v 0.0741070211 0.0254930202 0.00221366854
v 0.0725592151 0.0254930202 0.090538457
v 0.0725592151 -0.024906721 0.090538457
v 0.0725634992 -0.0651516244 0.090538457
v 0.0725592151 -0.024906721 0.135807693
v 0.0725634992 -0.0651516244 0.135807693
v 0.0725592151 0.0208930224 0.135807693
v 0.0725592151 0.02530168 0.132169619
v 0.0725592151 0.0254930239 0.131207675
v 0.0725592151 0.0244323611 0.13376835
v 0.0725592151 0.0249772556 0.132952854
v 0.0725592151 0.0226381905 0.135291919
v 0.0725592151 0.0234536808 0.134747013
v 0.0725592151 0.0218549613 0.135616347
v -0.0748550743 0.0657379255 0.0452692285
v -0.0756708905 0.0254930202 0.00221366854
v -0.0756402984 0.0657814145 0.00221366854
v -0.0748507977 -0.024906721 0.0452692285
v -0.0763985962 -0.024906721 0.00221366854
v -0.0748507977 0.0254930202 0.135807693
v -0.0748550743 0.0657379255 0.090538457
v -0.0748550743 0.0657379255 0.135807693
v -0.0748507977 -0.0203067232 0.135807693
v -0.0748507977 -0.0247153807 0.132169619
v -0.0748507977 -0.024906721 0.131207675
v -0.0748507977 -0.0238460619 0.13376835
v -0.0748507977 -0.0243909545 0.132952854
v -0.0748507977 -0.0220518894 0.135291919
v -0.0748507977 -0.0228673816 0.134747013
v -0.0748507977 -0.0212686602 0.135616347
v -0.0776507929 -0.0753064603 0.00221366854
v -0.026647456 -0.0740542635 0.00221366854
v -0.0763985962 -0.024906721 0.00221366854
v 0.0243558809 -0.0733265653 0.00221366854
v 0.0733793154 -0.024906721 0.00221366854
v 0.0652478635 -0.0732959658 0.00221366854
v 0.0684329271 -0.0729102045 0.00221366854
v 0.0705895349 -0.0719788074 0.00221366854
v 0.072031565 -0.0705367774 0.00221366854
v 0.0729629621 -0.0683801696 0.00221366854
v 0.0733487234 -0.0651951134 0.00221366854
v 0.0741070211 0.0254930202 0.00221366854
v 0.0753592178 0.0758927613 0.00221366854
v 0.0243558809 0.0746405646 0.00221366854
v -0.026647456 0.0739128664 0.00221366854
v -0.0756708905 0.0254930202 0.00221366854
v -0.0675394386 0.0738822669 0.00221366854
v -0.0707245022 0.0734965056 0.00221366854
v -0.07288111 0.0725651085 0.00221366854
v -0.0743231401 0.0711230785 0.00221366854
v -0.0752545372 0.0689664707 0.00221366854
v -0.0756402984 0.0657814145 0.00221366854
v 0.0652478635 -0.0732959658 0.00221366854
v 0.0652043745 -0.0725107491 0.0452692285
v 0.0682454109 -0.0721989796 0.0452692285
v -0.0675394386 0.0738822669 0.00221366854
v -0.067495957 0.0730970502 0.0452692285
v -0.0705369934 0.0727852806 0.0452692285
v 0.0682454109 -0.0721989796 0.090538457
v 0.0682454109 -0.0721989796 0.0452692285
v 0.0652043745 -0.0725107491 0.0452692285
v 0.0652043745 -0.0725107491 0.090538457
v 0.0682454184 -0.0721989796 0.135807693
v 0.0652043819 -0.0725107491 0.135807693
v -0.0705369934 0.0727852806 0.090538457
v -0.0705369934 0.0727852806 0.0452692285
v -0.067495957 0.0730970502 0.0452692285
v -0.067495957 0.0730970502 0.090538457
v -0.0705369934 0.0727852806 0.135807693
v -0.067495957 0.0730970502 0.135807693
v 0.0729629621 -0.0683801696 0.00221366854
v 0.0722517297 -0.0681926608 0.0452692285
v 0.0725634992 -0.0651516244 0.0452692285
v -0.0752545372 0.0689664707 0.00221366854
v -0.0745433047 0.0687789619 0.0452692285
v -0.0748550743 0.0657379255 0.0452692285
v 0.0682454109 -0.0721989796 0.0452692285
v 0.0684329271 -0.0729102045 0.00221366854
v 0.0652478635 -0.0732959658 0.00221366854
v -0.0705369934 0.0727852806 0.0452692285
v -0.0707245022 0.0734965056 0.00221366854
v -0.0675394386 0.0738822669 0.00221366854
v 0.0725634992 -0.0651516244 0.090538457
v 0.0725634992 -0.0651516244 0.0452692285
v 0.0722517297 -0.0681926608 0.0452692285
v 0.0722517297 -0.0681926608 0.090538457
v 0.0725634992 -0.0651516244 0.135807693
v 0.0722517297 -0.0681926608 0.135807693
v -0.0748550743 0.0657379255 0.090538457
v -0.0748550743 0.0657379255 0.0452692285
v -0.0745433047 0.0687789619 0.0452692285
v -0.0745433047 0.0687789619 0.090538457
v -0.0748550743 0.0657379255 0.135807693
v -0.0745433047 0.0687789619 0.135807693
v 0.0725634992 -0.0651516244 0.0452692285
v 0.0733487234 -0.0651951134 0.00221366854
v 0.0729629621 -0.0683801696 0.00221366854
v -0.0748550743 0.0657379255 0.0452692285
v -0.0756402984 0.0657814145 0.00221366854
v -0.0752545372 0.0689664707 0.00221366854
v 0.0684329271 -0.0729102045 0.00221366854
v 0.0682454109 -0.0721989796 0.0452692285
v 0.0701894462 -0.0713878796 0.0452692285
v -0.0707245022 0.0734965056 0.00221366854
v -0.0705369934 0.0727852806 0.0452692285
v -0.0724810287 0.0719741806 0.0452692285
v 0.0701894462 -0.0713878796 0.0452692285
v 0.0705895349 -0.0719788074 0.00221366854
v 0.0684329271 -0.0729102045 0.00221366854
v 0.072031565 -0.0705367774 0.00221366854
v 0.0714406297 -0.0701366961 0.0452692285
v 0.0722517297 -0.0681926608 0.0452692285
v -0.0724810287 0.0719741806 0.0452692285
v -0.07288111 0.0725651085 0.00221366854
v -0.0707245022 0.0734965056 0.00221366854
v -0.0743231401 0.0711230785 0.00221366854
v -0.0737322047 0.0707229972 0.0452692285
v -0.0745433047 0.0687789619 0.0452692285
v 0.0701894462 -0.0713878796 0.090538457
v 0.0701894462 -0.0713878796 0.0452692285
v 0.0682454109 -0.0721989796 0.0452692285
v 0.0682454109 -0.0721989796 0.090538457
v 0.0701894537 -0.0713878796 0.135807693
v 0.0682454184 -0.0721989796 0.135807693
v -0.0724810287 0.0719741806 0.090538457
v -0.0724810287 0.0719741806 0.0452692285
v -0.0705369934 0.0727852806 0.0452692285
v -0.0705369934 0.0727852806 0.090538457
v -0.0724810287 0.0719741806 0.135807693
v -0.0705369934 0.0727852806 0.135807693
v 0.0722517297 -0.0681926608 0.0452692285
v 0.0729629621 -0.0683801696 0.00221366854
v 0.072031565 -0.0705367774 0.00221366854
v -0.0745433047 0.0687789619 0.0452692285
v -0.0752545372 0.0689664707 0.00221366854
v -0.0743231401 0.0711230785 0.00221366854
v 0.0722517297 -0.0681926608 0.090538457
v 0.0722517297 -0.0681926608 0.0452692285
v 0.0714406297 -0.0701366961 0.0452692285
v 0.0714406297 -0.0701366961 0.090538457
v 0.0722517297 -0.0681926608 0.135807693
v 0.0714406297 -0.0701366961 0.135807693
v -0.0745433047 0.0687789619 0.090538457
v -0.0745433047 0.0687789619 0.0452692285
v -0.0737322047 0.0707229972 0.0452692285
v -0.0737322047 0.0707229972 0.090538457
v -0.0745433047 0.0687789619 0.135807693
v -0.0737322047 0.0707229972 0.135807693
v 0.0714406297 -0.0701366961 0.0452692285
v 0.072031565 -0.0705367774 0.00221366854
v 0.0705895349 -0.0719788074 0.00221366854
v 0.0701894462 -0.0713878796 0.0452692285
v -0.0737322047 0.0707229972 0.0452692285
v -0.0743231401 0.0711230785 0.00221366854
v -0.07288111 0.0725651085 0.00221366854
v -0.0724810287 0.0719741806 0.0452692285
v 0.0714406297 -0.0701366961 0.090538457
v 0.0714406297 -0.0701366961 0.0452692285
v 0.0701894462 -0.0713878796 0.0452692285
v 0.0701894462 -0.0713878796 0.090538457
v 0.0714406297 -0.0701366961 0.135807693
v 0.0701894537 -0.0713878796 0.135807693
v -0.0737322047 0.0707229972 0.090538457
v -0.0737322047 0.0707229972 0.0452692285
v -0.0724810287 0.0719741806 0.0452692285
v -0.0724810287 0.0719741806 0.090538457
v -0.0737322047 0.0707229972 0.135807693
v -0.0724810287 0.0719741806 0.135807693
f 1 2 3
f 3 4 1
f 4 3 5
f 5 6 4
f 6 5 7
f 7 8 6
f 9 10 11
f 11 12 9
f 12 11 13
f 13 14 12
f 15 16 17
f 17 18 15
f 17 19 18
f 19 17 20
f 20 21 19
f 22 23 24
f 24 25 22
f 25 24 26
f 26 27 25
f 28 29 30
f 30 31 28
f 31 30 32
f 32 33 31
f 33 32 34
f 34 35 33
f 36 37 38
f 38 39 36
f 39 38 40
f 40 41 39
f 42 43 44
f 44 45 42
f 45 44 46
f 45 46 47
f 47 48 45
f 49 50 51
f 51 52 49
f 52 51 53
f 53 54 52
f 55 56 57
f 57 58 55
f 58 57 59
f 59 60 58
f 60 59 61
f 61 62 60
f 63 64 65
f 65 66 63
f 66 65 67
f 67 68 66
f 69 70 71
f 70 69 72
f 72 73 70
f 72 74 73
f 72 75 74
f 72 76 75
f 72 77 76
f 72 78 77
f 72 79 78
f 80 72 69
f 81 82 83
f 84 83 82
f 82 85 84
f 83 84 86
f 86 87 83
f 88 89 87
f 90 88 87
f 90 87 86
f 86 91 92
f 86 92 93
f 90 86 93
f 92 94 93
f 95 90 93
f 95 96 90
f 95 93 97
f 98 99 100
f 101 100 99
f 99 102 101
f 103 104 100
f 105 103 100
f 105 100 101
f 101 106 107
f 105 101 107
f 106 108 107
f 109 105 107
f 109 110 105
f 109 107 111
f 112 113 114
f 114 115 112
f 116 112 115
f 115 117 116
f 112 116 118
f 113 112 119
f 118 119 112
f 119 118 120
f 119 121 113
f 120 122 119
f 121 119 122
f 123 121 122
f 122 124 125
f 123 122 125
f 124 126 125
f 127 123 125
f 127 128 123
f 127 125 129
f 130 131 132
f 132 133 130
f 130 134 131
f 134 130 135
f 135 136 134
f 136 137 138
f 134 136 138
f 137 139 138
f 140 134 138
f 140 141 134
f 140 138 142
f 69 143 80
f 80 144 145
f 144 80 143
f 143 146 144
f 143 147 146
f 143 148 147
f 143 149 148
f 143 150 149
f 143 151 150
f 143 152 151
f 153 69 154
f 154 155 153
f 155 156 153
f 157 153 156
f 156 158 157
f 159 157 158
f 158 160 159
f 161 159 160
f 160 162 161
f 163 161 162
f 162 164 163
f 165 163 164
f 164 166 165
f 167 165 166
f 166 168 167
f 169 167 168
f 168 170 169
f 171 169 170
f 170 172 171
f 173 171 172
f 172 174 173
f 175 173 174
f 174 176 175
f 177 175 176
f 176 178 177
f 179 180 181
f 181 182 179
f 183 184 185
f 185 186 183
f 187 188 189
f 189 190 187
f 191 192 193
f 193 194 191
f 195 196 197
f 197 198 195
f 199 195 198
f 198 200 199
f 201 199 200
f 200 202 201
f 203 201 202
f 202 204 203
f 205 203 204
f 204 206 205
f 207 205 206
f 206 208 207
f 209 207 208
f 208 210 209
f 211 209 210
f 210 212 211
f 213 211 212
f 212 214 213
f 215 213 214
f 216 215 214
f 214 217 216
f 218 216 217
f 217 219 218
f 220 177 178
f 178 221 220
f 222 220 221
f 221 223 222
f 224 222 223
f 223 225 224
f 226 224 225
f 225 227 226
f 227 228 226
f 229 226 228
f 228 230 229
f 231 229 230
f 230 232 231
f 233 231 232
f 232 234 233
f 235 233 234
f 234 236 235
f 237 235 236
f 236 238 237
f 239 237 238
f 238 240 239
f 241 239 240
f 240 242 241
f 242 243 241
f 144 241 243
f 243 244 144
f 245 218 219
f 219 246 245
f 247 245 246
f 246 248 247
f 249 247 248
f 248 250 249
f 251 249 250
f 250 252 251
f 253 251 252
f 252 254 253
f 255 253 254
f 254 256 255
f 257 255 256
f 256 258 257
f 259 257 258
f 258 260 259
f 261 259 260
f 260 262 261
f 263 261 262
f 262 264 263
f 265 263 264
f 264 266 265
f 267 265 266
f 266 268 267
f 269 267 268
f 268 270 269
f 271 269 270
f 270 272 271
f 273 271 272
f 272 274 273
f 275 273 274
f 274 276 275
f 277 275 276
f 276 278 277
f 279 280 281
f 281 282 279
f 282 281 283
f 283 284 282
f 285 283 281
f 286 281 280
f 281 286 285
f 287 285 286
f 280 288 286
f 286 289 287
f 289 286 288
f 290 289 288
f 291 292 289
f 293 291 289
f 290 293 289
f 293 294 291
f 290 295 293
f 295 296 293
f 290 297 295
f 298 299 300
f 300 301 298
f 301 300 302
f 302 303 301
f 304 302 300
f 305 304 300
f 300 306 305
f 306 300 299
f 307 306 299
f 308 309 306
f 310 308 306
f 307 310 306
f 310 311 308
f 307 312 310
f 312 313 310
f 307 314 312
f 315 316 317
f 317 318 315
f 318 317 319
f 319 320 318
f 321 319 317
f 322 317 316
f 317 322 321
f 316 323 322
f 324 322 323
f 323 325 324
f 326 322 324
f 326 321 322
f 327 328 321
f 329 327 321
f 326 329 321
f 329 330 327
f 326 331 329
f 331 332 329
f 326 333 331
f 334 335 336
f 335 334 337
f 337 338 335
f 339 334 340
f 340 341 339
f 342 334 339
f 342 337 334
f 343 344 337
f 345 343 337
f 342 345 337
f 345 346 343
f 342 347 345
f 347 348 345
f 342 349 347
f 350 351 352
f 351 353 352
f 354 352 353
f 354 353 355
f 354 355 356
f 354 356 357
f 354 357 358
f 359 354 358
f 359 360 354
f 352 354 361
f 362 363 361
f 352 361 363
f 363 364 352
f 365 352 364
f 365 364 366
f 365 366 367
f 365 367 368
f 365 368 369
f 370 365 369
f 370 371 365
f 372 373 374
f 375 376 377
f 378 379 380
f 380 381 378
f 382 378 381
f 381 383 382
f 384 385 386
f 386 387 384
f 388 384 387
f 387 389 388
f 390 391 392
f 393 394 395
f 396 397 398
f 399 400 401
f 402 403 404
f 404 405 402
f 406 402 405
f 405 407 406
f 408 409 410
f 410 411 408
f 412 408 411
f 411 413 412
f 414 415 416
f 417 418 419
f 420 421 422
f 423 424 425
f 426 427 428
f 429 430 431
f 432 433 434
f 435 436 437
f 438 439 440
f 440 441 438
f 442 438 441
f 441 443 442
f 444 445 446
f 446 447 444
f 448 444 447
f 447 449 448
f 450 451 452
f 453 454 455
f 456 457 458
f 458 459 456
f 460 456 459
f 459 461 460
f 462 463 464
f 464 465 462
f 466 462 465
f 465 467 466
f 468 469 470
f 470 471 468
f 472 473 474
f 474 475 472
f 476 477 478
f 478 479 476
f 480 476 479
f 479 481 480
f 482 483 484
f 484 485 482
f 486 482 485
f 485 487 486
