v 2.5 -0.283057362 1.59909999
v 2.5 0.300028354 1.59909999
v 2.5 0.300028354 2.39910007
v 2.5 -0.283057362 2.39910007
v 2.5 0.300028443 6.66196972e-17
v 2.5 0.300028473 0.105225526
v 2.5 -0.282976002 0.105225526
v 2.5 -0.282976002 -6.28332945e-17
v 2.5 0.300028443 0.879999995
v 2.5 -0.282976002 0.879999995
v 2.49600005 -0.300025523 0.867120266
v 2.49599981 -0.300025523 0.10038393
v 2.49599981 -0.283825547 0.10038393
v 2.49600005 -0.283825547 0.867120266
v 2.49600005 -0.300028414 2.39910007
v 2.49600005 -0.300028414 1.59909999
v 2.49600005 -0.283828437 1.59909999
v 2.49600005 -0.283828437 2.39910007
v -2.5 0.300028354 1.59909999
v -2.5 -0.283057362 1.59909999
v -2.5 -0.283057362 2.39910007
v -2.5 0.300028354 2.39910007
v -2.5 -0.282976002 -6.28332945e-17
v -2.5 -0.282976002 0.105225526
v -2.5 0.300028473 0.105225526
v -2.5 0.300028443 6.66196972e-17
v -2.5 -0.282976002 0.879999995
v -2.5 0.300028443 0.879999995
v -2.49600029 -0.300025523 0.10038393
v -2.49600005 -0.300025523 0.867120266
v -2.49600005 -0.283825547 0.867120266
v -2.49600029 -0.283825547 0.10038393
v -2.49600005 -0.300028414 1.59909999
v -2.49600005 -0.300028414 2.39910007
v -2.49600005 -0.283828437 2.39910007
v -2.49600005 -0.283828437 1.59909999
v 2.09599996 -0.300025523 0.867120266
v 2.09599996 -0.300025553 0.10038393
v 2.09599996 -0.283825576 0.10038393
v 2.09599996 -0.283825547 0.867120266
v 2.09599996 -0.300028414 2.39910007
v 2.09599996 -0.300028414 1.59909999
v 2.09599996 -0.283828437 1.59909999
v 2.09599996 -0.283828437 2.39910007
v -2.09599996 -0.300025523 0.44834426
v -2.09599996 -0.300025523 0.656025946
v -2.09599996 -0.283825547 0.656025946
v -2.09599996 -0.283825547 0.44834426
v -2.09599996 -0.300025523 0.664025962
v -2.09599996 -0.300025523 0.867120266
v -2.09599996 -0.283825547 0.867120266
v -2.09599996 -0.283825547 0.664025962
v -2.09600019 -0.300025523 0.10038393
v -2.09599996 -0.300025523 0.440344244
v -2.09599996 -0.283825547 0.440344244
v -2.09600019 -0.283825547 0.10038393
v -2.09599996 -0.300028414 1.59909999
v -2.09599996 -0.300028414 2.39910007
v -2.09599996 -0.283828437 2.39910007
v -2.09599996 -0.283828437 1.59909999
v 1.49600005 -0.300025523 0.867120266
v 1.49599993 -0.300025523 0.10038393
v 1.49599993 -0.283825547 0.10038393
v 1.49600005 -0.283825547 0.867120266
v 1.49600005 -0.300028414 2.39910007
v 1.49600005 -0.300028414 1.59909999
v 1.49600005 -0.283828437 1.59909999
v 1.49600005 -0.283828437 2.39910007
v -1.49600017 -0.300025523 0.10038393
v -1.49600005 -0.300025523 0.867120266
v -1.49600005 -0.283825547 0.867120266
v -1.49600017 -0.283825547 0.10038393
v -1.49600005 -0.300028414 1.59909999
v -1.49600005 -0.300028414 2.39910007
v -1.49600005 -0.283828437 2.39910007
v -1.49600005 -0.283828437 1.59909999
v 1.5 -0.283057362 2.39910007
v -0.300000012 0.300028354 2.39910007
v -2.5 0.300028354 2.39910007
v -2.5 -0.283057362 2.39910007
v 2.5 -0.283057362 2.39910007
v 2.5 0.300028354 2.39910007
v -2.09599996 -0.300028414 2.39910007
v -1.50399995 -0.300028414 2.39910007
v -1.50399995 -0.283828437 2.39910007
v -2.09599996 -0.283828437 2.39910007
v -1.49600005 -0.300028414 2.39910007
v -0.904000044 -0.300028414 2.39910007
v -0.904000044 -0.283828437 2.39910007
v -1.49600005 -0.283828437 2.39910007
v -0.895999968 -0.300028414 2.39910007
v -0.30399999 -0.300028414 2.39910007
v -0.30399999 -0.283828437 2.39910007
v -0.895999968 -0.283828437 2.39910007
v -0.296000004 -0.300028414 2.39910007
v 0.296000004 -0.300028414 2.39910007
v 0.296000004 -0.283828437 2.39910007
v -0.296000004 -0.283828437 2.39910007
v 0.30399999 -0.300028414 2.39910007
v 0.895999968 -0.300028414 2.39910007
v 0.895999968 -0.283828437 2.39910007
v 0.30399999 -0.283828437 2.39910007
v 0.904000044 -0.300028414 2.39910007
v 1.49600005 -0.300028414 2.39910007
v 1.49600005 -0.283828437 2.39910007
v 0.904000044 -0.283828437 2.39910007
v 1.50399995 -0.300028414 2.39910007
v 2.09599996 -0.300028414 2.39910007
v 2.09599996 -0.283828437 2.39910007
v 1.50399995 -0.283828437 2.39910007
v 2.10399985 -0.300028414 2.39910007
v 2.49600005 -0.300028414 2.39910007
v 2.49600005 -0.283828437 2.39910007
v 2.10399985 -0.283828437 2.39910007
v -2.49600005 -0.300028414 2.39910007
v -2.10399985 -0.300028414 2.39910007
v -2.10399985 -0.283828437 2.39910007
v -2.49600005 -0.283828437 2.39910007
v -0.300000012 0.300028443 6.66196972e-17
v 0.899999976 -0.282976002 -6.28332945e-17
v -2.5 -0.282976002 -6.28332945e-17
v -2.5 0.300028443 6.66196972e-17
v 2.5 0.300028443 6.66196972e-17
v 2.5 -0.282976002 -6.28332945e-17
v -0.904000044 -0.300025523 0.10038393
v -1.49600017 -0.300025523 0.10038393
v -1.49600017 -0.283825547 0.10038393
v -0.904000044 -0.283825547 0.10038393
v -0.30399999 -0.300025523 0.10038393
v -0.895999968 -0.300025523 0.10038393
v -0.895999968 -0.283825547 0.10038393
v -0.30399999 -0.283825547 0.10038393
v 0.895999968 -0.300025523 0.10038393
v 0.30400002 -0.300025523 0.10038393
v 0.30400002 -0.283825547 0.10038393
v 0.895999968 -0.283825547 0.10038393
v 1.49599993 -0.300025523 0.10038393
v 0.904000044 -0.300025523 0.10038393
v 0.904000044 -0.283825547 0.10038393
v 1.49599993 -0.283825547 0.10038393
v 2.09599996 -0.300025553 0.10038393
v 1.50399983 -0.300025523 0.10038393
v 1.50399983 -0.283825547 0.10038393
v 2.09599996 -0.283825576 0.10038393
v 2.49599981 -0.300025523 0.10038393
v 2.10399985 -0.300025553 0.10038393
v 2.10399985 -0.283825576 0.10038393
v 2.49599981 -0.283825547 0.10038393
v -2.10400009 -0.300025523 0.10038393
v -2.49600029 -0.300025523 0.10038393
v -2.49600029 -0.283825547 0.10038393
v -2.10400009 -0.283825547 0.10038393
v -1.50400007 -0.300025523 0.10038393
v -2.09600019 -0.300025523 0.10038393
v -2.09600019 -0.283825547 0.10038393
v -1.50400007 -0.283825547 0.10038393
v 0.296000034 -0.300025523 0.10038393
v -0.295999974 -0.300025523 0.10038393
v -0.295999974 -0.283825547 0.10038393
v 0.296000034 -0.283825547 0.10038393
v 0.895999968 -0.300025523 0.867120266
v 0.895999968 -0.300025523 0.10038393
v 0.895999968 -0.283825547 0.10038393
v 0.895999968 -0.283825547 0.867120266
v 0.895999968 -0.300028414 2.39910007
v 0.895999968 -0.300028414 1.59909999
v 0.895999968 -0.283828437 1.59909999
v 0.895999968 -0.283828437 2.39910007
v -0.895999968 -0.300025523 0.10038393
v -0.895999968 -0.300025523 0.867120266
v -0.895999968 -0.283825547 0.867120266
v -0.895999968 -0.283825547 0.10038393
v -0.895999968 -0.300028414 1.59909999
v -0.895999968 -0.300028414 2.39910007
v -0.895999968 -0.283828437 2.39910007
v -0.895999968 -0.283828437 1.59909999
v -1.50399995 -0.300025523 0.44834432
v -2.09599996 -0.300025523 0.44834426
v -2.09599996 -0.283825547 0.44834426
v -1.50399995 -0.283825547 0.44834432
v 0.296000004 -0.300025523 0.44834432
v -0.296000004 -0.300025523 0.44834426
v -0.296000004 -0.283825547 0.44834426
v 0.296000004 -0.283825547 0.44834432
v 1.5 0.300028354 1.59909999
v -0.300000012 0.300028354 2.39910007
v 2.5 0.300028354 2.39910007
v 2.5 0.300028354 1.59909999
v -0.899999976 0.300028354 1.59909999
v -2.5 0.300028354 1.59909999
v -2.5 0.300028354 2.39910007
v 2.5 0.300028443 6.66196972e-17
v -0.300000012 0.300028443 6.66196972e-17
v 2.5 0.300028473 0.105225526
v 2.0999999 0.300028443 0.879999995
v 2.5 0.300028443 0.879999995
v 0.899999976 0.300028443 0.879999995
v 0.300000012 0.300028443 0.879999995
v -0.899999976 0.300028443 0.879999995
v -2.5 0.300028473 0.105225526
v -2.5 0.300028443 0.879999995
v -2.5 0.300028443 6.66196972e-17
v -1.50399995 -0.300025523 0.664026022
v -2.09599996 -0.300025523 0.664025962
v -2.09599996 -0.283825547 0.664025962
v -1.50399995 -0.283825547 0.664026022
v 0.296000004 -0.300025523 0.664026022
v -0.296000004 -0.300025523 0.664025962
v -0.296000004 -0.283825547 0.664025962
v 0.296000004 -0.283825547 0.664026022
v 0.320340663 0.227128416 0.879999995
v 0.320340663 -0.210076019 0.879999995
v 0.320340663 -0.210076019 0.639999986
v 0.320340663 0.227128416 0.639999986
v 0.296000004 -0.300025523 0.656026006
v 0.296000004 -0.300025523 0.44834432
v 0.296000004 -0.283825547 0.44834432
v 0.296000004 -0.283825547 0.656026006
v 0.296000004 -0.300025523 0.867120266
v 0.296000004 -0.300025523 0.664026022
v 0.296000004 -0.283825547 0.664026022
v 0.296000004 -0.283825547 0.867120266
v 0.296000004 -0.300025523 0.440344274
v 0.296000034 -0.300025523 0.10038393
v 0.296000034 -0.283825547 0.10038393
v 0.296000004 -0.283825547 0.440344274
v 0.296000004 -0.300028414 2.39910007
v 0.296000004 -0.300028414 1.59909999
v 0.296000004 -0.283828437 1.59909999
v 0.296000004 -0.283828437 2.39910007
v -0.296000004 -0.300025523 0.44834426
v -0.296000004 -0.300025523 0.656025946
v -0.296000004 -0.283825547 0.656025946
v -0.296000004 -0.283825547 0.44834426
v -0.296000004 -0.300025523 0.664025962
v -0.296000004 -0.300025523 0.867120266
v -0.296000004 -0.283825547 0.867120266
v -0.296000004 -0.283825547 0.664025962
v -0.295999974 -0.300025523 0.10038393
v -0.296000004 -0.300025523 0.440344244
v -0.296000004 -0.283825547 0.440344244
v -0.295999974 -0.283825547 0.10038393
v -0.296000004 -0.300028414 1.59909999
v -0.296000004 -0.300028414 2.39910007
v -0.296000004 -0.283828437 2.39910007
v -0.296000004 -0.283828437 1.59909999
v -1.50399995 -0.300025523 0.656026006
v -2.09599996 -0.300025523 0.656025946
v -2.09599996 -0.300025523 0.44834426
v -1.50399995 -0.300025523 0.44834432
v -1.49600017 -0.300025523 0.10038393
v -0.904000044 -0.300025523 0.10038393
v -0.904000044 -0.300025523 0.867120266
v -1.49600005 -0.300025523 0.867120266
v -0.895999968 -0.300025523 0.10038393
v -0.30399999 -0.300025523 0.10038393
v -0.30399999 -0.300025523 0.867120266
v -0.895999968 -0.300025523 0.867120266
v 0.296000004 -0.300025523 0.656026006
v -0.296000004 -0.300025523 0.656025946
v -0.296000004 -0.300025523 0.44834426
v 0.296000004 -0.300025523 0.44834432
v 0.30400002 -0.300025523 0.10038393
v 0.895999968 -0.300025523 0.10038393
v 0.895999968 -0.300025523 0.867120266
v 0.30399999 -0.300025523 0.867120266
v 0.904000044 -0.300025523 0.10038393
v 1.49599993 -0.300025523 0.10038393
v 1.49600005 -0.300025523 0.867120266
v 0.904000044 -0.300025523 0.867120266
v 1.50399983 -0.300025523 0.10038393
v 2.09599996 -0.300025553 0.10038393
v 2.09599996 -0.300025523 0.867120266
v 1.50399995 -0.300025523 0.867120266
v 2.10399985 -0.300025523 0.867120266
v 2.10399985 -0.300025553 0.10038393
v 2.49599981 -0.300025523 0.10038393
v 2.49600005 -0.300025523 0.867120266
v -2.10400009 -0.300025523 0.10038393
v -2.10399985 -0.300025523 0.867120266
v -2.49600005 -0.300025523 0.867120266
v -2.49600029 -0.300025523 0.10038393
v -1.50399995 -0.300025523 0.867120266
v -2.09599996 -0.300025523 0.867120266
v -2.09599996 -0.300025523 0.664025962
v -1.50399995 -0.300025523 0.664026022
v -2.09600019 -0.300025523 0.10038393
v -1.50400007 -0.300025523 0.10038393
v -1.50399995 -0.300025523 0.440344274
v -2.09599996 -0.300025523 0.440344244
v 0.296000004 -0.300025523 0.867120266
v -0.296000004 -0.300025523 0.867120266
v -0.296000004 -0.300025523 0.664025962
v 0.296000004 -0.300025523 0.664026022
v -0.295999974 -0.300025523 0.10038393
v 0.296000034 -0.300025523 0.10038393
v 0.296000004 -0.300025523 0.440344274
v -0.296000004 -0.300025523 0.440344244
v -2.09599996 -0.300028414 1.59909999
v -1.50399995 -0.300028414 1.59909999
v -1.50399995 -0.300028414 2.39910007
v -2.09599996 -0.300028414 2.39910007
v -1.49600005 -0.300028414 1.59909999
v -0.904000044 -0.300028414 1.59909999
v -0.904000044 -0.300028414 2.39910007
v -1.49600005 -0.300028414 2.39910007
v -0.895999968 -0.300028414 1.59909999
v -0.30399999 -0.300028414 1.59909999
v -0.30399999 -0.300028414 2.39910007
v -0.895999968 -0.300028414 2.39910007
v -0.296000004 -0.300028414 1.59909999
v 0.296000004 -0.300028414 1.59909999
v 0.296000004 -0.300028414 2.39910007
v -0.296000004 -0.300028414 2.39910007
v 0.30399999 -0.300028414 1.59909999
v 0.895999968 -0.300028414 1.59909999
v 0.895999968 -0.300028414 2.39910007
v 0.30399999 -0.300028414 2.39910007
v 0.904000044 -0.300028414 1.59909999
v 1.49600005 -0.300028414 1.59909999
v 1.49600005 -0.300028414 2.39910007
v 0.904000044 -0.300028414 2.39910007
v 1.50399995 -0.300028414 1.59909999
v 2.09599996 -0.300028414 1.59909999
v 2.09599996 -0.300028414 2.39910007
v 1.50399995 -0.300028414 2.39910007
v 2.10399985 -0.300028414 2.39910007
v 2.10399985 -0.300028414 1.59909999
v 2.49600005 -0.300028414 1.59909999
v 2.49600005 -0.300028414 2.39910007
v -2.10399985 -0.300028414 1.59909999
v -2.10399985 -0.300028414 2.39910007
v -2.49600005 -0.300028414 2.39910007
v -2.49600005 -0.300028414 1.59909999
v 1.5 -0.283057362 1.59909999
v 1.5 -0.283057362 2.39910007
v -2.5 -0.283057362 2.39910007
v -2.5 -0.283057362 1.59909999
v 2.5 -0.283057362 1.59909999
v 2.5 -0.283057362 2.39910007
v -0.899999976 -0.282976002 0.105225526
v 2.5 -0.282976002 0.105225526
v 2.5 -0.282976002 0.879999995
v 1.5 -0.282976002 0.879999995
v 0.899999976 -0.282976002 0.879999995
v 0.300000012 -0.282976002 0.879999995
v -0.899999976 -0.282976002 0.879999995
v -2.5 -0.282976002 0.105225526
v -2.5 -0.282976002 0.879999995
v 0.320340663 -0.210076019 0.879999995
v 0.774540663 -0.210076019 0.879999995
v 0.774540663 -0.210076019 0.639999986
v 0.320340663 -0.210076019 0.639999986
v -2.09599996 -0.283825547 0.44834426
v -2.09599996 -0.283825547 0.656025946
v -1.50399995 -0.283825547 0.656026006
v -1.50399995 -0.283825547 0.44834432
v -0.904000044 -0.283825547 0.867120266
v -0.904000044 -0.283825547 0.10038393
v -1.49600017 -0.283825547 0.10038393
v -1.49600005 -0.283825547 0.867120266
v -0.30399999 -0.283825547 0.867120266
v -0.30399999 -0.283825547 0.10038393
v -0.895999968 -0.283825547 0.10038393
v -0.895999968 -0.283825547 0.867120266
v -0.296000004 -0.283825547 0.44834426
v -0.296000004 -0.283825547 0.656025946
v 0.296000004 -0.283825547 0.656026006
v 0.296000004 -0.283825547 0.44834432
v 0.895999968 -0.283825547 0.867120266
v 0.895999968 -0.283825547 0.10038393
v 0.30400002 -0.283825547 0.10038393
v 0.30399999 -0.283825547 0.867120266
v 1.49600005 -0.283825547 0.867120266
v 1.49599993 -0.283825547 0.10038393
v 0.904000044 -0.283825547 0.10038393
v 0.904000044 -0.283825547 0.867120266
v 2.09599996 -0.283825547 0.867120266
v 2.09599996 -0.283825576 0.10038393
v 1.50399983 -0.283825547 0.10038393
v 1.50399995 -0.283825547 0.867120266
v 2.49599981 -0.283825547 0.10038393
v 2.10399985 -0.283825576 0.10038393
v 2.10399985 -0.283825547 0.867120266
v 2.49600005 -0.283825547 0.867120266
v -2.49600005 -0.283825547 0.867120266
v -2.10399985 -0.283825547 0.867120266
v -2.10400009 -0.283825547 0.10038393
v -2.49600029 -0.283825547 0.10038393
v -2.09599996 -0.283825547 0.664025962
v -2.09599996 -0.283825547 0.867120266
v -1.50399995 -0.283825547 0.867120266
v -1.50399995 -0.283825547 0.664026022
v -1.50399995 -0.283825547 0.440344274
v -1.50400007 -0.283825547 0.10038393
v -2.09600019 -0.283825547 0.10038393
v -2.09599996 -0.283825547 0.440344244
v -0.296000004 -0.283825547 0.664025962
v -0.296000004 -0.283825547 0.867120266
v 0.296000004 -0.283825547 0.867120266
v 0.296000004 -0.283825547 0.664026022
v 0.296000004 -0.283825547 0.440344274
v 0.296000034 -0.283825547 0.10038393
v -0.295999974 -0.283825547 0.10038393
v -0.296000004 -0.283825547 0.440344244
v -1.50399995 -0.283828437 2.39910007
v -1.50399995 -0.283828437 1.59909999
v -2.09599996 -0.283828437 1.59909999
v -2.09599996 -0.283828437 2.39910007
v -0.904000044 -0.283828437 2.39910007
v -0.904000044 -0.283828437 1.59909999
v -1.49600005 -0.283828437 1.59909999
v -1.49600005 -0.283828437 2.39910007
v -0.30399999 -0.283828437 2.39910007
v -0.30399999 -0.283828437 1.59909999
v -0.895999968 -0.283828437 1.59909999
v -0.895999968 -0.283828437 2.39910007
v 0.296000004 -0.283828437 2.39910007
v 0.296000004 -0.283828437 1.59909999
v -0.296000004 -0.283828437 1.59909999
v -0.296000004 -0.283828437 2.39910007
v 0.895999968 -0.283828437 2.39910007
v 0.895999968 -0.283828437 1.59909999
v 0.30399999 -0.283828437 1.59909999
v 0.30399999 -0.283828437 2.39910007
v 1.49600005 -0.283828437 2.39910007
v 1.49600005 -0.283828437 1.59909999
v 0.904000044 -0.283828437 1.59909999
v 0.904000044 -0.283828437 2.39910007
v 2.09599996 -0.283828437 2.39910007
v 2.09599996 -0.283828437 1.59909999
v 1.50399995 -0.283828437 1.59909999
v 1.50399995 -0.283828437 2.39910007
v 2.49600005 -0.283828437 1.59909999
v 2.10399985 -0.283828437 1.59909999
v 2.10399985 -0.283828437 2.39910007
v 2.49600005 -0.283828437 2.39910007
v -2.49600005 -0.283828437 2.39910007
v -2.10399985 -0.283828437 2.39910007
v -2.10399985 -0.283828437 1.59909999
v -2.49600005 -0.283828437 1.59909999
v -0.899999976 -0.282976002 0.879999995
v -0.899999976 0.300028443 0.879999995
v -2.5 0.300028443 0.879999995
v -2.5 -0.282976002 0.879999995
v 0.300000012 0.300028443 0.879999995
v 0.300000012 -0.282976002 0.879999995
v 0.320340663 -0.210076019 0.879999995
v 0.320340663 0.227128416 0.879999995
v 0.899999976 0.300028443 0.879999995
v 0.300000012 0.300028443 0.879999995
v 0.774540663 0.227128416 0.879999995
v 0.774540663 -0.210076019 0.879999995
v 0.300000012 -0.282976002 0.879999995
v 0.899999976 -0.282976002 0.879999995
v 0.899999976 -0.282976002 0.879999995
v 0.899999976 0.300028443 0.879999995
v 2.0999999 0.300028443 0.879999995
v 1.5 -0.282976002 0.879999995
v 2.5 -0.282976002 0.879999995
v 2.5 0.300028443 0.879999995
v -1.49600005 -0.300025523 0.867120266
v -0.904000044 -0.300025523 0.867120266
v -0.904000044 -0.283825547 0.867120266
v -1.49600005 -0.283825547 0.867120266
v -0.895999968 -0.300025523 0.867120266
v -0.30399999 -0.300025523 0.867120266
v -0.30399999 -0.283825547 0.867120266
v -0.895999968 -0.283825547 0.867120266
v 0.30399999 -0.300025523 0.867120266
v 0.895999968 -0.300025523 0.867120266
v 0.895999968 -0.283825547 0.867120266
v 0.30399999 -0.283825547 0.867120266
v 0.904000044 -0.300025523 0.867120266
v 1.49600005 -0.300025523 0.867120266
v 1.49600005 -0.283825547 0.867120266
v 0.904000044 -0.283825547 0.867120266
v 1.50399995 -0.300025523 0.867120266
v 2.09599996 -0.300025523 0.867120266
v 2.09599996 -0.283825547 0.867120266
v 1.50399995 -0.283825547 0.867120266
v 2.10399985 -0.300025523 0.867120266
v 2.49600005 -0.300025523 0.867120266
v 2.49600005 -0.283825547 0.867120266
v 2.10399985 -0.283825547 0.867120266
v -2.49600005 -0.300025523 0.867120266
v -2.10399985 -0.300025523 0.867120266
v -2.10399985 -0.283825547 0.867120266
v -2.49600005 -0.283825547 0.867120266
v -2.09599996 -0.300025523 0.867120266
v -1.50399995 -0.300025523 0.867120266
v -1.50399995 -0.283825547 0.867120266
v -2.09599996 -0.283825547 0.867120266
v -0.296000004 -0.300025523 0.867120266
v 0.296000004 -0.300025523 0.867120266
v 0.296000004 -0.283825547 0.867120266
v -0.296000004 -0.283825547 0.867120266
v -0.30399999 -0.300025523 0.867120266
v -0.30399999 -0.300025523 0.10038393
v -0.30399999 -0.283825547 0.10038393
v -0.30399999 -0.283825547 0.867120266
v -0.30399999 -0.300028414 2.39910007
v -0.30399999 -0.300028414 1.59909999
v -0.30399999 -0.283828437 1.59909999
v -0.30399999 -0.283828437 2.39910007
v 0.30400002 -0.300025523 0.10038393
v 0.30399999 -0.300025523 0.867120266
v 0.30399999 -0.283825547 0.867120266
v 0.30400002 -0.283825547 0.10038393
v 0.30399999 -0.300028414 1.59909999
v 0.30399999 -0.300028414 2.39910007
v 0.30399999 -0.283828437 2.39910007
v 0.30399999 -0.283828437 1.59909999
v 0.774540663 0.227128416 0.879999995
v 0.320340663 0.227128416 0.879999995
v 0.320340663 0.227128416 0.639999986
v 0.774540663 0.227128416 0.639999986
v -2.09599996 -0.300025523 0.656025946
v -1.50399995 -0.300025523 0.656026006
v -1.50399995 -0.283825547 0.656026006
v -2.09599996 -0.283825547 0.656025946
v -0.296000004 -0.300025523 0.656025946
v 0.296000004 -0.300025523 0.656026006
v 0.296000004 -0.283825547 0.656026006
v -0.296000004 -0.283825547 0.656025946
v 0.320340663 -0.210076019 0.639999986
v 0.774540663 -0.210076019 0.639999986
v 0.774540663 0.227128416 0.639999986
v 0.320340663 0.227128416 0.639999986
v -0.899999976 0.300028354 1.59909999
v 1.5 -0.283057362 1.59909999
v -2.5 -0.283057362 1.59909999
v -2.5 0.300028354 1.59909999
v 1.5 0.300028354 1.59909999
v 2.5 0.300028354 1.59909999
v 2.5 -0.283057362 1.59909999
v -1.50399995 -0.300028414 1.59909999
v -2.09599996 -0.300028414 1.59909999
v -2.09599996 -0.283828437 1.59909999
v -1.50399995 -0.283828437 1.59909999
v -0.904000044 -0.300028414 1.59909999
v -1.49600005 -0.300028414 1.59909999
v -1.49600005 -0.283828437 1.59909999
v -0.904000044 -0.283828437 1.59909999
v -0.30399999 -0.300028414 1.59909999
v -0.895999968 -0.300028414 1.59909999
v -0.895999968 -0.283828437 1.59909999
v -0.30399999 -0.283828437 1.59909999
v 0.296000004 -0.300028414 1.59909999
v -0.296000004 -0.300028414 1.59909999
v -0.296000004 -0.283828437 1.59909999
v 0.296000004 -0.283828437 1.59909999
v 0.895999968 -0.300028414 1.59909999
v 0.30399999 -0.300028414 1.59909999
v 0.30399999 -0.283828437 1.59909999
v 0.895999968 -0.283828437 1.59909999
v 1.49600005 -0.300028414 1.59909999
v 0.904000044 -0.300028414 1.59909999
v 0.904000044 -0.283828437 1.59909999
v 1.49600005 -0.283828437 1.59909999
v 2.09599996 -0.300028414 1.59909999
v 1.50399995 -0.300028414 1.59909999
v 1.50399995 -0.283828437 1.59909999
v 2.09599996 -0.283828437 1.59909999
v 2.49600005 -0.300028414 1.59909999
v 2.10399985 -0.300028414 1.59909999
v 2.10399985 -0.283828437 1.59909999
v 2.49600005 -0.283828437 1.59909999
v -2.10399985 -0.300028414 1.59909999
v -2.49600005 -0.300028414 1.59909999
v -2.49600005 -0.283828437 1.59909999
v -2.10399985 -0.283828437 1.59909999
v -2.09599996 -0.300025523 0.440344244
v -1.50399995 -0.300025523 0.440344274
v -1.50399995 -0.283825547 0.440344274
v -2.09599996 -0.283825547 0.440344244
v -0.296000004 -0.300025523 0.440344244
v 0.296000004 -0.300025523 0.440344274
v 0.296000004 -0.283825547 0.440344274
v -0.296000004 -0.283825547 0.440344244
v -0.904000044 -0.300025523 0.867120266
v -0.904000044 -0.300025523 0.10038393
v -0.904000044 -0.283825547 0.10038393
v -0.904000044 -0.283825547 0.867120266
v -0.904000044 -0.300028414 2.39910007
v -0.904000044 -0.300028414 1.59909999
v -0.904000044 -0.283828437 1.59909999
v -0.904000044 -0.283828437 2.39910007
v 0.774540663 -0.210076019 0.879999995
v 0.774540663 0.227128416 0.879999995
v 0.774540663 0.227128416 0.639999986
v 0.774540663 -0.210076019 0.639999986
v 0.904000044 -0.300025523 0.10038393
v 0.904000044 -0.300025523 0.867120266
v 0.904000044 -0.283825547 0.867120266
v 0.904000044 -0.283825547 0.10038393
v 0.904000044 -0.300028414 1.59909999
v 0.904000044 -0.300028414 2.39910007
v 0.904000044 -0.283828437 2.39910007
v 0.904000044 -0.283828437 1.59909999
v -1.50399995 -0.300025523 0.656026006
v -1.50399995 -0.300025523 0.44834432
v -1.50399995 -0.283825547 0.44834432
v -1.50399995 -0.283825547 0.656026006
v -1.50399995 -0.300025523 0.867120266
v -1.50399995 -0.300025523 0.664026022
v -1.50399995 -0.283825547 0.664026022
v -1.50399995 -0.283825547 0.867120266
v -1.50399995 -0.300025523 0.440344274
v -1.50400007 -0.300025523 0.10038393
v -1.50400007 -0.283825547 0.10038393
v -1.50399995 -0.283825547 0.440344274
v -1.50399995 -0.300028414 2.39910007
v -1.50399995 -0.300028414 1.59909999
v -1.50399995 -0.283828437 1.59909999
v -1.50399995 -0.283828437 2.39910007
v 1.50399983 -0.300025523 0.10038393
v 1.50399995 -0.300025523 0.867120266
v 1.50399995 -0.283825547 0.867120266
v 1.50399983 -0.283825547 0.10038393
v 1.50399995 -0.300028414 1.59909999
v 1.50399995 -0.300028414 2.39910007
v 1.50399995 -0.283828437 2.39910007
v 1.50399995 -0.283828437 1.59909999
v -2.10399985 -0.300025523 0.867120266
v -2.10400009 -0.300025523 0.10038393
v -2.10400009 -0.283825547 0.10038393
v -2.10399985 -0.283825547 0.867120266
v -2.10399985 -0.300028414 2.39910007
v -2.10399985 -0.300028414 1.59909999
v -2.10399985 -0.283828437 1.59909999
v -2.10399985 -0.283828437 2.39910007
v 2.10399985 -0.300025553 0.10038393
v 2.10399985 -0.300025523 0.867120266
v 2.10399985 -0.283825547 0.867120266
v 2.10399985 -0.283825576 0.10038393
v 2.10399985 -0.300028414 1.59909999
v 2.10399985 -0.300028414 2.39910007
v 2.10399985 -0.283828437 2.39910007
v 2.10399985 -0.283828437 1.59909999
vt 0 1
vt 1 1
vt 1 0
vt 0 0
vt 1 1
vt 1 0.5
vt 0 0.5
vt 0 1
vt 1 0
vt 0 0
vt 0.0100000007 0
vt 0.400000006 1
vt 0.400000006 1
vt 0.0100000007 0
vt 0.0100000007 0
vt 0.400000006 1
vt 0.400000006 1
vt 0.0100000007 0
vt 0 1
vt 1 1
vt 1 0
vt 0 0
vt 1 1
vt 1 0.5
vt 0 0.5
vt 0 1
vt 1 0
vt 0 0
vt 0.99000001 1
vt 0.600000024 0
vt 0.600000024 0
vt 0.99000001 1
vt 0.99000001 1
vt 0.600000024 0
vt 0.600000024 0
vt 0.99000001 1
vt 0.999047637 0
vt 0.999047637 1
vt 0.999047637 1
vt 0.999047637 0
vt 0.999047637 0
vt 0.999047637 1
vt 0.999047637 1
vt 0.999047637 0
vt 0.000952381117 0.48295033
vt 0.000952381117 0.243442953
vt 0.000952381117 0.243442953
vt 0.000952381117 0.48295033
vt 0.000952381117 0.234216988
vt 0.000952381117 0
vt 0.000952381117 0
vt 0.000952381117 0.234216988
vt 0.000952381117 1
vt 0.000952381117 0.492176294
vt 0.000952381117 0.492176294
vt 0.000952381117 1
vt 0.000952381117 1
vt 0.000952381117 0
vt 0.000952381117 0
vt 0.000952381117 1
vt 0.856190503 0
vt 0.856190503 1
vt 0.856190503 1
vt 0.856190503 0
vt 0.856190503 0
vt 0.856190503 1
vt 0.856190503 1
vt 0.856190503 0
vt 0.143809527 1
vt 0.143809527 0
vt 0.143809527 0
vt 0.143809527 1
vt 0.143809527 1
vt 0.143809527 0
vt 0.143809527 0
vt 0.143809527 1
vt 0.857142866 1
vt 0.428571463 0
vt 0 0
vt 1 0
vt 0 0
vt 1 0
vt 0.000952381117 0
vt 0.141904771 0
vt 0.141904771 0
vt 0.000952381117 0
vt 0.143809527 0
vt 0.284761906 0
vt 0.284761906 0
vt 0.143809527 0
vt 0.286666691 0
vt 0.42761907 0
vt 0.42761907 0
vt 0.286666691 0
vt 0.429523855 0
vt 0.570476234 0
vt 0.570476234 0
vt 0.429523855 0
vt 0.57238096 0
vt 0.713333368 0
vt 0.713333368 0
vt 0.57238096 0
vt 0.715238094 0
vt 0.856190503 0
vt 0.856190503 0
vt 0.715238094 0
vt 0.858095229 0
vt 0.999047637 0
vt 0.999047637 0
vt 0.858095229 0
vt 0.99000001 0
vt 0.0100000007 0
vt 0.0100000007 0
vt 0.99000001 0
vt 0.600000024 0
vt 0.0100000007 0
vt 0.0100000007 0
vt 0.600000024 0
vt 0.571428597 0
vt 0.285714328 1
vt 1 1
vt 0 1
vt 1 1
vt 0 1
vt 0.284761906 1
vt 0.143809527 1
vt 0.143809527 1
vt 0.284761906 1
vt 0.42761907 1
vt 0.286666691 1
vt 0.286666691 1
vt 0.42761907 1
vt 0.713333368 1
vt 0.57238096 1
vt 0.57238096 1
vt 0.713333368 1
vt 0.856190503 1
vt 0.715238094 1
vt 0.715238094 1
vt 0.856190503 1
vt 0.999047637 1
vt 0.858095229 1
vt 0.858095229 1
vt 0.999047637 1
vt 0.400000006 1
vt 0.99000001 1
vt 0.99000001 1
vt 0.400000006 1
vt 0.0100000007 1
vt 0.99000001 1
vt 0.99000001 1
vt 0.0100000007 1
vt 0.141904771 1
vt 0.000952381117 1
vt 0.000952381117 1
vt 0.141904771 1
vt 0.570476234 1
vt 0.429523855 1
vt 0.429523855 1
vt 0.570476234 1
vt 0.713333368 0
vt 0.713333368 1
vt 0.713333368 1
vt 0.713333368 0
vt 0.713333368 0
vt 0.713333368 1
vt 0.713333368 1
vt 0.713333368 0
vt 0.286666691 1
vt 0.286666691 0
vt 0.286666691 0
vt 0.286666691 1
vt 0.286666691 1
vt 0.286666691 0
vt 0.286666691 0
vt 0.286666691 1
vt 0.141904771 0.48295033
vt 0.000952381117 0.48295033
vt 0.000952381117 0.48295033
vt 0.141904771 0.48295033
vt 0.570476234 0.48295033
vt 0.429523855 0.48295033
vt 0.429523855 0.48295033
vt 0.570476234 0.48295033
vt 0.142857149 1
vt 0.571428597 0
vt 1 0
vt 1 1
vt 0.714285731 1
vt 0 1
vt 0 0
vt 1 1
vt 0.571428597 1
vt 1 0.5
vt 0 0
vt 1 0
vt 0.285714298 0
vt 0.428571463 0
vt 0.714285731 0
vt 0 0.5
vt 0 0
vt 0 1
vt 0.141904771 0.234216988
vt 0.000952381117 0.234216988
vt 0.000952381117 0.234216988
vt 0.141904771 0.234216988
vt 0.570476234 0.234216988
vt 0.429523855 0.234216988
vt 0.429523855 0.234216988
vt 0.570476234 0.234216988
vt 0.571428597 0
vt 0.571428597 1
vt 0.571428597 1
vt 0.571428597 0
vt 0.570476234 0.243442953
vt 0.570476234 0.48295033
vt 0.570476234 0.48295033
vt 0.570476234 0.243442953
vt 0.570476234 0
vt 0.570476234 0.234216988
vt 0.570476234 0.234216988
vt 0.570476234 0
vt 0.570476234 0.492176294
vt 0.570476234 1
vt 0.570476234 1
vt 0.570476234 0.492176294
vt 0.570476234 0
vt 0.570476234 1
vt 0.570476234 1
vt 0.570476234 0
vt 0.429523855 0.48295033
vt 0.429523855 0.243442953
vt 0.429523855 0.243442953
vt 0.429523855 0.48295033
vt 0.429523855 0.234216988
vt 0.429523855 0
vt 0.429523855 0
vt 0.429523855 0.234216988
vt 0.429523855 1
vt 0.429523855 0.492176294
vt 0.429523855 0.492176294
vt 0.429523855 1
vt 0.429523855 1
vt 0.429523855 0
vt 0.429523855 0
vt 0.429523855 1
vt 0.141904771 0.243442953
vt 0.000952381117 0.243442953
vt 0.000952381117 0.48295033
vt 0.141904771 0.48295033
vt 0.143809527 1
vt 0.284761906 1
vt 0.284761906 0
vt 0.143809527 0
vt 0.286666691 1
vt 0.42761907 1
vt 0.42761907 0
vt 0.286666691 0
vt 0.570476234 0.243442953
vt 0.429523855 0.243442953
vt 0.429523855 0.48295033
vt 0.570476234 0.48295033
vt 0.57238096 1
vt 0.713333368 1
vt 0.713333368 0
vt 0.57238096 0
vt 0.715238094 1
vt 0.856190503 1
vt 0.856190503 0
vt 0.715238094 0
vt 0.858095229 1
vt 0.999047637 1
vt 0.999047637 0
vt 0.858095229 0
vt 0.99000001 0
vt 0.99000001 1
vt 0.400000006 1
vt 0.0100000007 0
vt 0.0100000007 1
vt 0.0100000007 0
vt 0.600000024 0
vt 0.99000001 1
vt 0.141904771 0
vt 0.000952381117 0
vt 0.000952381117 0.234216988
vt 0.141904771 0.234216988
vt 0.000952381117 1
vt 0.141904771 1
vt 0.141904771 0.492176294
vt 0.000952381117 0.492176294
vt 0.570476234 0
vt 0.429523855 0
vt 0.429523855 0.234216988
vt 0.570476234 0.234216988
vt 0.429523855 1
vt 0.570476234 1
vt 0.570476234 0.492176294
vt 0.429523855 0.492176294
vt 0.000952381117 1
vt 0.141904771 1
vt 0.141904771 0
vt 0.000952381117 0
vt 0.143809527 1
vt 0.284761906 1
vt 0.284761906 0
vt 0.143809527 0
vt 0.286666691 1
vt 0.42761907 1
vt 0.42761907 0
vt 0.286666691 0
vt 0.429523855 1
vt 0.570476234 1
vt 0.570476234 0
vt 0.429523855 0
vt 0.57238096 1
vt 0.713333368 1
vt 0.713333368 0
vt 0.57238096 0
vt 0.715238094 1
vt 0.856190503 1
vt 0.856190503 0
vt 0.715238094 0
vt 0.858095229 1
vt 0.999047637 1
vt 0.999047637 0
vt 0.858095229 0
vt 0.99000001 0
vt 0.99000001 1
vt 0.400000006 1
vt 0.0100000007 0
vt 0.0100000007 1
vt 0.0100000007 0
vt 0.600000024 0
vt 0.99000001 1
vt 0.857142866 1
vt 0.857142866 0
vt 1 0
vt 1 1
vt 0 1
vt 0 0
vt 0.285714298 0.5
vt 0 0.5
vt 0 0
vt 0.857142866 0
vt 0.714285731 0
vt 0.571428597 0
vt 0.285714298 0
vt 1 0.5
vt 1 0
vt 0.571428597 1
vt 0.714285731 1
vt 0.714285731 1
vt 0.571428597 1
vt 0.000952381117 0.48295033
vt 0.000952381117 0.243442953
vt 0.141904771 0.243442953
vt 0.141904771 0.48295033
vt 0.284761906 0
vt 0.284761906 1
vt 0.143809527 1
vt 0.143809527 0
vt 0.42761907 0
vt 0.42761907 1
vt 0.286666691 1
vt 0.286666691 0
vt 0.429523855 0.48295033
vt 0.429523855 0.243442953
vt 0.570476234 0.243442953
vt 0.570476234 0.48295033
vt 0.713333368 0
vt 0.713333368 1
vt 0.57238096 1
vt 0.57238096 0
vt 0.856190503 0
vt 0.856190503 1
vt 0.715238094 1
vt 0.715238094 0
vt 0.999047637 0
vt 0.999047637 1
vt 0.858095229 1
vt 0.858095229 0
vt 0.400000006 1
vt 0.99000001 1
vt 0.99000001 0
vt 0.0100000007 0
vt 0.600000024 0
vt 0.0100000007 0
vt 0.0100000007 1
vt 0.99000001 1
vt 0.000952381117 0.234216988
vt 0.000952381117 0
vt 0.141904771 0
vt 0.141904771 0.234216988
vt 0.141904771 0.492176294
vt 0.141904771 1
vt 0.000952381117 1
vt 0.000952381117 0.492176294
vt 0.429523855 0.234216988
vt 0.429523855 0
vt 0.570476234 0
vt 0.570476234 0.234216988
vt 0.570476234 0.492176294
vt 0.570476234 1
vt 0.429523855 1
vt 0.429523855 0.492176294
vt 0.141904771 0
vt 0.141904771 1
vt 0.000952381117 1
vt 0.000952381117 0
vt 0.284761906 0
vt 0.284761906 1
vt 0.143809527 1
vt 0.143809527 0
vt 0.42761907 0
vt 0.42761907 1
vt 0.286666691 1
vt 0.286666691 0
vt 0.570476234 0
vt 0.570476234 1
vt 0.429523855 1
vt 0.429523855 0
vt 0.713333368 0
vt 0.713333368 1
vt 0.57238096 1
vt 0.57238096 0
vt 0.856190503 0
vt 0.856190503 1
vt 0.715238094 1
vt 0.715238094 0
vt 0.999047637 0
vt 0.999047637 1
vt 0.858095229 1
vt 0.858095229 0
vt 0.400000006 1
vt 0.99000001 1
vt 0.99000001 0
vt 0.0100000007 0
vt 0.600000024 0
vt 0.0100000007 0
vt 0.0100000007 1
vt 0.99000001 1
vt 0.285714298 1
vt 0.285714298 0
vt 0 0
vt 1 0
vt 0.571428597 0
vt 0.571428597 1
vt 0.571428597 1
vt 0.571428597 0
vt 0.285714298 0
vt 0.428571463 0
vt 0.714285731 0
vt 0.714285731 1
vt 0.571428597 0
vt 0.714285731 0
vt 0.714285731 1
vt 0.714285731 0
vt 1 0
vt 0.857142866 1
vt 0 0
vt 1 0
vt 0.143809527 0
vt 0.284761906 0
vt 0.284761906 0
vt 0.143809527 0
vt 0.286666691 0
vt 0.42761907 0
vt 0.42761907 0
vt 0.286666691 0
vt 0.57238096 0
vt 0.713333368 0
vt 0.713333368 0
vt 0.57238096 0
vt 0.715238094 0
vt 0.856190503 0
vt 0.856190503 0
vt 0.715238094 0
vt 0.858095229 0
vt 0.999047637 0
vt 0.999047637 0
vt 0.858095229 0
vt 0.99000001 0
vt 0.0100000007 0
vt 0.0100000007 0
vt 0.99000001 0
vt 0.600000024 0
vt 0.0100000007 0
vt 0.0100000007 0
vt 0.600000024 0
vt 0.000952381117 0
vt 0.141904771 0
vt 0.141904771 0
vt 0.000952381117 0
vt 0.429523855 0
vt 0.570476234 0
vt 0.570476234 0
vt 0.429523855 0
vt 0.42761907 0
vt 0.42761907 1
vt 0.42761907 1
vt 0.42761907 0
vt 0.42761907 0
vt 0.42761907 1
vt 0.42761907 1
vt 0.42761907 0
vt 0.57238096 1
vt 0.57238096 0
vt 0.57238096 0
vt 0.57238096 1
vt 0.57238096 1
vt 0.57238096 0
vt 0.57238096 0
vt 0.57238096 1
vt 0.714285731 0
vt 0.571428597 0
vt 0.571428597 0
vt 0.714285731 0
vt 0.000952381117 0.243442953
vt 0.141904771 0.243442953
vt 0.141904771 0.243442953
vt 0.000952381117 0.243442953
vt 0.429523855 0.243442953
vt 0.570476234 0.243442953
vt 0.570476234 0.243442953
vt 0.429523855 0.243442953
vt 0.571428597 1
vt 0.714285731 1
vt 0.714285731 0
vt 0.571428597 0
vt 0.714285731 0
vt 0.142857179 1
vt 1 1
vt 0 1
vt 0.142857179 0
vt 1 1
vt 0 1
vt 0.141904771 1
vt 0.000952381117 1
vt 0.000952381117 1
vt 0.141904771 1
vt 0.284761906 1
vt 0.143809527 1
vt 0.143809527 1
vt 0.284761906 1
vt 0.42761907 1
vt 0.286666691 1
vt 0.286666691 1
vt 0.42761907 1
vt 0.570476234 1
vt 0.429523855 1
vt 0.429523855 1
vt 0.570476234 1
vt 0.713333368 1
vt 0.57238096 1
vt 0.57238096 1
vt 0.713333368 1
vt 0.856190503 1
vt 0.715238094 1
vt 0.715238094 1
vt 0.856190503 1
vt 0.999047637 1
vt 0.858095229 1
vt 0.858095229 1
vt 0.999047637 1
vt 0.400000006 1
vt 0.99000001 1
vt 0.99000001 1
vt 0.400000006 1
vt 0.0100000007 1
vt 0.99000001 1
vt 0.99000001 1
vt 0.0100000007 1
vt 0.000952381117 0.492176294
vt 0.141904771 0.492176294
vt 0.141904771 0.492176294
vt 0.000952381117 0.492176294
vt 0.429523855 0.492176294
vt 0.570476234 0.492176294
vt 0.570476234 0.492176294
vt 0.429523855 0.492176294
vt 0.284761906 0
vt 0.284761906 1
vt 0.284761906 1
vt 0.284761906 0
vt 0.284761906 0
vt 0.284761906 1
vt 0.284761906 1
vt 0.284761906 0
vt 0.714285731 1
vt 0.714285731 0
vt 0.714285731 0
vt 0.714285731 1
vt 0.715238094 1
vt 0.715238094 0
vt 0.715238094 0
vt 0.715238094 1
vt 0.715238094 1
vt 0.715238094 0
vt 0.715238094 0
vt 0.715238094 1
vt 0.141904771 0.243442953
vt 0.141904771 0.48295033
vt 0.141904771 0.48295033
vt 0.141904771 0.243442953
vt 0.141904771 0
vt 0.141904771 0.234216988
vt 0.141904771 0.234216988
vt 0.141904771 0
vt 0.141904771 0.492176294
vt 0.141904771 1
vt 0.141904771 1
vt 0.141904771 0.492176294
vt 0.141904771 0
vt 0.141904771 1
vt 0.141904771 1
vt 0.141904771 0
vt 0.858095229 1
vt 0.858095229 0
vt 0.858095229 0
vt 0.858095229 1
vt 0.858095229 1
vt 0.858095229 0
vt 0.858095229 0
vt 0.858095229 1
vt 0.0100000007 0
vt 0.0100000007 1
vt 0.0100000007 1
vt 0.0100000007 0
vt 0.0100000007 0
vt 0.0100000007 1
vt 0.0100000007 1
vt 0.0100000007 0
vt 0.99000001 1
vt 0.99000001 0
vt 0.99000001 0
vt 0.99000001 1
vt 0.99000001 1
vt 0.99000001 0
vt 0.99000001 0
vt 0.99000001 1
f 1/1 2/2 3/3
f 3/3 4/4 1/1
f 5/5 6/6 7/7
f 7/7 8/8 5/5
f 7/7 6/6 9/9
f 9/9 10/10 7/7
f 11/11 12/12 13/13
f 13/13 14/14 11/11
f 15/15 16/16 17/17
f 17/17 18/18 15/15
f 19/19 20/20 21/21
f 21/21 22/22 19/19
f 23/23 24/24 25/25
f 25/25 26/26 23/23
f 25/25 24/24 27/27
f 27/27 28/28 25/25
f 29/29 30/30 31/31
f 31/31 32/32 29/29
f 33/33 34/34 35/35
f 35/35 36/36 33/33
f 37/37 38/38 39/39
f 39/39 40/40 37/37
f 41/41 42/42 43/43
f 43/43 44/44 41/41
f 45/45 46/46 47/47
f 47/47 48/48 45/45
f 49/49 50/50 51/51
f 51/51 52/52 49/49
f 53/53 54/54 55/55
f 55/55 56/56 53/53
f 57/57 58/58 59/59
f 59/59 60/60 57/57
f 61/61 62/62 63/63
f 63/63 64/64 61/61
f 65/65 66/66 67/67
f 67/67 68/68 65/65
f 69/69 70/70 71/71
f 71/71 72/72 69/69
f 73/73 74/74 75/75
f 75/75 76/76 73/73
f 77/77 78/78 79/79
f 79/79 80/80 77/77
f 78/78 77/77 81/81
f 81/81 82/82 78/78
f 83/83 84/84 85/85
f 85/85 86/86 83/83
f 87/87 88/88 89/89
f 89/89 90/90 87/87
f 91/91 92/92 93/93
f 93/93 94/94 91/91
f 95/95 96/96 97/97
f 97/97 98/98 95/95
f 99/99 100/100 101/101
f 101/101 102/102 99/99
f 103/103 104/104 105/105
f 105/105 106/106 103/103
f 107/107 108/108 109/109
f 109/109 110/110 107/107
f 111/111 112/112 113/113
f 113/113 114/114 111/111
f 115/115 116/116 117/117
f 117/117 118/118 115/115
f 119/119 120/120 121/121
f 121/121 122/122 119/119
f 120/120 119/119 123/123
f 123/123 124/124 120/120
f 125/125 126/126 127/127
f 127/127 128/128 125/125
f 129/129 130/130 131/131
f 131/131 132/132 129/129
f 133/133 134/134 135/135
f 135/135 136/136 133/133
f 137/137 138/138 139/139
f 139/139 140/140 137/137
f 141/141 142/142 143/143
f 143/143 144/144 141/141
f 145/145 146/146 147/147
f 147/147 148/148 145/145
f 149/149 150/150 151/151
f 151/151 152/152 149/149
f 153/153 154/154 155/155
f 155/155 156/156 153/153
f 157/157 158/158 159/159
f 159/159 160/160 157/157
f 161/161 162/162 163/163
f 163/163 164/164 161/161
f 165/165 166/166 167/167
f 167/167 168/168 165/165
f 169/169 170/170 171/171
f 171/171 172/172 169/169
f 173/173 174/174 175/175
f 175/175 176/176 173/173
f 177/177 178/178 179/179
f 179/179 180/180 177/177
f 181/181 182/182 183/183
f 183/183 184/184 181/181
f 185/185 186/186 187/187
f 187/187 188/188 185/185
f 185/185 189/189 186/186
f 186/186 189/189 190/190
f 190/190 191/191 186/186
f 192/192 193/193 194/194
f 195/195 196/196 194/194
f 197/197 195/195 194/194
f 198/198 197/197 194/194
f 199/199 198/198 194/194
f 194/194 193/193 199/199
f 193/193 200/200 199/199
f 201/201 199/199 200/200
f 193/193 202/202 200/200
f 203/203 204/204 205/205
f 205/205 206/206 203/203
f 207/207 208/208 209/209
f 209/209 210/210 207/207
f 211/211 212/212 213/213
f 213/213 214/214 211/211
f 215/215 216/216 217/217
f 217/217 218/218 215/215
f 219/219 220/220 221/221
f 221/221 222/222 219/219
f 223/223 224/224 225/225
f 225/225 226/226 223/223
f 227/227 228/228 229/229
f 229/229 230/230 227/227
f 231/231 232/232 233/233
f 233/233 234/234 231/231
f 235/235 236/236 237/237
f 237/237 238/238 235/235
f 239/239 240/240 241/241
f 241/241 242/242 239/239
f 243/243 244/244 245/245
f 245/245 246/246 243/243
f 247/247 248/248 249/249
f 249/249 250/250 247/247
f 251/251 252/252 253/253
f 253/253 254/254 251/251
f 255/255 256/256 257/257
f 257/257 258/258 255/255
f 259/259 260/260 261/261
f 261/261 262/262 259/259
f 263/263 264/264 265/265
f 265/265 266/266 263/263
f 267/267 268/268 269/269
f 269/269 270/270 267/267
f 271/271 272/272 273/273
f 273/273 274/274 271/271
f 275/275 276/276 277/277
f 277/277 278/278 275/275
f 279/279 280/280 281/281
f 281/281 282/282 279/279
f 283/283 284/284 285/285
f 285/285 286/286 283/283
f 287/287 288/288 289/289
f 289/289 290/290 287/287
f 291/291 292/292 293/293
f 293/293 294/294 291/291
f 295/295 296/296 297/297
f 297/297 298/298 295/295
f 299/299 300/300 301/301
f 301/301 302/302 299/299
f 303/303 304/304 305/305
f 305/305 306/306 303/303
f 307/307 308/308 309/309
f 309/309 310/310 307/307
f 311/311 312/312 313/313
f 313/313 314/314 311/311
f 315/315 316/316 317/317
f 317/317 318/318 315/315
f 319/319 320/320 321/321
f 321/321 322/322 319/319
f 323/323 324/324 325/325
f 325/325 326/326 323/323
f 327/327 328/328 329/329
f 329/329 330/330 327/327
f 331/331 332/332 333/333
f 333/333 334/334 331/331
f 335/335 336/336 337/337
f 337/337 338/338 335/335
f 336/336 335/335 339/339
f 339/339 340/340 336/336
f 341/341 342/342 343/343
f 343/343 344/344 341/341
f 344/344 345/345 341/341
f 345/345 346/346 341/341
f 346/346 347/347 341/341
f 348/348 341/341 347/347
f 347/347 349/349 348/348
f 350/350 351/351 352/352
f 352/352 353/353 350/350
f 354/354 355/355 356/356
f 356/356 357/357 354/354
f 358/358 359/359 360/360
f 360/360 361/361 358/358
f 362/362 363/363 364/364
f 364/364 365/365 362/362
f 366/366 367/367 368/368
f 368/368 369/369 366/366
f 370/370 371/371 372/372
f 372/372 373/373 370/370
f 374/374 375/375 376/376
f 376/376 377/377 374/374
f 378/378 379/379 380/380
f 380/380 381/381 378/378
f 382/382 383/383 384/384
f 384/384 385/385 382/382
f 386/386 387/387 388/388
f 388/388 389/389 386/386
f 390/390 391/391 392/392
f 392/392 393/393 390/390
f 394/394 395/395 396/396
f 396/396 397/397 394/394
f 398/398 399/399 400/400
f 400/400 401/401 398/398
f 402/402 403/403 404/404
f 404/404 405/405 402/402
f 406/406 407/407 408/408
f 408/408 409/409 406/406
f 410/410 411/411 412/412
f 412/412 413/413 410/410
f 414/414 415/415 416/416
f 416/416 417/417 414/414
f 418/418 419/419 420/420
f 420/420 421/421 418/418
f 422/422 423/423 424/424
f 424/424 425/425 422/422
f 426/426 427/427 428/428
f 428/428 429/429 426/426
f 430/430 431/431 432/432
f 432/432 433/433 430/430
f 434/434 435/435 436/436
f 436/436 437/437 434/434
f 438/438 439/439 440/440
f 440/440 441/441 438/438
f 442/442 443/443 444/444
f 444/444 445/445 442/442
f 446/446 443/443 442/442
f 442/442 447/447 446/446
f 446/446 447/447 448/448
f 448/448 449/449 446/446
f 450/450 451/451 449/449
f 449/449 452/452 450/450
f 453/453 448/448 454/454
f 454/454 455/455 453/453
f 452/452 453/453 456/456
f 456/456 457/457 452/452
f 458/458 457/457 456/456
f 456/456 459/459 458/458
f 458/458 459/459 460/460
f 460/460 461/461 458/458
f 462/462 463/463 464/464
f 464/464 465/465 462/462
f 466/466 467/467 468/468
f 468/468 469/469 466/466
f 470/470 471/471 472/472
f 472/472 473/473 470/470
f 474/474 475/475 476/476
f 476/476 477/477 474/474
f 478/478 479/479 480/480
f 480/480 481/481 478/478
f 482/482 483/483 484/484
f 484/484 485/485 482/482
f 486/486 487/487 488/488
f 488/488 489/489 486/486
f 490/490 491/491 492/492
f 492/492 493/493 490/490
f 494/494 495/495 496/496
f 496/496 497/497 494/494
f 498/498 499/499 500/500
f 500/500 501/501 498/498
f 502/502 503/503 504/504
f 504/504 505/505 502/502
f 506/506 507/507 508/508
f 508/508 509/509 506/506
f 510/510 511/511 512/512
f 512/512 513/513 510/510
f 514/514 515/515 516/516
f 516/516 517/517 514/514
f 518/518 519/519 520/520
f 520/520 521/521 518/518
f 522/522 523/523 524/524
f 524/524 525/525 522/522
f 526/526 527/527 528/528
f 528/528 529/529 526/526
f 530/530 531/531 532/532
f 532/532 533/533 530/530
f 531/531 530/530 534/534
f 531/531 534/534 535/535
f 535/535 536/536 531/531
f 537/537 538/538 539/539
f 539/539 540/540 537/537
f 541/541 542/542 543/543
f 543/543 544/544 541/541
f 545/545 546/546 547/547
f 547/547 548/548 545/545
f 549/549 550/550 551/551
f 551/551 552/552 549/549
f 553/553 554/554 555/555
f 555/555 556/556 553/553
f 557/557 558/558 559/559
f 559/559 560/560 557/557
f 561/561 562/562 563/563
f 563/563 564/564 561/561
f 565/565 566/566 567/567
f 567/567 568/568 565/565
f 569/569 570/570 571/571
f 571/571 572/572 569/569
f 573/573 574/574 575/575
f 575/575 576/576 573/573
f 577/577 578/578 579/579
f 579/579 580/580 577/577
f 581/581 582/582 583/583
f 583/583 584/584 581/581
f 585/585 586/586 587/587
f 587/587 588/588 585/585
f 589/589 590/590 591/591
f 591/591 592/592 589/589
f 593/593 594/594 595/595
f 595/595 596/596 593/593
f 597/597 598/598 599/599
f 599/599 600/600 597/597
f 601/601 602/602 603/603
f 603/603 604/604 601/601
f 605/605 606/606 607/607
f 607/607 608/608 605/605
f 609/609 610/610 611/611
f 611/611 612/612 609/609
f 613/613 614/614 615/615
f 615/615 616/616 613/613
f 617/617 618/618 619/619
f 619/619 620/620 617/617
f 621/621 622/622 623/623
f 623/623 624/624 621/621
f 625/625 626/626 627/627
f 627/627 628/628 625/625
f 629/629 630/630 631/631
f 631/631 632/632 629/629
f 633/633 634/634 635/635
f 635/635 636/636 633/633
f 637/637 638/638 639/639
f 639/639 640/640 637/637
