v -2.5 0.300028443 0.878174245
v -2.5 -0.299971581 0.878174245
v -2.5 -0.299971581 0.899974227
v -2.5 0.300028443 0.899974227
v 2.5 -0.299971581 0.878174245
v 2.5 0.300028443 0.878174245
v 2.5 0.300028443 0.899974227
v 2.5 -0.299971581 0.899974227
v 2.5 0.300028443 0.878174245
v -2.5 0.300028443 0.878174245
v -2.5 0.300028443 0.899974227
v 2.5 0.300028443 0.899974227
v 0.764855325 -0.212737381 0.899974227
v 0.339003742 -0.212737381 0.899974227
v -2.5 -0.299971581 0.899974227
v -2.5 0.300028443 0.899974227
v 2.5 -0.299971581 0.899974227
v 0.339003742 0.227610841 0.899974227
v 0.764855325 0.227610841 0.899974227
v 2.5 0.300028443 0.899974227
v -2.5 -0.299971581 0.878174245
v 2.5 -0.299971581 0.878174245
v 2.5 -0.299971581 0.899974227
v -2.5 -0.299971581 0.899974227
v -2.5 -0.282976002 0.105225526
v -2.5 -0.282976002 -6.28332945e-17
v 2.5 -0.282976002 -6.28332945e-17
v 2.5 -0.282976002 0.105225526
v 0.339003742 -0.212737381 0.878174245
v 0.339003742 0.227610841 0.878174245
v 0.339003742 0.227610841 0.899974227
v 0.339003742 -0.212737381 0.899974227
v 0.764855325 -0.212737381 0.878174245
v 0.339003742 -0.212737381 0.878174245
v 0.339003742 -0.212737381 0.899974227
v 0.764855325 -0.212737381 0.899974227
v -2.5 -0.299971581 0.878174245
v 0.339003742 -0.212737381 0.878174245
v 0.764855325 -0.212737381 0.878174245
v -2.5 0.300028443 0.878174245
v 2.5 -0.299971581 0.878174245
v 0.339003742 0.227610841 0.878174245
v 0.764855325 0.227610841 0.878174245
v 2.5 0.300028443 0.878174245
v 0.339003742 0.227610841 0.878174245
v 0.764855325 0.227610841 0.878174245
v 0.764855325 0.227610841 0.899974227
v 0.339003742 0.227610841 0.899974227
v 0.764855325 0.227610841 0.878174245
v 0.764855325 -0.212737381 0.878174245
v 0.764855325 -0.212737381 0.899974227
v 0.764855325 0.227610841 0.899974227
f 1 2 3
f 3 4 1
f 5 6 7
f 7 8 5
f 9 10 11
f 11 12 9
f 13 14 15
f 16 15 14
f 15 17 13
f 14 18 16
f 19 13 17
f 20 16 18
f 18 19 20
f 17 20 19
f 21 22 23
f 23 24 21
f 25 26 27
f 28 25 27
f 29 30 31
f 31 32 29
f 33 34 35
f 35 36 33
f 37 38 39
f 38 37 40
f 39 41 37
f 40 42 38
f 41 39 43
f 42 40 44
f 43 44 41
f 44 43 42
f 45 46 47
f 47 48 45
f 49 50 51
f 51 52 49
