v -1.26079738 0.212405249 0.899538457
v -1.2607975 -0.243103325 0.899538457
v -1.2607975 -0.243103325 0.904741466
v -1.26079738 0.212405249 0.904741466
v -0.538212597 -0.243103459 0.899538457
v -0.538212478 0.212405115 0.899538457
v -0.538212478 0.212405115 0.904741466
v -0.538212597 -0.243103459 0.904741466
v -0.538212478 0.212405115 0.899538457
v -1.26079738 0.212405249 0.899538457
v -1.26079738 0.212405249 0.904741466
v -0.538212478 0.212405115 0.904741466
v -1.2607975 -0.243103325 0.899538457
v -0.538212597 -0.243103459 0.899538457
v -0.538212597 -0.243103459 0.904741466
v -1.2607975 -0.243103325 0.904741466
v -0.538212478 0.212405115 0.899538457
v -0.538212597 -0.243103459 0.899538457
v -1.2607975 -0.243103325 0.899538457
v -1.26079738 0.212405249 0.899538457
v -0.538212478 0.212405115 0.904741466
v -1.26079738 0.212405249 0.904741466
v -1.2607975 -0.243103325 0.904741466
v -0.538212597 -0.243103459 0.904741466
vt 0.999500394 0.999500275
vt 0.999500394 0.000499725342
vt 0.999500394 0.000499725342
vt 0.999500394 0.999500275
vt 0.00049957633 0.000499725342
vt 0.000499635935 0.999500334
vt 0.000499635935 0.999500334
vt 0.00049957633 0.000499725342
vt 0.000499635935 0.999500334
vt 0.999500394 0.999500275
vt 0.999500394 0.999500275
vt 0.000499635935 0.999500334
vt 0.999500394 0.000499725342
vt 0.00049957633 0.000499725342
vt 0.00049957633 0.000499725342
vt 0.999500394 0.000499725342
vt 0.000499635935 0.999500334
vt 0.00049957633 0.000499725342
vt 0.999500394 0.000499725342
vt 0.999500394 0.999500275
vt 0.000499635935 0.999500334
vt 0.999500394 0.999500275
vt 0.999500394 0.000499725342
vt 0.00049957633 0.000499725342
f 1/1 2/2 3/3
f 3/3 4/4 1/1
f 5/5 6/6 7/7
f 7/7 8/8 5/5
f 9/9 10/10 11/11
f 11/11 12/12 9/9
f 13/13 14/14 15/15
f 15/15 16/16 13/13
f 17/17 18/18 19/19
f 19/19 20/20 17/17
f 21/21 22/22 23/23
f 23/23 24/24 21/21
