v 2.50005531 0.30002895 0.899919271
v 2.50005531 0.30002892 1.5994525
v 2.50005531 0.295028925 1.5994525
v 2.50005531 0.295028955 0.899919271
v -2.5000484 0.30002892 1.5994525
v -2.5000484 0.30002895 0.899919271
v -2.5000484 0.295028955 0.899919271
v -2.5000484 0.295028925 1.5994525
v -2.5000484 0.30002895 0.899919271
v 2.50005531 0.30002895 0.899919271
v 2.50005531 0.295028955 0.899919271
v -2.5000484 0.295028955 0.899919271
v 2.50005531 0.30002892 1.5994525
v -2.5000484 0.30002892 1.5994525
v -2.5000484 0.295028925 1.5994525
v 2.50005531 0.295028925 1.5994525
v -2.5000484 0.30002895 0.899919271
v -2.5000484 0.30002892 1.5994525
v 2.50005531 0.30002892 1.5994525
v 2.50005531 0.30002895 0.899919271
v -2.5000484 0.295028955 0.899919271
v 2.50005531 0.295028955 0.899919271
v 2.50005531 0.295028925 1.5994525
v -2.5000484 0.295028925 1.5994525
f 1 2 3
f 3 4 1
f 5 6 7
f 7 8 5
f 9 10 11
f 11 12 9
f 13 14 15
f 15 16 13
f 17 18 19
f 19 20 17
f 21 22 23
f 23 24 21
