v 0.302467585 -0.0317163803 0.15409033
v 0.302467585 -0.0280053802 0.158512935
v 0.302467585 -0.0340945721 0.163622364
v 0.302467585 -0.0401837602 0.168731794
v 0.302467585 -0.039138373 0.14524512
v 0.302467585 -0.0452275649 0.150354549
v 0.302467585 -0.050189551 0.169173598
v 0.302467585 -0.0534893498 0.165241048
v 0.302467585 -0.0513167568 0.155463979
v -0.302467048 -0.0513166636 0.155463979
v -0.302467048 -0.0534892567 0.165241033
v -0.302467048 -0.0501894578 0.169173598
v -0.302467048 -0.0391382799 0.14524512
v -0.302467048 -0.0354272835 0.149667725
v -0.302467048 -0.0401836671 0.168731794
v -0.302467018 -0.0280052871 0.158512935
v -0.300143182 -0.139090016 0.0418001264
v -0.300143182 -0.132758409 0.0364872888
v -0.300143182 -0.148697227 0.0174921267
v -0.300143182 -0.155028835 0.0228049643
v -0.300143182 -0.123565875 0.0287738405
v -0.300143182 -0.139504686 0.00977867749
v -0.300143152 0.0764824301 0.285851181
v -0.300143152 0.0860896409 0.310159206
v -0.300143152 0.0924212411 0.304846346
v -0.300143152 0.101613782 0.297132909
v -0.300143152 0.0856749713 0.278137743
v 0.299548686 0.0764823407 0.285851181
v 0.299548686 0.0701507404 0.291164041
v 0.299548656 -0.139090106 0.0418001264
v 0.299548715 0.0924211517 0.304846346
v 0.299548686 0.0860895514 0.310159206
v 0.299548686 0.0856748819 0.278137743
v 0.299548715 0.101613693 0.297132909
v 0.299548656 -0.132758513 0.0364872888
v 0.299548656 -0.155028924 0.0228049643
v 0.299548656 -0.148697317 0.0174921267
v 0.299548656 -0.139504775 0.00977867749
v 0.299548656 -0.123565964 0.0287738405
v 0.231409892 -0.15446271 0.00209499989
v 0.231409892 -0.154462725 0.0170949996
v 0.231409892 -0.16075246 0.0170949996
v 0.231409892 -0.16075246 0.00209499989
v 0.231409937 0.156752363 0.0170949996
v 0.231409937 0.156752363 0.00209499989
v 0.231409937 0.160752386 0.00209499989
v 0.231409937 0.160752386 0.0170949996
v -0.231081039 -0.160752386 0.00209499989
v -0.231081039 -0.160752386 0.0170949996
v -0.231081039 -0.154462636 0.0170949996
v -0.231081039 -0.15446265 0.00209499989
v -0.231080979 0.156752437 0.00209499989
v -0.231080979 0.156752437 0.0170949996
v -0.231080979 0.160752445 0.0170949996
v -0.231080979 0.160752445 0.00209499989
v -0.280473262 0.0860896409 0.310159206
v 0.279878795 0.0924211517 0.304846346
v -0.280473262 0.0924212411 0.304846346
v 0.294926286 0.0860895514 0.310159206
v -0.280473262 0.101613782 0.297132909
v -0.295520723 0.0860896409 0.310159206
v -0.300143152 0.0924212411 0.304846346
v -0.295520723 0.101613782 0.297132909
v -0.300143152 0.0860896409 0.310159206
v -0.300143152 0.101613782 0.297132909
v 0.294926286 0.101613693 0.297132909
v 0.279878825 0.1016137 0.297132909
v 0.299548686 0.0860895514 0.310159206
v 0.299548715 0.0924211517 0.304846346
v 0.299548715 0.101613693 0.297132909
v -0.231080979 0.160752445 0.00209499989
v -0.231080979 0.160752445 0.0170949996
v -0.217780426 0.160752445 0.0170949996
v -0.217780411 0.160752445 0.00209499989
v 0.231409937 0.160752386 0.0170949996
v 0.231409937 0.160752386 0.00209499989
v 0.218109384 0.160752386 0.00209499989
v 0.218109369 0.160752386 0.0170949996
v 0.279878765 -0.148697317 0.0174921267
v 0.279878765 -0.155028909 0.0228049643
v -0.280473292 -0.155028835 0.0228049643
v -0.280473292 -0.148697227 0.0174921267
v -0.295520753 -0.155028835 0.0228049643
v 0.294926226 -0.148697317 0.0174921267
v 0.279878765 -0.139504775 0.00977867749
v 0.294926226 -0.155028924 0.0228049643
v 0.294926226 -0.139504775 0.00977867749
v 0.299548656 -0.148697317 0.0174921267
v 0.299548656 -0.155028924 0.0228049643
v 0.299548656 -0.139504775 0.00977867749
v -0.295520753 -0.139504686 0.00977867749
v -0.280473292 -0.139504686 0.00977867749
v -0.300143182 -0.155028835 0.0228049643
v -0.300143182 -0.148697227 0.0174921267
v -0.300143182 -0.139504686 0.00977867749
v 0.216409892 -0.15446271 0.00209499989
v 0.231409892 -0.15446271 0.00209499989
v 0.231409892 -0.16075246 0.00209499989
v 0.216409892 -0.16075246 0.00209499989
v -0.216081038 -0.160752386 0.00209499989
v -0.231081039 -0.160752386 0.00209499989
v -0.231081039 -0.15446265 0.00209499989
v -0.216081038 -0.15446265 0.00209499989
v -0.217780411 0.156752437 0.00209499989
v -0.231080979 0.156752437 0.00209499989
v -0.231080979 0.160752445 0.00209499989
v -0.217780411 0.160752445 0.00209499989
v 0.231409937 0.156752363 0.00209499989
v 0.218109384 0.156752363 0.00209499989
v 0.218109384 0.160752386 0.00209499989
v 0.231409937 0.160752386 0.00209499989
v 0.216409892 -0.16075246 0.00209499989
v 0.231409892 -0.16075246 0.00209499989
v 0.231409892 -0.16075246 0.0170949996
v 0.216409892 -0.16075246 0.0170949996
v -0.216081038 -0.160752386 0.00209499989
v -0.216081038 -0.160752386 0.0170949996
v -0.231081039 -0.160752386 0.0170949996
v -0.231081039 -0.160752386 0.00209499989
v -0.302467048 -0.0501894578 0.169173598
v -0.302467048 -0.0534892567 0.165241033
v -0.297232419 -0.0534892567 0.165241033
v -0.297232419 -0.0501894578 0.169173598
v 0.297232956 -0.050189551 0.169173598
v 0.297232956 -0.0534893498 0.165241048
v 0.302467585 -0.0534893498 0.165241048
v 0.302467585 -0.050189551 0.169173598
v -0.295520723 0.0701508299 0.291164041
v -0.300143182 -0.139090016 0.0418001264
v -0.300143182 -0.155028835 0.0228049643
v -0.295520753 -0.155028835 0.0228049643
v -0.300143152 0.0860896409 0.310159206
v -0.295520723 0.0860896409 0.310159206
v 0.294926226 -0.139090106 0.0418001264
v 0.299548686 0.0701507404 0.291164041
v 0.299548686 0.0860895514 0.310159206
v 0.294926286 0.0860895514 0.310159206
v 0.299548656 -0.139090106 0.0418001264
v 0.299548656 -0.155028924 0.0228049643
v 0.294926226 -0.155028924 0.0228049643
v -0.302467018 -0.0280052871 0.158512935
v -0.302467048 -0.0401836671 0.168731794
v -0.297232419 -0.0401836708 0.168731794
v -0.297232419 -0.0280052889 0.158512935
v -0.297232419 -0.0501894578 0.169173598
v -0.302467048 -0.0501894578 0.169173598
v 0.297232956 -0.0280053783 0.158512935
v 0.297232956 -0.0401837602 0.168731794
v 0.302467585 -0.0340945721 0.163622364
v 0.302467585 -0.0280053802 0.158512935
v 0.302467585 -0.0401837602 0.168731794
v 0.302467585 -0.050189551 0.169173598
v 0.297232956 -0.050189551 0.169173598
v -0.302467048 -0.0534892567 0.165241033
v -0.302467048 -0.0513166636 0.155463979
v -0.297232419 -0.0513166636 0.155463979
v -0.297232419 -0.0534892567 0.165241033
v -0.297232419 -0.0391382836 0.14524512
v -0.302467048 -0.0391382799 0.14524512
v 0.297232956 -0.0534893498 0.165241048
v 0.297232956 -0.0513167568 0.155463979
v 0.302467585 -0.0513167568 0.155463979
v 0.302467585 -0.0534893498 0.165241048
v 0.302467585 -0.0452275649 0.150354549
v 0.302467585 -0.039138373 0.14524512
v 0.297232956 -0.039138373 0.14524512
v -0.300143152 0.101613782 0.297132909
v -0.295520723 0.101613782 0.297132909
v -0.295520723 0.0856749713 0.278137743
v -0.300143152 0.0856749713 0.278137743
v -0.280473262 0.101613782 0.297132909
v -0.280473262 0.0856749713 0.278137743
v -0.280473292 -0.139504686 0.00977867749
v -0.295520753 -0.139504686 0.00977867749
v -0.295520753 -0.123565875 0.0287738405
v -0.280473292 -0.123565875 0.0287738405
v -0.300143182 -0.139504686 0.00977867749
v -0.300143182 -0.123565875 0.0287738405
v 0.299548656 -0.139504775 0.00977867749
v 0.294926226 -0.139504775 0.00977867749
v 0.294926226 -0.123565964 0.0287738405
v 0.299548656 -0.123565964 0.0287738405
v 0.279878765 -0.139504775 0.00977867749
v 0.279878765 -0.123565957 0.0287738405
v 0.279878825 0.1016137 0.297132909
v 0.294926286 0.101613693 0.297132909
v 0.294926286 0.0856748819 0.278137743
v 0.279878795 0.0856748894 0.278137743
v 0.299548715 0.101613693 0.297132909
v 0.299548686 0.0856748819 0.278137743
v -0.302467048 -0.0391382799 0.14524512
v -0.302467048 -0.0354272835 0.149667725
v -0.297232419 -0.0354272835 0.149667725
v -0.297232419 -0.0391382836 0.14524512
v -0.297232419 -0.0280052889 0.158512935
v -0.302467018 -0.0280052871 0.158512935
v 0.297232956 -0.039138373 0.14524512
v 0.297232956 -0.0317163765 0.15409033
v 0.302467585 -0.0317163803 0.15409033
v 0.302467585 -0.039138373 0.14524512
v 0.302467585 -0.0280053802 0.158512935
v 0.297232956 -0.0280053783 0.158512935
v -0.300143152 0.0764824301 0.285851181
v -0.295520723 0.0764824301 0.285851181
v -0.295520753 -0.132758424 0.0364872888
v -0.300143182 -0.132758409 0.0364872888
v 0.299548656 -0.132758513 0.0364872888
v 0.294926226 -0.132758513 0.0364872888
v 0.294926256 0.0764823407 0.285851181
v 0.299548686 0.0764823407 0.285851181
v 0.231409892 -0.154462725 0.0170949996
v 0.216409892 -0.15446271 0.0170949996
v 0.216409892 -0.16075246 0.0170949996
v 0.231409892 -0.16075246 0.0170949996
v -0.231081039 -0.160752386 0.0170949996
v -0.216081038 -0.160752386 0.0170949996
v -0.216081038 -0.15446265 0.0170949996
v -0.231081039 -0.154462636 0.0170949996
v -0.231080979 0.156752437 0.0170949996
v -0.217780426 0.156752437 0.0170949996
v -0.217780426 0.160752445 0.0170949996
v -0.231080979 0.160752445 0.0170949996
v 0.218109369 0.156752363 0.0170949996
v 0.231409937 0.156752363 0.0170949996
v 0.231409937 0.160752386 0.0170949996
v 0.218109369 0.160752386 0.0170949996
v -0.300143182 -0.132758409 0.0364872888
v -0.295520753 -0.132758424 0.0364872888
v -0.295520753 -0.123565875 0.0287738405
v -0.300143182 -0.123565875 0.0287738405
v -0.280473292 -0.123565875 0.0287738405
v -0.280473292 -0.132758424 0.0364872888
v 0.279878765 -0.132758498 0.0364872888
v 0.294926226 -0.132758513 0.0364872888
v 0.294926226 -0.123565964 0.0287738405
v 0.279878765 -0.123565957 0.0287738405
v 0.299548656 -0.123565964 0.0287738405
v 0.299548656 -0.132758513 0.0364872888
v -0.280473262 0.0764824301 0.285851181
v -0.295520723 0.0764824301 0.285851181
v -0.295520723 0.0856749713 0.278137743
v -0.280473262 0.0856749713 0.278137743
v -0.300143152 0.0856749713 0.278137743
v -0.300143152 0.0764824301 0.285851181
v 0.299548686 0.0764823407 0.285851181
v 0.294926256 0.0764823407 0.285851181
v 0.294926286 0.0856748819 0.278137743
v 0.299548686 0.0856748819 0.278137743
v 0.279878795 0.0856748894 0.278137743
v 0.279878795 0.0764823407 0.285851181
v -0.216081038 -0.160752386 0.0170949996
v -0.216081038 -0.160752386 0.00209499989
v -0.216081038 -0.15446265 0.00209499989
v -0.216081038 -0.15446265 0.0170949996
v 0.216409892 -0.15446271 0.0170949996
v 0.216409892 -0.15446271 0.00209499989
v 0.216409892 -0.16075246 0.00209499989
v 0.216409892 -0.16075246 0.0170949996
v -0.217780426 0.156752437 0.0170949996
v -0.217780411 0.156752437 0.00209499989
v -0.217780411 0.160752445 0.00209499989
v -0.217780426 0.160752445 0.0170949996
v 0.218109384 0.156752363 0.00209499989
v 0.218109369 0.156752363 0.0170949996
v 0.218109369 0.160752386 0.0170949996
v 0.218109384 0.160752386 0.00209499989
v 0.279878765 -0.148697317 0.0174921267
v 0.279878765 -0.132758498 0.0364872888
v 0.279878765 -0.123565957 0.0287738405
v 0.279878765 -0.139504775 0.00977867749
v 0.279878795 0.0764823407 0.285851181
v 0.279878795 0.0924211517 0.304846346
v 0.279878825 0.1016137 0.297132909
v 0.279878795 0.0856748894 0.278137743
v -0.280473262 0.0924212411 0.304846346
v -0.280473262 0.0764824301 0.285851181
v -0.280473262 0.0856749713 0.278137743
v -0.280473262 0.101613782 0.297132909
v -0.280473292 -0.132758424 0.0364872888
v -0.280473292 -0.148697227 0.0174921267
v -0.280473292 -0.139504686 0.00977867749
v -0.280473292 -0.123565875 0.0287738405
v -0.297232419 -0.0401836708 0.168731794
v -0.297232419 -0.0391382836 0.14524512
v -0.297232419 -0.0354272835 0.149667725
v -0.297232419 -0.0280052889 0.158512935
v -0.297232419 -0.0501894578 0.169173598
v -0.297232419 -0.0513166636 0.155463979
v -0.297232419 -0.0534892567 0.165241033
v 0.297232956 -0.039138373 0.14524512
v 0.297232956 -0.0513167568 0.155463979
v 0.297232956 -0.0415165648 0.154777154
v 0.297232956 -0.0317163765 0.15409033
v 0.297232956 -0.0476057567 0.159886584
v 0.297232956 -0.0534893498 0.165241048
v 0.297232956 -0.050189551 0.169173598
v 0.297232956 -0.0438947603 0.164309189
v 0.297232956 -0.0401837602 0.168731794
v 0.297232956 -0.0378055684 0.159199759
v 0.297232956 -0.0280053783 0.158512935
f 1 2 3
f 1 3 4
f 5 1 4
f 4 6 5
f 6 4 7
f 7 8 6
f 9 6 8
f 10 11 12
f 13 10 12
f 12 14 13
f 14 12 15
f 15 16 14
f 17 18 19
f 19 20 17
f 19 18 21
f 21 22 19
f 17 23 18
f 23 17 24
f 24 25 23
f 23 25 26
f 26 27 23
f 28 29 30
f 29 28 31
f 31 32 29
f 31 28 33
f 33 34 31
f 30 35 28
f 35 30 36
f 36 37 35
f 35 37 38
f 38 39 35
f 40 41 42
f 42 43 40
f 44 45 46
f 46 47 44
f 48 49 50
f 50 51 48
f 52 53 54
f 54 55 52
f 56 57 58
f 57 56 59
f 56 58 60
f 60 61 56
f 61 60 62
f 62 60 63
f 62 64 61
f 63 65 62
f 66 67 57
f 59 66 57
f 66 59 68
f 66 69 70
f 68 69 66
f 71 72 73
f 73 74 71
f 75 76 77
f 77 78 75
f 79 80 81
f 81 82 79
f 82 81 83
f 80 79 84
f 84 79 85
f 84 86 80
f 85 87 84
f 86 84 88
f 88 84 87
f 88 89 86
f 87 90 88
f 91 92 82
f 83 91 82
f 91 83 93
f 91 94 95
f 93 94 91
f 96 97 98
f 98 99 96
f 100 101 102
f 102 103 100
f 104 105 106
f 106 107 104
f 108 109 110
f 110 111 108
f 112 113 114
f 114 115 112
f 116 117 118
f 119 116 118
f 120 121 122
f 122 123 120
f 124 125 126
f 126 127 124
f 128 129 130
f 130 131 128
f 132 129 128
f 128 133 132
f 134 135 136
f 136 137 134
f 134 138 135
f 139 138 134
f 134 140 139
f 141 142 143
f 143 144 141
f 145 143 142
f 142 146 145
f 147 148 149
f 149 150 147
f 151 149 148
f 152 151 148
f 148 153 152
f 154 155 156
f 156 157 154
f 158 156 155
f 155 159 158
f 160 161 162
f 162 163 160
f 164 162 161
f 165 164 161
f 161 166 165
f 167 168 169
f 169 170 167
f 169 168 171
f 171 172 169
f 173 174 175
f 175 176 173
f 175 174 177
f 177 178 175
f 179 180 181
f 181 182 179
f 181 180 183
f 183 184 181
f 185 186 187
f 187 188 185
f 187 186 189
f 189 190 187
f 191 192 193
f 193 194 191
f 195 193 192
f 192 196 195
f 197 198 199
f 199 200 197
f 201 199 198
f 198 202 201
f 203 204 205
f 205 206 203
f 207 208 209
f 209 210 207
f 211 212 213
f 213 214 211
f 215 216 217
f 217 218 215
f 219 220 221
f 221 222 219
f 223 224 225
f 225 226 223
f 227 228 229
f 229 230 227
f 231 229 228
f 228 232 231
f 233 234 235
f 235 236 233
f 237 235 234
f 234 238 237
f 239 240 241
f 241 242 239
f 243 241 240
f 240 244 243
f 245 246 247
f 247 248 245
f 249 247 246
f 246 250 249
f 251 252 253
f 253 254 251
f 255 256 257
f 257 258 255
f 259 260 261
f 261 262 259
f 263 264 265
f 265 266 263
f 267 268 269
f 269 270 267
f 271 272 273
f 273 274 271
f 275 276 277
f 277 278 275
f 279 280 281
f 281 282 279
f 283 284 285
f 285 286 283
f 284 283 287
f 288 284 287
f 287 289 288
f 290 291 292
f 292 293 290
f 294 292 291
f 291 295 294
f 294 295 296
f 296 297 294
f 292 294 297
f 297 296 298
f 293 292 299
f 297 299 292
f 299 297 298
f 293 299 298
f 298 300 293
