v -0.298704296 -0.0505430959 0.147909373
v -0.298704296 -0.0470767021 0.159860283
v -0.298704296 -0.0385873653 0.162157685
v -0.298704296 -0.0437769033 0.163792834
v -0.298704296 -0.0326095037 0.16928184
v 0.296447575 -0.050543189 0.147909373
v 0.296447575 -0.0385874622 0.162157685
v 0.296447575 -0.0470767915 0.159860283
v 0.296447575 -0.0437769927 0.163792834
v 0.296447605 -0.0326095968 0.169281825
v -0.298704296 -0.0326095037 0.16928184
v -0.298704296 -0.0437769033 0.163792834
v 0.296447575 -0.0437769927 0.163792834
v 0.296447605 -0.0326095968 0.169281825
v -0.298704296 -0.0470767021 0.159860283
v -0.298704296 -0.0505430959 0.147909373
v 0.296447575 -0.050543189 0.147909373
v 0.296447575 -0.0470767915 0.159860283
v -0.298704296 -0.0437769033 0.163792834
v -0.298704296 -0.0470767021 0.159860283
v 0.296447575 -0.0470767915 0.159860283
v 0.296447575 -0.0437769927 0.163792834
vt 5.61719227 0.999499083
vt 5.61719227 0.591908336
vt 5.61719227 0.333500147
vt 5.61719227 0.408091605
vt 5.61719227 0.000500738621
vt 0.00280761882 0.999499321
vt 0.00280761882 0.333500445
vt 0.00280761882 0.591908336
vt 0.00280761882 0.408091605
vt 0.00280761882 0.000500917435
vt 5.61719227 0.000500738621
vt 5.61719227 0.408091605
vt 0.00280761882 0.408091605
vt 0.00280761882 0.000500917435
vt 5.61719227 0.591908336
vt 5.61719227 0.999499083
vt 0.00280761882 0.999499321
vt 0.00280761882 0.591908336
vt 5.61719227 0.408091605
vt 5.61719227 0.591908336
vt 0.00280761882 0.591908336
vt 0.00280761882 0.408091605
f 1/1 2/2 3/3
f 3/3 2/2 4/4
f 3/3 4/4 5/5
f 6/6 7/7 8/8
f 9/9 8/8 7/7
f 7/7 10/10 9/9
f 11/11 12/12 13/13
f 13/13 14/14 11/11
f 15/15 16/16 17/17
f 17/17 18/18 15/15
f 19/19 20/20 21/21
f 21/21 22/22 19/19
