v -0.234388992 -0.0972845703 0.0635571703
v -0.234389022 -0.0778106451 0.0867652074
v -0.234389067 -0.02016728 0.150447309
v -0.234389096 0.000383148988 0.179952607
v -0.234389096 0.00853968225 0.18465881
v -0.234389111 0.0036015145 0.188802436
v -0.234389096 -0.00208593509 0.182024419
v -0.234389111 -0.00179413357 0.187386528
v -0.234389111 -0.0042632171 0.18945834
v -0.234389111 -0.00133665348 0.192946061
v -0.234389096 -0.00526519865 0.183249891
v -0.234389082 -0.0213425793 0.16408968
v -0.234389096 -0.00555700017 0.177887782
v -0.234389082 -0.0216343813 0.158727571
v -0.234389082 -0.024813639 0.159953043
v -0.234389067 -0.0408910252 0.140792832
v -0.234389082 -0.0251054429 0.154590949
v -0.234389067 -0.0411828309 0.135430723
v -0.234389067 -0.0443620831 0.136656195
v -0.234389052 -0.0604394786 0.117495969
v -0.234389052 -0.0446538888 0.131294101
v -0.234389037 -0.0607312806 0.112133868
v -0.234389037 -0.0639105365 0.11335934
v -0.234389022 -0.0799879208 0.094199121
v -0.234389037 -0.0642023385 0.107997239
v -0.234389022 -0.0802797303 0.0888370201
v -0.234389022 -0.0834589824 0.0900624916
v -0.234388962 -0.155367553 0.00937983021
v -0.234389022 -0.0837507844 0.0847003907
v -0.234389007 -0.0997536555 0.0656289831
v -0.234388947 -0.147960305 0.0031643894
v -0.234388947 -0.145491228 0.00109257561
v 0.234272972 -0.059264265 0.103853561
v 0.234272957 -0.0397158191 0.127150401
v 0.234272957 -0.0582622923 0.110062003
v 0.234272972 -0.0617333502 0.105925374
v 0.234272987 -0.0778107345 0.0867651552
v 0.234272942 -0.0362447612 0.131287038
v 0.234272987 -0.0753416568 0.0846933424
v 0.234272927 -0.020167375 0.150447249
v 0.234272987 -0.0788127109 0.080556713
v 0.234272927 -0.0226364527 0.152519077
v 0.234272987 -0.0812817961 0.0826285258
v 0.234272927 -0.0166963134 0.154583886
v 0.234272912 -0.00061891973 0.173744112
v 0.234273002 -0.0972846597 0.0635571182
v 0.234272897 0.000383055129 0.179952562
v 0.234272912 0.00285214535 0.177880749
v 0.234272897 0.00853958912 0.184658766
v 0.234272897 0.0060705049 0.186730579
v 0.234272897 -0.00208602892 0.182024375
v 0.234272897 0.00360142067 0.188802391
v 0.234272897 -0.0017942274 0.187386468
v 0.234272897 0.00113233656 0.190874204
v 0.234272912 -0.0238117576 0.166161433
v 0.234272882 -0.00133674743 0.192946017
v 0.234272897 -0.00526529225 0.183249831
v 0.234272912 -0.0213426724 0.16408962
v 0.234272897 -0.00555709377 0.177887738
v 0.234272927 -0.0216344744 0.158727527
v 0.234272912 -0.0248137321 0.159952998
v 0.234272912 -0.0272828154 0.162024811
v 0.234272927 -0.0408911183 0.140792772
v 0.234272927 -0.025105536 0.15459089
v 0.234272942 -0.0411829241 0.135430679
v 0.234272942 -0.0443621762 0.136656135
v 0.234272927 -0.0468312614 0.138727963
v 0.234272942 -0.0629086569 0.11956773
v 0.234272957 -0.0604395717 0.117495917
v 0.234272942 -0.0446539819 0.131294042
v 0.234272957 -0.0607313775 0.112133816
v 0.234272957 -0.0639106333 0.113359287
v 0.234272957 -0.066379711 0.1154311
v 0.234272972 -0.0824571028 0.0962708816
v 0.234272972 -0.0799880177 0.0941990688
v 0.234272957 -0.0642024353 0.107997186
v 0.234272972 -0.0802798197 0.0888369679
v 0.234272972 -0.0834590793 0.0900624394
v 0.234272972 -0.085928157 0.0921342522
v 0.234272987 -0.104691915 0.0697725564
v 0.234272987 -0.10222283 0.0677007437
v 0.234272987 -0.0837508813 0.0847003385
v 0.234273046 -0.155367658 0.00937977806
v 0.234273002 -0.0997537449 0.0656289309
v 0.234273046 -0.152898565 0.00730796391
v 0.234273046 -0.150429487 0.00523615023
v 0.234273046 -0.14796041 0.00316433678
v 0.234273002 -0.094815582 0.0614853054
v 0.234273061 -0.145491317 0.0010925231
v 0.231409937 0.15275237 0.00209499989
v 0.231409937 0.15275237 0.0170949996
v 0.231409892 -0.154462725 0.0170949996
v 0.231409892 -0.15446271 0.00209499989
v 0.231409937 0.156752363 0.00209499989
v 0.231409937 0.156752363 0.0170949996
v -0.231081039 -0.15446265 0.00209499989
v -0.231081039 -0.154462636 0.0170949996
v -0.231080979 0.152752444 0.0170949996
v -0.231080979 0.152752444 0.00209499989
v -0.231080979 0.156752437 0.0170949996
v -0.231080979 0.156752437 0.00209499989
v -0.237650886 -0.0408044532 0.133292034
v -0.234143943 -0.000415558636 0.00874281861
v -0.234645545 -0.00159269781 0.00834697206
v -0.236416489 -0.0402944572 0.133415759
v -0.232911423 7.20262542e-05 0.00893563777
v -0.238153309 -0.041990716 0.132924333
v -0.234122455 -0.00276983716 0.00797997974
v -0.2361148 -0.0407427102 0.13479808
v -0.237541825 -0.0434568636 0.133448616
v -0.232881069 -0.00325742248 0.00785682257
v -0.237562999 -0.0411040932 0.134216085
v -0.23805742 -0.0423174538 0.133931965
v -0.236386046 -0.0436233766 0.132335305
v -0.231648549 -0.00276983762 0.0080496408
v -0.23723951 -0.0414022021 0.135135412
v -0.237697288 -0.0426492952 0.134955302
v -0.235151649 -0.0431133844 0.13245903
v -0.231146947 -0.00159269839 0.00844548736
v -0.237219974 -0.0437534563 0.134363264
v -0.234609053 -0.0420649834 0.133251831
v -0.231670022 -0.000415559014 0.00881247967
v -0.235103473 -0.043278344 0.132967696
v -0.235712677 -0.0442564338 0.134287491
v -0.235173166 -0.0407594852 0.133223027
v -0.235124648 -0.0409255698 0.133735165
v -0.2345047 -0.0421613008 0.133548841
v -0.23474972 -0.0411740206 0.134501398
v -0.234427407 -0.0436206572 0.134023458
v -0.235736594 -0.0409331247 0.13538526
v -0.236716479 -0.0416656062 0.135947585
v -0.237115338 -0.0429423787 0.135858983
v -0.236699566 -0.0440155379 0.135171354
v -0.236021459 -0.0418858752 0.13662678
v -0.236341938 -0.0431875102 0.136614799
v -0.23600781 -0.0442347713 0.135847345
v -0.234388947 -0.147960305 0.0031643894
v -0.234388947 -0.145491228 0.00109257561
v -0.23218894 -0.145491228 0.00109257875
v -0.232188955 -0.152898476 0.00730801979
v -0.234388962 -0.155367553 0.00937983021
v -0.232188955 -0.155367568 0.00937983301
v 0.232073054 -0.147960395 0.00316433376
v 0.232073054 -0.145491317 0.00109252008
v 0.234273061 -0.145491317 0.0010925231
v 0.234273046 -0.14796041 0.00316433678
v 0.234273046 -0.150429487 0.00523615023
v 0.234273046 -0.152898565 0.00730796391
v 0.232073039 -0.155367658 0.00937977433
v 0.234273046 -0.155367658 0.00937977806
v 0.232979432 -0.0435332805 0.137680918
v 0.234035403 -0.0434950255 0.137562931
v 0.233918622 -0.0421621166 0.137478456
v 0.232950121 -0.0421972051 0.137586668
v 0.233631551 -0.0412917882 0.136491075
v 0.232878014 -0.0413190983 0.136575282
v 0.23334232 -0.0413938686 0.135179207
v 0.233527645 -0.0423739813 0.13420473
v 0.233220384 -0.0424085557 0.134311303
v 0.234134853 -0.0412719697 0.13480331
v 0.23487702 -0.0420542397 0.137145743
v 0.233337149 -0.0437414646 0.134395778
v 0.235102803 -0.0433748774 0.137192354
v 0.233913466 -0.0445097163 0.136695012
v 0.234308332 -0.044534795 0.135145694
v 0.233624235 -0.044611793 0.135383144
v 0.234867275 -0.0444023535 0.136363909
v 0.235702947 -0.0442346372 0.135846719
v 0.236809522 -0.0429424122 0.135858878
v 0.235716611 -0.0418857373 0.136626124
v 0.234121189 -0.0436208695 0.13402389
v 0.234928548 -0.0410923809 0.135876149
v 0.233800411 -0.0423193052 0.134036094
v 0.234028071 -0.0422472022 0.133813605
v 0.234443873 -0.0411740467 0.134501249
v 0.235808432 -0.0407427885 0.13479808
v 0.235406831 -0.0442564599 0.134287357
v 0.236410633 -0.0416656323 0.135947466
v 0.23639372 -0.0440155677 0.135171235
v 0.236913696 -0.0437534787 0.13436313
v 0.237390935 -0.0426493585 0.134955332
v 0.236933112 -0.0414022915 0.135135502
v 0.234675735 -0.0410571806 0.134140745
v 0.234656319 -0.0434083678 0.133368388
v 0.234198496 -0.0421613008 0.133548558
v 0.236078933 -0.0436234735 0.132335395
v 0.234796539 -0.0432788357 0.132968858
v 0.234301925 -0.0420657061 0.133253634
v 0.234817594 -0.0409261249 0.133736521
v 0.237235501 -0.0434564017 0.133447111
v 0.236041427 -0.0405276455 0.134134635
v 0.237751186 -0.0423168205 0.133929998
v 0.237256572 -0.0411036946 0.134214774
v 0.237846181 -0.0419898555 0.132921726
v 0.237343714 -0.0408038646 0.133290187
v 0.233743444 -0.000415305025 0.00874199346
v 0.232510939 7.19607415e-05 0.00893563312
v 0.234245092 -0.00159231084 0.00834581349
v 0.231269598 -0.000415953167 0.00881329551
v 0.237322316 -0.043157775 0.132526234
v 0.233722061 -0.0027695836 0.0079791639
v 0.23248072 -0.00325749745 0.00785682723
v 0.234844431 -0.0431141444 0.132460982
v 0.231248215 -0.0027702318 0.00805046596
v 0.234341964 -0.0419281535 0.132829458
v 0.230746567 -0.00159322587 0.00844664592
v 0.234865844 -0.0407602303 0.133224949
v -0.210707277 0.137752444 0.00209499989
v -0.217780411 0.152752444 0.00209499989
v 0.218109384 0.15275237 0.00209499989
v -0.216080993 0.137752444 0.00209499989
v 0.216409937 0.137752369 0.00209499989
v -0.231080979 0.156752437 0.00209499989
v -0.217780411 0.156752437 0.00209499989
v -0.231080979 0.152752444 0.00209499989
v -0.231081039 -0.15446265 0.00209499989
v -0.216081038 -0.15446265 0.00209499989
v 0.231409937 0.15275237 0.00209499989
v 0.218109384 0.156752363 0.00209499989
v 0.231409937 0.156752363 0.00209499989
v 0.231409892 -0.15446271 0.00209499989
v 0.216409892 -0.15446271 0.00209499989
v -0.232881069 -0.00325742248 0.00785682257
v -0.234122455 -0.00276983716 0.00797997974
v -0.234645545 -0.00159269781 0.00834697206
v -0.231648549 -0.00276983762 0.0080496408
v -0.231146947 -0.00159269839 0.00844548736
v -0.231670022 -0.000415559014 0.00881247967
v -0.232911423 7.20262542e-05 0.00893563777
v -0.234143943 -0.000415558636 0.00874281861
v 0.232510939 7.19607415e-05 0.00893563312
v 0.233743444 -0.000415305025 0.00874199346
v 0.234245092 -0.00159231084 0.00834581349
v 0.231269598 -0.000415953167 0.00881329551
v 0.230746567 -0.00159322587 0.00844664592
v 0.231248215 -0.0027702318 0.00805046596
v 0.23248072 -0.00325749745 0.00785682723
v 0.233722061 -0.0027695836 0.0079791639
v -0.217780411 0.152752444 0.00209499989
v -0.217780441 0.142810896 0.0170949996
v 0.218109384 0.142810836 0.0170949996
v 0.218109384 0.15275237 0.00209499989
v -0.234389096 0.00853968225 0.18465881
v -0.234389111 0.0036015145 0.188802436
v -0.232189104 0.00113242876 0.190874264
v -0.232189104 0.00853968039 0.18465881
v -0.232189119 -0.00133665535 0.192946076
v -0.234389111 -0.00133665348 0.192946061
v 0.232072905 0.00853959005 0.184658751
v 0.232072905 0.00607050629 0.186730579
v 0.234272897 0.0060705049 0.186730579
v 0.234272897 0.00853958912 0.184658766
v 0.234272897 0.00360142067 0.188802391
v 0.23207289 0.00360142253 0.188802391
v 0.234272897 0.00113233656 0.190874204
v 0.23207289 0.00113233842 0.190874204
v 0.234272882 -0.00133674743 0.192946017
v 0.23207289 -0.00133674557 0.192946017
v -0.234389022 -0.0799879208 0.094199121
v -0.234389022 -0.0802797303 0.0888370201
v -0.232189015 -0.0802797303 0.0888370275
v -0.232189029 -0.0799879283 0.0941991284
v 0.232072979 -0.0799880177 0.0941990688
v 0.232072979 -0.0802798197 0.0888369679
v 0.234272972 -0.0802798197 0.0888369679
v 0.234272972 -0.0799880177 0.0941990688
v -0.295520723 0.0860896409 0.310159206
v 0.279878765 -0.139090106 0.0418001264
v 0.279878795 0.0701507404 0.291164041
v 0.294926226 -0.139090106 0.0418001264
v 0.294926226 -0.155028924 0.0228049643
v 0.294926256 0.0701507404 0.291164041
v -0.295520753 -0.155028835 0.0228049643
v 0.294926286 0.0860895514 0.310159206
v -0.234389096 -0.00555700017 0.177887782
v -0.234389096 -0.00526519865 0.183249891
v -0.232189104 -0.00526520051 0.183249891
v -0.232189089 -0.00555700203 0.177887797
v 0.232072905 -0.00555709191 0.177887738
v 0.232072905 -0.00526529085 0.183249831
v 0.234272897 -0.00526529225 0.183249831
v 0.234272897 -0.00555709377 0.177887738
v -0.234389052 -0.0604394786 0.117495969
v -0.234389037 -0.0607312806 0.112133868
v -0.232189044 -0.0607312843 0.112133875
v -0.232189044 -0.0604394786 0.117495976
v 0.232072949 -0.060439568 0.117495917
v 0.232072964 -0.0607313737 0.112133816
v 0.234272957 -0.0607313775 0.112133816
v 0.234272957 -0.0604395717 0.117495917
v -0.232188955 -0.155367568 0.00937983301
v -0.232189015 -0.104691826 0.069772616
v -0.234389111 -0.0042632171 0.18945834
v -0.234388962 -0.155367553 0.00937983021
v -0.234389111 -0.00133665348 0.192946061
v -0.232189119 -0.00133665535 0.192946076
v 0.234272957 -0.066379711 0.1154311
v 0.234272942 -0.0629086569 0.11956773
v 0.232072935 -0.0468312614 0.138727948
v 0.234272927 -0.0468312614 0.138727963
v 0.232072964 -0.0824570954 0.0962708816
v 0.232072935 -0.0433601998 0.142864585
v 0.234272972 -0.0824571028 0.0962708816
v 0.234272912 -0.0272828154 0.162024811
v 0.23207292 -0.0272828136 0.162024796
v 0.234272972 -0.085928157 0.0921342522
v 0.232072964 -0.085928157 0.0921342522
v 0.232072905 -0.0238117557 0.166161433
v 0.234272987 -0.104691915 0.0697725564
v 0.234272912 -0.0238117576 0.166161433
v 0.232072994 -0.104691915 0.0697725564
v 0.234273046 -0.155367658 0.00937977806
v 0.232073039 -0.155367658 0.00937977433
v 0.23207289 -0.0042633093 0.189458281
v 0.23207289 -0.00133674557 0.192946017
v 0.234272882 -0.00133674743 0.192946017
v -0.234069228 -0.0413463339 0.135032862
v -0.234106943 -0.0423190221 0.134035438
v -0.23352541 -0.0424084999 0.134311333
v -0.233929247 -0.0446117297 0.135383159
v -0.233936578 -0.0412917249 0.13649109
v -0.23517172 -0.044402428 0.136364326
v -0.235181451 -0.0420543179 0.137146175
v -0.23540692 -0.0433750004 0.137192935
v -0.234223649 -0.0421620496 0.137478456
v -0.234340414 -0.0434949584 0.137562931
v -0.233253658 -0.0445445925 0.136802807
v -0.233110219 -0.0414132699 0.135239214
v -0.233642176 -0.043741405 0.134395808
v -0.233079568 -0.0424246527 0.134361103
v -0.233284295 -0.0435332097 0.137680918
v -0.233254969 -0.0421971343 0.137586668
v 0.232804045 -0.0437607989 0.134455353
v -0.232189 -0.0972845703 0.0635571703
v -0.232189044 -0.0582621992 0.110062063
v -0.234389022 -0.0778106451 0.0867652074
v -0.234388992 -0.0972845703 0.0635571703
v -0.234389096 0.000383148988 0.179952607
v -0.232189089 0.000383147213 0.179952621
v 0.232072949 -0.0421848968 0.129222229
v 0.232072964 -0.0582622886 0.110062003
v 0.234272957 -0.0582622923 0.110062003
v 0.234272972 -0.0617333502 0.105925374
v 0.232072935 -0.0226364508 0.152519077
v 0.234272987 -0.0778107345 0.0867651552
v 0.232072979 -0.0778107345 0.0867651552
v 0.234272987 -0.0812817961 0.0826285258
v 0.234272927 -0.0226364527 0.152519077
v 0.232072994 -0.0812817961 0.0826285183
v 0.234273002 -0.0972846597 0.0635571182
v 0.232073009 -0.0972846597 0.0635571182
v 0.23207292 -0.0191653892 0.156655714
v 0.232072905 -0.00308800815 0.175815925
v 0.232072905 0.000383056904 0.179952562
v 0.234272897 0.000383055129 0.179952562
v -0.234389082 -0.0251054429 0.154590949
v -0.234389082 -0.024813639 0.159953043
v -0.232189089 -0.0248136409 0.159953043
v -0.232189074 -0.0251054447 0.154590949
v 0.23207292 -0.0251055341 0.15459089
v 0.23207292 -0.0248137303 0.159952983
v 0.234272912 -0.0248137321 0.159952998
v 0.234272927 -0.025105536 0.15459089
v -0.234389067 -0.0408910252 0.140792832
v -0.234389067 -0.0411828309 0.135430723
v -0.232189059 -0.0411828309 0.135430723
v -0.232189074 -0.0408910252 0.140792832
v 0.232072935 -0.0408911183 0.140792772
v 0.232072935 -0.0411829203 0.135430664
v 0.234272942 -0.0411829241 0.135430679
v 0.234272927 -0.0408911183 0.140792772
v -0.232189089 -0.000618827646 0.173744172
v -0.232189029 -0.055793114 0.10799025
v -0.234389067 -0.02016728 0.150447309
v -0.232189029 -0.0592641756 0.103853613
v -0.232189015 -0.0753415599 0.0846934021
v -0.234388947 -0.145491228 0.00109257561
v -0.23218894 -0.145491228 0.00109257875
v -0.232189104 0.00853968039 0.18465881
v -0.234389096 0.00853968225 0.18465881
v 0.232072964 -0.0557932071 0.10799019
v 0.232072905 0.00285214698 0.177880749
v 0.234272957 -0.0397158191 0.127150401
v 0.234272942 -0.0362447612 0.131287038
v 0.232072964 -0.059264265 0.103853554
v 0.234272927 -0.020167375 0.150447249
v 0.234272972 -0.059264265 0.103853561
v 0.232072994 -0.0753416494 0.0846933424
v 0.234272927 -0.0166963134 0.154583886
v 0.234272987 -0.0753416568 0.0846933424
v 0.232072994 -0.0788127109 0.0805567056
v 0.234272912 -0.00061891973 0.173744112
v 0.234272987 -0.0788127109 0.080556713
v 0.234272912 0.00285214535 0.177880749
v 0.234273002 -0.094815582 0.0614853054
v 0.232073054 -0.145491317 0.00109252008
v 0.234273061 -0.145491317 0.0010925231
v 0.234272897 0.00853958912 0.184658766
v 0.232072905 0.00853959005 0.184658751
v -0.234389052 -0.0446538888 0.131294101
v -0.234389067 -0.0443620831 0.136656195
v -0.232189059 -0.0443620868 0.136656195
v -0.232189059 -0.0446538888 0.131294101
v 0.232072949 -0.0446539819 0.131294042
v 0.232072935 -0.0443621762 0.136656135
v 0.234272942 -0.0443621762 0.136656135
v 0.234272942 -0.0446539819 0.131294042
v -0.234389082 -0.0213425793 0.16408968
v -0.234389082 -0.0216343813 0.158727571
v -0.232189074 -0.0216343831 0.158727586
v -0.232189089 -0.0213425811 0.16408968
v 0.23207292 -0.0213426705 0.16408962
v 0.23207292 -0.0216344725 0.158727527
v 0.234272927 -0.0216344744 0.158727527
v 0.234272912 -0.0213426724 0.16408962
v -0.234389037 -0.0607312806 0.112133868
v -0.234389052 -0.0446538888 0.131294101
v -0.232189059 -0.0446538888 0.131294101
v -0.232189044 -0.0607312843 0.112133875
v -0.234389082 -0.0216343813 0.158727571
v -0.234389096 -0.00555700017 0.177887782
v -0.232189089 -0.00555700203 0.177887797
v -0.232189074 -0.0216343831 0.158727586
v -0.234389067 -0.0411828309 0.135430723
v -0.234389082 -0.0251054429 0.154590949
v -0.232189074 -0.0251054447 0.154590949
v -0.232189059 -0.0411828309 0.135430723
v -0.234389007 -0.0997536555 0.0656289831
v -0.234389022 -0.0837507844 0.0847003907
v -0.232189015 -0.0837507918 0.0847003907
v -0.232189 -0.0997536555 0.0656289905
v -0.234389022 -0.0802797303 0.0888370201
v -0.234389037 -0.0642023385 0.107997239
v -0.232189044 -0.0642023459 0.107997239
v -0.232189015 -0.0802797303 0.0888370275
v 0.232072964 -0.0607313737 0.112133816
v 0.232072949 -0.0446539819 0.131294042
v 0.234272942 -0.0446539819 0.131294042
v 0.234272957 -0.0607313775 0.112133816
v 0.23207292 -0.0216344725 0.158727527
v 0.232072905 -0.00555709191 0.177887738
v 0.234272897 -0.00555709377 0.177887738
v 0.234272927 -0.0216344744 0.158727527
v 0.232072935 -0.0411829203 0.135430664
v 0.23207292 -0.0251055341 0.15459089
v 0.234272927 -0.025105536 0.15459089
v 0.234272942 -0.0411829241 0.135430679
v 0.232072994 -0.0997537449 0.0656289309
v 0.232072979 -0.0837508813 0.0847003311
v 0.234272987 -0.0837508813 0.0847003385
v 0.234273002 -0.0997537449 0.0656289309
v 0.232072979 -0.0802798197 0.0888369679
v 0.232072964 -0.0642024353 0.107997186
v 0.234272957 -0.0642024353 0.107997186
v 0.234272972 -0.0802798197 0.0888369679
v -0.234389096 -0.00526519865 0.183249891
v -0.234389111 -0.00179413357 0.187386528
v -0.232189104 -0.00179413531 0.187386528
v -0.232189104 -0.00526520051 0.183249891
v -0.234389082 -0.024813639 0.159953043
v -0.234389082 -0.0213425793 0.16408968
v -0.232189089 -0.0213425811 0.16408968
v -0.232189089 -0.0248136409 0.159953043
v -0.234389067 -0.0443620831 0.136656195
v -0.234389067 -0.0408910252 0.140792832
v -0.232189074 -0.0408910252 0.140792832
v -0.232189059 -0.0443620868 0.136656195
v -0.234389022 -0.0834589824 0.0900624916
v -0.234389022 -0.0799879208 0.094199121
v -0.232189029 -0.0799879283 0.0941991284
v -0.232189029 -0.0834589824 0.0900624916
v -0.234389037 -0.0639105365 0.11335934
v -0.234389052 -0.0604394786 0.117495969
v -0.232189044 -0.0604394786 0.117495976
v -0.232189044 -0.0639105365 0.11335934
v 0.232072905 -0.00526529085 0.183249831
v 0.23207289 -0.00179422565 0.187386468
v 0.234272897 -0.0017942274 0.187386468
v 0.234272897 -0.00526529225 0.183249831
v 0.23207292 -0.0248137303 0.159952983
v 0.23207292 -0.0213426705 0.16408962
v 0.234272912 -0.0213426724 0.16408962
v 0.234272912 -0.0248137321 0.159952998
v 0.232072935 -0.0443621762 0.136656135
v 0.232072935 -0.0408911183 0.140792772
v 0.234272927 -0.0408911183 0.140792772
v 0.234272942 -0.0443621762 0.136656135
v 0.232072979 -0.0834590718 0.090062432
v 0.232072979 -0.0799880177 0.0941990688
v 0.234272972 -0.0799880177 0.0941990688
v 0.234272972 -0.0834590793 0.0900624394
v 0.232072949 -0.0639106259 0.113359287
v 0.232072949 -0.060439568 0.117495917
v 0.234272957 -0.0604395717 0.117495917
v 0.234272957 -0.0639106333 0.113359287
v -0.280473262 0.0764824301 0.285851181
v 0.279878795 0.0764823407 0.285851181
v 0.279878765 -0.132758498 0.0364872888
v 0.294926256 0.0764823407 0.285851181
v 0.294926226 -0.132758513 0.0364872888
v -0.280473262 0.0924212411 0.304846346
v 0.279878795 0.0924211517 0.304846346
v -0.280473292 -0.132758424 0.0364872888
v 0.279878765 -0.148697317 0.0174921267
v -0.280473292 -0.148697227 0.0174921267
v -0.295520753 -0.132758424 0.0364872888
v -0.295520723 0.0764824301 0.285851181
v -0.234389037 -0.0642023385 0.107997239
v -0.234389037 -0.0639105365 0.11335934
v -0.232189044 -0.0639105365 0.11335934
v -0.232189044 -0.0642023459 0.107997239
v 0.232072964 -0.0642024353 0.107997186
v 0.232072949 -0.0639106259 0.113359287
v 0.234272957 -0.0639106333 0.113359287
v 0.234272957 -0.0642024353 0.107997186
v -0.234389022 -0.0837507844 0.0847003907
v -0.234389022 -0.0834589824 0.0900624916
v -0.232189029 -0.0834589824 0.0900624916
v -0.232189015 -0.0837507918 0.0847003907
v 0.232072979 -0.0837508813 0.0847003311
v 0.232072979 -0.0834590718 0.090062432
v 0.234272972 -0.0834590793 0.0900624394
v 0.234272987 -0.0837508813 0.0847003385
v -0.234389096 -0.00208593509 0.182024419
v -0.234389096 0.000383148988 0.179952607
v -0.232189089 0.000383147213 0.179952621
v -0.232189104 -0.00208593672 0.182024434
v -0.234389111 -0.00179413357 0.187386528
v -0.232189104 -0.00179413531 0.187386528
v 0.232072905 -0.00208602706 0.182024375
v 0.232072905 0.000383056904 0.179952562
v 0.234272897 0.000383055129 0.179952562
v 0.234272897 -0.00208602892 0.182024375
v 0.23207289 -0.00179422565 0.187386468
v 0.234272897 -0.0017942274 0.187386468
v -0.234388992 -0.0972845703 0.0635571703
v -0.234389007 -0.0997536555 0.0656289831
v -0.232189 -0.0997536555 0.0656289905
v -0.232189 -0.0972845703 0.0635571703
v 0.232073009 -0.0972846597 0.0635571182
v 0.232072994 -0.0997537449 0.0656289309
v 0.234273002 -0.0997537449 0.0656289309
v 0.234273002 -0.0972846597 0.0635571182
v -0.216080993 0.137752444 0.0170949996
v -0.210707277 0.137752444 0.0170949996
v -0.217780441 0.142810896 0.0170949996
v 0.218109384 0.142810836 0.0170949996
v 0.216409937 0.137752369 0.0170949996
v -0.231080979 0.152752444 0.0170949996
v -0.217780426 0.156752437 0.0170949996
v -0.231080979 0.156752437 0.0170949996
v -0.231081039 -0.154462636 0.0170949996
v -0.216081038 -0.15446265 0.0170949996
v 0.231409937 0.15275237 0.0170949996
v 0.231409937 0.156752363 0.0170949996
v 0.218109369 0.156752363 0.0170949996
v 0.231409892 -0.154462725 0.0170949996
v 0.216409892 -0.15446271 0.0170949996
v -0.210707277 0.137752444 0.00209499989
v -0.210707277 0.137752444 0.0170949996
v -0.216080993 0.137752444 0.0170949996
v -0.216080993 0.137752444 0.00209499989
v 0.216409937 0.137752369 0.00209499989
v 0.216409937 0.137752369 0.0170949996
v -0.216081038 -0.15446265 0.0170949996
v -0.216081038 -0.15446265 0.00209499989
v -0.216080993 0.137752444 0.00209499989
v -0.216080993 0.137752444 0.0170949996
v 0.216409937 0.137752369 0.0170949996
v 0.216409937 0.137752369 0.00209499989
v 0.216409892 -0.15446271 0.00209499989
v 0.216409892 -0.15446271 0.0170949996
v -0.217780441 0.142810896 0.0170949996
v -0.217780411 0.152752444 0.00209499989
v -0.217780411 0.156752437 0.00209499989
v -0.217780426 0.156752437 0.0170949996
v 0.218109384 0.15275237 0.00209499989
v 0.218109384 0.142810836 0.0170949996
v 0.218109369 0.156752363 0.0170949996
v 0.218109384 0.156752363 0.00209499989
v -0.232189044 -0.0582621992 0.110062063
v -0.232189029 -0.055793114 0.10799025
v -0.232189089 -0.000618827646 0.173744172
v -0.232189029 -0.0592641756 0.103853613
v -0.232189015 -0.0753415599 0.0846934021
v -0.232189 -0.0972845703 0.0635571703
v -0.232189089 0.000383147213 0.179952621
v -0.232189104 0.00853968039 0.18465881
v -0.232189104 0.00113242876 0.190874264
v -0.232189104 -0.00208593672 0.182024434
v -0.232189104 -0.00179413531 0.187386528
v -0.232189015 -0.104691826 0.069772616
v -0.232189119 -0.00133665535 0.192946076
v -0.232189104 -0.00526520051 0.183249891
v -0.232189089 -0.0213425811 0.16408968
v -0.232189089 -0.00555700203 0.177887797
v -0.232189074 -0.0216343831 0.158727586
v -0.232189089 -0.0248136409 0.159953043
v -0.232189074 -0.0408910252 0.140792832
v -0.232189074 -0.0251054447 0.154590949
v -0.232189059 -0.0411828309 0.135430723
v -0.232189059 -0.0443620868 0.136656195
v -0.232189044 -0.0604394786 0.117495976
v -0.232189059 -0.0446538888 0.131294101
v -0.232189044 -0.0607312843 0.112133875
v -0.232189044 -0.0639105365 0.11335934
v -0.232189029 -0.0799879283 0.0941991284
v -0.232189044 -0.0642023459 0.107997239
v -0.232189015 -0.0802797303 0.0888370275
v -0.232189029 -0.0834589824 0.0900624916
v -0.232189 -0.0997536555 0.0656289905
v -0.232189015 -0.0837507918 0.0847003907
v -0.232188955 -0.155367568 0.00937983301
v -0.232188955 -0.152898476 0.00730801979
v -0.23218894 -0.145491228 0.00109257875
v 0.232072905 0.00285214698 0.177880749
v 0.232072964 -0.0557932071 0.10799019
v 0.232072964 -0.0582622886 0.110062003
v 0.232072964 -0.059264265 0.103853554
v 0.232072949 -0.0421848968 0.129222229
v 0.232072935 -0.0226364508 0.152519077
v 0.232072979 -0.0778107345 0.0867651552
v 0.232072994 -0.0753416494 0.0846933424
v 0.232072994 -0.0788127109 0.0805567056
v 0.232072994 -0.0812817961 0.0826285183
v 0.23207292 -0.0191653892 0.156655714
v 0.232072905 -0.00308800815 0.175815925
v 0.232073009 -0.0972846597 0.0635571182
v 0.232072905 0.000383056904 0.179952562
v 0.232072905 0.00853959005 0.184658751
v 0.232072905 0.00607050629 0.186730579
v 0.232072905 -0.00208602706 0.182024375
v 0.23207289 0.00360142253 0.188802391
v 0.23207289 -0.00179422565 0.187386468
v 0.23207289 0.00113233842 0.190874204
v 0.23207289 -0.0042633093 0.189458281
v 0.23207289 -0.00133674557 0.192946017
v 0.232072905 -0.00526529085 0.183249831
v 0.232072905 -0.0238117557 0.166161433
v 0.23207292 -0.0213426705 0.16408962
v 0.232072905 -0.00555709191 0.177887738
v 0.23207292 -0.0216344725 0.158727527
v 0.23207292 -0.0248137303 0.159952983
v 0.23207292 -0.0272828136 0.162024796
v 0.232072935 -0.0433601998 0.142864585
v 0.232072935 -0.0408911183 0.140792772
v 0.23207292 -0.0251055341 0.15459089
v 0.232072935 -0.0411829203 0.135430664
v 0.232072935 -0.0443621762 0.136656135
v 0.232072935 -0.0468312614 0.138727948
v 0.232072949 -0.060439568 0.117495917
v 0.232072949 -0.0446539819 0.131294042
v 0.232072964 -0.0607313737 0.112133816
v 0.232072949 -0.0639106259 0.113359287
v 0.232072964 -0.0824570954 0.0962708816
v 0.232072979 -0.0799880177 0.0941990688
v 0.232072964 -0.0642024353 0.107997186
v 0.232072979 -0.0802798197 0.0888369679
v 0.232072979 -0.0834590718 0.090062432
v 0.232072964 -0.085928157 0.0921342522
v 0.232072994 -0.104691915 0.0697725564
v 0.232072994 -0.10222283 0.0677007437
v 0.232073039 -0.155367658 0.00937977433
v 0.232072979 -0.0837508813 0.0847003311
v 0.232073054 -0.147960395 0.00316433376
v 0.232072994 -0.0997537449 0.0656289309
v 0.232073054 -0.145491317 0.00109252008
f 1 2 3
f 3 2 4
f 5 3 4
f 4 6 5
f 6 4 7
f 6 7 8
f 6 8 9
f 9 10 6
f 9 8 11
f 11 12 9
f 12 11 13
f 13 14 12
f 9 12 15
f 15 16 9
f 16 15 17
f 17 18 16
f 9 16 19
f 19 20 9
f 20 19 21
f 21 22 20
f 9 20 23
f 23 24 9
f 24 23 25
f 25 26 24
f 9 24 27
f 27 28 9
f 28 27 29
f 29 30 28
f 31 28 30
f 31 30 1
f 31 1 3
f 3 32 31
f 33 34 35
f 35 36 33
f 33 36 37
f 34 38 35
f 37 39 33
f 35 38 40
f 41 39 37
f 40 42 35
f 37 43 41
f 40 44 42
f 42 44 45
f 41 43 46
f 47 42 45
f 45 48 47
f 47 48 49
f 49 50 47
f 51 47 50
f 50 52 51
f 53 51 52
f 52 54 53
f 55 53 54
f 54 56 55
f 57 53 55
f 55 58 57
f 59 57 58
f 58 60 59
f 61 58 55
f 55 62 61
f 62 63 61
f 64 61 63
f 63 65 64
f 66 63 62
f 62 67 66
f 66 67 68
f 68 69 66
f 70 66 69
f 69 71 70
f 72 69 68
f 68 73 72
f 72 73 74
f 74 75 72
f 76 72 75
f 75 77 76
f 78 75 74
f 74 79 78
f 78 79 80
f 80 81 78
f 82 78 81
f 81 80 83
f 81 84 82
f 83 85 81
f 84 81 85
f 85 86 84
f 46 84 86
f 86 87 46
f 88 46 87
f 46 88 41
f 87 89 88
f 90 91 92
f 92 93 90
f 91 90 94
f 94 95 91
f 96 97 98
f 98 99 96
f 99 98 100
f 100 101 99
f 102 103 104
f 103 102 105
f 105 106 103
f 104 107 102
f 107 104 108
f 109 105 102
f 108 110 107
f 110 108 111
f 112 102 107
f 102 112 109
f 113 107 110
f 107 113 112
f 111 114 110
f 114 111 115
f 116 112 113
f 117 113 110
f 113 117 116
f 115 118 114
f 118 115 119
f 110 120 117
f 120 110 114
f 119 121 118
f 121 119 122
f 118 123 114
f 123 118 121
f 114 124 120
f 124 114 123
f 122 125 121
f 125 122 106
f 106 105 125
f 126 125 105
f 125 126 121
f 105 109 126
f 127 121 126
f 121 127 123
f 128 126 109
f 126 128 127
f 112 116 109
f 129 123 127
f 130 109 116
f 109 130 128
f 116 131 130
f 131 116 117
f 123 129 124
f 117 132 131
f 132 117 120
f 133 120 124
f 120 133 132
f 134 131 132
f 135 132 133
f 132 135 134
f 136 133 124
f 133 136 135
f 137 138 139
f 139 140 137
f 141 137 140
f 140 142 141
f 143 144 145
f 145 146 143
f 146 147 143
f 147 148 143
f 149 143 148
f 148 150 149
f 151 152 153
f 153 154 151
f 155 156 154
f 156 155 157
f 154 153 155
f 158 159 157
f 160 157 155
f 157 160 158
f 153 161 155
f 161 153 152
f 159 158 162
f 152 163 161
f 163 152 164
f 165 166 162
f 167 164 166
f 166 165 167
f 164 167 163
f 168 167 165
f 169 163 167
f 167 168 169
f 163 169 170
f 170 161 163
f 162 171 165
f 171 162 158
f 161 170 172
f 172 155 161
f 158 173 171
f 173 158 160
f 155 172 160
f 174 173 160
f 173 174 171
f 175 160 172
f 160 175 174
f 172 176 175
f 176 172 170
f 177 165 171
f 170 178 176
f 178 170 169
f 165 177 179
f 179 168 165
f 168 179 169
f 180 179 177
f 181 169 179
f 179 180 181
f 182 178 169
f 169 181 182
f 178 182 176
f 183 175 176
f 171 184 177
f 184 171 174
f 185 174 175
f 174 185 184
f 175 183 185
f 186 177 184
f 187 184 185
f 184 187 186
f 188 185 183
f 185 188 187
f 183 189 188
f 189 183 176
f 177 186 190
f 190 180 177
f 176 191 189
f 191 176 182
f 180 190 192
f 192 181 180
f 193 182 181
f 181 192 193
f 182 193 191
f 194 192 190
f 195 193 192
f 192 194 195
f 193 195 191
f 196 195 194
f 195 196 197
f 197 191 195
f 194 198 196
f 191 197 199
f 198 194 200
f 190 200 194
f 200 201 198
f 200 190 186
f 201 200 186
f 186 202 201
f 202 186 203
f 187 203 186
f 203 204 202
f 203 187 188
f 204 203 205
f 188 205 203
f 205 206 204
f 205 188 189
f 206 205 207
f 189 207 205
f 207 199 206
f 207 189 191
f 199 207 191
f 208 209 210
f 209 208 211
f 212 208 210
f 213 214 209
f 209 215 213
f 211 215 209
f 216 215 211
f 211 217 216
f 210 218 212
f 218 210 219
f 219 220 218
f 212 218 221
f 221 222 212
f 223 224 225
f 226 223 225
f 227 226 225
f 228 227 225
f 229 228 225
f 230 229 225
f 231 232 233
f 234 231 233
f 234 233 235
f 233 236 235
f 233 237 236
f 238 237 233
f 239 240 241
f 241 242 239
f 243 244 245
f 245 246 243
f 247 245 244
f 244 248 247
f 249 250 251
f 251 252 249
f 253 251 250
f 250 254 253
f 255 253 254
f 254 256 255
f 257 255 256
f 256 258 257
f 259 260 261
f 261 262 259
f 263 264 265
f 265 266 263
f 267 268 269
f 269 268 270
f 270 268 271
f 268 267 271
f 270 272 269
f 271 267 273
f 267 269 272
f 272 274 267
f 275 276 277
f 277 278 275
f 279 280 281
f 281 282 279
f 283 284 285
f 285 286 283
f 287 288 289
f 289 290 287
f 291 292 293
f 293 294 291
f 295 293 292
f 292 296 295
f 297 298 299
f 298 300 299
f 299 301 297
f 302 299 300
f 303 297 301
f 300 304 302
f 305 302 304
f 306 303 301
f 301 307 306
f 308 305 304
f 309 306 307
f 304 310 308
f 307 311 309
f 312 309 311
f 311 313 312
f 314 308 310
f 315 314 310
f 310 316 315
f 131 134 130
f 317 128 130
f 318 127 128
f 128 317 318
f 127 318 129
f 319 318 317
f 318 319 129
f 320 124 129
f 130 321 317
f 321 130 134
f 124 320 322
f 322 136 124
f 134 323 321
f 323 134 135
f 324 135 136
f 135 324 323
f 136 322 324
f 325 323 324
f 323 325 321
f 326 324 322
f 324 326 325
f 322 327 326
f 327 322 320
f 328 317 321
f 317 328 319
f 329 129 319
f 129 329 320
f 330 319 328
f 319 330 329
f 331 326 327
f 332 325 326
f 325 332 321
f 326 331 332
f 157 328 321
f 156 321 332
f 321 156 157
f 154 332 331
f 332 154 156
f 331 151 154
f 151 331 327
f 328 157 159
f 159 330 328
f 327 164 151
f 164 327 320
f 330 159 333
f 333 329 330
f 166 320 329
f 329 333 166
f 320 166 164
f 162 333 159
f 333 162 166
f 152 151 164
f 334 335 336
f 336 337 334
f 338 336 335
f 335 339 338
f 340 341 342
f 343 342 341
f 344 340 342
f 345 343 341
f 341 346 345
f 347 345 346
f 342 348 344
f 346 349 347
f 350 347 349
f 349 351 350
f 352 344 348
f 353 352 348
f 354 353 348
f 348 355 354
f 356 357 358
f 358 359 356
f 360 361 362
f 362 363 360
f 364 365 366
f 366 367 364
f 368 369 370
f 370 371 368
f 372 373 374
f 373 375 374
f 375 376 374
f 377 374 376
f 376 378 377
f 379 372 374
f 374 380 379
f 381 382 383
f 384 383 382
f 385 381 383
f 386 384 382
f 383 387 385
f 388 385 387
f 389 386 382
f 387 390 388
f 391 388 390
f 392 389 382
f 390 393 391
f 394 392 382
f 393 395 391
f 396 391 395
f 395 397 396
f 398 394 382
f 382 399 398
f 400 401 402
f 402 403 400
f 404 405 406
f 406 407 404
f 408 409 410
f 410 411 408
f 412 413 414
f 414 415 412
f 416 417 418
f 418 419 416
f 420 421 422
f 422 423 420
f 424 425 426
f 426 427 424
f 428 429 430
f 430 431 428
f 432 433 434
f 434 435 432
f 436 437 438
f 438 439 436
f 440 441 442
f 442 443 440
f 444 445 446
f 446 447 444
f 448 449 450
f 450 451 448
f 452 453 454
f 454 455 452
f 456 457 458
f 458 459 456
f 460 461 462
f 462 463 460
f 464 465 466
f 466 467 464
f 468 469 470
f 470 471 468
f 472 473 474
f 474 475 472
f 476 477 478
f 478 479 476
f 480 481 482
f 482 483 480
f 484 485 486
f 486 487 484
f 488 489 490
f 490 491 488
f 492 493 494
f 494 495 492
f 496 497 498
f 498 497 499
f 499 500 498
f 497 496 501
f 501 502 497
f 498 503 496
f 503 498 504
f 504 505 503
f 496 503 506
f 506 507 496
f 508 509 510
f 510 511 508
f 512 513 514
f 514 515 512
f 516 517 518
f 518 519 516
f 520 521 522
f 522 523 520
f 524 525 526
f 526 527 524
f 528 524 527
f 527 529 528
f 530 531 532
f 532 533 530
f 534 530 533
f 533 535 534
f 536 537 538
f 538 539 536
f 540 541 542
f 542 543 540
f 544 545 546
f 545 547 546
f 547 545 548
f 546 549 544
f 549 546 550
f 550 551 549
f 544 549 552
f 552 553 544
f 548 554 547
f 547 554 555
f 555 556 547
f 557 554 548
f 548 558 557
f 559 560 561
f 561 562 559
f 560 559 563
f 563 564 560
f 565 566 567
f 567 568 565
f 569 570 571
f 571 572 569
f 573 574 575
f 575 576 573
f 577 578 579
f 579 580 577
f 581 582 583
f 584 582 581
f 581 585 584
f 585 581 586
f 587 581 583
f 587 583 588
f 588 589 587
f 590 587 589
f 591 590 589
f 592 591 589
f 589 593 592
f 594 591 592
f 592 595 594
f 596 594 595
f 595 597 596
f 598 595 592
f 592 599 598
f 600 598 599
f 599 601 600
f 602 599 592
f 592 603 602
f 604 602 603
f 603 605 604
f 606 603 592
f 592 607 606
f 608 606 607
f 607 609 608
f 610 607 592
f 592 611 610
f 612 610 611
f 611 592 613
f 613 614 611
f 586 611 614
f 585 586 614
f 614 615 585
f 616 617 618
f 618 617 619
f 618 620 616
f 616 620 621
f 622 618 619
f 619 623 622
f 622 623 624
f 624 625 622
f 616 621 626
f 626 627 616
f 628 625 624
f 616 627 629
f 630 616 629
f 629 631 630
f 631 629 632
f 632 633 631
f 633 632 634
f 634 635 633
f 635 634 636
f 636 637 635
f 636 634 638
f 638 639 636
f 638 640 639
f 640 638 641
f 641 642 640
f 639 640 643
f 643 644 639
f 645 644 643
f 643 646 645
f 646 643 647
f 647 648 646
f 645 646 649
f 649 650 645
f 649 651 650
f 651 649 652
f 652 653 651
f 650 651 654
f 654 655 650
f 654 656 655
f 656 654 657
f 657 658 656
f 655 656 659
f 659 660 655
f 661 660 659
f 659 662 661
f 663 661 662
f 662 659 664
f 662 665 663
f 664 666 662
f 665 662 666
f 665 666 628
f 665 628 624
f 624 667 665
