v 0.299734771 -0.0455151424 0.16215378
v 0.299734771 -0.0446866043 0.164781585
v 0.299734771 -0.0459588692 0.167225584
v 0.299734771 -0.0479591377 0.160881519
v 0.299734771 -0.0505869351 0.161710054
v 0.299734771 -0.0518592037 0.164154053
v 0.299734771 -0.0510306656 0.166781858
v 0.299734771 -0.0485866666 0.168054119
v -0.300536156 -0.0510305762 0.166781858
v -0.300536156 -0.0485865772 0.168054119
v -0.300536156 -0.0459587798 0.167225584
v -0.300536156 -0.0518591143 0.164154053
v -0.300536156 -0.0505868457 0.161710054
v -0.300536156 -0.0479590483 0.160881519
v -0.300536156 -0.0455150492 0.16215378
v -0.300536156 -0.0446865112 0.164781585
v -0.300536156 -0.0485865772 0.168054119
v 0.299734771 -0.0485866666 0.168054119
v 0.299734771 -0.0459588692 0.167225584
v -0.300536156 -0.0510305762 0.166781858
v -0.300536156 -0.0459587798 0.167225584
v 0.299734771 -0.0510306656 0.166781858
v 0.299734771 -0.0446866043 0.164781585
v -0.300536156 -0.0518591143 0.164154053
v -0.300536156 -0.0446865112 0.164781585
v 0.299734771 -0.0518592037 0.164154053
v 0.299734771 -0.0455151424 0.16215378
v -0.300536156 -0.0505868457 0.161710054
v -0.300536156 -0.0455150492 0.16215378
v 0.299734771 -0.0505869351 0.161710054
v 0.299734771 -0.0479591377 0.160881519
v -0.300536156 -0.0479590483 0.160881519
f 1 2 3
f 4 1 3
f 5 4 3
f 6 5 3
f 7 6 3
f 8 7 3
f 9 10 11
f 12 9 11
f 12 11 13
f 11 14 13
f 11 15 14
f 16 15 11
f 17 18 19
f 18 17 20
f 19 21 17
f 20 22 18
f 21 19 23
f 22 20 24
f 23 25 21
f 24 26 22
f 25 23 27
f 26 24 28
f 27 29 25
f 28 30 26
f 29 27 31
f 30 28 32
f 31 32 29
f 32 31 30
