v 0.293140024 -0.244551361 0.664300919
v 0.293140024 -0.238480419 0.664300919
v 0.296212107 -0.238480419 0.668898582
v 0.296212107 -0.244551361 0.668898582
v 0.297290862 -0.238480419 0.67432189
v 0.297290862 -0.244551361 0.67432189
v 0.296212107 -0.238480419 0.679745257
v 0.296212107 -0.244551361 0.679745257
v 0.293140024 -0.238480419 0.684342921
v 0.293140024 -0.244551361 0.684342921
v -0.293140024 -0.244552121 0.664300978
v -0.296212107 -0.244552121 0.668898642
v -0.296212107 -0.238481179 0.668898642
v -0.293140024 -0.238481179 0.664300978
v -0.297290862 -0.238481179 0.674322009
v -0.297290862 -0.244552121 0.674322009
v -0.296212107 -0.238481179 0.679745317
v -0.296212107 -0.244552121 0.679745317
v -0.293140024 -0.238481179 0.68434304
v -0.293140024 -0.244552121 0.68434304
v 0.287205637 -0.247474715 0.672629178
v 0.286246777 -0.247474715 0.671194136
v 0.286275327 -0.245812953 0.671165586
v 0.287242949 -0.245812953 0.67261374
v 0.287542343 -0.247474715 0.67432189
v 0.287582725 -0.245812953 0.67432189
v 0.287205637 -0.247474715 0.676014662
v 0.287242949 -0.245812953 0.676030099
v 0.286246777 -0.247474715 0.677449703
v 0.286275327 -0.245812953 0.677478254
v -0.287205637 -0.247475475 0.672629237
v -0.287242949 -0.245813712 0.6726138
v -0.286275327 -0.245813712 0.671165645
v -0.286246777 -0.247475475 0.671194255
v -0.287542343 -0.247475475 0.674322009
v -0.287582725 -0.245813712 0.674322009
v -0.287205637 -0.247475475 0.676014721
v -0.287242949 -0.245813712 0.676030219
v -0.286246777 -0.247475475 0.677449763
v -0.286275327 -0.245813712 0.677478313
v 0.290394902 -0.258490115 0.681597829
v 0.290693641 -0.261016279 0.681896567
v 0.293015748 -0.261016279 0.678421259
v 0.292625427 -0.258490115 0.678259611
v 0.29383117 -0.261016279 0.67432189
v 0.291358829 -0.254658759 0.677734971
v 0.289425492 -0.254658759 0.680628419
v 0.293408692 -0.258490115 0.67432189
v 0.293015748 -0.261016279 0.670222521
v 0.292037725 -0.254658759 0.67432189
v 0.288724095 -0.249687269 0.67664361
v 0.287408948 -0.249687269 0.678611875
v 0.286246777 -0.247474715 0.677449703
v 0.287205637 -0.247474715 0.676014662
v 0.289185911 -0.249687269 0.67432189
v 0.287542343 -0.247474715 0.67432189
v 0.288724095 -0.249687269 0.672000229
v 0.287205637 -0.247474715 0.672629178
v 0.287408948 -0.249687269 0.670031965
v 0.286246777 -0.247474715 0.671194136
v 0.291358829 -0.254658759 0.670908868
v 0.289425492 -0.254658759 0.66801542
v 0.292625457 -0.258490115 0.670384228
v 0.290394932 -0.258490115 0.66704601
v 0.290693641 -0.261016279 0.666747272
v -0.290394902 -0.25849089 0.681597888
v -0.292625427 -0.25849089 0.678259671
v -0.293015748 -0.261017054 0.678421378
v -0.290693641 -0.261017054 0.681896627
v -0.29383117 -0.261017054 0.674322009
v -0.291358829 -0.254659504 0.677735031
v -0.289425492 -0.254659504 0.680628479
v -0.293408692 -0.25849089 0.674322009
v -0.293015748 -0.261017054 0.67022264
v -0.292037725 -0.254659504 0.674322009
v -0.288724095 -0.249688029 0.676643729
v -0.287408948 -0.249688029 0.678611934
v -0.286246777 -0.247475475 0.677449763
v -0.287205637 -0.247475475 0.676014721
v -0.289185911 -0.249688029 0.674322009
v -0.287542343 -0.247475475 0.674322009
v -0.288724095 -0.249688029 0.672000289
v -0.287205637 -0.247475475 0.672629237
v -0.287408948 -0.249688029 0.670032024
v -0.286246777 -0.247475475 0.671194255
v -0.291358829 -0.254659504 0.670908928
v -0.289425492 -0.254659504 0.66801554
v -0.292625457 -0.25849089 0.670384288
v -0.290394932 -0.25849089 0.66704607
v -0.290693641 -0.261017054 0.666747332
v 0.273097962 -0.244551361 0.664300919
v 0.273097962 -0.238480419 0.664300919
v 0.277695656 -0.238480419 0.661228836
v 0.277695656 -0.244551361 0.661228836
v 0.283118993 -0.238480419 0.660150051
v 0.283118993 -0.244551361 0.660150051
v 0.28854233 -0.238480419 0.661228836
v 0.28854233 -0.244551361 0.661228836
v 0.293140024 -0.238480419 0.664300919
v 0.293140024 -0.244551361 0.664300919
v 0.293140024 -0.244551361 0.684342921
v 0.293140024 -0.238480419 0.684342921
v 0.28854233 -0.238480419 0.687415004
v 0.28854233 -0.244551361 0.687415004
v 0.283118993 -0.238480419 0.688493788
v 0.283118993 -0.244551361 0.688493788
v 0.277695656 -0.238480419 0.687415004
v 0.277695656 -0.244551361 0.687415004
v 0.273097962 -0.238480419 0.684342921
v 0.273097962 -0.244551361 0.684342921
v -0.273097962 -0.244552121 0.664300978
v -0.277695656 -0.244552121 0.661228895
v -0.277695656 -0.238481179 0.661228895
v -0.273097962 -0.238481179 0.664300978
v -0.283118993 -0.238481179 0.660150111
v -0.283118993 -0.244552121 0.660150111
v -0.28854233 -0.238481179 0.661228895
v -0.28854233 -0.244552121 0.661228895
v -0.293140024 -0.238481179 0.664300978
v -0.293140024 -0.244552121 0.664300978
v -0.293140024 -0.244552121 0.68434304
v -0.28854233 -0.244552121 0.687415123
v -0.28854233 -0.238481179 0.687415123
v -0.293140024 -0.238481179 0.68434304
v -0.283118993 -0.238481179 0.688493848
v -0.283118993 -0.244552121 0.688493848
v -0.277695656 -0.238481179 0.687415123
v -0.277695656 -0.244552121 0.687415123
v -0.273097962 -0.238481179 0.68434304
v -0.273097962 -0.244552121 0.68434304
v 0.279315382 -0.261774272 0.665139198
v 0.283118993 -0.261774272 0.664382577
v 0.286922604 -0.261774272 0.665139198
v 0.276090831 -0.261774272 0.667293727
v 0.290147156 -0.261774272 0.667293727
v 0.292301744 -0.261774272 0.670518279
v 0.293058306 -0.261774272 0.67432189
v 0.292301744 -0.261774272 0.678125501
v 0.290147156 -0.261774272 0.681350052
v 0.286922604 -0.261774272 0.683504641
v 0.283118993 -0.261774272 0.684261203
v 0.279315382 -0.261774272 0.683504641
v 0.276090831 -0.261774272 0.681350052
v 0.273936272 -0.261774272 0.678125501
v 0.27317968 -0.261774272 0.67432189
v 0.273936272 -0.261774272 0.670518279
v -0.27317968 -0.261775047 0.674322009
v -0.273936272 -0.261775047 0.67812562
v -0.276090831 -0.261775047 0.681350172
v -0.279315382 -0.261775047 0.68350476
v -0.283118993 -0.261775047 0.684261322
v -0.276090831 -0.261775047 0.667293847
v -0.273936272 -0.261775047 0.670518398
v -0.286922604 -0.261775047 0.68350476
v -0.290147156 -0.261775047 0.681350172
v -0.292301744 -0.261775047 0.67812562
v -0.279315382 -0.261775047 0.665139258
v -0.283118993 -0.261775047 0.664382696
v -0.290147156 -0.261775047 0.667293847
v -0.286922604 -0.261775047 0.665139258
v -0.292301744 -0.261775047 0.670518398
v -0.293058306 -0.261775047 0.674322009
v 0.27317968 -0.261774272 0.67432189
v 0.273936272 -0.261774272 0.678125501
v 0.273222268 -0.261016279 0.678421259
v 0.275544345 -0.261016279 0.681896567
v 0.272406846 -0.261016279 0.67432189
v 0.276090831 -0.261774272 0.681350052
v 0.273936272 -0.261774272 0.670518279
v 0.279019624 -0.261016279 0.684218645
v 0.273222238 -0.261016279 0.670222521
v 0.279315382 -0.261774272 0.683504641
v 0.276090831 -0.261774272 0.667293727
v 0.283118993 -0.261016279 0.685034096
v 0.275544345 -0.261016279 0.666747272
v 0.283118993 -0.261774272 0.684261203
v 0.279315382 -0.261774272 0.665139198
v 0.287218362 -0.261016279 0.684218645
v 0.279019624 -0.261016279 0.664425135
v 0.286922604 -0.261774272 0.683504641
v 0.283118993 -0.261774272 0.664382577
v 0.290693641 -0.261016279 0.681896567
v 0.283118993 -0.261016279 0.663609743
v 0.290147156 -0.261774272 0.681350052
v 0.286922604 -0.261774272 0.665139198
v 0.293015748 -0.261016279 0.678421259
v 0.287218362 -0.261016279 0.664425135
v 0.292301744 -0.261774272 0.678125501
v 0.290147156 -0.261774272 0.667293727
v 0.29383117 -0.261016279 0.67432189
v 0.290693641 -0.261016279 0.666747272
v 0.293058306 -0.261774272 0.67432189
v 0.292301744 -0.261774272 0.670518279
v 0.293015748 -0.261016279 0.670222521
v -0.27317968 -0.261775047 0.674322009
v -0.272406846 -0.261017054 0.674322009
v -0.273222268 -0.261017054 0.678421378
v -0.273936272 -0.261775047 0.670518398
v -0.273936272 -0.261775047 0.67812562
v -0.273222238 -0.261017054 0.67022264
v -0.275544345 -0.261017054 0.681896627
v -0.276090831 -0.261775047 0.667293847
v -0.276090831 -0.261775047 0.681350172
v -0.275544345 -0.261017054 0.666747332
v -0.279019624 -0.261017054 0.684218764
v -0.279315382 -0.261775047 0.665139258
v -0.279315382 -0.261775047 0.68350476
v -0.279019624 -0.261017054 0.664425254
v -0.283118993 -0.261017054 0.685034156
v -0.283118993 -0.261775047 0.664382696
v -0.283118993 -0.261775047 0.684261322
v -0.283118993 -0.261017054 0.663609862
v -0.287218362 -0.261017054 0.684218764
v -0.286922604 -0.261775047 0.665139258
v -0.286922604 -0.261775047 0.68350476
v -0.287218362 -0.261017054 0.664425254
v -0.290693641 -0.261017054 0.681896627
v -0.290147156 -0.261775047 0.667293847
v -0.290147156 -0.261775047 0.681350172
v -0.290693641 -0.261017054 0.666747332
v -0.293015748 -0.261017054 0.678421378
v -0.292301744 -0.261775047 0.670518398
v -0.292301744 -0.261775047 0.67812562
v -0.293015748 -0.261017054 0.67022264
v -0.29383117 -0.261017054 0.674322009
v -0.293058306 -0.261775047 0.674322009
v 0.275843084 -0.258490115 0.681597829
v 0.275544345 -0.261016279 0.681896567
v 0.279019624 -0.261016279 0.684218645
v 0.279181302 -0.258490115 0.683828354
v 0.283118993 -0.261016279 0.685034096
v 0.279705942 -0.254658759 0.682561755
v 0.276812524 -0.254658759 0.680628419
v 0.283118993 -0.258490115 0.684611619
v 0.287218362 -0.261016279 0.684218645
v 0.283118993 -0.254658759 0.683240652
v 0.280797303 -0.249687269 0.679926991
v 0.278829038 -0.249687269 0.678611875
v 0.281426251 -0.247474715 0.678408563
v 0.279991239 -0.247474715 0.677449703
v 0.283118993 -0.249687269 0.680388808
v 0.283118993 -0.247474715 0.67874527
v 0.285440713 -0.249687269 0.679926991
v 0.284811735 -0.247474715 0.678408563
v 0.287408948 -0.249687269 0.678611875
v 0.286246777 -0.247474715 0.677449703
v 0.286532044 -0.254658759 0.682561755
v 0.289425492 -0.254658759 0.680628419
v 0.287056684 -0.258490115 0.683828354
v 0.290394902 -0.258490115 0.681597829
v 0.290693641 -0.261016279 0.681896567
v 0.290394932 -0.258490115 0.66704601
v 0.290693641 -0.261016279 0.666747272
v 0.287218362 -0.261016279 0.664425135
v 0.287056684 -0.258490115 0.664815485
v 0.283118993 -0.261016279 0.663609743
v 0.286532044 -0.254658759 0.666082084
v 0.289425492 -0.254658759 0.66801542
v 0.283118993 -0.258490115 0.664032221
v 0.279019624 -0.261016279 0.664425135
v 0.283118993 -0.254658759 0.665403187
v 0.285440713 -0.249687269 0.668716848
v 0.287408948 -0.249687269 0.670031965
v 0.286246777 -0.247474715 0.671194136
v 0.284811735 -0.247474715 0.670235276
v 0.283118993 -0.249687269 0.668255031
v 0.283118993 -0.247474715 0.66989857
v 0.280797303 -0.249687269 0.668716848
v 0.281426251 -0.247474715 0.670235276
v 0.278829038 -0.249687269 0.670031965
v 0.279991239 -0.247474715 0.671194136
v 0.279705942 -0.254658759 0.666082084
v 0.276812524 -0.254658759 0.66801542
v 0.279181302 -0.258490115 0.664815485
v 0.275843084 -0.258490115 0.66704601
v 0.275544345 -0.261016279 0.666747272
v -0.275843084 -0.25849089 0.681597888
v -0.279181302 -0.25849089 0.683828413
v -0.279019624 -0.261017054 0.684218764
v -0.275544345 -0.261017054 0.681896627
v -0.283118993 -0.261017054 0.685034156
v -0.279705942 -0.254659504 0.682561815
v -0.276812524 -0.254659504 0.680628479
v -0.283118993 -0.25849089 0.684611678
v -0.287218362 -0.261017054 0.684218764
v -0.283118993 -0.254659504 0.683240712
v -0.280797303 -0.249688029 0.679927111
v -0.278829038 -0.249688029 0.678611934
v -0.281426251 -0.247475475 0.678408623
v -0.279991239 -0.247475475 0.677449763
v -0.283118993 -0.249688029 0.680388927
v -0.283118993 -0.247475475 0.678745329
v -0.285440713 -0.249688029 0.679927111
v -0.284811735 -0.247475475 0.678408623
v -0.287408948 -0.249688029 0.678611934
v -0.286246777 -0.247475475 0.677449763
v -0.286532044 -0.254659504 0.682561815
v -0.289425492 -0.254659504 0.680628479
v -0.287056684 -0.25849089 0.683828413
v -0.290394902 -0.25849089 0.681597888
v -0.290693641 -0.261017054 0.681896627
v -0.290394932 -0.25849089 0.66704607
v -0.287056684 -0.25849089 0.664815545
v -0.287218362 -0.261017054 0.664425254
v -0.290693641 -0.261017054 0.666747332
v -0.283118993 -0.261017054 0.663609862
v -0.286532044 -0.254659504 0.666082203
v -0.289425492 -0.254659504 0.66801554
v -0.283118993 -0.25849089 0.66403228
v -0.279019624 -0.261017054 0.664425254
v -0.283118993 -0.254659504 0.665403306
v -0.285440713 -0.249688029 0.668716908
v -0.287408948 -0.249688029 0.670032024
v -0.286246777 -0.247475475 0.671194255
v -0.284811735 -0.247475475 0.670235395
v -0.283118993 -0.249688029 0.668255091
v -0.283118993 -0.247475475 0.669898689
v -0.280797303 -0.249688029 0.668716908
v -0.281426251 -0.247475475 0.670235395
v -0.278829038 -0.249688029 0.670032024
v -0.279991239 -0.247475475 0.671194255
v -0.279705942 -0.254659504 0.666082203
v -0.276812524 -0.254659504 0.66801554
v -0.279181302 -0.25849089 0.664815545
v -0.275843084 -0.25849089 0.66704607
v -0.275544345 -0.261017054 0.666747332
v 0.281426251 -0.247474715 0.670235276
v 0.279991239 -0.247474715 0.671194136
v 0.279962659 -0.245812953 0.671165586
v 0.281410813 -0.245812953 0.670197964
v 0.283118993 -0.247474715 0.66989857
v 0.283118993 -0.245812953 0.669858158
v 0.284811735 -0.247474715 0.670235276
v 0.284827203 -0.245812953 0.670197964
v 0.286246777 -0.247474715 0.671194136
v 0.286275327 -0.245812953 0.671165586
v 0.284811735 -0.247474715 0.678408563
v 0.286246777 -0.247474715 0.677449703
v 0.286275327 -0.245812953 0.677478254
v 0.284827203 -0.245812953 0.678445876
v 0.283118993 -0.247474715 0.67874527
v 0.283118993 -0.245812953 0.678785622
v 0.281426251 -0.247474715 0.678408563
v 0.281410813 -0.245812953 0.678445876
v 0.279991239 -0.247474715 0.677449703
v 0.279962659 -0.245812953 0.677478254
v -0.281426251 -0.247475475 0.670235395
v -0.281410813 -0.245813712 0.670198023
v -0.279962659 -0.245813712 0.671165645
v -0.279991239 -0.247475475 0.671194255
v -0.283118993 -0.247475475 0.669898689
v -0.283118993 -0.245813712 0.669858277
v -0.284811735 -0.247475475 0.670235395
v -0.284827203 -0.245813712 0.670198023
v -0.286246777 -0.247475475 0.671194255
v -0.286275327 -0.245813712 0.671165645
v -0.284811735 -0.247475475 0.678408623
v -0.284827203 -0.245813712 0.678445935
v -0.286275327 -0.245813712 0.677478313
v -0.286246777 -0.247475475 0.677449763
v -0.283118993 -0.247475475 0.678745329
v -0.283118993 -0.245813712 0.678785741
v -0.281426251 -0.247475475 0.678408623
v -0.281410813 -0.245813712 0.678445935
v -0.279991239 -0.247475475 0.677449763
v -0.279962659 -0.245813712 0.677478313
v 0.27011621 -0.245575771 0.67432189
v 0.278655261 -0.245812953 0.67432189
v 0.278995067 -0.245812953 0.676030099
v 0.271105975 -0.245575771 0.669345975
v 0.271106005 -0.245575771 0.679297864
v 0.278995037 -0.245812953 0.67261374
v 0.279962659 -0.245812953 0.677478254
v 0.273924649 -0.245575771 0.665127575
v 0.273924649 -0.245575786 0.683516264
v 0.279962659 -0.245812953 0.671165586
v 0.281410813 -0.245812953 0.678445876
v 0.278143048 -0.245575771 0.662308931
v 0.278143048 -0.245575786 0.686334908
v 0.281410813 -0.245812953 0.670197964
v 0.283118993 -0.245812953 0.678785622
v 0.283118993 -0.245575771 0.661319137
v 0.283118993 -0.245575786 0.687324703
v 0.283118993 -0.245812953 0.669858158
v 0.284827203 -0.245812953 0.678445876
v 0.288094938 -0.245575771 0.662308931
v 0.288094938 -0.245575786 0.686334908
v 0.284827203 -0.245812953 0.670197964
v 0.286275327 -0.245812953 0.677478254
v 0.292313367 -0.245575771 0.665127575
v 0.292313367 -0.245575786 0.683516264
v 0.286275327 -0.245812953 0.671165586
v 0.287242949 -0.245812953 0.676030099
v 0.295132011 -0.245575771 0.669345975
v 0.295132011 -0.245575771 0.679297864
v 0.287242949 -0.245812953 0.67261374
v 0.287582725 -0.245812953 0.67432189
v 0.296121776 -0.245575771 0.67432189
v -0.27011621 -0.245576546 0.674322009
v -0.271106005 -0.245576546 0.679297924
v -0.278995067 -0.245813712 0.676030219
v -0.279962659 -0.245813712 0.677478313
v -0.278655261 -0.245813712 0.674322009
v -0.273924649 -0.245576546 0.683516383
v -0.271105975 -0.245576546 0.669346035
v -0.281410813 -0.245813712 0.678445935
v -0.278995037 -0.245813712 0.6726138
v -0.278143048 -0.245576546 0.686335027
v -0.273924649 -0.245576546 0.665127635
v -0.283118993 -0.245813712 0.678785741
v -0.279962659 -0.245813712 0.671165645
v -0.283118993 -0.245576546 0.687324762
v -0.278143048 -0.245576546 0.662308991
v -0.284827203 -0.245813712 0.678445935
v -0.281410813 -0.245813712 0.670198023
v -0.288094938 -0.245576546 0.686335027
v -0.283118993 -0.245576546 0.661319196
v -0.286275327 -0.245813712 0.677478313
v -0.283118993 -0.245813712 0.669858277
v -0.292313367 -0.245576546 0.683516383
v -0.288094938 -0.245576546 0.662308991
v -0.287242949 -0.245813712 0.676030219
v -0.284827203 -0.245813712 0.670198023
v -0.295132011 -0.245576546 0.679297924
v -0.292313367 -0.245576546 0.665127635
v -0.287582725 -0.245813712 0.674322009
v -0.286275327 -0.245813712 0.671165645
v -0.296121776 -0.245576546 0.674322009
v -0.295132011 -0.245576546 0.669346035
v -0.287242949 -0.245813712 0.6726138
v 0.270025909 -0.244551361 0.679745257
v 0.268947124 -0.244551361 0.67432189
v 0.27011621 -0.245575771 0.67432189
v 0.271105975 -0.245575771 0.669345975
v 0.271106005 -0.245575771 0.679297864
v 0.270025909 -0.244551361 0.668898582
v 0.273097962 -0.244551361 0.684342921
v 0.273924649 -0.245575771 0.665127575
v 0.273924649 -0.245575786 0.683516264
v 0.273097962 -0.244551361 0.664300919
v 0.277695656 -0.244551361 0.687415004
v 0.278143048 -0.245575771 0.662308931
v 0.278143048 -0.245575786 0.686334908
v 0.277695656 -0.244551361 0.661228836
v 0.283118993 -0.244551361 0.688493788
v 0.283118993 -0.245575771 0.661319137
v 0.283118993 -0.245575786 0.687324703
v 0.283118993 -0.244551361 0.660150051
v 0.28854233 -0.244551361 0.687415004
v 0.288094938 -0.245575771 0.662308931
v 0.288094938 -0.245575786 0.686334908
v 0.28854233 -0.244551361 0.661228836
v 0.293140024 -0.244551361 0.684342921
v 0.292313367 -0.245575771 0.665127575
v 0.292313367 -0.245575786 0.683516264
v 0.293140024 -0.244551361 0.664300919
v 0.296212107 -0.244551361 0.679745257
v 0.295132011 -0.245575771 0.669345975
v 0.295132011 -0.245575771 0.679297864
v 0.296212107 -0.244551361 0.668898582
v 0.297290862 -0.244551361 0.67432189
v 0.296121776 -0.245575771 0.67432189
v -0.270025909 -0.244552121 0.679745317
v -0.271106005 -0.245576546 0.679297924
v -0.27011621 -0.245576546 0.674322009
v -0.273097962 -0.244552121 0.68434304
v -0.268947124 -0.244552121 0.674322009
v -0.273924649 -0.245576546 0.683516383
v -0.271105975 -0.245576546 0.669346035
v -0.277695656 -0.244552121 0.687415123
v -0.270025909 -0.244552121 0.668898642
v -0.278143048 -0.245576546 0.686335027
v -0.273924649 -0.245576546 0.665127635
v -0.283118993 -0.244552121 0.688493848
v -0.273097962 -0.244552121 0.664300978
v -0.283118993 -0.245576546 0.687324762
v -0.278143048 -0.245576546 0.662308991
v -0.28854233 -0.244552121 0.687415123
v -0.277695656 -0.244552121 0.661228895
v -0.288094938 -0.245576546 0.686335027
v -0.283118993 -0.245576546 0.661319196
v -0.293140024 -0.244552121 0.68434304
v -0.283118993 -0.244552121 0.660150111
v -0.292313367 -0.245576546 0.683516383
v -0.288094938 -0.245576546 0.662308991
v -0.296212107 -0.244552121 0.679745317
v -0.28854233 -0.244552121 0.661228895
v -0.295132011 -0.245576546 0.679297924
v -0.292313367 -0.245576546 0.665127635
v -0.297290862 -0.244552121 0.674322009
v -0.293140024 -0.244552121 0.664300978
v -0.296121776 -0.245576546 0.674322009
v -0.295132011 -0.245576546 0.669346035
v -0.296212107 -0.244552121 0.668898642
v 0.272829294 -0.258490115 0.67432189
v 0.272406846 -0.261016279 0.67432189
v 0.273222268 -0.261016279 0.678421259
v 0.273612559 -0.258490115 0.670384228
v 0.273222238 -0.261016279 0.670222521
v 0.275843084 -0.258490115 0.66704601
v 0.275544345 -0.261016279 0.666747272
v 0.274879187 -0.254658759 0.670908868
v 0.276812524 -0.254658759 0.66801542
v 0.27420029 -0.254658759 0.67432189
v 0.273612559 -0.258490115 0.678259611
v 0.275544345 -0.261016279 0.681896567
v 0.275843084 -0.258490115 0.681597829
v 0.276812524 -0.254658759 0.680628419
v 0.274879187 -0.254658759 0.677734971
v 0.278829038 -0.249687269 0.678611875
v 0.277513921 -0.249687269 0.67664361
v 0.279032379 -0.247474715 0.676014662
v 0.279991239 -0.247474715 0.677449703
v 0.278695673 -0.247474715 0.67432189
v 0.277052104 -0.249687269 0.67432189
v 0.279032379 -0.247474715 0.672629178
v 0.277513921 -0.249687269 0.672000229
v 0.279991239 -0.247474715 0.671194136
v 0.278829038 -0.249687269 0.670031965
v -0.272829294 -0.25849089 0.674322009
v -0.273612559 -0.25849089 0.678259671
v -0.273222268 -0.261017054 0.678421378
v -0.275544345 -0.261017054 0.681896627
v -0.275843084 -0.25849089 0.681597888
v -0.272406846 -0.261017054 0.674322009
v -0.276812524 -0.254659504 0.680628479
v -0.274879187 -0.254659504 0.677735031
v -0.278829038 -0.249688029 0.678611934
v -0.273612559 -0.25849089 0.670384288
v -0.273222238 -0.261017054 0.67022264
v -0.275843084 -0.25849089 0.66704607
v -0.275544345 -0.261017054 0.666747332
v -0.27420029 -0.254659504 0.674322009
v -0.274879187 -0.254659504 0.670908928
v -0.276812524 -0.254659504 0.66801554
v -0.277513921 -0.249688029 0.676643729
v -0.279032379 -0.247475475 0.676014721
v -0.279991239 -0.247475475 0.677449763
v -0.278695673 -0.247475475 0.674322009
v -0.277052104 -0.249688029 0.674322009
v -0.279032379 -0.247475475 0.672629237
v -0.277513921 -0.249688029 0.672000289
v -0.279991239 -0.247475475 0.671194255
v -0.278829038 -0.249688029 0.670032024
v 0.270025909 -0.244551361 0.679745257
v 0.270025909 -0.238480419 0.679745257
v 0.268947124 -0.238480419 0.67432189
v 0.273097962 -0.244551361 0.684342921
v 0.273097962 -0.238480419 0.684342921
v 0.268947124 -0.244551361 0.67432189
v 0.270025909 -0.238480419 0.668898582
v 0.270025909 -0.244551361 0.668898582
v 0.273097962 -0.238480419 0.664300919
v 0.273097962 -0.244551361 0.664300919
v -0.270025909 -0.244552121 0.679745317
v -0.268947124 -0.244552121 0.674322009
v -0.268947124 -0.238481179 0.674322009
v -0.270025909 -0.238481179 0.668898642
v -0.270025909 -0.238481179 0.679745317
v -0.273097962 -0.244552121 0.68434304
v -0.273097962 -0.238481179 0.68434304
v -0.270025909 -0.244552121 0.668898642
v -0.273097962 -0.238481179 0.664300978
v -0.273097962 -0.244552121 0.664300978
v 0.278695673 -0.247474715 0.67432189
v 0.279032379 -0.247474715 0.676014662
v 0.278995067 -0.245812953 0.676030099
v 0.279962659 -0.245812953 0.677478254
v 0.279991239 -0.247474715 0.677449703
v 0.278655261 -0.245812953 0.67432189
v 0.279032379 -0.247474715 0.672629178
v 0.278995037 -0.245812953 0.67261374
v 0.279991239 -0.247474715 0.671194136
v 0.279962659 -0.245812953 0.671165586
v -0.278695673 -0.247475475 0.674322009
v -0.278655261 -0.245813712 0.674322009
v -0.278995067 -0.245813712 0.676030219
v -0.279032379 -0.247475475 0.672629237
v -0.279032379 -0.247475475 0.676014721
v -0.279962659 -0.245813712 0.677478313
v -0.279991239 -0.247475475 0.677449763
v -0.278995037 -0.245813712 0.6726138
v -0.279991239 -0.247475475 0.671194255
v -0.279962659 -0.245813712 0.671165645
vt 0.643739402 0.73856318
vt 0.674094141 0.73856318
vt 0.674094141 0.762802839
vt 0.643739402 0.762802899
vt 0.674094141 0.790286541
vt 0.643739402 0.790286541
vt 0.674094141 0.81682992
vt 0.643739402 0.81682992
vt 0.674094141 0.838392079
vt 0.643739402 0.838392079
vt 0.643739402 0.73856318
vt 0.643739402 0.762802899
vt 0.674094141 0.762802839
vt 0.674094141 0.73856318
vt 0.674094141 0.790286541
vt 0.643739402 0.790286541
vt 0.674094141 0.81682992
vt 0.643739402 0.81682992
vt 0.674094141 0.838392079
vt 0.643739402 0.838392079
vt 0.629122674 0.777460098
vt 0.629122674 0.769894361
vt 0.637431502 0.769764543
vt 0.637431502 0.777399302
vt 0.629122674 0.78603828
vt 0.637431502 0.786055863
vt 0.629122674 0.794323027
vt 0.637431502 0.794416308
vt 0.629122674 0.801053047
vt 0.637431502 0.801207781
vt 0.629122674 0.777460098
vt 0.637431502 0.777399302
vt 0.637431502 0.769764543
vt 0.629122674 0.769894361
vt 0.629122674 0.78603828
vt 0.637431502 0.786055863
vt 0.629122674 0.794323027
vt 0.637431502 0.794416308
vt 0.629122674 0.801053047
vt 0.637431502 0.801207781
vt 0.574045658 0.823522508
vt 0.561414838 0.825140595
vt 0.561414838 0.808842301
vt 0.574045658 0.807866931
vt 0.561414838 0.788778782
vt 0.593202472 0.804701686
vt 0.593202472 0.818271339
vt 0.574045658 0.788594723
vt 0.561414838 0.768004656
vt 0.593202472 0.787997246
vt 0.618059933 0.798117638
vt 0.618059933 0.807348251
vt 0.629122674 0.801053047
vt 0.629122674 0.794323027
vt 0.618059933 0.786754489
vt 0.629122674 0.78603828
vt 0.618059933 0.77498889
vt 0.629122674 0.777460098
vt 0.618059933 0.764612019
vt 0.629122674 0.769894361
vt 0.593202472 0.77070117
vt 0.593202472 0.755446434
vt 0.574045658 0.768639803
vt 0.574045658 0.75104022
vt 0.561414838 0.749682486
vt 0.574045658 0.823522508
vt 0.574045658 0.807866931
vt 0.561414838 0.808842301
vt 0.561414838 0.825140595
vt 0.561414838 0.788778782
vt 0.593202472 0.804701686
vt 0.593202472 0.818271339
vt 0.574045658 0.788594723
vt 0.561414838 0.768004656
vt 0.593202472 0.787997246
vt 0.618059933 0.798117638
vt 0.618059933 0.807348251
vt 0.629122674 0.801053047
vt 0.629122674 0.794323027
vt 0.618059933 0.786754489
vt 0.629122674 0.78603828
vt 0.618059933 0.77498889
vt 0.629122674 0.777460098
vt 0.618059933 0.764612019
vt 0.629122674 0.769894361
vt 0.593202472 0.77070117
vt 0.593202472 0.755446434
vt 0.574045658 0.768639803
vt 0.574045658 0.75104022
vt 0.561414838 0.749682486
vt 0.356260598 0.53027904
vt 0.325905859 0.53027904
vt 0.325905859 0.506039381
vt 0.356260598 0.506039381
vt 0.325905859 0.478555739
vt 0.356260598 0.478555739
vt 0.325905859 0.45201236
vt 0.356260598 0.45201236
vt 0.325905859 0.430450141
vt 0.356260598 0.430450141
vt 0.643739402 0.43918407
vt 0.674094141 0.43918407
vt 0.674094141 0.463423789
vt 0.643739402 0.463423789
vt 0.674094141 0.490907371
vt 0.643739402 0.490907371
vt 0.674094141 0.517450809
vt 0.643739402 0.517450809
vt 0.674094141 0.539013028
vt 0.643739402 0.539013028
vt 0.356260598 0.53027904
vt 0.356260598 0.506039381
vt 0.325905859 0.506039381
vt 0.325905859 0.53027904
vt 0.325905859 0.478555739
vt 0.356260598 0.478555739
vt 0.325905859 0.45201236
vt 0.356260598 0.45201236
vt 0.325905859 0.430450141
vt 0.356260598 0.430450141
vt 0.643739402 0.43918407
vt 0.643739402 0.463423789
vt 0.674094141 0.463423789
vt 0.674094141 0.43918407
vt 0.674094141 0.490907371
vt 0.643739402 0.490907371
vt 0.674094141 0.517450809
vt 0.643739402 0.517450809
vt 0.674094141 0.539013028
vt 0.643739402 0.539013028
vt 0.500324368 0.736714184
vt 0.519599795 0.734603167
vt 0.538215756 0.740029275
vt 0.483324081 0.746040881
vt 0.55333823 0.752166331
vt 0.562664926 0.769166648
vt 0.564775884 0.788442016
vt 0.559349835 0.807057977
vt 0.54721278 0.82218051
vt 0.530212462 0.831507146
vt 0.510937095 0.833618164
vt 0.492321074 0.828192055
vt 0.477198601 0.816055
vt 0.467871934 0.799054682
vt 0.465760946 0.779779315
vt 0.471186996 0.761163354
vt 0.465760946 0.779779315
vt 0.467871934 0.799054682
vt 0.477198601 0.816055
vt 0.492321074 0.828192055
vt 0.510937095 0.833618164
vt 0.483324081 0.746040881
vt 0.471186996 0.761163354
vt 0.530212462 0.831507146
vt 0.54721278 0.82218051
vt 0.559349835 0.807057977
vt 0.500324368 0.736714184
vt 0.519599795 0.734603167
vt 0.55333823 0.752166331
vt 0.538215756 0.740029275
vt 0.562664926 0.769166648
vt 0.564775884 0.788442016
vt 0.465760946 0.779779315
vt 0.467871934 0.799054682
vt 0.464186579 0.800216675
vt 0.474238455 0.818538904
vt 0.46191144 0.779442549
vt 0.477198601 0.816055
vt 0.471186996 0.761163354
vt 0.490536779 0.83161968
vt 0.467759401 0.759379029
vt 0.492321074 0.828192055
vt 0.483324081 0.746040881
vt 0.510600269 0.83746767
vt 0.480840206 0.743080735
vt 0.510937095 0.833618164
vt 0.500324368 0.736714184
vt 0.531374454 0.835192502
vt 0.499162376 0.733028829
vt 0.530212462 0.831507146
vt 0.519599795 0.734603167
vt 0.549696624 0.825140595
vt 0.519936562 0.73075366
vt 0.54721278 0.82218051
vt 0.538215756 0.740029275
vt 0.5627774 0.808842301
vt 0.540000081 0.736601651
vt 0.559349835 0.807057977
vt 0.55333823 0.752166331
vt 0.568625391 0.788778782
vt 0.556298375 0.749682486
vt 0.564775884 0.788442016
vt 0.562664926 0.769166648
vt 0.566350281 0.768004656
vt 0.465760946 0.779779315
vt 0.46191144 0.779442549
vt 0.464186579 0.800216675
vt 0.471186996 0.761163354
vt 0.467871934 0.799054682
vt 0.467759401 0.759379029
vt 0.474238455 0.818538904
vt 0.483324081 0.746040881
vt 0.477198601 0.816055
vt 0.480840206 0.743080735
vt 0.490536779 0.83161968
vt 0.500324368 0.736714184
vt 0.492321074 0.828192055
vt 0.499162376 0.733028829
vt 0.510600269 0.83746767
vt 0.519599795 0.734603167
vt 0.510937095 0.833618164
vt 0.519936562 0.73075366
vt 0.531374454 0.835192502
vt 0.538215756 0.740029275
vt 0.530212462 0.831507146
vt 0.540000081 0.736601651
vt 0.549696624 0.825140595
vt 0.55333823 0.752166331
vt 0.54721278 0.82218051
vt 0.556298375 0.749682486
vt 0.5627774 0.808842301
vt 0.562664926 0.769166648
vt 0.559349835 0.807057977
vt 0.566350281 0.768004656
vt 0.568625391 0.788778782
vt 0.564775884 0.788442016
vt 0.574045658 0.524143457
vt 0.561414838 0.525761545
vt 0.561414838 0.509463191
vt 0.574045658 0.508487821
vt 0.561414838 0.489399731
vt 0.593202472 0.505322635
vt 0.593202472 0.518892288
vt 0.574045658 0.489215612
vt 0.561414838 0.468625546
vt 0.593202472 0.488618195
vt 0.618059933 0.498738527
vt 0.618059933 0.507969141
vt 0.629122674 0.494943917
vt 0.629122674 0.501673937
vt 0.618059933 0.487375438
vt 0.629122674 0.486659169
vt 0.618059933 0.475609839
vt 0.629122674 0.478080988
vt 0.618059933 0.465232909
vt 0.629122674 0.470515251
vt 0.593202472 0.47132206
vt 0.593202472 0.456067383
vt 0.574045658 0.469260752
vt 0.574045658 0.45166111
vt 0.561414838 0.450303376
vt 0.425954372 0.445319712
vt 0.438585162 0.443701625
vt 0.438585162 0.459999919
vt 0.425954372 0.460975289
vt 0.438585162 0.480063438
vt 0.406797498 0.464140534
vt 0.406797498 0.450570881
vt 0.425954372 0.480247498
vt 0.438585162 0.500837624
vt 0.406797498 0.480844975
vt 0.381940067 0.470724642
vt 0.381940067 0.461493969
vt 0.370877326 0.467789233
vt 0.370877326 0.474519193
vt 0.381940067 0.482087731
vt 0.370877326 0.482803941
vt 0.381940067 0.493853331
vt 0.370877326 0.491382182
vt 0.381940067 0.504230261
vt 0.370877326 0.498947918
vt 0.406797498 0.49814111
vt 0.406797498 0.513395786
vt 0.425954372 0.500202417
vt 0.425954372 0.517802
vt 0.438585162 0.519159794
vt 0.574045658 0.524143457
vt 0.574045658 0.508487821
vt 0.561414838 0.509463191
vt 0.561414838 0.525761545
vt 0.561414838 0.489399731
vt 0.593202472 0.505322635
vt 0.593202472 0.518892288
vt 0.574045658 0.489215612
vt 0.561414838 0.468625546
vt 0.593202472 0.488618195
vt 0.618059933 0.498738527
vt 0.618059933 0.507969141
vt 0.629122674 0.494943917
vt 0.629122674 0.501673937
vt 0.618059933 0.487375438
vt 0.629122674 0.486659169
vt 0.618059933 0.475609839
vt 0.629122674 0.478080988
vt 0.618059933 0.465232909
vt 0.629122674 0.470515251
vt 0.593202472 0.47132206
vt 0.593202472 0.456067383
vt 0.574045658 0.469260752
vt 0.574045658 0.45166111
vt 0.561414838 0.450303376
vt 0.425954372 0.445319712
vt 0.425954372 0.460975289
vt 0.438585162 0.459999919
vt 0.438585162 0.443701625
vt 0.438585162 0.480063438
vt 0.406797498 0.464140534
vt 0.406797498 0.450570881
vt 0.425954372 0.480247498
vt 0.438585162 0.500837624
vt 0.406797498 0.480844975
vt 0.381940067 0.470724642
vt 0.381940067 0.461493969
vt 0.370877326 0.467789233
vt 0.370877326 0.474519193
vt 0.381940067 0.482087731
vt 0.370877326 0.482803941
vt 0.381940067 0.493853331
vt 0.370877326 0.491382182
vt 0.381940067 0.504230261
vt 0.370877326 0.498947918
vt 0.406797498 0.49814111
vt 0.406797498 0.513395786
vt 0.425954372 0.500202417
vt 0.425954372 0.517802
vt 0.438585162 0.519159794
vt 0.370877326 0.491382182
vt 0.370877326 0.498947918
vt 0.362568498 0.499077737
vt 0.362568498 0.491442919
vt 0.370877326 0.482803941
vt 0.362568498 0.482786357
vt 0.370877326 0.474519193
vt 0.362568498 0.474425972
vt 0.370877326 0.467789233
vt 0.362568498 0.467634499
vt 0.629122674 0.478080988
vt 0.629122674 0.470515251
vt 0.637431502 0.470385432
vt 0.637431502 0.478020251
vt 0.629122674 0.486659169
vt 0.637431502 0.486676753
vt 0.629122674 0.494943917
vt 0.637431502 0.495037198
vt 0.629122674 0.501673937
vt 0.637431502 0.501828671
vt 0.370877326 0.491382182
vt 0.362568498 0.491442919
vt 0.362568498 0.499077737
vt 0.370877326 0.498947918
vt 0.370877326 0.482803941
vt 0.362568498 0.482786357
vt 0.370877326 0.474519193
vt 0.362568498 0.474425972
vt 0.370877326 0.467789233
vt 0.362568498 0.467634499
vt 0.629122674 0.478080988
vt 0.637431502 0.478020251
vt 0.637431502 0.470385432
vt 0.629122674 0.470515251
vt 0.629122674 0.486659169
vt 0.637431502 0.486676753
vt 0.629122674 0.494943917
vt 0.637431502 0.495037198
vt 0.629122674 0.501673937
vt 0.637431502 0.501828671
vt 0.450501889 0.77844429
vt 0.49303472 0.782165468
vt 0.493982762 0.790822029
vt 0.457600355 0.754090548
vt 0.453263521 0.803660691
vt 0.495471537 0.773805022
vt 0.498171329 0.798456788
vt 0.473478287 0.73430711
vt 0.46546486 0.825900793
vt 0.500922263 0.76701355
vt 0.504962802 0.803907514
vt 0.49571839 0.722105801
vt 0.485248297 0.841778755
vt 0.508557081 0.762825012
vt 0.513323247 0.80634439
vt 0.520934761 0.719344139
vt 0.50960207 0.848877192
vt 0.517213643 0.761876941
vt 0.521979749 0.805396318
vt 0.545288563 0.726442635
vt 0.53481847 0.846115589
vt 0.525574028 0.764313817
vt 0.529614568 0.801207781
vt 0.565072 0.742320538
vt 0.557058573 0.83391428
vt 0.532365501 0.769764543
vt 0.535065293 0.794416308
vt 0.577273309 0.76456064
vt 0.572936475 0.814130783
vt 0.536554098 0.777399302
vt 0.53750217 0.786055863
vt 0.580034971 0.78977704
vt 0.450501889 0.77844429
vt 0.453263521 0.803660691
vt 0.493982762 0.790822029
vt 0.498171329 0.798456788
vt 0.49303472 0.782165468
vt 0.46546486 0.825900793
vt 0.457600355 0.754090548
vt 0.504962802 0.803907514
vt 0.495471537 0.773805022
vt 0.485248297 0.841778755
vt 0.473478287 0.73430711
vt 0.513323247 0.80634439
vt 0.500922263 0.76701355
vt 0.50960207 0.848877192
vt 0.49571839 0.722105801
vt 0.521979749 0.805396318
vt 0.508557081 0.762825012
vt 0.53481847 0.846115589
vt 0.520934761 0.719344139
vt 0.529614568 0.801207781
vt 0.517213643 0.761876941
vt 0.557058573 0.83391428
vt 0.545288563 0.726442635
vt 0.535065293 0.794416308
vt 0.525574028 0.764313817
vt 0.572936475 0.814130783
vt 0.565072 0.742320538
vt 0.53750217 0.786055863
vt 0.532365501 0.769764543
vt 0.580034971 0.78977704
vt 0.577273309 0.76456064
vt 0.536554098 0.777399302
vt 0.447688669 0.805418491
vt 0.444678724 0.777934849
vt 0.450501889 0.77844429
vt 0.457600355 0.754090548
vt 0.453263521 0.803660691
vt 0.452415407 0.75139147
vt 0.460987002 0.829658151
vt 0.473478287 0.73430711
vt 0.46546486 0.825900793
vt 0.46972093 0.729829311
vt 0.482549191 0.846963644
vt 0.49571839 0.722105801
vt 0.485248297 0.841778755
vt 0.493960619 0.716530919
vt 0.509092629 0.854700327
vt 0.520934761 0.719344139
vt 0.50960207 0.848877192
vt 0.521444261 0.713521004
vt 0.536576211 0.851690412
vt 0.545288563 0.726442635
vt 0.53481847 0.846115589
vt 0.54798764 0.721257687
vt 0.56081593 0.838392079
vt 0.565072 0.742320538
vt 0.557058573 0.83391428
vt 0.569549859 0.73856318
vt 0.578121424 0.81682992
vt 0.577273309 0.76456064
vt 0.572936475 0.814130783
vt 0.582848191 0.762802899
vt 0.585858107 0.790286541
vt 0.580034971 0.78977704
vt 0.447688669 0.805418491
vt 0.453263521 0.803660691
vt 0.450501889 0.77844429
vt 0.460987002 0.829658151
vt 0.444678724 0.777934849
vt 0.46546486 0.825900793
vt 0.457600355 0.754090548
vt 0.482549191 0.846963644
vt 0.452415407 0.75139147
vt 0.485248297 0.841778755
vt 0.473478287 0.73430711
vt 0.509092629 0.854700327
vt 0.46972093 0.729829311
vt 0.50960207 0.848877192
vt 0.49571839 0.722105801
vt 0.536576211 0.851690412
vt 0.493960619 0.716530919
vt 0.53481847 0.846115589
vt 0.520934761 0.719344139
vt 0.56081593 0.838392079
vt 0.521444261 0.713521004
vt 0.557058573 0.83391428
vt 0.545288563 0.726442635
vt 0.578121424 0.81682992
vt 0.54798764 0.721257687
vt 0.572936475 0.814130783
vt 0.565072 0.742320538
vt 0.585858107 0.790286541
vt 0.569549859 0.73856318
vt 0.580034971 0.78977704
vt 0.577273309 0.76456064
vt 0.582848191 0.762802899
vt 0.425954372 0.779626608
vt 0.438585162 0.779442549
vt 0.438585162 0.800216675
vt 0.425954372 0.7603544
vt 0.438585162 0.759379029
vt 0.425954372 0.744698822
vt 0.438585162 0.743080735
vt 0.406797498 0.763519645
vt 0.406797498 0.749949992
vt 0.406797498 0.780224085
vt 0.425954372 0.799581528
vt 0.438585162 0.818538904
vt 0.425954372 0.81718111
vt 0.406797498 0.812774897
vt 0.406797498 0.797520161
vt 0.381940067 0.803609312
vt 0.381940067 0.793232441
vt 0.370877326 0.790761232
vt 0.370877326 0.798326969
vt 0.370877326 0.782183051
vt 0.381940067 0.781466842
vt 0.370877326 0.773898304
vt 0.381940067 0.770103693
vt 0.370877326 0.767168283
vt 0.381940067 0.760873079
vt 0.425954372 0.779626608
vt 0.425954372 0.799581528
vt 0.438585162 0.800216675
vt 0.438585162 0.818538904
vt 0.425954372 0.81718111
vt 0.438585162 0.779442549
vt 0.406797498 0.812774897
vt 0.406797498 0.797520161
vt 0.381940067 0.803609312
vt 0.425954372 0.7603544
vt 0.438585162 0.759379029
vt 0.425954372 0.744698822
vt 0.438585162 0.743080735
vt 0.406797498 0.780224085
vt 0.406797498 0.763519645
vt 0.406797498 0.749949992
vt 0.381940067 0.793232441
vt 0.370877326 0.790761232
vt 0.370877326 0.798326969
vt 0.370877326 0.782183051
vt 0.381940067 0.781466842
vt 0.370877326 0.773898304
vt 0.381940067 0.770103693
vt 0.370877326 0.767168283
vt 0.381940067 0.760873079
vt 0.356260598 0.805418491
vt 0.325905859 0.805418491
vt 0.325905859 0.777934849
vt 0.356260598 0.829658151
vt 0.325905859 0.829658151
vt 0.356260598 0.777934849
vt 0.325905859 0.75139147
vt 0.356260598 0.75139147
vt 0.325905859 0.729829252
vt 0.356260598 0.729829311
vt 0.356260598 0.805418491
vt 0.356260598 0.777934849
vt 0.325905859 0.777934849
vt 0.325905859 0.75139147
vt 0.325905859 0.805418491
vt 0.356260598 0.829658151
vt 0.325905859 0.829658151
vt 0.356260598 0.75139147
vt 0.325905859 0.729829252
vt 0.356260598 0.729829311
vt 0.370877326 0.782183051
vt 0.370877326 0.790761232
vt 0.362568498 0.790822029
vt 0.362568498 0.798456788
vt 0.370877326 0.798326969
vt 0.362568498 0.782165468
vt 0.370877326 0.773898304
vt 0.362568498 0.773805022
vt 0.370877326 0.767168283
vt 0.362568498 0.76701355
vt 0.370877326 0.782183051
vt 0.362568498 0.782165468
vt 0.362568498 0.790822029
vt 0.370877326 0.773898304
vt 0.370877326 0.790761232
vt 0.362568498 0.798456788
vt 0.370877326 0.798326969
vt 0.362568498 0.773805022
vt 0.370877326 0.767168283
vt 0.362568498 0.76701355
f 1/1 2/2 3/3
f 3/3 4/4 1/1
f 4/4 3/3 5/5
f 5/5 6/6 4/4
f 6/6 5/5 7/7
f 7/7 8/8 6/6
f 8/8 7/7 9/9
f 9/9 10/10 8/8
f 11/11 12/12 13/13
f 13/13 14/14 11/11
f 15/15 13/13 12/12
f 12/12 16/16 15/15
f 17/17 15/15 16/16
f 16/16 18/18 17/17
f 19/19 17/17 18/18
f 18/18 20/20 19/19
f 21/21 22/22 23/23
f 23/23 24/24 21/21
f 25/25 21/21 24/24
f 24/24 26/26 25/25
f 27/27 25/25 26/26
f 26/26 28/28 27/27
f 29/29 27/27 28/28
f 28/28 30/30 29/29
f 31/31 32/32 33/33
f 33/33 34/34 31/31
f 32/32 31/31 35/35
f 35/35 36/36 32/32
f 36/36 35/35 37/37
f 37/37 38/38 36/36
f 38/38 37/37 39/39
f 39/39 40/40 38/38
f 41/41 42/42 43/43
f 43/43 44/44 41/41
f 44/44 43/43 45/45
f 41/41 44/44 46/46
f 46/46 47/47 41/41
f 45/45 48/48 44/44
f 48/48 45/45 49/49
f 50/50 46/46 44/44
f 44/44 48/48 50/50
f 47/47 46/46 51/51
f 51/51 52/52 47/47
f 53/53 52/52 51/51
f 51/51 54/54 53/53
f 55/55 51/51 46/46
f 54/54 51/51 55/55
f 46/46 50/50 55/55
f 55/55 56/56 54/54
f 56/56 55/55 57/57
f 57/57 55/55 50/50
f 57/57 58/58 56/56
f 58/58 57/57 59/59
f 59/59 60/60 58/58
f 50/50 61/61 57/57
f 59/59 57/57 61/61
f 61/61 50/50 48/48
f 61/61 62/62 59/59
f 48/48 63/63 61/61
f 62/62 61/61 63/63
f 49/49 63/63 48/48
f 63/63 64/64 62/62
f 63/63 49/49 65/65
f 65/65 64/64 63/63
f 66/66 67/67 68/68
f 68/68 69/69 66/66
f 70/70 68/68 67/67
f 71/71 67/67 66/66
f 66/66 72/72 71/71
f 67/67 73/73 70/70
f 74/74 70/70 73/73
f 67/67 71/71 75/75
f 75/75 73/73 67/67
f 76/76 71/71 72/72
f 72/72 77/77 76/76
f 76/76 77/77 78/78
f 78/78 79/79 76/76
f 71/71 76/76 80/80
f 80/80 76/76 79/79
f 80/80 75/75 71/71
f 79/79 81/81 80/80
f 82/82 80/80 81/81
f 75/75 80/80 82/82
f 81/81 83/83 82/82
f 84/84 82/82 83/83
f 83/83 85/85 84/84
f 82/82 86/86 75/75
f 86/86 82/82 84/84
f 73/73 75/75 86/86
f 84/84 87/87 86/86
f 86/86 88/88 73/73
f 88/88 86/86 87/87
f 73/73 88/88 74/74
f 87/87 89/89 88/88
f 90/90 74/74 88/88
f 88/88 89/89 90/90
f 91/91 92/92 93/93
f 93/93 94/94 91/91
f 94/94 93/93 95/95
f 95/95 96/96 94/94
f 96/96 95/95 97/97
f 97/97 98/98 96/96
f 98/98 97/97 99/99
f 99/99 100/100 98/98
f 101/101 102/102 103/103
f 103/103 104/104 101/101
f 104/104 103/103 105/105
f 105/105 106/106 104/104
f 106/106 105/105 107/107
f 107/107 108/108 106/106
f 108/108 107/107 109/109
f 109/109 110/110 108/108
f 111/111 112/112 113/113
f 113/113 114/114 111/111
f 115/115 113/113 112/112
f 112/112 116/116 115/115
f 117/117 115/115 116/116
f 116/116 118/118 117/117
f 119/119 117/117 118/118
f 118/118 120/120 119/119
f 121/121 122/122 123/123
f 123/123 124/124 121/121
f 125/125 123/123 122/122
f 122/122 126/126 125/125
f 127/127 125/125 126/126
f 126/126 128/128 127/127
f 129/129 127/127 128/128
f 128/128 130/130 129/129
f 131/131 132/132 133/133
f 134/134 131/131 133/133
f 135/135 136/136 137/137
f 135/135 137/137 138/138
f 133/133 135/135 138/138
f 134/134 133/133 138/138
f 138/138 139/139 140/140
f 138/138 140/140 141/141
f 134/134 138/138 141/141
f 141/141 142/142 143/143
f 141/141 143/143 144/144
f 134/134 141/141 144/144
f 145/145 134/134 144/144
f 134/134 145/145 146/146
f 147/147 148/148 149/149
f 150/150 151/151 149/149
f 152/152 153/153 147/147
f 151/151 154/154 149/149
f 155/155 149/149 154/154
f 149/149 155/155 156/156
f 149/149 156/156 147/147
f 157/157 152/152 147/147
f 158/158 157/157 147/147
f 156/156 158/158 147/147
f 159/159 160/160 158/158
f 161/161 156/156 162/162
f 156/156 161/161 158/158
f 161/161 159/159 158/158
f 163/163 164/164 165/165
f 166/166 165/165 164/164
f 165/165 167/167 163/163
f 164/164 168/168 166/166
f 169/169 163/163 167/167
f 170/170 166/166 168/168
f 167/167 171/171 169/169
f 168/168 172/172 170/170
f 173/173 169/169 171/171
f 174/174 170/170 172/172
f 171/171 175/175 173/173
f 172/172 176/176 174/174
f 177/177 173/173 175/175
f 178/178 174/174 176/176
f 175/175 179/179 177/177
f 176/176 180/180 178/178
f 181/181 177/177 179/179
f 182/182 178/178 180/180
f 179/179 183/183 181/181
f 180/180 184/184 182/182
f 185/185 181/181 183/183
f 186/186 182/182 184/184
f 183/183 187/187 185/185
f 184/184 188/188 186/186
f 189/189 185/185 187/187
f 190/190 186/186 188/188
f 187/187 191/191 189/189
f 188/188 192/192 190/190
f 193/193 189/189 191/191
f 194/194 190/190 192/192
f 192/192 193/193 194/194
f 191/191 194/194 193/193
f 195/195 196/196 197/197
f 196/196 195/195 198/198
f 197/197 199/199 195/195
f 198/198 200/200 196/196
f 199/199 197/197 201/201
f 200/200 198/198 202/202
f 201/201 203/203 199/199
f 202/202 204/204 200/200
f 203/203 201/201 205/205
f 204/204 202/202 206/206
f 205/205 207/207 203/203
f 206/206 208/208 204/204
f 207/207 205/205 209/209
f 208/208 206/206 210/210
f 209/209 211/211 207/207
f 210/210 212/212 208/208
f 211/211 209/209 213/213
f 212/212 210/210 214/214
f 213/213 215/215 211/211
f 214/214 216/216 212/212
f 215/215 213/213 217/217
f 216/216 214/214 218/218
f 217/217 219/219 215/215
f 218/218 220/220 216/216
f 219/219 217/217 221/221
f 220/220 218/218 222/222
f 221/221 223/223 219/219
f 222/222 224/224 220/220
f 223/223 221/221 225/225
f 224/224 222/222 226/226
f 225/225 226/226 223/223
f 226/226 225/225 224/224
f 227/227 228/228 229/229
f 229/229 230/230 227/227
f 230/230 229/229 231/231
f 227/227 230/230 232/232
f 232/232 233/233 227/227
f 231/231 234/234 230/230
f 234/234 231/231 235/235
f 236/236 232/232 230/230
f 230/230 234/234 236/236
f 233/233 232/232 237/237
f 237/237 238/238 233/233
f 238/238 237/237 239/239
f 239/239 240/240 238/238
f 241/241 237/237 232/232
f 239/239 237/237 241/241
f 232/232 236/236 241/241
f 241/241 242/242 239/239
f 242/242 241/241 243/243
f 243/243 241/241 236/236
f 243/243 244/244 242/242
f 244/244 243/243 245/245
f 245/245 246/246 244/244
f 236/236 247/247 243/243
f 245/245 243/243 247/247
f 247/247 236/236 234/234
f 247/247 248/248 245/245
f 234/234 249/249 247/247
f 248/248 247/247 249/249
f 235/235 249/249 234/234
f 249/249 250/250 248/248
f 249/249 235/235 251/251
f 251/251 250/250 249/249
f 252/252 253/253 254/254
f 254/254 255/255 252/252
f 255/255 254/254 256/256
f 252/252 255/255 257/257
f 257/257 258/258 252/252
f 256/256 259/259 255/255
f 259/259 256/256 260/260
f 261/261 257/257 255/255
f 255/255 259/259 261/261
f 258/258 257/257 262/262
f 262/262 263/263 258/258
f 264/264 263/263 262/262
f 262/262 265/265 264/264
f 266/266 262/262 257/257
f 265/265 262/262 266/266
f 257/257 261/261 266/266
f 266/266 267/267 265/265
f 267/267 266/266 268/268
f 268/268 266/266 261/261
f 268/268 269/269 267/267
f 269/269 268/268 270/270
f 270/270 271/271 269/269
f 261/261 272/272 268/268
f 270/270 268/268 272/272
f 272/272 261/261 259/259
f 272/272 273/273 270/270
f 259/259 274/274 272/272
f 273/273 272/272 274/274
f 260/260 274/274 259/259
f 274/274 275/275 273/273
f 274/274 260/260 276/276
f 276/276 275/275 274/274
f 277/277 278/278 279/279
f 279/279 280/280 277/277
f 281/281 279/279 278/278
f 282/282 278/278 277/277
f 277/277 283/283 282/282
f 278/278 284/284 281/281
f 285/285 281/281 284/284
f 278/278 282/282 286/286
f 286/286 284/284 278/278
f 287/287 282/282 283/283
f 283/283 288/288 287/287
f 289/289 287/287 288/288
f 288/288 290/290 289/289
f 282/282 287/287 291/291
f 291/291 287/287 289/289
f 291/291 286/286 282/282
f 289/289 292/292 291/291
f 293/293 291/291 292/292
f 286/286 291/291 293/293
f 292/292 294/294 293/293
f 295/295 293/293 294/294
f 294/294 296/296 295/295
f 293/293 297/297 286/286
f 297/297 293/293 295/295
f 284/284 286/286 297/297
f 295/295 298/298 297/297
f 297/297 299/299 284/284
f 299/299 297/297 298/298
f 284/284 299/299 285/285
f 298/298 300/300 299/299
f 301/301 285/285 299/299
f 299/299 300/300 301/301
f 302/302 303/303 304/304
f 304/304 305/305 302/302
f 306/306 304/304 303/303
f 307/307 303/303 302/302
f 302/302 308/308 307/307
f 303/303 309/309 306/306
f 310/310 306/306 309/309
f 303/303 307/307 311/311
f 311/311 309/309 303/303
f 312/312 307/307 308/308
f 308/308 313/313 312/312
f 312/312 313/313 314/314
f 314/314 315/315 312/312
f 307/307 312/312 316/316
f 316/316 312/312 315/315
f 316/316 311/311 307/307
f 315/315 317/317 316/316
f 318/318 316/316 317/317
f 311/311 316/316 318/318
f 317/317 319/319 318/318
f 320/320 318/318 319/319
f 319/319 321/321 320/320
f 318/318 322/322 311/311
f 322/322 318/318 320/320
f 309/309 311/311 322/322
f 320/320 323/323 322/322
f 322/322 324/324 309/309
f 324/324 322/322 323/323
f 309/309 324/324 310/310
f 323/323 325/325 324/324
f 326/326 310/310 324/324
f 324/324 325/325 326/326
f 327/327 328/328 329/329
f 329/329 330/330 327/327
f 331/331 327/327 330/330
f 330/330 332/332 331/331
f 333/333 331/331 332/332
f 332/332 334/334 333/333
f 335/335 333/333 334/334
f 334/334 336/336 335/335
f 337/337 338/338 339/339
f 339/339 340/340 337/337
f 341/341 337/337 340/340
f 340/340 342/342 341/341
f 343/343 341/341 342/342
f 342/342 344/344 343/343
f 345/345 343/343 344/344
f 344/344 346/346 345/345
f 347/347 348/348 349/349
f 349/349 350/350 347/347
f 348/348 347/347 351/351
f 351/351 352/352 348/348
f 352/352 351/351 353/353
f 353/353 354/354 352/352
f 354/354 353/353 355/355
f 355/355 356/356 354/354
f 357/357 358/358 359/359
f 359/359 360/360 357/357
f 358/358 357/357 361/361
f 361/361 362/362 358/358
f 362/362 361/361 363/363
f 363/363 364/364 362/362
f 364/364 363/363 365/365
f 365/365 366/366 364/364
f 367/367 368/368 369/369
f 368/368 367/367 370/370
f 369/369 371/371 367/367
f 370/370 372/372 368/368
f 371/371 369/369 373/373
f 372/372 370/370 374/374
f 373/373 375/375 371/371
f 374/374 376/376 372/372
f 375/375 373/373 377/377
f 376/376 374/374 378/378
f 377/377 379/379 375/375
f 378/378 380/380 376/376
f 379/379 377/377 381/381
f 380/380 378/378 382/382
f 381/381 383/383 379/379
f 382/382 384/384 380/380
f 383/383 381/381 385/385
f 384/384 382/382 386/386
f 385/385 387/387 383/383
f 386/386 388/388 384/384
f 387/387 385/385 389/389
f 388/388 386/386 390/390
f 389/389 391/391 387/387
f 390/390 392/392 388/388
f 391/391 389/389 393/393
f 392/392 390/390 394/394
f 393/393 395/395 391/391
f 394/394 396/396 392/392
f 395/395 393/393 397/397
f 396/396 394/394 398/398
f 397/397 398/398 395/395
f 398/398 397/397 396/396
f 399/399 400/400 401/401
f 402/402 401/401 400/400
f 401/401 403/403 399/399
f 400/400 404/404 402/402
f 405/405 399/399 403/403
f 406/406 402/402 404/404
f 403/403 407/407 405/405
f 404/404 408/408 406/406
f 409/409 405/405 407/407
f 410/410 406/406 408/408
f 407/407 411/411 409/409
f 408/408 412/412 410/410
f 413/413 409/409 411/411
f 414/414 410/410 412/412
f 411/411 415/415 413/413
f 412/412 416/416 414/414
f 417/417 413/413 415/415
f 418/418 414/414 416/416
f 415/415 419/419 417/417
f 416/416 420/420 418/418
f 421/421 417/417 419/419
f 422/422 418/418 420/420
f 419/419 423/423 421/421
f 420/420 424/424 422/422
f 425/425 421/421 423/423
f 426/426 422/422 424/424
f 423/423 427/427 425/425
f 424/424 428/428 426/426
f 429/429 425/425 427/427
f 430/430 426/426 428/428
f 428/428 429/429 430/430
f 427/427 430/430 429/429
f 431/431 432/432 433/433
f 434/434 433/433 432/432
f 433/433 435/435 431/431
f 432/432 436/436 434/434
f 437/437 431/431 435/435
f 438/438 434/434 436/436
f 435/435 439/439 437/437
f 436/436 440/440 438/438
f 441/441 437/437 439/439
f 442/442 438/438 440/440
f 439/439 443/443 441/441
f 440/440 444/444 442/442
f 445/445 441/441 443/443
f 446/446 442/442 444/444
f 443/443 447/447 445/445
f 444/444 448/448 446/446
f 449/449 445/445 447/447
f 450/450 446/446 448/448
f 447/447 451/451 449/449
f 448/448 452/452 450/450
f 453/453 449/449 451/451
f 454/454 450/450 452/452
f 451/451 455/455 453/453
f 452/452 456/456 454/454
f 457/457 453/453 455/455
f 458/458 454/454 456/456
f 455/455 459/459 457/457
f 456/456 460/460 458/458
f 461/461 457/457 459/459
f 462/462 458/458 460/460
f 460/460 461/461 462/462
f 459/459 462/462 461/461
f 463/463 464/464 465/465
f 464/464 463/463 466/466
f 465/465 467/467 463/463
f 466/466 468/468 464/464
f 467/467 465/465 469/469
f 468/468 466/466 470/470
f 469/469 471/471 467/467
f 470/470 472/472 468/468
f 471/471 469/469 473/473
f 472/472 470/470 474/474
f 473/473 475/475 471/471
f 474/474 476/476 472/472
f 475/475 473/473 477/477
f 476/476 474/474 478/478
f 477/477 479/479 475/475
f 478/478 480/480 476/476
f 479/479 477/477 481/481
f 480/480 478/478 482/482
f 481/481 483/483 479/479
f 482/482 484/484 480/480
f 483/483 481/481 485/485
f 484/484 482/482 486/486
f 485/485 487/487 483/483
f 486/486 488/488 484/484
f 487/487 485/485 489/489
f 488/488 486/486 490/490
f 489/489 491/491 487/487
f 490/490 492/492 488/488
f 491/491 489/489 493/493
f 492/492 490/490 494/494
f 493/493 494/494 491/491
f 494/494 493/493 492/492
f 495/495 496/496 497/497
f 496/496 495/495 498/498
f 498/498 499/499 496/496
f 499/499 498/498 500/500
f 500/500 501/501 499/499
f 500/500 498/498 502/502
f 502/502 503/503 500/500
f 498/498 495/495 504/504
f 504/504 502/502 498/498
f 497/497 505/505 495/495
f 505/505 497/497 506/506
f 506/506 507/507 505/505
f 505/505 507/507 508/508
f 495/495 505/505 509/509
f 508/508 509/509 505/505
f 509/509 504/504 495/495
f 509/509 508/508 510/510
f 504/504 509/509 511/511
f 510/510 511/511 509/509
f 512/512 511/511 510/510
f 510/510 513/513 512/512
f 511/511 512/512 514/514
f 511/511 515/515 504/504
f 514/514 515/515 511/511
f 502/502 504/504 515/515
f 515/515 514/514 516/516
f 515/515 517/517 502/502
f 516/516 517/517 515/515
f 503/503 502/502 517/517
f 517/517 516/516 518/518
f 517/517 519/519 503/503
f 518/518 519/519 517/517
f 520/520 521/521 522/522
f 523/523 522/522 521/521
f 521/521 524/524 523/523
f 522/522 525/525 520/520
f 526/526 524/524 521/521
f 521/521 527/527 526/526
f 527/527 521/521 520/520
f 528/528 526/526 527/527
f 529/529 520/520 525/525
f 525/525 530/530 529/529
f 531/531 529/529 530/530
f 530/530 532/532 531/531
f 533/533 520/520 529/529
f 520/520 533/533 527/527
f 534/534 529/529 531/531
f 529/529 534/534 533/533
f 531/531 535/535 534/534
f 536/536 527/527 533/533
f 527/527 536/536 528/528
f 528/528 536/536 537/537
f 537/537 538/538 528/528
f 539/539 537/537 536/536
f 533/533 540/540 536/536
f 536/536 540/540 539/539
f 540/540 533/533 534/534
f 541/541 539/539 540/540
f 534/534 542/542 540/540
f 540/540 542/542 541/541
f 542/542 534/534 535/535
f 543/543 541/541 542/542
f 535/535 544/544 542/542
f 542/542 544/544 543/543
f 545/545 546/546 547/547
f 546/546 545/545 548/548
f 548/548 549/549 546/546
f 547/547 550/550 545/545
f 550/550 547/547 551/551
f 551/551 552/552 550/550
f 552/552 551/551 553/553
f 553/553 554/554 552/552
f 555/555 556/556 557/557
f 558/558 557/557 556/556
f 557/557 559/559 555/555
f 560/560 555/555 559/559
f 559/559 561/561 560/560
f 556/556 562/562 558/558
f 563/563 558/558 562/562
f 562/562 564/564 563/563
f 565/565 566/566 567/567
f 568/568 567/567 566/566
f 566/566 569/569 568/568
f 567/567 570/570 565/565
f 571/571 565/565 570/570
f 570/570 572/572 571/571
f 573/573 571/571 572/572
f 572/572 574/574 573/573
f 575/575 576/576 577/577
f 576/576 575/575 578/578
f 577/577 579/579 575/575
f 579/579 577/577 580/580
f 580/580 581/581 579/579
f 578/578 582/582 576/576
f 582/582 578/578 583/583
f 583/583 584/584 582/582
