v -0.440000057 0 -0.330768853
v -0.440000057 0 -0.75
v -0.430000067 0 -0.338820815
v -0.430000067 0 -0.74000001
v -0.175714284 -9.31322575e-10 -0.338820815
v -0.165952384 0 -0.75
v -0.165952384 -9.31322575e-10 -0.330768853
v -0.175714284 0 -0.74000001
v -0.430000067 0 0.0986415148
v -0.430000067 0 0.130849361
v -0.440000057 0 0.550000072
v -0.430000067 0 0.138901293
v -0.175714284 -9.31322575e-10 0.138901293
v -0.165952384 -9.31322575e-10 0.130849361
v -0.430000067 0 0.540000021
v -0.165952384 0 0.550000072
v -0.175714284 0 0.540000021
v -0.410000086 0 0.540000021
v -0.440000057 0 -0.298561037
v -0.430000067 0 0.0905896425
v -0.410000086 0 0.0986415148
v -0.430000067 0 -0.290509105
v -0.410000086 0 -0.290509105
v -0.175714284 -9.31322575e-10 0.0905896425
v -0.175714284 -9.31322575e-10 -0.290509105
v -0.165952384 -9.31322575e-10 0.0986415148
v -0.165952384 -9.31322575e-10 -0.298561037
v 0.430000067 0 0.0905896425
v 0.430000067 0 -0.290509105
v 0.440000057 0 -0.298561037
v 0.175714314 -9.31322575e-10 -0.290509105
v 0.165952444 -9.31322575e-10 -0.298561037
v 0.165952444 -9.31322575e-10 0.0986415148
v 0.175714314 -9.31322575e-10 0.0905896425
v 0.410000056 0 0.0986415148
v 0.410000056 0 0.0905896425
v 0.430000067 0 0.0986415148
v 0.430000067 0 0.130849361
v 0.430000067 0 0.138901293
v 0.410000056 0 0.130849361
v 0.430000067 0 0.519999981
v 0.410000056 0 0.138901293
v 0.440000057 0 0.519999981
v 0.175714314 -9.31322575e-10 0.138901293
v 0.165952444 -9.31322575e-10 0.130849361
v 0.165952444 -9.31322575e-10 0.519999981
v 0.175714314 0 0.540000021
v 0.165952444 0 0.550000072
v 0.440000057 0 0.550000072
v 0.430000067 0 0.540000021
v 0.410000056 0 0.540000021
v 0.117142916 -9.31322575e-10 0.0905896425
v 0.117142916 -9.31322575e-10 -0.290509105
v 0.126904786 -9.31322575e-10 -0.298561037
v -0.117142856 -9.31322575e-10 -0.290509105
v 0.126904786 -9.31322575e-10 0.0986415148
v -0.126904756 -9.31322575e-10 -0.298561037
v -0.117142856 -9.31322575e-10 0.0905896425
v -0.126904756 -9.31322575e-10 0.0986415148
v -0.126904756 -9.31322575e-10 -0.330768853
v -0.126904756 0 -0.75
v -0.117142856 -9.31322575e-10 -0.338820815
v 0.126904786 -9.31322575e-10 -0.330768853
v -0.117142856 0 -0.74000001
v 0.117142916 -9.31322575e-10 -0.338820815
v 0.126904786 0 -0.75
v 0.117142916 -9.31322575e-10 -0.720000029
v 0.117142916 0 -0.74000001
v 0.126904786 -9.31322575e-10 -0.720000029
v -0.117142856 -9.31322575e-10 0.138901293
v -0.126904756 -9.31322575e-10 0.130849361
v 0.126904786 -9.31322575e-10 0.130849361
v 0.117142916 -9.31322575e-10 0.138901293
v -0.117142856 0 0.540000021
v 0.126904786 0 0.550000072
v -0.126904756 0 0.550000072
v 0.117142916 0 0.540000021
v 0.430000067 0 -0.338820815
v 0.175714314 -9.31322575e-10 -0.338820815
v 0.440000057 0 -0.330768853
v 0.430000067 0 -0.720000029
v 0.165952444 -9.31322575e-10 -0.330768853
v 0.175714314 -9.31322575e-10 -0.720000029
v 0.440000057 0 -0.75
v 0.165952444 0 -0.75
v 0.430000067 0 -0.74000001
v 0.175714314 0 -0.74000001
v 0.440000057 0 -0.75
v 0.440000057 0 -0.330768853
v 0.430000067 0 -0.720000029
v 0.430000067 0 -0.338820815
v 0.430000067 0 -0.74000001
v 0.175714314 -9.31322575e-10 -0.338820815
v 0.175714314 0 -0.74000001
v 0.165952444 -9.31322575e-10 -0.330768853
v 0.165952444 0 -0.75
v 0.175714314 -9.31322575e-10 -0.720000029
v -0.430000067 0 -0.338820815
v -0.440000057 0 -0.330768853
v -0.175714284 -9.31322575e-10 -0.338820815
v -0.165952384 -9.31322575e-10 -0.330768853
v -0.440000057 0 -0.75
v -0.175714284 0 -0.74000001
v -0.430000067 0 -0.74000001
v -0.165952384 0 -0.75
v -0.440000057 0 0.550000072
v -0.430000067 0 0.130849361
v -0.430000067 0 0.0986415148
v -0.430000067 0 0.138901293
v -0.175714284 -9.31322575e-10 0.138901293
v -0.165952384 -9.31322575e-10 0.130849361
v -0.430000067 0 0.540000021
v -0.165952384 0 0.550000072
v -0.175714284 0 0.540000021
v -0.410000086 0 0.540000021
v -0.440000057 0 -0.298561037
v -0.430000067 0 0.0905896425
v -0.410000086 0 0.0986415148
v -0.430000067 0 -0.290509105
v -0.175714284 -9.31322575e-10 0.0905896425
v -0.410000086 0 -0.290509105
v -0.165952384 -9.31322575e-10 0.0986415148
v -0.175714284 -9.31322575e-10 -0.290509105
v -0.165952384 -9.31322575e-10 -0.298561037
v 0.430000067 0 0.0986415148
v 0.410000056 0 0.0905896425
v 0.410000056 0 0.0986415148
v 0.175714314 -9.31322575e-10 0.0905896425
v 0.165952444 -9.31322575e-10 0.0986415148
v 0.430000067 0 0.0905896425
v 0.175714314 -9.31322575e-10 -0.290509105
v 0.165952444 -9.31322575e-10 -0.298561037
v 0.440000057 0 -0.298561037
v 0.430000067 0 -0.290509105
v 0.430000067 0 0.130849361
v 0.430000067 0 0.138901293
v 0.410000056 0 0.130849361
v 0.430000067 0 0.519999981
v 0.410000056 0 0.138901293
v 0.440000057 0 0.519999981
v 0.175714314 -9.31322575e-10 0.138901293
v 0.165952444 -9.31322575e-10 0.130849361
v 0.165952444 -9.31322575e-10 0.519999981
v 0.175714314 0 0.540000021
v 0.165952444 0 0.550000072
v 0.440000057 0 0.550000072
v 0.430000067 0 0.540000021
v 0.410000056 0 0.540000021
v -0.126904756 -9.31322575e-10 0.0986415148
v -0.117142856 -9.31322575e-10 0.0905896425
v -0.117142856 -9.31322575e-10 -0.290509105
v 0.126904786 -9.31322575e-10 0.0986415148
v -0.126904756 -9.31322575e-10 -0.298561037
v 0.117142916 -9.31322575e-10 0.0905896425
v 0.126904786 -9.31322575e-10 -0.298561037
v 0.117142916 -9.31322575e-10 -0.290509105
v -0.117142856 -9.31322575e-10 -0.338820815
v -0.126904756 -9.31322575e-10 -0.330768853
v 0.126904786 -9.31322575e-10 -0.330768853
v -0.126904756 0 -0.75
v 0.117142916 -9.31322575e-10 -0.338820815
v -0.117142856 0 -0.74000001
v 0.117142916 -9.31322575e-10 -0.720000029
v 0.126904786 0 -0.75
v 0.126904786 -9.31322575e-10 -0.720000029
v 0.117142916 0 -0.74000001
v -0.117142856 -9.31322575e-10 0.138901293
v -0.126904756 -9.31322575e-10 0.130849361
v -0.117142856 0 0.540000021
v -0.126904756 0 0.550000072
v 0.126904786 -9.31322575e-10 0.130849361
v 0.126904786 0 0.550000072
v 0.117142916 -9.31322575e-10 0.138901293
v 0.117142916 0 0.540000021
f 1 2 3
f 4 3 2
f 5 1 3
f 2 6 4
f 1 5 7
f 8 4 6
f 8 7 5
f 7 8 6
f 9 10 11
f 10 12 11
f 12 10 13
f 14 13 10
f 15 11 12
f 14 16 13
f 16 11 15
f 13 16 17
f 18 16 15
f 17 16 18
f 11 19 9
f 20 9 19
f 9 20 21
f 22 20 19
f 23 22 19
f 24 21 20
f 23 19 25
f 21 24 26
f 27 25 19
f 24 25 27
f 27 26 24
f 28 29 30
f 31 30 29
f 30 31 32
f 33 32 31
f 31 34 33
f 35 33 34
f 36 35 34
f 35 36 37
f 28 37 36
f 30 37 28
f 38 37 30
f 30 39 38
f 38 39 40
f 41 39 30
f 42 40 39
f 43 41 30
f 42 44 40
f 40 44 45
f 46 45 44
f 47 46 44
f 46 47 48
f 43 49 41
f 49 48 47
f 41 49 50
f 51 49 47
f 50 49 51
f 52 53 54
f 53 55 54
f 54 56 52
f 54 55 57
f 52 56 58
f 59 57 55
f 56 59 58
f 55 58 59
f 60 61 62
f 63 60 62
f 64 62 61
f 65 63 62
f 66 64 61
f 67 63 65
f 68 64 66
f 69 63 67
f 67 68 69
f 69 68 66
f 70 71 72
f 70 72 73
f 74 71 70
f 72 75 73
f 71 74 76
f 75 76 74
f 77 75 74
f 73 75 77
f 78 79 80
f 78 80 81
f 80 79 82
f 79 83 82
f 81 80 84
f 85 82 83
f 84 86 81
f 85 83 87
f 84 87 86
f 85 87 84
f 88 89 90
f 90 89 91
f 90 92 88
f 89 93 91
f 92 94 88
f 95 93 89
f 88 94 96
f 95 97 93
f 94 97 96
f 97 95 96
f 98 99 100
f 101 100 99
f 98 102 99
f 100 101 103
f 102 98 104
f 105 103 101
f 104 105 102
f 105 104 103
f 106 107 108
f 106 109 107
f 110 107 109
f 107 110 111
f 109 106 112
f 110 113 111
f 112 106 113
f 114 113 110
f 112 113 115
f 115 113 114
f 108 116 106
f 116 108 117
f 118 117 108
f 116 117 119
f 117 118 120
f 116 119 121
f 122 120 118
f 123 116 121
f 120 122 124
f 116 123 124
f 124 123 120
f 125 126 127
f 128 127 126
f 128 129 127
f 126 125 130
f 129 128 131
f 131 132 129
f 132 131 133
f 134 133 131
f 133 134 130
f 130 125 133
f 133 125 135
f 135 136 133
f 137 136 135
f 133 136 138
f 136 137 139
f 133 138 140
f 137 141 139
f 142 141 137
f 141 142 143
f 141 143 144
f 145 144 143
f 138 146 140
f 144 145 146
f 147 146 138
f 144 146 148
f 148 146 147
f 149 150 151
f 150 149 152
f 151 153 149
f 150 152 154
f 153 151 155
f 154 152 155
f 155 151 156
f 155 156 154
f 157 158 159
f 157 160 158
f 157 159 161
f 160 157 162
f 161 159 163
f 160 162 164
f 163 159 165
f 164 162 166
f 165 166 163
f 164 166 165
f 167 168 169
f 170 169 168
f 171 168 167
f 169 170 172
f 173 171 167
f 173 172 171
f 169 172 174
f 174 172 173
