v 0.410000056 0.0399999991 0.650000036
v 0.540000081 -0.0400000066 0.650000036
v 0.540000081 0.0399999991 0.650000036
v 0.410000056 -0.0400000066 0.650000036
v -0.410000086 0.0399999991 0.650000036
v -0.410000086 -0.0400000066 0.650000036
v -0.540000081 0.0399999991 0.650000036
v -0.540000081 -0.0400000066 0.650000036
v -0.410000086 -0.0400000066 -0.850000024
v -0.540000081 0.0399999991 -0.850000024
v -0.410000086 0.0399999991 -0.850000024
v -0.540000081 -0.0400000066 -0.850000024
v 0.410000145 -0.0400000066 -0.850000024
v 0.410000145 0.0399999991 -0.850000024
v 0.540000081 -0.0400000066 -0.850000024
v 0.540000081 0.0399999991 -0.850000024
v 0.410000056 -0.0150000043 0.590000033
v 0.480000049 -0.0150000043 0.590000033
v 0.410000056 0.0149999969 0.590000033
v 0.480000049 -0.0400000066 0.590000033
v 0.410000056 -0.0400000066 0.590000033
v 0.480000049 0.0149999969 0.590000033
v 0.410000056 0.0399999991 0.590000033
v 0.480000049 0.0399999991 0.590000033
v -0.410000086 0.0399999991 0.590000033
v -0.410000086 0.0149999969 0.590000033
v -0.480000079 0.0399999991 0.590000033
v -0.480000079 0.0149999969 0.590000033
v -0.410000086 -0.0150000043 0.590000033
v -0.480000079 -0.0150000043 0.590000033
v -0.410000086 -0.0400000066 0.590000033
v -0.480000079 -0.0400000066 0.590000033
v -0.480000079 0.0149999969 -0.790000021
v -0.480000079 0.0399999991 -0.790000021
v -0.410000086 0.0149999969 -0.790000021
v -0.410000086 0.0399999991 -0.790000021
v -0.410000086 -0.0150000043 -0.790000021
v -0.480000079 -0.0150000043 -0.790000021
v -0.410000086 -0.0400000066 -0.790000021
v -0.480000079 -0.0400000066 -0.790000021
v 0.410000145 -0.0400000066 -0.790000021
v 0.410000145 -0.0150000043 -0.790000021
v 0.480000049 -0.0400000066 -0.790000021
v 0.480000049 -0.0150000043 -0.790000021
v 0.410000145 0.0149999969 -0.790000021
v 0.480000049 0.0149999969 -0.790000021
v 0.410000145 0.0399999991 -0.790000021
v 0.480000049 0.0399999991 -0.790000021
v 0.410000056 0 0.550000072
v 0.440000057 0 0.550000072
v 0.410000056 0.0149999969 0.550000072
v 0.440000057 0.0149999969 0.550000072
v 0.165952444 0.0149999969 0.550000072
v 0.440000057 -0.0150000043 0.550000072
v 0.165952444 0 0.550000072
v 0.410000056 -0.0150000043 0.550000072
v 0.165952444 -0.0150000043 0.550000072
v -0.440000057 0 0.550000072
v -0.410000086 -0.0150000043 0.550000072
v -0.410000086 0 0.550000072
v -0.440000057 -0.0150000043 0.550000072
v -0.440000057 0.0149999969 0.550000072
v -0.165952384 -0.0150000043 0.550000072
v -0.410000086 0.0149999969 0.550000072
v -0.165952384 0 0.550000072
v -0.165952384 0.0149999969 0.550000072
v -0.126904756 0 0.550000072
v 0.126904786 0 0.550000072
v -0.126904756 0.0149999969 0.550000072
v 0.126904786 0.0149999969 0.550000072
v 0.126904786 -0.0150000043 0.550000072
v -0.126904756 -0.0150000043 0.550000072
v 0.126904786 -9.31322575e-10 0.519999981
v 0.165952444 -0.0150000015 0.519999981
v 0.165952444 -9.31322575e-10 0.519999981
v 0.126904786 -0.0150000015 0.519999981
v 0.440000057 -0.0150000043 0.519999981
v 0.480000049 -0.0150000043 0.519999981
v 0.440000057 0 0.519999981
v 0.440000057 0.0149999969 0.519999981
v 0.480000049 0.0149999969 0.519999981
v -0.440000057 -0.0150000043 0.519999981
v -0.440000057 0 0.519999981
v -0.480000079 -0.0150000043 0.519999981
v -0.480000079 0.0149999969 0.519999981
v -0.440000057 0.0149999969 0.519999981
v -0.165952384 -0.0150000015 0.519999981
v -0.126904756 -0.0150000015 0.519999981
v -0.165952384 -9.31322575e-10 0.519999981
v -0.126904756 -9.31322575e-10 0.519999981
v -0.165952384 0.0149999997 0.519999981
v -0.126904756 0.0149999997 0.519999981
v -0.440000057 0 -0.75
v -0.440000057 0.0149999969 -0.75
v -0.410000086 0 -0.75
v -0.410000086 0.0149999969 -0.75
v -0.165952384 0.0149999969 -0.75
v -0.165952384 0 -0.75
v -0.410000086 -0.0150000043 -0.75
v -0.440000057 -0.0150000043 -0.75
v -0.165952384 -0.0150000043 -0.75
v -0.126904756 0 -0.75
v -0.126904756 0.0149999969 -0.75
v 0.126904786 0 -0.75
v 0.126904786 0.0149999969 -0.75
v 0.126904786 -0.0150000043 -0.75
v -0.126904756 -0.0150000043 -0.75
v 0.165952444 0 -0.75
v 0.165952444 0.0149999969 -0.75
v 0.410000145 0 -0.75
v 0.410000145 0.0149999969 -0.75
v 0.410000145 -0.0150000043 -0.75
v 0.165952444 -0.0150000043 -0.75
v 0.440000057 -0.0150000043 -0.75
v 0.440000057 0 -0.75
v 0.440000057 0.0149999969 -0.75
v -0.440000057 0 -0.720000029
v -0.480000079 0.0149999969 -0.720000029
v -0.440000057 0.0149999969 -0.720000029
v -0.480000079 -0.0150000043 -0.720000029
v -0.440000057 -0.0150000043 -0.720000029
v 0.480000049 -0.0150000043 -0.720000029
v 0.440000057 0.0149999969 -0.720000029
v 0.480000049 0.0149999969 -0.720000029
v 0.440000057 0 -0.720000029
v 0.440000057 -0.0150000043 -0.720000029
v -0.126904756 -9.31322575e-10 -0.720000029
v -0.165952384 0.0149999997 -0.720000029
v -0.126904756 0.0149999997 -0.720000029
v -0.165952384 -9.31322575e-10 -0.720000029
v -0.126904756 -0.0150000015 -0.720000029
v -0.165952384 -0.0150000015 -0.720000029
v 0.165952444 -9.31322575e-10 -0.720000029
v 0.126904786 0.0149999997 -0.720000029
v 0.165952444 0.0149999997 -0.720000029
v 0.126904786 -9.31322575e-10 -0.720000029
v 0.165952444 -0.0150000015 -0.720000029
v 0.126904786 -0.0150000015 -0.720000029
v -0.440000057 -0.0150000043 -0.720000029
v -0.480000079 -0.0150000043 -0.720000029
v -0.440000057 0 -0.720000029
v -0.480000079 0.0149999969 -0.720000029
v -0.440000057 0.0149999969 -0.720000029
v -0.165952384 -0.0150000015 -0.720000029
v -0.165952384 -9.31322575e-10 -0.720000029
v -0.126904756 -0.0150000015 -0.720000029
v -0.126904756 -9.31322575e-10 -0.720000029
v -0.165952384 0.0149999997 -0.720000029
v -0.126904756 0.0149999997 -0.720000029
v 0.440000057 -0.0150000043 -0.720000029
v 0.440000057 0 -0.720000029
v 0.480000049 -0.0150000043 -0.720000029
v 0.440000057 0.0149999969 -0.720000029
v 0.480000049 0.0149999969 -0.720000029
v -0.540000081 -0.0400000066 0.519999981
v -0.540000081 0.0399999991 -0.720000029
v -0.540000081 -0.0400000066 -0.720000029
v -0.540000081 0.0399999991 -0.850000024
v -0.540000081 -0.0400000066 -0.850000024
v -0.540000081 0.0399999991 0.519999981
v -0.540000081 -0.0400000066 0.650000036
v -0.540000081 0.0399999991 0.650000036
v 0.540000081 0.0399999991 0.519999981
v 0.540000081 -0.0400000066 -0.720000029
v 0.540000081 0.0399999991 -0.720000029
v 0.540000081 -0.0400000066 -0.850000024
v 0.540000081 0.0399999991 -0.850000024
v 0.540000081 -0.0400000066 0.519999981
v 0.540000081 0.0399999991 0.650000036
v 0.540000081 -0.0400000066 0.650000036
v -0.480000079 -0.0400000066 0.519999981
v -0.480000079 -0.0150000043 0.519999981
v -0.480000079 -0.0400000066 -0.720000029
v -0.480000079 -0.0150000043 0.590000033
v -0.480000079 -0.0400000066 0.590000033
v -0.480000079 0.0149999969 0.590000033
v -0.480000079 -0.0150000043 -0.720000029
v -0.480000079 0.0149999969 0.519999981
v -0.480000079 -0.0400000066 -0.790000021
v -0.480000079 0.0399999991 0.590000033
v -0.480000079 -0.0150000043 -0.790000021
v -0.480000079 0.0399999991 0.519999981
v -0.480000079 0.0149999969 -0.720000029
v -0.480000079 0.0149999969 -0.790000021
v -0.480000079 0.0399999991 -0.720000029
v -0.480000079 0.0399999991 -0.790000021
v 0.480000049 -0.0150000043 0.519999981
v 0.480000049 -0.0400000066 0.519999981
v 0.480000049 -0.0150000043 -0.720000029
v 0.480000049 -0.0400000066 0.590000033
v 0.480000049 -0.0150000043 0.590000033
v 0.480000049 -0.0400000066 -0.720000029
v 0.480000049 0.0149999969 0.519999981
v 0.480000049 -0.0150000043 -0.790000021
v 0.480000049 -0.0400000066 -0.790000021
v 0.480000049 0.0149999969 -0.790000021
v 0.480000049 0.0149999969 -0.720000029
v 0.480000049 0.0399999991 -0.790000021
v 0.480000049 0.0399999991 -0.720000029
v 0.480000049 0.0399999991 0.519999981
v 0.480000049 0.0149999969 0.590000033
v 0.480000049 0.0399999991 0.590000033
v -0.440000057 -0.0150000043 -0.330768853
v -0.440000057 0 -0.330768853
v -0.440000057 -0.0150000043 -0.720000029
v -0.440000057 0 -0.720000029
v -0.440000057 0 -0.75
v -0.440000057 -0.0150000043 -0.75
v -0.440000057 0.0149999969 -0.720000029
v -0.440000057 0.0149999969 -0.330768853
v -0.440000057 0.0149999969 -0.75
v -0.440000057 -0.0150000043 0.0986415148
v -0.440000057 0 0.0986415148
v -0.440000057 -0.0150000043 -0.298561037
v -0.440000057 0 -0.298561037
v -0.440000057 0.0149999969 -0.298561037
v -0.440000057 0.0149999969 0.0986415148
v -0.440000057 -0.0150000043 0.519999981
v -0.440000057 0 0.519999981
v -0.440000057 -0.0150000043 0.130849361
v -0.440000057 0 0.130849361
v -0.440000057 -0.0150000043 0.550000072
v -0.440000057 0.0149999969 0.130849361
v -0.440000057 0 0.550000072
v -0.440000057 0.0149999969 0.519999981
v -0.440000057 0.0149999969 0.550000072
v 0.440000057 0 0.0986415148
v 0.440000057 -0.0150000043 0.0986415148
v 0.440000057 0 -0.298561037
v 0.440000057 -0.0150000043 -0.298561037
v 0.440000057 0.0149999969 0.0986415148
v 0.440000057 0.0149999969 -0.298561037
v 0.440000057 0 0.519999981
v 0.440000057 -0.0150000043 0.519999981
v 0.440000057 0 0.130849361
v 0.440000057 -0.0150000043 0.130849361
v 0.440000057 0.0149999969 0.519999981
v 0.440000057 0.0149999969 0.130849361
v 0.440000057 0 0.550000072
v 0.440000057 -0.0150000043 0.550000072
v 0.440000057 0.0149999969 0.550000072
v 0.440000057 0 -0.330768853
v 0.440000057 -0.0150000043 -0.330768853
v 0.440000057 0 -0.720000029
v 0.440000057 -0.0150000043 -0.720000029
v 0.440000057 0.0149999969 -0.330768853
v 0.440000057 -0.0150000043 -0.75
v 0.440000057 0.0149999969 -0.720000029
v 0.440000057 0 -0.75
v 0.440000057 0.0149999969 -0.75
v -0.410000086 0 -0.298561037
v -0.410000086 0.0149999969 -0.298561037
v -0.410000086 -0.0150000043 -0.298561037
v -0.410000086 -0.0150000043 -0.330768853
v -0.410000086 0 -0.330768853
v -0.410000086 0.0149999969 -0.330768853
v -0.410000086 -0.0150000043 0.130849361
v -0.410000086 0 0.130849361
v -0.410000086 -0.0150000043 0.0986415148
v -0.410000086 0 0.0986415148
v -0.410000086 0.0149999969 0.130849361
v -0.410000086 0.0149999969 0.0986415148
v -0.410000086 -0.0150000043 -0.298561037
v -0.410000086 0 -0.330768853
v -0.410000086 -0.0150000043 -0.330768853
v -0.410000086 0.0149999969 -0.330768853
v -0.410000086 0.0149999969 -0.298561037
v -0.410000086 0 -0.298561037
v -0.410000086 0 0.130849361
v -0.410000086 0.0149999969 0.0986415148
v -0.410000086 0 0.0986415148
v -0.410000086 0.0149999969 0.130849361
v -0.410000086 -0.0150000043 0.130849361
v -0.410000086 -0.0150000043 0.0986415148
v -0.410000086 -0.0150000043 0.590000033
v -0.410000086 0.0149999969 0.590000033
v -0.410000086 -0.0150000043 0.550000072
v -0.410000086 0 0.550000072
v -0.410000086 0.0149999969 0.550000072
v -0.410000086 0 -0.75
v -0.410000086 0.0149999969 -0.75
v -0.410000086 -0.0150000043 -0.75
v -0.410000086 -0.0150000043 -0.790000021
v -0.410000086 0.0149999969 -0.790000021
v -0.410000086 -0.0400000066 -0.790000021
v -0.410000086 0.0399999991 -0.850000024
v -0.410000086 -0.0400000066 -0.850000024
v -0.410000086 -0.0150000043 -0.790000021
v -0.410000086 0.0399999991 -0.790000021
v -0.410000086 0.0149999969 -0.790000021
v -0.410000086 -0.0150000043 -0.75
v -0.410000086 0.0149999969 -0.75
v -0.410000086 0 -0.75
v -0.410000086 -0.0150000043 0.590000033
v -0.410000086 0 0.550000072
v -0.410000086 -0.0150000043 0.550000072
v -0.410000086 0.0149999969 0.550000072
v -0.410000086 0.0149999969 0.590000033
v -0.410000086 -0.0400000066 0.650000036
v -0.410000086 -0.0400000066 0.590000033
v -0.410000086 0.0399999991 0.590000033
v -0.410000086 0.0399999991 0.650000036
v 0.410000056 0 -0.298561037
v 0.410000056 -0.0150000043 -0.298561037
v 0.410000056 0.0149999969 -0.298561037
v 0.410000056 0.0149999969 -0.330768853
v 0.410000056 0 -0.330768853
v 0.410000056 -0.0150000043 -0.330768853
v 0.410000056 0 0.130849361
v 0.410000056 -0.0150000043 0.130849361
v 0.410000056 0 0.0986415148
v 0.410000056 -0.0150000043 0.0986415148
v 0.410000056 0.0149999969 0.0986415148
v 0.410000056 0.0149999969 0.130849361
v 0.410000056 0.0149999969 -0.298561037
v 0.410000056 0 -0.330768853
v 0.410000056 0.0149999969 -0.330768853
v 0.410000056 -0.0150000043 -0.330768853
v 0.410000056 -0.0150000043 -0.298561037
v 0.410000056 0 -0.298561037
v 0.410000056 0.0149999969 0.130849361
v 0.410000056 0 0.0986415148
v 0.410000056 0.0149999969 0.0986415148
v 0.410000056 0 0.130849361
v 0.410000056 -0.0150000043 0.0986415148
v 0.410000056 -0.0150000043 0.130849361
v 0.410000056 0.0149999969 0.590000033
v 0.410000056 -0.0150000043 0.590000033
v 0.410000056 0.0149999969 0.550000072
v 0.410000056 0 0.550000072
v 0.410000056 -0.0150000043 0.550000072
v 0.410000145 0.0149999969 -0.75
v 0.410000145 -0.0150000043 -0.790000021
v 0.410000145 0.0149999969 -0.790000021
v 0.410000145 -0.0150000043 -0.75
v 0.410000145 0 -0.75
v 0.410000145 0 -0.75
v 0.410000145 -0.0150000043 -0.75
v 0.410000145 0.0149999969 -0.75
v 0.410000145 0.0149999969 -0.790000021
v 0.410000145 -0.0150000043 -0.790000021
v 0.410000056 0.0149999969 0.590000033
v 0.410000056 0 0.550000072
v 0.410000056 0.0149999969 0.550000072
v 0.410000056 -0.0150000043 0.550000072
v 0.410000056 -0.0150000043 0.590000033
v -0.440000057 -0.0150000043 0.130849361
v -0.430000067 0 0.130849361
v -0.440000057 0 0.130849361
v -0.410000086 -0.0150000043 0.130849361
v -0.410000086 0 0.130849361
v -0.440000057 0.0149999969 0.130849361
v -0.165952384 -0.0150000015 0.130849361
v -0.410000086 0.0149999969 0.130849361
v -0.165952384 -9.31322575e-10 0.130849361
v -0.165952384 0.0149999997 0.130849361
v 0.410000056 0 0.130849361
v 0.440000057 0 0.130849361
v 0.430000067 0 0.130849361
v 0.410000056 0.0149999969 0.130849361
v 0.440000057 0.0149999969 0.130849361
v 0.165952444 0.0149999997 0.130849361
v 0.440000057 -0.0150000043 0.130849361
v 0.165952444 -9.31322575e-10 0.130849361
v 0.410000056 -0.0150000043 0.130849361
v 0.165952444 -0.0150000015 0.130849361
v -0.126904756 -9.31322575e-10 0.130849361
v 0.126904786 -9.31322575e-10 0.130849361
v -0.126904756 0.0149999997 0.130849361
v 0.126904786 0.0149999997 0.130849361
v 0.126904786 -0.0150000015 0.130849361
v -0.126904756 -0.0150000015 0.130849361
v -0.410000086 -0.0150000043 0.0986415148
v -0.430000067 0 0.0986415148
v -0.440000057 -0.0150000043 0.0986415148
v -0.440000057 0 0.0986415148
v -0.410000086 0 0.0986415148
v -0.165952384 -0.0150000015 0.0986415148
v -0.440000057 0.0149999969 0.0986415148
v -0.165952384 -9.31322575e-10 0.0986415148
v -0.410000086 0.0149999969 0.0986415148
v -0.165952384 0.0149999997 0.0986415148
v 0.410000056 -0.0150000043 0.0986415148
v 0.440000057 -0.0150000043 0.0986415148
v 0.410000056 0 0.0986415148
v 0.165952444 -0.0150000015 0.0986415148
v 0.440000057 0 0.0986415148
v 0.165952444 -9.31322575e-10 0.0986415148
v 0.430000067 0 0.0986415148
v 0.410000056 0.0149999969 0.0986415148
v 0.165952444 0.0149999997 0.0986415148
v 0.440000057 0.0149999969 0.0986415148
v -0.126904756 0.0149999997 0.0986415148
v 0.126904786 -9.31322575e-10 0.0986415148
v 0.126904786 0.0149999997 0.0986415148
v -0.126904756 -9.31322575e-10 0.0986415148
v 0.126904786 -0.0150000015 0.0986415148
v -0.126904756 -0.0150000015 0.0986415148
v -0.410000086 -0.0150000043 -0.330768853
v -0.440000057 0 -0.330768853
v -0.410000086 0 -0.330768853
v -0.440000057 -0.0150000043 -0.330768853
v -0.165952384 -0.0150000015 -0.330768853
v -0.440000057 0.0149999969 -0.330768853
v -0.165952384 -9.31322575e-10 -0.330768853
v -0.410000086 0.0149999969 -0.330768853
v -0.165952384 0.0149999997 -0.330768853
v 0.410000056 0 -0.330768853
v 0.410000056 0.0149999969 -0.330768853
v 0.440000057 0 -0.330768853
v 0.440000057 0.0149999969 -0.330768853
v 0.440000057 -0.0150000043 -0.330768853
v 0.410000056 -0.0150000043 -0.330768853
v 0.165952444 -0.0150000015 -0.330768853
v 0.165952444 -9.31322575e-10 -0.330768853
v 0.165952444 0.0149999997 -0.330768853
v -0.126904756 -9.31322575e-10 -0.330768853
v -0.126904756 0.0149999997 -0.330768853
v 0.126904786 -9.31322575e-10 -0.330768853
v 0.126904786 0.0149999997 -0.330768853
v 0.126904786 -0.0150000015 -0.330768853
v -0.126904756 -0.0150000015 -0.330768853
v -0.410000086 0 -0.298561037
v -0.440000057 0.0149999969 -0.298561037
v -0.410000086 0.0149999969 -0.298561037
v -0.440000057 0 -0.298561037
v -0.165952384 -9.31322575e-10 -0.298561037
v -0.165952384 0.0149999997 -0.298561037
v -0.165952384 -0.0150000015 -0.298561037
v -0.410000086 -0.0150000043 -0.298561037
v -0.440000057 -0.0150000043 -0.298561037
v 0.410000056 -0.0150000043 -0.298561037
v 0.410000056 0 -0.298561037
v 0.440000057 -0.0150000043 -0.298561037
v 0.440000057 0 -0.298561037
v 0.165952444 -9.31322575e-10 -0.298561037
v 0.165952444 -0.0150000015 -0.298561037
v 0.165952444 0.0149999997 -0.298561037
v 0.410000056 0.0149999969 -0.298561037
v 0.440000057 0.0149999969 -0.298561037
v 0.126904786 -9.31322575e-10 -0.298561037
v -0.126904756 0.0149999997 -0.298561037
v 0.126904786 0.0149999997 -0.298561037
v -0.126904756 -9.31322575e-10 -0.298561037
v 0.126904786 -0.0150000015 -0.298561037
v -0.126904756 -0.0150000015 -0.298561037
v -0.165952384 -0.0150000015 0.0986415148
v -0.165952384 -9.31322575e-10 -0.298561037
v -0.165952384 -0.0150000015 -0.298561037
v -0.165952384 -9.31322575e-10 0.0986415148
v -0.165952384 0.0149999997 0.0986415148
v -0.165952384 0.0149999997 -0.298561037
v -0.165952384 -9.31322575e-10 0.519999981
v -0.165952384 0.0149999997 0.519999981
v -0.165952384 -9.31322575e-10 0.130849361
v -0.165952384 0.0149999997 0.130849361
v -0.165952384 -0.0150000015 0.519999981
v -0.165952384 -0.0150000015 0.130849361
v -0.165952384 0 0.550000072
v -0.165952384 0.0149999969 0.550000072
v -0.165952384 -0.0150000043 0.550000072
v -0.165952384 -9.31322575e-10 -0.330768853
v -0.165952384 0.0149999997 -0.330768853
v -0.165952384 -9.31322575e-10 -0.720000029
v -0.165952384 0.0149999997 -0.720000029
v -0.165952384 -0.0150000015 -0.330768853
v -0.165952384 0.0149999969 -0.75
v -0.165952384 -0.0150000015 -0.720000029
v -0.165952384 0 -0.75
v -0.165952384 -0.0150000043 -0.75
v 0.165952444 0.0149999997 0.519999981
v 0.165952444 -9.31322575e-10 0.519999981
v 0.165952444 0.0149999997 0.130849361
v 0.165952444 -9.31322575e-10 0.130849361
v 0.165952444 0.0149999969 0.550000072
v 0.165952444 -0.0150000015 0.130849361
v 0.165952444 0 0.550000072
v 0.165952444 -0.0150000015 0.519999981
v 0.165952444 -0.0150000043 0.550000072
v 0.165952444 0.0149999997 -0.330768853
v 0.165952444 -9.31322575e-10 -0.330768853
v 0.165952444 0.0149999997 -0.720000029
v 0.165952444 -9.31322575e-10 -0.720000029
v 0.165952444 0 -0.75
v 0.165952444 0.0149999969 -0.75
v 0.165952444 -0.0150000015 -0.720000029
v 0.165952444 -0.0150000015 -0.330768853
v 0.165952444 -0.0150000043 -0.75
v 0.165952444 0.0149999997 0.0986415148
v 0.165952444 -9.31322575e-10 0.0986415148
v 0.165952444 0.0149999997 -0.298561037
v 0.165952444 -9.31322575e-10 -0.298561037
v 0.165952444 -0.0150000015 -0.298561037
v 0.165952444 -0.0150000015 0.0986415148
v -0.126904756 -9.31322575e-10 0.519999981
v -0.126904756 0.0149999997 0.130849361
v -0.126904756 -9.31322575e-10 0.130849361
v -0.126904756 0.0149999997 0.519999981
v -0.126904756 -0.0150000015 0.130849361
v -0.126904756 0.0149999969 0.550000072
v -0.126904756 -0.0150000015 0.519999981
v -0.126904756 0 0.550000072
v -0.126904756 -0.0150000043 0.550000072
v -0.126904756 -9.31322575e-10 -0.330768853
v -0.126904756 0.0149999997 -0.720000029
v -0.126904756 -9.31322575e-10 -0.720000029
v -0.126904756 0.0149999997 -0.330768853
v -0.126904756 -0.0150000015 -0.720000029
v -0.126904756 -0.0150000015 -0.330768853
v -0.126904756 0 -0.75
v -0.126904756 0.0149999969 -0.75
v -0.126904756 -0.0150000043 -0.75
v -0.126904756 -9.31322575e-10 0.0986415148
v -0.126904756 0.0149999997 -0.298561037
v -0.126904756 -9.31322575e-10 -0.298561037
v -0.126904756 0.0149999997 0.0986415148
v -0.126904756 -0.0150000015 -0.298561037
v -0.126904756 -0.0150000015 0.0986415148
v 0.126904786 0.0149999997 0.519999981
v 0.126904786 -9.31322575e-10 0.130849361
v 0.126904786 0.0149999997 0.130849361
v 0.126904786 -9.31322575e-10 0.519999981
v 0.126904786 0 0.550000072
v 0.126904786 0.0149999969 0.550000072
v 0.126904786 -0.0150000015 0.519999981
v 0.126904786 -0.0150000015 0.130849361
v 0.126904786 -0.0150000043 0.550000072
v 0.126904786 0.0149999997 -0.330768853
v 0.126904786 -9.31322575e-10 -0.720000029
v 0.126904786 0.0149999997 -0.720000029
v 0.126904786 0.0149999969 -0.75
v 0.126904786 -9.31322575e-10 -0.330768853
v 0.126904786 0 -0.75
v 0.126904786 -0.0150000015 -0.330768853
v 0.126904786 -0.0150000043 -0.75
v 0.126904786 -0.0150000015 -0.720000029
v 0.126904786 0.0149999997 0.0986415148
v 0.126904786 -9.31322575e-10 -0.298561037
v 0.126904786 0.0149999997 -0.298561037
v 0.126904786 -9.31322575e-10 0.0986415148
v 0.126904786 -0.0150000015 0.0986415148
v 0.126904786 -0.0150000015 -0.298561037
v -0.540000081 -0.0400000066 -0.720000029
v -0.480000079 -0.0400000066 0.519999981
v -0.540000081 -0.0400000066 0.519999981
v -0.540000081 -0.0400000066 0.650000036
v -0.480000079 -0.0400000066 -0.720000029
v -0.480000079 -0.0400000066 0.590000033
v -0.540000081 -0.0400000066 -0.850000024
v -0.410000086 -0.0400000066 0.650000036
v -0.480000079 -0.0400000066 -0.790000021
v -0.410000086 -0.0400000066 0.590000033
v -0.410000086 -0.0400000066 -0.850000024
v 0.410000056 -0.0400000066 0.590000033
v -0.410000086 -0.0400000066 -0.790000021
v 0.410000056 -0.0400000066 0.650000036
v 0.410000145 -0.0400000066 -0.850000024
v 0.480000049 -0.0400000066 0.590000033
v 0.410000145 -0.0400000066 -0.790000021
v 0.540000081 -0.0400000066 0.650000036
v 0.540000081 -0.0400000066 -0.850000024
v 0.480000049 -0.0400000066 0.519999981
v 0.480000049 -0.0400000066 -0.790000021
v 0.540000081 -0.0400000066 0.519999981
v 0.480000049 -0.0400000066 -0.720000029
v 0.540000081 -0.0400000066 -0.720000029
v -0.480000079 0.0399999991 0.519999981
v -0.540000081 0.0399999991 -0.720000029
v -0.540000081 0.0399999991 0.519999981
v -0.540000081 0.0399999991 0.650000036
v -0.480000079 0.0399999991 -0.720000029
v -0.480000079 0.0399999991 0.590000033
v -0.540000081 0.0399999991 -0.850000024
v -0.410000086 0.0399999991 0.650000036
v -0.480000079 0.0399999991 -0.790000021
v -0.410000086 0.0399999991 0.590000033
v -0.410000086 0.0399999991 -0.850000024
v 0.410000056 0.0399999991 0.650000036
v -0.410000086 0.0399999991 -0.790000021
v 0.410000056 0.0399999991 0.590000033
v 0.410000145 0.0399999991 -0.790000021
v 0.540000081 0.0399999991 0.650000036
v 0.410000145 0.0399999991 -0.850000024
v 0.480000049 0.0399999991 0.590000033
v 0.480000049 0.0399999991 -0.790000021
v 0.480000049 0.0399999991 0.519999981
v 0.540000081 0.0399999991 -0.850000024
v 0.540000081 0.0399999991 0.519999981
v 0.480000049 0.0399999991 -0.720000029
v 0.540000081 0.0399999991 -0.720000029
v -0.410000086 0.0149999969 0.130849361
v -0.410000086 0.0149999969 0.0986415148
v -0.440000057 0.0149999969 0.130849361
v -0.440000057 0.0149999969 0.0986415148
v -0.165952384 0.0149999997 0.0986415148
v -0.165952384 0.0149999997 0.130849361
v -0.440000057 0.0149999969 0.519999981
v -0.126904756 0.0149999997 -0.720000029
v -0.165952384 0.0149999997 -0.298561037
v -0.165952384 0.0149999997 0.519999981
v -0.165952384 0.0149999997 -0.330768853
v -0.410000086 0.0149999969 -0.298561037
v -0.410000086 0.0149999969 -0.330768853
v -0.440000057 0.0149999969 -0.298561037
v -0.165952384 0.0149999997 -0.720000029
v -0.440000057 0.0149999969 -0.330768853
v -0.480000079 0.0149999969 -0.720000029
v -0.440000057 0.0149999969 -0.720000029
v -0.480000079 0.0149999969 0.519999981
v -0.480000079 0.0149999969 -0.790000021
v -0.480000079 0.0149999969 0.590000033
v -0.440000057 0.0149999969 -0.75
v -0.440000057 0.0149999969 0.550000072
v -0.410000086 0.0149999969 -0.790000021
v -0.410000086 0.0149999969 0.590000033
v -0.410000086 0.0149999969 -0.75
v -0.410000086 0.0149999969 0.550000072
v -0.165952384 0.0149999969 -0.75
v 0.410000056 0.0149999969 0.590000033
v 0.410000145 0.0149999969 -0.790000021
v -0.165952384 0.0149999969 0.550000072
v -0.126904756 0.0149999969 0.550000072
v -0.126904756 0.0149999997 0.519999981
v 0.126904786 0.0149999969 0.550000072
v -0.126904756 0.0149999997 0.130849361
v 0.165952444 0.0149999969 0.550000072
v 0.410000056 0.0149999969 0.550000072
v 0.480000049 0.0149999969 0.590000033
v 0.440000057 0.0149999969 0.550000072
v 0.126904786 0.0149999997 0.519999981
v 0.440000057 0.0149999969 0.519999981
v 0.480000049 0.0149999969 0.519999981
v 0.480000049 0.0149999969 -0.720000029
v 0.165952444 0.0149999997 0.519999981
v 0.165952444 0.0149999997 0.130849361
v 0.440000057 0.0149999969 -0.720000029
v 0.440000057 0.0149999969 0.130849361
v 0.440000057 0.0149999969 -0.75
v 0.480000049 0.0149999969 -0.790000021
v 0.440000057 0.0149999969 0.0986415148
v 0.410000056 0.0149999969 0.130849361
v 0.410000145 0.0149999969 -0.75
v 0.440000057 0.0149999969 -0.298561037
v 0.410000056 0.0149999969 0.0986415148
v 0.440000057 0.0149999969 -0.330768853
v 0.165952444 0.0149999997 0.0986415148
v 0.410000056 0.0149999969 -0.298561037
v 0.410000056 0.0149999969 -0.330768853
v 0.165952444 0.0149999997 -0.298561037
v 0.165952444 0.0149999997 -0.330768853
v 0.165952444 0.0149999997 -0.720000029
v 0.126904786 0.0149999997 0.130849361
v 0.126904786 0.0149999997 0.0986415148
v -0.126904756 0.0149999997 0.0986415148
v -0.126904756 0.0149999997 -0.298561037
v -0.126904756 0.0149999997 -0.330768853
v 0.126904786 0.0149999997 -0.330768853
v 0.126904786 0.0149999997 -0.298561037
v 0.126904786 0.0149999997 -0.720000029
v 0.126904786 0.0149999969 -0.75
v 0.165952444 0.0149999969 -0.75
v -0.126904756 0.0149999969 -0.75
v -0.480000079 -0.0150000043 -0.720000029
v -0.440000057 -0.0150000043 0.519999981
v -0.480000079 -0.0150000043 0.519999981
v -0.480000079 -0.0150000043 0.590000033
v -0.440000057 -0.0150000043 0.550000072
v -0.410000086 -0.0150000043 0.590000033
v -0.410000086 -0.0150000043 0.550000072
v 0.410000056 -0.0150000043 0.590000033
v -0.165952384 -0.0150000043 0.550000072
v -0.126904756 -0.0150000043 0.550000072
v -0.165952384 -0.0150000015 0.519999981
v 0.126904786 -0.0150000043 0.550000072
v -0.126904756 -0.0150000015 0.519999981
v 0.165952444 -0.0150000043 0.550000072
v 0.410000056 -0.0150000043 0.550000072
v 0.480000049 -0.0150000043 0.590000033
v 0.440000057 -0.0150000043 0.550000072
v 0.126904786 -0.0150000015 0.519999981
v 0.440000057 -0.0150000043 0.519999981
v 0.480000049 -0.0150000043 0.519999981
v 0.165952444 -0.0150000015 0.519999981
v 0.480000049 -0.0150000043 -0.720000029
v 0.165952444 -0.0150000015 0.130849361
v 0.440000057 -0.0150000043 -0.720000029
v 0.440000057 -0.0150000043 0.130849361
v 0.440000057 -0.0150000043 -0.75
v 0.480000049 -0.0150000043 -0.790000021
v 0.440000057 -0.0150000043 0.0986415148
v 0.410000145 -0.0150000043 -0.790000021
v 0.410000056 -0.0150000043 0.130849361
v 0.440000057 -0.0150000043 -0.298561037
v 0.410000056 -0.0150000043 0.0986415148
v 0.440000057 -0.0150000043 -0.330768853
v 0.165952444 -0.0150000015 0.0986415148
v 0.410000056 -0.0150000043 -0.298561037
v 0.410000056 -0.0150000043 -0.330768853
v 0.165952444 -0.0150000015 -0.298561037
v 0.165952444 -0.0150000015 -0.330768853
v 0.165952444 -0.0150000015 -0.720000029
v 0.126904786 -0.0150000015 0.130849361
v 0.126904786 -0.0150000015 0.0986415148
v -0.126904756 -0.0150000015 0.130849361
v -0.126904756 -0.0150000015 0.0986415148
v 0.126904786 -0.0150000015 -0.298561037
v -0.126904756 -0.0150000015 -0.298561037
v 0.126904786 -0.0150000015 -0.330768853
v 0.126904786 -0.0150000015 -0.720000029
v -0.126904756 -0.0150000015 -0.330768853
v 0.126904786 -0.0150000043 -0.75
v 0.165952444 -0.0150000043 -0.75
v -0.126904756 -0.0150000015 -0.720000029
v -0.165952384 -0.0150000015 0.130849361
v 0.410000145 -0.0150000043 -0.75
v -0.126904756 -0.0150000043 -0.75
v -0.165952384 -0.0150000043 -0.75
v -0.410000086 -0.0150000043 -0.790000021
v -0.410000086 -0.0150000043 -0.75
v -0.440000057 -0.0150000043 -0.75
v -0.480000079 -0.0150000043 -0.790000021
v -0.440000057 -0.0150000043 -0.720000029
v -0.165952384 -0.0150000015 -0.720000029
v -0.440000057 -0.0150000043 -0.330768853
v -0.165952384 -0.0150000015 -0.330768853
v -0.440000057 -0.0150000043 0.0986415148
v -0.440000057 -0.0150000043 0.130849361
v -0.440000057 -0.0150000043 -0.298561037
v -0.410000086 -0.0150000043 0.0986415148
v -0.410000086 -0.0150000043 -0.330768853
v -0.410000086 -0.0150000043 0.130849361
v -0.410000086 -0.0150000043 -0.298561037
v -0.165952384 -0.0150000015 -0.298561037
v -0.165952384 -0.0150000015 0.0986415148
v -0.410000086 -0.0150000043 0.130849361
v -0.410000086 -0.0150000043 0.0986415148
v -0.440000057 -0.0150000043 0.130849361
v -0.440000057 -0.0150000043 0.0986415148
v -0.165952384 -0.0150000015 0.0986415148
v -0.165952384 -0.0150000015 0.130849361
v -0.440000057 -0.0150000043 0.519999981
v -0.126904756 -0.0150000015 -0.720000029
v -0.165952384 -0.0150000015 -0.298561037
v -0.165952384 -0.0150000015 0.519999981
v -0.165952384 -0.0150000015 -0.330768853
v -0.410000086 -0.0150000043 -0.298561037
v -0.410000086 -0.0150000043 -0.330768853
v -0.440000057 -0.0150000043 -0.298561037
v -0.165952384 -0.0150000015 -0.720000029
v -0.440000057 -0.0150000043 -0.330768853
v -0.480000079 -0.0150000043 -0.720000029
v -0.440000057 -0.0150000043 -0.720000029
v -0.480000079 -0.0150000043 0.519999981
v -0.480000079 -0.0150000043 -0.790000021
v -0.480000079 -0.0150000043 0.590000033
v -0.440000057 -0.0150000043 -0.75
v -0.440000057 -0.0150000043 0.550000072
v -0.410000086 -0.0150000043 -0.790000021
v -0.410000086 -0.0150000043 0.590000033
v -0.410000086 -0.0150000043 -0.75
v -0.410000086 -0.0150000043 0.550000072
v -0.165952384 -0.0150000043 -0.75
v 0.410000056 -0.0150000043 0.590000033
v 0.410000145 -0.0150000043 -0.790000021
v -0.165952384 -0.0150000043 0.550000072
v -0.126904756 -0.0150000043 0.550000072
v -0.126904756 -0.0150000015 0.519999981
v 0.126904786 -0.0150000043 0.550000072
v -0.126904756 -0.0150000015 0.130849361
v 0.165952444 -0.0150000043 0.550000072
v 0.410000056 -0.0150000043 0.550000072
v 0.480000049 -0.0150000043 0.590000033
v 0.440000057 -0.0150000043 0.550000072
v 0.126904786 -0.0150000015 0.519999981
v 0.440000057 -0.0150000043 0.519999981
v 0.480000049 -0.0150000043 0.519999981
v 0.480000049 -0.0150000043 -0.720000029
v 0.165952444 -0.0150000015 0.519999981
v 0.165952444 -0.0150000015 0.130849361
v 0.440000057 -0.0150000043 -0.720000029
v 0.440000057 -0.0150000043 0.130849361
v 0.440000057 -0.0150000043 -0.75
v 0.480000049 -0.0150000043 -0.790000021
v 0.440000057 -0.0150000043 0.0986415148
v 0.410000056 -0.0150000043 0.130849361
v 0.410000145 -0.0150000043 -0.75
v 0.440000057 -0.0150000043 -0.298561037
v 0.410000056 -0.0150000043 0.0986415148
v 0.440000057 -0.0150000043 -0.330768853
v 0.165952444 -0.0150000015 0.0986415148
v 0.410000056 -0.0150000043 -0.298561037
v 0.410000056 -0.0150000043 -0.330768853
v 0.165952444 -0.0150000015 -0.298561037
v 0.165952444 -0.0150000015 -0.330768853
v 0.165952444 -0.0150000015 -0.720000029
v 0.126904786 -0.0150000015 0.130849361
v 0.126904786 -0.0150000015 0.0986415148
v -0.126904756 -0.0150000015 0.0986415148
v -0.126904756 -0.0150000015 -0.298561037
v -0.126904756 -0.0150000015 -0.330768853
v 0.126904786 -0.0150000015 -0.330768853
v 0.126904786 -0.0150000015 -0.298561037
v 0.126904786 -0.0150000015 -0.720000029
v 0.126904786 -0.0150000043 -0.75
v 0.165952444 -0.0150000043 -0.75
v -0.126904756 -0.0150000043 -0.75
v -0.480000079 0.0149999969 -0.720000029
v -0.440000057 0.0149999969 0.519999981
v -0.480000079 0.0149999969 0.519999981
v -0.480000079 0.0149999969 0.590000033
v -0.440000057 0.0149999969 0.550000072
v -0.410000086 0.0149999969 0.590000033
v -0.410000086 0.0149999969 0.550000072
v 0.410000056 0.0149999969 0.590000033
v -0.165952384 0.0149999969 0.550000072
v -0.126904756 0.0149999969 0.550000072
v -0.165952384 0.0149999997 0.519999981
v 0.126904786 0.0149999969 0.550000072
v -0.126904756 0.0149999997 0.519999981
v 0.165952444 0.0149999969 0.550000072
v 0.410000056 0.0149999969 0.550000072
v 0.480000049 0.0149999969 0.590000033
v 0.440000057 0.0149999969 0.550000072
v 0.126904786 0.0149999997 0.519999981
v 0.440000057 0.0149999969 0.519999981
v 0.480000049 0.0149999969 0.519999981
v 0.165952444 0.0149999997 0.519999981
v 0.480000049 0.0149999969 -0.720000029
v 0.165952444 0.0149999997 0.130849361
v 0.440000057 0.0149999969 -0.720000029
v 0.440000057 0.0149999969 0.130849361
v 0.440000057 0.0149999969 -0.75
v 0.480000049 0.0149999969 -0.790000021
v 0.440000057 0.0149999969 0.0986415148
v 0.410000145 0.0149999969 -0.790000021
v 0.410000056 0.0149999969 0.130849361
v 0.440000057 0.0149999969 -0.298561037
v 0.410000056 0.0149999969 0.0986415148
v 0.440000057 0.0149999969 -0.330768853
v 0.165952444 0.0149999997 0.0986415148
v 0.410000056 0.0149999969 -0.298561037
v 0.410000056 0.0149999969 -0.330768853
v 0.165952444 0.0149999997 -0.298561037
v 0.165952444 0.0149999997 -0.330768853
v 0.165952444 0.0149999997 -0.720000029
v 0.126904786 0.0149999997 0.130849361
v 0.126904786 0.0149999997 0.0986415148
v -0.126904756 0.0149999997 0.130849361
v -0.126904756 0.0149999997 0.0986415148
v 0.126904786 0.0149999997 -0.298561037
v -0.126904756 0.0149999997 -0.298561037
v 0.126904786 0.0149999997 -0.330768853
v 0.126904786 0.0149999997 -0.720000029
v -0.126904756 0.0149999997 -0.330768853
v 0.126904786 0.0149999969 -0.75
v 0.165952444 0.0149999969 -0.75
v -0.126904756 0.0149999997 -0.720000029
v -0.165952384 0.0149999997 0.130849361
v 0.410000145 0.0149999969 -0.75
v -0.126904756 0.0149999969 -0.75
v -0.165952384 0.0149999969 -0.75
v -0.410000086 0.0149999969 -0.790000021
v -0.410000086 0.0149999969 -0.75
v -0.440000057 0.0149999969 -0.75
v -0.480000079 0.0149999969 -0.790000021
v -0.440000057 0.0149999969 -0.720000029
v -0.165952384 0.0149999997 -0.720000029
v -0.440000057 0.0149999969 -0.330768853
v -0.165952384 0.0149999997 -0.330768853
v -0.440000057 0.0149999969 0.0986415148
v -0.440000057 0.0149999969 0.130849361
v -0.440000057 0.0149999969 -0.298561037
v -0.410000086 0.0149999969 0.0986415148
v -0.410000086 0.0149999969 -0.330768853
v -0.410000086 0.0149999969 0.130849361
v -0.410000086 0.0149999969 -0.298561037
v -0.165952384 0.0149999997 -0.298561037
v -0.165952384 0.0149999997 0.0986415148
v -0.480000079 -0.0400000066 -0.720000029
v -0.540000081 -0.0400000066 -0.720000029
v -0.480000079 -0.0400000066 0.519999981
v -0.540000081 -0.0400000066 0.519999981
v -0.540000081 -0.0400000066 -0.850000024
v -0.540000081 -0.0400000066 0.650000036
v -0.480000079 -0.0400000066 -0.790000021
v -0.480000079 -0.0400000066 0.590000033
v -0.410000086 -0.0400000066 -0.850000024
v -0.410000086 -0.0400000066 0.650000036
v -0.410000086 -0.0400000066 -0.790000021
v -0.410000086 -0.0400000066 0.590000033
v 0.410000145 -0.0400000066 -0.850000024
v 0.410000056 -0.0400000066 0.590000033
v 0.410000145 -0.0400000066 -0.790000021
v 0.410000056 -0.0400000066 0.650000036
v 0.540000081 -0.0400000066 -0.850000024
v 0.480000049 -0.0400000066 0.590000033
v 0.480000049 -0.0400000066 -0.790000021
v 0.540000081 -0.0400000066 0.650000036
v 0.480000049 -0.0400000066 -0.720000029
v 0.480000049 -0.0400000066 0.519999981
v 0.540000081 -0.0400000066 -0.720000029
v 0.540000081 -0.0400000066 0.519999981
v -0.480000079 0.0399999991 -0.720000029
v -0.480000079 0.0399999991 0.519999981
v -0.540000081 0.0399999991 -0.720000029
v -0.540000081 0.0399999991 0.519999981
v -0.540000081 0.0399999991 -0.850000024
v -0.540000081 0.0399999991 0.650000036
v -0.480000079 0.0399999991 -0.790000021
v -0.480000079 0.0399999991 0.590000033
v -0.410000086 0.0399999991 -0.850000024
v -0.410000086 0.0399999991 0.650000036
v -0.410000086 0.0399999991 -0.790000021
v -0.410000086 0.0399999991 0.590000033
v 0.410000145 0.0399999991 -0.790000021
v 0.410000056 0.0399999991 0.650000036
v 0.410000145 0.0399999991 -0.850000024
v 0.410000056 0.0399999991 0.590000033
v 0.480000049 0.0399999991 -0.790000021
v 0.540000081 0.0399999991 0.650000036
v 0.540000081 0.0399999991 -0.850000024
v 0.480000049 0.0399999991 0.590000033
v 0.480000049 0.0399999991 -0.720000029
v 0.480000049 0.0399999991 0.519999981
v 0.540000081 0.0399999991 -0.720000029
v 0.540000081 0.0399999991 0.519999981
v 0.126904786 -9.31322575e-10 0.519999981
v 0.126904786 0.0149999997 0.519999981
v 0.126904786 -9.31322575e-10 0.130849361
v 0.126904786 0.0149999997 0.130849361
v 0.126904786 -0.0150000015 0.519999981
v 0.126904786 -0.0150000015 0.130849361
v 0.126904786 0 0.550000072
v 0.126904786 0.0149999969 0.550000072
v 0.126904786 -0.0150000043 0.550000072
v 0.126904786 -9.31322575e-10 -0.330768853
v 0.126904786 0.0149999997 -0.330768853
v 0.126904786 -9.31322575e-10 -0.720000029
v 0.126904786 0.0149999997 -0.720000029
v 0.126904786 -0.0150000015 -0.330768853
v 0.126904786 0.0149999969 -0.75
v 0.126904786 -0.0150000015 -0.720000029
v 0.126904786 0 -0.75
v 0.126904786 -0.0150000043 -0.75
v 0.126904786 -9.31322575e-10 0.0986415148
v 0.126904786 0.0149999997 0.0986415148
v 0.126904786 -9.31322575e-10 -0.298561037
v 0.126904786 0.0149999997 -0.298561037
v 0.126904786 -0.0150000015 0.0986415148
v 0.126904786 -0.0150000015 -0.298561037
v -0.126904756 0.0149999997 0.519999981
v -0.126904756 -9.31322575e-10 0.519999981
v -0.126904756 0.0149999997 0.130849361
v -0.126904756 -9.31322575e-10 0.130849361
v -0.126904756 0.0149999969 0.550000072
v -0.126904756 -0.0150000015 0.130849361
v -0.126904756 0 0.550000072
v -0.126904756 -0.0150000015 0.519999981
v -0.126904756 -0.0150000043 0.550000072
v -0.126904756 0.0149999997 -0.330768853
v -0.126904756 -9.31322575e-10 -0.330768853
v -0.126904756 0.0149999997 -0.720000029
v -0.126904756 -9.31322575e-10 -0.720000029
v -0.126904756 0 -0.75
v -0.126904756 0.0149999969 -0.75
v -0.126904756 -0.0150000015 -0.720000029
v -0.126904756 -0.0150000015 -0.330768853
v -0.126904756 -0.0150000043 -0.75
v -0.126904756 0.0149999997 0.0986415148
v -0.126904756 -9.31322575e-10 0.0986415148
v -0.126904756 0.0149999997 -0.298561037
v -0.126904756 -9.31322575e-10 -0.298561037
v -0.126904756 -0.0150000015 -0.298561037
v -0.126904756 -0.0150000015 0.0986415148
v 0.165952444 -9.31322575e-10 0.519999981
v 0.165952444 0.0149999997 0.130849361
v 0.165952444 -9.31322575e-10 0.130849361
v 0.165952444 0.0149999997 0.519999981
v 0.165952444 -0.0150000015 0.130849361
v 0.165952444 0.0149999969 0.550000072
v 0.165952444 -0.0150000015 0.519999981
v 0.165952444 0 0.550000072
v 0.165952444 -0.0150000043 0.550000072
v 0.165952444 -9.31322575e-10 -0.330768853
v 0.165952444 0.0149999997 -0.720000029
v 0.165952444 -9.31322575e-10 -0.720000029
v 0.165952444 0.0149999997 -0.330768853
v 0.165952444 -0.0150000015 -0.720000029
v 0.165952444 -0.0150000015 -0.330768853
v 0.165952444 0 -0.75
v 0.165952444 0.0149999969 -0.75
v 0.165952444 -0.0150000043 -0.75
v 0.165952444 -9.31322575e-10 0.0986415148
v 0.165952444 0.0149999997 -0.298561037
v 0.165952444 -9.31322575e-10 -0.298561037
v 0.165952444 0.0149999997 0.0986415148
v 0.165952444 -0.0150000015 -0.298561037
v 0.165952444 -0.0150000015 0.0986415148
v -0.165952384 -9.31322575e-10 0.0986415148
v -0.165952384 -0.0150000015 0.0986415148
v -0.165952384 -9.31322575e-10 -0.298561037
v -0.165952384 -0.0150000015 -0.298561037
v -0.165952384 0.0149999997 0.0986415148
v -0.165952384 0.0149999997 -0.298561037
v -0.165952384 0.0149999997 0.519999981
v -0.165952384 -9.31322575e-10 0.130849361
v -0.165952384 0.0149999997 0.130849361
v -0.165952384 -9.31322575e-10 0.519999981
v -0.165952384 0 0.550000072
v -0.165952384 0.0149999969 0.550000072
v -0.165952384 -0.0150000015 0.519999981
v -0.165952384 -0.0150000015 0.130849361
v -0.165952384 -0.0150000043 0.550000072
v -0.165952384 0.0149999997 -0.330768853
v -0.165952384 -9.31322575e-10 -0.720000029
v -0.165952384 0.0149999997 -0.720000029
v -0.165952384 0.0149999969 -0.75
v -0.165952384 -9.31322575e-10 -0.330768853
v -0.165952384 0 -0.75
v -0.165952384 -0.0150000015 -0.330768853
v -0.165952384 -0.0150000043 -0.75
v -0.165952384 -0.0150000015 -0.720000029
v -0.440000057 0 -0.298561037
v -0.410000086 0 -0.298561037
v -0.440000057 0.0149999969 -0.298561037
v -0.410000086 0.0149999969 -0.298561037
v -0.410000086 -0.0150000043 -0.298561037
v -0.440000057 -0.0150000043 -0.298561037
v -0.165952384 -0.0150000015 -0.298561037
v -0.165952384 -9.31322575e-10 -0.298561037
v -0.165952384 0.0149999997 -0.298561037
v 0.410000056 0 -0.298561037
v 0.440000057 -0.0150000043 -0.298561037
v 0.440000057 0 -0.298561037
v 0.410000056 -0.0150000043 -0.298561037
v 0.410000056 0.0149999969 -0.298561037
v 0.440000057 0.0149999969 -0.298561037
v 0.165952444 0.0149999997 -0.298561037
v 0.165952444 -9.31322575e-10 -0.298561037
v 0.165952444 -0.0150000015 -0.298561037
v -0.126904756 -9.31322575e-10 -0.298561037
v 0.126904786 -9.31322575e-10 -0.298561037
v -0.126904756 0.0149999997 -0.298561037
v 0.126904786 0.0149999997 -0.298561037
v 0.126904786 -0.0150000015 -0.298561037
v -0.126904756 -0.0150000015 -0.298561037
v -0.440000057 -0.0150000043 -0.330768853
v -0.410000086 -0.0150000043 -0.330768853
v -0.440000057 0 -0.330768853
v -0.410000086 0 -0.330768853
v -0.440000057 0.0149999969 -0.330768853
v -0.165952384 -0.0150000015 -0.330768853
v -0.410000086 0.0149999969 -0.330768853
v -0.165952384 -9.31322575e-10 -0.330768853
v -0.165952384 0.0149999997 -0.330768853
v 0.410000056 0.0149999969 -0.330768853
v 0.440000057 0 -0.330768853
v 0.440000057 0.0149999969 -0.330768853
v 0.410000056 0 -0.330768853
v 0.440000057 -0.0150000043 -0.330768853
v 0.410000056 -0.0150000043 -0.330768853
v 0.165952444 -0.0150000015 -0.330768853
v 0.165952444 -9.31322575e-10 -0.330768853
v 0.165952444 0.0149999997 -0.330768853
v -0.126904756 0.0149999997 -0.330768853
v 0.126904786 -9.31322575e-10 -0.330768853
v 0.126904786 0.0149999997 -0.330768853
v -0.126904756 -9.31322575e-10 -0.330768853
v 0.126904786 -0.0150000015 -0.330768853
v -0.126904756 -0.0150000015 -0.330768853
v -0.410000086 -0.0150000043 0.0986415148
v -0.430000067 0 0.0986415148
v -0.410000086 0 0.0986415148
v -0.440000057 -0.0150000043 0.0986415148
v -0.440000057 0 0.0986415148
v -0.165952384 -0.0150000015 0.0986415148
v -0.440000057 0.0149999969 0.0986415148
v -0.165952384 -9.31322575e-10 0.0986415148
v -0.410000086 0.0149999969 0.0986415148
v -0.165952384 0.0149999997 0.0986415148
v 0.440000057 0 0.0986415148
v 0.410000056 0 0.0986415148
v 0.430000067 0 0.0986415148
v 0.410000056 0.0149999969 0.0986415148
v 0.440000057 0.0149999969 0.0986415148
v 0.440000057 -0.0150000043 0.0986415148
v 0.410000056 -0.0150000043 0.0986415148
v 0.165952444 -0.0150000015 0.0986415148
v 0.165952444 -9.31322575e-10 0.0986415148
v 0.165952444 0.0149999997 0.0986415148
v -0.126904756 -9.31322575e-10 0.0986415148
v -0.126904756 0.0149999997 0.0986415148
v 0.126904786 -9.31322575e-10 0.0986415148
v 0.126904786 0.0149999997 0.0986415148
v 0.126904786 -0.0150000015 0.0986415148
v -0.126904756 -0.0150000015 0.0986415148
v -0.430000067 0 0.130849361
v -0.410000086 0 0.130849361
v -0.410000086 -0.0150000043 0.130849361
v -0.440000057 -0.0150000043 0.130849361
v -0.440000057 0 0.130849361
v -0.165952384 -0.0150000015 0.130849361
v -0.440000057 0.0149999969 0.130849361
v -0.165952384 -9.31322575e-10 0.130849361
v -0.410000086 0.0149999969 0.130849361
v -0.165952384 0.0149999997 0.130849361
v 0.410000056 -0.0150000043 0.130849361
v 0.410000056 0 0.130849361
v 0.440000057 -0.0150000043 0.130849361
v 0.440000057 0 0.130849361
v 0.165952444 -0.0150000015 0.130849361
v 0.165952444 -9.31322575e-10 0.130849361
v 0.165952444 0.0149999997 0.130849361
v 0.410000056 0.0149999969 0.130849361
v 0.440000057 0.0149999969 0.130849361
v 0.430000067 0 0.130849361
v 0.126904786 -9.31322575e-10 0.130849361
v -0.126904756 0.0149999997 0.130849361
v 0.126904786 0.0149999997 0.130849361
v -0.126904756 -9.31322575e-10 0.130849361
v 0.126904786 -0.0150000015 0.130849361
v -0.126904756 -0.0150000015 0.130849361
v 0.410000056 -0.0150000043 -0.298561037
v 0.410000056 0 -0.330768853
v 0.410000056 -0.0150000043 -0.330768853
v 0.410000056 0.0149999969 -0.330768853
v 0.410000056 0.0149999969 -0.298561037
v 0.410000056 0 -0.298561037
v 0.410000056 -0.0150000043 0.130849361
v 0.410000056 0 0.0986415148
v 0.410000056 -0.0150000043 0.0986415148
v 0.410000056 0 0.130849361
v 0.410000056 0.0149999969 0.0986415148
v 0.410000056 0.0149999969 0.130849361
v 0.410000056 0 -0.298561037
v 0.410000056 0.0149999969 -0.298561037
v 0.410000056 -0.0150000043 -0.298561037
v 0.410000056 -0.0150000043 -0.330768853
v 0.410000056 0 -0.330768853
v 0.410000056 0.0149999969 -0.330768853
v 0.410000056 0 0.130849361
v 0.410000056 0.0149999969 0.130849361
v 0.410000056 0 0.0986415148
v 0.410000056 0.0149999969 0.0986415148
v 0.410000056 -0.0150000043 0.0986415148
v 0.410000056 -0.0150000043 0.130849361
v 0.410000056 -0.0150000043 0.590000033
v 0.410000056 0 0.550000072
v 0.410000056 -0.0150000043 0.550000072
v 0.410000056 0.0149999969 0.550000072
v 0.410000056 0.0149999969 0.590000033
v 0.410000145 -0.0400000066 -0.790000021
v 0.410000145 0.0399999991 -0.850000024
v 0.410000145 -0.0400000066 -0.850000024
v 0.410000145 0.0399999991 -0.790000021
v 0.410000145 -0.0150000043 -0.790000021
v 0.410000145 0.0149999969 -0.790000021
v 0.410000145 0.0149999969 -0.75
v 0.410000145 -0.0150000043 -0.75
v 0.410000145 0 -0.75
v 0.410000145 -0.0150000043 -0.75
v 0.410000145 0.0149999969 -0.790000021
v 0.410000145 -0.0150000043 -0.790000021
v 0.410000145 0.0149999969 -0.75
v 0.410000145 0 -0.75
v 0.410000056 -0.0150000043 0.590000033
v 0.410000056 0.0149999969 0.590000033
v 0.410000056 -0.0150000043 0.550000072
v 0.410000056 0 0.550000072
v 0.410000056 0.0149999969 0.550000072
v 0.410000056 -0.0400000066 0.650000036
v 0.410000056 -0.0400000066 0.590000033
v 0.410000056 0.0399999991 0.590000033
v 0.410000056 0.0399999991 0.650000036
v -0.410000086 0.0149999969 -0.298561037
v -0.410000086 0 -0.330768853
v -0.410000086 0.0149999969 -0.330768853
v -0.410000086 -0.0150000043 -0.330768853
v -0.410000086 -0.0150000043 -0.298561037
v -0.410000086 0 -0.298561037
v -0.410000086 0 0.130849361
v -0.410000086 -0.0150000043 0.0986415148
v -0.410000086 0 0.0986415148
v -0.410000086 -0.0150000043 0.130849361
v -0.410000086 0.0149999969 0.130849361
v -0.410000086 0.0149999969 0.0986415148
v -0.410000086 0 -0.298561037
v -0.410000086 -0.0150000043 -0.298561037
v -0.410000086 0.0149999969 -0.298561037
v -0.410000086 0.0149999969 -0.330768853
v -0.410000086 0 -0.330768853
v -0.410000086 -0.0150000043 -0.330768853
v -0.410000086 0.0149999969 0.130849361
v -0.410000086 0 0.130849361
v -0.410000086 0.0149999969 0.0986415148
v -0.410000086 0 0.0986415148
v -0.410000086 -0.0150000043 0.130849361
v -0.410000086 -0.0150000043 0.0986415148
v -0.410000086 0.0149999969 0.590000033
v -0.410000086 0 0.550000072
v -0.410000086 0.0149999969 0.550000072
v -0.410000086 -0.0150000043 0.550000072
v -0.410000086 -0.0150000043 0.590000033
v -0.410000086 0.0149999969 -0.75
v -0.410000086 -0.0150000043 -0.790000021
v -0.410000086 0.0149999969 -0.790000021
v -0.410000086 -0.0150000043 -0.75
v -0.410000086 0 -0.75
v -0.410000086 0 -0.75
v -0.410000086 -0.0150000043 -0.75
v -0.410000086 0.0149999969 -0.75
v -0.410000086 0.0149999969 -0.790000021
v -0.410000086 -0.0150000043 -0.790000021
v -0.410000086 0.0149999969 0.590000033
v -0.410000086 -0.0150000043 0.590000033
v -0.410000086 0.0149999969 0.550000072
v -0.410000086 0 0.550000072
v -0.410000086 -0.0150000043 0.550000072
v 0.440000057 -0.0150000043 0.0986415148
v 0.440000057 0 -0.298561037
v 0.440000057 -0.0150000043 -0.298561037
v 0.440000057 0 0.0986415148
v 0.440000057 0.0149999969 0.0986415148
v 0.440000057 0.0149999969 -0.298561037
v 0.440000057 -0.0150000043 0.519999981
v 0.440000057 0 0.130849361
v 0.440000057 -0.0150000043 0.130849361
v 0.440000057 0 0.519999981
v 0.440000057 0 0.550000072
v 0.440000057 -0.0150000043 0.550000072
v 0.440000057 0.0149999969 0.519999981
v 0.440000057 0.0149999969 0.130849361
v 0.440000057 0.0149999969 0.550000072
v 0.440000057 -0.0150000043 -0.330768853
v 0.440000057 0 -0.720000029
v 0.440000057 -0.0150000043 -0.720000029
v 0.440000057 -0.0150000043 -0.75
v 0.440000057 0 -0.330768853
v 0.440000057 0 -0.75
v 0.440000057 0.0149999969 -0.330768853
v 0.440000057 0.0149999969 -0.75
v 0.440000057 0.0149999969 -0.720000029
v -0.440000057 0 -0.330768853
v -0.440000057 -0.0150000043 -0.720000029
v -0.440000057 0 -0.720000029
v -0.440000057 -0.0150000043 -0.330768853
v -0.440000057 0.0149999969 -0.720000029
v -0.440000057 0.0149999969 -0.330768853
v -0.440000057 0 -0.75
v -0.440000057 -0.0150000043 -0.75
v -0.440000057 0.0149999969 -0.75
v -0.440000057 0 0.0986415148
v -0.440000057 -0.0150000043 -0.298561037
v -0.440000057 0 -0.298561037
v -0.440000057 -0.0150000043 0.0986415148
v -0.440000057 0.0149999969 -0.298561037
v -0.440000057 0.0149999969 0.0986415148
v -0.440000057 0 0.519999981
v -0.440000057 -0.0150000043 0.130849361
v -0.440000057 0 0.130849361
v -0.440000057 -0.0150000043 0.519999981
v -0.440000057 0.0149999969 0.130849361
v -0.440000057 -0.0150000043 0.550000072
v -0.440000057 0.0149999969 0.519999981
v -0.440000057 0 0.550000072
v -0.440000057 0.0149999969 0.550000072
v 0.480000049 -0.0400000066 0.519999981
v 0.480000049 -0.0150000043 -0.720000029
v 0.480000049 -0.0400000066 -0.720000029
v 0.480000049 -0.0150000043 -0.790000021
v 0.480000049 -0.0400000066 -0.790000021
v 0.480000049 0.0149999969 -0.790000021
v 0.480000049 -0.0150000043 0.519999981
v 0.480000049 0.0149999969 -0.720000029
v 0.480000049 -0.0400000066 0.590000033
v 0.480000049 0.0399999991 -0.790000021
v 0.480000049 -0.0150000043 0.590000033
v 0.480000049 0.0399999991 -0.720000029
v 0.480000049 0.0149999969 0.519999981
v 0.480000049 0.0149999969 0.590000033
v 0.480000049 0.0399999991 0.519999981
v 0.480000049 0.0399999991 0.590000033
v -0.480000079 -0.0150000043 0.519999981
v -0.480000079 -0.0400000066 -0.720000029
v -0.480000079 -0.0150000043 -0.720000029
v -0.480000079 -0.0400000066 -0.790000021
v -0.480000079 -0.0150000043 -0.790000021
v -0.480000079 -0.0400000066 0.519999981
v -0.480000079 0.0149999969 -0.720000029
v -0.480000079 0.0149999969 -0.790000021
v -0.480000079 -0.0150000043 0.590000033
v -0.480000079 -0.0400000066 0.590000033
v -0.480000079 0.0149999969 0.590000033
v -0.480000079 0.0149999969 0.519999981
v -0.480000079 0.0399999991 0.590000033
v -0.480000079 0.0399999991 0.519999981
v -0.480000079 0.0399999991 -0.720000029
v -0.480000079 0.0399999991 -0.790000021
v 0.540000081 -0.0400000066 0.519999981
v 0.540000081 0.0399999991 0.519999981
v 0.540000081 -0.0400000066 -0.720000029
v 0.540000081 0.0399999991 0.650000036
v 0.540000081 -0.0400000066 0.650000036
v 0.540000081 0.0399999991 -0.720000029
v 0.540000081 -0.0400000066 -0.850000024
v 0.540000081 0.0399999991 -0.850000024
v -0.540000081 0.0399999991 0.519999981
v -0.540000081 -0.0400000066 0.519999981
v -0.540000081 0.0399999991 -0.720000029
v -0.540000081 -0.0400000066 0.650000036
v -0.540000081 0.0399999991 0.650000036
v -0.540000081 -0.0400000066 -0.720000029
v -0.540000081 0.0399999991 -0.850000024
v -0.540000081 -0.0400000066 -0.850000024
v -0.540000081 -0.0400000066 -0.720000029
v -0.480000079 0.0399999991 -0.720000029
v -0.540000081 0.0399999991 -0.720000029
v -0.480000079 0.0149999969 -0.720000029
v -0.480000079 -0.0150000043 -0.720000029
v -0.480000079 -0.0400000066 -0.720000029
v -0.440000057 0 -0.720000029
v -0.440000057 0.0149999969 -0.720000029
v -0.440000057 -0.0150000043 -0.720000029
v 0.480000049 0.0149999969 -0.720000029
v 0.540000081 0.0399999991 -0.720000029
v 0.480000049 0.0399999991 -0.720000029
v 0.540000081 -0.0400000066 -0.720000029
v 0.480000049 -0.0150000043 -0.720000029
v 0.480000049 -0.0400000066 -0.720000029
v 0.440000057 0.0149999969 -0.720000029
v 0.440000057 0 -0.720000029
v 0.440000057 -0.0150000043 -0.720000029
v -0.165952384 -0.0150000015 -0.720000029
v -0.126904756 -0.0150000015 -0.720000029
v -0.165952384 -9.31322575e-10 -0.720000029
v -0.126904756 -9.31322575e-10 -0.720000029
v -0.165952384 0.0149999997 -0.720000029
v -0.126904756 0.0149999997 -0.720000029
v 0.126904786 -9.31322575e-10 -0.720000029
v 0.165952444 -9.31322575e-10 -0.720000029
v 0.126904786 0.0149999997 -0.720000029
v 0.165952444 0.0149999997 -0.720000029
v 0.165952444 -0.0150000015 -0.720000029
v 0.126904786 -0.0150000015 -0.720000029
v -0.480000079 0.0149999969 -0.720000029
v -0.440000057 0 -0.720000029
v -0.440000057 0.0149999969 -0.720000029
v -0.480000079 -0.0150000043 -0.720000029
v -0.440000057 -0.0150000043 -0.720000029
v -0.165952384 0.0149999997 -0.720000029
v -0.126904756 -9.31322575e-10 -0.720000029
v -0.126904756 0.0149999997 -0.720000029
v -0.165952384 -9.31322575e-10 -0.720000029
v -0.126904756 -0.0150000015 -0.720000029
v -0.165952384 -0.0150000015 -0.720000029
v 0.440000057 0.0149999969 -0.720000029
v 0.480000049 -0.0150000043 -0.720000029
v 0.480000049 0.0149999969 -0.720000029
v 0.440000057 0 -0.720000029
v 0.440000057 -0.0150000043 -0.720000029
v -0.440000057 0.0149999969 -0.75
v -0.410000086 0 -0.75
v -0.410000086 0.0149999969 -0.75
v -0.165952384 0.0149999969 -0.75
v -0.440000057 0 -0.75
v -0.165952384 0 -0.75
v -0.410000086 -0.0150000043 -0.75
v -0.440000057 -0.0150000043 -0.75
v -0.165952384 -0.0150000043 -0.75
v -0.126904756 0.0149999969 -0.75
v 0.126904786 0 -0.75
v 0.126904786 0.0149999969 -0.75
v -0.126904756 0 -0.75
v 0.126904786 -0.0150000043 -0.75
v -0.126904756 -0.0150000043 -0.75
v 0.165952444 0.0149999969 -0.75
v 0.410000145 0 -0.75
v 0.410000145 0.0149999969 -0.75
v 0.165952444 0 -0.75
v 0.440000057 0 -0.75
v 0.440000057 0.0149999969 -0.75
v 0.440000057 -0.0150000043 -0.75
v 0.410000145 -0.0150000043 -0.75
v 0.165952444 -0.0150000043 -0.75
v 0.480000049 -0.0150000043 0.519999981
v 0.440000057 0.0149999969 0.519999981
v 0.480000049 0.0149999969 0.519999981
v 0.440000057 0 0.519999981
v 0.440000057 -0.0150000043 0.519999981
v -0.440000057 0 0.519999981
v -0.480000079 0.0149999969 0.519999981
v -0.440000057 0.0149999969 0.519999981
v -0.480000079 -0.0150000043 0.519999981
v -0.440000057 -0.0150000043 0.519999981
v -0.126904756 -9.31322575e-10 0.519999981
v -0.165952384 0.0149999997 0.519999981
v -0.126904756 0.0149999997 0.519999981
v -0.165952384 -9.31322575e-10 0.519999981
v -0.126904756 -0.0150000015 0.519999981
v -0.165952384 -0.0150000015 0.519999981
v 0.440000057 0 0.550000072
v 0.410000056 0.0149999969 0.550000072
v 0.440000057 0.0149999969 0.550000072
v 0.410000056 0 0.550000072
v 0.440000057 -0.0150000043 0.550000072
v 0.165952444 0.0149999969 0.550000072
v 0.410000056 -0.0150000043 0.550000072
v 0.165952444 0 0.550000072
v 0.165952444 -0.0150000043 0.550000072
v -0.440000057 -0.0150000043 0.550000072
v -0.440000057 0 0.550000072
v -0.410000086 -0.0150000043 0.550000072
v -0.410000086 0 0.550000072
v -0.165952384 -0.0150000043 0.550000072
v -0.440000057 0.0149999969 0.550000072
v -0.165952384 0 0.550000072
v -0.410000086 0.0149999969 0.550000072
v -0.165952384 0.0149999969 0.550000072
v 0.126904786 0 0.550000072
v -0.126904756 0.0149999969 0.550000072
v 0.126904786 0.0149999969 0.550000072
v -0.126904756 0 0.550000072
v 0.126904786 -0.0150000043 0.550000072
v -0.126904756 -0.0150000043 0.550000072
v -0.480000079 0.0399999991 -0.790000021
v -0.410000086 0.0149999969 -0.790000021
v -0.410000086 0.0399999991 -0.790000021
v -0.480000079 0.0149999969 -0.790000021
v 0.410000145 0.0149999969 -0.790000021
v 0.410000145 0.0399999991 -0.790000021
v 0.480000049 0.0149999969 -0.790000021
v 0.480000049 0.0399999991 -0.790000021
v 0.480000049 -0.0150000043 -0.790000021
v 0.410000145 -0.0150000043 -0.790000021
v 0.480000049 -0.0400000066 -0.790000021
v 0.410000145 -0.0400000066 -0.790000021
v -0.410000086 -0.0150000043 -0.790000021
v -0.410000086 -0.0400000066 -0.790000021
v -0.480000079 -0.0150000043 -0.790000021
v -0.480000079 -0.0400000066 -0.790000021
v 0.480000049 -0.0150000043 0.590000033
v 0.410000056 0.0149999969 0.590000033
v 0.480000049 0.0149999969 0.590000033
v 0.410000056 0.0399999991 0.590000033
v 0.480000049 0.0399999991 0.590000033
v -0.410000086 0.0399999991 0.590000033
v 0.410000056 -0.0150000043 0.590000033
v 0.480000049 -0.0400000066 0.590000033
v 0.410000056 -0.0400000066 0.590000033
v -0.410000086 0.0149999969 0.590000033
v -0.480000079 0.0399999991 0.590000033
v -0.480000079 0.0149999969 0.590000033
v -0.410000086 -0.0150000043 0.590000033
v -0.410000086 -0.0400000066 0.590000033
v -0.480000079 -0.0150000043 0.590000033
v -0.480000079 -0.0400000066 0.590000033
v -0.540000081 -0.0400000066 -0.850000024
v -0.410000086 -0.0400000066 -0.850000024
v -0.540000081 0.0399999991 -0.850000024
v -0.410000086 0.0399999991 -0.850000024
v 0.410000145 -0.0400000066 -0.850000024
v 0.410000145 0.0399999991 -0.850000024
v 0.540000081 -0.0400000066 -0.850000024
v 0.540000081 0.0399999991 -0.850000024
v 0.410000056 -0.0400000066 0.650000036
v 0.410000056 0.0399999991 0.650000036
v 0.540000081 -0.0400000066 0.650000036
v 0.540000081 0.0399999991 0.650000036
v -0.410000086 0.0399999991 0.650000036
v -0.410000086 -0.0400000066 0.650000036
v -0.540000081 0.0399999991 0.650000036
v -0.540000081 -0.0400000066 0.650000036
f 1 2 3
f 2 1 4
f 5 4 1
f 4 5 6
f 7 6 5
f 6 7 8
f 9 10 11
f 10 9 12
f 11 13 9
f 13 11 14
f 14 15 13
f 15 14 16
f 17 18 19
f 18 17 20
f 21 20 17
f 22 19 18
f 19 22 23
f 24 23 22
f 23 25 19
f 26 19 25
f 19 26 17
f 25 27 26
f 28 26 27
f 29 17 26
f 26 28 29
f 17 29 21
f 30 29 28
f 31 21 29
f 29 30 31
f 32 31 30
f 33 34 35
f 36 35 34
f 35 37 33
f 38 33 37
f 37 39 38
f 40 38 39
f 39 37 41
f 42 41 37
f 37 35 42
f 41 42 43
f 44 43 42
f 45 42 35
f 42 45 44
f 35 36 45
f 46 44 45
f 47 45 36
f 45 47 46
f 48 46 47
f 49 50 51
f 52 51 50
f 51 53 49
f 49 54 50
f 55 49 53
f 54 49 56
f 55 56 49
f 56 55 57
f 58 59 60
f 59 58 61
f 58 60 62
f 63 60 59
f 64 62 60
f 60 63 65
f 60 65 64
f 66 64 65
f 67 68 69
f 70 69 68
f 67 71 68
f 71 67 72
f 73 74 75
f 74 73 76
f 77 78 79
f 79 78 80
f 81 80 78
f 82 83 84
f 84 83 85
f 86 85 83
f 87 88 89
f 88 90 89
f 89 90 91
f 92 91 90
f 93 94 95
f 96 95 94
f 96 97 95
f 98 95 97
f 99 93 95
f 98 99 95
f 93 99 100
f 99 98 101
f 102 103 104
f 105 104 103
f 106 102 104
f 102 106 107
f 108 109 110
f 111 110 109
f 112 108 110
f 108 112 113
f 110 114 112
f 114 110 115
f 110 111 115
f 116 115 111
f 117 118 119
f 118 117 120
f 120 117 121
f 122 123 124
f 123 122 125
f 125 122 126
f 127 128 129
f 128 127 130
f 130 127 131
f 130 131 132
f 133 134 135
f 134 133 136
f 137 136 133
f 136 137 138
f 139 140 141
f 140 142 141
f 143 141 142
f 144 145 146
f 146 145 147
f 145 148 147
f 149 147 148
f 150 151 152
f 151 153 152
f 154 152 153
f 155 156 157
f 158 157 156
f 157 158 159
f 156 155 160
f 161 160 155
f 160 161 162
f 163 164 165
f 166 165 164
f 165 166 167
f 164 163 168
f 169 168 163
f 168 169 170
f 171 172 173
f 172 171 174
f 175 174 171
f 174 176 172
f 177 173 172
f 178 172 176
f 173 177 179
f 176 180 178
f 181 179 177
f 182 178 180
f 177 183 181
f 178 182 183
f 184 181 183
f 185 183 182
f 183 185 184
f 186 184 185
f 187 188 189
f 188 187 190
f 191 190 187
f 192 189 188
f 187 193 191
f 189 192 194
f 195 194 192
f 194 196 189
f 197 189 196
f 196 198 197
f 199 197 198
f 197 199 193
f 200 193 199
f 201 191 193
f 193 200 201
f 202 201 200
f 203 204 205
f 206 205 204
f 207 205 206
f 205 207 208
f 204 209 206
f 206 209 207
f 209 204 210
f 211 207 209
f 212 213 214
f 215 214 213
f 213 216 215
f 216 213 217
f 218 219 220
f 221 220 219
f 222 219 218
f 219 223 221
f 219 222 224
f 223 219 225
f 224 226 219
f 225 219 226
f 227 228 229
f 230 229 228
f 229 231 227
f 231 229 232
f 233 234 235
f 236 235 234
f 235 237 233
f 237 235 238
f 239 234 233
f 233 237 239
f 234 239 240
f 241 239 237
f 242 243 244
f 245 244 243
f 244 246 242
f 247 244 245
f 246 244 248
f 244 247 249
f 248 244 250
f 249 250 244
f 251 252 253
f 253 252 254
f 254 252 255
f 256 255 252
f 257 258 259
f 260 259 258
f 258 261 260
f 262 260 261
f 263 264 265
f 264 263 266
f 266 263 267
f 267 263 268
f 269 270 271
f 270 269 272
f 271 273 269
f 273 271 274
f 275 276 277
f 277 276 278
f 279 278 276
f 280 281 282
f 282 281 283
f 284 283 281
f 285 286 287
f 286 285 288
f 288 289 286
f 289 288 290
f 291 290 288
f 290 291 292
f 292 291 293
f 294 295 296
f 295 294 297
f 297 294 298
f 294 299 298
f 299 294 300
f 298 299 301
f 301 299 302
f 303 304 305
f 305 304 306
f 306 304 307
f 308 307 304
f 309 310 311
f 312 311 310
f 311 313 309
f 314 309 313
f 315 316 317
f 316 315 318
f 318 315 319
f 319 315 320
f 321 322 323
f 322 321 324
f 324 325 322
f 325 324 326
f 327 328 329
f 329 328 330
f 331 330 328
f 332 333 334
f 333 332 335
f 335 332 336
f 337 338 339
f 339 338 340
f 341 340 338
f 342 343 344
f 343 342 345
f 345 342 346
f 347 348 349
f 348 347 350
f 348 351 349
f 350 351 348
f 349 351 352
f 353 351 350
f 354 352 351
f 351 353 355
f 351 355 354
f 356 354 355
f 357 358 359
f 359 358 360
f 359 360 357
f 361 360 358
f 360 362 357
f 358 357 363
f 364 357 362
f 363 357 365
f 364 365 357
f 365 364 366
f 367 368 369
f 370 369 368
f 367 371 368
f 371 367 372
f 373 374 375
f 376 375 374
f 377 374 373
f 377 376 374
f 373 378 377
f 377 379 376
f 380 377 378
f 379 377 381
f 380 381 377
f 381 380 382
f 383 384 385
f 383 385 386
f 384 387 385
f 388 386 385
f 389 385 387
f 390 388 385
f 385 389 390
f 387 390 389
f 388 390 391
f 390 387 392
f 393 394 395
f 394 393 396
f 394 396 397
f 398 397 396
f 399 400 401
f 400 399 402
f 401 403 399
f 400 404 401
f 403 401 405
f 406 401 404
f 401 406 405
f 407 405 406
f 408 409 410
f 411 410 409
f 412 408 410
f 408 412 413
f 414 408 413
f 408 414 415
f 408 415 409
f 416 409 415
f 417 418 419
f 420 419 418
f 421 417 419
f 417 421 422
f 423 424 425
f 424 423 426
f 425 427 423
f 427 425 428
f 427 429 423
f 430 423 429
f 423 430 426
f 431 426 430
f 432 433 434
f 435 434 433
f 433 432 436
f 437 436 432
f 438 433 436
f 433 438 439
f 439 435 433
f 435 439 440
f 441 442 443
f 442 441 444
f 441 445 444
f 446 444 445
f 447 448 449
f 448 447 450
f 450 451 448
f 452 448 451
f 453 454 455
f 456 455 454
f 455 457 453
f 457 455 458
f 459 454 453
f 453 457 459
f 454 459 460
f 461 459 457
f 462 463 464
f 465 464 463
f 464 466 462
f 467 464 465
f 466 464 468
f 464 467 469
f 468 464 470
f 469 470 464
f 471 472 473
f 474 473 472
f 475 472 471
f 472 476 474
f 472 475 477
f 476 472 478
f 477 479 472
f 478 472 479
f 480 481 482
f 483 482 481
f 484 482 483
f 482 484 485
f 481 486 483
f 483 486 484
f 486 481 487
f 488 484 486
f 489 490 491
f 492 491 490
f 490 493 492
f 493 490 494
f 495 496 497
f 496 495 498
f 497 499 495
f 498 495 500
f 501 495 499
f 502 500 495
f 503 495 501
f 495 503 502
f 504 505 506
f 505 504 507
f 506 508 504
f 509 504 508
f 506 505 510
f 510 508 506
f 511 510 505
f 508 510 512
f 513 514 515
f 514 513 516
f 515 517 513
f 518 513 517
f 519 520 521
f 520 519 522
f 522 519 523
f 524 523 519
f 522 525 520
f 523 525 522
f 526 520 525
f 525 523 527
f 528 529 530
f 530 529 531
f 529 528 532
f 533 531 529
f 532 534 529
f 529 535 533
f 536 529 534
f 535 529 536
f 537 538 539
f 538 537 540
f 540 541 538
f 542 538 541
f 543 544 545
f 544 546 545
f 544 543 547
f 546 544 548
f 549 547 543
f 546 548 550
f 547 549 551
f 550 548 552
f 553 551 549
f 554 550 552
f 551 553 555
f 550 554 556
f 557 555 553
f 558 556 554
f 555 557 559
f 556 558 560
f 561 559 557
f 560 558 562
f 559 561 563
f 560 562 564
f 563 561 565
f 562 566 564
f 565 561 566
f 566 562 565
f 567 568 569
f 570 567 569
f 568 567 571
f 567 570 572
f 571 573 568
f 574 572 570
f 573 571 575
f 572 574 576
f 573 575 577
f 578 576 574
f 577 575 579
f 576 578 580
f 581 577 579
f 582 580 578
f 577 581 583
f 580 582 584
f 585 583 581
f 584 582 586
f 583 585 587
f 586 582 588
f 587 585 589
f 590 586 588
f 587 589 590
f 586 590 589
f 591 592 593
f 592 594 593
f 592 591 595
f 596 595 591
f 597 593 594
f 596 598 595
f 595 598 599
f 600 598 596
f 599 598 601
f 599 601 602
f 603 602 601
f 602 603 604
f 605 601 598
f 603 606 604
f 594 604 606
f 594 606 597
f 606 607 597
f 608 607 606
f 609 597 607
f 608 610 607
f 611 597 609
f 610 608 612
f 597 611 613
f 610 612 614
f 615 613 611
f 614 612 616
f 613 615 617
f 618 614 616
f 619 617 615
f 614 618 620
f 617 619 621
f 621 619 622
f 621 622 600
f 623 600 622
f 622 619 624
f 623 625 600
f 624 619 626
f 626 619 627
f 628 627 619
f 627 628 629
f 624 626 630
f 629 628 631
f 631 628 632
f 632 633 631
f 634 630 626
f 634 635 630
f 633 636 631
f 631 636 637
f 633 638 636
f 639 638 633
f 637 636 640
f 620 638 639
f 637 640 641
f 638 620 642
f 640 636 643
f 644 641 640
f 641 644 635
f 636 645 643
f 646 635 644
f 643 645 647
f 648 647 645
f 646 649 635
f 647 648 649
f 650 649 648
f 635 649 630
f 650 651 649
f 649 651 630
f 630 651 652
f 652 651 653
f 652 653 625
f 654 625 653
f 654 655 625
f 625 655 600
f 655 598 600
f 656 598 655
f 656 655 657
f 658 657 655
f 653 651 658
f 658 651 657
f 659 657 651
f 651 660 659
f 661 660 651
f 620 660 661
f 620 661 642
f 620 662 660
f 620 618 662
f 662 618 598
f 598 618 605
f 663 664 665
f 665 664 666
f 667 666 664
f 666 667 668
f 669 668 667
f 668 669 670
f 671 670 669
f 672 670 671
f 673 672 671
f 674 670 672
f 672 673 675
f 676 670 674
f 677 670 676
f 670 677 678
f 679 678 677
f 680 676 674
f 681 678 679
f 682 678 681
f 676 680 683
f 681 684 682
f 680 685 683
f 681 686 684
f 687 686 681
f 686 688 684
f 684 688 689
f 690 686 687
f 689 688 691
f 692 690 687
f 693 686 690
f 690 692 694
f 685 694 692
f 693 695 686
f 694 685 696
f 697 695 693
f 695 697 698
f 699 698 697
f 685 699 696
f 698 699 700
f 680 699 685
f 699 701 700
f 680 701 699
f 702 701 680
f 703 701 702
f 704 703 702
f 703 704 705
f 706 701 703
f 704 707 705
f 708 701 706
f 707 708 706
f 701 708 709
f 708 707 710
f 709 711 701
f 701 711 712
f 673 707 704
f 673 704 675
f 707 713 710
f 673 713 707
f 712 711 691
f 714 713 673
f 715 712 691
f 715 691 688
f 711 716 691
f 716 717 691
f 713 717 716
f 691 717 718
f 719 718 717
f 719 720 718
f 718 720 721
f 720 722 721
f 663 721 722
f 723 717 713
f 724 663 722
f 713 725 723
f 664 663 724
f 664 724 726
f 726 727 664
f 724 728 726
f 727 726 729
f 728 724 730
f 727 729 731
f 728 730 732
f 725 732 730
f 732 725 733
f 725 713 733
f 734 731 729
f 733 713 734
f 731 734 714
f 734 713 714
f 735 736 737
f 736 738 737
f 736 735 739
f 740 739 735
f 741 737 738
f 740 742 739
f 739 742 743
f 744 742 740
f 743 742 745
f 743 745 746
f 747 746 745
f 746 747 748
f 749 745 742
f 747 750 748
f 738 748 750
f 738 750 741
f 750 751 741
f 752 751 750
f 753 741 751
f 752 754 751
f 755 741 753
f 754 752 756
f 741 755 757
f 754 756 758
f 759 757 755
f 758 756 760
f 757 759 761
f 762 758 760
f 763 761 759
f 758 762 764
f 761 763 765
f 765 763 766
f 765 766 744
f 767 744 766
f 766 763 768
f 767 769 744
f 768 763 770
f 770 763 771
f 772 771 763
f 771 772 773
f 768 770 774
f 773 772 775
f 775 772 776
f 776 777 775
f 778 774 770
f 778 779 774
f 777 780 775
f 775 780 781
f 777 782 780
f 783 782 777
f 781 780 784
f 764 782 783
f 781 784 785
f 782 764 786
f 784 780 787
f 788 785 784
f 785 788 779
f 780 789 787
f 790 779 788
f 787 789 791
f 792 791 789
f 790 793 779
f 791 792 793
f 794 793 792
f 779 793 774
f 794 795 793
f 793 795 774
f 774 795 796
f 796 795 797
f 796 797 769
f 798 769 797
f 798 799 769
f 769 799 744
f 799 742 744
f 800 742 799
f 800 799 801
f 802 801 799
f 797 795 802
f 802 795 801
f 803 801 795
f 795 804 803
f 805 804 795
f 764 804 805
f 764 805 786
f 764 806 804
f 764 762 806
f 806 762 742
f 742 762 749
f 807 808 809
f 809 808 810
f 811 810 808
f 810 811 812
f 813 812 811
f 812 813 814
f 815 814 813
f 816 814 815
f 817 816 815
f 818 814 816
f 816 817 819
f 820 814 818
f 821 814 820
f 814 821 822
f 823 822 821
f 824 820 818
f 825 822 823
f 826 822 825
f 820 824 827
f 825 828 826
f 824 829 827
f 825 830 828
f 831 830 825
f 830 832 828
f 828 832 833
f 834 830 831
f 833 832 835
f 836 834 831
f 837 830 834
f 834 836 838
f 829 838 836
f 837 839 830
f 838 829 840
f 841 839 837
f 839 841 842
f 843 842 841
f 829 843 840
f 842 843 844
f 824 843 829
f 843 845 844
f 824 845 843
f 846 845 824
f 847 845 846
f 848 847 846
f 847 848 849
f 850 845 847
f 848 851 849
f 852 845 850
f 851 852 850
f 845 852 853
f 852 851 854
f 853 855 845
f 845 855 856
f 817 851 848
f 817 848 819
f 851 857 854
f 817 857 851
f 856 855 835
f 858 857 817
f 859 856 835
f 859 835 832
f 855 860 835
f 860 861 835
f 857 861 860
f 835 861 862
f 863 862 861
f 863 864 862
f 862 864 865
f 864 866 865
f 807 865 866
f 867 861 857
f 868 807 866
f 857 869 867
f 808 807 868
f 808 868 870
f 870 871 808
f 868 872 870
f 871 870 873
f 872 868 874
f 871 873 875
f 872 874 876
f 869 876 874
f 876 869 877
f 869 857 877
f 878 875 873
f 877 857 878
f 875 878 858
f 878 857 858
f 879 880 881
f 882 881 880
f 880 879 883
f 882 884 881
f 885 883 879
f 886 881 884
f 883 885 887
f 888 886 884
f 889 887 885
f 890 886 888
f 887 889 891
f 890 888 892
f 893 891 889
f 894 892 888
f 891 893 895
f 892 894 896
f 897 895 893
f 898 896 894
f 899 895 897
f 900 896 898
f 901 895 899
f 899 900 901
f 902 901 900
f 902 900 898
f 903 904 905
f 906 905 904
f 905 907 903
f 906 904 908
f 909 903 907
f 910 908 904
f 911 909 907
f 908 910 912
f 913 909 911
f 914 912 910
f 913 911 915
f 912 914 916
f 917 915 911
f 918 916 914
f 915 917 919
f 916 918 920
f 921 919 917
f 922 920 918
f 923 919 921
f 924 920 922
f 925 923 921
f 923 925 924
f 926 920 924
f 926 924 925
f 927 928 929
f 930 929 928
f 929 931 927
f 931 929 932
f 933 928 927
f 927 931 933
f 928 933 934
f 935 933 931
f 936 937 938
f 939 938 937
f 938 940 936
f 941 938 939
f 940 938 942
f 938 941 943
f 942 938 944
f 943 944 938
f 945 946 947
f 948 947 946
f 947 949 945
f 949 947 950
f 951 952 953
f 954 953 952
f 955 952 951
f 952 956 954
f 952 955 957
f 956 952 958
f 957 959 952
f 958 952 959
f 960 961 962
f 963 962 961
f 964 962 963
f 962 964 965
f 961 966 963
f 963 966 964
f 966 961 967
f 968 964 966
f 969 970 971
f 972 971 970
f 970 973 972
f 973 970 974
f 975 976 977
f 976 975 978
f 977 979 975
f 978 975 980
f 981 975 979
f 982 980 975
f 983 975 981
f 975 983 982
f 984 985 986
f 985 984 987
f 986 988 984
f 989 984 988
f 986 985 990
f 990 988 986
f 991 990 985
f 988 990 992
f 993 994 995
f 994 993 996
f 995 997 993
f 998 993 997
f 999 1000 1001
f 1002 1001 1000
f 1001 1003 999
f 1003 1001 1004
f 1005 1006 1007
f 1006 1005 1008
f 1008 1005 1009
f 1010 1009 1005
f 1008 1011 1006
f 1009 1011 1008
f 1012 1006 1011
f 1011 1009 1013
f 1014 1015 1016
f 1016 1015 1017
f 1015 1014 1018
f 1019 1017 1015
f 1018 1020 1015
f 1015 1021 1019
f 1022 1015 1020
f 1021 1015 1022
f 1023 1024 1025
f 1026 1025 1024
f 1023 1027 1024
f 1027 1023 1028
f 1029 1024 1027
f 1024 1029 1030
f 1024 1030 1026
f 1031 1026 1030
f 1032 1033 1034
f 1033 1032 1035
f 1032 1034 1036
f 1037 1036 1034
f 1036 1038 1032
f 1039 1032 1038
f 1039 1035 1032
f 1035 1039 1040
f 1041 1042 1043
f 1044 1043 1042
f 1041 1045 1042
f 1045 1041 1046
f 1047 1048 1049
f 1050 1049 1048
f 1050 1051 1049
f 1048 1052 1050
f 1051 1050 1053
f 1054 1050 1052
f 1054 1053 1050
f 1053 1054 1055
f 1056 1057 1058
f 1057 1056 1059
f 1057 1059 1060
f 1061 1060 1059
f 1061 1059 1062
f 1063 1062 1059
f 1056 1063 1059
f 1063 1056 1064
f 1065 1066 1067
f 1066 1065 1068
f 1066 1068 1069
f 1070 1069 1068
f 1071 1072 1073
f 1074 1072 1071
f 1072 1074 1075
f 1072 1075 1073
f 1073 1076 1071
f 1075 1077 1073
f 1076 1073 1078
f 1079 1073 1077
f 1073 1079 1078
f 1080 1078 1079
f 1081 1082 1083
f 1083 1084 1081
f 1084 1083 1082
f 1085 1081 1084
f 1082 1081 1086
f 1082 1086 1087
f 1088 1082 1087
f 1082 1088 1089
f 1082 1089 1084
f 1090 1084 1089
f 1091 1092 1093
f 1094 1093 1092
f 1095 1091 1093
f 1091 1095 1096
f 1097 1098 1099
f 1099 1100 1097
f 1101 1097 1100
f 1101 1098 1097
f 1099 1098 1102
f 1103 1098 1101
f 1104 1102 1098
f 1098 1103 1105
f 1105 1104 1098
f 1104 1105 1106
f 1107 1108 1109
f 1109 1108 1110
f 1111 1112 1107
f 1108 1107 1112
f 1113 1108 1112
f 1108 1113 1114
f 1110 1114 1115
f 1108 1114 1116
f 1114 1110 1116
f 1116 1110 1108
f 1117 1118 1119
f 1118 1117 1120
f 1117 1121 1120
f 1122 1120 1121
f 1123 1124 1125
f 1124 1123 1126
f 1126 1123 1127
f 1127 1123 1128
f 1129 1130 1131
f 1130 1129 1132
f 1132 1133 1130
f 1133 1132 1134
f 1135 1136 1137
f 1137 1136 1138
f 1138 1136 1139
f 1140 1139 1136
f 1141 1142 1143
f 1144 1143 1142
f 1143 1145 1141
f 1146 1141 1145
f 1147 1148 1149
f 1148 1147 1150
f 1150 1147 1151
f 1152 1153 1154
f 1153 1152 1155
f 1155 1152 1156
f 1155 1156 1157
f 1157 1156 1158
f 1159 1158 1156
f 1160 1158 1159
f 1161 1162 1163
f 1162 1161 1164
f 1164 1161 1165
f 1166 1167 1168
f 1168 1167 1169
f 1170 1169 1167
f 1166 1171 1167
f 1171 1166 1172
f 1167 1171 1173
f 1173 1171 1174
f 1175 1176 1177
f 1176 1175 1178
f 1178 1175 1179
f 1179 1175 1180
f 1181 1182 1183
f 1182 1181 1184
f 1183 1185 1181
f 1185 1183 1186
f 1187 1188 1189
f 1189 1188 1190
f 1190 1188 1191
f 1192 1191 1188
f 1193 1194 1195
f 1196 1195 1194
f 1194 1197 1196
f 1198 1196 1197
f 1199 1200 1201
f 1200 1199 1202
f 1202 1199 1203
f 1204 1205 1206
f 1205 1204 1207
f 1207 1204 1208
f 1209 1210 1211
f 1211 1210 1212
f 1213 1212 1210
f 1214 1215 1216
f 1216 1215 1217
f 1218 1217 1215
f 1219 1220 1221
f 1220 1219 1222
f 1222 1223 1220
f 1224 1220 1223
f 1225 1226 1227
f 1226 1225 1228
f 1228 1225 1229
f 1230 1229 1225
f 1228 1231 1226
f 1229 1231 1228
f 1232 1226 1231
f 1231 1229 1233
f 1234 1235 1236
f 1236 1235 1237
f 1235 1234 1238
f 1239 1237 1235
f 1238 1240 1235
f 1235 1241 1239
f 1242 1235 1240
f 1241 1235 1242
f 1243 1244 1245
f 1244 1243 1246
f 1245 1247 1243
f 1248 1243 1247
f 1245 1244 1249
f 1249 1247 1245
f 1250 1249 1244
f 1247 1249 1251
f 1252 1253 1254
f 1253 1252 1255
f 1254 1256 1252
f 1257 1252 1256
f 1258 1259 1260
f 1259 1258 1261
f 1260 1262 1258
f 1261 1258 1263
f 1264 1258 1262
f 1265 1263 1258
f 1266 1258 1264
f 1258 1266 1265
f 1267 1268 1269
f 1270 1269 1268
f 1269 1270 1271
f 1268 1272 1270
f 1268 1267 1273
f 1272 1268 1274
f 1275 1273 1267
f 1274 1276 1272
f 1273 1275 1277
f 1276 1274 1278
f 1277 1279 1273
f 1279 1278 1274
f 1279 1277 1280
f 1278 1279 1281
f 1280 1281 1279
f 1281 1280 1282
f 1283 1284 1285
f 1286 1285 1284
f 1285 1286 1287
f 1284 1283 1288
f 1287 1289 1285
f 1289 1287 1290
f 1291 1288 1283
f 1288 1291 1292
f 1283 1293 1291
f 1293 1283 1294
f 1294 1295 1293
f 1295 1294 1296
f 1289 1296 1294
f 1296 1289 1297
f 1290 1297 1289
f 1297 1290 1298
f 1299 1300 1301
f 1300 1299 1302
f 1303 1302 1299
f 1304 1301 1300
f 1301 1304 1305
f 1306 1305 1304
f 1307 1308 1309
f 1308 1307 1310
f 1311 1310 1307
f 1312 1309 1308
f 1309 1312 1313
f 1314 1313 1312
f 1315 1316 1317
f 1316 1315 1318
f 1318 1315 1319
f 1319 1315 1320
f 1319 1321 1318
f 1322 1318 1321
f 1323 1321 1319
f 1324 1325 1326
f 1325 1324 1327
f 1327 1324 1328
f 1327 1328 1329
f 1324 1330 1328
f 1331 1328 1330
f 1332 1328 1331
f 1333 1334 1335
f 1334 1336 1335
f 1335 1336 1337
f 1338 1337 1336
f 1339 1340 1341
f 1342 1341 1340
f 1340 1339 1343
f 1344 1343 1339
f 1345 1346 1347
f 1346 1345 1348
f 1346 1348 1349
f 1350 1351 1352
f 1351 1350 1353
f 1351 1353 1354
f 1354 1353 1355
f 1356 1357 1358
f 1357 1356 1359
f 1357 1359 1360
f 1361 1362 1363
f 1362 1364 1363
f 1362 1361 1365
f 1364 1362 1366
f 1362 1365 1367
f 1362 1367 1366
f 1368 1367 1365
f 1369 1366 1367
f 1370 1371 1372
f 1371 1370 1373
f 1371 1373 1374
f 1375 1374 1373
f 1376 1377 1378
f 1377 1376 1379
f 1380 1378 1377
f 1378 1380 1381
f 1380 1377 1382
f 1383 1382 1377
f 1377 1379 1383
f 1384 1383 1379
f 1385 1386 1387
f 1386 1385 1388
f 1388 1385 1389
f 1390 1391 1392
f 1391 1390 1393
f 1393 1390 1394
f 1395 1396 1397
f 1396 1395 1398
f 1398 1395 1399
f 1398 1399 1400
f 1401 1402 1403
f 1402 1401 1404
f 1401 1405 1404
f 1404 1406 1402
f 1407 1404 1405
f 1406 1404 1408
f 1404 1407 1408
f 1409 1408 1407
f 1410 1411 1412
f 1413 1412 1411
f 1412 1413 1414
f 1415 1413 1411
f 1416 1414 1413
f 1413 1415 1417
f 1417 1416 1413
f 1416 1417 1418
f 1419 1420 1421
f 1420 1419 1422
f 1419 1423 1422
f 1424 1422 1423
f 1425 1426 1427
f 1426 1425 1428
f 1429 1427 1426
f 1427 1429 1430
f 1431 1430 1429
f 1430 1431 1432
f 1429 1433 1431
f 1433 1429 1434
f 1426 1434 1429
f 1434 1435 1433
f 1435 1434 1436
f 1434 1426 1437
f 1437 1436 1434
f 1428 1437 1426
f 1436 1437 1438
f 1437 1428 1439
f 1439 1438 1437
f 1438 1439 1440
f 1441 1442 1443
f 1443 1444 1445
f 1444 1443 1442
f 1442 1446 1444
f 1442 1441 1447
f 1448 1447 1441
f 1447 1448 1449
f 1446 1442 1450
f 1447 1450 1442
f 1450 1451 1446
f 1451 1450 1452
f 1450 1447 1453
f 1449 1453 1447
f 1453 1452 1450
f 1453 1449 1454
f 1452 1453 1455
f 1454 1455 1453
f 1455 1454 1456
f 1457 1458 1459
f 1460 1459 1458
f 1458 1461 1460
f 1462 1460 1461
f 1461 1463 1462
f 1464 1462 1463
f 1465 1466 1467
f 1468 1467 1466
f 1466 1465 1469
f 1470 1469 1465
f 1469 1470 1471
f 1472 1471 1470
