v 0.0366056822 0.0171606168 0.0284579545
v 0.0349975228 0.0202370398 0.0246099401
v 0.0350039937 0.020219259 0.0326734371
v 0.0349967182 0.0202392638 0.0211587325
v 0.0365992151 0.0171783976 0.0211587306
v 0.0331154205 0.0231714435 0.0245935675
v 0.0331151001 0.023172332 0.0211587325
v 0.0366137773 0.0171383917 0.0327225551
v 0.0331163928 0.0231687762 0.02838373
v 0.0331180096 0.0231643301 0.0326439627
v -0.0350224264 0.0201703813 0.0876304582
v -0.0366500095 0.0170406178 0.0118583711
v -0.0366500095 0.0170406178 0.0283651762
v -0.0331257656 0.0231447909 0.0824229196
v -0.0331257656 0.023144789 0.0179753862
v -0.0366500095 0.0170406178 0.079567574
v -0.0366500095 0.0170406178 0.0876304731
v -0.0331257656 0.0231447909 0.0876304731
v -0.030977359 0.0259431731 0.0876304582
v -0.0309773609 0.025943175 0.082422927
v -0.0285945553 0.0285448749 0.0876304731
v -0.0285945553 0.0285448749 0.0824229196
v -0.0259946864 0.0309292283 0.082422927
v -0.0259946883 0.0309292283 0.0876304582
v -0.0231950972 0.0330755599 0.0876304731
v -0.0231950972 0.0330755599 0.0824229196
v -0.0202191509 0.0349703841 0.0824229196
v -0.0202191528 0.0349703841 0.0876304582
v -0.0170902107 0.0366002209 0.0824229196
v -0.0366500095 -0.0171399042 0.0245826542
v -0.0350224227 -0.0202696659 0.0245826505
v -0.0350224227 -0.0202696659 0.0283651762
v -0.0366500095 -0.0171399042 0.0283651762
v -0.0366500095 -0.0171399023 0.0326243192
v -0.0331257619 -0.0232440718 0.0245826505
v -0.0366500095 -0.0171399042 0.0687615946
v -0.0350224227 -0.0202696659 0.0687615871
v -0.0331257619 -0.0232440718 0.0326243229
v -0.0366500095 -0.0171399023 0.0728759915
v -0.0309773572 -0.0260424614 0.0245826505
v -0.0350224227 -0.0202696659 0.0728759915
v -0.0331257619 -0.0232440718 0.0687615946
v -0.0350224227 -0.0202696659 0.0876304582
v -0.0366500095 -0.0171399042 0.0764316246
v -0.0331257619 -0.0232440736 0.0728759989
v -0.0309773516 -0.0260424633 0.0687615946
v -0.0366500095 -0.0171399042 0.0795675665
v -0.0331257619 -0.0232440718 0.0764316246
v -0.0366500095 -0.0171399042 0.0824229196
v -0.0366500095 -0.0171399023 0.0851367936
v -0.0309773572 -0.0260424633 0.076431632
v -0.0366500095 -0.0171399042 0.0876304731
v -0.0331257619 -0.0232440718 0.0851367936
v -0.0331257619 -0.0232440718 0.0876304731
v -0.0331257619 -0.0232440718 0.0824229196
v -0.0309773516 -0.0260424633 0.0876304582
v -0.0285945497 -0.0286441594 0.0851367936
v -0.0285945516 -0.0286441594 0.0876304731
v -0.0259946864 -0.031028511 0.0876304582
v -0.0259946827 -0.031028511 0.0851367936
v -0.0285945479 -0.0286441613 0.0795675665
v -0.0259946845 -0.0310285091 0.082422927
v -0.0231950954 -0.0331748426 0.0851367861
v -0.0231950991 -0.0331748463 0.0876304582
v -0.0202191528 -0.0350696668 0.0876304582
v -0.0285945479 -0.0286441632 0.0764316246
v -0.0202191509 -0.0350696705 0.0851367787
v -0.0231950954 -0.0331748463 0.0824229196
v -0.0170902107 -0.0366995037 0.0851367787
v -0.0170902107 -0.0366994999 0.0876304507
v -0.0202191528 -0.0350696668 0.0824229196
v -0.0138316378 -0.038050849 0.0876304582
v -0.0259946827 -0.0310285091 0.0764316246
v -0.0202191509 -0.0350696705 0.0795675591
v -0.0138316369 -0.0380508564 0.0851367787
v -0.0170902088 -0.0366994999 0.0824229196
v -0.0104667954 -0.0391102284 0.0851367861
v -0.0104667963 -0.0391102247 0.0876304507
v -0.0138316378 -0.038050849 0.082422927
v -0.0170902088 -0.0366994999 0.0795675591
v -0.00702225138 -0.0398729481 0.0876304507
v -0.00702225184 -0.0398729444 0.0851367787
v -0.00352457399 -0.0403343253 0.0795675591
v -0.0104667954 -0.0391102284 0.0824229196
v -0.00702225138 -0.0398729481 0.0824229196
v -0.0138316369 -0.038050849 0.0795675591
v -0.00702225184 -0.0398729444 0.0795675591
v -0.00352457375 -0.0403343253 0.0764316171
v -0.0138316369 -0.038050849 0.0764316246
v -0.0104667945 -0.0391102247 0.0764316246
v -0.00352457352 -0.0403343253 0.0728759915
v -0.00702225091 -0.0398729444 0.0728759915
v -0.0104667945 -0.0391102247 0.0728759989
v -0.00702225044 -0.0398729481 0.0687615871
v -0.0138316369 -0.0380508453 0.0728759915
v -0.00352457352 -0.0403343327 0.0687615946
v -3.28550982e-07 -0.0404896885 0.0687615871
v -0.0104667945 -0.0391102247 0.0687615946
v -0.013831635 -0.038050849 0.0687615871
v -0.0170902088 -0.0366994999 0.0728759915
v -0.0170902088 -0.0366994999 0.0764316171
v -0.0202191509 -0.0350696668 0.0764316246
v -0.0231950935 -0.0331748463 0.0764316246
v -0.0202191491 -0.0350696668 0.0728759915
v -0.0231950935 -0.0331748426 0.0728759989
v -0.0202191491 -0.0350696668 0.0687615946
v -0.0259946827 -0.031028511 0.0728759915
v 0.0309745204 -0.0260484684 0.0149099724
v 0.0309749246 -0.0260473564 0.011853463
v 0.0331179947 -0.0232636388 0.0118387276
v 0.0331163742 -0.0232680812 0.0148960557
v 0.0349999331 -0.0203296803 0.0148682212
v 0.0350039788 -0.0203185659 0.0118092569
v 0.0366137661 -0.0172377005 0.011760138
v 0.0366056785 -0.0172599256 0.0148218321
v 0.0366008207 -0.0172732603 0.0179208145
v 0.0331154019 -0.0232707486 0.0179644749
v 0.0349966995 -0.0203385707 0.0211587306
v 0.036605671 -0.0172599275 0.0284579545
v 0.0331150815 -0.0232716389 0.0211587325
v 0.0309741944 -0.0260493588 0.0211587306
v 0.0285938978 -0.0286441669 0.01797539
v 0.0349975079 -0.0203363467 0.024609942
v 0.0331154019 -0.0232707504 0.0245935675
v 0.0349999331 -0.0203296822 0.0284115635
v 0.0366137624 -0.0172377005 0.0327225551
v 0.0285938978 -0.0286441706 0.0211587306
v 0.0331163742 -0.023268085 0.02838373
v 0.0309742764 -0.0260491353 0.0245853812
v 0.035003975 -0.0203185678 0.0326734371
v 0.0309745185 -0.0260484684 0.028369816
v 0.0331179909 -0.0232636388 0.0326439664
v 0.0350024402 -0.0203296524 0.0686555505
v 0.0366106927 -0.0172598716 0.0685495213
v 0.028593896 -0.0286441706 0.0245826505
v 0.0366053842 -0.0172732119 0.0727182105
v 0.025994027 -0.0310285147 0.0211587306
v 0.0231944397 -0.0331748463 0.0211587306
v 0.0231944378 -0.0331748463 0.01797539
v 0.0202184934 -0.0350696743 0.0211587306
v 0.025994027 -0.0310285166 0.0245826505
v 0.0231944397 -0.0331748463 0.0245826505
v 0.0259940252 -0.0310285147 0.0283651743
v 0.0285938941 -0.0286441669 0.0283651743
v 0.0231944378 -0.0331748463 0.0283651743
v 0.0285938941 -0.0286441669 0.0326243192
v 0.0170895513 -0.0366995037 0.0245826505
v 0.0170895513 -0.0366995074 0.0211587306
v 0.0202184934 -0.0350696743 0.0283651743
v 0.023194436 -0.0331748463 0.0326243192
v 0.0259940233 -0.0310285166 0.0326243192
v 0.0202184934 -0.0350696743 0.0326243192
v 0.0138309784 -0.0380508527 0.0211587306
v 0.0231944397 -0.0331748463 0.0687615871
v 0.025994027 -0.0310285147 0.0687615871
v 0.0202184934 -0.0350696743 0.0687615871
v 0.0138309784 -0.0380508527 0.0245826505
v 0.0231944397 -0.0331748463 0.0728759915
v 0.028593896 -0.028644165 0.0687615871
v 0.0170895513 -0.0366995074 0.0283651743
v 0.0170895513 -0.0366995074 0.0326243192
v 0.0138309784 -0.0380508527 0.0283651743
v 0.0309745241 0.0259498283 0.0728681013
v 0.0331158042 0.0231723245 0.0764171034
v 0.0331163332 0.0231714342 0.0728444308
v 0.0331158787 0.0231714398 0.079571031
v 0.0309744123 0.0259498283 0.0795684233
v 0.0309745986 0.0259491596 0.0824271888
v 0.03311662 0.0231687725 0.0824400485
v 0.0285939202 0.0285448637 0.0795675516
v 0.0285939202 0.0285448637 0.0824229121
v 0.0285939183 0.0285448637 0.0728759915
v 0.0285939202 0.0285448637 0.0764316097
v 0.025994055 0.0309292153 0.0824229121
v 0.0259940531 0.0309292153 0.0764316097
v 0.0231944658 0.0330755487 0.0824229196
v 0.0202185195 0.0349703804 0.0211587306
v 0.0202185195 0.0349703804 0.0824229121
v 0.0170895793 0.0366002135 0.0824229121
v 0.0138310045 0.0379515626 0.01797539
v 0.0138310054 0.0379515663 0.0824229121
v 0.0104661584 0.0390109457 0.0824229196
v -0.0231950935 -0.0331748463 0.0687615946
v -0.025994679 -0.0310285091 0.0687615871
v -0.0285945497 -0.0286441632 0.0728759915
v -0.0309773572 -0.0260424614 0.0728759915
v -0.0285945479 -0.0286441632 0.0687615946
v -0.0259946827 -0.031028511 0.0326243192
v -0.0285945497 -0.0286441594 0.0326243192
v -0.0285945479 -0.0286441594 0.0283651762
v -0.0259946827 -0.0310285091 0.0283651762
v -0.0285945479 -0.0286441613 0.0245826542
v -0.0231950935 -0.0331748463 0.0283651762
v -0.0309773572 -0.0260424633 0.0211587306
v -0.0285945479 -0.0286441594 0.0211587306
v -0.0259946827 -0.0310285091 0.0211587306
v -0.0259946827 -0.031028511 0.0245826505
v -0.0231950935 -0.0331748463 0.0245826505
v -0.0202191491 -0.0350696668 0.0283651743
v -0.0202191491 -0.0350696668 0.0211587306
v -0.0202191491 -0.0350696705 0.0245826505
v -0.017090207 -0.0366994999 0.0245826505
v -0.017090207 -0.0366994999 0.0211587306
v -0.017090207 -0.0366994999 0.01797539
v -0.013831635 -0.038050849 0.0211587306
v -0.0138316341 -0.0380508453 0.01797539
v -0.0104667945 -0.0391102247 0.01797539
v -0.0104667945 -0.0391102247 0.0211587306
v -0.00702225044 -0.0398729481 0.0211587306
v -0.0138316341 -0.038050849 0.0245826505
v -0.0104667945 -0.0391102284 0.0245826505
v -0.013831635 -0.038050849 0.0283651743
v -0.017090207 -0.0366994999 0.0283651743
v -0.0170902088 -0.0366995037 0.0326243192
v -0.00702225091 -0.0398729444 0.0245826505
v -0.0202191491 -0.0350696705 0.0326243192
v -0.0138316369 -0.0380508564 0.0326243192
v -0.0104667945 -0.0391102284 0.0326243192
v -0.0104667945 -0.0391102284 0.0283651743
v -0.00702225091 -0.0398729444 0.0326243192
v -0.00702225044 -0.0398729481 0.0283651743
v -0.00352457375 -0.0403343253 0.0326243192
v 0.00352391601 -0.040334329 0.0326243192
v -3.2892828e-07 -0.0404896885 0.0283651743
v -0.00352457352 -0.0403343253 0.0283651743
v -0.00352457352 -0.0403343253 0.0245826505
v -3.28903667e-07 -0.0404896811 0.0245826505
v -3.28911881e-07 -0.0404896885 0.0211587306
v -0.00352457352 -0.0403343253 0.0211587306
v -0.0104667945 0.0390109494 0.01797539
v -0.0104667945 0.0390109494 0.0118583748
v -0.0138316359 0.0379515737 0.0118583748
v -0.0138316369 0.03795157 0.01797539
v -0.0170902107 0.0366002209 0.01797539
v -0.00702225044 0.0397736654 0.0118583748
v -0.00702225044 0.0397736691 0.01797539
v -0.00352457026 0.04023505 0.01797539
v -0.00352457026 0.0402350463 0.0118583748
v -0.0170902088 0.0366002247 0.0118583739
v -0.0202191509 0.0349703878 0.01797539
v -0.0202191491 0.0349703915 0.0118583739
v -0.0231950972 0.0330755636 0.0118583739
v -0.0231950972 0.0330755599 0.01797539
v -0.0259946845 0.0309292302 0.0118583729
v -0.0259946845 0.0309292283 0.0179753881
v -0.0285945553 0.0285448786 0.0179753881
v -0.0285945553 0.0285448786 0.0118583729
v -0.0309773609 0.0259431768 0.0179753881
v -0.0309773628 0.0259431768 0.0118583729
v -0.0331257656 0.0231447909 0.0118583711
v -0.0350224301 0.0201703813 0.0118583711
v 0.0170895513 -0.0366995074 0.0687615871
v 0.010466137 -0.0391102321 0.0245826505
v 0.010466137 -0.0391102321 0.0211587306
v 0.00702159433 -0.0398729518 0.0211587306
v 0.00702159386 -0.0398729518 0.01797539
v 0.00352391601 -0.040334329 0.01797539
v 0.00352391601 -0.040334329 0.0211587306
v 0.0070215934 -0.0398729518 0.0245826505
v 0.00352391601 -0.0403343253 0.0245826505
v 0.00702159386 -0.0398729481 0.0283651743
v 0.010466137 -0.0391102321 0.0283651743
v 0.0104661379 -0.0391102247 0.0326243192
v 0.00352391601 -0.040334329 0.0283651743
v 0.0138309784 -0.0380508527 0.0687615871
v 0.00702159386 -0.0398729518 0.0326243192
v 0.0104661379 -0.0391102321 0.0687615946
v 0.0170895513 -0.0366995074 0.0728759915
v 0.0202184934 -0.0350696743 0.0728759915
v 0.0138309784 -0.0380508527 0.0728759915
v 0.0104661379 -0.0391102247 0.0728759915
v 0.0138309784 -0.0380508527 0.0764316097
v 0.0202184934 -0.0350696743 0.0764316097
v 0.0170895513 -0.0366995074 0.0764316097
v 0.00702159479 -0.0398729481 0.0687615871
v 0.00352391647 -0.040334329 0.0687615946
v 0.00352391647 -0.040334329 0.0728759989
v 0.00702159479 -0.0398729518 0.0764316171
v 0.0104661379 -0.0391102321 0.0764316171
v 0.00352391647 -0.040334329 0.0764316246
v 0.0138309784 -0.0380508527 0.0795675591
v 0.0170895513 -0.0366995037 0.0795675591
v -3.28649406e-07 -0.0404896885 0.0764316246
v -3.28567381e-07 -0.0404896848 0.0728759915
v 0.0202184878 -0.0350696743 0.0824229121
v 0.00352391647 -0.0403343253 0.0795675591
v 0.00702159433 -0.0398729518 0.0795675591
v -3.28756016e-07 -0.0404896811 0.0795675591
v 0.00702159479 -0.0398729481 0.0824229196
v 0.0104661379 -0.0391102247 0.0851367787
v 0.0138309784 -0.0380508527 0.0824229121
v 0.00352391647 -0.040334329 0.0824229196
v 0.00702159433 -0.0398729518 0.0851367787
v 0.00702159433 -0.0398729481 0.0876304433
v 0.010466137 -0.0391102321 0.0876304507
v 0.00352391601 -0.040334329 0.0876304507
v 0.0138309775 -0.0380508527 0.0876304433
v -3.2910873e-07 -0.0404896848 0.0876304433
v 0.0138309784 -0.0380508527 0.0851367787
v -0.00352457399 -0.0403343253 0.0876304507
v 0.0170895513 -0.0366995074 0.0851367787
v 0.0170895513 -0.0366995074 0.0876304507
v 0.0202184897 -0.0350696743 0.0876304433
v 0.0170895513 -0.0366995074 0.0824229196
v 0.0202184897 -0.0350696743 0.0851367787
v 0.023194436 -0.0331748463 0.0851367787
v 0.023194436 -0.0331748463 0.0876304507
v 0.0259940233 -0.0310285147 0.0876304433
v 0.023194436 -0.0331748463 0.0824229121
v 0.023194436 -0.0331748463 0.0795675516
v 0.025994027 -0.0310285166 0.0795675516
v 0.028593896 -0.0286441669 0.0851367787
v 0.0285938941 -0.0286441706 0.0876304507
v 0.0231944378 -0.0331748463 0.0764316097
v 0.0309754163 -0.0260460209 0.0876351371
v 0.0309749488 -0.0260473564 0.0851420909
v 0.028593896 -0.0286441669 0.0824229196
v 0.028593896 -0.0286441706 0.0795675591
v 0.0309745762 -0.0260484647 0.0824271888
v 0.0331180841 -0.0232636388 0.0851580054
v 0.0331199579 -0.0232583061 0.0876492336
v 0.0350088924 -0.0203052331 0.0876773968
v 0.028593896 -0.0286441706 0.0764316097
v 0.0350042097 -0.0203185659 0.0851898491
v 0.0366142243 -0.0172376968 0.0852429271
v 0.0366235897 -0.0172110293 0.0877243727
v 0.0350005031 -0.0203296784 0.0824657604
v 0.0366068184 -0.0172599144 0.0825086012
v 0.0331166051 -0.0232680812 0.0824400485
v 0.0349986479 -0.0203363374 0.0795762464
v 0.0331163146 -0.0232707411 0.0728444308
v 0.0349984653 -0.0203385539 0.0763953328
v 0.0309743918 -0.0260491334 0.0795684233
v 0.0309743732 -0.026049355 0.0764279887
v 0.0349997878 -0.0203363243 0.0727970973
v 0.028593896 -0.0286441669 0.0728759915
v 0.0309749208 -0.0260473564 0.0326292329
v 0.0331173763 -0.0232680719 0.068719171
v 0.025994027 -0.0310285147 0.0728759915
v -3.22194467e-07 0.0403904058 0.01797539
v -3.2216164e-07 0.0403904021 0.0118583748
v 0.00352392765 0.0402350463 0.0118583748
v 0.00352392765 0.0402350463 0.01797539
v 0.00702161109 0.0397736654 0.01797539
v 0.00702161109 0.0397736654 0.0118583748
v 0.0104661593 0.0390109457 0.0118583748
v 0.0104661593 0.0390109457 0.01797539
v 0.0138310045 0.0379515626 0.0118583748
v 0.0138310045 0.0379515626 0.01797539
v 0.0170895793 0.0366002135 0.01797539
v 0.0170895793 0.0366002135 0.0118583748
v 0.0202185214 0.0349703804 0.0118583748
v 0.0202185195 0.0349703804 0.01797539
v 0.0231944658 0.0330755487 0.01797539
v 0.0231944658 0.0330755487 0.0118583748
v 0.025994055 0.0309292153 0.0149146104
v 0.025994055 0.0309292153 0.01797539
v 0.025994055 0.0309292153 0.0118583748
v 0.0285939202 0.0285448637 0.01797539
v 0.0285939202 0.0285448637 0.0118583748
v 0.0309745427 0.0259491596 0.0149099724
v 0.0309742969 0.0259498283 0.0179726612
v 0.0309749451 0.0259480514 0.011853463
v 0.0331180096 0.0231643301 0.0118387276
v 0.0331154205 0.0231714416 0.0179644749
v 0.0331163928 0.0231687762 0.0148960557
v 0.0349975228 0.0202370398 0.0179481022
v 0.0350039937 0.020219259 0.0118092569
v 0.0366137773 0.0171383917 0.011760138
v 0.0366056897 0.0171606187 0.0148218321
v 0.0349967182 0.0202392638 0.0211587325
v 0.0331151001 0.023172332 0.0211587325
v 0.0365992151 0.0171783976 0.0211587306
v 0.00702161109 0.0397736654 0.0824229196
v 0.00702161109 0.0397736654 0.01797539
v 0.00352392765 0.0402350463 0.01797539
v 0.0104661593 0.0390109457 0.01797539
v 0.0202185195 0.0349703804 0.01797539
v 0.0170895793 0.0366002135 0.01797539
v 0.0231944658 0.0330755487 0.01797539
v 0.025994055 0.0309292153 0.0211587306
v 0.025994055 0.0309292153 0.01797539
v 0.0231944658 0.0330755487 0.0245826505
v 0.0285939202 0.0285448637 0.01797539
v 0.0285939202 0.0285448637 0.0211587306
v 0.025994055 0.0309292153 0.0245826505
v 0.0309742168 0.02595005 0.0211587306
v 0.0309742969 0.0259498283 0.0179726612
v 0.0331154205 0.0231714416 0.0179644749
v 0.0331151001 0.023172332 0.0211587325
v 0.0331154205 0.0231714435 0.0245935675
v 0.0285939202 0.0285448637 0.0245826505
v 0.0309742969 0.0259498283 0.0245853812
v 0.0309747942 0.0259491596 0.068750985
v 0.0331163928 0.0231687762 0.02838373
v 0.0331180096 0.0231643301 0.0326439627
v 0.0285939202 0.0285448637 0.0283651743
v 0.025994055 0.0309292153 0.0283651743
v 0.0285939183 0.0285448637 0.0326243192
v 0.0231944658 0.0330755487 0.0283651743
v 0.0331173949 0.0231687669 0.068719171
v 0.025994055 0.0309292153 0.0326243192
v -0.0104667936 0.039010942 0.0824229196
v -0.0138316369 0.03795157 0.01797539
v -0.0138316378 0.0379515663 0.082422927
v -0.00352457026 0.04023505 0.01797539
v -0.00352457049 0.04023505 0.0824229196
v -3.22440513e-07 0.0403904058 0.0824229196
v -0.00702225091 0.0397736654 0.0824229196
v -0.0170902107 0.0366002209 0.01797539
v -0.0170902107 0.0366002209 0.0824229196
v -3.22194467e-07 0.0403904058 0.01797539
v 0.00352392718 0.0402350463 0.0824229196
v -0.0202191509 0.0349703841 0.0824229196
v -0.00702225044 0.0397736691 0.01797539
v -0.0285945553 0.0285448749 0.0824229196
v -0.0285945553 0.0285448786 0.0179753881
v -0.0309773609 0.025943175 0.082422927
v -0.0259946864 0.0309292283 0.082422927
v -0.0331257656 0.023144789 0.0179753862
v -0.0331257656 0.0231447909 0.0824229196
v -0.0259946845 0.0309292283 0.0179753881
v -0.0309773609 0.0259431768 0.0179753881
v -0.0231950972 0.0330755599 0.0824229196
v -0.0231950972 0.0330755599 0.01797539
v -0.0202191509 0.0349703878 0.01797539
v -0.0104667945 0.0390109494 0.01797539
v -0.0170902107 0.0366002209 0.0876304507
v -0.0138316378 0.03795157 0.0876304582
v -0.0138316378 0.0379515663 0.082422927
v -0.0104667954 0.039010942 0.0876304507
v -0.0104667936 0.039010942 0.0824229196
v -0.00702225091 0.0397736654 0.0824229196
v -0.00702225091 0.0397736728 0.0876304507
v -0.00352457049 0.04023505 0.0824229196
v -0.00352457073 0.04023505 0.0876304507
v -3.22571765e-07 0.0403904058 0.0876304582
v -3.22440513e-07 0.0403904058 0.0824229196
v 0.00352392718 0.0402350463 0.0876304507
v 0.00352392718 0.0402350463 0.0824229196
v 0.00702161109 0.0397736654 0.0824229196
v 0.00702161109 0.0397736654 0.0876304507
v 0.0104661584 0.0390109457 0.0824229196
v 0.0104661584 0.0390109457 0.0876304507
v 0.0138310045 0.0379515626 0.0876304433
v 0.0138310054 0.0379515663 0.0824229121
v 0.0170895793 0.0366002135 0.0824229121
v 0.0170895774 0.0366002135 0.0876304507
v 0.0202185195 0.0349703804 0.0876304433
v 0.0202185195 0.0349703804 0.0824229121
v 0.0231944658 0.0330755487 0.0851367787
v 0.0231944658 0.0330755487 0.0824229196
v 0.0231944658 0.0330755487 0.0876304507
v 0.025994055 0.0309292153 0.0824229121
v 0.0259940531 0.0309292134 0.0876304433
v 0.0259940531 0.0309292153 0.0851367787
v 0.0285939202 0.0285448637 0.0824229121
v 0.0285939202 0.0285448637 0.0876304507
v 0.0309754405 0.025946714 0.0876351297
v 0.0309749693 0.0259480514 0.0851420909
v 0.0309745986 0.0259491596 0.0824271888
v 0.0331181027 0.0231643301 0.0851579979
v 0.0331199765 0.0231589954 0.0876492336
v 0.03311662 0.0231687725 0.0824400485
v 0.035008911 0.0202059224 0.0876773968
v 0.0350042246 0.0202192571 0.0851898491
v 0.0366142355 0.0171383861 0.0852429271
v 0.0366236046 0.0171117187 0.0877243727
v 0.0366031155 0.0171739273 0.0795849189
v 0.0331158787 0.0231714398 0.079571031
v 0.0349986628 0.0202370286 0.0795762464
v 0.0349984765 0.0202392451 0.0763953328
v 0.0331158042 0.0231723245 0.0764171034
v 0.036602743 0.0171783585 0.0763590634
v 0.0331163332 0.0231714342 0.0728444308
v 0.0366053917 0.0171739031 0.0727182105
v 0.0349998027 0.0202370174 0.0727971047
v 0.0350024551 0.0202303473 0.0686555505
v 0.0331173949 0.0231687669 0.068719171
v 0.0331180096 0.0231643301 0.0326439627
v 0.0350039937 0.020219259 0.0326734371
v 0.0366137773 0.0171383917 0.0327225551
v -0.0366500095 -0.0171399023 0.0179753862
v -0.0366500095 -0.0171399042 0.0149146076
v -0.0350224227 -0.0202696659 0.0118583711
v -0.0366500095 -0.0171399042 0.0118583711
v -0.0331257619 -0.0232440718 0.0118583711
v -0.0331257619 -0.0232440718 0.0149146076
v -0.0350224227 -0.0202696659 0.0211587306
v -0.0366500095 -0.0171399042 0.0211587269
v -0.0331257619 -0.0232440718 0.0179753881
v -0.0309773516 -0.0260424633 0.0149146076
v -0.0309773572 -0.0260424614 0.0118583729
v -0.0285945479 -0.0286441613 0.0118583711
v -0.0309773572 -0.0260424595 0.0179753881
v -0.0331257619 -0.0232440718 0.0211587269
v -0.025994679 -0.0310285091 0.0149146076
v -0.0259946827 -0.031028511 0.0118583729
v -0.0231950935 -0.0331748463 0.0118583739
v -0.0259946827 -0.031028511 0.0179753881
v -0.0231950935 -0.0331748463 0.0149146104
v -0.0231950935 -0.0331748426 0.01797539
v -0.0202191491 -0.0350696668 0.0149146104
v -0.0202191491 -0.0350696705 0.0118583748
v -0.017090207 -0.0366994999 0.0118583748
v -0.0202191491 -0.0350696668 0.01797539
v -0.017090207 -0.0366994999 0.0149146114
v -0.013831635 -0.038050849 0.0149146104
v -0.0138316341 -0.0380508453 0.0118583748
v -0.0104667945 -0.0391102284 0.0118583748
v -0.0104667945 -0.0391102247 0.0149146114
v -0.00702225044 -0.0398729481 0.0149146114
v -0.00702225091 -0.0398729481 0.0118583748
v -0.00352457352 -0.0403343327 0.0118583748
v -0.00352457352 -0.0403343327 0.0149146114
v -3.28857908e-07 -0.0404896848 0.0118583748
v -0.00352457352 -0.0403343253 0.01797539
v -0.00702225091 -0.0398729444 0.01797539
v 0.00352391601 -0.0403343253 0.0118583748
v 0.00352391601 -0.040334329 0.0149146114
v -3.28895453e-07 -0.0404896848 0.01797539
v 0.00702159386 -0.0398729481 0.0149146114
v 0.0070215934 -0.0398729518 0.0118583748
v 0.010466137 -0.0391102321 0.0118583748
v 0.010466137 -0.0391102321 0.0149146114
v 0.0138309784 -0.0380508527 0.0149146104
v 0.0138309784 -0.0380508527 0.0118583748
v 0.0170895513 -0.0366995037 0.0118583748
v 0.0170895513 -0.0366995074 0.0149146114
v 0.0202184897 -0.0350696743 0.0149146114
v 0.0202184934 -0.0350696743 0.0118583748
v 0.0170895495 -0.0366995074 0.01797539
v 0.0231944397 -0.0331748463 0.0118583748
v 0.0138309784 -0.0380508527 0.01797539
v 0.0231944397 -0.0331748463 0.0149146114
v 0.0202184934 -0.0350696743 0.01797539
v 0.025994027 -0.0310285147 0.0149146104
v 0.025994027 -0.0310285147 0.0118583748
v 0.0285938978 -0.028644165 0.0118583748
v 0.0285938978 -0.028644165 0.0149146114
vt 0.942759097 0.887253106
vt 0.920833647 0.937858105
vt 0.920921862 0.831815481
vt 0.92082268 0.983244717
vt 0.942670882 0.983244717
vt 0.895173371 0.938073397
vt 0.89516902 0.983244717
vt 0.942869365 0.831169605
vt 0.895186603 0.888229191
vt 0.895208657 0.83220315
vt 0.0226897895 0.00173473358
vt 0.000499725342 0.998208702
vt 0.000499695539 0.781128764
vt 0.0485485792 0.0702186823
vt 0.0485486984 0.917764187
vt 0.000499606133 0.107769251
vt 0.00049957633 0.00173449516
vt 0.0485485494 0.00173449516
vt 0.0778395832 0.00173473358
vt 0.0778395832 0.0702185631
vt 0.11032638 0.00173449516
vt 0.110326409 0.0702186823
vt 0.145772606 0.0702185631
vt 0.145772547 0.00173473358
vt 0.183941752 0.00173449516
vt 0.183941782 0.0702186823
vt 0.224515349 0.0702186823
vt 0.224515289 0.00173473358
vt 0.26717484 0.0702186823
vt 0.000499635935 0.830872416
vt 0.0226898491 0.830872416
vt 0.0226898789 0.781128645
vt 0.000499635935 0.781128645
vt 0.000499635935 0.725116968
vt 0.0485486388 0.830872416
vt 0.00049957633 0.24987793
vt 0.0226898193 0.249877989
vt 0.048548609 0.725116968
vt 0.000499546528 0.195769727
vt 0.0778396428 0.830872416
vt 0.0226897597 0.195769727
vt 0.0485485494 0.24987793
vt 0.0226897299 0.00173473358
vt 0.000499546528 0.149009943
vt 0.0485485196 0.195769668
vt 0.0778396428 0.24987793
vt 0.000499546528 0.107769251
vt 0.0485485196 0.149009824
vt 0.000499546528 0.0702186823
vt 0.000499546528 0.0345287323
vt 0.0778395534 0.149009705
vt 0.000499516726 0.00173449516
vt 0.0485485196 0.0345286131
vt 0.0485484898 0.00173437595
vt 0.0485485196 0.0702185631
vt 0.0778395832 0.00173461437
vt 0.11032638 0.0345286131
vt 0.11032632 0.00173437595
vt 0.145772427 0.00173461437
vt 0.145772517 0.0345286131
vt 0.110326409 0.107769132
vt 0.145772487 0.0702184439
vt 0.183941633 0.0345287323
vt 0.183941573 0.00173461437
vt 0.22451514 0.00173461437
vt 0.110326409 0.149009824
vt 0.2245152 0.0345288515
vt 0.183941633 0.0702185631
vt 0.267174661 0.0345288515
vt 0.267174661 0.00173473358
vt 0.22451517 0.0702185631
vt 0.311601549 0.00173461437
vt 0.145772517 0.149009705
vt 0.2245152 0.107769251
vt 0.311601579 0.0345288515
vt 0.267174691 0.0702185631
vt 0.357477278 0.0345287323
vt 0.357477248 0.00173473358
vt 0.311601549 0.0702184439
vt 0.267174721 0.107769251
vt 0.404439628 0.00173473358
vt 0.404439628 0.0345288515
vt 0.452126443 0.107769251
vt 0.357477278 0.0702185631
vt 0.404439628 0.0702185631
vt 0.311601579 0.107769251
vt 0.404439628 0.107769251
vt 0.452126443 0.149009824
vt 0.311601579 0.149009824
vt 0.357477307 0.149009824
vt 0.452126443 0.195769608
vt 0.404439658 0.195769608
vt 0.357477307 0.195769608
vt 0.404439688 0.24987787
vt 0.311601579 0.195769668
vt 0.452126443 0.24987781
vt 0.500175476 0.24987787
vt 0.357477307 0.24987787
vt 0.311601609 0.24987793
vt 0.267174721 0.195769668
vt 0.267174721 0.149009824
vt 0.2245152 0.149009705
vt 0.183941662 0.149009824
vt 0.224515229 0.195769668
vt 0.183941662 0.195769608
vt 0.224515259 0.24987787
vt 0.145772517 0.195769668
vt 0.922481775 0.958077073
vt 0.922487259 0.998273015
vt 0.951705575 0.99846679
vt 0.951683521 0.958260059
vt 0.977363586 0.958626091
vt 0.97741878 0.998854399
vt 0.999366343 0.999500334
vt 0.999256074 0.959236145
vt 0.999189854 0.918481648
vt 0.951670229 0.917907476
vt 0.977319479 0.87590003
vt 0.999256015 0.779908419
vt 0.951665819 0.87590003
vt 0.922477365 0.87590003
vt 0.890024722 0.917763948
vt 0.977330565 0.830513358
vt 0.95167017 0.83072865
vt 0.977363586 0.780518413
vt 0.999366283 0.723824859
vt 0.890024722 0.87590003
vt 0.951683402 0.780884504
vt 0.922478437 0.830836296
vt 0.977418661 0.724470854
vt 0.922481716 0.781067491
vt 0.951705456 0.724858403
vt 0.97739768 0.251272321
vt 0.999324322 0.252666652
vt 0.890024662 0.830872238
vt 0.999251962 0.197844565
vt 0.854578495 0.87590003
vt 0.816409349 0.87590003
vt 0.816409349 0.917763948
vt 0.775835752 0.87590003
vt 0.854578495 0.830872238
vt 0.816409349 0.830872297
vt 0.854578435 0.781128526
vt 0.890024662 0.781128526
vt 0.81640929 0.781128526
vt 0.890024662 0.725116789
vt 0.733176231 0.830872297
vt 0.733176231 0.87590003
vt 0.775835752 0.781128526
vt 0.81640923 0.725116849
vt 0.854578376 0.725116789
vt 0.775835752 0.725116849
vt 0.688749433 0.87590003
vt 0.81640923 0.24987781
vt 0.854578376 0.24987781
vt 0.775835633 0.24987781
vt 0.688749433 0.830872297
vt 0.81640923 0.195769548
vt 0.890024602 0.24987781
vt 0.733176231 0.781128526
vt 0.733176231 0.725116849
vt 0.688749373 0.781128526
vt 0.0328141153 0.148809731
vt 0.000521421432 0.0938205123
vt 0.000513464212 0.1491763
vt 0.000520348549 0.0449526906
vt 0.032815814 0.0449932218
vt 0.0328130424 0.000698745251
vt 0.000509142876 0.000499427319
vt 0.0687160492 0.0450066924
vt 0.0687160492 0.000765144825
vt 0.0687160492 0.148687422
vt 0.0687160194 0.0935958028
vt 0.10792467 0.000765144825
vt 0.10792467 0.0935958028
vt 0.150145292 0.000764906406
vt 0.195025504 0.950007796
vt 0.195025623 0.000765144825
vt 0.242213249 0.000765144825
vt 0.291355729 0.999331295
vt 0.291355848 0.000765144825
vt 0.342101157 0.000764906406
vt 0.183941692 0.24987787
vt 0.145772576 0.24987793
vt 0.11032638 0.195769727
vt 0.0778395534 0.195769727
vt 0.110326439 0.24987793
vt 0.145772606 0.725116968
vt 0.110326469 0.725116968
vt 0.110326499 0.781128645
vt 0.145772606 0.781128645
vt 0.110326499 0.830872357
vt 0.183941752 0.781128645
vt 0.0778396726 0.875900149
vt 0.110326529 0.875900149
vt 0.145772636 0.875900149
vt 0.145772606 0.830872416
vt 0.183941752 0.830872357
vt 0.224515319 0.781128645
vt 0.224515349 0.875900149
vt 0.224515319 0.830872357
vt 0.26717484 0.830872357
vt 0.26717484 0.875900149
vt 0.26717484 0.917764068
vt 0.311601698 0.875900149
vt 0.311601728 0.917764008
vt 0.357477427 0.917764008
vt 0.357477427 0.875900149
vt 0.404439777 0.875900149
vt 0.311601698 0.830872297
vt 0.357477427 0.830872297
vt 0.311601698 0.781128645
vt 0.26717484 0.781128645
vt 0.26717481 0.725116909
vt 0.404439747 0.830872297
vt 0.224515319 0.725116909
vt 0.311601669 0.725116849
vt 0.357477397 0.725116849
vt 0.357477397 0.781128645
vt 0.404439747 0.725116849
vt 0.404439747 0.781128645
vt 0.452126533 0.725116849
vt 0.548224509 0.725116849
vt 0.500175536 0.781128585
vt 0.452126533 0.781128585
vt 0.452126533 0.830872297
vt 0.500175536 0.830872297
vt 0.500175536 0.87590009
vt 0.452126563 0.87590009
vt 0.357477605 0.917764127
vt 0.357477605 0.998208642
vt 0.311601877 0.998208642
vt 0.311601877 0.917764127
vt 0.267174959 0.917764127
vt 0.404439956 0.998208642
vt 0.404439956 0.917764127
vt 0.452126771 0.917764068
vt 0.452126771 0.998208582
vt 0.267174989 0.998208642
vt 0.224515468 0.917764127
vt 0.224515498 0.998208642
vt 0.183941901 0.998208642
vt 0.183941901 0.917764187
vt 0.145772755 0.998208642
vt 0.145772755 0.917764187
vt 0.110326529 0.917764187
vt 0.110326529 0.998208642
vt 0.0778397024 0.917764187
vt 0.0778397024 0.998208642
vt 0.0485486686 0.998208702
vt 0.0226898789 0.998208702
vt 0.733176172 0.24987781
vt 0.642873645 0.830872297
vt 0.642873645 0.87590003
vt 0.595911324 0.87590009
vt 0.595911324 0.917763948
vt 0.548224568 0.917763948
vt 0.548224568 0.87590009
vt 0.595911324 0.830872297
vt 0.548224509 0.830872297
vt 0.595911324 0.781128585
vt 0.642873645 0.781128526
vt 0.642873645 0.725116849
vt 0.548224509 0.781128585
vt 0.688749313 0.24987787
vt 0.595911324 0.725116849
vt 0.642873585 0.24987781
vt 0.733176172 0.195769548
vt 0.775835633 0.195769548
vt 0.688749313 0.195769608
vt 0.642873585 0.195769608
vt 0.688749313 0.149009824
vt 0.775835633 0.149009824
vt 0.733176172 0.149009824
vt 0.595911264 0.24987787
vt 0.548224449 0.24987781
vt 0.548224449 0.195769548
vt 0.595911264 0.149009705
vt 0.642873585 0.149009705
vt 0.548224449 0.149009705
vt 0.688749313 0.107769132
vt 0.733176172 0.107769132
vt 0.500175416 0.149009824
vt 0.500175416 0.195769608
vt 0.775835574 0.0702185631
vt 0.548224449 0.107769132
vt 0.595911205 0.107769132
vt 0.500175416 0.107769251
vt 0.595911205 0.0702184439
vt 0.642873585 0.0345287323
vt 0.688749313 0.0702185631
vt 0.548224449 0.0702184439
vt 0.595911205 0.0345287323
vt 0.595911205 0.00173473358
vt 0.642873526 0.00173461437
vt 0.54822439 0.00173461437
vt 0.688749254 0.00173473358
vt 0.500175416 0.00173485279
vt 0.688749313 0.0345287323
vt 0.452126414 0.00173473358
vt 0.733176112 0.0345287323
vt 0.733176112 0.00173461437
vt 0.775835574 0.00173473358
vt 0.733176112 0.0702184439
vt 0.775835633 0.0345287323
vt 0.816409171 0.0345287323
vt 0.816409111 0.00173461437
vt 0.854578257 0.00173473358
vt 0.816409171 0.0702185631
vt 0.816409171 0.107769251
vt 0.854578376 0.107769251
vt 0.890024543 0.0345287323
vt 0.890024543 0.00173461437
vt 0.81640923 0.149009824
vt 0.922493815 0.00167286396
vt 0.922487497 0.0344588757
vt 0.890024543 0.0702184439
vt 0.890024543 0.107769132
vt 0.922482431 0.0701622963
vt 0.951706648 0.0342494249
vt 0.951732159 0.00148761272
vt 0.977485657 0.00111711025
vt 0.890024543 0.149009824
vt 0.977421761 0.0338307619
vt 0.999372482 0.0331327915
vt 0.999500155 0.000499486923
vt 0.977371275 0.0696550608
vt 0.999271512 0.0690916777
vt 0.951686502 0.0699931383
vt 0.977345943 0.107654929
vt 0.951682568 0.196184576
vt 0.97734344 0.149486899
vt 0.922479868 0.107757807
vt 0.92247963 0.149057508
vt 0.97736156 0.196807086
vt 0.890024543 0.195769548
vt 0.922487199 0.725052178
vt 0.951697052 0.250435591
vt 0.854578376 0.195769548
vt 0.500175834 0.917764068
vt 0.500175834 0.998208582
vt 0.548224866 0.998208582
vt 0.548224866 0.917764068
vt 0.595911741 0.917764068
vt 0.595911741 0.998208582
vt 0.642874181 0.998208582
vt 0.642874181 0.917764068
vt 0.688749909 0.998208523
vt 0.688749909 0.917764068
vt 0.733176827 0.917764068
vt 0.733176827 0.998208523
vt 0.775836289 0.998208523
vt 0.775836229 0.917764068
vt 0.816409826 0.917764008
vt 0.816409826 0.998208523
vt 0.854578972 0.958016157
vt 0.854578972 0.917764008
vt 0.854578972 0.998208523
vt 0.890025139 0.917764008
vt 0.890025139 0.998208523
vt 0.922482133 0.958077133
vt 0.922478795 0.91779989
vt 0.922487617 0.998273075
vt 0.951705813 0.998466849
vt 0.951670587 0.917907536
vt 0.95168376 0.958260119
vt 0.977330804 0.918122828
vt 0.977419019 0.998854399
vt 0.999366581 0.999500394
vt 0.999256313 0.959236205
vt 0.977319837 0.87590003
vt 0.951666176 0.87590003
vt 0.999168038 0.87590009
vt 0.394048452 0.000764906406
vt 0.394048303 0.999331295
vt 0.446796924 0.999331355
vt 0.342101008 0.999331295
vt 0.195025474 0.999331236
vt 0.2422131 0.999331236
vt 0.150145143 0.999331236
vt 0.107924551 0.950007796
vt 0.107924521 0.999331236
vt 0.150145173 0.896956682
vt 0.0687159002 0.999331236
vt 0.06871593 0.950007796
vt 0.107924551 0.896956682
vt 0.0328186452 0.950007737
vt 0.0328174233 0.999373496
vt 0.000527083874 0.999500334
vt 0.000531971455 0.950007677
vt 0.000527143478 0.896787524
vt 0.06871593 0.896956682
vt 0.0328174531 0.896914363
vt 0.0328100324 0.212601364
vt 0.000512480736 0.83806175
vt 0.000488072634 0.772052646
vt 0.06871593 0.838349342
vt 0.107924551 0.838349342
vt 0.0687159598 0.772356987
vt 0.150145173 0.838349342
vt 0.000497460365 0.213094175
vt 0.107924551 0.772357047
vt 0.657791436 0.000765025616
vt 0.708536565 0.999331355
vt 0.708536685 0.000764906406
vt 0.55309546 0.999331355
vt 0.553095639 0.000765025616
vt 0.499946356 0.000765025616
vt 0.6058442 0.000765025616
vt 0.757679105 0.999331415
vt 0.757679284 0.000765025616
vt 0.499946207 0.999331355
vt 0.446797073 0.000764906406
vt 0.80486691 0.000765025616
vt 0.605844021 0.999331355
vt 0.931176543 0.000765025616
vt 0.931176424 0.999331415
vt 0.967111707 0.000764906406
vt 0.891967893 0.000764906406
vt 0.999511719 0.999331474
vt 0.999511838 0.000765025616
vt 0.891967654 0.999331415
vt 0.967111588 0.999331415
vt 0.849747181 0.000765025616
vt 0.849747062 0.999331415
vt 0.804866791 0.999331355
vt 0.657791317 0.999331355
vt 0.26717484 0.00173485279
vt 0.311601698 0.00173473358
vt 0.311601698 0.0702185631
vt 0.357477427 0.00173485279
vt 0.357477486 0.0702186823
vt 0.404439807 0.0702186823
vt 0.404439807 0.00173485279
vt 0.452126622 0.0702186823
vt 0.452126622 0.00173485279
vt 0.500175655 0.00173461437
vt 0.500175655 0.0702185631
vt 0.548224747 0.00173473358
vt 0.548224747 0.0702185631
vt 0.595911622 0.0702185631
vt 0.595911622 0.00173473358
vt 0.642874002 0.0702185631
vt 0.642874002 0.00173473358
vt 0.68874979 0.00173485279
vt 0.68874979 0.0702186823
vt 0.733176708 0.0702186823
vt 0.733176649 0.00173473358
vt 0.77583611 0.00173485279
vt 0.77583611 0.0702186823
vt 0.816409707 0.0345288515
vt 0.816409707 0.0702185631
vt 0.816409707 0.00173473358
vt 0.854578853 0.0702186823
vt 0.854578853 0.00173485279
vt 0.854578853 0.0345288515
vt 0.89002502 0.0702186823
vt 0.89002502 0.00173473358
vt 0.922494233 0.00167310238
vt 0.922487855 0.0344589949
vt 0.922482789 0.0701624155
vt 0.951707006 0.0342497826
vt 0.951732516 0.00148773193
vt 0.9516868 0.0699932575
vt 0.977485955 0.00111711025
vt 0.977422059 0.0338307619
vt 0.999372661 0.0331327915
vt 0.999500394 0.000499486923
vt 0.999221087 0.107540846
vt 0.951676667 0.107723594
vt 0.977346301 0.107654929
vt 0.977343678 0.149487019
vt 0.951675653 0.149200797
vt 0.99921608 0.149963856
vt 0.951682806 0.196184576
vt 0.999252081 0.197844625
vt 0.977361798 0.196807086
vt 0.977397978 0.251272321
vt 0.95169735 0.25043565
vt 0.951705813 0.724858522
vt 0.977419019 0.724470854
vt 0.999366522 0.723824978
vt 0.000499665737 0.917764187
vt 0.000499665737 0.958016276
vt 0.0226898789 0.998208642
vt 0.000499665737 0.998208642
vt 0.0485486686 0.998208642
vt 0.0485486388 0.958016276
vt 0.0226898789 0.875900209
vt 0.000499665737 0.875900269
vt 0.0485486388 0.917764127
vt 0.0778397322 0.958016276
vt 0.0778396726 0.998208642
vt 0.110326529 0.998208642
vt 0.0778396726 0.917764127
vt 0.0485486388 0.875900269
vt 0.145772666 0.958016217
vt 0.145772636 0.998208582
vt 0.183941782 0.998208582
vt 0.145772636 0.917764068
vt 0.183941782 0.958016157
vt 0.183941782 0.917764068
vt 0.224515349 0.958016157
vt 0.224515349 0.998208523
vt 0.26717484 0.998208523
vt 0.224515349 0.917764068
vt 0.26717484 0.958016157
vt 0.311601698 0.958016157
vt 0.311601728 0.998208523
vt 0.357477427 0.998208523
vt 0.357477427 0.958016157
vt 0.404439777 0.958016157
vt 0.404439777 0.998208523
vt 0.452126563 0.998208523
vt 0.452126563 0.958016098
vt 0.500175536 0.998208463
vt 0.452126563 0.917764008
vt 0.404439777 0.917764008
vt 0.548224568 0.998208463
vt 0.548224568 0.958016098
vt 0.500175536 0.917763948
vt 0.595911324 0.958016098
vt 0.595911324 0.998208463
vt 0.642873704 0.998208463
vt 0.642873704 0.958016098
vt 0.688749433 0.958016098
vt 0.688749433 0.998208463
vt 0.733176291 0.998208463
vt 0.733176291 0.958016038
vt 0.775835752 0.958016038
vt 0.775835752 0.998208463
vt 0.733176231 0.917763948
vt 0.816409349 0.998208404
vt 0.688749433 0.917763948
vt 0.816409349 0.958016038
vt 0.775835752 0.917763948
vt 0.854578495 0.958016038
vt 0.854578495 0.998208404
vt 0.890024722 0.998208404
vt 0.890024722 0.958016038
f 1/1 2/2 3/3
f 4/4 2/2 1/1
f 1/1 5/5 4/4
f 6/6 2/2 4/4
f 4/4 7/7 6/6
f 3/3 2/2 6/6
f 8/8 1/1 3/3
f 6/6 9/9 3/3
f 3/3 9/9 10/10
f 11/11 12/12 13/13
f 11/11 14/14 15/15
f 11/11 13/13 16/16
f 11/11 16/16 17/17
f 11/11 18/18 14/14
f 14/14 18/18 19/19
f 14/14 19/19 20/20
f 20/20 19/19 21/21
f 21/21 22/22 20/20
f 23/23 22/22 21/21
f 21/21 24/24 23/23
f 23/23 24/24 25/25
f 25/25 26/26 23/23
f 27/27 26/26 25/25
f 25/25 28/28 27/27
f 27/27 28/28 29/29
f 30/30 31/31 32/32
f 32/32 33/33 30/30
f 34/34 33/33 32/32
f 32/32 31/31 35/35
f 36/36 34/34 32/32
f 32/32 37/37 36/36
f 32/32 35/35 38/38
f 37/37 32/32 38/38
f 39/39 36/36 37/37
f 38/38 35/35 40/40
f 37/37 41/41 39/39
f 38/38 42/42 37/37
f 39/39 41/41 43/43
f 43/43 44/44 39/39
f 45/45 41/41 37/37
f 37/37 42/42 45/45
f 43/43 41/41 45/45
f 46/46 42/42 38/38
f 45/45 42/42 46/46
f 47/47 44/44 43/43
f 45/45 48/48 43/43
f 43/43 49/49 47/47
f 50/50 49/49 43/43
f 51/51 48/48 45/45
f 43/43 52/52 50/50
f 53/53 54/54 43/43
f 48/48 55/55 43/43
f 43/43 55/55 53/53
f 56/56 54/54 53/53
f 51/51 55/55 48/48
f 53/53 55/55 51/51
f 53/53 51/51 56/56
f 56/56 51/51 57/57
f 57/57 58/58 56/56
f 59/59 58/58 57/57
f 57/57 60/60 59/59
f 51/51 61/61 57/57
f 57/57 61/61 62/62
f 62/62 60/60 57/57
f 59/59 60/60 63/63
f 63/63 60/60 62/62
f 63/63 64/64 59/59
f 65/65 64/64 63/63
f 51/51 66/66 61/61
f 63/63 67/67 65/65
f 62/62 68/68 63/63
f 65/65 67/67 69/69
f 69/69 70/70 65/65
f 71/71 67/67 63/63
f 63/63 68/68 71/71
f 69/69 67/67 71/71
f 72/72 70/70 69/69
f 73/73 62/62 61/61
f 61/61 66/66 73/73
f 68/68 62/62 73/73
f 68/68 74/74 71/71
f 69/69 75/75 72/72
f 71/71 76/76 69/69
f 72/72 75/75 77/77
f 77/77 78/78 72/72
f 79/79 75/75 69/69
f 69/69 76/76 79/79
f 77/77 75/75 79/79
f 80/80 76/76 71/71
f 71/71 74/74 80/80
f 79/79 76/76 80/80
f 81/81 78/78 77/77
f 77/77 82/82 81/81
f 81/81 82/82 83/83
f 79/79 84/84 77/77
f 85/85 82/82 77/77
f 83/83 82/82 85/85
f 77/77 84/84 85/85
f 79/79 86/86 84/84
f 80/80 86/86 79/79
f 85/85 87/87 83/83
f 84/84 87/87 85/85
f 87/87 88/88 83/83
f 84/84 86/86 89/89
f 89/89 86/86 80/80
f 84/84 90/90 87/87
f 89/89 90/90 84/84
f 91/91 88/88 87/87
f 87/87 92/92 91/91
f 87/87 90/90 93/93
f 93/93 92/92 87/87
f 93/93 90/90 89/89
f 91/91 92/92 94/94
f 94/94 92/92 93/93
f 89/89 95/95 93/93
f 94/94 96/96 91/91
f 91/91 96/96 97/97
f 93/93 98/98 94/94
f 93/93 95/95 99/99
f 99/99 98/98 93/93
f 100/100 95/95 89/89
f 99/99 95/95 100/100
f 89/89 101/101 100/100
f 80/80 101/101 89/89
f 102/102 101/101 80/80
f 100/100 101/101 102/102
f 80/80 74/74 102/102
f 102/102 74/74 68/68
f 68/68 103/103 102/102
f 73/73 103/103 68/68
f 102/102 104/104 100/100
f 102/102 103/103 105/105
f 105/105 104/104 102/102
f 105/105 103/103 73/73
f 100/100 104/104 106/106
f 106/106 104/104 105/105
f 73/73 107/107 105/105
f 108/108 109/109 110/110
f 110/110 111/111 108/108
f 112/112 111/111 110/110
f 110/110 113/113 112/112
f 112/112 113/113 114/114
f 114/114 115/115 112/112
f 112/112 115/115 116/116
f 108/108 111/111 117/117
f 117/117 111/111 112/112
f 116/116 118/118 112/112
f 112/112 118/118 117/117
f 118/118 116/116 119/119
f 118/118 120/120 117/117
f 121/121 108/108 117/117
f 117/117 120/120 121/121
f 122/122 108/108 121/121
f 119/119 123/123 118/118
f 124/124 120/120 118/118
f 118/118 123/123 124/124
f 121/121 120/120 124/124
f 125/125 123/123 119/119
f 124/124 123/123 125/125
f 125/125 119/119 126/126
f 121/121 127/127 122/122
f 125/125 128/128 124/124
f 124/124 129/129 121/121
f 126/126 130/130 125/125
f 124/124 128/128 131/131
f 131/131 129/129 124/124
f 132/132 128/128 125/125
f 125/125 130/130 132/132
f 131/131 128/128 132/132
f 133/133 130/130 126/126
f 126/126 134/134 133/133
f 121/121 129/129 135/135
f 135/135 127/127 121/121
f 135/135 129/129 131/131
f 133/133 134/134 136/136
f 122/122 127/127 137/137
f 137/137 127/127 135/135
f 137/137 138/138 139/139
f 139/139 138/138 140/140
f 135/135 141/141 137/137
f 142/142 138/138 137/137
f 137/137 141/141 142/142
f 140/140 138/138 142/142
f 143/143 141/141 135/135
f 142/142 141/141 143/143
f 135/135 144/144 143/143
f 131/131 144/144 135/135
f 143/143 145/145 142/142
f 146/146 144/144 131/131
f 143/143 144/144 146/146
f 147/147 148/148 140/140
f 149/149 140/140 142/142
f 142/142 145/145 149/149
f 147/147 140/140 149/149
f 150/150 145/145 143/143
f 149/149 145/145 150/150
f 143/143 151/151 150/150
f 146/146 151/151 143/143
f 150/150 152/152 149/149
f 153/153 148/148 147/147
f 154/154 150/150 151/151
f 152/152 150/150 154/154
f 151/151 155/155 154/154
f 155/155 151/151 146/146
f 154/154 156/156 152/152
f 147/147 157/157 153/153
f 158/158 154/154 155/155
f 156/156 154/154 158/158
f 146/146 159/159 155/155
f 149/149 160/160 147/147
f 149/149 152/152 161/161
f 161/161 160/160 149/149
f 161/161 152/152 156/156
f 147/147 160/160 162/162
f 162/162 157/157 147/147
f 162/162 160/160 161/161
f 163/163 164/164 165/165
f 166/166 164/164 163/163
f 163/163 167/167 166/166
f 166/166 167/167 168/168
f 168/168 169/169 166/166
f 168/168 167/167 170/170
f 170/170 167/167 163/163
f 170/170 171/171 168/168
f 172/172 173/173 163/163
f 163/163 173/173 170/170
f 174/174 171/171 170/170
f 175/175 173/173 172/172
f 170/170 173/173 175/175
f 175/175 174/174 170/170
f 176/176 174/174 175/175
f 177/177 178/178 176/176
f 179/179 178/178 177/177
f 180/180 181/181 179/179
f 182/182 181/181 180/180
f 105/105 183/183 106/106
f 105/105 107/107 184/184
f 184/184 183/183 105/105
f 185/185 107/107 73/73
f 184/184 107/107 185/185
f 73/73 66/66 185/185
f 185/185 66/66 51/51
f 51/51 186/186 185/185
f 45/45 186/186 51/51
f 46/46 186/186 45/45
f 185/185 186/186 46/46
f 185/185 187/187 184/184
f 46/46 187/187 185/185
f 188/188 184/184 187/187
f 184/184 188/188 183/183
f 40/40 46/46 38/38
f 46/46 189/189 187/187
f 187/187 189/189 188/188
f 189/189 46/46 40/40
f 40/40 190/190 189/189
f 191/191 188/188 189/189
f 189/189 190/190 191/191
f 183/183 188/188 191/191
f 192/192 190/190 40/40
f 191/191 190/190 192/192
f 191/191 193/193 183/183
f 194/194 40/40 35/35
f 192/192 40/40 194/194
f 194/194 195/195 192/192
f 192/192 195/195 196/196
f 192/192 197/197 191/191
f 196/196 197/197 192/192
f 191/191 197/197 198/198
f 198/198 197/197 196/196
f 198/198 193/193 191/191
f 199/199 193/193 198/198
f 183/183 193/193 199/199
f 200/200 201/201 198/198
f 198/198 201/201 199/199
f 202/202 201/201 200/200
f 199/199 201/201 202/202
f 200/200 203/203 202/202
f 204/204 203/203 200/200
f 205/205 203/203 204/204
f 202/202 203/203 205/205
f 204/204 206/206 205/205
f 205/205 206/206 207/207
f 207/207 208/208 205/205
f 209/209 208/208 207/207
f 205/205 210/210 202/202
f 205/205 208/208 211/211
f 211/211 210/210 205/205
f 211/211 208/208 209/209
f 202/202 210/210 212/212
f 212/212 210/210 211/211
f 202/202 213/213 199/199
f 212/212 213/213 202/202
f 199/199 213/213 214/214
f 214/214 213/213 212/212
f 209/209 215/215 211/211
f 214/214 216/216 199/199
f 199/199 216/216 183/183
f 183/183 216/216 106/106
f 100/100 106/106 216/216
f 216/216 214/214 100/100
f 100/100 214/214 217/217
f 212/212 217/217 214/214
f 217/217 99/99 100/100
f 99/99 217/217 218/218
f 218/218 217/217 212/212
f 218/218 98/98 99/99
f 94/94 98/98 218/218
f 212/212 219/219 218/218
f 211/211 219/219 212/212
f 218/218 220/220 94/94
f 96/96 94/94 220/220
f 218/218 219/219 221/221
f 221/221 219/219 211/211
f 221/221 220/220 218/218
f 211/211 215/215 221/221
f 220/220 222/222 96/96
f 222/222 220/220 221/221
f 96/96 222/222 97/97
f 223/223 97/97 224/224
f 224/224 97/97 222/222
f 221/221 225/225 222/222
f 222/222 225/225 224/224
f 226/226 225/225 221/221
f 224/224 225/225 226/226
f 221/221 215/215 226/226
f 226/226 227/227 224/224
f 226/226 215/215 209/209
f 228/228 227/227 226/226
f 209/209 229/229 226/226
f 226/226 229/229 228/228
f 230/230 231/231 232/232
f 232/232 233/233 230/230
f 234/234 233/233 232/232
f 235/235 231/231 230/230
f 230/230 236/236 235/235
f 235/235 236/236 237/237
f 237/237 238/238 235/235
f 239/239 234/234 232/232
f 240/240 234/234 239/239
f 239/239 241/241 240/240
f 240/240 241/241 242/242
f 240/240 242/242 243/243
f 243/243 242/242 244/244
f 244/244 245/245 243/243
f 246/246 245/245 244/244
f 244/244 247/247 246/246
f 246/246 247/247 248/248
f 247/247 249/249 248/248
f 248/248 249/249 250/250
f 248/248 250/250 15/15
f 15/15 250/250 251/251
f 15/15 251/251 11/11
f 11/11 251/251 12/12
f 156/156 252/252 161/161
f 253/253 157/157 162/162
f 153/153 157/157 253/253
f 253/253 254/254 153/153
f 255/255 254/254 253/253
f 255/255 256/256 254/254
f 257/257 256/256 255/255
f 255/255 258/258 257/257
f 257/257 258/258 228/228
f 253/253 259/259 255/255
f 260/260 258/258 255/255
f 255/255 259/259 260/260
f 228/228 258/258 260/260
f 261/261 259/259 253/253
f 260/260 259/259 261/261
f 162/162 262/262 253/253
f 253/253 262/262 261/261
f 260/260 227/227 228/228
f 263/263 262/262 162/162
f 261/261 262/262 263/263
f 261/261 264/264 260/260
f 162/162 265/265 263/263
f 161/161 265/265 162/162
f 263/263 266/266 261/261
f 267/267 263/263 265/265
f 266/266 263/263 267/267
f 161/161 252/252 265/265
f 223/223 264/264 261/261
f 261/261 266/266 223/223
f 260/260 264/264 224/224
f 224/224 227/227 260/260
f 224/224 264/264 223/223
f 265/265 252/252 268/268
f 268/268 252/252 156/156
f 156/156 269/269 268/268
f 158/158 269/269 156/156
f 268/268 270/270 265/265
f 265/265 270/270 271/271
f 271/271 267/267 265/265
f 272/272 270/270 268/268
f 271/271 270/270 272/272
f 268/268 269/269 273/273
f 273/273 269/269 158/158
f 268/268 274/274 272/272
f 273/273 274/274 268/268
f 275/275 267/267 271/271
f 267/267 275/275 266/266
f 223/223 266/266 275/275
f 275/275 276/276 223/223
f 277/277 276/276 275/275
f 223/223 276/276 97/97
f 97/97 276/276 277/277
f 278/278 275/275 271/271
f 277/277 275/275 278/278
f 271/271 279/279 278/278
f 272/272 279/279 271/271
f 278/278 280/280 277/277
f 272/272 281/281 279/279
f 282/282 281/281 272/272
f 272/272 274/274 282/282
f 282/282 274/274 273/273
f 277/277 280/280 283/283
f 283/283 284/284 277/277
f 277/277 284/284 97/97
f 97/97 284/284 91/91
f 91/91 284/284 283/283
f 273/273 285/285 282/282
f 286/286 280/280 278/278
f 283/283 280/280 286/286
f 278/278 287/287 286/286
f 279/279 287/287 278/278
f 286/286 288/288 283/283
f 289/289 287/287 279/279
f 286/286 287/287 289/289
f 279/279 290/290 289/289
f 291/291 290/290 279/279
f 279/279 281/281 291/291
f 291/291 281/281 282/282
f 283/283 288/288 83/83
f 83/83 88/88 283/283
f 283/283 88/88 91/91
f 286/286 292/292 288/288
f 289/289 292/292 286/286
f 289/289 293/293 292/292
f 290/290 293/293 289/289
f 294/294 293/293 290/290
f 292/292 293/293 294/294
f 290/290 295/295 294/294
f 294/294 296/296 292/292
f 297/297 295/295 290/290
f 292/292 296/296 298/298
f 290/290 299/299 297/297
f 291/291 299/299 290/290
f 292/292 298/298 288/288
f 288/288 298/298 83/83
f 298/298 300/300 83/83
f 297/297 299/299 301/301
f 301/301 299/299 291/291
f 301/301 302/302 297/297
f 83/83 300/300 81/81
f 303/303 302/302 301/301
f 291/291 304/304 301/301
f 282/282 304/304 291/291
f 301/301 305/305 303/303
f 285/285 304/304 282/282
f 301/301 304/304 285/285
f 285/285 305/305 301/301
f 303/303 305/305 306/306
f 306/306 305/305 285/285
f 306/306 307/307 303/303
f 308/308 307/307 306/306
f 285/285 309/309 306/306
f 310/310 309/309 285/285
f 310/310 285/285 273/273
f 306/306 309/309 311/311
f 311/311 309/309 310/310
f 306/306 311/311 308/308
f 308/308 311/311 312/312
f 312/312 313/313 308/308
f 273/273 314/314 310/310
f 158/158 314/314 273/273
f 315/315 313/313 312/312
f 311/311 314/314 158/158
f 310/310 314/314 311/311
f 312/312 316/316 315/315
f 311/311 317/317 312/312
f 318/318 317/317 311/311
f 312/312 317/317 319/319
f 319/319 316/316 312/312
f 319/319 317/317 318/318
f 315/315 316/316 320/320
f 320/320 316/316 319/319
f 320/320 321/321 315/315
f 322/322 321/321 320/320
f 311/311 323/323 318/318
f 320/320 324/324 322/322
f 322/322 324/324 325/325
f 325/325 326/326 322/322
f 325/325 324/324 327/327
f 327/327 324/324 320/320
f 327/327 328/328 325/325
f 320/320 329/329 327/327
f 319/319 329/329 320/320
f 327/327 330/330 328/328
f 327/327 329/329 331/331
f 331/331 329/329 319/319
f 331/331 330/330 327/327
f 328/328 330/330 332/332
f 332/332 330/330 331/331
f 319/319 333/333 331/331
f 318/318 333/333 319/319
f 136/136 328/328 332/332
f 334/334 333/333 318/318
f 331/331 333/333 334/334
f 318/318 323/323 334/334
f 332/332 335/335 136/136
f 136/136 335/335 133/133
f 331/331 335/335 332/332
f 133/133 335/335 331/331
f 334/334 323/323 336/336
f 336/336 323/323 311/311
f 331/331 334/334 337/337
f 337/337 334/334 336/336
f 331/331 338/338 133/133
f 337/337 338/338 331/331
f 130/130 133/133 338/338
f 338/338 132/132 130/130
f 311/311 339/339 336/336
f 158/158 339/339 311/311
f 155/155 339/339 158/158
f 336/336 339/339 155/155
f 155/155 159/159 336/336
f 336/336 159/159 337/337
f 337/337 159/159 146/146
f 337/337 132/132 338/338
f 132/132 337/337 131/131
f 131/131 337/337 146/146
f 340/340 238/238 237/237
f 340/340 341/341 238/238
f 342/342 341/341 340/340
f 343/343 342/342 340/340
f 344/344 342/342 343/343
f 344/344 345/345 342/342
f 346/346 345/345 344/344
f 347/347 346/346 344/344
f 348/348 346/346 347/347
f 347/347 349/349 348/348
f 348/348 349/349 350/350
f 350/350 351/351 348/348
f 352/352 351/351 350/350
f 350/350 353/353 352/352
f 352/352 353/353 354/354
f 354/354 355/355 352/352
f 356/356 355/355 354/354
f 354/354 357/357 356/356
f 356/356 358/358 355/355
f 356/356 357/357 359/359
f 360/360 358/358 356/356
f 359/359 360/360 356/356
f 361/361 360/360 359/359
f 359/359 362/362 361/361
f 361/361 363/363 360/360
f 364/364 363/363 361/361
f 361/361 362/362 365/365
f 361/361 366/366 364/364
f 365/365 366/366 361/361
f 364/364 366/366 367/367
f 367/367 366/366 365/365
f 367/367 368/368 364/364
f 369/369 368/368 367/367
f 367/367 370/370 369/369
f 371/371 367/367 365/365
f 370/370 367/367 371/371
f 365/365 372/372 371/371
f 371/371 373/373 370/370
f 374/374 375/375 376/376
f 377/377 375/375 374/374
f 177/177 378/378 379/379
f 380/380 378/378 177/177
f 381/381 382/382 380/380
f 383/383 380/380 177/177
f 381/381 380/380 383/383
f 384/384 382/382 381/381
f 381/381 385/385 384/384
f 383/383 386/386 381/381
f 384/384 385/385 387/387
f 387/387 388/388 384/384
f 389/389 388/388 387/387
f 387/387 390/390 389/389
f 391/391 390/390 387/387
f 392/392 385/385 381/381
f 381/381 386/386 392/392
f 387/387 385/385 392/392
f 387/387 393/393 391/391
f 392/392 393/393 387/387
f 391/391 393/393 394/394
f 394/394 393/393 392/392
f 394/394 395/395 391/391
f 396/396 395/395 394/394
f 392/392 397/397 394/394
f 392/392 386/386 398/398
f 398/398 397/397 392/392
f 398/398 386/386 383/383
f 394/394 397/397 399/399
f 399/399 397/397 398/398
f 383/383 400/400 398/398
f 394/394 401/401 396/396
f 177/177 400/400 383/383
f 165/165 401/401 394/394
f 394/394 163/163 165/165
f 398/398 402/402 399/399
f 394/394 399/399 172/172
f 172/172 163/163 394/394
f 402/402 175/175 399/399
f 172/172 399/399 175/175
f 176/176 402/402 398/398
f 398/398 400/400 176/176
f 175/175 402/402 176/176
f 176/176 400/400 177/177
f 182/182 377/377 374/374
f 180/180 377/377 182/182
f 403/403 404/404 405/405
f 406/406 407/407 408/408
f 409/409 407/407 406/406
f 405/405 404/404 410/410
f 410/410 411/411 405/405
f 412/412 408/408 413/413
f 414/414 411/411 410/410
f 406/406 408/408 412/412
f 415/415 409/409 406/406
f 403/403 409/409 415/415
f 416/416 417/417 418/418
f 419/419 417/417 416/416
f 420/420 421/421 418/418
f 419/419 422/422 417/417
f 418/418 423/423 420/420
f 417/417 423/423 418/418
f 424/424 425/425 422/422
f 414/414 426/426 425/425
f 414/414 425/425 424/424
f 410/410 426/426 414/414
f 403/403 427/427 404/404
f 415/415 427/427 403/403
f 422/422 419/419 424/424
f 413/413 376/376 412/412
f 374/374 376/376 413/413
f 179/179 379/379 180/180
f 177/177 379/379 179/179
f 28/28 428/428 29/29
f 29/29 428/428 429/429
f 429/429 430/430 29/29
f 431/431 430/430 429/429
f 431/431 432/432 430/430
f 433/433 432/432 431/431
f 431/431 434/434 433/433
f 433/433 434/434 435/435
f 434/434 436/436 435/435
f 435/435 436/436 437/437
f 435/435 437/437 438/438
f 438/438 437/437 439/439
f 439/439 440/440 438/438
f 441/441 440/440 439/439
f 442/442 441/441 439/439
f 443/443 441/441 442/442
f 442/442 444/444 443/443
f 443/443 444/444 445/445
f 445/445 446/446 443/443
f 447/447 446/446 445/445
f 445/445 448/448 447/447
f 447/447 448/448 449/449
f 447/447 449/449 450/450
f 450/450 449/449 451/451
f 451/451 452/452 450/450
f 449/449 453/453 451/451
f 454/454 452/452 451/451
f 451/451 453/453 455/455
f 451/451 456/456 454/454
f 455/455 456/456 451/451
f 454/454 456/456 457/457
f 457/457 456/456 455/455
f 455/455 458/458 457/457
f 457/457 458/458 459/459
f 457/457 460/460 461/461
f 459/459 460/460 457/457
f 461/461 460/460 462/462
f 462/462 460/460 459/459
f 459/459 463/463 462/462
f 462/462 464/464 461/461
f 462/462 463/463 465/465
f 466/466 464/464 462/462
f 465/465 466/466 462/462
f 467/467 466/466 465/465
f 465/465 468/468 467/467
f 467/467 469/469 466/466
f 470/470 464/464 466/466
f 466/466 471/471 470/470
f 469/469 471/471 466/466
f 470/470 471/471 472/472
f 472/472 471/471 469/469
f 472/472 473/473 470/470
f 469/469 474/474 472/472
f 475/475 473/473 472/472
f 472/472 474/474 476/476
f 472/472 477/477 475/475
f 476/476 477/477 472/472
f 475/475 477/477 478/478
f 478/478 477/477 476/476
f 478/478 479/479 475/475
f 480/480 479/479 478/478
f 478/478 481/481 480/480
f 481/481 478/478 476/476
f 476/476 482/482 481/481
f 483/483 484/484 485/485
f 485/485 484/484 486/486
f 487/487 488/488 485/485
f 483/483 485/485 489/489
f 489/489 490/490 483/483
f 485/485 488/488 491/491
f 489/489 485/485 491/491
f 492/492 488/488 487/487
f 491/491 488/488 492/492
f 487/487 493/493 492/492
f 30/30 490/490 489/489
f 492/492 493/493 494/494
f 489/489 31/31 30/30
f 492/492 495/495 491/491
f 491/491 496/496 489/489
f 491/491 495/495 194/194
f 194/194 496/496 491/491
f 195/195 495/495 492/492
f 492/492 494/494 195/195
f 194/194 495/495 195/195
f 195/195 494/494 497/497
f 494/494 498/498 497/497
f 489/489 496/496 35/35
f 35/35 31/31 489/489
f 35/35 496/496 194/194
f 497/497 498/498 499/499
f 497/497 500/500 195/195
f 499/499 501/501 497/497
f 195/195 500/500 196/196
f 502/502 500/500 497/497
f 497/497 501/501 502/502
f 196/196 500/500 502/502
f 503/503 501/501 499/499
f 502/502 501/501 503/503
f 499/499 504/504 503/503
f 503/503 504/504 505/505
f 503/503 506/506 502/502
f 505/505 507/507 503/503
f 204/204 506/506 503/503
f 503/503 507/507 204/204
f 508/508 507/507 505/505
f 204/204 507/507 508/508
f 505/505 509/509 508/508
f 508/508 509/509 510/510
f 502/502 506/506 200/200
f 200/200 506/506 204/204
f 508/508 206/206 204/204
f 200/200 198/198 502/502
f 502/502 198/198 196/196
f 510/510 511/511 508/508
f 207/207 206/206 508/508
f 508/508 511/511 207/207
f 512/512 511/511 510/510
f 207/207 511/511 512/512
f 510/510 513/513 512/512
f 512/512 513/513 514/514
f 514/514 515/515 512/512
f 516/516 515/515 514/514
f 512/512 515/515 517/517
f 517/517 515/515 516/516
f 517/517 518/518 512/512
f 512/512 518/518 207/207
f 519/519 520/520 516/516
f 207/207 518/518 209/209
f 209/209 518/518 517/517
f 516/516 521/521 517/517
f 522/522 520/520 519/519
f 519/519 523/523 522/522
f 516/516 520/520 257/257
f 257/257 521/521 516/516
f 257/257 520/520 522/522
f 522/522 523/523 524/524
f 524/524 525/525 522/522
f 517/517 521/521 228/228
f 228/228 521/521 257/257
f 522/522 256/256 257/257
f 228/228 229/229 517/517
f 517/517 229/229 209/209
f 526/526 525/525 524/524
f 524/524 527/527 526/526
f 522/522 525/525 254/254
f 254/254 256/256 522/522
f 254/254 525/525 526/526
f 526/526 527/527 528/528
f 528/528 529/529 526/526
f 530/530 529/529 528/528
f 528/528 531/531 530/530
f 526/526 529/529 532/532
f 532/532 529/529 530/530
f 530/530 531/531 533/533
f 532/532 534/534 526/526
f 526/526 534/534 254/254
f 533/533 535/535 530/530
f 254/254 534/534 153/153
f 153/153 534/534 532/532
f 530/530 536/536 532/532
f 537/537 535/535 533/533
f 533/533 538/538 537/537
f 530/530 535/535 139/139
f 139/139 536/536 530/530
f 139/139 535/535 537/537
f 537/537 538/538 539/539
f 539/539 540/540 537/537
f 532/532 536/536 140/140
f 140/140 536/536 139/139
f 537/537 137/137 139/139
f 140/140 148/148 532/532
f 532/532 148/148 153/153
f 108/108 540/540 539/539
f 539/539 109/109 108/108
f 537/537 540/540 122/122
f 122/122 137/137 537/537
f 122/122 540/540 108/108
