v 0.200000003 -0.100000001 -2.22044608e-17
v 0.200000003 0.100000001 2.22044608e-17
v 0.200000003 0.100000001 0.00999999978
v 0.200000003 -0.100000001 0.00999999978
v -0.200000003 0.100000001 2.22044608e-17
v -0.200000003 -0.100000001 -2.22044608e-17
v -0.200000003 -0.100000001 0.00999999978
v -0.200000003 0.100000001 0.00999999978
v -0.200000003 -0.100000001 -2.22044608e-17
v 0.200000003 -0.100000001 -2.22044608e-17
v 0.200000003 -0.100000001 0.00999999978
v -0.200000003 -0.100000001 0.00999999978
v 0.200000003 0.100000001 2.22044608e-17
v -0.200000003 0.100000001 2.22044608e-17
v -0.200000003 0.100000001 0.00999999978
v 0.200000003 0.100000001 0.00999999978
v -0.200000003 -0.100000001 -2.22044608e-17
v -0.200000003 0.100000001 2.22044608e-17
v 0.200000003 0.100000001 2.22044608e-17
v 0.200000003 -0.100000001 -2.22044608e-17
v -0.200000003 -0.100000001 0.00999999978
v 0.200000003 -0.100000001 0.00999999978
v 0.200000003 0.100000001 0.00999999978
v -0.200000003 0.100000001 0.00999999978
vt 0.000499550253 0.999500453
vt 0.999500215 0.999500453
vt 0.999500215 0.000499427319
vt 0.000499550253 0.000499427319
vt 0.000499550253 0.999500453
vt 0.999500215 0.999500453
vt 0.999500215 0.000499427319
vt 0.000499550253 0.000499427319
vt 0.000499550253 0.999500453
vt 0.999500215 0.999500453
vt 0.999500215 0.000499427319
vt 0.000499550253 0.000499427319
vt 0.000499550253 0.999500453
vt 0.999500215 0.999500453
vt 0.999500215 0.000499427319
vt 0.000499550253 0.000499427319
vt 0.999500453 0.999500215
vt 0.999500215 0.000499546528
vt 0.000499550253 0.000499784946
vt 0.000499792397 0.999500453
vt 0.000499550253 0.999500215
vt 0.999500215 0.999500453
vt 0.999500453 0.000499784946
vt 0.000499792397 0.000499546528
f 1/1 2/2 3/3
f 3/3 4/4 1/1
f 5/5 6/6 7/7
f 7/7 8/8 5/5
f 9/9 10/10 11/11
f 11/11 12/12 9/9
f 13/13 14/14 15/15
f 15/15 16/16 13/13
f 17/17 18/18 19/19
f 19/19 20/20 17/17
f 21/21 22/22 23/23
f 23/23 24/24 21/21
