v -0.694910705 -0.304480553 0.721753061
v -0.694910705 -0.304480553 0.736296952
v -0.745325744 -0.304480553 0.736296952
v -0.745325744 -0.304480553 0.721753061
v 0.694910526 -0.304480523 0.721753061
v 0.745325446 -0.304480523 0.721753061
v 0.745325446 -0.304480553 0.736296952
v 0.694910526 -0.304480553 0.736296952
v -0.694910705 -0.304480523 0.546728015
v -0.694910705 -0.304480523 0.561271906
v -0.745325744 -0.304480523 0.561271906
v -0.745325744 -0.304480523 0.546728015
v -0.228823468 -0.304480553 0.721753061
v -0.228823468 -0.304480553 0.736296952
v -0.279238433 -0.304480553 0.736296952
v -0.279238433 -0.304480553 0.721753061
v 0.228823528 -0.304480523 0.721753061
v 0.279238462 -0.304480523 0.721753061
v 0.279238462 -0.304480553 0.736296952
v 0.228823528 -0.304480553 0.736296952
v -0.228823468 -0.304480523 0.546728015
v -0.228823468 -0.304480523 0.561271906
v -0.279238433 -0.304480523 0.561271906
v -0.279238433 -0.304480523 0.546728015
v 0.228823528 -0.304480523 0.546728015
v 0.279238462 -0.304480523 0.546728015
v 0.279238462 -0.304480523 0.561271906
v 0.228823528 -0.304480523 0.561271906
vt 0.999502182 0.144601762
vt 0.999502182 0.0142839551
vt 0.000499725342 0.0142838955
vt 0.000499725342 0.144601703
vt -0.0207579136 1.00872707
vt 0.978242397 1.00872707
vt 0.978242397 0.878409147
vt -0.020757854 0.878409028
vt 0.999502182 0.270669699
vt 0.999502182 0.140351772
vt 0.000499725342 0.140351653
vt 0.000499725342 0.270669639
vt 0.985985756 0.411143839
vt 0.985985756 0.280826032
vt -0.0130147934 0.280825913
vt -0.0130147934 0.41114372
vt -0.0207577944 0.680168748
vt 0.978242517 0.680168867
vt 0.978242636 0.549850881
vt -0.0207577348 0.549850762
vt 0.985985756 0.533672452
vt 0.985985756 0.403354526
vt -0.0130147934 0.403354406
vt -0.0130147934 0.533672333
vt -0.020757854 0.834500909
vt 0.978242457 0.834501028
vt 0.978242517 0.704183042
vt -0.0207577944 0.704182923
f 1/1 2/2 3/3
f 3/3 4/4 1/1
f 5/5 6/6 7/7
f 7/7 8/8 5/5
f 9/9 10/10 11/11
f 11/11 12/12 9/9
f 13/13 14/14 15/15
f 15/15 16/16 13/13
f 17/17 18/18 19/19
f 19/19 20/20 17/17
f 21/21 22/22 23/23
f 23/23 24/24 21/21
f 25/25 26/26 27/27
f 27/27 28/28 25/25
