v 0.94072485 -0.283161253 0.678426147
v 0.94072485 -0.283161253 0.775434136
v 0.94072485 -0.30140245 0.775434136
v 0.94072485 -0.30140245 0.678426147
v -0.940725207 -0.283161223 0.678426147
v -0.940725207 -0.30140245 0.678426147
v -0.940725088 -0.30140245 0.775434136
v -0.940725088 -0.283161223 0.775434136
v 0.94072485 -0.283161253 0.775434136
v 0.938624799 -0.283161253 0.777534127
v 0.938624799 -0.30140245 0.777534127
v 0.94072485 -0.30140245 0.775434136
v 0.94072485 -0.30140245 0.678426147
v 0.938624859 -0.30140245 0.676326156
v 0.938624859 -0.283161253 0.676326156
v 0.94072485 -0.283161253 0.678426147
v -0.940725088 -0.283161223 0.775434136
v -0.940725088 -0.30140245 0.775434136
v -0.938625157 -0.30140245 0.777534127
v -0.938625157 -0.283161223 0.777534127
v -0.940725207 -0.30140245 0.678426147
v -0.940725207 -0.283161223 0.678426147
v -0.938625157 -0.283161223 0.676326156
v -0.938625157 -0.30140245 0.676326156
v 0.94072485 -0.283161253 0.678426147
v 0.938624859 -0.281061232 0.678426147
v 0.938624799 -0.281061232 0.775434136
v 0.94072485 -0.283161253 0.775434136
v 0.94072485 -0.30140245 0.775434136
v 0.938624799 -0.30350244 0.775434136
v 0.938624859 -0.30350244 0.678426147
v 0.94072485 -0.30140245 0.678426147
v -0.940725207 -0.283161223 0.678426147
v -0.940725088 -0.283161223 0.775434136
v -0.938625157 -0.281061232 0.775434136
v -0.938625157 -0.281061232 0.775434136
v -0.938625157 -0.281061232 0.678426147
v -0.940725207 -0.283161223 0.678426147
v -0.940725088 -0.30140245 0.775434136
v -0.940725207 -0.30140245 0.678426147
v -0.938625157 -0.30350244 0.678426147
v -0.938625157 -0.30350244 0.678426147
v -0.938625157 -0.30350244 0.775434136
v -0.940725088 -0.30140245 0.775434136
v 0.938624859 -0.283161253 0.676326156
v 0.938624859 -0.281061232 0.678426147
v 0.94072485 -0.283161253 0.678426147
v 0.94072485 -0.30140245 0.678426147
v 0.938624859 -0.30350244 0.678426147
v 0.938624859 -0.30140245 0.676326156
v 0.938624799 -0.281061232 0.775434136
v 0.938624799 -0.283161253 0.777534127
v 0.94072485 -0.283161253 0.775434136
v 0.94072485 -0.30140245 0.775434136
v 0.938624799 -0.30140245 0.777534127
v 0.938624799 -0.30350244 0.775434136
v -0.938625157 -0.283161223 0.676326156
v -0.940725207 -0.283161223 0.678426147
v -0.938625157 -0.281061232 0.678426147
v -0.940725207 -0.30140245 0.678426147
v -0.938625157 -0.30140245 0.676326156
v -0.938625157 -0.30350244 0.678426147
v -0.938625157 -0.281061232 0.775434136
v -0.940725088 -0.283161223 0.775434136
v -0.938625157 -0.283161223 0.777534127
v -0.940725088 -0.30140245 0.775434136
v -0.938625157 -0.30350244 0.775434136
v -0.938625157 -0.30140245 0.777534127
v 0.938624859 -0.283161253 0.676326156
v 0.938624859 -0.30140245 0.676326156
v 0.499811977 -0.30140242 0.676326096
v 0.499811977 -0.283161223 0.676326096
v 0.938624799 -0.30140245 0.777534127
v 0.938624799 -0.283161253 0.777534127
v 0.499811977 -0.283161223 0.777534068
v 0.499811977 -0.30140242 0.777534068
v -0.938625157 -0.283161223 0.676326156
v -0.499812275 -0.283161223 0.676326096
v -0.499812275 -0.30140242 0.676326096
v -0.938625157 -0.30140245 0.676326156
v -0.938625157 -0.30140245 0.777534127
v -0.499812275 -0.30140242 0.777534068
v -0.499812275 -0.283161223 0.777534068
v -0.938625157 -0.283161223 0.777534127
v 0.938624859 -0.30140245 0.676326156
v 0.938624859 -0.30350244 0.678426147
v 0.499811977 -0.303502411 0.678426087
v 0.499811977 -0.30140242 0.676326096
v 0.499811977 -0.283161223 0.676326096
v 0.499811977 -0.281061232 0.678426087
v 0.938624859 -0.281061232 0.678426147
v 0.938624859 -0.283161253 0.676326156
v 0.938624799 -0.30350244 0.775434136
v 0.938624799 -0.30140245 0.777534127
v 0.499811977 -0.30140242 0.777534068
v 0.499811977 -0.303502411 0.775434077
v 0.938624799 -0.283161253 0.777534127
v 0.938624799 -0.281061232 0.775434136
v 0.499811977 -0.281061232 0.775434077
v 0.499811977 -0.283161223 0.777534068
v -0.938625157 -0.30140245 0.676326156
v -0.499812275 -0.30140242 0.676326096
v -0.499812275 -0.303502411 0.678426147
v -0.938625157 -0.30350244 0.678426147
v -0.499812275 -0.283161223 0.676326096
v -0.938625157 -0.283161223 0.676326156
v -0.938625157 -0.281061232 0.678426147
v -0.499812275 -0.281061202 0.678426147
v -0.938625157 -0.30350244 0.775434136
v -0.499812275 -0.303502411 0.775434077
v -0.499812275 -0.30140242 0.777534068
v -0.938625157 -0.30140245 0.777534127
v -0.938625157 -0.283161223 0.777534127
v -0.499812275 -0.283161223 0.777534068
v -0.499812275 -0.281061202 0.775434077
v -0.938625157 -0.281061232 0.775434136
v 0.938624859 -0.30350244 0.678426147
v 0.938624799 -0.30350244 0.775434136
v 0.499811977 -0.303502411 0.775434077
v 0.499811977 -0.303502411 0.678426087
v 0.938624799 -0.281061232 0.775434136
v 0.938624859 -0.281061232 0.678426147
v 0.499811977 -0.281061232 0.678426087
v 0.499811977 -0.281061232 0.775434077
v -0.938625157 -0.30350244 0.678426147
v -0.499812275 -0.303502411 0.678426147
v -0.499812275 -0.303502411 0.775434077
v -0.938625157 -0.30350244 0.775434136
v -0.938625157 -0.281061232 0.775434136
v -0.499812275 -0.281061202 0.775434077
v -0.499812275 -0.281061202 0.678426147
v -0.938625157 -0.281061232 0.678426147
v 0.499811977 -0.283161223 0.676326096
v 0.497711986 -0.283161223 0.678426087
v 0.499811977 -0.281061232 0.678426087
v 0.499811977 -0.303502411 0.678426087
v 0.497711986 -0.30140242 0.678426087
v 0.499811977 -0.30140242 0.676326096
v 0.499811977 -0.281061232 0.775434077
v 0.497711986 -0.283161223 0.775434077
v 0.499811977 -0.283161223 0.777534068
v 0.499811977 -0.30140242 0.777534068
v 0.497711986 -0.30140242 0.775434077
v 0.499811977 -0.303502411 0.775434077
v -0.499812275 -0.283161223 0.676326096
v -0.499812275 -0.281061202 0.678426147
v -0.497712344 -0.283161223 0.678426147
v -0.499812275 -0.303502411 0.678426147
v -0.499812275 -0.30140242 0.676326096
v -0.497712344 -0.30140242 0.678426147
v -0.499812275 -0.281061202 0.775434077
v -0.499812275 -0.283161223 0.777534068
v -0.497712374 -0.283161223 0.775434077
v -0.499812275 -0.30140242 0.777534068
v -0.499812275 -0.303502411 0.775434077
v -0.497712374 -0.30140242 0.775434077
v 0.497711986 -0.283161223 0.678426087
v 0.499811977 -0.283161223 0.676326096
v 0.499811977 -0.30140242 0.676326096
v 0.497711986 -0.30140242 0.678426087
v 0.497711986 -0.30140242 0.775434077
v 0.499811977 -0.30140242 0.777534068
v 0.499811977 -0.283161223 0.777534068
v 0.497711986 -0.283161223 0.775434077
v -0.497712344 -0.283161223 0.678426147
v -0.497712344 -0.30140242 0.678426147
v -0.499812275 -0.30140242 0.676326096
v -0.499812275 -0.283161223 0.676326096
v -0.497712374 -0.30140242 0.775434077
v -0.497712374 -0.283161223 0.775434077
v -0.499812275 -0.283161223 0.777534068
v -0.499812275 -0.30140242 0.777534068
v 0.497711986 -0.30140242 0.678426087
v 0.499811977 -0.303502411 0.678426087
v 0.499811977 -0.303502411 0.775434077
v 0.497711986 -0.30140242 0.775434077
v 0.497711986 -0.283161223 0.775434077
v 0.499811977 -0.281061232 0.775434077
v 0.499811977 -0.281061232 0.678426087
v 0.497711986 -0.283161223 0.678426087
v -0.497712344 -0.30140242 0.678426147
v -0.497712374 -0.30140242 0.775434077
v -0.499812275 -0.303502411 0.775434077
v -0.499812275 -0.303502411 0.678426147
v -0.497712374 -0.283161223 0.775434077
v -0.497712344 -0.283161223 0.678426147
v -0.499812275 -0.281061202 0.678426147
v -0.499812275 -0.281061202 0.775434077
v 0.497711986 -0.283161223 0.678426087
v 0.497711986 -0.30140242 0.678426087
v 0.497711986 -0.30140242 0.775434077
v 0.497711986 -0.283161223 0.775434077
v -0.497712344 -0.283161223 0.678426147
v -0.497712374 -0.283161223 0.775434077
v -0.497712374 -0.30140242 0.775434077
v -0.497712344 -0.30140242 0.678426147
vt 0.477197886 0.445500791
vt 0.477197945 0.554498553
vt 0.522800922 0.554498494
vt 0.522800922 0.445500791
vt 0.522800922 0.445501447
vt 0.477197886 0.445501447
vt 0.477197886 0.554499209
vt 0.522800922 0.554499209
vt 0.522802055 0.999500513
vt 0.522802055 0.998385429
vt 0.477199078 0.998385429
vt 0.477199078 0.999500513
vt 0.522800922 0.999500513
vt 0.522800922 0.998385429
vt 0.477197886 0.998385429
vt 0.477197886 0.999500513
vt 0.522800922 0.000499606133
vt 0.477197886 0.000499606133
vt 0.477197886 0.00161457062
vt 0.522800922 0.00161457062
vt 0.522802114 0.000499486923
vt 0.477199048 0.000499486923
vt 0.477199048 0.00161457062
vt 0.522802114 0.00161457062
vt 0.999500513 0.445500791
vt 0.998385429 0.445500791
vt 0.998385429 0.554498553
vt 0.999500513 0.554498553
vt 0.000499516726 0.554498494
vt 0.00161457062 0.554498494
vt 0.00161457062 0.445500791
vt 0.000499516726 0.445500791
vt 0.000499486923 0.445501447
vt 0.000499606133 0.554499209
vt 0.00161457062 0.554499209
vt 0.00161457062 0.554499209
vt 0.00161457062 0.445501447
vt 0.000499486923 0.445501447
vt 0.999500394 0.554499209
vt 0.999500513 0.445501447
vt 0.998385429 0.445501447
vt 0.998385429 0.445501447
vt 0.998385429 0.554499209
vt 0.999500394 0.554499209
vt 0.998385429 0.443141222
vt 0.998385429 0.445500791
vt 0.999500513 0.445500791
vt 0.000499516726 0.445500791
vt 0.00161457062 0.445500791
vt 0.00161457062 0.443141222
vt 0.998385429 0.554498553
vt 0.998385429 0.556858063
vt 0.999500513 0.554498553
vt 0.000499516726 0.554498494
vt 0.00161457062 0.556858063
vt 0.00161457062 0.554498494
vt 0.00161457062 0.443141937
vt 0.000499486923 0.445501447
vt 0.00161457062 0.445501447
vt 0.999500513 0.445501447
vt 0.998385429 0.443141937
vt 0.998385429 0.445501447
vt 0.00161457062 0.554499209
vt 0.000499606133 0.554499209
vt 0.00161457062 0.556858778
vt 0.999500394 0.554499209
vt 0.998385429 0.554499209
vt 0.998385429 0.556858778
vt 0.477197886 0.998385429
vt 0.522800922 0.998385429
vt 0.522801101 0.765387237
vt 0.477198094 0.765387237
vt 0.477199078 0.998385429
vt 0.522802055 0.998385429
vt 0.522801876 0.765387237
vt 0.477198839 0.765387237
vt 0.477199048 0.00161457062
vt 0.47719872 0.234612823
vt 0.522801757 0.234612823
vt 0.522802114 0.00161457062
vt 0.477197886 0.00161457062
vt 0.477198184 0.234612823
vt 0.52280128 0.234612823
vt 0.522800922 0.00161457062
vt 0.00161457062 0.443141222
vt 0.00161457062 0.445500791
vt 0.234612763 0.44550091
vt 0.234612763 0.443141341
vt 0.765387237 0.443141341
vt 0.765387237 0.44550091
vt 0.998385429 0.445500791
vt 0.998385429 0.443141222
vt 0.00161457062 0.554498494
vt 0.00161457062 0.556858063
vt 0.234612763 0.556858182
vt 0.234612763 0.554498613
vt 0.998385429 0.556858063
vt 0.998385429 0.554498553
vt 0.765387237 0.554498613
vt 0.765387237 0.556858182
vt 0.998385429 0.443141937
vt 0.765387177 0.443141699
vt 0.765387177 0.445501268
vt 0.998385429 0.445501447
vt 0.234612823 0.443141699
vt 0.00161457062 0.443141937
vt 0.00161457062 0.445501447
vt 0.234612823 0.445501268
vt 0.998385429 0.554499209
vt 0.765387177 0.554498971
vt 0.765387177 0.55685854
vt 0.998385429 0.556858778
vt 0.00161457062 0.556858778
vt 0.234612823 0.55685854
vt 0.234612823 0.554498971
vt 0.00161457062 0.554499209
vt 0.00161457062 0.445500791
vt 0.00161457062 0.554498494
vt 0.234612763 0.554498613
vt 0.234612763 0.44550091
vt 0.998385429 0.554498553
vt 0.998385429 0.445500791
vt 0.765387237 0.44550091
vt 0.765387237 0.554498613
vt 0.998385429 0.445501447
vt 0.765387177 0.445501268
vt 0.765387177 0.554498971
vt 0.998385429 0.554499209
vt 0.00161457062 0.554499209
vt 0.234612823 0.554498971
vt 0.234612823 0.445501268
vt 0.00161457062 0.445501447
vt 0.765387237 0.443141341
vt 0.764272213 0.44550091
vt 0.765387237 0.44550091
vt 0.234612763 0.44550091
vt 0.235727787 0.44550091
vt 0.234612763 0.443141341
vt 0.765387237 0.554498613
vt 0.764272213 0.554498613
vt 0.765387237 0.556858182
vt 0.234612763 0.556858182
vt 0.235727787 0.554498613
vt 0.234612763 0.554498613
vt 0.234612823 0.443141699
vt 0.234612823 0.445501268
vt 0.235727787 0.445501268
vt 0.765387177 0.445501268
vt 0.765387177 0.443141699
vt 0.764272213 0.445501268
vt 0.234612823 0.554498971
vt 0.234612823 0.55685854
vt 0.235727787 0.554498971
vt 0.765387177 0.55685854
vt 0.765387177 0.554498971
vt 0.764272213 0.554498971
vt 0.477198124 0.764272213
vt 0.477198094 0.765387237
vt 0.522801101 0.765387237
vt 0.522801101 0.764272213
vt 0.477198839 0.764272213
vt 0.477198839 0.765387237
vt 0.522801876 0.765387237
vt 0.522801876 0.764272213
vt 0.47719872 0.235727787
vt 0.522801757 0.235727787
vt 0.522801757 0.234612823
vt 0.47719872 0.234612823
vt 0.477198184 0.235727787
vt 0.52280128 0.235727787
vt 0.52280128 0.234612823
vt 0.477198184 0.234612823
vt 0.235727787 0.44550091
vt 0.234612763 0.44550091
vt 0.234612763 0.554498613
vt 0.235727787 0.554498613
vt 0.764272213 0.554498613
vt 0.765387237 0.554498613
vt 0.765387237 0.44550091
vt 0.764272213 0.44550091
vt 0.764272213 0.445501268
vt 0.764272213 0.554498971
vt 0.765387177 0.554498971
vt 0.765387177 0.445501268
vt 0.235727787 0.554498971
vt 0.235727787 0.445501268
vt 0.234612823 0.445501268
vt 0.234612823 0.554498971
vt 0.522801876 0.44550091
vt 0.477198899 0.44550091
vt 0.477198839 0.554498613
vt 0.522801876 0.554498613
vt 0.47719872 0.445501268
vt 0.47719875 0.554498971
vt 0.522801816 0.554498971
vt 0.522801757 0.445501268
f 1/1 2/2 3/3
f 3/3 4/4 1/1
f 5/5 6/6 7/7
f 7/7 8/8 5/5
f 9/9 10/10 11/11
f 11/11 12/12 9/9
f 13/13 14/14 15/15
f 15/15 16/16 13/13
f 17/17 18/18 19/19
f 19/19 20/20 17/17
f 21/21 22/22 23/23
f 23/23 24/24 21/21
f 25/25 26/26 27/27
f 27/27 28/28 25/25
f 29/29 30/30 31/31
f 31/31 32/32 29/29
f 33/33 34/34 35/35
f 36/36 37/37 38/38
f 39/39 40/40 41/41
f 42/42 43/43 44/44
f 45/45 46/46 47/47
f 48/48 49/49 50/50
f 51/51 52/52 53/53
f 54/54 55/55 56/56
f 57/57 58/58 59/59
f 60/60 61/61 62/62
f 63/63 64/64 65/65
f 66/66 67/67 68/68
f 69/69 70/70 71/71
f 71/71 72/72 69/69
f 73/73 74/74 75/75
f 75/75 76/76 73/73
f 77/77 78/78 79/79
f 79/79 80/80 77/77
f 81/81 82/82 83/83
f 83/83 84/84 81/81
f 85/85 86/86 87/87
f 87/87 88/88 85/85
f 89/89 90/90 91/91
f 91/91 92/92 89/89
f 93/93 94/94 95/95
f 95/95 96/96 93/93
f 97/97 98/98 99/99
f 99/99 100/100 97/97
f 101/101 102/102 103/103
f 103/103 104/104 101/101
f 105/105 106/106 107/107
f 107/107 108/108 105/105
f 109/109 110/110 111/111
f 111/111 112/112 109/109
f 113/113 114/114 115/115
f 115/115 116/116 113/113
f 117/117 118/118 119/119
f 119/119 120/120 117/117
f 121/121 122/122 123/123
f 123/123 124/124 121/121
f 125/125 126/126 127/127
f 127/127 128/128 125/125
f 129/129 130/130 131/131
f 131/131 132/132 129/129
f 133/133 134/134 135/135
f 136/136 137/137 138/138
f 139/139 140/140 141/141
f 142/142 143/143 144/144
f 145/145 146/146 147/147
f 148/148 149/149 150/150
f 151/151 152/152 153/153
f 154/154 155/155 156/156
f 157/157 158/158 159/159
f 159/159 160/160 157/157
f 161/161 162/162 163/163
f 163/163 164/164 161/161
f 165/165 166/166 167/167
f 167/167 168/168 165/165
f 169/169 170/170 171/171
f 171/171 172/172 169/169
f 173/173 174/174 175/175
f 175/175 176/176 173/173
f 177/177 178/178 179/179
f 179/179 180/180 177/177
f 181/181 182/182 183/183
f 183/183 184/184 181/181
f 185/185 186/186 187/187
f 187/187 188/188 185/185
f 189/189 190/190 191/191
f 191/191 192/192 189/189
f 193/193 194/194 195/195
f 195/195 196/196 193/193
