v 0.94072485 -0.283161253 0.503400147
v 0.94072485 -0.283161253 0.600408137
v 0.94072485 -0.30140245 0.600408137
v 0.94072485 -0.30140245 0.503400147
v -0.940725148 -0.283161223 0.503400147
v -0.940725148 -0.30140245 0.503400147
v -0.940725207 -0.30140245 0.600408137
v -0.940725207 -0.283161223 0.600408137
v 0.94072485 -0.30140245 0.503400147
v 0.938624859 -0.30140245 0.501300156
v 0.938624859 -0.283161253 0.501300156
v 0.94072485 -0.283161253 0.503400147
v -0.940725148 -0.30140245 0.503400147
v -0.940725148 -0.283161223 0.503400147
v -0.938625097 -0.283161223 0.501300156
v -0.938625097 -0.30140245 0.501300156
v 0.94072485 -0.283161253 0.503400147
v 0.938624859 -0.281061232 0.503400147
v 0.938624859 -0.281061232 0.600408137
v 0.94072485 -0.283161253 0.600408137
v 0.94072485 -0.30140245 0.600408137
v 0.938624859 -0.30350244 0.600408137
v 0.938624859 -0.30350244 0.503400147
v 0.94072485 -0.30140245 0.503400147
v -0.940725148 -0.283161223 0.503400147
v -0.940725207 -0.283161223 0.600408137
v -0.938625097 -0.281061232 0.600408137
v -0.938625097 -0.281061232 0.503400147
v -0.940725207 -0.30140245 0.600408137
v -0.940725148 -0.30140245 0.503400147
v -0.938625097 -0.30350244 0.503400147
v -0.938625097 -0.30350244 0.600408137
v 0.94072485 -0.283161253 0.600408137
v 0.938624859 -0.283161253 0.602508128
v 0.938624859 -0.30140245 0.602508128
v 0.94072485 -0.30140245 0.600408137
v -0.940725207 -0.283161223 0.600408137
v -0.940725207 -0.30140245 0.600408137
v -0.938625097 -0.30140245 0.602508128
v -0.938625097 -0.283161223 0.602508128
v 0.938624859 -0.283161253 0.501300156
v 0.938624859 -0.281061232 0.503400147
v 0.94072485 -0.283161253 0.503400147
v 0.94072485 -0.30140245 0.503400147
v 0.938624859 -0.30350244 0.503400147
v 0.938624859 -0.30140245 0.501300156
v -0.938625097 -0.283161223 0.501300156
v -0.940725148 -0.283161223 0.503400147
v -0.938625097 -0.281061232 0.503400147
v -0.940725148 -0.30140245 0.503400147
v -0.938625097 -0.30140245 0.501300156
v -0.938625097 -0.30350244 0.503400147
v 0.938624859 -0.281061232 0.600408137
v 0.938624859 -0.283161253 0.602508128
v 0.94072485 -0.283161253 0.600408137
v 0.94072485 -0.30140245 0.600408137
v 0.938624859 -0.30140245 0.602508128
v 0.938624859 -0.30350244 0.600408137
v -0.938625097 -0.281061232 0.600408137
v -0.940725207 -0.283161223 0.600408137
v -0.938625097 -0.283161223 0.602508128
v -0.940725207 -0.30140245 0.600408137
v -0.938625097 -0.30350244 0.600408137
v -0.938625097 -0.30140245 0.602508128
v 0.474637866 -0.283161163 0.503400087
v 0.474637866 -0.283161163 0.600408077
v 0.474637866 -0.30140236 0.600408077
v 0.474637866 -0.30140236 0.503400087
v -0.474637955 -0.283161163 0.503400087
v -0.474637955 -0.30140236 0.503400087
v -0.474637955 -0.30140236 0.600408077
v -0.474637955 -0.283161163 0.600408077
v 0.474637836 -0.283161163 0.678426087
v 0.474637836 -0.283161163 0.775434077
v 0.474637836 -0.30140236 0.775434077
v 0.474637836 -0.30140236 0.678426087
v -0.474637985 -0.283161163 0.678426087
v -0.474637985 -0.30140236 0.678426087
v -0.474637985 -0.30140236 0.775434077
v -0.474637985 -0.283161163 0.775434077
v 0.474637836 -0.283161163 0.775434077
v 0.472537816 -0.283161163 0.777534068
v 0.472537816 -0.30140236 0.777534068
v 0.474637836 -0.30140236 0.775434077
v -0.474637985 -0.283161163 0.775434077
v -0.474637985 -0.30140236 0.775434077
v -0.472537935 -0.30140236 0.777534068
v -0.472537935 -0.283161163 0.777534068
v 0.474637866 -0.30140236 0.503400087
v 0.472537875 -0.30140236 0.501300097
v 0.472537875 -0.283161163 0.501300097
v 0.474637866 -0.283161163 0.503400087
v -0.474637955 -0.30140236 0.503400087
v -0.474637955 -0.283161163 0.503400087
v -0.472538024 -0.283161163 0.501300097
v -0.472538024 -0.30140236 0.501300097
v 0.472537816 -0.281061172 0.775434077
v 0.472537816 -0.283161163 0.777534068
v 0.474637836 -0.283161163 0.775434077
v 0.474637836 -0.30140236 0.775434077
v 0.472537816 -0.30140236 0.777534068
v 0.472537816 -0.303502381 0.775434077
v -0.472537935 -0.281061172 0.775434077
v -0.474637985 -0.283161163 0.775434077
v -0.472537935 -0.283161163 0.777534068
v -0.474637985 -0.30140236 0.775434077
v -0.472537935 -0.303502351 0.775434077
v -0.472537935 -0.30140236 0.777534068
v 0.474637866 -0.283161163 0.503400087
v 0.472537875 -0.281061172 0.503400087
v 0.472537845 -0.281061172 0.600408077
v 0.474637866 -0.283161163 0.600408077
v 0.474637866 -0.30140236 0.600408077
v 0.472537845 -0.303502381 0.600408077
v 0.472537875 -0.303502381 0.503400087
v 0.474637866 -0.30140236 0.503400087
v -0.474637955 -0.283161163 0.503400087
v -0.474637955 -0.283161163 0.600408077
v -0.472537905 -0.281061172 0.600408077
v -0.472537905 -0.281061172 0.600408077
v -0.472538024 -0.281061172 0.503400087
v -0.474637955 -0.283161163 0.503400087
v -0.474637955 -0.30140236 0.600408077
v -0.474637955 -0.30140236 0.503400087
v -0.472538024 -0.303502351 0.503400087
v -0.472538024 -0.303502351 0.503400087
v -0.472537905 -0.303502351 0.600408077
v -0.474637955 -0.30140236 0.600408077
v 0.474637836 -0.283161163 0.678426087
v 0.472537845 -0.281061172 0.678426087
v 0.472537816 -0.281061172 0.775434077
v 0.474637836 -0.283161163 0.775434077
v 0.474637836 -0.30140236 0.775434077
v 0.472537816 -0.303502381 0.775434077
v 0.472537845 -0.303502381 0.678426087
v 0.474637836 -0.30140236 0.678426087
v -0.474637985 -0.283161163 0.678426087
v -0.474637985 -0.283161163 0.775434077
v -0.472537935 -0.281061172 0.775434077
v -0.472537935 -0.281061172 0.775434077
v -0.472537994 -0.281061172 0.678426087
v -0.474637985 -0.283161163 0.678426087
v -0.474637985 -0.30140236 0.775434077
v -0.474637985 -0.30140236 0.678426087
v -0.472537994 -0.303502351 0.678426087
v -0.472537994 -0.303502351 0.678426087
v -0.472537935 -0.303502351 0.775434077
v -0.474637985 -0.30140236 0.775434077
v 0.472537875 -0.283161163 0.501300097
v 0.472537875 -0.281061172 0.503400087
v 0.474637866 -0.283161163 0.503400087
v 0.474637866 -0.30140236 0.503400087
v 0.472537875 -0.303502381 0.503400087
v 0.472537875 -0.30140236 0.501300097
v -0.472538024 -0.283161163 0.501300097
v -0.474637955 -0.283161163 0.503400087
v -0.472538024 -0.281061172 0.503400087
v -0.474637955 -0.30140236 0.503400087
v -0.472538024 -0.30140236 0.501300097
v -0.472538024 -0.303502351 0.503400087
v 0.474637866 -0.283161163 0.600408077
v 0.472537845 -0.283161163 0.602508068
v 0.472537845 -0.30140236 0.602508068
v 0.474637866 -0.30140236 0.600408077
v -0.474637955 -0.283161163 0.600408077
v -0.474637955 -0.30140236 0.600408077
v -0.472537905 -0.30140236 0.602508068
v -0.472537905 -0.283161163 0.602508068
v 0.474637836 -0.30140236 0.678426087
v 0.472537845 -0.30140236 0.676326096
v 0.472537845 -0.283161163 0.676326096
v 0.474637836 -0.283161163 0.678426087
v -0.474637985 -0.30140236 0.678426087
v -0.474637985 -0.283161163 0.678426087
v -0.472537994 -0.283161163 0.676326096
v -0.472537994 -0.30140236 0.676326096
v 0.472537845 -0.281061172 0.600408077
v 0.472537845 -0.283161163 0.602508068
v 0.474637866 -0.283161163 0.600408077
v 0.474637866 -0.30140236 0.600408077
v 0.472537845 -0.30140236 0.602508068
v 0.472537845 -0.303502381 0.600408077
v -0.472537905 -0.281061172 0.600408077
v -0.474637955 -0.283161163 0.600408077
v -0.472537905 -0.283161163 0.602508068
v -0.474637955 -0.30140236 0.600408077
v -0.472537905 -0.303502351 0.600408077
v -0.472537905 -0.30140236 0.602508068
v 0.472537845 -0.283161163 0.676326096
v 0.472537845 -0.281061172 0.678426087
v 0.474637836 -0.283161163 0.678426087
v 0.474637836 -0.30140236 0.678426087
v 0.472537845 -0.303502381 0.678426087
v 0.472537845 -0.30140236 0.676326096
v -0.472537994 -0.283161163 0.676326096
v -0.474637985 -0.283161163 0.678426087
v -0.472537994 -0.281061172 0.678426087
v -0.474637985 -0.30140236 0.678426087
v -0.472537994 -0.30140236 0.676326096
v -0.472537994 -0.303502351 0.678426087
v 0.472537816 -0.30140236 0.777534068
v 0.472537816 -0.283161163 0.777534068
v 0.0337249711 -0.283161134 0.777534008
v 0.0337249674 -0.30140236 0.777534008
v -0.472537935 -0.30140236 0.777534068
v -0.0337250978 -0.30140236 0.777534008
v -0.033725135 -0.283161134 0.777534008
v -0.472537935 -0.283161163 0.777534068
v 0.472537816 -0.303502381 0.775434077
v 0.472537816 -0.30140236 0.777534068
v 0.0337249674 -0.30140236 0.777534008
v 0.0337249674 -0.303502351 0.775434017
v 0.472537816 -0.283161163 0.777534068
v 0.472537816 -0.281061172 0.775434077
v 0.0337249711 -0.281061143 0.775434017
v 0.0337249711 -0.283161134 0.777534008
v -0.472537935 -0.303502351 0.775434077
v -0.0337250978 -0.303502351 0.775433958
v -0.0337250978 -0.30140236 0.777534008
v -0.472537935 -0.30140236 0.777534068
v -0.472537935 -0.283161163 0.777534068
v -0.033725135 -0.283161134 0.777534008
v -0.0337251313 -0.281061113 0.775433958
v -0.472537935 -0.281061172 0.775434077
v 0.472537875 -0.283161163 0.501300097
v 0.472537875 -0.30140236 0.501300097
v 0.0337250121 -0.30140236 0.501300037
v 0.0337250158 -0.283161134 0.501300037
v -0.472538024 -0.283161163 0.501300097
v -0.0337251276 -0.283161134 0.501300037
v -0.0337251313 -0.30140236 0.501300037
v -0.472538024 -0.30140236 0.501300097
v 0.938624859 -0.283161253 0.501300156
v 0.938624859 -0.30140245 0.501300156
v 0.499812007 -0.30140242 0.501300097
v 0.499812007 -0.283161223 0.501300097
v -0.938625097 -0.283161223 0.501300156
v -0.499812394 -0.283161223 0.501300097
v -0.499812394 -0.30140242 0.501300097
v -0.938625097 -0.30140245 0.501300156
v 0.0316249765 -0.30140236 0.775434017
v 0.0337249674 -0.30140236 0.777534008
v 0.0337249711 -0.283161134 0.777534008
v 0.0316249803 -0.283161134 0.775434017
v -0.0316251069 -0.30140236 0.775433958
v -0.0316251442 -0.283161134 0.775433958
v -0.033725135 -0.283161134 0.777534008
v -0.0337250978 -0.30140236 0.777534008
v 0.472537875 -0.30140236 0.501300097
v 0.472537875 -0.303502381 0.503400087
v 0.0337250121 -0.303502351 0.503400028
v 0.0337250121 -0.30140236 0.501300037
v 0.0337250158 -0.283161134 0.501300037
v 0.0337250158 -0.281061143 0.503400028
v 0.472537875 -0.281061172 0.503400087
v 0.472537875 -0.283161163 0.501300097
v -0.472538024 -0.30140236 0.501300097
v -0.0337251313 -0.30140236 0.501300037
v -0.0337251313 -0.303502351 0.503400028
v -0.472538024 -0.303502351 0.503400087
v -0.0337251276 -0.283161134 0.501300037
v -0.472538024 -0.283161163 0.501300097
v -0.472538024 -0.281061172 0.503400087
v -0.0337251276 -0.281061113 0.503400028
v 0.938624859 -0.30140245 0.501300156
v 0.938624859 -0.30350244 0.503400147
v 0.499812007 -0.303502411 0.503400087
v 0.499812007 -0.30140242 0.501300097
v 0.499812007 -0.283161223 0.501300097
v 0.499812007 -0.281061232 0.503400087
v 0.938624859 -0.281061232 0.503400147
v 0.938624859 -0.283161253 0.501300156
v -0.938625097 -0.30140245 0.501300156
v -0.499812394 -0.30140242 0.501300097
v -0.499812394 -0.303502411 0.503400087
v -0.938625097 -0.30350244 0.503400147
v -0.499812394 -0.283161223 0.501300097
v -0.938625097 -0.283161223 0.501300156
v -0.938625097 -0.281061232 0.503400147
v -0.499812394 -0.281061202 0.503400087
v 0.0337249711 -0.281061143 0.775434017
v 0.0316249803 -0.283161134 0.775434017
v 0.0337249711 -0.283161134 0.777534008
v 0.0337249674 -0.30140236 0.777534008
v 0.0316249765 -0.30140236 0.775434017
v 0.0337249674 -0.303502351 0.775434017
v -0.0337251313 -0.281061113 0.775433958
v -0.033725135 -0.283161134 0.777534008
v -0.0316251442 -0.283161134 0.775433958
v -0.0337250978 -0.30140236 0.777534008
v -0.0337250978 -0.303502351 0.775433958
v -0.0316251069 -0.30140236 0.775433958
v 0.031625025 -0.283161134 0.503400028
v 0.0337250158 -0.283161134 0.501300037
v 0.0337250121 -0.30140236 0.501300037
v 0.0316250212 -0.30140236 0.503400028
v -0.0316251367 -0.283161134 0.503400028
v -0.0316251405 -0.30140236 0.503400028
v -0.0337251313 -0.30140236 0.501300037
v -0.0337251276 -0.283161134 0.501300037
v 0.0337250158 -0.283161134 0.501300037
v 0.031625025 -0.283161134 0.503400028
v 0.0337250158 -0.281061143 0.503400028
v 0.0337250121 -0.303502351 0.503400028
v 0.0316250212 -0.30140236 0.503400028
v 0.0337250121 -0.30140236 0.501300037
v -0.0337251276 -0.283161134 0.501300037
v -0.0337251276 -0.281061113 0.503400028
v -0.0316251367 -0.283161134 0.503400028
v -0.0337251313 -0.303502351 0.503400028
v -0.0337251313 -0.30140236 0.501300037
v -0.0316251405 -0.30140236 0.503400028
v 0.472537875 -0.303502381 0.503400087
v 0.472537845 -0.303502381 0.600408077
v 0.0337249972 -0.303502351 0.600408018
v 0.0337250121 -0.303502351 0.503400028
v 0.472537845 -0.281061172 0.600408077
v 0.472537875 -0.281061172 0.503400087
v 0.0337250158 -0.281061143 0.503400028
v 0.0337250009 -0.281061143 0.600408018
v -0.472538024 -0.303502351 0.503400087
v -0.0337251313 -0.303502351 0.503400028
v -0.033725109 -0.303502351 0.600408018
v -0.472537905 -0.303502351 0.600408077
v -0.472537905 -0.281061172 0.600408077
v -0.0337251052 -0.281061113 0.600408018
v -0.0337251276 -0.281061113 0.503400028
v -0.472538024 -0.281061172 0.503400087
v 0.472537845 -0.303502381 0.678426087
v 0.472537816 -0.303502381 0.775434077
v 0.0337249674 -0.303502351 0.775434017
v 0.0337249823 -0.303502351 0.678426027
v 0.472537816 -0.281061172 0.775434077
v 0.472537845 -0.281061172 0.678426087
v 0.033724986 -0.281061143 0.678426027
v 0.0337249711 -0.281061143 0.775434017
v -0.472537994 -0.303502351 0.678426087
v -0.0337251201 -0.303502351 0.678426027
v -0.0337250978 -0.303502351 0.775433958
v -0.472537935 -0.303502351 0.775434077
v -0.472537935 -0.281061172 0.775434077
v -0.0337251313 -0.281061113 0.775433958
v -0.0337251164 -0.281061113 0.678426027
v -0.472537994 -0.281061172 0.678426087
v 0.938624859 -0.30350244 0.503400147
v 0.938624859 -0.30350244 0.600408137
v 0.499812007 -0.303502411 0.600408077
v 0.499812007 -0.303502411 0.503400087
v 0.938624859 -0.281061232 0.600408137
v 0.938624859 -0.281061232 0.503400147
v 0.499812007 -0.281061232 0.503400087
v 0.499812007 -0.281061232 0.600408077
v -0.938625097 -0.30350244 0.503400147
v -0.499812394 -0.303502411 0.503400087
v -0.499812245 -0.303502411 0.600408077
v -0.938625097 -0.30350244 0.600408137
v -0.938625097 -0.281061232 0.600408137
v -0.499812245 -0.281061202 0.600408077
v -0.499812394 -0.281061202 0.503400087
v -0.938625097 -0.281061232 0.503400147
v 0.472537845 -0.303502381 0.600408077
v 0.472537845 -0.30140236 0.602508068
v 0.0337249972 -0.30140236 0.602508008
v 0.0337249972 -0.303502351 0.600408018
v 0.472537845 -0.283161163 0.602508068
v 0.472537845 -0.281061172 0.600408077
v 0.0337250009 -0.281061143 0.600408018
v 0.0337249972 -0.283161134 0.602508008
v -0.472537905 -0.303502351 0.600408077
v -0.033725109 -0.303502351 0.600408018
v -0.033725109 -0.30140236 0.602508008
v -0.472537905 -0.30140236 0.602508068
v -0.472537905 -0.283161163 0.602508068
v -0.0337251052 -0.283161134 0.602508008
v -0.0337251052 -0.281061113 0.600408018
v -0.472537905 -0.281061172 0.600408077
v 0.938624859 -0.30350244 0.600408137
v 0.938624859 -0.30140245 0.602508128
v 0.499812007 -0.30140242 0.602508068
v 0.499812007 -0.303502411 0.600408077
v 0.938624859 -0.283161253 0.602508128
v 0.938624859 -0.281061232 0.600408137
v 0.499812007 -0.281061232 0.600408077
v 0.499812007 -0.283161223 0.602508068
v -0.938625097 -0.30350244 0.600408137
v -0.499812245 -0.303502411 0.600408077
v -0.499812245 -0.30140242 0.602508068
v -0.938625097 -0.30140245 0.602508128
v -0.938625097 -0.283161223 0.602508128
v -0.499812245 -0.283161223 0.602508068
v -0.499812245 -0.281061202 0.600408077
v -0.938625097 -0.281061232 0.600408137
v 0.472537845 -0.30140236 0.602508068
v 0.472537845 -0.283161163 0.602508068
v 0.0337249972 -0.283161134 0.602508008
v 0.0337249972 -0.30140236 0.602508008
v -0.472537905 -0.30140236 0.602508068
v -0.033725109 -0.30140236 0.602508008
v -0.0337251052 -0.283161134 0.602508008
v -0.472537905 -0.283161163 0.602508068
v 0.938624859 -0.30140245 0.602508128
v 0.938624859 -0.283161253 0.602508128
v 0.499812007 -0.283161223 0.602508068
v 0.499812007 -0.30140242 0.602508068
v -0.938625097 -0.30140245 0.602508128
v -0.499812245 -0.30140242 0.602508068
v -0.499812245 -0.283161223 0.602508068
v -0.938625097 -0.283161223 0.602508128
v 0.0316250212 -0.30140236 0.503400028
v 0.0337250121 -0.303502351 0.503400028
v 0.0337249972 -0.303502351 0.600408018
v 0.0316250063 -0.30140236 0.600408018
v 0.0316250063 -0.283161134 0.600408018
v 0.0337250009 -0.281061143 0.600408018
v 0.0337250158 -0.281061143 0.503400028
v 0.031625025 -0.283161134 0.503400028
v -0.0316251405 -0.30140236 0.503400028
v -0.0316251181 -0.30140236 0.600408018
v -0.033725109 -0.303502351 0.600408018
v -0.0337251313 -0.303502351 0.503400028
v -0.0316251144 -0.283161134 0.600408018
v -0.0316251367 -0.283161134 0.503400028
v -0.0337251276 -0.281061113 0.503400028
v -0.0337251052 -0.281061113 0.600408018
v 0.0316249914 -0.30140236 0.678426027
v 0.0337249823 -0.303502351 0.678426027
v 0.0337249674 -0.303502351 0.775434017
v 0.0316249765 -0.30140236 0.775434017
v 0.0316249803 -0.283161134 0.775434017
v 0.0337249711 -0.281061143 0.775434017
v 0.033724986 -0.281061143 0.678426027
v 0.0316249952 -0.283161134 0.678426027
v -0.0316251293 -0.30140236 0.678426027
v -0.0316251069 -0.30140236 0.775433958
v -0.0337250978 -0.303502351 0.775433958
v -0.0337251201 -0.303502351 0.678426027
v -0.0316251442 -0.283161134 0.775433958
v -0.0316251256 -0.283161134 0.678426027
v -0.0337251164 -0.281061113 0.678426027
v -0.0337251313 -0.281061113 0.775433958
v 0.0337250009 -0.281061143 0.600408018
v 0.0316250063 -0.283161134 0.600408018
v 0.0337249972 -0.283161134 0.602508008
v 0.0337249972 -0.30140236 0.602508008
v 0.0316250063 -0.30140236 0.600408018
v 0.0337249972 -0.303502351 0.600408018
v -0.0337251052 -0.281061113 0.600408018
v -0.0337251052 -0.283161134 0.602508008
v -0.0316251144 -0.283161134 0.600408018
v -0.033725109 -0.30140236 0.602508008
v -0.033725109 -0.303502351 0.600408018
v -0.0316251181 -0.30140236 0.600408018
v 0.0316250063 -0.30140236 0.600408018
v 0.0337249972 -0.30140236 0.602508008
v 0.0337249972 -0.283161134 0.602508008
v 0.0316250063 -0.283161134 0.600408018
v -0.0316251181 -0.30140236 0.600408018
v -0.0316251144 -0.283161134 0.600408018
v -0.0337251052 -0.283161134 0.602508008
v -0.033725109 -0.30140236 0.602508008
v 0.031625025 -0.283161134 0.503400028
v 0.0316250212 -0.30140236 0.503400028
v 0.0316250063 -0.30140236 0.600408018
v 0.0316250063 -0.283161134 0.600408018
v -0.0316251367 -0.283161134 0.503400028
v -0.0316251144 -0.283161134 0.600408018
v -0.0316251181 -0.30140236 0.600408018
v -0.0316251405 -0.30140236 0.503400028
v 0.0316249952 -0.283161134 0.678426027
v 0.0316249914 -0.30140236 0.678426027
v 0.0316249765 -0.30140236 0.775434017
v 0.0316249803 -0.283161134 0.775434017
v -0.0316251256 -0.283161134 0.678426027
v -0.0316251442 -0.283161134 0.775433958
v -0.0316251069 -0.30140236 0.775433958
v -0.0316251293 -0.30140236 0.678426027
v 0.472537845 -0.30140236 0.676326096
v 0.472537845 -0.303502381 0.678426087
v 0.0337249823 -0.303502351 0.678426027
v 0.0337249823 -0.30140236 0.676326036
v 0.033724986 -0.283161134 0.676326036
v 0.033724986 -0.281061143 0.678426027
v 0.472537845 -0.281061172 0.678426087
v 0.472537845 -0.283161163 0.676326096
v -0.472537994 -0.30140236 0.676326096
v -0.0337251201 -0.30140236 0.676326036
v -0.0337251201 -0.303502351 0.678426027
v -0.472537994 -0.303502351 0.678426087
v -0.0337251164 -0.283161134 0.676326036
v -0.472537994 -0.283161163 0.676326096
v -0.472537994 -0.281061172 0.678426087
v -0.0337251164 -0.281061113 0.678426027
v 0.033724986 -0.283161134 0.676326036
v 0.0316249952 -0.283161134 0.678426027
v 0.033724986 -0.281061143 0.678426027
v 0.0337249823 -0.303502351 0.678426027
v 0.0316249914 -0.30140236 0.678426027
v 0.0337249823 -0.30140236 0.676326036
v -0.0337251164 -0.283161134 0.676326036
v -0.0337251164 -0.281061113 0.678426027
v -0.0316251256 -0.283161134 0.678426027
v -0.0337251201 -0.303502351 0.678426027
v -0.0337251201 -0.30140236 0.676326036
v -0.0316251293 -0.30140236 0.678426027
v 0.472537845 -0.283161163 0.676326096
v 0.472537845 -0.30140236 0.676326096
v 0.0337249823 -0.30140236 0.676326036
v 0.033724986 -0.283161134 0.676326036
v -0.472537994 -0.283161163 0.676326096
v -0.0337251164 -0.283161134 0.676326036
v -0.0337251201 -0.30140236 0.676326036
v -0.472537994 -0.30140236 0.676326096
v 0.0316249952 -0.283161134 0.678426027
v 0.033724986 -0.283161134 0.676326036
v 0.0337249823 -0.30140236 0.676326036
v 0.0316249914 -0.30140236 0.678426027
v -0.0316251256 -0.283161134 0.678426027
v -0.0316251293 -0.30140236 0.678426027
v -0.0337251201 -0.30140236 0.676326036
v -0.0337251164 -0.283161134 0.676326036
v 0.499812007 -0.283161223 0.501300097
v 0.497712016 -0.283161223 0.503400087
v 0.499812007 -0.281061232 0.503400087
v 0.499812007 -0.303502411 0.503400087
v 0.497712016 -0.30140242 0.503400087
v 0.499812007 -0.30140242 0.501300097
v -0.499812394 -0.283161223 0.501300097
v -0.499812394 -0.281061202 0.503400087
v -0.497712314 -0.283161223 0.503400087
v -0.499812394 -0.303502411 0.503400087
v -0.499812394 -0.30140242 0.501300097
v -0.497712314 -0.30140242 0.503400087
v 0.497712016 -0.283161223 0.503400087
v 0.499812007 -0.283161223 0.501300097
v 0.499812007 -0.30140242 0.501300097
v 0.497712016 -0.30140242 0.503400087
v -0.497712314 -0.283161223 0.503400087
v -0.497712314 -0.30140242 0.503400087
v -0.499812394 -0.30140242 0.501300097
v -0.499812394 -0.283161223 0.501300097
v 0.499812007 -0.281061232 0.600408077
v 0.497712016 -0.283161223 0.600408077
v 0.499812007 -0.283161223 0.602508068
v 0.499812007 -0.30140242 0.602508068
v 0.497712016 -0.30140242 0.600408077
v 0.499812007 -0.303502411 0.600408077
v -0.499812245 -0.281061202 0.600408077
v -0.499812245 -0.283161223 0.602508068
v -0.497712344 -0.283161223 0.600408077
v -0.499812245 -0.30140242 0.602508068
v -0.499812245 -0.303502411 0.600408077
v -0.497712344 -0.30140242 0.600408077
v 0.497712016 -0.30140242 0.503400087
v 0.499812007 -0.303502411 0.503400087
v 0.499812007 -0.303502411 0.600408077
v 0.497712016 -0.30140242 0.600408077
v 0.497712016 -0.283161223 0.600408077
v 0.499812007 -0.281061232 0.600408077
v 0.499812007 -0.281061232 0.503400087
v 0.497712016 -0.283161223 0.503400087
v -0.497712314 -0.30140242 0.503400087
v -0.497712344 -0.30140242 0.600408077
v -0.499812245 -0.303502411 0.600408077
v -0.499812245 -0.303502411 0.600408077
v -0.499812394 -0.303502411 0.503400087
v -0.497712314 -0.30140242 0.503400087
v -0.497712344 -0.283161223 0.600408077
v -0.497712314 -0.283161223 0.503400087
v -0.499812394 -0.281061202 0.503400087
v -0.499812394 -0.281061202 0.503400087
v -0.499812245 -0.281061202 0.600408077
v -0.497712344 -0.283161223 0.600408077
v 0.497712016 -0.30140242 0.600408077
v 0.499812007 -0.30140242 0.602508068
v 0.499812007 -0.283161223 0.602508068
v 0.497712016 -0.283161223 0.600408077
v -0.497712344 -0.30140242 0.600408077
v -0.497712344 -0.283161223 0.600408077
v -0.499812245 -0.283161223 0.602508068
v -0.499812245 -0.30140242 0.602508068
v 0.497712016 -0.283161223 0.503400087
v 0.497712016 -0.30140242 0.503400087
v 0.497712016 -0.30140242 0.600408077
v 0.497712016 -0.283161223 0.600408077
v -0.497712314 -0.283161223 0.503400087
v -0.497712344 -0.283161223 0.600408077
v -0.497712344 -0.30140242 0.600408077
v -0.497712314 -0.30140242 0.503400087
vt 0.477197886 0.445500791
vt 0.477197945 0.554498553
vt 0.522800922 0.554498494
vt 0.522800922 0.445500791
vt 0.522800922 0.445501506
vt 0.477197886 0.445501506
vt 0.477197886 0.554499209
vt 0.522800922 0.554499209
vt 0.522800922 0.999500513
vt 0.522800922 0.998385429
vt 0.477197886 0.998385429
vt 0.477197886 0.999500513
vt 0.522802114 0.000499486923
vt 0.477199048 0.000499486923
vt 0.477199048 0.00161457062
vt 0.522802114 0.00161457062
vt 0.999500513 0.445500791
vt 0.998385429 0.445500791
vt 0.998385429 0.554498553
vt 0.999500513 0.554498553
vt 0.000499516726 0.554498494
vt 0.00161457062 0.554498494
vt 0.00161457062 0.445500791
vt 0.000499516726 0.445500791
vt 0.000499486923 0.445501506
vt 0.000499486923 0.554499209
vt 0.00161457062 0.554499209
vt 0.00161457062 0.445501506
vt 0.999500513 0.554499209
vt 0.999500513 0.445501506
vt 0.998385429 0.445501506
vt 0.998385429 0.554499209
vt 0.522802055 0.999500513
vt 0.522802055 0.998385429
vt 0.477199078 0.998385429
vt 0.477199078 0.999500513
vt 0.522800922 0.000499486923
vt 0.477197886 0.000499486923
vt 0.477197886 0.00161457062
vt 0.522800922 0.00161457062
vt 0.998385429 0.443141222
vt 0.998385429 0.445500791
vt 0.999500513 0.445500791
vt 0.000499516726 0.445500791
vt 0.00161457062 0.445500791
vt 0.00161457062 0.443141222
vt 0.00161457062 0.443141937
vt 0.000499486923 0.445501506
vt 0.00161457062 0.445501506
vt 0.999500513 0.445501506
vt 0.998385429 0.443141937
vt 0.998385429 0.445501506
vt 0.998385429 0.554498553
vt 0.998385429 0.556858063
vt 0.999500513 0.554498553
vt 0.000499516726 0.554498494
vt 0.00161457062 0.556858063
vt 0.00161457062 0.554498494
vt 0.00161457062 0.554499209
vt 0.000499486923 0.554499209
vt 0.00161457062 0.556858778
vt 0.999500513 0.554499209
vt 0.998385429 0.554499209
vt 0.998385429 0.556858778
vt 0.477197886 0.445500791
vt 0.477197945 0.554498553
vt 0.522800922 0.554498494
vt 0.522800922 0.445500791
vt 0.522801518 0.445501149
vt 0.477198482 0.445501149
vt 0.477198482 0.554498851
vt 0.522801518 0.554498851
vt 0.477197886 0.445500791
vt 0.477197945 0.554498553
vt 0.522800922 0.554498494
vt 0.522800922 0.445500791
vt 0.522801518 0.445501149
vt 0.477198482 0.445501149
vt 0.477198482 0.554498851
vt 0.522801518 0.554498911
vt 0.522802055 0.999500513
vt 0.522802055 0.998385429
vt 0.477199078 0.998385429
vt 0.477199078 0.999500513
vt 0.522801518 0.495459795
vt 0.477198482 0.495459795
vt 0.477198482 0.496574879
vt 0.522801518 0.496574879
vt 0.522800922 0.999500513
vt 0.522800922 0.998385429
vt 0.477197886 0.998385429
vt 0.477197886 0.999500513
vt 0.522801518 0.495459795
vt 0.477198482 0.495459795
vt 0.477198482 0.496574759
vt 0.522801518 0.496574759
vt 0.998385429 0.554498553
vt 0.998385429 0.556858063
vt 0.999500513 0.554498553
vt 0.000499516726 0.554498494
vt 0.00161457062 0.556858063
vt 0.00161457062 0.554498494
vt 0.496574879 0.554498911
vt 0.495459795 0.554498911
vt 0.496574879 0.55685842
vt 0.504540205 0.554498851
vt 0.503425121 0.554498851
vt 0.503425121 0.55685842
vt 0.999500513 0.445500791
vt 0.998385429 0.445500791
vt 0.998385429 0.554498553
vt 0.999500513 0.554498553
vt 0.000499516726 0.554498494
vt 0.00161457062 0.554498494
vt 0.00161457062 0.445500791
vt 0.000499516726 0.445500791
vt 0.495459795 0.445501149
vt 0.495459795 0.554498851
vt 0.496574879 0.554498851
vt 0.496574879 0.554498851
vt 0.496574759 0.445501149
vt 0.495459795 0.445501149
vt 0.504540205 0.554498851
vt 0.504540205 0.445501149
vt 0.503425241 0.445501149
vt 0.503425241 0.445501149
vt 0.503425121 0.554498851
vt 0.504540205 0.554498851
vt 0.999500513 0.445500791
vt 0.998385429 0.445500791
vt 0.998385429 0.554498553
vt 0.999500513 0.554498553
vt 0.000499516726 0.554498494
vt 0.00161457062 0.554498494
vt 0.00161457062 0.445500791
vt 0.000499516726 0.445500791
vt 0.495459795 0.445501149
vt 0.495459795 0.554498911
vt 0.496574879 0.554498911
vt 0.496574879 0.554498911
vt 0.496574759 0.445501149
vt 0.495459795 0.445501149
vt 0.504540205 0.554498851
vt 0.504540205 0.445501149
vt 0.503425241 0.445501149
vt 0.503425241 0.445501149
vt 0.503425121 0.554498851
vt 0.504540205 0.554498851
vt 0.998385429 0.443141222
vt 0.998385429 0.445500791
vt 0.999500513 0.445500791
vt 0.000499516726 0.445500791
vt 0.00161457062 0.445500791
vt 0.00161457062 0.443141222
vt 0.496574759 0.44314158
vt 0.495459795 0.445501149
vt 0.496574759 0.445501149
vt 0.504540205 0.445501149
vt 0.503425241 0.44314158
vt 0.503425241 0.445501149
vt 0.522802055 0.999500513
vt 0.522802055 0.998385429
vt 0.477199078 0.998385429
vt 0.477199078 0.999500513
vt 0.522801518 0.495459795
vt 0.477198482 0.495459795
vt 0.477198482 0.496574879
vt 0.522801518 0.496574879
vt 0.522800922 0.999500513
vt 0.522800922 0.998385429
vt 0.477197886 0.998385429
vt 0.477197886 0.999500513
vt 0.522801518 0.495459795
vt 0.477198482 0.495459795
vt 0.477198482 0.496574759
vt 0.522801518 0.496574759
vt 0.998385429 0.554498553
vt 0.998385429 0.556858063
vt 0.999500513 0.554498553
vt 0.000499516726 0.554498494
vt 0.00161457062 0.556858063
vt 0.00161457062 0.554498494
vt 0.496574879 0.554498851
vt 0.495459795 0.554498851
vt 0.496574879 0.55685842
vt 0.504540205 0.554498851
vt 0.503425121 0.554498851
vt 0.503425121 0.55685842
vt 0.998385429 0.443141222
vt 0.998385429 0.445500791
vt 0.999500513 0.445500791
vt 0.000499516726 0.445500791
vt 0.00161457062 0.445500791
vt 0.00161457062 0.443141222
vt 0.496574759 0.44314158
vt 0.495459795 0.445501149
vt 0.496574759 0.445501149
vt 0.504540205 0.445501149
vt 0.503425241 0.44314158
vt 0.503425241 0.445501149
vt 0.477199078 0.998385429
vt 0.522802055 0.998385429
vt 0.522801876 0.765387237
vt 0.477198839 0.765387237
vt 0.477198482 0.496574879
vt 0.47719878 0.729573011
vt 0.522801816 0.729573011
vt 0.522801518 0.496574879
vt 0.00161457062 0.554498494
vt 0.00161457062 0.556858063
vt 0.234612763 0.556858182
vt 0.234612763 0.554498613
vt 0.998385429 0.556858063
vt 0.998385429 0.554498553
vt 0.765387237 0.554498613
vt 0.765387237 0.556858182
vt 0.503425121 0.554498851
vt 0.270426989 0.554498613
vt 0.270426989 0.556858182
vt 0.503425121 0.55685842
vt 0.496574879 0.55685842
vt 0.729573011 0.556858182
vt 0.729573011 0.554498613
vt 0.496574879 0.554498911
vt 0.477197886 0.998385429
vt 0.522800922 0.998385429
vt 0.522801101 0.765387237
vt 0.477198094 0.765387237
vt 0.477198482 0.496574759
vt 0.477198124 0.729573011
vt 0.522801161 0.729573011
vt 0.522801518 0.496574759
vt 0.477197886 0.998385429
vt 0.522800922 0.998385429
vt 0.522801101 0.765387237
vt 0.477198094 0.765387237
vt 0.477199048 0.00161457062
vt 0.47719872 0.234612703
vt 0.522801757 0.234612703
vt 0.522802114 0.00161457062
vt 0.477198839 0.764272213
vt 0.477198839 0.765387237
vt 0.522801876 0.765387237
vt 0.522801876 0.764272213
vt 0.47719878 0.730688035
vt 0.522801816 0.730688035
vt 0.522801816 0.729573011
vt 0.47719878 0.729573011
vt 0.00161457062 0.443141222
vt 0.00161457062 0.445500791
vt 0.234612763 0.44550091
vt 0.234612763 0.443141341
vt 0.765387237 0.443141341
vt 0.765387237 0.44550091
vt 0.998385429 0.445500791
vt 0.998385429 0.443141222
vt 0.503425241 0.44314158
vt 0.270427018 0.443141341
vt 0.270427018 0.44550091
vt 0.503425241 0.445501149
vt 0.729573011 0.443141341
vt 0.496574759 0.44314158
vt 0.496574759 0.445501149
vt 0.729573011 0.44550091
vt 0.00161457062 0.443141222
vt 0.00161457062 0.445500791
vt 0.234612763 0.44550091
vt 0.234612763 0.443141341
vt 0.765387237 0.443141341
vt 0.765387237 0.44550091
vt 0.998385429 0.445500791
vt 0.998385429 0.443141222
vt 0.998385429 0.443141937
vt 0.765387297 0.443141699
vt 0.765387297 0.445501268
vt 0.998385429 0.445501506
vt 0.234612703 0.443141699
vt 0.00161457062 0.443141937
vt 0.00161457062 0.445501506
vt 0.234612703 0.445501268
vt 0.765387237 0.554498613
vt 0.764272213 0.554498613
vt 0.765387237 0.556858182
vt 0.234612763 0.556858182
vt 0.235727787 0.554498613
vt 0.234612763 0.554498613
vt 0.729573011 0.554498613
vt 0.729573011 0.556858182
vt 0.730688035 0.554498613
vt 0.270426989 0.556858182
vt 0.270426989 0.554498613
vt 0.269311965 0.554498613
vt 0.477198124 0.764272213
vt 0.477198094 0.765387237
vt 0.522801101 0.765387237
vt 0.522801101 0.764272213
vt 0.477198124 0.730687976
vt 0.522801161 0.730687976
vt 0.522801161 0.729573011
vt 0.477198124 0.729573011
vt 0.765387237 0.443141341
vt 0.764272213 0.44550091
vt 0.765387237 0.44550091
vt 0.234612763 0.44550091
vt 0.235727787 0.44550091
vt 0.234612763 0.443141341
vt 0.729573011 0.443141341
vt 0.729573011 0.44550091
vt 0.730687976 0.44550091
vt 0.270427018 0.44550091
vt 0.270427018 0.443141341
vt 0.269311994 0.44550091
vt 0.00161457062 0.445500791
vt 0.00161457062 0.554498494
vt 0.234612763 0.554498613
vt 0.234612763 0.44550091
vt 0.998385429 0.554498553
vt 0.998385429 0.445500791
vt 0.765387237 0.44550091
vt 0.765387237 0.554498613
vt 0.503425241 0.445501149
vt 0.270427018 0.44550091
vt 0.270427018 0.554498672
vt 0.503425121 0.554498851
vt 0.496574879 0.554498851
vt 0.729573011 0.554498672
vt 0.729573011 0.44550091
vt 0.496574759 0.445501149
vt 0.00161457062 0.445500791
vt 0.00161457062 0.554498494
vt 0.234612763 0.554498613
vt 0.234612763 0.44550091
vt 0.998385429 0.554498553
vt 0.998385429 0.445500791
vt 0.765387237 0.44550091
vt 0.765387237 0.554498613
vt 0.503425241 0.445501149
vt 0.270427018 0.44550091
vt 0.270426989 0.554498613
vt 0.503425121 0.554498851
vt 0.496574879 0.554498911
vt 0.729573011 0.554498613
vt 0.729573011 0.44550091
vt 0.496574759 0.445501149
vt 0.00161457062 0.445500791
vt 0.00161457062 0.554498494
vt 0.234612763 0.554498613
vt 0.234612763 0.44550091
vt 0.998385429 0.554498553
vt 0.998385429 0.445500791
vt 0.765387237 0.44550091
vt 0.765387237 0.554498613
vt 0.998385429 0.445501506
vt 0.765387297 0.445501268
vt 0.765387177 0.554498971
vt 0.998385429 0.554499209
vt 0.00161457062 0.554499209
vt 0.234612823 0.554498971
vt 0.234612703 0.445501268
vt 0.00161457062 0.445501506
vt 0.00161457062 0.554498494
vt 0.00161457062 0.556858063
vt 0.234612763 0.556858182
vt 0.234612763 0.554498613
vt 0.998385429 0.556858063
vt 0.998385429 0.554498553
vt 0.765387237 0.554498613
vt 0.765387237 0.556858182
vt 0.503425121 0.554498851
vt 0.270427018 0.554498672
vt 0.270427018 0.556858182
vt 0.503425121 0.55685842
vt 0.496574879 0.55685842
vt 0.729573011 0.556858182
vt 0.729573011 0.554498672
vt 0.496574879 0.554498851
vt 0.00161457062 0.554498494
vt 0.00161457062 0.556858063
vt 0.234612763 0.556858182
vt 0.234612763 0.554498613
vt 0.998385429 0.556858063
vt 0.998385429 0.554498553
vt 0.765387237 0.554498613
vt 0.765387237 0.556858182
vt 0.998385429 0.554499209
vt 0.765387177 0.554498971
vt 0.765387177 0.55685854
vt 0.998385429 0.556858778
vt 0.00161457062 0.556858778
vt 0.234612823 0.55685854
vt 0.234612823 0.554498971
vt 0.00161457062 0.554499209
vt 0.477199078 0.998385429
vt 0.522802055 0.998385429
vt 0.522801876 0.765387237
vt 0.477198839 0.765387237
vt 0.477198482 0.496574879
vt 0.47719878 0.729573011
vt 0.522801816 0.729573011
vt 0.522801518 0.496574879
vt 0.477199078 0.998385429
vt 0.522802055 0.998385429
vt 0.522801876 0.765387237
vt 0.477198839 0.765387237
vt 0.477197886 0.00161457062
vt 0.477198184 0.234612823
vt 0.52280128 0.234612823
vt 0.522800922 0.00161457062
vt 0.235727787 0.44550091
vt 0.234612763 0.44550091
vt 0.234612763 0.554498613
vt 0.235727787 0.554498613
vt 0.764272213 0.554498613
vt 0.765387237 0.554498613
vt 0.765387237 0.44550091
vt 0.764272213 0.44550091
vt 0.269311994 0.44550091
vt 0.269311965 0.554498672
vt 0.270427018 0.554498672
vt 0.270427018 0.44550091
vt 0.730688035 0.554498672
vt 0.730687976 0.44550091
vt 0.729573011 0.44550091
vt 0.729573011 0.554498672
vt 0.235727787 0.44550091
vt 0.234612763 0.44550091
vt 0.234612763 0.554498613
vt 0.235727787 0.554498613
vt 0.764272213 0.554498613
vt 0.765387237 0.554498613
vt 0.765387237 0.44550091
vt 0.764272213 0.44550091
vt 0.269311965 0.44550091
vt 0.269311965 0.554498613
vt 0.270426989 0.554498613
vt 0.270427018 0.44550091
vt 0.730688035 0.554498613
vt 0.730688035 0.44550091
vt 0.729573011 0.44550091
vt 0.729573011 0.554498613
vt 0.765387237 0.554498613
vt 0.764272213 0.554498613
vt 0.765387237 0.556858182
vt 0.234612763 0.556858182
vt 0.235727787 0.554498613
vt 0.234612763 0.554498613
vt 0.729573011 0.554498672
vt 0.729573011 0.556858182
vt 0.730688035 0.554498672
vt 0.270427018 0.556858182
vt 0.270427018 0.554498672
vt 0.269311965 0.554498672
vt 0.477198839 0.764272213
vt 0.477198839 0.765387237
vt 0.522801876 0.765387237
vt 0.522801876 0.764272213
vt 0.47719878 0.730688035
vt 0.522801816 0.730688035
vt 0.522801816 0.729573011
vt 0.47719878 0.729573011
vt 0.522801876 0.44550091
vt 0.477198899 0.44550091
vt 0.477198839 0.554498613
vt 0.522801876 0.554498613
vt 0.477198124 0.44550091
vt 0.477198184 0.554498672
vt 0.52280122 0.554498672
vt 0.522801161 0.44550091
vt 0.522801876 0.44550091
vt 0.477198899 0.44550091
vt 0.477198839 0.554498613
vt 0.522801876 0.554498613
vt 0.477198124 0.44550091
vt 0.477198184 0.554498613
vt 0.52280122 0.554498613
vt 0.522801161 0.44550091
vt 0.00161457062 0.443141222
vt 0.00161457062 0.445500791
vt 0.234612763 0.44550091
vt 0.234612763 0.443141341
vt 0.765387237 0.443141341
vt 0.765387237 0.44550091
vt 0.998385429 0.445500791
vt 0.998385429 0.443141222
vt 0.503425241 0.44314158
vt 0.270427018 0.443141341
vt 0.270427018 0.44550091
vt 0.503425241 0.445501149
vt 0.729573011 0.443141341
vt 0.496574759 0.44314158
vt 0.496574759 0.445501149
vt 0.729573011 0.44550091
vt 0.765387237 0.443141341
vt 0.764272213 0.44550091
vt 0.765387237 0.44550091
vt 0.234612763 0.44550091
vt 0.235727787 0.44550091
vt 0.234612763 0.443141341
vt 0.729573011 0.443141341
vt 0.729573011 0.44550091
vt 0.730688035 0.44550091
vt 0.270427018 0.44550091
vt 0.270427018 0.443141341
vt 0.269311965 0.44550091
vt 0.477197886 0.998385429
vt 0.522800922 0.998385429
vt 0.522801101 0.765387237
vt 0.477198094 0.765387237
vt 0.477198482 0.496574759
vt 0.477198124 0.729573011
vt 0.522801161 0.729573011
vt 0.522801518 0.496574759
vt 0.477198124 0.764272213
vt 0.477198094 0.765387237
vt 0.522801101 0.765387237
vt 0.522801101 0.764272213
vt 0.477198124 0.730688035
vt 0.522801161 0.730688035
vt 0.522801161 0.729573011
vt 0.477198124 0.729573011
vt 0.765387237 0.443141341
vt 0.764272213 0.44550091
vt 0.765387237 0.44550091
vt 0.234612763 0.44550091
vt 0.235727787 0.44550091
vt 0.234612763 0.443141341
vt 0.234612703 0.443141699
vt 0.234612703 0.445501268
vt 0.235727787 0.445501268
vt 0.765387297 0.445501268
vt 0.765387297 0.443141699
vt 0.764272213 0.445501268
vt 0.477198124 0.764272213
vt 0.477198094 0.765387237
vt 0.522801101 0.765387237
vt 0.522801101 0.764272213
vt 0.47719872 0.235727787
vt 0.522801757 0.235727787
vt 0.522801757 0.234612703
vt 0.47719872 0.234612703
vt 0.765387237 0.554498613
vt 0.764272213 0.554498613
vt 0.765387237 0.556858182
vt 0.234612763 0.556858182
vt 0.235727787 0.554498613
vt 0.234612763 0.554498613
vt 0.234612823 0.554498971
vt 0.234612823 0.55685854
vt 0.235727787 0.554498971
vt 0.765387177 0.55685854
vt 0.765387177 0.554498971
vt 0.764272213 0.554498971
vt 0.235727787 0.44550091
vt 0.234612763 0.44550091
vt 0.234612763 0.554498613
vt 0.235727787 0.554498613
vt 0.764272213 0.554498613
vt 0.765387237 0.554498613
vt 0.765387237 0.44550091
vt 0.764272213 0.44550091
vt 0.764272213 0.445501268
vt 0.764272213 0.554498971
vt 0.765387177 0.554498971
vt 0.765387177 0.554498971
vt 0.765387297 0.445501268
vt 0.764272213 0.445501268
vt 0.235727787 0.554498971
vt 0.235727787 0.445501268
vt 0.234612703 0.445501268
vt 0.234612703 0.445501268
vt 0.234612823 0.554498971
vt 0.235727787 0.554498971
vt 0.477198839 0.764272213
vt 0.477198839 0.765387237
vt 0.522801876 0.765387237
vt 0.522801876 0.764272213
vt 0.477198184 0.235727787
vt 0.52280128 0.235727787
vt 0.52280128 0.234612823
vt 0.477198184 0.234612823
vt 0.522801876 0.44550091
vt 0.477198899 0.44550091
vt 0.477198839 0.554498613
vt 0.522801876 0.554498613
vt 0.47719872 0.445501268
vt 0.47719875 0.554498971
vt 0.522801816 0.554498971
vt 0.522801757 0.445501268
f 1/1 2/2 3/3
f 3/3 4/4 1/1
f 5/5 6/6 7/7
f 7/7 8/8 5/5
f 9/9 10/10 11/11
f 11/11 12/12 9/9
f 13/13 14/14 15/15
f 15/15 16/16 13/13
f 17/17 18/18 19/19
f 19/19 20/20 17/17
f 21/21 22/22 23/23
f 23/23 24/24 21/21
f 25/25 26/26 27/27
f 27/27 28/28 25/25
f 29/29 30/30 31/31
f 31/31 32/32 29/29
f 33/33 34/34 35/35
f 35/35 36/36 33/33
f 37/37 38/38 39/39
f 39/39 40/40 37/37
f 41/41 42/42 43/43
f 44/44 45/45 46/46
f 47/47 48/48 49/49
f 50/50 51/51 52/52
f 53/53 54/54 55/55
f 56/56 57/57 58/58
f 59/59 60/60 61/61
f 62/62 63/63 64/64
f 65/65 66/66 67/67
f 67/67 68/68 65/65
f 69/69 70/70 71/71
f 71/71 72/72 69/69
f 73/73 74/74 75/75
f 75/75 76/76 73/73
f 77/77 78/78 79/79
f 79/79 80/80 77/77
f 81/81 82/82 83/83
f 83/83 84/84 81/81
f 85/85 86/86 87/87
f 87/87 88/88 85/85
f 89/89 90/90 91/91
f 91/91 92/92 89/89
f 93/93 94/94 95/95
f 95/95 96/96 93/93
f 97/97 98/98 99/99
f 100/100 101/101 102/102
f 103/103 104/104 105/105
f 106/106 107/107 108/108
f 109/109 110/110 111/111
f 111/111 112/112 109/109
f 113/113 114/114 115/115
f 115/115 116/116 113/113
f 117/117 118/118 119/119
f 120/120 121/121 122/122
f 123/123 124/124 125/125
f 126/126 127/127 128/128
f 129/129 130/130 131/131
f 131/131 132/132 129/129
f 133/133 134/134 135/135
f 135/135 136/136 133/133
f 137/137 138/138 139/139
f 140/140 141/141 142/142
f 143/143 144/144 145/145
f 146/146 147/147 148/148
f 149/149 150/150 151/151
f 152/152 153/153 154/154
f 155/155 156/156 157/157
f 158/158 159/159 160/160
f 161/161 162/162 163/163
f 163/163 164/164 161/161
f 165/165 166/166 167/167
f 167/167 168/168 165/165
f 169/169 170/170 171/171
f 171/171 172/172 169/169
f 173/173 174/174 175/175
f 175/175 176/176 173/173
f 177/177 178/178 179/179
f 180/180 181/181 182/182
f 183/183 184/184 185/185
f 186/186 187/187 188/188
f 189/189 190/190 191/191
f 192/192 193/193 194/194
f 195/195 196/196 197/197
f 198/198 199/199 200/200
f 201/201 202/202 203/203
f 203/203 204/204 201/201
f 205/205 206/206 207/207
f 207/207 208/208 205/205
f 209/209 210/210 211/211
f 211/211 212/212 209/209
f 213/213 214/214 215/215
f 215/215 216/216 213/213
f 217/217 218/218 219/219
f 219/219 220/220 217/217
f 221/221 222/222 223/223
f 223/223 224/224 221/221
f 225/225 226/226 227/227
f 227/227 228/228 225/225
f 229/229 230/230 231/231
f 231/231 232/232 229/229
f 233/233 234/234 235/235
f 235/235 236/236 233/233
f 237/237 238/238 239/239
f 239/239 240/240 237/237
f 241/241 242/242 243/243
f 243/243 244/244 241/241
f 245/245 246/246 247/247
f 247/247 248/248 245/245
f 249/249 250/250 251/251
f 251/251 252/252 249/249
f 253/253 254/254 255/255
f 255/255 256/256 253/253
f 257/257 258/258 259/259
f 259/259 260/260 257/257
f 261/261 262/262 263/263
f 263/263 264/264 261/261
f 265/265 266/266 267/267
f 267/267 268/268 265/265
f 269/269 270/270 271/271
f 271/271 272/272 269/269
f 273/273 274/274 275/275
f 275/275 276/276 273/273
f 277/277 278/278 279/279
f 279/279 280/280 277/277
f 281/281 282/282 283/283
f 284/284 285/285 286/286
f 287/287 288/288 289/289
f 290/290 291/291 292/292
f 293/293 294/294 295/295
f 295/295 296/296 293/293
f 297/297 298/298 299/299
f 299/299 300/300 297/297
f 301/301 302/302 303/303
f 304/304 305/305 306/306
f 307/307 308/308 309/309
f 310/310 311/311 312/312
f 313/313 314/314 315/315
f 315/315 316/316 313/313
f 317/317 318/318 319/319
f 319/319 320/320 317/317
f 321/321 322/322 323/323
f 323/323 324/324 321/321
f 325/325 326/326 327/327
f 327/327 328/328 325/325
f 329/329 330/330 331/331
f 331/331 332/332 329/329
f 333/333 334/334 335/335
f 335/335 336/336 333/333
f 337/337 338/338 339/339
f 339/339 340/340 337/337
f 341/341 342/342 343/343
f 343/343 344/344 341/341
f 345/345 346/346 347/347
f 347/347 348/348 345/345
f 349/349 350/350 351/351
f 351/351 352/352 349/349
f 353/353 354/354 355/355
f 355/355 356/356 353/353
f 357/357 358/358 359/359
f 359/359 360/360 357/357
f 361/361 362/362 363/363
f 363/363 364/364 361/361
f 365/365 366/366 367/367
f 367/367 368/368 365/365
f 369/369 370/370 371/371
f 371/371 372/372 369/369
f 373/373 374/374 375/375
f 375/375 376/376 373/373
f 377/377 378/378 379/379
f 379/379 380/380 377/377
f 381/381 382/382 383/383
f 383/383 384/384 381/381
f 385/385 386/386 387/387
f 387/387 388/388 385/385
f 389/389 390/390 391/391
f 391/391 392/392 389/389
f 393/393 394/394 395/395
f 395/395 396/396 393/393
f 397/397 398/398 399/399
f 399/399 400/400 397/397
f 401/401 402/402 403/403
f 403/403 404/404 401/401
f 405/405 406/406 407/407
f 407/407 408/408 405/405
f 409/409 410/410 411/411
f 411/411 412/412 409/409
f 413/413 414/414 415/415
f 415/415 416/416 413/413
f 417/417 418/418 419/419
f 419/419 420/420 417/417
f 421/421 422/422 423/423
f 423/423 424/424 421/421
f 425/425 426/426 427/427
f 427/427 428/428 425/425
f 429/429 430/430 431/431
f 431/431 432/432 429/429
f 433/433 434/434 435/435
f 435/435 436/436 433/433
f 437/437 438/438 439/439
f 439/439 440/440 437/437
f 441/441 442/442 443/443
f 444/444 445/445 446/446
f 447/447 448/448 449/449
f 450/450 451/451 452/452
f 453/453 454/454 455/455
f 455/455 456/456 453/453
f 457/457 458/458 459/459
f 459/459 460/460 457/457
f 461/461 462/462 463/463
f 463/463 464/464 461/461
f 465/465 466/466 467/467
f 467/467 468/468 465/465
f 469/469 470/470 471/471
f 471/471 472/472 469/469
f 473/473 474/474 475/475
f 475/475 476/476 473/473
f 477/477 478/478 479/479
f 479/479 480/480 477/477
f 481/481 482/482 483/483
f 483/483 484/484 481/481
f 485/485 486/486 487/487
f 487/487 488/488 485/485
f 489/489 490/490 491/491
f 491/491 492/492 489/489
f 493/493 494/494 495/495
f 496/496 497/497 498/498
f 499/499 500/500 501/501
f 502/502 503/503 504/504
f 505/505 506/506 507/507
f 507/507 508/508 505/505
f 509/509 510/510 511/511
f 511/511 512/512 509/509
f 513/513 514/514 515/515
f 515/515 516/516 513/513
f 517/517 518/518 519/519
f 519/519 520/520 517/517
f 521/521 522/522 523/523
f 524/524 525/525 526/526
f 527/527 528/528 529/529
f 530/530 531/531 532/532
f 533/533 534/534 535/535
f 535/535 536/536 533/533
f 537/537 538/538 539/539
f 539/539 540/540 537/537
f 541/541 542/542 543/543
f 544/544 545/545 546/546
f 547/547 548/548 549/549
f 550/550 551/551 552/552
f 553/553 554/554 555/555
f 555/555 556/556 553/553
f 557/557 558/558 559/559
f 559/559 560/560 557/557
f 561/561 562/562 563/563
f 564/564 565/565 566/566
f 567/567 568/568 569/569
f 570/570 571/571 572/572
f 573/573 574/574 575/575
f 575/575 576/576 573/573
f 577/577 578/578 579/579
f 579/579 580/580 577/577
f 581/581 582/582 583/583
f 583/583 584/584 581/581
f 585/585 586/586 587/587
f 587/587 588/588 585/585
