v 0.799171388 -0.247309476 0.976971984
v 0.796385407 -0.257524669 0.976971984
v 0.796385407 -0.257524699 0.957196474
v 0.799171388 -0.247309521 0.957196474
v -0.799171388 -0.247309521 0.957196474
v -0.796385407 -0.257524699 0.957196474
v -0.796385407 -0.257524669 0.976971984
v -0.799171388 -0.247309476 0.976971984
v 0.796385407 0.292942673 0.976971984
v 0.799171388 0.28272748 0.976971984
v 0.799171388 0.28272745 0.957196474
v 0.796385407 0.292942643 0.957196474
v -0.799171388 0.28272748 0.976971984
v -0.796385407 0.292942673 0.976971984
v -0.796385407 0.292942643 0.957196474
v -0.799171388 0.28272745 0.957196474
v 0.796385407 -0.257524669 0.976971984
v 0.791742146 -0.265882552 0.976971984
v 0.791742146 -0.265882581 0.957196474
v 0.796385407 -0.257524699 0.957196474
v -0.796385407 -0.257524699 0.957196474
v -0.791742146 -0.265882581 0.957196474
v -0.791742146 -0.265882552 0.976971984
v -0.796385407 -0.257524669 0.976971984
v 0.791742146 0.301300555 0.976971984
v 0.796385407 0.292942673 0.976971984
v 0.796385407 0.292942643 0.957196474
v 0.791742146 0.301300526 0.957196474
v -0.796385407 0.292942673 0.976971984
v -0.791742146 0.301300526 0.976971984
v -0.791742146 0.301300496 0.957196474
v -0.796385407 0.292942643 0.957196474
v 0.799171388 0.28272748 0.976971984
v 0.800100029 0.270655006 0.976971984
v 0.800100029 0.270654947 0.957196474
v 0.799171388 0.28272745 0.957196474
v 0.800100029 -0.235237002 0.976971984
v 0.799171388 -0.247309476 0.976971984
v 0.799171388 -0.247309521 0.957196474
v 0.800100029 -0.235237032 0.957196474
v -0.800100029 -0.235237032 0.957196474
v -0.799171388 -0.247309521 0.957196474
v -0.799171388 -0.247309476 0.976971984
v -0.800100029 -0.235237002 0.976971984
v -0.800100029 0.270655006 0.976971984
v -0.799171388 0.28272748 0.976971984
v -0.799171388 0.28272745 0.957196474
v -0.800100029 0.270654947 0.957196474
v 0.800100029 -0.235237032 0.957196474
v 0.800100029 0.270654947 0.957196474
v 0.800100029 0.270655006 0.976971984
v 0.800100029 -0.235237002 0.976971984
v -0.800100029 0.270654947 0.957196474
v -0.800100029 -0.235237032 0.957196474
v -0.800100029 -0.235237002 0.976971984
v -0.800100029 0.270655006 0.976971984
v 0.791742146 -0.265882552 0.976971984
v 0.785241544 -0.272383124 0.976971984
v 0.785241544 -0.272383153 0.957196474
v 0.791742146 -0.265882581 0.957196474
v -0.791742146 -0.265882581 0.957196474
v -0.785241544 -0.272383153 0.957196474
v -0.785241544 -0.272383124 0.976971984
v -0.791742146 -0.265882552 0.976971984
v 0.785241544 0.307801127 0.976971984
v 0.791742146 0.301300555 0.976971984
v 0.791742146 0.301300526 0.957196474
v 0.785241544 0.307801098 0.957196474
v -0.791742146 0.301300526 0.976971984
v -0.785241544 0.307801127 0.976971984
v -0.785241544 0.307801098 0.957196474
v -0.791742146 0.301300496 0.957196474
v 0.785241544 -0.272383124 0.976971984
v 0.776883721 -0.277026385 0.976971984
v 0.776883721 -0.277026415 0.957196474
v 0.785241544 -0.272383153 0.957196474
v -0.785241544 -0.272383153 0.957196474
v -0.776883721 -0.277026415 0.957196474
v -0.776883721 -0.277026385 0.976971984
v -0.785241544 -0.272383124 0.976971984
v 0.776883721 0.312444389 0.976971984
v 0.785241544 0.307801127 0.976971984
v 0.785241544 0.307801098 0.957196474
v 0.776883721 0.312444329 0.957196474
v -0.785241544 0.307801127 0.976971984
v -0.776883721 0.312444389 0.976971984
v -0.776883721 0.312444329 0.957196474
v -0.785241544 0.307801098 0.957196474
v -0.799171388 -0.247309521 0.957196474
v -0.798252881 -0.247150421 0.956268489
v -0.79551965 -0.257172197 0.956268489
v -0.79551965 -0.257172197 0.956268489
v -0.796385407 -0.257524699 0.957196474
v -0.799171388 -0.247309521 0.957196474
v 0.796385407 -0.257524699 0.957196474
v 0.79551965 -0.257172197 0.956268489
v 0.798252881 -0.247150421 0.956268489
v 0.798252881 -0.247150421 0.956268489
v 0.799171388 -0.247309521 0.957196474
v 0.796385407 -0.257524699 0.957196474
v -0.796385407 0.292942643 0.957196474
v -0.79551965 0.292590111 0.956268489
v -0.798252881 0.282568365 0.956268489
v -0.798252881 0.282568365 0.956268489
v -0.799171388 0.28272745 0.957196474
v -0.796385407 0.292942643 0.957196474
v 0.799171388 0.28272745 0.957196474
v 0.798252881 0.282568365 0.956268489
v 0.79551965 0.292590111 0.956268489
v 0.79551965 0.292590111 0.956268489
v 0.796385407 0.292942643 0.957196474
v 0.799171388 0.28272745 0.957196474
v -0.796385407 -0.257524669 0.976971984
v -0.79551965 -0.257172167 0.977900028
v -0.798252881 -0.247150391 0.977900028
v -0.798252881 -0.247150391 0.977900028
v -0.799171388 -0.247309476 0.976971984
v -0.796385407 -0.257524669 0.976971984
v 0.799171388 -0.247309476 0.976971984
v 0.798252881 -0.247150391 0.977900028
v 0.79551965 -0.257172167 0.977900028
v 0.79551965 -0.257172167 0.977900028
v 0.796385407 -0.257524669 0.976971984
v 0.799171388 -0.247309476 0.976971984
v -0.799171388 0.28272748 0.976971984
v -0.798252881 0.282568395 0.977900028
v -0.79551965 0.292590141 0.977900028
v -0.79551965 0.292590141 0.977900028
v -0.796385407 0.292942673 0.976971984
v -0.799171388 0.28272748 0.976971984
v 0.796385407 0.292942673 0.976971984
v 0.79551965 0.292590141 0.977900028
v 0.798252881 0.282568395 0.977900028
v 0.798252881 0.282568395 0.977900028
v 0.799171388 0.28272748 0.976971984
v 0.796385407 0.292942673 0.976971984
v -0.796385407 -0.257524699 0.957196474
v -0.79551965 -0.257172197 0.956268489
v -0.790994048 -0.265318274 0.956268489
v -0.791742146 -0.265882581 0.957196474
v 0.791742146 -0.265882581 0.957196474
v 0.790994048 -0.265318274 0.956268489
v 0.79551965 -0.257172197 0.956268489
v 0.796385407 -0.257524699 0.957196474
v -0.791742146 0.301300496 0.957196474
v -0.790994048 0.300736189 0.956268489
v -0.79551965 0.292590111 0.956268489
v -0.796385407 0.292942643 0.957196474
v 0.796385407 0.292942643 0.957196474
v 0.79551965 0.292590111 0.956268489
v 0.790994048 0.300736219 0.956268489
v 0.790994048 0.300736219 0.956268489
v 0.791742146 0.301300526 0.957196474
v 0.796385407 0.292942643 0.957196474
v -0.791742146 -0.265882552 0.976971984
v -0.790994048 -0.265318215 0.977900028
v -0.79551965 -0.257172167 0.977900028
v -0.796385407 -0.257524669 0.976971984
v 0.796385407 -0.257524669 0.976971984
v 0.79551965 -0.257172167 0.977900028
v 0.790994048 -0.265318215 0.977900028
v 0.791742146 -0.265882552 0.976971984
v -0.796385407 0.292942673 0.976971984
v -0.79551965 0.292590141 0.977900028
v -0.790994048 0.300736219 0.977900028
v -0.791742146 0.301300526 0.976971984
v 0.791742146 0.301300555 0.976971984
v 0.790994048 0.300736248 0.977900028
v 0.79551965 0.292590141 0.977900028
v 0.796385407 0.292942673 0.976971984
v -0.800100029 -0.235237032 0.957196474
v -0.799171984 -0.235201389 0.956268489
v -0.798252881 -0.247150421 0.956268489
v -0.798252881 -0.247150421 0.956268489
v -0.799171388 -0.247309521 0.957196474
v -0.800100029 -0.235237032 0.957196474
v 0.800100029 0.270654947 0.957196474
v 0.799171984 0.270619303 0.956268489
v 0.798252881 0.282568365 0.956268489
v 0.798252881 0.282568365 0.956268489
v 0.799171388 0.28272745 0.957196474
v 0.800100029 0.270654947 0.957196474
v 0.800100029 -0.235237002 0.976971984
v 0.799171984 -0.235201344 0.977900028
v 0.798252881 -0.247150391 0.977900028
v 0.798252881 -0.247150391 0.977900028
v 0.799171388 -0.247309476 0.976971984
v 0.800100029 -0.235237002 0.976971984
v -0.800100029 0.270655006 0.976971984
v -0.799171984 0.270619333 0.977900028
v -0.798252881 0.282568395 0.977900028
v -0.798252881 0.282568395 0.977900028
v -0.799171388 0.28272748 0.976971984
v -0.800100029 0.270655006 0.976971984
v 0.799171388 -0.247309521 0.957196474
v 0.798252881 -0.247150421 0.956268489
v 0.799171984 -0.235201389 0.956268489
v 0.799171984 -0.235201389 0.956268489
v 0.800100029 -0.235237032 0.957196474
v 0.799171388 -0.247309521 0.957196474
v -0.799171388 0.28272745 0.957196474
v -0.798252881 0.282568365 0.956268489
v -0.799171984 0.270619303 0.956268489
v -0.799171984 0.270619303 0.956268489
v -0.800100029 0.270654947 0.957196474
v -0.799171388 0.28272745 0.957196474
v -0.799171388 -0.247309476 0.976971984
v -0.798252881 -0.247150391 0.977900028
v -0.799171984 -0.235201344 0.977900028
v -0.799171984 -0.235201344 0.977900028
v -0.800100029 -0.235237002 0.976971984
v -0.799171388 -0.247309476 0.976971984
v 0.799171388 0.28272748 0.976971984
v 0.798252881 0.282568395 0.977900028
v 0.799171984 0.270619333 0.977900028
v 0.799171984 0.270619333 0.977900028
v 0.800100029 0.270655006 0.976971984
v 0.799171388 0.28272748 0.976971984
v -0.799171984 -0.235201389 0.956268489
v -0.800100029 -0.235237032 0.957196474
v -0.800100029 0.270654947 0.957196474
v -0.799171984 0.270619303 0.956268489
v 0.799171984 0.270619303 0.956268489
v 0.800100029 0.270654947 0.957196474
v 0.800100029 -0.235237032 0.957196474
v 0.799171984 -0.235201389 0.956268489
v 0.799171984 -0.235201344 0.977900028
v 0.800100029 -0.235237002 0.976971984
v 0.800100029 0.270655006 0.976971984
v 0.799171984 0.270619333 0.977900028
v -0.799171984 0.270619333 0.977900028
v -0.800100029 0.270655006 0.976971984
v -0.800100029 -0.235237002 0.976971984
v -0.799171984 -0.235201344 0.977900028
v -0.791742146 -0.265882581 0.957196474
v -0.790994048 -0.265318274 0.956268489
v -0.784677267 -0.271635056 0.956268489
v -0.784677267 -0.271635056 0.956268489
v -0.785241544 -0.272383153 0.957196474
v -0.791742146 -0.265882581 0.957196474
v 0.785241544 -0.272383153 0.957196474
v 0.784677267 -0.271635056 0.956268489
v 0.790994048 -0.265318274 0.956268489
v 0.790994048 -0.265318274 0.956268489
v 0.791742146 -0.265882581 0.957196474
v 0.785241544 -0.272383153 0.957196474
v -0.785241544 0.307801098 0.957196474
v -0.784677267 0.30705297 0.956268489
v -0.790994048 0.300736189 0.956268489
v -0.790994048 0.300736189 0.956268489
v -0.791742146 0.301300496 0.957196474
v -0.785241544 0.307801098 0.957196474
v 0.791742146 0.301300526 0.957196474
v 0.790994048 0.300736219 0.956268489
v 0.784677267 0.30705297 0.956268489
v 0.784677267 0.30705297 0.956268489
v 0.785241544 0.307801098 0.957196474
v 0.791742146 0.301300526 0.957196474
v -0.785241544 -0.272383124 0.976971984
v -0.784677267 -0.271634996 0.977900028
v -0.790994048 -0.265318215 0.977900028
v -0.790994048 -0.265318215 0.977900028
v -0.791742146 -0.265882552 0.976971984
v -0.785241544 -0.272383124 0.976971984
v 0.791742146 -0.265882552 0.976971984
v 0.790994048 -0.265318215 0.977900028
v 0.784677267 -0.271634996 0.977900028
v 0.784677267 -0.271634996 0.977900028
v 0.785241544 -0.272383124 0.976971984
v 0.791742146 -0.265882552 0.976971984
v -0.791742146 0.301300526 0.976971984
v -0.790994048 0.300736219 0.977900028
v -0.784677267 0.307053 0.977900028
v -0.784677267 0.307053 0.977900028
v -0.785241544 0.307801127 0.976971984
v -0.791742146 0.301300526 0.976971984
v 0.785241544 0.307801127 0.976971984
v 0.784677267 0.307053 0.977900028
v 0.790994048 0.300736248 0.977900028
v 0.790994048 0.300736248 0.977900028
v 0.791742146 0.301300555 0.976971984
v 0.785241544 0.307801127 0.976971984
v 0.776883721 -0.277026385 0.976971984
v 0.766668558 -0.279812336 0.976971984
v 0.766668558 -0.279812396 0.957196474
v 0.776883721 -0.277026415 0.957196474
v -0.776883721 -0.277026415 0.957196474
v -0.766668558 -0.279812396 0.957196474
v -0.766668558 -0.279812336 0.976971984
v -0.776883721 -0.277026385 0.976971984
v 0.766668558 0.31523034 0.976971984
v 0.776883721 0.312444389 0.976971984
v 0.776883721 0.312444329 0.957196474
v 0.766668558 0.31523031 0.957196474
v -0.776883721 0.312444389 0.976971984
v -0.766668558 0.31523034 0.976971984
v -0.766668558 0.31523031 0.957196474
v -0.776883721 0.312444329 0.957196474
v -0.785241544 -0.272383153 0.957196474
v -0.784677267 -0.271635056 0.956268489
v -0.77653116 -0.276160628 0.956268489
v -0.77653116 -0.276160628 0.956268489
v -0.776883721 -0.277026415 0.957196474
v -0.785241544 -0.272383153 0.957196474
v 0.776883721 -0.277026415 0.957196474
v 0.77653116 -0.276160628 0.956268489
v 0.784677267 -0.271635056 0.956268489
v 0.784677267 -0.271635056 0.956268489
v 0.785241544 -0.272383153 0.957196474
v 0.776883721 -0.277026415 0.957196474
v -0.776883721 0.312444329 0.957196474
v -0.77653116 0.311578542 0.956268489
v -0.784677267 0.30705297 0.956268489
v -0.784677267 0.30705297 0.956268489
v -0.785241544 0.307801098 0.957196474
v -0.776883721 0.312444329 0.957196474
v 0.785241544 0.307801098 0.957196474
v 0.784677267 0.30705297 0.956268489
v 0.77653116 0.311578542 0.956268489
v 0.77653116 0.311578542 0.956268489
v 0.776883721 0.312444329 0.957196474
v 0.785241544 0.307801098 0.957196474
v -0.776883721 -0.277026385 0.976971984
v -0.77653116 -0.276160598 0.977900028
v -0.784677267 -0.271634996 0.977900028
v -0.784677267 -0.271634996 0.977900028
v -0.785241544 -0.272383124 0.976971984
v -0.776883721 -0.277026385 0.976971984
v 0.785241544 -0.272383124 0.976971984
v 0.784677267 -0.271634996 0.977900028
v 0.77653116 -0.276160598 0.977900028
v 0.77653116 -0.276160598 0.977900028
v 0.776883721 -0.277026385 0.976971984
v 0.785241544 -0.272383124 0.976971984
v -0.785241544 0.307801127 0.976971984
v -0.784677267 0.307053 0.977900028
v -0.77653116 0.311578602 0.977900028
v -0.77653116 0.311578602 0.977900028
v -0.776883721 0.312444389 0.976971984
v -0.785241544 0.307801127 0.976971984
v 0.776883721 0.312444389 0.976971984
v 0.77653116 0.311578602 0.977900028
v 0.784677267 0.307053 0.977900028
v 0.784677267 0.307053 0.977900028
v 0.785241544 0.307801127 0.976971984
v 0.776883721 0.312444389 0.976971984
v 0.766668558 -0.279812336 0.976971984
v 0.754595995 -0.280741006 0.976971984
v 0.754595995 -0.280741036 0.957196474
v 0.766668558 -0.279812396 0.957196474
v -0.766668558 -0.279812396 0.957196474
v -0.754595995 -0.280741036 0.957196474
v -0.754595995 -0.280741006 0.976971984
v -0.766668558 -0.279812336 0.976971984
v -0.766668558 0.31523034 0.976971984
v -0.754595995 0.31615898 0.976971984
v -0.754595995 0.31615895 0.957196474
v -0.766668558 0.31523031 0.957196474
v 0.754595995 0.31615898 0.976971984
v 0.766668558 0.31523034 0.976971984
v 0.766668558 0.31523031 0.957196474
v 0.754595995 0.31615895 0.957196474
v -0.776883721 -0.277026415 0.957196474
v -0.77653116 -0.276160628 0.956268489
v -0.766509473 -0.278893858 0.956268489
v -0.766509473 -0.278893858 0.956268489
v -0.766668558 -0.279812396 0.957196474
v -0.776883721 -0.277026415 0.957196474
v 0.766668558 -0.279812396 0.957196474
v 0.766509473 -0.278893858 0.956268489
v 0.77653116 -0.276160628 0.956268489
v 0.77653116 -0.276160628 0.956268489
v 0.776883721 -0.277026415 0.957196474
v 0.766668558 -0.279812396 0.957196474
v -0.766668558 0.31523031 0.957196474
v -0.766509473 0.314311773 0.956268489
v -0.77653116 0.311578542 0.956268489
v -0.77653116 0.311578542 0.956268489
v -0.776883721 0.312444329 0.957196474
v -0.766668558 0.31523031 0.957196474
v 0.776883721 0.312444329 0.957196474
v 0.77653116 0.311578542 0.956268489
v 0.766509473 0.314311773 0.956268489
v 0.766509473 0.314311773 0.956268489
v 0.766668558 0.31523031 0.957196474
v 0.776883721 0.312444329 0.957196474
v -0.766668558 -0.279812336 0.976971984
v -0.766509473 -0.278893828 0.977900028
v -0.77653116 -0.276160598 0.977900028
v -0.77653116 -0.276160598 0.977900028
v -0.776883721 -0.277026385 0.976971984
v -0.766668558 -0.279812336 0.976971984
v 0.776883721 -0.277026385 0.976971984
v 0.77653116 -0.276160598 0.977900028
v 0.766509473 -0.278893828 0.977900028
v 0.766509473 -0.278893828 0.977900028
v 0.766668558 -0.279812336 0.976971984
v 0.776883721 -0.277026385 0.976971984
v -0.776883721 0.312444389 0.976971984
v -0.77653116 0.311578602 0.977900028
v -0.766509473 0.314311832 0.977900028
v -0.766509473 0.314311832 0.977900028
v -0.766668558 0.31523034 0.976971984
v -0.776883721 0.312444389 0.976971984
v 0.766668558 0.31523034 0.976971984
v 0.766509473 0.314311832 0.977900028
v 0.77653116 0.311578602 0.977900028
v 0.77653116 0.311578602 0.977900028
v 0.776883721 0.312444389 0.976971984
v 0.766668558 0.31523034 0.976971984
v -0.754595995 -0.280741036 0.957196474
v 0.754595995 -0.280741036 0.957196474
v 0.754595995 -0.280741006 0.976971984
v -0.754595995 -0.280741006 0.976971984
v 0.754595995 0.31615895 0.957196474
v -0.754595995 0.31615895 0.957196474
v -0.754595995 0.31615898 0.976971984
v 0.754595995 0.31615898 0.976971984
v 0.754595995 -0.280741036 0.957196474
v 0.754560411 -0.279813021 0.956268489
v 0.766509473 -0.278893858 0.956268489
v 0.766668558 -0.279812396 0.957196474
v -0.754595995 0.31615895 0.957196474
v -0.754560411 0.315230936 0.956268489
v -0.766509473 0.314311773 0.956268489
v -0.766668558 0.31523031 0.957196474
v -0.754595995 -0.280741006 0.976971984
v -0.754560411 -0.279812962 0.977900028
v -0.766509473 -0.278893828 0.977900028
v -0.766668558 -0.279812336 0.976971984
v 0.754595995 0.31615898 0.976971984
v 0.754560411 0.315230966 0.977900028
v 0.766509473 0.314311832 0.977900028
v 0.766668558 0.31523034 0.976971984
v -0.766668558 -0.279812396 0.957196474
v -0.766509473 -0.278893858 0.956268489
v -0.754560411 -0.279813021 0.956268489
v -0.754595995 -0.280741036 0.957196474
v 0.766668558 0.31523031 0.957196474
v 0.766509473 0.314311773 0.956268489
v 0.754560411 0.315230936 0.956268489
v 0.754595995 0.31615895 0.957196474
v 0.766668558 -0.279812336 0.976971984
v 0.766509473 -0.278893828 0.977900028
v 0.754560411 -0.279812962 0.977900028
v 0.754595995 -0.280741006 0.976971984
v -0.766668558 0.31523034 0.976971984
v -0.766509473 0.314311832 0.977900028
v -0.754560411 0.315230966 0.977900028
v -0.754595995 0.31615898 0.976971984
v -0.754560411 0.315230936 0.956268489
v -0.754595995 0.31615895 0.957196474
v 0.754595995 0.31615895 0.957196474
v 0.754560411 0.315230936 0.956268489
v 0.754560411 -0.279813021 0.956268489
v 0.754595995 -0.280741036 0.957196474
v -0.754595995 -0.280741036 0.957196474
v -0.754560411 -0.279813021 0.956268489
v -0.754560411 -0.279812962 0.977900028
v -0.754595995 -0.280741006 0.976971984
v 0.754595995 -0.280741006 0.976971984
v 0.754560411 -0.279812962 0.977900028
v 0.754560411 0.315230966 0.977900028
v 0.754595995 0.31615898 0.976971984
v -0.754595995 0.31615898 0.976971984
v -0.754560411 0.315230966 0.977900028
v -0.799171984 -0.235201389 0.956268489
v -0.799171984 0.270619303 0.956268489
v -0.798252881 0.282568365 0.956268489
v -0.79551965 0.292590111 0.956268489
v -0.790994048 0.300736189 0.956268489
v -0.784677267 0.30705297 0.956268489
v -0.77653116 0.311578542 0.956268489
v -0.766509473 0.314311773 0.956268489
v -0.754560411 0.315230936 0.956268489
v 0.754560411 0.315230936 0.956268489
v 0.766509473 0.314311773 0.956268489
v 0.77653116 0.311578542 0.956268489
v 0.784677267 0.30705297 0.956268489
v 0.790994048 0.300736219 0.956268489
v 0.79551965 0.292590111 0.956268489
v 0.798252881 0.282568365 0.956268489
v 0.799171984 0.270619303 0.956268489
v 0.799171984 -0.235201389 0.956268489
v 0.798252881 -0.247150421 0.956268489
v 0.79551965 -0.257172197 0.956268489
v 0.790994048 -0.265318274 0.956268489
v 0.784677267 -0.271635056 0.956268489
v 0.77653116 -0.276160628 0.956268489
v 0.766509473 -0.278893858 0.956268489
v 0.754560411 -0.279813021 0.956268489
v -0.798252881 -0.247150421 0.956268489
v -0.79551965 -0.257172197 0.956268489
v -0.790994048 -0.265318274 0.956268489
v -0.784677267 -0.271635056 0.956268489
v -0.77653116 -0.276160628 0.956268489
v -0.766509473 -0.278893858 0.956268489
v -0.754560411 -0.279813021 0.956268489
v -0.754560411 -0.279812962 0.977900028
v 0.754560411 -0.279812962 0.977900028
v 0.766509473 -0.278893828 0.977900028
v 0.77653116 -0.276160598 0.977900028
v 0.784677267 -0.271634996 0.977900028
v 0.790994048 -0.265318215 0.977900028
v 0.79551965 -0.257172167 0.977900028
v 0.798252881 -0.247150391 0.977900028
v 0.799171984 -0.235201344 0.977900028
v 0.799171984 0.270619333 0.977900028
v 0.798252881 0.282568395 0.977900028
v 0.79551965 0.292590141 0.977900028
v 0.790994048 0.300736248 0.977900028
v 0.784677267 0.307053 0.977900028
v 0.77653116 0.311578602 0.977900028
v 0.766509473 0.314311832 0.977900028
v 0.754560411 0.315230966 0.977900028
v -0.754560411 0.315230966 0.977900028
v -0.766509473 0.314311832 0.977900028
v -0.77653116 0.311578602 0.977900028
v -0.784677267 0.307053 0.977900028
v -0.790994048 0.300736219 0.977900028
v -0.79551965 0.292590141 0.977900028
v -0.798252881 0.282568395 0.977900028
v -0.799171984 0.270619333 0.977900028
v -0.766509473 -0.278893828 0.977900028
v -0.77653116 -0.276160598 0.977900028
v -0.784677267 -0.271634996 0.977900028
v -0.790994048 -0.265318215 0.977900028
v -0.79551965 -0.257172167 0.977900028
v -0.798252881 -0.247150391 0.977900028
v -0.799171984 -0.235201344 0.977900028
vt 0.956568003 0.943991423
vt 0.95497632 0.961105168
vt 0.0450236388 0.961105168
vt 0.0434320234 0.943991423
vt 0.956568003 0.943991423
vt 0.95497632 0.961105168
vt 0.0450236388 0.961105168
vt 0.0434320234 0.943991423
vt 0.95497632 0.0388948321
vt 0.956568003 0.0560085773
vt 0.0434320234 0.0560085773
vt 0.045023635 0.0388948321
vt 0.0434320234 0.0560085773
vt 0.045023635 0.0388948321
vt 0.95497632 0.0388948321
vt 0.956568003 0.0560085773
vt 0.95497632 0.961105168
vt 0.952323616 0.975107312
vt 0.0476763472 0.975107312
vt 0.0450236388 0.961105168
vt 0.95497632 0.961105168
vt 0.952323616 0.975107312
vt 0.0476763472 0.975107312
vt 0.0450236388 0.961105168
vt 0.952323616 0.0248926878
vt 0.95497632 0.0388948321
vt 0.045023635 0.0388948321
vt 0.0476763472 0.0248926878
vt 0.045023635 0.0388948321
vt 0.0476763472 0.0248926878
vt 0.952323616 0.0248926878
vt 0.95497632 0.0388948321
vt 0.956568003 0.0560085773
vt 0.957098544 0.0762338638
vt 0.042901475 0.0762338638
vt 0.0434320234 0.0560085773
vt 0.957098544 0.923766136
vt 0.956568003 0.943991423
vt 0.0434320234 0.943991423
vt 0.042901475 0.923766136
vt 0.957098544 0.923766136
vt 0.956568003 0.943991423
vt 0.0434320234 0.943991423
vt 0.042901475 0.923766136
vt 0.042901475 0.0762338638
vt 0.0434320234 0.0560085773
vt 0.956568003 0.0560085773
vt 0.957098544 0.0762338638
vt 0.0762338713 0.957098544
vt 0.923766136 0.957098544
vt 0.923766136 0.0429014564
vt 0.0762338713 0.0429014564
vt 0.0762338713 0.957098544
vt 0.923766136 0.957098544
vt 0.923766136 0.0429014564
vt 0.0762338713 0.0429014564
vt 0.952323616 0.975107312
vt 0.948609829 0.985997856
vt 0.0513901338 0.985997856
vt 0.0476763472 0.975107312
vt 0.952323616 0.975107312
vt 0.948609829 0.985997856
vt 0.0513901338 0.985997856
vt 0.0476763472 0.975107312
vt 0.948609829 0.0140021443
vt 0.952323616 0.0248926878
vt 0.0476763472 0.0248926878
vt 0.0513901301 0.0140021443
vt 0.0476763472 0.0248926878
vt 0.0513901301 0.0140021443
vt 0.948609829 0.0140021443
vt 0.952323616 0.0248926878
vt 0.948609829 0.985997856
vt 0.94383502 0.993776798
vt 0.056165006 0.993776798
vt 0.0513901338 0.985997856
vt 0.948609829 0.985997856
vt 0.94383502 0.993776798
vt 0.056165006 0.993776798
vt 0.0513901338 0.985997856
vt 0.94383502 0.00622320175
vt 0.948609829 0.0140021443
vt 0.0513901301 0.0140021443
vt 0.056165006 0.00622320175
vt 0.0513901301 0.0140021443
vt 0.056165006 0.00622320175
vt 0.94383502 0.00622320175
vt 0.948609829 0.0140021443
vt 0.956568003 0.943991423
vt 0.998845696 0.943724871
vt 0.997137606 0.960514605
vt 0.997137606 0.960514605
vt 0.95497632 0.961105168
vt 0.956568003 0.943991423
vt 0.0450236388 0.961105168
vt 0.00286238291 0.960514605
vt 0.00115434546 0.943724871
vt 0.00115434546 0.943724871
vt 0.0434320234 0.943991423
vt 0.0450236388 0.961105168
vt 0.95497632 0.0388948321
vt 0.997137606 0.039485395
vt 0.998845696 0.0562751293
vt 0.998845696 0.0562751293
vt 0.956568003 0.0560085773
vt 0.95497632 0.0388948321
vt 0.0434320234 0.0560085773
vt 0.00115434499 0.0562751293
vt 0.00286238361 0.039485395
vt 0.00286238361 0.039485395
vt 0.045023635 0.0388948321
vt 0.0434320234 0.0560085773
vt 0.0450236388 0.961105168
vt 0.00286238291 0.960514605
vt 0.00115434546 0.943724871
vt 0.00115434546 0.943724871
vt 0.0434320234 0.943991423
vt 0.0450236388 0.961105168
vt 0.956568003 0.943991423
vt 0.998845696 0.943724871
vt 0.997137606 0.960514605
vt 0.997137606 0.960514605
vt 0.95497632 0.961105168
vt 0.956568003 0.943991423
vt 0.0434320234 0.0560085773
vt 0.00115434499 0.0562751293
vt 0.00286238361 0.039485395
vt 0.00286238361 0.039485395
vt 0.045023635 0.0388948321
vt 0.0434320234 0.0560085773
vt 0.95497632 0.0388948321
vt 0.997137606 0.039485395
vt 0.998845696 0.0562751293
vt 0.998845696 0.0562751293
vt 0.956568003 0.0560085773
vt 0.95497632 0.0388948321
vt 0.95497632 0.961105168
vt 0.997137606 0.960514605
vt 0.994309425 0.974161923
vt 0.952323616 0.975107312
vt 0.0476763472 0.975107312
vt 0.00569053087 0.974161923
vt 0.00286238291 0.960514605
vt 0.0450236388 0.961105168
vt 0.952323616 0.0248926878
vt 0.994309485 0.0258380771
vt 0.997137606 0.039485395
vt 0.95497632 0.0388948321
vt 0.045023635 0.0388948321
vt 0.00286238361 0.039485395
vt 0.00569053274 0.0258380771
vt 0.00569053274 0.0258380771
vt 0.0476763472 0.0248926878
vt 0.045023635 0.0388948321
vt 0.0476763472 0.975107312
vt 0.00569053087 0.974161923
vt 0.00286238291 0.960514605
vt 0.0450236388 0.961105168
vt 0.95497632 0.961105168
vt 0.997137606 0.960514605
vt 0.994309485 0.974161923
vt 0.952323616 0.975107312
vt 0.045023635 0.0388948321
vt 0.00286238361 0.039485395
vt 0.00569053274 0.0258380771
vt 0.0476763472 0.0248926878
vt 0.952323616 0.0248926878
vt 0.994309485 0.0258380771
vt 0.997137606 0.039485395
vt 0.95497632 0.0388948321
vt 0.957098544 0.923766136
vt 0.999420047 0.923706412
vt 0.998845696 0.943724871
vt 0.998845696 0.943724871
vt 0.956568003 0.943991423
vt 0.957098544 0.923766136
vt 0.923766136 0.957098544
vt 0.000579943182 0.0762935877
vt 0.00115434499 0.0562751293
vt 0.00115434499 0.0562751293
vt 0.0434320234 0.0560085773
vt 0.923766136 0.957098544
vt 0.957098544 0.923766136
vt 0.999420047 0.923706412
vt 0.998845696 0.943724871
vt 0.998845696 0.943724871
vt 0.956568003 0.943991423
vt 0.957098544 0.923766136
vt 0.042901475 0.0762338638
vt 0.000579943182 0.0762935877
vt 0.00115434499 0.0562751293
vt 0.00115434499 0.0562751293
vt 0.0434320234 0.0560085773
vt 0.042901475 0.0762338638
vt 0.0434320234 0.943991423
vt 0.00115434546 0.943724871
vt 0.000579943764 0.923706412
vt 0.000579943764 0.923706412
vt 0.042901475 0.923766136
vt 0.0434320234 0.943991423
vt 0.956568003 0.0560085773
vt 0.998845696 0.0562751293
vt 0.999420047 0.0762935877
vt 0.999420047 0.0762935877
vt 0.957098544 0.0762338638
vt 0.956568003 0.0560085773
vt 0.0434320234 0.943991423
vt 0.00115434546 0.943724871
vt 0.000579943764 0.923706412
vt 0.000579943764 0.923706412
vt 0.042901475 0.923766136
vt 0.0434320234 0.943991423
vt 0.956568003 0.0560085773
vt 0.998845696 0.0562751293
vt 0.999420047 0.0762935877
vt 0.999420047 0.0762935877
vt 0.923766136 0.0429014564
vt 0.956568003 0.0560085773
vt 0.999420047 0.923706412
vt 0.957098544 0.923766136
vt 0.957098544 0.0762338638
vt 0.999420047 0.0762935877
vt 0.000579943182 0.0762935877
vt 0.923766136 0.957098544
vt 0.042901475 0.923766136
vt 0.000579943764 0.923706412
vt 0.999420047 0.923706412
vt 0.957098544 0.923766136
vt 0.923766136 0.0429014564
vt 0.999420047 0.0762935877
vt 0.000579943182 0.0762935877
vt 0.042901475 0.0762338638
vt 0.042901475 0.923766136
vt 0.000579943764 0.923706412
vt 0.952323616 0.975107312
vt 0.994309425 0.974161923
vt 0.990361929 0.984744549
vt 0.990361929 0.984744549
vt 0.948609829 0.985997856
vt 0.952323616 0.975107312
vt 0.0513901338 0.985997856
vt 0.00963801704 0.984744549
vt 0.00569053087 0.974161923
vt 0.00569053087 0.974161923
vt 0.0476763472 0.975107312
vt 0.0513901338 0.985997856
vt 0.948609829 0.0140021443
vt 0.990361989 0.0152555108
vt 0.994309485 0.0258380771
vt 0.994309485 0.0258380771
vt 0.952323616 0.0248926878
vt 0.948609829 0.0140021443
vt 0.0476763472 0.0248926878
vt 0.00569053274 0.0258380771
vt 0.00963801704 0.0152555108
vt 0.00963801704 0.0152555108
vt 0.0513901301 0.0140021443
vt 0.0476763472 0.0248926878
vt 0.0513901338 0.985997856
vt 0.00963801704 0.984744549
vt 0.00569053087 0.974161923
vt 0.00569053087 0.974161923
vt 0.0476763472 0.975107312
vt 0.0513901338 0.985997856
vt 0.952323616 0.975107312
vt 0.994309485 0.974161923
vt 0.990361929 0.984744549
vt 0.990361929 0.984744549
vt 0.948609829 0.985997856
vt 0.952323616 0.975107312
vt 0.0476763472 0.0248926878
vt 0.00569053274 0.0258380771
vt 0.00963801611 0.0152555108
vt 0.00963801611 0.0152555108
vt 0.0513901301 0.0140021443
vt 0.0476763472 0.0248926878
vt 0.948609829 0.0140021443
vt 0.990361989 0.0152555108
vt 0.994309485 0.0258380771
vt 0.994309485 0.0258380771
vt 0.952323616 0.0248926878
vt 0.948609829 0.0140021443
vt 0.94383502 0.993776798
vt 0.93799907 0.9984442
vt 0.0620009527 0.9984442
vt 0.056165006 0.993776798
vt 0.94383502 0.993776798
vt 0.93799907 0.9984442
vt 0.0620009527 0.9984442
vt 0.056165006 0.993776798
vt 0.93799907 0.00155580044
vt 0.94383502 0.00622320175
vt 0.056165006 0.00622320175
vt 0.0620009527 0.00155580044
vt 0.056165006 0.00622320175
vt 0.0620009527 0.00155580044
vt 0.93799907 0.00155580044
vt 0.94383502 0.00622320175
vt 0.948609829 0.985997856
vt 0.990361929 0.984744549
vt 0.985271335 0.992326379
vt 0.985271335 0.992326379
vt 0.94383502 0.993776798
vt 0.948609829 0.985997856
vt 0.056165006 0.993776798
vt 0.0147286877 0.992326379
vt 0.00963801704 0.984744549
vt 0.00963801704 0.984744549
vt 0.0513901338 0.985997856
vt 0.056165006 0.993776798
vt 0.94383502 0.00622320175
vt 0.985271335 0.00767368078
vt 0.990361989 0.0152555108
vt 0.990361989 0.0152555108
vt 0.948609829 0.0140021443
vt 0.94383502 0.00622320175
vt 0.0513901301 0.0140021443
vt 0.00963801704 0.0152555108
vt 0.0147286877 0.00767368078
vt 0.0147286877 0.00767368078
vt 0.056165006 0.00622320175
vt 0.0513901301 0.0140021443
vt 0.056165006 0.993776798
vt 0.0147286877 0.992326379
vt 0.00963801704 0.984744549
vt 0.00963801704 0.984744549
vt 0.0513901338 0.985997856
vt 0.056165006 0.993776798
vt 0.948609829 0.985997856
vt 0.990361929 0.984744549
vt 0.985271335 0.992326379
vt 0.985271335 0.992326379
vt 0.94383502 0.993776798
vt 0.948609829 0.985997856
vt 0.0513901301 0.0140021443
vt 0.00963801611 0.0152555108
vt 0.0147286877 0.00767362118
vt 0.0147286877 0.00767362118
vt 0.056165006 0.00622320175
vt 0.0513901301 0.0140021443
vt 0.94383502 0.00622320175
vt 0.985271335 0.00767368078
vt 0.990361989 0.0152555108
vt 0.990361989 0.0152555108
vt 0.948609829 0.0140021443
vt 0.94383502 0.00622320175
vt 0.93799907 0.9984442
vt 0.931102037 1
vt 0.0688979924 1
vt 0.0620009527 0.9984442
vt 0.93799907 0.9984442
vt 0.931102037 1
vt 0.0688979924 1
vt 0.0620009527 0.9984442
vt 0.0620009527 0.00155580044
vt 0.0688979924 0
vt 0.931102037 0
vt 0.93799907 0.00155580044
vt 0.931102037 0
vt 0.93799907 0.00155580044
vt 0.0620009527 0.00155580044
vt 0.0688979924 0
vt 0.94383502 0.993776798
vt 0.985271335 0.992326379
vt 0.979008496 0.996905386
vt 0.979008496 0.996905386
vt 0.93799907 0.9984442
vt 0.94383502 0.993776798
vt 0.0620009527 0.9984442
vt 0.0209915042 0.996905386
vt 0.0147286877 0.992326379
vt 0.0147286877 0.992326379
vt 0.056165006 0.993776798
vt 0.0620009527 0.9984442
vt 0.93799907 0.00155580044
vt 0.979008496 0.00309461355
vt 0.985271335 0.00767368078
vt 0.985271335 0.00767368078
vt 0.94383502 0.00622320175
vt 0.93799907 0.00155580044
vt 0.056165006 0.00622320175
vt 0.0147286877 0.00767368078
vt 0.0209915023 0.00309461355
vt 0.0209915023 0.00309461355
vt 0.0620009527 0.00155580044
vt 0.056165006 0.00622320175
vt 0.0620009527 0.9984442
vt 0.0209915042 0.996905386
vt 0.0147286877 0.992326379
vt 0.0147286877 0.992326379
vt 0.056165006 0.993776798
vt 0.0620009527 0.9984442
vt 0.94383502 0.993776798
vt 0.985271335 0.992326379
vt 0.979008496 0.996905386
vt 0.979008496 0.996905386
vt 0.93799907 0.9984442
vt 0.94383502 0.993776798
vt 0.056165006 0.00622320175
vt 0.0147286877 0.00767362118
vt 0.0209915023 0.00309461355
vt 0.0209915023 0.00309461355
vt 0.0620009527 0.00155580044
vt 0.056165006 0.00622320175
vt 0.93799907 0.00155580044
vt 0.979008496 0.00309461355
vt 0.985271335 0.00767368078
vt 0.985271335 0.00767368078
vt 0.94383502 0.00622320175
vt 0.93799907 0.00155580044
vt 0.0284364428 0.957098544
vt 0.971563578 0.957098544
vt 0.971563578 0.0429014564
vt 0.0284364428 0.0429014564
vt 0.0284364428 0.957098544
vt 0.971563578 0.957098544
vt 0.971563578 0.0429014564
vt 0.0284364428 0.0429014564
vt 0.971563578 0.957098544
vt 0.0284587163 0.998445272
vt 0.0209915042 0.996905386
vt 0.0620009527 0.9984442
vt 0.971563578 0.957098544
vt 0.971541286 0.00155472755
vt 0.979008496 0.00309461355
vt 0.93799907 0.00155580044
vt 0.0284364428 0.0429014564
vt 0.0284587163 0.998445272
vt 0.0209915042 0.996905386
vt 0.0620009527 0.9984442
vt 0.931102037 0
vt 0.971541286 0.00155472755
vt 0.979008496 0.00309461355
vt 0.93799907 0.00155580044
vt 0.93799907 0.9984442
vt 0.979008496 0.996905386
vt 0.971541286 0.998445272
vt 0.0284364428 0.957098544
vt 0.0620009527 0.00155580044
vt 0.0209915023 0.00309461355
vt 0.0284587163 0.00155472755
vt 0.0688979924 0
vt 0.93799907 0.9984442
vt 0.979008496 0.996905386
vt 0.971541286 0.998445272
vt 0.971563578 0.0429014564
vt 0.0620009527 0.00155580044
vt 0.0209915023 0.00309461355
vt 0.0284587145 0.00155472755
vt 0.971563578 0.0429014564
vt 0.971541286 0.00155472755
vt 0.971563578 0.957098544
vt 0.0688979924 0
vt 0.0284587163 0.00155472755
vt 0.0284587163 0.998445272
vt 0.971563578 0.957098544
vt 0.0284364428 0.957098544
vt 0.971541286 0.998445272
vt 0.0284587163 0.998445272
vt 0.0284364428 0.0429014564
vt 0.971563578 0.0429014564
vt 0.971541286 0.998445272
vt 0.971541286 0.00155472755
vt 0.931102037 0
vt 0.971563578 0.0429014564
vt 0.0284587145 0.00155472755
vt 0.999420047 0.923706412
vt 0.999420047 0.0762935877
vt 0.998845696 0.0562751293
vt 0.997137606 0.039485395
vt 0.994309485 0.0258380771
vt 0.990361989 0.0152555108
vt 0.985271335 0.00767368078
vt 0.979008496 0.00309461355
vt 0.971541286 0.00155472755
vt 0.0284587163 0.00155472755
vt 0.0209915023 0.00309461355
vt 0.0147286877 0.00767368078
vt 0.00963801704 0.0152555108
vt 0.00569053274 0.0258380771
vt 0.00286238361 0.039485395
vt 0.00115434499 0.0562751293
vt 0.000579943182 0.0762935877
vt 0.000579943764 0.923706412
vt 0.00115434546 0.943724871
vt 0.00286238291 0.960514605
vt 0.00569053087 0.974161923
vt 0.00963801704 0.984744549
vt 0.0147286877 0.992326379
vt 0.0209915042 0.996905386
vt 0.0284587163 0.998445272
vt 0.998845696 0.943724871
vt 0.997137606 0.960514605
vt 0.994309425 0.974161923
vt 0.990361929 0.984744549
vt 0.985271335 0.992326379
vt 0.979008496 0.996905386
vt 0.971541286 0.998445272
vt 0.0284587163 0.998445272
vt 0.971541286 0.998445272
vt 0.979008496 0.996905386
vt 0.985271335 0.992326379
vt 0.990361929 0.984744549
vt 0.994309485 0.974161923
vt 0.997137606 0.960514605
vt 0.998845696 0.943724871
vt 0.999420047 0.923706412
vt 0.999420047 0.0762935877
vt 0.998845696 0.0562751293
vt 0.997137606 0.039485395
vt 0.994309485 0.0258380771
vt 0.990361989 0.0152555108
vt 0.985271335 0.00767368078
vt 0.979008496 0.00309461355
vt 0.971541286 0.00155472755
vt 0.0284587145 0.00155472755
vt 0.0209915023 0.00309461355
vt 0.0147286877 0.00767362118
vt 0.00963801611 0.0152555108
vt 0.00569053274 0.0258380771
vt 0.00286238361 0.039485395
vt 0.00115434499 0.0562751293
vt 0.000579943182 0.0762935877
vt 0.0209915042 0.996905386
vt 0.0147286877 0.992326379
vt 0.00963801704 0.984744549
vt 0.00569053087 0.974161923
vt 0.00286238291 0.960514605
vt 0.00115434546 0.943724871
vt 0.000579943764 0.923706412
f 1/1 2/2 3/3
f 3/3 4/4 1/1
f 5/5 6/6 7/7
f 7/7 8/8 5/5
f 9/9 10/10 11/11
f 11/11 12/12 9/9
f 13/13 14/14 15/15
f 15/15 16/16 13/13
f 17/17 18/18 19/19
f 19/19 20/20 17/17
f 21/21 22/22 23/23
f 23/23 24/24 21/21
f 25/25 26/26 27/27
f 27/27 28/28 25/25
f 29/29 30/30 31/31
f 31/31 32/32 29/29
f 33/33 34/34 35/35
f 35/35 36/36 33/33
f 37/37 38/38 39/39
f 39/39 40/40 37/37
f 41/41 42/42 43/43
f 43/43 44/44 41/41
f 45/45 46/46 47/47
f 47/47 48/48 45/45
f 49/49 50/50 51/51
f 51/51 52/52 49/49
f 53/53 54/54 55/55
f 55/55 56/56 53/53
f 57/57 58/58 59/59
f 59/59 60/60 57/57
f 61/61 62/62 63/63
f 63/63 64/64 61/61
f 65/65 66/66 67/67
f 67/67 68/68 65/65
f 69/69 70/70 71/71
f 71/71 72/72 69/69
f 73/73 74/74 75/75
f 75/75 76/76 73/73
f 77/77 78/78 79/79
f 79/79 80/80 77/77
f 81/81 82/82 83/83
f 83/83 84/84 81/81
f 85/85 86/86 87/87
f 87/87 88/88 85/85
f 89/89 90/90 91/91
f 92/92 93/93 94/94
f 95/95 96/96 97/97
f 98/98 99/99 100/100
f 101/101 102/102 103/103
f 104/104 105/105 106/106
f 107/107 108/108 109/109
f 110/110 111/111 112/112
f 113/113 114/114 115/115
f 116/116 117/117 118/118
f 119/119 120/120 121/121
f 122/122 123/123 124/124
f 125/125 126/126 127/127
f 128/128 129/129 130/130
f 131/131 132/132 133/133
f 134/134 135/135 136/136
f 137/137 138/138 139/139
f 139/139 140/140 137/137
f 141/141 142/142 143/143
f 143/143 144/144 141/141
f 145/145 146/146 147/147
f 147/147 148/148 145/145
f 149/149 150/150 151/151
f 152/152 153/153 154/154
f 155/155 156/156 157/157
f 157/157 158/158 155/155
f 159/159 160/160 161/161
f 161/161 162/162 159/159
f 163/163 164/164 165/165
f 165/165 166/166 163/163
f 167/167 168/168 169/169
f 169/169 170/170 167/167
f 171/171 172/172 173/173
f 174/174 175/175 176/176
f 177/177 178/178 179/179
f 180/180 181/181 182/182
f 183/183 184/184 185/185
f 186/186 187/187 188/188
f 189/189 190/190 191/191
f 192/192 193/193 194/194
f 195/195 196/196 197/197
f 198/198 199/199 200/200
f 201/201 202/202 203/203
f 204/204 205/205 206/206
f 207/207 208/208 209/209
f 210/210 211/211 212/212
f 213/213 214/214 215/215
f 216/216 217/217 218/218
f 219/219 220/220 221/221
f 221/221 222/222 219/219
f 223/223 224/224 225/225
f 225/225 226/226 223/223
f 227/227 228/228 229/229
f 229/229 230/230 227/227
f 231/231 232/232 233/233
f 233/233 234/234 231/231
f 235/235 236/236 237/237
f 238/238 239/239 240/240
f 241/241 242/242 243/243
f 244/244 245/245 246/246
f 247/247 248/248 249/249
f 250/250 251/251 252/252
f 253/253 254/254 255/255
f 256/256 257/257 258/258
f 259/259 260/260 261/261
f 262/262 263/263 264/264
f 265/265 266/266 267/267
f 268/268 269/269 270/270
f 271/271 272/272 273/273
f 274/274 275/275 276/276
f 277/277 278/278 279/279
f 280/280 281/281 282/282
f 283/283 284/284 285/285
f 285/285 286/286 283/283
f 287/287 288/288 289/289
f 289/289 290/290 287/287
f 291/291 292/292 293/293
f 293/293 294/294 291/291
f 295/295 296/296 297/297
f 297/297 298/298 295/295
f 299/299 300/300 301/301
f 302/302 303/303 304/304
f 305/305 306/306 307/307
f 308/308 309/309 310/310
f 311/311 312/312 313/313
f 314/314 315/315 316/316
f 317/317 318/318 319/319
f 320/320 321/321 322/322
f 323/323 324/324 325/325
f 326/326 327/327 328/328
f 329/329 330/330 331/331
f 332/332 333/333 334/334
f 335/335 336/336 337/337
f 338/338 339/339 340/340
f 341/341 342/342 343/343
f 344/344 345/345 346/346
f 347/347 348/348 349/349
f 349/349 350/350 347/347
f 351/351 352/352 353/353
f 353/353 354/354 351/351
f 355/355 356/356 357/357
f 357/357 358/358 355/355
f 359/359 360/360 361/361
f 361/361 362/362 359/359
f 363/363 364/364 365/365
f 366/366 367/367 368/368
f 369/369 370/370 371/371
f 372/372 373/373 374/374
f 375/375 376/376 377/377
f 378/378 379/379 380/380
f 381/381 382/382 383/383
f 384/384 385/385 386/386
f 387/387 388/388 389/389
f 390/390 391/391 392/392
f 393/393 394/394 395/395
f 396/396 397/397 398/398
f 399/399 400/400 401/401
f 402/402 403/403 404/404
f 405/405 406/406 407/407
f 408/408 409/409 410/410
f 411/411 412/412 413/413
f 413/413 414/414 411/411
f 415/415 416/416 417/417
f 417/417 418/418 415/415
f 419/419 420/420 421/421
f 421/421 422/422 419/419
f 423/423 424/424 425/425
f 425/425 426/426 423/423
f 427/427 428/428 429/429
f 429/429 430/430 427/427
f 431/431 432/432 433/433
f 433/433 434/434 431/431
f 435/435 436/436 437/437
f 437/437 438/438 435/435
f 439/439 440/440 441/441
f 441/441 442/442 439/439
f 443/443 444/444 445/445
f 445/445 446/446 443/443
f 447/447 448/448 449/449
f 449/449 450/450 447/447
f 451/451 452/452 453/453
f 453/453 454/454 451/451
f 455/455 456/456 457/457
f 457/457 458/458 455/455
f 459/459 460/460 461/461
f 461/461 462/462 459/459
f 463/463 464/464 465/465
f 465/465 466/466 463/463
f 467/467 468/468 469/469
f 467/467 469/469 470/470
f 467/467 470/470 471/471
f 467/467 471/471 472/472
f 467/467 472/472 473/473
f 467/467 473/473 474/474
f 467/467 474/474 475/475
f 475/475 476/476 477/477
f 475/475 477/477 478/478
f 475/475 478/478 479/479
f 475/475 479/479 480/480
f 475/475 480/480 481/481
f 475/475 481/481 482/482
f 475/475 482/482 483/483
f 467/467 475/475 483/483
f 483/483 484/484 485/485
f 483/483 485/485 486/486
f 483/483 486/486 487/487
f 483/483 487/487 488/488
f 483/483 488/488 489/489
f 483/483 489/489 490/490
f 483/483 490/490 491/491
f 467/467 483/483 491/491
f 492/492 467/467 491/491
f 493/493 492/492 491/491
f 494/494 493/493 491/491
f 495/495 494/494 491/491
f 496/496 495/495 491/491
f 497/497 496/496 491/491
f 498/498 497/497 491/491
f 499/499 500/500 501/501
f 499/499 501/501 502/502
f 499/499 502/502 503/503
f 499/499 503/503 504/504
f 499/499 504/504 505/505
f 499/499 505/505 506/506
f 499/499 506/506 507/507
f 507/507 508/508 509/509
f 507/507 509/509 510/510
f 507/507 510/510 511/511
f 507/507 511/511 512/512
f 507/507 512/512 513/513
f 507/507 513/513 514/514
f 507/507 514/514 515/515
f 499/499 507/507 515/515
f 515/515 516/516 517/517
f 515/515 517/517 518/518
f 515/515 518/518 519/519
f 515/515 519/519 520/520
f 515/515 520/520 521/521
f 515/515 521/521 522/522
f 515/515 522/522 523/523
f 499/499 515/515 523/523
f 524/524 499/499 523/523
f 525/525 524/524 523/523
f 526/526 525/525 523/523
f 527/527 526/526 523/523
f 528/528 527/527 523/523
f 529/529 528/528 523/523
f 530/530 529/529 523/523
