v -0.0419674329 0.0341562591 0.0724712983
v -0.0421363525 0.0356205665 0.07246802
v -0.0422020368 0.0356057845 0.0727180615
v -0.0426786952 0.0369379483 0.0727150813
v -0.0420348458 0.0341567956 0.0727212802
v -0.0426181369 0.0369670354 0.0724650398
v -0.0423814468 0.0355643593 0.072901167
v -0.0428440981 0.0368574224 0.072898306
v -0.0422190838 0.0341572128 0.072904326
v -0.0422020368 0.035604652 0.0722180977
v -0.0420348458 0.0341557227 0.0722213164
v -0.0421363525 0.0326919518 0.0724745765
v -0.0422020368 0.0327067338 0.072224535
v -0.0422020368 0.0327078067 0.0727244988
v -0.0426181369 0.0313454829 0.0724775568
v -0.0426786952 0.03137457 0.0722274557
v -0.0423814468 0.032748159 0.0720414296
v -0.0428440981 0.0314550959 0.0720442906
v -0.0422190838 0.0341553055 0.0720382705
v -0.0430700593 0.0315654837 0.0719770566
v -0.0426264815 0.0328052007 0.0719743147
v -0.0437659435 0.0304715596 0.0719795004
v -0.0435697846 0.0303143226 0.072046794
v -0.0434261374 0.0301995836 0.0722300783
v -0.0445213132 0.0293628536 0.0720489398
v -0.0446786694 0.0295588933 0.0719815269
v -0.043962162 0.0306290351 0.0720461383
v -0.0448360257 0.029755231 0.0720480457
v -0.0432960205 0.0316762291 0.0720438138
v -0.0449511819 0.0298992358 0.0722307339
v -0.0441058092 0.0307446681 0.0722288862
v -0.0459641032 0.0292549096 0.0722321644
v -0.0458831601 0.0290890895 0.0720495358
v -0.0457725935 0.0288630091 0.0719830766
v -0.0470694713 0.0286646448 0.0720504895
v -0.0471113734 0.0288444124 0.0722331181
v -0.0445213132 0.0389477573 0.0720276013
v -0.0435697846 0.0379962288 0.0720297471
v -0.0437659435 0.0378387533 0.0719631091
v -0.0430700593 0.0367447697 0.0719655529
v -0.0469551496 0.0401360951 0.0720249787
v -0.0483622365 0.0402984582 0.0720246211
v -0.0483622365 0.0404830538 0.0722072497
v -0.0498112254 0.0403158627 0.0722076073
v -0.0456620269 0.0396733843 0.072025992
v -0.0469132476 0.0403158627 0.0722076073
v -0.0455810837 0.0398392044 0.0722086802
v -0.0444060974 0.0390917622 0.0722102895
v -0.0468979292 0.0403820835 0.07245747
v -0.0434261374 0.0381118618 0.0722124949
v -0.0428440981 0.0368555151 0.0720322505
v -0.0483622365 0.0405510627 0.0724570528
v -0.0483622365 0.0404841863 0.0727072135
v -0.0426786952 0.0369368754 0.0722151175
v -0.0498265438 0.0403820835 0.07245747
v -0.0498112254 0.0403169952 0.0727075711
v -0.0497693829 0.0401380025 0.0728910342
v -0.0511730723 0.0399002992 0.0724585429
v -0.0511433892 0.0398403369 0.072708644
v -0.0523183756 0.0390928946 0.0727103129
v -0.0510624461 0.0396753512 0.0728920475
v -0.0509518795 0.0394495092 0.0729595199
v -0.0522032194 0.0389496647 0.0728936568
v -0.0531547479 0.0379981361 0.072895743
v -0.0520458631 0.038753625 0.0729610696
v -0.0518885069 0.0385572873 0.0728945509
v -0.0529585294 0.0378409587 0.0729630962
v -0.0536544137 0.0367470346 0.07296554
v -0.052762311 0.0376834236 0.0728964582
v -0.0526187234 0.0375678502 0.0727137104
v -0.0534284525 0.0366362892 0.0728987828
v -0.0538529567 0.035449978 0.0729014054
v -0.0532630496 0.0365549289 0.0727159753
v -0.0532024913 0.0365247689 0.0724660531
v -0.0536735468 0.0354077183 0.0727185383
v -0.0538178496 0.0341567956 0.0727212802
v -0.0536078624 0.0353918038 0.0724685565
v -0.0536735468 0.0354065858 0.072218515
v -0.0537504368 0.0341562591 0.0724712983
v -0.0536078624 0.0329206549 0.0724740401
v -0.0538178496 0.0341557227 0.0722213164
v -0.0540020876 0.0341553055 0.0720382705
v -0.0536735468 0.0329048 0.0722240582
v -0.0532630496 0.0317575894 0.0722266212
v -0.0538529567 0.0328625403 0.0720411316
v -0.0540979914 0.0328052007 0.0719743147
v -0.0534284525 0.0316762291 0.0720438138
v -0.052762311 0.0306290351 0.0720461383
v -0.0536544137 0.0315654837 0.0719770566
v -0.0538803749 0.0314550959 0.0720442906
v -0.0529585294 0.0304715596 0.0719795004
v -0.0520458631 0.0295588933 0.0719815269
v -0.0531547479 0.0303143226 0.072046794
v -0.0532983355 0.0301995836 0.0722300783
v -0.0522032194 0.0293628536 0.0720489398
v -0.0510624461 0.0286371671 0.0720505491
v -0.0523183756 0.0292196237 0.0722322837
v -0.0523605756 0.0291675888 0.0724823847
v -0.0511433892 0.0284721814 0.0722339526
v -0.0498112254 0.0279955231 0.0722349659
v -0.0511730127 0.0284121595 0.0724840537
v -0.0511433892 0.0284733139 0.0727339163
v -0.0498265438 0.0279303752 0.0724851266
v -0.0483622365 0.0277614556 0.0724854842
v -0.0498112254 0.0279965959 0.0727349892
v -0.0497693829 0.0281764232 0.0729176179
v -0.0483622365 0.0278294645 0.0727353469
v -0.0469132476 0.0279965959 0.0727349892
v -0.0483622365 0.0280140601 0.0729179755
v -0.0483622365 0.0282658897 0.0729843751
v -0.0469551496 0.0281764232 0.0729176179
v -0.0456620269 0.028639134 0.072916545
v -0.0470123105 0.0284216367 0.0729840174
v -0.0470694713 0.0286665522 0.0729164854
v -0.0457725935 0.0288652144 0.0729830638
v -0.0446786694 0.0295610987 0.072981514
v -0.0458831601 0.0290909968 0.0729155913
v -0.0459641032 0.0292560421 0.0727321878
v -0.0448360257 0.0297571383 0.0729141012
v -0.043962162 0.030631002 0.0729121342
v -0.0449511819 0.0299003683 0.0727307573
v -0.0449933819 0.0299524032 0.0724806562
v -0.0441058092 0.0307458006 0.0727288499
v -0.043461483 0.0317586623 0.0727266446
v -0.0441583805 0.0307874046 0.0724788085
v -0.0435219817 0.0317877494 0.0724765435
v -0.0431166105 0.0329206549 0.0724740401
v -0.043461483 0.0317575894 0.0722266212
v -0.0430509858 0.0329048 0.0722240582
v -0.0429066233 0.0341557227 0.0722213164
v -0.0428715758 0.0328625403 0.0720411316
v -0.0427223854 0.0341553055 0.0720382705
v -0.0428715758 0.0354480706 0.0720354095
v -0.0424707346 0.0341551267 0.0719712749
v -0.0426264815 0.0355050527 0.0719682947
v -0.0423814468 0.0355623923 0.0720351711
v -0.0691785663 0.00670074951 0.0725323334
v -0.068940863 0.00464069378 0.072536923
v -0.0688752383 0.00465654861 0.0727869049
v -0.0691111535 0.00670015346 0.0722823516
v -0.0688752383 0.00465547573 0.0722868815
v -0.0682027787 0.00277620088 0.0722910538
v -0.0686958283 0.00469690096 0.072103776
v -0.0689269155 0.00669979583 0.0720993057
v -0.0680373758 0.00285672676 0.0721078888
v -0.0671482533 0.00111841701 0.0722947493
v -0.0686752647 0.00669961702 0.0720323697
v -0.0684507936 0.0047539426 0.0720366612
v -0.0684507936 0.00864529144 0.0720280185
v -0.0686958283 0.00870263111 0.0720948949
v -0.0688752383 0.0087448908 0.0722778216
v -0.0680373758 0.0105428053 0.0720907822
v -0.0678114146 0.0104321195 0.072024025
v -0.0682056993 0.0085882498 0.0720951334
v -0.0675854534 0.0103216721 0.0720912591
v -0.0684236139 0.00669979583 0.0720993057
v -0.0674200505 0.0102411462 0.0722744837
v -0.0680262893 0.00854682457 0.0722782388
v -0.0664686412 0.0117368652 0.0722711459
v -0.0666122288 0.0118516041 0.0720878616
v -0.0668084472 0.0120088411 0.0720205083
v -0.0653356165 0.0131282164 0.0720850602
v -0.0652204007 0.012985046 0.0722683445
v -0.0664160699 0.0116952611 0.072521247
v -0.0651782602 0.0129330112 0.0725185052
v -0.0673594922 0.0102120591 0.0725245252
v -0.0652204007 0.0129861189 0.0727683678
v -0.0664686412 0.011737938 0.0727711692
v -0.0637247413 0.0139375878 0.0727662221
v -0.0636951178 0.0138764931 0.0725163594
v -0.0637247413 0.0139364554 0.0722662583
v -0.0620150976 0.0144776059 0.0725150481
v -0.062030416 0.0145438267 0.0727649108
v -0.0638056844 0.014103408 0.0729489103
v -0.0620722584 0.0147236539 0.0729475394
v -0.0653356165 0.0131301833 0.0729510561
v -0.0621294193 0.0149688078 0.073013939
v -0.0639162511 0.0143294884 0.0730153695
v -0.0601837449 0.0151933385 0.0730134621
v -0.0601837449 0.0149415089 0.0729470029
v -0.0601837449 0.0147569133 0.0727644339
v -0.0613050275 0.022151228 0.0722479597
v -0.0628564209 0.0211643539 0.072250165
v -0.0628860444 0.0212254487 0.0725000277
v -0.0646291822 0.0206017457 0.0725014582
v -0.0646138638 0.0205355249 0.0722515956
v -0.0613471679 0.0222043358 0.0724978819
v -0.060010355 0.0234459005 0.0722450987
v -0.0646138638 0.0205366574 0.0727515593
v -0.0628564209 0.0211654864 0.0727501884
v -0.0665292591 0.0203156434 0.0727520958
v -0.0665292591 0.0203825198 0.0725019351
v -0.0665292591 0.0203145109 0.0722520724
v -0.0645720214 0.0203556977 0.0720689669
v -0.068429336 0.0206017457 0.0725014582
v -0.0684446543 0.0205365978 0.0727515593
v -0.0665292591 0.0201318227 0.0729354993
v -0.0684864968 0.0203576647 0.0729349628
v -0.0645720214 0.0203576647 0.0729349628
v -0.0685436577 0.0201127492 0.0730024949
v -0.0665292591 0.0198802911 0.0730030313
v -0.070393607 0.0207746588 0.0730010644
v -0.0702830404 0.0210004412 0.0729335323
v -0.0702020973 0.0211654864 0.0727501884
v -0.0718687028 0.0220091306 0.0729313269
v -0.072026059 0.0218130909 0.0729987398
v -0.0705041736 0.0205485187 0.0729345456
v -0.0721834153 0.0216167532 0.0729321614
v -0.0686008781 0.0198675357 0.0729360953
v -0.0722986311 0.0214726888 0.0727494732
v -0.0705851167 0.0203826986 0.0727519169
v -0.0737278312 0.0229018889 0.0727463141
v -0.0735841841 0.0230175219 0.0729290619
v -0.0733879656 0.0231749974 0.0729956999
v -0.0746523589 0.024696704 0.0729253665
v -0.0748177618 0.0246153437 0.0727424994
v -0.0737804025 0.0228591524 0.0724963918
v -0.0748783201 0.0245851837 0.0724925771
v -0.0723407716 0.021419581 0.0724996105
v -0.0748177618 0.0246142708 0.0722425357
v -0.0737278312 0.0229008161 0.0722462907
v -0.0755128115 0.0265566669 0.0722381845
v -0.0755784363 0.026541885 0.072488226
v -0.0755128115 0.0265577398 0.0727382079
v -0.0608750992 0.0357246362 0.0720348135
v -0.0594743304 0.0343238674 0.0720379129
v -0.0596705489 0.0341663323 0.0719712749
v -0.0586321168 0.0325339399 0.0719749108
v -0.0644576401 0.0374738537 0.0720308796
v -0.0665292591 0.0377128683 0.0720303431
v -0.0665292591 0.0378974639 0.0722129717
v -0.0686427206 0.0376536213 0.0722135082
v -0.0625543445 0.036792811 0.0720324293
v -0.0644157976 0.0376536213 0.0722135082
v -0.0624733977 0.0369586311 0.0722150579
v -0.0607598834 0.035868641 0.0722175017
v -0.0644004792 0.037719842 0.0724633709
v -0.0593306832 0.0344394408 0.0722206607
v -0.0584061556 0.0326446258 0.072041668
v -0.0665292591 0.0379654728 0.0724628344
v -0.0665292591 0.0378985964 0.0727129951
v -0.0582406931 0.0327259861 0.0722244754
v -0.068658039 0.037719842 0.0724633709
v -0.0686427206 0.0376547538 0.0727135316
v -0.0686008781 0.037475761 0.072896935
v -0.0706147403 0.0370197259 0.0724649206
v -0.0705851167 0.036959704 0.0727150813
v -0.0722985715 0.0358697735 0.0727174655
v -0.0705041736 0.0367947184 0.0728984252
v -0.070393607 0.036568936 0.0729659572
v -0.0721834153 0.0357265435 0.0729008093
v -0.0735841841 0.0343257748 0.0729039088
v -0.072026059 0.0355305038 0.0729682222
v -0.0718687028 0.0353341661 0.0729017034
v -0.0733879656 0.0341685377 0.072971262
v -0.0744263977 0.0325361453 0.0729748979
v -0.0731918067 0.0340110622 0.072904624
v -0.0730481595 0.0338954292 0.0727218762
v -0.0742004365 0.0324253999 0.0729081407
v -0.0748432726 0.0306288563 0.0729121342
v -0.0740350336 0.0323440395 0.0727253333
v -0.0739744753 0.0323138796 0.072475411
v -0.0746638626 0.0305865966 0.0727292076
v -0.0748848766 0.0286712013 0.0727334991
v -0.0745982379 0.0305707417 0.0724792853
v -0.0746638626 0.0305855237 0.0722292438
v -0.0748174638 0.0286706649 0.0724835172
v -0.0745982379 0.026770588 0.0724876896
v -0.0748848766 0.0286701284 0.0722334757
v -0.0750691146 0.0286697112 0.0720504895
v -0.0746638626 0.0267547332 0.0722377673
v -0.0740350336 0.0249972902 0.0722416416
v -0.0748432726 0.0267124735 0.0720548406
v -0.0750883073 0.0266551338 0.0719879642
v -0.0742004365 0.0249159299 0.0720588341
v -0.0731918067 0.0233302675 0.0720623508
v -0.0744263977 0.0248051845 0.0719920769
v -0.0746523589 0.0246947967 0.072059311
v -0.0733879656 0.023172792 0.0719957128
v -0.072026059 0.0218108259 0.0719987527
v -0.0735841841 0.023015555 0.0720630661
v -0.0721834153 0.0216147862 0.0720661655
v -0.0705041736 0.0205466114 0.0720685497
v -0.0722986311 0.0214716159 0.0722495094
v -0.0705851167 0.0203816257 0.0722518936
v -0.0686427206 0.019686576 0.0722534433
v -0.0706147403 0.0203216039 0.0725020543
v -0.068658039 0.0196214877 0.072503604
v -0.0665292591 0.019375857 0.0725041404
v -0.0686427206 0.0196877085 0.0727534667
v -0.0665292591 0.0194438659 0.0727540031
v -0.0644157976 0.0196877085 0.0727534667
v -0.0665292591 0.0196285211 0.0729366317
v -0.0644576401 0.0198675357 0.0729360953
v -0.0625543445 0.0205485187 0.0729345456
v -0.0645148009 0.0201127492 0.0730024949
v -0.0626649112 0.0207746588 0.0730010644
v -0.0610324554 0.0218130909 0.0729987398
v -0.0627754778 0.0210004412 0.0729335323
v -0.0611898117 0.0220091306 0.0729313269
v -0.0598667078 0.0233322345 0.0729283467
v -0.0613050275 0.0221523605 0.072747983
v -0.060010355 0.0234469734 0.072745122
v -0.0590234809 0.0249983631 0.0727416649
v -0.0600629263 0.0234885775 0.0724950209
v -0.0590840392 0.0250274502 0.0724915639
v -0.0584602766 0.026770588 0.0724876896
v -0.0590234809 0.0249972902 0.0722416416
v -0.058858078 0.0249159299 0.0720588341
v -0.0583946519 0.0267547332 0.0722377673
v -0.0581736378 0.0286701284 0.0722334757
v -0.0582152419 0.0267124735 0.0720548406
v -0.0579701476 0.0266551338 0.0719879642
v -0.0579893999 0.0286697112 0.0720504895
v -0.0582152419 0.0306269489 0.0720461383
v -0.0577377491 0.0286695324 0.0719834939
v -0.0574860983 0.0286697112 0.0720504895
v -0.0579701476 0.0306839906 0.0719790235
v -0.0577251129 0.0307413302 0.0720458999
v -0.0575457029 0.0307835899 0.072228767
v -0.0511889271 0.00670074951 0.0725323334
v -0.0514266305 0.00876080524 0.0725277439
v -0.0514922552 0.00874602329 0.0727777854
v -0.0521647148 0.0106252981 0.072773613
v -0.05125634 0.00670128595 0.0727823153
v -0.0521041565 0.0106543852 0.0725235716
v -0.0516716652 0.00870453846 0.0729608908
v -0.0523301177 0.0105447723 0.0729567781
v -0.051440578 0.00670170318 0.0729653612
v -0.0514922552 0.0087448908 0.0722778216
v -0.05125634 0.00670015346 0.0722823516
v -0.0514266305 0.00464069378 0.072536923
v -0.0514922552 0.00465547573 0.0722868815
v -0.0514922552 0.00465654861 0.0727869049
v -0.0521041565 0.00274711382 0.0725411549
v -0.0521647148 0.00277620088 0.0722910538
v -0.0516716652 0.00469690096 0.072103776
v -0.0523301177 0.00285672676 0.0721078888
v -0.051440578 0.00669979583 0.0720993057
v -0.0525560789 0.00296711456 0.0720406547
v -0.0519167595 0.0047539426 0.0720366612
v -0.0535590462 0.00139039301 0.0720441714
v -0.0533628874 0.00123321556 0.072111465
v -0.0532192402 0.00111841701 0.0722947493
v -0.0547171645 -0.000121061581 0.0721145049
v -0.0548745207 7.49780957e-05 0.072047092
v -0.0537552647 0.00154792808 0.0721108094
v -0.055031877 0.000271315803 0.0721136108
v -0.0527820401 0.00307785999 0.0721073523
v -0.0551470928 0.000415320625 0.072296299
v -0.0538989119 0.00166350149 0.0722935572
v -0.0566427521 -0.000536088715 0.0722984448
v -0.056561809 -0.000701908837 0.0721157566
v -0.0564512424 -0.000928048859 0.0720492974
v -0.0582952313 -0.00132215477 0.0721171871
v -0.0583370738 -0.00114232756 0.0722997561
v -0.0582952313 0.0147236539 0.0729475394
v -0.0582380705 0.0149688078 0.073013939
v -0.0601837449 0.0154448105 0.0729459301
v -0.0581809096 0.0152137233 0.0729464069
v -0.0621866398 0.0152137233 0.0729464069
v -0.0581390075 0.015392716 0.0727630034
v -0.0601837449 0.0156286322 0.072762467
v -0.0562597327 0.014720316 0.0727644935
v -0.0563406758 0.0145553304 0.072947897
v -0.0564512424 0.0143294884 0.0730153695
v -0.0547171645 0.0135225607 0.072950162
v -0.0546020083 0.0136657907 0.0727668777
v -0.0562301092 0.0147802783 0.0725143924
v -0.0545598082 0.0137177659 0.072516717
v -0.0581236891 0.0154578639 0.0725128427
v -0.0546020083 0.0136646582 0.0722668543
v -0.0562597327 0.0147191836 0.0722645298
v -0.0532192402 0.0122819496 0.0722699538
v -0.0531666689 0.0123246266 0.0725198165
v -0.0532192402 0.0122830225 0.0727699175
v -0.0521647148 0.0106241656 0.0722735897
v -0.0533628874 0.0121682836 0.0729532018
v -0.0548745207 0.013326521 0.0730176345
v -0.0535590462 0.0120110465 0.0730205551
v -0.0525560789 0.0104343249 0.0730240121
v -0.056561809 0.014103408 0.0729489103
v -0.055031877 0.0131301833 0.0729510561
v -0.0537552647 0.011853571 0.0729539171
v -0.0519167595 0.00864755642 0.0730280057
v -0.0527820401 0.010323639 0.0729573146
v -0.0583370738 0.0145438267 0.0727649108
v -0.0566427521 0.0139375878 0.0727662221
v -0.0601837449 0.0146889044 0.0725145712
v -0.0583524518 0.0144776059 0.0725150481
v -0.0551470928 0.0129861189 0.0727683678
v -0.0566723756 0.0138764931 0.0725163594
v -0.0538989119 0.011737938 0.0727711692
v -0.0551892333 0.0129330112 0.0725185052
v -0.052947443 0.0102422787 0.0727744475
v -0.0539514832 0.0116952611 0.072521247
v -0.0521617942 0.00859021675 0.0729611292
v -0.0516922288 0.00670182239 0.0730323568
v -0.0516716652 0.0046988083 0.0729698315
v -0.0521647148 0.00277727377 0.0727910772
v -0.0531666689 0.00107681297 0.0725448504
v -0.0546019487 -0.000264291535 0.0722978488
v -0.0563406758 -0.00115383125 0.0721167699
v -0.0582380705 -0.00156736828 0.0720507279
v -0.0601837449 -0.00154006935 0.0721176639
v -0.0601837449 -0.00135541416 0.0723002329
v -0.062030416 -0.00114232756 0.0722997561
v -0.0620150976 -0.0010761068 0.0725496188
v -0.0636951178 -0.000474993954 0.0725483075
v -0.0637247413 -0.000535015832 0.0727984086
v -0.0652204603 0.000416453113 0.0727963224
v -0.0653356165 0.000273223151 0.0729796663
v -0.0666122288 0.00154983543 0.0729768053
v -0.0668084472 0.00139265798 0.0730441585
v -0.0678114146 0.00296937954 0.0730406418
v -0.0680373758 0.00285863411 0.0729738846
v -0.0686958283 0.0046988083 0.0729698315
v -0.0691111535 0.00670128595 0.0727823153
v -0.068940863 0.00876080524 0.0725277439
v -0.0682027787 0.0106241656 0.0722735897
v -0.0670046061 0.0121663166 0.0720871463
v -0.0654929727 0.0133242561 0.0720175877
v -0.0638056844 0.014101441 0.0720828548
v -0.062030416 0.0145426942 0.0722648874
v -0.0601837449 0.0147557808 0.0722644106
v -0.0620722584 0.014721687 0.0720814839
v -0.0639162511 0.014327283 0.0720153823
v -0.065650329 0.0135206534 0.0720841661
v -0.0583370738 0.0145426942 0.0722648874
v -0.0601837449 0.0149396015 0.0720810071
v -0.0621294193 0.0149666024 0.0720139518
v -0.0640268177 0.0145533634 0.0720818415
v -0.0566427521 0.0139364554 0.0722662583
v -0.0582952313 0.014721687 0.0720814839
v -0.0601837449 0.0151910735 0.072013475
v -0.0621866398 0.0152118159 0.072080411
v -0.0551470928 0.012985046 0.0722683445
v -0.056561809 0.014101441 0.0720828548
v -0.0582380705 0.0149666024 0.0720139518
v -0.0601837449 0.0154429032 0.0720798746
v -0.0622284822 0.0153916432 0.0722630396
v -0.0641077608 0.0147191836 0.0722645298
v -0.0657655448 0.0136646582 0.0722668543
v -0.0671482533 0.0122819496 0.0722699538
v -0.068263337 0.0106543852 0.0725235716
v -0.0672008246 0.0123246266 0.0725198165
v -0.0658076853 0.0137177659 0.072516717
v -0.0641373843 0.0147802783 0.0725143924
v -0.0688752383 0.00874602329 0.0727777854
v -0.0682027787 0.0106252981 0.072773613
v -0.0671482533 0.0122830225 0.0727699175
v -0.0657655448 0.0136657907 0.0727668777
v -0.0689269155 0.00670170318 0.0729653612
v -0.0686958283 0.00870453846 0.0729608908
v -0.0680373758 0.0105447723 0.0729567781
v -0.0670046061 0.0121682836 0.0729532018
v -0.0684507936 0.00475614797 0.0730366483
v -0.0686752647 0.00670182239 0.0730323568
v -0.0684507936 0.00864755642 0.0730280057
v -0.0678114146 0.0104343249 0.0730240121
v -0.0675854534 0.00307976734 0.0729734078
v -0.0682056993 0.00481318962 0.0729695335
v -0.0684236139 0.00670170318 0.0729653612
v -0.0682056993 0.00859021675 0.0729611292
v -0.0664686412 0.00166463398 0.072793521
v -0.0674200505 0.00316029321 0.0727901831
v -0.0680262893 0.00485467445 0.072786428
v -0.0682393759 0.00670128595 0.0727823153
v -0.0651782602 0.000468487968 0.0725462213
v -0.0664160699 0.00170623802 0.0725434199
v -0.0673594922 0.00318938028 0.0725401416
v -0.0679606646 0.0048693968 0.0725363865
v -0.0637247413 -0.000536088715 0.0722984448
v -0.0652204603 0.000415320625 0.072296299
v -0.0664686412 0.00166350149 0.0722935572
v -0.0674200505 0.00315922033 0.0722902194
v -0.0620722584 -0.00132215477 0.0721171871
v -0.0638056844 -0.000701908837 0.0721157566
v -0.0653356165 0.000271315803 0.0721136108
v -0.0666122288 0.00154792808 0.0721108094
v -0.0601837449 -0.00179183937 0.0720512047
v -0.0621294193 -0.00156736828 0.0720507279
v -0.0639162511 -0.000928048859 0.0720492974
v -0.0654929727 7.49780957e-05 0.072047092
v -0.05818085 -0.00181228376 0.07211826
v -0.0601837449 -0.00204337109 0.0721187964
v -0.0621866398 -0.00181228376 0.07211826
v -0.0640268177 -0.00115383125 0.0721167699
v -0.0562597327 -0.00131881691 0.0723001733
v -0.0581390075 -0.00199127663 0.0723016635
v -0.0601837449 -0.00222719181 0.0723021999
v -0.0622284822 -0.00199127663 0.0723016635
v -0.0545598082 -0.00031632639 0.0725479499
v -0.0562301092 -0.00137883879 0.072550334
v -0.0581236891 -0.0020563649 0.0725518242
v -0.0601837449 -0.00229406822 0.0725523606
v -0.0532192402 0.0011195495 0.0727947727
v -0.0546019487 -0.000263218652 0.0727978125
v -0.0562597327 -0.00131774403 0.0728001967
v -0.0581390075 -0.00199014414 0.0728016868
v -0.0523301177 0.00285863411 0.0729738846
v -0.0533628874 0.00123512291 0.0729775205
v -0.0547171645 -0.000119154232 0.0729805008
v -0.0563406758 -0.00115192391 0.0729828253
v -0.0519167595 0.00475614797 0.0730366483
v -0.0525560789 0.00296937954 0.0730406418
v -0.0535590462 0.00139265798 0.0730441585
v -0.0548745207 7.71834675e-05 0.0730470791
v -0.0519438796 0.00670170318 0.0729653612
v -0.0521617942 0.00481318962 0.0729695335
v -0.0527820401 0.00307976734 0.0729734078
v -0.0537552647 0.00154983543 0.0729768053
v -0.0523412041 0.00854795706 0.0727782622
v -0.0521281175 0.00670128595 0.0727823153
v -0.0523412041 0.00485467445 0.072786428
v -0.052947443 0.00316029321 0.0727901831
v -0.0530080013 0.0102120591 0.0725245252
v -0.0524068885 0.00853204262 0.0725282803
v -0.05219559 0.00670074951 0.0725323334
v -0.0524068885 0.0048693968 0.0725363865
v -0.0538989119 0.0117368652 0.0722711459
v -0.052947443 0.0102411462 0.0722744837
v -0.0523412041 0.00854682457 0.0722782388
v -0.0521281175 0.00670015346 0.0722823516
v -0.055031877 0.0131282164 0.0720850602
v -0.0537552647 0.0118516041 0.0720878616
v -0.0527820401 0.0103216721 0.0720912591
v -0.0521617942 0.0085882498 0.0720951334
v -0.0564512424 0.014327283 0.0720153823
v -0.0548745207 0.0133242561 0.0720175877
v -0.0535590462 0.0120088411 0.0720205083
v -0.0525560789 0.0104321195 0.072024025
v -0.0581809096 0.0152118159 0.072080411
v -0.0563406758 0.0145533634 0.0720818415
v -0.0547171645 0.0135206534 0.0720841661
v -0.0645720214 0.036985632 0.0728980079
v -0.0665292591 0.037211474 0.0728975311
v -0.0665292591 0.0370268188 0.0727149025
v -0.0645148009 0.0372308455 0.0729644671
v -0.0665292591 0.0374632441 0.0729639307
v -0.0685436577 0.0372308455 0.0729644671
v -0.0665292591 0.0377147757 0.0728963986
v -0.0644576401 0.037475761 0.072896935
v -0.0644157976 0.0376547538 0.0727135316
v -0.0624733977 0.036959704 0.0727150813
v -0.0625543445 0.0367947184 0.0728984252
v -0.0626649112 0.036568936 0.0729659572
v -0.0608750992 0.0357265435 0.0729008093
v -0.0607598834 0.0358697735 0.0727174655
v -0.0624437742 0.0370197259 0.0724649206
v -0.0607177429 0.0359217487 0.0724673644
v -0.0592781119 0.0344821773 0.072470583
v -0.0593306832 0.0344405733 0.0727206841
v -0.0581801943 0.032756146 0.0724743977
v -0.0582406931 0.0327271186 0.0727244988
v -0.0594743304 0.0343257748 0.0729039088
v -0.0584061556 0.0326465331 0.0729076639
v -0.0610324554 0.0355305038 0.0729682222
v -0.0596705489 0.0341685377 0.072971262
v -0.0586321168 0.0325361453 0.0729748979
v -0.0577251129 0.0307432376 0.0729118958
v -0.0627754778 0.0363427959 0.0728994384
v -0.0611898117 0.0353341661 0.0729017034
v -0.0598667078 0.0340110622 0.072904624
v -0.0579701476 0.0306861959 0.0729790106
v -0.0574860983 0.0286716186 0.0729164854
v -0.058858078 0.0324253999 0.0729081407
v -0.0646138638 0.0368058048 0.0727153793
v -0.0628564209 0.0361769758 0.0727168098
v -0.0665292591 0.0369588099 0.0724650398
v -0.068429336 0.0367395841 0.0724655762
v -0.0646291822 0.0367395841 0.0724655762
v -0.0613050275 0.0351901017 0.0727190152
v -0.0628860444 0.0361158811 0.0724669471
v -0.060010355 0.0338954888 0.0727218762
v -0.0613471679 0.035136994 0.0724690929
v -0.0590234809 0.0323440395 0.0727253333
v -0.0600629263 0.0338527523 0.0724719539
v -0.0582152419 0.0306288563 0.0729121342
v -0.0577377491 0.0286717974 0.072983481
v -0.0577251129 0.0265999995 0.0729211345
v -0.0575457029 0.0265577398 0.0727382079
v -0.0582407527 0.0246153437 0.0727424994
v -0.0581801943 0.0245851837 0.0724925771
v -0.0592781119 0.0228591524 0.0724963918
v -0.0593306832 0.0229008161 0.0722462907
v -0.0607598834 0.0214715563 0.0722495094
v -0.0608750992 0.0216147862 0.0720661655
v -0.0625543445 0.0205466114 0.0720685497
v -0.0626649112 0.0207724534 0.0720010772
v -0.0645148009 0.0201104842 0.0720025077
v -0.0665292591 0.0201299153 0.0720694438
v -0.0684446543 0.0205355249 0.0722515956
v -0.0701724738 0.0212254487 0.0725000277
v -0.071753487 0.0221523605 0.072747983
v -0.0731918067 0.0233322345 0.0729283467
v -0.0744263977 0.0248074494 0.0729920641
v -0.0753334016 0.0265999995 0.0729211345
v -0.0757566541 0.0286712013 0.0727334991
v -0.075824067 0.0286706649 0.0724835172
v -0.0755784363 0.0307994448 0.0724787489
v -0.0755128115 0.0307835899 0.072228767
v -0.0748177618 0.0327259861 0.0722244754
v -0.0746523589 0.0326446258 0.072041668
v -0.0735841841 0.0343238674 0.0720379129
v -0.0733879656 0.0341663323 0.0719712749
v -0.072026059 0.0355282389 0.0719682351
v -0.0718687028 0.0353321992 0.0720356479
v -0.0702830404 0.0363408886 0.0720334426
v -0.0702020973 0.0361759029 0.0722167864
v -0.0684446543 0.0368047319 0.0722154155
v -0.0665292591 0.0370256864 0.0722149387
v -0.0684864968 0.0369837247 0.072032012
v -0.070393607 0.036566671 0.0719659105
v -0.0721834153 0.0357246362 0.0720348135
v -0.0646138638 0.0368047319 0.0722154155
v -0.0665292591 0.0372095071 0.0720314756
v -0.0685436577 0.0372286402 0.07196448
v -0.0705041736 0.036792811 0.0720324293
v -0.0628564209 0.0361759029 0.0722167864
v -0.0645720214 0.0369837247 0.072032012
v -0.0665292591 0.0374610387 0.0719639435
v -0.0686008781 0.0374738537 0.0720308796
v -0.0613050275 0.0351890288 0.0722189918
v -0.0627754778 0.0363408886 0.0720334426
v -0.0645148009 0.0372286402 0.07196448
v -0.0705851167 0.0369586311 0.0722150579
v -0.0722985715 0.035868641 0.0722175017
v -0.0737278312 0.0344394408 0.0722206607
v -0.0748783201 0.032756146 0.0724743977
v -0.0737804025 0.0344821773 0.072470583
v -0.0723407716 0.0359217487 0.0724673644
v -0.0755128115 0.0307846628 0.0727287903
v -0.0748177618 0.0327271186 0.0727244988
v -0.0737278312 0.0344405733 0.0727206841
v -0.0755724162 0.0286716186 0.0729164854
v -0.0753334016 0.0307432376 0.0729118958
v -0.0746523589 0.0326465331 0.0729076639
v -0.0750883073 0.0266573392 0.0729879513
v -0.0753207654 0.0286717974 0.072983481
v -0.0750883669 0.0306861959 0.0729790106
v -0.0742004365 0.0249178372 0.07292483
v -0.0748432726 0.0267143808 0.0729208365
v -0.0750691146 0.0286716186 0.0729164854
v -0.0730481595 0.0234469734 0.072745122
v -0.0740350336 0.0249983631 0.0727416649
v -0.0746638626 0.0267558657 0.072737731
v -0.0717113465 0.0222043358 0.0724978819
v -0.0729955882 0.0234885775 0.0724950209
v -0.0739744753 0.0250274502 0.0724915639
v -0.0702020973 0.0211643539 0.072250165
v -0.071753487 0.022151228 0.0722479597
v -0.0730481595 0.0234459005 0.0722450987
v -0.0684864968 0.0203556977 0.0720689669
v -0.0702830404 0.0209985338 0.0720675364
v -0.0718687028 0.0220072232 0.0720652714
v -0.0665292591 0.0198780857 0.0720030442
v -0.0685436577 0.0201104842 0.0720025077
v -0.070393607 0.0207724534 0.0720010772
v -0.0644576401 0.0198655687 0.0720700398
v -0.0665292591 0.0196265541 0.0720705763
v -0.0686008781 0.0198655687 0.0720700398
v -0.0624733977 0.0203816257 0.0722518936
v -0.0644157976 0.019686576 0.0722534433
v -0.0665292591 0.0194427334 0.0722539797
v -0.0607177429 0.021419581 0.0724996105
v -0.0624437742 0.0203216039 0.0725020543
v -0.0644004792 0.0196214877 0.072503604
v -0.0593306832 0.0229018889 0.0727463141
v -0.0607598834 0.0214726888 0.0727494732
v -0.0624733977 0.0203826986 0.0727519169
v -0.0584061556 0.024696704 0.0729253665
v -0.0594743304 0.0230175219 0.0729290619
v -0.0608750992 0.0216167532 0.0729321614
v -0.0579701476 0.0266573392 0.0729879513
v -0.0586321168 0.0248074494 0.0729920641
v -0.0596705489 0.0231749974 0.0729956999
v -0.0579893999 0.0286716186 0.0729164854
v -0.0582152419 0.0267143808 0.0729208365
v -0.058858078 0.0249178372 0.07292483
v -0.0583946519 0.0305865966 0.0727292076
v -0.0581736378 0.0286712013 0.0727334991
v -0.0583946519 0.0267558657 0.072737731
v -0.0590840392 0.0323138796 0.072475411
v -0.0584602766 0.0305707417 0.0724792853
v -0.0582410507 0.0286706649 0.0724835172
v -0.060010355 0.0338943563 0.0722218528
v -0.0590234809 0.0323429666 0.0722253099
v -0.0583946519 0.0305855237 0.0722292438
v -0.0611898117 0.0353321992 0.0720356479
v -0.0598667078 0.0340091549 0.0720386282
v -0.058858078 0.0324234925 0.0720421448
v -0.0626649112 0.036566671 0.0719659105
v -0.0610324554 0.0355282389 0.0719682351
v -0.0572344474 0.0286706649 0.0724835172
v -0.0574800186 0.0307994448 0.0724787489
v -0.0575457029 0.0307847224 0.0727287903
v -0.0573018603 0.0286712013 0.0727334991
v -0.0573018603 0.0286701284 0.0722334757
v -0.0574800186 0.026541885 0.072488226
v -0.0575457029 0.0265566669 0.0722381845
v -0.0582407527 0.0246142708 0.0722425357
v -0.0577251129 0.0265980922 0.072055079
v -0.0584061556 0.0246947967 0.072059311
v -0.0586321168 0.0248051845 0.0719920769
v -0.0596705489 0.023172792 0.0719957128
v -0.0594743304 0.023015555 0.0720630661
v -0.0610324554 0.0218108259 0.0719987527
v -0.0598667078 0.0233302675 0.0720623508
v -0.0611898117 0.0220072232 0.0720652714
v -0.0627754778 0.0209985338 0.0720675364
v -0.0459937267 0.0293160044 0.0724820271
v -0.0471266918 0.0289106332 0.0724829808
v -0.0471113734 0.0288455449 0.0727330819
v -0.0483622365 0.0287011825 0.0727334395
v -0.0483622365 0.0287680589 0.0724832788
v -0.0483622365 0.0287001096 0.0722334161
v -0.0495978408 0.0289106332 0.0724829808
v -0.0496131591 0.0288455449 0.0727330819
v -0.0483622365 0.0285173617 0.072916843
v -0.0496550016 0.0286665522 0.0729164854
v -0.0497121625 0.0284216367 0.0729840174
v -0.0509518795 0.0288652144 0.0729830638
v -0.0508413129 0.0290909968 0.0729155913
v -0.0507603697 0.0292560421 0.0727321878
v -0.0518885069 0.0297571383 0.0729141012
v -0.0520458631 0.0295610987 0.072981514
v -0.0510624461 0.028639134 0.072916545
v -0.0522032194 0.029364761 0.0729149356
v -0.0523183756 0.0292206965 0.0727322474
v -0.0532983355 0.0302006565 0.0727301016
v -0.0531547479 0.0303162895 0.0729128495
v -0.0529585294 0.030473765 0.0729794875
v -0.0538803749 0.0314570032 0.0729102865
v -0.0540457778 0.0313756429 0.072727479
v -0.0533509068 0.0301579796 0.0724801794
v -0.0541063361 0.0313454829 0.0724775568
v -0.0540457778 0.03137457 0.0722274557
v -0.0545224361 0.0327067338 0.072224535
v -0.0545881204 0.0326919518 0.0724745765
v -0.0545224361 0.0327078067 0.0727244988
v -0.0566723756 -0.000474993954 0.0725483075
v -0.0583524518 -0.0010761068 0.0725496188
v -0.0551892333 0.000468487968 0.0725462213
v -0.0583370738 -0.00114125467 0.0727997795
v -0.0566427521 -0.000535015832 0.0727984086
v -0.0601837449 -0.00135428167 0.0728002563
v -0.0601837449 -0.00128740526 0.0725500956
v -0.062030416 -0.00114125467 0.0727997795
v -0.0601837449 -0.0015381024 0.0729836598
v -0.0620722584 -0.00132024742 0.072983183
v -0.0582952313 -0.00132024742 0.072983183
v -0.0621294193 -0.00156516291 0.073050715
v -0.0601837449 -0.001789634 0.0730511919
v -0.0639162511 -0.000925783883 0.0730492845
v -0.0638056844 -0.000700001488 0.0729818121
v -0.0654929727 7.71834675e-05 0.0730470791
v -0.0640268177 -0.00115192391 0.0729828253
v -0.065650329 -0.000119154232 0.0729805008
v -0.0621866398 -0.00181037642 0.0729842559
v -0.0657655448 -0.000263218652 0.0727978125
v -0.0641077608 -0.00131774403 0.0728001967
v -0.0671482533 0.0011195495 0.0727947727
v -0.0670046061 0.00123512291 0.0729775205
v -0.0682027787 0.00277727377 0.0727910772
v -0.0672008246 0.00107681297 0.0725448504
v -0.068263337 0.00274711382 0.0725411549
v -0.0658076853 -0.00031632639 0.0725479499
v -0.0470694713 0.0396478735 0.0728921071
v -0.0483622365 0.0397970639 0.0728917494
v -0.0483622365 0.0396124087 0.0727091804
v -0.0470123105 0.039893087 0.0729585662
v -0.0483622365 0.0400488339 0.0729582086
v -0.0497122221 0.039893087 0.0729585662
v -0.0483622365 0.0403003655 0.072890617
v -0.0469551496 0.0401380025 0.0728910342
v -0.0469132476 0.0403169952 0.0727075711
v -0.0455810837 0.0398403369 0.072708644
v -0.0456620269 0.0396753512 0.0728920475
v -0.0457725935 0.0394495092 0.0729595199
v -0.0445213132 0.0389496647 0.0728936568
v -0.0444060974 0.0390928946 0.0727103129
v -0.0455514602 0.0399002992 0.0724585429
v -0.0443639569 0.0391449295 0.0724602118
v -0.0433735661 0.0381545387 0.0724624172
v -0.0434261374 0.0381129347 0.0727125183
v -0.0435697846 0.0379981361 0.072895743
v -0.0446786694 0.038753625 0.0729610696
v -0.0437659435 0.0378409587 0.0729630962
v -0.0430700593 0.0367470346 0.07296554
v -0.0458831601 0.0392234288 0.0728930607
v -0.0448360257 0.0385572873 0.0728945509
v -0.043962162 0.0376834236 0.0728964582
v -0.0426264815 0.0355073176 0.0729682818
v -0.0432960205 0.0366362892 0.0728987828
v -0.0471113734 0.0394681059 0.0727094784
v -0.0459641032 0.0390576087 0.0727103725
v -0.0483622365 0.0395443998 0.0724593177
v -0.0495978408 0.0394018851 0.0724596158
v -0.0471266918 0.0394018851 0.0724596158
v -0.0449511819 0.0384132825 0.072711803
v -0.0459937267 0.0389965139 0.0724605098
v -0.0441058092 0.0375678502 0.0727137104
v -0.0449933819 0.0383601151 0.0724619403
v -0.043461483 0.0365549289 0.0727159753
v -0.0441583805 0.0375251137 0.0724637881
v -0.0428715758 0.035449978 0.0729014054
v -0.0424707346 0.0341573916 0.072971262
v -0.0423814468 0.032750126 0.0729074255
v -0.0426786952 0.0313756429 0.072727479
v -0.0433735661 0.0301579796 0.0724801794
v -0.0444060974 0.0292196237 0.0722322837
v -0.0456620269 0.0286371671 0.0720505491
v -0.0470123105 0.0284194313 0.0719840303
v -0.0483622365 0.0285154544 0.0720508471
v -0.0496131591 0.0288444124 0.0722331181
v -0.0507307462 0.0293160044 0.0724820271
v -0.0517732911 0.0299003683 0.0727307573
v -0.052762311 0.030631002 0.0729121342
v -0.0536544137 0.0315677486 0.0729770437
v -0.0543430857 0.0327500664 0.0729074255
v -0.0546896271 0.0341567956 0.0727212802
v -0.0547570996 0.0341562591 0.0724712983
v -0.0545881204 0.0356205665 0.07246802
v -0.0545224361 0.035604652 0.0722180977
v -0.0540457778 0.0369368754 0.0722151175
v -0.0538803749 0.0368555151 0.0720322505
v -0.0531547479 0.0379962288 0.0720297471
v -0.0529585294 0.0378387533 0.0719631091
v -0.0520458631 0.0387514196 0.0719610825
v -0.0518885069 0.03855538 0.0720284954
v -0.0508413129 0.0392214619 0.0720270053
v -0.0507603697 0.0390564762 0.0722104087
v -0.0496131591 0.0394669734 0.0722094551
v -0.0483622365 0.0396112762 0.072209157
v -0.0496550016 0.0396459661 0.0720260516
v -0.0509518795 0.0394473039 0.0719595328
v -0.0522032194 0.0389477573 0.0720276013
v -0.0471113734 0.0394669734 0.0722094551
v -0.0483622365 0.039795097 0.0720257536
v -0.0497122221 0.0398908816 0.0719585195
v -0.0510624461 0.0396733843 0.072025992
v -0.0459641032 0.0390564762 0.0722104087
v -0.0470694713 0.0396459661 0.0720260516
v -0.0483622365 0.0400466286 0.0719582215
v -0.0497693829 0.0401360951 0.0720249787
v -0.0449511819 0.03841215 0.0722118393
v -0.0458831601 0.0392214619 0.0720270053
v -0.0470123105 0.0398908816 0.0719585195
v -0.0511433892 0.0398392044 0.0722086802
v -0.0523183756 0.0390917622 0.0722102895
v -0.0532983355 0.0381118618 0.0722124949
v -0.0541063361 0.0369670354 0.0724650398
v -0.0533509068 0.0381545387 0.0724624172
v -0.0523605756 0.0391449295 0.0724602118
v -0.0545224361 0.0356057845 0.0727180615
v -0.0540457778 0.0369379483 0.0727150813
v -0.0532983355 0.0381129347 0.0727125183
v -0.0545053892 0.0341572128 0.072904326
v -0.0543430857 0.0355643593 0.072901167
v -0.0538803749 0.0368574224 0.072898306
v -0.0540979914 0.032807406 0.0729743019
v -0.0542537384 0.0341573916 0.072971262
v -0.0540979914 0.0355073176 0.0729682818
v -0.0534284525 0.0316781364 0.0729098096
v -0.0538529567 0.0328644477 0.072907187
v -0.0540020876 0.0341572128 0.072904326
v -0.0526187234 0.030745741 0.0727288499
v -0.0532630496 0.0317586623 0.0727266446
v -0.0536735468 0.0329059325 0.0727240816
v -0.0517311506 0.0299524032 0.0724806562
v -0.0525661521 0.0307874046 0.0724788085
v -0.0532024913 0.0317877494 0.0724765435
v -0.0507603697 0.0292549096 0.0722321644
v -0.0517732911 0.0298992358 0.0722307339
v -0.0526187234 0.0307446681 0.0722288862
v -0.0496550016 0.0286646448 0.0720504895
v -0.0508413129 0.0290890895 0.0720495358
v -0.0518885069 0.029755231 0.0720480457
v -0.0483622365 0.0282636844 0.0719843879
v -0.0497121625 0.0284194313 0.0719840303
v -0.0509518795 0.0288630091 0.0719830766
v -0.0469551496 0.0281745158 0.0720515624
v -0.0483622365 0.0280121528 0.07205192
v -0.0497693829 0.0281745158 0.0720515624
v -0.0455810837 0.0284721814 0.0722339526
v -0.0469132476 0.0279955231 0.0722349659
v -0.0483622365 0.027828332 0.0722353831
v -0.0443639569 0.0291675888 0.0724823847
v -0.0455514602 0.0284121595 0.0724840537
v -0.0468979292 0.0279303752 0.0724851266
v -0.0434261374 0.0302006565 0.0727301016
v -0.0444060974 0.0292206965 0.0727322474
v -0.0455810837 0.0284733139 0.0727339163
v -0.0428440981 0.0314570032 0.0729102865
v -0.0435697846 0.0303162895 0.0729128495
v -0.0445213132 0.029364761 0.0729149356
v -0.0426264815 0.032807406 0.0729743019
v -0.0430700593 0.0315677486 0.0729770437
v -0.0437659435 0.030473765 0.0729794875
v -0.0427223854 0.0341572128 0.072904326
v -0.0428715758 0.0328644477 0.072907187
v -0.0432960205 0.0316781364 0.0729098096
v -0.0430509858 0.0354077183 0.0727185383
v -0.0429066233 0.0341567956 0.0727212802
v -0.0430509858 0.0329059325 0.0727240816
v -0.0435219817 0.0365247689 0.0724660531
v -0.0431166105 0.0353918038 0.0724685565
v -0.0429740958 0.0341562591 0.0724712983
v -0.0441058092 0.0375667177 0.072213687
v -0.043461483 0.036553856 0.072215952
v -0.0430509858 0.0354065858 0.072218515
v -0.0448360257 0.03855538 0.0720284954
v -0.043962162 0.0376815163 0.0720304623
v -0.0432960205 0.0366343819 0.0720327869
v -0.0457725935 0.0394473039 0.0719595328
v -0.0446786694 0.0387514196 0.0719610825
v -0.0546896271 0.0341557227 0.0722213164
v -0.0543430857 0.032748159 0.0720414296
v -0.0545053892 0.0341553055 0.0720382705
v -0.0542537384 0.0341551267 0.0719712749
v -0.0540979914 0.0355050527 0.0719682947
v -0.0543430857 0.0355623923 0.0720351711
v -0.0536544137 0.0367447697 0.0719655529
v -0.0538529567 0.0354480706 0.0720354095
v -0.0534284525 0.0366343819 0.0720327869
v -0.0532630496 0.036553856 0.072215952
v -0.0526187234 0.0375667177 0.072213687
v -0.052762311 0.0376815163 0.0720304623
v -0.0517732911 0.03841215 0.0722118393
v -0.0525661521 0.0375251137 0.0724637881
v -0.0517311506 0.0383601151 0.0724619403
v -0.0517732911 0.0384132825 0.072711803
v -0.0507603697 0.0390576087 0.0727103725
v -0.0507307462 0.0389965139 0.0724605098
v -0.0496131591 0.0394681059 0.0727094784
v -0.0508413129 0.0392234288 0.0728930607
v -0.0496550016 0.0396478735 0.0728921071
v -0.0757566541 0.0286701284 0.0722334757
v -0.0753334016 0.0265980922 0.072055079
v -0.0755724162 0.0286697112 0.0720504895
v -0.0753207654 0.0286695324 0.0719834939
v -0.0750883669 0.0306839906 0.0719790235
v -0.0753334016 0.0307413302 0.0720458999
v -0.0744263977 0.0325338803 0.0719749108
v -0.0748432726 0.0306269489 0.0720461383
v -0.0742004365 0.0324234925 0.0720421448
v -0.0740350336 0.0323429666 0.0722253099
v -0.0730481595 0.0338943563 0.0722218528
v -0.0731918067 0.0340091549 0.0720386282
v -0.071753487 0.0351890288 0.0722189918
v -0.0729955882 0.0338527523 0.0724719539
v -0.0717113465 0.035136994 0.0724690929
v -0.071753487 0.0351901017 0.0727190152
v -0.0702020973 0.0361769758 0.0727168098
v -0.0701724738 0.0361158811 0.0724669471
v -0.0684446543 0.0368058048 0.0727153793
v -0.0702830404 0.0363427959 0.0728994384
v -0.0684864968 0.036985632 0.0728980079
v -0.0533628874 0.0121663166 0.0720871463
v -0.0601837449 0.0156275593 0.0722625032
v -0.0581390075 0.0153916432 0.0722630396
v -0.0523301177 0.0105428053 0.0720907822
v -0.0601837449 0.0156955086 0.0725123659
v -0.0622438006 0.0154578639 0.0725128427
v -0.0622284822 0.015392716 0.0727630034
v -0.0641077608 0.014720316 0.0727644935
v -0.0640268177 0.0145553304 0.072947897
v -0.065650329 0.0135225607 0.072950162
v -0.0654929727 0.013326521 0.0730176345
v -0.0668084472 0.0120110465 0.0730205551
v -0.0666122288 0.011853571 0.0729539171
v -0.0675854534 0.010323639 0.0729573146
v -0.0674200505 0.0102422787 0.0727744475
v -0.0680262893 0.00854795706 0.0727782622
v -0.0679606646 0.00853204262 0.0725282803
v -0.0681719631 0.00670074951 0.0725323334
v -0.0682393759 0.00670015346 0.0722823516
v -0.0680262893 0.00485354196 0.0722864643
v -0.0682056993 0.00481128227 0.0721035376
v -0.0675854534 0.00307785999 0.0721073523
v -0.0678114146 0.00296711456 0.0720406547
v -0.0668084472 0.00139039301 0.0720441714
v -0.0670046061 0.00123321556 0.072111465
v -0.065650329 -0.000121061581 0.0721145049
v -0.0657655448 -0.000264291535 0.0722978488
v -0.0641077608 -0.00131881691 0.0723001733
v -0.0641373843 -0.00137883879 0.072550334
v -0.0622438006 -0.0020563649 0.0725518242
v -0.0622284822 -0.00199014414 0.0728016868
v -0.0601837449 -0.00222605933 0.0728021637
v -0.0601837449 -0.00204146374 0.0729847923
v -0.05818085 -0.00181037642 0.0729842559
v -0.0582380705 -0.00156516291 0.073050715
v -0.0564512424 -0.000925783883 0.0730492845
v -0.056561809 -0.000700001488 0.0729818121
v -0.055031877 0.000273223151 0.0729796663
v -0.0551470928 0.000416453113 0.0727963224
v -0.0538989119 0.00166463398 0.072793521
v -0.0539514832 0.00170623802 0.0725434199
v -0.0530080013 0.00318938028 0.0725401416
v -0.052947443 0.00315922033 0.0722902194
v -0.0523412041 0.00485354196 0.0722864643
v -0.0521617942 0.00481128227 0.0721035376
v -0.0519438796 0.00669979583 0.0720993057
v -0.0516922288 0.00669961702 0.0720323697
v -0.0519167595 0.00864529144 0.0720280185
v -0.0516716652 0.00870263111 0.0720948949
f 1 2 3
f 1 2 3
f 4 3 2
f 4 3 2
f 3 5 1
f 3 5 1
f 2 6 4
f 2 6 4
f 5 3 7
f 5 3 7
f 8 7 3
f 3 4 8
f 8 7 3
f 3 4 8
f 7 9 5
f 7 9 5
f 6 2 10
f 6 2 10
f 2 1 11
f 2 1 11
f 11 10 2
f 11 10 2
f 12 1 5
f 12 1 5
f 13 11 1
f 1 12 13
f 13 11 1
f 1 12 13
f 14 5 9
f 5 14 12
f 14 5 9
f 5 14 12
f 15 12 14
f 15 12 14
f 16 13 12
f 12 15 16
f 16 13 12
f 12 15 16
f 11 13 17
f 11 13 17
f 18 17 13
f 13 16 18
f 18 17 13
f 13 16 18
f 17 19 11
f 17 19 11
f 10 11 19
f 10 11 19
f 17 18 20
f 17 18 20
f 20 21 17
f 19 17 21
f 20 21 17
f 19 17 21
f 22 20 18
f 22 20 18
f 23 18 16
f 18 23 22
f 23 18 16
f 18 23 22
f 16 24 23
f 16 24 23
f 24 16 15
f 24 16 15
f 25 23 24
f 25 23 24
f 26 22 23
f 23 25 26
f 26 22 23
f 23 25 26
f 20 22 27
f 20 22 27
f 28 27 22
f 22 26 28
f 28 27 22
f 22 26 28
f 27 29 20
f 27 29 20
f 21 20 29
f 21 20 29
f 27 28 30
f 27 28 30
f 30 31 27
f 29 27 31
f 30 31 27
f 29 27 31
f 32 30 28
f 32 30 28
f 33 28 26
f 28 33 32
f 33 28 26
f 28 33 32
f 26 34 33
f 26 34 33
f 34 26 25
f 34 26 25
f 35 33 34
f 35 33 34
f 36 32 33
f 33 35 36
f 36 32 33
f 33 35 36
f 37 38 39
f 37 38 39
f 40 39 38
f 40 39 38
f 41 42 43
f 41 42 43
f 44 43 42
f 44 43 42
f 45 41 46
f 43 46 41
f 45 41 46
f 43 46 41
f 37 45 47
f 46 47 45
f 37 45 47
f 46 47 45
f 47 48 37
f 47 48 37
f 38 37 48
f 38 37 48
f 47 46 49
f 47 46 49
f 48 50 38
f 48 50 38
f 51 38 50
f 51 38 50
f 38 51 40
f 38 51 40
f 52 49 46
f 52 49 46
f 46 43 52
f 46 43 52
f 49 52 53
f 49 52 53
f 50 54 51
f 50 54 51
f 55 52 43
f 55 52 43
f 43 44 55
f 43 44 55
f 56 53 52
f 56 53 52
f 52 55 56
f 52 55 56
f 53 56 57
f 53 56 57
f 58 55 44
f 58 55 44
f 55 58 59
f 55 58 59
f 59 56 55
f 59 56 55
f 60 59 58
f 60 59 58
f 61 57 56
f 61 57 56
f 56 59 61
f 56 59 61
f 57 61 62
f 57 61 62
f 59 60 63
f 59 60 63
f 63 61 59
f 63 61 59
f 64 63 60
f 64 63 60
f 65 62 61
f 65 62 61
f 61 63 65
f 61 63 65
f 62 65 66
f 62 65 66
f 63 64 67
f 63 64 67
f 67 65 63
f 67 65 63
f 68 67 64
f 68 67 64
f 69 66 65
f 69 66 65
f 65 67 69
f 65 67 69
f 66 69 70
f 66 69 70
f 67 68 71
f 67 68 71
f 71 69 67
f 71 69 67
f 72 71 68
f 72 71 68
f 73 70 69
f 73 70 69
f 69 71 73
f 69 71 73
f 70 73 74
f 70 73 74
f 71 72 75
f 71 72 75
f 75 73 71
f 75 73 71
f 76 75 72
f 76 75 72
f 77 74 73
f 77 74 73
f 73 75 77
f 73 75 77
f 74 77 78
f 74 77 78
f 75 76 79
f 75 76 79
f 79 77 75
f 79 77 75
f 80 79 76
f 80 79 76
f 81 78 77
f 81 78 77
f 77 79 81
f 77 79 81
f 78 81 82
f 78 81 82
f 79 80 83
f 79 80 83
f 83 81 79
f 83 81 79
f 84 83 80
f 84 83 80
f 85 82 81
f 85 82 81
f 81 83 85
f 81 83 85
f 82 85 86
f 82 85 86
f 83 84 87
f 83 84 87
f 87 85 83
f 87 85 83
f 88 87 84
f 88 87 84
f 89 86 85
f 89 86 85
f 85 87 89
f 85 87 89
f 86 89 90
f 86 89 90
f 87 88 91
f 87 88 91
f 91 89 87
f 91 89 87
f 92 91 88
f 92 91 88
f 93 90 89
f 93 90 89
f 89 91 93
f 89 91 93
f 90 93 94
f 90 93 94
f 91 92 95
f 91 92 95
f 95 93 91
f 95 93 91
f 96 95 92
f 96 95 92
f 97 94 93
f 97 94 93
f 93 95 97
f 93 95 97
f 94 97 98
f 94 97 98
f 95 96 99
f 95 96 99
f 99 97 95
f 99 97 95
f 100 99 96
f 100 99 96
f 101 98 97
f 101 98 97
f 97 99 101
f 97 99 101
f 98 101 102
f 98 101 102
f 99 100 103
f 99 100 103
f 103 101 99
f 103 101 99
f 104 103 100
f 104 103 100
f 105 102 101
f 105 102 101
f 101 103 105
f 101 103 105
f 102 105 106
f 102 105 106
f 103 104 107
f 103 104 107
f 107 105 103
f 107 105 103
f 108 107 104
f 108 107 104
f 109 106 105
f 109 106 105
f 105 107 109
f 105 107 109
f 106 109 110
f 106 109 110
f 107 108 111
f 107 108 111
f 111 109 107
f 111 109 107
f 112 111 108
f 112 111 108
f 113 110 109
f 113 110 109
f 109 111 113
f 109 111 113
f 110 113 114
f 110 113 114
f 111 112 115
f 111 112 115
f 115 113 111
f 115 113 111
f 116 115 112
f 116 115 112
f 117 114 113
f 117 114 113
f 113 115 117
f 113 115 117
f 114 117 118
f 114 117 118
f 115 116 119
f 115 116 119
f 119 117 115
f 119 117 115
f 120 119 116
f 120 119 116
f 121 118 117
f 121 118 117
f 117 119 121
f 117 119 121
f 118 121 122
f 118 121 122
f 119 120 123
f 119 120 123
f 123 121 119
f 123 121 119
f 124 123 120
f 124 123 120
f 125 122 121
f 125 122 121
f 121 123 125
f 121 123 125
f 122 125 31
f 122 125 31
f 123 124 126
f 123 124 126
f 126 125 123
f 126 125 123
f 127 126 124
f 127 126 124
f 128 31 125
f 128 31 125
f 125 126 128
f 125 126 128
f 31 128 29
f 31 128 29
f 126 127 129
f 126 127 129
f 129 128 126
f 129 128 126
f 130 129 127
f 130 129 127
f 131 29 128
f 131 29 128
f 128 129 131
f 128 129 131
f 29 131 21
f 29 131 21
f 129 130 132
f 129 130 132
f 132 131 129
f 132 131 129
f 133 132 130
f 133 132 130
f 134 21 131
f 134 21 131
f 131 132 134
f 131 132 134
f 21 134 19
f 21 134 19
f 132 133 135
f 132 133 135
f 135 134 132
f 135 134 132
f 40 135 133
f 40 135 133
f 136 19 134
f 136 19 134
f 134 135 136
f 134 135 136
f 19 136 10
f 19 136 10
f 54 10 136
f 54 10 136
f 135 40 51
f 135 40 51
f 136 51 54
f 136 51 54
f 51 136 135
f 51 136 135
f 137 138 139
f 137 138 139
f 140 141 138
f 138 137 140
f 140 141 138
f 138 137 140
f 142 141 143
f 142 141 143
f 144 143 141
f 141 140 144
f 144 143 141
f 141 140 144
f 143 145 142
f 143 145 142
f 146 142 145
f 146 142 145
f 143 144 147
f 143 144 147
f 147 148 143
f 145 143 148
f 147 148 143
f 145 143 148
f 149 147 144
f 149 147 144
f 150 144 140
f 144 150 149
f 150 144 140
f 144 150 149
f 140 151 150
f 140 151 150
f 151 140 137
f 151 140 137
f 152 150 151
f 152 150 151
f 153 149 150
f 150 152 153
f 153 149 150
f 150 152 153
f 147 149 154
f 147 149 154
f 155 154 149
f 149 153 155
f 155 154 149
f 149 153 155
f 154 156 147
f 154 156 147
f 148 147 156
f 148 147 156
f 154 155 157
f 154 155 157
f 157 158 154
f 156 154 158
f 157 158 154
f 156 154 158
f 159 157 155
f 159 157 155
f 160 155 153
f 155 160 159
f 160 155 153
f 155 160 159
f 153 161 160
f 153 161 160
f 161 153 152
f 161 153 152
f 162 160 161
f 162 160 161
f 163 159 160
f 160 162 163
f 163 159 160
f 160 162 163
f 157 159 164
f 157 159 164
f 165 164 159
f 159 163 165
f 165 164 159
f 159 163 165
f 164 166 157
f 164 166 157
f 158 157 166
f 158 157 166
f 164 165 167
f 164 165 167
f 167 168 164
f 166 164 168
f 167 168 164
f 166 164 168
f 169 167 165
f 169 167 165
f 170 165 163
f 165 170 169
f 170 165 163
f 165 170 169
f 163 171 170
f 163 171 170
f 171 163 162
f 171 163 162
f 172 170 171
f 172 170 171
f 173 169 170
f 170 172 173
f 173 169 170
f 170 172 173
f 167 169 174
f 167 169 174
f 175 174 169
f 169 173 175
f 175 174 169
f 169 173 175
f 174 176 167
f 174 176 167
f 168 167 176
f 168 167 176
f 174 175 177
f 174 175 177
f 177 178 174
f 176 174 178
f 177 178 174
f 176 174 178
f 179 177 175
f 179 177 175
f 180 175 173
f 175 180 179
f 180 175 173
f 175 180 179
f 173 181 180
f 173 181 180
f 181 173 172
f 181 173 172
f 182 183 184
f 182 183 184
f 185 184 183
f 183 186 185
f 185 184 183
f 183 186 185
f 184 187 182
f 184 187 182
f 188 182 187
f 188 182 187
f 184 185 189
f 184 185 189
f 189 190 184
f 187 184 190
f 189 190 184
f 187 184 190
f 191 189 185
f 191 189 185
f 192 185 186
f 185 192 191
f 192 185 186
f 185 192 191
f 186 193 192
f 186 193 192
f 193 186 194
f 193 186 194
f 195 192 193
f 195 192 193
f 196 191 192
f 192 195 196
f 196 191 192
f 192 195 196
f 189 191 197
f 189 191 197
f 198 197 191
f 191 196 198
f 198 197 191
f 191 196 198
f 197 199 189
f 197 199 189
f 190 189 199
f 190 189 199
f 197 198 200
f 197 198 200
f 200 201 197
f 199 197 201
f 200 201 197
f 199 197 201
f 202 200 198
f 202 200 198
f 203 198 196
f 198 203 202
f 203 198 196
f 198 203 202
f 196 204 203
f 196 204 203
f 204 196 195
f 204 196 195
f 205 203 204
f 205 203 204
f 206 202 203
f 203 205 206
f 206 202 203
f 203 205 206
f 200 202 207
f 200 202 207
f 208 207 202
f 202 206 208
f 208 207 202
f 202 206 208
f 207 209 200
f 207 209 200
f 201 200 209
f 201 200 209
f 207 208 210
f 207 208 210
f 210 211 207
f 209 207 211
f 210 211 207
f 209 207 211
f 212 210 208
f 212 210 208
f 213 208 206
f 208 213 212
f 213 208 206
f 208 213 212
f 206 214 213
f 206 214 213
f 214 206 205
f 214 206 205
f 215 213 214
f 215 213 214
f 216 212 213
f 213 215 216
f 216 212 213
f 213 215 216
f 210 212 217
f 210 212 217
f 218 217 212
f 212 216 218
f 218 217 212
f 212 216 218
f 217 219 210
f 217 219 210
f 211 210 219
f 211 210 219
f 217 218 220
f 217 218 220
f 220 221 217
f 219 217 221
f 220 221 217
f 219 217 221
f 222 220 218
f 222 220 218
f 223 218 216
f 218 223 222
f 223 218 216
f 218 223 222
f 216 224 223
f 216 224 223
f 224 216 215
f 224 216 215
f 225 226 227
f 225 226 227
f 228 227 226
f 228 227 226
f 229 230 231
f 229 230 231
f 232 231 230
f 232 231 230
f 233 229 234
f 231 234 229
f 233 229 234
f 231 234 229
f 225 233 235
f 234 235 233
f 225 233 235
f 234 235 233
f 235 236 225
f 235 236 225
f 226 225 236
f 226 225 236
f 235 234 237
f 235 234 237
f 236 238 226
f 236 238 226
f 239 226 238
f 239 226 238
f 226 239 228
f 226 239 228
f 240 237 234
f 240 237 234
f 234 231 240
f 234 231 240
f 237 240 241
f 237 240 241
f 238 242 239
f 238 242 239
f 243 240 231
f 243 240 231
f 231 232 243
f 231 232 243
f 244 241 240
f 244 241 240
f 240 243 244
f 240 243 244
f 241 244 245
f 241 244 245
f 246 243 232
f 246 243 232
f 243 246 247
f 243 246 247
f 247 244 243
f 247 244 243
f 248 247 246
f 248 247 246
f 249 245 244
f 249 245 244
f 244 247 249
f 244 247 249
f 245 249 250
f 245 249 250
f 247 248 251
f 247 248 251
f 251 249 247
f 251 249 247
f 252 251 248
f 252 251 248
f 253 250 249
f 253 250 249
f 249 251 253
f 249 251 253
f 250 253 254
f 250 253 254
f 251 252 255
f 251 252 255
f 255 253 251
f 255 253 251
f 256 255 252
f 256 255 252
f 257 254 253
f 257 254 253
f 253 255 257
f 253 255 257
f 254 257 258
f 254 257 258
f 255 256 259
f 255 256 259
f 259 257 255
f 259 257 255
f 260 259 256
f 260 259 256
f 261 258 257
f 261 258 257
f 257 259 261
f 257 259 261
f 258 261 262
f 258 261 262
f 259 260 263
f 259 260 263
f 263 261 259
f 263 261 259
f 264 263 260
f 264 263 260
f 265 262 261
f 265 262 261
f 261 263 265
f 261 263 265
f 262 265 266
f 262 265 266
f 263 264 267
f 263 264 267
f 267 265 263
f 267 265 263
f 268 267 264
f 268 267 264
f 269 266 265
f 269 266 265
f 265 267 269
f 265 267 269
f 266 269 270
f 266 269 270
f 267 268 271
f 267 268 271
f 271 269 267
f 271 269 267
f 272 271 268
f 272 271 268
f 273 270 269
f 273 270 269
f 269 271 273
f 269 271 273
f 270 273 274
f 270 273 274
f 271 272 275
f 271 272 275
f 275 273 271
f 275 273 271
f 276 275 272
f 276 275 272
f 277 274 273
f 277 274 273
f 273 275 277
f 273 275 277
f 274 277 278
f 274 277 278
f 275 276 279
f 275 276 279
f 279 277 275
f 279 277 275
f 280 279 276
f 280 279 276
f 281 278 277
f 281 278 277
f 277 279 281
f 277 279 281
f 278 281 221
f 278 281 221
f 279 280 282
f 279 280 282
f 282 281 279
f 282 281 279
f 283 282 280
f 283 282 280
f 284 221 281
f 284 221 281
f 281 282 284
f 281 282 284
f 221 284 219
f 221 284 219
f 282 283 285
f 282 283 285
f 285 284 282
f 285 284 282
f 286 285 283
f 286 285 283
f 287 219 284
f 287 219 284
f 284 285 287
f 284 285 287
f 219 287 211
f 219 287 211
f 285 286 288
f 285 286 288
f 288 287 285
f 288 287 285
f 289 288 286
f 289 288 286
f 290 211 287
f 290 211 287
f 287 288 290
f 287 288 290
f 211 290 209
f 211 290 209
f 288 289 291
f 288 289 291
f 291 290 288
f 291 290 288
f 292 291 289
f 292 291 289
f 293 209 290
f 293 209 290
f 290 291 293
f 290 291 293
f 209 293 201
f 209 293 201
f 291 292 294
f 291 292 294
f 294 293 291
f 294 293 291
f 295 294 292
f 295 294 292
f 296 201 293
f 296 201 293
f 293 294 296
f 293 294 296
f 201 296 199
f 201 296 199
f 294 295 297
f 294 295 297
f 297 296 294
f 297 296 294
f 298 297 295
f 298 297 295
f 299 199 296
f 299 199 296
f 296 297 299
f 296 297 299
f 199 299 190
f 199 299 190
f 297 298 300
f 297 298 300
f 300 299 297
f 300 299 297
f 301 300 298
f 301 300 298
f 302 190 299
f 302 190 299
f 299 300 302
f 299 300 302
f 190 302 187
f 190 302 187
f 300 301 303
f 300 301 303
f 303 302 300
f 303 302 300
f 304 303 301
f 304 303 301
f 305 187 302
f 305 187 302
f 302 303 305
f 302 303 305
f 187 305 188
f 187 305 188
f 303 304 306
f 303 304 306
f 306 305 303
f 306 305 303
f 307 306 304
f 307 306 304
f 308 188 305
f 308 188 305
f 305 306 308
f 305 306 308
f 188 308 309
f 188 308 309
f 306 307 310
f 306 307 310
f 310 308 306
f 310 308 306
f 311 310 307
f 311 310 307
f 312 309 308
f 312 309 308
f 308 310 312
f 308 310 312
f 309 312 313
f 309 312 313
f 310 311 314
f 310 311 314
f 314 312 310
f 314 312 310
f 315 314 311
f 315 314 311
f 316 313 312
f 316 313 312
f 312 314 316
f 312 314 316
f 313 316 317
f 313 316 317
f 314 315 318
f 314 315 318
f 318 316 314
f 318 316 314
f 228 318 315
f 228 318 315
f 319 317 316
f 319 317 316
f 316 318 319
f 316 318 319
f 317 319 320
f 317 319 320
f 242 320 319
f 242 320 319
f 318 228 239
f 318 228 239
f 319 239 242
f 319 239 242
f 239 319 318
f 239 319 318
f 321 322 323
f 321 322 323
f 324 323 322
f 324 323 322
f 323 325 321
f 323 325 321
f 322 326 324
f 322 326 324
f 325 323 327
f 325 323 327
f 328 327 323
f 323 324 328
f 328 327 323
f 323 324 328
f 327 329 325
f 327 329 325
f 326 322 330
f 326 322 330
f 322 321 331
f 322 321 331
f 331 330 322
f 331 330 322
f 332 321 325
f 332 321 325
f 333 331 321
f 321 332 333
f 333 331 321
f 321 332 333
f 334 325 329
f 325 334 332
f 334 325 329
f 325 334 332
f 335 332 334
f 335 332 334
f 336 333 332
f 332 335 336
f 336 333 332
f 332 335 336
f 331 333 337
f 331 333 337
f 338 337 333
f 333 336 338
f 338 337 333
f 333 336 338
f 337 339 331
f 337 339 331
f 330 331 339
f 330 331 339
f 337 338 340
f 337 338 340
f 340 341 337
f 339 337 341
f 340 341 337
f 339 337 341
f 342 340 338
f 342 340 338
f 343 338 336
f 338 343 342
f 343 338 336
f 338 343 342
f 336 344 343
f 336 344 343
f 344 336 335
f 344 336 335
f 345 343 344
f 345 343 344
f 346 342 343
f 343 345 346
f 346 342 343
f 343 345 346
f 340 342 347
f 340 342 347
f 348 347 342
f 342 346 348
f 348 347 342
f 342 346 348
f 347 349 340
f 347 349 340
f 341 340 349
f 341 340 349
f 347 348 350
f 347 348 350
f 350 351 347
f 349 347 351
f 350 351 347
f 349 347 351
f 352 350 348
f 352 350 348
f 353 348 346
f 348 353 352
f 353 348 346
f 348 353 352
f 346 354 353
f 346 354 353
f 354 346 345
f 354 346 345
f 355 353 354
f 355 353 354
f 356 352 353
f 353 355 356
f 356 352 353
f 353 355 356
f 357 180 181
f 357 180 181
f 358 179 180
f 180 357 358
f 358 179 180
f 180 357 358
f 177 179 359
f 177 179 359
f 360 359 179
f 179 358 360
f 360 359 179
f 179 358 360
f 359 361 177
f 359 361 177
f 178 177 361
f 178 177 361
f 359 360 362
f 359 360 362
f 362 363 359
f 361 359 363
f 362 363 359
f 361 359 363
f 364 362 360
f 364 362 360
f 365 360 358
f 360 365 364
f 365 360 358
f 360 365 364
f 358 366 365
f 358 366 365
f 366 358 357
f 366 358 357
f 367 365 366
f 367 365 366
f 368 364 365
f 365 367 368
f 368 364 365
f 365 367 368
f 362 364 369
f 362 364 369
f 370 369 364
f 364 368 370
f 370 369 364
f 364 368 370
f 369 371 362
f 369 371 362
f 363 362 371
f 363 362 371
f 369 370 372
f 369 370 372
f 372 373 369
f 371 369 373
f 372 373 369
f 371 369 373
f 374 372 370
f 374 372 370
f 375 370 368
f 370 375 374
f 375 370 368
f 370 375 374
f 368 376 375
f 368 376 375
f 376 368 367
f 376 368 367
f 326 375 376
f 326 375 376
f 377 374 375
f 375 326 377
f 377 374 375
f 375 326 377
f 376 324 326
f 376 324 326
f 324 376 378
f 324 376 378
f 367 378 376
f 367 378 376
f 378 328 324
f 378 328 324
f 330 377 326
f 330 377 326
f 378 367 379
f 378 367 379
f 366 379 367
f 366 379 367
f 328 378 380
f 379 380 378
f 328 378 380
f 379 380 378
f 380 381 328
f 380 381 328
f 327 328 381
f 327 328 381
f 379 366 382
f 379 366 382
f 357 382 366
f 357 382 366
f 380 379 383
f 382 383 379
f 380 379 383
f 382 383 379
f 381 380 384
f 381 380 384
f 383 384 380
f 383 384 380
f 381 385 327
f 381 385 327
f 329 327 385
f 329 327 385
f 385 381 386
f 385 381 386
f 384 386 381
f 384 386 381
f 382 357 387
f 382 357 387
f 181 387 357
f 181 387 357
f 387 388 382
f 387 388 382
f 383 382 388
f 383 382 388
f 387 181 389
f 387 181 389
f 172 389 181
f 172 389 181
f 388 387 390
f 388 387 390
f 389 390 387
f 389 390 387
f 388 391 383
f 388 391 383
f 384 383 391
f 384 383 391
f 391 388 392
f 391 388 392
f 390 392 388
f 390 392 388
f 391 393 384
f 391 393 384
f 386 384 393
f 386 384 393
f 393 391 394
f 393 391 394
f 392 394 391
f 392 394 391
f 393 395 386
f 393 395 386
f 394 396 393
f 395 393 396
f 394 396 393
f 395 393 396
f 397 386 395
f 397 386 395
f 386 397 385
f 386 397 385
f 398 385 397
f 398 385 397
f 385 398 329
f 385 398 329
f 399 329 398
f 399 329 398
f 329 399 334
f 329 399 334
f 400 334 399
f 400 334 399
f 334 400 335
f 334 400 335
f 401 335 400
f 401 335 400
f 335 401 344
f 335 401 344
f 402 344 401
f 402 344 401
f 344 402 345
f 344 402 345
f 403 345 402
f 403 345 402
f 345 403 354
f 345 403 354
f 404 354 403
f 404 354 403
f 354 404 355
f 354 404 355
f 405 355 404
f 405 355 404
f 355 405 406
f 355 405 406
f 407 406 405
f 407 406 405
f 406 407 408
f 406 407 408
f 409 408 407
f 409 408 407
f 408 409 410
f 408 409 410
f 411 410 409
f 411 410 409
f 410 411 412
f 410 411 412
f 413 412 411
f 413 412 411
f 412 413 414
f 412 413 414
f 415 414 413
f 415 414 413
f 414 415 416
f 414 415 416
f 417 416 415
f 417 416 415
f 416 417 139
f 416 417 139
f 418 139 417
f 418 139 417
f 139 418 137
f 139 418 137
f 419 137 418
f 419 137 418
f 137 419 151
f 137 419 151
f 420 151 419
f 420 151 419
f 151 420 152
f 151 420 152
f 421 152 420
f 421 152 420
f 152 421 161
f 152 421 161
f 422 161 421
f 422 161 421
f 161 422 162
f 161 422 162
f 423 162 422
f 423 162 422
f 162 423 171
f 162 423 171
f 424 171 423
f 424 171 423
f 171 424 172
f 171 424 172
f 389 172 424
f 389 172 424
f 424 425 389
f 424 425 389
f 390 389 425
f 390 389 425
f 423 426 424
f 423 426 424
f 425 424 426
f 425 424 426
f 422 427 423
f 422 427 423
f 426 423 427
f 426 423 427
f 427 422 428
f 427 422 428
f 421 428 422
f 421 428 422
f 425 429 390
f 425 429 390
f 392 390 429
f 392 390 429
f 426 430 425
f 426 430 425
f 429 425 430
f 429 425 430
f 427 431 426
f 427 431 426
f 430 426 431
f 430 426 431
f 428 432 427
f 428 432 427
f 431 427 432
f 431 427 432
f 429 433 392
f 429 433 392
f 394 392 433
f 394 392 433
f 430 434 429
f 430 434 429
f 433 429 434
f 433 429 434
f 431 435 430
f 431 435 430
f 434 430 435
f 434 430 435
f 432 436 431
f 432 436 431
f 435 431 436
f 435 431 436
f 433 437 394
f 433 437 394
f 396 394 437
f 396 394 437
f 434 438 433
f 434 438 433
f 437 433 438
f 437 433 438
f 435 439 434
f 435 439 434
f 438 434 439
f 438 434 439
f 436 440 435
f 436 440 435
f 439 435 440
f 439 435 440
f 440 436 441
f 440 436 441
f 442 441 436
f 442 441 436
f 436 432 442
f 436 432 442
f 443 442 432
f 443 442 432
f 432 428 443
f 432 428 443
f 444 443 428
f 444 443 428
f 428 421 444
f 428 421 444
f 420 444 421
f 420 444 421
f 444 420 445
f 444 420 445
f 419 445 420
f 419 445 420
f 443 444 446
f 445 446 444
f 443 444 446
f 445 446 444
f 442 443 447
f 446 447 443
f 442 443 447
f 446 447 443
f 447 448 442
f 447 448 442
f 441 442 448
f 441 442 448
f 445 419 449
f 445 419 449
f 418 449 419
f 418 449 419
f 446 445 450
f 449 450 445
f 446 445 450
f 449 450 445
f 447 446 451
f 450 451 446
f 447 446 451
f 450 451 446
f 451 452 447
f 451 452 447
f 448 447 452
f 448 447 452
f 449 418 453
f 449 418 453
f 417 453 418
f 417 453 418
f 450 449 454
f 453 454 449
f 450 449 454
f 453 454 449
f 451 450 455
f 454 455 450
f 451 450 455
f 454 455 450
f 455 456 451
f 455 456 451
f 452 451 456
f 452 451 456
f 453 417 457
f 453 417 457
f 415 457 417
f 415 457 417
f 454 453 458
f 457 458 453
f 454 453 458
f 457 458 453
f 455 454 459
f 458 459 454
f 455 454 459
f 458 459 454
f 459 460 455
f 459 460 455
f 456 455 460
f 456 455 460
f 457 415 461
f 457 415 461
f 413 461 415
f 413 461 415
f 458 457 462
f 461 462 457
f 458 457 462
f 461 462 457
f 459 458 463
f 462 463 458
f 459 458 463
f 462 463 458
f 463 464 459
f 463 464 459
f 460 459 464
f 460 459 464
f 461 413 465
f 461 413 465
f 411 465 413
f 411 465 413
f 462 461 466
f 465 466 461
f 462 461 466
f 465 466 461
f 463 462 467
f 466 467 462
f 463 462 467
f 466 467 462
f 467 468 463
f 467 468 463
f 464 463 468
f 464 463 468
f 465 411 469
f 465 411 469
f 409 469 411
f 409 469 411
f 466 465 470
f 469 470 465
f 466 465 470
f 469 470 465
f 467 466 471
f 470 471 466
f 467 466 471
f 470 471 466
f 471 472 467
f 471 472 467
f 468 467 472
f 468 467 472
f 469 409 473
f 469 409 473
f 407 473 409
f 407 473 409
f 470 469 474
f 473 474 469
f 470 469 474
f 473 474 469
f 471 470 475
f 474 475 470
f 471 470 475
f 474 475 470
f 475 476 471
f 475 476 471
f 472 471 476
f 472 471 476
f 473 407 477
f 473 407 477
f 405 477 407
f 405 477 407
f 474 473 478
f 477 478 473
f 474 473 478
f 477 478 473
f 475 474 479
f 478 479 474
f 475 474 479
f 478 479 474
f 479 480 475
f 479 480 475
f 476 475 480
f 476 475 480
f 477 405 481
f 477 405 481
f 404 481 405
f 404 481 405
f 478 477 482
f 481 482 477
f 478 477 482
f 481 482 477
f 479 478 483
f 482 483 478
f 479 478 483
f 482 483 478
f 483 484 479
f 483 484 479
f 480 479 484
f 480 479 484
f 481 404 485
f 481 404 485
f 403 485 404
f 403 485 404
f 482 481 486
f 485 486 481
f 482 481 486
f 485 486 481
f 483 482 487
f 486 487 482
f 483 482 487
f 486 487 482
f 487 488 483
f 487 488 483
f 484 483 488
f 484 483 488
f 485 403 489
f 485 403 489
f 402 489 403
f 402 489 403
f 486 485 490
f 489 490 485
f 486 485 490
f 489 490 485
f 487 486 491
f 490 491 486
f 487 486 491
f 490 491 486
f 491 492 487
f 491 492 487
f 488 487 492
f 488 487 492
f 489 402 493
f 489 402 493
f 401 493 402
f 401 493 402
f 490 489 494
f 493 494 489
f 490 489 494
f 493 494 489
f 491 490 495
f 494 495 490
f 491 490 495
f 494 495 490
f 495 496 491
f 495 496 491
f 492 491 496
f 492 491 496
f 493 401 497
f 493 401 497
f 400 497 401
f 400 497 401
f 494 493 498
f 497 498 493
f 494 493 498
f 497 498 493
f 495 494 499
f 498 499 494
f 495 494 499
f 498 499 494
f 499 500 495
f 499 500 495
f 496 495 500
f 496 495 500
f 497 400 501
f 497 400 501
f 399 501 400
f 399 501 400
f 498 497 502
f 501 502 497
f 498 497 502
f 501 502 497
f 499 498 503
f 502 503 498
f 499 498 503
f 502 503 498
f 503 504 499
f 503 504 499
f 500 499 504
f 500 499 504
f 501 399 505
f 501 399 505
f 398 505 399
f 398 505 399
f 502 501 506
f 505 506 501
f 502 501 506
f 505 506 501
f 503 502 507
f 506 507 502
f 503 502 507
f 506 507 502
f 507 508 503
f 507 508 503
f 504 503 508
f 504 503 508
f 505 398 509
f 505 398 509
f 397 509 398
f 397 509 398
f 506 505 510
f 509 510 505
f 506 505 510
f 509 510 505
f 507 506 511
f 510 511 506
f 507 506 511
f 510 511 506
f 511 512 507
f 511 512 507
f 508 507 512
f 508 507 512
f 509 397 513
f 509 397 513
f 395 513 397
f 395 513 397
f 510 509 514
f 513 514 509
f 510 509 514
f 513 514 509
f 511 510 515
f 514 515 510
f 511 510 515
f 514 515 510
f 515 516 511
f 515 516 511
f 512 511 516
f 512 511 516
f 513 395 517
f 513 395 517
f 396 517 395
f 396 517 395
f 514 513 518
f 517 518 513
f 514 513 518
f 517 518 513
f 515 514 519
f 518 519 514
f 515 514 519
f 518 519 514
f 519 520 515
f 519 520 515
f 516 515 520
f 516 515 520
f 517 396 521
f 517 396 521
f 437 521 396
f 437 521 396
f 518 517 522
f 521 522 517
f 518 517 522
f 521 522 517
f 519 518 523
f 522 523 518
f 519 518 523
f 522 523 518
f 523 524 519
f 523 524 519
f 520 519 524
f 520 519 524
f 521 437 525
f 521 437 525
f 438 525 437
f 438 525 437
f 522 521 526
f 525 526 521
f 522 521 526
f 525 526 521
f 523 522 527
f 526 527 522
f 523 522 527
f 526 527 522
f 527 528 523
f 527 528 523
f 524 523 528
f 524 523 528
f 525 438 529
f 525 438 529
f 439 529 438
f 439 529 438
f 526 525 530
f 529 530 525
f 526 525 530
f 529 530 525
f 527 526 531
f 530 531 526
f 527 526 531
f 530 531 526
f 531 532 527
f 531 532 527
f 528 527 532
f 528 527 532
f 529 439 533
f 529 439 533
f 440 533 439
f 440 533 439
f 530 529 534
f 533 534 529
f 530 529 534
f 533 534 529
f 531 530 535
f 534 535 530
f 531 530 535
f 534 535 530
f 536 537 538
f 536 537 538
f 539 540 537
f 537 536 539
f 539 540 537
f 537 536 539
f 541 540 542
f 541 540 542
f 543 542 540
f 540 539 543
f 543 542 540
f 540 539 543
f 542 245 541
f 542 245 541
f 250 541 245
f 250 541 245
f 542 543 544
f 542 543 544
f 544 241 542
f 245 542 241
f 544 241 542
f 245 542 241
f 545 544 543
f 545 544 543
f 546 543 539
f 543 546 545
f 546 543 539
f 543 546 545
f 539 547 546
f 539 547 546
f 547 539 536
f 547 539 536
f 548 546 547
f 548 546 547
f 549 545 546
f 546 548 549
f 549 545 546
f 546 548 549
f 544 545 550
f 544 545 550
f 551 550 545
f 545 549 551
f 551 550 545
f 545 549 551
f 550 237 544
f 550 237 544
f 241 544 237
f 241 544 237
f 550 551 236
f 550 551 236
f 236 235 550
f 237 550 235
f 236 235 550
f 237 550 235
f 238 236 551
f 238 236 551
f 552 551 549
f 551 552 238
f 552 551 549
f 551 552 238
f 549 553 552
f 549 553 552
f 553 549 548
f 553 549 548
f 554 552 553
f 554 552 553
f 242 238 552
f 552 554 242
f 242 238 552
f 552 554 242
f 553 555 554
f 553 555 554
f 555 553 556
f 555 553 556
f 548 556 553
f 548 556 553
f 556 557 555
f 556 557 555
f 320 242 554
f 320 242 554
f 556 548 558
f 556 548 558
f 547 558 548
f 547 558 548
f 557 556 559
f 558 559 556
f 557 556 559
f 558 559 556
f 559 560 557
f 559 560 557
f 561 557 560
f 561 557 560
f 558 547 562
f 558 547 562
f 536 562 547
f 536 562 547
f 559 558 563
f 562 563 558
f 559 558 563
f 562 563 558
f 560 559 564
f 560 559 564
f 563 564 559
f 563 564 559
f 560 565 561
f 560 565 561
f 566 561 565
f 566 561 565
f 565 560 567
f 565 560 567
f 564 567 560
f 564 567 560
f 562 536 568
f 562 536 568
f 538 568 536
f 538 568 536
f 568 569 562
f 568 569 562
f 563 562 569
f 563 562 569
f 568 538 570
f 568 538 570
f 571 570 538
f 571 570 538
f 569 568 572
f 569 568 572
f 570 572 568
f 570 572 568
f 569 573 563
f 569 573 563
f 564 563 573
f 564 563 573
f 573 569 574
f 573 569 574
f 572 574 569
f 572 574 569
f 573 575 564
f 573 575 564
f 567 564 575
f 567 564 575
f 575 573 576
f 575 573 576
f 574 576 573
f 574 576 573
f 575 577 567
f 575 577 567
f 576 578 575
f 577 575 578
f 576 578 575
f 577 575 578
f 579 567 577
f 579 567 577
f 567 579 565
f 567 579 565
f 580 565 579
f 580 565 579
f 565 580 566
f 565 580 566
f 581 566 580
f 581 566 580
f 566 581 582
f 566 581 582
f 583 582 581
f 583 582 581
f 582 583 584
f 582 583 584
f 585 584 583
f 585 584 583
f 584 585 586
f 584 585 586
f 587 586 585
f 587 586 585
f 586 587 588
f 586 587 588
f 589 588 587
f 589 588 587
f 588 589 590
f 588 589 590
f 591 590 589
f 591 590 589
f 590 591 194
f 590 591 194
f 592 194 591
f 592 194 591
f 194 592 193
f 194 592 193
f 593 193 592
f 593 193 592
f 193 593 195
f 193 593 195
f 594 195 593
f 594 195 593
f 195 594 204
f 195 594 204
f 595 204 594
f 595 204 594
f 204 595 205
f 204 595 205
f 596 205 595
f 596 205 595
f 205 596 214
f 205 596 214
f 597 214 596
f 597 214 596
f 214 597 215
f 214 597 215
f 598 215 597
f 598 215 597
f 215 598 224
f 215 598 224
f 599 224 598
f 599 224 598
f 224 599 600
f 224 599 600
f 601 600 599
f 601 600 599
f 600 601 602
f 600 601 602
f 603 602 601
f 603 602 601
f 602 603 604
f 602 603 604
f 605 604 603
f 605 604 603
f 604 605 606
f 604 605 606
f 607 606 605
f 607 606 605
f 606 607 608
f 606 607 608
f 609 608 607
f 609 608 607
f 608 609 610
f 608 609 610
f 611 610 609
f 611 610 609
f 610 611 571
f 610 611 571
f 570 571 611
f 570 571 611
f 611 612 570
f 611 612 570
f 572 570 612
f 572 570 612
f 609 613 611
f 609 613 611
f 612 611 613
f 612 611 613
f 607 614 609
f 607 614 609
f 613 609 614
f 613 609 614
f 614 607 615
f 614 607 615
f 605 615 607
f 605 615 607
f 612 616 572
f 612 616 572
f 574 572 616
f 574 572 616
f 613 617 612
f 613 617 612
f 616 612 617
f 616 612 617
f 614 618 613
f 614 618 613
f 617 613 618
f 617 613 618
f 615 619 614
f 615 619 614
f 618 614 619
f 618 614 619
f 616 620 574
f 616 620 574
f 576 574 620
f 576 574 620
f 617 621 616
f 617 621 616
f 620 616 621
f 620 616 621
f 618 622 617
f 618 622 617
f 621 617 622
f 621 617 622
f 619 623 618
f 619 623 618
f 622 618 623
f 622 618 623
f 620 624 576
f 620 624 576
f 578 576 624
f 578 576 624
f 621 625 620
f 621 625 620
f 624 620 625
f 624 620 625
f 622 626 621
f 622 626 621
f 625 621 626
f 625 621 626
f 623 230 622
f 623 230 622
f 626 622 230
f 626 622 230
f 230 623 232
f 230 623 232
f 627 232 623
f 627 232 623
f 623 619 627
f 623 619 627
f 628 627 619
f 628 627 619
f 619 615 628
f 619 615 628
f 629 628 615
f 629 628 615
f 615 605 629
f 615 605 629
f 603 629 605
f 603 629 605
f 629 603 630
f 629 603 630
f 601 630 603
f 601 630 603
f 628 629 631
f 630 631 629
f 628 629 631
f 630 631 629
f 627 628 632
f 631 632 628
f 627 628 632
f 631 632 628
f 632 246 627
f 632 246 627
f 232 627 246
f 232 627 246
f 630 601 633
f 630 601 633
f 599 633 601
f 599 633 601
f 631 630 634
f 633 634 630
f 631 630 634
f 633 634 630
f 632 631 635
f 634 635 631
f 632 631 635
f 634 635 631
f 635 248 632
f 635 248 632
f 246 632 248
f 246 632 248
f 633 599 636
f 633 599 636
f 598 636 599
f 598 636 599
f 634 633 637
f 636 637 633
f 634 633 637
f 636 637 633
f 635 634 638
f 637 638 634
f 635 634 638
f 637 638 634
f 638 252 635
f 638 252 635
f 248 635 252
f 248 635 252
f 636 598 639
f 636 598 639
f 597 639 598
f 597 639 598
f 637 636 640
f 639 640 636
f 637 636 640
f 639 640 636
f 638 637 641
f 640 641 637
f 638 637 641
f 640 641 637
f 641 256 638
f 641 256 638
f 252 638 256
f 252 638 256
f 639 597 642
f 639 597 642
f 596 642 597
f 596 642 597
f 640 639 643
f 642 643 639
f 640 639 643
f 642 643 639
f 641 640 644
f 643 644 640
f 641 640 644
f 643 644 640
f 644 260 641
f 644 260 641
f 256 641 260
f 256 641 260
f 642 596 645
f 642 596 645
f 595 645 596
f 595 645 596
f 643 642 646
f 645 646 642
f 643 642 646
f 645 646 642
f 644 643 647
f 646 647 643
f 644 643 647
f 646 647 643
f 647 264 644
f 647 264 644
f 260 644 264
f 260 644 264
f 645 595 648
f 645 595 648
f 594 648 595
f 594 648 595
f 646 645 649
f 648 649 645
f 646 645 649
f 648 649 645
f 647 646 650
f 649 650 646
f 647 646 650
f 649 650 646
f 650 268 647
f 650 268 647
f 264 647 268
f 264 647 268
f 648 594 651
f 648 594 651
f 593 651 594
f 593 651 594
f 649 648 652
f 651 652 648
f 649 648 652
f 651 652 648
f 650 649 653
f 652 653 649
f 650 649 653
f 652 653 649
f 653 272 650
f 653 272 650
f 268 650 272
f 268 650 272
f 651 593 654
f 651 593 654
f 592 654 593
f 592 654 593
f 652 651 655
f 654 655 651
f 652 651 655
f 654 655 651
f 653 652 656
f 655 656 652
f 653 652 656
f 655 656 652
f 656 276 653
f 656 276 653
f 272 653 276
f 272 653 276
f 654 592 657
f 654 592 657
f 591 657 592
f 591 657 592
f 655 654 658
f 657 658 654
f 655 654 658
f 657 658 654
f 656 655 659
f 658 659 655
f 656 655 659
f 658 659 655
f 659 280 656
f 659 280 656
f 276 656 280
f 276 656 280
f 657 591 660
f 657 591 660
f 589 660 591
f 589 660 591
f 658 657 661
f 660 661 657
f 658 657 661
f 660 661 657
f 659 658 662
f 661 662 658
f 659 658 662
f 661 662 658
f 662 283 659
f 662 283 659
f 280 659 283
f 280 659 283
f 660 589 663
f 660 589 663
f 587 663 589
f 587 663 589
f 661 660 664
f 663 664 660
f 661 660 664
f 663 664 660
f 662 661 665
f 664 665 661
f 662 661 665
f 664 665 661
f 665 286 662
f 665 286 662
f 283 662 286
f 283 662 286
f 663 587 666
f 663 587 666
f 585 666 587
f 585 666 587
f 664 663 667
f 666 667 663
f 664 663 667
f 666 667 663
f 665 664 668
f 667 668 664
f 665 664 668
f 667 668 664
f 668 289 665
f 668 289 665
f 286 665 289
f 286 665 289
f 666 585 669
f 666 585 669
f 583 669 585
f 583 669 585
f 667 666 670
f 669 670 666
f 667 666 670
f 669 670 666
f 668 667 671
f 670 671 667
f 668 667 671
f 670 671 667
f 671 292 668
f 671 292 668
f 289 668 292
f 289 668 292
f 669 583 672
f 669 583 672
f 581 672 583
f 581 672 583
f 670 669 673
f 672 673 669
f 670 669 673
f 672 673 669
f 671 670 674
f 673 674 670
f 671 670 674
f 673 674 670
f 674 295 671
f 674 295 671
f 292 671 295
f 292 671 295
f 672 581 675
f 672 581 675
f 580 675 581
f 580 675 581
f 673 672 676
f 675 676 672
f 673 672 676
f 675 676 672
f 674 673 677
f 676 677 673
f 674 673 677
f 676 677 673
f 677 298 674
f 677 298 674
f 295 674 298
f 295 674 298
f 675 580 678
f 675 580 678
f 579 678 580
f 579 678 580
f 676 675 679
f 678 679 675
f 676 675 679
f 678 679 675
f 677 676 680
f 679 680 676
f 677 676 680
f 679 680 676
f 680 301 677
f 680 301 677
f 298 677 301
f 298 677 301
f 678 579 681
f 678 579 681
f 577 681 579
f 577 681 579
f 679 678 682
f 681 682 678
f 679 678 682
f 681 682 678
f 680 679 683
f 682 683 679
f 680 679 683
f 682 683 679
f 683 304 680
f 683 304 680
f 301 680 304
f 301 680 304
f 681 577 684
f 681 577 684
f 578 684 577
f 578 684 577
f 682 681 685
f 684 685 681
f 682 681 685
f 684 685 681
f 683 682 686
f 685 686 682
f 683 682 686
f 685 686 682
f 686 307 683
f 686 307 683
f 304 683 307
f 304 683 307
f 684 578 687
f 684 578 687
f 624 687 578
f 624 687 578
f 685 684 688
f 687 688 684
f 685 684 688
f 687 688 684
f 686 685 689
f 688 689 685
f 686 685 689
f 688 689 685
f 689 311 686
f 689 311 686
f 307 686 311
f 307 686 311
f 687 624 690
f 687 624 690
f 625 690 624
f 625 690 624
f 688 687 691
f 690 691 687
f 688 687 691
f 690 691 687
f 689 688 692
f 691 692 688
f 689 688 692
f 691 692 688
f 692 315 689
f 692 315 689
f 311 689 315
f 311 689 315
f 690 625 693
f 690 625 693
f 626 693 625
f 626 693 625
f 691 690 694
f 693 694 690
f 691 690 694
f 693 694 690
f 692 691 227
f 694 227 691
f 692 691 227
f 694 227 691
f 227 228 692
f 227 228 692
f 315 692 228
f 315 692 228
f 693 626 229
f 693 626 229
f 230 229 626
f 230 229 626
f 694 693 233
f 229 233 693
f 694 693 233
f 229 233 693
f 227 694 225
f 233 225 694
f 227 694 225
f 233 225 694
f 695 696 697
f 695 696 697
f 555 697 696
f 555 697 696
f 697 698 695
f 697 698 695
f 696 554 555
f 696 554 555
f 698 697 561
f 698 697 561
f 557 561 697
f 697 555 557
f 557 561 697
f 697 555 557
f 561 566 698
f 561 566 698
f 554 696 320
f 554 696 320
f 696 695 699
f 696 695 699
f 699 320 696
f 699 320 696
f 700 695 698
f 700 695 698
f 701 699 695
f 695 700 701
f 701 699 695
f 695 700 701
f 582 698 566
f 698 582 700
f 582 698 566
f 698 582 700
f 584 700 582
f 584 700 582
f 702 701 700
f 700 584 702
f 702 701 700
f 700 584 702
f 699 701 703
f 699 701 703
f 704 703 701
f 701 702 704
f 704 703 701
f 701 702 704
f 703 317 699
f 703 317 699
f 320 699 317
f 320 699 317
f 703 704 705
f 703 704 705
f 705 313 703
f 317 703 313
f 705 313 703
f 317 703 313
f 706 705 704
f 706 705 704
f 707 704 702
f 704 707 706
f 707 704 702
f 704 707 706
f 702 586 707
f 702 586 707
f 586 702 584
f 586 702 584
f 588 707 586
f 588 707 586
f 708 706 707
f 707 588 708
f 708 706 707
f 707 588 708
f 705 706 709
f 705 706 709
f 710 709 706
f 706 708 710
f 710 709 706
f 706 708 710
f 709 309 705
f 709 309 705
f 313 705 309
f 313 705 309
f 709 710 182
f 709 710 182
f 182 188 709
f 309 709 188
f 182 188 709
f 309 709 188
f 183 182 710
f 183 182 710
f 711 710 708
f 710 711 183
f 711 710 708
f 710 711 183
f 708 590 711
f 708 590 711
f 590 708 588
f 590 708 588
f 194 711 590
f 194 711 590
f 186 183 711
f 711 194 186
f 186 183 711
f 711 194 186
f 30 32 712
f 30 32 712
f 713 712 32
f 32 36 713
f 713 712 32
f 32 36 713
f 712 122 30
f 712 122 30
f 31 30 122
f 31 30 122
f 712 713 714
f 712 713 714
f 714 118 712
f 122 712 118
f 714 118 712
f 122 712 118
f 715 714 713
f 715 714 713
f 716 713 36
f 713 716 715
f 716 713 36
f 713 716 715
f 36 717 716
f 36 717 716
f 717 36 35
f 717 36 35
f 718 716 717
f 718 716 717
f 719 715 716
f 716 718 719
f 719 715 716
f 716 718 719
f 714 715 720
f 714 715 720
f 721 720 715
f 715 719 721
f 721 720 715
f 715 719 721
f 720 114 714
f 720 114 714
f 118 714 114
f 118 714 114
f 720 721 722
f 720 721 722
f 722 110 720
f 114 720 110
f 722 110 720
f 114 720 110
f 723 722 721
f 723 722 721
f 724 721 719
f 721 724 723
f 724 721 719
f 721 724 723
f 719 725 724
f 719 725 724
f 725 719 718
f 725 719 718
f 726 724 725
f 726 724 725
f 727 723 724
f 724 726 727
f 727 723 724
f 724 726 727
f 722 723 728
f 722 723 728
f 729 728 723
f 723 727 729
f 729 728 723
f 723 727 729
f 728 106 722
f 728 106 722
f 110 722 106
f 110 722 106
f 728 729 730
f 728 729 730
f 730 102 728
f 106 728 102
f 730 102 728
f 106 728 102
f 731 730 729
f 731 730 729
f 732 729 727
f 729 732 731
f 732 729 727
f 729 732 731
f 727 733 732
f 727 733 732
f 733 727 726
f 733 727 726
f 734 732 733
f 734 732 733
f 735 731 732
f 732 734 735
f 735 731 732
f 732 734 735
f 730 731 736
f 730 731 736
f 737 736 731
f 731 735 737
f 737 736 731
f 731 735 737
f 736 98 730
f 736 98 730
f 102 730 98
f 102 730 98
f 736 737 738
f 736 737 738
f 738 94 736
f 98 736 94
f 738 94 736
f 98 736 94
f 739 738 737
f 739 738 737
f 740 737 735
f 737 740 739
f 740 737 735
f 737 740 739
f 735 741 740
f 735 741 740
f 741 735 734
f 741 735 734
f 350 352 742
f 350 352 742
f 743 742 352
f 352 356 743
f 743 742 352
f 352 356 743
f 742 744 350
f 742 744 350
f 351 350 744
f 351 350 744
f 742 743 745
f 742 743 745
f 745 746 742
f 744 742 746
f 745 746 742
f 744 742 746
f 747 745 743
f 747 745 743
f 748 743 356
f 743 748 747
f 748 743 356
f 743 748 747
f 356 406 748
f 356 406 748
f 406 356 355
f 406 356 355
f 408 748 406
f 408 748 406
f 749 747 748
f 748 408 749
f 749 747 748
f 748 408 749
f 745 747 750
f 745 747 750
f 751 750 747
f 747 749 751
f 751 750 747
f 747 749 751
f 750 752 745
f 750 752 745
f 746 745 752
f 746 745 752
f 750 751 753
f 750 751 753
f 753 754 750
f 752 750 754
f 753 754 750
f 752 750 754
f 755 753 751
f 755 753 751
f 756 751 749
f 751 756 755
f 756 751 749
f 751 756 755
f 749 410 756
f 749 410 756
f 410 749 408
f 410 749 408
f 412 756 410
f 412 756 410
f 757 755 756
f 756 412 757
f 757 755 756
f 756 412 757
f 753 755 758
f 753 755 758
f 759 758 755
f 755 757 759
f 759 758 755
f 755 757 759
f 758 760 753
f 758 760 753
f 754 753 760
f 754 753 760
f 758 759 761
f 758 759 761
f 761 762 758
f 760 758 762
f 761 762 758
f 760 758 762
f 763 761 759
f 763 761 759
f 764 759 757
f 759 764 763
f 764 759 757
f 759 764 763
f 757 414 764
f 757 414 764
f 414 757 412
f 414 757 412
f 416 764 414
f 416 764 414
f 765 763 764
f 764 416 765
f 765 763 764
f 764 416 765
f 761 763 766
f 761 763 766
f 767 766 763
f 763 765 767
f 767 766 763
f 763 765 767
f 766 768 761
f 766 768 761
f 762 761 768
f 762 761 768
f 766 767 142
f 766 767 142
f 142 146 766
f 768 766 146
f 142 146 766
f 768 766 146
f 141 142 767
f 141 142 767
f 138 767 765
f 767 138 141
f 138 767 765
f 767 138 141
f 765 139 138
f 765 139 138
f 139 765 416
f 139 765 416
f 769 770 771
f 769 770 771
f 772 773 770
f 770 769 772
f 772 773 770
f 770 769 772
f 774 773 775
f 774 773 775
f 776 775 773
f 773 772 776
f 776 775 773
f 773 772 776
f 775 57 774
f 775 57 774
f 62 774 57
f 62 774 57
f 775 776 777
f 775 776 777
f 777 53 775
f 57 775 53
f 777 53 775
f 57 775 53
f 778 777 776
f 778 777 776
f 779 776 772
f 776 779 778
f 779 776 772
f 776 779 778
f 772 780 779
f 772 780 779
f 780 772 769
f 780 772 769
f 781 779 780
f 781 779 780
f 782 778 779
f 779 781 782
f 782 778 779
f 779 781 782
f 777 778 783
f 777 778 783
f 784 783 778
f 778 782 784
f 784 783 778
f 778 782 784
f 783 49 777
f 783 49 777
f 53 777 49
f 53 777 49
f 783 784 48
f 783 784 48
f 48 47 783
f 49 783 47
f 48 47 783
f 49 783 47
f 50 48 784
f 50 48 784
f 785 784 782
f 784 785 50
f 785 784 782
f 784 785 50
f 782 786 785
f 782 786 785
f 786 782 781
f 786 782 781
f 6 785 786
f 6 785 786
f 54 50 785
f 785 6 54
f 54 50 785
f 785 6 54
f 786 4 6
f 786 4 6
f 4 786 787
f 4 786 787
f 781 787 786
f 781 787 786
f 787 8 4
f 787 8 4
f 10 54 6
f 10 54 6
f 787 781 788
f 787 781 788
f 780 788 781
f 780 788 781
f 8 787 789
f 788 789 787
f 8 787 789
f 788 789 787
f 789 790 8
f 789 790 8
f 7 8 790
f 7 8 790
f 788 780 791
f 788 780 791
f 769 791 780
f 769 791 780
f 789 788 792
f 791 792 788
f 789 788 792
f 791 792 788
f 790 789 793
f 790 789 793
f 792 793 789
f 792 793 789
f 790 794 7
f 790 794 7
f 9 7 794
f 9 7 794
f 794 790 795
f 794 790 795
f 793 795 790
f 793 795 790
f 791 769 796
f 791 769 796
f 771 796 769
f 771 796 769
f 796 797 791
f 796 797 791
f 792 791 797
f 792 791 797
f 796 771 798
f 796 771 798
f 799 798 771
f 799 798 771
f 797 796 800
f 797 796 800
f 798 800 796
f 798 800 796
f 797 801 792
f 797 801 792
f 793 792 801
f 793 792 801
f 801 797 802
f 801 797 802
f 800 802 797
f 800 802 797
f 801 803 793
f 801 803 793
f 795 793 803
f 795 793 803
f 803 801 804
f 803 801 804
f 802 804 801
f 802 804 801
f 803 805 795
f 803 805 795
f 804 806 803
f 805 803 806
f 804 806 803
f 805 803 806
f 807 795 805
f 807 795 805
f 795 807 794
f 795 807 794
f 808 794 807
f 808 794 807
f 794 808 9
f 794 808 9
f 809 9 808
f 809 9 808
f 9 809 14
f 9 809 14
f 810 14 809
f 810 14 809
f 14 810 15
f 14 810 15
f 811 15 810
f 811 15 810
f 15 811 24
f 15 811 24
f 812 24 811
f 812 24 811
f 24 812 25
f 24 812 25
f 813 25 812
f 813 25 812
f 25 813 34
f 25 813 34
f 814 34 813
f 814 34 813
f 34 814 35
f 34 814 35
f 815 35 814
f 815 35 814
f 35 815 717
f 35 815 717
f 816 717 815
f 816 717 815
f 717 816 718
f 717 816 718
f 817 718 816
f 817 718 816
f 718 817 725
f 718 817 725
f 818 725 817
f 818 725 817
f 725 818 726
f 725 818 726
f 819 726 818
f 819 726 818
f 726 819 733
f 726 819 733
f 820 733 819
f 820 733 819
f 733 820 734
f 733 820 734
f 821 734 820
f 821 734 820
f 734 821 741
f 734 821 741
f 822 741 821
f 822 741 821
f 741 822 823
f 741 822 823
f 824 823 822
f 824 823 822
f 823 824 825
f 823 824 825
f 826 825 824
f 826 825 824
f 825 826 827
f 825 826 827
f 828 827 826
f 828 827 826
f 827 828 829
f 827 828 829
f 830 829 828
f 830 829 828
f 829 830 831
f 829 830 831
f 832 831 830
f 832 831 830
f 831 832 833
f 831 832 833
f 834 833 832
f 834 833 832
f 833 834 799
f 833 834 799
f 798 799 834
f 798 799 834
f 834 835 798
f 834 835 798
f 800 798 835
f 800 798 835
f 832 836 834
f 832 836 834
f 835 834 836
f 835 834 836
f 830 837 832
f 830 837 832
f 836 832 837
f 836 832 837
f 837 830 838
f 837 830 838
f 828 838 830
f 828 838 830
f 835 839 800
f 835 839 800
f 802 800 839
f 802 800 839
f 836 840 835
f 836 840 835
f 839 835 840
f 839 835 840
f 837 841 836
f 837 841 836
f 840 836 841
f 840 836 841
f 838 842 837
f 838 842 837
f 841 837 842
f 841 837 842
f 839 843 802
f 839 843 802
f 804 802 843
f 804 802 843
f 840 844 839
f 840 844 839
f 843 839 844
f 843 839 844
f 841 845 840
f 841 845 840
f 844 840 845
f 844 840 845
f 842 846 841
f 842 846 841
f 845 841 846
f 845 841 846
f 843 847 804
f 843 847 804
f 806 804 847
f 806 804 847
f 844 848 843
f 844 848 843
f 847 843 848
f 847 843 848
f 845 849 844
f 845 849 844
f 848 844 849
f 848 844 849
f 846 42 845
f 846 42 845
f 849 845 42
f 849 845 42
f 42 846 44
f 42 846 44
f 850 44 846
f 850 44 846
f 846 842 850
f 846 842 850
f 851 850 842
f 851 850 842
f 842 838 851
f 842 838 851
f 852 851 838
f 852 851 838
f 838 828 852
f 838 828 852
f 826 852 828
f 826 852 828
f 852 826 853
f 852 826 853
f 824 853 826
f 824 853 826
f 851 852 854
f 853 854 852
f 851 852 854
f 853 854 852
f 850 851 855
f 854 855 851
f 850 851 855
f 854 855 851
f 855 58 850
f 855 58 850
f 44 850 58
f 44 850 58
f 853 824 856
f 853 824 856
f 822 856 824
f 822 856 824
f 854 853 857
f 856 857 853
f 854 853 857
f 856 857 853
f 855 854 858
f 857 858 854
f 855 854 858
f 857 858 854
f 858 60 855
f 858 60 855
f 58 855 60
f 58 855 60
f 856 822 859
f 856 822 859
f 821 859 822
f 821 859 822
f 857 856 860
f 859 860 856
f 857 856 860
f 859 860 856
f 858 857 861
f 860 861 857
f 858 857 861
f 860 861 857
f 861 64 858
f 861 64 858
f 60 858 64
f 60 858 64
f 859 821 862
f 859 821 862
f 820 862 821
f 820 862 821
f 860 859 863
f 862 863 859
f 860 859 863
f 862 863 859
f 861 860 864
f 863 864 860
f 861 860 864
f 863 864 860
f 864 68 861
f 864 68 861
f 64 861 68
f 64 861 68
f 862 820 865
f 862 820 865
f 819 865 820
f 819 865 820
f 863 862 866
f 865 866 862
f 863 862 866
f 865 866 862
f 864 863 867
f 866 867 863
f 864 863 867
f 866 867 863
f 867 72 864
f 867 72 864
f 68 864 72
f 68 864 72
f 865 819 868
f 865 819 868
f 818 868 819
f 818 868 819
f 866 865 869
f 868 869 865
f 866 865 869
f 868 869 865
f 867 866 870
f 869 870 866
f 867 866 870
f 869 870 866
f 870 76 867
f 870 76 867
f 72 867 76
f 72 867 76
f 868 818 871
f 868 818 871
f 817 871 818
f 817 871 818
f 869 868 872
f 871 872 868
f 869 868 872
f 871 872 868
f 870 869 873
f 872 873 869
f 870 869 873
f 872 873 869
f 873 80 870
f 873 80 870
f 76 870 80
f 76 870 80
f 871 817 874
f 871 817 874
f 816 874 817
f 816 874 817
f 872 871 875
f 874 875 871
f 872 871 875
f 874 875 871
f 873 872 876
f 875 876 872
f 873 872 876
f 875 876 872
f 876 84 873
f 876 84 873
f 80 873 84
f 80 873 84
f 874 816 877
f 874 816 877
f 815 877 816
f 815 877 816
f 875 874 878
f 877 878 874
f 875 874 878
f 877 878 874
f 876 875 879
f 878 879 875
f 876 875 879
f 878 879 875
f 879 88 876
f 879 88 876
f 84 876 88
f 84 876 88
f 877 815 880
f 877 815 880
f 814 880 815
f 814 880 815
f 878 877 881
f 880 881 877
f 878 877 881
f 880 881 877
f 879 878 882
f 881 882 878
f 879 878 882
f 881 882 878
f 882 92 879
f 882 92 879
f 88 879 92
f 88 879 92
f 880 814 883
f 880 814 883
f 813 883 814
f 813 883 814
f 881 880 884
f 883 884 880
f 881 880 884
f 883 884 880
f 882 881 885
f 884 885 881
f 882 881 885
f 884 885 881
f 885 96 882
f 885 96 882
f 92 882 96
f 92 882 96
f 883 813 886
f 883 813 886
f 812 886 813
f 812 886 813
f 884 883 887
f 886 887 883
f 884 883 887
f 886 887 883
f 885 884 888
f 887 888 884
f 885 884 888
f 887 888 884
f 888 100 885
f 888 100 885
f 96 885 100
f 96 885 100
f 886 812 889
f 886 812 889
f 811 889 812
f 811 889 812
f 887 886 890
f 889 890 886
f 887 886 890
f 889 890 886
f 888 887 891
f 890 891 887
f 888 887 891
f 890 891 887
f 891 104 888
f 891 104 888
f 100 888 104
f 100 888 104
f 889 811 892
f 889 811 892
f 810 892 811
f 810 892 811
f 890 889 893
f 892 893 889
f 890 889 893
f 892 893 889
f 891 890 894
f 893 894 890
f 891 890 894
f 893 894 890
f 894 108 891
f 894 108 891
f 104 891 108
f 104 891 108
f 892 810 895
f 892 810 895
f 809 895 810
f 809 895 810
f 893 892 896
f 895 896 892
f 893 892 896
f 895 896 892
f 894 893 897
f 896 897 893
f 894 893 897
f 896 897 893
f 897 112 894
f 897 112 894
f 108 894 112
f 108 894 112
f 895 809 898
f 895 809 898
f 808 898 809
f 808 898 809
f 896 895 899
f 898 899 895
f 896 895 899
f 898 899 895
f 897 896 900
f 899 900 896
f 897 896 900
f 899 900 896
f 900 116 897
f 900 116 897
f 112 897 116
f 112 897 116
f 898 808 901
f 898 808 901
f 807 901 808
f 807 901 808
f 899 898 902
f 901 902 898
f 899 898 902
f 901 902 898
f 900 899 903
f 902 903 899
f 900 899 903
f 902 903 899
f 903 120 900
f 903 120 900
f 116 900 120
f 116 900 120
f 901 807 904
f 901 807 904
f 805 904 807
f 805 904 807
f 902 901 905
f 904 905 901
f 902 901 905
f 904 905 901
f 903 902 906
f 905 906 902
f 903 902 906
f 905 906 902
f 906 124 903
f 906 124 903
f 120 903 124
f 120 903 124
f 904 805 907
f 904 805 907
f 806 907 805
f 806 907 805
f 905 904 908
f 907 908 904
f 905 904 908
f 907 908 904
f 906 905 909
f 908 909 905
f 906 905 909
f 908 909 905
f 909 127 906
f 909 127 906
f 124 906 127
f 124 906 127
f 907 806 910
f 907 806 910
f 847 910 806
f 847 910 806
f 908 907 911
f 910 911 907
f 908 907 911
f 910 911 907
f 909 908 912
f 911 912 908
f 909 908 912
f 911 912 908
f 912 130 909
f 912 130 909
f 127 909 130
f 127 909 130
f 910 847 913
f 910 847 913
f 848 913 847
f 848 913 847
f 911 910 914
f 913 914 910
f 911 910 914
f 913 914 910
f 912 911 915
f 914 915 911
f 912 911 915
f 914 915 911
f 915 133 912
f 915 133 912
f 130 912 133
f 130 912 133
f 913 848 916
f 913 848 916
f 849 916 848
f 849 916 848
f 914 913 917
f 916 917 913
f 914 913 917
f 916 917 913
f 915 914 39
f 917 39 914
f 915 914 39
f 917 39 914
f 39 40 915
f 39 40 915
f 133 915 40
f 133 915 40
f 916 849 41
f 916 849 41
f 42 41 849
f 42 41 849
f 917 916 45
f 41 45 916
f 917 916 45
f 41 45 916
f 39 917 37
f 45 37 917
f 39 917 37
f 45 37 917
f 823 740 741
f 823 740 741
f 918 739 740
f 740 823 918
f 918 739 740
f 740 823 918
f 738 739 919
f 738 739 919
f 920 919 739
f 739 918 920
f 920 919 739
f 739 918 920
f 919 90 738
f 919 90 738
f 94 738 90
f 94 738 90
f 919 920 921
f 919 920 921
f 921 86 919
f 90 919 86
f 921 86 919
f 90 919 86
f 922 921 920
f 922 921 920
f 923 920 918
f 920 923 922
f 923 920 918
f 920 923 922
f 918 825 923
f 918 825 923
f 825 918 823
f 825 918 823
f 827 923 825
f 827 923 825
f 924 922 923
f 923 827 924
f 924 922 923
f 923 827 924
f 921 922 925
f 921 922 925
f 926 925 922
f 922 924 926
f 926 925 922
f 922 924 926
f 925 82 921
f 925 82 921
f 86 921 82
f 86 921 82
f 925 926 927
f 925 926 927
f 927 78 925
f 82 925 78
f 927 78 925
f 82 925 78
f 928 927 926
f 928 927 926
f 929 926 924
f 926 929 928
f 929 926 924
f 926 929 928
f 924 829 929
f 924 829 929
f 829 924 827
f 829 924 827
f 831 929 829
f 831 929 829
f 930 928 929
f 929 831 930
f 930 928 929
f 929 831 930
f 927 928 931
f 927 928 931
f 932 931 928
f 928 930 932
f 932 931 928
f 928 930 932
f 931 74 927
f 931 74 927
f 78 927 74
f 78 927 74
f 931 932 933
f 931 932 933
f 933 70 931
f 74 931 70
f 933 70 931
f 74 931 70
f 934 933 932
f 934 933 932
f 935 932 930
f 932 935 934
f 935 932 930
f 932 935 934
f 930 833 935
f 930 833 935
f 833 930 831
f 833 930 831
f 799 935 833
f 799 935 833
f 936 934 935
f 935 799 936
f 936 934 935
f 935 799 936
f 933 934 937
f 933 934 937
f 938 937 934
f 934 936 938
f 938 937 934
f 934 936 938
f 937 66 933
f 937 66 933
f 70 933 66
f 70 933 66
f 937 938 774
f 937 938 774
f 774 62 937
f 66 937 62
f 774 62 937
f 66 937 62
f 773 774 938
f 773 774 938
f 770 938 936
f 938 770 773
f 770 938 936
f 938 770 773
f 936 771 770
f 936 771 770
f 771 936 799
f 771 936 799
f 600 223 224
f 600 223 224
f 939 222 223
f 223 600 939
f 939 222 223
f 223 600 939
f 220 222 940
f 220 222 940
f 941 940 222
f 222 939 941
f 941 940 222
f 222 939 941
f 940 278 220
f 940 278 220
f 221 220 278
f 221 220 278
f 940 941 942
f 940 941 942
f 942 274 940
f 278 940 274
f 942 274 940
f 278 940 274
f 943 942 941
f 943 942 941
f 944 941 939
f 941 944 943
f 944 941 939
f 941 944 943
f 939 602 944
f 939 602 944
f 602 939 600
f 602 939 600
f 604 944 602
f 604 944 602
f 945 943 944
f 944 604 945
f 945 943 944
f 944 604 945
f 942 943 946
f 942 943 946
f 947 946 943
f 943 945 947
f 947 946 943
f 943 945 947
f 946 270 942
f 946 270 942
f 274 942 270
f 274 942 270
f 946 947 948
f 946 947 948
f 948 266 946
f 270 946 266
f 948 266 946
f 270 946 266
f 949 948 947
f 949 948 947
f 950 947 945
f 947 950 949
f 950 947 945
f 947 950 949
f 945 606 950
f 945 606 950
f 606 945 604
f 606 945 604
f 608 950 606
f 608 950 606
f 951 949 950
f 950 608 951
f 951 949 950
f 950 608 951
f 948 949 952
f 948 949 952
f 953 952 949
f 949 951 953
f 953 952 949
f 949 951 953
f 952 262 948
f 952 262 948
f 266 948 262
f 266 948 262
f 952 953 954
f 952 953 954
f 954 258 952
f 262 952 258
f 954 258 952
f 262 952 258
f 955 954 953
f 955 954 953
f 956 953 951
f 953 956 955
f 956 953 951
f 953 956 955
f 951 610 956
f 951 610 956
f 610 951 608
f 610 951 608
f 571 956 610
f 571 956 610
f 957 955 956
f 956 571 957
f 957 955 956
f 956 571 957
f 954 955 958
f 954 955 958
f 959 958 955
f 955 957 959
f 959 958 955
f 955 957 959
f 958 254 954
f 958 254 954
f 258 954 254
f 258 954 254
f 958 959 541
f 958 959 541
f 541 250 958
f 254 958 250
f 541 250 958
f 254 958 250
f 540 541 959
f 540 541 959
f 537 959 957
f 959 537 540
f 537 959 957
f 959 537 540
f 957 538 537
f 957 538 537
f 538 957 571
f 538 957 571
f 535 960 531
f 535 960 531
f 532 531 960
f 532 531 960
f 533 440 961
f 533 440 961
f 441 961 440
f 441 961 440
f 534 533 962
f 961 962 533
f 534 533 962
f 961 962 533
f 535 534 373
f 962 373 534
f 535 534 373
f 962 373 534
f 373 372 535
f 373 372 535
f 960 535 372
f 960 535 372
f 373 962 371
f 373 962 371
f 372 374 960
f 372 374 960
f 963 960 374
f 963 960 374
f 960 963 532
f 960 963 532
f 964 371 962
f 964 371 962
f 962 961 964
f 962 961 964
f 371 964 363
f 371 964 363
f 374 377 963
f 374 377 963
f 965 964 961
f 965 964 961
f 961 441 965
f 961 441 965
f 966 363 964
f 966 363 964
f 964 965 966
f 964 965 966
f 363 966 361
f 363 966 361
f 448 965 441
f 448 965 441
f 965 448 967
f 965 448 967
f 967 966 965
f 967 966 965
f 452 967 448
f 452 967 448
f 968 361 966
f 968 361 966
f 966 967 968
f 966 967 968
f 361 968 178
f 361 968 178
f 967 452 969
f 967 452 969
f 969 968 967
f 969 968 967
f 456 969 452
f 456 969 452
f 970 178 968
f 970 178 968
f 968 969 970
f 968 969 970
f 178 970 176
f 178 970 176
f 969 456 971
f 969 456 971
f 971 970 969
f 971 970 969
f 460 971 456
f 460 971 456
f 972 176 970
f 972 176 970
f 970 971 972
f 970 971 972
f 176 972 168
f 176 972 168
f 971 460 973
f 971 460 973
f 973 972 971
f 973 972 971
f 464 973 460
f 464 973 460
f 974 168 972
f 974 168 972
f 972 973 974
f 972 973 974
f 168 974 166
f 168 974 166
f 973 464 975
f 973 464 975
f 975 974 973
f 975 974 973
f 468 975 464
f 468 975 464
f 976 166 974
f 976 166 974
f 974 975 976
f 974 975 976
f 166 976 158
f 166 976 158
f 975 468 977
f 975 468 977
f 977 976 975
f 977 976 975
f 472 977 468
f 472 977 468
f 978 158 976
f 978 158 976
f 976 977 978
f 976 977 978
f 158 978 156
f 158 978 156
f 977 472 979
f 977 472 979
f 979 978 977
f 979 978 977
f 476 979 472
f 476 979 472
f 980 156 978
f 980 156 978
f 978 979 980
f 978 979 980
f 156 980 148
f 156 980 148
f 979 476 981
f 979 476 981
f 981 980 979
f 981 980 979
f 480 981 476
f 480 981 476
f 982 148 980
f 982 148 980
f 980 981 982
f 980 981 982
f 148 982 145
f 148 982 145
f 981 480 983
f 981 480 983
f 983 982 981
f 983 982 981
f 484 983 480
f 484 983 480
f 984 145 982
f 984 145 982
f 982 983 984
f 982 983 984
f 145 984 146
f 145 984 146
f 983 484 985
f 983 484 985
f 985 984 983
f 985 984 983
f 488 985 484
f 488 985 484
f 986 146 984
f 986 146 984
f 984 985 986
f 984 985 986
f 146 986 768
f 146 986 768
f 985 488 987
f 985 488 987
f 987 986 985
f 987 986 985
f 492 987 488
f 492 987 488
f 988 768 986
f 988 768 986
f 986 987 988
f 986 987 988
f 768 988 762
f 768 988 762
f 987 492 989
f 987 492 989
f 989 988 987
f 989 988 987
f 496 989 492
f 496 989 492
f 990 762 988
f 990 762 988
f 988 989 990
f 988 989 990
f 762 990 760
f 762 990 760
f 989 496 991
f 989 496 991
f 991 990 989
f 991 990 989
f 500 991 496
f 500 991 496
f 992 760 990
f 992 760 990
f 990 991 992
f 990 991 992
f 760 992 754
f 760 992 754
f 991 500 993
f 991 500 993
f 993 992 991
f 993 992 991
f 504 993 500
f 504 993 500
f 994 754 992
f 994 754 992
f 992 993 994
f 992 993 994
f 754 994 752
f 754 994 752
f 993 504 995
f 993 504 995
f 995 994 993
f 995 994 993
f 508 995 504
f 508 995 504
f 996 752 994
f 996 752 994
f 994 995 996
f 994 995 996
f 752 996 746
f 752 996 746
f 995 508 997
f 995 508 997
f 997 996 995
f 997 996 995
f 512 997 508
f 512 997 508
f 998 746 996
f 998 746 996
f 996 997 998
f 996 997 998
f 746 998 744
f 746 998 744
f 997 512 999
f 997 512 999
f 999 998 997
f 999 998 997
f 516 999 512
f 516 999 512
f 1000 744 998
f 1000 744 998
f 998 999 1000
f 998 999 1000
f 744 1000 351
f 744 1000 351
f 999 516 1001
f 999 516 1001
f 1001 1000 999
f 1001 1000 999
f 520 1001 516
f 520 1001 516
f 1002 351 1000
f 1002 351 1000
f 1000 1001 1002
f 1000 1001 1002
f 351 1002 349
f 351 1002 349
f 1001 520 1003
f 1001 520 1003
f 1003 1002 1001
f 1003 1002 1001
f 524 1003 520
f 524 1003 520
f 1004 349 1002
f 1004 349 1002
f 1002 1003 1004
f 1002 1003 1004
f 349 1004 341
f 349 1004 341
f 1003 524 1005
f 1003 524 1005
f 1005 1004 1003
f 1005 1004 1003
f 528 1005 524
f 528 1005 524
f 1006 341 1004
f 1006 341 1004
f 1004 1005 1006
f 1004 1005 1006
f 341 1006 339
f 341 1006 339
f 1005 528 1007
f 1005 528 1007
f 1007 1006 1005
f 1007 1006 1005
f 532 1007 528
f 532 1007 528
f 1008 339 1006
f 1008 339 1006
f 1006 1007 1008
f 1006 1007 1008
f 339 1008 330
f 339 1008 330
f 377 330 1008
f 377 330 1008
f 1007 532 963
f 1007 532 963
f 1008 963 377
f 1008 963 377
f 963 1008 1007
f 963 1008 1007
