v 0.141624108 -0.0286273994 0.0458219983
v 0.141624108 -0.0286201872 0.0490590073
v 0.141624108 -0.0330258645 0.0490687825
v 0.141624108 -0.0330330171 0.0458317734
v 0.137149349 -0.0330252685 0.0484242775
v 0.137149349 -0.03302956 0.0464762785
v 0.137149349 -0.0287328996 0.0464667417
v 0.137149349 -0.0287285484 0.0484147407
v 0.132904068 -0.0286273994 0.0458219983
v 0.132904068 -0.0286201872 0.0490590073
v 0.132904068 -0.0330258645 0.0490687825
v 0.132904068 -0.0330330171 0.0458317734
v 0.1287141 -0.0330252685 0.0484242775
v 0.1287141 -0.03302956 0.0464762785
v 0.1287141 -0.0287328996 0.0464667417
v 0.1287141 -0.0287285484 0.0484147407
v 0.124474362 -0.0286273994 0.0458219983
v 0.124474362 -0.0286201872 0.0490590073
v 0.124474362 -0.0330258645 0.0490687825
v 0.124474362 -0.0330330171 0.0458317734
v 0.120015457 -0.0330252685 0.0484242775
v 0.120015457 -0.03302956 0.0464762785
v 0.120015457 -0.0287328996 0.0464667417
v 0.120015457 -0.0287285484 0.0484147407
v 0.141624108 -0.0330330171 0.0458317734
v 0.141624108 -0.0330258645 0.0490687825
v 0.141409293 -0.0331540741 0.0488542654
v 0.141409293 -0.0331603326 0.0460468866
v 0.136934534 -0.0331545509 0.0486393906
v 0.136934534 -0.0331598558 0.0462617017
v 0.137149349 -0.03302956 0.0464762785
v 0.137149349 -0.0330252685 0.0484242775
v 0.132904068 -0.0330330171 0.0458317734
v 0.132904068 -0.0330258645 0.0490687825
v 0.132689252 -0.0331540741 0.0488542654
v 0.132689252 -0.0331603326 0.0460468866
v 0.128499284 -0.0331545509 0.0486393906
v 0.128499284 -0.0331598558 0.0462617017
v 0.1287141 -0.03302956 0.0464762785
v 0.1287141 -0.0330252685 0.0484242775
v -0.181713298 0.170431316 0.0551364757
v -0.180807993 0.170419872 0.0500021912
v -0.1810707 0.169955969 0.0503082611
v -0.181855842 0.169965863 0.0547610261
v 0.124474362 -0.0330330171 0.0458317734
v 0.124474362 -0.0330258645 0.0490687825
v 0.124259546 -0.0331540741 0.0488542654
v 0.124259546 -0.0331603326 0.0460468866
v 0.119800642 -0.0331545509 0.0486393906
v 0.119800642 -0.0331598558 0.0462617017
v 0.120015457 -0.03302956 0.0464762785
v 0.120015457 -0.0330252685 0.0484242775
v -0.181130782 0.160313368 0.0506704189
v -0.181795761 0.160321712 0.054441724
v -0.181529835 0.160785675 0.0541362502
v -0.180985019 0.160778821 0.0510464646
v -0.182868615 0.154607654 0.05738369
v -0.181446537 0.154589713 0.0493186451
v -0.18185918 0.153860986 0.0497994162
v -0.18309252 0.153876543 0.0567939617
v -0.181953564 0.139627695 0.050366316
v -0.182998136 0.139640868 0.056290362
v -0.182580426 0.140369654 0.055810485
v -0.181724623 0.140358865 0.0509569384
v -0.181713328 0.133375525 0.0552189089
v -0.180807993 0.133364081 0.0500845648
v -0.1810707 0.132900119 0.0503906347
v -0.181855842 0.132910073 0.0548434593
v -0.181130782 0.123223238 0.0507529117
v -0.181795761 0.123231642 0.0545242168
v -0.181529835 0.123695605 0.054218743
v -0.180985048 0.12368875 0.0511289574
v -0.181713328 0.103211872 0.0552859642
v -0.180807993 0.103200488 0.0501516201
v -0.1810707 0.102736525 0.0504576899
v -0.181855872 0.10274642 0.0549105145
v -0.174725398 0.170434058 0.0563686229
v -0.173820093 0.170422614 0.0512343384
v -0.180807993 0.170419872 0.0500021912
v -0.181713298 0.170431316 0.0551364757
v -0.181130812 0.0930939242 0.0508199073
v -0.181795791 0.0931022689 0.0545912124
v -0.181529865 0.0935662314 0.054285679
v -0.180985048 0.0935593769 0.0511958934
v -0.181713328 0.0843991563 0.055327747
v -0.180808023 0.0843877122 0.0501934625
v -0.1810707 0.0839238092 0.0504995324
v -0.181855872 0.0839337036 0.054952357
v -0.180985019 0.160778821 0.0510464646
v -0.181529835 0.160785675 0.0541362502
v -0.174714819 0.160788357 0.0553378798
v -0.174170002 0.160781503 0.0522480942
v -0.181130812 0.0748627707 0.0508604385
v -0.181795791 0.074871175 0.0546317436
v -0.181529865 0.0753351375 0.0543262102
v -0.180985048 0.075328283 0.0512364246
v -0.181713328 0.0661560819 0.0553683378
v -0.180808023 0.0661446378 0.0502340533
v -0.18107073 0.0656807348 0.0505401231
v -0.181855872 0.0656906292 0.0549928881
v -0.18185918 0.153860986 0.0497994162
v -0.18185921 0.138896704 0.0498326756
v -0.181953564 0.139627695 0.050366316
v -0.182998136 0.139640868 0.056290362
v -0.181953564 0.153132319 0.0503362752
v -0.18309252 0.138912261 0.0568272211
v -0.182998136 0.153145492 0.0562603213
v -0.18309252 0.153876543 0.0567939617
v -0.1810707 0.102736525 0.0504576899
v -0.1810707 0.0926285312 0.0504801609
v -0.181130812 0.0930939242 0.0508199073
v -0.181795791 0.0931022689 0.0545912124
v -0.181130782 0.102272682 0.0507994629
v -0.181855872 0.0926384255 0.0549329855
v -0.181795761 0.102281027 0.054570768
v -0.181855872 0.10274642 0.0549105145
v -0.1810707 0.0839238092 0.0504995324
v -0.18107073 0.0743974373 0.050520692
v -0.181130812 0.0748627707 0.0508604385
v -0.181795791 0.074871175 0.0546317436
v -0.181130812 0.0834599063 0.0508413054
v -0.181855872 0.0744073316 0.0549735166
v -0.181795791 0.0834683105 0.0546126105
v -0.181855872 0.0839337036 0.054952357
v -0.18107073 0.0656807348 0.0505401231
v -0.18107073 0.0555384718 0.0505626537
v -0.181130812 0.0560038649 0.0509024002
v -0.181795791 0.0560122095 0.0546736456
v -0.181130812 0.0652168319 0.0508818962
v -0.181855872 0.0555483662 0.0550154783
v -0.181795791 0.0652252361 0.0546532013
v -0.181855872 0.0656906292 0.0549928881
v -0.1810707 0.169955969 0.0503082611
v -0.1810707 0.159847975 0.050330732
v -0.181130782 0.160313368 0.0506704189
v -0.181795761 0.160321712 0.054441724
v -0.181130782 0.169492066 0.0506500341
v -0.181855842 0.159857869 0.054783497
v -0.181795761 0.16950047 0.0544212796
v -0.181855842 0.169965863 0.0547610261
v -0.1810707 0.132900119 0.0503906347
v -0.1810707 0.122757904 0.0504132248
v -0.181130782 0.123223238 0.0507529117
v -0.181795761 0.123231642 0.0545242168
v -0.181130782 0.132436275 0.0507324077
v -0.181855872 0.122767799 0.0548659898
v -0.181795761 0.13244468 0.0545037128
v -0.181855842 0.132910073 0.0548434593
v -0.171891853 0.154611945 0.0593191721
v -0.170469746 0.154594064 0.0512541272
v -0.181446537 0.154589713 0.0493186451
v -0.182868615 0.154607654 0.05738369
v -0.181130812 0.0560038649 0.0509024002
v -0.181795791 0.0560122095 0.0546736456
v -0.181529865 0.0564761721 0.0543681718
v -0.180985048 0.0564693175 0.0512783863
v -0.182868615 0.138183713 0.0574202277
v -0.182868615 0.154607654 0.05738369
v -0.18309252 0.153876543 0.0567939617
v -0.18309252 0.138912261 0.0568272211
v -0.181713328 0.0921746418 0.0553104617
v -0.181713328 0.103211872 0.0552859642
v -0.181855872 0.10274642 0.0549105145
v -0.181855872 0.0926384255 0.0549329855
v -0.181713328 0.0739435479 0.0553510524
v -0.181713328 0.0843991563 0.055327747
v -0.181855872 0.0839337036 0.054952357
v -0.181855872 0.0744073316 0.0549735166
v -0.181713328 0.0550845824 0.0553929545
v -0.181713328 0.0661560819 0.0553683378
v -0.181855872 0.0656906292 0.0549928881
v -0.181855872 0.0555483662 0.0550154783
v -0.181713298 0.159394085 0.0551610328
v -0.181713298 0.170431316 0.0551364757
v -0.181855842 0.169965863 0.0547610261
v -0.181855842 0.159857869 0.054783497
v -0.181713328 0.122304015 0.0552435257
v -0.181713328 0.133375525 0.0552189089
v -0.181855842 0.132910073 0.0548434593
v -0.181855872 0.122767799 0.0548659898
v -0.181953564 0.153132319 0.0503362752
v -0.181953564 0.139627695 0.050366316
v -0.181724623 0.140358865 0.0509569384
v -0.181724623 0.152403772 0.0509301759
v -0.181130782 0.102272682 0.0507994629
v -0.181130812 0.0930939242 0.0508199073
v -0.180985048 0.0935593769 0.0511958934
v -0.180985048 0.101808839 0.0511775352
v -0.181130812 0.0834599063 0.0508413054
v -0.181130812 0.0748627707 0.0508604385
v -0.180985048 0.075328283 0.0512364246
v -0.180985048 0.0829961225 0.0512193777
v -0.181130812 0.0652168319 0.0508818962
v -0.181130812 0.0560038649 0.0509024002
v -0.180985048 0.0564693175 0.0512783863
v -0.180985048 0.0647530481 0.0512599684
v -0.181130782 0.169492066 0.0506500341
v -0.181130782 0.160313368 0.0506704189
v -0.180985019 0.160778821 0.0510464646
v -0.180985019 0.169028282 0.0510281064
v -0.181130782 0.132436275 0.0507324077
v -0.181130782 0.123223238 0.0507529117
v -0.180985048 0.12368875 0.0511289574
v -0.180985048 0.131972492 0.05111048
v -0.181724623 0.140358865 0.0509569384
v -0.182580426 0.140369654 0.055810485
v -0.171875224 0.140373886 0.0576980449
v -0.17101942 0.140363038 0.0528445579
v -0.180808023 0.0550731383 0.05025867
v -0.181713328 0.0550845824 0.0553929545
v -0.181855872 0.0555483662 0.0550154783
v -0.18107073 0.0555384718 0.0505626537
v -0.181446537 0.154589713 0.0493186451
v -0.181446537 0.138165772 0.0493551232
v -0.18185921 0.138896704 0.0498326756
v -0.18185918 0.153860986 0.0497994162
v -0.180807993 0.103200488 0.0501516201
v -0.180807993 0.0921631977 0.0501761772
v -0.1810707 0.0926285312 0.0504801609
v -0.1810707 0.102736525 0.0504576899
v -0.180808023 0.0843877122 0.0501934625
v -0.180808023 0.0739321038 0.0502167083
v -0.18107073 0.0743974373 0.050520692
v -0.1810707 0.0839238092 0.0504995324
v -0.180808023 0.0661446378 0.0502340533
v -0.180808023 0.0550731383 0.05025867
v -0.18107073 0.0555384718 0.0505626537
v -0.18107073 0.0656807348 0.0505401231
v -0.180807993 0.170419872 0.0500021912
v -0.180807993 0.159382641 0.0500267483
v -0.1810707 0.159847975 0.050330732
v -0.1810707 0.169955969 0.0503082611
v -0.180807993 0.133364081 0.0500845648
v -0.180807993 0.122292571 0.0501091816
v -0.1810707 0.122757904 0.0504132248
v -0.1810707 0.132900119 0.0503906347
v -0.181795791 0.0652252361 0.0546532013
v -0.181130812 0.0652168319 0.0508818962
v -0.180985048 0.0647530481 0.0512599684
v -0.181529865 0.0647599027 0.054349754
v -0.174725428 0.133378267 0.0564510562
v -0.173820093 0.133366823 0.0513167121
v -0.180807993 0.133364081 0.0500845648
v -0.181713328 0.133375525 0.0552189089
v -0.181795791 0.0931022689 0.0545912124
v -0.181795761 0.102281027 0.054570768
v -0.181529835 0.101815753 0.0542673208
v -0.181529865 0.0935662314 0.054285679
v -0.181795791 0.074871175 0.0546317436
v -0.181795791 0.0834683105 0.0546126105
v -0.181529865 0.0830030367 0.0543091632
v -0.181529865 0.0753351375 0.0543262102
v -0.181795791 0.0560122095 0.0546736456
v -0.181795791 0.0652252361 0.0546532013
v -0.181529865 0.0647599027 0.054349754
v -0.181529865 0.0564761721 0.0543681718
v -0.181795761 0.160321712 0.054441724
v -0.181795761 0.16950047 0.0544212796
v -0.181529835 0.169035196 0.0541178919
v -0.181529835 0.160785675 0.0541362502
v -0.181795761 0.123231642 0.0545242168
v -0.181795761 0.13244468 0.0545037128
v -0.181529835 0.131979346 0.0542002656
v -0.181529835 0.123695605 0.054218743
v -0.182998136 0.139640868 0.056290362
v -0.182998136 0.153145492 0.0562603213
v -0.182580426 0.15241456 0.0557836629
v -0.182580426 0.140369654 0.055810485
v -0.180808023 0.0739321038 0.0502167083
v -0.181713328 0.0739435479 0.0553510524
v -0.181855872 0.0744073316 0.0549735166
v -0.18107073 0.0743974373 0.050520692
v -0.181795791 0.0834683105 0.0546126105
v -0.181130812 0.0834599063 0.0508413054
v -0.180985048 0.0829961225 0.0512193777
v -0.181529865 0.0830030367 0.0543091632
v -0.180807993 0.0921631977 0.0501761772
v -0.181713328 0.0921746418 0.0553104617
v -0.181855872 0.0926384255 0.0549329855
v -0.1810707 0.0926285312 0.0504801609
v -0.180985048 0.12368875 0.0511289574
v -0.181529835 0.123695605 0.054218743
v -0.174714819 0.123698287 0.0554203726
v -0.174170002 0.123691373 0.0523305871
v -0.181795761 0.102281027 0.054570768
v -0.181130782 0.102272682 0.0507994629
v -0.180985048 0.101808839 0.0511775352
v -0.181529835 0.101815753 0.0542673208
v -0.180807993 0.122292571 0.0501091816
v -0.181713328 0.122304015 0.0552435257
v -0.181855872 0.122767799 0.0548659898
v -0.1810707 0.122757904 0.0504132248
v 0.119585767 -0.0331603326 0.0460468866
v 0.124259546 -0.0331603326 0.0460468866
v 0.124044672 -0.0331598558 0.0462617017
v 0.124044672 -0.0331545509 0.0486393906
v 0.119800642 -0.0331598558 0.0462617017
v 0.124259546 -0.0331540741 0.0488542654
v 0.119800642 -0.0331545509 0.0486393906
v 0.119585767 -0.0331540741 0.0488542654
v 0.12828441 -0.0331603326 0.0460468866
v 0.132689252 -0.0331603326 0.0460468866
v 0.132474437 -0.0331598558 0.0462617017
v 0.132474437 -0.0331545509 0.0486393906
v 0.128499284 -0.0331598558 0.0462617017
v 0.132689252 -0.0331540741 0.0488542654
v 0.128499284 -0.0331545509 0.0486393906
v 0.12828441 -0.0331540741 0.0488542654
v 0.136719659 -0.0331603326 0.0460468866
v 0.141409293 -0.0331603326 0.0460468866
v 0.141194418 -0.0331598558 0.0462617017
v 0.141194418 -0.0331545509 0.0486393906
v 0.136934534 -0.0331598558 0.0462617017
v 0.141409293 -0.0331540741 0.0488542654
v 0.136934534 -0.0331545509 0.0486393906
v 0.136719659 -0.0331540741 0.0488542654
v 0.119370952 -0.0330330171 0.0458317734
v 0.124474362 -0.0330330171 0.0458317734
v 0.124259546 -0.0331603326 0.0460468866
v 0.119585767 -0.0331603326 0.0460468866
v 0.128069595 -0.0330330171 0.0458317734
v 0.132904068 -0.0330330171 0.0458317734
v 0.132689252 -0.0331603326 0.0460468866
v 0.12828441 -0.0331603326 0.0460468866
v 0.136504844 -0.0330330171 0.0458317734
v 0.141624108 -0.0330330171 0.0458317734
v 0.141409293 -0.0331603326 0.0460468866
v 0.136719659 -0.0331603326 0.0460468866
v 0.124044672 -0.0331545509 0.0486393906
v 0.119800642 -0.0331545509 0.0486393906
v 0.120015457 -0.0330252685 0.0484242775
v 0.123829857 -0.0330252685 0.0484242775
v 0.132474437 -0.0331545509 0.0486393906
v 0.128499284 -0.0331545509 0.0486393906
v 0.1287141 -0.0330252685 0.0484242775
v 0.132259563 -0.0330252685 0.0484242775
v 0.141194418 -0.0331545509 0.0486393906
v 0.136934534 -0.0331545509 0.0486393906
v 0.137149349 -0.0330252685 0.0484242775
v 0.140979603 -0.0330252685 0.0484242775
v -0.181795761 0.13244468 0.0545037128
v -0.181130782 0.132436275 0.0507324077
v -0.180985048 0.131972492 0.05111048
v -0.181529835 0.131979346 0.0542002656
v -0.181446537 0.138165772 0.0493551232
v -0.182868615 0.138183713 0.0574202277
v -0.18309252 0.138912261 0.0568272211
v -0.18185921 0.138896704 0.0498326756
v -0.174725428 0.103214614 0.0565181114
v -0.173820093 0.10320323 0.0513837673
v -0.180807993 0.103200488 0.0501516201
v -0.181713328 0.103211872 0.0552859642
v -0.182998136 0.153145492 0.0562603213
v -0.181953564 0.153132319 0.0503362752
v -0.181724623 0.152403772 0.0509301759
v -0.182580426 0.15241456 0.0557836629
v -0.180807993 0.159382641 0.0500267483
v -0.181713298 0.159394085 0.0551610328
v -0.181855842 0.159857869 0.054783497
v -0.1810707 0.159847975 0.050330732
v -0.180985048 0.0935593769 0.0511958934
v -0.181529865 0.0935662314 0.054285679
v -0.174714819 0.0935689136 0.0554873683
v -0.174170002 0.0935620591 0.0523975827
v 0.124474362 -0.0330258645 0.0490687825
v 0.119370952 -0.0330258645 0.0490687825
v 0.119585767 -0.0331540741 0.0488542654
v 0.124259546 -0.0331540741 0.0488542654
v 0.132904068 -0.0330258645 0.0490687825
v 0.128069595 -0.0330258645 0.0490687825
v 0.12828441 -0.0331540741 0.0488542654
v 0.132689252 -0.0331540741 0.0488542654
v 0.141624108 -0.0330258645 0.0490687825
v 0.136504844 -0.0330258645 0.0490687825
v 0.136719659 -0.0331540741 0.0488542654
v 0.141409293 -0.0331540741 0.0488542654
v 0.119800642 -0.0331598558 0.0462617017
v 0.124044672 -0.0331598558 0.0462617017
v 0.123829857 -0.03302956 0.0464762785
v 0.120015457 -0.03302956 0.0464762785
v 0.128499284 -0.0331598558 0.0462617017
v 0.132474437 -0.0331598558 0.0462617017
v 0.132259563 -0.03302956 0.0464762785
v 0.1287141 -0.03302956 0.0464762785
v 0.136934534 -0.0331598558 0.0462617017
v 0.141194418 -0.0331598558 0.0462617017
v 0.140979603 -0.03302956 0.0464762785
v 0.137149349 -0.03302956 0.0464762785
v -0.181795761 0.16950047 0.0544212796
v -0.181130782 0.169492066 0.0506500341
v -0.180985019 0.169028282 0.0510281064
v -0.181529835 0.169035196 0.0541178919
v -0.174725428 0.0844018981 0.0565598942
v -0.173820093 0.084390454 0.0514256097
v -0.180808023 0.0843877122 0.0501934625
v -0.181713328 0.0843991563 0.055327747
v -0.180985048 0.075328283 0.0512364246
v -0.181529865 0.0753351375 0.0543262102
v -0.174714819 0.0753378198 0.0555278994
v -0.174170032 0.0753309056 0.0524381138
v -0.174725428 0.0661588237 0.056600485
v -0.173820123 0.0661473796 0.0514662005
v -0.180808023 0.0661446378 0.0502340533
v -0.181713328 0.0661560819 0.0553683378
v 0.119370952 -0.0286273994 0.0458219983
v 0.124474362 -0.0286273994 0.0458219983
v 0.124474362 -0.0330330171 0.0458317734
v 0.119370952 -0.0330330171 0.0458317734
v 0.128069595 -0.0286273994 0.0458219983
v 0.132904068 -0.0286273994 0.0458219983
v 0.132904068 -0.0330330171 0.0458317734
v 0.128069595 -0.0330330171 0.0458317734
v 0.136504844 -0.0286273994 0.0458219983
v 0.141624108 -0.0286273994 0.0458219983
v 0.141624108 -0.0330330171 0.0458317734
v 0.136504844 -0.0330330171 0.0458317734
v -0.180985048 0.0564693175 0.0512783863
v -0.181529865 0.0564761721 0.0543681718
v -0.174714848 0.0564788543 0.0555698611
v -0.174170032 0.0564719401 0.0524800755
v 0.123829857 -0.0330252685 0.0484242775
v 0.120015457 -0.0330252685 0.0484242775
v 0.120015457 -0.0287285484 0.0484147407
v 0.123829857 -0.0287285484 0.0484147407
v 0.132259563 -0.0330252685 0.0484242775
v 0.1287141 -0.0330252685 0.0484242775
v 0.1287141 -0.0287285484 0.0484147407
v 0.132259563 -0.0287285484 0.0484147407
v 0.140979603 -0.0330252685 0.0484242775
v 0.137149349 -0.0330252685 0.0484242775
v 0.137149349 -0.0287285484 0.0484147407
v 0.140979603 -0.0287285484 0.0484147407
v -0.171891853 0.138188004 0.0593557097
v -0.171891853 0.154611945 0.0593191721
v -0.182868615 0.154607654 0.05738369
v -0.182868615 0.138183713 0.0574202277
v -0.174725428 0.0921773836 0.0565426089
v -0.174725428 0.103214614 0.0565181114
v -0.181713328 0.103211872 0.0552859642
v -0.181713328 0.0921746418 0.0553104617
v -0.174725428 0.0739462301 0.0565831997
v -0.174725428 0.0844018981 0.0565598942
v -0.181713328 0.0843991563 0.055327747
v -0.181713328 0.0739435479 0.0553510524
v -0.174725428 0.0550873242 0.0566251017
v -0.174725428 0.0661588237 0.056600485
v -0.181713328 0.0661560819 0.0553683378
v -0.181713328 0.0550845824 0.0553929545
v -0.174725398 0.159396827 0.05639318
v -0.174725398 0.170434058 0.0563686229
v -0.181713298 0.170431316 0.0551364757
v -0.181713298 0.159394085 0.0551610328
v -0.174725428 0.122306697 0.0564756729
v -0.174725428 0.133378267 0.0564510562
v -0.181713328 0.133375525 0.0552189089
v -0.181713328 0.122304015 0.0552435257
v -0.180985048 0.101808839 0.0511775352
v -0.180985048 0.0935593769 0.0511958934
v -0.174170002 0.0935620591 0.0523975827
v -0.174170002 0.101811521 0.0523792244
v -0.180985048 0.0829961225 0.0512193777
v -0.180985048 0.075328283 0.0512364246
v -0.174170032 0.0753309056 0.0524381138
v -0.174170002 0.0829988047 0.0524210669
v -0.180985048 0.0647530481 0.0512599684
v -0.180985048 0.0564693175 0.0512783863
v -0.174170032 0.0564719401 0.0524800755
v -0.174170032 0.0647557303 0.0524616577
v -0.180985019 0.169028282 0.0510281064
v -0.180985019 0.160778821 0.0510464646
v -0.174170002 0.160781503 0.0522480942
v -0.174170002 0.169030964 0.052229736
v -0.181724623 0.152403772 0.0509301759
v -0.181724623 0.140358865 0.0509569384
v -0.17101942 0.140363038 0.0528445579
v -0.17101939 0.152407944 0.0528177954
v -0.180985048 0.131972492 0.05111048
v -0.180985048 0.12368875 0.0511289574
v -0.174170002 0.123691373 0.0523305871
v -0.174170002 0.131975174 0.0523121692
v -0.0484355502 0.0342867337 0.0730506554
v -0.0452302508 0.0342867337 0.0730506554
v -0.0456596427 0.0358893834 0.0730470791
v -0.0454237871 0.0360254012 0.0729737654
v -0.0468329005 0.0370626412 0.0730444565
v -0.0466967039 0.037298318 0.072970964
v -0.0484355502 0.0377642475 0.0729699507
v -0.0484355502 0.0374920331 0.0730435029
v -0.0484355502 0.0379632078 0.0727700964
v -0.0465970449 0.0374705754 0.0727711692
v -0.0449578576 0.0342865549 0.0729776397
v -0.0456596427 0.032684084 0.0730542317
v -0.0452511124 0.0361246429 0.0727742091
v -0.0484355502 0.0380355678 0.0724975839
v -0.0465605073 0.0375331603 0.0724986568
v -0.0484355502 0.038032826 0.0712640062
v -0.0503105931 0.0375304185 0.0712651387
v -0.0503105931 0.0375331603 0.0724986568
v -0.0502741151 0.0374705754 0.0727711692
v -0.0501743965 0.037298318 0.072970964
v -0.0500381999 0.0370626412 0.0730444565
v -0.0514473133 0.0360254012 0.0729737654
v -0.0512114577 0.0358893834 0.0730470791
v -0.0516199879 0.0361246429 0.0727742091
v -0.0516831689 0.0361605249 0.0725017563
v -0.0667189807 0.0284659825 0.0730635896
v -0.0618136339 0.0284659825 0.0730635896
v -0.0624708347 0.0309185944 0.073058106
v -0.0622349195 0.0310546122 0.0729848519
v -0.0642663091 0.0327140652 0.0730541125
v -0.0641301125 0.0329498015 0.07298062
v -0.0667189807 0.0336434804 0.0729790702
v -0.0667189807 0.033371266 0.073052682
v -0.0667189807 0.0338423811 0.0727792755
v -0.064030394 0.0331219994 0.0727808848
v -0.0615412407 0.0284658037 0.0729905739
v -0.0624708347 0.026013311 0.0730690137
v -0.0620622449 0.031153854 0.0727852359
v -0.0667189807 0.0339148007 0.0725067034
v -0.0639939159 0.0331846438 0.0725083724
v -0.0667189807 0.0339120589 0.0712731853
v -0.0694439858 0.033181902 0.0712747946
v -0.0694439858 0.0331846438 0.0725083724
v -0.0694075078 0.0331219994 0.0727808848
v -0.0693077892 0.0329498015 0.07298062
v -0.0691715926 0.0327140652 0.0730541125
v -0.0712029785 0.0310546122 0.0729848519
v -0.0709670633 0.0309185944 0.073058106
v -0.0713756531 0.031153854 0.0727852359
v -0.0714388341 0.0311897956 0.0725127831
v -0.0597372465 0.00713002216 0.0731110349
v -0.054831963 0.00713002216 0.0731110349
v -0.0554891042 0.00958269369 0.0731055513
v -0.0552532487 0.00971871149 0.0730322972
v -0.057284575 0.0113781644 0.0731015578
v -0.0571484379 0.0116138412 0.0730280653
v -0.0597372465 0.01230752 0.0730265155
v -0.0597372465 0.0120353056 0.0731001273
v -0.0597372465 0.0125064803 0.0728267208
v -0.0570487194 0.0117860986 0.0728283301
v -0.0545595698 0.00712984335 0.0730380192
v -0.0554891042 0.00467735063 0.073116459
v -0.055080574 0.00981795322 0.0728326812
v -0.0597372465 0.0125788404 0.0725541487
v -0.0570122413 0.0118486835 0.0725558177
v -0.0597372465 0.0125760986 0.0713206306
v -0.0624622516 0.0118459417 0.0713222399
v -0.0624622516 0.0118486835 0.0725558177
v -0.0624257736 0.0117860986 0.0728283301
v -0.0623261146 0.0116138412 0.0730280653
v -0.062189918 0.0113781048 0.0731015578
v -0.064221248 0.00971871149 0.0730322972
v -0.0639853925 0.00958269369 0.0731055513
v -0.0643939227 0.00981795322 0.0728326812
v -0.0644571632 0.00985383522 0.0725602284
v -0.0644571632 0.0098510934 0.0713266507
v -0.0651873201 0.00712608825 0.0713327304
v -0.0651873201 0.00712883007 0.0725663081
v -0.0651143044 0.00712942611 0.0728386417
v -0.0649149269 0.00712984335 0.0730380192
v -0.0646425933 0.00713002216 0.0731110349
v -0.064221248 0.00454103481 0.0730438009
v -0.0639853925 0.00467735063 0.073116459
v -0.0643939227 0.00444089901 0.0728446618
v -0.0644571632 0.00440376531 0.0725723282
v -0.0644571632 0.0044010235 0.07133881
v -0.0624622516 0.00240617525 0.0713432208
v -0.0624622516 0.00240891706 0.0725767985
v -0.0624257736 0.00247275364 0.0728490129
v -0.0623261146 0.00264584552 0.0730480328
v -0.062189918 0.00288193952 0.0731204525
v -0.0597372465 0.00195216679 0.0730495825
v -0.0597372465 0.00222473871 0.0731219426
v -0.057284575 0.00288193952 0.0731204525
v -0.0571484379 0.00264584552 0.0730480328
v -0.0552532487 0.00454103481 0.0730438009
v -0.0597372465 0.00175237202 0.0728506222
v -0.0570487194 0.00247275364 0.0728490129
v -0.055080574 0.00444089901 0.0728446618
v -0.0543601923 0.00712942611 0.0728386417
v -0.0550173931 0.00985383522 0.0725602284
v -0.0542871766 0.00712883007 0.0725663081
v -0.0550173931 0.00440376531 0.0725723282
v -0.0570122413 0.00240891706 0.0725767985
v -0.0570122413 0.0118459417 0.0713222399
v -0.0550173931 0.0098510934 0.0713266507
v -0.0542871766 0.00712608825 0.0713327304
v -0.0550173931 0.0044010235 0.07133881
v -0.0597372465 0.00167876028 0.0725784078
v -0.0597372465 0.00167601847 0.0713448301
v -0.0570122413 0.00240617525 0.0713432208
v -0.0597372465 0.00174843811 0.0710723177
v -0.0570487194 0.00246881973 0.0710707083
v -0.0624257736 0.00246881973 0.0710707083
v -0.055080574 0.0044369055 0.0710663572
v -0.0543601923 0.00712549221 0.0710603371
v -0.0643939227 0.0044369651 0.0710663572
v -0.055080574 0.00981401931 0.0710543767
v -0.0570487194 0.0117821051 0.0710500255
v -0.0651143044 0.00712549221 0.0710603371
v -0.0597372465 0.0125025464 0.0710484162
v -0.0624257736 0.0117821051 0.0710500255
v -0.0643939227 0.00981401931 0.0710543767
v -0.064221248 0.00971382391 0.0708552375
v -0.0623261146 0.0116090132 0.0708510056
v -0.0597372465 0.012302692 0.0708494559
v -0.0649149269 0.00712501537 0.0708609596
v -0.064221248 0.00453620683 0.0708667412
v -0.0571484379 0.0116090132 0.0708510056
v -0.0623261146 0.00264101755 0.0708709732
v -0.0597372465 0.00194733881 0.0708724633
v -0.0552532487 0.00971382391 0.0708552375
v -0.0571484379 0.00264101755 0.0708709732
v -0.0552532487 0.00453620683 0.0708667412
v -0.0545595698 0.00712501537 0.0708609596
v -0.054831963 0.00712483656 0.0707880035
v -0.0554891042 0.00467222463 0.0707934275
v -0.057284575 0.00287675392 0.070797421
v -0.0597372465 0.00712483656 0.0707880035
v -0.0597372465 0.00221955311 0.0707989112
v -0.0554891042 0.00957750808 0.0707825199
v -0.057284575 0.0113729788 0.0707785264
v -0.062189918 0.00287675392 0.070797421
v -0.0639853925 0.00467222463 0.0707934275
v -0.0597372465 0.0120301796 0.0707770959
v -0.062189918 0.0113729788 0.0707785264
v -0.0646425933 0.00712483656 0.0707880035
v -0.0639853925 0.00957750808 0.0707825199
v -0.0714388341 0.0311870538 0.0712792054
v -0.072168991 0.028461989 0.0712852851
v -0.072168991 0.0284647308 0.0725188628
v -0.0720960349 0.0284653269 0.0727911964
v -0.0718966573 0.0284658037 0.0729905739
v -0.0716242641 0.0284659825 0.0730635896
v -0.0712029785 0.0258769952 0.0729963556
v -0.0709670633 0.026013311 0.0730690137
v -0.0713756531 0.0257767998 0.0727972165
v -0.0714388341 0.0257397257 0.0725248829
v -0.0714388341 0.0257369839 0.0712913647
v -0.0694439858 0.0237421356 0.0712957755
v -0.0694439858 0.0237448774 0.0725293532
v -0.0694075078 0.023808714 0.0728015676
v -0.0693077892 0.0239818059 0.0730005875
v -0.0691715926 0.0242178403 0.0730730072
v -0.0667189807 0.023288127 0.0730021372
v -0.0667189807 0.0235606395 0.0730744973
v -0.0642663091 0.0242178403 0.0730730072
v -0.0641301125 0.0239818059 0.0730005875
v -0.0622349195 0.0258769356 0.0729963556
v -0.0667189807 0.0230882727 0.0728031769
v -0.064030394 0.023808714 0.0728015676
v -0.0620622449 0.0257767998 0.0727972165
v -0.0613418631 0.0284653269 0.0727911964
v -0.0619990639 0.0311897956 0.0725127831
v -0.061268907 0.0284647308 0.0725188628
v -0.0619990639 0.0257397257 0.0725248829
v -0.0639939159 0.0237448774 0.0725293532
v -0.0639939159 0.033181902 0.0712747946
v -0.0619990639 0.0311870538 0.0712792054
v -0.061268907 0.028461989 0.0712852851
v -0.0619990639 0.0257369839 0.0712913647
v -0.0667189807 0.0230147205 0.0725309625
v -0.0667189807 0.0230119787 0.0712973848
v -0.0639939159 0.0237421356 0.0712957755
v -0.0667189807 0.0230843388 0.0710248724
v -0.064030394 0.0238047205 0.071023263
v -0.0694075078 0.0238047205 0.071023263
v -0.0620622449 0.0257728659 0.0710189119
v -0.0613418631 0.028461393 0.0710129514
v -0.0713756531 0.0257728659 0.0710189119
v -0.0620622449 0.0311499201 0.0710069314
v -0.064030394 0.0331180654 0.0710025802
v -0.0720960349 0.028461393 0.0710129514
v -0.0667189807 0.0338384472 0.0710009709
v -0.0694075078 0.0331180654 0.0710025802
v -0.0713756531 0.0311499201 0.0710069314
v -0.0712029785 0.0310497843 0.0708077922
v -0.0693077892 0.0329449736 0.0708035603
v -0.0667189807 0.0336386524 0.0708020106
v -0.0718966573 0.0284609757 0.0708135143
v -0.0712029785 0.0258721076 0.0708192959
v -0.0641301125 0.0329449736 0.0708035603
v -0.0693077892 0.0239769779 0.0708235279
v -0.0667189807 0.0232832991 0.070825018
v -0.0622349195 0.0310497843 0.0708077922
v -0.0641301125 0.0239769779 0.0708235279
v -0.0622349195 0.0258721076 0.0708192959
v -0.0615412407 0.0284609757 0.0708135143
v -0.0618136339 0.0284607969 0.0707405582
v -0.0624708347 0.0260081254 0.0707459822
v -0.0642663091 0.0242126547 0.0707499757
v -0.0667189807 0.0284607969 0.0707405582
v -0.0667189807 0.0235555135 0.0707514659
v -0.0624708347 0.0309134685 0.0707350746
v -0.0642663091 0.0327088796 0.0707310811
v -0.0691715926 0.0242127143 0.0707499757
v -0.0709670633 0.0260081254 0.0707459822
v -0.0667189807 0.0333660804 0.0707296506
v -0.0691715926 0.0327088796 0.0707310811
v -0.0716242641 0.0284607969 0.0707405582
v -0.0709670633 0.0309134685 0.0707350746
v -0.0516831689 0.0361577831 0.0712681785
v -0.0521855764 0.0342827998 0.0712723508
v -0.0521855764 0.0342855416 0.0725059286
v -0.0521126203 0.0342861377 0.0727782622
v -0.0519132428 0.0342865549 0.0729776397
v -0.0516408496 0.0342867337 0.0730506554
v -0.0514473133 0.0325477682 0.072981514
v -0.0512114577 0.032684084 0.0730542317
v -0.0516199879 0.0324476324 0.0727823749
v -0.0516831689 0.0324104987 0.0725101009
v -0.0516831689 0.0324077569 0.0712765232
v -0.0503105931 0.0310351811 0.071279563
v -0.0503105931 0.0310379229 0.0725131407
v -0.0502741151 0.0311016999 0.0727853552
v -0.0501743965 0.0312748514 0.0729843751
v -0.0500381999 0.0315108858 0.0730567947
v -0.0484355502 0.0308089219 0.0729853883
v -0.0484355502 0.0310814343 0.0730577484
v -0.0468329005 0.0315108858 0.0730567947
v -0.0466967039 0.0312748514 0.0729843751
v -0.0454237871 0.0325477682 0.072981514
v -0.0484355502 0.0306090675 0.072786428
v -0.0465970449 0.0311016999 0.0727853552
v -0.0452511124 0.0324476324 0.0727823749
v -0.04475848 0.0342861377 0.0727782622
v -0.0451879315 0.0361605249 0.0725017563
v -0.044685524 0.0342855416 0.0725059286
v -0.0451879315 0.0324104987 0.0725101009
v -0.0465605073 0.0310379229 0.0725131407
v -0.0465605073 0.0375304185 0.0712651387
v -0.0451879315 0.0361577831 0.0712681785
v -0.044685524 0.0342827998 0.0712723508
v -0.0451879315 0.0324077569 0.0712765232
v -0.0484355502 0.0305355154 0.0725142136
v -0.0484355502 0.0305327736 0.0712806955
v -0.0465605073 0.0310351811 0.071279563
v -0.0484355502 0.0306051336 0.0710081831
v -0.0465970449 0.031097766 0.0710070506
v -0.0502741151 0.031097766 0.0710070506
v -0.0452511124 0.0324436389 0.0710040703
v -0.04475848 0.0342822038 0.0709999576
v -0.0516199879 0.0324436389 0.0710040703
v -0.0452511124 0.036120709 0.0709959045
v -0.0465970449 0.0374665819 0.0709929243
v -0.0521126203 0.0342822038 0.0709999576
v -0.0484355502 0.0379592143 0.0709917918
v -0.0502741151 0.0374665819 0.0709929243
v -0.0516199879 0.036120709 0.0709959045
v -0.0514473133 0.0360205732 0.0707967058
v -0.0501743965 0.03729349 0.0707939044
v -0.0484355502 0.0377594195 0.0707928315
v -0.0519132428 0.0342817269 0.0708005801
v -0.0514473133 0.0325428806 0.0708044544
v -0.0466967039 0.03729349 0.0707939044
v -0.0501743965 0.0312699638 0.0708073154
v -0.0484355502 0.0308040939 0.0708083287
v -0.0454237871 0.0360205732 0.0707967058
v -0.0466967039 0.0312699638 0.0708073154
v -0.0454237871 0.0325428806 0.0708044544
v -0.0449578576 0.0342817269 0.0708005801
v -0.0452302508 0.0342816077 0.070727624
v -0.0456596427 0.0326788984 0.0707312003
v -0.0468329005 0.0315057002 0.0707337633
v -0.0484355502 0.0342816077 0.070727624
v -0.0484355502 0.0310762487 0.070734717
v -0.0456596427 0.0358842574 0.0707240477
v -0.0468329005 0.0370574556 0.0707214251
v -0.0500381999 0.0315057002 0.0707337633
v -0.0512114577 0.032678958 0.0707312003
v -0.0484355502 0.0374869071 0.0707204714
v -0.0500381999 0.0370574556 0.0707214251
v -0.0516408496 0.0342816077 0.070727624
v -0.0512114577 0.0358842574 0.0707240477
v -0.170469746 0.154594064 0.0512541272
v -0.170469746 0.138170063 0.0512906648
v -0.181446537 0.138165772 0.0493551232
v -0.181446537 0.154589713 0.0493186451
v -0.173820093 0.10320323 0.0513837673
v -0.173820093 0.0921659395 0.0514083244
v -0.180807993 0.0921631977 0.0501761772
v -0.180807993 0.103200488 0.0501516201
v -0.173820093 0.084390454 0.0514256097
v -0.173820123 0.0739348456 0.0514488555
v -0.180808023 0.0739321038 0.0502167083
v -0.180808023 0.0843877122 0.0501934625
v -0.173820123 0.0661473796 0.0514662005
v -0.173820123 0.0550758801 0.0514908172
v -0.180808023 0.0550731383 0.05025867
v -0.180808023 0.0661446378 0.0502340533
v -0.173820093 0.170422614 0.0512343384
v -0.173820093 0.159385383 0.0512588955
v -0.180807993 0.159382641 0.0500267483
v -0.180807993 0.170419872 0.0500021912
v -0.173820093 0.133366823 0.0513167121
v -0.173820093 0.122295313 0.0513413288
v -0.180807993 0.122292571 0.0501091816
v -0.180807993 0.133364081 0.0500845648
v -0.181529865 0.0935662314 0.054285679
v -0.181529835 0.101815753 0.0542673208
v -0.174714819 0.101818435 0.05546901
v -0.174714819 0.0935689136 0.0554873683
v -0.181529865 0.0753351375 0.0543262102
v -0.181529865 0.0830030367 0.0543091632
v -0.174714819 0.0830056593 0.0555108525
v -0.174714819 0.0753378198 0.0555278994
v -0.181529865 0.0564761721 0.0543681718
v -0.181529865 0.0647599027 0.054349754
v -0.174714819 0.0647625849 0.0555514432
v -0.174714848 0.0564788543 0.0555698611
v -0.181529835 0.160785675 0.0541362502
v -0.181529835 0.169035196 0.0541178919
v -0.174714819 0.169037819 0.0553195216
v -0.174714819 0.160788357 0.0553378798
v -0.181529835 0.123695605 0.054218743
v -0.181529835 0.131979346 0.0542002656
v -0.174714819 0.131982028 0.0554019548
v -0.174714819 0.123698287 0.0554203726
v -0.182580426 0.140369654 0.055810485
v -0.182580426 0.15241456 0.0557836629
v -0.171875194 0.152418792 0.0576712824
v -0.171875224 0.140373886 0.0576980449
v 0.124474362 -0.0286201872 0.0490590073
v 0.119370952 -0.0286201872 0.0490590073
v 0.119370952 -0.0330258645 0.0490687825
v 0.124474362 -0.0330258645 0.0490687825
v 0.132904068 -0.0286201872 0.0490590073
v 0.128069595 -0.0286201872 0.0490590073
v 0.128069595 -0.0330258645 0.0490687825
v 0.132904068 -0.0330258645 0.0490687825
v 0.141624108 -0.0286201872 0.0490590073
v 0.136504844 -0.0286201872 0.0490590073
v 0.136504844 -0.0330258645 0.0490687825
v 0.141624108 -0.0330258645 0.0490687825
v -0.173820123 0.0550758801 0.0514908172
v -0.174725428 0.0550873242 0.0566251017
v -0.181713328 0.0550845824 0.0553929545
v -0.180808023 0.0550731383 0.05025867
v 0.120015457 -0.03302956 0.0464762785
v 0.123829857 -0.03302956 0.0464762785
v 0.123829857 -0.0287328996 0.0464667417
v 0.120015457 -0.0287328996 0.0464667417
v 0.1287141 -0.03302956 0.0464762785
v 0.132259563 -0.03302956 0.0464762785
v 0.132259563 -0.0287328996 0.0464667417
v 0.1287141 -0.0287328996 0.0464667417
v 0.137149349 -0.03302956 0.0464762785
v 0.140979603 -0.03302956 0.0464762785
v 0.140979603 -0.0287328996 0.0464667417
v 0.137149349 -0.0287328996 0.0464667417
v -0.181529865 0.0647599027 0.054349754
v -0.180985048 0.0647530481 0.0512599684
v -0.174170032 0.0647557303 0.0524616577
v -0.174714819 0.0647625849 0.0555514432
v 0.119370952 -0.0330258645 0.0490687825
v 0.119370952 -0.0330330171 0.0458317734
v 0.119585767 -0.0331603326 0.0460468866
v 0.119585767 -0.0331540741 0.0488542654
v -0.173820123 0.0739348456 0.0514488555
v -0.174725428 0.0739462301 0.0565831997
v -0.181713328 0.0739435479 0.0553510524
v -0.180808023 0.0739321038 0.0502167083
v 0.124044672 -0.0331598558 0.0462617017
v 0.124044672 -0.0331545509 0.0486393906
v 0.123829857 -0.0330252685 0.0484242775
v 0.123829857 -0.03302956 0.0464762785
v 0.128069595 -0.0330258645 0.0490687825
v 0.128069595 -0.0330330171 0.0458317734
v 0.12828441 -0.0331603326 0.0460468866
v 0.12828441 -0.0331540741 0.0488542654
v 0.132474437 -0.0331598558 0.0462617017
v 0.132474437 -0.0331545509 0.0486393906
v 0.132259563 -0.0330252685 0.0484242775
v 0.132259563 -0.03302956 0.0464762785
v 0.136504844 -0.0330258645 0.0490687825
v 0.136504844 -0.0330330171 0.0458317734
v 0.136719659 -0.0331603326 0.0460468866
v 0.136719659 -0.0331540741 0.0488542654
v -0.181529865 0.0830030367 0.0543091632
v -0.180985048 0.0829961225 0.0512193777
v -0.174170002 0.0829988047 0.0524210669
v -0.174714819 0.0830056593 0.0555108525
v 0.141194418 -0.0331598558 0.0462617017
v 0.141194418 -0.0331545509 0.0486393906
v 0.140979603 -0.0330252685 0.0484242775
v 0.140979603 -0.03302956 0.0464762785
v -0.173820093 0.0921659395 0.0514083244
v -0.174725428 0.0921773836 0.0565426089
v -0.181713328 0.0921746418 0.0553104617
v -0.180807993 0.0921631977 0.0501761772
v -0.181529835 0.101815753 0.0542673208
v -0.180985048 0.101808839 0.0511775352
v -0.174170002 0.101811521 0.0523792244
v -0.174714819 0.101818435 0.05546901
v -0.173820093 0.122295313 0.0513413288
v -0.174725428 0.122306697 0.0564756729
v -0.181713328 0.122304015 0.0552435257
v -0.180807993 0.122292571 0.0501091816
v -0.181529835 0.131979346 0.0542002656
v -0.180985048 0.131972492 0.05111048
v -0.174170002 0.131975174 0.0523121692
v -0.174714819 0.131982028 0.0554019548
v -0.170469746 0.138170063 0.0512906648
v -0.171891853 0.138188004 0.0593557097
v -0.182868615 0.138183713 0.0574202277
v -0.181446537 0.138165772 0.0493551232
v -0.182580426 0.15241456 0.0557836629
v -0.181724623 0.152403772 0.0509301759
v -0.17101939 0.152407944 0.0528177954
v -0.171875194 0.152418792 0.0576712824
v -0.173820093 0.159385383 0.0512588955
v -0.174725398 0.159396827 0.05639318
v -0.181713298 0.159394085 0.0551610328
v -0.180807993 0.159382641 0.0500267483
v -0.181529835 0.169035196 0.0541178919
v -0.180985019 0.169028282 0.0510281064
v -0.174170002 0.169030964 0.052229736
v -0.174714819 0.169037819 0.0553195216
v 0.119370952 -0.0286201872 0.0490590073
v 0.119370952 -0.0286273994 0.0458219983
v 0.119370952 -0.0330330171 0.0458317734
v 0.119370952 -0.0330258645 0.0490687825
v 0.123829857 -0.03302956 0.0464762785
v 0.123829857 -0.0330252685 0.0484242775
v 0.123829857 -0.0287285484 0.0484147407
v 0.123829857 -0.0287328996 0.0464667417
v 0.128069595 -0.0286201872 0.0490590073
v 0.128069595 -0.0286273994 0.0458219983
v 0.128069595 -0.0330330171 0.0458317734
v 0.128069595 -0.0330258645 0.0490687825
v 0.132259563 -0.03302956 0.0464762785
v 0.132259563 -0.0330252685 0.0484242775
v 0.132259563 -0.0287285484 0.0484147407
v 0.132259563 -0.0287328996 0.0464667417
v 0.136504844 -0.0286201872 0.0490590073
v 0.136504844 -0.0286273994 0.0458219983
v 0.136504844 -0.0330330171 0.0458317734
v 0.136504844 -0.0330258645 0.0490687825
v 0.140979603 -0.03302956 0.0464762785
v 0.140979603 -0.0330252685 0.0484242775
v 0.140979603 -0.0287285484 0.0484147407
v 0.140979603 -0.0287328996 0.0464667417
f 1 2 3
f 1 2 3
f 3 4 1
f 3 4 1
f 5 6 7
f 5 6 7
f 7 8 5
f 7 8 5
f 9 10 11
f 9 10 11
f 11 12 9
f 11 12 9
f 13 14 15
f 13 14 15
f 15 16 13
f 15 16 13
f 17 18 19
f 17 18 19
f 19 20 17
f 19 20 17
f 21 22 23
f 21 22 23
f 23 24 21
f 23 24 21
f 25 26 27
f 25 26 27
f 27 28 25
f 27 28 25
f 29 30 31
f 29 30 31
f 31 32 29
f 31 32 29
f 33 34 35
f 33 34 35
f 35 36 33
f 35 36 33
f 37 38 39
f 37 38 39
f 39 40 37
f 39 40 37
f 41 42 43
f 41 42 43
f 43 44 41
f 43 44 41
f 45 46 47
f 45 46 47
f 47 48 45
f 47 48 45
f 49 50 51
f 49 50 51
f 51 52 49
f 51 52 49
f 53 54 55
f 53 54 55
f 55 56 53
f 55 56 53
f 57 58 59
f 57 58 59
f 59 60 57
f 59 60 57
f 61 62 63
f 61 62 63
f 63 64 61
f 63 64 61
f 65 66 67
f 65 66 67
f 67 68 65
f 67 68 65
f 69 70 71
f 69 70 71
f 71 72 69
f 71 72 69
f 73 74 75
f 73 74 75
f 75 76 73
f 75 76 73
f 77 78 79
f 77 78 79
f 79 80 77
f 79 80 77
f 81 82 83
f 81 82 83
f 83 84 81
f 83 84 81
f 85 86 87
f 85 86 87
f 87 88 85
f 87 88 85
f 89 90 91
f 89 90 91
f 91 92 89
f 91 92 89
f 93 94 95
f 93 94 95
f 95 96 93
f 95 96 93
f 97 98 99
f 97 98 99
f 99 100 97
f 99 100 97
f 101 102 103
f 101 102 103
f 104 103 102
f 104 103 102
f 103 105 101
f 103 105 101
f 102 106 104
f 102 106 104
f 107 104 106
f 107 104 106
f 108 101 105
f 108 101 105
f 105 107 108
f 105 107 108
f 106 108 107
f 106 108 107
f 109 110 111
f 109 110 111
f 112 111 110
f 112 111 110
f 111 113 109
f 111 113 109
f 110 114 112
f 110 114 112
f 115 112 114
f 115 112 114
f 116 109 113
f 116 109 113
f 113 115 116
f 113 115 116
f 114 116 115
f 114 116 115
f 117 118 119
f 117 118 119
f 120 119 118
f 120 119 118
f 119 121 117
f 119 121 117
f 118 122 120
f 118 122 120
f 123 120 122
f 123 120 122
f 124 117 121
f 124 117 121
f 121 123 124
f 121 123 124
f 122 124 123
f 122 124 123
f 125 126 127
f 125 126 127
f 128 127 126
f 128 127 126
f 127 129 125
f 127 129 125
f 126 130 128
f 126 130 128
f 131 128 130
f 131 128 130
f 132 125 129
f 132 125 129
f 129 131 132
f 129 131 132
f 130 132 131
f 130 132 131
f 133 134 135
f 133 134 135
f 136 135 134
f 136 135 134
f 135 137 133
f 135 137 133
f 134 138 136
f 134 138 136
f 139 136 138
f 139 136 138
f 140 133 137
f 140 133 137
f 137 139 140
f 137 139 140
f 138 140 139
f 138 140 139
f 141 142 143
f 141 142 143
f 144 143 142
f 144 143 142
f 143 145 141
f 143 145 141
f 142 146 144
f 142 146 144
f 147 144 146
f 147 144 146
f 148 141 145
f 148 141 145
f 145 147 148
f 145 147 148
f 146 148 147
f 146 148 147
f 149 150 151
f 149 150 151
f 151 152 149
f 151 152 149
f 153 154 155
f 153 154 155
f 155 156 153
f 155 156 153
f 157 158 159
f 157 158 159
f 159 160 157
f 159 160 157
f 161 162 163
f 161 162 163
f 163 164 161
f 163 164 161
f 165 166 167
f 165 166 167
f 167 168 165
f 167 168 165
f 169 170 171
f 169 170 171
f 171 172 169
f 171 172 169
f 173 174 175
f 173 174 175
f 175 176 173
f 175 176 173
f 177 178 179
f 177 178 179
f 179 180 177
f 179 180 177
f 181 182 183
f 181 182 183
f 183 184 181
f 183 184 181
f 185 186 187
f 185 186 187
f 187 188 185
f 187 188 185
f 189 190 191
f 189 190 191
f 191 192 189
f 191 192 189
f 193 194 195
f 193 194 195
f 195 196 193
f 195 196 193
f 197 198 199
f 197 198 199
f 199 200 197
f 199 200 197
f 201 202 203
f 201 202 203
f 203 204 201
f 203 204 201
f 205 206 207
f 205 206 207
f 207 208 205
f 207 208 205
f 209 210 211
f 209 210 211
f 211 212 209
f 211 212 209
f 213 214 215
f 213 214 215
f 215 216 213
f 215 216 213
f 217 218 219
f 217 218 219
f 219 220 217
f 219 220 217
f 221 222 223
f 221 222 223
f 223 224 221
f 223 224 221
f 225 226 227
f 225 226 227
f 227 228 225
f 227 228 225
f 229 230 231
f 229 230 231
f 231 232 229
f 231 232 229
f 233 234 235
f 233 234 235
f 235 236 233
f 235 236 233
f 237 238 239
f 237 238 239
f 239 240 237
f 239 240 237
f 241 242 243
f 241 242 243
f 243 244 241
f 243 244 241
f 245 246 247
f 245 246 247
f 247 248 245
f 247 248 245
f 249 250 251
f 249 250 251
f 251 252 249
f 251 252 249
f 253 254 255
f 253 254 255
f 255 256 253
f 255 256 253
f 257 258 259
f 257 258 259
f 259 260 257
f 259 260 257
f 261 262 263
f 261 262 263
f 263 264 261
f 263 264 261
f 265 266 267
f 265 266 267
f 267 268 265
f 267 268 265
f 269 270 271
f 269 270 271
f 271 272 269
f 271 272 269
f 273 274 275
f 273 274 275
f 275 276 273
f 275 276 273
f 277 278 279
f 277 278 279
f 279 280 277
f 279 280 277
f 281 282 283
f 281 282 283
f 283 284 281
f 283 284 281
f 285 286 287
f 285 286 287
f 287 288 285
f 287 288 285
f 289 290 291
f 289 290 291
f 291 292 289
f 291 292 289
f 293 294 295
f 293 294 295
f 296 295 294
f 296 295 294
f 295 297 293
f 295 297 293
f 294 298 296
f 294 298 296
f 299 296 298
f 299 296 298
f 300 293 297
f 300 293 297
f 297 299 300
f 297 299 300
f 298 300 299
f 298 300 299
f 301 302 303
f 301 302 303
f 304 303 302
f 304 303 302
f 303 305 301
f 303 305 301
f 302 306 304
f 302 306 304
f 307 304 306
f 307 304 306
f 308 301 305
f 308 301 305
f 305 307 308
f 305 307 308
f 306 308 307
f 306 308 307
f 309 310 311
f 309 310 311
f 312 311 310
f 312 311 310
f 311 313 309
f 311 313 309
f 310 314 312
f 310 314 312
f 315 312 314
f 315 312 314
f 316 309 313
f 316 309 313
f 313 315 316
f 313 315 316
f 314 316 315
f 314 316 315
f 317 318 319
f 317 318 319
f 319 320 317
f 319 320 317
f 321 322 323
f 321 322 323
f 323 324 321
f 323 324 321
f 325 326 327
f 325 326 327
f 327 328 325
f 327 328 325
f 329 330 331
f 329 330 331
f 331 332 329
f 331 332 329
f 333 334 335
f 333 334 335
f 335 336 333
f 335 336 333
f 337 338 339
f 337 338 339
f 339 340 337
f 339 340 337
f 341 342 343
f 341 342 343
f 343 344 341
f 343 344 341
f 345 346 347
f 345 346 347
f 347 348 345
f 347 348 345
f 349 350 351
f 349 350 351
f 351 352 349
f 351 352 349
f 353 354 355
f 353 354 355
f 355 356 353
f 355 356 353
f 357 358 359
f 357 358 359
f 359 360 357
f 359 360 357
f 361 362 363
f 361 362 363
f 363 364 361
f 363 364 361
f 365 366 367
f 365 366 367
f 367 368 365
f 367 368 365
f 369 370 371
f 369 370 371
f 371 372 369
f 371 372 369
f 373 374 375
f 373 374 375
f 375 376 373
f 375 376 373
f 377 378 379
f 377 378 379
f 379 380 377
f 379 380 377
f 381 382 383
f 381 382 383
f 383 384 381
f 383 384 381
f 385 386 387
f 385 386 387
f 387 388 385
f 387 388 385
f 389 390 391
f 389 390 391
f 391 392 389
f 391 392 389
f 393 394 395
f 393 394 395
f 395 396 393
f 395 396 393
f 397 398 399
f 397 398 399
f 399 400 397
f 399 400 397
f 401 402 403
f 401 402 403
f 403 404 401
f 403 404 401
f 405 406 407
f 405 406 407
f 407 408 405
f 407 408 405
f 409 410 411
f 409 410 411
f 411 412 409
f 411 412 409
f 413 414 415
f 413 414 415
f 415 416 413
f 415 416 413
f 417 418 419
f 417 418 419
f 419 420 417
f 419 420 417
f 421 422 423
f 421 422 423
f 423 424 421
f 423 424 421
f 425 426 427
f 425 426 427
f 427 428 425
f 427 428 425
f 429 430 431
f 429 430 431
f 431 432 429
f 431 432 429
f 433 434 435
f 433 434 435
f 435 436 433
f 435 436 433
f 437 438 439
f 437 438 439
f 439 440 437
f 439 440 437
f 441 442 443
f 441 442 443
f 443 444 441
f 443 444 441
f 445 446 447
f 445 446 447
f 447 448 445
f 447 448 445
f 449 450 451
f 449 450 451
f 451 452 449
f 451 452 449
f 453 454 455
f 453 454 455
f 455 456 453
f 455 456 453
f 457 458 459
f 457 458 459
f 459 460 457
f 459 460 457
f 461 462 463
f 461 462 463
f 463 464 461
f 463 464 461
f 465 466 467
f 465 466 467
f 467 468 465
f 467 468 465
f 469 470 471
f 469 470 471
f 471 472 469
f 471 472 469
f 473 474 475
f 473 474 475
f 475 476 473
f 475 476 473
f 477 478 479
f 477 478 479
f 479 480 477
f 479 480 477
f 481 482 483
f 481 482 483
f 482 484 483
f 482 484 483
f 481 483 485
f 481 483 485
f 483 484 486
f 483 486 485
f 483 484 486
f 483 486 485
f 485 486 487
f 485 486 487
f 485 487 488
f 481 485 488
f 485 487 488
f 481 485 488
f 486 489 487
f 486 489 487
f 484 490 486
f 486 490 489
f 484 490 486
f 486 490 489
f 482 491 484
f 482 491 484
f 481 492 482
f 492 491 482
f 481 492 482
f 492 491 482
f 484 493 490
f 484 493 490
f 491 493 484
f 491 493 484
f 490 494 489
f 490 494 489
f 493 495 490
f 490 495 494
f 493 495 490
f 490 495 494
f 495 496 494
f 495 496 494
f 494 496 497
f 494 496 497
f 489 494 498
f 494 497 498
f 489 494 498
f 494 497 498
f 489 498 499
f 489 498 499
f 487 489 499
f 487 489 499
f 487 499 500
f 487 499 500
f 488 487 500
f 488 487 500
f 488 500 501
f 488 500 501
f 481 488 501
f 481 488 501
f 501 500 502
f 501 500 502
f 481 501 503
f 501 502 503
f 481 501 503
f 501 502 503
f 500 499 504
f 500 499 504
f 500 504 502
f 500 504 502
f 499 505 504
f 499 505 504
f 499 498 505
f 506 507 508
f 506 507 508
f 507 509 508
f 507 509 508
f 506 508 510
f 506 508 510
f 508 509 511
f 508 511 510
f 508 509 511
f 508 511 510
f 510 511 512
f 510 511 512
f 510 512 513
f 506 510 513
f 510 512 513
f 506 510 513
f 511 514 512
f 511 514 512
f 509 515 511
f 511 515 514
f 509 515 511
f 511 515 514
f 507 516 509
f 507 516 509
f 506 517 507
f 517 516 507
f 506 517 507
f 517 516 507
f 509 518 515
f 509 518 515
f 516 518 509
f 516 518 509
f 515 519 514
f 515 519 514
f 518 520 515
f 515 520 519
f 518 520 515
f 515 520 519
f 520 521 519
f 520 521 519
f 519 521 522
f 519 521 522
f 514 519 523
f 519 522 523
f 514 519 523
f 519 522 523
f 514 523 524
f 514 523 524
f 512 514 524
f 512 514 524
f 512 524 525
f 512 524 525
f 513 512 525
f 513 512 525
f 513 525 526
f 513 525 526
f 506 513 526
f 506 513 526
f 526 525 527
f 526 525 527
f 506 526 528
f 526 527 528
f 506 526 528
f 526 527 528
f 525 524 529
f 525 524 529
f 525 529 527
f 525 529 527
f 524 530 529
f 524 530 529
f 524 523 530
f 531 532 533
f 531 532 533
f 532 534 533
f 532 534 533
f 531 533 535
f 531 533 535
f 533 534 536
f 533 536 535
f 533 534 536
f 533 536 535
f 535 536 537
f 535 536 537
f 535 537 538
f 531 535 538
f 535 537 538
f 531 535 538
f 536 539 537
f 536 539 537
f 534 540 536
f 536 540 539
f 534 540 536
f 536 540 539
f 532 541 534
f 532 541 534
f 531 542 532
f 542 541 532
f 531 542 532
f 542 541 532
f 534 543 540
f 534 543 540
f 541 543 534
f 541 543 534
f 540 544 539
f 540 544 539
f 543 545 540
f 540 545 544
f 543 545 540
f 540 545 544
f 545 546 544
f 545 546 544
f 544 546 547
f 544 546 547
f 539 544 548
f 544 547 548
f 539 544 548
f 544 547 548
f 539 548 549
f 539 548 549
f 537 539 549
f 537 539 549
f 537 549 550
f 537 549 550
f 538 537 550
f 538 537 550
f 538 550 551
f 538 550 551
f 531 538 551
f 531 538 551
f 551 550 552
f 551 550 552
f 531 551 553
f 551 552 553
f 531 551 553
f 551 552 553
f 550 549 554
f 550 549 554
f 550 554 552
f 550 554 552
f 549 555 554
f 549 555 554
f 549 548 555
f 549 548 555
f 548 556 555
f 548 556 555
f 548 547 556
f 548 547 556
f 555 556 557
f 555 556 557
f 554 555 558
f 555 557 558
f 554 555 558
f 555 557 558
f 552 554 559
f 552 554 559
f 554 558 559
f 554 558 559
f 552 559 560
f 552 559 560
f 553 552 560
f 553 552 560
f 553 560 561
f 553 560 561
f 531 553 561
f 531 553 561
f 561 560 562
f 561 560 562
f 531 561 563
f 561 562 563
f 531 561 563
f 561 562 563
f 560 559 564
f 560 559 564
f 560 564 562
f 560 564 562
f 559 565 564
f 559 565 564
f 559 558 565
f 559 558 565
f 558 566 565
f 558 566 565
f 558 557 566
f 558 557 566
f 565 566 567
f 565 566 567
f 564 565 568
f 565 567 568
f 564 565 568
f 565 567 568
f 562 564 569
f 562 564 569
f 564 568 569
f 564 568 569
f 562 569 570
f 562 569 570
f 563 562 570
f 563 562 570
f 563 570 571
f 563 570 571
f 531 563 571
f 531 563 571
f 571 570 572
f 571 570 572
f 531 571 573
f 571 572 573
f 531 571 573
f 571 572 573
f 531 573 574
f 531 573 574
f 531 574 542
f 531 574 542
f 573 575 574
f 573 572 575
f 573 575 574
f 573 572 575
f 574 576 542
f 574 576 542
f 574 575 576
f 574 575 576
f 542 576 541
f 542 576 541
f 570 577 572
f 570 577 572
f 570 569 577
f 570 569 577
f 572 578 575
f 572 578 575
f 572 577 578
f 572 577 578
f 575 579 576
f 575 579 576
f 575 578 579
f 575 578 579
f 576 580 541
f 576 580 541
f 576 579 580
f 576 579 580
f 541 580 543
f 541 580 543
f 580 581 543
f 580 581 543
f 543 581 545
f 543 581 545
f 579 582 580
f 579 582 580
f 580 582 581
f 580 582 581
f 578 583 579
f 578 583 579
f 579 583 582
f 579 583 582
f 578 584 583
f 578 584 583
f 577 584 578
f 577 584 578
f 581 585 545
f 581 585 545
f 545 585 546
f 545 585 546
f 582 586 581
f 582 586 581
f 581 586 585
f 581 586 585
f 583 587 582
f 583 587 582
f 582 587 586
f 582 587 586
f 584 588 583
f 584 588 583
f 583 588 587
f 583 588 587
f 577 589 584
f 577 589 584
f 569 589 577
f 569 589 577
f 569 568 589
f 569 568 589
f 568 590 589
f 568 590 589
f 589 591 584
f 589 591 584
f 584 591 588
f 584 591 588
f 589 590 591
f 589 590 591
f 568 567 590
f 568 567 590
f 567 592 590
f 567 592 590
f 590 592 593
f 590 593 591
f 590 592 593
f 590 593 591
f 567 594 592
f 567 594 592
f 566 594 567
f 566 594 567
f 591 593 595
f 591 593 595
f 591 595 588
f 591 595 588
f 588 595 596
f 588 595 596
f 588 596 587
f 588 596 587
f 566 597 594
f 566 597 594
f 557 597 566
f 557 597 566
f 587 596 598
f 587 596 598
f 587 598 586
f 587 598 586
f 586 598 599
f 586 598 599
f 586 599 585
f 586 599 585
f 557 600 597
f 557 600 597
f 556 600 557
f 556 600 557
f 585 599 601
f 585 599 601
f 585 601 546
f 585 601 546
f 546 601 602
f 546 601 602
f 546 602 547
f 546 602 547
f 547 603 556
f 547 603 556
f 556 603 600
f 556 603 600
f 547 602 603
f 547 602 603
f 602 604 603
f 602 604 603
f 601 605 602
f 602 605 604
f 601 605 602
f 602 605 604
f 601 606 605
f 601 606 605
f 599 606 601
f 599 606 601
f 603 607 600
f 603 604 607
f 603 607 600
f 603 604 607
f 600 607 608
f 600 607 608
f 600 608 597
f 600 608 597
f 599 609 606
f 599 609 606
f 598 609 599
f 598 609 599
f 597 608 610
f 597 608 610
f 597 610 594
f 597 610 594
f 594 610 611
f 594 610 611
f 594 611 592
f 594 611 592
f 598 612 609
f 598 612 609
f 596 612 598
f 596 612 598
f 592 611 613
f 592 611 613
f 592 613 593
f 592 613 593
f 593 613 614
f 593 613 614
f 593 614 595
f 593 614 595
f 595 615 596
f 595 615 596
f 596 615 612
f 596 615 612
f 595 614 615
f 595 614 615
f 614 616 615
f 614 616 615
f 613 617 614
f 614 617 616
f 613 617 614
f 614 617 616
f 613 618 617
f 613 618 617
f 611 618 613
f 611 618 613
f 618 619 617
f 618 619 617
f 617 619 616
f 617 619 616
f 611 620 618
f 611 620 618
f 620 619 618
f 620 619 618
f 610 620 611
f 610 620 611
f 615 616 621
f 615 616 621
f 616 619 621
f 616 619 621
f 615 621 612
f 615 621 612
f 612 621 622
f 612 621 622
f 621 619 622
f 621 619 622
f 610 623 620
f 610 623 620
f 623 619 620
f 623 619 620
f 608 623 610
f 608 623 610
f 612 622 609
f 612 622 609
f 608 624 623
f 608 624 623
f 624 619 623
f 624 619 623
f 607 624 608
f 607 624 608
f 609 622 625
f 609 622 625
f 622 619 625
f 622 619 625
f 609 625 606
f 609 625 606
f 606 625 626
f 606 625 626
f 625 619 626
f 625 619 626
f 607 627 624
f 607 627 624
f 627 619 624
f 627 619 624
f 604 627 607
f 604 627 607
f 628 619 627
f 604 628 627
f 628 619 627
f 604 628 627
f 626 619 628
f 626 619 628
f 605 628 604
f 605 628 604
f 606 626 605
f 606 626 605
f 605 626 628
f 605 626 628
f 524 523 530
f 523 629 530
f 523 629 530
f 523 522 629
f 523 522 629
f 530 629 630
f 530 629 630
f 529 530 631
f 530 630 631
f 529 530 631
f 530 630 631
f 527 529 632
f 527 529 632
f 529 631 632
f 529 631 632
f 527 632 633
f 527 632 633
f 528 527 633
f 528 527 633
f 528 633 634
f 528 633 634
f 506 528 634
f 506 528 634
f 634 633 635
f 634 633 635
f 506 634 636
f 634 635 636
f 506 634 636
f 634 635 636
f 633 632 637
f 633 632 637
f 633 637 635
f 633 637 635
f 632 638 637
f 632 638 637
f 632 631 638
f 632 631 638
f 631 639 638
f 631 639 638
f 631 630 639
f 631 630 639
f 638 639 640
f 638 639 640
f 637 638 641
f 638 640 641
f 637 638 641
f 638 640 641
f 635 637 642
f 635 637 642
f 637 641 642
f 637 641 642
f 635 642 643
f 635 642 643
f 636 635 643
f 636 635 643
f 636 643 644
f 636 643 644
f 506 636 644
f 506 636 644
f 644 643 645
f 644 643 645
f 506 644 646
f 644 645 646
f 506 644 646
f 644 645 646
f 506 646 647
f 506 646 647
f 506 647 517
f 506 647 517
f 646 648 647
f 646 645 648
f 646 648 647
f 646 645 648
f 647 649 517
f 647 649 517
f 647 648 649
f 647 648 649
f 517 649 516
f 517 649 516
f 643 650 645
f 643 650 645
f 643 642 650
f 643 642 650
f 645 651 648
f 645 651 648
f 645 650 651
f 645 650 651
f 648 652 649
f 648 652 649
f 648 651 652
f 648 651 652
f 649 653 516
f 649 653 516
f 649 652 653
f 649 652 653
f 516 653 518
f 516 653 518
f 653 654 518
f 653 654 518
f 518 654 520
f 518 654 520
f 652 655 653
f 652 655 653
f 653 655 654
f 653 655 654
f 651 656 652
f 651 656 652
f 652 656 655
f 652 656 655
f 651 657 656
f 651 657 656
f 650 657 651
f 650 657 651
f 654 658 520
f 654 658 520
f 520 658 521
f 520 658 521
f 655 659 654
f 655 659 654
f 654 659 658
f 654 659 658
f 656 660 655
f 656 660 655
f 655 660 659
f 655 660 659
f 657 661 656
f 657 661 656
f 656 661 660
f 656 661 660
f 650 662 657
f 650 662 657
f 642 662 650
f 642 662 650
f 642 641 662
f 642 641 662
f 641 663 662
f 641 663 662
f 662 664 657
f 662 664 657
f 657 664 661
f 657 664 661
f 662 663 664
f 662 663 664
f 641 640 663
f 641 640 663
f 640 665 663
f 640 665 663
f 663 665 666
f 663 666 664
f 663 665 666
f 663 666 664
f 640 667 665
f 640 667 665
f 639 667 640
f 639 667 640
f 664 666 668
f 664 666 668
f 664 668 661
f 664 668 661
f 661 668 669
f 661 668 669
f 661 669 660
f 661 669 660
f 639 670 667
f 639 670 667
f 630 670 639
f 630 670 639
f 660 669 671
f 660 669 671
f 660 671 659
f 660 671 659
f 659 671 672
f 659 671 672
f 659 672 658
f 659 672 658
f 630 673 670
f 630 673 670
f 629 673 630
f 629 673 630
f 658 672 674
f 658 672 674
f 658 674 521
f 658 674 521
f 521 674 675
f 521 674 675
f 521 675 522
f 521 675 522
f 522 676 629
f 522 676 629
f 629 676 673
f 629 676 673
f 522 675 676
f 522 675 676
f 675 677 676
f 675 677 676
f 674 678 675
f 675 678 677
f 674 678 675
f 675 678 677
f 674 679 678
f 674 679 678
f 672 679 674
f 672 679 674
f 676 680 673
f 676 677 680
f 676 680 673
f 676 677 680
f 673 680 681
f 673 680 681
f 673 681 670
f 673 681 670
f 672 682 679
f 672 682 679
f 671 682 672
f 671 682 672
f 670 681 683
f 670 681 683
f 670 683 667
f 670 683 667
f 667 683 684
f 667 683 684
f 667 684 665
f 667 684 665
f 671 685 682
f 671 685 682
f 669 685 671
f 669 685 671
f 665 684 686
f 665 684 686
f 665 686 666
f 665 686 666
f 666 686 687
f 666 686 687
f 666 687 668
f 666 687 668
f 668 688 669
f 668 688 669
f 669 688 685
f 669 688 685
f 668 687 688
f 668 687 688
f 687 689 688
f 687 689 688
f 686 690 687
f 687 690 689
f 686 690 687
f 687 690 689
f 686 691 690
f 686 691 690
f 684 691 686
f 684 691 686
f 691 692 690
f 691 692 690
f 690 692 689
f 690 692 689
f 684 693 691
f 684 693 691
f 693 692 691
f 693 692 691
f 683 693 684
f 683 693 684
f 688 689 694
f 688 689 694
f 689 692 694
f 689 692 694
f 688 694 685
f 688 694 685
f 685 694 695
f 685 694 695
f 694 692 695
f 694 692 695
f 683 696 693
f 683 696 693
f 696 692 693
f 696 692 693
f 681 696 683
f 681 696 683
f 685 695 682
f 685 695 682
f 681 697 696
f 681 697 696
f 697 692 696
f 697 692 696
f 680 697 681
f 680 697 681
f 682 695 698
f 682 695 698
f 695 692 698
f 695 692 698
f 682 698 679
f 682 698 679
f 679 698 699
f 679 698 699
f 698 692 699
f 698 692 699
f 680 700 697
f 680 700 697
f 700 692 697
f 700 692 697
f 677 700 680
f 677 700 680
f 701 692 700
f 677 701 700
f 701 692 700
f 677 701 700
f 699 692 701
f 699 692 701
f 678 701 677
f 678 701 677
f 679 699 678
f 679 699 678
f 678 699 701
f 678 699 701
f 499 498 505
f 498 702 505
f 498 702 505
f 498 497 702
f 498 497 702
f 505 702 703
f 505 702 703
f 504 505 704
f 505 703 704
f 504 505 704
f 505 703 704
f 502 504 705
f 502 504 705
f 504 704 705
f 504 704 705
f 502 705 706
f 502 705 706
f 503 502 706
f 503 502 706
f 503 706 707
f 503 706 707
f 481 503 707
f 481 503 707
f 707 706 708
f 707 706 708
f 481 707 709
f 707 708 709
f 481 707 709
f 707 708 709
f 706 705 710
f 706 705 710
f 706 710 708
f 706 710 708
f 705 711 710
f 705 711 710
f 705 704 711
f 705 704 711
f 704 712 711
f 704 712 711
f 704 703 712
f 704 703 712
f 711 712 713
f 711 712 713
f 710 711 714
f 711 713 714
f 710 711 714
f 711 713 714
f 708 710 715
f 708 710 715
f 710 714 715
f 710 714 715
f 708 715 716
f 708 715 716
f 709 708 716
f 709 708 716
f 709 716 717
f 709 716 717
f 481 709 717
f 481 709 717
f 717 716 718
f 717 716 718
f 481 717 719
f 717 718 719
f 481 717 719
f 717 718 719
f 481 719 720
f 481 719 720
f 481 720 492
f 481 720 492
f 719 721 720
f 719 718 721
f 719 721 720
f 719 718 721
f 720 722 492
f 720 722 492
f 720 721 722
f 720 721 722
f 492 722 491
f 492 722 491
f 716 723 718
f 716 723 718
f 716 715 723
f 716 715 723
f 718 724 721
f 718 724 721
f 718 723 724
f 718 723 724
f 721 725 722
f 721 725 722
f 721 724 725
f 721 724 725
f 722 726 491
f 722 726 491
f 722 725 726
f 722 725 726
f 491 726 493
f 491 726 493
f 726 727 493
f 726 727 493
f 493 727 495
f 493 727 495
f 725 728 726
f 725 728 726
f 726 728 727
f 726 728 727
f 724 729 725
f 724 729 725
f 725 729 728
f 725 729 728
f 724 730 729
f 724 730 729
f 723 730 724
f 723 730 724
f 727 731 495
f 727 731 495
f 495 731 496
f 495 731 496
f 728 732 727
f 728 732 727
f 727 732 731
f 727 732 731
f 729 733 728
f 729 733 728
f 728 733 732
f 728 733 732
f 730 734 729
f 730 734 729
f 729 734 733
f 729 734 733
f 723 735 730
f 723 735 730
f 715 735 723
f 715 735 723
f 715 714 735
f 715 714 735
f 714 736 735
f 714 736 735
f 735 737 730
f 735 737 730
f 730 737 734
f 730 737 734
f 735 736 737
f 735 736 737
f 714 713 736
f 714 713 736
f 713 738 736
f 713 738 736
f 736 738 739
f 736 739 737
f 736 738 739
f 736 739 737
f 713 740 738
f 713 740 738
f 712 740 713
f 712 740 713
f 737 739 741
f 737 739 741
f 737 741 734
f 737 741 734
f 734 741 742
f 734 741 742
f 734 742 733
f 734 742 733
f 712 743 740
f 712 743 740
f 703 743 712
f 703 743 712
f 733 742 744
f 733 742 744
f 733 744 732
f 733 744 732
f 732 744 745
f 732 744 745
f 732 745 731
f 732 745 731
f 703 746 743
f 703 746 743
f 702 746 703
f 702 746 703
f 731 745 747
f 731 745 747
f 731 747 496
f 731 747 496
f 496 747 748
f 496 747 748
f 496 748 497
f 496 748 497
f 497 749 702
f 497 749 702
f 702 749 746
f 702 749 746
f 497 748 749
f 497 748 749
f 748 750 749
f 748 750 749
f 747 751 748
f 748 751 750
f 747 751 748
f 748 751 750
f 747 752 751
f 747 752 751
f 745 752 747
f 745 752 747
f 749 753 746
f 749 750 753
f 749 753 746
f 749 750 753
f 746 753 754
f 746 753 754
f 746 754 743
f 746 754 743
f 745 755 752
f 745 755 752
f 744 755 745
f 744 755 745
f 743 754 756
f 743 754 756
f 743 756 740
f 743 756 740
f 740 756 757
f 740 756 757
f 740 757 738
f 740 757 738
f 744 758 755
f 744 758 755
f 742 758 744
f 742 758 744
f 738 757 759
f 738 757 759
f 738 759 739
f 738 759 739
f 739 759 760
f 739 759 760
f 739 760 741
f 739 760 741
f 741 761 742
f 741 761 742
f 742 761 758
f 742 761 758
f 741 760 761
f 741 760 761
f 760 762 761
f 760 762 761
f 759 763 760
f 760 763 762
f 759 763 760
f 760 763 762
f 759 764 763
f 759 764 763
f 757 764 759
f 757 764 759
f 764 765 763
f 764 765 763
f 763 765 762
f 763 765 762
f 757 766 764
f 757 766 764
f 766 765 764
f 766 765 764
f 756 766 757
f 756 766 757
f 761 762 767
f 761 762 767
f 762 765 767
f 762 765 767
f 761 767 758
f 761 767 758
f 758 767 768
f 758 767 768
f 767 765 768
f 767 765 768
f 756 769 766
f 756 769 766
f 769 765 766
f 769 765 766
f 754 769 756
f 754 769 756
f 758 768 755
f 758 768 755
f 754 770 769
f 754 770 769
f 770 765 769
f 770 765 769
f 753 770 754
f 753 770 754
f 755 768 771
f 755 768 771
f 768 765 771
f 768 765 771
f 755 771 752
f 755 771 752
f 752 771 772
f 752 771 772
f 771 765 772
f 771 765 772
f 753 773 770
f 753 773 770
f 773 765 770
f 773 765 770
f 750 773 753
f 750 773 753
f 774 765 773
f 750 774 773
f 774 765 773
f 750 774 773
f 772 765 774
f 772 765 774
f 751 774 750
f 751 774 750
f 752 772 751
f 752 772 751
f 751 772 774
f 751 772 774
f 775 776 777
f 775 776 777
f 777 778 775
f 777 778 775
f 779 780 781
f 779 780 781
f 781 782 779
f 781 782 779
f 783 784 785
f 783 784 785
f 785 786 783
f 785 786 783
f 787 788 789
f 787 788 789
f 789 790 787
f 789 790 787
f 791 792 793
f 791 792 793
f 793 794 791
f 793 794 791
f 795 796 797
f 795 796 797
f 797 798 795
f 797 798 795
f 799 800 801
f 799 800 801
f 801 802 799
f 801 802 799
f 803 804 805
f 803 804 805
f 805 806 803
f 805 806 803
f 807 808 809
f 807 808 809
f 809 810 807
f 809 810 807
f 811 812 813
f 811 812 813
f 813 814 811
f 813 814 811
f 815 816 817
f 815 816 817
f 817 818 815
f 817 818 815
f 819 820 821
f 819 820 821
f 821 822 819
f 821 822 819
f 823 824 825
f 823 824 825
f 825 826 823
f 825 826 823
f 827 828 829
f 827 828 829
f 829 830 827
f 829 830 827
f 831 832 833
f 831 832 833
f 833 834 831
f 833 834 831
f 835 836 837
f 835 836 837
f 837 838 835
f 837 838 835
f 839 840 841
f 839 840 841
f 841 842 839
f 841 842 839
f 843 844 845
f 843 844 845
f 845 846 843
f 845 846 843
f 847 848 849
f 847 848 849
f 849 850 847
f 849 850 847
f 851 852 853
f 851 852 853
f 853 854 851
f 853 854 851
f 855 856 857
f 855 856 857
f 857 858 855
f 857 858 855
f 859 860 861
f 859 860 861
f 861 862 859
f 861 862 859
f 863 864 865
f 863 864 865
f 865 866 863
f 865 866 863
f 867 868 869
f 867 868 869
f 869 870 867
f 869 870 867
f 871 872 873
f 871 872 873
f 873 874 871
f 873 874 871
f 875 876 877
f 875 876 877
f 877 878 875
f 877 878 875
f 879 880 881
f 879 880 881
f 881 882 879
f 881 882 879
f 883 884 885
f 883 884 885
f 885 886 883
f 885 886 883
f 887 888 889
f 887 888 889
f 889 890 887
f 889 890 887
f 891 892 893
f 891 892 893
f 893 894 891
f 893 894 891
f 895 896 897
f 895 896 897
f 897 898 895
f 897 898 895
f 899 900 901
f 899 900 901
f 901 902 899
f 901 902 899
f 903 904 905
f 903 904 905
f 905 906 903
f 905 906 903
f 907 908 909
f 907 908 909
f 909 910 907
f 909 910 907
f 911 912 913
f 911 912 913
f 913 914 911
f 913 914 911
f 915 916 917
f 915 916 917
f 917 918 915
f 917 918 915
f 919 920 921
f 919 920 921
f 921 922 919
f 921 922 919
f 923 924 925
f 923 924 925
f 925 926 923
f 925 926 923
f 927 928 929
f 927 928 929
f 929 930 927
f 929 930 927
f 931 932 933
f 931 932 933
f 933 934 931
f 933 934 931
f 935 936 937
f 935 936 937
f 937 938 935
f 937 938 935
f 939 940 941
f 939 940 941
f 941 942 939
f 941 942 939
