v 0.19074662 0.217938945 0.10101179
v 0.189946011 0.218007728 0.101190008
v 0.190031752 0.218007788 0.101190187
v 0.190110937 0.218008801 0.10119281
v 0.190263644 0.218020186 0.101222195
v 0.190336868 0.218030438 0.101248778
v 0.190407619 0.218043849 0.101283588
v -0.164824888 0.218007788 0.101190187
v -0.165539786 0.217938945 0.10101179
v -0.165200755 0.218043849 0.101283588
v -0.0487961099 0.00102273538 0.0756979361
v 0.0126094893 -0.0104031172 0.0756535307
v 0.0740150884 0.00102273538 0.0756979361
v -0.0488002822 -0.0193155017 0.0754639879
v -0.135672614 -0.0193155017 0.0754639879
v -0.101234905 -0.0257020798 0.0750594512
v -0.135687694 -0.0257020798 0.0750594512
v -0.155920073 -0.0252517667 0.0750090256
v -0.135712907 -0.0295506921 0.0743700638
v -0.156038806 -0.0289842691 0.074341692
v -0.16607742 -0.0272850599 0.0742564574
v -0.156093284 -0.0307913031 0.072803475
v -0.166533574 -0.0289298501 0.0727789775
v -0.171064243 -0.0252149906 0.0727571025
v -0.166382596 -0.0292828288 0.0697940961
v -0.155826196 -0.0311975684 0.0697985068
v -0.135367379 -0.0318358168 0.0698000565
v -0.135641679 -0.0314117894 0.0728117004
v -0.10119956 -0.0314117894 0.0728117004
v -0.100988917 -0.0318358168 0.0698001161
v -0.0486738607 -0.0318358168 0.0698001757
v -0.101254217 -0.0295506921 0.0743700638
v 0.0126094893 -0.0314117298 0.0728117004
v 0.0126094893 -0.0318358168 0.0698002353
v -0.0488170311 -0.0295506921 0.0743700638
v 0.0738928989 -0.0318358168 0.0698001757
v -0.0488065407 -0.0257020798 0.0750594512
v 0.0126094893 -0.0257020798 0.0750594512
v 0.0126094893 -0.0295506921 0.0743700638
v 0.0740192607 -0.0193155017 0.0754639879
v 0.0740065053 -0.0314117894 0.0728117004
v 0.0740360096 -0.0295506921 0.0743700638
v 0.126418546 -0.0314117894 0.0728117004
v 0.126207933 -0.0318358168 0.0698001161
v 0.160586372 -0.0318358168 0.0698000565
v 0.126453862 -0.0257020798 0.0750594512
v 0.126473233 -0.0295506921 0.0743700638
v 0.16093193 -0.0295506921 0.0743700638
v 0.160860673 -0.0314117894 0.0728117004
v 0.181312248 -0.0307913031 0.072803475
v 0.181045219 -0.0311975684 0.0697985068
v 0.191601589 -0.0292828884 0.0697940961
v 0.160906717 -0.0257020798 0.0750594512
v 0.160891578 -0.0193155017 0.0754639879
v 0.181139067 -0.0252517667 0.0750090256
v 0.181257769 -0.0289842691 0.074341692
v 0.191296414 -0.0272850599 0.0742564574
v 0.191752598 -0.0289298501 0.0727789775
v 0.196283296 -0.0252149906 0.0727571025
v 0.196272537 -0.0254533496 0.0697854534
v 0.199075118 -0.0190708246 0.0697710887
v 0.190905944 -0.0239007678 0.0748576894
v 0.19538264 -0.0239185896 0.074194707
v 0.194018468 -0.0220753755 0.0746533051
v 0.191254035 -0.0183292832 0.0752136484
v 0.197851285 -0.0183503833 0.074236609
v 0.195353314 -0.0178414192 0.0748442188
v 0.181213424 -0.0190689173 0.075401403
v 0.181341633 -0.0103422012 0.0755855814
v 0.19634147 -0.0100413766 0.0749751702
v 0.191792056 -0.0101592746 0.0753816143
v 0.191971377 0.0010204704 0.075418748
v 0.199005917 -0.0190341081 0.0727568641
v 0.20036985 -0.010300776 0.0727577582
v 0.200476423 -0.0101573672 0.0697511211
v 0.200943515 0.00126496865 0.0697256103
v 0.199096158 -0.0101753082 0.0742998496
v 0.199511096 0.00101158931 0.0743021145
v 0.200824544 0.00107161119 0.0727392212
v 0.200824544 0.0150023494 0.0727082267
v 0.200943545 0.01517413 0.0696945563
v 0.200943545 0.0315480009 0.0696580783
v 0.196670875 0.00101719215 0.0750000253
v 0.196670875 0.0149481688 0.0749690309
v 0.199511096 0.0313653722 0.0742346421
v 0.200824544 0.031410791 0.0726717487
v 0.200824544 0.0499555245 0.0726305023
v 0.200943545 0.0500490442 0.069616951
v 0.200943574 0.0703397766 0.0695717707
v 0.200824544 0.114994861 0.0724859014
v 0.200943574 0.114940025 0.0694726482
v 0.200824544 0.137559637 0.0724357143
v 0.200943545 0.137459859 0.0694225803
v 0.200943545 0.158190116 0.0693765059
v 0.199511096 0.115012802 0.074048616
v 0.199511096 0.0499247685 0.0741933361
v 0.196670875 0.0499253646 0.0748913065
v 0.199511096 0.158370599 0.0739522353
v 0.200824544 0.158329293 0.0723895207
v 0.200824544 0.175850138 0.0723505989
v 0.200943545 0.175678536 0.0693377033
v 0.200943515 0.188473091 0.0693093315
v 0.191971377 0.0313659683 0.0753512755
v 0.196670875 0.18871282 0.0745826736
v 0.199511096 0.188724324 0.0738847628
v 0.200824544 0.188668415 0.0723221079
v 0.20036985 0.197564647 0.0722955838
v 0.200476423 0.19738768 0.0692896619
v 0.199075118 0.203236088 0.0692767873
v 0.19634147 0.19743751 0.0745138302
v 0.199096158 0.197520122 0.0738380328
v 0.197851285 0.202963576 0.0737445131
v 0.199005917 0.203319237 0.0722625032
v 0.196283236 0.206807181 0.0722411647
v 0.191971377 0.070283331 0.0752647892
v 0.191971377 0.0499257222 0.0753100291
v 0.18138437 0.049925901 0.0755194202
v 0.18138437 0.0313660875 0.0755606666
v 0.160881504 0.0313660875 0.0756304637
v 0.18138437 0.0149497185 0.0755971447
v 0.160881504 0.00102273538 0.0756979361
v 0.18138437 0.00102213933 0.0756281391
v 0.160884008 -0.0104031768 0.0756535307
v 0.126436457 -0.0104031768 0.0756535307
v 0.0740161613 -0.0104031172 0.0756535307
v -0.173856124 -0.0190708246 0.0697710887
v -0.171053514 -0.0254533496 0.0697854534
v -0.172632262 -0.0183503237 0.074236609
v -0.170134291 -0.0178414192 0.0748442188
v -0.171122476 -0.0100413766 0.0749751702
v -0.170163676 -0.0239185896 0.074194707
v -0.168799445 -0.0220753755 0.0746533051
v -0.166035041 -0.0183292832 0.0752136484
v -0.16568695 -0.0239007678 0.0748576894
v -0.166573033 -0.0101592746 0.0753816143
v -0.166752383 0.0010204704 0.075418748
v -0.15612261 -0.0103422012 0.0755855814
v -0.15599446 -0.0190689173 0.075401403
v -0.156165347 0.00102213933 0.0756281391
v -0.156165347 0.0149497185 0.0755971447
v -0.135662481 0.00102273538 0.0756979361
v -0.135662481 0.0313661471 0.0756304637
v -0.0487961099 0.0313661471 0.0756304637
v -0.135664985 -0.0104031172 0.0756535307
v -0.101217441 -0.0104031172 0.0756535307
v -0.0487971827 -0.0104031172 0.0756535307
v 0.0740150884 0.0313660875 0.0756304637
v 0.106655158 0.0576075688 0.0755721107
v 0.0740150884 0.0576075688 0.0755721107
v 0.0357796028 0.0576075688 0.0755721107
v 0.139432356 0.0576075688 0.0755721107
v -0.0105606243 0.0576075688 0.0755721107
v -0.0487961099 0.0576075688 0.0755721107
v 0.160881504 0.0576075688 0.0755721107
v 0.166518137 0.0576075092 0.075552918
v 0.166518137 0.0646870509 0.0755371824
v -0.0814361498 0.0576075688 0.0755721107
v -0.11421334 0.0576075688 0.0755721107
v -0.135662481 0.0576075688 0.0755721107
v 0.18138437 0.0702836886 0.0754741207
v 0.166518137 0.0702838078 0.075524725
v 0.166518137 0.0762799159 0.0755114332
v -0.156165347 0.049925901 0.0755194202
v -0.142755672 0.0576075092 0.0755479708
v -0.142755672 0.0632407442 0.0755354539
v 0.18138437 0.0920941606 0.0754256621
v 0.166518137 0.10871134 0.0754393116
v 0.18138437 0.115011908 0.0753747001
v 0.166518137 0.115011849 0.0754253045
v 0.191971377 0.115012027 0.075165309
v 0.18138437 0.137584195 0.075324513
v 0.166518137 0.152646765 0.0753416196
v 0.18138437 0.158358499 0.0752783194
v 0.166518137 0.158358023 0.0753289238
v 0.166518137 0.163175628 0.0753181949
v 0.191971377 0.158360407 0.0750689283
v 0.18138437 0.175882086 0.075239338
v 0.166518137 0.170542166 0.0753018036
v 0.191971377 0.188705847 0.0750014558
v 0.160881504 0.188701257 0.075280644
v 0.160881504 0.170542166 0.0753209963
v 0.136929795 0.170542166 0.0753209963
v 0.110463418 0.170542166 0.0753209963
v 0.0740150884 0.170542166 0.0753209963
v 0.18138437 0.18870239 0.075210847
v 0.181341633 0.197601363 0.0751231685
v 0.191792056 0.197500035 0.0749198571
v 0.191254035 0.202944145 0.0747216716
v 0.160884008 0.197635099 0.0751909986
v 0.181213424 0.203360841 0.0749068037
v 0.160891578 0.203499779 0.0749685541
v 0.126436457 0.197635159 0.0751909986
v 0.181139067 0.206857964 0.074492909
v 0.0740150884 0.188701257 0.075280644
v -0.0487961099 0.188701257 0.075280644
v -0.0487961099 0.170542166 0.0753209963
v -0.0852444097 0.170542166 0.0753209963
v -0.111710839 0.170542166 0.0753209963
v -0.135662481 0.188701257 0.075280644
v -0.135662481 0.170542166 0.0753209963
v -0.142755672 0.170542106 0.0752968565
v -0.156165347 0.175882146 0.075239338
v -0.142755672 0.16442059 0.0753104463
v -0.156165347 0.158358499 0.0752783194
v -0.142755672 0.158358082 0.0753239766
v -0.142755672 0.151170954 0.0753399506
v -0.156165347 0.137584195 0.075324513
v -0.142755672 0.115011849 0.0754203573
v -0.166752383 0.158360407 0.0750689283
v -0.156165347 0.115011908 0.0753747001
v -0.142755672 0.107083179 0.0754379407
v -0.166752383 0.115012027 0.075165309
v -0.156165347 0.0920941606 0.0754256621
v -0.142755672 0.0778293982 0.0755030289
v -0.156165347 0.0702836886 0.0754741207
v -0.142755672 0.0702838078 0.0755197778
v -0.166752383 0.070283331 0.0752647892
v -0.171451852 0.00101719215 0.0750000253
v -0.166752383 0.0313659683 0.0753512755
v -0.166752383 0.188705847 0.0750014558
v -0.156165347 0.0313660875 0.0755606666
v -0.156165347 0.188702449 0.075210847
v -0.15612261 0.197601363 0.0751231685
v -0.135664985 0.197635099 0.0751909986
v -0.101217441 0.197635159 0.0751909986
v -0.135672614 0.203499779 0.0749685541
v -0.166573033 0.197500035 0.0749198571
v -0.0487971827 0.197635099 0.0751909986
v 0.0126094893 0.197635159 0.0751909986
v -0.0488002822 0.203499779 0.0749685541
v 0.0740161613 0.197635099 0.0751909986
v 0.0740192607 0.203499779 0.0749685541
v 0.160906717 0.207112238 0.0745417848
v -0.135687694 0.207112238 0.0745417848
v 0.16093193 0.209289476 0.0738389865
v 0.0740360096 0.209289476 0.0738389865
v 0.181257769 0.208969638 0.0738125816
v -0.0488170311 0.209289476 0.0738389865
v 0.191296414 0.208010122 0.0737333074
v 0.181312278 0.20995383 0.0722682253
v 0.190905944 0.206095144 0.0743462816
v 0.194018468 0.205064759 0.074148275
v 0.195353314 0.202671155 0.074353911
v 0.19538264 0.206108794 0.0736832395
v 0.191752598 0.208903477 0.072250165
v 0.191601589 0.208989844 0.06926433
v 0.196272537 0.206832156 0.0692689791
v 0.181045249 0.210068628 0.069262065
v 0.160586372 0.210428223 0.0692613497
v 0.160860673 0.210304007 0.0722742453
v 0.126418546 0.210303947 0.0722742453
v 0.126207933 0.210428223 0.0692614689
v 0.0738928393 0.210428223 0.0692615286
v 0.0740065053 0.210303947 0.0722742453
v 0.0126094893 0.210303947 0.0722742453
v 0.0126094893 0.210428223 0.0692615286
v -0.0486738607 0.210428223 0.0692615286
v -0.0487874672 0.210304007 0.0722742453
v -0.10119956 0.210303947 0.0722742453
v -0.100988917 0.210428223 0.0692614689
v -0.135367379 0.210428223 0.0692613497
v -0.135712907 0.209289476 0.0738389865
v -0.135641679 0.210304007 0.0722742453
v -0.156093225 0.20995383 0.0722681656
v -0.155826256 0.210068628 0.069262065
v -0.166382596 0.208989844 0.06926433
v -0.155920073 0.206857964 0.074492909
v -0.156038806 0.208969638 0.0738125816
v -0.16607742 0.208010122 0.0737333074
v -0.166533574 0.208903477 0.072250165
v -0.171064302 0.206807181 0.0722411647
v -0.171053514 0.206832156 0.0692689791
v -0.173856124 0.203236088 0.0692767873
v -0.15599446 0.203360841 0.0749068037
v -0.166035041 0.202944145 0.0747216716
v -0.16568695 0.206095144 0.0743462816
v -0.171122476 0.19743751 0.0745138302
v -0.168799445 0.205064759 0.074148275
v -0.170134291 0.202671155 0.074353911
v -0.171451852 0.18871282 0.0745826736
v -0.170163676 0.206108794 0.0736832395
v -0.172632262 0.202963576 0.0737445131
v -0.173786923 0.203319237 0.0722625032
v -0.175150856 0.197564647 0.0722955838
v -0.175257429 0.19738768 0.0692896619
v -0.175724551 0.188473091 0.0693093315
v -0.173877165 0.197520122 0.0738380328
v -0.174292132 0.188724324 0.0738847628
v -0.175605521 0.188668415 0.0723221079
v -0.175605521 0.175850138 0.0723505989
v -0.175724551 0.175678536 0.0693377033
v -0.174292132 0.158370599 0.0739522353
v -0.175724551 0.158190116 0.0693765059
v -0.175605521 0.158329293 0.0723895207
v -0.175605521 0.137559578 0.0724357143
v -0.175724551 0.137459859 0.0694225803
v -0.175724551 0.114940025 0.0694726482
v -0.174292132 0.115012802 0.074048616
v -0.175605521 0.0920888558 0.0725368038
v -0.175724551 0.0920825973 0.0695234314
v -0.175724551 0.0703397766 0.0695717707
v -0.174292132 0.0702814236 0.0741480961
v -0.175605521 0.0702953115 0.0725852624
v -0.175605521 0.0499555245 0.0726305023
v -0.175724551 0.0500490442 0.069616951
v -0.175724551 0.0315480009 0.0696580783
v -0.174292132 0.0313653722 0.0742346421
v -0.175605521 0.031410791 0.0726717487
v -0.175724551 0.01517413 0.0696945563
v -0.175605521 0.015002409 0.0727082267
v -0.175724551 0.00126496865 0.0697256103
v -0.174292132 0.00101164891 0.0743021145
v -0.175605521 0.00107161119 0.0727392212
v -0.175150856 -0.010300776 0.0727577582
v -0.175257429 -0.0101573672 0.0697511211
v -0.173877165 -0.0101753082 0.0742998496
v -0.173786923 -0.0190341081 0.0727568641
v -0.164824888 0.218007788 0.101190187
v -0.164839789 0.218641028 0.101695932
v -0.165539786 0.217938945 0.10101179
v 0.19074662 0.217938945 0.10101179
v 0.190046623 0.218641028 0.101695932
v 0.189946011 0.218007728 0.101190008
v 0.166518137 0.17051892 0.0648718253
v 0.166518137 0.170542166 0.0753018036
v 0.160881504 0.170542166 0.0753209963
v 0.136929795 0.170542166 0.0753209963
v 0.110463418 0.170542166 0.0753209963
v 0.0740150884 0.170542166 0.0753209963
v -0.0487961099 0.170542166 0.0753209963
v -0.0852444097 0.170542166 0.0753209963
v -0.111710839 0.170542166 0.0753209963
v -0.135662481 0.170542166 0.0753209963
v -0.142755672 0.170542106 0.0752968565
v -0.142755672 0.17051892 0.0648718253
v -0.175693318 0.233962223 0.141954705
v -0.17483978 0.233777925 0.14205049
v -0.17483978 0.269251227 0.233961627
v 0.200046644 0.269251227 0.233961567
v 0.200900182 0.269452065 0.233908758
v 0.200900182 0.289563 0.286016017
v -0.175693318 0.269452065 0.233908758
v 0.200046644 0.289352775 0.286044508
v -0.17483978 0.289352775 0.286044568
v 0.200507209 0.290789306 0.289193362
v -0.175693318 0.289563 0.286016017
v 0.199670538 0.29052645 0.289085537
v -0.174463674 0.29052645 0.289085537
v 0.199413225 0.291890204 0.292045802
v -0.175300345 0.290789306 0.289193362
v 0.198641762 0.291561693 0.291767925
v -0.173434898 0.291561723 0.291767925
v 0.197695896 0.292862266 0.294564337
v -0.174206361 0.291890204 0.292045802
v 0.197026059 0.292476237 0.294137448
v -0.171819136 0.292476267 0.294137448
v 0.195442632 0.293673575 0.296666473
v -0.172489032 0.292862266 0.294564396
v 0.194905385 0.293239832 0.296115905
v -0.169698521 0.293239832 0.296115845
v 0.192742988 0.294291943 0.298268646
v -0.170235738 0.293673575 0.296666473
v 0.192365482 0.293821573 0.297623247
v -0.167158589 0.293821573 0.297623187
v 0.189685509 0.294685841 0.299289256
v -0.167536125 0.294291914 0.298268586
v 0.189490274 0.294192016 0.298583001
v -0.16428338 0.294192016 0.298583001
v 0.186279729 0.294827342 0.299655825
v -0.164478645 0.294685841 0.299289256
v 0.186230645 0.294327438 0.298933834
v -0.161023781 0.294327438 0.298933834
v 0.094014205 0.294827342 0.299655825
v -0.161072835 0.294827342 0.299655825
v 0.0939911678 0.294327438 0.298933834
v -0.0687843487 0.294327438 0.298933834
v -0.0688073561 0.294827342 0.299655825
v 0.189946011 0.218007728 0.101190008
v 0.190046623 0.218641028 0.101695932
v 0.0939911976 0.218641028 0.101695932
v 0.0939911976 0.218007728 0.101190008
v -0.0687842891 0.218641028 0.101695932
v -0.0687842891 0.218007728 0.101190008
v -0.164839789 0.218641028 0.101695932
v -0.164739117 0.218007728 0.101190008
v -0.164824888 0.218007788 0.101190187
v -0.164739117 0.218007728 0.101190008
v -0.164839789 0.218641028 0.101695932
v -0.142755672 0.057584323 0.0651229396
v -0.142755672 0.0576075092 0.0755479708
v -0.135662481 0.0576075688 0.0755721107
v -0.11421334 0.0576075688 0.0755721107
v -0.0814361498 0.0576075688 0.0755721107
v -0.0487961099 0.0576075688 0.0755721107
v -0.0105606243 0.0576075688 0.0755721107
v 0.0357796028 0.0576075688 0.0755721107
v 0.0740150884 0.0576075688 0.0755721107
v 0.106655158 0.0576075688 0.0755721107
v 0.139432356 0.0576075688 0.0755721107
v 0.160881504 0.0576075688 0.0755721107
v 0.166518137 0.0576075092 0.075552918
v 0.166518137 0.057584323 0.0651229396
v 0.189946011 0.218007728 0.101190008
v 0.0939911976 0.218007728 0.101190008
v 0.0939911976 0.208701715 0.0770782009
v -0.0687842891 0.208701715 0.0770782009
v 0.186230645 0.208701715 0.0770782009
v -0.0687842891 0.218007728 0.101190008
v -0.161023781 0.208701715 0.0770782009
v 0.189490274 0.208837137 0.0774290934
v -0.164739117 0.218007728 0.101190008
v 0.190031752 0.218007788 0.101190187
v 0.192365482 0.209207579 0.0783888474
v -0.164824888 0.218007788 0.101190187
v 0.190110937 0.218008801 0.10119281
v 0.194905385 0.209789321 0.0798961893
v 0.197026029 0.210552916 0.0818745866
v 0.190263644 0.218020186 0.101222195
v 0.198641792 0.21146743 0.0842441693
v 0.190336868 0.218030438 0.101248778
v 0.199670538 0.212502703 0.0869264975
v 0.190407619 0.218043849 0.101283588
v 0.200046644 0.213676378 0.0899675265
v 0.19074662 0.217938945 0.10101179
v 0.19074662 0.233777925 0.14205049
v 0.200046644 0.233777925 0.14205049
v 0.19074662 0.269251227 0.233961567
v 0.200046644 0.269251227 0.233961567
v 0.19074662 0.290630609 0.289355367
v 0.200046644 0.289352775 0.286044508
v 0.199670538 0.29052645 0.289085537
v 0.190745458 0.290712237 0.289566904
v 0.189779505 0.290978819 0.290257663
v 0.198641762 0.291561693 0.291767925
v 0.19072248 0.290792435 0.289774686
v 0.197026059 0.292476237 0.294137448
v 0.190621123 0.290870786 0.2899777
v 0.194905385 0.293239832 0.296115905
v 0.190446571 0.290933639 0.290140539
v 0.192365482 0.293821573 0.297623247
v 0.190228954 0.290970117 0.290235132
v 0.189490274 0.294192016 0.298583001
v 0.190006241 0.290978402 0.29025653
v 0.186230645 0.294327438 0.298933834
v 0.0939911678 0.290978819 0.290257663
v 0.0939911678 0.294327438 0.298933834
v -0.0687843487 0.290978819 0.290257663
v -0.0687843487 0.294327438 0.298933834
v -0.164572641 0.290978819 0.290257663
v -0.161023781 0.294327438 0.298933834
v -0.16428338 0.294192016 0.298583001
v -0.164799377 0.290978402 0.29025653
v -0.165539786 0.290630609 0.289355367
v -0.167158589 0.293821573 0.297623187
v -0.16502206 0.290970117 0.290235072
v -0.169698521 0.293239832 0.296115845
v -0.165239677 0.290933639 0.290140539
v -0.171819136 0.292476267 0.294137448
v -0.165414259 0.290870786 0.2899777
v -0.173434898 0.291561723 0.291767925
v -0.165515587 0.290792435 0.289774686
v -0.174463674 0.29052645 0.289085537
v -0.165538594 0.290712237 0.289566904
v -0.17483978 0.289352775 0.286044568
v -0.165539786 0.269251227 0.233961627
v -0.17483978 0.269251227 0.233961627
v -0.165539786 0.233777925 0.14205049
v -0.17483978 0.233777925 0.14205049
v -0.165539786 0.217938945 0.10101179
v -0.17483978 0.213676378 0.0899675265
v -0.174463674 0.212502703 0.0869265571
v -0.165200755 0.218043849 0.101283588
v -0.173434898 0.21146743 0.0842441693
v -0.165130004 0.218030438 0.101248778
v -0.171819195 0.210552916 0.0818745866
v -0.16505675 0.218020186 0.101222195
v -0.169698521 0.209789321 0.0798961893
v -0.16498135 0.218012974 0.101203538
v -0.167158648 0.209207579 0.0783888474
v -0.16428338 0.208837137 0.0774290934
v 0.094014205 0.208586976 0.0762075558
v 0.0939911976 0.208701715 0.0770782009
v -0.0687842891 0.208701715 0.0770782009
v 0.186279729 0.208586976 0.0762075558
v -0.0688073561 0.208586976 0.0762075558
v 0.186230645 0.208701715 0.0770782009
v -0.161023781 0.208701715 0.0770782009
v 0.189685509 0.208728477 0.076574184
v -0.161072835 0.208586976 0.0762075558
v 0.189490274 0.208837137 0.0774290934
v -0.16428338 0.208837137 0.0774290934
v 0.192742988 0.209122345 0.0775947943
v -0.164478645 0.208728477 0.076574184
v 0.192365482 0.209207579 0.0783888474
v -0.167158648 0.209207579 0.0783888474
v 0.195442632 0.209740743 0.0791969672
v -0.167536125 0.209122345 0.0775947943
v 0.194905385 0.209789321 0.0798961893
v -0.169698521 0.209789321 0.0798961893
v 0.197695896 0.210552022 0.0812990442
v -0.170235738 0.209740683 0.0791969076
v 0.197026029 0.210552916 0.0818745866
v -0.171819195 0.210552916 0.0818745866
v 0.199413255 0.211524114 0.0838176385
v -0.172489032 0.210552022 0.0812990442
v 0.198641792 0.21146743 0.0842441693
v -0.173434898 0.21146743 0.0842441693
v 0.200507239 0.212624952 0.0866700783
v -0.174206361 0.211524114 0.0838176385
v 0.199670538 0.212502703 0.0869264975
v -0.174463674 0.212502703 0.0869265571
v 0.200900182 0.213851318 0.0898474231
v -0.175300345 0.212625012 0.0866700783
v 0.200046644 0.213676378 0.0899675265
v -0.17483978 0.213676378 0.0899675265
v 0.200900182 0.233962223 0.141954705
v -0.175693318 0.213851318 0.0898474231
v 0.200046644 0.233777925 0.14205049
v 0.166518137 0.163175628 0.0753181949
v 0.166518137 0.170542166 0.0753018036
v 0.166518137 0.17051892 0.0648718253
v 0.166518137 0.158358023 0.0753289238
v 0.166518137 0.152646765 0.0753416196
v 0.166518137 0.115011849 0.0754253045
v 0.166518137 0.10871134 0.0754393116
v 0.166518137 0.0762799159 0.0755114332
v 0.166518137 0.0702838078 0.075524725
v 0.166518137 0.0646870509 0.0755371824
v 0.166518137 0.057584323 0.0651229396
v 0.166518137 0.0576075092 0.075552918
v -0.142755672 0.17051892 0.0648718253
v -0.142755672 0.170542106 0.0752968565
v -0.142755672 0.16442059 0.0753104463
v -0.142755672 0.158358082 0.0753239766
v -0.142755672 0.151170954 0.0753399506
v -0.142755672 0.115011849 0.0754203573
v -0.142755672 0.107083179 0.0754379407
v -0.142755672 0.0778293982 0.0755030289
v -0.142755672 0.0702838078 0.0755197778
v -0.142755672 0.0632407442 0.0755354539
v -0.142755672 0.057584323 0.0651229396
v -0.142755672 0.0576075092 0.0755479708
v 0.19074662 0.233777925 0.14205049
v 0.190046623 0.234159186 0.141903326
v 0.190046623 0.218641028 0.101695932
v 0.19074662 0.217938945 0.10101179
v 0.19074662 0.269251227 0.233961567
v 0.190046623 0.269632488 0.233814463
v 0.19074662 0.290630609 0.289355367
v 0.190046623 0.291108042 0.28945747
v -0.165539786 0.269251227 0.233961627
v -0.164839789 0.269632488 0.233814463
v -0.164839789 0.291108042 0.289457411
v -0.165539786 0.290630609 0.289355367
v -0.165539786 0.233777925 0.14205049
v -0.164839789 0.234159186 0.141903326
v -0.165539786 0.217938945 0.10101179
v -0.164839789 0.218641028 0.101695932
v 0.0939911678 0.290978819 0.290257663
v 0.0939911678 0.291108042 0.289457411
v 0.190046623 0.291108042 0.28945747
v 0.189779505 0.290978819 0.290257663
v -0.0687843487 0.290978819 0.290257663
v -0.0687843487 0.291108042 0.289457411
v -0.164572641 0.290978819 0.290257663
v -0.164839789 0.291108042 0.289457411
v 0.189779505 0.290978819 0.290257663
v 0.190046623 0.291108042 0.28945747
v 0.19074662 0.290630609 0.289355367
v -0.165539786 0.290630609 0.289355367
v -0.164839789 0.291108042 0.289457411
v -0.164572641 0.290978819 0.290257663
f 1 2 3
f 1 2 3
f 1 3 4
f 1 3 4
f 1 4 5
f 1 4 5
f 1 5 6
f 1 5 6
f 1 6 7
f 1 6 7
f 8 9 10
f 8 9 10
f 11 12 13
f 14 15 16
f 14 15 16
f 15 17 16
f 15 17 16
f 18 17 15
f 18 17 15
f 16 17 19
f 19 17 18
f 16 17 19
f 19 17 18
f 18 20 19
f 18 20 19
f 21 20 18
f 21 20 18
f 19 20 22
f 22 20 21
f 19 20 22
f 22 20 21
f 21 23 22
f 21 23 22
f 24 23 21
f 24 23 21
f 25 23 24
f 25 23 24
f 22 23 25
f 22 23 25
f 25 26 22
f 25 26 22
f 22 26 27
f 22 26 27
f 27 28 22
f 22 28 19
f 27 28 22
f 22 28 19
f 29 28 27
f 29 28 27
f 19 28 29
f 19 28 29
f 27 30 29
f 27 30 29
f 31 29 30
f 31 29 30
f 29 32 19
f 29 32 19
f 32 16 19
f 32 16 19
f 31 33 29
f 31 33 29
f 31 34 33
f 31 34 33
f 35 32 29
f 35 32 29
f 32 35 16
f 32 35 16
f 35 29 33
f 35 29 33
f 33 34 36
f 33 34 36
f 35 37 16
f 35 37 16
f 14 16 37
f 14 16 37
f 38 37 35
f 38 37 35
f 14 37 38
f 14 37 38
f 38 35 39
f 35 33 39
f 38 35 39
f 35 33 39
f 40 14 38
f 40 14 38
f 40 12 14
f 40 12 14
f 39 33 41
f 39 33 41
f 36 41 33
f 36 41 33
f 38 39 42
f 41 42 39
f 38 39 42
f 41 42 39
f 43 41 36
f 43 41 36
f 42 41 43
f 42 41 43
f 36 44 43
f 36 44 43
f 43 44 45
f 43 44 45
f 46 38 42
f 46 38 42
f 46 40 38
f 46 40 38
f 43 47 42
f 43 47 42
f 46 42 47
f 46 42 47
f 48 47 43
f 46 47 48
f 48 47 43
f 46 47 48
f 45 49 43
f 45 49 43
f 43 49 48
f 43 49 48
f 50 49 45
f 50 49 45
f 48 49 50
f 48 49 50
f 45 51 50
f 45 51 50
f 50 51 52
f 50 51 52
f 48 53 46
f 48 53 46
f 46 53 54
f 46 53 54
f 46 54 40
f 46 54 40
f 55 53 48
f 55 53 48
f 54 53 55
f 54 53 55
f 50 56 48
f 50 56 48
f 48 56 55
f 48 56 55
f 57 56 50
f 57 56 50
f 55 56 57
f 55 56 57
f 50 58 57
f 50 58 57
f 52 58 50
f 52 58 50
f 59 58 52
f 59 58 52
f 57 58 59
f 57 58 59
f 52 60 59
f 52 60 59
f 59 60 61
f 59 60 61
f 57 62 55
f 57 62 55
f 59 63 57
f 59 63 57
f 64 62 57
f 64 62 57
f 57 63 64
f 57 63 64
f 65 62 64
f 65 62 64
f 55 62 65
f 55 62 65
f 64 63 66
f 66 63 59
f 64 63 66
f 66 63 59
f 64 67 65
f 66 67 64
f 64 67 65
f 66 67 64
f 65 68 55
f 65 68 55
f 55 68 54
f 55 68 54
f 69 68 65
f 69 68 65
f 54 68 69
f 54 68 69
f 65 67 70
f 70 67 66
f 65 67 70
f 70 67 66
f 65 71 69
f 70 71 65
f 65 71 69
f 70 71 65
f 69 71 72
f 72 71 70
f 72 71 70
f 69 71 72
f 59 73 66
f 59 73 66
f 61 73 59
f 61 73 59
f 74 73 61
f 74 73 61
f 66 73 74
f 66 73 74
f 61 75 74
f 61 75 74
f 74 75 76
f 74 75 76
f 74 77 66
f 74 77 66
f 66 77 70
f 66 77 70
f 78 77 74
f 78 77 74
f 70 77 78
f 70 77 78
f 76 79 74
f 76 79 74
f 74 79 78
f 74 79 78
f 80 79 76
f 80 79 76
f 80 78 79
f 80 78 79
f 76 81 80
f 76 81 80
f 80 81 82
f 80 81 82
f 78 83 70
f 78 83 70
f 70 83 72
f 70 83 72
f 84 83 78
f 84 83 78
f 84 72 83
f 84 72 83
f 85 84 78
f 85 84 78
f 80 85 78
f 80 85 78
f 80 82 86
f 80 86 85
f 80 86 85
f 80 82 86
f 82 87 86
f 82 87 86
f 85 86 87
f 85 86 87
f 82 88 87
f 82 88 87
f 87 88 89
f 87 88 89
f 87 89 90
f 87 89 90
f 89 91 90
f 89 91 90
f 91 92 90
f 91 92 90
f 91 93 92
f 91 93 92
f 94 92 93
f 94 92 93
f 87 90 95
f 95 90 92
f 87 90 95
f 95 90 92
f 95 96 87
f 95 96 87
f 87 96 85
f 87 96 85
f 85 96 97
f 85 96 97
f 97 96 95
f 97 96 95
f 85 97 84
f 85 97 84
f 95 92 98
f 95 92 98
f 97 95 98
f 97 95 98
f 94 99 92
f 94 99 92
f 92 99 98
f 92 99 98
f 94 100 99
f 94 100 99
f 98 99 100
f 98 99 100
f 94 101 100
f 94 101 100
f 100 101 102
f 100 101 102
f 84 97 103
f 84 97 103
f 84 103 72
f 84 103 72
f 104 97 98
f 104 97 98
f 98 100 105
f 104 98 105
f 98 100 105
f 104 98 105
f 102 106 100
f 102 106 100
f 100 106 105
f 100 106 105
f 107 106 102
f 107 106 102
f 105 106 107
f 105 106 107
f 102 108 107
f 102 108 107
f 107 108 109
f 107 108 109
f 110 104 105
f 110 104 105
f 105 111 110
f 105 111 110
f 107 111 105
f 107 111 105
f 110 111 112
f 110 111 112
f 112 111 107
f 112 111 107
f 109 113 107
f 107 113 112
f 107 113 112
f 109 113 107
f 112 113 114
f 112 113 114
f 114 113 109
f 114 113 109
f 97 104 115
f 97 104 115
f 97 115 116
f 97 115 116
f 117 116 115
f 117 116 115
f 97 116 103
f 97 116 103
f 103 116 117
f 103 116 117
f 117 118 103
f 117 118 103
f 119 118 117
f 119 118 117
f 103 118 120
f 103 118 120
f 120 118 119
f 120 118 119
f 103 120 72
f 103 120 72
f 120 119 121
f 120 119 121
f 120 122 72
f 120 122 72
f 120 121 122
f 120 121 122
f 72 122 69
f 72 122 69
f 69 122 121
f 69 122 121
f 13 121 119
f 13 121 119
f 121 123 69
f 121 123 69
f 69 123 54
f 69 123 54
f 124 123 121
f 124 123 121
f 124 54 123
f 124 54 123
f 13 124 121
f 13 124 121
f 124 40 54
f 124 40 54
f 13 125 124
f 124 125 40
f 124 125 40
f 13 125 124
f 40 125 12
f 40 125 12
f 12 125 13
f 12 125 13
f 126 127 24
f 126 127 24
f 24 127 25
f 24 127 25
f 128 129 130
f 128 129 130
f 24 131 128
f 24 131 128
f 132 129 128
f 132 129 128
f 128 131 132
f 128 131 132
f 133 129 132
f 133 129 132
f 130 129 133
f 130 129 133
f 132 131 21
f 21 131 24
f 132 131 21
f 21 131 24
f 132 134 133
f 21 134 132
f 132 134 133
f 21 134 132
f 133 135 130
f 133 135 130
f 130 135 136
f 130 135 136
f 137 135 133
f 137 135 133
f 136 135 137
f 136 135 137
f 133 134 18
f 18 134 21
f 133 134 18
f 18 134 21
f 133 138 137
f 18 138 133
f 133 138 137
f 18 138 133
f 137 139 136
f 137 139 136
f 136 139 140
f 136 139 140
f 140 139 141
f 140 139 141
f 141 139 137
f 141 139 137
f 142 140 141
f 142 140 141
f 15 138 18
f 15 138 18
f 137 138 15
f 137 138 15
f 142 141 11
f 142 141 11
f 11 143 142
f 11 143 142
f 143 11 13
f 143 11 13
f 15 144 137
f 137 144 141
f 137 144 141
f 15 144 137
f 145 141 144
f 145 141 144
f 145 144 15
f 145 144 15
f 145 11 141
f 145 11 141
f 145 146 11
f 145 146 11
f 14 146 145
f 14 145 15
f 14 146 145
f 14 145 15
f 11 146 12
f 11 146 12
f 12 146 14
f 12 146 14
f 11 12 13
f 119 147 13
f 119 147 13
f 148 149 147
f 148 149 147
f 150 147 149
f 150 147 149
f 151 148 147
f 151 148 147
f 151 147 119
f 151 147 119
f 150 143 147
f 150 143 147
f 13 147 143
f 13 147 143
f 150 152 143
f 150 152 143
f 152 153 143
f 152 153 143
f 151 119 154
f 151 119 154
f 154 119 117
f 154 119 117
f 155 154 117
f 155 154 117
f 156 155 117
f 156 155 117
f 142 143 153
f 142 143 153
f 142 153 157
f 142 153 157
f 158 142 157
f 158 142 157
f 158 159 142
f 158 159 142
f 156 117 160
f 156 117 160
f 156 160 161
f 156 160 161
f 160 162 161
f 160 162 161
f 163 142 159
f 163 142 159
f 163 159 164
f 163 159 164
f 165 163 164
f 165 163 164
f 160 166 162
f 160 166 162
f 166 167 162
f 166 167 162
f 166 160 115
f 166 160 115
f 115 160 117
f 115 160 117
f 166 168 167
f 166 168 167
f 168 169 167
f 168 169 167
f 170 166 115
f 170 166 115
f 170 168 166
f 170 168 166
f 169 168 171
f 169 168 171
f 171 168 170
f 171 168 170
f 172 169 171
f 172 169 171
f 172 171 173
f 172 171 173
f 172 173 174
f 172 173 174
f 175 174 173
f 175 174 173
f 171 170 176
f 171 170 176
f 171 176 173
f 171 176 173
f 175 173 177
f 175 173 177
f 177 173 176
f 177 173 176
f 175 177 178
f 175 177 178
f 104 176 170
f 104 176 170
f 104 170 115
f 104 170 115
f 104 179 176
f 104 179 176
f 179 177 176
f 179 177 176
f 177 180 178
f 177 180 178
f 180 181 178
f 180 181 178
f 182 181 180
f 182 181 180
f 182 180 183
f 182 180 183
f 180 184 183
f 180 184 183
f 179 185 177
f 177 185 180
f 177 185 180
f 179 185 177
f 180 185 186
f 186 185 179
f 186 185 179
f 180 185 186
f 179 187 186
f 179 187 186
f 110 187 179
f 110 187 179
f 179 104 110
f 179 104 110
f 186 187 188
f 188 187 110
f 186 187 188
f 188 187 110
f 186 189 180
f 186 189 180
f 188 190 186
f 188 190 186
f 191 189 186
f 191 189 186
f 186 190 191
f 186 190 191
f 192 189 191
f 192 189 191
f 192 180 189
f 192 180 189
f 191 190 193
f 191 190 193
f 193 190 188
f 193 190 188
f 192 194 180
f 192 194 180
f 180 194 184
f 180 194 184
f 184 194 195
f 184 194 195
f 195 196 184
f 195 196 184
f 197 196 195
f 197 196 195
f 198 197 195
f 198 197 195
f 198 195 199
f 198 195 199
f 198 199 200
f 198 199 200
f 201 200 199
f 201 200 199
f 201 199 202
f 201 199 202
f 201 202 203
f 201 202 203
f 202 204 203
f 202 204 203
f 204 205 203
f 204 205 203
f 206 205 204
f 206 205 204
f 206 204 207
f 206 204 207
f 208 206 207
f 208 206 207
f 209 204 202
f 209 204 202
f 207 204 209
f 207 204 209
f 208 207 210
f 208 207 210
f 211 208 210
f 211 208 210
f 207 212 210
f 207 209 212
f 207 212 210
f 207 209 212
f 211 210 213
f 211 210 213
f 213 210 212
f 213 210 212
f 214 211 213
f 214 211 213
f 214 213 215
f 214 213 215
f 214 215 216
f 214 215 216
f 165 216 215
f 165 216 215
f 165 215 163
f 165 215 163
f 213 217 215
f 213 217 215
f 163 215 217
f 163 215 217
f 213 212 217
f 213 212 217
f 218 217 212
f 218 217 212
f 218 212 209
f 218 212 209
f 218 219 217
f 218 219 217
f 163 217 219
f 163 217 219
f 218 209 220
f 218 209 220
f 209 202 220
f 209 202 220
f 163 219 221
f 163 219 221
f 163 221 142
f 163 221 142
f 140 221 219
f 140 221 219
f 142 221 140
f 142 221 140
f 218 136 219
f 136 140 219
f 218 136 219
f 136 140 219
f 202 222 220
f 202 222 220
f 199 222 202
f 199 222 202
f 220 222 223
f 223 222 199
f 223 222 199
f 220 222 223
f 199 224 223
f 199 224 223
f 225 224 199
f 225 224 199
f 195 225 199
f 195 225 199
f 223 224 226
f 225 226 224
f 223 224 226
f 225 226 224
f 223 227 220
f 223 227 220
f 195 228 225
f 195 228 225
f 229 228 195
f 229 228 195
f 225 228 230
f 225 228 230
f 230 228 229
f 230 228 229
f 225 230 226
f 225 230 226
f 194 229 195
f 194 229 195
f 194 231 229
f 194 231 229
f 192 231 194
f 192 231 194
f 229 231 232
f 232 231 192
f 229 231 232
f 232 231 192
f 230 229 232
f 230 229 232
f 232 192 191
f 232 192 191
f 230 232 233
f 232 191 233
f 230 232 233
f 232 191 233
f 226 230 233
f 226 230 233
f 193 233 191
f 193 233 191
f 226 233 234
f 226 233 234
f 235 233 193
f 235 233 193
f 236 234 233
f 236 233 235
f 236 233 235
f 236 234 233
f 193 237 235
f 193 237 235
f 236 238 234
f 236 238 234
f 239 237 193
f 239 237 193
f 235 237 240
f 240 237 239
f 235 237 240
f 240 237 239
f 193 241 239
f 193 241 239
f 188 241 193
f 188 241 193
f 239 241 242
f 242 241 188
f 239 241 242
f 242 241 188
f 188 243 242
f 188 243 242
f 110 243 188
f 110 243 188
f 242 243 112
f 112 243 110
f 242 243 112
f 112 243 110
f 242 244 239
f 112 244 242
f 242 244 239
f 112 244 242
f 239 244 114
f 114 244 112
f 239 244 114
f 114 244 112
f 114 245 239
f 114 245 239
f 239 245 240
f 239 245 240
f 246 245 114
f 246 245 114
f 240 245 246
f 240 245 246
f 114 247 246
f 114 247 246
f 246 248 240
f 246 248 240
f 109 247 114
f 109 247 114
f 240 248 249
f 240 248 249
f 249 250 240
f 249 250 240
f 240 250 235
f 240 250 235
f 251 250 249
f 251 250 249
f 251 235 250
f 251 235 250
f 249 252 251
f 249 252 251
f 251 236 235
f 251 236 235
f 251 252 253
f 251 252 253
f 251 254 236
f 251 254 236
f 253 254 251
f 253 254 251
f 236 254 255
f 255 254 253
f 236 254 255
f 255 254 253
f 255 253 256
f 255 253 256
f 236 255 238
f 236 255 238
f 255 256 257
f 255 256 257
f 255 257 258
f 255 257 258
f 255 258 238
f 255 258 238
f 259 258 257
f 259 258 257
f 238 258 259
f 238 258 259
f 257 260 259
f 257 260 259
f 259 260 261
f 259 260 261
f 238 259 262
f 238 259 262
f 238 262 234
f 238 262 234
f 259 263 262
f 261 263 259
f 259 263 262
f 261 263 259
f 264 263 261
f 264 263 261
f 262 263 264
f 262 263 264
f 261 265 264
f 261 265 264
f 264 265 266
f 264 265 266
f 267 234 262
f 267 234 262
f 226 234 267
f 226 234 267
f 264 268 262
f 264 268 262
f 262 268 267
f 262 268 267
f 269 268 264
f 269 268 264
f 267 268 269
f 267 268 269
f 266 270 264
f 266 270 264
f 264 270 269
f 264 270 269
f 271 270 266
f 271 270 266
f 269 270 271
f 269 270 271
f 266 272 271
f 266 272 271
f 271 272 273
f 271 272 273
f 267 274 226
f 267 274 226
f 226 274 223
f 226 274 223
f 223 274 275
f 223 274 275
f 275 274 267
f 275 274 267
f 275 227 223
f 275 227 223
f 267 276 275
f 267 276 275
f 269 276 267
f 269 276 267
f 277 227 275
f 277 227 275
f 220 227 277
f 220 227 277
f 275 276 278
f 278 276 269
f 275 276 278
f 278 276 269
f 275 279 277
f 278 279 275
f 275 279 277
f 278 279 275
f 277 280 220
f 277 280 220
f 218 220 280
f 218 220 280
f 269 281 278
f 269 281 278
f 271 281 269
f 271 281 269
f 282 279 278
f 282 279 278
f 278 281 282
f 278 281 282
f 277 279 282
f 277 279 282
f 282 281 271
f 282 281 271
f 271 283 282
f 271 283 282
f 273 283 271
f 273 283 271
f 284 283 273
f 284 283 273
f 282 283 284
f 282 283 284
f 273 285 284
f 273 285 284
f 284 285 286
f 284 285 286
f 282 287 277
f 284 287 282
f 282 287 277
f 284 287 282
f 277 287 288
f 277 287 288
f 288 287 284
f 288 287 284
f 288 280 277
f 288 280 277
f 286 289 284
f 284 289 288
f 284 289 288
f 286 289 284
f 290 289 286
f 290 289 286
f 290 288 289
f 290 288 289
f 286 291 290
f 286 291 290
f 292 280 288
f 292 280 288
f 290 292 288
f 290 292 288
f 292 218 280
f 292 218 280
f 290 291 293
f 290 291 293
f 290 294 292
f 290 294 292
f 290 293 294
f 290 293 294
f 293 295 294
f 293 295 294
f 295 292 294
f 295 292 294
f 293 296 295
f 293 296 295
f 295 296 297
f 295 296 297
f 292 298 218
f 295 298 292
f 292 298 218
f 295 298 292
f 299 295 297
f 299 295 297
f 295 299 298
f 295 299 298
f 299 297 300
f 299 297 300
f 301 299 300
f 301 299 300
f 298 302 218
f 298 302 218
f 299 302 298
f 299 302 298
f 301 303 299
f 299 303 302
f 299 303 302
f 301 303 299
f 301 304 303
f 301 304 303
f 302 303 304
f 302 303 304
f 301 305 304
f 301 305 304
f 304 305 306
f 304 305 306
f 302 307 218
f 302 304 307
f 302 307 218
f 302 304 307
f 306 308 304
f 306 308 304
f 304 308 307
f 304 308 307
f 308 306 309
f 308 306 309
f 309 310 308
f 309 310 308
f 307 308 310
f 307 308 310
f 310 309 311
f 310 309 311
f 307 312 218
f 307 310 312
f 307 312 218
f 307 310 312
f 130 218 312
f 130 218 312
f 136 218 130
f 136 218 130
f 310 313 312
f 310 313 312
f 311 313 310
f 311 313 310
f 314 313 311
f 314 313 311
f 312 313 314
f 312 313 314
f 311 315 314
f 311 315 314
f 314 315 126
f 314 315 126
f 312 316 130
f 314 316 312
f 312 316 130
f 314 316 312
f 130 316 128
f 128 316 314
f 130 316 128
f 128 316 314
f 126 317 314
f 314 317 128
f 314 317 128
f 126 317 314
f 24 317 126
f 24 317 126
f 128 317 24
f 128 317 24
f 318 319 320
f 318 319 320
f 321 322 323
f 321 322 323
f 324 325 326
f 324 325 326
f 324 326 327
f 324 326 327
f 324 327 328
f 324 327 328
f 324 328 329
f 324 328 329
f 324 329 330
f 324 329 330
f 324 330 331
f 324 330 331
f 324 331 332
f 324 331 332
f 324 332 333
f 324 332 333
f 324 333 334
f 324 333 334
f 324 334 335
f 324 334 335
f 336 337 338
f 336 337 338
f 339 340 341
f 339 340 341
f 338 342 336
f 338 342 336
f 341 343 339
f 341 343 339
f 342 338 344
f 342 338 344
f 343 341 345
f 343 341 345
f 344 346 342
f 344 346 342
f 345 347 343
f 345 347 343
f 346 344 348
f 346 344 348
f 347 345 349
f 347 345 349
f 348 350 346
f 348 350 346
f 349 351 347
f 349 351 347
f 350 348 352
f 350 348 352
f 351 349 353
f 351 349 353
f 352 354 350
f 352 354 350
f 353 355 351
f 353 355 351
f 354 352 356
f 354 352 356
f 355 353 357
f 355 353 357
f 356 358 354
f 356 358 354
f 357 359 355
f 357 359 355
f 358 356 360
f 358 356 360
f 359 357 361
f 359 357 361
f 360 362 358
f 360 362 358
f 361 363 359
f 361 363 359
f 362 360 364
f 362 360 364
f 363 361 365
f 363 361 365
f 364 366 362
f 364 366 362
f 365 367 363
f 365 367 363
f 366 364 368
f 366 364 368
f 367 365 369
f 367 365 369
f 368 370 366
f 368 370 366
f 369 371 367
f 369 371 367
f 370 368 372
f 370 368 372
f 371 369 373
f 371 369 373
f 372 374 370
f 372 374 370
f 373 375 371
f 373 375 371
f 374 372 376
f 374 372 376
f 375 373 377
f 375 373 377
f 376 377 374
f 376 377 374
f 377 376 375
f 377 376 375
f 378 379 380
f 378 379 380
f 380 381 378
f 380 381 378
f 381 380 382
f 381 380 382
f 382 383 381
f 382 383 381
f 383 382 384
f 383 382 384
f 384 385 383
f 384 385 383
f 386 387 388
f 386 387 388
f 389 390 391
f 389 390 391
f 389 391 392
f 389 391 392
f 389 392 393
f 389 392 393
f 389 393 394
f 389 393 394
f 389 394 395
f 389 394 395
f 389 395 396
f 389 395 396
f 389 396 397
f 389 396 397
f 389 397 398
f 389 397 398
f 389 398 399
f 389 398 399
f 389 399 400
f 389 399 400
f 389 400 401
f 389 400 401
f 389 401 402
f 389 401 402
f 403 404 405
f 403 404 405
f 406 405 404
f 406 405 404
f 405 407 403
f 405 407 403
f 404 408 406
f 404 408 406
f 409 406 408
f 409 406 408
f 403 407 410
f 403 407 410
f 408 411 409
f 408 411 409
f 410 412 403
f 410 412 403
f 412 410 413
f 412 410 413
f 409 411 414
f 409 411 414
f 413 415 412
f 413 415 412
f 415 413 416
f 415 413 416
f 415 416 417
f 415 416 417
f 417 418 415
f 417 418 415
f 418 417 419
f 418 417 419
f 419 420 418
f 419 420 418
f 420 419 421
f 420 419 421
f 421 422 420
f 421 422 420
f 422 421 423
f 422 421 423
f 423 424 422
f 423 424 422
f 425 424 423
f 425 424 423
f 423 426 425
f 423 426 425
f 427 425 426
f 427 425 426
f 426 428 427
f 426 428 427
f 429 427 428
f 429 427 428
f 428 430 429
f 428 430 429
f 429 430 431
f 429 430 431
f 431 432 429
f 431 432 429
f 433 429 432
f 433 429 432
f 432 431 434
f 432 431 434
f 434 435 432
f 434 435 432
f 433 432 435
f 433 432 435
f 435 434 436
f 435 434 436
f 436 437 435
f 436 437 435
f 433 435 437
f 433 435 437
f 437 436 438
f 437 436 438
f 438 439 437
f 438 439 437
f 433 437 439
f 433 437 439
f 439 438 440
f 439 438 440
f 440 441 439
f 440 441 439
f 433 439 441
f 433 439 441
f 441 440 442
f 441 440 442
f 442 443 441
f 442 443 441
f 433 441 443
f 433 441 443
f 443 442 444
f 443 442 444
f 444 433 443
f 444 433 443
f 445 433 444
f 445 433 444
f 444 446 445
f 444 446 445
f 447 445 446
f 447 445 446
f 446 448 447
f 446 448 447
f 449 447 448
f 449 447 448
f 448 450 449
f 448 450 449
f 449 450 451
f 449 450 451
f 451 452 449
f 451 452 449
f 453 449 452
f 453 449 452
f 452 451 454
f 452 451 454
f 454 455 452
f 454 455 452
f 453 452 455
f 453 452 455
f 455 454 456
f 455 454 456
f 456 457 455
f 456 457 455
f 453 455 457
f 453 455 457
f 457 456 458
f 457 456 458
f 458 459 457
f 458 459 457
f 453 457 459
f 453 457 459
f 459 458 460
f 459 458 460
f 460 461 459
f 460 461 459
f 453 459 461
f 453 459 461
f 461 460 462
f 461 460 462
f 462 463 461
f 462 463 461
f 453 461 463
f 453 461 463
f 463 462 464
f 463 462 464
f 464 453 463
f 464 453 463
f 465 453 464
f 465 453 464
f 464 466 465
f 464 466 465
f 467 465 466
f 467 465 466
f 466 468 467
f 466 468 467
f 469 467 468
f 469 467 468
f 468 470 469
f 468 470 469
f 469 470 471
f 469 470 471
f 471 472 469
f 471 472 469
f 472 471 473
f 472 471 473
f 473 474 472
f 473 474 472
f 414 472 474
f 414 472 474
f 474 473 475
f 474 473 475
f 475 476 474
f 475 476 474
f 414 474 476
f 414 474 476
f 476 475 477
f 476 475 477
f 477 478 476
f 477 478 476
f 414 476 478
f 414 476 478
f 478 477 479
f 478 477 479
f 478 479 480
f 478 479 480
f 480 414 478
f 480 414 478
f 414 480 409
f 414 480 409
f 481 482 483
f 481 482 483
f 482 481 484
f 482 481 484
f 483 485 481
f 483 485 481
f 484 486 482
f 484 486 482
f 485 483 487
f 485 483 487
f 486 484 488
f 486 484 488
f 487 489 485
f 487 489 485
f 488 490 486
f 488 490 486
f 489 487 491
f 489 487 491
f 490 488 492
f 490 488 492
f 491 493 489
f 491 493 489
f 492 494 490
f 492 494 490
f 493 491 495
f 493 491 495
f 494 492 496
f 494 492 496
f 495 497 493
f 495 497 493
f 496 498 494
f 496 498 494
f 497 495 499
f 497 495 499
f 498 496 500
f 498 496 500
f 499 501 497
f 499 501 497
f 500 502 498
f 500 502 498
f 501 499 503
f 501 499 503
f 502 500 504
f 502 500 504
f 503 505 501
f 503 505 501
f 504 506 502
f 504 506 502
f 505 503 507
f 505 503 507
f 506 504 508
f 506 504 508
f 507 509 505
f 507 509 505
f 508 510 506
f 508 510 506
f 509 507 511
f 509 507 511
f 510 508 512
f 510 508 512
f 511 513 509
f 511 513 509
f 512 514 510
f 512 514 510
f 513 511 515
f 513 511 515
f 514 512 516
f 514 512 516
f 515 517 513
f 515 517 513
f 516 518 514
f 516 518 514
f 517 515 337
f 517 515 337
f 518 516 340
f 518 516 340
f 337 336 517
f 337 336 517
f 340 339 518
f 340 339 518
f 519 520 521
f 519 520 521
f 522 519 521
f 522 519 521
f 523 522 521
f 523 522 521
f 524 523 521
f 524 523 521
f 525 524 521
f 525 524 521
f 526 525 521
f 526 525 521
f 527 526 521
f 527 526 521
f 528 527 521
f 528 527 521
f 528 521 529
f 528 521 529
f 528 529 530
f 528 529 530
f 531 532 533
f 531 532 533
f 531 533 534
f 531 533 534
f 531 534 535
f 531 534 535
f 531 535 536
f 531 535 536
f 531 536 537
f 531 536 537
f 531 537 538
f 531 537 538
f 531 538 539
f 531 538 539
f 531 539 540
f 531 539 540
f 541 531 540
f 541 531 540
f 541 540 542
f 541 540 542
f 543 544 545
f 543 544 545
f 545 546 543
f 545 546 543
f 544 543 547
f 544 543 547
f 547 548 544
f 547 548 544
f 548 547 549
f 548 547 549
f 549 550 548
f 549 550 548
f 551 552 553
f 551 552 553
f 553 554 551
f 553 554 551
f 552 551 555
f 552 551 555
f 555 556 552
f 555 556 552
f 556 555 557
f 556 555 557
f 557 558 556
f 557 558 556
f 559 560 561
f 559 560 561
f 561 562 559
f 561 562 559
f 560 559 563
f 560 559 563
f 563 564 560
f 563 564 560
f 564 563 565
f 564 563 565
f 565 566 564
f 565 566 564
f 567 568 569
f 567 568 569
f 570 571 572
f 570 571 572
