v -1.19942975 -0.801687717 0.0103026964
v -1.19942975 -0.801687717 0.685374737
v -1.19942975 -0.773096919 0.685374737
v -1.19942975 -0.773096919 0.0103026964
v -1.19942975 -0.801687717 0.699980199
v -1.19942975 -0.801687717 0.711034596
v -1.19942975 -0.773096919 0.711034596
v -1.19942975 -0.0162577052 0.69998014
v -1.19942975 -0.0162577052 0.685374677
v -1.19942975 -0.0162577052 0.711034596
v -1.19942975 0.00974235497 0.685374677
v -1.19942975 0.00974235497 0.69998014
v -1.19942975 0.00974235497 0.711034596
v -1.19942975 0.772846699 0.711034477
v -1.19942975 0.801437497 0.699980021
v -1.19942975 0.772846699 0.685374498
v -1.19942975 0.801437497 0.711034477
v -1.19942975 0.801437497 0.685374498
v -1.19942975 0.801437497 0.0103027346
v -1.19942975 0.772846699 0.0103027346
v 1.19927263 -0.7730968 0.0103026964
v 1.19927263 -0.773096919 0.685374737
v 1.19927263 -0.801687717 0.685374737
v 1.19927263 -0.801687717 0.0103026964
v 1.19927263 -0.773096919 0.699980199
v 1.19927263 -0.801687717 0.699980199
v 1.19927263 -0.0162577052 0.69998014
v 1.19927263 -0.0162577052 0.685374677
v 1.19927263 -0.0162577052 0.711034536
v 1.19927263 0.00974235497 0.69998014
v 1.19927263 -0.773096919 0.711034596
v 1.19927263 -0.801687717 0.711034596
v 1.19927263 0.00974235497 0.685374677
v 1.19927263 0.772846699 0.685374498
v 1.19927263 0.772846699 0.699980021
v 1.19927263 0.772846699 0.711034477
v 1.19927263 0.00974235497 0.711034536
v 1.19927263 0.801437497 0.711034477
v 1.19927263 0.801437497 0.699980021
v 1.19927263 0.801437497 0.685374498
v 1.19927263 0.772846699 0.0103026964
v 1.19927263 0.801437497 0.0103026964
v -1.14020979 0.801437497 0.0103026964
v -1.19942975 0.801437497 0.0103027346
v -1.19942975 0.801437497 0.685374498
v -1.14020979 0.801437497 0.685374498
v -1.14020979 0.801437497 0.699980021
v -1.19942975 0.801437497 0.699980021
v -1.19942975 0.801437497 0.711034477
v -1.14020979 0.801437497 0.711034477
v 1.19927263 0.801437497 0.0103026964
v 1.14005256 0.801437497 0.0103027346
v 1.14005256 0.801437497 0.685374498
v 1.19927263 0.801437497 0.685374498
v 1.19927263 0.801437497 0.699980021
v 1.14005256 0.801437497 0.699980021
v 1.14005256 0.801437497 0.711034477
v 1.19927263 0.801437497 0.711034477
v -1.14020979 -0.801687717 0.0103026964
v -1.14020979 -0.801687717 0.685374737
v -1.19942975 -0.801687717 0.685374737
v -1.19942975 -0.801687717 0.0103026964
v -1.14020979 -0.801687717 0.699980199
v -1.19942975 -0.801687717 0.699980199
v -1.14020979 -0.801687717 0.711034596
v -1.19942975 -0.801687717 0.711034596
v 1.19927263 -0.801687717 0.0103026964
v 1.19927263 -0.801687717 0.685374737
v 1.14005256 -0.801687717 0.685374737
v 1.14005256 -0.801687717 0.0103026964
v 1.19927263 -0.801687717 0.699980199
v 1.14005256 -0.801687717 0.699980199
v 1.19927263 -0.801687717 0.711034596
v 1.14005256 -0.801687717 0.711034596
v -0.0277633667 -0.30289191 0.0103021143
v -0.0277633667 -0.274301082 0.0103021143
v 0.0314565264 -0.274301022 0.0103021143
v 0.0314565264 -0.30289188 0.0103021143
v -0.027763404 0.293673337 0.0103021525
v 0.0314565673 0.293673337 0.0103021143
v 0.0314565673 0.265082479 0.0103021143
v -0.027763404 0.265082479 0.0103021525
v -1.19942975 -0.801687717 0.0103026964
v -1.19942975 -0.773096919 0.0103026964
v -1.14020979 -0.7730968 0.0103026964
v -1.14020979 -0.801687717 0.0103026964
v -1.19942975 0.801437497 0.0103027346
v -1.14020979 0.801437497 0.0103026964
v -1.14020979 0.772846699 0.0103026964
v -1.19942975 0.772846699 0.0103027346
v 1.14005256 -0.801687717 0.0103026964
v 1.14005256 -0.773096919 0.0103026964
v 1.19927263 -0.7730968 0.0103026964
v 1.19927263 -0.801687717 0.0103026964
v 1.14005256 0.801437497 0.0103027346
v 1.19927263 0.801437497 0.0103026964
v 1.19927263 0.772846699 0.0103026964
v 1.14005256 0.772846699 0.0103027346
v 0.0314565264 -0.30289188 0.0103021143
v 0.0314565264 -0.30289191 0.685374737
v -0.0277633667 -0.30289191 0.685374737
v -0.0277633667 -0.30289191 0.0103021143
v 0.0314565264 -0.30289191 0.699980199
v -0.0277633667 -0.30289191 0.699980199
v 0.0314565264 -0.30289191 0.711034596
v -0.0277633667 -0.30289191 0.711034596
v 0.0314565673 0.293673337 0.0103021143
v -0.027763404 0.293673337 0.0103021525
v -0.027763404 0.293673337 0.685374498
v 0.0314565673 0.293673337 0.685374498
v 0.0314565673 0.293673337 0.699980021
v -0.027763404 0.293673337 0.699980021
v -0.027763404 0.293673337 0.711034477
v 0.0314565673 0.293673337 0.711034477
v -0.0277633667 -0.30289191 0.711034596
v 0.0314565264 -0.30289191 0.711034596
v 0.0314565264 -0.274301082 0.711034596
v -0.0277633667 -0.274301082 0.711034596
v -0.027763335 -0.0162577052 0.711034596
v 0.0314565599 -0.0162577052 0.711034536
v -0.027763404 0.293673337 0.711034477
v -0.027763404 0.265082479 0.711034477
v 0.0314565673 0.265082479 0.711034477
v 0.0314565673 0.293673337 0.711034477
v -0.0277633388 0.00974235497 0.711034596
v 0.0314565562 0.00974235497 0.711034536
v -1.19942975 -0.801687717 0.711034596
v -1.14020979 -0.801687717 0.711034596
v -1.14020979 -0.773096919 0.711034596
v -1.19942975 -0.773096919 0.711034596
v -1.19942975 -0.0162577052 0.711034596
v -1.14020979 -0.0162577052 0.711034536
v -1.19942975 0.801437497 0.711034477
v -1.19942975 0.772846699 0.711034477
v -1.14020979 0.772846699 0.711034477
v -1.14020979 0.801437497 0.711034477
v -1.19942975 0.00974235497 0.711034596
v -1.14020979 0.00974235497 0.711034536
v 1.14005256 -0.801687717 0.711034596
v 1.19927263 -0.801687717 0.711034596
v 1.19927263 -0.773096919 0.711034596
v 1.14005256 -0.773096919 0.711034596
v 1.14005256 -0.0162577052 0.711034596
v 1.19927263 -0.0162577052 0.711034536
v 1.14005256 0.801437497 0.711034477
v 1.14005256 0.772846699 0.711034477
v 1.19927263 0.772846699 0.711034477
v 1.19927263 0.801437497 0.711034477
v 1.14005256 0.00974235497 0.711034596
v 1.19927263 0.00974235497 0.711034536
v -0.0277633388 0.00974235497 0.69998014
v -0.027763335 -0.0162577052 0.69998014
v 0.0314565599 -0.0162577052 0.69998014
v 0.0314565562 0.00974235497 0.69998014
v -1.19942975 0.00974235497 0.69998014
v -1.19942975 -0.0162577052 0.69998014
v -1.14020979 -0.0162577052 0.69998014
v -1.14020979 0.00974235497 0.69998014
v 1.14005256 0.00974235497 0.69998014
v 1.14005256 -0.0162577052 0.69998014
v 1.19927263 -0.0162577052 0.69998014
v 1.19927263 0.00974235497 0.69998014
v 0.0314565264 -0.274301022 0.0103021143
v 0.0314565264 -0.274301082 0.685374737
v 0.0314565264 -0.30289191 0.685374737
v 0.0314565264 -0.30289188 0.0103021143
v 0.0314565599 -0.0162577052 0.69998014
v 0.0314565264 -0.30289191 0.699980199
v 0.0314565599 -0.0162577052 0.685374677
v 0.0314565562 0.00974235497 0.69998014
v 0.0314565599 -0.0162577052 0.711034536
v 0.0314565264 -0.274301082 0.711034596
v 0.0314565264 -0.30289191 0.711034596
v 0.0314565562 0.00974235497 0.685374677
v 0.0314565711 0.265082479 0.685374498
v 0.0314565673 0.265082479 0.699980021
v 0.0314565673 0.265082479 0.711034477
v 0.0314565562 0.00974235497 0.711034536
v 0.0314565673 0.293673337 0.711034477
v 0.0314565673 0.293673337 0.699980021
v 0.0314565673 0.293673337 0.685374498
v 0.0314565673 0.265082479 0.0103021143
v 0.0314565673 0.293673337 0.0103021143
v -0.0277633667 -0.30289191 0.0103021143
v -0.0277633667 -0.30289191 0.685374737
v -0.0277633667 -0.274301082 0.685374737
v -0.0277633667 -0.274301082 0.0103021143
v -0.0277633667 -0.30289191 0.699980199
v -0.0277633667 -0.274301082 0.699980199
v -0.0277633332 -0.0162577052 0.685374677
v -0.0277633667 -0.30289191 0.711034596
v -0.027763335 -0.0162577052 0.69998014
v -0.0277633667 -0.274301082 0.711034596
v -0.027763335 -0.0162577052 0.711034596
v -0.0277633388 0.00974235497 0.685374677
v -0.0277633332 -0.0162577052 0.685374677
v -0.0277633388 0.00974235497 0.69998014
v -0.027763404 0.265082479 0.699980021
v -0.0277633388 0.00974235497 0.711034596
v -0.0277634002 0.265082479 0.685374498
v -0.027763404 0.265082479 0.711034477
v -0.027763404 0.293673337 0.699980021
v -0.027763404 0.293673337 0.711034477
v -0.027763404 0.293673337 0.685374498
v -0.027763404 0.293673337 0.0103021525
v -0.027763404 0.265082479 0.0103021525
v -0.0277633388 0.00974235497 0.69998014
v 0.0314565562 0.00974235497 0.69998014
v 0.0314565562 0.00974235497 0.711034536
v -0.0277633388 0.00974235497 0.711034596
v -1.19942975 0.00974235497 0.69998014
v -1.14020979 0.00974235497 0.69998014
v -1.14020979 0.00974235497 0.711034536
v -1.19942975 0.00974235497 0.711034596
v 1.14005256 0.00974235497 0.69998014
v 1.19927263 0.00974235497 0.69998014
v 1.19927263 0.00974235497 0.711034536
v 1.14005256 0.00974235497 0.711034596
v 0.0314565599 -0.0162577052 0.69998014
v -0.027763335 -0.0162577052 0.69998014
v -0.027763335 -0.0162577052 0.711034596
v 0.0314565599 -0.0162577052 0.711034536
v -1.14020979 -0.0162577052 0.69998014
v -1.19942975 -0.0162577052 0.69998014
v -1.19942975 -0.0162577052 0.711034596
v -1.14020979 -0.0162577052 0.711034536
v 1.19927263 -0.0162577052 0.69998014
v 1.14005256 -0.0162577052 0.69998014
v 1.14005256 -0.0162577052 0.711034596
v 1.19927263 -0.0162577052 0.711034536
v -0.0277633667 -0.274301082 0.685374737
v -0.0277633332 -0.0162577052 0.685374677
v 0.0314565599 -0.0162577052 0.685374677
v 0.0314565264 -0.274301082 0.685374737
v 0.0314565562 0.00974235497 0.685374677
v -0.0277633388 0.00974235497 0.685374677
v -0.0277634002 0.265082479 0.685374498
v 0.0314565711 0.265082479 0.685374498
v -1.19942975 -0.773096919 0.685374737
v -1.19942975 -0.0162577052 0.685374677
v -1.14020979 -0.0162577052 0.685374677
v -1.14020979 -0.773096919 0.685374737
v -1.14020979 0.00974235497 0.685374677
v -1.19942975 0.00974235497 0.685374677
v -1.19942975 0.772846699 0.685374498
v -1.14020979 0.772846699 0.685374498
v 1.14005256 -0.773096919 0.685374737
v 1.14005256 -0.0162577052 0.685374677
v 1.19927263 -0.0162577052 0.685374677
v 1.19927263 -0.773096919 0.685374737
v 1.19927263 0.00974235497 0.685374677
v 1.14005256 0.00974235497 0.685374677
v 1.14005256 0.772846699 0.685374498
v 1.19927263 0.772846699 0.685374498
v -0.027763404 0.265082479 0.0103021525
v 0.0314565673 0.265082479 0.0103021143
v 0.0314565711 0.265082479 0.685374498
v -0.0277634002 0.265082479 0.685374498
v -0.0277633667 -0.274301082 0.0103021143
v -0.0277633667 -0.274301082 0.685374737
v 0.0314565264 -0.274301082 0.685374737
v 0.0314565264 -0.274301022 0.0103021143
v -1.19942975 -0.773096919 0.0103026964
v -1.19942975 -0.773096919 0.685374737
v -1.14020979 -0.773096919 0.685374737
v -1.14020979 -0.7730968 0.0103026964
v 1.14005256 -0.773096919 0.0103026964
v 1.14005256 -0.773096919 0.685374737
v 1.19927263 -0.773096919 0.685374737
v 1.19927263 -0.7730968 0.0103026964
v -1.19942975 0.772846699 0.0103027346
v -1.14020979 0.772846699 0.0103026964
v -1.14020979 0.772846699 0.685374498
v -1.19942975 0.772846699 0.685374498
v 1.14005256 0.772846699 0.0103027346
v 1.19927263 0.772846699 0.0103026964
v 1.19927263 0.772846699 0.685374498
v 1.14005256 0.772846699 0.685374498
v 1.14005256 -0.801687717 0.0103026964
v 1.14005256 -0.801687717 0.685374737
v 1.14005256 -0.773096919 0.685374737
v 1.14005256 -0.773096919 0.0103026964
v 1.14005256 -0.801687717 0.699980199
v 1.14005256 -0.773096919 0.699980199
v 1.14005256 -0.801687717 0.711034596
v 1.14005256 -0.0162577052 0.685374677
v 1.14005256 -0.773096919 0.711034596
v 1.14005256 -0.0162577052 0.69998014
v 1.14005256 -0.0162577052 0.711034596
v 1.14005256 0.00974235497 0.685374677
v 1.14005256 0.00974235497 0.69998014
v 1.14005256 0.772846699 0.699980021
v 1.14005256 0.00974235497 0.711034596
v 1.14005256 0.772846699 0.685374498
v 1.14005256 0.772846699 0.711034477
v 1.14005256 0.801437497 0.699980021
v 1.14005256 0.801437497 0.711034477
v 1.14005256 0.801437497 0.685374498
v 1.14005256 0.801437497 0.0103027346
v 1.14005256 0.772846699 0.0103027346
v -1.14020979 -0.7730968 0.0103026964
v -1.14020979 -0.773096919 0.685374737
v -1.14020979 -0.801687717 0.685374737
v -1.14020979 -0.801687717 0.0103026964
v -1.14020979 -0.0162577052 0.69998014
v -1.14020979 -0.0162577052 0.685374677
v -1.14020979 -0.0162577052 0.711034536
v -1.14020979 0.00974235497 0.69998014
v -1.14020979 -0.773096919 0.711034596
v -1.14020979 -0.801687717 0.699980199
v -1.14020979 -0.801687717 0.711034596
v -1.14020979 0.00974235497 0.685374677
v -1.14020979 0.772846699 0.685374498
v -1.14020979 0.772846699 0.711034477
v -1.14020979 0.00974235497 0.711034536
v -1.14020979 0.801437497 0.711034477
v -1.14020979 0.801437497 0.699980021
v -1.14020979 0.801437497 0.685374498
v -1.14020979 0.772846699 0.0103026964
v -1.14020979 0.801437497 0.0103026964
f 1 2 3
f 1 2 3
f 3 4 1
f 3 4 1
f 3 2 5
f 3 2 5
f 3 5 6
f 3 5 6
f 6 7 3
f 6 7 3
f 3 8 9
f 3 8 9
f 8 3 7
f 8 3 7
f 7 10 8
f 7 10 8
f 11 9 8
f 11 9 8
f 8 12 11
f 8 12 11
f 11 12 13
f 11 12 13
f 13 14 11
f 13 14 11
f 15 11 14
f 15 11 14
f 16 11 15
f 16 11 15
f 14 17 15
f 14 17 15
f 15 18 16
f 15 18 16
f 16 18 19
f 16 18 19
f 19 20 16
f 19 20 16
f 21 22 23
f 21 22 23
f 23 24 21
f 23 24 21
f 23 22 25
f 23 22 25
f 25 26 23
f 25 26 23
f 27 25 22
f 27 25 22
f 22 28 27
f 22 28 27
f 25 27 29
f 25 27 29
f 30 27 28
f 30 27 28
f 29 31 25
f 29 31 25
f 26 25 31
f 26 25 31
f 31 32 26
f 31 32 26
f 28 33 30
f 28 33 30
f 30 33 34
f 30 33 34
f 34 35 30
f 34 35 30
f 30 35 36
f 30 35 36
f 36 37 30
f 36 37 30
f 38 36 35
f 38 36 35
f 35 39 38
f 35 39 38
f 40 39 35
f 40 39 35
f 35 34 40
f 35 34 40
f 40 34 41
f 40 34 41
f 41 42 40
f 41 42 40
f 43 44 45
f 43 44 45
f 45 46 43
f 45 46 43
f 47 46 45
f 47 46 45
f 45 48 47
f 45 48 47
f 47 48 49
f 47 48 49
f 49 50 47
f 49 50 47
f 51 52 53
f 51 52 53
f 53 54 51
f 53 54 51
f 55 54 53
f 55 54 53
f 53 56 55
f 53 56 55
f 55 56 57
f 55 56 57
f 57 58 55
f 57 58 55
f 59 60 61
f 59 60 61
f 61 62 59
f 61 62 59
f 61 60 63
f 61 60 63
f 63 64 61
f 63 64 61
f 64 63 65
f 64 63 65
f 65 66 64
f 65 66 64
f 67 68 69
f 67 68 69
f 69 70 67
f 69 70 67
f 69 68 71
f 69 68 71
f 71 72 69
f 71 72 69
f 72 71 73
f 72 71 73
f 73 74 72
f 73 74 72
f 75 76 77
f 75 76 77
f 77 78 75
f 77 78 75
f 79 80 81
f 79 80 81
f 81 82 79
f 81 82 79
f 83 84 85
f 83 84 85
f 85 86 83
f 85 86 83
f 87 88 89
f 87 88 89
f 89 90 87
f 89 90 87
f 91 92 93
f 91 92 93
f 93 94 91
f 93 94 91
f 95 96 97
f 95 96 97
f 97 98 95
f 97 98 95
f 99 100 101
f 99 100 101
f 101 102 99
f 101 102 99
f 101 100 103
f 101 100 103
f 103 104 101
f 103 104 101
f 104 103 105
f 104 103 105
f 105 106 104
f 105 106 104
f 107 108 109
f 107 108 109
f 109 110 107
f 109 110 107
f 111 110 109
f 111 110 109
f 109 112 111
f 109 112 111
f 111 112 113
f 111 112 113
f 113 114 111
f 113 114 111
f 115 116 117
f 115 116 117
f 117 118 115
f 117 118 115
f 119 118 117
f 119 118 117
f 117 120 119
f 117 120 119
f 121 122 123
f 121 122 123
f 123 124 121
f 123 124 121
f 123 122 125
f 123 122 125
f 125 126 123
f 125 126 123
f 127 128 129
f 127 128 129
f 129 130 127
f 129 130 127
f 131 130 129
f 131 130 129
f 129 132 131
f 129 132 131
f 133 134 135
f 133 134 135
f 135 136 133
f 135 136 133
f 135 134 137
f 135 134 137
f 137 138 135
f 137 138 135
f 139 140 141
f 139 140 141
f 141 142 139
f 141 142 139
f 143 142 141
f 143 142 141
f 141 144 143
f 141 144 143
f 145 146 147
f 145 146 147
f 147 148 145
f 147 148 145
f 147 146 149
f 147 146 149
f 149 150 147
f 149 150 147
f 151 152 153
f 151 152 153
f 153 154 151
f 153 154 151
f 155 156 157
f 155 156 157
f 157 158 155
f 157 158 155
f 159 160 161
f 159 160 161
f 161 162 159
f 161 162 159
f 163 164 165
f 163 164 165
f 165 166 163
f 165 166 163
f 165 164 167
f 165 164 167
f 167 168 165
f 167 168 165
f 164 169 167
f 164 169 167
f 170 167 169
f 170 167 169
f 171 172 167
f 171 172 167
f 168 167 172
f 168 167 172
f 172 173 168
f 172 173 168
f 169 174 170
f 169 174 170
f 170 174 175
f 170 174 175
f 175 176 170
f 175 176 170
f 170 176 177
f 170 176 177
f 177 178 170
f 177 178 170
f 179 177 176
f 179 177 176
f 176 180 179
f 176 180 179
f 181 180 176
f 181 180 176
f 176 175 181
f 176 175 181
f 181 175 182
f 181 175 182
f 182 183 181
f 182 183 181
f 184 185 186
f 184 185 186
f 186 187 184
f 186 187 184
f 186 185 188
f 186 185 188
f 188 189 186
f 188 189 186
f 190 186 189
f 190 186 189
f 189 188 191
f 189 188 191
f 189 192 190
f 189 192 190
f 191 193 189
f 191 193 189
f 192 189 193
f 192 189 193
f 193 194 192
f 193 194 192
f 195 196 192
f 195 196 192
f 192 197 195
f 192 197 195
f 195 197 198
f 195 197 198
f 198 197 199
f 198 197 199
f 198 200 195
f 198 200 195
f 199 201 198
f 199 201 198
f 202 198 201
f 202 198 201
f 200 198 202
f 200 198 202
f 201 203 202
f 201 203 202
f 202 204 200
f 202 204 200
f 200 204 205
f 200 204 205
f 205 206 200
f 205 206 200
f 207 208 209
f 207 208 209
f 209 210 207
f 209 210 207
f 211 212 213
f 211 212 213
f 213 214 211
f 213 214 211
f 215 216 217
f 215 216 217
f 217 218 215
f 217 218 215
f 219 220 221
f 219 220 221
f 221 222 219
f 221 222 219
f 223 224 225
f 223 224 225
f 225 226 223
f 225 226 223
f 227 228 229
f 227 228 229
f 229 230 227
f 229 230 227
f 231 232 233
f 231 232 233
f 233 234 231
f 233 234 231
f 235 233 232
f 235 233 232
f 232 236 235
f 232 236 235
f 235 236 237
f 235 236 237
f 237 238 235
f 237 238 235
f 239 240 241
f 239 240 241
f 241 242 239
f 241 242 239
f 243 241 240
f 243 241 240
f 240 244 243
f 240 244 243
f 243 244 245
f 243 244 245
f 245 246 243
f 245 246 243
f 247 248 249
f 247 248 249
f 249 250 247
f 249 250 247
f 251 249 248
f 251 249 248
f 248 252 251
f 248 252 251
f 251 252 253
f 251 252 253
f 253 254 251
f 253 254 251
f 255 256 257
f 255 256 257
f 257 258 255
f 257 258 255
f 259 260 261
f 259 260 261
f 261 262 259
f 261 262 259
f 263 264 265
f 263 264 265
f 265 266 263
f 265 266 263
f 267 268 269
f 267 268 269
f 269 270 267
f 269 270 267
f 271 272 273
f 271 272 273
f 273 274 271
f 273 274 271
f 275 276 277
f 275 276 277
f 277 278 275
f 277 278 275
f 279 280 281
f 279 280 281
f 281 282 279
f 281 282 279
f 281 280 283
f 281 280 283
f 283 284 281
f 283 284 281
f 284 283 285
f 284 283 285
f 286 281 284
f 286 281 284
f 285 287 284
f 285 287 284
f 284 288 286
f 284 288 286
f 288 284 287
f 288 284 287
f 287 289 288
f 287 289 288
f 290 286 288
f 290 286 288
f 288 291 290
f 288 291 290
f 290 291 292
f 290 291 292
f 292 291 293
f 292 291 293
f 292 294 290
f 292 294 290
f 293 295 292
f 293 295 292
f 296 292 295
f 296 292 295
f 294 292 296
f 294 292 296
f 295 297 296
f 295 297 296
f 296 298 294
f 296 298 294
f 294 298 299
f 294 298 299
f 299 300 294
f 299 300 294
f 301 302 303
f 301 302 303
f 303 304 301
f 303 304 301
f 305 303 302
f 305 303 302
f 302 306 305
f 302 306 305
f 303 305 307
f 303 305 307
f 308 305 306
f 308 305 306
f 307 309 303
f 307 309 303
f 310 303 309
f 310 303 309
f 309 311 310
f 309 311 310
f 306 312 308
f 306 312 308
f 308 312 313
f 308 312 313
f 314 315 308
f 314 315 308
f 316 314 308
f 316 314 308
f 308 317 316
f 308 317 316
f 318 317 308
f 318 317 308
f 308 313 318
f 308 313 318
f 318 313 319
f 318 313 319
f 319 320 318
f 319 320 318
