v 0.460914731 0.0928726345 0.861289859
v 0.460914731 0.0928726271 0.838537991
v 0.447337538 0.112891294 0.838537991
v 0.447337538 0.112891309 0.861289799
v 0.470801353 0.0710562989 0.861289859
v 0.470801353 0.0710562915 0.838538051
v 0.476861775 0.0479595326 0.861289859
v 0.476861775 0.047959514 0.838538051
v 0.478960276 0.024099607 0.861289859
v 0.478960305 0.0240995884 0.838538051
v 0.476960987 -6.21271738e-06 0.861289918
v 0.476961017 -6.23021015e-06 0.83853811
v 0.470728278 -0.0238406546 0.861289918
v 0.470728278 -0.0238406677 0.83853811
v 0.372215301 -0.299927443 0.861290097
v 0.372215301 -0.299927443 0.838538289
v 0.370511889 -0.303355187 0.861290157
v 0.370511889 -0.303355217 0.838538289
v -0.372215301 -0.299927443 0.861290097
v -0.372215301 -0.299927443 0.838538289
v -0.370511889 -0.303355217 0.838538289
v -0.370511889 -0.303355187 0.861290157
v -0.470728278 -0.0238406546 0.861289918
v -0.470728278 -0.0238406677 0.83853811
v -0.476961017 -6.2198701e-06 0.861289918
v -0.476961017 -6.23736287e-06 0.83853811
v -0.478960216 0.0240996052 0.861289859
v -0.478960216 0.0240995884 0.838538051
v -0.476861835 0.0479595251 0.861289859
v -0.476861835 0.0479595028 0.838538051
v -0.470801443 0.071056284 0.861289859
v -0.470801443 0.0710562691 0.838538051
v -0.460914791 0.0928726345 0.861289859
v -0.460914791 0.0928726271 0.838537991
v -0.447337687 0.112891302 0.861289799
v -0.447337687 0.112891279 0.838537991
v 2.73437499e-14 0.359892815 0.838537812
v 2.73437499e-14 0.359892815 0.86128962
v 0.157401621 0.359892815 0.86128962
v 0.157401621 0.359892815 0.838537812
v 0.169328615 0.359279543 0.86128962
v 0.16932863 0.359279513 0.838537812
v 0.181053728 0.357461303 0.86128962
v 0.181053713 0.357461303 0.838537812
v 0.192489818 0.3544707 0.86128962
v 0.192489818 0.35447067 0.838537812
v 0.203549817 0.350340158 0.86128962
v 0.203549817 0.350340158 0.838537812
v 0.214146659 0.3451024 0.86128962
v 0.214146659 0.34510237 0.838537812
v 0.22419323 0.338789731 0.86128968
v 0.22419323 0.338789672 0.838537812
v 0.233602479 0.331434697 0.86128968
v 0.233602479 0.331434637 0.838537812
v 0.430205524 0.130595013 0.861289799
v 0.430205584 0.130594999 0.838537991
v 0.447337538 0.112891309 0.861289799
v 0.447337538 0.112891294 0.838537991
v -0.430205584 0.130595013 0.861289799
v -0.430205584 0.130594999 0.838537991
v -0.447337687 0.112891279 0.838537991
v -0.447337687 0.112891302 0.861289799
v -0.233602464 0.331434697 0.86128968
v -0.233602464 0.331434637 0.838537812
v -0.224193245 0.338789642 0.86128968
v -0.224193245 0.338789642 0.838537812
v -0.214146629 0.34510234 0.86128962
v -0.214146629 0.34510231 0.838537812
v -0.203549817 0.350340158 0.86128962
v -0.203549817 0.350340217 0.838537812
v -0.192489803 0.35447064 0.86128962
v -0.192489803 0.35447064 0.838537812
v -0.181053758 0.357461333 0.86128962
v -0.181053758 0.357461333 0.838537812
v -0.169328675 0.359279543 0.86128962
v -0.169328675 0.359279513 0.838537812
v -0.157401606 0.359892815 0.86128962
v -0.157401606 0.359892815 0.838537812
v 0.470801353 0.0710562915 0.838538051
v 0.476861775 0.047959514 0.838538051
v 0.474884301 0.0476156548 0.836538076
v 0.4689098 0.0703849345 0.836538017
v 0.476861775 0.0479595326 0.861289859
v 0.470801353 0.0710562989 0.861289859
v 0.4689098 0.0703849569 0.863289833
v 0.474884301 0.0476156771 0.863289893
v 0.476861775 0.047959514 0.838538051
v 0.478960305 0.0240995884 0.838538051
v 0.476953 0.0240945946 0.836538076
v 0.474884301 0.0476156548 0.836538076
v 0.478960276 0.024099607 0.861289859
v 0.476861775 0.0479595326 0.861289859
v 0.474884301 0.0476156771 0.863289893
v 0.476953 0.0240946151 0.863289893
v -0.476861835 0.0479595028 0.838538051
v -0.470801443 0.0710562691 0.838538051
v -0.46890986 0.0703849271 0.836538017
v -0.474884391 0.0476156548 0.836538076
v -0.470801443 0.071056284 0.861289859
v -0.476861835 0.0479595251 0.861289859
v -0.474884391 0.0476156697 0.863289893
v -0.46890986 0.0703849494 0.863289833
v -0.478960216 0.0240995884 0.838538051
v -0.476861835 0.0479595028 0.838538051
v -0.474884391 0.0476156548 0.836538076
v -0.47695294 0.0240945946 0.836538076
v -0.476861835 0.0479595251 0.861289859
v -0.478960216 0.0240996052 0.861289859
v -0.47695294 0.0240946133 0.863289893
v -0.474884391 0.0476156697 0.863289893
v 0.460914731 0.0928726271 0.838537991
v 0.470801353 0.0710562915 0.838538051
v 0.4689098 0.0703849345 0.836538017
v 0.459163547 0.0918914303 0.836538017
v 0.470801353 0.0710562989 0.861289859
v 0.460914731 0.0928726345 0.861289859
v 0.459163547 0.0918914601 0.863289833
v 0.4689098 0.0703849569 0.863289833
v -0.470801443 0.0710562691 0.838538051
v -0.460914791 0.0928726271 0.838537991
v -0.459163636 0.0918914303 0.836538017
v -0.46890986 0.0703849271 0.836538017
v -0.460914791 0.0928726345 0.861289859
v -0.470801443 0.071056284 0.861289859
v -0.46890986 0.0703849494 0.863289833
v -0.459163636 0.0918914601 0.863289833
v 0.478960305 0.0240995884 0.838538051
v 0.476961017 -6.23021015e-06 0.83853811
v 0.474982172 0.000331939606 0.836538076
v 0.476953 0.0240945946 0.836538076
v 0.476960987 -6.21271738e-06 0.861289918
v 0.478960276 0.024099607 0.861289859
v 0.476953 0.0240946151 0.863289893
v 0.474982172 0.000331958523 0.863289893
v -0.476961017 -6.23736287e-06 0.83853811
v -0.478960216 0.0240995884 0.838538051
v -0.47695294 0.0240945946 0.836538076
v -0.474982172 0.000331932475 0.836538076
v -0.478960216 0.0240996052 0.861289859
v -0.476961017 -6.2198701e-06 0.861289918
v -0.474982172 0.000331951363 0.863289893
v -0.47695294 0.0240946133 0.863289893
v 0.447337538 0.112891294 0.838537991
v 0.460914731 0.0928726271 0.838537991
v 0.459163547 0.0918914303 0.836538017
v 0.459163547 0.0918914303 0.836538017
v 0.445779681 0.111625127 0.836538017
v 0.447337538 0.112891294 0.838537991
v 0.460914731 0.0928726345 0.861289859
v 0.447337538 0.112891309 0.861289799
v 0.445779681 0.111625142 0.863289833
v 0.459163547 0.0918914601 0.863289833
v -0.460914791 0.0928726271 0.838537991
v -0.447337687 0.112891279 0.838537991
v -0.44577983 0.111625113 0.836538017
v -0.44577983 0.111625113 0.836538017
v -0.459163636 0.0918914303 0.836538017
v -0.460914791 0.0928726271 0.838537991
v -0.447337687 0.112891302 0.861289799
v -0.460914791 0.0928726345 0.861289859
v -0.459163636 0.0918914601 0.863289833
v -0.459163636 0.0918914601 0.863289833
v -0.44577983 0.111625135 0.863289833
v -0.447337687 0.112891302 0.861289799
v 0.370511889 -0.303355217 0.838538289
v 0.368113369 -0.3062796 0.838538289
v 0.366698951 -0.30485031 0.836538315
v 0.36882174 -0.302262157 0.836538315
v 0.368113369 -0.3062796 0.861290157
v 0.370511889 -0.303355187 0.861290157
v 0.36882174 -0.302262127 0.863290131
v 0.366698951 -0.30485028 0.863290131
v -0.368113428 -0.306279629 0.838538289
v -0.370511889 -0.303355217 0.838538289
v -0.36882174 -0.302262187 0.836538315
v -0.36669904 -0.30485034 0.836538315
v -0.370511889 -0.303355187 0.861290157
v -0.368113428 -0.306279629 0.861290157
v -0.36669904 -0.30485034 0.863290131
v -0.36882174 -0.302262187 0.863290131
v 0.476961017 -6.23021015e-06 0.83853811
v 0.470728278 -0.0238406677 0.83853811
v 0.468815356 -0.0232505016 0.836538076
v 0.474982172 0.000331939606 0.836538076
v 0.470728278 -0.0238406546 0.861289918
v 0.476960987 -6.21271738e-06 0.861289918
v 0.474982172 0.000331958523 0.863289893
v 0.468815356 -0.0232504774 0.863289893
v -0.470728278 -0.0238406677 0.83853811
v -0.476961017 -6.23736287e-06 0.83853811
v -0.474982172 0.000331932475 0.836538076
v -0.468815356 -0.023250496 0.836538076
v -0.476961017 -6.2198701e-06 0.861289918
v -0.470728278 -0.0238406546 0.861289918
v -0.468815356 -0.0232504718 0.863289893
v -0.474982172 0.000331951363 0.863289893
v 0.372215301 -0.299927443 0.838538289
v 0.370511889 -0.303355217 0.838538289
v 0.36882174 -0.302262157 0.836538315
v 0.370371521 -0.299143583 0.836538315
v 0.370511889 -0.303355187 0.861290157
v 0.372215301 -0.299927443 0.861290097
v 0.370371461 -0.299143583 0.863290131
v 0.36882174 -0.302262127 0.863290131
v -0.370511889 -0.303355217 0.838538289
v -0.372215301 -0.299927443 0.838538289
v -0.370371431 -0.299143583 0.836538315
v -0.36882174 -0.302262187 0.836538315
v -0.372215301 -0.299927443 0.861290097
v -0.370511889 -0.303355187 0.861290157
v -0.36882174 -0.302262187 0.863290131
v -0.370371431 -0.299143583 0.863290131
v 0.203549817 0.350340158 0.838537812
v 0.214146659 0.34510237 0.838537812
v 0.213168979 0.343354642 0.836537838
v 0.213168979 0.343354642 0.836537838
v 0.202754796 0.348502219 0.836537838
v 0.203549817 0.350340158 0.838537812
v 0.214146659 0.3451024 0.86128962
v 0.203549817 0.350340158 0.86128962
v 0.202754796 0.348502189 0.863289654
v 0.202754796 0.348502189 0.863289654
v 0.213168979 0.343354672 0.863289654
v 0.214146659 0.3451024 0.86128962
v 0.214146659 0.34510237 0.838537812
v 0.22419323 0.338789672 0.838537812
v 0.223042339 0.337150812 0.836537838
v 0.213168979 0.343354642 0.836537838
v 0.22419323 0.338789731 0.86128968
v 0.214146659 0.3451024 0.86128962
v 0.213168979 0.343354672 0.863289654
v 0.223042339 0.337150812 0.863289654
v -0.224193245 0.338789642 0.838537812
v -0.214146629 0.34510231 0.838537812
v -0.213168964 0.343354613 0.836537838
v -0.223042354 0.337150723 0.836537838
v -0.214146629 0.34510234 0.86128962
v -0.224193245 0.338789642 0.86128968
v -0.223042354 0.337150782 0.863289654
v -0.213168964 0.343354613 0.863289654
v -0.214146629 0.34510231 0.838537812
v -0.203549817 0.350340217 0.838537812
v -0.202754796 0.348502159 0.836537838
v -0.202754796 0.348502159 0.836537838
v -0.213168964 0.343354613 0.836537838
v -0.214146629 0.34510231 0.838537812
v -0.203549817 0.350340158 0.86128962
v -0.214146629 0.34510234 0.86128962
v -0.213168964 0.343354613 0.863289654
v -0.202754796 0.348502189 0.863289654
v 0.470728278 -0.0238406677 0.83853811
v 0.372215301 -0.299927443 0.838538289
v 0.370371521 -0.299143583 0.836538315
v 0.468815356 -0.0232505016 0.836538076
v 0.372215301 -0.299927443 0.861290097
v 0.470728278 -0.0238406546 0.861289918
v 0.468815356 -0.0232504774 0.863289893
v 0.370371461 -0.299143583 0.863290131
v 0.368113369 -0.3062796 0.838538289
v 0.365169019 -0.308643341 0.838538289
v 0.364069492 -0.306961268 0.836538315
v 0.366698951 -0.30485031 0.836538315
v 0.365169019 -0.308643311 0.861290157
v 0.368113369 -0.3062796 0.861290157
v 0.366698951 -0.30485028 0.863290131
v 0.364069492 -0.306961268 0.863290131
v 0.192489818 0.35447067 0.838537812
v 0.203549817 0.350340158 0.838537812
v 0.202754796 0.348502219 0.836537838
v 0.202754796 0.348502219 0.836537838
v 0.191885397 0.352561504 0.836537838
v 0.192489818 0.35447067 0.838537812
v 0.203549817 0.350340158 0.86128962
v 0.192489818 0.3544707 0.86128962
v 0.191885397 0.352561504 0.863289654
v 0.202754796 0.348502189 0.863289654
v -0.365169019 -0.308643281 0.838538289
v -0.368113428 -0.306279629 0.838538289
v -0.36669904 -0.30485034 0.836538315
v -0.364069492 -0.306961238 0.836538315
v -0.368113428 -0.306279629 0.861290157
v -0.365169019 -0.308643281 0.861290157
v -0.364069492 -0.306961238 0.863290131
v -0.36669904 -0.30485034 0.863290131
v 0.22419323 0.338789672 0.838537812
v 0.233602479 0.331434637 0.838537812
v 0.232266158 0.329940677 0.836537838
v 0.232266158 0.329940677 0.836537838
v 0.223042339 0.337150812 0.836537838
v 0.22419323 0.338789672 0.838537812
v 0.233602479 0.331434697 0.86128968
v 0.22419323 0.338789731 0.86128968
v 0.223042339 0.337150812 0.863289654
v 0.223042339 0.337150812 0.863289654
v 0.232266158 0.329940736 0.863289654
v 0.233602479 0.331434697 0.86128968
v -0.372215301 -0.299927443 0.838538289
v -0.470728278 -0.0238406677 0.83853811
v -0.468815356 -0.023250496 0.836538076
v -0.370371431 -0.299143583 0.836538315
v -0.470728278 -0.0238406546 0.861289918
v -0.372215301 -0.299927443 0.861290097
v -0.370371431 -0.299143583 0.863290131
v -0.468815356 -0.0232504718 0.863289893
v -0.203549817 0.350340217 0.838537812
v -0.192489803 0.35447064 0.838537812
v -0.191885352 0.352561504 0.836537838
v -0.191885352 0.352561504 0.836537838
v -0.202754796 0.348502159 0.836537838
v -0.203549817 0.350340217 0.838537812
v -0.192489803 0.35447064 0.86128962
v -0.203549817 0.350340158 0.86128962
v -0.202754796 0.348502189 0.863289654
v -0.191885352 0.352561474 0.863289654
v -0.233602464 0.331434637 0.838537812
v -0.224193245 0.338789642 0.838537812
v -0.223042354 0.337150723 0.836537838
v -0.223042354 0.337150723 0.836537838
v -0.232266143 0.329940677 0.836537838
v -0.233602464 0.331434637 0.838537812
v -0.224193245 0.338789642 0.86128968
v -0.233602464 0.331434697 0.86128968
v -0.232266143 0.329940736 0.863289654
v -0.223042354 0.337150782 0.863289654
v 0.181053713 0.357461303 0.838537812
v 0.192489818 0.35447067 0.838537812
v 0.191885397 0.352561504 0.836537838
v 0.18064642 0.355500579 0.836537838
v 0.192489818 0.3544707 0.86128962
v 0.181053728 0.357461303 0.86128962
v 0.180646434 0.355500549 0.863289654
v 0.191885397 0.352561504 0.863289654
v -0.192489803 0.35447064 0.838537812
v -0.181053758 0.357461333 0.838537812
v -0.180646464 0.355500579 0.836537838
v -0.180646464 0.355500579 0.836537838
v -0.191885352 0.352561504 0.836537838
v -0.192489803 0.35447064 0.838537812
v -0.181053758 0.357461333 0.86128962
v -0.192489803 0.35447064 0.86128962
v -0.191885352 0.352561474 0.863289654
v -0.180646464 0.355500579 0.863289654
v 0.430205584 0.130594999 0.838537991
v 0.447337538 0.112891294 0.838537991
v 0.445779681 0.111625127 0.836538017
v 0.42877233 0.129200041 0.836538017
v 0.447337538 0.112891309 0.861289799
v 0.430205524 0.130595013 0.861289799
v 0.42877233 0.129200071 0.863289833
v 0.445779681 0.111625142 0.863289833
v 0.233602479 0.331434637 0.838537812
v 0.430205584 0.130594999 0.838537991
v 0.42877233 0.129200041 0.836538017
v 0.42877233 0.129200041 0.836538017
v 0.232266158 0.329940677 0.836537838
v 0.233602479 0.331434637 0.838537812
v 0.430205524 0.130595013 0.861289799
v 0.233602479 0.331434697 0.86128968
v 0.232266158 0.329940736 0.863289654
v 0.42877233 0.129200071 0.863289833
v -0.447337687 0.112891279 0.838537991
v -0.430205584 0.130594999 0.838537991
v -0.42877233 0.129200041 0.836538017
v -0.44577983 0.111625113 0.836538017
v -0.430205584 0.130595013 0.861289799
v -0.447337687 0.112891302 0.861289799
v -0.44577983 0.111625135 0.863289833
v -0.42877233 0.129200071 0.863289833
v -0.430205584 0.130594999 0.838537991
v -0.233602464 0.331434637 0.838537812
v -0.232266143 0.329940677 0.836537838
v -0.232266143 0.329940677 0.836537838
v -0.42877233 0.129200041 0.836538017
v -0.430205584 0.130594999 0.838537991
v -0.233602464 0.331434697 0.86128968
v -0.430205584 0.130595013 0.861289799
v -0.42877233 0.129200071 0.863289833
v -0.42877233 0.129200071 0.863289833
v -0.232266143 0.329940736 0.863289654
v -0.233602464 0.331434697 0.86128968
v -0.181053758 0.357461333 0.838537812
v -0.169328675 0.359279513 0.838537812
v -0.16912356 0.357287467 0.836537838
v -0.180646464 0.355500579 0.836537838
v -0.169328675 0.359279543 0.86128962
v -0.181053758 0.357461333 0.86128962
v -0.180646464 0.355500579 0.863289654
v -0.16912356 0.357287437 0.863289654
v 0.16932863 0.359279513 0.838537812
v 0.181053713 0.357461303 0.838537812
v 0.18064642 0.355500579 0.836537838
v 0.169123501 0.357287467 0.836537838
v 0.181053728 0.357461303 0.86128962
v 0.169328615 0.359279543 0.86128962
v 0.169123501 0.357287437 0.863289654
v 0.180646434 0.355500549 0.863289654
v 0.157401621 0.359892815 0.838537812
v 0.16932863 0.359279513 0.838537812
v 0.169123501 0.357287467 0.836537838
v 0.157350242 0.357892811 0.836537838
v 0.169328615 0.359279543 0.86128962
v 0.157401621 0.359892815 0.86128962
v 0.157350242 0.357892811 0.863289654
v 0.169123501 0.357287437 0.863289654
v -0.169328675 0.359279513 0.838537812
v -0.157401606 0.359892815 0.838537812
v -0.157350212 0.357892811 0.836537838
v -0.16912356 0.357287467 0.836537838
v -0.157401606 0.359892815 0.86128962
v -0.169328675 0.359279543 0.86128962
v -0.16912356 0.357287437 0.863289654
v -0.157350212 0.357892811 0.863289654
v 0.365169019 -0.308643341 0.838538289
v 0.361828268 -0.310388774 0.838538289
v 0.36107251 -0.308527142 0.836538315
v 0.364069492 -0.306961268 0.836538315
v 0.361828268 -0.310388774 0.861290157
v 0.365169019 -0.308643311 0.861290157
v 0.364069492 -0.306961268 0.863290131
v 0.36107251 -0.308527142 0.863290131
v -0.361828268 -0.310388774 0.838538289
v -0.365169019 -0.308643281 0.838538289
v -0.364069492 -0.306961238 0.836538315
v -0.36107251 -0.308527112 0.836538315
v -0.365169019 -0.308643281 0.861290157
v -0.361828268 -0.310388774 0.861290157
v -0.36107251 -0.308527082 0.863290131
v -0.364069492 -0.306961238 0.863290131
v -0.157401606 0.359892815 0.838537812
v 2.73437499e-14 0.359892815 0.838537812
v 2.73437499e-14 0.357892811 0.836537838
v -0.157350212 0.357892811 0.836537838
v 0.157350242 0.357892811 0.836537838
v 0.157401621 0.359892815 0.838537812
v 2.73437499e-14 0.359892815 0.86128962
v -0.157401606 0.359892815 0.86128962
v -0.157350212 0.357892811 0.863289654
v 2.73437499e-14 0.357892811 0.863289654
v 0.157401621 0.359892815 0.86128962
v 0.157350242 0.357892811 0.863289654
v 0.361828268 -0.310388774 0.838538289
v 0.358240485 -0.311458647 0.838538289
v 0.357859999 -0.309485078 0.836538315
v 0.36107251 -0.308527142 0.836538315
v 0.358240485 -0.311458647 0.861290157
v 0.361828268 -0.310388774 0.861290157
v 0.36107251 -0.308527142 0.863290131
v 0.357859999 -0.309485078 0.863290131
v -0.358240485 -0.311458588 0.838538289
v -0.361828268 -0.310388774 0.838538289
v -0.36107251 -0.308527112 0.836538315
v -0.35785991 -0.309485018 0.836538315
v -0.361828268 -0.310388774 0.861290157
v -0.358240485 -0.311458558 0.861290157
v -0.35785991 -0.309484988 0.863290131
v -0.36107251 -0.308527082 0.863290131
v -0.122199342 -0.271493763 0.861290097
v -0.122199342 -0.271493793 0.838538289
v -0.0650241673 -0.268370688 0.838538289
v -0.173256323 -0.276515216 0.861290097
v -0.0650241673 -0.268370658 0.861290097
v 2.73437499e-14 -0.267357856 0.838538289
v 2.73437499e-14 -0.267357826 0.861290097
v -0.173256323 -0.276515216 0.838538289
v -0.219926059 -0.283222735 0.861290097
v -0.219926059 -0.283222765 0.838538289
v -0.263939559 -0.291404396 0.861290097
v -0.263939559 -0.291404396 0.838538289
v -0.307027608 -0.300848067 0.861290157
v -0.307027608 -0.300848067 0.838538289
v -0.350921124 -0.311341703 0.861290157
v -0.350921124 -0.311341703 0.838538289
v -0.354555011 -0.311795413 0.861290157
v -0.354555011 -0.311795413 0.838538289
v -0.358240485 -0.311458558 0.861290157
v -0.358240485 -0.311458588 0.838538289
v -0.361828268 -0.310388774 0.861290157
v -0.361828268 -0.310388774 0.838538289
v -0.365169019 -0.308643281 0.861290157
v -0.365169019 -0.308643281 0.838538289
v -0.368113428 -0.306279629 0.861290157
v -0.368113428 -0.306279629 0.838538289
v -0.370511889 -0.303355187 0.861290157
v -0.370511889 -0.303355217 0.838538289
v 0.368113369 -0.3062796 0.861290157
v 0.368113369 -0.3062796 0.838538289
v 0.370511889 -0.303355217 0.838538289
v 0.370511889 -0.303355187 0.861290157
v 0.365169019 -0.308643311 0.861290157
v 0.365169019 -0.308643341 0.838538289
v 0.361828268 -0.310388774 0.861290157
v 0.361828268 -0.310388774 0.838538289
v 0.358240485 -0.311458647 0.861290157
v 0.358240485 -0.311458647 0.838538289
v 0.354554951 -0.311795413 0.861290157
v 0.354554951 -0.311795413 0.838538289
v 0.350921094 -0.311341703 0.861290157
v 0.350921124 -0.311341703 0.838538289
v 0.307027578 -0.300848067 0.861290157
v 0.307027578 -0.300848067 0.838538289
v 0.2639395 -0.291404337 0.861290097
v 0.2639395 -0.291404366 0.838538289
v 0.219926089 -0.283222705 0.861290097
v 0.219926089 -0.283222735 0.838538289
v 0.173256338 -0.276515186 0.861290097
v 0.173256323 -0.276515186 0.838538289
v 0.122199327 -0.271493852 0.861290097
v 0.122199327 -0.271493852 0.838538289
v 0.0650241971 -0.268370658 0.861290097
v 0.0650241971 -0.268370688 0.838538289
v 2.73437499e-14 -0.267357826 0.861290097
v 2.73437499e-14 -0.267357856 0.838538289
v -0.354555011 -0.311795413 0.838538289
v -0.358240485 -0.311458588 0.838538289
v -0.35785991 -0.309485018 0.836538315
v -0.35458827 -0.309784055 0.836538315
v -0.358240485 -0.311458558 0.861290157
v -0.354555011 -0.311795413 0.861290157
v -0.35458827 -0.309784025 0.863290131
v -0.35785991 -0.309484988 0.863290131
v 0.358240485 -0.311458647 0.838538289
v 0.354554951 -0.311795413 0.838538289
v 0.35458827 -0.309784055 0.836538315
v 0.357859999 -0.309485078 0.836538315
v 0.354554951 -0.311795413 0.861290157
v 0.358240485 -0.311458647 0.861290157
v 0.357859999 -0.309485078 0.863290131
v 0.35458824 -0.309784025 0.863290131
v 0.0650241971 -0.268370688 0.838538289
v 2.73437499e-14 -0.267357856 0.838538289
v 2.73437499e-14 -0.265357614 0.836538255
v 0.0650943369 -0.266371518 0.836538255
v 2.73437499e-14 -0.267357826 0.861290097
v 0.0650241971 -0.268370658 0.861290097
v 0.0650943369 -0.266371518 0.863290131
v 2.73437499e-14 -0.265357584 0.863290071
v 2.73437499e-14 -0.267357856 0.838538289
v -0.0650241673 -0.268370688 0.838538289
v -0.065094322 -0.266371518 0.836538255
v 2.73437499e-14 -0.265357614 0.836538255
v -0.0650241673 -0.268370658 0.861290097
v 2.73437499e-14 -0.267357826 0.861290097
v 2.73437499e-14 -0.265357584 0.863290071
v -0.065094322 -0.266371518 0.863290131
v -0.350921124 -0.311341703 0.838538289
v -0.354555011 -0.311795413 0.838538289
v -0.35458827 -0.309784055 0.836538315
v -0.351278663 -0.309370786 0.836538315
v -0.354555011 -0.311795413 0.861290157
v -0.350921124 -0.311341703 0.861290157
v -0.351278663 -0.309370786 0.863290131
v -0.35458827 -0.309784025 0.863290131
v 0.354554951 -0.311795413 0.838538289
v 0.350921124 -0.311341703 0.838538289
v 0.351278573 -0.309370786 0.836538315
v 0.35458827 -0.309784055 0.836538315
v 0.350921094 -0.311341703 0.861290157
v 0.354554951 -0.311795413 0.861290157
v 0.35458824 -0.309784025 0.863290131
v 0.351278603 -0.309370786 0.863290131
v -0.0650241673 -0.268370688 0.838538289
v -0.122199342 -0.271493793 0.838538289
v -0.122351818 -0.269499123 0.836538255
v -0.065094322 -0.266371518 0.836538255
v -0.122199342 -0.271493763 0.861290097
v -0.0650241673 -0.268370658 0.861290097
v -0.065094322 -0.266371518 0.863290131
v -0.122351818 -0.269499123 0.863290131
v 0.122199327 -0.271493852 0.838538289
v 0.0650241971 -0.268370688 0.838538289
v 0.0650943369 -0.266371518 0.836538255
v 0.122351818 -0.269499213 0.836538255
v 0.0650241971 -0.268370658 0.861290097
v 0.122199327 -0.271493852 0.861290097
v 0.122351818 -0.269499183 0.863290131
v 0.0650943369 -0.266371518 0.863290131
v -0.122199342 -0.271493793 0.838538289
v -0.173256323 -0.276515216 0.838538289
v -0.173496574 -0.274529189 0.836538315
v -0.122351818 -0.269499123 0.836538255
v -0.173256323 -0.276515216 0.861290097
v -0.122199342 -0.271493763 0.861290097
v -0.122351818 -0.269499123 0.863290131
v -0.173496574 -0.274529159 0.863290131
v 0.173256323 -0.276515186 0.838538289
v 0.122199327 -0.271493852 0.838538289
v 0.122351818 -0.269499213 0.836538255
v 0.173496589 -0.274529189 0.836538315
v 0.122199327 -0.271493852 0.861290097
v 0.173256338 -0.276515186 0.861290097
v 0.173496589 -0.274529159 0.863290131
v 0.122351818 -0.269499183 0.863290131
v -0.173256323 -0.276515216 0.838538289
v -0.219926059 -0.283222765 0.838538289
v -0.220251217 -0.281248927 0.836538315
v -0.173496574 -0.274529189 0.836538315
v -0.219926059 -0.283222735 0.861290097
v -0.173256323 -0.276515216 0.861290097
v -0.173496574 -0.274529159 0.863290131
v -0.220251217 -0.281248927 0.863290131
v 0.219926089 -0.283222735 0.838538289
v 0.173256323 -0.276515186 0.838538289
v 0.173496589 -0.274529189 0.836538315
v 0.220251232 -0.281248897 0.836538315
v 0.173256338 -0.276515186 0.861290097
v 0.219926089 -0.283222705 0.861290097
v 0.220251232 -0.281248868 0.863290131
v 0.173496589 -0.274529159 0.863290131
v -0.219926059 -0.283222765 0.838538289
v -0.263939559 -0.291404396 0.838538289
v -0.264336526 -0.28944391 0.836538315
v -0.220251217 -0.281248927 0.836538315
v -0.263939559 -0.291404396 0.861290097
v -0.219926059 -0.283222735 0.861290097
v -0.220251217 -0.281248927 0.863290131
v -0.264336526 -0.28944391 0.863290131
v 0.2639395 -0.291404366 0.838538289
v 0.219926089 -0.283222735 0.838538289
v 0.220251232 -0.281248897 0.836538315
v 0.264336467 -0.28944388 0.836538315
v 0.219926089 -0.283222705 0.861290097
v 0.2639395 -0.291404337 0.861290097
v 0.264336467 -0.28944388 0.863290131
v 0.220251232 -0.281248868 0.863290131
v -0.263939559 -0.291404396 0.838538289
v -0.307027608 -0.300848067 0.838538289
v -0.307474256 -0.298898488 0.836538315
v -0.264336526 -0.28944391 0.836538315
v -0.307027608 -0.300848067 0.861290157
v -0.263939559 -0.291404396 0.861290097
v -0.264336526 -0.28944391 0.863290131
v -0.307474256 -0.298898488 0.863290131
v 0.307027578 -0.300848067 0.838538289
v 0.2639395 -0.291404366 0.838538289
v 0.264336467 -0.28944388 0.836538315
v 0.307474226 -0.298898488 0.836538315
v 0.2639395 -0.291404337 0.861290097
v 0.307027578 -0.300848067 0.861290157
v 0.307474226 -0.298898488 0.863290131
v 0.264336467 -0.28944388 0.863290131
v -0.307027608 -0.300848067 0.838538289
v -0.350921124 -0.311341703 0.838538289
v -0.351278663 -0.309370786 0.836538315
v -0.307474256 -0.298898488 0.836538315
v -0.350921124 -0.311341703 0.861290157
v -0.307027608 -0.300848067 0.861290157
v -0.307474256 -0.298898488 0.863290131
v -0.351278663 -0.309370786 0.863290131
v 0.350921124 -0.311341703 0.838538289
v 0.307027578 -0.300848067 0.838538289
v 0.307474226 -0.298898488 0.836538315
v 0.351278573 -0.309370786 0.836538315
v 0.307027578 -0.300848067 0.861290157
v 0.350921094 -0.311341703 0.861290157
v 0.351278603 -0.309370786 0.863290131
v 0.307474226 -0.298898488 0.863290131
v 0.370371521 -0.299143583 0.836538315
v 0.36882174 -0.302262157 0.836538315
v 0.366698951 -0.30485031 0.836538315
v 0.364069492 -0.306961268 0.836538315
v 0.36107251 -0.308527142 0.836538315
v 0.357859999 -0.309485078 0.836538315
v 0.35458827 -0.309784055 0.836538315
v 0.351278573 -0.309370786 0.836538315
v 0.468815356 -0.0232505016 0.836538076
v 0.307474226 -0.298898488 0.836538315
v 0.264336467 -0.28944388 0.836538315
v 0.220251232 -0.281248897 0.836538315
v 0.173496589 -0.274529189 0.836538315
v 0.122351818 -0.269499213 0.836538255
v 0.474982172 0.000331939606 0.836538076
v 0.476953 0.0240945946 0.836538076
v 0.474884301 0.0476156548 0.836538076
v 0.4689098 0.0703849345 0.836538017
v 0.459163547 0.0918914303 0.836538017
v 0.445779681 0.111625127 0.836538017
v 0.42877233 0.129200041 0.836538017
v 0.232266158 0.329940677 0.836537838
v 0.0650943369 -0.266371518 0.836538255
v 2.73437499e-14 -0.265357614 0.836538255
v 0.223042339 0.337150812 0.836537838
v 0.213168979 0.343354642 0.836537838
v 0.202754796 0.348502219 0.836537838
v 0.191885397 0.352561504 0.836537838
v 0.18064642 0.355500579 0.836537838
v 0.169123501 0.357287467 0.836537838
v 0.157350242 0.357892811 0.836537838
v 2.73437499e-14 0.357892811 0.836537838
v -0.157350212 0.357892811 0.836537838
v -0.065094322 -0.266371518 0.836538255
v -0.122351818 -0.269499123 0.836538255
v -0.16912356 0.357287467 0.836537838
v -0.180646464 0.355500579 0.836537838
v -0.191885352 0.352561504 0.836537838
v -0.202754796 0.348502159 0.836537838
v -0.213168964 0.343354613 0.836537838
v -0.223042354 0.337150723 0.836537838
v -0.232266143 0.329940677 0.836537838
v -0.42877233 0.129200041 0.836538017
v -0.173496574 -0.274529189 0.836538315
v -0.220251217 -0.281248927 0.836538315
v -0.44577983 0.111625113 0.836538017
v -0.459163636 0.0918914303 0.836538017
v -0.46890986 0.0703849271 0.836538017
v -0.474884391 0.0476156548 0.836538076
v -0.47695294 0.0240945946 0.836538076
v -0.474982172 0.000331932475 0.836538076
v -0.468815356 -0.023250496 0.836538076
v -0.370371431 -0.299143583 0.836538315
v -0.264336526 -0.28944391 0.836538315
v -0.307474256 -0.298898488 0.836538315
v -0.351278663 -0.309370786 0.836538315
v -0.35458827 -0.309784055 0.836538315
v -0.35785991 -0.309485018 0.836538315
v -0.36107251 -0.308527112 0.836538315
v -0.364069492 -0.306961238 0.836538315
v -0.36669904 -0.30485034 0.836538315
v -0.36882174 -0.302262187 0.836538315
v -0.370371431 -0.299143583 0.863290131
v -0.36882174 -0.302262187 0.863290131
v -0.36669904 -0.30485034 0.863290131
v -0.364069492 -0.306961238 0.863290131
v -0.36107251 -0.308527082 0.863290131
v -0.35785991 -0.309484988 0.863290131
v -0.35458827 -0.309784025 0.863290131
v -0.351278663 -0.309370786 0.863290131
v -0.307474256 -0.298898488 0.863290131
v -0.264336526 -0.28944391 0.863290131
v -0.220251217 -0.281248927 0.863290131
v -0.468815356 -0.0232504718 0.863289893
v -0.474982172 0.000331951363 0.863289893
v -0.47695294 0.0240946133 0.863289893
v -0.474884391 0.0476156697 0.863289893
v -0.46890986 0.0703849494 0.863289833
v -0.459163636 0.0918914601 0.863289833
v -0.44577983 0.111625135 0.863289833
v -0.42877233 0.129200071 0.863289833
v -0.173496574 -0.274529159 0.863290131
v -0.122351818 -0.269499123 0.863290131
v -0.232266143 0.329940736 0.863289654
v -0.223042354 0.337150782 0.863289654
v -0.213168964 0.343354613 0.863289654
v -0.202754796 0.348502189 0.863289654
v -0.191885352 0.352561474 0.863289654
v -0.180646464 0.355500579 0.863289654
v -0.16912356 0.357287437 0.863289654
v -0.157350212 0.357892811 0.863289654
v -0.065094322 -0.266371518 0.863290131
v 2.73437499e-14 -0.265357584 0.863290071
v 2.73437499e-14 0.357892811 0.863289654
v 0.157350242 0.357892811 0.863289654
v 0.169123501 0.357287437 0.863289654
v 0.180646434 0.355500549 0.863289654
v 0.191885397 0.352561504 0.863289654
v 0.202754796 0.348502189 0.863289654
v 0.213168979 0.343354672 0.863289654
v 0.223042339 0.337150812 0.863289654
v 0.232266158 0.329940736 0.863289654
v 0.0650943369 -0.266371518 0.863290131
v 0.122351818 -0.269499183 0.863290131
v 0.42877233 0.129200071 0.863289833
v 0.445779681 0.111625142 0.863289833
v 0.459163547 0.0918914601 0.863289833
v 0.4689098 0.0703849569 0.863289833
v 0.474884301 0.0476156771 0.863289893
v 0.476953 0.0240946151 0.863289893
v 0.474982172 0.000331958523 0.863289893
v 0.468815356 -0.0232504774 0.863289893
v 0.173496589 -0.274529159 0.863290131
v 0.220251232 -0.281248868 0.863290131
v 0.264336467 -0.28944388 0.863290131
v 0.307474226 -0.298898488 0.863290131
v 0.351278603 -0.309370786 0.863290131
v 0.370371461 -0.299143583 0.863290131
v 0.35458824 -0.309784025 0.863290131
v 0.357859999 -0.309485078 0.863290131
v 0.36107251 -0.308527142 0.863290131
v 0.364069492 -0.306961268 0.863290131
v 0.366698951 -0.30485028 0.863290131
v 0.36882174 -0.302262127 0.863290131
vt 0.397638083 0.451615751
vt 0.397638083 0.548384249
vt 0.36786437 0.548384249
vt 0.36786437 0.451615751
vt 0.43008548 0.451615751
vt 0.43008548 0.548384249
vt 0.464437246 0.451615751
vt 0.464437246 0.548384249
vt 0.499924064 0.451615751
vt 0.499924064 0.548384249
vt 0.535776615 0.451615751
vt 0.535776615 0.548384249
vt 0.571225524 0.451615751
vt 0.571225524 0.548384249
vt 0.981848955 0.451615751
vt 0.981848955 0.548384249
vt 0.98694706 0.451615751
vt 0.98694706 0.548384249
vt 0.0181508064 0.451615751
vt 0.0181508064 0.548384249
vt 0.013052702 0.548384249
vt 0.013052702 0.451615751
vt 0.428774118 0.451615751
vt 0.428774118 0.548384249
vt 0.464223027 0.451615751
vt 0.464223027 0.548384249
vt 0.500075579 0.451615751
vt 0.500075579 0.548384249
vt 0.535562396 0.451615751
vt 0.535562396 0.548384249
vt 0.569914162 0.451615751
vt 0.569914162 0.548384249
vt 0.602361619 0.451615751
vt 0.602361619 0.548384249
vt 0.632135332 0.451615751
vt 0.632135332 0.548384249
vt 0.499999881 0.548384249
vt 0.499999881 0.451615751
vt 0.664151669 0.451615751
vt 0.664151669 0.548384249
vt 0.676590145 0.451615751
vt 0.676590145 0.548384249
vt 0.688818097 0.451615751
vt 0.688818097 0.548384249
vt 0.700744629 0.451615751
vt 0.700744629 0.548384249
vt 0.712278903 0.451615751
vt 0.712278962 0.548384249
vt 0.7233302 0.451615751
vt 0.7233302 0.548384249
vt 0.733807623 0.451615751
vt 0.733807623 0.548384249
vt 0.743620396 0.451615751
vt 0.743620396 0.548384249
vt 0.94865483 0.451615751
vt 0.94865483 0.548384249
vt 0.966521502 0.451615751
vt 0.966521502 0.548384249
vt 0.0513451099 0.451615751
vt 0.0513451099 0.548384249
vt 0.03347826 0.548384249
vt 0.03347826 0.451615751
vt 0.256379366 0.451615751
vt 0.256379366 0.548384249
vt 0.266192079 0.451615751
vt 0.266192079 0.548384249
vt 0.276669562 0.451615751
vt 0.276669562 0.548384249
vt 0.287720799 0.451615751
vt 0.287720799 0.548384249
vt 0.299255133 0.451615751
vt 0.299255133 0.548384249
vt 0.311181664 0.451615751
vt 0.311181664 0.548384249
vt 0.323409557 0.451615751
vt 0.323409557 0.548384249
vt 0.335848093 0.451615751
vt 0.335848093 0.548384249
vt 0.990991592 0.43008548
vt 0.99731195 0.464437246
vt 0.995249629 0.464948654
vt 0.989018917 0.431083977
vt 0.00268805027 0.464437246
vt 0.00900837779 0.43008548
vt 0.0109810531 0.431083977
vt 0.00475034118 0.464948654
vt 0.99731195 0.464437246
vt 0.999500453 0.499924064
vt 0.997407079 0.499931514
vt 0.995249629 0.464948654
vt 0.00049957633 0.499924064
vt 0.00268805027 0.464437246
vt 0.00475034118 0.464948654
vt 0.00259295106 0.499931514
vt 0.00268793106 0.464437604
vt 0.00900828838 0.430085838
vt 0.0109809637 0.431084335
vt 0.00475025177 0.464949012
vt 0.990991712 0.430085838
vt 0.997312069 0.464437604
vt 0.995249748 0.464949012
vt 0.989019036 0.431084335
vt 0.000499606133 0.499924421
vt 0.00268793106 0.464437604
vt 0.00475025177 0.464949012
vt 0.00259292126 0.499931872
vt 0.997312069 0.464437604
vt 0.999500394 0.499924421
vt 0.997407079 0.499931872
vt 0.995249748 0.464949012
vt 0.980680943 0.397638083
vt 0.990991592 0.43008548
vt 0.989018917 0.431083977
vt 0.978854716 0.399097383
vt 0.00900837779 0.43008548
vt 0.0193190575 0.397638083
vt 0.0211452842 0.399097383
vt 0.0109810531 0.431083977
vt 0.00900828838 0.430085838
vt 0.019318819 0.397638381
vt 0.0211451054 0.399097741
vt 0.0109809637 0.431084335
vt 0.980681181 0.397638381
vt 0.990991712 0.430085838
vt 0.989019036 0.431084335
vt 0.978854895 0.399097741
vt 0.999500453 0.499924064
vt 0.997415423 0.535776615
vt 0.995351732 0.535273671
vt 0.997407079 0.499931514
vt 0.00258460641 0.535776615
vt 0.00049957633 0.499924064
vt 0.00259295106 0.499931514
vt 0.00464826822 0.535273671
vt 0.0025844574 0.535776973
vt 0.000499606133 0.499924421
vt 0.00259292126 0.499931872
vt 0.00464820862 0.535274029
vt 0.999500394 0.499924421
vt 0.997415543 0.535776973
vt 0.995351791 0.535274029
vt 0.997407079 0.499931872
vt 0.966521502 0.36786437
vt 0.980680943 0.397638083
vt 0.978854716 0.399097383
vt 0.978854716 0.399097383
vt 0.964896858 0.369747519
vt 0.966521502 0.36786437
vt 0.0193190575 0.397638083
vt 0.0334784985 0.36786437
vt 0.0351031423 0.369747519
vt 0.0211452842 0.399097383
vt 0.019318819 0.397638381
vt 0.03347826 0.367864668
vt 0.0351028442 0.369747877
vt 0.0351028442 0.369747877
vt 0.0211451054 0.399097741
vt 0.019318819 0.397638381
vt 0.96652174 0.367864668
vt 0.980681181 0.397638381
vt 0.978854895 0.399097741
vt 0.978854895 0.399097741
vt 0.964897156 0.369747877
vt 0.96652174 0.367864668
vt 0.886401355 0.98694706
vt 0.883899927 0.99129647
vt 0.882424891 0.989170671
vt 0.884638667 0.985321343
vt 0.116100073 0.99129647
vt 0.113598645 0.98694706
vt 0.115361273 0.985321343
vt 0.117575109 0.989170671
vt 0.116100073 0.991296768
vt 0.113598704 0.986947298
vt 0.115361333 0.985321641
vt 0.117575049 0.989171028
vt 0.886401296 0.986947298
vt 0.883899927 0.991296768
vt 0.882424951 0.989171028
vt 0.884638667 0.985321641
vt 0.997415423 0.535776615
vt 0.990915418 0.571225524
vt 0.98892045 0.570347786
vt 0.995351732 0.535273671
vt 0.00908458233 0.571225524
vt 0.00258460641 0.535776615
vt 0.00464826822 0.535273671
vt 0.0110795498 0.570347786
vt 0.00908458233 0.571225882
vt 0.0025844574 0.535776973
vt 0.00464820862 0.535274029
vt 0.0110795498 0.570348084
vt 0.997415543 0.535776973
vt 0.990915418 0.571225882
vt 0.98892045 0.570348084
vt 0.995351791 0.535274029
vt 0.888177752 0.981848955
vt 0.886401355 0.98694706
vt 0.884638667 0.985321343
vt 0.886254907 0.980683088
vt 0.113598645 0.98694706
vt 0.111822218 0.981848955
vt 0.113745093 0.980683088
vt 0.115361273 0.985321343
vt 0.113598704 0.986947298
vt 0.111822248 0.981849194
vt 0.113745213 0.980683386
vt 0.115361333 0.985321641
vt 0.888177752 0.981849194
vt 0.886401296 0.986947298
vt 0.884638667 0.985321641
vt 0.886254787 0.980683386
vt 0.712278962 0.0147072077
vt 0.7233302 0.0224973559
vt 0.722310603 0.0250967145
vt 0.722310603 0.0250967145
vt 0.711449802 0.0174407959
vt 0.712278962 0.0147072077
vt 0.2766698 0.0224973559
vt 0.287721097 0.0147072077
vt 0.288550198 0.0174408555
vt 0.288550198 0.0174408555
vt 0.277689397 0.0250967741
vt 0.2766698 0.0224973559
vt 0.7233302 0.0224973559
vt 0.733807623 0.03188622
vt 0.732607365 0.0343236923
vt 0.722310603 0.0250967145
vt 0.266192377 0.03188622
vt 0.2766698 0.0224973559
vt 0.277689397 0.0250967741
vt 0.267392635 0.0343236923
vt 0.266192079 0.0318863988
vt 0.276669562 0.0224975944
vt 0.277689159 0.0250969529
vt 0.267392397 0.0343239307
vt 0.723330438 0.0224975944
vt 0.733807921 0.0318864584
vt 0.732607603 0.0343239307
vt 0.722310841 0.0250970125
vt 0.276669562 0.0224975944
vt 0.287720799 0.0147073269
vt 0.2885499 0.0174410343
vt 0.2885499 0.0174410343
vt 0.277689159 0.0250969529
vt 0.276669562 0.0224975944
vt 0.712279201 0.0147073269
vt 0.723330438 0.0224975944
vt 0.722310841 0.0250970125
vt 0.7114501 0.0174410343
vt 0.990915418 0.571225524
vt 0.888177752 0.981848955
vt 0.886254907 0.980683088
vt 0.98892045 0.570347786
vt 0.111822218 0.981848955
vt 0.00908458233 0.571225524
vt 0.0110795498 0.570347786
vt 0.113745093 0.980683088
vt 0.883899927 0.99129647
vt 0.880829334 0.994812071
vt 0.87968266 0.992310345
vt 0.882424891 0.989170671
vt 0.119170666 0.994812071
vt 0.116100073 0.99129647
vt 0.117575109 0.989170671
vt 0.12031734 0.992310345
vt 0.700744629 0.00856387615
vt 0.712278962 0.0147072077
vt 0.711449802 0.0174407959
vt 0.711449802 0.0174407959
vt 0.70011425 0.0114034414
vt 0.700744629 0.00856387615
vt 0.287721097 0.0147072077
vt 0.299255371 0.00856387615
vt 0.29988572 0.0114034414
vt 0.288550198 0.0174408555
vt 0.119170785 0.99481225
vt 0.116100073 0.991296768
vt 0.117575049 0.989171028
vt 0.120317459 0.992310524
vt 0.883899927 0.991296768
vt 0.880829215 0.99481225
vt 0.879682541 0.992310524
vt 0.882424951 0.989171028
vt 0.733807623 0.03188622
vt 0.743620396 0.0428253412
vt 0.742226779 0.0450472832
vt 0.742226779 0.0450472832
vt 0.732607365 0.0343236923
vt 0.733807623 0.03188622
vt 0.256379604 0.0428253412
vt 0.266192377 0.03188622
vt 0.267392635 0.0343236923
vt 0.267392635 0.0343236923
vt 0.257773221 0.0450472832
vt 0.256379604 0.0428253412
vt 0.111822248 0.981849194
vt 0.00908458233 0.571225882
vt 0.0110795498 0.570348084
vt 0.113745213 0.980683386
vt 0.990915418 0.571225882
vt 0.888177752 0.981849194
vt 0.886254787 0.980683386
vt 0.98892045 0.570348084
vt 0.287720799 0.0147073269
vt 0.299255133 0.00856411457
vt 0.299885511 0.0114035606
vt 0.299885511 0.0114035606
vt 0.2885499 0.0174410343
vt 0.287720799 0.0147073269
vt 0.700744867 0.00856411457
vt 0.712279201 0.0147073269
vt 0.7114501 0.0174410343
vt 0.700114489 0.0114036202
vt 0.256379366 0.0428254604
vt 0.266192079 0.0318863988
vt 0.267392397 0.0343239307
vt 0.267392397 0.0343239307
vt 0.257773042 0.0450474024
vt 0.256379366 0.0428254604
vt 0.733807921 0.0318864584
vt 0.743620634 0.0428254604
vt 0.742226958 0.0450474024
vt 0.732607603 0.0343239307
vt 0.688818097 0.00411593914
vt 0.700744629 0.00856387615
vt 0.70011425 0.0114034414
vt 0.688393295 0.00703215599
vt 0.299255371 0.00856387615
vt 0.311181903 0.00411593914
vt 0.311606675 0.00703215599
vt 0.29988572 0.0114034414
vt 0.299255133 0.00856411457
vt 0.311181664 0.00411605835
vt 0.311606407 0.0070322752
vt 0.311606407 0.0070322752
vt 0.299885511 0.0114035606
vt 0.299255133 0.00856411457
vt 0.688818336 0.00411605835
vt 0.700744867 0.00856411457
vt 0.700114489 0.0114036202
vt 0.688393593 0.0070322752
vt 0.94865483 0.341533661
vt 0.966521502 0.36786437
vt 0.964896858 0.369747519
vt 0.947160125 0.343608379
vt 0.0334784985 0.36786437
vt 0.0513451695 0.341533661
vt 0.0528398752 0.343608379
vt 0.0351031423 0.369747519
vt 0.743620396 0.0428253412
vt 0.94865483 0.341533661
vt 0.947160125 0.343608379
vt 0.947160125 0.343608379
vt 0.742226779 0.0450472832
vt 0.743620396 0.0428253412
vt 0.0513451695 0.341533661
vt 0.256379604 0.0428253412
vt 0.257773221 0.0450472832
vt 0.0528398752 0.343608379
vt 0.03347826 0.367864668
vt 0.0513451099 0.341533959
vt 0.052839756 0.343608677
vt 0.0351028442 0.369747877
vt 0.94865489 0.341533959
vt 0.96652174 0.367864668
vt 0.964897156 0.369747877
vt 0.947160244 0.343608677
vt 0.0513451099 0.341533959
vt 0.256379366 0.0428254604
vt 0.257773042 0.0450474024
vt 0.257773042 0.0450474024
vt 0.052839756 0.343608677
vt 0.0513451099 0.341533959
vt 0.743620634 0.0428254604
vt 0.94865489 0.341533959
vt 0.947160244 0.343608677
vt 0.947160244 0.343608677
vt 0.742226958 0.0450474024
vt 0.743620634 0.0428254604
vt 0.311181664 0.00411605835
vt 0.323409557 0.00141185522
vt 0.323623419 0.0043746233
vt 0.311606407 0.0070322752
vt 0.676590443 0.00141185522
vt 0.688818336 0.00411605835
vt 0.688393593 0.0070322752
vt 0.676376581 0.00437474251
vt 0.676590145 0.00141173601
vt 0.688818097 0.00411593914
vt 0.688393295 0.00703215599
vt 0.676376224 0.00437450409
vt 0.311181903 0.00411593914
vt 0.323409855 0.00141173601
vt 0.323623776 0.0043746233
vt 0.311606675 0.00703215599
vt 0.664151669 0.000499606133
vt 0.676590145 0.00141173601
vt 0.676376224 0.00437450409
vt 0.664098084 0.00347423553
vt 0.323409855 0.00141173601
vt 0.335848331 0.000499606133
vt 0.335901916 0.00347423553
vt 0.323623776 0.0043746233
vt 0.323409557 0.00141185522
vt 0.335848093 0.000499665737
vt 0.335901737 0.00347429514
vt 0.323623419 0.0043746233
vt 0.664151907 0.000499665737
vt 0.676590443 0.00141185522
vt 0.676376581 0.00437474251
vt 0.664098263 0.00347429514
vt 0.880829334 0.994812071
vt 0.877345324 0.997408092
vt 0.876557112 0.994639218
vt 0.87968266 0.992310345
vt 0.122654706 0.997408092
vt 0.119170666 0.994812071
vt 0.12031734 0.992310345
vt 0.123442888 0.994639218
vt 0.122654796 0.99740833
vt 0.119170785 0.99481225
vt 0.120317459 0.992310524
vt 0.123443007 0.994639397
vt 0.880829215 0.99481225
vt 0.877345204 0.99740833
vt 0.876556993 0.994639397
vt 0.879682541 0.992310524
vt 0.335848093 0.000499665737
vt 0.499999881 0.000499606133
vt 0.499999881 0.00347423553
vt 0.335901737 0.00347429514
vt 0.664098084 0.00347423553
vt 0.664151669 0.000499606133
vt 0.500000119 0.000499606133
vt 0.664151907 0.000499665737
vt 0.664098263 0.00347429514
vt 0.500000119 0.00347423553
vt 0.335848331 0.000499606133
vt 0.335901916 0.00347423553
vt 0.877345324 0.997408092
vt 0.873603642 0.998999298
vt 0.873206854 0.996064007
vt 0.876557112 0.994639218
vt 0.126396358 0.998999298
vt 0.122654706 0.997408092
vt 0.123442888 0.994639218
vt 0.126793146 0.996064007
vt 0.126396418 0.998999417
vt 0.122654796 0.99740833
vt 0.123443007 0.994639397
vt 0.126793265 0.996064126
vt 0.877345204 0.99740833
vt 0.873603582 0.998999417
vt 0.873206735 0.996064126
vt 0.876556993 0.994639397
vt 0.627439857 0.451615751
vt 0.627439857 0.548384249
vt 0.567812681 0.548384249
vt 0.680686355 0.451615751
vt 0.567812681 0.451615751
vt 0.49999997 0.548384249
vt 0.49999997 0.451615751
vt 0.680686355 0.548384249
vt 0.729357481 0.451615751
vt 0.729357481 0.548384249
vt 0.775258541 0.451615751
vt 0.775258541 0.548384249
vt 0.820194483 0.451615751
vt 0.820194483 0.548384249
vt 0.865970373 0.451615751
vt 0.865970373 0.548384249
vt 0.869760036 0.451615751
vt 0.869760036 0.548384249
vt 0.873603582 0.451615751
vt 0.873603582 0.548384249
vt 0.877345204 0.451615751
vt 0.877345204 0.548384249
vt 0.880829215 0.451615751
vt 0.880829215 0.548384249
vt 0.883899927 0.451615751
vt 0.883899927 0.548384249
vt 0.886401296 0.451615751
vt 0.886401296 0.548384249
vt 0.116100073 0.451615751
vt 0.116100073 0.548384249
vt 0.113598645 0.548384249
vt 0.113598645 0.451615751
vt 0.119170666 0.451615751
vt 0.119170666 0.548384249
vt 0.122654706 0.451615751
vt 0.122654706 0.548384249
vt 0.126396358 0.451615751
vt 0.126396358 0.548384249
vt 0.130239904 0.451615751
vt 0.130239904 0.548384249
vt 0.134029627 0.451615751
vt 0.134029597 0.548384249
vt 0.179805517 0.451615751
vt 0.179805517 0.548384249
vt 0.224741399 0.451615751
vt 0.224741399 0.548384249
vt 0.27064234 0.451615751
vt 0.27064234 0.548384249
vt 0.319313526 0.451615751
vt 0.319313556 0.548384249
vt 0.372560143 0.451615751
vt 0.372560143 0.548384249
vt 0.4321872 0.451615751
vt 0.4321872 0.548384249
vt 0.49999997 0.451615751
vt 0.49999997 0.548384249
vt 0.130239964 0.999500394
vt 0.126396418 0.998999417
vt 0.126793265 0.996064126
vt 0.130205274 0.996508896
vt 0.873603582 0.998999417
vt 0.869760036 0.999500394
vt 0.869794726 0.996508896
vt 0.873206735 0.996064126
vt 0.873603642 0.998999298
vt 0.869760096 0.999500155
vt 0.869794846 0.996508658
vt 0.873206854 0.996064007
vt 0.130239904 0.999500155
vt 0.126396358 0.998999298
vt 0.126793146 0.996064007
vt 0.130205214 0.996508658
vt 0.5678128 0.934914768
vt 0.5 0.93340838
vt 0.5 0.930433452
vt 0.567885935 0.93194139
vt 0.49999997 0.93340838
vt 0.4321872 0.934914768
vt 0.432114065 0.93194139
vt 0.49999997 0.930433452
vt 0.5 0.93340838
vt 0.432187319 0.934914827
vt 0.432114124 0.93194139
vt 0.5 0.930433452
vt 0.567812681 0.934914827
vt 0.49999997 0.93340838
vt 0.49999997 0.930433452
vt 0.567885876 0.93194145
vt 0.134029627 0.99882555
vt 0.130239964 0.999500394
vt 0.130205274 0.996508896
vt 0.133656859 0.995894253
vt 0.869760036 0.999500394
vt 0.865970373 0.99882555
vt 0.866343141 0.995894253
vt 0.869794726 0.996508896
vt 0.869760096 0.999500155
vt 0.865970373 0.998825312
vt 0.8663432 0.995894015
vt 0.869794846 0.996508658
vt 0.134029627 0.998825312
vt 0.130239904 0.999500155
vt 0.130205214 0.996508658
vt 0.1336568 0.995894015
vt 0.432187319 0.934914827
vt 0.372560143 0.939559817
vt 0.372401118 0.936593115
vt 0.432114124 0.93194139
vt 0.627439857 0.939559817
vt 0.567812681 0.934914827
vt 0.567885876 0.93194145
vt 0.627598882 0.936593175
vt 0.627439857 0.939559817
vt 0.5678128 0.934914768
vt 0.567885935 0.93194139
vt 0.627598882 0.936593175
vt 0.4321872 0.934914768
vt 0.372560143 0.939559817
vt 0.372401088 0.936593175
vt 0.432114065 0.93194139
vt 0.372560143 0.939559817
vt 0.319313645 0.94702816
vt 0.319063067 0.944074392
vt 0.372401118 0.936593115
vt 0.680686355 0.94702816
vt 0.627439857 0.939559817
vt 0.627598882 0.936593175
vt 0.680936933 0.944074392
vt 0.680686474 0.947027981
vt 0.627439857 0.939559817
vt 0.627598882 0.936593175
vt 0.680937052 0.944074214
vt 0.372560143 0.939559817
vt 0.319313526 0.947028041
vt 0.319062978 0.944074214
vt 0.372401088 0.936593175
vt 0.319313645 0.94702816
vt 0.270642519 0.957004309
vt 0.270303369 0.954068601
vt 0.319063067 0.944074392
vt 0.729357481 0.957004309
vt 0.680686355 0.94702816
vt 0.680936933 0.944074392
vt 0.729696631 0.954068661
vt 0.72935766 0.95700407
vt 0.680686474 0.947027981
vt 0.680937052 0.944074214
vt 0.729696751 0.954068422
vt 0.319313526 0.947028041
vt 0.27064234 0.95700407
vt 0.270303249 0.954068422
vt 0.319062978 0.944074214
vt 0.270642519 0.957004309
vt 0.224741459 0.969172835
vt 0.224327445 0.966257036
vt 0.270303369 0.954068601
vt 0.775258541 0.969172835
vt 0.729357481 0.957004309
vt 0.729696631 0.954068661
vt 0.775672555 0.966257095
vt 0.775258601 0.969172597
vt 0.72935766 0.95700407
vt 0.729696751 0.954068422
vt 0.775672555 0.966256797
vt 0.27064234 0.95700407
vt 0.224741399 0.969172597
vt 0.224327445 0.966256857
vt 0.270303249 0.954068422
vt 0.224741459 0.969172835
vt 0.179805517 0.983218431
vt 0.179339767 0.980318785
vt 0.224327445 0.966257036
vt 0.820194483 0.983218431
vt 0.775258541 0.969172835
vt 0.775672555 0.966257095
vt 0.820660233 0.980318785
vt 0.820194483 0.983218193
vt 0.775258601 0.969172597
vt 0.775672555 0.966256797
vt 0.820660293 0.980318606
vt 0.224741399 0.969172597
vt 0.179805517 0.983218193
vt 0.179339707 0.980318606
vt 0.224327445 0.966256857
vt 0.179805517 0.983218431
vt 0.134029627 0.99882555
vt 0.133656859 0.995894253
vt 0.179339767 0.980318785
vt 0.865970373 0.99882555
vt 0.820194483 0.983218431
vt 0.820660233 0.980318785
vt 0.866343141 0.995894253
vt 0.865970373 0.998825312
vt 0.820194483 0.983218193
vt 0.820660293 0.980318606
vt 0.8663432 0.995894015
vt 0.179805517 0.983218193
vt 0.134029627 0.998825312
vt 0.1336568 0.995894015
vt 0.179339707 0.980318606
vt 0.886254907 0.980683088
vt 0.884638667 0.985321343
vt 0.882424891 0.989170671
vt 0.87968266 0.992310345
vt 0.876557112 0.994639218
vt 0.873206854 0.996064007
vt 0.869794846 0.996508658
vt 0.8663432 0.995894015
vt 0.98892045 0.570347786
vt 0.820660293 0.980318606
vt 0.775672555 0.966256797
vt 0.729696751 0.954068422
vt 0.680937052 0.944074214
vt 0.627598882 0.936593175
vt 0.995351732 0.535273671
vt 0.997407079 0.499931514
vt 0.995249629 0.464948654
vt 0.989018917 0.431083977
vt 0.978854716 0.399097383
vt 0.964896858 0.369747519
vt 0.947160125 0.343608379
vt 0.742226779 0.0450472832
vt 0.567885935 0.93194139
vt 0.5 0.930433452
vt 0.732607365 0.0343236923
vt 0.722310603 0.0250967145
vt 0.711449802 0.0174407959
vt 0.70011425 0.0114034414
vt 0.688393295 0.00703215599
vt 0.676376224 0.00437450409
vt 0.664098084 0.00347423553
vt 0.499999881 0.00347423553
vt 0.335901737 0.00347429514
vt 0.432114124 0.93194139
vt 0.372401118 0.936593115
vt 0.323623419 0.0043746233
vt 0.311606407 0.0070322752
vt 0.299885511 0.0114035606
vt 0.2885499 0.0174410343
vt 0.277689159 0.0250969529
vt 0.267392397 0.0343239307
vt 0.257773042 0.0450474024
vt 0.052839756 0.343608677
vt 0.319063067 0.944074392
vt 0.270303369 0.954068601
vt 0.0351028442 0.369747877
vt 0.0211451054 0.399097741
vt 0.0109809637 0.431084335
vt 0.00475025177 0.464949012
vt 0.00259292126 0.499931872
vt 0.00464820862 0.535274029
vt 0.0110795498 0.570348084
vt 0.113745213 0.980683386
vt 0.224327445 0.966257036
vt 0.179339767 0.980318785
vt 0.133656859 0.995894253
vt 0.130205274 0.996508896
vt 0.126793265 0.996064126
vt 0.123443007 0.994639397
vt 0.120317459 0.992310524
vt 0.117575049 0.989171028
vt 0.115361333 0.985321641
vt 0.886254787 0.980683386
vt 0.884638667 0.985321641
vt 0.882424951 0.989171028
vt 0.879682541 0.992310524
vt 0.876556993 0.994639397
vt 0.873206735 0.996064126
vt 0.869794726 0.996508896
vt 0.866343141 0.995894253
vt 0.820660233 0.980318785
vt 0.775672555 0.966257095
vt 0.729696631 0.954068661
vt 0.98892045 0.570348084
vt 0.995351791 0.535274029
vt 0.997407079 0.499931872
vt 0.995249748 0.464949012
vt 0.989019036 0.431084335
vt 0.978854895 0.399097741
vt 0.964897156 0.369747877
vt 0.947160244 0.343608677
vt 0.680936933 0.944074392
vt 0.627598882 0.936593175
vt 0.742226958 0.0450474024
vt 0.732607603 0.0343239307
vt 0.722310841 0.0250970125
vt 0.7114501 0.0174410343
vt 0.700114489 0.0114036202
vt 0.688393593 0.0070322752
vt 0.676376581 0.00437474251
vt 0.664098263 0.00347429514
vt 0.567885876 0.93194145
vt 0.49999997 0.930433452
vt 0.500000119 0.00347423553
vt 0.335901916 0.00347423553
vt 0.323623776 0.0043746233
vt 0.311606675 0.00703215599
vt 0.29988572 0.0114034414
vt 0.288550198 0.0174408555
vt 0.277689397 0.0250967741
vt 0.267392635 0.0343236923
vt 0.257773221 0.0450472832
vt 0.432114065 0.93194139
vt 0.372401088 0.936593175
vt 0.0528398752 0.343608379
vt 0.0351031423 0.369747519
vt 0.0211452842 0.399097383
vt 0.0109810531 0.431083977
vt 0.00475034118 0.464948654
vt 0.00259295106 0.499931514
vt 0.00464826822 0.535273671
vt 0.0110795498 0.570347786
vt 0.319062978 0.944074214
vt 0.270303249 0.954068422
vt 0.224327445 0.966256857
vt 0.179339707 0.980318606
vt 0.1336568 0.995894015
vt 0.113745093 0.980683088
vt 0.130205214 0.996508658
vt 0.126793146 0.996064007
vt 0.123442888 0.994639218
vt 0.12031734 0.992310345
vt 0.117575109 0.989170671
vt 0.115361273 0.985321343
f 1/1 2/2 3/3
f 3/3 4/4 1/1
f 2/2 1/1 5/5
f 5/5 6/6 2/2
f 6/6 5/5 7/7
f 7/7 8/8 6/6
f 8/8 7/7 9/9
f 9/9 10/10 8/8
f 10/10 9/9 11/11
f 11/11 12/12 10/10
f 12/12 11/11 13/13
f 13/13 14/14 12/12
f 14/14 13/13 15/15
f 15/15 16/16 14/14
f 16/16 15/15 17/17
f 17/17 18/18 16/16
f 19/19 20/20 21/21
f 21/21 22/22 19/19
f 20/20 19/19 23/23
f 23/23 24/24 20/20
f 24/24 23/23 25/25
f 25/25 26/26 24/24
f 26/26 25/25 27/27
f 27/27 28/28 26/26
f 28/28 27/27 29/29
f 29/29 30/30 28/28
f 30/30 29/29 31/31
f 31/31 32/32 30/30
f 32/32 31/31 33/33
f 33/33 34/34 32/32
f 34/34 33/33 35/35
f 35/35 36/36 34/34
f 37/37 38/38 39/39
f 39/39 40/40 37/37
f 40/40 39/39 41/41
f 41/41 42/42 40/40
f 42/42 41/41 43/43
f 43/43 44/44 42/42
f 44/44 43/43 45/45
f 45/45 46/46 44/44
f 46/46 45/45 47/47
f 47/47 48/48 46/46
f 48/48 47/47 49/49
f 49/49 50/50 48/48
f 50/50 49/49 51/51
f 51/51 52/52 50/50
f 52/52 51/51 53/53
f 53/53 54/54 52/52
f 54/54 53/53 55/55
f 55/55 56/56 54/54
f 56/56 55/55 57/57
f 57/57 58/58 56/56
f 59/59 60/60 61/61
f 61/61 62/62 59/59
f 60/60 59/59 63/63
f 63/63 64/64 60/60
f 64/64 63/63 65/65
f 65/65 66/66 64/64
f 66/66 65/65 67/67
f 67/67 68/68 66/66
f 68/68 67/67 69/69
f 69/69 70/70 68/68
f 70/70 69/69 71/71
f 71/71 72/72 70/70
f 72/72 71/71 73/73
f 73/73 74/74 72/72
f 74/74 73/73 75/75
f 75/75 76/76 74/74
f 76/76 75/75 77/77
f 77/77 78/78 76/76
f 78/78 77/77 38/38
f 38/38 37/37 78/78
f 79/79 80/80 81/81
f 81/81 82/82 79/79
f 83/83 84/84 85/85
f 85/85 86/86 83/83
f 87/87 88/88 89/89
f 89/89 90/90 87/87
f 91/91 92/92 93/93
f 93/93 94/94 91/91
f 95/95 96/96 97/97
f 97/97 98/98 95/95
f 99/99 100/100 101/101
f 101/101 102/102 99/99
f 103/103 104/104 105/105
f 105/105 106/106 103/103
f 107/107 108/108 109/109
f 109/109 110/110 107/107
f 111/111 112/112 113/113
f 113/113 114/114 111/111
f 115/115 116/116 117/117
f 117/117 118/118 115/115
f 119/119 120/120 121/121
f 121/121 122/122 119/119
f 123/123 124/124 125/125
f 125/125 126/126 123/123
f 127/127 128/128 129/129
f 129/129 130/130 127/127
f 131/131 132/132 133/133
f 133/133 134/134 131/131
f 135/135 136/136 137/137
f 137/137 138/138 135/135
f 139/139 140/140 141/141
f 141/141 142/142 139/139
f 143/143 144/144 145/145
f 146/146 147/147 148/148
f 149/149 150/150 151/151
f 151/151 152/152 149/149
f 153/153 154/154 155/155
f 156/156 157/157 158/158
f 159/159 160/160 161/161
f 162/162 163/163 164/164
f 165/165 166/166 167/167
f 167/167 168/168 165/165
f 169/169 170/170 171/171
f 171/171 172/172 169/169
f 173/173 174/174 175/175
f 175/175 176/176 173/173
f 177/177 178/178 179/179
f 179/179 180/180 177/177
f 181/181 182/182 183/183
f 183/183 184/184 181/181
f 185/185 186/186 187/187
f 187/187 188/188 185/185
f 189/189 190/190 191/191
f 191/191 192/192 189/189
f 193/193 194/194 195/195
f 195/195 196/196 193/193
f 197/197 198/198 199/199
f 199/199 200/200 197/197
f 201/201 202/202 203/203
f 203/203 204/204 201/201
f 205/205 206/206 207/207
f 207/207 208/208 205/205
f 209/209 210/210 211/211
f 211/211 212/212 209/209
f 213/213 214/214 215/215
f 216/216 217/217 218/218
f 219/219 220/220 221/221
f 222/222 223/223 224/224
f 225/225 226/226 227/227
f 227/227 228/228 225/225
f 229/229 230/230 231/231
f 231/231 232/232 229/229
f 233/233 234/234 235/235
f 235/235 236/236 233/233
f 237/237 238/238 239/239
f 239/239 240/240 237/237
f 241/241 242/242 243/243
f 244/244 245/245 246/246
f 247/247 248/248 249/249
f 249/249 250/250 247/247
f 251/251 252/252 253/253
f 253/253 254/254 251/251
f 255/255 256/256 257/257
f 257/257 258/258 255/255
f 259/259 260/260 261/261
f 261/261 262/262 259/259
f 263/263 264/264 265/265
f 265/265 266/266 263/263
f 267/267 268/268 269/269
f 270/270 271/271 272/272
f 273/273 274/274 275/275
f 275/275 276/276 273/273
f 277/277 278/278 279/279
f 279/279 280/280 277/277
f 281/281 282/282 283/283
f 283/283 284/284 281/281
f 285/285 286/286 287/287
f 288/288 289/289 290/290
f 291/291 292/292 293/293
f 294/294 295/295 296/296
f 297/297 298/298 299/299
f 299/299 300/300 297/297
f 301/301 302/302 303/303
f 303/303 304/304 301/301
f 305/305 306/306 307/307
f 308/308 309/309 310/310
f 311/311 312/312 313/313
f 313/313 314/314 311/311
f 315/315 316/316 317/317
f 318/318 319/319 320/320
f 321/321 322/322 323/323
f 323/323 324/324 321/321
f 325/325 326/326 327/327
f 327/327 328/328 325/325
f 329/329 330/330 331/331
f 331/331 332/332 329/329
f 333/333 334/334 335/335
f 336/336 337/337 338/338
f 339/339 340/340 341/341
f 341/341 342/342 339/339
f 343/343 344/344 345/345
f 345/345 346/346 343/343
f 347/347 348/348 349/349
f 349/349 350/350 347/347
f 351/351 352/352 353/353
f 354/354 355/355 356/356
f 357/357 358/358 359/359
f 359/359 360/360 357/357
f 361/361 362/362 363/363
f 363/363 364/364 361/361
f 365/365 366/366 367/367
f 367/367 368/368 365/365
f 369/369 370/370 371/371
f 372/372 373/373 374/374
f 375/375 376/376 377/377
f 378/378 379/379 380/380
f 381/381 382/382 383/383
f 383/383 384/384 381/381
f 385/385 386/386 387/387
f 387/387 388/388 385/385
f 389/389 390/390 391/391
f 391/391 392/392 389/389
f 393/393 394/394 395/395
f 395/395 396/396 393/393
f 397/397 398/398 399/399
f 399/399 400/400 397/397
f 401/401 402/402 403/403
f 403/403 404/404 401/401
f 405/405 406/406 407/407
f 407/407 408/408 405/405
f 409/409 410/410 411/411
f 411/411 412/412 409/409
f 413/413 414/414 415/415
f 415/415 416/416 413/413
f 417/417 418/418 419/419
f 419/419 420/420 417/417
f 421/421 422/422 423/423
f 423/423 424/424 421/421
f 425/425 426/426 427/427
f 427/427 428/428 425/425
f 429/429 430/430 431/431
f 431/431 432/432 429/429
f 433/433 431/431 430/430
f 430/430 434/434 433/433
f 435/435 436/436 437/437
f 437/437 438/438 435/435
f 439/439 435/435 438/438
f 438/438 440/440 439/439
f 441/441 442/442 443/443
f 443/443 444/444 441/441
f 445/445 446/446 447/447
f 447/447 448/448 445/445
f 449/449 450/450 451/451
f 451/451 452/452 449/449
f 453/453 454/454 455/455
f 455/455 456/456 453/453
f 457/457 458/458 459/459
f 458/458 457/457 460/460
f 459/459 461/461 457/457
f 461/461 459/459 462/462
f 462/462 463/463 461/461
f 460/460 464/464 458/458
f 464/464 460/460 465/465
f 465/465 466/466 464/464
f 466/466 465/465 467/467
f 467/467 468/468 466/466
f 468/468 467/467 469/469
f 469/469 470/470 468/468
f 470/470 469/469 471/471
f 471/471 472/472 470/470
f 472/472 471/471 473/473
f 473/473 474/474 472/472
f 474/474 473/473 475/475
f 475/475 476/476 474/474
f 476/476 475/475 477/477
f 477/477 478/478 476/476
f 478/478 477/477 479/479
f 479/479 480/480 478/478
f 480/480 479/479 481/481
f 481/481 482/482 480/480
f 482/482 481/481 483/483
f 483/483 484/484 482/482
f 485/485 486/486 487/487
f 487/487 488/488 485/485
f 486/486 485/485 489/489
f 489/489 490/490 486/486
f 490/490 489/489 491/491
f 491/491 492/492 490/490
f 492/492 491/491 493/493
f 493/493 494/494 492/492
f 494/494 493/493 495/495
f 495/495 496/496 494/494
f 496/496 495/495 497/497
f 497/497 498/498 496/496
f 498/498 497/497 499/499
f 499/499 500/500 498/498
f 500/500 499/499 501/501
f 501/501 502/502 500/500
f 502/502 501/501 503/503
f 503/503 504/504 502/502
f 504/504 503/503 505/505
f 505/505 506/506 504/504
f 506/506 505/505 507/507
f 507/507 508/508 506/506
f 508/508 507/507 509/509
f 509/509 510/510 508/508
f 510/510 509/509 511/511
f 511/511 512/512 510/510
f 513/513 514/514 515/515
f 515/515 516/516 513/513
f 517/517 518/518 519/519
f 519/519 520/520 517/517
f 521/521 522/522 523/523
f 523/523 524/524 521/521
f 525/525 526/526 527/527
f 527/527 528/528 525/525
f 529/529 530/530 531/531
f 531/531 532/532 529/529
f 533/533 534/534 535/535
f 535/535 536/536 533/533
f 537/537 538/538 539/539
f 539/539 540/540 537/537
f 541/541 542/542 543/543
f 543/543 544/544 541/541
f 545/545 546/546 547/547
f 547/547 548/548 545/545
f 549/549 550/550 551/551
f 551/551 552/552 549/549
f 553/553 554/554 555/555
f 555/555 556/556 553/553
f 557/557 558/558 559/559
f 559/559 560/560 557/557
f 561/561 562/562 563/563
f 563/563 564/564 561/561
f 565/565 566/566 567/567
f 567/567 568/568 565/565
f 569/569 570/570 571/571
f 571/571 572/572 569/569
f 573/573 574/574 575/575
f 575/575 576/576 573/573
f 577/577 578/578 579/579
f 579/579 580/580 577/577
f 581/581 582/582 583/583
f 583/583 584/584 581/581
f 585/585 586/586 587/587
f 587/587 588/588 585/585
f 589/589 590/590 591/591
f 591/591 592/592 589/589
f 593/593 594/594 595/595
f 595/595 596/596 593/593
f 597/597 598/598 599/599
f 599/599 600/600 597/597
f 601/601 602/602 603/603
f 603/603 604/604 601/601
f 605/605 606/606 607/607
f 607/607 608/608 605/605
f 609/609 610/610 611/611
f 611/611 612/612 609/609
f 613/613 614/614 615/615
f 615/615 616/616 613/613
f 617/617 618/618 619/619
f 619/619 620/620 617/617
f 621/621 622/622 623/623
f 623/623 624/624 621/621
f 625/625 626/626 627/627
f 627/627 628/628 625/625
f 629/629 630/630 631/631
f 631/631 632/632 629/629
f 633/633 634/634 635/635
f 635/635 636/636 633/633
f 637/637 638/638 639/639
f 639/639 640/640 637/637
f 641/641 642/642 643/643
f 643/643 644/644 641/641
f 645/645 646/646 647/647
f 647/647 648/648 645/645
f 649/649 650/650 651/651
f 651/651 652/652 649/649
f 653/653 654/654 655/655
f 655/655 656/656 653/653
f 657/657 658/658 659/659
f 657/657 659/659 660/660
f 657/657 660/660 661/661
f 657/657 661/661 662/662
f 657/657 662/662 663/663
f 657/657 663/663 664/664
f 657/657 664/664 665/665
f 664/664 666/666 665/665
f 666/666 667/667 665/665
f 667/667 668/668 665/665
f 668/668 669/669 665/665
f 669/669 670/670 665/665
f 670/670 671/671 665/665
f 670/670 672/672 671/671
f 670/670 673/673 672/672
f 670/670 674/674 673/673
f 670/670 675/675 674/674
f 670/670 676/676 675/675
f 670/670 677/677 676/676
f 670/670 678/678 677/677
f 670/670 679/679 678/678
f 679/679 680/680 678/678
f 680/680 681/681 678/678
f 680/680 682/682 681/681
f 680/680 683/683 682/682
f 680/680 684/684 683/683
f 680/680 685/685 684/684
f 680/680 686/686 685/685
f 680/680 687/687 686/686
f 680/680 688/688 687/687
f 680/680 689/689 688/688
f 680/680 690/690 689/689
f 690/690 691/691 689/689
f 691/691 692/692 689/689
f 691/691 693/693 692/692
f 691/691 694/694 693/693
f 691/691 695/695 694/694
f 691/691 696/696 695/695
f 691/691 697/697 696/696
f 691/691 698/698 697/697
f 691/691 699/699 698/698
f 691/691 700/700 699/699
f 700/700 701/701 699/699
f 701/701 702/702 699/699
f 701/701 703/703 702/702
f 701/701 704/704 703/703
f 701/701 705/705 704/704
f 701/701 706/706 705/705
f 701/701 707/707 706/706
f 701/701 708/708 707/707
f 701/701 709/709 708/708
f 701/701 710/710 709/709
f 710/710 711/711 709/709
f 711/711 712/712 709/709
f 712/712 713/713 709/709
f 713/713 714/714 709/709
f 714/714 715/715 709/709
f 715/715 716/716 709/709
f 716/716 717/717 709/709
f 717/717 718/718 709/709
f 719/719 720/720 721/721
f 719/719 721/721 722/722
f 719/719 722/722 723/723
f 719/719 723/723 724/724
f 719/719 724/724 725/725
f 719/719 725/725 726/726
f 719/719 726/726 727/727
f 719/719 727/727 728/728
f 719/719 728/728 729/729
f 730/730 719/719 729/729
f 731/731 730/730 729/729
f 732/732 731/731 729/729
f 733/733 732/732 729/729
f 734/734 733/733 729/729
f 735/735 734/734 729/729
f 736/736 735/735 729/729
f 737/737 736/736 729/729
f 737/737 729/729 738/738
f 737/737 738/738 739/739
f 740/740 737/737 739/739
f 741/741 740/740 739/739
f 742/742 741/741 739/739
f 743/743 742/742 739/739
f 744/744 743/743 739/739
f 745/745 744/744 739/739
f 746/746 745/745 739/739
f 747/747 746/746 739/739
f 747/747 739/739 748/748
f 747/747 748/748 749/749
f 750/750 747/747 749/749
f 751/751 750/750 749/749
f 752/752 751/751 749/749
f 753/753 752/752 749/749
f 754/754 753/753 749/749
f 755/755 754/754 749/749
f 756/756 755/755 749/749
f 757/757 756/756 749/749
f 758/758 757/757 749/749
f 758/758 749/749 759/759
f 758/758 759/759 760/760
f 761/761 758/758 760/760
f 762/762 761/761 760/760
f 763/763 762/762 760/760
f 764/764 763/763 760/760
f 765/765 764/764 760/760
f 766/766 765/765 760/760
f 767/767 766/766 760/760
f 768/768 767/767 760/760
f 768/768 760/760 769/769
f 768/768 769/769 770/770
f 768/768 770/770 771/771
f 768/768 771/771 772/772
f 768/768 772/772 773/773
f 774/774 768/768 773/773
f 774/774 773/773 775/775
f 774/774 775/775 776/776
f 774/774 776/776 777/777
f 774/774 777/777 778/778
f 774/774 778/778 779/779
f 774/774 779/779 780/780
