v 0.00824504718 -0.556717575 0.125962004
v 0.01108055 -0.555365026 0.125962004
v 0.0110690296 -0.555804193 0.437022656
v 0.01108055 -0.555365026 1.08596206
v 0.00824504718 -0.556717575 1.08596206
v 0.00824455172 -0.556717515 0.775961995
v 0.00824455172 -0.556717515 0.775961995
v 0.0110690296 -0.555804193 0.77490139
v 0.01108055 -0.555365026 1.08596206
v 0.0110690296 -0.555804193 0.757022679
v 0.00824455172 -0.556717515 0.755962014
v 0.00824455172 -0.556717515 0.455962002
v 0.0110690296 -0.555804193 0.454901338
v 0.0110690296 -0.555804193 0.437022656
v 0.00824455172 -0.556717515 0.435961992
v 0.00824504718 -0.556717575 0.125962004
v 1.3592031 -0.5568645 0.755962014
v 0.0138416663 -0.5568645 0.755962014
v 0.0138416663 -0.5568645 0.455962002
v 1.3592031 -0.5568645 0.455962002
v 1.3592031 -0.5568645 1.08596206
v 0.0138411894 -0.5568645 1.08596206
v 0.0138416663 -0.5568645 0.775961995
v 1.3592031 -0.5568645 0.775961995
v 1.3592031 -0.5568645 0.125962004
v 1.3592031 -0.5568645 0.435961992
v 0.0138416663 -0.5568645 0.435961992
v 0.0138411894 -0.5568645 0.125962004
v -1.28524518 0.181364864 0.755962014
v -1.29443908 0.196863174 0.755962014
v -1.29443908 0.196863174 0.455962002
v -1.28524518 0.181364864 0.455962002
v -1.19735646 0.0495104231 0.755962014
v -1.19735646 0.0495104231 0.455962002
v -1.0972755 -0.0711091235 0.755962014
v -1.0972755 -0.0711091235 0.455962002
v -0.986095965 -0.179871023 0.755962014
v -0.986095965 -0.179871023 0.455962002
v -0.864911735 -0.276152253 0.755962014
v -0.864911735 -0.276152253 0.455962002
v -0.734816432 -0.359330028 0.755962014
v -0.734816432 -0.359330028 0.455962002
v -0.59690398 -0.42878136 0.755962014
v -0.59690398 -0.42878136 0.455962002
v -0.452268243 -0.483883381 0.755962014
v -0.452268243 -0.483883381 0.455962002
v -0.302002907 -0.524013221 0.755962014
v -0.302002907 -0.524013221 0.455962002
v -0.147201791 -0.548547864 0.755962014
v -0.147201791 -0.548547864 0.455962002
v 0.00824455172 -0.556717515 0.455962002
v 0.00824455172 -0.556717515 0.755962014
v -1.28524518 0.181364864 1.08596206
v -1.29443908 0.196863174 1.08596206
v -1.29443908 0.196863174 0.775961995
v -1.28524518 0.181364864 0.775961995
v -1.19735646 0.0495104231 1.08596206
v -1.19735646 0.0495104231 0.775961995
v -1.0972755 -0.0711091235 1.08596206
v -1.0972755 -0.0711091235 0.775961995
v -0.986095965 -0.179871023 1.08596206
v -0.986095965 -0.179871023 0.775961995
v -0.864911735 -0.276152253 1.08596206
v -0.864911735 -0.276152253 0.775961995
v -0.734816432 -0.359330028 1.08596206
v -0.734816432 -0.359330028 0.775961995
v -0.59690398 -0.42878136 1.08596206
v -0.59690398 -0.42878136 0.775961995
v -0.452268243 -0.483883381 1.08596206
v -0.452268243 -0.483883381 0.775961995
v -0.302002907 -0.524013221 1.08596206
v -0.302002907 -0.524013221 0.775961995
v -0.147201791 -0.548547864 1.08596206
v -0.147201791 -0.548547864 0.775961995
v 0.00824455172 -0.556717515 0.775961995
v 0.00824504718 -0.556717575 1.08596206
v -1.29443908 0.196863174 0.125962004
v -1.28524518 0.181364864 0.125962004
v -1.28524518 0.181364864 0.435961992
v -1.29443908 0.196863174 0.435961992
v -1.19735646 0.0495104231 0.435961992
v -1.19735646 0.0495104231 0.125962004
v -1.0972755 -0.0711091235 0.435961992
v -1.0972755 -0.0711091235 0.125962004
v -0.986095965 -0.179871023 0.435961992
v -0.986095965 -0.179871023 0.125962004
v -0.864911735 -0.276152253 0.435961992
v -0.864911735 -0.276152253 0.125962004
v -0.734816432 -0.359330028 0.435961992
v -0.734816432 -0.359330028 0.125962004
v -0.59690398 -0.42878136 0.435961992
v -0.59690398 -0.42878136 0.125962004
v -0.452268243 -0.483883381 0.435961992
v -0.452268243 -0.483883381 0.125962004
v -0.302002907 -0.524013221 0.435961992
v -0.302002907 -0.524013221 0.125962004
v -0.147201791 -0.548547864 0.435961992
v -0.147201791 -0.548547864 0.125962004
v 0.00824455172 -0.556717515 0.435961992
v 0.00824504718 -0.556717575 0.125962004
v 0.0110690296 -0.555804193 0.454901338
v 0.0138416663 -0.5568645 0.455962002
v 0.0138416663 -0.5568645 0.755962014
v 0.0110690296 -0.555804193 0.757022679
v 0.0110690296 -0.555804193 0.77490139
v 0.0138416663 -0.5568645 0.775961995
v 0.0138411894 -0.5568645 1.08596206
v 0.0138416663 -0.5568645 0.435961992
v 0.0110690296 -0.555804193 0.437022656
v 0.01108055 -0.555365026 0.125962004
v 0.0138411894 -0.5568645 1.08596206
v 0.01108055 -0.555365026 1.08596206
v 0.0110690296 -0.555804193 0.77490139
v 0.01108055 -0.555365026 0.125962004
v 0.0138411894 -0.5568645 0.125962004
v 0.0138416663 -0.5568645 0.435961992
vt 0.979999959 0.393836677
vt 0.979999959 0.391634762
vt 0.668939352 0.391495347
vt 0.0200000107 0.391634822
vt 0.0200000107 0.393836737
vt 0.330000013 0.393837214
vt 0.330000013 0.393837214
vt 0.331060618 0.391495407
vt 0.0200000107 0.391634822
vt 0.348939329 0.391495407
vt 0.349999994 0.393837214
vt 0.649999976 0.393837154
vt 0.651060641 0.391495347
vt 0.668939352 0.391495347
vt 0.669999957 0.393837154
vt 0.979999959 0.393836677
vt 0.349999934 -0.875699043
vt 0.349999994 0.388527334
vt 0.649999976 0.388527274
vt 0.649999976 -0.875699043
vt 0.0199999511 -0.875699043
vt 0.0200000107 0.388527751
vt 0.330000013 0.388527334
vt 0.329999954 -0.875699043
vt 0.979999959 -0.875699043
vt 0.669999957 -0.875699043
vt 0.669999957 0.388527274
vt 0.979999959 0.388527751
vt 0.350000054 1.86175871
vt 0.350000054 1.87569904
vt 0.650000095 1.87569904
vt 0.650000095 1.86175871
vt 0.350000054 1.73407364
vt 0.650000095 1.73407364
vt 0.350000054 1.59877396
vt 0.650000036 1.59877396
vt 0.349999994 1.45710063
vt 0.650000036 1.45710063
vt 0.349999994 1.31029463
vt 0.650000036 1.31029463
vt 0.349999994 1.15959656
vt 0.649999976 1.15959656
vt 0.349999994 1.00624752
vt 0.649999976 1.00624752
vt 0.349999994 0.851488411
vt 0.649999976 0.851488352
vt 0.349999994 0.696559966
vt 0.649999976 0.696559966
vt 0.349999994 0.542703152
vt 0.649999976 0.542703152
vt 0.649999976 0.393837154
vt 0.349999994 0.393837214
vt 0.0200000703 1.86175871
vt 0.0200000703 1.87569904
vt 0.330000073 1.87569904
vt 0.330000073 1.86175871
vt 0.0200000703 1.73407364
vt 0.330000073 1.73407364
vt 0.0200000703 1.59877408
vt 0.330000073 1.59877396
vt 0.0200000107 1.45710063
vt 0.330000013 1.45710063
vt 0.0200000107 1.31029463
vt 0.330000013 1.31029463
vt 0.0200000107 1.15959668
vt 0.330000013 1.15959656
vt 0.0200000107 1.00624752
vt 0.330000013 1.00624752
vt 0.0200000107 0.851488411
vt 0.330000013 0.851488411
vt 0.0200000107 0.696559966
vt 0.330000013 0.696559966
vt 0.0200000107 0.542703152
vt 0.330000013 0.542703152
vt 0.330000013 0.393837214
vt 0.0200000107 0.393836737
vt 0.980000019 1.87569904
vt 0.980000019 1.86175871
vt 0.670000076 1.86175871
vt 0.670000076 1.87569904
vt 0.670000076 1.73407364
vt 0.980000019 1.73407364
vt 0.670000017 1.59877396
vt 0.980000019 1.59877396
vt 0.670000017 1.45710063
vt 0.980000019 1.45710063
vt 0.670000017 1.31029463
vt 0.980000019 1.31029463
vt 0.669999957 1.15959656
vt 0.980000019 1.15959656
vt 0.669999957 1.00624752
vt 0.980000019 1.00624752
vt 0.669999957 0.851488352
vt 0.980000019 0.851488352
vt 0.669999957 0.696559966
vt 0.980000019 0.696559906
vt 0.669999957 0.542703152
vt 0.979999959 0.542703152
vt 0.669999957 0.393837154
vt 0.979999959 0.393836677
vt 0.651060641 0.391495347
vt 0.649999976 0.388527274
vt 0.349999994 0.388527334
vt 0.348939329 0.391495407
vt 0.331060618 0.391495407
vt 0.330000013 0.388527334
vt 0.0200000107 0.388527751
vt 0.669999957 0.388527274
vt 0.668939352 0.391495347
vt 0.979999959 0.391634762
vt 0.0200000107 0.388527751
vt 0.0200000107 0.391634822
vt 0.331060618 0.391495407
vt 0.979999959 0.391634762
vt 0.979999959 0.388527751
vt 0.669999957 0.388527274
f 1/1 2/2 3/3
f 4/4 5/5 6/6
f 7/7 8/8 9/9
f 10/10 11/11 12/12
f 12/12 13/13 10/10
f 14/14 15/15 16/16
f 17/17 18/18 19/19
f 19/19 20/20 17/17
f 21/21 22/22 23/23
f 23/23 24/24 21/21
f 25/25 26/26 27/27
f 27/27 28/28 25/25
f 29/29 30/30 31/31
f 31/31 32/32 29/29
f 33/33 29/29 32/32
f 32/32 34/34 33/33
f 35/35 33/33 34/34
f 34/34 36/36 35/35
f 37/37 35/35 36/36
f 36/36 38/38 37/37
f 39/39 37/37 38/38
f 38/38 40/40 39/39
f 41/41 39/39 40/40
f 40/40 42/42 41/41
f 43/43 41/41 42/42
f 42/42 44/44 43/43
f 45/45 43/43 44/44
f 44/44 46/46 45/45
f 47/47 45/45 46/46
f 46/46 48/48 47/47
f 49/49 47/47 48/48
f 48/48 50/50 49/49
f 49/49 50/50 51/51
f 51/51 52/52 49/49
f 53/53 54/54 55/55
f 55/55 56/56 53/53
f 57/57 53/53 56/56
f 56/56 58/58 57/57
f 59/59 57/57 58/58
f 58/58 60/60 59/59
f 61/61 59/59 60/60
f 60/60 62/62 61/61
f 63/63 61/61 62/62
f 62/62 64/64 63/63
f 65/65 63/63 64/64
f 64/64 66/66 65/65
f 67/67 65/65 66/66
f 66/66 68/68 67/67
f 69/69 67/67 68/68
f 68/68 70/70 69/69
f 71/71 69/69 70/70
f 70/70 72/72 71/71
f 73/73 71/71 72/72
f 72/72 74/74 73/73
f 73/73 74/74 75/75
f 75/75 76/76 73/73
f 77/77 78/78 79/79
f 79/79 80/80 77/77
f 81/81 79/79 78/78
f 78/78 82/82 81/81
f 83/83 81/81 82/82
f 82/82 84/84 83/83
f 85/85 83/83 84/84
f 84/84 86/86 85/85
f 87/87 85/85 86/86
f 86/86 88/88 87/87
f 89/89 87/87 88/88
f 88/88 90/90 89/89
f 91/91 89/89 90/90
f 90/90 92/92 91/91
f 93/93 91/91 92/92
f 92/92 94/94 93/93
f 95/95 93/93 94/94
f 94/94 96/96 95/95
f 97/97 95/95 96/96
f 96/96 98/98 97/97
f 99/99 97/97 98/98
f 98/98 100/100 99/99
f 101/101 102/102 103/103
f 103/103 104/104 101/101
f 105/105 106/106 107/107
f 108/108 109/109 110/110
f 111/111 112/112 113/113
f 114/114 115/115 116/116
