v -0.948478162 -0.453992993 0.135215253
v -0.949781835 -0.45268929 0.135215253
v -0.94046402 -0.443371713 0.00129644014
v -0.939160347 -0.444675386 0.00129644212
v -0.939160645 0.438046992 0.00129630696
v -0.940464377 0.436743289 0.00129630952
v -0.949782133 0.446061343 0.135215089
v -0.94847846 0.447365046 0.135215074
v 0.939160466 0.438046813 0.00129648263
v 0.948478222 0.447364837 0.135215253
v 0.949781954 0.446061164 0.135215268
v 0.949781954 0.446061164 0.135215268
v 0.940464079 0.43674314 0.00129648694
v 0.939160466 0.438046813 0.00129648263
v 0.948478401 -0.453993112 0.135215089
v 0.939160526 -0.444675535 0.00129627413
v 0.940464258 -0.443371862 0.0012962746
v 0.940464258 -0.443371862 0.0012962746
v 0.949782014 -0.452689439 0.135215089
v 0.948478401 -0.453993112 0.135215089
v -0.949781716 -0.385492653 0.135215133
v -0.94046396 -0.394810706 0.00129636016
v -0.94046402 -0.443371713 0.00129644014
v -0.949781835 -0.45268929 0.135215253
v -0.949782133 0.446061343 0.135215089
v -0.940464377 0.436743289 0.00129630952
v -0.940464437 0.388182282 0.0012963895
v -0.949782252 0.378864706 0.135215193
v 0.949781954 0.446061164 0.135215268
v 0.949782014 0.378864497 0.135215372
v 0.940464258 0.388182104 0.0012965654
v 0.940464079 0.43674314 0.00129648694
v 0.949781954 -0.385492802 0.13521497
v 0.949782014 -0.452689439 0.135215089
v 0.940464258 -0.443371862 0.0012962746
v 0.940464079 -0.394810826 0.00129619625
v -0.949781835 -0.45268929 0.135215253
v -0.948478162 -0.453992993 0.135215253
v -0.948579848 -0.452790976 0.136511549
v -0.949782133 0.446061343 0.135215089
v -0.948580146 0.446163028 0.136511385
v -0.94847846 0.447365046 0.135215074
v 0.949781954 0.446061164 0.135215268
v 0.948478222 0.447364837 0.135215253
v 0.948579967 0.44616282 0.136511564
v 0.949782014 -0.452689439 0.135215089
v 0.948580027 -0.452791095 0.136511371
v 0.948478401 -0.453993112 0.135215089
v -0.939066052 -0.443277419 1.38750735e-07
v -0.939160347 -0.444675386 0.00129644212
v -0.94046402 -0.443371713 0.00129644014
v -0.93906635 0.436648995 8.54915783e-09
v -0.940464377 0.436743289 0.00129630952
v -0.939160645 0.438046992 0.00129630696
v 0.939066172 0.436648816 1.86070764e-07
v 0.939160466 0.438046813 0.00129648263
v 0.940464079 0.43674314 0.00129648694
v 0.939066231 -0.443277538 -2.62641375e-08
v 0.940464258 -0.443371862 0.0012962746
v 0.939160526 -0.444675535 0.00129627413
v -0.948579729 -0.385390967 0.13651143
v -0.949781716 -0.385492653 0.135215133
v -0.949781835 -0.45268929 0.135215253
v -0.948579848 -0.452790976 0.136511549
v -0.948580146 0.446163028 0.136511385
v -0.949782133 0.446061343 0.135215089
v -0.949782252 0.378864706 0.135215193
v -0.948580265 0.37876302 0.136511505
v 0.948579967 0.44616282 0.136511564
v 0.948580027 0.378762841 0.136511669
v 0.949782014 0.378864497 0.135215372
v 0.949781954 0.446061164 0.135215268
v 0.948579967 -0.385391116 0.136511266
v 0.948580027 -0.452791095 0.136511371
v 0.949782014 -0.452689439 0.135215089
v 0.949781954 -0.385492802 0.13521497
v -0.939066052 -0.443277419 1.38750735e-07
v -0.94046402 -0.443371713 0.00129644014
v -0.94046396 -0.394810706 0.00129636016
v -0.939065933 -0.394905001 5.91368199e-08
v -0.93906647 0.388276577 8.81630697e-08
v -0.940464437 0.388182282 0.0012963895
v -0.940464377 0.436743289 0.00129630952
v -0.93906635 0.436648995 8.54915783e-09
v 0.939066231 0.388276398 2.64522811e-07
v 0.939066172 0.436648816 1.86070764e-07
v 0.940464079 0.43674314 0.00129648694
v 0.940464258 0.388182104 0.0012965654
v 0.939066231 -0.443277538 -2.62641375e-08
v 0.939066172 -0.39490512 -1.04716172e-07
v 0.940464079 -0.394810826 0.00129619625
v 0.940464258 -0.443371862 0.0012962746
v -0.939160347 -0.444675386 0.00129644212
v -0.89059937 -0.444675475 0.00129643234
v -0.881281495 -0.453993112 0.135215238
v -0.948478162 -0.453992993 0.135215253
v -0.939160645 0.438046992 0.00129630696
v -0.94847846 0.447365046 0.135215074
v -0.881281793 0.447364926 0.135215074
v -0.890599668 0.438046902 0.00129629718
v 0.939160466 0.438046813 0.00129648263
v 0.89059943 0.438046724 0.00129648263
v 0.881281614 0.447364718 0.135215253
v 0.948478222 0.447364837 0.135215253
v 0.939160526 -0.444675535 0.00129627413
v 0.948478401 -0.453993112 0.135215089
v 0.881281734 -0.453993261 0.135215089
v 0.890599489 -0.444675624 0.00129627413
v -0.939160228 -0.393507004 0.0012963576
v -0.94046396 -0.394810706 0.00129636016
v -0.949781716 -0.385492653 0.135215133
v -0.948478043 -0.38418895 0.135215133
v -0.94847858 0.377561003 0.135215193
v -0.949782252 0.378864706 0.135215193
v -0.940464437 0.388182282 0.0012963895
v -0.939160764 0.38687861 0.00129639148
v 0.948478401 0.377560824 0.135215372
v 0.939160526 0.386878431 0.00129656494
v 0.940464258 0.388182104 0.0012965654
v 0.940464258 0.388182104 0.0012965654
v 0.949782014 0.378864497 0.135215372
v 0.948478401 0.377560824 0.135215372
v 0.939160466 -0.393507153 0.00129619194
v 0.948478222 -0.384189129 0.135214955
v 0.949781954 -0.385492802 0.13521497
v 0.949781954 -0.385492802 0.13521497
v 0.940464079 -0.394810826 0.00129619625
v 0.939160466 -0.393507153 0.00129619194
v -0.949781716 -0.385492653 0.135215133
v -0.948579729 -0.385390967 0.13651143
v -0.948478043 -0.38418895 0.135215133
v -0.949782252 0.378864706 0.135215193
v -0.94847858 0.377561003 0.135215193
v -0.948580265 0.37876302 0.136511505
v 0.949782014 0.378864497 0.135215372
v 0.948580027 0.378762841 0.136511669
v 0.948478401 0.377560824 0.135215372
v 0.949781954 -0.385492802 0.13521497
v 0.948478222 -0.384189129 0.135214955
v 0.948579967 -0.385391116 0.136511266
v -0.881281495 -0.453993112 0.135215238
v -0.88117981 -0.452791095 0.136511534
v -0.948579848 -0.452790976 0.136511549
v -0.948478162 -0.453992993 0.135215253
v -0.94847846 0.447365046 0.135215074
v -0.948580146 0.446163028 0.136511385
v -0.881180108 0.446162909 0.136511371
v -0.881281793 0.447364926 0.135215074
v 0.948478222 0.447364837 0.135215253
v 0.881281614 0.447364718 0.135215253
v 0.881179869 0.446162701 0.136511564
v 0.948579967 0.44616282 0.136511564
v 0.881281734 -0.453993261 0.135215089
v 0.948478401 -0.453993112 0.135215089
v 0.948580027 -0.452791095 0.136511371
v 0.881180048 -0.452791274 0.136511385
v -0.939160347 -0.444675386 0.00129644212
v -0.939066052 -0.443277419 1.38750735e-07
v -0.890693665 -0.443277508 1.28976239e-07
v -0.89059937 -0.444675475 0.00129643234
v -0.890599668 0.438046902 0.00129629718
v -0.890693963 0.436648905 -1.22533916e-09
v -0.93906635 0.436648995 8.54915783e-09
v -0.939160645 0.438046992 0.00129630696
v 0.89059943 0.438046724 0.00129648263
v 0.939160466 0.438046813 0.00129648263
v 0.939066172 0.436648816 1.86070764e-07
v 0.890693724 0.436648726 1.86070721e-07
v 0.939160526 -0.444675535 0.00129627413
v 0.890599489 -0.444675624 0.00129627413
v 0.890693843 -0.443277627 -2.62641642e-08
v 0.939066231 -0.443277538 -2.62641375e-08
v -0.939065933 -0.394905001 5.91368199e-08
v -0.94046396 -0.394810706 0.00129636016
v -0.939160228 -0.393507004 0.0012963576
v -0.93906647 0.388276577 8.81630697e-08
v -0.939160764 0.38687861 0.00129639148
v -0.940464437 0.388182282 0.0012963895
v 0.939066231 0.388276398 2.64522811e-07
v 0.940464258 0.388182104 0.0012965654
v 0.939160526 0.386878431 0.00129656494
v 0.939066172 -0.39490512 -1.04716172e-07
v 0.939160466 -0.393507153 0.00129619194
v 0.940464079 -0.394810826 0.00129619625
v -0.939065933 -0.394905001 5.91368199e-08
v -0.890693545 -0.39490509 4.93623205e-08
v -0.890693665 -0.443277508 1.28976239e-07
v -0.939066052 -0.443277419 1.38750735e-07
v -0.88117969 -0.385391116 0.13651143
v -0.948579729 -0.385390967 0.13651143
v -0.948579848 -0.452790976 0.136511549
v -0.88117981 -0.452791095 0.136511534
v -0.93906635 0.436648995 8.54915783e-09
v -0.890693963 0.436648905 -1.22533916e-09
v -0.890694082 0.388276488 7.8388581e-08
v -0.93906647 0.388276577 8.81630697e-08
v -0.881180108 0.446162909 0.136511371
v -0.948580146 0.446163028 0.136511385
v -0.948580265 0.37876302 0.136511505
v -0.881180227 0.378762901 0.13651149
v 0.939066172 0.436648816 1.86070764e-07
v 0.939066231 0.388276398 2.64522811e-07
v 0.890693843 0.388276339 2.64522782e-07
v 0.890693724 0.436648726 1.86070721e-07
v 0.881179869 0.446162701 0.136511564
v 0.881180048 0.378762692 0.136511683
v 0.948580027 0.378762841 0.136511669
v 0.948579967 0.44616282 0.136511564
v 0.939066172 -0.39490512 -1.04716172e-07
v 0.939066231 -0.443277538 -2.62641375e-08
v 0.890693843 -0.443277627 -2.62641642e-08
v 0.890693724 -0.394905239 -1.04716207e-07
v 0.881179869 -0.385391235 0.136511281
v 0.881180048 -0.452791274 0.136511385
v 0.948580027 -0.452791095 0.136511371
v 0.948579967 -0.385391116 0.136511266
v -0.889295638 -0.443371803 0.00129642978
v -0.89059937 -0.444675475 0.00129643234
v -0.890693665 -0.443277508 1.28976239e-07
v -0.890599668 0.438046902 0.00129629718
v -0.889295995 0.4367432 0.00129629916
v -0.890693963 0.436648905 -1.22533916e-09
v 0.89059943 0.438046724 0.00129648263
v 0.890693724 0.436648726 1.86070721e-07
v 0.889295757 0.436743021 0.00129648694
v 0.889295816 -0.443371922 0.0012962746
v 0.890693843 -0.443277627 -2.62641642e-08
v 0.890599489 -0.444675624 0.00129627413
v -0.890599251 -0.393507093 0.00129634782
v -0.890693545 -0.39490509 4.93623205e-08
v -0.939065933 -0.394905001 5.91368199e-08
v -0.939160228 -0.393507004 0.0012963576
v -0.939160764 0.38687861 0.00129639148
v -0.93906647 0.388276577 8.81630697e-08
v -0.890694082 0.388276488 7.8388581e-08
v -0.890599787 0.38687852 0.0012963817
v 0.939160526 0.386878431 0.00129656494
v 0.890599489 0.386878312 0.00129656494
v 0.890693843 0.388276339 2.64522782e-07
v 0.939066231 0.388276398 2.64522811e-07
v 0.89059943 -0.393507242 0.00129619194
v 0.939160466 -0.393507153 0.00129619194
v 0.939066172 -0.39490512 -1.04716172e-07
v 0.890693724 -0.394905239 -1.04716207e-07
v -0.88117981 -0.452791095 0.136511534
v -0.881281495 -0.453993112 0.135215238
v -0.879977822 -0.452689439 0.135215238
v -0.881281793 0.447364926 0.135215074
v -0.881180108 0.446162909 0.136511371
v -0.87997812 0.446061224 0.135215074
v 0.881281614 0.447364718 0.135215253
v 0.879977882 0.446061045 0.135215268
v 0.881179869 0.446162701 0.136511564
v 0.881180048 -0.452791274 0.136511385
v 0.879978001 -0.452689558 0.135215089
v 0.881281734 -0.453993261 0.135215089
v -0.948478043 -0.38418895 0.135215133
v -0.948579729 -0.385390967 0.13651143
v -0.88117969 -0.385391116 0.13651143
v -0.881281376 -0.384189099 0.135215119
v -0.881281912 0.377560884 0.135215193
v -0.881180227 0.378762901 0.13651149
v -0.948580265 0.37876302 0.136511505
v -0.94847858 0.377561003 0.135215193
v 0.881281734 0.377560675 0.135215372
v 0.948478401 0.377560824 0.135215372
v 0.948580027 0.378762841 0.136511669
v 0.881180048 0.378762692 0.136511683
v 0.948478222 -0.384189129 0.135214955
v 0.881281614 -0.384189248 0.13521497
v 0.881179869 -0.385391235 0.136511281
v 0.948579967 -0.385391116 0.136511266
v -0.89059937 -0.444675475 0.00129643234
v -0.889295638 -0.443371803 0.00129642978
v -0.879977822 -0.452689439 0.135215238
v -0.881281495 -0.453993112 0.135215238
v -0.881281793 0.447364926 0.135215074
v -0.87997812 0.446061224 0.135215074
v -0.889295995 0.4367432 0.00129629916
v -0.890599668 0.438046902 0.00129629718
v 0.881281614 0.447364718 0.135215253
v 0.89059943 0.438046724 0.00129648263
v 0.889295757 0.436743021 0.00129648694
v 0.889295757 0.436743021 0.00129648694
v 0.879977882 0.446061045 0.135215268
v 0.881281614 0.447364718 0.135215253
v 0.890599489 -0.444675624 0.00129627413
v 0.881281734 -0.453993261 0.135215089
v 0.879978001 -0.452689558 0.135215089
v 0.889295816 -0.443371922 0.0012962746
v -0.939160228 -0.393507004 0.0012963576
v -0.948478043 -0.38418895 0.135215133
v -0.881281376 -0.384189099 0.135215119
v -0.890599251 -0.393507093 0.00129634782
v -0.939160764 0.38687861 0.00129639148
v -0.890599787 0.38687852 0.0012963817
v -0.881281912 0.377560884 0.135215193
v -0.94847858 0.377561003 0.135215193
v 0.939160526 0.386878431 0.00129656494
v 0.948478401 0.377560824 0.135215372
v 0.881281734 0.377560675 0.135215372
v 0.890599489 0.386878312 0.00129656494
v 0.939160466 -0.393507153 0.00129619194
v 0.89059943 -0.393507242 0.00129619194
v 0.881281614 -0.384189248 0.13521497
v 0.948478222 -0.384189129 0.135214955
v -0.890693545 -0.39490509 4.93623205e-08
v -0.889295578 -0.394810796 0.0012963498
v -0.889295638 -0.443371803 0.00129642978
v -0.890693665 -0.443277508 1.28976239e-07
v -0.890693963 0.436648905 -1.22533916e-09
v -0.889295995 0.4367432 0.00129629916
v -0.889296055 0.388182193 0.00129637914
v -0.890694082 0.388276488 7.8388581e-08
v 0.890693724 0.436648726 1.86070721e-07
v 0.890693843 0.388276339 2.64522782e-07
v 0.889295816 0.388182044 0.0012965654
v 0.889295757 0.436743021 0.00129648694
v 0.890693724 -0.394905239 -1.04716207e-07
v 0.890693843 -0.443277627 -2.62641642e-08
v 0.889295816 -0.443371922 0.0012962746
v 0.889295757 -0.394810945 0.00129619625
v -0.879977703 -0.385492772 0.135215133
v -0.88117969 -0.385391116 0.13651143
v -0.88117981 -0.452791095 0.136511534
v -0.879977822 -0.452689439 0.135215238
v -0.87997812 0.446061224 0.135215074
v -0.881180108 0.446162909 0.136511371
v -0.881180227 0.378762901 0.13651149
v -0.87997824 0.378864557 0.135215193
v 0.879977882 0.446061045 0.135215268
v 0.879978001 0.378864408 0.135215372
v 0.881180048 0.378762692 0.136511683
v 0.881179869 0.446162701 0.136511564
v 0.879977882 -0.385492921 0.13521497
v 0.879978001 -0.452689558 0.135215089
v 0.881180048 -0.452791274 0.136511385
v 0.881179869 -0.385391235 0.136511281
v -0.890599251 -0.393507093 0.00129634782
v -0.889295578 -0.394810796 0.0012963498
v -0.890693545 -0.39490509 4.93623205e-08
v -0.889296055 0.388182193 0.00129637914
v -0.890599787 0.38687852 0.0012963817
v -0.890694082 0.388276488 7.8388581e-08
v 0.889295816 0.388182044 0.0012965654
v 0.890693843 0.388276339 2.64522782e-07
v 0.890599489 0.386878312 0.00129656494
v 0.89059943 -0.393507242 0.00129619194
v 0.890693724 -0.394905239 -1.04716207e-07
v 0.889295757 -0.394810945 0.00129619625
v -0.881281376 -0.384189099 0.135215119
v -0.88117969 -0.385391116 0.13651143
v -0.879977703 -0.385492772 0.135215133
v -0.881180227 0.378762901 0.13651149
v -0.881281912 0.377560884 0.135215193
v -0.87997824 0.378864557 0.135215193
v 0.881180048 0.378762692 0.136511683
v 0.879978001 0.378864408 0.135215372
v 0.881281734 0.377560675 0.135215372
v 0.881281614 -0.384189248 0.13521497
v 0.879977882 -0.385492921 0.13521497
v 0.881179869 -0.385391235 0.136511281
v -0.889295578 -0.394810796 0.0012963498
v -0.879977703 -0.385492772 0.135215133
v -0.879977822 -0.452689439 0.135215238
v -0.889295638 -0.443371803 0.00129642978
v -0.889295995 0.4367432 0.00129629916
v -0.87997812 0.446061224 0.135215074
v -0.87997824 0.378864557 0.135215193
v -0.889296055 0.388182193 0.00129637914
v 0.889295757 0.436743021 0.00129648694
v 0.889295816 0.388182044 0.0012965654
v 0.879978001 0.378864408 0.135215372
v 0.879977882 0.446061045 0.135215268
v 0.889295757 -0.394810945 0.00129619625
v 0.889295816 -0.443371922 0.0012962746
v 0.879978001 -0.452689558 0.135215089
v 0.879977882 -0.385492921 0.13521497
v -0.881281376 -0.384189099 0.135215119
v -0.879977703 -0.385492772 0.135215133
v -0.889295578 -0.394810796 0.0012963498
v -0.890599251 -0.393507093 0.00129634782
v -0.890599787 0.38687852 0.0012963817
v -0.889296055 0.388182193 0.00129637914
v -0.87997824 0.378864557 0.135215193
v -0.881281912 0.377560884 0.135215193
v 0.890599489 0.386878312 0.00129656494
v 0.881281734 0.377560675 0.135215372
v 0.879978001 0.378864408 0.135215372
v 0.889295816 0.388182044 0.0012965654
v 0.881281614 -0.384189248 0.13521497
v 0.89059943 -0.393507242 0.00129619194
v 0.889295757 -0.394810945 0.00129619625
v 0.889295757 -0.394810945 0.00129619625
v 0.879977882 -0.385492921 0.13521497
v 0.881281614 -0.384189248 0.13521497
vt 2.00226259 0.366081119
vt 1.99791682 0.366081119
vt 1.96685815 0.633918703
vt 1.9712038 0.633918703
vt 3.63053465 0.633918881
vt 3.63488007 0.633918881
vt 3.66593933 0.366081357
vt 3.66159391 0.366081357
vt -2.63053513 0.633918881
vt -2.66159463 0.366081357
vt -2.66594028 0.366081357
vt -2.66594028 0.366081357
vt -2.63488078 0.633918881
vt -2.63053513 0.633918881
vt -1.00226402 0.366081119
vt -0.971205473 0.633918703
vt -0.966859818 0.633918703
vt -0.966859818 0.633918703
vt -0.997918367 0.366081119
vt -1.00226402 0.366081119
vt 1.77392805 0.366081357
vt 1.80498815 0.633918881
vt 1.96685815 0.633918703
vt 1.99791682 0.366081119
vt -0.997918606 0.366081357
vt -0.966858506 0.633918881
vt -0.804988384 0.633918762
vt -0.773929834 0.366081119
vt 1.99791706 0.366081357
vt 1.77392828 0.366081119
vt 1.80498683 0.633918703
vt 1.96685684 0.633918881
vt -0.773929596 0.366081357
vt -0.997918367 0.366081119
vt -0.966859818 0.633918703
vt -0.804989815 0.633918881
vt 1.99791682 0.366081119
vt 2.00226259 0.366081119
vt 1.99825573 0.363488495
vt 3.66593933 0.366081357
vt 3.66193271 0.363488734
vt 3.66159391 0.366081357
vt -2.66594028 0.366081357
vt -2.66159463 0.366081357
vt -2.66193342 0.363488793
vt -0.997918367 0.366081119
vt -0.998257279 0.363488495
vt -1.00226402 0.366081119
vt 1.96654391 0.636511326
vt 1.9712038 0.633918703
vt 1.96685815 0.633918703
vt 3.63022017 0.636511445
vt 3.63488007 0.633918881
vt 3.63053465 0.633918881
vt -2.63022089 0.636511505
vt -2.63053513 0.633918881
vt -2.63488078 0.633918881
vt -0.966545582 0.636511326
vt -0.966859818 0.633918703
vt -0.971205473 0.633918703
vt 1.77358913 0.363488734
vt 1.77392805 0.366081357
vt 1.99791682 0.366081119
vt 1.99825573 0.363488495
vt -0.998257518 0.363488734
vt -0.997918606 0.366081357
vt -0.773929834 0.366081119
vt -0.773590922 0.363488495
vt 1.99825597 0.363488793
vt 1.77358937 0.363488495
vt 1.77392828 0.366081119
vt 1.99791706 0.366081357
vt -0.773590684 0.363488793
vt -0.998257279 0.363488495
vt -0.997918367 0.366081119
vt -0.773929596 0.366081357
vt 1.96654391 0.636511326
vt 1.96685815 0.633918703
vt 1.80498815 0.633918881
vt 1.8053025 0.636511445
vt -0.805302739 0.636511326
vt -0.804988384 0.633918762
vt -0.966858506 0.633918881
vt -0.966544151 0.636511445
vt 1.80530119 0.636511326
vt 1.96654248 0.636511505
vt 1.96685684 0.633918881
vt 1.80498683 0.633918703
vt -0.966545582 0.636511326
vt -0.80530417 0.636511505
vt -0.804989815 0.633918881
vt -0.966859818 0.633918703
vt -2.63053536 0.633918703
vt -2.46866536 0.633918762
vt -2.43760586 0.366081119
vt -2.66159487 0.366081119
vt 3.63053465 0.633918881
vt 3.66159391 0.366081357
vt 3.4376049 0.366081357
vt 3.46866465 0.633918881
vt -2.63053513 0.633918881
vt -2.46866512 0.633918881
vt -2.43760562 0.366081357
vt -2.66159463 0.366081357
vt 3.63053465 0.633918703
vt 3.66159415 0.366081119
vt 3.43760538 0.366081119
vt 3.46866465 0.633918703
vt 3.63053513 0.633918881
vt 3.63488054 0.633918881
vt 3.66593981 0.366081357
vt 3.66159439 0.366081357
vt -0.769584179 0.366081119
vt -0.773929834 0.366081119
vt -0.804988384 0.633918762
vt -0.800642848 0.633918762
vt 1.76958263 0.366081119
vt 1.80064118 0.633918703
vt 1.80498683 0.633918703
vt 1.80498683 0.633918703
vt 1.77392828 0.366081119
vt 1.76958263 0.366081119
vt -2.63053441 0.633918881
vt -2.66159391 0.366081357
vt -2.66593957 0.366081357
vt -2.66593957 0.366081357
vt -2.63488007 0.633918881
vt -2.63053441 0.633918881
vt 3.66593981 0.366081357
vt 3.66193318 0.363488734
vt 3.66159439 0.366081357
vt -0.773929834 0.366081119
vt -0.769584179 0.366081119
vt -0.773590922 0.363488495
vt 1.77392828 0.366081119
vt 1.77358937 0.363488495
vt 1.76958263 0.366081119
vt -2.66593957 0.366081357
vt -2.66159391 0.366081357
vt -2.66193271 0.363488793
vt -2.43760586 0.366081119
vt -2.43726707 0.363488555
vt -2.66193366 0.363488495
vt -2.66159487 0.366081119
vt 3.66159391 0.366081357
vt 3.66193271 0.363488734
vt 3.43726611 0.363488793
vt 3.4376049 0.366081357
vt -2.66159463 0.366081357
vt -2.43760562 0.366081357
vt -2.43726683 0.363488734
vt -2.66193342 0.363488793
vt 3.43760538 0.366081119
vt 3.66159415 0.366081119
vt 3.66193318 0.363488495
vt 3.43726635 0.363488495
vt -2.63053536 0.633918703
vt -2.63022113 0.636511326
vt -2.4689796 0.636511326
vt -2.46866536 0.633918762
vt 3.46866465 0.633918881
vt 3.46897888 0.636511505
vt 3.63022017 0.636511445
vt 3.63053465 0.633918881
vt -2.46866512 0.633918881
vt -2.63053513 0.633918881
vt -2.63022089 0.636511505
vt -2.4689796 0.636511505
vt 3.63053465 0.633918703
vt 3.46866465 0.633918703
vt 3.46897912 0.636511326
vt 3.63022041 0.636511326
vt 3.63022065 0.636511445
vt 3.63488054 0.633918881
vt 3.63053513 0.633918881
vt -0.805302739 0.636511326
vt -0.800642848 0.633918762
vt -0.804988384 0.633918762
vt 1.80530119 0.636511326
vt 1.80498683 0.633918703
vt 1.80064118 0.633918703
vt -2.63022017 0.636511505
vt -2.63053441 0.633918881
vt -2.63488007 0.633918881
vt 3.63022065 1.8053025
vt 3.46897936 1.80530286
vt 3.4689796 1.96654427
vt 3.63022113 1.96654391
vt -2.43726659 1.77358961
vt -2.66193318 1.77358913
vt -2.66193366 1.99825573
vt -2.43726707 1.99825621
vt 3.63022017 -0.966544151
vt 3.46897888 -0.966543794
vt 3.46897912 -0.805302382
vt 3.63022065 -0.805302739
vt -2.43726611 -0.998257041
vt -2.66193271 -0.998257518
vt -2.66193318 -0.773590922
vt -2.43726659 -0.773590446
vt -2.63022089 -0.966542482
vt -2.63022113 -0.805301189
vt -2.46897984 -0.805300832
vt -2.4689796 -0.966542244
vt 3.43726683 -0.99825561
vt 3.43726707 -0.773588896
vt 3.6619339 -0.773589373
vt 3.66193342 -0.998255968
vt -2.63022017 1.80530417
vt -2.63022041 1.96654558
vt -2.46897912 1.96654582
vt -2.46897888 1.80530441
vt 3.43726611 1.77359104
vt 3.43726635 1.99825764
vt 3.66193318 1.99825728
vt 3.66193271 1.77359068
vt -2.46431971 0.633918762
vt -2.46866536 0.633918762
vt -2.4689796 0.636511326
vt 1.97120368 0.633918881
vt 1.96685815 0.633918881
vt 1.96654379 0.636511505
vt -0.971202135 0.633918881
vt -0.966542244 0.636511505
vt -0.966856599 0.633918881
vt 3.46431923 0.633918703
vt 3.46897912 0.636511326
vt 3.46866465 0.633918703
vt 3.46866512 0.633918881
vt 3.46897936 0.636511505
vt 3.63022065 0.636511445
vt 3.63053513 0.633918881
vt -2.63053489 0.633918762
vt -2.63022065 0.636511326
vt -2.46897912 0.636511326
vt -2.46866488 0.633918762
vt 3.6305356 0.633918703
vt 3.46866536 0.633918703
vt 3.46897984 0.636511326
vt 3.63022113 0.636511326
vt -2.46866441 0.633918881
vt -2.63053441 0.633918881
vt -2.63022017 0.636511505
vt -2.46897888 0.636511505
vt -2.43726707 0.363488555
vt -2.43760586 0.366081119
vt -2.4332602 0.366081119
vt 2.00226378 0.366081357
vt 1.99825704 0.363488793
vt 1.99791813 0.366081357
vt -1.00226235 0.366081357
vt -0.997916698 0.366081357
vt -0.99825561 0.363488734
vt 3.43726635 0.363488495
vt 3.43325973 0.366081119
vt 3.43760538 0.366081119
vt 3.66159439 0.366081357
vt 3.66193318 0.363488734
vt 3.43726659 0.363488734
vt 3.43760538 0.366081357
vt -2.43760538 0.366081119
vt -2.43726659 0.363488555
vt -2.66193318 0.363488495
vt -2.66159439 0.366081119
vt 3.4376061 0.366081119
vt 3.66159487 0.366081119
vt 3.6619339 0.363488495
vt 3.43726707 0.363488495
vt -2.66159391 0.366081357
vt -2.4376049 0.366081357
vt -2.43726611 0.363488734
vt -2.66193271 0.363488793
vt -2.46866536 0.633918762
vt -2.46431971 0.633918762
vt -2.4332602 0.366081119
vt -2.43760586 0.366081119
vt 2.00226378 0.366081357
vt 1.99791813 0.366081357
vt 1.96685815 0.633918881
vt 1.97120368 0.633918881
vt -1.00226235 0.366081357
vt -0.971202135 0.633918881
vt -0.966856599 0.633918881
vt -0.966856599 0.633918881
vt -0.997916698 0.366081357
vt -1.00226235 0.366081357
vt 3.46866465 0.633918703
vt 3.43760538 0.366081119
vt 3.43325973 0.366081119
vt 3.46431923 0.633918703
vt 3.63053513 0.633918881
vt 3.66159439 0.366081357
vt 3.43760538 0.366081357
vt 3.46866512 0.633918881
vt -2.63053489 0.633918762
vt -2.46866488 0.633918762
vt -2.43760538 0.366081119
vt -2.66159439 0.366081119
vt 3.6305356 0.633918703
vt 3.66159487 0.366081119
vt 3.4376061 0.366081119
vt 3.46866536 0.633918703
vt -2.63053441 0.633918881
vt -2.46866441 0.633918881
vt -2.4376049 0.366081357
vt -2.66159391 0.366081357
vt -0.805302858 0.636511505
vt -0.804988503 0.633918881
vt -0.966858625 0.633918762
vt -0.966544271 0.636511326
vt 1.96654379 0.636511505
vt 1.96685815 0.633918881
vt 1.80498815 0.633918762
vt 1.80530238 0.636511326
vt -0.966542244 0.636511505
vt -0.805300832 0.636511326
vt -0.804986477 0.633918703
vt -0.966856599 0.633918881
vt 1.80530441 0.636511505
vt 1.96654582 0.636511326
vt 1.96686006 0.633918703
vt 1.80499005 0.633918881
vt -0.773928523 0.366081357
vt -0.773589611 0.363488734
vt -0.998256207 0.363488555
vt -0.997917414 0.366081119
vt 1.99791813 0.366081357
vt 1.99825704 0.363488793
vt 1.77359045 0.363488555
vt 1.77392936 0.366081119
vt -0.997916698 0.366081357
vt -0.773927808 0.366081119
vt -0.773588896 0.363488495
vt -0.99825561 0.363488734
vt 1.77392995 0.366081357
vt 1.99791884 0.366081119
vt 1.99825764 0.363488495
vt 1.77359104 0.363488734
vt -0.800642967 0.633918881
vt -0.804988503 0.633918881
vt -0.805302858 0.636511505
vt -2.46431923 0.633918762
vt -2.46866488 0.633918762
vt -2.46897912 0.636511326
vt 3.46431971 0.633918703
vt 3.46897984 0.636511326
vt 3.46866536 0.633918703
vt 1.80064452 0.633918881
vt 1.80530441 0.636511505
vt 1.80499005 0.633918881
vt -0.769582868 0.366081357
vt -0.773589611 0.363488734
vt -0.773928523 0.366081357
vt -2.43726659 0.363488555
vt -2.43760538 0.366081119
vt -2.43325973 0.366081119
vt 3.43726707 0.363488495
vt 3.43326044 0.366081119
vt 3.4376061 0.366081119
vt 1.7695843 0.366081357
vt 1.77392995 0.366081357
vt 1.77359104 0.363488734
vt -0.804988503 0.633918881
vt -0.773928523 0.366081357
vt -0.997917414 0.366081119
vt -0.966858625 0.633918762
vt 1.96685815 0.633918881
vt 1.99791813 0.366081357
vt 1.77392936 0.366081119
vt 1.80498815 0.633918762
vt -0.966856599 0.633918881
vt -0.804986477 0.633918703
vt -0.773927808 0.366081119
vt -0.997916698 0.366081357
vt 1.80499005 0.633918881
vt 1.96686006 0.633918703
vt 1.99791884 0.366081119
vt 1.77392995 0.366081357
vt -0.769582868 0.366081357
vt -0.773928523 0.366081357
vt -0.804988503 0.633918881
vt -0.800642967 0.633918881
vt -2.46866488 0.633918762
vt -2.46431923 0.633918762
vt -2.43325973 0.366081119
vt -2.43760538 0.366081119
vt 3.46866536 0.633918703
vt 3.4376061 0.366081119
vt 3.43326044 0.366081119
vt 3.46431971 0.633918703
vt 1.7695843 0.366081357
vt 1.80064452 0.633918881
vt 1.80499005 0.633918881
vt 1.80499005 0.633918881
vt 1.77392995 0.366081357
vt 1.7695843 0.366081357
f 1/1 2/2 3/3
f 3/3 4/4 1/1
f 5/5 6/6 7/7
f 7/7 8/8 5/5
f 9/9 10/10 11/11
f 12/12 13/13 14/14
f 15/15 16/16 17/17
f 18/18 19/19 20/20
f 21/21 22/22 23/23
f 23/23 24/24 21/21
f 25/25 26/26 27/27
f 27/27 28/28 25/25
f 29/29 30/30 31/31
f 31/31 32/32 29/29
f 33/33 34/34 35/35
f 35/35 36/36 33/33
f 37/37 38/38 39/39
f 40/40 41/41 42/42
f 43/43 44/44 45/45
f 46/46 47/47 48/48
f 49/49 50/50 51/51
f 52/52 53/53 54/54
f 55/55 56/56 57/57
f 58/58 59/59 60/60
f 61/61 62/62 63/63
f 63/63 64/64 61/61
f 65/65 66/66 67/67
f 67/67 68/68 65/65
f 69/69 70/70 71/71
f 71/71 72/72 69/69
f 73/73 74/74 75/75
f 75/75 76/76 73/73
f 77/77 78/78 79/79
f 79/79 80/80 77/77
f 81/81 82/82 83/83
f 83/83 84/84 81/81
f 85/85 86/86 87/87
f 87/87 88/88 85/85
f 89/89 90/90 91/91
f 91/91 92/92 89/89
f 93/93 94/94 95/95
f 95/95 96/96 93/93
f 97/97 98/98 99/99
f 99/99 100/100 97/97
f 101/101 102/102 103/103
f 103/103 104/104 101/101
f 105/105 106/106 107/107
f 107/107 108/108 105/105
f 109/109 110/110 111/111
f 111/111 112/112 109/109
f 113/113 114/114 115/115
f 115/115 116/116 113/113
f 117/117 118/118 119/119
f 120/120 121/121 122/122
f 123/123 124/124 125/125
f 126/126 127/127 128/128
f 129/129 130/130 131/131
f 132/132 133/133 134/134
f 135/135 136/136 137/137
f 138/138 139/139 140/140
f 141/141 142/142 143/143
f 143/143 144/144 141/141
f 145/145 146/146 147/147
f 147/147 148/148 145/145
f 149/149 150/150 151/151
f 151/151 152/152 149/149
f 153/153 154/154 155/155
f 155/155 156/156 153/153
f 157/157 158/158 159/159
f 159/159 160/160 157/157
f 161/161 162/162 163/163
f 163/163 164/164 161/161
f 165/165 166/166 167/167
f 167/167 168/168 165/165
f 169/169 170/170 171/171
f 171/171 172/172 169/169
f 173/173 174/174 175/175
f 176/176 177/177 178/178
f 179/179 180/180 181/181
f 182/182 183/183 184/184
f 185/185 186/186 187/187
f 187/187 188/188 185/185
f 189/189 190/190 191/191
f 191/191 192/192 189/189
f 193/193 194/194 195/195
f 195/195 196/196 193/193
f 197/197 198/198 199/199
f 199/199 200/200 197/197
f 201/201 202/202 203/203
f 203/203 204/204 201/201
f 205/205 206/206 207/207
f 207/207 208/208 205/205
f 209/209 210/210 211/211
f 211/211 212/212 209/209
f 213/213 214/214 215/215
f 215/215 216/216 213/213
f 217/217 218/218 219/219
f 220/220 221/221 222/222
f 223/223 224/224 225/225
f 226/226 227/227 228/228
f 229/229 230/230 231/231
f 231/231 232/232 229/229
f 233/233 234/234 235/235
f 235/235 236/236 233/233
f 237/237 238/238 239/239
f 239/239 240/240 237/237
f 241/241 242/242 243/243
f 243/243 244/244 241/241
f 245/245 246/246 247/247
f 248/248 249/249 250/250
f 251/251 252/252 253/253
f 254/254 255/255 256/256
f 257/257 258/258 259/259
f 259/259 260/260 257/257
f 261/261 262/262 263/263
f 263/263 264/264 261/261
f 265/265 266/266 267/267
f 267/267 268/268 265/265
f 269/269 270/270 271/271
f 271/271 272/272 269/269
f 273/273 274/274 275/275
f 275/275 276/276 273/273
f 277/277 278/278 279/279
f 279/279 280/280 277/277
f 281/281 282/282 283/283
f 284/284 285/285 286/286
f 287/287 288/288 289/289
f 289/289 290/290 287/287
f 291/291 292/292 293/293
f 293/293 294/294 291/291
f 295/295 296/296 297/297
f 297/297 298/298 295/295
f 299/299 300/300 301/301
f 301/301 302/302 299/299
f 303/303 304/304 305/305
f 305/305 306/306 303/303
f 307/307 308/308 309/309
f 309/309 310/310 307/307
f 311/311 312/312 313/313
f 313/313 314/314 311/311
f 315/315 316/316 317/317
f 317/317 318/318 315/315
f 319/319 320/320 321/321
f 321/321 322/322 319/319
f 323/323 324/324 325/325
f 325/325 326/326 323/323
f 327/327 328/328 329/329
f 329/329 330/330 327/327
f 331/331 332/332 333/333
f 333/333 334/334 331/331
f 335/335 336/336 337/337
f 337/337 338/338 335/335
f 339/339 340/340 341/341
f 342/342 343/343 344/344
f 345/345 346/346 347/347
f 348/348 349/349 350/350
f 351/351 352/352 353/353
f 354/354 355/355 356/356
f 357/357 358/358 359/359
f 360/360 361/361 362/362
f 363/363 364/364 365/365
f 365/365 366/366 363/363
f 367/367 368/368 369/369
f 369/369 370/370 367/367
f 371/371 372/372 373/373
f 373/373 374/374 371/371
f 375/375 376/376 377/377
f 377/377 378/378 375/375
f 379/379 380/380 381/381
f 381/381 382/382 379/379
f 383/383 384/384 385/385
f 385/385 386/386 383/383
f 387/387 388/388 389/389
f 389/389 390/390 387/387
f 391/391 392/392 393/393
f 394/394 395/395 396/396
