v -0.314923018 -0.160865784 0.15052174
v -0.314923018 -0.158393234 0.153626099
v -0.316330642 -0.157124147 0.153751016
v -0.318594962 -0.158422917 0.14975816
v -0.318591565 -0.157059222 0.151473865
v -0.316334516 -0.16068311 0.149278581
v 0.316334516 -0.16068311 0.149278581
v 0.318594962 -0.158422917 0.14975816
v 0.318591565 -0.157059222 0.151473865
v 0.314923018 -0.158393234 0.153626099
v 0.316330642 -0.157124147 0.153751016
v 0.314923018 -0.160865784 0.15052174
v 0.233540714 -0.154928863 0.0603302456
v 0.233540714 -0.154928863 0.06666594
v 0.233540714 -0.16119875 0.06666594
v 0.233540714 -0.16119875 0.0603302456
v 0.233540714 -0.154928863 0.06666594
v 0.233540714 -0.154928863 0.0603302456
v 0.286177963 -0.154928863 0.0603302456
v 0.285756141 -0.154928863 0.0666691214
v -0.065039143 0.193088219 0.180039495
v 0.065039143 0.193088219 0.180039495
v 0.0673284084 0.19391109 0.172757506
v -0.0673284084 0.19391109 0.172757506
v 0.233540714 -0.154928863 0.06666594
v 0.285756141 -0.154928863 0.0666691214
v 0.285756141 -0.16119875 0.0666691214
v 0.233540714 -0.16119875 0.06666594
v -0.200010985 -0.0476570204 0.0989977494
v 0.200010985 -0.0476570204 0.0989977494
v 0.200010985 -0.162094459 0.137866929
v -0.200010985 -0.162094459 0.137866929
v -0.065039143 0.166962266 0.196284592
v -0.065039143 0.193088219 0.180039495
v -0.0673284084 0.19391109 0.172757506
v -0.0673284084 0.165849477 0.19020617
v -0.065039143 0.163367003 0.197875932
v -0.0673284084 0.162254199 0.191797525
v -0.065039143 0.157823414 0.199455261
v -0.0673284084 0.15671061 0.193376839
v 0.065039143 0.163367003 0.197875932
v 0.065039143 0.157823414 0.199455261
v 0.0673284084 0.15671061 0.193376839
v 0.0673284084 0.162254199 0.191797525
v 0.065039143 0.166962266 0.196284592
v 0.0673284084 0.165849477 0.19020617
v 0.065039143 0.193088219 0.180039495
v 0.0673284084 0.19391109 0.172757506
v 0.065039143 0.166962266 0.196284592
v 0.065039143 0.193088219 0.180039495
v -0.065039143 0.193088219 0.180039495
v -0.065039143 0.166962266 0.196284592
v 0.065039143 0.163367003 0.197875932
v -0.065039143 0.163367003 0.197875932
v 0.065039143 0.157823414 0.199455261
v -0.065039143 0.157823414 0.199455261
v -0.316320419 0.032300666 0.198603511
v -0.312932342 0.0356883518 0.200000003
v -0.312932342 0.153920859 0.200000018
v -0.0673284084 0.153920874 0.200000018
v -0.0673284084 0.0758953616 0.200000003
v -0.314923018 0.157823384 0.199455261
v -0.0673284084 0.157823414 0.199455261
v -0.316273034 0.157261178 0.198559031
v -0.318603665 0.0300176684 0.196321785
v -0.318581522 0.0272454396 0.196011677
v -0.319999218 0.0286222715 0.192937717
v -0.318647414 0.159635291 0.196024701
v -0.319999218 0.160986945 0.192453817
v -0.316390663 0.164038107 0.196536273
v -0.318533152 0.162226558 0.195375875
v -0.318589956 0.230141386 0.152728677
v -0.314923018 0.163366973 0.197875932
v -0.316330642 0.230490118 0.155143484
v -0.312932342 0.166962251 0.196284592
v -0.0673284084 0.163367003 0.197875932
v -0.0673284084 0.166962266 0.196284592
v -0.312932342 0.229024202 0.157694578
v -0.314923018 0.231668428 0.154930875
v -0.316338509 0.23358418 0.149604678
v -0.318598598 0.231324375 0.150603443
v -0.315500051 0.233591929 0.115169235
v -0.318591475 0.230500847 0.115169235
v -0.319999218 0.227908507 0.150163651
v -0.319999218 0.226785555 0.115169235
v 0.0673284084 0.153920874 0.200000018
v 0.0673284084 0.0758953691 0.200000003
v 0.312932342 0.035688363 0.200000003
v -0.314923018 0.0317218043 0.199765056
v 0.314923018 0.0317218117 0.199765056
v 0.314923018 0.0256684981 0.19904533
v 0.316340923 0.0250694267 0.197725713
v 0.312932342 0.021759104 0.198343873
v 0.316337287 -0.0438711569 0.184374318
v -0.200010985 0.0256684907 0.19904533
v 0.312932342 -0.0453343354 0.185441926
v 0.200010985 0.0217591021 0.198343873
v 0.312932342 -0.155231267 0.155635238
v 0.316330642 -0.157124147 0.153751016
v 0.314923018 -0.158393234 0.153626099
v -0.314923018 0.0256684888 0.19904533
v 0.0673284084 0.0747825727 0.193921581
v -0.0673284084 0.0747825652 0.193921581
v -0.0673284084 0.0758953616 0.200000003
v 0.0673284084 0.0758953691 0.200000003
v 0.200010985 -0.162094459 0.137866929
v 0.200010985 -0.162094459 0.147018343
v -0.200010985 -0.162094459 0.147018343
v -0.200010985 -0.162094459 0.137866929
v -0.312883615 -0.162094459 0.147018343
v -0.200010985 -0.162094459 0.147018343
v -0.200010985 -0.162094459 0.115210526
v -0.311776966 -0.162094459 0.115172058
v 0.311776966 -0.162094459 0.115172058
v 0.200010985 -0.162094459 0.115210526
v 0.200010985 -0.162094459 0.147018343
v 0.312883615 -0.162094459 0.147018343
v -0.200010985 -0.160865784 0.15052174
v -0.314923018 -0.160865784 0.15052174
v -0.312883615 -0.162094459 0.147018343
v -0.314923018 -0.158393234 0.153626099
v -0.316334516 -0.16068311 0.149278581
v -0.315500379 -0.160686821 0.115170777
v -0.311776966 -0.162094459 0.115172058
v -0.318591565 -0.157595634 0.115169719
v -0.318594962 -0.158422917 0.14975816
v -0.319999218 -0.153874695 0.115169235
v -0.319999218 -0.154991403 0.148527175
v -0.318591565 -0.157059222 0.151473865
v -0.319999218 -0.0408224501 0.179431602
v -0.318585098 -0.042444583 0.182460368
v -0.316337258 -0.0438711643 0.184374318
v -0.316330642 -0.157124147 0.153751016
v -0.312932342 -0.155231267 0.155635238
v -0.316340923 0.0250694174 0.197725713
v -0.312932342 -0.0453343466 0.185441926
v -0.312932342 0.0217590947 0.198343873
v -0.200010985 -0.158393234 0.153626099
v 0.200010985 -0.160865784 0.15052174
v 0.312883615 -0.162094459 0.147018343
v 0.314923018 -0.160865784 0.15052174
v 0.316334516 -0.16068311 0.149278581
v 0.311776966 -0.162094459 0.115172058
v 0.315500379 -0.160686821 0.115170777
v 0.318594962 -0.158422917 0.14975816
v 0.318591565 -0.157595634 0.115169719
v 0.319999218 -0.154991403 0.148527175
v 0.319999218 -0.153874695 0.115169235
v 0.318591565 -0.157059222 0.151473865
v 0.319999218 -0.0408224463 0.179431602
v 0.319999218 0.226785555 0.115169235
v 0.318585098 -0.0424445756 0.182460368
v 0.318581522 0.0272454489 0.196011677
v 0.319999218 0.0286222808 0.192937717
v 0.318603665 0.0300176777 0.196321785
v 0.319999218 0.16098696 0.192453817
v 0.318647414 0.159635305 0.196024701
v 0.316320419 0.0323006734 0.198603511
v 0.318533152 0.162226573 0.195375875
v 0.319999218 0.227908507 0.150163651
v 0.318598598 0.231324375 0.150603443
v 0.318591475 0.230500847 0.115169235
v 0.316273034 0.157261193 0.198559031
v 0.318589956 0.230141386 0.152728677
v 0.316338509 0.23358418 0.149604678
v 0.315500051 0.233591929 0.115169235
v 0.316330642 0.230490118 0.155143484
v 0.316390663 0.164038137 0.196536273
v 0.314923018 0.163367003 0.197875932
v 0.314923018 0.234038472 0.150696233
v 0.312883586 0.234999508 0.147018358
v 0.31178084 0.234999508 0.115169235
v -0.31178084 0.234999508 0.115169235
v 0.314923018 0.231668428 0.154930875
v -0.312883586 0.234999508 0.147018358
v -0.314923018 0.234038472 0.150696233
v 0.312932342 0.229024202 0.157694578
v 0.312932342 0.166962266 0.196284592
v 0.0673284084 0.195023879 0.178835928
v -0.0673284084 0.195023879 0.178835928
v 0.0673284084 0.166962266 0.196284592
v 0.0673284084 0.163367003 0.197875932
v 0.314923018 0.157823414 0.199455261
v 0.0673284084 0.157823414 0.199455261
v 0.312932342 0.153920874 0.200000018
v 0.0673284084 0.152808085 0.193921596
v 0.0673284084 0.0747825727 0.193921581
v 0.0673284084 0.0758953691 0.200000003
v 0.0673284084 0.153920874 0.200000018
v 0.0673284084 0.15671061 0.193376839
v 0.0673284084 0.157823414 0.199455261
v 0.0673284084 0.162254199 0.191797525
v 0.0673284084 0.163367003 0.197875932
v 0.0673284084 0.165849477 0.19020617
v 0.0673284084 0.166962266 0.196284592
v 0.0673284084 0.19391109 0.172757506
v 0.0673284084 0.195023879 0.178835928
v -0.0673284084 0.165849477 0.19020617
v -0.0673284084 0.19391109 0.172757506
v -0.0673284084 0.195023879 0.178835928
v -0.0673284084 0.166962266 0.196284592
v -0.0673284084 0.162254199 0.191797525
v -0.0673284084 0.163367003 0.197875932
v -0.0673284084 0.15671061 0.193376839
v -0.0673284084 0.157823414 0.199455261
v -0.0673284084 0.152808085 0.193921596
v -0.0673284084 0.153920874 0.200000018
v -0.0673284084 0.0747825652 0.193921581
v -0.0673284084 0.0758953616 0.200000003
v 0.286177963 -0.154928863 0.0603302456
v 0.233540714 -0.154928863 0.0603302456
v 0.233540714 -0.16119875 0.0603302456
v 0.286177963 -0.16119875 0.0603302456
v -0.0673284084 0.19391109 0.172757506
v 0.0673284084 0.19391109 0.172757506
v 0.0673284084 0.195023879 0.178835928
v -0.0673284084 0.195023879 0.178835928
v 0.200010985 -0.0476570204 0.0989977494
v 0.200010985 -0.0476570204 0.0763413385
v 0.200010985 -0.162094459 0.115210526
v 0.200010985 -0.162094459 0.137866929
v -0.200010985 -0.0476570204 0.0763413385
v -0.200010985 -0.0476570204 0.0989977494
v -0.200010985 -0.162094459 0.137866929
v -0.200010985 -0.162094459 0.115210526
v 0.285756141 -0.154928863 0.0666691214
v 0.286177963 -0.154928863 0.0603302456
v 0.286177963 -0.16119875 0.0603302456
v 0.285756141 -0.16119875 0.0666691214
f 1 2 3
f 1 3 4
f 3 5 4
f 1 4 6
f 7 8 9
f 7 9 10
f 9 11 10
f 7 10 12
f 13 14 15
f 15 16 13
f 17 18 19
f 19 20 17
f 21 22 23
f 23 24 21
f 25 26 27
f 27 28 25
f 29 30 31
f 31 32 29
f 33 34 35
f 35 36 33
f 37 33 36
f 36 38 37
f 39 37 38
f 38 40 39
f 41 42 43
f 43 44 41
f 45 41 44
f 44 46 45
f 47 45 46
f 46 48 47
f 49 50 51
f 51 52 49
f 53 49 52
f 52 54 53
f 55 53 54
f 54 56 55
f 57 58 59
f 58 60 59
f 60 58 61
f 62 59 60
f 60 63 62
f 59 64 57
f 64 59 62
f 65 57 64
f 57 65 66
f 66 65 67
f 64 68 65
f 67 65 68
f 62 68 64
f 68 69 67
f 62 70 68
f 69 68 71
f 70 71 68
f 69 71 72
f 62 73 70
f 73 62 63
f 71 70 74
f 74 72 71
f 70 73 75
f 63 76 73
f 75 73 76
f 76 77 75
f 78 75 77
f 70 75 78
f 78 74 70
f 79 74 78
f 72 74 79
f 80 72 79
f 80 81 72
f 81 80 82
f 82 83 81
f 72 81 84
f 84 81 83
f 72 84 69
f 83 85 84
f 85 69 84
f 86 87 88
f 58 88 87
f 87 61 58
f 88 89 90
f 89 88 58
f 91 90 89
f 90 91 92
f 92 91 93
f 94 92 93
f 89 95 91
f 93 91 95
f 93 96 94
f 95 97 93
f 94 96 98
f 98 99 94
f 100 99 98
f 93 97 96
f 97 95 101
f 89 101 95
f 57 101 89
f 89 58 57
f 102 103 104
f 104 105 102
f 106 107 108
f 108 109 106
f 110 109 111
f 110 112 109
f 110 113 112
f 114 106 115
f 114 116 106
f 114 117 116
f 118 108 107
f 108 118 119
f 119 120 108
f 121 119 118
f 122 120 119
f 120 122 123
f 123 124 120
f 125 123 122
f 122 126 125
f 127 125 126
f 126 128 127
f 126 129 128
f 128 130 127
f 128 129 131
f 131 130 128
f 132 131 129
f 129 133 132
f 130 131 66
f 130 67 127
f 66 67 130
f 127 67 69
f 69 85 127
f 132 133 134
f 133 121 134
f 131 132 135
f 135 66 131
f 134 136 132
f 137 135 132
f 132 136 137
f 101 135 137
f 66 135 101
f 137 136 96
f 96 136 134
f 101 137 97
f 96 97 137
f 57 66 101
f 134 121 138
f 118 138 121
f 138 98 134
f 134 98 96
f 138 118 139
f 107 139 118
f 139 107 140
f 139 100 138
f 98 138 100
f 140 141 139
f 100 139 141
f 141 140 142
f 142 140 143
f 143 144 142
f 145 142 144
f 144 146 145
f 147 145 146
f 146 148 147
f 149 145 147
f 148 150 147
f 150 148 151
f 152 149 147
f 147 150 152
f 149 152 94
f 94 99 149
f 153 152 150
f 151 154 150
f 150 154 153
f 152 153 92
f 92 94 152
f 154 155 153
f 92 153 155
f 151 156 154
f 155 154 156
f 90 92 155
f 156 157 155
f 158 155 157
f 90 155 158
f 159 157 156
f 151 160 156
f 159 156 160
f 161 160 151
f 151 162 161
f 157 163 158
f 163 157 159
f 160 164 159
f 161 164 160
f 165 161 162
f 162 166 165
f 167 164 161
f 168 159 164
f 164 167 168
f 159 168 169
f 163 159 169
f 170 161 165
f 170 167 161
f 171 165 166
f 165 171 170
f 166 172 171
f 171 172 173
f 170 174 167
f 173 175 171
f 170 171 175
f 175 176 170
f 174 170 176
f 80 175 173
f 173 82 80
f 176 175 80
f 167 174 177
f 167 177 178
f 178 168 167
f 169 168 178
f 176 79 174
f 80 79 176
f 174 78 177
f 78 174 79
f 178 177 179
f 180 179 177
f 177 78 180
f 179 181 178
f 77 180 78
f 169 178 181
f 181 182 169
f 163 169 183
f 183 169 182
f 182 184 183
f 183 185 163
f 185 183 184
f 184 86 185
f 163 185 88
f 88 158 163
f 88 185 86
f 158 88 90
f 186 187 188
f 188 189 186
f 190 186 189
f 189 191 190
f 192 190 191
f 191 193 192
f 194 192 193
f 193 195 194
f 196 194 195
f 195 197 196
f 198 199 200
f 200 201 198
f 202 198 201
f 201 203 202
f 204 202 203
f 203 205 204
f 206 204 205
f 205 207 206
f 208 206 207
f 207 209 208
f 210 211 212
f 212 213 210
f 214 215 216
f 216 217 214
f 218 219 220
f 220 221 218
f 222 223 224
f 224 225 222
f 226 227 228
f 228 229 226
