v -0.00360378623 -0.023 -0.470000029
v -0.00488093495 -0.0250000041 -0.470000029
v -0.00488093495 -0.023 -0.470000029
v -0.00360378623 -0.0250000041 -0.470000029
v -0.430000067 0 0.13176471
v -0.0536904633 -1.86264515e-09 -0.150882393
v -0.430000067 0 -0.150882393
v -0.0536904633 -1.86264515e-09 0.13176471
v -0.410000086 0 0.450882435
v -0.430000067 0 0.168235242
v -0.430000067 0 0.450882435
v -0.0536904633 -1.86264515e-09 0.450882435
v -0.0536904633 -1.86264515e-09 0.168235242
v -0.430000067 0 -0.48999989
v -0.430000067 0 -0.187352955
v -0.410000086 0 -0.470000029
v -0.0536904633 -1.86264515e-09 -0.187352955
v -0.0536904633 0 -0.48999989
v -0.430000067 0 0.487352908
v -0.410000086 0 0.769999981
v -0.410000086 0 0.487352908
v -0.0536904633 -1.86264515e-09 0.487352908
v -0.430000067 0 0.789999843
v -0.0536904633 0 0.789999843
v 0.410000056 0 -0.470000029
v 0.430000067 0 -0.187352955
v 0.430000067 0 -0.470000029
v 0.0536904633 -1.86264515e-09 -0.187352955
v 0.0536904633 0 -0.48999989
v 0.430000067 0 -0.48999989
v 0.430000067 0 -0.150882393
v 0.0536904633 -1.86264515e-09 0.13176471
v 0.430000067 0 0.13176471
v 0.0536904633 -1.86264515e-09 -0.150882393
v 0.0536904633 -1.86264515e-09 0.168235242
v 0.430000067 0 0.450882435
v 0.430000067 0 0.168235242
v 0.0536904633 -1.86264515e-09 0.450882435
v 0.430000067 0 0.487352908
v 0.410000056 0 0.769999981
v 0.430000067 0 0.769999981
v 0.430000067 0 0.789999843
v 0.0536904633 -1.86264515e-09 0.487352908
v 0.0536904633 0 0.789999843
v -0.430000067 0 -0.150882393
v -0.0536904633 -1.86264515e-09 -0.150882393
v -0.430000067 0 0.13176471
v -0.0536904633 -1.86264515e-09 0.13176471
v -0.430000067 0 0.450882435
v -0.430000067 0 0.168235242
v -0.410000086 0 0.450882435
v -0.0536904633 -1.86264515e-09 0.450882435
v -0.0536904633 -1.86264515e-09 0.168235242
v -0.410000086 0 -0.470000029
v -0.430000067 0 -0.187352955
v -0.430000067 0 -0.48999989
v -0.0536904633 -1.86264515e-09 -0.187352955
v -0.0536904633 0 -0.48999989
v -0.410000086 0 0.487352908
v -0.410000086 0 0.769999981
v -0.430000067 0 0.487352908
v -0.430000067 0 0.789999843
v -0.0536904633 -1.86264515e-09 0.487352908
v -0.0536904633 0 0.789999843
v 0.430000067 0 -0.470000029
v 0.430000067 0 -0.187352955
v 0.410000056 0 -0.470000029
v 0.0536904633 -1.86264515e-09 -0.187352955
v 0.0536904633 0 -0.48999989
v 0.430000067 0 -0.48999989
v 0.430000067 0 0.13176471
v 0.0536904633 -1.86264515e-09 0.13176471
v 0.430000067 0 -0.150882393
v 0.0536904633 -1.86264515e-09 -0.150882393
v 0.430000067 0 0.168235242
v 0.430000067 0 0.450882435
v 0.0536904633 -1.86264515e-09 0.168235242
v 0.0536904633 -1.86264515e-09 0.450882435
v 0.430000067 0 0.769999981
v 0.410000056 0 0.769999981
v 0.430000067 0 0.487352908
v 0.0536904633 -1.86264515e-09 0.487352908
v 0.430000067 0 0.789999843
v 0.0536904633 0 0.789999843
v -0.00360378623 -0.0250000041 -0.470000029
v -0.00360378623 -0.023 -0.470000029
v -0.00488093495 -0.0250000041 -0.470000029
v -0.00488093495 -0.023 -0.470000029
f 1 2 3
f 2 1 4
f 5 6 7
f 6 5 8
f 9 10 11
f 12 10 9
f 10 12 13
f 14 15 16
f 17 16 15
f 14 16 18
f 17 18 16
f 19 20 21
f 20 22 21
f 19 23 20
f 23 22 20
f 22 23 24
f 25 26 27
f 28 26 25
f 25 29 28
f 27 29 25
f 29 27 30
f 31 32 33
f 32 31 34
f 35 36 37
f 36 35 38
f 39 40 41
f 40 42 41
f 39 43 40
f 43 42 40
f 42 43 44
f 45 46 47
f 48 47 46
f 49 50 51
f 51 50 52
f 53 52 50
f 54 55 56
f 55 54 57
f 58 54 56
f 54 58 57
f 59 60 61
f 60 62 61
f 59 63 60
f 60 63 62
f 64 62 63
f 65 66 67
f 67 66 68
f 68 69 67
f 67 69 65
f 70 65 69
f 71 72 73
f 74 73 72
f 75 76 77
f 78 77 76
f 79 80 81
f 80 82 81
f 79 83 80
f 80 83 82
f 84 82 83
f 85 86 87
f 88 87 86
