v 0.410000056 0.0399999991 0.899999857
v 0.540000081 -0.0400000066 0.899999857
v 0.540000081 0.0399999991 0.899999857
v 0.410000056 -0.0400000066 0.899999857
v -0.410000086 0.0399999991 0.899999857
v -0.410000086 -0.0400000066 0.899999857
v -0.540000081 0.0399999991 0.899999857
v -0.540000081 -0.0400000066 0.899999857
v -0.410000086 -0.0400000066 -0.599999905
v -0.540000081 0.0399999991 -0.599999905
v -0.410000086 0.0399999991 -0.599999905
v -0.540000081 -0.0400000066 -0.599999905
v 0.410000145 -0.0400000066 -0.599999905
v 0.410000145 0.0399999991 -0.599999905
v 0.540000081 -0.0400000066 -0.599999905
v 0.540000081 0.0399999991 -0.599999905
v 0.410000056 -0.0150000043 0.839999855
v 0.480000049 -0.0150000043 0.839999855
v 0.410000056 0.0149999969 0.839999855
v 0.480000049 -0.0400000066 0.839999855
v 0.480000049 0.0149999969 0.839999855
v 0.480000049 0.0399999991 0.839999855
v 0.410000056 0.0399999991 0.839999855
v -0.410000086 0.0399999991 0.839999855
v 0.0146428645 0.0249999985 0.839999855
v 0.410000056 -0.0400000066 0.839999855
v 0.0146428645 0.0149999969 0.839999855
v -0.0146428645 0.0249999985 0.839999855
v -0.410000086 0.0149999969 0.839999855
v -0.480000079 0.0399999991 0.839999855
v -0.0146428645 0.0149999969 0.839999855
v -0.480000079 0.0149999969 0.839999855
v 0.00488093495 0 0.839999855
v -0.410000086 -0.0150000043 0.839999855
v 0.00488093495 -0.0150000043 0.839999855
v -0.00493726134 0 0.839999855
v -0.00493726134 -0.0150000043 0.839999855
v -0.480000079 -0.0150000043 0.839999855
v -0.410000086 -0.0400000066 0.839999855
v -0.480000079 -0.0400000066 0.839999855
v 0.410000056 0 0.799999833
v 0.440000057 0 0.799999833
v 0.410000056 0.0149999969 0.799999833
v 0.440000057 0.0149999969 0.799999833
v 0.0439285934 0.0149999969 0.799999833
v 0.440000057 -0.0150000043 0.799999833
v 0.0439285934 0 0.799999833
v 0.410000056 -0.0150000043 0.799999833
v 0.0439285934 -0.0150000043 0.799999833
v -0.440000057 0 0.799999833
v -0.410000086 -0.0150000043 0.799999833
v -0.410000086 0 0.799999833
v -0.440000057 -0.0150000043 0.799999833
v -0.440000057 0.0149999969 0.799999833
v -0.0439285636 -0.0150000043 0.799999833
v -0.410000086 0.0149999969 0.799999833
v -0.0439285636 0 0.799999833
v -0.0439285636 0.0149999969 0.799999833
v -0.480000079 0.0149999969 -0.539999902
v -0.480000079 0.0399999991 -0.539999902
v -0.410000086 0.0149999969 -0.539999902
v -0.410000086 0.0399999991 -0.539999902
v -0.410000086 -0.0150000043 -0.539999902
v -0.480000079 -0.0150000043 -0.539999902
v -0.410000086 -0.0400000066 -0.539999902
v -0.480000079 -0.0400000066 -0.539999902
v -0.00488093495 0 -0.539999902
v -0.00488093495 -0.0150000043 -0.539999902
v 0.00488093495 0 -0.539999902
v 0.00488093495 -0.0150000043 -0.539999902
v 0.410000145 -0.0400000066 -0.539999902
v 0.410000145 -0.0150000043 -0.539999902
v 0.480000049 -0.0400000066 -0.539999902
v 0.480000049 -0.0150000043 -0.539999902
v 0.410000145 0.0149999969 -0.539999902
v 0.480000049 0.0149999969 -0.539999902
v -0.0146428645 0.0149999969 -0.539999902
v 0.480000049 0.0399999991 -0.539999902
v 0.410000145 0.0399999991 -0.539999902
v 0.0146428645 0.0149999969 -0.539999902
v -0.0146428645 0.0249999985 -0.539999902
v 0.0146428645 0.0249999985 -0.539999902
v -0.0146428645 0.0149999997 0.769999981
v 0.0146428645 0.0149999997 0.769999981
v -0.0146428645 0.0250000004 0.769999981
v 0.0146428645 0.0250000004 0.769999981
v 0.440000057 -0.0150000043 0.769999981
v 0.480000049 -0.0150000043 0.769999981
v 0.440000057 0 0.769999981
v 0.440000057 0.0149999969 0.769999981
v 0.480000049 0.0149999969 0.769999981
v -0.440000057 -0.0150000043 0.769999981
v -0.440000057 0 0.769999981
v -0.480000079 -0.0150000043 0.769999981
v -0.480000079 0.0149999969 0.769999981
v -0.440000057 0.0149999969 0.769999981
v -0.00488093495 -0.0149999987 0.769999981
v -0.00488093495 -1.86264515e-09 0.769999981
v -0.0439285636 -0.0149999987 0.769999981
v -0.0439285636 -1.86264515e-09 0.769999981
v 0.00488093495 -1.86264515e-09 0.769999981
v 0.00488093495 -0.0149999987 0.769999981
v 0.0439285934 -0.0149999987 0.769999981
v 0.0439285934 -1.86264515e-09 0.769999981
v -0.0439285636 0.0149999997 0.769999981
v -0.0146428645 0.0149999997 0.769999981
v 0.0146428645 0.0149999997 0.769999981
v 0.0439285934 0.0149999997 0.769999981
v -0.0146428645 0.0250000004 0.769999981
v 0.0146428645 0.0250000004 0.769999981
v -0.440000057 0 -0.499999881
v -0.440000057 0.0149999969 -0.499999881
v -0.410000086 0 -0.499999881
v -0.410000086 0.0149999969 -0.499999881
v -0.0439285636 0.0149999969 -0.499999881
v -0.0439285636 0 -0.499999881
v -0.410000086 -0.0150000043 -0.499999881
v -0.440000057 -0.0150000043 -0.499999881
v -0.0439285636 -0.0150000043 -0.499999881
v 0.0439285934 0 -0.499999881
v 0.0439285934 0.0149999969 -0.499999881
v 0.410000145 0 -0.499999881
v 0.410000145 0.0149999969 -0.499999881
v 0.410000145 -0.0150000043 -0.499999881
v 0.0439285934 -0.0150000043 -0.499999881
v 0.440000057 -0.0150000043 -0.499999881
v 0.440000057 0 -0.499999881
v 0.440000057 0.0149999969 -0.499999881
v -0.440000057 0 -0.470000029
v -0.480000079 0.0149999969 -0.470000029
v -0.440000057 0.0149999969 -0.470000029
v -0.480000079 -0.0150000043 -0.470000029
v -0.440000057 -0.0150000043 -0.470000029
v 0.480000049 -0.0150000043 -0.470000029
v 0.440000057 0.0149999969 -0.470000029
v 0.480000049 0.0149999969 -0.470000029
v 0.440000057 0 -0.470000029
v 0.440000057 -0.0150000043 -0.470000029
v 0.0439285934 -0.0149999987 -0.470000029
v 0.00488093495 -1.86264515e-09 -0.470000029
v 0.0439285934 -1.86264515e-09 -0.470000029
v 0.00488093495 -0.0149999987 -0.470000029
v -0.00488093495 -1.86264515e-09 -0.470000029
v -0.0439285636 -1.86264515e-09 -0.470000029
v -0.00488093495 -0.0149999987 -0.470000029
v -0.0439285636 -0.0149999987 -0.470000029
v -0.0439285636 0.0149999997 -0.470000029
v 0.0439285934 0.0149999997 -0.470000029
v -0.0146428645 0.0149999997 -0.470000029
v 0.0146428645 0.0149999997 -0.470000029
v -0.0146428645 0.0250000004 -0.470000029
v 0.0146428645 0.0250000004 -0.470000029
v -0.440000057 -0.0150000043 -0.470000029
v -0.480000079 -0.0150000043 -0.470000029
v -0.440000057 0 -0.470000029
v -0.480000079 0.0149999969 -0.470000029
v -0.440000057 0.0149999969 -0.470000029
v 0.00488093495 -0.0149999987 -0.470000029
v 0.00488093495 -1.86264515e-09 -0.470000029
v 0.0439285934 -0.0149999987 -0.470000029
v 0.0439285934 -1.86264515e-09 -0.470000029
v -0.0439285636 -1.86264515e-09 -0.470000029
v -0.00488093495 -1.86264515e-09 -0.470000029
v -0.0439285636 -0.0149999987 -0.470000029
v -0.00488093495 -0.0149999987 -0.470000029
v -0.0439285636 0.0149999997 -0.470000029
v 0.0439285934 0.0149999997 -0.470000029
v -0.0146428645 0.0149999997 -0.470000029
v 0.0146428645 0.0149999997 -0.470000029
v -0.0146428645 0.0250000004 -0.470000029
v 0.0146428645 0.0250000004 -0.470000029
v 0.440000057 -0.0150000043 -0.470000029
v 0.440000057 0 -0.470000029
v 0.480000049 -0.0150000043 -0.470000029
v 0.440000057 0.0149999969 -0.470000029
v 0.480000049 0.0149999969 -0.470000029
v -0.540000081 -0.0400000066 0.769999981
v -0.540000081 0.0399999991 -0.470000029
v -0.540000081 -0.0400000066 -0.470000029
v -0.540000081 0.0399999991 -0.599999905
v -0.540000081 -0.0400000066 -0.599999905
v -0.540000081 0.0399999991 0.769999981
v -0.540000081 -0.0400000066 0.899999857
v -0.540000081 0.0399999991 0.899999857
v 0.540000081 0.0399999991 0.769999981
v 0.540000081 -0.0400000066 -0.470000029
v 0.540000081 0.0399999991 -0.470000029
v 0.540000081 -0.0400000066 -0.599999905
v 0.540000081 0.0399999991 -0.599999905
v 0.540000081 -0.0400000066 0.769999981
v 0.540000081 0.0399999991 0.899999857
v 0.540000081 -0.0400000066 0.899999857
v -0.480000079 -0.0400000066 0.769999981
v -0.480000079 -0.0150000043 0.769999981
v -0.480000079 -0.0400000066 -0.470000029
v -0.480000079 -0.0150000043 0.839999855
v -0.480000079 -0.0400000066 0.839999855
v -0.480000079 0.0149999969 0.839999855
v -0.480000079 -0.0150000043 -0.470000029
v -0.480000079 0.0149999969 0.769999981
v -0.480000079 -0.0400000066 -0.539999902
v -0.480000079 0.0399999991 0.839999855
v -0.480000079 -0.0150000043 -0.539999902
v -0.480000079 0.0399999991 0.769999981
v -0.480000079 0.0149999969 -0.470000029
v -0.480000079 0.0149999969 -0.539999902
v -0.480000079 0.0399999991 -0.470000029
v -0.480000079 0.0399999991 -0.539999902
v 0.480000049 -0.0150000043 0.769999981
v 0.480000049 -0.0400000066 0.769999981
v 0.480000049 -0.0150000043 -0.470000029
v 0.480000049 -0.0400000066 0.839999855
v 0.480000049 -0.0150000043 0.839999855
v 0.480000049 -0.0400000066 -0.470000029
v 0.480000049 0.0149999969 0.769999981
v 0.480000049 -0.0150000043 -0.539999902
v 0.480000049 -0.0400000066 -0.539999902
v 0.480000049 0.0149999969 -0.539999902
v 0.480000049 0.0149999969 -0.470000029
v 0.480000049 0.0399999991 -0.539999902
v 0.480000049 0.0399999991 -0.470000029
v 0.480000049 0.0399999991 0.769999981
v 0.480000049 0.0149999969 0.839999855
v 0.480000049 0.0399999991 0.839999855
v -0.440000057 -0.0150000043 -0.181274563
v -0.440000057 0 -0.181274563
v -0.440000057 -0.0150000043 -0.470000029
v -0.440000057 0 -0.470000029
v -0.440000057 0 -0.499999881
v -0.440000057 -0.0150000043 -0.499999881
v -0.440000057 0.0149999969 -0.470000029
v -0.440000057 0.0149999969 -0.181274563
v -0.440000057 0.0149999969 -0.499999881
v -0.440000057 -0.0150000043 0.137843132
v -0.440000057 0 0.137843132
v -0.440000057 -0.0150000043 -0.156960815
v -0.440000057 0 -0.156960815
v -0.440000057 0.0149999969 -0.156960815
v -0.440000057 0.0149999969 0.137843132
v -0.440000057 -0.0150000043 0.456960857
v -0.440000057 0 0.456960857
v -0.440000057 -0.0150000043 0.16215688
v -0.440000057 0 0.16215688
v -0.440000057 0.0149999969 0.16215688
v -0.440000057 0.0149999969 0.456960857
v -0.440000057 -0.0150000043 0.769999981
v -0.440000057 0 0.769999981
v -0.440000057 -0.0150000043 0.481274545
v -0.440000057 0 0.481274545
v -0.440000057 -0.0150000043 0.799999833
v -0.440000057 0.0149999969 0.481274545
v -0.440000057 0 0.799999833
v -0.440000057 0.0149999969 0.769999981
v -0.440000057 0.0149999969 0.799999833
v 0.440000057 0 0.137843132
v 0.440000057 -0.0150000043 0.137843132
v 0.440000057 0 -0.156960815
v 0.440000057 -0.0150000043 -0.156960815
v 0.440000057 0.0149999969 0.137843132
v 0.440000057 0.0149999969 -0.156960815
v 0.440000057 0 0.769999981
v 0.440000057 -0.0150000043 0.769999981
v 0.440000057 0 0.481274545
v 0.440000057 -0.0150000043 0.481274545
v 0.440000057 0.0149999969 0.769999981
v 0.440000057 0.0149999969 0.481274545
v 0.440000057 0 0.799999833
v 0.440000057 -0.0150000043 0.799999833
v 0.440000057 0.0149999969 0.799999833
v 0.440000057 0 0.456960857
v 0.440000057 -0.0150000043 0.456960857
v 0.440000057 0 0.16215688
v 0.440000057 -0.0150000043 0.16215688
v 0.440000057 0.0149999969 0.456960857
v 0.440000057 0.0149999969 0.16215688
v 0.440000057 0 -0.181274563
v 0.440000057 -0.0150000043 -0.181274563
v 0.440000057 0 -0.470000029
v 0.440000057 -0.0150000043 -0.470000029
v 0.440000057 0.0149999969 -0.181274563
v 0.440000057 -0.0150000043 -0.499999881
v 0.440000057 0.0149999969 -0.470000029
v 0.440000057 0 -0.499999881
v 0.440000057 0.0149999969 -0.499999881
v -0.410000086 -0.0150000043 -0.156960815
v -0.410000086 0 -0.181274563
v -0.410000086 -0.0150000043 -0.181274563
v -0.410000086 0.0149999969 -0.181274563
v -0.410000086 0.0149999969 -0.156960815
v -0.410000086 0 -0.156960815
v -0.410000086 0 0.16215688
v -0.410000086 0.0149999969 0.137843132
v -0.410000086 0 0.137843132
v -0.410000086 0.0149999969 0.16215688
v -0.410000086 -0.0150000043 0.16215688
v -0.410000086 -0.0150000043 0.137843132
v -0.410000086 -0.0150000043 0.481274545
v -0.410000086 0 0.456960857
v -0.410000086 -0.0150000043 0.456960857
v -0.410000086 0 0.481274545
v -0.410000086 -0.0150000043 0.839999855
v -0.410000086 0.0149999969 0.839999855
v -0.410000086 -0.0150000043 0.799999833
v -0.410000086 0 0.799999833
v -0.410000086 0.0149999969 0.799999833
v -0.410000086 0 -0.499999881
v -0.410000086 0.0149999969 -0.499999881
v -0.410000086 -0.0150000043 -0.499999881
v -0.410000086 -0.0150000043 -0.539999902
v -0.410000086 0.0149999969 -0.539999902
v -0.410000086 -0.0400000066 -0.539999902
v -0.410000086 0.0399999991 -0.599999905
v -0.410000086 -0.0400000066 -0.599999905
v -0.410000086 -0.0150000043 -0.539999902
v -0.410000086 0.0399999991 -0.539999902
v -0.410000086 0.0149999969 -0.539999902
v -0.410000086 -0.0150000043 -0.499999881
v -0.410000086 0.0149999969 -0.499999881
v -0.410000086 0 -0.499999881
v -0.410000086 -0.0150000043 0.839999855
v -0.410000086 0 0.799999833
v -0.410000086 -0.0150000043 0.799999833
v -0.410000086 0.0149999969 0.799999833
v -0.410000086 0.0149999969 0.839999855
v -0.410000086 -0.0400000066 0.899999857
v -0.410000086 -0.0400000066 0.839999855
v -0.410000086 0.0399999991 0.839999855
v -0.410000086 0.0399999991 0.899999857
v 0.410000056 0 -0.156960815
v 0.410000056 -0.0150000043 -0.156960815
v 0.410000056 0.0149999969 -0.156960815
v 0.410000056 0.0149999969 -0.181274563
v 0.410000056 0 -0.181274563
v 0.410000056 -0.0150000043 -0.181274563
v 0.410000056 0.0149999969 -0.156960815
v 0.410000056 0 -0.181274563
v 0.410000056 0.0149999969 -0.181274563
v 0.410000056 -0.0150000043 -0.181274563
v 0.410000056 -0.0150000043 -0.156960815
v 0.410000056 0 -0.156960815
v 0.410000056 0.0149999969 0.16215688
v 0.410000056 0 0.137843132
v 0.410000056 0.0149999969 0.137843132
v 0.410000056 0 0.16215688
v 0.410000056 -0.0150000043 0.137843132
v 0.410000056 -0.0150000043 0.16215688
v 0.410000056 0.0149999969 0.481274545
v 0.410000056 0 0.456960857
v 0.410000056 0.0149999969 0.456960857
v 0.410000056 0 0.481274545
v 0.410000056 0.0149999969 0.839999855
v 0.410000056 -0.0150000043 0.839999855
v 0.410000056 0.0149999969 0.799999833
v 0.410000056 0 0.799999833
v 0.410000056 -0.0150000043 0.799999833
v 0.410000145 0.0149999969 -0.499999881
v 0.410000145 -0.0150000043 -0.539999902
v 0.410000145 0.0149999969 -0.539999902
v 0.410000145 -0.0150000043 -0.499999881
v 0.410000145 0 -0.499999881
v 0.410000145 0 -0.499999881
v 0.410000145 -0.0150000043 -0.499999881
v 0.410000145 0.0149999969 -0.499999881
v 0.410000145 0.0149999969 -0.539999902
v 0.410000145 -0.0150000043 -0.539999902
v 0.410000056 0.0149999969 0.839999855
v 0.410000056 0 0.799999833
v 0.410000056 0.0149999969 0.799999833
v 0.410000056 -0.0150000043 0.799999833
v 0.410000056 -0.0150000043 0.839999855
v -0.440000057 0 0.481274545
v -0.410000086 -0.0150000043 0.481274545
v -0.410000086 0 0.481274545
v -0.440000057 -0.0150000043 0.481274545
v -0.440000057 0.0149999969 0.481274545
v -0.0439285636 -0.0149999987 0.481274545
v -0.410000086 0.0149999969 0.481274545
v -0.0439285636 -1.86264515e-09 0.481274545
v -0.0439285636 0.0149999997 0.481274545
v 0.410000056 0 0.481274545
v 0.440000057 -0.0150000043 0.481274545
v 0.440000057 0 0.481274545
v 0.410000056 -0.0150000043 0.481274545
v 0.410000056 0.0149999969 0.481274545
v 0.440000057 0.0149999969 0.481274545
v 0.0439285934 0.0149999997 0.481274545
v 0.0439285934 -1.86264515e-09 0.481274545
v 0.0439285934 -0.0149999987 0.481274545
v -0.440000057 -0.0150000043 0.456960857
v -0.410000086 -0.0150000043 0.456960857
v -0.440000057 0 0.456960857
v -0.410000086 0 0.456960857
v -0.440000057 0.0149999969 0.456960857
v -0.0439285636 -0.0149999987 0.456960857
v -0.410000086 0.0149999969 0.456960857
v -0.0439285636 -1.86264515e-09 0.456960857
v -0.0439285636 0.0149999997 0.456960857
v 0.410000056 -0.0150000043 0.456960857
v 0.440000057 -0.0150000043 0.456960857
v 0.410000056 0 0.456960857
v 0.440000057 0 0.456960857
v 0.0439285934 -1.86264515e-09 0.456960857
v 0.0439285934 -0.0149999987 0.456960857
v 0.0439285934 0.0149999997 0.456960857
v 0.410000056 0.0149999969 0.456960857
v 0.440000057 0.0149999969 0.456960857
v -0.410000086 -0.0150000043 -0.181274563
v -0.440000057 0 -0.181274563
v -0.410000086 0 -0.181274563
v -0.440000057 -0.0150000043 -0.181274563
v -0.0439285636 -0.0149999987 -0.181274563
v -0.440000057 0.0149999969 -0.181274563
v -0.0439285636 -1.86264515e-09 -0.181274563
v -0.410000086 0.0149999969 -0.181274563
v -0.0439285636 0.0149999997 -0.181274563
v 0.410000056 0 -0.181274563
v 0.410000056 0.0149999969 -0.181274563
v 0.440000057 0 -0.181274563
v 0.440000057 0.0149999969 -0.181274563
v 0.440000057 -0.0150000043 -0.181274563
v 0.0439285934 0.0149999997 -0.181274563
v 0.410000056 -0.0150000043 -0.181274563
v 0.0439285934 -1.86264515e-09 -0.181274563
v 0.0439285934 -0.0149999987 -0.181274563
v -0.440000057 -0.0150000043 -0.156960815
v -0.440000057 0 -0.156960815
v -0.410000086 -0.0150000043 -0.156960815
v -0.410000086 0 -0.156960815
v -0.0439285636 -0.0149999987 -0.156960815
v -0.440000057 0.0149999969 -0.156960815
v -0.0439285636 -1.86264515e-09 -0.156960815
v -0.410000086 0.0149999969 -0.156960815
v -0.0439285636 0.0149999997 -0.156960815
v 0.410000056 -0.0150000043 -0.156960815
v 0.410000056 0 -0.156960815
v 0.440000057 -0.0150000043 -0.156960815
v 0.440000057 0 -0.156960815
v 0.0439285934 -1.86264515e-09 -0.156960815
v 0.0439285934 -0.0149999987 -0.156960815
v 0.0439285934 0.0149999997 -0.156960815
v 0.410000056 0.0149999969 -0.156960815
v 0.440000057 0.0149999969 -0.156960815
v -0.0439285636 -0.0149999987 0.137843132
v -0.0439285636 -1.86264515e-09 -0.156960815
v -0.0439285636 -0.0149999987 -0.156960815
v -0.0439285636 -1.86264515e-09 0.137843132
v -0.0439285636 0.0149999997 0.137843132
v -0.0439285636 0.0149999997 -0.156960815
v -0.0439285636 -1.86264515e-09 0.769999981
v -0.0439285636 0.0149999997 0.769999981
v -0.0439285636 -1.86264515e-09 0.481274545
v -0.0439285636 0.0149999997 0.481274545
v -0.0439285636 -0.0149999987 0.769999981
v -0.0439285636 -0.0149999987 0.481274545
v -0.0439285636 0 0.799999833
v -0.0439285636 0.0149999969 0.799999833
v -0.0439285636 -0.0150000043 0.799999833
v -0.0439285636 -1.86264515e-09 0.456960857
v -0.0439285636 0.0149999997 0.456960857
v -0.0439285636 -1.86264515e-09 0.16215688
v -0.0439285636 0.0149999997 0.16215688
v -0.0439285636 -0.0149999987 0.456960857
v -0.0439285636 -0.0149999987 0.16215688
v -0.0439285636 -1.86264515e-09 -0.181274563
v -0.0439285636 0.0149999997 -0.181274563
v -0.0439285636 -1.86264515e-09 -0.470000029
v -0.0439285636 0.0149999997 -0.470000029
v -0.0439285636 -0.0149999987 -0.181274563
v -0.0439285636 0.0149999969 -0.499999881
v -0.0439285636 -0.0149999987 -0.470000029
v -0.0439285636 0 -0.499999881
v -0.0439285636 -0.0150000043 -0.499999881
v 0.0439285934 0.0149999997 -0.181274563
v 0.0439285934 -1.86264515e-09 -0.181274563
v 0.0439285934 0.0149999997 -0.470000029
v 0.0439285934 -1.86264515e-09 -0.470000029
v 0.0439285934 0 -0.499999881
v 0.0439285934 0.0149999969 -0.499999881
v 0.0439285934 -0.0149999987 -0.470000029
v 0.0439285934 -0.0149999987 -0.181274563
v 0.0439285934 -0.0150000043 -0.499999881
v 0.0439285934 0.0149999997 0.137843132
v 0.0439285934 -1.86264515e-09 0.137843132
v 0.0439285934 0.0149999997 -0.156960815
v 0.0439285934 -1.86264515e-09 -0.156960815
v 0.0439285934 -0.0149999987 -0.156960815
v 0.0439285934 -0.0149999987 0.137843132
v 0.0439285934 0.0149999997 0.456960857
v 0.0439285934 -1.86264515e-09 0.456960857
v 0.0439285934 0.0149999997 0.16215688
v 0.0439285934 -1.86264515e-09 0.16215688
v 0.0439285934 -0.0149999987 0.16215688
v 0.0439285934 -0.0149999987 0.456960857
v 0.0439285934 0.0149999997 0.769999981
v 0.0439285934 -1.86264515e-09 0.769999981
v 0.0439285934 0.0149999997 0.481274545
v 0.0439285934 -1.86264515e-09 0.481274545
v 0.0439285934 0.0149999969 0.799999833
v 0.0439285934 -0.0149999987 0.481274545
v 0.0439285934 0 0.799999833
v 0.0439285934 -0.0149999987 0.769999981
v 0.0439285934 -0.0150000043 0.799999833
v -0.440000057 0 0.16215688
v -0.410000086 -0.0150000043 0.16215688
v -0.410000086 0 0.16215688
v -0.440000057 -0.0150000043 0.16215688
v -0.440000057 0.0149999969 0.16215688
v -0.0439285636 -0.0149999987 0.16215688
v -0.410000086 0.0149999969 0.16215688
v -0.0439285636 -1.86264515e-09 0.16215688
v -0.0439285636 0.0149999997 0.16215688
v -0.540000081 -0.0400000066 -0.470000029
v -0.480000079 -0.0400000066 0.769999981
v -0.540000081 -0.0400000066 0.769999981
v -0.540000081 -0.0400000066 0.899999857
v -0.480000079 -0.0400000066 -0.470000029
v -0.480000079 -0.0400000066 0.839999855
v -0.540000081 -0.0400000066 -0.599999905
v -0.410000086 -0.0400000066 0.899999857
v -0.480000079 -0.0400000066 -0.539999902
v -0.410000086 -0.0400000066 0.839999855
v -0.410000086 -0.0400000066 -0.599999905
v 0.410000056 -0.0400000066 0.839999855
v -0.410000086 -0.0400000066 -0.539999902
v 0.410000056 -0.0400000066 0.899999857
v 0.410000145 -0.0400000066 -0.599999905
v 0.480000049 -0.0400000066 0.839999855
v 0.410000145 -0.0400000066 -0.539999902
v 0.540000081 -0.0400000066 0.899999857
v 0.540000081 -0.0400000066 -0.599999905
v 0.480000049 -0.0400000066 0.769999981
v 0.480000049 -0.0400000066 -0.539999902
v 0.540000081 -0.0400000066 0.769999981
v 0.480000049 -0.0400000066 -0.470000029
v 0.540000081 -0.0400000066 -0.470000029
v 0.410000056 0 0.16215688
v 0.440000057 -0.0150000043 0.16215688
v 0.440000057 0 0.16215688
v 0.410000056 -0.0150000043 0.16215688
v 0.410000056 0.0149999969 0.16215688
v 0.440000057 0.0149999969 0.16215688
v 0.0439285934 0.0149999997 0.16215688
v 0.0439285934 -1.86264515e-09 0.16215688
v 0.0439285934 -0.0149999987 0.16215688
v -0.480000079 0.0399999991 0.769999981
v -0.540000081 0.0399999991 -0.470000029
v -0.540000081 0.0399999991 0.769999981
v -0.540000081 0.0399999991 0.899999857
v -0.480000079 0.0399999991 -0.470000029
v -0.480000079 0.0399999991 0.839999855
v -0.540000081 0.0399999991 -0.599999905
v -0.410000086 0.0399999991 0.899999857
v -0.480000079 0.0399999991 -0.539999902
v -0.410000086 0.0399999991 0.839999855
v -0.410000086 0.0399999991 -0.599999905
v 0.410000056 0.0399999991 0.899999857
v -0.410000086 0.0399999991 -0.539999902
v 0.410000056 0.0399999991 0.839999855
v 0.410000145 0.0399999991 -0.539999902
v 0.540000081 0.0399999991 0.899999857
v 0.410000145 0.0399999991 -0.599999905
v 0.480000049 0.0399999991 0.839999855
v 0.480000049 0.0399999991 -0.539999902
v 0.480000049 0.0399999991 0.769999981
v 0.540000081 0.0399999991 -0.599999905
v 0.540000081 0.0399999991 0.769999981
v 0.480000049 0.0399999991 -0.470000029
v 0.540000081 0.0399999991 -0.470000029
v 0.0146428645 0.0250000004 0.769999981
v 0.0146428645 0.0250000004 -0.470000029
v -0.0146428645 0.0250000004 0.769999981
v 0.0146428645 0.0249999985 0.839999855
v -0.0146428645 0.0249999985 0.839999855
v -0.0146428645 0.0250000004 -0.470000029
v -0.0146428645 0.0249999985 -0.539999902
v 0.0146428645 0.0249999985 -0.539999902
v -0.440000057 -0.0150000043 0.137843132
v -0.410000086 -0.0150000043 0.137843132
v -0.440000057 0 0.137843132
v -0.410000086 0 0.137843132
v -0.440000057 0.0149999969 0.137843132
v -0.0439285636 -0.0149999987 0.137843132
v -0.410000086 0.0149999969 0.137843132
v -0.0439285636 -1.86264515e-09 0.137843132
v -0.0439285636 0.0149999997 0.137843132
v 0.410000056 -0.0150000043 0.137843132
v 0.440000057 -0.0150000043 0.137843132
v 0.410000056 0 0.137843132
v 0.440000057 0 0.137843132
v 0.0439285934 -1.86264515e-09 0.137843132
v 0.0439285934 -0.0149999987 0.137843132
v 0.0439285934 0.0149999997 0.137843132
v 0.410000056 0.0149999969 0.137843132
v 0.440000057 0.0149999969 0.137843132
v -0.0146428645 0.0149999997 0.769999981
v -0.0146428645 0.0250000004 0.769999981
v -0.0146428645 0.0149999997 -0.470000029
v -0.0146428645 0.0149999969 0.839999855
v -0.0146428645 0.0249999985 0.839999855
v -0.0146428645 0.0250000004 -0.470000029
v -0.0146428645 0.0249999985 -0.539999902
v -0.0146428645 0.0149999969 -0.539999902
v -0.480000079 -0.0150000043 -0.470000029
v -0.440000057 -0.0150000043 0.769999981
v -0.480000079 -0.0150000043 0.769999981
v -0.480000079 -0.0150000043 0.839999855
v -0.440000057 -0.0150000043 0.799999833
v -0.410000086 -0.0150000043 0.839999855
v -0.410000086 -0.0150000043 0.799999833
v -0.00493726134 -0.0150000043 0.839999855
v -0.0439285636 -0.0150000043 0.799999833
v -0.0439285636 -0.0149999987 0.769999981
v -0.00488093495 -0.0149999987 0.769999981
v -0.00488093495 -0.0149999987 -0.470000029
v -0.0439285636 -0.0149999987 0.481274545
v -0.0439285636 -0.0149999987 0.456960857
v -0.410000086 -0.0150000043 0.481274545
v -0.410000086 -0.0150000043 0.456960857
v -0.0439285636 -0.0149999987 0.16215688
v -0.440000057 -0.0150000043 0.481274545
v -0.440000057 -0.0150000043 0.456960857
v -0.440000057 -0.0150000043 0.16215688
v -0.440000057 -0.0150000043 0.137843132
v -0.410000086 -0.0150000043 0.137843132
v -0.410000086 -0.0150000043 0.16215688
v -0.440000057 -0.0150000043 -0.156960815
v -0.0439285636 -0.0149999987 0.137843132
v -0.0439285636 -0.0149999987 -0.156960815
v -0.440000057 -0.0150000043 -0.181274563
v -0.410000086 -0.0150000043 -0.181274563
v -0.440000057 -0.0150000043 -0.470000029
v -0.410000086 -0.0150000043 -0.156960815
v -0.480000079 -0.0150000043 -0.539999902
v -0.0439285636 -0.0149999987 -0.181274563
v -0.440000057 -0.0150000043 -0.499999881
v -0.0439285636 -0.0149999987 -0.470000029
v -0.410000086 -0.0150000043 -0.539999902
v -0.0439285636 -0.0150000043 -0.499999881
v -0.410000086 -0.0150000043 -0.499999881
v -0.00488093495 -0.0150000043 -0.539999902
v 0.440000057 -0.0150000043 -0.181274563
v 0.410000056 -0.0150000043 -0.156960815
v 0.410000056 -0.0150000043 -0.181274563
v 0.440000057 -0.0150000043 -0.156960815
v 0.0439285934 -0.0149999987 -0.156960815
v 0.440000057 -0.0150000043 -0.470000029
v 0.0439285934 -0.0149999987 -0.181274563
v 0.440000057 -0.0150000043 0.137843132
v 0.0439285934 -0.0149999987 -0.470000029
v 0.440000057 -0.0150000043 0.16215688
v 0.410000056 -0.0150000043 0.16215688
v 0.410000056 -0.0150000043 0.137843132
v 0.0439285934 -0.0149999987 0.16215688
v 0.0439285934 -0.0149999987 0.137843132
v 0.0439285934 -0.0149999987 0.481274545
v 0.0439285934 -0.0149999987 0.456960857
v 0.410000056 -0.0150000043 0.456960857
v 0.410000056 -0.0150000043 0.481274545
v 0.440000057 -0.0150000043 0.456960857
v 0.440000057 -0.0150000043 0.481274545
v 0.440000057 -0.0150000043 0.769999981
v 0.00488093495 -0.0149999987 0.769999981
v 0.0439285934 -0.0149999987 0.769999981
v 0.0439285934 -0.0150000043 0.799999833
v 0.00488093495 -0.0149999987 -0.470000029
v 0.00488093495 -0.0150000043 0.839999855
v 0.00488093495 -0.0150000043 -0.539999902
v 0.410000056 -0.0150000043 0.839999855
v 0.0439285934 -0.0150000043 -0.499999881
v 0.410000056 -0.0150000043 0.799999833
v 0.410000145 -0.0150000043 -0.539999902
v 0.480000049 -0.0150000043 0.839999855
v 0.410000145 -0.0150000043 -0.499999881
v 0.440000057 -0.0150000043 0.799999833
v 0.440000057 -0.0150000043 -0.499999881
v 0.480000049 -0.0150000043 -0.539999902
v 0.480000049 -0.0150000043 0.769999981
v 0.480000049 -0.0150000043 -0.470000029
v -0.410000086 0.0149999969 0.481274545
v -0.410000086 0.0149999969 0.456960857
v -0.440000057 0.0149999969 0.481274545
v -0.0439285636 0.0149999997 0.456960857
v -0.440000057 0.0149999969 0.456960857
v -0.0439285636 0.0149999997 0.481274545
v -0.440000057 0.0149999969 0.16215688
v -0.0146428645 0.0149999997 -0.470000029
v -0.0439285636 0.0149999997 0.16215688
v -0.0439285636 0.0149999997 0.769999981
v -0.440000057 0.0149999969 0.137843132
v -0.410000086 0.0149999969 0.137843132
v -0.410000086 0.0149999969 0.16215688
v -0.440000057 0.0149999969 -0.156960815
v -0.0439285636 0.0149999997 0.137843132
v -0.440000057 0.0149999969 0.769999981
v -0.0439285636 0.0149999997 -0.156960815
v -0.0439285636 0.0149999997 -0.181274563
v -0.410000086 0.0149999969 -0.156960815
v -0.0439285636 0.0149999997 -0.470000029
v -0.410000086 0.0149999969 -0.181274563
v -0.440000057 0.0149999969 -0.181274563
v -0.0439285636 0.0149999969 -0.499999881
v -0.0146428645 0.0149999969 -0.539999902
v -0.410000086 0.0149999969 -0.539999902
v -0.410000086 0.0149999969 -0.499999881
v -0.440000057 0.0149999969 -0.499999881
v -0.480000079 0.0149999969 -0.539999902
v -0.440000057 0.0149999969 -0.470000029
v -0.480000079 0.0149999969 -0.470000029
v -0.480000079 0.0149999969 0.769999981
v -0.480000079 0.0149999969 0.839999855
v -0.440000057 0.0149999969 0.799999833
v -0.410000086 0.0149999969 0.839999855
v -0.410000086 0.0149999969 0.799999833
v -0.0146428645 0.0149999969 0.839999855
v -0.0439285636 0.0149999969 0.799999833
v -0.0146428645 0.0149999997 0.769999981
v 0.440000057 0.0149999969 0.16215688
v 0.440000057 0.0149999969 0.137843132
v 0.410000056 0.0149999969 0.16215688
v 0.410000056 0.0149999969 0.137843132
v 0.0439285934 0.0149999997 0.16215688
v 0.0439285934 0.0149999997 0.137843132
v 0.0439285934 0.0149999997 0.481274545
v 0.0439285934 0.0149999997 0.456960857
v 0.440000057 0.0149999969 -0.470000029
v 0.410000056 0.0149999969 0.456960857
v 0.440000057 0.0149999969 0.456960857
v 0.410000056 0.0149999969 0.481274545
v 0.440000057 0.0149999969 0.481274545
v 0.440000057 0.0149999969 -0.156960815
v 0.440000057 0.0149999969 0.769999981
v 0.440000057 0.0149999969 -0.181274563
v 0.410000056 0.0149999969 -0.156960815
v 0.410000056 0.0149999969 -0.181274563
v 0.0439285934 0.0149999997 -0.156960815
v 0.0439285934 0.0149999997 -0.181274563
v 0.480000049 0.0149999969 -0.470000029
v 0.440000057 0.0149999969 -0.499999881
v 0.480000049 0.0149999969 0.769999981
v 0.480000049 0.0149999969 -0.539999902
v 0.480000049 0.0149999969 0.839999855
v 0.410000145 0.0149999969 -0.539999902
v 0.440000057 0.0149999969 0.799999833
v 0.410000145 0.0149999969 -0.499999881
v 0.410000056 0.0149999969 0.799999833
v 0.0439285934 0.0149999969 -0.499999881
v 0.410000056 0.0149999969 0.839999855
v 0.0146428645 0.0149999969 -0.539999902
v 0.0439285934 0.0149999969 0.799999833
v 0.0146428645 0.0149999969 0.839999855
v 0.0439285934 0.0149999997 -0.470000029
v 0.0146428645 0.0149999997 -0.470000029
v 0.0146428645 0.0149999997 0.769999981
v 0.0439285934 0.0149999997 0.769999981
v 0.0146428645 0.0250000004 0.769999981
v 0.0146428645 0.0149999997 0.769999981
v 0.0146428645 0.0250000004 -0.470000029
v 0.0146428645 0.0249999985 0.839999855
v 0.0146428645 0.0149999969 0.839999855
v 0.0146428645 0.0149999997 -0.470000029
v 0.0146428645 0.0149999969 -0.539999902
v 0.0146428645 0.0249999985 -0.539999902
v -0.00488093495 -0.0149999987 0.769999981
v -0.00488093495 -1.86264515e-09 0.769999981
v -0.00488093495 -0.0149999987 -0.470000029
v -0.00488093495 -1.86264515e-09 -0.470000029
v -0.00488093495 0 -0.499999881
v -0.00488093495 0 -0.539999902
v -0.00488093495 -0.0150000043 -0.539999902
v -0.00493726134 -0.0150000043 0.839999855
v -0.00488093495 -1.86264515e-09 0.769999981
v -0.00488093495 -0.0149999987 0.769999981
v -0.00493726134 0 0.839999855
v 0.00488093495 -1.86264515e-09 0.769999981
v 0.00488093495 -0.0149999987 0.769999981
v 0.00488093495 -1.86264515e-09 -0.470000029
v 0.00488093495 0 0.839999855
v 0.00488093495 -0.0150000043 0.839999855
v 0.00488093495 -0.0149999987 -0.470000029
v 0.00488093495 0 -0.499999881
v 0.00488093495 -0.0150000043 -0.539999902
v 0.00488093495 0 -0.539999902
v 0.00488093495 -1.86264515e-09 -0.470000029
v -0.00488093495 -1.86264515e-09 0.769999981
v -0.00488093495 -1.86264515e-09 -0.470000029
v 0.00488093495 -1.86264515e-09 0.769999981
v 0.00488093495 0 0.839999855
v -0.00493726134 0 0.839999855
v 0.00488093495 0 -0.539999902
v 0.00488093495 0 -0.499999881
v -0.00488093495 0 -0.499999881
v -0.00488093495 0 -0.539999902
v 0.00488093495 -1.86264515e-09 0.769999981
v 0.00488093495 -1.86264515e-09 -0.470000029
v -0.00488093495 -1.86264515e-09 0.769999981
v 0.00488093495 0 0.839999855
v -0.00493726134 0 0.839999855
v -0.00488093495 -1.86264515e-09 -0.470000029
v 0.00488093495 0 -0.539999902
v 0.00488093495 0 -0.499999881
v -0.00488093495 0 -0.499999881
v -0.00488093495 0 -0.539999902
v 0.00488093495 -0.0149999987 0.769999981
v 0.00488093495 -1.86264515e-09 -0.470000029
v 0.00488093495 -0.0149999987 -0.470000029
v 0.00488093495 0 -0.499999881
v 0.00488093495 -0.0150000043 -0.539999902
v 0.00488093495 0 -0.539999902
v 0.00488093495 -1.86264515e-09 0.769999981
v 0.00488093495 0 0.839999855
v 0.00488093495 -0.0150000043 0.839999855
v -0.00488093495 -1.86264515e-09 0.769999981
v -0.00488093495 -0.0149999987 -0.470000029
v -0.00488093495 -1.86264515e-09 -0.470000029
v -0.00488093495 -0.0149999987 0.769999981
v -0.00488093495 0 -0.499999881
v -0.00488093495 0 -0.539999902
v -0.00488093495 -0.0150000043 -0.539999902
v -0.00493726134 0 0.839999855
v -0.00493726134 -0.0150000043 0.839999855
v -0.00488093495 -1.86264515e-09 0.769999981
v -0.00488093495 -0.0149999987 0.769999981
v 0.0146428645 0.0149999997 0.769999981
v 0.0146428645 0.0250000004 -0.470000029
v 0.0146428645 0.0149999997 -0.470000029
v 0.0146428645 0.0149999969 -0.539999902
v 0.0146428645 0.0249999985 -0.539999902
v 0.0146428645 0.0250000004 0.769999981
v 0.0146428645 0.0249999985 0.839999855
v 0.0146428645 0.0149999969 0.839999855
v -0.480000079 0.0149999969 -0.470000029
v -0.440000057 0.0149999969 0.769999981
v -0.480000079 0.0149999969 0.769999981
v -0.480000079 0.0149999969 0.839999855
v -0.440000057 0.0149999969 0.799999833
v -0.410000086 0.0149999969 0.839999855
v -0.410000086 0.0149999969 0.799999833
v -0.0146428645 0.0149999969 0.839999855
v -0.0439285636 0.0149999969 0.799999833
v -0.0439285636 0.0149999997 0.769999981
v -0.0146428645 0.0149999997 0.769999981
v -0.0146428645 0.0149999997 -0.470000029
v -0.0439285636 0.0149999997 0.481274545
v -0.0439285636 0.0149999997 0.456960857
v -0.410000086 0.0149999969 0.481274545
v -0.410000086 0.0149999969 0.456960857
v -0.0439285636 0.0149999997 0.16215688
v -0.440000057 0.0149999969 0.481274545
v -0.440000057 0.0149999969 0.456960857
v -0.440000057 0.0149999969 0.16215688
v -0.440000057 0.0149999969 0.137843132
v -0.410000086 0.0149999969 0.137843132
v -0.410000086 0.0149999969 0.16215688
v -0.440000057 0.0149999969 -0.156960815
v -0.0439285636 0.0149999997 0.137843132
v -0.0439285636 0.0149999997 -0.156960815
v -0.440000057 0.0149999969 -0.181274563
v -0.410000086 0.0149999969 -0.181274563
v -0.440000057 0.0149999969 -0.470000029
v -0.410000086 0.0149999969 -0.156960815
v -0.480000079 0.0149999969 -0.539999902
v -0.0439285636 0.0149999997 -0.181274563
v -0.440000057 0.0149999969 -0.499999881
v -0.0439285636 0.0149999997 -0.470000029
v -0.410000086 0.0149999969 -0.539999902
v -0.0439285636 0.0149999969 -0.499999881
v -0.410000086 0.0149999969 -0.499999881
v -0.0146428645 0.0149999969 -0.539999902
v 0.440000057 0.0149999969 -0.181274563
v 0.410000056 0.0149999969 -0.156960815
v 0.410000056 0.0149999969 -0.181274563
v 0.440000057 0.0149999969 -0.156960815
v 0.0439285934 0.0149999997 -0.156960815
v 0.440000057 0.0149999969 -0.470000029
v 0.0439285934 0.0149999997 -0.181274563
v 0.440000057 0.0149999969 0.137843132
v 0.0439285934 0.0149999997 -0.470000029
v 0.440000057 0.0149999969 0.16215688
v 0.410000056 0.0149999969 0.16215688
v 0.410000056 0.0149999969 0.137843132
v 0.0439285934 0.0149999997 0.16215688
v 0.0439285934 0.0149999997 0.137843132
v 0.0439285934 0.0149999997 0.481274545
v 0.0439285934 0.0149999997 0.456960857
v 0.410000056 0.0149999969 0.456960857
v 0.410000056 0.0149999969 0.481274545
v 0.440000057 0.0149999969 0.456960857
v 0.440000057 0.0149999969 0.481274545
v 0.440000057 0.0149999969 0.769999981
v 0.0146428645 0.0149999997 0.769999981
v 0.0439285934 0.0149999997 0.769999981
v 0.0439285934 0.0149999969 0.799999833
v 0.0146428645 0.0149999997 -0.470000029
v 0.0146428645 0.0149999969 0.839999855
v 0.0146428645 0.0149999969 -0.539999902
v 0.410000056 0.0149999969 0.839999855
v 0.0439285934 0.0149999969 -0.499999881
v 0.410000056 0.0149999969 0.799999833
v 0.410000145 0.0149999969 -0.539999902
v 0.480000049 0.0149999969 0.839999855
v 0.410000145 0.0149999969 -0.499999881
v 0.440000057 0.0149999969 0.799999833
v 0.440000057 0.0149999969 -0.499999881
v 0.480000049 0.0149999969 -0.539999902
v 0.480000049 0.0149999969 0.769999981
v 0.480000049 0.0149999969 -0.470000029
v -0.410000086 -0.0150000043 0.481274545
v -0.410000086 -0.0150000043 0.456960857
v -0.440000057 -0.0150000043 0.481274545
v -0.0439285636 -0.0149999987 0.456960857
v -0.440000057 -0.0150000043 0.456960857
v -0.0439285636 -0.0149999987 0.481274545
v -0.440000057 -0.0150000043 0.16215688
v -0.00488093495 -0.0149999987 -0.470000029
v -0.0439285636 -0.0149999987 0.16215688
v -0.0439285636 -0.0149999987 0.769999981
v -0.440000057 -0.0150000043 0.137843132
v -0.410000086 -0.0150000043 0.137843132
v -0.410000086 -0.0150000043 0.16215688
v -0.440000057 -0.0150000043 -0.156960815
v -0.0439285636 -0.0149999987 0.137843132
v -0.440000057 -0.0150000043 0.769999981
v -0.0439285636 -0.0149999987 -0.156960815
v -0.0439285636 -0.0149999987 -0.181274563
v -0.410000086 -0.0150000043 -0.156960815
v -0.0439285636 -0.0149999987 -0.470000029
v -0.410000086 -0.0150000043 -0.181274563
v -0.440000057 -0.0150000043 -0.181274563
v -0.0439285636 -0.0150000043 -0.499999881
v -0.00488093495 -0.0150000043 -0.539999902
v -0.410000086 -0.0150000043 -0.539999902
v -0.410000086 -0.0150000043 -0.499999881
v -0.440000057 -0.0150000043 -0.499999881
v -0.480000079 -0.0150000043 -0.539999902
v -0.440000057 -0.0150000043 -0.470000029
v -0.480000079 -0.0150000043 -0.470000029
v -0.480000079 -0.0150000043 0.769999981
v -0.480000079 -0.0150000043 0.839999855
v -0.440000057 -0.0150000043 0.799999833
v -0.410000086 -0.0150000043 0.839999855
v -0.410000086 -0.0150000043 0.799999833
v -0.00493726134 -0.0150000043 0.839999855
v -0.0439285636 -0.0150000043 0.799999833
v -0.00488093495 -0.0149999987 0.769999981
v 0.440000057 -0.0150000043 0.16215688
v 0.440000057 -0.0150000043 0.137843132
v 0.410000056 -0.0150000043 0.16215688
v 0.410000056 -0.0150000043 0.137843132
v 0.0439285934 -0.0149999987 0.16215688
v 0.0439285934 -0.0149999987 0.137843132
v 0.0439285934 -0.0149999987 0.481274545
v 0.0439285934 -0.0149999987 0.456960857
v 0.440000057 -0.0150000043 -0.470000029
v 0.410000056 -0.0150000043 0.456960857
v 0.440000057 -0.0150000043 0.456960857
v 0.410000056 -0.0150000043 0.481274545
v 0.440000057 -0.0150000043 0.481274545
v 0.440000057 -0.0150000043 -0.156960815
v 0.440000057 -0.0150000043 0.769999981
v 0.440000057 -0.0150000043 -0.181274563
v 0.410000056 -0.0150000043 -0.156960815
v 0.410000056 -0.0150000043 -0.181274563
v 0.0439285934 -0.0149999987 -0.156960815
v 0.0439285934 -0.0149999987 -0.181274563
v 0.480000049 -0.0150000043 -0.470000029
v 0.440000057 -0.0150000043 -0.499999881
v 0.480000049 -0.0150000043 0.769999981
v 0.480000049 -0.0150000043 -0.539999902
v 0.480000049 -0.0150000043 0.839999855
v 0.410000145 -0.0150000043 -0.539999902
v 0.440000057 -0.0150000043 0.799999833
v 0.410000145 -0.0150000043 -0.499999881
v 0.410000056 -0.0150000043 0.799999833
v 0.0439285934 -0.0150000043 -0.499999881
v 0.410000056 -0.0150000043 0.839999855
v 0.00488093495 -0.0150000043 -0.539999902
v 0.0439285934 -0.0150000043 0.799999833
v 0.00488093495 -0.0150000043 0.839999855
v 0.0439285934 -0.0149999987 -0.470000029
v 0.00488093495 -0.0149999987 -0.470000029
v 0.00488093495 -0.0149999987 0.769999981
v 0.0439285934 -0.0149999987 0.769999981
v -0.410000086 -0.0150000043 0.137843132
v -0.440000057 0 0.137843132
v -0.410000086 0 0.137843132
v -0.440000057 -0.0150000043 0.137843132
v -0.0439285636 -0.0149999987 0.137843132
v -0.440000057 0.0149999969 0.137843132
v -0.0439285636 -1.86264515e-09 0.137843132
v -0.410000086 0.0149999969 0.137843132
v -0.0439285636 0.0149999997 0.137843132
v 0.440000057 -0.0150000043 0.137843132
v 0.410000056 0 0.137843132
v 0.440000057 0 0.137843132
v 0.410000056 -0.0150000043 0.137843132
v 0.410000056 0.0149999969 0.137843132
v 0.440000057 0.0149999969 0.137843132
v 0.0439285934 0.0149999997 0.137843132
v 0.0439285934 -1.86264515e-09 0.137843132
v 0.0439285934 -0.0149999987 0.137843132
v -0.0146428645 0.0250000004 0.769999981
v -0.0146428645 0.0149999997 -0.470000029
v -0.0146428645 0.0250000004 -0.470000029
v -0.0146428645 0.0249999985 -0.539999902
v -0.0146428645 0.0149999969 -0.539999902
v -0.0146428645 0.0149999997 0.769999981
v -0.0146428645 0.0149999969 0.839999855
v -0.0146428645 0.0249999985 0.839999855
v 0.0146428645 0.0250000004 -0.470000029
v -0.0146428645 0.0250000004 0.769999981
v -0.0146428645 0.0250000004 -0.470000029
v -0.0146428645 0.0249999985 -0.539999902
v 0.0146428645 0.0249999985 -0.539999902
v 0.0146428645 0.0250000004 0.769999981
v 0.0146428645 0.0249999985 0.839999855
v -0.0146428645 0.0249999985 0.839999855
v -0.480000079 0.0399999991 -0.470000029
v -0.480000079 0.0399999991 0.769999981
v -0.540000081 0.0399999991 -0.470000029
v -0.540000081 0.0399999991 0.769999981
v -0.540000081 0.0399999991 -0.599999905
v -0.540000081 0.0399999991 0.899999857
v -0.480000079 0.0399999991 -0.539999902
v -0.480000079 0.0399999991 0.839999855
v -0.410000086 0.0399999991 -0.599999905
v -0.410000086 0.0399999991 0.899999857
v -0.410000086 0.0399999991 -0.539999902
v -0.410000086 0.0399999991 0.839999855
v 0.410000145 0.0399999991 -0.539999902
v 0.410000056 0.0399999991 0.899999857
v 0.410000145 0.0399999991 -0.599999905
v 0.410000056 0.0399999991 0.839999855
v 0.480000049 0.0399999991 -0.539999902
v 0.540000081 0.0399999991 0.899999857
v 0.540000081 0.0399999991 -0.599999905
v 0.480000049 0.0399999991 0.839999855
v 0.480000049 0.0399999991 -0.470000029
v 0.480000049 0.0399999991 0.769999981
v 0.540000081 0.0399999991 -0.470000029
v 0.540000081 0.0399999991 0.769999981
v -0.440000057 -0.0150000043 0.16215688
v -0.440000057 0 0.16215688
v -0.410000086 -0.0150000043 0.16215688
v -0.410000086 0 0.16215688
v -0.0439285636 -0.0149999987 0.16215688
v -0.440000057 0.0149999969 0.16215688
v -0.0439285636 -1.86264515e-09 0.16215688
v -0.410000086 0.0149999969 0.16215688
v -0.0439285636 0.0149999997 0.16215688
v -0.480000079 -0.0400000066 -0.470000029
v -0.540000081 -0.0400000066 -0.470000029
v -0.480000079 -0.0400000066 0.769999981
v -0.540000081 -0.0400000066 0.769999981
v -0.540000081 -0.0400000066 -0.599999905
v -0.540000081 -0.0400000066 0.899999857
v -0.480000079 -0.0400000066 -0.539999902
v -0.480000079 -0.0400000066 0.839999855
v -0.410000086 -0.0400000066 -0.599999905
v -0.410000086 -0.0400000066 0.899999857
v -0.410000086 -0.0400000066 -0.539999902
v -0.410000086 -0.0400000066 0.839999855
v 0.410000145 -0.0400000066 -0.599999905
v 0.410000056 -0.0400000066 0.839999855
v 0.410000145 -0.0400000066 -0.539999902
v 0.410000056 -0.0400000066 0.899999857
v 0.540000081 -0.0400000066 -0.599999905
v 0.480000049 -0.0400000066 0.839999855
v 0.480000049 -0.0400000066 -0.539999902
v 0.540000081 -0.0400000066 0.899999857
v 0.480000049 -0.0400000066 -0.470000029
v 0.480000049 -0.0400000066 0.769999981
v 0.540000081 -0.0400000066 -0.470000029
v 0.540000081 -0.0400000066 0.769999981
v 0.410000056 -0.0150000043 0.16215688
v 0.410000056 0 0.16215688
v 0.440000057 -0.0150000043 0.16215688
v 0.440000057 0 0.16215688
v 0.0439285934 -1.86264515e-09 0.16215688
v 0.0439285934 -0.0149999987 0.16215688
v 0.0439285934 0.0149999997 0.16215688
v 0.410000056 0.0149999969 0.16215688
v 0.440000057 0.0149999969 0.16215688
v 0.0439285934 -1.86264515e-09 -0.181274563
v 0.0439285934 0.0149999997 -0.470000029
v 0.0439285934 -1.86264515e-09 -0.470000029
v 0.0439285934 0.0149999997 -0.181274563
v 0.0439285934 -0.0149999987 -0.470000029
v 0.0439285934 -0.0149999987 -0.181274563
v 0.0439285934 0 -0.499999881
v 0.0439285934 0.0149999969 -0.499999881
v 0.0439285934 -0.0150000043 -0.499999881
v 0.0439285934 -1.86264515e-09 0.137843132
v 0.0439285934 0.0149999997 -0.156960815
v 0.0439285934 -1.86264515e-09 -0.156960815
v 0.0439285934 0.0149999997 0.137843132
v 0.0439285934 -0.0149999987 -0.156960815
v 0.0439285934 -0.0149999987 0.137843132
v 0.0439285934 -1.86264515e-09 0.456960857
v 0.0439285934 0.0149999997 0.16215688
v 0.0439285934 -1.86264515e-09 0.16215688
v 0.0439285934 0.0149999997 0.456960857
v 0.0439285934 -0.0149999987 0.16215688
v 0.0439285934 -0.0149999987 0.456960857
v 0.0439285934 -1.86264515e-09 0.769999981
v 0.0439285934 0.0149999997 0.481274545
v 0.0439285934 -1.86264515e-09 0.481274545
v 0.0439285934 0.0149999997 0.769999981
v 0.0439285934 -0.0149999987 0.481274545
v 0.0439285934 0.0149999969 0.799999833
v 0.0439285934 -0.0149999987 0.769999981
v 0.0439285934 0 0.799999833
v 0.0439285934 -0.0150000043 0.799999833
v -0.0439285636 -1.86264515e-09 0.137843132
v -0.0439285636 -0.0149999987 0.137843132
v -0.0439285636 -1.86264515e-09 -0.156960815
v -0.0439285636 -0.0149999987 -0.156960815
v -0.0439285636 0.0149999997 0.137843132
v -0.0439285636 0.0149999997 -0.156960815
v -0.0439285636 0.0149999997 0.769999981
v -0.0439285636 -1.86264515e-09 0.481274545
v -0.0439285636 0.0149999997 0.481274545
v -0.0439285636 -1.86264515e-09 0.769999981
v -0.0439285636 0 0.799999833
v -0.0439285636 0.0149999969 0.799999833
v -0.0439285636 -0.0149999987 0.769999981
v -0.0439285636 -0.0149999987 0.481274545
v -0.0439285636 -0.0150000043 0.799999833
v -0.0439285636 0.0149999997 0.456960857
v -0.0439285636 -1.86264515e-09 0.16215688
v -0.0439285636 0.0149999997 0.16215688
v -0.0439285636 -1.86264515e-09 0.456960857
v -0.0439285636 -0.0149999987 0.456960857
v -0.0439285636 -0.0149999987 0.16215688
v -0.0439285636 0.0149999997 -0.181274563
v -0.0439285636 -1.86264515e-09 -0.470000029
v -0.0439285636 0.0149999997 -0.470000029
v -0.0439285636 0.0149999969 -0.499999881
v -0.0439285636 -1.86264515e-09 -0.181274563
v -0.0439285636 0 -0.499999881
v -0.0439285636 -0.0149999987 -0.181274563
v -0.0439285636 -0.0150000043 -0.499999881
v -0.0439285636 -0.0149999987 -0.470000029
v -0.440000057 0 -0.156960815
v -0.410000086 -0.0150000043 -0.156960815
v -0.410000086 0 -0.156960815
v -0.440000057 -0.0150000043 -0.156960815
v -0.440000057 0.0149999969 -0.156960815
v -0.0439285636 -0.0149999987 -0.156960815
v -0.410000086 0.0149999969 -0.156960815
v -0.0439285636 -1.86264515e-09 -0.156960815
v -0.0439285636 0.0149999997 -0.156960815
v 0.410000056 0 -0.156960815
v 0.440000057 -0.0150000043 -0.156960815
v 0.440000057 0 -0.156960815
v 0.410000056 -0.0150000043 -0.156960815
v 0.410000056 0.0149999969 -0.156960815
v 0.440000057 0.0149999969 -0.156960815
v 0.0439285934 0.0149999997 -0.156960815
v 0.0439285934 -1.86264515e-09 -0.156960815
v 0.0439285934 -0.0149999987 -0.156960815
v -0.440000057 -0.0150000043 -0.181274563
v -0.410000086 -0.0150000043 -0.181274563
v -0.440000057 0 -0.181274563
v -0.410000086 0 -0.181274563
v -0.440000057 0.0149999969 -0.181274563
v -0.0439285636 -0.0149999987 -0.181274563
v -0.410000086 0.0149999969 -0.181274563
v -0.0439285636 -1.86264515e-09 -0.181274563
v -0.0439285636 0.0149999997 -0.181274563
v 0.410000056 0.0149999969 -0.181274563
v 0.440000057 0 -0.181274563
v 0.440000057 0.0149999969 -0.181274563
v 0.410000056 0 -0.181274563
v 0.0439285934 0.0149999997 -0.181274563
v 0.440000057 -0.0150000043 -0.181274563
v 0.0439285934 -1.86264515e-09 -0.181274563
v 0.410000056 -0.0150000043 -0.181274563
v 0.0439285934 -0.0149999987 -0.181274563
v -0.410000086 -0.0150000043 0.456960857
v -0.440000057 0 0.456960857
v -0.410000086 0 0.456960857
v -0.440000057 -0.0150000043 0.456960857
v -0.0439285636 -0.0149999987 0.456960857
v -0.440000057 0.0149999969 0.456960857
v -0.0439285636 -1.86264515e-09 0.456960857
v -0.410000086 0.0149999969 0.456960857
v -0.0439285636 0.0149999997 0.456960857
v 0.440000057 -0.0150000043 0.456960857
v 0.410000056 0 0.456960857
v 0.440000057 0 0.456960857
v 0.410000056 -0.0150000043 0.456960857
v 0.410000056 0.0149999969 0.456960857
v 0.440000057 0.0149999969 0.456960857
v 0.0439285934 0.0149999997 0.456960857
v 0.0439285934 -1.86264515e-09 0.456960857
v 0.0439285934 -0.0149999987 0.456960857
v -0.440000057 -0.0150000043 0.481274545
v -0.440000057 0 0.481274545
v -0.410000086 -0.0150000043 0.481274545
v -0.410000086 0 0.481274545
v -0.0439285636 -0.0149999987 0.481274545
v -0.440000057 0.0149999969 0.481274545
v -0.0439285636 -1.86264515e-09 0.481274545
v -0.410000086 0.0149999969 0.481274545
v -0.0439285636 0.0149999997 0.481274545
v 0.410000056 -0.0150000043 0.481274545
v 0.410000056 0 0.481274545
v 0.440000057 -0.0150000043 0.481274545
v 0.440000057 0 0.481274545
v 0.0439285934 -1.86264515e-09 0.481274545
v 0.0439285934 -0.0149999987 0.481274545
v 0.0439285934 0.0149999997 0.481274545
v 0.410000056 0.0149999969 0.481274545
v 0.440000057 0.0149999969 0.481274545
v 0.410000056 -0.0150000043 -0.156960815
v 0.410000056 0 -0.181274563
v 0.410000056 -0.0150000043 -0.181274563
v 0.410000056 0.0149999969 -0.181274563
v 0.410000056 0.0149999969 -0.156960815
v 0.410000056 0 -0.156960815
v 0.410000056 0 -0.156960815
v 0.410000056 0.0149999969 -0.156960815
v 0.410000056 -0.0150000043 -0.156960815
v 0.410000056 -0.0150000043 -0.181274563
v 0.410000056 0 -0.181274563
v 0.410000056 0.0149999969 -0.181274563
v 0.410000056 0 0.16215688
v 0.410000056 0.0149999969 0.16215688
v 0.410000056 0 0.137843132
v 0.410000056 0.0149999969 0.137843132
v 0.410000056 -0.0150000043 0.137843132
v 0.410000056 -0.0150000043 0.16215688
v 0.410000056 0 0.481274545
v 0.410000056 0.0149999969 0.481274545
v 0.410000056 0 0.456960857
v 0.410000056 0.0149999969 0.456960857
v 0.410000056 -0.0150000043 0.839999855
v 0.410000056 0 0.799999833
v 0.410000056 -0.0150000043 0.799999833
v 0.410000056 0.0149999969 0.799999833
v 0.410000056 0.0149999969 0.839999855
v 0.410000145 -0.0400000066 -0.539999902
v 0.410000145 0.0399999991 -0.599999905
v 0.410000145 -0.0400000066 -0.599999905
v 0.410000145 0.0399999991 -0.539999902
v 0.410000145 -0.0150000043 -0.539999902
v 0.410000145 0.0149999969 -0.539999902
v 0.410000145 0.0149999969 -0.499999881
v 0.410000145 -0.0150000043 -0.499999881
v 0.410000145 0 -0.499999881
v 0.410000145 -0.0150000043 -0.499999881
v 0.410000145 0.0149999969 -0.539999902
v 0.410000145 -0.0150000043 -0.539999902
v 0.410000145 0.0149999969 -0.499999881
v 0.410000145 0 -0.499999881
v 0.410000056 -0.0150000043 0.839999855
v 0.410000056 0.0149999969 0.839999855
v 0.410000056 -0.0150000043 0.799999833
v 0.410000056 0 0.799999833
v 0.410000056 0.0149999969 0.799999833
v 0.410000056 -0.0400000066 0.899999857
v 0.410000056 -0.0400000066 0.839999855
v 0.410000056 0.0399999991 0.839999855
v 0.410000056 0.0399999991 0.899999857
v -0.410000086 0 -0.156960815
v -0.410000086 -0.0150000043 -0.156960815
v -0.410000086 0.0149999969 -0.156960815
v -0.410000086 0.0149999969 -0.181274563
v -0.410000086 0 -0.181274563
v -0.410000086 -0.0150000043 -0.181274563
v -0.410000086 0.0149999969 0.16215688
v -0.410000086 0 0.16215688
v -0.410000086 0.0149999969 0.137843132
v -0.410000086 0 0.137843132
v -0.410000086 -0.0150000043 0.16215688
v -0.410000086 -0.0150000043 0.137843132
v -0.410000086 0 0.481274545
v -0.410000086 -0.0150000043 0.481274545
v -0.410000086 0 0.456960857
v -0.410000086 -0.0150000043 0.456960857
v -0.410000086 0.0149999969 0.839999855
v -0.410000086 0 0.799999833
v -0.410000086 0.0149999969 0.799999833
v -0.410000086 -0.0150000043 0.799999833
v -0.410000086 -0.0150000043 0.839999855
v -0.410000086 0.0149999969 -0.499999881
v -0.410000086 -0.0150000043 -0.539999902
v -0.410000086 0.0149999969 -0.539999902
v -0.410000086 -0.0150000043 -0.499999881
v -0.410000086 0 -0.499999881
v -0.410000086 0 -0.499999881
v -0.410000086 -0.0150000043 -0.499999881
v -0.410000086 0.0149999969 -0.499999881
v -0.410000086 0.0149999969 -0.539999902
v -0.410000086 -0.0150000043 -0.539999902
v -0.410000086 0.0149999969 0.839999855
v -0.410000086 -0.0150000043 0.839999855
v -0.410000086 0.0149999969 0.799999833
v -0.410000086 0 0.799999833
v -0.410000086 -0.0150000043 0.799999833
v 0.440000057 -0.0150000043 0.137843132
v 0.440000057 0 -0.156960815
v 0.440000057 -0.0150000043 -0.156960815
v 0.440000057 0 0.137843132
v 0.440000057 0.0149999969 0.137843132
v 0.440000057 0.0149999969 -0.156960815
v 0.440000057 -0.0150000043 0.769999981
v 0.440000057 0 0.481274545
v 0.440000057 -0.0150000043 0.481274545
v 0.440000057 0 0.769999981
v 0.440000057 0 0.799999833
v 0.440000057 -0.0150000043 0.799999833
v 0.440000057 0.0149999969 0.769999981
v 0.440000057 0.0149999969 0.481274545
v 0.440000057 0.0149999969 0.799999833
v 0.440000057 -0.0150000043 0.456960857
v 0.440000057 0 0.16215688
v 0.440000057 -0.0150000043 0.16215688
v 0.440000057 0 0.456960857
v 0.440000057 0.0149999969 0.456960857
v 0.440000057 0.0149999969 0.16215688
v 0.440000057 -0.0150000043 -0.181274563
v 0.440000057 0 -0.470000029
v 0.440000057 -0.0150000043 -0.470000029
v 0.440000057 -0.0150000043 -0.499999881
v 0.440000057 0 -0.181274563
v 0.440000057 0 -0.499999881
v 0.440000057 0.0149999969 -0.181274563
v 0.440000057 0.0149999969 -0.499999881
v 0.440000057 0.0149999969 -0.470000029
v -0.440000057 0 -0.181274563
v -0.440000057 -0.0150000043 -0.470000029
v -0.440000057 0 -0.470000029
v -0.440000057 -0.0150000043 -0.181274563
v -0.440000057 0.0149999969 -0.470000029
v -0.440000057 0.0149999969 -0.181274563
v -0.440000057 0 -0.499999881
v -0.440000057 -0.0150000043 -0.499999881
v -0.440000057 0.0149999969 -0.499999881
v -0.440000057 0 0.137843132
v -0.440000057 -0.0150000043 -0.156960815
v -0.440000057 0 -0.156960815
v -0.440000057 -0.0150000043 0.137843132
v -0.440000057 0.0149999969 -0.156960815
v -0.440000057 0.0149999969 0.137843132
v -0.440000057 0 0.456960857
v -0.440000057 -0.0150000043 0.16215688
v -0.440000057 0 0.16215688
v -0.440000057 -0.0150000043 0.456960857
v -0.440000057 0.0149999969 0.16215688
v -0.440000057 0.0149999969 0.456960857
v -0.440000057 0 0.769999981
v -0.440000057 -0.0150000043 0.481274545
v -0.440000057 0 0.481274545
v -0.440000057 -0.0150000043 0.769999981
v -0.440000057 0.0149999969 0.481274545
v -0.440000057 -0.0150000043 0.799999833
v -0.440000057 0.0149999969 0.769999981
v -0.440000057 0 0.799999833
v -0.440000057 0.0149999969 0.799999833
v 0.480000049 -0.0400000066 0.769999981
v 0.480000049 -0.0150000043 -0.470000029
v 0.480000049 -0.0400000066 -0.470000029
v 0.480000049 -0.0150000043 -0.539999902
v 0.480000049 -0.0400000066 -0.539999902
v 0.480000049 0.0149999969 -0.539999902
v 0.480000049 -0.0150000043 0.769999981
v 0.480000049 0.0149999969 -0.470000029
v 0.480000049 -0.0400000066 0.839999855
v 0.480000049 0.0399999991 -0.539999902
v 0.480000049 -0.0150000043 0.839999855
v 0.480000049 0.0399999991 -0.470000029
v 0.480000049 0.0149999969 0.769999981
v 0.480000049 0.0149999969 0.839999855
v 0.480000049 0.0399999991 0.769999981
v 0.480000049 0.0399999991 0.839999855
v -0.480000079 -0.0150000043 0.769999981
v -0.480000079 -0.0400000066 -0.470000029
v -0.480000079 -0.0150000043 -0.470000029
v -0.480000079 -0.0400000066 -0.539999902
v -0.480000079 -0.0150000043 -0.539999902
v -0.480000079 -0.0400000066 0.769999981
v -0.480000079 0.0149999969 -0.470000029
v -0.480000079 0.0149999969 -0.539999902
v -0.480000079 -0.0150000043 0.839999855
v -0.480000079 -0.0400000066 0.839999855
v -0.480000079 0.0149999969 0.839999855
v -0.480000079 0.0149999969 0.769999981
v -0.480000079 0.0399999991 0.839999855
v -0.480000079 0.0399999991 0.769999981
v -0.480000079 0.0399999991 -0.470000029
v -0.480000079 0.0399999991 -0.539999902
v 0.540000081 -0.0400000066 0.769999981
v 0.540000081 0.0399999991 0.769999981
v 0.540000081 -0.0400000066 -0.470000029
v 0.540000081 0.0399999991 0.899999857
v 0.540000081 -0.0400000066 0.899999857
v 0.540000081 0.0399999991 -0.470000029
v 0.540000081 -0.0400000066 -0.599999905
v 0.540000081 0.0399999991 -0.599999905
v -0.540000081 0.0399999991 0.769999981
v -0.540000081 -0.0400000066 0.769999981
v -0.540000081 0.0399999991 -0.470000029
v -0.540000081 -0.0400000066 0.899999857
v -0.540000081 0.0399999991 0.899999857
v -0.540000081 -0.0400000066 -0.470000029
v -0.540000081 0.0399999991 -0.599999905
v -0.540000081 -0.0400000066 -0.599999905
v -0.540000081 -0.0400000066 -0.470000029
v -0.480000079 0.0399999991 -0.470000029
v -0.540000081 0.0399999991 -0.470000029
v -0.480000079 0.0149999969 -0.470000029
v -0.480000079 -0.0150000043 -0.470000029
v -0.480000079 -0.0400000066 -0.470000029
v -0.440000057 0 -0.470000029
v -0.440000057 0.0149999969 -0.470000029
v -0.440000057 -0.0150000043 -0.470000029
v 0.480000049 0.0149999969 -0.470000029
v 0.540000081 0.0399999991 -0.470000029
v 0.480000049 0.0399999991 -0.470000029
v 0.540000081 -0.0400000066 -0.470000029
v 0.480000049 -0.0150000043 -0.470000029
v 0.480000049 -0.0400000066 -0.470000029
v 0.440000057 0.0149999969 -0.470000029
v 0.440000057 0 -0.470000029
v 0.440000057 -0.0150000043 -0.470000029
v -0.0439285636 -0.0149999987 -0.470000029
v -0.00488093495 -0.0149999987 -0.470000029
v -0.0439285636 -1.86264515e-09 -0.470000029
v -0.00488093495 -1.86264515e-09 -0.470000029
v 0.0439285934 -1.86264515e-09 -0.470000029
v -0.0439285636 0.0149999997 -0.470000029
v 0.00488093495 -1.86264515e-09 -0.470000029
v 0.0439285934 -0.0149999987 -0.470000029
v 0.00488093495 -0.0149999987 -0.470000029
v 0.0439285934 0.0149999997 -0.470000029
v -0.0146428645 0.0149999997 -0.470000029
v 0.0146428645 0.0149999997 -0.470000029
v -0.0146428645 0.0250000004 -0.470000029
v 0.0146428645 0.0250000004 -0.470000029
v -0.480000079 0.0149999969 -0.470000029
v -0.440000057 0 -0.470000029
v -0.440000057 0.0149999969 -0.470000029
v -0.480000079 -0.0150000043 -0.470000029
v -0.440000057 -0.0150000043 -0.470000029
v -0.0439285636 -0.0149999987 -0.470000029
v -0.00488093495 -1.86264515e-09 -0.470000029
v -0.0439285636 -1.86264515e-09 -0.470000029
v -0.00488093495 -0.0149999987 -0.470000029
v 0.00488093495 -1.86264515e-09 -0.470000029
v 0.0439285934 -1.86264515e-09 -0.470000029
v -0.0439285636 0.0149999997 -0.470000029
v 0.0439285934 -0.0149999987 -0.470000029
v 0.00488093495 -0.0149999987 -0.470000029
v 0.0439285934 0.0149999997 -0.470000029
v -0.0146428645 0.0149999997 -0.470000029
v 0.0146428645 0.0149999997 -0.470000029
v -0.0146428645 0.0250000004 -0.470000029
v 0.0146428645 0.0250000004 -0.470000029
v 0.440000057 0.0149999969 -0.470000029
v 0.480000049 -0.0150000043 -0.470000029
v 0.480000049 0.0149999969 -0.470000029
v 0.440000057 0 -0.470000029
v 0.440000057 -0.0150000043 -0.470000029
v -0.440000057 0.0149999969 -0.499999881
v -0.410000086 0 -0.499999881
v -0.410000086 0.0149999969 -0.499999881
v -0.0439285636 0.0149999969 -0.499999881
v -0.440000057 0 -0.499999881
v -0.0439285636 0 -0.499999881
v -0.410000086 -0.0150000043 -0.499999881
v -0.440000057 -0.0150000043 -0.499999881
v -0.0439285636 -0.0150000043 -0.499999881
v 0.0439285934 0.0149999969 -0.499999881
v 0.410000145 0 -0.499999881
v 0.410000145 0.0149999969 -0.499999881
v 0.0439285934 0 -0.499999881
v 0.440000057 0 -0.499999881
v 0.440000057 0.0149999969 -0.499999881
v 0.440000057 -0.0150000043 -0.499999881
v 0.410000145 -0.0150000043 -0.499999881
v 0.0439285934 -0.0150000043 -0.499999881
v 0.0146428645 0.0149999997 0.769999981
v -0.0146428645 0.0250000004 0.769999981
v 0.0146428645 0.0250000004 0.769999981
v -0.0146428645 0.0149999997 0.769999981
v 0.480000049 -0.0150000043 0.769999981
v 0.440000057 0.0149999969 0.769999981
v 0.480000049 0.0149999969 0.769999981
v 0.440000057 0 0.769999981
v 0.440000057 -0.0150000043 0.769999981
v -0.440000057 0 0.769999981
v -0.480000079 0.0149999969 0.769999981
v -0.440000057 0.0149999969 0.769999981
v -0.480000079 -0.0150000043 0.769999981
v -0.440000057 -0.0150000043 0.769999981
v 0.0146428645 0.0149999997 0.769999981
v -0.0146428645 0.0250000004 0.769999981
v 0.0146428645 0.0250000004 0.769999981
v -0.0146428645 0.0149999997 0.769999981
v 0.0439285934 -1.86264515e-09 0.769999981
v 0.0439285934 0.0149999997 0.769999981
v -0.0439285636 0.0149999997 0.769999981
v -0.0439285636 -1.86264515e-09 0.769999981
v 0.00488093495 -1.86264515e-09 0.769999981
v 0.0439285934 -0.0149999987 0.769999981
v 0.00488093495 -0.0149999987 0.769999981
v -0.00488093495 -1.86264515e-09 0.769999981
v -0.0439285636 -0.0149999987 0.769999981
v -0.00488093495 -0.0149999987 0.769999981
v -0.480000079 0.0399999991 -0.539999902
v -0.410000086 0.0149999969 -0.539999902
v -0.410000086 0.0399999991 -0.539999902
v -0.480000079 0.0149999969 -0.539999902
v -0.410000086 -0.0150000043 -0.539999902
v -0.480000079 -0.0150000043 -0.539999902
v -0.410000086 -0.0400000066 -0.539999902
v -0.480000079 -0.0400000066 -0.539999902
v -0.00488093495 0 -0.539999902
v -0.00488093495 -0.0150000043 -0.539999902
v 0.00488093495 -0.0150000043 -0.539999902
v 0.410000145 -0.0400000066 -0.539999902
v 0.00488093495 0 -0.539999902
v 0.410000145 -0.0150000043 -0.539999902
v 0.480000049 -0.0400000066 -0.539999902
v 0.480000049 -0.0150000043 -0.539999902
v -0.0146428645 0.0149999969 -0.539999902
v 0.410000145 0.0149999969 -0.539999902
v 0.480000049 0.0149999969 -0.539999902
v 0.0146428645 0.0149999969 -0.539999902
v -0.0146428645 0.0249999985 -0.539999902
v 0.0146428645 0.0249999985 -0.539999902
v 0.410000145 0.0399999991 -0.539999902
v 0.480000049 0.0399999991 -0.539999902
v 0.440000057 0 0.799999833
v 0.410000056 0.0149999969 0.799999833
v 0.440000057 0.0149999969 0.799999833
v 0.410000056 0 0.799999833
v 0.440000057 -0.0150000043 0.799999833
v 0.0439285934 0.0149999969 0.799999833
v 0.410000056 -0.0150000043 0.799999833
v 0.0439285934 0 0.799999833
v 0.0439285934 -0.0150000043 0.799999833
v -0.440000057 -0.0150000043 0.799999833
v -0.440000057 0 0.799999833
v -0.410000086 -0.0150000043 0.799999833
v -0.410000086 0 0.799999833
v -0.0439285636 -0.0150000043 0.799999833
v -0.440000057 0.0149999969 0.799999833
v -0.0439285636 0 0.799999833
v -0.410000086 0.0149999969 0.799999833
v -0.0439285636 0.0149999969 0.799999833
v 0.480000049 -0.0150000043 0.839999855
v 0.410000056 0.0149999969 0.839999855
v 0.480000049 0.0149999969 0.839999855
v 0.410000056 0.0399999991 0.839999855
v 0.480000049 0.0399999991 0.839999855
v -0.410000086 0.0399999991 0.839999855
v 0.0146428645 0.0249999985 0.839999855
v 0.410000056 -0.0150000043 0.839999855
v 0.480000049 -0.0400000066 0.839999855
v 0.0146428645 0.0149999969 0.839999855
v -0.0146428645 0.0249999985 0.839999855
v -0.410000086 0.0149999969 0.839999855
v -0.480000079 0.0399999991 0.839999855
v -0.0146428645 0.0149999969 0.839999855
v -0.480000079 0.0149999969 0.839999855
v 0.410000056 -0.0400000066 0.839999855
v 0.00488093495 0 0.839999855
v -0.410000086 -0.0150000043 0.839999855
v -0.480000079 -0.0150000043 0.839999855
v -0.00493726134 0 0.839999855
v 0.00488093495 -0.0150000043 0.839999855
v -0.00493726134 -0.0150000043 0.839999855
v -0.410000086 -0.0400000066 0.839999855
v -0.480000079 -0.0400000066 0.839999855
v -0.540000081 -0.0400000066 -0.599999905
v -0.410000086 -0.0400000066 -0.599999905
v -0.540000081 0.0399999991 -0.599999905
v -0.410000086 0.0399999991 -0.599999905
v 0.410000145 -0.0400000066 -0.599999905
v 0.410000145 0.0399999991 -0.599999905
v 0.540000081 -0.0400000066 -0.599999905
v 0.540000081 0.0399999991 -0.599999905
v 0.410000056 -0.0400000066 0.899999857
v 0.410000056 0.0399999991 0.899999857
v 0.540000081 -0.0400000066 0.899999857
v 0.540000081 0.0399999991 0.899999857
v -0.410000086 0.0399999991 0.899999857
v -0.410000086 -0.0400000066 0.899999857
v -0.540000081 0.0399999991 0.899999857
v -0.540000081 -0.0400000066 0.899999857
f 1 2 3
f 2 1 4
f 5 4 1
f 4 5 6
f 7 6 5
f 6 7 8
f 9 10 11
f 10 9 12
f 11 13 9
f 13 11 14
f 14 15 13
f 15 14 16
f 17 18 19
f 18 17 20
f 21 19 18
f 22 23 21
f 19 21 23
f 23 24 19
f 25 19 24
f 26 20 17
f 27 19 25
f 19 27 17
f 25 24 28
f 25 28 27
f 29 28 24
f 24 30 29
f 31 27 28
f 31 17 27
f 31 28 29
f 32 29 30
f 33 17 31
f 29 33 31
f 29 32 34
f 35 17 33
f 17 35 26
f 33 29 36
f 33 36 35
f 34 36 29
f 37 35 36
f 37 26 35
f 37 36 34
f 34 26 37
f 38 34 32
f 39 26 34
f 34 38 39
f 40 39 38
f 41 42 43
f 44 43 42
f 43 45 41
f 41 46 42
f 47 41 45
f 46 41 48
f 47 48 41
f 48 47 49
f 50 51 52
f 51 50 53
f 50 52 54
f 55 52 51
f 56 54 52
f 52 55 57
f 52 57 56
f 58 56 57
f 59 60 61
f 62 61 60
f 61 63 59
f 64 59 63
f 63 65 64
f 66 64 65
f 61 67 63
f 68 63 67
f 63 68 65
f 67 61 69
f 67 69 68
f 70 65 68
f 70 68 69
f 71 65 70
f 70 72 71
f 70 69 72
f 71 72 73
f 74 73 72
f 72 75 74
f 76 74 75
f 69 77 72
f 61 77 69
f 78 76 79
f 75 79 76
f 79 75 62
f 77 80 72
f 75 72 80
f 77 61 81
f 61 62 81
f 77 81 80
f 82 62 75
f 82 81 62
f 80 82 75
f 82 80 81
f 83 84 85
f 86 85 84
f 87 88 89
f 89 88 90
f 91 90 88
f 92 93 94
f 94 93 95
f 96 95 93
f 97 98 99
f 99 98 100
f 101 100 98
f 102 103 101
f 103 104 101
f 101 104 100
f 100 104 105
f 105 104 106
f 106 104 107
f 108 107 104
f 106 107 109
f 110 109 107
f 111 112 113
f 114 113 112
f 114 115 113
f 116 113 115
f 117 111 113
f 116 117 113
f 111 117 118
f 117 116 119
f 120 121 122
f 123 122 121
f 124 120 122
f 120 124 125
f 122 126 124
f 126 122 127
f 122 123 127
f 128 127 123
f 129 130 131
f 130 129 132
f 132 129 133
f 134 135 136
f 135 134 137
f 137 134 138
f 139 140 141
f 140 139 142
f 143 141 140
f 144 141 143
f 144 143 145
f 144 145 146
f 147 141 144
f 147 148 141
f 149 148 147
f 149 150 148
f 151 150 149
f 150 151 152
f 153 154 155
f 154 156 155
f 157 155 156
f 158 159 160
f 160 159 161
f 159 162 161
f 163 162 159
f 162 163 164
f 165 164 163
f 162 166 161
f 161 166 167
f 166 168 167
f 167 168 169
f 168 170 169
f 171 169 170
f 172 173 174
f 173 175 174
f 176 174 175
f 177 178 179
f 180 179 178
f 179 180 181
f 178 177 182
f 183 182 177
f 182 183 184
f 185 186 187
f 188 187 186
f 187 188 189
f 186 185 190
f 191 190 185
f 190 191 192
f 193 194 195
f 194 193 196
f 197 196 193
f 196 198 194
f 199 195 194
f 200 194 198
f 195 199 201
f 198 202 200
f 203 201 199
f 204 200 202
f 199 205 203
f 200 204 205
f 206 203 205
f 207 205 204
f 205 207 206
f 208 206 207
f 209 210 211
f 210 209 212
f 213 212 209
f 214 211 210
f 209 215 213
f 211 214 216
f 217 216 214
f 216 218 211
f 219 211 218
f 218 220 219
f 221 219 220
f 219 221 215
f 222 215 221
f 223 213 215
f 215 222 223
f 224 223 222
f 225 226 227
f 228 227 226
f 229 227 228
f 227 229 230
f 226 231 228
f 228 231 229
f 231 226 232
f 233 229 231
f 234 235 236
f 237 236 235
f 235 238 237
f 238 235 239
f 240 241 242
f 243 242 241
f 241 244 243
f 244 241 245
f 246 247 248
f 249 248 247
f 250 247 246
f 247 251 249
f 247 250 252
f 251 247 253
f 252 254 247
f 253 247 254
f 255 256 257
f 258 257 256
f 257 259 255
f 259 257 260
f 261 262 263
f 264 263 262
f 263 265 261
f 265 263 266
f 267 262 261
f 261 265 267
f 262 267 268
f 269 267 265
f 270 271 272
f 273 272 271
f 272 274 270
f 274 272 275
f 276 277 278
f 279 278 277
f 278 280 276
f 281 278 279
f 280 278 282
f 278 281 283
f 282 278 284
f 283 284 278
f 285 286 287
f 286 285 288
f 288 285 289
f 289 285 290
f 291 292 293
f 292 291 294
f 293 295 291
f 295 293 296
f 297 298 299
f 298 297 300
f 301 302 303
f 303 302 304
f 305 304 302
f 306 307 308
f 308 307 309
f 310 309 307
f 311 312 313
f 312 311 314
f 314 315 312
f 315 314 316
f 317 316 314
f 316 317 318
f 318 317 319
f 320 321 322
f 321 320 323
f 323 320 324
f 320 325 324
f 325 320 326
f 324 325 327
f 327 325 328
f 329 330 331
f 331 330 332
f 332 330 333
f 334 333 330
f 335 336 337
f 336 335 338
f 338 335 339
f 339 335 340
f 341 342 343
f 342 341 344
f 344 345 342
f 345 344 346
f 347 348 349
f 348 347 350
f 351 352 353
f 353 352 354
f 355 354 352
f 356 357 358
f 357 356 359
f 359 356 360
f 361 362 363
f 363 362 364
f 365 364 362
f 366 367 368
f 367 366 369
f 369 366 370
f 371 372 373
f 372 371 374
f 371 373 375
f 376 373 372
f 377 375 373
f 373 376 378
f 373 378 377
f 379 377 378
f 380 381 382
f 381 380 383
f 380 382 384
f 385 384 382
f 384 386 380
f 387 380 386
f 387 383 380
f 383 387 388
f 389 390 391
f 392 391 390
f 392 393 391
f 390 394 392
f 393 392 395
f 396 392 394
f 396 395 392
f 395 396 397
f 398 399 400
f 401 400 399
f 400 402 398
f 403 398 402
f 400 404 402
f 404 400 405
f 401 405 400
f 405 401 406
f 407 408 409
f 408 407 410
f 409 411 407
f 408 412 409
f 411 409 413
f 414 409 412
f 409 414 413
f 415 413 414
f 416 417 418
f 419 418 417
f 420 416 418
f 417 416 421
f 416 420 422
f 423 421 416
f 422 423 416
f 423 422 424
f 425 426 427
f 428 427 426
f 427 428 429
f 430 428 426
f 431 429 428
f 428 430 432
f 432 431 428
f 431 432 433
f 434 435 436
f 437 436 435
f 435 434 438
f 439 438 434
f 440 435 438
f 435 440 441
f 441 437 435
f 437 441 442
f 443 444 445
f 444 443 446
f 446 447 444
f 448 444 447
f 449 450 451
f 452 451 450
f 451 453 449
f 453 451 454
f 455 450 449
f 449 453 455
f 450 455 456
f 457 455 453
f 458 459 460
f 461 460 459
f 460 462 458
f 462 460 463
f 464 465 466
f 467 466 465
f 466 468 464
f 469 466 467
f 468 466 470
f 466 469 471
f 470 466 472
f 471 472 466
f 473 474 475
f 476 475 474
f 477 475 476
f 475 477 478
f 474 479 476
f 476 479 477
f 479 474 480
f 481 477 479
f 482 483 484
f 485 484 483
f 483 486 485
f 486 483 487
f 488 489 490
f 491 490 489
f 489 492 491
f 492 489 493
f 494 495 496
f 497 496 495
f 498 495 494
f 495 499 497
f 495 498 500
f 499 495 501
f 500 502 495
f 501 495 502
f 503 504 505
f 504 503 506
f 503 505 507
f 508 505 504
f 509 507 505
f 505 508 510
f 505 510 509
f 511 509 510
f 512 513 514
f 513 515 514
f 513 512 516
f 515 513 517
f 518 516 512
f 515 517 519
f 516 518 520
f 519 517 521
f 522 520 518
f 523 519 521
f 520 522 524
f 519 523 525
f 526 524 522
f 527 525 523
f 524 526 528
f 525 527 529
f 530 528 526
f 529 527 531
f 528 530 532
f 529 531 533
f 532 530 534
f 531 535 533
f 534 530 535
f 535 531 534
f 536 537 538
f 537 536 539
f 536 538 540
f 541 540 538
f 540 542 536
f 543 536 542
f 543 539 536
f 539 543 544
f 545 546 547
f 548 545 547
f 546 545 549
f 545 548 550
f 549 551 546
f 552 550 548
f 551 549 553
f 550 552 554
f 551 553 555
f 556 554 552
f 555 553 557
f 554 556 558
f 559 555 557
f 560 558 556
f 555 559 561
f 558 560 562
f 563 561 559
f 562 560 564
f 561 563 565
f 564 560 566
f 565 563 567
f 568 564 566
f 565 567 568
f 564 568 567
f 569 570 571
f 571 572 569
f 572 571 573
f 574 571 570
f 570 575 574
f 575 570 576
f 577 578 579
f 580 579 578
f 580 581 579
f 578 582 580
f 581 580 583
f 584 580 582
f 584 583 580
f 583 584 585
f 586 587 588
f 589 588 587
f 588 590 586
f 591 586 590
f 588 592 590
f 592 588 593
f 589 593 588
f 593 589 594
f 595 596 597
f 598 596 595
f 596 598 599
f 600 597 596
f 601 597 600
f 597 601 602
f 603 604 605
f 605 604 606
f 607 606 604
f 606 607 608
f 609 608 607
f 608 609 610
f 611 610 609
f 612 610 611
f 613 610 612
f 612 614 613
f 615 614 612
f 616 614 615
f 617 616 615
f 616 617 618
f 619 614 616
f 620 618 617
f 620 621 618
f 620 622 621
f 620 623 622
f 624 622 623
f 622 624 625
f 620 626 623
f 627 625 624
f 625 627 619
f 627 614 619
f 604 626 620
f 628 614 627
f 626 604 629
f 604 603 629
f 630 626 629
f 629 603 631
f 626 630 632
f 603 633 631
f 634 632 630
f 632 634 628
f 634 614 628
f 635 631 633
f 614 634 636
f 637 635 633
f 636 638 614
f 639 635 637
f 639 637 638
f 640 638 637
f 614 638 640
f 641 642 643
f 642 641 644
f 645 643 642
f 644 641 646
f 643 645 647
f 644 646 648
f 645 649 647
f 648 646 650
f 651 648 650
f 648 651 652
f 653 652 651
f 652 653 654
f 655 654 653
f 655 645 654
f 655 653 656
f 657 655 656
f 655 657 658
f 659 658 657
f 650 646 659
f 658 659 660
f 659 646 660
f 660 646 661
f 662 645 655
f 662 655 663
f 662 649 645
f 664 662 663
f 649 662 665
f 662 664 666
f 665 667 649
f 668 666 664
f 669 649 667
f 670 668 664
f 671 669 667
f 668 670 672
f 673 669 671
f 674 672 670
f 673 671 675
f 661 672 674
f 676 675 671
f 677 672 661
f 678 675 676
f 661 678 677
f 646 675 678
f 661 646 678
f 679 680 681
f 680 679 682
f 680 683 681
f 684 682 679
f 683 685 681
f 684 686 682
f 682 686 687
f 688 686 684
f 685 689 681
f 689 685 690
f 691 690 685
f 689 692 681
f 690 691 693
f 687 693 691
f 687 686 693
f 681 692 694
f 693 686 695
f 695 686 696
f 695 696 697
f 698 696 686
f 699 697 696
f 697 699 692
f 700 692 699
f 700 694 692
f 686 701 698
f 702 701 686
f 703 701 702
f 701 703 704
f 703 705 704
f 706 705 703
f 706 707 705
f 707 706 708
f 707 708 700
f 700 708 694
f 709 694 708
f 710 694 709
f 694 710 711
f 712 711 710
f 711 712 713
f 714 713 712
f 713 714 715
f 715 714 688
f 688 714 716
f 716 686 688
f 717 718 719
f 720 719 718
f 719 720 721
f 722 721 720
f 721 722 723
f 724 721 723
f 717 725 718
f 724 723 726
f 727 725 717
f 728 726 723
f 726 728 727
f 729 727 728
f 729 725 727
f 718 725 730
f 731 725 729
f 725 732 730
f 730 732 733
f 734 733 732
f 733 734 735
f 736 735 734
f 737 725 731
f 737 738 725
f 739 737 731
f 740 738 737
f 731 741 739
f 742 738 740
f 743 741 731
f 738 742 744
f 745 741 743
f 742 746 744
f 741 745 747
f 748 746 742
f 749 747 745
f 749 750 747
f 748 751 746
f 751 748 752
f 750 749 753
f 752 753 751
f 754 753 749
f 754 723 753
f 735 751 753
f 723 735 753
f 736 751 735
f 722 735 723
f 755 756 757
f 758 756 755
f 756 758 759
f 760 757 756
f 761 757 760
f 757 761 762
f 763 764 765
f 766 765 764
f 767 765 766
f 768 765 767
f 765 768 769
f 770 771 772
f 771 770 773
f 774 775 776
f 777 775 774
f 775 777 778
f 779 776 775
f 779 780 776
f 781 780 779
f 780 781 782
f 783 784 785
f 784 783 786
f 786 787 784
f 788 784 787
f 785 789 783
f 783 789 790
f 791 789 785
f 789 791 792
f 793 794 795
f 795 796 793
f 796 795 797
f 798 795 794
f 794 799 798
f 800 799 794
f 798 799 801
f 802 801 799
f 803 804 805
f 804 806 805
f 805 806 807
f 808 807 806
f 804 803 809
f 809 803 810
f 811 810 803
f 812 813 814
f 813 812 815
f 814 813 816
f 816 813 817
f 818 817 813
f 819 820 821
f 822 821 820
f 823 824 825
f 825 824 826
f 827 826 824
f 824 823 828
f 828 823 829
f 830 829 823
f 831 832 833
f 833 832 834
f 835 834 832
f 834 835 836
f 837 836 835
f 836 837 838
f 839 838 837
f 840 838 839
f 841 838 840
f 840 842 841
f 843 842 840
f 844 842 843
f 845 844 843
f 844 845 846
f 847 842 844
f 848 846 845
f 848 849 846
f 848 850 849
f 848 851 850
f 852 850 851
f 850 852 853
f 848 854 851
f 855 853 852
f 853 855 847
f 855 842 847
f 832 854 848
f 856 842 855
f 854 832 857
f 832 831 857
f 858 854 857
f 857 831 859
f 854 858 860
f 831 861 859
f 862 860 858
f 860 862 856
f 862 842 856
f 863 859 861
f 842 862 864
f 865 863 861
f 864 866 842
f 867 863 865
f 867 865 866
f 868 866 865
f 842 866 868
f 869 870 871
f 870 869 872
f 873 871 870
f 872 869 874
f 871 873 875
f 872 874 876
f 873 877 875
f 876 874 878
f 879 876 878
f 876 879 880
f 881 880 879
f 880 881 882
f 883 882 881
f 883 873 882
f 883 881 884
f 885 883 884
f 883 885 886
f 887 886 885
f 878 874 887
f 886 887 888
f 887 874 888
f 888 874 889
f 890 873 883
f 890 883 891
f 890 877 873
f 892 890 891
f 877 890 893
f 890 892 894
f 893 895 877
f 896 894 892
f 897 877 895
f 898 896 892
f 899 897 895
f 896 898 900
f 901 897 899
f 902 900 898
f 901 899 903
f 889 900 902
f 904 903 899
f 905 900 889
f 906 903 904
f 889 906 905
f 874 903 906
f 889 874 906
f 907 908 909
f 908 907 910
f 908 911 909
f 912 910 907
f 911 913 909
f 912 914 910
f 910 914 915
f 916 914 912
f 913 917 909
f 917 913 918
f 919 918 913
f 917 920 909
f 918 919 921
f 915 921 919
f 915 914 921
f 909 920 922
f 921 914 923
f 923 914 924
f 923 924 925
f 926 924 914
f 927 925 924
f 925 927 920
f 928 920 927
f 928 922 920
f 914 929 926
f 930 929 914
f 931 929 930
f 929 931 932
f 931 933 932
f 934 933 931
f 934 935 933
f 935 934 936
f 935 936 928
f 928 936 922
f 937 922 936
f 938 922 937
f 922 938 939
f 940 939 938
f 939 940 941
f 942 941 940
f 941 942 943
f 943 942 916
f 916 942 944
f 944 914 916
f 945 946 947
f 948 947 946
f 947 948 949
f 950 949 948
f 949 950 951
f 952 949 951
f 945 953 946
f 952 951 954
f 955 953 945
f 956 954 951
f 954 956 955
f 957 955 956
f 957 953 955
f 946 953 958
f 959 953 957
f 953 960 958
f 958 960 961
f 962 961 960
f 961 962 963
f 964 963 962
f 965 953 959
f 965 966 953
f 967 965 959
f 968 966 965
f 959 969 967
f 970 966 968
f 971 969 959
f 966 970 972
f 973 969 971
f 970 974 972
f 969 973 975
f 976 974 970
f 977 975 973
f 977 978 975
f 976 979 974
f 979 976 980
f 978 977 981
f 980 981 979
f 982 981 977
f 982 951 981
f 963 979 981
f 951 963 981
f 964 979 963
f 950 963 951
f 983 984 985
f 984 983 986
f 985 987 983
f 984 988 985
f 987 985 989
f 990 985 988
f 985 990 989
f 991 989 990
f 992 993 994
f 993 992 995
f 993 996 994
f 997 994 996
f 996 993 998
f 999 998 993
f 995 999 993
f 999 995 1000
f 1001 1002 1003
f 1003 1002 1004
f 1005 1004 1002
f 1002 1001 1006
f 1006 1001 1007
f 1008 1007 1001
f 1009 1010 1011
f 1011 1012 1009
f 1013 1009 1012
f 1010 1009 1014
f 1014 1015 1010
f 1016 1010 1015
f 1017 1018 1019
f 1020 1019 1018
f 1019 1021 1017
f 1020 1018 1022
f 1023 1017 1021
f 1024 1022 1018
f 1025 1023 1021
f 1022 1024 1026
f 1027 1023 1025
f 1028 1026 1024
f 1027 1025 1029
f 1026 1028 1030
f 1031 1029 1025
f 1032 1030 1028
f 1029 1031 1033
f 1030 1032 1034
f 1035 1033 1031
f 1036 1034 1032
f 1037 1033 1035
f 1038 1034 1036
f 1039 1037 1035
f 1037 1039 1038
f 1040 1034 1038
f 1040 1038 1039
f 1041 1042 1043
f 1044 1043 1042
f 1043 1044 1045
f 1046 1044 1042
f 1047 1045 1044
f 1044 1046 1048
f 1048 1047 1044
f 1047 1048 1049
f 1050 1051 1052
f 1053 1052 1051
f 1051 1050 1054
f 1053 1055 1052
f 1056 1054 1050
f 1057 1052 1055
f 1054 1056 1058
f 1059 1057 1055
f 1060 1058 1056
f 1061 1057 1059
f 1058 1060 1062
f 1061 1059 1063
f 1064 1062 1060
f 1065 1063 1059
f 1062 1064 1066
f 1063 1065 1067
f 1068 1066 1064
f 1069 1067 1065
f 1070 1066 1068
f 1071 1067 1069
f 1072 1066 1070
f 1070 1071 1072
f 1073 1072 1071
f 1073 1071 1069
f 1074 1075 1076
f 1077 1076 1075
f 1075 1074 1078
f 1079 1078 1074
f 1080 1075 1078
f 1075 1080 1081
f 1081 1077 1075
f 1077 1081 1082
f 1083 1084 1085
f 1084 1083 1086
f 1085 1087 1083
f 1088 1083 1087
f 1085 1084 1089
f 1089 1087 1085
f 1090 1089 1084
f 1087 1089 1091
f 1092 1093 1094
f 1093 1092 1095
f 1094 1096 1092
f 1097 1092 1096
f 1098 1099 1100
f 1099 1098 1101
f 1100 1102 1098
f 1103 1098 1102
f 1104 1105 1106
f 1105 1104 1107
f 1106 1108 1104
f 1107 1104 1109
f 1110 1104 1108
f 1111 1109 1104
f 1112 1104 1110
f 1104 1112 1111
f 1113 1114 1115
f 1116 1115 1114
f 1115 1117 1113
f 1117 1115 1118
f 1119 1120 1121
f 1120 1119 1122
f 1122 1119 1123
f 1124 1123 1119
f 1122 1125 1120
f 1123 1125 1122
f 1126 1120 1125
f 1125 1123 1127
f 1128 1129 1130
f 1129 1128 1131
f 1131 1132 1129
f 1133 1129 1132
f 1134 1135 1136
f 1136 1135 1137
f 1135 1134 1138
f 1139 1137 1135
f 1138 1140 1135
f 1135 1141 1139
f 1142 1135 1140
f 1141 1135 1142
f 1143 1144 1145
f 1144 1143 1146
f 1143 1145 1147
f 1148 1145 1144
f 1149 1147 1145
f 1145 1148 1150
f 1145 1150 1149
f 1151 1149 1150
f 1152 1153 1154
f 1153 1152 1155
f 1152 1154 1156
f 1157 1156 1154
f 1156 1158 1152
f 1159 1152 1158
f 1159 1155 1152
f 1155 1159 1160
f 1161 1162 1163
f 1164 1163 1162
f 1164 1165 1163
f 1162 1166 1164
f 1165 1164 1167
f 1168 1164 1166
f 1168 1167 1164
f 1167 1168 1169
f 1170 1171 1172
f 1171 1170 1173
f 1174 1173 1170
f 1171 1173 1175
f 1173 1174 1176
f 1177 1175 1173
f 1173 1176 1177
f 1178 1177 1176
f 1179 1180 1181
f 1180 1179 1182
f 1181 1183 1179
f 1180 1184 1181
f 1183 1181 1185
f 1186 1181 1184
f 1181 1186 1185
f 1187 1185 1186
f 1188 1189 1190
f 1189 1188 1191
f 1189 1192 1190
f 1193 1190 1192
f 1192 1189 1194
f 1195 1194 1189
f 1191 1195 1189
f 1195 1191 1196
f 1197 1198 1199
f 1200 1199 1198
f 1199 1200 1201
f 1202 1200 1198
f 1203 1201 1200
f 1200 1202 1204
f 1204 1203 1200
f 1203 1204 1205
f 1206 1207 1208
f 1209 1208 1207
f 1207 1206 1210
f 1211 1210 1206
f 1212 1207 1210
f 1207 1212 1213
f 1213 1209 1207
f 1209 1213 1214
f 1215 1216 1217
f 1216 1215 1218
f 1218 1215 1219
f 1219 1215 1220
f 1221 1222 1223
f 1223 1222 1224
f 1224 1222 1225
f 1226 1225 1222
f 1227 1228 1229
f 1230 1229 1228
f 1229 1231 1227
f 1232 1227 1231
f 1233 1234 1235
f 1236 1235 1234
f 1237 1238 1239
f 1238 1237 1240
f 1240 1237 1241
f 1242 1243 1244
f 1243 1242 1245
f 1245 1242 1246
f 1245 1246 1247
f 1247 1246 1248
f 1249 1248 1246
f 1250 1248 1249
f 1251 1252 1253
f 1252 1251 1254
f 1254 1251 1255
f 1256 1257 1258
f 1258 1257 1259
f 1260 1259 1257
f 1256 1261 1257
f 1261 1256 1262
f 1257 1261 1263
f 1263 1261 1264
f 1265 1266 1267
f 1267 1266 1268
f 1268 1266 1269
f 1270 1269 1266
f 1271 1272 1273
f 1274 1273 1272
f 1272 1275 1274
f 1276 1274 1275
f 1277 1278 1279
f 1280 1279 1278
f 1281 1282 1283
f 1282 1281 1284
f 1284 1281 1285
f 1286 1287 1288
f 1287 1286 1289
f 1289 1286 1290
f 1291 1292 1293
f 1293 1292 1294
f 1295 1294 1292
f 1296 1297 1298
f 1298 1297 1299
f 1300 1299 1297
f 1301 1302 1303
f 1302 1301 1304
f 1304 1305 1302
f 1306 1302 1305
f 1307 1308 1309
f 1308 1307 1310
f 1310 1307 1311
f 1312 1311 1307
f 1310 1313 1308
f 1311 1313 1310
f 1314 1308 1313
f 1313 1311 1315
f 1316 1317 1318
f 1317 1316 1319
f 1319 1320 1317
f 1321 1317 1320
f 1322 1323 1324
f 1324 1323 1325
f 1323 1322 1326
f 1327 1325 1323
f 1326 1328 1323
f 1323 1329 1327
f 1330 1323 1328
f 1329 1323 1330
f 1331 1332 1333
f 1332 1331 1334
f 1333 1335 1331
f 1336 1331 1335
f 1333 1332 1337
f 1337 1335 1333
f 1338 1337 1332
f 1335 1337 1339
f 1340 1341 1342
f 1341 1340 1343
f 1342 1344 1340
f 1345 1340 1344
f 1346 1347 1348
f 1347 1346 1349
f 1348 1350 1346
f 1351 1346 1350
f 1352 1353 1354
f 1353 1352 1355
f 1354 1356 1352
f 1355 1352 1357
f 1358 1352 1356
f 1359 1357 1352
f 1360 1352 1358
f 1352 1360 1359
f 1361 1362 1363
f 1364 1363 1362
f 1363 1364 1365
f 1362 1366 1364
f 1362 1361 1367
f 1366 1362 1368
f 1369 1367 1361
f 1368 1370 1366
f 1367 1369 1371
f 1370 1368 1372
f 1371 1373 1367
f 1373 1372 1368
f 1373 1371 1374
f 1372 1373 1375
f 1374 1375 1373
f 1375 1374 1376
f 1377 1378 1379
f 1380 1379 1378
f 1379 1380 1381
f 1378 1377 1382
f 1381 1383 1379
f 1383 1381 1384
f 1385 1382 1377
f 1382 1385 1386
f 1377 1387 1385
f 1387 1377 1388
f 1388 1389 1387
f 1389 1388 1390
f 1383 1390 1388
f 1390 1383 1391
f 1384 1391 1383
f 1391 1384 1392
f 1393 1394 1395
f 1394 1393 1396
f 1397 1396 1393
f 1398 1395 1394
f 1395 1398 1399
f 1400 1399 1398
f 1401 1402 1403
f 1402 1401 1404
f 1405 1404 1401
f 1406 1403 1402
f 1403 1406 1407
f 1408 1407 1406
f 1409 1410 1411
f 1410 1409 1412
f 1412 1409 1413
f 1413 1409 1414
f 1413 1415 1412
f 1416 1412 1415
f 1417 1415 1413
f 1418 1419 1420
f 1419 1418 1421
f 1421 1418 1422
f 1421 1422 1423
f 1418 1424 1422
f 1425 1422 1424
f 1426 1422 1425
f 1427 1428 1429
f 1428 1430 1429
f 1430 1431 1429
f 1429 1431 1432
f 1433 1431 1430
f 1431 1433 1434
f 1435 1434 1433
f 1431 1436 1432
f 1432 1436 1437
f 1436 1438 1437
f 1437 1438 1439
f 1440 1439 1438
f 1441 1442 1443
f 1442 1441 1444
f 1442 1444 1445
f 1446 1447 1448
f 1447 1446 1449
f 1450 1448 1447
f 1451 1448 1450
f 1451 1452 1448
f 1451 1450 1453
f 1453 1450 1454
f 1455 1452 1451
f 1455 1456 1452
f 1457 1456 1455
f 1457 1458 1456
f 1458 1457 1459
f 1460 1461 1462
f 1461 1460 1463
f 1461 1463 1464
f 1465 1466 1467
f 1466 1468 1467
f 1466 1465 1469
f 1468 1466 1470
f 1466 1469 1471
f 1466 1471 1470
f 1472 1471 1469
f 1473 1470 1471
f 1474 1475 1476
f 1475 1474 1477
f 1478 1476 1475
f 1476 1478 1479
f 1478 1475 1480
f 1481 1480 1475
f 1475 1477 1481
f 1482 1481 1477
f 1483 1484 1485
f 1484 1483 1486
f 1487 1488 1489
f 1488 1487 1490
f 1490 1487 1491
f 1492 1493 1494
f 1493 1492 1495
f 1495 1492 1496
f 1497 1498 1499
f 1498 1497 1500
f 1497 1501 1500
f 1501 1497 1502
f 1500 1501 1503
f 1503 1501 1504
f 1504 1501 1505
f 1505 1501 1506
f 1505 1506 1507
f 1508 1504 1505
f 1504 1508 1509
f 1509 1508 1510
f 1511 1512 1513
f 1512 1511 1514
f 1514 1515 1512
f 1515 1514 1516
f 1516 1517 1515
f 1517 1516 1518
f 1515 1519 1512
f 1517 1520 1515
f 1519 1515 1520
f 1520 1517 1521
f 1521 1517 1522
f 1520 1523 1519
f 1523 1520 1521
f 1523 1512 1519
f 1522 1524 1521
f 1524 1523 1521
f 1525 1524 1522
f 1524 1525 1526
f 1524 1527 1523
f 1523 1527 1512
f 1526 1528 1524
f 1528 1526 1529
f 1524 1530 1527
f 1530 1524 1528
f 1531 1512 1527
f 1530 1531 1527
f 1531 1513 1512
f 1531 1530 1532
f 1513 1531 1532
f 1528 1532 1530
f 1528 1513 1532
f 1513 1528 1533
f 1529 1533 1528
f 1533 1529 1534
f 1535 1536 1537
f 1536 1535 1538
f 1535 1539 1538
f 1538 1540 1536
f 1541 1538 1539
f 1540 1538 1542
f 1538 1541 1542
f 1543 1542 1541
f 1544 1545 1546
f 1547 1546 1545
f 1546 1547 1548
f 1549 1547 1545
f 1550 1548 1547
f 1547 1549 1551
f 1551 1550 1547
f 1550 1551 1552
f 1553 1554 1555
f 1555 1556 1557
f 1556 1555 1554
f 1554 1558 1556
f 1558 1554 1559
f 1554 1553 1560
f 1561 1560 1553
f 1559 1554 1562
f 1560 1562 1554
f 1563 1558 1559
f 1562 1563 1559
f 1558 1563 1564
f 1564 1565 1558
f 1563 1562 1566
f 1564 1563 1566
f 1562 1560 1566
f 1565 1564 1567
f 1560 1561 1568
f 1566 1569 1564
f 1566 1560 1569
f 1570 1567 1564
f 1567 1570 1571
f 1572 1564 1569
f 1564 1572 1570
f 1569 1560 1573
f 1573 1572 1569
f 1568 1573 1560
f 1572 1573 1574
f 1573 1568 1574
f 1570 1572 1574
f 1574 1568 1570
f 1570 1568 1575
f 1575 1571 1570
f 1571 1575 1576
f 1577 1578 1579
f 1580 1579 1578
f 1578 1581 1580
f 1582 1580 1581
f 1581 1583 1582
f 1584 1582 1583
f 1585 1586 1587
f 1588 1587 1586
f 1586 1585 1589
f 1590 1589 1585
f 1589 1590 1591
f 1592 1591 1590
