v -0.440000057 0 -0.181274563
v -0.440000057 0 -0.499999881
v -0.430000067 0 -0.187352955
v -0.0439285636 -1.86264515e-09 -0.181274563
v -0.430000067 0 -0.48999989
v -0.0536904633 -1.86264515e-09 -0.187352955
v -0.0439285636 0 -0.499999881
v -0.0536904633 0 -0.48999989
v -0.410000086 0 0.487352908
v -0.430000067 0 0.487352908
v -0.410000086 0 0.481274545
v -0.0536904633 -1.86264515e-09 0.487352908
v -0.440000057 0 0.481274545
v -0.0439285636 -1.86264515e-09 0.481274545
v -0.430000067 0 0.789999843
v -0.0439285636 0 0.799999833
v -0.440000057 0 0.799999833
v -0.0536904633 0 0.789999843
v -0.410000086 0 0.789999843
v -0.0536904633 -1.86264515e-09 -0.150882393
v -0.430000067 0 -0.150882393
v -0.440000057 0 -0.156960815
v -0.0439285636 -1.86264515e-09 -0.156960815
v -0.440000057 0 0.137843132
v -0.0536904633 -1.86264515e-09 0.13176471
v -0.430000067 0 0.13176471
v -0.0439285636 -1.86264515e-09 0.137843132
v -0.410000086 0 0.13176471
v -0.0536904633 -1.86264515e-09 0.168235242
v -0.430000067 0 0.168235242
v -0.410000086 0 0.16215688
v -0.440000057 0 0.16215688
v -0.0439285636 -1.86264515e-09 0.16215688
v -0.430000067 0 0.450882435
v -0.0439285636 -1.86264515e-09 0.456960857
v -0.440000057 0 0.456960857
v -0.0536904633 -1.86264515e-09 0.450882435
v -0.410000086 0 0.456960857
v 0.440000057 0 -0.470000029
v 0.440000057 0 -0.181274563
v 0.430000067 0 -0.187352955
v 0.430000067 0 -0.48999989
v 0.0536904633 -1.86264515e-09 -0.187352955
v 0.440000057 0 -0.499999881
v 0.0439285934 -1.86264515e-09 -0.181274563
v 0.0536904633 0 -0.48999989
v 0.0439285934 0 -0.499999881
v 0.430000067 0 0.13176471
v 0.430000067 0 -0.150882393
v 0.440000057 0 -0.156960815
v 0.0536904633 -1.86264515e-09 -0.150882393
v 0.440000057 0 0.137843132
v 0.0439285934 -1.86264515e-09 -0.156960815
v 0.410000056 0 0.13176471
v 0.0439285934 -1.86264515e-09 0.137843132
v 0.410000056 0 0.137843132
v 0.0536904633 -1.86264515e-09 0.13176471
v 0.440000057 0 0.769999981
v 0.430000067 0 0.789999843
v 0.440000057 0 0.481274545
v 0.440000057 0 0.799999833
v 0.0439285934 0 0.799999833
v 0.430000067 0 0.487352908
v 0.0536904633 0 0.789999843
v 0.410000056 0 0.481274545
v 0.0439285934 -1.86264515e-09 0.481274545
v 0.410000056 0 0.487352908
v 0.0536904633 -1.86264515e-09 0.487352908
v 0.440000057 0 0.456960857
v 0.430000067 0 0.168235242
v 0.440000057 0 0.16215688
v 0.410000056 0 0.168235242
v 0.430000067 0 0.450882435
v 0.0536904633 -1.86264515e-09 0.168235242
v 0.410000056 0 0.450882435
v 0.0439285934 -1.86264515e-09 0.16215688
v 0.410000056 0 0.456960857
v 0.0439285934 -1.86264515e-09 0.456960857
v 0.0536904633 -1.86264515e-09 0.450882435
v -0.430000067 0 -0.187352955
v -0.440000057 0 -0.181274563
v -0.0439285636 -1.86264515e-09 -0.181274563
v -0.440000057 0 -0.499999881
v -0.0536904633 -1.86264515e-09 -0.187352955
v -0.430000067 0 -0.48999989
v -0.0536904633 0 -0.48999989
v -0.0439285636 0 -0.499999881
v -0.430000067 0 0.487352908
v -0.440000057 0 0.481274545
v -0.430000067 0 0.789999843
v -0.440000057 0 0.799999833
v -0.410000086 0 0.481274545
v -0.410000086 0 0.789999843
v -0.410000086 0 0.487352908
v -0.0439285636 0 0.799999833
v -0.0536904633 -1.86264515e-09 0.487352908
v -0.0536904633 0 0.789999843
v -0.0439285636 -1.86264515e-09 0.481274545
v -0.440000057 0 0.137843132
v -0.430000067 0 0.13176471
v -0.430000067 0 -0.150882393
v -0.410000086 0 0.13176471
v -0.440000057 0 -0.156960815
v -0.0439285636 -1.86264515e-09 0.137843132
v -0.0536904633 -1.86264515e-09 -0.150882393
v -0.0536904633 -1.86264515e-09 0.13176471
v -0.0439285636 -1.86264515e-09 -0.156960815
v -0.440000057 0 0.456960857
v -0.430000067 0 0.450882435
v -0.440000057 0 0.16215688
v -0.410000086 0 0.456960857
v -0.430000067 0 0.168235242
v -0.0536904633 -1.86264515e-09 0.450882435
v -0.410000086 0 0.16215688
v -0.0439285636 -1.86264515e-09 0.456960857
v -0.0536904633 -1.86264515e-09 0.168235242
v -0.0439285636 -1.86264515e-09 0.16215688
v 0.430000067 0 -0.187352955
v 0.0536904633 -1.86264515e-09 -0.187352955
v 0.440000057 0 -0.181274563
v 0.0439285934 -1.86264515e-09 -0.181274563
v 0.440000057 0 -0.470000029
v 0.0439285934 0 -0.499999881
v 0.430000067 0 -0.48999989
v 0.0536904633 0 -0.48999989
v 0.440000057 0 -0.499999881
v 0.440000057 0 0.137843132
v 0.410000056 0 0.13176471
v 0.410000056 0 0.137843132
v 0.0536904633 -1.86264515e-09 0.13176471
v 0.430000067 0 0.13176471
v 0.0439285934 -1.86264515e-09 0.137843132
v 0.440000057 0 -0.156960815
v 0.0536904633 -1.86264515e-09 -0.150882393
v 0.430000067 0 -0.150882393
v 0.0439285934 -1.86264515e-09 -0.156960815
v 0.430000067 0 0.487352908
v 0.410000056 0 0.481274545
v 0.410000056 0 0.487352908
v 0.0536904633 -1.86264515e-09 0.487352908
v 0.440000057 0 0.481274545
v 0.0439285934 -1.86264515e-09 0.481274545
v 0.0536904633 0 0.789999843
v 0.0439285934 0 0.799999833
v 0.430000067 0 0.789999843
v 0.440000057 0 0.769999981
v 0.440000057 0 0.799999833
v 0.440000057 0 0.456960857
v 0.410000056 0 0.450882435
v 0.410000056 0 0.456960857
v 0.0536904633 -1.86264515e-09 0.450882435
v 0.430000067 0 0.450882435
v 0.0439285934 -1.86264515e-09 0.456960857
v 0.430000067 0 0.168235242
v 0.0536904633 -1.86264515e-09 0.168235242
v 0.440000057 0 0.16215688
v 0.0439285934 -1.86264515e-09 0.16215688
v 0.410000056 0 0.168235242
f 1 2 3
f 4 1 3
f 5 3 2
f 6 4 3
f 2 7 5
f 8 4 6
f 7 4 8
f 8 5 7
f 9 10 11
f 9 11 12
f 11 10 13
f 14 12 11
f 15 13 10
f 14 16 12
f 13 15 17
f 12 16 18
f 19 17 15
f 17 19 16
f 18 16 19
f 20 21 22
f 23 20 22
f 24 22 21
f 25 20 23
f 21 26 24
f 23 27 25
f 28 24 26
f 24 28 27
f 25 27 28
f 29 30 31
f 31 30 32
f 33 29 31
f 34 32 30
f 35 29 33
f 32 34 36
f 29 35 37
f 38 36 34
f 38 37 35
f 37 38 34
f 39 40 41
f 41 42 39
f 40 43 41
f 39 42 44
f 45 43 40
f 42 46 44
f 43 45 47
f 44 46 47
f 46 43 47
f 48 49 50
f 51 50 49
f 50 52 48
f 51 53 50
f 48 52 54
f 53 51 55
f 56 54 52
f 57 55 51
f 56 57 54
f 55 57 56
f 58 59 60
f 58 61 59
f 62 59 61
f 59 63 60
f 59 62 64
f 60 63 65
f 66 64 62
f 67 65 63
f 64 66 68
f 68 65 67
f 68 66 65
f 69 70 71
f 72 71 70
f 70 69 73
f 74 71 72
f 73 69 75
f 74 76 71
f 77 75 69
f 76 74 78
f 77 79 75
f 79 78 74
f 78 79 77
f 80 81 82
f 80 83 81
f 80 82 84
f 83 80 85
f 84 82 86
f 85 87 83
f 86 82 87
f 87 85 86
f 88 89 90
f 91 90 89
f 89 88 92
f 90 91 93
f 92 88 94
f 95 93 91
f 96 92 94
f 93 95 97
f 97 95 96
f 92 96 98
f 96 95 98
f 99 100 101
f 100 99 102
f 101 103 99
f 104 102 99
f 103 101 105
f 102 104 106
f 103 105 107
f 106 104 107
f 107 105 106
f 108 109 110
f 109 108 111
f 112 110 109
f 109 111 113
f 110 112 114
f 115 113 111
f 114 112 116
f 113 115 116
f 114 116 117
f 117 116 115
f 118 119 120
f 120 119 121
f 118 120 122
f 123 121 119
f 122 124 118
f 123 119 125
f 126 124 122
f 123 125 126
f 126 125 124
f 127 128 129
f 128 130 129
f 128 127 131
f 129 130 132
f 131 127 133
f 134 132 130
f 133 135 131
f 135 133 134
f 132 134 136
f 133 136 134
f 137 138 139
f 139 138 140
f 138 137 141
f 138 142 140
f 140 142 143
f 144 143 142
f 141 137 145
f 143 144 145
f 141 145 146
f 147 145 144
f 145 147 146
f 148 149 150
f 149 151 150
f 149 148 152
f 150 151 153
f 152 148 154
f 155 153 151
f 156 154 148
f 153 155 157
f 156 157 155
f 154 156 158
f 158 156 155
