v -0.0251284484 -0.308107495 1.79079235
v -0.0251284521 -0.319294512 1.79079235
v -0.0236296691 -0.313701004 1.79079235
v -0.0292231906 -0.323389262 1.79079235
v -0.029223185 -0.304012746 1.79079235
v -0.034816701 -0.302513957 1.79079235
v -0.0348167047 -0.324888021 1.79079235
v -0.0404102169 -0.304012746 1.79079235
v -0.0404102169 -0.323389262 1.79079235
v -0.0445049517 -0.308107495 1.79079235
v -0.0445049517 -0.319294512 1.79079235
v -0.0460037291 -0.313701004 1.79079235
v 0.034816701 -0.31370008 1.79078877
v 0.0251284484 -0.308106542 1.79078877
v 0.0236296691 -0.31370008 1.79078877
v 0.029223185 -0.304011822 1.79078877
v 0.0251284521 -0.319293588 1.79078877
v 0.034816701 -0.302513033 1.79078877
v 0.0292231906 -0.323388338 1.79078877
v 0.0404102169 -0.304011822 1.79078877
v 0.0348167047 -0.324887097 1.79078877
v 0.0445049517 -0.308106542 1.79078877
v 0.0404102169 -0.323388308 1.79078877
v 0.0460037291 -0.31370008 1.79078877
v 0.0445049517 -0.319293588 1.79078877
v -0.022216728 -0.306426406 1.78743029
v -0.0251284484 -0.308107495 1.79079235
v -0.0236296691 -0.313701004 1.79079235
v -0.0275421031 -0.301101029 1.78743029
v -0.0202675052 -0.313701004 1.78743029
v -0.029223185 -0.304012746 1.79079235
v -0.0251284521 -0.319294512 1.79079235
v -0.034816701 -0.299151808 1.78743029
v -0.0222167317 -0.320975602 1.78743029
v -0.034816701 -0.302513957 1.79079235
v -0.0292231906 -0.323389262 1.79079235
v -0.0420912988 -0.301101029 1.78743029
v -0.0275421105 -0.326300979 1.78743029
v -0.0404102169 -0.304012746 1.79079235
v -0.0348167047 -0.324888021 1.79079235
v -0.0474166721 -0.306426406 1.78743029
v -0.0348167084 -0.3282502 1.78743029
v -0.0445049517 -0.308107495 1.79079235
v -0.0404102169 -0.323389262 1.79079235
v -0.049365893 -0.313701004 1.78743029
v -0.0420913026 -0.326300979 1.78743029
v -0.0460037291 -0.313701004 1.79079235
v -0.0445049517 -0.319294512 1.79079235
v -0.0474166721 -0.320975602 1.78743029
v 0.022216728 -0.306425482 1.78742671
v 0.0202675052 -0.31370008 1.78742671
v 0.0236296691 -0.31370008 1.79078877
v 0.0251284521 -0.319293588 1.79078877
v 0.0251284484 -0.308106542 1.79078877
v 0.0222167317 -0.320974678 1.78742671
v 0.0275421031 -0.301100105 1.78742671
v 0.0292231906 -0.323388338 1.79078877
v 0.029223185 -0.304011822 1.79078877
v 0.0275421105 -0.326300055 1.78742671
v 0.034816701 -0.299150884 1.78742671
v 0.0348167047 -0.324887097 1.79078877
v 0.034816701 -0.302513033 1.79078877
v 0.0348167084 -0.328249276 1.78742671
v 0.0420912988 -0.301100105 1.78742671
v 0.0404102169 -0.323388308 1.79078877
v 0.0404102169 -0.304011822 1.79078877
v 0.0420913026 -0.326300055 1.78742671
v 0.0474166721 -0.306425482 1.78742671
v 0.0445049517 -0.319293588 1.79078877
v 0.0445049517 -0.308106542 1.79078877
v 0.0474166721 -0.320974678 1.78742671
v 0.049365893 -0.31370008 1.78742671
v 0.0460037291 -0.31370008 1.79078877
v -0.0275421031 -0.301101029 1.69204235
v -0.022216728 -0.306426406 1.69204235
v -0.022216728 -0.268941343 1.69204235
v -0.0275421031 -0.268941343 1.69204235
v -0.034816701 -0.299151808 1.69204235
v -0.034816701 -0.268941343 1.69204235
v -0.0420912988 -0.301101029 1.69204235
v -0.0420912988 -0.268941343 1.69204235
v -0.0474166721 -0.306426406 1.69204235
v -0.0474166684 -0.268941343 1.69204235
v 0.0275421031 -0.301100224 1.69203877
v 0.0275421031 -0.268940538 1.69203877
v 0.022216728 -0.268940538 1.69203877
v 0.022216728 -0.306425601 1.69203877
v 0.034816701 -0.299151003 1.69203877
v 0.034816701 -0.268940538 1.69203877
v 0.0420912988 -0.301100224 1.69203877
v 0.0420912988 -0.268940538 1.69203877
v 0.0474166721 -0.306425601 1.69203877
v 0.0474166684 -0.268940538 1.69203877
v 0.302778572 -0.306425422 0.509241104
v 0.257578671 -0.306425422 0.509241104
v 0.257578671 -0.26894033 0.509241104
v 0.302778572 -0.26894033 0.509241104
v -0.263666451 -0.306425422 0.509240925
v -0.308866411 -0.306425422 0.509240925
v -0.308866411 -0.268940359 0.509240925
v -0.263666451 -0.268940359 0.509240925
v -0.407616258 -0.319293559 0.512152612
v -0.407616258 -0.308106512 0.512152612
v -0.407616258 -0.31370002 0.510653853
v -0.407616258 -0.304011762 0.516247332
v -0.407616258 -0.302513003 0.52184087
v -0.407616258 -0.323388278 0.516247392
v -0.407616258 -0.304011762 0.527434409
v -0.407616258 -0.324887067 0.52184087
v -0.407616258 -0.308106512 0.531529129
v -0.407616258 -0.323388278 0.527434409
v -0.407616258 -0.31370002 0.533027887
v -0.407616258 -0.319293529 0.531529129
v -0.407616258 -0.308106512 0.512152612
v -0.404254138 -0.306425422 0.509240925
v -0.404254138 -0.31370002 0.507291675
v -0.407616258 -0.304011762 0.516247332
v -0.407616258 -0.31370002 0.510653853
v -0.404254138 -0.301100045 0.514566302
v -0.404254138 -0.320974618 0.509240925
v -0.407616258 -0.302513003 0.52184087
v -0.407616258 -0.319293559 0.512152612
v -0.404254138 -0.299150825 0.52184087
v -0.404254138 -0.326299995 0.514566302
v -0.407616258 -0.304011762 0.527434409
v -0.407616258 -0.323388278 0.516247392
v -0.404254138 -0.301100045 0.529115498
v -0.404254138 -0.328249216 0.52184087
v -0.407616258 -0.308106512 0.531529129
v -0.407616258 -0.324887067 0.52184087
v -0.404254138 -0.306425422 0.534440815
v -0.404254138 -0.326299995 0.529115498
v -0.407616258 -0.31370002 0.533027887
v -0.407616258 -0.323388278 0.527434409
v -0.404254138 -0.31370002 0.536390066
v -0.404254138 -0.320974618 0.534440875
v -0.407616258 -0.319293529 0.531529129
v 0.401528567 -0.313699991 0.521841109
v 0.401528567 -0.313699991 0.510654092
v 0.401528567 -0.308106482 0.512152851
v 0.401528567 -0.319293529 0.512152851
v 0.401528567 -0.304011732 0.516247571
v 0.401528567 -0.323388249 0.51624763
v 0.401528567 -0.302512974 0.521841109
v 0.401528567 -0.324887037 0.521841109
v 0.401528567 -0.304011732 0.527434647
v 0.401528567 -0.323388249 0.527434647
v 0.401528567 -0.308106482 0.531529367
v 0.401528567 -0.319293499 0.531529367
v 0.401528567 -0.313699991 0.533028126
v 0.398166448 -0.306425393 0.509241164
v 0.401528567 -0.308106482 0.512152851
v 0.401528567 -0.313699991 0.510654092
v 0.398166448 -0.301100016 0.514566541
v 0.398166448 -0.313699991 0.507291913
v 0.401528567 -0.304011732 0.516247571
v 0.401528567 -0.319293529 0.512152851
v 0.398166448 -0.299150795 0.521841109
v 0.398166448 -0.320974618 0.509241164
v 0.401528567 -0.302512974 0.521841109
v 0.401528567 -0.323388249 0.51624763
v 0.398166448 -0.301100016 0.529115736
v 0.398166448 -0.326299965 0.514566541
v 0.401528567 -0.304011732 0.527434647
v 0.401528567 -0.324887037 0.521841109
v 0.398166448 -0.306425393 0.534441113
v 0.398166448 -0.328249186 0.521841109
v 0.401528567 -0.308106482 0.531529367
v 0.401528567 -0.323388249 0.527434647
v 0.398166448 -0.313699991 0.536390305
v 0.398166448 -0.326299965 0.529115736
v 0.401528567 -0.313699991 0.533028126
v 0.401528567 -0.319293499 0.531529367
v 0.398166448 -0.320974588 0.534441113
v -0.308866411 -0.306425422 0.509240925
v -0.308866411 -0.301100045 0.514566302
v -0.308866411 -0.268940359 0.52184093
v -0.308866411 -0.268940359 0.509240925
v -0.308866411 -0.299150825 0.52184093
v -0.308866411 -0.301100045 0.529115498
v -0.308866411 -0.268940359 0.534440875
v -0.308866411 -0.306425422 0.534440875
v 0.302778572 -0.301100045 0.514566481
v 0.302778572 -0.306425422 0.509241104
v 0.302778572 -0.26894033 0.509241104
v 0.302778572 -0.26894033 0.529115677
v 0.302778572 -0.299150825 0.521841109
v 0.302778572 -0.301100045 0.529115677
v 0.302778572 -0.306425422 0.534441054
v 0.302778572 -0.26894033 0.534441054
v -0.0251284521 -0.319294542 0.730474889
v -0.0251284484 -0.308107525 0.730474889
v -0.0236296691 -0.313701034 0.730474889
v -0.029223185 -0.304012775 0.730474889
v -0.034816701 -0.302513987 0.730474889
v -0.0292231906 -0.323389292 0.730474889
v -0.0404102169 -0.304012775 0.730474889
v -0.0348167047 -0.324888051 0.730474889
v -0.0445049517 -0.308107495 0.730474889
v -0.0404102169 -0.323389262 0.730474889
v -0.0460037291 -0.313701034 0.730474889
v -0.0445049517 -0.319294542 0.730474889
v 0.0236296691 -0.313701391 0.730471313
v 0.0251284484 -0.308107883 0.730471313
v 0.034816701 -0.302514344 0.730471313
v 0.029223185 -0.304013133 0.730471313
v 0.0251284521 -0.3192949 0.730471373
v 0.0292231906 -0.323389649 0.730471373
v 0.0348167047 -0.324888408 0.730471373
v 0.0404102169 -0.304013133 0.730471313
v 0.0445049517 -0.308107883 0.730471313
v 0.0404102169 -0.32338962 0.730471373
v 0.0460037291 -0.313701391 0.730471313
v 0.0445049517 -0.3192949 0.730471373
v -0.0251284484 -0.308107525 0.730474889
v -0.022216728 -0.306426436 0.733837008
v -0.0202675052 -0.313701034 0.733837008
v -0.029223185 -0.304012775 0.730474889
v -0.0236296691 -0.313701034 0.730474889
v -0.0275421031 -0.301101059 0.733837008
v -0.0222167317 -0.320975631 0.733837008
v -0.034816701 -0.302513987 0.730474889
v -0.0251284521 -0.319294542 0.730474889
v -0.034816701 -0.299151838 0.733837008
v -0.0275421105 -0.326301008 0.733837008
v -0.0404102169 -0.304012775 0.730474889
v -0.0292231906 -0.323389292 0.730474889
v -0.0420912988 -0.301101059 0.733837008
v -0.0348167084 -0.328250229 0.733837008
v -0.0445049517 -0.308107495 0.730474889
v -0.0348167047 -0.324888051 0.730474889
v -0.0474166721 -0.306426436 0.733837008
v -0.0420913026 -0.326301008 0.733837008
v -0.0460037291 -0.313701034 0.730474889
v -0.0404102169 -0.323389262 0.730474889
v -0.049365893 -0.313701034 0.733837008
v -0.0474166721 -0.320975631 0.733837008
v -0.0445049517 -0.319294542 0.730474889
v 0.0251284484 -0.308107883 0.730471313
v 0.0236296691 -0.313701391 0.730471313
v 0.0202675052 -0.313701391 0.733833492
v 0.0222167317 -0.320975989 0.733833492
v 0.022216728 -0.306426793 0.733833432
v 0.0251284521 -0.3192949 0.730471373
v 0.029223185 -0.304013133 0.730471313
v 0.0275421105 -0.326301366 0.733833492
v 0.0275421031 -0.301101416 0.733833432
v 0.0292231906 -0.323389649 0.730471373
v 0.034816701 -0.302514344 0.730471313
v 0.0348167084 -0.328250587 0.733833492
v 0.034816701 -0.299152195 0.733833432
v 0.0348167047 -0.324888408 0.730471373
v 0.0404102169 -0.304013133 0.730471313
v 0.0420913026 -0.326301336 0.733833492
v 0.0420912988 -0.301101416 0.733833432
v 0.0404102169 -0.32338962 0.730471373
v 0.0445049517 -0.308107883 0.730471313
v 0.0474166721 -0.320975959 0.733833492
v 0.0474166721 -0.306426793 0.733833432
v 0.0445049517 -0.3192949 0.730471373
v 0.0460037291 -0.313701391 0.730471313
v 0.049365893 -0.313701391 0.733833492
v -0.022216728 -0.306426406 0.829224765
v -0.0275421031 -0.301101029 0.829224765
v -0.0275421031 -0.268941373 0.829224765
v -0.022216728 -0.268941373 0.829224765
v -0.034816701 -0.299151808 0.829224765
v -0.0420912988 -0.301101029 0.829224765
v -0.0474166721 -0.268941373 0.829224765
v -0.0474166721 -0.306426406 0.829224765
v 0.022216728 -0.306426644 0.829221189
v 0.022216728 -0.268941611 0.82922107
v 0.0275421031 -0.268941611 0.82922107
v 0.0275421031 -0.301101267 0.829221189
v 0.034816701 -0.299152046 0.829221189
v 0.0420912988 -0.301101267 0.829221189
v 0.0474166721 -0.268941611 0.82922107
v 0.0474166721 -0.306426644 0.829221189
v 0.0474166721 -0.306425661 1.6468389
v 0.0474166684 -0.268940568 1.6468389
v 0.0474166684 -0.268940538 1.69203877
v 0.0474166721 -0.306425601 1.69203877
v 0.0474166721 -0.306426644 0.829221189
v 0.0474166721 -0.268941611 0.82922107
v 0.0474166721 -0.268941551 0.87442106
v 0.0474166721 -0.306426585 0.874421179
v -0.0474166721 -0.306426406 1.64684248
v -0.0474166721 -0.306426406 1.69204235
v -0.0474166684 -0.268941343 1.69204235
v -0.0474166684 -0.268941343 1.64684248
v -0.0474166721 -0.306426406 0.829224765
v -0.0474166721 -0.306426406 0.874424696
v -0.0474166721 -0.268941373 0.874424696
v -0.0474166721 -0.268941373 0.829224765
v -0.022216728 -0.268941343 1.69204235
v -0.022216728 -0.268941343 1.64684248
v -0.034816701 -0.268941343 1.64684248
v -0.0275421031 -0.268941343 1.69204235
v -0.034816701 -0.268941343 1.69204235
v -0.0420912988 -0.268941343 1.64684248
v -0.0420912988 -0.268941343 1.69204235
v -0.0474166684 -0.268941343 1.64684248
v -0.0474166684 -0.268941343 1.69204235
v -0.022216728 -0.268941373 0.874424696
v -0.022216728 -0.268941373 0.829224765
v -0.0275421031 -0.268941373 0.829224765
v -0.0275421031 -0.268941373 0.874424696
v -0.0474166721 -0.268941373 0.829224765
v -0.0474166721 -0.268941373 0.874424696
v 0.302778572 -0.26894033 0.509241104
v 0.257578671 -0.26894033 0.509241104
v 0.257578671 -0.26894033 0.521841049
v 0.302778572 -0.26894033 0.529115677
v 0.257578671 -0.26894033 0.534441054
v 0.302778572 -0.26894033 0.534441054
v -0.263666451 -0.268940359 0.509240925
v -0.308866411 -0.268940359 0.509240925
v -0.308866411 -0.268940359 0.52184093
v -0.263666451 -0.268940359 0.52184093
v -0.308866411 -0.268940359 0.534440875
v -0.263666451 -0.268940359 0.534440875
v 0.022216728 -0.268940538 1.69203877
v 0.0275421031 -0.268940538 1.69203877
v 0.0275421031 -0.268940568 1.6468389
v 0.022216728 -0.268940568 1.6468389
v 0.034816701 -0.268940538 1.69203877
v 0.0420912988 -0.268940568 1.6468389
v 0.0420912988 -0.268940538 1.69203877
v 0.0474166684 -0.268940568 1.6468389
v 0.0474166684 -0.268940538 1.69203877
v 0.022216728 -0.268941551 0.87442106
v 0.034816701 -0.268941551 0.87442106
v 0.0275421031 -0.268941611 0.82922107
v 0.022216728 -0.268941611 0.82922107
v 0.0474166721 -0.268941611 0.82922107
v 0.0474166721 -0.268941551 0.87442106
v -0.022216728 -0.306426406 1.69204235
v -0.022216728 -0.306426406 1.78743029
v -0.0202675052 -0.313701004 1.78743029
v -0.0275421031 -0.301101029 1.69204235
v -0.0275421031 -0.301101029 1.78743029
v -0.034816701 -0.299151808 1.69204235
v -0.034816701 -0.299151808 1.78743029
v -0.0420912988 -0.301101029 1.69204235
v -0.0420912988 -0.301101029 1.78743029
v -0.0474166721 -0.306426406 1.69204235
v -0.0474166721 -0.306426406 1.78743029
v -0.0202675052 -0.313701004 1.69204235
v -0.0222167317 -0.320975602 1.78743029
v -0.022216728 -0.306426406 1.64684248
v -0.022216728 -0.306426406 0.874424696
v -0.0275421031 -0.301101029 0.874424696
v -0.0275421031 -0.301101059 1.64684248
v -0.034816701 -0.299151808 0.874424696
v -0.034816701 -0.299151838 1.64684248
v -0.0420912988 -0.301101029 0.874424696
v -0.0420912988 -0.301101059 1.64684248
v -0.0474166721 -0.306426406 0.874424696
v -0.0474166721 -0.306426406 1.64684248
v -0.0202675052 -0.313701034 0.733837008
v -0.049365893 -0.313701034 0.733837008
v -0.022216728 -0.306426406 0.829224765
v -0.022216728 -0.306426436 0.733837008
v -0.0275421031 -0.301101059 0.733837008
v -0.0275421031 -0.301101029 0.829224765
v -0.034816701 -0.299151838 0.733837008
v -0.034816701 -0.299151808 0.829224765
v -0.0420912988 -0.301101059 0.733837008
v -0.0420912988 -0.301101029 0.829224765
v -0.0474166721 -0.306426436 0.733837008
v -0.0474166721 -0.306426406 0.829224765
v -0.0222167317 -0.320975631 0.733837008
v -0.0275421105 -0.326300979 1.78743029
v -0.0275421105 -0.326301008 0.733837008
v -0.0348167084 -0.3282502 1.78743029
v -0.0348167084 -0.328250229 0.733837008
v -0.0420913026 -0.326301008 0.733837008
v -0.0420913026 -0.326300979 1.78743029
v -0.0474166721 -0.320975602 1.78743029
v -0.0474166721 -0.320975631 0.733837008
v -0.049365893 -0.313701004 1.78743029
v 0.302778572 -0.306425422 0.509241104
v 0.398166448 -0.306425393 0.509241164
v 0.398166448 -0.313699991 0.507291913
v 0.302778572 -0.301100045 0.514566481
v 0.398166448 -0.301100016 0.514566541
v 0.302778572 -0.299150825 0.521841109
v 0.398166448 -0.299150795 0.521841109
v 0.302778572 -0.301100045 0.529115677
v 0.398166448 -0.301100016 0.529115736
v 0.302778572 -0.306425422 0.534441054
v 0.398166448 -0.306425393 0.534441113
v 0.257578671 -0.306425422 0.509241104
v -0.263666451 -0.306425422 0.509240925
v -0.263666451 -0.301100045 0.514566302
v 0.257578671 -0.301100045 0.514566481
v -0.263666451 -0.299150825 0.52184093
v 0.257578671 -0.299150825 0.521841049
v -0.263666451 -0.301100045 0.529115498
v 0.257578671 -0.301100045 0.529115677
v -0.263666451 -0.306425422 0.534440875
v 0.257578671 -0.306425422 0.534441054
v 0.398166448 -0.313699991 0.536390305
v -0.308866411 -0.306425422 0.509240925
v 0.398166448 -0.320974618 0.509241164
v -0.404254138 -0.320974618 0.509240925
v 0.398166448 -0.326299965 0.514566541
v -0.404254138 -0.306425422 0.509240925
v -0.404254138 -0.301100045 0.514566302
v -0.308866411 -0.301100045 0.514566302
v -0.404254138 -0.31370002 0.507291675
v -0.404254138 -0.299150825 0.52184087
v -0.308866411 -0.299150825 0.52184093
v -0.404254138 -0.301100045 0.529115498
v -0.308866411 -0.301100045 0.529115498
v -0.404254138 -0.306425422 0.534440815
v -0.308866411 -0.306425422 0.534440875
v -0.404254138 -0.31370002 0.536390066
v -0.404254138 -0.320974618 0.534440875
v -0.404254138 -0.326299995 0.514566302
v 0.398166448 -0.328249186 0.521841109
v -0.404254138 -0.328249216 0.52184087
v 0.398166448 -0.326299965 0.529115736
v -0.404254138 -0.326299995 0.529115498
v 0.398166448 -0.320974588 0.534441113
v 0.0202675052 -0.31370008 1.78742671
v 0.022216728 -0.306425482 1.78742671
v 0.022216728 -0.306425601 1.69203877
v 0.0275421031 -0.301100224 1.69203877
v 0.0275421031 -0.301100105 1.78742671
v 0.034816701 -0.299151003 1.69203877
v 0.034816701 -0.299150884 1.78742671
v 0.0420912988 -0.301100224 1.69203877
v 0.0420912988 -0.301100105 1.78742671
v 0.0474166721 -0.306425601 1.69203877
v 0.0474166721 -0.306425482 1.78742671
v 0.022216728 -0.306425661 1.6468389
v 0.022216728 -0.306426585 0.874421179
v 0.0275421031 -0.301101208 0.874421179
v 0.0275421031 -0.301100284 1.6468389
v 0.034816701 -0.299151987 0.874421179
v 0.034816701 -0.299151063 1.6468389
v 0.0420912988 -0.301101208 0.874421179
v 0.0420912988 -0.301100284 1.6468389
v 0.0474166721 -0.306426585 0.874421179
v 0.0474166721 -0.306425661 1.6468389
v 0.022216728 -0.306426644 0.829221189
v 0.0222167317 -0.320974678 1.78742671
v 0.0202675052 -0.313701242 0.829221189
v 0.022216728 -0.306426793 0.733833432
v 0.0275421031 -0.301101416 0.733833432
v 0.0275421031 -0.301101267 0.829221189
v 0.0202675052 -0.313701391 0.733833492
v 0.034816701 -0.299152195 0.733833432
v 0.034816701 -0.299152046 0.829221189
v 0.0420912988 -0.301101416 0.733833432
v 0.0420912988 -0.301101267 0.829221189
v 0.0474166721 -0.306426793 0.733833432
v 0.0474166721 -0.306426644 0.829221189
v 0.049365893 -0.313701391 0.733833492
v 0.0474166721 -0.320974797 1.69203877
v 0.0474166721 -0.320975959 0.733833492
v 0.0420913026 -0.326301336 0.733833492
v 0.049365893 -0.313700259 1.6468389
v 0.049365893 -0.31370008 1.78742671
v 0.0474166721 -0.320974678 1.78742671
v 0.0420913026 -0.326300055 1.78742671
v 0.0348167084 -0.328250587 0.733833492
v 0.0348167084 -0.328249276 1.78742671
v 0.0275421105 -0.326300055 1.78742671
v 0.0275421105 -0.326301366 0.733833492
v 0.0222167317 -0.32097587 0.829221189
v 0.0222167317 -0.320975989 0.733833492
v -0.022216728 -0.306426406 1.69204235
v -0.022216728 -0.306426406 1.64684248
v -0.022216728 -0.268941343 1.64684248
v -0.022216728 -0.268941343 1.69204235
v -0.022216728 -0.306426406 0.874424696
v -0.022216728 -0.306426406 0.829224765
v -0.022216728 -0.268941373 0.829224765
v -0.022216728 -0.268941373 0.874424696
v 0.022216728 -0.306425601 1.69203877
v 0.022216728 -0.268940538 1.69203877
v 0.022216728 -0.268940568 1.6468389
v 0.022216728 -0.306425661 1.6468389
v 0.022216728 -0.306426585 0.874421179
v 0.022216728 -0.268941551 0.87442106
v 0.022216728 -0.268941611 0.82922107
v 0.022216728 -0.306426644 0.829221189
v -0.0275421031 -0.301101029 0.874424696
v -0.022216728 -0.306426406 0.874424696
v -0.022216728 -0.268941373 0.874424696
v -0.0275421031 -0.268941373 0.874424696
v -0.034816701 -0.299151808 0.874424696
v -0.0420912988 -0.301101029 0.874424696
v -0.0474166721 -0.306426406 0.874424696
v -0.0474166721 -0.268941373 0.874424696
v 0.0275421031 -0.301101208 0.874421179
v 0.034816701 -0.268941551 0.87442106
v 0.022216728 -0.268941551 0.87442106
v 0.022216728 -0.306426585 0.874421179
v 0.034816701 -0.299151987 0.874421179
v 0.0420912988 -0.301101208 0.874421179
v 0.0474166721 -0.306426585 0.874421179
v 0.0474166721 -0.268941551 0.87442106
v 0.257578671 -0.306425422 0.509241104
v 0.257578671 -0.301100045 0.514566481
v 0.257578671 -0.26894033 0.521841049
v 0.257578671 -0.26894033 0.509241104
v 0.257578671 -0.299150825 0.521841049
v 0.257578671 -0.301100045 0.529115677
v 0.257578671 -0.26894033 0.534441054
v 0.257578671 -0.306425422 0.534441054
v -0.263666451 -0.301100045 0.514566302
v -0.263666451 -0.306425422 0.509240925
v -0.263666451 -0.268940359 0.509240925
v -0.263666451 -0.268940359 0.52184093
v -0.263666451 -0.299150825 0.52184093
v -0.263666451 -0.301100045 0.529115498
v -0.263666451 -0.306425422 0.534440875
v -0.263666451 -0.268940359 0.534440875
v 0.257578671 -0.306425422 0.534441054
v 0.302778572 -0.306425422 0.534441054
v 0.302778572 -0.26894033 0.534441054
v 0.257578671 -0.26894033 0.534441054
v -0.308866411 -0.306425422 0.534440875
v -0.263666451 -0.306425422 0.534440875
v -0.263666451 -0.268940359 0.534440875
v -0.308866411 -0.268940359 0.534440875
v -0.022216728 -0.306426406 1.64684248
v -0.0275421031 -0.301101059 1.64684248
v -0.034816701 -0.268941343 1.64684248
v -0.022216728 -0.268941343 1.64684248
v -0.034816701 -0.299151838 1.64684248
v -0.0420912988 -0.268941343 1.64684248
v -0.0420912988 -0.301101059 1.64684248
v -0.0474166684 -0.268941343 1.64684248
v -0.0474166721 -0.306426406 1.64684248
v 0.022216728 -0.306425661 1.6468389
v 0.022216728 -0.268940568 1.6468389
v 0.0275421031 -0.268940568 1.6468389
v 0.0275421031 -0.301100284 1.6468389
v 0.034816701 -0.299151063 1.6468389
v 0.0420912988 -0.268940568 1.6468389
v 0.0420912988 -0.301100284 1.6468389
v 0.0474166684 -0.268940568 1.6468389
v 0.0474166721 -0.306425661 1.6468389
f 1 2 3
f 1 4 2
f 1 5 6
f 1 7 4
f 1 6 8
f 1 9 7
f 1 8 10
f 1 11 9
f 1 10 12
f 1 12 11
f 13 14 15
f 13 16 14
f 13 15 17
f 13 18 16
f 13 17 19
f 13 20 18
f 13 19 21
f 13 22 20
f 13 21 23
f 13 24 22
f 13 23 25
f 13 25 24
f 26 27 28
f 27 26 29
f 28 30 26
f 29 31 27
f 30 28 32
f 31 29 33
f 32 34 30
f 33 35 31
f 34 32 36
f 35 33 37
f 36 38 34
f 37 39 35
f 38 36 40
f 39 37 41
f 40 42 38
f 41 43 39
f 42 40 44
f 43 41 45
f 44 46 42
f 45 47 43
f 46 44 48
f 47 45 49
f 48 49 46
f 49 48 47
f 50 51 52
f 53 52 51
f 52 54 50
f 51 55 53
f 56 50 54
f 57 53 55
f 54 58 56
f 55 59 57
f 60 56 58
f 61 57 59
f 58 62 60
f 59 63 61
f 64 60 62
f 65 61 63
f 62 66 64
f 63 67 65
f 68 64 66
f 69 65 67
f 66 70 68
f 67 71 69
f 72 68 70
f 73 69 71
f 71 72 73
f 70 73 72
f 74 75 76
f 76 77 74
f 78 74 77
f 77 79 78
f 80 78 79
f 79 81 80
f 82 80 81
f 81 83 82
f 84 85 86
f 86 87 84
f 85 84 88
f 88 89 85
f 89 88 90
f 90 91 89
f 91 90 92
f 92 93 91
f 94 95 96
f 96 97 94
f 98 99 100
f 100 101 98
f 102 103 104
f 105 103 106
f 107 103 102
f 106 103 108
f 109 103 107
f 108 103 110
f 111 103 109
f 110 103 112
f 113 103 111
f 112 103 113
f 114 115 116
f 115 114 117
f 116 118 114
f 117 119 115
f 118 116 120
f 119 117 121
f 120 122 118
f 121 123 119
f 122 120 124
f 123 121 125
f 124 126 122
f 125 127 123
f 126 124 128
f 127 125 129
f 128 130 126
f 129 131 127
f 130 128 132
f 131 129 133
f 132 134 130
f 133 135 131
f 134 132 136
f 135 133 137
f 136 137 134
f 137 136 135
f 138 139 140
f 138 141 139
f 138 140 142
f 138 143 141
f 138 142 144
f 138 145 143
f 138 144 146
f 138 147 145
f 138 146 148
f 138 149 147
f 138 148 150
f 138 150 149
f 151 152 153
f 152 151 154
f 153 155 151
f 154 156 152
f 155 153 157
f 156 154 158
f 157 159 155
f 158 160 156
f 159 157 161
f 160 158 162
f 161 163 159
f 162 164 160
f 163 161 165
f 164 162 166
f 165 167 163
f 166 168 164
f 167 165 169
f 168 166 170
f 169 171 167
f 170 172 168
f 171 169 173
f 172 170 174
f 173 174 171
f 174 173 172
f 175 176 177
f 177 178 175
f 176 179 177
f 179 180 177
f 181 177 180
f 180 182 181
f 183 184 185
f 185 186 183
f 187 183 186
f 188 187 186
f 189 188 186
f 186 190 189
f 191 192 193
f 194 192 195
f 196 192 191
f 195 192 197
f 198 192 196
f 197 192 199
f 200 192 198
f 199 192 201
f 202 192 200
f 201 192 202
f 203 204 205
f 204 206 205
f 207 203 205
f 208 207 205
f 209 208 205
f 210 211 205
f 212 209 205
f 211 213 205
f 214 212 205
f 213 214 205
f 215 216 217
f 216 215 218
f 217 219 215
f 218 220 216
f 219 217 221
f 220 218 222
f 221 223 219
f 222 224 220
f 223 221 225
f 224 222 226
f 225 227 223
f 226 228 224
f 227 225 229
f 228 226 230
f 229 231 227
f 230 232 228
f 231 229 233
f 232 230 234
f 233 235 231
f 234 236 232
f 235 233 237
f 236 234 238
f 237 238 235
f 238 237 236
f 239 240 241
f 242 241 240
f 241 243 239
f 240 244 242
f 245 239 243
f 246 242 244
f 243 247 245
f 244 248 246
f 249 245 247
f 250 246 248
f 247 251 249
f 248 252 250
f 253 249 251
f 254 250 252
f 251 255 253
f 252 256 254
f 257 253 255
f 258 254 256
f 255 259 257
f 256 260 258
f 261 257 259
f 262 258 260
f 260 261 262
f 259 262 261
f 263 264 265
f 265 266 263
f 264 267 265
f 267 268 265
f 269 265 268
f 268 270 269
f 271 272 273
f 273 274 271
f 273 275 274
f 273 276 275
f 276 273 277
f 277 278 276
f 279 280 281
f 281 282 279
f 283 284 285
f 285 286 283
f 287 288 289
f 289 290 287
f 291 292 293
f 293 294 291
f 295 296 297
f 297 298 295
f 297 299 298
f 299 297 300
f 300 301 299
f 301 300 302
f 302 303 301
f 304 305 306
f 306 307 304
f 307 306 308
f 308 309 307
f 310 311 312
f 312 313 310
f 313 312 314
f 314 315 313
f 316 317 318
f 318 319 316
f 319 318 320
f 320 321 319
f 322 323 324
f 324 325 322
f 323 326 324
f 327 324 326
f 326 328 327
f 329 327 328
f 328 330 329
f 331 332 333
f 333 334 331
f 335 333 332
f 332 336 335
f 337 338 339
f 338 337 340
f 340 341 338
f 341 340 342
f 342 343 341
f 343 342 344
f 344 345 343
f 345 344 346
f 346 347 345
f 339 348 337
f 348 339 349
f 350 337 348
f 351 350 348
f 350 351 352
f 352 353 350
f 353 352 354
f 354 355 353
f 355 354 356
f 356 357 355
f 357 356 358
f 358 359 357
f 348 360 351
f 359 358 361
f 362 351 360
f 360 348 349
f 363 362 360
f 362 363 364
f 364 365 362
f 365 364 366
f 366 367 365
f 367 366 368
f 368 369 367
f 369 368 370
f 370 371 369
f 371 370 361
f 358 371 361
f 349 372 360
f 373 374 349
f 372 349 374
f 374 373 375
f 375 376 374
f 376 375 377
f 378 377 375
f 377 378 379
f 379 380 377
f 347 346 381
f 380 379 381
f 381 361 380
f 346 359 381
f 361 381 359
f 382 383 384
f 383 382 385
f 385 386 383
f 386 385 387
f 387 388 386
f 388 387 389
f 389 390 388
f 390 389 391
f 391 392 390
f 393 382 384
f 394 393 384
f 393 394 395
f 395 396 393
f 396 395 397
f 397 398 396
f 398 397 399
f 399 400 398
f 400 399 401
f 401 402 400
f 402 401 403
f 404 394 384
f 405 406 384
f 406 405 407
f 408 404 384
f 404 408 409
f 409 410 404
f 384 411 408
f 410 409 412
f 412 413 410
f 413 412 414
f 414 415 413
f 415 414 416
f 416 417 415
f 417 416 418
f 411 384 406
f 401 417 418
f 418 403 401
f 403 418 419
f 407 420 406
f 420 407 421
f 421 422 420
f 422 421 423
f 423 424 422
f 424 423 425
f 425 419 424
f 392 391 403
f 419 425 403
f 391 402 403
f 426 427 428
f 429 428 427
f 427 430 429
f 431 429 430
f 430 432 431
f 433 431 432
f 432 434 433
f 435 433 434
f 434 436 435
f 426 428 437
f 426 437 438
f 439 438 437
f 437 440 439
f 441 439 440
f 440 442 441
f 443 441 442
f 442 444 443
f 445 443 444
f 444 446 445
f 426 438 447
f 448 426 449
f 447 449 426
f 449 447 450
f 451 450 447
f 447 452 451
f 450 453 449
f 454 451 452
f 452 455 454
f 456 454 455
f 455 457 456
f 458 456 457
f 457 459 458
f 460 458 459
f 460 459 445
f 460 461 462
f 463 462 461
f 445 464 460
f 461 460 464
f 464 445 446
f 464 446 435
f 435 465 464
f 461 464 465
f 465 435 436
f 465 466 461
f 461 467 463
f 467 461 466
f 468 463 467
f 467 469 468
f 470 468 469
f 468 470 471
f 448 471 470
f 471 472 473
f 471 448 472
f 453 473 472
f 449 472 448
f 472 449 453
f 474 475 476
f 476 477 474
f 478 479 480
f 480 481 478
f 482 483 484
f 484 485 482
f 486 487 488
f 488 489 486
f 490 491 492
f 492 493 490
f 494 490 493
f 495 494 493
f 496 495 493
f 493 497 496
f 498 499 500
f 500 501 498
f 499 498 502
f 499 502 503
f 499 503 504
f 504 505 499
f 506 507 508
f 508 509 506
f 507 510 508
f 510 511 508
f 512 508 511
f 511 513 512
f 514 515 516
f 516 517 514
f 518 514 517
f 519 518 517
f 520 519 517
f 517 521 520
f 522 523 524
f 524 525 522
f 526 527 528
f 528 529 526
f 530 531 532
f 532 533 530
f 531 534 532
f 535 532 534
f 534 536 535
f 537 535 536
f 536 538 537
f 539 540 541
f 541 542 539
f 541 543 542
f 543 541 544
f 544 545 543
f 545 544 546
f 546 547 545
