v -0.445356965 0.264419198 0.072876431
v 0.445356071 0.264419138 0.0728765503
v 0.445356101 0.264419138 1.41089657e-07
v -0.445356965 0.264419198 1.98156496e-08
v -0.445356965 0.264419198 1.98156496e-08
v -0.445357025 -0.225859731 2.21998349e-08
v -0.445357054 -0.225859731 0.072876431
v -0.445356965 0.264419198 0.072876431
v 0.445356101 0.264419138 1.41089657e-07
v 0.445356071 0.264419138 0.0728765503
v 0.445355982 -0.225859806 0.0728765503
v 0.445356011 -0.225859806 1.43473841e-07
v 0.416357398 -0.22622101 0.0360383205
v 0.416357398 -0.24587436 0.0360383168
v 0.41690585 -0.22622101 0.0380851179
v 0.41690585 -0.24587436 0.0380851142
v 0.41690585 -0.24587436 0.0339915156
v 0.418404192 -0.22622101 0.0395834781
v 0.41690585 -0.22622101 0.0339915194
v 0.418404192 -0.24587436 0.0395834744
v 0.418404192 -0.24587436 0.0324931592
v 0.420450985 -0.22622101 0.0401319191
v 0.418404192 -0.22622101 0.0324931629
v 0.420450985 -0.24587436 0.0401319154
v 0.420451015 -0.24587436 0.0319447219
v 0.422497809 -0.22622101 0.0395834781
v 0.420451015 -0.22622101 0.0319447257
v 0.422497809 -0.24587436 0.0395834744
v 0.422497809 -0.24587436 0.0324931592
v 0.42399615 -0.22622101 0.0380851179
v 0.422497809 -0.22622101 0.0324931629
v 0.42399615 -0.24587436 0.0380851142
v 0.42399615 -0.24587436 0.0339915194
v 0.424544603 -0.22622101 0.0360383205
v 0.42399615 -0.22622101 0.0339915231
v 0.424544603 -0.24587436 0.0360383168
v -0.445357054 -0.225859731 0.072876431
v 0.445355982 -0.225859806 0.0728765503
v 0.445356071 0.264419138 0.0728765503
v -0.445356965 0.264419198 0.072876431
v -0.445356965 0.264419198 1.98156496e-08
v 0.445356101 0.264419138 1.41089657e-07
v 0.445356011 -0.225859806 1.43473841e-07
v -0.445357025 -0.225859731 2.21998349e-08
v -0.420450985 -0.246574357 0.0360382907
v -0.417057395 -0.246574357 0.0360382907
v -0.417512059 -0.246574357 0.0377350859
v -0.417512059 -0.246574357 0.034341488
v -0.41875419 -0.246574357 0.0389772318
v -0.41875419 -0.246574357 0.0330993459
v -0.420450985 -0.246574357 0.0394318849
v -0.420451015 -0.246574357 0.0326446928
v -0.42214781 -0.246574357 0.0389772318
v -0.42214781 -0.246574357 0.0330993496
v -0.423389941 -0.246574357 0.0377350859
v -0.423389941 -0.246574357 0.0343414918
v -0.423844606 -0.246574357 0.0360382907
v -0.417057395 -0.246574357 0.0360382907
v -0.416357398 -0.245874345 0.0360382907
v -0.41690585 -0.245874345 0.0380850881
v -0.417512059 -0.246574357 0.034341488
v -0.417512059 -0.246574357 0.0377350859
v -0.41690585 -0.245874345 0.0339914896
v -0.418404192 -0.245874345 0.0395834483
v -0.41875419 -0.246574357 0.0330993459
v -0.41875419 -0.246574357 0.0389772318
v -0.418404192 -0.245874345 0.0324931294
v -0.420450985 -0.245874345 0.0401318856
v -0.420451015 -0.246574357 0.0326446928
v -0.420450985 -0.246574357 0.0394318849
v -0.420451015 -0.245874345 0.0319446921
v -0.422497809 -0.245874345 0.0395834483
v -0.42214781 -0.246574357 0.0330993496
v -0.42214781 -0.246574357 0.0389772318
v -0.422497809 -0.245874345 0.0324931331
v -0.42399615 -0.245874345 0.0380850881
v -0.423389941 -0.246574357 0.0343414918
v -0.423389941 -0.246574357 0.0377350859
v -0.42399615 -0.245874345 0.0339914933
v -0.424544603 -0.245874345 0.0360382907
v -0.423844606 -0.246574357 0.0360382907
v 0.417057395 -0.246574357 0.0360383168
v 0.420450985 -0.246574357 0.0360383168
v 0.417512059 -0.246574357 0.0377351157
v 0.41875419 -0.246574357 0.0389772579
v 0.417512059 -0.246574357 0.0343415178
v 0.420450985 -0.246574357 0.0394319147
v 0.41875419 -0.246574357 0.0330993757
v 0.42214781 -0.246574357 0.0389772579
v 0.420451015 -0.246574357 0.0326447189
v 0.423389941 -0.246574357 0.0377351157
v 0.42214781 -0.246574357 0.0330993757
v 0.423844606 -0.246574357 0.0360383168
v 0.423389941 -0.246574357 0.0343415178
v 0.416357398 -0.24587436 0.0360383168
v 0.417057395 -0.246574357 0.0360383168
v 0.41690585 -0.24587436 0.0380851142
v 0.417512059 -0.246574357 0.0377351157
v 0.417512059 -0.246574357 0.0343415178
v 0.418404192 -0.24587436 0.0395834744
v 0.41690585 -0.24587436 0.0339915156
v 0.41875419 -0.246574357 0.0389772579
v 0.41875419 -0.246574357 0.0330993757
v 0.420450985 -0.24587436 0.0401319154
v 0.418404192 -0.24587436 0.0324931592
v 0.420450985 -0.246574357 0.0394319147
v 0.420451015 -0.246574357 0.0326447189
v 0.422497809 -0.24587436 0.0395834744
v 0.420451015 -0.24587436 0.0319447219
v 0.42214781 -0.246574357 0.0389772579
v 0.42214781 -0.246574357 0.0330993757
v 0.42399615 -0.24587436 0.0380851142
v 0.422497809 -0.24587436 0.0324931592
v 0.423389941 -0.246574357 0.0377351157
v 0.423389941 -0.246574357 0.0343415178
v 0.424544603 -0.24587436 0.0360383168
v 0.42399615 -0.24587436 0.0339915194
v 0.423844606 -0.246574357 0.0360383168
v -0.445357025 -0.225859731 2.21998349e-08
v 0.445356011 -0.225859806 1.43473841e-07
v 0.445355982 -0.225859806 0.0728765503
v -0.445357054 -0.225859731 0.072876431
v -0.417057395 -0.225520998 0.0360382907
v -0.420450985 -0.225520998 0.0360382907
v -0.417512059 -0.225520998 0.0377350897
v -0.41875419 -0.225520998 0.0389772318
v -0.417512059 -0.225520998 0.034341488
v -0.420450985 -0.225520998 0.0394318886
v -0.41875419 -0.225520998 0.0330993496
v -0.42214781 -0.225520998 0.0389772318
v -0.420451015 -0.225520998 0.0326446928
v -0.423389941 -0.225520998 0.0377350897
v -0.42214781 -0.225520998 0.0330993496
v -0.423844606 -0.225520998 0.0360382907
v -0.423389941 -0.225520998 0.0343414918
v 0.420450985 -0.225521013 0.0360383205
v 0.417057395 -0.225521013 0.0360383205
v 0.417512059 -0.225521013 0.0377351195
v 0.417512059 -0.225521013 0.0343415216
v 0.41875419 -0.225521013 0.0389772616
v 0.41875419 -0.225521013 0.0330993794
v 0.420450985 -0.225521013 0.0394319184
v 0.420451015 -0.225521013 0.0326447226
v 0.42214781 -0.225521013 0.0389772616
v 0.42214781 -0.225521013 0.0330993794
v 0.423389941 -0.225521013 0.0377351195
v 0.423389941 -0.225521013 0.0343415253
v 0.423844606 -0.225521013 0.0360383205
v -0.416357398 -0.226220995 0.0360382907
v -0.417057395 -0.225520998 0.0360382907
v -0.417512059 -0.225520998 0.0377350897
v -0.41690585 -0.226220995 0.0339914896
v -0.41690585 -0.226220995 0.0380850881
v -0.417512059 -0.225520998 0.034341488
v -0.41875419 -0.225520998 0.0389772318
v -0.418404192 -0.226220995 0.0324931294
v -0.418404192 -0.226220995 0.0395834483
v -0.41875419 -0.225520998 0.0330993496
v -0.420450985 -0.225520998 0.0394318886
v -0.420451015 -0.226220995 0.0319446921
v -0.420450985 -0.226220995 0.0401318856
v -0.420451015 -0.225520998 0.0326446928
v -0.42214781 -0.225520998 0.0389772318
v -0.422497809 -0.226220995 0.0324931331
v -0.422497809 -0.226220995 0.0395834483
v -0.42214781 -0.225520998 0.0330993496
v -0.423389941 -0.225520998 0.0377350897
v -0.42399615 -0.226220995 0.0339914933
v -0.42399615 -0.226220995 0.0380850881
v -0.423389941 -0.225520998 0.0343414918
v -0.423844606 -0.225520998 0.0360382907
v -0.424544603 -0.226220995 0.0360382907
v 0.417057395 -0.225521013 0.0360383205
v 0.416357398 -0.22622101 0.0360383205
v 0.417512059 -0.225521013 0.0377351195
v 0.41690585 -0.22622101 0.0380851179
v 0.41690585 -0.22622101 0.0339915194
v 0.41875419 -0.225521013 0.0389772616
v 0.417512059 -0.225521013 0.0343415216
v 0.418404192 -0.22622101 0.0395834781
v 0.418404192 -0.22622101 0.0324931629
v 0.420450985 -0.225521013 0.0394319184
v 0.41875419 -0.225521013 0.0330993794
v 0.420450985 -0.22622101 0.0401319191
v 0.420451015 -0.22622101 0.0319447257
v 0.42214781 -0.225521013 0.0389772616
v 0.420451015 -0.225521013 0.0326447226
v 0.422497809 -0.22622101 0.0395834781
v 0.422497809 -0.22622101 0.0324931629
v 0.423389941 -0.225521013 0.0377351195
v 0.42214781 -0.225521013 0.0330993794
v 0.42399615 -0.22622101 0.0380851179
v 0.42399615 -0.22622101 0.0339915231
v 0.423844606 -0.225521013 0.0360383205
v 0.423389941 -0.225521013 0.0343415253
v 0.424544603 -0.22622101 0.0360383205
v -0.416357398 -0.245874345 0.0360382907
v -0.416357398 -0.226220995 0.0360382907
v -0.41690585 -0.226220995 0.0380850881
v -0.41690585 -0.245874345 0.0339914896
v -0.41690585 -0.245874345 0.0380850881
v -0.41690585 -0.226220995 0.0339914896
v -0.418404192 -0.226220995 0.0395834483
v -0.418404192 -0.245874345 0.0324931294
v -0.418404192 -0.245874345 0.0395834483
v -0.418404192 -0.226220995 0.0324931294
v -0.420450985 -0.226220995 0.0401318856
v -0.420451015 -0.245874345 0.0319446921
v -0.420450985 -0.245874345 0.0401318856
v -0.420451015 -0.226220995 0.0319446921
v -0.422497809 -0.226220995 0.0395834483
v -0.422497809 -0.245874345 0.0324931331
v -0.422497809 -0.245874345 0.0395834483
v -0.422497809 -0.226220995 0.0324931331
v -0.42399615 -0.226220995 0.0380850881
v -0.42399615 -0.245874345 0.0339914933
v -0.42399615 -0.245874345 0.0380850881
v -0.42399615 -0.226220995 0.0339914933
v -0.424544603 -0.226220995 0.0360382907
v -0.424544603 -0.245874345 0.0360382907
f 1 2 3
f 3 4 1
f 5 6 7
f 7 8 5
f 9 10 11
f 11 12 9
f 13 14 15
f 15 14 16
f 13 17 14
f 15 16 18
f 19 17 13
f 18 16 20
f 19 21 17
f 18 20 22
f 23 21 19
f 22 20 24
f 23 25 21
f 22 24 26
f 27 25 23
f 26 24 28
f 27 29 25
f 26 28 30
f 31 29 27
f 30 28 32
f 31 33 29
f 30 32 34
f 35 33 31
f 34 32 36
f 35 36 33
f 34 36 35
f 37 38 39
f 39 40 37
f 41 42 43
f 43 44 41
f 45 46 47
f 45 48 46
f 45 47 49
f 45 50 48
f 45 49 51
f 45 52 50
f 45 51 53
f 45 54 52
f 45 53 55
f 45 56 54
f 45 55 57
f 45 57 56
f 58 59 60
f 61 59 58
f 58 60 62
f 61 63 59
f 62 60 64
f 65 63 61
f 62 64 66
f 65 67 63
f 66 64 68
f 69 67 65
f 66 68 70
f 69 71 67
f 70 68 72
f 73 71 69
f 70 72 74
f 73 75 71
f 74 72 76
f 77 75 73
f 74 76 78
f 77 79 75
f 78 76 80
f 81 79 77
f 78 80 81
f 81 80 79
f 82 83 84
f 84 83 85
f 86 83 82
f 85 83 87
f 88 83 86
f 87 83 89
f 90 83 88
f 89 83 91
f 92 83 90
f 91 83 93
f 94 83 92
f 93 83 94
f 95 96 97
f 97 96 98
f 95 99 96
f 97 98 100
f 101 99 95
f 100 98 102
f 101 103 99
f 100 102 104
f 105 103 101
f 104 102 106
f 105 107 103
f 104 106 108
f 109 107 105
f 108 106 110
f 109 111 107
f 108 110 112
f 113 111 109
f 112 110 114
f 113 115 111
f 112 114 116
f 117 115 113
f 116 114 118
f 117 118 115
f 116 118 117
f 119 120 121
f 121 122 119
f 123 124 125
f 125 124 126
f 127 124 123
f 126 124 128
f 129 124 127
f 128 124 130
f 131 124 129
f 130 124 132
f 133 124 131
f 132 124 134
f 135 124 133
f 134 124 135
f 136 137 138
f 136 139 137
f 136 138 140
f 136 141 139
f 136 140 142
f 136 143 141
f 136 142 144
f 136 145 143
f 136 144 146
f 136 147 145
f 136 146 148
f 136 148 147
f 149 150 151
f 152 150 149
f 149 151 153
f 152 154 150
f 153 151 155
f 156 154 152
f 153 155 157
f 156 158 154
f 157 155 159
f 160 158 156
f 157 159 161
f 160 162 158
f 161 159 163
f 164 162 160
f 161 163 165
f 164 166 162
f 165 163 167
f 168 166 164
f 165 167 169
f 168 170 166
f 169 167 171
f 172 170 168
f 169 171 172
f 172 171 170
f 173 174 175
f 175 174 176
f 173 177 174
f 175 176 178
f 179 177 173
f 178 176 180
f 179 181 177
f 178 180 182
f 183 181 179
f 182 180 184
f 183 185 181
f 182 184 186
f 187 185 183
f 186 184 188
f 187 189 185
f 186 188 190
f 191 189 187
f 190 188 192
f 191 193 189
f 190 192 194
f 195 193 191
f 194 192 196
f 195 196 193
f 194 196 195
f 197 198 199
f 200 198 197
f 197 199 201
f 200 202 198
f 201 199 203
f 204 202 200
f 201 203 205
f 204 206 202
f 205 203 207
f 208 206 204
f 205 207 209
f 208 210 206
f 209 207 211
f 212 210 208
f 209 211 213
f 212 214 210
f 213 211 215
f 216 214 212
f 213 215 217
f 216 218 214
f 217 215 219
f 220 218 216
f 217 219 220
f 220 219 218
