v 0.122062296 -0.199999988 -4.44089183e-17
v 0.149999991 -0.172062293 -3.82055038e-17
v 0.149999991 -0.172062293 0.00999999978
v 0.122062296 -0.199999988 0.00999999978
v -0.122062303 0.200000003 4.44089216e-17
v -0.150000006 0.172062308 3.82055071e-17
v -0.150000006 0.172062308 0.00999999978
v -0.122062303 0.200000003 0.00999999978
v -0.150000006 -0.199999988 -4.44089183e-17
v 0.122062296 -0.199999988 -4.44089183e-17
v 0.122062296 -0.199999988 0.00999999978
v -0.150000006 -0.199999988 0.00999999978
v 0.149999991 0.200000003 4.44089216e-17
v -0.122062303 0.200000003 4.44089216e-17
v -0.122062303 0.200000003 0.00999999978
v 0.149999991 0.200000003 0.00999999978
v 0.149999991 -0.172062293 -3.82055038e-17
v 0.149999991 0.200000003 4.44089216e-17
v 0.149999991 0.200000003 0.00999999978
v 0.149999991 -0.172062293 0.00999999978
v -0.150000006 0.172062308 3.82055071e-17
v -0.150000006 -0.199999988 -4.44089183e-17
v -0.150000006 -0.199999988 0.00999999978
v -0.150000006 0.172062308 0.00999999978
v -0.150000006 -0.199999988 -4.44089183e-17
v -0.150000006 0.172062308 3.82055071e-17
v -0.122062303 0.200000003 4.44089216e-17
v 0.149999991 0.200000003 4.44089216e-17
v 0.122062296 -0.199999988 -4.44089183e-17
v 0.149999991 -0.172062293 -3.82055038e-17
f 1 2 3
f 3 4 1
f 5 6 7
f 7 8 5
f 9 10 11
f 11 12 9
f 13 14 15
f 15 16 13
f 17 18 19
f 19 20 17
f 21 22 23
f 23 24 21
f 25 26 27
f 25 27 28
f 25 28 29
f 28 30 29
