v -13.0937576 0.0293748975 0.00100000005
v -13.0187855 0.104348116 2.79999995
v -13.0187855 0.104348116 0.000999855925
v -13.0937853 0.0293481108 0.00100000005
v -13.0937853 0.0293481108 2.79999995
v -13.0937586 0.0293748938 0.000999855925
v -10.4302645 0.0293481108 2.79999995
v -10.5052366 0.104321338 0.000999855925
v -10.5052643 0.104348116 0.00100000005
v -10.5052643 0.104348116 2.79999995
v -10.5052376 0.104321331 0.00100000005
v -10.4302645 0.0293481108 0.000999855925
v -10.5061617 0.104348116 0.00100000005
v -13.0187855 0.104348116 2.79999995
v -10.5052643 0.104348116 2.79999995
v -10.5052643 0.104348116 0.000999855925
v -10.5061617 0.104348116 0.000999855925
v -13.0187845 0.104348116 0.00100000005
vt 7.45025635 0.000999987125
vt 7.34422827 2.79999995
vt 7.34422827 0.000999867916
vt 7.45029402 0.000999987125
vt 7.45029402 2.79999995
vt 7.45025635 0.000999867916
vt 4.72464132 2.79999995
vt 4.83066893 0.000999867916
vt 4.83070707 0.000999987125
vt 4.83070707 2.79999995
vt 4.8306694 0.000999987125
vt 4.72464132 0.000999867916
vt 4.83160496 0.000999987125
vt 7.34422827 2.79999995
vt 4.83070707 2.79999995
vt 4.83070707 0.000999867916
vt 4.83160448 0.000999867916
vt 7.34422827 0.000999987125
f 1/1 2/2 3/3
f 4/4 5/5 2/2
f 2/2 6/6 4/4
f 7/7 8/8 9/9
f 9/9 10/10 7/7
f 11/11 7/7 12/12
f 13/13 14/14 15/15
f 15/15 16/16 13/13
f 14/14 17/17 18/18
