v 5.85798979 -2.3946414 2.79999995
v 5.78301668 -2.31966829 0.000999855925
v 5.78298998 -2.31964135 0.00100000005
v 5.78298998 -2.31964135 2.79999995
v 5.78301716 -2.31966805 0.00100000005
v 5.85798979 -2.3946414 2.79999995
v 5.85798979 -2.3946414 0.000999855925
v 0.450814813 -2.3946147 0.00100000005
v 0.52578783 -2.31964135 2.79999995
v 0.52578783 -2.31964135 0.000999855925
v 0.52578783 -2.31964135 2.79999995
v 0.450814813 -2.39461446 0.000999855925
v 0.450788021 -2.3946414 0.00100000005
v 0.450788021 -2.3946414 2.79999995
v 0.452719182 -2.3946414 0.00100000005
v 1.70632601 -2.3946414 0.650152445
v 1.70632601 -2.3946414 2.79999995
v 0.451236367 -2.3946414 0.000999855925
v 0.451236427 -2.3946414 0.00100000005
v 1.70632601 -2.3946414 2.79999995
v 0.450788021 -2.3946414 2.79999995
v 0.450788021 -2.3946414 0.000999855925
v 1.70632601 -2.3946414 0.650152624
v 0.452719152 -2.3946414 0.000999998301
v 1.70632601 -2.3946414 0.00100000005
v 2.78632545 -2.3946414 1.20940638
v 5.85798979 -2.3946414 2.79999995
v 2.78632545 -2.3946414 2.79999995
v 5.85798979 -2.3946414 2.79999995
v 2.78632545 -2.3946414 1.20940661
v 2.78632545 -2.3946414 0.00100005255
v 2.78742242 -2.3946414 0.00100000005
v 5.85798979 -2.3946414 2.79999995
v 2.78742242 -2.3946414 0.000999855925
v 5.85798979 -2.3946414 0.00100000005
v 1.70632601 -2.3946414 2.20000005
v 2.78632545 -2.3946414 2.20000005
v 2.78632545 -2.3946414 2.79999995
v 1.70632601 -2.3946414 2.20000005
v 2.78632545 -2.3946414 2.79999995
v 1.70632601 -2.3946414 2.79999995
v 1.70632601 -2.3946414 0.699999988
v 1.70632601 -2.3946414 0.650152445
v 1.8025887 -2.3946414 0.699999988
v 2.78632545 -2.3946414 0.699999988
v 1.80258846 -2.3946414 0.699999988
v 1.70632601 -2.3946414 0.650152624
v 2.78632545 -2.3946414 0.699999988
v 1.70632601 -2.3946414 0.650152624
v 1.70632601 -2.3946414 0.000999998301
v 1.70786893 -2.3946414 0.00100000005
v 2.78632545 -2.3946414 0.699999988
v 1.70786881 -2.3946414 0.000999981188
v 2.78632545 -2.3946414 0.00100000005
v 2.78632569 -2.3946414 1.85384607
v 2.78632569 -2.31964135 2.20000005
v 2.78632569 -2.31964135 0.699999988
v 2.78632569 -2.3946414 1.85384607
v 2.78632569 -2.31964135 0.699999988
v 2.78632569 -2.3946414 0.699999988
v 2.78632569 -2.3946414 1.85384607
v 2.78632569 -2.3946414 2.20000005
v 2.78632569 -2.31964135 2.20000005
v 1.95555687 -2.3946414 0.699999988
v 2.78632569 -2.3946414 0.699999988
v 2.78632569 -2.31964135 0.699999988
v 1.95555687 -2.3946414 0.699999988
v 2.78632569 -2.31964135 0.699999988
v 1.70632601 -2.31964135 0.699999988
v 1.95555687 -2.3946414 0.699999988
v 1.70632601 -2.31964135 0.699999988
v 1.70632601 -2.3946414 0.699999988
v 1.70632601 -2.3946414 1.04615402
v 1.70632601 -2.3946414 0.699999988
v 1.70632601 -2.31964135 0.699999988
v 1.70632601 -2.3946414 1.04615402
v 1.70632601 -2.31964135 0.699999988
v 1.70632601 -2.31964135 2.20000005
v 1.70632601 -2.3946414 1.04615402
v 1.70632601 -2.31964135 2.20000005
v 1.70632601 -2.3946414 2.20000005
v 2.53709483 -2.3946414 2.20000005
v 1.70632601 -2.3946414 2.20000005
v 1.70632601 -2.31964135 2.20000005
v 2.53709483 -2.3946414 2.20000005
v 1.70632601 -2.31964135 2.20000005
v 2.78632569 -2.31964135 2.20000005
v 2.53709483 -2.3946414 2.20000005
v 2.78632569 -2.31964135 2.20000005
v 2.78632569 -2.3946414 2.20000005
vt 12.5026093 1.11999998
vt 12.5558895 0.000399947166
vt 12.5559087 0.00039999485
vt 12.5559087 1.11999998
vt 12.5558895 0.00039999485
vt 12.5026093 1.11999998
vt 12.5026093 0.000399947166
vt 9.78540093 0.00039999485
vt 9.73212068 1.11999998
vt 9.73212068 0.000399947166
vt 9.73212068 1.11999998
vt 9.78540093 0.000399947166
vt 9.7854201 0.00039999485
vt 9.7854201 1.11999998
vt 9.78639103 0.00039999485
vt 10.4163447 0.260060978
vt 10.4163447 1.11999998
vt 9.78564534 0.000399947166
vt 9.78564534 0.00039999485
vt 10.4163447 1.11999998
vt 9.7854201 1.11999998
vt 9.7854201 0.000399947166
vt 10.4163447 0.260061049
vt 9.78639103 0.00039999485
vt 10.4163447 0.00039999485
vt 10.9590587 0.48376255
vt 12.5026093 1.11999998
vt 10.9590587 1.11999998
vt 12.5026093 1.11999998
vt 10.9590587 0.483762646
vt 10.9590587 0.000400018692
vt 10.9596099 0.00039999485
vt 12.5026093 1.11999998
vt 10.9596099 0.000399947166
vt 12.5026093 0.00039999485
vt 10.4163447 0.880000019
vt 10.9590587 0.880000019
vt 10.9590587 1.11999998
vt 10.4163447 0.880000019
vt 10.9590587 1.11999998
vt 10.4163447 1.11999998
vt 10.4163447 0.279999995
vt 10.4163447 0.260060978
vt 10.4647176 0.279999995
vt 10.9590587 0.279999971
vt 10.4647176 0.279999995
vt 10.4163447 0.260061049
vt 10.9590587 0.279999971
vt 10.4163447 0.260061049
vt 10.4163447 0.00039999485
vt 10.4171201 0.00039999485
vt 10.9590587 0.279999971
vt 10.4171201 0.00039999485
vt 10.9590587 0.00039999485
vt 0.0376884915 0.46153841
vt 0 0.6
vt 0 0
vt 0.0376884915 0.46153841
vt 0 0
vt 0.0376884915 0
vt 0.0376884915 0.46153841
vt 0.0376884915 0.6
vt 0 0.6
vt 0.146115253 0.430000019
vt -0.271357031 0.430000019
vt -0.271357031 0.4
vt 0.146115253 0.430000019
vt -0.271357031 0.4
vt 0.271357031 0.4
vt 0.146115268 0.430000019
vt 0.271357031 0.4
vt 0.271357031 0.430000019
vt -0.0376884915 0.13846159
vt -0.0376884915 0
vt 0 0
vt -0.0376884915 0.13846159
vt 0 0
vt 0 0.6
vt -0.0376884915 0.13846159
vt 0 0.6
vt -0.0376884915 0.6
vt -0.146115253 0.430000019
vt 0.271357031 0.430000019
vt 0.271357031 0.4
vt -0.146115253 0.430000019
vt 0.271357031 0.4
vt -0.271357031 0.4
vt -0.146115268 0.430000019
vt -0.271357031 0.4
vt -0.271357031 0.430000019
f 1/1 2/2 3/3
f 3/3 4/4 1/1
f 5/5 6/6 7/7
f 8/8 9/9 10/10
f 11/11 12/12 13/13
f 13/13 14/14 11/11
f 15/15 16/16 17/17
f 17/17 18/18 15/15
f 19/19 20/20 21/21
f 21/21 22/22 19/19
f 23/23 24/24 25/25
f 26/26 27/27 28/28
f 29/29 30/30 31/31
f 31/31 32/32 29/29
f 33/33 34/34 35/35
f 36/36 37/37 38/38
f 39/39 40/40 41/41
f 42/42 43/43 44/44
f 45/45 46/46 47/47
f 48/48 49/49 50/50
f 50/50 51/51 48/48
f 52/52 53/53 54/54
f 55/55 56/56 57/57
f 58/58 59/59 60/60
f 61/61 62/62 63/63
f 64/64 65/65 66/66
f 67/67 68/68 69/69
f 70/70 71/71 72/72
f 73/73 74/74 75/75
f 76/76 77/77 78/78
f 79/79 80/80 81/81
f 82/82 83/83 84/84
f 85/85 86/86 87/87
f 88/88 89/89 90/90
