v -3.33120036 0.104321331 0.00100000005
v -3.40617371 0.0293481108 2.79999995
v -3.33117366 0.104348116 2.79999995
v -3.33117366 0.104348116 0.000999855925
v -3.40617371 0.0293481108 2.79999995
v -3.3312006 0.104321338 0.000999855925
v -3.40617371 0.0293481108 0.00100000005
v 0.52578783 0.0293481108 2.79999995
v 0.450814813 0.104321338 0.000999855925
v 0.450788021 0.104348116 0.00100000005
v 0.450788021 0.104348116 0.00100000005
v 0.450788021 0.104348116 2.79999995
v 0.52578783 0.0293481108 2.79999995
v 0.450814813 0.104321331 0.00100000005
v 0.52578783 0.0293481108 2.79999995
v 0.52578783 0.0293481108 0.000999855925
v -1.60454082 0.104348101 1.04615355
v -1.60454082 0.104348116 0.699999988
v -1.60454082 0.0293481573 0.699999988
v -1.60454082 0.104348116 1.04615366
v -1.60454082 0.0293481573 0.699999988
v -1.60454082 0.0293481573 2.20000005
v -1.60454082 0.104348116 1.04615366
v -1.60454082 0.0293481573 2.20000005
v -1.60454082 0.104348101 2.20000005
v -1.2720511 0.104348116 1.85384595
v -1.2720511 0.0293480642 2.20000005
v -1.2720511 0.0293480642 0.699999988
v -1.2720511 0.104348116 1.85384595
v -1.2720511 0.0293480642 0.699999988
v -1.2720511 0.104348101 0.699999988
v -1.2720511 0.104348101 1.85384583
v -1.2720511 0.104348116 2.20000005
v -1.2720511 0.0293480642 2.20000005
v 0.44943735 0.104348116 0.00100000005
v -0.192051172 0.104348116 0.475930214
v -0.192051172 0.104348116 2.79999995
v 0.450558484 0.104348116 0.000999855925
v 0.450558454 0.104348116 0.00100000005
v -0.192051172 0.104348116 2.79999995
v 0.450788021 0.104348116 2.79999995
v 0.450788021 0.104348116 0.000999855925
v -0.192051172 0.104348116 0.475930184
v 0.44943735 0.104348116 0.000999988057
v -0.192051172 0.104348116 0.00100000005
v -1.2720511 0.104348116 1.2755152
v -1.60454082 0.104348116 1.52167606
v -1.60454082 0.104348116 2.79999995
v -1.2720511 0.104348116 1.2755152
v -1.60454082 0.104348116 2.79999995
v -1.2720511 0.104348116 2.79999995
v -1.60454082 0.104348116 1.52167606
v -1.2720511 0.104348116 1.27551508
v -1.2720511 0.104348116 0.00100005418
v -1.27226961 0.104348116 0.00100000005
v -1.60454082 0.104348116 1.52167606
v -1.27226961 0.104348116 0.00100004673
v -1.60454082 0.104348116 0.00100000005
v -0.192051172 0.104348116 2.20000029
v -1.2720511 0.104348116 2.20000005
v -1.2720511 0.104348116 2.79999995
v -0.192051172 0.104348116 2.20000029
v -1.2720511 0.104348116 2.79999995
v -0.192051172 0.104348116 2.79999995
v -2.68454075 0.104348116 2.32126093
v -3.33117366 0.104348116 2.79999995
v -2.68454075 0.104348116 2.79999995
v -3.33117366 0.104348116 2.79999995
v -2.68454075 0.104348116 2.32126093
v -2.68454075 0.104348116 0.000999912736
v -2.68477178 0.104348116 0.00100000005
v -3.33117366 0.104348116 2.79999995
v -2.68477154 0.104348116 0.000999855925
v -3.33117366 0.104348116 0.00100000005
v -0.192051172 0.104348116 0.699999988
v -0.192051172 0.104348116 0.475930214
v -0.494702339 0.104348116 0.699999988
v -1.2720511 0.104348116 0.699999988
v -0.494702339 0.104348116 0.699999988
v -0.192051172 0.104348116 0.475930184
v -1.2720511 0.104348116 0.699999988
v -0.192051172 0.104348116 0.475930184
v -0.192051172 0.104348116 0.000999988057
v -0.193594024 0.104348123 0.00100000005
v -1.2720511 0.104348116 0.699999988
v -0.193593994 0.104348116 0.000999981188
v -1.2720511 0.104348123 0.00100000005
v -1.60454082 0.104348116 2.20000005
v -2.52075362 0.104348116 2.20000005
v -2.68454075 0.104348116 2.32126093
v -1.60454082 0.104348116 2.20000005
v -2.68454075 0.104348116 2.32126093
v -2.68454075 0.104348116 2.79999995
v -1.60454082 0.104348116 2.20000005
v -2.68454075 0.104348116 2.79999995
v -1.60454082 0.104348116 2.79999995
v -2.68454075 0.104348116 2.20000005
v -2.68454075 0.104348116 2.32126093
v -2.52075362 0.104348116 2.20000005
v -2.68454075 0.104348116 0.700000048
v -1.60454082 0.104348116 0.699999988
v -1.60454082 0.104348116 0.000999981188
v -1.60608375 0.104348123 0.00100000005
v -2.68454075 0.104348116 0.700000048
v -1.60608363 0.104348116 0.000999981188
v -2.68454075 0.104348123 0.00100000005
v -0.441281796 0.104348101 0.699999988
v -1.2720511 0.104348116 0.699999988
v -1.2720511 0.0293480642 0.699999988
v -0.441281796 0.104348101 0.699999988
v -1.2720511 0.0293480642 0.699999988
v -0.192051172 0.0293481573 0.699999988
v -0.441281796 0.104348116 0.699999988
v -0.192051172 0.0293481573 0.699999988
v -0.192051172 0.104348101 0.699999988
v -1.85377145 0.104348101 0.699999988
v -2.68454075 0.104348116 0.699999988
v -2.68454075 0.0293480642 0.699999988
v -1.85377145 0.104348101 0.699999988
v -2.68454075 0.0293480642 0.699999988
v -1.60454082 0.0293481573 0.699999988
v -1.85377157 0.104348116 0.699999988
v -1.60454082 0.0293481573 0.699999988
v -1.60454082 0.104348101 0.699999988
v -1.02282023 0.104348101 2.20000005
v -0.192051172 0.104348116 2.20000005
v -0.192051172 0.0293481573 2.20000005
v -1.02282023 0.104348101 2.20000005
v -0.192051172 0.0293481573 2.20000005
v -1.2720511 0.0293480642 2.20000005
v -1.02282023 0.104348116 2.20000005
v -1.2720511 0.0293480642 2.20000005
v -1.2720511 0.104348101 2.20000005
v -2.43530989 0.104348101 2.20000005
v -1.60454082 0.104348116 2.20000005
v -1.60454082 0.0293481573 2.20000005
v -2.43530989 0.104348101 2.20000005
v -1.60454082 0.0293481573 2.20000005
v -2.68454075 0.0293480642 2.20000005
v -2.43530989 0.104348116 2.20000005
v -2.68454075 0.0293480642 2.20000005
v -2.68454075 0.104348101 2.20000005
v -0.192051172 0.104348101 1.04615355
v -0.192051172 0.104348116 0.699999988
v -0.192051172 0.0293481573 0.699999988
v -0.192051172 0.104348116 1.04615366
v -0.192051172 0.0293481573 0.699999988
v -0.192051172 0.0293481573 2.20000005
v -0.192051172 0.104348116 1.04615366
v -0.192051172 0.0293481573 2.20000005
v -0.192051172 0.104348101 2.20000005
v -2.68454075 0.104348116 1.85384595
v -2.68454075 0.0293480642 2.20000005
v -2.68454075 0.0293480642 0.699999988
v -2.68454075 0.104348116 1.85384595
v -2.68454075 0.0293480642 0.699999988
v -2.68454075 0.104348101 0.699999988
v -2.68454075 0.104348101 1.85384583
v -2.68454075 0.104348116 2.20000005
v -2.68454075 0.0293480642 2.20000005
f 1 2 3
f 3 4 1
f 5 6 7
f 8 9 10
f 11 12 13
f 14 15 16
f 17 18 19
f 20 21 22
f 23 24 25
f 26 27 28
f 29 30 31
f 32 33 34
f 35 36 37
f 37 38 35
f 39 40 41
f 41 42 39
f 43 44 45
f 46 47 48
f 49 50 51
f 52 53 54
f 54 55 52
f 56 57 58
f 59 60 61
f 62 63 64
f 65 66 67
f 68 69 70
f 70 71 68
f 72 73 74
f 75 76 77
f 78 79 80
f 81 82 83
f 83 84 81
f 85 86 87
f 88 89 90
f 91 92 93
f 94 95 96
f 97 98 99
f 100 101 102
f 102 103 100
f 104 105 106
f 107 108 109
f 110 111 112
f 113 114 115
f 116 117 118
f 119 120 121
f 122 123 124
f 125 126 127
f 128 129 130
f 131 132 133
f 134 135 136
f 137 138 139
f 140 141 142
f 143 144 145
f 146 147 148
f 149 150 151
f 152 153 154
f 155 156 157
f 158 159 160
