v -8.967309 2.42153382 2.79999995
v -8.89230919 2.49653387 0
v -8.89230919 2.49653387 2.79999995
v -8.967309 2.42153382 0
v -12.2065639 2.42153382 0
v -12.2065639 2.49653387 2.79999995
v -12.2065639 2.49653387 0
v -12.2065639 2.42153382 2.79999995
v -13.0187855 2.42153382 0
v -13.0188122 2.42156076 0.00100000005
v -13.0937853 2.49653387 0.000999855925
v -13.0937853 2.49653387 0.000999855925
v -13.0937853 2.49653387 0
v -13.0187855 2.42153382 0
v -13.0188122 2.42156053 0.000999855925
v -13.0187855 2.42153382 0
v -13.0187845 2.42153382 0.00100000005
v -10.5052643 2.42153382 2.79999995
v -10.4302645 2.49653387 0
v -10.4302645 2.49653387 2.79999995
v -10.5052643 2.42153382 0
v -13.0188122 0.104321338 0.000999855925
v -13.0187855 0.104348116 0
v -13.0187845 0.104348116 0.00100000005
v -13.0187855 0.104348116 0
v -13.0188122 0.104321331 0.00100000005
v -13.0937853 0.0293481108 0.000999855925
v -13.0937853 0.0293481108 0.000999855925
v -13.0937853 0.0293481108 0
v -13.0187855 0.104348116 0
v -8.89230919 0.0293481108 0
v -8.967309 0.104348116 2.79999995
v -8.967309 0.104348116 0
v -8.89230919 0.0293481108 2.79999995
v -13.0187855 2.42153382 0
v -13.0184946 2.42153382 0.00100000005
v -13.0187855 2.42153382 0.000999855925
v -13.0184956 2.42153382 0.000999855925
v -12.2065639 2.42153382 0
v -12.2065639 2.42153382 0.00100000005
v -11.733305 2.42153382 0.0200000294
v -11.733305 2.42153382 0.778890431
v -10.7533045 2.42153382 0.0200000294
v -12.2065639 2.42153382 2.79999995
v -10.5052643 2.42153382 0
v -11.733304 2.42153382 2.21999979
v -10.5052643 2.42153382 2.79999995
v -10.7533045 2.42153382 2.21999979
v -10.8576765 2.42153382 2.21999979
v -10.3552647 2.42153382 0
v -8.967309 2.42153382 2.79999995
v -10.3552647 2.42153382 2.79999995
v -8.967309 2.42153382 0
v -10.3552647 2.42153382 0
v -10.4302645 2.49653387 2.79999995
v -10.4302645 2.49653387 0
v -10.3552647 2.42153382 2.79999995
v -13.0937586 2.49650717 0.000999855925
v -13.0937853 2.49653387 0
v -13.0937853 2.49653387 0.00100000005
v -13.0937853 2.49653387 0
v -13.0937576 2.49650693 0.00100000005
v -13.0187855 2.42153382 0.000999855925
v -13.0187855 2.42153382 0.000999855925
v -13.0187855 2.42153382 0
v -13.0937853 2.49653387 0
v -8.89230919 1.22150326 0
v -8.967309 1.29650331 2.79999995
v -8.967309 1.29650331 0
v -8.89230919 1.22150326 2.79999995
v -12.2065639 2.49650717 0.000999855925
v -12.2065639 2.49653387 0
v -12.2065639 2.49653387 0.00100000005
v -12.2065639 2.42153382 0.000999855925
v -12.2065639 2.42153382 0
v -12.2065639 2.49650693 0.00100000005
v -8.967309 2.42153382 0
v -8.89230919 2.49653387 2.79999995
v -8.89230919 2.49653387 0
v -8.967309 2.42153382 2.79999995
v -13.0187855 2.42070627 0.000999855925
v -13.0187855 2.42153382 0
v -13.0187845 2.42153382 0.00100000005
v -13.0187845 2.42070627 0.00100000005
v -13.0187855 0.104348116 0.000999855925
v -13.0187855 0.104348116 0.000999855925
v -13.0187855 0.104348116 0
v -13.0187855 2.42153382 0
v -8.967309 1.14650321 0
v -8.89230919 1.22150326 2.79999995
v -8.89230919 1.22150326 0
v -8.967309 1.14650321 2.79999995
v -8.967309 1.29650331 0
v -8.967309 2.42153382 2.79999995
v -8.967309 2.42153382 0
v -8.967309 1.29650331 2.79999995
v -8.967309 0.104348116 0
v -8.967309 1.14650321 2.79999995
v -8.967309 1.14650321 0
v -8.967309 0.104348116 2.79999995
vt 5.02597237 4.17911193
vt 5.13203812 0
vt 5.13203812 4.17911193
vt 5.02597237 0
vt 0.812221527 0
vt 0.737221479 4.17911193
vt 0.737221479 0
vt 0.812221527 4.17911193
vt 0 0
vt -3.78806872e-05 0.00149252078
vt -0.106065914 0.00149234286
vt -0.106065914 0.00149234286
vt -0.106065914 0
vt 0 0
vt -3.78752302e-05 0.00149234286
vt 0 0
vt 0 0.00149252078
vt 2.51352119 4.17911193
vt 2.61958718 0
vt 2.61958718 4.17911193
vt 2.51352119 0
vt 7.34419012 0.00149234286
vt 7.34422827 0
vt 7.34422827 0.00149252078
vt 7.34422827 0
vt 7.34419012 0.00149252078
vt 7.23816252 0.00149234286
vt 7.23816252 0.00149234286
vt 7.23816252 0
vt 7.34422827 0
vt 1.14822102 0
vt 1.04215515 4.17911193
vt 1.04215515 0
vt 1.14822102 4.17911193
vt 0 0
vt 0.00029007913 0.00149252078
vt 0 0.00149234286
vt 0.000290037337 0.00149234286
vt 0.812221527 0
vt 0.812221527 0.00149252078
vt 1.2854805 0.0298508605
vt 1.28548074 1.16252486
vt 2.265481 0.0298508605
vt 0.812221527 4.17911193
vt 2.51352119 0
vt 1.28548133 3.31343813
vt 2.51352119 4.17911193
vt 2.26548123 3.31343849
vt 2.16110873 3.31343813
vt 3.6380167 0
vt 5.02597237 4.17911193
vt 3.6380167 4.17911193
vt 5.02597237 0
vt 3.6380167 0
vt 3.53195071 4.17911193
vt 3.53195071 0
vt 3.6380167 4.17911193
vt 9.7674427 0.00149234286
vt 9.7674799 0
vt 9.7674799 0.00149252078
vt 9.7674799 0
vt 9.76744175 0.00149252078
vt 9.66141415 0.00149234286
vt 9.66141415 0.00149234286
vt 9.66141415 0
vt 9.7674799 0
vt 1.23109639 0
vt 1.12503052 4.17911193
vt 1.12503052 0
vt 1.23109639 4.17911193
vt 0.887194812 0.00149234286
vt 0.887221575 0
vt 0.887221575 0.00149252078
vt 0.812221527 0.00149234286
vt 0.812221527 0
vt 0.887194812 0.00149252078
vt 0 0
vt -0.106065914 4.17911193
vt -0.106065914 0
vt 0 4.17911193
vt 9.66058636 0.00149234286
vt 9.66141415 0
vt 9.66141415 0.00149252078
vt 9.66058636 0.00149252078
vt 7.34422827 0.00149234286
vt 7.34422827 0.00149234286
vt 7.34422827 0
vt 9.66141415 0
vt 0 0
vt -0.106065914 4.17911193
vt -0.106065914 0
vt 0 4.17911193
vt 1.12503052 0
vt 0 4.17911193
vt 0 0
vt 1.12503052 4.17911193
vt 1.04215515 0
vt 0 4.17911193
vt 0 0
vt 1.04215515 4.17911193
f 1/1 2/2 3/3
f 2/2 1/1 4/4
f 5/5 6/6 7/7
f 6/6 5/5 8/8
f 9/9 10/10 11/11
f 12/12 13/13 14/14
f 15/15 16/16 17/17
f 18/18 19/19 20/20
f 19/19 18/18 21/21
f 22/22 23/23 24/24
f 25/25 26/26 27/27
f 28/28 29/29 30/30
f 31/31 32/32 33/33
f 32/32 31/31 34/34
f 35/35 36/36 37/37
f 38/38 35/35 39/39
f 39/39 40/40 38/38
f 41/41 42/42 39/39
f 43/43 41/41 39/39
f 44/44 39/39 42/42
f 39/39 45/45 43/43
f 44/44 42/42 46/46
f 45/45 47/47 43/43
f 46/46 47/47 44/44
f 47/47 48/48 43/43
f 46/46 49/49 47/47
f 47/47 49/49 48/48
f 50/50 51/51 52/52
f 51/51 50/50 53/53
f 54/54 55/55 56/56
f 55/55 54/54 57/57
f 58/58 59/59 60/60
f 61/61 62/62 63/63
f 64/64 65/65 66/66
f 67/67 68/68 69/69
f 68/68 67/67 70/70
f 71/71 72/72 73/73
f 74/74 75/75 72/72
f 72/72 76/76 74/74
f 77/77 78/78 79/79
f 78/78 77/77 80/80
f 81/81 82/82 83/83
f 82/82 84/84 85/85
f 86/86 87/87 88/88
f 89/89 90/90 91/91
f 90/90 89/89 92/92
f 93/93 94/94 95/95
f 94/94 93/93 96/96
f 97/97 98/98 99/99
f 98/98 97/97 100/100
