v 1.70632601 -2.37698174 2.79999995
v 0.450788021 -2.3946414 2.79999995
v 1.70632601 -2.3946414 2.79999995
v 1.70632601 -2.37698174 2.79999995
v 1.70632601 -2.31964135 2.79999995
v 0.52578783 -2.31964135 2.79999995
v 1.70632601 -2.37698174 2.79999995
v 0.52578783 -2.31964135 2.79999995
v 0.450788021 -2.3946414 2.79999995
v 1.70632601 -2.3025558 2.79999995
v 1.70632601 -2.2446413 2.79999995
v 0.60078764 -2.2446413 2.79999995
v 1.70632601 -2.3025558 2.79999995
v 0.60078764 -2.2446413 2.79999995
v 0.52578783 -2.31964135 2.79999995
v 1.70632601 -2.3025558 2.79999995
v 0.52578783 -2.31964135 2.79999995
v 1.70632601 -2.31964135 2.79999995
v 2.78632545 -2.3617909 2.79999995
v 2.78632545 -2.3946414 2.79999995
v 5.85798979 -2.3946414 2.79999995
v 2.78632545 -2.3617909 2.79999995
v 5.85798979 -2.3946414 2.79999995
v 5.78298998 -2.31964135 2.79999995
v 2.78632545 -2.3617909 2.79999995
v 5.78298998 -2.31964135 2.79999995
v 2.78632545 -2.31964135 2.79999995
v 2.78632569 -2.28692555 2.79999995
v 5.70799017 -2.2446413 2.79999995
v 2.78632545 -2.2446413 2.79999995
v 2.78632545 -2.28692555 2.79999995
v 2.78632545 -2.31964135 2.79999995
v 5.78298998 -2.31964135 2.79999995
v 2.78632545 -2.28692555 2.79999995
v 5.78298998 -2.31964135 2.79999995
v 5.70799017 -2.2446413 2.79999995
v 2.78632545 -2.3617909 2.79999995
v 1.70632601 -2.37698174 2.79999995
v 1.70632601 -2.3946414 2.79999995
v 2.78632545 -2.3617909 2.79999995
v 1.70632601 -2.3946414 2.79999995
v 2.78632545 -2.3946414 2.79999995
v 1.70632601 -2.37698174 2.79999995
v 2.78632545 -2.3617909 2.79999995
v 2.78632545 -2.31964135 2.79999995
v 1.70632601 -2.37698174 2.79999995
v 2.78632545 -2.31964135 2.79999995
v 1.70632601 -2.31964135 2.79999995
v 1.70632601 -2.3025558 2.79999995
v 2.78632569 -2.28692555 2.79999995
v 2.78632545 -2.2446413 2.79999995
v 1.70632601 -2.3025558 2.79999995
v 2.78632545 -2.2446413 2.79999995
v 1.70632601 -2.2446413 2.79999995
v 2.78632545 -2.28692555 2.79999995
v 1.70632601 -2.3025558 2.79999995
v 1.70632601 -2.31964135 2.79999995
v 2.78632545 -2.28692555 2.79999995
v 1.70632601 -2.31964135 2.79999995
v 2.78632545 -2.31964135 2.79999995
f 1 2 3
f 4 5 6
f 7 8 9
f 10 11 12
f 13 14 15
f 16 17 18
f 19 20 21
f 22 23 24
f 25 26 27
f 28 29 30
f 31 32 33
f 34 35 36
f 37 38 39
f 40 41 42
f 43 44 45
f 46 47 48
f 49 50 51
f 52 53 54
f 55 56 57
f 58 59 60
