v -12.2065639 7.5151 2.79999995
v -12.2815371 7.59007311 0.000999855925
v -12.2815638 7.59009981 0.00100000005
v -12.2815638 7.59009981 2.79999995
v -12.2815371 7.59007311 0.00100000005
v -12.2065639 7.5151 0.000999855925
v -12.2065907 2.49656057 0.00100000005
v -12.2815638 2.57153392 2.79999995
v -12.2815638 2.57153392 0.000999855925
v -12.2065639 2.49653387 0.00100000005
v -12.2065639 2.49653387 2.79999995
v -12.2065907 2.49656081 0.000999855925
v -12.2815638 2.57332635 0.00100000005
v -12.2815638 7.59009981 2.79999995
v -12.2815638 7.59009981 0.000999855925
v -12.2815638 2.57153392 0.00100000005
v -12.2815638 2.57153392 2.79999995
v -12.2815638 7.59009981 2.79999995
v -12.2815638 2.57332587 0.000999855925
v -12.2815638 2.57153392 0.00100000005
vt 28.206544 1.11999998
vt 28.2598233 0.000399947166
vt 28.2598425 0.00039999485
vt 28.2598425 1.11999998
vt 28.2598233 0.00039999485
vt 28.206544 0.000399947166
vt 30.8350184 0.00039999485
vt 30.7817372 1.11999998
vt 30.7817372 0.000399947166
vt 30.8350376 0.00039999485
vt 30.8350376 1.11999998
vt 30.8350184 0.000399947166
vt 30.7808363 0.00039999485
vt 28.2598425 1.11999998
vt 28.2598425 0.000399947166
vt 30.7817372 0.00039999485
vt 30.7817372 1.11999998
vt 28.2598425 1.11999998
vt 30.7808363 0.000399947166
vt 30.7817372 0.00039999485
f 1/1 2/2 3/3
f 3/3 4/4 1/1
f 5/5 1/1 6/6
f 7/7 8/8 9/9
f 10/10 11/11 8/8
f 8/8 12/12 10/10
f 13/13 14/14 15/15
f 16/16 17/17 14/14
f 18/18 19/19 20/20
