v -7.72595263 7.51512671 0.00100000005
v -7.72595263 7.59009981 2.79999995
v -7.72595263 7.59009981 0.000999855925
v -7.72595263 7.59009981 2.79999995
v -7.72595263 7.51512671 0.000999855925
v -7.72595263 7.5151 0.00100000005
v -7.72595263 7.5151 2.79999995
v 0.52578789 7.5151 2.79999995
v 0.52578789 7.59007311 0.000999855925
v 0.52578783 7.59009981 0.00100000005
v 0.52578789 7.59009981 2.79999995
v 0.52578783 7.59007311 0.00100000005
v 0.52578789 7.5151 2.79999995
v 0.52578789 7.5151 0.000999855925
v -4.58287477 7.59009981 1.04615331
v -4.58287477 7.59009981 0.699999988
v -4.58287477 7.5151 0.699999988
v -4.58287477 7.59009981 1.04615319
v -4.58287477 7.5151 0.699999988
v -4.58287477 7.5151 2.20000005
v -4.58287477 7.59009981 1.04615319
v -4.58287477 7.5151 2.20000005
v -4.58287477 7.59009981 2.20000005
v -2.26092672 7.59009981 1.85384691
v -2.26092672 7.5151 2.20000005
v -2.26092672 7.5151 0.699999988
v -2.26092672 7.59009981 1.85384691
v -2.26092672 7.5151 0.699999988
v -2.26092672 7.59009981 0.699999988
v -2.26092672 7.59009981 1.85384679
v -2.26092672 7.59009981 2.20000005
v -2.26092672 7.5151 2.20000005
v 0.522840858 7.59009981 0.00100000005
v -1.1809268 7.59009981 0.579126418
v -1.1809268 7.59009981 2.79999995
v -1.1809268 7.59009981 2.79999995
v 0.525178432 7.59009981 0.000999855925
v 0.522840858 7.59009981 0.00100000005
v 0.525178313 7.59009981 0.00100000005
v -1.1809268 7.59009981 2.79999995
v 0.52578789 7.59009981 2.79999995
v 0.52578789 7.59009981 0.000999855925
v -1.1809268 7.59009981 0.579126477
v 0.522840917 7.59009981 0.000999970129
v -1.1809268 7.59009981 0.00100000005
v -5.6628747 7.59009981 2.09995151
v -7.72595263 7.59009981 2.79999995
v -5.6628747 7.59009981 2.79999995
v -7.72595263 7.59009981 2.79999995
v -5.6628747 7.59009981 2.09995151
v -5.6628747 7.59009981 0.000999958022
v -5.66361189 7.59009981 0.00100000005
v -7.72595263 7.59009981 2.79999995
v -5.66361141 7.59009981 0.000999855925
v -7.72595263 7.59009981 0.00100000005
v -2.26092672 7.59009981 0.945594549
v -2.92574024 7.59009981 1.17118061
v -2.92574024 7.59009981 2.79999995
v -2.26092672 7.59009981 0.945594549
v -2.92574024 7.59009981 2.79999995
v -2.26092672 7.59009981 2.79999995
v -2.92574024 7.59009981 1.17118061
v -2.26092672 7.59009981 0.945594549
v -2.26092672 7.59009981 0.000999971526
v -2.2614944 7.59009981 0.00100000005
v -2.92574024 7.59009981 1.17118061
v -2.2614944 7.59009981 0.00100006664
v -2.92574024 7.59009981 0.00100000005
v -1.1809268 7.59009981 2.20000005
v -2.26092672 7.59009981 2.20000005
v -2.26092672 7.59009981 2.79999995
v -1.1809268 7.59009981 2.20000005
v -2.26092672 7.59009981 2.79999995
v -1.1809268 7.59009981 2.79999995
v -4.00574017 7.59009981 1.53764868
v -4.58287477 7.59009981 1.73348331
v -4.58287477 7.59009981 2.79999995
v -4.00574017 7.59009981 1.53764868
v -4.58287477 7.59009981 2.79999995
v -4.00574017 7.59009981 2.79999995
v -4.58287477 7.59009981 1.73348331
v -4.00574017 7.59009981 1.53764868
v -4.00574017 7.59009981 0.00100000412
v -4.006073 7.59009981 0.00100000005
v -4.58287477 7.59009981 1.73348331
v -4.00607347 7.59009981 0.00100006966
v -4.58287477 7.59009981 0.00100000005
v -2.92574024 7.59009981 2.20000005
v -4.00574017 7.59009981 2.20000005
v -4.00574017 7.59009981 2.79999995
v -2.92574024 7.59009981 2.20000005
v -4.00574017 7.59009981 2.79999995
v -2.92574024 7.59009981 2.79999995
v -1.1809268 7.59009981 0.699999988
v -1.1809268 7.59009981 0.579126418
v -1.53714728 7.59009981 0.699999988
v -2.26092672 7.59009981 0.699999988
v -1.53714728 7.59009981 0.699999988
v -1.1809268 7.59009981 0.579126477
v -2.26092672 7.59009981 0.699999988
v -1.1809268 7.59009981 0.579126477
v -1.1809268 7.59009981 0.000999970129
v -1.18246961 7.59009981 0.00100000005
v -2.26092672 7.59009981 0.699999988
v -1.18246961 7.59009981 0.000999981188
v -2.26092672 7.59009981 0.00100000005
v -4.58287477 7.59009981 2.20000005
v -5.6628747 7.59009981 2.20000005
v -5.6628747 7.59009981 2.79999995
v -4.58287477 7.59009981 2.20000005
v -5.6628747 7.59009981 2.79999995
v -4.58287477 7.59009981 2.79999995
v -4.00574017 7.59009981 0.700000048
v -2.92574024 7.59009981 0.699999988
v -2.92574024 7.59009981 0.000999981188
v -2.92728329 7.59009981 0.00100000005
v -4.00574017 7.59009981 0.700000048
v -2.92728305 7.59009981 0.000999981188
v -4.00574017 7.59009981 0.00100000005
v -5.6628747 7.59009981 0.700000048
v -4.58287477 7.59009981 0.699999988
v -4.58287477 7.59009981 0.000999981188
v -4.58441782 7.59009981 0.00100000005
v -5.6628747 7.59009981 0.700000048
v -4.58441734 7.59009981 0.000999981188
v -5.66287518 7.59009981 0.00100000005
v -2.92574024 7.59009981 1.04615331
v -2.92574024 7.59009981 0.699999988
v -2.92574024 7.5151 0.699999988
v -2.92574024 7.59009981 1.04615319
v -2.92574024 7.5151 0.699999988
v -2.92574024 7.5151 2.20000005
v -2.92574024 7.59009981 1.04615319
v -2.92574024 7.5151 2.20000005
v -2.92574024 7.59009981 2.20000005
v -1.43015695 7.59009981 0.699999988
v -1.1809268 7.5151 0.699999988
v -1.1809268 7.59009981 0.699999988
v -1.43015695 7.59009981 0.699999988
v -2.26092672 7.59009981 0.699999988
v -2.26092672 7.5151 0.699999988
v -1.43015695 7.59009981 0.699999988
v -2.26092672 7.5151 0.699999988
v -1.1809268 7.5151 0.699999988
v -3.17497063 7.59009981 0.699999988
v -2.92574024 7.5151 0.699999988
v -2.92574024 7.59009981 0.699999988
v -3.17497063 7.59009981 0.699999988
v -4.00574017 7.59009981 0.699999988
v -4.00574017 7.5151 0.699999988
v -3.17497063 7.59009981 0.699999988
v -4.00574017 7.5151 0.699999988
v -2.92574024 7.5151 0.699999988
v -4.83210516 7.59009981 0.699999988
v -4.58287477 7.5151 0.699999988
v -4.58287477 7.59009981 0.699999988
v -4.83210516 7.59009981 0.699999988
v -5.6628747 7.59009981 0.699999988
v -5.6628747 7.5151 0.699999988
v -4.83210516 7.59009981 0.699999988
v -5.6628747 7.5151 0.699999988
v -4.58287477 7.5151 0.699999988
v -4.00574017 7.59009981 1.85384691
v -4.00574017 7.5151 2.20000005
v -4.00574017 7.5151 0.699999988
v -4.00574017 7.59009981 1.85384691
v -4.00574017 7.5151 0.699999988
v -4.00574017 7.59009981 0.699999988
v -4.00574017 7.59009981 1.85384679
v -4.00574017 7.59009981 2.20000005
v -4.00574017 7.5151 2.20000005
v -2.01169634 7.59009981 2.20000005
v -2.26092672 7.5151 2.20000005
v -2.26092672 7.59009981 2.20000005
v -2.01169634 7.59009981 2.20000005
v -1.1809268 7.59009981 2.20000005
v -1.1809268 7.5151 2.20000005
v -2.01169634 7.59009981 2.20000005
v -1.1809268 7.5151 2.20000005
v -2.26092672 7.5151 2.20000005
v -3.75650978 7.59009981 2.20000005
v -4.00574017 7.5151 2.20000005
v -4.00574017 7.59009981 2.20000005
v -3.75650978 7.59009981 2.20000005
v -2.92574024 7.59009981 2.20000005
v -2.92574024 7.5151 2.20000005
v -3.75650978 7.59009981 2.20000005
v -2.92574024 7.5151 2.20000005
v -4.00574017 7.5151 2.20000005
v -5.41364431 7.59009981 2.20000005
v -5.6628747 7.5151 2.20000005
v -5.6628747 7.59009981 2.20000005
v -5.41364431 7.59009981 2.20000005
v -4.58287477 7.59009981 2.20000005
v -4.58287477 7.5151 2.20000005
v -5.41364431 7.59009981 2.20000005
v -4.58287477 7.5151 2.20000005
v -5.6628747 7.5151 2.20000005
v -1.1809268 7.59009981 1.04615331
v -1.1809268 7.59009981 0.699999988
v -1.1809268 7.5151 0.699999988
v -1.1809268 7.59009981 1.04615319
v -1.1809268 7.5151 0.699999988
v -1.1809268 7.5151 2.20000005
v -1.1809268 7.59009981 1.04615319
v -1.1809268 7.5151 2.20000005
v -1.1809268 7.59009981 2.20000005
v -5.6628747 7.59009981 1.85384691
v -5.6628747 7.5151 2.20000005
v -5.6628747 7.5151 0.699999988
v -5.6628747 7.59009981 1.85384691
v -5.6628747 7.5151 0.699999988
v -5.6628747 7.59009981 0.699999988
v -5.6628747 7.59009981 1.85384679
v -5.6628747 7.59009981 2.20000005
v -5.6628747 7.5151 2.20000005
vt 26.0082644 0.00039999485
vt 25.9705889 1.11999998
vt 25.9705889 0.000399947166
vt 25.9705889 1.11999998
vt 26.0082644 0.000399947166
vt 26.0082778 0.00039999485
vt 26.0082778 1.11999998
vt 21.7862937 1.11999998
vt 21.8239691 0.000399947166
vt 21.8239826 0.00039999485
vt 21.8239826 1.11999998
vt 21.8239691 0.00039999485
vt 21.7862937 1.11999998
vt 21.7862937 0.000399947166
vt -0.0376884091 0.138461304
vt -0.0376884016 0
vt 0 0
vt -0.0376884016 0.138461256
vt 0 0
vt 0 0.6
vt -0.0376884016 0.138461256
vt 0 0.6
vt -0.0376884091 0.6
vt 0.0376884016 0.461538744
vt 0 0.6
vt 0 0
vt 0.0376884016 0.461538744
vt 0 0
vt 0.0376884091 0
vt 0.0376884091 0.461538696
vt 0.0376884016 0.6
vt 0 0.6
vt 21.8254624 0.00039999485
vt 22.6816288 0.231650567
vt 22.6816288 1.11999998
vt 22.6816288 1.11999998
vt 21.8242893 0.000399947166
vt 21.8254624 0.00039999485
vt 21.8242893 0.00039999485
vt 22.6816288 1.11999998
vt 21.8239826 1.11999998
vt 21.8239826 0.000399947166
vt 22.6816288 0.231650591
vt 21.8254643 0.00039999485
vt 22.6816288 0.00039999485
vt 24.9338645 0.839980602
vt 25.9705889 1.11999998
vt 24.9338645 1.11999998
vt 25.9705889 1.11999998
vt 24.9338645 0.839980602
vt 24.9338645 0.00039999485
vt 24.9342345 0.00039999485
vt 25.9705889 1.11999998
vt 24.9342345 0.000399947166
vt 25.9705889 0.00039999485
vt 23.2243419 0.37823782
vt 23.5584196 0.468472242
vt 23.5584196 1.11999998
vt 23.2243419 0.37823782
vt 23.5584196 1.11999998
vt 23.2243419 1.11999998
vt 23.5584196 0.468472242
vt 23.2243419 0.37823782
vt 23.2243419 0.00039999485
vt 23.2246256 0.00039999485
vt 23.5584196 0.468472242
vt 23.2246275 0.000400018692
vt 23.5584196 0.00039999485
vt 22.6816288 0.880000019
vt 23.2243419 0.880000019
vt 23.2243419 1.11999998
vt 22.6816288 0.880000019
vt 23.2243419 1.11999998
vt 22.6816288 1.11999998
vt 24.1011326 0.615059471
vt 24.3911495 0.693393326
vt 24.3911495 1.11999998
vt 24.1011326 0.615059471
vt 24.3911495 1.11999998
vt 24.1011326 1.11999998
vt 24.3911495 0.693393373
vt 24.1011326 0.615059471
vt 24.1011326 0.00039999485
vt 24.1012994 0.00039999485
vt 24.3911495 0.693393373
vt 24.1013013 0.000400018692
vt 24.3911495 0.00039999485
vt 23.5584196 0.880000019
vt 24.1011326 0.880000019
vt 24.1011326 1.11999998
vt 23.5584196 0.880000019
vt 24.1011326 1.11999998
vt 23.5584196 1.11999998
vt 22.6816288 0.279999995
vt 22.6816288 0.231650567
vt 22.8606341 0.279999995
vt 23.2243419 0.279999995
vt 22.8606341 0.279999995
vt 22.6816288 0.231650591
vt 23.2243419 0.279999995
vt 22.6816288 0.231650591
vt 22.6816288 0.00039999485
vt 22.6824052 0.00039999485
vt 23.2243419 0.279999995
vt 22.6824033 0.00039999485
vt 23.2243438 0.00039999485
vt 24.3911495 0.880000019
vt 24.9338645 0.880000019
vt 24.9338645 1.11999998
vt 24.3911495 0.880000019
vt 24.9338645 1.11999998
vt 24.3911495 1.11999998
vt 24.1011326 0.280000043
vt 23.5584196 0.279999995
vt 23.5584196 0.00039999485
vt 23.5591959 0.00039999485
vt 24.1011326 0.280000043
vt 23.5591959 0.00039999485
vt 24.1011326 0.00039999485
vt 24.9338645 0.280000019
vt 24.3911495 0.280000019
vt 24.3911495 0.00039999485
vt 24.3919259 0.00039999485
vt 24.9338645 0.280000019
vt 24.391924 0.00039999485
vt 24.9338664 0.00039999485
vt -0.0376884091 0.138461304
vt -0.0376884016 0
vt 0 0
vt -0.0376884016 0.138461256
vt 0 0
vt 0 0.6
vt -0.0376884016 0.138461256
vt 0 0.6
vt -0.0376884091 0.6
vt -0.146115567 0.370000052
vt -0.271357031 0.4
vt -0.271357031 0.370000052
vt -0.146115552 0.370000052
vt 0.271357031 0.370000052
vt 0.271357031 0.4
vt -0.146115552 0.370000052
vt 0.271357031 0.4
vt -0.271357031 0.4
vt -0.146115567 0.370000052
vt -0.271357031 0.4
vt -0.271357031 0.370000052
vt -0.146115552 0.370000052
vt 0.271357031 0.370000052
vt 0.271357031 0.4
vt -0.146115552 0.370000052
vt 0.271357031 0.4
vt -0.271357031 0.4
vt -0.146115567 0.370000052
vt -0.271357031 0.4
vt -0.271357031 0.370000052
vt -0.146115552 0.370000052
vt 0.271357031 0.370000052
vt 0.271357031 0.4
vt -0.146115552 0.370000052
vt 0.271357031 0.4
vt -0.271357031 0.4
vt 0.0376884016 0.461538744
vt 0 0.6
vt 0 0
vt 0.0376884016 0.461538744
vt 0 0
vt 0.0376884091 0
vt 0.0376884091 0.461538696
vt 0.0376884016 0.6
vt 0 0.6
vt 0.146115567 0.370000052
vt 0.271357031 0.4
vt 0.271357031 0.370000052
vt 0.146115552 0.370000052
vt -0.271357031 0.370000052
vt -0.271357031 0.4
vt 0.146115552 0.370000052
vt -0.271357031 0.4
vt 0.271357031 0.4
vt 0.146115567 0.370000052
vt 0.271357031 0.4
vt 0.271357031 0.370000052
vt 0.146115552 0.370000052
vt -0.271357031 0.370000052
vt -0.271357031 0.4
vt 0.146115552 0.370000052
vt -0.271357031 0.4
vt 0.271357031 0.4
vt 0.146115567 0.370000052
vt 0.271357031 0.4
vt 0.271357031 0.370000052
vt 0.146115552 0.370000052
vt -0.271357031 0.370000052
vt -0.271357031 0.4
vt 0.146115552 0.370000052
vt -0.271357031 0.4
vt 0.271357031 0.4
vt -0.0376884091 0.138461304
vt -0.0376884016 0
vt 0 0
vt -0.0376884016 0.138461256
vt 0 0
vt 0 0.6
vt -0.0376884016 0.138461256
vt 0 0.6
vt -0.0376884091 0.6
vt 0.0376884016 0.461538744
vt 0 0.6
vt 0 0
vt 0.0376884016 0.461538744
vt 0 0
vt 0.0376884091 0
vt 0.0376884091 0.461538696
vt 0.0376884016 0.6
vt 0 0.6
f 1/1 2/2 3/3
f 4/4 5/5 6/6
f 6/6 7/7 4/4
f 8/8 9/9 10/10
f 10/10 11/11 8/8
f 12/12 13/13 14/14
f 15/15 16/16 17/17
f 18/18 19/19 20/20
f 21/21 22/22 23/23
f 24/24 25/25 26/26
f 27/27 28/28 29/29
f 30/30 31/31 32/32
f 33/33 34/34 35/35
f 36/36 37/37 38/38
f 39/39 40/40 41/41
f 41/41 42/42 39/39
f 43/43 44/44 45/45
f 46/46 47/47 48/48
f 49/49 50/50 51/51
f 51/51 52/52 49/49
f 53/53 54/54 55/55
f 56/56 57/57 58/58
f 59/59 60/60 61/61
f 62/62 63/63 64/64
f 64/64 65/65 62/62
f 66/66 67/67 68/68
f 69/69 70/70 71/71
f 72/72 73/73 74/74
f 75/75 76/76 77/77
f 78/78 79/79 80/80
f 81/81 82/82 83/83
f 83/83 84/84 81/81
f 85/85 86/86 87/87
f 88/88 89/89 90/90
f 91/91 92/92 93/93
f 94/94 95/95 96/96
f 97/97 98/98 99/99
f 100/100 101/101 102/102
f 102/102 103/103 100/100
f 104/104 105/105 106/106
f 107/107 108/108 109/109
f 110/110 111/111 112/112
f 113/113 114/114 115/115
f 115/115 116/116 113/113
f 117/117 118/118 119/119
f 120/120 121/121 122/122
f 122/122 123/123 120/120
f 124/124 125/125 126/126
f 127/127 128/128 129/129
f 130/130 131/131 132/132
f 133/133 134/134 135/135
f 136/136 137/137 138/138
f 139/139 140/140 141/141
f 142/142 143/143 144/144
f 145/145 146/146 147/147
f 148/148 149/149 150/150
f 151/151 152/152 153/153
f 154/154 155/155 156/156
f 157/157 158/158 159/159
f 160/160 161/161 162/162
f 163/163 164/164 165/165
f 166/166 167/167 168/168
f 169/169 170/170 171/171
f 172/172 173/173 174/174
f 175/175 176/176 177/177
f 178/178 179/179 180/180
f 181/181 182/182 183/183
f 184/184 185/185 186/186
f 187/187 188/188 189/189
f 190/190 191/191 192/192
f 193/193 194/194 195/195
f 196/196 197/197 198/198
f 199/199 200/200 201/201
f 202/202 203/203 204/204
f 205/205 206/206 207/207
f 208/208 209/209 210/210
f 211/211 212/212 213/213
f 214/214 215/215 216/216
