v -7.65097952 7.4401269 0.00100000005
v -7.72595263 7.5151 2.79999995
v -7.72595263 7.5151 0.000999855925
v -7.72595263 7.5151 2.79999995
v -7.65097952 7.4401269 0.000999855925
v -7.65095234 7.44010019 0.00100000005
v -7.65095282 7.44010019 2.79999995
v 0.450814694 7.4401269 0.00100000005
v 0.52578789 7.5151 2.79999995
v 0.450787902 7.44010019 2.79999995
v 0.450787902 7.44010019 0.000999855925
v 0.52578789 7.5151 2.79999995
v 0.450814694 7.4401269 0.000999855925
v 0.52578783 7.5151 0.00100000005
v -2.26092672 7.44010019 1.04615331
v -2.26092672 7.44010019 0.699999988
v -2.26092672 7.5151 0.699999988
v -2.26092672 7.44010019 1.04615319
v -2.26092672 7.5151 0.699999988
v -2.26092672 7.5151 2.20000005
v -2.26092672 7.44010019 1.04615319
v -2.26092672 7.5151 2.20000005
v -2.26092672 7.44010019 2.20000005
v -4.58287477 7.44010019 1.85384691
v -4.58287477 7.5151 2.20000005
v -4.58287477 7.5151 0.699999988
v -4.58287477 7.44010019 1.85384691
v -4.58287477 7.5151 0.699999988
v -4.58287477 7.44010019 0.699999988
v -4.58287477 7.44010019 1.85384679
v -4.58287477 7.44010019 2.20000005
v -4.58287477 7.5151 2.20000005
v -1.1809268 7.44010019 2.23607159
v 0.450787902 7.44010019 2.79999995
v -1.1809268 7.44010019 2.79999995
v 0.450787902 7.44010019 2.79999995
v -1.1809268 7.44010019 2.23607159
v -1.1809268 7.44010019 0.000999868498
v -1.18034399 7.44010019 0.00100000005
v 0.450787902 7.44010019 2.79999995
v -1.18034422 7.44010019 0.000999855925
v 0.450787902 7.44010019 0.00100000005
v -7.64805889 7.44010019 0.00100000005
v -5.6628747 7.44010019 0.687089205
v -5.6628747 7.44010019 2.79999995
v -5.6628747 7.44010019 2.79999995
v -7.65024281 7.44010019 0.000999855925
v -7.64805889 7.44010019 0.00100000005
v -7.65024233 7.44010019 0.00100000005
v -5.6628747 7.44010019 2.79999995
v -7.65095282 7.44010019 2.79999995
v -7.65095282 7.44010019 0.000999855925
v -5.6628747 7.44010019 0.687089205
v -7.64805937 7.44010019 0.000999966636
v -5.66287422 7.44010019 0.00100000005
v -2.92574024 7.44010019 1.63305581
v -2.26092672 7.44010019 1.86281848
v -2.26092672 7.44010019 2.79999995
v -2.92574024 7.44010019 1.63305581
v -2.26092672 7.44010019 2.79999995
v -2.92574024 7.44010019 2.79999995
v -2.26092672 7.44010019 1.86281848
v -2.92574024 7.44010019 1.63305581
v -2.92574024 7.44010019 0.00100004766
v -2.92538357 7.44010019 0.00100000005
v -2.26092672 7.44010019 1.86281848
v -2.92538333 7.44010019 0.00100007094
v -2.26092696 7.44010019 0.00100000005
v -2.26092672 7.44010019 2.20000005
v -1.28529906 7.44010019 2.20000005
v -1.1809268 7.44010019 2.23607159
v -2.26092672 7.44010019 2.20000005
v -1.1809268 7.44010019 2.23607159
v -1.1809268 7.44010019 2.79999995
v -2.26092672 7.44010019 2.20000005
v -1.1809268 7.44010019 2.79999995
v -2.26092672 7.44010019 2.79999995
v -1.1809268 7.44010019 2.20000005
v -1.1809268 7.44010019 2.23607159
v -1.28529906 7.44010019 2.20000005
v -4.58287477 7.44010019 1.06034231
v -4.00574017 7.44010019 1.2598027
v -4.00574017 7.44010019 2.79999995
v -4.58287477 7.44010019 1.06034231
v -4.00574017 7.44010019 2.79999995
v -4.58287477 7.44010019 2.79999995
v -4.00574017 7.44010019 1.2598027
v -4.58287477 7.44010019 1.06034231
v -4.58287477 7.44010019 0.00100003462
v -4.58241653 7.44010019 0.00100000005
v -4.00574017 7.44010019 1.2598027
v -4.58241701 7.44010019 0.00100004987
v -4.00574017 7.44010019 0.00100000005
v -4.00574017 7.44010019 2.20000005
v -2.92574024 7.44010019 2.20000005
v -2.92574024 7.44010019 2.79999995
v -4.00574017 7.44010019 2.20000005
v -2.92574024 7.44010019 2.79999995
v -4.00574017 7.44010019 2.79999995
v -1.1809268 7.44010019 0.700000048
v -2.26092672 7.44010019 0.699999988
v -2.26092672 7.44010019 0.000999981188
v -2.25938392 7.44010019 0.00100000005
v -1.1809268 7.44010019 0.700000048
v -2.25938392 7.44010019 0.000999981188
v -1.1809268 7.44010019 0.00100000005
v -5.6628747 7.44010019 2.20000005
v -4.58287477 7.44010019 2.20000005
v -4.58287477 7.44010019 2.79999995
v -5.6628747 7.44010019 2.20000005
v -4.58287477 7.44010019 2.79999995
v -5.6628747 7.44010019 2.79999995
v -2.92574024 7.44010019 0.699999988
v -4.00574017 7.44010019 0.699999988
v -4.00574017 7.44010019 0.000999981188
v -4.00419712 7.44010019 0.00100000005
v -2.92574024 7.44010019 0.699999988
v -4.00419712 7.44010019 0.000999981188
v -2.92574048 7.44010019 0.00100000005
v -5.6628747 7.44010019 0.699999988
v -5.6628747 7.44010019 0.687089205
v -5.62551737 7.44010019 0.699999988
v -4.58287477 7.44010019 0.699999988
v -5.62551785 7.44010019 0.699999988
v -5.6628747 7.44010019 0.687089205
v -4.58287477 7.44010019 0.699999988
v -5.6628747 7.44010019 0.687089205
v -5.6628747 7.44010019 0.000999966636
v -5.66133213 7.44010019 0.00100000005
v -4.58287477 7.44010019 0.699999988
v -5.66133213 7.44010019 0.000999981188
v -4.58287477 7.44010019 0.00100000005
v -4.00574017 7.44010019 1.04615331
v -4.00574017 7.44010019 0.699999988
v -4.00574017 7.5151 0.699999988
v -4.00574017 7.44010019 1.04615319
v -4.00574017 7.5151 0.699999988
v -4.00574017 7.5151 2.20000005
v -4.00574017 7.44010019 1.04615319
v -4.00574017 7.5151 2.20000005
v -4.00574017 7.44010019 2.20000005
v -2.92574024 7.44010019 1.85384691
v -2.92574024 7.5151 2.20000005
v -2.92574024 7.5151 0.699999988
v -2.92574024 7.44010019 1.85384691
v -2.92574024 7.5151 0.699999988
v -2.92574024 7.44010019 0.699999988
v -2.92574024 7.44010019 1.85384679
v -2.92574024 7.44010019 2.20000005
v -2.92574024 7.5151 2.20000005
v -2.01169634 7.44010019 0.699999988
v -1.1809268 7.44010019 0.699999988
v -1.1809268 7.5151 0.699999988
v -2.01169634 7.44010019 0.699999988
v -1.1809268 7.5151 0.699999988
v -2.26092672 7.5151 0.699999988
v -2.01169634 7.44010019 0.699999988
v -2.26092672 7.5151 0.699999988
v -2.26092672 7.44010019 0.699999988
v -3.75650978 7.44010019 0.699999988
v -2.92574024 7.44010019 0.699999988
v -2.92574024 7.5151 0.699999988
v -3.75650978 7.44010019 0.699999988
v -2.92574024 7.5151 0.699999988
v -4.00574017 7.5151 0.699999988
v -3.75650978 7.44010019 0.699999988
v -4.00574017 7.5151 0.699999988
v -4.00574017 7.44010019 0.699999988
v -5.41364431 7.44010019 0.699999988
v -4.58287477 7.44010019 0.699999988
v -4.58287477 7.5151 0.699999988
v -5.41364431 7.44010019 0.699999988
v -4.58287477 7.5151 0.699999988
v -5.6628747 7.5151 0.699999988
v -5.41364431 7.44010019 0.699999988
v -5.6628747 7.5151 0.699999988
v -5.6628747 7.44010019 0.699999988
v -1.43015695 7.44010019 2.20000005
v -2.26092672 7.44010019 2.20000005
v -2.26092672 7.5151 2.20000005
v -1.43015695 7.44010019 2.20000005
v -2.26092672 7.5151 2.20000005
v -1.1809268 7.5151 2.20000005
v -1.43015695 7.44010019 2.20000005
v -1.1809268 7.5151 2.20000005
v -1.1809268 7.44010019 2.20000005
v -3.17497063 7.44010019 2.20000005
v -4.00574017 7.44010019 2.20000005
v -4.00574017 7.5151 2.20000005
v -3.17497063 7.44010019 2.20000005
v -4.00574017 7.5151 2.20000005
v -2.92574024 7.5151 2.20000005
v -3.17497063 7.44010019 2.20000005
v -2.92574024 7.5151 2.20000005
v -2.92574024 7.44010019 2.20000005
v -4.83210516 7.44010019 2.20000005
v -5.6628747 7.44010019 2.20000005
v -5.6628747 7.5151 2.20000005
v -4.83210516 7.44010019 2.20000005
v -5.6628747 7.5151 2.20000005
v -4.58287477 7.5151 2.20000005
v -4.83210516 7.44010019 2.20000005
v -4.58287477 7.5151 2.20000005
v -4.58287477 7.44010019 2.20000005
v -5.6628747 7.44010019 1.04615331
v -5.6628747 7.44010019 0.699999988
v -5.6628747 7.5151 0.699999988
v -5.6628747 7.44010019 1.04615319
v -5.6628747 7.5151 0.699999988
v -5.6628747 7.5151 2.20000005
v -5.6628747 7.44010019 1.04615319
v -5.6628747 7.5151 2.20000005
v -5.6628747 7.44010019 2.20000005
v -1.1809268 7.44010019 1.85384691
v -1.1809268 7.5151 2.20000005
v -1.1809268 7.5151 0.699999988
v -1.1809268 7.44010019 1.85384691
v -1.1809268 7.5151 0.699999988
v -1.1809268 7.44010019 0.699999988
v -1.1809268 7.44010019 1.85384679
v -1.1809268 7.44010019 2.20000005
v -1.1809268 7.5151 2.20000005
f 1 2 3
f 4 5 6
f 6 7 4
f 8 9 10
f 10 11 8
f 12 13 14
f 15 16 17
f 18 19 20
f 21 22 23
f 24 25 26
f 27 28 29
f 30 31 32
f 33 34 35
f 36 37 38
f 38 39 36
f 40 41 42
f 43 44 45
f 46 47 48
f 49 50 51
f 51 52 49
f 53 54 55
f 56 57 58
f 59 60 61
f 62 63 64
f 64 65 62
f 66 67 68
f 69 70 71
f 72 73 74
f 75 76 77
f 78 79 80
f 81 82 83
f 84 85 86
f 87 88 89
f 89 90 87
f 91 92 93
f 94 95 96
f 97 98 99
f 100 101 102
f 102 103 100
f 104 105 106
f 107 108 109
f 110 111 112
f 113 114 115
f 115 116 113
f 117 118 119
f 120 121 122
f 123 124 125
f 126 127 128
f 128 129 126
f 130 131 132
f 133 134 135
f 136 137 138
f 139 140 141
f 142 143 144
f 145 146 147
f 148 149 150
f 151 152 153
f 154 155 156
f 157 158 159
f 160 161 162
f 163 164 165
f 166 167 168
f 169 170 171
f 172 173 174
f 175 176 177
f 178 179 180
f 181 182 183
f 184 185 186
f 187 188 189
f 190 191 192
f 193 194 195
f 196 197 198
f 199 200 201
f 202 203 204
f 205 206 207
f 208 209 210
f 211 212 213
f 214 215 216
f 217 218 219
f 220 221 222
