v 0.525814593 7.5150733 0.00100000005
v 0.60078764 7.44010019 2.79999995
v 0.52578783 7.5151 2.79999995
v 0.60078764 7.44010019 2.79999995
v 0.525814593 7.5150733 0.000999855925
v 0.60078764 7.44010019 0.00100000005
v 0.52578783 7.5151 2.79999995
v 0.52578783 7.5151 0.000999855925
v 0.525814593 7.5150733 0.00100000005
v 7.32427645 7.44010019 2.79999995
v 7.39924955 7.5150733 0.000999855925
v 7.39927626 7.5151 0.00100000005
v 7.39927626 7.5151 2.79999995
v 7.39924955 7.5150733 0.00100000005
v 7.32427645 7.44010019 2.79999995
v 7.32427645 7.44010019 0.000999855925
v 5.11305285 7.44010019 1.04615331
v 5.11305285 7.44010019 0.699999988
v 5.11305285 7.5151 0.699999988
v 5.11305285 7.44010019 1.04615319
v 5.11305285 7.5151 0.699999988
v 5.11305285 7.5151 2.20000005
v 5.11305285 7.44010019 1.04615319
v 5.11305285 7.5151 2.20000005
v 5.11305285 7.44010019 2.20000005
v 3.0302043 7.44010019 1.85384691
v 3.0302043 7.5151 2.20000005
v 3.0302043 7.5151 0.699999988
v 3.0302043 7.44010019 1.85384691
v 3.0302043 7.5151 0.699999988
v 3.0302043 7.44010019 0.699999988
v 3.0302043 7.44010019 1.85384679
v 3.0302043 7.44010019 2.20000005
v 3.0302043 7.5151 2.20000005
v 1.95020437 7.44010019 2.79999995
v 0.601269543 7.44010019 0.000999855925
v 0.603188813 7.44009972 0.00100000005
v 0.603188813 7.44009972 0.00100000005
v 1.95020437 7.44010019 0.561965227
v 1.95020437 7.44010019 2.79999995
v 0.601269543 7.44010019 0.00100000005
v 1.95020437 7.44010019 2.79999995
v 0.60078764 7.44010019 2.79999995
v 0.60078764 7.44010019 0.000999855925
v 1.95020437 7.44010019 0.561965227
v 0.603188813 7.44010019 0.00099998177
v 1.95020425 7.44009972 0.00100000005
v 6.19305277 7.44010019 2.32890129
v 7.32427645 7.44010019 2.79999995
v 6.19305277 7.44010019 2.79999995
v 7.32427645 7.44010019 2.79999995
v 6.19305277 7.44010019 2.32890129
v 6.19305277 7.44010019 0.000999872456
v 6.19345665 7.44010019 0.00100000005
v 7.32427645 7.44010019 2.79999995
v 6.19345665 7.44010019 0.000999855925
v 7.32427645 7.44010019 0.00100000005
v 3.0302043 7.44010019 1.01173162
v 5.11305285 7.44010019 1.87913489
v 5.11305285 7.44010019 2.79999995
v 3.0302043 7.44010019 1.01173162
v 5.11305285 7.44010019 2.79999995
v 3.0302043 7.44010019 2.79999995
v 5.11305285 7.44010019 1.87913489
v 3.0302043 7.44010019 1.01173162
v 3.0302043 7.44010019 0.00100001961
v 3.03131294 7.44010019 0.00100000005
v 5.11305285 7.44010019 1.87913489
v 3.03131294 7.44010019 0.00100009411
v 5.11305285 7.44010019 0.00100000005
v 5.11305285 7.44010019 2.20000005
v 5.88352919 7.44010019 2.20000005
v 6.19305277 7.44010019 2.32890129
v 5.11305285 7.44010019 2.20000005
v 6.19305277 7.44010019 2.32890129
v 6.19305277 7.44010019 2.79999995
v 5.11305285 7.44010019 2.20000005
v 6.19305277 7.44010019 2.79999995
v 5.11305285 7.44010019 2.79999995
v 6.19305277 7.44010019 2.20000005
v 6.19305277 7.44010019 2.32890129
v 5.88352919 7.44010019 2.20000005
v 1.95020437 7.44010019 2.20000005
v 3.0302043 7.44010019 2.20000005
v 3.0302043 7.44010019 2.79999995
v 1.95020437 7.44010019 2.20000005
v 3.0302043 7.44010019 2.79999995
v 1.95020437 7.44010019 2.79999995
v 6.19305277 7.44010019 0.700000048
v 5.11305285 7.44010019 0.699999988
v 5.11305285 7.44010019 0.000999981188
v 5.11459589 7.44010019 0.00100000005
v 6.19305277 7.44010019 0.700000048
v 5.11459589 7.44010019 0.000999981188
v 6.19305277 7.44010019 0.00100000005
v 1.95020437 7.44010019 0.699999988
v 1.95020437 7.44010019 0.561965227
v 2.2816596 7.44010019 0.699999988
v 3.0302043 7.44010019 0.699999988
v 2.2816596 7.44010019 0.699999988
v 1.95020437 7.44010019 0.561965227
v 3.0302043 7.44010019 0.699999988
v 1.95020437 7.44010019 0.561965227
v 1.95020437 7.44010019 0.00099998177
v 1.9517473 7.44010019 0.00100000005
v 3.0302043 7.44010019 0.699999988
v 1.95174718 7.44010019 0.000999981188
v 3.03020453 7.44010019 0.00100000005
v 5.36228323 7.44010019 0.699999988
v 6.19305277 7.44010019 0.699999988
v 6.19305277 7.5151 0.699999988
v 5.36228323 7.44010019 0.699999988
v 6.19305277 7.5151 0.699999988
v 5.11305285 7.5151 0.699999988
v 5.36228323 7.44010019 0.699999988
v 5.11305285 7.5151 0.699999988
v 5.11305285 7.44010019 0.699999988
v 2.19943476 7.44010019 0.699999988
v 3.0302043 7.44010019 0.699999988
v 3.0302043 7.5151 0.699999988
v 2.19943476 7.44010019 0.699999988
v 3.0302043 7.5151 0.699999988
v 1.95020437 7.5151 0.699999988
v 2.19943476 7.44010019 0.699999988
v 1.95020437 7.5151 0.699999988
v 1.95020437 7.44010019 0.699999988
v 5.94382238 7.44010019 2.20000005
v 5.11305285 7.44010019 2.20000005
v 5.11305285 7.5151 2.20000005
v 5.94382238 7.44010019 2.20000005
v 5.11305285 7.5151 2.20000005
v 6.19305277 7.5151 2.20000005
v 5.94382238 7.44010019 2.20000005
v 6.19305277 7.5151 2.20000005
v 6.19305277 7.44010019 2.20000005
v 2.78097391 7.44010019 2.20000005
v 1.95020437 7.44010019 2.20000005
v 1.95020437 7.5151 2.20000005
v 2.78097391 7.44010019 2.20000005
v 1.95020437 7.5151 2.20000005
v 3.0302043 7.5151 2.20000005
v 2.78097391 7.44010019 2.20000005
v 3.0302043 7.5151 2.20000005
v 3.0302043 7.44010019 2.20000005
v 1.95020437 7.44010019 1.04615331
v 1.95020437 7.44010019 0.699999988
v 1.95020437 7.5151 0.699999988
v 1.95020437 7.44010019 1.04615319
v 1.95020437 7.5151 0.699999988
v 1.95020437 7.5151 2.20000005
v 1.95020437 7.44010019 1.04615319
v 1.95020437 7.5151 2.20000005
v 1.95020437 7.44010019 2.20000005
v 6.19305277 7.44010019 1.85384691
v 6.19305277 7.5151 2.20000005
v 6.19305277 7.5151 0.699999988
v 6.19305277 7.44010019 1.85384691
v 6.19305277 7.5151 0.699999988
v 6.19305277 7.44010019 0.699999988
v 6.19305277 7.44010019 1.85384679
v 6.19305277 7.44010019 2.20000005
v 6.19305277 7.5151 2.20000005
f 1 2 3
f 4 5 6
f 7 8 9
f 10 11 12
f 12 13 10
f 14 15 16
f 17 18 19
f 20 21 22
f 23 24 25
f 26 27 28
f 29 30 31
f 32 33 34
f 35 36 37
f 38 39 40
f 41 42 43
f 43 44 41
f 45 46 47
f 48 49 50
f 51 52 53
f 53 54 51
f 55 56 57
f 58 59 60
f 61 62 63
f 64 65 66
f 66 67 64
f 68 69 70
f 71 72 73
f 74 75 76
f 77 78 79
f 80 81 82
f 83 84 85
f 86 87 88
f 89 90 91
f 91 92 89
f 93 94 95
f 96 97 98
f 99 100 101
f 102 103 104
f 104 105 102
f 106 107 108
f 109 110 111
f 112 113 114
f 115 116 117
f 118 119 120
f 121 122 123
f 124 125 126
f 127 128 129
f 130 131 132
f 133 134 135
f 136 137 138
f 139 140 141
f 142 143 144
f 145 146 147
f 148 149 150
f 151 152 153
f 154 155 156
f 157 158 159
f 160 161 162
