v 0.600761056 0.0293481108 0.00100000005
v 0.52578789 0.0293481108 2.79999995
v 0.600787878 0.0293481108 2.79999995
v 0.600787878 0.0293481108 0.000999855925
v 0.600761116 0.0293481108 0.000999855925
v 0.52578783 0.0293481108 0.00100000005
v 0.52578789 -2.31964135 2.79999995
v 0.600761116 -2.24466801 0.000999855925
v 0.600787878 -2.2446413 0.00100000005
v 0.600787878 -2.2446413 2.79999995
v 0.600761056 -2.24466825 0.00100000005
v 0.52578789 -2.31964135 0.000999855925
v 0.600787878 -2.2446413 2.79999995
v 0.600787878 0.0285360888 0.000999855925
v 0.600787878 0.0293481108 0.00100000005
v 0.600787878 0.0293481108 0.00100000005
v 0.600787878 0.0293481108 2.79999995
v 0.600787878 -2.2446413 2.79999995
v 0.600787878 0.0285359714 0.00100000005
v 0.600787878 -2.2446413 0.000999855925
f 1 2 3
f 3 4 1
f 2 5 6
f 7 8 9
f 9 10 7
f 11 7 12
f 13 14 15
f 16 17 18
f 19 18 20
