v 7.32430315 7.4401269 0.00100000005
v 7.39927626 7.5151 2.79999995
v 7.39927626 7.5151 0.000999855925
v 7.39927626 7.5151 2.79999995
v 7.32430315 7.4401269 0.000999855925
v 7.32427645 7.44010019 0.00100000005
v 7.32427645 7.44010019 2.79999995
v 7.39924955 3.01737881 0.00100000005
v 7.32427645 3.09235215 2.79999995
v 7.32427645 3.09235215 0.000999855925
v 7.32427645 3.09235215 2.79999995
v 7.39924955 3.01737905 0.000999855925
v 7.39927626 3.0173521 0.00100000005
v 7.39927626 3.0173521 2.79999995
v 7.32427645 5.88241673 0.00100000005
v 7.32427645 5.88241673 1.79683375
v 7.32427645 7.44010019 2.79999995
v 7.32427645 5.88297319 0.000999855925
v 7.32427645 5.88297319 0.00100000005
v 7.32427645 7.44010019 2.79999995
v 7.32427645 7.44010019 0.000999855925
v 7.32427645 5.88241673 2.79999995
v 7.32427645 7.44010019 2.79999995
v 7.32427645 5.88241673 1.79683399
v 7.32427645 3.09390497 0.00100000005
v 7.32427645 4.8024168 1.10130143
v 7.32427645 4.8024168 0.00100006629
v 7.32427645 4.8024168 2.79999995
v 7.32427645 4.8024168 1.10130143
v 7.32427645 3.09390497 0.00100006629
v 7.32427645 3.09296298 0.00100000005
v 7.32427645 4.8024168 2.79999995
v 7.32427645 3.09296274 0.000999855925
v 7.32427645 3.09235215 0.00100000005
v 7.32427645 3.09235215 0.00100000005
v 7.32427645 3.09235215 2.79999995
v 7.32427645 4.8024168 2.79999995
v 7.32427645 4.8024168 2.20000005
v 7.32427645 4.8024168 2.79999995
v 7.32427645 5.88241673 2.79999995
v 7.32427645 4.8024168 2.20000005
v 7.32427645 5.88241673 2.79999995
v 7.32427645 5.88241673 2.20000005
v 7.32427645 5.88241673 0.699999988
v 7.32427645 5.88241673 0.000999981188
v 7.32427645 4.80395985 0.00100000005
v 7.32427645 5.88241673 0.699999988
v 7.32427645 4.80395985 0.000999981188
v 7.32427645 4.80241728 0.00100000005
v 7.32427645 4.80241728 0.00100000005
v 7.32427645 4.8024168 0.699999988
v 7.32427645 5.88241673 0.699999988
v 7.32427645 4.8024168 1.85384738
v 7.39927626 4.8024168 2.20000005
v 7.39927626 4.8024168 0.699999988
v 7.32427645 4.8024168 1.85384738
v 7.39927626 4.8024168 0.699999988
v 7.32427645 4.8024168 0.699999988
v 7.32427645 4.8024168 1.85384727
v 7.32427645 4.8024168 2.20000005
v 7.39927626 4.8024168 2.20000005
v 7.32427645 5.63318682 0.699999988
v 7.32427645 4.8024168 0.699999988
v 7.39927626 4.8024168 0.699999988
v 7.32427645 5.63318682 0.699999988
v 7.39927626 4.8024168 0.699999988
v 7.39927626 5.88241673 0.699999988
v 7.32427645 5.63318682 0.699999988
v 7.39927626 5.88241673 0.699999988
v 7.32427645 5.88241673 0.699999988
v 7.32427645 5.88241673 1.04615331
v 7.32427645 5.88241673 0.699999988
v 7.39927626 5.88241673 0.699999988
v 7.32427645 5.88241673 1.04615319
v 7.39927626 5.88241673 0.699999988
v 7.39927626 5.88241673 2.20000005
v 7.32427645 5.88241673 1.04615319
v 7.39927626 5.88241673 2.20000005
v 7.32427645 5.88241673 2.20000005
v 7.32427645 5.05164719 2.20000005
v 7.32427645 5.88241673 2.20000005
v 7.39927626 5.88241673 2.20000005
v 7.32427645 5.05164719 2.20000005
v 7.39927626 5.88241673 2.20000005
v 7.39927626 4.8024168 2.20000005
v 7.32427645 5.05164719 2.20000005
v 7.39927626 4.8024168 2.20000005
v 7.32427645 4.8024168 2.20000005
f 1 2 3
f 4 5 6
f 6 7 4
f 8 9 10
f 11 12 13
f 13 14 11
f 15 16 17
f 17 18 15
f 19 20 21
f 22 23 24
f 25 26 27
f 28 29 30
f 30 31 28
f 32 33 34
f 35 36 37
f 38 39 40
f 41 42 43
f 44 45 46
f 47 48 49
f 50 51 52
f 53 54 55
f 56 57 58
f 59 60 61
f 62 63 64
f 65 66 67
f 68 69 70
f 71 72 73
f 74 75 76
f 77 78 79
f 80 81 82
f 83 84 85
f 86 87 88
