v -10.5052643 0.104348116 0
v -10.5052643 1.22150326 2.79999995
v -10.5052643 1.22150326 0
v -10.5052643 0.104348116 2.79999995
v -10.5052643 1.22150326 0
v -10.5052643 2.42153382 2.79999995
v -10.5052643 2.42153382 0
v -10.5052643 1.22150326 2.79999995
v -10.4302645 0.0293481108 0
v -10.5052643 0.104348116 2.79999995
v -10.5052643 0.104348116 0
v -10.4302645 0.0293481108 2.79999995
v -10.3552647 1.14650321 0
v -10.4302645 1.22150326 2.79999995
v -10.4302645 1.22150326 0
v -10.3552647 1.14650321 2.79999995
v -10.5052643 2.42153382 0
v -10.4302645 2.49653387 2.79999995
v -10.4302645 2.49653387 0
v -10.5052643 2.42153382 2.79999995
v 0.600761116 -2.24466801 0.000999855925
v 0.600787878 -2.2446413 0
v 0.600787878 -2.2446413 0.00100000005
v 0.600787878 -2.2446413 0
v 0.600761056 -2.24466825 0.00100000005
v 0.52578789 -2.31964135 0.000999855925
v 0.52578789 -2.31964135 0
v 0.646025538 3.0173521 2.79999995
v 0.646025538 3.09235215 0
v 0.646025538 3.09235215 2.79999995
v 0.646025538 3.0173521 0
v 0.646025538 2.94235206 2.79999995
v 0.646025538 3.0173521 0
v 0.646025538 3.0173521 2.79999995
v 0.646025538 2.94235206 0
v 0.600787878 0.0285360888 0.000999855925
v 0.600787878 0.0293481108 0
v 0.600787878 0.0293481108 0.00100000005
v 0.600787878 -2.2446413 0.000999855925
v 0.600787878 -2.2446413 0
v 0.600787878 0.0285359714 0.00100000005
v -10.3552647 1.14650321 0
v -8.967309 1.14650321 2.79999995
v -10.3552647 1.14650321 2.79999995
v -8.967309 1.14650321 0
v -10.5052643 1.22150326 0
v -10.4302645 1.22150326 2.79999995
v -10.5052643 1.22150326 2.79999995
v -10.4302645 1.22150326 0
v -3.48117375 2.42153382 0
v -7.72595215 2.42153382 0
v -7.72595215 2.49653387 0
v -3.40617371 2.49653387 0
v -7.65095234 2.57153392 0
v -3.33117366 2.57153392 0
v -8.81730938 2.42153382 0
v -8.81730938 1.22150326 0
v -8.89230919 1.22150326 0
v -8.89230919 2.49653387 0
v -8.967309 1.29650331 0
v -8.967309 2.42153382 0
v -8.89230919 2.57153392 0
v -7.80095196 2.57153392 0
v -7.72595215 2.49653387 0
v -8.89230919 2.49653387 0
v -7.72595215 2.42153382 0
v -8.81730938 2.42153382 0
v -12.2065639 2.42153382 0
v -13.0187855 2.42153382 0
v -13.0937853 2.49653387 0
v -12.2065639 2.49653387 0
v -13.1687851 2.57153392 0
v -12.2815638 2.57153392 0
v -10.4302645 2.57153392 0
v -8.89230919 2.57153392 0
v -8.89230919 2.49653387 0
v -10.4302645 2.49653387 0
v -8.967309 2.42153382 0
v -10.3552647 2.42153382 0
v -12.1315641 2.57153392 0
v -10.4302645 2.57153392 0
v -10.4302645 2.49653387 0
v -12.2065639 2.49653387 0
v -10.5052643 2.42153382 0
v -12.2065639 2.42153382 0
v -8.81730938 1.22150326 0
v -8.81730938 0.104348108 0
v -8.89230919 0.0293481108 0
v -8.89230919 1.22150326 0
v -8.967309 0.104348116 0
v -8.967309 1.14650321 0
v -10.3552647 0.104348116 0
v -8.967309 0.104348116 0
v -8.89230919 0.0293481108 0
v -10.4302645 0.0293481108 0
v -8.89230919 -0.0456518903 0
v -10.4302645 -0.0456518903 0
v -13.0187855 0.104348116 0
v -10.5052643 0.104348116 0
v -10.4302645 0.0293481108 0
v -13.0937853 0.0293481108 0
v -10.4302645 -0.0456518903 0
v -13.1687851 -0.0456518903 0
v -13.0187855 2.42153382 0
v -13.0187855 0.104348116 0
v -13.0937853 0.0293481108 0
v -13.0937853 2.49653387 0
v -13.1687851 -0.0456518903 0
v -13.1687851 2.57153392 0
v -10.3552647 1.14650321 0
v -10.3552647 0.104348116 0
v -10.4302645 0.0293481108 0
v -10.4302645 1.22150326 0
v -10.5052643 0.104348116 0
v -10.5052643 1.22150326 0
v -10.3552647 2.42153382 0
v -10.3552647 1.29650331 0
v -10.4302645 1.22150326 0
v -10.4302645 2.49653387 0
v -10.5052643 1.22150326 0
v -10.5052643 2.42153382 0
v -10.3552647 1.29650331 0
v -8.967309 1.29650331 0
v -8.89230919 1.22150326 0
v -10.4302645 1.22150326 0
v -8.967309 1.14650321 0
v -10.3552647 1.14650321 0
v -8.81730938 0.104348108 0
v -3.48117375 0.104348108 0
v -3.40617371 0.0293481108 0
v -8.89230919 0.0293481108 0
v -3.40617371 -0.0456518829 0
v -8.89230919 -0.0456518829 0
v -3.48117375 0.104348108 0
v -3.48117375 2.42153382 0
v -3.40617371 2.49653387 0
v -3.40617371 0.0293481108 0
v -3.33117366 2.57153392 0
v -3.33117366 0.104348116 0
v -12.1315641 7.44010019 0
v -12.1315641 2.57153392 0
v -12.2065639 2.49653387 0
v -12.2065639 7.5151 0
v -12.2815638 2.57153392 0
v -12.2815638 7.59009981 0
v -7.80095196 2.57153392 0
v -7.80095196 7.44010019 0
v -7.72595215 7.5151 0
v -7.72595215 2.49653387 0
v -7.65095234 7.44010019 0
v -7.65095234 2.57153392 0
v -9.0258379 7.46095228 0
v -7.80095196 7.44010019 0
v -9.0258379 7.44010019 0
v -9.0258379 7.46095228 0
v -9.0258379 7.5151 0
v -7.72595215 7.5151 0
v -9.0258379 7.46095228 0
v -7.72595215 7.5151 0
v -7.80095196 7.44010019 0
v -9.0258379 7.53650045 0
v -9.0258379 7.59009981 0
v -7.72595215 7.59009981 0
v -9.0258379 7.53650045 0
v -7.72595215 7.59009981 0
v -7.72595215 7.5151 0
v -9.0258379 7.53650045 0
v -7.72595215 7.5151 0
v -9.0258379 7.5151 0
v -10.9058371 7.49295664 0
v -10.9058371 7.44010019 0
v -12.1315641 7.44010019 0
v -10.9058371 7.49295664 0
v -12.1315641 7.44010019 0
v -12.2065639 7.5151 0
v -10.9058371 7.49295664 0
v -12.2065639 7.5151 0
v -10.9058371 7.5151 0
v -10.9058371 7.567451 0
v -12.2815638 7.59009981 0
v -10.9058371 7.59009981 0
v -10.9058371 7.567451 0
v -10.9058371 7.5151 0
v -12.2065639 7.5151 0
v -10.9058371 7.567451 0
v -12.2065639 7.5151 0
v -12.2815638 7.59009981 0
v -10.9058371 7.49295664 0
v -9.0258379 7.46095228 0
v -9.0258379 7.44010019 0
v -10.9058371 7.49295664 0
v -9.0258379 7.44010019 0
v -10.9058371 7.44010019 0
v -9.0258379 7.46095228 0
v -10.9058371 7.49295664 0
v -10.9058371 7.5151 0
v -9.0258379 7.46095228 0
v -10.9058371 7.5151 0
v -9.0258379 7.5151 0
v -9.0258379 7.53650045 0
v -10.9058371 7.567451 0
v -10.9058371 7.59009981 0
v -9.0258379 7.53650045 0
v -10.9058371 7.59009981 0
v -9.0258379 7.59009981 0
v -10.9058371 7.567451 0
v -9.0258379 7.53650045 0
v -9.0258379 7.5151 0
v -10.9058371 7.567451 0
v -9.0258379 7.5151 0
v -10.9058371 7.5151 0
v -1.1809268 7.53061247 0
v -1.1809268 7.59009981 0
v 0.52578789 7.59009981 0
v -1.1809268 7.53061247 0
v 0.52578789 7.59009981 0
v 0.52578789 7.5151 0
v -1.1809268 7.53061247 0
v 0.52578789 7.5151 0
v -1.1809268 7.5151 0
v -1.1809268 7.45506668 0
v 0.450787902 7.44010019 0
v -1.1809268 7.44010019 0
v -1.1809268 7.45506668 0
v -1.1809268 7.5151 0
v 0.52578789 7.5151 0
v -1.1809268 7.45506668 0
v 0.52578789 7.5151 0
v 0.450787902 7.44010019 0
v -5.6628747 7.57134867 0
v -7.72595263 7.59009981 0
v -5.6628747 7.59009981 0
v -5.6628747 7.57134867 0
v -5.6628747 7.5151 0
v -7.72595263 7.5151 0
v -5.6628747 7.57134867 0
v -7.72595263 7.5151 0
v -7.72595263 7.59009981 0
v -5.6628747 7.49617672 0
v -5.6628747 7.44010019 0
v -7.65095282 7.44010019 0
v -5.6628747 7.49617672 0
v -7.65095282 7.44010019 0
v -7.72595263 7.5151 0
v -5.6628747 7.49617672 0
v -7.72595263 7.5151 0
v -5.6628747 7.5151 0
v -2.26092672 7.54042816 0
v -2.92574024 7.54647064 0
v -2.92574024 7.59009981 0
v -2.26092672 7.54042816 0
v -2.92574024 7.59009981 0
v -2.26092672 7.59009981 0
v -2.92574024 7.54647064 0
v -2.26092672 7.54042816 0
v -2.26092672 7.5151 0
v -2.92574024 7.54647064 0
v -2.26092672 7.5151 0
v -2.92574024 7.5151 0
v -2.92574024 7.47107077 0
v -2.26092672 7.46497297 0
v -2.26092672 7.44010019 0
v -2.92574024 7.47107077 0
v -2.26092672 7.44010019 0
v -2.92574024 7.44010019 0
v -2.26092672 7.46497297 0
v -2.92574024 7.47107077 0
v -2.92574024 7.5151 0
v -2.26092672 7.46497297 0
v -2.92574024 7.5151 0
v -2.26092672 7.5151 0
v -4.00574017 7.55628681 0
v -4.58287477 7.5615325 0
v -4.58287477 7.59009981 0
v -4.00574017 7.55628681 0
v -4.58287477 7.59009981 0
v -4.00574017 7.59009981 0
v -4.58287477 7.5615325 0
v -4.00574017 7.55628681 0
v -4.00574017 7.5151 0
v -4.58287477 7.5615325 0
v -4.00574017 7.5151 0
v -4.58287477 7.5151 0
v -4.58287477 7.48627043 0
v -4.00574017 7.48097706 0
v -4.00574017 7.44010019 0
v -4.58287477 7.48627043 0
v -4.00574017 7.44010019 0
v -4.58287477 7.44010019 0
v -4.00574017 7.48097706 0
v -4.58287477 7.48627043 0
v -4.58287477 7.5151 0
v -4.00574017 7.48097706 0
v -4.58287477 7.5151 0
v -4.00574017 7.5151 0
v -1.1809268 7.53061247 0
v -2.26092672 7.54042816 0
v -2.26092672 7.59009981 0
v -1.1809268 7.53061247 0
v -2.26092672 7.59009981 0
v -1.1809268 7.59009981 0
v -2.26092672 7.54042816 0
v -1.1809268 7.53061247 0
v -1.1809268 7.5151 0
v -2.26092672 7.54042816 0
v -1.1809268 7.5151 0
v -2.26092672 7.5151 0
v -2.26092672 7.46497297 0
v -1.1809268 7.45506668 0
v -1.1809268 7.44010019 0
v -2.26092672 7.46497297 0
v -1.1809268 7.44010019 0
v -2.26092672 7.44010019 0
v -1.1809268 7.45506668 0
v -2.26092672 7.46497297 0
v -2.26092672 7.5151 0
v -1.1809268 7.45506668 0
v -2.26092672 7.5151 0
v -1.1809268 7.5151 0
v -2.92574024 7.54647064 0
v -4.00574017 7.55628681 0
v -4.00574017 7.59009981 0
v -2.92574024 7.54647064 0
v -4.00574017 7.59009981 0
v -2.92574024 7.59009981 0
v -4.00574017 7.55628681 0
v -2.92574024 7.54647064 0
v -2.92574024 7.5151 0
v -4.00574017 7.55628681 0
v -2.92574024 7.5151 0
v -4.00574017 7.5151 0
v -4.00574017 7.48097706 0
v -2.92574024 7.47107077 0
v -2.92574024 7.44010019 0
v -4.00574017 7.48097706 0
v -2.92574024 7.44010019 0
v -4.00574017 7.44010019 0
v -2.92574024 7.47107077 0
v -4.00574017 7.48097706 0
v -4.00574017 7.5151 0
v -2.92574024 7.47107077 0
v -4.00574017 7.5151 0
v -2.92574024 7.5151 0
v -4.58287477 7.5615325 0
v -5.6628747 7.57134867 0
v -5.6628747 7.59009981 0
v -4.58287477 7.5615325 0
v -5.6628747 7.59009981 0
v -4.58287477 7.59009981 0
v -5.6628747 7.57134867 0
v -4.58287477 7.5615325 0
v -4.58287477 7.5151 0
v -5.6628747 7.57134867 0
v -4.58287477 7.5151 0
v -5.6628747 7.5151 0
v -5.6628747 7.49617672 0
v -4.58287477 7.48627043 0
v -4.58287477 7.44010019 0
v -5.6628747 7.49617672 0
v -4.58287477 7.44010019 0
v -5.6628747 7.44010019 0
v -4.58287477 7.48627043 0
v -5.6628747 7.49617672 0
v -5.6628747 7.5151 0
v -4.58287477 7.48627043 0
v -5.6628747 7.5151 0
v -4.58287477 7.5151 0
v -0.192051172 -0.0331516564 0
v 0.450788021 -0.0456518903 0
v -0.192051172 -0.0456518903 0
v -0.192051172 -0.0331516564 0
v -0.192051172 0.0293481108 0
v 0.52578783 0.0293481108 0
v -0.192051172 -0.0331516564 0
v 0.52578783 0.0293481108 0
v 0.450788021 -0.0456518903 0
v -0.192051172 0.0433067456 0
v -0.192051172 0.104348116 0
v 0.450788021 0.104348116 0
v -0.192051172 0.0433067456 0
v 0.450788021 0.104348116 0
v 0.52578783 0.0293481108 0
v -0.192051172 0.0433067493 0
v 0.52578783 0.0293481108 0
v -0.192051172 0.0293481108 0
v -1.60454082 -0.0056852866 0
v -1.2720511 -0.0121506695 0
v -1.2720511 -0.0456518903 0
v -1.60454082 -0.0056852866 0
v -1.2720511 -0.0456518903 0
v -1.60454082 -0.0456518903 0
v -1.2720511 -0.0121506695 0
v -1.60454082 -0.0056852866 0
v -1.60454082 0.0293481108 0
v -1.2720511 -0.0121506695 0
v -1.60454082 0.0293481108 0
v -1.2720511 0.0293481108 0
v -1.2720511 0.0643077344 0
v -1.60454082 0.0707731172 0
v -1.60454082 0.104348116 0
v -1.2720511 0.0643077344 0
v -1.60454082 0.104348116 0
v -1.2720511 0.104348116 0
v -1.60454082 0.0707731172 0
v -1.2720511 0.0643077344 0
v -1.2720511 0.0293481108 0
v -1.60454082 0.0707731172 0
v -1.2720511 0.0293481108 0
v -1.60454082 0.0293481108 0
v -2.68454075 0.0153156985 0
v -2.68454075 -0.0456518903 0
v -3.40617371 -0.0456518903 0
v -2.68454075 0.0153156985 0
v -3.40617371 -0.0456518903 0
v -3.40617371 0.0293481108 0
v -2.68454075 0.0153156994 0
v -3.40617371 0.0293481108 0
v -2.68454075 0.0293481108 0
v -2.68454075 0.091774106 0
v -3.33117366 0.104348116 0
v -2.68454075 0.104348116 0
v -2.68454075 0.091774106 0
v -2.68454075 0.0293481108 0
v -3.40617371 0.0293481108 0
v -2.68454075 0.091774106 0
v -3.40617371 0.0293481108 0
v -3.33117366 0.104348116 0
v -1.2720511 -0.0121506695 0
v -0.192051172 -0.0331516564 0
v -0.192051172 -0.0456518903 0
v -1.2720511 -0.0121506695 0
v -0.192051172 -0.0456518903 0
v -1.2720511 -0.0456518903 0
v -0.192051172 -0.0331516564 0
v -1.2720511 -0.0121506695 0
v -1.2720511 0.0293481108 0
v -0.192051172 -0.0331516564 0
v -1.2720511 0.0293481108 0
v -0.192051172 0.0293481108 0
v -0.192051172 0.0433067456 0
v -1.2720511 0.0643077344 0
v -1.2720511 0.104348116 0
v -0.192051172 0.0433067456 0
v -1.2720511 0.104348116 0
v -0.192051172 0.104348116 0
v -1.2720511 0.0643077344 0
v -0.192051172 0.0433067493 0
v -0.192051172 0.0293481108 0
v -1.2720511 0.0643077344 0
v -0.192051172 0.0293481108 0
v -1.2720511 0.0293481108 0
v -2.68454075 0.0153156985 0
v -1.60454082 -0.0056852866 0
v -1.60454082 -0.0456518903 0
v -2.68454075 0.0153156985 0
v -1.60454082 -0.0456518903 0
v -2.68454075 -0.0456518903 0
v -1.60454082 -0.0056852866 0
v -2.68454075 0.0153156994 0
v -2.68454075 0.0293481108 0
v -1.60454082 -0.0056852866 0
v -2.68454075 0.0293481108 0
v -1.60454082 0.0293481108 0
v -1.60454082 0.0707731172 0
v -2.68454075 0.091774106 0
v -2.68454075 0.104348116 0
v -1.60454082 0.0707731172 0
v -2.68454075 0.104348116 0
v -1.60454082 0.104348116 0
v -2.68454075 0.091774106 0
v -1.60454082 0.0707731172 0
v -1.60454082 0.0293481108 0
v -2.68454075 0.091774106 0
v -1.60454082 0.0293481108 0
v -2.68454075 0.0293481108 0
v 0.600787878 7.44010019 0
v 0.600787878 3.09235215 0
v 0.52578789 3.0173521 0
v 0.52578789 7.5151 0
v 0.450787902 3.0173521 0
v 0.450787902 7.44010019 0
v 1.95020437 7.5745573 0
v 0.52578783 7.59009981 0
v 1.95020437 7.59009981 0
v 1.95020437 7.5745573 0
v 1.95020437 7.5151 0
v 0.52578783 7.5151 0
v 1.95020437 7.5745573 0
v 0.52578783 7.5151 0
v 0.52578783 7.59009981 0
v 1.95020437 7.49938631 0
v 1.95020437 7.44010019 0
v 0.60078764 7.44010019 0
v 1.95020437 7.49938631 0
v 0.60078764 7.44010019 0
v 0.52578783 7.5151 0
v 1.95020437 7.49938583 0
v 0.52578783 7.5151 0
v 1.95020437 7.5151 0
v 6.19305277 7.52826166 0
v 6.19305277 7.59009981 0
v 7.47427607 7.59009981 0
v 6.19305277 7.52826166 0
v 7.47427607 7.59009981 0
v 7.39927626 7.5151 0
v 6.19305277 7.52826166 0
v 7.39927626 7.5151 0
v 6.19305277 7.5151 0
v 6.19305277 7.4525795 0
v 7.32427645 7.44010019 0
v 6.19305277 7.44010019 0
v 6.19305277 7.4525795 0
v 6.19305277 7.5151 0
v 7.39927626 7.5151 0
v 6.19305277 7.4525795 0
v 7.39927626 7.5151 0
v 7.32427645 7.44010019 0
v 5.11305285 7.54004622 0
v 3.0302043 7.56277275 0
v 3.0302043 7.59009981 0
v 5.11305285 7.54004622 0
v 3.0302043 7.59009981 0
v 5.11305285 7.59009981 0
v 3.0302043 7.56277275 0
v 5.11305285 7.54004622 0
v 5.11305285 7.5151 0
v 3.0302043 7.56277275 0
v 5.11305285 7.5151 0
v 3.0302043 7.5151 0
v 3.0302043 7.48747158 0
v 5.11305285 7.46449423 0
v 5.11305285 7.44010019 0
v 3.0302043 7.48747158 0
v 5.11305285 7.44010019 0
v 3.0302043 7.44010019 0
v 5.11305285 7.46449423 0
v 3.0302043 7.48747158 0
v 3.0302043 7.5151 0
v 5.11305285 7.46449423 0
v 3.0302043 7.5151 0
v 5.11305285 7.5151 0
v 6.19305277 7.52826166 0
v 5.11305285 7.54004622 0
v 5.11305285 7.59009981 0
v 6.19305277 7.52826166 0
v 5.11305285 7.59009981 0
v 6.19305277 7.59009981 0
v 5.11305285 7.54004622 0
v 6.19305277 7.52826166 0
v 6.19305277 7.5151 0
v 5.11305285 7.54004622 0
v 6.19305277 7.5151 0
v 5.11305285 7.5151 0
v 5.11305285 7.46449423 0
v 6.19305277 7.4525795 0
v 6.19305277 7.44010019 0
v 5.11305285 7.46449423 0
v 6.19305277 7.44010019 0
v 5.11305285 7.44010019 0
v 6.19305277 7.4525795 0
v 5.11305285 7.46449423 0
v 5.11305285 7.5151 0
v 6.19305277 7.4525795 0
v 5.11305285 7.5151 0
v 6.19305277 7.5151 0
v 3.0302043 7.56277275 0
v 1.95020437 7.5745573 0
v 1.95020437 7.59009981 0
v 3.0302043 7.56277275 0
v 1.95020437 7.59009981 0
v 3.0302043 7.59009981 0
v 1.95020437 7.5745573 0
v 3.0302043 7.56277275 0
v 3.0302043 7.5151 0
v 1.95020437 7.5745573 0
v 3.0302043 7.5151 0
v 1.95020437 7.5151 0
v 1.95020437 7.49938631 0
v 3.0302043 7.48747158 0
v 3.0302043 7.44010019 0
v 1.95020437 7.49938631 0
v 3.0302043 7.44010019 0
v 1.95020437 7.44010019 0
v 3.0302043 7.48747158 0
v 1.95020437 7.49938583 0
v 1.95020437 7.5151 0
v 3.0302043 7.48747158 0
v 1.95020437 7.5151 0
v 3.0302043 7.5151 0
v 0.600787878 2.94235206 0
v 0.600787878 0.0293481108 0
v 0.52578789 0.0293481108 0
v 0.52578789 3.0173521 0
v 0.450787902 0.104348116 0
v 0.450787902 3.0173521 0
v 5.71465778 -1.77682686 0
v 5.70799017 -2.2446413 0
v 5.70799017 -1.77682686 0
v 5.71465778 -1.77682686 0
v 5.78298998 -1.77682686 0
v 5.78298998 -2.31964111 0
v 5.71465778 -1.77682686 0
v 5.78298998 -2.31964111 0
v 5.70799017 -2.2446413 0
v 5.79072666 -1.77682686 0
v 5.85798979 -1.77682686 0
v 5.85798979 -2.3946414 0
v 5.79072666 -1.77682686 0
v 5.85798979 -2.3946414 0
v 5.78298998 -2.31964111 0
v 5.79072666 -1.77682686 0
v 5.78298998 -2.31964111 0
v 5.78298998 -1.77682686 0
v 5.73423433 -0.403362274 0
v 5.73005152 -0.696826935 0
v 5.70799017 -0.696826935 0
v 5.73423433 -0.403362274 0
v 5.70799017 -0.696826935 0
v 5.70799017 -0.403362274 0
v 5.73005152 -0.696826935 0
v 5.73423433 -0.403362274 0
v 5.78298998 -0.403362274 0
v 5.73005152 -0.696826935 0
v 5.78298998 -0.403362274 0
v 5.78298998 -0.696826935 0
v 5.80611992 -0.696826935 0
v 5.81030273 -0.403362274 0
v 5.85798979 -0.403362274 0
v 5.80611992 -0.696826935 0
v 5.85798979 -0.403362274 0
v 5.85798979 -0.696826935 0
v 5.81030273 -0.403362274 0
v 5.80611992 -0.696826935 0
v 5.78298998 -0.696826935 0
v 5.81030273 -0.403362274 0
v 5.78298998 -0.696826935 0
v 5.78298998 -0.403362274 0
v 5.77038527 2.13301849 0
v 5.70799017 2.13301849 0
v 5.70799017 2.94235206 0
v 5.77038527 2.13301849 0
v 5.70799017 2.94235206 0
v 5.78298998 3.0173521 0
v 5.77038527 2.13301849 0
v 5.78298998 3.0173521 0
v 5.78298998 2.13301849 0
v 5.84645414 2.13301849 0
v 5.85798979 2.94235206 0
v 5.85798979 2.13301849 0
v 5.84645414 2.13301849 0
v 5.78298998 2.13301849 0
v 5.78298998 3.0173521 0
v 5.84645414 2.13301849 0
v 5.78298998 3.0173521 0
v 5.85798979 2.94235206 0
v 5.73005152 -0.696826935 0
v 5.71465778 -1.77682686 0
v 5.70799017 -1.77682686 0
v 5.73005152 -0.696826935 0
v 5.70799017 -1.77682686 0
v 5.70799017 -0.696826935 0
v 5.71465778 -1.77682686 0
v 5.73005152 -0.696826935 0
v 5.78298998 -0.696826935 0
v 5.71465778 -1.77682686 0
v 5.78298998 -0.696826935 0
v 5.78298998 -1.77682686 0
v 5.79072666 -1.77682686 0
v 5.80611992 -0.696826935 0
v 5.85798979 -0.696826935 0
v 5.79072666 -1.77682686 0
v 5.85798979 -0.696826935 0
v 5.85798979 -1.77682686 0
v 5.80611992 -0.696826935 0
v 5.79072666 -1.77682686 0
v 5.78298998 -1.77682686 0
v 5.80611992 -0.696826935 0
v 5.78298998 -1.77682686 0
v 5.78298998 -0.696826935 0
v 5.75499201 1.05301857 0
v 5.74962759 0.67663765 0
v 5.70799017 0.67663765 0
v 5.75499201 1.05301857 0
v 5.70799017 0.67663765 0
v 5.70799017 1.05301869 0
v 5.74962759 0.67663765 0
v 5.75499201 1.05301857 0
v 5.78298998 1.05301857 0
v 5.74962759 0.67663765 0
v 5.78298998 1.05301857 0
v 5.78298998 0.67663765 0
v 5.82569647 0.67663765 0
v 5.83106089 1.05301869 0
v 5.85798979 1.05301857 0
v 5.82569647 0.67663765 0
v 5.85798979 1.05301857 0
v 5.85798979 0.67663765 0
v 5.83106089 1.05301857 0
v 5.82569647 0.67663765 0
v 5.78298998 0.67663765 0
v 5.83106089 1.05301857 0
v 5.78298998 0.67663765 0
v 5.78298998 1.05301857 0
v 5.77038527 2.13301849 0
v 5.75499201 1.05301857 0
v 5.70799017 1.05301869 0
v 5.77038527 2.13301849 0
v 5.70799017 1.05301869 0
v 5.70799017 2.13301849 0
v 5.75499201 1.05301857 0
v 5.77038527 2.13301849 0
v 5.78298998 2.13301849 0
v 5.75499201 1.05301857 0
v 5.78298998 2.13301849 0
v 5.78298998 1.05301857 0
v 5.83106089 1.05301869 0
v 5.84645414 2.13301849 0
v 5.85798979 2.13301849 0
v 5.83106089 1.05301869 0
v 5.85798979 2.13301849 0
v 5.85798979 1.05301857 0
v 5.84645414 2.13301849 0
v 5.83106089 1.05301857 0
v 5.78298998 1.05301857 0
v 5.84645414 2.13301849 0
v 5.78298998 1.05301857 0
v 5.78298998 2.13301849 0
v 5.74962759 0.67663765 0
v 5.73423433 -0.403362274 0
v 5.70799017 -0.403362274 0
v 5.74962759 0.67663765 0
v 5.70799017 -0.403362274 0
v 5.70799017 0.67663765 0
v 5.73423433 -0.403362274 0
v 5.74962759 0.67663765 0
v 5.78298998 0.67663765 0
v 5.73423433 -0.403362274 0
v 5.78298998 0.67663765 0
v 5.78298998 -0.403362274 0
v 5.81030273 -0.403362274 0
v 5.82569647 0.67663765 0
v 5.85798979 0.67663765 0
v 5.81030273 -0.403362274 0
v 5.85798979 0.67663765 0
v 5.85798979 -0.403362274 0
v 5.82569647 0.67663765 0
v 5.81030273 -0.403362274 0
v 5.78298998 -0.403362274 0
v 5.82569647 0.67663765 0
v 5.78298998 -0.403362274 0
v 5.78298998 0.67663765 0
v 7.47427607 2.94235206 0
v 5.85798979 2.94235206 0
v 5.78298998 3.0173521 0
v 7.39927626 3.0173521 0
v 5.78298998 3.09235215 0
v 7.32427645 3.09235215 0
v 7.4462676 5.88241673 0
v 7.47427607 7.59009981 0
v 7.47427607 5.88241673 0
v 7.4462676 5.88241673 0
v 7.39927626 5.88241673 0
v 7.39927626 7.5151 0
v 7.4462676 5.88241673 0
v 7.39927626 7.5151 0
v 7.47427607 7.59009981 0
v 7.37158966 5.88241673 0
v 7.32427645 5.88241673 0
v 7.32427645 7.44010019 0
v 7.37158966 5.88241673 0
v 7.32427645 7.44010019 0
v 7.39927626 7.5151 0
v 7.37158966 5.88241673 0
v 7.39927626 7.5151 0
v 7.39927626 5.88241673 0
v 7.42855406 4.8024168 0
v 7.47427607 4.8024168 0
v 7.47427607 2.94235206 0
v 7.42855406 4.8024168 0
v 7.47427607 2.94235206 0
v 7.39927626 3.0173521 0
v 7.42855406 4.8024168 0
v 7.39927626 3.0173521 0
v 7.39927626 4.8024168 0
v 7.3532753 4.8024168 0
v 7.32427645 3.09235215 0
v 7.32427645 4.8024168 0
v 7.3532753 4.8024168 0
v 7.39927626 4.8024168 0
v 7.39927626 3.0173521 0
v 7.3532753 4.8024168 0
v 7.39927626 3.0173521 0
v 7.32427645 3.09235215 0
v 7.42855406 4.8024168 0
v 7.4462676 5.88241673 0
v 7.47427607 5.88241673 0
v 7.42855406 4.8024168 0
v 7.47427607 5.88241673 0
v 7.47427607 4.8024168 0
v 7.4462676 5.88241673 0
v 7.42855406 4.8024168 0
v 7.39927626 4.8024168 0
v 7.4462676 5.88241673 0
v 7.39927626 4.8024168 0
v 7.39927626 5.88241673 0
v 7.37158966 5.88241673 0
v 7.3532753 4.8024168 0
v 7.32427645 4.8024168 0
v 7.37158966 5.88241673 0
v 7.32427645 4.8024168 0
v 7.32427645 5.88241673 0
v 7.3532753 4.8024168 0
v 7.37158966 5.88241673 0
v 7.39927626 5.88241673 0
v 7.3532753 4.8024168 0
v 7.39927626 5.88241673 0
v 7.39927626 4.8024168 0
v 5.70799017 2.94235206 0
v 0.646025538 2.94235206 0
v 0.646025538 3.0173521 0
v 5.78298998 3.0173521 0
v 0.646025538 3.09235215 0
v 5.78298998 3.09235215 0
v 0.646025538 2.94235206 0
v 0.600787878 2.94235206 0
v 0.52578789 3.0173521 0
v 0.646025538 3.0173521 0
v 0.600787878 3.09235215 0
v 0.646025538 3.09235215 0
v 0.450787902 -2.3946414 0
v 0.450787902 -0.0456518903 0
v 0.52578789 0.0293481108 0
v 0.52578789 -2.31964135 0
v 0.600787878 0.0293481108 0
v 0.600787878 -2.2446413 0
v 1.70632601 -2.26064134 0
v 0.60078764 -2.2446413 0
v 1.70632601 -2.2446413 0
v 1.70632601 -2.26064134 0
v 1.70632601 -2.31964135 0
v 0.52578783 -2.31964135 0
v 1.70632601 -2.26064134 0
v 0.52578783 -2.31964135 0
v 0.60078764 -2.2446413 0
v 1.70632601 -2.33624625 0
v 1.70632601 -2.3946414 0
v 0.450788021 -2.3946414 0
v 1.70632601 -2.33624625 0
v 0.450788021 -2.3946414 0
v 0.52578783 -2.31964135 0
v 1.70632601 -2.33624625 0
v 0.52578783 -2.31964135 0
v 1.70632601 -2.31964135 0
v 2.78632545 -2.27627182 0
v 2.78632569 -2.2446413 0
v 5.70799017 -2.2446413 0
v 2.78632545 -2.27627182 0
v 5.70799017 -2.2446413 0
v 5.78298998 -2.31964135 0
v 2.78632545 -2.27627182 0
v 5.78298998 -2.31964135 0
v 2.78632545 -2.31964135 0
v 2.78632545 -2.35143685 0
v 5.85798979 -2.3946414 0
v 2.78632545 -2.3946414 0
v 2.78632545 -2.35143685 0
v 2.78632545 -2.31964135 0
v 5.78298998 -2.31964135 0
v 2.78632545 -2.35143685 0
v 5.78298998 -2.31964135 0
v 5.85798979 -2.3946414 0
v 2.78632545 -2.27627182 0
v 1.70632601 -2.26064134 0
v 1.70632601 -2.2446413 0
v 2.78632545 -2.27627182 0
v 1.70632601 -2.2446413 0
v 2.78632569 -2.2446413 0
v 1.70632601 -2.26064134 0
v 2.78632545 -2.27627182 0
v 2.78632545 -2.31964135 0
v 1.70632601 -2.26064134 0
v 2.78632545 -2.31964135 0
v 1.70632601 -2.31964135 0
v 1.70632601 -2.33624625 0
v 2.78632545 -2.35143685 0
v 2.78632545 -2.3946414 0
v 1.70632601 -2.33624625 0
v 2.78632545 -2.3946414 0
v 1.70632601 -2.3946414 0
v 2.78632545 -2.35143685 0
v 1.70632601 -2.33624625 0
v 1.70632601 -2.31964135 0
v 2.78632545 -2.35143685 0
v 1.70632601 -2.31964135 0
v 2.78632545 -2.31964135 0
v 0.646025538 3.09235215 0
v 0.600787878 3.09235215 2.79999995
v 0.646025538 3.09235215 2.79999995
v 0.600787878 3.09235215 0
v 0.600787878 2.94235206 0
v 0.646025538 2.94235206 2.79999995
v 0.600787878 2.94235206 2.79999995
v 0.646025538 2.94235206 0
v 0.52578789 3.0173521 0
v 0.600787878 3.09235215 2.79999995
v 0.600787878 3.09235215 0
v 0.52578789 3.0173521 2.79999995
v 0.600787878 2.94235206 0
v 0.52578789 3.0173521 2.79999995
v 0.52578789 3.0173521 0
v 0.600787878 2.94235206 2.79999995
v -10.4302645 1.22150326 0
v -10.5052643 1.22150326 2.79999995
v -10.4302645 1.22150326 2.79999995
v -10.5052643 1.22150326 0
v 0.600787878 0.0293481108 0
v 0.600761056 0.0293481108 0.00100000005
v 0.600787878 0.0293481108 0.000999855925
v 0.600761116 0.0293481108 0.000999855925
v 0.52578789 0.0293481108 0
v 0.52578783 0.0293481108 0.00100000005
v -8.967309 1.14650321 2.79999995
v -8.89230919 1.22150326 0
v -8.89230919 1.22150326 2.79999995
v -8.967309 1.14650321 0
v -10.4302645 0.0293481108 2.79999995
v -10.3552647 0.104348116 0
v -10.3552647 0.104348116 2.79999995
v -10.4302645 0.0293481108 0
v -10.4302645 1.22150326 2.79999995
v -10.3552647 1.29650331 0
v -10.3552647 1.29650331 2.79999995
v -10.4302645 1.22150326 0
v -10.3552647 2.42153382 2.79999995
v -10.4302645 2.49653387 0
v -10.4302645 2.49653387 2.79999995
v -10.3552647 2.42153382 0
v -10.3552647 1.14650321 2.79999995
v -10.4302645 1.22150326 0
v -10.4302645 1.22150326 2.79999995
v -10.3552647 1.14650321 0
v -10.3552647 0.104348116 2.79999995
v -10.3552647 1.14650321 0
v -10.3552647 1.14650321 2.79999995
v -10.3552647 0.104348116 0
v -10.3552647 1.29650331 2.79999995
v -10.3552647 2.42153382 0
v -10.3552647 2.42153382 2.79999995
v -10.3552647 1.29650331 0
f 1 2 3
f 2 1 4
f 5 6 7
f 6 5 8
f 9 10 11
f 10 9 12
f 13 14 15
f 14 13 16
f 17 18 19
f 18 17 20
f 21 22 23
f 24 25 26
f 26 27 24
f 28 29 30
f 29 28 31
f 32 33 34
f 33 32 35
f 36 37 38
f 39 40 37
f 37 41 39
f 42 43 44
f 43 42 45
f 46 47 48
f 47 46 49
f 50 51 52
f 52 53 50
f 53 52 54
f 54 55 53
f 56 57 58
f 58 59 56
f 59 58 60
f 60 61 59
f 62 63 64
f 64 65 62
f 65 64 66
f 66 67 65
f 68 69 70
f 70 71 68
f 71 70 72
f 72 73 71
f 74 75 76
f 76 77 74
f 77 76 78
f 78 79 77
f 80 81 82
f 82 83 80
f 83 82 84
f 84 85 83
f 86 87 88
f 88 89 86
f 89 88 90
f 90 91 89
f 92 93 94
f 94 95 92
f 95 94 96
f 96 97 95
f 98 99 100
f 100 101 98
f 101 100 102
f 102 103 101
f 104 105 106
f 106 107 104
f 107 106 108
f 108 109 107
f 110 111 112
f 112 113 110
f 113 112 114
f 114 115 113
f 116 117 118
f 118 119 116
f 119 118 120
f 120 121 119
f 122 123 124
f 124 125 122
f 125 124 126
f 126 127 125
f 128 129 130
f 130 131 128
f 131 130 132
f 132 133 131
f 134 135 136
f 136 137 134
f 137 136 138
f 138 139 137
f 140 141 142
f 142 143 140
f 143 142 144
f 144 145 143
f 146 147 148
f 148 149 146
f 149 148 150
f 150 151 149
f 152 153 154
f 155 156 157
f 158 159 160
f 161 162 163
f 164 165 166
f 167 168 169
f 170 171 172
f 173 174 175
f 176 177 178
f 179 180 181
f 182 183 184
f 185 186 187
f 188 189 190
f 191 192 193
f 194 195 196
f 197 198 199
f 200 201 202
f 203 204 205
f 206 207 208
f 209 210 211
f 212 213 214
f 215 216 217
f 218 219 220
f 221 222 223
f 224 225 226
f 227 228 229
f 230 231 232
f 233 234 235
f 236 237 238
f 239 240 241
f 242 243 244
f 245 246 247
f 248 249 250
f 251 252 253
f 254 255 256
f 257 258 259
f 260 261 262
f 263 264 265
f 266 267 268
f 269 270 271
f 272 273 274
f 275 276 277
f 278 279 280
f 281 282 283
f 284 285 286
f 287 288 289
f 290 291 292
f 293 294 295
f 296 297 298
f 299 300 301
f 302 303 304
f 305 306 307
f 308 309 310
f 311 312 313
f 314 315 316
f 317 318 319
f 320 321 322
f 323 324 325
f 326 327 328
f 329 330 331
f 332 333 334
f 335 336 337
f 338 339 340
f 341 342 343
f 344 345 346
f 347 348 349
f 350 351 352
f 353 354 355
f 356 357 358
f 359 360 361
f 362 363 364
f 365 366 367
f 368 369 370
f 371 372 373
f 374 375 376
f 377 378 379
f 380 381 382
f 383 384 385
f 386 387 388
f 389 390 391
f 392 393 394
f 395 396 397
f 398 399 400
f 401 402 403
f 404 405 406
f 407 408 409
f 410 411 412
f 413 414 415
f 416 417 418
f 419 420 421
f 422 423 424
f 425 426 427
f 428 429 430
f 431 432 433
f 434 435 436
f 437 438 439
f 440 441 442
f 443 444 445
f 446 447 448
f 449 450 451
f 452 453 454
f 455 456 457
f 458 459 460
f 461 462 463
f 464 465 466
f 467 468 469
f 470 471 472
f 473 474 475
f 476 477 478
f 478 479 476
f 479 478 480
f 480 481 479
f 482 483 484
f 485 486 487
f 488 489 490
f 491 492 493
f 494 495 496
f 497 498 499
f 500 501 502
f 503 504 505
f 506 507 508
f 509 510 511
f 512 513 514
f 515 516 517
f 518 519 520
f 521 522 523
f 524 525 526
f 527 528 529
f 530 531 532
f 533 534 535
f 536 537 538
f 539 540 541
f 542 543 544
f 545 546 547
f 548 549 550
f 551 552 553
f 554 555 556
f 557 558 559
f 560 561 562
f 563 564 565
f 566 567 568
f 569 570 571
f 572 573 574
f 575 576 577
f 578 579 580
f 581 582 583
f 584 585 586
f 587 588 589
f 590 591 592
f 592 593 590
f 593 592 594
f 594 595 593
f 596 597 598
f 599 600 601
f 602 603 604
f 605 606 607
f 608 609 610
f 611 612 613
f 614 615 616
f 617 618 619
f 620 621 622
f 623 624 625
f 626 627 628
f 629 630 631
f 632 633 634
f 635 636 637
f 638 639 640
f 641 642 643
f 644 645 646
f 647 648 649
f 650 651 652
f 653 654 655
f 656 657 658
f 659 660 661
f 662 663 664
f 665 666 667
f 668 669 670
f 671 672 673
f 674 675 676
f 677 678 679
f 680 681 682
f 683 684 685
f 686 687 688
f 689 690 691
f 692 693 694
f 695 696 697
f 698 699 700
f 701 702 703
f 704 705 706
f 707 708 709
f 710 711 712
f 713 714 715
f 716 717 718
f 719 720 721
f 722 723 724
f 725 726 727
f 728 729 730
f 731 732 733
f 734 735 736
f 737 738 739
f 740 741 742
f 743 744 745
f 746 747 748
f 749 750 751
f 752 753 754
f 754 755 752
f 755 754 756
f 756 757 755
f 758 759 760
f 761 762 763
f 764 765 766
f 767 768 769
f 770 771 772
f 773 774 775
f 776 777 778
f 779 780 781
f 782 783 784
f 785 786 787
f 788 789 790
f 791 792 793
f 794 795 796
f 797 798 799
f 800 801 802
f 803 804 805
f 806 807 808
f 809 810 811
f 812 813 814
f 815 816 817
f 818 819 820
f 820 821 818
f 821 820 822
f 822 823 821
f 824 825 826
f 826 827 824
f 827 826 828
f 828 829 827
f 830 831 832
f 832 833 830
f 833 832 834
f 834 835 833
f 836 837 838
f 839 840 841
f 842 843 844
f 845 846 847
f 848 849 850
f 851 852 853
f 854 855 856
f 857 858 859
f 860 861 862
f 863 864 865
f 866 867 868
f 869 870 871
f 872 873 874
f 875 876 877
f 878 879 880
f 881 882 883
f 884 885 886
f 887 888 889
f 890 891 892
f 893 894 895
f 896 897 898
f 897 896 899
f 900 901 902
f 901 900 903
f 904 905 906
f 905 904 907
f 908 909 910
f 909 908 911
f 912 913 914
f 913 912 915
f 916 917 918
f 919 916 920
f 920 921 919
f 922 923 924
f 923 922 925
f 926 927 928
f 927 926 929
f 930 931 932
f 931 930 933
f 934 935 936
f 935 934 937
f 938 939 940
f 939 938 941
f 942 943 944
f 943 942 945
f 946 947 948
f 947 946 949
