v 5.85798979 2.94235206 2.79999995
v 5.78301668 3.0173254 0.000999855925
v 5.78298998 3.0173521 0.00100000005
v 5.78298998 3.0173521 2.79999995
v 5.78301716 3.0173254 0.00100000005
v 5.85798979 2.94235206 2.79999995
v 5.85798979 2.94235206 0.000999855925
v 5.85796261 -2.3946147 0.00100000005
v 5.78298998 -2.31964111 2.79999995
v 5.78298998 -2.31964111 0.000999855925
v 5.78298998 -2.31964111 2.79999995
v 5.85796309 -2.39461446 0.000999855925
v 5.85798979 -2.3946414 0.00100000005
v 5.85798979 -2.3946414 2.79999995
v 5.85798979 -0.696826935 1.85384691
v 5.78298998 -0.696826935 2.20000005
v 5.78298998 -0.696826935 0.699999988
v 5.85798979 -0.696826935 1.85384691
v 5.78298998 -0.696826935 0.699999988
v 5.85798979 -0.696826935 0.699999988
v 5.85798979 -0.696826935 1.85384679
v 5.85798979 -0.696826935 2.20000005
v 5.78298998 -0.696826935 2.20000005
v 5.85798979 1.05301857 1.04615331
v 5.85798979 1.05301857 0.699999988
v 5.78298998 1.05301857 0.699999988
v 5.85798979 1.05301857 1.04615319
v 5.78298998 1.05301857 0.699999988
v 5.78298998 1.05301857 2.20000005
v 5.85798979 1.05301857 1.04615319
v 5.78298998 1.05301857 2.20000005
v 5.85798979 1.05301857 2.20000005
v 5.85798979 -1.77682686 2.79999995
v 5.85798979 -2.3946414 2.79999995
v 5.85798979 -1.77682686 2.47587013
v 5.85798979 -1.77682686 0.00100000005
v 5.85798979 -1.77682686 2.47586966
v 5.85798979 -2.3946414 2.79999995
v 5.85798979 -1.77704751 0.000999855925
v 5.85798979 -1.77704751 0.00100000005
v 5.85798979 -2.3946414 2.79999995
v 5.85798979 -2.3946414 0.000999855925
v 5.85798979 -0.696826935 2.20000005
v 5.85798979 -0.696826935 2.79999995
v 5.85798979 -1.77682686 2.79999995
v 5.85798979 -0.696826935 2.20000005
v 5.85798979 -1.77682686 2.79999995
v 5.85798979 -1.77682686 2.47587013
v 5.85798979 -0.696826935 2.20000005
v 5.85798979 -1.77682686 2.47587013
v 5.85798979 -1.25099945 2.20000005
v 5.85798979 -1.77682686 2.20000005
v 5.85798979 -1.2510004 2.20000005
v 5.85798979 -1.77682686 2.47586966
v 5.85798979 -0.403362274 2.79999995
v 5.85798979 -0.696826935 2.79999995
v 5.85798979 -0.696826935 1.90925884
v 5.85798979 -0.403362274 2.79999995
v 5.85798979 -0.696826935 1.90925884
v 5.85798979 -0.403362274 1.75529552
v 5.85798979 -0.403362274 0.00100000005
v 5.85798979 -0.403362274 1.75529528
v 5.85798979 -0.696659744 0.00100009842
v 5.85798979 -0.696659744 0.00100000005
v 5.85798979 -0.403362274 1.75529528
v 5.85798979 -0.696826935 1.9092586
v 5.85798979 -0.696826935 0.00100008037
v 5.85798979 2.13301849 2.79999995
v 5.85798979 2.13301849 0.424608767
v 5.85798979 2.9404459 0.000999995624
v 5.85798979 2.94206285 0.00100000005
v 5.85798979 2.13301849 2.79999995
v 5.85798979 2.94206309 0.000999855925
v 5.85798979 2.94235206 0.00100000005
v 5.85798979 2.94235206 2.79999995
v 5.85798979 2.9404459 0.00100000005
v 5.85798979 2.13301849 0.424608707
v 5.85798979 2.13301849 0.000999995391
v 5.85798979 -1.77682686 0.699999988
v 5.85798979 -1.77682686 0.000999981188
v 5.85798979 -0.698369801 0.00100000005
v 5.85798979 -1.77682686 0.699999988
v 5.85798979 -0.698369741 0.000999981188
v 5.85798979 -0.696826935 0.00100000005
v 5.85798979 -0.696826935 0.00100000005
v 5.85798979 -0.696826935 0.700000048
v 5.85798979 -1.77682686 0.699999988
v 5.85798979 1.05301857 2.79999995
v 5.85798979 0.67663765 2.79999995
v 5.85798979 0.67663765 1.18868446
v 5.85798979 1.05301857 2.79999995
v 5.85798979 0.67663765 1.18868446
v 5.85798979 1.05301869 0.991219878
v 5.85798979 1.05301869 0.00100000005
v 5.85798979 1.05301857 0.991219819
v 5.85798979 0.677017331 0.00100001018
v 5.85798979 0.677017331 0.00100000005
v 5.85798979 1.05301857 0.991219819
v 5.85798979 0.67663765 1.18868423
v 5.85798979 0.67663765 0.00100006326
v 5.85798979 2.13301849 2.20000005
v 5.85798979 2.13301849 2.79999995
v 5.85798979 1.05301857 2.79999995
v 5.85798979 2.13301849 2.20000005
v 5.85798979 1.05301857 2.79999995
v 5.85798979 1.05301857 2.20000005
v 5.85798979 0.67663765 2.20000005
v 5.85798979 0.67663765 2.79999995
v 5.85798979 -0.403362274 2.79999995
v 5.85798979 0.67663765 2.20000005
v 5.85798979 -0.403362274 2.79999995
v 5.85798979 -0.403362274 2.20000005
v 5.85798979 2.13301849 0.700000048
v 5.85798979 1.60810387 0.699999988
v 5.85798979 2.13301849 0.424608767
v 5.85798979 1.05301857 0.699999988
v 5.85798979 1.05301869 0.000999981188
v 5.85798979 2.13147569 0.00100000005
v 5.85798979 1.05301857 0.699999988
v 5.85798979 2.13147545 0.000999981188
v 5.85798979 2.13301849 0.00100000005
v 5.85798979 2.13301849 0.00100000005
v 5.85798979 2.13301849 0.424608707
v 5.85798979 1.05301857 0.699999988
v 5.85798979 1.05301857 0.699999988
v 5.85798979 2.13301849 0.424608707
v 5.85798979 1.60810375 0.699999988
v 5.85798979 -0.403362274 0.699999988
v 5.85798979 -0.403362274 0.000999981188
v 5.85798979 0.675094783 0.00100000005
v 5.85798979 -0.403362274 0.699999988
v 5.85798979 0.675094843 0.000999981188
v 5.85798979 0.67663765 0.00100000005
v 5.85798979 0.67663765 0.00100000005
v 5.85798979 0.67663765 0.699999988
v 5.85798979 -0.403362274 0.699999988
v 5.85798979 0.67663765 1.85384691
v 5.78298998 0.67663765 2.20000005
v 5.78298998 0.67663765 0.699999988
v 5.85798979 0.67663765 1.85384691
v 5.78298998 0.67663765 0.699999988
v 5.85798979 0.67663765 0.699999988
v 5.85798979 0.67663765 1.85384679
v 5.85798979 0.67663765 2.20000005
v 5.78298998 0.67663765 2.20000005
v 5.85798979 -0.403362274 1.04615331
v 5.85798979 -0.403362274 0.699999988
v 5.78298998 -0.403362274 0.699999988
v 5.85798979 -0.403362274 1.04615319
v 5.78298998 -0.403362274 0.699999988
v 5.78298998 -0.403362274 2.20000005
v 5.85798979 -0.403362274 1.04615319
v 5.78298998 -0.403362274 2.20000005
v 5.85798979 -0.403362274 2.20000005
v 5.85798979 -1.52759647 0.699999988
v 5.85798979 -0.696826935 0.699999988
v 5.78298998 -0.696826935 0.699999988
v 5.85798979 -1.52759647 0.699999988
v 5.78298998 -0.696826935 0.699999988
v 5.78298998 -1.77682686 0.699999988
v 5.85798979 -1.52759647 0.699999988
v 5.78298998 -1.77682686 0.699999988
v 5.85798979 -1.77682686 0.699999988
v 5.85798979 1.30224884 0.699999988
v 5.85798979 2.13301849 0.699999988
v 5.78298998 2.13301849 0.699999988
v 5.85798979 1.30224884 0.699999988
v 5.78298998 2.13301849 0.699999988
v 5.78298998 1.05301857 0.699999988
v 5.85798979 1.30224884 0.699999988
v 5.78298998 1.05301857 0.699999988
v 5.85798979 1.05301857 0.699999988
v 5.85798979 -0.154131889 0.699999988
v 5.85798979 0.67663765 0.699999988
v 5.78298998 0.67663765 0.699999988
v 5.85798979 -0.154131889 0.699999988
v 5.78298998 0.67663765 0.699999988
v 5.78298998 -0.403362274 0.699999988
v 5.85798979 -0.154131889 0.699999988
v 5.78298998 -0.403362274 0.699999988
v 5.85798979 -0.403362274 0.699999988
v 5.85798979 -0.94605732 2.20000005
v 5.85798979 -1.77682686 2.20000005
v 5.78298998 -1.77682686 2.20000005
v 5.85798979 -0.94605732 2.20000005
v 5.78298998 -1.77682686 2.20000005
v 5.78298998 -0.696826935 2.20000005
v 5.85798979 -0.94605732 2.20000005
v 5.78298998 -0.696826935 2.20000005
v 5.85798979 -0.696826935 2.20000005
v 5.85798979 1.88378823 2.20000005
v 5.85798979 1.05301857 2.20000005
v 5.78298998 1.05301857 2.20000005
v 5.85798979 1.88378823 2.20000005
v 5.78298998 1.05301857 2.20000005
v 5.78298998 2.13301849 2.20000005
v 5.85798979 1.88378823 2.20000005
v 5.78298998 2.13301849 2.20000005
v 5.85798979 2.13301849 2.20000005
v 5.85798979 0.427407265 2.20000005
v 5.85798979 -0.403362274 2.20000005
v 5.78298998 -0.403362274 2.20000005
v 5.85798979 0.427407265 2.20000005
v 5.78298998 -0.403362274 2.20000005
v 5.78298998 0.67663765 2.20000005
v 5.85798979 0.427407265 2.20000005
v 5.78298998 0.67663765 2.20000005
v 5.85798979 0.67663765 2.20000005
v 5.85798979 2.13301849 1.85384691
v 5.78298998 2.13301849 2.20000005
v 5.78298998 2.13301849 0.699999988
v 5.85798979 2.13301849 1.85384691
v 5.78298998 2.13301849 0.699999988
v 5.85798979 2.13301849 0.699999988
v 5.85798979 2.13301849 1.85384679
v 5.85798979 2.13301849 2.20000005
v 5.78298998 2.13301849 2.20000005
v 5.85798979 -1.77682686 1.04615331
v 5.85798979 -1.77682686 0.699999988
v 5.78298998 -1.77682686 0.699999988
v 5.85798979 -1.77682686 1.04615319
v 5.78298998 -1.77682686 0.699999988
v 5.78298998 -1.77682686 2.20000005
v 5.85798979 -1.77682686 1.04615319
v 5.78298998 -1.77682686 2.20000005
v 5.85798979 -1.77682686 2.20000005
vt 15.1845173 1.11999998
vt 15.2377975 0.000399947166
vt 15.2378167 0.00039999485
vt 15.2378167 1.11999998
vt 15.2377975 0.00039999485
vt 15.1845173 1.11999998
vt 15.1845173 0.000399947166
vt 12.5025901 0.00039999485
vt 12.4493099 1.11999998
vt 12.4493099 0.000399947166
vt 12.4493099 1.11999998
vt 12.5025901 0.000399947166
vt 12.5026093 0.00039999485
vt 12.5026093 1.11999998
vt 0.0376884016 0.461538744
vt 0 0.6
vt 0 0
vt 0.0376884016 0.461538744
vt 0 0
vt 0.0376884091 0
vt 0.0376884091 0.461538696
vt 0.0376884016 0.6
vt 0 0.6
vt -0.0376884091 0.138461304
vt -0.0376884016 0
vt 0 0
vt -0.0376884016 0.138461256
vt 0 0
vt 0 0.6
vt -0.0376884016 0.138461256
vt 0 0.6
vt -0.0376884091 0.6
vt 12.8130694 1.11999998
vt 12.5026093 1.11999998
vt 12.8130694 0.990348053
vt 12.8130694 0.00039999485
vt 12.8130694 0.990347862
vt 12.5026093 1.11999998
vt 12.8129582 0.000399947166
vt 12.8129591 0.00039999485
vt 12.5026093 1.11999998
vt 12.5026093 0.000399947166
vt 13.3557834 0.880000019
vt 13.3557834 1.11999998
vt 12.8130694 1.11999998
vt 13.3557834 0.880000019
vt 12.8130694 1.11999998
vt 12.8130694 0.990348053
vt 13.3557834 0.880000019
vt 12.8130694 0.990348053
vt 13.0773045 0.880000019
vt 12.8130694 0.880000019
vt 13.0773045 0.880000114
vt 12.8130694 0.990347862
vt 13.5032532 1.11999998
vt 13.3557834 1.11999998
vt 13.3557834 0.763703537
vt 13.5032532 1.11999998
vt 13.3557834 0.763703537
vt 13.5032532 0.702118206
vt 13.5032532 0.00039999485
vt 13.5032532 0.702118206
vt 13.3558677 0.000400042534
vt 13.3558667 0.00039999485
vt 13.5032532 0.702118206
vt 13.3557834 0.763703489
vt 13.3557834 0.000400042534
vt 14.7778165 1.11999998
vt 14.7778165 0.169843507
vt 15.1835588 0.00039999485
vt 15.1843716 0.00039999485
vt 14.7778165 1.11999998
vt 15.1843725 0.000399947166
vt 15.1845173 0.00039999485
vt 15.1845173 1.11999998
vt 15.1835588 0.00039999485
vt 14.7778165 0.169843507
vt 14.7778165 0.00039999485
vt 12.8130694 0.279999995
vt 12.8130694 0.00039999485
vt 13.3550089 0.00039999485
vt 12.8130694 0.279999995
vt 13.355008 0.00039999485
vt 13.3557834 0.00039999485
vt 13.3557834 0.00039999485
vt 13.3557834 0.280000019
vt 12.8130694 0.279999995
vt 14.2351035 1.11999998
vt 14.0459672 1.11999998
vt 14.0459672 0.475473785
vt 14.2351035 1.11999998
vt 14.0459672 0.475473785
vt 14.2351035 0.396487951
vt 14.2351035 0.00039999485
vt 14.2351035 0.396487951
vt 14.0461579 0.00039999485
vt 14.0461569 0.00039999485
vt 14.2351035 0.396487951
vt 14.0459672 0.475473738
vt 14.0459672 0.000400018692
vt 14.7778165 0.880000019
vt 14.7778165 1.11999998
vt 14.2351035 1.11999998
vt 14.7778165 0.880000019
vt 14.2351035 1.11999998
vt 14.2351035 0.880000019
vt 14.0459672 0.880000019
vt 14.0459672 1.11999998
vt 13.5032532 1.11999998
vt 14.0459672 0.880000019
vt 13.5032532 1.11999998
vt 13.5032532 0.880000019
vt 14.7778165 0.280000019
vt 14.5140405 0.279999995
vt 14.7778165 0.169843507
vt 14.2351035 0.279999995
vt 14.2351035 0.00039999485
vt 14.7770411 0.00039999485
vt 14.2351035 0.279999995
vt 14.7770411 0.00039999485
vt 14.7778165 0.00039999485
vt 14.7778165 0.00039999485
vt 14.7778165 0.169843507
vt 14.2351035 0.279999995
vt 14.2351035 0.279999995
vt 14.7778165 0.169843507
vt 14.5140405 0.280000019
vt 13.5032532 0.280000043
vt 13.5032532 0.00039999485
vt 14.0451918 0.00039999485
vt 13.5032532 0.280000043
vt 14.0451918 0.00039999485
vt 14.0459672 0.00039999485
vt 14.0459672 0.00039999485
vt 14.0459672 0.280000019
vt 13.5032532 0.280000043
vt 0.0376884016 0.461538744
vt 0 0.6
vt 0 0
vt 0.0376884016 0.461538744
vt 0 0
vt 0.0376884091 0
vt 0.0376884091 0.461538696
vt 0.0376884016 0.6
vt 0 0.6
vt -0.0376884091 0.138461304
vt -0.0376884016 0
vt 0 0
vt -0.0376884016 0.138461256
vt 0 0
vt 0 0.6
vt -0.0376884016 0.138461256
vt 0 0.6
vt -0.0376884091 0.6
vt 0.146115552 0.429999924
vt -0.271357031 0.429999924
vt -0.271357031 0.4
vt 0.146115552 0.429999924
vt -0.271357031 0.4
vt 0.271357031 0.4
vt 0.146115567 0.429999924
vt 0.271357031 0.4
vt 0.271357031 0.429999924
vt 0.146115552 0.429999924
vt -0.271357031 0.429999924
vt -0.271357031 0.4
vt 0.146115552 0.429999924
vt -0.271357031 0.4
vt 0.271357031 0.4
vt 0.146115567 0.429999924
vt 0.271357031 0.4
vt 0.271357031 0.429999924
vt 0.146115552 0.429999924
vt -0.271357031 0.429999924
vt -0.271357031 0.4
vt 0.146115552 0.429999924
vt -0.271357031 0.4
vt 0.271357031 0.4
vt 0.146115567 0.429999924
vt 0.271357031 0.4
vt 0.271357031 0.429999924
vt -0.146115552 0.429999924
vt 0.271357031 0.429999924
vt 0.271357031 0.4
vt -0.146115552 0.429999924
vt 0.271357031 0.4
vt -0.271357031 0.4
vt -0.146115567 0.429999924
vt -0.271357031 0.4
vt -0.271357031 0.429999924
vt -0.146115552 0.429999924
vt 0.271357031 0.429999924
vt 0.271357031 0.4
vt -0.146115552 0.429999924
vt 0.271357031 0.4
vt -0.271357031 0.4
vt -0.146115567 0.429999924
vt -0.271357031 0.4
vt -0.271357031 0.429999924
vt -0.146115552 0.429999924
vt 0.271357031 0.429999924
vt 0.271357031 0.4
vt -0.146115552 0.429999924
vt 0.271357031 0.4
vt -0.271357031 0.4
vt -0.146115567 0.429999924
vt -0.271357031 0.4
vt -0.271357031 0.429999924
vt 0.0376884016 0.461538744
vt 0 0.6
vt 0 0
vt 0.0376884016 0.461538744
vt 0 0
vt 0.0376884091 0
vt 0.0376884091 0.461538696
vt 0.0376884016 0.6
vt 0 0.6
vt -0.0376884091 0.138461304
vt -0.0376884016 0
vt 0 0
vt -0.0376884016 0.138461256
vt 0 0
vt 0 0.6
vt -0.0376884016 0.138461256
vt 0 0.6
vt -0.0376884091 0.6
f 1/1 2/2 3/3
f 3/3 4/4 1/1
f 5/5 6/6 7/7
f 8/8 9/9 10/10
f 11/11 12/12 13/13
f 13/13 14/14 11/11
f 15/15 16/16 17/17
f 18/18 19/19 20/20
f 21/21 22/22 23/23
f 24/24 25/25 26/26
f 27/27 28/28 29/29
f 30/30 31/31 32/32
f 33/33 34/34 35/35
f 36/36 37/37 38/38
f 38/38 39/39 36/36
f 40/40 41/41 42/42
f 43/43 44/44 45/45
f 46/46 47/47 48/48
f 49/49 50/50 51/51
f 52/52 53/53 54/54
f 55/55 56/56 57/57
f 58/58 59/59 60/60
f 61/61 62/62 63/63
f 64/64 65/65 66/66
f 66/66 67/67 64/64
f 68/68 69/69 70/70
f 70/70 71/71 68/68
f 72/72 73/73 74/74
f 74/74 75/75 72/72
f 76/76 77/77 78/78
f 79/79 80/80 81/81
f 82/82 83/83 84/84
f 85/85 86/86 87/87
f 88/88 89/89 90/90
f 91/91 92/92 93/93
f 94/94 95/95 96/96
f 97/97 98/98 99/99
f 99/99 100/100 97/97
f 101/101 102/102 103/103
f 104/104 105/105 106/106
f 107/107 108/108 109/109
f 110/110 111/111 112/112
f 113/113 114/114 115/115
f 116/116 117/117 118/118
f 119/119 120/120 121/121
f 122/122 123/123 124/124
f 125/125 126/126 127/127
f 128/128 129/129 130/130
f 131/131 132/132 133/133
f 134/134 135/135 136/136
f 137/137 138/138 139/139
f 140/140 141/141 142/142
f 143/143 144/144 145/145
f 146/146 147/147 148/148
f 149/149 150/150 151/151
f 152/152 153/153 154/154
f 155/155 156/156 157/157
f 158/158 159/159 160/160
f 161/161 162/162 163/163
f 164/164 165/165 166/166
f 167/167 168/168 169/169
f 170/170 171/171 172/172
f 173/173 174/174 175/175
f 176/176 177/177 178/178
f 179/179 180/180 181/181
f 182/182 183/183 184/184
f 185/185 186/186 187/187
f 188/188 189/189 190/190
f 191/191 192/192 193/193
f 194/194 195/195 196/196
f 197/197 198/198 199/199
f 200/200 201/201 202/202
f 203/203 204/204 205/205
f 206/206 207/207 208/208
f 209/209 210/210 211/211
f 212/212 213/213 214/214
f 215/215 216/216 217/217
f 218/218 219/219 220/220
f 221/221 222/222 223/223
f 224/224 225/225 226/226
