v -8.89230919 2.49653387 2.79999995
v -8.89230919 2.57153392 0
v -8.89230919 2.57153392 2.79999995
v -8.89230919 2.49653387 0
v -10.7533045 2.57153392 0.531659424
v -10.7533045 2.57153392 0.0199999958
v -10.7533045 2.42153382 0.0199999958
v -10.7533045 2.42153382 0.531659424
v -10.7533045 2.57153392 2.21999979
v -10.7533045 2.42153382 2.21999979
v -7.80095196 7.44010019 0
v -7.72595215 7.5151 2.79999995
v -7.72595215 7.5151 0
v -7.80095196 7.44010019 2.79999995
v -10.4302645 2.49653387 0
v -10.4302645 2.57153392 2.79999995
v -10.4302645 2.57153392 0
v -10.4302645 2.49653387 2.79999995
v -12.2065639 2.49653387 0
v -12.1315641 2.57153392 2.79999995
v -12.1315641 2.57153392 0
v -12.2065639 2.49653387 2.79999995
v -7.72595215 2.49653387 2.79999995
v -7.80095196 2.57153392 0
v -7.80095196 2.57153392 2.79999995
v -7.72595215 2.49653387 0
v -7.72595215 2.49653387 0
v -7.80095196 2.57153392 2.79999995
v -7.80095196 2.57153392 0
v -7.72595215 2.49653387 2.79999995
v -10.4302645 2.49653387 2.79999995
v -10.4302645 2.57153392 0
v -10.4302645 2.57153392 2.79999995
v -10.4302645 2.49653387 0
v -12.1315641 7.44010019 0
v -12.1315908 7.4401269 0.00100000005
v -12.2065639 7.5151 0.000999855925
v -12.2065639 7.5151 0
v -12.1315908 7.4401269 0.000999855925
v -12.1315641 7.44010019 0
v -12.1315641 7.44010019 0.00100000005
v -7.72597885 7.5150733 0.000999855925
v -7.72595215 7.5151 0
v -7.72595215 7.5151 0.00100000005
v -7.72595215 7.5151 0
v -7.72597885 7.5150733 0.00100000005
v -7.80095196 7.44010019 0.000999855925
v -7.80095196 7.44010019 0.000999855925
v -7.80095196 7.44010019 0
v -7.72595215 7.5151 0
v -10.7533045 2.57153392 0.0199999958
v -11.733305 2.57153392 0.0199999958
v -11.733305 2.42153382 0.0199999958
v -10.7533045 2.42153382 0.0199999958
v -8.89230919 2.49653387 0
v -8.89230919 2.57153392 2.79999995
v -8.89230919 2.57153392 0
v -8.89230919 2.49653387 2.79999995
v -11.733304 2.57153392 2.21999979
v -10.7533045 2.57153392 2.21999979
v -10.7533045 2.42153382 2.21999979
v -11.733304 2.42153382 2.21999979
v -7.80095196 2.57153392 0
v -8.89230919 2.57153392 2.79999995
v -7.80095196 2.57153392 2.79999995
v -8.89230919 2.57153392 0
v -10.4302645 2.57153392 2.79999995
v -10.4302645 2.57153392 0
v -10.7533045 2.57153392 0.531659424
v -10.7533045 2.57153392 0.0199999958
v -10.7533045 2.57153392 2.21999979
v -11.733305 2.57153392 0.0199999958
v -11.733304 2.57153392 2.21999979
v -12.1315641 2.57153392 0
v -12.1315641 2.57153392 2.79999995
v -11.733304 2.57153392 2.14454317
v -11.733305 2.57153392 0.0199999958
v -11.733304 2.57153392 2.14454317
v -11.733304 2.42153382 2.14454317
v -11.733305 2.42153382 0.0199999958
v -11.733304 2.42153382 2.21999979
v -11.733304 2.57153392 2.21999979
v -7.80095196 4.85255289 0.0200001225
v -7.80095196 4.85255241 1.31185484
v -7.80095196 7.44010019 2.79999995
v -7.80095196 4.85255241 2.22000074
v -7.80095196 3.87255263 2.22000074
v -7.80095196 7.44010019 0
v -7.80095196 2.57153392 2.79999995
v -7.80095196 2.57153392 0
v -7.80095196 3.87255287 0.0200001225
v -7.80095196 3.87255287 0.748239338
v -9.0258379 7.44010019 0.000999876764
v -9.0258379 7.44010019 0
v -9.02540016 7.44010019 0.00100000005
v -9.02540016 7.44010019 0.000999855925
v -7.80095196 7.44010019 0
v -7.80095196 7.44010019 0.00100000005
v -10.8118372 7.44010019 0.00100000051
v -10.9058371 7.44010019 0
v -10.9058371 7.44010019 0.00100000016
v -10.8118362 7.44010019 0.00100000005
v -10.9058371 7.44010019 0.00100000005
v -12.1300173 7.44010019 0.00100000796
v -12.1315641 7.44010019 0
v -12.1300173 7.44010019 0.00100000005
v -12.1311264 7.44010019 0.000999855925
v -12.1311264 7.44010019 0.00100000005
v -12.1315641 7.44010019 0.000999855925
v -9.0258379 7.44010019 0
v -9.02583694 7.44010019 0.00100000005
v -10.8118372 7.44010019 0.00100000051
f 1 2 3
f 2 1 4
f 5 6 7
f 5 7 8
f 9 5 8
f 9 8 10
f 11 12 13
f 12 11 14
f 15 16 17
f 16 15 18
f 19 20 21
f 20 19 22
f 23 24 25
f 24 23 26
f 27 28 29
f 28 27 30
f 31 32 33
f 32 31 34
f 35 36 37
f 37 38 35
f 39 40 41
f 42 43 44
f 45 46 47
f 48 49 50
f 51 52 53
f 51 53 54
f 55 56 57
f 56 55 58
f 59 60 61
f 59 61 62
f 63 64 65
f 64 63 66
f 66 67 64
f 67 66 68
f 67 68 69
f 70 69 68
f 67 69 71
f 72 70 68
f 67 71 73
f 68 74 72
f 75 67 73
f 74 76 72
f 73 76 75
f 74 75 76
f 77 78 79
f 77 79 80
f 78 81 79
f 78 82 81
f 83 84 85
f 85 84 86
f 85 86 87
f 83 85 88
f 87 89 85
f 83 88 90
f 87 90 89
f 90 91 83
f 87 92 90
f 90 92 91
f 93 94 95
f 96 94 97
f 97 98 96
f 99 100 94
f 101 100 102
f 100 103 104
f 104 105 100
f 105 106 107
f 105 108 109
f 110 111 112
