v -12.2065639 2.49653387 2.79999995
v -12.1315908 2.57150698 0.000999855925
v -12.1315641 2.57153392 0.00100000005
v -12.1315641 2.57153392 2.79999995
v -12.1315908 2.57150722 0.00100000005
v -12.2065639 2.49653387 0.000999855925
v -12.1315641 7.44010019 2.79999995
v -12.2065372 7.5150733 0.000999855925
v -12.2065639 7.5151 0.00100000005
v -12.2065639 7.5151 2.79999995
v -12.2065372 7.5150733 0.00100000005
v -12.1315641 7.44010019 0.000999855925
v -12.1315641 2.57153392 2.79999995
v -12.1315641 7.43836164 0.000999855925
v -12.1315641 7.44010019 0.00100000005
v -12.1315641 7.44010019 2.79999995
v -12.1315641 7.43836117 0.00100000005
v -12.1315641 2.57153392 0.000999855925
vt 1.40818074 1.39999998
vt 1.44352339 0.000499933958
vt 1.44353595 0.000499993563
vt 1.44353595 1.39999998
vt 1.44352324 0.000499993563
vt 1.40818074 0.000499933958
vt 3.06638983 1.39999998
vt 3.10173265 0.000499933958
vt 3.10174505 0.000499993563
vt 3.10174505 1.39999998
vt 3.10173233 0.000499993563
vt 3.06638983 0.000499933958
vt 1.44353595 1.39999998
vt 3.06581032 0.000499933958
vt 3.06638983 0.000499993563
vt 3.06638983 1.39999998
vt 3.06581032 0.000499993563
vt 1.44353595 0.000499933958
f 1/1 2/2 3/3
f 3/3 4/4 1/1
f 5/5 1/1 6/6
f 7/7 8/8 9/9
f 9/9 10/10 7/7
f 11/11 7/7 12/12
f 13/13 14/14 15/15
f 15/15 16/16 13/13
f 17/17 13/13 18/18
