v 5.70801687 2.94237876 0.00100000005
v 5.78298998 3.0173521 2.79999995
v 5.78298998 3.0173521 0.000999855925
v 5.78298998 3.0173521 2.79999995
v 5.70801687 2.94237876 0.000999855925
v 5.70799017 2.94235206 0.00100000005
v 5.70799017 2.94235206 0.00100000005
v 5.70799017 2.94235206 2.79999995
v 5.78298998 3.0173521 2.79999995
v 5.78296328 -2.31961417 0.00100000005
v 5.70799017 -2.2446413 2.79999995
v 5.70799017 -2.2446413 0.000999855925
v 5.70799017 -2.2446413 2.79999995
v 5.78296328 -2.31961441 0.000999855925
v 5.78298998 -2.31964111 0.00100000005
v 5.78298998 -2.31964111 2.79999995
v 5.70799017 1.05301857 1.85384691
v 5.78298998 1.05301857 2.20000005
v 5.78298998 1.05301857 0.699999988
v 5.70799017 1.05301857 1.85384691
v 5.78298998 1.05301857 0.699999988
v 5.70799017 1.05301857 0.699999988
v 5.70799017 1.05301857 1.85384679
v 5.70799017 1.05301857 2.20000005
v 5.78298998 1.05301857 2.20000005
v 5.70799017 -0.696826935 1.04615331
v 5.70799017 -0.696826935 0.699999988
v 5.78298998 -0.696826935 0.699999988
v 5.70799017 -0.696826935 1.04615319
v 5.78298998 -0.696826935 0.699999988
v 5.78298998 -0.696826935 2.20000005
v 5.70799017 -0.696826935 1.04615319
v 5.78298998 -0.696826935 2.20000005
v 5.70799017 -0.696826935 2.20000005
v 5.70799017 -2.24278879 0.00100000005
v 5.70799017 -1.77682686 0.252531528
v 5.70799017 -1.77682686 0.000999983051
v 5.70799017 -1.77682686 2.79999995
v 5.70799017 -1.77682686 0.252531737
v 5.70799017 -2.24278879 0.000999983866
v 5.70799017 -2.24447441 0.00100000005
v 5.70799017 -1.77682686 2.79999995
v 5.70799017 -2.24447417 0.000999855925
v 5.70799017 -2.2446413 0.00100000005
v 5.70799017 -2.2446413 2.79999995
v 5.70799017 -1.77682686 2.20000005
v 5.70799017 -1.77682686 2.79999995
v 5.70799017 -0.696826935 2.79999995
v 5.70799017 -1.77682686 2.20000005
v 5.70799017 -0.696826935 2.79999995
v 5.70799017 -0.696826935 2.20000005
v 5.70799017 -0.696826935 0.00100000005
v 5.70799017 -0.696826935 0.835528374
v 5.70799017 -0.403713524 0.00100001157
v 5.70799017 -0.403713495 0.00100000005
v 5.70799017 -0.696826935 0.835528374
v 5.70799017 -0.403362274 0.993944049
v 5.70799017 -0.403362274 0.993944049
v 5.70799017 -0.403362274 0.000999974087
v 5.70799017 -0.403713495 0.00100000005
v 5.70799017 -0.696826935 2.79999995
v 5.70799017 -0.403362274 2.79999995
v 5.70799017 -0.403362274 0.993944049
v 5.70799017 -0.696826935 2.79999995
v 5.70799017 -0.403362274 0.993944049
v 5.70799017 -0.696826935 0.835528374
v 5.70799017 2.13301849 0.00100000005
v 5.70799017 2.13301849 2.36311221
v 5.70799017 2.94235206 2.79999995
v 5.70799017 2.13330746 0.000999855925
v 5.70799017 2.1333077 0.00100000005
v 5.70799017 2.94235206 2.79999995
v 5.70799017 2.94235206 0.000999855925
v 5.70799017 2.13301849 2.79999995
v 5.70799017 2.94235206 2.79999995
v 5.70799017 2.13301849 2.36311221
v 5.70799017 -0.696826935 0.699999988
v 5.70799017 -0.696826935 0.000999981188
v 5.70799065 -1.77528405 0.00100000005
v 5.70799017 -0.696826935 0.699999988
v 5.70799017 -1.77528393 0.000999981188
v 5.70799017 -1.77682686 0.00100000005
v 5.70799017 -1.77682686 0.00100000005
v 5.70799017 -1.77682686 0.252531528
v 5.70799017 -0.696826935 0.699999988
v 5.70799017 -0.696826935 0.699999988
v 5.70799017 -1.77682686 0.252531528
v 5.70799017 -0.947892904 0.699999988
v 5.70799017 -1.77682686 0.700000048
v 5.70799017 -0.947892904 0.699999928
v 5.70799017 -1.77682686 0.252531737
v 5.70799017 0.67663765 0.00100000005
v 5.70799017 0.67663765 1.57694066
v 5.70799017 1.05277991 0.00100008538
v 5.70799017 1.05277979 0.00100000005
v 5.70799017 0.67663765 1.57694066
v 5.70799017 1.05301869 1.7801156
v 5.70799017 1.05301857 0.00100002228
v 5.70799017 0.67663765 2.79999995
v 5.70799017 1.05301869 2.79999995
v 5.70799017 1.05301857 1.7801156
v 5.70799017 0.67663765 2.79999995
v 5.70799017 1.05301857 1.7801156
v 5.70799017 0.67663765 1.57694077
v 5.70799017 2.13301849 2.20000005
v 5.70799017 1.83085358 2.20000005
v 5.70799017 2.13301849 2.36311221
v 5.70799017 1.05301857 2.20000005
v 5.70799017 1.05301869 2.79999995
v 5.70799017 2.13301849 2.79999995
v 5.70799017 1.05301857 2.20000005
v 5.70799017 2.13301849 2.79999995
v 5.70799017 2.13301849 2.36311221
v 5.70799017 1.05301857 2.20000005
v 5.70799017 2.13301849 2.36311221
v 5.70799017 1.83085358 2.20000005
v 5.70799017 -0.403362274 2.20000005
v 5.70799017 -0.403362274 2.79999995
v 5.70799017 0.67663765 2.79999995
v 5.70799017 -0.403362274 2.20000005
v 5.70799017 0.67663765 2.79999995
v 5.70799017 0.67663765 2.20000005
v 5.70799017 2.13301849 0.699999988
v 5.70799017 2.13301849 0.000999981188
v 5.70799065 1.0545615 0.00100000005
v 5.70799017 2.13301849 0.699999988
v 5.70799017 1.05456138 0.000999981188
v 5.70799065 1.05301857 0.00100000005
v 5.70799017 1.05301857 0.700000048
v 5.70799017 0.67663765 0.699999988
v 5.70799017 0.67663765 0.000999981188
v 5.70799065 -0.401819408 0.00100000005
v 5.70799017 0.67663765 0.699999988
v 5.70799017 -0.401819438 0.000999981188
v 5.70799065 -0.403362274 0.00100000005
v 5.70799017 -0.403362274 0.699999988
v 5.70799017 0.67663765 1.04615331
v 5.70799017 0.67663765 0.699999988
v 5.78298998 0.67663765 0.699999988
v 5.70799017 0.67663765 1.04615319
v 5.78298998 0.67663765 0.699999988
v 5.78298998 0.67663765 2.20000005
v 5.70799017 0.67663765 1.04615319
v 5.78298998 0.67663765 2.20000005
v 5.70799017 0.67663765 2.20000005
v 5.70799017 -0.403362274 1.85384691
v 5.78298998 -0.403362274 2.20000005
v 5.78298998 -0.403362274 0.699999988
v 5.70799017 -0.403362274 1.85384691
v 5.78298998 -0.403362274 0.699999988
v 5.70799017 -0.403362274 0.699999988
v 5.70799017 -0.403362274 1.85384679
v 5.70799017 -0.403362274 2.20000005
v 5.78298998 -0.403362274 2.20000005
v 5.70799017 -0.94605732 0.699999988
v 5.78298998 -0.696826935 0.699999988
v 5.70799017 -0.696826935 0.699999988
v 5.70799017 -0.94605732 0.699999988
v 5.70799017 -1.77682686 0.699999988
v 5.78298998 -1.77682686 0.699999988
v 5.70799017 -0.94605732 0.699999988
v 5.78298998 -1.77682686 0.699999988
v 5.78298998 -0.696826935 0.699999988
v 5.70799017 1.88378823 0.699999988
v 5.78298998 2.13301849 0.699999988
v 5.70799017 2.13301849 0.699999988
v 5.70799017 1.88378823 0.699999988
v 5.70799017 1.05301857 0.699999988
v 5.78298998 1.05301857 0.699999988
v 5.70799017 1.88378823 0.699999988
v 5.78298998 1.05301857 0.699999988
v 5.78298998 2.13301849 0.699999988
v 5.70799017 0.427407265 0.699999988
v 5.78298998 0.67663765 0.699999988
v 5.70799017 0.67663765 0.699999988
v 5.70799017 0.427407265 0.699999988
v 5.70799017 -0.403362274 0.699999988
v 5.78298998 -0.403362274 0.699999988
v 5.70799017 0.427407265 0.699999988
v 5.78298998 -0.403362274 0.699999988
v 5.78298998 0.67663765 0.699999988
v 5.70799017 -1.52759647 2.20000005
v 5.78298998 -1.77682686 2.20000005
v 5.70799017 -1.77682686 2.20000005
v 5.70799017 -1.52759647 2.20000005
v 5.70799017 -0.696826935 2.20000005
v 5.78298998 -0.696826935 2.20000005
v 5.70799017 -1.52759647 2.20000005
v 5.78298998 -0.696826935 2.20000005
v 5.78298998 -1.77682686 2.20000005
v 5.70799017 1.30224884 2.20000005
v 5.78298998 1.05301857 2.20000005
v 5.70799017 1.05301857 2.20000005
v 5.70799017 1.30224884 2.20000005
v 5.70799017 2.13301849 2.20000005
v 5.78298998 2.13301849 2.20000005
v 5.70799017 1.30224884 2.20000005
v 5.78298998 2.13301849 2.20000005
v 5.78298998 1.05301857 2.20000005
v 5.70799017 -0.154131889 2.20000005
v 5.78298998 -0.403362274 2.20000005
v 5.70799017 -0.403362274 2.20000005
v 5.70799017 -0.154131889 2.20000005
v 5.70799017 0.67663765 2.20000005
v 5.78298998 0.67663765 2.20000005
v 5.70799017 -0.154131889 2.20000005
v 5.78298998 0.67663765 2.20000005
v 5.78298998 -0.403362274 2.20000005
v 5.70799017 -1.77682686 1.85384691
v 5.78298998 -1.77682686 2.20000005
v 5.78298998 -1.77682686 0.699999988
v 5.70799017 -1.77682686 1.85384691
v 5.78298998 -1.77682686 0.699999988
v 5.70799017 -1.77682686 0.699999988
v 5.70799017 -1.77682686 1.85384679
v 5.70799017 -1.77682686 2.20000005
v 5.78298998 -1.77682686 2.20000005
v 5.70799017 2.13301849 1.04615331
v 5.70799017 2.13301849 0.699999988
v 5.78298998 2.13301849 0.699999988
v 5.70799017 2.13301849 1.04615319
v 5.78298998 2.13301849 0.699999988
v 5.78298998 2.13301849 2.20000005
v 5.70799017 2.13301849 1.04615319
v 5.78298998 2.13301849 2.20000005
v 5.70799017 2.13301849 2.20000005
f 1 2 3
f 4 5 6
f 7 8 9
f 10 11 12
f 13 14 15
f 15 16 13
f 17 18 19
f 20 21 22
f 23 24 25
f 26 27 28
f 29 30 31
f 32 33 34
f 35 36 37
f 38 39 40
f 40 41 38
f 42 43 44
f 44 45 42
f 46 47 48
f 49 50 51
f 52 53 54
f 55 56 57
f 58 59 60
f 61 62 63
f 64 65 66
f 67 68 69
f 69 70 67
f 71 72 73
f 74 75 76
f 77 78 79
f 80 81 82
f 83 84 85
f 86 87 88
f 89 90 91
f 92 93 94
f 95 96 97
f 97 98 95
f 99 100 101
f 102 103 104
f 105 106 107
f 108 109 110
f 111 112 113
f 114 115 116
f 117 118 119
f 120 121 122
f 123 124 125
f 126 127 128
f 128 129 126
f 130 131 132
f 133 134 135
f 135 136 133
f 137 138 139
f 140 141 142
f 143 144 145
f 146 147 148
f 149 150 151
f 152 153 154
f 155 156 157
f 158 159 160
f 161 162 163
f 164 165 166
f 167 168 169
f 170 171 172
f 173 174 175
f 176 177 178
f 179 180 181
f 182 183 184
f 185 186 187
f 188 189 190
f 191 192 193
f 194 195 196
f 197 198 199
f 200 201 202
f 203 204 205
f 206 207 208
f 209 210 211
f 212 213 214
f 215 216 217
f 218 219 220
f 221 222 223
f 224 225 226
