v -12.2065639 2.42153382 2.79999995
v -10.5052643 2.42153382 2.79999995
v -10.5052643 1.22150326 2.79999995
v -10.5052643 0.104348116 2.79999995
v -13.0187855 0.104348116 2.79999995
v -13.0187855 2.42153382 2.79999995
v -12.1315641 7.44010019 2.79999995
v -7.80095196 7.44010019 2.79999995
v -7.80095196 2.57153392 2.79999995
v -8.89230919 2.57153392 2.79999995
v -10.4302645 2.57153392 2.79999995
v -12.1315641 2.57153392 2.79999995
v -10.3552647 1.14650321 2.79999995
v -8.967309 1.14650321 2.79999995
v -8.967309 0.104348116 2.79999995
v -10.3552647 0.104348116 2.79999995
v -7.72595215 2.42153382 2.79999995
v -3.48117375 2.42153382 2.79999995
v -3.48117375 0.104348108 2.79999995
v -8.81730938 0.104348108 2.79999995
v -8.81730938 1.22150326 2.79999995
v -8.81730938 2.42153382 2.79999995
v -7.65095234 7.44010019 2.79999995
v 0.450787902 7.44010019 2.79999995
v 0.450787902 3.0173521 2.79999995
v 0.450787902 0.104348116 2.79999995
v -3.33117366 2.57153392 2.79999995
v -7.65095234 2.57153392 2.79999995
v -3.33117366 0.104348116 2.79999995
v 0.600787878 7.44010019 2.79999995
v 7.32427645 7.44010019 2.79999995
v 7.32427645 3.09235215 2.79999995
v 5.78298998 3.09235215 2.79999995
v 0.646025538 3.09235215 2.79999995
v 0.600787878 3.09235215 2.79999995
v 0.646025538 2.94235206 2.79999995
v 5.70799017 2.94235206 2.79999995
v 5.70799017 -2.2446413 2.79999995
v 0.600787878 -2.2446413 2.79999995
v 0.600787878 0.0293481108 2.79999995
v 0.600787878 2.94235206 2.79999995
v -10.3552647 2.42153382 2.79999995
v -8.967309 2.42153382 2.79999995
v -8.967309 1.29650331 2.79999995
v -10.3552647 1.29650331 2.79999995
f 1 2 3
f 1 3 4
f 1 4 5
f 1 5 6
f 7 8 9
f 7 9 10
f 7 10 11
f 7 11 12
f 13 14 15
f 13 15 16
f 17 18 19
f 17 19 20
f 17 20 21
f 17 21 22
f 23 24 25
f 23 25 26
f 27 23 26
f 27 28 23
f 26 29 27
f 30 31 32
f 30 32 33
f 30 33 34
f 30 34 35
f 36 37 38
f 36 38 39
f 36 39 40
f 36 40 41
f 42 43 44
f 42 44 45
