v -13.093812 2.49656057 0.00100000005
v -13.1687851 2.57153392 2.79999995
v -13.1687851 2.57153392 0.000999855925
v -13.0937853 2.49653387 0.00100000005
v -13.0937853 2.49653387 2.79999995
v -13.093812 2.49656081 0.000999855925
v -12.2065639 2.49653387 2.79999995
v -12.2815371 2.57150698 0.000999855925
v -12.2815638 2.57153392 0.00100000005
v -12.2815638 2.57153392 2.79999995
v -12.2815371 2.57150722 0.00100000005
v -12.2065639 2.49653387 0.000999855925
v -12.2818813 2.57153392 0.00100000005
v -13.1687851 2.57153392 2.79999995
v -12.2815638 2.57153392 2.79999995
v -12.2815638 2.57153392 0.000999855925
v -12.2818804 2.57153392 0.000999855925
v -13.1687851 2.57153392 0.00100000005
vt 0.499120714 0.00039999485
vt 0.445840255 1.11999998
vt 0.445840255 0.000399947166
vt 0.499139764 0.00039999485
vt 0.499139764 1.11999998
vt 0.499120714 0.000399947166
vt -0.0532995007 1.11999998
vt -1.90327955e-05 0.000399947166
vt 0 0.00039999485
vt 0 1.11999998
vt -1.90355377e-05 0.00039999485
vt -0.0532995007 0.000399947166
vt 0.000159228672 0.00039999485
vt 0.445840255 1.11999998
vt 0 1.11999998
vt 0 0.000399947166
vt 0.00015920574 0.000399947166
vt 0.445840255 0.00039999485
f 1/1 2/2 3/3
f 4/4 5/5 2/2
f 2/2 6/6 4/4
f 7/7 8/8 9/9
f 9/9 10/10 7/7
f 11/11 7/7 12/12
f 13/13 14/14 15/15
f 15/15 16/16 13/13
f 14/14 17/17 18/18
