v -3.33117366 2.57153392 2.79999995
v -7.65095234 2.57153392 2.79999995
v -7.72595215 2.49653387 2.79999995
v -3.40617371 2.49653387 2.79999995
v -7.72595215 2.42153382 2.79999995
v -3.48117375 2.42153382 2.79999995
v -8.967309 2.42153382 2.79999995
v -8.967309 1.29650331 2.79999995
v -8.89230919 1.22150326 2.79999995
v -8.89230919 2.49653387 2.79999995
v -8.81730938 1.22150326 2.79999995
v -8.81730938 2.42153382 2.79999995
v -8.81730938 2.42153382 2.79999995
v -7.72595215 2.42153382 2.79999995
v -7.72595215 2.49653387 2.79999995
v -8.89230919 2.49653387 2.79999995
v -7.80095196 2.57153392 2.79999995
v -8.89230919 2.57153392 2.79999995
v -10.3552647 2.42153382 2.79999995
v -8.967309 2.42153382 2.79999995
v -8.89230919 2.49653387 2.79999995
v -10.4302645 2.49653387 2.79999995
v -8.89230919 2.57153392 2.79999995
v -10.4302645 2.57153392 2.79999995
v -12.2065639 2.42153382 2.79999995
v -10.5052643 2.42153382 2.79999995
v -10.4302645 2.49653387 2.79999995
v -12.2065639 2.49653387 2.79999995
v -10.4302645 2.57153392 2.79999995
v -12.1315641 2.57153392 2.79999995
v -8.967309 1.14650321 2.79999995
v -8.967309 0.104348116 2.79999995
v -8.89230919 0.0293481108 2.79999995
v -8.89230919 1.22150326 2.79999995
v -8.81730938 0.104348108 2.79999995
v -8.81730938 1.22150326 2.79999995
v -10.5052643 1.22150326 2.79999995
v -10.5052643 0.104348116 2.79999995
v -10.4302645 0.0293481108 2.79999995
v -10.4302645 1.22150326 2.79999995
v -10.3552647 0.104348116 2.79999995
v -10.3552647 1.14650321 2.79999995
v -10.5052643 2.42153382 2.79999995
v -10.5052643 1.22150326 2.79999995
v -10.4302645 1.22150326 2.79999995
v -10.4302645 2.49653387 2.79999995
v -10.3552647 1.29650331 2.79999995
v -10.3552647 2.42153382 2.79999995
v -10.3552647 1.14650321 2.79999995
v -8.967309 1.14650321 2.79999995
v -8.89230919 1.22150326 2.79999995
v -10.4302645 1.22150326 2.79999995
v -8.967309 1.29650331 2.79999995
v -10.3552647 1.29650331 2.79999995
v -3.33117366 0.104348116 2.79999995
v -3.33117366 2.57153392 2.79999995
v -3.40617371 2.49653387 2.79999995
v -3.40617371 0.0293481108 2.79999995
v -3.48117375 2.42153382 2.79999995
v -3.48117375 0.104348108 2.79999995
v -7.65095234 2.57153392 2.79999995
v -7.65095234 7.44010019 2.79999995
v -7.72595215 7.5151 2.79999995
v -7.72595215 2.49653387 2.79999995
v -7.80095196 7.44010019 2.79999995
v -7.80095196 2.57153392 2.79999995
v 0.450787902 7.44010019 2.79999995
v 0.450787902 3.0173521 2.79999995
v 0.52578789 3.0173521 2.79999995
v 0.52578789 7.5151 2.79999995
v 0.600787878 3.09235215 2.79999995
v 0.600787878 7.44010019 2.79999995
v 0.450787902 3.0173521 2.79999995
v 0.450787902 0.104348116 2.79999995
v 0.52578789 0.0293481108 2.79999995
v 0.52578789 3.0173521 2.79999995
v 0.600787878 0.0293481108 2.79999995
v 0.600787878 2.94235206 2.79999995
v 5.78298998 3.09235215 2.79999995
v 0.646025538 3.09235215 2.79999995
v 0.646025538 3.0173521 2.79999995
v 5.78298998 3.0173521 2.79999995
v 0.646025538 2.94235206 2.79999995
v 5.70799017 2.94235206 2.79999995
v 0.646025538 3.09235215 2.79999995
v 0.600787878 3.09235215 2.79999995
v 0.52578789 3.0173521 2.79999995
v 0.646025538 3.0173521 2.79999995
v 0.600787878 2.94235206 2.79999995
v 0.646025538 2.94235206 2.79999995
v -8.89230919 0.0293481108 0.00100000005
v -3.48117375 0.104348108 0.00100000005
v -8.81730938 0.104348108 0.00100000005
v -3.40617371 0.0293481108 0.00100000005
v -3.40617371 -0.0456518829 0.00100000005
v -8.89230919 -0.0456518829 0.00100000005
v -12.2815638 7.59009981 0.00100000005
v -12.1315641 2.57153392 0.00100000005
v -12.1315641 7.44010019 0.00100000005
v -12.2065639 2.49653387 0.00100000005
v -12.2815638 2.57153392 0.00100000005
v -7.72595215 7.5151 0.00100000005
v -12.1315641 7.44010019 0.00100000005
v -7.80095196 7.44010019 0.00100000005
v -12.2815638 7.59009981 0.00100000005
v -7.72595215 7.59009981 0.00100000005
v -7.72595263 7.5151 0.00100000005
v 0.52578783 7.59009981 0.00100000005
v -7.72595263 7.59009981 0.00100000005
v 0.52578783 7.5151 0.00100000005
v 0.450787902 7.44010019 0.00100000005
v -7.65095234 7.44010019 0.00100000005
v 0.525787771 0.0293481108 0.00100000005
v -3.40617371 -0.0456518903 0.00100000005
v 0.450788021 -0.0456518903 0.00100000005
v -3.40617371 0.0293481108 0.00100000005
v -3.33117366 0.104348116 0.00100000005
v 0.450788021 0.104348116 0.00100000005
v 0.525787771 7.5151 0.00100000005
v 7.47427607 7.59009981 0.00100000005
v 0.525787771 7.59009981 0.00100000005
v 7.32427645 7.44010019 0.00100000005
v 0.60078764 7.44010019 0.00100000005
v 5.70799017 2.94235206 0.00100000005
v 5.85798979 2.94235206 0.00100000005
v 5.78298998 3.0173521 0.00100000005
v 5.85798979 -2.3946414 0.00100000005
v 5.70799017 -2.2446413 0.00100000005
v 7.32427645 3.09235215 0.00100000005
v 5.85798979 2.94235206 0.00100000005
v 7.47427607 2.94235206 0.00100000005
v 5.78298998 3.0173521 0.00100000005
v 5.78298998 3.09235215 0.00100000005
v 7.47427607 2.94235206 0.00100000005
v 7.32427645 7.44010019 0.00100000005
v 7.32427645 3.09235215 0.00100000005
v 7.47427607 7.59009981 0.00100000005
v 0.600787878 -2.2446413 0.00100000005
v 0.450787902 -0.0456518903 0.00100000005
v 0.450787902 -2.3946414 0.00100000005
v 0.52578783 0.0293481108 0.00100000005
v 0.600787878 0.0293481108 0.00100000005
v 5.70799017 -2.2446413 0.00100000005
v 0.450788021 -2.3946414 0.00100000005
v 5.85798979 -2.3946414 0.00100000005
v 0.60078764 -2.2446413 0.00100000005
v -12.2065639 2.49653387 0.00100000005
v -13.0187845 2.42153382 0.00100000005
v -12.2065639 2.42153382 0.00100000005
v -13.0188122 2.42156076 0.00100000005
v -13.1687851 2.57153392 0.00100000005
v -12.2815638 2.57153392 0.00100000005
v -10.4302645 0.0293481108 0.00100000005
v -8.967309 0.104348116 0.00100000005
v -10.3552647 0.104348116 0.00100000005
v -8.89230919 0.0293481108 0.00100000005
v -8.89230919 -0.0456518903 0.00100000005
v -10.4302645 -0.0456518903 0.00100000005
v -13.1687851 -0.0456518903 0.00100000005
v -10.5052643 0.104348116 0.00100000005
v -13.0187845 0.104348116 0.00100000005
v -10.5052376 0.104321331 0.00100000005
v -10.4302645 0.0293481108 0.00100000005
v -10.4302645 -0.0456518903 0.00100000005
v -13.1687851 2.57153392 0.00100000005
v -13.0187845 0.104348116 0.00100000005
v -13.0187845 2.42153382 0.00100000005
v -13.0188122 0.104321331 0.00100000005
v -13.1687851 -0.0456518903 0.00100000005
f 1 2 3
f 3 4 1
f 4 3 5
f 5 6 4
f 7 8 9
f 9 10 7
f 10 9 11
f 11 12 10
f 13 14 15
f 15 16 13
f 16 15 17
f 17 18 16
f 19 20 21
f 21 22 19
f 22 21 23
f 23 24 22
f 25 26 27
f 27 28 25
f 28 27 29
f 29 30 28
f 31 32 33
f 33 34 31
f 34 33 35
f 35 36 34
f 37 38 39
f 39 40 37
f 40 39 41
f 41 42 40
f 43 44 45
f 45 46 43
f 46 45 47
f 47 48 46
f 49 50 51
f 51 52 49
f 52 51 53
f 53 54 52
f 55 56 57
f 57 58 55
f 58 57 59
f 59 60 58
f 61 62 63
f 63 64 61
f 64 63 65
f 65 66 64
f 67 68 69
f 69 70 67
f 70 69 71
f 71 72 70
f 73 74 75
f 75 76 73
f 76 75 77
f 77 78 76
f 79 80 81
f 81 82 79
f 82 81 83
f 83 84 82
f 85 86 87
f 87 88 85
f 88 87 89
f 89 90 88
f 91 92 93
f 91 94 92
f 91 95 94
f 91 96 95
f 97 98 99
f 97 100 98
f 97 101 100
f 102 103 104
f 102 105 103
f 102 106 105
f 107 108 109
f 107 110 108
f 107 111 110
f 107 112 111
f 113 114 115
f 113 116 114
f 113 117 116
f 113 118 117
f 119 120 121
f 119 122 120
f 119 123 122
f 124 125 126
f 124 127 125
f 124 128 127
f 129 130 131
f 129 132 130
f 129 133 132
f 134 135 136
f 134 137 135
f 138 139 140
f 138 141 139
f 138 142 141
f 143 144 145
f 143 146 144
f 147 148 149
f 147 150 148
f 147 151 150
f 147 152 151
f 153 154 155
f 153 156 154
f 153 157 156
f 153 158 157
f 159 160 161
f 159 162 160
f 159 163 162
f 159 164 163
f 165 166 167
f 165 168 166
f 165 169 168
