v 7.35069132 5.88241673 2.79999995
v 7.32427645 7.44010019 2.79999995
v 7.32427645 5.88241673 2.79999995
v 7.35069132 5.88241673 2.79999995
v 7.39927626 5.88241673 2.79999995
v 7.39927626 7.5151 2.79999995
v 7.35069132 5.88241673 2.79999995
v 7.39927626 7.5151 2.79999995
v 7.32427645 7.44010019 2.79999995
v 7.42605448 5.88241673 2.79999995
v 7.47427607 5.88241673 2.79999995
v 7.47427607 7.59009981 2.79999995
v 7.42605448 5.88241673 2.79999995
v 7.47427607 7.59009981 2.79999995
v 7.39927626 7.5151 2.79999995
v 7.42605448 5.88241673 2.79999995
v 7.39927626 7.5151 2.79999995
v 7.39927626 5.88241673 2.79999995
v 7.36900568 4.8024168 2.79999995
v 7.32427645 4.8024168 2.79999995
v 7.32427645 3.09235215 2.79999995
v 7.36900568 4.8024168 2.79999995
v 7.32427645 3.09235215 2.79999995
v 7.39927626 3.0173521 2.79999995
v 7.36900568 4.8024168 2.79999995
v 7.39927626 3.0173521 2.79999995
v 7.39927626 4.8024168 2.79999995
v 7.4437685 4.8024168 2.79999995
v 7.47427607 2.94235206 2.79999995
v 7.47427607 4.8024168 2.79999995
v 7.44376802 4.8024168 2.79999995
v 7.39927626 4.8024168 2.79999995
v 7.39927626 3.0173521 2.79999995
v 7.44376802 4.8024168 2.79999995
v 7.39927626 3.0173521 2.79999995
v 7.47427607 2.94235206 2.79999995
v 7.36900568 4.8024168 2.79999995
v 7.35069132 5.88241673 2.79999995
v 7.32427645 5.88241673 2.79999995
v 7.36900568 4.8024168 2.79999995
v 7.32427645 5.88241673 2.79999995
v 7.32427645 4.8024168 2.79999995
v 7.35069132 5.88241673 2.79999995
v 7.36900568 4.8024168 2.79999995
v 7.39927626 4.8024168 2.79999995
v 7.35069132 5.88241673 2.79999995
v 7.39927626 4.8024168 2.79999995
v 7.39927626 5.88241673 2.79999995
v 7.42605448 5.88241673 2.79999995
v 7.4437685 4.8024168 2.79999995
v 7.47427607 4.8024168 2.79999995
v 7.42605448 5.88241673 2.79999995
v 7.47427607 4.8024168 2.79999995
v 7.47427607 5.88241673 2.79999995
v 7.44376802 4.8024168 2.79999995
v 7.42605448 5.88241673 2.79999995
v 7.39927626 5.88241673 2.79999995
v 7.44376802 4.8024168 2.79999995
v 7.39927626 5.88241673 2.79999995
v 7.39927626 4.8024168 2.79999995
f 1 2 3
f 4 5 6
f 7 8 9
f 10 11 12
f 13 14 15
f 16 17 18
f 19 20 21
f 22 23 24
f 25 26 27
f 28 29 30
f 31 32 33
f 34 35 36
f 37 38 39
f 40 41 42
f 43 44 45
f 46 47 48
f 49 50 51
f 52 53 54
f 55 56 57
f 58 59 60
