v -7.72595215 7.5151 2.79999995
v -7.72595215 7.59007311 0.000999855925
v -7.72595215 7.59009981 0.00100000005
v -7.72595215 7.59009981 2.79999995
v -7.72595215 7.59007311 0.00100000005
v -7.72595215 7.5151 2.79999995
v -7.72595215 7.5151 0.000999855925
v -12.2065907 7.51512671 0.00100000005
v -12.2815638 7.59009981 2.79999995
v -12.2815638 7.59009981 0.000999855925
v -12.2815638 7.59009981 2.79999995
v -12.2065907 7.51512671 0.000999855925
v -12.2065639 7.5151 0.00100000005
v -12.2065639 7.5151 2.79999995
v -7.72757912 7.59009981 0.00100000005
v -9.0258379 7.59009981 0.798944235
v -9.0258379 7.59009981 2.79999995
v -7.72641611 7.59009981 0.000999855925
v -7.72641611 7.59009981 0.00100000005
v -9.0258379 7.59009981 2.79999995
v -7.72595215 7.59009981 2.79999995
v -7.72595215 7.59009981 0.000999855925
v -9.0258379 7.59009981 0.798944354
v -7.72757912 7.59009981 0.000999989104
v -9.0258379 7.59009981 0.00100000005
v -10.9058371 7.59009981 1.95444179
v -12.2815638 7.59009981 2.79999995
v -10.9058371 7.59009981 2.79999995
v -12.2815638 7.59009981 2.79999995
v -10.9058371 7.59009981 1.95444191
v -10.9058371 7.59009981 0.00100009935
v -10.9063282 7.59009981 0.00100000005
v -12.2815638 7.59009981 2.79999995
v -10.9063282 7.59009981 0.000999855925
v -12.2815638 7.59009981 0.00100000005
v -9.0258379 7.59009981 2.22000003
v -10.9058371 7.59009981 2.22000003
v -10.9058371 7.59009981 2.79999995
v -9.0258379 7.59009981 2.22000003
v -10.9058371 7.59009981 2.79999995
v -9.0258379 7.59009981 2.79999995
v -10.9058371 7.59009981 0.0199999809
v -9.0258379 7.59009981 0.0199999996
v -9.0258379 7.59009981 0.00100000016
v -9.11983681 7.59009933 0.00100000005
v -10.9058371 7.59009981 0.0199999809
v -9.11983776 7.59009981 0.00100000051
v -10.9058361 7.59009933 0.00100000005
v -9.0258379 7.59009981 0.52769053
v -9.0258379 7.59009981 0.0199999996
v -9.0258379 7.5151 0.0199999996
v -9.0258379 7.59009981 0.527690589
v -9.0258379 7.5151 0.0199999996
v -9.0258379 7.5151 2.22000003
v -9.0258379 7.59009981 0.527690589
v -9.0258379 7.5151 2.22000003
v -9.0258379 7.59009981 2.22000003
v -10.4719925 7.59009981 2.22000003
v -9.0258379 7.59009981 2.22000003
v -9.0258379 7.5151 2.22000003
v -10.4719925 7.59009981 2.22000003
v -9.0258379 7.5151 2.22000003
v -10.9058371 7.5151 2.22000003
v -10.4719925 7.59009981 2.22000003
v -10.9058371 7.5151 2.22000003
v -10.9058371 7.59009981 2.22000003
v -10.9058371 7.59009981 1.71230865
v -10.9058371 7.5151 2.22000003
v -10.9058371 7.5151 0.0199999996
v -10.9058371 7.59009981 1.71230865
v -10.9058371 7.5151 0.0199999996
v -10.9058371 7.59009981 0.0199999996
v -10.9058371 7.59009981 1.71230865
v -10.9058371 7.59009981 2.22000003
v -10.9058371 7.5151 2.22000003
vt 25.9329001 1.11999998
vt 25.9705755 0.000399947166
vt 25.9705889 0.00039999485
vt 25.9705889 1.11999998
vt 25.9705755 0.00039999485
vt 25.9329001 1.11999998
vt 25.9329001 0.000399947166
vt 28.3131218 0.00039999485
vt 28.2598425 1.11999998
vt 28.2598425 0.000399947166
vt 28.2598425 1.11999998
vt 28.3131218 0.000399947166
vt 28.313141 0.00039999485
vt 28.313141 1.11999998
vt 25.9714075 0.00039999485
vt 26.6237979 0.319577694
vt 26.6237979 1.11999998
vt 25.9708228 0.000399947166
vt 25.9708209 0.00039999485
vt 26.6237979 1.11999998
vt 25.9705889 1.11999998
vt 25.9705889 0.000399947166
vt 26.6237979 0.319577742
vt 25.9714075 0.00039999485
vt 26.6237979 0.00039999485
vt 27.5685229 0.781776714
vt 28.2598425 1.11999998
vt 27.5685229 1.11999998
vt 28.2598425 1.11999998
vt 27.5685229 0.781776762
vt 27.5685229 0.000400042534
vt 27.5687702 0.00039999485
vt 28.2598425 1.11999998
vt 27.5687683 0.000399947166
vt 28.2598425 0.00039999485
vt 26.6237979 0.888000011
vt 27.5685229 0.888000011
vt 27.5685229 1.11999998
vt 26.6237979 0.888000011
vt 27.5685229 1.11999998
vt 26.6237979 1.11999998
vt 27.5685229 0.00799999237
vt 26.6237979 0.00799999237
vt 26.6237979 0.00039999485
vt 26.6710331 0.000400018692
vt 27.5685229 0.00799999237
vt 26.6710331 0.00039999485
vt 27.5685229 0.000400018692
vt -0.0376883492 0.20307622
vt -0.0376883455 0
vt 0 0
vt -0.0376883455 0.203076243
vt 0 0
vt 0 0.880000019
vt -0.0376883455 0.203076243
vt 0 0.880000019
vt -0.0376883492 0.880000019
vt -0.254349624 0.429999924
vt 0.472362219 0.429999876
vt 0.472362219 0.4
vt -0.254349624 0.429999924
vt 0.472362219 0.4
vt -0.472362219 0.4
vt -0.254349654 0.429999876
vt -0.472362219 0.4
vt -0.472362219 0.429999924
vt 0.0376884016 0.676923466
vt 0 0.880000019
vt 0 0
vt 0.0376884016 0.676923466
vt 0 0
vt 0.0376884091 0
vt 0.0376884091 0.676923466
vt 0.0376884016 0.880000019
vt 0 0.880000019
f 1/1 2/2 3/3
f 3/3 4/4 1/1
f 5/5 6/6 7/7
f 8/8 9/9 10/10
f 11/11 12/12 13/13
f 13/13 14/14 11/11
f 15/15 16/16 17/17
f 17/17 18/18 15/15
f 19/19 20/20 21/21
f 21/21 22/22 19/19
f 23/23 24/24 25/25
f 26/26 27/27 28/28
f 29/29 30/30 31/31
f 31/31 32/32 29/29
f 33/33 34/34 35/35
f 36/36 37/37 38/38
f 39/39 40/40 41/41
f 42/42 43/43 44/44
f 44/44 45/45 42/42
f 46/46 47/47 48/48
f 49/49 50/50 51/51
f 52/52 53/53 54/54
f 55/55 56/56 57/57
f 58/58 59/59 60/60
f 61/61 62/62 63/63
f 64/64 65/65 66/66
f 67/67 68/68 69/69
f 70/70 71/71 72/72
f 73/73 74/74 75/75
