v -3.40617371 -0.0456251018 0.00100000005
v -3.40617371 0.0293481108 2.79999995
v -3.40617371 0.0293481108 0.000999855925
v -3.40617371 0.0293481108 2.79999995
v -3.40617371 -0.0456251092 0.000999855925
v -3.40617371 -0.0456518903 0.00100000005
v -3.40617371 -0.0456518903 2.79999995
v 0.450788021 -0.0456518903 2.79999995
v 0.525761068 0.0293213297 0.000999855925
v 0.525787771 0.0293481108 0.00100000005
v 0.525787771 0.0293481108 0.00100000005
v 0.52578783 0.0293481108 2.79999995
v 0.450788021 -0.0456518903 2.79999995
v 0.525761008 0.0293213259 0.00100000005
v 0.450788021 -0.0456518903 2.79999995
v 0.450788021 -0.0456518903 0.000999855925
v -1.2720511 -0.0456518754 1.04615355
v -1.2720511 -0.0456518903 0.699999988
v -1.2720511 0.0293480642 0.699999988
v -1.2720511 -0.0456518903 1.04615366
v -1.2720511 0.0293480642 0.699999988
v -1.2720511 0.0293480642 2.20000005
v -1.2720511 -0.0456518903 1.04615366
v -1.2720511 0.0293480642 2.20000005
v -1.2720511 -0.0456518754 2.20000005
v -1.60454082 -0.0456518903 1.85384595
v -1.60454082 0.0293481573 2.20000005
v -1.60454082 0.0293481573 0.699999988
v -1.60454082 -0.0456518903 1.85384595
v -1.60454082 0.0293481573 0.699999988
v -1.60454082 -0.0456519052 0.699999988
v -1.60454082 -0.0456519052 1.85384583
v -1.60454082 -0.0456518903 2.20000005
v -1.60454082 0.0293481573 2.20000005
v -0.192051172 -0.0456518903 2.33332443
v 0.450788021 -0.0456518903 2.79999995
v -0.192051172 -0.0456518903 2.79999995
v 0.450788021 -0.0456518903 2.79999995
v -0.192051172 -0.0456518903 2.33332443
v -0.192051172 -0.0456518903 0.000999963493
v -0.19182159 -0.0456518903 0.00100000005
v 0.450788021 -0.0456518903 2.79999995
v -0.19182162 -0.0456518903 0.000999855925
v 0.450788021 -0.0456518903 0.00100000005
v -1.60454082 -0.0456518903 1.30791342
v -1.2720511 -0.0456518903 1.54928768
v -1.2720511 -0.0456518903 2.79999995
v -1.60454082 -0.0456518903 1.30791342
v -1.2720511 -0.0456518903 2.79999995
v -1.60454082 -0.0456518903 2.79999995
v -1.2720511 -0.0456518903 1.54928768
v -1.60454082 -0.0456518903 1.30791342
v -1.60454082 -0.0456518903 0.00100004161
v -1.60432625 -0.0456518903 0.00100000005
v -1.2720511 -0.0456518903 1.54928768
v -1.60432625 -0.0456518903 0.00100000121
v -1.2720511 -0.0456518903 0.00100000005
v -1.2720511 -0.0456518903 2.20000005
v -0.375703812 -0.0456518903 2.20000005
v -0.192051172 -0.0456518903 2.33332443
v -1.2720511 -0.0456518903 2.20000005
v -0.192051172 -0.0456518903 2.33332443
v -0.192051172 -0.0456518903 2.79999995
v -1.2720511 -0.0456518903 2.20000005
v -0.192051172 -0.0456518903 2.79999995
v -1.2720511 -0.0456518903 2.79999995
v -0.192051172 -0.0456518903 2.20000005
v -0.192051172 -0.0456518903 2.33332443
v -0.375703812 -0.0456518903 2.20000005
v -3.40479612 -0.0456518903 0.00100000005
v -2.68454075 -0.0456518903 0.523876727
v -2.68454075 -0.0456518903 2.79999995
v -3.40591598 -0.0456518903 0.000999855925
v -3.40591598 -0.0456518903 0.00100000005
v -2.68454075 -0.0456518903 2.79999995
v -3.40617371 -0.0456518903 2.79999995
v -3.40617371 -0.0456518903 0.000999855925
v -2.68454075 -0.0456518903 0.523876667
v -3.40479612 -0.0456518903 0.000999996089
v -2.68454075 -0.0456518903 0.00100000005
v -0.192051172 -0.0456518903 0.700000048
v -1.2720511 -0.0456518903 0.699999988
v -1.2720511 -0.0456518903 0.000999981188
v -1.27050817 -0.0456518941 0.00100000005
v -0.192051172 -0.0456518903 0.700000048
v -1.27050817 -0.0456518903 0.000999981188
v -0.192051172 -0.0456518941 0.00100000005
v -2.68454075 -0.0456518903 2.20000005
v -1.60454082 -0.0456518903 2.20000005
v -1.60454082 -0.0456518903 2.79999995
v -2.68454075 -0.0456518903 2.20000005
v -1.60454082 -0.0456518903 2.79999995
v -2.68454075 -0.0456518903 2.79999995
v -2.68454075 -0.0456518903 0.699999988
v -2.68454075 -0.0456518903 0.523876727
v -2.44193339 -0.0456518903 0.699999988
v -1.60454082 -0.0456518903 0.699999988
v -2.44193316 -0.0456518903 0.699999988
v -2.68454075 -0.0456518903 0.523876667
v -1.60454082 -0.0456518903 0.699999988
v -2.68454075 -0.0456518903 0.523876667
v -2.68454075 -0.0456518903 0.000999996089
v -2.68299794 -0.0456518941 0.00100000005
v -1.60454082 -0.0456518903 0.699999988
v -2.68299794 -0.0456518903 0.000999981188
v -1.60454082 -0.0456518941 0.00100000005
v -1.02282047 -0.0456518903 0.699999988
v -1.2720511 0.0293480642 0.699999988
v -1.2720511 -0.0456518754 0.699999988
v -1.02282047 -0.0456518903 0.699999988
v -0.192051172 -0.0456518903 0.699999988
v -0.192051172 0.0293481573 0.699999988
v -1.02282047 -0.0456518903 0.699999988
v -0.192051172 0.0293481573 0.699999988
v -1.2720511 0.0293480642 0.699999988
v -2.43530989 -0.0456518903 0.699999988
v -2.68454075 0.0293480642 0.699999988
v -2.68454075 -0.0456518754 0.699999988
v -2.43531013 -0.0456518903 0.699999988
v -1.60454082 -0.0456518903 0.699999988
v -1.60454082 0.0293481573 0.699999988
v -2.43531013 -0.0456518903 0.699999988
v -1.60454082 0.0293481573 0.699999988
v -2.68454075 0.0293480642 0.699999988
v -0.441282034 -0.0456518903 2.20000005
v -0.192051172 0.0293481573 2.20000005
v -0.192051172 -0.0456519052 2.20000005
v -0.441282034 -0.0456518754 2.20000005
v -1.2720511 -0.0456518903 2.20000005
v -1.2720511 0.0293480642 2.20000005
v -0.441282034 -0.0456518754 2.20000005
v -1.2720511 0.0293480642 2.20000005
v -0.192051172 0.0293481573 2.20000005
v -1.85377169 -0.0456518903 2.20000005
v -1.60454082 0.0293481573 2.20000005
v -1.60454082 -0.0456519052 2.20000005
v -1.85377169 -0.0456518754 2.20000005
v -2.68454075 -0.0456518903 2.20000005
v -2.68454075 0.0293480642 2.20000005
v -1.85377169 -0.0456518754 2.20000005
v -2.68454075 0.0293480642 2.20000005
v -1.60454082 0.0293481573 2.20000005
v -2.68454075 -0.0456518754 1.04615355
v -2.68454075 -0.0456518903 0.699999988
v -2.68454075 0.0293480642 0.699999988
v -2.68454075 -0.0456518903 1.04615366
v -2.68454075 0.0293480642 0.699999988
v -2.68454075 0.0293480642 2.20000005
v -2.68454075 -0.0456518903 1.04615366
v -2.68454075 0.0293480642 2.20000005
v -2.68454075 -0.0456518754 2.20000005
v -0.192051172 -0.0456518903 1.85384595
v -0.192051172 0.0293481573 2.20000005
v -0.192051172 0.0293481573 0.699999988
v -0.192051172 -0.0456518903 1.85384595
v -0.192051172 0.0293481573 0.699999988
v -0.192051172 -0.0456519052 0.699999988
v -0.192051172 -0.0456519052 1.85384583
v -0.192051172 -0.0456518903 2.20000005
v -0.192051172 0.0293481573 2.20000005
vt 6.66683576 0.00039999485
vt 6.6291608 1.11999998
vt 6.6291608 0.000399947166
vt 6.6291608 1.11999998
vt 6.66683576 0.000399947166
vt 6.66684918 0.00039999485
vt 6.66684918 1.11999998
vt 8.60502234 1.11999998
vt 8.65830259 0.000399947166
vt 8.65832176 0.00039999485
vt 8.65832176 0.00039999485
vt 8.65832176 1.11999998
vt 8.60502234 1.11999998
vt 8.65830259 0.00039999485
vt 8.60502234 1.11999998
vt 8.60502234 0.000399947166
vt -0.0376884391 0.138461399
vt -0.037688454 0
vt 0 0
vt -0.037688454 0.138461471
vt 0 0
vt 0 0.6
vt -0.037688454 0.138461471
vt 0 0.6
vt -0.0376884391 0.6
vt 0.037688499 0.461538363
vt 0 0.6
vt 0 0
vt 0.037688499 0.461538363
vt 0 0
vt 0.0376885139 0
vt 0.0376885139 0.461538315
vt 0.037688499 0.6
vt 0 0.6
vt 8.28198717 0.933329773
vt 8.60502234 1.11999998
vt 8.28198717 1.11999998
vt 8.60502234 1.11999998
vt 8.28198717 0.933329773
vt 8.28198717 0.00039999485
vt 8.28210219 0.00039999485
vt 8.60502234 1.11999998
vt 8.28210219 0.000399947166
vt 8.60502234 0.00039999485
vt 7.57219264 0.523165369
vt 7.73927317 0.619715071
vt 7.73927317 1.11999998
vt 7.57219264 0.523165369
vt 7.73927317 1.11999998
vt 7.57219264 1.11999998
vt 7.73927317 0.619715071
vt 7.57219264 0.523165369
vt 7.57219264 0.000400018692
vt 7.57230047 0.00039999485
vt 7.73927317 0.619715071
vt 7.57230047 0.00039999485
vt 7.73927317 0.00039999485
vt 7.73927317 0.880000019
vt 8.18969921 0.880000019
vt 8.28198717 0.933329773
vt 7.73927317 0.880000019
vt 8.28198717 0.933329773
vt 8.28198717 1.11999998
vt 7.73927317 0.880000019
vt 8.28198717 1.11999998
vt 7.73927317 1.11999998
vt 8.28198717 0.880000019
vt 8.28198717 0.933329773
vt 8.18969921 0.880000019
vt 6.66754119 0.00039999485
vt 7.02947912 0.209550691
vt 7.02947912 1.11999998
vt 6.66697857 0.000399947166
vt 6.66697905 0.00039999485
vt 7.02947912 1.11999998
vt 6.66684918 1.11999998
vt 6.66684918 0.000399947166
vt 7.02947912 0.209550667
vt 6.66754119 0.00039999485
vt 7.02947912 0.00039999485
vt 8.28198717 0.280000019
vt 7.73927317 0.279999995
vt 7.73927317 0.00039999485
vt 7.74004857 0.00039999485
vt 8.28198717 0.280000019
vt 7.74004857 0.00039999485
vt 8.28198717 0.00039999485
vt 7.02947912 0.880000019
vt 7.57219264 0.880000019
vt 7.57219264 1.11999998
vt 7.02947912 0.880000019
vt 7.57219264 1.11999998
vt 7.02947912 1.11999998
vt 7.02947912 0.279999995
vt 7.02947912 0.209550691
vt 7.15139235 0.279999995
vt 7.57219264 0.279999995
vt 7.15139235 0.279999995
vt 7.02947912 0.209550667
vt 7.57219264 0.279999995
vt 7.02947912 0.209550667
vt 7.02947912 0.00039999485
vt 7.03025452 0.00039999485
vt 7.57219264 0.279999995
vt 7.03025452 0.00039999485
vt 7.57219264 0.00039999485
vt -0.146115343 0.370000005
vt -0.271357031 0.4
vt -0.271357031 0.370000029
vt -0.146115373 0.370000005
vt 0.271357031 0.369999981
vt 0.271357031 0.4
vt -0.146115373 0.370000005
vt 0.271357031 0.4
vt -0.271357031 0.4
vt -0.146115343 0.370000005
vt -0.271357031 0.4
vt -0.271357031 0.370000029
vt -0.146115373 0.370000005
vt 0.271357031 0.369999981
vt 0.271357031 0.4
vt -0.146115373 0.370000005
vt 0.271357031 0.4
vt -0.271357031 0.4
vt 0.146115283 0.369999981
vt 0.271357031 0.4
vt 0.271357031 0.369999981
vt 0.146115313 0.369999981
vt -0.271357031 0.370000029
vt -0.271357031 0.4
vt 0.146115313 0.369999981
vt -0.271357031 0.4
vt 0.271357031 0.4
vt 0.146115283 0.369999981
vt 0.271357031 0.4
vt 0.271357031 0.369999981
vt 0.146115313 0.369999981
vt -0.271357031 0.370000029
vt -0.271357031 0.4
vt 0.146115313 0.369999981
vt -0.271357031 0.4
vt 0.271357031 0.4
vt -0.0376884391 0.138461399
vt -0.037688454 0
vt 0 0
vt -0.037688454 0.138461471
vt 0 0
vt 0 0.6
vt -0.037688454 0.138461471
vt 0 0.6
vt -0.0376884391 0.6
vt 0.037688499 0.461538363
vt 0 0.6
vt 0 0
vt 0.037688499 0.461538363
vt 0 0
vt 0.0376885139 0
vt 0.0376885139 0.461538315
vt 0.037688499 0.6
vt 0 0.6
f 1/1 2/2 3/3
f 4/4 5/5 6/6
f 6/6 7/7 4/4
f 8/8 9/9 10/10
f 11/11 12/12 13/13
f 14/14 15/15 16/16
f 17/17 18/18 19/19
f 20/20 21/21 22/22
f 23/23 24/24 25/25
f 26/26 27/27 28/28
f 29/29 30/30 31/31
f 32/32 33/33 34/34
f 35/35 36/36 37/37
f 38/38 39/39 40/40
f 40/40 41/41 38/38
f 42/42 43/43 44/44
f 45/45 46/46 47/47
f 48/48 49/49 50/50
f 51/51 52/52 53/53
f 53/53 54/54 51/51
f 55/55 56/56 57/57
f 58/58 59/59 60/60
f 61/61 62/62 63/63
f 64/64 65/65 66/66
f 67/67 68/68 69/69
f 70/70 71/71 72/72
f 72/72 73/73 70/70
f 74/74 75/75 76/76
f 76/76 77/77 74/74
f 78/78 79/79 80/80
f 81/81 82/82 83/83
f 83/83 84/84 81/81
f 85/85 86/86 87/87
f 88/88 89/89 90/90
f 91/91 92/92 93/93
f 94/94 95/95 96/96
f 97/97 98/98 99/99
f 100/100 101/101 102/102
f 102/102 103/103 100/100
f 104/104 105/105 106/106
f 107/107 108/108 109/109
f 110/110 111/111 112/112
f 113/113 114/114 115/115
f 116/116 117/117 118/118
f 119/119 120/120 121/121
f 122/122 123/123 124/124
f 125/125 126/126 127/127
f 128/128 129/129 130/130
f 131/131 132/132 133/133
f 134/134 135/135 136/136
f 137/137 138/138 139/139
f 140/140 141/141 142/142
f 143/143 144/144 145/145
f 146/146 147/147 148/148
f 149/149 150/150 151/151
f 152/152 153/153 154/154
f 155/155 156/156 157/157
f 158/158 159/159 160/160
