v -3.33117366 0.104348116 0
v 0.450787902 0.104348116 0
v -3.33117366 2.57153392 0
v -3.33117366 2.57153392 0
v -7.65095234 7.44010019 0
v -7.65095234 2.57153392 0
v 0.450787902 0.104348116 0
v -7.65095234 7.44010019 0
v -3.33117366 2.57153392 0
v -7.65095234 7.44010019 0
v 0.450787902 0.104348116 0
v 0.450787902 7.44010019 0
v 7.32427597 3.09235191 0
v 0.600787878 7.44010019 0
v 0.600787878 3.09235191 0
v 0.600787878 7.44010019 0
v 7.32427597 3.09235191 0
v 7.32427597 7.44010019 0
v 5.70799017 -2.2446413 0
v 0.600787878 2.94235206 0
v 0.600787878 -2.2446413 0
v 0.600787878 2.94235206 0
v 5.70799017 -2.2446413 0
v 5.70799017 2.94235206 0
vt 1.18126749 0.447825938
vt -0.159853898 0.447825938
vt 1.18126749 -0.785766959
vt 1.18126749 -0.785766959
vt 2.71310421 -3.2200501
vt 2.71310421 -0.785766959
vt -0.159853898 0.447825938
vt 2.71310421 -3.2200501
vt 1.18126749 -0.785766959
vt 2.71310421 -3.2200501
vt -0.159853898 0.447825938
vt -0.159853898 -3.2200501
vt -2.5972615 -1.04617596
vt -0.213045389 -3.2200501
vt -0.213045389 -1.04617596
vt -0.213045389 -3.2200501
vt -2.5972615 -1.04617596
vt -2.5972615 -3.2200501
vt -2.02411039 1.62232065
vt -0.213045389 -0.971176028
vt -0.213045389 1.62232065
vt -0.213045389 -0.971176028
vt -2.02411039 1.62232065
vt -2.02411039 -0.971176028
f 1/1 2/2 3/3
f 4/4 5/5 6/6
f 7/7 8/8 9/9
f 10/10 11/11 12/12
f 13/13 14/14 15/15
f 16/16 17/17 18/18
f 19/19 20/20 21/21
f 22/22 23/23 24/24
