v -12.2065639 2.42153382 2.79999995
v -12.2065639 2.49650717 0.000999855925
v -12.2065639 2.49653387 0.00100000005
v -12.2065639 2.49653387 2.79999995
v -12.2065639 2.49650693 0.00100000005
v -12.2065639 2.42153382 0.000999855925
v -13.0188122 2.42156076 0.00100000005
v -13.0937853 2.49653387 2.79999995
v -13.0937853 2.49653387 0.000999855925
v -13.0187845 2.42153382 0.00100000005
v -13.0187855 2.42153382 2.79999995
v -13.0188122 2.42156053 0.000999855925
v -13.0184946 2.42153382 0.00100000005
v -12.2065639 2.42153382 2.79999995
v -13.0187855 2.42153382 2.79999995
v -13.0187855 2.42153382 0.000999855925
v -13.0184956 2.42153382 0.000999855925
v -12.2065639 2.42153382 0.00100000005
vt 0.812221527 4.17911193
vt 0.887194812 0.00149234286
vt 0.887221575 0.00149252078
vt 0.887221575 4.17911193
vt 0.887194812 0.00149252078
vt 0.812221527 0.00149234286
vt -3.78806872e-05 0.00149252078
vt -0.106065914 4.17911193
vt -0.106065914 0.00149234286
vt 0 0.00149252078
vt 0 4.17911193
vt -3.78752302e-05 0.00149234286
vt 0.00029007913 0.00149252078
vt 0.812221527 4.17911193
vt 0 4.17911193
vt 0 0.00149234286
vt 0.000290037337 0.00149234286
vt 0.812221527 0.00149252078
f 1/1 2/2 3/3
f 3/3 4/4 1/1
f 5/5 1/1 6/6
f 7/7 8/8 9/9
f 10/10 11/11 8/8
f 8/8 12/12 10/10
f 13/13 14/14 15/15
f 15/15 16/16 13/13
f 14/14 17/17 18/18
