v -8.96730995 0.104348116 0
v -10.3552647 1.14650321 0
v -10.3552647 0.104348116 0
v -10.3552647 1.14650321 0
v -8.96730995 0.104348116 0
v -8.96730995 1.14650321 0
v -10.5052652 0.104348116 0
v -13.0187855 2.42153406 0
v -13.0187855 0.104348116 0
v -13.0187855 2.42153406 0
v -10.5052652 0.104348116 0
v -10.5052652 2.42153406 0
v -8.96730995 1.29650331 0
v -10.3552647 2.42153406 0
v -10.3552647 1.29650331 0
v -10.3552647 2.42153406 0
v -8.96730995 1.29650331 0
v -8.96730995 2.42153406 0
vt 9.05787978 0.904697961
vt 10.4598528 -0.147982892
vt 10.4598528 0.904697961
vt 10.4598528 -0.147982892
vt 9.05787978 0.904697961
vt 9.05787978 -0.147982892
vt 10.6113684 0.904697961
vt 13.1502752 -1.43589156
vt 13.1502752 0.904697961
vt 13.1502752 -1.43589156
vt 10.6113684 0.904697961
vt 10.6113684 -1.43589156
vt 9.05787978 -0.299497989
vt 10.4598528 -1.43589156
vt 10.4598528 -0.299497989
vt 10.4598528 -1.43589156
vt 9.05787978 -0.299497989
vt 9.05787978 -1.43589156
f 1/1 2/2 3/3
f 4/4 5/5 6/6
f 7/7 8/8 9/9
f 10/10 11/11 12/12
f 13/13 14/14 15/15
f 16/16 17/17 18/18
