v -13.1687851 -0.0456518903 0
v -13.1687851 -0.0447171815 0.00100000005
v -13.1687851 2.57153392 0.000999855925
v -13.1687851 2.57153392 0
v -13.1687851 -0.0447173156 0.000999855925
v -13.1687851 -0.0456518903 0.00100000005
v -12.2815638 2.57153392 0
v -12.2815638 2.57332635 0.00100000005
v -12.2815638 7.59009981 0.000999855925
v -12.2815638 7.59009981 0
v -12.2815638 2.57332587 0.000999855925
v -12.2815638 2.57153392 0
v -12.2815638 2.57153392 0.00100000005
v 7.47427607 4.8024168 0
v 7.47427559 4.8024168 0.00100000005
v 7.47427607 4.80175257 0.000999855925
v 7.47427607 7.58843994 0.00100006955
v 7.47427607 7.59009981 0
v 7.47427607 7.58948994 0.00100000005
v 7.47427607 7.58948994 0.000999855925
v 7.47427607 7.59009981 0
v 7.47427607 7.59009981 0.00100000005
v 7.47427607 5.88241673 0
v 7.47427607 7.59009981 0
v 7.47427607 7.58843994 0.00100000005
v 7.47427607 5.88241673 0.00100006966
v 7.47427607 4.8024168 0
v 7.47427607 4.80175257 0.00100000005
v 7.47427607 2.94235206 0.000999855925
v 7.47427607 2.94235206 0
v 7.47427607 4.8024168 0.000999981188
v 7.47427607 4.8024168 0
v 7.47427607 5.88241673 0
v 7.47427607 5.88087416 0.00100000005
v 7.47427607 5.88087368 0.000999981188
v 7.47427607 5.88241673 0
v 7.47427607 5.88241673 0.00100000005
v -10.4302645 -0.0456518903 0
v -10.4302645 -0.0456251018 0.00100000005
v -10.4302645 0.0293481108 0.000999855925
v -10.4302645 0.0293481108 0
v -10.4302645 -0.0456251092 0.000999855925
v -10.4302645 -0.0456518903 0.00100000005
v -13.0937853 2.49653387 0
v -13.093812 2.49656057 0.00100000005
v -13.1687851 2.57153392 0.000999855925
v -13.1687851 2.57153392 0
v -13.093812 2.49656081 0.000999855925
v -13.0937853 2.49653387 0.00100000005
v -12.2065639 2.49653387 0
v -12.2065907 2.49656057 0.00100000005
v -12.2815638 2.57153392 0.000999855925
v -12.2815638 2.57153392 0
v -12.2065907 2.49656081 0.000999855925
v -12.2065639 2.49653387 0.00100000005
v 5.85798979 -1.77682686 0
v 5.85798979 -1.77682686 0.00100000005
v 5.85798979 -1.77704751 0.000999855925
v 5.85798979 -1.77682686 0
v 5.85798979 -1.77704751 0.00100000005
v 5.85798979 -2.3946414 0.000999855925
v 5.85798979 -2.3946414 0
v 5.85798979 -0.696826935 0
v 5.85798979 -0.403362274 0
v 5.85798979 -0.403362274 0.00100000005
v 5.85798979 -0.696659744 0.00100009842
v 5.85798979 -0.696826935 0
v 5.85798979 -0.696659744 0.00100000005
v 5.85798979 -0.696826935 0.00100008037
v 5.85798979 2.9404459 0.000999995624
v 5.85798979 2.94235206 0
v 5.85798979 2.94206285 0.00100000005
v 5.85798979 2.94206309 0.000999855925
v 5.85798979 2.94235206 0
v 5.85798979 2.94235206 0.00100000005
v 5.85798979 2.13301849 0
v 5.85798979 2.94235206 0
v 5.85798979 2.9404459 0.00100000005
v 5.85798979 2.13301849 0.000999995391
v 5.85798979 -1.77682686 0.000999981188
v 5.85798979 -1.77682686 0
v 5.85798979 -0.696826935 0
v 5.85798979 -0.698369801 0.00100000005
v 5.85798979 -0.698369741 0.000999981188
v 5.85798979 -0.696826935 0
v 5.85798979 -0.696826935 0.00100000005
v 5.85798979 0.67663765 0
v 5.85798979 1.05301869 0
v 5.85798979 1.05301869 0.00100000005
v 5.85798979 0.677017331 0.00100001018
v 5.85798979 0.67663765 0
v 5.85798979 0.677017331 0.00100000005
v 5.85798979 0.67663765 0.00100006326
v 5.85798979 1.05301869 0.000999981188
v 5.85798979 1.05301869 0
v 5.85798979 2.13301849 0
v 5.85798979 2.13147569 0.00100000005
v 5.85798979 2.13147545 0.000999981188
v 5.85798979 2.13301849 0
v 5.85798979 2.13301849 0.00100000005
v 5.85798979 -0.403362274 0.000999981188
v 5.85798979 -0.403362274 0
v 5.85798979 0.67663765 0
v 5.85798979 0.675094783 0.00100000005
v 5.85798979 0.675094843 0.000999981188
v 5.85798979 0.67663765 0
v 5.85798979 0.67663765 0.00100000005
v -8.89230919 -0.0456518829 0
v -8.89230919 -0.0456250943 0.00100000005
v -8.89230919 0.0293481108 0.000999855925
v -8.89230919 0.0293481108 0
v -8.89230919 -0.0456251018 0.000999855925
v -8.89230919 -0.0456518829 0.00100000005
v 7.39930296 3.0173254 0.000999855925
v 7.39927626 3.0173521 0
v 7.39927626 3.0173521 0.00100000005
v 7.47427607 2.94235206 0.000999855925
v 7.47427607 2.94235206 0
v 7.39930296 3.0173254 0.00100000005
v -7.72595263 7.5151 0
v -7.72595263 7.51512671 0.00100000005
v -7.72595263 7.59009981 0.000999855925
v -7.72595263 7.59009981 0
v -7.72595263 7.51512671 0.000999855925
v -7.72595263 7.5151 0
v -7.72595263 7.5151 0.00100000005
v -13.1687851 -0.0456518903 0
v -13.1687584 -0.0456251018 0.00100000005
v -13.0937853 0.0293481108 0.000999855925
v -13.0937853 0.0293481108 0.000999855925
v -13.0937853 0.0293481108 0
v -13.1687851 -0.0456518903 0
v -13.1687584 -0.0456251092 0.000999855925
v -13.1687851 -0.0456518903 0.00100000005
v 5.78301668 3.0173254 0.000999855925
v 5.78298998 3.0173521 0
v 5.78298998 3.0173521 0.00100000005
v 5.78298998 3.0173521 0
v 5.78301716 3.0173254 0.00100000005
v 5.85798979 2.94235206 0.000999855925
v 5.85798979 2.94235206 0.000999855925
v 5.85798979 2.94235206 0
v 5.78298998 3.0173521 0
v 0.52578789 -2.31964135 0
v 0.525761068 -2.31966805 0.00100000005
v 0.450787902 -2.3946414 0.000999855925
v 0.450787902 -2.3946414 0
v 0.525761127 -2.31966829 0.000999855925
v 0.52578789 -2.31964135 0
v 0.52578783 -2.31964135 0.00100000005
v 0.450788021 -2.3946414 0
v 0.452719182 -2.3946414 0.00100000005
v 0.451236367 -2.3946414 0.000999855925
v 0.450788021 -2.3946414 0
v 0.451236427 -2.3946414 0.00100000005
v 0.450788021 -2.3946414 0.000999855925
v 0.452719152 -2.3946414 0.000999998301
v 0.450788021 -2.3946414 0
v 1.70632601 -2.3946414 0
v 1.70632601 -2.3946414 0.00100000005
v 2.78632545 -2.3946414 0.00100005255
v 2.78632545 -2.3946414 0
v 2.78742242 -2.3946414 0.00100000005
v 2.78742242 -2.3946414 0.000999855925
v 2.78632545 -2.3946414 0
v 5.85798979 -2.3946414 0
v 5.85798979 -2.3946414 0.00100000005
v 1.70632601 -2.3946414 0.000999998301
v 1.70632601 -2.3946414 0
v 1.70786893 -2.3946414 0.00100000005
v 1.70786881 -2.3946414 0.000999981188
v 1.70632601 -2.3946414 0
v 2.78632545 -2.3946414 0
v 2.78632545 -2.3946414 0.00100000005
v -7.72595215 7.59009981 0
v -7.72757912 7.59009981 0.00100000005
v -7.72641611 7.59009981 0.000999855925
v -7.72595215 7.59009981 0
v -7.72641611 7.59009981 0.00100000005
v -7.72595215 7.59009981 0.000999855925
v -7.72757912 7.59009981 0.000999989104
v -7.72595215 7.59009981 0
v -9.0258379 7.59009981 0
v -9.0258379 7.59009981 0.00100000005
v -10.9058371 7.59009981 0.00100009935
v -10.9058371 7.59009981 0
v -10.9063282 7.59009981 0.00100000005
v -10.9063282 7.59009981 0.000999855925
v -10.9058371 7.59009981 0
v -12.2815638 7.59009981 0
v -12.2815638 7.59009981 0.00100000005
v -9.0258379 7.59009981 0.00100000016
v -9.0258379 7.59009981 0
v -9.11983681 7.59009933 0.00100000005
v -9.11983776 7.59009981 0.00100000051
v -9.0258379 7.59009981 0
v -10.9058371 7.59009981 0
v -10.9058361 7.59009933 0.00100000005
v 0.52578789 7.59009981 0
v 0.522840858 7.59009981 0.00100000005
v 0.525178432 7.59009981 0.000999855925
v 0.52578789 7.59009981 0
v 0.525178313 7.59009981 0.00100000005
v 0.52578789 7.59009981 0.000999855925
v 0.522840917 7.59009981 0.000999970129
v 0.52578789 7.59009981 0
v -1.1809268 7.59009981 0
v -1.1809268 7.59009981 0
v -1.1809268 7.59009981 0.00100000005
v 0.522840917 7.59009981 0.000999970129
v -5.6628747 7.59009981 0.000999958022
v -5.6628747 7.59009981 0
v -5.66361189 7.59009981 0.00100000005
v -5.66361141 7.59009981 0.000999855925
v -5.6628747 7.59009981 0
v -7.72595263 7.59009981 0
v -7.72595263 7.59009981 0.00100000005
v -2.26092672 7.59009981 0.000999971526
v -2.26092672 7.59009981 0
v -2.2614944 7.59009981 0.00100000005
v -2.2614944 7.59009981 0.00100006664
v -2.26092672 7.59009981 0
v -2.92574024 7.59009981 0
v -2.92574024 7.59009981 0.00100000005
v -4.00574017 7.59009981 0.00100000412
v -4.00574017 7.59009981 0
v -4.006073 7.59009981 0.00100000005
v -4.00607347 7.59009981 0.00100006966
v -4.00574017 7.59009981 0
v -4.58287477 7.59009981 0
v -4.58287477 7.59009981 0.00100000005
v -1.1809268 7.59009981 0.000999970129
v -1.1809268 7.59009981 0
v -1.18246961 7.59009981 0.00100000005
v -1.18246961 7.59009981 0.000999981188
v -1.1809268 7.59009981 0
v -2.26092672 7.59009981 0
v -2.26092672 7.59009981 0.00100000005
v -2.92574024 7.59009981 0.000999981188
v -2.92574024 7.59009981 0
v -2.92728329 7.59009981 0.00100000005
v -2.92728305 7.59009981 0.000999981188
v -2.92574024 7.59009981 0
v -4.00574017 7.59009981 0
v -4.00574017 7.59009981 0.00100000005
v -4.58287477 7.59009981 0.000999981188
v -4.58287477 7.59009981 0
v -4.58441782 7.59009981 0.00100000005
v -4.58441734 7.59009981 0.000999981188
v -4.58287477 7.59009981 0
v -5.6628747 7.59009981 0
v -5.66287518 7.59009981 0.00100000005
v 1.95020437 7.59009981 0.000999880256
v 1.95020437 7.59009981 0
v 1.94969559 7.59009981 0.00100000005
v 1.94969571 7.59009981 0.000999855925
v 1.95020437 7.59009981 0
v 0.52578783 7.59009981 0
v 0.525787771 7.59009981 0.00100000005
v 7.47427607 7.59009981 0
v 7.47179413 7.59009981 0.00100000005
v 7.47381878 7.59009981 0.000999855925
v 7.47427607 7.59009981 0
v 7.4738183 7.59009981 0.00100000005
v 7.47427607 7.59009981 0.000999855925
v 7.47179413 7.59009981 0.000999975018
v 7.47427607 7.59009981 0
v 6.19305277 7.59009981 0
v 6.19305277 7.59009981 0.00100000005
v 5.11305285 7.59009981 0.000999968732
v 5.11305285 7.59009981 0
v 5.11188984 7.59009981 0.00100000005
v 5.11188984 7.59009981 0.0010000508
v 5.11305285 7.59009981 0
v 3.0302043 7.59009981 0
v 3.0302043 7.59009981 0.00100000005
v 6.19305277 7.59009981 0.000999975018
v 6.19305277 7.59009981 0
v 6.19150972 7.59009981 0.00100000005
v 6.19150972 7.59009981 0.000999981188
v 6.19305277 7.59009981 0
v 5.11305285 7.59009981 0
v 5.11305285 7.59009981 0.00100000005
v 3.0302043 7.59009981 0.000999981188
v 3.0302043 7.59009981 0
v 3.02866149 7.59009981 0.00100000005
v 3.02866149 7.59009981 0.000999981188
v 3.0302043 7.59009981 0
v 1.95020437 7.59009981 0
v 1.95020449 7.59009981 0.00100000005
v -12.2065639 7.5151 0
v -12.2065907 7.51512671 0.00100000005
v -12.2815638 7.59009981 0.000999855925
v -12.2815638 7.59009981 0
v -12.2065907 7.51512671 0.000999855925
v -12.2065639 7.5151 0
v -12.2065639 7.5151 0.00100000005
v 0.525761068 0.0293213297 0.000999855925
v 0.52578783 0.0293481108 0
v 0.525787771 0.0293481108 0.00100000005
v 0.52578783 0.0293481108 0
v 0.525761008 0.0293213259 0.00100000005
v 0.450788021 -0.0456518903 0.000999855925
v 0.450788021 -0.0456518903 0
v 7.47424936 7.59007311 0.000999855925
v 7.47427607 7.59009981 0
v 7.47427607 7.59009981 0.00100000005
v 7.47427607 7.59009981 0
v 7.47424936 7.59007311 0.00100000005
v 7.39927626 7.5151 0.000999855925
v 7.39927626 7.5151 0
v -10.4302645 -0.0456518903 0
v -10.4297152 -0.0456518903 0.00100000005
v -10.4302645 -0.0456518903 0.000999855925
v -10.4297161 -0.0456518903 0.000999855925
v -8.89230919 -0.0456518903 0
v -8.89230919 -0.0456518903 0.00100000005
v -13.1687851 -0.0456518903 0
v -13.1678066 -0.0456518903 0.00100000005
v -13.1687851 -0.0456518903 0.000999855925
v -13.1678066 -0.0456518903 0.000999855925
v -10.4302645 -0.0456518903 0
v -10.4302645 -0.0456518903 0.00100000005
v -8.89230919 -0.0456518829 0
v -8.89035034 -0.0456518829 0.00100000005
v -8.89230919 -0.0456518829 0.000999855925
v -8.89034939 -0.0456518829 0.000999855925
v -3.40617371 -0.0456518829 0
v -3.40617371 -0.0456518829 0.00100000005
v -0.192051172 -0.0456518903 0.000999963493
v -0.192051172 -0.0456518903 0
v -0.19182159 -0.0456518903 0.00100000005
v -0.19182162 -0.0456518903 0.000999855925
v -0.192051172 -0.0456518903 0
v 0.450788021 -0.0456518903 0
v 0.450788021 -0.0456518903 0.00100000005
v -1.60454082 -0.0456518903 0.00100004161
v -1.60454082 -0.0456518903 0
v -1.60432625 -0.0456518903 0.00100000005
v -1.60432625 -0.0456518903 0.00100000121
v -1.60454082 -0.0456518903 0
v -1.2720511 -0.0456518903 0
v -1.2720511 -0.0456518903 0.00100000005
v -3.40617371 -0.0456518903 0
v -3.40479612 -0.0456518903 0.00100000005
v -3.40591598 -0.0456518903 0.000999855925
v -3.40617371 -0.0456518903 0
v -3.40591598 -0.0456518903 0.00100000005
v -3.40617371 -0.0456518903 0.000999855925
v -3.40479612 -0.0456518903 0.000999996089
v -3.40617371 -0.0456518903 0
v -2.68454075 -0.0456518903 0
v -2.68454075 -0.0456518903 0.00100000005
v -1.2720511 -0.0456518903 0.000999981188
v -1.2720511 -0.0456518903 0
v -1.27050817 -0.0456518941 0.00100000005
v -1.27050817 -0.0456518903 0.000999981188
v -1.2720511 -0.0456518903 0
v -0.192051172 -0.0456518903 0
v -0.192051172 -0.0456518941 0.00100000005
v -2.68454075 -0.0456518903 0.000999996089
v -2.68454075 -0.0456518903 0
v -2.68299794 -0.0456518941 0.00100000005
v -2.68299794 -0.0456518903 0.000999981188
v -2.68454075 -0.0456518903 0
v -1.60454082 -0.0456518903 0
v -1.60454082 -0.0456518941 0.00100000005
v 0.52578789 7.59007311 0.000999855925
v 0.52578789 7.59009981 0
v 0.52578783 7.59009981 0.00100000005
v 0.52578789 7.59009981 0
v 0.52578783 7.59007311 0.00100000005
v 0.52578789 7.5151 0.000999855925
v 0.52578789 7.5151 0.000999855925
v 0.52578789 7.5151 0
v 0.52578789 7.59009981 0
v 5.78301668 -2.31966829 0.000999855925
v 5.78298998 -2.31964135 0
v 5.78298998 -2.31964135 0.00100000005
v 5.78298998 -2.31964135 0
v 5.78301716 -2.31966805 0.00100000005
v 5.85798979 -2.3946414 0.000999855925
v 5.85798979 -2.3946414 0.000999855925
v 5.85798979 -2.3946414 0
v 5.78298998 -2.31964135 0
v -3.40617371 -0.0456518903 0
v -3.40617371 -0.0456251018 0.00100000005
v -3.40617371 0.0293481108 0.000999855925
v -3.40617371 0.0293481108 0
v -3.40617371 -0.0456251092 0.000999855925
v -3.40617371 -0.0456518903 0
v -3.40617371 -0.0456518903 0.00100000005
v 5.85798979 2.94235206 0
v 5.85856676 2.94235206 0.00100000005
v 5.85798979 2.94235206 0.000999855925
v 5.85856676 2.94235206 0.000999855925
v 7.47427607 2.94235206 0
v 7.47427607 2.94235206 0.00100000005
v -12.2815638 2.57153392 0
v -12.2818813 2.57153392 0.00100000005
v -12.2815638 2.57153392 0.000999855925
v -12.2818804 2.57153392 0.000999855925
v -13.1687851 2.57153392 0
v -13.1687851 2.57153392 0.00100000005
v -3.40617371 0.0293213297 0.000999855925
v -3.40617371 0.0293481108 0
v -3.40617371 0.0293481108 0.00100000005
v -3.40617371 -0.0456518829 0.000999855925
v -3.40617371 -0.0456518829 0
v -3.40617371 0.0293213259 0.00100000005
v 5.85798979 -2.3946414 0
v 5.85796261 -2.3946147 0.00100000005
v 5.78298998 -2.31964111 0.000999855925
v 5.78298998 -2.31964111 0
v 5.85796309 -2.39461446 0.000999855925
v 5.85798979 -2.3946414 0
v 5.85798979 -2.3946414 0.00100000005
v 0.450787902 -2.3946414 0
v 0.450787902 -2.3938024 0.00100000005
v 0.450787902 -0.0456518903 0.000999855925
v 0.450787902 -0.0456518903 0
v 0.450787902 -2.3938024 0.000999855925
v 0.450787902 -2.3946414 0.00100000005
v 0.52578783 7.51512671 0.000999855925
v 0.52578783 7.5151 0
v 0.525787771 7.5151 0.00100000005
v 0.52578783 7.5151 0
v 0.525787771 7.51512671 0.00100000005
v 0.52578783 7.59009981 0.000999855925
v 0.52578783 7.59009981 0.000999855925
v 0.52578783 7.59009981 0
v 0.52578783 7.5151 0
v 7.39927626 7.5151 0
v 7.39930296 7.51512671 0.00100000005
v 7.47427607 7.59009981 0.000999855925
v 7.47427607 7.59009981 0
v 7.39930296 7.51512671 0.000999855925
v 7.39927626 7.5151 0
v 7.39927626 7.5151 0.00100000005
v 0.450787902 -0.0456518903 0
v 0.450814694 -0.0456251018 0.00100000005
v 0.52578789 0.0293481108 0.000999855925
v 0.52578789 0.0293481108 0
v 0.450814694 -0.0456251092 0.000999855925
v 0.450787902 -0.0456518903 0.00100000005
v -12.2815371 7.59007311 0.000999855925
v -12.2815638 7.59009981 0
v -12.2815638 7.59009981 0.00100000005
v -12.2065639 7.5151 0.000999855925
v -12.2065639 7.5151 0
v -12.2815371 7.59007311 0.00100000005
v 0.450788021 -2.3946414 0
v 0.450814813 -2.3946147 0.00100000005
v 0.52578783 -2.31964135 0.000999855925
v 0.52578783 -2.31964135 0.000999855925
v 0.52578783 -2.31964135 0
v 0.450788021 -2.3946414 0
v 0.450814813 -2.39461446 0.000999855925
v 0.450788021 -2.3946414 0
v 0.450788021 -2.3946414 0.00100000005
v 5.85798979 2.94235206 0
v 5.85796261 2.94237876 0.00100000005
v 5.78298998 3.0173521 0.000999855925
v 5.78298998 3.0173521 0.000999855925
v 5.78298998 3.0173521 0
v 5.85798979 2.94235206 0
v 5.85796309 2.94237876 0.000999855925
v 5.85798979 2.94235206 0.00100000005
v -13.093812 0.0293213297 0.000999855925
v -13.0937853 0.0293481108 0
v -13.0937853 0.0293481108 0.00100000005
v -13.1687851 -0.0456518903 0.000999855925
v -13.1687851 -0.0456518903 0
v -13.0937853 0.0293481108 0
v -13.093812 0.0293213259 0.00100000005
v -13.1687851 -0.0456518903 0.000999855925
v -7.72595215 7.59007311 0.000999855925
v -7.72595215 7.59009981 0
v -7.72595215 7.59009981 0.00100000005
v -7.72595215 7.59009981 0
v -7.72595215 7.59007311 0.00100000005
v -7.72595215 7.5151 0.000999855925
v -7.72595215 7.5151 0
v 7.47427607 2.94235206 0
v 7.47424936 2.94237876 0.00100000005
v 7.39927626 3.0173521 0.000999855925
v 7.39927626 3.0173521 0
v 7.47424936 2.94237876 0.000999855925
v 7.47427607 2.94235206 0
v 7.47427607 2.94235206 0.00100000005
v -8.89230919 0.0293213297 0.000999855925
v -8.89230919 0.0293481108 0
v -8.89230919 0.0293481108 0.00100000005
v -8.89230919 -0.0456518903 0.000999855925
v -8.89230919 -0.0456518903 0
v -8.89230919 0.0293213259 0.00100000005
v -12.2815371 2.57150698 0.000999855925
v -12.2815638 2.57153392 0
v -12.2815638 2.57153392 0.00100000005
v -12.2065639 2.49653387 0.000999855925
v -12.2065639 2.49653387 0
v -12.2815371 2.57150722 0.00100000005
v -13.1687584 2.57150698 0.000999855925
v -13.1687851 2.57153392 0
v -13.1687851 2.57153392 0.00100000005
v -13.0937853 2.49653387 0.000999855925
v -13.0937853 2.49653387 0
v -13.1687584 2.57150722 0.00100000005
v -10.4302645 0.0293213297 0.000999855925
v -10.4302645 0.0293481108 0
v -10.4302645 0.0293481108 0.00100000005
v -10.4302645 -0.0456518903 0.000999855925
v -10.4302645 -0.0456518903 0
v -10.4302645 0.0293213259 0.00100000005
vt 1.76101016 0
vt 1.76054039 0.00039999485
vt 0.445840255 0.000399947166
vt 0.445840255 0
vt 1.76054051 0.000399947166
vt 1.76101004 0.00039999485
vt 30.7817372 0
vt 30.7808363 0.00039999485
vt 28.2598425 0.000399947166
vt 28.2598425 0
vt 30.7808363 0.000399947166
vt 30.7817372 0
vt 30.7817372 0.00039999485
vt 16.9314297 0
vt 16.9314297 0.00039999485
vt 16.9310961 0.000399947166
vt 18.3314421 0.000400018692
vt 18.3322759 0
vt 18.3319692 0.00039999485
vt 18.3319692 0.000399947166
vt 18.3322759 0
vt 18.332274 0.00039999485
vt 17.4741427 0
vt 18.3322759 0
vt 18.3314421 0.00039999485
vt 17.4741427 0.000400018692
vt 16.9314297 0
vt 16.9310942 0.00039999485
vt 15.9967226 0.000399947166
vt 15.9967226 0
vt 16.9314297 0.00039999485
vt 16.9314297 0
vt 17.4741427 0
vt 17.4733683 0.00039999485
vt 17.4733683 0.00039999485
vt 17.4741427 0
vt 17.4741427 0.00039999485
vt 3.13715225 0
vt 3.13713883 0.00039999485
vt 3.09946387 0.000399947166
vt 3.09946387 0
vt 3.13713883 0.000399947166
vt 3.13715225 0.00039999485
vt 0.499139764 0
vt 0.499120714 0.00039999485
vt 0.445840255 0.000399947166
vt 0.445840255 0
vt 0.499120714 0.000399947166
vt 0.499139764 0.00039999485
vt 30.8350376 0
vt 30.8350184 0.00039999485
vt 30.7817372 0.000399947166
vt 30.7817372 0
vt 30.8350184 0.000399947166
vt 30.8350376 0.00039999485
vt 12.8130694 0
vt 12.8130694 0.00039999485
vt 12.8129582 0.000399947166
vt 12.8130694 0
vt 12.8129591 0.00039999485
vt 12.5026093 0.000399947166
vt 12.5026093 0
vt 13.3557834 0
vt 13.5032532 0
vt 13.5032532 0.00039999485
vt 13.3558677 0.000400042534
vt 13.3557834 0
vt 13.3558667 0.00039999485
vt 13.3557834 0.000400042534
vt 15.1835588 0.00039999485
vt 15.1845173 0
vt 15.1843716 0.00039999485
vt 15.1843725 0.000399947166
vt 15.1845173 0
vt 15.1845173 0.00039999485
vt 14.7778165 0
vt 15.1845173 0
vt 15.1835588 0.00039999485
vt 14.7778165 0.00039999485
vt 12.8130694 0.00039999485
vt 12.8130694 0
vt 13.3557834 0
vt 13.3550089 0.00039999485
vt 13.355008 0.00039999485
vt 13.3557834 0
vt 13.3557834 0.00039999485
vt 14.0459672 0
vt 14.2351035 0
vt 14.2351035 0.00039999485
vt 14.0461579 0.00039999485
vt 14.0459672 0
vt 14.0461569 0.00039999485
vt 14.0459672 0.000400018692
vt 14.2351035 0.00039999485
vt 14.2351035 0
vt 14.7778165 0
vt 14.7770411 0.00039999485
vt 14.7770411 0.00039999485
vt 14.7778165 0
vt 14.7778165 0.00039999485
vt 13.5032532 0.00039999485
vt 13.5032532 0
vt 14.0459672 0
vt 14.0451918 0.00039999485
vt 14.0451918 0.00039999485
vt 14.0459672 0
vt 14.0459672 0.00039999485
vt 3.90999478 0
vt 3.90998136 0.00039999485
vt 3.8723064 0.000399947166
vt 3.8723064 0
vt 3.90998136 0.000399947166
vt 3.90999478 0.00039999485
vt 16.0500029 0.000399947166
vt 16.050022 0
vt 16.050022 0.00039999485
vt 15.9967226 0.000399947166
vt 15.9967226 0
vt 16.0500029 0.00039999485
vt 26.0082778 0
vt 26.0082644 0.00039999485
vt 25.9705889 0.000399947166
vt 25.9705889 0
vt 26.0082644 0.000399947166
vt 26.0082778 0
vt 26.0082778 0.00039999485
vt 1.76101016 0
vt 1.76099111 0.00039999485
vt 1.70771062 0.000399947166
vt 1.70771062 0.000399947166
vt 1.70771062 0
vt 1.76101016 0
vt 1.76099111 0.000399947166
vt 1.76101004 0.00039999485
vt 15.2377975 0.000399947166
vt 15.2378167 0
vt 15.2378167 0.00039999485
vt 15.2378167 0
vt 15.2377975 0.00039999485
vt 15.1845173 0.000399947166
vt 15.1845173 0.000399947166
vt 15.1845173 0
vt 15.2378167 0
vt 9.83871952 0
vt 9.83870035 0.00039999485
vt 9.7854201 0.000399947166
vt 9.7854201 0
vt 9.83870035 0.000399947166
vt 9.83871952 0
vt 9.83871952 0.00039999485
vt 9.7854201 0
vt 9.78639103 0.00039999485
vt 9.78564534 0.000399947166
vt 9.7854201 0
vt 9.78564534 0.00039999485
vt 9.7854201 0.000399947166
vt 9.78639103 0.00039999485
vt 9.7854201 0
vt 10.4163447 0
vt 10.4163447 0.00039999485
vt 10.9590587 0.000400018692
vt 10.9590587 0
vt 10.9596099 0.00039999485
vt 10.9596099 0.000399947166
vt 10.9590587 0
vt 12.5026093 0
vt 12.5026093 0.00039999485
vt 10.4163447 0.00039999485
vt 10.4163447 0
vt 10.4171201 0.00039999485
vt 10.4171201 0.00039999485
vt 10.4163447 0
vt 10.9590587 0
vt 10.9590587 0.00039999485
vt 25.9705889 0
vt 25.9714075 0.00039999485
vt 25.9708228 0.000399947166
vt 25.9705889 0
vt 25.9708209 0.00039999485
vt 25.9705889 0.000399947166
vt 25.9714075 0.00039999485
vt 25.9705889 0
vt 26.6237979 0
vt 26.6237979 0.00039999485
vt 27.5685229 0.000400042534
vt 27.5685229 0
vt 27.5687702 0.00039999485
vt 27.5687683 0.000399947166
vt 27.5685229 0
vt 28.2598425 0
vt 28.2598425 0.00039999485
vt 26.6237979 0.00039999485
vt 26.6237979 0
vt 26.6710331 0.000400018692
vt 26.6710331 0.00039999485
vt 26.6237979 0
vt 27.5685229 0
vt 27.5685229 0.000400018692
vt 21.8239826 0
vt 21.8254624 0.00039999485
vt 21.8242893 0.000399947166
vt 21.8239826 0
vt 21.8242893 0.00039999485
vt 21.8239826 0.000399947166
vt 21.8254643 0.00039999485
vt 21.8239826 0
vt 22.6816288 0
vt 22.6816288 0
vt 22.6816288 0.00039999485
vt 21.8254643 0.00039999485
vt 24.9338645 0.00039999485
vt 24.9338645 0
vt 24.9342345 0.00039999485
vt 24.9342345 0.000399947166
vt 24.9338645 0
vt 25.9705889 0
vt 25.9705889 0.00039999485
vt 23.2243419 0.00039999485
vt 23.2243419 0
vt 23.2246256 0.00039999485
vt 23.2246275 0.000400018692
vt 23.2243419 0
vt 23.5584196 0
vt 23.5584196 0.00039999485
vt 24.1011326 0.00039999485
vt 24.1011326 0
vt 24.1012994 0.00039999485
vt 24.1013013 0.000400018692
vt 24.1011326 0
vt 24.3911495 0
vt 24.3911495 0.00039999485
vt 22.6816288 0.00039999485
vt 22.6816288 0
vt 22.6824052 0.00039999485
vt 22.6824033 0.00039999485
vt 22.6816288 0
vt 23.2243419 0
vt 23.2243438 0.00039999485
vt 23.5584196 0.00039999485
vt 23.5584196 0
vt 23.5591959 0.00039999485
vt 23.5591959 0.00039999485
vt 23.5584196 0
vt 24.1011326 0
vt 24.1011326 0.00039999485
vt 24.3911495 0.00039999485
vt 24.3911495 0
vt 24.3919259 0.00039999485
vt 24.391924 0.00039999485
vt 24.3911495 0
vt 24.9338645 0
vt 24.9338664 0.00039999485
vt 21.1081952 0.000399947166
vt 21.1081952 0
vt 21.1084502 0.00039999485
vt 21.1084502 0.000399947166
vt 21.1081952 0
vt 21.8239826 0
vt 21.8239826 0.00039999485
vt 18.3322759 0
vt 18.3335239 0.00039999485
vt 18.332506 0.000399947166
vt 18.3322759 0
vt 18.332504 0.00039999485
vt 18.3322759 0.000399947166
vt 18.3335219 0.00039999485
vt 18.3322759 0
vt 18.9761073 0
vt 18.9761073 0.00039999485
vt 19.5188223 0.00039999485
vt 19.5188223 0
vt 19.5194069 0.000400018692
vt 19.5194069 0.000400018692
vt 19.5188223 0
vt 20.5654802 0
vt 20.5654802 0.000400018692
vt 18.9761073 0.00039999485
vt 18.9761073 0
vt 18.9768836 0.00039999485
vt 18.9768836 0.00039999485
vt 18.9761073 0
vt 19.5188223 0
vt 19.5188223 0.00039999485
vt 20.5654802 0.00039999485
vt 20.5654802 0
vt 20.5662566 0.00039999485
vt 20.5662547 0.00039999485
vt 20.5654802 0
vt 21.1081952 0
vt 21.1081971 0.00039999485
vt 28.313141 0
vt 28.3131218 0.00039999485
vt 28.2598425 0.000399947166
vt 28.2598425 0
vt 28.3131218 0.000399947166
vt 28.313141 0
vt 28.313141 0.00039999485
vt 8.65830259 0.000399947166
vt 8.65832176 0
vt 8.65832176 0.00039999485
vt 8.65832176 0
vt 8.65830259 0.00039999485
vt 8.60502234 0.000399947166
vt 8.60502234 0
vt 18.3322568 0.000399947166
vt 18.3322759 0
vt 18.332274 0.00039999485
vt 18.3322759 0
vt 18.3322568 0.00039999485
vt 18.2789756 0.000399947166
vt 18.2789756 0
vt 3.13715225 0
vt 3.13742829 0.00039999485
vt 3.13715225 0.000399947166
vt 3.13742829 0.000399947166
vt 3.90999478 0
vt 3.90999478 0.00039999485
vt 1.76101016 0
vt 1.76150161 0.00039999485
vt 1.76101016 0.000399947166
vt 1.76150149 0.000399947166
vt 3.13715225 0
vt 3.13715225 0.00039999485
vt 3.90999478 0
vt 3.91097936 0.00039999485
vt 3.90999478 0.000399947166
vt 3.91097912 0.000399947166
vt 6.66684918 0
vt 6.66684918 0.00039999485
vt 8.28198717 0.00039999485
vt 8.28198717 0
vt 8.28210219 0.00039999485
vt 8.28210219 0.000399947166
vt 8.28198717 0
vt 8.60502234 0
vt 8.60502234 0.00039999485
vt 7.57219264 0.000400018692
vt 7.57219264 0
vt 7.57230047 0.00039999485
vt 7.57230047 0.00039999485
vt 7.57219264 0
vt 7.73927317 0
vt 7.73927317 0.00039999485
vt 6.66684918 0
vt 6.66754119 0.00039999485
vt 6.66697857 0.000399947166
vt 6.66684918 0
vt 6.66697905 0.00039999485
vt 6.66684918 0.000399947166
vt 6.66754119 0.00039999485
vt 6.66684918 0
vt 7.02947912 0
vt 7.02947912 0.00039999485
vt 7.73927317 0.00039999485
vt 7.73927317 0
vt 7.74004857 0.00039999485
vt 7.74004857 0.00039999485
vt 7.73927317 0
vt 8.28198717 0
vt 8.28198717 0.00039999485
vt 7.02947912 0.00039999485
vt 7.02947912 0
vt 7.03025452 0.00039999485
vt 7.03025452 0.00039999485
vt 7.02947912 0
vt 7.57219264 0
vt 7.57219264 0.00039999485
vt 21.8239691 0.000399947166
vt 21.8239826 0
vt 21.8239826 0.00039999485
vt 21.8239826 0
vt 21.8239691 0.00039999485
vt 21.7862937 0.000399947166
vt 21.7862937 0.000399947166
vt 21.7862937 0
vt 21.8239826 0
vt 12.5558895 0.000399947166
vt 12.5559087 0
vt 12.5559087 0.00039999485
vt 12.5559087 0
vt 12.5558895 0.00039999485
vt 12.5026093 0.000399947166
vt 12.5026093 0.000399947166
vt 12.5026093 0
vt 12.5559087 0
vt 6.66684918 0
vt 6.66683576 0.00039999485
vt 6.6291608 0.000399947166
vt 6.6291608 0
vt 6.66683576 0.000399947166
vt 6.66684918 0
vt 6.66684918 0.00039999485
vt 15.1845173 0
vt 15.1848077 0.00039999485
vt 15.1845173 0.000399947166
vt 15.1848077 0.000399947166
vt 15.9967226 0
vt 15.9967226 0.00039999485
vt 0 0
vt 0.000159228672 0.00039999485
vt 0 0.000399947166
vt 0.00015920574 0.000399947166
vt 0.445840255 0
vt 0.445840255 0.00039999485
vt 6.70452414 0.000399947166
vt 6.70453756 0
vt 6.70453708 0.00039999485
vt 6.66684918 0.000399947166
vt 6.66684918 0
vt 6.70452366 0.00039999485
vt 12.5026093 0
vt 12.5025901 0.00039999485
vt 12.4493099 0.000399947166
vt 12.4493099 0
vt 12.5025901 0.000399947166
vt 12.5026093 0
vt 12.5026093 0.00039999485
vt 9.7854201 0
vt 9.78499837 0.00039999485
vt 8.60502234 0.000399947166
vt 8.60502234 0
vt 9.78499837 0.000399947166
vt 9.7854201 0.00039999485
vt 21.861658 0.000399947166
vt 21.8616714 0
vt 21.8616714 0.00039999485
vt 21.8616714 0
vt 21.861658 0.00039999485
vt 21.8239826 0.000399947166
vt 21.8239826 0.000399947166
vt 21.8239826 0
vt 21.8616714 0
vt 18.3855763 0
vt 18.3855571 0.00039999485
vt 18.3322759 0.000399947166
vt 18.3322759 0
vt 18.3855571 0.000399947166
vt 18.3855763 0
vt 18.3855763 0.00039999485
vt 8.60502234 0
vt 8.60500413 0.00039999485
vt 8.55172293 0.000399947166
vt 8.55172293 0
vt 8.60500318 0.000399947166
vt 8.60502234 0.00039999485
vt 28.2598233 0.000399947166
vt 28.2598425 0
vt 28.2598425 0.00039999485
vt 28.206544 0.000399947166
vt 28.206544 0
vt 28.2598233 0.00039999485
vt 9.7854201 0
vt 9.78540093 0.00039999485
vt 9.73212068 0.000399947166
vt 9.73212068 0.000399947166
vt 9.73212068 0
vt 9.7854201 0
vt 9.78540093 0.000399947166
vt 9.7854201 0
vt 9.7854201 0.00039999485
vt 15.1845173 0
vt 15.1844981 0.00039999485
vt 15.1312179 0.000399947166
vt 15.1312179 0.000399947166
vt 15.1312179 0
vt 15.1845173 0
vt 15.1844981 0.000399947166
vt 15.1845173 0.00039999485
vt 1.81429065 0.000399947166
vt 1.8143097 0
vt 1.8143097 0.00039999485
vt 1.76101016 0.000399947166
vt 1.76101016 0
vt 1.8143097 0
vt 1.81429065 0.00039999485
vt 1.76101016 0.000399947166
vt 25.9705755 0.000399947166
vt 25.9705889 0
vt 25.9705889 0.00039999485
vt 25.9705889 0
vt 25.9705755 0.00039999485
vt 25.9329001 0.000399947166
vt 25.9329001 0
vt 15.9967226 0
vt 15.9967034 0.00039999485
vt 15.9434232 0.000399947166
vt 15.9434232 0
vt 15.9967034 0.000399947166
vt 15.9967226 0
vt 15.9967226 0.00039999485
vt 3.94766974 0.000399947166
vt 3.94768316 0
vt 3.94768316 0.00039999485
vt 3.90999478 0.000399947166
vt 3.90999478 0
vt 3.94766974 0.00039999485
vt -1.90327955e-05 0.000399947166
vt 0 0
vt 0 0.00039999485
vt -0.0532995007 0.000399947166
vt -0.0532995007 0
vt -1.90355377e-05 0.00039999485
vt 0.445821236 0.000399947166
vt 0.445840255 0
vt 0.445840255 0.00039999485
vt 0.392540747 0.000399947166
vt 0.392540747 0
vt 0.445821236 0.00039999485
vt 3.17482721 0.000399947166
vt 3.17484063 0
vt 3.17484063 0.00039999485
vt 3.13715225 0.000399947166
vt 3.13715225 0
vt 3.17482721 0.00039999485
f 1/1 2/2 3/3
f 3/3 4/4 1/1
f 5/5 1/1 6/6
f 7/7 8/8 9/9
f 9/9 10/10 7/7
f 11/11 12/12 13/13
f 14/14 15/15 16/16
f 17/17 18/18 19/19
f 20/20 21/21 22/22
f 23/23 24/24 25/25
f 25/25 26/26 23/23
f 27/27 28/28 29/29
f 29/29 30/30 27/27
f 31/31 32/32 33/33
f 33/33 34/34 31/31
f 35/35 36/36 37/37
f 38/38 39/39 40/40
f 40/40 41/41 38/38
f 42/42 38/38 43/43
f 44/44 45/45 46/46
f 46/46 47/47 44/44
f 48/48 44/44 49/49
f 50/50 51/51 52/52
f 52/52 53/53 50/50
f 54/54 50/50 55/55
f 56/56 57/57 58/58
f 59/59 60/60 61/61
f 61/61 62/62 59/59
f 63/63 64/64 65/65
f 65/65 66/66 63/63
f 67/67 68/68 69/69
f 70/70 71/71 72/72
f 73/73 74/74 75/75
f 76/76 77/77 78/78
f 78/78 79/79 76/76
f 80/80 81/81 82/82
f 82/82 83/83 80/80
f 84/84 85/85 86/86
f 87/87 88/88 89/89
f 89/89 90/90 87/87
f 91/91 92/92 93/93
f 94/94 95/95 96/96
f 96/96 97/97 94/94
f 98/98 99/99 100/100
f 101/101 102/102 103/103
f 103/103 104/104 101/101
f 105/105 106/106 107/107
f 108/108 109/109 110/110
f 110/110 111/111 108/108
f 112/112 108/108 113/113
f 114/114 115/115 116/116
f 117/117 118/118 115/115
f 115/115 119/119 117/117
f 120/120 121/121 122/122
f 122/122 123/123 120/120
f 124/124 125/125 126/126
f 127/127 128/128 129/129
f 130/130 131/131 132/132
f 133/133 132/132 134/134
f 135/135 136/136 137/137
f 138/138 139/139 140/140
f 141/141 142/142 143/143
f 144/144 145/145 146/146
f 146/146 147/147 144/144
f 148/148 149/149 150/150
f 151/151 152/152 153/153
f 154/154 155/155 156/156
f 157/157 158/158 159/159
f 159/159 160/160 157/157
f 161/161 162/162 163/163
f 164/164 165/165 166/166
f 166/166 167/167 164/164
f 168/168 169/169 170/170
f 171/171 172/172 173/173
f 173/173 174/174 171/171
f 175/175 176/176 177/177
f 178/178 179/179 180/180
f 181/181 182/182 183/183
f 183/183 184/184 181/181
f 185/185 186/186 187/187
f 188/188 189/189 190/190
f 190/190 191/191 188/188
f 192/192 193/193 194/194
f 195/195 196/196 197/197
f 197/197 198/198 195/195
f 199/199 200/200 201/201
f 202/202 203/203 204/204
f 205/205 206/206 207/207
f 208/208 209/209 210/210
f 211/211 212/212 213/213
f 214/214 215/215 216/216
f 216/216 217/217 214/214
f 218/218 219/219 220/220
f 221/221 222/222 223/223
f 223/223 224/224 221/221
f 225/225 226/226 227/227
f 228/228 229/229 230/230
f 230/230 231/231 228/228
f 232/232 233/233 234/234
f 235/235 236/236 237/237
f 237/237 238/238 235/235
f 239/239 240/240 241/241
f 242/242 243/243 244/244
f 244/244 245/245 242/242
f 246/246 247/247 248/248
f 249/249 250/250 251/251
f 251/251 252/252 249/249
f 253/253 254/254 255/255
f 256/256 257/257 258/258
f 258/258 259/259 256/256
f 260/260 261/261 262/262
f 263/263 264/264 265/265
f 266/266 267/267 268/268
f 268/268 269/269 266/266
f 270/270 271/271 272/272
f 273/273 274/274 275/275
f 275/275 276/276 273/273
f 277/277 278/278 279/279
f 280/280 281/281 282/282
f 282/282 283/283 280/280
f 284/284 285/285 286/286
f 287/287 288/288 289/289
f 289/289 290/290 287/287
f 291/291 292/292 293/293
f 293/293 294/294 291/291
f 295/295 296/296 297/297
f 298/298 299/299 300/300
f 301/301 302/302 303/303
f 303/303 304/304 301/301
f 305/305 306/306 307/307
f 308/308 309/309 310/310
f 310/310 311/311 308/308
f 312/312 313/313 314/314
f 315/315 312/312 316/316
f 316/316 317/317 315/315
f 318/318 319/319 320/320
f 321/321 318/318 322/322
f 322/322 323/323 321/321
f 324/324 325/325 326/326
f 327/327 324/324 328/328
f 328/328 329/329 327/327
f 330/330 331/331 332/332
f 333/333 334/334 335/335
f 335/335 336/336 333/333
f 337/337 338/338 339/339
f 340/340 341/341 342/342
f 342/342 343/343 340/340
f 344/344 345/345 346/346
f 347/347 348/348 349/349
f 350/350 351/351 352/352
f 352/352 353/353 350/350
f 354/354 355/355 356/356
f 357/357 358/358 359/359
f 359/359 360/360 357/357
f 361/361 362/362 363/363
f 364/364 365/365 366/366
f 366/366 367/367 364/364
f 368/368 369/369 370/370
f 371/371 372/372 373/373
f 374/374 375/375 376/376
f 377/377 378/378 379/379
f 380/380 381/381 382/382
f 383/383 384/384 385/385
f 386/386 387/387 388/388
f 388/388 389/389 386/386
f 390/390 391/391 392/392
f 393/393 394/394 395/395
f 396/396 393/393 397/397
f 397/397 398/398 396/396
f 399/399 400/400 401/401
f 402/402 399/399 403/403
f 403/403 404/404 402/402
f 405/405 406/406 407/407
f 408/408 409/409 406/406
f 406/406 410/410 408/408
f 411/411 412/412 413/413
f 413/413 414/414 411/411
f 415/415 416/416 417/417
f 418/418 419/419 420/420
f 420/420 421/421 418/418
f 422/422 418/418 423/423
f 424/424 425/425 426/426
f 427/427 428/428 429/429
f 430/430 431/431 432/432
f 433/433 434/434 435/435
f 435/435 436/436 433/433
f 437/437 438/438 439/439
f 440/440 441/441 442/442
f 442/442 443/443 440/440
f 444/444 440/440 445/445
f 446/446 447/447 448/448
f 449/449 450/450 447/447
f 447/447 451/451 449/449
f 452/452 453/453 454/454
f 455/455 456/456 457/457
f 458/458 459/459 460/460
f 461/461 462/462 463/463
f 464/464 465/465 466/466
f 467/467 466/466 468/468
f 469/469 470/470 471/471
f 472/472 473/473 470/470
f 474/474 475/475 476/476
f 477/477 478/478 479/479
f 480/480 481/481 482/482
f 482/482 483/483 480/480
f 484/484 485/485 486/486
f 486/486 487/487 484/484
f 488/488 489/489 490/490
f 491/491 492/492 493/493
f 494/494 495/495 492/492
f 492/492 496/496 494/494
f 497/497 498/498 499/499
f 500/500 501/501 498/498
f 498/498 502/502 500/500
f 503/503 504/504 505/505
f 506/506 507/507 504/504
f 504/504 508/508 506/506
f 509/509 510/510 511/511
f 512/512 513/513 510/510
f 510/510 514/514 512/512
