v 5.11305285 7.48987865 2.79999995
v 3.0302043 7.44010019 2.79999995
v 5.11305285 7.44010019 2.79999995
v 1.95020437 7.45498657 2.79999995
v 0.60078764 7.44010019 2.79999995
v 1.95020437 7.44010019 2.79999995
v 1.95020437 7.45498657 2.79999995
v 1.95020437 7.5151 2.79999995
v 0.52578783 7.5151 2.79999995
v 1.95020437 7.45498657 2.79999995
v 0.52578783 7.5151 2.79999995
v 0.60078764 7.44010019 2.79999995
v 1.95020437 7.53047466 2.79999995
v 1.95020437 7.59009981 2.79999995
v 0.52578783 7.59009981 2.79999995
v 1.95020437 7.53047466 2.79999995
v 0.52578783 7.59009981 2.79999995
v 0.52578783 7.5151 2.79999995
v 1.95020437 7.53047466 2.79999995
v 0.52578783 7.5151 2.79999995
v 1.95020437 7.5151 2.79999995
v 6.19305277 7.50179291 2.79999995
v 6.19305277 7.44010019 2.79999995
v 7.32427645 7.44010019 2.79999995
v 6.19305277 7.50179291 2.79999995
v 7.32427645 7.44010019 2.79999995
v 7.39927626 7.5151 2.79999995
v 6.19305277 7.50179291 2.79999995
v 7.39927626 7.5151 2.79999995
v 6.19305277 7.5151 2.79999995
v 6.19305277 7.57627058 2.79999995
v 7.47427607 7.59009981 2.79999995
v 6.19305277 7.59009981 2.79999995
v 6.19305277 7.57627058 2.79999995
v 6.19305277 7.5151 2.79999995
v 7.39927626 7.5151 2.79999995
v 6.19305277 7.57627058 2.79999995
v 7.39927626 7.5151 2.79999995
v 7.47427607 7.59009981 2.79999995
v 5.11305285 7.48987865 2.79999995
v 3.0302043 7.4669013 2.79999995
v 3.0302043 7.44010019 2.79999995
v 3.0302043 7.4669013 2.79999995
v 5.11305285 7.48987865 2.79999995
v 5.11305285 7.5151 2.79999995
v 3.0302043 7.4669013 2.79999995
v 5.11305285 7.5151 2.79999995
v 3.0302043 7.5151 2.79999995
v 3.0302043 7.5421319 2.79999995
v 5.11305285 7.56461334 2.79999995
v 5.11305285 7.59009981 2.79999995
v 3.0302043 7.5421319 2.79999995
v 5.11305285 7.59009981 2.79999995
v 3.0302043 7.59009981 2.79999995
v 5.11305285 7.56461334 2.79999995
v 3.0302043 7.5421319 2.79999995
v 3.0302043 7.5151 2.79999995
v 5.11305285 7.56461334 2.79999995
v 3.0302043 7.5151 2.79999995
v 5.11305285 7.5151 2.79999995
v 6.19305277 7.50179291 2.79999995
v 5.11305285 7.48987865 2.79999995
v 5.11305285 7.44010019 2.79999995
v 6.19305277 7.50179291 2.79999995
v 5.11305285 7.44010019 2.79999995
v 6.19305277 7.44010019 2.79999995
v 5.11305285 7.48987865 2.79999995
v 6.19305277 7.50179291 2.79999995
v 6.19305277 7.5151 2.79999995
v 5.11305285 7.48987865 2.79999995
v 6.19305277 7.5151 2.79999995
v 5.11305285 7.5151 2.79999995
v 5.11305285 7.56461334 2.79999995
v 6.19305277 7.57627058 2.79999995
v 6.19305277 7.59009981 2.79999995
v 5.11305285 7.56461334 2.79999995
v 6.19305277 7.59009981 2.79999995
v 5.11305285 7.59009981 2.79999995
v 6.19305277 7.57627058 2.79999995
v 5.11305285 7.56461334 2.79999995
v 5.11305285 7.5151 2.79999995
v 6.19305277 7.57627058 2.79999995
v 5.11305285 7.5151 2.79999995
v 6.19305277 7.5151 2.79999995
v 3.0302043 7.4669013 2.79999995
v 1.95020437 7.45498657 2.79999995
v 1.95020437 7.44010019 2.79999995
v 3.0302043 7.4669013 2.79999995
v 1.95020437 7.44010019 2.79999995
v 3.0302043 7.44010019 2.79999995
v 1.95020437 7.45498657 2.79999995
v 3.0302043 7.4669013 2.79999995
v 3.0302043 7.5151 2.79999995
v 1.95020437 7.45498657 2.79999995
v 3.0302043 7.5151 2.79999995
v 1.95020437 7.5151 2.79999995
v 1.95020437 7.53047466 2.79999995
v 3.0302043 7.5421319 2.79999995
v 3.0302043 7.59009981 2.79999995
v 1.95020437 7.53047466 2.79999995
v 3.0302043 7.59009981 2.79999995
v 1.95020437 7.59009981 2.79999995
v 3.0302043 7.5421319 2.79999995
v 1.95020437 7.53047466 2.79999995
v 1.95020437 7.5151 2.79999995
v 3.0302043 7.5421319 2.79999995
v 1.95020437 7.5151 2.79999995
v 3.0302043 7.5151 2.79999995
f 1 2 3
f 4 5 6
f 7 8 9
f 10 11 12
f 13 14 15
f 16 17 18
f 19 20 21
f 22 23 24
f 25 26 27
f 28 29 30
f 31 32 33
f 34 35 36
f 37 38 39
f 40 41 42
f 43 44 45
f 46 47 48
f 49 50 51
f 52 53 54
f 55 56 57
f 58 59 60
f 61 62 63
f 64 65 66
f 67 68 69
f 70 71 72
f 73 74 75
f 76 77 78
f 79 80 81
f 82 83 84
f 85 86 87
f 88 89 90
f 91 92 93
f 94 95 96
f 97 98 99
f 100 101 102
f 103 104 105
f 106 107 108
