v 5.70799017 2.94235206 2.79999995
v 5.78298998 3.0173521 0
v 5.78298998 3.0173521 2.79999995
v 5.70799017 2.94235206 0
v -7.72595215 2.49653387 0
v -7.65095234 2.57153392 2.79999995
v -7.65095234 2.57153392 0
v -7.72595215 2.49653387 2.79999995
v 0.52578789 0.0293481108 0
v 0.600787878 0.0293481108 2.79999995
v 0.52578789 0.0293481108 2.79999995
v 0.600787878 0.0293481108 0
v -4.86713552 2.57153392 1.13374805
v -4.86713505 2.57153392 0.0200001299
v -4.86713505 2.42153382 0.0200001299
v -4.86713552 2.42153382 1.13374805
v -4.86713552 2.57153392 2.22000074
v -4.86713552 2.42153382 2.22000074
v 0.600787878 2.24763036 2.22000003
v 0.600787878 2.24763012 0.874469042
v 0.600787878 2.94235206 0
v 0.600787878 2.24763012 0.0200000331
v 0.600787878 1.2676301 0.0200000331
v 0.600787878 2.94235206 2.79999995
v 0.600787878 0.0293481108 0
v 0.600787878 0.0293481108 2.79999995
v 0.600787878 1.26763034 2.22000003
v 0.600787878 1.26763034 1.81645191
v 0.600787878 2.94235206 2.79999995
v 0.52578789 3.0173521 0
v 0.52578789 3.0173521 2.79999995
v 0.600787878 2.94235206 0
v -3.40617371 0.0293481108 0
v -3.33117366 0.104348116 2.79999995
v -3.40617371 0.0293481108 2.79999995
v -3.33117366 0.104348116 0
v -7.65095282 7.44010019 0
v -7.65097952 7.4401269 0.00100000005
v -7.72595263 7.5151 0.000999855925
v -7.72595263 7.5151 0
v -7.65097952 7.4401269 0.000999855925
v -7.65095282 7.44010019 0
v -7.65095234 7.44010019 0.00100000005
v -7.65095234 3.87255263 2.05176067
v -7.65095234 3.87255287 0.0200001113
v -7.80095196 3.87255287 0.0200001113
v -7.80095196 3.87255263 2.05176067
v -7.65095234 3.87255263 2.22000074
v -7.80095196 3.87255263 2.22000074
v -3.40617371 2.49653387 0
v -3.33117366 2.57153392 2.79999995
v -3.33117366 2.57153392 0
v -3.40617371 2.49653387 2.79999995
v 0.646025538 2.94235206 0
v 5.70799017 2.94235206 2.79999995
v 0.646025538 2.94235206 2.79999995
v 5.70799017 2.94235206 0
v -3.40617371 2.49653387 2.79999995
v -3.33117366 2.57153392 0
v -3.33117366 2.57153392 2.79999995
v -3.40617371 2.49653387 0
v -5.84713507 2.57153392 2.22000074
v -5.84713507 2.57153392 1.7689656
v -7.65095234 2.57153392 2.79999995
v -4.86713552 2.57153392 2.22000074
v -7.65095234 2.57153392 0
v -3.33117366 2.57153392 2.79999995
v -5.84713507 2.57153392 0.0200001299
v -4.86713552 2.57153392 1.13374805
v -3.33117366 2.57153392 0
v -4.86713505 2.57153392 0.0200001299
v -4.86713505 2.57153392 0.0200001299
v -5.84713507 2.57153392 0.0200001299
v -5.84713507 2.42153382 0.0200001299
v -4.86713505 2.42153382 0.0200001299
v -7.65095234 3.87255287 0.0200001113
v -7.65095234 4.85255289 0.0200001113
v -7.80095196 4.85255289 0.0200001113
v -7.80095196 3.87255287 0.0200001113
v -7.65095234 7.44010019 2.79999995
v -7.72595215 7.5151 0
v -7.72595215 7.5151 2.79999995
v -7.65095234 7.44010019 0
v 0.450814694 7.4401269 0.000999855925
v 0.450787902 7.44010019 0
v 0.52578789 7.5151 0
v 0.52578783 7.5151 0.00100000005
v 0.450787902 7.44010019 0
v 0.450814694 7.4401269 0.00100000005
v 0.450787902 7.44010019 0.000999855925
v -3.33117366 0.104348116 2.79999995
v -3.33117366 2.57153392 0
v -3.33117366 2.57153392 2.79999995
v -3.33117366 0.104348116 0
v -5.84713507 2.57153392 2.22000074
v -4.86713552 2.57153392 2.22000074
v -4.86713552 2.42153382 2.22000074
v -5.84713507 2.42153382 2.22000074
v -7.65095234 4.85255241 2.22000074
v -7.65095234 3.87255263 2.22000074
v -7.80095196 3.87255263 2.22000074
v -7.80095196 4.85255241 2.22000074
v -7.65095234 4.85255241 1.48814511
v -7.65095234 4.85255241 2.22000074
v -7.80095196 4.85255241 2.22000074
v -7.80095196 4.85255241 1.48814511
v -7.65095234 4.85255289 0.0200001113
v -7.80095196 4.85255289 0.0200001113
v 5.78298998 -2.31964111 0
v 5.78296328 -2.31961417 0.00100000005
v 5.70799017 -2.2446413 0.000999855925
v 5.70799017 -2.2446413 0
v 5.78296328 -2.31961441 0.000999855925
v 5.78298998 -2.31964111 0
v 5.78298998 -2.31964111 0.00100000005
v 0.646025538 2.94235206 0
v 0.646025538 3.0173521 2.79999995
v 0.646025538 3.0173521 0
v 0.646025538 2.94235206 2.79999995
v -7.72595215 2.49653387 2.79999995
v -7.65095234 2.57153392 0
v -7.65095234 2.57153392 2.79999995
v -7.72595215 2.49653387 0
v -5.84713507 2.57153392 1.7689656
v -5.84713507 2.57153392 2.22000074
v -5.84713507 2.42153382 2.22000074
v -5.84713507 2.42153382 1.7689656
v -5.84713507 2.57153392 0.0200001299
v -5.84713507 2.42153382 0.0200001299
v -1.1809268 7.44010019 0.000999868498
v -1.1809268 7.44010019 0
v -1.18034399 7.44010019 0.00100000005
v -1.1809268 7.44010019 0.00100000005
v -2.25938392 7.44010019 0.000999981188
v -2.26092672 7.44010019 0
v -2.26092672 7.44010019 0.000999981188
v -2.25938392 7.44010019 0.00100000005
v -1.18034422 7.44010019 0.000999855925
v 0.450787902 7.44010019 0
v 0.450787902 7.44010019 0.00100000005
v -2.92538333 7.44010019 0.00100007094
v -2.92574024 7.44010019 0
v -2.92574024 7.44010019 0.00100004766
v -2.92538357 7.44010019 0.00100000005
v -2.92574048 7.44010019 0.00100000005
v -4.00419712 7.44010019 0.000999981188
v -4.00574017 7.44010019 0
v -4.00574017 7.44010019 0.000999981188
v -4.00419712 7.44010019 0.00100000005
v -4.00574017 7.44010019 0.00100000005
v -4.58241701 7.44010019 0.00100004987
v -4.58287477 7.44010019 0
v -4.58287477 7.44010019 0.00100003462
v -4.58241653 7.44010019 0.00100000005
v -4.58287477 7.44010019 0.00100000005
v -5.66133213 7.44010019 0.000999981188
v -7.65095282 7.44010019 0
v -7.64805889 7.44010019 0.00100000005
v -7.65024281 7.44010019 0.000999855925
v -7.65024233 7.44010019 0.00100000005
v -7.65095282 7.44010019 0.000999855925
v -7.64805937 7.44010019 0.000999966636
v -5.6628747 7.44010019 0
v -5.66287422 7.44010019 0.00100000005
v -5.6628747 7.44010019 0.000999966636
v -5.66133213 7.44010019 0.00100000005
v -2.26092672 7.44010019 0
v -2.26092696 7.44010019 0.00100000005
v -2.92538333 7.44010019 0.00100007094
v -5.66133213 7.44010019 0.000999981188
v -5.6628747 7.44010019 0
v -4.58287477 7.44010019 0
v -7.65095234 4.85255241 1.48814511
v -7.65095234 7.44010019 0
v -7.65095234 7.44010019 2.79999995
v -7.65095234 4.85255289 0.0200001113
v -7.65095234 4.85255241 2.22000074
v -7.65095234 3.87255287 0.0200001113
v -7.65095234 2.57153392 0
v -7.65095234 2.57153392 2.79999995
v -7.65095234 3.87255263 2.22000074
v -7.65095234 3.87255263 2.05176067
v 5.70799017 2.94235206 0
v 5.70801687 2.94237876 0.00100000005
v 5.78298998 3.0173521 0.000999855925
v 5.78298998 3.0173521 0
v 5.70801687 2.94237876 0.000999855925
v 5.70799017 2.94235206 0
v 5.70799017 2.94235206 0.00100000005
v 5.70799017 -1.77682686 0
v 5.70799017 -2.2446413 0
v 5.70799017 -2.24278879 0.00100000005
v 5.70799017 -1.77682686 0.000999983051
v 5.70799017 -2.24278879 0.000999983866
v 5.70799017 -2.24447441 0.00100000005
v 5.70799017 -1.77528393 0.000999981188
v 5.70799017 -1.77682686 0.00100000005
v 5.70799017 -0.696826935 0.000999981188
v 5.70799017 -0.696826935 0
v 5.70799017 -0.403362274 0
v 5.70799017 -0.696826935 0.00100000005
v 5.70799017 -0.403713524 0.00100001157
v 5.70799017 0.67663765 0.000999981188
v 5.70799017 0.67663765 0
v 5.70799017 1.05301857 0
v 5.70799017 0.67663765 0.00100000005
v 5.70799017 1.05277991 0.00100008538
v 5.70799017 2.13301849 0.000999981188
v 5.70799017 2.13301849 0
v 5.70799017 2.1333077 0.00100000005
v 5.70799017 2.94235206 0.000999855925
v 5.70799017 2.94235206 0
v 5.70799017 -2.24447417 0.000999855925
v 5.70799017 -2.2446413 0
v 5.70799017 -2.2446413 0.00100000005
v 5.70799017 -0.403362274 0
v 5.70799017 -0.403713495 0.00100000005
v 5.70799017 -0.403362274 0.000999974087
v 5.70799017 2.13301849 0
v 5.70799017 2.13301849 0.00100000005
v 5.70799017 2.13330746 0.000999855925
v 5.70799017 -1.77682686 0
v 5.70799065 -1.77528405 0.00100000005
v 5.70799017 -0.696826935 0.000999981188
v 5.70799017 1.05301857 0
v 5.70799017 1.05277979 0.00100000005
v 5.70799017 1.05301857 0.00100002228
v 5.70799017 1.05301857 0
v 5.70799065 1.0545615 0.00100000005
v 5.70799017 2.13301849 0.000999981188
v 5.70799017 1.05456138 0.000999981188
v 5.70799017 1.05301857 0
v 5.70799065 1.05301857 0.00100000005
v 5.70799017 -0.403362274 0
v 5.70799065 -0.401819408 0.00100000005
v 5.70799017 0.67663765 0.000999981188
v 5.70799017 -0.401819438 0.000999981188
v 5.70799017 -0.403362274 0
v 5.70799065 -0.403362274 0.00100000005
f 1 2 3
f 2 1 4
f 5 6 7
f 6 5 8
f 9 10 11
f 10 9 12
f 13 14 15
f 13 15 16
f 17 13 16
f 17 16 18
f 19 20 21
f 21 20 22
f 21 22 23
f 19 21 24
f 23 25 21
f 19 24 26
f 23 26 25
f 26 27 19
f 23 28 26
f 26 28 27
f 29 30 31
f 30 29 32
f 33 34 35
f 34 33 36
f 37 38 39
f 39 40 37
f 41 42 43
f 44 45 46
f 44 46 47
f 48 44 47
f 48 47 49
f 50 51 52
f 51 50 53
f 54 55 56
f 55 54 57
f 58 59 60
f 59 58 61
f 62 63 64
f 65 62 64
f 66 64 63
f 64 67 65
f 66 63 68
f 67 69 65
f 70 66 68
f 67 70 69
f 68 71 70
f 71 69 70
f 72 73 74
f 72 74 75
f 76 77 78
f 76 78 79
f 80 81 82
f 81 80 83
f 84 85 86
f 86 87 84
f 88 89 90
f 91 92 93
f 92 91 94
f 95 96 97
f 95 97 98
f 99 100 101
f 99 101 102
f 103 104 105
f 103 105 106
f 107 103 106
f 107 106 108
f 109 110 111
f 111 112 109
f 113 114 115
f 116 117 118
f 117 116 119
f 120 121 122
f 121 120 123
f 124 125 126
f 124 126 127
f 128 124 127
f 128 127 129
f 130 131 132
f 131 133 134
f 134 135 131
f 136 135 137
f 138 131 139
f 139 140 138
f 141 142 135
f 143 142 144
f 142 145 146
f 146 147 142
f 148 147 149
f 147 150 151
f 151 152 147
f 153 152 154
f 152 155 156
f 157 158 159
f 157 160 161
f 162 157 163
f 163 164 162
f 165 163 166
f 167 168 169
f 170 171 172
f 173 174 175
f 174 173 176
f 177 173 175
f 174 176 178
f 179 174 178
f 175 180 177
f 178 180 179
f 180 181 177
f 178 182 180
f 180 182 181
f 183 184 185
f 185 186 183
f 187 188 189
f 190 191 192
f 192 193 190
f 194 191 195
f 196 190 197
f 198 199 190
f 200 199 201
f 201 202 200
f 203 204 200
f 205 204 206
f 206 207 205
f 208 209 205
f 209 210 211
f 211 212 209
f 213 214 215
f 216 217 218
f 219 220 221
f 222 223 224
f 225 226 227
f 228 229 230
f 231 232 233
f 234 235 236
f 237 238 239
