v 0.525787771 7.51512671 0.00100000005
v 0.52578783 7.59009981 2.79999995
v 0.52578783 7.59009981 0.000999855925
v 0.52578783 7.59009981 2.79999995
v 0.52578783 7.51512671 0.000999855925
v 0.525787771 7.5151 0.00100000005
v 0.52578783 7.5151 2.79999995
v 7.39927626 7.5151 2.79999995
v 7.47424936 7.59007311 0.000999855925
v 7.47427607 7.59009981 0.00100000005
v 7.47427607 7.59009981 2.79999995
v 7.47424936 7.59007311 0.00100000005
v 7.39927626 7.5151 2.79999995
v 7.39927626 7.5151 0.000999855925
v 3.0302043 7.59009981 1.04615331
v 3.0302043 7.59009981 0.699999988
v 3.0302043 7.5151 0.699999988
v 3.0302043 7.59009981 1.04615319
v 3.0302043 7.5151 0.699999988
v 3.0302043 7.5151 2.20000005
v 3.0302043 7.59009981 1.04615319
v 3.0302043 7.5151 2.20000005
v 3.0302043 7.59009981 2.20000005
v 5.11305285 7.59009981 1.85384691
v 5.11305285 7.5151 2.20000005
v 5.11305285 7.5151 0.699999988
v 5.11305285 7.59009981 1.85384691
v 5.11305285 7.5151 0.699999988
v 5.11305285 7.59009981 0.699999988
v 5.11305285 7.59009981 1.85384679
v 5.11305285 7.59009981 2.20000005
v 5.11305285 7.5151 2.20000005
v 1.95020437 7.59009981 2.22600937
v 0.52578783 7.59009981 2.79999995
v 1.95020437 7.59009981 2.79999995
v 0.52578783 7.59009981 2.79999995
v 1.95020437 7.59009981 2.22600937
v 1.95020437 7.59009981 0.000999880256
v 1.94969559 7.59009981 0.00100000005
v 0.52578783 7.59009981 2.79999995
v 1.94969571 7.59009981 0.000999855925
v 0.525787771 7.59009981 0.00100000005
v 7.47179413 7.59009981 0.00100000005
v 6.19305277 7.59009981 0.516288519
v 6.19305277 7.59009981 2.79999995
v 6.19305277 7.59009981 2.79999995
v 7.47381878 7.59009981 0.000999855925
v 7.47179413 7.59009981 0.00100000005
v 7.4738183 7.59009981 0.00100000005
v 6.19305277 7.59009981 2.79999995
v 7.47427607 7.59009981 2.79999995
v 7.47427607 7.59009981 0.000999855925
v 6.19305277 7.59009981 0.516288579
v 7.47179413 7.59009981 0.000999975018
v 6.19305277 7.59009981 0.00100000005
v 5.11305285 7.59009981 0.951490998
v 3.0302043 7.59009981 1.79080677
v 3.0302043 7.59009981 2.79999995
v 5.11305285 7.59009981 0.951490998
v 3.0302043 7.59009981 2.79999995
v 5.11305285 7.59009981 2.79999995
v 3.0302043 7.59009981 1.79080677
v 5.11305285 7.59009981 0.951491117
v 5.11305285 7.59009981 0.000999968732
v 5.11188984 7.59009981 0.00100000005
v 3.0302043 7.59009981 1.79080677
v 5.11188984 7.59009981 0.0010000508
v 3.0302043 7.59009981 0.00100000005
v 6.19305277 7.59009981 2.20000005
v 5.11305285 7.59009981 2.20000005
v 5.11305285 7.59009981 2.79999995
v 6.19305277 7.59009981 2.20000005
v 5.11305285 7.59009981 2.79999995
v 6.19305277 7.59009981 2.79999995
v 3.0302043 7.59009981 2.20000005
v 2.01474905 7.59009981 2.20000005
v 1.95020437 7.59009981 2.22600937
v 3.0302043 7.59009981 2.20000005
v 1.95020437 7.59009981 2.22600937
v 1.95020437 7.59009981 2.79999995
v 3.0302043 7.59009981 2.20000005
v 1.95020437 7.59009981 2.79999995
v 3.0302043 7.59009981 2.79999995
v 1.95020437 7.59009981 2.20000005
v 1.95020437 7.59009981 2.22600937
v 2.01474905 7.59009981 2.20000005
v 6.19305277 7.59009981 0.699999988
v 6.19305277 7.59009981 0.516288519
v 5.73715401 7.59009981 0.699999988
v 5.11305285 7.59009981 0.699999988
v 5.73715401 7.59009981 0.699999988
v 6.19305277 7.59009981 0.516288579
v 5.11305285 7.59009981 0.699999988
v 6.19305277 7.59009981 0.516288579
v 6.19305277 7.59009981 0.000999975018
v 6.19150972 7.59009981 0.00100000005
v 5.11305285 7.59009981 0.699999988
v 6.19150972 7.59009981 0.000999981188
v 5.11305285 7.59009981 0.00100000005
v 1.95020437 7.59009981 0.700000048
v 3.0302043 7.59009981 0.699999988
v 3.0302043 7.59009981 0.000999981188
v 3.02866149 7.59009981 0.00100000005
v 1.95020437 7.59009981 0.700000048
v 3.02866149 7.59009981 0.000999981188
v 1.95020449 7.59009981 0.00100000005
v 5.94382238 7.59009981 0.699999988
v 6.19305277 7.5151 0.699999988
v 6.19305277 7.59009981 0.699999988
v 5.94382238 7.59009981 0.699999988
v 5.11305285 7.59009981 0.699999988
v 5.11305285 7.5151 0.699999988
v 5.94382238 7.59009981 0.699999988
v 5.11305285 7.5151 0.699999988
v 6.19305277 7.5151 0.699999988
v 2.78097391 7.59009981 0.699999988
v 3.0302043 7.5151 0.699999988
v 3.0302043 7.59009981 0.699999988
v 2.78097391 7.59009981 0.699999988
v 1.95020437 7.59009981 0.699999988
v 1.95020437 7.5151 0.699999988
v 2.78097391 7.59009981 0.699999988
v 1.95020437 7.5151 0.699999988
v 3.0302043 7.5151 0.699999988
v 5.36228323 7.59009981 2.20000005
v 5.11305285 7.5151 2.20000005
v 5.11305285 7.59009981 2.20000005
v 5.36228323 7.59009981 2.20000005
v 6.19305277 7.59009981 2.20000005
v 6.19305277 7.5151 2.20000005
v 5.36228323 7.59009981 2.20000005
v 6.19305277 7.5151 2.20000005
v 5.11305285 7.5151 2.20000005
v 2.19943476 7.59009981 2.20000005
v 1.95020437 7.5151 2.20000005
v 1.95020437 7.59009981 2.20000005
v 2.19943476 7.59009981 2.20000005
v 3.0302043 7.59009981 2.20000005
v 3.0302043 7.5151 2.20000005
v 2.19943476 7.59009981 2.20000005
v 3.0302043 7.5151 2.20000005
v 1.95020437 7.5151 2.20000005
v 6.19305277 7.59009981 1.04615331
v 6.19305277 7.59009981 0.699999988
v 6.19305277 7.5151 0.699999988
v 6.19305277 7.59009981 1.04615319
v 6.19305277 7.5151 0.699999988
v 6.19305277 7.5151 2.20000005
v 6.19305277 7.59009981 1.04615319
v 6.19305277 7.5151 2.20000005
v 6.19305277 7.59009981 2.20000005
v 1.95020437 7.59009981 1.85384691
v 1.95020437 7.5151 2.20000005
v 1.95020437 7.5151 0.699999988
v 1.95020437 7.59009981 1.85384691
v 1.95020437 7.5151 0.699999988
v 1.95020437 7.59009981 0.699999988
v 1.95020437 7.59009981 1.85384679
v 1.95020437 7.59009981 2.20000005
v 1.95020437 7.5151 2.20000005
vt 21.861658 0.00039999485
vt 21.8239826 1.11999998
vt 21.8239826 0.000399947166
vt 21.8239826 1.11999998
vt 21.861658 0.000399947166
vt 21.8616714 0.00039999485
vt 21.8616714 1.11999998
vt 18.2789756 1.11999998
vt 18.3322568 0.000399947166
vt 18.332274 0.00039999485
vt 18.3322759 1.11999998
vt 18.3322568 0.00039999485
vt 18.2789756 1.11999998
vt 18.2789756 0.000399947166
vt -0.0376884091 0.138461304
vt -0.0376884016 0
vt 0 0
vt -0.0376884016 0.138461256
vt 0 0
vt 0 0.6
vt -0.0376884016 0.138461256
vt 0 0.6
vt -0.0376884091 0.6
vt 0.0376884016 0.461538744
vt 0 0.6
vt 0 0
vt 0.0376884016 0.461538744
vt 0 0
vt 0.0376884091 0
vt 0.0376884091 0.461538696
vt 0.0376884016 0.6
vt 0 0.6
vt 21.1081952 0.890403748
vt 21.8239826 1.11999998
vt 21.1081952 1.11999998
vt 21.8239826 1.11999998
vt 21.1081952 0.890403748
vt 21.1081952 0.000399947166
vt 21.1084502 0.00039999485
vt 21.8239826 1.11999998
vt 21.1084502 0.000399947166
vt 21.8239826 0.00039999485
vt 18.3335239 0.00039999485
vt 18.9761073 0.206515408
vt 18.9761073 1.11999998
vt 18.9761073 1.11999998
vt 18.332506 0.000399947166
vt 18.3335239 0.00039999485
vt 18.332504 0.00039999485
vt 18.9761073 1.11999998
vt 18.3322759 1.11999998
vt 18.3322759 0.000399947166
vt 18.9761073 0.206515431
vt 18.3335219 0.00039999485
vt 18.9761073 0.00039999485
vt 19.5188223 0.380596399
vt 20.5654802 0.716322708
vt 20.5654802 1.11999998
vt 19.5188223 0.380596399
vt 20.5654802 1.11999998
vt 19.5188223 1.11999998
vt 20.5654802 0.716322756
vt 19.5188223 0.380596447
vt 19.5188223 0.00039999485
vt 19.5194069 0.000400018692
vt 20.5654802 0.716322756
vt 19.5194069 0.000400018692
vt 20.5654802 0.000400018692
vt 18.9761073 0.880000019
vt 19.5188223 0.880000019
vt 19.5188223 1.11999998
vt 18.9761073 0.880000019
vt 19.5188223 1.11999998
vt 18.9761073 1.11999998
vt 20.5654802 0.880000019
vt 21.0757607 0.880000019
vt 21.1081952 0.890403748
vt 20.5654802 0.880000019
vt 21.1081952 0.890403748
vt 21.1081952 1.11999998
vt 20.5654802 0.880000019
vt 21.1081952 1.11999998
vt 20.5654802 1.11999998
vt 21.1081952 0.880000114
vt 21.1081952 0.890403748
vt 21.0757607 0.880000114
vt 18.9761073 0.279999995
vt 18.9761073 0.206515408
vt 19.2052021 0.279999995
vt 19.5188223 0.279999995
vt 19.2052021 0.279999995
vt 18.9761073 0.206515431
vt 19.5188223 0.279999995
vt 18.9761073 0.206515431
vt 18.9761073 0.00039999485
vt 18.9768836 0.00039999485
vt 19.5188223 0.279999995
vt 18.9768836 0.00039999485
vt 19.5188223 0.00039999485
vt 21.1081952 0.279999971
vt 20.5654802 0.280000019
vt 20.5654802 0.00039999485
vt 20.5662566 0.00039999485
vt 21.1081952 0.279999971
vt 20.5662547 0.00039999485
vt 21.1081971 0.00039999485
vt -0.146115567 0.370000052
vt -0.271357031 0.4
vt -0.271357031 0.370000052
vt -0.146115552 0.370000052
vt 0.271357031 0.370000052
vt 0.271357031 0.4
vt -0.146115552 0.370000052
vt 0.271357031 0.4
vt -0.271357031 0.4
vt -0.146115567 0.370000052
vt -0.271357031 0.4
vt -0.271357031 0.370000052
vt -0.146115552 0.370000052
vt 0.271357031 0.370000052
vt 0.271357031 0.4
vt -0.146115552 0.370000052
vt 0.271357031 0.4
vt -0.271357031 0.4
vt 0.146115567 0.370000052
vt 0.271357031 0.4
vt 0.271357031 0.370000052
vt 0.146115552 0.370000052
vt -0.271357031 0.370000052
vt -0.271357031 0.4
vt 0.146115552 0.370000052
vt -0.271357031 0.4
vt 0.271357031 0.4
vt 0.146115567 0.370000052
vt 0.271357031 0.4
vt 0.271357031 0.370000052
vt 0.146115552 0.370000052
vt -0.271357031 0.370000052
vt -0.271357031 0.4
vt 0.146115552 0.370000052
vt -0.271357031 0.4
vt 0.271357031 0.4
vt -0.0376884091 0.138461304
vt -0.0376884016 0
vt 0 0
vt -0.0376884016 0.138461256
vt 0 0
vt 0 0.6
vt -0.0376884016 0.138461256
vt 0 0.6
vt -0.0376884091 0.6
vt 0.0376884016 0.461538744
vt 0 0.6
vt 0 0
vt 0.0376884016 0.461538744
vt 0 0
vt 0.0376884091 0
vt 0.0376884091 0.461538696
vt 0.0376884016 0.6
vt 0 0.6
f 1/1 2/2 3/3
f 4/4 5/5 6/6
f 6/6 7/7 4/4
f 8/8 9/9 10/10
f 10/10 11/11 8/8
f 12/12 13/13 14/14
f 15/15 16/16 17/17
f 18/18 19/19 20/20
f 21/21 22/22 23/23
f 24/24 25/25 26/26
f 27/27 28/28 29/29
f 30/30 31/31 32/32
f 33/33 34/34 35/35
f 36/36 37/37 38/38
f 38/38 39/39 36/36
f 40/40 41/41 42/42
f 43/43 44/44 45/45
f 46/46 47/47 48/48
f 49/49 50/50 51/51
f 51/51 52/52 49/49
f 53/53 54/54 55/55
f 56/56 57/57 58/58
f 59/59 60/60 61/61
f 62/62 63/63 64/64
f 64/64 65/65 62/62
f 66/66 67/67 68/68
f 69/69 70/70 71/71
f 72/72 73/73 74/74
f 75/75 76/76 77/77
f 78/78 79/79 80/80
f 81/81 82/82 83/83
f 84/84 85/85 86/86
f 87/87 88/88 89/89
f 90/90 91/91 92/92
f 93/93 94/94 95/95
f 95/95 96/96 93/93
f 97/97 98/98 99/99
f 100/100 101/101 102/102
f 102/102 103/103 100/100
f 104/104 105/105 106/106
f 107/107 108/108 109/109
f 110/110 111/111 112/112
f 113/113 114/114 115/115
f 116/116 117/117 118/118
f 119/119 120/120 121/121
f 122/122 123/123 124/124
f 125/125 126/126 127/127
f 128/128 129/129 130/130
f 131/131 132/132 133/133
f 134/134 135/135 136/136
f 137/137 138/138 139/139
f 140/140 141/141 142/142
f 143/143 144/144 145/145
f 146/146 147/147 148/148
f 149/149 150/150 151/151
f 152/152 153/153 154/154
f 155/155 156/156 157/157
f 158/158 159/159 160/160
