v 0.52578789 0.0293481108 0
v 0.450787902 0.104348116 2.79999995
v 0.450787902 0.104348116 0
v 0.52578789 0.0293481108 2.79999995
v 0.52578789 7.5151 0
v 0.450787902 7.44010019 2.79999995
v 0.52578789 7.5151 2.79999995
v 0.450787902 7.44010019 0
v 0.600787878 7.44010019 0
v 0.52578789 7.5151 2.79999995
v 0.600787878 7.44010019 2.79999995
v 0.52578789 7.5151 0
v 7.39924955 7.5150733 0.000999855925
v 7.39927626 7.5151 0
v 7.39927626 7.5151 0.00100000005
v 7.32427645 7.44010019 0.000999855925
v 7.32427645 7.44010019 0
v 7.39927626 7.5151 0
v 7.39924955 7.5150733 0.00100000005
v 7.32427645 7.44010019 0.000999855925
v 0.450787902 2.24763036 2.22000003
v 0.450787902 2.24763036 1.85344052
v 0.600787878 2.24763036 1.85344052
v 0.600787878 2.24763036 2.22000003
v 0.600787878 2.24763012 0.0200000107
v 0.450787902 2.24763012 0.0200000107
v 0.600787878 5.74943447 1.0888083
v 0.600787878 5.74943447 0.0200000331
v 0.450787902 5.74943447 0.0200000107
v 0.450787902 5.74943447 1.7296555
v 0.600787878 5.74943447 2.22000003
v 0.450787902 5.74943447 2.22000003
v 0.450787902 3.0173521 0
v 0.52578789 3.0173521 2.79999995
v 0.450787902 3.0173521 2.79999995
v 0.52578789 3.0173521 0
v 0.52578789 3.0173521 2.79999995
v 0.600787878 3.09235215 0
v 0.600787878 3.09235215 2.79999995
v 0.52578789 3.0173521 0
v 0.450787902 6.72943497 2.22000003
v 0.450787902 6.52395964 2.22000003
v 0.450787902 7.44010019 2.79999995
v 0.450787902 6.72943449 0.0200000107
v 0.450787902 7.44010019 0
v 0.450787902 3.0173521 2.79999995
v 0.450787902 3.0173521 0
v 0.450787902 5.74943447 2.22000003
v 0.450787902 5.74943447 0.0200000107
v 0.450787902 5.74943447 1.7296555
v 0.450787902 2.24763012 0.0200000107
v 0.450787902 2.24763036 1.85344052
v 0.450787902 2.24763036 2.22000003
v 0.450787902 0.104348116 0
v 0.450787902 1.26763034 2.22000003
v 0.450787902 1.2676301 0.0200000107
v 0.450787902 0.104348116 2.79999995
v 0.450787902 1.26763022 0.911457479
v -3.33117366 0.104348116 0
v -3.33120036 0.104321331 0.00100000005
v -3.33117366 0.104348116 0.000999855925
v -3.3312006 0.104321338 0.000999855925
v -3.33117366 0.104348116 0
v -3.40617371 0.0293481108 0
v -3.40617371 0.0293481108 0
v -3.40617371 0.0293481108 0.00100000005
v -3.3312006 0.104321338 0.000999855925
v 0.600787878 6.72943497 2.22000003
v 0.600787878 6.72943449 0.457676858
v 0.600787878 7.44010019 0
v 0.600787878 6.72943449 0.0200000331
v 0.600787878 5.74943447 0.0200000331
v 0.600787878 7.44010019 2.79999995
v 0.600787878 3.09235215 0
v 0.600787878 3.09235215 2.79999995
v 0.600787878 5.74943447 1.0888083
v 0.600787878 5.74943447 2.22000003
v 0.450787902 6.72943449 0.0200000107
v 0.450787902 5.74943447 0.0200000107
v 0.600787878 5.74943447 0.0200000331
v 0.600787878 6.72943449 0.0200000331
v 0.450787902 2.24763012 0.0200000107
v 0.450787902 1.2676301 0.0200000107
v 0.600787878 1.2676301 0.0200000107
v 0.600787878 2.24763012 0.0200000107
v 0.52578789 3.0173521 0
v 0.450787902 3.0173521 2.79999995
v 0.52578789 3.0173521 2.79999995
v 0.450787902 3.0173521 0
v 0.600787878 6.72943497 2.22000003
v 0.600787878 5.74943447 2.22000003
v 0.450787902 5.74943447 2.22000003
v 0.450787902 6.52395964 2.22000003
v 0.450787902 6.72943497 2.22000003
v 0.450787902 1.26763034 2.22000003
v 0.450787902 2.24763036 2.22000003
v 0.600787878 2.24763036 2.22000003
v 0.600787878 1.26763034 2.22000003
v 0.525814593 7.5150733 0.000999855925
v 0.52578783 7.5151 0
v 0.60078764 7.44010019 0
v 0.60078764 7.44010019 0.00100000005
v 0.52578783 7.5151 0
v 0.525814593 7.5150733 0.00100000005
v 0.52578783 7.5151 0.000999855925
v 0.600787878 6.72943497 2.22000003
v 0.450787902 6.72943497 2.22000003
v 0.450787902 6.72943449 0.0200000107
v 0.600787878 6.72943449 0.457676858
v 0.600787878 6.72943449 0.0200000331
v 0.450787902 1.26763022 0.911457479
v 0.450787902 1.26763034 2.22000003
v 0.600787878 1.26763034 2.22000003
v 0.600787878 1.26763022 0.911457479
v 0.450787902 1.2676301 0.0200000107
v 0.600787878 1.2676301 0.0200000107
v 0.450788021 0.104348116 0
v 0.450814813 0.104321331 0.00100000005
v 0.52578783 0.0293481108 0.000999855925
v 0.52578783 0.0293481108 0
v 0.450814813 0.104321338 0.000999855925
v 0.450788021 0.104348116 0
v 0.450788021 0.104348116 0.00100000005
v 0.60078764 7.44010019 0
v 0.603188813 7.44009972 0.00100000005
v 0.601269543 7.44010019 0.000999855925
v 0.60078764 7.44010019 0
v 0.601269543 7.44010019 0.00100000005
v 0.60078764 7.44010019 0.000999855925
v 0.603188813 7.44010019 0.00099998177
v 1.95020437 7.44010019 0
v 1.95020437 7.44010019 0.00099998177
v 1.9517473 7.44010019 0.00100000005
v 1.95174718 7.44010019 0.000999981188
v 3.0302043 7.44010019 0
v 3.0302043 7.44010019 0.00100001961
v 3.03131294 7.44010019 0.00100000005
v 3.03131294 7.44010019 0.00100009411
v 5.11305285 7.44010019 0
v 5.11305285 7.44010019 0.00100000005
v 5.11305285 7.44010019 0.000999981188
v 5.11459589 7.44010019 0.00100000005
v 5.11459589 7.44010019 0.000999981188
v 6.19305277 7.44010019 0
v 6.19305277 7.44010019 0.00100000005
v 6.19305277 7.44010019 0.000999872456
v 6.19345665 7.44010019 0.00100000005
v 1.95020437 7.44010019 0
v 1.95020425 7.44009972 0.00100000005
v 0.603188813 7.44010019 0.00099998177
v 6.19345665 7.44010019 0.000999855925
v 6.19305277 7.44010019 0
v 7.32427645 7.44010019 0
v 7.32427645 7.44010019 0.00100000005
v 6.19345665 7.44010019 0.000999855925
v 3.0302043 7.44010019 0
v 3.03020453 7.44010019 0.00100000005
v 1.95174718 7.44010019 0.000999981188
v 0.450788021 0.104348116 0
v 0.44943735 0.104348116 0.00100000005
v 0.450558484 0.104348116 0.000999855925
v 0.450558454 0.104348116 0.00100000005
v 0.450788021 0.104348116 0.000999855925
v 0.44943735 0.104348116 0.000999988057
v -0.192051172 0.104348116 0
v -0.192051172 0.104348116 0.00100000005
v -0.192051172 0.104348116 0.000999988057
v -0.193594024 0.104348123 0.00100000005
v -0.193593994 0.104348116 0.000999981188
v -1.2720511 0.104348116 0
v -1.2720511 0.104348123 0.00100000005
v -1.2720511 0.104348116 0.00100005418
v -1.27226961 0.104348116 0.00100000005
v -1.27226961 0.104348116 0.00100004673
v -1.60454082 0.104348116 0
v -1.60454082 0.104348116 0.00100000005
v -1.60454082 0.104348116 0.000999981188
v -1.60608375 0.104348123 0.00100000005
v -1.60608363 0.104348116 0.000999981188
v -2.68454075 0.104348116 0
v -2.68454075 0.104348123 0.00100000005
v -2.68454075 0.104348116 0.000999912736
v -2.68477178 0.104348116 0.00100000005
v -2.68477154 0.104348116 0.000999855925
v -3.33117366 0.104348116 0
v -3.33117366 0.104348116 0.00100000005
f 1 2 3
f 2 1 4
f 5 6 7
f 6 5 8
f 9 10 11
f 10 9 12
f 13 14 15
f 16 17 14
f 18 19 20
f 21 22 23
f 21 23 24
f 22 25 23
f 22 26 25
f 27 28 29
f 27 29 30
f 30 31 27
f 30 32 31
f 33 34 35
f 34 33 36
f 37 38 39
f 38 37 40
f 41 42 43
f 44 41 43
f 44 43 45
f 46 43 42
f 45 47 44
f 46 42 48
f 47 49 44
f 47 50 49
f 48 50 47
f 46 48 47
f 51 46 47
f 51 52 46
f 46 52 53
f 47 54 51
f 46 53 55
f 54 56 51
f 55 57 46
f 55 54 57
f 54 58 56
f 55 58 54
f 59 60 61
f 62 63 64
f 65 66 67
f 68 69 70
f 70 69 71
f 70 71 72
f 68 70 73
f 74 70 72
f 73 75 68
f 72 76 74
f 76 75 74
f 75 76 77
f 75 77 68
f 78 79 80
f 78 80 81
f 82 83 84
f 82 84 85
f 86 87 88
f 87 86 89
f 90 91 92
f 92 93 90
f 93 94 90
f 95 96 97
f 95 97 98
f 99 100 101
f 101 102 99
f 103 104 105
f 106 107 108
f 108 109 106
f 108 110 109
f 111 112 113
f 111 113 114
f 115 111 114
f 115 114 116
f 117 118 119
f 119 120 117
f 121 122 123
f 124 125 126
f 127 128 129
f 130 127 131
f 132 131 133
f 134 131 135
f 136 135 137
f 138 135 139
f 139 140 138
f 141 139 142
f 143 139 144
f 144 145 143
f 146 144 147
f 148 149 150
f 151 152 153
f 153 154 155
f 156 157 158
f 159 160 161
f 159 162 163
f 164 159 165
f 165 166 164
f 167 165 168
f 169 165 170
f 170 171 169
f 172 170 173
f 174 170 175
f 175 176 174
f 177 175 178
f 179 175 180
f 180 181 179
f 182 180 183
f 184 180 185
f 185 186 184
