v -8.89230919 0.0293481108 0
v -8.89228249 0.0293748975 0.00100000005
v -8.81730938 0.104348108 0.000999855925
v -8.81730938 0.104348108 0.000999855925
v -8.81730938 0.104348108 0
v -8.89230919 0.0293481108 0
v -8.89228249 0.0293748938 0.000999855925
v -8.89230919 0.0293481108 0.00100000005
v -3.40620041 0.0293748938 0.000999855925
v -3.40617371 0.0293481108 0
v -3.48117375 0.104348108 0
v -3.48117375 0.104348108 0.00100000005
v -3.40617371 0.0293481108 0
v -3.40620065 0.0293748975 0.00100000005
v -3.40617371 0.0293481108 0.000999855925
v -3.48117375 0.104348108 0
v -3.48307943 0.104348108 0.00100000005
v -3.48117375 0.104348108 0.000999855925
v -3.4830792 0.104348108 0.000999855925
v -8.81730938 0.104348108 0
v -8.81730938 0.104348108 0.00100000005
vt 24.0083313 0
vt 24.008255 0.00357138402
vt 23.7961998 0.00357095827
vt 23.7961998 0.00357095827
vt 23.7961998 0
vt 24.0083313 0
vt 24.008255 0.00357095827
vt 24.0083294 0.00357138402
vt 12.911871 0.00357095827
vt 12.9117956 0
vt 13.1239281 0
vt 13.1239281 0.00357138402
vt 12.9117956 0
vt 12.9118719 0.00357138402
vt 12.9117956 0.00357095827
vt 13.1239281 0
vt 13.127739 0.00357138402
vt 13.1239281 0.00357095827
vt 13.127739 0.00357095827
vt 23.7961998 0
vt 23.7961998 0.00357138402
f 1/1 2/2 3/3
f 4/4 5/5 6/6
f 7/7 6/6 8/8
f 9/9 10/10 11/11
f 11/11 12/12 9/9
f 13/13 14/14 15/15
f 16/16 17/17 18/18
f 19/19 16/16 20/20
f 20/20 21/21 19/19
