v -3.40617371 -0.0456518829 2.79999995
v -3.40617371 0.0293213297 0.000999855925
v -3.40617371 0.0293481108 0.00100000005
v -3.40617371 0.0293481108 2.79999995
v -3.40617371 0.0293213259 0.00100000005
v -3.40617371 -0.0456518829 0.000999855925
v -8.89230919 -0.0456250943 0.00100000005
v -8.89230919 0.0293481108 2.79999995
v -8.89230919 0.0293481108 0.000999855925
v -8.89230919 -0.0456518829 0.00100000005
v -8.89230919 -0.0456518829 2.79999995
v -8.89230919 -0.0456251018 0.000999855925
v -8.89035034 -0.0456518829 0.00100000005
v -3.40617371 -0.0456518829 2.79999995
v -8.89230919 -0.0456518829 2.79999995
v -8.89230919 -0.0456518829 0.000999855925
v -8.89034939 -0.0456518829 0.000999855925
v -3.40617371 -0.0456518829 0.00100000005
vt 6.66684918 1.11999998
vt 6.70452414 0.000399947166
vt 6.70453708 0.00039999485
vt 6.70453756 1.11999998
vt 6.70452366 0.00039999485
vt 6.66684918 0.000399947166
vt 3.90998136 0.00039999485
vt 3.8723064 1.11999998
vt 3.8723064 0.000399947166
vt 3.90999478 0.00039999485
vt 3.90999478 1.11999998
vt 3.90998136 0.000399947166
vt 3.91097936 0.00039999485
vt 6.66684918 1.11999998
vt 3.90999478 1.11999998
vt 3.90999478 0.000399947166
vt 3.91097912 0.000399947166
vt 6.66684918 0.00039999485
f 1/1 2/2 3/3
f 3/3 4/4 1/1
f 5/5 1/1 6/6
f 7/7 8/8 9/9
f 10/10 11/11 8/8
f 8/8 12/12 10/10
f 13/13 14/14 15/15
f 15/15 16/16 13/13
f 14/14 17/17 18/18
