v 1.3592031 -0.5568645 0.755962014
v 1.3592031 -0.5568645 0.775961995
v 1.3592031 -0.558864534 0.775961995
v 1.3592031 -0.558864534 0.755962014
v 1.3592031 -0.5568645 0.435961992
v 1.3592031 -0.5568645 0.455962002
v 1.3592031 -0.558864534 0.455962002
v 1.3592031 -0.558864534 0.435961992
v -1.29443908 0.196863174 0.775961995
v -1.29443908 0.196863174 0.755962014
v -1.29615927 0.195842788 0.755962014
v -1.29615927 0.195842788 0.775961995
v -1.29443908 0.196863174 0.455962002
v -1.29443908 0.196863174 0.435961992
v -1.29615927 0.195842788 0.435961992
v -1.29615927 0.195842788 0.455962002
v 0.0110165579 -0.557803512 0.77490139
v 0.00819204189 -0.558716774 0.775961995
v 0.00819204189 -0.558716774 0.755962014
v 0.0110165579 -0.557803512 0.757022679
v 0.0110165579 -0.557803512 0.454901338
v 0.00819204189 -0.558716774 0.455962002
v 0.00819204189 -0.558716774 0.435961992
v 0.0110165579 -0.557803512 0.437022656
v 0.0110690296 -0.555804193 0.77490139
v 0.00824455172 -0.556717515 0.775961995
v 0.00819204189 -0.558716774 0.775961995
v 0.00819204189 -0.558716774 0.775961995
v 0.0110165579 -0.557803512 0.77490139
v 0.0110690296 -0.555804193 0.77490139
v 0.0110165579 -0.557803512 0.437022656
v 0.00819204189 -0.558716774 0.435961992
v 0.00824455172 -0.556717515 0.435961992
v 0.00824455172 -0.556717515 0.435961992
v 0.0110690296 -0.555804193 0.437022656
v 0.0110165579 -0.557803512 0.437022656
v 0.0196647253 -0.558864534 0.775961995
v 0.0137891565 -0.558864057 0.775961995
v 0.0137891565 -0.558864057 0.755962014
v 0.0196647253 -0.558864534 0.755962014
v 1.3592031 -0.558864534 0.755962014
v 1.3592031 -0.558864534 0.775961995
v 0.0196647253 -0.558864534 0.435961992
v 0.0196647253 -0.558864534 0.455962002
v 0.0137891565 -0.558864057 0.455962002
v 0.0137891565 -0.558864057 0.435961992
v 1.3592031 -0.558864534 0.435961992
v 1.3592031 -0.558864534 0.455962002
v 1.34446919 -0.532667398 1.08500004
v 0.0196609292 -0.532667398 1.08500004
v 0.0196609292 -0.532667398 -1.18275922e-16
v 1.34446919 -0.532667398 -1.18275922e-16
v 0.0196609292 -0.532667398 1.08500004
v 0.0108688911 -0.532663941 1.08500004
v 0.0108688911 -0.532663941 -1.18275154e-16
v 0.0196609292 -0.532667398 -1.18275922e-16
v 1.3592031 -0.5568645 0.775961995
v 0.0196647253 -0.5568645 0.775961995
v 0.0196647253 -0.558864534 0.775961995
v 1.3592031 -0.558864534 0.775961995
v 0.0138416663 -0.5568645 0.775961995
v 0.0137891565 -0.558864057 0.775961995
v -0.147201791 -0.548547864 0.775961995
v -0.147411078 -0.550536871 0.775961995
v 0.00819204189 -0.558716774 0.775961995
v 0.00824455172 -0.556717515 0.775961995
v -0.302418023 -0.525969625 0.775961995
v -0.302002907 -0.524013221 0.775961995
v -0.452883065 -0.485786527 0.775961995
v -0.452268243 -0.483883381 0.775961995
v -0.597710848 -0.430611402 0.775961995
v -0.59690398 -0.42878136 0.775961995
v -0.735806167 -0.361067951 0.775961995
v -0.734816432 -0.359330028 0.775961995
v -0.866074026 -0.277779877 0.775961995
v -0.864911735 -0.276152253 0.775961995
v -0.987419069 -0.18137081 0.775961995
v -0.986095965 -0.179871023 0.775961995
v -1.0987463 -0.072464332 0.775961995
v -1.0972755 -0.0711091235 0.775961995
v -1.1989603 0.0483155847 0.775961995
v -1.19735646 0.0495104231 0.775961995
v -1.28693783 0.18029964 0.775961995
v -1.28524518 0.181364864 0.775961995
v -1.29615927 0.195842788 0.775961995
v -1.29443908 0.196863174 0.775961995
v -1.29443908 0.196863174 0.435961992
v -1.28524518 0.181364864 0.435961992
v -1.28693783 0.18029964 0.435961992
v -1.29615927 0.195842788 0.435961992
v -1.1989603 0.0483155847 0.435961992
v -1.19735646 0.0495104231 0.435961992
v -1.0987463 -0.072464332 0.435961992
v -1.0972755 -0.0711091235 0.435961992
v -0.987419069 -0.18137081 0.435961992
v -0.986095965 -0.179871023 0.435961992
v -0.866074026 -0.277779877 0.435961992
v -0.864911735 -0.276152253 0.435961992
v -0.735806167 -0.361067951 0.435961992
v -0.734816432 -0.359330028 0.435961992
v -0.597710848 -0.430611402 0.435961992
v -0.59690398 -0.42878136 0.435961992
v -0.452883065 -0.485786527 0.435961992
v -0.452268243 -0.483883381 0.435961992
v -0.302418023 -0.525969625 0.435961992
v -0.302002907 -0.524013221 0.435961992
v -0.147411078 -0.550536871 0.435961992
v -0.147201791 -0.548547864 0.435961992
v 0.00824455172 -0.556717515 0.435961992
v 0.00819204189 -0.558716774 0.435961992
v 0.0138416663 -0.5568645 0.435961992
v 0.0196647253 -0.5568645 0.435961992
v 0.0196647253 -0.558864534 0.435961992
v 0.0137891565 -0.558864057 0.435961992
v 1.3592031 -0.558864534 0.435961992
v 1.3592031 -0.5568645 0.435961992
v -1.28693783 0.18029964 0.755962014
v -1.28693783 0.18029964 0.775961995
v -1.29615927 0.195842788 0.775961995
v -1.29615927 0.195842788 0.755962014
v -1.1989603 0.0483155847 0.755962014
v -1.1989603 0.0483155847 0.775961995
v -1.0987463 -0.072464332 0.755962014
v -1.0987463 -0.072464332 0.775961995
v -0.987419069 -0.18137081 0.755962014
v -0.987419069 -0.18137081 0.775961995
v -0.866074026 -0.277779877 0.755962014
v -0.866074026 -0.277779877 0.775961995
v -0.735806167 -0.361067951 0.755962014
v -0.735806167 -0.361067951 0.775961995
v -0.597710848 -0.430611402 0.755962014
v -0.597710848 -0.430611402 0.775961995
v -0.452883065 -0.485786527 0.755962014
v -0.452883065 -0.485786527 0.775961995
v -0.302418023 -0.525969625 0.755962014
v -0.302418023 -0.525969625 0.775961995
v -0.147411078 -0.550536871 0.755962014
v -0.147411078 -0.550536871 0.775961995
v 0.00819204189 -0.558716774 0.755962014
v 0.00819204189 -0.558716774 0.775961995
v -1.29615927 0.195842788 0.455962002
v -1.29615927 0.195842788 0.435961992
v -1.28693783 0.18029964 0.435961992
v -1.28693783 0.18029964 0.455962002
v -1.1989603 0.0483155847 0.435961992
v -1.1989603 0.0483155847 0.455962002
v -1.0987463 -0.072464332 0.435961992
v -1.0987463 -0.072464332 0.455962002
v -0.987419069 -0.18137081 0.435961992
v -0.987419069 -0.18137081 0.455962002
v -0.866074026 -0.277779877 0.435961992
v -0.866074026 -0.277779877 0.455962002
v -0.735806167 -0.361067951 0.435961992
v -0.735806167 -0.361067951 0.455962002
v -0.597710848 -0.430611402 0.435961992
v -0.597710848 -0.430611402 0.455962002
v -0.452883065 -0.485786527 0.435961992
v -0.452883065 -0.485786527 0.455962002
v -0.302418023 -0.525969625 0.435961992
v -0.302418023 -0.525969625 0.455962002
v -0.147411078 -0.550536871 0.435961992
v -0.147411078 -0.550536871 0.455962002
v 0.00819204189 -0.558716774 0.455962002
v 0.00819204189 -0.558716774 0.435961992
v -1.17799067 0.0640282482 1.08500004
v -1.26434517 0.19356674 1.08500004
v -1.26434517 0.19356674 3.39834888e-12
v -1.17799067 0.0640282482 1.42171271e-17
v -1.07950461 -0.0546773709 1.08500004
v -1.07950461 -0.0546773709 -1.21408152e-17
v -0.970101416 -0.161709532 1.08500004
v -0.970101416 -0.161709532 -3.32162314e-12
v -0.850856245 -0.256455481 1.08500004
v -0.850856245 -0.256455481 3.3135879e-12
v -0.722843647 -0.338303626 1.08500004
v -0.722843647 -0.338303626 -7.51184949e-17
v -0.58713764 -0.406642497 1.08500004
v -0.58713764 -0.406642497 -9.02927725e-17
v -0.44481191 -0.460860431 1.08500004
v -0.44481191 -0.460860431 -1.02331572e-16
v -0.296940595 -0.500345469 1.08500004
v -0.296940595 -0.500345469 8.40933931e-13
v -0.144599453 -0.524485111 1.08500004
v -0.144599453 -0.524485111 -1.16459089e-16
v 0.0108688911 -0.532663941 1.08500004
v 0.0108688911 -0.532663941 -1.18275154e-16
v 0.0110690296 -0.555804193 0.454901338
v 0.00824455172 -0.556717515 0.455962002
v 0.00819204189 -0.558716774 0.455962002
v 0.00819204189 -0.558716774 0.455962002
v 0.0110165579 -0.557803512 0.454901338
v 0.0110690296 -0.555804193 0.454901338
v 0.0110165579 -0.557803512 0.757022679
v 0.0137891565 -0.558864057 0.755962014
v 0.0137891565 -0.558864057 0.775961995
v 0.0110165579 -0.557803512 0.77490139
v 0.0110165579 -0.557803512 0.437022656
v 0.0137891565 -0.558864057 0.435961992
v 0.0137891565 -0.558864057 0.455962002
v 0.0110165579 -0.557803512 0.454901338
v 0.0110165579 -0.557803512 0.757022679
v 0.00819204189 -0.558716774 0.755962014
v 0.00824455172 -0.556717515 0.755962014
v 0.00824455172 -0.556717515 0.755962014
v 0.0110690296 -0.555804193 0.757022679
v 0.0110165579 -0.557803512 0.757022679
v 0.0110165579 -0.557803512 0.77490139
v 0.0137891565 -0.558864057 0.775961995
v 0.0138416663 -0.5568645 0.775961995
v 0.0138416663 -0.5568645 0.775961995
v 0.0110690296 -0.555804193 0.77490139
v 0.0110165579 -0.557803512 0.77490139
v 0.0110690296 -0.555804193 0.437022656
v 0.0138416663 -0.5568645 0.435961992
v 0.0137891565 -0.558864057 0.435961992
v 0.0137891565 -0.558864057 0.435961992
v 0.0110165579 -0.557803512 0.437022656
v 0.0110690296 -0.555804193 0.437022656
v -1.28524518 0.181364864 0.455962002
v -1.29443908 0.196863174 0.455962002
v -1.29615927 0.195842788 0.455962002
v -1.28693783 0.18029964 0.455962002
v -1.19735646 0.0495104231 0.455962002
v -1.1989603 0.0483155847 0.455962002
v -1.0972755 -0.0711091235 0.455962002
v -1.0987463 -0.072464332 0.455962002
v -0.986095965 -0.179871023 0.455962002
v -0.987419069 -0.18137081 0.455962002
v -0.864911735 -0.276152253 0.455962002
v -0.866074026 -0.277779877 0.455962002
v -0.734816432 -0.359330028 0.455962002
v -0.735806167 -0.361067951 0.455962002
v -0.59690398 -0.42878136 0.455962002
v -0.597710848 -0.430611402 0.455962002
v -0.452268243 -0.483883381 0.455962002
v -0.452883065 -0.485786527 0.455962002
v -0.302002907 -0.524013221 0.455962002
v -0.302418023 -0.525969625 0.455962002
v -0.147201791 -0.548547864 0.455962002
v -0.147411078 -0.550536871 0.455962002
v 0.00819204189 -0.558716774 0.455962002
v 0.00824455172 -0.556717515 0.455962002
v 1.3592031 -0.5568645 0.455962002
v 0.0196647253 -0.5568645 0.455962002
v 0.0196647253 -0.558864534 0.455962002
v 1.3592031 -0.558864534 0.455962002
v 0.0138416663 -0.5568645 0.455962002
v 0.0137891565 -0.558864057 0.455962002
v -1.29443908 0.196863174 0.755962014
v -1.28524518 0.181364864 0.755962014
v -1.28693783 0.18029964 0.755962014
v -1.29615927 0.195842788 0.755962014
v -1.1989603 0.0483155847 0.755962014
v -1.19735646 0.0495104231 0.755962014
v -1.0987463 -0.072464332 0.755962014
v -1.0972755 -0.0711091235 0.755962014
v -0.987419069 -0.18137081 0.755962014
v -0.986095965 -0.179871023 0.755962014
v -0.866074026 -0.277779877 0.755962014
v -0.864911735 -0.276152253 0.755962014
v -0.735806167 -0.361067951 0.755962014
v -0.734816432 -0.359330028 0.755962014
v -0.597710848 -0.430611402 0.755962014
v -0.59690398 -0.42878136 0.755962014
v -0.452883065 -0.485786527 0.755962014
v -0.452268243 -0.483883381 0.755962014
v -0.302418023 -0.525969625 0.755962014
v -0.302002907 -0.524013221 0.755962014
v -0.147411078 -0.550536871 0.755962014
v -0.147201791 -0.548547864 0.755962014
v 0.00824455172 -0.556717515 0.755962014
v 0.00819204189 -0.558716774 0.755962014
v 0.0138416663 -0.5568645 0.755962014
v 0.0196647253 -0.5568645 0.755962014
v 0.0196647253 -0.558864534 0.755962014
v 0.0137891565 -0.558864057 0.755962014
v 1.3592031 -0.558864534 0.755962014
v 1.3592031 -0.5568645 0.755962014
v 0.0110165579 -0.557803512 0.454901338
v 0.0137891565 -0.558864057 0.455962002
v 0.0138416663 -0.5568645 0.455962002
v 0.0138416663 -0.5568645 0.455962002
v 0.0110690296 -0.555804193 0.454901338
v 0.0110165579 -0.557803512 0.454901338
v 0.0110690296 -0.555804193 0.757022679
v 0.0138416663 -0.5568645 0.755962014
v 0.0137891565 -0.558864057 0.755962014
v 0.0137891565 -0.558864057 0.755962014
v 0.0110165579 -0.557803512 0.757022679
v 0.0110690296 -0.555804193 0.757022679
vt 1 0.34375006
vt 1 0.322916687
vt 1 0.322916687
vt 1 0.34375006
vt 1 0.677083373
vt 1 0.65625
vt 1 0.65625
vt 1 0.677083373
vt 0 0.322916627
vt 0 0.34375
vt 0 0.34375
vt 0 0.322916627
vt 0 0.65625
vt 0 0.677083254
vt 0 0.677083254
vt 0 0.65625
vt 0.541595221 0.322916687
vt 0.54063493 0.322916687
vt 0.54063493 0.34375006
vt 0.541595221 0.34375006
vt 0.541595221 0.65625
vt 0.54063493 0.65625
vt 0.54063493 0.677083373
vt 0.541595221 0.677083373
vt 0.541595221 0.322916687
vt 0.540633976 0.322916687
vt 0.54063493 0.322916687
vt 0.54063493 0.322916687
vt 0.541595221 0.322916687
vt 0.541595221 0.322916687
vt 0.541595221 0.677083373
vt 0.54063493 0.677083373
vt 0.540633976 0.677083373
vt 0.540633976 0.677083373
vt 0.541595221 0.677083373
vt 0.541595221 0.677083373
vt 0.544555247 0.322916687
vt 0.542550683 0.322916687
vt 0.542550683 0.34375006
vt 0.544555247 0.34375006
vt 1 0.34375006
vt 1 0.322916687
vt 0.544555247 0.677083373
vt 0.544555247 0.65625
vt 0.542550683 0.65625
vt 0.542550683 0.677083373
vt 1 0.677083373
vt 1 0.65625
vt -1 2
vt -1 2
vt -1 2
vt -1 2
vt -1 2
vt -1 2
vt -1 2
vt -1 2
vt 1 0.322916687
vt 0.544555247 0.322916687
vt 0.544555247 0.322916687
vt 1 0.322916687
vt 0.542556465 0.322916687
vt 0.542550683 0.322916687
vt 0.487203598 0.322916687
vt 0.487203598 0.322916687
vt 0.54063493 0.322916687
vt 0.540633976 0.322916687
vt 0.433405071 0.322916687
vt 0.433405071 0.322916687
vt 0.380019069 0.322916687
vt 0.380019069 0.322916687
vt 0.326892257 0.322916687
vt 0.326892257 0.322916687
vt 0.273890257 0.322916687
vt 0.273890257 0.322916687
vt 0.220888227 0.322916687
vt 0.220888227 0.322916687
vt 0.167761475 0.322916687
vt 0.167761475 0.322916687
vt 0.114375509 0.322916687
vt 0.114375509 0.322916687
vt 0.0605770685 0.322916687
vt 0.0605770685 0.322916687
vt 0.00618539983 0.322916687
vt 0.00618539983 0.322916687
vt 0 0.322916627
vt 0 0.322916627
vt 0 0.677083254
vt 0.00618539983 0.677083373
vt 0.00618539983 0.677083373
vt 0 0.677083254
vt 0.0605770685 0.677083373
vt 0.0605770685 0.677083373
vt 0.114375509 0.677083373
vt 0.114375509 0.677083373
vt 0.167761475 0.677083373
vt 0.167761475 0.677083373
vt 0.220888227 0.677083373
vt 0.220888227 0.677083373
vt 0.273890257 0.677083373
vt 0.273890257 0.677083373
vt 0.326892257 0.677083373
vt 0.326892257 0.677083373
vt 0.380019069 0.677083373
vt 0.380019069 0.677083373
vt 0.433405071 0.677083373
vt 0.433405071 0.677083373
vt 0.487203598 0.677083373
vt 0.487203598 0.677083373
vt 0.540633976 0.677083373
vt 0.54063493 0.677083373
vt 0.542556465 0.677083373
vt 0.544555247 0.677083373
vt 0.544555247 0.677083373
vt 0.542550683 0.677083373
vt 1 0.677083373
vt 1 0.677083373
vt 0.00618539983 0.34375006
vt 0.00618539983 0.322916687
vt 0 0.322916627
vt 0 0.34375
vt 0.0605770685 0.34375006
vt 0.0605770685 0.322916687
vt 0.114375509 0.34375006
vt 0.114375509 0.322916687
vt 0.167761475 0.34375006
vt 0.167761475 0.322916687
vt 0.220888227 0.34375006
vt 0.220888227 0.322916687
vt 0.273890257 0.34375006
vt 0.273890257 0.322916687
vt 0.326892257 0.34375006
vt 0.326892257 0.322916687
vt 0.380019069 0.34375006
vt 0.380019069 0.322916687
vt 0.433405071 0.34375006
vt 0.433405071 0.322916687
vt 0.487203598 0.34375006
vt 0.487203598 0.322916687
vt 0.54063493 0.34375006
vt 0.54063493 0.322916687
vt 0 0.65625
vt 0 0.677083254
vt 0.00618539983 0.677083373
vt 0.00618539983 0.65625
vt 0.0605770685 0.677083373
vt 0.0605770685 0.65625
vt 0.114375509 0.677083373
vt 0.114375509 0.65625
vt 0.167761475 0.677083373
vt 0.167761475 0.65625
vt 0.220888227 0.677083373
vt 0.220888227 0.65625
vt 0.273890257 0.677083373
vt 0.273890257 0.65625
vt 0.326892257 0.677083373
vt 0.326892257 0.65625
vt 0.380019069 0.677083373
vt 0.380019069 0.65625
vt 0.433405071 0.677083373
vt 0.433405071 0.65625
vt 0.487203598 0.677083373
vt 0.487203598 0.65625
vt 0.54063493 0.65625
vt 0.54063493 0.677083373
vt -1 2
vt -1 2
vt -1 2
vt -1 2
vt -1 2
vt -1 2
vt -1 2
vt -1 2
vt -1 2
vt -1 2
vt -1 2
vt -1 2
vt -1 2
vt -1 2
vt -1 2
vt -1 2
vt -1 2
vt -1 2
vt -1 2
vt -1 2
vt -1 2
vt -1 2
vt 0.541595221 0.65625
vt 0.540633976 0.65625
vt 0.54063493 0.65625
vt 0.54063493 0.65625
vt 0.541595221 0.65625
vt 0.541595221 0.65625
vt 0.541595221 0.34375006
vt 0.542550683 0.34375006
vt 0.542550683 0.322916687
vt 0.541595221 0.322916687
vt 0.541595221 0.677083373
vt 0.542550683 0.677083373
vt 0.542550683 0.65625
vt 0.541595221 0.65625
vt 0.541595221 0.34375006
vt 0.54063493 0.34375006
vt 0.540633976 0.34375006
vt 0.540633976 0.34375006
vt 0.541595221 0.34375006
vt 0.541595221 0.34375006
vt 0.541595221 0.322916687
vt 0.542550683 0.322916687
vt 0.542556465 0.322916687
vt 0.542556465 0.322916687
vt 0.541595221 0.322916687
vt 0.541595221 0.322916687
vt 0.541595221 0.677083373
vt 0.542556465 0.677083373
vt 0.542550683 0.677083373
vt 0.542550683 0.677083373
vt 0.541595221 0.677083373
vt 0.541595221 0.677083373
vt 0.00618539983 0.65625
vt 0 0.65625
vt 0 0.65625
vt 0.00618539983 0.65625
vt 0.0605770685 0.65625
vt 0.0605770685 0.65625
vt 0.114375509 0.65625
vt 0.114375509 0.65625
vt 0.167761475 0.65625
vt 0.167761475 0.65625
vt 0.220888227 0.65625
vt 0.220888227 0.65625
vt 0.273890257 0.65625
vt 0.273890257 0.65625
vt 0.326892257 0.65625
vt 0.326892257 0.65625
vt 0.380019069 0.65625
vt 0.380019069 0.65625
vt 0.433405071 0.65625
vt 0.433405071 0.65625
vt 0.487203598 0.65625
vt 0.487203598 0.65625
vt 0.54063493 0.65625
vt 0.540633976 0.65625
vt 1 0.65625
vt 0.544555247 0.65625
vt 0.544555247 0.65625
vt 1 0.65625
vt 0.542556465 0.65625
vt 0.542550683 0.65625
vt 0 0.34375
vt 0.00618539983 0.34375006
vt 0.00618539983 0.34375006
vt 0 0.34375
vt 0.0605770685 0.34375006
vt 0.0605770685 0.34375006
vt 0.114375509 0.34375006
vt 0.114375509 0.34375006
vt 0.167761475 0.34375006
vt 0.167761475 0.34375006
vt 0.220888227 0.34375006
vt 0.220888227 0.34375006
vt 0.273890257 0.34375006
vt 0.273890257 0.34375006
vt 0.326892257 0.34375006
vt 0.326892257 0.34375006
vt 0.380019069 0.34375006
vt 0.380019069 0.34375006
vt 0.433405071 0.34375006
vt 0.433405071 0.34375006
vt 0.487203598 0.34375006
vt 0.487203598 0.34375006
vt 0.540633976 0.34375006
vt 0.54063493 0.34375006
vt 0.542556465 0.34375006
vt 0.544555247 0.34375006
vt 0.544555247 0.34375006
vt 0.542550683 0.34375006
vt 1 0.34375006
vt 1 0.34375006
vt 0.541595221 0.65625
vt 0.542550683 0.65625
vt 0.542556465 0.65625
vt 0.542556465 0.65625
vt 0.541595221 0.65625
vt 0.541595221 0.65625
vt 0.541595221 0.34375006
vt 0.542556465 0.34375006
vt 0.542550683 0.34375006
vt 0.542550683 0.34375006
vt 0.541595221 0.34375006
vt 0.541595221 0.34375006
f 1/1 2/2 3/3
f 3/3 4/4 1/1
f 5/5 6/6 7/7
f 7/7 8/8 5/5
f 9/9 10/10 11/11
f 11/11 12/12 9/9
f 13/13 14/14 15/15
f 15/15 16/16 13/13
f 17/17 18/18 19/19
f 19/19 20/20 17/17
f 21/21 22/22 23/23
f 23/23 24/24 21/21
f 25/25 26/26 27/27
f 28/28 29/29 30/30
f 31/31 32/32 33/33
f 34/34 35/35 36/36
f 37/37 38/38 39/39
f 39/39 40/40 37/37
f 37/37 40/40 41/41
f 41/41 42/42 37/37
f 43/43 44/44 45/45
f 45/45 46/46 43/43
f 44/44 43/43 47/47
f 47/47 48/48 44/44
f 49/49 50/50 51/51
f 51/51 52/52 49/49
f 53/53 54/54 55/55
f 55/55 56/56 53/53
f 57/57 58/58 59/59
f 59/59 60/60 57/57
f 59/59 58/58 61/61
f 61/61 62/62 59/59
f 63/63 64/64 65/65
f 65/65 66/66 63/63
f 67/67 64/64 63/63
f 63/63 68/68 67/67
f 69/69 67/67 68/68
f 68/68 70/70 69/69
f 71/71 69/69 70/70
f 70/70 72/72 71/71
f 73/73 71/71 72/72
f 72/72 74/74 73/73
f 75/75 73/73 74/74
f 74/74 76/76 75/75
f 77/77 75/75 76/76
f 76/76 78/78 77/77
f 79/79 77/77 78/78
f 78/78 80/80 79/79
f 81/81 79/79 80/80
f 80/80 82/82 81/81
f 83/83 81/81 82/82
f 82/82 84/84 83/83
f 85/85 83/83 84/84
f 84/84 86/86 85/85
f 87/87 88/88 89/89
f 89/89 90/90 87/87
f 91/91 89/89 88/88
f 88/88 92/92 91/91
f 93/93 91/91 92/92
f 92/92 94/94 93/93
f 95/95 93/93 94/94
f 94/94 96/96 95/95
f 97/97 95/95 96/96
f 96/96 98/98 97/97
f 99/99 97/97 98/98
f 98/98 100/100 99/99
f 101/101 99/99 100/100
f 100/100 102/102 101/101
f 103/103 101/101 102/102
f 102/102 104/104 103/103
f 105/105 103/103 104/104
f 104/104 106/106 105/105
f 107/107 105/105 106/106
f 106/106 108/108 107/107
f 107/107 108/108 109/109
f 109/109 110/110 107/107
f 111/111 112/112 113/113
f 113/113 114/114 111/111
f 115/115 113/113 112/112
f 112/112 116/116 115/115
f 117/117 118/118 119/119
f 119/119 120/120 117/117
f 118/118 117/117 121/121
f 121/121 122/122 118/118
f 122/122 121/121 123/123
f 123/123 124/124 122/122
f 124/124 123/123 125/125
f 125/125 126/126 124/124
f 126/126 125/125 127/127
f 127/127 128/128 126/126
f 128/128 127/127 129/129
f 129/129 130/130 128/128
f 130/130 129/129 131/131
f 131/131 132/132 130/130
f 132/132 131/131 133/133
f 133/133 134/134 132/132
f 134/134 133/133 135/135
f 135/135 136/136 134/134
f 136/136 135/135 137/137
f 137/137 138/138 136/136
f 138/138 137/137 139/139
f 139/139 140/140 138/138
f 141/141 142/142 143/143
f 143/143 144/144 141/141
f 144/144 143/143 145/145
f 145/145 146/146 144/144
f 146/146 145/145 147/147
f 147/147 148/148 146/146
f 148/148 147/147 149/149
f 149/149 150/150 148/148
f 150/150 149/149 151/151
f 151/151 152/152 150/150
f 152/152 151/151 153/153
f 153/153 154/154 152/152
f 154/154 153/153 155/155
f 155/155 156/156 154/154
f 156/156 155/155 157/157
f 157/157 158/158 156/156
f 158/158 157/157 159/159
f 159/159 160/160 158/158
f 160/160 159/159 161/161
f 161/161 162/162 160/160
f 163/163 162/162 161/161
f 161/161 164/164 163/163
f 165/165 166/166 167/167
f 167/167 168/168 165/165
f 169/169 165/165 168/168
f 168/168 170/170 169/169
f 171/171 169/169 170/170
f 170/170 172/172 171/171
f 173/173 171/171 172/172
f 172/172 174/174 173/173
f 175/175 173/173 174/174
f 174/174 176/176 175/175
f 177/177 175/175 176/176
f 176/176 178/178 177/177
f 179/179 177/177 178/178
f 178/178 180/180 179/179
f 181/181 179/179 180/180
f 180/180 182/182 181/181
f 183/183 181/181 182/182
f 182/182 184/184 183/183
f 185/185 183/183 184/184
f 184/184 186/186 185/185
f 187/187 188/188 189/189
f 190/190 191/191 192/192
f 193/193 194/194 195/195
f 195/195 196/196 193/193
f 197/197 198/198 199/199
f 199/199 200/200 197/197
f 201/201 202/202 203/203
f 204/204 205/205 206/206
f 207/207 208/208 209/209
f 210/210 211/211 212/212
f 213/213 214/214 215/215
f 216/216 217/217 218/218
f 219/219 220/220 221/221
f 221/221 222/222 219/219
f 223/223 219/219 222/222
f 222/222 224/224 223/223
f 225/225 223/223 224/224
f 224/224 226/226 225/225
f 227/227 225/225 226/226
f 226/226 228/228 227/227
f 229/229 227/227 228/228
f 228/228 230/230 229/229
f 231/231 229/229 230/230
f 230/230 232/232 231/231
f 233/233 231/231 232/232
f 232/232 234/234 233/233
f 235/235 233/233 234/234
f 234/234 236/236 235/235
f 237/237 235/235 236/236
f 236/236 238/238 237/237
f 239/239 237/237 238/238
f 238/238 240/240 239/239
f 239/239 240/240 241/241
f 241/241 242/242 239/239
f 243/243 244/244 245/245
f 245/245 246/246 243/243
f 245/245 244/244 247/247
f 247/247 248/248 245/245
f 249/249 250/250 251/251
f 251/251 252/252 249/249
f 253/253 251/251 250/250
f 250/250 254/254 253/253
f 255/255 253/253 254/254
f 254/254 256/256 255/255
f 257/257 255/255 256/256
f 256/256 258/258 257/257
f 259/259 257/257 258/258
f 258/258 260/260 259/259
f 261/261 259/259 260/260
f 260/260 262/262 261/261
f 263/263 261/261 262/262
f 262/262 264/264 263/263
f 265/265 263/263 264/264
f 264/264 266/266 265/265
f 267/267 265/265 266/266
f 266/266 268/268 267/267
f 269/269 267/267 268/268
f 268/268 270/270 269/269
f 269/269 270/270 271/271
f 271/271 272/272 269/269
f 273/273 274/274 275/275
f 275/275 276/276 273/273
f 277/277 275/275 274/274
f 274/274 278/278 277/277
f 279/279 280/280 281/281
f 282/282 283/283 284/284
f 285/285 286/286 287/287
f 288/288 289/289 290/290
