v -0.499472857 -0.218584478 -2.25781241e-05
v -0.499472886 -0.198309675 -2.25781241e-05
v 0.499527127 -0.198309675 -2.25781241e-05
v 0.499527156 -0.218584478 -2.25781241e-05
v -0.477731287 0.236587107 0.000313400262
v -0.477731287 0.260203063 0.000313400262
v 0.477491617 0.260203063 0.000313400262
v 0.477491617 0.236587107 0.000313400262
v -0.499472857 -0.218494177 -4.85154532e-17
v -0.499472857 0.260357112 5.7810892e-17
v -0.478250355 0.260357112 5.7810892e-17
v -0.478250355 -0.218494177 -4.85154532e-17
v 0.499527156 -0.218494177 -4.85154532e-17
v 0.478304684 -0.218494177 -4.85154532e-17
v 0.478304684 0.260357112 5.7810892e-17
v 0.499527156 0.260357112 5.7810892e-17
v -0.499472857 -0.218584478 -2.25781241e-05
v -0.49997285 -0.218584478 0.000477452384
v -0.49997288 -0.198309675 0.000477452384
v -0.499472886 -0.198309675 -2.25781241e-05
v 0.499527127 -0.198309675 -2.25781241e-05
v 0.50002712 -0.198309675 0.000477452384
v 0.50002718 -0.218584478 0.000477452384
v 0.499527156 -0.218584478 -2.25781241e-05
v -0.499472857 -0.218494177 -4.85154532e-17
v -0.49997285 -0.218494177 0.000500030525
v -0.49997285 0.260357112 0.000500030525
v -0.499472857 0.260357112 5.7810892e-17
v 0.499527156 -0.218494177 -4.85154532e-17
v 0.499527156 0.260357112 5.7810892e-17
v 0.50002718 0.260357112 0.000500030525
v 0.50002718 -0.218494177 0.000500030525
v -0.477731287 0.236587107 0.000313400262
v -0.478231281 0.236587107 0.000813430757
v -0.478231281 0.260203063 0.000813430757
v -0.477731287 0.260203063 0.000313400262
v 0.477491617 0.260203063 0.000313400262
v 0.477991611 0.260203063 0.000813430757
v 0.477991611 0.236587107 0.000813430757
v 0.477491617 0.236587107 0.000313400262
v -0.49997285 0.260357112 0.000500030525
v -0.499472857 0.260857105 0.000500030525
v -0.499472857 0.260357112 5.7810892e-17
v 0.50002718 0.260357112 0.000500030525
v 0.499527156 0.260357112 5.7810892e-17
v 0.499527156 0.260857105 0.000500030525
v -0.478231281 0.260203063 0.000813430757
v -0.477731287 0.260703057 0.000813430757
v -0.477731287 0.260203063 0.000313400262
v 0.477491617 0.260203063 0.000313400262
v 0.477491617 0.260703057 0.000813430757
v 0.477991611 0.260203063 0.000813430757
v -0.499472886 -0.238736004 0.0769886151
v -0.49997285 -0.238736004 0.0774886459
v -0.49997291 -0.219852924 0.0774886459
v -0.49997291 -0.219852924 0.0774886459
v -0.499472886 -0.219852924 0.0769886151
v -0.499472886 -0.238736004 0.0769886151
v 0.499527216 -0.238736004 0.0769886151
v 0.499527216 -0.219852924 0.0769886151
v 0.500027239 -0.219852924 0.0774886459
v 0.500027239 -0.219852924 0.0774886459
v 0.50002718 -0.238736004 0.0774886459
v 0.499527216 -0.238736004 0.0769886151
v 0.499527156 -0.238736004 2.3499999
v 0.50002718 -0.238736004 2.34949994
v 0.50002718 0.260264009 2.34949994
v 0.499527156 0.260264009 2.3499999
v -0.499472857 0.260264009 2.3499999
v -0.49997285 0.260264009 2.34949994
v -0.49997285 -0.238736004 2.34949994
v -0.499472857 -0.238736004 2.3499999
v -0.499472886 -0.238736004 0.0769886151
v -0.499472886 -0.219852924 0.0769886151
v -0.00201805122 -0.219853044 0.0769886151
v -0.00201801304 -0.238736019 0.0769886151
v 0.499527216 -0.238736004 0.0769886151
v 0.00207233429 -0.238736019 0.0769886151
v 0.00207237247 -0.219853044 0.0769886151
v 0.499527216 -0.219852924 0.0769886151
v -0.49997285 0.260264009 2.34949994
v -0.499472857 0.260264009 2.3499999
v -0.499472857 0.260764003 2.34949994
v 0.499527156 0.260764003 2.34949994
v 0.499527156 0.260264009 2.3499999
v 0.50002718 0.260264009 2.34949994
v -0.499472886 -0.219852939 2.32844448
v -0.49997288 -0.219852939 2.32794428
v -0.49997285 -0.238736004 2.32794428
v -0.499472857 -0.238736004 2.32844448
v 0.499527216 -0.219852939 2.32844448
v 0.499527156 -0.238736004 2.32844448
v 0.50002718 -0.238736004 2.32794428
v 0.50002718 -0.219852939 2.32794428
v -0.499472857 0.260357112 2.32890606
v -0.49997285 0.260357112 2.32840586
v -0.49997285 -0.218494192 2.32840586
v -0.499472857 -0.218494192 2.32890606
v 0.499527156 0.260357112 2.32890606
v 0.499527156 -0.218494192 2.32890606
v 0.50002718 -0.218494192 2.32840586
v 0.50002718 0.260357112 2.32840586
v -0.499472857 -0.238736004 2.3499999
v 0.499527156 -0.238736004 2.3499999
v 0.499527156 0.260264009 2.3499999
v -0.499472857 0.260264009 2.3499999
v -0.49997285 0.260357112 2.32840586
v -0.499472857 0.260357112 2.32890606
v -0.499472857 0.260857105 2.32840586
v 0.50002718 0.260357112 2.32840586
v 0.499527156 0.260857105 2.32840586
v 0.499527156 0.260357112 2.32890606
v 0.477491617 0.236587107 2.32874727
v 0.477991611 0.236587107 2.32824755
v 0.477991611 0.260203063 2.32824755
v 0.477491617 0.260203063 2.32874727
v -0.477731287 0.260203063 2.32874727
v -0.478231281 0.260203063 2.32824755
v -0.478231281 0.236587107 2.32824755
v -0.477731287 0.236587107 2.32874727
v -0.478231281 0.260203063 2.32824755
v -0.477731287 0.260203063 2.32874727
v -0.477731287 0.260703057 2.32824755
v 0.477491617 0.260703057 2.32824755
v 0.477491617 0.260203063 2.32874727
v 0.477991611 0.260203063 2.32824755
v -0.477731287 0.236587107 2.32874727
v 0.477491617 0.236587107 2.32874727
v 0.477491617 0.260203063 2.32874727
v -0.477731287 0.260203063 2.32874727
v -0.477731287 0.260203063 0.000313400262
v -0.477731287 0.260703057 0.000813430757
v 0.477491617 0.260703057 0.000813430757
v 0.477491617 0.260203063 0.000313400262
v -0.499472857 -0.218494192 2.32890606
v -0.478250355 -0.218494192 2.32890606
v -0.478250355 0.260357112 2.32890606
v -0.499472857 0.260357112 2.32890606
v -0.499472857 0.260357112 5.7810892e-17
v -0.499472857 0.260857105 0.000500030525
v -0.478250355 0.260857105 0.000500030525
v -0.478250355 0.260357112 5.7810892e-17
v 0.499527156 -0.218494192 2.32890606
v 0.499527156 0.260357112 2.32890606
v 0.478304684 0.260357112 2.32890606
v 0.478304684 -0.218494192 2.32890606
v 0.499527156 0.260357112 5.7810892e-17
v 0.478304684 0.260357112 5.7810892e-17
v 0.478304684 0.260857105 0.000500030525
v 0.499527156 0.260857105 0.000500030525
v -0.499472857 -0.238736004 2.32844448
v -0.00201801304 -0.238736048 2.32844448
v -0.00201805122 -0.219853029 2.32844448
v -0.499472886 -0.219852939 2.32844448
v 0.499527156 -0.238736004 2.32844448
v 0.499527216 -0.219852939 2.32844448
v 0.00207237247 -0.219853029 2.32844448
v 0.00207233429 -0.238736048 2.32844448
v -0.499472857 -0.219084471 0.000477452384
v -0.49997285 -0.218584478 0.000477452384
v -0.499472857 -0.218584478 -2.25781241e-05
v 0.499527156 -0.218584478 -2.25781241e-05
v 0.50002718 -0.218584478 0.000477452384
v 0.499527156 -0.219084471 0.000477452384
v -0.499472857 -0.21899417 0.000500030525
v -0.49997285 -0.218494177 0.000500030525
v -0.499472857 -0.218494177 -4.85154532e-17
v 0.499527156 -0.21899417 0.000500030525
v 0.499527156 -0.218494177 -4.85154532e-17
v 0.50002718 -0.218494177 0.000500030525
v 0.499527156 0.260264009 2.3499999
v 0.499527156 0.260764003 2.34949994
v -0.499472857 0.260764003 2.34949994
v -0.499472857 0.260264009 2.3499999
v -0.499472886 -0.239235997 0.0774886459
v -0.49997285 -0.238736004 0.0774886459
v -0.499472886 -0.238736004 0.0769886151
v 0.499527216 -0.239235997 0.0774886459
v 0.499527216 -0.238736004 0.0769886151
v 0.50002718 -0.238736004 0.0774886459
v -0.499472857 -0.239235997 2.34949994
v -0.499472857 -0.238736004 2.3499999
v -0.49997285 -0.238736004 2.34949994
v 0.50002718 -0.238736004 2.34949994
v 0.499527156 -0.238736004 2.3499999
v 0.499527156 -0.239235997 2.34949994
v 0.477491617 0.260203063 2.32874727
v 0.477491617 0.260703057 2.32824755
v -0.477731287 0.260703057 2.32824755
v -0.477731287 0.260203063 2.32874727
v -0.478250355 0.260357112 2.32890606
v -0.478250355 0.260857105 2.32840586
v -0.499472857 0.260857105 2.32840586
v -0.499472857 0.260357112 2.32890606
v 0.478304684 0.260357112 2.32890606
v 0.499527156 0.260357112 2.32890606
v 0.499527156 0.260857105 2.32840586
v 0.478304684 0.260857105 2.32840586
v -0.499472857 -0.239235997 2.32794428
v -0.499472857 -0.238736004 2.32844448
v -0.49997285 -0.238736004 2.32794428
v 0.499527156 -0.239235997 2.32794428
v 0.50002718 -0.238736004 2.32794428
v 0.499527156 -0.238736004 2.32844448
v -0.499472857 -0.218994185 2.32840586
v -0.499472857 -0.218494192 2.32890606
v -0.49997285 -0.218494192 2.32840586
v 0.499527156 -0.218994185 2.32840586
v 0.50002718 -0.218494192 2.32840586
v 0.499527156 -0.218494192 2.32890606
v 0.499527156 -0.218584478 -2.25781241e-05
v 0.499527156 -0.219084471 0.000477452384
v -0.499472857 -0.219084471 0.000477452384
v -0.499472857 -0.218584478 -2.25781241e-05
v -0.478250355 -0.218494177 -4.85154532e-17
v -0.478250355 -0.21899417 0.000500030525
v -0.499472857 -0.21899417 0.000500030525
v -0.499472857 -0.218494177 -4.85154532e-17
v 0.478304684 -0.218494177 -4.85154532e-17
v 0.499527156 -0.218494177 -4.85154532e-17
v 0.499527156 -0.21899417 0.000500030525
v 0.478304684 -0.21899417 0.000500030525
v -0.49997288 -0.198309675 0.000477452384
v -0.499472886 -0.197809637 0.000477452384
v -0.499472886 -0.198309675 -2.25781241e-05
v 0.499527127 -0.198309675 -2.25781241e-05
v 0.499527127 -0.197809711 0.000477452384
v 0.50002712 -0.198309675 0.000477452384
v -0.00201801304 -0.238736019 0.0769886151
v -0.00201801304 -0.239236012 0.0774886459
v -0.499472886 -0.239235997 0.0774886459
v -0.499472886 -0.238736004 0.0769886151
v 0.00207233429 -0.238736019 0.0769886151
v 0.499527216 -0.238736004 0.0769886151
v 0.499527216 -0.239235997 0.0774886459
v 0.00207233429 -0.239236012 0.0774886459
v -0.499472857 -0.238736004 2.3499999
v -0.499472857 -0.239235997 2.34949994
v 0.499527156 -0.239235997 2.34949994
v 0.499527156 -0.238736004 2.3499999
v -0.499472857 -0.238736004 2.32844448
v -0.499472857 -0.239235997 2.32794428
v -0.00201801304 -0.239236042 2.32794428
v -0.00201801304 -0.238736048 2.32844448
v 0.499527156 -0.238736004 2.32844448
v 0.00207233429 -0.238736048 2.32844448
v 0.00207233429 -0.239236042 2.32794428
v 0.499527156 -0.239235997 2.32794428
v -0.499472857 -0.218494192 2.32890606
v -0.499472857 -0.218994185 2.32840586
v -0.478250355 -0.218994185 2.32840586
v -0.478250355 -0.218494192 2.32890606
v 0.499527156 -0.218494192 2.32890606
v 0.478304684 -0.218494192 2.32890606
v 0.478304684 -0.218994185 2.32840586
v 0.499527156 -0.218994185 2.32840586
v -0.49997291 -0.219852924 0.0774886459
v -0.499472886 -0.219352975 0.0774886459
v -0.499472886 -0.219852924 0.0769886151
v 0.500027239 -0.219852924 0.0774886459
v 0.499527216 -0.219852924 0.0769886151
v 0.499527216 -0.219352975 0.0774886459
v -0.49997288 -0.219852939 2.32794428
v -0.499472886 -0.219852939 2.32844448
v -0.499472886 -0.219352946 2.32794428
v 0.50002718 -0.219852939 2.32794428
v 0.499527216 -0.219352946 2.32794428
v 0.499527216 -0.219852939 2.32844448
v -0.477725804 0.236234263 1.84487998
v -0.47722581 0.236234263 1.84537995
v -0.47722581 0.236734256 1.84487998
v 0.477484286 0.236734256 1.84487998
v 0.477484286 0.236234263 1.84537995
v 0.477984279 0.236234263 1.84487998
v -0.00201805122 -0.219853044 0.0769886151
v -0.00151805882 -0.219853044 0.0774886459
v -0.00151802064 -0.238736019 0.0774886459
v -0.00201801304 -0.238736019 0.0769886151
v 0.00207237247 -0.219853044 0.0769886151
v 0.00207233429 -0.238736019 0.0769886151
v 0.00157234189 -0.238736019 0.0774886459
v 0.00157238008 -0.219853044 0.0774886459
v -0.477731287 0.236087143 0.000813430757
v -0.478231281 0.236587107 0.000813430757
v -0.477731287 0.236587107 0.000313400262
v 0.477491617 0.236587107 0.000313400262
v 0.477991611 0.236587107 0.000813430757
v 0.477491617 0.236087143 0.000813430757
v -0.499472886 -0.198309675 -2.25781241e-05
v -0.499472886 -0.197809637 0.000477452384
v 0.499527127 -0.197809711 0.000477452384
v 0.499527127 -0.197809711 0.000477452384
v 0.499527127 -0.198309675 -2.25781241e-05
v -0.499472886 -0.198309675 -2.25781241e-05
v -0.00201801304 -0.238736048 2.32844448
v -0.00151802064 -0.238736048 2.32794428
v -0.00151805882 -0.219853029 2.32794428
v -0.00201805122 -0.219853029 2.32844448
v 0.00207233429 -0.238736048 2.32844448
v 0.00207237247 -0.219853029 2.32844448
v 0.00157238008 -0.219853029 2.32794428
v 0.00157234189 -0.238736048 2.32794428
v 0.477484286 -0.217799768 1.84537995
v 0.477984279 -0.217799768 1.84487998
v 0.477984279 0.236234263 1.84487998
v 0.477484286 0.236234263 1.84537995
v -0.47722581 0.236234263 1.84537995
v -0.477725804 0.236234263 1.84487998
v -0.477725804 -0.217799768 1.84487998
v -0.47722581 -0.217799768 1.84537995
v 0.477491617 -0.218671978 1.82409644
v 0.477991611 -0.218671978 1.8235966
v 0.477991611 -0.195056021 1.8235966
v 0.477491617 -0.195056021 1.82409644
v -0.477731287 -0.195056021 1.82409644
v -0.478231281 -0.195056021 1.8235966
v -0.478231281 -0.218671978 1.8235966
v -0.477731287 -0.218671978 1.82409644
v -0.478064716 0.236119777 0.70420748
v -0.477564722 0.236619771 0.70420748
v -0.477564722 0.236119777 0.703707397
v 0.477633774 0.236119777 0.703707397
v 0.477633774 0.236619771 0.70420748
v 0.478133768 0.236119777 0.70420748
v -0.00201801304 -0.238736019 0.0769886151
v -0.00151802064 -0.238736019 0.0774886459
v -0.00201801304 -0.239236012 0.0774886459
v 0.00207233429 -0.238736019 0.0769886151
v 0.00207233429 -0.239236012 0.0774886459
v 0.00157234189 -0.238736019 0.0774886459
v -0.477731287 0.236087114 2.32824755
v -0.477731287 0.236587107 2.32874727
v -0.478231281 0.236587107 2.32824755
v 0.477991611 0.236587107 2.32824755
v 0.477491617 0.236587107 2.32874727
v 0.477491617 0.236087114 2.32824755
v -0.00151802064 -0.238736048 2.32794428
v -0.00201801304 -0.238736048 2.32844448
v -0.00201801304 -0.239236042 2.32794428
v 0.00157234189 -0.238736048 2.32794428
v 0.00207233429 -0.239236042 2.32794428
v 0.00207233429 -0.238736048 2.32844448
v -0.499472886 -0.219852924 0.0769886151
v -0.499472886 -0.219352975 0.0774886459
v -0.00201805122 -0.219353005 0.0774886459
v -0.00201805122 -0.219353005 0.0774886459
v -0.00201805122 -0.219853044 0.0769886151
v -0.499472886 -0.219852924 0.0769886151
v 0.499527216 -0.219852924 0.0769886151
v 0.00207237247 -0.219853044 0.0769886151
v 0.00207237247 -0.219353005 0.0774886459
v 0.00207237247 -0.219353005 0.0774886459
v 0.499527216 -0.219352975 0.0774886459
v 0.499527216 -0.219852924 0.0769886151
v -0.47722581 -0.218299761 1.84487998
v -0.47722581 -0.217799768 1.84537995
v -0.477725804 -0.217799768 1.84487998
v 0.477984279 -0.217799768 1.84487998
v 0.477484286 -0.217799768 1.84537995
v 0.477484286 -0.218299761 1.84487998
v -0.477564782 -0.218383029 0.703707397
v -0.478064716 -0.218383029 0.70420748
v -0.478064716 0.236119777 0.70420748
v -0.477564722 0.236119777 0.703707397
v 0.477633774 0.236119777 0.703707397
v 0.478133768 0.236119777 0.70420748
v 0.478133738 -0.218383029 0.70420748
v 0.477633774 -0.218383029 0.703707397
v -0.477731287 -0.219171971 1.8235966
v -0.477731287 -0.218671978 1.82409644
v -0.478231281 -0.218671978 1.8235966
v 0.477991611 -0.218671978 1.8235966
v 0.477491617 -0.218671978 1.82409644
v 0.477491617 -0.219171971 1.8235966
v -0.477731287 -0.218672037 0.725052536
v -0.478231281 -0.218672037 0.72555244
v -0.478231281 -0.195056081 0.72555244
v -0.477731287 -0.195056081 0.725052536
v 0.477491617 -0.195056081 0.725052536
v 0.477991611 -0.195056081 0.72555244
v 0.477991611 -0.218672037 0.72555244
v 0.477491617 -0.218672037 0.725052536
v -0.00201805122 -0.219853029 2.32844448
v -0.00201805122 -0.219353035 2.32794428
v -0.499472886 -0.219352946 2.32794428
v -0.499472886 -0.219852939 2.32844448
v 0.00207237247 -0.219853029 2.32844448
v 0.499527216 -0.219852939 2.32844448
v 0.499527216 -0.219352946 2.32794428
v 0.00207237247 -0.219353035 2.32794428
v 0.477484286 0.236234263 1.84537995
v 0.477484286 0.236734256 1.84487998
v -0.47722581 0.236734256 1.84487998
v -0.47722581 0.236234263 1.84537995
v -0.477564782 -0.218883023 0.70420748
v -0.478064716 -0.218383029 0.70420748
v -0.477564782 -0.218383029 0.703707397
v 0.477633774 -0.218383029 0.703707397
v 0.478133738 -0.218383029 0.70420748
v 0.477633774 -0.218883023 0.70420748
v -0.477731287 -0.219171986 0.72555244
v -0.478231281 -0.218672037 0.72555244
v -0.477731287 -0.218672037 0.725052536
v 0.477491617 -0.218672037 0.725052536
v 0.477991611 -0.218672037 0.72555244
v 0.477491617 -0.219171986 0.72555244
v 0.477491617 0.236587107 0.000313400262
v 0.477491617 0.236087143 0.000813430757
v -0.477731287 0.236087143 0.000813430757
v -0.477731287 0.236587107 0.000313400262
v -0.478250355 0.260357112 5.7810892e-17
v -0.478250355 0.260857105 0.000500030525
v -0.477750272 0.260357112 0.000500030525
v 0.478304684 0.260357112 5.7810892e-17
v 0.477804601 0.260357112 0.000500030525
v 0.478304684 0.260857105 0.000500030525
v -0.47722581 -0.217799768 1.84537995
v 0.477484286 -0.217799768 1.84537995
v 0.477484286 0.236234263 1.84537995
v -0.47722581 0.236234263 1.84537995
v -0.477731287 -0.218671978 1.82409644
v 0.477491617 -0.218671978 1.82409644
v 0.477491617 -0.195056021 1.82409644
v -0.477731287 -0.195056021 1.82409644
v 0.50002718 0.26026392 2.32935739
v 0.499527156 0.260763913 2.32935739
v 0.499527156 0.260764003 2.34949994
v 0.50002718 0.260264009 2.34949994
v -0.499472857 0.260763913 2.32935739
v -0.49997285 0.26026392 2.32935739
v -0.49997285 0.260264009 2.34949994
v -0.499472857 0.260764003 2.34949994
v -0.499472857 0.260857105 0.000500030525
v -0.49997285 0.260357112 0.000500030525
v -0.49997285 0.260357112 2.32840586
v -0.499472857 0.260857105 2.32840586
v 0.499527156 0.260857105 0.000500030525
v 0.499527156 0.260857105 2.32840586
v 0.50002718 0.260357112 2.32840586
v 0.50002718 0.260357112 0.000500030525
v -0.477564722 0.236119777 0.703707397
v -0.477564722 0.236619771 0.70420748
v 0.477633774 0.236619771 0.70420748
v 0.477633774 0.236119777 0.703707397
v -0.00201805122 -0.219853044 0.0769886151
v -0.00201805122 -0.219353005 0.0774886459
v -0.00151805882 -0.219853044 0.0774886459
v 0.00207237247 -0.219853044 0.0769886151
v 0.00157238008 -0.219853044 0.0774886459
v 0.00207237247 -0.219353005 0.0774886459
v 0.477991611 0.260203063 0.000813430757
v 0.477491617 0.260703057 0.000813430757
v 0.477491617 0.260703057 2.32824755
v 0.477991611 0.260203063 2.32824755
v -0.477731287 0.260703057 0.000813430757
v -0.478231281 0.260203063 0.000813430757
v -0.478231281 0.260203063 2.32824755
v -0.477731287 0.260703057 2.32824755
v 0.478133768 0.236119777 0.70420748
v 0.477633774 0.236619771 0.70420748
v 0.477633774 0.236619875 0.724349976
v 0.478133768 0.236119881 0.724349976
v -0.477564722 0.236619771 0.70420748
v -0.478064716 0.236119777 0.70420748
v -0.478064716 0.236119881 0.724349976
v -0.477564722 0.236619875 0.724349976
v 0.477984279 0.236234173 1.82473743
v 0.477484286 0.236734152 1.82473743
v 0.477484286 0.236734256 1.84487998
v 0.477984279 0.236234263 1.84487998
v -0.47722581 0.236734152 1.82473743
v -0.477725804 0.236234173 1.82473743
v -0.477725804 0.236234263 1.84487998
v -0.47722581 0.236734256 1.84487998
v -0.478250355 0.260857105 2.32840586
v -0.478250355 0.260357112 2.32890606
v -0.477750272 0.260357112 2.32840586
v 0.478304684 0.260857105 2.32840586
v 0.477804601 0.260357112 2.32840586
v 0.478304684 0.260357112 2.32890606
v -0.00201805122 -0.219353035 2.32794428
v -0.00201805122 -0.219853029 2.32844448
v -0.00151805882 -0.219853029 2.32794428
v 0.00207237247 -0.219353035 2.32794428
v 0.00157238008 -0.219853029 2.32794428
v 0.00207237247 -0.219853029 2.32844448
v -0.478231281 -0.195056021 1.8235966
v -0.477731287 -0.195056021 1.82409644
v -0.477731287 -0.194556043 1.8235966
v 0.477491617 -0.194556043 1.8235966
v 0.477491617 -0.195056021 1.82409644
v 0.477991611 -0.195056021 1.8235966
v -0.477731287 0.236587107 2.32874727
v -0.477731287 0.236087114 2.32824755
v 0.477491617 0.236087114 2.32824755
v 0.477491617 0.236587107 2.32874727
v -0.47722581 -0.217799768 1.84537995
v -0.47722581 -0.218299761 1.84487998
v 0.477484286 -0.218299761 1.84487998
v 0.477484286 -0.217799768 1.84537995
v -0.478250355 0.260357112 5.7810892e-17
v -0.477750272 0.260357112 0.000500030525
v -0.477750272 -0.218494177 0.000500030525
v -0.478250355 -0.218494177 -4.85154532e-17
v 0.478304684 0.260357112 5.7810892e-17
v 0.478304684 -0.218494177 -4.85154532e-17
v 0.477804601 -0.218494177 0.000500030525
v 0.477804601 0.260357112 0.000500030525
v -0.477731287 -0.218671978 1.82409644
v -0.477731287 -0.219171971 1.8235966
v 0.477491617 -0.219171971 1.8235966
v 0.477491617 -0.218671978 1.82409644
v -0.477564782 -0.218383029 0.703707397
v -0.477564722 0.236119777 0.703707397
v 0.477633774 0.236119777 0.703707397
v 0.477633774 -0.218383029 0.703707397
v -0.478250355 -0.218494177 -4.85154532e-17
v -0.477750272 -0.218494177 0.000500030525
v -0.478250355 -0.21899417 0.000500030525
v 0.478304684 -0.218494177 -4.85154532e-17
v 0.478304684 -0.21899417 0.000500030525
v 0.477804601 -0.218494177 0.000500030525
v 0.50002718 -0.238736108 2.32935739
v 0.50002718 0.26026392 2.32935739
v 0.50002718 0.260264009 2.34949994
v 0.50002718 -0.238736004 2.34949994
v -0.49997285 0.26026392 2.32935739
v -0.49997285 -0.238736108 2.32935739
v -0.49997285 -0.238736004 2.34949994
v -0.49997285 0.260264009 2.34949994
v -0.49997288 -0.219853044 1.82344985
v -0.49997285 -0.238736123 1.82344985
v -0.49997285 -0.238736004 2.32794428
v -0.49997288 -0.219852939 2.32794428
v 0.50002718 -0.219853044 1.82344985
v 0.50002718 -0.219852939 2.32794428
v 0.50002718 -0.238736004 2.32794428
v 0.50002718 -0.238736123 1.82344985
v -0.49997291 -0.219852924 0.0774886459
v -0.49997285 -0.238736004 0.0774886459
v -0.49997285 -0.238735855 0.724396884
v -0.49997291 -0.21985276 0.724396884
v 0.500027239 -0.219852924 0.0774886459
v 0.500027239 -0.21985276 0.724396884
v 0.50002718 -0.238735855 0.724396884
v 0.50002718 -0.238736004 0.0774886459
v 0.50002718 -0.218584478 0.000477452384
v 0.50002712 -0.198309675 0.000477452384
v 0.50002712 -0.198309556 0.106430978
v 0.50002718 -0.218584344 0.106430978
v -0.49997288 -0.198309675 0.000477452384
v -0.49997285 -0.218584478 0.000477452384
v -0.49997285 -0.218584344 0.106430978
v -0.49997288 -0.198309526 0.106430978
v -0.49997285 0.260357112 0.000500030525
v -0.49997285 -0.218494177 0.000500030525
v -0.49997285 -0.218494192 2.32840586
v -0.49997285 0.260357112 2.32840586
v 0.50002718 0.260357112 0.000500030525
v 0.50002718 0.260357112 2.32840586
v 0.50002718 -0.218494192 2.32840586
v 0.50002718 -0.218494177 0.000500030525
v -0.478231281 -0.195056081 0.72555244
v -0.477731287 -0.194556087 0.72555244
v -0.477731287 -0.195056081 0.725052536
v 0.477491617 -0.195056081 0.725052536
v 0.477491617 -0.194556087 0.72555244
v 0.477991611 -0.195056081 0.72555244
v -0.477731287 -0.218672037 0.725052536
v -0.477731287 -0.195056081 0.725052536
v 0.477491617 -0.195056081 0.725052536
v 0.477491617 -0.218672037 0.725052536
v 0.478133738 -0.218383029 0.70420748
v 0.478133768 0.236119777 0.70420748
v 0.478133768 0.236119881 0.724349976
v 0.478133738 -0.21838294 0.724349976
v -0.478064716 0.236119777 0.70420748
v -0.478064716 -0.218383029 0.70420748
v -0.478064716 -0.21838294 0.724349976
v -0.478064716 0.236119881 0.724349976
v 0.477984279 -0.217799857 1.82473743
v 0.477984279 0.236234173 1.82473743
v 0.477984279 0.236234263 1.84487998
v 0.477984279 -0.217799768 1.84487998
v -0.477725804 0.236234173 1.82473743
v -0.477725804 -0.217799857 1.82473743
v -0.477725804 -0.217799768 1.84487998
v -0.477725804 0.236234263 1.84487998
v 0.477991611 0.236587107 0.000813430757
v 0.477991611 0.260203063 0.000813430757
v 0.477991611 0.260203063 2.32824755
v 0.477991611 0.236587107 2.32824755
v -0.478231281 0.260203063 0.000813430757
v -0.478231281 0.236587107 0.000813430757
v -0.478231281 0.236587107 2.32824755
v -0.478231281 0.260203063 2.32824755
v 0.477991611 -0.218672037 0.72555244
v 0.477991611 -0.195056081 0.72555244
v 0.477991611 -0.195056021 1.8235966
v 0.477991611 -0.218671978 1.8235966
v -0.478231281 -0.195056081 0.72555244
v -0.478231281 -0.218672037 0.72555244
v -0.478231281 -0.218671978 1.8235966
v -0.478231281 -0.195056021 1.8235966
v 0.499527156 -0.239236102 2.32935739
v 0.50002718 -0.238736108 2.32935739
v 0.50002718 -0.238736004 2.34949994
v 0.499527156 -0.239235997 2.34949994
v -0.499472857 -0.239235997 2.34949994
v -0.49997285 -0.238736004 2.34949994
v -0.49997285 -0.238736108 2.32935739
v -0.499472857 -0.239236102 2.32935739
v -0.499472857 -0.239235997 2.32794428
v -0.49997285 -0.238736004 2.32794428
v -0.49997285 -0.238736123 1.82344985
v -0.499472857 -0.239236116 1.82344985
v 0.499527156 -0.239235997 2.32794428
v 0.499527156 -0.239236116 1.82344985
v 0.50002718 -0.238736123 1.82344985
v 0.50002718 -0.238736004 2.32794428
v -0.499472886 -0.239235848 0.724396884
v -0.49997285 -0.238735855 0.724396884
v -0.49997285 -0.238736004 0.0774886459
v -0.499472886 -0.239235997 0.0774886459
v 0.499527216 -0.239235848 0.724396884
v 0.499527216 -0.239235997 0.0774886459
v 0.50002718 -0.238736004 0.0774886459
v 0.50002718 -0.238735855 0.724396884
v 0.477633774 -0.218383029 0.703707397
v 0.477633774 -0.218883023 0.70420748
v -0.477564782 -0.218883023 0.70420748
v -0.477564782 -0.218383029 0.703707397
v 0.499527156 -0.219084471 0.000477452384
v 0.50002718 -0.218584478 0.000477452384
v 0.50002718 -0.218584344 0.106430978
v 0.499527156 -0.219084337 0.106430978
v -0.499472857 -0.219084337 0.106430978
v -0.49997285 -0.218584344 0.106430978
v -0.49997285 -0.218584478 0.000477452384
v -0.499472857 -0.219084471 0.000477452384
v -0.499472857 -0.218994185 2.32840586
v -0.49997285 -0.218494192 2.32840586
v -0.49997285 -0.218494177 0.000500030525
v -0.499472857 -0.21899417 0.000500030525
v 0.499527156 -0.218994185 2.32840586
v 0.499527156 -0.21899417 0.000500030525
v 0.50002718 -0.218494177 0.000500030525
v 0.50002718 -0.218494192 2.32840586
v 0.477491617 -0.218672037 0.725052536
v 0.477491617 -0.219171986 0.72555244
v -0.477731287 -0.219171986 0.72555244
v -0.477731287 -0.218672037 0.725052536
v -0.478250355 -0.218494192 2.32890606
v -0.477750272 -0.218494192 2.32840586
v -0.477750272 0.260357112 2.32840586
v -0.478250355 0.260357112 2.32890606
v 0.478304684 -0.218494192 2.32890606
v 0.478304684 0.260357112 2.32890606
v 0.477804601 0.260357112 2.32840586
v 0.477804601 -0.218494192 2.32840586
v -0.477750272 -0.218494192 2.32840586
v -0.478250355 -0.218494192 2.32890606
v -0.478250355 -0.218994185 2.32840586
v 0.477804601 -0.218494192 2.32840586
v 0.478304684 -0.218994185 2.32840586
v 0.478304684 -0.218494192 2.32890606
v 0.477633774 -0.218883023 0.70420748
v 0.478133738 -0.218383029 0.70420748
v 0.478133738 -0.21838294 0.724349976
v 0.477633774 -0.218882933 0.724349976
v -0.477564782 -0.218882933 0.724349976
v -0.478064716 -0.21838294 0.724349976
v -0.478064716 -0.218383029 0.70420748
v -0.477564782 -0.218883023 0.70420748
v 0.477484286 -0.218299851 1.82473743
v 0.477984279 -0.217799857 1.82473743
v 0.477984279 -0.217799768 1.84487998
v 0.477484286 -0.218299761 1.84487998
v 0.477491617 -0.219171986 0.72555244
v 0.477991611 -0.218672037 0.72555244
v 0.477991611 -0.218671978 1.8235966
v 0.477991611 -0.218671978 1.8235966
v 0.477491617 -0.219171971 1.8235966
v 0.477491617 -0.219171986 0.72555244
v -0.477731287 -0.219171971 1.8235966
v -0.478231281 -0.218671978 1.8235966
v -0.478231281 -0.218672037 0.72555244
v -0.478231281 -0.218672037 0.72555244
v -0.477731287 -0.219171986 0.72555244
v -0.477731287 -0.219171971 1.8235966
v -0.47722581 -0.218299761 1.84487998
v -0.477725804 -0.217799768 1.84487998
v -0.477725804 -0.217799857 1.82473743
v -0.47722581 -0.218299851 1.82473743
v 0.477491617 -0.195056021 1.82409644
v 0.477491617 -0.194556043 1.8235966
v -0.477731287 -0.194556043 1.8235966
v -0.477731287 -0.195056021 1.82409644
v 0.499527156 0.260763913 2.32935739
v -0.499472857 0.260763913 2.32935739
v -0.499472857 0.260764003 2.34949994
v 0.499527156 0.260764003 2.34949994
v 0.477491617 0.260703057 0.000813430757
v -0.477731287 0.260703057 0.000813430757
v -0.477731287 0.260703057 2.32824755
v 0.477491617 0.260703057 2.32824755
v -0.478250355 0.260857105 0.000500030525
v -0.499472857 0.260857105 0.000500030525
v -0.499472857 0.260857105 2.32840586
v -0.478250355 0.260857105 2.32840586
v 0.478304684 0.260857105 0.000500030525
v 0.478304684 0.260857105 2.32840586
v 0.499527156 0.260857105 2.32840586
v 0.499527156 0.260857105 0.000500030525
v 0.477484286 0.236734152 1.82473743
v -0.47722581 0.236734152 1.82473743
v -0.47722581 0.236734256 1.84487998
v 0.477484286 0.236734256 1.84487998
v 0.477633774 0.236619771 0.70420748
v -0.477564722 0.236619771 0.70420748
v -0.477564722 0.236619875 0.724349976
v 0.477633774 0.236619875 0.724349976
v 0.50002712 -0.198309675 0.000477452384
v 0.499527127 -0.197809711 0.000477452384
v 0.499527127 -0.197809562 0.106430978
v 0.499527127 -0.197809562 0.106430978
v 0.50002712 -0.198309556 0.106430978
v 0.50002712 -0.198309675 0.000477452384
v -0.499472886 -0.197809637 0.000477452384
v -0.49997288 -0.198309675 0.000477452384
v -0.49997288 -0.198309526 0.106430978
v -0.49997288 -0.198309526 0.106430978
v -0.499472886 -0.197809532 0.106430978
v -0.499472886 -0.197809637 0.000477452384
v -0.477731287 -0.195056081 0.725052536
v -0.477731287 -0.194556087 0.72555244
v 0.477491617 -0.194556087 0.72555244
v 0.477491617 -0.195056081 0.725052536
v 0.477991611 -0.195056081 0.72555244
v 0.477491617 -0.194556087 0.72555244
v 0.477491617 -0.194556043 1.8235966
v 0.477991611 -0.195056021 1.8235966
v -0.477731287 -0.194556087 0.72555244
v -0.478231281 -0.195056081 0.72555244
v -0.478231281 -0.195056021 1.8235966
v -0.477731287 -0.194556043 1.8235966
v -0.499472886 -0.219353095 1.82344985
v -0.49997288 -0.219853044 1.82344985
v -0.49997288 -0.219852939 2.32794428
v -0.49997288 -0.219852939 2.32794428
v -0.499472886 -0.219352946 2.32794428
v -0.499472886 -0.219353095 1.82344985
v 0.499527216 -0.219353095 1.82344985
v 0.499527216 -0.219352946 2.32794428
v 0.50002718 -0.219852939 2.32794428
v 0.50002718 -0.219852939 2.32794428
v 0.50002718 -0.219853044 1.82344985
v 0.499527216 -0.219353095 1.82344985
v -0.499472886 -0.219352975 0.0774886459
v -0.49997291 -0.219852924 0.0774886459
v -0.49997291 -0.21985276 0.724396884
v -0.499472886 -0.219352767 0.724396884
v 0.499527216 -0.219352975 0.0774886459
v 0.499527216 -0.219352767 0.724396884
v 0.500027239 -0.21985276 0.724396884
v 0.500027239 -0.219852924 0.0774886459
v -0.478064716 0.236119881 0.724349976
v -0.477564722 0.236119881 0.724849999
v -0.477564722 0.236619875 0.724349976
v 0.477633774 0.236619875 0.724349976
v 0.477633774 0.236119881 0.724849999
v 0.478133768 0.236119881 0.724349976
v -0.499472857 -0.239236102 2.32935739
v 0.499527156 -0.239236102 2.32935739
v 0.499527156 -0.239235997 2.34949994
v -0.499472857 -0.239235997 2.34949994
v -0.499472857 -0.239236116 1.82344985
v -0.00201801304 -0.239236116 1.82344985
v -0.00201801304 -0.239236042 2.32794428
v -0.499472857 -0.239235997 2.32794428
v 0.499527156 -0.239236116 1.82344985
v 0.499527156 -0.239235997 2.32794428
v 0.00207233429 -0.239236042 2.32794428
v 0.00207233429 -0.239236116 1.82344985
v -0.499472886 -0.239235997 0.0774886459
v -0.00201801304 -0.239236012 0.0774886459
v -0.00201801304 -0.239235938 0.724396884
v -0.499472886 -0.239235848 0.724396884
v 0.499527216 -0.239235997 0.0774886459
v 0.499527216 -0.239235848 0.724396884
v 0.00207233429 -0.239235938 0.724396884
v 0.00207233429 -0.239236012 0.0774886459
v -0.477564782 -0.218883023 0.70420748
v 0.477633774 -0.218883023 0.70420748
v 0.477633774 -0.218882933 0.724349976
v -0.477564782 -0.218882933 0.724349976
v -0.499472857 -0.219084471 0.000477452384
v 0.499527156 -0.219084471 0.000477452384
v 0.499527156 -0.219084337 0.106430978
v -0.499472857 -0.219084337 0.106430978
v -0.47722581 -0.218299851 1.82473743
v 0.477484286 -0.218299851 1.82473743
v 0.477484286 -0.218299761 1.84487998
v -0.47722581 -0.218299761 1.84487998
v -0.499472857 -0.21899417 0.000500030525
v -0.478250355 -0.21899417 0.000500030525
v -0.478250355 -0.218994185 2.32840586
v -0.499472857 -0.218994185 2.32840586
v 0.499527156 -0.21899417 0.000500030525
v 0.499527156 -0.218994185 2.32840586
v 0.478304684 -0.218994185 2.32840586
v 0.478304684 -0.21899417 0.000500030525
v -0.477731287 -0.219171986 0.72555244
v 0.477491617 -0.219171986 0.72555244
v 0.477491617 -0.219171971 1.8235966
v -0.477731287 -0.219171971 1.8235966
v -0.477725804 0.236234173 1.82473743
v -0.47722581 0.236734152 1.82473743
v -0.47722581 0.236234173 1.82423747
v 0.477484286 0.236234173 1.82423747
v 0.477484286 0.236734152 1.82473743
v 0.477984279 0.236234173 1.82473743
v -0.477731287 0.236087114 2.32824755
v -0.478231281 0.236587107 2.32824755
v -0.478231281 0.236587107 0.000813430757
v -0.478231281 0.236587107 0.000813430757
v -0.477731287 0.236087143 0.000813430757
v -0.477731287 0.236087114 2.32824755
v 0.477491617 0.236087143 0.000813430757
v 0.477991611 0.236587107 0.000813430757
v 0.477991611 0.236587107 2.32824755
v 0.477991611 0.236587107 2.32824755
v 0.477491617 0.236087114 2.32824755
v 0.477491617 0.236087143 0.000813430757
v -0.00201801304 -0.239236116 1.82344985
v -0.00151802064 -0.238736123 1.82344985
v -0.00151802064 -0.238736048 2.32794428
v -0.00201801304 -0.239236042 2.32794428
v 0.00207233429 -0.239236116 1.82344985
v 0.00207233429 -0.239236042 2.32794428
v 0.00157234189 -0.238736048 2.32794428
v 0.00157234189 -0.238736123 1.82344985
v -0.00201801304 -0.239236012 0.0774886459
v -0.00151802064 -0.238736019 0.0774886459
v -0.00151802064 -0.238735944 0.724396884
v -0.00201801304 -0.239235938 0.724396884
v 0.00207233429 -0.239236012 0.0774886459
v 0.00207233429 -0.239235938 0.724396884
v 0.00157234189 -0.238735944 0.724396884
v 0.00157234189 -0.238736019 0.0774886459
v -0.499472886 -0.239235848 0.724396884
v -0.499472886 -0.238735855 0.724896967
v -0.49997285 -0.238735855 0.724396884
v 0.499527216 -0.239235848 0.724396884
v 0.50002718 -0.238735855 0.724396884
v 0.499527216 -0.238735855 0.724896967
v -0.477564782 -0.218882933 0.724349976
v -0.477564782 -0.21838294 0.724849999
v -0.478064716 -0.21838294 0.724349976
v 0.478133738 -0.21838294 0.724349976
v 0.477633774 -0.21838294 0.724849999
v 0.477633774 -0.218882933 0.724349976
v -0.499472857 -0.239236116 1.82344985
v -0.49997285 -0.238736123 1.82344985
v -0.499472857 -0.238736123 1.82294989
v 0.499527156 -0.239236116 1.82344985
v 0.499527156 -0.238736123 1.82294989
v 0.50002718 -0.238736123 1.82344985
v 0.477484286 -0.217799857 1.82423747
v 0.477984279 -0.217799857 1.82473743
v 0.477484286 -0.218299851 1.82473743
v -0.47722581 -0.218299851 1.82473743
v -0.477725804 -0.217799857 1.82473743
v -0.47722581 -0.217799857 1.82423747
v -0.499472886 -0.21985276 0.724896967
v -0.49997291 -0.21985276 0.724396884
v -0.49997285 -0.238735855 0.724396884
v -0.49997285 -0.238735855 0.724396884
v -0.499472886 -0.238735855 0.724896967
v -0.499472886 -0.21985276 0.724896967
v 0.499527216 -0.21985276 0.724896967
v 0.499527216 -0.238735855 0.724896967
v 0.50002718 -0.238735855 0.724396884
v 0.50002718 -0.238735855 0.724396884
v 0.500027239 -0.21985276 0.724396884
v 0.499527216 -0.21985276 0.724896967
v -0.00151802064 -0.238736123 1.82344985
v -0.00151805882 -0.219853148 1.82344985
v -0.00151805882 -0.219853029 2.32794428
v -0.00151802064 -0.238736048 2.32794428
v 0.00157234189 -0.238736123 1.82344985
v 0.00157234189 -0.238736048 2.32794428
v 0.00157238008 -0.219853029 2.32794428
v 0.00157238008 -0.219853148 1.82344985
v -0.00151802064 -0.238736019 0.0774886459
v -0.00151805882 -0.219853044 0.0774886459
v -0.00151805882 -0.219852924 0.724396884
v -0.00151802064 -0.238735944 0.724396884
v 0.00157234189 -0.238736019 0.0774886459
v 0.00157234189 -0.238735944 0.724396884
v 0.00157238008 -0.219852924 0.724396884
v 0.00157238008 -0.219853044 0.0774886459
v 0.477633774 -0.21838294 0.724849999
v 0.478133738 -0.21838294 0.724349976
v 0.478133768 0.236119881 0.724349976
v 0.477633774 0.236119881 0.724849999
v -0.477564722 0.236119881 0.724849999
v -0.478064716 0.236119881 0.724349976
v -0.478064716 -0.21838294 0.724349976
v -0.477564782 -0.21838294 0.724849999
v -0.499472857 -0.238736123 1.82294989
v -0.49997285 -0.238736123 1.82344985
v -0.49997288 -0.219853044 1.82344985
v -0.499472886 -0.219853044 1.82294989
v 0.499527156 -0.238736123 1.82294989
v 0.499527216 -0.219853044 1.82294989
v 0.50002718 -0.219853044 1.82344985
v 0.50002718 -0.238736123 1.82344985
v -0.49997291 -0.21985276 0.724396884
v -0.499472886 -0.21985276 0.724896967
v -0.499472886 -0.219352767 0.724396884
v 0.500027239 -0.21985276 0.724396884
v 0.499527216 -0.219352767 0.724396884
v 0.499527216 -0.21985276 0.724896967
v 0.477484286 0.236234173 1.82423747
v 0.477984279 0.236234173 1.82473743
v 0.477984279 -0.217799857 1.82473743
v 0.477484286 -0.217799857 1.82423747
v -0.47722581 -0.217799857 1.82423747
v -0.477725804 -0.217799857 1.82473743
v -0.477725804 0.236234173 1.82473743
v -0.47722581 0.236234173 1.82423747
v -0.477750272 0.260357112 0.000500030525
v -0.478250355 0.260857105 0.000500030525
v -0.478250355 0.260857105 2.32840586
v -0.477750272 0.260357112 2.32840586
v 0.477804601 0.260357112 0.000500030525
v 0.477804601 0.260357112 2.32840586
v 0.478304684 0.260857105 2.32840586
v 0.478304684 0.260857105 0.000500030525
v -0.00151805882 -0.219853148 1.82344985
v -0.00201805122 -0.21935311 1.82344985
v -0.00201805122 -0.219353035 2.32794428
v -0.00201805122 -0.219353035 2.32794428
v -0.00151805882 -0.219853029 2.32794428
v -0.00151805882 -0.219853148 1.82344985
v 0.00157238008 -0.219853148 1.82344985
v 0.00157238008 -0.219853029 2.32794428
v 0.00207237247 -0.219353035 2.32794428
v 0.00207237247 -0.219353035 2.32794428
v 0.00207237247 -0.21935311 1.82344985
v 0.00157238008 -0.219853148 1.82344985
v -0.00151805882 -0.219853044 0.0774886459
v -0.00201805122 -0.219353005 0.0774886459
v -0.00201805122 -0.219352931 0.724396884
v -0.00201805122 -0.219352931 0.724396884
v -0.00151805882 -0.219852924 0.724396884
v -0.00151805882 -0.219853044 0.0774886459
v 0.00157238008 -0.219853044 0.0774886459
v 0.00157238008 -0.219852924 0.724396884
v 0.00207237247 -0.219352931 0.724396884
v 0.00207237247 -0.219352931 0.724396884
v 0.00207237247 -0.219353005 0.0774886459
v 0.00157238008 -0.219853044 0.0774886459
v 0.477491617 -0.194556087 0.72555244
v -0.477731287 -0.194556087 0.72555244
v -0.477731287 -0.194556043 1.8235966
v 0.477491617 -0.194556043 1.8235966
v 0.499527127 -0.197809711 0.000477452384
v -0.499472886 -0.197809637 0.000477452384
v -0.499472886 -0.197809532 0.106430978
v 0.499527127 -0.197809562 0.106430978
v 0.477633774 0.236119881 0.724849999
v 0.477633774 0.236619875 0.724349976
v -0.477564722 0.236619875 0.724349976
v -0.477564722 0.236119881 0.724849999
v -0.00201805122 -0.21935311 1.82344985
v -0.499472886 -0.219353095 1.82344985
v -0.499472886 -0.219352946 2.32794428
v -0.00201805122 -0.219353035 2.32794428
v 0.00207237247 -0.21935311 1.82344985
v 0.00207237247 -0.219353035 2.32794428
v 0.499527216 -0.219352946 2.32794428
v 0.499527216 -0.219353095 1.82344985
v -0.00201805122 -0.219353005 0.0774886459
v -0.499472886 -0.219352975 0.0774886459
v -0.499472886 -0.219352767 0.724396884
v -0.00201805122 -0.219352931 0.724396884
v 0.00207237247 -0.219353005 0.0774886459
v 0.00207237247 -0.219352931 0.724396884
v 0.499527216 -0.219352767 0.724396884
v 0.499527216 -0.219352975 0.0774886459
v -0.49997288 -0.219853044 1.82344985
v -0.499472886 -0.219353095 1.82344985
v -0.499472886 -0.219853044 1.82294989
v 0.50002718 -0.219853044 1.82344985
v 0.499527216 -0.219853044 1.82294989
v 0.499527216 -0.219353095 1.82344985
v -0.49997285 0.26026392 2.32935739
v -0.499472857 0.260763913 2.32935739
v -0.499472857 0.26026392 2.32885742
v 0.499527156 0.26026392 2.32885742
v 0.499527156 0.260763913 2.32935739
v 0.50002718 0.26026392 2.32935739
v -0.00151802064 -0.238735944 0.724396884
v -0.00201801304 -0.238735944 0.724896967
v -0.00201801304 -0.239235938 0.724396884
v 0.00157234189 -0.238735944 0.724396884
v 0.00207233429 -0.239235938 0.724396884
v 0.00207233429 -0.238735944 0.724896967
v -0.47722581 0.236234173 1.82423747
v -0.47722581 0.236734152 1.82473743
v 0.477484286 0.236734152 1.82473743
v 0.477484286 0.236234173 1.82423747
v -0.499472886 -0.238735855 0.724896967
v -0.499472886 -0.239235848 0.724396884
v -0.00201801304 -0.239235938 0.724396884
v -0.00201801304 -0.238735944 0.724896967
v 0.499527216 -0.238735855 0.724896967
v 0.00207233429 -0.238735944 0.724896967
v 0.00207233429 -0.239235938 0.724396884
v 0.499527216 -0.239235848 0.724396884
v -0.478250355 -0.21899417 0.000500030525
v -0.477750272 -0.218494177 0.000500030525
v -0.477750272 -0.218494192 2.32840586
v -0.478250355 -0.218994185 2.32840586
v 0.478304684 -0.21899417 0.000500030525
v 0.478304684 -0.218994185 2.32840586
v 0.477804601 -0.218494192 2.32840586
v 0.477804601 -0.218494177 0.000500030525
v -0.477564782 -0.21838294 0.724849999
v -0.477564782 -0.218882933 0.724349976
v 0.477633774 -0.218882933 0.724349976
v 0.477633774 -0.21838294 0.724849999
v -0.00201801304 -0.238736123 1.82294989
v -0.00151802064 -0.238736123 1.82344985
v -0.00201801304 -0.239236116 1.82344985
v 0.00207233429 -0.238736123 1.82294989
v 0.00207233429 -0.239236116 1.82344985
v 0.00157234189 -0.238736123 1.82344985
v -0.499472857 -0.239236102 2.32935739
v -0.49997285 -0.238736108 2.32935739
v -0.499472857 -0.238736108 2.32885742
v 0.499527156 -0.238736108 2.32885742
v 0.50002718 -0.238736108 2.32935739
v 0.499527156 -0.239236102 2.32935739
v -0.499472857 -0.219084337 0.106430978
v -0.499472857 -0.218584344 0.106931001
v -0.49997285 -0.218584344 0.106430978
v 0.50002718 -0.218584344 0.106430978
v 0.499527156 -0.218584344 0.106931001
v 0.499527156 -0.219084337 0.106430978
v -0.00201801304 -0.238736123 1.82294989
v -0.00201801304 -0.239236116 1.82344985
v -0.499472857 -0.239236116 1.82344985
v -0.499472857 -0.238736123 1.82294989
v 0.00207233429 -0.238736123 1.82294989
v 0.499527156 -0.238736123 1.82294989
v 0.499527156 -0.239236116 1.82344985
v 0.00207233429 -0.239236116 1.82344985
v -0.477731287 0.236087143 0.000813430757
v 0.477491617 0.236087143 0.000813430757
v 0.477491617 0.236087114 2.32824755
v -0.477731287 0.236087114 2.32824755
v 0.477484286 -0.217799857 1.82423747
v 0.477484286 -0.218299851 1.82473743
v -0.47722581 -0.218299851 1.82473743
v -0.47722581 -0.217799857 1.82423747
v -0.00201801304 -0.238735944 0.724896967
v -0.00151802064 -0.238735944 0.724396884
v -0.00151805882 -0.219852924 0.724396884
v -0.00201805122 -0.219852924 0.724896967
v 0.00207233429 -0.238735944 0.724896967
v 0.00207237247 -0.219852924 0.724896967
v 0.00157238008 -0.219852924 0.724396884
v 0.00157234189 -0.238735944 0.724396884
v -0.00201805122 -0.219352931 0.724396884
v -0.00201805122 -0.219852924 0.724896967
v -0.00151805882 -0.219852924 0.724396884
v 0.00207237247 -0.219352931 0.724396884
v 0.00157238008 -0.219852924 0.724396884
v 0.00207237247 -0.219852924 0.724896967
v -0.49997288 -0.198309526 0.106430978
v -0.499472886 -0.198309526 0.106931001
v -0.499472886 -0.197809532 0.106430978
v 0.499527127 -0.197809562 0.106430978
v 0.499527127 -0.198309556 0.106931001
v 0.50002712 -0.198309556 0.106430978
v -0.00201805122 -0.219853148 1.82294989
v -0.00201805122 -0.21935311 1.82344985
v -0.00151805882 -0.219853148 1.82344985
v -0.00201805122 -0.219853148 1.82294989
v -0.00151805882 -0.219853148 1.82344985
v -0.00151802064 -0.238736123 1.82344985
v -0.00201801304 -0.238736123 1.82294989
v 0.00207237247 -0.219853148 1.82294989
v 0.00157238008 -0.219853148 1.82344985
v 0.00207237247 -0.21935311 1.82344985
v 0.00207237247 -0.219853148 1.82294989
v 0.00207233429 -0.238736123 1.82294989
v 0.00157234189 -0.238736123 1.82344985
v 0.00157238008 -0.219853148 1.82344985
v -0.499472857 -0.238736108 2.32885742
v -0.49997285 -0.238736108 2.32935739
v -0.49997285 0.26026392 2.32935739
v -0.499472857 0.26026392 2.32885742
v 0.499527156 0.26026392 2.32885742
v 0.50002718 0.26026392 2.32935739
v 0.50002718 -0.238736108 2.32935739
v 0.499527156 -0.238736108 2.32885742
v 0.499527156 -0.218584344 0.106931001
v 0.50002718 -0.218584344 0.106430978
v 0.50002712 -0.198309556 0.106430978
v 0.499527127 -0.198309556 0.106931001
v -0.499472886 -0.198309526 0.106931001
v -0.49997288 -0.198309526 0.106430978
v -0.49997285 -0.218584344 0.106430978
v -0.499472857 -0.218584344 0.106931001
v -0.00201805122 -0.219852924 0.724896967
v -0.00201805122 -0.219352931 0.724396884
v -0.499472886 -0.219352767 0.724396884
v -0.499472886 -0.21985276 0.724896967
v 0.00207237247 -0.219852924 0.724896967
v 0.499527216 -0.21985276 0.724896967
v 0.499527216 -0.219352767 0.724396884
v 0.00207237247 -0.219352931 0.724396884
v -0.477750272 -0.218494177 0.000500030525
v -0.477750272 0.260357112 0.000500030525
v -0.477750272 0.260357112 2.32840586
v -0.477750272 -0.218494192 2.32840586
v 0.477804601 -0.218494177 0.000500030525
v 0.477804601 -0.218494192 2.32840586
v 0.477804601 0.260357112 2.32840586
v 0.477804601 0.260357112 0.000500030525
v -0.499472886 -0.238735855 0.724896967
v -0.00201801304 -0.238735944 0.724896967
v -0.00201805122 -0.219852924 0.724896967
v -0.499472886 -0.21985276 0.724896967
v 0.499527216 -0.238735855 0.724896967
v 0.499527216 -0.21985276 0.724896967
v 0.00207237247 -0.219852924 0.724896967
v 0.00207233429 -0.238735944 0.724896967
v -0.477564782 -0.21838294 0.724849999
v 0.477633774 -0.21838294 0.724849999
v 0.477633774 0.236119881 0.724849999
v -0.477564722 0.236119881 0.724849999
v -0.499472886 -0.219853044 1.82294989
v -0.499472886 -0.219353095 1.82344985
v -0.00201805122 -0.21935311 1.82344985
v -0.00201805122 -0.21935311 1.82344985
v -0.00201805122 -0.219853148 1.82294989
v -0.499472886 -0.219853044 1.82294989
v 0.499527216 -0.219853044 1.82294989
v 0.00207237247 -0.219853148 1.82294989
v 0.00207237247 -0.21935311 1.82344985
v 0.00207237247 -0.21935311 1.82344985
v 0.499527216 -0.219353095 1.82344985
v 0.499527216 -0.219853044 1.82294989
v -0.499472857 0.26026392 2.32885742
v -0.499472857 0.260763913 2.32935739
v 0.499527156 0.260763913 2.32935739
v 0.499527156 0.26026392 2.32885742
v -0.499472857 -0.238736123 1.82294989
v -0.499472886 -0.219853044 1.82294989
v -0.00201805122 -0.219853148 1.82294989
v -0.00201801304 -0.238736123 1.82294989
v 0.499527156 -0.238736123 1.82294989
v 0.00207233429 -0.238736123 1.82294989
v 0.00207237247 -0.219853148 1.82294989
v 0.499527216 -0.219853044 1.82294989
v -0.47722581 -0.217799857 1.82423747
v -0.47722581 0.236234173 1.82423747
v 0.477484286 0.236234173 1.82423747
v 0.477484286 -0.217799857 1.82423747
v 0.499527156 -0.238736108 2.32885742
v 0.499527156 -0.239236102 2.32935739
v -0.499472857 -0.239236102 2.32935739
v -0.499472857 -0.238736108 2.32885742
v -0.499472857 -0.218584344 0.106931001
v -0.499472857 -0.219084337 0.106430978
v 0.499527156 -0.219084337 0.106430978
v 0.499527156 -0.218584344 0.106931001
v 0.499527127 -0.198309556 0.106931001
v 0.499527127 -0.197809562 0.106430978
v -0.499472886 -0.197809532 0.106430978
v -0.499472886 -0.198309526 0.106931001
v -0.499472857 -0.238736108 2.32885742
v -0.499472857 0.26026392 2.32885742
v 0.499527156 0.26026392 2.32885742
v 0.499527156 -0.238736108 2.32885742
v -0.499472857 -0.218584344 0.106931001
v 0.499527156 -0.218584344 0.106931001
v 0.499527127 -0.198309556 0.106931001
v -0.499472886 -0.198309526 0.106931001
f 1 2 3
f 3 4 1
f 5 6 7
f 7 8 5
f 9 10 11
f 11 12 9
f 13 14 15
f 15 16 13
f 17 18 19
f 19 20 17
f 21 22 23
f 23 24 21
f 25 26 27
f 27 28 25
f 29 30 31
f 31 32 29
f 33 34 35
f 35 36 33
f 37 38 39
f 39 40 37
f 41 42 43
f 44 45 46
f 47 48 49
f 50 51 52
f 53 54 55
f 56 57 58
f 59 60 61
f 62 63 64
f 65 66 67
f 67 68 65
f 69 70 71
f 71 72 69
f 73 74 75
f 75 76 73
f 77 78 79
f 79 80 77
f 81 82 83
f 84 85 86
f 87 88 89
f 89 90 87
f 91 92 93
f 93 94 91
f 95 96 97
f 97 98 95
f 99 100 101
f 101 102 99
f 103 104 105
f 105 106 103
f 107 108 109
f 110 111 112
f 113 114 115
f 115 116 113
f 117 118 119
f 119 120 117
f 121 122 123
f 124 125 126
f 127 128 129
f 129 130 127
f 131 132 133
f 133 134 131
f 135 136 137
f 137 138 135
f 139 140 141
f 141 142 139
f 143 144 145
f 145 146 143
f 147 148 149
f 149 150 147
f 151 152 153
f 153 154 151
f 155 156 157
f 157 158 155
f 159 160 161
f 162 163 164
f 165 166 167
f 168 169 170
f 171 172 173
f 173 174 171
f 175 176 177
f 178 179 180
f 181 182 183
f 184 185 186
f 187 188 189
f 189 190 187
f 191 192 193
f 193 194 191
f 195 196 197
f 197 198 195
f 199 200 201
f 202 203 204
f 205 206 207
f 208 209 210
f 211 212 213
f 213 214 211
f 215 216 217
f 217 218 215
f 219 220 221
f 221 222 219
f 223 224 225
f 226 227 228
f 229 230 231
f 231 232 229
f 233 234 235
f 235 236 233
f 237 238 239
f 239 240 237
f 241 242 243
f 243 244 241
f 245 246 247
f 247 248 245
f 249 250 251
f 251 252 249
f 253 254 255
f 255 256 253
f 257 258 259
f 260 261 262
f 263 264 265
f 266 267 268
f 269 270 271
f 272 273 274
f 275 276 277
f 277 278 275
f 279 280 281
f 281 282 279
f 283 284 285
f 286 287 288
f 289 290 291
f 292 293 294
f 295 296 297
f 297 298 295
f 299 300 301
f 301 302 299
f 303 304 305
f 305 306 303
f 307 308 309
f 309 310 307
f 311 312 313
f 313 314 311
f 315 316 317
f 317 318 315
f 319 320 321
f 322 323 324
f 325 326 327
f 328 329 330
f 331 332 333
f 334 335 336
f 337 338 339
f 340 341 342
f 343 344 345
f 346 347 348
f 349 350 351
f 352 353 354
f 355 356 357
f 358 359 360
f 361 362 363
f 363 364 361
f 365 366 367
f 367 368 365
f 369 370 371
f 372 373 374
f 375 376 377
f 377 378 375
f 379 380 381
f 381 382 379
f 383 384 385
f 385 386 383
f 387 388 389
f 389 390 387
f 391 392 393
f 393 394 391
f 395 396 397
f 398 399 400
f 401 402 403
f 404 405 406
f 407 408 409
f 409 410 407
f 411 412 413
f 414 415 416
f 417 418 419
f 419 420 417
f 421 422 423
f 423 424 421
f 425 426 427
f 427 428 425
f 429 430 431
f 431 432 429
f 433 434 435
f 435 436 433
f 437 438 439
f 439 440 437
f 441 442 443
f 443 444 441
f 445 446 447
f 448 449 450
f 451 452 453
f 453 454 451
f 455 456 457
f 457 458 455
f 459 460 461
f 461 462 459
f 463 464 465
f 465 466 463
f 467 468 469
f 469 470 467
f 471 472 473
f 473 474 471
f 475 476 477
f 478 479 480
f 481 482 483
f 484 485 486
f 487 488 489
f 490 491 492
f 493 494 495
f 495 496 493
f 497 498 499
f 499 500 497
f 501 502 503
f 503 504 501
f 505 506 507
f 507 508 505
f 509 510 511
f 511 512 509
f 513 514 515
f 515 516 513
f 517 518 519
f 520 521 522
f 523 524 525
f 525 526 523
f 527 528 529
f 529 530 527
f 531 532 533
f 533 534 531
f 535 536 537
f 537 538 535
f 539 540 541
f 541 542 539
f 543 544 545
f 545 546 543
f 547 548 549
f 549 550 547
f 551 552 553
f 553 554 551
f 555 556 557
f 557 558 555
f 559 560 561
f 561 562 559
f 563 564 565
f 566 567 568
f 569 570 571
f 571 572 569
f 573 574 575
f 575 576 573
f 577 578 579
f 579 580 577
f 581 582 583
f 583 584 581
f 585 586 587
f 587 588 585
f 589 590 591
f 591 592 589
f 593 594 595
f 595 596 593
f 597 598 599
f 599 600 597
f 601 602 603
f 603 604 601
f 605 606 607
f 607 608 605
f 609 610 611
f 611 612 609
f 613 614 615
f 615 616 613
f 617 618 619
f 619 620 617
f 621 622 623
f 623 624 621
f 625 626 627
f 627 628 625
f 629 630 631
f 631 632 629
f 633 634 635
f 635 636 633
f 637 638 639
f 639 640 637
f 641 642 643
f 643 644 641
f 645 646 647
f 647 648 645
f 649 650 651
f 651 652 649
f 653 654 655
f 655 656 653
f 657 658 659
f 659 660 657
f 661 662 663
f 664 665 666
f 667 668 669
f 669 670 667
f 671 672 673
f 673 674 671
f 675 676 677
f 677 678 675
f 679 680 681
f 682 683 684
f 685 686 687
f 688 689 690
f 691 692 693
f 693 694 691
f 695 696 697
f 697 698 695
f 699 700 701
f 701 702 699
f 703 704 705
f 705 706 703
f 707 708 709
f 709 710 707
f 711 712 713
f 713 714 711
f 715 716 717
f 717 718 715
f 719 720 721
f 721 722 719
f 723 724 725
f 726 727 728
f 729 730 731
f 732 733 734
f 735 736 737
f 737 738 735
f 739 740 741
f 741 742 739
f 743 744 745
f 745 746 743
f 747 748 749
f 750 751 752
f 753 754 755
f 756 757 758
f 759 760 761
f 761 762 759
f 763 764 765
f 765 766 763
f 767 768 769
f 770 771 772
f 773 774 775
f 775 776 773
f 777 778 779
f 779 780 777
f 781 782 783
f 783 784 781
f 785 786 787
f 787 788 785
f 789 790 791
f 791 792 789
f 793 794 795
f 795 796 793
f 797 798 799
f 799 800 797
f 801 802 803
f 803 804 801
f 805 806 807
f 807 808 805
f 809 810 811
f 811 812 809
f 813 814 815
f 815 816 813
f 817 818 819
f 820 821 822
f 823 824 825
f 826 827 828
f 829 830 831
f 832 833 834
f 835 836 837
f 837 838 835
f 839 840 841
f 841 842 839
f 843 844 845
f 845 846 843
f 847 848 849
f 849 850 847
f 851 852 853
f 854 855 856
f 857 858 859
f 860 861 862
f 863 864 865
f 866 867 868
f 869 870 871
f 872 873 874
f 875 876 877
f 878 879 880
f 881 882 883
f 884 885 886
f 887 888 889
f 889 890 887
f 891 892 893
f 893 894 891
f 895 896 897
f 897 898 895
f 899 900 901
f 901 902 899
f 903 904 905
f 905 906 903
f 907 908 909
f 909 910 907
f 911 912 913
f 913 914 911
f 915 916 917
f 917 918 915
f 919 920 921
f 922 923 924
f 925 926 927
f 927 928 925
f 929 930 931
f 931 932 929
f 933 934 935
f 935 936 933
f 937 938 939
f 939 940 937
f 941 942 943
f 944 945 946
f 947 948 949
f 950 951 952
f 953 954 955
f 956 957 958
f 959 960 961
f 962 963 964
f 965 966 967
f 967 968 965
f 969 970 971
f 971 972 969
f 973 974 975
f 975 976 973
f 977 978 979
f 979 980 977
f 981 982 983
f 983 984 981
f 985 986 987
f 987 988 985
f 989 990 991
f 991 992 989
f 993 994 995
f 996 997 998
f 999 1000 1001
f 1002 1003 1004
f 1005 1006 1007
f 1008 1009 1010
f 1011 1012 1013
f 1013 1014 1011
f 1015 1016 1017
f 1017 1018 1015
f 1019 1020 1021
f 1021 1022 1019
f 1023 1024 1025
f 1025 1026 1023
f 1027 1028 1029
f 1029 1030 1027
f 1031 1032 1033
f 1033 1034 1031
f 1035 1036 1037
f 1038 1039 1040
f 1041 1042 1043
f 1044 1045 1046
f 1047 1048 1049
f 1050 1051 1052
f 1053 1054 1055
f 1055 1056 1053
f 1057 1058 1059
f 1059 1060 1057
f 1061 1062 1063
f 1063 1064 1061
f 1065 1066 1067
f 1067 1068 1065
f 1069 1070 1071
f 1071 1072 1069
f 1073 1074 1075
f 1075 1076 1073
f 1077 1078 1079
f 1080 1081 1082
f 1083 1084 1085
f 1086 1087 1088
f 1089 1090 1091
f 1092 1093 1094
f 1094 1095 1092
f 1096 1097 1098
f 1099 1100 1101
f 1101 1102 1099
f 1103 1104 1105
f 1105 1106 1103
f 1107 1108 1109
f 1109 1110 1107
f 1111 1112 1113
f 1113 1114 1111
f 1115 1116 1117
f 1117 1118 1115
f 1119 1120 1121
f 1121 1122 1119
f 1123 1124 1125
f 1125 1126 1123
f 1127 1128 1129
f 1129 1130 1127
f 1131 1132 1133
f 1133 1134 1131
f 1135 1136 1137
f 1137 1138 1135
f 1139 1140 1141
f 1141 1142 1139
f 1143 1144 1145
f 1145 1146 1143
f 1147 1148 1149
f 1150 1151 1152
f 1153 1154 1155
f 1156 1157 1158
f 1159 1160 1161
f 1161 1162 1159
f 1163 1164 1165
f 1165 1166 1163
f 1167 1168 1169
f 1169 1170 1167
f 1171 1172 1173
f 1173 1174 1171
f 1175 1176 1177
f 1177 1178 1175
f 1179 1180 1181
f 1181 1182 1179
f 1183 1184 1185
f 1185 1186 1183
f 1187 1188 1189
f 1189 1190 1187
f 1191 1192 1193
f 1193 1194 1191
