v -0.185435846 -0.0027287649 0.0642934218
v -0.185436562 0.0111690117 0.0642634407
v -0.184728011 0.0111682368 0.0639362708
v -0.184728041 0.0275042616 0.0638999119
v -0.185938343 -0.00280589331 0.0649494901
v -0.185939148 0.0111079765 0.0649202839
v -0.186076209 -0.00288248528 0.0654759184
v -0.185465202 -0.0143012451 0.0649685636
v -0.185603514 -0.0143851684 0.0654988065
v -0.184163019 -0.0234942473 0.0655141845
v -0.185436621 0.0275049768 0.0642270818
v -0.184728101 0.0459582172 0.0638589039
v -0.185436651 0.0459589325 0.0641860738
v -0.185939148 0.0274562202 0.0648839846
v -0.185939208 0.0459254347 0.064842917
v -0.185939208 0.0661805198 0.0647978559
v -0.185436681 0.066196911 0.0641410723
v -0.186076716 0.0274028145 0.06540934
v -0.185939208 0.110707693 0.0646988526
v -0.185436681 0.110689096 0.0640421286
v -0.185436651 0.133159339 0.0639921799
v -0.186076686 0.0110412193 0.0654456988
v -0.185873404 0.0273542963 0.0661806241
v -0.185873404 0.0109804226 0.0662171021
v -0.185872987 -0.00294501055 0.0662471429
v -0.185401216 -0.0144273089 0.0662694946
v -0.18396996 -0.0234785117 0.0662849322
v -0.181186453 -0.0302222408 0.0655262247
v -0.181043103 -0.0300967135 0.0663009062
v -0.176116124 -0.0343806781 0.0655473843
v -0.176100895 -0.0341504253 0.0663257614
v -0.165221289 -0.0363962092 0.065571405
v -0.165304735 -0.0361436047 0.0663465038
v -0.144676372 -0.0370416678 0.0655795112
v -0.144774243 -0.0367875732 0.0663547292
v -0.110304192 -0.0370419659 0.0655807033
v -0.110383019 -0.0367877521 0.0663559213
v -0.0580254011 -0.0370419659 0.0655807033
v -0.110383019 -0.0360280313 0.0669818893
v -0.144761458 -0.0360280313 0.0669818297
v -0.165220305 -0.0353897847 0.06698028
v -0.175776675 -0.0334750451 0.0669758692
v -0.180447623 -0.0296455659 0.0669672266
v -0.183250204 -0.0232630409 0.0669528618
v -0.184651509 -0.0143495845 0.0669328943
v -0.185118631 -0.00292724837 0.0669073835
v -0.185118631 0.0109819127 0.0668763295
v -0.185118631 0.0273557864 0.0668398514
v -0.185873374 0.0458553992 0.0661394969
v -0.185118631 0.0458568297 0.0667987242
v -0.186076716 0.045888599 0.0653682128
v -0.185873404 0.0661461279 0.0660943761
v -0.18511866 0.0661475584 0.0667535439
v -0.186076745 0.0661622807 0.065323092
v -0.185873404 0.0878889486 0.0660460368
v -0.18511866 0.0878903791 0.0667052045
v -0.186076745 0.110727482 0.0652240291
v -0.18511866 0.110747807 0.0666544214
v -0.185939208 0.133194029 0.0646488443
v -0.185873404 0.110746317 0.065995194
v -0.186076716 0.133231282 0.0651739612
v -0.185873374 0.133266211 0.0659451261
v -0.185118631 0.133267641 0.0666043535
v -0.185873404 0.153996408 0.0658990517
v -0.185118631 0.153997898 0.0665582791
v -0.186076716 0.153947234 0.0651279464
v -0.185939148 0.153894484 0.0646028295
v -0.185873404 0.171484888 0.0658601895
v -0.185118631 0.171486318 0.0665194765
v -0.185436621 0.153845608 0.0639461651
v -0.185939148 0.171358407 0.0645639673
v -0.185436562 0.171297789 0.0639073625
v -0.185872808 0.184300244 0.065830566
v -0.186076686 0.171423972 0.0650890842
v -0.185118631 0.184280872 0.0664911047
v -0.185395971 0.193304896 0.0658064261
v -0.186076 0.184238911 0.0650596991
v -0.185938105 0.184162736 0.0645333305
v -0.185435608 0.184083283 0.0638777986
v -0.184651509 0.193195462 0.0664714351
v -0.185458556 0.193189919 0.0645041242
v -0.184959188 0.193059683 0.0638525859
v -0.183922574 0.199368238 0.0657893196
v -0.185597047 0.193275571 0.0650356784
v -0.183250204 0.19904387 0.0664585605
v -0.18091704 0.203219414 0.0657863989
v -0.184098825 0.199433029 0.0650155917
v -0.183959946 0.199343145 0.0644768849
v -0.183489755 0.199097276 0.0638289228
v -0.180447623 0.202639937 0.0664507523
v -0.180857852 0.203317046 0.0644776002
v -0.180493101 0.2029351 0.0638245121
v -0.175984845 0.205519974 0.0657977834
v -0.180999652 0.203402221 0.0650101081
v -0.175776675 0.204797626 0.0664461032
v -0.165268436 0.206631184 0.0658083335
v -0.175946489 0.205759883 0.0650211349
v -0.175809339 0.205674767 0.064509131
v -0.175583109 0.205225885 0.0638413802
v -0.165220335 0.20587641 0.0664438382
v -0.165050521 0.206792712 0.0645327941
v -0.16491057 0.206333816 0.06385497
v -0.14476867 0.206992745 0.0658115521
v -0.165170565 0.206878901 0.0650323406
v 0.166766122 0.202043831 0.0507014729
v 0.146926001 0.202374458 0.0506671406
v 0.148275927 0.203824818 0.0546385385
v 0.113538459 0.202374041 0.0506658293
v 0.168332294 0.203472912 0.0546415187
v 0.114574626 0.203824341 0.0546368696
v 0.178681627 0.202416003 0.0546463467
v 0.0632906705 0.203824043 0.0546358563
v 0.176930502 0.201051116 0.0508011915
v 0.0627316982 0.202373862 0.0506649949
v 0.181353346 0.199035108 0.0508714058
v 0.00321539002 0.202373743 0.0506647564
v 0.00321539002 0.203823984 0.0546354987
v 0.183261588 0.200301528 0.0546536781
v -0.0568598919 0.203824043 0.0546358563
v 0.186009958 0.196776867 0.0546641089
v 0.183969036 0.195634484 0.0508173443
v -0.0563008599 0.202373862 0.0506649949
v 0.185253277 0.19002825 0.0507361628
v -0.107107624 0.202374041 0.0506658293
v -0.108143821 0.203824341 0.0546368696
v 0.18738468 0.191044152 0.0546792485
v -0.141845122 0.203824818 0.0546385385
v 0.187843457 0.182305515 0.0547007062
v 0.185681775 0.181395292 0.0507250763
v -0.140495196 0.202374458 0.0506671406
v 0.185682312 0.168969572 0.0507539846
v -0.160335317 0.202043831 0.0507014729
v -0.161901519 0.203472912 0.0546415187
v 0.187478855 -0.0301365294 0.0649879947
v 0.190455571 -0.0234054364 0.0649772659
v 0.190593854 -0.0234942473 0.0655141845
v 0.187473908 -0.0300967135 0.0663009062
v 0.190400794 -0.0234785117 0.0662849322
v 0.189681008 -0.0232630409 0.0669528618
v 0.191082314 -0.0143495845 0.0669328943
v 0.191896036 -0.0143012451 0.0649685636
v 0.191395298 -0.0141896652 0.0643154159
v 0.192034319 -0.014385228 0.0654988065
v 0.191832021 -0.0144273089 0.0662694946
v 0.191549435 -0.00292724837 0.0669073835
v 0.192303792 -0.00294501055 0.0662471429
v 0.192507043 -0.00288248528 0.0654759184
v 0.19250752 0.0110412193 0.0654456988
v 0.192369953 0.0111079765 0.0649202839
v 0.19250752 0.0274028145 0.06540934
v 0.192369178 -0.00280589331 0.0649494901
v 0.191866711 -0.0027287649 0.0642934218
v 0.190692499 -0.014123206 0.0639925972
v 0.191158727 -0.0027158903 0.0639672056
v 0.191867366 0.0111689521 0.0642634407
v 0.191158846 0.0111682368 0.0639362708
v 0.191867426 0.0275049768 0.0642270818
v 0.191158846 0.0275042616 0.0638999119
v 0.192369953 0.0274562202 0.0648839846
v 0.192370012 0.0459254347 0.064842917
v 0.191867486 0.0459589325 0.0641860738
v 0.191158906 0.0459582172 0.0638589039
v 0.192370012 0.0661805198 0.0647978559
v 0.191867486 0.066196911 0.0641410723
v 0.191158906 0.0661961958 0.0638139024
v 0.192370012 0.110707693 0.0646988526
v 0.191867486 0.110689096 0.0640421286
v 0.191158906 0.110688381 0.0637149587
v 0.191867486 0.133159339 0.0639921799
v 0.191158906 0.133158624 0.06366501
v 0.191867426 0.153845608 0.0639461651
v 0.191158846 0.153844833 0.0636189952
v -0.144761458 0.206236005 0.0664431229
v -0.110383019 0.206992865 0.0658122674
v -0.144668803 0.207240939 0.0650353208
v -0.144565836 0.207154751 0.0645384565
v -0.144459799 0.206695259 0.0638578311
v -0.110383019 0.206236005 0.0664432421
v -0.110225692 0.20715493 0.0645394698
v -0.110146955 0.206695437 0.0638583675
v -0.0580679588 0.206992865 0.0658122674
v -0.110304281 0.207241058 0.0650359765
v -0.0580679588 0.206236005 0.0664433017
v 0.00321539002 0.206992865 0.0658122674
v -0.0580254607 0.207241058 0.0650359765
v -0.0579830818 0.20715493 0.0645394698
v -0.0579405837 0.206695378 0.0638583675
v 0.00321539002 0.206236005 0.0664433017
v 0.00321539002 0.20715487 0.0645394698
v 0.00321539002 0.206695378 0.0638583675
v 0.0643714219 0.206695378 0.0638583675
v 0.0644987971 0.206992865 0.0658122674
v 0.0644987971 0.206236005 0.0664433017
v 0.00321539002 0.207241058 0.0650359765
v 0.0644562989 0.207241058 0.0650359765
v 0.116813853 0.206992865 0.0658122674
v 0.116813853 0.206236005 0.0664432421
v 0.151199475 0.206992805 0.0658115521
v 0.151192263 0.206236005 0.0664431229
v 0.116735116 0.207241058 0.0650359765
v 0.171699241 0.206631184 0.0658083335
v 0.17165114 0.20587641 0.0664438382
v 0.151099637 0.207240939 0.0650353208
v 0.182415679 0.205519974 0.0657977834
v 0.18220754 0.204797626 0.0664461032
v 0.17160137 0.206878901 0.0650323406
v 0.187347844 0.203219414 0.0657863989
v 0.186878458 0.202639937 0.0664507523
v 0.182377294 0.205759883 0.0650211349
v 0.190353408 0.199368238 0.0657893196
v 0.189681008 0.19904387 0.0664585605
v 0.187430456 0.203402221 0.0650101081
v 0.191826776 0.193304896 0.0658064261
v 0.191082314 0.193195462 0.0664714351
v 0.190529659 0.199433029 0.0650155917
v 0.192303613 0.184300244 0.065830566
v 0.191549435 0.184280872 0.0664911047
v 0.192027882 0.193275571 0.0650356784
v 0.192304209 0.171484888 0.0658601895
v 0.191549435 0.171486318 0.0665194765
v 0.192506805 0.184238911 0.0650596991
v 0.192304209 0.153996408 0.0658990517
v 0.191549435 0.153997898 0.0665582791
v 0.19250752 0.171423972 0.0650890842
v 0.192304209 0.133266211 0.0659451261
v 0.191549435 0.133267641 0.0666043535
v 0.19250752 0.153947234 0.0651279464
v 0.192304209 0.110746317 0.065995194
v 0.191549495 0.110747807 0.0666544214
v 0.19250752 0.133231282 0.0651739612
v 0.192304209 0.0661461279 0.0660943761
v 0.191549495 0.0661475584 0.0667535439
v 0.192369953 0.171358407 0.0645639673
v 0.192304209 0.0458553992 0.0661394969
v 0.191549435 0.0458568297 0.0667987242
v 0.192304209 0.0273542963 0.0661806241
v 0.191549435 0.0273557864 0.0668398514
v 0.19250752 0.045888599 0.0653682128
v 0.192304209 0.0109804226 0.0662171021
v 0.191549435 0.0109819127 0.0668763295
v 0.19250758 0.0661622211 0.065323092
v 0.19250758 0.110727482 0.0652240291
v 0.192370012 0.133194029 0.0646488443
v 0.192369953 0.153894484 0.0646028295
v 0.191867366 0.171297729 0.0639073625
v 0.191866413 0.184083283 0.0638777986
v 0.19236894 0.184162736 0.0645333305
v 0.191389993 0.193059683 0.0638525859
v 0.191889361 0.193189919 0.0645041242
v 0.18992056 0.199097276 0.0638289228
v 0.190390781 0.199343145 0.0644768849
v 0.186923936 0.2029351 0.0638245121
v 0.187288657 0.203317046 0.0644776002
v 0.182013944 0.205225885 0.0638413802
v 0.182240143 0.205674767 0.064509131
v 0.171341375 0.206333816 0.06385497
v 0.171481326 0.206792712 0.0645327941
v 0.150890604 0.206695259 0.0638578311
v 0.15099664 0.207154751 0.0645384565
v 0.116577759 0.206695437 0.0638583675
v 0.116656497 0.20715493 0.0645394698
v 0.06441392 0.20715493 0.0645394698
v 0.00321539002 -0.0369606651 0.0650850311
v 0.00321539002 -0.0370419659 0.0655807033
v 0.00321539002 -0.0367877521 0.0663559809
v 0.0644562393 -0.0370419659 0.0655807033
v -0.0580679588 -0.0367877521 0.0663559809
v -0.0580679588 -0.0360280313 0.0669819489
v 0.00321539002 -0.0360280313 0.0669820085
v 0.0644987971 -0.0360280313 0.0669819489
v 0.0644987971 -0.0367877521 0.0663559809
v 0.116813853 -0.0360280313 0.0669818893
v 0.116813853 -0.0367877521 0.0663559213
v 0.151192263 -0.0360280313 0.0669818297
v 0.116734996 -0.0370419659 0.0655807033
v 0.151205078 -0.0367875732 0.0663547292
v 0.17165114 -0.0353897847 0.06698028
v 0.151107207 -0.0370416678 0.0655795112
v 0.116656616 -0.0369606651 0.0650850311
v 0.0644139796 -0.0369606651 0.0650850311
v 0.17173554 -0.0361436047 0.0663465038
v 0.18220754 -0.0334751047 0.0669758692
v 0.171652094 -0.0363962092 0.065571405
v 0.0643714219 -0.0365066566 0.0644007102
v 0.00321539002 -0.036506597 0.0644007102
v 0.0643714219 -0.035786394 0.0640409365
v 0.116577819 -0.0365066566 0.0644007102
v 0.116577819 -0.035786394 0.0640409365
v 0.150895134 -0.0365062989 0.0643996969
v 0.150884822 -0.0357865132 0.0640409365
v 0.151004031 -0.0369603075 0.0650833026
v 0.171372131 -0.0358619131 0.0643915311
v 0.171301261 -0.0351486839 0.064039506
v 0.171529844 -0.0363146104 0.0650702491
v 0.182119027 -0.0338735618 0.0643618479
v 0.181835786 -0.0332350768 0.0640352145
v 0.18704845 -0.0298267044 0.0643375292
v 0.186497167 -0.0294077434 0.0640266314
v 0.18240656 -0.0343009867 0.0650275722
v 0.182546929 -0.0343806781 0.0655473843
v 0.189967468 -0.0232218541 0.0643284693
v 0.189293995 -0.0230287947 0.0640124455
v 0.182531729 -0.0341504253 0.0663257614
v 0.186878458 -0.0296455659 0.0669672266
v 0.187617257 -0.0302222408 0.0655262247
v -0.110225782 -0.0369606651 0.0650850311
v -0.0579831414 -0.0369606651 0.0650850311
v -0.0579405837 -0.0365066566 0.0644007102
v -0.110146955 -0.0365066566 0.0644007102
v -0.110146955 -0.035786394 0.0640409365
v -0.0579405837 -0.035786394 0.0640409365
v -0.144453987 -0.0357865132 0.0640409365
v 0.00321539002 -0.035786394 0.0640409365
v -0.144464329 -0.0365062989 0.0643996969
v -0.164870456 -0.0351486839 0.064039506
v -0.144573197 -0.0369603075 0.0650833026
v -0.164941296 -0.0358619131 0.0643915311
v -0.175404981 -0.0332350768 0.0640352145
v -0.16509904 -0.0363146104 0.0650702491
v -0.175688192 -0.0338735618 0.0643618479
v -0.180066332 -0.0294077434 0.064026691
v -0.175975755 -0.0343009867 0.0650275722
v -0.180617645 -0.0298267044 0.0643375292
v -0.182863191 -0.0230287947 0.0640124455
v -0.181048051 -0.0301365294 0.0649879947
v -0.183536634 -0.0232218541 0.0643284693
v -0.184261695 -0.014123206 0.0639925972
v -0.184024736 -0.0234054364 0.0649772659
v -0.184964493 -0.0141896652 0.0643154159
v -0.184727922 -0.0027158903 0.0639672056
v 0.0461166687 0.0387670361 0.0727532282
v 0.0460406728 0.0394255482 0.0727517977
v 0.0459749885 0.0394107662 0.0730018392
v 0.0457536764 0.0400291644 0.0730004087
v 0.0460496731 0.0387637578 0.0730032697
v 0.0458142348 0.0400582515 0.0727503672
v 0.0457956381 0.0393692814 0.0731849447
v 0.0455882736 0.0399486385 0.0731836334
v 0.0458666272 0.0387535654 0.073186256
v 0.0459749885 0.0394096337 0.0725018159
v 0.0460496731 0.0387626253 0.0725032464
v 0.0461166687 -0.000808362733 0.0728412643
v 0.0460496731 -0.000805024873 0.0725912228
v 0.0460496731 -0.000803951989 0.0730912462
v 0.0460406728 -0.00146687485 0.0728426948
v 0.0459749885 -0.0014520929 0.0725926533
v 0.0458666272 -0.000794892083 0.072408177
v 0.0457956381 -0.00141054846 0.0724095479
v 0.0458666272 0.0387516581 0.0723202601
v 0.0455505438 -0.00135344721 0.072342433
v 0.0456166454 -0.000780646573 0.0723411813
v 0.0453623123 -0.0018795178 0.0723436251
v 0.0455882736 -0.00198996533 0.0724108592
v 0.044105012 0.0407569371 0.0723157898
v 0.0445224233 0.040491458 0.0723163858
v 0.0444072075 0.0403482281 0.0724997297
v 0.0440240689 0.0405919515 0.0724991933
v 0.0436323471 0.0409260951 0.0723154321
v 0.0447271653 0.0400282107 0.0725004449
v 0.0448708124 0.0401430093 0.0723171607
v 0.0446797796 0.0406874977 0.072248973
v 0.0450670309 0.0403001867 0.0722498074
v 0.0448371358 0.0408838354 0.0723154917
v 0.0451364107 0.0397255383 0.0723181143
v 0.0449709482 0.0396450125 0.0725012794
v 0.044674594 0.0399866067 0.072750546
v 0.0449104495 0.0396159254 0.0727513805
v 0.044365067 0.0402961932 0.0727498308
v 0.0449709482 0.039646145 0.0730013028
v 0.0447271653 0.0400293432 0.0730004087
v 0.0451261587 0.0392124616 0.0730022565
v 0.0450604744 0.0391965471 0.0727522746
v 0.0451261587 0.0392113291 0.0725022331
v 0.0451166816 0.0387093984 0.0727533475
v 0.0451836772 0.0387138091 0.0730033889
v 0.0453055091 0.0392547809 0.0731851831
v 0.0453666635 0.0387247764 0.0731863752
v 0.0451364107 0.0397275053 0.0731841102
v 0.0456166454 0.0387393199 0.0732533112
v 0.0455505438 0.0393121801 0.0732520595
v 0.0456166454 -0.000778381596 0.0733411685
v 0.0453666635 -0.000764136086 0.0732741728
v 0.0451836772 -0.000754003297 0.073091127
v 0.0453055091 -0.00129414059 0.0732753053
v 0.0455505438 -0.00135124184 0.0733424202
v 0.0458666272 -0.000792984734 0.0732742324
v 0.0457956381 -0.00140864111 0.0732756034
v 0.0459749885 -0.00145096041 0.0730926767
v 0.0453623123 0.0398381911 0.0732508674
v 0.0458142348 -0.00209957827 0.0728441253
v 0.0457536764 -0.0020704912 0.0725940242
v 0.0457536764 -0.00206935871 0.0730940476
v 0.0454068966 -0.00261569489 0.0725952759
v 0.0452632494 -0.00250089634 0.0724119917
v 0.0454594679 -0.00265729893 0.072845377
v 0.0455882736 -0.00198799837 0.0732768551
v 0.0454068966 -0.0026145624 0.0730952397
v 0.0453623123 -0.00187731243 0.0733436123
v 0.0452632494 -0.00249898899 0.0732779875
v 0.0450670309 -0.00234151352 0.0733446255
v 0.0451364107 -0.00176686503 0.0732763782
v 0.0451261587 -0.00125259615 0.0730921999
v 0.0451166816 -0.000750665436 0.0728410855
v 0.0451836772 0.0387126766 0.0725033656
v 0.0453055091 0.0392528139 0.0723191276
v 0.0453623123 0.0398359857 0.0722508803
v 0.0452632494 0.0404576622 0.0723164454
v 0.044952292 0.0410278998 0.0724982396
v 0.0444070287 0.0413747393 0.0724974647
v 0.0444366522 0.041435834 0.0727473274
v 0.0438038297 0.0416622721 0.0727467909
v 0.0437885113 0.0415971242 0.0729969516
v 0.0431415625 0.0416717492 0.0729967728
v 0.0431310125 0.0414891802 0.0731801763
v -0.0370353274 0.0414891802 0.0731801763
v -0.0370209627 0.0412393175 0.073247768
v -0.0375938229 0.041173216 0.0732478872
v -0.0375366621 0.0409280024 0.073181428
v -0.0380092673 0.0407589041 0.0731818452
v -0.0379283242 0.0405930839 0.072999157
v -0.0383114628 0.0403493606 0.0729997531
v -0.0382692628 0.0402962528 0.0727498308
v -0.0385789685 0.0399866067 0.072750546
v -0.0386315398 0.0400282107 0.0725004449
v -0.0388753228 0.0396450125 0.0725012794
v -0.0390407257 0.0397255383 0.0723181143
v -0.0392098241 0.0392528139 0.0723191276
v -0.0394549184 0.0393099152 0.0722520128
v -0.0395209603 0.0387371145 0.0722533241
v -0.0397710018 0.0387516581 0.0723202601
v -0.0397710018 -0.000794892083 0.072408177
v -0.039953988 -0.000805024873 0.0725912228
v -0.0398793034 -0.0014520929 0.0725926533
v -0.0399449877 -0.00146687485 0.0728426948
v -0.0397185497 -0.00209957827 0.0728441253
v -0.039658051 -0.00206935871 0.0730940476
v -0.0393112116 -0.0026145624 0.0730952397
v -0.0391675644 -0.00249898899 0.0732779875
v -0.0387414508 -0.0029251622 0.0732789412
v -0.0385840945 -0.0027287649 0.0733455196
v -0.0381198935 -0.00302410591 0.0733461753
v -0.0380093269 -0.00279826391 0.0732787028
v -0.0375366621 -0.00296736229 0.0732790604
v -0.0374948196 -0.00278836954 0.0730956569
v -0.0369961075 -0.00284594763 0.0730957761
v -0.0369922332 -0.00277948845 0.0728456154
v 0.0430879183 -0.00277948845 0.0728456154
v 0.0430917926 -0.00284708012 0.0725957528
v 0.0435905047 -0.00278950203 0.0725956336
v 0.0436323471 -0.00296932925 0.0724130049
v 0.0441049524 -0.00280023087 0.0724126473
v 0.0442155786 -0.00302631129 0.0723461881
v 0.0446797796 -0.00273102988 0.0723455325
v 0.0448371358 -0.00292700995 0.0724129453
v 0.0449523516 -0.00307023991 0.0725962892
v 0.0443261452 -0.00325209368 0.0724136606
v 0.043689508 -0.00321454275 0.0723466054
v 0.043102283 -0.00303048361 0.0724131837
v 0.0449945517 -0.00312221516 0.0728463903
v 0.0444071479 -0.00341707934 0.0725970641
v 0.0437466688 -0.00345945824 0.0724141374
v 0.0431166478 -0.00328064431 0.0723467246
v 0.0449523516 -0.00306910742 0.073096253
v 0.0444367714 -0.00347710121 0.0728471652
v 0.0437885113 -0.00363845099 0.0725975409
v 0.0431310125 -0.00353044737 0.0724142566
v 0.0448371358 -0.0029251026 0.0732789412
v 0.0444071479 -0.00341600645 0.0730970278
v 0.0438038297 -0.00370353926 0.0728477016
v 0.0431415625 -0.003713076 0.0725977197
v 0.0431453772 -0.00377953518 0.0728478208
v 0.0437885113 -0.0036373185 0.0730975047
v 0.0443261452 -0.00325018633 0.0732796565
v 0.0446797796 -0.0027287649 0.0733455196
v 0.0448708124 -0.00218433607 0.0732773319
v 0.0449709482 -0.00168633915 0.0730932131
v 0.0450604744 -0.0012378142 0.072842218
v 0.0451836772 -0.00075507618 0.0725911036
v 0.0453666635 0.0387228094 0.0723203197
v 0.0455505438 0.0393099152 0.0722520128
v 0.0455882736 0.0399467312 0.0723175779
v 0.0454068966 0.0405732952 0.0724992529
v 0.0449944325 0.0410810076 0.0727481022
v 0.0444070287 0.0413758121 0.0729974285
v 0.0437466688 0.0414181314 0.0731803551
v 0.0431166478 0.0412393175 0.073247768
v -0.037006598 0.0409891568 0.0731813088
v -0.0374948196 0.0407482348 0.072998859
v -0.0378987007 0.0405319892 0.0727492943
v -0.0383114628 0.0403482877 0.0724997297
v -0.0387751274 0.0401430093 0.0723171607
v -0.0392666869 0.0398359857 0.0722508803
v -0.039699953 0.0393673144 0.0723188892
v -0.039953988 0.0387626253 0.0725032464
v -0.0400209837 -0.000808362733 0.0728412643
v -0.0398793034 -0.00145096041 0.0730926767
v -0.0394926481 -0.00198799837 0.0732768551
v -0.0389713459 -0.00234151352 0.0733446255
v -0.0384267382 -0.00253272522 0.0732781067
v -0.0379283838 -0.00263321865 0.0730952993
v -0.0374795012 -0.00272328127 0.0728454962
v -0.0369961075 -0.00284708012 0.0725957528
v -0.037006598 -0.00303048361 0.0724131837
v -0.0374948196 -0.00278950203 0.0725956336
v -0.0378987603 -0.00257325638 0.0728451386
v -0.0383115225 -0.00238949526 0.0730947629
v -0.0370209627 -0.00328064431 0.0723467246
v -0.0375366621 -0.00296932925 0.0724130049
v -0.0379283838 -0.00263435114 0.0725952759
v -0.038269382 -0.00233752001 0.0728446618
v -0.0370353274 -0.00353044737 0.0724142566
v -0.0375938229 -0.00321454275 0.0723466054
v -0.0380093269 -0.00280017126 0.0724126473
v -0.0383115225 -0.00239062775 0.0725947395
v -0.0370458774 -0.003713076 0.0725977197
v -0.0376509838 -0.00345945824 0.0724141374
v -0.0381198935 -0.00302631129 0.0723461881
v -0.0384267382 -0.00253463257 0.0724120513
v -0.0385840945 -0.00273102988 0.0723455325
v -0.0382304005 -0.00325209368 0.0724136606
v -0.0376928262 -0.00363845099 0.0725975409
v -0.0370496921 -0.00377953518 0.0728478208
v 0.0431415625 -0.00371194351 0.0730976835
v 0.0437466688 -0.00345755089 0.0732801333
v 0.0442155786 -0.00302410591 0.0733461753
v 0.0445223637 -0.00253278483 0.0732781067
v 0.0447271653 -0.00206953753 0.0730940476
v 0.0449104495 -0.00165725208 0.0728431121
v 0.0451261587 -0.00125372864 0.0725922361
v 0.0453666635 -0.000766043435 0.0724081174
v 0.0456166454 0.0387371145 0.0722533241
v 0.0457956381 0.0393673144 0.0723188892
v 0.0457536764 0.0400280915 0.0725004449
v 0.0454594679 0.0406159721 0.0727491155
v 0.044952292 0.0410289727 0.0729982033
v 0.0443260856 0.0412108265 0.073180832
v 0.043689508 0.041173216 0.0732478872
v 0.043102283 0.0409891568 0.0731813088
v -0.0369961075 0.0408057533 0.0729986802
v -0.0374795012 0.0406820141 0.0727489963
v -0.0379283242 0.0405920111 0.0724991933
v -0.0384266786 0.040491458 0.0723163858
v -0.0389713459 0.0403001867 0.0722498074
v -0.0394926481 0.0399467312 0.0723175779
v -0.0398793034 0.0394096337 0.0725018159
v -0.0400209837 0.0387670361 0.0727532282
v -0.039953988 -0.000803951989 0.0730912462
v -0.039699953 -0.00140864111 0.0732756034
v -0.0392666869 -0.00187731243 0.0733436123
v -0.038775187 -0.00218433607 0.0732773319
v -0.0386315398 -0.00206953753 0.0730940476
v -0.0390407257 -0.00176686503 0.0732763782
v -0.0394549184 -0.00135124184 0.0733424202
v -0.0397710018 -0.000792984734 0.0732742324
v -0.0385789685 -0.00202793349 0.0728439465
v -0.0388753228 -0.00168633915 0.0730932131
v -0.0392098837 -0.00129414059 0.0732753053
v -0.0395209603 -0.000778381596 0.0733411685
v -0.0386315398 -0.00207067002 0.0725940242
v -0.0388147645 -0.00165725208 0.0728431121
v -0.0390304737 -0.00125265575 0.0730921999
v -0.0392709784 -0.000764136086 0.0732741728
v -0.038775187 -0.00218624342 0.0724112764
v -0.0388753228 -0.00168741203 0.0725931898
v -0.0389647894 -0.0012378142 0.072842218
v -0.0390879922 -0.000754003297 0.073091127
v -0.0390209965 -0.000750665436 0.0728410855
v -0.0390304737 -0.00125372864 0.0725922361
v -0.0390407257 -0.00176877237 0.0724103823
v -0.0389713459 -0.00234371889 0.0723446384
v -0.0387414508 -0.00292706955 0.0724129453
v -0.0383113436 -0.00341713894 0.0725970641
v -0.0377081446 -0.00370353926 0.0728477016
v -0.0370458774 -0.00371194351 0.0730976835
v 0.0431310125 -0.00352854002 0.0732803121
v 0.043689508 -0.00321227778 0.0733465925
v 0.0441049524 -0.00279826391 0.0732787028
v 0.0444071479 -0.00238955487 0.0730947629
v 0.044674594 -0.00202793349 0.0728439465
v 0.0449709482 -0.00168741203 0.0725931898
v 0.0453055091 -0.00129604794 0.0724093094
v 0.0454068966 0.0405743681 0.0729992166
v 0.0448371358 0.0408857428 0.0731815472
v 0.0452632494 0.0404596291 0.0731825009
v 0.0450670309 0.0403023921 0.0732498541
v 0.0446797796 0.0406897031 0.0732489601
v 0.044215519 0.0409849845 0.0732483044
v 0.0448708124 0.0401449166 0.0731832162
v 0.0445224233 0.0404933654 0.0731824413
v 0.0444072075 0.040349301 0.0729997531
v 0.044105012 0.0407589041 0.0731818452
v 0.0436323471 0.0409280024 0.073181428
v 0.0440240689 0.0405930243 0.072999157
v 0.0439944454 0.0405319296 0.0727492943
v 0.0430917926 0.0408057533 0.0729986802
v 0.0435905047 0.0407481752 0.072998859
v 0.0435751863 0.0406819545 0.0727489963
v 0.0435905047 0.0407471023 0.0724988356
v -0.0369922332 0.0407382213 0.0727488771
v 0.0430879183 0.0407382213 0.0727488771
v 0.0430917926 0.0408046208 0.0724987164
v 0.043102283 0.0409872495 0.0723153129
v 0.0431166478 0.0412371121 0.0722477213
v -0.0374948196 0.0407471023 0.0724988356
v -0.0369961075 0.0408046208 0.0724987164
v -0.037006598 0.0409872495 0.0723153129
v -0.0370209627 0.0412371121 0.0722477213
v -0.0370353274 0.0414872728 0.0723141804
v -0.0380092673 0.0407569967 0.0723157898
v -0.0375366621 0.0409260951 0.0723154321
v -0.0375938229 0.0411710106 0.0722479001
v -0.0376509838 0.0414162241 0.0723143592
v -0.0376928262 0.0415960513 0.0724969283
v -0.0385840945 0.0406874977 0.072248973
v -0.0381198935 0.0409827791 0.0722483173
v -0.0382304601 0.0412088595 0.0723147765
v -0.0383114628 0.0413746797 0.0724974647
v -0.0383410864 0.0414357744 0.0727473274
v -0.0391675644 0.0404576622 0.0723164454
v -0.0387414508 0.0408837758 0.0723154917
v -0.0388567261 0.0410277806 0.0724982396
v -0.0388988666 0.041080948 0.0727481022
v -0.0388567261 0.0410289131 0.0729982033
v -0.039658051 0.0400280915 0.0725004449
v -0.0393112116 0.0405732952 0.0724992529
v -0.0393637829 0.0406159721 0.0727491155
v -0.0393112116 0.0405743681 0.0729992166
v -0.0391675644 0.0404596291 0.0731825009
v -0.0399449877 0.0394255482 0.0727517977
v -0.0397185497 0.0400582515 0.0727503672
v -0.039658051 0.0400291644 0.0730004087
v -0.0394926481 0.0399486385 0.0731836334
v -0.0392666869 0.0398381911 0.0732508674
v -0.039953988 0.0387637578 0.0730032697
v -0.0398793034 0.0394107662 0.0730018392
v -0.0397710018 0.0387535654 0.073186256
v -0.039699953 0.0393692814 0.0731849447
v -0.0395209603 0.0387393199 0.0732533112
v -0.0394549184 0.0393121801 0.0732520595
v -0.0392709784 0.0387247764 0.0731863752
v -0.0392098241 0.0392547809 0.0731851831
v -0.0390879922 0.0387138091 0.0730033889
v 0.187844172 0.169763088 0.0547301508
v -0.172250792 0.202416003 0.0546463467
v 0.187844589 0.152618885 0.0547692515
v 0.185682669 0.15198499 0.0507924892
v -0.170499697 0.201051176 0.0508011915
v 0.185682788 0.131859303 0.0508376099
v -0.174922571 0.199035108 0.0508714058
v -0.176830754 0.200301528 0.0546536781
v 0.187844828 0.132301807 0.054814849
v -0.179579183 0.196776867 0.0546641089
v 0.187844887 0.110240512 0.0548640825
v -0.177538231 0.195634544 0.0508173443
v -0.178822443 0.19002831 0.0507361628
v -0.180953875 0.191044211 0.0546792485
v 0.185682848 0.110009961 0.0508863069
v -0.181412652 0.182305574 0.0547007062
v 0.185682848 0.0878547356 0.0509355403
v -0.179250941 0.181395292 0.0507250763
v 0.187844828 0.0878639147 0.0549138524
v 0.187844828 0.0666007921 0.0549611188
v 0.185682848 0.0668111965 0.05098233
v -0.179251477 0.168969572 0.0507539846
v 0.185682788 0.0471852385 0.051025901
v -0.181413338 0.169763088 0.0547301508
v 0.187844768 0.0467663966 0.0550050475
v -0.181413755 0.152618885 0.0547692515
v 0.187844589 0.0286762081 0.0550448038
v 0.185682669 0.0292829238 0.0510652997
v -0.179251835 0.151985049 0.0507924892
v 0.185682312 0.0134100271 0.0510998704
v -0.179251984 0.131859303 0.0508376099
v -0.181413963 0.132301807 0.054814849
v 0.187844172 0.0126454188 0.0550795533
v -0.181414023 0.110240512 0.0548640825
v 0.187843457 -0.00101048208 0.0551083423
v 0.185681775 -0.000127379681 0.051128719
v 0.185573474 -0.00293773878 0.0511426069
v 0.187646702 -0.00583321322 0.0551181771
v -0.179252043 0.110009961 0.0508863069
v -0.179252043 0.0878547356 0.0509355403
v -0.181414023 0.0878639147 0.0549138524
v -0.181414053 0.0666007921 0.0549611188
v -0.179252043 0.0668111965 0.05098233
v -0.179251984 0.0471852385 0.051025901
v -0.181413993 0.0467663966 0.0550050475
v -0.181413755 0.0286761485 0.0550448038
v -0.179251835 0.0292829238 0.0510652997
v -0.179251507 0.0134100271 0.0510998704
v -0.181413367 0.0126454188 0.0550795533
v -0.181412682 -0.00101048208 0.0551083423
v -0.17925097 -0.000127379681 0.051128719
v -0.179142907 -0.00293761957 0.0511424877
v -0.181215808 -0.00583315361 0.0551182367
v -0.0381198935 0.0409849845 0.0732483044
v -0.0376509838 0.0414181314 0.0731803551
v -0.0370458774 0.0416717492 0.0729967728
v -0.0376928262 0.0415971242 0.0729969516
v -0.0383114628 0.0413758121 0.0729974285
v -0.0377081446 0.0416622721 0.0727467909
v -0.0370496921 0.0417382084 0.0727466121
v -0.0370458774 0.0416706763 0.0724968091
v 0.0431415625 0.0416706763 0.0724968091
v 0.0431453772 0.0417382084 0.0727466121
v 0.0437885113 0.0415960513 0.0724969283
v 0.0431310125 0.0414872728 0.0723141804
v 0.0437466688 0.0414162241 0.0723143592
v 0.043689508 0.0411710106 0.0722479001
v 0.044215519 0.0409827791 0.0722483173
v 0.0443260856 0.0412089191 0.0723147765
v 0.0436323471 -0.00296736229 0.0732790604
v 0.043102283 -0.00302851666 0.0732791796
v 0.0431166478 -0.00327837933 0.0733467117
v -0.0370209627 -0.00327837933 0.0733467117
v -0.037006598 -0.00302851666 0.0732791796
v 0.0430917926 -0.00284594763 0.0730957761
v -0.0375938229 -0.00321227778 0.0733465925
v -0.0370353274 -0.00352854002 0.0732803121
v -0.0376509838 -0.00345749129 0.0732801333
v -0.0376928262 -0.0036373185 0.0730975047
v -0.0383113436 -0.00341600645 0.0730970278
v -0.0382304005 -0.00325018633 0.0732796565
v -0.0388566069 -0.00306916703 0.073096253
v -0.0383409671 -0.00347710121 0.0728471652
v -0.038898807 -0.00312227476 0.0728463903
v -0.0388566069 -0.00307029951 0.0725962892
v -0.0393112116 -0.00261569489 0.0725952759
v -0.0393637829 -0.00265729893 0.072845377
v -0.039658051 -0.0020704912 0.0725940242
v -0.0391675644 -0.00250089634 0.0724119917
v -0.0394926481 -0.00198996533 0.0724108592
v -0.0392666869 -0.0018795178 0.0723436251
v -0.0394549184 -0.00135344721 0.072342433
v -0.039699953 -0.00141054846 0.0724095479
v -0.0395209603 -0.000780646573 0.0723411813
v -0.0392098837 -0.00129604794 0.0724093094
v -0.0392709784 -0.000766043435 0.0724081174
v -0.0390879922 -0.00075507618 0.0725911036
v -0.0390879922 0.0387126766 0.0725033656
v -0.0392709784 0.0387228094 0.0723203197
v -0.0390304737 0.0392113291 0.0725022331
v -0.0390209965 0.0387093984 0.0727533475
v -0.0389647894 0.0391965471 0.0727522746
v -0.0390304737 0.0392124616 0.0730022565
v -0.0388753228 0.039646145 0.0730013028
v -0.0388147645 0.0396159254 0.0727513805
v -0.0386315398 0.0400293432 0.0730004087
v -0.0390407257 0.0397275053 0.0731841102
v -0.0387751274 0.0401449166 0.0731832162
v -0.0389713459 0.0403023921 0.0732498541
v -0.0385840945 0.0406897031 0.0732489601
v -0.0384266786 0.0404933654 0.0731824413
v -0.0387414508 0.0408857428 0.0731815472
v -0.0382304601 0.0412107669 0.073180832
v 0.0450670309 -0.00234371889 0.0723446384
v 0.0451364107 -0.00176877237 0.0724103823
v 0.0448708124 -0.00218624342 0.0724112764
v 0.0447271653 -0.00207067002 0.0725940242
v 0.0444071479 -0.00239068735 0.0725947395
v 0.0445223637 -0.00253469218 0.0724120513
v 0.0440240093 -0.00263441075 0.0725952759
v 0.0443649478 -0.00233757962 0.0728446618
v 0.0439943261 -0.00257331599 0.0728451386
v 0.0440240093 -0.00263327826 0.0730952993
v 0.0435905047 -0.00278836954 0.0730956569
v 0.0435751863 -0.00272328127 0.0728454962
f 1 2 3
f 1 2 3
f 4 3 2
f 4 3 2
f 1 5 6
f 1 5 6
f 6 2 1
f 6 2 1
f 7 5 8
f 7 5 8
f 6 5 7
f 6 5 7
f 8 9 7
f 8 9 7
f 10 9 8
f 10 9 8
f 11 4 2
f 11 4 2
f 11 12 4
f 11 12 4
f 11 13 12
f 11 13 12
f 2 6 14
f 14 11 2
f 2 6 14
f 14 11 2
f 15 13 11
f 11 14 15
f 15 13 11
f 11 14 15
f 13 15 16
f 13 15 16
f 16 17 13
f 16 17 13
f 15 14 18
f 15 14 18
f 18 14 6
f 18 14 6
f 17 16 19
f 17 16 19
f 19 20 17
f 19 20 17
f 21 20 19
f 21 20 19
f 6 22 18
f 6 22 18
f 7 22 6
f 7 22 6
f 23 18 22
f 23 18 22
f 24 22 7
f 22 24 23
f 24 22 7
f 22 24 23
f 7 25 24
f 7 25 24
f 25 7 9
f 25 7 9
f 9 26 25
f 9 26 25
f 26 9 10
f 26 9 10
f 10 27 26
f 10 27 26
f 27 10 28
f 27 10 28
f 28 29 27
f 28 29 27
f 29 28 30
f 29 28 30
f 30 31 29
f 30 31 29
f 31 30 32
f 31 30 32
f 32 33 31
f 32 33 31
f 33 32 34
f 33 32 34
f 34 35 33
f 34 35 33
f 35 34 36
f 35 34 36
f 36 37 35
f 36 37 35
f 37 36 38
f 37 36 38
f 35 37 39
f 35 37 39
f 39 40 35
f 39 40 35
f 33 35 40
f 33 35 40
f 40 41 33
f 40 41 33
f 31 33 41
f 31 33 41
f 41 42 31
f 41 42 31
f 29 31 42
f 29 31 42
f 42 43 29
f 42 43 29
f 27 29 43
f 27 29 43
f 43 44 27
f 43 44 27
f 26 27 44
f 26 27 44
f 44 45 26
f 44 45 26
f 25 26 45
f 25 26 45
f 45 46 25
f 45 46 25
f 24 25 46
f 24 25 46
f 46 47 24
f 46 47 24
f 23 24 47
f 23 24 47
f 47 48 23
f 47 48 23
f 49 23 48
f 49 23 48
f 18 23 49
f 18 23 49
f 48 50 49
f 48 50 49
f 49 51 18
f 49 51 18
f 52 49 50
f 52 49 50
f 51 49 52
f 51 49 52
f 50 53 52
f 50 53 52
f 18 51 15
f 18 51 15
f 15 51 54
f 15 51 54
f 52 54 51
f 52 54 51
f 54 16 15
f 54 16 15
f 55 52 53
f 55 52 53
f 55 54 52
f 55 54 52
f 53 56 55
f 53 56 55
f 16 54 57
f 16 54 57
f 55 57 54
f 55 57 54
f 57 19 16
f 57 19 16
f 55 56 58
f 55 56 58
f 59 19 57
f 59 19 57
f 19 59 21
f 19 59 21
f 55 60 57
f 55 60 57
f 58 60 55
f 58 60 55
f 61 57 60
f 61 57 60
f 57 61 59
f 57 61 59
f 62 60 58
f 62 60 58
f 60 62 61
f 60 62 61
f 58 63 62
f 58 63 62
f 64 62 63
f 64 62 63
f 61 62 64
f 61 62 64
f 63 65 64
f 63 65 64
f 59 61 66
f 59 61 66
f 64 66 61
f 64 66 61
f 21 59 67
f 21 59 67
f 66 67 59
f 66 67 59
f 68 64 65
f 68 64 65
f 66 64 68
f 66 64 68
f 65 69 68
f 65 69 68
f 67 70 21
f 67 70 21
f 70 67 71
f 70 67 71
f 71 67 66
f 71 67 66
f 71 72 70
f 71 72 70
f 73 68 69
f 73 68 69
f 68 74 66
f 68 74 66
f 74 68 73
f 74 68 73
f 66 74 71
f 66 74 71
f 69 75 73
f 69 75 73
f 76 73 75
f 76 73 75
f 73 77 74
f 73 77 74
f 77 73 76
f 77 73 76
f 71 74 77
f 71 74 77
f 72 71 78
f 72 71 78
f 77 78 71
f 77 78 71
f 78 79 72
f 78 79 72
f 75 80 76
f 75 80 76
f 79 78 81
f 79 78 81
f 81 78 77
f 81 78 77
f 81 82 79
f 81 82 79
f 83 76 80
f 83 76 80
f 76 84 77
f 76 84 77
f 84 76 83
f 84 76 83
f 77 84 81
f 77 84 81
f 80 85 83
f 80 85 83
f 86 83 85
f 86 83 85
f 83 87 84
f 83 87 84
f 87 83 86
f 87 83 86
f 81 84 87
f 81 84 87
f 82 81 88
f 82 81 88
f 87 88 81
f 87 88 81
f 88 89 82
f 88 89 82
f 85 90 86
f 85 90 86
f 89 88 91
f 89 88 91
f 91 88 87
f 91 88 87
f 91 92 89
f 91 92 89
f 93 86 90
f 93 86 90
f 86 94 87
f 86 94 87
f 94 86 93
f 94 86 93
f 87 94 91
f 87 94 91
f 90 95 93
f 90 95 93
f 96 93 95
f 96 93 95
f 93 97 94
f 93 97 94
f 97 93 96
f 97 93 96
f 91 94 97
f 91 94 97
f 92 91 98
f 92 91 98
f 97 98 91
f 97 98 91
f 98 99 92
f 98 99 92
f 95 100 96
f 95 100 96
f 99 98 101
f 99 98 101
f 101 98 97
f 101 98 97
f 101 102 99
f 101 102 99
f 103 96 100
f 103 96 100
f 96 104 97
f 96 104 97
f 104 96 103
f 104 96 103
f 97 104 101
f 105 106 107
f 105 106 107
f 107 106 108
f 107 106 108
f 107 109 105
f 107 109 105
f 108 110 107
f 108 110 107
f 105 109 111
f 105 109 111
f 112 110 108
f 112 110 108
f 111 113 105
f 111 113 105
f 108 114 112
f 108 114 112
f 115 113 111
f 115 113 111
f 112 114 116
f 112 114 116
f 116 117 112
f 116 117 112
f 111 118 115
f 111 118 115
f 119 117 116
f 119 117 116
f 115 118 120
f 115 118 120
f 120 121 115
f 120 121 115
f 116 122 119
f 116 122 119
f 123 121 120
f 123 121 120
f 119 122 124
f 119 122 124
f 124 125 119
f 124 125 119
f 120 126 123
f 120 126 123
f 127 125 124
f 127 125 124
f 123 126 128
f 123 126 128
f 128 129 123
f 128 129 123
f 124 130 127
f 124 130 127
f 131 129 128
f 131 129 128
f 127 130 132
f 127 130 132
f 132 133 127
f 132 133 127
f 134 135 136
f 137 138 139
f 137 138 139
f 136 138 137
f 136 138 137
f 140 139 138
f 140 139 138
f 136 135 141
f 136 135 141
f 142 141 135
f 142 141 135
f 138 136 143
f 141 143 136
f 138 136 143
f 141 143 136
f 138 144 140
f 138 144 140
f 143 144 138
f 143 144 138
f 145 140 144
f 145 140 144
f 144 146 145
f 144 146 145
f 144 143 147
f 147 146 144
f 144 143 147
f 147 146 144
f 147 143 141
f 147 143 141
f 146 147 148
f 146 147 148
f 149 148 147
f 149 148 147
f 150 148 149
f 150 148 149
f 141 151 147
f 141 151 147
f 147 151 149
f 147 151 149
f 141 142 152
f 141 142 152
f 152 151 141
f 152 151 141
f 152 142 153
f 152 142 153
f 153 154 152
f 153 154 152
f 151 152 155
f 155 152 154
f 151 152 155
f 155 152 154
f 155 149 151
f 155 149 151
f 154 156 155
f 154 156 155
f 157 155 156
f 157 155 156
f 149 155 157
f 149 155 157
f 156 158 157
f 156 158 157
f 149 159 150
f 149 159 150
f 157 159 149
f 157 159 149
f 150 159 160
f 150 159 160
f 161 157 158
f 161 157 158
f 159 157 161
f 159 157 161
f 161 160 159
f 161 160 159
f 158 162 161
f 158 162 161
f 163 160 161
f 163 160 161
f 164 161 162
f 161 164 163
f 164 161 162
f 161 164 163
f 162 165 164
f 162 165 164
f 166 163 164
f 166 163 164
f 167 164 165
f 164 167 166
f 167 164 165
f 164 167 166
f 165 168 167
f 165 168 167
f 166 167 169
f 166 167 169
f 169 167 168
f 169 167 168
f 169 168 170
f 169 168 170
f 169 170 171
f 169 170 171
f 170 172 171
f 170 172 171
f 97 104 101
f 100 173 103
f 100 173 103
f 174 103 173
f 174 103 173
f 103 175 104
f 103 175 104
f 175 103 174
f 175 103 174
f 101 104 175
f 101 104 175
f 102 101 176
f 102 101 176
f 175 176 101
f 175 176 101
f 176 177 102
f 176 177 102
f 173 178 174
f 173 178 174
f 177 176 179
f 177 176 179
f 179 176 175
f 179 176 175
f 179 180 177
f 179 180 177
f 181 174 178
f 181 174 178
f 174 182 175
f 174 182 175
f 182 174 181
f 182 174 181
f 175 182 179
f 175 182 179
f 178 183 181
f 178 183 181
f 184 181 183
f 184 181 183
f 181 185 182
f 181 185 182
f 185 181 184
f 185 181 184
f 179 182 185
f 179 182 185
f 180 179 186
f 180 179 186
f 185 186 179
f 185 186 179
f 186 187 180
f 186 187 180
f 183 188 184
f 183 188 184
f 187 186 189
f 187 186 189
f 189 186 185
f 189 186 185
f 189 190 187
f 189 190 187
f 191 190 189
f 191 190 189
f 192 184 188
f 192 184 188
f 188 193 192
f 188 193 192
f 184 194 185
f 185 194 189
f 184 194 185
f 185 194 189
f 195 194 184
f 195 194 184
f 184 192 195
f 184 192 195
f 189 194 195
f 189 194 195
f 196 192 193
f 196 192 193
f 195 192 196
f 195 192 196
f 193 197 196
f 193 197 196
f 198 196 197
f 198 196 197
f 197 199 198
f 197 199 198
f 200 196 198
f 200 196 198
f 196 200 195
f 196 200 195
f 201 198 199
f 201 198 199
f 199 202 201
f 199 202 201
f 203 198 201
f 203 198 201
f 198 203 200
f 198 203 200
f 204 201 202
f 204 201 202
f 202 205 204
f 202 205 204
f 206 201 204
f 206 201 204
f 201 206 203
f 201 206 203
f 207 204 205
f 207 204 205
f 205 208 207
f 205 208 207
f 209 204 207
f 209 204 207
f 204 209 206
f 204 209 206
f 210 207 208
f 210 207 208
f 208 211 210
f 208 211 210
f 212 207 210
f 212 207 210
f 207 212 209
f 207 212 209
f 213 210 211
f 213 210 211
f 211 214 213
f 211 214 213
f 215 210 213
f 215 210 213
f 210 215 212
f 210 215 212
f 216 213 214
f 216 213 214
f 214 217 216
f 214 217 216
f 218 213 216
f 218 213 216
f 213 218 215
f 213 218 215
f 219 216 217
f 219 216 217
f 217 220 219
f 217 220 219
f 221 216 219
f 221 216 219
f 216 221 218
f 216 221 218
f 222 219 220
f 222 219 220
f 220 223 222
f 220 223 222
f 224 219 222
f 224 219 222
f 219 224 221
f 219 224 221
f 225 222 223
f 225 222 223
f 223 226 225
f 223 226 225
f 227 222 225
f 227 222 225
f 222 227 224
f 222 227 224
f 228 225 226
f 228 225 226
f 226 229 228
f 226 229 228
f 230 225 228
f 230 225 228
f 225 230 227
f 225 230 227
f 231 228 229
f 231 228 229
f 229 232 231
f 229 232 231
f 233 224 227
f 233 224 227
f 221 224 233
f 221 224 233
f 234 231 232
f 234 231 232
f 232 235 234
f 232 235 234
f 236 234 235
f 236 234 235
f 237 236 235
f 237 236 235
f 238 234 236
f 238 234 236
f 231 234 238
f 231 234 238
f 237 239 236
f 237 239 236
f 237 240 239
f 237 240 239
f 236 150 238
f 236 150 238
f 150 236 239
f 150 236 239
f 238 241 231
f 238 241 231
f 228 231 241
f 228 231 241
f 160 238 150
f 160 238 150
f 241 238 160
f 241 238 160
f 146 239 240
f 146 239 240
f 240 145 146
f 240 145 146
f 239 148 150
f 239 148 150
f 148 239 146
f 148 239 146
f 241 242 228
f 241 242 228
f 228 242 230
f 228 242 230
f 242 241 163
f 242 241 163
f 160 163 241
f 160 163 241
f 243 230 242
f 243 230 242
f 227 230 243
f 227 230 243
f 242 166 243
f 163 166 242
f 242 166 243
f 163 166 242
f 243 244 227
f 243 244 227
f 227 244 233
f 227 244 233
f 171 244 243
f 171 244 243
f 169 243 166
f 243 169 171
f 169 243 166
f 243 169 171
f 245 233 244
f 245 233 244
f 244 171 245
f 244 171 245
f 233 245 246
f 233 245 246
f 246 247 233
f 246 247 233
f 233 247 221
f 233 247 221
f 247 246 248
f 247 246 248
f 221 247 249
f 248 249 247
f 221 247 249
f 248 249 247
f 249 218 221
f 249 218 221
f 249 248 250
f 249 248 250
f 215 218 249
f 215 218 249
f 250 251 249
f 250 251 249
f 249 251 215
f 249 251 215
f 251 250 252
f 251 250 252
f 215 251 253
f 252 253 251
f 215 251 253
f 252 253 251
f 253 212 215
f 253 212 215
f 253 252 254
f 253 252 254
f 209 212 253
f 209 212 253
f 254 255 253
f 254 255 253
f 253 255 209
f 253 255 209
f 255 254 256
f 255 254 256
f 209 255 257
f 256 257 255
f 209 255 257
f 256 257 255
f 257 206 209
f 257 206 209
f 257 256 258
f 257 256 258
f 203 206 257
f 203 206 257
f 258 259 257
f 258 259 257
f 257 259 203
f 257 259 203
f 259 258 260
f 259 258 260
f 203 259 261
f 260 261 259
f 203 259 261
f 260 261 259
f 261 200 203
f 261 200 203
f 261 260 191
f 261 260 191
f 195 200 261
f 195 200 261
f 191 262 261
f 261 262 195
f 261 262 195
f 191 262 261
f 195 262 189
f 195 262 189
f 189 262 191
f 189 262 191
f 263 264 38
f 263 264 38
f 38 264 265
f 38 264 265
f 266 264 263
f 266 264 263
f 265 264 266
f 265 264 266
f 265 267 38
f 265 267 38
f 38 267 37
f 38 267 37
f 37 267 268
f 37 267 268
f 268 39 37
f 268 39 37
f 269 268 267
f 269 268 267
f 267 265 269
f 267 265 269
f 270 269 265
f 270 269 265
f 265 271 270
f 265 271 270
f 266 271 265
f 266 271 265
f 272 270 271
f 272 270 271
f 271 273 272
f 271 273 272
f 274 272 273
f 274 272 273
f 275 273 271
f 275 273 271
f 271 266 275
f 271 266 275
f 273 276 274
f 273 276 274
f 277 274 276
f 277 274 276
f 273 275 278
f 273 275 278
f 278 276 273
f 278 276 273
f 279 275 266
f 279 275 266
f 278 275 279
f 278 275 279
f 266 280 279
f 266 280 279
f 263 280 266
f 263 280 266
f 276 281 277
f 276 281 277
f 282 277 281
f 282 277 281
f 276 278 283
f 276 278 283
f 283 281 276
f 283 281 276
f 284 280 263
f 284 280 263
f 263 285 284
f 263 285 284
f 286 284 285
f 286 284 285
f 280 284 287
f 287 284 286
f 280 284 287
f 287 284 286
f 287 279 280
f 287 279 280
f 286 288 287
f 286 288 287
f 289 287 288
f 289 287 288
f 279 287 289
f 279 287 289
f 288 290 289
f 288 290 289
f 289 291 279
f 289 291 279
f 279 291 278
f 279 291 278
f 292 289 290
f 292 289 290
f 291 289 292
f 291 289 292
f 290 293 292
f 290 293 292
f 278 291 294
f 278 291 294
f 292 294 291
f 292 294 291
f 294 283 278
f 294 283 278
f 295 292 293
f 295 292 293
f 294 292 295
f 294 292 295
f 293 296 295
f 293 296 295
f 297 295 296
f 297 295 296
f 296 298 297
f 296 298 297
f 299 295 297
f 299 295 297
f 295 299 294
f 295 299 294
f 300 283 294
f 300 283 294
f 294 299 300
f 294 299 300
f 281 283 300
f 281 283 300
f 301 297 298
f 301 297 298
f 297 134 299
f 297 134 299
f 134 297 301
f 134 297 301
f 300 299 134
f 300 299 134
f 298 302 301
f 298 302 301
f 300 303 281
f 300 303 281
f 281 303 282
f 281 303 282
f 304 282 303
f 304 282 303
f 142 301 302
f 142 301 302
f 302 153 142
f 302 153 142
f 135 301 142
f 135 301 142
f 301 135 134
f 301 135 134
f 303 137 304
f 303 137 304
f 139 304 137
f 139 304 137
f 303 300 305
f 303 300 305
f 134 305 300
f 134 305 300
f 305 137 303
f 305 137 303
f 136 305 134
f 136 305 134
f 137 305 136
f 137 305 136
f 134 135 136
f 306 307 38
f 306 307 38
f 308 307 306
f 308 307 306
f 38 307 263
f 263 307 308
f 263 307 308
f 38 307 263
f 306 309 308
f 306 309 308
f 38 36 306
f 38 36 306
f 308 309 310
f 308 309 310
f 310 311 308
f 310 311 308
f 312 310 309
f 312 310 309
f 308 311 313
f 308 311 313
f 313 285 308
f 313 285 308
f 308 285 263
f 308 285 263
f 285 313 286
f 285 313 286
f 309 314 312
f 309 314 312
f 315 312 314
f 315 312 314
f 316 314 309
f 316 314 309
f 309 306 316
f 309 306 316
f 314 317 315
f 314 317 315
f 318 315 317
f 318 315 317
f 314 316 319
f 314 316 319
f 319 317 314
f 319 317 314
f 34 316 306
f 34 316 306
f 319 316 34
f 319 316 34
f 306 36 34
f 306 36 34
f 317 320 318
f 317 320 318
f 321 318 320
f 321 318 320
f 317 319 322
f 317 319 322
f 322 320 317
f 322 320 317
f 320 323 321
f 320 323 321
f 324 321 323
f 324 321 323
f 320 322 325
f 320 322 325
f 325 323 320
f 325 323 320
f 30 322 319
f 30 322 319
f 325 322 30
f 325 322 30
f 319 32 30
f 319 32 30
f 34 32 319
f 34 32 319
f 323 326 324
f 323 326 324
f 327 324 326
f 327 324 326
f 323 325 328
f 323 325 328
f 328 326 323
f 328 326 323
f 326 329 327
f 326 329 327
f 330 327 329
f 330 327 329
f 326 328 8
f 326 328 8
f 8 329 326
f 8 329 326
f 10 328 325
f 10 328 325
f 8 328 10
f 8 328 10
f 325 28 10
f 325 28 10
f 30 28 325
f 30 28 325
f 329 1 330
f 329 1 330
f 3 330 1
f 3 330 1
f 329 8 5
f 329 8 5
f 5 1 329
f 5 1 329
f 331 332 333
f 331 332 333
f 334 333 332
f 334 333 332
f 333 335 331
f 333 335 331
f 332 336 334
f 332 336 334
f 335 333 337
f 335 333 337
f 338 337 333
f 333 334 338
f 338 337 333
f 333 334 338
f 337 339 335
f 337 339 335
f 336 332 340
f 336 332 340
f 332 331 341
f 332 331 341
f 341 340 332
f 341 340 332
f 342 331 335
f 342 331 335
f 343 341 331
f 331 342 343
f 343 341 331
f 331 342 343
f 344 335 339
f 335 344 342
f 344 335 339
f 335 344 342
f 345 342 344
f 345 342 344
f 346 343 342
f 342 345 346
f 346 343 342
f 342 345 346
f 341 343 347
f 341 343 347
f 348 347 343
f 343 346 348
f 348 347 343
f 343 346 348
f 347 349 341
f 347 349 341
f 340 341 349
f 340 341 349
f 347 348 350
f 347 348 350
f 350 351 347
f 349 347 351
f 350 351 347
f 349 347 351
f 352 350 348
f 352 350 348
f 353 348 346
f 348 353 352
f 353 348 346
f 348 353 352
f 354 355 356
f 354 355 356
f 356 357 354
f 358 354 357
f 356 357 354
f 358 354 357
f 359 356 355
f 359 356 355
f 360 355 361
f 355 360 359
f 360 355 361
f 355 360 359
f 361 362 360
f 361 362 360
f 362 361 363
f 362 361 363
f 364 360 362
f 364 360 362
f 365 359 360
f 360 364 365
f 365 359 360
f 360 364 365
f 356 359 366
f 356 359 366
f 367 366 359
f 359 365 367
f 367 366 359
f 359 365 367
f 366 368 356
f 366 368 356
f 357 356 368
f 357 356 368
f 366 367 369
f 366 367 369
f 369 370 366
f 368 366 370
f 369 370 366
f 368 366 370
f 371 369 367
f 371 369 367
f 372 367 365
f 367 372 371
f 372 367 365
f 367 372 371
f 365 373 372
f 365 373 372
f 373 365 364
f 373 365 364
f 374 372 373
f 374 372 373
f 375 371 372
f 372 374 375
f 375 371 372
f 372 374 375
f 369 371 376
f 369 371 376
f 377 376 371
f 371 375 377
f 377 376 371
f 371 375 377
f 376 378 369
f 376 378 369
f 370 369 378
f 370 369 378
f 376 377 379
f 376 377 379
f 379 380 376
f 378 376 380
f 379 380 376
f 378 376 380
f 381 379 377
f 381 379 377
f 382 377 375
f 377 382 381
f 382 377 375
f 377 382 381
f 375 383 382
f 375 383 382
f 383 375 374
f 383 375 374
f 384 382 383
f 384 382 383
f 385 381 382
f 382 384 385
f 385 381 382
f 382 384 385
f 379 381 386
f 379 381 386
f 387 386 381
f 381 385 387
f 387 386 381
f 381 385 387
f 386 339 379
f 386 339 379
f 380 379 339
f 380 379 339
f 339 386 344
f 339 386 344
f 339 337 380
f 339 337 380
f 388 344 386
f 388 344 386
f 386 387 388
f 386 387 388
f 344 388 345
f 344 388 345
f 389 380 337
f 389 380 337
f 380 389 378
f 380 389 378
f 337 338 389
f 337 338 389
f 390 345 388
f 390 345 388
f 345 390 391
f 345 390 391
f 388 392 390
f 388 392 390
f 392 388 387
f 392 388 387
f 393 391 390
f 393 391 390
f 391 393 394
f 391 393 394
f 395 390 392
f 395 390 392
f 390 395 393
f 390 395 393
f 387 396 392
f 387 396 392
f 396 387 385
f 396 387 385
f 397 392 396
f 397 392 396
f 392 397 395
f 392 397 395
f 385 398 396
f 385 398 396
f 398 385 384
f 398 385 384
f 399 396 398
f 399 396 398
f 396 399 397
f 396 399 397
f 398 400 399
f 398 400 399
f 384 401 398
f 400 398 401
f 384 401 398
f 400 398 401
f 401 384 402
f 401 384 402
f 383 402 384
f 383 402 384
f 402 383 403
f 402 383 403
f 374 403 383
f 374 403 383
f 403 374 404
f 403 374 404
f 373 404 374
f 373 404 374
f 404 373 405
f 404 373 405
f 364 405 373
f 364 405 373
f 405 364 406
f 405 364 406
f 362 406 364
f 362 406 364
f 406 362 407
f 406 362 407
f 363 407 362
f 363 407 362
f 407 363 408
f 407 363 408
f 409 408 363
f 409 408 363
f 408 409 410
f 408 409 410
f 411 410 409
f 411 410 409
f 410 411 412
f 410 411 412
f 413 412 411
f 413 412 411
f 412 413 414
f 412 413 414
f 415 414 413
f 415 414 413
f 414 415 416
f 414 415 416
f 417 416 415
f 417 416 415
f 416 417 418
f 416 417 418
f 419 418 417
f 419 418 417
f 418 419 420
f 418 419 420
f 421 420 419
f 421 420 419
f 420 421 422
f 420 421 422
f 423 422 421
f 423 422 421
f 422 423 424
f 422 423 424
f 425 424 423
f 425 424 423
f 424 425 426
f 424 425 426
f 427 426 425
f 427 426 425
f 426 427 428
f 426 427 428
f 429 428 427
f 429 428 427
f 428 429 430
f 428 429 430
f 431 430 429
f 431 430 429
f 430 431 432
f 430 431 432
f 433 432 431
f 433 432 431
f 432 433 434
f 432 433 434
f 435 434 433
f 435 434 433
f 434 435 436
f 434 435 436
f 437 436 435
f 437 436 435
f 436 437 438
f 436 437 438
f 439 438 437
f 439 438 437
f 438 439 440
f 438 439 440
f 441 440 439
f 441 440 439
f 440 441 442
f 440 441 442
f 443 442 441
f 443 442 441
f 442 443 444
f 442 443 444
f 445 444 443
f 445 444 443
f 444 445 446
f 444 445 446
f 447 446 445
f 447 446 445
f 446 447 448
f 446 447 448
f 449 448 447
f 449 448 447
f 448 449 450
f 448 449 450
f 451 450 449
f 451 450 449
f 450 451 452
f 450 451 452
f 453 452 451
f 453 452 451
f 452 453 454
f 452 453 454
f 394 454 453
f 394 454 453
f 454 394 393
f 454 394 393
f 393 455 454
f 393 455 454
f 455 393 395
f 455 393 395
f 454 456 452
f 456 454 455
f 454 456 452
f 456 454 455
f 452 457 450
f 457 452 456
f 452 457 450
f 457 452 456
f 458 450 457
f 458 450 457
f 450 458 448
f 450 458 448
f 395 459 455
f 395 459 455
f 459 395 397
f 459 395 397
f 455 460 456
f 460 455 459
f 455 460 456
f 460 455 459
f 456 461 457
f 461 456 460
f 456 461 457
f 461 456 460
f 457 462 458
f 462 457 461
f 457 462 458
f 462 457 461
f 397 463 459
f 397 463 459
f 463 397 399
f 463 397 399
f 459 464 460
f 464 459 463
f 459 464 460
f 464 459 463
f 460 465 461
f 465 460 464
f 460 465 461
f 465 460 464
f 461 466 462
f 466 461 465
f 461 466 462
f 466 461 465
f 399 467 463
f 399 467 463
f 467 399 400
f 467 399 400
f 463 468 464
f 468 463 467
f 463 468 464
f 468 463 467
f 464 469 465
f 469 464 468
f 464 469 465
f 469 464 468
f 465 470 466
f 470 465 469
f 465 470 466
f 470 465 469
f 469 471 470
f 469 471 470
f 468 472 469
f 471 469 472
f 468 472 469
f 471 469 472
f 467 473 468
f 467 473 468
f 472 468 473
f 472 468 473
f 473 467 474
f 473 467 474
f 400 474 467
f 400 474 467
f 474 400 475
f 474 400 475
f 401 475 400
f 401 475 400
f 475 401 476
f 475 401 476
f 402 476 401
f 402 476 401
f 476 402 477
f 476 402 477
f 403 477 402
f 403 477 402
f 477 403 478
f 477 403 478
f 404 478 403
f 404 478 403
f 478 404 479
f 478 404 479
f 405 479 404
f 405 479 404
f 479 405 480
f 479 405 480
f 406 480 405
f 406 480 405
f 480 406 481
f 480 406 481
f 407 481 406
f 407 481 406
f 481 407 482
f 481 407 482
f 408 482 407
f 408 482 407
f 482 408 483
f 482 408 483
f 410 483 408
f 410 483 408
f 483 410 484
f 483 410 484
f 412 484 410
f 412 484 410
f 484 412 485
f 484 412 485
f 414 485 412
f 414 485 412
f 485 414 486
f 485 414 486
f 416 486 414
f 416 486 414
f 486 416 487
f 486 416 487
f 418 487 416
f 418 487 416
f 487 418 488
f 487 418 488
f 420 488 418
f 420 488 418
f 488 420 489
f 488 420 489
f 422 489 420
f 422 489 420
f 489 422 490
f 489 422 490
f 424 490 422
f 424 490 422
f 490 424 491
f 490 424 491
f 426 491 424
f 426 491 424
f 491 426 492
f 491 426 492
f 428 492 426
f 428 492 426
f 492 428 493
f 492 428 493
f 430 493 428
f 430 493 428
f 493 430 494
f 493 430 494
f 432 494 430
f 432 494 430
f 494 432 495
f 494 432 495
f 434 495 432
f 434 495 432
f 495 434 496
f 495 434 496
f 436 496 434
f 436 496 434
f 496 436 497
f 496 436 497
f 438 497 436
f 438 497 436
f 497 438 498
f 497 438 498
f 440 498 438
f 440 498 438
f 498 440 499
f 498 440 499
f 442 499 440
f 442 499 440
f 499 442 500
f 499 442 500
f 444 500 442
f 444 500 442
f 500 444 501
f 500 444 501
f 446 501 444
f 446 501 444
f 501 446 502
f 501 446 502
f 448 502 446
f 448 502 446
f 502 448 458
f 502 448 458
f 458 503 502
f 458 503 502
f 503 458 462
f 503 458 462
f 502 504 501
f 504 502 503
f 502 504 501
f 504 502 503
f 501 505 500
f 505 501 504
f 501 505 500
f 505 501 504
f 506 500 505
f 506 500 505
f 500 506 499
f 500 506 499
f 462 507 503
f 462 507 503
f 507 462 466
f 507 462 466
f 503 508 504
f 508 503 507
f 503 508 504
f 508 503 507
f 504 509 505
f 509 504 508
f 504 509 505
f 509 504 508
f 505 510 506
f 510 505 509
f 505 510 506
f 510 505 509
f 466 511 507
f 466 511 507
f 511 466 470
f 511 466 470
f 507 512 508
f 512 507 511
f 507 512 508
f 512 507 511
f 508 513 509
f 513 508 512
f 508 513 509
f 513 508 512
f 509 514 510
f 514 509 513
f 509 514 510
f 514 509 513
f 470 515 511
f 470 515 511
f 515 470 471
f 515 470 471
f 511 516 512
f 516 511 515
f 511 516 512
f 516 511 515
f 512 517 513
f 517 512 516
f 512 517 513
f 517 512 516
f 513 518 514
f 518 513 517
f 513 518 514
f 518 513 517
f 517 519 518
f 517 519 518
f 516 520 517
f 519 517 520
f 516 520 517
f 519 517 520
f 515 521 516
f 515 521 516
f 520 516 521
f 520 516 521
f 521 515 522
f 521 515 522
f 471 522 515
f 471 522 515
f 522 471 523
f 522 471 523
f 472 523 471
f 472 523 471
f 523 472 524
f 523 472 524
f 473 524 472
f 473 524 472
f 524 473 525
f 524 473 525
f 474 525 473
f 474 525 473
f 525 474 526
f 525 474 526
f 475 526 474
f 475 526 474
f 526 475 527
f 526 475 527
f 476 527 475
f 476 527 475
f 527 476 528
f 527 476 528
f 477 528 476
f 477 528 476
f 528 477 529
f 528 477 529
f 478 529 477
f 478 529 477
f 529 478 530
f 529 478 530
f 479 530 478
f 479 530 478
f 530 479 531
f 530 479 531
f 480 531 479
f 480 531 479
f 531 480 532
f 531 480 532
f 481 532 480
f 481 532 480
f 532 481 533
f 532 481 533
f 482 533 481
f 482 533 481
f 533 482 534
f 533 482 534
f 483 534 482
f 483 534 482
f 534 483 535
f 534 483 535
f 484 535 483
f 484 535 483
f 535 484 536
f 535 484 536
f 485 536 484
f 485 536 484
f 536 485 537
f 536 485 537
f 486 537 485
f 486 537 485
f 537 486 538
f 537 486 538
f 487 538 486
f 487 538 486
f 538 487 539
f 538 487 539
f 488 539 487
f 488 539 487
f 539 488 540
f 539 488 540
f 489 540 488
f 489 540 488
f 540 489 541
f 540 489 541
f 490 541 489
f 490 541 489
f 541 490 542
f 541 490 542
f 491 542 490
f 491 542 490
f 542 491 543
f 542 491 543
f 492 543 491
f 492 543 491
f 543 492 544
f 543 492 544
f 493 544 492
f 493 544 492
f 544 493 545
f 544 493 545
f 494 545 493
f 494 545 493
f 545 494 546
f 545 494 546
f 495 546 494
f 495 546 494
f 546 495 547
f 546 495 547
f 496 547 495
f 496 547 495
f 547 496 548
f 547 496 548
f 497 548 496
f 497 548 496
f 548 497 549
f 548 497 549
f 498 549 497
f 498 549 497
f 549 498 550
f 549 498 550
f 499 550 498
f 499 550 498
f 550 499 506
f 550 499 506
f 506 551 550
f 506 551 550
f 551 506 510
f 551 506 510
f 550 552 549
f 552 550 551
f 550 552 549
f 552 550 551
f 549 553 548
f 553 549 552
f 549 553 548
f 553 549 552
f 554 548 553
f 554 548 553
f 548 554 547
f 548 554 547
f 510 555 551
f 510 555 551
f 555 510 514
f 555 510 514
f 551 556 552
f 556 551 555
f 551 556 552
f 556 551 555
f 552 557 553
f 557 552 556
f 552 557 553
f 557 552 556
f 553 558 554
f 558 553 557
f 553 558 554
f 558 553 557
f 514 559 555
f 514 559 555
f 559 514 518
f 559 514 518
f 555 560 556
f 560 555 559
f 555 560 556
f 560 555 559
f 556 561 557
f 561 556 560
f 556 561 557
f 561 556 560
f 557 562 558
f 562 557 561
f 557 562 558
f 562 557 561
f 518 563 559
f 518 563 559
f 563 518 519
f 563 518 519
f 559 564 560
f 564 559 563
f 559 564 560
f 564 559 563
f 560 565 561
f 565 560 564
f 560 565 561
f 565 560 564
f 561 566 562
f 566 561 565
f 561 566 562
f 566 561 565
f 565 567 566
f 565 567 566
f 567 565 568
f 567 565 568
f 564 568 565
f 564 568 565
f 568 564 569
f 568 564 569
f 563 569 564
f 563 569 564
f 569 563 570
f 569 563 570
f 519 570 563
f 519 570 563
f 570 519 571
f 570 519 571
f 520 571 519
f 520 571 519
f 571 520 572
f 571 520 572
f 521 572 520
f 521 572 520
f 572 521 573
f 572 521 573
f 522 573 521
f 522 573 521
f 573 522 574
f 573 522 574
f 523 574 522
f 523 574 522
f 574 523 575
f 574 523 575
f 524 575 523
f 524 575 523
f 575 524 576
f 575 524 576
f 525 576 524
f 525 576 524
f 576 525 577
f 576 525 577
f 526 577 525
f 526 577 525
f 577 526 578
f 577 526 578
f 527 578 526
f 527 578 526
f 578 527 579
f 578 527 579
f 528 579 527
f 528 579 527
f 579 528 580
f 579 528 580
f 529 580 528
f 529 580 528
f 580 529 581
f 580 529 581
f 530 581 529
f 530 581 529
f 581 530 351
f 581 530 351
f 531 351 530
f 531 351 530
f 351 531 349
f 351 531 349
f 532 349 531
f 532 349 531
f 349 532 340
f 349 532 340
f 533 340 532
f 533 340 532
f 340 533 336
f 340 533 336
f 534 336 533
f 534 336 533
f 336 534 582
f 336 534 582
f 535 582 534
f 535 582 534
f 582 334 336
f 582 334 336
f 582 535 583
f 582 535 583
f 334 582 584
f 334 582 584
f 583 584 582
f 583 584 582
f 584 338 334
f 584 338 334
f 536 583 535
f 536 583 535
f 338 584 585
f 338 584 585
f 585 389 338
f 585 389 338
f 586 585 584
f 586 585 584
f 584 583 586
f 584 583 586
f 583 536 587
f 583 536 587
f 587 586 583
f 587 586 583
f 537 587 536
f 537 587 536
f 389 585 588
f 389 585 588
f 588 378 389
f 588 378 389
f 378 588 370
f 378 588 370
f 585 586 589
f 585 586 589
f 589 588 585
f 589 588 585
f 590 370 588
f 590 370 588
f 588 589 590
f 588 589 590
f 370 590 368
f 370 590 368
f 591 589 586
f 591 589 586
f 586 587 591
f 586 587 591
f 587 537 592
f 587 537 592
f 592 591 587
f 592 591 587
f 538 592 537
f 538 592 537
f 589 591 593
f 593 590 589
f 589 591 593
f 593 590 589
f 594 368 590
f 594 368 590
f 590 593 594
f 590 593 594
f 368 594 357
f 368 594 357
f 592 538 595
f 592 538 595
f 591 592 596
f 591 592 596
f 595 596 592
f 595 596 592
f 596 593 591
f 596 593 591
f 539 595 538
f 539 595 538
f 593 596 597
f 597 594 593
f 593 596 597
f 597 594 593
f 598 357 594
f 598 357 594
f 594 597 598
f 594 597 598
f 357 598 358
f 357 598 358
f 595 539 599
f 595 539 599
f 596 595 600
f 596 595 600
f 599 600 595
f 599 600 595
f 600 597 596
f 600 597 596
f 540 599 539
f 540 599 539
f 597 600 601
f 601 598 597
f 597 600 601
f 601 598 597
f 602 358 598
f 602 358 598
f 598 601 602
f 598 601 602
f 358 602 603
f 358 602 603
f 599 540 604
f 599 540 604
f 600 599 605
f 600 599 605
f 604 605 599
f 604 605 599
f 605 601 600
f 605 601 600
f 541 604 540
f 541 604 540
f 601 605 606
f 606 602 601
f 601 605 606
f 606 602 601
f 607 603 602
f 607 603 602
f 602 606 607
f 602 606 607
f 603 607 608
f 603 607 608
f 604 541 609
f 604 541 609
f 605 604 610
f 605 604 610
f 609 610 604
f 609 610 604
f 610 606 605
f 610 606 605
f 542 609 541
f 542 609 541
f 606 610 611
f 611 607 606
f 606 610 611
f 611 607 606
f 612 608 607
f 612 608 607
f 607 611 612
f 607 611 612
f 608 612 613
f 608 612 613
f 609 542 614
f 609 542 614
f 610 609 615
f 610 609 615
f 614 615 609
f 614 615 609
f 615 611 610
f 615 611 610
f 543 614 542
f 543 614 542
f 611 615 616
f 616 612 611
f 611 615 616
f 616 612 611
f 617 613 612
f 617 613 612
f 612 616 617
f 612 616 617
f 613 617 618
f 613 617 618
f 614 543 619
f 614 543 619
f 615 614 620
f 615 614 620
f 619 620 614
f 619 620 614
f 620 616 615
f 620 616 615
f 544 619 543
f 544 619 543
f 616 620 621
f 621 617 616
f 616 620 621
f 621 617 616
f 622 618 617
f 622 618 617
f 617 621 622
f 617 621 622
f 618 622 623
f 618 622 623
f 619 544 624
f 619 544 624
f 620 619 625
f 620 619 625
f 624 625 619
f 624 625 619
f 625 621 620
f 625 621 620
f 545 624 544
f 545 624 544
f 621 625 626
f 626 622 621
f 621 625 626
f 626 622 621
f 627 623 622
f 627 623 622
f 622 626 627
f 622 626 627
f 623 627 628
f 623 627 628
f 624 545 629
f 624 545 629
f 625 624 630
f 625 624 630
f 629 630 624
f 629 630 624
f 630 626 625
f 630 626 625
f 546 629 545
f 546 629 545
f 626 630 631
f 631 627 626
f 626 630 631
f 631 627 626
f 632 628 627
f 632 628 627
f 627 631 632
f 627 631 632
f 628 632 633
f 628 632 633
f 629 546 634
f 629 546 634
f 547 634 546
f 547 634 546
f 630 629 635
f 630 629 635
f 634 635 629
f 634 635 629
f 635 631 630
f 635 631 630
f 634 547 554
f 634 547 554
f 554 636 634
f 554 636 634
f 635 634 636
f 635 634 636
f 636 554 558
f 636 554 558
f 631 635 637
f 631 635 637
f 636 637 635
f 636 637 635
f 637 632 631
f 637 632 631
f 558 638 636
f 558 638 636
f 637 636 638
f 637 636 638
f 638 558 562
f 638 558 562
f 632 637 639
f 632 637 639
f 638 639 637
f 638 639 637
f 639 633 632
f 639 633 632
f 562 640 638
f 562 640 638
f 639 638 640
f 639 638 640
f 633 639 641
f 633 639 641
f 640 641 639
f 640 641 639
f 641 640 642
f 641 640 642
f 640 562 566
f 640 562 566
f 566 642 640
f 566 642 640
f 642 566 567
f 642 566 567
f 128 643 131
f 128 643 131
f 644 133 132
f 644 133 132
f 131 643 645
f 131 643 645
f 645 646 131
f 645 646 131
f 132 647 644
f 132 647 644
f 648 646 645
f 648 646 645
f 644 647 649
f 644 647 649
f 649 650 644
f 649 650 644
f 651 648 645
f 651 648 645
f 652 650 649
f 652 650 649
f 651 653 648
f 651 653 648
f 649 654 652
f 649 654 652
f 652 654 655
f 652 654 655
f 655 656 652
f 655 656 652
f 653 657 648
f 653 657 648
f 658 656 655
f 658 656 655
f 659 657 653
f 659 657 653
f 655 660 658
f 655 660 658
f 653 661 659
f 653 661 659
f 659 661 662
f 659 661 662
f 662 663 659
f 662 663 659
f 658 660 664
f 658 660 664
f 665 663 662
f 665 663 662
f 664 666 658
f 664 666 658
f 662 667 665
f 662 667 665
f 668 666 664
f 668 666 664
f 665 667 669
f 665 667 669
f 669 670 665
f 669 670 665
f 664 671 668
f 664 671 668
f 672 670 669
f 672 670 669
f 668 671 673
f 668 671 673
f 673 674 668
f 673 674 668
f 669 675 672
f 669 675 672
f 676 674 673
f 676 674 673
f 672 675 677
f 672 675 677
f 677 678 672
f 677 678 672
f 679 678 677
f 679 678 677
f 677 680 679
f 677 680 679
f 673 681 676
f 673 681 676
f 676 681 682
f 676 681 682
f 682 683 676
f 682 683 676
f 684 683 682
f 684 683 682
f 682 685 684
f 682 685 684
f 684 685 686
f 684 685 686
f 687 684 686
f 687 684 686
f 687 686 688
f 687 686 688
f 686 689 688
f 686 689 688
f 688 689 690
f 688 689 690
f 690 691 688
f 690 691 688
f 692 691 690
f 692 691 690
f 690 693 692
f 690 693 692
f 692 693 694
f 692 693 694
f 694 695 692
f 694 695 692
f 696 417 697
f 696 417 697
f 417 696 419
f 417 696 419
f 415 697 417
f 415 697 417
f 698 699 697
f 697 415 698
f 698 699 697
f 697 415 698
f 700 699 701
f 700 699 701
f 702 701 699
f 699 698 702
f 702 701 699
f 699 698 702
f 701 618 700
f 701 618 700
f 623 700 618
f 623 700 618
f 701 702 703
f 701 702 703
f 703 613 701
f 618 701 613
f 703 613 701
f 618 701 613
f 704 703 702
f 704 703 702
f 705 702 698
f 702 705 704
f 705 702 698
f 702 705 704
f 698 413 705
f 698 413 705
f 413 698 415
f 413 698 415
f 411 705 413
f 411 705 413
f 706 704 705
f 705 411 706
f 706 704 705
f 705 411 706
f 703 704 707
f 703 704 707
f 708 707 704
f 704 706 708
f 708 707 704
f 704 706 708
f 707 608 703
f 707 608 703
f 613 703 608
f 613 703 608
f 707 708 709
f 707 708 709
f 709 603 707
f 608 707 603
f 709 603 707
f 608 707 603
f 710 709 708
f 710 709 708
f 711 708 706
f 708 711 710
f 711 708 706
f 708 711 710
f 706 409 711
f 706 409 711
f 409 706 411
f 409 706 411
f 363 711 409
f 363 711 409
f 361 710 711
f 711 363 361
f 361 710 711
f 711 363 361
f 709 710 354
f 709 710 354
f 355 354 710
f 710 361 355
f 355 354 710
f 710 361 355
f 354 358 709
f 354 358 709
f 603 709 358
f 603 709 358
f 712 713 714
f 712 713 714
f 714 576 712
f 577 712 576
f 714 576 712
f 577 712 576
f 715 714 713
f 715 714 713
f 716 713 717
f 713 716 715
f 716 713 717
f 713 716 715
f 717 445 716
f 717 445 716
f 445 717 447
f 445 717 447
f 443 716 445
f 443 716 445
f 718 715 716
f 716 443 718
f 718 715 716
f 716 443 718
f 714 715 719
f 714 715 719
f 720 719 715
f 715 718 720
f 720 719 715
f 715 718 720
f 719 575 714
f 719 575 714
f 576 714 575
f 576 714 575
f 719 720 721
f 719 720 721
f 721 574 719
f 575 719 574
f 721 574 719
f 575 719 574
f 722 721 720
f 722 721 720
f 723 720 718
f 720 723 722
f 723 720 718
f 720 723 722
f 718 441 723
f 718 441 723
f 441 718 443
f 441 718 443
f 439 723 441
f 439 723 441
f 724 722 723
f 723 439 724
f 724 722 723
f 723 439 724
f 721 722 725
f 721 722 725
f 726 725 722
f 722 724 726
f 726 725 722
f 722 724 726
f 725 573 721
f 725 573 721
f 574 721 573
f 574 721 573
f 725 726 727
f 725 726 727
f 727 572 725
f 573 725 572
f 727 572 725
f 573 725 572
f 728 727 726
f 728 727 726
f 729 726 724
f 726 729 728
f 729 726 724
f 726 729 728
f 724 437 729
f 724 437 729
f 437 724 439
f 437 724 439
f 435 729 437
f 435 729 437
f 730 728 729
f 729 435 730
f 730 728 729
f 729 435 730
f 727 728 731
f 727 728 731
f 732 731 728
f 728 730 732
f 732 731 728
f 728 730 732
f 731 571 727
f 731 571 727
f 572 727 571
f 572 727 571
f 731 732 733
f 731 732 733
f 733 570 731
f 571 731 570
f 733 570 731
f 571 731 570
f 734 733 732
f 734 733 732
f 735 732 730
f 732 735 734
f 735 732 730
f 732 735 734
f 730 433 735
f 730 433 735
f 433 730 435
f 433 730 435
f 431 735 433
f 431 735 433
f 736 734 735
f 735 431 736
f 736 734 735
f 735 431 736
f 733 734 737
f 733 734 737
f 738 737 734
f 734 736 738
f 738 737 734
f 734 736 738
f 737 569 733
f 737 569 733
f 570 733 569
f 570 733 569
f 737 738 739
f 737 738 739
f 739 568 737
f 569 737 568
f 739 568 737
f 569 737 568
f 740 739 738
f 740 739 738
f 741 738 736
f 738 741 740
f 741 738 736
f 738 741 740
f 736 429 741
f 736 429 741
f 429 736 431
f 429 736 431
f 427 741 429
f 427 741 429
f 742 740 741
f 741 427 742
f 742 740 741
f 741 427 742
f 739 740 743
f 739 740 743
f 744 743 740
f 740 742 744
f 744 743 740
f 740 742 744
f 743 567 739
f 743 567 739
f 568 739 567
f 568 739 567
f 743 744 745
f 743 744 745
f 745 642 743
f 567 743 642
f 745 642 743
f 567 743 642
f 746 745 744
f 746 745 744
f 747 744 742
f 744 747 746
f 747 744 742
f 744 747 746
f 742 425 747
f 742 425 747
f 425 742 427
f 425 742 427
f 423 747 425
f 423 747 425
f 748 746 747
f 747 423 748
f 748 746 747
f 747 423 748
f 745 746 749
f 745 746 749
f 750 749 746
f 746 748 750
f 750 749 746
f 746 748 750
f 749 641 745
f 749 641 745
f 642 745 641
f 642 745 641
f 749 750 751
f 749 750 751
f 751 633 749
f 641 749 633
f 751 633 749
f 641 749 633
f 752 751 750
f 752 751 750
f 753 750 748
f 750 753 752
f 753 750 748
f 750 753 752
f 748 421 753
f 748 421 753
f 421 748 423
f 421 748 423
f 419 753 421
f 419 753 421
f 696 752 753
f 753 419 696
f 696 752 753
f 753 419 696
f 751 752 754
f 751 752 754
f 755 754 752
f 752 696 755
f 755 754 752
f 752 696 755
f 754 628 751
f 754 628 751
f 633 751 628
f 633 751 628
f 754 755 700
f 754 755 700
f 700 623 754
f 628 754 623
f 700 623 754
f 628 754 623
f 699 700 755
f 699 700 755
f 697 755 696
f 755 697 699
f 697 755 696
f 755 697 699
f 346 391 353
f 346 391 353
f 391 346 345
f 391 346 345
f 394 353 391
f 394 353 391
f 756 352 353
f 353 394 756
f 756 352 353
f 353 394 756
f 350 352 757
f 350 352 757
f 758 757 352
f 352 756 758
f 758 757 352
f 352 756 758
f 757 581 350
f 757 581 350
f 351 350 581
f 351 350 581
f 757 758 759
f 757 758 759
f 759 580 757
f 581 757 580
f 759 580 757
f 581 757 580
f 760 759 758
f 760 759 758
f 761 758 756
f 758 761 760
f 761 758 756
f 758 761 760
f 756 453 761
f 756 453 761
f 453 756 394
f 453 756 394
f 451 761 453
f 451 761 453
f 762 760 761
f 761 451 762
f 762 760 761
f 761 451 762
f 759 760 763
f 759 760 763
f 764 763 760
f 760 762 764
f 764 763 760
f 760 762 764
f 763 579 759
f 763 579 759
f 580 759 579
f 580 759 579
f 763 764 765
f 763 764 765
f 765 578 763
f 579 763 578
f 765 578 763
f 579 763 578
f 766 765 764
f 766 765 764
f 767 764 762
f 764 767 766
f 767 764 762
f 764 767 766
f 762 449 767
f 762 449 767
f 449 762 451
f 449 762 451
f 447 767 449
f 447 767 449
f 717 766 767
f 767 447 717
f 717 766 767
f 767 447 717
f 765 766 712
f 765 766 712
f 713 712 766
f 766 717 713
f 713 712 766
f 766 717 713
f 712 577 765
f 712 577 765
f 578 765 577
f 578 765 577
