v 0.181352571 0.213746727 0.0981935635
v 0.180551961 0.21381551 0.0983717814
v 0.180637732 0.21381557 0.0983719602
v 0.180794194 0.213820755 0.0983853117
v 0.180869594 0.213827968 0.0984039679
v 0.180942848 0.21383822 0.0984305516
v 0.181013539 0.213851631 0.0984653607
v -0.174218938 0.21381557 0.0983719602
v -0.174933806 0.213746727 0.0981935635
v -0.174594805 0.213851631 0.0984653607
v -0.0581902079 -0.00316948164 0.0728797093
v 0.00321539002 -0.0145953344 0.0728353038
v 0.0646210462 -0.00316948164 0.0728797093
v -0.0581943803 -0.023507718 0.0726457611
v -0.145066693 -0.023507718 0.0726457611
v -0.110628977 -0.0298942961 0.0722412243
v -0.145081803 -0.0298942961 0.0722412243
v -0.165314153 -0.029443983 0.0721907988
v -0.145107016 -0.0337429084 0.071551837
v -0.165432885 -0.0331764854 0.0715234652
v -0.1754715 -0.0314772762 0.0714382306
v -0.165487364 -0.0349835195 0.0699852481
v -0.175927684 -0.0331220664 0.0699607506
v -0.180458322 -0.0294072069 0.0699388757
v -0.175776675 -0.0334750451 0.0669758692
v -0.165220305 -0.0353897847 0.06698028
v -0.144761458 -0.0360280313 0.0669818297
v -0.145035759 -0.0356040038 0.0699934736
v -0.110593632 -0.0356040038 0.0699934736
v -0.110383019 -0.0360280313 0.0669818893
v -0.0580679588 -0.0360280313 0.0669819489
v -0.110648319 -0.0337429084 0.071551837
v 0.00321539002 -0.0356039442 0.0699934736
v 0.00321539002 -0.0360280313 0.0669820085
v -0.0582110696 -0.0337429084 0.071551837
v 0.0644987971 -0.0360280313 0.0669819489
v -0.0582006387 -0.0298942961 0.0722412243
v 0.00321539002 -0.0298942961 0.0722412243
v 0.00321539002 -0.0337429084 0.071551837
v 0.0646252185 -0.023507718 0.0726457611
v 0.0646124035 -0.0356040038 0.0699934736
v 0.0646419078 -0.0337429084 0.071551837
v 0.117024437 -0.0356040038 0.0699934736
v 0.116813853 -0.0360280313 0.0669818893
v 0.151192263 -0.0360280313 0.0669818297
v 0.117059782 -0.0298942961 0.0722412243
v 0.117079154 -0.0337429084 0.071551837
v 0.15153785 -0.0337429084 0.071551837
v 0.151466563 -0.0356040038 0.0699934736
v 0.171918169 -0.0349835195 0.0699852481
v 0.17165114 -0.0353897847 0.06698028
v 0.18220754 -0.0334751047 0.0669758692
v 0.151512638 -0.0298942961 0.0722412243
v 0.151497498 -0.023507718 0.0726457611
v 0.171744958 -0.029443983 0.0721907988
v 0.17186369 -0.0331764854 0.0715234652
v 0.181902364 -0.0314772762 0.0714382306
v 0.182358518 -0.0331220664 0.0699607506
v 0.186889187 -0.0294072069 0.0699388757
v 0.186878458 -0.0296455659 0.0669672266
v 0.189681008 -0.0232630409 0.0669528618
v 0.181511834 -0.0280929841 0.0720394626
v 0.18598856 -0.0281108059 0.0713764802
v 0.184624389 -0.0262675919 0.0718350783
v 0.181859925 -0.0225214995 0.0723954216
v 0.188457206 -0.0225425996 0.0714183822
v 0.185959235 -0.0220336355 0.072025992
v 0.171819344 -0.0232611336 0.0725831762
v 0.171947554 -0.0145344185 0.0727673545
v 0.186947361 -0.0142335938 0.0721569434
v 0.182397977 -0.0143514918 0.0725633875
v 0.182577267 -0.00317174662 0.0726005211
v 0.189611807 -0.0232263245 0.0699386373
v 0.190975741 -0.0144929932 0.0699395314
v 0.191082314 -0.0143495845 0.0669328943
v 0.191549435 -0.00292724837 0.0669073835
v 0.189702049 -0.0143675255 0.0714816228
v 0.190117016 -0.00318062771 0.0714838877
v 0.191430464 -0.00312060583 0.0699209943
v 0.191430464 0.0108101321 0.0698899999
v 0.191549435 0.0109819127 0.0668763295
v 0.191549435 0.0273557864 0.0668398514
v 0.187276796 -0.00317502487 0.0721817985
v 0.187276796 0.0107559515 0.0721508041
v 0.190117016 0.0271731578 0.0714164153
v 0.191430464 0.0272185765 0.0698535219
v 0.191430464 0.04576331 0.0698122755
v 0.191549435 0.0458568297 0.0667987242
v 0.191549495 0.0661475584 0.0667535439
v 0.191430464 0.110802643 0.0696676746
v 0.191549495 0.110747807 0.0666544214
v 0.191430464 0.133367419 0.0696174875
v 0.191549435 0.133267641 0.0666043535
v 0.191549435 0.153997898 0.0665582791
v 0.190117016 0.110820584 0.0712303892
v 0.190117016 0.045732554 0.0713751093
v 0.187276796 0.0457331501 0.0720730796
v 0.190117016 0.154178381 0.0711340085
v 0.191430464 0.154137075 0.0695712939
v 0.191430464 0.17165792 0.0695323721
v 0.191549435 0.171486318 0.0665194765
v 0.191549435 0.184280872 0.0664911047
v 0.182577267 0.0271737538 0.0725330487
v 0.187276796 0.184520602 0.0717644468
v 0.190117016 0.184532106 0.071066536
v 0.191430464 0.184476197 0.069503881
v 0.190975741 0.193372428 0.069477357
v 0.191082314 0.193195462 0.0664714351
v 0.189681008 0.19904387 0.0664585605
v 0.186947361 0.193245292 0.0716956034
v 0.189702049 0.193327904 0.071019806
v 0.188457206 0.198771358 0.0709262863
v 0.189611807 0.199127018 0.0694442764
v 0.186889127 0.202614963 0.0694229379
v 0.182577267 0.0660911128 0.0724465623
v 0.182577267 0.0457335077 0.0724918023
v 0.17199029 0.0457336865 0.0727011934
v 0.17199029 0.027173873 0.0727424398
v 0.151487425 0.027173873 0.0728122368
v 0.17199029 0.0107575012 0.0727789178
v 0.151487425 -0.00316948164 0.0728797093
v 0.17199029 -0.00317007769 0.0728099123
v 0.151489928 -0.014595394 0.0728353038
v 0.117042378 -0.014595394 0.0728353038
v 0.0646220595 -0.0145953344 0.0728353038
v -0.183250204 -0.0232630409 0.0669528618
v -0.180447623 -0.0296455659 0.0669672266
v -0.182026371 -0.02254254 0.0714183822
v -0.1795284 -0.0220336355 0.072025992
v -0.180516556 -0.0142335938 0.0721569434
v -0.179557756 -0.0281108059 0.0713764802
v -0.178193554 -0.0262675919 0.0718350783
v -0.175429121 -0.0225214995 0.0723954216
v -0.17508103 -0.0280929841 0.0720394626
v -0.175967142 -0.0143514918 0.0725633875
v -0.176146463 -0.00317174662 0.0726005211
v -0.165516719 -0.0145344185 0.0727673545
v -0.165388539 -0.0232611336 0.0725831762
v -0.165559456 -0.00317007769 0.0728099123
v -0.165559456 0.0107575012 0.0727789178
v -0.14505659 -0.00316948164 0.0728797093
v -0.14505659 0.0271739326 0.0728122368
v -0.0581902079 0.0271739326 0.0728122368
v -0.145059094 -0.0145953344 0.0728353038
v -0.110611543 -0.0145953344 0.0728353038
v -0.0581912212 -0.0145953344 0.0728353038
v -0.174218938 0.21381557 0.0983719602
v -0.174233809 0.21444881 0.0988777056
v -0.174933806 0.213746727 0.0981935635
v 0.0646210462 0.027173873 0.0728122368
v 0.0972610861 0.0534153543 0.0727538839
v 0.0646210462 0.0534153543 0.0727538839
v 0.0263855625 0.0534153543 0.0727538839
v 0.130038276 0.0534153543 0.0727538839
v -0.0199547242 0.0534153543 0.0727538839
v -0.0581902079 0.0534153543 0.0727538839
v 0.151487425 0.0534153543 0.0727538839
v 0.157124057 0.0534152947 0.0727346912
v 0.157124057 0.0604948364 0.0727189556
v -0.0908302516 0.0534153543 0.0727538839
v -0.123607442 0.0534153543 0.0727538839
v -0.14505659 0.0534153543 0.0727538839
v 0.17199029 0.0660914704 0.0726558939
v 0.157124057 0.0660915896 0.0727064982
v 0.157124057 0.0720876977 0.0726932064
v -0.165559456 0.0457336865 0.0727011934
v -0.152149782 0.0534152947 0.072729744
v -0.152149782 0.0590485297 0.072717227
v 0.17199029 0.0879019424 0.0726074353
v 0.157124057 0.104519121 0.0726210847
v 0.17199029 0.11081969 0.0725564733
v 0.157124057 0.11081963 0.0726070777
v 0.182577267 0.110819809 0.0723470822
v 0.17199029 0.133391976 0.0725062862
v 0.157124057 0.148454547 0.0725233927
v 0.17199029 0.154166281 0.0724600926
v 0.157124057 0.154165804 0.0725106969
v 0.157124057 0.158983409 0.0724999681
v 0.182577267 0.154168189 0.0722507015
v 0.17199029 0.171689868 0.0724211112
v 0.157124057 0.166349947 0.0724835768
v 0.182577267 0.184513628 0.072183229
v 0.151487425 0.184509039 0.0724624172
v 0.151487425 0.166349947 0.0725027695
v 0.127535716 0.166349947 0.0725027695
v 0.101069346 0.166349947 0.0725027695
v 0.0646210462 0.166349947 0.0725027695
v 0.17199029 0.184510171 0.0723926201
v 0.171947554 0.193409145 0.0723049417
v 0.182397977 0.193307817 0.0721016303
v 0.181859925 0.198751926 0.0719034448
v 0.151489928 0.193442881 0.0723727718
v 0.171819344 0.199168622 0.0720885769
v 0.151497498 0.199307561 0.0721503273
v 0.117042378 0.193442941 0.0723727718
v 0.171744958 0.202665746 0.0716746822
v 0.0646210462 0.184509039 0.0724624172
v -0.0581902079 0.184509039 0.0724624172
v -0.0581902079 0.166349947 0.0725027695
v -0.0946385115 0.166349947 0.0725027695
v -0.121104911 0.166349947 0.0725027695
v -0.14505659 0.184509039 0.0724624172
v -0.14505659 0.166349947 0.0725027695
v -0.152149782 0.166349888 0.0724786296
v -0.165559456 0.171689928 0.0724211112
v -0.152149782 0.160228372 0.0724922195
v -0.165559456 0.154166281 0.0724600926
v -0.152149782 0.154165864 0.0725057498
v -0.152149782 0.146978736 0.0725217238
v -0.165559456 0.133391976 0.0725062862
v -0.152149782 0.11081963 0.0726021305
v -0.176146463 0.154168189 0.0722507015
v -0.165559456 0.11081969 0.0725564733
v -0.152149782 0.102890961 0.0726197138
v -0.176146463 0.110819809 0.0723470822
v -0.165559456 0.0879019424 0.0726074353
v -0.152149782 0.07363718 0.0726848021
v -0.165559456 0.0660914704 0.0726558939
v -0.152149782 0.0660915896 0.072701551
v -0.176146463 0.0660911128 0.0724465623
v -0.180845961 -0.00317502487 0.0721817985
v -0.176146463 0.0271737538 0.0725330487
v -0.176146463 0.184513628 0.072183229
v -0.165559456 0.027173873 0.0727424398
v -0.165559456 0.184510231 0.0723926201
v -0.165516719 0.193409145 0.0723049417
v -0.145059094 0.193442881 0.0723727718
v -0.110611543 0.193442941 0.0723727718
v -0.145066693 0.199307561 0.0721503273
v -0.175967142 0.193307817 0.0721016303
v -0.0581912212 0.193442881 0.0723727718
v 0.00321539002 0.193442941 0.0723727718
v -0.0581943803 0.199307561 0.0721503273
v 0.0646220595 0.193442881 0.0723727718
v 0.0646252185 0.199307561 0.0721503273
v 0.151512638 0.20292002 0.071723558
v -0.145081803 0.20292002 0.071723558
v 0.15153785 0.205097258 0.0710207596
v 0.0646419078 0.205097258 0.0710207596
v 0.17186369 0.20477742 0.0709943548
v -0.0582110696 0.205097258 0.0710207596
v 0.181902364 0.203817904 0.0709150806
v 0.171918169 0.205761611 0.0694499984
v 0.181511834 0.201902926 0.0715280548
v 0.184624389 0.20087254 0.0713300481
v 0.185959235 0.198478937 0.0715356842
v 0.18598856 0.201916575 0.0708650127
v 0.182358518 0.204711258 0.0694319382
v 0.18220754 0.204797626 0.0664461032
v 0.186878458 0.202639937 0.0664507523
v 0.17165114 0.20587641 0.0664438382
v 0.151192263 0.206236005 0.0664431229
v 0.151466563 0.206111789 0.0694560185
v 0.117024437 0.206111729 0.0694560185
v 0.116813853 0.206236005 0.0664432421
v 0.0644987971 0.206236005 0.0664433017
v 0.0646124035 0.206111729 0.0694560185
v 0.00321539002 0.206111729 0.0694560185
v 0.00321539002 0.206236005 0.0664433017
v -0.0580679588 0.206236005 0.0664433017
v -0.0581815653 0.206111789 0.0694560185
v -0.110593632 0.206111729 0.0694560185
v -0.110383019 0.206236005 0.0664432421
v -0.144761458 0.206236005 0.0664431229
v -0.145107016 0.205097258 0.0710207596
v -0.145035759 0.206111789 0.0694560185
v -0.165487334 0.205761611 0.0694499388
v -0.165220335 0.20587641 0.0664438382
v -0.175776675 0.204797626 0.0664461032
v -0.165314153 0.202665746 0.0716746822
v -0.165432885 0.20477742 0.0709943548
v -0.1754715 0.203817904 0.0709150806
v -0.175927684 0.204711258 0.0694319382
v -0.180458382 0.202614963 0.0694229379
v -0.180447623 0.202639937 0.0664507523
v -0.183250204 0.19904387 0.0664585605
v -0.165388539 0.199168622 0.0720885769
v -0.175429121 0.198751926 0.0719034448
v -0.17508103 0.201902926 0.0715280548
v -0.180516556 0.193245292 0.0716956034
v -0.178193554 0.20087254 0.0713300481
v -0.1795284 0.198478937 0.0715356842
v -0.180845961 0.184520602 0.0717644468
v -0.179557756 0.201916575 0.0708650127
v -0.182026371 0.198771358 0.0709262863
v -0.183181003 0.199127018 0.0694442764
v -0.184544936 0.193372428 0.069477357
v -0.184651509 0.193195462 0.0664714351
v -0.185118631 0.184280872 0.0664911047
v -0.183271244 0.193327904 0.071019806
v -0.183686212 0.184532106 0.071066536
v -0.18499963 0.184476197 0.069503881
v -0.18499963 0.17165792 0.0695323721
v -0.185118631 0.171486318 0.0665194765
v -0.183686212 0.154178381 0.0711340085
v -0.185118631 0.153997898 0.0665582791
v -0.18499963 0.154137075 0.0695712939
v -0.18499963 0.13336736 0.0696174875
v -0.185118631 0.133267641 0.0666043535
v -0.18511866 0.110747807 0.0666544214
v -0.183686212 0.110820584 0.0712303892
v -0.18499963 0.0878966376 0.069718577
v -0.18511866 0.0878903791 0.0667052045
v -0.18511866 0.0661475584 0.0667535439
v -0.183686212 0.0660892054 0.0713298693
v -0.18499963 0.0661030933 0.0697670355
v -0.18499963 0.04576331 0.0698122755
v -0.185118631 0.0458568297 0.0667987242
v -0.185118631 0.0273557864 0.0668398514
v -0.183686212 0.0271731578 0.0714164153
v -0.18499963 0.0272185765 0.0698535219
v -0.185118631 0.0109819127 0.0668763295
v -0.18499963 0.0108101917 0.0698899999
v -0.185118631 -0.00292724837 0.0669073835
v -0.183686212 -0.00318056811 0.0714838877
v -0.18499963 -0.00312060583 0.0699209943
v -0.184544936 -0.0144929932 0.0699395314
v -0.184651509 -0.0143495845 0.0669328943
v -0.183271244 -0.0143675255 0.0714816228
v -0.183181003 -0.0232263245 0.0699386373
v 0.181352571 0.213746727 0.0981935635
v 0.180652574 0.21444881 0.0988777056
v 0.180551961 0.21381551 0.0983717814
v 0.157124057 0.166326702 0.0620535947
v 0.157124057 0.166349947 0.0724835768
v 0.151487425 0.166349947 0.0725027695
v 0.127535716 0.166349947 0.0725027695
v 0.101069346 0.166349947 0.0725027695
v 0.0646210462 0.166349947 0.0725027695
v -0.0581902079 0.166349947 0.0725027695
v -0.0946385115 0.166349947 0.0725027695
v -0.121104911 0.166349947 0.0725027695
v -0.14505659 0.166349947 0.0725027695
v -0.152149782 0.166349888 0.0724786296
v -0.152149782 0.166326702 0.0620535947
v -0.185087368 0.229770005 0.139136463
v -0.184233829 0.229585707 0.139232248
v -0.184233829 0.265059024 0.231143385
v 0.190652564 0.265059024 0.231143326
v 0.191506103 0.265259862 0.231090516
v 0.191506103 0.285370797 0.28319779
v -0.185087368 0.265259862 0.231090516
v 0.190652564 0.285160571 0.283226281
v -0.184233829 0.285160571 0.283226341
v 0.191113189 0.286597103 0.286375135
v -0.185087368 0.285370797 0.28319779
v 0.190276518 0.286334246 0.28626731
v -0.183857724 0.286334246 0.28626731
v 0.190019146 0.287698001 0.289227575
v -0.184694424 0.286597103 0.286375135
v 0.189247683 0.28736949 0.288949698
v -0.182828948 0.287369519 0.288949698
v 0.188301876 0.288670063 0.29174611
v -0.183600411 0.287698001 0.289227575
v 0.18763198 0.288284034 0.291319221
v -0.181213215 0.288284063 0.291319221
v 0.186048582 0.289481372 0.293848246
v -0.181883052 0.288670063 0.291746169
v 0.185511366 0.289047629 0.293297678
v -0.179092571 0.289047629 0.293297619
v 0.183348969 0.29009974 0.295450419
v -0.179629818 0.289481372 0.293848246
v 0.182971433 0.28962937 0.29480502
v -0.176552668 0.28962937 0.29480496
v 0.180291429 0.290493637 0.29647103
v -0.176930144 0.29009971 0.29545036
v 0.180096224 0.289999813 0.295764774
v -0.17367743 0.289999813 0.295764774
v 0.176885679 0.290635139 0.296837598
v -0.173872665 0.290493637 0.29647103
v 0.176836565 0.290135235 0.296115607
v -0.17041783 0.290135235 0.296115607
v 0.084620133 0.290635139 0.296837598
v -0.170466885 0.290635139 0.296837598
v 0.0845971256 0.290135235 0.296115607
v -0.0781783909 0.290135235 0.296115607
v -0.0782013983 0.290635139 0.296837598
v 0.180551961 0.21381551 0.0983717814
v 0.180652574 0.21444881 0.0988777056
v 0.0845971256 0.21444881 0.0988777056
v 0.0845971256 0.21381551 0.0983717814
v -0.0781783909 0.21444881 0.0988777056
v -0.0781783909 0.21381551 0.0983717814
v -0.174233809 0.21444881 0.0988777056
v -0.174133196 0.21381551 0.0983717814
v -0.174218938 0.21381557 0.0983719602
v -0.174133196 0.21381551 0.0983717814
v -0.174233809 0.21444881 0.0988777056
v -0.152149782 0.0533921085 0.0623047091
v -0.152149782 0.0534152947 0.072729744
v -0.14505659 0.0534153543 0.0727538839
v -0.123607442 0.0534153543 0.0727538839
v -0.0908302516 0.0534153543 0.0727538839
v -0.0581902079 0.0534153543 0.0727538839
v -0.0199547242 0.0534153543 0.0727538839
v 0.0263855625 0.0534153543 0.0727538839
v 0.0646210462 0.0534153543 0.0727538839
v 0.0972610861 0.0534153543 0.0727538839
v 0.130038276 0.0534153543 0.0727538839
v 0.151487425 0.0534153543 0.0727538839
v 0.157124057 0.0534152947 0.0727346912
v 0.157124057 0.0533921085 0.0623047091
v 0.180551961 0.21381551 0.0983717814
v 0.0845971256 0.21381551 0.0983717814
v 0.0845971256 0.204509497 0.0742599741
v -0.0781783909 0.204509497 0.0742599741
v 0.176836565 0.204509497 0.0742599741
v -0.0781783909 0.21381551 0.0983717814
v -0.17041783 0.204509497 0.0742599741
v 0.180096224 0.204644918 0.0746108666
v -0.174133196 0.21381551 0.0983717814
v 0.180637732 0.21381557 0.0983719602
v 0.182971433 0.205015361 0.0755706206
v -0.174218938 0.21381557 0.0983719602
v 0.185511366 0.205597103 0.0770779625
v 0.180794194 0.213820755 0.0983853117
v 0.18763198 0.206360698 0.0790563598
v 0.180869594 0.213827968 0.0984039679
v 0.189247742 0.207275212 0.0814259425
v 0.180942848 0.21383822 0.0984305516
v 0.190276518 0.208310485 0.0841082707
v 0.181013539 0.213851631 0.0984653607
v 0.190652564 0.20948416 0.0871492997
v 0.181352571 0.213746727 0.0981935635
v 0.181352571 0.229585707 0.139232248
v 0.190652564 0.229585707 0.139232248
v 0.181352571 0.265059024 0.231143326
v 0.190652564 0.265059024 0.231143326
v 0.181352571 0.286438406 0.286537141
v 0.190652564 0.285160571 0.283226281
v 0.190276518 0.286334246 0.28626731
v 0.181351438 0.286520034 0.286748677
v 0.180385485 0.286786616 0.287439436
v 0.189247683 0.28736949 0.288949698
v 0.181328431 0.286600232 0.286956459
v 0.18763198 0.288284034 0.291319221
v 0.181227103 0.286678582 0.287159473
v 0.185511366 0.289047629 0.293297678
v 0.181052521 0.286741436 0.287322313
v 0.182971433 0.28962937 0.29480502
v 0.180834904 0.286777914 0.287416905
v 0.180096224 0.289999813 0.295764774
v 0.180612162 0.286786199 0.287438303
v 0.176836565 0.290135235 0.296115607
v 0.0845971256 0.286786616 0.287439436
v 0.0845971256 0.290135235 0.296115607
v -0.0781783909 0.286786616 0.287439436
v -0.0781783909 0.290135235 0.296115607
v -0.173966691 0.286786616 0.287439436
v -0.17041783 0.290135235 0.296115607
v -0.17367743 0.289999813 0.295764774
v -0.174193427 0.286786199 0.287438303
v -0.174933806 0.286438406 0.286537141
v -0.176552668 0.28962937 0.29480496
v -0.17441614 0.286777914 0.287416846
v -0.179092571 0.289047629 0.293297619
v -0.174633756 0.286741436 0.287322313
v -0.181213215 0.288284063 0.291319221
v -0.174808308 0.286678582 0.287159473
v -0.182828948 0.287369519 0.288949698
v -0.174909636 0.286600232 0.286956459
v -0.183857724 0.286334246 0.28626731
v -0.174932644 0.286520034 0.286748677
v -0.184233829 0.285160571 0.283226341
v -0.174933806 0.265059024 0.231143385
v -0.184233829 0.265059024 0.231143385
v -0.174933806 0.229585707 0.139232248
v -0.184233829 0.229585707 0.139232248
v -0.174933806 0.213746727 0.0981935635
v -0.184233829 0.20948416 0.0871492997
v -0.183857724 0.208310485 0.0841083303
v -0.174594805 0.213851631 0.0984653607
v -0.182828948 0.207275212 0.0814259425
v -0.174524054 0.21383822 0.0984305516
v -0.181213215 0.206360698 0.0790563598
v -0.17445083 0.213827968 0.0984039679
v -0.179092571 0.205597103 0.0770779625
v -0.1743754 0.213820755 0.0983853117
v -0.176552668 0.205015361 0.0755706206
v -0.17367743 0.204644918 0.0746108666
v 0.084620133 0.204394758 0.073389329
v 0.0845971256 0.204509497 0.0742599741
v -0.0781783909 0.204509497 0.0742599741
v 0.176885679 0.204394758 0.073389329
v -0.0782013983 0.204394758 0.073389329
v 0.176836565 0.204509497 0.0742599741
v -0.17041783 0.204509497 0.0742599741
v 0.180291429 0.204536259 0.0737559572
v -0.170466885 0.204394758 0.073389329
v 0.180096224 0.204644918 0.0746108666
v -0.17367743 0.204644918 0.0746108666
v 0.183348909 0.204930127 0.0747765675
v -0.173872665 0.204536259 0.0737559572
v 0.182971433 0.205015361 0.0755706206
v -0.176552668 0.205015361 0.0755706206
v 0.186048582 0.205548525 0.0763787404
v -0.176930174 0.204930127 0.0747765675
v 0.185511366 0.205597103 0.0770779625
v -0.179092571 0.205597103 0.0770779625
v 0.188301817 0.206359804 0.0784808174
v -0.179629818 0.205548465 0.0763786808
v 0.18763198 0.206360698 0.0790563598
v -0.181213215 0.206360698 0.0790563598
v 0.190019205 0.207331896 0.0809994116
v -0.181883082 0.206359804 0.0784808174
v 0.189247742 0.207275212 0.0814259425
v -0.182828948 0.207275212 0.0814259425
v 0.191113189 0.208432734 0.0838518515
v -0.183600411 0.207331896 0.0809994116
v 0.190276518 0.208310485 0.0841082707
v -0.183857724 0.208310485 0.0841083303
v 0.191506103 0.2096591 0.0870291963
v -0.184694394 0.208432794 0.0838518515
v 0.190652564 0.20948416 0.0871492997
v -0.184233829 0.20948416 0.0871492997
v 0.191506103 0.229770005 0.139136463
v -0.185087368 0.2096591 0.0870291963
v 0.190652564 0.229585707 0.139232248
v 0.157124057 0.158983409 0.0724999681
v 0.157124057 0.166349947 0.0724835768
v 0.157124057 0.166326702 0.0620535947
v 0.157124057 0.154165804 0.0725106969
v 0.157124057 0.148454547 0.0725233927
v 0.157124057 0.11081963 0.0726070777
v 0.157124057 0.104519121 0.0726210847
v 0.157124057 0.0720876977 0.0726932064
v 0.157124057 0.0660915896 0.0727064982
v 0.157124057 0.0604948364 0.0727189556
v 0.157124057 0.0533921085 0.0623047091
v 0.157124057 0.0534152947 0.0727346912
v -0.152149782 0.166326702 0.0620535947
v -0.152149782 0.166349888 0.0724786296
v -0.152149782 0.160228372 0.0724922195
v -0.152149782 0.154165864 0.0725057498
v -0.152149782 0.146978736 0.0725217238
v -0.152149782 0.11081963 0.0726021305
v -0.152149782 0.102890961 0.0726197138
v -0.152149782 0.07363718 0.0726848021
v -0.152149782 0.0660915896 0.072701551
v -0.152149782 0.0590485297 0.072717227
v -0.152149782 0.0533921085 0.0623047091
v -0.152149782 0.0534152947 0.072729744
v 0.181352571 0.229585707 0.139232248
v 0.180652574 0.229966968 0.139085084
v 0.180652574 0.21444881 0.0988777056
v 0.181352571 0.213746727 0.0981935635
v 0.181352571 0.265059024 0.231143326
v 0.180652574 0.265440285 0.230996221
v 0.181352571 0.286438406 0.286537141
v 0.180652574 0.286915839 0.286639243
v -0.174933806 0.265059024 0.231143385
v -0.174233809 0.265440285 0.230996221
v -0.174233809 0.286915839 0.286639184
v -0.174933806 0.286438406 0.286537141
v -0.174933806 0.229585707 0.139232248
v -0.174233809 0.229966968 0.139085084
v -0.174933806 0.213746727 0.0981935635
v -0.174233809 0.21444881 0.0988777056
v 0.0845971256 0.286786616 0.287439436
v 0.0845971256 0.286915839 0.286639184
v 0.180652574 0.286915839 0.286639243
v 0.180385485 0.286786616 0.287439436
v -0.0781783909 0.286786616 0.287439436
v -0.0781783909 0.286915839 0.286639184
v -0.173966691 0.286786616 0.287439436
v -0.174233809 0.286915839 0.286639184
v 0.180385485 0.286786616 0.287439436
v 0.180652574 0.286915839 0.286639243
v 0.181352571 0.286438406 0.286537141
v -0.174933806 0.286438406 0.286537141
v -0.174233809 0.286915839 0.286639184
v -0.173966691 0.286786616 0.287439436
f 1 2 3
f 1 2 3
f 1 3 4
f 1 3 4
f 1 4 5
f 1 4 5
f 1 5 6
f 1 5 6
f 1 6 7
f 1 6 7
f 8 9 10
f 8 9 10
f 11 12 13
f 14 15 16
f 14 15 16
f 15 17 16
f 15 17 16
f 18 17 15
f 18 17 15
f 16 17 19
f 19 17 18
f 16 17 19
f 19 17 18
f 18 20 19
f 18 20 19
f 21 20 18
f 21 20 18
f 19 20 22
f 22 20 21
f 19 20 22
f 22 20 21
f 21 23 22
f 21 23 22
f 24 23 21
f 24 23 21
f 25 23 24
f 25 23 24
f 22 23 25
f 22 23 25
f 25 26 22
f 25 26 22
f 22 26 27
f 22 26 27
f 27 28 22
f 22 28 19
f 27 28 22
f 22 28 19
f 29 28 27
f 29 28 27
f 19 28 29
f 19 28 29
f 27 30 29
f 27 30 29
f 31 29 30
f 31 29 30
f 29 32 19
f 29 32 19
f 32 16 19
f 32 16 19
f 31 33 29
f 31 33 29
f 31 34 33
f 31 34 33
f 35 32 29
f 35 32 29
f 32 35 16
f 32 35 16
f 35 29 33
f 35 29 33
f 33 34 36
f 33 34 36
f 35 37 16
f 35 37 16
f 14 16 37
f 14 16 37
f 38 37 35
f 38 37 35
f 14 37 38
f 14 37 38
f 38 35 39
f 35 33 39
f 38 35 39
f 35 33 39
f 40 14 38
f 40 14 38
f 40 12 14
f 40 12 14
f 39 33 41
f 39 33 41
f 36 41 33
f 36 41 33
f 38 39 42
f 41 42 39
f 38 39 42
f 41 42 39
f 43 41 36
f 43 41 36
f 42 41 43
f 42 41 43
f 36 44 43
f 36 44 43
f 43 44 45
f 43 44 45
f 46 38 42
f 46 38 42
f 46 40 38
f 46 40 38
f 43 47 42
f 43 47 42
f 46 42 47
f 46 42 47
f 48 47 43
f 46 47 48
f 48 47 43
f 46 47 48
f 45 49 43
f 45 49 43
f 43 49 48
f 43 49 48
f 50 49 45
f 50 49 45
f 48 49 50
f 48 49 50
f 45 51 50
f 45 51 50
f 50 51 52
f 50 51 52
f 48 53 46
f 48 53 46
f 46 53 54
f 46 53 54
f 46 54 40
f 46 54 40
f 55 53 48
f 55 53 48
f 54 53 55
f 54 53 55
f 50 56 48
f 50 56 48
f 48 56 55
f 48 56 55
f 57 56 50
f 57 56 50
f 55 56 57
f 55 56 57
f 50 58 57
f 50 58 57
f 52 58 50
f 52 58 50
f 59 58 52
f 59 58 52
f 57 58 59
f 57 58 59
f 52 60 59
f 52 60 59
f 59 60 61
f 59 60 61
f 57 62 55
f 57 62 55
f 59 63 57
f 59 63 57
f 64 62 57
f 64 62 57
f 57 63 64
f 57 63 64
f 65 62 64
f 65 62 64
f 55 62 65
f 55 62 65
f 64 63 66
f 66 63 59
f 64 63 66
f 66 63 59
f 64 67 65
f 66 67 64
f 64 67 65
f 66 67 64
f 65 68 55
f 65 68 55
f 55 68 54
f 55 68 54
f 69 68 65
f 69 68 65
f 54 68 69
f 54 68 69
f 65 67 70
f 70 67 66
f 65 67 70
f 70 67 66
f 65 71 69
f 70 71 65
f 65 71 69
f 70 71 65
f 69 71 72
f 72 71 70
f 72 71 70
f 69 71 72
f 59 73 66
f 59 73 66
f 61 73 59
f 61 73 59
f 74 73 61
f 74 73 61
f 66 73 74
f 66 73 74
f 61 75 74
f 61 75 74
f 74 75 76
f 74 75 76
f 74 77 66
f 74 77 66
f 66 77 70
f 66 77 70
f 78 77 74
f 78 77 74
f 70 77 78
f 70 77 78
f 76 79 74
f 76 79 74
f 74 79 78
f 74 79 78
f 80 79 76
f 80 79 76
f 80 78 79
f 80 78 79
f 76 81 80
f 76 81 80
f 80 81 82
f 80 81 82
f 78 83 70
f 78 83 70
f 70 83 72
f 70 83 72
f 84 83 78
f 84 83 78
f 84 72 83
f 84 72 83
f 85 84 78
f 85 84 78
f 80 85 78
f 80 85 78
f 80 82 86
f 80 86 85
f 80 86 85
f 80 82 86
f 82 87 86
f 82 87 86
f 85 86 87
f 85 86 87
f 82 88 87
f 82 88 87
f 87 88 89
f 87 88 89
f 87 89 90
f 87 89 90
f 89 91 90
f 89 91 90
f 91 92 90
f 91 92 90
f 91 93 92
f 91 93 92
f 94 92 93
f 94 92 93
f 87 90 95
f 95 90 92
f 87 90 95
f 95 90 92
f 95 96 87
f 95 96 87
f 87 96 85
f 87 96 85
f 85 96 97
f 85 96 97
f 97 96 95
f 97 96 95
f 85 97 84
f 85 97 84
f 95 92 98
f 95 92 98
f 97 95 98
f 97 95 98
f 94 99 92
f 94 99 92
f 92 99 98
f 92 99 98
f 94 100 99
f 94 100 99
f 98 99 100
f 98 99 100
f 94 101 100
f 94 101 100
f 100 101 102
f 100 101 102
f 84 97 103
f 84 97 103
f 84 103 72
f 84 103 72
f 104 97 98
f 104 97 98
f 98 100 105
f 104 98 105
f 98 100 105
f 104 98 105
f 102 106 100
f 102 106 100
f 100 106 105
f 100 106 105
f 107 106 102
f 107 106 102
f 105 106 107
f 105 106 107
f 102 108 107
f 102 108 107
f 107 108 109
f 107 108 109
f 110 104 105
f 110 104 105
f 105 111 110
f 105 111 110
f 107 111 105
f 107 111 105
f 110 111 112
f 110 111 112
f 112 111 107
f 112 111 107
f 109 113 107
f 107 113 112
f 107 113 112
f 109 113 107
f 112 113 114
f 112 113 114
f 114 113 109
f 114 113 109
f 97 104 115
f 97 104 115
f 97 115 116
f 97 115 116
f 117 116 115
f 117 116 115
f 97 116 103
f 97 116 103
f 103 116 117
f 103 116 117
f 117 118 103
f 117 118 103
f 119 118 117
f 119 118 117
f 103 118 120
f 103 118 120
f 120 118 119
f 120 118 119
f 103 120 72
f 103 120 72
f 120 119 121
f 120 119 121
f 120 122 72
f 120 122 72
f 120 121 122
f 120 121 122
f 72 122 69
f 72 122 69
f 69 122 121
f 69 122 121
f 13 121 119
f 13 121 119
f 121 123 69
f 121 123 69
f 69 123 54
f 69 123 54
f 124 123 121
f 124 123 121
f 124 54 123
f 124 54 123
f 13 124 121
f 13 124 121
f 124 40 54
f 124 40 54
f 13 125 124
f 124 125 40
f 124 125 40
f 13 125 124
f 40 125 12
f 40 125 12
f 12 125 13
f 12 125 13
f 126 127 24
f 126 127 24
f 24 127 25
f 24 127 25
f 128 129 130
f 128 129 130
f 24 131 128
f 24 131 128
f 132 129 128
f 132 129 128
f 128 131 132
f 128 131 132
f 133 129 132
f 133 129 132
f 130 129 133
f 130 129 133
f 132 131 21
f 21 131 24
f 132 131 21
f 21 131 24
f 132 134 133
f 21 134 132
f 132 134 133
f 21 134 132
f 133 135 130
f 133 135 130
f 130 135 136
f 130 135 136
f 137 135 133
f 137 135 133
f 136 135 137
f 136 135 137
f 133 134 18
f 18 134 21
f 133 134 18
f 18 134 21
f 133 138 137
f 18 138 133
f 133 138 137
f 18 138 133
f 137 139 136
f 137 139 136
f 136 139 140
f 136 139 140
f 140 139 141
f 140 139 141
f 141 139 137
f 141 139 137
f 142 140 141
f 142 140 141
f 15 138 18
f 15 138 18
f 137 138 15
f 137 138 15
f 142 141 11
f 142 141 11
f 11 143 142
f 11 143 142
f 143 11 13
f 143 11 13
f 15 144 137
f 137 144 141
f 137 144 141
f 15 144 137
f 145 141 144
f 145 141 144
f 145 144 15
f 145 144 15
f 145 11 141
f 145 11 141
f 145 146 11
f 145 146 11
f 14 146 145
f 14 145 15
f 14 146 145
f 14 145 15
f 11 146 12
f 11 146 12
f 12 146 14
f 12 146 14
f 11 12 13
f 147 148 149
f 147 148 149
f 119 150 13
f 119 150 13
f 151 152 150
f 151 152 150
f 153 150 152
f 153 150 152
f 154 151 150
f 154 151 150
f 154 150 119
f 154 150 119
f 153 143 150
f 153 143 150
f 13 150 143
f 13 150 143
f 153 155 143
f 153 155 143
f 155 156 143
f 155 156 143
f 154 119 157
f 154 119 157
f 157 119 117
f 157 119 117
f 158 157 117
f 158 157 117
f 159 158 117
f 159 158 117
f 142 143 156
f 142 143 156
f 142 156 160
f 142 156 160
f 161 142 160
f 161 142 160
f 161 162 142
f 161 162 142
f 159 117 163
f 159 117 163
f 159 163 164
f 159 163 164
f 163 165 164
f 163 165 164
f 166 142 162
f 166 142 162
f 166 162 167
f 166 162 167
f 168 166 167
f 168 166 167
f 163 169 165
f 163 169 165
f 169 170 165
f 169 170 165
f 169 163 115
f 169 163 115
f 115 163 117
f 115 163 117
f 169 171 170
f 169 171 170
f 171 172 170
f 171 172 170
f 173 169 115
f 173 169 115
f 173 171 169
f 173 171 169
f 172 171 174
f 172 171 174
f 174 171 173
f 174 171 173
f 175 172 174
f 175 172 174
f 175 174 176
f 175 174 176
f 175 176 177
f 175 176 177
f 178 177 176
f 178 177 176
f 174 173 179
f 174 173 179
f 174 179 176
f 174 179 176
f 178 176 180
f 178 176 180
f 180 176 179
f 180 176 179
f 178 180 181
f 178 180 181
f 104 179 173
f 104 179 173
f 104 173 115
f 104 173 115
f 104 182 179
f 104 182 179
f 182 180 179
f 182 180 179
f 180 183 181
f 180 183 181
f 183 184 181
f 183 184 181
f 185 184 183
f 185 184 183
f 185 183 186
f 185 183 186
f 183 187 186
f 183 187 186
f 182 188 180
f 180 188 183
f 180 188 183
f 182 188 180
f 183 188 189
f 189 188 182
f 189 188 182
f 183 188 189
f 182 190 189
f 182 190 189
f 110 190 182
f 110 190 182
f 182 104 110
f 182 104 110
f 189 190 191
f 191 190 110
f 189 190 191
f 191 190 110
f 189 192 183
f 189 192 183
f 191 193 189
f 191 193 189
f 194 192 189
f 194 192 189
f 189 193 194
f 189 193 194
f 195 192 194
f 195 192 194
f 195 183 192
f 195 183 192
f 194 193 196
f 194 193 196
f 196 193 191
f 196 193 191
f 195 197 183
f 195 197 183
f 183 197 187
f 183 197 187
f 187 197 198
f 187 197 198
f 198 199 187
f 198 199 187
f 200 199 198
f 200 199 198
f 201 200 198
f 201 200 198
f 201 198 202
f 201 198 202
f 201 202 203
f 201 202 203
f 204 203 202
f 204 203 202
f 204 202 205
f 204 202 205
f 204 205 206
f 204 205 206
f 205 207 206
f 205 207 206
f 207 208 206
f 207 208 206
f 209 208 207
f 209 208 207
f 209 207 210
f 209 207 210
f 211 209 210
f 211 209 210
f 212 207 205
f 212 207 205
f 210 207 212
f 210 207 212
f 211 210 213
f 211 210 213
f 214 211 213
f 214 211 213
f 210 215 213
f 210 212 215
f 210 215 213
f 210 212 215
f 214 213 216
f 214 213 216
f 216 213 215
f 216 213 215
f 217 214 216
f 217 214 216
f 217 216 218
f 217 216 218
f 217 218 219
f 217 218 219
f 168 219 218
f 168 219 218
f 168 218 166
f 168 218 166
f 216 220 218
f 216 220 218
f 166 218 220
f 166 218 220
f 216 215 220
f 216 215 220
f 221 220 215
f 221 220 215
f 221 215 212
f 221 215 212
f 221 222 220
f 221 222 220
f 166 220 222
f 166 220 222
f 221 212 223
f 221 212 223
f 212 205 223
f 212 205 223
f 166 222 224
f 166 222 224
f 166 224 142
f 166 224 142
f 140 224 222
f 140 224 222
f 142 224 140
f 142 224 140
f 221 136 222
f 136 140 222
f 221 136 222
f 136 140 222
f 205 225 223
f 205 225 223
f 202 225 205
f 202 225 205
f 223 225 226
f 226 225 202
f 226 225 202
f 223 225 226
f 202 227 226
f 202 227 226
f 228 227 202
f 228 227 202
f 198 228 202
f 198 228 202
f 226 227 229
f 228 229 227
f 226 227 229
f 228 229 227
f 226 230 223
f 226 230 223
f 198 231 228
f 198 231 228
f 232 231 198
f 232 231 198
f 228 231 233
f 228 231 233
f 233 231 232
f 233 231 232
f 228 233 229
f 228 233 229
f 197 232 198
f 197 232 198
f 197 234 232
f 197 234 232
f 195 234 197
f 195 234 197
f 232 234 235
f 235 234 195
f 232 234 235
f 235 234 195
f 233 232 235
f 233 232 235
f 235 195 194
f 235 195 194
f 233 235 236
f 235 194 236
f 233 235 236
f 235 194 236
f 229 233 236
f 229 233 236
f 196 236 194
f 196 236 194
f 229 236 237
f 229 236 237
f 238 236 196
f 238 236 196
f 239 237 236
f 239 236 238
f 239 236 238
f 239 237 236
f 196 240 238
f 196 240 238
f 239 241 237
f 239 241 237
f 242 240 196
f 242 240 196
f 238 240 243
f 243 240 242
f 238 240 243
f 243 240 242
f 196 244 242
f 196 244 242
f 191 244 196
f 191 244 196
f 242 244 245
f 245 244 191
f 242 244 245
f 245 244 191
f 191 246 245
f 191 246 245
f 110 246 191
f 110 246 191
f 245 246 112
f 112 246 110
f 245 246 112
f 112 246 110
f 245 247 242
f 112 247 245
f 245 247 242
f 112 247 245
f 242 247 114
f 114 247 112
f 242 247 114
f 114 247 112
f 114 248 242
f 114 248 242
f 242 248 243
f 242 248 243
f 249 248 114
f 249 248 114
f 243 248 249
f 243 248 249
f 114 250 249
f 114 250 249
f 249 251 243
f 249 251 243
f 109 250 114
f 109 250 114
f 243 251 252
f 243 251 252
f 252 253 243
f 252 253 243
f 243 253 238
f 243 253 238
f 254 253 252
f 254 253 252
f 254 238 253
f 254 238 253
f 252 255 254
f 252 255 254
f 254 239 238
f 254 239 238
f 254 255 256
f 254 255 256
f 254 257 239
f 254 257 239
f 256 257 254
f 256 257 254
f 239 257 258
f 258 257 256
f 239 257 258
f 258 257 256
f 258 256 259
f 258 256 259
f 239 258 241
f 239 258 241
f 258 259 260
f 258 259 260
f 258 260 261
f 258 260 261
f 258 261 241
f 258 261 241
f 262 261 260
f 262 261 260
f 241 261 262
f 241 261 262
f 260 263 262
f 260 263 262
f 262 263 264
f 262 263 264
f 241 262 265
f 241 262 265
f 241 265 237
f 241 265 237
f 262 266 265
f 264 266 262
f 262 266 265
f 264 266 262
f 267 266 264
f 267 266 264
f 265 266 267
f 265 266 267
f 264 268 267
f 264 268 267
f 267 268 269
f 267 268 269
f 270 237 265
f 270 237 265
f 229 237 270
f 229 237 270
f 267 271 265
f 267 271 265
f 265 271 270
f 265 271 270
f 272 271 267
f 272 271 267
f 270 271 272
f 270 271 272
f 269 273 267
f 269 273 267
f 267 273 272
f 267 273 272
f 274 273 269
f 274 273 269
f 272 273 274
f 272 273 274
f 269 275 274
f 269 275 274
f 274 275 276
f 274 275 276
f 270 277 229
f 270 277 229
f 229 277 226
f 229 277 226
f 226 277 278
f 226 277 278
f 278 277 270
f 278 277 270
f 278 230 226
f 278 230 226
f 270 279 278
f 270 279 278
f 272 279 270
f 272 279 270
f 280 230 278
f 280 230 278
f 223 230 280
f 223 230 280
f 278 279 281
f 281 279 272
f 278 279 281
f 281 279 272
f 278 282 280
f 281 282 278
f 278 282 280
f 281 282 278
f 280 283 223
f 280 283 223
f 221 223 283
f 221 223 283
f 272 284 281
f 272 284 281
f 274 284 272
f 274 284 272
f 285 282 281
f 285 282 281
f 281 284 285
f 281 284 285
f 280 282 285
f 280 282 285
f 285 284 274
f 285 284 274
f 274 286 285
f 274 286 285
f 276 286 274
f 276 286 274
f 287 286 276
f 287 286 276
f 285 286 287
f 285 286 287
f 276 288 287
f 276 288 287
f 287 288 289
f 287 288 289
f 285 290 280
f 287 290 285
f 285 290 280
f 287 290 285
f 280 290 291
f 280 290 291
f 291 290 287
f 291 290 287
f 291 283 280
f 291 283 280
f 289 292 287
f 287 292 291
f 287 292 291
f 289 292 287
f 293 292 289
f 293 292 289
f 293 291 292
f 293 291 292
f 289 294 293
f 289 294 293
f 295 283 291
f 295 283 291
f 293 295 291
f 293 295 291
f 295 221 283
f 295 221 283
f 293 294 296
f 293 294 296
f 293 297 295
f 293 297 295
f 293 296 297
f 293 296 297
f 296 298 297
f 296 298 297
f 298 295 297
f 298 295 297
f 296 299 298
f 296 299 298
f 298 299 300
f 298 299 300
f 295 301 221
f 298 301 295
f 295 301 221
f 298 301 295
f 302 298 300
f 302 298 300
f 298 302 301
f 298 302 301
f 302 300 303
f 302 300 303
f 304 302 303
f 304 302 303
f 301 305 221
f 301 305 221
f 302 305 301
f 302 305 301
f 304 306 302
f 302 306 305
f 302 306 305
f 304 306 302
f 304 307 306
f 304 307 306
f 305 306 307
f 305 306 307
f 304 308 307
f 304 308 307
f 307 308 309
f 307 308 309
f 305 310 221
f 305 307 310
f 305 310 221
f 305 307 310
f 309 311 307
f 309 311 307
f 307 311 310
f 307 311 310
f 311 309 312
f 311 309 312
f 312 313 311
f 312 313 311
f 310 311 313
f 310 311 313
f 313 312 314
f 313 312 314
f 310 315 221
f 310 313 315
f 310 315 221
f 310 313 315
f 130 221 315
f 130 221 315
f 136 221 130
f 136 221 130
f 313 316 315
f 313 316 315
f 314 316 313
f 314 316 313
f 317 316 314
f 317 316 314
f 315 316 317
f 315 316 317
f 314 318 317
f 314 318 317
f 317 318 126
f 317 318 126
f 315 319 130
f 317 319 315
f 315 319 130
f 317 319 315
f 130 319 128
f 128 319 317
f 130 319 128
f 128 319 317
f 126 320 317
f 317 320 128
f 317 320 128
f 126 320 317
f 24 320 126
f 24 320 126
f 128 320 24
f 128 320 24
f 321 322 323
f 321 322 323
f 324 325 326
f 324 325 326
f 324 326 327
f 324 326 327
f 324 327 328
f 324 327 328
f 324 328 329
f 324 328 329
f 324 329 330
f 324 329 330
f 324 330 331
f 324 330 331
f 324 331 332
f 324 331 332
f 324 332 333
f 324 332 333
f 324 333 334
f 324 333 334
f 324 334 335
f 324 334 335
f 336 337 338
f 336 337 338
f 339 340 341
f 339 340 341
f 338 342 336
f 338 342 336
f 341 343 339
f 341 343 339
f 342 338 344
f 342 338 344
f 343 341 345
f 343 341 345
f 344 346 342
f 344 346 342
f 345 347 343
f 345 347 343
f 346 344 348
f 346 344 348
f 347 345 349
f 347 345 349
f 348 350 346
f 348 350 346
f 349 351 347
f 349 351 347
f 350 348 352
f 350 348 352
f 351 349 353
f 351 349 353
f 352 354 350
f 352 354 350
f 353 355 351
f 353 355 351
f 354 352 356
f 354 352 356
f 355 353 357
f 355 353 357
f 356 358 354
f 356 358 354
f 357 359 355
f 357 359 355
f 358 356 360
f 358 356 360
f 359 357 361
f 359 357 361
f 360 362 358
f 360 362 358
f 361 363 359
f 361 363 359
f 362 360 364
f 362 360 364
f 363 361 365
f 363 361 365
f 364 366 362
f 364 366 362
f 365 367 363
f 365 367 363
f 366 364 368
f 366 364 368
f 367 365 369
f 367 365 369
f 368 370 366
f 368 370 366
f 369 371 367
f 369 371 367
f 370 368 372
f 370 368 372
f 371 369 373
f 371 369 373
f 372 374 370
f 372 374 370
f 373 375 371
f 373 375 371
f 374 372 376
f 374 372 376
f 375 373 377
f 375 373 377
f 376 377 374
f 376 377 374
f 377 376 375
f 377 376 375
f 378 379 380
f 378 379 380
f 380 381 378
f 380 381 378
f 381 380 382
f 381 380 382
f 382 383 381
f 382 383 381
f 383 382 384
f 383 382 384
f 384 385 383
f 384 385 383
f 386 387 388
f 386 387 388
f 389 390 391
f 389 390 391
f 389 391 392
f 389 391 392
f 389 392 393
f 389 392 393
f 389 393 394
f 389 393 394
f 389 394 395
f 389 394 395
f 389 395 396
f 389 395 396
f 389 396 397
f 389 396 397
f 389 397 398
f 389 397 398
f 389 398 399
f 389 398 399
f 389 399 400
f 389 399 400
f 389 400 401
f 389 400 401
f 389 401 402
f 389 401 402
f 403 404 405
f 403 404 405
f 406 405 404
f 406 405 404
f 405 407 403
f 405 407 403
f 404 408 406
f 404 408 406
f 409 406 408
f 409 406 408
f 403 407 410
f 403 407 410
f 408 411 409
f 408 411 409
f 410 412 403
f 410 412 403
f 412 410 413
f 412 410 413
f 409 411 414
f 409 411 414
f 412 413 415
f 412 413 415
f 415 416 412
f 415 416 412
f 416 415 417
f 416 415 417
f 417 418 416
f 417 418 416
f 418 417 419
f 418 417 419
f 419 420 418
f 419 420 418
f 420 419 421
f 420 419 421
f 421 422 420
f 421 422 420
f 422 421 423
f 422 421 423
f 423 424 422
f 423 424 422
f 425 424 423
f 425 424 423
f 423 426 425
f 423 426 425
f 427 425 426
f 427 425 426
f 426 428 427
f 426 428 427
f 429 427 428
f 429 427 428
f 428 430 429
f 428 430 429
f 429 430 431
f 429 430 431
f 431 432 429
f 431 432 429
f 433 429 432
f 433 429 432
f 432 431 434
f 432 431 434
f 434 435 432
f 434 435 432
f 433 432 435
f 433 432 435
f 435 434 436
f 435 434 436
f 436 437 435
f 436 437 435
f 433 435 437
f 433 435 437
f 437 436 438
f 437 436 438
f 438 439 437
f 438 439 437
f 433 437 439
f 433 437 439
f 439 438 440
f 439 438 440
f 440 441 439
f 440 441 439
f 433 439 441
f 433 439 441
f 441 440 442
f 441 440 442
f 442 443 441
f 442 443 441
f 433 441 443
f 433 441 443
f 443 442 444
f 443 442 444
f 444 433 443
f 444 433 443
f 445 433 444
f 445 433 444
f 444 446 445
f 444 446 445
f 447 445 446
f 447 445 446
f 446 448 447
f 446 448 447
f 449 447 448
f 449 447 448
f 448 450 449
f 448 450 449
f 449 450 451
f 449 450 451
f 451 452 449
f 451 452 449
f 453 449 452
f 453 449 452
f 452 451 454
f 452 451 454
f 454 455 452
f 454 455 452
f 453 452 455
f 453 452 455
f 455 454 456
f 455 454 456
f 456 457 455
f 456 457 455
f 453 455 457
f 453 455 457
f 457 456 458
f 457 456 458
f 458 459 457
f 458 459 457
f 453 457 459
f 453 457 459
f 459 458 460
f 459 458 460
f 460 461 459
f 460 461 459
f 453 459 461
f 453 459 461
f 461 460 462
f 461 460 462
f 462 463 461
f 462 463 461
f 453 461 463
f 453 461 463
f 463 462 464
f 463 462 464
f 464 453 463
f 464 453 463
f 465 453 464
f 465 453 464
f 464 466 465
f 464 466 465
f 467 465 466
f 467 465 466
f 466 468 467
f 466 468 467
f 469 467 468
f 469 467 468
f 468 470 469
f 468 470 469
f 469 470 471
f 469 470 471
f 471 472 469
f 471 472 469
f 472 471 473
f 472 471 473
f 473 474 472
f 473 474 472
f 414 472 474
f 414 472 474
f 474 473 475
f 474 473 475
f 475 476 474
f 475 476 474
f 414 474 476
f 414 474 476
f 476 475 477
f 476 475 477
f 477 478 476
f 477 478 476
f 414 476 478
f 414 476 478
f 478 477 479
f 478 477 479
f 478 479 480
f 478 479 480
f 480 414 478
f 480 414 478
f 414 480 409
f 414 480 409
f 481 482 483
f 481 482 483
f 482 481 484
f 482 481 484
f 483 485 481
f 483 485 481
f 484 486 482
f 484 486 482
f 485 483 487
f 485 483 487
f 486 484 488
f 486 484 488
f 487 489 485
f 487 489 485
f 488 490 486
f 488 490 486
f 489 487 491
f 489 487 491
f 490 488 492
f 490 488 492
f 491 493 489
f 491 493 489
f 492 494 490
f 492 494 490
f 493 491 495
f 493 491 495
f 494 492 496
f 494 492 496
f 495 497 493
f 495 497 493
f 496 498 494
f 496 498 494
f 497 495 499
f 497 495 499
f 498 496 500
f 498 496 500
f 499 501 497
f 499 501 497
f 500 502 498
f 500 502 498
f 501 499 503
f 501 499 503
f 502 500 504
f 502 500 504
f 503 505 501
f 503 505 501
f 504 506 502
f 504 506 502
f 505 503 507
f 505 503 507
f 506 504 508
f 506 504 508
f 507 509 505
f 507 509 505
f 508 510 506
f 508 510 506
f 509 507 511
f 509 507 511
f 510 508 512
f 510 508 512
f 511 513 509
f 511 513 509
f 512 514 510
f 512 514 510
f 513 511 515
f 513 511 515
f 514 512 516
f 514 512 516
f 515 517 513
f 515 517 513
f 516 518 514
f 516 518 514
f 517 515 337
f 517 515 337
f 518 516 340
f 518 516 340
f 337 336 517
f 337 336 517
f 340 339 518
f 340 339 518
f 519 520 521
f 519 520 521
f 522 519 521
f 522 519 521
f 523 522 521
f 523 522 521
f 524 523 521
f 524 523 521
f 525 524 521
f 525 524 521
f 526 525 521
f 526 525 521
f 527 526 521
f 527 526 521
f 528 527 521
f 528 527 521
f 528 521 529
f 528 521 529
f 528 529 530
f 528 529 530
f 531 532 533
f 531 532 533
f 531 533 534
f 531 533 534
f 531 534 535
f 531 534 535
f 531 535 536
f 531 535 536
f 531 536 537
f 531 536 537
f 531 537 538
f 531 537 538
f 531 538 539
f 531 538 539
f 531 539 540
f 531 539 540
f 541 531 540
f 541 531 540
f 541 540 542
f 541 540 542
f 543 544 545
f 543 544 545
f 545 546 543
f 545 546 543
f 544 543 547
f 544 543 547
f 547 548 544
f 547 548 544
f 548 547 549
f 548 547 549
f 549 550 548
f 549 550 548
f 551 552 553
f 551 552 553
f 553 554 551
f 553 554 551
f 552 551 555
f 552 551 555
f 555 556 552
f 555 556 552
f 556 555 557
f 556 555 557
f 557 558 556
f 557 558 556
f 559 560 561
f 559 560 561
f 561 562 559
f 561 562 559
f 560 559 563
f 560 559 563
f 563 564 560
f 563 564 560
f 564 563 565
f 564 563 565
f 565 566 564
f 565 566 564
f 567 568 569
f 567 568 569
f 570 571 572
f 570 571 572
