v 0.217139974 0.0719171464 0.501362562
v 0.222032994 0.0710373148 0.494855195
v 0.214437798 0.082792446 0.490425318
v 0.225300148 0.0704411045 0.49036634
v 0.209971368 0.0836368725 0.497216672
v 0.204644769 0.0845522061 0.504696071
v 0.199997291 0.0966047123 0.492303222
v 0.195513576 0.0970224664 0.500621557
v 0.183922589 0.10977979 0.496389717
v 0.187548131 0.10984198 0.48703295
v 0.172954261 0.122369885 0.4818165
v 0.20385921 0.0958136767 0.48497498
v 0.19071576 0.109113619 0.479033321
v 0.158408046 0.132600069 0.46779272
v 0.177095413 0.121257745 0.467279196
v 0.206447795 0.095278725 0.479970127
v 0.192846015 0.108622313 0.473610401
v 0.194153145 0.107434317 0.470302194
v 0.178197801 0.119849622 0.463769287
v 0.217424586 0.0822204873 0.485756159
v 0.178967789 0.116301641 0.462103546
v 0.194851324 0.10461586 0.468646795
v 0.195570767 0.0989083573 0.468354881
v 0.207732558 0.0945049375 0.476767391
v 0.218589038 0.0818872228 0.482568026
v 0.207682997 0.092997402 0.474845529
v 0.22637561 0.0704068765 0.487107366
v 0.231807485 0.0589504912 0.490782917
v 0.217588484 0.0817588791 0.480219811
v 0.224693328 0.0712129399 0.484289706
v 0.229685515 0.0601792447 0.487576753
v 0.223667711 0.0632149875 0.483523011
v 0.207932979 0.0889618769 0.474374175
v 0.215296388 0.081640467 0.478546202
v 0.219518498 0.0741738677 0.480799496
v 0.210116357 0.0806041509 0.475522995
v 0.196941778 0.0890532508 0.469137251
v 0.198593184 0.0756690353 0.470681459
v 0.213002756 0.0687360317 0.477620423
v 0.215361834 0.0541693382 0.479994923
v 0.167133719 -0.242907017 0.527468503
v 0.170693263 -0.244394869 0.516309202
v 0.18595852 -0.233880147 0.520494163
v 0.153671667 -0.253315717 0.512294769
v 0.198744312 -0.22219719 0.524546742
v 0.193412036 -0.222375229 0.532922864
v 0.208372414 -0.209657878 0.52842468
v 0.174270257 -0.242941171 0.505420923
v 0.203807235 -0.220229045 0.515860796
v 0.190247059 -0.232206047 0.510656714
v 0.133192196 -0.257771313 0.521206141
v 0.135616764 -0.260216981 0.508754015
v 0.117015198 -0.265363544 0.505702853
v 0.115020268 -0.262484312 0.518385112
v 0.138036162 -0.259252936 0.496504217
v 0.0967296883 -0.265770614 0.515908003
v 0.156619161 -0.252076209 0.500565886
v 0.0983535424 -0.269020289 0.503157258
v 0.159151644 -0.249710038 0.490623415
v 0.118987426 -0.264698088 0.493173331
v 0.0801183209 -0.271452099 0.501133144
v 0.0788320452 -0.267919689 0.513877928
v 0.0999390781 -0.268638343 0.490510821
v 0.120675147 -0.262679696 0.482521504
v 0.14011398 -0.257039428 0.486108124
v 0.0618389212 -0.269221067 0.512397647
v 0.081357263 -0.271300405 0.488454163
v 0.0627961606 -0.272923887 0.499646485
v 0.0637081787 -0.272911042 0.486940891
v 0.0461587645 -0.273671627 0.498647958
v 0.0455241725 -0.269882947 0.511411786
v 0.0449196957 -0.260181338 0.522394657
v 0.0824022964 -0.269653171 0.477638125
v 0.101287253 -0.266820937 0.479739547
v 0.0296616666 -0.270113528 0.510864675
v 0.0293580573 -0.260378242 0.521858335
v 0.0290984754 -0.242544964 0.529248476
v 0.014025311 -0.260385245 0.521703005
v 0.0140253138 -0.242551625 0.529104352
v 0.0299779009 -0.273931444 0.4980883
v 0.0467585959 -0.273728848 0.485922456
v 0.0302753635 -0.274012595 0.485350251
v 0.0140252998 -0.273939341 0.497918189
v 0.0140252998 -0.270120978 0.510700762
v -0.00161106559 -0.270113498 0.510864615
v 0.0472587571 -0.272236168 0.475054353
v 0.0644723922 -0.271366447 0.476093173
v 0.0305226557 -0.272537649 0.47447136
v 0.0140252905 -0.272546351 0.474293798
v -0.00222476339 -0.274012595 0.485350251
v -0.00192730105 -0.273931444 0.4980883
v 0.0306883771 -0.271687239 0.46727255
v 0.0649861619 -0.270473987 0.468915522
v 0.0475943498 -0.271374971 0.467862844
v 0.0140253101 -0.27169618 0.467092961
v 0.0478008874 -0.269113421 0.463457137
v 0.0831066892 -0.268698871 0.470482081
v 0.102198884 -0.265764236 0.472614199
v 0.0835432112 -0.266436815 0.466101438
v 0.0653032959 -0.26821211 0.464519382
v 0.121816605 -0.26150012 0.475472391
v 0.141513765 -0.255736589 0.479217142
v 0.122528791 -0.259246975 0.471163779
v 0.102766462 -0.2635023 0.468255997
v 0.065477632 -0.262559265 0.462016255
v 0.103082463 -0.258069158 0.465786099
v 0.0837845728 -0.260866255 0.463611454
v 0.0655298829 0.147968784 0.441855252
v 0.0837723389 0.146510765 0.443301648
v 0.0838535205 0.137113079 0.442750543
v -0.00283587142 0.14890939 0.440283149
v -0.00279511558 0.153812855 0.442230582
v 0.0140253743 0.153803453 0.442048579
v 0.0478959978 0.153575346 0.442804575
v 0.0654055402 0.152825281 0.443798602
v -0.0198452696 0.153575361 0.442804575
v -0.0199273005 0.148683682 0.440858543
v -0.0374791473 0.147968814 0.441855252
v 0.0836041495 0.151297003 0.445240676
v -0.0373548083 0.152825311 0.443798602
v -0.0555534214 0.151297018 0.445240676
v -0.00271988846 0.155619025 0.446210653
v -0.0371276326 0.154616833 0.447771758
v -0.0196944531 0.15537785 0.446782231
v -0.0552487485 0.153066814 0.449206859
v 0.0307706185 0.15561904 0.446210653
v 0.0308458358 0.153812855 0.442230582
v 0.0477451831 0.15537782 0.446782231
v 0.0651783496 0.154616818 0.447771758
v -0.00241427287 0.156476036 0.462836027
v 0.0304650124 0.156476006 0.462836027
v -0.0190838091 0.156235948 0.46339801
v 0.0140253743 0.155473232 0.474439263
v 0.047134541 0.156235948 0.46339801
v -0.00218955148 0.155482322 0.47461471
v -0.0186364707 0.155246556 0.475167781
v -0.0362131484 0.155478895 0.464369744
v -0.0355473831 0.154502913 0.47612536
v -0.00194170268 0.151302353 0.486692756
v -0.0348218679 0.150369108 0.488172442
v -0.0181452855 0.151077941 0.487232566
v -0.0531542972 0.152988344 0.477514207
v -0.054032173 0.153937116 0.465777516
v -0.0727707893 0.151342884 0.467647672
v -0.0742871016 0.15045847 0.451115161
v -0.0746707991 0.148724854 0.447158813
v -0.0941978917 0.144701421 0.449761897
v -0.0937142894 0.14638266 0.453686625
v -0.11300189 0.140430078 0.45711118
v -0.0918281078 0.147292659 0.470083445
v -0.113625668 0.138819352 0.453258753
v -0.114008121 0.134561539 0.451388687
v -0.132445067 0.130671248 0.457858264
v -0.132985115 0.126726374 0.456067085
v -0.133398682 0.119044207 0.455640823
v -0.110603258 0.141382813 0.473188013
v -0.130357295 0.132600158 0.46779272
v -0.131621495 0.132191539 0.461578727
v -0.150917068 0.116301693 0.462103546
v -0.149044707 0.121257797 0.467279196
v -0.150147095 0.119849674 0.463769287
v -0.151589453 0.109435007 0.461785674
v -0.166102439 0.10743437 0.470302194
v -0.152399004 0.098070778 0.462319374
v -0.133842885 0.106311932 0.456015199
v -0.134300008 0.0895042643 0.45701158
v -0.167520061 0.0989084318 0.468354881
v -0.153291047 0.0829407498 0.46351862
v -0.166800603 0.104615919 0.468646795
v -0.15421091 0.0647767261 0.465197355
v -0.170542508 0.0756690726 0.470681459
v -0.168891072 0.0890533105 0.469137251
v -0.179632291 0.0929974541 0.474845529
v -0.182065636 0.0806042105 0.475522995
v -0.179882258 0.0889619365 0.474374175
v -0.179681852 0.0945049971 0.476767391
v -0.187245622 0.0816405267 0.478546202
v -0.189537749 0.0817589387 0.480219811
v -0.18495205 0.0687360913 0.477620423
v -0.191467762 0.0741739273 0.480799496
v -0.190538317 0.0818872601 0.482568026
v -0.196642563 0.0712130219 0.484289706
v -0.19561702 0.0632150546 0.483523011
v -0.205554277 -0.143063322 0.523489118
v -0.20941253 -0.14217481 0.518575191
v -0.207747757 -0.160243496 0.517814279
v -0.20632273 -0.175757542 0.51240778
v -0.205343336 -0.17612125 0.515994489
v -0.201097786 -0.190380692 0.512999058
v -0.193909571 -0.203594476 0.508711219
v -0.190860033 -0.205043569 0.513569117
v -0.182677224 -0.216335252 0.503014028
v -0.179950878 -0.217823952 0.508228719
v -0.194924176 -0.202550724 0.505327463
v -0.202052996 -0.189739674 0.509535491
v -0.165830702 -0.229758009 0.502248049
v -0.168208554 -0.228261411 0.496561766
v -0.183878258 -0.214833081 0.499599785
v -0.16954568 -0.226369023 0.493009359
v -0.183496624 -0.212387756 0.497369081
v -0.200056866 -0.189736679 0.506443799
v -0.193521604 -0.201441944 0.5026986
v -0.151311412 -0.239031389 0.490008712
v -0.149285436 -0.240501449 0.496191531
v -0.146219641 -0.242941111 0.505420923
v -0.131101012 -0.249709979 0.490623415
v -0.12856856 -0.252076179 0.500565886
v -0.109985568 -0.259252936 0.496504217
v -0.112063363 -0.257039398 0.486108124
v -0.113463171 -0.25573656 0.479217142
v -0.13279368 -0.248303637 0.484009087
v -0.13384296 -0.246127784 0.479961663
v -0.152556837 -0.236940816 0.486213148
v -0.153280914 -0.232639506 0.484145492
v -0.170057774 -0.222733721 0.491002321
v -0.17039907 -0.21575366 0.490134239
v -0.183229133 -0.20705083 0.49643302
v -0.190741837 -0.200187653 0.500692606
v -0.18477264 -0.196873933 0.496902794
v -0.194499925 -0.191679016 0.502605677
v -0.197798431 -0.178554565 0.504443884
v -0.204039693 -0.176413849 0.508917809
v -0.206407383 -0.160615355 0.510433614
v -0.19985576 -0.162308991 0.505617797
v -0.201408833 -0.143322244 0.506048679
v -0.20879136 -0.159961939 0.514128208
v -0.208107308 -0.142289862 0.511025846
v -0.210519373 -0.141912177 0.514811039
v -0.210086823 -0.121386059 0.510728955
v -0.203194514 -0.121974312 0.505658031
v -0.204902068 -0.0989942625 0.504551053
v -0.211994037 -0.0986985788 0.509655356
v -0.213477075 -0.0750220418 0.507917285
v -0.2125673 -0.121167578 0.514570653
v -0.214559808 -0.0985618532 0.513520598
v -0.211439192 -0.12134254 0.518394113
v -0.216121525 -0.0749287307 0.511774659
v -0.216877162 -0.0511019491 0.509446442
v -0.201570198 -0.122967534 0.530831337
v -0.213439748 -0.0986119434 0.517380118
v -0.215026185 -0.0748482496 0.515642047
v -0.203503922 -0.0993839875 0.530015111
v -0.195691332 -0.100015894 0.538615048
v -0.215810508 -0.0509167053 0.513288915
v -0.215404704 -0.0276825428 0.5104298
v -0.205104709 -0.0747935921 0.528355241
v -0.197288975 -0.074798815 0.537014723
v -0.187754169 -0.0747756511 0.54531157
v -0.205964014 -0.0501772203 0.525931895
v -0.205673277 -0.0265157595 0.522825241
v -0.214041784 -0.0057418514 0.507239401
v -0.198194876 -0.049664095 0.534538567
v -0.204460964 -0.0043443311 0.519277215
v -0.202555552 0.0158019643 0.515529633
v -0.188687295 -0.0490970798 0.542780936
v -0.177560404 -0.0485074446 0.549243093
v -0.197994277 -0.025665937 0.53124702
v -0.196909487 -0.00328707462 0.527430654
v -0.188591853 -0.0247171093 0.539309442
v -0.195162833 0.0169898085 0.523380101
v -0.192976609 0.0346819796 0.519385815
v -0.177580103 -0.0237282161 0.545630991
v -0.165073067 -0.0227582175 0.548830152
v -0.187676653 -0.00205234578 0.535231888
v -0.186150476 0.0184805915 0.530882955
v -0.176881969 -0.000686317508 0.541349411
v -0.184222147 0.0364651047 0.52659744
v -0.182100445 0.0514845997 0.522709966
v -0.164644927 0.000764855067 0.544451714
v -0.151006803 0.00218979758 0.545129716
v -0.175650388 0.0202807691 0.536761642
v -0.163794428 0.0223967806 0.539739609
v -0.150566116 0.0246155076 0.540403128
v -0.149930611 0.0452625938 0.535669386
v -0.174069762 0.0388355851 0.532231212
v -0.172324449 0.0546406694 0.528121352
v -0.162667036 0.0418915823 0.535059273
v -0.161408231 0.0590032712 0.530776262
v 0.189458936 0.0590032153 0.530776262
v 0.200375125 0.054640606 0.528121352
v 0.198469102 0.0678338781 0.524075747
v 0.202120423 0.0388355292 0.532231212
v 0.207559943 0.0641295463 0.518946469
v 0.204223141 0.07499066 0.515032828
v 0.210151136 0.0514845289 0.522709966
v 0.215476274 0.0618245564 0.512201607
v 0.211057797 0.0731963217 0.508538425
v 0.212272808 0.0364650451 0.52659744
v 0.218623802 0.0493066236 0.515738547
v 0.214201152 0.01848053 0.530882955
v 0.203701064 0.0202807114 0.536761701
v 0.22102727 0.0346818976 0.519385815
v 0.22563003 0.0478785411 0.50840348
v 0.223213524 0.0169897452 0.523380041
v 0.224960163 -0.00328713842 0.527430654
v 0.230606243 0.0158018898 0.515529633
v 0.232511669 -0.00434439769 0.519277215
v 0.228236213 0.0333879068 0.511824429
v 0.222145393 0.0603596531 0.50500381
v 0.227328166 0.059459921 0.498576462
v 0.231006712 0.0469718948 0.50190109
v 0.238262236 -0.0051780371 0.512102962
v 0.233723953 -0.0265158266 0.522825241
v 0.240005389 0.0143091939 0.503892422
v 0.239565417 -0.02720768 0.515425682
v 0.239926293 -0.0506052487 0.518376768
v 0.243455365 -0.027682608 0.5104298
v 0.242092475 -0.00574192079 0.507239401
v 0.223741993 -0.100015953 0.538615048
v 0.231554598 -0.0993840545 0.530015111
v 0.23315537 -0.0747936592 0.528355241
v 0.23401472 -0.0501772873 0.525931895
v 0.243076861 -0.0748483166 0.515642047
v 0.237524986 -0.0988767743 0.522467136
v 0.229620889 -0.122967601 0.530831337
v 0.221867442 -0.124261193 0.539279163
v 0.212480322 -0.125635371 0.54737711
v 0.220130697 -0.146480381 0.538946569
v 0.210902631 -0.148619831 0.546825469
v 0.235556439 -0.121934697 0.523410678
v 0.239489838 -0.121342607 0.518394172
v 0.241490424 -0.0986120105 0.517380118
v 0.233604908 -0.143063396 0.523489118
v 0.227762774 -0.144563407 0.530723691
v 0.226388887 -0.163190588 0.529611945
v 0.209923774 -0.168509588 0.545159757
v 0.200272575 -0.150787205 0.553027987
v 0.218946531 -0.165619344 0.537556887
v 0.232067332 -0.16135484 0.522604585
v 0.199504077 -0.171729878 0.551141143
v 0.187870875 -0.175148726 0.554221511
v 0.217297152 -0.182157442 0.535229981
v 0.198840052 -0.189225078 0.548164308
v 0.208741337 -0.185320064 0.542514145
v 0.2244028 -0.179459944 0.527532995
v 0.187697783 -0.194149658 0.550959408
v 0.175175607 -0.199471697 0.551503658
v 0.206552908 -0.199066669 0.539022505
v 0.187762097 -0.208953261 0.546380877
v 0.197782338 -0.202759773 0.544174016
v 0.214164555 -0.196574122 0.532085836
v 0.176044345 -0.216257825 0.546415269
v 0.162181363 -0.223284125 0.545049489
v 0.196461633 -0.211032614 0.540235877
v 0.189266086 -0.218661234 0.540398002
v 0.201921985 -0.211001158 0.535540283
v 0.178040981 -0.227818474 0.539473951
v 0.164120197 -0.236521959 0.53751123
v 0.148230582 -0.244068712 0.534944654
v 0.181617752 -0.233055115 0.530466795
v 0.150733873 -0.251342028 0.52426827
v -0.155871868 0.109779842 0.496389717
v -0.152367786 0.107899532 0.505884111
v -0.139352009 0.119329832 0.502641201
v -0.163008943 0.0964376032 0.508596659
v -0.126347199 0.132635921 0.488023311
v -0.108937122 0.140659064 0.48457846
v -0.0905006379 0.146461904 0.48170349
v -0.107247122 0.13715668 0.496283263
v -0.0716892034 0.150439844 0.479361176
v -0.0705401301 0.146493509 0.491372854
v -0.0891194642 0.142697051 0.493630707
v -0.124224253 0.129493788 0.499297708
v -0.0878364965 0.134440452 0.504384637
v -0.052207984 0.148924679 0.489542484
v -0.0512767173 0.140101805 0.500355303
v -0.0694346726 0.137894154 0.502182722
v -0.105748758 0.129391715 0.506862223
v -0.122438021 0.122398868 0.509516716
v -0.104657546 0.115880296 0.514875174
v -0.0684839189 0.123031899 0.510290861
v -0.0868036523 0.120134465 0.512484848
v -0.0504439697 0.124875553 0.50844574
v -0.0859758109 0.101186827 0.518583179
v -0.0334294103 0.125968382 0.507102013
v -0.0340960585 0.141412556 0.499001235
v -0.0176483728 0.142054915 0.498082638
v -0.103879407 0.0978917181 0.520977259
v -0.103320278 0.0766953602 0.525823832
v -0.00168934255 0.142257437 0.497561723
v -0.00145109696 0.126669034 0.505713165
v 0.0140253725 0.14224878 0.497400701
v 0.0140253697 0.12666069 0.505565286
v 0.0295018181 0.126669049 0.505713165
v 0.0140253734 0.151293427 0.486522853
v 0.0297400672 0.142257422 0.497561723
v 0.0456990972 0.142054886 0.498082638
v 0.0299924314 0.151302323 0.486692756
v 0.0461960025 0.151077941 0.487232566
v 0.0302402806 0.155482322 0.47461471
v 0.0466871895 0.155246541 0.475167781
v 0.0628725886 0.150369078 0.488172442
v 0.0635980964 0.154502898 0.47612536
v 0.0642638654 0.15547885 0.464369744
v 0.0812050551 0.152988315 0.477514207
v 0.0802586973 0.148924634 0.489542484
v 0.0985908732 0.146493495 0.491372854
v 0.0820828974 0.153937057 0.465777516
v 0.0832994655 0.153066784 0.449206859
v 0.0997399464 0.150439799 0.479361176
v 0.10082151 0.151342839 0.467647672
v 0.118551373 0.146461874 0.48170349
v 0.1171702 0.142697021 0.493630707
v 0.13529785 0.137156636 0.496283263
v 0.10233783 0.15045844 0.451115161
v 0.136987865 0.140659034 0.48457846
v 0.10272152 0.148724824 0.447158813
v 0.102935649 0.144055605 0.445225984
v 0.122248612 0.144701391 0.449761897
v 0.103040218 0.134894818 0.44467935
v 0.103095338 0.119686477 0.444881618
v 0.12268085 0.131395981 0.447317481
v 0.1225283 0.140205219 0.44784832
v 0.12176501 0.146382615 0.453686625
v 0.142058864 0.134561494 0.451388687
v 0.122783065 0.116775587 0.447540909
v 0.122846641 0.0976666361 0.448341191
v 0.103113405 0.099866204 0.445652306
v 0.103106841 0.0768695846 0.44681102
v 0.14252694 0.112432115 0.451170564
v 0.122883342 0.0753916427 0.449540943
v 0.122904755 0.0512732603 0.450962782
v 0.142896175 0.0730506331 0.453326821
v 0.142722413 0.0943127349 0.452040017
v 0.142306775 0.12623848 0.450894684
v 0.162350684 0.0895042196 0.45701158
v 0.143190861 0.0257794857 0.456447512
v 0.163232893 0.0475615785 0.460156024
v 0.162803039 0.0695958659 0.45845139
v 0.163948908 0.000274067977 0.463779867
v 0.182261601 0.0647766739 0.465197355
v 0.183965951 0.0222737268 0.46924901
v 0.185097426 -0.0252400972 0.47345987
v 0.201603472 0.0406190865 0.47495687
v 0.20399943 -0.00251569389 0.479807794
v 0.202921703 0.0198544674 0.477365732
v 0.200153857 0.0593741275 0.472675055
v 0.219190359 0.0175003707 0.485308945
v 0.217366695 0.0370441005 0.482579947
v 0.181341752 0.0829406977 0.46351862
v 0.180449694 0.0980707258 0.462319374
v 0.161893591 0.106311888 0.456015199
v 0.161449417 0.119044162 0.455640823
v 0.179640174 0.10943497 0.461785674
v 0.161035836 0.126726329 0.456067085
v 0.160495818 0.130671188 0.457858264
v 0.141676396 0.138819307 0.453258753
v 0.141052619 0.140430033 0.45711118
v 0.159672216 0.132191479 0.461578727
v 0.138653979 0.141382769 0.473188013
v 0.119878836 0.147292629 0.470083445
v 0.156546086 0.13320975 0.477064639
v 0.154397935 0.132635862 0.488023311
v 0.152274996 0.129493743 0.499297708
v 0.150488749 0.122398823 0.509516716
v 0.167402729 0.119329788 0.502641201
v 0.170130104 0.121996835 0.492075354
v 0.165221587 0.113112777 0.512249291
v 0.164036021 0.102089889 0.519634664
v 0.177773386 0.102885626 0.514506698
v 0.176724777 0.0934228376 0.521247983
v 0.180418491 0.10789948 0.505884111
v 0.187377527 0.0851373225 0.521546066
v 0.176731274 0.0802188069 0.526654959
v 0.191059649 0.0964375511 0.508596659
v 0.187919602 0.0930693671 0.515735745
v 0.188276336 0.0734968185 0.526426554
v 0.19455035 0.0856970102 0.515826285
v 0.196406275 0.0785532892 0.519737959
v 0.199077457 0.0853369609 0.511429369
v -0.047148332 -0.160805851 0.540039361
v -0.0308749489 -0.161112621 0.538070679
v -0.0307607744 -0.131830707 0.537699759
v -0.0154415378 -0.161278188 0.536900043
v -0.0470328815 -0.1316185 0.53978914
v -0.0470595323 -0.102768935 0.538719118
v -0.0644564852 -0.131291866 0.542919397
v -0.0645224005 -0.102534629 0.541963398
v -0.0311433617 -0.190606132 0.537478268
v -0.0156418532 -0.190848961 0.536372781
v -0.000674681156 -0.190939248 0.535836816
v -0.0159492157 -0.218579575 0.534217715
v -0.000835758692 -0.218702391 0.533689737
v 0.0140253175 -0.218709007 0.533556521
v -0.00104784814 -0.242544964 0.529248476
v -0.00130745512 -0.260378242 0.521858335
v -0.0163596403 -0.242385268 0.529777467
v -0.0168690924 -0.260181308 0.522394657
v -0.0321486853 -0.241932929 0.530787945
v -0.0315674543 -0.218237489 0.535268664
v -0.0174735729 -0.269882947 0.511411786
v -0.0479428507 -0.217573106 0.536970854
v -0.0328884944 -0.2596187 0.523382246
v -0.0474463776 -0.190141514 0.539312541
v -0.0181081668 -0.273671597 0.498647958
v -0.0187079944 -0.273728848 0.485922456
v -0.0356575809 -0.272911042 0.486940891
v -0.0648180619 -0.189385846 0.542034686
v -0.0347455554 -0.272923857 0.499646485
v -0.0337883197 -0.269221067 0.512397647
v -0.0520677269 -0.271452099 0.501133144
v -0.0495945364 -0.258514553 0.524891376
v -0.0486536212 -0.241048247 0.532376409
v -0.0661130771 -0.239591584 0.534639478
v -0.0507814586 -0.26791966 0.513877928
v -0.0686791018 -0.265770584 0.515908003
v -0.0672161132 -0.256693095 0.526992381
v -0.0653277934 -0.216483399 0.539452493
v -0.0533066839 -0.271300405 0.488454163
v -0.0550560914 -0.268698841 0.470482081
v -0.0718884841 -0.268638313 0.490510821
v -0.0703029335 -0.269020259 0.503157258
v -0.0732366368 -0.266820908 0.479739517
v -0.074148275 -0.265764207 0.472614199
v -0.0889646113 -0.265363514 0.505702853
v -0.0926245451 -0.262679666 0.482521504
v -0.0909368247 -0.264698058 0.493173331
v -0.0869696736 -0.262484282 0.518385112
v -0.0937660038 -0.26150009 0.475472361
v -0.0852138028 -0.253868639 0.52949506
v -0.0944781899 -0.259246945 0.471163779
v -0.0747158602 -0.26350227 0.468255997
v -0.0750318617 -0.258069128 0.465786099
v -0.0948781371 -0.254007906 0.468733549
v -0.0950828418 -0.243870586 0.467319518
v -0.114830144 -0.248522565 0.472647071
v -0.114335313 -0.253509313 0.475005448
v -0.115098 -0.238941237 0.471316129
v -0.115289211 -0.222930208 0.47018674
v -0.134797066 -0.232550308 0.476522714
v -0.135094762 -0.217690066 0.475608706
v -0.13444528 -0.241453111 0.477719933
v -0.154202044 -0.211044058 0.482556611
v -0.135350853 -0.198238865 0.474840283
v -0.153742909 -0.224537313 0.483146429
v -0.154669613 -0.193256825 0.482172906
v -0.155156836 -0.172272712 0.481792182
v -0.172233522 -0.187829137 0.49018684
v -0.171223789 -0.203827068 0.489998579
v -0.173129871 -0.168635175 0.490290433
v -0.174021423 -0.147083059 0.490073711
v -0.188396394 -0.165148094 0.49856782
v -0.189656451 -0.145023763 0.498708725
v -0.191087157 -0.122908644 0.498146653
v -0.175016761 -0.124010719 0.489300966
v -0.175947919 -0.0998965651 0.488049209
v -0.192443445 -0.0994210541 0.496974289
v -0.193480223 -0.0751793012 0.495284408
v -0.176646933 -0.0752190128 0.486395389
v -0.17694585 -0.0504564643 0.484416425
v -0.19361499 -0.026906509 0.490722835
v -0.206839651 -0.0510542691 0.500608861
v -0.206448197 -0.0275525339 0.497984201
v -0.205243245 -0.00515395589 0.495098293
v -0.213763103 -0.0278803315 0.502897143
v -0.214184061 -0.0511510819 0.505627096
v -0.212434322 -0.00579593843 0.499878526
v -0.210417837 0.0145159177 0.49672243
v -0.215074942 -0.00596988061 0.503545046
v -0.216451377 -0.0279152263 0.506649673
v -0.212978616 0.0141327661 0.500293434
v -0.210393175 0.0317914002 0.49705556
v -0.211954713 0.0143092526 0.503892422
v -0.209376454 0.0318747088 0.500563681
v -0.205701336 0.0324849598 0.50514102
v -0.206539989 0.0463584214 0.497427851
v -0.208196804 0.0149105983 0.508608222
v -0.202956006 0.0469719581 0.50190109
v -0.199277446 0.0594599843 0.498576462
v -0.197579354 0.0478785969 0.50840348
v -0.194094703 0.060359709 0.50500381
v -0.200185522 0.0333879739 0.511824429
v -0.187425569 0.0618246272 0.512201607
v -0.189089239 0.0719171837 0.501362562
v -0.190573126 0.0493066944 0.515738547
v -0.187311143 0.0541693978 0.479994923
v -0.201634765 0.0601793081 0.487576753
v -0.172103167 0.0593741834 0.472675055
v -0.198716864 0.0499434583 0.486267269
v -0.173552781 0.0406191424 0.47495687
v -0.15591526 0.0222737882 0.46924901
v -0.135182187 0.0475616232 0.460156024
v -0.135898232 0.00027411335 0.463779867
v -0.15704675 -0.0252400506 0.47345987
v -0.175948724 -0.0025156457 0.479807794
v -0.191139653 0.0175004229 0.485308945
v -0.201180637 0.0341420062 0.489100397
v -0.205202296 0.0474774539 0.490602493
v -0.207933798 0.0324691124 0.493580043
v -0.203756765 0.0589505546 0.490782917
v -0.207549378 0.0464046746 0.49399218
v -0.198324859 0.0704069361 0.487107366
v -0.197249442 0.0704411864 0.49036631
v -0.20273456 0.0588505194 0.49414283
v -0.189373866 0.0822205618 0.485756159
v -0.178397074 0.0952787772 0.479970127
v -0.186387062 0.0827925056 0.490425318
v -0.164795294 0.108622372 0.473610401
v -0.162665009 0.109113671 0.479033321
v -0.193982258 0.0710373744 0.494855165
v -0.17194657 0.0966047719 0.492303222
v -0.181920648 0.0836369321 0.497216672
v -0.176594064 0.0845522657 0.504696071
v -0.15949741 0.109842032 0.48703295
v -0.144903541 0.122369952 0.4818165
v -0.128495365 0.13320978 0.477064639
v -0.142079368 0.12199688 0.492075354
v -0.16746287 0.0970225185 0.500621557
v 0.0479139537 -0.263419598 0.460946441
v 0.0839035138 -0.249986425 0.462127447
v 0.122928746 -0.254007936 0.468733549
v 0.0655629784 -0.251493871 0.460517615
v 0.0479690097 -0.252261609 0.459439963
v 0.030845752 -0.263718635 0.460347861
v 0.0307901874 -0.269425988 0.462861985
v 0.0140252812 -0.269435108 0.462681174
v 0.030872738 -0.252529889 0.458838344
v 0.0656131729 -0.232994497 0.459134877
v 0.0308888126 -0.233824417 0.457441598
v 0.0480016544 -0.233607545 0.458046943
v 0.0140252933 -0.252539188 0.45865652
v 0.0140253017 -0.263727874 0.460166365
v -0.00279514934 -0.263718635 0.460347861
v -0.00263776723 -0.27168721 0.46727255
v -0.0027395864 -0.269425988 0.462861985
v -0.00282213185 -0.252529889 0.458838344
v -0.0197503064 -0.269113362 0.463457137
v -0.0192081574 -0.272236139 0.475054353
v -0.0195437521 -0.271374941 0.467862844
v -0.0198633522 -0.263419569 0.460946441
v -0.036935553 -0.270473957 0.468915522
v -0.019918425 -0.252261579 0.459439963
v -0.037427038 -0.262559235 0.462016255
v -0.0372526944 -0.26821208 0.464519382
v -0.0364217907 -0.271366417 0.476093173
v -0.0554925986 -0.266436815 0.466101438
v -0.0557339601 -0.260866225 0.463611454
v -0.0558528751 -0.249986425 0.462127447
v -0.0375123881 -0.251493871 0.460517615
v 0.243861154 -0.0509167686 0.513288915
v 0.243125618 -0.00596994022 0.503545046
v 0.244927809 -0.0511020161 0.509446442
v 0.244502053 -0.0279152915 0.506649673
v 0.241029292 0.0141326971 0.500293434
v 0.244172201 -0.0749287978 0.511774659
v 0.241813809 -0.0278804004 0.502897143
v 0.242610469 -0.0985619202 0.513520598
v 0.241527766 -0.0750221089 0.507917285
v 0.242234752 -0.0511511527 0.505627096
v 0.240485013 -0.00579600688 0.499878526
v 0.240044728 -0.0986986458 0.509655356
v 0.238137484 -0.121386126 0.510728955
v 0.234890386 -0.0510543399 0.500608861
v 0.232952714 -0.0989943296 0.504551053
v 0.234498918 -0.027552601 0.497984201
v 0.23124519 -0.121974371 0.505658031
v 0.229459465 -0.143322319 0.506048679
v 0.219137818 -0.122908711 0.498146653
v 0.217707112 -0.145023823 0.498708725
v 0.202072084 -0.147083104 0.490073711
v 0.203067407 -0.124010772 0.489300996
v 0.184285969 -0.125102222 0.480227172
v 0.220494062 -0.0994211212 0.496974289
v 0.203998581 -0.0998966247 0.488049239
v 0.22153087 -0.0751793608 0.495284408
v 0.184795901 -0.100338459 0.478899866
v 0.164215818 -0.100664228 0.470650285
v 0.204697609 -0.0752190724 0.486395389
v 0.185162842 -0.075223133 0.477289468
v 0.164317906 -0.0751842707 0.469090253
v 0.164319664 -0.0497408025 0.467395663
v 0.204996556 -0.0504565239 0.484416425
v 0.222003073 -0.0508017465 0.493169665
v 0.22166568 -0.0269065723 0.490722835
v 0.233293921 -0.0051540127 0.495098293
v 0.238468513 0.0145158591 0.49672243
v 0.229231328 0.0341419242 0.489100397
v 0.238443851 0.0317913219 0.49705556
v 0.235984489 0.0324690454 0.493580043
v 0.22676757 0.049943395 0.486267269
v 0.233253017 0.0474773869 0.490602523
v 0.23742713 0.0318746418 0.500563681
v 0.234590709 0.0463583469 0.497427881
v 0.235600069 0.0464046076 0.49399218
v 0.23078531 0.058850456 0.49414283
v -0.165361419 -0.222375169 0.532922864
v -0.15356715 -0.233055055 0.530466795
v -0.149990365 -0.227818429 0.539473951
v -0.157907903 -0.233880088 0.520494163
v -0.15971148 -0.208953217 0.546380877
v -0.161215454 -0.218661189 0.540398002
v -0.147125021 -0.199471653 0.551503658
v -0.159647182 -0.194149598 0.550959408
v -0.168410987 -0.211032555 0.540235877
v -0.169731721 -0.202759713 0.544174016
v -0.17069371 -0.22219713 0.524546742
v -0.170789421 -0.189225018 0.548164308
v -0.173871338 -0.211001098 0.535540283
v -0.178502277 -0.199066624 0.539022505
v -0.180321798 -0.209657818 0.528424621
v -0.175756618 -0.220229 0.515860796
v -0.162196457 -0.232205987 0.510656714
v -0.186113924 -0.196574062 0.532085836
v -0.186157733 -0.207368329 0.520620584
v -0.192657441 -0.193982214 0.524523616
v -0.189246491 -0.182157382 0.535229981
v -0.180690721 -0.18532002 0.542514145
v -0.181873143 -0.168509528 0.545159757
v -0.196352154 -0.179459885 0.527532995
v -0.171453431 -0.171729818 0.551141143
v -0.159820244 -0.175148666 0.554221511
v -0.146931857 -0.178558648 0.554952145
v -0.132746577 -0.181752369 0.553884387
v -0.172221944 -0.150787145 0.553027987
v -0.147300854 -0.15460214 0.556965411
v -0.16038388 -0.152787954 0.556221902
v -0.1908959 -0.165619269 0.537556887
v -0.132935926 -0.156209663 0.55581671
v -0.117252141 -0.157590479 0.553334117
v -0.133469388 -0.129316539 0.55651623
v -0.117538027 -0.129863143 0.553888917
v -0.117987789 -0.10181731 0.553316355
v -0.13418968 -0.101716258 0.55604589
v -0.134939551 -0.0740521327 0.55446887
v -0.1481186 -0.128685519 0.557748199
v -0.149148837 -0.10163112 0.55734694
v -0.161491275 -0.127905026 0.557015359
v -0.150155336 -0.0742613003 0.555808067
v -0.150901869 -0.0473983958 0.553178012
v -0.135561734 -0.046967458 0.551848173
v -0.135898948 -0.0211055316 0.54824698
v -0.162828192 -0.101480238 0.556637406
v -0.164080292 -0.0744939297 0.555123508
v -0.151152208 -0.0218647681 0.549503267
v -0.164933354 -0.0479264706 0.552509248
v -0.175190702 -0.101181924 0.55333513
v -0.176638544 -0.0746865422 0.551822305
v -0.173593089 -0.126909986 0.55374819
v -0.18442966 -0.125635326 0.54737711
v -0.186199337 -0.100654505 0.546858072
v -0.182851985 -0.148619771 0.546825469
v -0.192080036 -0.146480322 0.538946569
v -0.193816766 -0.124261126 0.539279163
v -0.19833824 -0.163190514 0.529611945
v -0.199712127 -0.144563332 0.530723691
v -0.201790228 -0.177392766 0.52069664
v -0.204016671 -0.161354765 0.522604585
v -0.197772264 -0.191761106 0.517704964
v 0.111178964 -0.214803264 0.542375028
v 0.112009391 -0.237324908 0.53730768
v 0.129673079 -0.234010115 0.540111721
v 0.113264427 -0.253868669 0.52949506
v 0.128801107 -0.212367579 0.545399725
v 0.128369093 -0.186661318 0.548559129
v 0.145650998 -0.209011212 0.548188031
v 0.145273313 -0.18452242 0.551569581
v 0.131098822 -0.249755755 0.532209218
v 0.146586493 -0.229409203 0.542782128
v 0.160797209 -0.181752414 0.553884387
v 0.145302773 -0.157590508 0.553334117
v 0.161134571 -0.204569072 0.55040127
v 0.160986558 -0.156209707 0.55581671
v 0.161520019 -0.129316583 0.55651623
v 0.175351501 -0.1546022 0.556965411
v 0.176169246 -0.128685579 0.557748199
v 0.174982488 -0.178558707 0.554952145
v 0.189541921 -0.127905086 0.557015359
v 0.177199483 -0.101631165 0.55734694
v 0.188434526 -0.152788013 0.556221902
v 0.190878838 -0.10148029 0.556637406
v 0.192130953 -0.0744939819 0.555123508
v 0.203241378 -0.101181976 0.55333513
v 0.20164375 -0.126910046 0.55374819
v 0.204689205 -0.0746866018 0.551822305
v 0.20561105 -0.0485075042 0.549243093
v 0.215804845 -0.0747757107 0.54531157
v 0.214250013 -0.100654565 0.546858013
v 0.216737971 -0.0490971394 0.542780936
v 0.216642529 -0.0247171707 0.539309442
v 0.205630749 -0.0237282757 0.545630991
v 0.226245537 -0.0496641584 0.534538567
v 0.204932615 -0.000686375191 0.541349411
v 0.225339636 -0.0747988746 0.537014723
v 0.215727314 -0.00205240678 0.535231888
v 0.226044923 -0.0256660003 0.53124702
v -0.0375625715 -0.232994482 0.459134877
v -0.019951053 -0.233607531 0.458046943
v -0.00283820019 -0.233824432 0.457441598
v 0.0140253063 -0.233833835 0.457259595
v -0.0199668761 -0.209602714 0.456732869
v 0.0140253194 -0.209767908 0.455941856
v -0.00284623215 -0.209758386 0.456123948
v -0.0375857092 -0.209173858 0.457831293
v 0.0308968611 -0.209758371 0.456123948
v 0.0480174944 -0.209602714 0.456732869
v 0.0656363368 -0.209173873 0.457831293
v 0.0480213687 -0.15412204 0.454203904
v 0.0140253184 -0.154178724 0.453408748
v 0.0309004132 -0.154168978 0.45359087
v 0.0840024278 -0.208344772 0.459481895
v 0.0839727148 -0.231796682 0.460764796
v 0.103329599 -0.229825437 0.462995946
v 0.103239357 -0.24749884 0.464325696
v 0.123133428 -0.243870616 0.467319518
v 0.103364959 -0.206988364 0.461747289
v 0.123259939 -0.226922661 0.466059566
v 0.12332096 -0.204953015 0.464888275
v 0.103318043 -0.153580859 0.459294707
v 0.0839843154 -0.153845683 0.456989199
v 0.0656340495 -0.154020175 0.455314487
v 0.0656151101 -0.100570865 0.452717125
v 0.123297125 -0.153104246 0.462550342
v 0.143544286 -0.178009272 0.468159646
v 0.143467382 -0.202087075 0.469165683
v 0.143339828 -0.222930253 0.47018674
v 0.163401484 -0.198238909 0.474840283
v 0.143148616 -0.238941282 0.471316129
v 0.142880753 -0.248522609 0.472647071
v 0.162847683 -0.232550353 0.476522714
v 0.142385945 -0.253509343 0.475005448
v 0.161893561 -0.246127829 0.479961663
v 0.162495896 -0.241453156 0.477719933
v 0.163145378 -0.21769011 0.475608706
v 0.18133153 -0.232639566 0.484145492
v 0.182252675 -0.211044103 0.482556611
v 0.181793511 -0.224537373 0.483146429
v 0.160844266 -0.248303682 0.484009087
v 0.179362014 -0.239031449 0.490008712
v 0.180607438 -0.236940861 0.486213148
v 0.177336067 -0.240501493 0.496191531
v 0.193881333 -0.229758054 0.502248049
v 0.197596297 -0.226369098 0.493009359
v 0.196259171 -0.228261456 0.496561766
v 0.208001494 -0.217824012 0.508228719
v 0.210727856 -0.216335297 0.503014028
v 0.218910679 -0.205043629 0.513569117
v 0.214208364 -0.207368389 0.520620584
v 0.220708072 -0.193982288 0.524523616
v 0.221960217 -0.203594536 0.508711219
v 0.225822926 -0.191761151 0.517704964
v 0.229840904 -0.177392825 0.52069664
v 0.229148448 -0.190380752 0.512999058
v 0.222974792 -0.202550784 0.505327463
v 0.233394012 -0.176121309 0.515994489
v 0.235798419 -0.160243556 0.517814279
v 0.211928904 -0.21483314 0.499599785
v 0.234373391 -0.175757602 0.51240778
v 0.237463191 -0.14217487 0.518575191
v 0.238570005 -0.141912237 0.514811039
v 0.236842006 -0.159961998 0.514128208
v 0.230103672 -0.189739734 0.509535491
v 0.234458029 -0.160615414 0.510433614
v 0.228107527 -0.189736754 0.506443799
v 0.232090384 -0.176413924 0.508917809
v 0.240617961 -0.121167645 0.514570653
v 0.221572235 -0.201442018 0.5026986
v 0.211547241 -0.212387815 0.497369081
v 0.236157969 -0.142289922 0.511025846
v 0.198108405 -0.222733796 0.491002321
v 0.198449671 -0.215753734 0.490134239
v 0.21127975 -0.20705089 0.496433049
v 0.199274421 -0.203827113 0.489998579
v 0.218792498 -0.200187713 0.500692666
v 0.212823287 -0.196873993 0.496902794
v 0.222550556 -0.191679075 0.502605677
v 0.225849077 -0.178554624 0.504443884
v 0.227906421 -0.162309051 0.505617797
v 0.214953721 -0.182644084 0.497905374
v 0.216447026 -0.165148154 0.498567849
v 0.200284138 -0.187829196 0.49018684
v 0.182720229 -0.193256885 0.482172906
v 0.201180518 -0.168635219 0.490290433
v 0.183207467 -0.172272757 0.481792182
v 0.163839012 -0.151029706 0.473189324
v 0.183725625 -0.149188846 0.481211305
v 0.143583477 -0.152294353 0.467075437
v 0.14359796 -0.126539841 0.465819806
v 0.164045483 -0.126004696 0.472031415
v 0.123237796 -0.126802951 0.461253017
v 0.103259303 -0.126889274 0.45799166
v 0.123163417 -0.100783132 0.459870458
v 0.143588066 -0.100791544 0.464424521
v 0.083926186 -0.100610062 0.454368889
v -0.183007076 0.0731963739 0.508538425
v -0.176172435 0.0749907196 0.515032828
v -0.179509252 0.0641296059 0.518946528
v -0.171026751 0.085337013 0.511429369
v -0.170418397 0.0678339377 0.524075747
v -0.16649963 0.0856970847 0.515826285
v -0.168355584 0.0785533413 0.519737959
v -0.159868881 0.0930694193 0.515735745
v -0.159326822 0.0851373971 0.521546066
v -0.14972268 0.102885693 0.514506698
v -0.137170851 0.11311283 0.512249291
v -0.148674071 0.0934228897 0.521247983
v -0.1359853 0.102089934 0.519634664
v -0.12129996 0.10996642 0.517309248
v -0.120644949 0.0932788327 0.523321271
v -0.135532826 0.0871003568 0.525416851
v -0.148680568 0.0802188516 0.526654959
v -0.135550976 0.0689833462 0.530215263
v -0.120307826 0.0734184459 0.52819854
v -0.120123468 0.0514675602 0.532587051
v -0.102482751 0.0297565255 0.534371436
v -0.16022563 0.0734968707 0.526426554
v -0.149200752 0.0639812201 0.531274378
v -0.119926736 0.0285085291 0.537132621
v -0.135949045 0.0267238095 0.539338648
v -0.119692266 0.0045153047 0.541575968
v -0.102098346 0.00519302906 0.538525879
v -0.0838459209 0.00558858691 0.535203576
v -0.101720899 -0.02022033 0.542331755
v -0.0834680796 -0.0200897921 0.538692176
v -0.0831263661 -0.0466021225 0.541711152
v -0.119394697 -0.0205381662 0.545657635
v -0.101338483 -0.0465739332 0.545587242
v -0.136008829 0.00347707211 0.543974161
v -0.119008683 -0.0466778912 0.54911834
v -0.10093914 -0.0739581436 0.548090518
v -0.0951127335 -0.100783102 0.459870458
v -0.0949681178 -0.0493336767 0.456938237
v -0.0750785619 -0.0748676434 0.455242723
v -0.0752086565 -0.126889259 0.45799166
v -0.0951871425 -0.126802921 0.461253017
v -0.115503453 -0.0750951692 0.462921351
v -0.0948926657 0.00158144592 0.453924596
v -0.075008668 -0.0236577876 0.452404082
v -0.115537405 -0.100791506 0.464424521
v -0.115547314 -0.126539811 0.465819806
v -0.0952464938 -0.153104216 0.462550342
v -0.0752674043 -0.153580844 0.459294707
v -0.0559336767 -0.153845668 0.456989199
v -0.0559518263 -0.208344758 0.459481895
v -0.0559221022 -0.231796682 0.460764796
v -0.0753143355 -0.206988335 0.461747289
v -0.0752789825 -0.229825422 0.462995946
v -0.0751887485 -0.24749881 0.464325696
v -0.095270291 -0.204952985 0.464888275
v -0.0952093229 -0.226922631 0.466059536
v -0.115493655 -0.178009227 0.468159646
v -0.115416773 -0.20208703 0.469165683
v -0.115532845 -0.152294308 0.467075437
v -0.135788366 -0.151029661 0.473189324
v -0.135994822 -0.126004651 0.472031385
v -0.136165157 -0.100664183 0.470650256
v -0.156235307 -0.125102162 0.480227172
v -0.155674979 -0.149188802 0.481211305
v -0.136267245 -0.075184226 0.469090253
v -0.15674524 -0.100338407 0.478899866
v -0.157112181 -0.0752230808 0.477289468
v -0.136269003 -0.0497407578 0.467395663
v -0.115364701 -0.0240414962 0.459718496
v -0.115140177 0.0257795155 0.456447512
v -0.0750187933 0.0270897858 0.449570566
v -0.0558226444 0.00188034808 0.448913515
v -0.0948540568 0.0512732752 0.450962782
v -0.0558583178 0.0777351335 0.444854319
v -0.0375520363 -0.0236222316 0.448717266
v -0.0199954808 0.0784762651 0.442381233
v -0.019970458 -0.074739337 0.450303406
v -0.00286994269 0.0785424635 0.441802114
v -0.0375815183 0.0782389268 0.443388164
v -0.0750561282 0.0768696144 0.44681102
v -0.0828095973 -0.0740869194 0.544119179
v -0.0646994337 -0.0742663816 0.5402596
v -0.0825604945 -0.102269351 0.545796633
v -0.11850886 -0.0739299133 0.551698685
v -0.100580171 -0.102015957 0.549740493
v -0.0824217573 -0.130874574 0.546623886
v -0.100318871 -0.130390421 0.55043596
v -0.0824360773 -0.15962778 0.546481192
v -0.0645416975 -0.160316229 0.542989254
v -0.100318469 -0.186661288 0.548559129
v -0.100212544 -0.158724517 0.550075889
v -0.0831283256 -0.214803249 0.542375028
v -0.0839587823 -0.237324864 0.53730768
v -0.100750506 -0.212367535 0.545399725
v -0.101622477 -0.234010071 0.540111721
v -0.117600374 -0.209011152 0.548188031
v -0.103048228 -0.249755725 0.532209218
v -0.117222689 -0.184522375 0.551569581
v -0.118535899 -0.229409143 0.542782128
v -0.105141595 -0.257771283 0.521206141
v -0.120179959 -0.244068652 0.534944654
v -0.10756617 -0.260216951 0.508754015
v -0.125621051 -0.253315657 0.512294769
v -0.122683264 -0.251341999 0.52426827
v -0.139083102 -0.242906973 0.527468503
v -0.134130776 -0.223284066 0.545049489
v -0.136069596 -0.236521915 0.53751123
v -0.133083984 -0.204569027 0.55040127
v -0.147993758 -0.216257781 0.546415269
v -0.142642662 -0.244394824 0.516309202
v 0.143554121 -0.0750952065 0.462921351
v 0.103129216 -0.0748676658 0.455242723
v 0.123018801 -0.0493337065 0.456938237
v 0.048020497 -0.100566082 0.451617926
v 0.0838772729 -0.0491895825 0.451651514
v 0.0309035033 -0.100577652 0.451008618
v 0.0140253324 -0.126967698 0.452125877
v 0.0480461791 0.0784762576 0.442381233
v 0.0656150505 0.027405357 0.446045369
v -0.00284977653 -0.154168978 0.45359087
v -0.0199707244 -0.154122025 0.454203904
v -0.0199700352 -0.126936764 0.452920109
v -0.00285284175 -0.100577645 0.451008588
v -0.0375742316 -0.126912713 0.454027683
v -0.0375834107 -0.15402016 0.455314487
v 0.0140253436 0.0785327703 0.441619545
v 0.0309206303 0.078542456 0.441802114
v -0.0558755174 -0.10061004 0.454368889
v -0.0558266193 -0.0491895638 0.451651514
v -0.0559062399 -0.126894102 0.455696315
v -0.0558617674 0.101211853 0.443710685
v -0.0199959949 0.102385364 0.44125101
v -0.0375830531 0.102003813 0.4422535
v -0.0750626922 0.0998662263 0.445652306
v -0.0375709645 0.122587189 0.441495895
v -0.00287005655 0.102499731 0.440673351
v -0.0558463782 0.121508978 0.442948133
v -0.0750446245 0.119686507 0.444881618
v -0.0947959498 0.0976666659 0.448341191
v -0.094832629 0.07539168 0.449540943
v -0.11484547 0.0730506778 0.453326821
v -0.114671685 0.0943127722 0.452040017
v -0.0947323516 0.116775617 0.447540879
v -0.114476219 0.112432159 0.451170564
v -0.134752348 0.0695959106 0.45845139
v -0.0946301147 0.131396011 0.447317481
v -0.0749894977 0.134894848 0.44467935
v -0.0558027849 0.137113109 0.442750543
v -0.0748849139 0.144055635 0.445225984
v -0.114256047 0.126238525 0.450894684
v -0.0375385657 0.138428926 0.441301197
v -0.0944775641 0.140205264 0.44784832
v -0.0557216145 0.14651078 0.443301648
v -0.0199662168 0.139072612 0.440302759
v -0.0199876837 0.123112015 0.440495878
v -0.00286580576 0.123274229 0.439919084
v -0.00285511534 0.139274552 0.439726591
v 0.0140253529 0.139265075 0.439544082
v 0.0140253501 0.123264685 0.439736485
v 0.0140253566 0.102490112 0.440490723
v 0.0309165251 0.123274207 0.439919084
v 0.0309207514 0.102499731 0.440673351
v 0.0309058409 0.139274552 0.439726591
v 0.0480467007 0.10238535 0.44125101
v 0.0656322315 0.0782389119 0.443388194
v 0.0839090198 0.0777351111 0.444854319
v 0.0838733241 0.00188033632 0.448913544
v 0.103059359 -0.0236578099 0.452404082
v 0.103069492 0.0270897597 0.449570566
v 0.122943349 0.00158142229 0.453924596
v 0.143415391 -0.0240415353 0.459718496
v 0.0839124694 0.101211838 0.443710685
v 0.0656337813 0.102003798 0.4422535
v 0.0656216815 0.122587174 0.441495895
v 0.0480383933 0.123112001 0.440495878
v 0.0480169505 0.139072612 0.440302759
v 0.0838971063 0.121508956 0.442948163
v 0.0655892864 0.138428912 0.441301227
v 0.0308865905 0.14890939 0.440283149
v 0.0479780287 0.148683652 0.440858543
v 0.0140253538 0.148899972 0.440100789
v 0.0434921794 -0.161278218 0.536900043
v 0.0436924994 -0.190848976 0.536372781
v 0.0591940098 -0.190606147 0.537478268
v 0.0759934708 -0.217573121 0.536970854
v 0.0933784097 -0.216483429 0.539452493
v 0.0928687006 -0.189385861 0.542034686
v 0.110696793 -0.188254133 0.545248866
v 0.110486701 -0.15962781 0.546481192
v 0.128263175 -0.158724561 0.550075889
v 0.12836951 -0.13039045 0.55043596
v 0.145588666 -0.129863173 0.553888917
v 0.146038428 -0.101817355 0.553316355
v 0.162240326 -0.101716302 0.55604589
v 0.162990198 -0.0740521774 0.55446887
v 0.146559522 -0.073929958 0.551698685
v 0.147059321 -0.0466779321 0.54911834
v 0.163612396 -0.0469675027 0.551848173
v 0.163949609 -0.02110558 0.54824698
v 0.178952545 -0.047398448 0.553178012
v 0.178205982 -0.074261345 0.555808067
v 0.17920287 -0.021864824 0.549503326
v 0.179057464 0.00218974776 0.545129716
v 0.16405952 0.00347702671 0.543974161
v 0.193123728 -0.0227582715 0.548830152
v 0.192984 -0.0479265265 0.552509248
v 0.163999736 0.0267237648 0.539338648
v 0.178616792 0.0246154591 0.540403128
v 0.192695603 0.000764801051 0.544451714
v 0.191845104 0.0223967284 0.539739609
v 0.177981332 0.0452625267 0.535669386
v 0.163601696 0.0689833015 0.530215263
v 0.148174167 0.051467523 0.532587051
v 0.148358554 0.0734184012 0.52819854
v 0.190717727 0.0418915264 0.535059273
v 0.177251458 0.0639811754 0.531274378
v 0.148695663 0.0932787955 0.523321271
v 0.131370991 0.0766953081 0.525823832
v 0.163583562 0.0871003121 0.525416851
v 0.131930128 0.0978916809 0.520977259
v 0.114026517 0.101186782 0.518583179
v 0.132708281 0.115880243 0.514875174
v 0.149350703 0.109966375 0.517309308
v 0.114854388 0.120134436 0.512484848
v 0.096534647 0.123031877 0.510290861
v 0.0957244709 0.10341192 0.516337335
v 0.115887232 0.134440422 0.504384637
v 0.133799478 0.12939167 0.506862223
v 0.0777635574 0.104814917 0.514438093
v 0.078494668 0.124875531 0.50844574
v 0.0974854082 0.137894124 0.502182722
v 0.0793274492 0.14010179 0.500355303
v 0.0614801124 0.125968367 0.507102013
v 0.0608833618 0.1056436 0.513083696
v 0.0603672042 0.0820452496 0.517555296
v 0.0448137224 0.106045634 0.512205124
v 0.0444475599 0.0823106989 0.516668677
v 0.0621467829 0.141412541 0.499001235
v 0.0452346206 0.126502231 0.506208301
v 0.0290947482 0.0823879018 0.516207933
v 0.0441472717 0.0569231212 0.52019453
v 0.029284453 0.10616868 0.511733234
v 0.0289394744 0.0569582731 0.519723475
v 0.0288254265 0.0315113217 0.522865891
v 0.0140253669 0.106160477 0.511598945
v 0.0140253594 0.0569489412 0.519602954
v 0.0140253631 0.0823794678 0.516084075
v -0.00104403077 0.0823879242 0.516207933
v 0.0140253557 0.0315002501 0.52273798
v 0.014025352 0.00582079729 0.525548697
v 0.0287431479 0.00583387958 0.525689185
v -0.000774724933 0.0315113142 0.522865891
v 0.0286832061 -0.0202872436 0.528247476
v 0.0140253473 -0.0203019474 0.528094649
v 0.0140253436 -0.0470805541 0.530435324
v -0.000632510229 -0.0202872436 0.528247476
v -0.000692454865 0.00583387492 0.525689185
v -0.000888775103 0.0569582768 0.519723475
v -0.0157097597 0.00585472491 0.526257098
v -0.0160965752 0.0569231287 0.52019453
v -0.0158733241 0.0315085612 0.523378253
v -0.000585455855 -0.0470652021 0.530594766
v -0.00054184685 -0.0747131854 0.532785058
v 0.0140253389 -0.0747275725 0.532630324
v -0.0154922009 -0.0470197648 0.531249404
v -0.0155885061 -0.0202506259 0.528868377
v -0.0315689817 0.0314559564 0.524403751
v -0.0311407875 -0.0201996025 0.530119538
v -0.0313260853 0.00586497784 0.527398705
v -0.0318917073 0.0567803681 0.521125615
v -0.0478409417 0.00584628433 0.529260397
v -0.0309908371 -0.0469448455 0.532575369
v -0.048160214 0.0313175395 0.526071191
v -0.0485678613 0.0564668626 0.5226264
v -0.0323165059 0.0820452645 0.517555237
v -0.0163968522 0.0823107064 0.516668677
v -0.0167629998 0.106045619 0.512205124
v -0.00123372895 0.106168687 0.511733234
v -0.0328326486 0.105643615 0.513083696
v -0.0490864366 0.0814890191 0.51895684
v -0.0497128442 0.104814939 0.514438093
v -0.0171838999 0.126502231 0.506208301
v -0.0669900551 0.0805394202 0.520962477
v -0.0664186925 0.0559194945 0.52480638
v -0.0659455508 0.0310573075 0.528509259
v -0.0847546309 0.0549976043 0.527382076
v -0.0676737577 0.103411943 0.516337335
v -0.0655538291 0.00578024611 0.531988561
v -0.0842710435 0.0305715408 0.531386495
v -0.0652267635 -0.020084314 0.535161734
v -0.0475874916 -0.020141663 0.532163262
v -0.047377307 -0.0468410514 0.534748912
v -0.0649475604 -0.0467089824 0.537946284
v -0.0471878313 -0.0744466335 0.536986649
v -0.0308539961 -0.0745777935 0.534775257
v -0.0154034812 -0.0746649504 0.533437371
v -0.0153482147 -0.103028327 0.535238028
v -0.0307655502 -0.102929428 0.536542296
v -0.000515326974 -0.103077881 0.534611404
v 0.0140253352 -0.103090324 0.534467518
v -0.000519539986 -0.132006004 0.535866797
v -0.0153522817 -0.131952032 0.536457062
v 0.0140253305 -0.132016137 0.535734773
v 0.0285701919 -0.132006004 0.535866797
v 0.0140253259 -0.161352351 0.536220074
v -0.000568110088 -0.161344215 0.53634423
v 0.028618753 -0.16134423 0.53634423
v 0.0287253242 -0.190939263 0.535836816
v 0.0140253222 -0.190946266 0.535711169
v 0.0439998507 -0.21857959 0.534217715
v 0.0288863946 -0.218702406 0.533689737
v 0.0596180819 -0.218237504 0.535268664
v 0.060199298 -0.241932943 0.530787945
v 0.0444102585 -0.242385283 0.529777467
v 0.0767042413 -0.241048276 0.532376409
v 0.0941637009 -0.239591613 0.534639478
v 0.0776451528 -0.258514583 0.524891376
v 0.0609390959 -0.259618729 0.523382246
v 0.0952667147 -0.256693095 0.526992381
v 0.0754279792 -0.0468410701 0.534748912
v 0.0590415038 -0.0469448566 0.532575369
v 0.0589046516 -0.0745778084 0.534775257
v 0.0752384886 -0.0744466484 0.536986649
v 0.0591914542 -0.0201996155 0.530119538
v 0.0435428768 -0.0470197685 0.531249404
v 0.0436391905 -0.0202506296 0.528868377
v 0.0434541516 -0.0746649653 0.533437371
v 0.0751101822 -0.102768958 0.538719118
v 0.0588162057 -0.102929443 0.536542296
v 0.0433988757 -0.103028335 0.535238028
v 0.0285925251 -0.0747131854 0.532785058
v 0.0286361426 -0.0470652059 0.530594766
v 0.0437604524 0.00585471606 0.526257098
v 0.0285659973 -0.103077888 0.534611404
v 0.0593767725 0.0058649648 0.527398705
v 0.0758916363 0.00584625639 0.529260397
v 0.075638175 -0.0201416854 0.532163262
v 0.0932774544 -0.0200843457 0.535161734
v 0.092998229 -0.0467090122 0.537946284
v 0.0927500948 -0.0742664039 0.5402596
v 0.111177035 -0.0466021597 0.541711152
v 0.0936045125 0.00578021258 0.531988561
v 0.0596196838 0.0314559415 0.524403751
v 0.0939962342 0.0310572758 0.528509259
v 0.0762109086 0.0313175209 0.526071191
v 0.111896582 0.00558855711 0.535203576
v 0.111518778 -0.0200898312 0.538692176
v 0.0439240262 0.0315085538 0.523378253
v 0.0766185448 0.0564668514 0.5226264
v 0.0599424019 0.0567803569 0.521125615
v 0.0944693908 0.0559194684 0.52480638
v 0.112805322 0.0549975745 0.527382076
v 0.112321734 0.0305715129 0.531386495
v 0.095040746 0.0805394128 0.520962477
v 0.077137135 0.0814889967 0.51895684
v 0.130533442 0.0297564901 0.534371436
v 0.130149022 0.00519299367 0.538525879
v 0.12977159 -0.0202203747 0.542331755
v 0.130936772 0.0535604768 0.530070126
v 0.147977442 0.0285084881 0.537132621
v 0.147742942 0.00451524556 0.541575968
v 0.147445381 -0.0205382109 0.545657635
v 0.129389152 -0.0465739742 0.545587242
v 0.128989801 -0.0739581734 0.548090518
v 0.110860266 -0.0740869492 0.544119179
v 0.110611148 -0.102269381 0.545796633
v 0.0925730541 -0.102534652 0.541963398
v 0.0925071165 -0.131291896 0.542919397
v 0.128630832 -0.102015994 0.549740434
v 0.110472396 -0.130874604 0.546623886
v 0.0750835165 -0.131618515 0.53978914
v 0.0588114262 -0.131830722 0.537699759
v 0.0751989707 -0.160805881 0.540039361
v 0.0434029438 -0.131952047 0.536457062
v 0.0925923213 -0.160316259 0.542989254
v 0.0589256026 -0.161112636 0.538070679
v 0.0754970163 -0.190141529 0.539312541
f 1 2 3
f 3 2 4
f 3 5 1
f 1 5 6
f 6 5 7
f 7 5 3
f 7 8 6
f 9 8 7
f 7 10 9
f 9 10 11
f 3 12 7
f 13 10 7
f 11 10 13
f 7 12 13
f 14 11 15
f 15 11 13
f 16 12 3
f 13 12 16
f 13 17 15
f 16 17 13
f 15 17 18
f 18 17 16
f 18 19 15
f 3 20 16
f 4 20 3
f 21 19 18
f 18 22 21
f 21 22 23
f 16 24 18
f 16 20 25
f 25 24 16
f 25 20 4
f 18 24 26
f 26 22 18
f 26 24 25
f 23 22 26
f 4 27 25
f 28 27 4
f 25 29 26
f 30 27 28
f 25 27 30
f 30 29 25
f 28 31 30
f 30 31 32
f 26 33 23
f 26 29 34
f 34 29 30
f 34 33 26
f 32 35 30
f 30 35 34
f 23 33 36
f 36 33 34
f 34 35 36
f 36 35 32
f 36 37 23
f 38 37 36
f 32 39 36
f 36 39 38
f 40 39 32
f 38 39 40
f 41 42 43
f 44 42 41
f 43 45 46
f 46 45 47
f 43 42 48
f 48 42 44
f 49 45 43
f 47 45 49
f 48 50 43
f 43 50 49
f 51 52 44
f 53 52 51
f 51 54 53
f 44 52 55
f 55 52 53
f 53 54 56
f 55 57 44
f 44 57 48
f 56 58 53
f 48 57 59
f 59 57 55
f 53 60 55
f 61 58 56
f 56 62 61
f 53 58 63
f 63 60 53
f 63 58 61
f 55 60 64
f 64 60 63
f 55 65 59
f 64 65 55
f 61 62 66
f 61 67 63
f 66 68 61
f 69 67 61
f 61 68 69
f 70 68 66
f 69 68 70
f 66 71 70
f 72 71 66
f 63 67 73
f 73 67 69
f 73 74 63
f 63 74 64
f 75 71 72
f 70 71 75
f 72 76 75
f 77 76 72
f 78 76 77
f 75 76 78
f 77 79 78
f 75 80 70
f 70 81 69
f 70 80 82
f 82 81 70
f 83 80 75
f 82 80 83
f 78 84 75
f 75 84 83
f 85 84 78
f 83 84 85
f 69 81 86
f 86 81 82
f 86 87 69
f 69 87 73
f 82 88 86
f 89 88 82
f 90 82 83
f 89 82 90
f 83 91 90
f 85 91 83
f 86 88 92
f 92 88 89
f 93 87 86
f 73 87 93
f 92 94 86
f 86 94 93
f 89 95 92
f 96 94 92
f 93 94 96
f 93 97 73
f 73 97 98
f 98 74 73
f 99 97 93
f 98 97 99
f 64 74 98
f 93 100 99
f 96 100 93
f 98 101 64
f 64 101 102
f 102 65 64
f 103 101 98
f 102 101 103
f 99 104 98
f 98 104 103
f 99 100 105
f 105 100 96
f 106 104 99
f 103 104 106
f 105 107 99
f 99 107 106
f 108 109 110
f 111 112 113
f 114 115 108
f 116 112 111
f 111 117 116
f 116 117 118
f 119 109 108
f 108 115 119
f 118 120 116
f 121 120 118
f 122 112 116
f 113 112 122
f 116 120 123
f 123 120 121
f 116 124 122
f 123 124 116
f 121 125 123
f 113 122 126
f 126 127 113
f 114 127 126
f 126 128 114
f 114 128 129
f 129 115 114
f 130 122 124
f 131 126 122
f 128 126 131
f 130 131 122
f 124 132 130
f 133 131 130
f 131 134 128
f 130 135 133
f 130 132 136
f 136 135 130
f 137 132 124
f 136 132 137
f 124 123 137
f 137 123 125
f 137 138 136
f 139 135 136
f 133 135 139
f 136 138 140
f 140 141 136
f 136 141 139
f 142 138 137
f 140 138 142
f 137 143 142
f 125 143 137
f 144 143 125
f 142 143 144
f 145 125 121
f 121 146 145
f 145 144 125
f 145 146 147
f 147 148 145
f 148 144 145
f 149 148 147
f 148 150 144
f 147 151 149
f 152 151 147
f 153 151 152
f 149 151 153
f 152 154 153
f 155 154 152
f 156 150 148
f 148 149 156
f 156 149 157
f 153 158 149
f 149 158 157
f 153 154 159
f 159 154 155
f 160 158 153
f 157 158 160
f 159 161 153
f 153 161 160
f 155 162 159
f 163 161 159
f 160 161 163
f 164 162 155
f 155 165 164
f 164 165 166
f 159 162 167
f 167 162 164
f 166 168 164
f 167 169 159
f 159 169 163
f 170 168 166
f 164 168 171
f 171 168 170
f 164 172 167
f 171 172 164
f 173 169 167
f 163 169 173
f 167 172 174
f 174 172 171
f 167 175 173
f 174 175 167
f 173 176 163
f 173 175 177
f 177 175 174
f 177 178 173
f 171 179 174
f 174 180 177
f 181 176 173
f 173 178 181
f 182 178 177
f 177 180 182
f 181 178 182
f 183 180 174
f 174 179 183
f 182 180 183
f 184 185 186
f 187 188 186
f 189 188 187
f 189 190 191
f 191 190 192
f 192 193 191
f 194 190 189
f 192 190 194
f 187 195 189
f 189 195 194
f 196 193 192
f 192 197 196
f 194 198 192
f 199 197 192
f 192 198 199
f 200 198 194
f 199 198 200
f 194 195 201
f 201 195 187
f 194 202 200
f 201 202 194
f 196 197 203
f 203 197 199
f 203 204 196
f 196 204 205
f 205 204 206
f 206 204 203
f 206 207 205
f 208 207 206
f 206 209 208
f 210 209 206
f 206 211 210
f 203 211 206
f 210 211 212
f 212 211 203
f 203 213 212
f 199 213 203
f 212 213 214
f 214 213 199
f 199 215 214
f 214 215 216
f 200 215 199
f 216 215 200
f 200 217 216
f 218 217 200
f 200 202 218
f 219 217 218
f 218 202 201
f 218 220 219
f 201 220 218
f 219 220 221
f 221 220 201
f 201 222 221
f 187 222 201
f 221 222 223
f 223 222 187
f 223 224 221
f 225 224 223
f 187 226 223
f 186 226 187
f 223 227 225
f 228 226 186
f 223 226 228
f 228 227 223
f 186 185 228
f 225 227 229
f 229 227 228
f 229 230 225
f 231 230 229
f 229 232 231
f 231 232 233
f 228 234 229
f 235 232 229
f 233 232 235
f 229 234 235
f 236 234 228
f 228 185 236
f 235 234 236
f 235 237 233
f 233 237 238
f 236 185 184
f 239 236 184
f 236 240 235
f 241 237 235
f 235 240 241
f 238 237 241
f 240 236 239
f 239 242 240
f 243 242 239
f 241 244 238
f 238 244 245
f 240 242 246
f 246 241 240
f 246 242 243
f 244 241 246
f 243 247 246
f 248 247 243
f 246 249 244
f 250 245 244
f 251 245 250
f 244 249 250
f 252 249 246
f 246 247 252
f 252 247 248
f 250 249 252
f 250 253 251
f 251 253 254
f 248 255 252
f 256 255 248
f 252 257 250
f 258 253 250
f 254 253 258
f 250 257 258
f 259 257 252
f 252 255 259
f 259 255 256
f 258 257 259
f 258 260 254
f 254 260 261
f 256 262 259
f 263 262 256
f 259 264 258
f 265 260 258
f 261 260 265
f 258 264 265
f 266 264 259
f 259 262 266
f 266 262 263
f 265 264 266
f 265 267 261
f 261 267 268
f 263 269 266
f 270 269 263
f 266 271 265
f 272 269 270
f 266 269 272
f 272 271 266
f 270 273 272
f 272 273 274
f 265 271 275
f 275 271 272
f 275 267 265
f 268 267 275
f 275 276 268
f 274 277 272
f 272 277 275
f 278 277 274
f 278 276 275
f 275 277 278
f 279 280 281
f 282 280 279
f 281 283 284
f 281 280 285
f 285 283 281
f 285 280 282
f 284 283 286
f 286 283 285
f 284 287 6
f 286 287 284
f 6 287 1
f 1 287 286
f 282 288 285
f 285 289 286
f 290 288 282
f 282 291 290
f 285 288 292
f 292 289 285
f 292 288 290
f 286 289 293
f 293 289 292
f 290 294 292
f 295 294 290
f 296 294 295
f 292 294 296
f 295 297 296
f 292 298 293
f 296 298 292
f 293 299 286
f 286 299 1
f 300 299 293
f 1 299 300
f 298 301 293
f 293 301 300
f 296 297 302
f 302 297 303
f 298 296 304
f 304 296 302
f 303 305 302
f 306 305 303
f 302 305 307
f 307 305 306
f 307 308 302
f 302 308 304
f 309 310 311
f 306 312 311
f 303 312 306
f 303 297 295
f 311 313 306
f 311 310 314
f 314 313 311
f 315 310 309
f 314 310 315
f 309 316 315
f 317 316 309
f 318 316 317
f 315 316 318
f 317 319 318
f 315 320 314
f 314 320 321
f 321 322 314
f 314 322 313
f 323 320 315
f 321 320 323
f 315 324 323
f 318 324 315
f 325 324 318
f 323 324 325
f 318 319 326
f 326 319 327
f 318 328 325
f 326 328 318
f 325 329 323
f 327 330 326
f 331 330 327
f 332 328 326
f 325 328 332
f 326 330 333
f 333 330 331
f 326 334 332
f 333 334 326
f 332 335 325
f 331 336 333
f 337 336 331
f 338 334 333
f 332 334 338
f 333 336 339
f 339 336 337
f 333 340 338
f 339 340 333
f 338 341 332
f 337 342 339
f 343 342 337
f 344 340 339
f 338 340 344
f 339 345 344
f 344 346 338
f 339 342 347
f 347 342 343
f 347 345 339
f 344 345 46
f 46 346 344
f 46 345 347
f 338 346 47
f 47 341 338
f 47 346 46
f 343 348 347
f 349 348 343
f 347 350 46
f 347 348 41
f 41 348 349
f 41 350 347
f 349 351 41
f 51 351 349
f 43 350 41
f 46 350 43
f 41 351 44
f 44 351 51
f 352 353 354
f 355 353 352
f 356 357 156
f 156 357 358
f 358 150 156
f 359 357 356
f 358 357 359
f 144 150 358
f 358 360 144
f 144 360 142
f 361 360 358
f 142 360 361
f 359 362 358
f 358 362 361
f 356 363 359
f 354 363 356
f 364 362 359
f 361 362 364
f 361 365 142
f 142 365 140
f 366 365 361
f 140 365 366
f 364 367 361
f 361 367 366
f 359 368 364
f 359 363 369
f 369 368 359
f 369 363 354
f 364 368 370
f 370 368 369
f 371 367 364
f 366 367 371
f 364 372 371
f 370 372 364
f 371 373 366
f 371 372 374
f 374 372 370
f 366 373 375
f 375 376 366
f 366 376 140
f 377 376 375
f 140 376 377
f 377 141 140
f 370 378 374
f 139 141 377
f 374 378 379
f 377 380 139
f 381 380 377
f 382 380 381
f 139 380 382
f 381 383 382
f 382 383 384
f 382 385 139
f 139 385 133
f 384 386 382
f 387 386 384
f 388 385 382
f 382 386 388
f 388 386 387
f 133 385 388
f 387 389 388
f 388 390 133
f 133 390 131
f 391 390 388
f 131 390 391
f 388 389 391
f 392 389 387
f 391 389 392
f 391 134 131
f 392 393 391
f 394 134 391
f 391 393 394
f 128 134 394
f 395 393 392
f 394 393 395
f 392 396 395
f 394 129 128
f 395 396 397
f 395 398 394
f 399 129 394
f 394 398 399
f 397 400 395
f 401 398 395
f 395 400 401
f 399 398 401
f 402 400 397
f 401 400 402
f 397 403 402
f 402 403 404
f 399 401 405
f 129 399 119
f 119 399 405
f 119 115 129
f 404 406 402
f 405 407 119
f 119 407 408
f 408 109 119
f 409 407 405
f 408 407 409
f 110 109 408
f 408 410 110
f 110 410 411
f 412 410 408
f 411 410 412
f 409 413 408
f 408 413 412
f 405 414 409
f 415 413 409
f 412 413 415
f 412 416 411
f 405 401 414
f 411 416 417
f 417 418 411
f 419 418 417
f 420 416 412
f 417 416 420
f 417 421 419
f 419 421 422
f 423 421 417
f 422 421 423
f 420 424 417
f 417 424 423
f 412 425 420
f 415 425 412
f 426 424 420
f 423 424 426
f 422 423 427
f 427 423 428
f 426 429 423
f 423 429 428
f 428 430 427
f 428 429 431
f 431 429 426
f 432 430 428
f 428 431 432
f 432 433 430
f 432 431 434
f 435 433 432
f 434 436 432
f 432 436 435
f 431 437 434
f 438 436 434
f 435 436 438
f 434 439 438
f 434 437 40
f 40 439 434
f 38 437 431
f 40 437 38
f 431 440 38
f 426 440 431
f 441 440 426
f 38 440 441
f 426 442 441
f 420 442 426
f 443 442 420
f 441 442 443
f 420 425 443
f 441 37 38
f 443 425 415
f 443 444 441
f 415 445 443
f 441 444 23
f 23 37 441
f 21 444 443
f 443 445 21
f 23 444 21
f 446 445 415
f 21 445 446
f 415 447 446
f 409 447 415
f 448 447 409
f 446 447 448
f 409 414 448
f 446 19 21
f 448 449 446
f 414 450 448
f 446 449 15
f 15 19 446
f 14 449 448
f 448 450 14
f 15 449 14
f 414 451 450
f 401 451 414
f 402 451 401
f 450 451 402
f 402 406 450
f 450 452 14
f 450 406 453
f 453 452 450
f 453 406 404
f 14 452 11
f 11 452 453
f 404 454 453
f 455 454 404
f 453 454 456
f 456 454 455
f 456 457 453
f 453 457 11
f 455 458 456
f 459 458 455
f 460 458 459
f 456 458 460
f 459 461 460
f 9 457 456
f 11 457 9
f 460 462 456
f 456 462 9
f 460 461 463
f 463 461 464
f 465 462 460
f 9 462 465
f 463 466 460
f 460 466 465
f 464 467 463
f 279 467 464
f 468 466 463
f 465 466 468
f 463 469 468
f 465 8 9
f 463 467 281
f 281 467 279
f 281 469 463
f 468 470 465
f 468 469 284
f 284 470 468
f 284 469 281
f 465 470 6
f 6 8 465
f 6 470 284
f 471 472 473
f 473 472 474
f 473 475 471
f 476 475 473
f 477 475 476
f 471 475 477
f 476 478 477
f 474 472 479
f 479 472 471
f 479 480 474
f 474 480 481
f 481 480 482
f 482 480 479
f 482 483 481
f 481 483 484
f 484 483 485
f 485 483 482
f 485 79 484
f 78 79 485
f 485 486 78
f 78 486 85
f 482 487 485
f 488 486 485
f 485 487 488
f 85 486 488
f 489 487 482
f 488 487 489
f 479 490 482
f 482 490 489
f 488 491 85
f 492 490 479
f 489 490 492
f 489 493 488
f 479 494 492
f 471 494 479
f 85 491 495
f 495 91 85
f 90 91 495
f 495 496 90
f 497 496 495
f 498 494 471
f 492 494 498
f 495 499 497
f 495 491 500
f 500 499 495
f 500 491 488
f 488 493 500
f 501 499 500
f 497 499 501
f 500 493 502
f 502 493 489
f 492 503 489
f 489 503 502
f 504 503 492
f 502 503 504
f 502 505 500
f 500 505 501
f 506 505 502
f 501 505 506
f 504 507 502
f 502 507 506
f 492 508 504
f 498 508 492
f 501 509 497
f 497 509 510
f 511 509 501
f 510 509 511
f 501 512 511
f 506 512 501
f 511 513 510
f 510 513 514
f 511 512 515
f 515 512 506
f 516 513 511
f 514 513 516
f 515 517 511
f 511 517 516
f 506 518 515
f 208 517 515
f 516 517 208
f 516 519 514
f 520 518 506
f 506 507 520
f 520 507 504
f 514 519 521
f 521 522 514
f 523 522 521
f 210 519 516
f 521 519 210
f 521 524 523
f 523 524 525
f 526 524 521
f 525 524 526
f 210 527 521
f 521 527 526
f 516 209 210
f 208 209 516
f 212 527 210
f 526 527 212
f 526 528 525
f 525 528 529
f 529 528 530
f 530 528 526
f 530 531 529
f 212 532 526
f 526 532 530
f 533 531 530
f 534 531 533
f 530 532 214
f 214 532 212
f 530 535 533
f 214 535 530
f 533 536 534
f 534 536 537
f 533 535 216
f 216 535 214
f 538 536 533
f 537 536 538
f 216 539 533
f 533 539 538
f 538 540 537
f 537 540 541
f 538 539 219
f 219 539 216
f 542 540 538
f 541 540 542
f 538 219 542
f 216 217 219
f 542 219 221
f 542 543 541
f 541 543 544
f 544 545 541
f 225 543 542
f 544 543 225
f 546 545 544
f 542 224 225
f 221 224 542
f 544 547 546
f 546 547 548
f 548 549 546
f 231 547 544
f 548 547 231
f 550 549 548
f 550 548 551
f 551 548 552
f 231 552 548
f 544 230 231
f 225 230 544
f 233 552 231
f 552 553 551
f 551 553 554
f 555 553 552
f 554 553 555
f 233 556 552
f 552 556 555
f 555 557 554
f 554 557 558
f 555 556 238
f 238 556 233
f 559 557 555
f 558 557 559
f 238 560 555
f 555 560 559
f 559 561 558
f 558 561 562
f 562 561 563
f 563 561 559
f 563 564 562
f 559 560 245
f 245 560 238
f 559 251 563
f 245 251 559
f 565 564 563
f 566 564 565
f 563 567 565
f 251 567 563
f 565 568 566
f 566 568 569
f 569 568 570
f 570 568 565
f 570 571 569
f 565 567 254
f 254 567 251
f 565 572 570
f 254 572 565
f 573 571 570
f 574 571 573
f 570 572 261
f 261 572 254
f 570 575 573
f 261 575 570
f 576 179 171
f 183 179 576
f 183 577 182
f 171 578 576
f 170 578 171
f 576 579 183
f 580 578 170
f 576 578 580
f 581 170 582
f 580 170 581
f 581 582 583
f 583 584 581
f 581 584 585
f 585 580 581
f 586 576 580
f 586 580 585
f 550 585 584
f 551 585 550
f 551 586 585
f 587 576 586
f 587 579 576
f 554 586 551
f 554 587 586
f 588 579 587
f 183 579 588
f 588 577 183
f 558 587 554
f 587 589 588
f 558 589 587
f 590 577 588
f 182 577 590
f 588 589 562
f 562 589 558
f 588 591 590
f 562 591 588
f 590 592 182
f 182 592 181
f 590 591 566
f 566 591 562
f 593 592 590
f 181 592 593
f 566 594 590
f 590 594 593
f 562 564 566
f 569 594 566
f 593 594 569
f 593 595 181
f 181 595 596
f 596 176 181
f 597 595 593
f 596 595 597
f 163 176 596
f 596 598 163
f 163 598 160
f 160 598 599
f 599 598 596
f 593 600 597
f 569 600 593
f 597 600 574
f 574 600 569
f 601 596 597
f 599 596 601
f 574 602 597
f 597 602 601
f 569 571 574
f 603 602 574
f 601 602 603
f 601 604 599
f 605 160 599
f 599 604 605
f 157 160 605
f 352 604 601
f 605 604 352
f 605 606 157
f 157 606 156
f 356 606 605
f 156 606 356
f 352 607 605
f 605 607 356
f 601 608 352
f 603 608 601
f 354 607 352
f 356 607 354
f 352 608 355
f 355 608 603
f 96 609 105
f 610 107 105
f 106 107 610
f 106 611 103
f 105 612 610
f 105 609 613
f 613 612 105
f 614 609 96
f 613 609 614
f 96 615 614
f 92 615 96
f 616 615 92
f 614 615 616
f 92 95 616
f 614 617 613
f 618 612 613
f 610 612 618
f 613 617 619
f 619 620 613
f 613 620 618
f 621 617 614
f 619 617 621
f 614 622 621
f 616 622 614
f 623 622 616
f 621 622 623
f 616 95 624
f 624 95 89
f 616 625 623
f 624 625 616
f 623 626 621
f 89 90 624
f 627 625 624
f 623 625 627
f 624 90 628
f 624 629 627
f 628 629 624
f 627 630 623
f 90 496 628
f 627 629 631
f 631 629 628
f 623 630 632
f 632 626 623
f 633 630 627
f 632 630 633
f 631 634 627
f 627 634 633
f 628 635 631
f 636 634 631
f 633 634 636
f 497 635 628
f 628 496 497
f 631 635 510
f 510 635 497
f 631 510 636
f 636 637 633
f 636 510 514
f 523 637 636
f 514 522 636
f 636 522 523
f 633 637 638
f 638 637 523
f 638 639 633
f 633 639 632
f 306 640 307
f 313 640 306
f 641 308 307
f 304 308 641
f 307 640 642
f 642 640 313
f 307 643 641
f 642 643 307
f 641 644 304
f 313 645 642
f 641 643 646
f 646 643 642
f 647 645 313
f 313 322 647
f 642 645 648
f 648 645 647
f 642 649 646
f 648 649 642
f 646 650 641
f 647 651 648
f 652 651 647
f 653 649 648
f 646 649 653
f 648 651 654
f 654 651 652
f 654 653 648
f 653 655 646
f 652 656 654
f 657 656 652
f 658 656 657
f 654 656 658
f 657 659 658
f 658 659 660
f 660 661 658
f 662 661 660
f 658 663 654
f 658 661 664
f 664 661 662
f 664 663 658
f 654 663 665
f 665 653 654
f 665 663 664
f 662 666 664
f 667 666 662
f 664 668 665
f 669 666 667
f 664 666 669
f 669 668 664
f 667 670 669
f 669 670 671
f 671 433 669
f 672 668 669
f 669 433 672
f 665 668 672
f 433 435 672
f 672 673 665
f 665 673 653
f 672 435 674
f 674 673 672
f 653 673 674
f 674 655 653
f 675 655 674
f 438 674 435
f 675 674 438
f 646 655 675
f 675 650 646
f 676 650 675
f 641 650 676
f 677 675 438
f 676 675 677
f 676 644 641
f 438 439 677
f 678 644 676
f 304 644 678
f 677 679 676
f 676 679 678
f 677 439 40
f 40 680 677
f 681 679 677
f 677 680 681
f 678 679 681
f 678 682 304
f 304 682 298
f 298 682 683
f 683 682 678
f 683 301 298
f 681 684 678
f 678 684 683
f 300 301 683
f 28 684 681
f 683 684 28
f 683 685 300
f 28 685 683
f 300 685 4
f 4 685 28
f 681 31 28
f 4 2 300
f 300 2 1
f 32 31 681
f 681 680 32
f 32 680 40
f 686 687 688
f 689 687 686
f 690 691 688
f 688 691 686
f 692 693 690
f 694 691 690
f 686 691 694
f 690 695 694
f 686 696 689
f 690 693 697
f 697 695 690
f 694 698 686
f 694 695 699
f 699 698 694
f 699 695 697
f 686 698 700
f 700 696 686
f 700 698 699
f 689 696 701
f 701 696 700
f 701 702 689
f 689 702 205
f 699 703 700
f 205 702 196
f 196 702 701
f 700 704 701
f 700 703 705
f 705 704 700
f 706 703 699
f 705 703 706
f 699 707 706
f 697 707 699
f 701 704 191
f 191 704 705
f 191 193 701
f 701 193 196
f 708 707 697
f 706 707 708
f 706 709 705
f 697 710 708
f 711 710 697
f 697 693 711
f 711 693 692
f 692 712 711
f 713 712 692
f 714 710 711
f 708 710 714
f 711 712 715
f 715 712 713
f 711 716 714
f 715 716 711
f 708 717 706
f 713 718 715
f 719 718 713
f 720 718 719
f 715 718 720
f 719 721 720
f 720 721 722
f 722 723 720
f 724 723 722
f 720 725 715
f 720 723 726
f 726 725 720
f 726 723 724
f 715 725 727
f 727 716 715
f 727 725 726
f 724 728 726
f 714 716 727
f 729 728 724
f 724 730 729
f 729 730 731
f 726 732 727
f 726 728 733
f 733 732 726
f 733 728 729
f 731 734 729
f 270 734 731
f 729 734 263
f 263 734 270
f 729 735 733
f 263 735 729
f 736 732 733
f 727 732 736
f 733 735 256
f 256 735 263
f 733 737 736
f 256 737 733
f 736 738 727
f 727 738 714
f 736 737 248
f 248 737 256
f 739 738 736
f 714 738 739
f 248 740 736
f 736 740 739
f 739 741 714
f 714 741 708
f 708 741 742
f 742 741 739
f 742 717 708
f 739 740 243
f 243 740 248
f 739 743 742
f 243 743 739
f 744 717 742
f 706 717 744
f 744 709 706
f 742 743 239
f 239 743 243
f 742 745 744
f 239 745 742
f 746 709 744
f 705 709 746
f 744 745 184
f 184 745 239
f 744 747 746
f 184 747 744
f 746 748 705
f 705 748 191
f 746 747 186
f 186 747 184
f 189 748 746
f 191 748 189
f 186 188 746
f 746 188 189
f 749 750 751
f 751 750 752
f 751 753 749
f 749 753 754
f 754 753 755
f 755 753 751
f 755 756 754
f 752 757 751
f 751 758 755
f 751 757 349
f 349 758 751
f 51 757 752
f 349 757 51
f 752 54 51
f 56 54 752
f 759 756 755
f 760 756 759
f 755 758 343
f 343 758 349
f 755 761 759
f 343 761 755
f 759 762 760
f 760 762 763
f 763 762 764
f 764 762 759
f 764 765 763
f 759 761 337
f 337 761 343
f 759 766 764
f 337 766 759
f 767 765 764
f 768 765 767
f 764 766 331
f 331 766 337
f 764 769 767
f 331 769 764
f 767 770 768
f 768 770 771
f 767 769 327
f 327 769 331
f 772 770 767
f 771 770 772
f 327 773 767
f 767 773 772
f 772 774 771
f 771 774 775
f 772 773 317
f 317 773 327
f 776 774 772
f 775 774 776
f 317 777 772
f 772 777 776
f 327 319 317
f 309 777 317
f 776 777 309
f 776 778 775
f 775 778 779
f 779 780 775
f 781 778 776
f 779 778 781
f 782 780 779
f 776 783 781
f 309 783 776
f 779 784 782
f 782 784 290
f 290 291 782
f 295 784 779
f 290 784 295
f 781 785 779
f 779 785 295
f 781 783 311
f 311 783 309
f 303 785 781
f 295 785 303
f 311 312 781
f 781 312 303
f 632 639 786
f 786 639 638
f 786 787 632
f 632 787 788
f 788 626 632
f 621 626 788
f 788 789 621
f 621 789 619
f 788 787 790
f 790 787 786
f 791 789 788
f 619 789 791
f 790 792 788
f 788 792 791
f 786 793 790
f 791 794 619
f 619 794 795
f 795 620 619
f 618 620 795
f 795 796 618
f 797 795 794
f 796 795 797
f 794 791 798
f 798 791 792
f 794 799 797
f 798 799 794
f 618 796 800
f 800 801 618
f 618 801 610
f 610 801 802
f 802 801 800
f 802 803 610
f 610 803 106
f 106 803 804
f 804 803 802
f 804 611 106
f 800 805 802
f 802 806 804
f 802 805 807
f 807 806 802
f 808 805 800
f 807 805 808
f 809 800 796
f 808 800 809
f 796 810 809
f 797 810 796
f 811 810 797
f 809 810 811
f 808 812 807
f 807 812 813
f 813 814 807
f 807 814 815
f 815 806 807
f 804 806 815
f 815 814 816
f 816 814 813
f 815 817 804
f 804 817 818
f 818 611 804
f 819 817 815
f 818 817 819
f 103 611 818
f 818 820 103
f 103 820 102
f 821 820 818
f 102 820 821
f 819 822 818
f 818 822 821
f 815 823 819
f 816 823 815
f 824 822 819
f 821 822 824
f 819 823 825
f 825 823 816
f 819 826 824
f 825 826 819
f 821 827 102
f 102 827 59
f 59 65 102
f 828 827 821
f 59 827 828
f 824 829 821
f 821 829 828
f 828 830 59
f 59 830 48
f 48 830 831
f 831 830 828
f 831 50 48
f 828 829 832
f 832 829 824
f 828 833 831
f 832 833 828
f 49 50 831
f 831 834 49
f 831 833 835
f 835 834 831
f 835 833 832
f 49 834 836
f 836 834 835
f 836 837 49
f 49 837 47
f 47 837 838
f 838 837 836
f 838 341 47
f 332 341 838
f 838 335 332
f 835 839 836
f 836 840 838
f 841 335 838
f 838 840 841
f 325 335 841
f 842 840 836
f 836 839 842
f 841 840 842
f 841 329 325
f 843 839 835
f 842 839 843
f 842 844 841
f 845 329 841
f 841 844 845
f 323 329 845
f 835 846 843
f 832 846 835
f 847 844 842
f 845 844 847
f 845 848 323
f 323 848 321
f 849 848 845
f 321 848 849
f 847 850 845
f 845 850 849
f 842 851 847
f 843 851 842
f 852 850 847
f 849 850 852
f 847 851 853
f 853 851 843
f 847 854 852
f 853 854 847
f 849 855 321
f 843 856 853
f 321 855 647
f 647 322 321
f 652 855 849
f 647 855 652
f 857 856 843
f 843 846 857
f 857 846 832
f 849 858 652
f 852 858 849
f 832 859 857
f 824 859 832
f 860 859 824
f 857 859 860
f 824 826 860
f 657 858 852
f 652 858 657
f 860 826 825
f 860 861 857
f 825 862 860
f 857 861 863
f 863 856 857
f 853 856 863
f 864 861 860
f 860 862 864
f 863 861 864
f 863 865 853
f 864 865 863
f 853 865 866
f 866 865 864
f 866 854 853
f 852 854 866
f 866 867 852
f 852 867 657
f 864 868 866
f 869 867 866
f 866 868 869
f 657 867 869
f 870 868 864
f 864 862 870
f 869 868 870
f 870 862 825
f 825 871 870
f 816 871 825
f 870 872 869
f 870 871 873
f 873 871 816
f 873 872 870
f 816 874 873
f 813 874 816
f 660 872 873
f 869 872 660
f 873 875 660
f 874 875 873
f 660 659 869
f 869 659 657
f 660 875 662
f 662 875 874
f 813 876 874
f 812 876 813
f 874 876 877
f 877 876 812
f 877 878 874
f 874 878 662
f 812 879 877
f 667 878 877
f 662 878 667
f 880 879 812
f 812 808 880
f 880 808 809
f 877 879 881
f 881 879 880
f 881 882 877
f 877 882 667
f 880 809 883
f 883 809 811
f 573 884 574
f 574 884 603
f 573 575 268
f 268 575 261
f 885 884 573
f 603 884 885
f 268 886 573
f 573 886 885
f 885 887 603
f 603 887 355
f 885 886 888
f 888 886 268
f 889 887 885
f 355 887 889
f 885 890 889
f 888 890 885
f 889 891 355
f 889 890 892
f 892 891 889
f 892 890 888
f 355 891 893
f 893 891 892
f 893 353 355
f 354 353 893
f 893 894 354
f 354 894 369
f 892 895 893
f 896 894 893
f 369 894 896
f 893 895 896
f 896 897 369
f 369 897 370
f 370 897 898
f 898 897 896
f 898 378 370
f 379 378 898
f 896 899 898
f 896 895 900
f 900 899 896
f 900 895 892
f 898 899 901
f 901 899 900
f 898 902 379
f 901 902 898
f 379 902 903
f 903 902 901
f 903 904 379
f 892 905 900
f 888 905 892
f 900 906 901
f 900 905 278
f 278 905 888
f 278 906 900
f 888 276 278
f 268 276 888
f 274 906 278
f 901 906 274
f 903 907 904
f 903 901 908
f 908 907 903
f 908 901 274
f 904 907 909
f 909 907 908
f 909 910 904
f 904 910 911
f 911 910 912
f 912 910 909
f 912 913 911
f 274 273 908
f 914 913 912
f 909 915 912
f 912 916 914
f 908 917 909
f 912 915 918
f 918 916 912
f 731 915 909
f 909 917 731
f 918 915 731
f 270 917 908
f 908 273 270
f 731 917 270
f 914 916 919
f 919 916 918
f 920 921 922
f 923 924 920
f 925 921 920
f 921 926 927
f 920 928 925
f 920 924 929
f 929 928 920
f 930 924 923
f 929 924 930
f 923 931 930
f 932 931 923
f 932 933 931
f 793 933 932
f 933 793 786
f 786 934 933
f 638 934 786
f 933 935 931
f 933 934 936
f 936 934 638
f 936 935 933
f 638 937 936
f 523 937 638
f 938 935 936
f 931 935 938
f 936 937 525
f 525 937 523
f 936 939 938
f 525 939 936
f 938 930 931
f 938 939 529
f 529 939 525
f 940 930 938
f 529 941 938
f 938 941 940
f 940 942 930
f 930 942 929
f 940 941 534
f 534 941 529
f 943 942 940
f 929 942 943
f 940 534 943
f 529 531 534
f 943 534 537
f 943 944 929
f 929 944 945
f 945 928 929
f 946 944 943
f 945 944 946
f 537 947 943
f 943 947 946
f 925 928 945
f 945 948 925
f 946 949 945
f 950 948 945
f 945 949 950
f 546 949 946
f 950 949 546
f 946 947 541
f 541 947 537
f 946 545 546
f 541 545 946
f 925 948 951
f 951 948 950
f 921 925 952
f 952 925 951
f 952 926 921
f 951 583 952
f 951 950 584
f 584 583 951
f 584 950 550
f 950 549 550
f 546 549 950
f 926 952 953
f 953 952 583
f 954 927 926
f 955 927 954
f 953 956 926
f 926 956 954
f 583 582 953
f 954 957 955
f 955 957 958
f 958 959 960
f 960 959 961
f 957 962 958
f 958 962 959
f 954 963 957
f 956 963 954
f 731 730 918
f 919 964 914
f 914 964 965
f 965 964 966
f 966 964 919
f 966 478 965
f 918 967 919
f 477 478 966
f 724 967 918
f 918 730 724
f 919 967 722
f 722 967 724
f 919 968 966
f 722 968 919
f 966 969 477
f 966 968 970
f 970 969 966
f 970 968 722
f 477 969 971
f 971 969 970
f 971 972 477
f 477 972 471
f 471 972 498
f 498 972 971
f 722 721 970
f 971 973 498
f 970 974 971
f 498 973 975
f 975 508 498
f 971 974 973
f 719 974 970
f 970 721 719
f 973 974 719
f 504 508 975
f 975 976 504
f 504 976 520
f 973 977 975
f 978 976 975
f 975 977 978
f 520 976 978
f 979 977 973
f 978 977 979
f 978 980 520
f 973 981 979
f 719 981 973
f 979 982 978
f 713 981 719
f 979 981 713
f 520 980 983
f 983 518 520
f 984 980 978
f 978 982 984
f 983 980 984
f 515 518 983
f 983 985 515
f 515 985 208
f 986 985 983
f 208 985 986
f 984 987 983
f 983 987 986
f 988 987 984
f 986 987 988
f 984 982 989
f 989 982 979
f 986 207 208
f 989 990 984
f 984 990 988
f 979 991 989
f 713 991 979
f 688 990 989
f 988 990 688
f 989 991 692
f 692 991 713
f 989 992 688
f 692 992 989
f 988 993 986
f 986 993 205
f 205 207 986
f 689 993 988
f 205 993 689
f 688 687 988
f 988 687 689
f 688 992 690
f 690 992 692
f 994 882 881
f 667 882 994
f 881 880 995
f 995 880 883
f 994 670 667
f 994 881 996
f 996 881 995
f 811 797 997
f 995 883 998
f 998 883 811
f 997 797 799
f 799 999 997
f 1000 999 799
f 798 1000 799
f 811 997 1001
f 1001 997 999
f 1001 1002 811
f 811 1002 998
f 1003 1000 798
f 792 1003 798
f 1004 1003 792
f 790 1004 792
f 793 1004 790
f 1004 1005 1003
f 1003 1006 1000
f 1005 1006 1003
f 1007 1005 1004
f 793 1008 1004
f 1004 1008 1007
f 932 1008 793
f 1007 1008 932
f 1006 1009 1000
f 1000 1009 999
f 1005 960 1006
f 1009 1010 999
f 999 1010 1001
f 958 960 1005
f 1005 1007 958
f 1006 961 1009
f 960 961 1006
f 958 1011 1012
f 958 1007 1011
f 1007 1013 1011
f 932 1013 1007
f 1012 1011 922
f 1011 1013 923
f 923 1013 932
f 1011 923 922
f 1012 955 958
f 927 955 1012
f 1012 922 927
f 922 923 920
f 927 922 921
f 962 957 1014
f 1014 957 963
f 1015 959 962
f 961 959 1015
f 1014 1016 962
f 962 1016 1015
f 963 1017 1014
f 1018 1016 1014
f 1015 1016 1018
f 1015 1019 961
f 1014 1020 1018
f 1014 1017 1021
f 1021 1020 1014
f 1022 1017 963
f 1021 1017 1022
f 963 1023 1022
f 956 1023 963
f 1024 1023 956
f 1022 1023 1024
f 953 1024 956
f 582 1024 953
f 1024 1025 1022
f 1022 1026 1021
f 1022 1025 1027
f 1027 1026 1022
f 166 1025 1024
f 1027 1025 166
f 582 1028 1024
f 1024 1028 166
f 170 1028 582
f 166 1028 170
f 1021 1026 1029
f 1029 1026 1027
f 166 165 1027
f 1029 1030 1021
f 1021 1030 1031
f 1031 1020 1021
f 1032 1030 1029
f 1031 1030 1032
f 1027 1033 1029
f 1018 1020 1031
f 155 1033 1027
f 1027 165 155
f 1029 1033 152
f 152 1033 155
f 1031 1034 1018
f 152 1035 1029
f 1029 1035 1032
f 1032 1036 1031
f 118 1034 1031
f 1031 1036 118
f 1018 1034 1037
f 1037 1034 118
f 1037 1038 1018
f 1018 1038 1015
f 1015 1038 1039
f 1039 1038 1037
f 1039 1019 1015
f 121 1036 1032
f 118 1036 121
f 118 117 1037
f 1032 146 121
f 147 146 1032
f 1032 1035 147
f 147 1035 152
f 1037 117 111
f 111 1040 1037
f 1037 1040 1039
f 1039 1040 1041
f 1041 1040 111
f 1041 1042 1039
f 1039 1042 1043
f 1043 1019 1039
f 961 1019 1043
f 1043 1009 961
f 1043 1042 1044
f 1044 1042 1041
f 1010 1009 1043
f 1044 1045 1043
f 1043 1045 1010
f 1041 1046 1044
f 1047 1045 1044
f 1010 1045 1047
f 1047 1001 1010
f 1048 1001 1047
f 1001 1048 1002
f 1002 1048 1049
f 1002 1049 1050
f 1002 1050 998
f 998 1050 1051
f 1051 995 998
f 1050 1049 1052
f 1050 1052 1051
f 996 995 1051
f 1051 1052 1053
f 1053 996 1051
f 1054 996 1053
f 996 1054 994
f 994 1054 671
f 671 670 994
f 427 1054 1053
f 422 1053 1052
f 427 1053 422
f 1052 419 422
f 1049 419 1052
f 430 1054 427
f 430 671 1054
f 433 671 430
f 1055 1049 1048
f 419 1049 1055
f 1048 1056 1055
f 1047 1056 1048
f 1055 418 419
f 1057 1056 1047
f 1055 1056 1057
f 1047 1058 1057
f 1044 1058 1047
f 1059 1058 1044
f 1057 1058 1059
f 1044 1046 1059
f 1057 1060 1055
f 411 418 1055
f 1055 1060 411
f 110 1060 1057
f 411 1060 110
f 1059 1061 1057
f 1057 1061 110
f 1059 1046 1062
f 1062 1046 1041
f 108 1061 1059
f 110 1061 108
f 1062 1063 1059
f 1059 1063 108
f 1041 1064 1062
f 111 1064 1041
f 114 1063 1062
f 108 1063 114
f 1062 1064 113
f 113 1064 111
f 1062 127 114
f 113 127 1062
f 1065 1066 1067
f 1068 1069 1070
f 749 1071 1070
f 1070 1069 749
f 1072 1071 754
f 754 1071 749
f 754 1073 1072
f 1072 1073 1074
f 1074 1073 760
f 760 1073 754
f 760 1075 1074
f 1074 1075 1076
f 1076 1075 763
f 763 1075 760
f 754 756 760
f 763 1077 1076
f 1076 1077 1078
f 1078 1079 1076
f 1080 1079 1078
f 1078 1081 1080
f 1080 1081 1082
f 1078 1077 768
f 768 1077 763
f 1083 1081 1078
f 1082 1081 1083
f 768 1084 1078
f 1078 1084 1083
f 763 765 768
f 771 1084 768
f 1083 1084 771
f 1083 1085 1082
f 1082 1085 1086
f 1086 1087 1082
f 1088 1085 1083
f 1086 1085 1088
f 771 1089 1083
f 1083 1089 1088
f 1090 1087 1086
f 1086 1091 1090
f 1088 1092 1086
f 1093 1091 1086
f 1086 1092 1093
f 782 1092 1088
f 1093 1092 782
f 1088 1089 775
f 775 1089 771
f 1088 780 782
f 775 780 1088
f 1090 1091 1094
f 1094 1091 1093
f 1094 1095 1090
f 1090 1095 1096
f 1095 1097 1096
f 1093 1098 1094
f 1094 1099 1095
f 1094 1098 279
f 279 1099 1094
f 282 1098 1093
f 279 1098 282
f 1093 291 282
f 782 291 1093
f 1100 1097 1095
f 1101 1097 1100
f 1095 1099 464
f 464 1099 279
f 1095 1102 1100
f 464 1102 1095
f 1100 1103 1101
f 1101 1103 1104
f 1100 1102 459
f 459 1102 464
f 1105 1103 1100
f 1104 1103 1105
f 459 1106 1100
f 1100 1106 1105
f 464 461 459
f 455 1106 459
f 1105 1106 455
f 1105 1107 1104
f 1104 1107 1108
f 1108 1109 1104
f 1110 1107 1105
f 1108 1107 1110
f 455 1111 1105
f 1105 1111 1110
f 1112 1109 1108
f 1108 1113 1112
f 1110 1114 1108
f 1115 1113 1108
f 1108 1114 1115
f 397 1114 1110
f 1115 1114 397
f 1110 1111 404
f 404 1111 455
f 1110 403 397
f 404 403 1110
f 1112 1113 1116
f 1116 1113 1115
f 1116 1117 1112
f 1112 1117 1118
f 1118 1117 1119
f 1119 1117 1116
f 1119 1120 1118
f 1115 1121 1116
f 1116 1122 1119
f 1116 1121 387
f 387 1122 1116
f 392 1121 1115
f 387 1121 392
f 1115 396 392
f 397 396 1115
f 1123 1120 1119
f 1124 1120 1123
f 1119 1122 384
f 384 1122 387
f 1119 1125 1123
f 384 1125 1119
f 1123 1126 1124
f 1124 1126 1127
f 1123 1125 1128
f 1128 1125 384
f 1129 1126 1123
f 1127 1126 1129
f 1128 1130 1123
f 1123 1130 1129
f 384 383 1128
f 1131 1130 1128
f 1129 1130 1131
f 1129 1132 1127
f 1127 1132 1133
f 1133 1134 1127
f 1135 1132 1129
f 1133 1132 1135
f 1136 1134 1133
f 1133 1137 1136
f 1136 1137 1138
f 1139 1137 1133
f 1138 1137 1139
f 1135 1140 1133
f 1133 1140 1139
f 1129 1141 1135
f 1131 1141 1129
f 1142 1140 1135
f 1139 1140 1142
f 1135 1141 1143
f 1143 1141 1131
f 1135 1144 1142
f 1143 1144 1135
f 1139 1145 1138
f 1138 1145 1146
f 1146 1147 1138
f 1148 1145 1139
f 1146 1145 1148
f 1142 1149 1139
f 1139 1149 1148
f 1142 1144 1150
f 1150 1144 1143
f 1151 1149 1142
f 1148 1149 1151
f 1150 1152 1142
f 1142 1152 1151
f 1143 1153 1150
f 1154 1152 1150
f 1151 1152 1154
f 1151 1155 1148
f 1150 1156 1154
f 1150 1153 1157
f 1157 1156 1150
f 1158 1153 1143
f 1157 1153 1158
f 1143 1159 1158
f 1131 1159 1143
f 1160 1159 1131
f 1158 1159 1160
f 1131 1161 1160
f 1128 1161 1131
f 381 1161 1128
f 1160 1161 381
f 1128 383 381
f 1160 1162 1158
f 1158 1163 1157
f 1158 1162 1164
f 1164 1163 1158
f 375 1162 1160
f 1164 1162 375
f 381 1165 1160
f 1160 1165 375
f 377 1165 381
f 375 1165 377
f 1157 1163 1166
f 1166 1163 1164
f 375 373 1164
f 1166 1167 1157
f 1157 1167 1168
f 1168 1156 1157
f 1169 1167 1166
f 1168 1167 1169
f 1164 1170 1166
f 1154 1156 1168
f 371 1170 1164
f 1164 373 371
f 1166 1170 374
f 374 1170 371
f 1168 1171 1154
f 374 379 1166
f 1166 379 1169
f 1169 1172 1168
f 911 1171 1168
f 1168 1172 911
f 1154 1171 1173
f 1173 1171 911
f 1173 1174 1154
f 1154 1174 1151
f 1151 1174 1175
f 1175 1174 1173
f 1175 1155 1151
f 904 1172 1169
f 911 1172 904
f 911 913 1173
f 379 904 1169
f 1173 913 914
f 914 1176 1173
f 1173 1176 1175
f 1175 1176 965
f 965 1176 914
f 965 1177 1175
f 1175 1177 1178
f 1178 1155 1175
f 1148 1155 1178
f 1178 1179 1148
f 1148 1179 1146
f 1178 1177 476
f 476 1177 965
f 1180 1179 1178
f 1146 1179 1180
f 476 1181 1178
f 1178 1181 1180
f 965 478 476
f 473 1181 476
f 1180 1181 473
f 1180 1182 1146
f 1146 1182 1183
f 1183 1147 1146
f 1184 1182 1180
f 1183 1182 1184
f 473 1185 1180
f 1180 1185 1184
f 1184 1186 1183
f 1183 1186 1187
f 1184 1185 474
f 474 1185 473
f 1188 1186 1184
f 1187 1186 1188
f 474 1189 1184
f 1184 1189 1188
f 1188 1190 1187
f 1187 1190 1065
f 1065 1190 1191
f 1191 1190 1188
f 1191 1066 1065
f 1188 1189 481
f 481 1189 474
f 1188 1192 1191
f 481 1192 1188
f 1193 1066 1191
f 1067 1066 1193
f 1191 1192 484
f 484 1192 481
f 1191 1194 1193
f 484 1194 1191
f 1193 1195 1067
f 1067 1195 1068
f 1193 1194 77
f 77 1194 484
f 1196 1195 1193
f 1068 1195 1196
f 77 1197 1193
f 1193 1197 1196
f 484 79 77
f 72 1197 77
f 1196 1197 72
f 1196 1198 1068
f 1068 1198 1199
f 1199 1069 1068
f 1200 1198 1196
f 1199 1198 1200
f 72 1201 1196
f 1196 1201 1200
f 749 1069 1199
f 1199 750 749
f 1200 1202 1199
f 752 750 1199
f 1199 1202 752
f 56 1202 1200
f 752 1202 56
f 1200 1201 66
f 66 1201 72
f 1200 62 56
f 66 62 1200
f 1203 1204 1205
f 1205 1206 1203
f 1207 1204 1203
f 1205 1204 1208
f 1208 1204 1207
f 1207 1209 1208
f 1208 1210 1205
f 1211 1206 1205
f 1208 1209 1136
f 1205 1212 1211
f 1205 1210 1213
f 1213 1212 1205
f 1214 1210 1208
f 1213 1210 1214
f 1136 1215 1208
f 1208 1215 1214
f 1136 1209 1216
f 1216 1209 1207
f 1138 1215 1136
f 1214 1215 1138
f 1216 1134 1136
f 1214 1217 1213
f 1207 1218 1216
f 1183 1217 1214
f 1214 1147 1183
f 1138 1147 1214
f 1213 1217 1187
f 1187 1217 1183
f 1219 1218 1207
f 1207 1220 1219
f 1203 1220 1207
f 1221 1220 1203
f 1219 1220 1221
f 1203 1222 1221
f 1223 1222 1203
f 1203 1206 1223
f 1221 1222 1224
f 1224 1222 1223
f 1221 1225 1219
f 1226 1218 1219
f 1216 1218 1226
f 1219 1225 1227
f 1227 1228 1219
f 1219 1228 1226
f 1229 1225 1221
f 1227 1225 1229
f 1224 1230 1221
f 1221 1230 1229
f 1226 1231 1216
f 1226 1228 1232
f 1232 1228 1227
f 1124 1231 1226
f 1216 1231 1127
f 1127 1231 1124
f 1127 1134 1216
f 1226 1233 1124
f 1232 1233 1226
f 1124 1233 1118
f 1118 1233 1232
f 1227 1234 1232
f 1118 1120 1124
f 1235 1234 1227
f 1227 1236 1235
f 1229 1236 1227
f 1232 1234 1237
f 1237 1234 1235
f 1232 1238 1118
f 1237 1238 1232
f 1118 1238 1112
f 1112 1238 1237
f 1239 1236 1229
f 1235 1236 1239
f 1229 1240 1239
f 1241 1240 1229
f 1229 1230 1241
f 1241 1230 1224
f 1104 1109 1237
f 1237 1109 1112
f 1104 1237 1101
f 1101 1237 1235
f 1235 1242 1101
f 1239 1242 1235
f 1096 1242 1239
f 1101 1242 1096
f 1239 1243 1096
f 1244 1243 1239
f 1239 1240 1244
f 1244 1240 1241
f 1090 1243 1244
f 1096 1243 1090
f 1241 1245 1244
f 1096 1097 1101
f 1080 1245 1241
f 1241 1246 1080
f 1224 1246 1241
f 1244 1245 1082
f 1082 1245 1080
f 1082 1087 1244
f 1244 1087 1090
f 1247 1246 1224
f 1080 1246 1247
f 1224 1248 1247
f 1223 1248 1224
f 1247 1079 1080
f 1249 1248 1223
f 1247 1248 1249
f 1223 1250 1249
f 1211 1250 1223
f 1223 1206 1211
f 1251 1250 1211
f 1249 1250 1251
f 1249 1252 1247
f 1076 1079 1247
f 1247 1252 1076
f 1074 1252 1249
f 1076 1252 1074
f 1251 1253 1249
f 1249 1253 1074
f 1211 1254 1251
f 1072 1253 1251
f 1074 1253 1072
f 1255 1254 1211
f 1211 1212 1255
f 1255 1212 1213
f 1251 1254 1256
f 1256 1254 1255
f 1213 1257 1255
f 1256 1258 1251
f 1251 1258 1072
f 1187 1257 1213
f 1255 1257 1065
f 1065 1257 1187
f 1255 1259 1256
f 1065 1259 1255
f 1070 1258 1256
f 1072 1258 1070
f 1256 1259 1067
f 1067 1259 1065
f 1256 1260 1070
f 1067 1260 1256
f 1070 1071 1072
f 1070 1260 1068
f 1068 1260 1067
