v -0.176031873 0.203890666 0.0299984813
v -0.176392093 0.203890666 0.0303645059
v -0.176523954 0.203890666 0.0308645051
v -0.175539792 0.203890666 0.0298645068
v -0.175047711 0.203890666 0.0299984813
v -0.17468749 0.203890666 0.0303645059
v -0.174555644 0.203890666 0.0308645051
v -0.17468749 0.203890666 0.0313645042
v -0.175047711 0.203890666 0.0317305289
v -0.175539792 0.203890666 0.0318645053
v -0.176031873 0.203890666 0.0317305289
v -0.176392093 0.203890666 0.0313645042
v -0.176031873 -0.206222698 0.0317305289
v -0.176392093 -0.206222698 0.0313645042
v -0.176523954 -0.206222698 0.0308645051
v -0.175539792 -0.206222698 0.0318645053
v -0.175047711 -0.206222698 0.0317305289
v -0.17468749 -0.206222698 0.0313645042
v -0.174555644 -0.206222698 0.0308645051
v -0.17468749 -0.206222698 0.0303645059
v -0.175047711 -0.206222698 0.0299984813
v -0.175539792 -0.206222698 0.0298645068
v -0.176031873 -0.206222698 0.0299984813
v -0.176392093 -0.206222698 0.0303645059
v 0.175489619 0.203890666 0.029998472
v 0.175129384 0.203890666 0.0303644966
v 0.174997538 0.203890666 0.0308644958
v 0.175981686 0.203890666 0.0298644956
v 0.176473767 0.203890666 0.029998472
v 0.176833987 0.203890666 0.0303644966
v 0.176965848 0.203890666 0.0308644958
v 0.176833987 0.203890666 0.0313644968
v 0.176473767 0.203890666 0.0317305215
v 0.175981686 0.203890666 0.0318644941
v 0.175489619 0.203890666 0.0317305215
v 0.175129384 0.203890666 0.0313644968
v 0.175489619 -0.206222698 0.0317305215
v 0.175129384 -0.206222698 0.0313644968
v 0.174997538 -0.206222698 0.0308644958
v 0.175981686 -0.206222698 0.0318644941
v 0.176473767 -0.206222698 0.0317305215
v 0.176833987 -0.206222698 0.0313644968
v 0.176965848 -0.206222698 0.0308644958
v 0.176833987 -0.206222698 0.0303644966
v 0.176473767 -0.206222698 0.029998472
v 0.175981686 -0.206222698 0.0298644956
v 0.175489619 -0.206222698 0.029998472
v 0.175129384 -0.206222698 0.0303644966
v 0.000800828391 0.203890666 0.0622838773
v 0.000440602744 0.203890666 0.0626498982
v 0.000308751012 0.203890666 0.0631499067
v 0.00129290589 0.203890666 0.0621499047
v 0.00178498356 0.203890666 0.0622838773
v 0.00214520935 0.203890666 0.0626498982
v 0.00227706111 0.203890666 0.0631499067
v 0.00214520935 0.203890666 0.0636499077
v 0.00178498367 0.203890666 0.0640159324
v 0.00129290612 0.203890666 0.0641499013
v 0.000800828624 0.203890666 0.0640159324
v 0.000440602802 0.203890666 0.0636499077
v 0.000800828624 -0.206222698 0.0640159324
v 0.000440602802 -0.206222698 0.0636499077
v 0.000308751012 -0.206222698 0.0631499067
v 0.00129290612 -0.206222698 0.0641499013
v 0.00178498367 -0.206222698 0.0640159324
v 0.00214520935 -0.206222698 0.0636499077
v 0.00227706111 -0.206222698 0.0631499067
v 0.00214520935 -0.206222698 0.0626498982
v 0.00178498356 -0.206222698 0.0622838773
v 0.00129290589 -0.206222698 0.0621499047
v 0.000800828391 -0.206222698 0.0622838773
v 0.000440602744 -0.206222698 0.0626498982
v 0.175489619 0.203890666 0.0622838736
v 0.175129384 0.203890666 0.0626498982
v 0.174997538 0.203890666 0.0631498992
v 0.175981686 0.203890666 0.0621499009
v 0.176473767 0.203890666 0.0622838736
v 0.176833987 0.203890666 0.0626498982
v 0.176965848 0.203890666 0.0631498992
v 0.176833987 0.203890666 0.0636499003
v 0.176473767 0.203890666 0.0640159249
v 0.175981686 0.203890666 0.0641499013
v 0.175489619 0.203890666 0.0640159249
v 0.175129384 0.203890666 0.0636499003
v 0.175489619 -0.206222698 0.0640159249
v 0.175129384 -0.206222698 0.0636499003
v 0.174997538 -0.206222698 0.0631498992
v 0.175981686 -0.206222698 0.0641499013
v 0.176473767 -0.206222698 0.0640159249
v 0.176833987 -0.206222698 0.0636499003
v 0.176965848 -0.206222698 0.0631498992
v 0.176833987 -0.206222698 0.0626498982
v 0.176473767 -0.206222698 0.0622838736
v 0.175981686 -0.206222698 0.0621499009
v 0.175489619 -0.206222698 0.0622838736
v 0.175129384 -0.206222698 0.0626498982
v -0.176031873 0.203890666 0.0622838773
v -0.176392093 0.203890666 0.0626498982
v -0.176523954 0.203890666 0.0631499067
v -0.175539792 0.203890666 0.0621499047
v -0.175047711 0.203890666 0.0622838773
v -0.17468749 0.203890666 0.0626498982
v -0.174555644 0.203890666 0.0631499067
v -0.17468749 0.203890666 0.0636499077
v -0.175047711 0.203890666 0.0640159324
v -0.175539792 0.203890666 0.0641499013
v -0.176031873 0.203890666 0.0640159324
v -0.176392093 0.203890666 0.0636499077
v -0.176031873 -0.206222698 0.0640159324
v -0.176392093 -0.206222698 0.0636499077
v -0.176523954 -0.206222698 0.0631499067
v -0.175539792 -0.206222698 0.0641499013
v -0.175047711 -0.206222698 0.0640159324
v -0.17468749 -0.206222698 0.0636499077
v -0.174555644 -0.206222698 0.0631499067
v -0.17468749 -0.206222698 0.0626498982
v -0.175047711 -0.206222698 0.0622838773
v -0.175539792 -0.206222698 0.0621499047
v -0.176031873 -0.206222698 0.0622838773
v -0.176392093 -0.206222698 0.0626498982
v 0.000800827343 0.203890666 0.0299984757
v 0.000440601696 0.203890666 0.0303645004
v 0.000308749964 0.203890666 0.0308644995
v 0.00129290484 0.203890666 0.0298645012
v 0.00178498239 0.203890666 0.0299984757
v 0.00214520842 0.203890666 0.0303645004
v 0.00227706018 0.203890666 0.0308644995
v 0.00214520842 0.203890666 0.0313645005
v 0.00178498263 0.203890666 0.0317305252
v 0.00129290507 0.203890666 0.0318644978
v 0.000800827576 0.203890666 0.0317305252
v 0.000440601783 0.203890666 0.0313645005
v 0.000800827576 -0.206222698 0.0317305252
v 0.000440601783 -0.206222698 0.0313645005
v 0.000308749964 -0.206222698 0.0308644995
v 0.00129290507 -0.206222698 0.0318644978
v 0.00178498263 -0.206222698 0.0317305252
v 0.00214520842 -0.206222698 0.0313645005
v 0.00227706018 -0.206222698 0.0308644995
v 0.00214520842 -0.206222698 0.0303645004
v 0.00178498239 -0.206222698 0.0299984757
v 0.00129290484 -0.206222698 0.0298645012
v 0.000800827343 -0.206222698 0.0299984757
v 0.000440601696 -0.206222698 0.0303645004
v -0.176392093 -0.206222698 0.0636499077
v -0.176392093 0.203890666 0.0636499077
v -0.176523954 0.203890666 0.0631499067
v -0.176523954 -0.206222698 0.0631499067
v -0.176031873 -0.206222698 0.0640159324
v -0.176031873 0.203890666 0.0640159324
v -0.175539792 -0.206222698 0.0641499013
v -0.175539792 0.203890666 0.0641499013
v -0.175047711 -0.206222698 0.0640159324
v -0.175047711 0.203890666 0.0640159324
v -0.17468749 -0.206222698 0.0636499077
v -0.17468749 0.203890666 0.0636499077
v -0.174555644 -0.206222698 0.0631499067
v -0.174555644 0.203890666 0.0631499067
v -0.17468749 -0.206222698 0.0626498982
v -0.17468749 -0.206222698 0.0626498982
v -0.17468749 0.203890666 0.0626498982
v -0.175047711 -0.206222698 0.0622838773
v -0.175047711 0.203890666 0.0622838773
v -0.175539792 -0.206222698 0.0621499047
v -0.175539792 0.203890666 0.0621499047
v -0.176031873 -0.206222698 0.0622838773
v -0.176031873 0.203890666 0.0622838773
v -0.176392093 -0.206222698 0.0626498982
v -0.176392093 0.203890666 0.0626498982
v -0.176392093 0.203890666 0.0626498982
v -0.176523954 -0.206222698 0.0631499067
v -0.176523954 0.203890666 0.0631499067
v 0.175129384 -0.206222698 0.0313644968
v 0.175129384 0.203890666 0.0313644968
v 0.174997538 0.203890666 0.0308644958
v 0.174997538 -0.206222698 0.0308644958
v 0.175489619 -0.206222698 0.0317305215
v 0.175489619 0.203890666 0.0317305215
v 0.175981686 -0.206222698 0.0318644941
v 0.175981686 0.203890666 0.0318644941
v 0.176473767 -0.206222698 0.0317305215
v 0.176473767 0.203890666 0.0317305215
v 0.176833987 -0.206222698 0.0313644968
v 0.176833987 0.203890666 0.0313644968
v 0.176965848 -0.206222698 0.0308644958
v 0.176965848 0.203890666 0.0308644958
v 0.176833987 -0.206222698 0.0303644966
v 0.176833987 0.203890666 0.0303644966
v 0.176473767 -0.206222698 0.029998472
v 0.176473767 0.203890666 0.029998472
v 0.175981686 -0.206222698 0.0298644956
v 0.175981686 0.203890666 0.0298644956
v 0.175489619 -0.206222698 0.029998472
v 0.175489619 0.203890666 0.029998472
v 0.175129384 -0.206222698 0.0303644966
v 0.175129384 0.203890666 0.0303644966
v 0.174997538 -0.206222698 0.0308644958
v 0.174997538 0.203890666 0.0308644958
v 0.000440601783 -0.206222698 0.0313645005
v 0.000440601783 0.203890666 0.0313645005
v 0.000308749964 0.203890666 0.0308644995
v 0.000308749964 -0.206222698 0.0308644995
v 0.000800827576 -0.206222698 0.0317305252
v 0.000800827576 -0.206222698 0.0317305252
v 0.000800827576 0.203890666 0.0317305252
v 0.00129290507 -0.206222698 0.0318644978
v 0.00129290507 -0.206222698 0.0318644978
v 0.00129290507 0.203890666 0.0318644978
v 0.00178498263 -0.206222698 0.0317305252
v 0.00178498263 -0.206222698 0.0317305252
v 0.00178498263 0.203890666 0.0317305252
v 0.00214520842 -0.206222698 0.0313645005
v 0.00214520842 0.203890666 0.0313645005
v 0.00227706018 -0.206222698 0.0308644995
v 0.00227706018 0.203890666 0.0308644995
v 0.00214520842 -0.206222698 0.0303645004
v 0.00214520842 -0.206222698 0.0303645004
v 0.00214520842 0.203890666 0.0303645004
v 0.00178498239 -0.206222698 0.0299984757
v 0.00178498239 0.203890666 0.0299984757
v 0.00129290484 -0.206222698 0.0298645012
v 0.00129290484 -0.206222698 0.0298645012
v 0.00129290484 0.203890666 0.0298645012
v 0.000800827343 -0.206222698 0.0299984757
v 0.000800827343 0.203890666 0.0299984757
v 0.000440601696 -0.206222698 0.0303645004
v 0.000440601696 0.203890666 0.0303645004
v 0.000308749964 -0.206222698 0.0308644995
v 0.000308749964 0.203890666 0.0308644995
v 0.000440602802 -0.206222698 0.0636499077
v 0.000440602802 0.203890666 0.0636499077
v 0.000308751012 0.203890666 0.0631499067
v 0.000308751012 -0.206222698 0.0631499067
v 0.000800828624 -0.206222698 0.0640159324
v 0.000800828624 0.203890666 0.0640159324
v 0.00129290612 -0.206222698 0.0641499013
v 0.00129290612 0.203890666 0.0641499013
v 0.00178498367 -0.206222698 0.0640159324
v 0.00178498367 0.203890666 0.0640159324
v 0.00214520935 -0.206222698 0.0636499077
v 0.00214520935 0.203890666 0.0636499077
v 0.00227706111 -0.206222698 0.0631499067
v 0.00227706111 0.203890666 0.0631499067
v 0.00214520935 -0.206222698 0.0626498982
v 0.00214520935 0.203890666 0.0626498982
v 0.00178498356 -0.206222698 0.0622838773
v 0.00178498356 0.203890666 0.0622838773
v 0.00129290589 -0.206222698 0.0621499047
v 0.00129290589 0.203890666 0.0621499047
v 0.000800828391 -0.206222698 0.0622838773
v 0.000800828391 0.203890666 0.0622838773
v 0.00129290589 0.203890666 0.0621499047
v 0.00129290589 -0.206222698 0.0621499047
v 0.000800828391 -0.206222698 0.0622838773
v 0.000800828391 0.203890666 0.0622838773
v 0.000440602744 -0.206222698 0.0626498982
v 0.000440602744 0.203890666 0.0626498982
v 0.000308751012 -0.206222698 0.0631499067
v 0.000308751012 0.203890666 0.0631499067
v -0.176523954 0.203890666 0.0308645051
v -0.176523954 -0.206222698 0.0308645051
v -0.176392093 -0.206222698 0.0313645042
v -0.176392093 -0.206222698 0.0313645042
v -0.176392093 0.203890666 0.0313645042
v -0.176392093 0.203890666 0.0313645042
v -0.176031873 -0.206222698 0.0317305289
v -0.176031873 -0.206222698 0.0317305289
v -0.176031873 0.203890666 0.0317305289
v -0.175539792 -0.206222698 0.0318645053
v -0.175539792 -0.206222698 0.0318645053
v -0.175539792 0.203890666 0.0318645053
v -0.175047711 -0.206222698 0.0317305289
v -0.175047711 -0.206222698 0.0317305289
v -0.175047711 0.203890666 0.0317305289
v -0.17468749 -0.206222698 0.0313645042
v -0.17468749 0.203890666 0.0313645042
v -0.174555644 -0.206222698 0.0308645051
v -0.174555644 0.203890666 0.0308645051
v -0.17468749 -0.206222698 0.0303645059
v -0.17468749 -0.206222698 0.0303645059
v -0.17468749 0.203890666 0.0303645059
v -0.175047711 -0.206222698 0.0299984813
v -0.175047711 0.203890666 0.0299984813
v -0.175539792 -0.206222698 0.0298645068
v -0.175539792 0.203890666 0.0298645068
v -0.176031873 -0.206222698 0.0299984813
v -0.176031873 0.203890666 0.0299984813
v -0.176392093 -0.206222698 0.0303645059
v -0.176392093 0.203890666 0.0303645059
v -0.176523954 -0.206222698 0.0308645051
v -0.176523954 0.203890666 0.0308645051
v 0.175129384 -0.206222698 0.0636499003
v 0.175129384 0.203890666 0.0636499003
v 0.174997538 0.203890666 0.0631498992
v 0.174997538 -0.206222698 0.0631498992
v 0.175489619 -0.206222698 0.0640159249
v 0.175489619 0.203890666 0.0640159249
v 0.175981686 -0.206222698 0.0641499013
v 0.175981686 -0.206222698 0.0641499013
v 0.175981686 0.203890666 0.0641499013
v 0.176473767 -0.206222698 0.0640159249
v 0.176473767 0.203890666 0.0640159249
v 0.176833987 -0.206222698 0.0636499003
v 0.176833987 0.203890666 0.0636499003
v 0.176965848 -0.206222698 0.0631498992
v 0.176965848 0.203890666 0.0631498992
v 0.176833987 -0.206222698 0.0626498982
v 0.176833987 0.203890666 0.0626498982
v 0.176473767 -0.206222698 0.0622838736
v 0.176473767 0.203890666 0.0622838736
v 0.175981686 -0.206222698 0.0621499009
v 0.175981686 0.203890666 0.0621499009
v 0.175489619 -0.206222698 0.0622838736
v 0.175489619 0.203890666 0.0622838736
v 0.175129384 -0.206222698 0.0626498982
v 0.175129384 0.203890666 0.0626498982
v 0.174997538 -0.206222698 0.0631498992
v 0.174997538 0.203890666 0.0631498992
f 1 2 3
f 4 1 3
f 5 4 3
f 6 5 3
f 7 6 3
f 8 7 3
f 9 8 3
f 10 9 3
f 11 10 3
f 12 11 3
f 13 14 15
f 16 13 15
f 16 15 17
f 15 18 17
f 15 19 18
f 15 20 19
f 15 21 20
f 15 22 21
f 15 23 22
f 24 23 15
f 25 26 27
f 28 25 27
f 29 28 27
f 30 29 27
f 31 30 27
f 32 31 27
f 33 32 27
f 34 33 27
f 35 34 27
f 36 35 27
f 37 38 39
f 40 37 39
f 40 39 41
f 39 42 41
f 39 43 42
f 39 44 43
f 39 45 44
f 39 46 45
f 39 47 46
f 48 47 39
f 49 50 51
f 52 49 51
f 53 52 51
f 54 53 51
f 55 54 51
f 56 55 51
f 57 56 51
f 58 57 51
f 59 58 51
f 60 59 51
f 61 62 63
f 64 61 63
f 64 63 65
f 63 66 65
f 63 67 66
f 63 68 67
f 63 69 68
f 63 70 69
f 63 71 70
f 72 71 63
f 73 74 75
f 76 73 75
f 77 76 75
f 78 77 75
f 79 78 75
f 80 79 75
f 81 80 75
f 82 81 75
f 83 82 75
f 84 83 75
f 85 86 87
f 88 85 87
f 88 87 89
f 87 90 89
f 87 91 90
f 87 92 91
f 87 93 92
f 87 94 93
f 87 95 94
f 96 95 87
f 97 98 99
f 100 97 99
f 101 100 99
f 102 101 99
f 103 102 99
f 104 103 99
f 105 104 99
f 106 105 99
f 107 106 99
f 108 107 99
f 109 110 111
f 112 109 111
f 112 111 113
f 111 114 113
f 111 115 114
f 111 116 115
f 111 117 116
f 111 118 117
f 111 119 118
f 120 119 111
f 121 122 123
f 124 121 123
f 125 124 123
f 126 125 123
f 127 126 123
f 128 127 123
f 129 128 123
f 130 129 123
f 131 130 123
f 132 131 123
f 133 134 135
f 136 133 135
f 136 135 137
f 135 138 137
f 135 139 138
f 135 140 139
f 135 141 140
f 135 142 141
f 135 143 142
f 144 143 135
f 145 146 147
f 147 148 145
f 146 145 149
f 149 150 146
f 150 149 151
f 151 152 150
f 152 151 153
f 153 154 152
f 154 153 155
f 155 156 154
f 156 155 157
f 157 158 156
f 158 157 159
f 160 161 158
f 161 159 162
f 162 163 161
f 163 162 164
f 164 165 163
f 165 164 166
f 166 167 165
f 167 166 168
f 168 169 167
f 170 168 171
f 171 172 170
f 173 174 175
f 175 176 173
f 174 173 177
f 177 178 174
f 178 177 179
f 179 180 178
f 180 179 181
f 181 182 180
f 182 181 183
f 183 184 182
f 184 183 185
f 185 186 184
f 186 185 187
f 187 188 186
f 188 187 189
f 189 190 188
f 190 189 191
f 191 192 190
f 192 191 193
f 193 194 192
f 194 193 195
f 195 196 194
f 196 195 197
f 197 198 196
f 199 200 201
f 201 202 199
f 200 199 203
f 204 205 200
f 205 203 206
f 207 208 205
f 208 206 209
f 210 211 208
f 211 209 212
f 212 213 211
f 213 212 214
f 214 215 213
f 215 214 216
f 217 218 215
f 218 216 219
f 219 220 218
f 220 219 221
f 222 223 220
f 223 221 224
f 224 225 223
f 225 224 226
f 226 227 225
f 227 226 228
f 228 229 227
f 230 231 232
f 232 233 230
f 231 230 234
f 234 235 231
f 235 234 236
f 236 237 235
f 237 236 238
f 238 239 237
f 239 238 240
f 240 241 239
f 241 240 242
f 242 243 241
f 243 242 244
f 244 245 243
f 245 244 246
f 246 247 245
f 247 246 248
f 248 249 247
f 250 251 252
f 252 253 254
f 255 254 256
f 256 257 255
f 257 256 258
f 258 259 257
f 260 261 262
f 263 264 260
f 265 262 266
f 267 268 265
f 268 266 269
f 270 271 268
f 271 269 272
f 273 274 271
f 274 272 275
f 275 276 274
f 276 275 277
f 277 278 276
f 278 277 279
f 280 281 278
f 281 279 282
f 282 283 281
f 283 282 284
f 284 285 283
f 285 284 286
f 286 287 285
f 287 286 288
f 288 289 287
f 289 288 290
f 290 291 289
f 292 293 294
f 294 295 292
f 293 292 296
f 296 297 293
f 297 296 298
f 299 300 297
f 300 298 301
f 301 302 300
f 302 301 303
f 303 304 302
f 304 303 305
f 305 306 304
f 306 305 307
f 307 308 306
f 308 307 309
f 309 310 308
f 310 309 311
f 311 312 310
f 312 311 313
f 313 314 312
f 314 313 315
f 315 316 314
f 316 315 317
f 317 318 316
