v 0.18575339 0.12889944 0.0157391597
v 0.18575339 0.1297061 0.0152001772
v 0.18575339 0.130657613 0.0150108915
v 0.18575339 0.128171176 0.0174973253
v 0.18575339 0.12836045 0.0165458154
v 0.18575339 0.131609127 0.0152001772
v 0.18575339 0.132415786 0.0157391597
v 0.18575339 0.133144036 0.0174973253
v 0.18575339 0.132954776 0.0165458154
v 0.18575339 0.12889944 0.0192555115
v 0.18575339 0.12836045 0.0184488557
v 0.18575339 0.130657613 0.0199837591
v 0.18575339 0.1297061 0.0197944958
v 0.18575339 0.132415786 0.0192555115
v 0.18575339 0.131609127 0.0197944958
v 0.18575339 0.132954776 0.0184488557
v -0.0599996261 -0.128482834 0.00797693245
v -0.0599538833 -0.128716171 0.00823190622
v -0.0604210272 -0.128716171 0.00838902313
v -0.0605107583 -0.128482834 0.00814882945
v -0.0594680607 -0.128482834 0.00791888591
v -0.0594680719 -0.128716171 0.00817885064
v -0.0599538833 -0.128716171 0.00823190622
v -0.0599996261 -0.128482834 0.00797693245
v -0.0605107583 -0.128482834 0.00814882945
v -0.0604210272 -0.128716171 0.00838902313
v -0.060851559 -0.128716171 0.00864415988
v -0.060851559 -0.128716171 0.00864415988
v -0.0609818287 -0.128482834 0.00842801109
v -0.0605107583 -0.128482834 0.00814882945
v -0.0589365028 -0.128482834 0.00797693245
v -0.0589822456 -0.128716171 0.00823190622
v -0.0594680719 -0.128716171 0.00817885064
v -0.0594680607 -0.128482834 0.00791888591
v -0.0609818287 -0.128482834 0.00842801109
v -0.060851559 -0.128716171 0.00864415988
v -0.0612289198 -0.128716171 0.00898749474
v -0.0612289198 -0.128716171 0.00898749474
v -0.0613947138 -0.128482834 0.00880367775
v -0.0609818287 -0.128482834 0.00842801109
v -0.0584253706 -0.128482834 0.00814885274
v -0.0585150979 -0.128716171 0.00838902313
v -0.0589822456 -0.128716171 0.00823190622
v -0.0589822456 -0.128716171 0.00823190622
v -0.0589365028 -0.128482834 0.00797693245
v -0.0584253706 -0.128482834 0.00814885274
v -0.0613947138 -0.128482834 0.00880367775
v -0.0612289198 -0.128716171 0.00898749474
v -0.0615386106 -0.128716171 0.00940587744
v -0.0617335699 -0.128482834 0.00926143583
v -0.0579543002 -0.128482834 0.00842801109
v -0.0580845661 -0.128716171 0.00864415988
v -0.0585150979 -0.128716171 0.00838902313
v -0.0584253706 -0.128482834 0.00814885274
v -0.0617335699 -0.128482834 0.00926143583
v -0.0615386106 -0.128716171 0.00940587744
v -0.0617687367 -0.128716171 0.00988317654
v -0.061985366 -0.128482834 0.00978369545
v -0.0575414151 -0.128482834 0.00880367775
v -0.0577072091 -0.128716171 0.00898749474
v -0.0580845661 -0.128716171 0.00864415988
v -0.0579543002 -0.128482834 0.00842801109
v -0.061985366 -0.128482834 0.00978369545
v -0.0617687367 -0.128716171 0.00988317654
v -0.061910443 -0.128716171 0.0104010878
v -0.0621404052 -0.128482834 0.0103503857
v -0.0570256934 -0.128716171 0.0114783458
v -0.0571674071 -0.128716171 0.0119962562
v -0.0573975183 -0.128716171 0.0124735553
v -0.0570256934 -0.128716171 0.0104011111
v -0.0569778457 -0.128716171 0.0109397275
v -0.0577072091 -0.128716171 0.0128919147
v -0.0580845661 -0.128716171 0.0132352524
v -0.0589822493 -0.128716171 0.0136475032
v -0.0585150979 -0.128716171 0.0134904096
v -0.0594680719 -0.128716171 0.0137005607
v -0.0599538833 -0.128716171 0.0136475032
v -0.060851559 -0.128716171 0.0132352524
v -0.0604210347 -0.128716171 0.0134904096
v -0.061910443 -0.128716171 0.0114783458
v -0.0612289198 -0.128716171 0.0128919147
v -0.0615386106 -0.128716171 0.0124735553
v -0.0617687367 -0.128716171 0.0119962562
v -0.0573975183 -0.128716171 0.00940587744
v -0.0571674071 -0.128716171 0.00988317654
v -0.0580845661 -0.128716171 0.00864415988
v -0.0577072091 -0.128716171 0.00898749474
v -0.0599538833 -0.128716171 0.00823190622
v -0.0589822456 -0.128716171 0.00823190622
v -0.0585150979 -0.128716171 0.00838902313
v -0.0594680719 -0.128716171 0.00817885064
v -0.0619582795 -0.128716171 0.0109397275
v -0.061910443 -0.128716171 0.0104010878
v -0.0615386106 -0.128716171 0.00940587744
v -0.0617687367 -0.128716171 0.00988317654
v -0.060851559 -0.128716171 0.00864415988
v -0.0604210272 -0.128716171 0.00838902313
v -0.0612289198 -0.128716171 0.00898749474
v -0.0572025552 -0.128482834 0.00926143583
v -0.0573975183 -0.128716171 0.00940587744
v -0.0577072091 -0.128716171 0.00898749474
v -0.0577072091 -0.128716171 0.00898749474
v -0.0575414151 -0.128482834 0.00880367775
v -0.0572025552 -0.128482834 0.00926143583
v -0.0621404052 -0.128482834 0.0103503857
v -0.061910443 -0.128716171 0.0104010878
v -0.0619582795 -0.128716171 0.0109397275
v -0.0619582795 -0.128716171 0.0109397275
v -0.0621927679 -0.128482834 0.0109397061
v -0.0621404052 -0.128482834 0.0103503857
v 0.00223605288 0.129890367 0.285808295
v 0.00201239693 0.129890367 0.285344392
v 0.00237378012 0.129890367 0.287358642
v 0.00237378012 0.129890367 0.286311656
v 0.00134463969 0.129890367 0.284604073
v 0.000926205306 0.129890367 0.284356087
v 0.000472175481 0.129890367 0.28420341
v -0.000472174695 0.129890367 0.28420341
v -0.00171140174 0.129890367 0.284937769
v -0.00134463888 0.129890367 0.284604073
v -0.00237378501 0.129890367 0.286311656
v -0.00201239623 0.129890367 0.285344392
v -0.00223605335 0.129890367 0.285808295
v 0.00134463969 0.129890367 0.289066255
v 0.00223605288 0.129890367 0.287862003
v 0.00201239414 0.129890367 0.288325936
v -1.03100717e-09 0.129890367 0.289518476
v 0.000472172629 0.129890367 0.289466918
v -0.00237378501 0.129890367 0.287358642
v -0.00223605637 0.129890367 0.287862003
v -0.00201239903 0.129890367 0.288325936
v -0.00092620455 0.129890367 0.28931424
v -0.000472177548 0.129890367 0.289466918
v -0.00134464179 0.129890367 0.289066255
v -0.0621927679 -0.128482834 0.0109397061
v -0.0619582795 -0.128716171 0.0109397275
v -0.061910443 -0.128716171 0.0114783458
v -0.0621404238 -0.128482834 0.0115290238
v -0.056950774 -0.128482834 0.00978369545
v -0.0571674071 -0.128716171 0.00988317654
v -0.0573975183 -0.128716171 0.00940587744
v -0.0572025552 -0.128482834 0.00926143583
v -0.0621404238 -0.128482834 0.0115290238
v -0.061910443 -0.128716171 0.0114783458
v -0.0617687367 -0.128716171 0.0119962562
v -0.061985366 -0.128482834 0.0120957159
v -0.0567957237 -0.128482834 0.0103503857
v -0.0570256934 -0.128716171 0.0104011111
v -0.0571674071 -0.128716171 0.00988317654
v -0.056950774 -0.128482834 0.00978369545
v 0.00223605288 0.129215047 0.287862003
v 0.00237378012 0.129215047 0.287358642
v 0.00237378012 0.129890367 0.287358642
v 0.00242028642 0.129215047 0.286835164
v 0.00223605288 0.129890367 0.287862003
v 0.00237378012 0.129890367 0.286311656
v 0.00201239414 0.129215047 0.288325936
v 0.00237378012 0.129215047 0.286311656
v 0.00201239414 0.129890367 0.288325936
v 0.00223605288 0.129890367 0.285808295
v 0.00171139964 0.129215047 0.288732558
v 0.00223605288 0.129215047 0.285808295
v 0.00134463969 0.129890367 0.289066255
v 0.00201239693 0.129890367 0.285344392
v 0.00134463969 0.129215047 0.289066255
v 0.00201239693 0.129215047 0.285344392
v 0.000926202454 0.129215047 0.28931424
v 0.00171140255 0.129215047 0.284937769
v 0.000472172629 0.129890367 0.289466918
v 0.00134463969 0.129890367 0.284604073
v 0.000472172629 0.129215047 0.289466918
v 0.00134463969 0.129215047 0.284604073
v 0.000926205306 0.129890367 0.284356087
v -1.03100717e-09 0.129215047 0.289518476
v 0.000926205306 0.129215047 0.284356087
v -1.03100717e-09 0.129890367 0.289518476
v -0.000472177548 0.129215047 0.289466918
v -0.000472177548 0.129890367 0.289466918
v 0.000472175481 0.129890367 0.28420341
v 0.000472175481 0.129215047 0.28420341
v 1.82898729e-09 0.129215047 0.284151852
v -0.000472174695 0.129890367 0.28420341
v -0.000472174695 0.129215047 0.28420341
v -0.00092620455 0.129215047 0.284356087
v -0.00134463888 0.129890367 0.284604073
v -0.00134463888 0.129215047 0.284604073
v -0.00171140174 0.129890367 0.284937769
v -0.00171140174 0.129215047 0.284937769
v -0.00201239623 0.129890367 0.285344392
v -0.00201239623 0.129215047 0.285344392
v -0.00223605335 0.129890367 0.285808295
v -0.00223605335 0.129215047 0.285808295
v -0.00237378501 0.129890367 0.286311656
v -0.00237378501 0.129215047 0.286311656
v -0.00242028851 0.129215047 0.286835164
v -0.00237378501 0.129890367 0.287358642
v -0.00237378501 0.129215047 0.287358642
v -0.00223605637 0.129890367 0.287862003
v -0.00223605637 0.129215047 0.287862003
v -0.00201239903 0.129890367 0.288325936
v -0.00201239903 0.129215047 0.288325936
v -0.00171140453 0.129215047 0.288732558
v -0.00134464179 0.129890367 0.289066255
v -0.00134464179 0.129215047 0.289066255
v -0.00092620455 0.129890367 0.28931424
v -0.00092620455 0.129215047 0.28931424
v -0.000472177548 0.129890367 0.289466918
v -0.000472177548 0.129215047 0.289466918
v -0.061985366 -0.128482834 0.0120957159
v -0.0617687367 -0.128716171 0.0119962562
v -0.0615386106 -0.128716171 0.0124735553
v -0.0615386106 -0.128716171 0.0124735553
v -0.0617335699 -0.128482834 0.0126179969
v -0.061985366 -0.128482834 0.0120957159
v -0.0567433685 -0.128482834 0.0109397275
v -0.0569778457 -0.128716171 0.0109397275
v -0.0570256934 -0.128716171 0.0104011111
v -0.0567957237 -0.128482834 0.0103503857
v -0.0617335699 -0.128482834 0.0126179969
v -0.0615386106 -0.128716171 0.0124735553
v -0.0612289198 -0.128716171 0.0128919147
v -0.0613947138 -0.128482834 0.0130757559
v -0.0567957237 -0.128482834 0.0115290238
v -0.0570256934 -0.128716171 0.0114783458
v -0.0569778457 -0.128716171 0.0109397275
v -0.0567433685 -0.128482834 0.0109397275
v -0.0613947138 -0.128482834 0.0130757559
v -0.0612289198 -0.128716171 0.0128919147
v -0.060851559 -0.128716171 0.0132352524
v -0.0609818287 -0.128482834 0.0134514226
v -0.056950774 -0.128482834 0.0120957159
v -0.0571674071 -0.128716171 0.0119962562
v -0.0570256934 -0.128716171 0.0114783458
v -0.0567957237 -0.128482834 0.0115290238
v -0.0567433685 -0.127722576 0.0109397275
v -0.0567957237 -0.127722576 0.0115290238
v -0.0567957237 -0.128482834 0.0115290238
v -0.056950774 -0.128482834 0.0120957159
v -0.0567433685 -0.128482834 0.0109397275
v -0.0572025552 -0.127722576 0.0126179969
v -0.0567957237 -0.127722576 0.0103503857
v -0.0572025552 -0.128482834 0.0126179969
v -0.0567957237 -0.128482834 0.0103503857
v -0.056950774 -0.127722576 0.00978369545
v -0.0575414188 -0.128482834 0.0130757559
v -0.056950774 -0.128482834 0.00978369545
v -0.0575414188 -0.127722576 0.0130757559
v -0.0572025552 -0.127722576 0.00926143583
v -0.0579543002 -0.128482834 0.0134514226
v -0.0572025552 -0.128482834 0.00926143583
v -0.0579543002 -0.127722576 0.0134514226
v -0.0575414151 -0.127722576 0.00880367775
v -0.0584253743 -0.128482834 0.0137305809
v -0.0575414151 -0.128482834 0.00880367775
v -0.0584253743 -0.127722576 0.0137305809
v -0.0579543002 -0.127722576 0.00842801109
v -0.0589365028 -0.128482834 0.013902477
v -0.0579543002 -0.128482834 0.00842801109
v -0.0589365028 -0.127722576 0.013902477
v -0.0584253706 -0.127722576 0.00814885274
v -0.0594680719 -0.128482834 0.0139605226
v -0.0584253706 -0.128482834 0.00814885274
v -0.0594680719 -0.127722576 0.0139605226
v -0.0599996299 -0.128482834 0.013902477
v -0.0599996299 -0.127722576 0.013902477
v -0.0589365028 -0.128482834 0.00797693245
v -0.0594680607 -0.127722576 0.00791888591
v -0.0594680607 -0.128482834 0.00791888591
v -0.0599996261 -0.127722576 0.00797693245
v -0.0599996261 -0.128482834 0.00797693245
v -0.0605107583 -0.127722576 0.00814882945
v -0.0605107583 -0.128482834 0.00814882945
v -0.0609818287 -0.127722576 0.00842801109
v -0.0609818287 -0.128482834 0.00842801109
v -0.0613947138 -0.127722576 0.00880367775
v -0.0613947138 -0.128482834 0.00880367775
v -0.0617335699 -0.127722576 0.00926143583
v -0.0617335699 -0.128482834 0.00926143583
v -0.061985366 -0.127722576 0.00978369545
v -0.061985366 -0.128482834 0.00978369545
v -0.0621404052 -0.127722576 0.0103503857
v -0.0621404052 -0.128482834 0.0103503857
v -0.0621927679 -0.127722576 0.0109397061
v -0.0621927679 -0.128482834 0.0109397061
v -0.0621404238 -0.127722576 0.0115290238
v -0.0621404238 -0.128482834 0.0115290238
v -0.061985366 -0.127722576 0.0120957159
v -0.061985366 -0.128482834 0.0120957159
v -0.0617335699 -0.127722576 0.0126179969
v -0.0617335699 -0.128482834 0.0126179969
v -0.0613947138 -0.127722576 0.0130757559
v -0.0613947138 -0.128482834 0.0130757559
v -0.0609818287 -0.127722576 0.0134514226
v -0.0609818287 -0.128482834 0.0134514226
v -0.0605107583 -0.127722576 0.0137305809
v -0.0605107583 -0.128482834 0.0137305809
v -0.0599996299 -0.127722576 0.013902477
v -0.0599996299 -0.128482834 0.013902477
v -0.0609818287 -0.128482834 0.0134514226
v -0.060851559 -0.128716171 0.0132352524
v -0.0604210347 -0.128716171 0.0134904096
v -0.0604210347 -0.128716171 0.0134904096
v -0.0605107583 -0.128482834 0.0137305809
v -0.0609818287 -0.128482834 0.0134514226
v -0.0572025552 -0.128482834 0.0126179969
v -0.0573975183 -0.128716171 0.0124735553
v -0.0571674071 -0.128716171 0.0119962562
v -0.056950774 -0.128482834 0.0120957159
v -0.0605107583 -0.128482834 0.0137305809
v -0.0604210347 -0.128716171 0.0134904096
v -0.0599538833 -0.128716171 0.0136475032
v -0.0599538833 -0.128716171 0.0136475032
v -0.0599996299 -0.128482834 0.013902477
v -0.0605107583 -0.128482834 0.0137305809
v -0.0575414188 -0.128482834 0.0130757559
v -0.0577072091 -0.128716171 0.0128919147
v -0.0573975183 -0.128716171 0.0124735553
v -0.0572025552 -0.128482834 0.0126179969
v -0.0599996299 -0.128482834 0.013902477
v -0.0599538833 -0.128716171 0.0136475032
v -0.0594680719 -0.128716171 0.0137005607
v -0.0594680719 -0.128482834 0.0139605226
v -0.0579543002 -0.128482834 0.0134514226
v -0.0580845661 -0.128716171 0.0132352524
v -0.0577072091 -0.128716171 0.0128919147
v -0.0575414188 -0.128482834 0.0130757559
v -0.0594680719 -0.128482834 0.0139605226
v -0.0594680719 -0.128716171 0.0137005607
v -0.0589822493 -0.128716171 0.0136475032
v -0.0589365028 -0.128482834 0.013902477
v -0.0584253743 -0.128482834 0.0137305809
v -0.0585150979 -0.128716171 0.0134904096
v -0.0580845661 -0.128716171 0.0132352524
v -0.0580845661 -0.128716171 0.0132352524
v -0.0579543002 -0.128482834 0.0134514226
v -0.0584253743 -0.128482834 0.0137305809
v -0.0589365028 -0.128482834 0.013902477
v -0.0589822493 -0.128716171 0.0136475032
v -0.0585150979 -0.128716171 0.0134904096
v -0.0585150979 -0.128716171 0.0134904096
v -0.0584253743 -0.128482834 0.0137305809
v -0.0589365028 -0.128482834 0.013902477
v -1.03100717e-09 0.129215047 0.289518476
v -1.03100717e-09 0.129007772 0.289287537
v 0.000431540684 0.129007772 0.28924045
v 0.000431540684 0.129007772 0.28924045
v 0.000472172629 0.129215047 0.289466918
v -1.03100717e-09 0.129215047 0.289518476
v 0.000472172629 0.129215047 0.289466918
v 0.000431540684 0.129007772 0.28924045
v 0.000846497307 0.129007772 0.289100885
v 0.000846497307 0.129007772 0.289100885
v 0.000926202454 0.129215047 0.28931424
v 0.000472172629 0.129215047 0.289466918
v -0.000472177548 0.129215047 0.289466918
v -0.00043154275 0.129007772 0.28924045
v -1.03100717e-09 0.129007772 0.289287537
v -1.03100717e-09 0.129007772 0.289287537
v -1.03100717e-09 0.129215047 0.289518476
v -0.000472177548 0.129215047 0.289466918
v 0.000926202454 0.129215047 0.28931424
v 0.000846497307 0.129007772 0.289100885
v 0.00122892426 0.129007772 0.288874239
v 0.00122892426 0.129007772 0.288874239
v 0.00134463969 0.129215047 0.289066255
v 0.000926202454 0.129215047 0.28931424
v -0.00092620455 0.129215047 0.28931424
v -0.000846499344 0.129007772 0.289100885
v -0.00043154275 0.129007772 0.28924045
v -0.000472177548 0.129215047 0.289466918
v 0.00134463969 0.129215047 0.289066255
v 0.00122892426 0.129007772 0.288874239
v 0.00156412425 0.129007772 0.288569272
v 0.00156412425 0.129007772 0.288569272
v 0.00171139964 0.129215047 0.288732558
v 0.00134463969 0.129215047 0.289066255
v -0.00134464179 0.129215047 0.289066255
v -0.00122892635 0.129007772 0.288874239
v -0.000846499344 0.129007772 0.289100885
v -0.00092620455 0.129215047 0.28931424
v 0.00171139964 0.129215047 0.288732558
v 0.00156412425 0.129007772 0.288569272
v 0.00183921563 0.129007772 0.288197637
v 0.00201239414 0.129215047 0.288325936
v -0.00171140453 0.129215047 0.288732558
v -0.00156412914 0.129007772 0.288569272
v -0.00122892635 0.129007772 0.288874239
v -0.00134464179 0.129215047 0.289066255
v 0.00201239414 0.129215047 0.288325936
v 0.00183921563 0.129007772 0.288197637
v 0.00204362813 0.129007772 0.287773639
v 0.00223605288 0.129215047 0.287862003
v -0.00201239903 0.129215047 0.288325936
v -0.00183922064 0.129007772 0.288197637
v -0.00156412914 0.129007772 0.288569272
v -0.00171140453 0.129215047 0.288732558
v 0.00223605288 0.129215047 0.287862003
v 0.00204362813 0.129007772 0.287773639
v 0.0021695022 0.129007772 0.28731361
v 0.0021695022 0.129007772 0.28731361
v 0.00237378012 0.129215047 0.287358642
v 0.00223605288 0.129215047 0.287862003
v -0.00223605637 0.129215047 0.287862003
v -0.00204363023 0.129007772 0.287773639
v -0.00183922064 0.129007772 0.288197637
v -0.00201239903 0.129215047 0.288325936
v 0.00237378012 0.129215047 0.287358642
v 0.0021695022 0.129007772 0.28731361
v 0.0022120073 0.129007772 0.286835164
v 0.00242028642 0.129215047 0.286835164
v -0.00237378501 0.129215047 0.287358642
v -0.00216950709 0.129007772 0.28731361
v -0.00204363023 0.129007772 0.287773639
v -0.00223605637 0.129215047 0.287862003
v 0.00242028642 0.129215047 0.286835164
v 0.0022120073 0.129007772 0.286835164
v 0.0021695022 0.129007772 0.286356717
v 0.00237378012 0.129215047 0.286311656
v -0.00242028851 0.129215047 0.286835164
v -0.00221200939 0.129007772 0.286835164
v -0.00216950709 0.129007772 0.28731361
v -0.00237378501 0.129215047 0.287358642
v 0.00237378012 0.129215047 0.286311656
v 0.0021695022 0.129007772 0.286356717
v 0.00204362813 0.129007772 0.285896659
v 0.00204362813 0.129007772 0.285896659
v 0.00223605288 0.129215047 0.285808295
v 0.00237378012 0.129215047 0.286311656
v -0.00237378501 0.129215047 0.286311656
v -0.00216950709 0.129007772 0.286356717
v -0.00221200939 0.129007772 0.286835164
v -0.00242028851 0.129215047 0.286835164
v 0.00223605288 0.129215047 0.285808295
v 0.00204362813 0.129007772 0.285896659
v 0.00183921854 0.129007772 0.285472691
v 0.00201239693 0.129215047 0.285344392
v 0.0021695022 0.129007772 0.28731361
v 0.00204362813 0.129007772 0.287773639
v 0.00183921563 0.129007772 0.288197637
v 0.0021695022 0.129007772 0.286356717
v 0.0022120073 0.129007772 0.286835164
v 0.00156412425 0.129007772 0.288569272
v 0.00122892426 0.129007772 0.288874239
v 0.000431540684 0.129007772 0.28924045
v 0.000846497307 0.129007772 0.289100885
v -1.03100717e-09 0.129007772 0.289287537
v -0.00043154275 0.129007772 0.28924045
v -0.00122892635 0.129007772 0.288874239
v -0.000846499344 0.129007772 0.289100885
v -0.00216950709 0.129007772 0.28731361
v -0.00156412914 0.129007772 0.288569272
v -0.00183922064 0.129007772 0.288197637
v -0.00204363023 0.129007772 0.287773639
v 0.00183921854 0.129007772 0.285472691
v 0.00204362813 0.129007772 0.285896659
v 0.00122892426 0.129007772 0.284796089
v 0.00156412704 0.129007772 0.285101056
v -0.00043154275 0.129007772 0.284429878
v 0.000431543536 0.129007772 0.284429878
v 0.000846497307 0.129007772 0.284569442
v 1.82898729e-09 0.129007772 0.284382761
v -0.00221200939 0.129007772 0.286835164
v -0.00216950709 0.129007772 0.286356717
v -0.00183921773 0.129007772 0.285472691
v -0.00204363023 0.129007772 0.285896659
v -0.00122892635 0.129007772 0.284796059
v -0.000846499344 0.129007772 0.284569442
v -0.00156412635 0.129007772 0.285101056
v -0.00223605335 0.129215047 0.285808295
v -0.00204363023 0.129007772 0.285896659
v -0.00216950709 0.129007772 0.286356717
v -0.00216950709 0.129007772 0.286356717
v -0.00237378501 0.129215047 0.286311656
v -0.00223605335 0.129215047 0.285808295
v -0.056950774 -0.127722576 0.00978369545
v -0.0572025552 -0.127722576 0.00926143583
v -0.0575414151 -0.127722576 0.00880367775
v -0.0567433685 -0.127722576 0.0109397275
v -0.0567957237 -0.127722576 0.0103503857
v -0.0579543002 -0.127722576 0.00842801109
v -0.0584253706 -0.127722576 0.00814885274
v -0.0594680607 -0.127722576 0.00791888591
v -0.0599996261 -0.127722576 0.00797693245
v -0.0605107583 -0.127722576 0.00814882945
v -0.0613947138 -0.127722576 0.00880367775
v -0.0609818287 -0.127722576 0.00842801109
v -0.0621927679 -0.127722576 0.0109397061
v -0.0617335699 -0.127722576 0.00926143583
v -0.061985366 -0.127722576 0.00978369545
v -0.0621404052 -0.127722576 0.0103503857
v -0.0572025552 -0.127722576 0.0126179969
v -0.0567957237 -0.127722576 0.0115290238
v -0.0575414188 -0.127722576 0.0130757559
v -0.0594680719 -0.127722576 0.0139605226
v -0.0584253743 -0.127722576 0.0137305809
v -0.0579543002 -0.127722576 0.0134514226
v -0.0589365028 -0.127722576 0.013902477
v -0.0621404238 -0.127722576 0.0115290238
v -0.061985366 -0.127722576 0.0120957159
v -0.0613947138 -0.127722576 0.0130757559
v -0.0617335699 -0.127722576 0.0126179969
v -0.0605107583 -0.127722576 0.0137305809
v -0.0599996299 -0.127722576 0.013902477
v -0.0609818287 -0.127722576 0.0134514226
v 0.00201239693 0.129215047 0.285344392
v 0.00183921854 0.129007772 0.285472691
v 0.00156412704 0.129007772 0.285101056
v 0.00171140255 0.129215047 0.284937769
v -0.00201239623 0.129215047 0.285344392
v -0.00183921773 0.129007772 0.285472691
v -0.00204363023 0.129007772 0.285896659
v -0.00223605335 0.129215047 0.285808295
v 0.00171140255 0.129215047 0.284937769
v 0.00156412704 0.129007772 0.285101056
v 0.00122892426 0.129007772 0.284796089
v 0.00134463969 0.129215047 0.284604073
v -0.00171140174 0.129215047 0.284937769
v -0.00156412635 0.129007772 0.285101056
v -0.00183921773 0.129007772 0.285472691
v -0.00201239623 0.129215047 0.285344392
v 0.00134463969 0.129215047 0.284604073
v 0.00122892426 0.129007772 0.284796089
v 0.000846497307 0.129007772 0.284569442
v 0.000926205306 0.129215047 0.284356087
v -0.00134463888 0.129215047 0.284604073
v -0.00122892635 0.129007772 0.284796059
v -0.00156412635 0.129007772 0.285101056
v -0.00171140174 0.129215047 0.284937769
v 0.000926205306 0.129215047 0.284356087
v 0.000846497307 0.129007772 0.284569442
v 0.000431543536 0.129007772 0.284429878
v 0.000431543536 0.129007772 0.284429878
v 0.000472175481 0.129215047 0.28420341
v 0.000926205306 0.129215047 0.284356087
v -0.00092620455 0.129215047 0.284356087
v -0.000846499344 0.129007772 0.284569442
v -0.00122892635 0.129007772 0.284796059
v -0.00122892635 0.129007772 0.284796059
v -0.00134463888 0.129215047 0.284604073
v -0.00092620455 0.129215047 0.284356087
v 0.000472175481 0.129215047 0.28420341
v 0.000431543536 0.129007772 0.284429878
v 1.82898729e-09 0.129007772 0.284382761
v 1.82898729e-09 0.129007772 0.284382761
v 1.82898729e-09 0.129215047 0.284151852
v 0.000472175481 0.129215047 0.28420341
v -0.000472174695 0.129215047 0.28420341
v -0.00043154275 0.129007772 0.284429878
v -0.000846499344 0.129007772 0.284569442
v -0.000846499344 0.129007772 0.284569442
v -0.00092620455 0.129215047 0.284356087
v -0.000472174695 0.129215047 0.28420341
v 1.82898729e-09 0.129215047 0.284151852
v 1.82898729e-09 0.129007772 0.284382761
v -0.00043154275 0.129007772 0.284429878
v -0.00043154275 0.129007772 0.284429878
v -0.000472174695 0.129215047 0.28420341
v 1.82898729e-09 0.129215047 0.284151852
f 1 2 3
f 1 3 4
f 5 1 4
f 3 6 7
f 3 7 8
f 3 8 4
f 7 9 8
f 10 11 4
f 12 10 4
f 8 12 4
f 12 13 10
f 8 14 12
f 14 15 12
f 8 16 14
f 17 18 19
f 19 20 17
f 21 22 23
f 23 24 21
f 25 26 27
f 28 29 30
f 31 32 33
f 33 34 31
f 35 36 37
f 38 39 40
f 41 42 43
f 44 45 46
f 47 48 49
f 49 50 47
f 51 52 53
f 53 54 51
f 55 56 57
f 57 58 55
f 59 60 61
f 61 62 59
f 63 64 65
f 65 66 63
f 67 68 69
f 67 69 70
f 71 67 70
f 69 72 73
f 69 73 74
f 73 75 74
f 69 74 70
f 74 76 77
f 74 77 78
f 77 79 78
f 74 78 80
f 74 80 70
f 78 81 82
f 78 82 80
f 82 83 80
f 84 85 70
f 86 84 70
f 86 87 84
f 80 88 70
f 88 86 70
f 89 90 86
f 88 89 86
f 88 91 89
f 80 92 93
f 80 93 94
f 80 94 88
f 93 95 94
f 94 96 88
f 96 97 88
f 94 98 96
f 99 100 101
f 102 103 104
f 105 106 107
f 108 109 110
f 111 112 113
f 114 111 113
f 112 115 116
f 112 116 117
f 112 117 113
f 117 118 119
f 118 120 119
f 117 119 121
f 117 121 113
f 119 122 123
f 119 123 121
f 124 125 113
f 124 126 125
f 121 127 113
f 127 124 113
f 127 128 124
f 121 129 130
f 121 130 131
f 121 131 127
f 131 132 127
f 132 133 127
f 131 134 132
f 135 136 137
f 137 138 135
f 139 140 141
f 141 142 139
f 143 144 145
f 145 146 143
f 147 148 149
f 149 150 147
f 151 152 153
f 152 154 153
f 153 155 151
f 156 153 154
f 157 151 155
f 154 158 156
f 155 159 157
f 160 156 158
f 161 157 159
f 158 162 160
f 159 163 161
f 164 160 162
f 165 161 163
f 162 166 164
f 167 165 163
f 166 168 164
f 163 169 167
f 170 164 168
f 171 167 169
f 168 172 170
f 173 170 172
f 174 171 169
f 172 175 173
f 169 176 174
f 177 174 176
f 176 178 177
f 179 173 175
f 175 180 179
f 180 181 179
f 182 179 181
f 181 183 182
f 183 184 182
f 185 182 184
f 184 186 185
f 187 185 186
f 186 188 187
f 189 187 188
f 188 190 189
f 191 189 190
f 190 192 191
f 193 191 192
f 192 194 193
f 194 195 193
f 196 193 195
f 195 197 196
f 198 196 197
f 197 199 198
f 200 198 199
f 199 201 200
f 201 202 200
f 203 200 202
f 202 204 203
f 205 203 204
f 204 206 205
f 207 205 206
f 206 208 207
f 209 210 211
f 212 213 214
f 215 216 217
f 217 218 215
f 219 220 221
f 221 222 219
f 223 224 225
f 225 226 223
f 227 228 229
f 229 230 227
f 231 232 233
f 233 234 231
f 235 236 237
f 238 237 236
f 237 239 235
f 236 240 238
f 241 235 239
f 242 238 240
f 239 243 241
f 244 241 243
f 245 242 240
f 243 246 244
f 240 247 245
f 248 244 246
f 249 245 247
f 246 250 248
f 247 251 249
f 252 248 250
f 253 249 251
f 250 254 252
f 251 255 253
f 256 252 254
f 257 253 255
f 254 258 256
f 255 259 257
f 260 256 258
f 261 257 259
f 258 262 260
f 259 263 261
f 264 261 263
f 263 265 264
f 262 266 260
f 267 260 266
f 266 268 267
f 269 267 268
f 268 270 269
f 271 269 270
f 270 272 271
f 273 271 272
f 272 274 273
f 275 273 274
f 274 276 275
f 277 275 276
f 276 278 277
f 279 277 278
f 278 280 279
f 281 279 280
f 280 282 281
f 283 281 282
f 282 284 283
f 285 283 284
f 284 286 285
f 287 285 286
f 286 288 287
f 289 287 288
f 288 290 289
f 291 289 290
f 290 292 291
f 293 291 292
f 292 294 293
f 295 293 294
f 294 296 295
f 297 295 296
f 296 298 297
f 299 300 301
f 302 303 304
f 305 306 307
f 307 308 305
f 309 310 311
f 312 313 314
f 315 316 317
f 317 318 315
f 319 320 321
f 321 322 319
f 323 324 325
f 325 326 323
f 327 328 329
f 329 330 327
f 331 332 333
f 334 335 336
f 337 338 339
f 340 341 342
f 343 344 345
f 346 347 348
f 349 350 351
f 352 353 354
f 355 356 357
f 358 359 360
f 361 362 363
f 364 365 366
f 367 368 369
f 369 370 367
f 371 372 373
f 374 375 376
f 377 378 379
f 379 380 377
f 381 382 383
f 383 384 381
f 385 386 387
f 387 388 385
f 389 390 391
f 391 392 389
f 393 394 395
f 395 396 393
f 397 398 399
f 400 401 402
f 403 404 405
f 405 406 403
f 407 408 409
f 409 410 407
f 411 412 413
f 413 414 411
f 415 416 417
f 417 418 415
f 419 420 421
f 421 422 419
f 423 424 425
f 426 427 428
f 429 430 431
f 431 432 429
f 433 434 435
f 435 436 433
f 437 438 439
f 437 439 440
f 441 437 440
f 439 442 443
f 439 443 444
f 443 445 444
f 439 444 440
f 444 446 447
f 444 447 448
f 447 449 448
f 444 448 450
f 444 450 440
f 448 451 452
f 448 452 450
f 452 453 450
f 454 455 440
f 456 454 440
f 456 457 454
f 450 458 440
f 458 456 440
f 459 460 456
f 458 459 456
f 458 461 459
f 450 462 463
f 450 463 464
f 450 464 458
f 463 465 464
f 464 466 458
f 466 467 458
f 464 468 466
f 469 470 471
f 472 473 474
f 475 476 477
f 475 477 478
f 479 475 478
f 477 480 481
f 477 481 482
f 477 482 478
f 482 483 484
f 482 484 485
f 484 486 485
f 482 485 487
f 482 487 478
f 485 488 489
f 485 489 487
f 489 490 487
f 491 492 478
f 493 491 478
f 487 494 478
f 494 493 478
f 495 496 493
f 494 495 493
f 494 497 495
f 487 498 499
f 487 499 500
f 487 500 494
f 499 501 500
f 500 502 494
f 502 503 494
f 500 504 502
f 505 506 507
f 507 508 505
f 509 510 511
f 511 512 509
f 513 514 515
f 515 516 513
f 517 518 519
f 519 520 517
f 521 522 523
f 523 524 521
f 525 526 527
f 527 528 525
f 529 530 531
f 532 533 534
f 535 536 537
f 538 539 540
f 541 542 543
f 544 545 546
f 547 548 549
f 550 551 552
f 553 554 555
f 556 557 558
