v 0.0547580123 -0.13031365 0.00985480659
v 0.0547580123 -0.129640684 0.0093131708
v 0.053929206 -0.129640684 0.00893020444
v 0.183637142 -0.130313665 0.00985480659
v 0.0535859019 -0.13031365 0.0093131708
v 0.183637142 -0.129640684 0.0093131708
v 0.184809282 -0.130313665 0.0093131708
v 0.0547580123 -0.129361883 0.00800557807
v 0.0535859019 -0.129640684 0.00800557993
v 0.0531004071 -0.13031365 0.00800557993
v 0.184465975 -0.129640684 0.00893020444
v 0.185294762 -0.130313665 0.00800557993
v 0.183637142 -0.129361883 0.00800557807
v 0.184809282 -0.129640684 0.00800557993
v 0.185294762 -0.130313665 0.00788063463
v 0.0547580123 -0.129361883 0.00788063183
v 0.184809282 -0.129640684 0.00788063463
v 0.184809282 -0.130313665 0.00657304423
v 0.183637142 -0.129361883 0.00788063183
v 0.184465975 -0.129640684 0.00695600733
v 0.183637142 -0.130313665 0.00603140565
v 0.183637142 -0.129640684 0.00657304423
v 0.0547580123 -0.13031365 0.00603140565
v 0.0547580123 -0.129640684 0.00657304423
v 0.0535859019 -0.13031365 0.00657304423
v 0.053929206 -0.129640684 0.00695600733
v 0.0531004071 -0.13031365 0.00788063463
v 0.0535859019 -0.129640684 0.00788063463
v 0.0547580123 -0.131891906 0.00800557993
v 0.0547580123 -0.131891906 0.0078806337
v 0.183637142 -0.131891906 0.0078806337
v 0.183637142 -0.13161321 0.00657304423
v 0.0535859093 -0.13161318 0.0078806337
v 0.0547580123 -0.13161318 0.00657304423
v 0.183637142 -0.130940214 0.00603140565
v 0.184809282 -0.130940214 0.00657304423
v 0.0547580123 -0.130940184 0.00603140565
v 0.184465975 -0.13161321 0.00695600733
v 0.185294762 -0.130940214 0.0078806337
v 0.0539292097 -0.13161318 0.00695600733
v 0.0535859093 -0.130940184 0.00657304423
v 0.0531004146 -0.130940184 0.0078806337
v 0.184809282 -0.13161321 0.0078806337
v 0.185294762 -0.130940214 0.00800557993
v 0.0535859093 -0.13161318 0.00800557993
v 0.0531004146 -0.130940184 0.00800557993
v 0.0539292097 -0.13161318 0.00893020444
v 0.0535859093 -0.130940184 0.0093131708
v 0.184809282 -0.13161321 0.00800557993
v 0.184809282 -0.130940214 0.0093131708
v 0.183637142 -0.131891906 0.00800557993
v 0.0547580123 -0.13161318 0.0093131708
v 0.0547580123 -0.130940184 0.00985480659
v 0.184465975 -0.13161321 0.00893020444
v 0.183637142 -0.130940214 0.00985480659
v 0.183637142 -0.13161321 0.0093131708
v 0.0547580123 -0.130940184 0.00985480659
v 0.0547580123 -0.13031365 0.00985480659
v 0.0535859019 -0.13031365 0.0093131708
v 0.0535859093 -0.130940184 0.0093131708
v 0.0531004071 -0.13031365 0.00800557993
v 0.0531004146 -0.130940184 0.00800557993
v 0.0531004071 -0.13031365 0.00788063463
v 0.0531004146 -0.130940184 0.0078806337
v 0.0535859019 -0.13031365 0.00657304423
v 0.0535859093 -0.130940184 0.00657304423
v 0.0547580123 -0.13031365 0.00603140565
v 0.0547580123 -0.130940184 0.00603140565
v 0.183637142 -0.130313665 0.00603140565
v 0.183637142 -0.130940214 0.00603140565
v 0.184809282 -0.130313665 0.00657304423
v 0.184809282 -0.130940214 0.00657304423
v 0.185294762 -0.130313665 0.00788063463
v 0.185294762 -0.130940214 0.0078806337
v 0.185294762 -0.130313665 0.00800557993
v 0.185294762 -0.130940214 0.00800557993
v 0.184809282 -0.130313665 0.0093131708
v 0.184809282 -0.130940214 0.0093131708
v 0.183637142 -0.130313665 0.00985480659
v 0.183637142 -0.130940214 0.00985480659
v 0.0547580123 -0.13031365 0.00985480659
v 0.0547580123 -0.130940184 0.00985480659
f 1 2 3
f 4 2 1
f 1 3 5
f 4 6 2
f 7 6 4
f 2 8 3
f 6 8 2
f 5 3 9
f 3 8 9
f 5 9 10
f 7 11 6
f 12 11 7
f 6 13 8
f 11 13 6
f 12 14 11
f 14 13 11
f 15 14 12
f 13 16 8
f 9 8 16
f 15 17 14
f 17 13 14
f 18 17 15
f 17 19 13
f 13 19 16
f 18 20 17
f 20 19 17
f 21 20 18
f 21 22 20
f 22 19 20
f 23 22 21
f 24 19 22
f 23 24 22
f 24 16 19
f 25 24 23
f 25 26 24
f 26 16 24
f 27 26 25
f 28 16 26
f 27 28 26
f 9 16 28
f 10 28 27
f 10 9 28
f 29 30 31
f 30 32 31
f 29 33 30
f 30 34 32
f 34 35 32
f 32 35 36
f 34 37 35
f 32 36 38
f 31 32 38
f 38 36 39
f 30 40 34
f 40 37 34
f 30 33 40
f 40 41 37
f 33 41 40
f 33 42 41
f 38 39 43
f 31 38 43
f 43 39 44
f 45 42 33
f 45 46 42
f 29 45 33
f 47 46 45
f 29 47 45
f 47 48 46
f 43 44 49
f 31 43 49
f 49 44 50
f 29 31 51
f 31 49 51
f 29 52 47
f 52 48 47
f 51 52 29
f 52 53 48
f 49 50 54
f 51 49 54
f 54 50 55
f 51 56 52
f 51 54 56
f 56 53 52
f 54 55 56
f 56 55 53
f 57 58 59
f 57 59 60
f 60 59 61
f 60 61 62
f 62 61 63
f 62 63 64
f 64 63 65
f 64 65 66
f 66 65 67
f 66 67 68
f 68 67 69
f 68 69 70
f 70 69 71
f 70 71 72
f 72 71 73
f 72 73 74
f 74 73 75
f 74 75 76
f 76 75 77
f 76 77 78
f 78 77 79
f 78 79 80
f 80 79 81
f 80 81 82
