v 0.194378391 0.130728677 0.273003221
v 0.194378391 0.130728677 0.277405649
v 0.194378391 0.129279464 0.277405649
v 0.194378391 0.129279464 0.273003221
v -0.194376931 0.130728677 0.277405649
v -0.194376931 0.130728677 0.273003221
v -0.194376931 0.129279464 0.273003221
v -0.194376931 0.129279464 0.277405649
v -0.185753331 0.12836045 0.0184488557
v -0.185753331 0.12889944 0.0192555115
v -0.185753331 0.1297061 0.0197944958
v -0.185753331 0.12836045 0.0165458154
v -0.185753331 0.128171176 0.0174973253
v -0.185753331 0.130657613 0.0199837591
v -0.185753331 0.131609142 0.0197944958
v -0.185753331 0.132954776 0.0184488557
v -0.185753331 0.132415786 0.0192555115
v -0.185753331 0.1297061 0.0152001772
v -0.185753331 0.12889944 0.0157391597
v -0.185753331 0.131609127 0.0152001772
v -0.185753331 0.130657613 0.0150108915
v -0.185753331 0.132954776 0.0165458154
v -0.185753331 0.132415786 0.0157391597
v -0.185753331 0.133144051 0.0174973253
v 0.194378391 0.130728677 0.277405649
v 0.192290574 0.130728677 0.277405649
v 0.192290574 0.129279464 0.277405649
v 0.194378391 0.129279464 0.277405649
v -0.192289099 0.130728677 0.277405649
v -0.194376931 0.130728677 0.277405649
v -0.194376931 0.129279464 0.277405649
v -0.192289099 0.129279464 0.277405649
v 0.192290574 0.130728677 0.273003221
v 0.192290574 0.130728677 0.277405649
v 0.194378391 0.130728677 0.277405649
v 0.194378391 0.130728677 0.273003221
v 0.192290574 0.129279464 0.273003221
v 0.194378391 0.129279464 0.273003221
v 0.194378391 0.129279464 0.277405649
v 0.192290574 0.129279464 0.277405649
v -0.194376931 0.130728677 0.273003221
v -0.194376931 0.130728677 0.277405649
v -0.192289099 0.130728677 0.277405649
v -0.192289099 0.130728677 0.273003221
v -0.194376931 0.129279464 0.273003221
v -0.192289099 0.129279464 0.273003221
v -0.192289099 0.129279464 0.277405649
v -0.194376931 0.129279464 0.277405649
v 0.0169803761 0.129240081 0.292110443
v 0.0169803761 0.129240081 0.290355206
v 0.0354647785 0.129240081 0.290355206
v 0.0354647785 0.129753351 0.289893627
v 0.0169803761 0.129753351 0.289893627
v 0.0360222645 0.129753351 0.290355206
v 0.0164228883 0.129753351 0.290355206
v 0.0164228883 0.129753351 0.292110443
v 0.0360222645 0.129753351 0.292110443
v 0.0169803761 0.129753351 0.292572021
v 0.0354647785 0.129240081 0.292110443
v 0.0354647785 0.129753351 0.292572021
v -0.0354622081 0.129240081 0.292110443
v -0.0354622081 0.129240081 0.290355206
v -0.0169778038 0.129240081 0.290355206
v -0.0169778038 0.129753351 0.289893627
v -0.0354622081 0.129753351 0.289893627
v -0.016420316 0.129753351 0.290355206
v -0.0360196941 0.129753351 0.290355206
v -0.0360196941 0.129753351 0.292110443
v -0.016420316 0.129753351 0.292110443
v -0.0354622081 0.129753351 0.292572021
v -0.0169778038 0.129240081 0.292110443
v -0.0169778038 0.129753351 0.292572021
v 0.0169803761 0.129836366 0.292572021
v 0.0169803761 0.130349621 0.292110443
v 0.0164228883 0.129836366 0.292110443
v 0.0354647785 0.129836366 0.292572021
v 0.0169803761 0.130349621 0.290355206
v 0.0164228883 0.129836366 0.290355206
v 0.0169803761 0.129836366 0.289893627
v 0.0354647785 0.130349621 0.292110443
v 0.0360222645 0.129836366 0.292110443
v 0.0360222645 0.129836366 0.290355206
v 0.0354647785 0.130349621 0.290355206
v 0.0354647785 0.129836366 0.289893627
v -0.0354622081 0.129836366 0.292572021
v -0.0354622081 0.130349621 0.292110443
v -0.0360196941 0.129836366 0.292110443
v -0.0169778038 0.129836366 0.292572021
v -0.0354622081 0.130349621 0.290355206
v -0.0360196941 0.129836366 0.290355206
v -0.0354622081 0.129836366 0.289893627
v -0.0169778038 0.130349621 0.292110443
v -0.016420316 0.129836366 0.292110443
v -0.016420316 0.129836366 0.290355206
v -0.0169778038 0.130349621 0.290355206
v -0.0169778038 0.129836366 0.289893627
v 0.0169803761 0.129753351 0.292572021
v 0.0169803761 0.129836366 0.292572021
v 0.0164228883 0.129836366 0.292110443
v 0.0164228883 0.129753351 0.292110443
v 0.0164228883 0.129836366 0.290355206
v 0.0164228883 0.129753351 0.290355206
v 0.0169803761 0.129836366 0.289893627
v 0.0169803761 0.129753351 0.289893627
v 0.0354647785 0.129836366 0.289893627
v 0.0354647785 0.129753351 0.289893627
v 0.0360222645 0.129836366 0.290355206
v 0.0360222645 0.129753351 0.290355206
v 0.0360222645 0.129836366 0.292110443
v 0.0360222645 0.129753351 0.292110443
v 0.0354647785 0.129836366 0.292572021
v 0.0354647785 0.129753351 0.292572021
v 0.0169803761 0.129836366 0.292572021
v 0.0169803761 0.129753351 0.292572021
v -0.0354622081 0.129753351 0.292572021
v -0.0354622081 0.129836366 0.292572021
v -0.0360196941 0.129836366 0.292110443
v -0.0360196941 0.129753351 0.292110443
v -0.0360196941 0.129836366 0.290355206
v -0.0360196941 0.129753351 0.290355206
v -0.0354622081 0.129836366 0.289893627
v -0.0354622081 0.129753351 0.289893627
v -0.0169778038 0.129836366 0.289893627
v -0.0169778038 0.129753351 0.289893627
v -0.016420316 0.129836366 0.290355206
v -0.016420316 0.129753351 0.290355206
v -0.016420316 0.129836366 0.292110443
v -0.016420316 0.129753351 0.292110443
v -0.0169778038 0.129836366 0.292572021
v -0.0169778038 0.129753351 0.292572021
v -0.0354622081 0.129836366 0.292572021
v -0.0354622081 0.129753351 0.292572021
v 0.192290574 0.130728677 0.273003221
v 0.194378391 0.130728677 0.273003221
v 0.194378391 0.129279464 0.273003221
v 0.192290574 0.129279464 0.273003221
v -0.194376931 0.130728677 0.273003221
v -0.192289099 0.130728677 0.273003221
v -0.192289099 0.129279464 0.273003221
v -0.194376931 0.129279464 0.273003221
v -0.192289099 0.130728677 0.273003221
v -0.192289099 0.130728677 0.277405649
v -0.192289099 0.129279464 0.277405649
v -0.192289099 0.129279464 0.273003221
v 0.192290574 0.130728677 0.277405649
v 0.192290574 0.130728677 0.273003221
v 0.192290574 0.129279464 0.273003221
v 0.192290574 0.129279464 0.277405649
f 1 2 3
f 3 4 1
f 5 6 7
f 7 8 5
f 9 10 11
f 9 11 12
f 13 9 12
f 11 14 15
f 11 15 16
f 11 16 12
f 15 17 16
f 18 19 12
f 20 18 12
f 16 20 12
f 20 21 18
f 16 22 20
f 22 23 20
f 16 24 22
f 25 26 27
f 27 28 25
f 29 30 31
f 31 32 29
f 33 34 35
f 35 36 33
f 37 38 39
f 39 40 37
f 41 42 43
f 43 44 41
f 45 46 47
f 47 48 45
f 49 50 51
f 50 52 51
f 50 53 52
f 51 52 54
f 50 55 53
f 49 55 50
f 49 56 55
f 51 54 57
f 49 58 56
f 51 57 59
f 49 51 59
f 59 58 49
f 59 57 60
f 59 60 58
f 61 62 63
f 62 64 63
f 62 65 64
f 63 64 66
f 62 67 65
f 61 67 62
f 61 68 67
f 63 66 69
f 61 70 68
f 63 69 71
f 61 63 71
f 71 70 61
f 71 69 72
f 71 72 70
f 73 74 75
f 76 74 73
f 75 74 77
f 75 77 78
f 78 77 79
f 76 80 74
f 80 77 74
f 81 80 76
f 82 80 81
f 80 83 77
f 82 83 80
f 79 77 83
f 84 83 82
f 79 83 84
f 85 86 87
f 88 86 85
f 87 86 89
f 87 89 90
f 90 89 91
f 88 92 86
f 92 89 86
f 93 92 88
f 94 92 93
f 92 95 89
f 94 95 92
f 91 89 95
f 96 95 94
f 91 95 96
f 97 98 99
f 97 99 100
f 100 99 101
f 100 101 102
f 102 101 103
f 102 103 104
f 104 103 105
f 104 105 106
f 106 105 107
f 106 107 108
f 108 107 109
f 108 109 110
f 110 109 111
f 110 111 112
f 112 111 113
f 112 113 114
f 115 116 117
f 115 117 118
f 118 117 119
f 118 119 120
f 120 119 121
f 120 121 122
f 122 121 123
f 122 123 124
f 124 123 125
f 124 125 126
f 126 125 127
f 126 127 128
f 128 127 129
f 128 129 130
f 130 129 131
f 130 131 132
f 133 134 135
f 135 136 133
f 137 138 139
f 139 140 137
f 141 142 143
f 143 144 141
f 145 146 147
f 147 148 145
