v 0.096893698 -0.0586641617 -1.30260606e-17
v 0.0599175692 -0.0891107023 -1.97865507e-17
v 0.0145596173 -0.105310977 -2.33837342e-17
v 0.121028148 -0.0176436473 -3.91767669e-18
v 0.129409939 0.0290031023 6.4399824e-18
v 0.0968936607 0.1166704 2.59060329e-17
v 0.12102814 0.0756498948 1.6797651e-17
v -0.03370931 -0.105310984 -2.33837358e-17
v -0.0790672675 -0.0891107395 -1.9786559e-17
v -0.140177891 -0.0176437143 -3.91769158e-18
v -0.116043419 -0.0586642139 -1.30260722e-17
v 0.0145595688 0.163317189 3.62637006e-17
v 0.0599175245 0.147116929 3.26665204e-17
v -0.0790673122 0.147116929 3.26665204e-17
v -0.0337093584 0.163317174 3.62636973e-17
v -0.140177906 0.0756498724 1.6797646e-17
v -0.116043456 0.116670385 2.59060295e-17
v -0.148559704 0.0290030781 6.43997702e-18
v 0.0145596173 -0.105310977 0.139353767
v -0.03370931 -0.105310984 0.139353767
v -0.03370931 -0.105310984 0.111483015
v -0.03370931 -0.105310984 0.0836122632
v -0.0790672675 -0.0891107395 0.0836122632
v -0.0790672675 -0.0891107395 0.0557415076
v -0.03370931 -0.105310984 0.0557415076
v 0.0145596173 -0.105310977 0.111483015
v 0.0599175692 -0.0891107023 0.139353767
v 0.0599175692 -0.0891107023 0.111483015
v 0.096893698 -0.0586641617 0.139353767
v 0.0599175692 -0.0891107023 0.0836122632
v 0.0599175692 -0.0891107023 0.0557415076
v 0.096893698 -0.0586641617 0.111483015
v 0.121028148 -0.0176436473 0.139353767
v 0.096893698 -0.0586641617 0.0836122632
v 0.121028148 -0.0176436473 0.111483015
v 0.129409939 0.0290031023 0.139353767
v 0.121028148 -0.0176436473 0.0836122632
v 0.121028148 -0.0176436473 0.0557415076
v 0.129409939 0.0290031023 0.111483015
v 0.12102814 0.0756498948 0.139353767
v 0.129409939 0.0290031023 0.0836122632
v 0.129409939 0.0290031023 0.0557415076
v 0.12102814 0.0756498948 0.111483015
v 0.0968936607 0.1166704 0.139353767
v 0.12102814 0.0756498948 0.0836122632
v 0.12102814 0.0756498948 0.0557415076
v 0.0968936607 0.1166704 0.111483015
v 0.0599175245 0.147116929 0.139353767
v 0.0968936607 0.1166704 0.0836122632
v 0.0599175245 0.147116929 0.111483015
v 0.0145595688 0.163317189 0.139353767
v 0.12102814 0.0756498948 0.0278707538
v 0.0599175245 0.147116929 3.26665204e-17
v -0.0337093584 0.163317174 0.111483015
v -0.0337093584 0.163317174 0.139353767
v 0.0145595688 0.163317189 3.62637006e-17
v -0.0337093584 0.163317174 3.62636973e-17
v 0.117425665 0.0290031023 0.139353782
v 0.109766603 -0.0131115075 0.139353767
v 0.121028148 -0.0176436473 0.139353767
v 0.0877132043 -0.0501465201 0.139353767
v 0.129409939 0.0290031023 0.139353767
v 0.096893698 -0.0586641617 0.139353767
v 0.109766588 0.0711177513 0.139353767
v 0.0539254211 -0.0776349157 0.139353767
v 0.12102814 0.0756498948 0.139353767
v 0.0599175692 -0.0891107023 0.139353767
v 0.0968936607 0.1166704 0.139353767
v 0.0124785639 -0.0922611952 0.139353767
v 0.0877131671 0.108152755 0.139353767
v 0.0145596173 -0.105310977 0.139353767
v 0.0599175245 0.147116929 0.139353767
v -0.0316282623 -0.0922611952 0.139353767
v 0.0539253913 0.135641143 0.139353767
v -0.03370931 -0.105310984 0.139353767
v 0.0145595688 0.163317189 0.139353767
v -0.0730751157 -0.077634953 0.139353767
v 0.0124785183 0.150267407 0.139353767
v -0.0790672675 -0.0891107395 0.139353767
v -0.0337093584 0.163317174 0.139353767
v -0.106862925 -0.0501465723 0.139353767
v -0.031628307 0.150267407 0.139353767
v -0.116043419 -0.0586642139 0.139353767
v -0.0790673122 0.147116929 0.139353767
v -0.128916338 -0.0131115727 0.139353767
v -0.0730751678 0.135641143 0.139353767
v -0.140177891 -0.0176437143 0.139353767
v -0.116043456 0.116670385 0.139353767
v -0.136575431 0.02900308 0.139353767
v -0.106862955 0.10815274 0.139353767
v -0.148559704 0.0290030781 0.139353767
v -0.140177906 0.0756498724 0.139353767
v -0.128916353 0.0711177289 0.139353767
v 0.129409939 0.0290031023 6.4399824e-18
v 0.12102814 0.0756498948 1.6797651e-17
v 0.0968936607 0.1166704 2.59060329e-17
v 0.129409939 0.0290031023 0.0278707538
v 0.121028148 -0.0176436473 -3.91767669e-18
v 0.121028148 -0.0176436473 0.0278707538
v 0.096893698 -0.0586641617 -1.30260606e-17
v 0.096893698 -0.0586641617 0.0278707538
v 0.0599175692 -0.0891107023 -1.97865507e-17
v 0.0599175692 -0.0891107023 0.0278707538
v 0.0145596173 -0.105310977 -2.33837342e-17
v 0.0145596173 -0.105310977 0.0278707538
v -0.03370931 -0.105310984 -2.33837358e-17
v -0.03370931 -0.105310984 0.0278707538
v -0.0790672675 -0.0891107395 -1.9786559e-17
v -0.0790672675 -0.0891107395 0.0278707538
v -0.116043419 -0.0586642139 -1.30260722e-17
v -0.116043419 -0.0586642139 0.0278707538
v -0.140177891 -0.0176437143 -3.91769158e-18
v -0.116043419 -0.0586642139 0.0557415076
v -0.0790673122 0.147116929 3.26665204e-17
v -0.0337093584 0.163317174 0.111483015
v -0.0337093584 0.163317174 3.62636973e-17
v -0.116043456 0.116670385 2.59060295e-17
v -0.116043456 0.116670385 0.139353767
v -0.140177906 0.0756498724 1.6797646e-17
v -0.148559704 0.0290030781 6.43997702e-18
v -0.148559704 0.0290030781 0.139353767
v -0.0790673122 0.147116929 0.139353767
v -0.0337093584 0.163317174 0.139353767
v -0.140177906 0.0756498724 0.139353767
v -0.140177891 -0.0176437143 0.139353767
v -0.116043419 -0.0586642139 0.111483015
v -0.116043419 -0.0586642139 0.139353767
v -0.0790672675 -0.0891107395 0.139353767
v -0.0790672675 -0.0891107395 0.111483015
v 0.109766588 0.0711177513 0.0654678047
v 0.109766588 0.0711177513 0.0174368415
v 0.117425665 0.0290031023 0.0174368415
v 0.109766603 -0.0131115075 0.0174368415
v 0.109766603 -0.0131115075 0.0654678047
v 0.0877132043 -0.0501465201 0.0174368415
v 0.109766588 0.0711177513 0.113498777
v 0.0877132043 -0.0501465201 0.0654678047
v 0.0539254211 -0.0776349157 0.0174368415
v 0.117425665 0.0290031023 0.113498777
v 0.109766603 -0.0131115075 0.113498777
v 0.0539254211 -0.0776349157 0.0654678047
v 0.0124785639 -0.0922611877 0.0174368415
v 0.109766588 0.0711177513 0.139353767
v 0.117425665 0.0290031023 0.139353782
v 0.0877131671 0.108152755 0.139353767
v 0.109766603 -0.0131115075 0.139353767
v 0.0877131671 0.108152755 0.0654678047
v 0.0539253913 0.135641143 0.139353767
v 0.0877132043 -0.0501465201 0.113498777
v 0.0877132043 -0.0501465201 0.139353767
v 0.0539254211 -0.0776349157 0.113498777
v 0.0539254211 -0.0776349157 0.139353767
v 0.0124785639 -0.0922611877 0.0654678047
v -0.0316282623 -0.0922611952 0.0174368415
v 0.0124785639 -0.0922611877 0.113498777
v 0.0124785639 -0.0922611952 0.139353767
v -0.0316282623 -0.0922611952 0.0654678047
v -0.0730751231 -0.077634953 0.0174368415
v -0.0316282623 -0.0922611952 0.113498777
v -0.0316282623 -0.0922611952 0.139353767
v -0.0730751231 -0.077634953 0.0654678047
v -0.106862925 -0.0501465723 0.0174368415
v -0.0730751231 -0.077634953 0.113498777
v -0.0730751157 -0.077634953 0.139353767
v -0.106862925 -0.0501465723 0.0654678047
v -0.128916338 -0.013111569 0.0174368415
v -0.106862925 -0.0501465723 0.113498777
v -0.106862925 -0.0501465723 0.139353767
v -0.128916338 -0.0131115727 0.139353767
v -0.136575431 0.02900308 0.0174368415
v -0.136575431 0.02900308 0.139353767
v -0.128916353 0.0711177289 0.0174368415
v -0.128916353 0.0711177289 0.139353767
v -0.106862955 0.10815274 0.0174368415
v -0.106862955 0.10815274 0.139353767
v -0.0730751604 0.135641143 0.0174368415
v -0.031628307 0.150267392 0.0174368415
v -0.031628307 0.150267392 0.0654678047
v -0.0730751678 0.135641143 0.139353767
v -0.031628307 0.150267407 0.139353767
v 0.117425665 0.0290031023 0.0174368415
v 0.109766588 0.0711177513 0.0174368415
v 0.0877131671 0.108152755 0.0174368415
v 0.109766603 -0.0131115075 0.0174368415
v 0.0877132043 -0.0501465201 0.0174368415
v 0.0124785639 -0.0922611877 0.0174368415
v 0.0539254211 -0.0776349157 0.0174368415
v -0.0730751231 -0.077634953 0.0174368415
v -0.0316282623 -0.0922611952 0.0174368415
v -0.128916338 -0.013111569 0.0174368415
v -0.106862925 -0.0501465723 0.0174368415
v 0.0539253838 0.135641143 0.0174368415
v 0.0124785202 0.150267407 0.0174368415
v -0.0730751604 0.135641143 0.0174368415
v -0.031628307 0.150267392 0.0174368415
v -0.128916353 0.0711177289 0.0174368415
v -0.136575431 0.02900308 0.0174368415
v -0.106862955 0.10815274 0.0174368415
v 0.0877131671 0.108152755 0.0174368415
v 0.0539253838 0.135641143 0.0174368415
v 0.0124785183 0.150267407 0.139353767
v -0.031628307 0.150267407 0.139353767
v -0.031628307 0.150267392 0.0654678047
v 0.0124785202 0.150267407 0.0174368415
v -0.031628307 0.150267392 0.0174368415
f 1 2 3
f 4 1 5
f 1 3 5
f 3 6 5
f 6 7 5
f 3 8 9
f 3 9 10
f 3 10 6
f 9 11 10
f 12 13 6
f 14 12 6
f 10 14 6
f 14 15 12
f 10 16 14
f 16 17 14
f 10 18 16
f 19 20 21
f 22 23 24
f 23 22 21
f 24 25 22
f 21 26 19
f 26 21 22
f 27 19 26
f 26 22 25
f 26 28 27
f 29 27 28
f 26 30 28
f 26 31 30
f 28 32 29
f 32 28 30
f 33 29 32
f 34 30 31
f 30 34 32
f 32 35 33
f 35 32 34
f 36 33 35
f 34 37 35
f 34 38 37
f 35 39 36
f 39 35 37
f 40 36 39
f 41 37 38
f 37 41 39
f 38 42 41
f 39 43 40
f 43 39 41
f 44 40 43
f 45 41 42
f 41 45 43
f 42 46 45
f 43 47 44
f 47 43 45
f 48 44 47
f 49 45 46
f 45 49 47
f 47 50 48
f 50 47 49
f 51 48 50
f 49 46 52
f 49 53 50
f 51 50 53
f 51 54 55
f 53 56 51
f 54 51 56
f 56 57 54
f 58 59 60
f 61 60 59
f 58 60 62
f 61 63 60
f 64 58 62
f 61 65 63
f 64 62 66
f 65 67 63
f 64 66 68
f 65 69 67
f 70 64 68
f 69 71 67
f 70 68 72
f 69 73 71
f 74 70 72
f 73 75 71
f 74 72 76
f 73 77 75
f 78 74 76
f 77 79 75
f 78 76 80
f 77 81 79
f 82 78 80
f 81 83 79
f 82 80 84
f 81 85 83
f 86 82 84
f 85 87 83
f 86 84 88
f 85 89 87
f 90 86 88
f 89 91 87
f 90 88 92
f 89 93 91
f 93 90 92
f 93 92 91
f 94 95 52
f 49 52 95
f 95 96 49
f 52 97 94
f 98 94 97
f 53 49 96
f 97 99 98
f 100 98 99
f 97 52 46
f 99 101 100
f 102 100 101
f 99 97 42
f 46 42 97
f 101 99 38
f 42 38 99
f 101 103 102
f 104 102 103
f 38 34 101
f 103 101 34
f 103 105 104
f 106 104 105
f 34 31 103
f 105 103 31
f 105 107 106
f 108 106 107
f 31 26 105
f 107 105 26
f 107 109 108
f 110 108 109
f 26 25 107
f 109 107 25
f 109 111 110
f 112 110 111
f 25 24 109
f 111 109 24
f 24 113 111
f 112 111 113
f 114 115 116
f 114 117 118
f 119 118 117
f 119 120 121
f 115 114 122
f 122 123 115
f 118 122 114
f 118 119 124
f 121 124 119
f 125 121 120
f 120 112 125
f 125 126 127
f 128 127 126
f 126 125 112
f 112 113 126
f 126 129 128
f 20 128 129
f 23 126 113
f 126 23 129
f 113 24 23
f 129 21 20
f 21 129 23
f 130 131 132
f 133 134 132
f 134 133 135
f 136 130 132
f 135 137 134
f 137 135 138
f 139 132 134
f 132 139 136
f 140 134 137
f 134 140 139
f 138 141 137
f 141 138 142
f 143 136 139
f 139 144 143
f 144 139 140
f 136 143 145
f 140 146 144
f 145 147 136
f 130 136 147
f 147 145 148
f 146 140 149
f 137 149 140
f 149 137 141
f 149 150 146
f 150 149 151
f 141 151 149
f 151 152 150
f 151 141 153
f 142 153 141
f 153 142 154
f 152 151 155
f 153 155 151
f 155 156 152
f 154 157 153
f 155 153 157
f 157 154 158
f 156 155 159
f 157 159 155
f 159 160 156
f 158 161 157
f 159 157 161
f 161 158 162
f 160 159 163
f 161 163 159
f 163 164 160
f 162 165 161
f 163 161 165
f 165 162 166
f 164 163 167
f 165 167 163
f 167 168 164
f 167 165 166
f 168 167 169
f 166 169 167
f 169 166 170
f 170 171 169
f 171 170 172
f 172 173 171
f 173 172 174
f 174 175 173
f 175 174 176
f 177 178 176
f 176 179 175
f 179 176 178
f 178 180 179
f 181 182 183
f 184 181 185
f 181 186 185
f 186 187 185
f 181 183 186
f 188 189 186
f 190 188 186
f 183 190 186
f 190 191 188
f 183 192 193
f 183 193 194
f 183 194 190
f 193 195 194
f 194 196 190
f 196 197 190
f 194 198 196
f 131 130 147
f 147 199 131
f 148 200 147
f 200 148 201
f 199 147 200
f 202 203 201
f 201 204 200
f 204 201 203
f 203 205 204
