v 0.0483217388 -0.170542136 0.672304928
v 0.0482814722 -0.17074278 0.672225833
v 0.050837528 -0.164246172 0.653524101
v 0.0482814722 -0.17074278 0.672225833
v 0.0483217388 -0.170542136 0.672304928
v 0.0481695496 -0.171155199 0.673870206
v 0.0499643534 -0.170199975 0.678128242
v 0.0498147197 -0.170378491 0.678098857
v 0.050588198 -0.164440244 0.653054237
v 0.0498147197 -0.170378491 0.678098857
v 0.0499643534 -0.170199975 0.678128242
v 0.0499506071 -0.170721844 0.679801285
v 0.0129146958 -0.150506422 0.676123619
v 0.0127942059 -0.150698766 0.67608726
v 0.02088237 -0.14847368 0.654720128
v 0.0127942059 -0.150698766 0.67608726
v 0.0129146958 -0.150506422 0.676123619
v 0.0124073401 -0.150761619 0.677688837
v 0.01375686 -0.151496217 0.676403165
v 0.013689287 -0.151712909 0.676390171
v 0.0200266093 -0.148506746 0.654443324
v 0.0502337441 -0.16854623 0.664994657
v 0.0502505079 -0.168739006 0.664916515
v 0.0505334549 -0.164664716 0.654627979
v 0.0114841321 -0.152630597 0.675989628
v 0.0114776734 -0.152858272 0.675981224
v 0.0212064851 -0.14838244 0.654747963
v -0.153075472 -0.0475792922 0.512238204
v -0.152213633 -0.0462535918 0.511936963
v -0.151434168 -0.0491959229 0.508828044
v 0.013689287 -0.151712909 0.676390171
v 0.01375686 -0.151496217 0.676403165
v 0.0133554759 -0.151809022 0.678015292
v 0.0172198731 -0.156514227 0.67862916
v 0.0173709914 -0.156346619 0.678694129
v 0.016966816 -0.156743988 0.680310369
v 0.0194376707 -0.155424029 0.672700047
v 0.0195323732 -0.155237392 0.672771931
v 0.0192394629 -0.15575923 0.674331248
v 0.0114776734 -0.152858272 0.675981224
v 0.0114841321 -0.152630597 0.675989628
v 0.0109161781 -0.152997479 0.677516282
v 0.0582418367 -0.175732866 0.677007616
v 0.0582678057 -0.17552489 0.677102268
v 0.0585293658 -0.176237747 0.678673089
v 0.0502505079 -0.168739006 0.664916515
v 0.0502337441 -0.16854623 0.664994657
v 0.0502984449 -0.16915527 0.666484773
v 0.0183837712 -0.147758648 0.681520343
v 0.018419737 -0.14752306 0.681482017
v 0.018099295 -0.14773269 0.683171749
v -0.148069784 -0.04980959 0.505544722
v -0.151434168 -0.0491959229 0.508828044
v -0.152213633 -0.0462535918 0.511936963
v -0.157616958 -0.0455730036 0.528830528
v -0.156302705 -0.0426778607 0.5292027
v -0.155834943 -0.045897793 0.523618162
v -0.152213633 -0.0462535918 0.511936963
v -0.153075472 -0.0475792922 0.512238204
v -0.156302705 -0.0426778607 0.5292027
v -0.153075472 -0.0475792922 0.512238204
v -0.155834943 -0.045897793 0.523618162
v -0.156302705 -0.0426778607 0.5292027
v -0.157752648 -0.037164554 0.544668794
v -0.157864541 -0.0373757705 0.544756353
v -0.158084765 -0.0368493348 0.546004593
v -0.169611529 -0.0874357149 0.542402089
v -0.16971007 -0.0872248411 0.542501092
v -0.164077044 -0.0764958411 0.526404023
v -0.16971007 -0.0872248411 0.542501092
v -0.169611529 -0.0874357149 0.542402089
v -0.17004028 -0.0878968239 0.543692768
v 0.0593337305 -0.171288371 0.68038702
v 0.0595389605 -0.171143204 0.680358112
v 0.0597190894 -0.171660662 0.68206358
v -0.157864541 -0.0373757705 0.544756353
v -0.157752648 -0.037164554 0.544668794
v -0.1519804 -0.0461982116 0.527486205
v -0.156397909 -0.0393633582 0.545088947
v -0.15624705 -0.039175909 0.545039415
v -0.152149811 -0.0455252528 0.52741909
v -0.159236133 -0.0466354638 0.543032825
v -0.159120291 -0.0464336686 0.543044865
v -0.151943624 -0.0457678251 0.527763784
v -0.159120291 -0.0464336686 0.543044865
v -0.159236133 -0.0466354638 0.543032825
v -0.15960291 -0.0465307608 0.544373989
v -0.16834721 -0.0806424618 0.548206687
v -0.168302774 -0.0808834061 0.548155069
v -0.168720737 -0.0810620934 0.549547255
v -0.15624705 -0.039175909 0.545039415
v -0.156397909 -0.0393633582 0.545088947
v -0.156542405 -0.0390518755 0.54641062
v -0.168302774 -0.0808834061 0.548155069
v -0.16834721 -0.0806424618 0.548206687
v -0.163577765 -0.0766618773 0.526117384
v 0.0126428064 -0.149404511 0.681829751
v 0.0124308821 -0.149521098 0.68176496
v 0.0206689835 -0.148151904 0.653858542
v -0.160487548 -0.0358517319 0.54823792
v -0.160549834 -0.0360865146 0.548336864
v -0.160858601 -0.0355216078 0.549610078
v 0.051614169 -0.168700919 0.677214622
v 0.0513919033 -0.16880627 0.677233398
v 0.0504451804 -0.163828269 0.653358161
v -0.152727529 -0.0478399135 0.522599697
v -0.156178281 -0.0472284555 0.532399654
v -0.154974058 -0.0437058024 0.530306101
v 0.018419737 -0.14752306 0.681482017
v 0.0183837712 -0.147758648 0.681520343
v 0.0205662809 -0.148566633 0.654112756
v 0.0173709914 -0.156346619 0.678694129
v 0.0172198731 -0.156514227 0.67862916
v 0.0208090395 -0.14895016 0.654441059
v -0.174297884 -0.0858201236 0.545696855
v -0.174365669 -0.0860267729 0.545591176
v -0.174835548 -0.0863766149 0.546945691
v -0.174365669 -0.0860267729 0.545591176
v -0.174297884 -0.0858201236 0.545696855
v -0.163858294 -0.0771105736 0.52572751
v 0.053673774 -0.176662087 0.67986238
v 0.0538941845 -0.176539928 0.679853857
v 0.0539833494 -0.177114293 0.681548893
v -0.160549834 -0.0360865146 0.548336864
v -0.160487548 -0.0358517319 0.54823792
v -0.151976243 -0.0460922383 0.526822627
v 0.016748108 -0.155753732 0.674297869
v 0.0169335287 -0.155633539 0.674386561
v 0.0164924972 -0.156044811 0.675939262
v -0.165497512 -0.0814158693 0.549951494
v -0.165510282 -0.0816611573 0.54989928
v -0.165690318 -0.0818338096 0.55132097
v -0.159333616 -0.0454701632 0.542087615
v -0.159176946 -0.0453055464 0.542102695
v -0.152089387 -0.0459154062 0.527883053
v 0.0195323732 -0.155237392 0.672771931
v 0.0194376707 -0.155424029 0.672700047
v 0.0207060091 -0.148779333 0.655056536
v -0.159176946 -0.0453055464 0.542102695
v -0.159333616 -0.0454701632 0.542087615
v -0.15970023 -0.0453240201 0.543414116
v -0.155500621 -0.0383510962 0.544842601
v -0.155308723 -0.0382076092 0.54478997
v -0.152540684 -0.0456889495 0.527375758
v 0.0124308821 -0.149521098 0.68176496
v 0.0126428064 -0.149404511 0.681829751
v 0.0121505959 -0.149587303 0.683460891
v -0.165510282 -0.0816611573 0.54989928
v -0.165497512 -0.0814158693 0.549951494
v -0.163765922 -0.0770953 0.525559187
v -0.155308723 -0.0382076092 0.54478997
v -0.155500621 -0.0383510962 0.544842601
v -0.155618832 -0.0379832722 0.546144962
v 0.0513919033 -0.16880627 0.677233398
v 0.051614169 -0.168700919 0.677214622
v 0.0516582429 -0.169145167 0.678897321
v 0.00974479318 -0.155053869 0.680375576
v 0.00979921501 -0.15528582 0.680383384
v 0.021491887 -0.148088276 0.654273152
v -0.151623592 -0.0431546196 0.549199283
v -0.151748031 -0.043368075 0.54926157
v -0.151762754 -0.0430872813 0.550604761
v -0.165368259 -0.0820254833 0.545605898
v -0.1654329 -0.0822477415 0.545545459
v -0.165604994 -0.0824956745 0.54691422
v 0.0201862492 -0.151931792 0.683980227
v 0.0204107855 -0.151829958 0.684030354
v 0.0200237427 -0.152048454 0.685708821
v -0.173257306 -0.0520079136 0.546694696
v -0.16690132 -0.0495428033 0.539351285
v -0.16900146 -0.053902939 0.542363346
v -0.16900146 -0.053902939 0.542363346
v -0.175582394 -0.0564629138 0.550002992
v -0.173257306 -0.0520079136 0.546694696
v -0.151748031 -0.043368075 0.54926157
v -0.151623592 -0.0431546196 0.549199283
v -0.15225625 -0.0456021354 0.526969612
v -0.1654329 -0.0822477415 0.545545459
v -0.165368259 -0.0820254833 0.545605898
v -0.164207861 -0.0772472396 0.52610147
v 0.0595389605 -0.171143204 0.680358112
v 0.0593337305 -0.171288371 0.68038702
v 0.0506317616 -0.163754314 0.652709603
v 0.00979921501 -0.15528582 0.680383384
v 0.00974479318 -0.155053869 0.680375576
v 0.0091862455 -0.155505493 0.681949079
v -0.151434168 -0.0491959229 0.508828044
v -0.148069784 -0.04980959 0.505544722
v -0.149221525 -0.0503818616 0.507036507
v -0.159262076 -0.0393962748 0.547984719
v -0.159258097 -0.0396401808 0.548050761
v -0.159486979 -0.0392453857 0.549379826
v -0.180180416 -0.0469894707 0.549850762
v -0.168016493 -0.0415992588 0.538018405
v -0.171926692 -0.0492779128 0.542700171
v -0.159258097 -0.0396401808 0.548050761
v -0.159262076 -0.0393962748 0.547984719
v -0.152222544 -0.0456462428 0.527103186
v -0.167282984 -0.0429668017 0.534548879
v -0.162662208 -0.0415112637 0.532254219
v -0.157616958 -0.0455730036 0.528830528
v 0.0514373519 -0.166033864 0.668317556
v 0.0512079 -0.166087478 0.668347239
v 0.0507591814 -0.164181903 0.654187799
v -0.157616958 -0.0455730036 0.528830528
v -0.155834943 -0.045897793 0.523618162
v -0.155534327 -0.0481553786 0.524202943
v 0.0169335287 -0.155633539 0.674386561
v 0.016748108 -0.155753732 0.674297869
v 0.0206770059 -0.148876578 0.65482831
v -0.175945714 -0.0817193836 0.547913074
v -0.175791442 -0.0819163397 0.54790622
v -0.176358387 -0.0820837542 0.549284816
v -0.152391359 -0.0508080907 0.513091266
v -0.155534327 -0.0481553786 0.524202943
v -0.155834943 -0.045897793 0.523618162
v 0.0204107855 -0.151829958 0.684030354
v 0.0201862492 -0.151931792 0.683980227
v 0.0215197206 -0.148550972 0.65418607
v -0.160745457 -0.0434688181 0.546910048
v -0.160542846 -0.0433487408 0.546909094
v -0.15260908 -0.0458919257 0.527236581
v -0.167491943 -0.0824148357 0.544815183
v -0.167601809 -0.0826044008 0.5447402
v -0.167950422 -0.0828645155 0.54609704
v -0.162662208 -0.0415112637 0.532254219
v -0.156302705 -0.0426778607 0.5292027
v -0.157616958 -0.0455730036 0.528830528
v 0.0153009258 -0.155404747 0.677118659
v 0.0155223003 -0.15532741 0.6771999
v 0.0150643056 -0.155610219 0.678791583
v 0.0582678057 -0.17552489 0.677102268
v 0.0582418367 -0.175732866 0.677007616
v 0.0503181145 -0.164064363 0.652946353
v -0.175791442 -0.0819163397 0.54790622
v -0.175945714 -0.0817193836 0.547913074
v -0.163839057 -0.077291809 0.525660932
v -0.167601809 -0.0826044008 0.5447402
v -0.167491943 -0.0824148357 0.544815183
v -0.163155317 -0.077494137 0.526326776
v -0.160542846 -0.0433487408 0.546909094
v -0.160745457 -0.0434688181 0.546910048
v -0.16101335 -0.0432543159 0.548277199
v -0.15162693 -0.0458629653 0.525179446
v -0.152299449 -0.0462515727 0.525275767
v -0.156391516 -0.0421855524 0.547723532
v -0.151434168 -0.0491959229 0.508828044
v -0.152391359 -0.0508080907 0.513091266
v -0.153075472 -0.0475792922 0.512238204
v 0.0550828278 -0.166515395 0.682304323
v 0.0550132096 -0.166292146 0.682326913
v 0.0552321635 -0.166713506 0.684052169
v -0.15673767 -0.0464439578 0.547195613
v -0.15676415 -0.0462030247 0.547150016
v -0.152456731 -0.0464531332 0.52749306
v 0.0512079 -0.166087478 0.668347239
v 0.0514373519 -0.166033864 0.668317556
v 0.0514478087 -0.166321516 0.669933796
v 0.0159158763 -0.148759618 0.673267484
v 0.0156905204 -0.148820177 0.673198044
v 0.0207264982 -0.148376495 0.655134141
v -0.15676415 -0.0462030247 0.547150016
v -0.15673767 -0.0464439578 0.547195613
v -0.156968504 -0.0461411029 0.548531175
v -0.183867857 -0.0529417694 0.556533635
v -0.173257306 -0.0520079136 0.546694696
v -0.175582394 -0.0564629138 0.550002992
v -0.171926692 -0.0492779128 0.542700171
v -0.182924375 -0.0497411825 0.553538561
v -0.180180416 -0.0469894707 0.549850762
v -0.173257306 -0.0520079136 0.546694696
v -0.183867857 -0.0529417694 0.556533635
v -0.178294241 -0.0504083298 0.550773561
v -0.155834943 -0.045897793 0.523618162
v -0.153075472 -0.0475792922 0.512238204
v -0.152391359 -0.0508080907 0.513091266
v 0.0119975898 -0.102184571 0.5265131
v 0.0119803688 -0.102395907 0.526506066
v 0.0116340527 -0.0956339166 0.500393927
v -0.169552594 -0.0866414383 0.54831636
v -0.169727921 -0.086462453 0.548339844
v -0.163859099 -0.0770385265 0.525719941
v 0.0538941845 -0.176539928 0.679853857
v 0.053673774 -0.176662087 0.67986238
v 0.0504376292 -0.164053828 0.652747512
v -0.171926692 -0.0492779128 0.542700171
v -0.154974058 -0.0437058024 0.530306101
v -0.16690132 -0.0495428033 0.539351285
v -0.169727921 -0.086462453 0.548339844
v -0.169552594 -0.0866414383 0.54831636
v -0.170049325 -0.0868892148 0.549703538
v 0.0156905204 -0.148820177 0.673198044
v 0.0159158763 -0.148759618 0.673267484
v 0.0154780252 -0.148908943 0.674821198
v -0.168016493 -0.0415992588 0.538018405
v -0.180180416 -0.0469894707 0.549850762
v -0.171920851 -0.0424827673 0.541522801
v 0.0550132096 -0.166292146 0.682326913
v 0.0550828278 -0.166515395 0.682304323
v 0.0508596413 -0.164708138 0.65241307
v 0.0155223003 -0.15532741 0.6771999
v 0.0153009258 -0.155404747 0.677118659
v 0.0205545649 -0.149056196 0.654522181
v -0.157501817 -0.0421300307 0.538404167
v -0.157452732 -0.042341914 0.538489521
v -0.15783827 -0.0418921672 0.539681256
v -0.157452732 -0.042341914 0.538489521
v -0.157501817 -0.0421300307 0.538404167
v -0.152708918 -0.0455042012 0.528044283
v -0.157616958 -0.0455730036 0.528830528
v -0.165602148 -0.0470315889 0.534762383
v -0.167282984 -0.0429668017 0.534548879
v -0.163791209 -0.0413855128 0.535190821
v -0.171926692 -0.0492779128 0.542700171
v -0.168016493 -0.0415992588 0.538018405
v 0.0119803688 -0.102395907 0.526506066
v 0.0119975898 -0.102184571 0.5265131
v 0.0118327569 -0.102553733 0.528081238
v -0.168671042 -0.0442681313 0.535598159
v -0.167282984 -0.0429668017 0.534548879
v -0.167394683 -0.0458385833 0.5352754
v 0.0131698474 -0.10184896 0.527216792
v 0.0132189384 -0.102057219 0.527210712
v 0.0115649877 -0.0958929434 0.500213146
v -0.156302705 -0.0426778607 0.5292027
v -0.162662208 -0.0415112637 0.532254219
v -0.159268171 -0.0416923612 0.530531585
v -0.170164436 -0.0566947535 0.5478912
v -0.163826525 -0.0542012826 0.540541351
v -0.166329041 -0.0577595755 0.544866264
v 0.0216244627 -0.15083681 0.669399977
v 0.0218538269 -0.150787994 0.669418037
v 0.0216469299 -0.150979087 0.671005309
v -0.171926692 -0.0492779128 0.542700171
v -0.163791209 -0.0413855128 0.535190821
v -0.154974058 -0.0437058024 0.530306101
v -0.160044536 -0.0429035053 0.543387175
v -0.159832001 -0.0428365879 0.543412447
v -0.152294114 -0.0460887998 0.527730048
v -0.150637895 -0.0396819934 0.544690192
v -0.150597483 -0.03991393 0.544765472
v -0.150564611 -0.039419543 0.545984626
v -0.159832001 -0.0428365879 0.543412447
v -0.160044536 -0.0429035053 0.543387175
v -0.160374343 -0.0426951349 0.544721901
v 0.00651039695 -0.0991839767 0.522852182
v 0.00657032477 -0.0989833102 0.522859097
v 0.00635125814 -0.0993018374 0.524390578
v -0.150597483 -0.03991393 0.544765472
v -0.150637895 -0.0396819934 0.544690192
v -0.152378812 -0.046051573 0.527328849
v 0.0150606241 -0.146154985 0.675992429
v 0.0148209445 -0.146161616 0.675899863
v 0.0210024957 -0.14874889 0.654554486
v 0.0514713824 -0.173875034 0.675817549
v 0.0516010448 -0.174042672 0.675719619
v 0.0505233072 -0.164212376 0.653311372
v -0.166934326 -0.0836662203 0.544622719
v -0.16708836 -0.0838180259 0.544552922
v -0.167350635 -0.0841623917 0.545896649
v -0.154363528 -0.0378324762 0.54946053
v -0.15412356 -0.0377916284 0.549439192
v -0.1520717 -0.0461389348 0.526989758
v -0.167394683 -0.0458385833 0.5352754
v -0.167282984 -0.0429668017 0.534548879
v -0.165602148 -0.0470315889 0.534762383
v 0.0218538269 -0.150787994 0.669418037
v 0.0216244627 -0.15083681 0.669399977
v 0.0211048666 -0.148858622 0.655693352
v -0.16708836 -0.0838180259 0.544552922
v -0.166934326 -0.0836662203 0.544622719
v -0.163464308 -0.0774453133 0.526168764
v 0.0132189384 -0.102057219 0.527210712
v 0.0131698474 -0.10184896 0.527216792
v 0.0130809527 -0.102249682 0.528798223
v -0.180493429 -0.0577512793 0.557514369
v -0.175582394 -0.0564629138 0.550002992
v -0.177462563 -0.0626507625 0.559009016
v -0.175582394 -0.0564629138 0.550002992
v -0.180493429 -0.0577512793 0.557514369
v -0.183867857 -0.0529417694 0.556533635
v 0.0539053492 -0.169119045 0.680159867
v 0.0537890531 -0.168934897 0.680246234
v 0.0540270843 -0.169549152 0.681871712
v 0.0134595847 -0.154315129 0.679992676
v 0.013566277 -0.154530659 0.680031598
v 0.0206155218 -0.148540065 0.654276967
v 0.00657032477 -0.0989833102 0.522859097
v 0.00651039695 -0.0991839767 0.522852182
v 0.0105198361 -0.0955787525 0.500557423
v 0.0148209445 -0.146161616 0.675899863
v 0.0150606241 -0.146154985 0.675992429
v 0.0145664513 -0.146053493 0.677491367
v 0.0502961241 -0.16383487 0.650508285
v 0.0499697328 -0.163229734 0.650802672
v 0.0544414818 -0.171858132 0.677787185
v -0.178294241 -0.0504083298 0.550773561
v -0.171926692 -0.0492779128 0.542700171
v -0.173257306 -0.0520079136 0.546694696
v -0.15412356 -0.0377916284 0.549439192
v -0.154363528 -0.0378324762 0.54946053
v -0.154469743 -0.0375684537 0.550839603
v -0.16690132 -0.0495428033 0.539351285
v -0.154974058 -0.0437058024 0.530306101
v -0.156178281 -0.0472284555 0.532399654
v -0.155534327 -0.0481553786 0.524202943
v -0.156484202 -0.048119463 0.530460477
v -0.157616958 -0.0455730036 0.528830528
v 0.0601054281 -0.171378255 0.673208416
v 0.0603320338 -0.171312168 0.673086703
v 0.0607369542 -0.17179358 0.674673557
v -0.156178281 -0.0472284555 0.532399654
v -0.16900146 -0.053902939 0.542363346
v -0.16690132 -0.0495428033 0.539351285
v -0.152391359 -0.0508080907 0.513091266
v -0.156484202 -0.048119463 0.530460477
v -0.155534327 -0.0481553786 0.524202943
v 0.013566277 -0.154530659 0.680031598
v 0.0134595847 -0.154315129 0.679992676
v 0.0131360013 -0.154696554 0.681665778
v -0.183213383 -0.0559578016 0.558454931
v -0.183867857 -0.0529417694 0.556533635
v -0.180493429 -0.0577512793 0.557514369
v 0.014203121 -0.101171032 0.528577507
v 0.0143154636 -0.101360172 0.528573453
v 0.0109652188 -0.0957074463 0.500092864
v -0.166329041 -0.0577595755 0.544866264
v -0.171781033 -0.0602793023 0.553292036
v -0.170164436 -0.0566947535 0.5478912
v -0.177462563 -0.0626507625 0.559009016
v -0.180249497 -0.0604505874 0.559600234
v -0.180493429 -0.0577512793 0.557514369
v 0.0516010448 -0.174042672 0.675719619
v 0.0514713824 -0.173875034 0.675817549
v 0.0516685657 -0.174546361 0.677387357
v -0.159786835 -0.0416526124 0.545747519
v -0.159896001 -0.0414484106 0.545681536
v -0.152751848 -0.0456596091 0.527302563
v -0.159896001 -0.0414484106 0.545681536
v -0.159786835 -0.0416526124 0.545747519
v -0.160136595 -0.0412474275 0.547042191
v 0.0513542593 -0.174065217 0.675764859
v 0.0516010448 -0.174042672 0.675719619
v 0.0516684465 -0.174547225 0.677387059
v -0.15319787 -0.0409007743 0.542492688
v -0.15310508 -0.0411111973 0.542549133
v -0.153317317 -0.0407068096 0.543812871
v -0.171781033 -0.0602793023 0.553292036
v -0.166329041 -0.0577595755 0.544866264
v -0.16938214 -0.063354075 0.554025531
v 0.0539053492 -0.169119045 0.680159867
v 0.0536560081 -0.169128343 0.680223286
v 0.0506217778 -0.16351153 0.653054953
v -0.152391359 -0.0508080907 0.513091266
v -0.151434168 -0.0491959229 0.508828044
v -0.149221525 -0.0503818616 0.507036507
v 0.00578491529 -0.0998680741 0.520177364
v 0.00577954715 -0.0996630266 0.520184875
v 0.0054653082 -0.100030214 0.521656632
v 0.0537890531 -0.168934897 0.680246234
v 0.0539053492 -0.169119045 0.680159867
v 0.0506217778 -0.16351153 0.653054953
v -0.15310508 -0.0411111973 0.542549133
v -0.15319787 -0.0409007743 0.542492688
v -0.152041912 -0.045731049 0.527800322
v 0.0207852777 -0.153038919 0.678980231
v 0.0206612516 -0.152836531 0.678948522
v 0.0204472654 -0.153219596 0.68062222
v -0.177462563 -0.0626507625 0.559009016
v -0.171781033 -0.0602793023 0.553292036
v -0.17365478 -0.063790679 0.557121456
v -0.0727998987 -0.0276879538 0.566171944
v -0.0725767463 -0.0277038813 0.56626761
v -0.05915609 -0.0305252336 0.544328213
v -0.0725767463 -0.0277038813 0.56626761
v -0.0727998987 -0.0276879538 0.566171944
v -0.0732997805 -0.0276566315 0.567589581
v -0.178294241 -0.0504083298 0.550773561
v -0.183867857 -0.0529417694 0.556533635
v -0.182924375 -0.0497411825 0.553538561
v -0.0695857927 -0.0297034495 0.56591028
v -0.0693546459 -0.0296626855 0.565945745
v -0.0602908507 -0.0307552554 0.544376194
v 0.0205384735 -0.153030768 0.678924203
v 0.0207852777 -0.153038919 0.678980231
v 0.0204472523 -0.153220609 0.68062228
v 0.0143154636 -0.101360172 0.528573453
v 0.014203121 -0.101171032 0.528577507
v 0.0141923092 -0.101571754 0.530178428
v 0.0603320338 -0.171312168 0.673086703
v 0.0601054281 -0.171378255 0.673208416
v 0.0505253822 -0.164261803 0.653091013
v -0.0693546459 -0.0296626855 0.565945745
v -0.0695857927 -0.0297034495 0.56591028
v -0.0698576719 -0.0297224708 0.567351699
v 0.00553817349 -0.097519286 0.526700795
v 0.00571122812 -0.0973795354 0.526727319
v 0.00540009979 -0.0976021588 0.528278351
v 0.00783781707 -0.1030204 0.52337122
v 0.00762542244 -0.103084259 0.52331984
v 0.0115002561 -0.0957565531 0.500617743
v -0.069828786 -0.0270355586 0.562483609
v -0.0696180016 -0.0271075424 0.562581122
v -0.0595693588 -0.0305477064 0.544727325
v 0.00577954715 -0.0996630266 0.520184875
v 0.00578491529 -0.0998680741 0.520177364
v 0.011303979 -0.0955310017 0.500957429
v -0.162915722 -0.0480283238 0.533903658
v -0.165602148 -0.0470315889 0.534762383
v -0.159533352 -0.048506584 0.532256782
v -0.0696180016 -0.0271075424 0.562581122
v -0.069828786 -0.0270355586 0.562483609
v -0.0702885091 -0.0269921497 0.563863814
v 0.0536560081 -0.169128343 0.680223286
v 0.0539053492 -0.169119045 0.680159867
v 0.0540268347 -0.16955024 0.681871474
v -0.16938214 -0.063354075 0.554025531
v -0.17365478 -0.063790679 0.557121456
v -0.171781033 -0.0602793023 0.553292036
v -0.155570596 -0.0459100753 0.551303148
v -0.155704916 -0.0457062498 0.551262379
v -0.152394846 -0.0460407101 0.526995718
v 0.0550828278 -0.166515395 0.682304323
v 0.0548371412 -0.166468516 0.682368577
v 0.0508596413 -0.164708138 0.65241307
v -0.157616958 -0.0455730036 0.528830528
v -0.159533352 -0.048506584 0.532256782
v -0.165602148 -0.0470315889 0.534762383
v -0.155704916 -0.0457062498 0.551262379
v -0.155570596 -0.0459100753 0.551303148
v -0.155845463 -0.0455647744 0.552668333
v 0.00571122812 -0.0973795354 0.526727319
v 0.00553817349 -0.097519286 0.526700795
v 0.011059463 -0.095808275 0.500162899
v -0.159896001 -0.0414484106 0.545681536
v -0.159667656 -0.0414417461 0.545699716
v -0.152751848 -0.0456596091 0.527302563
v -0.155464992 -0.0456833765 0.551254332
v -0.155704916 -0.0457062498 0.551262379
v -0.155845359 -0.0455635376 0.552668035
v 0.0207852777 -0.153038919 0.678980231
v 0.0205384735 -0.153030768 0.678924203
v 0.0208764672 -0.148847669 0.654708505
v -0.159699664 -0.0453247465 0.543414295
v -0.15970023 -0.0453240201 0.543414116
v -0.159333616 -0.0454701632 0.542087615
v -0.15970023 -0.0453240201 0.543414116
v -0.159699306 -0.0453239195 0.543414295
v -0.159176946 -0.0453055464 0.542102695
v -0.159667656 -0.0414417461 0.545699716
v -0.159896001 -0.0414484106 0.545681536
v -0.160136536 -0.0412463583 0.547041833
v 0.0133196414 -0.154500216 0.679950416
v 0.013566277 -0.154530659 0.680031598
v 0.0131357694 -0.154697493 0.681665719
v -0.0630757213 -0.0334262587 0.565068185
v -0.0633007437 -0.0334852338 0.565047681
v -0.0634999052 -0.0335611179 0.566474795
v 0.00762542244 -0.103084259 0.52331984
v 0.00783781707 -0.1030204 0.52337122
v 0.00754111214 -0.103341624 0.524887443
v -0.155704916 -0.0457062498 0.551262379
v -0.155464992 -0.0456833765 0.551254332
v -0.152394846 -0.0460407101 0.526995718
v 0.0206612516 -0.152836531 0.678948522
v 0.0207852777 -0.153038919 0.678980231
v 0.0208764672 -0.148847669 0.654708505
v -0.0633007437 -0.0334852338 0.565047681
v -0.0630757213 -0.0334262587 0.565068185
v -0.0597788803 -0.0310388431 0.544734359
v 0.0150606241 -0.146154985 0.675992429
v 0.0149364043 -0.145955369 0.675871134
v 0.0145665891 -0.14605242 0.67749095
v -0.15319787 -0.0409007743 0.542492688
v -0.152970269 -0.0409179814 0.542489767
v -0.152041912 -0.045731049 0.527800322
v 0.0149364043 -0.145955369 0.675871134
v 0.0150606241 -0.146154985 0.675992429
v 0.0210024957 -0.14874889 0.654554486
v -0.0687737316 -0.0316942297 0.563530147
v -0.0685997307 -0.0315489918 0.563548923
v -0.060156282 -0.0303230248 0.544641018
v -0.0685997307 -0.0315489918 0.563548923
v -0.0687737316 -0.0316942297 0.563530147
v -0.0690901875 -0.0316840149 0.564935923
v 0.0548371412 -0.166468516 0.682368577
v 0.0550828278 -0.166515395 0.682304323
v 0.0552316904 -0.166714609 0.684052289
v 0.0516010448 -0.174042672 0.675719619
v 0.0513542593 -0.174065217 0.675764859
v 0.0505233072 -0.164212376 0.653311372
v -0.16690132 -0.0495428033 0.539351285
v -0.173257306 -0.0520079136 0.546694696
v -0.171926692 -0.0492779128 0.542700171
v -0.152970269 -0.0409179814 0.542489767
v -0.15319787 -0.0409007743 0.542492688
v -0.153317094 -0.0407059155 0.543812573
v -0.159533352 -0.048506584 0.532256782
v -0.157616958 -0.0455730036 0.528830528
v -0.156484202 -0.048119463 0.530460477
v -0.166867733 -0.0838959962 0.5445593
v -0.16708836 -0.0838180259 0.544552922
v -0.163464308 -0.0774453133 0.526168764
v -0.16900146 -0.053902939 0.542363346
v -0.156178281 -0.0472284555 0.532399654
v -0.163826525 -0.0542012826 0.540541351
v -0.160044536 -0.0429035053 0.543387175
v -0.159897193 -0.0430667475 0.543459356
v -0.160374165 -0.0426961072 0.544722199
v -0.159897193 -0.0430667475 0.543459356
v -0.160044536 -0.0429035053 0.543387175
v -0.152294114 -0.0460887998 0.527730048
v 0.013566277 -0.154530659 0.680031598
v 0.0133196414 -0.154500216 0.679950416
v 0.0206155218 -0.148540065 0.654276967
v -0.0665963665 -0.0252994429 0.56741327
v -0.0667576641 -0.025478486 0.567435384
v -0.0670087263 -0.0253375173 0.568860471
v -0.16708836 -0.0838180259 0.544552922
v -0.166867733 -0.0838959962 0.5445593
v -0.167349979 -0.0841633305 0.545896471
v -0.0667576641 -0.025478486 0.567435384
v -0.0665963665 -0.0252994429 0.56741327
v -0.0598000214 -0.0300184414 0.543979704
v -0.152268752 -0.0478032641 0.531352997
v -0.163826525 -0.0542012826 0.540541351
v -0.156178281 -0.0472284555 0.532399654
v -0.0647811592 -0.0352163464 0.560844123
v -0.0649932027 -0.035110265 0.5608055
v -0.0653076023 -0.0354811959 0.562179148
v -0.154363528 -0.0378324762 0.54946053
v -0.154216096 -0.0380219631 0.54951328
v -0.154469743 -0.0375694744 0.550839961
v 0.0603320338 -0.171312168 0.673086703
v 0.0601977557 -0.171170086 0.673231542
v 0.0607368611 -0.171792701 0.674673975
v -0.154216096 -0.0380219631 0.54951328
v -0.154363528 -0.0378324762 0.54946053
v -0.1520717 -0.0461389348 0.526989758
v 0.0514373519 -0.166033864 0.668317556
v 0.0512776934 -0.165882021 0.668355644
v 0.0514477193 -0.166320637 0.669933915
v -0.0649932027 -0.035110265 0.5608055
v -0.0647811592 -0.0352163464 0.560844123
v -0.0598147511 -0.0301891696 0.545014143
v 0.00539943483 -0.0976012349 0.528278112
v 0.00540009979 -0.0976021588 0.528278351
v 0.00571122812 -0.0973795354 0.526727319
v -0.062617518 -0.032282833 0.569289088
v -0.0627902448 -0.0324478224 0.569297373
v -0.0629907697 -0.0324225463 0.570749998
v -0.0627902448 -0.0324478224 0.569297373
v -0.062617518 -0.032282833 0.569289088
v -0.0594587885 -0.0308810435 0.544255018
v -0.0679629818 -0.0329212546 0.561159194
v -0.0678396821 -0.0327386633 0.56118536
v -0.0598839559 -0.0306546874 0.544979274
v -0.0590302832 -0.0307006221 0.542549014
v -0.0595069416 -0.0300692301 0.542343438
v -0.0655673966 -0.0301196855 0.56564039
v -0.0486060902 -0.0701264888 0.545113921
v -0.0510624461 -0.0667013824 0.543324172
v -0.0481302999 -0.0670185685 0.544501603
v -0.0678396821 -0.0327386633 0.56118536
v -0.0679629818 -0.0329212546 0.561159194
v -0.0683531538 -0.0329608545 0.562538505
v 0.0512776934 -0.165882021 0.668355644
v 0.0514373519 -0.166033864 0.668317556
v 0.0507591814 -0.164181903 0.654187799
v -0.0500272661 -0.0732697323 0.545903981
v -0.0510624461 -0.0667013824 0.543324172
v -0.0486060902 -0.0701264888 0.545113921
v 0.0218538269 -0.150787994 0.669418037
v 0.0216901079 -0.150629178 0.669398308
v 0.0216467641 -0.150978282 0.671005249
v -0.0510624461 -0.0667013824 0.543324172
v -0.0500272661 -0.0732697323 0.545903981
v -0.0534486696 -0.0767455548 0.546704352
v -0.150637895 -0.0396819934 0.544690192
v -0.150413558 -0.0397651568 0.544666827
v -0.152378812 -0.046051573 0.527328849
v -0.0679230392 -0.0337718911 0.564854324
v -0.0680684298 -0.0335744284 0.564798713
v -0.0684948713 -0.0337887295 0.566212773
v -0.046378728 -0.0534193181 0.521132946
v -0.04610065 -0.0594466925 0.527066112
v -0.0477423854 -0.0569719411 0.523639262
v -0.0553140789 -0.0774381533 0.54721266
v -0.056468375 -0.0734895393 0.546922863
v -0.0534486696 -0.0767455548 0.546704352
v -0.163826525 -0.0542012826 0.540541351
v -0.152268752 -0.0478032641 0.531352997
v -0.154850259 -0.054929208 0.538650393
v -0.166329041 -0.0577595755 0.544866264
v -0.154850259 -0.054929208 0.538650393
v -0.15731591 -0.0578097925 0.542158306
v -0.0680684298 -0.0335744284 0.564798713
v -0.0679230392 -0.0337718911 0.564854324
v -0.0597842038 -0.0306834523 0.544628561
v -0.157501817 -0.0421300307 0.538404167
v -0.157299533 -0.0421727151 0.538458705
v -0.152708918 -0.0455042012 0.528044283
v -0.157299533 -0.0421727151 0.538458705
v -0.157501817 -0.0421300307 0.538404167
v -0.157837987 -0.0418913327 0.539681017
v -0.177462563 -0.0626507625 0.559009016
v -0.170164436 -0.0566947535 0.5478912
v -0.171781033 -0.0602793023 0.553292036
v -0.154850259 -0.054929208 0.538650393
v -0.166329041 -0.0577595755 0.544866264
v -0.163826525 -0.0542012826 0.540541351
v 0.0143154636 -0.101360172 0.528573453
v 0.01407969 -0.101354018 0.52857089
v 0.0109652188 -0.0957074463 0.500092864
v -0.165686876 -0.0622834787 0.550959229
v -0.15731591 -0.0578097925 0.542158306
v -0.160408869 -0.0599242561 0.545975745
v -0.0470688157 -0.0733589008 0.560262978
v -0.0470701717 -0.0735526904 0.560141206
v -0.0497169457 -0.0616182722 0.543609023
v 0.0159158763 -0.148759618 0.673267484
v 0.0157398991 -0.148601457 0.673194468
v 0.015477825 -0.148907959 0.674821019
v -0.0510624461 -0.0667013824 0.543324172
v -0.0534486696 -0.0767455548 0.546704352
v -0.056468375 -0.0734895393 0.546922863
v -0.170164436 -0.0566947535 0.5478912
v -0.177462563 -0.0626507625 0.559009016
v -0.175582394 -0.0564629138 0.550002992
v -0.150413558 -0.0397651568 0.544666827
v -0.150637895 -0.0396819934 0.544690192
v -0.150564149 -0.0394187197 0.545984209
v -0.182924375 -0.0497411825 0.553538561
v -0.171926692 -0.0492779128 0.542700171
v -0.178294241 -0.0504083298 0.550773561
v 0.00957109872 -0.155192271 0.680261731
v 0.00979921501 -0.15528582 0.680383384
v 0.00918583758 -0.155506328 0.681948781
v -0.0681501329 -0.0337924212 0.564799726
v -0.0680684298 -0.0335744284 0.564798713
v -0.0597842038 -0.0306834523 0.544628561
v -0.0550626181 -0.0674156845 0.54596597
v -0.0532496721 -0.0648111552 0.54506427
v -0.0510624461 -0.0667013824 0.543324172
v -0.0476438627 -0.0726919472 0.566338956
v -0.0475300103 -0.0728964955 0.566252947
v -0.0488616563 -0.0615260489 0.54301405
v -0.0473808795 -0.068968147 0.562435985
v -0.0471825525 -0.0691066906 0.562370479
v -0.0491065681 -0.0621352047 0.543417454
v -0.0680684298 -0.0335744284 0.564798713
v -0.0681501329 -0.0337924212 0.564799726
v -0.0684958473 -0.033789251 0.566212475
v -0.0550626181 -0.0674156845 0.54596597
v -0.056468375 -0.0734895393 0.546922863
v -0.0562020242 -0.070677273 0.546719134
v 0.01407969 -0.101354018 0.52857089
v 0.0143154636 -0.101360172 0.528573453
v 0.0141922971 -0.101572774 0.530178368
v -0.16938214 -0.063354075 0.554025531
v -0.166329041 -0.0577595755 0.544866264
v -0.165686876 -0.0622834787 0.550959229
v -0.169511214 -0.0864119381 0.548399627
v -0.169727921 -0.086462453 0.548339844
v -0.170049533 -0.0868880004 0.549703836
v 0.0216901079 -0.150629178 0.669398308
v 0.0218538269 -0.150787994 0.669418037
v 0.0211048666 -0.148858622 0.655693352
v -0.0484220125 -0.0697837621 0.55877018
v -0.0483681038 -0.0699900463 0.558686435
v -0.0486597419 -0.0621649064 0.543811977
v -0.056468375 -0.0734895393 0.546922863
v -0.0550626181 -0.0674156845 0.54596597
v -0.0510624461 -0.0667013824 0.543324172
v -0.0470701717 -0.0735526904 0.560141206
v -0.0470688157 -0.0733589008 0.560262978
v -0.0471106581 -0.0741748959 0.561475337
v -0.0665218905 -0.0255359951 0.567489862
v -0.0665963665 -0.0252994429 0.56741327
v -0.0670076758 -0.0253371838 0.56886059
v -0.0665963665 -0.0252994429 0.56741327
v -0.0665218905 -0.0255359951 0.567489862
v -0.0598000214 -0.0300184414 0.543979704
v -0.169727921 -0.086462453 0.548339844
v -0.169511214 -0.0864119381 0.548399627
v -0.163859099 -0.0770385265 0.525719941
v 0.0157398991 -0.148601457 0.673194468
v 0.0159158763 -0.148759618 0.673267484
v 0.0207264982 -0.148376495 0.655134141
v -0.0475300103 -0.0728964955 0.566252947
v -0.0476438627 -0.0726919472 0.566338956
v -0.0477598943 -0.0733935237 0.567686856
v -0.0472032577 -0.0667268857 0.563452005
v -0.0469605066 -0.0667694807 0.563403249
v -0.0493405201 -0.0622850806 0.543296337
v -0.0524846427 -0.0641455352 0.561211705
v -0.0523664802 -0.0643514842 0.561184824
v -0.0491302721 -0.0617849231 0.543685913
v -0.0540159605 -0.0655938387 0.564409018
v -0.0538472272 -0.0657734349 0.564378679
v -0.0493722148 -0.0619965084 0.543303668
v -0.0471825525 -0.0691066906 0.562370479
v -0.0473808795 -0.068968147 0.562435985
v -0.0473892204 -0.0696102306 0.563752651
v -0.062617518 -0.032282833 0.569289088
v -0.0625555739 -0.0325245596 0.569339514
v -0.0594587885 -0.0308810435 0.544255018
v -0.0486131646 -0.0683332309 0.562634885
v -0.048388686 -0.0684345365 0.562599659
v -0.048816517 -0.0616150089 0.543647826
v -0.0542646758 -0.0641269013 0.559005201
v -0.0540736616 -0.0642723367 0.559018612
v -0.0491550043 -0.0619874746 0.543813109
v -0.0625555739 -0.0325245596 0.569339514
v -0.062617518 -0.032282833 0.569289088
v -0.0629897565 -0.0324224681 0.570750117
v 0.0153263118 -0.155181959 0.677141011
v 0.0155223003 -0.15532741 0.6771999
v 0.0205545649 -0.149056196 0.654522181
v -0.0516695455 -0.0655717701 0.56366837
v -0.0515988432 -0.0657902583 0.563610852
v -0.0490492098 -0.061454501 0.543559134
v 0.0601977557 -0.171170086 0.673231542
v 0.0603320338 -0.171312168 0.673086703
v 0.0505253822 -0.164261803 0.653091013
v -0.175729632 -0.0816920623 0.547983468
v -0.175945714 -0.0817193836 0.547913074
v -0.176358625 -0.0820826218 0.549285054
v -0.0523664802 -0.0643514842 0.561184824
v -0.0524846427 -0.0641455352 0.561211705
v -0.0527063571 -0.0646199584 0.562577844
v -0.175945714 -0.0817193836 0.547913074
v -0.175729632 -0.0816920623 0.547983468
v -0.163839057 -0.077291809 0.525660932
v -0.0483681038 -0.0699900463 0.558686435
v -0.0484220125 -0.0697837621 0.55877018
v -0.0485887304 -0.0704419166 0.56004864
v -0.0554954261 -0.0648134872 0.559448063
v -0.0552827977 -0.0649185851 0.559484124
v -0.0490079969 -0.0624655522 0.54366827
v -0.0538472272 -0.0657734349 0.564378679
v -0.0540159605 -0.0655938387 0.564409018
v -0.0542216375 -0.0661433265 0.56578517
v -0.0469605066 -0.0667694807 0.563403249
v -0.0472032577 -0.0667268857 0.563452005
v -0.0470883586 -0.0672382414 0.564804137
v -0.0476924218 -0.0663302615 0.567942739
v -0.0474410392 -0.0663201213 0.567907691
v -0.0493614413 -0.0623741411 0.542764783
v -0.0515988432 -0.0657902583 0.563610852
v -0.0516695455 -0.0655717701 0.56366837
v -0.0518763848 -0.0661426261 0.565025389
v -0.160555109 -0.0435920581 0.546962917
v -0.160745457 -0.0434688181 0.546910048
v -0.15260908 -0.0458919257 0.527236581
v -0.0677439943 -0.0329583175 0.561233819
v -0.0678396821 -0.0327386633 0.56118536
v -0.0683522001 -0.0329606123 0.562538803
v -0.0540736616 -0.0642723367 0.559018612
v -0.0542646758 -0.0641269013 0.559005201
v -0.0545507893 -0.0645654351 0.560356915
v 0.00540009979 -0.0976021588 0.528278351
v 0.00539912144 -0.0976021588 0.528278172
v 0.00553817349 -0.097519286 0.526700795
v 0.0536765978 -0.17644833 0.679948807
v 0.0538941845 -0.176539928 0.679853857
v 0.0504376292 -0.164053828 0.652747512
v -0.160745457 -0.0434688181 0.546910048
v -0.160555109 -0.0435920581 0.546962917
v -0.161012858 -0.0432552733 0.548277497
v -0.048388686 -0.0684345365 0.562599659
v -0.0486131646 -0.0683332309 0.562634885
v -0.0486842133 -0.0689647645 0.563959837
v -0.0678396821 -0.0327386633 0.56118536
v -0.0677439943 -0.0329583175 0.561233819
v -0.0598839559 -0.0306546874 0.544979274
v -0.15731591 -0.0578097925 0.542158306
v -0.165686876 -0.0622834787 0.550959229
v -0.166329041 -0.0577595755 0.544866264
v -0.0474410392 -0.0663201213 0.567907691
v -0.0476924218 -0.0663302615 0.567942739
v -0.0475767441 -0.0667737499 0.56935811
v -0.0552827977 -0.0649185851 0.559484124
v -0.0554954261 -0.0648134872 0.559448063
v -0.0558221452 -0.0652620047 0.560799778
v 0.00979921501 -0.15528582 0.680383384
v 0.00957109872 -0.155192271 0.680261731
v 0.021491887 -0.148088276 0.654273152
v 0.0155223003 -0.15532741 0.6771999
v 0.0153263118 -0.155181959 0.677141011
v 0.01506403 -0.155609339 0.678791523
v -0.0476381555 -0.0595847405 0.52694428
v -0.0477423854 -0.0569719411 0.523639262
v -0.04610065 -0.0594466925 0.527066112
v 0.00783781707 -0.1030204 0.52337122
v 0.00766156986 -0.102883823 0.523355722
v 0.00754092401 -0.103340812 0.524887562
v -0.0501776449 -0.0674226433 0.566158891
v -0.050221473 -0.0676349774 0.566086292
v -0.0492214449 -0.0614416897 0.543312728
v -0.167381227 -0.0826316029 0.544781089
v -0.167601809 -0.0826044008 0.5447402
v -0.163155317 -0.077494137 0.526326776
v 0.051614169 -0.168700919 0.677214622
v 0.0514101349 -0.168589264 0.677283108
v 0.0516579263 -0.169144198 0.678897679
v -0.175582394 -0.0564629138 0.550002992
v -0.16900146 -0.053902939 0.542363346
v -0.170164436 -0.0566947535 0.5478912
v -0.167601809 -0.0826044008 0.5447402
v -0.167381227 -0.0826316029 0.544781089
v -0.167949647 -0.0828652903 0.54609704
v -0.163826525 -0.0542012826 0.540541351
v -0.170164436 -0.0566947535 0.5478912
v -0.16900146 -0.053902939 0.542363346
v -0.050221473 -0.0676349774 0.566086292
v -0.0501776449 -0.0674226433 0.566158891
v -0.0504330136 -0.0680301711 0.567525148
v -0.046378728 -0.0534193181 0.521132946
v -0.0477423854 -0.0569719411 0.523639262
v -0.0504188091 -0.0576330908 0.527635455
v -0.0474410392 -0.0663201213 0.567907691
v -0.0475461595 -0.0665295646 0.567888796
v -0.0493614413 -0.0623741411 0.542764783
v -0.0554096773 -0.073033981 0.565829158
v -0.055504255 -0.0728209913 0.565908909
v -0.0557453409 -0.0735115185 0.567254186
v -0.0475461595 -0.0665295646 0.567888796
v -0.0474410392 -0.0663201213 0.567907691
v -0.0475756377 -0.0667742714 0.569357812
v 0.00766156986 -0.102883823 0.523355722
v 0.00783781707 -0.1030204 0.52337122
v 0.0115002561 -0.0957565531 0.500617743
v -0.0515147075 -0.0752343386 0.563516319
v -0.051678814 -0.0753684118 0.563436806
v -0.0491546802 -0.0619640015 0.542909861
v -0.055504255 -0.0728209913 0.565908909
v -0.0554096773 -0.073033981 0.565829158
v -0.0495672449 -0.0619142279 0.542826176
v -0.0504096113 -0.0674741492 0.566139579
v -0.0501776449 -0.0674226433 0.566158891
v -0.0492214449 -0.0614416897 0.543312728
v 0.0500423163 -0.168663397 0.664976478
v 0.0502505079 -0.168739006 0.664916515
v 0.050297983 -0.169155851 0.666484594
v 0.0204107855 -0.151829958 0.684030354
v 0.0201969165 -0.15169549 0.683970392
v 0.0200231969 -0.15204744 0.685708642
v -0.051678814 -0.0753684118 0.563436806
v -0.0515147075 -0.0752343386 0.563516319
v -0.0518217608 -0.0759295002 0.564836621
v -0.0501776449 -0.0674226433 0.566158891
v -0.0504096113 -0.0674741492 0.566139579
v -0.05043412 -0.0680298805 0.567525208
v -0.0469605066 -0.0667694807 0.563403249
v -0.0471121743 -0.0669400245 0.56338954
v -0.0493405201 -0.0622850806 0.543296337
v -0.055337172 -0.0696731955 0.562354207
v -0.0553146079 -0.0694639012 0.562436521
v -0.0556395687 -0.0700855553 0.563755989
v -0.0514140986 -0.0703407302 0.555593073
v -0.0516241901 -0.0702324957 0.55564034
v -0.0517503507 -0.0709954053 0.556822181
v -0.0685584471 -0.0317866877 0.563598394
v -0.0685997307 -0.0315489918 0.563548923
v -0.0690891221 -0.0316840522 0.564936161
v -0.0514140986 -0.0703407302 0.555593073
v -0.051603429 -0.0704216585 0.555525839
v -0.0493330136 -0.062427137 0.543846548
v -0.0484051108 -0.061240539 0.541224778
v -0.0491624177 -0.0613591261 0.541163802
v -0.0517431758 -0.069989711 0.564092517
v 0.0538941845 -0.176539928 0.679853857
v 0.0536765978 -0.17644833 0.679948807
v 0.0539829731 -0.177113459 0.681549311
v -0.0471121743 -0.0669400245 0.56338954
v -0.0469605066 -0.0667694807 0.563403249
v -0.047087498 -0.0672389045 0.564803839
v -0.0685997307 -0.0315489918 0.563548923
v -0.0685584471 -0.0317866877 0.563598394
v -0.060156282 -0.0303230248 0.544641018
v -0.0555326939 -0.0695237294 0.562392235
v -0.0553146079 -0.0694639012 0.562436521
v -0.0497138463 -0.0618645549 0.543379962
v -0.0553146079 -0.0694639012 0.562436521
v -0.055337172 -0.0696731955 0.562354207
v -0.0497138463 -0.0618645549 0.543379962
v -0.0515147075 -0.0752343386 0.563516319
v -0.051757507 -0.0751655102 0.563546002
v -0.0518224314 -0.0759287924 0.564837039
v -0.0516241901 -0.0702324957 0.55564034
v -0.0514140986 -0.0703407302 0.555593073
v -0.0493330136 -0.062427137 0.543846548
v 0.0514101349 -0.168589264 0.677283108
v 0.051614169 -0.168700919 0.677214622
v 0.0504451804 -0.163828269 0.653358161
v -0.0494418629 -0.0588272326 0.527182102
v -0.0504188091 -0.0576330908 0.527635455
v -0.0477423854 -0.0569719411 0.523639262
v -0.0553146079 -0.0694639012 0.562436521
v -0.0555326939 -0.0695237294 0.562392235
v -0.0556406565 -0.0700851604 0.563755989
v -0.051757507 -0.0751655102 0.563546002
v -0.0515147075 -0.0752343386 0.563516319
v -0.0491546802 -0.0619640015 0.542909861
v 0.00549127115 -0.0973058939 0.526677489
v 0.00571122812 -0.0973795354 0.526727319
v 0.011059463 -0.095808275 0.500162899
v 0.0132189384 -0.102057219 0.527210712
v 0.0129965479 -0.101989917 0.527200937
v 0.0115649877 -0.0958929434 0.500213146
v -0.0477423854 -0.0569719411 0.523639262
v -0.0476381555 -0.0595847405 0.52694428
v -0.0494418629 -0.0588272326 0.527182102
v -0.051603429 -0.0704216585 0.555525839
v -0.0514140986 -0.0703407302 0.555593073
v -0.0517499484 -0.0709960833 0.556821883
v -0.0518343225 -0.0657176226 0.563626587
v -0.0516695455 -0.0655717701 0.56366837
v -0.0490492098 -0.061454501 0.543559134
v -0.048388686 -0.0684345365 0.562599659
v -0.0485781841 -0.0685485974 0.562557399
v -0.048816517 -0.0616150089 0.543647826
v 0.00578491529 -0.0998680741 0.520177364
v 0.00559189916 -0.0997596905 0.520123005
v 0.011303979 -0.0955310017 0.500957429
v 0.0129965479 -0.101989917 0.527200937
v 0.0132189384 -0.102057219 0.527210712
v 0.0130805755 -0.102250651 0.528798103
v -0.0526027419 -0.0643282235 0.561175585
v -0.0524846427 -0.0641455352 0.561211705
v -0.0491302721 -0.0617849231 0.543685913
v -0.156550914 -0.0462949947 0.547169805
v -0.15676415 -0.0462030247 0.547150016
v -0.156967953 -0.0461401232 0.548530996
v -0.0485781841 -0.0685485974 0.562557399
v -0.048388686 -0.0684345365 0.562599659
v -0.04868358 -0.0689655766 0.563959539
v -0.0516695455 -0.0655717701 0.56366837
v -0.0518343225 -0.0657176226 0.563626587
v -0.0518774316 -0.0661428124 0.56502533
v 0.0201969165 -0.15169549 0.683970392
v 0.0204107855 -0.151829958 0.684030354
v 0.0215197206 -0.148550972 0.65418607
v -0.159262076 -0.0393962748 0.547984719
v -0.15905565 -0.0395062119 0.548019052
v -0.152222544 -0.0456462428 0.527103186
v -0.15676415 -0.0462030247 0.547150016
v -0.156550914 -0.0462949947 0.547169805
v -0.152456731 -0.0464531332 0.52749306
v 0.00571122812 -0.0973795354 0.526727319
v 0.00549127115 -0.0973058939 0.526677489
v 0.00539943483 -0.0976012349 0.528278112
v -0.0510624461 -0.0667013824 0.543324172
v -0.050717622 -0.0638423935 0.538477838
v -0.0484441295 -0.0644202232 0.53832978
v -0.0484441295 -0.0644202232 0.53832978
v -0.0476381555 -0.0595847405 0.52694428
v -0.04610065 -0.0594466925 0.527066112
v -0.04610065 -0.0594466925 0.527066112
v -0.0481302999 -0.0670185685 0.544501603
v -0.0484441295 -0.0644202232 0.53832978
v 0.0126428064 -0.149404511 0.681829751
v 0.0124234259 -0.149282217 0.681738615
v 0.0121501125 -0.149586186 0.683460593
v -0.0471825525 -0.0691066906 0.562370479
v -0.0474044532 -0.0691811293 0.562363863
v -0.0491065681 -0.0621352047 0.543417454
v -0.174365669 -0.0860267729 0.545591176
v -0.174152166 -0.0860227495 0.545668125
v -0.174834609 -0.0863771364 0.54694581
v -0.0484441295 -0.0644202232 0.53832978
v -0.0481302999 -0.0670185685 0.544501603
v -0.0510624461 -0.0667013824 0.543324172
v -0.15905565 -0.0395062119 0.548019052
v -0.159262076 -0.0393962748 0.547984719
v -0.159486443 -0.0392443836 0.549379587
v -0.0556555353 -0.0729748458 0.565836191
v -0.055504255 -0.0728209913 0.565908909
v -0.0495672449 -0.0619142279 0.542826176
v -0.0524846427 -0.0641455352 0.561211705
v -0.0526027419 -0.0643282235 0.561175585
v -0.0527072214 -0.064620316 0.562577784
v -0.174152166 -0.0860227495 0.545668125
v -0.174365669 -0.0860267729 0.545591176
v -0.163858294 -0.0771105736 0.52572751
v 0.0112803113 -0.15271984 0.675873518
v 0.0114776734 -0.152858272 0.675981224
v 0.0109155634 -0.152998164 0.677515864
v -0.0649551079 -0.0353388377 0.560793042
v -0.0649932027 -0.035110265 0.5608055
v -0.0598147511 -0.0301891696 0.545014143
v -0.0474044532 -0.0691811293 0.562363863
v -0.0471825525 -0.0691066906 0.562370479
v -0.0473887548 -0.0696111321 0.563752294
v 0.0167104863 -0.155537814 0.674328923
v 0.0169335287 -0.155633539 0.674386561
v 0.0206770059 -0.148876578 0.65482831
v 0.0595389605 -0.171143204 0.680358112
v 0.0593132414 -0.17107071 0.680460513
v 0.05971843 -0.171659827 0.682064116
v -0.055504255 -0.0728209913 0.565908909
v -0.0556555353 -0.0729748458 0.565836191
v -0.0557465516 -0.0735116303 0.567254007
v 0.0183837712 -0.147758648 0.681520343
v 0.018185908 -0.147607714 0.681443751
v 0.0205662809 -0.148566633 0.654112756
v -0.0540808551 -0.0658029169 0.564354002
v -0.0540159605 -0.0655938387 0.564409018
v -0.0493722148 -0.0619965084 0.543303668
v 0.0580428839 -0.175637946 0.677137554
v 0.0582418367 -0.175732866 0.677007616
v 0.0585287139 -0.176238582 0.678672969
v -0.0542761162 -0.0643473417 0.558969617
v -0.0542646758 -0.0641269013 0.559005201
v -0.0491550043 -0.0619874746 0.543813109
v -0.0649932027 -0.035110265 0.5608055
v -0.0649551079 -0.0353388377 0.560793042
v -0.0653081164 -0.0354820266 0.562178969
v 0.0124234259 -0.149282217 0.681738615
v 0.0126428064 -0.149404511 0.681829751
v 0.0206689835 -0.148151904 0.653858542
v -0.0554522052 -0.065037705 0.559417665
v -0.0554954261 -0.0648134872 0.559448063
v -0.0490079969 -0.0624655522 0.54366827
v -0.0491624177 -0.0613591261 0.541163802
v -0.0484051108 -0.061240539 0.541224778
v -0.0517431758 -0.069989711 0.564092517
v -0.0484220125 -0.0697837621 0.55877018
v -0.04859519 -0.0699093118 0.558723271
v -0.0485896468 -0.0704419017 0.560048699
v 0.0169335287 -0.155633539 0.674386561
v 0.0167104863 -0.155537814 0.674328923
v 0.0164920092 -0.156044036 0.675939202
v -0.0540159605 -0.0655938387 0.564409018
v -0.0540808551 -0.0658029169 0.564354002
v -0.0542224273 -0.0661439449 0.565784991
v -0.0554096773 -0.073033981 0.565829158
v -0.0556555353 -0.0729748458 0.565836191
v -0.0495672449 -0.0619142279 0.542826176
v 0.0502505079 -0.168739006 0.664916515
v 0.0500423163 -0.168663397 0.664976478
v 0.0505334549 -0.164664716 0.654627979
v -0.0476381555 -0.0595847405 0.52694428
v -0.0484441295 -0.0644202232 0.53832978
v -0.050717622 -0.0638423935 0.538477838
v -0.0630757213 -0.0334262587 0.565068185
v -0.0631266311 -0.0336570852 0.565094829
v -0.0597788803 -0.0310388431 0.544734359
v -0.050717622 -0.0638423935 0.538477838
v -0.0494418629 -0.0588272326 0.527182102
v -0.0476381555 -0.0595847405 0.52694428
v -0.0470688157 -0.0733589008 0.560262978
v -0.0472813919 -0.0734485015 0.560243487
v -0.0471116044 -0.074174732 0.561475635
v 0.00559189916 -0.0997596905 0.520123005
v 0.00578491529 -0.0998680741 0.520177364
v 0.00546478759 -0.100030787 0.521656394
v -0.0542646758 -0.0641269013 0.559005201
v -0.0542761162 -0.0643473417 0.558969617
v -0.0545513406 -0.0645661131 0.560356677
v -0.0631266311 -0.0336570852 0.565094829
v -0.0630757213 -0.0334262587 0.565068185
v -0.0634990185 -0.0335614942 0.566474974
v -0.159131989 -0.0455359258 0.542146087
v -0.159333616 -0.0454701632 0.542087615
v -0.152089387 -0.0459154062 0.527883053
v -0.04859519 -0.0699093118 0.558723271
v -0.0484220125 -0.0697837621 0.55877018
v -0.0486597419 -0.0621649064 0.543811977
v 0.018185908 -0.147607714 0.681443751
v 0.0183837712 -0.147758648 0.681520343
v 0.018098399 -0.147733435 0.68317169
v -0.0475300103 -0.0728964955 0.566252947
v -0.0477808788 -0.0728642941 0.566277206
v -0.0488616563 -0.0615260489 0.54301405
v -0.0556555353 -0.0729748458 0.565836191
v -0.0554096773 -0.073033981 0.565829158
v -0.0557456426 -0.0735123679 0.567253768
v 0.0114776734 -0.152858272 0.675981224
v 0.0112803113 -0.15271984 0.675873518
v 0.0212064851 -0.14838244 0.654747963
v -0.0554954261 -0.0648134872 0.559448063
v -0.0554522052 -0.065037705 0.559417665
v -0.0558224693 -0.0652628317 0.560799539
v -0.159333616 -0.0454701632 0.542087615
v -0.159131989 -0.0455359258 0.542146087
v -0.159699664 -0.0453247465 0.543414295
v -0.0472813919 -0.0734485015 0.560243487
v -0.0470688157 -0.0733589008 0.560262978
v -0.0497169457 -0.0616182722 0.543609023
v -0.0510624461 -0.0667013824 0.543324172
v -0.0532496721 -0.0648111552 0.54506427
v -0.050717622 -0.0638423935 0.538477838
v -0.0554522052 -0.065037705 0.559417665
v -0.0552827977 -0.0649185851 0.559484124
v -0.0558216125 -0.0652629286 0.560799718
v -0.0477808788 -0.0728642941 0.566277206
v -0.0475300103 -0.0728964955 0.566252947
v -0.0477599837 -0.0733945593 0.567686379
v -0.055337172 -0.0696731955 0.562354207
v -0.0555326939 -0.0695237294 0.562392235
v -0.0497138463 -0.0618645549 0.543379962
v -0.0532496721 -0.0648111552 0.54506427
v -0.0504188091 -0.0576330908 0.527635455
v -0.0494418629 -0.0588272326 0.527182102
v -0.0494418629 -0.0588272326 0.527182102
v -0.050717622 -0.0638423935 0.538477838
v -0.0532496721 -0.0648111552 0.54506427
v -0.069828786 -0.0270355586 0.562483609
v -0.0697816312 -0.0272690654 0.562574089
v -0.0702887997 -0.0269931518 0.563863993
v -0.0697816312 -0.0272690654 0.562574089
v -0.069828786 -0.0270355586 0.562483609
v -0.0595693588 -0.0305477064 0.544727325
v -0.0483681038 -0.0699900463 0.558686435
v -0.04859519 -0.0699093118 0.558723271
v -0.0486597419 -0.0621649064 0.543811977
v -0.0552827977 -0.0649185851 0.559484124
v -0.0554522052 -0.065037705 0.559417665
v -0.0490079969 -0.0624655522 0.54366827
v -0.051603429 -0.0704216585 0.555525839
v -0.0516241901 -0.0702324957 0.55564034
v -0.0493330136 -0.062427137 0.543846548
v -0.0476438627 -0.0726919472 0.566338956
v -0.0477808788 -0.0728642941 0.566277206
v -0.0477609299 -0.0733937472 0.567686796
v -0.0470701717 -0.0735526904 0.560141206
v -0.0472813919 -0.0734485015 0.560243487
v -0.0497169457 -0.0616182722 0.543609023
v -0.165205896 -0.0822076201 0.545558691
v -0.1654329 -0.0822477415 0.545545459
v -0.164207861 -0.0772472396 0.52610147
v -0.155500621 -0.0383510962 0.544842601
v -0.155289605 -0.0384411067 0.544872165
v -0.155618444 -0.0379840843 0.546145201
v -0.0542761162 -0.0643473417 0.558969617
v -0.0540736616 -0.0642723367 0.559018612
v -0.054550495 -0.0645663962 0.560356855
v -0.0555326939 -0.0695237294 0.562392235
v -0.055337172 -0.0696731955 0.562354207
v -0.0556402467 -0.0700860843 0.563755751
v -0.04859519 -0.0699093118 0.558723271
v -0.0483681038 -0.0699900463 0.558686435
v -0.0485890582 -0.0704427138 0.560048342
v -0.0477808788 -0.0728642941 0.566277206
v -0.0476438627 -0.0726919472 0.566338956
v -0.0488616563 -0.0615260489 0.54301405
v -0.0472813919 -0.0734485015 0.560243487
v -0.0470701717 -0.0735526904 0.560141206
v -0.0471111983 -0.0741755962 0.561474979
v -0.0540808551 -0.0658029169 0.564354002
v -0.0538472272 -0.0657734349 0.564378679
v -0.0542215258 -0.0661443993 0.565784931
v -0.051678814 -0.0753684118 0.563436806
v -0.051757507 -0.0751655102 0.563546002
v -0.0491546802 -0.0619640015 0.542909861
v -0.0516241901 -0.0702324957 0.55564034
v -0.051603429 -0.0704216585 0.555525839
v -0.0517508648 -0.0709959865 0.556821823
v -0.0540736616 -0.0642723367 0.559018612
v -0.0542761162 -0.0643473417 0.558969617
v -0.0491550043 -0.0619874746 0.543813109
v -0.155289605 -0.0384411067 0.544872165
v -0.155500621 -0.0383510962 0.544842601
v -0.152540684 -0.0456889495 0.527375758
v -0.051757507 -0.0751655102 0.563546002
v -0.051678814 -0.0753684118 0.563436806
v -0.0518228263 -0.0759296864 0.564836502
v -0.0538472272 -0.0657734349 0.564378679
v -0.0540808551 -0.0658029169 0.564354002
v -0.0493722148 -0.0619965084 0.543303668
v 0.0582418367 -0.175732866 0.677007616
v 0.0580428839 -0.175637946 0.677137554
v 0.0503181145 -0.164064363 0.652946353
v -0.1654329 -0.0822477415 0.545545459
v -0.165205896 -0.0822076201 0.545558691
v -0.165603995 -0.0824962035 0.546914041
v 0.0119803688 -0.102395907 0.526506066
v 0.0117885321 -0.102273233 0.526489139
v 0.0116340527 -0.0956339166 0.500393927
v -0.0526027419 -0.0643282235 0.561175585
v -0.0523664802 -0.0643514842 0.561184824
v -0.0527065136 -0.0646209344 0.562577665
v -0.0518343225 -0.0657176226 0.563626587
v -0.0515988432 -0.0657902583 0.563610852
v -0.0518768281 -0.06614355 0.565025151
v -0.069427371 -0.029891422 0.565978527
v -0.0693546459 -0.0296626855 0.565945745
v -0.0698566437 -0.0297230612 0.567352057
v -0.0693546459 -0.0296626855 0.565945745
v -0.069427371 -0.029891422 0.565978527
v -0.0602908507 -0.0307552554 0.544376194
v -0.0523664802 -0.0643514842 0.561184824
v -0.0526027419 -0.0643282235 0.561175585
v -0.0491302721 -0.0617849231 0.543685913
v -0.0515988432 -0.0657902583 0.563610852
v -0.0518343225 -0.0657176226 0.563626587
v -0.0490492098 -0.061454501 0.543559134
v -0.0486131646 -0.0683332309 0.562634885
v -0.0485781841 -0.0685485974 0.562557399
v -0.0486846864 -0.0689654574 0.563959599
v -0.0473808795 -0.068968147 0.562435985
v -0.0474044532 -0.0691811293 0.562363863
v -0.047389891 -0.0696108118 0.563752472
v -0.0504096113 -0.0674741492 0.566139579
v -0.050221473 -0.0676349774 0.566086292
v -0.0504339375 -0.0680307895 0.56752491
v 0.0117885321 -0.102273233 0.526489139
v 0.0119803688 -0.102395907 0.526506066
v 0.0118321301 -0.102554537 0.528081119
v 0.0593132414 -0.17107071 0.680460513
v 0.0595389605 -0.171143204 0.680358112
v 0.0506317616 -0.163754314 0.652709603
v -0.0485781841 -0.0685485974 0.562557399
v -0.0486131646 -0.0683332309 0.562634885
v -0.048816517 -0.0616150089 0.543647826
v -0.0474044532 -0.0691811293 0.562363863
v -0.0473808795 -0.068968147 0.562435985
v -0.0491065681 -0.0621352047 0.543417454
v -0.0727998987 -0.0276879538 0.566171944
v -0.0726989955 -0.0279094428 0.566274166
v -0.0732998028 -0.0276577994 0.567589879
v -0.050221473 -0.0676349774 0.566086292
v -0.0504096113 -0.0674741492 0.566139579
v -0.0492214449 -0.0614416897 0.543312728
v -0.0726989955 -0.0279094428 0.566274166
v -0.0727998987 -0.0276879538 0.566171944
v -0.05915609 -0.0305252336 0.544328213
v 0.0135213872 -0.151539966 0.676329195
v 0.013689287 -0.151712909 0.676390171
v 0.0133547038 -0.151809484 0.678015053
v -0.0472032577 -0.0667268857 0.563452005
v -0.0471121743 -0.0669400245 0.56338954
v -0.0470886268 -0.0672391057 0.564803958
v 0.0480934791 -0.170608476 0.672262013
v 0.0482814722 -0.17074278 0.672225833
v 0.0481688604 -0.171155691 0.673869908
v 0.00651039695 -0.0991839767 0.522852182
v 0.00635082508 -0.0990315899 0.52282685
v 0.0105198361 -0.0955787525 0.500557423
v -0.156178281 -0.0472284555 0.532399654
v -0.152727529 -0.0478399135 0.522599697
v -0.152268752 -0.0478032641 0.531352997
v -0.160323501 -0.0360010155 0.548330486
v -0.160487548 -0.0358517319 0.54823792
v -0.160857826 -0.0355207101 0.54960978
v -0.0476924218 -0.0663302615 0.567942739
v -0.0475461595 -0.0665295646 0.567888796
v -0.0475767553 -0.0667747483 0.569357932
v -0.0471121743 -0.0669400245 0.56338954
v -0.0472032577 -0.0667268857 0.563452005
v -0.0493405201 -0.0622850806 0.543296337
v -0.160487548 -0.0358517319 0.54823792
v -0.160323501 -0.0360010155 0.548330486
v -0.151976243 -0.0460922383 0.526822627
v -0.0475461595 -0.0665295646 0.567888796
v -0.0476924218 -0.0663302615 0.567942739
v -0.0493614413 -0.0623741411 0.542764783
v 0.0171272289 -0.156300485 0.678627968
v 0.0173709914 -0.156346619 0.678694129
v 0.0208090395 -0.14895016 0.654441059
v 0.013689287 -0.151712909 0.676390171
v 0.0135213872 -0.151539966 0.676329195
v 0.0200266093 -0.148506746 0.654443324
v -0.159022316 -0.0466465205 0.543082297
v -0.159236133 -0.0466354638 0.543032825
v -0.151943624 -0.0457678251 0.527763784
v 0.0173709914 -0.156346619 0.678694129
v 0.0171272289 -0.156300485 0.678627968
v 0.0169661269 -0.156743258 0.680310249
v 0.00635082508 -0.0990315899 0.52282685
v 0.00651039695 -0.0991839767 0.522852182
v 0.00635053031 -0.0993023291 0.524390399
v -0.069427371 -0.029891422 0.565978527
v -0.0695857927 -0.0297034495 0.56591028
v -0.0602908507 -0.0307552554 0.544376194
v -0.0695857927 -0.0297034495 0.56591028
v -0.069427371 -0.029891422 0.565978527
v -0.0698574707 -0.0297235921 0.567351997
v -0.0595069416 -0.0300692301 0.542343438
v -0.0590302832 -0.0307006221 0.542549014
v -0.0655673966 -0.0301196855 0.56564039
v -0.0725767463 -0.0277038813 0.56626761
v -0.0726989955 -0.0279094428 0.566274166
v -0.05915609 -0.0305252336 0.544328213
v -0.159236133 -0.0466354638 0.543032825
v -0.159022316 -0.0466465205 0.543082297
v -0.159602135 -0.0465313308 0.544374228
v -0.0726989955 -0.0279094428 0.566274166
v -0.0725767463 -0.0277038813 0.56626761
v -0.0732989237 -0.0276574679 0.567590177
v 0.00635082508 -0.0990315899 0.52282685
v 0.00657032477 -0.0989833102 0.522859097
v 0.0105198361 -0.0955787525 0.500557423
v 0.0482814722 -0.17074278 0.672225833
v 0.0480934791 -0.170608476 0.672262013
v 0.050837528 -0.164246172 0.653524101
v -0.0647811592 -0.0352163464 0.560844123
v -0.0649551079 -0.0353388377 0.560793042
v -0.0598147511 -0.0301891696 0.545014143
v -0.156397909 -0.0393633582 0.545088947
v -0.156169787 -0.0393985286 0.545099497
v -0.156541809 -0.0390525572 0.546410799
v -0.0631266311 -0.0336570852 0.565094829
v -0.0633007437 -0.0334852338 0.565047681
v -0.0597788803 -0.0310388431 0.544734359
v 0.0499643534 -0.170199975 0.678128242
v 0.0497160628 -0.170182556 0.678164303
v 0.0499497652 -0.170721143 0.679801643
v -0.0633007437 -0.0334852338 0.565047681
v -0.0631266311 -0.0336570852 0.565094829
v -0.0634997189 -0.0335622281 0.566474974
v -0.156169787 -0.0393985286 0.545099497
v -0.156397909 -0.0393633582 0.545088947
v -0.152149811 -0.0455252528 0.52741909
v -0.169487044 -0.0872852653 0.542519867
v -0.16971007 -0.0872248411 0.542501092
v -0.170040026 -0.0878959 0.543693364
v -0.16971007 -0.0872248411 0.542501092
v -0.169487044 -0.0872852653 0.542519867
v -0.164077044 -0.0764958411 0.526404023
v 0.00657032477 -0.0989833102 0.522859097
v 0.00635082508 -0.0990315899 0.52282685
v 0.00635029236 -0.0993014425 0.524390399
v -0.0649551079 -0.0353388377 0.560793042
v -0.0647811592 -0.0352163464 0.560844123
v -0.0653071553 -0.035482008 0.562179208
v -0.165294826 -0.0815621242 0.549917638
v -0.165510282 -0.0816611573 0.54989928
v -0.163765922 -0.0770953 0.525559187
v -0.165510282 -0.0816611573 0.54989928
v -0.165294826 -0.0815621242 0.549917638
v -0.165689141 -0.0818341225 0.551320851
v -0.16834721 -0.0806424618 0.548206687
v -0.168133333 -0.0807445124 0.548225343
v -0.163577765 -0.0766618773 0.526117384
v 0.0192936081 -0.155248672 0.672718585
v 0.0195323732 -0.155237392 0.672771931
v 0.0207060091 -0.148779333 0.655056536
v 0.0192936081 -0.155248672 0.672718585
v 0.0194376707 -0.155424029 0.672700047
v 0.0192386471 -0.155759677 0.67433089
v -0.151505291 -0.0433698855 0.549230456
v -0.151748031 -0.043368075 0.54926157
v -0.15225625 -0.0456021354 0.526969612
v -0.168133333 -0.0807445124 0.548225343
v -0.16834721 -0.0806424618 0.548206687
v -0.168720275 -0.0810612664 0.549547493
v -0.0685584471 -0.0317866877 0.563598394
v -0.0687737316 -0.0316942297 0.563530147
v -0.060156282 -0.0303230248 0.544641018
v -0.0696180016 -0.0271075424 0.562581122
v -0.0697816312 -0.0272690654 0.562574089
v -0.0595693588 -0.0305477064 0.544727325
v -0.0697816312 -0.0272690654 0.562574089
v -0.0696180016 -0.0271075424 0.562581122
v -0.0702878833 -0.0269930605 0.563864291
v -0.0677439943 -0.0329583175 0.561233819
v -0.0679629818 -0.0329212546 0.561159194
v -0.0598839559 -0.0306546874 0.544979274
v -0.0687737316 -0.0316942297 0.563530147
v -0.0685584471 -0.0317866877 0.563598394
v -0.0690895393 -0.0316848755 0.564936221
v 0.0497160628 -0.170182556 0.678164303
v 0.0499643534 -0.170199975 0.678128242
v 0.050588198 -0.164440244 0.653054237
v 0.0195323732 -0.155237392 0.672771931
v 0.0192936081 -0.155248672 0.672718585
v 0.0192386713 -0.155758753 0.674331188
v -0.151748031 -0.043368075 0.54926157
v -0.151505291 -0.0433698855 0.549230456
v -0.15176186 -0.043088045 0.550604761
v -0.0679230392 -0.0337718911 0.564854324
v -0.0681501329 -0.0337924212 0.564799726
v -0.0597842038 -0.0306834523 0.544628561
v -0.157633945 -0.037350025 0.544763148
v -0.157752648 -0.037164554 0.544668794
v -0.158083886 -0.0368487276 0.546004415
v 0.0129146958 -0.150506422 0.676123619
v 0.0126764262 -0.150492162 0.67602253
v 0.012406487 -0.150760889 0.67768842
v -0.157752648 -0.037164554 0.544668794
v -0.157633945 -0.037350025 0.544763148
v -0.1519804 -0.0461982116 0.527486205
v -0.165590733 -0.0470150262 0.534796655
v -0.156508923 -0.0480796583 0.530612111
v -0.157176971 -0.0455355197 0.529059768
v -0.0679629818 -0.0329212546 0.561159194
v -0.0677439943 -0.0329583175 0.561233819
v -0.0683523864 -0.0329615064 0.562538803
v 0.0194376707 -0.155424029 0.672700047
v 0.0192936081 -0.155248672 0.672718585
v 0.0207060091 -0.148779333 0.655056536
v -0.0625555739 -0.0325245596 0.569339514
v -0.0627902448 -0.0324478224 0.569297373
v -0.0594587885 -0.0308810435 0.544255018
v 0.00559189916 -0.0997596905 0.520123005
v 0.00577954715 -0.0996630266 0.520184875
v 0.011303979 -0.0955310017 0.500957429
v -0.0627902448 -0.0324478224 0.569297373
v -0.0625555739 -0.0325245596 0.569339514
v -0.0629900694 -0.0324235857 0.570750237
v -0.0681501329 -0.0337924212 0.564799726
v -0.0679230392 -0.0337718911 0.564854324
v -0.0684948713 -0.0337897129 0.566212833
v -0.151623592 -0.0431546196 0.549199283
v -0.151505291 -0.0433698855 0.549230456
v -0.15225625 -0.0456021354 0.526969612
v 0.0126764262 -0.150492162 0.67602253
v 0.0127942059 -0.150698766 0.67608726
v 0.0124064749 -0.150761887 0.677688479
v -0.16290763 -0.0480053425 0.533939064
v -0.15952678 -0.0484822281 0.532293379
v -0.165590733 -0.0470150262 0.534796655
v 0.0126764262 -0.150492162 0.67602253
v 0.0129146958 -0.150506422 0.676123619
v 0.02088237 -0.14847368 0.654720128
v -0.151505291 -0.0433698855 0.549230456
v -0.151623592 -0.0431546196 0.549199283
v -0.151761845 -0.0430868939 0.550604522
v 0.00577954715 -0.0996630266 0.520184875
v 0.00559189916 -0.0997596905 0.520123005
v 0.0054643047 -0.100030035 0.521656334
v 0.00553817349 -0.097519286 0.526700795
v 0.00549127115 -0.0973058939 0.526677489
v 0.011059463 -0.095808275 0.500162899
v 0.0119975898 -0.102184571 0.5265131
v 0.0117885321 -0.102273233 0.526489139
v 0.0118318098 -0.102553524 0.528081119
v -0.0667576641 -0.025478486 0.567435384
v -0.0665218905 -0.0255359951 0.567489862
v -0.0670081005 -0.0253383238 0.568860829
v -0.0665218905 -0.0255359951 0.567489862
v -0.0667576641 -0.025478486 0.567435384
v -0.0598000214 -0.0300184414 0.543979704
v 0.0117885321 -0.102273233 0.526489139
v 0.0119975898 -0.102184571 0.5265131
v 0.0116340527 -0.0956339166 0.500393927
v 0.0127942059 -0.150698766 0.67608726
v 0.0126764262 -0.150492162 0.67602253
v 0.02088237 -0.14847368 0.654720128
v -0.165497512 -0.0814158693 0.549951494
v -0.165294826 -0.0815621242 0.549917638
v -0.163765922 -0.0770953 0.525559187
v 0.00549127115 -0.0973058939 0.526677489
v 0.00553817349 -0.097519286 0.526700795
v 0.00539912144 -0.0976021588 0.528278172
v -0.165294826 -0.0815621242 0.549917638
v -0.165497512 -0.0814158693 0.549951494
v -0.165689662 -0.0818330348 0.551321089
v -0.157864541 -0.0373757705 0.544756353
v -0.157633945 -0.037350025 0.544763148
v -0.15808399 -0.0368498266 0.546004891
v -0.157633945 -0.037350025 0.544763148
v -0.157864541 -0.0373757705 0.544756353
v -0.1519804 -0.0461982116 0.527486205
v 0.0580428839 -0.175637946 0.677137554
v 0.0582678057 -0.17552489 0.677102268
v 0.0503181145 -0.164064363 0.652946353
v -0.156508923 -0.0480796583 0.530612111
v -0.165590733 -0.0470150262 0.534796655
v -0.15952678 -0.0484822281 0.532293379
v -0.168133333 -0.0807445124 0.548225343
v -0.168302774 -0.0808834061 0.548155069
v -0.163577765 -0.0766618773 0.526117384
v -0.168302774 -0.0808834061 0.548155069
v -0.168133333 -0.0807445124 0.548225343
v -0.168719605 -0.0810621679 0.549547434
v 0.0499697328 -0.163229734 0.650802672
v 0.0502961241 -0.16383487 0.650508285
v 0.0544414818 -0.171858132 0.677787185
v 0.0171272289 -0.156300485 0.678627968
v 0.0172198731 -0.156514227 0.67862916
v 0.0169657748 -0.156744301 0.680310011
v 0.01375686 -0.151496217 0.676403165
v 0.0135213872 -0.151539966 0.676329195
v 0.0133544412 -0.15180853 0.678014934
v 0.0497160628 -0.170182556 0.678164303
v 0.0498147197 -0.170378491 0.678098857
v 0.0499496274 -0.170722112 0.679801345
v -0.15624705 -0.039175909 0.545039415
v -0.156169787 -0.0393985286 0.545099497
v -0.152149811 -0.0455252528 0.52741909
v -0.156169787 -0.0393985286 0.545099497
v -0.15624705 -0.039175909 0.545039415
v -0.156541467 -0.039051488 0.546410501
v -0.167271957 -0.0429624319 0.534586012
v -0.165590733 -0.0470150262 0.534796655
v -0.165399015 -0.0420868434 0.533549726
v -0.159120291 -0.0464336686 0.543044865
v -0.159022316 -0.0466465205 0.543082297
v -0.151943624 -0.0457678251 0.527763784
v -0.159022316 -0.0466465205 0.543082297
v -0.159120291 -0.0464336686 0.543044865
v -0.159601972 -0.0465304218 0.544374168
v 0.00762542244 -0.103084259 0.52331984
v 0.00766156986 -0.102883823 0.523355722
v 0.0115002561 -0.0957565531 0.500617743
v 0.0131698474 -0.10184896 0.527216792
v 0.0129965479 -0.101989917 0.527200937
v 0.0130799618 -0.102249764 0.528798163
v -0.168660343 -0.0442612544 0.53563714
v -0.165590733 -0.0470150262 0.534796655
v -0.167271957 -0.0429624319 0.534586012
v 0.0172198731 -0.156514227 0.67862916
v 0.0171272289 -0.156300485 0.678627968
v 0.0208090395 -0.14895016 0.654441059
v 0.0129965479 -0.101989917 0.527200937
v 0.0131698474 -0.10184896 0.527216792
v 0.0115649877 -0.0958929434 0.500213146
v 0.0135213872 -0.151539966 0.676329195
v 0.01375686 -0.151496217 0.676403165
v 0.0200266093 -0.148506746 0.654443324
v -0.152351201 -0.0507839993 0.513092339
v -0.149193108 -0.050369665 0.50706929
v -0.151123598 -0.0491609983 0.509037912
v 0.00766156986 -0.102883823 0.523355722
v 0.00762542244 -0.103084259 0.52331984
v 0.00754010864 -0.103341408 0.524887323
v 0.0582678057 -0.17552489 0.677102268
v 0.0580428839 -0.175637946 0.677137554
v 0.0585283786 -0.176237673 0.678673565
v -0.169487044 -0.0872852653 0.542519867
v -0.169611529 -0.0874357149 0.542402089
v -0.164077044 -0.0764958411 0.526404023
v -0.169611529 -0.0874357149 0.542402089
v -0.169487044 -0.0872852653 0.542519867
v -0.1700394 -0.0878966004 0.543693125
v -0.155314386 -0.048045788 0.524193823
v -0.157176971 -0.0455355197 0.529059768
v -0.156508923 -0.0480796583 0.530612111
v -0.165368259 -0.0820254833 0.545605898
v -0.165205896 -0.0822076201 0.545558691
v -0.164207861 -0.0772472396 0.52610147
v -0.159096122 -0.0446362086 0.530258596
v -0.165399015 -0.0420868434 0.533549726
v -0.165590733 -0.0470150262 0.534796655
v -0.152351201 -0.0507839993 0.513092339
v -0.155314386 -0.048045788 0.524193823
v -0.156508923 -0.0480796583 0.530612111
v 0.0593337305 -0.171288371 0.68038702
v 0.0593132414 -0.17107071 0.680460513
v 0.0506317616 -0.163754314 0.652709603
v -0.165205896 -0.0822076201 0.545558691
v -0.165368259 -0.0820254833 0.545605898
v -0.165604234 -0.082495153 0.546914339
v 0.014203121 -0.101171032 0.528577507
v 0.01407969 -0.101354018 0.52857089
v 0.0141913807 -0.101572089 0.530178368
v 0.018419737 -0.14752306 0.681482017
v 0.018185908 -0.147607714 0.681443751
v 0.0180981345 -0.147732496 0.683171391
v 0.0483217388 -0.170542136 0.672304928
v 0.0480934791 -0.170608476 0.672262013
v 0.0481685214 -0.171154872 0.673870206
v 0.0498147197 -0.170378491 0.678098857
v 0.0497160628 -0.170182556 0.678164303
v 0.050588198 -0.164440244 0.653054237
v 0.0601054281 -0.171378255 0.673208416
v 0.0601977557 -0.171170086 0.673231542
v 0.0505253822 -0.164261803 0.653091013
v -0.160323501 -0.0360010155 0.548330486
v -0.160549834 -0.0360865146 0.548336864
v -0.151976243 -0.0460922383 0.526822627
v -0.155289605 -0.0384411067 0.544872165
v -0.155308723 -0.0382076092 0.54478997
v -0.155617818 -0.0379831493 0.546144903
v -0.155308723 -0.0382076092 0.54478997
v -0.155289605 -0.0384411067 0.544872165
v -0.152540684 -0.0456889495 0.527375758
v -0.160549834 -0.0360865146 0.548336864
v -0.160323501 -0.0360010155 0.548330486
v -0.160857707 -0.0355218872 0.549610317
v -0.15926294 -0.0417021848 0.530576825
v -0.159096122 -0.0446362086 0.530258596
v -0.156239361 -0.0427378491 0.529102027
v -0.159176946 -0.0453055464 0.542102695
v -0.159131989 -0.0455359258 0.542146087
v -0.152089387 -0.0459154062 0.527883053
v 0.01407969 -0.101354018 0.52857089
v 0.014203121 -0.101171032 0.528577507
v 0.0109652188 -0.0957074463 0.500092864
v -0.159131989 -0.0455359258 0.542146087
v -0.159176946 -0.0453055464 0.542102695
v -0.159699306 -0.0453239195 0.543414295
v -0.159096122 -0.0446362086 0.530258596
v -0.15926294 -0.0417021848 0.530576825
v -0.165399015 -0.0420868434 0.533549726
v -0.157176971 -0.0455355197 0.529059768
v -0.159096122 -0.0446362086 0.530258596
v -0.165590733 -0.0470150262 0.534796655
v -0.152299449 -0.0462515727 0.525275767
v -0.15162693 -0.0458629653 0.525179446
v -0.156391516 -0.0421855524 0.547723532
v 0.0114841321 -0.152630597 0.675989628
v 0.0112803113 -0.15271984 0.675873518
v 0.0109150745 -0.152997226 0.677515626
v 0.0167104863 -0.155537814 0.674328923
v 0.016748108 -0.155753732 0.674297869
v 0.0164914876 -0.156044841 0.675938845
v -0.156550914 -0.0462949947 0.547169805
v -0.15673767 -0.0464439578 0.547195613
v -0.152456731 -0.0464531332 0.52749306
v 0.0480934791 -0.170608476 0.672262013
v 0.0483217388 -0.170542136 0.672304928
v 0.050837528 -0.164246172 0.653524101
v -0.162655324 -0.041520223 0.53229773
v -0.165399015 -0.0420868434 0.533549726
v -0.15926294 -0.0417021848 0.530576825
v 0.0593132414 -0.17107071 0.680460513
v 0.0593337305 -0.171288371 0.68038702
v 0.0597178303 -0.171660691 0.682064056
v -0.159096122 -0.0446362086 0.530258596
v -0.157176971 -0.0455355197 0.529059768
v -0.156239361 -0.0427378491 0.529102027
v 0.0601977557 -0.171170086 0.673231542
v 0.0601054281 -0.171378255 0.673208416
v 0.0607360601 -0.171793222 0.674674332
v -0.15673767 -0.0464439578 0.547195613
v -0.156550914 -0.0462949947 0.547169805
v -0.156967476 -0.0461409725 0.548531175
v 0.0124234259 -0.149282217 0.681738615
v 0.0124308821 -0.149521098 0.68176496
v 0.0121495668 -0.149587154 0.683460474
v 0.018185908 -0.147607714 0.681443751
v 0.018419737 -0.14752306 0.681482017
v 0.0205662809 -0.148566633 0.654112756
v 0.0112803113 -0.15271984 0.675873518
v 0.0114841321 -0.152630597 0.675989628
v 0.0212064851 -0.14838244 0.654747963
v -0.174297884 -0.0858201236 0.545696855
v -0.174152166 -0.0860227495 0.545668125
v -0.163858294 -0.0771105736 0.52572751
v -0.150413558 -0.0397651568 0.544666827
v -0.150597483 -0.03991393 0.544765472
v -0.152378812 -0.046051573 0.527328849
v -0.174152166 -0.0860227495 0.545668125
v -0.174297884 -0.0858201236 0.545696855
v -0.174834684 -0.0863761604 0.546946168
v 0.0201862492 -0.151931792 0.683980227
v 0.0201969165 -0.15169549 0.683970392
v 0.0215197206 -0.148550972 0.65418607
v 0.016748108 -0.155753732 0.674297869
v 0.0167104863 -0.155537814 0.674328923
v 0.0206770059 -0.148876578 0.65482831
v -0.159258097 -0.0396401808 0.548050761
v -0.15905565 -0.0395062119 0.548019052
v -0.159486011 -0.0392454788 0.549379885
v -0.167491943 -0.0824148357 0.544815183
v -0.167381227 -0.0826316029 0.544781089
v -0.163155317 -0.077494137 0.526326776
v -0.15905565 -0.0395062119 0.548019052
v -0.159258097 -0.0396401808 0.548050761
v -0.152222544 -0.0456462428 0.527103186
v -0.150597483 -0.03991393 0.544765472
v -0.150413558 -0.0397651568 0.544666827
v -0.150563493 -0.0394195206 0.545984328
v -0.167381227 -0.0826316029 0.544781089
v -0.167491943 -0.0824148357 0.544815183
v -0.167949617 -0.0828642696 0.546097279
v -0.160542846 -0.0433487408 0.546909094
v -0.160555109 -0.0435920581 0.546962917
v -0.15260908 -0.0458919257 0.527236581
v -0.147793636 -0.0497337356 0.505982041
v -0.14913027 -0.0487600788 0.506661296
v -0.149193108 -0.050369665 0.50706929
v 0.0502337441 -0.16854623 0.664994657
v 0.0500423163 -0.168663397 0.664976478
v 0.0502975509 -0.169155255 0.666484892
v -0.160555109 -0.0435920581 0.546962917
v -0.160542846 -0.0433487408 0.546909094
v -0.161012247 -0.0432545096 0.548277438
v -0.155193254 -0.0449373461 0.523406446
v -0.155314386 -0.048045788 0.524193823
v -0.152175277 -0.0462758504 0.511949778
v -0.152351201 -0.0507839993 0.513092339
v 0.0216244627 -0.15083681 0.669399977
v 0.0216901079 -0.150629178 0.669398308
v 0.0211048666 -0.148858622 0.655693352
v 0.0536765978 -0.17644833 0.679948807
v 0.053673774 -0.176662087 0.67986238
v 0.0539821647 -0.177114367 0.681549132
v -0.155464992 -0.0456833765 0.551254332
v -0.155570596 -0.0459100753 0.551303148
v -0.152394846 -0.0460407101 0.526995718
v -0.157176971 -0.0455355197 0.529059768
v -0.155314386 -0.048045788 0.524193823
v -0.155193254 -0.0449373461 0.523406446
v -0.151123598 -0.0491609983 0.509037912
v -0.152175277 -0.0462758504 0.511949778
v -0.152351201 -0.0507839993 0.513092339
v -0.155570596 -0.0459100753 0.551303148
v -0.155464992 -0.0456833765 0.551254332
v -0.15584451 -0.0455641001 0.552668154
v 0.0201969165 -0.15169549 0.683970392
v 0.0201862492 -0.151931792 0.683980227
v 0.0200225133 -0.152048185 0.685708463
v -0.154216096 -0.0380219631 0.54951328
v -0.15412356 -0.0377916284 0.549439192
v -0.154468685 -0.0375688411 0.550839722
v -0.15412356 -0.0377916284 0.549439192
v -0.154216096 -0.0380219631 0.54951328
v -0.1520717 -0.0461389348 0.526989758
v -0.152970269 -0.0409179814 0.542489767
v -0.15310508 -0.0411111973 0.542549133
v -0.152041912 -0.045731049 0.527800322
v 0.0216901079 -0.150629178 0.669398308
v 0.0216244627 -0.15083681 0.669399977
v 0.0216460526 -0.150978729 0.671005189
v -0.169552594 -0.0866414383 0.54831636
v -0.169511214 -0.0864119381 0.548399627
v -0.170048594 -0.0868884549 0.549703896
v -0.169511214 -0.0864119381 0.548399627
v -0.169552594 -0.0866414383 0.54831636
v -0.163859099 -0.0770385265 0.525719941
v -0.166934326 -0.0836662203 0.544622719
v -0.166867733 -0.0838959962 0.5445593
v -0.163464308 -0.0774453133 0.526168764
v -0.15310508 -0.0411111973 0.542549133
v -0.152970269 -0.0409179814 0.542489767
v -0.153316349 -0.0407064743 0.543812692
v 0.0124308821 -0.149521098 0.68176496
v 0.0124234259 -0.149282217 0.681738615
v 0.0206689835 -0.148151904 0.653858542
v 0.0205384735 -0.153030768 0.678924203
v 0.0206612516 -0.152836531 0.678948522
v 0.0208764672 -0.148847669 0.654708505
v -0.151123598 -0.0491609983 0.509037912
v -0.149193108 -0.050369665 0.50706929
v -0.14913027 -0.0487600788 0.506661296
v 0.00974479318 -0.155053869 0.680375576
v 0.00957109872 -0.155192271 0.680261731
v 0.0091850413 -0.155505463 0.681948364
v 0.0153263118 -0.155181959 0.677141011
v 0.0153009258 -0.155404747 0.677118659
v 0.0150632337 -0.155610025 0.678791225
v -0.166867733 -0.0838959962 0.5445593
v -0.166934326 -0.0836662203 0.544622719
v -0.167349756 -0.0841623396 0.545896769
v -0.159832001 -0.0428365879 0.543412447
v -0.159897193 -0.0430667475 0.543459356
v -0.152294114 -0.0460887998 0.527730048
v 0.0500423163 -0.168663397 0.664976478
v 0.0502337441 -0.16854623 0.664994657
v 0.0505334549 -0.164664716 0.654627979
v -0.159897193 -0.0430667475 0.543459356
v -0.159832001 -0.0428365879 0.543412447
v -0.160373464 -0.042695526 0.544722199
v -0.157299533 -0.0421727151 0.538458705
v -0.157452732 -0.042341914 0.538489521
v -0.152708918 -0.0455042012 0.528044283
v -0.175729632 -0.0816920623 0.547983468
v -0.175791442 -0.0819163397 0.54790622
v -0.163839057 -0.077291809 0.525660932
v -0.157452732 -0.042341914 0.538489521
v -0.157299533 -0.0421727151 0.538458705
v -0.15783748 -0.0418920331 0.539681375
v 0.0514101349 -0.168589264 0.677283108
v 0.0513919033 -0.16880627 0.677233398
v 0.0516572855 -0.169145033 0.67889756
v 0.0157398991 -0.148601457 0.673194468
v 0.0156905204 -0.148820177 0.673198044
v 0.01547716 -0.148908615 0.67482084
v -0.175791442 -0.0819163397 0.54790622
v -0.175729632 -0.0816920623 0.547983468
v -0.176357612 -0.08208327 0.549285173
v -0.159667656 -0.0414417461 0.545699716
v -0.159786835 -0.0416526124 0.545747519
v -0.152751848 -0.0456596091 0.527302563
v -0.152175277 -0.0462758504 0.511949778
v -0.156239361 -0.0427378491 0.529102027
v -0.155193254 -0.0449373461 0.523406446
v -0.159786835 -0.0416526124 0.545747519
v -0.159667656 -0.0414417461 0.545699716
v -0.160135731 -0.0412470363 0.547042131
v -0.155193254 -0.0449373461 0.523406446
v -0.156239361 -0.0427378491 0.529102027
v -0.157176971 -0.0455355197 0.529059768
v 0.053673774 -0.176662087 0.67986238
v 0.0536765978 -0.17644833 0.679948807
v 0.0504376292 -0.164053828 0.652747512
v 0.00957109872 -0.155192271 0.680261731
v 0.00974479318 -0.155053869 0.680375576
v 0.021491887 -0.148088276 0.654273152
v 0.0134595847 -0.154315129 0.679992676
v 0.0133196414 -0.154500216 0.679950416
v 0.0131348409 -0.154696837 0.681665421
v 0.0537890531 -0.168934897 0.680246234
v 0.0536560081 -0.169128343 0.680223286
v 0.0540260747 -0.169549689 0.681871831
v 0.0153009258 -0.155404747 0.677118659
v 0.0153263118 -0.155181959 0.677141011
v 0.0205545649 -0.149056196 0.654522181
v 0.0206612516 -0.152836531 0.678948522
v 0.0205384735 -0.153030768 0.678924203
v 0.0204463433 -0.153219923 0.680622041
v 0.0550132096 -0.166292146 0.682326913
v 0.0548371412 -0.166468516 0.682368577
v 0.0552309975 -0.166713879 0.684052408
v 0.0514713824 -0.173875034 0.675817549
v 0.0513542593 -0.174065217 0.675764859
v 0.0516674928 -0.174546808 0.677387416
v -0.152175277 -0.0462758504 0.511949778
v -0.151123598 -0.0491609983 0.509037912
v -0.14913027 -0.0487600788 0.506661296
v 0.0133196414 -0.154500216 0.679950416
v 0.0134595847 -0.154315129 0.679992676
v 0.0206155218 -0.148540065 0.654276967
v 0.0156905204 -0.148820177 0.673198044
v 0.0157398991 -0.148601457 0.673194468
v 0.0207264982 -0.148376495 0.655134141
v 0.0149364043 -0.145955369 0.675871134
v 0.0148209445 -0.146161616 0.675899863
v 0.0145656923 -0.146052927 0.67749083
v 0.0512776934 -0.165882021 0.668355644
v 0.0512079 -0.166087478 0.668347239
v 0.0514470227 -0.166321203 0.669933915
v 0.0513919033 -0.16880627 0.677233398
v 0.0514101349 -0.168589264 0.677283108
v 0.0504451804 -0.163828269 0.653358161
v 0.0513542593 -0.174065217 0.675764859
v 0.0514713824 -0.173875034 0.675817549
v 0.0505233072 -0.164212376 0.653311372
v 0.0536560081 -0.169128343 0.680223286
v 0.0537890531 -0.168934897 0.680246234
v 0.0506217778 -0.16351153 0.653054953
v 0.0148209445 -0.146161616 0.675899863
v 0.0149364043 -0.145955369 0.675871134
v 0.0210024957 -0.14874889 0.654554486
v 0.0548371412 -0.166468516 0.682368577
v 0.0550132096 -0.166292146 0.682326913
v 0.0508596413 -0.164708138 0.65241307
v 0.0512079 -0.166087478 0.668347239
v 0.0512776934 -0.165882021 0.668355644
v 0.0507591814 -0.164181903 0.654187799
f 1 2 3
f 4 5 6
f 7 8 9
f 10 11 12
f 13 14 15
f 16 17 18
f 19 20 21
f 22 23 24
f 25 26 27
f 28 29 30
f 31 32 33
f 34 35 36
f 37 38 39
f 40 41 42
f 43 44 45
f 46 47 48
f 49 50 51
f 52 53 54
f 55 56 57
f 58 59 60
f 61 62 63
f 64 65 66
f 67 68 69
f 70 71 72
f 73 74 75
f 76 77 78
f 79 80 81
f 82 83 84
f 85 86 87
f 88 89 90
f 91 92 93
f 94 95 96
f 97 98 99
f 100 101 102
f 103 104 105
f 106 107 108
f 109 110 111
f 112 113 114
f 115 116 117
f 118 119 120
f 121 122 123
f 124 125 126
f 127 128 129
f 130 131 132
f 133 134 135
f 136 137 138
f 139 140 141
f 142 143 144
f 145 146 147
f 148 149 150
f 151 152 153
f 154 155 156
f 157 158 159
f 160 161 162
f 163 164 165
f 166 167 168
f 169 170 171
f 172 173 174
f 175 176 177
f 178 179 180
f 181 182 183
f 184 185 186
f 187 188 189
f 190 191 192
f 193 194 195
f 196 197 198
f 199 200 201
f 202 203 204
f 205 206 207
f 208 209 210
f 211 212 213
f 214 215 216
f 217 218 219
f 220 221 222
f 223 224 225
f 226 227 228
f 229 230 231
f 232 233 234
f 235 236 237
f 238 239 240
f 241 242 243
f 244 245 246
f 247 248 249
f 250 251 252
f 253 254 255
f 256 257 258
f 259 260 261
f 262 263 264
f 265 266 267
f 268 269 270
f 271 272 273
f 274 275 276
f 277 278 279
f 280 281 282
f 283 284 285
f 286 287 288
f 289 290 291
f 292 293 294
f 295 296 297
f 298 299 300
f 301 302 303
f 304 305 306
f 307 308 309
f 310 311 312
f 313 314 315
f 316 317 318
f 319 320 321
f 322 323 324
f 325 326 327
f 328 329 330
f 331 332 333
f 334 335 336
f 337 338 339
f 340 341 342
f 343 344 345
f 346 347 348
f 349 350 351
f 352 353 354
f 355 356 357
f 358 359 360
f 361 362 363
f 364 365 366
f 367 368 369
f 370 371 372
f 373 374 375
f 376 377 378
f 379 380 381
f 382 383 384
f 385 386 387
f 388 389 390
f 391 392 393
f 394 395 396
f 397 398 399
f 400 401 402
f 403 404 405
f 406 407 408
f 409 410 411
f 412 413 414
f 415 416 417
f 418 419 420
f 421 422 423
f 424 425 426
f 427 428 429
f 430 431 432
f 433 434 435
f 436 437 438
f 439 440 441
f 442 443 444
f 445 446 447
f 448 449 450
f 451 452 453
f 454 455 456
f 457 458 459
f 460 461 462
f 463 464 465
f 466 467 468
f 469 470 471
f 472 473 474
f 475 476 477
f 478 479 480
f 481 482 483
f 484 485 486
f 487 488 489
f 490 491 492
f 493 494 495
f 496 497 498
f 499 500 501
f 502 503 504
f 505 506 507
f 508 509 510
f 511 512 513
f 514 515 516
f 517 518 519
f 520 521 522
f 523 524 525
f 526 527 528
f 529 530 531
f 532 533 534
f 535 536 537
f 538 539 540
f 541 542 543
f 544 545 546
f 547 548 549
f 550 551 552
f 553 554 555
f 556 557 558
f 559 560 561
f 562 563 564
f 565 566 567
f 568 569 570
f 571 572 573
f 574 575 576
f 577 578 579
f 580 581 582
f 583 584 585
f 586 587 588
f 589 590 591
f 592 593 594
f 595 596 597
f 598 599 600
f 601 602 603
f 604 605 606
f 607 608 609
f 610 611 612
f 613 614 615
f 616 617 618
f 619 620 621
f 622 623 624
f 625 626 627
f 628 629 630
f 631 632 633
f 634 635 636
f 637 638 639
f 640 641 642
f 643 644 645
f 646 647 648
f 649 650 651
f 652 653 654
f 655 656 657
f 658 659 660
f 661 662 663
f 664 665 666
f 667 668 669
f 670 671 672
f 673 674 675
f 676 677 678
f 679 680 681
f 682 683 684
f 685 686 687
f 688 689 690
f 691 692 693
f 694 695 696
f 697 698 699
f 700 701 702
f 703 704 705
f 706 707 708
f 709 710 711
f 712 713 714
f 715 716 717
f 718 719 720
f 721 722 723
f 724 725 726
f 727 728 729
f 730 731 732
f 733 734 735
f 736 737 738
f 739 740 741
f 742 743 744
f 745 746 747
f 748 749 750
f 751 752 753
f 754 755 756
f 757 758 759
f 760 761 762
f 763 764 765
f 766 767 768
f 769 770 771
f 772 773 774
f 775 776 777
f 778 779 780
f 781 782 783
f 784 785 786
f 787 788 789
f 790 791 792
f 793 794 795
f 796 797 798
f 799 800 801
f 802 803 804
f 805 806 807
f 808 809 810
f 811 812 813
f 814 815 816
f 817 818 819
f 820 821 822
f 823 824 825
f 826 827 828
f 829 830 831
f 832 833 834
f 835 836 837
f 838 839 840
f 841 842 843
f 844 845 846
f 847 848 849
f 850 851 852
f 853 854 855
f 856 857 858
f 859 860 861
f 862 863 864
f 865 866 867
f 868 869 870
f 871 872 873
f 874 875 876
f 877 878 879
f 880 881 882
f 883 884 885
f 886 887 888
f 889 890 891
f 892 893 894
f 895 896 897
f 898 899 900
f 901 902 903
f 904 905 906
f 907 908 909
f 910 911 912
f 913 914 915
f 916 917 918
f 919 920 921
f 922 923 924
f 925 926 927
f 928 929 930
f 931 932 933
f 934 935 936
f 937 938 939
f 940 941 942
f 943 944 945
f 946 947 948
f 949 950 951
f 952 953 954
f 955 956 957
f 958 959 960
f 961 962 963
f 964 965 966
f 967 968 969
f 970 971 972
f 973 974 975
f 976 977 978
f 979 980 981
f 982 983 984
f 985 986 987
f 988 989 990
f 991 992 993
f 994 995 996
f 997 998 999
f 1000 1001 1002
f 1003 1004 1005
f 1006 1007 1008
f 1009 1010 1011
f 1012 1013 1014
f 1015 1016 1017
f 1018 1019 1020
f 1021 1022 1023
f 1024 1025 1026
f 1027 1028 1029
f 1030 1031 1032
f 1033 1034 1035
f 1036 1037 1038
f 1039 1040 1041
f 1042 1043 1044
f 1045 1046 1047
f 1048 1049 1050
f 1051 1052 1053
f 1054 1055 1056
f 1057 1058 1059
f 1060 1061 1062
f 1063 1064 1065
f 1066 1067 1068
f 1069 1070 1071
f 1072 1073 1074
f 1075 1076 1077
f 1078 1079 1080
f 1081 1082 1083
f 1084 1085 1086
f 1087 1088 1089
f 1090 1091 1092
f 1093 1094 1095
f 1096 1097 1098
f 1099 1100 1101
f 1102 1103 1104
f 1105 1106 1107
f 1108 1109 1110
f 1111 1112 1113
f 1114 1115 1116
f 1117 1118 1119
f 1120 1121 1122
f 1123 1124 1125
f 1126 1127 1128
f 1129 1130 1131
f 1132 1133 1134
f 1135 1136 1137
f 1138 1139 1140
f 1141 1142 1143
f 1144 1145 1146
f 1147 1148 1149
f 1150 1151 1152
f 1153 1154 1155
f 1156 1157 1158
f 1159 1160 1161
f 1162 1163 1164
f 1165 1166 1167
f 1168 1169 1170
f 1171 1172 1173
f 1174 1175 1176
f 1177 1178 1179
f 1180 1181 1182
f 1183 1184 1185
f 1186 1187 1188
f 1189 1190 1191
f 1192 1193 1194
f 1195 1196 1197
f 1198 1199 1200
f 1201 1202 1203
f 1204 1205 1206
f 1207 1208 1209
f 1210 1211 1212
f 1213 1214 1215
f 1216 1217 1218
f 1219 1220 1221
f 1222 1223 1224
f 1225 1226 1227
f 1228 1229 1230
f 1231 1232 1233
f 1234 1235 1236
f 1237 1238 1239
f 1240 1241 1242
f 1243 1244 1245
f 1246 1247 1248
f 1249 1250 1251
f 1252 1253 1254
f 1255 1256 1257
f 1258 1259 1260
f 1261 1262 1263
f 1264 1265 1266
f 1267 1268 1269
f 1270 1271 1272
f 1273 1274 1275
f 1276 1277 1278
f 1279 1280 1281
f 1282 1283 1284
f 1285 1286 1287
f 1288 1289 1290
f 1291 1292 1293
f 1294 1295 1296
f 1297 1298 1299
f 1300 1301 1302
f 1303 1304 1305
f 1306 1307 1308
f 1309 1310 1311
f 1312 1313 1314
f 1315 1316 1317
f 1318 1319 1320
f 1321 1322 1323
f 1324 1325 1326
f 1327 1328 1329
f 1330 1331 1332
f 1333 1334 1335
f 1336 1337 1338
f 1339 1340 1341
f 1342 1343 1344
f 1345 1346 1347
f 1348 1349 1350
f 1351 1352 1353
f 1354 1355 1356
f 1357 1358 1359
f 1360 1361 1362
f 1363 1364 1365
f 1366 1367 1368
f 1369 1370 1371
f 1372 1373 1374
f 1375 1376 1377
f 1378 1379 1380
f 1381 1382 1383
f 1384 1385 1386
f 1387 1388 1389
f 1390 1391 1392
f 1393 1394 1395
f 1396 1397 1398
f 1399 1400 1401
f 1402 1403 1404
f 1405 1406 1407
f 1408 1409 1410
f 1411 1412 1413
f 1414 1415 1416
f 1417 1418 1419
f 1420 1421 1422
f 1423 1424 1425
f 1426 1427 1428
f 1429 1430 1431
f 1432 1433 1434
f 1435 1436 1437
f 1438 1439 1440
f 1441 1442 1443
f 1444 1445 1446
f 1447 1448 1449
f 1450 1451 1452
f 1453 1454 1455
f 1456 1457 1458
f 1459 1460 1461
f 1462 1463 1464
f 1465 1466 1467
f 1468 1469 1470
f 1471 1472 1473
f 1474 1475 1476
f 1477 1478 1479
f 1480 1481 1482
f 1483 1484 1485
f 1486 1487 1488
f 1489 1490 1491
f 1492 1493 1494
f 1495 1496 1497
f 1498 1499 1500
f 1501 1502 1503
f 1504 1505 1506
f 1507 1508 1509
f 1510 1511 1512
f 1513 1514 1515
f 1516 1517 1518
f 1519 1520 1521
f 1522 1523 1524
f 1525 1526 1527
f 1528 1529 1530
f 1531 1532 1533
f 1534 1535 1536
f 1537 1538 1539
f 1540 1541 1542
f 1543 1544 1545
f 1546 1547 1548
f 1549 1550 1551
f 1552 1553 1554
f 1555 1556 1557
f 1558 1559 1560
f 1561 1562 1563
f 1564 1565 1566
f 1567 1568 1569
f 1570 1571 1572
f 1573 1574 1575
f 1576 1577 1578
f 1579 1580 1581
f 1582 1583 1584
f 1585 1586 1587
f 1588 1589 1590
f 1591 1592 1593
f 1594 1595 1596
f 1597 1598 1599
f 1600 1601 1602
f 1603 1604 1605
f 1606 1607 1608
f 1609 1610 1611
f 1612 1613 1614
f 1615 1616 1617
f 1618 1619 1620
f 1621 1622 1623
f 1624 1625 1626
f 1627 1628 1629
f 1630 1631 1632
f 1633 1634 1635
f 1636 1637 1638
f 1639 1640 1641
f 1642 1643 1644
f 1645 1646 1647
f 1648 1649 1650
f 1651 1652 1653
f 1654 1655 1656
f 1657 1658 1659
f 1660 1661 1662
f 1663 1664 1665
f 1666 1667 1668
f 1669 1670 1671
f 1672 1673 1674
f 1675 1676 1677
f 1678 1679 1680
f 1681 1682 1683
f 1684 1685 1686
f 1687 1688 1689
f 1690 1691 1692
f 1693 1694 1695
f 1696 1697 1698
f 1699 1700 1701
f 1702 1703 1704
f 1705 1706 1707
f 1708 1709 1710
f 1711 1712 1713
f 1714 1715 1716
f 1717 1718 1719
f 1720 1721 1722
f 1723 1724 1725
f 1726 1727 1728
f 1729 1730 1731
f 1732 1733 1734
f 1735 1736 1737
f 1738 1739 1740
f 1741 1742 1743
f 1744 1745 1746
f 1747 1748 1749
f 1750 1751 1752
f 1753 1754 1755
f 1756 1757 1758
f 1759 1760 1761
f 1762 1763 1764
f 1765 1766 1767
f 1768 1769 1770
f 1771 1772 1773
f 1774 1775 1776
f 1775 1777 1776
f 1778 1779 1780
f 1781 1782 1783
f 1784 1785 1786
f 1787 1788 1789
f 1790 1791 1792
f 1793 1794 1795
f 1796 1797 1798
f 1799 1800 1801
f 1802 1803 1804
f 1805 1806 1807
f 1808 1809 1810
f 1811 1812 1813
f 1814 1815 1816
f 1817 1818 1819
f 1820 1821 1822
f 1823 1824 1825
f 1826 1827 1828
f 1829 1830 1831
f 1832 1833 1834
f 1835 1836 1837
f 1838 1839 1840
f 1841 1842 1843
f 1844 1845 1846
f 1847 1848 1849
f 1850 1851 1852
f 1853 1854 1855
f 1856 1857 1858
f 1859 1860 1861
f 1862 1863 1864
f 1865 1866 1867
f 1868 1869 1870
f 1871 1872 1873
f 1874 1875 1876
f 1877 1878 1879
f 1880 1881 1882
f 1883 1884 1885
f 1886 1887 1888
f 1889 1890 1891
f 1892 1893 1894
f 1895 1896 1897
f 1898 1899 1900
f 1901 1902 1903
f 1904 1905 1906
f 1907 1908 1909
f 1910 1911 1912
f 1913 1914 1915
f 1916 1917 1918
f 1919 1920 1921
f 1922 1923 1924
f 1925 1926 1927
f 1928 1929 1930
f 1931 1932 1933
f 1934 1935 1936
