v -0.200053558 -0.22355625 0.104899049
v -0.199252471 -0.223619312 0.105077267
v -0.199338213 -0.223619968 0.105077446
v -0.199417368 -0.223621577 0.105080068
v -0.199569985 -0.223633975 0.105109453
v -0.19964315 -0.223644823 0.105136037
v -0.199713811 -0.223658711 0.105170846
v 0.155509248 -0.221062273 0.105077446
v 0.15622361 -0.220988303 0.104899049
v 0.155885354 -0.221095592 0.105170846
v 0.0379194841 -0.00491914153 0.0795851946
v -0.0235668793 0.00606384873 0.0795407891
v -0.0848884955 -0.00580433011 0.0795851946
v 0.0377770886 0.0154185593 0.0793512464
v 0.124647163 0.0160447061 0.0793512464
v 0.0901642665 0.0221829116 0.0789467096
v 0.124616228 0.0224312842 0.0789467096
v 0.144851282 0.0221267641 0.0788962841
v 0.124613725 0.0262799561 0.0782573223
v 0.144943133 0.0258600414 0.0782289505
v 0.154993728 0.0242332518 0.0781437159
v 0.144984558 0.027667433 0.0766907334
v 0.15543808 0.0258813202 0.0766662359
v 0.159995332 0.0221991241 0.076644361
v 0.155284539 0.0262331665 0.0736813545
v 0.144714609 0.0280717909 0.0736857653
v 0.124251686 0.028562516 0.073687315
v 0.124529026 0.0281404555 0.0766989589
v 0.0900877938 0.0278922021 0.0766989589
v 0.0898741707 0.0283147395 0.0736873746
v 0.0375604257 0.0279376805 0.0736874342
v 0.0901559219 0.0260315835 0.0782573223
v -0.0237182751 0.027071923 0.0766989589
v -0.023721315 0.0274959505 0.0736874938
v 0.0377200469 0.0256536305 0.0782573223
v -0.0850031152 0.0270542204 0.0736874342
v 0.0377373323 0.0218050182 0.0789467096
v -0.0236771479 0.0213623941 0.0789467096
v -0.0237048641 0.0252108872 0.0782573223
v -0.0850392953 0.0145333111 0.0793512464
v -0.0851136819 0.0266293585 0.0766989589
v -0.0851297751 0.0247681439 0.0782573223
v -0.137524381 0.0262516439 0.0766989589
v -0.137316838 0.0266771615 0.0736873746
v -0.171694383 0.0264293849 0.073687315
v -0.13751854 0.0205418169 0.0789467096
v -0.137565657 0.0243901908 0.0782573223
v -0.17202346 0.0241418183 0.0782573223
v -0.171965614 0.0260033906 0.0766989589
v -0.192412183 0.0252355039 0.0766907334
v -0.192148104 0.0256437361 0.0736857653
v -0.202690408 0.023652941 0.0736813545
v -0.171970502 0.020293504 0.0789467096
v -0.171909347 0.0139071643 0.0793512464
v -0.192199096 0.0196973383 0.0788962841
v -0.19234471 0.0234289467 0.0782289505
v -0.202370837 0.0216574371 0.0781437159
v -0.202838853 0.0232988894 0.0766662359
v -0.20734264 0.0195514262 0.076644361
v -0.207333609 0.0197899044 0.0736727118
v -0.210090116 0.0133872926 0.0736583471
v -0.201955989 0.018276006 0.0787449479
v -0.206432685 0.0182615817 0.0780819654
v -0.205055252 0.016428262 0.0785405636
v -0.202263877 0.0127021372 0.0791009068
v -0.208861127 0.0126756728 0.0781238675
v -0.206359521 0.0121847689 0.0787314773
v -0.192228898 0.0135141909 0.0792886615
v -0.192294165 0.00478675961 0.0794728398
v -0.207291469 0.00437781215 0.0788624287
v -0.202743009 0.00452849269 0.0792688727
v -0.202841744 -0.00665226579 0.0793060064
v -0.210020646 0.0133511126 0.0766441226
v -0.211321607 0.0046081841 0.0766450167
v -0.211427137 0.00446400046 0.0736383796
v -0.211811915 -0.00696143508 0.0736128688
v -0.210047051 0.00449189544 0.078187108
v -0.210381344 -0.00669774413 0.078189373
v -0.211694315 -0.00676724315 0.0766264796
v -0.211593881 -0.0206976235 0.0765954852
v -0.21171166 -0.0208702385 0.0735818148
v -0.211593643 -0.0372436345 0.0735453367
v -0.207541153 -0.00668284297 0.0788872838
v -0.207440749 -0.0206134617 0.0788562894
v -0.210162565 -0.0370506942 0.0781219006
v -0.211475626 -0.0371055901 0.0765590072
v -0.211341962 -0.0556498468 0.0765177608
v -0.211460307 -0.0557442605 0.0735042095
v -0.211314067 -0.0760344565 0.0734590292
v -0.210873172 -0.120687515 0.0763731599
v -0.210992619 -0.120633513 0.0733599067
v -0.21071054 -0.143251687 0.0763229728
v -0.210830286 -0.143152803 0.0733098388
v -0.210680857 -0.163882464 0.0732637644
v -0.209559664 -0.120695978 0.0779358745
v -0.210028812 -0.0556096733 0.0780805945
v -0.207188621 -0.0555897653 0.0787785649
v -0.209247157 -0.164052635 0.0778394938
v -0.210560843 -0.164020807 0.0762767792
v -0.210434571 -0.181541175 0.0762378573
v -0.210554823 -0.181370467 0.0732249618
v -0.210462585 -0.194164723 0.0731965899
v -0.202623025 -0.0369969904 0.079238534
v -0.206188306 -0.194373578 0.0784699321
v -0.209028378 -0.194405586 0.0777720213
v -0.210342154 -0.194359154 0.0762093663
v -0.209823385 -0.203251868 0.0761828423
v -0.20993121 -0.203075677 0.0731769204
v -0.208487794 -0.208913833 0.0731640458
v -0.205796018 -0.203095704 0.0784010887
v -0.208550051 -0.203198165 0.0777252913
v -0.207265958 -0.208632499 0.0776317716
v -0.208417997 -0.208996445 0.0761497617
v -0.205670252 -0.21246466 0.0761284232
v -0.202342525 -0.0759133399 0.0791520476
v -0.202489272 -0.0555562079 0.0791972876
v -0.191902503 -0.0554800928 0.0794066787
v -0.192036286 -0.0369207561 0.0794479251
v -0.171533957 -0.0367730558 0.0795177221
v -0.192154601 -0.0205048025 0.0794844031
v -0.171752676 -0.0064304173 0.0795851946
v -0.192255005 -0.00657764077 0.0795153975
v -0.171837524 0.00499513745 0.0795407891
v -0.137390867 0.0052434504 0.0795407891
v -0.084971942 0.00562122464 0.0795407891
v 0.162831441 0.0160752833 0.0736583471
v 0.159982935 0.0224374235 0.0736727118
v 0.161612824 0.0153460205 0.0781238675
v 0.159118548 0.0148190558 0.0787314773
v 0.160162941 0.00702634454 0.0788624287
v 0.159104124 0.0208962858 0.0780819654
v 0.157753244 0.0190432966 0.0785405636
v 0.155015901 0.0152773559 0.0791009068
v 0.154627696 0.0208462179 0.0787449479
v 0.155612782 0.00711145997 0.0792688727
v 0.155872717 -0.00406673551 0.0793060064
v 0.145161346 0.00721904635 0.0794728398
v 0.144970253 0.0159446299 0.0792886615
v 0.145285979 -0.00414469838 0.0795153975
v 0.145386353 -0.0180718601 0.0794844031
v 0.124783657 -0.00429305434 0.0795851946
v 0.125002339 -0.0346356332 0.0795177221
v 0.0381382331 -0.03526178 0.0795177221
v 0.124703787 0.00713256001 0.0795407891
v 0.0902571306 0.00688424706 0.0795407891
v 0.0378381833 0.00650641322 0.0795407891
v -0.0846698061 -0.036146909 0.0795177221
v -0.117119886 -0.0626229346 0.0794593692
v -0.0844806805 -0.062387675 0.0794593692
v -0.0462462083 -0.0621121228 0.0794593692
v -0.149896249 -0.0628592074 0.0794593692
v 9.28858426e-05 -0.0617780983 0.0794593692
v 0.0383273587 -0.0615024865 0.0794593692
v -0.171344832 -0.0630137622 0.0794593692
v -0.176981315 -0.063054353 0.0794401765
v -0.176930293 -0.0701337159 0.0794244409
v 0.0709665641 -0.0612672269 0.0794593692
v 0.10374292 -0.0610310137 0.0794593692
v 0.125191465 -0.0608763993 0.0794593692
v -0.191755787 -0.0758374035 0.0793613791
v -0.176889941 -0.075730294 0.0794119835
v -0.176846728 -0.0817262828 0.0793986917
v 0.145638421 -0.0530471504 0.0794066787
v 0.132284477 -0.0608251989 0.0794352293
v 0.132325128 -0.0664583147 0.0794227123
v -0.191598579 -0.0976472795 0.0793129206
v -0.176612958 -0.114156872 0.07932657
v -0.191433415 -0.120564371 0.0792619586
v -0.176567569 -0.120457202 0.0793125629
v -0.202020124 -0.120640844 0.0790525675
v -0.191270694 -0.143136114 0.0792117715
v -0.176296309 -0.158091158 0.079228878
v -0.191120967 -0.163909882 0.0791655779
v -0.176255122 -0.163802236 0.0792161822
v -0.176220402 -0.168619722 0.0792054534
v -0.201707706 -0.163988084 0.0789561868
v -0.190994665 -0.181433052 0.0791265965
v -0.176167324 -0.175986081 0.0791890621
v -0.201488987 -0.194332808 0.0788887143
v -0.170399949 -0.194104105 0.0791679025
v -0.170530811 -0.175945491 0.0792082548
v -0.146579728 -0.175772816 0.0792082548
v -0.120114066 -0.175582081 0.0792082548
v -0.0836666599 -0.175319403 0.0792082548
v -0.190902278 -0.194252998 0.0790981054
v -0.190795377 -0.203151435 0.079010427
v -0.201246276 -0.203125447 0.0788071156
v -0.200669006 -0.208565503 0.0786089301
v -0.170338079 -0.203037769 0.0790782571
v -0.190625682 -0.208909839 0.0787940621
v -0.17030336 -0.208902329 0.0788558125
v -0.135891393 -0.202789456 0.0790782571
v -0.190526113 -0.212406367 0.0783801675
v -0.0835358277 -0.193477958 0.0791679025
v 0.0392722115 -0.192592829 0.0791679025
v 0.0391413793 -0.174434215 0.0792082548
v 0.0755887255 -0.174171478 0.0792082548
v 0.102054439 -0.173980743 0.0792082548
v 0.126136377 -0.191966683 0.0791679025
v 0.126005486 -0.173808068 0.0792082548
v 0.133098498 -0.173756927 0.0791841149
v 0.14654626 -0.179000109 0.0791265965
v 0.133054391 -0.16763553 0.0791977048
v 0.146420017 -0.16147694 0.0791655779
v 0.1330107 -0.161573201 0.079211235
v 0.132958904 -0.154386252 0.0792272091
v 0.14627023 -0.140703171 0.0792117715
v 0.132698253 -0.118228108 0.0793076158
v 0.157006755 -0.161402553 0.0789561868
v 0.146107569 -0.118131489 0.0792619586
v 0.132641092 -0.110299617 0.0793251991
v 0.156694308 -0.118055314 0.0790525675
v 0.145942345 -0.0952143371 0.0793129206
v 0.13243027 -0.0810465515 0.0793902874
v 0.145785168 -0.0734044611 0.0793613791
v 0.132375851 -0.0735011995 0.0794070363
v 0.156371906 -0.0733278096 0.0791520476
v 0.160572067 -0.00402954221 0.0788872838
v 0.156091407 -0.0344114006 0.079238534
v 0.157225445 -0.191747218 0.0788887143
v 0.145504668 -0.0344878137 0.0794479251
v 0.146638706 -0.191820055 0.0790981054
v 0.146660104 -0.200719088 0.079010427
v 0.126203254 -0.200900286 0.0790782571
v 0.0917566046 -0.201148599 0.0790782571
v 0.126253143 -0.206764787 0.0788558125
v 0.157109514 -0.20054248 0.0788071156
v 0.0393376574 -0.201526433 0.0790782571
v -0.0220674053 -0.201969057 0.0790782571
v 0.0393830761 -0.207390934 0.0788558125
v -0.083472468 -0.202411622 0.0790782571
v -0.0834333077 -0.208276182 0.0788558125
v -0.170292452 -0.212514728 0.0784290433
v 0.12629427 -0.210377008 0.0784290433
v -0.170301989 -0.214692146 0.0777262449
v -0.0834082738 -0.21406582 0.0777262449
v -0.190629616 -0.214518815 0.0776998401
v 0.0394415483 -0.213180333 0.0777262449
v -0.200674906 -0.21363166 0.0776205659
v -0.190677002 -0.215503365 0.0761554837
v -0.200298235 -0.21171394 0.0782335401
v -0.203418091 -0.210705966 0.0780355334
v -0.204770163 -0.208322078 0.0782411695
v -0.204774722 -0.211759835 0.077570498
v -0.201124623 -0.214528292 0.0761374235
v -0.200973019 -0.214613527 0.0731515884
v -0.205659375 -0.212489635 0.0731562376
v -0.190409169 -0.215616256 0.0731493235
v -0.169948205 -0.215828389 0.0731486082
v -0.1702234 -0.21570608 0.0761615038
v -0.135782167 -0.215457827 0.0761615038
v -0.13557066 -0.215580553 0.0731487274
v -0.0832569376 -0.215203494 0.073148787
v -0.0833714381 -0.215080053 0.0761615038
v -0.021976091 -0.214637548 0.0761615038
v -0.0219751969 -0.214761764 0.073148787
v 0.0393066034 -0.214320093 0.073148787
v 0.0394193158 -0.214195043 0.0761615038
v 0.0918300375 -0.213817269 0.0761615038
v 0.0916202888 -0.213943034 0.0731487274
v 0.125997856 -0.213695198 0.0731486082
v 0.126335219 -0.212554008 0.0777262449
v 0.126271263 -0.213569015 0.0761615038
v 0.146719769 -0.213071495 0.0761554241
v 0.146453574 -0.213188201 0.0731493235
v 0.157001927 -0.212033302 0.0731515884
v 0.146524265 -0.209976941 0.0783801675
v 0.146658197 -0.212087661 0.0776998401
v 0.156689659 -0.211055845 0.0776205659
v 0.15715225 -0.211945862 0.0761374235
v 0.161667719 -0.209816962 0.0761284232
v 0.161657169 -0.209842056 0.0731562376
v 0.164433733 -0.206225842 0.0731640458
v 0.146573439 -0.2064794 0.0787940621
v 0.156610742 -0.205990285 0.0786089301
v 0.15628542 -0.209143728 0.0782335401
v 0.161658362 -0.200447112 0.0784010887
v 0.159390405 -0.208090931 0.0780355334
v 0.160707965 -0.205687791 0.0782411695
v 0.161924914 -0.191720277 0.0784699321
v 0.160762087 -0.209125072 0.077570498
v 0.163207963 -0.205962151 0.0776317716
v 0.164365128 -0.206309468 0.0761497617
v 0.165687576 -0.200545222 0.0761828423
v 0.165792838 -0.200367481 0.0731769204
v 0.166195706 -0.191449791 0.0731965899
v 0.164413586 -0.200509936 0.0777252913
v 0.164765134 -0.191711336 0.0777720213
v 0.166078106 -0.19164595 0.0762093663
v 0.165985718 -0.178828031 0.0762378573
v 0.166103497 -0.178655595 0.0732249618
v 0.164546326 -0.161358386 0.0778394938
v 0.165977433 -0.161167592 0.0732637644
v 0.165859416 -0.161307603 0.0762767792
v 0.165709749 -0.140538484 0.0763229728
v 0.165828064 -0.140437871 0.0733098388
v 0.165665761 -0.11791864 0.0733599067
v 0.164233819 -0.118001729 0.0779358745
v 0.165381983 -0.0950689018 0.0764240623
v 0.165501013 -0.0950618088 0.0734106898
v 0.165344253 -0.0733195245 0.0734590292
v 0.163911417 -0.0732715428 0.0780353546
v 0.165224925 -0.0732759535 0.0764725208
v 0.165078297 -0.0529366434 0.0765177608
v 0.165197983 -0.0530293882 0.0735042095
v 0.165064648 -0.0345287621 0.0735453367
v 0.163630918 -0.0343564451 0.0781219006
v 0.164944664 -0.0343923867 0.0765590072
v 0.164946631 -0.0181553066 0.0735818148
v 0.164826408 -0.0179844201 0.0765954852
v 0.164846376 -0.00424650311 0.0736128688
v 0.163412169 -0.00400349498 0.078189373
v 0.164725974 -0.00405403972 0.0766264796
v 0.164189354 0.00731477141 0.0766450167
v 0.16429694 0.0071721375 0.0736383796
v 0.162916616 0.00718012452 0.078187108
v 0.162762478 0.01603809 0.0766441226
v 0.155509248 -0.221062273 0.105077446
v 0.155528679 -0.221695393 0.105583191
v 0.15622361 -0.220988303 0.104899049
v -0.200053558 -0.22355625 0.104899049
v -0.199348524 -0.224253327 0.105583191
v -0.199252471 -0.223619312 0.105077267
v -0.176167473 -0.175962895 0.0687590837
v -0.176167324 -0.175986081 0.0791890621
v -0.170530811 -0.175945491 0.0792082548
v -0.146579728 -0.175772816 0.0792082548
v -0.120114066 -0.175582081 0.0792082548
v -0.0836666599 -0.175319403 0.0792082548
v 0.0391413793 -0.174434215 0.0792082548
v 0.0755887255 -0.174171478 0.0792082548
v 0.102054439 -0.173980743 0.0792082548
v 0.126005486 -0.173808068 0.0792082548
v 0.133098498 -0.173756927 0.0791841149
v 0.133098319 -0.173733741 0.0687590837
v 0.166492358 -0.23693797 0.145841956
v 0.165637508 -0.236759812 0.145937741
v 0.165893212 -0.272232205 0.237848878
v -0.208983496 -0.274934262 0.237848818
v -0.209835544 -0.275141269 0.237796009
v -0.209690586 -0.295251667 0.289903283
v 0.166748181 -0.272426903 0.237796009
v -0.208838597 -0.295035273 0.289931774
v 0.166038051 -0.292333245 0.289931834
v -0.209288821 -0.296475112 0.293080628
v 0.16689308 -0.292537302 0.289903283
v -0.208454058 -0.296206236 0.292972803
v 0.165670469 -0.293509603 0.292972803
v -0.20818691 -0.297568083 0.295933068
v 0.166509047 -0.293766409 0.293080628
v -0.207417831 -0.297234029 0.295655191
v 0.164649203 -0.294552237 0.295655191
v -0.206462637 -0.298527747 0.298451602
v 0.165422991 -0.294875175 0.295933068
v -0.205795571 -0.29813692 0.298024714
v 0.163040057 -0.295478404 0.298024714
v -0.204203591 -0.299322814 0.300553739
v 0.163712695 -0.295859575 0.298451662
v -0.203669474 -0.298885196 0.300003171
v 0.160924986 -0.296257228 0.300003111
v -0.201499537 -0.299921691 0.302155912
v 0.161465362 -0.296687126 0.300553739
v -0.201125458 -0.299448609 0.301510513
v 0.158389345 -0.296857297 0.301510453
v -0.198439285 -0.300293535 0.303176522
v 0.158770218 -0.297324896 0.302155852
v -0.198247626 -0.29979831 0.302470267
v 0.155516878 -0.297248423 0.302470267
v -0.195032582 -0.300410479 0.303543091
v 0.155715659 -0.297740847 0.303176522
v -0.194987103 -0.299910247 0.3028211
v 0.152258292 -0.297407329 0.3028211
v -0.102769472 -0.29974547 0.303543091
v 0.152310982 -0.297906876 0.303543091
v -0.102750041 -0.299245417 0.3028211
v 0.060021244 -0.298072159 0.3028211
v 0.0600478277 -0.298571885 0.303543091
v -0.199252471 -0.223619312 0.105077267
v -0.199348524 -0.224253327 0.105583191
v -0.103295542 -0.223560959 0.105583191
v -0.103300132 -0.22292766 0.105077267
v 0.0594757423 -0.222387761 0.105583191
v 0.0594711527 -0.221754462 0.105077267
v 0.155528679 -0.221695393 0.105583191
v 0.155423477 -0.221062869 0.105077267
v 0.155509248 -0.221062273 0.105077446
v 0.155423477 -0.221062869 0.105077267
v 0.155528679 -0.221695393 0.105583191
v 0.132284358 -0.0608020723 0.0690101981
v 0.132284477 -0.0608251989 0.0794352293
v 0.125191465 -0.0608763993 0.0794593692
v 0.10374292 -0.0610310137 0.0794593692
v 0.0709665641 -0.0612672269 0.0794593692
v 0.0383273587 -0.0615024865 0.0794593692
v 9.28858426e-05 -0.0617780983 0.0794593692
v -0.0462462083 -0.0621121228 0.0794593692
v -0.0844806805 -0.062387675 0.0794593692
v -0.117119886 -0.0626229346 0.0794593692
v -0.149896249 -0.0628592074 0.0794593692
v -0.171344832 -0.0630137622 0.0794593692
v -0.176981315 -0.063054353 0.0794401765
v -0.176981464 -0.0630311668 0.0690101981
v -0.199252471 -0.223619312 0.105077267
v -0.103300132 -0.22292766 0.105077267
v -0.103367187 -0.213621944 0.0809654593
v 0.0594040975 -0.212448686 0.0809654593
v -0.19560428 -0.214286774 0.0809654593
v 0.0594711527 -0.221754462 0.105077267
v 0.151641145 -0.211783856 0.0809654593
v -0.198862836 -0.21444568 0.0813163519
v 0.155423477 -0.221062869 0.105077267
v -0.199338213 -0.223619968 0.105077446
v -0.201735303 -0.214836806 0.0822761059
v 0.155588403 -0.22106275 0.105080068
v -0.199417368 -0.223621577 0.105080068
v -0.204270944 -0.215436846 0.0837834477
v 0.154901639 -0.211895794 0.0813163519
v -0.206386015 -0.2162157 0.0857618451
v -0.199569985 -0.223633975 0.105109453
v -0.207995132 -0.217141837 0.0881314278
v -0.19964315 -0.223644823 0.105136037
v -0.209016427 -0.218184501 0.090813756
v -0.199713811 -0.223658711 0.105170846
v -0.209384039 -0.219360858 0.093854785
v -0.200053558 -0.22355625 0.104899049
v -0.199939385 -0.239394873 0.145937741
v -0.20923917 -0.239461869 0.145937741
v -0.199683711 -0.274867237 0.237848818
v -0.208983496 -0.274934262 0.237848818
v -0.199529633 -0.296246052 0.293242633
v -0.208838597 -0.295035273 0.289931774
v -0.208454058 -0.296206236 0.292972803
v -0.199527875 -0.29632768 0.29345417
v -0.198560014 -0.296587288 0.294144928
v -0.207417831 -0.297234029 0.295655191
v -0.199504301 -0.2964077 0.293661952
v -0.205795571 -0.29813692 0.298024714
v -0.199402407 -0.296485335 0.293864965
v -0.203669474 -0.298885196 0.300003171
v -0.199227378 -0.296546906 0.294027805
v -0.201125458 -0.299448609 0.301510513
v -0.199009523 -0.296581835 0.294122398
v -0.198247626 -0.29979831 0.302470267
v -0.19878675 -0.29658851 0.294143796
v -0.194987103 -0.299910247 0.3028211
v -0.10277418 -0.295896888 0.294144928
v -0.102750041 -0.299245417 0.3028211
v 0.0599971041 -0.29472366 0.294144928
v 0.060021244 -0.298072159 0.3028211
v 0.155782953 -0.294033229 0.294144928
v 0.152258292 -0.297407329 0.3028211
v 0.155516878 -0.297248423 0.302470267
v 0.156009629 -0.294031173 0.294143796
v 0.156747535 -0.293678045 0.293242633
v 0.158389345 -0.296857297 0.301510453
v 0.156232312 -0.294021308 0.294122338
v 0.160924986 -0.296257228 0.300003111
v 0.156449631 -0.293983251 0.294027805
v 0.163040057 -0.295478404 0.298024714
v 0.156623736 -0.293919146 0.293864965
v 0.164649203 -0.294552237 0.295655191
v 0.156724527 -0.293840051 0.293661952
v 0.165670469 -0.293509603 0.292972803
v 0.156746939 -0.293759704 0.29345417
v 0.166038051 -0.292333245 0.289931834
v 0.156593397 -0.27229923 0.237848878
v 0.165893212 -0.272232205 0.237848878
v 0.156337753 -0.236826867 0.145937741
v 0.165637508 -0.236759812 0.145937741
v 0.15622361 -0.220988303 0.104899049
v 0.165492609 -0.216658801 0.093854785
v 0.1651081 -0.215487868 0.0908138156
v 0.155885354 -0.221095592 0.105170846
v 0.164071873 -0.214460045 0.0881314278
v 0.162449613 -0.213557154 0.0857618451
v 0.15574123 -0.221072942 0.105109453
v 0.160323516 -0.212808877 0.0837834477
v 0.155665711 -0.221066326 0.105090797
v 0.15777947 -0.212245494 0.0822761059
v -0.103391029 -0.213507324 0.0800948143
v -0.103367187 -0.213621944 0.0809654593
v 0.0594040975 -0.212448686 0.0809654593
v -0.195654169 -0.214172333 0.0800948143
v 0.0594262704 -0.212333769 0.0800948143
v -0.19560428 -0.214286774 0.0809654593
v 0.151641145 -0.211783856 0.0809654593
v -0.199058846 -0.214338392 0.0804614425
v 0.151689366 -0.21166876 0.0800948143
v -0.198862836 -0.21444568 0.0813163519
v 0.154901639 -0.211895794 0.0813163519
v -0.202113405 -0.214754313 0.0814820528
v 0.155096069 -0.211785704 0.0804614425
v -0.201735303 -0.214836806 0.0822761059
v 0.15777947 -0.212245494 0.0822761059
v -0.204808548 -0.215392083 0.0830842257
v 0.15815635 -0.212157518 0.0814820528
v -0.204270944 -0.215436846 0.0837834477
v 0.160323516 -0.212808877 0.0837834477
v -0.207055882 -0.216219634 0.0851863027
v 0.160860375 -0.212756425 0.083084166
v -0.206386015 -0.2162157 0.0857618451
v 0.162449613 -0.213557154 0.0857618451
v -0.208766177 -0.217204064 0.0877048969
v 0.16311945 -0.213551491 0.0851863027
v -0.207995132 -0.217141837 0.0881314278
v 0.164071873 -0.214460045 0.0881314278
v -0.209852204 -0.21831277 0.0905573368
v 0.164843693 -0.214511126 0.0877048969
v -0.209016427 -0.218184501 0.090813756
v 0.1651081 -0.215487868 0.0908138156
v -0.210236296 -0.219541878 0.0937346816
v 0.165945604 -0.215604097 0.0905573368
v -0.209384039 -0.219360858 0.093854785
v 0.165492609 -0.216658801 0.093854785
v -0.210091338 -0.239652306 0.145841956
v 0.166347399 -0.216827542 0.0937346816
v -0.20923917 -0.239461869 0.145937741
v -0.176220402 -0.168619722 0.0792054534
v -0.176167324 -0.175986081 0.0791890621
v -0.176167473 -0.175962895 0.0687590837
v -0.176255122 -0.163802236 0.0792161822
v -0.176296309 -0.158091158 0.079228878
v -0.176567569 -0.120457202 0.0793125629
v -0.176612958 -0.114156872 0.07932657
v -0.176846728 -0.0817262828 0.0793986917
v -0.176889941 -0.075730294 0.0794119835
v -0.176930293 -0.0701337159 0.0794244409
v -0.176981464 -0.0630311668 0.0690101981
v -0.176981315 -0.063054353 0.0794401765
v 0.133098319 -0.173733741 0.0687590837
v 0.133098498 -0.173756927 0.0791841149
v 0.133054391 -0.16763553 0.0791977048
v 0.1330107 -0.161573201 0.079211235
v 0.132958904 -0.154386252 0.0792272091
v 0.132698253 -0.118228108 0.0793076158
v 0.132641092 -0.110299617 0.0793251991
v 0.13243027 -0.0810465515 0.0793902874
v 0.132375851 -0.0735011995 0.0794070363
v 0.132325128 -0.0664583147 0.0794227123
v 0.132284358 -0.0608020723 0.0690101981
v 0.132284477 -0.0608251989 0.0794352293
v -0.199939385 -0.239394873 0.145937741
v -0.199236676 -0.239771038 0.145790577
v -0.199348524 -0.224253327 0.105583191
v -0.200053558 -0.22355625 0.104899049
v -0.199683711 -0.274867237 0.237848818
v -0.198981002 -0.275243431 0.237701714
v -0.199529633 -0.296246052 0.293242633
v -0.198826209 -0.296718419 0.293344736
v 0.156593397 -0.27229923 0.237848878
v 0.155896202 -0.272685528 0.237701714
v 0.156050995 -0.294160515 0.293344676
v 0.156747535 -0.293678045 0.293242633
v 0.156337753 -0.236826867 0.145937741
v 0.155640498 -0.237213165 0.145790577
v 0.15622361 -0.220988303 0.104899049
v 0.155528679 -0.221695393 0.105583191
v -0.10277418 -0.295896888 0.294144928
v -0.102773227 -0.296026081 0.293344676
v -0.198826209 -0.296718419 0.293344736
v -0.198560014 -0.296587288 0.294144928
v 0.0599971041 -0.29472366 0.294144928
v 0.0599980578 -0.294852853 0.293344676
v 0.155782953 -0.294033229 0.294144928
v 0.156050995 -0.294160515 0.293344676
v -0.198560014 -0.296587288 0.294144928
v -0.198826209 -0.296718419 0.293344736
v -0.199529633 -0.296246052 0.293242633
v 0.156747535 -0.293678045 0.293242633
v 0.156050995 -0.294160515 0.293344676
v 0.155782953 -0.294033229 0.294144928
f 1 2 3
f 1 2 3
f 1 3 4
f 1 3 4
f 1 4 5
f 1 4 5
f 1 5 6
f 1 5 6
f 1 6 7
f 1 6 7
f 8 9 10
f 8 9 10
f 11 12 13
f 14 15 16
f 14 15 16
f 15 17 16
f 15 17 16
f 18 17 15
f 18 17 15
f 16 17 19
f 19 17 18
f 16 17 19
f 19 17 18
f 18 20 19
f 18 20 19
f 21 20 18
f 21 20 18
f 19 20 22
f 22 20 21
f 19 20 22
f 22 20 21
f 21 23 22
f 21 23 22
f 24 23 21
f 24 23 21
f 25 23 24
f 25 23 24
f 22 23 25
f 22 23 25
f 25 26 22
f 25 26 22
f 22 26 27
f 22 26 27
f 27 28 22
f 22 28 19
f 27 28 22
f 22 28 19
f 29 28 27
f 29 28 27
f 19 28 29
f 19 28 29
f 27 30 29
f 27 30 29
f 31 29 30
f 31 29 30
f 29 32 19
f 29 32 19
f 32 16 19
f 32 16 19
f 31 33 29
f 31 33 29
f 31 34 33
f 31 34 33
f 35 32 29
f 35 32 29
f 32 35 16
f 32 35 16
f 35 29 33
f 35 29 33
f 33 34 36
f 33 34 36
f 35 37 16
f 35 37 16
f 14 16 37
f 14 16 37
f 38 37 35
f 38 37 35
f 14 37 38
f 14 37 38
f 38 35 39
f 35 33 39
f 38 35 39
f 35 33 39
f 40 14 38
f 40 14 38
f 40 12 14
f 40 12 14
f 39 33 41
f 39 33 41
f 36 41 33
f 36 41 33
f 38 39 42
f 41 42 39
f 38 39 42
f 41 42 39
f 43 41 36
f 43 41 36
f 42 41 43
f 42 41 43
f 36 44 43
f 36 44 43
f 43 44 45
f 43 44 45
f 46 38 42
f 46 38 42
f 46 40 38
f 46 40 38
f 43 47 42
f 43 47 42
f 46 42 47
f 46 42 47
f 48 47 43
f 46 47 48
f 48 47 43
f 46 47 48
f 45 49 43
f 45 49 43
f 43 49 48
f 43 49 48
f 50 49 45
f 50 49 45
f 48 49 50
f 48 49 50
f 45 51 50
f 45 51 50
f 50 51 52
f 50 51 52
f 48 53 46
f 48 53 46
f 46 53 54
f 46 53 54
f 46 54 40
f 46 54 40
f 55 53 48
f 55 53 48
f 54 53 55
f 54 53 55
f 50 56 48
f 50 56 48
f 48 56 55
f 48 56 55
f 57 56 50
f 57 56 50
f 55 56 57
f 55 56 57
f 50 58 57
f 50 58 57
f 52 58 50
f 52 58 50
f 59 58 52
f 59 58 52
f 57 58 59
f 57 58 59
f 52 60 59
f 52 60 59
f 59 60 61
f 59 60 61
f 57 62 55
f 57 62 55
f 59 63 57
f 59 63 57
f 64 62 57
f 64 62 57
f 57 63 64
f 57 63 64
f 65 62 64
f 65 62 64
f 55 62 65
f 55 62 65
f 64 63 66
f 66 63 59
f 64 63 66
f 66 63 59
f 64 67 65
f 66 67 64
f 64 67 65
f 66 67 64
f 65 68 55
f 65 68 55
f 55 68 54
f 55 68 54
f 69 68 65
f 69 68 65
f 54 68 69
f 54 68 69
f 65 67 70
f 70 67 66
f 65 67 70
f 70 67 66
f 65 71 69
f 70 71 65
f 65 71 69
f 70 71 65
f 69 71 72
f 72 71 70
f 72 71 70
f 69 71 72
f 59 73 66
f 59 73 66
f 61 73 59
f 61 73 59
f 74 73 61
f 74 73 61
f 66 73 74
f 66 73 74
f 61 75 74
f 61 75 74
f 74 75 76
f 74 75 76
f 74 77 66
f 74 77 66
f 66 77 70
f 66 77 70
f 78 77 74
f 78 77 74
f 70 77 78
f 70 77 78
f 76 79 74
f 76 79 74
f 74 79 78
f 74 79 78
f 80 79 76
f 80 79 76
f 80 78 79
f 80 78 79
f 76 81 80
f 76 81 80
f 80 81 82
f 80 81 82
f 78 83 70
f 78 83 70
f 70 83 72
f 70 83 72
f 84 83 78
f 84 83 78
f 84 72 83
f 84 72 83
f 85 84 78
f 85 84 78
f 80 85 78
f 80 85 78
f 80 82 86
f 80 86 85
f 80 86 85
f 80 82 86
f 82 87 86
f 82 87 86
f 85 86 87
f 85 86 87
f 82 88 87
f 82 88 87
f 87 88 89
f 87 88 89
f 87 89 90
f 87 89 90
f 89 91 90
f 89 91 90
f 91 92 90
f 91 92 90
f 91 93 92
f 91 93 92
f 94 92 93
f 94 92 93
f 87 90 95
f 95 90 92
f 87 90 95
f 95 90 92
f 95 96 87
f 95 96 87
f 87 96 85
f 87 96 85
f 85 96 97
f 85 96 97
f 97 96 95
f 97 96 95
f 85 97 84
f 85 97 84
f 95 92 98
f 95 92 98
f 97 95 98
f 97 95 98
f 94 99 92
f 94 99 92
f 92 99 98
f 92 99 98
f 94 100 99
f 94 100 99
f 98 99 100
f 98 99 100
f 94 101 100
f 94 101 100
f 100 101 102
f 100 101 102
f 84 97 103
f 84 97 103
f 84 103 72
f 84 103 72
f 104 97 98
f 104 97 98
f 98 100 105
f 104 98 105
f 98 100 105
f 104 98 105
f 102 106 100
f 102 106 100
f 100 106 105
f 100 106 105
f 107 106 102
f 107 106 102
f 105 106 107
f 105 106 107
f 102 108 107
f 102 108 107
f 107 108 109
f 107 108 109
f 110 104 105
f 110 104 105
f 105 111 110
f 105 111 110
f 107 111 105
f 107 111 105
f 110 111 112
f 110 111 112
f 112 111 107
f 112 111 107
f 109 113 107
f 107 113 112
f 107 113 112
f 109 113 107
f 112 113 114
f 112 113 114
f 114 113 109
f 114 113 109
f 97 104 115
f 97 104 115
f 97 115 116
f 97 115 116
f 117 116 115
f 117 116 115
f 97 116 103
f 97 116 103
f 103 116 117
f 103 116 117
f 117 118 103
f 117 118 103
f 119 118 117
f 119 118 117
f 103 118 120
f 103 118 120
f 120 118 119
f 120 118 119
f 103 120 72
f 103 120 72
f 120 119 121
f 120 119 121
f 120 122 72
f 120 122 72
f 120 121 122
f 120 121 122
f 72 122 69
f 72 122 69
f 69 122 121
f 69 122 121
f 13 121 119
f 13 121 119
f 121 123 69
f 121 123 69
f 69 123 54
f 69 123 54
f 124 123 121
f 124 123 121
f 124 54 123
f 124 54 123
f 13 124 121
f 13 124 121
f 124 40 54
f 124 40 54
f 13 125 124
f 124 125 40
f 124 125 40
f 13 125 124
f 40 125 12
f 40 125 12
f 12 125 13
f 12 125 13
f 126 127 24
f 126 127 24
f 24 127 25
f 24 127 25
f 128 129 130
f 128 129 130
f 24 131 128
f 24 131 128
f 132 129 128
f 132 129 128
f 128 131 132
f 128 131 132
f 133 129 132
f 133 129 132
f 130 129 133
f 130 129 133
f 132 131 21
f 21 131 24
f 132 131 21
f 21 131 24
f 132 134 133
f 21 134 132
f 132 134 133
f 21 134 132
f 133 135 130
f 133 135 130
f 130 135 136
f 130 135 136
f 137 135 133
f 137 135 133
f 136 135 137
f 136 135 137
f 133 134 18
f 18 134 21
f 133 134 18
f 18 134 21
f 133 138 137
f 18 138 133
f 133 138 137
f 18 138 133
f 137 139 136
f 137 139 136
f 136 139 140
f 136 139 140
f 140 139 141
f 140 139 141
f 141 139 137
f 141 139 137
f 142 140 141
f 142 140 141
f 15 138 18
f 15 138 18
f 137 138 15
f 137 138 15
f 142 141 11
f 142 141 11
f 11 143 142
f 11 143 142
f 143 11 13
f 143 11 13
f 15 144 137
f 137 144 141
f 137 144 141
f 15 144 137
f 145 141 144
f 145 141 144
f 145 144 15
f 145 144 15
f 145 11 141
f 145 11 141
f 145 146 11
f 145 146 11
f 14 146 145
f 14 145 15
f 14 146 145
f 14 145 15
f 11 146 12
f 11 146 12
f 12 146 14
f 12 146 14
f 11 12 13
f 119 147 13
f 119 147 13
f 148 149 147
f 148 149 147
f 150 147 149
f 150 147 149
f 151 148 147
f 151 148 147
f 151 147 119
f 151 147 119
f 150 143 147
f 150 143 147
f 13 147 143
f 13 147 143
f 150 152 143
f 150 152 143
f 152 153 143
f 152 153 143
f 151 119 154
f 151 119 154
f 154 119 117
f 154 119 117
f 155 154 117
f 155 154 117
f 156 155 117
f 156 155 117
f 142 143 153
f 142 143 153
f 142 153 157
f 142 153 157
f 158 142 157
f 158 142 157
f 158 159 142
f 158 159 142
f 156 117 160
f 156 117 160
f 156 160 161
f 156 160 161
f 160 162 161
f 160 162 161
f 163 142 159
f 163 142 159
f 163 159 164
f 163 159 164
f 165 163 164
f 165 163 164
f 160 166 162
f 160 166 162
f 166 167 162
f 166 167 162
f 166 160 115
f 166 160 115
f 115 160 117
f 115 160 117
f 166 168 167
f 166 168 167
f 168 169 167
f 168 169 167
f 170 166 115
f 170 166 115
f 170 168 166
f 170 168 166
f 169 168 171
f 169 168 171
f 171 168 170
f 171 168 170
f 172 169 171
f 172 169 171
f 172 171 173
f 172 171 173
f 172 173 174
f 172 173 174
f 175 174 173
f 175 174 173
f 171 170 176
f 171 170 176
f 171 176 173
f 171 176 173
f 175 173 177
f 175 173 177
f 177 173 176
f 177 173 176
f 175 177 178
f 175 177 178
f 104 176 170
f 104 176 170
f 104 170 115
f 104 170 115
f 104 179 176
f 104 179 176
f 179 177 176
f 179 177 176
f 177 180 178
f 177 180 178
f 180 181 178
f 180 181 178
f 182 181 180
f 182 181 180
f 182 180 183
f 182 180 183
f 180 184 183
f 180 184 183
f 179 185 177
f 177 185 180
f 177 185 180
f 179 185 177
f 180 185 186
f 186 185 179
f 186 185 179
f 180 185 186
f 179 187 186
f 179 187 186
f 110 187 179
f 110 187 179
f 179 104 110
f 179 104 110
f 186 187 188
f 188 187 110
f 186 187 188
f 188 187 110
f 186 189 180
f 186 189 180
f 188 190 186
f 188 190 186
f 191 189 186
f 191 189 186
f 186 190 191
f 186 190 191
f 192 189 191
f 192 189 191
f 192 180 189
f 192 180 189
f 191 190 193
f 191 190 193
f 193 190 188
f 193 190 188
f 192 194 180
f 192 194 180
f 180 194 184
f 180 194 184
f 184 194 195
f 184 194 195
f 195 196 184
f 195 196 184
f 197 196 195
f 197 196 195
f 198 197 195
f 198 197 195
f 198 195 199
f 198 195 199
f 198 199 200
f 198 199 200
f 201 200 199
f 201 200 199
f 201 199 202
f 201 199 202
f 201 202 203
f 201 202 203
f 202 204 203
f 202 204 203
f 204 205 203
f 204 205 203
f 206 205 204
f 206 205 204
f 206 204 207
f 206 204 207
f 208 206 207
f 208 206 207
f 209 204 202
f 209 204 202
f 207 204 209
f 207 204 209
f 208 207 210
f 208 207 210
f 211 208 210
f 211 208 210
f 207 212 210
f 207 209 212
f 207 212 210
f 207 209 212
f 211 210 213
f 211 210 213
f 213 210 212
f 213 210 212
f 214 211 213
f 214 211 213
f 214 213 215
f 214 213 215
f 214 215 216
f 214 215 216
f 165 216 215
f 165 216 215
f 165 215 163
f 165 215 163
f 213 217 215
f 213 217 215
f 163 215 217
f 163 215 217
f 213 212 217
f 213 212 217
f 218 217 212
f 218 217 212
f 218 212 209
f 218 212 209
f 218 219 217
f 218 219 217
f 163 217 219
f 163 217 219
f 218 209 220
f 218 209 220
f 209 202 220
f 209 202 220
f 163 219 221
f 163 219 221
f 163 221 142
f 163 221 142
f 140 221 219
f 140 221 219
f 142 221 140
f 142 221 140
f 218 136 219
f 136 140 219
f 218 136 219
f 136 140 219
f 202 222 220
f 202 222 220
f 199 222 202
f 199 222 202
f 220 222 223
f 223 222 199
f 223 222 199
f 220 222 223
f 199 224 223
f 199 224 223
f 225 224 199
f 225 224 199
f 195 225 199
f 195 225 199
f 223 224 226
f 225 226 224
f 223 224 226
f 225 226 224
f 223 227 220
f 223 227 220
f 195 228 225
f 195 228 225
f 229 228 195
f 229 228 195
f 225 228 230
f 225 228 230
f 230 228 229
f 230 228 229
f 225 230 226
f 225 230 226
f 194 229 195
f 194 229 195
f 194 231 229
f 194 231 229
f 192 231 194
f 192 231 194
f 229 231 232
f 232 231 192
f 229 231 232
f 232 231 192
f 230 229 232
f 230 229 232
f 232 192 191
f 232 192 191
f 230 232 233
f 232 191 233
f 230 232 233
f 232 191 233
f 226 230 233
f 226 230 233
f 193 233 191
f 193 233 191
f 226 233 234
f 226 233 234
f 235 233 193
f 235 233 193
f 236 234 233
f 236 233 235
f 236 233 235
f 236 234 233
f 193 237 235
f 193 237 235
f 236 238 234
f 236 238 234
f 239 237 193
f 239 237 193
f 235 237 240
f 240 237 239
f 235 237 240
f 240 237 239
f 193 241 239
f 193 241 239
f 188 241 193
f 188 241 193
f 239 241 242
f 242 241 188
f 239 241 242
f 242 241 188
f 188 243 242
f 188 243 242
f 110 243 188
f 110 243 188
f 242 243 112
f 112 243 110
f 242 243 112
f 112 243 110
f 242 244 239
f 112 244 242
f 242 244 239
f 112 244 242
f 239 244 114
f 114 244 112
f 239 244 114
f 114 244 112
f 114 245 239
f 114 245 239
f 239 245 240
f 239 245 240
f 246 245 114
f 246 245 114
f 240 245 246
f 240 245 246
f 114 247 246
f 114 247 246
f 246 248 240
f 246 248 240
f 109 247 114
f 109 247 114
f 240 248 249
f 240 248 249
f 249 250 240
f 249 250 240
f 240 250 235
f 240 250 235
f 251 250 249
f 251 250 249
f 251 235 250
f 251 235 250
f 249 252 251
f 249 252 251
f 251 236 235
f 251 236 235
f 251 252 253
f 251 252 253
f 251 254 236
f 251 254 236
f 253 254 251
f 253 254 251
f 236 254 255
f 255 254 253
f 236 254 255
f 255 254 253
f 255 253 256
f 255 253 256
f 236 255 238
f 236 255 238
f 255 256 257
f 255 256 257
f 255 257 258
f 255 257 258
f 255 258 238
f 255 258 238
f 259 258 257
f 259 258 257
f 238 258 259
f 238 258 259
f 257 260 259
f 257 260 259
f 259 260 261
f 259 260 261
f 238 259 262
f 238 259 262
f 238 262 234
f 238 262 234
f 259 263 262
f 261 263 259
f 259 263 262
f 261 263 259
f 264 263 261
f 264 263 261
f 262 263 264
f 262 263 264
f 261 265 264
f 261 265 264
f 264 265 266
f 264 265 266
f 267 234 262
f 267 234 262
f 226 234 267
f 226 234 267
f 264 268 262
f 264 268 262
f 262 268 267
f 262 268 267
f 269 268 264
f 269 268 264
f 267 268 269
f 267 268 269
f 266 270 264
f 266 270 264
f 264 270 269
f 264 270 269
f 271 270 266
f 271 270 266
f 269 270 271
f 269 270 271
f 266 272 271
f 266 272 271
f 271 272 273
f 271 272 273
f 267 274 226
f 267 274 226
f 226 274 223
f 226 274 223
f 223 274 275
f 223 274 275
f 275 274 267
f 275 274 267
f 275 227 223
f 275 227 223
f 267 276 275
f 267 276 275
f 269 276 267
f 269 276 267
f 277 227 275
f 277 227 275
f 220 227 277
f 220 227 277
f 275 276 278
f 278 276 269
f 275 276 278
f 278 276 269
f 275 279 277
f 278 279 275
f 275 279 277
f 278 279 275
f 277 280 220
f 277 280 220
f 218 220 280
f 218 220 280
f 269 281 278
f 269 281 278
f 271 281 269
f 271 281 269
f 282 279 278
f 282 279 278
f 278 281 282
f 278 281 282
f 277 279 282
f 277 279 282
f 282 281 271
f 282 281 271
f 271 283 282
f 271 283 282
f 273 283 271
f 273 283 271
f 284 283 273
f 284 283 273
f 282 283 284
f 282 283 284
f 273 285 284
f 273 285 284
f 284 285 286
f 284 285 286
f 282 287 277
f 284 287 282
f 282 287 277
f 284 287 282
f 277 287 288
f 277 287 288
f 288 287 284
f 288 287 284
f 288 280 277
f 288 280 277
f 286 289 284
f 284 289 288
f 284 289 288
f 286 289 284
f 290 289 286
f 290 289 286
f 290 288 289
f 290 288 289
f 286 291 290
f 286 291 290
f 292 280 288
f 292 280 288
f 290 292 288
f 290 292 288
f 292 218 280
f 292 218 280
f 290 291 293
f 290 291 293
f 290 294 292
f 290 294 292
f 290 293 294
f 290 293 294
f 293 295 294
f 293 295 294
f 295 292 294
f 295 292 294
f 293 296 295
f 293 296 295
f 295 296 297
f 295 296 297
f 292 298 218
f 295 298 292
f 292 298 218
f 295 298 292
f 299 295 297
f 299 295 297
f 295 299 298
f 295 299 298
f 299 297 300
f 299 297 300
f 301 299 300
f 301 299 300
f 298 302 218
f 298 302 218
f 299 302 298
f 299 302 298
f 301 303 299
f 299 303 302
f 299 303 302
f 301 303 299
f 301 304 303
f 301 304 303
f 302 303 304
f 302 303 304
f 301 305 304
f 301 305 304
f 304 305 306
f 304 305 306
f 302 307 218
f 302 304 307
f 302 307 218
f 302 304 307
f 306 308 304
f 306 308 304
f 304 308 307
f 304 308 307
f 308 306 309
f 308 306 309
f 309 310 308
f 309 310 308
f 307 308 310
f 307 308 310
f 310 309 311
f 310 309 311
f 307 312 218
f 307 310 312
f 307 312 218
f 307 310 312
f 130 218 312
f 130 218 312
f 136 218 130
f 136 218 130
f 310 313 312
f 310 313 312
f 311 313 310
f 311 313 310
f 314 313 311
f 314 313 311
f 312 313 314
f 312 313 314
f 311 315 314
f 311 315 314
f 314 315 126
f 314 315 126
f 312 316 130
f 314 316 312
f 312 316 130
f 314 316 312
f 130 316 128
f 128 316 314
f 130 316 128
f 128 316 314
f 126 317 314
f 314 317 128
f 314 317 128
f 126 317 314
f 24 317 126
f 24 317 126
f 128 317 24
f 128 317 24
f 318 319 320
f 318 319 320
f 321 322 323
f 321 322 323
f 324 325 326
f 324 325 326
f 324 326 327
f 324 326 327
f 324 327 328
f 324 327 328
f 324 328 329
f 324 328 329
f 324 329 330
f 324 329 330
f 324 330 331
f 324 330 331
f 324 331 332
f 324 331 332
f 324 332 333
f 324 332 333
f 324 333 334
f 324 333 334
f 324 334 335
f 324 334 335
f 336 337 338
f 336 337 338
f 339 340 341
f 339 340 341
f 338 342 336
f 338 342 336
f 341 343 339
f 341 343 339
f 342 338 344
f 342 338 344
f 343 341 345
f 343 341 345
f 344 346 342
f 344 346 342
f 345 347 343
f 345 347 343
f 346 344 348
f 346 344 348
f 347 345 349
f 347 345 349
f 348 350 346
f 348 350 346
f 349 351 347
f 349 351 347
f 350 348 352
f 350 348 352
f 351 349 353
f 351 349 353
f 352 354 350
f 352 354 350
f 353 355 351
f 353 355 351
f 354 352 356
f 354 352 356
f 355 353 357
f 355 353 357
f 356 358 354
f 356 358 354
f 357 359 355
f 357 359 355
f 358 356 360
f 358 356 360
f 359 357 361
f 359 357 361
f 360 362 358
f 360 362 358
f 361 363 359
f 361 363 359
f 362 360 364
f 362 360 364
f 363 361 365
f 363 361 365
f 364 366 362
f 364 366 362
f 365 367 363
f 365 367 363
f 366 364 368
f 366 364 368
f 367 365 369
f 367 365 369
f 368 370 366
f 368 370 366
f 369 371 367
f 369 371 367
f 370 368 372
f 370 368 372
f 371 369 373
f 371 369 373
f 372 374 370
f 372 374 370
f 373 375 371
f 373 375 371
f 374 372 376
f 374 372 376
f 375 373 377
f 375 373 377
f 376 377 374
f 376 377 374
f 377 376 375
f 377 376 375
f 378 379 380
f 378 379 380
f 380 381 378
f 380 381 378
f 381 380 382
f 381 380 382
f 382 383 381
f 382 383 381
f 383 382 384
f 383 382 384
f 384 385 383
f 384 385 383
f 386 387 388
f 386 387 388
f 389 390 391
f 389 390 391
f 389 391 392
f 389 391 392
f 389 392 393
f 389 392 393
f 389 393 394
f 389 393 394
f 389 394 395
f 389 394 395
f 389 395 396
f 389 395 396
f 389 396 397
f 389 396 397
f 389 397 398
f 389 397 398
f 389 398 399
f 389 398 399
f 389 399 400
f 389 399 400
f 389 400 401
f 389 400 401
f 389 401 402
f 389 401 402
f 403 404 405
f 403 404 405
f 406 405 404
f 406 405 404
f 405 407 403
f 405 407 403
f 404 408 406
f 404 408 406
f 409 406 408
f 409 406 408
f 403 407 410
f 403 407 410
f 408 411 409
f 408 411 409
f 410 412 403
f 410 412 403
f 412 410 413
f 412 410 413
f 409 411 414
f 409 411 414
f 413 415 412
f 413 415 412
f 415 413 416
f 415 413 416
f 414 417 409
f 414 417 409
f 415 416 418
f 415 416 418
f 418 419 415
f 418 419 415
f 419 418 420
f 419 418 420
f 420 421 419
f 420 421 419
f 421 420 422
f 421 420 422
f 422 423 421
f 422 423 421
f 423 422 424
f 423 422 424
f 424 425 423
f 424 425 423
f 426 425 424
f 426 425 424
f 424 427 426
f 424 427 426
f 428 426 427
f 428 426 427
f 427 429 428
f 427 429 428
f 430 428 429
f 430 428 429
f 429 431 430
f 429 431 430
f 430 431 432
f 430 431 432
f 432 433 430
f 432 433 430
f 434 430 433
f 434 430 433
f 433 432 435
f 433 432 435
f 435 436 433
f 435 436 433
f 434 433 436
f 434 433 436
f 436 435 437
f 436 435 437
f 437 438 436
f 437 438 436
f 434 436 438
f 434 436 438
f 438 437 439
f 438 437 439
f 439 440 438
f 439 440 438
f 434 438 440
f 434 438 440
f 440 439 441
f 440 439 441
f 441 442 440
f 441 442 440
f 434 440 442
f 434 440 442
f 442 441 443
f 442 441 443
f 443 444 442
f 443 444 442
f 434 442 444
f 434 442 444
f 444 443 445
f 444 443 445
f 445 434 444
f 445 434 444
f 446 434 445
f 446 434 445
f 445 447 446
f 445 447 446
f 448 446 447
f 448 446 447
f 447 449 448
f 447 449 448
f 450 448 449
f 450 448 449
f 449 451 450
f 449 451 450
f 450 451 452
f 450 451 452
f 452 453 450
f 452 453 450
f 454 450 453
f 454 450 453
f 453 452 455
f 453 452 455
f 455 456 453
f 455 456 453
f 454 453 456
f 454 453 456
f 456 455 457
f 456 455 457
f 457 458 456
f 457 458 456
f 454 456 458
f 454 456 458
f 458 457 459
f 458 457 459
f 459 460 458
f 459 460 458
f 454 458 460
f 454 458 460
f 460 459 461
f 460 459 461
f 461 462 460
f 461 462 460
f 454 460 462
f 454 460 462
f 462 461 463
f 462 461 463
f 463 464 462
f 463 464 462
f 454 462 464
f 454 462 464
f 464 463 465
f 464 463 465
f 465 454 464
f 465 454 464
f 466 454 465
f 466 454 465
f 465 467 466
f 465 467 466
f 468 466 467
f 468 466 467
f 467 469 468
f 467 469 468
f 470 468 469
f 470 468 469
f 469 471 470
f 469 471 470
f 470 471 472
f 470 471 472
f 472 473 470
f 472 473 470
f 473 472 474
f 473 472 474
f 473 474 475
f 473 474 475
f 475 476 473
f 475 476 473
f 414 473 476
f 414 473 476
f 476 475 477
f 476 475 477
f 477 478 476
f 477 478 476
f 414 476 478
f 414 476 478
f 478 477 479
f 478 477 479
f 479 414 478
f 479 414 478
f 414 479 417
f 414 479 417
f 480 481 482
f 480 481 482
f 481 480 483
f 481 480 483
f 482 484 480
f 482 484 480
f 483 485 481
f 483 485 481
f 484 482 486
f 484 482 486
f 485 483 487
f 485 483 487
f 486 488 484
f 486 488 484
f 487 489 485
f 487 489 485
f 488 486 490
f 488 486 490
f 489 487 491
f 489 487 491
f 490 492 488
f 490 492 488
f 491 493 489
f 491 493 489
f 492 490 494
f 492 490 494
f 493 491 495
f 493 491 495
f 494 496 492
f 494 496 492
f 495 497 493
f 495 497 493
f 496 494 498
f 496 494 498
f 497 495 499
f 497 495 499
f 498 500 496
f 498 500 496
f 499 501 497
f 499 501 497
f 500 498 502
f 500 498 502
f 501 499 503
f 501 499 503
f 502 504 500
f 502 504 500
f 503 505 501
f 503 505 501
f 504 502 506
f 504 502 506
f 505 503 507
f 505 503 507
f 506 508 504
f 506 508 504
f 507 509 505
f 507 509 505
f 508 506 510
f 508 506 510
f 509 507 511
f 509 507 511
f 510 512 508
f 510 512 508
f 511 513 509
f 511 513 509
f 512 510 514
f 512 510 514
f 513 511 515
f 513 511 515
f 514 516 512
f 514 516 512
f 515 517 513
f 515 517 513
f 516 514 337
f 516 514 337
f 517 515 340
f 517 515 340
f 337 336 516
f 337 336 516
f 340 339 517
f 340 339 517
f 518 519 520
f 518 519 520
f 521 518 520
f 521 518 520
f 522 521 520
f 522 521 520
f 523 522 520
f 523 522 520
f 524 523 520
f 524 523 520
f 525 524 520
f 525 524 520
f 526 525 520
f 526 525 520
f 527 526 520
f 527 526 520
f 527 520 528
f 527 520 528
f 527 528 529
f 527 528 529
f 530 531 532
f 530 531 532
f 530 532 533
f 530 532 533
f 530 533 534
f 530 533 534
f 530 534 535
f 530 534 535
f 530 535 536
f 530 535 536
f 530 536 537
f 530 536 537
f 530 537 538
f 530 537 538
f 530 538 539
f 530 538 539
f 540 530 539
f 540 530 539
f 540 539 541
f 540 539 541
f 542 543 544
f 542 543 544
f 544 545 542
f 544 545 542
f 543 542 546
f 543 542 546
f 546 547 543
f 546 547 543
f 547 546 548
f 547 546 548
f 548 549 547
f 548 549 547
f 550 551 552
f 550 551 552
f 552 553 550
f 552 553 550
f 551 550 554
f 551 550 554
f 554 555 551
f 554 555 551
f 555 554 556
f 555 554 556
f 556 557 555
f 556 557 555
f 558 559 560
f 558 559 560
f 560 561 558
f 560 561 558
f 559 558 562
f 559 558 562
f 562 563 559
f 562 563 559
f 563 562 564
f 563 562 564
f 564 565 563
f 564 565 563
f 566 567 568
f 566 567 568
f 569 570 571
f 569 570 571
