v 0.165165022 -0.004442662 0.0709989071
v 0.165265933 -0.018340081 0.070968926
v 0.164557353 -0.0183444917 0.0706417561
v 0.164675131 -0.0346800983 0.0706053972
v 0.165666953 -0.00436195731 0.0716549754
v 0.165768042 -0.0182754695 0.0716257691
v 0.165804282 -0.00428435206 0.0721814036
v 0.165110961 0.00712969899 0.0716740489
v 0.165248647 0.00721463561 0.0722042918
v 0.163742557 0.0163130462 0.0722196698
v 0.165383711 -0.0346756876 0.0709325671
v 0.164808229 -0.0531335175 0.0705643892
v 0.165516749 -0.0531291664 0.0708915591
v 0.165885881 -0.0346232951 0.0715894699
v 0.166019037 -0.0530920327 0.0715484023
v 0.166165069 -0.073346585 0.0715033412
v 0.165662661 -0.0733666122 0.0708465576
v 0.166023031 -0.034568876 0.0721148252
v 0.16648598 -0.117872626 0.0714043379
v 0.165983334 -0.117857605 0.0707476139
v 0.16614528 -0.140327305 0.0706976652
v 0.165905133 -0.0182076991 0.0721511841
v 0.165819362 -0.034521848 0.0728861094
v 0.165701345 -0.0181483924 0.0729225874
v 0.165600553 -0.00422331691 0.0729526281
v 0.165046111 0.00725528598 0.0729749799
v 0.163549617 0.0162959397 0.0729904175
v 0.160717562 0.0230194628 0.07223171
v 0.160575107 0.0228928626 0.0730063915
v 0.155617431 0.0271411836 0.0722528696
v 0.155603841 0.0269108117 0.0730312467
v 0.14470835 0.0290781558 0.0722768903
v 0.144793585 0.0288261473 0.0730519891
v 0.124159299 0.0295755565 0.0722849965
v 0.124259017 0.0293221176 0.0730602145
v 0.0897879824 0.029328078 0.0722861886
v 0.0898686871 0.0290744603 0.0730614066
v 0.0375105962 0.0289512575 0.0722861886
v 0.0898741707 0.0283147395 0.0736873746
v 0.124251686 0.028562516 0.073687315
v 0.144714609 0.0280717909 0.0736857653
v 0.155284539 0.0262331665 0.0736813545
v 0.159982935 0.0224374235 0.0736727118
v 0.162831441 0.0160752833 0.0736583471
v 0.16429694 0.0071721375 0.0736383796
v 0.164846376 -0.00424650311 0.0736128688
v 0.164946631 -0.0181553066 0.0735818148
v 0.165064648 -0.0345287621 0.0735453367
v 0.165952697 -0.0530224741 0.0728449821
v 0.165197983 -0.0530293882 0.0735042095
v 0.166156307 -0.0530542433 0.072073698
v 0.166098967 -0.07331267 0.0727998614
v 0.165344253 -0.0733195245 0.0734590292
v 0.166302457 -0.0733273327 0.0720285773
v 0.166255727 -0.0950548947 0.0727515221
v 0.165501013 -0.0950618088 0.0734106898
v 0.166623667 -0.117891401 0.0719295144
v 0.165665761 -0.11791864 0.0733599067
v 0.166648045 -0.140358359 0.0713543296
v 0.166420475 -0.117911726 0.0727006793
v 0.166785851 -0.140394598 0.0718794465
v 0.166582718 -0.140431017 0.0726506114
v 0.165828064 -0.140437871 0.0733098388
v 0.166732207 -0.161160678 0.072604537
v 0.165977433 -0.161167592 0.0732637644
v 0.166935161 -0.161110073 0.0718334317
v 0.166797236 -0.161058277 0.0713083148
v 0.166858211 -0.17864868 0.0725656748
v 0.166103497 -0.178655595 0.0732249618
v 0.166294351 -0.161012977 0.0706516504
v 0.166923061 -0.178521723 0.0712694526
v 0.166420057 -0.178464741 0.0706128478
v 0.166950002 -0.191463739 0.0725360513
v 0.167061105 -0.178586274 0.0717945695
v 0.166195706 -0.191449791 0.0731965899
v 0.166538134 -0.20047155 0.0725119114
v 0.167152777 -0.191400915 0.0717651844
v 0.167014316 -0.191325754 0.0712388158
v 0.166511253 -0.191249877 0.0705832839
v 0.165792838 -0.200367481 0.0731769204
v 0.166599885 -0.200356156 0.0712096095
v 0.166099563 -0.200229555 0.0705580711
v 0.165108457 -0.206545383 0.0724948049
v 0.166738942 -0.200440794 0.0717411637
v 0.164433733 -0.206225842 0.0731640458
v 0.162130728 -0.210418075 0.0724918842
v 0.165285125 -0.206608862 0.071721077
v 0.165145651 -0.206519991 0.0711823702
v 0.164673641 -0.206277519 0.0705344081
v 0.161657169 -0.209842056 0.0731562376
v 0.162072256 -0.210516185 0.0711830854
v 0.161704794 -0.210136861 0.0705299973
v 0.157215253 -0.21275416 0.0725032687
v 0.162214652 -0.210600287 0.0717155933
v 0.157001927 -0.212033302 0.0731515884
v 0.146507159 -0.213942558 0.0725138187
v 0.157178655 -0.212994307 0.0717266202
v 0.157040849 -0.212910205 0.0712146163
v 0.156811431 -0.212462932 0.0705468655
v 0.146453574 -0.213188201 0.0731493235
v 0.146290377 -0.214105695 0.0712382793
v 0.146147147 -0.213647813 0.0705604553
v 0.126010492 -0.214451939 0.0725170374
v 0.146411076 -0.214191049 0.0717378259
v -0.185551867 -0.21174857 0.0574069582
v -0.165709898 -0.211936146 0.0573726259
v -0.167049304 -0.213396221 0.0613440238
v -0.132323191 -0.211695105 0.0573713146
v -0.187107727 -0.213188857 0.061347004
v -0.133348927 -0.213152856 0.0613423549
v -0.197464362 -0.212206572 0.061351832
v -0.0820662752 -0.21278289 0.0613413416
v -0.195723131 -0.210829169 0.0575066768
v -0.0815177932 -0.211328715 0.0573704801
v -0.200160429 -0.208845049 0.057576891
v -0.0220030323 -0.210899621 0.0573702417
v -0.0219925418 -0.212349802 0.061340984
v -0.202059433 -0.210125178 0.0613591634
v 0.0380811915 -0.211916894 0.0613413416
v -0.204833195 -0.206620425 0.0613695942
v -0.202800527 -0.20546338 0.0575228296
v 0.0375117287 -0.210470766 0.0573704801
v -0.204125121 -0.199866563 0.0574416481
v 0.0883171782 -0.210104793 0.0573713146
v 0.0893637761 -0.211547583 0.0613423549
v -0.206249192 -0.200897783 0.0613847338
v 0.123064183 -0.211305112 0.0613440238
v -0.206770942 -0.192162663 0.0614061914
v -0.204615846 -0.191236883 0.0574305616
v 0.121703885 -0.209864527 0.0573726259
v -0.204705968 -0.178811461 0.0574594699
v 0.141541079 -0.209390908 0.0574069582
v 0.143117562 -0.210808665 0.061347004
v -0.207937554 0.0202765167 0.07169348
v -0.210865662 0.0135241449 0.0716827512
v -0.21100457 0.0136118829 0.0722196698
v -0.207932308 0.0202367008 0.0730063915
v -0.210811421 0.0135976374 0.0729904175
v -0.210090116 0.0133872926 0.0736583471
v -0.211427137 0.00446400046 0.0736383796
v -0.212240472 0.00440981984 0.0716740489
v -0.211738959 0.00430181623 0.0710209012
v -0.212379351 0.0044927299 0.0722042918
v -0.212177411 0.0045363605 0.0729749799
v -0.211811915 -0.00696143508 0.0736128688
v -0.212566361 -0.00694909692 0.0729526281
v -0.212769136 -0.0070130527 0.0721814036
v -0.212669268 -0.0209363997 0.0721511841
v -0.212531254 -0.0210022032 0.0716257691
v -0.21255137 -0.0372975767 0.0721148252
v -0.212630764 -0.007088691 0.0716549754
v -0.2121277 -0.00716218352 0.0709989071
v -0.211035714 0.00424042344 0.0706980824
v -0.211419716 -0.00716999173 0.0706726909
v -0.21202825 -0.0210595429 0.070968926
v -0.2113197 -0.0210537612 0.0706417561
v -0.211910531 -0.0373951495 0.0709325671
v -0.211202011 -0.0373893082 0.0706053972
v -0.212413445 -0.0373500288 0.0715894699
v -0.212280348 -0.0558187664 0.0715484023
v -0.211777583 -0.0558486283 0.0708915591
v -0.211069033 -0.055842787 0.0705643892
v -0.212134376 -0.0760732591 0.0715033412
v -0.21163173 -0.0760860741 0.0708465576
v -0.21092318 -0.0760802329 0.0705193877
v -0.211813435 -0.1205993 0.0714043379
v -0.211311027 -0.120577127 0.0707476139
v -0.210602507 -0.120571285 0.070420444
v -0.211149052 -0.143046767 0.0706976652
v -0.210440531 -0.143040925 0.0703704953
v -0.210999921 -0.163732499 0.0706516504
v -0.210291401 -0.163726658 0.0703244805
v 0.125997856 -0.213695198 0.0731486082
v 0.0916257724 -0.214699835 0.0725177526
v 0.125912443 -0.214700788 0.0717408061
v 0.12580885 -0.214615375 0.0712439418
v 0.125699475 -0.214156657 0.0705633163
v 0.0916202888 -0.213943034 0.0731487274
v 0.0914696082 -0.214863032 0.0712449551
v 0.0913875327 -0.214404136 0.0705638528
v 0.0393120274 -0.215076894 0.0725177526
v 0.0915488228 -0.214948624 0.0717414618
v 0.0393066034 -0.214320093 0.073148787
v -0.0219697133 -0.215518624 0.0725177526
v 0.039271377 -0.215325385 0.0717414618
v 0.0392283425 -0.215239555 0.0712449551
v 0.0391825661 -0.21478036 0.0705638528
v -0.0219751969 -0.214761764 0.073148787
v -0.0219685808 -0.215680629 0.0712449551
v -0.021971859 -0.215221137 0.0705638528
v -0.0831262842 -0.215661973 0.0705638528
v -0.0832515135 -0.215960294 0.0725177526
v -0.0832569376 -0.215203494 0.073148787
v -0.0219679251 -0.215766817 0.0717414618
v -0.0832072273 -0.21620819 0.0717414618
v -0.135565206 -0.216337413 0.0725177526
v -0.13557066 -0.215580553 0.0731487274
v -0.169949964 -0.216585189 0.0725170374
v -0.169948205 -0.215828389 0.0731486082
v -0.135484681 -0.21658501 0.0717414618
v -0.190451816 -0.216371328 0.0725138187
v -0.190409169 -0.215616256 0.0731493235
v -0.169848338 -0.216832608 0.0717408061
v -0.201175943 -0.215337366 0.0725032687
v -0.200973019 -0.214613527 0.0731515884
v -0.190352157 -0.216618329 0.0717378259
v -0.206124589 -0.213072449 0.0724918842
v -0.205659375 -0.212489635 0.0731562376
v -0.201135889 -0.215576977 0.0717266202
v -0.20915781 -0.209243029 0.0724948049
v -0.208487794 -0.208913833 0.0731640458
v -0.20620589 -0.213255852 0.0717155933
v -0.210674897 -0.203190476 0.0725119114
v -0.20993121 -0.203075677 0.0731769204
v -0.209333584 -0.209309071 0.071721077
v -0.211216584 -0.194189459 0.0725360513
v -0.210462585 -0.194164723 0.0731965899
v -0.210876182 -0.203162581 0.0717411637
v -0.211309567 -0.18137446 0.0725656748
v -0.210554823 -0.181370467 0.0732249618
v -0.211420253 -0.194129616 0.0717651844
v -0.211435601 -0.163886458 0.072604537
v -0.210680857 -0.163882464 0.0732637644
v -0.211513296 -0.181314975 0.0717945695
v -0.211585 -0.143156797 0.0726506114
v -0.210830286 -0.143152803 0.0733098388
v -0.21163927 -0.163838774 0.0718334317
v -0.211747333 -0.120637506 0.0727006793
v -0.210992619 -0.120633513 0.0733599067
v -0.21178858 -0.143123299 0.0718794465
v -0.212068811 -0.0760383904 0.0727998614
v -0.211314067 -0.0760344565 0.0734590292
v -0.211376205 -0.181248456 0.0712694526
v -0.212215021 -0.0557482541 0.0728449821
v -0.211460307 -0.0557442605 0.0735042095
v -0.212348416 -0.037247628 0.0728861094
v -0.211593643 -0.0372436345 0.0735453367
v -0.212418124 -0.055782944 0.072073698
v -0.212466434 -0.0208741724 0.0729225874
v -0.21171166 -0.0208702385 0.0735818148
v -0.212272033 -0.0760560334 0.0720285773
v -0.211950824 -0.120620102 0.0719295144
v -0.21165134 -0.143085092 0.0713543296
v -0.21150212 -0.163785011 0.0713083148
v -0.210874096 -0.181184202 0.0706128478
v -0.210780993 -0.193969339 0.0705832839
v -0.211282894 -0.194052488 0.0712388158
v -0.210239843 -0.202942103 0.0705580711
v -0.210738286 -0.203075916 0.0712096095
v -0.208726957 -0.208968967 0.0705344081
v -0.209195361 -0.209218174 0.0711823702
v -0.205702707 -0.212785095 0.0705299973
v -0.206064716 -0.213169664 0.0711830854
v -0.200776353 -0.215040416 0.0705468655
v -0.200999334 -0.215490907 0.0712146163
v -0.190096125 -0.216071397 0.0705604553
v -0.190232739 -0.216531307 0.0712382793
v -0.169643268 -0.216285437 0.0705633163
v -0.169745967 -0.216745704 0.0712439418
v -0.135331288 -0.216038316 0.0705638528
v -0.135406718 -0.216498345 0.0712449551
v -0.0831654444 -0.216121763 0.0712449551
v -0.0237280503 0.0284285247 0.0717905164
v -0.0237286463 0.0285098851 0.0722861886
v -0.0237267986 0.0282556713 0.0730614662
v -0.0849678889 0.0280684531 0.0722861886
v 0.0375549421 0.0286974013 0.0730614662
v 0.0375604257 0.0279376805 0.0736874342
v -0.023721315 0.0274959505 0.0736874938
v -0.0850031152 0.0270542204 0.0736874342
v -0.0850085989 0.0278139412 0.0730614662
v -0.137316838 0.0266771615 0.0736873746
v -0.137322322 0.0274368823 0.0730614066
v -0.171694383 0.0264293849 0.073687315
v -0.137245312 0.0276916325 0.0722861886
v -0.171712652 0.0271888077 0.0730602145
v -0.192148104 0.0256437361 0.0736857653
v -0.171616599 0.0274436176 0.0722849965
v -0.137166336 0.0276109278 0.0717905164
v -0.0849250332 0.0279874504 0.0717905164
v -0.192237958 0.0263968408 0.0730519891
v -0.202690408 0.023652941 0.0736813545
v -0.19215633 0.0266500413 0.0722768903
v -0.0848791972 0.0275337398 0.0711061954
v -0.023724772 0.0279745162 0.0711061954
v -0.0848740116 0.0268135369 0.0707464218
v -0.137084231 0.0271575153 0.0711061954
v -0.137079045 0.0264372528 0.0707464218
v -0.171400711 0.0269097984 0.0711051822
v -0.171385184 0.0261900723 0.0707464218
v -0.171512827 0.0273630321 0.0717887878
v -0.191872492 0.0261178315 0.0710970163
v -0.191796497 0.0254050791 0.0707449913
v -0.192033485 0.0265693963 0.0717757344
v -0.202604786 0.0240521133 0.0710673332
v -0.202316985 0.0234155953 0.0707406998
v -0.207504943 0.0199697912 0.0710430145
v -0.20695062 0.0195548236 0.0707321167
v -0.202895418 0.0244773924 0.0717330575
v -0.203036353 0.0245560706 0.0722528696
v -0.210376218 0.0133440793 0.0710339546
v -0.209701434 0.0131559074 0.0707179308
v -0.203019455 0.024325937 0.0730312467
v -0.207333609 0.0197899044 0.0736727118
v -0.208076581 0.0203612149 0.07223171
v 0.0897101983 0.0292462409 0.0717905164
v 0.037468873 0.0288696587 0.0717905164
v 0.0374296531 0.0284153521 0.0711061954
v 0.0896346197 0.0287916362 0.0711061954
v 0.0896398053 0.0280714333 0.0707464218
v 0.0374348387 0.0276950896 0.0707464218
v 0.123945974 0.0283187926 0.0707464218
v -0.0237195864 0.0272543132 0.0707464218
v 0.1239511 0.0290386379 0.0711051822
v 0.144366518 0.0278281271 0.0707449913
v 0.124056719 0.0294934213 0.0717887878
v 0.144432202 0.0285418332 0.0710970163
v 0.154914573 0.0259905159 0.0707406998
v 0.144586697 0.0289957225 0.0717757344
v 0.155193165 0.0266310275 0.0710673332
v 0.159603372 0.0221968591 0.0707321763
v 0.155477598 0.0270604789 0.0717330575
v 0.160151675 0.0226198137 0.0710430145
v 0.162446097 0.0158382952 0.0707179308
v 0.160579816 0.0229326785 0.07169348
v 0.163118139 0.0160361826 0.0710339546
v 0.163908795 0.00694295764 0.0706980824
v 0.16360493 0.0162232816 0.0716827512
v 0.164611056 0.00701448321 0.0710209012
v 0.164457217 -0.00446072221 0.0706726909
v -0.0660823956 -0.0476063788 0.0794587135
v -0.0660016909 -0.0482643545 0.079457283
v -0.0659361258 -0.0482490957 0.0797073245
v -0.0657103434 -0.0488658845 0.079705894
v -0.0660154596 -0.0476026237 0.079708755
v -0.0657707229 -0.0488953888 0.0794558525
v -0.0657570139 -0.0482062995 0.07989043
v -0.0655455366 -0.0487841666 0.0798891187
v -0.0658325329 -0.04759112 0.0798917413
v -0.0659361258 -0.0482479632 0.0792073011
v -0.0660154596 -0.0476014912 0.0792087317
v -0.0663676634 -0.00803205371 0.0795467496
v -0.0663006678 -0.00803485513 0.0792967081
v -0.0663006082 -0.00803598762 0.0797967315
v -0.0662963763 -0.00737300515 0.0795481801
v -0.0662306324 -0.00738731027 0.0792981386
v -0.0661175624 -0.00804367661 0.0791136622
v -0.066050984 -0.0074275434 0.0791150331
v -0.0658325329 -0.0475892127 0.0790257454
v -0.065805532 -0.00748285651 0.0790479183
v -0.0658674613 -0.00805613399 0.0790466666
v -0.0656210557 -0.00695547462 0.0790491104
v -0.0658477917 -0.00684663653 0.0791163445
v -0.0640564337 -0.0495817363 0.079021275
v -0.0644757524 -0.0493192375 0.0790218711
v -0.0643616095 -0.049175173 0.079205215
v -0.0639767423 -0.0494161546 0.0792046785
v -0.0635825768 -0.0497474968 0.0790209174
v -0.0646838918 -0.0488575399 0.0792059302
v -0.0648267046 -0.0489733517 0.079022646
v -0.0646316782 -0.0495164096 0.0789544582
v -0.0650217906 -0.0491319597 0.0789552927
v -0.0647876635 -0.0497139394 0.079020977
v -0.0650952831 -0.0485578477 0.0790235996
v -0.0649304166 -0.0484760702 0.0792067647
v -0.0646316186 -0.0488155782 0.0794560313
v -0.0648700967 -0.0484465659 0.0794568658
v -0.0643198267 -0.0491228998 0.0794553161
v -0.0649304166 -0.0484772027 0.0797067881
v -0.0646838918 -0.0488586724 0.079705894
v -0.0650887266 -0.0480446517 0.0797077417
v -0.0650231615 -0.0480282605 0.0794577599
v -0.0650887266 -0.0480435193 0.0792077184
v -0.0650828257 -0.0475415289 0.0794588327
v -0.0651498213 -0.0475464165 0.0797088742
v -0.0652677789 -0.0480882823 0.0798906684
v -0.065332748 -0.0475586951 0.0798918605
v -0.0650952235 -0.0485597551 0.0798895955
v -0.0655826107 -0.0475750864 0.0799587965
v -0.0655123964 -0.0481474102 0.0799575448
v -0.0658674613 -0.00805839896 0.0800466537
v -0.0656173602 -0.00807085633 0.0799796581
v -0.0654342547 -0.00807967782 0.0797966123
v -0.0655600205 -0.0075404346 0.0799807906
v -0.0658054724 -0.00748506188 0.0800479054
v -0.0661175624 -0.00804558396 0.0799797177
v -0.0660509244 -0.00742945075 0.0799810886
v -0.0662306324 -0.00738844275 0.079798162
v -0.0653204098 -0.0486721098 0.0799563527
v -0.0660745278 -0.00673869252 0.0795496106
v -0.0660137907 -0.00676730275 0.0792995095
v -0.0660137907 -0.00676843524 0.0797995329
v -0.0656709448 -0.00621965528 0.0793007612
v -0.0655264631 -0.00633338094 0.0791174769
v -0.0657238141 -0.00617840886 0.0795508623
v -0.0658477917 -0.00684860349 0.0799823403
v -0.0656709448 -0.00622072816 0.079800725
v -0.0656210557 -0.00695767999 0.0800490975
v -0.0655264631 -0.00633528829 0.0799834728
v -0.0653291121 -0.00649133325 0.0800501108
v -0.0653943196 -0.00706645846 0.0799818635
v -0.0653803721 -0.00758060813 0.0797976851
v -0.0653672591 -0.00808247924 0.0795465708
v -0.0651498213 -0.0475453436 0.0792088509
v -0.0652677789 -0.0480863154 0.0790246129
v -0.0653204098 -0.0486699045 0.0789563656
v -0.065216817 -0.0492908657 0.0790219307
v -0.0649018064 -0.0498587787 0.0792037249
v -0.0643540397 -0.0502016842 0.07920295
v -0.0643831864 -0.0502630174 0.0794528127
v -0.0637487546 -0.0504848659 0.0794522762
v -0.063733913 -0.0504196584 0.0797024369
v -0.0630864277 -0.0504896343 0.0797022581
v -0.0630772486 -0.050306946 0.0798856616
v 0.0170870647 -0.0497291386 0.0798856616
v 0.0170709118 -0.0494793952 0.0799532533
v 0.0176432356 -0.0494091809 0.0799533725
v 0.0175843462 -0.0491643846 0.0798869133
v 0.0180556998 -0.0489918292 0.0798873305
v 0.0179735646 -0.0488266647 0.0797046423
v 0.0183549151 -0.0485801399 0.0797052383
v 0.0183123574 -0.0485273302 0.0794553161
v 0.0186197981 -0.0482154787 0.0794560313
v 0.0186726674 -0.0482567251 0.0792059302
v 0.018913649 -0.0478717387 0.0792067647
v 0.019079648 -0.0479511321 0.0790235996
v 0.0192454085 -0.0474771559 0.0790246129
v 0.0194908604 -0.0475325286 0.0789574981
v 0.0195527896 -0.0469591916 0.0789588094
v 0.0198028907 -0.046971947 0.0790257454
v 0.0195178613 -0.00742641091 0.0791136622
v 0.019700788 -0.00741496682 0.0792967081
v 0.0196214542 -0.00676849484 0.0792981386
v 0.0196870193 -0.00675323606 0.0795481801
v 0.0194560513 -0.00612220168 0.0795496106
v 0.0193957314 -0.00615277886 0.0797995329
v 0.0190450177 -0.00561013818 0.079800725
v 0.0189022049 -0.00572672486 0.0799834728
v 0.0184729919 -0.00530365109 0.0799844265
v 0.0183170661 -0.00550112128 0.0800510049
v 0.0178507194 -0.00520923734 0.0800516605
v 0.0177418217 -0.00543579459 0.0799841881
v 0.0172679648 -0.00527009368 0.0799845457
v 0.017227374 -0.00544938445 0.0798011422
v 0.0167282447 -0.00539544225 0.0798012614
v 0.0167249069 -0.00546190143 0.0795511007
v -0.0633532181 -0.00603911281 0.0795511007
v -0.0633575693 -0.00597158074 0.0793012381
v -0.0638558045 -0.00603273511 0.0793011189
v -0.0638989583 -0.00585320592 0.0791184902
v -0.0643703714 -0.00602570176 0.0791181326
v -0.0644826069 -0.00580045581 0.0790516734
v -0.0649446622 -0.00609907508 0.0790510178
v -0.0651034489 -0.00590416789 0.0791184306
v -0.065219678 -0.005761832 0.0793017745
v -0.0645948425 -0.00557544827 0.0791191459
v -0.0639579073 -0.00560840964 0.0790520906
v -0.063369371 -0.00578823686 0.079118669
v -0.0652622357 -0.00571015477 0.0795518756
v -0.0646769777 -0.00541105866 0.0793025494
v -0.0640167966 -0.00536391139 0.0791196227
v -0.0633855239 -0.00553819537 0.0790522099
v -0.065219678 -0.00576296449 0.0798017383
v -0.0647070184 -0.00535127521 0.0795526505
v -0.0640599504 -0.00518521667 0.0793030262
v -0.0634017363 -0.00528845191 0.0791197419
v -0.0651034489 -0.00590613484 0.0799844265
v -0.0646769777 -0.00541213155 0.0798025131
v -0.0640757456 -0.0051202476 0.0795531869
v -0.063413538 -0.00510594249 0.079303205
v -0.0634178892 -0.00503954291 0.0795533061
v -0.0640599504 -0.00518634915 0.07980299
v -0.0645947829 -0.00557735562 0.0799851418
v -0.0649446025 -0.00610128045 0.0800510049
v -0.0651317611 -0.00664713979 0.0799828172
v -0.0652283207 -0.00714585185 0.0797986984
v -0.0653145686 -0.00759491324 0.0795477033
v -0.0654343143 -0.00807854533 0.0792965889
v -0.065332748 -0.0475567877 0.079025805
v -0.0655123964 -0.0481452048 0.0789574981
v -0.0655455366 -0.0487822592 0.0790230632
v -0.0653596297 -0.0494074523 0.0792047381
v -0.0649435893 -0.0499121845 0.0794535875
v -0.0643540397 -0.0502028167 0.0797029138
v -0.0636933818 -0.0502403677 0.0798858404
v -0.0630646721 -0.0500569642 0.0799532533
v 0.0170546994 -0.0492293537 0.0798867941
v 0.0175411925 -0.0489848554 0.0797043443
v 0.0179434642 -0.0487657487 0.0794547796
v 0.0183549151 -0.048579067 0.079205215
v 0.0188171491 -0.0483704507 0.079022646
v 0.019306384 -0.0480599105 0.0789563656
v 0.0197363123 -0.0475881398 0.0790243745
v 0.0199859962 -0.0469816029 0.0792087317
v 0.019767724 -0.00741121173 0.0795467496
v 0.0196214542 -0.00676962733 0.079798162
v 0.0192309245 -0.0062353313 0.0799823403
v 0.0187071189 -0.00588563085 0.0800501108
v 0.0181611404 -0.00569835305 0.079983592
v 0.0176620707 -0.0056014359 0.0798007846
v 0.0172125325 -0.00551459193 0.0795509815
v 0.0167282447 -0.00539430976 0.0793012381
v 0.0167374238 -0.00521084666 0.079118669
v 0.017227374 -0.00544825196 0.0793011189
v 0.0176328644 -0.00566163659 0.0795506239
v 0.0180469379 -0.00584235787 0.0798002481
v 0.0167500004 -0.00496056676 0.0790522099
v 0.0172679052 -0.00526818633 0.0791184902
v 0.0176620707 -0.00560030341 0.0793007612
v 0.018005155 -0.00589469075 0.0795501471
v 0.016762577 -0.00471064448 0.0791197419
v 0.0173233375 -0.00502255559 0.0790520906
v 0.0177417621 -0.00543388724 0.0791181326
v 0.0180469379 -0.00584128499 0.0793002248
v 0.0167717561 -0.00452795625 0.079303205
v 0.0173787102 -0.00477722287 0.0791196227
v 0.0178507194 -0.00520697236 0.0790516734
v 0.0181610808 -0.0056963861 0.0791175365
v 0.0183170065 -0.00549891591 0.0790510178
v 0.0179596171 -0.0049803555 0.0791191459
v 0.0174192414 -0.0045979321 0.0793030262
v 0.0167751536 -0.00446149707 0.0795533061
v -0.063413538 -0.00510707498 0.0798031688
v -0.0640167966 -0.00536581874 0.0799856186
v -0.0644825473 -0.00580266118 0.0800516605
v -0.0647858158 -0.00629618764 0.079983592
v -0.0649873391 -0.00676086545 0.0797995329
v -0.0651675835 -0.00717446208 0.0795485973
v -0.0653803721 -0.00757953525 0.0792977214
v -0.0656173602 -0.00806888938 0.0791136026
v -0.0655826107 -0.047572881 0.0789588094
v -0.0657570735 -0.0482043922 0.0790243745
v -0.065710403 -0.0488648117 0.0792059302
v -0.065411903 -0.0494505465 0.0794546008
v -0.0649017468 -0.0498599112 0.0797036886
v -0.0642742887 -0.0500371754 0.0798863173
v -0.0636379495 -0.0499950349 0.0799533725
v -0.0630520955 -0.0498067439 0.0798867941
v 0.0170428976 -0.0490460098 0.0797041655
v 0.0175253972 -0.0489187539 0.0794544816
v 0.0179735646 -0.0488255322 0.0792046785
v 0.0184711441 -0.0487214029 0.0790218711
v 0.0190144405 -0.0485261977 0.0789552927
v 0.0195331797 -0.048168987 0.0790230632
v 0.0199159607 -0.0476291478 0.0792073011
v 0.0200529918 -0.0469855368 0.0794587135
v 0.019700788 -0.00741609931 0.0797967315
v 0.0194424018 -0.00681319833 0.0799810886
v 0.0190057382 -0.00634768605 0.0800490975
v 0.0185120329 -0.00604423881 0.0799828172
v 0.0183692202 -0.00616005063 0.0797995329
v 0.0187806115 -0.00645974278 0.0799818635
v 0.0191977844 -0.00687238574 0.0800479054
v 0.0195178613 -0.00742837787 0.0799797177
v 0.0183169469 -0.0062020123 0.0795494318
v 0.0186158046 -0.00654146075 0.0797986984
v 0.0189531669 -0.00693127513 0.0799807906
v 0.0192679986 -0.00744470954 0.0800466537
v 0.0183692202 -0.00615891814 0.0792995095
v 0.0185554251 -0.00657102466 0.0795485973
v 0.0187740549 -0.00697407126 0.0797976851
v 0.0190180764 -0.00746080279 0.0799796581
v 0.0185120329 -0.00604233146 0.0791167617
v 0.018615745 -0.00654038787 0.0792986751
v 0.0187084898 -0.00698933005 0.0795477033
v 0.0188351497 -0.00747224689 0.0797966123
v 0.0187682137 -0.00747606158 0.0795465708
v 0.0187740549 -0.00697293878 0.0792977214
v 0.0187806115 -0.00645783544 0.0791158676
v 0.0187071189 -0.00588342547 0.0790501237
v 0.0184729919 -0.00530174375 0.0791184306
v 0.0180393681 -0.0048147738 0.0793025494
v 0.0174340829 -0.00453272462 0.0795531869
v 0.0167718157 -0.00452908874 0.0798031688
v -0.0634016767 -0.00529035926 0.0799857974
v -0.0639578477 -0.00561061502 0.0800520778
v -0.0643703714 -0.00602766871 0.0799841881
v -0.0646695867 -0.00643852353 0.0798002481
v -0.0649344698 -0.00680205226 0.0795494318
v -0.0652283207 -0.00714471936 0.0792986751
v -0.0655600801 -0.00753846765 0.0791147947
v -0.0653596297 -0.0494085848 0.0797047019
v -0.0647876039 -0.0497158468 0.0798870325
v -0.065216817 -0.049292773 0.0798879862
v -0.065021731 -0.049134165 0.0799553394
v -0.0646316782 -0.0495186746 0.0799544454
v -0.0641653314 -0.0498106182 0.0799537897
v -0.0648267046 -0.0489752591 0.0798887014
v -0.0644757524 -0.0493212044 0.0798879266
v -0.0643616095 -0.0491763055 0.0797052383
v -0.0640564337 -0.0495837033 0.0798873305
v -0.0635825768 -0.0497494042 0.0798869133
v -0.0639766827 -0.0494172871 0.0797046423
v -0.0639475361 -0.0493559539 0.0794547796
v -0.0630429164 -0.0496232212 0.0797041655
v -0.0635420457 -0.049569279 0.0797043443
v -0.0635272041 -0.049502939 0.0794544816
v -0.0635420457 -0.0495682061 0.0792043209
v 0.0170385465 -0.0489784777 0.0794543624
v -0.0630395189 -0.0495556891 0.0794543624
v -0.0630429164 -0.0496221483 0.0792042017
v -0.0630520955 -0.0498048365 0.0790207982
v -0.0630646721 -0.0500547588 0.0789532065
v 0.0175411925 -0.0489837229 0.0792043209
v 0.0170428976 -0.0490448773 0.0792042017
v 0.0170546994 -0.0492273867 0.0790207982
v 0.0170709118 -0.0494771302 0.0789532065
v 0.0170870647 -0.0497271717 0.0790196657
v 0.0180556998 -0.0489899218 0.079021275
v 0.0175842866 -0.0491624177 0.0790209174
v 0.0176432356 -0.0494069159 0.0789533854
v 0.017702125 -0.0496517122 0.0790198445
v 0.0177452788 -0.0498312414 0.0792024136
v 0.0186299905 -0.0489163101 0.0789544582
v 0.0181679353 -0.0492149293 0.0789538026
v 0.0182801709 -0.0494402349 0.0790202618
v 0.0183623061 -0.049605459 0.07920295
v 0.0183924064 -0.0496663153 0.0794528127
v 0.0192117915 -0.0486823022 0.0790219307
v 0.0187887773 -0.0491114557 0.079020977
v 0.018905066 -0.049254626 0.0792037249
v 0.0189476237 -0.0493074358 0.0794535875
v 0.018905066 -0.0492557585 0.0797036886
v 0.019699119 -0.0482491553 0.0792059302
v 0.0193562731 -0.0487968624 0.0792047381
v 0.0194091424 -0.0488391817 0.0794546008
v 0.0193562731 -0.0487979352 0.0797047019
v 0.0192117915 -0.0486842096 0.0798879862
v 0.0199817643 -0.0476445854 0.079457283
v 0.0197599158 -0.048278898 0.0794558525
v 0.0196991786 -0.0482502878 0.079705894
v 0.0195331797 -0.048170954 0.0798891187
v 0.0193064436 -0.0480621159 0.0799563527
v 0.0199859962 -0.0469827354 0.079708755
v 0.0199159607 -0.0476302803 0.0797073245
v 0.0198028907 -0.0469739139 0.0798917413
v 0.0197363123 -0.0475900471 0.07989043
v 0.0195527896 -0.0469614565 0.0799587965
v 0.0194908604 -0.047534734 0.0799575448
v 0.0193027481 -0.0469486415 0.0798918605
v 0.0192454085 -0.0474790633 0.0798906684
v 0.0191196427 -0.0469390452 0.0797088742
v -0.206862047 -0.179620534 0.0614356361
v 0.153458968 -0.20967719 0.061351832
v -0.206986025 -0.162476808 0.0614747368
v -0.204828694 -0.161827356 0.0574979745
v 0.151698008 -0.208324999 0.0575066768
v -0.204973921 -0.141702145 0.0575430952
v 0.156106248 -0.206277102 0.057576891
v 0.158023551 -0.207529753 0.0613591634
v -0.207132682 -0.142160267 0.0615203343
v 0.16074647 -0.203985363 0.0613695942
v -0.207291767 -0.120099574 0.0615695678
v 0.158697322 -0.202857763 0.0575228296
v 0.159941092 -0.197242409 0.0574416481
v 0.162079826 -0.198242933 0.0613847338
v -0.205131486 -0.119853407 0.0575917922
v 0.162475601 -0.189501196 0.0614061914
v -0.205291167 -0.0976987183 0.0576410256
v 0.160307363 -0.18860659 0.0574305616
v -0.207453027 -0.0977235734 0.0616193376
v -0.207606271 -0.0764609277 0.0616666041
v -0.205442831 -0.0766557753 0.0576878153
v 0.160218373 -0.176181167 0.0574594699
v -0.205584213 -0.05703035 0.0577313863
v 0.162385896 -0.176959068 0.0614356361
v -0.207749173 -0.0566270649 0.0617105328
v 0.162262753 -0.159815341 0.0614747368
v -0.20787935 -0.0385372937 0.0617502891
v -0.205713108 -0.0391284525 0.0577707849
v 0.160096303 -0.159197062 0.0574979745
v -0.205827162 -0.0232559741 0.0578053556
v 0.159951404 -0.139071852 0.0575430952
v 0.162116483 -0.13949874 0.0615203343
v -0.207994476 -0.0225069821 0.0617850386
v 0.161957577 -0.117438048 0.0615695678
v -0.208092228 -0.00885143876 0.0618138276
v -0.205924198 -0.00971892476 0.0578342043
v -0.205836162 -0.0069078505 0.0578480922
v -0.207930222 -0.00402739644 0.0618236624
v 0.159793928 -0.117223114 0.0575917922
v 0.159634307 -0.0950684249 0.0576410256
v 0.161796287 -0.0950620472 0.0616193376
v 0.161643043 -0.0737994611 0.0616666041
v 0.159482613 -0.0740254223 0.0576878153
v 0.159341052 -0.054399997 0.0577313863
v 0.161499992 -0.0539655983 0.0617105328
v 0.161369398 -0.0358758271 0.0617502891
v 0.159211889 -0.0364980996 0.0577707849
v 0.15909715 -0.0206256807 0.0578053556
v 0.161253467 -0.0198455155 0.0617850386
v 0.161154345 -0.00618991256 0.0618138276
v 0.1589991 -0.00708857179 0.0578342043
v 0.158870772 -0.00427922606 0.057847973
v 0.160922721 -0.00136879075 0.061823722
v 0.0181679353 -0.0492171347 0.0799537897
v 0.0177021846 -0.0496536791 0.0798858404
v 0.017098926 -0.049911648 0.0797022581
v 0.0177452788 -0.0498323739 0.0797024369
v 0.0183623061 -0.0496065319 0.0797029138
v 0.017761074 -0.0498973429 0.0794522762
v 0.0171032175 -0.0499780476 0.0794520974
v 0.0170988664 -0.0499105155 0.0792022943
v -0.0630864277 -0.0504885018 0.0792022943
v -0.0630898252 -0.0505560935 0.0794520974
v -0.063733913 -0.0504185259 0.0792024136
v -0.0630772486 -0.0503049791 0.0790196657
v -0.0636933818 -0.0502384007 0.0790198445
v -0.0636380091 -0.04999277 0.0789533854
v -0.064165391 -0.0498083532 0.0789538026
v -0.0642742887 -0.0500352681 0.0790202618
v -0.0638989583 -0.00585511327 0.0799845457
v -0.063369371 -0.00579014421 0.0799846649
v -0.0633855239 -0.00554040074 0.080052197
v 0.0167500004 -0.00496283174 0.080052197
v 0.0167374834 -0.00521275401 0.0799846649
v -0.0633575097 -0.00597271323 0.0798012614
v 0.0173233375 -0.00502476096 0.0800520778
v 0.016762577 -0.00471255183 0.0799857974
v 0.0173787102 -0.00477918983 0.0799856186
v 0.0174192414 -0.00459906459 0.07980299
v 0.0180393681 -0.00481590629 0.0798025131
v 0.0179596171 -0.00498232245 0.0799851418
v 0.0185871348 -0.00515881181 0.0798017383
v 0.0180685744 -0.00475457311 0.0795526505
v 0.0186289176 -0.00510540605 0.0795518756
v 0.0185871348 -0.00515767932 0.0793017745
v 0.0190449581 -0.00560900569 0.0793007612
v 0.0190972909 -0.00556704402 0.0795508623
v 0.0193957314 -0.00615170598 0.0792995095
v 0.0189022049 -0.00572481751 0.0791174769
v 0.0192308649 -0.00623342395 0.0791163445
v 0.0190057382 -0.00634548068 0.0790491104
v 0.0191977844 -0.00687018037 0.0790479183
v 0.0194424018 -0.00681129098 0.0791150331
v 0.019267939 -0.00744250417 0.0790466666
v 0.0189531073 -0.00692930818 0.0791147947
v 0.0190180764 -0.00745889544 0.0791136026
v 0.0188351497 -0.007471174 0.0792965889
v 0.0191196427 -0.0469379127 0.0792088509
v 0.0193026885 -0.0469467342 0.079025805
v 0.0190657005 -0.0474369824 0.0792077184
v 0.0190525874 -0.0469351113 0.0794588327
v 0.0189999565 -0.0474226177 0.0794577599
v 0.0190657005 -0.0474380553 0.0797077417
v 0.0189137086 -0.0478728712 0.0797067881
v 0.0188529119 -0.0478431284 0.0794568658
v 0.0186726674 -0.0482578576 0.079705894
v 0.019079648 -0.0479530394 0.0798895955
v 0.0188171491 -0.0483723581 0.0798887014
v 0.0190145001 -0.0485284626 0.0799553394
v 0.0186299905 -0.0489185154 0.0799544454
v 0.0184712037 -0.0487233102 0.0798879266
v 0.0187887773 -0.049113363 0.0798870325
v 0.0182801709 -0.0494421422 0.0798863173
v -0.0653291121 -0.00648912787 0.0790501237
v -0.0653943196 -0.00706455112 0.0791158676
v -0.0651317611 -0.00664517283 0.0791167617
v -0.0649873391 -0.00675973296 0.0792995095
v -0.0646695867 -0.00643739104 0.0793002248
v -0.0647858158 -0.00629422069 0.0791175365
v -0.0642881766 -0.00619092584 0.0793007612
v -0.064627029 -0.00649026036 0.0795501471
v -0.0642581359 -0.00625184178 0.0795506239
v -0.0642881766 -0.00619205832 0.0798007846
v -0.0638558045 -0.00603380799 0.0798011422
v -0.0638400093 -0.00609883666 0.0795509815
f 1 2 3
f 1 2 3
f 4 3 2
f 4 3 2
f 1 5 6
f 1 5 6
f 6 2 1
f 6 2 1
f 7 5 8
f 7 5 8
f 6 5 7
f 6 5 7
f 8 9 7
f 8 9 7
f 10 9 8
f 10 9 8
f 11 4 2
f 11 4 2
f 11 12 4
f 11 12 4
f 11 13 12
f 11 13 12
f 2 6 14
f 14 11 2
f 2 6 14
f 14 11 2
f 15 13 11
f 11 14 15
f 15 13 11
f 11 14 15
f 13 15 16
f 13 15 16
f 16 17 13
f 16 17 13
f 15 14 18
f 15 14 18
f 18 14 6
f 18 14 6
f 17 16 19
f 17 16 19
f 19 20 17
f 19 20 17
f 21 20 19
f 21 20 19
f 6 22 18
f 6 22 18
f 7 22 6
f 7 22 6
f 23 18 22
f 23 18 22
f 24 22 7
f 22 24 23
f 24 22 7
f 22 24 23
f 7 25 24
f 7 25 24
f 25 7 9
f 25 7 9
f 9 26 25
f 9 26 25
f 26 9 10
f 26 9 10
f 10 27 26
f 10 27 26
f 27 10 28
f 27 10 28
f 28 29 27
f 28 29 27
f 29 28 30
f 29 28 30
f 30 31 29
f 30 31 29
f 31 30 32
f 31 30 32
f 32 33 31
f 32 33 31
f 33 32 34
f 33 32 34
f 34 35 33
f 34 35 33
f 35 34 36
f 35 34 36
f 36 37 35
f 36 37 35
f 37 36 38
f 37 36 38
f 35 37 39
f 35 37 39
f 39 40 35
f 39 40 35
f 33 35 40
f 33 35 40
f 40 41 33
f 40 41 33
f 31 33 41
f 31 33 41
f 41 42 31
f 41 42 31
f 29 31 42
f 29 31 42
f 42 43 29
f 42 43 29
f 27 29 43
f 27 29 43
f 43 44 27
f 43 44 27
f 26 27 44
f 26 27 44
f 44 45 26
f 44 45 26
f 25 26 45
f 25 26 45
f 45 46 25
f 45 46 25
f 24 25 46
f 24 25 46
f 46 47 24
f 46 47 24
f 23 24 47
f 23 24 47
f 47 48 23
f 47 48 23
f 49 23 48
f 49 23 48
f 18 23 49
f 18 23 49
f 48 50 49
f 48 50 49
f 49 51 18
f 49 51 18
f 52 49 50
f 52 49 50
f 51 49 52
f 51 49 52
f 50 53 52
f 50 53 52
f 18 51 15
f 18 51 15
f 15 51 54
f 15 51 54
f 52 54 51
f 52 54 51
f 54 16 15
f 54 16 15
f 55 52 53
f 55 52 53
f 55 54 52
f 55 54 52
f 53 56 55
f 53 56 55
f 16 54 57
f 16 54 57
f 55 57 54
f 55 57 54
f 57 19 16
f 57 19 16
f 55 56 58
f 55 56 58
f 59 19 57
f 59 19 57
f 19 59 21
f 19 59 21
f 55 60 57
f 55 60 57
f 58 60 55
f 58 60 55
f 61 57 60
f 61 57 60
f 57 61 59
f 57 61 59
f 62 60 58
f 62 60 58
f 60 62 61
f 60 62 61
f 58 63 62
f 58 63 62
f 64 62 63
f 64 62 63
f 61 62 64
f 61 62 64
f 63 65 64
f 63 65 64
f 59 61 66
f 59 61 66
f 64 66 61
f 64 66 61
f 21 59 67
f 21 59 67
f 66 67 59
f 66 67 59
f 68 64 65
f 68 64 65
f 66 64 68
f 66 64 68
f 65 69 68
f 65 69 68
f 67 70 21
f 67 70 21
f 70 67 71
f 70 67 71
f 71 67 66
f 71 67 66
f 71 72 70
f 71 72 70
f 73 68 69
f 73 68 69
f 68 74 66
f 68 74 66
f 74 68 73
f 74 68 73
f 66 74 71
f 66 74 71
f 69 75 73
f 69 75 73
f 76 73 75
f 76 73 75
f 73 77 74
f 73 77 74
f 77 73 76
f 77 73 76
f 71 74 77
f 71 74 77
f 72 71 78
f 72 71 78
f 77 78 71
f 77 78 71
f 78 79 72
f 78 79 72
f 75 80 76
f 75 80 76
f 79 78 81
f 79 78 81
f 81 78 77
f 81 78 77
f 81 82 79
f 81 82 79
f 83 76 80
f 83 76 80
f 76 84 77
f 76 84 77
f 84 76 83
f 84 76 83
f 77 84 81
f 77 84 81
f 80 85 83
f 80 85 83
f 86 83 85
f 86 83 85
f 83 87 84
f 83 87 84
f 87 83 86
f 87 83 86
f 81 84 87
f 81 84 87
f 82 81 88
f 82 81 88
f 87 88 81
f 87 88 81
f 88 89 82
f 88 89 82
f 85 90 86
f 85 90 86
f 89 88 91
f 89 88 91
f 91 88 87
f 91 88 87
f 91 92 89
f 91 92 89
f 93 86 90
f 93 86 90
f 86 94 87
f 86 94 87
f 94 86 93
f 94 86 93
f 87 94 91
f 87 94 91
f 90 95 93
f 90 95 93
f 96 93 95
f 96 93 95
f 93 97 94
f 93 97 94
f 97 93 96
f 97 93 96
f 91 94 97
f 91 94 97
f 92 91 98
f 92 91 98
f 97 98 91
f 97 98 91
f 98 99 92
f 98 99 92
f 95 100 96
f 95 100 96
f 99 98 101
f 99 98 101
f 101 98 97
f 101 98 97
f 101 102 99
f 101 102 99
f 103 96 100
f 103 96 100
f 96 104 97
f 96 104 97
f 104 96 103
f 104 96 103
f 97 104 101
f 105 106 107
f 105 106 107
f 107 106 108
f 107 106 108
f 107 109 105
f 107 109 105
f 108 110 107
f 108 110 107
f 105 109 111
f 105 109 111
f 112 110 108
f 112 110 108
f 111 113 105
f 111 113 105
f 108 114 112
f 108 114 112
f 115 113 111
f 115 113 111
f 112 114 116
f 112 114 116
f 116 117 112
f 116 117 112
f 111 118 115
f 111 118 115
f 119 117 116
f 119 117 116
f 115 118 120
f 115 118 120
f 120 121 115
f 120 121 115
f 116 122 119
f 116 122 119
f 123 121 120
f 123 121 120
f 119 122 124
f 119 122 124
f 124 125 119
f 124 125 119
f 120 126 123
f 120 126 123
f 127 125 124
f 127 125 124
f 123 126 128
f 123 126 128
f 128 129 123
f 128 129 123
f 124 130 127
f 124 130 127
f 131 129 128
f 131 129 128
f 127 130 132
f 127 130 132
f 132 133 127
f 132 133 127
f 134 135 136
f 137 138 139
f 137 138 139
f 136 138 137
f 136 138 137
f 140 139 138
f 140 139 138
f 136 135 141
f 136 135 141
f 142 141 135
f 142 141 135
f 138 136 143
f 141 143 136
f 138 136 143
f 141 143 136
f 138 144 140
f 138 144 140
f 143 144 138
f 143 144 138
f 145 140 144
f 145 140 144
f 144 146 145
f 144 146 145
f 144 143 147
f 147 146 144
f 144 143 147
f 147 146 144
f 147 143 141
f 147 143 141
f 146 147 148
f 146 147 148
f 149 148 147
f 149 148 147
f 150 148 149
f 150 148 149
f 141 151 147
f 141 151 147
f 147 151 149
f 147 151 149
f 141 142 152
f 141 142 152
f 152 151 141
f 152 151 141
f 152 142 153
f 152 142 153
f 153 154 152
f 153 154 152
f 151 152 155
f 155 152 154
f 151 152 155
f 155 152 154
f 155 149 151
f 155 149 151
f 154 156 155
f 154 156 155
f 157 155 156
f 157 155 156
f 149 155 157
f 149 155 157
f 156 158 157
f 156 158 157
f 149 159 150
f 149 159 150
f 157 159 149
f 157 159 149
f 150 159 160
f 150 159 160
f 161 157 158
f 161 157 158
f 159 157 161
f 159 157 161
f 161 160 159
f 161 160 159
f 158 162 161
f 158 162 161
f 163 160 161
f 163 160 161
f 164 161 162
f 161 164 163
f 164 161 162
f 161 164 163
f 162 165 164
f 162 165 164
f 166 163 164
f 166 163 164
f 167 164 165
f 164 167 166
f 167 164 165
f 164 167 166
f 165 168 167
f 165 168 167
f 166 167 169
f 166 167 169
f 169 167 168
f 169 167 168
f 169 168 170
f 169 168 170
f 169 170 171
f 169 170 171
f 170 172 171
f 170 172 171
f 97 104 101
f 100 173 103
f 100 173 103
f 174 103 173
f 174 103 173
f 103 175 104
f 103 175 104
f 175 103 174
f 175 103 174
f 101 104 175
f 101 104 175
f 102 101 176
f 102 101 176
f 175 176 101
f 175 176 101
f 176 177 102
f 176 177 102
f 173 178 174
f 173 178 174
f 177 176 179
f 177 176 179
f 179 176 175
f 179 176 175
f 179 180 177
f 179 180 177
f 181 174 178
f 181 174 178
f 174 182 175
f 174 182 175
f 182 174 181
f 182 174 181
f 175 182 179
f 175 182 179
f 178 183 181
f 178 183 181
f 184 181 183
f 184 181 183
f 181 185 182
f 181 185 182
f 185 181 184
f 185 181 184
f 179 182 185
f 179 182 185
f 180 179 186
f 180 179 186
f 185 186 179
f 185 186 179
f 186 187 180
f 186 187 180
f 183 188 184
f 183 188 184
f 187 186 189
f 187 186 189
f 189 186 185
f 189 186 185
f 189 190 187
f 189 190 187
f 191 190 189
f 191 190 189
f 192 184 188
f 192 184 188
f 188 193 192
f 188 193 192
f 184 194 185
f 185 194 189
f 184 194 185
f 185 194 189
f 195 194 184
f 195 194 184
f 184 192 195
f 184 192 195
f 189 194 195
f 189 194 195
f 196 192 193
f 196 192 193
f 195 192 196
f 195 192 196
f 193 197 196
f 193 197 196
f 198 196 197
f 198 196 197
f 197 199 198
f 197 199 198
f 200 196 198
f 200 196 198
f 196 200 195
f 196 200 195
f 201 198 199
f 201 198 199
f 199 202 201
f 199 202 201
f 203 198 201
f 203 198 201
f 198 203 200
f 198 203 200
f 204 201 202
f 204 201 202
f 202 205 204
f 202 205 204
f 206 201 204
f 206 201 204
f 201 206 203
f 201 206 203
f 207 204 205
f 207 204 205
f 205 208 207
f 205 208 207
f 209 204 207
f 209 204 207
f 204 209 206
f 204 209 206
f 210 207 208
f 210 207 208
f 208 211 210
f 208 211 210
f 212 207 210
f 212 207 210
f 207 212 209
f 207 212 209
f 213 210 211
f 213 210 211
f 211 214 213
f 211 214 213
f 215 210 213
f 215 210 213
f 210 215 212
f 210 215 212
f 216 213 214
f 216 213 214
f 214 217 216
f 214 217 216
f 218 213 216
f 218 213 216
f 213 218 215
f 213 218 215
f 219 216 217
f 219 216 217
f 217 220 219
f 217 220 219
f 221 216 219
f 221 216 219
f 216 221 218
f 216 221 218
f 222 219 220
f 222 219 220
f 220 223 222
f 220 223 222
f 224 219 222
f 224 219 222
f 219 224 221
f 219 224 221
f 225 222 223
f 225 222 223
f 223 226 225
f 223 226 225
f 227 222 225
f 227 222 225
f 222 227 224
f 222 227 224
f 228 225 226
f 228 225 226
f 226 229 228
f 226 229 228
f 230 225 228
f 230 225 228
f 225 230 227
f 225 230 227
f 231 228 229
f 231 228 229
f 229 232 231
f 229 232 231
f 233 224 227
f 233 224 227
f 221 224 233
f 221 224 233
f 234 231 232
f 234 231 232
f 232 235 234
f 232 235 234
f 236 234 235
f 236 234 235
f 237 236 235
f 237 236 235
f 238 234 236
f 238 234 236
f 231 234 238
f 231 234 238
f 237 239 236
f 237 239 236
f 237 240 239
f 237 240 239
f 236 150 238
f 236 150 238
f 150 236 239
f 150 236 239
f 238 241 231
f 238 241 231
f 228 231 241
f 228 231 241
f 160 238 150
f 160 238 150
f 241 238 160
f 241 238 160
f 146 239 240
f 146 239 240
f 240 145 146
f 240 145 146
f 239 148 150
f 239 148 150
f 148 239 146
f 148 239 146
f 241 242 228
f 241 242 228
f 228 242 230
f 228 242 230
f 242 241 163
f 242 241 163
f 160 163 241
f 160 163 241
f 243 230 242
f 243 230 242
f 227 230 243
f 227 230 243
f 242 166 243
f 163 166 242
f 242 166 243
f 163 166 242
f 243 244 227
f 243 244 227
f 227 244 233
f 227 244 233
f 171 244 243
f 171 244 243
f 169 243 166
f 243 169 171
f 169 243 166
f 243 169 171
f 245 233 244
f 245 233 244
f 244 171 245
f 244 171 245
f 233 245 246
f 233 245 246
f 246 247 233
f 246 247 233
f 233 247 221
f 233 247 221
f 247 246 248
f 247 246 248
f 221 247 249
f 248 249 247
f 221 247 249
f 248 249 247
f 249 218 221
f 249 218 221
f 249 248 250
f 249 248 250
f 215 218 249
f 215 218 249
f 250 251 249
f 250 251 249
f 249 251 215
f 249 251 215
f 251 250 252
f 251 250 252
f 215 251 253
f 252 253 251
f 215 251 253
f 252 253 251
f 253 212 215
f 253 212 215
f 253 252 254
f 253 252 254
f 209 212 253
f 209 212 253
f 254 255 253
f 254 255 253
f 253 255 209
f 253 255 209
f 255 254 256
f 255 254 256
f 209 255 257
f 256 257 255
f 209 255 257
f 256 257 255
f 257 206 209
f 257 206 209
f 257 256 258
f 257 256 258
f 203 206 257
f 203 206 257
f 258 259 257
f 258 259 257
f 257 259 203
f 257 259 203
f 259 258 260
f 259 258 260
f 203 259 261
f 260 261 259
f 203 259 261
f 260 261 259
f 261 200 203
f 261 200 203
f 261 260 191
f 261 260 191
f 195 200 261
f 195 200 261
f 191 262 261
f 261 262 195
f 261 262 195
f 191 262 261
f 195 262 189
f 195 262 189
f 189 262 191
f 189 262 191
f 263 264 38
f 263 264 38
f 38 264 265
f 38 264 265
f 266 264 263
f 266 264 263
f 265 264 266
f 265 264 266
f 265 267 38
f 265 267 38
f 38 267 37
f 38 267 37
f 37 267 268
f 37 267 268
f 268 39 37
f 268 39 37
f 269 268 267
f 269 268 267
f 267 265 269
f 267 265 269
f 270 269 265
f 270 269 265
f 265 271 270
f 265 271 270
f 266 271 265
f 266 271 265
f 272 270 271
f 272 270 271
f 271 273 272
f 271 273 272
f 274 272 273
f 274 272 273
f 275 273 271
f 275 273 271
f 271 266 275
f 271 266 275
f 273 276 274
f 273 276 274
f 277 274 276
f 277 274 276
f 273 275 278
f 273 275 278
f 278 276 273
f 278 276 273
f 279 275 266
f 279 275 266
f 278 275 279
f 278 275 279
f 266 280 279
f 266 280 279
f 263 280 266
f 263 280 266
f 276 281 277
f 276 281 277
f 282 277 281
f 282 277 281
f 276 278 283
f 276 278 283
f 283 281 276
f 283 281 276
f 284 280 263
f 284 280 263
f 263 285 284
f 263 285 284
f 286 284 285
f 286 284 285
f 280 284 287
f 287 284 286
f 280 284 287
f 287 284 286
f 287 279 280
f 287 279 280
f 286 288 287
f 286 288 287
f 289 287 288
f 289 287 288
f 279 287 289
f 279 287 289
f 288 290 289
f 288 290 289
f 289 291 279
f 289 291 279
f 279 291 278
f 279 291 278
f 292 289 290
f 292 289 290
f 291 289 292
f 291 289 292
f 290 293 292
f 290 293 292
f 278 291 294
f 278 291 294
f 292 294 291
f 292 294 291
f 294 283 278
f 294 283 278
f 295 292 293
f 295 292 293
f 294 292 295
f 294 292 295
f 293 296 295
f 293 296 295
f 297 295 296
f 297 295 296
f 296 298 297
f 296 298 297
f 299 295 297
f 299 295 297
f 295 299 294
f 295 299 294
f 300 283 294
f 300 283 294
f 294 299 300
f 294 299 300
f 281 283 300
f 281 283 300
f 301 297 298
f 301 297 298
f 297 134 299
f 297 134 299
f 134 297 301
f 134 297 301
f 300 299 134
f 300 299 134
f 298 302 301
f 298 302 301
f 300 303 281
f 300 303 281
f 281 303 282
f 281 303 282
f 304 282 303
f 304 282 303
f 142 301 302
f 142 301 302
f 302 153 142
f 302 153 142
f 135 301 142
f 135 301 142
f 301 135 134
f 301 135 134
f 303 137 304
f 303 137 304
f 139 304 137
f 139 304 137
f 303 300 305
f 303 300 305
f 134 305 300
f 134 305 300
f 305 137 303
f 305 137 303
f 136 305 134
f 136 305 134
f 137 305 136
f 137 305 136
f 134 135 136
f 306 307 38
f 306 307 38
f 308 307 306
f 308 307 306
f 38 307 263
f 263 307 308
f 263 307 308
f 38 307 263
f 306 309 308
f 306 309 308
f 38 36 306
f 38 36 306
f 308 309 310
f 308 309 310
f 310 311 308
f 310 311 308
f 312 310 309
f 312 310 309
f 308 311 313
f 308 311 313
f 313 285 308
f 313 285 308
f 308 285 263
f 308 285 263
f 285 313 286
f 285 313 286
f 309 314 312
f 309 314 312
f 315 312 314
f 315 312 314
f 316 314 309
f 316 314 309
f 309 306 316
f 309 306 316
f 314 317 315
f 314 317 315
f 318 315 317
f 318 315 317
f 314 316 319
f 314 316 319
f 319 317 314
f 319 317 314
f 34 316 306
f 34 316 306
f 319 316 34
f 319 316 34
f 306 36 34
f 306 36 34
f 317 320 318
f 317 320 318
f 321 318 320
f 321 318 320
f 317 319 322
f 317 319 322
f 322 320 317
f 322 320 317
f 320 323 321
f 320 323 321
f 324 321 323
f 324 321 323
f 320 322 325
f 320 322 325
f 325 323 320
f 325 323 320
f 30 322 319
f 30 322 319
f 325 322 30
f 325 322 30
f 319 32 30
f 319 32 30
f 34 32 319
f 34 32 319
f 323 326 324
f 323 326 324
f 327 324 326
f 327 324 326
f 323 325 328
f 323 325 328
f 328 326 323
f 328 326 323
f 326 329 327
f 326 329 327
f 330 327 329
f 330 327 329
f 326 328 8
f 326 328 8
f 8 329 326
f 8 329 326
f 10 328 325
f 10 328 325
f 8 328 10
f 8 328 10
f 325 28 10
f 325 28 10
f 30 28 325
f 30 28 325
f 329 1 330
f 329 1 330
f 3 330 1
f 3 330 1
f 329 8 5
f 329 8 5
f 5 1 329
f 5 1 329
f 331 332 333
f 331 332 333
f 334 333 332
f 334 333 332
f 333 335 331
f 333 335 331
f 332 336 334
f 332 336 334
f 335 333 337
f 335 333 337
f 338 337 333
f 333 334 338
f 338 337 333
f 333 334 338
f 337 339 335
f 337 339 335
f 336 332 340
f 336 332 340
f 332 331 341
f 332 331 341
f 341 340 332
f 341 340 332
f 342 331 335
f 342 331 335
f 343 341 331
f 331 342 343
f 343 341 331
f 331 342 343
f 344 335 339
f 335 344 342
f 344 335 339
f 335 344 342
f 345 342 344
f 345 342 344
f 346 343 342
f 342 345 346
f 346 343 342
f 342 345 346
f 341 343 347
f 341 343 347
f 348 347 343
f 343 346 348
f 348 347 343
f 343 346 348
f 347 349 341
f 347 349 341
f 340 341 349
f 340 341 349
f 347 348 350
f 347 348 350
f 350 351 347
f 349 347 351
f 350 351 347
f 349 347 351
f 352 350 348
f 352 350 348
f 353 348 346
f 348 353 352
f 353 348 346
f 348 353 352
f 354 355 356
f 354 355 356
f 356 357 354
f 358 354 357
f 356 357 354
f 358 354 357
f 359 356 355
f 359 356 355
f 360 355 361
f 355 360 359
f 360 355 361
f 355 360 359
f 361 362 360
f 361 362 360
f 362 361 363
f 362 361 363
f 364 360 362
f 364 360 362
f 365 359 360
f 360 364 365
f 365 359 360
f 360 364 365
f 356 359 366
f 356 359 366
f 367 366 359
f 359 365 367
f 367 366 359
f 359 365 367
f 366 368 356
f 366 368 356
f 357 356 368
f 357 356 368
f 366 367 369
f 366 367 369
f 369 370 366
f 368 366 370
f 369 370 366
f 368 366 370
f 371 369 367
f 371 369 367
f 372 367 365
f 367 372 371
f 372 367 365
f 367 372 371
f 365 373 372
f 365 373 372
f 373 365 364
f 373 365 364
f 374 372 373
f 374 372 373
f 375 371 372
f 372 374 375
f 375 371 372
f 372 374 375
f 369 371 376
f 369 371 376
f 377 376 371
f 371 375 377
f 377 376 371
f 371 375 377
f 376 378 369
f 376 378 369
f 370 369 378
f 370 369 378
f 376 377 379
f 376 377 379
f 379 380 376
f 378 376 380
f 379 380 376
f 378 376 380
f 381 379 377
f 381 379 377
f 382 377 375
f 377 382 381
f 382 377 375
f 377 382 381
f 375 383 382
f 375 383 382
f 383 375 374
f 383 375 374
f 384 382 383
f 384 382 383
f 385 381 382
f 382 384 385
f 385 381 382
f 382 384 385
f 379 381 386
f 379 381 386
f 387 386 381
f 381 385 387
f 387 386 381
f 381 385 387
f 386 339 379
f 386 339 379
f 380 379 339
f 380 379 339
f 339 386 344
f 339 386 344
f 339 337 380
f 339 337 380
f 388 344 386
f 388 344 386
f 386 387 388
f 386 387 388
f 344 388 345
f 344 388 345
f 389 380 337
f 389 380 337
f 380 389 378
f 380 389 378
f 337 338 389
f 337 338 389
f 390 345 388
f 390 345 388
f 345 390 391
f 345 390 391
f 388 392 390
f 388 392 390
f 392 388 387
f 392 388 387
f 393 391 390
f 393 391 390
f 391 393 394
f 391 393 394
f 395 390 392
f 395 390 392
f 390 395 393
f 390 395 393
f 387 396 392
f 387 396 392
f 396 387 385
f 396 387 385
f 397 392 396
f 397 392 396
f 392 397 395
f 392 397 395
f 385 398 396
f 385 398 396
f 398 385 384
f 398 385 384
f 399 396 398
f 399 396 398
f 396 399 397
f 396 399 397
f 398 400 399
f 398 400 399
f 384 401 398
f 400 398 401
f 384 401 398
f 400 398 401
f 401 384 402
f 401 384 402
f 383 402 384
f 383 402 384
f 402 383 403
f 402 383 403
f 374 403 383
f 374 403 383
f 403 374 404
f 403 374 404
f 373 404 374
f 373 404 374
f 404 373 405
f 404 373 405
f 364 405 373
f 364 405 373
f 405 364 406
f 405 364 406
f 362 406 364
f 362 406 364
f 406 362 407
f 406 362 407
f 363 407 362
f 363 407 362
f 407 363 408
f 407 363 408
f 409 408 363
f 409 408 363
f 408 409 410
f 408 409 410
f 411 410 409
f 411 410 409
f 410 411 412
f 410 411 412
f 413 412 411
f 413 412 411
f 412 413 414
f 412 413 414
f 415 414 413
f 415 414 413
f 414 415 416
f 414 415 416
f 417 416 415
f 417 416 415
f 416 417 418
f 416 417 418
f 419 418 417
f 419 418 417
f 418 419 420
f 418 419 420
f 421 420 419
f 421 420 419
f 420 421 422
f 420 421 422
f 423 422 421
f 423 422 421
f 422 423 424
f 422 423 424
f 425 424 423
f 425 424 423
f 424 425 426
f 424 425 426
f 427 426 425
f 427 426 425
f 426 427 428
f 426 427 428
f 429 428 427
f 429 428 427
f 428 429 430
f 428 429 430
f 431 430 429
f 431 430 429
f 430 431 432
f 430 431 432
f 433 432 431
f 433 432 431
f 432 433 434
f 432 433 434
f 435 434 433
f 435 434 433
f 434 435 436
f 434 435 436
f 437 436 435
f 437 436 435
f 436 437 438
f 436 437 438
f 439 438 437
f 439 438 437
f 438 439 440
f 438 439 440
f 441 440 439
f 441 440 439
f 440 441 442
f 440 441 442
f 443 442 441
f 443 442 441
f 442 443 444
f 442 443 444
f 445 444 443
f 445 444 443
f 444 445 446
f 444 445 446
f 447 446 445
f 447 446 445
f 446 447 448
f 446 447 448
f 449 448 447
f 449 448 447
f 448 449 450
f 448 449 450
f 451 450 449
f 451 450 449
f 450 451 452
f 450 451 452
f 453 452 451
f 453 452 451
f 452 453 454
f 452 453 454
f 394 454 453
f 394 454 453
f 454 394 393
f 454 394 393
f 393 455 454
f 393 455 454
f 455 393 395
f 455 393 395
f 454 456 452
f 456 454 455
f 454 456 452
f 456 454 455
f 452 457 450
f 457 452 456
f 452 457 450
f 457 452 456
f 458 450 457
f 458 450 457
f 450 458 448
f 450 458 448
f 395 459 455
f 395 459 455
f 459 395 397
f 459 395 397
f 455 460 456
f 460 455 459
f 455 460 456
f 460 455 459
f 456 461 457
f 461 456 460
f 456 461 457
f 461 456 460
f 457 462 458
f 462 457 461
f 457 462 458
f 462 457 461
f 397 463 459
f 397 463 459
f 463 397 399
f 463 397 399
f 459 464 460
f 464 459 463
f 459 464 460
f 464 459 463
f 460 465 461
f 465 460 464
f 460 465 461
f 465 460 464
f 461 466 462
f 466 461 465
f 461 466 462
f 466 461 465
f 399 467 463
f 399 467 463
f 467 399 400
f 467 399 400
f 463 468 464
f 468 463 467
f 463 468 464
f 468 463 467
f 464 469 465
f 469 464 468
f 464 469 465
f 469 464 468
f 465 470 466
f 470 465 469
f 465 470 466
f 470 465 469
f 469 471 470
f 469 471 470
f 468 472 469
f 471 469 472
f 468 472 469
f 471 469 472
f 467 473 468
f 467 473 468
f 472 468 473
f 472 468 473
f 473 467 474
f 473 467 474
f 400 474 467
f 400 474 467
f 474 400 475
f 474 400 475
f 401 475 400
f 401 475 400
f 475 401 476
f 475 401 476
f 402 476 401
f 402 476 401
f 476 402 477
f 476 402 477
f 403 477 402
f 403 477 402
f 477 403 478
f 477 403 478
f 404 478 403
f 404 478 403
f 478 404 479
f 478 404 479
f 405 479 404
f 405 479 404
f 479 405 480
f 479 405 480
f 406 480 405
f 406 480 405
f 480 406 481
f 480 406 481
f 407 481 406
f 407 481 406
f 481 407 482
f 481 407 482
f 408 482 407
f 408 482 407
f 482 408 483
f 482 408 483
f 410 483 408
f 410 483 408
f 483 410 484
f 483 410 484
f 412 484 410
f 412 484 410
f 484 412 485
f 484 412 485
f 414 485 412
f 414 485 412
f 485 414 486
f 485 414 486
f 416 486 414
f 416 486 414
f 486 416 487
f 486 416 487
f 418 487 416
f 418 487 416
f 487 418 488
f 487 418 488
f 420 488 418
f 420 488 418
f 488 420 489
f 488 420 489
f 422 489 420
f 422 489 420
f 489 422 490
f 489 422 490
f 424 490 422
f 424 490 422
f 490 424 491
f 490 424 491
f 426 491 424
f 426 491 424
f 491 426 492
f 491 426 492
f 428 492 426
f 428 492 426
f 492 428 493
f 492 428 493
f 430 493 428
f 430 493 428
f 493 430 494
f 493 430 494
f 432 494 430
f 432 494 430
f 494 432 495
f 494 432 495
f 434 495 432
f 434 495 432
f 495 434 496
f 495 434 496
f 436 496 434
f 436 496 434
f 496 436 497
f 496 436 497
f 438 497 436
f 438 497 436
f 497 438 498
f 497 438 498
f 440 498 438
f 440 498 438
f 498 440 499
f 498 440 499
f 442 499 440
f 442 499 440
f 499 442 500
f 499 442 500
f 444 500 442
f 444 500 442
f 500 444 501
f 500 444 501
f 446 501 444
f 446 501 444
f 501 446 502
f 501 446 502
f 448 502 446
f 448 502 446
f 502 448 458
f 502 448 458
f 458 503 502
f 458 503 502
f 503 458 462
f 503 458 462
f 502 504 501
f 504 502 503
f 502 504 501
f 504 502 503
f 501 505 500
f 505 501 504
f 501 505 500
f 505 501 504
f 506 500 505
f 506 500 505
f 500 506 499
f 500 506 499
f 462 507 503
f 462 507 503
f 507 462 466
f 507 462 466
f 503 508 504
f 508 503 507
f 503 508 504
f 508 503 507
f 504 509 505
f 509 504 508
f 504 509 505
f 509 504 508
f 505 510 506
f 510 505 509
f 505 510 506
f 510 505 509
f 466 511 507
f 466 511 507
f 511 466 470
f 511 466 470
f 507 512 508
f 512 507 511
f 507 512 508
f 512 507 511
f 508 513 509
f 513 508 512
f 508 513 509
f 513 508 512
f 509 514 510
f 514 509 513
f 509 514 510
f 514 509 513
f 470 515 511
f 470 515 511
f 515 470 471
f 515 470 471
f 511 516 512
f 516 511 515
f 511 516 512
f 516 511 515
f 512 517 513
f 517 512 516
f 512 517 513
f 517 512 516
f 513 518 514
f 518 513 517
f 513 518 514
f 518 513 517
f 517 519 518
f 517 519 518
f 516 520 517
f 519 517 520
f 516 520 517
f 519 517 520
f 515 521 516
f 515 521 516
f 520 516 521
f 520 516 521
f 521 515 522
f 521 515 522
f 471 522 515
f 471 522 515
f 522 471 523
f 522 471 523
f 472 523 471
f 472 523 471
f 523 472 524
f 523 472 524
f 473 524 472
f 473 524 472
f 524 473 525
f 524 473 525
f 474 525 473
f 474 525 473
f 525 474 526
f 525 474 526
f 475 526 474
f 475 526 474
f 526 475 527
f 526 475 527
f 476 527 475
f 476 527 475
f 527 476 528
f 527 476 528
f 477 528 476
f 477 528 476
f 528 477 529
f 528 477 529
f 478 529 477
f 478 529 477
f 529 478 530
f 529 478 530
f 479 530 478
f 479 530 478
f 530 479 531
f 530 479 531
f 480 531 479
f 480 531 479
f 531 480 532
f 531 480 532
f 481 532 480
f 481 532 480
f 532 481 533
f 532 481 533
f 482 533 481
f 482 533 481
f 533 482 534
f 533 482 534
f 483 534 482
f 483 534 482
f 534 483 535
f 534 483 535
f 484 535 483
f 484 535 483
f 535 484 536
f 535 484 536
f 485 536 484
f 485 536 484
f 536 485 537
f 536 485 537
f 486 537 485
f 486 537 485
f 537 486 538
f 537 486 538
f 487 538 486
f 487 538 486
f 538 487 539
f 538 487 539
f 488 539 487
f 488 539 487
f 539 488 540
f 539 488 540
f 489 540 488
f 489 540 488
f 540 489 541
f 540 489 541
f 490 541 489
f 490 541 489
f 541 490 542
f 541 490 542
f 491 542 490
f 491 542 490
f 542 491 543
f 542 491 543
f 492 543 491
f 492 543 491
f 543 492 544
f 543 492 544
f 493 544 492
f 493 544 492
f 544 493 545
f 544 493 545
f 494 545 493
f 494 545 493
f 545 494 546
f 545 494 546
f 495 546 494
f 495 546 494
f 546 495 547
f 546 495 547
f 496 547 495
f 496 547 495
f 547 496 548
f 547 496 548
f 497 548 496
f 497 548 496
f 548 497 549
f 548 497 549
f 498 549 497
f 498 549 497
f 549 498 550
f 549 498 550
f 499 550 498
f 499 550 498
f 550 499 506
f 550 499 506
f 506 551 550
f 506 551 550
f 551 506 510
f 551 506 510
f 550 552 549
f 552 550 551
f 550 552 549
f 552 550 551
f 549 553 548
f 553 549 552
f 549 553 548
f 553 549 552
f 554 548 553
f 554 548 553
f 548 554 547
f 548 554 547
f 510 555 551
f 510 555 551
f 555 510 514
f 555 510 514
f 551 556 552
f 556 551 555
f 551 556 552
f 556 551 555
f 552 557 553
f 557 552 556
f 552 557 553
f 557 552 556
f 553 558 554
f 558 553 557
f 553 558 554
f 558 553 557
f 514 559 555
f 514 559 555
f 559 514 518
f 559 514 518
f 555 560 556
f 560 555 559
f 555 560 556
f 560 555 559
f 556 561 557
f 561 556 560
f 556 561 557
f 561 556 560
f 557 562 558
f 562 557 561
f 557 562 558
f 562 557 561
f 518 563 559
f 518 563 559
f 563 518 519
f 563 518 519
f 559 564 560
f 564 559 563
f 559 564 560
f 564 559 563
f 560 565 561
f 565 560 564
f 560 565 561
f 565 560 564
f 561 566 562
f 566 561 565
f 561 566 562
f 566 561 565
f 565 567 566
f 565 567 566
f 567 565 568
f 567 565 568
f 564 568 565
f 564 568 565
f 568 564 569
f 568 564 569
f 563 569 564
f 563 569 564
f 569 563 570
f 569 563 570
f 519 570 563
f 519 570 563
f 570 519 571
f 570 519 571
f 520 571 519
f 520 571 519
f 571 520 572
f 571 520 572
f 521 572 520
f 521 572 520
f 572 521 573
f 572 521 573
f 522 573 521
f 522 573 521
f 573 522 574
f 573 522 574
f 523 574 522
f 523 574 522
f 574 523 575
f 574 523 575
f 524 575 523
f 524 575 523
f 575 524 576
f 575 524 576
f 525 576 524
f 525 576 524
f 576 525 577
f 576 525 577
f 526 577 525
f 526 577 525
f 577 526 578
f 577 526 578
f 527 578 526
f 527 578 526
f 578 527 579
f 578 527 579
f 528 579 527
f 528 579 527
f 579 528 580
f 579 528 580
f 529 580 528
f 529 580 528
f 580 529 581
f 580 529 581
f 530 581 529
f 530 581 529
f 581 530 351
f 581 530 351
f 531 351 530
f 531 351 530
f 351 531 349
f 351 531 349
f 532 349 531
f 532 349 531
f 349 532 340
f 349 532 340
f 533 340 532
f 533 340 532
f 340 533 336
f 340 533 336
f 534 336 533
f 534 336 533
f 336 534 582
f 336 534 582
f 535 582 534
f 535 582 534
f 582 334 336
f 582 334 336
f 582 535 583
f 582 535 583
f 334 582 584
f 334 582 584
f 583 584 582
f 583 584 582
f 584 338 334
f 584 338 334
f 536 583 535
f 536 583 535
f 338 584 585
f 338 584 585
f 585 389 338
f 585 389 338
f 586 585 584
f 586 585 584
f 584 583 586
f 584 583 586
f 583 536 587
f 583 536 587
f 587 586 583
f 587 586 583
f 537 587 536
f 537 587 536
f 389 585 588
f 389 585 588
f 588 378 389
f 588 378 389
f 378 588 370
f 378 588 370
f 585 586 589
f 585 586 589
f 589 588 585
f 589 588 585
f 590 370 588
f 590 370 588
f 588 589 590
f 588 589 590
f 370 590 368
f 370 590 368
f 591 589 586
f 591 589 586
f 586 587 591
f 586 587 591
f 587 537 592
f 587 537 592
f 592 591 587
f 592 591 587
f 538 592 537
f 538 592 537
f 589 591 593
f 593 590 589
f 589 591 593
f 593 590 589
f 594 368 590
f 594 368 590
f 590 593 594
f 590 593 594
f 368 594 357
f 368 594 357
f 592 538 595
f 592 538 595
f 591 592 596
f 591 592 596
f 595 596 592
f 595 596 592
f 596 593 591
f 596 593 591
f 539 595 538
f 539 595 538
f 593 596 597
f 597 594 593
f 593 596 597
f 597 594 593
f 598 357 594
f 598 357 594
f 594 597 598
f 594 597 598
f 357 598 358
f 357 598 358
f 595 539 599
f 595 539 599
f 596 595 600
f 596 595 600
f 599 600 595
f 599 600 595
f 600 597 596
f 600 597 596
f 540 599 539
f 540 599 539
f 597 600 601
f 601 598 597
f 597 600 601
f 601 598 597
f 602 358 598
f 602 358 598
f 598 601 602
f 598 601 602
f 358 602 603
f 358 602 603
f 599 540 604
f 599 540 604
f 600 599 605
f 600 599 605
f 604 605 599
f 604 605 599
f 605 601 600
f 605 601 600
f 541 604 540
f 541 604 540
f 601 605 606
f 606 602 601
f 601 605 606
f 606 602 601
f 607 603 602
f 607 603 602
f 602 606 607
f 602 606 607
f 603 607 608
f 603 607 608
f 604 541 609
f 604 541 609
f 605 604 610
f 605 604 610
f 609 610 604
f 609 610 604
f 610 606 605
f 610 606 605
f 542 609 541
f 542 609 541
f 606 610 611
f 611 607 606
f 606 610 611
f 611 607 606
f 612 608 607
f 612 608 607
f 607 611 612
f 607 611 612
f 608 612 613
f 608 612 613
f 609 542 614
f 609 542 614
f 610 609 615
f 610 609 615
f 614 615 609
f 614 615 609
f 615 611 610
f 615 611 610
f 543 614 542
f 543 614 542
f 611 615 616
f 616 612 611
f 611 615 616
f 616 612 611
f 617 613 612
f 617 613 612
f 612 616 617
f 612 616 617
f 613 617 618
f 613 617 618
f 614 543 619
f 614 543 619
f 615 614 620
f 615 614 620
f 619 620 614
f 619 620 614
f 620 616 615
f 620 616 615
f 544 619 543
f 544 619 543
f 616 620 621
f 621 617 616
f 616 620 621
f 621 617 616
f 622 618 617
f 622 618 617
f 617 621 622
f 617 621 622
f 618 622 623
f 618 622 623
f 619 544 624
f 619 544 624
f 620 619 625
f 620 619 625
f 624 625 619
f 624 625 619
f 625 621 620
f 625 621 620
f 545 624 544
f 545 624 544
f 621 625 626
f 626 622 621
f 621 625 626
f 626 622 621
f 627 623 622
f 627 623 622
f 622 626 627
f 622 626 627
f 623 627 628
f 623 627 628
f 624 545 629
f 624 545 629
f 625 624 630
f 625 624 630
f 629 630 624
f 629 630 624
f 630 626 625
f 630 626 625
f 546 629 545
f 546 629 545
f 626 630 631
f 631 627 626
f 626 630 631
f 631 627 626
f 632 628 627
f 632 628 627
f 627 631 632
f 627 631 632
f 628 632 633
f 628 632 633
f 629 546 634
f 629 546 634
f 547 634 546
f 547 634 546
f 630 629 635
f 630 629 635
f 634 635 629
f 634 635 629
f 635 631 630
f 635 631 630
f 634 547 554
f 634 547 554
f 554 636 634
f 554 636 634
f 635 634 636
f 635 634 636
f 636 554 558
f 636 554 558
f 631 635 637
f 631 635 637
f 636 637 635
f 636 637 635
f 637 632 631
f 637 632 631
f 558 638 636
f 558 638 636
f 637 636 638
f 637 636 638
f 638 558 562
f 638 558 562
f 632 637 639
f 632 637 639
f 638 639 637
f 638 639 637
f 639 633 632
f 639 633 632
f 562 640 638
f 562 640 638
f 639 638 640
f 639 638 640
f 633 639 641
f 633 639 641
f 640 641 639
f 640 641 639
f 641 640 642
f 641 640 642
f 640 562 566
f 640 562 566
f 566 642 640
f 566 642 640
f 642 566 567
f 642 566 567
f 128 643 131
f 128 643 131
f 644 133 132
f 644 133 132
f 131 643 645
f 131 643 645
f 645 646 131
f 645 646 131
f 132 647 644
f 132 647 644
f 648 646 645
f 648 646 645
f 644 647 649
f 644 647 649
f 649 650 644
f 649 650 644
f 651 648 645
f 651 648 645
f 652 650 649
f 652 650 649
f 651 653 648
f 651 653 648
f 649 654 652
f 649 654 652
f 652 654 655
f 652 654 655
f 655 656 652
f 655 656 652
f 653 657 648
f 653 657 648
f 658 656 655
f 658 656 655
f 659 657 653
f 659 657 653
f 655 660 658
f 655 660 658
f 653 661 659
f 653 661 659
f 659 661 662
f 659 661 662
f 662 663 659
f 662 663 659
f 658 660 664
f 658 660 664
f 665 663 662
f 665 663 662
f 664 666 658
f 664 666 658
f 662 667 665
f 662 667 665
f 668 666 664
f 668 666 664
f 665 667 669
f 665 667 669
f 669 670 665
f 669 670 665
f 664 671 668
f 664 671 668
f 672 670 669
f 672 670 669
f 668 671 673
f 668 671 673
f 673 674 668
f 673 674 668
f 669 675 672
f 669 675 672
f 676 674 673
f 676 674 673
f 672 675 677
f 672 675 677
f 677 678 672
f 677 678 672
f 679 678 677
f 679 678 677
f 677 680 679
f 677 680 679
f 673 681 676
f 673 681 676
f 676 681 682
f 676 681 682
f 682 683 676
f 682 683 676
f 684 683 682
f 684 683 682
f 682 685 684
f 682 685 684
f 684 685 686
f 684 685 686
f 687 684 686
f 687 684 686
f 687 686 688
f 687 686 688
f 686 689 688
f 686 689 688
f 688 689 690
f 688 689 690
f 690 691 688
f 690 691 688
f 692 691 690
f 692 691 690
f 690 693 692
f 690 693 692
f 692 693 694
f 692 693 694
f 694 695 692
f 694 695 692
f 696 417 697
f 696 417 697
f 417 696 419
f 417 696 419
f 415 697 417
f 415 697 417
f 698 699 697
f 697 415 698
f 698 699 697
f 697 415 698
f 700 699 701
f 700 699 701
f 702 701 699
f 699 698 702
f 702 701 699
f 699 698 702
f 701 618 700
f 701 618 700
f 623 700 618
f 623 700 618
f 701 702 703
f 701 702 703
f 703 613 701
f 618 701 613
f 703 613 701
f 618 701 613
f 704 703 702
f 704 703 702
f 705 702 698
f 702 705 704
f 705 702 698
f 702 705 704
f 698 413 705
f 698 413 705
f 413 698 415
f 413 698 415
f 411 705 413
f 411 705 413
f 706 704 705
f 705 411 706
f 706 704 705
f 705 411 706
f 703 704 707
f 703 704 707
f 708 707 704
f 704 706 708
f 708 707 704
f 704 706 708
f 707 608 703
f 707 608 703
f 613 703 608
f 613 703 608
f 707 708 709
f 707 708 709
f 709 603 707
f 608 707 603
f 709 603 707
f 608 707 603
f 710 709 708
f 710 709 708
f 711 708 706
f 708 711 710
f 711 708 706
f 708 711 710
f 706 409 711
f 706 409 711
f 409 706 411
f 409 706 411
f 363 711 409
f 363 711 409
f 361 710 711
f 711 363 361
f 361 710 711
f 711 363 361
f 709 710 354
f 709 710 354
f 355 354 710
f 710 361 355
f 355 354 710
f 710 361 355
f 354 358 709
f 354 358 709
f 603 709 358
f 603 709 358
f 712 713 714
f 712 713 714
f 714 576 712
f 577 712 576
f 714 576 712
f 577 712 576
f 715 714 713
f 715 714 713
f 716 713 717
f 713 716 715
f 716 713 717
f 713 716 715
f 717 445 716
f 717 445 716
f 445 717 447
f 445 717 447
f 443 716 445
f 443 716 445
f 718 715 716
f 716 443 718
f 718 715 716
f 716 443 718
f 714 715 719
f 714 715 719
f 720 719 715
f 715 718 720
f 720 719 715
f 715 718 720
f 719 575 714
f 719 575 714
f 576 714 575
f 576 714 575
f 719 720 721
f 719 720 721
f 721 574 719
f 575 719 574
f 721 574 719
f 575 719 574
f 722 721 720
f 722 721 720
f 723 720 718
f 720 723 722
f 723 720 718
f 720 723 722
f 718 441 723
f 718 441 723
f 441 718 443
f 441 718 443
f 439 723 441
f 439 723 441
f 724 722 723
f 723 439 724
f 724 722 723
f 723 439 724
f 721 722 725
f 721 722 725
f 726 725 722
f 722 724 726
f 726 725 722
f 722 724 726
f 725 573 721
f 725 573 721
f 574 721 573
f 574 721 573
f 725 726 727
f 725 726 727
f 727 572 725
f 573 725 572
f 727 572 725
f 573 725 572
f 728 727 726
f 728 727 726
f 729 726 724
f 726 729 728
f 729 726 724
f 726 729 728
f 724 437 729
f 724 437 729
f 437 724 439
f 437 724 439
f 435 729 437
f 435 729 437
f 730 728 729
f 729 435 730
f 730 728 729
f 729 435 730
f 727 728 731
f 727 728 731
f 732 731 728
f 728 730 732
f 732 731 728
f 728 730 732
f 731 571 727
f 731 571 727
f 572 727 571
f 572 727 571
f 731 732 733
f 731 732 733
f 733 570 731
f 571 731 570
f 733 570 731
f 571 731 570
f 734 733 732
f 734 733 732
f 735 732 730
f 732 735 734
f 735 732 730
f 732 735 734
f 730 433 735
f 730 433 735
f 433 730 435
f 433 730 435
f 431 735 433
f 431 735 433
f 736 734 735
f 735 431 736
f 736 734 735
f 735 431 736
f 733 734 737
f 733 734 737
f 738 737 734
f 734 736 738
f 738 737 734
f 734 736 738
f 737 569 733
f 737 569 733
f 570 733 569
f 570 733 569
f 737 738 739
f 737 738 739
f 739 568 737
f 569 737 568
f 739 568 737
f 569 737 568
f 740 739 738
f 740 739 738
f 741 738 736
f 738 741 740
f 741 738 736
f 738 741 740
f 736 429 741
f 736 429 741
f 429 736 431
f 429 736 431
f 427 741 429
f 427 741 429
f 742 740 741
f 741 427 742
f 742 740 741
f 741 427 742
f 739 740 743
f 739 740 743
f 744 743 740
f 740 742 744
f 744 743 740
f 740 742 744
f 743 567 739
f 743 567 739
f 568 739 567
f 568 739 567
f 743 744 745
f 743 744 745
f 745 642 743
f 567 743 642
f 745 642 743
f 567 743 642
f 746 745 744
f 746 745 744
f 747 744 742
f 744 747 746
f 747 744 742
f 744 747 746
f 742 425 747
f 742 425 747
f 425 742 427
f 425 742 427
f 423 747 425
f 423 747 425
f 748 746 747
f 747 423 748
f 748 746 747
f 747 423 748
f 745 746 749
f 745 746 749
f 750 749 746
f 746 748 750
f 750 749 746
f 746 748 750
f 749 641 745
f 749 641 745
f 642 745 641
f 642 745 641
f 749 750 751
f 749 750 751
f 751 633 749
f 641 749 633
f 751 633 749
f 641 749 633
f 752 751 750
f 752 751 750
f 753 750 748
f 750 753 752
f 753 750 748
f 750 753 752
f 748 421 753
f 748 421 753
f 421 748 423
f 421 748 423
f 419 753 421
f 419 753 421
f 696 752 753
f 753 419 696
f 696 752 753
f 753 419 696
f 751 752 754
f 751 752 754
f 755 754 752
f 752 696 755
f 755 754 752
f 752 696 755
f 754 628 751
f 754 628 751
f 633 751 628
f 633 751 628
f 754 755 700
f 754 755 700
f 700 623 754
f 628 754 623
f 700 623 754
f 628 754 623
f 699 700 755
f 699 700 755
f 697 755 696
f 755 697 699
f 697 755 696
f 755 697 699
f 346 391 353
f 346 391 353
f 391 346 345
f 391 346 345
f 394 353 391
f 394 353 391
f 756 352 353
f 353 394 756
f 756 352 353
f 353 394 756
f 350 352 757
f 350 352 757
f 758 757 352
f 352 756 758
f 758 757 352
f 352 756 758
f 757 581 350
f 757 581 350
f 351 350 581
f 351 350 581
f 757 758 759
f 757 758 759
f 759 580 757
f 581 757 580
f 759 580 757
f 581 757 580
f 760 759 758
f 760 759 758
f 761 758 756
f 758 761 760
f 761 758 756
f 758 761 760
f 756 453 761
f 756 453 761
f 453 756 394
f 453 756 394
f 451 761 453
f 451 761 453
f 762 760 761
f 761 451 762
f 762 760 761
f 761 451 762
f 759 760 763
f 759 760 763
f 764 763 760
f 760 762 764
f 764 763 760
f 760 762 764
f 763 579 759
f 763 579 759
f 580 759 579
f 580 759 579
f 763 764 765
f 763 764 765
f 765 578 763
f 579 763 578
f 765 578 763
f 579 763 578
f 766 765 764
f 766 765 764
f 767 764 762
f 764 767 766
f 767 764 762
f 764 767 766
f 762 449 767
f 762 449 767
f 449 762 451
f 449 762 451
f 447 767 449
f 447 767 449
f 717 766 767
f 767 447 717
f 717 766 767
f 767 447 717
f 765 766 712
f 765 766 712
f 713 712 766
f 766 717 713
f 713 712 766
f 766 717 713
f 712 577 765
f 712 577 765
f 578 765 577
f 578 765 577
