v -0.16207315 0.0190978944 0.0525274836
v -0.162073091 0.0190906823 0.0557644926
v -0.16210486 0.0234962404 0.0557742678
v -0.16210489 0.0235034525 0.0525372587
v -0.15763022 0.0235278904 0.0551297627
v -0.15763025 0.0235322416 0.0531817637
v -0.157599255 0.0192356408 0.053172227
v -0.157599226 0.0192313492 0.055120226
v -0.153353348 0.0191607177 0.0525274836
v -0.153353289 0.0191535652 0.0557644926
v -0.153385058 0.0235591233 0.0557742678
v -0.153385118 0.0235662758 0.0525372587
v -0.149195179 0.0235886872 0.0551297627
v -0.149195209 0.0235930383 0.0531817637
v -0.149164245 0.0192964971 0.053172227
v -0.149164215 0.019292146 0.055120226
v -0.144923851 0.0192215145 0.0525274836
v -0.144923791 0.0192143023 0.0557644926
v -0.144955561 0.0236198604 0.0557742678
v -0.14495562 0.0236270726 0.0525372587
v -0.140496746 0.0236513913 0.0551297627
v -0.140496776 0.0236557424 0.0531817637
v -0.140465811 0.0193591416 0.053172227
v -0.140465781 0.0193548501 0.055120226
v -0.16210489 0.0235034525 0.0525372587
v -0.16210486 0.0234962404 0.0557742678
v -0.161890939 0.0236259997 0.0555597506
v -0.161890998 0.0236322582 0.0527523719
v -0.157416299 0.0236587226 0.0553448759
v -0.157416359 0.0236640275 0.052967187
v -0.15763025 0.0235322416 0.0531817637
v -0.15763022 0.0235278904 0.0551297627
v -0.153385118 0.0235662758 0.0525372587
v -0.153385058 0.0235591233 0.0557742678
v -0.153171137 0.0236888826 0.0555597506
v -0.153171197 0.0236950815 0.0527523719
v -0.148981288 0.0237195194 0.0553448759
v -0.148981318 0.0237248242 0.052967187
v -0.149195209 0.0235930383 0.0531817637
v -0.149195179 0.0235886872 0.0551297627
v 0.162690654 -0.177625149 0.061841961
v 0.16178526 -0.177620262 0.0567076765
v 0.1620446 -0.177154392 0.0570137464
v 0.162829831 -0.177158684 0.0614665113
v -0.14495562 0.0236270726 0.0525372587
v -0.144955561 0.0236198604 0.0557742678
v -0.144741639 0.0237496197 0.0555597506
v -0.144741699 0.0237558782 0.0527523719
v -0.140282854 0.0237822235 0.0553448759
v -0.140282884 0.0237875283 0.052967187
v -0.140496776 0.0236557424 0.0531817637
v -0.140496746 0.0236513913 0.0551297627
v 0.162035182 -0.167511612 0.0573759042
v 0.162700191 -0.167515188 0.0611472093
v 0.162437633 -0.167981058 0.0608417355
v 0.161892787 -0.167978138 0.0577519499
v 0.163731828 -0.16179356 0.064089179
v 0.162309662 -0.161785871 0.0560241304
v 0.162717059 -0.161054164 0.0565049015
v 0.163950458 -0.16106084 0.0634994507
v 0.162708893 -0.146820575 0.0570718013
v 0.163753524 -0.146826237 0.062995851
v 0.16334106 -0.147558004 0.062515974
v 0.162485197 -0.147553355 0.0576624237
v 0.162423566 -0.140570253 0.0619243942
v 0.161518171 -0.140565366 0.0567900501
v 0.161777511 -0.140099555 0.05709612
v 0.162562743 -0.140103787 0.0615489446
v 0.161767855 -0.130422503 0.057458397
v 0.162432864 -0.130426079 0.0612297021
v 0.162170306 -0.130891949 0.0609242283
v 0.16162546 -0.130889028 0.0578344427
v 0.162206128 -0.110407442 0.0619914494
v 0.161300793 -0.110402554 0.0568571053
v 0.161560133 -0.109936744 0.0571631752
v 0.162345305 -0.109940976 0.0616159998
v 0.155702904 -0.177678257 0.0630741119
v 0.154797569 -0.17767331 0.0579398237
v 0.16178526 -0.177620262 0.0567076765
v 0.162690654 -0.177625149 0.061841961
v 0.161550716 -0.100293905 0.0575253926
v 0.162215725 -0.10029754 0.0612966977
v 0.161953166 -0.10076341 0.0609911643
v 0.16140832 -0.10076043 0.0579013787
v 0.162070528 -0.0915952027 0.0620332323
v 0.161165193 -0.0915903151 0.0568989478
v 0.161424533 -0.0911245048 0.0572050177
v 0.162209705 -0.0911287367 0.0616578422
v 0.161892787 -0.167978138 0.0577519499
v 0.162437633 -0.167981058 0.0608417355
v 0.155622795 -0.168032855 0.0620433651
v 0.155077949 -0.168029934 0.0589535795
v 0.161419287 -0.0820632875 0.0575659238
v 0.162084356 -0.0820668638 0.0613372289
v 0.161821738 -0.0825327337 0.0610316955
v 0.161276892 -0.0825298131 0.0579419099
v 0.16193904 -0.0733526051 0.0620738231
v 0.161033705 -0.0733477175 0.0569395386
v 0.161293045 -0.0728818476 0.0572456084
v 0.162078217 -0.0728861392 0.0616983734
v 0.162717059 -0.161054164 0.0565049015
v 0.162609234 -0.146090239 0.0565381609
v 0.162708893 -0.146820575 0.0570718013
v 0.163753524 -0.146826237 0.062995851
v 0.162806228 -0.160324842 0.0570417605
v 0.163842633 -0.146096915 0.0635327101
v 0.163850859 -0.160330504 0.0629658103
v 0.163950458 -0.16106084 0.0634994507
v 0.161560133 -0.109936744 0.0571631752
v 0.161487296 -0.0998289883 0.0571856461
v 0.161550716 -0.100293905 0.0575253926
v 0.162215725 -0.10029754 0.0612966977
v 0.161616877 -0.109472424 0.0575049482
v 0.162272468 -0.0998332202 0.0616384707
v 0.162281886 -0.10947606 0.0612762533
v 0.162345305 -0.109940976 0.0616159998
v 0.161424533 -0.0911245048 0.0572050177
v 0.161355868 -0.0815983713 0.0572261773
v 0.161419287 -0.0820632875 0.0575659238
v 0.162084356 -0.0820668638 0.0613372289
v 0.161481276 -0.0906601846 0.0575467907
v 0.1621411 -0.0816026032 0.0616790019
v 0.162146285 -0.0906638205 0.0613180958
v 0.162209705 -0.0911287367 0.0616578422
v 0.161293045 -0.0728818476 0.0572456084
v 0.161219969 -0.0627398789 0.057268139
v 0.161283389 -0.0632047951 0.0576078855
v 0.161948398 -0.063208431 0.0613791309
v 0.161349788 -0.072417587 0.0575873815
v 0.162005141 -0.0627441108 0.0617209636
v 0.162014797 -0.0724211633 0.0613586865
v 0.162078217 -0.0728861392 0.0616983734
v 0.1620446 -0.177154392 0.0570137464
v 0.161971763 -0.167046696 0.0570362173
v 0.162035182 -0.167511612 0.0573759042
v 0.162700191 -0.167515188 0.0611472093
v 0.162101343 -0.176690131 0.0573555194
v 0.162756935 -0.167050928 0.0614889823
v 0.162766352 -0.176693708 0.0611267649
v 0.162829831 -0.177158684 0.0614665113
v 0.161777511 -0.140099555 0.05709612
v 0.161704436 -0.129957587 0.0571187101
v 0.161767855 -0.130422503 0.057458397
v 0.162432864 -0.130426079 0.0612297021
v 0.161834255 -0.139635295 0.057437893
v 0.162489608 -0.129961818 0.0615714751
v 0.162499264 -0.139638871 0.0612091981
v 0.162562743 -0.140103787 0.0615489446
v 0.152755395 -0.161877006 0.0660246611
v 0.151333228 -0.161869317 0.0579596125
v 0.162309662 -0.161785871 0.0560241304
v 0.163731828 -0.16179356 0.064089179
v 0.161283389 -0.0632047951 0.0576078855
v 0.161948398 -0.063208431 0.0613791309
v 0.161685839 -0.0636742413 0.0610736571
v 0.161140993 -0.0636713207 0.0579838715
v 0.163613454 -0.145370036 0.0641257167
v 0.163731828 -0.16179356 0.064089179
v 0.163950458 -0.16106084 0.0634994507
v 0.163842633 -0.146096915 0.0635327101
v 0.162126616 -0.0993705094 0.062015947
v 0.162206128 -0.110407442 0.0619914494
v 0.162345305 -0.109940976 0.0616159998
v 0.162272468 -0.0998332202 0.0616384707
v 0.161995187 -0.0811398327 0.0620565377
v 0.162070528 -0.0915952027 0.0620332323
v 0.162209705 -0.0911287367 0.0616578422
v 0.1621411 -0.0816026032 0.0616790019
v 0.161859289 -0.0622814 0.0620984398
v 0.16193904 -0.0733526051 0.0620738231
v 0.162078217 -0.0728861392 0.0616983734
v 0.162005141 -0.0627441108 0.0617209636
v 0.162611082 -0.166588157 0.0618665181
v 0.162690654 -0.177625149 0.061841961
v 0.162829831 -0.177158684 0.0614665113
v 0.162756935 -0.167050928 0.0614889823
v 0.162343755 -0.129499048 0.0619490109
v 0.162423566 -0.140570253 0.0619243942
v 0.162562743 -0.140103787 0.0615489446
v 0.162489608 -0.129961818 0.0615714751
v 0.162806228 -0.160324842 0.0570417605
v 0.162708893 -0.146820575 0.0570718013
v 0.162485197 -0.147553355 0.0576624237
v 0.162571982 -0.159597963 0.0576356612
v 0.161616877 -0.109472424 0.0575049482
v 0.161550716 -0.100293905 0.0575253926
v 0.16140832 -0.10076043 0.0579013787
v 0.161467746 -0.109009713 0.0578830205
v 0.161481276 -0.0906601846 0.0575467907
v 0.161419287 -0.0820632875 0.0575659238
v 0.161276892 -0.0825298131 0.0579419099
v 0.161332145 -0.0901974738 0.057924863
v 0.161349788 -0.072417587 0.0575873815
v 0.161283389 -0.0632047951 0.0576078855
v 0.161140993 -0.0636713207 0.0579838715
v 0.161200717 -0.0719548762 0.0579654537
v 0.162101343 -0.176690131 0.0573555194
v 0.162035182 -0.167511612 0.0573759042
v 0.161892787 -0.167978138 0.0577519499
v 0.161952272 -0.176227421 0.0577335916
v 0.161834255 -0.139635295 0.057437893
v 0.161767855 -0.130422503 0.057458397
v 0.16162546 -0.130889028 0.0578344427
v 0.161685184 -0.139172524 0.0578159653
v 0.162485197 -0.147553355 0.0576624237
v 0.16334106 -0.147558004 0.062515974
v 0.152636126 -0.147639364 0.0644035339
v 0.151780263 -0.147634715 0.0595500432
v 0.160953894 -0.0622764528 0.0569641553
v 0.161859289 -0.0622814 0.0620984398
v 0.162005141 -0.0627441108 0.0617209636
v 0.161219969 -0.0627398789 0.057268139
v 0.162309662 -0.161785871 0.0560241304
v 0.162191287 -0.145362347 0.0560606085
v 0.162609234 -0.146090239 0.0565381609
v 0.162717059 -0.161054164 0.0565049015
v 0.161518171 -0.140565366 0.0567900501
v 0.161438361 -0.12949416 0.0568146668
v 0.161704436 -0.129957587 0.0571187101
v 0.161777511 -0.140099555 0.05709612
v 0.161300793 -0.110402554 0.0568571053
v 0.161221221 -0.0993656218 0.0568816625
v 0.161487296 -0.0998289883 0.0571856461
v 0.161560133 -0.109936744 0.0571631752
v 0.161165193 -0.0915903151 0.0568989478
v 0.161089793 -0.0811349452 0.0569221936
v 0.161355868 -0.0815983713 0.0572261773
v 0.161424533 -0.0911245048 0.0572050177
v 0.161033705 -0.0733477175 0.0569395386
v 0.160953894 -0.0622764528 0.0569641553
v 0.161219969 -0.0627398789 0.057268139
v 0.161293045 -0.0728818476 0.0572456084
v 0.16178526 -0.177620262 0.0567076765
v 0.161705688 -0.16658327 0.0567322336
v 0.161971763 -0.167046696 0.0570362173
v 0.1620446 -0.177154392 0.0570137464
v 0.162014797 -0.0724211633 0.0613586865
v 0.161349788 -0.072417587 0.0575873815
v 0.161200717 -0.0719548762 0.0579654537
v 0.161745563 -0.0719577968 0.0610552393
v 0.155435875 -0.140623361 0.0631565452
v 0.154530481 -0.140618473 0.0580221973
v 0.161518171 -0.140565366 0.0567900501
v 0.162423566 -0.140570253 0.0619243942
v 0.162215725 -0.10029754 0.0612966977
v 0.162281886 -0.10947606 0.0612762533
v 0.162012592 -0.109012634 0.0609728061
v 0.161953166 -0.10076341 0.0609911643
v 0.162084356 -0.0820668638 0.0613372289
v 0.162146285 -0.0906638205 0.0613180958
v 0.161877051 -0.0902003944 0.0610146485
v 0.161821738 -0.0825327337 0.0610316955
v 0.161948398 -0.063208431 0.0613791309
v 0.162014797 -0.0724211633 0.0613586865
v 0.161745563 -0.0719577968 0.0610552393
v 0.161685839 -0.0636742413 0.0610736571
v 0.162700191 -0.167515188 0.0611472093
v 0.162766352 -0.176693708 0.0611267649
v 0.162497118 -0.176230341 0.0608233772
v 0.162437633 -0.167981058 0.0608417355
v 0.162432864 -0.130426079 0.0612297021
v 0.162499264 -0.139638871 0.0612091981
v 0.16223003 -0.139175504 0.0609057508
v 0.162170306 -0.130891949 0.0609242283
v 0.163753524 -0.146826237 0.062995851
v 0.163850859 -0.160330504 0.0629658103
v 0.163427845 -0.159602612 0.0624891482
v 0.16334106 -0.147558004 0.062515974
v 0.161089793 -0.0811349452 0.0569221936
v 0.161995187 -0.0811398327 0.0620565377
v 0.1621411 -0.0816026032 0.0616790019
v 0.161355868 -0.0815983713 0.0572261773
v 0.162146285 -0.0906638205 0.0613180958
v 0.161481276 -0.0906601846 0.0575467907
v 0.161332145 -0.0901974738 0.057924863
v 0.161877051 -0.0902003944 0.0610146485
v 0.161221221 -0.0993656218 0.0568816625
v 0.162126616 -0.0993705094 0.062015947
v 0.162272468 -0.0998332202 0.0616384707
v 0.161487296 -0.0998289883 0.0571856461
v 0.16162546 -0.130889028 0.0578344427
v 0.162170306 -0.130891949 0.0609242283
v 0.155355468 -0.130943745 0.0621258579
v 0.154810622 -0.130940765 0.0590360723
v 0.162281886 -0.10947606 0.0612762533
v 0.161616877 -0.109472424 0.0575049482
v 0.161467746 -0.109009713 0.0578830205
v 0.162012592 -0.109012634 0.0609728061
v 0.161438361 -0.12949416 0.0568146668
v 0.162343755 -0.129499048 0.0619490109
v 0.162489608 -0.129961818 0.0615714751
v 0.161704436 -0.129957587 0.0571187101
v -0.140068069 0.0237895548 0.0527523719
v -0.144741699 0.0237558782 0.0527523719
v -0.144526854 0.0237569511 0.052967187
v -0.144526824 0.0237516463 0.0553448759
v -0.140282884 0.0237875283 0.052967187
v -0.144741639 0.0237496197 0.0555597506
v -0.140282854 0.0237822235 0.0553448759
v -0.140068039 0.0237832963 0.0555597506
v -0.148766503 0.0237268507 0.0527523719
v -0.153171197 0.0236950815 0.0527523719
v -0.152956352 0.0236961544 0.052967187
v -0.152956322 0.0236909091 0.0553448759
v -0.148981318 0.0237248242 0.052967187
v -0.153171137 0.0236888826 0.0555597506
v -0.148981288 0.0237195194 0.0553448759
v -0.148766443 0.0237205923 0.0555597506
v -0.157201514 0.023666054 0.0527523719
v -0.161890998 0.0236322582 0.0527523719
v -0.161676154 0.0236333311 0.052967187
v -0.161676124 0.0236280262 0.0553448759
v -0.157416359 0.0236640275 0.052967187
v -0.161890939 0.0236259997 0.0555597506
v -0.157416299 0.0236587226 0.0553448759
v -0.157201484 0.0236597955 0.0555597506
v -0.13985233 0.0236638486 0.0525372587
v -0.14495562 0.0236270726 0.0525372587
v -0.144741699 0.0237558782 0.0527523719
v -0.140068069 0.0237895548 0.0527523719
v -0.148550734 0.0236011446 0.0525372587
v -0.153385118 0.0235662758 0.0525372587
v -0.153171197 0.0236950815 0.0527523719
v -0.148766503 0.0237268507 0.0527523719
v -0.156985775 0.0235403478 0.0525372587
v -0.16210489 0.0235034525 0.0525372587
v -0.161890998 0.0236322582 0.0527523719
v -0.157201514 0.023666054 0.0527523719
v -0.144526824 0.0237516463 0.0553448759
v -0.140282854 0.0237822235 0.0553448759
v -0.140496746 0.0236513913 0.0551297627
v -0.144311056 0.0236239135 0.0551297627
v -0.152956322 0.0236909091 0.0553448759
v -0.148981288 0.0237195194 0.0553448759
v -0.149195179 0.0235886872 0.0551297627
v -0.152740553 0.0235631168 0.0551297627
v -0.161676124 0.0236280262 0.0553448759
v -0.157416299 0.0236587226 0.0553448759
v -0.15763022 0.0235278904 0.0551297627
v -0.161460355 0.0235002935 0.0551297627
v 0.162499264 -0.139638871 0.0612091981
v 0.161834255 -0.139635295 0.057437893
v 0.161685184 -0.139172524 0.0578159653
v 0.16223003 -0.139175504 0.0609057508
v 0.162191287 -0.145362347 0.0560606085
v 0.163613454 -0.145370036 0.0641257167
v 0.163842633 -0.146096915 0.0635327101
v 0.162609234 -0.146090239 0.0565381609
v 0.155218437 -0.11046055 0.0632236004
v 0.154313043 -0.110455662 0.0580892526
v 0.161300793 -0.110402554 0.0568571053
v 0.162206128 -0.110407442 0.0619914494
v 0.163850859 -0.160330504 0.0629658103
v 0.162806228 -0.160324842 0.0570417605
v 0.162571982 -0.159597963 0.0576356612
v 0.163427845 -0.159602612 0.0624891482
v 0.161705688 -0.16658327 0.0567322336
v 0.162611082 -0.166588157 0.0618665181
v 0.162756935 -0.167050928 0.0614889823
v 0.161971763 -0.167046696 0.0570362173
v 0.16140832 -0.10076043 0.0579013787
v 0.161953166 -0.10076341 0.0609911643
v 0.155138329 -0.100815147 0.0621928535
v 0.154593483 -0.100812227 0.059103068
v -0.144955561 0.0236198604 0.0557742678
v -0.13985227 0.0236566365 0.0557742678
v -0.140068039 0.0237832963 0.0555597506
v -0.144741639 0.0237496197 0.0555597506
v -0.153385058 0.0235591233 0.0557742678
v -0.148550704 0.0235939324 0.0557742678
v -0.148766443 0.0237205923 0.0555597506
v -0.153171137 0.0236888826 0.0555597506
v -0.16210486 0.0234962404 0.0557742678
v -0.156985715 0.0235331357 0.0557742678
v -0.157201484 0.0236597955 0.0555597506
v -0.161890939 0.0236259997 0.0555597506
v -0.140282884 0.0237875283 0.052967187
v -0.144526854 0.0237569511 0.052967187
v -0.144311085 0.0236282647 0.0531817637
v -0.140496776 0.0236557424 0.0531817637
v -0.148981318 0.0237248242 0.052967187
v -0.152956352 0.0236961544 0.052967187
v -0.152740583 0.0235674679 0.0531817637
v -0.149195209 0.0235930383 0.0531817637
v -0.157416359 0.0236640275 0.052967187
v -0.161676154 0.0236333311 0.052967187
v -0.161460385 0.0235046446 0.0531817637
v -0.15763025 0.0235322416 0.0531817637
v 0.162766352 -0.176693708 0.0611267649
v 0.162101343 -0.176690131 0.0573555194
v 0.161952272 -0.176227421 0.0577335916
v 0.162497118 -0.176230341 0.0608233772
v 0.155082837 -0.0916483104 0.0632653832
v 0.154177502 -0.0916434228 0.058131095
v 0.161165193 -0.0915903151 0.0568989478
v 0.162070528 -0.0915952027 0.0620332323
v 0.161276892 -0.0825298131 0.0579419099
v 0.161821738 -0.0825327337 0.0610316955
v 0.1550069 -0.0825845301 0.0622333847
v 0.154462054 -0.0825815499 0.0591435991
v 0.154951349 -0.0734057128 0.063305974
v 0.154046014 -0.0734008253 0.0581716858
v 0.161033705 -0.0733477175 0.0569395386
v 0.16193904 -0.0733526051 0.0620738231
v -0.139820561 0.0192582905 0.0525274836
v -0.144923851 0.0192215145 0.0525274836
v -0.14495562 0.0236270726 0.0525372587
v -0.13985233 0.0236638486 0.0525372587
v -0.148518994 0.0191955864 0.0525274836
v -0.153353348 0.0191607177 0.0525274836
v -0.153385118 0.0235662758 0.0525372587
v -0.148550734 0.0236011446 0.0525372587
v -0.156954035 0.0191347897 0.0525274836
v -0.16207315 0.0190978944 0.0525274836
v -0.16210489 0.0235034525 0.0525372587
v -0.156985775 0.0235403478 0.0525372587
v 0.161140993 -0.0636713207 0.0579838715
v 0.161685839 -0.0636742413 0.0610736571
v 0.154871002 -0.0637260377 0.0622753464
v 0.154326156 -0.0637231171 0.0591855608
v -0.144311056 0.0236239135 0.0551297627
v -0.140496746 0.0236513913 0.0551297627
v -0.140465781 0.0193548501 0.055120226
v -0.144280091 0.0193273723 0.055120226
v -0.152740553 0.0235631168 0.0551297627
v -0.149195179 0.0235886872 0.0551297627
v -0.149164215 0.019292146 0.055120226
v -0.152709588 0.0192665756 0.055120226
v -0.161460355 0.0235002935 0.0551297627
v -0.15763022 0.0235278904 0.0551297627
v -0.157599226 0.0192313492 0.055120226
v -0.16142939 0.0192037523 0.055120226
v 0.15263702 -0.145453423 0.0660611987
v 0.152755395 -0.161877006 0.0660246611
v 0.163731828 -0.16179356 0.064089179
v 0.163613454 -0.145370036 0.0641257167
v 0.155138865 -0.0994236171 0.0632480979
v 0.155218437 -0.11046055 0.0632236004
v 0.162206128 -0.110407442 0.0619914494
v 0.162126616 -0.0993705094 0.062015947
v 0.155007496 -0.0811929405 0.0632886887
v 0.155082837 -0.0916483104 0.0632653832
v 0.162070528 -0.0915952027 0.0620332323
v 0.161995187 -0.0811398327 0.0620565377
v 0.154871538 -0.0623344481 0.0633305907
v 0.154951349 -0.0734057128 0.063305974
v 0.16193904 -0.0733526051 0.0620738231
v 0.161859289 -0.0622814 0.0620984398
v 0.155623391 -0.166641265 0.0630986691
v 0.155702904 -0.177678257 0.0630741119
v 0.162690654 -0.177625149 0.061841961
v 0.162611082 -0.166588157 0.0618665181
v 0.155356064 -0.129552156 0.0631811619
v 0.155435875 -0.140623361 0.0631565452
v 0.162423566 -0.140570253 0.0619243942
v 0.162343755 -0.129499048 0.0619490109
v 0.161467746 -0.109009713 0.0578830205
v 0.16140832 -0.10076043 0.0579013787
v 0.154593483 -0.100812227 0.059103068
v 0.154652908 -0.109061509 0.0590847097
v 0.161332145 -0.0901974738 0.057924863
v 0.161276892 -0.0825298131 0.0579419099
v 0.154462054 -0.0825815499 0.0591435991
v 0.154517367 -0.0902492702 0.0591265522
v 0.161200717 -0.0719548762 0.0579654537
v 0.161140993 -0.0636713207 0.0579838715
v 0.154326156 -0.0637231171 0.0591855608
v 0.15438588 -0.0720066726 0.059167143
v 0.161952272 -0.176227421 0.0577335916
v 0.161892787 -0.167978138 0.0577519499
v 0.155077949 -0.168029934 0.0589535795
v 0.155137435 -0.176279157 0.0589352213
v 0.162571982 -0.159597963 0.0576356612
v 0.162485197 -0.147553355 0.0576624237
v 0.151780263 -0.147634715 0.0595500432
v 0.151867107 -0.159679323 0.0595232807
v 0.161685184 -0.139172524 0.0578159653
v 0.16162546 -0.130889028 0.0578344427
v 0.154810622 -0.130940765 0.0590360723
v 0.154870346 -0.139224321 0.0590176545
v 0.0284349546 -0.0424447358 0.0797561407
v 0.0252297148 -0.0424678028 0.0797561407
v 0.02567067 -0.044067353 0.0797525644
v 0.0254358277 -0.0442050397 0.0796792507
v 0.0268523321 -0.0452320874 0.0797499418
v 0.026717864 -0.0454687774 0.0796764493
v 0.0284600481 -0.0459221303 0.079675436
v 0.0284580812 -0.0456499159 0.0797489882
v 0.0284614787 -0.0461210907 0.0794755816
v 0.0266193971 -0.0456416905 0.0794766545
v 0.0249573812 -0.0424695909 0.079683125
v 0.025647603 -0.0408621132 0.079759717
v 0.0252638683 -0.0443055332 0.0794796944
v 0.0284619555 -0.0461934507 0.0792030692
v 0.0265833959 -0.0457045734 0.0792041421
v 0.0284619555 -0.0461907089 0.0779694915
v 0.0303333029 -0.0456747711 0.077970624
v 0.0303333029 -0.0456775129 0.0792041421
v 0.0302964076 -0.045615226 0.0794766545
v 0.0301954374 -0.0454436839 0.0796764493
v 0.0300575718 -0.0452089608 0.0797499418
v 0.0314591751 -0.0441616476 0.0796792507
v 0.0312223062 -0.0440272987 0.0797525644
v 0.031632565 -0.0442596376 0.0794796944
v 0.0316960439 -0.0442950428 0.0792072415
v 0.0466761217 -0.0364923179 0.0797690749
v 0.0417709574 -0.0365276635 0.0797690749
v 0.0424458012 -0.038975507 0.0797635913
v 0.0422108993 -0.0391131938 0.0796903372
v 0.0442541465 -0.0407579839 0.0797595978
v 0.0441196784 -0.040994674 0.0796861053
v 0.0467134342 -0.0416696966 0.0796845555
v 0.0467114672 -0.0413974822 0.0797581673
v 0.0467148647 -0.0418685973 0.0794847608
v 0.0440212116 -0.041167587 0.0794863701
v 0.0414985642 -0.0365294516 0.0796960592
v 0.0424104556 -0.0340703428 0.0797744989
v 0.0420389399 -0.0392136872 0.0794907212
v 0.0467154011 -0.0419409573 0.0792121887
v 0.0439852104 -0.0412304699 0.0792138577
v 0.0467154011 -0.0419382155 0.0779786706
v 0.0494351014 -0.0411884487 0.0779802799
v 0.0494351014 -0.0411911905 0.0792138577
v 0.0493981466 -0.041128844 0.0794863701
v 0.0492972359 -0.0409573615 0.0796861053
v 0.0491593108 -0.0407226384 0.0797595978
v 0.0511786565 -0.0390485823 0.0796903372
v 0.0509418473 -0.0389142931 0.0797635913
v 0.0513520464 -0.0391465724 0.0794907212
v 0.0514155254 -0.0391820371 0.0792182684
v 0.0395407304 -0.0152072608 0.0798165202
v 0.0346355662 -0.0152426064 0.0798165202
v 0.03531041 -0.01769045 0.0798110366
v 0.0350755081 -0.0178281367 0.0797377825
v 0.0371187553 -0.0194729269 0.0798070431
v 0.0369842872 -0.0197096169 0.0797335505
v 0.0395780429 -0.0203845799 0.0797320008
v 0.039576076 -0.0201124251 0.0798056126
v 0.0395794734 -0.0205835402 0.0795322061
v 0.0368858203 -0.01988253 0.0795338154
v 0.0343631729 -0.0152443945 0.0797435045
v 0.0352750644 -0.0127852857 0.0798219442
v 0.0349035487 -0.0179286301 0.0795381665
v 0.0395800099 -0.0206559002 0.079259634
v 0.0368497595 -0.0199454129 0.0792613029
v 0.0395799503 -0.0206531584 0.0780261159
v 0.0422996506 -0.0199033916 0.0780277252
v 0.0422997102 -0.0199061334 0.0792613029
v 0.0422627553 -0.019843787 0.0795338154
v 0.0421618447 -0.0196723044 0.0797335505
v 0.0420239195 -0.0194375813 0.0798070431
v 0.0440432653 -0.0177635252 0.0797377825
v 0.0438063964 -0.0176291764 0.0798110366
v 0.0442166552 -0.0178615153 0.0795381665
v 0.0442801341 -0.01789698 0.0792657137
v 0.0442800745 -0.0178942382 0.078032136
v 0.0449906215 -0.0151639879 0.0780382156
v 0.0449906215 -0.0151667297 0.0792717934
v 0.0449176654 -0.0151678622 0.079544127
v 0.0447182879 -0.0151697695 0.0797435045
v 0.0444458947 -0.0151718557 0.0798165202
v 0.0440059528 -0.0125859678 0.0797492862
v 0.0437710509 -0.0127240121 0.0798219442
v 0.0441779122 -0.0124846399 0.0795501471
v 0.0442408547 -0.012447089 0.0792778134
v 0.0442407951 -0.0124443471 0.0780442953
v 0.0422316417 -0.0104639232 0.0780487061
v 0.0422316417 -0.010466665 0.0792822838
v 0.0421956405 -0.01053074 0.0795544982
v 0.0420971736 -0.0107045472 0.0797535181
v 0.0419627056 -0.0109415352 0.0798259377
v 0.0395034179 -0.0100295246 0.0797550678
v 0.0395053849 -0.0103020966 0.0798274279
v 0.0370575413 -0.0109769404 0.0798259377
v 0.0369196162 -0.0107418597 0.0797535181
v 0.0350381956 -0.0126506388 0.0797492862
v 0.0395019874 -0.0098297298 0.0795561075
v 0.0368187055 -0.010569483 0.0795544982
v 0.0348648056 -0.0125517547 0.0795501471
v 0.0341637954 -0.0152454078 0.079544127
v 0.0348406062 -0.0179649889 0.0792657137
v 0.0340907797 -0.0152452886 0.0792717934
v 0.0348013267 -0.0125150979 0.0792778134
v 0.0367817506 -0.0105059445 0.0792822838
v 0.0368497595 -0.0199426711 0.0780277252
v 0.0348406062 -0.0179622471 0.078032136
v 0.0340907797 -0.0152425468 0.0780382156
v 0.0348012671 -0.012512356 0.0780442953
v 0.039501451 -0.00975611806 0.0792838931
v 0.0395013914 -0.00975337625 0.0780503154
v 0.0367817506 -0.0105032027 0.0780487061
v 0.0395019278 -0.00982573628 0.0777778029
v 0.0368186459 -0.0105654895 0.0777761936
v 0.0421955809 -0.0105267465 0.0777761936
v 0.034864746 -0.0125477612 0.0777718425
v 0.0341637358 -0.0152414143 0.0777658224
v 0.0441778526 -0.0124806464 0.0777718425
v 0.0349034891 -0.0179246962 0.0777598619
v 0.0368858203 -0.0198785961 0.0777555108
v 0.0449176058 -0.0151639283 0.0777658224
v 0.0395794734 -0.0205796063 0.0777539015
v 0.0422626957 -0.019839853 0.0777555108
v 0.0442166552 -0.0178575814 0.0777598619
v 0.0440432057 -0.0177586973 0.0775607228
v 0.0421617851 -0.0196674764 0.0775564909
v 0.0395779833 -0.0203797519 0.0775549412
v 0.0447182283 -0.0151649415 0.0775664449
v 0.0440058932 -0.0125811398 0.0775722265
v 0.0369842276 -0.0197047889 0.0775564909
v 0.0420971736 -0.0106997192 0.0775764585
v 0.0395033583 -0.0100246966 0.0775779486
v 0.0350754485 -0.0178233087 0.0775607228
v 0.0369196162 -0.0107370317 0.0775764585
v 0.0350381359 -0.0126458108 0.0775722265
v 0.0343631133 -0.0152395666 0.0775664449
v 0.0346355066 -0.0152374208 0.0774934888
v 0.0352750048 -0.0127801001 0.0774989128
v 0.0370574817 -0.0109717548 0.0775029063
v 0.0395406708 -0.0152020752 0.0774934888
v 0.0395053253 -0.010296911 0.0775043964
v 0.0353103504 -0.0176852643 0.0774880052
v 0.0371186957 -0.0194677413 0.0774840117
v 0.0419626459 -0.0109364092 0.0775029063
v 0.0437710509 -0.0127188861 0.0774989128
v 0.0395760164 -0.0201072395 0.0774825811
v 0.0420239195 -0.0194323957 0.0774840117
v 0.0444458947 -0.0151667297 0.0774934888
v 0.0438063964 -0.0176240504 0.0774880052
v 0.0514155254 -0.0391792953 0.0779846907
v 0.0521260127 -0.0364490449 0.0779907703
v 0.0521260127 -0.0364517868 0.0792243481
v 0.0520530567 -0.0364529192 0.0794966817
v 0.0518536791 -0.0364548266 0.0796960592
v 0.0515812859 -0.0364569724 0.0797690749
v 0.051141344 -0.0338710248 0.0797018409
v 0.0509064421 -0.0340090692 0.0797744989
v 0.0513133034 -0.033769697 0.0795027018
v 0.0513762459 -0.033732146 0.0792303681
v 0.0513762459 -0.0337294042 0.07799685
v 0.0493670329 -0.0317489803 0.0780012608
v 0.0493670329 -0.0317517221 0.0792348385
v 0.0493310317 -0.0318157971 0.0795070529
v 0.0492325649 -0.0319896042 0.0797060728
v 0.0490980968 -0.0322265923 0.0797784925
v 0.0466388091 -0.0313145816 0.0797076225
v 0.0466407761 -0.0315871537 0.0797799826
v 0.0441929325 -0.0322619975 0.0797784925
v 0.0440550074 -0.0320269167 0.0797060728
v 0.0421735868 -0.0339356959 0.0797018409
v 0.0466373786 -0.0311147869 0.0795086622
v 0.0439540967 -0.0318545401 0.0795070529
v 0.0420001969 -0.0338368118 0.0795027018
v 0.0412991866 -0.0365304649 0.0794966817
v 0.0419759974 -0.039250046 0.0792182684
v 0.0412262306 -0.0365303457 0.0792243481
v 0.0419367179 -0.0338001549 0.0792303681
v 0.0439171419 -0.0317910016 0.0792348385
v 0.0439851508 -0.0412277281 0.0779802799
v 0.0419759974 -0.0392473042 0.0779846907
v 0.041226171 -0.0365276039 0.0779907703
v 0.0419367179 -0.0337974131 0.07799685
v 0.0466368422 -0.0310411751 0.0792364478
v 0.0466368422 -0.0310384333 0.0780028701
v 0.0439171419 -0.0317882597 0.0780012608
v 0.046637319 -0.031110853 0.0777303576
v 0.0439540371 -0.0318505466 0.0777287483
v 0.0493309721 -0.0318118036 0.0777287483
v 0.0420001373 -0.0338328183 0.0777243972
v 0.0412991866 -0.0365264714 0.0777184367
v 0.0513133034 -0.0337657034 0.0777243972
v 0.0420389399 -0.0392097533 0.0777124166
v 0.0440212116 -0.0411636531 0.0777080655
v 0.0520529971 -0.0364489853 0.0777184367
v 0.0467148647 -0.0418646634 0.0777064562
v 0.0493981466 -0.0411249101 0.0777080655
v 0.0513520464 -0.0391426384 0.0777124166
v 0.0511786565 -0.0390437543 0.0775132775
v 0.0492971763 -0.0409525335 0.0775090456
v 0.0467134342 -0.041664809 0.0775074959
v 0.0518536195 -0.0364499986 0.0775189996
v 0.051141344 -0.0338661969 0.0775247812
v 0.0441196188 -0.040989846 0.0775090456
v 0.0492325649 -0.0319847763 0.0775290132
v 0.0466387495 -0.0313097537 0.0775305033
v 0.0422108397 -0.0391083658 0.0775132775
v 0.0440550074 -0.0320220888 0.0775290132
v 0.0421735272 -0.0339308679 0.0775247812
v 0.0414985642 -0.0365246236 0.0775189996
v 0.0417708978 -0.0365224779 0.0774460435
v 0.042410396 -0.0340651572 0.0774514675
v 0.0441928729 -0.0322568119 0.077455461
v 0.046676062 -0.0364871323 0.0774460435
v 0.0466407165 -0.0315819681 0.0774569511
v 0.0424457416 -0.0389703214 0.0774405599
v 0.0442540869 -0.0407527983 0.0774365664
v 0.0490980372 -0.0322214663 0.077455461
v 0.0509064421 -0.0340039432 0.0774514675
v 0.0467114672 -0.0413922966 0.0774351358
v 0.0491593108 -0.0407174528 0.0774365664
v 0.0515812859 -0.0364517868 0.0774460435
v 0.0509417877 -0.0389091074 0.0774405599
v 0.0316959843 -0.0442923009 0.0779736638
v 0.0321848616 -0.0424137414 0.0779778361
v 0.0321849212 -0.0424164832 0.0792114139
v 0.0321119055 -0.0424176157 0.0794837475
v 0.031912528 -0.0424194634 0.079683125
v 0.0316401944 -0.0424216092 0.0797561407
v 0.0314340815 -0.0406840742 0.0796869993
v 0.0311992392 -0.0408221185 0.079759717
v 0.0316060409 -0.0405826867 0.0794878602
v 0.0316689834 -0.0405451357 0.0792155862
v 0.0316689834 -0.0405423939 0.0779820085
v 0.0302865133 -0.0391797125 0.0779850483
v 0.0302865133 -0.0391824543 0.079218626
v 0.0302505121 -0.0392465293 0.0794908404
v 0.0301520452 -0.0394203365 0.0796898603
v 0.0300175771 -0.0396573842 0.07976228
v 0.028409861 -0.0389669836 0.0796908736
v 0.028411828 -0.039239496 0.0797632337
v 0.0268123373 -0.0396804512 0.07976228
v 0.0266744718 -0.03944543 0.0796898603
v 0.0254107341 -0.0407274663 0.0796869993
v 0.0284084305 -0.0387671292 0.0794919133
v 0.0265735015 -0.0392729938 0.0794908404
v 0.0252373442 -0.0406285822 0.0794878602
v 0.0247580037 -0.0424706042 0.0794837475
v 0.0252009258 -0.044341892 0.0792072415
v 0.024684988 -0.0424705446 0.0792114139
v 0.0251738653 -0.0405919254 0.0792155862
v 0.0265365466 -0.0392094553 0.079218626
v 0.0265833363 -0.0457018316 0.077970624
v 0.0252008662 -0.0443391502 0.0779736638
v 0.024684988 -0.0424678028 0.0779778361
v 0.0251738653 -0.0405891836 0.0779820085
v 0.0284078941 -0.0386935771 0.0792196989
v 0.0284078941 -0.0386908352 0.0779861808
v 0.0265365466 -0.0392067134 0.0779850483
v 0.0284084305 -0.0387631953 0.0777136683
v 0.0265735015 -0.0392690599 0.0777125359
v 0.0302504525 -0.0392425358 0.0777125359
v 0.0252373442 -0.0406246483 0.0777095556
v 0.024757944 -0.0424666703 0.0777054429
v 0.0316060409 -0.0405786932 0.0777095556
v 0.0252638087 -0.0443015993 0.0777013898
v 0.0266193971 -0.0456377566 0.0776984096
v 0.0321119055 -0.0424136221 0.0777054429
v 0.028461419 -0.0461170971 0.0776972771
v 0.030296348 -0.0456112325 0.0776984096
v 0.0316325054 -0.0442557037 0.0777013898
v 0.0314591154 -0.0441568196 0.0775021911
v 0.0301954374 -0.0454388559 0.0774993896
v 0.0284599885 -0.0459173024 0.0774983168
v 0.031912528 -0.0424146354 0.0775060654
v 0.0314340815 -0.0406791866 0.0775099397
v 0.0267178044 -0.0454638898 0.0774993896
v 0.0301519856 -0.0394155085 0.0775128007
v 0.028409861 -0.0389621556 0.077513814
v 0.0254357681 -0.0442002118 0.0775021911
v 0.0266744122 -0.0394405425 0.0775128007
v 0.0254106745 -0.0407226384 0.0775099397
v 0.0249573216 -0.0424647629 0.0775060654
v 0.0252297148 -0.0424626768 0.0774331093
v 0.0256475434 -0.0408569276 0.0774366856
v 0.0268122777 -0.0396753252 0.0774392486
v 0.028434895 -0.0424395502 0.0774331093
v 0.028411828 -0.0392343104 0.0774402022
v 0.02567067 -0.0440621674 0.077429533
v 0.0268523321 -0.0452269018 0.0774269104
v 0.0300175175 -0.0396521986 0.0774392486
v 0.0311991796 -0.0408169329 0.0774366856
v 0.0284580216 -0.0456447899 0.0774259567
v 0.0300575122 -0.0452037752 0.0774269104
v 0.0316401348 -0.0424164236 0.0774331093
v 0.0312223062 -0.0440221727 0.077429533
v 0.151333228 -0.161869317 0.0579596125
v 0.151214853 -0.145445734 0.0579961501
v 0.162191287 -0.145362347 0.0560606085
v 0.162309662 -0.161785871 0.0560241304
v 0.154313043 -0.110455662 0.0580892526
v 0.15423353 -0.0994186699 0.0581138097
v 0.161221221 -0.0993656218 0.0568816625
v 0.161300793 -0.110402554 0.0568571053
v 0.154177502 -0.0916434228 0.058131095
v 0.154102102 -0.0811880529 0.0581543408
v 0.161089793 -0.0811349452 0.0569221936
v 0.161165193 -0.0915903151 0.0568989478
v 0.154046014 -0.0734008253 0.0581716858
v 0.153966203 -0.0623295605 0.0581963025
v 0.160953894 -0.0622764528 0.0569641553
v 0.161033705 -0.0733477175 0.0569395386
v 0.154797569 -0.17767331 0.0579398237
v 0.154717997 -0.166636378 0.0579643808
v 0.161705688 -0.16658327 0.0567322336
v 0.16178526 -0.177620262 0.0567076765
v 0.154530481 -0.140618473 0.0580221973
v 0.15445067 -0.129547268 0.0580468141
v 0.161438361 -0.12949416 0.0568146668
v 0.161518171 -0.140565366 0.0567900501
v 0.161953166 -0.10076341 0.0609911643
v 0.162012592 -0.109012634 0.0609728061
v 0.155197814 -0.10906443 0.0621744953
v 0.155138329 -0.100815147 0.0621928535
v 0.161821738 -0.0825327337 0.0610316955
v 0.161877051 -0.0902003944 0.0610146485
v 0.155062214 -0.0902521908 0.0622163378
v 0.1550069 -0.0825845301 0.0622333847
v 0.161685839 -0.0636742413 0.0610736571
v 0.161745563 -0.0719577968 0.0610552393
v 0.154930726 -0.0720095932 0.0622569285
v 0.154871002 -0.0637260377 0.0622753464
v 0.162437633 -0.167981058 0.0608417355
v 0.162497118 -0.176230341 0.0608233772
v 0.155682281 -0.176282138 0.0620250069
v 0.155622795 -0.168032855 0.0620433651
v 0.162170306 -0.130891949 0.0609242283
v 0.16223003 -0.139175504 0.0609057508
v 0.155415192 -0.139227301 0.0621074401
v 0.155355468 -0.130943745 0.0621258579
v 0.16334106 -0.147558004 0.062515974
v 0.163427845 -0.159602612 0.0624891482
v 0.15272297 -0.159683973 0.0643767715
v 0.152636126 -0.147639364 0.0644035339
v -0.144923791 0.0192143023 0.0557644926
v -0.139820531 0.0192510784 0.0557644926
v -0.13985227 0.0236566365 0.0557742678
v -0.144955561 0.0236198604 0.0557742678
v -0.153353289 0.0191535652 0.0557644926
v -0.148518935 0.0191883743 0.0557644926
v -0.148550704 0.0235939324 0.0557742678
v -0.153385058 0.0235591233 0.0557742678
v -0.162073091 0.0190906823 0.0557644926
v -0.156953976 0.0191275775 0.0557644926
v -0.156985715 0.0235331357 0.0557742678
v -0.16210486 0.0234962404 0.0557742678
v 0.153966203 -0.0623295605 0.0581963025
v 0.154871538 -0.0623344481 0.0633305907
v 0.161859289 -0.0622814 0.0620984398
v 0.160953894 -0.0622764528 0.0569641553
v -0.140496776 0.0236557424 0.0531817637
v -0.144311085 0.0236282647 0.0531817637
v -0.144280121 0.0193316638 0.053172227
v -0.140465811 0.0193591416 0.053172227
v -0.149195209 0.0235930383 0.0531817637
v -0.152740583 0.0235674679 0.0531817637
v -0.152709618 0.0192709267 0.053172227
v -0.149164245 0.0192964971 0.053172227
v -0.15763025 0.0235322416 0.0531817637
v -0.161460385 0.0235046446 0.0531817637
v -0.16142942 0.0192080438 0.053172227
v -0.157599255 0.0192356408 0.053172227
v 0.161745563 -0.0719577968 0.0610552393
v 0.161200717 -0.0719548762 0.0579654537
v 0.15438588 -0.0720066726 0.059167143
v 0.154930726 -0.0720095932 0.0622569285
v -0.13985227 0.0236566365 0.0557742678
v -0.13985233 0.0236638486 0.0525372587
v -0.140068069 0.0237895548 0.0527523719
v -0.140068039 0.0237832963 0.0555597506
v 0.154102102 -0.0811880529 0.0581543408
v 0.155007496 -0.0811929405 0.0632886887
v 0.161995187 -0.0811398327 0.0620565377
v 0.161089793 -0.0811349452 0.0569221936
v -0.144526854 0.0237569511 0.052967187
v -0.144526824 0.0237516463 0.0553448759
v -0.144311056 0.0236239135 0.0551297627
v -0.144311085 0.0236282647 0.0531817637
v -0.148550704 0.0235939324 0.0557742678
v -0.148550734 0.0236011446 0.0525372587
v -0.148766503 0.0237268507 0.0527523719
v -0.148766443 0.0237205923 0.0555597506
v -0.152956352 0.0236961544 0.052967187
v -0.152956322 0.0236909091 0.0553448759
v -0.152740553 0.0235631168 0.0551297627
v -0.152740583 0.0235674679 0.0531817637
v -0.156985715 0.0235331357 0.0557742678
v -0.156985775 0.0235403478 0.0525372587
v -0.157201514 0.023666054 0.0527523719
v -0.157201484 0.0236597955 0.0555597506
v 0.161877051 -0.0902003944 0.0610146485
v 0.161332145 -0.0901974738 0.057924863
v 0.154517367 -0.0902492702 0.0591265522
v 0.155062214 -0.0902521908 0.0622163378
v -0.161676154 0.0236333311 0.052967187
v -0.161676124 0.0236280262 0.0553448759
v -0.161460355 0.0235002935 0.0551297627
v -0.161460385 0.0235046446 0.0531817637
v 0.15423353 -0.0994186699 0.0581138097
v 0.155138865 -0.0994236171 0.0632480979
v 0.162126616 -0.0993705094 0.062015947
v 0.161221221 -0.0993656218 0.0568816625
v 0.162012592 -0.109012634 0.0609728061
v 0.161467746 -0.109009713 0.0578830205
v 0.154652908 -0.109061509 0.0590847097
v 0.155197814 -0.10906443 0.0621744953
v 0.15445067 -0.129547268 0.0580468141
v 0.155356064 -0.129552156 0.0631811619
v 0.162343755 -0.129499048 0.0619490109
v 0.161438361 -0.12949416 0.0568146668
v 0.16223003 -0.139175504 0.0609057508
v 0.161685184 -0.139172524 0.0578159653
v 0.154870346 -0.139224321 0.0590176545
v 0.155415192 -0.139227301 0.0621074401
v 0.151214853 -0.145445734 0.0579961501
v 0.15263702 -0.145453423 0.0660611987
v 0.163613454 -0.145370036 0.0641257167
v 0.162191287 -0.145362347 0.0560606085
v 0.163427845 -0.159602612 0.0624891482
v 0.162571982 -0.159597963 0.0576356612
v 0.151867107 -0.159679323 0.0595232807
v 0.15272297 -0.159683973 0.0643767715
v 0.154717997 -0.166636378 0.0579643808
v 0.155623391 -0.166641265 0.0630986691
v 0.162611082 -0.166588157 0.0618665181
v 0.161705688 -0.16658327 0.0567322336
v 0.162497118 -0.176230341 0.0608233772
v 0.161952272 -0.176227421 0.0577335916
v 0.155137435 -0.176279157 0.0589352213
v 0.155682281 -0.176282138 0.0620250069
v -0.139820531 0.0192510784 0.0557644926
v -0.139820561 0.0192582905 0.0525274836
v -0.13985233 0.0236638486 0.0525372587
v -0.13985227 0.0236566365 0.0557742678
v -0.144311085 0.0236282647 0.0531817637
v -0.144311056 0.0236239135 0.0551297627
v -0.144280091 0.0193273723 0.055120226
v -0.144280121 0.0193316638 0.053172227
v -0.148518935 0.0191883743 0.0557644926
v -0.148518994 0.0191955864 0.0525274836
v -0.148550734 0.0236011446 0.0525372587
v -0.148550704 0.0235939324 0.0557742678
v -0.152740583 0.0235674679 0.0531817637
v -0.152740553 0.0235631168 0.0551297627
v -0.152709588 0.0192665756 0.055120226
v -0.152709618 0.0192709267 0.053172227
v -0.156953976 0.0191275775 0.0557644926
v -0.156954035 0.0191347897 0.0525274836
v -0.156985775 0.0235403478 0.0525372587
v -0.156985715 0.0235331357 0.0557742678
v -0.161460385 0.0235046446 0.0531817637
v -0.161460355 0.0235002935 0.0551297627
v -0.16142939 0.0192037523 0.055120226
v -0.16142942 0.0192080438 0.053172227
f 1 2 3
f 1 2 3
f 3 4 1
f 3 4 1
f 5 6 7
f 5 6 7
f 7 8 5
f 7 8 5
f 9 10 11
f 9 10 11
f 11 12 9
f 11 12 9
f 13 14 15
f 13 14 15
f 15 16 13
f 15 16 13
f 17 18 19
f 17 18 19
f 19 20 17
f 19 20 17
f 21 22 23
f 21 22 23
f 23 24 21
f 23 24 21
f 25 26 27
f 25 26 27
f 27 28 25
f 27 28 25
f 29 30 31
f 29 30 31
f 31 32 29
f 31 32 29
f 33 34 35
f 33 34 35
f 35 36 33
f 35 36 33
f 37 38 39
f 37 38 39
f 39 40 37
f 39 40 37
f 41 42 43
f 41 42 43
f 43 44 41
f 43 44 41
f 45 46 47
f 45 46 47
f 47 48 45
f 47 48 45
f 49 50 51
f 49 50 51
f 51 52 49
f 51 52 49
f 53 54 55
f 53 54 55
f 55 56 53
f 55 56 53
f 57 58 59
f 57 58 59
f 59 60 57
f 59 60 57
f 61 62 63
f 61 62 63
f 63 64 61
f 63 64 61
f 65 66 67
f 65 66 67
f 67 68 65
f 67 68 65
f 69 70 71
f 69 70 71
f 71 72 69
f 71 72 69
f 73 74 75
f 73 74 75
f 75 76 73
f 75 76 73
f 77 78 79
f 77 78 79
f 79 80 77
f 79 80 77
f 81 82 83
f 81 82 83
f 83 84 81
f 83 84 81
f 85 86 87
f 85 86 87
f 87 88 85
f 87 88 85
f 89 90 91
f 89 90 91
f 91 92 89
f 91 92 89
f 93 94 95
f 93 94 95
f 95 96 93
f 95 96 93
f 97 98 99
f 97 98 99
f 99 100 97
f 99 100 97
f 101 102 103
f 101 102 103
f 104 103 102
f 104 103 102
f 103 105 101
f 103 105 101
f 102 106 104
f 102 106 104
f 107 104 106
f 107 104 106
f 108 101 105
f 108 101 105
f 105 107 108
f 105 107 108
f 106 108 107
f 106 108 107
f 109 110 111
f 109 110 111
f 112 111 110
f 112 111 110
f 111 113 109
f 111 113 109
f 110 114 112
f 110 114 112
f 115 112 114
f 115 112 114
f 116 109 113
f 116 109 113
f 113 115 116
f 113 115 116
f 114 116 115
f 114 116 115
f 117 118 119
f 117 118 119
f 120 119 118
f 120 119 118
f 119 121 117
f 119 121 117
f 118 122 120
f 118 122 120
f 123 120 122
f 123 120 122
f 124 117 121
f 124 117 121
f 121 123 124
f 121 123 124
f 122 124 123
f 122 124 123
f 125 126 127
f 125 126 127
f 128 127 126
f 128 127 126
f 127 129 125
f 127 129 125
f 126 130 128
f 126 130 128
f 131 128 130
f 131 128 130
f 132 125 129
f 132 125 129
f 129 131 132
f 129 131 132
f 130 132 131
f 130 132 131
f 133 134 135
f 133 134 135
f 136 135 134
f 136 135 134
f 135 137 133
f 135 137 133
f 134 138 136
f 134 138 136
f 139 136 138
f 139 136 138
f 140 133 137
f 140 133 137
f 137 139 140
f 137 139 140
f 138 140 139
f 138 140 139
f 141 142 143
f 141 142 143
f 144 143 142
f 144 143 142
f 143 145 141
f 143 145 141
f 142 146 144
f 142 146 144
f 147 144 146
f 147 144 146
f 148 141 145
f 148 141 145
f 145 147 148
f 145 147 148
f 146 148 147
f 146 148 147
f 149 150 151
f 149 150 151
f 151 152 149
f 151 152 149
f 153 154 155
f 153 154 155
f 155 156 153
f 155 156 153
f 157 158 159
f 157 158 159
f 159 160 157
f 159 160 157
f 161 162 163
f 161 162 163
f 163 164 161
f 163 164 161
f 165 166 167
f 165 166 167
f 167 168 165
f 167 168 165
f 169 170 171
f 169 170 171
f 171 172 169
f 171 172 169
f 173 174 175
f 173 174 175
f 175 176 173
f 175 176 173
f 177 178 179
f 177 178 179
f 179 180 177
f 179 180 177
f 181 182 183
f 181 182 183
f 183 184 181
f 183 184 181
f 185 186 187
f 185 186 187
f 187 188 185
f 187 188 185
f 189 190 191
f 189 190 191
f 191 192 189
f 191 192 189
f 193 194 195
f 193 194 195
f 195 196 193
f 195 196 193
f 197 198 199
f 197 198 199
f 199 200 197
f 199 200 197
f 201 202 203
f 201 202 203
f 203 204 201
f 203 204 201
f 205 206 207
f 205 206 207
f 207 208 205
f 207 208 205
f 209 210 211
f 209 210 211
f 211 212 209
f 211 212 209
f 213 214 215
f 213 214 215
f 215 216 213
f 215 216 213
f 217 218 219
f 217 218 219
f 219 220 217
f 219 220 217
f 221 222 223
f 221 222 223
f 223 224 221
f 223 224 221
f 225 226 227
f 225 226 227
f 227 228 225
f 227 228 225
f 229 230 231
f 229 230 231
f 231 232 229
f 231 232 229
f 233 234 235
f 233 234 235
f 235 236 233
f 235 236 233
f 237 238 239
f 237 238 239
f 239 240 237
f 239 240 237
f 241 242 243
f 241 242 243
f 243 244 241
f 243 244 241
f 245 246 247
f 245 246 247
f 247 248 245
f 247 248 245
f 249 250 251
f 249 250 251
f 251 252 249
f 251 252 249
f 253 254 255
f 253 254 255
f 255 256 253
f 255 256 253
f 257 258 259
f 257 258 259
f 259 260 257
f 259 260 257
f 261 262 263
f 261 262 263
f 263 264 261
f 263 264 261
f 265 266 267
f 265 266 267
f 267 268 265
f 267 268 265
f 269 270 271
f 269 270 271
f 271 272 269
f 271 272 269
f 273 274 275
f 273 274 275
f 275 276 273
f 275 276 273
f 277 278 279
f 277 278 279
f 279 280 277
f 279 280 277
f 281 282 283
f 281 282 283
f 283 284 281
f 283 284 281
f 285 286 287
f 285 286 287
f 287 288 285
f 287 288 285
f 289 290 291
f 289 290 291
f 291 292 289
f 291 292 289
f 293 294 295
f 293 294 295
f 296 295 294
f 296 295 294
f 295 297 293
f 295 297 293
f 294 298 296
f 294 298 296
f 299 296 298
f 299 296 298
f 300 293 297
f 300 293 297
f 297 299 300
f 297 299 300
f 298 300 299
f 298 300 299
f 301 302 303
f 301 302 303
f 304 303 302
f 304 303 302
f 303 305 301
f 303 305 301
f 302 306 304
f 302 306 304
f 307 304 306
f 307 304 306
f 308 301 305
f 308 301 305
f 305 307 308
f 305 307 308
f 306 308 307
f 306 308 307
f 309 310 311
f 309 310 311
f 312 311 310
f 312 311 310
f 311 313 309
f 311 313 309
f 310 314 312
f 310 314 312
f 315 312 314
f 315 312 314
f 316 309 313
f 316 309 313
f 313 315 316
f 313 315 316
f 314 316 315
f 314 316 315
f 317 318 319
f 317 318 319
f 319 320 317
f 319 320 317
f 321 322 323
f 321 322 323
f 323 324 321
f 323 324 321
f 325 326 327
f 325 326 327
f 327 328 325
f 327 328 325
f 329 330 331
f 329 330 331
f 331 332 329
f 331 332 329
f 333 334 335
f 333 334 335
f 335 336 333
f 335 336 333
f 337 338 339
f 337 338 339
f 339 340 337
f 339 340 337
f 341 342 343
f 341 342 343
f 343 344 341
f 343 344 341
f 345 346 347
f 345 346 347
f 347 348 345
f 347 348 345
f 349 350 351
f 349 350 351
f 351 352 349
f 351 352 349
f 353 354 355
f 353 354 355
f 355 356 353
f 355 356 353
f 357 358 359
f 357 358 359
f 359 360 357
f 359 360 357
f 361 362 363
f 361 362 363
f 363 364 361
f 363 364 361
f 365 366 367
f 365 366 367
f 367 368 365
f 367 368 365
f 369 370 371
f 369 370 371
f 371 372 369
f 371 372 369
f 373 374 375
f 373 374 375
f 375 376 373
f 375 376 373
f 377 378 379
f 377 378 379
f 379 380 377
f 379 380 377
f 381 382 383
f 381 382 383
f 383 384 381
f 383 384 381
f 385 386 387
f 385 386 387
f 387 388 385
f 387 388 385
f 389 390 391
f 389 390 391
f 391 392 389
f 391 392 389
f 393 394 395
f 393 394 395
f 395 396 393
f 395 396 393
f 397 398 399
f 397 398 399
f 399 400 397
f 399 400 397
f 401 402 403
f 401 402 403
f 403 404 401
f 403 404 401
f 405 406 407
f 405 406 407
f 407 408 405
f 407 408 405
f 409 410 411
f 409 410 411
f 411 412 409
f 411 412 409
f 413 414 415
f 413 414 415
f 415 416 413
f 415 416 413
f 417 418 419
f 417 418 419
f 419 420 417
f 419 420 417
f 421 422 423
f 421 422 423
f 423 424 421
f 423 424 421
f 425 426 427
f 425 426 427
f 427 428 425
f 427 428 425
f 429 430 431
f 429 430 431
f 431 432 429
f 431 432 429
f 433 434 435
f 433 434 435
f 435 436 433
f 435 436 433
f 437 438 439
f 437 438 439
f 439 440 437
f 439 440 437
f 441 442 443
f 441 442 443
f 443 444 441
f 443 444 441
f 445 446 447
f 445 446 447
f 447 448 445
f 447 448 445
f 449 450 451
f 449 450 451
f 451 452 449
f 451 452 449
f 453 454 455
f 453 454 455
f 455 456 453
f 455 456 453
f 457 458 459
f 457 458 459
f 459 460 457
f 459 460 457
f 461 462 463
f 461 462 463
f 463 464 461
f 463 464 461
f 465 466 467
f 465 466 467
f 467 468 465
f 467 468 465
f 469 470 471
f 469 470 471
f 471 472 469
f 471 472 469
f 473 474 475
f 473 474 475
f 475 476 473
f 475 476 473
f 477 478 479
f 477 478 479
f 479 480 477
f 479 480 477
f 481 482 483
f 481 482 483
f 482 484 483
f 482 484 483
f 481 483 485
f 481 483 485
f 483 484 486
f 483 486 485
f 483 484 486
f 483 486 485
f 485 486 487
f 485 486 487
f 485 487 488
f 481 485 488
f 485 487 488
f 481 485 488
f 486 489 487
f 486 489 487
f 484 490 486
f 486 490 489
f 484 490 486
f 486 490 489
f 482 491 484
f 482 491 484
f 481 492 482
f 492 491 482
f 481 492 482
f 492 491 482
f 484 493 490
f 484 493 490
f 491 493 484
f 491 493 484
f 490 494 489
f 490 494 489
f 493 495 490
f 490 495 494
f 493 495 490
f 490 495 494
f 495 496 494
f 495 496 494
f 494 496 497
f 494 496 497
f 489 494 498
f 494 497 498
f 489 494 498
f 494 497 498
f 489 498 499
f 489 498 499
f 487 489 499
f 487 489 499
f 487 499 500
f 487 499 500
f 488 487 500
f 488 487 500
f 488 500 501
f 488 500 501
f 481 488 501
f 481 488 501
f 501 500 502
f 501 500 502
f 481 501 503
f 501 502 503
f 481 501 503
f 501 502 503
f 500 499 504
f 500 499 504
f 500 504 502
f 500 504 502
f 499 505 504
f 499 505 504
f 499 498 505
f 506 507 508
f 506 507 508
f 507 509 508
f 507 509 508
f 506 508 510
f 506 508 510
f 508 509 511
f 508 511 510
f 508 509 511
f 508 511 510
f 510 511 512
f 510 511 512
f 510 512 513
f 506 510 513
f 510 512 513
f 506 510 513
f 511 514 512
f 511 514 512
f 509 515 511
f 511 515 514
f 509 515 511
f 511 515 514
f 507 516 509
f 507 516 509
f 506 517 507
f 517 516 507
f 506 517 507
f 517 516 507
f 509 518 515
f 509 518 515
f 516 518 509
f 516 518 509
f 515 519 514
f 515 519 514
f 518 520 515
f 515 520 519
f 518 520 515
f 515 520 519
f 520 521 519
f 520 521 519
f 519 521 522
f 519 521 522
f 514 519 523
f 519 522 523
f 514 519 523
f 519 522 523
f 514 523 524
f 514 523 524
f 512 514 524
f 512 514 524
f 512 524 525
f 512 524 525
f 513 512 525
f 513 512 525
f 513 525 526
f 513 525 526
f 506 513 526
f 506 513 526
f 526 525 527
f 526 525 527
f 506 526 528
f 526 527 528
f 506 526 528
f 526 527 528
f 525 524 529
f 525 524 529
f 525 529 527
f 525 529 527
f 524 530 529
f 524 530 529
f 524 523 530
f 531 532 533
f 531 532 533
f 532 534 533
f 532 534 533
f 531 533 535
f 531 533 535
f 533 534 536
f 533 536 535
f 533 534 536
f 533 536 535
f 535 536 537
f 535 536 537
f 535 537 538
f 531 535 538
f 535 537 538
f 531 535 538
f 536 539 537
f 536 539 537
f 534 540 536
f 536 540 539
f 534 540 536
f 536 540 539
f 532 541 534
f 532 541 534
f 531 542 532
f 542 541 532
f 531 542 532
f 542 541 532
f 534 543 540
f 534 543 540
f 541 543 534
f 541 543 534
f 540 544 539
f 540 544 539
f 543 545 540
f 540 545 544
f 543 545 540
f 540 545 544
f 545 546 544
f 545 546 544
f 544 546 547
f 544 546 547
f 539 544 548
f 544 547 548
f 539 544 548
f 544 547 548
f 539 548 549
f 539 548 549
f 537 539 549
f 537 539 549
f 537 549 550
f 537 549 550
f 538 537 550
f 538 537 550
f 538 550 551
f 538 550 551
f 531 538 551
f 531 538 551
f 551 550 552
f 551 550 552
f 531 551 553
f 551 552 553
f 531 551 553
f 551 552 553
f 550 549 554
f 550 549 554
f 550 554 552
f 550 554 552
f 549 555 554
f 549 555 554
f 549 548 555
f 549 548 555
f 548 556 555
f 548 556 555
f 548 547 556
f 548 547 556
f 555 556 557
f 555 556 557
f 554 555 558
f 555 557 558
f 554 555 558
f 555 557 558
f 552 554 559
f 552 554 559
f 554 558 559
f 554 558 559
f 552 559 560
f 552 559 560
f 553 552 560
f 553 552 560
f 553 560 561
f 553 560 561
f 531 553 561
f 531 553 561
f 561 560 562
f 561 560 562
f 531 561 563
f 561 562 563
f 531 561 563
f 561 562 563
f 560 559 564
f 560 559 564
f 560 564 562
f 560 564 562
f 559 565 564
f 559 565 564
f 559 558 565
f 559 558 565
f 558 566 565
f 558 566 565
f 558 557 566
f 558 557 566
f 565 566 567
f 565 566 567
f 564 565 568
f 565 567 568
f 564 565 568
f 565 567 568
f 562 564 569
f 562 564 569
f 564 568 569
f 564 568 569
f 562 569 570
f 562 569 570
f 563 562 570
f 563 562 570
f 563 570 571
f 563 570 571
f 531 563 571
f 531 563 571
f 571 570 572
f 571 570 572
f 531 571 573
f 571 572 573
f 531 571 573
f 571 572 573
f 531 573 574
f 531 573 574
f 531 574 542
f 531 574 542
f 573 575 574
f 573 572 575
f 573 575 574
f 573 572 575
f 574 576 542
f 574 576 542
f 574 575 576
f 574 575 576
f 542 576 541
f 542 576 541
f 570 577 572
f 570 577 572
f 570 569 577
f 570 569 577
f 572 578 575
f 572 578 575
f 572 577 578
f 572 577 578
f 575 579 576
f 575 579 576
f 575 578 579
f 575 578 579
f 576 580 541
f 576 580 541
f 576 579 580
f 576 579 580
f 541 580 543
f 541 580 543
f 580 581 543
f 580 581 543
f 543 581 545
f 543 581 545
f 579 582 580
f 579 582 580
f 580 582 581
f 580 582 581
f 578 583 579
f 578 583 579
f 579 583 582
f 579 583 582
f 578 584 583
f 578 584 583
f 577 584 578
f 577 584 578
f 581 585 545
f 581 585 545
f 545 585 546
f 545 585 546
f 582 586 581
f 582 586 581
f 581 586 585
f 581 586 585
f 583 587 582
f 583 587 582
f 582 587 586
f 582 587 586
f 584 588 583
f 584 588 583
f 583 588 587
f 583 588 587
f 577 589 584
f 577 589 584
f 569 589 577
f 569 589 577
f 569 568 589
f 569 568 589
f 568 590 589
f 568 590 589
f 589 591 584
f 589 591 584
f 584 591 588
f 584 591 588
f 589 590 591
f 589 590 591
f 568 567 590
f 568 567 590
f 567 592 590
f 567 592 590
f 590 592 593
f 590 593 591
f 590 592 593
f 590 593 591
f 567 594 592
f 567 594 592
f 566 594 567
f 566 594 567
f 591 593 595
f 591 593 595
f 591 595 588
f 591 595 588
f 588 595 596
f 588 595 596
f 588 596 587
f 588 596 587
f 566 597 594
f 566 597 594
f 557 597 566
f 557 597 566
f 587 596 598
f 587 596 598
f 587 598 586
f 587 598 586
f 586 598 599
f 586 598 599
f 586 599 585
f 586 599 585
f 557 600 597
f 557 600 597
f 556 600 557
f 556 600 557
f 585 599 601
f 585 599 601
f 585 601 546
f 585 601 546
f 546 601 602
f 546 601 602
f 546 602 547
f 546 602 547
f 547 603 556
f 547 603 556
f 556 603 600
f 556 603 600
f 547 602 603
f 547 602 603
f 602 604 603
f 602 604 603
f 601 605 602
f 602 605 604
f 601 605 602
f 602 605 604
f 601 606 605
f 601 606 605
f 599 606 601
f 599 606 601
f 603 607 600
f 603 604 607
f 603 607 600
f 603 604 607
f 600 607 608
f 600 607 608
f 600 608 597
f 600 608 597
f 599 609 606
f 599 609 606
f 598 609 599
f 598 609 599
f 597 608 610
f 597 608 610
f 597 610 594
f 597 610 594
f 594 610 611
f 594 610 611
f 594 611 592
f 594 611 592
f 598 612 609
f 598 612 609
f 596 612 598
f 596 612 598
f 592 611 613
f 592 611 613
f 592 613 593
f 592 613 593
f 593 613 614
f 593 613 614
f 593 614 595
f 593 614 595
f 595 615 596
f 595 615 596
f 596 615 612
f 596 615 612
f 595 614 615
f 595 614 615
f 614 616 615
f 614 616 615
f 613 617 614
f 614 617 616
f 613 617 614
f 614 617 616
f 613 618 617
f 613 618 617
f 611 618 613
f 611 618 613
f 618 619 617
f 618 619 617
f 617 619 616
f 617 619 616
f 611 620 618
f 611 620 618
f 620 619 618
f 620 619 618
f 610 620 611
f 610 620 611
f 615 616 621
f 615 616 621
f 616 619 621
f 616 619 621
f 615 621 612
f 615 621 612
f 612 621 622
f 612 621 622
f 621 619 622
f 621 619 622
f 610 623 620
f 610 623 620
f 623 619 620
f 623 619 620
f 608 623 610
f 608 623 610
f 612 622 609
f 612 622 609
f 608 624 623
f 608 624 623
f 624 619 623
f 624 619 623
f 607 624 608
f 607 624 608
f 609 622 625
f 609 622 625
f 622 619 625
f 622 619 625
f 609 625 606
f 609 625 606
f 606 625 626
f 606 625 626
f 625 619 626
f 625 619 626
f 607 627 624
f 607 627 624
f 627 619 624
f 627 619 624
f 604 627 607
f 604 627 607
f 628 619 627
f 604 628 627
f 628 619 627
f 604 628 627
f 626 619 628
f 626 619 628
f 605 628 604
f 605 628 604
f 606 626 605
f 606 626 605
f 605 626 628
f 605 626 628
f 524 523 530
f 523 629 530
f 523 629 530
f 523 522 629
f 523 522 629
f 530 629 630
f 530 629 630
f 529 530 631
f 530 630 631
f 529 530 631
f 530 630 631
f 527 529 632
f 527 529 632
f 529 631 632
f 529 631 632
f 527 632 633
f 527 632 633
f 528 527 633
f 528 527 633
f 528 633 634
f 528 633 634
f 506 528 634
f 506 528 634
f 634 633 635
f 634 633 635
f 506 634 636
f 634 635 636
f 506 634 636
f 634 635 636
f 633 632 637
f 633 632 637
f 633 637 635
f 633 637 635
f 632 638 637
f 632 638 637
f 632 631 638
f 632 631 638
f 631 639 638
f 631 639 638
f 631 630 639
f 631 630 639
f 638 639 640
f 638 639 640
f 637 638 641
f 638 640 641
f 637 638 641
f 638 640 641
f 635 637 642
f 635 637 642
f 637 641 642
f 637 641 642
f 635 642 643
f 635 642 643
f 636 635 643
f 636 635 643
f 636 643 644
f 636 643 644
f 506 636 644
f 506 636 644
f 644 643 645
f 644 643 645
f 506 644 646
f 644 645 646
f 506 644 646
f 644 645 646
f 506 646 647
f 506 646 647
f 506 647 517
f 506 647 517
f 646 648 647
f 646 645 648
f 646 648 647
f 646 645 648
f 647 649 517
f 647 649 517
f 647 648 649
f 647 648 649
f 517 649 516
f 517 649 516
f 643 650 645
f 643 650 645
f 643 642 650
f 643 642 650
f 645 651 648
f 645 651 648
f 645 650 651
f 645 650 651
f 648 652 649
f 648 652 649
f 648 651 652
f 648 651 652
f 649 653 516
f 649 653 516
f 649 652 653
f 649 652 653
f 516 653 518
f 516 653 518
f 653 654 518
f 653 654 518
f 518 654 520
f 518 654 520
f 652 655 653
f 652 655 653
f 653 655 654
f 653 655 654
f 651 656 652
f 651 656 652
f 652 656 655
f 652 656 655
f 651 657 656
f 651 657 656
f 650 657 651
f 650 657 651
f 654 658 520
f 654 658 520
f 520 658 521
f 520 658 521
f 655 659 654
f 655 659 654
f 654 659 658
f 654 659 658
f 656 660 655
f 656 660 655
f 655 660 659
f 655 660 659
f 657 661 656
f 657 661 656
f 656 661 660
f 656 661 660
f 650 662 657
f 650 662 657
f 642 662 650
f 642 662 650
f 642 641 662
f 642 641 662
f 641 663 662
f 641 663 662
f 662 664 657
f 662 664 657
f 657 664 661
f 657 664 661
f 662 663 664
f 662 663 664
f 641 640 663
f 641 640 663
f 640 665 663
f 640 665 663
f 663 665 666
f 663 666 664
f 663 665 666
f 663 666 664
f 640 667 665
f 640 667 665
f 639 667 640
f 639 667 640
f 664 666 668
f 664 666 668
f 664 668 661
f 664 668 661
f 661 668 669
f 661 668 669
f 661 669 660
f 661 669 660
f 639 670 667
f 639 670 667
f 630 670 639
f 630 670 639
f 660 669 671
f 660 669 671
f 660 671 659
f 660 671 659
f 659 671 672
f 659 671 672
f 659 672 658
f 659 672 658
f 630 673 670
f 630 673 670
f 629 673 630
f 629 673 630
f 658 672 674
f 658 672 674
f 658 674 521
f 658 674 521
f 521 674 675
f 521 674 675
f 521 675 522
f 521 675 522
f 522 676 629
f 522 676 629
f 629 676 673
f 629 676 673
f 522 675 676
f 522 675 676
f 675 677 676
f 675 677 676
f 674 678 675
f 675 678 677
f 674 678 675
f 675 678 677
f 674 679 678
f 674 679 678
f 672 679 674
f 672 679 674
f 676 680 673
f 676 677 680
f 676 680 673
f 676 677 680
f 673 680 681
f 673 680 681
f 673 681 670
f 673 681 670
f 672 682 679
f 672 682 679
f 671 682 672
f 671 682 672
f 670 681 683
f 670 681 683
f 670 683 667
f 670 683 667
f 667 683 684
f 667 683 684
f 667 684 665
f 667 684 665
f 671 685 682
f 671 685 682
f 669 685 671
f 669 685 671
f 665 684 686
f 665 684 686
f 665 686 666
f 665 686 666
f 666 686 687
f 666 686 687
f 666 687 668
f 666 687 668
f 668 688 669
f 668 688 669
f 669 688 685
f 669 688 685
f 668 687 688
f 668 687 688
f 687 689 688
f 687 689 688
f 686 690 687
f 687 690 689
f 686 690 687
f 687 690 689
f 686 691 690
f 686 691 690
f 684 691 686
f 684 691 686
f 691 692 690
f 691 692 690
f 690 692 689
f 690 692 689
f 684 693 691
f 684 693 691
f 693 692 691
f 693 692 691
f 683 693 684
f 683 693 684
f 688 689 694
f 688 689 694
f 689 692 694
f 689 692 694
f 688 694 685
f 688 694 685
f 685 694 695
f 685 694 695
f 694 692 695
f 694 692 695
f 683 696 693
f 683 696 693
f 696 692 693
f 696 692 693
f 681 696 683
f 681 696 683
f 685 695 682
f 685 695 682
f 681 697 696
f 681 697 696
f 697 692 696
f 697 692 696
f 680 697 681
f 680 697 681
f 682 695 698
f 682 695 698
f 695 692 698
f 695 692 698
f 682 698 679
f 682 698 679
f 679 698 699
f 679 698 699
f 698 692 699
f 698 692 699
f 680 700 697
f 680 700 697
f 700 692 697
f 700 692 697
f 677 700 680
f 677 700 680
f 701 692 700
f 677 701 700
f 701 692 700
f 677 701 700
f 699 692 701
f 699 692 701
f 678 701 677
f 678 701 677
f 679 699 678
f 679 699 678
f 678 699 701
f 678 699 701
f 499 498 505
f 498 702 505
f 498 702 505
f 498 497 702
f 498 497 702
f 505 702 703
f 505 702 703
f 504 505 704
f 505 703 704
f 504 505 704
f 505 703 704
f 502 504 705
f 502 504 705
f 504 704 705
f 504 704 705
f 502 705 706
f 502 705 706
f 503 502 706
f 503 502 706
f 503 706 707
f 503 706 707
f 481 503 707
f 481 503 707
f 707 706 708
f 707 706 708
f 481 707 709
f 707 708 709
f 481 707 709
f 707 708 709
f 706 705 710
f 706 705 710
f 706 710 708
f 706 710 708
f 705 711 710
f 705 711 710
f 705 704 711
f 705 704 711
f 704 712 711
f 704 712 711
f 704 703 712
f 704 703 712
f 711 712 713
f 711 712 713
f 710 711 714
f 711 713 714
f 710 711 714
f 711 713 714
f 708 710 715
f 708 710 715
f 710 714 715
f 710 714 715
f 708 715 716
f 708 715 716
f 709 708 716
f 709 708 716
f 709 716 717
f 709 716 717
f 481 709 717
f 481 709 717
f 717 716 718
f 717 716 718
f 481 717 719
f 717 718 719
f 481 717 719
f 717 718 719
f 481 719 720
f 481 719 720
f 481 720 492
f 481 720 492
f 719 721 720
f 719 718 721
f 719 721 720
f 719 718 721
f 720 722 492
f 720 722 492
f 720 721 722
f 720 721 722
f 492 722 491
f 492 722 491
f 716 723 718
f 716 723 718
f 716 715 723
f 716 715 723
f 718 724 721
f 718 724 721
f 718 723 724
f 718 723 724
f 721 725 722
f 721 725 722
f 721 724 725
f 721 724 725
f 722 726 491
f 722 726 491
f 722 725 726
f 722 725 726
f 491 726 493
f 491 726 493
f 726 727 493
f 726 727 493
f 493 727 495
f 493 727 495
f 725 728 726
f 725 728 726
f 726 728 727
f 726 728 727
f 724 729 725
f 724 729 725
f 725 729 728
f 725 729 728
f 724 730 729
f 724 730 729
f 723 730 724
f 723 730 724
f 727 731 495
f 727 731 495
f 495 731 496
f 495 731 496
f 728 732 727
f 728 732 727
f 727 732 731
f 727 732 731
f 729 733 728
f 729 733 728
f 728 733 732
f 728 733 732
f 730 734 729
f 730 734 729
f 729 734 733
f 729 734 733
f 723 735 730
f 723 735 730
f 715 735 723
f 715 735 723
f 715 714 735
f 715 714 735
f 714 736 735
f 714 736 735
f 735 737 730
f 735 737 730
f 730 737 734
f 730 737 734
f 735 736 737
f 735 736 737
f 714 713 736
f 714 713 736
f 713 738 736
f 713 738 736
f 736 738 739
f 736 739 737
f 736 738 739
f 736 739 737
f 713 740 738
f 713 740 738
f 712 740 713
f 712 740 713
f 737 739 741
f 737 739 741
f 737 741 734
f 737 741 734
f 734 741 742
f 734 741 742
f 734 742 733
f 734 742 733
f 712 743 740
f 712 743 740
f 703 743 712
f 703 743 712
f 733 742 744
f 733 742 744
f 733 744 732
f 733 744 732
f 732 744 745
f 732 744 745
f 732 745 731
f 732 745 731
f 703 746 743
f 703 746 743
f 702 746 703
f 702 746 703
f 731 745 747
f 731 745 747
f 731 747 496
f 731 747 496
f 496 747 748
f 496 747 748
f 496 748 497
f 496 748 497
f 497 749 702
f 497 749 702
f 702 749 746
f 702 749 746
f 497 748 749
f 497 748 749
f 748 750 749
f 748 750 749
f 747 751 748
f 748 751 750
f 747 751 748
f 748 751 750
f 747 752 751
f 747 752 751
f 745 752 747
f 745 752 747
f 749 753 746
f 749 750 753
f 749 753 746
f 749 750 753
f 746 753 754
f 746 753 754
f 746 754 743
f 746 754 743
f 745 755 752
f 745 755 752
f 744 755 745
f 744 755 745
f 743 754 756
f 743 754 756
f 743 756 740
f 743 756 740
f 740 756 757
f 740 756 757
f 740 757 738
f 740 757 738
f 744 758 755
f 744 758 755
f 742 758 744
f 742 758 744
f 738 757 759
f 738 757 759
f 738 759 739
f 738 759 739
f 739 759 760
f 739 759 760
f 739 760 741
f 739 760 741
f 741 761 742
f 741 761 742
f 742 761 758
f 742 761 758
f 741 760 761
f 741 760 761
f 760 762 761
f 760 762 761
f 759 763 760
f 760 763 762
f 759 763 760
f 760 763 762
f 759 764 763
f 759 764 763
f 757 764 759
f 757 764 759
f 764 765 763
f 764 765 763
f 763 765 762
f 763 765 762
f 757 766 764
f 757 766 764
f 766 765 764
f 766 765 764
f 756 766 757
f 756 766 757
f 761 762 767
f 761 762 767
f 762 765 767
f 762 765 767
f 761 767 758
f 761 767 758
f 758 767 768
f 758 767 768
f 767 765 768
f 767 765 768
f 756 769 766
f 756 769 766
f 769 765 766
f 769 765 766
f 754 769 756
f 754 769 756
f 758 768 755
f 758 768 755
f 754 770 769
f 754 770 769
f 770 765 769
f 770 765 769
f 753 770 754
f 753 770 754
f 755 768 771
f 755 768 771
f 768 765 771
f 768 765 771
f 755 771 752
f 755 771 752
f 752 771 772
f 752 771 772
f 771 765 772
f 771 765 772
f 753 773 770
f 753 773 770
f 773 765 770
f 773 765 770
f 750 773 753
f 750 773 753
f 774 765 773
f 750 774 773
f 774 765 773
f 750 774 773
f 772 765 774
f 772 765 774
f 751 774 750
f 751 774 750
f 752 772 751
f 752 772 751
f 751 772 774
f 751 772 774
f 775 776 777
f 775 776 777
f 777 778 775
f 777 778 775
f 779 780 781
f 779 780 781
f 781 782 779
f 781 782 779
f 783 784 785
f 783 784 785
f 785 786 783
f 785 786 783
f 787 788 789
f 787 788 789
f 789 790 787
f 789 790 787
f 791 792 793
f 791 792 793
f 793 794 791
f 793 794 791
f 795 796 797
f 795 796 797
f 797 798 795
f 797 798 795
f 799 800 801
f 799 800 801
f 801 802 799
f 801 802 799
f 803 804 805
f 803 804 805
f 805 806 803
f 805 806 803
f 807 808 809
f 807 808 809
f 809 810 807
f 809 810 807
f 811 812 813
f 811 812 813
f 813 814 811
f 813 814 811
f 815 816 817
f 815 816 817
f 817 818 815
f 817 818 815
f 819 820 821
f 819 820 821
f 821 822 819
f 821 822 819
f 823 824 825
f 823 824 825
f 825 826 823
f 825 826 823
f 827 828 829
f 827 828 829
f 829 830 827
f 829 830 827
f 831 832 833
f 831 832 833
f 833 834 831
f 833 834 831
f 835 836 837
f 835 836 837
f 837 838 835
f 837 838 835
f 839 840 841
f 839 840 841
f 841 842 839
f 841 842 839
f 843 844 845
f 843 844 845
f 845 846 843
f 845 846 843
f 847 848 849
f 847 848 849
f 849 850 847
f 849 850 847
f 851 852 853
f 851 852 853
f 853 854 851
f 853 854 851
f 855 856 857
f 855 856 857
f 857 858 855
f 857 858 855
f 859 860 861
f 859 860 861
f 861 862 859
f 861 862 859
f 863 864 865
f 863 864 865
f 865 866 863
f 865 866 863
f 867 868 869
f 867 868 869
f 869 870 867
f 869 870 867
f 871 872 873
f 871 872 873
f 873 874 871
f 873 874 871
f 875 876 877
f 875 876 877
f 877 878 875
f 877 878 875
f 879 880 881
f 879 880 881
f 881 882 879
f 881 882 879
f 883 884 885
f 883 884 885
f 885 886 883
f 885 886 883
f 887 888 889
f 887 888 889
f 889 890 887
f 889 890 887
f 891 892 893
f 891 892 893
f 893 894 891
f 893 894 891
f 895 896 897
f 895 896 897
f 897 898 895
f 897 898 895
f 899 900 901
f 899 900 901
f 901 902 899
f 901 902 899
f 903 904 905
f 903 904 905
f 905 906 903
f 905 906 903
f 907 908 909
f 907 908 909
f 909 910 907
f 909 910 907
f 911 912 913
f 911 912 913
f 913 914 911
f 913 914 911
f 915 916 917
f 915 916 917
f 917 918 915
f 917 918 915
f 919 920 921
f 919 920 921
f 921 922 919
f 921 922 919
f 923 924 925
f 923 924 925
f 925 926 923
f 925 926 923
f 927 928 929
f 927 928 929
f 929 930 927
f 929 930 927
f 931 932 933
f 931 932 933
f 933 934 931
f 933 934 931
f 935 936 937
f 935 936 937
f 937 938 935
f 937 938 935
f 939 940 941
f 939 940 941
f 941 942 939
f 941 942 939
