v 0.0219661817 -0.0423609316 0.0791767836
v 0.0221456513 -0.0438239872 0.0791735053
v 0.0222112164 -0.0438087285 0.0794235468
v 0.0226974711 -0.0451374352 0.0794205666
v 0.0220335945 -0.0423609912 0.0794267654
v 0.0226371512 -0.0451669395 0.0791705251
v 0.0223903283 -0.0437659919 0.0796066523
v 0.0228622779 -0.0450557172 0.0796037912
v 0.0222178325 -0.0423600972 0.0796098113
v 0.0222112164 -0.0438076556 0.078923583
v 0.0220335945 -0.0423599184 0.0789268017
v 0.0221245512 -0.0408954918 0.0791800618
v 0.0221902952 -0.0409097373 0.0789300203
v 0.0221903548 -0.0409108698 0.0794299841
v 0.02259662 -0.0395455658 0.079183042
v 0.0226573572 -0.0395741761 0.078932941
v 0.0223700032 -0.0409499109 0.0787469149
v 0.0228233561 -0.0396535099 0.0787497759
v 0.0222178325 -0.0423581898 0.0787437558
v 0.0230500922 -0.0397622883 0.0786825418
v 0.0226154551 -0.0410051644 0.0786798
v 0.0237381086 -0.0386633575 0.0786849856
v 0.0235407576 -0.0385076106 0.0787522793
v 0.0233963355 -0.0383938253 0.0789355636
v 0.0244854316 -0.0375492275 0.078754425
v 0.0246441588 -0.0377441347 0.0786870122
v 0.0239353999 -0.0388194621 0.0787516236
v 0.0248029456 -0.0379393399 0.078753531
v 0.0232768878 -0.0398714244 0.078749299
v 0.0249191746 -0.0380825698 0.0789362192
v 0.0240798816 -0.0389340222 0.0789343715
v 0.0259274468 -0.0374309123 0.0789376497
v 0.025845252 -0.0372656882 0.0787550211
v 0.025733076 -0.0370403826 0.0786885619
v 0.0270285234 -0.0368326604 0.0787559748
v 0.0270716771 -0.0370121896 0.0789386034
v 0.0245545134 -0.0471338928 0.0787330866
v 0.0235961303 -0.0461892784 0.0787352324
v 0.0237912163 -0.0460303724 0.0786685944
v 0.0230874643 -0.0449414551 0.0786710382
v 0.0269968137 -0.0483046472 0.078730464
v 0.0284050927 -0.0484568775 0.0787301064
v 0.028406404 -0.0486415327 0.078912735
v 0.0298541412 -0.0484639108 0.0789130926
v 0.0257004127 -0.0478512943 0.0787314773
v 0.0269562826 -0.0484847724 0.0789130926
v 0.0256206617 -0.0480177104 0.0789141655
v 0.0244403705 -0.0472787917 0.0789157748
v 0.026941441 -0.0485511124 0.0791629553
v 0.0234533772 -0.0463059247 0.0789179802
v 0.0228622779 -0.0450538099 0.0787377357
v 0.0284068808 -0.048709482 0.0791625381
v 0.028406404 -0.0486426055 0.0794126987
v 0.0226974711 -0.0451363623 0.0789206028
v 0.0298699364 -0.0485300124 0.0791629553
v 0.0298541412 -0.0484649837 0.0794130564
v 0.029811047 -0.048286289 0.0795965195
v 0.0312129483 -0.0480385125 0.0791640282
v 0.0311829075 -0.047978729 0.0794141293
v 0.0323524699 -0.0472228825 0.0794157982
v 0.0311007723 -0.0478143394 0.0795975327
v 0.0309885368 -0.0475893319 0.0796650052
v 0.0322362408 -0.047080487 0.0795991421
v 0.0331808552 -0.0461221039 0.0796012282
v 0.032077454 -0.0468855798 0.0796665549
v 0.0319186673 -0.0466903746 0.0795999765
v 0.0329835638 -0.045966357 0.0796685815
v 0.0336715207 -0.0448673666 0.0796710253
v 0.0327862129 -0.0458102524 0.0796019435
v 0.0326417312 -0.0456956923 0.0794191957
v 0.0334447846 -0.0447582901 0.0796042681
v 0.0338607058 -0.043568939 0.0796068907
v 0.0332787856 -0.0446781814 0.0794214606
v 0.0332179889 -0.0446483791 0.0791715384
v 0.0336809978 -0.0435279906 0.0794240236
v 0.0338163003 -0.0422761142 0.0794267654
v 0.0336151943 -0.0435126126 0.0791740417
v 0.0336809978 -0.0435268581 0.0789240003
v 0.0337488875 -0.042275995 0.0791767836
v 0.0335973725 -0.0410415232 0.0791795254
v 0.0338163003 -0.0422749817 0.0789268017
v 0.0340004787 -0.0422732532 0.0787437558
v 0.0336629376 -0.0410251319 0.0789295435
v 0.033244215 -0.0398809016 0.0789321065
v 0.0338420495 -0.0409816206 0.0787466168
v 0.034086667 -0.0409224927 0.0786798
v 0.0334090218 -0.0397983491 0.078749299
v 0.0327353701 -0.0387560427 0.0787516236
v 0.0336341485 -0.039686054 0.0786825418
v 0.0338593349 -0.0395739973 0.0787497759
v 0.0329303965 -0.0385971367 0.0786849856
v 0.0320111737 -0.0376910269 0.0786870122
v 0.0331254825 -0.0384385288 0.0787522793
v 0.0332682952 -0.0383226573 0.0789355636
v 0.0321670994 -0.0374938548 0.078754425
v 0.0310212001 -0.0367764533 0.0787560344
v 0.0322813019 -0.0373498499 0.0789377689
v 0.0323230848 -0.0372975171 0.07918787
v 0.0311009511 -0.0366108716 0.0789394379
v 0.0297653303 -0.0361438096 0.0789404511
v 0.0311301574 -0.0365506709 0.079189539
v 0.0311009511 -0.036612004 0.0794394016
v 0.0297802314 -0.0360786021 0.0791906118
v 0.028314732 -0.0359202325 0.0791909695
v 0.0297653899 -0.036144942 0.0794404745
v 0.0297247991 -0.0363250673 0.0796231031
v 0.0283152089 -0.0359881818 0.0794408321
v 0.0268674716 -0.0361658037 0.0794404745
v 0.0283165202 -0.036172837 0.0796234608
v 0.0283183679 -0.036424607 0.0796898603
v 0.0269106254 -0.0363453329 0.0796231031
v 0.0256209001 -0.036817342 0.0796220303
v 0.0269695744 -0.0365901291 0.0796895027
v 0.0270285234 -0.0368346274 0.0796219707
v 0.025733076 -0.037042588 0.079688549
v 0.0246442184 -0.0377463996 0.0796869993
v 0.0258453116 -0.0372675955 0.0796210766
v 0.0259274468 -0.0374320447 0.0794376731
v 0.0248029456 -0.0379413068 0.0796195865
v 0.0239354596 -0.0388213694 0.0796176195
v 0.0249191746 -0.0380836427 0.0794362426
v 0.0249617323 -0.0381353796 0.0791861415
v 0.0240798816 -0.0389351547 0.0794343352
v 0.0234428868 -0.0399526656 0.0794321299
v 0.0241327509 -0.0389763415 0.0791842937
v 0.0235036239 -0.0399812758 0.0791820288
v 0.0231064186 -0.0411171019 0.0791795254
v 0.0234428868 -0.0399515331 0.0789321065
v 0.023040615 -0.0411017239 0.0789295435
v 0.0229053125 -0.0423536003 0.0789268017
v 0.0228609666 -0.0410607755 0.0787466168
v 0.0227211341 -0.0423545539 0.0787437558
v 0.0228795633 -0.0436461866 0.0787408948
v 0.0224694833 -0.0423562229 0.0786767602
v 0.0226349458 -0.0437050164 0.07867378
v 0.0223902687 -0.0437640846 0.0787406564
v 0.0489785895 -0.0147099197 0.0792378187
v 0.0487261042 -0.0126516521 0.0792424083
v 0.0486605391 -0.0126679838 0.0794923902
v 0.0489111766 -0.0147098601 0.0789878368
v 0.0486605391 -0.0126668513 0.0789923668
v 0.0479745492 -0.0107925236 0.0789965391
v 0.0484814271 -0.0127095878 0.0788092613
v 0.0487269387 -0.0147107542 0.078804791
v 0.0478097424 -0.0108742416 0.078813374
v 0.0469081029 -0.00914236903 0.0790002346
v 0.0484752879 -0.0147124231 0.078737855
v 0.0482368097 -0.0127684176 0.0787421465
v 0.0482648239 -0.0166597068 0.0787335038
v 0.0485102758 -0.0167152584 0.0788003802
v 0.0486899838 -0.0167562068 0.0789833069
v 0.0478651151 -0.0185601413 0.0787962675
v 0.047638379 -0.0184510648 0.0787295103
v 0.0480193719 -0.0166043937 0.0788006186
v 0.047411643 -0.0183422267 0.0787967443
v 0.048223637 -0.01471439 0.078804791
v 0.047245644 -0.018262893 0.078979969
v 0.0478396639 -0.0165642798 0.0789837241
v 0.0463050231 -0.0197654068 0.0789766312
v 0.0464494452 -0.0198791921 0.0787933469
v 0.0466467962 -0.0200349391 0.0787259936
v 0.0451820716 -0.0211649239 0.0787905455
v 0.0450658426 -0.021022588 0.0789738297
v 0.0462521538 -0.01972422 0.0792267323
v 0.0450233445 -0.0209708512 0.0792239904
v 0.0471849069 -0.0182342827 0.0792300105
v 0.0450658426 -0.0210236609 0.0794738531
v 0.0463050231 -0.0197665393 0.0794766545
v 0.0435770974 -0.0219858587 0.0794717073
v 0.043546997 -0.0219250023 0.0792218447
v 0.0435770378 -0.0219847858 0.0789717436
v 0.0418713316 -0.0225382149 0.0792205334
v 0.0418871269 -0.0226043165 0.079470396
v 0.0436592326 -0.0221510828 0.0796543956
v 0.0419302806 -0.0227838457 0.0796530247
v 0.0451820716 -0.0211668909 0.0796565413
v 0.0419892296 -0.0230285823 0.0797194242
v 0.0437714085 -0.0223763883 0.0797208548
v 0.0400452241 -0.0232671201 0.0797189474
v 0.040043436 -0.0230152905 0.0796524882
v 0.0400420651 -0.0228306949 0.0794699192
v 0.0412166938 -0.0302167833 0.078953445
v 0.042760931 -0.0292187035 0.0789556503
v 0.0427910313 -0.0292796195 0.079205513
v 0.0445296392 -0.0286433399 0.0792069435
v 0.044513844 -0.0285772383 0.0789570808
v 0.0412592515 -0.030269593 0.0792033672
v 0.0399314389 -0.0315206945 0.0789505839
v 0.044513844 -0.0285783708 0.0794570446
v 0.042760931 -0.029219836 0.0794556737
v 0.0464275703 -0.0283435285 0.079457581
v 0.0464280471 -0.0284104049 0.0792074203
v 0.0464275703 -0.0283424556 0.0789575577
v 0.0444706902 -0.0283977091 0.0787744522
v 0.0483296737 -0.0286159217 0.0792069435
v 0.0483445153 -0.0285507143 0.0794570446
v 0.046426259 -0.0281597674 0.0796409845
v 0.048385106 -0.0283714235 0.0796404481
v 0.0444706902 -0.0283996761 0.0796404481
v 0.0484404787 -0.0281261504 0.0797079802
v 0.0464244708 -0.0279082358 0.0797085166
v 0.0502951369 -0.0287747085 0.0797065496
v 0.0501862392 -0.0290013254 0.0796390176
v 0.0501064882 -0.0291669071 0.0794556737
v 0.0517791137 -0.0299985111 0.0796368122
v 0.0519350395 -0.0298013389 0.0797042251
v 0.0504040942 -0.0285477936 0.0796400309
v 0.0520909652 -0.0296038687 0.0796376467
v 0.0484959111 -0.0278805196 0.0796415806
v 0.0522051081 -0.0294590294 0.0794549584
v 0.0504838452 -0.0283814371 0.0794574022
v 0.0536446199 -0.0308778584 0.0794517994
v 0.0535018072 -0.0309945047 0.0796345472
v 0.0533067212 -0.0311534107 0.0797011852
v 0.0545820817 -0.0326659381 0.0796308517
v 0.0547468886 -0.0325834453 0.0794479847
v 0.0536968336 -0.0308347642 0.0792018771
v 0.0548072085 -0.0325528085 0.0791980624
v 0.052246891 -0.0294055641 0.0792050958
v 0.0547468886 -0.0325823128 0.0789480209
v 0.0536445603 -0.0308767259 0.078951776
v 0.0554558858 -0.0345196426 0.0789436698
v 0.0555214509 -0.0345044434 0.0791937113
v 0.0554558858 -0.0345207751 0.0794436932
v 0.0408846363 -0.0437928736 0.0787402987
v 0.0394737944 -0.0424022377 0.0787433982
v 0.0396688804 -0.0422433317 0.0786767602
v 0.0386187062 -0.0406184494 0.0786803961
v 0.0444796905 -0.0455162227 0.0787363648
v 0.0465529785 -0.0457403362 0.0787358284
v 0.0465542898 -0.0459249318 0.078918457
v 0.0486659631 -0.04566589 0.0789189935
v 0.0425715074 -0.0448489487 0.0787379146
v 0.0444391593 -0.045696348 0.0789189935
v 0.0424917564 -0.0450153649 0.0789205432
v 0.0407704934 -0.0439377725 0.078922987
v 0.0444243178 -0.0457626879 0.0791688561
v 0.0393310413 -0.0425188839 0.078926146
v 0.0383935198 -0.0407308042 0.0787471533
v 0.0465548262 -0.0459929407 0.0791683197
v 0.0465542898 -0.0459260643 0.0794184804
v 0.038228713 -0.040813297 0.0789299607
v 0.0486817583 -0.0457319915 0.0791688561
v 0.0486659631 -0.0456669629 0.0794190168
v 0.0486228094 -0.0454882681 0.0796024203
v 0.0506333932 -0.0450177491 0.0791704059
v 0.0506033525 -0.0449579656 0.0794205666
v 0.0523088798 -0.0438556969 0.0794229507
v 0.0505212173 -0.044793576 0.0796039104
v 0.0504089817 -0.0445685685 0.0796714425
v 0.0521926507 -0.0437133014 0.0796062946
v 0.0535832867 -0.0423024595 0.0796093941
v 0.0520339236 -0.0435183942 0.0796737075
v 0.0518751368 -0.043323189 0.0796071887
v 0.0533859953 -0.0421467125 0.0796767473
v 0.0544126257 -0.0405068099 0.0796803832
v 0.0531886443 -0.041990608 0.0796101093
v 0.0530442223 -0.0418760478 0.0794273615
v 0.0541858897 -0.0403977334 0.079613626
v 0.0548157319 -0.0385966003 0.0796176195
v 0.0540198907 -0.0403175652 0.0794308186
v 0.053959094 -0.0402878225 0.0791808963
v 0.0546360239 -0.0385556519 0.0794346929
v 0.0548432097 -0.0366387069 0.0794389844
v 0.05457028 -0.0385402143 0.0791847706
v 0.0546360239 -0.0385545194 0.0789347291
v 0.0547757968 -0.0366386473 0.0791890025
v 0.0545428619 -0.0347401798 0.0791931748
v 0.0548432097 -0.0366375744 0.078938961
v 0.0550274476 -0.0366358459 0.0787559748
v 0.054608427 -0.0347238481 0.0789432526
v 0.0539669022 -0.0329709947 0.0789471269
v 0.0547874793 -0.0346802771 0.0787603259
v 0.0550321564 -0.0346212089 0.0786934495
v 0.0541317686 -0.0328884423 0.0787643194
v 0.0531116948 -0.0313101113 0.0787678361
v 0.0543568954 -0.0327760875 0.0786975622
v 0.0545820817 -0.0326640308 0.0787647963
v 0.0533067212 -0.0311512053 0.0787011981
v 0.0519350395 -0.0297991335 0.0787042379
v 0.0535018072 -0.0309925973 0.0787685513
v 0.0520909652 -0.0296019614 0.0787716508
v 0.0504040942 -0.0285458863 0.078774035
v 0.0522051081 -0.0294578969 0.0789549947
v 0.0504838452 -0.0283803046 0.0789573789
v 0.0485364422 -0.0276993215 0.0789589286
v 0.0505130515 -0.0283201039 0.0792075396
v 0.0485513434 -0.027634114 0.0792090893
v 0.046420835 -0.0274038017 0.0792096257
v 0.0485365018 -0.0277003944 0.079458952
v 0.0464213118 -0.0274718106 0.0794594884
v 0.0443096384 -0.0277308524 0.079458952
v 0.0464226231 -0.0276564658 0.079642117
v 0.0443527922 -0.0279103816 0.0796415806
v 0.0424544439 -0.0286051333 0.0796400309
v 0.0444117412 -0.0281551778 0.0797079802
v 0.0425666198 -0.0288303792 0.0797065496
v 0.0409417376 -0.0298805535 0.0797042251
v 0.0426788554 -0.0290553868 0.0796390176
v 0.0411004648 -0.0300754607 0.0796368122
v 0.0397869572 -0.0314081013 0.079633832
v 0.0412166938 -0.0302178562 0.0794534683
v 0.0399314389 -0.031521827 0.0794506073
v 0.0389557704 -0.0330803096 0.0794471502
v 0.0399843082 -0.0315630734 0.0792005062
v 0.0390165076 -0.0331089199 0.0791970491
v 0.0384053811 -0.034856528 0.0791931748
v 0.0389557108 -0.0330791771 0.0789471269
v 0.0387897715 -0.0329990089 0.0787643194
v 0.0383395776 -0.0348410904 0.0789432526
v 0.0381323919 -0.0367580354 0.078938961
v 0.0381598696 -0.034800142 0.0787603259
v 0.0379144177 -0.0347445905 0.0786934495
v 0.0379481539 -0.0367589891 0.0787559748
v 0.0381881222 -0.0387144983 0.0787516236
v 0.0376965031 -0.0367605984 0.0786889791
v 0.0374448523 -0.0367625654 0.0787559748
v 0.0379434451 -0.0387733281 0.0786845088
v 0.0376988277 -0.0388323963 0.0787513852
v 0.0375197157 -0.0388759673 0.0789342523
v 0.0309894308 -0.0148395598 0.0792378187
v 0.0312419757 -0.0168978274 0.0792332292
v 0.0313075408 -0.0168826282 0.0794832706
v 0.0319934711 -0.0187570155 0.0794790983
v 0.0310568437 -0.0148396194 0.0794878006
v 0.0319331512 -0.0187865198 0.0792290568
v 0.0314865932 -0.0168398917 0.0796663761
v 0.0321582779 -0.0186752975 0.0796622634
v 0.0312410817 -0.0148387253 0.0796708465
v 0.0313074812 -0.0168814957 0.0789833069
v 0.0310568437 -0.0148385465 0.0789878368
v 0.031212233 -0.0127778947 0.0792424083
v 0.0312780365 -0.0127921402 0.0789923668
v 0.0312780365 -0.0127932727 0.0794923902
v 0.0318761095 -0.0108794868 0.0792466402
v 0.0319369063 -0.010908097 0.0789965391
v 0.0314577445 -0.0128323138 0.0788092613
v 0.0321029052 -0.0109874308 0.078813374
v 0.0312410817 -0.014836818 0.078804791
v 0.0323296413 -0.0110962093 0.07874614
v 0.0317031965 -0.0128875673 0.0787421465
v 0.0333212242 -0.00951233506 0.0787496567
v 0.0331239328 -0.00935652852 0.0788169503
v 0.0329794511 -0.00924280286 0.0790002346
v 0.0344684348 -0.00799247622 0.0788199902
v 0.0346271619 -0.00818738341 0.0787525773
v 0.0335185751 -0.00966838002 0.0788162947
v 0.0347859487 -0.00838258862 0.0788190961
v 0.0325563774 -0.0112052858 0.0788128376
v 0.0349021778 -0.00852581859 0.0790017843
v 0.0336629972 -0.00978294015 0.0789990425
v 0.0363909826 -0.00756362081 0.0790039301
v 0.0363088474 -0.00739839673 0.0788212419
v 0.0361966118 -0.00717309117 0.0787547827
v 0.0380377397 -0.00676569343 0.0788226724
v 0.0380808935 -0.00694516301 0.0790052414
v 0.0381533727 -0.0228110254 0.0796530247
v 0.038098 -0.0230566561 0.0797194242
v 0.0400470719 -0.0235185921 0.0796514153
v 0.0380425677 -0.0233019888 0.0796518922
v 0.0420481786 -0.0232730806 0.0796518922
v 0.0380019769 -0.0234812796 0.0794684887
v 0.0400483832 -0.0237024128 0.0794679523
v 0.0361179337 -0.0228224099 0.0794699788
v 0.0361976847 -0.0226568282 0.0796533823
v 0.0363065824 -0.0224302113 0.0797208548
v 0.0345667228 -0.0216358006 0.0796556473
v 0.0344525799 -0.021779865 0.079472363
v 0.0360887274 -0.0228826106 0.0792198777
v 0.0344107971 -0.0218321383 0.0792222023
v 0.0379871354 -0.0235464871 0.079218328
v 0.0344525799 -0.0217787325 0.0789723396
v 0.0361179337 -0.0228212774 0.078970015
v 0.0330599174 -0.020405978 0.0789754391
v 0.0330076441 -0.0204490721 0.0792253017
v 0.0330599174 -0.0204071105 0.0794754028
v 0.0319934711 -0.018755883 0.078979075
v 0.0332027301 -0.0202912986 0.0796586871
v 0.0347227082 -0.0214386284 0.0797231197
v 0.0333977565 -0.0201326907 0.0797260404
v 0.0323834643 -0.0185632408 0.0797294974
v 0.0364155397 -0.0222032964 0.0796543956
v 0.0348786339 -0.0212411582 0.0796565413
v 0.0335928425 -0.0199737847 0.0796594024
v 0.0317312703 -0.0167810619 0.0797334909
v 0.032608591 -0.018450886 0.0796627998
v 0.0381939635 -0.0226309597 0.079470396
v 0.0364952907 -0.0220369399 0.0794717073
v 0.0400415882 -0.022762686 0.0792200565
v 0.038208805 -0.0225646198 0.0792205334
v 0.0349927768 -0.0210962594 0.0794738531
v 0.036524497 -0.0219756067 0.0792218447
v 0.0337356552 -0.0198571384 0.0794766545
v 0.0350345597 -0.0210428536 0.0792239904
v 0.0327734575 -0.0183683336 0.0794799328
v 0.0337878689 -0.0198140442 0.0792267323
v 0.0319758877 -0.0167219937 0.0796666145
v 0.0314927325 -0.0148370564 0.0797378421
v 0.0314577445 -0.0128342211 0.0796753168
v 0.0319369063 -0.0109092295 0.0794965625
v 0.0329265818 -0.00920155644 0.0792503357
v 0.0343522057 -0.00785014033 0.079003334
v 0.0360844359 -0.00694808364 0.0788222551
v 0.0379787907 -0.00652089715 0.0787562132
v 0.0399246439 -0.00653418899 0.0788231492
v 0.0399259552 -0.00671878457 0.0790057182
v 0.0417741165 -0.00691857934 0.0790052414
v 0.0417592153 -0.0069848597 0.0792551041
v 0.043443583 -0.0075738728 0.0792537928
v 0.0434727296 -0.00751367211 0.0795038939
v 0.0449752435 -0.00845429301 0.0795018077
v 0.045089446 -0.00831028819 0.0796851516
v 0.0463752374 -0.00957766175 0.0796822906
v 0.0465702638 -0.00941905379 0.0797496438
v 0.0475846156 -0.0109885037 0.0797461271
v 0.0478097424 -0.0108761489 0.0796793699
v 0.0484814271 -0.0127115548 0.0796753168
v 0.0489111766 -0.014710933 0.0794878006
v 0.0487557873 -0.0167716444 0.0792332292
v 0.048031114 -0.0186403096 0.078979075
v 0.0468440875 -0.0201910436 0.0787926316
v 0.0453408584 -0.0213598311 0.078723073
v 0.043659173 -0.0221491754 0.0787883401
v 0.0418871269 -0.022603184 0.0789703727
v 0.0400420651 -0.0228295624 0.0789698958
v 0.0419302806 -0.0227818787 0.0787869692
v 0.0437714085 -0.0223741829 0.0787208676
v 0.0454996452 -0.0215550363 0.0787896514
v 0.0381939635 -0.0226298273 0.0789703727
v 0.0400433764 -0.0230133832 0.0787864923
v 0.0419892296 -0.023026377 0.0787194371
v 0.0438835844 -0.0225994885 0.0787873268
v 0.0364952907 -0.0220358074 0.0789717436
v 0.0381533727 -0.022809118 0.0787869692
v 0.0400452241 -0.0232649148 0.0787189603
v 0.0420481786 -0.0232711732 0.0787858963
v 0.0349927768 -0.0210951865 0.0789738297
v 0.0364155397 -0.0222013891 0.0787883401
v 0.0380979404 -0.0230544508 0.0787194371
v 0.0400470123 -0.0235166848 0.0787853599
v 0.0420913324 -0.0234506428 0.0789685249
v 0.0439657196 -0.0227647126 0.078970015
v 0.0456158742 -0.0216982663 0.0789723396
v 0.0469885692 -0.0203056037 0.0789754391
v 0.0480919108 -0.0186700523 0.0792290568
v 0.0470414385 -0.020347923 0.0792253017
v 0.0456583723 -0.021751076 0.0792222023
v 0.0439957604 -0.0228256285 0.0792198777
v 0.0486899838 -0.0167573392 0.0794832706
v 0.0480311736 -0.0186413825 0.0794790983
v 0.0469885692 -0.0203067362 0.0794754028
v 0.0456158742 -0.0216993988 0.079472363
v 0.0487269387 -0.0147126615 0.0796708465
v 0.0485103354 -0.0167171657 0.0796663761
v 0.0478651747 -0.0185620487 0.0796622634
v 0.0468441471 -0.020192951 0.0796586871
v 0.0482368097 -0.012770623 0.0797421336
v 0.0484752879 -0.0147146285 0.0797378421
v 0.0482648239 -0.0166619122 0.0797334909
v 0.047638379 -0.0184532702 0.0797294974
v 0.0473594293 -0.0111005604 0.0796788931
v 0.0479921326 -0.0128294528 0.0796750188
v 0.048223637 -0.0147162974 0.0796708465
v 0.0480193719 -0.0166063607 0.0796666145
v 0.0462324247 -0.00969347358 0.0794990063
v 0.0471946225 -0.0111822784 0.0794956684
v 0.0478130803 -0.0128721893 0.0794919133
v 0.0480394587 -0.0147172511 0.0794878006
v 0.0449334607 -0.00850662589 0.0792517066
v 0.0461801514 -0.00973543525 0.0792489052
v 0.0471343026 -0.0112117827 0.0792456269
v 0.0477475151 -0.0128873885 0.0792418718
v 0.0434727296 -0.00751259923 0.0790039301
v 0.0449752435 -0.00845322013 0.0790017843
v 0.0462324247 -0.00969234109 0.0789990425
v 0.0471946225 -0.0111811459 0.0789957047
v 0.0418146476 -0.0067384541 0.0788226724
v 0.0435524806 -0.00734618306 0.0788212419
v 0.0450893864 -0.00830832124 0.0788190961
v 0.0463751778 -0.0095757544 0.0788162947
v 0.0399227962 -0.00628235936 0.07875669
v 0.0418700799 -0.00649282336 0.0787562132
v 0.0436614379 -0.00711926818 0.0787547827
v 0.0452453718 -0.00811085105 0.0787525773
v 0.0379198417 -0.0062763989 0.0788237453
v 0.0399210081 -0.00603088737 0.0788242817
v 0.0419254526 -0.00624749064 0.0788237453
v 0.0437703952 -0.00689265132 0.0788222551
v 0.0360023007 -0.00678363442 0.0790056586
v 0.0378766879 -0.00609770417 0.0790071487
v 0.0399196967 -0.00584706664 0.0790076852
v 0.0419660434 -0.00606819987 0.0790071487
v 0.034309648 -0.0077984035 0.0792534351
v 0.0359722599 -0.00672385097 0.0792558193
v 0.0378608927 -0.00603273511 0.0792573094
v 0.0399191603 -0.00578019023 0.0792578459
v 0.0329794511 -0.00924387574 0.079500258
v 0.0343522057 -0.00785121322 0.0795032978
v 0.0360023007 -0.00678476691 0.079505682
v 0.0378766879 -0.00609883666 0.0795071721
v 0.0321029052 -0.0109893382 0.0796793699
v 0.0331239328 -0.00935843587 0.0796830058
v 0.0344684348 -0.00799444318 0.079685986
v 0.0360844359 -0.00694999099 0.0796883106
v 0.0317031965 -0.0128898323 0.0797421336
v 0.0323296413 -0.0110984743 0.0797461271
v 0.0333212242 -0.00951454043 0.0797496438
v 0.0346271619 -0.00818964839 0.0797525644
v 0.0317443833 -0.0148350894 0.0796708465
v 0.0319486484 -0.0129450858 0.0796750188
v 0.0325563774 -0.0112072527 0.0796788931
v 0.0335185751 -0.00967034698 0.0796822906
v 0.0321549997 -0.0166784227 0.0794837475
v 0.0319286212 -0.0148333609 0.0794878006
v 0.0321283564 -0.0129852593 0.0794919133
v 0.0327223763 -0.0112865865 0.0794956684
v 0.0328337774 -0.0183376968 0.0792300105
v 0.0322205052 -0.016662091 0.0792337656
v 0.0319960341 -0.0148323476 0.0792378187
v 0.0321941599 -0.0129995048 0.0792418718
v 0.0337355956 -0.0198560059 0.0789766312
v 0.0327733979 -0.0183672011 0.078979969
v 0.0321549997 -0.0166772902 0.0789837241
v 0.0319286212 -0.0148322284 0.0789878368
v 0.0348786339 -0.0212391913 0.0787905455
v 0.0335928425 -0.0199718177 0.0787933469
v 0.032608591 -0.0184489787 0.0787967443
v 0.0319758877 -0.0167200267 0.0788006186
v 0.0363065824 -0.0224280059 0.0787208676
v 0.0347226486 -0.0214363635 0.078723073
v 0.0333977565 -0.0201304257 0.0787259936
v 0.0323834643 -0.0185609758 0.0787295103
v 0.0380425677 -0.0233000219 0.0787858963
v 0.0361976251 -0.0226548612 0.0787873268
v 0.0345667228 -0.0216338933 0.0787896514
v 0.0445905551 -0.0450272262 0.0796034932
v 0.0465493426 -0.0452389419 0.0796030164
v 0.0465480313 -0.0450542867 0.0794203877
v 0.0445351228 -0.045272857 0.0796699524
v 0.0465511903 -0.0454907119 0.079669416
v 0.0485638604 -0.0452437699 0.0796699524
v 0.0465529785 -0.0457422435 0.0796018839
v 0.0444796905 -0.0455181301 0.0796024203
v 0.0444391593 -0.0456974208 0.0794190168
v 0.0424917564 -0.0450164378 0.0794205666
v 0.0425715074 -0.0448508561 0.0796039104
v 0.0426804647 -0.0446242392 0.0796714425
v 0.0408846363 -0.043794781 0.0796062946
v 0.0407704934 -0.0439388454 0.0794229507
v 0.0424626097 -0.0450766385 0.0791704059
v 0.0407287106 -0.0439911783 0.0791728497
v 0.039278768 -0.0425619781 0.0791760683
v 0.0393310413 -0.0425200164 0.0794261694
v 0.0381683931 -0.0408439338 0.079179883
v 0.038228713 -0.0408144295 0.0794299841
v 0.039473854 -0.042404145 0.0796093941
v 0.0383935794 -0.0407327116 0.0796131492
v 0.0410406217 -0.0435976088 0.0796737075
v 0.0396688804 -0.042245537 0.0796767473
v 0.0386187062 -0.0406206548 0.0796803832
v 0.0376988277 -0.0388343632 0.0796173811
v 0.042789422 -0.0443973839 0.0796049237
v 0.0411965474 -0.0434001386 0.0796071887
v 0.0398639664 -0.0420866311 0.0796101093
v 0.0379434451 -0.0387755334 0.0796844959
v 0.0374449119 -0.0367645323 0.0796219707
v 0.0388438925 -0.0405083001 0.079613626
v 0.0446310863 -0.044847101 0.0794208646
v 0.042869173 -0.0442309678 0.0794222951
v 0.0465475544 -0.0449863374 0.0791705251
v 0.0484459624 -0.0447534025 0.0791710615
v 0.0446459278 -0.0447808206 0.0791710615
v 0.0413106903 -0.0432552993 0.0794245005
v 0.0428983197 -0.0441696346 0.0791724324
v 0.0400067195 -0.0419699848 0.0794273615
v 0.0413524732 -0.0432018936 0.0791745782
v 0.0390086994 -0.0404257476 0.0794308186
v 0.0400589928 -0.0419268906 0.0791774392
v 0.0381881222 -0.0387164652 0.0796176195
v 0.0376965627 -0.0367628634 0.0796889663
v 0.0376689658 -0.0346912444 0.0796266198
v 0.0374892578 -0.034650296 0.0794436932
v 0.0381702408 -0.032702893 0.0794479847
v 0.0381095037 -0.0326731503 0.0791980624
v 0.0391949639 -0.0309393108 0.0792018771
v 0.0392478332 -0.0309804976 0.078951776
v 0.0406667218 -0.0295410454 0.0789549947
v 0.0407829508 -0.0296834409 0.0787716508
v 0.0424544439 -0.0286031663 0.078774035
v 0.0425666198 -0.0288281739 0.0787065625
v 0.0444117412 -0.0281529725 0.078707993
v 0.046426259 -0.0281578004 0.078774929
v 0.0483445153 -0.0285496414 0.0789570808
v 0.0500772819 -0.0292271078 0.079205513
v 0.0516649112 -0.0301425755 0.0794534683
v 0.0531116948 -0.0313120186 0.079633832
v 0.0543568954 -0.0327782929 0.0796975493
v 0.0552767739 -0.0345643461 0.0796266198
v 0.0557149872 -0.0366324484 0.0794389844
v 0.0557824001 -0.0366313756 0.0791890025
v 0.0555521473 -0.038761884 0.0791842341
v 0.0554863438 -0.0387464464 0.0789342523
v 0.0548053607 -0.0406938493 0.0789299607
v 0.0546393618 -0.0406136811 0.0787471533
v 0.0535832867 -0.0423005521 0.0787433982
v 0.0533859953 -0.0421444476 0.0786767602
v 0.052033864 -0.0435161889 0.0786737204
v 0.0518751368 -0.0433212817 0.0787411332
v 0.0502968058 -0.0443413556 0.0787389278
v 0.0502146706 -0.0441769063 0.0789222717
v 0.0484617576 -0.0448183715 0.0789209008
v 0.0465480313 -0.0450532138 0.078920424
v 0.0485049114 -0.0449970663 0.0787374973
v 0.0504089817 -0.0445663631 0.0786713958
v 0.0521926507 -0.0437113941 0.0787402987
v 0.0446310863 -0.0448460281 0.0789209008
v 0.0465493426 -0.0452370346 0.0787369609
v 0.0485638604 -0.0452415645 0.0786699653
v 0.0505211577 -0.0447916687 0.0787379146
v 0.042869173 -0.0442298353 0.0789222717
v 0.0445905551 -0.0450253189 0.0787374973
v 0.0465511903 -0.0454885066 0.0786694288
v 0.0486228094 -0.0454863608 0.0787363648
v 0.0413106903 -0.0432541668 0.0789244771
v 0.042789422 -0.044395417 0.0787389278
v 0.0445351228 -0.045270592 0.0786699653
v 0.0506032929 -0.0449568927 0.0789205432
v 0.0523088798 -0.0438545644 0.078922987
v 0.0537277684 -0.0424151123 0.078926146
v 0.0548660979 -0.040723592 0.079179883
v 0.0537806377 -0.0424574316 0.0791760683
v 0.0523514375 -0.0439073741 0.0791728497
v 0.0554863438 -0.0387475789 0.0794342756
v 0.0548053607 -0.0406949222 0.0794299841
v 0.0537277684 -0.0424162447 0.0794261694
v 0.0555307493 -0.036634177 0.0796219707
v 0.0553066358 -0.0387074053 0.0796173811
v 0.0546393618 -0.0406155884 0.0796131492
v 0.0550321564 -0.0346234143 0.0796934366
v 0.0552790985 -0.0366361439 0.0796889663
v 0.0550611839 -0.0386521518 0.0796844959
v 0.0541317686 -0.0328903496 0.0796303153
v 0.0547875389 -0.0346822441 0.0796263218
v 0.0550274476 -0.0366377532 0.0796219707
v 0.052968882 -0.0314278305 0.0794506073
v 0.0539669022 -0.0329720676 0.0794471502
v 0.054608427 -0.0347249806 0.0794432163
v 0.0516231284 -0.0301948488 0.0792033672
v 0.0529166088 -0.0314698517 0.0792005062
v 0.0539065823 -0.0330015719 0.0791970491
v 0.0501064286 -0.0291657746 0.0789556503
v 0.0516649112 -0.030141443 0.078953445
v 0.052968882 -0.0314267576 0.0789505839
v 0.0483850464 -0.0283695161 0.0787744522
v 0.0501861796 -0.0289993584 0.0787730217
v 0.0517790541 -0.0299966037 0.0787707567
v 0.0464244112 -0.0279060304 0.0787085295
v 0.0484404787 -0.0281238854 0.078707993
v 0.0502951369 -0.0287725031 0.0787065625
v 0.0443527922 -0.0279084742 0.0787755251
v 0.0464226231 -0.0276544988 0.0787760615
v 0.0484959111 -0.0278786123 0.0787755251
v 0.0423723087 -0.0284387767 0.0789573789
v 0.0443096384 -0.0277297795 0.0789589286
v 0.0464213118 -0.0274706781 0.078959465
v 0.040624164 -0.0294893682 0.0792050958
v 0.0423422083 -0.0283789933 0.0792075396
v 0.0442938432 -0.0276647508 0.0792090893
v 0.0392478332 -0.0309816301 0.0794517994
v 0.0406667218 -0.0295421779 0.0794549584
v 0.0423723087 -0.0284398496 0.0794574022
v 0.0383362398 -0.0327830613 0.0796308517
v 0.0393923149 -0.0310961902 0.0796345472
v 0.0407829508 -0.0296853483 0.0796376467
v 0.0379144177 -0.0347467959 0.0796934366
v 0.0385630354 -0.0328921378 0.0796975493
v 0.0395896658 -0.0312522948 0.0797011852
v 0.0379482135 -0.0367608964 0.0796219707
v 0.0381599292 -0.0348020494 0.0796263218
v 0.0387897715 -0.0330009162 0.0796303153
v 0.0383671746 -0.0386728942 0.0794346929
v 0.0381323919 -0.0367591679 0.0794389844
v 0.0383395776 -0.0348422229 0.0794432163
v 0.0390690193 -0.0403951705 0.0791808963
v 0.0384327397 -0.0386565626 0.0791847706
v 0.0381998643 -0.036758095 0.0791890025
v 0.0400067195 -0.0419689119 0.0789273381
v 0.0390086994 -0.0404246747 0.0789307952
v 0.0383671746 -0.0386717618 0.0789347291
v 0.0411965474 -0.0433982313 0.0787411332
v 0.0398639068 -0.0420847237 0.0787441134
v 0.0388438329 -0.0405063927 0.0787476301
v 0.0426804647 -0.0446220338 0.0786713958
v 0.0410405621 -0.0435954034 0.0786737204
v 0.0371932015 -0.0367653668 0.0791890025
v 0.0374541506 -0.0388922989 0.0791842341
v 0.0375197157 -0.0388770998 0.0794342756
v 0.0372606739 -0.0367654264 0.0794389844
v 0.0372606739 -0.0367643535 0.078938961
v 0.0374235138 -0.0346348584 0.0791937113
v 0.0374892578 -0.0346491635 0.0789436698
v 0.0381702408 -0.0327018201 0.0789480209
v 0.0376689658 -0.034689337 0.0787605643
v 0.0383362398 -0.0327811539 0.0787647963
v 0.0385629758 -0.0328899324 0.0786975622
v 0.0395896062 -0.0312500894 0.0787011981
v 0.0393923149 -0.0310942829 0.0787685513
v 0.0409417376 -0.0298783481 0.0787042379
v 0.0397869572 -0.0314061344 0.0787678361
v 0.0411004648 -0.0300735533 0.0787707567
v 0.0426787958 -0.0290534794 0.0787730217
v 0.0259574875 -0.0374918282 0.0791875124
v 0.0270874724 -0.0370782912 0.0791884661
v 0.0270716771 -0.0370132625 0.0794385672
v 0.0283215269 -0.0368599594 0.0794389248
v 0.0283220038 -0.0369268358 0.0791887641
v 0.0283214673 -0.0368588269 0.0789389014
v 0.0295585617 -0.0370604694 0.0791884661
v 0.0295734033 -0.0369952619 0.0794385672
v 0.028320156 -0.0366761386 0.0796223283
v 0.0296139941 -0.0368159711 0.0796219707
v 0.0296693668 -0.0365706384 0.0796895027
v 0.0309122428 -0.0370052755 0.079688549
v 0.0308033451 -0.0372318923 0.0796210766
v 0.0307235941 -0.0373974741 0.0794376731
v 0.0318552479 -0.0378904641 0.0796195865
v 0.0320111737 -0.0376932919 0.0796869993
v 0.0310212001 -0.0367783606 0.0796220303
v 0.032167159 -0.0374958217 0.0796204209
v 0.0322813019 -0.0373509228 0.0794377327
v 0.0332682952 -0.0383237898 0.0794355869
v 0.0331254825 -0.0384404361 0.0796183348
v 0.0329304561 -0.0385993421 0.0796849728
v 0.0338593349 -0.0395759046 0.0796157718
v 0.0340241417 -0.0394933522 0.0794329643
v 0.0333205685 -0.0382806957 0.0791856647
v 0.0340845212 -0.0394627154 0.079183042
v 0.0340241417 -0.0394922793 0.078932941
v 0.0345103964 -0.0408209264 0.0789300203
v 0.0345759615 -0.0408057272 0.0791800618
v 0.0345103964 -0.0408220589 0.0794299841
v 0.0364210233 -0.00762447715 0.0792537928
v 0.0380966887 -0.00701126456 0.0792551041
v 0.0349447355 -0.0085786283 0.0792517066
v 0.0380808935 -0.0069462955 0.0795052648
v 0.0363909826 -0.00756475329 0.0795038939
v 0.0399259552 -0.00671991706 0.0795057416
v 0.0399264321 -0.00678679347 0.0792555809
v 0.0417741165 -0.00691965222 0.0795052648
v 0.0399246439 -0.00653609633 0.0796891451
v 0.0418146476 -0.00674036145 0.0796886683
v 0.0380377397 -0.00676760077 0.0796886683
v 0.0418700799 -0.00649502873 0.0797562003
v 0.0399227962 -0.00628462434 0.0797566772
v 0.0436614379 -0.00712147355 0.0797547698
v 0.0435524806 -0.00734809041 0.0796872973
v 0.0452453718 -0.00811311603 0.0797525644
v 0.0437703952 -0.00689461827 0.0796883106
v 0.0454012975 -0.00791564584 0.079685986
v 0.0419255123 -0.0062494576 0.0796897411
v 0.0455154404 -0.00777074695 0.0795032978
v 0.0438501462 -0.0067282021 0.079505682
v 0.0469081029 -0.00914350152 0.079500258
v 0.0467653498 -0.00926014781 0.0796830058
v 0.0479746088 -0.0107935965 0.0794965625
v 0.0469603762 -0.00910040736 0.0792503357
v 0.0480349287 -0.0107629597 0.0792466402
v 0.0455572233 -0.00771734118 0.0792534351
v 0.0271076784 -0.0478156507 0.0795975924
v 0.0284014568 -0.0479554832 0.0795972347
v 0.0284001455 -0.0477708876 0.0794146657
v 0.027052246 -0.0480612814 0.0796640515
v 0.0284033045 -0.0482073128 0.0796636939
v 0.029752098 -0.0480418503 0.0796640515
v 0.0284050927 -0.0484587848 0.0795961022
v 0.0269968137 -0.0483066142 0.0795965195
v 0.0269562826 -0.0484859049 0.0794130564
v 0.0256207213 -0.0480188429 0.0794141293
v 0.0257004723 -0.0478532612 0.0795975327
v 0.02580937 -0.0476266444 0.0796650052
v 0.0245545134 -0.0471358597 0.0795991421
v 0.0244403705 -0.0472798645 0.0794157982
v 0.025591515 -0.0480790436 0.0791640282
v 0.0243985876 -0.0473321974 0.0791656971
v 0.0234011039 -0.0463490188 0.0791679025
v 0.0234533772 -0.0463069975 0.0794180036
v 0.0235961303 -0.0461911857 0.0796012282
v 0.0247104391 -0.0469386876 0.0796665549
v 0.0237912163 -0.0460325778 0.0796685815
v 0.0230874643 -0.0449436605 0.0796710253
v 0.0259183273 -0.0473997295 0.079598546
v 0.0248663649 -0.0467412174 0.0795999765
v 0.0239862427 -0.0458736718 0.0796019435
v 0.0226349458 -0.0437072217 0.0796737671
v 0.023312591 -0.0448313653 0.0796042681
v 0.0271482095 -0.0476355851 0.0794149637
v 0.0259980783 -0.0472333729 0.0794158578
v 0.0283996686 -0.0477028787 0.079164803
v 0.0296341404 -0.0475514233 0.0791651011
v 0.0271631107 -0.0475692451 0.0791651011
v 0.0249805674 -0.0465963185 0.0794172883
v 0.0260272846 -0.0471720397 0.0791659951
v 0.0241290554 -0.0457570255 0.0794191957
v 0.0250222906 -0.0465429127 0.0791674256
v 0.0234774575 -0.0447488129 0.0794214606
v 0.0241813287 -0.0457139313 0.0791692734
v 0.0228796229 -0.0436480939 0.0796068907
v 0.0224694833 -0.0423584282 0.0796767473
v 0.0223700032 -0.0409518182 0.0796129107
v 0.0226573572 -0.0395753086 0.0794329643
v 0.0233434662 -0.0383526385 0.0791856647
v 0.0243692026 -0.037406832 0.0789377689
v 0.0256209001 -0.0368153751 0.0787560344
v 0.0269695744 -0.0365878642 0.0786895156
v 0.028320156 -0.0366742313 0.0787563324
v 0.0295734033 -0.0369941294 0.0789386034
v 0.0306943879 -0.0374576747 0.0791875124
v 0.031741105 -0.0380344689 0.0794362426
v 0.0327353701 -0.0387579501 0.0796176195
v 0.0336342081 -0.0396882594 0.079682529
v 0.0343313441 -0.0408656299 0.0796129107
v 0.0346880183 -0.0422697961 0.0794267654
v 0.0347554907 -0.0422687829 0.0791767836
v 0.0345970616 -0.0437342227 0.0791735053
v 0.0345313177 -0.0437188447 0.078923583
v 0.0340642557 -0.0450544059 0.0789206028
v 0.0338982567 -0.0449742377 0.0787377357
v 0.0331808552 -0.0461201966 0.0787352324
v 0.0329835042 -0.045964092 0.0786685944
v 0.032077454 -0.0468833148 0.0786665678
v 0.0319186673 -0.0466884077 0.0787339807
v 0.0308763608 -0.047362119 0.0787324905
v 0.0307942256 -0.0471976697 0.078915894
v 0.0296499357 -0.0476163924 0.0789149404
v 0.0284001455 -0.0477697551 0.0789146423
v 0.0296930894 -0.0477950871 0.0787315369
v 0.0309885368 -0.0475870669 0.0786650181
v 0.0322361812 -0.0470785201 0.0787330866
v 0.0271482095 -0.0476344526 0.0789149404
v 0.0284014568 -0.0479535758 0.0787312388
v 0.0297520384 -0.0480395854 0.0786640048
v 0.0311007127 -0.0478123724 0.0787314773
v 0.0259980783 -0.0472322404 0.078915894
v 0.0271076784 -0.0478137434 0.0787315369
v 0.0284032449 -0.0482050478 0.0786637068
v 0.0298109874 -0.0482843816 0.078730464
v 0.0249805078 -0.0465952456 0.0789173245
v 0.0259183273 -0.0473978221 0.0787324905
v 0.027052246 -0.0480590761 0.0786640048
v 0.0311828479 -0.0479776561 0.0789141655
v 0.0323524103 -0.04722175 0.0789157748
v 0.0333252773 -0.0462347567 0.0789179802
v 0.0341249928 -0.0450841486 0.0791705251
v 0.0333782062 -0.046277076 0.0791679025
v 0.032394968 -0.0472745597 0.0791656971
v 0.0345313177 -0.0437199771 0.0794235468
v 0.0340642557 -0.0450555384 0.0794205666
v 0.0333253369 -0.0462358892 0.0794180036
v 0.0345038399 -0.0422715247 0.0796098113
v 0.0343516096 -0.0436798036 0.0796066523
v 0.0338982567 -0.0449762046 0.0796037912
v 0.034086667 -0.0409246981 0.0796797872
v 0.0342521891 -0.0422734916 0.0796767473
v 0.0341061577 -0.0436245501 0.0796737671
v 0.0334090218 -0.0398003161 0.0796152949
v 0.0338420495 -0.0409835279 0.0796126723
v 0.0340005383 -0.0422751606 0.0796098113
v 0.0325925574 -0.0388737619 0.0794343352
v 0.033244215 -0.0398820341 0.0794321299
v 0.0336629376 -0.0410262644 0.0794295669
v 0.0316993222 -0.0380868018 0.0791861415
v 0.0325402841 -0.0389157832 0.0791842937
v 0.0331838951 -0.0399115384 0.0791820288
v 0.0307235345 -0.0373963416 0.0789376497
v 0.031741105 -0.038033396 0.0789362192
v 0.0325925574 -0.038872689 0.0789343715
v 0.0296139345 -0.0368140638 0.0787559748
v 0.0308032855 -0.037229985 0.0787550211
v 0.0318552479 -0.0378884971 0.078753531
v 0.0283183679 -0.0364224017 0.0786898732
v 0.0296693668 -0.036568433 0.0786895156
v 0.0309122428 -0.0370030701 0.0786885619
v 0.0269106254 -0.0363434255 0.0787570477
v 0.0283165202 -0.0361709297 0.0787574053
v 0.0297247991 -0.0363231003 0.0787570477
v 0.0255387649 -0.0366509855 0.0789394379
v 0.0268674716 -0.0361647308 0.0789404511
v 0.0283152089 -0.0359871089 0.0789408684
v 0.0243266448 -0.0373551548 0.07918787
v 0.0255087242 -0.036591202 0.079189539
v 0.0268516764 -0.0360997021 0.0791906118
v 0.0233963355 -0.0383949578 0.0794355869
v 0.0243692026 -0.0374079645 0.0794377327
v 0.0255387649 -0.0366520584 0.0794394016
v 0.0228233561 -0.0396554768 0.0796157718
v 0.0235407576 -0.0385095179 0.0796183348
v 0.0244854316 -0.0375511348 0.0796204209
v 0.0226155147 -0.0410074294 0.0796797872
v 0.0230501518 -0.0397645533 0.079682529
v 0.0237381086 -0.0386656225 0.0796849728
v 0.0227211341 -0.0423564613 0.0796098113
v 0.0228609666 -0.0410626829 0.0796126723
v 0.0232768878 -0.0398733318 0.0796152949
v 0.0230586752 -0.0436045825 0.0794240236
v 0.0229053721 -0.0423547328 0.0794267654
v 0.0230406746 -0.0411028564 0.0794295669
v 0.0235377774 -0.0447181761 0.0791715384
v 0.0231242403 -0.0435881913 0.0791740417
v 0.0229727849 -0.0423537195 0.0791767836
v 0.0241290554 -0.0457559526 0.0789191723
v 0.0234773979 -0.0447476804 0.0789214373
v 0.0230586752 -0.0436034501 0.0789240003
v 0.0248663649 -0.0467392504 0.0787339807
v 0.0239862427 -0.0458717644 0.0787359476
v 0.023312591 -0.0448293984 0.0787382722
v 0.02580937 -0.047624439 0.0786650181
v 0.0247104391 -0.0469364226 0.0786665678
v 0.0346880183 -0.0422686636 0.0789268017
v 0.0343313441 -0.0408637226 0.0787469149
v 0.0345038399 -0.0422696173 0.0787437558
v 0.0342521295 -0.0422712862 0.0786767602
v 0.0341061577 -0.0436222851 0.07867378
v 0.0343516096 -0.0436778963 0.0787406564
v 0.0336715207 -0.0448651612 0.0786710382
v 0.0338606462 -0.0435670316 0.0787408948
v 0.0334447846 -0.0447563827 0.0787382722
v 0.0332787856 -0.0446770489 0.0789214373
v 0.0326417312 -0.0456945598 0.0789191723
v 0.0327862129 -0.0458083451 0.0787359476
v 0.0318024382 -0.0465460718 0.0789173245
v 0.0325888619 -0.045653373 0.0791692734
v 0.0317599401 -0.0464943349 0.0791674256
v 0.0318024382 -0.0465471447 0.0794172883
v 0.0307942256 -0.0471988022 0.0794158578
v 0.0307641253 -0.0471378863 0.0791659951
v 0.0296499953 -0.0476175249 0.0794149637
v 0.0308763608 -0.0473640263 0.079598546
v 0.029693149 -0.0477970541 0.0795975924
v 0.0557149276 -0.0366313159 0.078938961
v 0.0552767739 -0.0345623791 0.0787605643
v 0.0555307493 -0.03663221 0.0787559748
v 0.0552790985 -0.0366338789 0.0786889791
v 0.0550611839 -0.0386499465 0.0786845088
v 0.0553066358 -0.038705498 0.0787513852
v 0.0544126257 -0.0405046046 0.0786803961
v 0.0548157319 -0.0385946929 0.0787516236
v 0.0541858301 -0.0403958261 0.0787476301
v 0.0540198907 -0.0403164327 0.0789307952
v 0.0530441627 -0.0418749154 0.0789273381
v 0.0531886443 -0.0419887006 0.0787441134
v 0.0517589077 -0.0431788862 0.0789244771
v 0.0529912934 -0.0418336689 0.0791774392
v 0.05171635 -0.0431271493 0.0791745782
v 0.0517589077 -0.0431799591 0.0794245005
v 0.0502146706 -0.0441780388 0.0794222951
v 0.0501845703 -0.0441171229 0.0791724324
v 0.0484617576 -0.044819504 0.0794208646
v 0.0502968058 -0.0443432629 0.0796049237
v 0.0485049114 -0.0449990332 0.0796034932
v 0.0332027301 -0.0202893913 0.0787926316
v 0.0400483832 -0.02370134 0.0789679885
v 0.0380019769 -0.0234801471 0.0789685249
v 0.0321582779 -0.0186733305 0.0787962675
v 0.04004886 -0.0237692893 0.0792178512
v 0.0421071276 -0.023516804 0.079218328
v 0.0420913324 -0.0234517753 0.0794684887
v 0.0439657196 -0.0227658451 0.0794699788
v 0.0438835844 -0.0226013958 0.0796533823
v 0.0454996452 -0.0215570033 0.0796556473
v 0.0453408584 -0.0213620961 0.0797231197
v 0.0466467962 -0.020037204 0.0797260404
v 0.0464495048 -0.0198810995 0.0796594024
v 0.047411643 -0.0183441937 0.0796627998
v 0.047245644 -0.0182640254 0.0794799328
v 0.0478396639 -0.0165653527 0.0794837475
v 0.04777392 -0.0165499747 0.0792337656
v 0.0479719862 -0.0147171915 0.0792378187
v 0.0480393991 -0.0147161186 0.0789878368
v 0.0478130803 -0.0128710568 0.0789919496
v 0.0479921326 -0.0128274858 0.0788090229
v 0.0473594293 -0.0110985935 0.0788128376
v 0.0475846156 -0.0109862387 0.07874614
v 0.0465702638 -0.00941678882 0.0787496567
v 0.0467652902 -0.00925818086 0.0788169503
v 0.0454012975 -0.00791367888 0.0788199902
v 0.0455154404 -0.00776967406 0.079003334
v 0.0438501462 -0.00672706962 0.0790056586
v 0.0438792929 -0.00666686893 0.0792558193
v 0.041980885 -0.00600299239 0.0792573094
v 0.0419660434 -0.00606933236 0.0795071721
v 0.0399196967 -0.00584819913 0.0795076489
v 0.0399210081 -0.00603279471 0.0796902776
v 0.0379198417 -0.00627830625 0.0796897411
v 0.0379787907 -0.00652310252 0.0797562003
v 0.0361966714 -0.00717529655 0.0797547698
v 0.0363088474 -0.00740030408 0.0796872973
v 0.0347859487 -0.00838455558 0.0796851516
v 0.0349021778 -0.00852695107 0.0795018077
v 0.0336629972 -0.00978407264 0.0794990063
v 0.0337159261 -0.00982531905 0.0792489052
v 0.0327831134 -0.0113151968 0.0792456269
v 0.0327223763 -0.011285454 0.0789957047
v 0.0321283564 -0.0129841268 0.0789919496
v 0.0319486484 -0.0129431188 0.0788090229
v 0.0317443833 -0.0148331821 0.078804791
v 0.0314927325 -0.014834851 0.078737855
v 0.0317312106 -0.0167788565 0.0787335038
v 0.0314865932 -0.0168379247 0.0788003802
f 1 2 3
f 1 2 3
f 4 3 2
f 4 3 2
f 3 5 1
f 3 5 1
f 2 6 4
f 2 6 4
f 5 3 7
f 5 3 7
f 8 7 3
f 3 4 8
f 8 7 3
f 3 4 8
f 7 9 5
f 7 9 5
f 6 2 10
f 6 2 10
f 2 1 11
f 2 1 11
f 11 10 2
f 11 10 2
f 12 1 5
f 12 1 5
f 13 11 1
f 1 12 13
f 13 11 1
f 1 12 13
f 14 5 9
f 5 14 12
f 14 5 9
f 5 14 12
f 15 12 14
f 15 12 14
f 16 13 12
f 12 15 16
f 16 13 12
f 12 15 16
f 11 13 17
f 11 13 17
f 18 17 13
f 13 16 18
f 18 17 13
f 13 16 18
f 17 19 11
f 17 19 11
f 10 11 19
f 10 11 19
f 17 18 20
f 17 18 20
f 20 21 17
f 19 17 21
f 20 21 17
f 19 17 21
f 22 20 18
f 22 20 18
f 23 18 16
f 18 23 22
f 23 18 16
f 18 23 22
f 16 24 23
f 16 24 23
f 24 16 15
f 24 16 15
f 25 23 24
f 25 23 24
f 26 22 23
f 23 25 26
f 26 22 23
f 23 25 26
f 20 22 27
f 20 22 27
f 28 27 22
f 22 26 28
f 28 27 22
f 22 26 28
f 27 29 20
f 27 29 20
f 21 20 29
f 21 20 29
f 27 28 30
f 27 28 30
f 30 31 27
f 29 27 31
f 30 31 27
f 29 27 31
f 32 30 28
f 32 30 28
f 33 28 26
f 28 33 32
f 33 28 26
f 28 33 32
f 26 34 33
f 26 34 33
f 34 26 25
f 34 26 25
f 35 33 34
f 35 33 34
f 36 32 33
f 33 35 36
f 36 32 33
f 33 35 36
f 37 38 39
f 37 38 39
f 40 39 38
f 40 39 38
f 41 42 43
f 41 42 43
f 44 43 42
f 44 43 42
f 45 41 46
f 43 46 41
f 45 41 46
f 43 46 41
f 37 45 47
f 46 47 45
f 37 45 47
f 46 47 45
f 47 48 37
f 47 48 37
f 38 37 48
f 38 37 48
f 47 46 49
f 47 46 49
f 48 50 38
f 48 50 38
f 51 38 50
f 51 38 50
f 38 51 40
f 38 51 40
f 52 49 46
f 52 49 46
f 46 43 52
f 46 43 52
f 49 52 53
f 49 52 53
f 50 54 51
f 50 54 51
f 55 52 43
f 55 52 43
f 43 44 55
f 43 44 55
f 56 53 52
f 56 53 52
f 52 55 56
f 52 55 56
f 53 56 57
f 53 56 57
f 58 55 44
f 58 55 44
f 55 58 59
f 55 58 59
f 59 56 55
f 59 56 55
f 60 59 58
f 60 59 58
f 61 57 56
f 61 57 56
f 56 59 61
f 56 59 61
f 57 61 62
f 57 61 62
f 59 60 63
f 59 60 63
f 63 61 59
f 63 61 59
f 64 63 60
f 64 63 60
f 65 62 61
f 65 62 61
f 61 63 65
f 61 63 65
f 62 65 66
f 62 65 66
f 63 64 67
f 63 64 67
f 67 65 63
f 67 65 63
f 68 67 64
f 68 67 64
f 69 66 65
f 69 66 65
f 65 67 69
f 65 67 69
f 66 69 70
f 66 69 70
f 67 68 71
f 67 68 71
f 71 69 67
f 71 69 67
f 72 71 68
f 72 71 68
f 73 70 69
f 73 70 69
f 69 71 73
f 69 71 73
f 70 73 74
f 70 73 74
f 71 72 75
f 71 72 75
f 75 73 71
f 75 73 71
f 76 75 72
f 76 75 72
f 77 74 73
f 77 74 73
f 73 75 77
f 73 75 77
f 74 77 78
f 74 77 78
f 75 76 79
f 75 76 79
f 79 77 75
f 79 77 75
f 80 79 76
f 80 79 76
f 81 78 77
f 81 78 77
f 77 79 81
f 77 79 81
f 78 81 82
f 78 81 82
f 79 80 83
f 79 80 83
f 83 81 79
f 83 81 79
f 84 83 80
f 84 83 80
f 85 82 81
f 85 82 81
f 81 83 85
f 81 83 85
f 82 85 86
f 82 85 86
f 83 84 87
f 83 84 87
f 87 85 83
f 87 85 83
f 88 87 84
f 88 87 84
f 89 86 85
f 89 86 85
f 85 87 89
f 85 87 89
f 86 89 90
f 86 89 90
f 87 88 91
f 87 88 91
f 91 89 87
f 91 89 87
f 92 91 88
f 92 91 88
f 93 90 89
f 93 90 89
f 89 91 93
f 89 91 93
f 90 93 94
f 90 93 94
f 91 92 95
f 91 92 95
f 95 93 91
f 95 93 91
f 96 95 92
f 96 95 92
f 97 94 93
f 97 94 93
f 93 95 97
f 93 95 97
f 94 97 98
f 94 97 98
f 95 96 99
f 95 96 99
f 99 97 95
f 99 97 95
f 100 99 96
f 100 99 96
f 101 98 97
f 101 98 97
f 97 99 101
f 97 99 101
f 98 101 102
f 98 101 102
f 99 100 103
f 99 100 103
f 103 101 99
f 103 101 99
f 104 103 100
f 104 103 100
f 105 102 101
f 105 102 101
f 101 103 105
f 101 103 105
f 102 105 106
f 102 105 106
f 103 104 107
f 103 104 107
f 107 105 103
f 107 105 103
f 108 107 104
f 108 107 104
f 109 106 105
f 109 106 105
f 105 107 109
f 105 107 109
f 106 109 110
f 106 109 110
f 107 108 111
f 107 108 111
f 111 109 107
f 111 109 107
f 112 111 108
f 112 111 108
f 113 110 109
f 113 110 109
f 109 111 113
f 109 111 113
f 110 113 114
f 110 113 114
f 111 112 115
f 111 112 115
f 115 113 111
f 115 113 111
f 116 115 112
f 116 115 112
f 117 114 113
f 117 114 113
f 113 115 117
f 113 115 117
f 114 117 118
f 114 117 118
f 115 116 119
f 115 116 119
f 119 117 115
f 119 117 115
f 120 119 116
f 120 119 116
f 121 118 117
f 121 118 117
f 117 119 121
f 117 119 121
f 118 121 122
f 118 121 122
f 119 120 123
f 119 120 123
f 123 121 119
f 123 121 119
f 124 123 120
f 124 123 120
f 125 122 121
f 125 122 121
f 121 123 125
f 121 123 125
f 122 125 31
f 122 125 31
f 123 124 126
f 123 124 126
f 126 125 123
f 126 125 123
f 127 126 124
f 127 126 124
f 128 31 125
f 128 31 125
f 125 126 128
f 125 126 128
f 31 128 29
f 31 128 29
f 126 127 129
f 126 127 129
f 129 128 126
f 129 128 126
f 130 129 127
f 130 129 127
f 131 29 128
f 131 29 128
f 128 129 131
f 128 129 131
f 29 131 21
f 29 131 21
f 129 130 132
f 129 130 132
f 132 131 129
f 132 131 129
f 133 132 130
f 133 132 130
f 134 21 131
f 134 21 131
f 131 132 134
f 131 132 134
f 21 134 19
f 21 134 19
f 132 133 135
f 132 133 135
f 135 134 132
f 135 134 132
f 40 135 133
f 40 135 133
f 136 19 134
f 136 19 134
f 134 135 136
f 134 135 136
f 19 136 10
f 19 136 10
f 54 10 136
f 54 10 136
f 135 40 51
f 135 40 51
f 136 51 54
f 136 51 54
f 51 136 135
f 51 136 135
f 137 138 139
f 137 138 139
f 140 141 138
f 138 137 140
f 140 141 138
f 138 137 140
f 142 141 143
f 142 141 143
f 144 143 141
f 141 140 144
f 144 143 141
f 141 140 144
f 143 145 142
f 143 145 142
f 146 142 145
f 146 142 145
f 143 144 147
f 143 144 147
f 147 148 143
f 145 143 148
f 147 148 143
f 145 143 148
f 149 147 144
f 149 147 144
f 150 144 140
f 144 150 149
f 150 144 140
f 144 150 149
f 140 151 150
f 140 151 150
f 151 140 137
f 151 140 137
f 152 150 151
f 152 150 151
f 153 149 150
f 150 152 153
f 153 149 150
f 150 152 153
f 147 149 154
f 147 149 154
f 155 154 149
f 149 153 155
f 155 154 149
f 149 153 155
f 154 156 147
f 154 156 147
f 148 147 156
f 148 147 156
f 154 155 157
f 154 155 157
f 157 158 154
f 156 154 158
f 157 158 154
f 156 154 158
f 159 157 155
f 159 157 155
f 160 155 153
f 155 160 159
f 160 155 153
f 155 160 159
f 153 161 160
f 153 161 160
f 161 153 152
f 161 153 152
f 162 160 161
f 162 160 161
f 163 159 160
f 160 162 163
f 163 159 160
f 160 162 163
f 157 159 164
f 157 159 164
f 165 164 159
f 159 163 165
f 165 164 159
f 159 163 165
f 164 166 157
f 164 166 157
f 158 157 166
f 158 157 166
f 164 165 167
f 164 165 167
f 167 168 164
f 166 164 168
f 167 168 164
f 166 164 168
f 169 167 165
f 169 167 165
f 170 165 163
f 165 170 169
f 170 165 163
f 165 170 169
f 163 171 170
f 163 171 170
f 171 163 162
f 171 163 162
f 172 170 171
f 172 170 171
f 173 169 170
f 170 172 173
f 173 169 170
f 170 172 173
f 167 169 174
f 167 169 174
f 175 174 169
f 169 173 175
f 175 174 169
f 169 173 175
f 174 176 167
f 174 176 167
f 168 167 176
f 168 167 176
f 174 175 177
f 174 175 177
f 177 178 174
f 176 174 178
f 177 178 174
f 176 174 178
f 179 177 175
f 179 177 175
f 180 175 173
f 175 180 179
f 180 175 173
f 175 180 179
f 173 181 180
f 173 181 180
f 181 173 172
f 181 173 172
f 182 183 184
f 182 183 184
f 185 184 183
f 183 186 185
f 185 184 183
f 183 186 185
f 184 187 182
f 184 187 182
f 188 182 187
f 188 182 187
f 184 185 189
f 184 185 189
f 189 190 184
f 187 184 190
f 189 190 184
f 187 184 190
f 191 189 185
f 191 189 185
f 192 185 186
f 185 192 191
f 192 185 186
f 185 192 191
f 186 193 192
f 186 193 192
f 193 186 194
f 193 186 194
f 195 192 193
f 195 192 193
f 196 191 192
f 192 195 196
f 196 191 192
f 192 195 196
f 189 191 197
f 189 191 197
f 198 197 191
f 191 196 198
f 198 197 191
f 191 196 198
f 197 199 189
f 197 199 189
f 190 189 199
f 190 189 199
f 197 198 200
f 197 198 200
f 200 201 197
f 199 197 201
f 200 201 197
f 199 197 201
f 202 200 198
f 202 200 198
f 203 198 196
f 198 203 202
f 203 198 196
f 198 203 202
f 196 204 203
f 196 204 203
f 204 196 195
f 204 196 195
f 205 203 204
f 205 203 204
f 206 202 203
f 203 205 206
f 206 202 203
f 203 205 206
f 200 202 207
f 200 202 207
f 208 207 202
f 202 206 208
f 208 207 202
f 202 206 208
f 207 209 200
f 207 209 200
f 201 200 209
f 201 200 209
f 207 208 210
f 207 208 210
f 210 211 207
f 209 207 211
f 210 211 207
f 209 207 211
f 212 210 208
f 212 210 208
f 213 208 206
f 208 213 212
f 213 208 206
f 208 213 212
f 206 214 213
f 206 214 213
f 214 206 205
f 214 206 205
f 215 213 214
f 215 213 214
f 216 212 213
f 213 215 216
f 216 212 213
f 213 215 216
f 210 212 217
f 210 212 217
f 218 217 212
f 212 216 218
f 218 217 212
f 212 216 218
f 217 219 210
f 217 219 210
f 211 210 219
f 211 210 219
f 217 218 220
f 217 218 220
f 220 221 217
f 219 217 221
f 220 221 217
f 219 217 221
f 222 220 218
f 222 220 218
f 223 218 216
f 218 223 222
f 223 218 216
f 218 223 222
f 216 224 223
f 216 224 223
f 224 216 215
f 224 216 215
f 225 226 227
f 225 226 227
f 228 227 226
f 228 227 226
f 229 230 231
f 229 230 231
f 232 231 230
f 232 231 230
f 233 229 234
f 231 234 229
f 233 229 234
f 231 234 229
f 225 233 235
f 234 235 233
f 225 233 235
f 234 235 233
f 235 236 225
f 235 236 225
f 226 225 236
f 226 225 236
f 235 234 237
f 235 234 237
f 236 238 226
f 236 238 226
f 239 226 238
f 239 226 238
f 226 239 228
f 226 239 228
f 240 237 234
f 240 237 234
f 234 231 240
f 234 231 240
f 237 240 241
f 237 240 241
f 238 242 239
f 238 242 239
f 243 240 231
f 243 240 231
f 231 232 243
f 231 232 243
f 244 241 240
f 244 241 240
f 240 243 244
f 240 243 244
f 241 244 245
f 241 244 245
f 246 243 232
f 246 243 232
f 243 246 247
f 243 246 247
f 247 244 243
f 247 244 243
f 248 247 246
f 248 247 246
f 249 245 244
f 249 245 244
f 244 247 249
f 244 247 249
f 245 249 250
f 245 249 250
f 247 248 251
f 247 248 251
f 251 249 247
f 251 249 247
f 252 251 248
f 252 251 248
f 253 250 249
f 253 250 249
f 249 251 253
f 249 251 253
f 250 253 254
f 250 253 254
f 251 252 255
f 251 252 255
f 255 253 251
f 255 253 251
f 256 255 252
f 256 255 252
f 257 254 253
f 257 254 253
f 253 255 257
f 253 255 257
f 254 257 258
f 254 257 258
f 255 256 259
f 255 256 259
f 259 257 255
f 259 257 255
f 260 259 256
f 260 259 256
f 261 258 257
f 261 258 257
f 257 259 261
f 257 259 261
f 258 261 262
f 258 261 262
f 259 260 263
f 259 260 263
f 263 261 259
f 263 261 259
f 264 263 260
f 264 263 260
f 265 262 261
f 265 262 261
f 261 263 265
f 261 263 265
f 262 265 266
f 262 265 266
f 263 264 267
f 263 264 267
f 267 265 263
f 267 265 263
f 268 267 264
f 268 267 264
f 269 266 265
f 269 266 265
f 265 267 269
f 265 267 269
f 266 269 270
f 266 269 270
f 267 268 271
f 267 268 271
f 271 269 267
f 271 269 267
f 272 271 268
f 272 271 268
f 273 270 269
f 273 270 269
f 269 271 273
f 269 271 273
f 270 273 274
f 270 273 274
f 271 272 275
f 271 272 275
f 275 273 271
f 275 273 271
f 276 275 272
f 276 275 272
f 277 274 273
f 277 274 273
f 273 275 277
f 273 275 277
f 274 277 278
f 274 277 278
f 275 276 279
f 275 276 279
f 279 277 275
f 279 277 275
f 280 279 276
f 280 279 276
f 281 278 277
f 281 278 277
f 277 279 281
f 277 279 281
f 278 281 221
f 278 281 221
f 279 280 282
f 279 280 282
f 282 281 279
f 282 281 279
f 283 282 280
f 283 282 280
f 284 221 281
f 284 221 281
f 281 282 284
f 281 282 284
f 221 284 219
f 221 284 219
f 282 283 285
f 282 283 285
f 285 284 282
f 285 284 282
f 286 285 283
f 286 285 283
f 287 219 284
f 287 219 284
f 284 285 287
f 284 285 287
f 219 287 211
f 219 287 211
f 285 286 288
f 285 286 288
f 288 287 285
f 288 287 285
f 289 288 286
f 289 288 286
f 290 211 287
f 290 211 287
f 287 288 290
f 287 288 290
f 211 290 209
f 211 290 209
f 288 289 291
f 288 289 291
f 291 290 288
f 291 290 288
f 292 291 289
f 292 291 289
f 293 209 290
f 293 209 290
f 290 291 293
f 290 291 293
f 209 293 201
f 209 293 201
f 291 292 294
f 291 292 294
f 294 293 291
f 294 293 291
f 295 294 292
f 295 294 292
f 296 201 293
f 296 201 293
f 293 294 296
f 293 294 296
f 201 296 199
f 201 296 199
f 294 295 297
f 294 295 297
f 297 296 294
f 297 296 294
f 298 297 295
f 298 297 295
f 299 199 296
f 299 199 296
f 296 297 299
f 296 297 299
f 199 299 190
f 199 299 190
f 297 298 300
f 297 298 300
f 300 299 297
f 300 299 297
f 301 300 298
f 301 300 298
f 302 190 299
f 302 190 299
f 299 300 302
f 299 300 302
f 190 302 187
f 190 302 187
f 300 301 303
f 300 301 303
f 303 302 300
f 303 302 300
f 304 303 301
f 304 303 301
f 305 187 302
f 305 187 302
f 302 303 305
f 302 303 305
f 187 305 188
f 187 305 188
f 303 304 306
f 303 304 306
f 306 305 303
f 306 305 303
f 307 306 304
f 307 306 304
f 308 188 305
f 308 188 305
f 305 306 308
f 305 306 308
f 188 308 309
f 188 308 309
f 306 307 310
f 306 307 310
f 310 308 306
f 310 308 306
f 311 310 307
f 311 310 307
f 312 309 308
f 312 309 308
f 308 310 312
f 308 310 312
f 309 312 313
f 309 312 313
f 310 311 314
f 310 311 314
f 314 312 310
f 314 312 310
f 315 314 311
f 315 314 311
f 316 313 312
f 316 313 312
f 312 314 316
f 312 314 316
f 313 316 317
f 313 316 317
f 314 315 318
f 314 315 318
f 318 316 314
f 318 316 314
f 228 318 315
f 228 318 315
f 319 317 316
f 319 317 316
f 316 318 319
f 316 318 319
f 317 319 320
f 317 319 320
f 242 320 319
f 242 320 319
f 318 228 239
f 318 228 239
f 319 239 242
f 319 239 242
f 239 319 318
f 239 319 318
f 321 322 323
f 321 322 323
f 324 323 322
f 324 323 322
f 323 325 321
f 323 325 321
f 322 326 324
f 322 326 324
f 325 323 327
f 325 323 327
f 328 327 323
f 323 324 328
f 328 327 323
f 323 324 328
f 327 329 325
f 327 329 325
f 326 322 330
f 326 322 330
f 322 321 331
f 322 321 331
f 331 330 322
f 331 330 322
f 332 321 325
f 332 321 325
f 333 331 321
f 321 332 333
f 333 331 321
f 321 332 333
f 334 325 329
f 325 334 332
f 334 325 329
f 325 334 332
f 335 332 334
f 335 332 334
f 336 333 332
f 332 335 336
f 336 333 332
f 332 335 336
f 331 333 337
f 331 333 337
f 338 337 333
f 333 336 338
f 338 337 333
f 333 336 338
f 337 339 331
f 337 339 331
f 330 331 339
f 330 331 339
f 337 338 340
f 337 338 340
f 340 341 337
f 339 337 341
f 340 341 337
f 339 337 341
f 342 340 338
f 342 340 338
f 343 338 336
f 338 343 342
f 343 338 336
f 338 343 342
f 336 344 343
f 336 344 343
f 344 336 335
f 344 336 335
f 345 343 344
f 345 343 344
f 346 342 343
f 343 345 346
f 346 342 343
f 343 345 346
f 340 342 347
f 340 342 347
f 348 347 342
f 342 346 348
f 348 347 342
f 342 346 348
f 347 349 340
f 347 349 340
f 341 340 349
f 341 340 349
f 347 348 350
f 347 348 350
f 350 351 347
f 349 347 351
f 350 351 347
f 349 347 351
f 352 350 348
f 352 350 348
f 353 348 346
f 348 353 352
f 353 348 346
f 348 353 352
f 346 354 353
f 346 354 353
f 354 346 345
f 354 346 345
f 355 353 354
f 355 353 354
f 356 352 353
f 353 355 356
f 356 352 353
f 353 355 356
f 357 180 181
f 357 180 181
f 358 179 180
f 180 357 358
f 358 179 180
f 180 357 358
f 177 179 359
f 177 179 359
f 360 359 179
f 179 358 360
f 360 359 179
f 179 358 360
f 359 361 177
f 359 361 177
f 178 177 361
f 178 177 361
f 359 360 362
f 359 360 362
f 362 363 359
f 361 359 363
f 362 363 359
f 361 359 363
f 364 362 360
f 364 362 360
f 365 360 358
f 360 365 364
f 365 360 358
f 360 365 364
f 358 366 365
f 358 366 365
f 366 358 357
f 366 358 357
f 367 365 366
f 367 365 366
f 368 364 365
f 365 367 368
f 368 364 365
f 365 367 368
f 362 364 369
f 362 364 369
f 370 369 364
f 364 368 370
f 370 369 364
f 364 368 370
f 369 371 362
f 369 371 362
f 363 362 371
f 363 362 371
f 369 370 372
f 369 370 372
f 372 373 369
f 371 369 373
f 372 373 369
f 371 369 373
f 374 372 370
f 374 372 370
f 375 370 368
f 370 375 374
f 375 370 368
f 370 375 374
f 368 376 375
f 368 376 375
f 376 368 367
f 376 368 367
f 326 375 376
f 326 375 376
f 377 374 375
f 375 326 377
f 377 374 375
f 375 326 377
f 376 324 326
f 376 324 326
f 324 376 378
f 324 376 378
f 367 378 376
f 367 378 376
f 378 328 324
f 378 328 324
f 330 377 326
f 330 377 326
f 378 367 379
f 378 367 379
f 366 379 367
f 366 379 367
f 328 378 380
f 379 380 378
f 328 378 380
f 379 380 378
f 380 381 328
f 380 381 328
f 327 328 381
f 327 328 381
f 379 366 382
f 379 366 382
f 357 382 366
f 357 382 366
f 380 379 383
f 382 383 379
f 380 379 383
f 382 383 379
f 381 380 384
f 381 380 384
f 383 384 380
f 383 384 380
f 381 385 327
f 381 385 327
f 329 327 385
f 329 327 385
f 385 381 386
f 385 381 386
f 384 386 381
f 384 386 381
f 382 357 387
f 382 357 387
f 181 387 357
f 181 387 357
f 387 388 382
f 387 388 382
f 383 382 388
f 383 382 388
f 387 181 389
f 387 181 389
f 172 389 181
f 172 389 181
f 388 387 390
f 388 387 390
f 389 390 387
f 389 390 387
f 388 391 383
f 388 391 383
f 384 383 391
f 384 383 391
f 391 388 392
f 391 388 392
f 390 392 388
f 390 392 388
f 391 393 384
f 391 393 384
f 386 384 393
f 386 384 393
f 393 391 394
f 393 391 394
f 392 394 391
f 392 394 391
f 393 395 386
f 393 395 386
f 394 396 393
f 395 393 396
f 394 396 393
f 395 393 396
f 397 386 395
f 397 386 395
f 386 397 385
f 386 397 385
f 398 385 397
f 398 385 397
f 385 398 329
f 385 398 329
f 399 329 398
f 399 329 398
f 329 399 334
f 329 399 334
f 400 334 399
f 400 334 399
f 334 400 335
f 334 400 335
f 401 335 400
f 401 335 400
f 335 401 344
f 335 401 344
f 402 344 401
f 402 344 401
f 344 402 345
f 344 402 345
f 403 345 402
f 403 345 402
f 345 403 354
f 345 403 354
f 404 354 403
f 404 354 403
f 354 404 355
f 354 404 355
f 405 355 404
f 405 355 404
f 355 405 406
f 355 405 406
f 407 406 405
f 407 406 405
f 406 407 408
f 406 407 408
f 409 408 407
f 409 408 407
f 408 409 410
f 408 409 410
f 411 410 409
f 411 410 409
f 410 411 412
f 410 411 412
f 413 412 411
f 413 412 411
f 412 413 414
f 412 413 414
f 415 414 413
f 415 414 413
f 414 415 416
f 414 415 416
f 417 416 415
f 417 416 415
f 416 417 139
f 416 417 139
f 418 139 417
f 418 139 417
f 139 418 137
f 139 418 137
f 419 137 418
f 419 137 418
f 137 419 151
f 137 419 151
f 420 151 419
f 420 151 419
f 151 420 152
f 151 420 152
f 421 152 420
f 421 152 420
f 152 421 161
f 152 421 161
f 422 161 421
f 422 161 421
f 161 422 162
f 161 422 162
f 423 162 422
f 423 162 422
f 162 423 171
f 162 423 171
f 424 171 423
f 424 171 423
f 171 424 172
f 171 424 172
f 389 172 424
f 389 172 424
f 424 425 389
f 424 425 389
f 390 389 425
f 390 389 425
f 423 426 424
f 423 426 424
f 425 424 426
f 425 424 426
f 422 427 423
f 422 427 423
f 426 423 427
f 426 423 427
f 427 422 428
f 427 422 428
f 421 428 422
f 421 428 422
f 425 429 390
f 425 429 390
f 392 390 429
f 392 390 429
f 426 430 425
f 426 430 425
f 429 425 430
f 429 425 430
f 427 431 426
f 427 431 426
f 430 426 431
f 430 426 431
f 428 432 427
f 428 432 427
f 431 427 432
f 431 427 432
f 429 433 392
f 429 433 392
f 394 392 433
f 394 392 433
f 430 434 429
f 430 434 429
f 433 429 434
f 433 429 434
f 431 435 430
f 431 435 430
f 434 430 435
f 434 430 435
f 432 436 431
f 432 436 431
f 435 431 436
f 435 431 436
f 433 437 394
f 433 437 394
f 396 394 437
f 396 394 437
f 434 438 433
f 434 438 433
f 437 433 438
f 437 433 438
f 435 439 434
f 435 439 434
f 438 434 439
f 438 434 439
f 436 440 435
f 436 440 435
f 439 435 440
f 439 435 440
f 440 436 441
f 440 436 441
f 442 441 436
f 442 441 436
f 436 432 442
f 436 432 442
f 443 442 432
f 443 442 432
f 432 428 443
f 432 428 443
f 444 443 428
f 444 443 428
f 428 421 444
f 428 421 444
f 420 444 421
f 420 444 421
f 444 420 445
f 444 420 445
f 419 445 420
f 419 445 420
f 443 444 446
f 445 446 444
f 443 444 446
f 445 446 444
f 442 443 447
f 446 447 443
f 442 443 447
f 446 447 443
f 447 448 442
f 447 448 442
f 441 442 448
f 441 442 448
f 445 419 449
f 445 419 449
f 418 449 419
f 418 449 419
f 446 445 450
f 449 450 445
f 446 445 450
f 449 450 445
f 447 446 451
f 450 451 446
f 447 446 451
f 450 451 446
f 451 452 447
f 451 452 447
f 448 447 452
f 448 447 452
f 449 418 453
f 449 418 453
f 417 453 418
f 417 453 418
f 450 449 454
f 453 454 449
f 450 449 454
f 453 454 449
f 451 450 455
f 454 455 450
f 451 450 455
f 454 455 450
f 455 456 451
f 455 456 451
f 452 451 456
f 452 451 456
f 453 417 457
f 453 417 457
f 415 457 417
f 415 457 417
f 454 453 458
f 457 458 453
f 454 453 458
f 457 458 453
f 455 454 459
f 458 459 454
f 455 454 459
f 458 459 454
f 459 460 455
f 459 460 455
f 456 455 460
f 456 455 460
f 457 415 461
f 457 415 461
f 413 461 415
f 413 461 415
f 458 457 462
f 461 462 457
f 458 457 462
f 461 462 457
f 459 458 463
f 462 463 458
f 459 458 463
f 462 463 458
f 463 464 459
f 463 464 459
f 460 459 464
f 460 459 464
f 461 413 465
f 461 413 465
f 411 465 413
f 411 465 413
f 462 461 466
f 465 466 461
f 462 461 466
f 465 466 461
f 463 462 467
f 466 467 462
f 463 462 467
f 466 467 462
f 467 468 463
f 467 468 463
f 464 463 468
f 464 463 468
f 465 411 469
f 465 411 469
f 409 469 411
f 409 469 411
f 466 465 470
f 469 470 465
f 466 465 470
f 469 470 465
f 467 466 471
f 470 471 466
f 467 466 471
f 470 471 466
f 471 472 467
f 471 472 467
f 468 467 472
f 468 467 472
f 469 409 473
f 469 409 473
f 407 473 409
f 407 473 409
f 470 469 474
f 473 474 469
f 470 469 474
f 473 474 469
f 471 470 475
f 474 475 470
f 471 470 475
f 474 475 470
f 475 476 471
f 475 476 471
f 472 471 476
f 472 471 476
f 473 407 477
f 473 407 477
f 405 477 407
f 405 477 407
f 474 473 478
f 477 478 473
f 474 473 478
f 477 478 473
f 475 474 479
f 478 479 474
f 475 474 479
f 478 479 474
f 479 480 475
f 479 480 475
f 476 475 480
f 476 475 480
f 477 405 481
f 477 405 481
f 404 481 405
f 404 481 405
f 478 477 482
f 481 482 477
f 478 477 482
f 481 482 477
f 479 478 483
f 482 483 478
f 479 478 483
f 482 483 478
f 483 484 479
f 483 484 479
f 480 479 484
f 480 479 484
f 481 404 485
f 481 404 485
f 403 485 404
f 403 485 404
f 482 481 486
f 485 486 481
f 482 481 486
f 485 486 481
f 483 482 487
f 486 487 482
f 483 482 487
f 486 487 482
f 487 488 483
f 487 488 483
f 484 483 488
f 484 483 488
f 485 403 489
f 485 403 489
f 402 489 403
f 402 489 403
f 486 485 490
f 489 490 485
f 486 485 490
f 489 490 485
f 487 486 491
f 490 491 486
f 487 486 491
f 490 491 486
f 491 492 487
f 491 492 487
f 488 487 492
f 488 487 492
f 489 402 493
f 489 402 493
f 401 493 402
f 401 493 402
f 490 489 494
f 493 494 489
f 490 489 494
f 493 494 489
f 491 490 495
f 494 495 490
f 491 490 495
f 494 495 490
f 495 496 491
f 495 496 491
f 492 491 496
f 492 491 496
f 493 401 497
f 493 401 497
f 400 497 401
f 400 497 401
f 494 493 498
f 497 498 493
f 494 493 498
f 497 498 493
f 495 494 499
f 498 499 494
f 495 494 499
f 498 499 494
f 499 500 495
f 499 500 495
f 496 495 500
f 496 495 500
f 497 400 501
f 497 400 501
f 399 501 400
f 399 501 400
f 498 497 502
f 501 502 497
f 498 497 502
f 501 502 497
f 499 498 503
f 502 503 498
f 499 498 503
f 502 503 498
f 503 504 499
f 503 504 499
f 500 499 504
f 500 499 504
f 501 399 505
f 501 399 505
f 398 505 399
f 398 505 399
f 502 501 506
f 505 506 501
f 502 501 506
f 505 506 501
f 503 502 507
f 506 507 502
f 503 502 507
f 506 507 502
f 507 508 503
f 507 508 503
f 504 503 508
f 504 503 508
f 505 398 509
f 505 398 509
f 397 509 398
f 397 509 398
f 506 505 510
f 509 510 505
f 506 505 510
f 509 510 505
f 507 506 511
f 510 511 506
f 507 506 511
f 510 511 506
f 511 512 507
f 511 512 507
f 508 507 512
f 508 507 512
f 509 397 513
f 509 397 513
f 395 513 397
f 395 513 397
f 510 509 514
f 513 514 509
f 510 509 514
f 513 514 509
f 511 510 515
f 514 515 510
f 511 510 515
f 514 515 510
f 515 516 511
f 515 516 511
f 512 511 516
f 512 511 516
f 513 395 517
f 513 395 517
f 396 517 395
f 396 517 395
f 514 513 518
f 517 518 513
f 514 513 518
f 517 518 513
f 515 514 519
f 518 519 514
f 515 514 519
f 518 519 514
f 519 520 515
f 519 520 515
f 516 515 520
f 516 515 520
f 517 396 521
f 517 396 521
f 437 521 396
f 437 521 396
f 518 517 522
f 521 522 517
f 518 517 522
f 521 522 517
f 519 518 523
f 522 523 518
f 519 518 523
f 522 523 518
f 523 524 519
f 523 524 519
f 520 519 524
f 520 519 524
f 521 437 525
f 521 437 525
f 438 525 437
f 438 525 437
f 522 521 526
f 525 526 521
f 522 521 526
f 525 526 521
f 523 522 527
f 526 527 522
f 523 522 527
f 526 527 522
f 527 528 523
f 527 528 523
f 524 523 528
f 524 523 528
f 525 438 529
f 525 438 529
f 439 529 438
f 439 529 438
f 526 525 530
f 529 530 525
f 526 525 530
f 529 530 525
f 527 526 531
f 530 531 526
f 527 526 531
f 530 531 526
f 531 532 527
f 531 532 527
f 528 527 532
f 528 527 532
f 529 439 533
f 529 439 533
f 440 533 439
f 440 533 439
f 530 529 534
f 533 534 529
f 530 529 534
f 533 534 529
f 531 530 535
f 534 535 530
f 531 530 535
f 534 535 530
f 536 537 538
f 536 537 538
f 539 540 537
f 537 536 539
f 539 540 537
f 537 536 539
f 541 540 542
f 541 540 542
f 543 542 540
f 540 539 543
f 543 542 540
f 540 539 543
f 542 245 541
f 542 245 541
f 250 541 245
f 250 541 245
f 542 543 544
f 542 543 544
f 544 241 542
f 245 542 241
f 544 241 542
f 245 542 241
f 545 544 543
f 545 544 543
f 546 543 539
f 543 546 545
f 546 543 539
f 543 546 545
f 539 547 546
f 539 547 546
f 547 539 536
f 547 539 536
f 548 546 547
f 548 546 547
f 549 545 546
f 546 548 549
f 549 545 546
f 546 548 549
f 544 545 550
f 544 545 550
f 551 550 545
f 545 549 551
f 551 550 545
f 545 549 551
f 550 237 544
f 550 237 544
f 241 544 237
f 241 544 237
f 550 551 236
f 550 551 236
f 236 235 550
f 237 550 235
f 236 235 550
f 237 550 235
f 238 236 551
f 238 236 551
f 552 551 549
f 551 552 238
f 552 551 549
f 551 552 238
f 549 553 552
f 549 553 552
f 553 549 548
f 553 549 548
f 554 552 553
f 554 552 553
f 242 238 552
f 552 554 242
f 242 238 552
f 552 554 242
f 553 555 554
f 553 555 554
f 555 553 556
f 555 553 556
f 548 556 553
f 548 556 553
f 556 557 555
f 556 557 555
f 320 242 554
f 320 242 554
f 556 548 558
f 556 548 558
f 547 558 548
f 547 558 548
f 557 556 559
f 558 559 556
f 557 556 559
f 558 559 556
f 559 560 557
f 559 560 557
f 561 557 560
f 561 557 560
f 558 547 562
f 558 547 562
f 536 562 547
f 536 562 547
f 559 558 563
f 562 563 558
f 559 558 563
f 562 563 558
f 560 559 564
f 560 559 564
f 563 564 559
f 563 564 559
f 560 565 561
f 560 565 561
f 566 561 565
f 566 561 565
f 565 560 567
f 565 560 567
f 564 567 560
f 564 567 560
f 562 536 568
f 562 536 568
f 538 568 536
f 538 568 536
f 568 569 562
f 568 569 562
f 563 562 569
f 563 562 569
f 568 538 570
f 568 538 570
f 571 570 538
f 571 570 538
f 569 568 572
f 569 568 572
f 570 572 568
f 570 572 568
f 569 573 563
f 569 573 563
f 564 563 573
f 564 563 573
f 573 569 574
f 573 569 574
f 572 574 569
f 572 574 569
f 573 575 564
f 573 575 564
f 567 564 575
f 567 564 575
f 575 573 576
f 575 573 576
f 574 576 573
f 574 576 573
f 575 577 567
f 575 577 567
f 576 578 575
f 577 575 578
f 576 578 575
f 577 575 578
f 579 567 577
f 579 567 577
f 567 579 565
f 567 579 565
f 580 565 579
f 580 565 579
f 565 580 566
f 565 580 566
f 581 566 580
f 581 566 580
f 566 581 582
f 566 581 582
f 583 582 581
f 583 582 581
f 582 583 584
f 582 583 584
f 585 584 583
f 585 584 583
f 584 585 586
f 584 585 586
f 587 586 585
f 587 586 585
f 586 587 588
f 586 587 588
f 589 588 587
f 589 588 587
f 588 589 590
f 588 589 590
f 591 590 589
f 591 590 589
f 590 591 194
f 590 591 194
f 592 194 591
f 592 194 591
f 194 592 193
f 194 592 193
f 593 193 592
f 593 193 592
f 193 593 195
f 193 593 195
f 594 195 593
f 594 195 593
f 195 594 204
f 195 594 204
f 595 204 594
f 595 204 594
f 204 595 205
f 204 595 205
f 596 205 595
f 596 205 595
f 205 596 214
f 205 596 214
f 597 214 596
f 597 214 596
f 214 597 215
f 214 597 215
f 598 215 597
f 598 215 597
f 215 598 224
f 215 598 224
f 599 224 598
f 599 224 598
f 224 599 600
f 224 599 600
f 601 600 599
f 601 600 599
f 600 601 602
f 600 601 602
f 603 602 601
f 603 602 601
f 602 603 604
f 602 603 604
f 605 604 603
f 605 604 603
f 604 605 606
f 604 605 606
f 607 606 605
f 607 606 605
f 606 607 608
f 606 607 608
f 609 608 607
f 609 608 607
f 608 609 610
f 608 609 610
f 611 610 609
f 611 610 609
f 610 611 571
f 610 611 571
f 570 571 611
f 570 571 611
f 611 612 570
f 611 612 570
f 572 570 612
f 572 570 612
f 609 613 611
f 609 613 611
f 612 611 613
f 612 611 613
f 607 614 609
f 607 614 609
f 613 609 614
f 613 609 614
f 614 607 615
f 614 607 615
f 605 615 607
f 605 615 607
f 612 616 572
f 612 616 572
f 574 572 616
f 574 572 616
f 613 617 612
f 613 617 612
f 616 612 617
f 616 612 617
f 614 618 613
f 614 618 613
f 617 613 618
f 617 613 618
f 615 619 614
f 615 619 614
f 618 614 619
f 618 614 619
f 616 620 574
f 616 620 574
f 576 574 620
f 576 574 620
f 617 621 616
f 617 621 616
f 620 616 621
f 620 616 621
f 618 622 617
f 618 622 617
f 621 617 622
f 621 617 622
f 619 623 618
f 619 623 618
f 622 618 623
f 622 618 623
f 620 624 576
f 620 624 576
f 578 576 624
f 578 576 624
f 621 625 620
f 621 625 620
f 624 620 625
f 624 620 625
f 622 626 621
f 622 626 621
f 625 621 626
f 625 621 626
f 623 230 622
f 623 230 622
f 626 622 230
f 626 622 230
f 230 623 232
f 230 623 232
f 627 232 623
f 627 232 623
f 623 619 627
f 623 619 627
f 628 627 619
f 628 627 619
f 619 615 628
f 619 615 628
f 629 628 615
f 629 628 615
f 615 605 629
f 615 605 629
f 603 629 605
f 603 629 605
f 629 603 630
f 629 603 630
f 601 630 603
f 601 630 603
f 628 629 631
f 630 631 629
f 628 629 631
f 630 631 629
f 627 628 632
f 631 632 628
f 627 628 632
f 631 632 628
f 632 246 627
f 632 246 627
f 232 627 246
f 232 627 246
f 630 601 633
f 630 601 633
f 599 633 601
f 599 633 601
f 631 630 634
f 633 634 630
f 631 630 634
f 633 634 630
f 632 631 635
f 634 635 631
f 632 631 635
f 634 635 631
f 635 248 632
f 635 248 632
f 246 632 248
f 246 632 248
f 633 599 636
f 633 599 636
f 598 636 599
f 598 636 599
f 634 633 637
f 636 637 633
f 634 633 637
f 636 637 633
f 635 634 638
f 637 638 634
f 635 634 638
f 637 638 634
f 638 252 635
f 638 252 635
f 248 635 252
f 248 635 252
f 636 598 639
f 636 598 639
f 597 639 598
f 597 639 598
f 637 636 640
f 639 640 636
f 637 636 640
f 639 640 636
f 638 637 641
f 640 641 637
f 638 637 641
f 640 641 637
f 641 256 638
f 641 256 638
f 252 638 256
f 252 638 256
f 639 597 642
f 639 597 642
f 596 642 597
f 596 642 597
f 640 639 643
f 642 643 639
f 640 639 643
f 642 643 639
f 641 640 644
f 643 644 640
f 641 640 644
f 643 644 640
f 644 260 641
f 644 260 641
f 256 641 260
f 256 641 260
f 642 596 645
f 642 596 645
f 595 645 596
f 595 645 596
f 643 642 646
f 645 646 642
f 643 642 646
f 645 646 642
f 644 643 647
f 646 647 643
f 644 643 647
f 646 647 643
f 647 264 644
f 647 264 644
f 260 644 264
f 260 644 264
f 645 595 648
f 645 595 648
f 594 648 595
f 594 648 595
f 646 645 649
f 648 649 645
f 646 645 649
f 648 649 645
f 647 646 650
f 649 650 646
f 647 646 650
f 649 650 646
f 650 268 647
f 650 268 647
f 264 647 268
f 264 647 268
f 648 594 651
f 648 594 651
f 593 651 594
f 593 651 594
f 649 648 652
f 651 652 648
f 649 648 652
f 651 652 648
f 650 649 653
f 652 653 649
f 650 649 653
f 652 653 649
f 653 272 650
f 653 272 650
f 268 650 272
f 268 650 272
f 651 593 654
f 651 593 654
f 592 654 593
f 592 654 593
f 652 651 655
f 654 655 651
f 652 651 655
f 654 655 651
f 653 652 656
f 655 656 652
f 653 652 656
f 655 656 652
f 656 276 653
f 656 276 653
f 272 653 276
f 272 653 276
f 654 592 657
f 654 592 657
f 591 657 592
f 591 657 592
f 655 654 658
f 657 658 654
f 655 654 658
f 657 658 654
f 656 655 659
f 658 659 655
f 656 655 659
f 658 659 655
f 659 280 656
f 659 280 656
f 276 656 280
f 276 656 280
f 657 591 660
f 657 591 660
f 589 660 591
f 589 660 591
f 658 657 661
f 660 661 657
f 658 657 661
f 660 661 657
f 659 658 662
f 661 662 658
f 659 658 662
f 661 662 658
f 662 283 659
f 662 283 659
f 280 659 283
f 280 659 283
f 660 589 663
f 660 589 663
f 587 663 589
f 587 663 589
f 661 660 664
f 663 664 660
f 661 660 664
f 663 664 660
f 662 661 665
f 664 665 661
f 662 661 665
f 664 665 661
f 665 286 662
f 665 286 662
f 283 662 286
f 283 662 286
f 663 587 666
f 663 587 666
f 585 666 587
f 585 666 587
f 664 663 667
f 666 667 663
f 664 663 667
f 666 667 663
f 665 664 668
f 667 668 664
f 665 664 668
f 667 668 664
f 668 289 665
f 668 289 665
f 286 665 289
f 286 665 289
f 666 585 669
f 666 585 669
f 583 669 585
f 583 669 585
f 667 666 670
f 669 670 666
f 667 666 670
f 669 670 666
f 668 667 671
f 670 671 667
f 668 667 671
f 670 671 667
f 671 292 668
f 671 292 668
f 289 668 292
f 289 668 292
f 669 583 672
f 669 583 672
f 581 672 583
f 581 672 583
f 670 669 673
f 672 673 669
f 670 669 673
f 672 673 669
f 671 670 674
f 673 674 670
f 671 670 674
f 673 674 670
f 674 295 671
f 674 295 671
f 292 671 295
f 292 671 295
f 672 581 675
f 672 581 675
f 580 675 581
f 580 675 581
f 673 672 676
f 675 676 672
f 673 672 676
f 675 676 672
f 674 673 677
f 676 677 673
f 674 673 677
f 676 677 673
f 677 298 674
f 677 298 674
f 295 674 298
f 295 674 298
f 675 580 678
f 675 580 678
f 579 678 580
f 579 678 580
f 676 675 679
f 678 679 675
f 676 675 679
f 678 679 675
f 677 676 680
f 679 680 676
f 677 676 680
f 679 680 676
f 680 301 677
f 680 301 677
f 298 677 301
f 298 677 301
f 678 579 681
f 678 579 681
f 577 681 579
f 577 681 579
f 679 678 682
f 681 682 678
f 679 678 682
f 681 682 678
f 680 679 683
f 682 683 679
f 680 679 683
f 682 683 679
f 683 304 680
f 683 304 680
f 301 680 304
f 301 680 304
f 681 577 684
f 681 577 684
f 578 684 577
f 578 684 577
f 682 681 685
f 684 685 681
f 682 681 685
f 684 685 681
f 683 682 686
f 685 686 682
f 683 682 686
f 685 686 682
f 686 307 683
f 686 307 683
f 304 683 307
f 304 683 307
f 684 578 687
f 684 578 687
f 624 687 578
f 624 687 578
f 685 684 688
f 687 688 684
f 685 684 688
f 687 688 684
f 686 685 689
f 688 689 685
f 686 685 689
f 688 689 685
f 689 311 686
f 689 311 686
f 307 686 311
f 307 686 311
f 687 624 690
f 687 624 690
f 625 690 624
f 625 690 624
f 688 687 691
f 690 691 687
f 688 687 691
f 690 691 687
f 689 688 692
f 691 692 688
f 689 688 692
f 691 692 688
f 692 315 689
f 692 315 689
f 311 689 315
f 311 689 315
f 690 625 693
f 690 625 693
f 626 693 625
f 626 693 625
f 691 690 694
f 693 694 690
f 691 690 694
f 693 694 690
f 692 691 227
f 694 227 691
f 692 691 227
f 694 227 691
f 227 228 692
f 227 228 692
f 315 692 228
f 315 692 228
f 693 626 229
f 693 626 229
f 230 229 626
f 230 229 626
f 694 693 233
f 229 233 693
f 694 693 233
f 229 233 693
f 227 694 225
f 233 225 694
f 227 694 225
f 233 225 694
f 695 696 697
f 695 696 697
f 555 697 696
f 555 697 696
f 697 698 695
f 697 698 695
f 696 554 555
f 696 554 555
f 698 697 561
f 698 697 561
f 557 561 697
f 697 555 557
f 557 561 697
f 697 555 557
f 561 566 698
f 561 566 698
f 554 696 320
f 554 696 320
f 696 695 699
f 696 695 699
f 699 320 696
f 699 320 696
f 700 695 698
f 700 695 698
f 701 699 695
f 695 700 701
f 701 699 695
f 695 700 701
f 582 698 566
f 698 582 700
f 582 698 566
f 698 582 700
f 584 700 582
f 584 700 582
f 702 701 700
f 700 584 702
f 702 701 700
f 700 584 702
f 699 701 703
f 699 701 703
f 704 703 701
f 701 702 704
f 704 703 701
f 701 702 704
f 703 317 699
f 703 317 699
f 320 699 317
f 320 699 317
f 703 704 705
f 703 704 705
f 705 313 703
f 317 703 313
f 705 313 703
f 317 703 313
f 706 705 704
f 706 705 704
f 707 704 702
f 704 707 706
f 707 704 702
f 704 707 706
f 702 586 707
f 702 586 707
f 586 702 584
f 586 702 584
f 588 707 586
f 588 707 586
f 708 706 707
f 707 588 708
f 708 706 707
f 707 588 708
f 705 706 709
f 705 706 709
f 710 709 706
f 706 708 710
f 710 709 706
f 706 708 710
f 709 309 705
f 709 309 705
f 313 705 309
f 313 705 309
f 709 710 182
f 709 710 182
f 182 188 709
f 309 709 188
f 182 188 709
f 309 709 188
f 183 182 710
f 183 182 710
f 711 710 708
f 710 711 183
f 711 710 708
f 710 711 183
f 708 590 711
f 708 590 711
f 590 708 588
f 590 708 588
f 194 711 590
f 194 711 590
f 186 183 711
f 711 194 186
f 186 183 711
f 711 194 186
f 30 32 712
f 30 32 712
f 713 712 32
f 32 36 713
f 713 712 32
f 32 36 713
f 712 122 30
f 712 122 30
f 31 30 122
f 31 30 122
f 712 713 714
f 712 713 714
f 714 118 712
f 122 712 118
f 714 118 712
f 122 712 118
f 715 714 713
f 715 714 713
f 716 713 36
f 713 716 715
f 716 713 36
f 713 716 715
f 36 717 716
f 36 717 716
f 717 36 35
f 717 36 35
f 718 716 717
f 718 716 717
f 719 715 716
f 716 718 719
f 719 715 716
f 716 718 719
f 714 715 720
f 714 715 720
f 721 720 715
f 715 719 721
f 721 720 715
f 715 719 721
f 720 114 714
f 720 114 714
f 118 714 114
f 118 714 114
f 720 721 722
f 720 721 722
f 722 110 720
f 114 720 110
f 722 110 720
f 114 720 110
f 723 722 721
f 723 722 721
f 724 721 719
f 721 724 723
f 724 721 719
f 721 724 723
f 719 725 724
f 719 725 724
f 725 719 718
f 725 719 718
f 726 724 725
f 726 724 725
f 727 723 724
f 724 726 727
f 727 723 724
f 724 726 727
f 722 723 728
f 722 723 728
f 729 728 723
f 723 727 729
f 729 728 723
f 723 727 729
f 728 106 722
f 728 106 722
f 110 722 106
f 110 722 106
f 728 729 730
f 728 729 730
f 730 102 728
f 106 728 102
f 730 102 728
f 106 728 102
f 731 730 729
f 731 730 729
f 732 729 727
f 729 732 731
f 732 729 727
f 729 732 731
f 727 733 732
f 727 733 732
f 733 727 726
f 733 727 726
f 734 732 733
f 734 732 733
f 735 731 732
f 732 734 735
f 735 731 732
f 732 734 735
f 730 731 736
f 730 731 736
f 737 736 731
f 731 735 737
f 737 736 731
f 731 735 737
f 736 98 730
f 736 98 730
f 102 730 98
f 102 730 98
f 736 737 738
f 736 737 738
f 738 94 736
f 98 736 94
f 738 94 736
f 98 736 94
f 739 738 737
f 739 738 737
f 740 737 735
f 737 740 739
f 740 737 735
f 737 740 739
f 735 741 740
f 735 741 740
f 741 735 734
f 741 735 734
f 350 352 742
f 350 352 742
f 743 742 352
f 352 356 743
f 743 742 352
f 352 356 743
f 742 744 350
f 742 744 350
f 351 350 744
f 351 350 744
f 742 743 745
f 742 743 745
f 745 746 742
f 744 742 746
f 745 746 742
f 744 742 746
f 747 745 743
f 747 745 743
f 748 743 356
f 743 748 747
f 748 743 356
f 743 748 747
f 356 406 748
f 356 406 748
f 406 356 355
f 406 356 355
f 408 748 406
f 408 748 406
f 749 747 748
f 748 408 749
f 749 747 748
f 748 408 749
f 745 747 750
f 745 747 750
f 751 750 747
f 747 749 751
f 751 750 747
f 747 749 751
f 750 752 745
f 750 752 745
f 746 745 752
f 746 745 752
f 750 751 753
f 750 751 753
f 753 754 750
f 752 750 754
f 753 754 750
f 752 750 754
f 755 753 751
f 755 753 751
f 756 751 749
f 751 756 755
f 756 751 749
f 751 756 755
f 749 410 756
f 749 410 756
f 410 749 408
f 410 749 408
f 412 756 410
f 412 756 410
f 757 755 756
f 756 412 757
f 757 755 756
f 756 412 757
f 753 755 758
f 753 755 758
f 759 758 755
f 755 757 759
f 759 758 755
f 755 757 759
f 758 760 753
f 758 760 753
f 754 753 760
f 754 753 760
f 758 759 761
f 758 759 761
f 761 762 758
f 760 758 762
f 761 762 758
f 760 758 762
f 763 761 759
f 763 761 759
f 764 759 757
f 759 764 763
f 764 759 757
f 759 764 763
f 757 414 764
f 757 414 764
f 414 757 412
f 414 757 412
f 416 764 414
f 416 764 414
f 765 763 764
f 764 416 765
f 765 763 764
f 764 416 765
f 761 763 766
f 761 763 766
f 767 766 763
f 763 765 767
f 767 766 763
f 763 765 767
f 766 768 761
f 766 768 761
f 762 761 768
f 762 761 768
f 766 767 142
f 766 767 142
f 142 146 766
f 768 766 146
f 142 146 766
f 768 766 146
f 141 142 767
f 141 142 767
f 138 767 765
f 767 138 141
f 138 767 765
f 767 138 141
f 765 139 138
f 765 139 138
f 139 765 416
f 139 765 416
f 769 770 771
f 769 770 771
f 772 773 770
f 770 769 772
f 772 773 770
f 770 769 772
f 774 773 775
f 774 773 775
f 776 775 773
f 773 772 776
f 776 775 773
f 773 772 776
f 775 57 774
f 775 57 774
f 62 774 57
f 62 774 57
f 775 776 777
f 775 776 777
f 777 53 775
f 57 775 53
f 777 53 775
f 57 775 53
f 778 777 776
f 778 777 776
f 779 776 772
f 776 779 778
f 779 776 772
f 776 779 778
f 772 780 779
f 772 780 779
f 780 772 769
f 780 772 769
f 781 779 780
f 781 779 780
f 782 778 779
f 779 781 782
f 782 778 779
f 779 781 782
f 777 778 783
f 777 778 783
f 784 783 778
f 778 782 784
f 784 783 778
f 778 782 784
f 783 49 777
f 783 49 777
f 53 777 49
f 53 777 49
f 783 784 48
f 783 784 48
f 48 47 783
f 49 783 47
f 48 47 783
f 49 783 47
f 50 48 784
f 50 48 784
f 785 784 782
f 784 785 50
f 785 784 782
f 784 785 50
f 782 786 785
f 782 786 785
f 786 782 781
f 786 782 781
f 6 785 786
f 6 785 786
f 54 50 785
f 785 6 54
f 54 50 785
f 785 6 54
f 786 4 6
f 786 4 6
f 4 786 787
f 4 786 787
f 781 787 786
f 781 787 786
f 787 8 4
f 787 8 4
f 10 54 6
f 10 54 6
f 787 781 788
f 787 781 788
f 780 788 781
f 780 788 781
f 8 787 789
f 788 789 787
f 8 787 789
f 788 789 787
f 789 790 8
f 789 790 8
f 7 8 790
f 7 8 790
f 788 780 791
f 788 780 791
f 769 791 780
f 769 791 780
f 789 788 792
f 791 792 788
f 789 788 792
f 791 792 788
f 790 789 793
f 790 789 793
f 792 793 789
f 792 793 789
f 790 794 7
f 790 794 7
f 9 7 794
f 9 7 794
f 794 790 795
f 794 790 795
f 793 795 790
f 793 795 790
f 791 769 796
f 791 769 796
f 771 796 769
f 771 796 769
f 796 797 791
f 796 797 791
f 792 791 797
f 792 791 797
f 796 771 798
f 796 771 798
f 799 798 771
f 799 798 771
f 797 796 800
f 797 796 800
f 798 800 796
f 798 800 796
f 797 801 792
f 797 801 792
f 793 792 801
f 793 792 801
f 801 797 802
f 801 797 802
f 800 802 797
f 800 802 797
f 801 803 793
f 801 803 793
f 795 793 803
f 795 793 803
f 803 801 804
f 803 801 804
f 802 804 801
f 802 804 801
f 803 805 795
f 803 805 795
f 804 806 803
f 805 803 806
f 804 806 803
f 805 803 806
f 807 795 805
f 807 795 805
f 795 807 794
f 795 807 794
f 808 794 807
f 808 794 807
f 794 808 9
f 794 808 9
f 809 9 808
f 809 9 808
f 9 809 14
f 9 809 14
f 810 14 809
f 810 14 809
f 14 810 15
f 14 810 15
f 811 15 810
f 811 15 810
f 15 811 24
f 15 811 24
f 812 24 811
f 812 24 811
f 24 812 25
f 24 812 25
f 813 25 812
f 813 25 812
f 25 813 34
f 25 813 34
f 814 34 813
f 814 34 813
f 34 814 35
f 34 814 35
f 815 35 814
f 815 35 814
f 35 815 717
f 35 815 717
f 816 717 815
f 816 717 815
f 717 816 718
f 717 816 718
f 817 718 816
f 817 718 816
f 718 817 725
f 718 817 725
f 818 725 817
f 818 725 817
f 725 818 726
f 725 818 726
f 819 726 818
f 819 726 818
f 726 819 733
f 726 819 733
f 820 733 819
f 820 733 819
f 733 820 734
f 733 820 734
f 821 734 820
f 821 734 820
f 734 821 741
f 734 821 741
f 822 741 821
f 822 741 821
f 741 822 823
f 741 822 823
f 824 823 822
f 824 823 822
f 823 824 825
f 823 824 825
f 826 825 824
f 826 825 824
f 825 826 827
f 825 826 827
f 828 827 826
f 828 827 826
f 827 828 829
f 827 828 829
f 830 829 828
f 830 829 828
f 829 830 831
f 829 830 831
f 832 831 830
f 832 831 830
f 831 832 833
f 831 832 833
f 834 833 832
f 834 833 832
f 833 834 799
f 833 834 799
f 798 799 834
f 798 799 834
f 834 835 798
f 834 835 798
f 800 798 835
f 800 798 835
f 832 836 834
f 832 836 834
f 835 834 836
f 835 834 836
f 830 837 832
f 830 837 832
f 836 832 837
f 836 832 837
f 837 830 838
f 837 830 838
f 828 838 830
f 828 838 830
f 835 839 800
f 835 839 800
f 802 800 839
f 802 800 839
f 836 840 835
f 836 840 835
f 839 835 840
f 839 835 840
f 837 841 836
f 837 841 836
f 840 836 841
f 840 836 841
f 838 842 837
f 838 842 837
f 841 837 842
f 841 837 842
f 839 843 802
f 839 843 802
f 804 802 843
f 804 802 843
f 840 844 839
f 840 844 839
f 843 839 844
f 843 839 844
f 841 845 840
f 841 845 840
f 844 840 845
f 844 840 845
f 842 846 841
f 842 846 841
f 845 841 846
f 845 841 846
f 843 847 804
f 843 847 804
f 806 804 847
f 806 804 847
f 844 848 843
f 844 848 843
f 847 843 848
f 847 843 848
f 845 849 844
f 845 849 844
f 848 844 849
f 848 844 849
f 846 42 845
f 846 42 845
f 849 845 42
f 849 845 42
f 42 846 44
f 42 846 44
f 850 44 846
f 850 44 846
f 846 842 850
f 846 842 850
f 851 850 842
f 851 850 842
f 842 838 851
f 842 838 851
f 852 851 838
f 852 851 838
f 838 828 852
f 838 828 852
f 826 852 828
f 826 852 828
f 852 826 853
f 852 826 853
f 824 853 826
f 824 853 826
f 851 852 854
f 853 854 852
f 851 852 854
f 853 854 852
f 850 851 855
f 854 855 851
f 850 851 855
f 854 855 851
f 855 58 850
f 855 58 850
f 44 850 58
f 44 850 58
f 853 824 856
f 853 824 856
f 822 856 824
f 822 856 824
f 854 853 857
f 856 857 853
f 854 853 857
f 856 857 853
f 855 854 858
f 857 858 854
f 855 854 858
f 857 858 854
f 858 60 855
f 858 60 855
f 58 855 60
f 58 855 60
f 856 822 859
f 856 822 859
f 821 859 822
f 821 859 822
f 857 856 860
f 859 860 856
f 857 856 860
f 859 860 856
f 858 857 861
f 860 861 857
f 858 857 861
f 860 861 857
f 861 64 858
f 861 64 858
f 60 858 64
f 60 858 64
f 859 821 862
f 859 821 862
f 820 862 821
f 820 862 821
f 860 859 863
f 862 863 859
f 860 859 863
f 862 863 859
f 861 860 864
f 863 864 860
f 861 860 864
f 863 864 860
f 864 68 861
f 864 68 861
f 64 861 68
f 64 861 68
f 862 820 865
f 862 820 865
f 819 865 820
f 819 865 820
f 863 862 866
f 865 866 862
f 863 862 866
f 865 866 862
f 864 863 867
f 866 867 863
f 864 863 867
f 866 867 863
f 867 72 864
f 867 72 864
f 68 864 72
f 68 864 72
f 865 819 868
f 865 819 868
f 818 868 819
f 818 868 819
f 866 865 869
f 868 869 865
f 866 865 869
f 868 869 865
f 867 866 870
f 869 870 866
f 867 866 870
f 869 870 866
f 870 76 867
f 870 76 867
f 72 867 76
f 72 867 76
f 868 818 871
f 868 818 871
f 817 871 818
f 817 871 818
f 869 868 872
f 871 872 868
f 869 868 872
f 871 872 868
f 870 869 873
f 872 873 869
f 870 869 873
f 872 873 869
f 873 80 870
f 873 80 870
f 76 870 80
f 76 870 80
f 871 817 874
f 871 817 874
f 816 874 817
f 816 874 817
f 872 871 875
f 874 875 871
f 872 871 875
f 874 875 871
f 873 872 876
f 875 876 872
f 873 872 876
f 875 876 872
f 876 84 873
f 876 84 873
f 80 873 84
f 80 873 84
f 874 816 877
f 874 816 877
f 815 877 816
f 815 877 816
f 875 874 878
f 877 878 874
f 875 874 878
f 877 878 874
f 876 875 879
f 878 879 875
f 876 875 879
f 878 879 875
f 879 88 876
f 879 88 876
f 84 876 88
f 84 876 88
f 877 815 880
f 877 815 880
f 814 880 815
f 814 880 815
f 878 877 881
f 880 881 877
f 878 877 881
f 880 881 877
f 879 878 882
f 881 882 878
f 879 878 882
f 881 882 878
f 882 92 879
f 882 92 879
f 88 879 92
f 88 879 92
f 880 814 883
f 880 814 883
f 813 883 814
f 813 883 814
f 881 880 884
f 883 884 880
f 881 880 884
f 883 884 880
f 882 881 885
f 884 885 881
f 882 881 885
f 884 885 881
f 885 96 882
f 885 96 882
f 92 882 96
f 92 882 96
f 883 813 886
f 883 813 886
f 812 886 813
f 812 886 813
f 884 883 887
f 886 887 883
f 884 883 887
f 886 887 883
f 885 884 888
f 887 888 884
f 885 884 888
f 887 888 884
f 888 100 885
f 888 100 885
f 96 885 100
f 96 885 100
f 886 812 889
f 886 812 889
f 811 889 812
f 811 889 812
f 887 886 890
f 889 890 886
f 887 886 890
f 889 890 886
f 888 887 891
f 890 891 887
f 888 887 891
f 890 891 887
f 891 104 888
f 891 104 888
f 100 888 104
f 100 888 104
f 889 811 892
f 889 811 892
f 810 892 811
f 810 892 811
f 890 889 893
f 892 893 889
f 890 889 893
f 892 893 889
f 891 890 894
f 893 894 890
f 891 890 894
f 893 894 890
f 894 108 891
f 894 108 891
f 104 891 108
f 104 891 108
f 892 810 895
f 892 810 895
f 809 895 810
f 809 895 810
f 893 892 896
f 895 896 892
f 893 892 896
f 895 896 892
f 894 893 897
f 896 897 893
f 894 893 897
f 896 897 893
f 897 112 894
f 897 112 894
f 108 894 112
f 108 894 112
f 895 809 898
f 895 809 898
f 808 898 809
f 808 898 809
f 896 895 899
f 898 899 895
f 896 895 899
f 898 899 895
f 897 896 900
f 899 900 896
f 897 896 900
f 899 900 896
f 900 116 897
f 900 116 897
f 112 897 116
f 112 897 116
f 898 808 901
f 898 808 901
f 807 901 808
f 807 901 808
f 899 898 902
f 901 902 898
f 899 898 902
f 901 902 898
f 900 899 903
f 902 903 899
f 900 899 903
f 902 903 899
f 903 120 900
f 903 120 900
f 116 900 120
f 116 900 120
f 901 807 904
f 901 807 904
f 805 904 807
f 805 904 807
f 902 901 905
f 904 905 901
f 902 901 905
f 904 905 901
f 903 902 906
f 905 906 902
f 903 902 906
f 905 906 902
f 906 124 903
f 906 124 903
f 120 903 124
f 120 903 124
f 904 805 907
f 904 805 907
f 806 907 805
f 806 907 805
f 905 904 908
f 907 908 904
f 905 904 908
f 907 908 904
f 906 905 909
f 908 909 905
f 906 905 909
f 908 909 905
f 909 127 906
f 909 127 906
f 124 906 127
f 124 906 127
f 907 806 910
f 907 806 910
f 847 910 806
f 847 910 806
f 908 907 911
f 910 911 907
f 908 907 911
f 910 911 907
f 909 908 912
f 911 912 908
f 909 908 912
f 911 912 908
f 912 130 909
f 912 130 909
f 127 909 130
f 127 909 130
f 910 847 913
f 910 847 913
f 848 913 847
f 848 913 847
f 911 910 914
f 913 914 910
f 911 910 914
f 913 914 910
f 912 911 915
f 914 915 911
f 912 911 915
f 914 915 911
f 915 133 912
f 915 133 912
f 130 912 133
f 130 912 133
f 913 848 916
f 913 848 916
f 849 916 848
f 849 916 848
f 914 913 917
f 916 917 913
f 914 913 917
f 916 917 913
f 915 914 39
f 917 39 914
f 915 914 39
f 917 39 914
f 39 40 915
f 39 40 915
f 133 915 40
f 133 915 40
f 916 849 41
f 916 849 41
f 42 41 849
f 42 41 849
f 917 916 45
f 41 45 916
f 917 916 45
f 41 45 916
f 39 917 37
f 45 37 917
f 39 917 37
f 45 37 917
f 823 740 741
f 823 740 741
f 918 739 740
f 740 823 918
f 918 739 740
f 740 823 918
f 738 739 919
f 738 739 919
f 920 919 739
f 739 918 920
f 920 919 739
f 739 918 920
f 919 90 738
f 919 90 738
f 94 738 90
f 94 738 90
f 919 920 921
f 919 920 921
f 921 86 919
f 90 919 86
f 921 86 919
f 90 919 86
f 922 921 920
f 922 921 920
f 923 920 918
f 920 923 922
f 923 920 918
f 920 923 922
f 918 825 923
f 918 825 923
f 825 918 823
f 825 918 823
f 827 923 825
f 827 923 825
f 924 922 923
f 923 827 924
f 924 922 923
f 923 827 924
f 921 922 925
f 921 922 925
f 926 925 922
f 922 924 926
f 926 925 922
f 922 924 926
f 925 82 921
f 925 82 921
f 86 921 82
f 86 921 82
f 925 926 927
f 925 926 927
f 927 78 925
f 82 925 78
f 927 78 925
f 82 925 78
f 928 927 926
f 928 927 926
f 929 926 924
f 926 929 928
f 929 926 924
f 926 929 928
f 924 829 929
f 924 829 929
f 829 924 827
f 829 924 827
f 831 929 829
f 831 929 829
f 930 928 929
f 929 831 930
f 930 928 929
f 929 831 930
f 927 928 931
f 927 928 931
f 932 931 928
f 928 930 932
f 932 931 928
f 928 930 932
f 931 74 927
f 931 74 927
f 78 927 74
f 78 927 74
f 931 932 933
f 931 932 933
f 933 70 931
f 74 931 70
f 933 70 931
f 74 931 70
f 934 933 932
f 934 933 932
f 935 932 930
f 932 935 934
f 935 932 930
f 932 935 934
f 930 833 935
f 930 833 935
f 833 930 831
f 833 930 831
f 799 935 833
f 799 935 833
f 936 934 935
f 935 799 936
f 936 934 935
f 935 799 936
f 933 934 937
f 933 934 937
f 938 937 934
f 934 936 938
f 938 937 934
f 934 936 938
f 937 66 933
f 937 66 933
f 70 933 66
f 70 933 66
f 937 938 774
f 937 938 774
f 774 62 937
f 66 937 62
f 774 62 937
f 66 937 62
f 773 774 938
f 773 774 938
f 770 938 936
f 938 770 773
f 770 938 936
f 938 770 773
f 936 771 770
f 936 771 770
f 771 936 799
f 771 936 799
f 600 223 224
f 600 223 224
f 939 222 223
f 223 600 939
f 939 222 223
f 223 600 939
f 220 222 940
f 220 222 940
f 941 940 222
f 222 939 941
f 941 940 222
f 222 939 941
f 940 278 220
f 940 278 220
f 221 220 278
f 221 220 278
f 940 941 942
f 940 941 942
f 942 274 940
f 278 940 274
f 942 274 940
f 278 940 274
f 943 942 941
f 943 942 941
f 944 941 939
f 941 944 943
f 944 941 939
f 941 944 943
f 939 602 944
f 939 602 944
f 602 939 600
f 602 939 600
f 604 944 602
f 604 944 602
f 945 943 944
f 944 604 945
f 945 943 944
f 944 604 945
f 942 943 946
f 942 943 946
f 947 946 943
f 943 945 947
f 947 946 943
f 943 945 947
f 946 270 942
f 946 270 942
f 274 942 270
f 274 942 270
f 946 947 948
f 946 947 948
f 948 266 946
f 270 946 266
f 948 266 946
f 270 946 266
f 949 948 947
f 949 948 947
f 950 947 945
f 947 950 949
f 950 947 945
f 947 950 949
f 945 606 950
f 945 606 950
f 606 945 604
f 606 945 604
f 608 950 606
f 608 950 606
f 951 949 950
f 950 608 951
f 951 949 950
f 950 608 951
f 948 949 952
f 948 949 952
f 953 952 949
f 949 951 953
f 953 952 949
f 949 951 953
f 952 262 948
f 952 262 948
f 266 948 262
f 266 948 262
f 952 953 954
f 952 953 954
f 954 258 952
f 262 952 258
f 954 258 952
f 262 952 258
f 955 954 953
f 955 954 953
f 956 953 951
f 953 956 955
f 956 953 951
f 953 956 955
f 951 610 956
f 951 610 956
f 610 951 608
f 610 951 608
f 571 956 610
f 571 956 610
f 957 955 956
f 956 571 957
f 957 955 956
f 956 571 957
f 954 955 958
f 954 955 958
f 959 958 955
f 955 957 959
f 959 958 955
f 955 957 959
f 958 254 954
f 958 254 954
f 258 954 254
f 258 954 254
f 958 959 541
f 958 959 541
f 541 250 958
f 254 958 250
f 541 250 958
f 254 958 250
f 540 541 959
f 540 541 959
f 537 959 957
f 959 537 540
f 537 959 957
f 959 537 540
f 957 538 537
f 957 538 537
f 538 957 571
f 538 957 571
f 535 960 531
f 535 960 531
f 532 531 960
f 532 531 960
f 533 440 961
f 533 440 961
f 441 961 440
f 441 961 440
f 534 533 962
f 961 962 533
f 534 533 962
f 961 962 533
f 535 534 373
f 962 373 534
f 535 534 373
f 962 373 534
f 373 372 535
f 373 372 535
f 960 535 372
f 960 535 372
f 373 962 371
f 373 962 371
f 372 374 960
f 372 374 960
f 963 960 374
f 963 960 374
f 960 963 532
f 960 963 532
f 964 371 962
f 964 371 962
f 962 961 964
f 962 961 964
f 371 964 363
f 371 964 363
f 374 377 963
f 374 377 963
f 965 964 961
f 965 964 961
f 961 441 965
f 961 441 965
f 966 363 964
f 966 363 964
f 964 965 966
f 964 965 966
f 363 966 361
f 363 966 361
f 448 965 441
f 448 965 441
f 965 448 967
f 965 448 967
f 967 966 965
f 967 966 965
f 452 967 448
f 452 967 448
f 968 361 966
f 968 361 966
f 966 967 968
f 966 967 968
f 361 968 178
f 361 968 178
f 967 452 969
f 967 452 969
f 969 968 967
f 969 968 967
f 456 969 452
f 456 969 452
f 970 178 968
f 970 178 968
f 968 969 970
f 968 969 970
f 178 970 176
f 178 970 176
f 969 456 971
f 969 456 971
f 971 970 969
f 971 970 969
f 460 971 456
f 460 971 456
f 972 176 970
f 972 176 970
f 970 971 972
f 970 971 972
f 176 972 168
f 176 972 168
f 971 460 973
f 971 460 973
f 973 972 971
f 973 972 971
f 464 973 460
f 464 973 460
f 974 168 972
f 974 168 972
f 972 973 974
f 972 973 974
f 168 974 166
f 168 974 166
f 973 464 975
f 973 464 975
f 975 974 973
f 975 974 973
f 468 975 464
f 468 975 464
f 976 166 974
f 976 166 974
f 974 975 976
f 974 975 976
f 166 976 158
f 166 976 158
f 975 468 977
f 975 468 977
f 977 976 975
f 977 976 975
f 472 977 468
f 472 977 468
f 978 158 976
f 978 158 976
f 976 977 978
f 976 977 978
f 158 978 156
f 158 978 156
f 977 472 979
f 977 472 979
f 979 978 977
f 979 978 977
f 476 979 472
f 476 979 472
f 980 156 978
f 980 156 978
f 978 979 980
f 978 979 980
f 156 980 148
f 156 980 148
f 979 476 981
f 979 476 981
f 981 980 979
f 981 980 979
f 480 981 476
f 480 981 476
f 982 148 980
f 982 148 980
f 980 981 982
f 980 981 982
f 148 982 145
f 148 982 145
f 981 480 983
f 981 480 983
f 983 982 981
f 983 982 981
f 484 983 480
f 484 983 480
f 984 145 982
f 984 145 982
f 982 983 984
f 982 983 984
f 145 984 146
f 145 984 146
f 983 484 985
f 983 484 985
f 985 984 983
f 985 984 983
f 488 985 484
f 488 985 484
f 986 146 984
f 986 146 984
f 984 985 986
f 984 985 986
f 146 986 768
f 146 986 768
f 985 488 987
f 985 488 987
f 987 986 985
f 987 986 985
f 492 987 488
f 492 987 488
f 988 768 986
f 988 768 986
f 986 987 988
f 986 987 988
f 768 988 762
f 768 988 762
f 987 492 989
f 987 492 989
f 989 988 987
f 989 988 987
f 496 989 492
f 496 989 492
f 990 762 988
f 990 762 988
f 988 989 990
f 988 989 990
f 762 990 760
f 762 990 760
f 989 496 991
f 989 496 991
f 991 990 989
f 991 990 989
f 500 991 496
f 500 991 496
f 992 760 990
f 992 760 990
f 990 991 992
f 990 991 992
f 760 992 754
f 760 992 754
f 991 500 993
f 991 500 993
f 993 992 991
f 993 992 991
f 504 993 500
f 504 993 500
f 994 754 992
f 994 754 992
f 992 993 994
f 992 993 994
f 754 994 752
f 754 994 752
f 993 504 995
f 993 504 995
f 995 994 993
f 995 994 993
f 508 995 504
f 508 995 504
f 996 752 994
f 996 752 994
f 994 995 996
f 994 995 996
f 752 996 746
f 752 996 746
f 995 508 997
f 995 508 997
f 997 996 995
f 997 996 995
f 512 997 508
f 512 997 508
f 998 746 996
f 998 746 996
f 996 997 998
f 996 997 998
f 746 998 744
f 746 998 744
f 997 512 999
f 997 512 999
f 999 998 997
f 999 998 997
f 516 999 512
f 516 999 512
f 1000 744 998
f 1000 744 998
f 998 999 1000
f 998 999 1000
f 744 1000 351
f 744 1000 351
f 999 516 1001
f 999 516 1001
f 1001 1000 999
f 1001 1000 999
f 520 1001 516
f 520 1001 516
f 1002 351 1000
f 1002 351 1000
f 1000 1001 1002
f 1000 1001 1002
f 351 1002 349
f 351 1002 349
f 1001 520 1003
f 1001 520 1003
f 1003 1002 1001
f 1003 1002 1001
f 524 1003 520
f 524 1003 520
f 1004 349 1002
f 1004 349 1002
f 1002 1003 1004
f 1002 1003 1004
f 349 1004 341
f 349 1004 341
f 1003 524 1005
f 1003 524 1005
f 1005 1004 1003
f 1005 1004 1003
f 528 1005 524
f 528 1005 524
f 1006 341 1004
f 1006 341 1004
f 1004 1005 1006
f 1004 1005 1006
f 341 1006 339
f 341 1006 339
f 1005 528 1007
f 1005 528 1007
f 1007 1006 1005
f 1007 1006 1005
f 532 1007 528
f 532 1007 528
f 1008 339 1006
f 1008 339 1006
f 1006 1007 1008
f 1006 1007 1008
f 339 1008 330
f 339 1008 330
f 377 330 1008
f 377 330 1008
f 1007 532 963
f 1007 532 963
f 1008 963 377
f 1008 963 377
f 963 1008 1007
f 963 1008 1007
