v -0.191128418 -0.219801545 0.101945579
v -0.190327272 -0.219864547 0.102123797
v -0.190413043 -0.219865203 0.102123976
v -0.190492198 -0.219866812 0.102126598
v -0.190644845 -0.21987927 0.102155983
v -0.19071798 -0.219890058 0.102182567
v 0.164434388 -0.217307508 0.102123976
v 0.16514875 -0.217233539 0.101945579
v 0.164810494 -0.217340887 0.102217376
v 0.0468446799 -0.00116438023 0.0766317248
v -0.0146416845 0.0098186098 0.0765873194
v -0.0759633631 -0.00204956881 0.0766317248
v 0.0467022248 0.0191733204 0.0763977766
v 0.133572295 0.0197994672 0.0763977766
v 0.0990894586 0.0259376727 0.0759932399
v 0.13354139 0.0261859857 0.0759932399
v 0.153776452 0.0258815251 0.0759428144
v 0.133538887 0.0300347172 0.0753038526
v 0.153868273 0.0296148024 0.0752754807
v 0.163918898 0.0279880129 0.0751902461
v 0.153909728 0.0314221941 0.0737372637
v 0.16436322 0.0296360217 0.0737127662
v 0.168920502 0.0259538852 0.0736908913
v 0.164209679 0.0299879275 0.0707278848
v 0.153639778 0.031826552 0.0707322955
v 0.133176818 0.032317277 0.0707338452
v 0.133454189 0.0318952166 0.0737454891
v 0.099012956 0.0316469632 0.0737454891
v 0.0987993032 0.0320695005 0.0707339048
v 0.0464856215 0.0316923819 0.0707339644
v 0.0990810543 0.0297863446 0.0753038526
v -0.0147931399 0.0308266841 0.0737454891
v -0.0147961797 0.0312507115 0.070734024
v 0.0466451831 0.0294083916 0.0753038526
v -0.0760779828 0.0308089815 0.0707339644
v 0.0466624685 0.0255597793 0.0759932399
v -0.0147519531 0.0251170956 0.0759932399
v -0.0147797288 0.0289656483 0.0753038526
v -0.0761141628 0.0182880722 0.0763977766
v -0.0761885494 0.0303841196 0.0737454891
v -0.0762046427 0.028522905 0.0753038526
v -0.128599212 0.0300063454 0.0737454891
v -0.128391668 0.0304319225 0.0707339048
v -0.162769184 0.030184146 0.0707338452
v -0.12859337 0.024296578 0.0759932399
v -0.128640518 0.0281449519 0.0753038526
v -0.16309832 0.0278965794 0.0753038526
v -0.163040444 0.0297581516 0.0737454891
v -0.183487043 0.028990265 0.0737372637
v -0.183222935 0.0293984972 0.0707322955
v -0.193765268 0.0274077021 0.0707278848
v -0.163045332 0.0240482651 0.0759932399
v -0.162984177 0.0176619254 0.0763977766
v -0.183273897 0.0234520994 0.0759428144
v -0.183419511 0.0271837078 0.0752754807
v -0.193445668 0.0254121386 0.0751902461
v -0.193913683 0.0270536505 0.0737127662
v -0.19841747 0.0233061872 0.0736908913
v -0.19840847 0.0235446058 0.0707192421
v -0.201164946 0.0171420537 0.0707048774
v -0.193030819 0.0220307671 0.0757914782
v -0.197507545 0.0220163427 0.0751284957
v -0.196130082 0.0201830231 0.0755870938
v -0.193338737 0.0164568983 0.0761474371
v -0.199935958 0.0164304338 0.0751703978
v -0.197434351 0.01593953 0.0757780075
v -0.183303699 0.017268952 0.0763351917
v -0.183369026 0.00854146108 0.0765193701
v -0.198366329 0.00813251361 0.0759089589
v -0.193817839 0.00828325376 0.076315403
v -0.193916604 -0.00289750448 0.0763525367
v -0.201095507 0.0171058737 0.0736906528
v -0.202396438 0.00836294517 0.0736915469
v -0.202501997 0.00821876153 0.0706849098
v -0.202886745 -0.00320667378 0.070659399
v -0.201121911 0.00824665651 0.0752336383
v -0.201456174 -0.00294298283 0.0752359033
v -0.202769145 -0.00301248184 0.0736730099
v -0.202668712 -0.0169428624 0.0736420155
v -0.20278649 -0.0171154775 0.070628345
v -0.202668473 -0.033488933 0.070591867
v -0.198616013 -0.00292808167 0.075933814
v -0.198515579 -0.0168587007 0.0759028196
v -0.201237425 -0.0332959332 0.0751684308
v -0.202550456 -0.033350829 0.0736055374
v -0.202416822 -0.0518950857 0.073564291
v -0.202535138 -0.0519894995 0.0705507398
v -0.202388927 -0.0722796917 0.0705055594
v -0.201948032 -0.11693275 0.0734196901
v -0.202067479 -0.116878748 0.0704064369
v -0.201785371 -0.139496922 0.073369503
v -0.201905116 -0.139398038 0.070356369
v -0.201755688 -0.160127699 0.0703102946
v -0.200634524 -0.116941214 0.0749824047
v -0.201103613 -0.0518549122 0.0751271248
v -0.198263451 -0.0518350042 0.0758250952
v -0.200322017 -0.160297871 0.074886024
v -0.201635703 -0.160266042 0.0733233094
v -0.201509401 -0.17778641 0.0732843876
v -0.201629624 -0.177615702 0.070271492
v -0.201537415 -0.190409958 0.0702431202
v -0.193697855 -0.0332422294 0.0762850642
v -0.197263166 -0.190618813 0.0755164623
v -0.200103208 -0.190650821 0.0748185515
v -0.201417014 -0.190604389 0.0732558966
v -0.200898215 -0.199497104 0.0732293725
v -0.20100604 -0.199320912 0.0702234507
v -0.199562654 -0.205159068 0.0702105761
v -0.196870849 -0.19934094 0.075447619
v -0.199624881 -0.1994434 0.0747718215
v -0.198340818 -0.204877734 0.0746783018
v -0.199492857 -0.20524168 0.0731962919
v -0.196745083 -0.208709955 0.0731749535
v -0.193417355 -0.0721585751 0.0761985779
v -0.193564102 -0.0518014468 0.0762438178
v -0.182977363 -0.0517253317 0.0764532089
v -0.183111116 -0.033165995 0.0764944553
v -0.162608787 -0.0330182947 0.0765642524
v -0.183229432 -0.0167500414 0.0765309334
v -0.162827477 -0.002675656 0.0766317248
v -0.183329865 -0.00282287947 0.0765619278
v -0.162912354 0.00874989852 0.0765873194
v -0.128465697 0.00899821147 0.0765873194
v -0.0760467499 0.00937598571 0.0765873194
v 0.17175658 0.0198300444 0.0707048774
v 0.168908074 0.0261921845 0.0707192421
v 0.170537993 0.0191007815 0.0751703978
v 0.168043748 0.0185738169 0.0757780075
v 0.16908811 0.0107811056 0.0759089589
v 0.168029293 0.0246510468 0.0751284957
v 0.166678414 0.0227980576 0.0755870938
v 0.163941041 0.019032117 0.0761474371
v 0.163552836 0.0246009789 0.0757914782
v 0.164537951 0.010866221 0.076315403
v 0.164797857 -0.000311974203 0.0763525367
v 0.154086486 0.0109738074 0.0765193701
v 0.153895393 0.019699391 0.0763351917
v 0.154211149 -0.000389937079 0.0765619278
v 0.154311493 -0.0143171586 0.0765309334
v 0.13370879 -0.000538293039 0.0766317248
v 0.133927509 -0.0308808722 0.0765642524
v 0.0470633693 -0.031507019 0.0765642524
v 0.13362895 0.0108873211 0.0765873194
v 0.0991822928 0.0106390081 0.0765873194
v 0.0467633791 0.0102611743 0.0765873194
v -0.0757446736 -0.0323921479 0.0765642524
v -0.108194694 -0.0588681735 0.0765058994
v -0.0755555481 -0.058632914 0.0765058994
v -0.0373210125 -0.0583573617 0.0765058994
v -0.140971109 -0.0591044463 0.0765058994
v 0.00901802164 -0.0580233373 0.0765058994
v 0.0472524948 -0.0577477254 0.0765058994
v -0.162419662 -0.0592590608 0.0765058994
v -0.168056175 -0.0592995919 0.0764867067
v -0.168005094 -0.0663789511 0.0764709711
v 0.0798917264 -0.0575124659 0.0765058994
v 0.112668052 -0.0572762527 0.0765058994
v 0.134116635 -0.0571216382 0.0765058994
v -0.182830617 -0.0720826387 0.0764079094
v -0.167964801 -0.0719755888 0.0764585137
v -0.167921588 -0.077971518 0.0764452219
v 0.154563591 -0.0492923893 0.0764532089
v 0.141209647 -0.0570704974 0.0764817595
v 0.141250268 -0.0627035499 0.0764692426
v -0.182673439 -0.0938925147 0.0763594508
v -0.167687818 -0.110402107 0.0763731003
v -0.182508275 -0.116809666 0.0763084888
v -0.1676424 -0.116702437 0.0763590932
v -0.193094954 -0.116886079 0.0760990977
v -0.182345554 -0.139381349 0.0762583017
v -0.167371139 -0.154336393 0.0762754083
v -0.182195827 -0.160155118 0.0762121081
v -0.167329952 -0.160047531 0.0762627125
v -0.167295262 -0.164864957 0.0762519836
v -0.192782566 -0.160233319 0.076002717
v -0.182069525 -0.177678287 0.0761731267
v -0.167242154 -0.172231317 0.0762355924
v -0.192563817 -0.190578043 0.0759352446
v -0.161474809 -0.19034934 0.0762144327
v -0.161605641 -0.172190726 0.0762547851
v -0.137654588 -0.172018111 0.0762547851
v -0.111188874 -0.171827316 0.0762547851
v -0.0747415274 -0.171564639 0.0762547851
v -0.181977138 -0.190498233 0.0761446357
v -0.181870207 -0.19939667 0.0760569572
v -0.192321107 -0.199370682 0.0758536458
v -0.191743836 -0.204810739 0.0756554604
v -0.16141288 -0.199283004 0.0761247873
v -0.181700513 -0.205155075 0.0758405924
v -0.16137819 -0.205147564 0.0759023428
v -0.126966223 -0.199034691 0.0761247873
v -0.181600973 -0.208651602 0.0754266977
v -0.0746106356 -0.189723253 0.0762144327
v 0.0481974073 -0.188838065 0.0762144327
v 0.0480665155 -0.17067945 0.0762547851
v 0.084513858 -0.170416713 0.0762547851
v 0.110979572 -0.170225978 0.0762547851
v 0.135061517 -0.188211918 0.0762144327
v 0.134930626 -0.170053363 0.0762547851
v 0.142023668 -0.170002162 0.0762306452
v 0.155471459 -0.175245345 0.0761731267
v 0.14197953 -0.163880765 0.076244235
v 0.155345157 -0.157722175 0.0762121081
v 0.14193584 -0.157818437 0.0762577653
v 0.141884044 -0.150631487 0.0762737393
v 0.1551954 -0.136948466 0.0762583017
v 0.141623423 -0.114473343 0.076354146
v 0.165931895 -0.157647789 0.076002717
v 0.155032739 -0.114376724 0.0763084888
v 0.141566262 -0.106544912 0.0763717294
v 0.165619478 -0.114300549 0.0760990977
v 0.154867545 -0.0914595723 0.0763594508
v 0.14135541 -0.0772917867 0.0764368176
v 0.154710338 -0.0696496964 0.0764079094
v 0.141301021 -0.0697464347 0.0764535666
v 0.165297076 -0.0695730448 0.0761985779
v 0.169497207 -0.000274780905 0.075933814
v 0.165016577 -0.0306566395 0.0762850642
v 0.166150615 -0.187992454 0.0759352446
v 0.154429838 -0.0307330526 0.0764944553
v 0.155563876 -0.18806535 0.0761446357
v 0.155585274 -0.196964324 0.0760569572
v 0.135128424 -0.197145581 0.0761247873
v 0.100681737 -0.197393835 0.0761247873
v 0.135178283 -0.203010023 0.0759023428
v 0.166034684 -0.196787715 0.0758536458
v 0.0482628532 -0.197771668 0.0761247873
v -0.0131422104 -0.198214293 0.0761247873
v 0.0483082123 -0.203636169 0.0759023428
v -0.0745472759 -0.198656857 0.0761247873
v -0.0745081753 -0.204521418 0.0759023428
v -0.161367282 -0.208760023 0.0754755735
v 0.13521944 -0.206622243 0.0754755735
v -0.161376819 -0.210937381 0.0747727752
v -0.0744831413 -0.210311055 0.0747727752
v -0.181704447 -0.21076405 0.0747463703
v 0.0483666845 -0.209425569 0.0747727752
v -0.191749737 -0.209876895 0.0746670961
v -0.181751832 -0.21174866 0.073202014
v -0.191373095 -0.207959175 0.0752800703
v -0.194492921 -0.206951261 0.0750820637
v -0.195844993 -0.204567313 0.0752876997
v -0.195849583 -0.208005071 0.0746170282
v -0.192199454 -0.210773528 0.0731839538
v -0.192047879 -0.210858762 0.0701981187
v -0.196734235 -0.20873487 0.0702027678
v -0.181483969 -0.211861491 0.0701958537
v -0.161023065 -0.212073624 0.0701951385
v -0.16129826 -0.211951315 0.073208034
v -0.126857027 -0.211703062 0.073208034
v -0.126645491 -0.211825788 0.0701952577
v -0.0743318051 -0.211448729 0.0701953173
v -0.0744463056 -0.211325288 0.073208034
v -0.0130508961 -0.210882783 0.073208034
v -0.013050002 -0.211006999 0.0701953173
v 0.0482317396 -0.210565329 0.0701953173
v 0.0483444519 -0.210440278 0.073208034
v 0.10075517 -0.210062504 0.073208034
v 0.100545451 -0.21018827 0.0701952577
v 0.134922996 -0.209940493 0.0701951385
v 0.135260358 -0.208799243 0.0747727752
v 0.135196403 -0.20981425 0.073208034
v 0.155644938 -0.20931673 0.0732019544
v 0.155378744 -0.209433436 0.0701958537
v 0.165927067 -0.208278537 0.0701981187
v 0.155449435 -0.206222177 0.0754266977
v 0.155583367 -0.208332896 0.0747463703
v 0.165614828 -0.20730108 0.0746670961
v 0.16607745 -0.208191156 0.0731839538
v 0.170592889 -0.206062198 0.0731749535
v 0.170582309 -0.206087291 0.0702027678
v 0.173358902 -0.202471077 0.0702105761
v 0.155498579 -0.202724636 0.0758405924
v 0.165535912 -0.20223552 0.0756554604
v 0.16521056 -0.205388963 0.0752800703
v 0.170583531 -0.196692348 0.075447619
v 0.168315575 -0.204336166 0.0750820637
v 0.169633105 -0.201933026 0.0752876997
v 0.170850053 -0.187965512 0.0755164623
v 0.169687256 -0.205370367 0.0746170282
v 0.172133133 -0.202207386 0.0746783018
v 0.173290297 -0.202554703 0.0731962919
v 0.174612746 -0.196790457 0.0732293725
v 0.174718007 -0.196612775 0.0702234507
v 0.175120875 -0.187695026 0.0702431202
v 0.173338756 -0.196755171 0.0747718215
v 0.173690304 -0.187956572 0.0748185515
v 0.175003275 -0.187891185 0.0732558966
v 0.174910888 -0.175073266 0.0732843876
v 0.175028667 -0.17490083 0.070271492
v 0.173471525 -0.157603621 0.074886024
v 0.174902603 -0.157412827 0.0703102946
v 0.174784616 -0.157552838 0.0733233094
v 0.174634889 -0.136783719 0.073369503
v 0.174753204 -0.136683166 0.070356369
v 0.174590901 -0.114163876 0.0704064369
v 0.173159018 -0.114246964 0.0749824047
v 0.174307153 -0.091314137 0.0734705925
v 0.174426153 -0.091307044 0.0704572201
v 0.174269453 -0.0695648193 0.0705055594
v 0.172836587 -0.069516778 0.0750818849
v 0.174150094 -0.0695211887 0.0735190511
v 0.174003467 -0.0491819419 0.073564291
v 0.174123183 -0.0492746271 0.0705507398
v 0.173989818 -0.030774001 0.070591867
v 0.172556117 -0.030601684 0.0751684308
v 0.173869804 -0.0306376852 0.0736055374
v 0.1738718 -0.0144005455 0.070628345
v 0.173751548 -0.014229659 0.0736420155
v 0.173771545 -0.000491801417 0.070659399
v 0.172337338 -0.000248733675 0.0752359033
v 0.173651144 -0.000299278414 0.0736730099
v 0.173114523 0.0110695325 0.0736915469
v 0.17322211 0.0109268986 0.0706849098
v 0.171841756 0.0109348856 0.0752336383
v 0.171687648 0.0197928511 0.0736906528
v 0.164434388 -0.217307508 0.102123976
v 0.164453819 -0.217940629 0.102629721
v 0.16514875 -0.217233539 0.101945579
v -0.191128418 -0.219801545 0.101945579
v -0.190423355 -0.220498562 0.102629721
v -0.190327272 -0.219864547 0.102123797
v -0.167242333 -0.17220813 0.065805614
v -0.167242154 -0.172231317 0.0762355924
v -0.161605641 -0.172190726 0.0762547851
v -0.137654588 -0.172018111 0.0762547851
v -0.111188874 -0.171827316 0.0762547851
v -0.0747415274 -0.171564639 0.0762547851
v 0.0480665155 -0.17067945 0.0762547851
v 0.084513858 -0.170416713 0.0762547851
v 0.110979572 -0.170225978 0.0762547851
v 0.134930626 -0.170053363 0.0762547851
v 0.142023668 -0.170002162 0.0762306452
v 0.142023489 -0.169978976 0.065805614
v 0.175417498 -0.233183205 0.142888486
v 0.174562678 -0.233005047 0.142984271
v 0.174818352 -0.26847747 0.234895408
v -0.200058326 -0.271179497 0.234895349
v -0.200910375 -0.271386504 0.234842539
v -0.200765416 -0.291496903 0.286949813
v 0.175673321 -0.268672138 0.234842539
v -0.199913427 -0.291280508 0.286978304
v 0.174963221 -0.28857848 0.286978364
v -0.200363681 -0.292720348 0.290127158
v 0.17581825 -0.288782537 0.286949813
v -0.199528918 -0.292451471 0.290019333
v 0.174595609 -0.289754838 0.290019333
v -0.19926177 -0.293813348 0.292979598
v 0.175434187 -0.290011674 0.290127158
v -0.198492691 -0.293479294 0.292701721
v 0.173574343 -0.290797472 0.292701721
v -0.197537467 -0.294772983 0.295498133
v 0.174348131 -0.29112041 0.292979598
v -0.196870431 -0.294382155 0.295071244
v 0.171965227 -0.291723639 0.295071244
v -0.195278391 -0.295568049 0.297600269
v 0.172637835 -0.29210481 0.295498192
v -0.194744334 -0.295130432 0.297049701
v 0.169850156 -0.292502493 0.297049642
v -0.192574367 -0.296166927 0.299202442
v 0.170390502 -0.292932361 0.297600269
v -0.192200288 -0.295693874 0.298557043
v 0.167314485 -0.293102533 0.298556983
v -0.189514145 -0.29653877 0.300223053
v 0.167695358 -0.293570131 0.299202383
v -0.189322457 -0.296043545 0.299516797
v 0.164442018 -0.293493688 0.299516797
v -0.186107442 -0.296655715 0.300589621
v 0.164640799 -0.293986082 0.300223053
v -0.186061963 -0.296155483 0.29986763
v 0.161183462 -0.293652594 0.29986763
v -0.0938442796 -0.295990705 0.300589621
v 0.161236122 -0.294152111 0.300589621
v -0.0938249081 -0.295490652 0.29986763
v 0.0689464062 -0.294317424 0.29986763
v 0.0689729899 -0.29481715 0.300589621
v -0.190327272 -0.219864547 0.102123797
v -0.190423355 -0.220498562 0.102629721
v -0.0943704098 -0.219806194 0.102629721
v -0.0943749994 -0.219172955 0.102123797
v 0.0684008747 -0.218632996 0.102629721
v 0.068396315 -0.217999697 0.102123797
v 0.164453819 -0.217940629 0.102629721
v 0.164348617 -0.217308104 0.102123797
v 0.164434388 -0.217307508 0.102123976
v 0.164348617 -0.217308104 0.102123797
v 0.164453819 -0.217940629 0.102629721
v 0.141209498 -0.0570473112 0.0660567284
v 0.141209647 -0.0570704974 0.0764817595
v 0.134116635 -0.0571216382 0.0765058994
v 0.112668052 -0.0572762527 0.0765058994
v 0.0798917264 -0.0575124659 0.0765058994
v 0.0472524948 -0.0577477254 0.0765058994
v 0.00901802164 -0.0580233373 0.0765058994
v -0.0373210125 -0.0583573617 0.0765058994
v -0.0755555481 -0.058632914 0.0765058994
v -0.108194694 -0.0588681735 0.0765058994
v -0.140971109 -0.0591044463 0.0765058994
v -0.162419662 -0.0592590608 0.0765058994
v -0.168056175 -0.0592995919 0.0764867067
v -0.168056294 -0.0592764057 0.0660567284
v -0.190327272 -0.219864547 0.102123797
v -0.0943749994 -0.219172955 0.102123797
v -0.0944420546 -0.209867179 0.0780119896
v 0.06832923 -0.208693922 0.0780119896
v -0.18667911 -0.21053201 0.0780119896
v 0.068396315 -0.217999697 0.102123797
v 0.160566285 -0.208029091 0.0780119896
v -0.189937696 -0.210690916 0.0783628821
v 0.164348617 -0.217308104 0.102123797
v -0.190413043 -0.219865203 0.102123976
v -0.192810163 -0.211082041 0.0793226361
v 0.164434388 -0.217307508 0.102123976
v -0.190492198 -0.219866812 0.102126598
v -0.195345804 -0.211682081 0.080829978
v -0.197460875 -0.212460935 0.0828083754
v -0.190644845 -0.21987927 0.102155983
v -0.199069962 -0.213387072 0.085177958
v -0.19071798 -0.219890058 0.102182567
v -0.200091287 -0.214429736 0.0878602862
v -0.200458869 -0.215606093 0.0909013152
v -0.191128418 -0.219801545 0.101945579
v -0.191014215 -0.235640109 0.142984271
v -0.20031403 -0.235707104 0.142984271
v -0.190758571 -0.271112472 0.234895349
v -0.200058326 -0.271179497 0.234895349
v -0.190604493 -0.292491287 0.290289164
v -0.199913427 -0.291280508 0.286978304
v -0.199528918 -0.292451471 0.290019333
v -0.190602705 -0.292572916 0.2905007
v -0.189634845 -0.292832524 0.291191459
v -0.198492691 -0.293479294 0.292701721
v -0.190579161 -0.292652935 0.290708482
v -0.196870431 -0.294382155 0.295071244
v -0.190477237 -0.29273057 0.290911496
v -0.194744334 -0.295130432 0.297049701
v -0.190302238 -0.292792171 0.291074336
v -0.192200288 -0.295693874 0.298557043
v -0.190084383 -0.29282707 0.291168928
v -0.189322457 -0.296043545 0.299516797
v -0.189861581 -0.292833745 0.291190326
v -0.186061963 -0.296155483 0.29986763
v -0.093849048 -0.292142123 0.291191459
v -0.0938249081 -0.295490652 0.29986763
v 0.0689222664 -0.290968895 0.291191459
v 0.0689464062 -0.294317424 0.29986763
v 0.164708093 -0.290278494 0.291191459
v 0.161183462 -0.293652594 0.29986763
v 0.164442018 -0.293493688 0.299516797
v 0.164934799 -0.290276438 0.291190326
v 0.165672675 -0.28992331 0.290289164
v 0.167314485 -0.293102533 0.298556983
v 0.165157482 -0.290266544 0.291168869
v 0.169850156 -0.292502493 0.297049642
v 0.165374801 -0.290228486 0.291074336
v 0.171965227 -0.291723639 0.295071244
v 0.165548906 -0.290164381 0.290911496
v 0.173574343 -0.290797472 0.292701721
v 0.165649667 -0.290085286 0.290708482
v 0.174595609 -0.289754838 0.290019333
v 0.165672109 -0.290004939 0.2905007
v 0.174963221 -0.28857848 0.286978364
v 0.165518597 -0.268544495 0.234895408
v 0.174818352 -0.26847747 0.234895408
v 0.165262893 -0.233072102 0.142984271
v 0.174562678 -0.233005047 0.142984271
v 0.16514875 -0.217233539 0.101945579
v 0.174417779 -0.212904036 0.0909013152
v 0.174033239 -0.211733103 0.0878603458
v 0.164810494 -0.217340887 0.102217376
v 0.172997013 -0.21070528 0.085177958
v 0.171374753 -0.209802449 0.0828083754
v 0.16466637 -0.217318237 0.102155983
v 0.169248655 -0.209054172 0.080829978
v 0.16459088 -0.217311561 0.102137327
v 0.16670464 -0.208490729 0.0793226361
v 0.163826808 -0.208141029 0.0783628821
v -0.0944658965 -0.20975256 0.0771413445
v -0.0944420546 -0.209867179 0.0780119896
v 0.06832923 -0.208693922 0.0780119896
v -0.186728999 -0.210417569 0.0771413445
v 0.0683514327 -0.208579004 0.0771413445
v -0.18667911 -0.21053201 0.0780119896
v 0.160566285 -0.208029091 0.0780119896
v -0.190133676 -0.210583627 0.0775079727
v 0.160614535 -0.207913995 0.0771413445
v -0.189937696 -0.210690916 0.0783628821
v 0.163826808 -0.208141029 0.0783628821
v -0.193188235 -0.210999548 0.078528583
v 0.164021239 -0.208030939 0.0775079727
v -0.192810163 -0.211082041 0.0793226361
v 0.16670464 -0.208490729 0.0793226361
v -0.195883378 -0.211637318 0.0801307559
v 0.16708152 -0.208402753 0.078528583
v -0.195345804 -0.211682081 0.080829978
v 0.169248655 -0.209054172 0.080829978
v -0.198130712 -0.212464869 0.0822328329
v 0.169785544 -0.20900166 0.0801306963
v -0.197460875 -0.212460935 0.0828083754
v 0.171374753 -0.209802449 0.0828083754
v -0.199841008 -0.213449299 0.0847514272
v 0.17204459 -0.209796727 0.0822328329
v -0.199069962 -0.213387072 0.085177958
v 0.172997013 -0.21070528 0.085177958
v -0.200927064 -0.214558005 0.0876038671
v 0.173768863 -0.210756361 0.0847514272
v -0.200091287 -0.214429736 0.0878602862
v 0.174033239 -0.211733103 0.0878603458
v -0.201311156 -0.215787172 0.0907812119
v 0.174870774 -0.211849332 0.0876038671
v -0.200458869 -0.215606093 0.0909013152
v 0.174417779 -0.212904036 0.0909013152
v -0.201166198 -0.235897541 0.142888486
v 0.175272569 -0.213072777 0.0907812119
v -0.20031403 -0.235707104 0.142984271
v -0.167295262 -0.164864957 0.0762519836
v -0.167242154 -0.172231317 0.0762355924
v -0.167242333 -0.17220813 0.065805614
v -0.167329952 -0.160047531 0.0762627125
v -0.167371139 -0.154336393 0.0762754083
v -0.1676424 -0.116702437 0.0763590932
v -0.167687818 -0.110402107 0.0763731003
v -0.167921588 -0.077971518 0.0764452219
v -0.167964801 -0.0719755888 0.0764585137
v -0.168005094 -0.0663789511 0.0764709711
v -0.168056294 -0.0592764057 0.0660567284
v -0.168056175 -0.0592995919 0.0764867067
v 0.142023489 -0.169978976 0.065805614
v 0.142023668 -0.170002162 0.0762306452
v 0.14197953 -0.163880765 0.076244235
v 0.14193584 -0.157818437 0.0762577653
v 0.141884044 -0.150631487 0.0762737393
v 0.141623423 -0.114473343 0.076354146
v 0.141566262 -0.106544912 0.0763717294
v 0.14135541 -0.0772917867 0.0764368176
v 0.141301021 -0.0697464347 0.0764535666
v 0.141250268 -0.0627035499 0.0764692426
v 0.141209498 -0.0570473112 0.0660567284
v 0.141209647 -0.0570704974 0.0764817595
v -0.191014215 -0.235640109 0.142984271
v -0.190311536 -0.236016273 0.142837107
v -0.190423355 -0.220498562 0.102629721
v -0.191128418 -0.219801545 0.101945579
v -0.190758571 -0.271112472 0.234895349
v -0.190055832 -0.271488667 0.234748244
v -0.190604493 -0.292491287 0.290289164
v -0.189901039 -0.292963684 0.290391266
v 0.165518597 -0.268544495 0.234895408
v 0.164821342 -0.268930793 0.234748244
v 0.164976135 -0.29040578 0.290391207
v 0.165672675 -0.28992331 0.290289164
v 0.165262893 -0.233072102 0.142984271
v 0.164565668 -0.2334584 0.142837107
v 0.16514875 -0.217233539 0.101945579
v 0.164453819 -0.217940629 0.102629721
v -0.093849048 -0.292142123 0.291191459
v -0.0938480943 -0.292271346 0.290391207
v -0.189901039 -0.292963684 0.290391266
v -0.189634845 -0.292832524 0.291191459
v 0.0689222664 -0.290968895 0.291191459
v 0.0689231902 -0.291098118 0.290391207
v 0.164708093 -0.290278494 0.291191459
v 0.164976135 -0.29040578 0.290391207
v -0.189634845 -0.292832524 0.291191459
v -0.189901039 -0.292963684 0.290391266
v -0.190604493 -0.292491287 0.290289164
v 0.165672675 -0.28992331 0.290289164
v 0.164976135 -0.29040578 0.290391207
v 0.164708093 -0.290278494 0.291191459
f 1 2 3
f 1 2 3
f 1 3 4
f 1 3 4
f 1 4 5
f 1 4 5
f 1 5 6
f 1 5 6
f 7 8 9
f 7 8 9
f 10 11 12
f 13 14 15
f 13 14 15
f 14 16 15
f 14 16 15
f 17 16 14
f 17 16 14
f 15 16 18
f 18 16 17
f 15 16 18
f 18 16 17
f 17 19 18
f 17 19 18
f 20 19 17
f 20 19 17
f 18 19 21
f 21 19 20
f 18 19 21
f 21 19 20
f 20 22 21
f 20 22 21
f 23 22 20
f 23 22 20
f 24 22 23
f 24 22 23
f 21 22 24
f 21 22 24
f 24 25 21
f 24 25 21
f 21 25 26
f 21 25 26
f 26 27 21
f 21 27 18
f 26 27 21
f 21 27 18
f 28 27 26
f 28 27 26
f 18 27 28
f 18 27 28
f 26 29 28
f 26 29 28
f 30 28 29
f 30 28 29
f 28 31 18
f 28 31 18
f 31 15 18
f 31 15 18
f 30 32 28
f 30 32 28
f 30 33 32
f 30 33 32
f 34 31 28
f 34 31 28
f 31 34 15
f 31 34 15
f 34 28 32
f 34 28 32
f 32 33 35
f 32 33 35
f 34 36 15
f 34 36 15
f 13 15 36
f 13 15 36
f 37 36 34
f 37 36 34
f 13 36 37
f 13 36 37
f 37 34 38
f 34 32 38
f 37 34 38
f 34 32 38
f 39 13 37
f 39 13 37
f 39 11 13
f 39 11 13
f 38 32 40
f 38 32 40
f 35 40 32
f 35 40 32
f 37 38 41
f 40 41 38
f 37 38 41
f 40 41 38
f 42 40 35
f 42 40 35
f 41 40 42
f 41 40 42
f 35 43 42
f 35 43 42
f 42 43 44
f 42 43 44
f 45 37 41
f 45 37 41
f 45 39 37
f 45 39 37
f 42 46 41
f 42 46 41
f 45 41 46
f 45 41 46
f 47 46 42
f 45 46 47
f 47 46 42
f 45 46 47
f 44 48 42
f 44 48 42
f 42 48 47
f 42 48 47
f 49 48 44
f 49 48 44
f 47 48 49
f 47 48 49
f 44 50 49
f 44 50 49
f 49 50 51
f 49 50 51
f 47 52 45
f 47 52 45
f 45 52 53
f 45 52 53
f 45 53 39
f 45 53 39
f 54 52 47
f 54 52 47
f 53 52 54
f 53 52 54
f 49 55 47
f 49 55 47
f 47 55 54
f 47 55 54
f 56 55 49
f 56 55 49
f 54 55 56
f 54 55 56
f 49 57 56
f 49 57 56
f 51 57 49
f 51 57 49
f 58 57 51
f 58 57 51
f 56 57 58
f 56 57 58
f 51 59 58
f 51 59 58
f 58 59 60
f 58 59 60
f 56 61 54
f 56 61 54
f 58 62 56
f 58 62 56
f 63 61 56
f 63 61 56
f 56 62 63
f 56 62 63
f 64 61 63
f 64 61 63
f 54 61 64
f 54 61 64
f 63 62 65
f 65 62 58
f 63 62 65
f 65 62 58
f 63 66 64
f 65 66 63
f 63 66 64
f 65 66 63
f 64 67 54
f 64 67 54
f 54 67 53
f 54 67 53
f 68 67 64
f 68 67 64
f 53 67 68
f 53 67 68
f 64 66 69
f 69 66 65
f 64 66 69
f 69 66 65
f 64 70 68
f 69 70 64
f 64 70 68
f 69 70 64
f 68 70 71
f 71 70 69
f 71 70 69
f 68 70 71
f 58 72 65
f 58 72 65
f 60 72 58
f 60 72 58
f 73 72 60
f 73 72 60
f 65 72 73
f 65 72 73
f 60 74 73
f 60 74 73
f 73 74 75
f 73 74 75
f 73 76 65
f 73 76 65
f 65 76 69
f 65 76 69
f 77 76 73
f 77 76 73
f 69 76 77
f 69 76 77
f 75 78 73
f 75 78 73
f 73 78 77
f 73 78 77
f 79 78 75
f 79 78 75
f 79 77 78
f 79 77 78
f 75 80 79
f 75 80 79
f 79 80 81
f 79 80 81
f 77 82 69
f 77 82 69
f 69 82 71
f 69 82 71
f 83 82 77
f 83 82 77
f 83 71 82
f 83 71 82
f 84 83 77
f 84 83 77
f 79 84 77
f 79 84 77
f 79 81 85
f 79 85 84
f 79 85 84
f 79 81 85
f 81 86 85
f 81 86 85
f 84 85 86
f 84 85 86
f 81 87 86
f 81 87 86
f 86 87 88
f 86 87 88
f 86 88 89
f 86 88 89
f 88 90 89
f 88 90 89
f 90 91 89
f 90 91 89
f 90 92 91
f 90 92 91
f 93 91 92
f 93 91 92
f 86 89 94
f 94 89 91
f 86 89 94
f 94 89 91
f 94 95 86
f 94 95 86
f 86 95 84
f 86 95 84
f 84 95 96
f 84 95 96
f 96 95 94
f 96 95 94
f 84 96 83
f 84 96 83
f 94 91 97
f 94 91 97
f 96 94 97
f 96 94 97
f 93 98 91
f 93 98 91
f 91 98 97
f 91 98 97
f 93 99 98
f 93 99 98
f 97 98 99
f 97 98 99
f 93 100 99
f 93 100 99
f 99 100 101
f 99 100 101
f 83 96 102
f 83 96 102
f 83 102 71
f 83 102 71
f 103 96 97
f 103 96 97
f 97 99 104
f 103 97 104
f 97 99 104
f 103 97 104
f 101 105 99
f 101 105 99
f 99 105 104
f 99 105 104
f 106 105 101
f 106 105 101
f 104 105 106
f 104 105 106
f 101 107 106
f 101 107 106
f 106 107 108
f 106 107 108
f 109 103 104
f 109 103 104
f 104 110 109
f 104 110 109
f 106 110 104
f 106 110 104
f 109 110 111
f 109 110 111
f 111 110 106
f 111 110 106
f 108 112 106
f 106 112 111
f 106 112 111
f 108 112 106
f 111 112 113
f 111 112 113
f 113 112 108
f 113 112 108
f 96 103 114
f 96 103 114
f 96 114 115
f 96 114 115
f 116 115 114
f 116 115 114
f 96 115 102
f 96 115 102
f 102 115 116
f 102 115 116
f 116 117 102
f 116 117 102
f 118 117 116
f 118 117 116
f 102 117 119
f 102 117 119
f 119 117 118
f 119 117 118
f 102 119 71
f 102 119 71
f 119 118 120
f 119 118 120
f 119 121 71
f 119 121 71
f 119 120 121
f 119 120 121
f 71 121 68
f 71 121 68
f 68 121 120
f 68 121 120
f 12 120 118
f 12 120 118
f 120 122 68
f 120 122 68
f 68 122 53
f 68 122 53
f 123 122 120
f 123 122 120
f 123 53 122
f 123 53 122
f 12 123 120
f 12 123 120
f 123 39 53
f 123 39 53
f 12 124 123
f 123 124 39
f 123 124 39
f 12 124 123
f 39 124 11
f 39 124 11
f 11 124 12
f 11 124 12
f 125 126 23
f 125 126 23
f 23 126 24
f 23 126 24
f 127 128 129
f 127 128 129
f 23 130 127
f 23 130 127
f 131 128 127
f 131 128 127
f 127 130 131
f 127 130 131
f 132 128 131
f 132 128 131
f 129 128 132
f 129 128 132
f 131 130 20
f 20 130 23
f 131 130 20
f 20 130 23
f 131 133 132
f 20 133 131
f 131 133 132
f 20 133 131
f 132 134 129
f 132 134 129
f 129 134 135
f 129 134 135
f 136 134 132
f 136 134 132
f 135 134 136
f 135 134 136
f 132 133 17
f 17 133 20
f 132 133 17
f 17 133 20
f 132 137 136
f 17 137 132
f 132 137 136
f 17 137 132
f 136 138 135
f 136 138 135
f 135 138 139
f 135 138 139
f 139 138 140
f 139 138 140
f 140 138 136
f 140 138 136
f 141 139 140
f 141 139 140
f 14 137 17
f 14 137 17
f 136 137 14
f 136 137 14
f 141 140 10
f 141 140 10
f 10 142 141
f 10 142 141
f 142 10 12
f 142 10 12
f 14 143 136
f 136 143 140
f 136 143 140
f 14 143 136
f 144 140 143
f 144 140 143
f 144 143 14
f 144 143 14
f 144 10 140
f 144 10 140
f 144 145 10
f 144 145 10
f 13 145 144
f 13 144 14
f 13 145 144
f 13 144 14
f 10 145 11
f 10 145 11
f 11 145 13
f 11 145 13
f 10 11 12
f 118 146 12
f 118 146 12
f 147 148 146
f 147 148 146
f 149 146 148
f 149 146 148
f 150 147 146
f 150 147 146
f 150 146 118
f 150 146 118
f 149 142 146
f 149 142 146
f 12 146 142
f 12 146 142
f 149 151 142
f 149 151 142
f 151 152 142
f 151 152 142
f 150 118 153
f 150 118 153
f 153 118 116
f 153 118 116
f 154 153 116
f 154 153 116
f 155 154 116
f 155 154 116
f 141 142 152
f 141 142 152
f 141 152 156
f 141 152 156
f 157 141 156
f 157 141 156
f 157 158 141
f 157 158 141
f 155 116 159
f 155 116 159
f 155 159 160
f 155 159 160
f 159 161 160
f 159 161 160
f 162 141 158
f 162 141 158
f 162 158 163
f 162 158 163
f 164 162 163
f 164 162 163
f 159 165 161
f 159 165 161
f 165 166 161
f 165 166 161
f 165 159 114
f 165 159 114
f 114 159 116
f 114 159 116
f 165 167 166
f 165 167 166
f 167 168 166
f 167 168 166
f 169 165 114
f 169 165 114
f 169 167 165
f 169 167 165
f 168 167 170
f 168 167 170
f 170 167 169
f 170 167 169
f 171 168 170
f 171 168 170
f 171 170 172
f 171 170 172
f 171 172 173
f 171 172 173
f 174 173 172
f 174 173 172
f 170 169 175
f 170 169 175
f 170 175 172
f 170 175 172
f 174 172 176
f 174 172 176
f 176 172 175
f 176 172 175
f 174 176 177
f 174 176 177
f 103 175 169
f 103 175 169
f 103 169 114
f 103 169 114
f 103 178 175
f 103 178 175
f 178 176 175
f 178 176 175
f 176 179 177
f 176 179 177
f 179 180 177
f 179 180 177
f 181 180 179
f 181 180 179
f 181 179 182
f 181 179 182
f 179 183 182
f 179 183 182
f 178 184 176
f 176 184 179
f 176 184 179
f 178 184 176
f 179 184 185
f 185 184 178
f 185 184 178
f 179 184 185
f 178 186 185
f 178 186 185
f 109 186 178
f 109 186 178
f 178 103 109
f 178 103 109
f 185 186 187
f 187 186 109
f 185 186 187
f 187 186 109
f 185 188 179
f 185 188 179
f 187 189 185
f 187 189 185
f 190 188 185
f 190 188 185
f 185 189 190
f 185 189 190
f 191 188 190
f 191 188 190
f 191 179 188
f 191 179 188
f 190 189 192
f 190 189 192
f 192 189 187
f 192 189 187
f 191 193 179
f 191 193 179
f 179 193 183
f 179 193 183
f 183 193 194
f 183 193 194
f 194 195 183
f 194 195 183
f 196 195 194
f 196 195 194
f 197 196 194
f 197 196 194
f 197 194 198
f 197 194 198
f 197 198 199
f 197 198 199
f 200 199 198
f 200 199 198
f 200 198 201
f 200 198 201
f 200 201 202
f 200 201 202
f 201 203 202
f 201 203 202
f 203 204 202
f 203 204 202
f 205 204 203
f 205 204 203
f 205 203 206
f 205 203 206
f 207 205 206
f 207 205 206
f 208 203 201
f 208 203 201
f 206 203 208
f 206 203 208
f 207 206 209
f 207 206 209
f 210 207 209
f 210 207 209
f 206 211 209
f 206 208 211
f 206 211 209
f 206 208 211
f 210 209 212
f 210 209 212
f 212 209 211
f 212 209 211
f 213 210 212
f 213 210 212
f 213 212 214
f 213 212 214
f 213 214 215
f 213 214 215
f 164 215 214
f 164 215 214
f 164 214 162
f 164 214 162
f 212 216 214
f 212 216 214
f 162 214 216
f 162 214 216
f 212 211 216
f 212 211 216
f 217 216 211
f 217 216 211
f 217 211 208
f 217 211 208
f 217 218 216
f 217 218 216
f 162 216 218
f 162 216 218
f 217 208 219
f 217 208 219
f 208 201 219
f 208 201 219
f 162 218 220
f 162 218 220
f 162 220 141
f 162 220 141
f 139 220 218
f 139 220 218
f 141 220 139
f 141 220 139
f 217 135 218
f 135 139 218
f 217 135 218
f 135 139 218
f 201 221 219
f 201 221 219
f 198 221 201
f 198 221 201
f 219 221 222
f 222 221 198
f 222 221 198
f 219 221 222
f 198 223 222
f 198 223 222
f 224 223 198
f 224 223 198
f 194 224 198
f 194 224 198
f 222 223 225
f 224 225 223
f 222 223 225
f 224 225 223
f 222 226 219
f 222 226 219
f 194 227 224
f 194 227 224
f 228 227 194
f 228 227 194
f 224 227 229
f 224 227 229
f 229 227 228
f 229 227 228
f 224 229 225
f 224 229 225
f 193 228 194
f 193 228 194
f 193 230 228
f 193 230 228
f 191 230 193
f 191 230 193
f 228 230 231
f 231 230 191
f 228 230 231
f 231 230 191
f 229 228 231
f 229 228 231
f 231 191 190
f 231 191 190
f 229 231 232
f 231 190 232
f 229 231 232
f 231 190 232
f 225 229 232
f 225 229 232
f 192 232 190
f 192 232 190
f 225 232 233
f 225 232 233
f 234 232 192
f 234 232 192
f 235 233 232
f 235 232 234
f 235 232 234
f 235 233 232
f 192 236 234
f 192 236 234
f 235 237 233
f 235 237 233
f 238 236 192
f 238 236 192
f 234 236 239
f 239 236 238
f 234 236 239
f 239 236 238
f 192 240 238
f 192 240 238
f 187 240 192
f 187 240 192
f 238 240 241
f 241 240 187
f 238 240 241
f 241 240 187
f 187 242 241
f 187 242 241
f 109 242 187
f 109 242 187
f 241 242 111
f 111 242 109
f 241 242 111
f 111 242 109
f 241 243 238
f 111 243 241
f 241 243 238
f 111 243 241
f 238 243 113
f 113 243 111
f 238 243 113
f 113 243 111
f 113 244 238
f 113 244 238
f 238 244 239
f 238 244 239
f 245 244 113
f 245 244 113
f 239 244 245
f 239 244 245
f 113 246 245
f 113 246 245
f 245 247 239
f 245 247 239
f 108 246 113
f 108 246 113
f 239 247 248
f 239 247 248
f 248 249 239
f 248 249 239
f 239 249 234
f 239 249 234
f 250 249 248
f 250 249 248
f 250 234 249
f 250 234 249
f 248 251 250
f 248 251 250
f 250 235 234
f 250 235 234
f 250 251 252
f 250 251 252
f 250 253 235
f 250 253 235
f 252 253 250
f 252 253 250
f 235 253 254
f 254 253 252
f 235 253 254
f 254 253 252
f 254 252 255
f 254 252 255
f 235 254 237
f 235 254 237
f 254 255 256
f 254 255 256
f 254 256 257
f 254 256 257
f 254 257 237
f 254 257 237
f 258 257 256
f 258 257 256
f 237 257 258
f 237 257 258
f 256 259 258
f 256 259 258
f 258 259 260
f 258 259 260
f 237 258 261
f 237 258 261
f 237 261 233
f 237 261 233
f 258 262 261
f 260 262 258
f 258 262 261
f 260 262 258
f 263 262 260
f 263 262 260
f 261 262 263
f 261 262 263
f 260 264 263
f 260 264 263
f 263 264 265
f 263 264 265
f 266 233 261
f 266 233 261
f 225 233 266
f 225 233 266
f 263 267 261
f 263 267 261
f 261 267 266
f 261 267 266
f 268 267 263
f 268 267 263
f 266 267 268
f 266 267 268
f 265 269 263
f 265 269 263
f 263 269 268
f 263 269 268
f 270 269 265
f 270 269 265
f 268 269 270
f 268 269 270
f 265 271 270
f 265 271 270
f 270 271 272
f 270 271 272
f 266 273 225
f 266 273 225
f 225 273 222
f 225 273 222
f 222 273 274
f 222 273 274
f 274 273 266
f 274 273 266
f 274 226 222
f 274 226 222
f 266 275 274
f 266 275 274
f 268 275 266
f 268 275 266
f 276 226 274
f 276 226 274
f 219 226 276
f 219 226 276
f 274 275 277
f 277 275 268
f 274 275 277
f 277 275 268
f 274 278 276
f 277 278 274
f 274 278 276
f 277 278 274
f 276 279 219
f 276 279 219
f 217 219 279
f 217 219 279
f 268 280 277
f 268 280 277
f 270 280 268
f 270 280 268
f 281 278 277
f 281 278 277
f 277 280 281
f 277 280 281
f 276 278 281
f 276 278 281
f 281 280 270
f 281 280 270
f 270 282 281
f 270 282 281
f 272 282 270
f 272 282 270
f 283 282 272
f 283 282 272
f 281 282 283
f 281 282 283
f 272 284 283
f 272 284 283
f 283 284 285
f 283 284 285
f 281 286 276
f 283 286 281
f 281 286 276
f 283 286 281
f 276 286 287
f 276 286 287
f 287 286 283
f 287 286 283
f 287 279 276
f 287 279 276
f 285 288 283
f 283 288 287
f 283 288 287
f 285 288 283
f 289 288 285
f 289 288 285
f 289 287 288
f 289 287 288
f 285 290 289
f 285 290 289
f 291 279 287
f 291 279 287
f 289 291 287
f 289 291 287
f 291 217 279
f 291 217 279
f 289 290 292
f 289 290 292
f 289 293 291
f 289 293 291
f 289 292 293
f 289 292 293
f 292 294 293
f 292 294 293
f 294 291 293
f 294 291 293
f 292 295 294
f 292 295 294
f 294 295 296
f 294 295 296
f 291 297 217
f 294 297 291
f 291 297 217
f 294 297 291
f 298 294 296
f 298 294 296
f 294 298 297
f 294 298 297
f 298 296 299
f 298 296 299
f 300 298 299
f 300 298 299
f 297 301 217
f 297 301 217
f 298 301 297
f 298 301 297
f 300 302 298
f 298 302 301
f 298 302 301
f 300 302 298
f 300 303 302
f 300 303 302
f 301 302 303
f 301 302 303
f 300 304 303
f 300 304 303
f 303 304 305
f 303 304 305
f 301 306 217
f 301 303 306
f 301 306 217
f 301 303 306
f 305 307 303
f 305 307 303
f 303 307 306
f 303 307 306
f 307 305 308
f 307 305 308
f 308 309 307
f 308 309 307
f 306 307 309
f 306 307 309
f 309 308 310
f 309 308 310
f 306 311 217
f 306 309 311
f 306 311 217
f 306 309 311
f 129 217 311
f 129 217 311
f 135 217 129
f 135 217 129
f 309 312 311
f 309 312 311
f 310 312 309
f 310 312 309
f 313 312 310
f 313 312 310
f 311 312 313
f 311 312 313
f 310 314 313
f 310 314 313
f 313 314 125
f 313 314 125
f 311 315 129
f 313 315 311
f 311 315 129
f 313 315 311
f 129 315 127
f 127 315 313
f 129 315 127
f 127 315 313
f 125 316 313
f 313 316 127
f 313 316 127
f 125 316 313
f 23 316 125
f 23 316 125
f 127 316 23
f 127 316 23
f 317 318 319
f 317 318 319
f 320 321 322
f 320 321 322
f 323 324 325
f 323 324 325
f 323 325 326
f 323 325 326
f 323 326 327
f 323 326 327
f 323 327 328
f 323 327 328
f 323 328 329
f 323 328 329
f 323 329 330
f 323 329 330
f 323 330 331
f 323 330 331
f 323 331 332
f 323 331 332
f 323 332 333
f 323 332 333
f 323 333 334
f 323 333 334
f 335 336 337
f 335 336 337
f 338 339 340
f 338 339 340
f 337 341 335
f 337 341 335
f 340 342 338
f 340 342 338
f 341 337 343
f 341 337 343
f 342 340 344
f 342 340 344
f 343 345 341
f 343 345 341
f 344 346 342
f 344 346 342
f 345 343 347
f 345 343 347
f 346 344 348
f 346 344 348
f 347 349 345
f 347 349 345
f 348 350 346
f 348 350 346
f 349 347 351
f 349 347 351
f 350 348 352
f 350 348 352
f 351 353 349
f 351 353 349
f 352 354 350
f 352 354 350
f 353 351 355
f 353 351 355
f 354 352 356
f 354 352 356
f 355 357 353
f 355 357 353
f 356 358 354
f 356 358 354
f 357 355 359
f 357 355 359
f 358 356 360
f 358 356 360
f 359 361 357
f 359 361 357
f 360 362 358
f 360 362 358
f 361 359 363
f 361 359 363
f 362 360 364
f 362 360 364
f 363 365 361
f 363 365 361
f 364 366 362
f 364 366 362
f 365 363 367
f 365 363 367
f 366 364 368
f 366 364 368
f 367 369 365
f 367 369 365
f 368 370 366
f 368 370 366
f 369 367 371
f 369 367 371
f 370 368 372
f 370 368 372
f 371 373 369
f 371 373 369
f 372 374 370
f 372 374 370
f 373 371 375
f 373 371 375
f 374 372 376
f 374 372 376
f 375 376 373
f 375 376 373
f 376 375 374
f 376 375 374
f 377 378 379
f 377 378 379
f 379 380 377
f 379 380 377
f 380 379 381
f 380 379 381
f 381 382 380
f 381 382 380
f 382 381 383
f 382 381 383
f 383 384 382
f 383 384 382
f 385 386 387
f 385 386 387
f 388 389 390
f 388 389 390
f 388 390 391
f 388 390 391
f 388 391 392
f 388 391 392
f 388 392 393
f 388 392 393
f 388 393 394
f 388 393 394
f 388 394 395
f 388 394 395
f 388 395 396
f 388 395 396
f 388 396 397
f 388 396 397
f 388 397 398
f 388 397 398
f 388 398 399
f 388 398 399
f 388 399 400
f 388 399 400
f 388 400 401
f 388 400 401
f 402 403 404
f 402 403 404
f 405 404 403
f 405 404 403
f 404 406 402
f 404 406 402
f 403 407 405
f 403 407 405
f 408 405 407
f 408 405 407
f 402 406 409
f 402 406 409
f 407 410 408
f 407 410 408
f 409 411 402
f 409 411 402
f 411 409 412
f 411 409 412
f 408 410 413
f 408 410 413
f 412 414 411
f 412 414 411
f 414 412 415
f 414 412 415
f 414 415 416
f 414 415 416
f 416 417 414
f 416 417 414
f 417 416 418
f 417 416 418
f 418 419 417
f 418 419 417
f 419 418 420
f 419 418 420
f 419 420 421
f 419 420 421
f 421 422 419
f 421 422 419
f 423 422 421
f 423 422 421
f 421 424 423
f 421 424 423
f 425 423 424
f 425 423 424
f 424 426 425
f 424 426 425
f 427 425 426
f 427 425 426
f 426 428 427
f 426 428 427
f 427 428 429
f 427 428 429
f 429 430 427
f 429 430 427
f 431 427 430
f 431 427 430
f 430 429 432
f 430 429 432
f 432 433 430
f 432 433 430
f 431 430 433
f 431 430 433
f 433 432 434
f 433 432 434
f 434 435 433
f 434 435 433
f 431 433 435
f 431 433 435
f 435 434 436
f 435 434 436
f 436 437 435
f 436 437 435
f 431 435 437
f 431 435 437
f 437 436 438
f 437 436 438
f 438 439 437
f 438 439 437
f 431 437 439
f 431 437 439
f 439 438 440
f 439 438 440
f 440 441 439
f 440 441 439
f 431 439 441
f 431 439 441
f 441 440 442
f 441 440 442
f 442 431 441
f 442 431 441
f 443 431 442
f 443 431 442
f 442 444 443
f 442 444 443
f 445 443 444
f 445 443 444
f 444 446 445
f 444 446 445
f 447 445 446
f 447 445 446
f 446 448 447
f 446 448 447
f 447 448 449
f 447 448 449
f 449 450 447
f 449 450 447
f 451 447 450
f 451 447 450
f 450 449 452
f 450 449 452
f 452 453 450
f 452 453 450
f 451 450 453
f 451 450 453
f 453 452 454
f 453 452 454
f 454 455 453
f 454 455 453
f 451 453 455
f 451 453 455
f 455 454 456
f 455 454 456
f 456 457 455
f 456 457 455
f 451 455 457
f 451 455 457
f 457 456 458
f 457 456 458
f 458 459 457
f 458 459 457
f 451 457 459
f 451 457 459
f 459 458 460
f 459 458 460
f 460 461 459
f 460 461 459
f 451 459 461
f 451 459 461
f 461 460 462
f 461 460 462
f 462 451 461
f 462 451 461
f 463 451 462
f 463 451 462
f 462 464 463
f 462 464 463
f 465 463 464
f 465 463 464
f 464 466 465
f 464 466 465
f 467 465 466
f 467 465 466
f 466 468 467
f 466 468 467
f 467 468 469
f 467 468 469
f 469 470 467
f 469 470 467
f 470 469 471
f 470 469 471
f 470 471 472
f 470 471 472
f 472 473 470
f 472 473 470
f 413 470 473
f 413 470 473
f 473 472 474
f 473 472 474
f 474 475 473
f 474 475 473
f 413 473 475
f 413 473 475
f 475 474 476
f 475 474 476
f 475 476 477
f 475 476 477
f 477 413 475
f 477 413 475
f 413 477 408
f 413 477 408
f 478 479 480
f 478 479 480
f 479 478 481
f 479 478 481
f 480 482 478
f 480 482 478
f 481 483 479
f 481 483 479
f 482 480 484
f 482 480 484
f 483 481 485
f 483 481 485
f 484 486 482
f 484 486 482
f 485 487 483
f 485 487 483
f 486 484 488
f 486 484 488
f 487 485 489
f 487 485 489
f 488 490 486
f 488 490 486
f 489 491 487
f 489 491 487
f 490 488 492
f 490 488 492
f 491 489 493
f 491 489 493
f 492 494 490
f 492 494 490
f 493 495 491
f 493 495 491
f 494 492 496
f 494 492 496
f 495 493 497
f 495 493 497
f 496 498 494
f 496 498 494
f 497 499 495
f 497 499 495
f 498 496 500
f 498 496 500
f 499 497 501
f 499 497 501
f 500 502 498
f 500 502 498
f 501 503 499
f 501 503 499
f 502 500 504
f 502 500 504
f 503 501 505
f 503 501 505
f 504 506 502
f 504 506 502
f 505 507 503
f 505 507 503
f 506 504 508
f 506 504 508
f 507 505 509
f 507 505 509
f 508 510 506
f 508 510 506
f 509 511 507
f 509 511 507
f 510 508 512
f 510 508 512
f 511 509 513
f 511 509 513
f 512 514 510
f 512 514 510
f 513 515 511
f 513 515 511
f 514 512 336
f 514 512 336
f 515 513 339
f 515 513 339
f 336 335 514
f 336 335 514
f 339 338 515
f 339 338 515
f 516 517 518
f 516 517 518
f 519 516 518
f 519 516 518
f 520 519 518
f 520 519 518
f 521 520 518
f 521 520 518
f 522 521 518
f 522 521 518
f 523 522 518
f 523 522 518
f 524 523 518
f 524 523 518
f 525 524 518
f 525 524 518
f 525 518 526
f 525 518 526
f 525 526 527
f 525 526 527
f 528 529 530
f 528 529 530
f 528 530 531
f 528 530 531
f 528 531 532
f 528 531 532
f 528 532 533
f 528 532 533
f 528 533 534
f 528 533 534
f 528 534 535
f 528 534 535
f 528 535 536
f 528 535 536
f 528 536 537
f 528 536 537
f 538 528 537
f 538 528 537
f 538 537 539
f 538 537 539
f 540 541 542
f 540 541 542
f 542 543 540
f 542 543 540
f 541 540 544
f 541 540 544
f 544 545 541
f 544 545 541
f 545 544 546
f 545 544 546
f 546 547 545
f 546 547 545
f 548 549 550
f 548 549 550
f 550 551 548
f 550 551 548
f 549 548 552
f 549 548 552
f 552 553 549
f 552 553 549
f 553 552 554
f 553 552 554
f 554 555 553
f 554 555 553
f 556 557 558
f 556 557 558
f 558 559 556
f 558 559 556
f 557 556 560
f 557 556 560
f 560 561 557
f 560 561 557
f 561 560 562
f 561 560 562
f 562 563 561
f 562 563 561
f 564 565 566
f 564 565 566
f 567 568 569
f 567 568 569
