v -0.153147921 0.0228526555 0.0495740175
v -0.153147921 0.0228454433 0.0528110266
v -0.153179631 0.0272510014 0.0528208017
v -0.15317969 0.0272582136 0.0495837927
v -0.148704991 0.0272826515 0.0521762967
v -0.14870505 0.0272870027 0.0502282977
v -0.148674056 0.0229904018 0.050218761
v -0.148674056 0.0229861103 0.05216676
v -0.144428179 0.0229154788 0.0495740175
v -0.144428119 0.0229083262 0.0528110266
v -0.144459829 0.0273138247 0.0528208017
v -0.144459888 0.0273210369 0.0495837927
v -0.14026998 0.0273434483 0.0521762967
v -0.14026998 0.0273477994 0.0502282977
v -0.140239045 0.0230511986 0.050218761
v -0.140238985 0.023046907 0.05216676
v -0.135998651 0.0229762755 0.0495740175
v -0.135998592 0.0229690634 0.0528110266
v -0.136030361 0.0273746215 0.0528208017
v -0.136030421 0.0273818336 0.0495837927
v -0.131571576 0.0274061523 0.0521762967
v -0.131571576 0.0274105035 0.0502282977
v -0.131540641 0.0231139027 0.050218761
v -0.131540582 0.0231096111 0.05216676
v -0.15317969 0.0272582136 0.0495837927
v -0.153179631 0.0272510014 0.0528208017
v -0.152965769 0.0273807608 0.0526062846
v -0.152965769 0.0273870192 0.0497989058
v -0.148491129 0.0274134837 0.0523914099
v -0.148491129 0.0274187885 0.050013721
v -0.14870505 0.0272870027 0.0502282977
v -0.148704991 0.0272826515 0.0521762967
v -0.144459888 0.0273210369 0.0495837927
v -0.144459829 0.0273138247 0.0528208017
v -0.144245967 0.0274436437 0.0526062846
v -0.144245967 0.0274498425 0.0497989058
v -0.140056059 0.0274742804 0.0523914099
v -0.140056118 0.0274795853 0.050013721
v -0.14026998 0.0273477994 0.0502282977
v -0.14026998 0.0273434483 0.0521762967
v 0.171615824 -0.173870385 0.058888495
v 0.170710459 -0.173865497 0.0537542105
v 0.170969799 -0.173399627 0.0540602803
v 0.171755001 -0.173403919 0.0585130453
v -0.136030421 0.0273818336 0.0495837927
v -0.136030361 0.0273746215 0.0528208017
v -0.13581644 0.0275043808 0.0526062846
v -0.1358165 0.0275106393 0.0497989058
v -0.131357655 0.0275369845 0.0523914099
v -0.131357715 0.0275422893 0.050013721
v -0.131571576 0.0274105035 0.0502282977
v -0.131571576 0.0274061523 0.0521762967
v 0.170960382 -0.163756847 0.0544224381
v 0.17162542 -0.163760483 0.0581937432
v 0.171362832 -0.164226294 0.0578882694
v 0.170817986 -0.164223373 0.0547984838
v 0.172657058 -0.158038795 0.0611357093
v 0.171234861 -0.158031106 0.0530706644
v 0.171642259 -0.157299399 0.0535514355
v 0.172875687 -0.157306075 0.0605459809
v 0.171634063 -0.14306581 0.0541183352
v 0.172678694 -0.143071473 0.0600423813
v 0.17226623 -0.143803239 0.0595625043
v 0.171410367 -0.143798649 0.0547089577
v 0.171348736 -0.136815548 0.0589709282
v 0.170443371 -0.136810601 0.0538365841
v 0.170702741 -0.13634479 0.0541426539
v 0.171487913 -0.136349022 0.0585954785
v 0.170693055 -0.126667738 0.054504931
v 0.171358094 -0.126671314 0.0582762361
v 0.171095505 -0.127137184 0.0579707623
v 0.170550659 -0.127134264 0.0548809767
v 0.171131328 -0.106652677 0.0590379834
v 0.170225963 -0.106647789 0.0539036393
v 0.170485333 -0.106181979 0.0542097092
v 0.171270505 -0.106186211 0.0586625338
v 0.164628133 -0.173923492 0.0601206422
v 0.163722739 -0.173918605 0.0549863577
v 0.170710459 -0.173865497 0.0537542105
v 0.171615824 -0.173870385 0.058888495
v 0.170475915 -0.0965391994 0.0545719266
v 0.171140924 -0.0965427756 0.0583432317
v 0.170878366 -0.0970086455 0.0580376983
v 0.17033349 -0.0970056653 0.0549479127
v 0.170995757 -0.0878404379 0.0590797663
v 0.170090362 -0.0878355503 0.0539454818
v 0.170349732 -0.08736974 0.0542515516
v 0.171134934 -0.0873739719 0.0587043762
v 0.170817986 -0.164223373 0.0547984838
v 0.171362832 -0.164226294 0.0578882694
v 0.164547995 -0.16427809 0.0590898991
v 0.164003149 -0.164275169 0.0560001135
v 0.170344517 -0.0783085227 0.0546124578
v 0.171009526 -0.078312099 0.0583837628
v 0.170746967 -0.0787779689 0.0580782294
v 0.170202091 -0.0787750483 0.0549884439
v 0.170864269 -0.0695978403 0.059120357
v 0.169958875 -0.0695929527 0.0539860725
v 0.170218244 -0.0691271424 0.0542921424
v 0.171003446 -0.0691313744 0.0587449074
v 0.171642259 -0.157299399 0.0535514355
v 0.171534404 -0.142335474 0.0535846949
v 0.171634063 -0.14306581 0.0541183352
v 0.172678694 -0.143071473 0.0600423813
v 0.171731398 -0.156570077 0.0540882945
v 0.172767833 -0.14234215 0.0605792403
v 0.172776029 -0.156575739 0.0600123405
v 0.172875687 -0.157306075 0.0605459809
v 0.170485333 -0.106181979 0.0542097092
v 0.170412466 -0.0960742235 0.0542321801
v 0.170475915 -0.0965391994 0.0545719266
v 0.171140924 -0.0965427756 0.0583432317
v 0.170542046 -0.105717659 0.0545514822
v 0.171197668 -0.0960784554 0.0586850047
v 0.171207085 -0.105721295 0.0583227873
v 0.171270505 -0.106186211 0.0586625338
v 0.170349732 -0.08736974 0.0542515516
v 0.170281067 -0.0778436065 0.0542727113
v 0.170344517 -0.0783085227 0.0546124578
v 0.171009526 -0.078312099 0.0583837628
v 0.170406476 -0.0869054198 0.0545933247
v 0.171066269 -0.0778478384 0.0587255359
v 0.171071485 -0.0869090557 0.0583646297
v 0.171134934 -0.0873739719 0.0587043762
v 0.170218244 -0.0691271424 0.0542921424
v 0.170145139 -0.0589851178 0.0543146729
v 0.170208588 -0.0594500937 0.0546544194
v 0.170873597 -0.0594536699 0.0584256649
v 0.170274988 -0.0686628222 0.0546339154
v 0.170930341 -0.0589893498 0.0587674975
v 0.170939997 -0.0686663985 0.0584052205
v 0.171003446 -0.0691313744 0.0587449074
v 0.170969799 -0.173399627 0.0540602803
v 0.170896962 -0.163291931 0.0540827513
v 0.170960382 -0.163756847 0.0544224381
v 0.17162542 -0.163760483 0.0581937432
v 0.171026543 -0.172935367 0.0544020534
v 0.171682164 -0.163296163 0.0585355163
v 0.171691552 -0.172938943 0.0581732988
v 0.171755001 -0.173403919 0.0585130453
v 0.170702741 -0.13634479 0.0541426539
v 0.170629635 -0.126202822 0.0541652441
v 0.170693055 -0.126667738 0.054504931
v 0.171358094 -0.126671314 0.0582762361
v 0.170759454 -0.13588053 0.054484427
v 0.171414837 -0.126207054 0.0586180091
v 0.171424493 -0.135884106 0.0582557321
v 0.171487913 -0.136349022 0.0585954785
v 0.161680594 -0.158122241 0.0630711913
v 0.160258427 -0.158114552 0.0550061464
v 0.171234861 -0.158031106 0.0530706644
v 0.172657058 -0.158038795 0.0611357093
v 0.170208588 -0.0594500937 0.0546544194
v 0.170873597 -0.0594536699 0.0584256649
v 0.170611039 -0.0599195398 0.0581201911
v 0.170066193 -0.0599165596 0.0550304055
v 0.172538683 -0.141615272 0.0611722469
v 0.172657058 -0.158038795 0.0611357093
v 0.172875687 -0.157306075 0.0605459809
v 0.172767833 -0.14234215 0.0605792403
v 0.171051785 -0.0956157446 0.0590624809
v 0.171131328 -0.106652677 0.0590379834
v 0.171270505 -0.106186211 0.0586625338
v 0.171197668 -0.0960784554 0.0586850047
v 0.170920387 -0.0773850679 0.0591030717
v 0.170995757 -0.0878404379 0.0590797663
v 0.171134934 -0.0873739719 0.0587043762
v 0.171066269 -0.0778478384 0.0587255359
v 0.170784459 -0.0585266389 0.0591449738
v 0.170864269 -0.0695978403 0.059120357
v 0.171003446 -0.0691313744 0.0587449074
v 0.170930341 -0.0589893498 0.0587674975
v 0.171536282 -0.162833393 0.0589130521
v 0.171615824 -0.173870385 0.058888495
v 0.171755001 -0.173403919 0.0585130453
v 0.171682164 -0.163296163 0.0585355163
v 0.171268955 -0.125744283 0.0589955449
v 0.171348736 -0.136815548 0.0589709282
v 0.171487913 -0.136349022 0.0585954785
v 0.171414837 -0.126207054 0.0586180091
v 0.171731398 -0.156570077 0.0540882945
v 0.171634063 -0.14306581 0.0541183352
v 0.171410367 -0.143798649 0.0547089577
v 0.171497181 -0.155843198 0.0546821952
v 0.170542046 -0.105717659 0.0545514822
v 0.170475915 -0.0965391994 0.0545719266
v 0.17033349 -0.0970056653 0.0549479127
v 0.170392975 -0.105254948 0.0549295545
v 0.170406476 -0.0869054198 0.0545933247
v 0.170344517 -0.0783085227 0.0546124578
v 0.170202091 -0.0787750483 0.0549884439
v 0.170257375 -0.086442709 0.0549713969
v 0.170274988 -0.0686628222 0.0546339154
v 0.170208588 -0.0594500937 0.0546544194
v 0.170066193 -0.0599165596 0.0550304055
v 0.170125887 -0.0682001114 0.0550119877
v 0.171026543 -0.172935367 0.0544020534
v 0.170960382 -0.163756847 0.0544224381
v 0.170817986 -0.164223373 0.0547984838
v 0.170877442 -0.172472656 0.0547801256
v 0.170759454 -0.13588053 0.054484427
v 0.170693055 -0.126667738 0.054504931
v 0.170550659 -0.127134264 0.0548809767
v 0.170610383 -0.135417819 0.0548624992
v 0.171410367 -0.143798649 0.0547089577
v 0.17226623 -0.143803239 0.0595625043
v 0.161561325 -0.143884599 0.0614500642
v 0.160705462 -0.14387995 0.0565965772
v 0.169879094 -0.0585217513 0.0540106893
v 0.170784459 -0.0585266389 0.0591449738
v 0.170930341 -0.0589893498 0.0587674975
v 0.170145139 -0.0589851178 0.0543146729
v 0.171234861 -0.158031106 0.0530706644
v 0.171116486 -0.141607583 0.0531071424
v 0.171534404 -0.142335474 0.0535846949
v 0.171642259 -0.157299399 0.0535514355
v 0.170225963 -0.106647789 0.0539036393
v 0.170146421 -0.095610857 0.0539281964
v 0.170412466 -0.0960742235 0.0542321801
v 0.170485333 -0.106181979 0.0542097092
v 0.170090362 -0.0878355503 0.0539454818
v 0.170015022 -0.0773801804 0.0539687276
v 0.170281067 -0.0778436065 0.0542727113
v 0.170349732 -0.08736974 0.0542515516
v 0.169958875 -0.0695929527 0.0539860725
v 0.169879094 -0.0585217513 0.0540106893
v 0.170145139 -0.0589851178 0.0543146729
v 0.170218244 -0.0691271424 0.0542921424
v 0.170710459 -0.173865497 0.0537542105
v 0.170630887 -0.162828505 0.0537787676
v 0.170896962 -0.163291931 0.0540827513
v 0.170969799 -0.173399627 0.0540602803
v 0.170443371 -0.136810601 0.0538365841
v 0.17036356 -0.125739396 0.0538612008
v 0.170629635 -0.126202822 0.0541652441
v 0.170702741 -0.13634479 0.0541426539
v 0.170939997 -0.0686663985 0.0584052205
v 0.170274988 -0.0686628222 0.0546339154
v 0.170125887 -0.0682001114 0.0550119877
v 0.170670733 -0.068203032 0.0581017733
v 0.164361045 -0.136868656 0.0602030754
v 0.16345568 -0.136863708 0.0550687313
v 0.170443371 -0.136810601 0.0538365841
v 0.171348736 -0.136815548 0.0589709282
v 0.171140924 -0.0965427756 0.0583432317
v 0.171207085 -0.105721295 0.0583227873
v 0.170937821 -0.105257928 0.05801934
v 0.170878366 -0.0970086455 0.0580376983
v 0.171009526 -0.078312099 0.0583837628
v 0.171071485 -0.0869090557 0.0583646297
v 0.170802221 -0.0864456892 0.0580611825
v 0.170746967 -0.0787779689 0.0580782294
v 0.170873597 -0.0594536699 0.0584256649
v 0.170939997 -0.0686663985 0.0584052205
v 0.170670733 -0.068203032 0.0581017733
v 0.170611039 -0.0599195398 0.0581201911
v 0.17162542 -0.163760483 0.0581937432
v 0.171691552 -0.172938943 0.0581732988
v 0.171422288 -0.172475576 0.0578699112
v 0.171362832 -0.164226294 0.0578882694
v 0.171358094 -0.126671314 0.0582762361
v 0.171424493 -0.135884106 0.0582557321
v 0.171155229 -0.13542074 0.0579522848
v 0.171095505 -0.127137184 0.0579707623
v 0.172678694 -0.143071473 0.0600423813
v 0.172776029 -0.156575739 0.0600123405
v 0.172353044 -0.155847847 0.0595356822
v 0.17226623 -0.143803239 0.0595625043
v 0.170015022 -0.0773801804 0.0539687276
v 0.170920387 -0.0773850679 0.0591030717
v 0.171066269 -0.0778478384 0.0587255359
v 0.170281067 -0.0778436065 0.0542727113
v 0.171071485 -0.0869090557 0.0583646297
v 0.170406476 -0.0869054198 0.0545933247
v 0.170257375 -0.086442709 0.0549713969
v 0.170802221 -0.0864456892 0.0580611825
v 0.170146421 -0.095610857 0.0539281964
v 0.171051785 -0.0956157446 0.0590624809
v 0.171197668 -0.0960784554 0.0586850047
v 0.170412466 -0.0960742235 0.0542321801
v 0.170550659 -0.127134264 0.0548809767
v 0.171095505 -0.127137184 0.0579707623
v 0.164280698 -0.127188981 0.0591723919
v 0.163735822 -0.12718606 0.0560826063
v 0.171207085 -0.105721295 0.0583227873
v 0.170542046 -0.105717659 0.0545514822
v 0.170392975 -0.105254948 0.0549295545
v 0.170937821 -0.105257928 0.05801934
v 0.17036356 -0.125739396 0.0538612008
v 0.171268955 -0.125744283 0.0589955449
v 0.171414837 -0.126207054 0.0586180091
v 0.170629635 -0.126202822 0.0541652441
v -0.131142899 0.0275443159 0.0497989058
v -0.1358165 0.0275106393 0.0497989058
v -0.135601684 0.0275117122 0.050013721
v -0.135601625 0.0275064074 0.0523914099
v -0.131357715 0.0275422893 0.050013721
v -0.13581644 0.0275043808 0.0526062846
v -0.131357655 0.0275369845 0.0523914099
v -0.13114284 0.0275380574 0.0526062846
v -0.139841303 0.0274816118 0.0497989058
v -0.144245967 0.0274498425 0.0497989058
v -0.144031152 0.0274509154 0.050013721
v -0.144031152 0.0274456702 0.0523914099
v -0.140056118 0.0274795853 0.050013721
v -0.144245967 0.0274436437 0.0526062846
v -0.140056059 0.0274742804 0.0523914099
v -0.139841244 0.0274753533 0.0526062846
v -0.148276314 0.0274208151 0.0497989058
v -0.152965769 0.0273870192 0.0497989058
v -0.152750954 0.0273880921 0.050013721
v -0.152750894 0.0273827873 0.0523914099
v -0.148491129 0.0274187885 0.050013721
v -0.152965769 0.0273807608 0.0526062846
v -0.148491129 0.0274134837 0.0523914099
v -0.148276255 0.0274145566 0.0526062846
v -0.130927131 0.0274186097 0.0495837927
v -0.136030421 0.0273818336 0.0495837927
v -0.1358165 0.0275106393 0.0497989058
v -0.131142899 0.0275443159 0.0497989058
v -0.139625534 0.0273559056 0.0495837927
v -0.144459888 0.0273210369 0.0495837927
v -0.144245967 0.0274498425 0.0497989058
v -0.139841303 0.0274816118 0.0497989058
v -0.148060605 0.0272951089 0.0495837927
v -0.15317969 0.0272582136 0.0495837927
v -0.152965769 0.0273870192 0.0497989058
v -0.148276314 0.0274208151 0.0497989058
v -0.135601625 0.0275064074 0.0523914099
v -0.131357655 0.0275369845 0.0523914099
v -0.131571576 0.0274061523 0.0521762967
v -0.135385856 0.0273786746 0.0521762967
v -0.144031152 0.0274456702 0.0523914099
v -0.140056059 0.0274742804 0.0523914099
v -0.14026998 0.0273434483 0.0521762967
v -0.143815383 0.0273178779 0.0521762967
v -0.152750894 0.0273827873 0.0523914099
v -0.148491129 0.0274134837 0.0523914099
v -0.148704991 0.0272826515 0.0521762967
v -0.152535185 0.0272550546 0.0521762967
v 0.171424493 -0.135884106 0.0582557321
v 0.170759454 -0.13588053 0.054484427
v 0.170610383 -0.135417819 0.0548624992
v 0.171155229 -0.13542074 0.0579522848
v 0.171116486 -0.141607583 0.0531071424
v 0.172538683 -0.141615272 0.0611722469
v 0.172767833 -0.14234215 0.0605792403
v 0.171534404 -0.142335474 0.0535846949
v 0.164143637 -0.106705785 0.0602701306
v 0.163238272 -0.106700897 0.0551357865
v 0.170225963 -0.106647789 0.0539036393
v 0.171131328 -0.106652677 0.0590379834
v 0.172776029 -0.156575739 0.0600123405
v 0.171731398 -0.156570077 0.0540882945
v 0.171497181 -0.155843198 0.0546821952
v 0.172353044 -0.155847847 0.0595356822
v 0.170630887 -0.162828505 0.0537787676
v 0.171536282 -0.162833393 0.0589130521
v 0.171682164 -0.163296163 0.0585355163
v 0.170896962 -0.163291931 0.0540827513
v 0.17033349 -0.0970056653 0.0549479127
v 0.170878366 -0.0970086455 0.0580376983
v 0.164063528 -0.0970603824 0.0592393875
v 0.163518682 -0.0970574617 0.0561496019
v -0.136030361 0.0273746215 0.0528208017
v -0.130927071 0.0274113975 0.0528208017
v -0.13114284 0.0275380574 0.0526062846
v -0.13581644 0.0275043808 0.0526062846
v -0.144459829 0.0273138247 0.0528208017
v -0.139625475 0.0273486935 0.0528208017
v -0.139841244 0.0274753533 0.0526062846
v -0.144245967 0.0274436437 0.0526062846
v -0.153179631 0.0272510014 0.0528208017
v -0.148060545 0.0272878967 0.0528208017
v -0.148276255 0.0274145566 0.0526062846
v -0.152965769 0.0273807608 0.0526062846
v -0.131357715 0.0275422893 0.050013721
v -0.135601684 0.0275117122 0.050013721
v -0.135385916 0.0273829661 0.0502282977
v -0.131571576 0.0274105035 0.0502282977
v -0.140056118 0.0274795853 0.050013721
v -0.144031152 0.0274509154 0.050013721
v -0.143815383 0.027322229 0.0502282977
v -0.14026998 0.0273477994 0.0502282977
v -0.148491129 0.0274187885 0.050013721
v -0.152750954 0.0273880921 0.050013721
v -0.152535185 0.0272594057 0.0502282977
v -0.14870505 0.0272870027 0.0502282977
v 0.171691552 -0.172938943 0.0581732988
v 0.171026543 -0.172935367 0.0544020534
v 0.170877442 -0.172472656 0.0547801256
v 0.171422288 -0.172475576 0.0578699112
v 0.164008036 -0.0878935456 0.0603119135
v 0.163102672 -0.087888658 0.055177629
v 0.170090362 -0.0878355503 0.0539454818
v 0.170995757 -0.0878404379 0.0590797663
v 0.170202091 -0.0787750483 0.0549884439
v 0.170746967 -0.0787779689 0.0580782294
v 0.16393213 -0.0788297653 0.0592799187
v 0.163387284 -0.0788268447 0.0561901331
v 0.163876548 -0.069650948 0.0603525043
v 0.162971184 -0.0696460605 0.0552182198
v 0.169958875 -0.0695929527 0.0539860725
v 0.170864269 -0.0695978403 0.059120357
v -0.130895361 0.0230130516 0.0495740175
v -0.135998651 0.0229762755 0.0495740175
v -0.136030421 0.0273818336 0.0495837927
v -0.130927131 0.0274186097 0.0495837927
v -0.139593765 0.0229503475 0.0495740175
v -0.144428179 0.0229154788 0.0495740175
v -0.144459888 0.0273210369 0.0495837927
v -0.139625534 0.0273559056 0.0495837927
v -0.148028836 0.0228895508 0.0495740175
v -0.153147921 0.0228526555 0.0495740175
v -0.15317969 0.0272582136 0.0495837927
v -0.148060605 0.0272951089 0.0495837927
v 0.170066193 -0.0599165596 0.0550304055
v 0.170611039 -0.0599195398 0.0581201911
v 0.163796201 -0.0599712767 0.0593218803
v 0.163251355 -0.059968356 0.0562320948
v -0.135385856 0.0273786746 0.0521762967
v -0.131571576 0.0274061523 0.0521762967
v -0.131540582 0.0231096111 0.05216676
v -0.135354921 0.0230820738 0.05216676
v -0.143815383 0.0273178779 0.0521762967
v -0.14026998 0.0273434483 0.0521762967
v -0.140238985 0.023046907 0.05216676
v -0.143784389 0.0230213366 0.05216676
v -0.152535185 0.0272550546 0.0521762967
v -0.148704991 0.0272826515 0.0521762967
v -0.148674056 0.0229861103 0.05216676
v -0.152504191 0.0229585133 0.05216676
v 0.161562219 -0.141698658 0.063107729
v 0.161680594 -0.158122241 0.0630711913
v 0.172657058 -0.158038795 0.0611357093
v 0.172538683 -0.141615272 0.0611722469
v 0.164064094 -0.0956688523 0.0602946281
v 0.164143637 -0.106705785 0.0602701306
v 0.171131328 -0.106652677 0.0590379834
v 0.171051785 -0.0956157446 0.0590624809
v 0.163932696 -0.0774381757 0.0603352189
v 0.164008036 -0.0878935456 0.0603119135
v 0.170995757 -0.0878404379 0.0590797663
v 0.170920387 -0.0773850679 0.0591030717
v 0.163796768 -0.0585797466 0.060377121
v 0.163876548 -0.069650948 0.0603525043
v 0.170864269 -0.0695978403 0.059120357
v 0.170784459 -0.0585266389 0.0591449738
v 0.164548561 -0.1628865 0.0601451993
v 0.164628133 -0.173923492 0.0601206422
v 0.171615824 -0.173870385 0.058888495
v 0.171536282 -0.162833393 0.0589130521
v 0.164281234 -0.125797391 0.0602276921
v 0.164361045 -0.136868656 0.0602030754
v 0.171348736 -0.136815548 0.0589709282
v 0.171268955 -0.125744283 0.0589955449
v 0.170392975 -0.105254948 0.0549295545
v 0.17033349 -0.0970056653 0.0549479127
v 0.163518682 -0.0970574617 0.0561496019
v 0.163578138 -0.105306745 0.0561312437
v 0.170257375 -0.086442709 0.0549713969
v 0.170202091 -0.0787750483 0.0549884439
v 0.163387284 -0.0788268447 0.0561901331
v 0.163442537 -0.0864945054 0.0561730862
v 0.170125887 -0.0682001114 0.0550119877
v 0.170066193 -0.0599165596 0.0550304055
v 0.163251355 -0.059968356 0.0562320948
v 0.163311049 -0.0682519078 0.0562136769
v 0.170877442 -0.172472656 0.0547801256
v 0.170817986 -0.164223373 0.0547984838
v 0.164003149 -0.164275169 0.0560001135
v 0.164062604 -0.172524452 0.0559817553
v 0.171497181 -0.155843198 0.0546821952
v 0.171410367 -0.143798649 0.0547089577
v 0.160705462 -0.14387995 0.0565965772
v 0.160792276 -0.155924559 0.0565698147
v 0.170610383 -0.135417819 0.0548624992
v 0.170550659 -0.127134264 0.0548809767
v 0.163735822 -0.12718606 0.0560826063
v 0.163795546 -0.135469556 0.0560641885
v 0.0373602696 -0.0386899747 0.076802671
v 0.0341550298 -0.0387130417 0.076802671
v 0.034595985 -0.0403125919 0.0767990947
v 0.0343610831 -0.0404502787 0.076725781
v 0.035777647 -0.0414773263 0.0767964721
v 0.035643179 -0.0417140163 0.0767229795
v 0.0373853035 -0.0421673693 0.0767219663
v 0.0373833366 -0.0418951549 0.0767955184
v 0.037386734 -0.0423663296 0.0765221119
v 0.0355447121 -0.0418869294 0.0765231848
v 0.0338826366 -0.0387148894 0.0767296553
v 0.034572918 -0.0371073522 0.0768062472
v 0.0341891237 -0.0405507721 0.0765262246
v 0.0373872705 -0.0424386896 0.0762495995
v 0.0355086513 -0.0419498123 0.0762506723
v 0.0373872705 -0.0424359478 0.0750160217
v 0.0392586179 -0.04192001 0.0750171542
v 0.0392586179 -0.0419227518 0.0762506723
v 0.039221663 -0.041860465 0.0765231848
v 0.0391207524 -0.0416889228 0.0767229795
v 0.0389828868 -0.0414541997 0.0767964721
v 0.04038449 -0.0404068865 0.076725781
v 0.0401476212 -0.0402725376 0.0767990947
v 0.0405578203 -0.0405048765 0.0765262246
v 0.0406212993 -0.0405403413 0.0762537718
v 0.0556011982 -0.0327375568 0.0768156052
v 0.050696034 -0.0327729024 0.0768156052
v 0.0513708778 -0.035220746 0.0768101215
v 0.0511359759 -0.0353584923 0.0767368674
v 0.0531792231 -0.0370032229 0.076806128
v 0.053044755 -0.0372399129 0.0767326355
v 0.0556385107 -0.0379149355 0.0767310858
v 0.0556366034 -0.0376427211 0.0768046975
v 0.0556399412 -0.0381138362 0.076531291
v 0.0529462881 -0.0374128856 0.0765329003
v 0.0504237004 -0.0327746905 0.0767425895
v 0.0513355322 -0.0303155817 0.0768210292
v 0.0509640165 -0.0354589857 0.0765372515
v 0.0556404777 -0.0381862558 0.076258719
v 0.0529102869 -0.0374757089 0.0762603879
v 0.0556404777 -0.038183514 0.0750252008
v 0.058360178 -0.0374336876 0.0750268102
v 0.058360178 -0.0374364294 0.0762603879
v 0.0583232231 -0.037374083 0.0765329003
v 0.0582223125 -0.0372026004 0.0767326355
v 0.0580844469 -0.0369678773 0.076806128
v 0.0601037927 -0.0352938212 0.0767368674
v 0.0598669238 -0.035159532 0.0768101215
v 0.060277123 -0.0353918113 0.0765372515
v 0.060340602 -0.035427276 0.0762647986
v 0.0484659262 -0.0114524998 0.0768630505
v 0.043560762 -0.0114878453 0.0768630505
v 0.0442356057 -0.0139356889 0.0768575668
v 0.0440007038 -0.0140734352 0.0767843127
v 0.0460439511 -0.0157181658 0.0768535733
v 0.045909483 -0.0159548558 0.0767800808
v 0.0485032387 -0.0166298784 0.0767785311
v 0.0485012718 -0.016357664 0.0768521428
v 0.0485046692 -0.0168287791 0.0765787363
v 0.0458110161 -0.0161278285 0.0765803456
v 0.0432883687 -0.0114896335 0.0767900348
v 0.0442002006 -0.00903052464 0.0768684745
v 0.0438287444 -0.0141739286 0.0765846968
v 0.0485052057 -0.0169011392 0.0763061643
v 0.0457749553 -0.0161906518 0.0763078332
v 0.0485051461 -0.0168983974 0.0750726461
v 0.0512248464 -0.0161486305 0.0750742555
v 0.051224906 -0.0161513723 0.0763078332
v 0.0511879511 -0.0160890259 0.0765803456
v 0.0510869808 -0.0159175433 0.0767800808
v 0.0509491153 -0.0156828202 0.0768535733
v 0.0529684611 -0.0140087642 0.0767843127
v 0.0527315922 -0.0138744749 0.0768575668
v 0.053141851 -0.0141067542 0.0765846968
v 0.0532053299 -0.014142219 0.0763122439
v 0.0532052703 -0.0141394772 0.0750786662
v 0.0539158173 -0.0114092268 0.0750847459
v 0.0539158173 -0.0114119686 0.0763183236
v 0.0538428612 -0.0114131011 0.0765906572
v 0.0536434837 -0.0114150085 0.0767900348
v 0.0533710904 -0.0114171542 0.0768630505
v 0.0529311486 -0.00883126631 0.0767958164
v 0.0526962467 -0.00896931067 0.0768684745
v 0.053103108 -0.00872987881 0.0765966773
v 0.0531660505 -0.00869232789 0.0763243437
v 0.0531659909 -0.00868958607 0.0750908256
v 0.0511568375 -0.00670916215 0.0750952363
v 0.0511568375 -0.00671190396 0.076328814
v 0.0511208363 -0.00677597895 0.0766010284
v 0.0510223694 -0.0069497861 0.0768000484
v 0.0508879013 -0.00718683377 0.076872468
v 0.0484286137 -0.00627476349 0.0768015981
v 0.0484305806 -0.00654733554 0.0768739581
v 0.0459827371 -0.00722217932 0.076872468
v 0.0458448119 -0.0069870986 0.0768000484
v 0.0439633913 -0.00889587775 0.0767958164
v 0.0484271832 -0.00607496873 0.0766026378
v 0.0457439013 -0.00681472197 0.0766010284
v 0.0437900014 -0.00879699364 0.0765966773
v 0.0430889912 -0.0114906467 0.0765906572
v 0.0437658019 -0.0142102279 0.0763122439
v 0.0430159755 -0.0114905275 0.0763183236
v 0.0437265225 -0.00876033679 0.0763243437
v 0.0457069464 -0.00675118342 0.076328814
v 0.0457749553 -0.01618791 0.0750742555
v 0.0437657423 -0.0142074861 0.0750786662
v 0.0430159755 -0.0114877857 0.0750847459
v 0.0437264629 -0.00875759497 0.0750908256
v 0.0484266467 -0.00600135699 0.0763304234
v 0.0484265871 -0.00599861518 0.0750968456
v 0.0457069464 -0.00674844161 0.0750952363
v 0.0484271236 -0.00607103482 0.0748243332
v 0.0457438417 -0.00681072846 0.0748227239
v 0.0511207767 -0.00677198544 0.0748227239
v 0.0437899418 -0.00879300013 0.0748183727
v 0.0430889316 -0.0114866532 0.0748123527
v 0.0531030484 -0.0087258853 0.0748183727
v 0.0438286848 -0.0141699351 0.0748063922
v 0.0458109565 -0.016123835 0.0748020411
v 0.0538428016 -0.0114091672 0.0748123527
v 0.0485046692 -0.0168248452 0.0748004317
v 0.0511878915 -0.016085092 0.0748020411
v 0.053141851 -0.0141028203 0.0748063922
v 0.0529684015 -0.0140039362 0.0746072531
v 0.0510869808 -0.0159127153 0.0746030211
v 0.0485031791 -0.0166249909 0.0746014714
v 0.0536434241 -0.0114101805 0.0746129751
v 0.052931089 -0.00882637873 0.0746187568
v 0.0459094234 -0.0159500279 0.0746030211
v 0.0510223098 -0.00694495812 0.0746229887
v 0.0484285541 -0.00626993552 0.0746244788
v 0.0440006442 -0.0140685476 0.0746072531
v 0.0458448119 -0.00698227063 0.0746229887
v 0.0439633317 -0.00889104977 0.0746187568
v 0.0432883091 -0.0114848055 0.0746129751
v 0.0435607024 -0.0114826597 0.074540019
v 0.0442002006 -0.00902533904 0.0745454431
v 0.0459826775 -0.00721699372 0.0745494366
v 0.0484658666 -0.0114473142 0.074540019
v 0.048430521 -0.00654214993 0.0745509267
v 0.0442355461 -0.0139305033 0.0745345354
v 0.0460438915 -0.0157129802 0.0745305419
v 0.0508878417 -0.00718164816 0.0745494366
v 0.0526962467 -0.00896412507 0.0745454431
v 0.0485012121 -0.0163524784 0.0745291114
v 0.0509491153 -0.0156776346 0.0745305419
v 0.0533710904 -0.0114119686 0.074540019
v 0.0527315922 -0.0138692893 0.0745345354
v 0.060340602 -0.0354245342 0.0750312209
v 0.0610510893 -0.0326942839 0.0750373006
v 0.0610511489 -0.0326970257 0.0762708783
v 0.0609781332 -0.0326981582 0.0765432119
v 0.0607787557 -0.0327000655 0.0767425895
v 0.0605064221 -0.0327022113 0.0768156052
v 0.0600664206 -0.0301163234 0.0767483711
v 0.0598315783 -0.0302543677 0.0768210292
v 0.06023838 -0.0300149359 0.076549232
v 0.0603013225 -0.029977385 0.0762768984
v 0.0603013225 -0.0299746431 0.0750433803
v 0.0582921095 -0.0279942192 0.075047791
v 0.0582921691 -0.027996961 0.0762813687
v 0.0582561083 -0.028061036 0.0765535831
v 0.058157701 -0.0282348432 0.0767526031
v 0.0580231734 -0.0284718908 0.0768250227
v 0.0555638857 -0.0275598802 0.0767541528
v 0.0555658527 -0.0278323926 0.0768265128
v 0.0531180091 -0.0285072364 0.0768250227
v 0.0529801436 -0.0282721557 0.0767526031
v 0.0510986634 -0.0301809348 0.0767483711
v 0.0555624552 -0.0273600258 0.0765551925
v 0.0528791733 -0.028099779 0.0765535831
v 0.0509252734 -0.0300820507 0.076549232
v 0.0502242632 -0.0327757038 0.0765432119
v 0.050901074 -0.0354952849 0.0762647986
v 0.0501513071 -0.0327756442 0.0762708783
v 0.0508617945 -0.0300453939 0.0762768984
v 0.0528422184 -0.0280362405 0.0762813687
v 0.0529102273 -0.0374729671 0.0750268102
v 0.050901074 -0.0354925431 0.0750312209
v 0.0501513071 -0.0327729024 0.0750373006
v 0.0508617945 -0.030042652 0.0750433803
v 0.0555619188 -0.0272864141 0.0762829781
v 0.0555619188 -0.0272836722 0.0750494003
v 0.0528422184 -0.0280334987 0.075047791
v 0.0555624552 -0.0273560919 0.0747768879
v 0.0528791733 -0.0280958451 0.0747752786
v 0.0582561083 -0.0280570425 0.0747752786
v 0.0509252734 -0.0300781168 0.0747709274
v 0.0502242632 -0.0327717699 0.074764967
v 0.06023838 -0.0300109424 0.0747709274
v 0.0509640165 -0.0354549922 0.0747589469
v 0.0529462881 -0.0374088921 0.0747545958
v 0.0609781332 -0.0326942243 0.074764967
v 0.0556399412 -0.0381099023 0.0747529864
v 0.0583232231 -0.037370149 0.0747545958
v 0.060277123 -0.0353878774 0.0747589469
v 0.0601037331 -0.0352889933 0.0745598078
v 0.0582222529 -0.0371977724 0.0745555758
v 0.0556385107 -0.0379100479 0.0745540261
v 0.0607787557 -0.0326952375 0.0745655298
v 0.0600664206 -0.0301114358 0.0745713115
v 0.053044755 -0.0372350849 0.0745555758
v 0.0581576414 -0.0282300152 0.0745755434
v 0.0555638857 -0.0275549926 0.0745770335
v 0.0511359759 -0.0353536047 0.0745598078
v 0.052980084 -0.0282673277 0.0745755434
v 0.0510986634 -0.0301761068 0.0745713115
v 0.0504236408 -0.0327698626 0.0745655298
v 0.0506959744 -0.0327677168 0.0744925737
v 0.0513354726 -0.0303103961 0.0744979978
v 0.0531179495 -0.0285020508 0.0745019913
v 0.0556011982 -0.0327323712 0.0744925737
v 0.0555658527 -0.027827207 0.0745034814
v 0.0513708182 -0.0352155603 0.0744870901
v 0.0531792231 -0.0369980372 0.0744830966
v 0.0580231734 -0.0284667052 0.0745019913
v 0.0598315187 -0.0302491821 0.0744979978
v 0.0556365438 -0.0376375355 0.0744816661
v 0.0580843873 -0.0369626917 0.0744830966
v 0.0605063625 -0.0326970257 0.0744925737
v 0.0598668642 -0.0351543464 0.0744870901
v 0.0406212993 -0.0405375399 0.0750201941
v 0.0411101766 -0.0386589803 0.0750243664
v 0.0411101766 -0.0386617221 0.0762579441
v 0.0410372205 -0.0386628546 0.0765302777
v 0.040837843 -0.0386647023 0.0767296553
v 0.0405654497 -0.0386668481 0.076802671
v 0.0403593965 -0.0369293131 0.0767335296
v 0.0401244946 -0.0370673575 0.0768062472
v 0.0405313559 -0.0368279256 0.0765343904
v 0.0405942984 -0.0367903747 0.0762621164
v 0.0405942388 -0.0367876329 0.0750285387
v 0.0392117687 -0.0354249515 0.0750315785
v 0.0392118283 -0.0354276933 0.0762651563
v 0.0391757675 -0.0354917683 0.0765373707
v 0.0390773602 -0.0356655754 0.0767363906
v 0.0389428325 -0.0359026231 0.0768088102
v 0.037335176 -0.0352122225 0.0767374039
v 0.037337143 -0.0354847349 0.0768097639
v 0.0357376523 -0.0359256901 0.0768088102
v 0.0355997272 -0.035690669 0.0767363906
v 0.0343360491 -0.0369727053 0.0767335296
v 0.0373337455 -0.0350123681 0.0765384436
v 0.0354988165 -0.0355182327 0.0765373707
v 0.0341626592 -0.0368738212 0.0765343904
v 0.033683259 -0.0387158431 0.0765302777
v 0.0341261812 -0.0405871309 0.0762537718
v 0.033610303 -0.0387157835 0.0762579441
v 0.0340991803 -0.0368371643 0.0762621164
v 0.0354618616 -0.0354546942 0.0762651563
v 0.0355086513 -0.0419470705 0.0750171542
v 0.0341261812 -0.0405843891 0.0750201941
v 0.0336102434 -0.0387130417 0.0750243664
v 0.0340991206 -0.0368344225 0.0750285387
v 0.0373332091 -0.034938816 0.0762662292
v 0.0373332091 -0.0349360742 0.075032711
v 0.0354618616 -0.0354519524 0.0750315785
v 0.0373336859 -0.0350084342 0.0747601986
v 0.0354987569 -0.0355142988 0.0747590661
v 0.0391757675 -0.0354877748 0.0747590661
v 0.0341625996 -0.0368698873 0.0747560859
v 0.033683259 -0.0387119092 0.0747519732
v 0.0405312963 -0.0368239917 0.0747560859
v 0.0341891237 -0.0405468382 0.07474792
v 0.0355446525 -0.0418829955 0.0747449398
v 0.0410371609 -0.0386589207 0.0747519732
v 0.037386734 -0.0423623361 0.0747438073
v 0.039221663 -0.0418564714 0.0747449398
v 0.0405578203 -0.0405009426 0.07474792
v 0.0403844304 -0.0404020585 0.0745487213
v 0.0391206928 -0.0416840948 0.0745459199
v 0.0373853035 -0.0421625413 0.074544847
v 0.0408377834 -0.0386598743 0.0745525956
v 0.0403593369 -0.0369244851 0.0745564699
v 0.0356431194 -0.0417091884 0.0745459199
v 0.0390773006 -0.0356607474 0.0745593309
v 0.037335176 -0.0352073945 0.0745603442
v 0.0343610831 -0.0404454507 0.0745487213
v 0.0355997272 -0.035685841 0.0745593309
v 0.0343359895 -0.0369678773 0.0745564699
v 0.0338826366 -0.0387100019 0.0745525956
v 0.0341549702 -0.0387079157 0.0744796395
v 0.0345728584 -0.0371021666 0.0744832158
v 0.0357375927 -0.0359205641 0.0744857788
v 0.03736021 -0.0386847891 0.0744796395
v 0.0373370834 -0.0354795493 0.0744867325
v 0.0345959254 -0.0403074063 0.0744760633
v 0.0357775874 -0.0414721407 0.0744734406
v 0.0389428325 -0.0358974375 0.0744857788
v 0.0401244946 -0.0370621718 0.0744832158
v 0.0373833366 -0.0418900289 0.074472487
v 0.0389828272 -0.0414490141 0.0744734406
v 0.0405654497 -0.0386616625 0.0744796395
v 0.0401475616 -0.0402674116 0.0744760633
v 0.160258427 -0.158114552 0.0550061464
v 0.160140052 -0.141690969 0.0550426841
v 0.171116486 -0.141607583 0.0531071424
v 0.171234861 -0.158031106 0.0530706644
v 0.163238272 -0.106700897 0.0551357865
v 0.1631587 -0.0956639647 0.0551603436
v 0.170146421 -0.095610857 0.0539281964
v 0.170225963 -0.106647789 0.0539036393
v 0.163102672 -0.087888658 0.055177629
v 0.163027301 -0.0774332881 0.0552008748
v 0.170015022 -0.0773801804 0.0539687276
v 0.170090362 -0.0878355503 0.0539454818
v 0.162971184 -0.0696460605 0.0552182198
v 0.162891403 -0.0585747994 0.0552428365
v 0.169879094 -0.0585217513 0.0540106893
v 0.169958875 -0.0695929527 0.0539860725
v 0.163722739 -0.173918605 0.0549863577
v 0.163643196 -0.162881613 0.0550109148
v 0.170630887 -0.162828505 0.0537787676
v 0.170710459 -0.173865497 0.0537542105
v 0.16345568 -0.136863708 0.0550687313
v 0.163375869 -0.125792503 0.055093348
v 0.17036356 -0.125739396 0.0538612008
v 0.170443371 -0.136810601 0.0538365841
v 0.170878366 -0.0970086455 0.0580376983
v 0.170937821 -0.105257928 0.05801934
v 0.164122984 -0.105309665 0.0592210293
v 0.164063528 -0.0970603824 0.0592393875
v 0.170746967 -0.0787779689 0.0580782294
v 0.170802221 -0.0864456892 0.0580611825
v 0.163987383 -0.086497426 0.0592628717
v 0.16393213 -0.0788297653 0.0592799187
v 0.170611039 -0.0599195398 0.0581201911
v 0.170670733 -0.068203032 0.0581017733
v 0.163855895 -0.0682548285 0.0593034625
v 0.163796201 -0.0599712767 0.0593218803
v 0.171362832 -0.164226294 0.0578882694
v 0.171422288 -0.172475576 0.0578699112
v 0.16460745 -0.172527373 0.0590715408
v 0.164547995 -0.16427809 0.0590898991
v 0.171095505 -0.127137184 0.0579707623
v 0.171155229 -0.13542074 0.0579522848
v 0.164340392 -0.135472536 0.0591539741
v 0.164280698 -0.127188981 0.0591723919
v 0.17226623 -0.143803239 0.0595625043
v 0.172353044 -0.155847847 0.0595356822
v 0.161648139 -0.155929208 0.0614233017
v 0.161561325 -0.143884599 0.0614500642
v -0.135998592 0.0229690634 0.0528110266
v -0.130895302 0.0230058394 0.0528110266
v -0.130927071 0.0274113975 0.0528208017
v -0.136030361 0.0273746215 0.0528208017
v -0.144428119 0.0229083262 0.0528110266
v -0.139593765 0.0229431354 0.0528110266
v -0.139625475 0.0273486935 0.0528208017
v -0.144459829 0.0273138247 0.0528208017
v -0.153147921 0.0228454433 0.0528110266
v -0.148028776 0.0228823386 0.0528110266
v -0.148060545 0.0272878967 0.0528208017
v -0.153179631 0.0272510014 0.0528208017
v 0.162891403 -0.0585747994 0.0552428365
v 0.163796768 -0.0585797466 0.060377121
v 0.170784459 -0.0585266389 0.0591449738
v 0.169879094 -0.0585217513 0.0540106893
v -0.131571576 0.0274105035 0.0502282977
v -0.135385916 0.0273829661 0.0502282977
v -0.135354921 0.0230864249 0.050218761
v -0.131540641 0.0231139027 0.050218761
v -0.14026998 0.0273477994 0.0502282977
v -0.143815383 0.027322229 0.0502282977
v -0.143784449 0.0230256878 0.050218761
v -0.140239045 0.0230511986 0.050218761
v -0.14870505 0.0272870027 0.0502282977
v -0.152535185 0.0272594057 0.0502282977
v -0.15250425 0.0229628049 0.050218761
v -0.148674056 0.0229904018 0.050218761
v 0.170670733 -0.068203032 0.0581017733
v 0.170125887 -0.0682001114 0.0550119877
v 0.163311049 -0.0682519078 0.0562136769
v 0.163855895 -0.0682548285 0.0593034625
v -0.130927071 0.0274113975 0.0528208017
v -0.130927131 0.0274186097 0.0495837927
v -0.131142899 0.0275443159 0.0497989058
v -0.13114284 0.0275380574 0.0526062846
v 0.163027301 -0.0774332881 0.0552008748
v 0.163932696 -0.0774381757 0.0603352189
v 0.170920387 -0.0773850679 0.0591030717
v 0.170015022 -0.0773801804 0.0539687276
v -0.135601684 0.0275117122 0.050013721
v -0.135601625 0.0275064074 0.0523914099
v -0.135385856 0.0273786746 0.0521762967
v -0.135385916 0.0273829661 0.0502282977
v -0.139625475 0.0273486935 0.0528208017
v -0.139625534 0.0273559056 0.0495837927
v -0.139841303 0.0274816118 0.0497989058
v -0.139841244 0.0274753533 0.0526062846
v -0.144031152 0.0274509154 0.050013721
v -0.144031152 0.0274456702 0.0523914099
v -0.143815383 0.0273178779 0.0521762967
v -0.143815383 0.027322229 0.0502282977
v -0.148060545 0.0272878967 0.0528208017
v -0.148060605 0.0272951089 0.0495837927
v -0.148276314 0.0274208151 0.0497989058
v -0.148276255 0.0274145566 0.0526062846
v 0.170802221 -0.0864456892 0.0580611825
v 0.170257375 -0.086442709 0.0549713969
v 0.163442537 -0.0864945054 0.0561730862
v 0.163987383 -0.086497426 0.0592628717
v -0.152750954 0.0273880921 0.050013721
v -0.152750894 0.0273827873 0.0523914099
v -0.152535185 0.0272550546 0.0521762967
v -0.152535185 0.0272594057 0.0502282977
v 0.1631587 -0.0956639647 0.0551603436
v 0.164064094 -0.0956688523 0.0602946281
v 0.171051785 -0.0956157446 0.0590624809
v 0.170146421 -0.095610857 0.0539281964
v 0.170937821 -0.105257928 0.05801934
v 0.170392975 -0.105254948 0.0549295545
v 0.163578138 -0.105306745 0.0561312437
v 0.164122984 -0.105309665 0.0592210293
v 0.163375869 -0.125792503 0.055093348
v 0.164281234 -0.125797391 0.0602276921
v 0.171268955 -0.125744283 0.0589955449
v 0.17036356 -0.125739396 0.0538612008
v 0.171155229 -0.13542074 0.0579522848
v 0.170610383 -0.135417819 0.0548624992
v 0.163795546 -0.135469556 0.0560641885
v 0.164340392 -0.135472536 0.0591539741
v 0.160140052 -0.141690969 0.0550426841
v 0.161562219 -0.141698658 0.063107729
v 0.172538683 -0.141615272 0.0611722469
v 0.171116486 -0.141607583 0.0531071424
v 0.172353044 -0.155847847 0.0595356822
v 0.171497181 -0.155843198 0.0546821952
v 0.160792276 -0.155924559 0.0565698147
v 0.161648139 -0.155929208 0.0614233017
v 0.163643196 -0.162881613 0.0550109148
v 0.164548561 -0.1628865 0.0601451993
v 0.171536282 -0.162833393 0.0589130521
v 0.170630887 -0.162828505 0.0537787676
v 0.171422288 -0.172475576 0.0578699112
v 0.170877442 -0.172472656 0.0547801256
v 0.164062604 -0.172524452 0.0559817553
v 0.16460745 -0.172527373 0.0590715408
v -0.130895302 0.0230058394 0.0528110266
v -0.130895361 0.0230130516 0.0495740175
v -0.130927131 0.0274186097 0.0495837927
v -0.130927071 0.0274113975 0.0528208017
v -0.135385916 0.0273829661 0.0502282977
v -0.135385856 0.0273786746 0.0521762967
v -0.135354921 0.0230820738 0.05216676
v -0.135354921 0.0230864249 0.050218761
v -0.139593765 0.0229431354 0.0528110266
v -0.139593765 0.0229503475 0.0495740175
v -0.139625534 0.0273559056 0.0495837927
v -0.139625475 0.0273486935 0.0528208017
v -0.143815383 0.027322229 0.0502282977
v -0.143815383 0.0273178779 0.0521762967
v -0.143784389 0.0230213366 0.05216676
v -0.143784449 0.0230256878 0.050218761
v -0.148028776 0.0228823386 0.0528110266
v -0.148028836 0.0228895508 0.0495740175
v -0.148060605 0.0272951089 0.0495837927
v -0.148060545 0.0272878967 0.0528208017
v -0.152535185 0.0272594057 0.0502282977
v -0.152535185 0.0272550546 0.0521762967
v -0.152504191 0.0229585133 0.05216676
v -0.15250425 0.0229628049 0.050218761
f 1 2 3
f 1 2 3
f 3 4 1
f 3 4 1
f 5 6 7
f 5 6 7
f 7 8 5
f 7 8 5
f 9 10 11
f 9 10 11
f 11 12 9
f 11 12 9
f 13 14 15
f 13 14 15
f 15 16 13
f 15 16 13
f 17 18 19
f 17 18 19
f 19 20 17
f 19 20 17
f 21 22 23
f 21 22 23
f 23 24 21
f 23 24 21
f 25 26 27
f 25 26 27
f 27 28 25
f 27 28 25
f 29 30 31
f 29 30 31
f 31 32 29
f 31 32 29
f 33 34 35
f 33 34 35
f 35 36 33
f 35 36 33
f 37 38 39
f 37 38 39
f 39 40 37
f 39 40 37
f 41 42 43
f 41 42 43
f 43 44 41
f 43 44 41
f 45 46 47
f 45 46 47
f 47 48 45
f 47 48 45
f 49 50 51
f 49 50 51
f 51 52 49
f 51 52 49
f 53 54 55
f 53 54 55
f 55 56 53
f 55 56 53
f 57 58 59
f 57 58 59
f 59 60 57
f 59 60 57
f 61 62 63
f 61 62 63
f 63 64 61
f 63 64 61
f 65 66 67
f 65 66 67
f 67 68 65
f 67 68 65
f 69 70 71
f 69 70 71
f 71 72 69
f 71 72 69
f 73 74 75
f 73 74 75
f 75 76 73
f 75 76 73
f 77 78 79
f 77 78 79
f 79 80 77
f 79 80 77
f 81 82 83
f 81 82 83
f 83 84 81
f 83 84 81
f 85 86 87
f 85 86 87
f 87 88 85
f 87 88 85
f 89 90 91
f 89 90 91
f 91 92 89
f 91 92 89
f 93 94 95
f 93 94 95
f 95 96 93
f 95 96 93
f 97 98 99
f 97 98 99
f 99 100 97
f 99 100 97
f 101 102 103
f 101 102 103
f 104 103 102
f 104 103 102
f 103 105 101
f 103 105 101
f 102 106 104
f 102 106 104
f 107 104 106
f 107 104 106
f 108 101 105
f 108 101 105
f 105 107 108
f 105 107 108
f 106 108 107
f 106 108 107
f 109 110 111
f 109 110 111
f 112 111 110
f 112 111 110
f 111 113 109
f 111 113 109
f 110 114 112
f 110 114 112
f 115 112 114
f 115 112 114
f 116 109 113
f 116 109 113
f 113 115 116
f 113 115 116
f 114 116 115
f 114 116 115
f 117 118 119
f 117 118 119
f 120 119 118
f 120 119 118
f 119 121 117
f 119 121 117
f 118 122 120
f 118 122 120
f 123 120 122
f 123 120 122
f 124 117 121
f 124 117 121
f 121 123 124
f 121 123 124
f 122 124 123
f 122 124 123
f 125 126 127
f 125 126 127
f 128 127 126
f 128 127 126
f 127 129 125
f 127 129 125
f 126 130 128
f 126 130 128
f 131 128 130
f 131 128 130
f 132 125 129
f 132 125 129
f 129 131 132
f 129 131 132
f 130 132 131
f 130 132 131
f 133 134 135
f 133 134 135
f 136 135 134
f 136 135 134
f 135 137 133
f 135 137 133
f 134 138 136
f 134 138 136
f 139 136 138
f 139 136 138
f 140 133 137
f 140 133 137
f 137 139 140
f 137 139 140
f 138 140 139
f 138 140 139
f 141 142 143
f 141 142 143
f 144 143 142
f 144 143 142
f 143 145 141
f 143 145 141
f 142 146 144
f 142 146 144
f 147 144 146
f 147 144 146
f 148 141 145
f 148 141 145
f 145 147 148
f 145 147 148
f 146 148 147
f 146 148 147
f 149 150 151
f 149 150 151
f 151 152 149
f 151 152 149
f 153 154 155
f 153 154 155
f 155 156 153
f 155 156 153
f 157 158 159
f 157 158 159
f 159 160 157
f 159 160 157
f 161 162 163
f 161 162 163
f 163 164 161
f 163 164 161
f 165 166 167
f 165 166 167
f 167 168 165
f 167 168 165
f 169 170 171
f 169 170 171
f 171 172 169
f 171 172 169
f 173 174 175
f 173 174 175
f 175 176 173
f 175 176 173
f 177 178 179
f 177 178 179
f 179 180 177
f 179 180 177
f 181 182 183
f 181 182 183
f 183 184 181
f 183 184 181
f 185 186 187
f 185 186 187
f 187 188 185
f 187 188 185
f 189 190 191
f 189 190 191
f 191 192 189
f 191 192 189
f 193 194 195
f 193 194 195
f 195 196 193
f 195 196 193
f 197 198 199
f 197 198 199
f 199 200 197
f 199 200 197
f 201 202 203
f 201 202 203
f 203 204 201
f 203 204 201
f 205 206 207
f 205 206 207
f 207 208 205
f 207 208 205
f 209 210 211
f 209 210 211
f 211 212 209
f 211 212 209
f 213 214 215
f 213 214 215
f 215 216 213
f 215 216 213
f 217 218 219
f 217 218 219
f 219 220 217
f 219 220 217
f 221 222 223
f 221 222 223
f 223 224 221
f 223 224 221
f 225 226 227
f 225 226 227
f 227 228 225
f 227 228 225
f 229 230 231
f 229 230 231
f 231 232 229
f 231 232 229
f 233 234 235
f 233 234 235
f 235 236 233
f 235 236 233
f 237 238 239
f 237 238 239
f 239 240 237
f 239 240 237
f 241 242 243
f 241 242 243
f 243 244 241
f 243 244 241
f 245 246 247
f 245 246 247
f 247 248 245
f 247 248 245
f 249 250 251
f 249 250 251
f 251 252 249
f 251 252 249
f 253 254 255
f 253 254 255
f 255 256 253
f 255 256 253
f 257 258 259
f 257 258 259
f 259 260 257
f 259 260 257
f 261 262 263
f 261 262 263
f 263 264 261
f 263 264 261
f 265 266 267
f 265 266 267
f 267 268 265
f 267 268 265
f 269 270 271
f 269 270 271
f 271 272 269
f 271 272 269
f 273 274 275
f 273 274 275
f 275 276 273
f 275 276 273
f 277 278 279
f 277 278 279
f 279 280 277
f 279 280 277
f 281 282 283
f 281 282 283
f 283 284 281
f 283 284 281
f 285 286 287
f 285 286 287
f 287 288 285
f 287 288 285
f 289 290 291
f 289 290 291
f 291 292 289
f 291 292 289
f 293 294 295
f 293 294 295
f 296 295 294
f 296 295 294
f 295 297 293
f 295 297 293
f 294 298 296
f 294 298 296
f 299 296 298
f 299 296 298
f 300 293 297
f 300 293 297
f 297 299 300
f 297 299 300
f 298 300 299
f 298 300 299
f 301 302 303
f 301 302 303
f 304 303 302
f 304 303 302
f 303 305 301
f 303 305 301
f 302 306 304
f 302 306 304
f 307 304 306
f 307 304 306
f 308 301 305
f 308 301 305
f 305 307 308
f 305 307 308
f 306 308 307
f 306 308 307
f 309 310 311
f 309 310 311
f 312 311 310
f 312 311 310
f 311 313 309
f 311 313 309
f 310 314 312
f 310 314 312
f 315 312 314
f 315 312 314
f 316 309 313
f 316 309 313
f 313 315 316
f 313 315 316
f 314 316 315
f 314 316 315
f 317 318 319
f 317 318 319
f 319 320 317
f 319 320 317
f 321 322 323
f 321 322 323
f 323 324 321
f 323 324 321
f 325 326 327
f 325 326 327
f 327 328 325
f 327 328 325
f 329 330 331
f 329 330 331
f 331 332 329
f 331 332 329
f 333 334 335
f 333 334 335
f 335 336 333
f 335 336 333
f 337 338 339
f 337 338 339
f 339 340 337
f 339 340 337
f 341 342 343
f 341 342 343
f 343 344 341
f 343 344 341
f 345 346 347
f 345 346 347
f 347 348 345
f 347 348 345
f 349 350 351
f 349 350 351
f 351 352 349
f 351 352 349
f 353 354 355
f 353 354 355
f 355 356 353
f 355 356 353
f 357 358 359
f 357 358 359
f 359 360 357
f 359 360 357
f 361 362 363
f 361 362 363
f 363 364 361
f 363 364 361
f 365 366 367
f 365 366 367
f 367 368 365
f 367 368 365
f 369 370 371
f 369 370 371
f 371 372 369
f 371 372 369
f 373 374 375
f 373 374 375
f 375 376 373
f 375 376 373
f 377 378 379
f 377 378 379
f 379 380 377
f 379 380 377
f 381 382 383
f 381 382 383
f 383 384 381
f 383 384 381
f 385 386 387
f 385 386 387
f 387 388 385
f 387 388 385
f 389 390 391
f 389 390 391
f 391 392 389
f 391 392 389
f 393 394 395
f 393 394 395
f 395 396 393
f 395 396 393
f 397 398 399
f 397 398 399
f 399 400 397
f 399 400 397
f 401 402 403
f 401 402 403
f 403 404 401
f 403 404 401
f 405 406 407
f 405 406 407
f 407 408 405
f 407 408 405
f 409 410 411
f 409 410 411
f 411 412 409
f 411 412 409
f 413 414 415
f 413 414 415
f 415 416 413
f 415 416 413
f 417 418 419
f 417 418 419
f 419 420 417
f 419 420 417
f 421 422 423
f 421 422 423
f 423 424 421
f 423 424 421
f 425 426 427
f 425 426 427
f 427 428 425
f 427 428 425
f 429 430 431
f 429 430 431
f 431 432 429
f 431 432 429
f 433 434 435
f 433 434 435
f 435 436 433
f 435 436 433
f 437 438 439
f 437 438 439
f 439 440 437
f 439 440 437
f 441 442 443
f 441 442 443
f 443 444 441
f 443 444 441
f 445 446 447
f 445 446 447
f 447 448 445
f 447 448 445
f 449 450 451
f 449 450 451
f 451 452 449
f 451 452 449
f 453 454 455
f 453 454 455
f 455 456 453
f 455 456 453
f 457 458 459
f 457 458 459
f 459 460 457
f 459 460 457
f 461 462 463
f 461 462 463
f 463 464 461
f 463 464 461
f 465 466 467
f 465 466 467
f 467 468 465
f 467 468 465
f 469 470 471
f 469 470 471
f 471 472 469
f 471 472 469
f 473 474 475
f 473 474 475
f 475 476 473
f 475 476 473
f 477 478 479
f 477 478 479
f 479 480 477
f 479 480 477
f 481 482 483
f 481 482 483
f 482 484 483
f 482 484 483
f 481 483 485
f 481 483 485
f 483 484 486
f 483 486 485
f 483 484 486
f 483 486 485
f 485 486 487
f 485 486 487
f 485 487 488
f 481 485 488
f 485 487 488
f 481 485 488
f 486 489 487
f 486 489 487
f 484 490 486
f 486 490 489
f 484 490 486
f 486 490 489
f 482 491 484
f 482 491 484
f 481 492 482
f 492 491 482
f 481 492 482
f 492 491 482
f 484 493 490
f 484 493 490
f 491 493 484
f 491 493 484
f 490 494 489
f 490 494 489
f 493 495 490
f 490 495 494
f 493 495 490
f 490 495 494
f 495 496 494
f 495 496 494
f 494 496 497
f 494 496 497
f 489 494 498
f 494 497 498
f 489 494 498
f 494 497 498
f 489 498 499
f 489 498 499
f 487 489 499
f 487 489 499
f 487 499 500
f 487 499 500
f 488 487 500
f 488 487 500
f 488 500 501
f 488 500 501
f 481 488 501
f 481 488 501
f 501 500 502
f 501 500 502
f 481 501 503
f 501 502 503
f 481 501 503
f 501 502 503
f 500 499 504
f 500 499 504
f 500 504 502
f 500 504 502
f 499 505 504
f 499 505 504
f 499 498 505
f 506 507 508
f 506 507 508
f 507 509 508
f 507 509 508
f 506 508 510
f 506 508 510
f 508 509 511
f 508 511 510
f 508 509 511
f 508 511 510
f 510 511 512
f 510 511 512
f 510 512 513
f 506 510 513
f 510 512 513
f 506 510 513
f 511 514 512
f 511 514 512
f 509 515 511
f 511 515 514
f 509 515 511
f 511 515 514
f 507 516 509
f 507 516 509
f 506 517 507
f 517 516 507
f 506 517 507
f 517 516 507
f 509 518 515
f 509 518 515
f 516 518 509
f 516 518 509
f 515 519 514
f 515 519 514
f 518 520 515
f 515 520 519
f 518 520 515
f 515 520 519
f 520 521 519
f 520 521 519
f 519 521 522
f 519 521 522
f 514 519 523
f 519 522 523
f 514 519 523
f 519 522 523
f 514 523 524
f 514 523 524
f 512 514 524
f 512 514 524
f 512 524 525
f 512 524 525
f 513 512 525
f 513 512 525
f 513 525 526
f 513 525 526
f 506 513 526
f 506 513 526
f 526 525 527
f 526 525 527
f 506 526 528
f 526 527 528
f 506 526 528
f 526 527 528
f 525 524 529
f 525 524 529
f 525 529 527
f 525 529 527
f 524 530 529
f 524 530 529
f 524 523 530
f 531 532 533
f 531 532 533
f 532 534 533
f 532 534 533
f 531 533 535
f 531 533 535
f 533 534 536
f 533 536 535
f 533 534 536
f 533 536 535
f 535 536 537
f 535 536 537
f 535 537 538
f 531 535 538
f 535 537 538
f 531 535 538
f 536 539 537
f 536 539 537
f 534 540 536
f 536 540 539
f 534 540 536
f 536 540 539
f 532 541 534
f 532 541 534
f 531 542 532
f 542 541 532
f 531 542 532
f 542 541 532
f 534 543 540
f 534 543 540
f 541 543 534
f 541 543 534
f 540 544 539
f 540 544 539
f 543 545 540
f 540 545 544
f 543 545 540
f 540 545 544
f 545 546 544
f 545 546 544
f 544 546 547
f 544 546 547
f 539 544 548
f 544 547 548
f 539 544 548
f 544 547 548
f 539 548 549
f 539 548 549
f 537 539 549
f 537 539 549
f 537 549 550
f 537 549 550
f 538 537 550
f 538 537 550
f 538 550 551
f 538 550 551
f 531 538 551
f 531 538 551
f 551 550 552
f 551 550 552
f 531 551 553
f 551 552 553
f 531 551 553
f 551 552 553
f 550 549 554
f 550 549 554
f 550 554 552
f 550 554 552
f 549 555 554
f 549 555 554
f 549 548 555
f 549 548 555
f 548 556 555
f 548 556 555
f 548 547 556
f 548 547 556
f 555 556 557
f 555 556 557
f 554 555 558
f 555 557 558
f 554 555 558
f 555 557 558
f 552 554 559
f 552 554 559
f 554 558 559
f 554 558 559
f 552 559 560
f 552 559 560
f 553 552 560
f 553 552 560
f 553 560 561
f 553 560 561
f 531 553 561
f 531 553 561
f 561 560 562
f 561 560 562
f 531 561 563
f 561 562 563
f 531 561 563
f 561 562 563
f 560 559 564
f 560 559 564
f 560 564 562
f 560 564 562
f 559 565 564
f 559 565 564
f 559 558 565
f 559 558 565
f 558 566 565
f 558 566 565
f 558 557 566
f 558 557 566
f 565 566 567
f 565 566 567
f 564 565 568
f 565 567 568
f 564 565 568
f 565 567 568
f 562 564 569
f 562 564 569
f 564 568 569
f 564 568 569
f 562 569 570
f 562 569 570
f 563 562 570
f 563 562 570
f 563 570 571
f 563 570 571
f 531 563 571
f 531 563 571
f 571 570 572
f 571 570 572
f 531 571 573
f 571 572 573
f 531 571 573
f 571 572 573
f 531 573 574
f 531 573 574
f 531 574 542
f 531 574 542
f 573 575 574
f 573 572 575
f 573 575 574
f 573 572 575
f 574 576 542
f 574 576 542
f 574 575 576
f 574 575 576
f 542 576 541
f 542 576 541
f 570 577 572
f 570 577 572
f 570 569 577
f 570 569 577
f 572 578 575
f 572 578 575
f 572 577 578
f 572 577 578
f 575 579 576
f 575 579 576
f 575 578 579
f 575 578 579
f 576 580 541
f 576 580 541
f 576 579 580
f 576 579 580
f 541 580 543
f 541 580 543
f 580 581 543
f 580 581 543
f 543 581 545
f 543 581 545
f 579 582 580
f 579 582 580
f 580 582 581
f 580 582 581
f 578 583 579
f 578 583 579
f 579 583 582
f 579 583 582
f 578 584 583
f 578 584 583
f 577 584 578
f 577 584 578
f 581 585 545
f 581 585 545
f 545 585 546
f 545 585 546
f 582 586 581
f 582 586 581
f 581 586 585
f 581 586 585
f 583 587 582
f 583 587 582
f 582 587 586
f 582 587 586
f 584 588 583
f 584 588 583
f 583 588 587
f 583 588 587
f 577 589 584
f 577 589 584
f 569 589 577
f 569 589 577
f 569 568 589
f 569 568 589
f 568 590 589
f 568 590 589
f 589 591 584
f 589 591 584
f 584 591 588
f 584 591 588
f 589 590 591
f 589 590 591
f 568 567 590
f 568 567 590
f 567 592 590
f 567 592 590
f 590 592 593
f 590 593 591
f 590 592 593
f 590 593 591
f 567 594 592
f 567 594 592
f 566 594 567
f 566 594 567
f 591 593 595
f 591 593 595
f 591 595 588
f 591 595 588
f 588 595 596
f 588 595 596
f 588 596 587
f 588 596 587
f 566 597 594
f 566 597 594
f 557 597 566
f 557 597 566
f 587 596 598
f 587 596 598
f 587 598 586
f 587 598 586
f 586 598 599
f 586 598 599
f 586 599 585
f 586 599 585
f 557 600 597
f 557 600 597
f 556 600 557
f 556 600 557
f 585 599 601
f 585 599 601
f 585 601 546
f 585 601 546
f 546 601 602
f 546 601 602
f 546 602 547
f 546 602 547
f 547 603 556
f 547 603 556
f 556 603 600
f 556 603 600
f 547 602 603
f 547 602 603
f 602 604 603
f 602 604 603
f 601 605 602
f 602 605 604
f 601 605 602
f 602 605 604
f 601 606 605
f 601 606 605
f 599 606 601
f 599 606 601
f 603 607 600
f 603 604 607
f 603 607 600
f 603 604 607
f 600 607 608
f 600 607 608
f 600 608 597
f 600 608 597
f 599 609 606
f 599 609 606
f 598 609 599
f 598 609 599
f 597 608 610
f 597 608 610
f 597 610 594
f 597 610 594
f 594 610 611
f 594 610 611
f 594 611 592
f 594 611 592
f 598 612 609
f 598 612 609
f 596 612 598
f 596 612 598
f 592 611 613
f 592 611 613
f 592 613 593
f 592 613 593
f 593 613 614
f 593 613 614
f 593 614 595
f 593 614 595
f 595 615 596
f 595 615 596
f 596 615 612
f 596 615 612
f 595 614 615
f 595 614 615
f 614 616 615
f 614 616 615
f 613 617 614
f 614 617 616
f 613 617 614
f 614 617 616
f 613 618 617
f 613 618 617
f 611 618 613
f 611 618 613
f 618 619 617
f 618 619 617
f 617 619 616
f 617 619 616
f 611 620 618
f 611 620 618
f 620 619 618
f 620 619 618
f 610 620 611
f 610 620 611
f 615 616 621
f 615 616 621
f 616 619 621
f 616 619 621
f 615 621 612
f 615 621 612
f 612 621 622
f 612 621 622
f 621 619 622
f 621 619 622
f 610 623 620
f 610 623 620
f 623 619 620
f 623 619 620
f 608 623 610
f 608 623 610
f 612 622 609
f 612 622 609
f 608 624 623
f 608 624 623
f 624 619 623
f 624 619 623
f 607 624 608
f 607 624 608
f 609 622 625
f 609 622 625
f 622 619 625
f 622 619 625
f 609 625 606
f 609 625 606
f 606 625 626
f 606 625 626
f 625 619 626
f 625 619 626
f 607 627 624
f 607 627 624
f 627 619 624
f 627 619 624
f 604 627 607
f 604 627 607
f 628 619 627
f 604 628 627
f 628 619 627
f 604 628 627
f 626 619 628
f 626 619 628
f 605 628 604
f 605 628 604
f 606 626 605
f 606 626 605
f 605 626 628
f 605 626 628
f 524 523 530
f 523 629 530
f 523 629 530
f 523 522 629
f 523 522 629
f 530 629 630
f 530 629 630
f 529 530 631
f 530 630 631
f 529 530 631
f 530 630 631
f 527 529 632
f 527 529 632
f 529 631 632
f 529 631 632
f 527 632 633
f 527 632 633
f 528 527 633
f 528 527 633
f 528 633 634
f 528 633 634
f 506 528 634
f 506 528 634
f 634 633 635
f 634 633 635
f 506 634 636
f 634 635 636
f 506 634 636
f 634 635 636
f 633 632 637
f 633 632 637
f 633 637 635
f 633 637 635
f 632 638 637
f 632 638 637
f 632 631 638
f 632 631 638
f 631 639 638
f 631 639 638
f 631 630 639
f 631 630 639
f 638 639 640
f 638 639 640
f 637 638 641
f 638 640 641
f 637 638 641
f 638 640 641
f 635 637 642
f 635 637 642
f 637 641 642
f 637 641 642
f 635 642 643
f 635 642 643
f 636 635 643
f 636 635 643
f 636 643 644
f 636 643 644
f 506 636 644
f 506 636 644
f 644 643 645
f 644 643 645
f 506 644 646
f 644 645 646
f 506 644 646
f 644 645 646
f 506 646 647
f 506 646 647
f 506 647 517
f 506 647 517
f 646 648 647
f 646 645 648
f 646 648 647
f 646 645 648
f 647 649 517
f 647 649 517
f 647 648 649
f 647 648 649
f 517 649 516
f 517 649 516
f 643 650 645
f 643 650 645
f 643 642 650
f 643 642 650
f 645 651 648
f 645 651 648
f 645 650 651
f 645 650 651
f 648 652 649
f 648 652 649
f 648 651 652
f 648 651 652
f 649 653 516
f 649 653 516
f 649 652 653
f 649 652 653
f 516 653 518
f 516 653 518
f 653 654 518
f 653 654 518
f 518 654 520
f 518 654 520
f 652 655 653
f 652 655 653
f 653 655 654
f 653 655 654
f 651 656 652
f 651 656 652
f 652 656 655
f 652 656 655
f 651 657 656
f 651 657 656
f 650 657 651
f 650 657 651
f 654 658 520
f 654 658 520
f 520 658 521
f 520 658 521
f 655 659 654
f 655 659 654
f 654 659 658
f 654 659 658
f 656 660 655
f 656 660 655
f 655 660 659
f 655 660 659
f 657 661 656
f 657 661 656
f 656 661 660
f 656 661 660
f 650 662 657
f 650 662 657
f 642 662 650
f 642 662 650
f 642 641 662
f 642 641 662
f 641 663 662
f 641 663 662
f 662 664 657
f 662 664 657
f 657 664 661
f 657 664 661
f 662 663 664
f 662 663 664
f 641 640 663
f 641 640 663
f 640 665 663
f 640 665 663
f 663 665 666
f 663 666 664
f 663 665 666
f 663 666 664
f 640 667 665
f 640 667 665
f 639 667 640
f 639 667 640
f 664 666 668
f 664 666 668
f 664 668 661
f 664 668 661
f 661 668 669
f 661 668 669
f 661 669 660
f 661 669 660
f 639 670 667
f 639 670 667
f 630 670 639
f 630 670 639
f 660 669 671
f 660 669 671
f 660 671 659
f 660 671 659
f 659 671 672
f 659 671 672
f 659 672 658
f 659 672 658
f 630 673 670
f 630 673 670
f 629 673 630
f 629 673 630
f 658 672 674
f 658 672 674
f 658 674 521
f 658 674 521
f 521 674 675
f 521 674 675
f 521 675 522
f 521 675 522
f 522 676 629
f 522 676 629
f 629 676 673
f 629 676 673
f 522 675 676
f 522 675 676
f 675 677 676
f 675 677 676
f 674 678 675
f 675 678 677
f 674 678 675
f 675 678 677
f 674 679 678
f 674 679 678
f 672 679 674
f 672 679 674
f 676 680 673
f 676 677 680
f 676 680 673
f 676 677 680
f 673 680 681
f 673 680 681
f 673 681 670
f 673 681 670
f 672 682 679
f 672 682 679
f 671 682 672
f 671 682 672
f 670 681 683
f 670 681 683
f 670 683 667
f 670 683 667
f 667 683 684
f 667 683 684
f 667 684 665
f 667 684 665
f 671 685 682
f 671 685 682
f 669 685 671
f 669 685 671
f 665 684 686
f 665 684 686
f 665 686 666
f 665 686 666
f 666 686 687
f 666 686 687
f 666 687 668
f 666 687 668
f 668 688 669
f 668 688 669
f 669 688 685
f 669 688 685
f 668 687 688
f 668 687 688
f 687 689 688
f 687 689 688
f 686 690 687
f 687 690 689
f 686 690 687
f 687 690 689
f 686 691 690
f 686 691 690
f 684 691 686
f 684 691 686
f 691 692 690
f 691 692 690
f 690 692 689
f 690 692 689
f 684 693 691
f 684 693 691
f 693 692 691
f 693 692 691
f 683 693 684
f 683 693 684
f 688 689 694
f 688 689 694
f 689 692 694
f 689 692 694
f 688 694 685
f 688 694 685
f 685 694 695
f 685 694 695
f 694 692 695
f 694 692 695
f 683 696 693
f 683 696 693
f 696 692 693
f 696 692 693
f 681 696 683
f 681 696 683
f 685 695 682
f 685 695 682
f 681 697 696
f 681 697 696
f 697 692 696
f 697 692 696
f 680 697 681
f 680 697 681
f 682 695 698
f 682 695 698
f 695 692 698
f 695 692 698
f 682 698 679
f 682 698 679
f 679 698 699
f 679 698 699
f 698 692 699
f 698 692 699
f 680 700 697
f 680 700 697
f 700 692 697
f 700 692 697
f 677 700 680
f 677 700 680
f 701 692 700
f 677 701 700
f 701 692 700
f 677 701 700
f 699 692 701
f 699 692 701
f 678 701 677
f 678 701 677
f 679 699 678
f 679 699 678
f 678 699 701
f 678 699 701
f 499 498 505
f 498 702 505
f 498 702 505
f 498 497 702
f 498 497 702
f 505 702 703
f 505 702 703
f 504 505 704
f 505 703 704
f 504 505 704
f 505 703 704
f 502 504 705
f 502 504 705
f 504 704 705
f 504 704 705
f 502 705 706
f 502 705 706
f 503 502 706
f 503 502 706
f 503 706 707
f 503 706 707
f 481 503 707
f 481 503 707
f 707 706 708
f 707 706 708
f 481 707 709
f 707 708 709
f 481 707 709
f 707 708 709
f 706 705 710
f 706 705 710
f 706 710 708
f 706 710 708
f 705 711 710
f 705 711 710
f 705 704 711
f 705 704 711
f 704 712 711
f 704 712 711
f 704 703 712
f 704 703 712
f 711 712 713
f 711 712 713
f 710 711 714
f 711 713 714
f 710 711 714
f 711 713 714
f 708 710 715
f 708 710 715
f 710 714 715
f 710 714 715
f 708 715 716
f 708 715 716
f 709 708 716
f 709 708 716
f 709 716 717
f 709 716 717
f 481 709 717
f 481 709 717
f 717 716 718
f 717 716 718
f 481 717 719
f 717 718 719
f 481 717 719
f 717 718 719
f 481 719 720
f 481 719 720
f 481 720 492
f 481 720 492
f 719 721 720
f 719 718 721
f 719 721 720
f 719 718 721
f 720 722 492
f 720 722 492
f 720 721 722
f 720 721 722
f 492 722 491
f 492 722 491
f 716 723 718
f 716 723 718
f 716 715 723
f 716 715 723
f 718 724 721
f 718 724 721
f 718 723 724
f 718 723 724
f 721 725 722
f 721 725 722
f 721 724 725
f 721 724 725
f 722 726 491
f 722 726 491
f 722 725 726
f 722 725 726
f 491 726 493
f 491 726 493
f 726 727 493
f 726 727 493
f 493 727 495
f 493 727 495
f 725 728 726
f 725 728 726
f 726 728 727
f 726 728 727
f 724 729 725
f 724 729 725
f 725 729 728
f 725 729 728
f 724 730 729
f 724 730 729
f 723 730 724
f 723 730 724
f 727 731 495
f 727 731 495
f 495 731 496
f 495 731 496
f 728 732 727
f 728 732 727
f 727 732 731
f 727 732 731
f 729 733 728
f 729 733 728
f 728 733 732
f 728 733 732
f 730 734 729
f 730 734 729
f 729 734 733
f 729 734 733
f 723 735 730
f 723 735 730
f 715 735 723
f 715 735 723
f 715 714 735
f 715 714 735
f 714 736 735
f 714 736 735
f 735 737 730
f 735 737 730
f 730 737 734
f 730 737 734
f 735 736 737
f 735 736 737
f 714 713 736
f 714 713 736
f 713 738 736
f 713 738 736
f 736 738 739
f 736 739 737
f 736 738 739
f 736 739 737
f 713 740 738
f 713 740 738
f 712 740 713
f 712 740 713
f 737 739 741
f 737 739 741
f 737 741 734
f 737 741 734
f 734 741 742
f 734 741 742
f 734 742 733
f 734 742 733
f 712 743 740
f 712 743 740
f 703 743 712
f 703 743 712
f 733 742 744
f 733 742 744
f 733 744 732
f 733 744 732
f 732 744 745
f 732 744 745
f 732 745 731
f 732 745 731
f 703 746 743
f 703 746 743
f 702 746 703
f 702 746 703
f 731 745 747
f 731 745 747
f 731 747 496
f 731 747 496
f 496 747 748
f 496 747 748
f 496 748 497
f 496 748 497
f 497 749 702
f 497 749 702
f 702 749 746
f 702 749 746
f 497 748 749
f 497 748 749
f 748 750 749
f 748 750 749
f 747 751 748
f 748 751 750
f 747 751 748
f 748 751 750
f 747 752 751
f 747 752 751
f 745 752 747
f 745 752 747
f 749 753 746
f 749 750 753
f 749 753 746
f 749 750 753
f 746 753 754
f 746 753 754
f 746 754 743
f 746 754 743
f 745 755 752
f 745 755 752
f 744 755 745
f 744 755 745
f 743 754 756
f 743 754 756
f 743 756 740
f 743 756 740
f 740 756 757
f 740 756 757
f 740 757 738
f 740 757 738
f 744 758 755
f 744 758 755
f 742 758 744
f 742 758 744
f 738 757 759
f 738 757 759
f 738 759 739
f 738 759 739
f 739 759 760
f 739 759 760
f 739 760 741
f 739 760 741
f 741 761 742
f 741 761 742
f 742 761 758
f 742 761 758
f 741 760 761
f 741 760 761
f 760 762 761
f 760 762 761
f 759 763 760
f 760 763 762
f 759 763 760
f 760 763 762
f 759 764 763
f 759 764 763
f 757 764 759
f 757 764 759
f 764 765 763
f 764 765 763
f 763 765 762
f 763 765 762
f 757 766 764
f 757 766 764
f 766 765 764
f 766 765 764
f 756 766 757
f 756 766 757
f 761 762 767
f 761 762 767
f 762 765 767
f 762 765 767
f 761 767 758
f 761 767 758
f 758 767 768
f 758 767 768
f 767 765 768
f 767 765 768
f 756 769 766
f 756 769 766
f 769 765 766
f 769 765 766
f 754 769 756
f 754 769 756
f 758 768 755
f 758 768 755
f 754 770 769
f 754 770 769
f 770 765 769
f 770 765 769
f 753 770 754
f 753 770 754
f 755 768 771
f 755 768 771
f 768 765 771
f 768 765 771
f 755 771 752
f 755 771 752
f 752 771 772
f 752 771 772
f 771 765 772
f 771 765 772
f 753 773 770
f 753 773 770
f 773 765 770
f 773 765 770
f 750 773 753
f 750 773 753
f 774 765 773
f 750 774 773
f 774 765 773
f 750 774 773
f 772 765 774
f 772 765 774
f 751 774 750
f 751 774 750
f 752 772 751
f 752 772 751
f 751 772 774
f 751 772 774
f 775 776 777
f 775 776 777
f 777 778 775
f 777 778 775
f 779 780 781
f 779 780 781
f 781 782 779
f 781 782 779
f 783 784 785
f 783 784 785
f 785 786 783
f 785 786 783
f 787 788 789
f 787 788 789
f 789 790 787
f 789 790 787
f 791 792 793
f 791 792 793
f 793 794 791
f 793 794 791
f 795 796 797
f 795 796 797
f 797 798 795
f 797 798 795
f 799 800 801
f 799 800 801
f 801 802 799
f 801 802 799
f 803 804 805
f 803 804 805
f 805 806 803
f 805 806 803
f 807 808 809
f 807 808 809
f 809 810 807
f 809 810 807
f 811 812 813
f 811 812 813
f 813 814 811
f 813 814 811
f 815 816 817
f 815 816 817
f 817 818 815
f 817 818 815
f 819 820 821
f 819 820 821
f 821 822 819
f 821 822 819
f 823 824 825
f 823 824 825
f 825 826 823
f 825 826 823
f 827 828 829
f 827 828 829
f 829 830 827
f 829 830 827
f 831 832 833
f 831 832 833
f 833 834 831
f 833 834 831
f 835 836 837
f 835 836 837
f 837 838 835
f 837 838 835
f 839 840 841
f 839 840 841
f 841 842 839
f 841 842 839
f 843 844 845
f 843 844 845
f 845 846 843
f 845 846 843
f 847 848 849
f 847 848 849
f 849 850 847
f 849 850 847
f 851 852 853
f 851 852 853
f 853 854 851
f 853 854 851
f 855 856 857
f 855 856 857
f 857 858 855
f 857 858 855
f 859 860 861
f 859 860 861
f 861 862 859
f 861 862 859
f 863 864 865
f 863 864 865
f 865 866 863
f 865 866 863
f 867 868 869
f 867 868 869
f 869 870 867
f 869 870 867
f 871 872 873
f 871 872 873
f 873 874 871
f 873 874 871
f 875 876 877
f 875 876 877
f 877 878 875
f 877 878 875
f 879 880 881
f 879 880 881
f 881 882 879
f 881 882 879
f 883 884 885
f 883 884 885
f 885 886 883
f 885 886 883
f 887 888 889
f 887 888 889
f 889 890 887
f 889 890 887
f 891 892 893
f 891 892 893
f 893 894 891
f 893 894 891
f 895 896 897
f 895 896 897
f 897 898 895
f 897 898 895
f 899 900 901
f 899 900 901
f 901 902 899
f 901 902 899
f 903 904 905
f 903 904 905
f 905 906 903
f 905 906 903
f 907 908 909
f 907 908 909
f 909 910 907
f 909 910 907
f 911 912 913
f 911 912 913
f 913 914 911
f 913 914 911
f 915 916 917
f 915 916 917
f 917 918 915
f 917 918 915
f 919 920 921
f 919 920 921
f 921 922 919
f 921 922 919
f 923 924 925
f 923 924 925
f 925 926 923
f 925 926 923
f 927 928 929
f 927 928 929
f 929 930 927
f 929 930 927
f 931 932 933
f 931 932 933
f 933 934 931
f 933 934 931
f 935 936 937
f 935 936 937
f 937 938 935
f 937 938 935
f 939 940 941
f 939 940 941
f 941 942 939
f 941 942 939
