v -0.0143772783 -0.000540081179 0.0771651268
v -0.0143287005 -0.000353339827 0.077065587
v -0.0144299092 0.0136845075 0.0770967603
v -0.0144797983 0.0136845075 0.076910615
v -0.0146430554 0.0139626227 0.076911211
v -0.0146183791 0.0140053593 0.0771974921
v -0.0148049416 0.0140541755 0.0770975947
v -0.0569293313 0.0137010776 0.0769113302
v -0.0569296889 0.013750311 0.0771976113
v -0.0569283776 0.0135650598 0.0767747164
v -0.014710349 0.0138444267 0.0767746568
v -0.0146416845 0.0137767754 0.076774478
v -0.0148022594 0.0136826001 0.0767244101
v -0.0143785896 -0.000353280222 0.0768793821
v -0.0145149054 -0.000353935873 0.0767430663
v -0.0569270067 0.0133789741 0.0767244101
v -0.0144206705 -0.000514808809 0.0768790245
v -0.0145377936 -0.000634792959 0.0773510933
v -0.0145125808 -0.000677350676 0.0771648288
v -0.0571155362 0.0136992894 0.0770974755
v -0.0572074465 0.0135378204 0.0769109726
v -0.0571132116 0.0133775435 0.0767742991
v -0.0568258576 -0.000658813631 0.0766931772
v -0.0570902638 0.0136556588 0.0773835778
v -0.0572508387 0.0135617815 0.0771971941
v -0.0572495274 0.0133762322 0.076910615
v -0.0570120029 -0.000660303747 0.0767430663
v -0.0572993569 0.0133754574 0.0770967603
v -0.0571469478 -0.000848177588 0.0770651698
v -0.0569864325 -0.000753167784 0.0767428875
v -0.0570212416 0.0135378204 0.0775195956
v -0.0572074465 0.0135367475 0.0773833394
v -0.0569270067 0.0133771263 0.0775691271
v -0.0570889525 0.0134691559 0.0775194764
v -0.0571483187 -0.000662628328 0.0773517489
v -0.056917768 -0.000822487986 0.0774877071
v -0.0568258576 -0.00066072098 0.0775379539
v -0.056917768 -0.000820819056 0.0767427087
v -0.0569850616 -0.000939670717 0.0768787265
v -0.0570096783 -0.000983658945 0.0771648288
v -0.0571039729 -0.000823560869 0.0773513913
v -0.0568231754 -0.00103223673 0.0771647096
v -0.0141269388 -0.000352803385 0.0774880648
v -0.0142188491 -0.000514451182 0.0773513913
v -0.0140327038 -0.000513378298 0.0774877071
v -0.0139407339 -0.000351611292 0.0775379539
v -0.0139384093 -0.000673655188 0.0773510337
v -0.0139380516 -0.000722888624 0.0770647526
v 0.0282782484 -0.00020844095 0.0774877071
v 0.0283472706 -0.000325683272 0.0773510933
v 0.0281866957 -0.000419262564 0.0770647526
v 0.0283725429 -0.000368240988 0.0771648288
v 0.0283725429 -0.000368062174 0.0770648122
v 0.0283472706 -0.000324610388 0.0768787265
v 0.0284644533 -0.000205699136 0.0768790245
v -0.0140999975 -0.00063056103 0.0768787265
v 0.0282782484 -0.00020677202 0.0767427087
v -0.0140327038 -0.000511709368 0.0767427087
v 0.0283458997 -0.000138107469 0.0767428875
v 0.0283702184 -4.48261962e-05 0.0767430663
v 0.0281840134 -4.60778938e-05 0.0766931772
v 0.0280828048 0.0139917098 0.0767244101
v -0.0139407339 -0.000349703943 0.0766931772
v -0.0569850616 -0.000940743601 0.0773510933
v -0.0146997394 -0.000543121016 0.0774876475
v -0.0146983685 -0.00072861067 0.0771647096
v -0.0145378532 -0.000633720076 0.0768787265
v -0.0146068158 -0.000515881693 0.0767427087
v -0.0147010507 -0.000355187571 0.0766931772
v 0.0281840134 -4.79852424e-05 0.0775379539
v 0.0280828644 0.0139898621 0.0775691271
v -0.0140419425 0.013686236 0.0775691271
v -0.0141361775 0.0138469301 0.0775195956
v 0.0280814935 0.0141761266 0.0775196552
v 0.0282690097 0.0139912926 0.077519238
v -0.0142051997 0.0139647685 0.0773835778
v 0.0282420684 0.0142707191 0.0773835778
v 0.0284552146 0.0139933787 0.0771967769
v 0.0283702184 -4.64951263e-05 0.0774880648
v 0.0284039546 0.0141794048 0.0770971775
v 0.0282666851 0.014314469 0.0771974921
v 0.0280801225 0.0143632852 0.0770975947
v -0.0140446248 0.0140594207 0.0771976113
v 0.0285064746 -4.52434288e-05 0.0773517489
v 0.0285078455 -0.000230792692 0.0770651698
v 0.0284552146 0.0139936171 0.0770967603
v -0.0147010507 -0.000357094919 0.0775379539
v -0.0148022594 0.0136807524 0.0775691271
v -0.014710349 0.0138427578 0.0775195956
v -0.0146160545 0.0136821829 0.077519238
v -0.0146416845 0.0137751065 0.0775194764
v -0.0146430554 0.0139616095 0.0773835778
v -0.0145149054 -0.000355604803 0.0774880648
v -0.0144811096 0.0138700567 0.0771971941
v -0.0143785896 -0.000354353106 0.0773517489
v -0.0145391645 -0.000448886072 0.0774878263
v 0.0284053255 0.0139936171 0.076910615
v 0.0280804802 0.0143138133 0.0769113302
v -0.0140442671 0.0140101872 0.0769113302
v -0.0140433135 0.0138741694 0.0767747164
v 0.0281747747 0.0141535364 0.0767746568
v 0.0282690097 0.0139929615 0.0767742991
v 0.0285064746 -4.41705452e-05 0.0768793821
v -0.0140419425 0.0136880837 0.0767244101
v -0.0142051997 0.0139657818 0.076911211
v -0.0142281475 0.0136866532 0.0767742991
v -0.0143223824 0.0138469301 0.0769109726
v -0.0143657746 0.0138711296 0.0770971775
v -0.0141269388 -0.000351194059 0.0767430663
v -0.0143657746 0.0138708912 0.0771971941
v -0.0144142928 0.0136845671 0.0770967603
v -0.0142632546 -0.000352445757 0.0768793821
v -0.0143644037 0.0136843286 0.0773829818
v -0.0143131437 -0.000353220617 0.077065587
v -0.0143131437 -0.000353459036 0.077165544
v -0.0142280878 0.0136849843 0.077519238
v -0.0142618837 -0.0005390679 0.0770651698
f 1 2 3
f 1 2 3
f 2 4 3
f 2 4 3
f 4 5 6
f 4 5 6
f 6 5 7
f 6 5 7
f 7 5 8
f 7 5 8
f 7 8 9
f 7 8 9
f 5 10 8
f 5 10 8
f 5 11 10
f 5 11 10
f 4 11 5
f 4 11 5
f 4 12 11
f 4 12 11
f 12 13 11
f 12 13 11
f 14 12 4
f 14 12 4
f 2 14 4
f 2 14 4
f 15 13 12
f 15 13 12
f 14 15 12
f 14 15 12
f 11 13 16
f 11 13 16
f 11 16 10
f 11 16 10
f 1 14 2
f 1 14 2
f 17 15 14
f 17 15 14
f 1 17 14
f 1 17 14
f 18 19 1
f 18 19 1
f 19 17 1
f 19 17 1
f 9 8 20
f 9 8 20
f 8 10 21
f 8 10 21
f 20 8 21
f 20 8 21
f 10 16 22
f 10 16 22
f 21 10 22
f 21 10 22
f 22 16 23
f 22 16 23
f 23 16 13
f 23 16 13
f 24 9 20
f 24 9 20
f 20 21 25
f 20 21 25
f 21 22 26
f 21 22 26
f 25 21 26
f 25 21 26
f 22 23 27
f 22 23 27
f 26 22 27
f 26 22 27
f 24 20 25
f 24 20 25
f 25 26 28
f 25 26 28
f 26 27 29
f 26 27 29
f 28 26 29
f 28 26 29
f 29 27 30
f 29 27 30
f 27 23 30
f 27 23 30
f 31 24 32
f 31 24 32
f 24 25 32
f 24 25 32
f 33 31 34
f 33 31 34
f 31 32 34
f 31 32 34
f 32 25 28
f 32 25 28
f 32 28 29
f 32 28 29
f 32 29 35
f 32 29 35
f 34 32 35
f 34 32 35
f 33 34 36
f 33 34 36
f 34 35 36
f 34 35 36
f 33 36 37
f 33 36 37
f 29 30 38
f 29 30 38
f 30 23 38
f 30 23 38
f 29 38 39
f 29 38 39
f 29 39 40
f 29 39 40
f 35 29 41
f 35 29 41
f 36 35 41
f 36 35 41
f 41 29 40
f 41 29 40
f 40 39 42
f 40 39 42
f 43 44 45
f 43 44 45
f 46 43 45
f 46 43 45
f 45 44 47
f 45 44 47
f 47 44 48
f 47 44 48
f 46 45 49
f 46 45 49
f 45 50 49
f 45 50 49
f 45 47 50
f 45 47 50
f 50 51 52
f 47 51 50
f 50 51 52
f 47 51 50
f 47 48 51
f 47 48 51
f 51 53 52
f 51 53 52
f 48 54 51
f 48 54 51
f 51 54 53
f 51 54 53
f 53 54 55
f 53 54 55
f 48 56 54
f 48 56 54
f 56 57 54
f 56 57 54
f 56 58 57
f 56 58 57
f 54 59 55
f 54 59 55
f 54 57 59
f 54 57 59
f 55 59 60
f 55 59 60
f 58 61 57
f 57 61 59
f 58 61 57
f 57 61 59
f 59 61 60
f 59 61 60
f 60 61 62
f 60 61 62
f 58 63 61
f 58 63 61
f 63 62 61
f 63 62 61
f 41 40 64
f 41 40 64
f 36 41 64
f 36 41 64
f 64 40 42
f 64 40 42
f 37 36 65
f 37 36 65
f 36 18 65
f 36 18 65
f 36 64 18
f 36 64 18
f 18 66 19
f 64 66 18
f 18 66 19
f 64 66 18
f 64 42 66
f 64 42 66
f 42 67 66
f 42 67 66
f 66 67 19
f 66 67 19
f 19 67 17
f 19 67 17
f 42 39 67
f 42 39 67
f 39 68 67
f 39 68 67
f 39 38 68
f 39 38 68
f 67 15 17
f 67 15 17
f 67 68 15
f 67 68 15
f 38 69 68
f 68 69 15
f 38 69 68
f 68 69 15
f 15 69 13
f 15 69 13
f 38 23 69
f 38 23 69
f 23 13 69
f 23 13 69
f 70 71 72
f 70 71 72
f 71 73 72
f 71 73 72
f 70 72 46
f 70 72 46
f 71 74 73
f 71 74 73
f 70 75 71
f 70 75 71
f 74 76 73
f 74 76 73
f 46 49 70
f 46 49 70
f 71 75 77
f 71 77 74
f 71 77 74
f 71 75 77
f 74 77 76
f 74 77 76
f 75 78 77
f 75 78 77
f 79 78 75
f 79 78 75
f 70 79 75
f 70 79 75
f 78 80 77
f 78 80 77
f 77 80 81
f 77 80 81
f 77 81 82
f 77 81 82
f 77 82 83
f 77 82 83
f 77 83 76
f 77 83 76
f 79 84 78
f 79 84 78
f 49 84 79
f 49 84 79
f 70 49 79
f 70 49 79
f 49 50 84
f 49 50 84
f 84 85 78
f 84 85 78
f 50 85 84
f 50 85 84
f 85 86 78
f 85 86 78
f 78 86 80
f 78 86 80
f 87 88 33
f 87 88 33
f 88 31 33
f 88 31 33
f 87 33 37
f 87 33 37
f 88 89 31
f 88 89 31
f 87 90 88
f 87 90 88
f 89 24 31
f 89 24 31
f 37 65 87
f 37 65 87
f 88 90 91
f 88 91 89
f 88 91 89
f 88 90 91
f 89 92 24
f 89 92 24
f 91 92 89
f 91 92 89
f 90 92 91
f 90 92 91
f 87 93 90
f 87 93 90
f 90 94 92
f 90 94 92
f 92 94 6
f 92 94 6
f 92 6 7
f 92 6 7
f 92 7 9
f 92 7 9
f 92 9 24
f 92 9 24
f 94 4 6
f 94 4 6
f 95 94 90
f 95 94 90
f 93 95 90
f 93 95 90
f 96 95 93
f 96 95 93
f 87 96 93
f 87 96 93
f 87 65 96
f 87 65 96
f 96 18 95
f 96 18 95
f 65 18 96
f 65 18 96
f 18 1 95
f 18 1 95
f 95 1 94
f 95 1 94
f 1 3 94
f 1 3 94
f 94 3 4
f 94 3 4
f 85 97 86
f 85 97 86
f 86 97 80
f 86 97 80
f 80 97 98
f 80 97 98
f 80 98 81
f 80 98 81
f 81 98 82
f 81 98 82
f 82 98 99
f 82 98 99
f 82 99 83
f 82 99 83
f 98 100 99
f 98 100 99
f 98 101 100
f 98 101 100
f 97 101 98
f 97 101 98
f 97 102 101
f 97 102 101
f 102 62 101
f 102 62 101
f 103 102 97
f 103 102 97
f 85 103 97
f 85 103 97
f 60 62 102
f 60 62 102
f 103 60 102
f 103 60 102
f 101 62 104
f 101 62 104
f 101 104 100
f 101 104 100
f 55 60 103
f 55 60 103
f 85 55 103
f 85 55 103
f 50 52 85
f 50 52 85
f 53 55 85
f 53 55 85
f 52 53 85
f 52 53 85
f 99 100 105
f 99 100 105
f 83 99 105
f 83 99 105
f 105 100 106
f 105 100 106
f 100 104 106
f 100 104 106
f 105 106 107
f 105 106 107
f 106 104 63
f 106 104 63
f 63 104 62
f 63 104 62
f 83 105 76
f 83 105 76
f 105 107 108
f 105 107 108
f 76 105 108
f 76 105 108
f 108 107 106
f 108 107 106
f 106 63 109
f 106 63 109
f 76 108 110
f 76 108 110
f 108 106 111
f 108 106 111
f 110 108 111
f 110 108 111
f 106 109 112
f 106 109 112
f 111 106 112
f 111 106 112
f 73 76 113
f 73 76 113
f 76 110 113
f 76 110 113
f 72 73 113
f 72 73 113
f 113 110 111
f 113 110 111
f 111 112 114
f 111 112 114
f 113 111 115
f 113 111 115
f 111 114 115
f 111 114 115
f 72 113 116
f 72 113 116
f 113 115 43
f 113 115 43
f 116 113 43
f 116 113 43
f 72 116 43
f 72 116 43
f 72 43 46
f 72 43 46
f 114 112 117
f 114 112 117
f 115 114 117
f 115 114 117
f 112 109 58
f 112 109 58
f 109 63 58
f 109 63 58
f 117 112 56
f 117 112 56
f 112 58 56
f 112 58 56
f 115 117 44
f 115 117 44
f 43 115 44
f 43 115 44
f 44 117 56
f 44 117 56
f 44 56 48
f 44 56 48
