v 0.0308913756 -0.038606111 0.0762233138
v 0.0310708452 -0.0400691666 0.0762200356
v 0.0311364103 -0.0400539078 0.076470077
v 0.0316226669 -0.0413826145 0.0764670968
v 0.0309587885 -0.0386061706 0.0764732957
v 0.031562347 -0.0414121188 0.0762170553
v 0.0313155241 -0.0400111713 0.0766531825
v 0.0317874737 -0.0413008966 0.0766503215
v 0.0311430264 -0.0386052169 0.0766563416
v 0.0311364103 -0.0400527753 0.0759701133
v 0.0309587885 -0.0386050381 0.0759733319
v 0.0310497452 -0.0371406116 0.0762265921
v 0.0311154891 -0.0371549167 0.0759765506
v 0.0311155487 -0.0371559896 0.0764765143
v 0.0315218158 -0.0357906856 0.0762295723
v 0.0315825529 -0.0358193554 0.0759794712
v 0.0312951989 -0.0371950902 0.0757934451
v 0.0317485519 -0.0358986892 0.0757963061
v 0.0311430264 -0.0386033095 0.0757902861
v 0.0319752879 -0.0360074677 0.0757290721
v 0.0315406509 -0.0372503437 0.0757263303
v 0.0326633044 -0.0349085368 0.0757315159
v 0.0324659534 -0.0347527303 0.0757988095
v 0.0323215313 -0.0346390046 0.0759820938
v 0.0334106274 -0.0337944068 0.0758009553
v 0.0335693546 -0.033989314 0.0757335424
v 0.0328605957 -0.0350646414 0.0757981539
v 0.0337281413 -0.0341845192 0.0758000612
v 0.0322020836 -0.0361165442 0.0757958293
v 0.0338443704 -0.0343276896 0.0759827495
v 0.0330050774 -0.0351792015 0.0759809017
v 0.034852583 -0.0336760916 0.07598418
v 0.0347704478 -0.0335108675 0.0758015513
v 0.0346582718 -0.0332855619 0.0757350922
v 0.0359537192 -0.0330778398 0.075802505
v 0.0359968729 -0.0332573093 0.0759851336
v 0.0334797092 -0.0433790721 0.0757796168
v 0.0325213261 -0.0424343981 0.0757817626
v 0.0327164121 -0.0422754921 0.0757151246
v 0.0320126601 -0.0411866345 0.0757175684
v 0.0359220095 -0.0445498265 0.0757769942
v 0.0373302884 -0.0447019972 0.0757766366
v 0.0373315997 -0.0448866524 0.0759592652
v 0.038779337 -0.0447090305 0.0759596229
v 0.0346256085 -0.0440964736 0.0757780075
v 0.0358814783 -0.0447298922 0.0759596229
v 0.0345458575 -0.0442628898 0.0759606957
v 0.0333655067 -0.0435239114 0.0759623051
v 0.0358666368 -0.0447962321 0.0762094855
v 0.0323785134 -0.0425510444 0.0759645104
v 0.0317874737 -0.0412989296 0.075784266
v 0.0373320766 -0.0449546613 0.0762090683
v 0.0373315997 -0.0448877849 0.076459229
v 0.0316226669 -0.041381482 0.075967133
v 0.0387951322 -0.0447751321 0.0762094855
v 0.038779337 -0.044710163 0.0764595866
v 0.0387361832 -0.0445314683 0.0766430497
v 0.040138144 -0.0442836918 0.0762105584
v 0.0401080437 -0.0442239083 0.0764606595
v 0.0412776656 -0.0434680022 0.0764623284
v 0.0400259681 -0.0440594591 0.076644063
v 0.0399137326 -0.0438344516 0.0767115355
v 0.0411614366 -0.0433256067 0.0766456723
v 0.042106051 -0.0423672833 0.0766477585
v 0.0410026498 -0.0431306995 0.0767130852
v 0.040843863 -0.0429354943 0.0766465664
v 0.0419087 -0.0422114767 0.0767151117
v 0.0425967164 -0.0411125459 0.0767175555
v 0.0417114086 -0.0420553721 0.0766484737
v 0.041566927 -0.041940812 0.0764657259
v 0.0423699804 -0.0410034694 0.0766507983
v 0.0427859016 -0.0398141183 0.0766534209
v 0.0422039814 -0.0409233011 0.0764679909
v 0.0421431847 -0.0408935584 0.0762180686
v 0.0426061936 -0.0397731103 0.0764705539
v 0.0427414961 -0.0385212339 0.0764732957
v 0.04254039 -0.0397577323 0.076220572
v 0.0426061936 -0.0397720374 0.0759705305
v 0.0426740833 -0.0385211743 0.0762233138
v 0.0425225683 -0.0372866429 0.0762260556
v 0.0427414961 -0.0385201015 0.0759733319
v 0.0429256745 -0.0385183729 0.0757902861
v 0.0425881334 -0.0372703113 0.0759760737
v 0.0421694107 -0.0361260809 0.0759786367
v 0.0427672453 -0.0372267403 0.0757931471
v 0.0430118628 -0.0371676721 0.0757263303
v 0.0423342176 -0.0360435285 0.0757958293
v 0.0416605659 -0.0350011624 0.0757981539
v 0.0425593443 -0.0359311737 0.0757290721
v 0.0427845307 -0.035819117 0.0757963061
v 0.0418555923 -0.0348422565 0.0757315159
v 0.0409363694 -0.0339362063 0.0757335424
v 0.0420506783 -0.0346836485 0.0757988095
v 0.042193491 -0.0345678367 0.0759820938
v 0.0410922952 -0.0337390341 0.0758009553
v 0.0399463959 -0.0330216326 0.0758025646
v 0.0412064977 -0.0335949697 0.0759842992
v 0.0412482806 -0.0335426368 0.0762344003
v 0.0400261469 -0.0328560509 0.0759859681
v 0.038690526 -0.0323889889 0.0759869814
v 0.0400553532 -0.0327958502 0.0762360692
v 0.0400261469 -0.0328571238 0.0764859319
v 0.0387054272 -0.0323237814 0.0762371421
v 0.0372399278 -0.0321653523 0.0762374997
v 0.0386905856 -0.0323900618 0.0764870048
v 0.0386499949 -0.032570187 0.0766696334
v 0.0372404046 -0.0322333612 0.0764873624
v 0.0357926674 -0.032410983 0.0764870048
v 0.0372417159 -0.0324179567 0.076669991
v 0.0372435637 -0.0326697864 0.0767363906
v 0.0358358212 -0.0325904526 0.0766696334
v 0.0345460959 -0.0330624618 0.0766685605
v 0.0358947702 -0.0328352489 0.076736033
v 0.0359537192 -0.0330797471 0.0766685009
v 0.0346582718 -0.0332877673 0.0767350793
v 0.0335693546 -0.0339915194 0.0767335296
v 0.0347705074 -0.0335127749 0.0766676068
v 0.0348526426 -0.0336771645 0.0764842033
v 0.0337281413 -0.0341864266 0.0766661167
v 0.0328606553 -0.0350665487 0.0766641498
v 0.0338443704 -0.034328822 0.0764827728
v 0.0338869281 -0.0343804993 0.0762326717
v 0.0330050774 -0.0351802744 0.0764808655
v 0.0323680826 -0.0361978449 0.0764786601
v 0.0330579467 -0.0352215208 0.076230824
v 0.0324288197 -0.0362264551 0.076228559
v 0.0320316143 -0.0373622812 0.0762260556
v 0.0323680229 -0.0361967124 0.0759786367
v 0.0319658108 -0.0373468436 0.0759760737
v 0.0318305083 -0.0385987796 0.0759733319
v 0.0317861624 -0.0373058952 0.0757931471
v 0.0316463299 -0.0385996737 0.0757902861
v 0.0318047591 -0.0398913659 0.075787425
v 0.0313946791 -0.0386013426 0.0757232904
v 0.0315601416 -0.0399501361 0.0757203102
v 0.0313154645 -0.0400092043 0.0757871866
v 0.0579039045 -0.0109551586 0.076284349
v 0.0576513596 -0.00889689103 0.0762889385
v 0.0575858541 -0.0089132227 0.0765389204
v 0.0578364916 -0.010955099 0.0760343671
v 0.0575857945 -0.00891209021 0.076038897
v 0.0568998642 -0.00703776255 0.0760430694
v 0.0574067421 -0.00895488635 0.0758557916
v 0.0576522537 -0.0109559931 0.0758513212
v 0.0567350574 -0.00711948052 0.0758599043
v 0.0558334179 -0.00538760796 0.0760467649
v 0.0574006028 -0.010957662 0.0757843852
v 0.0571620651 -0.00901365653 0.0757886767
v 0.0571901388 -0.0129049458 0.0757800341
v 0.0574355908 -0.0129604973 0.0758469105
v 0.0576152988 -0.0130014457 0.0760298371
v 0.0567904301 -0.0148053803 0.0758427978
v 0.056563694 -0.0146963038 0.0757760406
v 0.0569446869 -0.0128496327 0.0758471489
v 0.056336958 -0.0145875253 0.0758432746
v 0.057148952 -0.010959629 0.0758513212
v 0.056170959 -0.0145081319 0.0760264993
v 0.0567649789 -0.0128095187 0.0760302544
v 0.0552302785 -0.0160106458 0.0760231614
v 0.0553747602 -0.016124431 0.0758398771
v 0.0555720516 -0.016280178 0.0757725239
v 0.0541073866 -0.0174102224 0.0758370757
v 0.0539911576 -0.0172678269 0.07602036
v 0.0551774092 -0.015969459 0.0762732625
v 0.0539485998 -0.0172160901 0.0762705207
v 0.0561101623 -0.0144795217 0.0762765408
v 0.0539911576 -0.0172688998 0.0765203834
v 0.0552303381 -0.0160117783 0.0765231848
v 0.0525023527 -0.0182310976 0.0765182376
v 0.052472312 -0.0181702413 0.0762683749
v 0.0525023527 -0.0182300247 0.0760182738
v 0.0507966466 -0.0187834539 0.0762670636
v 0.0508124419 -0.0188495554 0.0765169263
v 0.0525844879 -0.0183963217 0.0767009258
v 0.0508555956 -0.0190290846 0.0766995549
v 0.0541073866 -0.0174121298 0.0767030716
v 0.0509145446 -0.0192738809 0.0767659545
v 0.0526967235 -0.0186216272 0.076767385
v 0.0489705391 -0.0195123591 0.0767654777
v 0.0489686914 -0.0192605294 0.0766990185
v 0.0489673801 -0.0190759338 0.0765164495
v 0.0501418896 -0.0264620222 0.0759999752
v 0.0516861267 -0.0254639424 0.0760021806
v 0.0517162271 -0.0255248584 0.0762520432
v 0.053454835 -0.0248885788 0.0762534738
v 0.0534390397 -0.0248224773 0.0760036111
v 0.0501844473 -0.0265148319 0.0762498975
v 0.0488566346 -0.0277659334 0.0759971142
v 0.0534390397 -0.0248236097 0.0765035748
v 0.0516861267 -0.0254650749 0.0765022039
v 0.0553527661 -0.024588827 0.0765041113
v 0.0553532429 -0.0246557035 0.0762539506
v 0.0553527661 -0.0245876946 0.0760040879
v 0.053395886 -0.0246430077 0.0758209825
v 0.0572548695 -0.0248612203 0.0762534738
v 0.057269711 -0.0247959532 0.0765035748
v 0.0553514548 -0.0244050063 0.0766875148
v 0.0573103018 -0.024616722 0.0766869783
v 0.053395886 -0.024644915 0.0766869783
v 0.0573656745 -0.0243713893 0.0767545104
v 0.0553496666 -0.0241534747 0.0767550468
v 0.0592203327 -0.0250199474 0.0767530799
v 0.059111435 -0.0252465643 0.0766855478
v 0.059031684 -0.025412146 0.0765022039
v 0.0607043095 -0.02624375 0.0766833425
v 0.0608602352 -0.0260465778 0.0767507553
v 0.0593292899 -0.0247930326 0.0766865611
v 0.061016161 -0.0258491077 0.0766841769
v 0.0574211068 -0.0241257586 0.0766881108
v 0.0611303039 -0.0257042684 0.0765014887
v 0.059409041 -0.024626676 0.0765039325
v 0.0625697523 -0.0271230973 0.0764983296
v 0.0624270029 -0.0272397436 0.0766810775
v 0.0622319169 -0.0273986496 0.0767477155
v 0.0635072738 -0.0289112367 0.076677382
v 0.0636720806 -0.0288286842 0.0764945149
v 0.0626220256 -0.0270800032 0.0762484074
v 0.0637324005 -0.0287980475 0.0762445927
v 0.0611720867 -0.025650803 0.076251626
v 0.0636720806 -0.0288275518 0.0759945512
v 0.0625697523 -0.0271220244 0.0759983063
v 0.0643810779 -0.0307648815 0.0759902
v 0.064446643 -0.0307496823 0.0762402415
v 0.0643810779 -0.030766014 0.0764902234
v 0.0498098321 -0.0400381126 0.075786829
v 0.0483989902 -0.0386474766 0.0757899284
v 0.0485940762 -0.0384885706 0.0757232904
v 0.047543902 -0.0368636884 0.0757269263
v 0.0534048863 -0.0417614616 0.0757828951
v 0.0554781742 -0.0419855751 0.0757823586
v 0.0554794855 -0.0421701707 0.0759649873
v 0.0575911589 -0.0419111289 0.0759655237
v 0.0514967032 -0.0410941876 0.0757844448
v 0.0533643551 -0.0419415869 0.0759655237
v 0.0514169522 -0.0412606038 0.0759670734
v 0.0496956892 -0.0401830114 0.0759695172
v 0.0533495136 -0.0420079269 0.0762153864
v 0.0482562371 -0.0387641229 0.0759726763
v 0.0473187156 -0.0369760431 0.0757936835
v 0.055480022 -0.0422381796 0.0762148499
v 0.0554794855 -0.0421713032 0.0764650106
v 0.0471539088 -0.037058536 0.075976491
v 0.0576069541 -0.0419772305 0.0762153864
v 0.0575911589 -0.0419122018 0.0764655471
v 0.0575480051 -0.0417335667 0.0766489506
v 0.059558589 -0.041262988 0.0762169361
v 0.0595284887 -0.0412032045 0.0764670968
v 0.0612340756 -0.0401009358 0.076469481
v 0.0594464131 -0.0410388149 0.0766504407
v 0.0593341775 -0.0408138074 0.0767179728
v 0.0611178465 -0.0399585404 0.0766528249
v 0.0625084788 -0.0385476984 0.0766559243
v 0.0609591193 -0.0397636332 0.0767202377
v 0.0608003326 -0.039568428 0.0766537189
v 0.0623111911 -0.0383919515 0.0767232776
v 0.0633378178 -0.0367520489 0.0767269135
v 0.0621138401 -0.0382358469 0.0766566396
v 0.0619694181 -0.0381212868 0.0764738917
v 0.0631110817 -0.0366429724 0.0766601562
v 0.063740924 -0.0348418392 0.0766641498
v 0.0629450828 -0.0365628041 0.0764773488
v 0.062884286 -0.0365330614 0.0762274265
v 0.063561216 -0.0348008908 0.0764812231
v 0.0637684017 -0.0328839459 0.0764855146
v 0.0634954125 -0.0347854532 0.0762313008
v 0.063561216 -0.0347997583 0.0759812593
v 0.0637009889 -0.0328838862 0.0762355328
v 0.0634680539 -0.0309854187 0.0762397051
v 0.0637684017 -0.0328828134 0.0759854913
v 0.0639526397 -0.0328810848 0.075802505
v 0.063533619 -0.030969087 0.0759897828
v 0.0628920943 -0.0292162336 0.0759936571
v 0.0637126714 -0.030925516 0.0758068562
v 0.0639573485 -0.0308664478 0.0757399797
v 0.0630569607 -0.0291336812 0.0758108497
v 0.0620368905 -0.0275553502 0.0758143663
v 0.0632820874 -0.0290213265 0.0757440925
v 0.0635072142 -0.0289092697 0.0758113265
v 0.0622319169 -0.0273964442 0.0757477283
v 0.0608602352 -0.0260443725 0.0757507682
v 0.0624270029 -0.0272378363 0.0758150816
v 0.061016161 -0.0258472003 0.075818181
v 0.0593292899 -0.0247911252 0.0758205652
v 0.0611303039 -0.0257031359 0.0760015249
v 0.059409041 -0.0246255435 0.0760039091
v 0.057461638 -0.0239445604 0.0760054588
v 0.0594382472 -0.0245653428 0.0762540698
v 0.0574765392 -0.023879353 0.0762556195
v 0.0553460307 -0.0236490406 0.076256156
v 0.0574616976 -0.0239456333 0.0765054822
v 0.0553465076 -0.0237170495 0.0765060186
v 0.0532348342 -0.0239761509 0.0765054822
v 0.0553478189 -0.0239017047 0.0766886473
v 0.053277988 -0.0241556205 0.0766881108
v 0.0513796397 -0.0248503722 0.0766865611
v 0.053336937 -0.0244004168 0.0767545104
v 0.0514918156 -0.0250756778 0.0767530799
v 0.0498669334 -0.0261257924 0.0767507553
v 0.0516039915 -0.0253006853 0.0766855478
v 0.0500256605 -0.0263207592 0.0766833425
v 0.048712153 -0.0276533403 0.0766803622
v 0.0501418896 -0.0264630951 0.0764999986
v 0.0488566346 -0.0277670659 0.0764971375
v 0.0478809662 -0.0293255486 0.0764936805
v 0.048909504 -0.0278083123 0.0762470365
v 0.0479417033 -0.0293541588 0.0762435794
v 0.0473305769 -0.031101767 0.0762397051
v 0.0478809066 -0.0293244161 0.0759936571
v 0.0477149077 -0.0292442478 0.0758108497
v 0.0472647734 -0.031086389 0.0759897828
v 0.0470575877 -0.0330032744 0.0759854913
v 0.0470850654 -0.031045381 0.0758068562
v 0.0468396135 -0.0309898295 0.0757399797
v 0.0468733497 -0.033004228 0.075802505
v 0.047113318 -0.0349597968 0.0757981539
v 0.0466216989 -0.033005897 0.0757355094
v 0.0463700481 -0.0330078639 0.075802505
v 0.0468686409 -0.035018567 0.075731039
v 0.0466240235 -0.0350776948 0.0757979155
v 0.0464449115 -0.0351212062 0.0759807825
v 0.0399147458 -0.0110847987 0.076284349
v 0.0401672311 -0.0131431259 0.0762797594
v 0.0402327962 -0.0131278671 0.0765298009
v 0.0409187861 -0.0150022544 0.0765256286
v 0.0399821587 -0.0110849179 0.0765343308
v 0.0408584066 -0.0150317587 0.0762755871
v 0.0404119082 -0.0130851306 0.0767129064
v 0.0410835929 -0.0149205364 0.0767087936
v 0.0401663966 -0.0110839643 0.0767173767
v 0.0402327962 -0.0131267346 0.0760298371
v 0.0399821587 -0.0110837854 0.0760343671
v 0.040137548 -0.00902313367 0.0762889385
v 0.0402033515 -0.00903737918 0.076038897
v 0.0402033515 -0.00903851166 0.0765389204
v 0.0408014245 -0.00712472573 0.0762931705
v 0.0408621617 -0.00715333596 0.0760430694
v 0.0403829999 -0.00907755271 0.0758557916
v 0.0410281606 -0.00723266974 0.0758599043
v 0.0401663966 -0.0110820569 0.0758513212
v 0.0412548967 -0.00734144822 0.0757926702
v 0.0406284519 -0.00913280621 0.0757886767
v 0.0422465391 -0.00575757399 0.0757961869
v 0.0420491882 -0.00560176745 0.0758634806
v 0.0419047661 -0.00548804179 0.0760467649
v 0.0433936901 -0.00423777476 0.0758665204
v 0.0435524769 -0.00443268195 0.0757991076
v 0.0424438305 -0.00591361895 0.0758628249
v 0.0437112637 -0.00462788716 0.0758656263
v 0.0414816923 -0.00745052472 0.0758593678
v 0.0438274331 -0.00477105752 0.0760483146
v 0.0425883122 -0.00602817908 0.0760455728
v 0.045316238 -0.0038088595 0.0760504603
v 0.0452341028 -0.00364363543 0.0758677721
v 0.0451219268 -0.00341832987 0.0758013129
v 0.0469629951 -0.00301093212 0.0758692026
v 0.0470062084 -0.00319040171 0.0760517716
v 0.0470786877 -0.0190562643 0.0766995549
v 0.0470232554 -0.0193018951 0.0767659545
v 0.0489723273 -0.019763831 0.0766979456
v 0.0469678231 -0.0195472278 0.0766984224
v 0.0509734936 -0.0195183195 0.0766984224
v 0.0469272919 -0.0197265185 0.0765150189
v 0.0489736386 -0.0199476518 0.0765144825
v 0.0450431891 -0.0190676488 0.0765165091
v 0.0451229401 -0.0189020671 0.0766999125
v 0.0452318974 -0.0186754502 0.076767385
v 0.0434920378 -0.0178810395 0.0767021775
v 0.0433778949 -0.018025104 0.0765188932
v 0.0450140424 -0.0191278495 0.076266408
v 0.0433361121 -0.0180773772 0.0762687325
v 0.0469124503 -0.019791726 0.0762648582
v 0.0433778949 -0.0180239715 0.0760188699
v 0.0450431891 -0.0190665163 0.0760165453
v 0.0419852324 -0.0166512169 0.0760219693
v 0.0419329591 -0.0166943111 0.076271832
v 0.0419852324 -0.0166523494 0.0765219331
v 0.0409187265 -0.0150011219 0.0760256052
v 0.0421280451 -0.0165365376 0.0767052174
v 0.0436479636 -0.0176838674 0.07676965
v 0.0423230715 -0.0163779296 0.0767725706
v 0.0413087197 -0.0148084797 0.0767760277
v 0.0453408547 -0.0184485354 0.0767009258
v 0.0438038893 -0.0174863972 0.0767030716
v 0.0425181575 -0.0162190236 0.0767059326
v 0.0406565256 -0.0130263008 0.0767800212
v 0.041533906 -0.0146961249 0.0767093301
v 0.0471192189 -0.0188761987 0.0765169263
v 0.0454206057 -0.0182821788 0.0765182376
v 0.0489669032 -0.0190079249 0.0762665868
v 0.0471340604 -0.0188098587 0.0762670636
v 0.0439180918 -0.0173414983 0.0765203834
v 0.0454497524 -0.0182208456 0.0762683749
v 0.0426609106 -0.0161023773 0.0765231848
v 0.0439598747 -0.0172880925 0.0762705207
v 0.0416987129 -0.0146135725 0.076526463
v 0.0427131839 -0.0160592832 0.0762732625
v 0.0409012027 -0.0129672326 0.0767131448
v 0.0404180475 -0.0110822953 0.0767843723
v 0.0403829999 -0.00907951966 0.0767218471
v 0.0408622213 -0.00715446845 0.0765430927
v 0.0418518968 -0.00544679537 0.0762968659
v 0.0432774611 -0.00409537926 0.0760498643
v 0.0450097509 -0.00319332234 0.0758687854
v 0.0469041057 -0.00276613585 0.0758027434
v 0.0488498993 -0.00277942768 0.0758696795
v 0.0488512702 -0.00296402327 0.0760522485
v 0.0506993718 -0.00316381804 0.0760517716
v 0.0506845303 -0.0032300984 0.0763016343
v 0.0523688383 -0.0038191115 0.076300323
v 0.0523980446 -0.00375891081 0.0765504241
v 0.0539005585 -0.00469959155 0.0765483379
v 0.0540147014 -0.00455552712 0.0767316818
v 0.0553004928 -0.00582290068 0.0767288208
v 0.0554955788 -0.00566429272 0.076796174
v 0.056509871 -0.00723374262 0.0767926574
v 0.0567350574 -0.00712138787 0.0767259002
v 0.0574067421 -0.0089567937 0.0767218471
v 0.0578364916 -0.0109561719 0.0765343308
v 0.0576810427 -0.0130168833 0.0762797594
v 0.056956429 -0.0148855485 0.0760256052
v 0.0557694025 -0.0164362825 0.0758391619
v 0.0542661138 -0.0176051296 0.0757696033
v 0.0525844879 -0.0183944143 0.0758348703
v 0.0508124419 -0.0188484229 0.0760169029
v 0.0489673801 -0.0190748014 0.0760164261
v 0.0508555956 -0.0190271176 0.0758334994
v 0.0526966639 -0.0186194219 0.0757673979
v 0.0544249006 -0.0178003348 0.0758361816
v 0.0471192189 -0.0188750662 0.0760169029
v 0.0489686914 -0.0192586221 0.0758330226
v 0.0509145446 -0.0192716159 0.0757659674
v 0.0528088994 -0.0188447274 0.0758338571
v 0.0454205461 -0.0182810463 0.0760182738
v 0.0470786877 -0.019054357 0.0758334994
v 0.0489704795 -0.0195101537 0.0757654905
v 0.0509734936 -0.0195164122 0.0758324265
v 0.0439180322 -0.0173404254 0.07602036
v 0.0453407951 -0.018446628 0.0758348703
v 0.0470232554 -0.0192996897 0.0757659674
v 0.0489723273 -0.0197619237 0.0758318901
v 0.0510166474 -0.0196959414 0.0760150552
v 0.0528910346 -0.0190099515 0.0760165453
v 0.0545411296 -0.0179435052 0.0760188699
v 0.0559138842 -0.0165508427 0.0760219693
v 0.0570171662 -0.0149152912 0.0762755871
v 0.0559667535 -0.016593162 0.076271832
v 0.0545836873 -0.0179963149 0.0762687325
v 0.0529210754 -0.0190708674 0.076266408
v 0.0576152988 -0.0130025782 0.0765298009
v 0.056956429 -0.0148866214 0.0765256286
v 0.0559138842 -0.0165519752 0.0765219331
v 0.0545411296 -0.0179446377 0.0765188932
v 0.0576522537 -0.01095796 0.0767173767
v 0.0574355908 -0.0129624046 0.0767129064
v 0.0567904301 -0.0148072876 0.0767087936
v 0.0557694025 -0.0164381899 0.0767052174
v 0.0571621247 -0.0090158619 0.0767886639
v 0.0574006028 -0.0109598674 0.0767843723
v 0.0571901388 -0.0129071511 0.0767800212
v 0.056563694 -0.0146985091 0.0767760277
v 0.0562847443 -0.00734579936 0.0767254233
v 0.0569174476 -0.00907469168 0.076721549
v 0.057148952 -0.0109615363 0.0767173767
v 0.0569446869 -0.0128515996 0.0767131448
v 0.0551577397 -0.00593871251 0.0765455365
v 0.0561199374 -0.00742751732 0.0765421987
v 0.0567383356 -0.00911742821 0.0765384436
v 0.0569647141 -0.01096249 0.0765343308
v 0.0538587756 -0.00475186482 0.0762982368
v 0.0551054664 -0.00598073378 0.0762954354
v 0.0560595579 -0.00745702162 0.0762921572
v 0.0566728301 -0.009132687 0.0762884021
v 0.0523980446 -0.00375783793 0.0760504603
v 0.0539005585 -0.00469845906 0.0760483146
v 0.0551576801 -0.00593758002 0.0760455728
v 0.0561198778 -0.00742638484 0.0760422349
v 0.0507399626 -0.0029836928 0.0758692026
v 0.0524777956 -0.00359142176 0.0758677721
v 0.0540147014 -0.00455361977 0.0758656263
v 0.0553004928 -0.00582099333 0.0758628249
v 0.0488481112 -0.00252759806 0.0758032203
v 0.0507953353 -0.00273806206 0.0758027434
v 0.0525867529 -0.00336450688 0.0758013129
v 0.0541706271 -0.00435614958 0.0757991076
v 0.0468451567 -0.00252163759 0.0758702755
v 0.0488462634 -0.00227612606 0.0758708119
v 0.0508507676 -0.00249278895 0.0758702755
v 0.0526956506 -0.00313789002 0.0758687854
v 0.0449276157 -0.00302887312 0.0760521889
v 0.0468020029 -0.00234294287 0.076053679
v 0.0488449521 -0.00209230534 0.0760542154
v 0.0508913584 -0.00231349817 0.076053679
v 0.043234963 -0.00404364243 0.0762999654
v 0.0448975153 -0.00296914927 0.0763023496
v 0.0467862077 -0.00227797381 0.0763038397
v 0.0488444753 -0.00202542893 0.0763043761
v 0.0419047661 -0.00548911467 0.0765467882
v 0.0432774611 -0.00409645215 0.0765498281
v 0.0449276157 -0.00303000561 0.0765522122
v 0.0468020029 -0.00234407536 0.0765537024
v 0.0410281606 -0.00723457709 0.0767259002
v 0.0420491882 -0.0056036748 0.0767295361
v 0.0433936901 -0.00423968211 0.0767325163
v 0.0450097509 -0.00319522968 0.0767348409
v 0.0406285115 -0.00913507119 0.0767886639
v 0.0412549563 -0.00734371319 0.0767926574
v 0.0422465391 -0.00575977936 0.076796174
v 0.0435524769 -0.00443488732 0.0767990947
v 0.0406696983 -0.0110803284 0.0767173767
v 0.0408739634 -0.00919032469 0.076721549
v 0.0414816923 -0.00745249167 0.0767254233
v 0.0424438901 -0.00591558591 0.0767288208
v 0.0410802551 -0.0129236616 0.0765302777
v 0.0408539362 -0.0110785998 0.0765343308
v 0.0410536714 -0.00923049822 0.0765384436
v 0.0416476913 -0.00753182545 0.0765421987
v 0.0417590328 -0.0145829953 0.0762765408
v 0.0411458202 -0.0129073299 0.0762802958
v 0.0409213491 -0.0110775866 0.076284349
v 0.0411194153 -0.00924474373 0.0762884021
v 0.0426609106 -0.0161012448 0.0760231614
v 0.0416987129 -0.0146124996 0.0760264993
v 0.0410802551 -0.0129225291 0.0760302544
v 0.0408538766 -0.0110774674 0.0760343671
v 0.0438038893 -0.0174844302 0.0758370757
v 0.0425180979 -0.0162170567 0.0758398771
v 0.041533906 -0.0146942176 0.0758432746
v 0.0409011431 -0.0129653253 0.0758471489
v 0.0452318974 -0.0186732449 0.0757673979
v 0.0436479636 -0.017681662 0.0757696033
v 0.0423230715 -0.0163757242 0.0757725239
v 0.0413087197 -0.0148062743 0.0757760406
v 0.0469678231 -0.0195453204 0.0758324265
v 0.0451229401 -0.0189001597 0.0758338571
v 0.0434920378 -0.0178791322 0.0758361816
v 0.0535157509 -0.0412724651 0.0766500235
v 0.0554745384 -0.0414841808 0.0766495466
v 0.0554732271 -0.0412995256 0.076466918
v 0.0534603186 -0.0415180959 0.0767164826
v 0.0554763861 -0.0417359509 0.0767159462
v 0.0574890561 -0.0414890684 0.0767164826
v 0.0554781742 -0.0419874825 0.0766484141
v 0.0534048863 -0.0417634286 0.0766489506
v 0.0533643551 -0.0419427194 0.0764655471
v 0.0514169522 -0.0412616767 0.0764670968
v 0.0514967032 -0.041096095 0.0766504407
v 0.0516056605 -0.0408695377 0.0767179728
v 0.0498098321 -0.0400400795 0.0766528249
v 0.0496956892 -0.0401840843 0.076469481
v 0.0513878055 -0.0413218774 0.0762169361
v 0.0496539064 -0.0402364172 0.0762193799
v 0.0482039638 -0.038807217 0.0762225986
v 0.0482562371 -0.0387652554 0.0764726996
v 0.0470935889 -0.0370891728 0.0762264132
v 0.0471539088 -0.0370596685 0.0764765143
v 0.0483989902 -0.0386494435 0.0766559243
v 0.0473187752 -0.0369779505 0.0766596794
v 0.0499658175 -0.0398429073 0.0767202377
v 0.0485940762 -0.038490776 0.0767232776
v 0.047543902 -0.0368658938 0.0767269135
v 0.0466240235 -0.0350796022 0.0766639113
v 0.0517146178 -0.0406426229 0.076651454
v 0.0501217432 -0.0396453775 0.0766537189
v 0.0487891622 -0.03833187 0.0766566396
v 0.0468686409 -0.0350207724 0.0767310262
v 0.0463701077 -0.0330097713 0.0766685009
v 0.0477690883 -0.036753539 0.0766601562
v 0.0535562821 -0.0410923399 0.0764673948
v 0.0517943688 -0.0404762067 0.0764688253
v 0.0554727502 -0.0412315764 0.0762170553
v 0.0573711582 -0.0409986414 0.0762175918
v 0.0535711236 -0.0410260595 0.0762175918
v 0.0502358861 -0.0395005383 0.0764710307
v 0.0518235154 -0.0404148735 0.0762189627
v 0.0489319153 -0.0382152833 0.0764738917
v 0.050277669 -0.0394471325 0.0762211084
v 0.0479338951 -0.0366709866 0.0764773488
v 0.0489841886 -0.0381721891 0.0762239695
v 0.047113318 -0.0349617042 0.0766641498
v 0.0466217585 -0.0330081023 0.0767354965
v 0.0465941615 -0.0309364833 0.0766731501
v 0.0464144535 -0.0308955349 0.0764902234
v 0.0470954366 -0.0289481319 0.0764945149
v 0.0470346995 -0.0289183892 0.0762445927
v 0.0481201597 -0.0271845497 0.0762484074
v 0.048173029 -0.0272257961 0.0759983063
v 0.0495919175 -0.0257862844 0.0760015249
v 0.0497081466 -0.0259286799 0.075818181
v 0.0513796397 -0.0248484053 0.0758205652
v 0.0514918156 -0.0250734128 0.0757530928
v 0.053336937 -0.0243982114 0.0757545233
v 0.0553514548 -0.0244030394 0.0758214593
v 0.057269711 -0.0247948803 0.0760036111
v 0.0590024777 -0.0254723467 0.0762520432
v 0.060590107 -0.0263878144 0.0764999986
v 0.0620368905 -0.0275572576 0.0766803622
v 0.0632820874 -0.0290235318 0.0767440796
v 0.0642019659 -0.030809585 0.0766731501
v 0.0646401197 -0.0328776874 0.0764855146
v 0.0647075921 -0.0328766145 0.0762355328
v 0.0644772798 -0.0350071229 0.0762307644
v 0.0644115359 -0.0349917449 0.0759807825
v 0.0637305528 -0.0369390883 0.075976491
v 0.0635645539 -0.03685892 0.0757936835
v 0.0625084788 -0.0385457911 0.0757899284
v 0.0623111315 -0.0383896865 0.0757232904
v 0.0609590597 -0.0397614278 0.0757202506
v 0.0608003326 -0.0395665206 0.0757876635
v 0.0592220016 -0.0405865945 0.0757854581
v 0.0591398664 -0.0404221453 0.075968802
v 0.0573869534 -0.0410636701 0.0759674311
v 0.0554732271 -0.0412984528 0.0759669542
v 0.0574301071 -0.0412423052 0.0757840276
v 0.0593341775 -0.040811602 0.075717926
v 0.0611178465 -0.039956633 0.075786829
v 0.0535562821 -0.041091267 0.0759674311
v 0.0554745384 -0.0414822735 0.0757834911
v 0.0574890561 -0.0414868034 0.0757164955
v 0.0594463535 -0.0410369076 0.0757844448
v 0.0517943688 -0.0404750742 0.075968802
v 0.0535156913 -0.0412705578 0.0757840276
v 0.0554763861 -0.0417337455 0.0757159591
v 0.0575480051 -0.0417315997 0.0757828951
v 0.0502358861 -0.0394994058 0.0759710073
v 0.0517146178 -0.0406407155 0.0757854581
v 0.0534603186 -0.0415158905 0.0757164955
v 0.0595284887 -0.0412021317 0.0759670734
v 0.0612340756 -0.0400998034 0.0759695172
v 0.0626529604 -0.0386603512 0.0759726763
v 0.0637912899 -0.036968831 0.0762264132
v 0.0627058297 -0.0387026705 0.0762225986
v 0.0612766333 -0.0401526727 0.0762193799
v 0.0644115359 -0.0349928178 0.0764808059
v 0.0637305528 -0.0369402207 0.0764765143
v 0.0626529604 -0.0386614837 0.0764726996
v 0.0644559413 -0.0328794159 0.0766685009
v 0.0642318279 -0.0349527039 0.0766639113
v 0.0635645539 -0.0368608274 0.0766596794
v 0.0639573485 -0.0308686532 0.0767399669
v 0.0642042905 -0.0328813829 0.0767354965
v 0.0639863759 -0.0348973908 0.0767310262
v 0.0630569607 -0.0291355886 0.0766768456
v 0.0637126714 -0.030927483 0.076672852
v 0.0639526397 -0.0328830518 0.0766685009
v 0.0618940778 -0.0276730694 0.0764971375
v 0.0628920943 -0.0292173065 0.0764936805
v 0.063533619 -0.0309702195 0.0764897466
v 0.0605483241 -0.0264401473 0.0762498975
v 0.0618418045 -0.0277150907 0.0762470365
v 0.0628317744 -0.0292468108 0.0762435794
v 0.0590316243 -0.0254110135 0.0760021806
v 0.060590107 -0.0263866819 0.0759999752
v 0.0618940778 -0.0276719965 0.0759971142
v 0.0573102422 -0.0246147551 0.0758209825
v 0.0591113754 -0.0252445973 0.0758195519
v 0.0607042499 -0.0262418427 0.075817287
v 0.055349607 -0.0241512693 0.0757550597
v 0.0573656745 -0.0243691243 0.0757545233
v 0.0592203327 -0.0250177421 0.0757530928
v 0.053277988 -0.0241537131 0.0758220553
v 0.0553478189 -0.0238997377 0.0758225918
v 0.0574211068 -0.0241238512 0.0758220553
v 0.0512975045 -0.0246840157 0.0760039091
v 0.0532348342 -0.0239750184 0.0760054588
v 0.0553465076 -0.023715917 0.0760059953
v 0.0495493598 -0.0257346071 0.076251626
v 0.0512674041 -0.0246242322 0.0762540698
v 0.053219039 -0.0239099897 0.0762556195
v 0.048173029 -0.027226869 0.0764983296
v 0.0495919175 -0.0257874168 0.0765014887
v 0.0512975045 -0.0246851481 0.0765039325
v 0.0472614355 -0.0290283002 0.076677382
v 0.0483175106 -0.0273414291 0.0766810775
v 0.0497081466 -0.0259305872 0.0766841769
v 0.0468396135 -0.0309920348 0.0767399669
v 0.0474882312 -0.0291373767 0.0767440796
v 0.0485148616 -0.0274975337 0.0767477155
v 0.0468734093 -0.0330061354 0.0766685009
v 0.0470850654 -0.0310472883 0.076672852
v 0.0477149673 -0.0292462148 0.0766768456
v 0.0472923703 -0.0349181332 0.0764812231
v 0.0470575877 -0.0330044068 0.0764855146
v 0.0472647734 -0.0310874619 0.0764897466
v 0.047994215 -0.0366404094 0.0762274265
v 0.0473579355 -0.0349018015 0.0762313008
v 0.0471250005 -0.033003334 0.0762355328
v 0.0489319153 -0.0382141508 0.0759738684
v 0.0479338951 -0.0366699137 0.0759773254
v 0.0472923703 -0.0349170007 0.0759812593
v 0.0501216836 -0.0396434702 0.0757876635
v 0.0487891026 -0.0383299626 0.0757906437
v 0.0477690287 -0.0367516316 0.0757941604
v 0.0516056605 -0.0408672728 0.075717926
v 0.0499657579 -0.0398406424 0.0757202506
v 0.0461183973 -0.0330106057 0.0762355328
v 0.0463793464 -0.0351375975 0.0762307644
v 0.0464449115 -0.0351223387 0.0764808059
v 0.0461858697 -0.0330106653 0.0764855146
v 0.0461858697 -0.0330095924 0.0759854913
v 0.0463487096 -0.0308800973 0.0762402415
v 0.0464144535 -0.0308944024 0.0759902
v 0.0470954366 -0.0289470591 0.0759945512
v 0.0465941615 -0.0309345759 0.0758070946
v 0.0472614355 -0.0290263928 0.0758113265
v 0.0474881716 -0.0291351713 0.0757440925
v 0.048514802 -0.0274953283 0.0757477283
v 0.0483175106 -0.0273395218 0.0758150816
v 0.0498668738 -0.026123587 0.0757507682
v 0.048712153 -0.0276513733 0.0758143663
v 0.0500256605 -0.0263187923 0.075817287
v 0.0516039915 -0.0252987184 0.0758195519
v 0.0348826833 -0.0337369479 0.0762340426
v 0.0360126682 -0.0333234109 0.0762349963
v 0.0359968729 -0.0332584418 0.0764850974
v 0.0372466631 -0.0331050791 0.076485455
v 0.0372471996 -0.0331719555 0.0762352943
v 0.0372466631 -0.0331040062 0.0759854317
v 0.0384837575 -0.0333056487 0.0762349963
v 0.0384985991 -0.0332403816 0.0764850974
v 0.0372453518 -0.0329212584 0.0766688585
v 0.0385391898 -0.0330610909 0.0766685009
v 0.0385945626 -0.0328158177 0.076736033
v 0.0398374386 -0.0332504548 0.0767350793
v 0.0397285409 -0.0334770121 0.0766676068
v 0.0396487899 -0.0336425938 0.0764842033
v 0.0407804437 -0.0341355838 0.0766661167
v 0.0409363694 -0.0339384116 0.0767335296
v 0.0399463959 -0.0330235399 0.0766685605
v 0.0410923548 -0.0337409414 0.0766669512
v 0.0412064977 -0.0335961021 0.0764842629
v 0.042193491 -0.0345689692 0.0764821172
v 0.0420506783 -0.0346855558 0.076664865
v 0.0418556519 -0.0348444618 0.076731503
v 0.0427845307 -0.0358210243 0.076662302
v 0.0429493375 -0.0357385315 0.0764794946
v 0.0422457643 -0.034525875 0.0762321949
v 0.043009717 -0.0357078947 0.0762295723
v 0.0429493375 -0.035737399 0.0759794712
v 0.0434355922 -0.0370661058 0.0759765506
v 0.0435011573 -0.037050847 0.0762265921
v 0.0434355922 -0.0370672382 0.0764765143
v 0.0453463383 -0.00386977545 0.076300323
v 0.0470220037 -0.00325650326 0.0763016343
v 0.0438699909 -0.00482386723 0.0762982368
v 0.0470062084 -0.0031915342 0.076551795
v 0.045316238 -0.00380999199 0.0765504241
v 0.0488512702 -0.00296515576 0.0765522718
v 0.0488517471 -0.00303203217 0.0763021111
v 0.0506993718 -0.00316489092 0.076551795
v 0.0488498993 -0.00278133503 0.0767356753
v 0.0507399626 -0.00298560015 0.0767351985
v 0.0469630547 -0.00301283947 0.0767351985
v 0.0507953949 -0.00274032704 0.0768027306
v 0.0488481112 -0.00252986304 0.0768032074
v 0.0525867529 -0.00336677185 0.0768013
v 0.0524777956 -0.00359332911 0.0767338276
v 0.0541706868 -0.00435835496 0.0767990947
v 0.0526956506 -0.00313985697 0.0767348409
v 0.0543266125 -0.00416088477 0.0767325163
v 0.0508507676 -0.00249469629 0.0767362714
v 0.0544407554 -0.00401598588 0.0765498281
v 0.0527754016 -0.0029734408 0.0765522122
v 0.0558334179 -0.00538874045 0.0765467882
v 0.0556906052 -0.00550538674 0.0767295361
v 0.0568998642 -0.00703883544 0.0765430927
v 0.0558856912 -0.00534564629 0.0762968659
v 0.0569601841 -0.00700825825 0.0762931705
v 0.0544825383 -0.00396258011 0.0762999654
v 0.0360328741 -0.04406083 0.0766441226
v 0.0373266526 -0.0442006625 0.076643765
v 0.0373253413 -0.0440160073 0.0764611959
v 0.0359774418 -0.0443064012 0.0767105818
v 0.0373285003 -0.0444524325 0.0767102242
v 0.0386772938 -0.04428697 0.0767105818
v 0.0373302884 -0.0447039641 0.0766426325
v 0.0359220095 -0.0445517339 0.0766430497
v 0.0358814783 -0.0447310247 0.0764595866
v 0.0345459171 -0.0442639627 0.0764606595
v 0.0346256681 -0.044098381 0.076644063
v 0.0347345658 -0.0438718237 0.0767115355
v 0.0334797092 -0.0433809794 0.0766456723
v 0.0333655663 -0.0435250439 0.0764623284
v 0.0345167108 -0.0443241633 0.0762105584
v 0.0333237834 -0.0435773768 0.0762122273
v 0.0323262997 -0.0425941385 0.0762144327
v 0.032378573 -0.0425521769 0.0764645338
v 0.0325213261 -0.042436365 0.0766477585
v 0.0336356349 -0.0431838073 0.0767130852
v 0.0327164121 -0.0422777571 0.0767151117
v 0.0320126601 -0.0411888398 0.0767175555
v 0.0348435231 -0.0436449088 0.0766450763
v 0.0337915607 -0.0429863371 0.0766465664
v 0.0329114385 -0.0421188511 0.0766484737
v 0.0315601416 -0.0399523415 0.0767202973
v 0.0322377868 -0.0410764851 0.0766507983
v 0.0360734053 -0.0438807048 0.076461494
v 0.0349232741 -0.0434784926 0.076462388
v 0.0373248644 -0.043948058 0.0762113333
v 0.0385593362 -0.043796543 0.0762116313
v 0.0360882469 -0.0438143648 0.0762116313
v 0.0339057036 -0.0428414978 0.0764638186
v 0.0349524207 -0.0434171595 0.0762125254
v 0.0330542512 -0.0420022048 0.0764657259
v 0.0339474864 -0.0427880324 0.0762139559
v 0.0324026532 -0.0409939326 0.0764679909
v 0.0331065245 -0.0419591106 0.0762158036
v 0.0318047591 -0.0398932733 0.0766534209
v 0.0313946791 -0.038603548 0.0767232776
v 0.0312951989 -0.0371969976 0.076659441
v 0.0315825529 -0.0358204283 0.0764794946
v 0.032268662 -0.0345977582 0.0762321949
v 0.0332943983 -0.0336520113 0.0759842992
v 0.0345460959 -0.0330605544 0.0758025646
v 0.0358947702 -0.0328330435 0.0757360458
v 0.0372453518 -0.032919351 0.0758028626
v 0.0384985991 -0.0332393087 0.0759851336
v 0.0396195836 -0.0337027945 0.0762340426
v 0.0406663008 -0.0342796482 0.0764827728
v 0.0416605659 -0.0350031294 0.0766641498
v 0.0425594039 -0.0359333791 0.0767290592
v 0.0432565399 -0.0371107496 0.076659441
v 0.043613214 -0.0385149755 0.0764732957
v 0.0436806865 -0.0385139026 0.0762233138
v 0.0435222574 -0.039979402 0.0762200356
v 0.0434565134 -0.0399639644 0.0759701133
v 0.0429894514 -0.0412995853 0.075967133
v 0.0428234525 -0.041219417 0.075784266
v 0.042106051 -0.0423653163 0.0757817626
v 0.0419087 -0.0422092713 0.0757151246
v 0.0410026498 -0.0431284942 0.075713098
v 0.040843863 -0.042933587 0.0757805109
v 0.0398015566 -0.0436072387 0.0757790208
v 0.0397194214 -0.0434427895 0.0759624243
v 0.0385751314 -0.0438615717 0.0759614706
v 0.0373253413 -0.0440149345 0.0759611726
v 0.0386182852 -0.0440402664 0.0757780671
v 0.0399137326 -0.0438322462 0.0757115483
v 0.041161377 -0.0433236994 0.0757796168
v 0.0360734053 -0.0438795723 0.0759614706
v 0.0373266526 -0.0441986956 0.0757777691
v 0.0386772342 -0.0442847647 0.075710535
v 0.0400259085 -0.0440575518 0.0757780075
v 0.0349232741 -0.0434773602 0.0759624243
v 0.0360328741 -0.0440588631 0.0757780671
v 0.0373284407 -0.0444502272 0.075710237
v 0.0387361832 -0.044529561 0.0757769942
v 0.0339057036 -0.0428403653 0.0759638548
v 0.0348435231 -0.0436429419 0.0757790208
v 0.0359774418 -0.0443041958 0.075710535
v 0.0401080437 -0.0442227758 0.0759606957
v 0.041277606 -0.0434668697 0.0759623051
v 0.0422504731 -0.0424798764 0.0759645104
v 0.0430501886 -0.041329328 0.0762170553
v 0.042303402 -0.0425222553 0.0762144327
v 0.0413201638 -0.0435197391 0.0762122273
v 0.0434565134 -0.0399650969 0.076470077
v 0.0429894514 -0.0413006581 0.0764670968
v 0.0422505327 -0.0424810089 0.0764645338
v 0.0434290357 -0.038516704 0.0766563416
v 0.0432768054 -0.0399249233 0.0766531825
v 0.0428234525 -0.0412213244 0.0766503215
v 0.0430118628 -0.0371698774 0.0767263174
v 0.0431773849 -0.0385186709 0.0767232776
v 0.0430313535 -0.0398696698 0.0767202973
v 0.0423342176 -0.0360454358 0.0766618252
v 0.0427672453 -0.0372286476 0.0766592026
v 0.0429257341 -0.0385203399 0.0766563416
v 0.0415177532 -0.0351189412 0.0764808655
v 0.0421694107 -0.0361271538 0.0764786601
v 0.0425881334 -0.0372713841 0.0764760971
v 0.0406245179 -0.0343319811 0.0762326717
v 0.0414654799 -0.0351609029 0.076230824
v 0.0421090908 -0.0361566581 0.076228559
v 0.0396487303 -0.0336415209 0.07598418
v 0.0406663008 -0.0342785157 0.0759827495
v 0.0415177532 -0.0351178087 0.0759809017
v 0.0385391302 -0.0330591835 0.075802505
v 0.0397284813 -0.0334751047 0.0758015513
v 0.0407804437 -0.0341336764 0.0758000612
v 0.0372435637 -0.032667581 0.0757364035
v 0.0385945626 -0.0328135528 0.0757360458
v 0.0398374386 -0.0332481898 0.0757350922
v 0.0358358212 -0.0325885452 0.0758035779
v 0.0372417159 -0.0324160494 0.0758039355
v 0.0386499949 -0.0325682797 0.0758035779
v 0.0344639607 -0.0328961052 0.0759859681
v 0.0357926674 -0.0324098505 0.0759869814
v 0.0372404046 -0.0322322287 0.0759873986
v 0.0332518406 -0.0336002745 0.0762344003
v 0.0344338603 -0.0328363217 0.0762360692
v 0.0357768722 -0.0323448814 0.0762371421
v 0.0323215313 -0.0346400775 0.0764821172
v 0.0332943983 -0.0336530842 0.0764842629
v 0.0344639607 -0.0328972377 0.0764859319
v 0.0317485519 -0.0359005965 0.076662302
v 0.0324659534 -0.0347546376 0.076664865
v 0.0334106274 -0.0337963142 0.0766669512
v 0.0315407105 -0.0372525491 0.0767263174
v 0.0319753475 -0.036009673 0.0767290592
v 0.0326633044 -0.0349107422 0.076731503
v 0.0316463299 -0.0386016406 0.0766563416
v 0.0317861624 -0.0373078026 0.0766592026
v 0.0322020836 -0.0361184515 0.0766618252
v 0.031983871 -0.0398497023 0.0764705539
v 0.0318305083 -0.0385998525 0.0764732957
v 0.0319658704 -0.0373479761 0.0764760971
v 0.0324629731 -0.0409633555 0.0762180686
v 0.0320494361 -0.0398333706 0.076220572
v 0.0318979807 -0.0385988392 0.0762233138
v 0.0330542512 -0.0420010723 0.0759657025
v 0.0324025936 -0.0409928598 0.0759679675
v 0.031983871 -0.0398485698 0.0759705305
v 0.0337915607 -0.0429844297 0.0757805109
v 0.0329114385 -0.0421168841 0.0757824779
v 0.0322377868 -0.0410745777 0.0757848024
v 0.0347345658 -0.0438695587 0.0757115483
v 0.0336356349 -0.0431816019 0.075713098
v 0.043613214 -0.038513843 0.0759733319
v 0.0432565399 -0.0371088423 0.0757934451
v 0.0434289761 -0.038514737 0.0757902861
v 0.0431773253 -0.038516406 0.0757232904
v 0.0430313535 -0.0398674645 0.0757203102
v 0.0432768054 -0.039923016 0.0757871866
v 0.0425967164 -0.0411103405 0.0757175684
v 0.042785842 -0.0398122109 0.075787425
v 0.0423699208 -0.0410015024 0.0757848024
v 0.0422039814 -0.0409221686 0.0759679675
v 0.041566927 -0.0419397391 0.0759657025
v 0.0417114086 -0.0420534648 0.0757824779
v 0.040727634 -0.0427911915 0.0759638548
v 0.0415140577 -0.0418984927 0.0762158036
v 0.0406851359 -0.0427394547 0.0762139559
v 0.040727634 -0.042792324 0.0764638186
v 0.0397194214 -0.043443922 0.076462388
v 0.0396893211 -0.0433830656 0.0762125254
v 0.0385751314 -0.0438627042 0.076461494
v 0.0398015566 -0.043609146 0.0766450763
v 0.0386183448 -0.0440421738 0.0766441226
v 0.0646401197 -0.0328765549 0.0759854913
v 0.0642019659 -0.0308076181 0.0758070946
v 0.0644559413 -0.0328774489 0.075802505
v 0.0642042905 -0.0328791179 0.0757355094
v 0.0639863759 -0.0348951854 0.075731039
v 0.0642318279 -0.0349507369 0.0757979155
v 0.0633378178 -0.0367498435 0.0757269263
v 0.063740924 -0.0348399319 0.0757981539
v 0.0631110221 -0.036641065 0.0757941604
v 0.0629450828 -0.0365617312 0.0759773254
v 0.0619693585 -0.0381201543 0.0759738684
v 0.0621138401 -0.0382339396 0.0757906437
v 0.0606841035 -0.0394241251 0.0759710073
v 0.0619164892 -0.0380789675 0.0762239695
v 0.0606415458 -0.0393723883 0.0762211084
v 0.0606841035 -0.0394252576 0.0764710307
v 0.0591398664 -0.0404232778 0.0764688253
v 0.059109766 -0.0403623618 0.0762189627
v 0.0573869534 -0.041064743 0.0764673948
v 0.0592220016 -0.0405885018 0.076651454
v 0.0574301071 -0.0412442721 0.0766500235
v 0.0421279855 -0.0165346302 0.0758391619
v 0.0489736386 -0.0199465789 0.0760145187
v 0.0469272919 -0.0197253861 0.0760150552
v 0.0410835929 -0.0149185695 0.0758427978
v 0.0489741154 -0.0200145282 0.0762643814
v 0.0510324426 -0.0197620429 0.0762648582
v 0.0510166474 -0.0196970142 0.0765150189
v 0.0528910346 -0.019011084 0.0765165091
v 0.0528088994 -0.0188466348 0.0766999125
v 0.0544249006 -0.0178022422 0.0767021775
v 0.0542661734 -0.017607335 0.07676965
v 0.0555721112 -0.016282443 0.0767725706
v 0.0553747602 -0.0161263384 0.0767059326
v 0.056336958 -0.0145894326 0.0767093301
v 0.056170959 -0.0145092644 0.076526463
v 0.0567649789 -0.0128105916 0.0765302777
v 0.0566991754 -0.0127952136 0.0762802958
v 0.0568973012 -0.0109624304 0.076284349
v 0.0569647141 -0.0109613575 0.0760343671
v 0.0567383356 -0.00911629573 0.0760384798
v 0.0569174476 -0.00907272473 0.0758555532
v 0.0562847443 -0.0073438324 0.0758593678
v 0.056509871 -0.00723153725 0.0757926702
v 0.0554955192 -0.00566208735 0.0757961869
v 0.0556906052 -0.00550341979 0.0758634806
v 0.0543265529 -0.00415891781 0.0758665204
v 0.0544407554 -0.00401491299 0.0760498643
v 0.0527754016 -0.00297230831 0.0760521889
v 0.0528046079 -0.00291210762 0.0763023496
v 0.0509062 -0.00224823109 0.0763038397
v 0.0508913584 -0.00231457106 0.0765537024
v 0.0488449521 -0.00209343783 0.0765541792
v 0.048846323 -0.00227803341 0.0767368078
v 0.0468451567 -0.00252354494 0.0767362714
v 0.0469041057 -0.00276834122 0.0768027306
v 0.0451219268 -0.00342053524 0.0768013
v 0.0452341624 -0.00364554278 0.0767338276
v 0.0437112637 -0.00462979451 0.0767316818
v 0.0438274927 -0.00477219 0.0765483379
v 0.0425883122 -0.00602931157 0.0765455365
v 0.0426411815 -0.00607055798 0.0762954354
v 0.0417084284 -0.00756043568 0.0762921572
v 0.0416476913 -0.00753069296 0.0760422349
v 0.0410536714 -0.00922936574 0.0760384798
v 0.0408739634 -0.00918841735 0.0758555532
v 0.0406696983 -0.011078421 0.0758513212
v 0.0404180475 -0.01108009 0.0757843852
v 0.0406565256 -0.0130240954 0.0757800341
v 0.0404119082 -0.0130832233 0.0758469105
f 1 2 3
f 1 2 3
f 4 3 2
f 4 3 2
f 3 5 1
f 3 5 1
f 2 6 4
f 2 6 4
f 5 3 7
f 5 3 7
f 8 7 3
f 3 4 8
f 8 7 3
f 3 4 8
f 7 9 5
f 7 9 5
f 6 2 10
f 6 2 10
f 2 1 11
f 2 1 11
f 11 10 2
f 11 10 2
f 12 1 5
f 12 1 5
f 13 11 1
f 1 12 13
f 13 11 1
f 1 12 13
f 14 5 9
f 5 14 12
f 14 5 9
f 5 14 12
f 15 12 14
f 15 12 14
f 16 13 12
f 12 15 16
f 16 13 12
f 12 15 16
f 11 13 17
f 11 13 17
f 18 17 13
f 13 16 18
f 18 17 13
f 13 16 18
f 17 19 11
f 17 19 11
f 10 11 19
f 10 11 19
f 17 18 20
f 17 18 20
f 20 21 17
f 19 17 21
f 20 21 17
f 19 17 21
f 22 20 18
f 22 20 18
f 23 18 16
f 18 23 22
f 23 18 16
f 18 23 22
f 16 24 23
f 16 24 23
f 24 16 15
f 24 16 15
f 25 23 24
f 25 23 24
f 26 22 23
f 23 25 26
f 26 22 23
f 23 25 26
f 20 22 27
f 20 22 27
f 28 27 22
f 22 26 28
f 28 27 22
f 22 26 28
f 27 29 20
f 27 29 20
f 21 20 29
f 21 20 29
f 27 28 30
f 27 28 30
f 30 31 27
f 29 27 31
f 30 31 27
f 29 27 31
f 32 30 28
f 32 30 28
f 33 28 26
f 28 33 32
f 33 28 26
f 28 33 32
f 26 34 33
f 26 34 33
f 34 26 25
f 34 26 25
f 35 33 34
f 35 33 34
f 36 32 33
f 33 35 36
f 36 32 33
f 33 35 36
f 37 38 39
f 37 38 39
f 40 39 38
f 40 39 38
f 41 42 43
f 41 42 43
f 44 43 42
f 44 43 42
f 45 41 46
f 43 46 41
f 45 41 46
f 43 46 41
f 37 45 47
f 46 47 45
f 37 45 47
f 46 47 45
f 47 48 37
f 47 48 37
f 38 37 48
f 38 37 48
f 47 46 49
f 47 46 49
f 48 50 38
f 48 50 38
f 51 38 50
f 51 38 50
f 38 51 40
f 38 51 40
f 52 49 46
f 52 49 46
f 46 43 52
f 46 43 52
f 49 52 53
f 49 52 53
f 50 54 51
f 50 54 51
f 55 52 43
f 55 52 43
f 43 44 55
f 43 44 55
f 56 53 52
f 56 53 52
f 52 55 56
f 52 55 56
f 53 56 57
f 53 56 57
f 58 55 44
f 58 55 44
f 55 58 59
f 55 58 59
f 59 56 55
f 59 56 55
f 60 59 58
f 60 59 58
f 61 57 56
f 61 57 56
f 56 59 61
f 56 59 61
f 57 61 62
f 57 61 62
f 59 60 63
f 59 60 63
f 63 61 59
f 63 61 59
f 64 63 60
f 64 63 60
f 65 62 61
f 65 62 61
f 61 63 65
f 61 63 65
f 62 65 66
f 62 65 66
f 63 64 67
f 63 64 67
f 67 65 63
f 67 65 63
f 68 67 64
f 68 67 64
f 69 66 65
f 69 66 65
f 65 67 69
f 65 67 69
f 66 69 70
f 66 69 70
f 67 68 71
f 67 68 71
f 71 69 67
f 71 69 67
f 72 71 68
f 72 71 68
f 73 70 69
f 73 70 69
f 69 71 73
f 69 71 73
f 70 73 74
f 70 73 74
f 71 72 75
f 71 72 75
f 75 73 71
f 75 73 71
f 76 75 72
f 76 75 72
f 77 74 73
f 77 74 73
f 73 75 77
f 73 75 77
f 74 77 78
f 74 77 78
f 75 76 79
f 75 76 79
f 79 77 75
f 79 77 75
f 80 79 76
f 80 79 76
f 81 78 77
f 81 78 77
f 77 79 81
f 77 79 81
f 78 81 82
f 78 81 82
f 79 80 83
f 79 80 83
f 83 81 79
f 83 81 79
f 84 83 80
f 84 83 80
f 85 82 81
f 85 82 81
f 81 83 85
f 81 83 85
f 82 85 86
f 82 85 86
f 83 84 87
f 83 84 87
f 87 85 83
f 87 85 83
f 88 87 84
f 88 87 84
f 89 86 85
f 89 86 85
f 85 87 89
f 85 87 89
f 86 89 90
f 86 89 90
f 87 88 91
f 87 88 91
f 91 89 87
f 91 89 87
f 92 91 88
f 92 91 88
f 93 90 89
f 93 90 89
f 89 91 93
f 89 91 93
f 90 93 94
f 90 93 94
f 91 92 95
f 91 92 95
f 95 93 91
f 95 93 91
f 96 95 92
f 96 95 92
f 97 94 93
f 97 94 93
f 93 95 97
f 93 95 97
f 94 97 98
f 94 97 98
f 95 96 99
f 95 96 99
f 99 97 95
f 99 97 95
f 100 99 96
f 100 99 96
f 101 98 97
f 101 98 97
f 97 99 101
f 97 99 101
f 98 101 102
f 98 101 102
f 99 100 103
f 99 100 103
f 103 101 99
f 103 101 99
f 104 103 100
f 104 103 100
f 105 102 101
f 105 102 101
f 101 103 105
f 101 103 105
f 102 105 106
f 102 105 106
f 103 104 107
f 103 104 107
f 107 105 103
f 107 105 103
f 108 107 104
f 108 107 104
f 109 106 105
f 109 106 105
f 105 107 109
f 105 107 109
f 106 109 110
f 106 109 110
f 107 108 111
f 107 108 111
f 111 109 107
f 111 109 107
f 112 111 108
f 112 111 108
f 113 110 109
f 113 110 109
f 109 111 113
f 109 111 113
f 110 113 114
f 110 113 114
f 111 112 115
f 111 112 115
f 115 113 111
f 115 113 111
f 116 115 112
f 116 115 112
f 117 114 113
f 117 114 113
f 113 115 117
f 113 115 117
f 114 117 118
f 114 117 118
f 115 116 119
f 115 116 119
f 119 117 115
f 119 117 115
f 120 119 116
f 120 119 116
f 121 118 117
f 121 118 117
f 117 119 121
f 117 119 121
f 118 121 122
f 118 121 122
f 119 120 123
f 119 120 123
f 123 121 119
f 123 121 119
f 124 123 120
f 124 123 120
f 125 122 121
f 125 122 121
f 121 123 125
f 121 123 125
f 122 125 31
f 122 125 31
f 123 124 126
f 123 124 126
f 126 125 123
f 126 125 123
f 127 126 124
f 127 126 124
f 128 31 125
f 128 31 125
f 125 126 128
f 125 126 128
f 31 128 29
f 31 128 29
f 126 127 129
f 126 127 129
f 129 128 126
f 129 128 126
f 130 129 127
f 130 129 127
f 131 29 128
f 131 29 128
f 128 129 131
f 128 129 131
f 29 131 21
f 29 131 21
f 129 130 132
f 129 130 132
f 132 131 129
f 132 131 129
f 133 132 130
f 133 132 130
f 134 21 131
f 134 21 131
f 131 132 134
f 131 132 134
f 21 134 19
f 21 134 19
f 132 133 135
f 132 133 135
f 135 134 132
f 135 134 132
f 40 135 133
f 40 135 133
f 136 19 134
f 136 19 134
f 134 135 136
f 134 135 136
f 19 136 10
f 19 136 10
f 54 10 136
f 54 10 136
f 135 40 51
f 135 40 51
f 136 51 54
f 136 51 54
f 51 136 135
f 51 136 135
f 137 138 139
f 137 138 139
f 140 141 138
f 138 137 140
f 140 141 138
f 138 137 140
f 142 141 143
f 142 141 143
f 144 143 141
f 141 140 144
f 144 143 141
f 141 140 144
f 143 145 142
f 143 145 142
f 146 142 145
f 146 142 145
f 143 144 147
f 143 144 147
f 147 148 143
f 145 143 148
f 147 148 143
f 145 143 148
f 149 147 144
f 149 147 144
f 150 144 140
f 144 150 149
f 150 144 140
f 144 150 149
f 140 151 150
f 140 151 150
f 151 140 137
f 151 140 137
f 152 150 151
f 152 150 151
f 153 149 150
f 150 152 153
f 153 149 150
f 150 152 153
f 147 149 154
f 147 149 154
f 155 154 149
f 149 153 155
f 155 154 149
f 149 153 155
f 154 156 147
f 154 156 147
f 148 147 156
f 148 147 156
f 154 155 157
f 154 155 157
f 157 158 154
f 156 154 158
f 157 158 154
f 156 154 158
f 159 157 155
f 159 157 155
f 160 155 153
f 155 160 159
f 160 155 153
f 155 160 159
f 153 161 160
f 153 161 160
f 161 153 152
f 161 153 152
f 162 160 161
f 162 160 161
f 163 159 160
f 160 162 163
f 163 159 160
f 160 162 163
f 157 159 164
f 157 159 164
f 165 164 159
f 159 163 165
f 165 164 159
f 159 163 165
f 164 166 157
f 164 166 157
f 158 157 166
f 158 157 166
f 164 165 167
f 164 165 167
f 167 168 164
f 166 164 168
f 167 168 164
f 166 164 168
f 169 167 165
f 169 167 165
f 170 165 163
f 165 170 169
f 170 165 163
f 165 170 169
f 163 171 170
f 163 171 170
f 171 163 162
f 171 163 162
f 172 170 171
f 172 170 171
f 173 169 170
f 170 172 173
f 173 169 170
f 170 172 173
f 167 169 174
f 167 169 174
f 175 174 169
f 169 173 175
f 175 174 169
f 169 173 175
f 174 176 167
f 174 176 167
f 168 167 176
f 168 167 176
f 174 175 177
f 174 175 177
f 177 178 174
f 176 174 178
f 177 178 174
f 176 174 178
f 179 177 175
f 179 177 175
f 180 175 173
f 175 180 179
f 180 175 173
f 175 180 179
f 173 181 180
f 173 181 180
f 181 173 172
f 181 173 172
f 182 183 184
f 182 183 184
f 185 184 183
f 183 186 185
f 185 184 183
f 183 186 185
f 184 187 182
f 184 187 182
f 188 182 187
f 188 182 187
f 184 185 189
f 184 185 189
f 189 190 184
f 187 184 190
f 189 190 184
f 187 184 190
f 191 189 185
f 191 189 185
f 192 185 186
f 185 192 191
f 192 185 186
f 185 192 191
f 186 193 192
f 186 193 192
f 193 186 194
f 193 186 194
f 195 192 193
f 195 192 193
f 196 191 192
f 192 195 196
f 196 191 192
f 192 195 196
f 189 191 197
f 189 191 197
f 198 197 191
f 191 196 198
f 198 197 191
f 191 196 198
f 197 199 189
f 197 199 189
f 190 189 199
f 190 189 199
f 197 198 200
f 197 198 200
f 200 201 197
f 199 197 201
f 200 201 197
f 199 197 201
f 202 200 198
f 202 200 198
f 203 198 196
f 198 203 202
f 203 198 196
f 198 203 202
f 196 204 203
f 196 204 203
f 204 196 195
f 204 196 195
f 205 203 204
f 205 203 204
f 206 202 203
f 203 205 206
f 206 202 203
f 203 205 206
f 200 202 207
f 200 202 207
f 208 207 202
f 202 206 208
f 208 207 202
f 202 206 208
f 207 209 200
f 207 209 200
f 201 200 209
f 201 200 209
f 207 208 210
f 207 208 210
f 210 211 207
f 209 207 211
f 210 211 207
f 209 207 211
f 212 210 208
f 212 210 208
f 213 208 206
f 208 213 212
f 213 208 206
f 208 213 212
f 206 214 213
f 206 214 213
f 214 206 205
f 214 206 205
f 215 213 214
f 215 213 214
f 216 212 213
f 213 215 216
f 216 212 213
f 213 215 216
f 210 212 217
f 210 212 217
f 218 217 212
f 212 216 218
f 218 217 212
f 212 216 218
f 217 219 210
f 217 219 210
f 211 210 219
f 211 210 219
f 217 218 220
f 217 218 220
f 220 221 217
f 219 217 221
f 220 221 217
f 219 217 221
f 222 220 218
f 222 220 218
f 223 218 216
f 218 223 222
f 223 218 216
f 218 223 222
f 216 224 223
f 216 224 223
f 224 216 215
f 224 216 215
f 225 226 227
f 225 226 227
f 228 227 226
f 228 227 226
f 229 230 231
f 229 230 231
f 232 231 230
f 232 231 230
f 233 229 234
f 231 234 229
f 233 229 234
f 231 234 229
f 225 233 235
f 234 235 233
f 225 233 235
f 234 235 233
f 235 236 225
f 235 236 225
f 226 225 236
f 226 225 236
f 235 234 237
f 235 234 237
f 236 238 226
f 236 238 226
f 239 226 238
f 239 226 238
f 226 239 228
f 226 239 228
f 240 237 234
f 240 237 234
f 234 231 240
f 234 231 240
f 237 240 241
f 237 240 241
f 238 242 239
f 238 242 239
f 243 240 231
f 243 240 231
f 231 232 243
f 231 232 243
f 244 241 240
f 244 241 240
f 240 243 244
f 240 243 244
f 241 244 245
f 241 244 245
f 246 243 232
f 246 243 232
f 243 246 247
f 243 246 247
f 247 244 243
f 247 244 243
f 248 247 246
f 248 247 246
f 249 245 244
f 249 245 244
f 244 247 249
f 244 247 249
f 245 249 250
f 245 249 250
f 247 248 251
f 247 248 251
f 251 249 247
f 251 249 247
f 252 251 248
f 252 251 248
f 253 250 249
f 253 250 249
f 249 251 253
f 249 251 253
f 250 253 254
f 250 253 254
f 251 252 255
f 251 252 255
f 255 253 251
f 255 253 251
f 256 255 252
f 256 255 252
f 257 254 253
f 257 254 253
f 253 255 257
f 253 255 257
f 254 257 258
f 254 257 258
f 255 256 259
f 255 256 259
f 259 257 255
f 259 257 255
f 260 259 256
f 260 259 256
f 261 258 257
f 261 258 257
f 257 259 261
f 257 259 261
f 258 261 262
f 258 261 262
f 259 260 263
f 259 260 263
f 263 261 259
f 263 261 259
f 264 263 260
f 264 263 260
f 265 262 261
f 265 262 261
f 261 263 265
f 261 263 265
f 262 265 266
f 262 265 266
f 263 264 267
f 263 264 267
f 267 265 263
f 267 265 263
f 268 267 264
f 268 267 264
f 269 266 265
f 269 266 265
f 265 267 269
f 265 267 269
f 266 269 270
f 266 269 270
f 267 268 271
f 267 268 271
f 271 269 267
f 271 269 267
f 272 271 268
f 272 271 268
f 273 270 269
f 273 270 269
f 269 271 273
f 269 271 273
f 270 273 274
f 270 273 274
f 271 272 275
f 271 272 275
f 275 273 271
f 275 273 271
f 276 275 272
f 276 275 272
f 277 274 273
f 277 274 273
f 273 275 277
f 273 275 277
f 274 277 278
f 274 277 278
f 275 276 279
f 275 276 279
f 279 277 275
f 279 277 275
f 280 279 276
f 280 279 276
f 281 278 277
f 281 278 277
f 277 279 281
f 277 279 281
f 278 281 221
f 278 281 221
f 279 280 282
f 279 280 282
f 282 281 279
f 282 281 279
f 283 282 280
f 283 282 280
f 284 221 281
f 284 221 281
f 281 282 284
f 281 282 284
f 221 284 219
f 221 284 219
f 282 283 285
f 282 283 285
f 285 284 282
f 285 284 282
f 286 285 283
f 286 285 283
f 287 219 284
f 287 219 284
f 284 285 287
f 284 285 287
f 219 287 211
f 219 287 211
f 285 286 288
f 285 286 288
f 288 287 285
f 288 287 285
f 289 288 286
f 289 288 286
f 290 211 287
f 290 211 287
f 287 288 290
f 287 288 290
f 211 290 209
f 211 290 209
f 288 289 291
f 288 289 291
f 291 290 288
f 291 290 288
f 292 291 289
f 292 291 289
f 293 209 290
f 293 209 290
f 290 291 293
f 290 291 293
f 209 293 201
f 209 293 201
f 291 292 294
f 291 292 294
f 294 293 291
f 294 293 291
f 295 294 292
f 295 294 292
f 296 201 293
f 296 201 293
f 293 294 296
f 293 294 296
f 201 296 199
f 201 296 199
f 294 295 297
f 294 295 297
f 297 296 294
f 297 296 294
f 298 297 295
f 298 297 295
f 299 199 296
f 299 199 296
f 296 297 299
f 296 297 299
f 199 299 190
f 199 299 190
f 297 298 300
f 297 298 300
f 300 299 297
f 300 299 297
f 301 300 298
f 301 300 298
f 302 190 299
f 302 190 299
f 299 300 302
f 299 300 302
f 190 302 187
f 190 302 187
f 300 301 303
f 300 301 303
f 303 302 300
f 303 302 300
f 304 303 301
f 304 303 301
f 305 187 302
f 305 187 302
f 302 303 305
f 302 303 305
f 187 305 188
f 187 305 188
f 303 304 306
f 303 304 306
f 306 305 303
f 306 305 303
f 307 306 304
f 307 306 304
f 308 188 305
f 308 188 305
f 305 306 308
f 305 306 308
f 188 308 309
f 188 308 309
f 306 307 310
f 306 307 310
f 310 308 306
f 310 308 306
f 311 310 307
f 311 310 307
f 312 309 308
f 312 309 308
f 308 310 312
f 308 310 312
f 309 312 313
f 309 312 313
f 310 311 314
f 310 311 314
f 314 312 310
f 314 312 310
f 315 314 311
f 315 314 311
f 316 313 312
f 316 313 312
f 312 314 316
f 312 314 316
f 313 316 317
f 313 316 317
f 314 315 318
f 314 315 318
f 318 316 314
f 318 316 314
f 228 318 315
f 228 318 315
f 319 317 316
f 319 317 316
f 316 318 319
f 316 318 319
f 317 319 320
f 317 319 320
f 242 320 319
f 242 320 319
f 318 228 239
f 318 228 239
f 319 239 242
f 319 239 242
f 239 319 318
f 239 319 318
f 321 322 323
f 321 322 323
f 324 323 322
f 324 323 322
f 323 325 321
f 323 325 321
f 322 326 324
f 322 326 324
f 325 323 327
f 325 323 327
f 328 327 323
f 323 324 328
f 328 327 323
f 323 324 328
f 327 329 325
f 327 329 325
f 326 322 330
f 326 322 330
f 322 321 331
f 322 321 331
f 331 330 322
f 331 330 322
f 332 321 325
f 332 321 325
f 333 331 321
f 321 332 333
f 333 331 321
f 321 332 333
f 334 325 329
f 325 334 332
f 334 325 329
f 325 334 332
f 335 332 334
f 335 332 334
f 336 333 332
f 332 335 336
f 336 333 332
f 332 335 336
f 331 333 337
f 331 333 337
f 338 337 333
f 333 336 338
f 338 337 333
f 333 336 338
f 337 339 331
f 337 339 331
f 330 331 339
f 330 331 339
f 337 338 340
f 337 338 340
f 340 341 337
f 339 337 341
f 340 341 337
f 339 337 341
f 342 340 338
f 342 340 338
f 343 338 336
f 338 343 342
f 343 338 336
f 338 343 342
f 336 344 343
f 336 344 343
f 344 336 335
f 344 336 335
f 345 343 344
f 345 343 344
f 346 342 343
f 343 345 346
f 346 342 343
f 343 345 346
f 340 342 347
f 340 342 347
f 348 347 342
f 342 346 348
f 348 347 342
f 342 346 348
f 347 349 340
f 347 349 340
f 341 340 349
f 341 340 349
f 347 348 350
f 347 348 350
f 350 351 347
f 349 347 351
f 350 351 347
f 349 347 351
f 352 350 348
f 352 350 348
f 353 348 346
f 348 353 352
f 353 348 346
f 348 353 352
f 346 354 353
f 346 354 353
f 354 346 345
f 354 346 345
f 355 353 354
f 355 353 354
f 356 352 353
f 353 355 356
f 356 352 353
f 353 355 356
f 357 180 181
f 357 180 181
f 358 179 180
f 180 357 358
f 358 179 180
f 180 357 358
f 177 179 359
f 177 179 359
f 360 359 179
f 179 358 360
f 360 359 179
f 179 358 360
f 359 361 177
f 359 361 177
f 178 177 361
f 178 177 361
f 359 360 362
f 359 360 362
f 362 363 359
f 361 359 363
f 362 363 359
f 361 359 363
f 364 362 360
f 364 362 360
f 365 360 358
f 360 365 364
f 365 360 358
f 360 365 364
f 358 366 365
f 358 366 365
f 366 358 357
f 366 358 357
f 367 365 366
f 367 365 366
f 368 364 365
f 365 367 368
f 368 364 365
f 365 367 368
f 362 364 369
f 362 364 369
f 370 369 364
f 364 368 370
f 370 369 364
f 364 368 370
f 369 371 362
f 369 371 362
f 363 362 371
f 363 362 371
f 369 370 372
f 369 370 372
f 372 373 369
f 371 369 373
f 372 373 369
f 371 369 373
f 374 372 370
f 374 372 370
f 375 370 368
f 370 375 374
f 375 370 368
f 370 375 374
f 368 376 375
f 368 376 375
f 376 368 367
f 376 368 367
f 326 375 376
f 326 375 376
f 377 374 375
f 375 326 377
f 377 374 375
f 375 326 377
f 376 324 326
f 376 324 326
f 324 376 378
f 324 376 378
f 367 378 376
f 367 378 376
f 378 328 324
f 378 328 324
f 330 377 326
f 330 377 326
f 378 367 379
f 378 367 379
f 366 379 367
f 366 379 367
f 328 378 380
f 379 380 378
f 328 378 380
f 379 380 378
f 380 381 328
f 380 381 328
f 327 328 381
f 327 328 381
f 379 366 382
f 379 366 382
f 357 382 366
f 357 382 366
f 380 379 383
f 382 383 379
f 380 379 383
f 382 383 379
f 381 380 384
f 381 380 384
f 383 384 380
f 383 384 380
f 381 385 327
f 381 385 327
f 329 327 385
f 329 327 385
f 385 381 386
f 385 381 386
f 384 386 381
f 384 386 381
f 382 357 387
f 382 357 387
f 181 387 357
f 181 387 357
f 387 388 382
f 387 388 382
f 383 382 388
f 383 382 388
f 387 181 389
f 387 181 389
f 172 389 181
f 172 389 181
f 388 387 390
f 388 387 390
f 389 390 387
f 389 390 387
f 388 391 383
f 388 391 383
f 384 383 391
f 384 383 391
f 391 388 392
f 391 388 392
f 390 392 388
f 390 392 388
f 391 393 384
f 391 393 384
f 386 384 393
f 386 384 393
f 393 391 394
f 393 391 394
f 392 394 391
f 392 394 391
f 393 395 386
f 393 395 386
f 394 396 393
f 395 393 396
f 394 396 393
f 395 393 396
f 397 386 395
f 397 386 395
f 386 397 385
f 386 397 385
f 398 385 397
f 398 385 397
f 385 398 329
f 385 398 329
f 399 329 398
f 399 329 398
f 329 399 334
f 329 399 334
f 400 334 399
f 400 334 399
f 334 400 335
f 334 400 335
f 401 335 400
f 401 335 400
f 335 401 344
f 335 401 344
f 402 344 401
f 402 344 401
f 344 402 345
f 344 402 345
f 403 345 402
f 403 345 402
f 345 403 354
f 345 403 354
f 404 354 403
f 404 354 403
f 354 404 355
f 354 404 355
f 405 355 404
f 405 355 404
f 355 405 406
f 355 405 406
f 407 406 405
f 407 406 405
f 406 407 408
f 406 407 408
f 409 408 407
f 409 408 407
f 408 409 410
f 408 409 410
f 411 410 409
f 411 410 409
f 410 411 412
f 410 411 412
f 413 412 411
f 413 412 411
f 412 413 414
f 412 413 414
f 415 414 413
f 415 414 413
f 414 415 416
f 414 415 416
f 417 416 415
f 417 416 415
f 416 417 139
f 416 417 139
f 418 139 417
f 418 139 417
f 139 418 137
f 139 418 137
f 419 137 418
f 419 137 418
f 137 419 151
f 137 419 151
f 420 151 419
f 420 151 419
f 151 420 152
f 151 420 152
f 421 152 420
f 421 152 420
f 152 421 161
f 152 421 161
f 422 161 421
f 422 161 421
f 161 422 162
f 161 422 162
f 423 162 422
f 423 162 422
f 162 423 171
f 162 423 171
f 424 171 423
f 424 171 423
f 171 424 172
f 171 424 172
f 389 172 424
f 389 172 424
f 424 425 389
f 424 425 389
f 390 389 425
f 390 389 425
f 423 426 424
f 423 426 424
f 425 424 426
f 425 424 426
f 422 427 423
f 422 427 423
f 426 423 427
f 426 423 427
f 427 422 428
f 427 422 428
f 421 428 422
f 421 428 422
f 425 429 390
f 425 429 390
f 392 390 429
f 392 390 429
f 426 430 425
f 426 430 425
f 429 425 430
f 429 425 430
f 427 431 426
f 427 431 426
f 430 426 431
f 430 426 431
f 428 432 427
f 428 432 427
f 431 427 432
f 431 427 432
f 429 433 392
f 429 433 392
f 394 392 433
f 394 392 433
f 430 434 429
f 430 434 429
f 433 429 434
f 433 429 434
f 431 435 430
f 431 435 430
f 434 430 435
f 434 430 435
f 432 436 431
f 432 436 431
f 435 431 436
f 435 431 436
f 433 437 394
f 433 437 394
f 396 394 437
f 396 394 437
f 434 438 433
f 434 438 433
f 437 433 438
f 437 433 438
f 435 439 434
f 435 439 434
f 438 434 439
f 438 434 439
f 436 440 435
f 436 440 435
f 439 435 440
f 439 435 440
f 440 436 441
f 440 436 441
f 442 441 436
f 442 441 436
f 436 432 442
f 436 432 442
f 443 442 432
f 443 442 432
f 432 428 443
f 432 428 443
f 444 443 428
f 444 443 428
f 428 421 444
f 428 421 444
f 420 444 421
f 420 444 421
f 444 420 445
f 444 420 445
f 419 445 420
f 419 445 420
f 443 444 446
f 445 446 444
f 443 444 446
f 445 446 444
f 442 443 447
f 446 447 443
f 442 443 447
f 446 447 443
f 447 448 442
f 447 448 442
f 441 442 448
f 441 442 448
f 445 419 449
f 445 419 449
f 418 449 419
f 418 449 419
f 446 445 450
f 449 450 445
f 446 445 450
f 449 450 445
f 447 446 451
f 450 451 446
f 447 446 451
f 450 451 446
f 451 452 447
f 451 452 447
f 448 447 452
f 448 447 452
f 449 418 453
f 449 418 453
f 417 453 418
f 417 453 418
f 450 449 454
f 453 454 449
f 450 449 454
f 453 454 449
f 451 450 455
f 454 455 450
f 451 450 455
f 454 455 450
f 455 456 451
f 455 456 451
f 452 451 456
f 452 451 456
f 453 417 457
f 453 417 457
f 415 457 417
f 415 457 417
f 454 453 458
f 457 458 453
f 454 453 458
f 457 458 453
f 455 454 459
f 458 459 454
f 455 454 459
f 458 459 454
f 459 460 455
f 459 460 455
f 456 455 460
f 456 455 460
f 457 415 461
f 457 415 461
f 413 461 415
f 413 461 415
f 458 457 462
f 461 462 457
f 458 457 462
f 461 462 457
f 459 458 463
f 462 463 458
f 459 458 463
f 462 463 458
f 463 464 459
f 463 464 459
f 460 459 464
f 460 459 464
f 461 413 465
f 461 413 465
f 411 465 413
f 411 465 413
f 462 461 466
f 465 466 461
f 462 461 466
f 465 466 461
f 463 462 467
f 466 467 462
f 463 462 467
f 466 467 462
f 467 468 463
f 467 468 463
f 464 463 468
f 464 463 468
f 465 411 469
f 465 411 469
f 409 469 411
f 409 469 411
f 466 465 470
f 469 470 465
f 466 465 470
f 469 470 465
f 467 466 471
f 470 471 466
f 467 466 471
f 470 471 466
f 471 472 467
f 471 472 467
f 468 467 472
f 468 467 472
f 469 409 473
f 469 409 473
f 407 473 409
f 407 473 409
f 470 469 474
f 473 474 469
f 470 469 474
f 473 474 469
f 471 470 475
f 474 475 470
f 471 470 475
f 474 475 470
f 475 476 471
f 475 476 471
f 472 471 476
f 472 471 476
f 473 407 477
f 473 407 477
f 405 477 407
f 405 477 407
f 474 473 478
f 477 478 473
f 474 473 478
f 477 478 473
f 475 474 479
f 478 479 474
f 475 474 479
f 478 479 474
f 479 480 475
f 479 480 475
f 476 475 480
f 476 475 480
f 477 405 481
f 477 405 481
f 404 481 405
f 404 481 405
f 478 477 482
f 481 482 477
f 478 477 482
f 481 482 477
f 479 478 483
f 482 483 478
f 479 478 483
f 482 483 478
f 483 484 479
f 483 484 479
f 480 479 484
f 480 479 484
f 481 404 485
f 481 404 485
f 403 485 404
f 403 485 404
f 482 481 486
f 485 486 481
f 482 481 486
f 485 486 481
f 483 482 487
f 486 487 482
f 483 482 487
f 486 487 482
f 487 488 483
f 487 488 483
f 484 483 488
f 484 483 488
f 485 403 489
f 485 403 489
f 402 489 403
f 402 489 403
f 486 485 490
f 489 490 485
f 486 485 490
f 489 490 485
f 487 486 491
f 490 491 486
f 487 486 491
f 490 491 486
f 491 492 487
f 491 492 487
f 488 487 492
f 488 487 492
f 489 402 493
f 489 402 493
f 401 493 402
f 401 493 402
f 490 489 494
f 493 494 489
f 490 489 494
f 493 494 489
f 491 490 495
f 494 495 490
f 491 490 495
f 494 495 490
f 495 496 491
f 495 496 491
f 492 491 496
f 492 491 496
f 493 401 497
f 493 401 497
f 400 497 401
f 400 497 401
f 494 493 498
f 497 498 493
f 494 493 498
f 497 498 493
f 495 494 499
f 498 499 494
f 495 494 499
f 498 499 494
f 499 500 495
f 499 500 495
f 496 495 500
f 496 495 500
f 497 400 501
f 497 400 501
f 399 501 400
f 399 501 400
f 498 497 502
f 501 502 497
f 498 497 502
f 501 502 497
f 499 498 503
f 502 503 498
f 499 498 503
f 502 503 498
f 503 504 499
f 503 504 499
f 500 499 504
f 500 499 504
f 501 399 505
f 501 399 505
f 398 505 399
f 398 505 399
f 502 501 506
f 505 506 501
f 502 501 506
f 505 506 501
f 503 502 507
f 506 507 502
f 503 502 507
f 506 507 502
f 507 508 503
f 507 508 503
f 504 503 508
f 504 503 508
f 505 398 509
f 505 398 509
f 397 509 398
f 397 509 398
f 506 505 510
f 509 510 505
f 506 505 510
f 509 510 505
f 507 506 511
f 510 511 506
f 507 506 511
f 510 511 506
f 511 512 507
f 511 512 507
f 508 507 512
f 508 507 512
f 509 397 513
f 509 397 513
f 395 513 397
f 395 513 397
f 510 509 514
f 513 514 509
f 510 509 514
f 513 514 509
f 511 510 515
f 514 515 510
f 511 510 515
f 514 515 510
f 515 516 511
f 515 516 511
f 512 511 516
f 512 511 516
f 513 395 517
f 513 395 517
f 396 517 395
f 396 517 395
f 514 513 518
f 517 518 513
f 514 513 518
f 517 518 513
f 515 514 519
f 518 519 514
f 515 514 519
f 518 519 514
f 519 520 515
f 519 520 515
f 516 515 520
f 516 515 520
f 517 396 521
f 517 396 521
f 437 521 396
f 437 521 396
f 518 517 522
f 521 522 517
f 518 517 522
f 521 522 517
f 519 518 523
f 522 523 518
f 519 518 523
f 522 523 518
f 523 524 519
f 523 524 519
f 520 519 524
f 520 519 524
f 521 437 525
f 521 437 525
f 438 525 437
f 438 525 437
f 522 521 526
f 525 526 521
f 522 521 526
f 525 526 521
f 523 522 527
f 526 527 522
f 523 522 527
f 526 527 522
f 527 528 523
f 527 528 523
f 524 523 528
f 524 523 528
f 525 438 529
f 525 438 529
f 439 529 438
f 439 529 438
f 526 525 530
f 529 530 525
f 526 525 530
f 529 530 525
f 527 526 531
f 530 531 526
f 527 526 531
f 530 531 526
f 531 532 527
f 531 532 527
f 528 527 532
f 528 527 532
f 529 439 533
f 529 439 533
f 440 533 439
f 440 533 439
f 530 529 534
f 533 534 529
f 530 529 534
f 533 534 529
f 531 530 535
f 534 535 530
f 531 530 535
f 534 535 530
f 536 537 538
f 536 537 538
f 539 540 537
f 537 536 539
f 539 540 537
f 537 536 539
f 541 540 542
f 541 540 542
f 543 542 540
f 540 539 543
f 543 542 540
f 540 539 543
f 542 245 541
f 542 245 541
f 250 541 245
f 250 541 245
f 542 543 544
f 542 543 544
f 544 241 542
f 245 542 241
f 544 241 542
f 245 542 241
f 545 544 543
f 545 544 543
f 546 543 539
f 543 546 545
f 546 543 539
f 543 546 545
f 539 547 546
f 539 547 546
f 547 539 536
f 547 539 536
f 548 546 547
f 548 546 547
f 549 545 546
f 546 548 549
f 549 545 546
f 546 548 549
f 544 545 550
f 544 545 550
f 551 550 545
f 545 549 551
f 551 550 545
f 545 549 551
f 550 237 544
f 550 237 544
f 241 544 237
f 241 544 237
f 550 551 236
f 550 551 236
f 236 235 550
f 237 550 235
f 236 235 550
f 237 550 235
f 238 236 551
f 238 236 551
f 552 551 549
f 551 552 238
f 552 551 549
f 551 552 238
f 549 553 552
f 549 553 552
f 553 549 548
f 553 549 548
f 554 552 553
f 554 552 553
f 242 238 552
f 552 554 242
f 242 238 552
f 552 554 242
f 553 555 554
f 553 555 554
f 555 553 556
f 555 553 556
f 548 556 553
f 548 556 553
f 556 557 555
f 556 557 555
f 320 242 554
f 320 242 554
f 556 548 558
f 556 548 558
f 547 558 548
f 547 558 548
f 557 556 559
f 558 559 556
f 557 556 559
f 558 559 556
f 559 560 557
f 559 560 557
f 561 557 560
f 561 557 560
f 558 547 562
f 558 547 562
f 536 562 547
f 536 562 547
f 559 558 563
f 562 563 558
f 559 558 563
f 562 563 558
f 560 559 564
f 560 559 564
f 563 564 559
f 563 564 559
f 560 565 561
f 560 565 561
f 566 561 565
f 566 561 565
f 565 560 567
f 565 560 567
f 564 567 560
f 564 567 560
f 562 536 568
f 562 536 568
f 538 568 536
f 538 568 536
f 568 569 562
f 568 569 562
f 563 562 569
f 563 562 569
f 568 538 570
f 568 538 570
f 571 570 538
f 571 570 538
f 569 568 572
f 569 568 572
f 570 572 568
f 570 572 568
f 569 573 563
f 569 573 563
f 564 563 573
f 564 563 573
f 573 569 574
f 573 569 574
f 572 574 569
f 572 574 569
f 573 575 564
f 573 575 564
f 567 564 575
f 567 564 575
f 575 573 576
f 575 573 576
f 574 576 573
f 574 576 573
f 575 577 567
f 575 577 567
f 576 578 575
f 577 575 578
f 576 578 575
f 577 575 578
f 579 567 577
f 579 567 577
f 567 579 565
f 567 579 565
f 580 565 579
f 580 565 579
f 565 580 566
f 565 580 566
f 581 566 580
f 581 566 580
f 566 581 582
f 566 581 582
f 583 582 581
f 583 582 581
f 582 583 584
f 582 583 584
f 585 584 583
f 585 584 583
f 584 585 586
f 584 585 586
f 587 586 585
f 587 586 585
f 586 587 588
f 586 587 588
f 589 588 587
f 589 588 587
f 588 589 590
f 588 589 590
f 591 590 589
f 591 590 589
f 590 591 194
f 590 591 194
f 592 194 591
f 592 194 591
f 194 592 193
f 194 592 193
f 593 193 592
f 593 193 592
f 193 593 195
f 193 593 195
f 594 195 593
f 594 195 593
f 195 594 204
f 195 594 204
f 595 204 594
f 595 204 594
f 204 595 205
f 204 595 205
f 596 205 595
f 596 205 595
f 205 596 214
f 205 596 214
f 597 214 596
f 597 214 596
f 214 597 215
f 214 597 215
f 598 215 597
f 598 215 597
f 215 598 224
f 215 598 224
f 599 224 598
f 599 224 598
f 224 599 600
f 224 599 600
f 601 600 599
f 601 600 599
f 600 601 602
f 600 601 602
f 603 602 601
f 603 602 601
f 602 603 604
f 602 603 604
f 605 604 603
f 605 604 603
f 604 605 606
f 604 605 606
f 607 606 605
f 607 606 605
f 606 607 608
f 606 607 608
f 609 608 607
f 609 608 607
f 608 609 610
f 608 609 610
f 611 610 609
f 611 610 609
f 610 611 571
f 610 611 571
f 570 571 611
f 570 571 611
f 611 612 570
f 611 612 570
f 572 570 612
f 572 570 612
f 609 613 611
f 609 613 611
f 612 611 613
f 612 611 613
f 607 614 609
f 607 614 609
f 613 609 614
f 613 609 614
f 614 607 615
f 614 607 615
f 605 615 607
f 605 615 607
f 612 616 572
f 612 616 572
f 574 572 616
f 574 572 616
f 613 617 612
f 613 617 612
f 616 612 617
f 616 612 617
f 614 618 613
f 614 618 613
f 617 613 618
f 617 613 618
f 615 619 614
f 615 619 614
f 618 614 619
f 618 614 619
f 616 620 574
f 616 620 574
f 576 574 620
f 576 574 620
f 617 621 616
f 617 621 616
f 620 616 621
f 620 616 621
f 618 622 617
f 618 622 617
f 621 617 622
f 621 617 622
f 619 623 618
f 619 623 618
f 622 618 623
f 622 618 623
f 620 624 576
f 620 624 576
f 578 576 624
f 578 576 624
f 621 625 620
f 621 625 620
f 624 620 625
f 624 620 625
f 622 626 621
f 622 626 621
f 625 621 626
f 625 621 626
f 623 230 622
f 623 230 622
f 626 622 230
f 626 622 230
f 230 623 232
f 230 623 232
f 627 232 623
f 627 232 623
f 623 619 627
f 623 619 627
f 628 627 619
f 628 627 619
f 619 615 628
f 619 615 628
f 629 628 615
f 629 628 615
f 615 605 629
f 615 605 629
f 603 629 605
f 603 629 605
f 629 603 630
f 629 603 630
f 601 630 603
f 601 630 603
f 628 629 631
f 630 631 629
f 628 629 631
f 630 631 629
f 627 628 632
f 631 632 628
f 627 628 632
f 631 632 628
f 632 246 627
f 632 246 627
f 232 627 246
f 232 627 246
f 630 601 633
f 630 601 633
f 599 633 601
f 599 633 601
f 631 630 634
f 633 634 630
f 631 630 634
f 633 634 630
f 632 631 635
f 634 635 631
f 632 631 635
f 634 635 631
f 635 248 632
f 635 248 632
f 246 632 248
f 246 632 248
f 633 599 636
f 633 599 636
f 598 636 599
f 598 636 599
f 634 633 637
f 636 637 633
f 634 633 637
f 636 637 633
f 635 634 638
f 637 638 634
f 635 634 638
f 637 638 634
f 638 252 635
f 638 252 635
f 248 635 252
f 248 635 252
f 636 598 639
f 636 598 639
f 597 639 598
f 597 639 598
f 637 636 640
f 639 640 636
f 637 636 640
f 639 640 636
f 638 637 641
f 640 641 637
f 638 637 641
f 640 641 637
f 641 256 638
f 641 256 638
f 252 638 256
f 252 638 256
f 639 597 642
f 639 597 642
f 596 642 597
f 596 642 597
f 640 639 643
f 642 643 639
f 640 639 643
f 642 643 639
f 641 640 644
f 643 644 640
f 641 640 644
f 643 644 640
f 644 260 641
f 644 260 641
f 256 641 260
f 256 641 260
f 642 596 645
f 642 596 645
f 595 645 596
f 595 645 596
f 643 642 646
f 645 646 642
f 643 642 646
f 645 646 642
f 644 643 647
f 646 647 643
f 644 643 647
f 646 647 643
f 647 264 644
f 647 264 644
f 260 644 264
f 260 644 264
f 645 595 648
f 645 595 648
f 594 648 595
f 594 648 595
f 646 645 649
f 648 649 645
f 646 645 649
f 648 649 645
f 647 646 650
f 649 650 646
f 647 646 650
f 649 650 646
f 650 268 647
f 650 268 647
f 264 647 268
f 264 647 268
f 648 594 651
f 648 594 651
f 593 651 594
f 593 651 594
f 649 648 652
f 651 652 648
f 649 648 652
f 651 652 648
f 650 649 653
f 652 653 649
f 650 649 653
f 652 653 649
f 653 272 650
f 653 272 650
f 268 650 272
f 268 650 272
f 651 593 654
f 651 593 654
f 592 654 593
f 592 654 593
f 652 651 655
f 654 655 651
f 652 651 655
f 654 655 651
f 653 652 656
f 655 656 652
f 653 652 656
f 655 656 652
f 656 276 653
f 656 276 653
f 272 653 276
f 272 653 276
f 654 592 657
f 654 592 657
f 591 657 592
f 591 657 592
f 655 654 658
f 657 658 654
f 655 654 658
f 657 658 654
f 656 655 659
f 658 659 655
f 656 655 659
f 658 659 655
f 659 280 656
f 659 280 656
f 276 656 280
f 276 656 280
f 657 591 660
f 657 591 660
f 589 660 591
f 589 660 591
f 658 657 661
f 660 661 657
f 658 657 661
f 660 661 657
f 659 658 662
f 661 662 658
f 659 658 662
f 661 662 658
f 662 283 659
f 662 283 659
f 280 659 283
f 280 659 283
f 660 589 663
f 660 589 663
f 587 663 589
f 587 663 589
f 661 660 664
f 663 664 660
f 661 660 664
f 663 664 660
f 662 661 665
f 664 665 661
f 662 661 665
f 664 665 661
f 665 286 662
f 665 286 662
f 283 662 286
f 283 662 286
f 663 587 666
f 663 587 666
f 585 666 587
f 585 666 587
f 664 663 667
f 666 667 663
f 664 663 667
f 666 667 663
f 665 664 668
f 667 668 664
f 665 664 668
f 667 668 664
f 668 289 665
f 668 289 665
f 286 665 289
f 286 665 289
f 666 585 669
f 666 585 669
f 583 669 585
f 583 669 585
f 667 666 670
f 669 670 666
f 667 666 670
f 669 670 666
f 668 667 671
f 670 671 667
f 668 667 671
f 670 671 667
f 671 292 668
f 671 292 668
f 289 668 292
f 289 668 292
f 669 583 672
f 669 583 672
f 581 672 583
f 581 672 583
f 670 669 673
f 672 673 669
f 670 669 673
f 672 673 669
f 671 670 674
f 673 674 670
f 671 670 674
f 673 674 670
f 674 295 671
f 674 295 671
f 292 671 295
f 292 671 295
f 672 581 675
f 672 581 675
f 580 675 581
f 580 675 581
f 673 672 676
f 675 676 672
f 673 672 676
f 675 676 672
f 674 673 677
f 676 677 673
f 674 673 677
f 676 677 673
f 677 298 674
f 677 298 674
f 295 674 298
f 295 674 298
f 675 580 678
f 675 580 678
f 579 678 580
f 579 678 580
f 676 675 679
f 678 679 675
f 676 675 679
f 678 679 675
f 677 676 680
f 679 680 676
f 677 676 680
f 679 680 676
f 680 301 677
f 680 301 677
f 298 677 301
f 298 677 301
f 678 579 681
f 678 579 681
f 577 681 579
f 577 681 579
f 679 678 682
f 681 682 678
f 679 678 682
f 681 682 678
f 680 679 683
f 682 683 679
f 680 679 683
f 682 683 679
f 683 304 680
f 683 304 680
f 301 680 304
f 301 680 304
f 681 577 684
f 681 577 684
f 578 684 577
f 578 684 577
f 682 681 685
f 684 685 681
f 682 681 685
f 684 685 681
f 683 682 686
f 685 686 682
f 683 682 686
f 685 686 682
f 686 307 683
f 686 307 683
f 304 683 307
f 304 683 307
f 684 578 687
f 684 578 687
f 624 687 578
f 624 687 578
f 685 684 688
f 687 688 684
f 685 684 688
f 687 688 684
f 686 685 689
f 688 689 685
f 686 685 689
f 688 689 685
f 689 311 686
f 689 311 686
f 307 686 311
f 307 686 311
f 687 624 690
f 687 624 690
f 625 690 624
f 625 690 624
f 688 687 691
f 690 691 687
f 688 687 691
f 690 691 687
f 689 688 692
f 691 692 688
f 689 688 692
f 691 692 688
f 692 315 689
f 692 315 689
f 311 689 315
f 311 689 315
f 690 625 693
f 690 625 693
f 626 693 625
f 626 693 625
f 691 690 694
f 693 694 690
f 691 690 694
f 693 694 690
f 692 691 227
f 694 227 691
f 692 691 227
f 694 227 691
f 227 228 692
f 227 228 692
f 315 692 228
f 315 692 228
f 693 626 229
f 693 626 229
f 230 229 626
f 230 229 626
f 694 693 233
f 229 233 693
f 694 693 233
f 229 233 693
f 227 694 225
f 233 225 694
f 227 694 225
f 233 225 694
f 695 696 697
f 695 696 697
f 555 697 696
f 555 697 696
f 697 698 695
f 697 698 695
f 696 554 555
f 696 554 555
f 698 697 561
f 698 697 561
f 557 561 697
f 697 555 557
f 557 561 697
f 697 555 557
f 561 566 698
f 561 566 698
f 554 696 320
f 554 696 320
f 696 695 699
f 696 695 699
f 699 320 696
f 699 320 696
f 700 695 698
f 700 695 698
f 701 699 695
f 695 700 701
f 701 699 695
f 695 700 701
f 582 698 566
f 698 582 700
f 582 698 566
f 698 582 700
f 584 700 582
f 584 700 582
f 702 701 700
f 700 584 702
f 702 701 700
f 700 584 702
f 699 701 703
f 699 701 703
f 704 703 701
f 701 702 704
f 704 703 701
f 701 702 704
f 703 317 699
f 703 317 699
f 320 699 317
f 320 699 317
f 703 704 705
f 703 704 705
f 705 313 703
f 317 703 313
f 705 313 703
f 317 703 313
f 706 705 704
f 706 705 704
f 707 704 702
f 704 707 706
f 707 704 702
f 704 707 706
f 702 586 707
f 702 586 707
f 586 702 584
f 586 702 584
f 588 707 586
f 588 707 586
f 708 706 707
f 707 588 708
f 708 706 707
f 707 588 708
f 705 706 709
f 705 706 709
f 710 709 706
f 706 708 710
f 710 709 706
f 706 708 710
f 709 309 705
f 709 309 705
f 313 705 309
f 313 705 309
f 709 710 182
f 709 710 182
f 182 188 709
f 309 709 188
f 182 188 709
f 309 709 188
f 183 182 710
f 183 182 710
f 711 710 708
f 710 711 183
f 711 710 708
f 710 711 183
f 708 590 711
f 708 590 711
f 590 708 588
f 590 708 588
f 194 711 590
f 194 711 590
f 186 183 711
f 711 194 186
f 186 183 711
f 711 194 186
f 30 32 712
f 30 32 712
f 713 712 32
f 32 36 713
f 713 712 32
f 32 36 713
f 712 122 30
f 712 122 30
f 31 30 122
f 31 30 122
f 712 713 714
f 712 713 714
f 714 118 712
f 122 712 118
f 714 118 712
f 122 712 118
f 715 714 713
f 715 714 713
f 716 713 36
f 713 716 715
f 716 713 36
f 713 716 715
f 36 717 716
f 36 717 716
f 717 36 35
f 717 36 35
f 718 716 717
f 718 716 717
f 719 715 716
f 716 718 719
f 719 715 716
f 716 718 719
f 714 715 720
f 714 715 720
f 721 720 715
f 715 719 721
f 721 720 715
f 715 719 721
f 720 114 714
f 720 114 714
f 118 714 114
f 118 714 114
f 720 721 722
f 720 721 722
f 722 110 720
f 114 720 110
f 722 110 720
f 114 720 110
f 723 722 721
f 723 722 721
f 724 721 719
f 721 724 723
f 724 721 719
f 721 724 723
f 719 725 724
f 719 725 724
f 725 719 718
f 725 719 718
f 726 724 725
f 726 724 725
f 727 723 724
f 724 726 727
f 727 723 724
f 724 726 727
f 722 723 728
f 722 723 728
f 729 728 723
f 723 727 729
f 729 728 723
f 723 727 729
f 728 106 722
f 728 106 722
f 110 722 106
f 110 722 106
f 728 729 730
f 728 729 730
f 730 102 728
f 106 728 102
f 730 102 728
f 106 728 102
f 731 730 729
f 731 730 729
f 732 729 727
f 729 732 731
f 732 729 727
f 729 732 731
f 727 733 732
f 727 733 732
f 733 727 726
f 733 727 726
f 734 732 733
f 734 732 733
f 735 731 732
f 732 734 735
f 735 731 732
f 732 734 735
f 730 731 736
f 730 731 736
f 737 736 731
f 731 735 737
f 737 736 731
f 731 735 737
f 736 98 730
f 736 98 730
f 102 730 98
f 102 730 98
f 736 737 738
f 736 737 738
f 738 94 736
f 98 736 94
f 738 94 736
f 98 736 94
f 739 738 737
f 739 738 737
f 740 737 735
f 737 740 739
f 740 737 735
f 737 740 739
f 735 741 740
f 735 741 740
f 741 735 734
f 741 735 734
f 350 352 742
f 350 352 742
f 743 742 352
f 352 356 743
f 743 742 352
f 352 356 743
f 742 744 350
f 742 744 350
f 351 350 744
f 351 350 744
f 742 743 745
f 742 743 745
f 745 746 742
f 744 742 746
f 745 746 742
f 744 742 746
f 747 745 743
f 747 745 743
f 748 743 356
f 743 748 747
f 748 743 356
f 743 748 747
f 356 406 748
f 356 406 748
f 406 356 355
f 406 356 355
f 408 748 406
f 408 748 406
f 749 747 748
f 748 408 749
f 749 747 748
f 748 408 749
f 745 747 750
f 745 747 750
f 751 750 747
f 747 749 751
f 751 750 747
f 747 749 751
f 750 752 745
f 750 752 745
f 746 745 752
f 746 745 752
f 750 751 753
f 750 751 753
f 753 754 750
f 752 750 754
f 753 754 750
f 752 750 754
f 755 753 751
f 755 753 751
f 756 751 749
f 751 756 755
f 756 751 749
f 751 756 755
f 749 410 756
f 749 410 756
f 410 749 408
f 410 749 408
f 412 756 410
f 412 756 410
f 757 755 756
f 756 412 757
f 757 755 756
f 756 412 757
f 753 755 758
f 753 755 758
f 759 758 755
f 755 757 759
f 759 758 755
f 755 757 759
f 758 760 753
f 758 760 753
f 754 753 760
f 754 753 760
f 758 759 761
f 758 759 761
f 761 762 758
f 760 758 762
f 761 762 758
f 760 758 762
f 763 761 759
f 763 761 759
f 764 759 757
f 759 764 763
f 764 759 757
f 759 764 763
f 757 414 764
f 757 414 764
f 414 757 412
f 414 757 412
f 416 764 414
f 416 764 414
f 765 763 764
f 764 416 765
f 765 763 764
f 764 416 765
f 761 763 766
f 761 763 766
f 767 766 763
f 763 765 767
f 767 766 763
f 763 765 767
f 766 768 761
f 766 768 761
f 762 761 768
f 762 761 768
f 766 767 142
f 766 767 142
f 142 146 766
f 768 766 146
f 142 146 766
f 768 766 146
f 141 142 767
f 141 142 767
f 138 767 765
f 767 138 141
f 138 767 765
f 767 138 141
f 765 139 138
f 765 139 138
f 139 765 416
f 139 765 416
f 769 770 771
f 769 770 771
f 772 773 770
f 770 769 772
f 772 773 770
f 770 769 772
f 774 773 775
f 774 773 775
f 776 775 773
f 773 772 776
f 776 775 773
f 773 772 776
f 775 57 774
f 775 57 774
f 62 774 57
f 62 774 57
f 775 776 777
f 775 776 777
f 777 53 775
f 57 775 53
f 777 53 775
f 57 775 53
f 778 777 776
f 778 777 776
f 779 776 772
f 776 779 778
f 779 776 772
f 776 779 778
f 772 780 779
f 772 780 779
f 780 772 769
f 780 772 769
f 781 779 780
f 781 779 780
f 782 778 779
f 779 781 782
f 782 778 779
f 779 781 782
f 777 778 783
f 777 778 783
f 784 783 778
f 778 782 784
f 784 783 778
f 778 782 784
f 783 49 777
f 783 49 777
f 53 777 49
f 53 777 49
f 783 784 48
f 783 784 48
f 48 47 783
f 49 783 47
f 48 47 783
f 49 783 47
f 50 48 784
f 50 48 784
f 785 784 782
f 784 785 50
f 785 784 782
f 784 785 50
f 782 786 785
f 782 786 785
f 786 782 781
f 786 782 781
f 6 785 786
f 6 785 786
f 54 50 785
f 785 6 54
f 54 50 785
f 785 6 54
f 786 4 6
f 786 4 6
f 4 786 787
f 4 786 787
f 781 787 786
f 781 787 786
f 787 8 4
f 787 8 4
f 10 54 6
f 10 54 6
f 787 781 788
f 787 781 788
f 780 788 781
f 780 788 781
f 8 787 789
f 788 789 787
f 8 787 789
f 788 789 787
f 789 790 8
f 789 790 8
f 7 8 790
f 7 8 790
f 788 780 791
f 788 780 791
f 769 791 780
f 769 791 780
f 789 788 792
f 791 792 788
f 789 788 792
f 791 792 788
f 790 789 793
f 790 789 793
f 792 793 789
f 792 793 789
f 790 794 7
f 790 794 7
f 9 7 794
f 9 7 794
f 794 790 795
f 794 790 795
f 793 795 790
f 793 795 790
f 791 769 796
f 791 769 796
f 771 796 769
f 771 796 769
f 796 797 791
f 796 797 791
f 792 791 797
f 792 791 797
f 796 771 798
f 796 771 798
f 799 798 771
f 799 798 771
f 797 796 800
f 797 796 800
f 798 800 796
f 798 800 796
f 797 801 792
f 797 801 792
f 793 792 801
f 793 792 801
f 801 797 802
f 801 797 802
f 800 802 797
f 800 802 797
f 801 803 793
f 801 803 793
f 795 793 803
f 795 793 803
f 803 801 804
f 803 801 804
f 802 804 801
f 802 804 801
f 803 805 795
f 803 805 795
f 804 806 803
f 805 803 806
f 804 806 803
f 805 803 806
f 807 795 805
f 807 795 805
f 795 807 794
f 795 807 794
f 808 794 807
f 808 794 807
f 794 808 9
f 794 808 9
f 809 9 808
f 809 9 808
f 9 809 14
f 9 809 14
f 810 14 809
f 810 14 809
f 14 810 15
f 14 810 15
f 811 15 810
f 811 15 810
f 15 811 24
f 15 811 24
f 812 24 811
f 812 24 811
f 24 812 25
f 24 812 25
f 813 25 812
f 813 25 812
f 25 813 34
f 25 813 34
f 814 34 813
f 814 34 813
f 34 814 35
f 34 814 35
f 815 35 814
f 815 35 814
f 35 815 717
f 35 815 717
f 816 717 815
f 816 717 815
f 717 816 718
f 717 816 718
f 817 718 816
f 817 718 816
f 718 817 725
f 718 817 725
f 818 725 817
f 818 725 817
f 725 818 726
f 725 818 726
f 819 726 818
f 819 726 818
f 726 819 733
f 726 819 733
f 820 733 819
f 820 733 819
f 733 820 734
f 733 820 734
f 821 734 820
f 821 734 820
f 734 821 741
f 734 821 741
f 822 741 821
f 822 741 821
f 741 822 823
f 741 822 823
f 824 823 822
f 824 823 822
f 823 824 825
f 823 824 825
f 826 825 824
f 826 825 824
f 825 826 827
f 825 826 827
f 828 827 826
f 828 827 826
f 827 828 829
f 827 828 829
f 830 829 828
f 830 829 828
f 829 830 831
f 829 830 831
f 832 831 830
f 832 831 830
f 831 832 833
f 831 832 833
f 834 833 832
f 834 833 832
f 833 834 799
f 833 834 799
f 798 799 834
f 798 799 834
f 834 835 798
f 834 835 798
f 800 798 835
f 800 798 835
f 832 836 834
f 832 836 834
f 835 834 836
f 835 834 836
f 830 837 832
f 830 837 832
f 836 832 837
f 836 832 837
f 837 830 838
f 837 830 838
f 828 838 830
f 828 838 830
f 835 839 800
f 835 839 800
f 802 800 839
f 802 800 839
f 836 840 835
f 836 840 835
f 839 835 840
f 839 835 840
f 837 841 836
f 837 841 836
f 840 836 841
f 840 836 841
f 838 842 837
f 838 842 837
f 841 837 842
f 841 837 842
f 839 843 802
f 839 843 802
f 804 802 843
f 804 802 843
f 840 844 839
f 840 844 839
f 843 839 844
f 843 839 844
f 841 845 840
f 841 845 840
f 844 840 845
f 844 840 845
f 842 846 841
f 842 846 841
f 845 841 846
f 845 841 846
f 843 847 804
f 843 847 804
f 806 804 847
f 806 804 847
f 844 848 843
f 844 848 843
f 847 843 848
f 847 843 848
f 845 849 844
f 845 849 844
f 848 844 849
f 848 844 849
f 846 42 845
f 846 42 845
f 849 845 42
f 849 845 42
f 42 846 44
f 42 846 44
f 850 44 846
f 850 44 846
f 846 842 850
f 846 842 850
f 851 850 842
f 851 850 842
f 842 838 851
f 842 838 851
f 852 851 838
f 852 851 838
f 838 828 852
f 838 828 852
f 826 852 828
f 826 852 828
f 852 826 853
f 852 826 853
f 824 853 826
f 824 853 826
f 851 852 854
f 853 854 852
f 851 852 854
f 853 854 852
f 850 851 855
f 854 855 851
f 850 851 855
f 854 855 851
f 855 58 850
f 855 58 850
f 44 850 58
f 44 850 58
f 853 824 856
f 853 824 856
f 822 856 824
f 822 856 824
f 854 853 857
f 856 857 853
f 854 853 857
f 856 857 853
f 855 854 858
f 857 858 854
f 855 854 858
f 857 858 854
f 858 60 855
f 858 60 855
f 58 855 60
f 58 855 60
f 856 822 859
f 856 822 859
f 821 859 822
f 821 859 822
f 857 856 860
f 859 860 856
f 857 856 860
f 859 860 856
f 858 857 861
f 860 861 857
f 858 857 861
f 860 861 857
f 861 64 858
f 861 64 858
f 60 858 64
f 60 858 64
f 859 821 862
f 859 821 862
f 820 862 821
f 820 862 821
f 860 859 863
f 862 863 859
f 860 859 863
f 862 863 859
f 861 860 864
f 863 864 860
f 861 860 864
f 863 864 860
f 864 68 861
f 864 68 861
f 64 861 68
f 64 861 68
f 862 820 865
f 862 820 865
f 819 865 820
f 819 865 820
f 863 862 866
f 865 866 862
f 863 862 866
f 865 866 862
f 864 863 867
f 866 867 863
f 864 863 867
f 866 867 863
f 867 72 864
f 867 72 864
f 68 864 72
f 68 864 72
f 865 819 868
f 865 819 868
f 818 868 819
f 818 868 819
f 866 865 869
f 868 869 865
f 866 865 869
f 868 869 865
f 867 866 870
f 869 870 866
f 867 866 870
f 869 870 866
f 870 76 867
f 870 76 867
f 72 867 76
f 72 867 76
f 868 818 871
f 868 818 871
f 817 871 818
f 817 871 818
f 869 868 872
f 871 872 868
f 869 868 872
f 871 872 868
f 870 869 873
f 872 873 869
f 870 869 873
f 872 873 869
f 873 80 870
f 873 80 870
f 76 870 80
f 76 870 80
f 871 817 874
f 871 817 874
f 816 874 817
f 816 874 817
f 872 871 875
f 874 875 871
f 872 871 875
f 874 875 871
f 873 872 876
f 875 876 872
f 873 872 876
f 875 876 872
f 876 84 873
f 876 84 873
f 80 873 84
f 80 873 84
f 874 816 877
f 874 816 877
f 815 877 816
f 815 877 816
f 875 874 878
f 877 878 874
f 875 874 878
f 877 878 874
f 876 875 879
f 878 879 875
f 876 875 879
f 878 879 875
f 879 88 876
f 879 88 876
f 84 876 88
f 84 876 88
f 877 815 880
f 877 815 880
f 814 880 815
f 814 880 815
f 878 877 881
f 880 881 877
f 878 877 881
f 880 881 877
f 879 878 882
f 881 882 878
f 879 878 882
f 881 882 878
f 882 92 879
f 882 92 879
f 88 879 92
f 88 879 92
f 880 814 883
f 880 814 883
f 813 883 814
f 813 883 814
f 881 880 884
f 883 884 880
f 881 880 884
f 883 884 880
f 882 881 885
f 884 885 881
f 882 881 885
f 884 885 881
f 885 96 882
f 885 96 882
f 92 882 96
f 92 882 96
f 883 813 886
f 883 813 886
f 812 886 813
f 812 886 813
f 884 883 887
f 886 887 883
f 884 883 887
f 886 887 883
f 885 884 888
f 887 888 884
f 885 884 888
f 887 888 884
f 888 100 885
f 888 100 885
f 96 885 100
f 96 885 100
f 886 812 889
f 886 812 889
f 811 889 812
f 811 889 812
f 887 886 890
f 889 890 886
f 887 886 890
f 889 890 886
f 888 887 891
f 890 891 887
f 888 887 891
f 890 891 887
f 891 104 888
f 891 104 888
f 100 888 104
f 100 888 104
f 889 811 892
f 889 811 892
f 810 892 811
f 810 892 811
f 890 889 893
f 892 893 889
f 890 889 893
f 892 893 889
f 891 890 894
f 893 894 890
f 891 890 894
f 893 894 890
f 894 108 891
f 894 108 891
f 104 891 108
f 104 891 108
f 892 810 895
f 892 810 895
f 809 895 810
f 809 895 810
f 893 892 896
f 895 896 892
f 893 892 896
f 895 896 892
f 894 893 897
f 896 897 893
f 894 893 897
f 896 897 893
f 897 112 894
f 897 112 894
f 108 894 112
f 108 894 112
f 895 809 898
f 895 809 898
f 808 898 809
f 808 898 809
f 896 895 899
f 898 899 895
f 896 895 899
f 898 899 895
f 897 896 900
f 899 900 896
f 897 896 900
f 899 900 896
f 900 116 897
f 900 116 897
f 112 897 116
f 112 897 116
f 898 808 901
f 898 808 901
f 807 901 808
f 807 901 808
f 899 898 902
f 901 902 898
f 899 898 902
f 901 902 898
f 900 899 903
f 902 903 899
f 900 899 903
f 902 903 899
f 903 120 900
f 903 120 900
f 116 900 120
f 116 900 120
f 901 807 904
f 901 807 904
f 805 904 807
f 805 904 807
f 902 901 905
f 904 905 901
f 902 901 905
f 904 905 901
f 903 902 906
f 905 906 902
f 903 902 906
f 905 906 902
f 906 124 903
f 906 124 903
f 120 903 124
f 120 903 124
f 904 805 907
f 904 805 907
f 806 907 805
f 806 907 805
f 905 904 908
f 907 908 904
f 905 904 908
f 907 908 904
f 906 905 909
f 908 909 905
f 906 905 909
f 908 909 905
f 909 127 906
f 909 127 906
f 124 906 127
f 124 906 127
f 907 806 910
f 907 806 910
f 847 910 806
f 847 910 806
f 908 907 911
f 910 911 907
f 908 907 911
f 910 911 907
f 909 908 912
f 911 912 908
f 909 908 912
f 911 912 908
f 912 130 909
f 912 130 909
f 127 909 130
f 127 909 130
f 910 847 913
f 910 847 913
f 848 913 847
f 848 913 847
f 911 910 914
f 913 914 910
f 911 910 914
f 913 914 910
f 912 911 915
f 914 915 911
f 912 911 915
f 914 915 911
f 915 133 912
f 915 133 912
f 130 912 133
f 130 912 133
f 913 848 916
f 913 848 916
f 849 916 848
f 849 916 848
f 914 913 917
f 916 917 913
f 914 913 917
f 916 917 913
f 915 914 39
f 917 39 914
f 915 914 39
f 917 39 914
f 39 40 915
f 39 40 915
f 133 915 40
f 133 915 40
f 916 849 41
f 916 849 41
f 42 41 849
f 42 41 849
f 917 916 45
f 41 45 916
f 917 916 45
f 41 45 916
f 39 917 37
f 45 37 917
f 39 917 37
f 45 37 917
f 823 740 741
f 823 740 741
f 918 739 740
f 740 823 918
f 918 739 740
f 740 823 918
f 738 739 919
f 738 739 919
f 920 919 739
f 739 918 920
f 920 919 739
f 739 918 920
f 919 90 738
f 919 90 738
f 94 738 90
f 94 738 90
f 919 920 921
f 919 920 921
f 921 86 919
f 90 919 86
f 921 86 919
f 90 919 86
f 922 921 920
f 922 921 920
f 923 920 918
f 920 923 922
f 923 920 918
f 920 923 922
f 918 825 923
f 918 825 923
f 825 918 823
f 825 918 823
f 827 923 825
f 827 923 825
f 924 922 923
f 923 827 924
f 924 922 923
f 923 827 924
f 921 922 925
f 921 922 925
f 926 925 922
f 922 924 926
f 926 925 922
f 922 924 926
f 925 82 921
f 925 82 921
f 86 921 82
f 86 921 82
f 925 926 927
f 925 926 927
f 927 78 925
f 82 925 78
f 927 78 925
f 82 925 78
f 928 927 926
f 928 927 926
f 929 926 924
f 926 929 928
f 929 926 924
f 926 929 928
f 924 829 929
f 924 829 929
f 829 924 827
f 829 924 827
f 831 929 829
f 831 929 829
f 930 928 929
f 929 831 930
f 930 928 929
f 929 831 930
f 927 928 931
f 927 928 931
f 932 931 928
f 928 930 932
f 932 931 928
f 928 930 932
f 931 74 927
f 931 74 927
f 78 927 74
f 78 927 74
f 931 932 933
f 931 932 933
f 933 70 931
f 74 931 70
f 933 70 931
f 74 931 70
f 934 933 932
f 934 933 932
f 935 932 930
f 932 935 934
f 935 932 930
f 932 935 934
f 930 833 935
f 930 833 935
f 833 930 831
f 833 930 831
f 799 935 833
f 799 935 833
f 936 934 935
f 935 799 936
f 936 934 935
f 935 799 936
f 933 934 937
f 933 934 937
f 938 937 934
f 934 936 938
f 938 937 934
f 934 936 938
f 937 66 933
f 937 66 933
f 70 933 66
f 70 933 66
f 937 938 774
f 937 938 774
f 774 62 937
f 66 937 62
f 774 62 937
f 66 937 62
f 773 774 938
f 773 774 938
f 770 938 936
f 938 770 773
f 770 938 936
f 938 770 773
f 936 771 770
f 936 771 770
f 771 936 799
f 771 936 799
f 600 223 224
f 600 223 224
f 939 222 223
f 223 600 939
f 939 222 223
f 223 600 939
f 220 222 940
f 220 222 940
f 941 940 222
f 222 939 941
f 941 940 222
f 222 939 941
f 940 278 220
f 940 278 220
f 221 220 278
f 221 220 278
f 940 941 942
f 940 941 942
f 942 274 940
f 278 940 274
f 942 274 940
f 278 940 274
f 943 942 941
f 943 942 941
f 944 941 939
f 941 944 943
f 944 941 939
f 941 944 943
f 939 602 944
f 939 602 944
f 602 939 600
f 602 939 600
f 604 944 602
f 604 944 602
f 945 943 944
f 944 604 945
f 945 943 944
f 944 604 945
f 942 943 946
f 942 943 946
f 947 946 943
f 943 945 947
f 947 946 943
f 943 945 947
f 946 270 942
f 946 270 942
f 274 942 270
f 274 942 270
f 946 947 948
f 946 947 948
f 948 266 946
f 270 946 266
f 948 266 946
f 270 946 266
f 949 948 947
f 949 948 947
f 950 947 945
f 947 950 949
f 950 947 945
f 947 950 949
f 945 606 950
f 945 606 950
f 606 945 604
f 606 945 604
f 608 950 606
f 608 950 606
f 951 949 950
f 950 608 951
f 951 949 950
f 950 608 951
f 948 949 952
f 948 949 952
f 953 952 949
f 949 951 953
f 953 952 949
f 949 951 953
f 952 262 948
f 952 262 948
f 266 948 262
f 266 948 262
f 952 953 954
f 952 953 954
f 954 258 952
f 262 952 258
f 954 258 952
f 262 952 258
f 955 954 953
f 955 954 953
f 956 953 951
f 953 956 955
f 956 953 951
f 953 956 955
f 951 610 956
f 951 610 956
f 610 951 608
f 610 951 608
f 571 956 610
f 571 956 610
f 957 955 956
f 956 571 957
f 957 955 956
f 956 571 957
f 954 955 958
f 954 955 958
f 959 958 955
f 955 957 959
f 959 958 955
f 955 957 959
f 958 254 954
f 958 254 954
f 258 954 254
f 258 954 254
f 958 959 541
f 958 959 541
f 541 250 958
f 254 958 250
f 541 250 958
f 254 958 250
f 540 541 959
f 540 541 959
f 537 959 957
f 959 537 540
f 537 959 957
f 959 537 540
f 957 538 537
f 957 538 537
f 538 957 571
f 538 957 571
f 535 960 531
f 535 960 531
f 532 531 960
f 532 531 960
f 533 440 961
f 533 440 961
f 441 961 440
f 441 961 440
f 534 533 962
f 961 962 533
f 534 533 962
f 961 962 533
f 535 534 373
f 962 373 534
f 535 534 373
f 962 373 534
f 373 372 535
f 373 372 535
f 960 535 372
f 960 535 372
f 373 962 371
f 373 962 371
f 372 374 960
f 372 374 960
f 963 960 374
f 963 960 374
f 960 963 532
f 960 963 532
f 964 371 962
f 964 371 962
f 962 961 964
f 962 961 964
f 371 964 363
f 371 964 363
f 374 377 963
f 374 377 963
f 965 964 961
f 965 964 961
f 961 441 965
f 961 441 965
f 966 363 964
f 966 363 964
f 964 965 966
f 964 965 966
f 363 966 361
f 363 966 361
f 448 965 441
f 448 965 441
f 965 448 967
f 965 448 967
f 967 966 965
f 967 966 965
f 452 967 448
f 452 967 448
f 968 361 966
f 968 361 966
f 966 967 968
f 966 967 968
f 361 968 178
f 361 968 178
f 967 452 969
f 967 452 969
f 969 968 967
f 969 968 967
f 456 969 452
f 456 969 452
f 970 178 968
f 970 178 968
f 968 969 970
f 968 969 970
f 178 970 176
f 178 970 176
f 969 456 971
f 969 456 971
f 971 970 969
f 971 970 969
f 460 971 456
f 460 971 456
f 972 176 970
f 972 176 970
f 970 971 972
f 970 971 972
f 176 972 168
f 176 972 168
f 971 460 973
f 971 460 973
f 973 972 971
f 973 972 971
f 464 973 460
f 464 973 460
f 974 168 972
f 974 168 972
f 972 973 974
f 972 973 974
f 168 974 166
f 168 974 166
f 973 464 975
f 973 464 975
f 975 974 973
f 975 974 973
f 468 975 464
f 468 975 464
f 976 166 974
f 976 166 974
f 974 975 976
f 974 975 976
f 166 976 158
f 166 976 158
f 975 468 977
f 975 468 977
f 977 976 975
f 977 976 975
f 472 977 468
f 472 977 468
f 978 158 976
f 978 158 976
f 976 977 978
f 976 977 978
f 158 978 156
f 158 978 156
f 977 472 979
f 977 472 979
f 979 978 977
f 979 978 977
f 476 979 472
f 476 979 472
f 980 156 978
f 980 156 978
f 978 979 980
f 978 979 980
f 156 980 148
f 156 980 148
f 979 476 981
f 979 476 981
f 981 980 979
f 981 980 979
f 480 981 476
f 480 981 476
f 982 148 980
f 982 148 980
f 980 981 982
f 980 981 982
f 148 982 145
f 148 982 145
f 981 480 983
f 981 480 983
f 983 982 981
f 983 982 981
f 484 983 480
f 484 983 480
f 984 145 982
f 984 145 982
f 982 983 984
f 982 983 984
f 145 984 146
f 145 984 146
f 983 484 985
f 983 484 985
f 985 984 983
f 985 984 983
f 488 985 484
f 488 985 484
f 986 146 984
f 986 146 984
f 984 985 986
f 984 985 986
f 146 986 768
f 146 986 768
f 985 488 987
f 985 488 987
f 987 986 985
f 987 986 985
f 492 987 488
f 492 987 488
f 988 768 986
f 988 768 986
f 986 987 988
f 986 987 988
f 768 988 762
f 768 988 762
f 987 492 989
f 987 492 989
f 989 988 987
f 989 988 987
f 496 989 492
f 496 989 492
f 990 762 988
f 990 762 988
f 988 989 990
f 988 989 990
f 762 990 760
f 762 990 760
f 989 496 991
f 989 496 991
f 991 990 989
f 991 990 989
f 500 991 496
f 500 991 496
f 992 760 990
f 992 760 990
f 990 991 992
f 990 991 992
f 760 992 754
f 760 992 754
f 991 500 993
f 991 500 993
f 993 992 991
f 993 992 991
f 504 993 500
f 504 993 500
f 994 754 992
f 994 754 992
f 992 993 994
f 992 993 994
f 754 994 752
f 754 994 752
f 993 504 995
f 993 504 995
f 995 994 993
f 995 994 993
f 508 995 504
f 508 995 504
f 996 752 994
f 996 752 994
f 994 995 996
f 994 995 996
f 752 996 746
f 752 996 746
f 995 508 997
f 995 508 997
f 997 996 995
f 997 996 995
f 512 997 508
f 512 997 508
f 998 746 996
f 998 746 996
f 996 997 998
f 996 997 998
f 746 998 744
f 746 998 744
f 997 512 999
f 997 512 999
f 999 998 997
f 999 998 997
f 516 999 512
f 516 999 512
f 1000 744 998
f 1000 744 998
f 998 999 1000
f 998 999 1000
f 744 1000 351
f 744 1000 351
f 999 516 1001
f 999 516 1001
f 1001 1000 999
f 1001 1000 999
f 520 1001 516
f 520 1001 516
f 1002 351 1000
f 1002 351 1000
f 1000 1001 1002
f 1000 1001 1002
f 351 1002 349
f 351 1002 349
f 1001 520 1003
f 1001 520 1003
f 1003 1002 1001
f 1003 1002 1001
f 524 1003 520
f 524 1003 520
f 1004 349 1002
f 1004 349 1002
f 1002 1003 1004
f 1002 1003 1004
f 349 1004 341
f 349 1004 341
f 1003 524 1005
f 1003 524 1005
f 1005 1004 1003
f 1005 1004 1003
f 528 1005 524
f 528 1005 524
f 1006 341 1004
f 1006 341 1004
f 1004 1005 1006
f 1004 1005 1006
f 341 1006 339
f 341 1006 339
f 1005 528 1007
f 1005 528 1007
f 1007 1006 1005
f 1007 1006 1005
f 532 1007 528
f 532 1007 528
f 1008 339 1006
f 1008 339 1006
f 1006 1007 1008
f 1006 1007 1008
f 339 1008 330
f 339 1008 330
f 377 330 1008
f 377 330 1008
f 1007 532 963
f 1007 532 963
f 1008 963 377
f 1008 963 377
f 963 1008 1007
f 963 1008 1007
