v 0.174090192 -0.000687960302 0.0680454373
v 0.174191073 -0.0145853199 0.0680154562
v 0.173482522 -0.0145897307 0.0676882863
v 0.173600301 -0.0309253372 0.0676519275
v 0.174592122 -0.000607196009 0.0687015057
v 0.174693182 -0.0145207085 0.0686722994
v 0.174729422 -0.000529590761 0.0692279339
v 0.17403613 0.0108844601 0.0687205791
v 0.174173817 0.0109693967 0.0692508221
v 0.172667727 0.0200678073 0.0692662001
v 0.174308851 -0.0309209265 0.0679790974
v 0.173733369 -0.0493787564 0.0676109195
v 0.174441919 -0.0493744053 0.0679380894
v 0.17481105 -0.030868534 0.0686360002
v 0.174944207 -0.0493372716 0.0685949326
v 0.175090209 -0.0695918202 0.0685498714
v 0.174587801 -0.0696118474 0.0678930879
v 0.174948201 -0.0308141746 0.0691613555
v 0.17541115 -0.114117861 0.0684508681
v 0.174908474 -0.1141029 0.0677941442
v 0.17507042 -0.13657254 0.0677441955
v 0.174830273 -0.014452938 0.0691977143
v 0.174744561 -0.0307670869 0.0699326396
v 0.174626544 -0.014393691 0.0699691176
v 0.174525753 -0.000468555605 0.0699991584
v 0.173971251 0.011010047 0.0700215101
v 0.172474787 0.0200507008 0.0700369477
v 0.169642761 0.0267742239 0.0692782402
v 0.169500276 0.0266476236 0.0700529218
v 0.164542571 0.0308959447 0.0692993999
v 0.164528981 0.0306655727 0.0700777769
v 0.15363349 0.0328329168 0.0693234205
v 0.153718755 0.0325809084 0.0700985193
v 0.133084461 0.0333303176 0.0693315268
v 0.13318415 0.0330768786 0.0701067448
v 0.0987131745 0.0330828391 0.0693327188
v 0.0987938195 0.0328292213 0.0701079369
v 0.046435792 0.0327060185 0.0693327188
v 0.0987993032 0.0320695005 0.0707339048
v 0.133176818 0.032317277 0.0707338452
v 0.153639778 0.031826552 0.0707322955
v 0.164209679 0.0299879275 0.0707278848
v 0.168908074 0.0261921845 0.0707192421
v 0.17175658 0.0198300444 0.0707048774
v 0.17322211 0.0109268986 0.0706849098
v 0.173771545 -0.000491801417 0.070659399
v 0.1738718 -0.0144005455 0.070628345
v 0.173989818 -0.030774001 0.070591867
v 0.174877867 -0.049267713 0.0698915124
v 0.174123183 -0.0492746271 0.0705507398
v 0.175081447 -0.0492994823 0.0691202283
v 0.175024137 -0.0695579052 0.0698463917
v 0.174269453 -0.0695648193 0.0705055594
v 0.175227597 -0.0695725679 0.0690751076
v 0.175180867 -0.0913001299 0.0697980523
v 0.174426153 -0.091307044 0.0704572201
v 0.175548807 -0.114136636 0.0689760447
v 0.174590901 -0.114163876 0.0704064369
v 0.175573215 -0.136603594 0.0684008598
v 0.175345615 -0.114156961 0.0697472095
v 0.175710991 -0.136639833 0.0689259768
v 0.175507918 -0.136676252 0.0696971416
v 0.174753204 -0.136683166 0.070356369
v 0.175657347 -0.157405913 0.0696510673
v 0.174902603 -0.157412827 0.0703102946
v 0.175860301 -0.157355309 0.068879962
v 0.175722376 -0.157303512 0.068354845
v 0.175783381 -0.174893916 0.069612205
v 0.175028667 -0.17490083 0.070271492
v 0.175219491 -0.157258272 0.0676981807
v 0.175848231 -0.174767017 0.0683159828
v 0.175345227 -0.174709976 0.0676593781
v 0.175875172 -0.187708974 0.0695825815
v 0.175986245 -0.17483151 0.0688410997
v 0.175120875 -0.187695026 0.0702431202
v 0.175463274 -0.196716845 0.0695584416
v 0.176077917 -0.187646151 0.0688117146
v 0.175939485 -0.187570989 0.068285346
v 0.175436422 -0.187495112 0.0676298141
v 0.174718007 -0.196612775 0.0702234507
v 0.175525025 -0.196601391 0.0682561398
v 0.175024703 -0.196474791 0.0676046014
v 0.174033597 -0.202790618 0.0695413351
v 0.175664112 -0.196686029 0.068787694
v 0.173358902 -0.202471077 0.0702105761
v 0.171055898 -0.20666337 0.0695384145
v 0.174210295 -0.202854156 0.0687676072
v 0.17407079 -0.202765226 0.0682289004
v 0.173598811 -0.202522814 0.0675809383
v 0.170582309 -0.206087291 0.0702027678
v 0.170997426 -0.20676142 0.0682296157
v 0.170629933 -0.206382155 0.0675765276
v 0.166140422 -0.208999395 0.069549799
v 0.171139821 -0.206845582 0.0687621236
v 0.165927067 -0.208278537 0.0701981187
v 0.155432299 -0.210187852 0.069560349
v 0.166103795 -0.209239542 0.0687731504
v 0.165966019 -0.20915544 0.0682611465
v 0.165736571 -0.208708227 0.0675933957
v 0.155378744 -0.209433436 0.0701958537
v 0.155215546 -0.210350931 0.0682848096
v 0.155072317 -0.209893048 0.0676069856
v 0.134935662 -0.210697174 0.0695635676
v 0.155336216 -0.210436285 0.0687843561
v -0.176626727 -0.207993805 0.0544534922
v -0.156784698 -0.208181381 0.0544191599
v -0.158124134 -0.209641457 0.0583905578
v -0.123398051 -0.20794034 0.0544178486
v -0.178182587 -0.209434092 0.058393538
v -0.124423727 -0.209398091 0.0583888888
v -0.188539192 -0.208451807 0.058398366
v -0.0731411427 -0.209028125 0.0583878756
v -0.186797962 -0.207074404 0.0545532107
v -0.0725926012 -0.20757395 0.0544170141
v -0.191235229 -0.205090284 0.054623425
v -0.0130778374 -0.207144856 0.0544167757
v -0.0130674066 -0.208595037 0.0583875179
v -0.193134293 -0.206370413 0.0584056973
v 0.0470063277 -0.208162129 0.0583878756
v -0.195908055 -0.20286566 0.0584161282
v -0.193875358 -0.201708615 0.0545693636
v 0.0464368649 -0.206716001 0.0544170141
v -0.195199952 -0.196111798 0.0544881821
v 0.0972423106 -0.206350029 0.0544178486
v 0.0982889384 -0.207792819 0.0583888888
v -0.197324023 -0.197143018 0.0584312677
v 0.131989345 -0.207550406 0.0583905578
v -0.197845802 -0.188407898 0.0584527254
v -0.195690677 -0.187482119 0.0544770956
v 0.130629018 -0.206109762 0.0544191599
v -0.195780799 -0.175056696 0.0545060039
v 0.150466248 -0.205636144 0.0544534922
v 0.152042702 -0.2070539 0.058393538
v -0.199012384 0.0240312181 0.0687400103
v -0.201940462 0.017278906 0.0687292814
v -0.2020794 0.017366644 0.0692662001
v -0.199007139 0.0239914618 0.0700529218
v -0.201886281 0.0173523389 0.0700369477
v -0.201164946 0.0171420537 0.0707048774
v -0.202501997 0.00821876153 0.0706849098
v -0.203315303 0.00816458091 0.0687205791
v -0.202813789 0.0080565773 0.0680674314
v -0.203454182 0.00824749097 0.0692508221
v -0.203252241 0.00829106197 0.0700215101
v -0.202886745 -0.00320667378 0.070659399
v -0.203641221 -0.00319433562 0.0699991584
v -0.203843996 -0.0032582914 0.0692279339
v -0.203744099 -0.0171816386 0.0691977143
v -0.203606114 -0.0172474422 0.0686722994
v -0.203626201 -0.0335428752 0.0691613555
v -0.203705594 -0.00333392969 0.0687015057
v -0.203202531 -0.00340742222 0.0680454373
v -0.202110574 0.00799518451 0.0677446127
v -0.202494547 -0.00341523043 0.0677192211
v -0.20310311 -0.0173047818 0.0680154562
v -0.20239453 -0.0172990002 0.0676882863
v -0.202985391 -0.0336403884 0.0679790974
v -0.202276871 -0.0336345471 0.0676519275
v -0.203488275 -0.0335952677 0.0686360002
v -0.203355178 -0.0520640053 0.0685949326
v -0.202852413 -0.0520938672 0.0679380894
v -0.202143893 -0.052088026 0.0676109195
v -0.203209206 -0.0723185539 0.0685498714
v -0.20270656 -0.0723313093 0.0678930879
v -0.20199804 -0.0723254681 0.067565918
v -0.202888295 -0.116844594 0.0684508681
v -0.202385888 -0.116822362 0.0677941442
v -0.201677367 -0.116816521 0.0674669743
v -0.202223882 -0.139292002 0.0677441955
v -0.201515362 -0.13928616 0.0674170256
v -0.202074751 -0.159977734 0.0676981807
v -0.201366231 -0.159971893 0.0673710108
v 0.134922996 -0.209940493 0.0701951385
v 0.100550905 -0.21094507 0.0695642829
v 0.134837613 -0.210946023 0.0687873363
v 0.13473402 -0.21086061 0.068290472
v 0.134624645 -0.210401893 0.0676098466
v 0.100545451 -0.21018827 0.0701952577
v 0.100394741 -0.211108327 0.0682914853
v 0.100312695 -0.210649371 0.067610383
v 0.0482372232 -0.211322188 0.0695642829
v 0.100473955 -0.21119386 0.068787992
v 0.0482317396 -0.210565329 0.0701953173
v -0.013044578 -0.211763859 0.0695642829
v 0.0481965132 -0.211570621 0.068787992
v 0.0481534787 -0.211484849 0.0682914853
v 0.0481077023 -0.211025596 0.067610383
v -0.013050002 -0.211006999 0.0701953173
v -0.0130433859 -0.211925924 0.0682914853
v -0.0130467238 -0.211466372 0.067610383
v -0.0742011517 -0.211907208 0.067610383
v -0.0743263811 -0.212205589 0.0695642829
v -0.0743318051 -0.211448729 0.0701953173
v -0.0130427899 -0.212012053 0.068787992
v -0.0742820948 -0.212453425 0.068787992
v -0.126640067 -0.212582648 0.0695642829
v -0.126645491 -0.211825788 0.0701952577
v -0.161024794 -0.212830424 0.0695635676
v -0.161023065 -0.212073624 0.0701951385
v -0.126559541 -0.212830245 0.068787992
v -0.181526646 -0.212616563 0.069560349
v -0.181483969 -0.211861491 0.0701958537
v -0.160923168 -0.213077843 0.0687873363
v -0.192250773 -0.211582601 0.069549799
v -0.192047879 -0.210858762 0.0701981187
v -0.181426987 -0.212863624 0.0687843561
v -0.197199449 -0.209317684 0.0695384145
v -0.196734235 -0.20873487 0.0702027678
v -0.192210719 -0.211822271 0.0687731504
v -0.20023267 -0.205488265 0.0695413351
v -0.199562654 -0.205159068 0.0702105761
v -0.19728075 -0.209501088 0.0687621236
v -0.201749727 -0.199435711 0.0695584416
v -0.20100604 -0.199320912 0.0702234507
v -0.200408444 -0.205554307 0.0687676072
v -0.202291414 -0.190434694 0.0695825815
v -0.201537415 -0.190409958 0.0702431202
v -0.201951012 -0.199407816 0.068787694
v -0.202384397 -0.177619696 0.069612205
v -0.201629624 -0.177615702 0.070271492
v -0.202495083 -0.190374851 0.0688117146
v -0.202510461 -0.160131693 0.0696510673
v -0.201755688 -0.160127699 0.0703102946
v -0.202588126 -0.17756021 0.0688410997
v -0.20265983 -0.139402032 0.0696971416
v -0.201905116 -0.139398038 0.070356369
v -0.20271413 -0.160084009 0.068879962
v -0.202822194 -0.116882741 0.0697472095
v -0.202067479 -0.116878748 0.0704064369
v -0.20286344 -0.139368534 0.0689259768
v -0.203143641 -0.0722836852 0.0698463917
v -0.202388927 -0.0722796917 0.0705055594
v -0.202451035 -0.177493691 0.0683159828
v -0.203289852 -0.051993493 0.0698915124
v -0.202535138 -0.0519894995 0.0705507398
v -0.203423247 -0.0334928669 0.0699326396
v -0.202668473 -0.033488933 0.070591867
v -0.203492984 -0.0520281829 0.0691202283
v -0.203541264 -0.0171194114 0.0699691176
v -0.20278649 -0.0171154775 0.070628345
v -0.203346893 -0.0723012686 0.0690751076
v -0.203025684 -0.116865337 0.0689760447
v -0.20272617 -0.139330328 0.0684008598
v -0.20257692 -0.160030246 0.068354845
v -0.201948926 -0.177429438 0.0676593781
v -0.201855823 -0.190214574 0.0676298141
v -0.202357754 -0.190297723 0.068285346
v -0.201314673 -0.199187338 0.0676046014
v -0.201813146 -0.19932121 0.0682561398
v -0.199801788 -0.205214202 0.0675809383
v -0.200270221 -0.205463409 0.0682289004
v -0.196777567 -0.20903033 0.0675765276
v -0.197139546 -0.209414899 0.0682296157
v -0.191851184 -0.211285651 0.0675933957
v -0.192074165 -0.211736143 0.0682611465
v -0.181170925 -0.212316632 0.0676069856
v -0.181307599 -0.212776542 0.0682848096
v -0.160718068 -0.212530673 0.0676098466
v -0.160820827 -0.21299094 0.068290472
v -0.126406118 -0.212283552 0.067610383
v -0.126481578 -0.21274358 0.0682914853
v -0.074240312 -0.212366998 0.0682914853
v -0.014802915 0.0321832858 0.0688370466
v -0.0148035111 0.0322645865 0.0693327188
v -0.0148016633 0.0320104323 0.0701079965
v -0.0760427564 0.0318232141 0.0693327188
v 0.0464801379 0.0324521028 0.0701079965
v 0.0464856215 0.0316923819 0.0707339644
v -0.0147961797 0.0312507115 0.070734024
v -0.0760779828 0.0308089815 0.0707339644
v -0.0760834664 0.0315687023 0.0701079965
v -0.128391668 0.0304319225 0.0707339048
v -0.128397152 0.0311916433 0.0701079369
v -0.162769184 0.030184146 0.0707338452
v -0.128320143 0.0314463936 0.0693327188
v -0.162787482 0.0309435688 0.0701067448
v -0.183222935 0.0293984972 0.0707322955
v -0.162691459 0.0311983787 0.0693315268
v -0.128241166 0.0313656889 0.0688370466
v -0.0759998411 0.0317422114 0.0688370466
v -0.183312818 0.0301516019 0.0700985193
v -0.193765268 0.0274077021 0.0707278848
v -0.18323116 0.0304048024 0.0693234205
v -0.0759540647 0.0312885009 0.0681527257
v -0.0147996368 0.0317292772 0.0681527257
v -0.0759488791 0.030568298 0.0677929521
v -0.128159091 0.0309122764 0.0681527257
v -0.128153905 0.0301920138 0.0677929521
v -0.162475511 0.0306645595 0.0681517124
v -0.162460014 0.0299448334 0.0677929521
v -0.162587687 0.0311177336 0.0688353181
v -0.182947323 0.0298725925 0.0681435466
v -0.182871327 0.0291598402 0.0677915215
v -0.183108315 0.0303241573 0.0688222647
v -0.193679616 0.0278068148 0.0681138635
v -0.193391845 0.0271703564 0.06778723
v -0.198579773 0.0237245522 0.0680895448
v -0.19802545 0.0233095847 0.0677786469
v -0.193970248 0.0282321535 0.0687795877
v -0.194111213 0.0283108316 0.0692993999
v -0.201451048 0.0170988403 0.0680804849
v -0.200776264 0.0169106685 0.067764461
v -0.194094285 0.0280806981 0.0700777769
v -0.19840847 0.0235446058 0.0707192421
v -0.199151441 0.0241159759 0.0692782402
v 0.0986353606 0.0330009423 0.0688370466
v 0.0463940687 0.0326244198 0.0688370466
v 0.0463547893 0.0321701132 0.0681527257
v 0.0985597819 0.0325463973 0.0681527257
v 0.0985649973 0.0318261944 0.0677929521
v 0.0463599749 0.0314498506 0.0677929521
v 0.132871136 0.032073494 0.0677929521
v -0.0147944512 0.0310090743 0.0677929521
v 0.132876262 0.0327933989 0.0681517124
v 0.153291658 0.0315828882 0.0677915215
v 0.132981852 0.0332481824 0.0688353181
v 0.153357372 0.0322965942 0.0681435466
v 0.163839713 0.0297452174 0.06778723
v 0.153511837 0.0327504836 0.0688222647
v 0.164118305 0.0303857885 0.0681138635
v 0.168528512 0.0259516202 0.0677787066
v 0.164402768 0.03081524 0.0687795877
v 0.169076815 0.0263745151 0.0680895448
v 0.171371296 0.0195929967 0.067764461
v 0.169504955 0.0266874395 0.0687400103
v 0.172043309 0.0197909437 0.0680804849
v 0.172833934 0.0106977187 0.0677446127
v 0.17253007 0.0199780427 0.0687292814
v 0.173536226 0.0107692443 0.0680674314
v 0.173382357 -0.000705960905 0.0677192211
v -0.0571572594 -0.0438516177 0.0765052438
v -0.0570764951 -0.0445095934 0.0765038133
v -0.05701093 -0.0444943346 0.0767538548
v -0.0567852072 -0.0451111235 0.0767524242
v -0.0570902638 -0.0438478626 0.0767552853
v -0.0568455271 -0.0451406278 0.0765023828
v -0.0568318777 -0.0444515385 0.0769369602
v -0.0566204004 -0.0450294055 0.0769356489
v -0.0569073372 -0.0438364185 0.0769382715
v -0.0570109896 -0.0444932021 0.0762538314
v -0.0570902638 -0.0438467301 0.0762552619
v -0.0574424677 -0.00427729264 0.0765932798
v -0.057375472 -0.00428009406 0.0763432384
v -0.057375472 -0.00428122655 0.0768432617
v -0.0573712401 -0.00361824385 0.0765947104
v -0.0573054962 -0.00363254896 0.0763446689
v -0.0571924262 -0.00428891554 0.0761601925
v -0.0571257882 -0.0036727821 0.0761615634
v -0.0569073372 -0.0438344516 0.0760722756
v -0.0568803363 -0.00372809521 0.0760944486
v -0.0569423251 -0.00430137292 0.0760931969
v -0.0566959195 -0.00320071331 0.0760956407
v -0.0569226556 -0.00309187523 0.0761628747
v -0.0551312976 -0.0458269753 0.0760678053
v -0.0555506162 -0.0455644764 0.0760684013
v -0.0554364733 -0.0454204716 0.0762517452
v -0.0550515465 -0.0456613936 0.0762512088
v -0.0546574406 -0.0459927358 0.0760674477
v -0.0557587557 -0.0451027788 0.0762524605
v -0.0559015684 -0.0452185906 0.0760691762
v -0.055706542 -0.0457616486 0.0760009885
v -0.0560965948 -0.0453771986 0.0760018229
v -0.0558624677 -0.0459591784 0.0760675073
v -0.0561700873 -0.0448030867 0.0760701299
v -0.0560052805 -0.0447213687 0.0762532949
v -0.0557064824 -0.0450608172 0.0765025616
v -0.0559449606 -0.0446918048 0.076503396
v -0.0553946905 -0.0453681387 0.0765018463
v -0.0560052805 -0.0447224416 0.0767533183
v -0.0557587557 -0.0451039113 0.0767524242
v -0.0561635308 -0.0442898907 0.076754272
v -0.0560980253 -0.0442734994 0.0765042901
v -0.0561635904 -0.0442887582 0.0762542486
v -0.0561576895 -0.0437867679 0.076505363
v -0.0562246256 -0.0437916555 0.0767554045
v -0.0563426428 -0.0443335213 0.0769371986
v -0.0564075522 -0.043803934 0.0769383907
v -0.0561700873 -0.044804994 0.0769361258
v -0.0566574745 -0.0438203253 0.0770053267
v -0.0565872602 -0.0443926491 0.0770040751
v -0.0569422655 -0.00430363789 0.077093184
v -0.056692224 -0.00431609526 0.0770261884
v -0.0565091185 -0.00432491675 0.0768431425
v -0.0566348843 -0.0037856733 0.0770273209
v -0.0568803363 -0.00373030058 0.0770944357
v -0.0571923666 -0.0042908825 0.077026248
v -0.0571257882 -0.00367468945 0.0770276189
v -0.0573054962 -0.00363368145 0.0768446922
v -0.0563952141 -0.0449173488 0.077002883
v -0.0571493916 -0.00298393122 0.0765961409
v -0.0570886545 -0.00301254145 0.0763460398
v -0.0570886545 -0.00301367394 0.0768460631
v -0.056745749 -0.00246489397 0.0763472915
v -0.0566013269 -0.00257861963 0.0761640072
v -0.0567986183 -0.00242364756 0.0765973926
v -0.0569226556 -0.00309384218 0.0770288706
v -0.056745749 -0.00246596686 0.0768472552
v -0.0566959195 -0.00320291868 0.0770956278
v -0.0566013269 -0.00258052698 0.0770300031
v -0.0564039759 -0.00273663155 0.0770966411
v -0.0564691834 -0.00331169716 0.0770283937
v -0.0564552359 -0.00382584683 0.0768442154
v -0.0564421229 -0.00432771817 0.076593101
v -0.0562246852 -0.0437905826 0.0762553811
v -0.0563426428 -0.0443315543 0.0760711432
v -0.0563952737 -0.0449151434 0.0760028958
v -0.0562916808 -0.0455361046 0.0760684609
v -0.0559766106 -0.0461040176 0.0762502551
v -0.0554288439 -0.0464469232 0.0762494802
v -0.0554580502 -0.0465082563 0.0764993429
v -0.0548236184 -0.0467301048 0.0764988065
v -0.0548087768 -0.0466648974 0.0767489672
v -0.0541612916 -0.0467348732 0.0767487884
v -0.0541520528 -0.046552185 0.0769321918
v 0.026012199 -0.0459743775 0.0769321918
v 0.0259960461 -0.0457246341 0.0769997835
v 0.0265683699 -0.0456544198 0.0769999027
v 0.0265094806 -0.0454096235 0.0769334435
v 0.0269808341 -0.0452371277 0.0769338608
v 0.0268986989 -0.0450719036 0.0767511725
v 0.027280109 -0.0448254384 0.0767517686
v 0.0272375513 -0.0447725691 0.0765018463
v 0.0275449324 -0.0444607176 0.0765025616
v 0.0275978018 -0.044501964 0.0762524605
v 0.0278388429 -0.0441169776 0.0762532949
v 0.0280048419 -0.044196371 0.0760701299
v 0.0281705428 -0.0437223949 0.0760711432
v 0.0284159947 -0.0437777676 0.0760040283
v 0.0284779239 -0.0432044305 0.0760053396
v 0.028728025 -0.0432172455 0.0760722756
v 0.0284429956 -0.00367170922 0.0761601925
v 0.0286259223 -0.00366020552 0.0763432384
v 0.0285465885 -0.00301373354 0.0763446689
v 0.0286121536 -0.00299847475 0.0765947104
v 0.0283811856 -0.00236744038 0.0765961409
v 0.0283208657 -0.00239801756 0.0768460631
v 0.027970152 -0.00185537688 0.0768472552
v 0.0278273392 -0.00197196356 0.0770300031
v 0.0273981262 -0.00154888979 0.0770309567
v 0.0272422004 -0.00174641958 0.0770975351
v 0.0267758537 -0.00145447603 0.0770981908
v 0.026666956 -0.00168109289 0.0770307183
v 0.0261930991 -0.00151533238 0.077031076
v 0.0261525083 -0.00169462315 0.0768476725
v 0.0256534386 -0.00164068094 0.0768477917
v 0.0256500412 -0.00170714012 0.076597631
v -0.0544280224 -0.0022843515 0.076597631
v -0.0544323735 -0.00221681944 0.0763477683
v -0.0549306683 -0.00227797381 0.0763476491
v -0.0549738221 -0.00209844462 0.0761650205
v -0.0554451756 -0.00227094046 0.0761646628
v -0.0555574112 -0.00204569451 0.0760982037
v -0.0560194664 -0.00234431378 0.076097548
v -0.0561783127 -0.00214946619 0.0761649609
v -0.0562945418 -0.0020070707 0.0763483047
v -0.0556696467 -0.00182068697 0.0761656761
v -0.0550327115 -0.00185364834 0.0760986209
v -0.0544442348 -0.00203347555 0.0761651993
v -0.0563370995 -0.00195539347 0.0765984058
v -0.0557518415 -0.00165629736 0.0763490796
v -0.0550916605 -0.00160915009 0.076166153
v -0.0544603877 -0.00178343407 0.0760987401
v -0.0562945418 -0.00200820318 0.0768482685
v -0.0557818823 -0.0015965139 0.0765991807
v -0.0551348142 -0.00143045536 0.0763495564
v -0.0544765405 -0.00153369061 0.0761662722
v -0.0561782531 -0.00215137354 0.0770309567
v -0.0557517819 -0.00165737025 0.0768490434
v -0.0551506095 -0.0013654863 0.0765997171
v -0.0544884019 -0.00135118118 0.0763497353
v -0.054492753 -0.00128478161 0.0765998363
v -0.0551348142 -0.00143158785 0.0768495202
v -0.0556696467 -0.00182259432 0.077031672
v -0.0560194664 -0.00234651915 0.0770975351
v -0.056206625 -0.00289237848 0.0770293474
v -0.0563031845 -0.00339109055 0.0768452287
v -0.0563894324 -0.00384021155 0.0765942335
v -0.0565091185 -0.00432378426 0.0763431191
v -0.0564076118 -0.0438020267 0.0760723352
v -0.0565872602 -0.0443904437 0.0760040283
v -0.0566204004 -0.0450274982 0.0760695934
v -0.0564344935 -0.0456526913 0.0762512684
v -0.0560183935 -0.0461574234 0.0765001178
v -0.0554288439 -0.0464480557 0.076749444
v -0.0547681861 -0.0464856066 0.0769323707
v -0.0541395359 -0.0463022031 0.0769997835
v 0.0259798933 -0.0454745926 0.0769333243
v 0.0264663268 -0.0452300943 0.0767508745
v 0.0268685985 -0.0450109877 0.0765013099
v 0.0272800494 -0.0448243059 0.0762517452
v 0.0277422834 -0.0446156897 0.0760691762
v 0.0282315779 -0.0443051495 0.0760028958
v 0.0286614466 -0.0438333787 0.0760709047
v 0.0289111305 -0.0432268418 0.0762552619
v 0.0286929179 -0.00365645043 0.0765932798
v 0.0285466481 -0.00301486603 0.0768446922
v 0.0281560589 -0.00248056999 0.0770288706
v 0.0276322532 -0.00213086954 0.0770966411
v 0.0270862747 -0.00194359175 0.0770301223
v 0.026587205 -0.0018466746 0.0768473148
v 0.0261376668 -0.00175983063 0.0765975118
v 0.025653379 -0.00163960806 0.0763477683
v 0.0256626178 -0.00145608536 0.0761651993
v 0.0261525083 -0.00169355026 0.0763476491
v 0.0265580583 -0.00190687529 0.0765971541
v 0.0269721318 -0.00208765618 0.0768467784
v 0.0256751943 -0.00120586506 0.0760987401
v 0.0261930991 -0.00151342503 0.0761650205
v 0.026587205 -0.00184554211 0.0763472915
v 0.0269303489 -0.00213992945 0.0765966773
v 0.0256877113 -0.000955883181 0.0761662722
v 0.0262484718 -0.00126779429 0.0760986209
v 0.026666956 -0.00167912594 0.0761646628
v 0.0269721318 -0.00208652369 0.076346755
v 0.02569695 -0.000773194944 0.0763497353
v 0.0263038445 -0.00102246157 0.076166153
v 0.0267758537 -0.00145221106 0.0760982037
v 0.0270862747 -0.0019416248 0.0761640668
v 0.0272422004 -0.00174415461 0.076097548
v 0.026884811 -0.0012256538 0.0761656761
v 0.0263444353 -0.000843170797 0.0763495564
v 0.0257002879 -0.000706735766 0.0765998363
v -0.0544884019 -0.00135231367 0.076849699
v -0.0550916605 -0.00161111704 0.0770321488
v -0.0555574112 -0.00204789988 0.0770981908
v -0.0558606796 -0.00254142634 0.0770301223
v -0.0560621433 -0.00300610415 0.0768460631
v -0.0562424473 -0.00341970078 0.0765951276
v -0.0564552359 -0.00382477394 0.0763442516
v -0.056692224 -0.00431418791 0.0761601329
v -0.0566574745 -0.0438181199 0.0760053396
v -0.0568318777 -0.0444496311 0.0760709047
v -0.0567852072 -0.0451100506 0.0762524605
v -0.0564867668 -0.0456957854 0.0765011311
v -0.0559766106 -0.0461051501 0.0767502189
v -0.0553491525 -0.046282474 0.0769328475
v -0.0547128133 -0.0462402739 0.0769999027
v -0.0541269593 -0.0460519828 0.0769333243
v 0.025968032 -0.0452912487 0.0767506957
v 0.0264505316 -0.0451639928 0.0765010118
v 0.0268986989 -0.0450707711 0.0762512088
v 0.0273963381 -0.0449666418 0.0760684013
v 0.0279396344 -0.0447714962 0.0760018229
v 0.028458314 -0.044414226 0.0760695934
v 0.0288411546 -0.0438743867 0.0762538314
v 0.0289781261 -0.0432307757 0.0765052438
v 0.0286259223 -0.00366133801 0.0768432617
v 0.0283675361 -0.00305843703 0.0770276189
v 0.0279309321 -0.00259292475 0.0770956278
v 0.0274372268 -0.0022894775 0.0770293474
v 0.0272944141 -0.00240528933 0.0768460631
v 0.0277057458 -0.00270498148 0.0770283937
v 0.0281229187 -0.00311762444 0.0770944357
v 0.0284429956 -0.00367361656 0.077026248
v 0.0272421408 -0.002447251 0.076595962
v 0.0275409389 -0.00278675905 0.0768452287
v 0.0278783012 -0.00317651383 0.0770273209
v 0.028193133 -0.00368994824 0.077093184
v 0.0272943545 -0.00240415684 0.0763460398
v 0.027480619 -0.00281626335 0.0765951276
v 0.0276992489 -0.00321930996 0.0768442154
v 0.0279432703 -0.00370604149 0.0770261884
v 0.0274371672 -0.00228757015 0.0761632919
v 0.0275409389 -0.00278562657 0.0763452053
v 0.0276336838 -0.00323456875 0.0765942335
v 0.0277603436 -0.00371748558 0.0768431425
v 0.027693348 -0.00372130028 0.076593101
v 0.0276991893 -0.00321817747 0.0763442516
v 0.0277057458 -0.00270307413 0.0761623979
v 0.0276322532 -0.00212866417 0.0760966539
v 0.0273981262 -0.00154698244 0.0761649609
v 0.0269645024 -0.0010600125 0.0763490796
v 0.0263592768 -0.000777963316 0.0765997171
v 0.02569695 -0.000774327433 0.076849699
v -0.0544765405 -0.00153565756 0.0770323277
v -0.0550327115 -0.00185591332 0.077098608
v -0.0554451756 -0.00227290741 0.0770307183
v -0.0557443909 -0.00268376223 0.0768467784
v -0.056009274 -0.00304735056 0.076595962
v -0.0563031845 -0.00338995806 0.0763452053
v -0.0566348843 -0.00378376595 0.076161325
v -0.0564344935 -0.0456538238 0.0767512321
v -0.0558624677 -0.0459610857 0.0769335628
v -0.0562916808 -0.0455380119 0.0769345164
v -0.0560965948 -0.045379404 0.0770018697
v -0.055706542 -0.0457639135 0.0770009756
v -0.0552401952 -0.0460558571 0.07700032
v -0.0559015088 -0.045220498 0.0769352317
v -0.0555506162 -0.0455664434 0.0769344568
v -0.0554364733 -0.0454215445 0.0767517686
v -0.0551312976 -0.0458289422 0.0769338608
v -0.0546574406 -0.0459946431 0.0769334435
v -0.0550515465 -0.045662526 0.0767511725
v -0.0550223999 -0.0456011929 0.0765013099
v -0.0541177206 -0.0458685197 0.0767506957
v -0.0546168499 -0.0458145179 0.0767508745
v -0.0546020083 -0.0457482375 0.0765010118
v -0.0546168499 -0.045813445 0.0762508512
v 0.0259636808 -0.0452237166 0.0765008926
v -0.0541143827 -0.045800928 0.0765008926
v -0.0541177802 -0.0458673872 0.0762507319
v -0.0541269593 -0.0460500754 0.0760673285
v -0.0541395359 -0.0462999977 0.0759997368
v 0.0264663268 -0.0452290215 0.0762508512
v 0.025968032 -0.0452901162 0.0762507319
v 0.0259798933 -0.0454726852 0.0760673285
v 0.0259960461 -0.0457224287 0.0759997368
v 0.026012199 -0.0459724702 0.076066196
v 0.0269808341 -0.0452351607 0.0760678053
v 0.0265094806 -0.0454077162 0.0760674477
v 0.0265683699 -0.0456522144 0.0759999156
v 0.0266273189 -0.0458970107 0.0760663748
v 0.0266704727 -0.0460764803 0.0762489438
v 0.0275551248 -0.045161549 0.0760009885
v 0.0270930696 -0.0454601683 0.0760003328
v 0.0272053052 -0.0456854738 0.076066792
v 0.0272874404 -0.0458506979 0.0762494802
v 0.0273175407 -0.0459115542 0.0764993429
v 0.0281369854 -0.0449275412 0.0760684609
v 0.0277139116 -0.0453566946 0.0760675073
v 0.0278302003 -0.045499865 0.0762502551
v 0.027872758 -0.0455526747 0.0765001178
v 0.0278302003 -0.0455009975 0.0767502189
v 0.028624313 -0.0444943942 0.0762524605
v 0.0282814074 -0.0450421013 0.0762512684
v 0.0283342768 -0.0450844206 0.0765011311
v 0.0282814074 -0.0450431742 0.0767512321
v 0.0281369854 -0.0449294485 0.0769345164
v 0.0289068986 -0.0438898243 0.0765038133
v 0.0286850501 -0.0445241369 0.0765023828
v 0.028624313 -0.0444955267 0.0767524242
v 0.028458314 -0.0444161929 0.0769356489
v 0.0282315779 -0.0443073548 0.077002883
v 0.0289111305 -0.0432279743 0.0767552853
v 0.0288411546 -0.0438755192 0.0767538548
v 0.0287280846 -0.0432191528 0.0769382715
v 0.0286614466 -0.0438352861 0.0769369602
v 0.0284779835 -0.0432066955 0.0770053267
v 0.0284159947 -0.0437799729 0.0770040751
v 0.0282278825 -0.0431939401 0.0769383907
v 0.0281705428 -0.0437243618 0.0769371986
v 0.028044777 -0.0431842841 0.0767554045
v -0.197936878 -0.175865769 0.0584821701
v 0.162384108 -0.205922425 0.058398366
v -0.198060855 -0.158722043 0.0585212708
v -0.195903525 -0.158072591 0.0545445085
v 0.160623178 -0.204570234 0.0545532107
v -0.196048781 -0.137947381 0.0545896292
v 0.165031448 -0.202522397 0.054623425
v 0.166948691 -0.203774989 0.0584056973
v -0.198207542 -0.138405502 0.0585668683
v 0.16967164 -0.200230658 0.0584161282
v -0.198366627 -0.11634481 0.0586161017
v 0.167622492 -0.199102998 0.0545693636
v 0.168866262 -0.193487644 0.0544881821
v 0.171004966 -0.194488168 0.0584312677
v -0.196206316 -0.116098642 0.0546383262
v 0.171400771 -0.185746491 0.0584527254
v -0.196365997 -0.0939440131 0.0546875596
v 0.169232532 -0.184851825 0.0544770956
v -0.198527858 -0.0939688087 0.0586658716
v -0.198681101 -0.0727061629 0.0587131381
v -0.196517691 -0.0729010105 0.0547343493
v 0.169143513 -0.172426403 0.0545060039
v -0.196659073 -0.0532755889 0.0547779202
v 0.171311036 -0.173204303 0.0584821701
v -0.198824033 -0.0528723635 0.0587570667
v 0.171187893 -0.156060576 0.0585212708
v -0.19895421 -0.0347825922 0.058796823
v -0.196787938 -0.0353736915 0.0548173189
v 0.169021443 -0.155442297 0.0545445085
v -0.196902022 -0.019501213 0.0548518896
v 0.168876544 -0.135317087 0.0545896292
v 0.171041653 -0.135743976 0.0585668683
v -0.199069306 -0.018752221 0.0588315725
v 0.170882717 -0.113683343 0.0586161017
v -0.199167058 -0.00509667769 0.0588603616
v -0.196999058 -0.00596416369 0.0548807383
v -0.196911022 -0.0031530892 0.0548946261
v -0.199005052 -0.000272635138 0.0588701963
v 0.168719098 -0.113468349 0.0546383262
v 0.168559447 -0.0913136601 0.0546875596
v 0.170721427 -0.0913072824 0.0586658716
v 0.170568183 -0.0700446963 0.0587131381
v 0.168407783 -0.0702706575 0.0547343493
v 0.168266222 -0.0506452359 0.0547779202
v 0.170425192 -0.0502108373 0.0587570667
v 0.170294568 -0.032121066 0.058796823
v 0.168137059 -0.0327433385 0.0548173189
v 0.16802232 -0.0168709196 0.0548518896
v 0.170178607 -0.0160907544 0.0588315725
v 0.170079514 -0.00243521086 0.0588603616
v 0.16792424 -0.00333381048 0.0548807383
v 0.167795911 -0.000524464762 0.0548945069
v 0.169847891 0.00238597044 0.0588702559
v 0.0270930696 -0.0454623736 0.07700032
v 0.0266273189 -0.0458989181 0.0769323707
v 0.0260240603 -0.046156887 0.0767487884
v 0.0266704727 -0.0460776128 0.0767489672
v 0.0272875 -0.0458517708 0.076749444
v 0.0266862083 -0.0461425819 0.0764988065
v 0.0260283519 -0.0462232865 0.0764986277
v 0.0260240603 -0.0461557545 0.0762488246
v -0.0541612916 -0.0467337407 0.0762488246
v -0.0541646294 -0.0468013324 0.0764986277
v -0.0548087768 -0.0466637649 0.0762489438
v -0.0541521125 -0.0465502776 0.076066196
v -0.0547682457 -0.0464836396 0.0760663748
v -0.0547128133 -0.0462380685 0.0759999156
v -0.0552401952 -0.0460535921 0.0760003328
v -0.0553491525 -0.046280507 0.076066792
v -0.0549738221 -0.00210041157 0.077031076
v -0.0544442348 -0.0020353829 0.0770311952
v -0.0544603877 -0.00178569905 0.0770987272
v 0.0256751943 -0.00120807043 0.0770987272
v 0.0256626178 -0.00145799271 0.0770311952
v -0.0544323735 -0.00221795193 0.0768477917
v 0.0262484718 -0.00126999966 0.077098608
v 0.0256877709 -0.000957790529 0.0770323277
v 0.0263038445 -0.00102442852 0.0770321488
v 0.0263444353 -0.000844303286 0.0768495202
v 0.0269645024 -0.00106114498 0.0768490434
v 0.026884811 -0.00122756115 0.077031672
v 0.0275122691 -0.0014040505 0.0768482685
v 0.0269937087 -0.000999811804 0.0765991807
v 0.027554052 -0.00135064474 0.0765984058
v 0.0275122691 -0.00140291802 0.0763483047
v 0.027970152 -0.00185424439 0.0763472915
v 0.0280224252 -0.00181228272 0.0765973926
v 0.0283208657 -0.00239694468 0.0763460398
v 0.0278273392 -0.00197005621 0.0761640072
v 0.0281560589 -0.00247866265 0.0761628747
v 0.0279308725 -0.00259071938 0.0760956407
v 0.0281229187 -0.00311541907 0.0760944486
v 0.0283675361 -0.00305652968 0.0761615634
v 0.028193133 -0.00368774286 0.0760931969
v 0.0278783012 -0.00317454687 0.076161325
v 0.0279432107 -0.00370413414 0.0761601329
v 0.027760284 -0.0037164127 0.0763431191
v 0.028044777 -0.0431831516 0.0762553811
v 0.0282278825 -0.0431919731 0.0760723352
v 0.0279908944 -0.0436822213 0.0762542486
v 0.0279777814 -0.0431803502 0.076505363
v 0.0279250909 -0.0436679162 0.0765042901
v 0.0279908944 -0.0436832942 0.076754272
v 0.0278388429 -0.0441181101 0.0767533183
v 0.0277780462 -0.0440883674 0.076503396
v 0.0275978018 -0.0445030965 0.0767524242
v 0.0280048419 -0.0441982783 0.0769361258
v 0.0277422834 -0.044617597 0.0769352317
v 0.0279396344 -0.0447737016 0.0770018697
v 0.0275551248 -0.0451637544 0.0770009756
v 0.0273963381 -0.0449686088 0.0769344568
v 0.0277139712 -0.0453586616 0.0769335628
v 0.0272053052 -0.0456873812 0.0769328475
v -0.0564039759 -0.00273436657 0.0760966539
v -0.0564691834 -0.00330978981 0.0761623979
v -0.056206625 -0.00289047114 0.0761632919
v -0.0560621433 -0.00300497166 0.0763460398
v -0.0557444505 -0.00268268934 0.076346755
v -0.0558606796 -0.00253951899 0.0761640668
v -0.0553630404 -0.00243616453 0.0763472915
v -0.0557018928 -0.00273549906 0.0765966773
v -0.0553329401 -0.00249708048 0.0765971541
v -0.0553630404 -0.00243729702 0.0768473148
v -0.0549306683 -0.00227904669 0.0768476725
v -0.0549148731 -0.00234407536 0.0765975118
f 1 2 3
f 1 2 3
f 4 3 2
f 4 3 2
f 1 5 6
f 1 5 6
f 6 2 1
f 6 2 1
f 7 5 8
f 7 5 8
f 6 5 7
f 6 5 7
f 8 9 7
f 8 9 7
f 10 9 8
f 10 9 8
f 11 4 2
f 11 4 2
f 11 12 4
f 11 12 4
f 11 13 12
f 11 13 12
f 2 6 14
f 14 11 2
f 2 6 14
f 14 11 2
f 15 13 11
f 11 14 15
f 15 13 11
f 11 14 15
f 13 15 16
f 13 15 16
f 16 17 13
f 16 17 13
f 15 14 18
f 15 14 18
f 18 14 6
f 18 14 6
f 17 16 19
f 17 16 19
f 19 20 17
f 19 20 17
f 21 20 19
f 21 20 19
f 6 22 18
f 6 22 18
f 7 22 6
f 7 22 6
f 23 18 22
f 23 18 22
f 24 22 7
f 22 24 23
f 24 22 7
f 22 24 23
f 7 25 24
f 7 25 24
f 25 7 9
f 25 7 9
f 9 26 25
f 9 26 25
f 26 9 10
f 26 9 10
f 10 27 26
f 10 27 26
f 27 10 28
f 27 10 28
f 28 29 27
f 28 29 27
f 29 28 30
f 29 28 30
f 30 31 29
f 30 31 29
f 31 30 32
f 31 30 32
f 32 33 31
f 32 33 31
f 33 32 34
f 33 32 34
f 34 35 33
f 34 35 33
f 35 34 36
f 35 34 36
f 36 37 35
f 36 37 35
f 37 36 38
f 37 36 38
f 35 37 39
f 35 37 39
f 39 40 35
f 39 40 35
f 33 35 40
f 33 35 40
f 40 41 33
f 40 41 33
f 31 33 41
f 31 33 41
f 41 42 31
f 41 42 31
f 29 31 42
f 29 31 42
f 42 43 29
f 42 43 29
f 27 29 43
f 27 29 43
f 43 44 27
f 43 44 27
f 26 27 44
f 26 27 44
f 44 45 26
f 44 45 26
f 25 26 45
f 25 26 45
f 45 46 25
f 45 46 25
f 24 25 46
f 24 25 46
f 46 47 24
f 46 47 24
f 23 24 47
f 23 24 47
f 47 48 23
f 47 48 23
f 49 23 48
f 49 23 48
f 18 23 49
f 18 23 49
f 48 50 49
f 48 50 49
f 49 51 18
f 49 51 18
f 52 49 50
f 52 49 50
f 51 49 52
f 51 49 52
f 50 53 52
f 50 53 52
f 18 51 15
f 18 51 15
f 15 51 54
f 15 51 54
f 52 54 51
f 52 54 51
f 54 16 15
f 54 16 15
f 55 52 53
f 55 52 53
f 55 54 52
f 55 54 52
f 53 56 55
f 53 56 55
f 16 54 57
f 16 54 57
f 55 57 54
f 55 57 54
f 57 19 16
f 57 19 16
f 55 56 58
f 55 56 58
f 59 19 57
f 59 19 57
f 19 59 21
f 19 59 21
f 55 60 57
f 55 60 57
f 58 60 55
f 58 60 55
f 61 57 60
f 61 57 60
f 57 61 59
f 57 61 59
f 62 60 58
f 62 60 58
f 60 62 61
f 60 62 61
f 58 63 62
f 58 63 62
f 64 62 63
f 64 62 63
f 61 62 64
f 61 62 64
f 63 65 64
f 63 65 64
f 59 61 66
f 59 61 66
f 64 66 61
f 64 66 61
f 21 59 67
f 21 59 67
f 66 67 59
f 66 67 59
f 68 64 65
f 68 64 65
f 66 64 68
f 66 64 68
f 65 69 68
f 65 69 68
f 67 70 21
f 67 70 21
f 70 67 71
f 70 67 71
f 71 67 66
f 71 67 66
f 71 72 70
f 71 72 70
f 73 68 69
f 73 68 69
f 68 74 66
f 68 74 66
f 74 68 73
f 74 68 73
f 66 74 71
f 66 74 71
f 69 75 73
f 69 75 73
f 76 73 75
f 76 73 75
f 73 77 74
f 73 77 74
f 77 73 76
f 77 73 76
f 71 74 77
f 71 74 77
f 72 71 78
f 72 71 78
f 77 78 71
f 77 78 71
f 78 79 72
f 78 79 72
f 75 80 76
f 75 80 76
f 79 78 81
f 79 78 81
f 81 78 77
f 81 78 77
f 81 82 79
f 81 82 79
f 83 76 80
f 83 76 80
f 76 84 77
f 76 84 77
f 84 76 83
f 84 76 83
f 77 84 81
f 77 84 81
f 80 85 83
f 80 85 83
f 86 83 85
f 86 83 85
f 83 87 84
f 83 87 84
f 87 83 86
f 87 83 86
f 81 84 87
f 81 84 87
f 82 81 88
f 82 81 88
f 87 88 81
f 87 88 81
f 88 89 82
f 88 89 82
f 85 90 86
f 85 90 86
f 89 88 91
f 89 88 91
f 91 88 87
f 91 88 87
f 91 92 89
f 91 92 89
f 93 86 90
f 93 86 90
f 86 94 87
f 86 94 87
f 94 86 93
f 94 86 93
f 87 94 91
f 87 94 91
f 90 95 93
f 90 95 93
f 96 93 95
f 96 93 95
f 93 97 94
f 93 97 94
f 97 93 96
f 97 93 96
f 91 94 97
f 91 94 97
f 92 91 98
f 92 91 98
f 97 98 91
f 97 98 91
f 98 99 92
f 98 99 92
f 95 100 96
f 95 100 96
f 99 98 101
f 99 98 101
f 101 98 97
f 101 98 97
f 101 102 99
f 101 102 99
f 103 96 100
f 103 96 100
f 96 104 97
f 96 104 97
f 104 96 103
f 104 96 103
f 97 104 101
f 105 106 107
f 105 106 107
f 107 106 108
f 107 106 108
f 107 109 105
f 107 109 105
f 108 110 107
f 108 110 107
f 105 109 111
f 105 109 111
f 112 110 108
f 112 110 108
f 111 113 105
f 111 113 105
f 108 114 112
f 108 114 112
f 115 113 111
f 115 113 111
f 112 114 116
f 112 114 116
f 116 117 112
f 116 117 112
f 111 118 115
f 111 118 115
f 119 117 116
f 119 117 116
f 115 118 120
f 115 118 120
f 120 121 115
f 120 121 115
f 116 122 119
f 116 122 119
f 123 121 120
f 123 121 120
f 119 122 124
f 119 122 124
f 124 125 119
f 124 125 119
f 120 126 123
f 120 126 123
f 127 125 124
f 127 125 124
f 123 126 128
f 123 126 128
f 128 129 123
f 128 129 123
f 124 130 127
f 124 130 127
f 131 129 128
f 131 129 128
f 127 130 132
f 127 130 132
f 132 133 127
f 132 133 127
f 134 135 136
f 137 138 139
f 137 138 139
f 136 138 137
f 136 138 137
f 140 139 138
f 140 139 138
f 136 135 141
f 136 135 141
f 142 141 135
f 142 141 135
f 138 136 143
f 141 143 136
f 138 136 143
f 141 143 136
f 138 144 140
f 138 144 140
f 143 144 138
f 143 144 138
f 145 140 144
f 145 140 144
f 144 146 145
f 144 146 145
f 144 143 147
f 147 146 144
f 144 143 147
f 147 146 144
f 147 143 141
f 147 143 141
f 146 147 148
f 146 147 148
f 149 148 147
f 149 148 147
f 150 148 149
f 150 148 149
f 141 151 147
f 141 151 147
f 147 151 149
f 147 151 149
f 141 142 152
f 141 142 152
f 152 151 141
f 152 151 141
f 152 142 153
f 152 142 153
f 153 154 152
f 153 154 152
f 151 152 155
f 155 152 154
f 151 152 155
f 155 152 154
f 155 149 151
f 155 149 151
f 154 156 155
f 154 156 155
f 157 155 156
f 157 155 156
f 149 155 157
f 149 155 157
f 156 158 157
f 156 158 157
f 149 159 150
f 149 159 150
f 157 159 149
f 157 159 149
f 150 159 160
f 150 159 160
f 161 157 158
f 161 157 158
f 159 157 161
f 159 157 161
f 161 160 159
f 161 160 159
f 158 162 161
f 158 162 161
f 163 160 161
f 163 160 161
f 164 161 162
f 161 164 163
f 164 161 162
f 161 164 163
f 162 165 164
f 162 165 164
f 166 163 164
f 166 163 164
f 167 164 165
f 164 167 166
f 167 164 165
f 164 167 166
f 165 168 167
f 165 168 167
f 166 167 169
f 166 167 169
f 169 167 168
f 169 167 168
f 169 168 170
f 169 168 170
f 169 170 171
f 169 170 171
f 170 172 171
f 170 172 171
f 97 104 101
f 100 173 103
f 100 173 103
f 174 103 173
f 174 103 173
f 103 175 104
f 103 175 104
f 175 103 174
f 175 103 174
f 101 104 175
f 101 104 175
f 102 101 176
f 102 101 176
f 175 176 101
f 175 176 101
f 176 177 102
f 176 177 102
f 173 178 174
f 173 178 174
f 177 176 179
f 177 176 179
f 179 176 175
f 179 176 175
f 179 180 177
f 179 180 177
f 181 174 178
f 181 174 178
f 174 182 175
f 174 182 175
f 182 174 181
f 182 174 181
f 175 182 179
f 175 182 179
f 178 183 181
f 178 183 181
f 184 181 183
f 184 181 183
f 181 185 182
f 181 185 182
f 185 181 184
f 185 181 184
f 179 182 185
f 179 182 185
f 180 179 186
f 180 179 186
f 185 186 179
f 185 186 179
f 186 187 180
f 186 187 180
f 183 188 184
f 183 188 184
f 187 186 189
f 187 186 189
f 189 186 185
f 189 186 185
f 189 190 187
f 189 190 187
f 191 190 189
f 191 190 189
f 192 184 188
f 192 184 188
f 188 193 192
f 188 193 192
f 184 194 185
f 185 194 189
f 184 194 185
f 185 194 189
f 195 194 184
f 195 194 184
f 184 192 195
f 184 192 195
f 189 194 195
f 189 194 195
f 196 192 193
f 196 192 193
f 195 192 196
f 195 192 196
f 193 197 196
f 193 197 196
f 198 196 197
f 198 196 197
f 197 199 198
f 197 199 198
f 200 196 198
f 200 196 198
f 196 200 195
f 196 200 195
f 201 198 199
f 201 198 199
f 199 202 201
f 199 202 201
f 203 198 201
f 203 198 201
f 198 203 200
f 198 203 200
f 204 201 202
f 204 201 202
f 202 205 204
f 202 205 204
f 206 201 204
f 206 201 204
f 201 206 203
f 201 206 203
f 207 204 205
f 207 204 205
f 205 208 207
f 205 208 207
f 209 204 207
f 209 204 207
f 204 209 206
f 204 209 206
f 210 207 208
f 210 207 208
f 208 211 210
f 208 211 210
f 212 207 210
f 212 207 210
f 207 212 209
f 207 212 209
f 213 210 211
f 213 210 211
f 211 214 213
f 211 214 213
f 215 210 213
f 215 210 213
f 210 215 212
f 210 215 212
f 216 213 214
f 216 213 214
f 214 217 216
f 214 217 216
f 218 213 216
f 218 213 216
f 213 218 215
f 213 218 215
f 219 216 217
f 219 216 217
f 217 220 219
f 217 220 219
f 221 216 219
f 221 216 219
f 216 221 218
f 216 221 218
f 222 219 220
f 222 219 220
f 220 223 222
f 220 223 222
f 224 219 222
f 224 219 222
f 219 224 221
f 219 224 221
f 225 222 223
f 225 222 223
f 223 226 225
f 223 226 225
f 227 222 225
f 227 222 225
f 222 227 224
f 222 227 224
f 228 225 226
f 228 225 226
f 226 229 228
f 226 229 228
f 230 225 228
f 230 225 228
f 225 230 227
f 225 230 227
f 231 228 229
f 231 228 229
f 229 232 231
f 229 232 231
f 233 224 227
f 233 224 227
f 221 224 233
f 221 224 233
f 234 231 232
f 234 231 232
f 232 235 234
f 232 235 234
f 236 234 235
f 236 234 235
f 237 236 235
f 237 236 235
f 238 234 236
f 238 234 236
f 231 234 238
f 231 234 238
f 237 239 236
f 237 239 236
f 237 240 239
f 237 240 239
f 236 150 238
f 236 150 238
f 150 236 239
f 150 236 239
f 238 241 231
f 238 241 231
f 228 231 241
f 228 231 241
f 160 238 150
f 160 238 150
f 241 238 160
f 241 238 160
f 146 239 240
f 146 239 240
f 240 145 146
f 240 145 146
f 239 148 150
f 239 148 150
f 148 239 146
f 148 239 146
f 241 242 228
f 241 242 228
f 228 242 230
f 228 242 230
f 242 241 163
f 242 241 163
f 160 163 241
f 160 163 241
f 243 230 242
f 243 230 242
f 227 230 243
f 227 230 243
f 242 166 243
f 163 166 242
f 242 166 243
f 163 166 242
f 243 244 227
f 243 244 227
f 227 244 233
f 227 244 233
f 171 244 243
f 171 244 243
f 169 243 166
f 243 169 171
f 169 243 166
f 243 169 171
f 245 233 244
f 245 233 244
f 244 171 245
f 244 171 245
f 233 245 246
f 233 245 246
f 246 247 233
f 246 247 233
f 233 247 221
f 233 247 221
f 247 246 248
f 247 246 248
f 221 247 249
f 248 249 247
f 221 247 249
f 248 249 247
f 249 218 221
f 249 218 221
f 249 248 250
f 249 248 250
f 215 218 249
f 215 218 249
f 250 251 249
f 250 251 249
f 249 251 215
f 249 251 215
f 251 250 252
f 251 250 252
f 215 251 253
f 252 253 251
f 215 251 253
f 252 253 251
f 253 212 215
f 253 212 215
f 253 252 254
f 253 252 254
f 209 212 253
f 209 212 253
f 254 255 253
f 254 255 253
f 253 255 209
f 253 255 209
f 255 254 256
f 255 254 256
f 209 255 257
f 256 257 255
f 209 255 257
f 256 257 255
f 257 206 209
f 257 206 209
f 257 256 258
f 257 256 258
f 203 206 257
f 203 206 257
f 258 259 257
f 258 259 257
f 257 259 203
f 257 259 203
f 259 258 260
f 259 258 260
f 203 259 261
f 260 261 259
f 203 259 261
f 260 261 259
f 261 200 203
f 261 200 203
f 261 260 191
f 261 260 191
f 195 200 261
f 195 200 261
f 191 262 261
f 261 262 195
f 261 262 195
f 191 262 261
f 195 262 189
f 195 262 189
f 189 262 191
f 189 262 191
f 263 264 38
f 263 264 38
f 38 264 265
f 38 264 265
f 266 264 263
f 266 264 263
f 265 264 266
f 265 264 266
f 265 267 38
f 265 267 38
f 38 267 37
f 38 267 37
f 37 267 268
f 37 267 268
f 268 39 37
f 268 39 37
f 269 268 267
f 269 268 267
f 267 265 269
f 267 265 269
f 270 269 265
f 270 269 265
f 265 271 270
f 265 271 270
f 266 271 265
f 266 271 265
f 272 270 271
f 272 270 271
f 271 273 272
f 271 273 272
f 274 272 273
f 274 272 273
f 275 273 271
f 275 273 271
f 271 266 275
f 271 266 275
f 273 276 274
f 273 276 274
f 277 274 276
f 277 274 276
f 273 275 278
f 273 275 278
f 278 276 273
f 278 276 273
f 279 275 266
f 279 275 266
f 278 275 279
f 278 275 279
f 266 280 279
f 266 280 279
f 263 280 266
f 263 280 266
f 276 281 277
f 276 281 277
f 282 277 281
f 282 277 281
f 276 278 283
f 276 278 283
f 283 281 276
f 283 281 276
f 284 280 263
f 284 280 263
f 263 285 284
f 263 285 284
f 286 284 285
f 286 284 285
f 280 284 287
f 287 284 286
f 280 284 287
f 287 284 286
f 287 279 280
f 287 279 280
f 286 288 287
f 286 288 287
f 289 287 288
f 289 287 288
f 279 287 289
f 279 287 289
f 288 290 289
f 288 290 289
f 289 291 279
f 289 291 279
f 279 291 278
f 279 291 278
f 292 289 290
f 292 289 290
f 291 289 292
f 291 289 292
f 290 293 292
f 290 293 292
f 278 291 294
f 278 291 294
f 292 294 291
f 292 294 291
f 294 283 278
f 294 283 278
f 295 292 293
f 295 292 293
f 294 292 295
f 294 292 295
f 293 296 295
f 293 296 295
f 297 295 296
f 297 295 296
f 296 298 297
f 296 298 297
f 299 295 297
f 299 295 297
f 295 299 294
f 295 299 294
f 300 283 294
f 300 283 294
f 294 299 300
f 294 299 300
f 281 283 300
f 281 283 300
f 301 297 298
f 301 297 298
f 297 134 299
f 297 134 299
f 134 297 301
f 134 297 301
f 300 299 134
f 300 299 134
f 298 302 301
f 298 302 301
f 300 303 281
f 300 303 281
f 281 303 282
f 281 303 282
f 304 282 303
f 304 282 303
f 142 301 302
f 142 301 302
f 302 153 142
f 302 153 142
f 135 301 142
f 135 301 142
f 301 135 134
f 301 135 134
f 303 137 304
f 303 137 304
f 139 304 137
f 139 304 137
f 303 300 305
f 303 300 305
f 134 305 300
f 134 305 300
f 305 137 303
f 305 137 303
f 136 305 134
f 136 305 134
f 137 305 136
f 137 305 136
f 134 135 136
f 306 307 38
f 306 307 38
f 308 307 306
f 308 307 306
f 38 307 263
f 263 307 308
f 263 307 308
f 38 307 263
f 306 309 308
f 306 309 308
f 38 36 306
f 38 36 306
f 308 309 310
f 308 309 310
f 310 311 308
f 310 311 308
f 312 310 309
f 312 310 309
f 308 311 313
f 308 311 313
f 313 285 308
f 313 285 308
f 308 285 263
f 308 285 263
f 285 313 286
f 285 313 286
f 309 314 312
f 309 314 312
f 315 312 314
f 315 312 314
f 316 314 309
f 316 314 309
f 309 306 316
f 309 306 316
f 314 317 315
f 314 317 315
f 318 315 317
f 318 315 317
f 314 316 319
f 314 316 319
f 319 317 314
f 319 317 314
f 34 316 306
f 34 316 306
f 319 316 34
f 319 316 34
f 306 36 34
f 306 36 34
f 317 320 318
f 317 320 318
f 321 318 320
f 321 318 320
f 317 319 322
f 317 319 322
f 322 320 317
f 322 320 317
f 320 323 321
f 320 323 321
f 324 321 323
f 324 321 323
f 320 322 325
f 320 322 325
f 325 323 320
f 325 323 320
f 30 322 319
f 30 322 319
f 325 322 30
f 325 322 30
f 319 32 30
f 319 32 30
f 34 32 319
f 34 32 319
f 323 326 324
f 323 326 324
f 327 324 326
f 327 324 326
f 323 325 328
f 323 325 328
f 328 326 323
f 328 326 323
f 326 329 327
f 326 329 327
f 330 327 329
f 330 327 329
f 326 328 8
f 326 328 8
f 8 329 326
f 8 329 326
f 10 328 325
f 10 328 325
f 8 328 10
f 8 328 10
f 325 28 10
f 325 28 10
f 30 28 325
f 30 28 325
f 329 1 330
f 329 1 330
f 3 330 1
f 3 330 1
f 329 8 5
f 329 8 5
f 5 1 329
f 5 1 329
f 331 332 333
f 331 332 333
f 334 333 332
f 334 333 332
f 333 335 331
f 333 335 331
f 332 336 334
f 332 336 334
f 335 333 337
f 335 333 337
f 338 337 333
f 333 334 338
f 338 337 333
f 333 334 338
f 337 339 335
f 337 339 335
f 336 332 340
f 336 332 340
f 332 331 341
f 332 331 341
f 341 340 332
f 341 340 332
f 342 331 335
f 342 331 335
f 343 341 331
f 331 342 343
f 343 341 331
f 331 342 343
f 344 335 339
f 335 344 342
f 344 335 339
f 335 344 342
f 345 342 344
f 345 342 344
f 346 343 342
f 342 345 346
f 346 343 342
f 342 345 346
f 341 343 347
f 341 343 347
f 348 347 343
f 343 346 348
f 348 347 343
f 343 346 348
f 347 349 341
f 347 349 341
f 340 341 349
f 340 341 349
f 347 348 350
f 347 348 350
f 350 351 347
f 349 347 351
f 350 351 347
f 349 347 351
f 352 350 348
f 352 350 348
f 353 348 346
f 348 353 352
f 353 348 346
f 348 353 352
f 354 355 356
f 354 355 356
f 356 357 354
f 358 354 357
f 356 357 354
f 358 354 357
f 359 356 355
f 359 356 355
f 360 355 361
f 355 360 359
f 360 355 361
f 355 360 359
f 361 362 360
f 361 362 360
f 362 361 363
f 362 361 363
f 364 360 362
f 364 360 362
f 365 359 360
f 360 364 365
f 365 359 360
f 360 364 365
f 356 359 366
f 356 359 366
f 367 366 359
f 359 365 367
f 367 366 359
f 359 365 367
f 366 368 356
f 366 368 356
f 357 356 368
f 357 356 368
f 366 367 369
f 366 367 369
f 369 370 366
f 368 366 370
f 369 370 366
f 368 366 370
f 371 369 367
f 371 369 367
f 372 367 365
f 367 372 371
f 372 367 365
f 367 372 371
f 365 373 372
f 365 373 372
f 373 365 364
f 373 365 364
f 374 372 373
f 374 372 373
f 375 371 372
f 372 374 375
f 375 371 372
f 372 374 375
f 369 371 376
f 369 371 376
f 377 376 371
f 371 375 377
f 377 376 371
f 371 375 377
f 376 378 369
f 376 378 369
f 370 369 378
f 370 369 378
f 376 377 379
f 376 377 379
f 379 380 376
f 378 376 380
f 379 380 376
f 378 376 380
f 381 379 377
f 381 379 377
f 382 377 375
f 377 382 381
f 382 377 375
f 377 382 381
f 375 383 382
f 375 383 382
f 383 375 374
f 383 375 374
f 384 382 383
f 384 382 383
f 385 381 382
f 382 384 385
f 385 381 382
f 382 384 385
f 379 381 386
f 379 381 386
f 387 386 381
f 381 385 387
f 387 386 381
f 381 385 387
f 386 339 379
f 386 339 379
f 380 379 339
f 380 379 339
f 339 386 344
f 339 386 344
f 339 337 380
f 339 337 380
f 388 344 386
f 388 344 386
f 386 387 388
f 386 387 388
f 344 388 345
f 344 388 345
f 389 380 337
f 389 380 337
f 380 389 378
f 380 389 378
f 337 338 389
f 337 338 389
f 390 345 388
f 390 345 388
f 345 390 391
f 345 390 391
f 388 392 390
f 388 392 390
f 392 388 387
f 392 388 387
f 393 391 390
f 393 391 390
f 391 393 394
f 391 393 394
f 395 390 392
f 395 390 392
f 390 395 393
f 390 395 393
f 387 396 392
f 387 396 392
f 396 387 385
f 396 387 385
f 397 392 396
f 397 392 396
f 392 397 395
f 392 397 395
f 385 398 396
f 385 398 396
f 398 385 384
f 398 385 384
f 399 396 398
f 399 396 398
f 396 399 397
f 396 399 397
f 398 400 399
f 398 400 399
f 384 401 398
f 400 398 401
f 384 401 398
f 400 398 401
f 401 384 402
f 401 384 402
f 383 402 384
f 383 402 384
f 402 383 403
f 402 383 403
f 374 403 383
f 374 403 383
f 403 374 404
f 403 374 404
f 373 404 374
f 373 404 374
f 404 373 405
f 404 373 405
f 364 405 373
f 364 405 373
f 405 364 406
f 405 364 406
f 362 406 364
f 362 406 364
f 406 362 407
f 406 362 407
f 363 407 362
f 363 407 362
f 407 363 408
f 407 363 408
f 409 408 363
f 409 408 363
f 408 409 410
f 408 409 410
f 411 410 409
f 411 410 409
f 410 411 412
f 410 411 412
f 413 412 411
f 413 412 411
f 412 413 414
f 412 413 414
f 415 414 413
f 415 414 413
f 414 415 416
f 414 415 416
f 417 416 415
f 417 416 415
f 416 417 418
f 416 417 418
f 419 418 417
f 419 418 417
f 418 419 420
f 418 419 420
f 421 420 419
f 421 420 419
f 420 421 422
f 420 421 422
f 423 422 421
f 423 422 421
f 422 423 424
f 422 423 424
f 425 424 423
f 425 424 423
f 424 425 426
f 424 425 426
f 427 426 425
f 427 426 425
f 426 427 428
f 426 427 428
f 429 428 427
f 429 428 427
f 428 429 430
f 428 429 430
f 431 430 429
f 431 430 429
f 430 431 432
f 430 431 432
f 433 432 431
f 433 432 431
f 432 433 434
f 432 433 434
f 435 434 433
f 435 434 433
f 434 435 436
f 434 435 436
f 437 436 435
f 437 436 435
f 436 437 438
f 436 437 438
f 439 438 437
f 439 438 437
f 438 439 440
f 438 439 440
f 441 440 439
f 441 440 439
f 440 441 442
f 440 441 442
f 443 442 441
f 443 442 441
f 442 443 444
f 442 443 444
f 445 444 443
f 445 444 443
f 444 445 446
f 444 445 446
f 447 446 445
f 447 446 445
f 446 447 448
f 446 447 448
f 449 448 447
f 449 448 447
f 448 449 450
f 448 449 450
f 451 450 449
f 451 450 449
f 450 451 452
f 450 451 452
f 453 452 451
f 453 452 451
f 452 453 454
f 452 453 454
f 394 454 453
f 394 454 453
f 454 394 393
f 454 394 393
f 393 455 454
f 393 455 454
f 455 393 395
f 455 393 395
f 454 456 452
f 456 454 455
f 454 456 452
f 456 454 455
f 452 457 450
f 457 452 456
f 452 457 450
f 457 452 456
f 458 450 457
f 458 450 457
f 450 458 448
f 450 458 448
f 395 459 455
f 395 459 455
f 459 395 397
f 459 395 397
f 455 460 456
f 460 455 459
f 455 460 456
f 460 455 459
f 456 461 457
f 461 456 460
f 456 461 457
f 461 456 460
f 457 462 458
f 462 457 461
f 457 462 458
f 462 457 461
f 397 463 459
f 397 463 459
f 463 397 399
f 463 397 399
f 459 464 460
f 464 459 463
f 459 464 460
f 464 459 463
f 460 465 461
f 465 460 464
f 460 465 461
f 465 460 464
f 461 466 462
f 466 461 465
f 461 466 462
f 466 461 465
f 399 467 463
f 399 467 463
f 467 399 400
f 467 399 400
f 463 468 464
f 468 463 467
f 463 468 464
f 468 463 467
f 464 469 465
f 469 464 468
f 464 469 465
f 469 464 468
f 465 470 466
f 470 465 469
f 465 470 466
f 470 465 469
f 469 471 470
f 469 471 470
f 468 472 469
f 471 469 472
f 468 472 469
f 471 469 472
f 467 473 468
f 467 473 468
f 472 468 473
f 472 468 473
f 473 467 474
f 473 467 474
f 400 474 467
f 400 474 467
f 474 400 475
f 474 400 475
f 401 475 400
f 401 475 400
f 475 401 476
f 475 401 476
f 402 476 401
f 402 476 401
f 476 402 477
f 476 402 477
f 403 477 402
f 403 477 402
f 477 403 478
f 477 403 478
f 404 478 403
f 404 478 403
f 478 404 479
f 478 404 479
f 405 479 404
f 405 479 404
f 479 405 480
f 479 405 480
f 406 480 405
f 406 480 405
f 480 406 481
f 480 406 481
f 407 481 406
f 407 481 406
f 481 407 482
f 481 407 482
f 408 482 407
f 408 482 407
f 482 408 483
f 482 408 483
f 410 483 408
f 410 483 408
f 483 410 484
f 483 410 484
f 412 484 410
f 412 484 410
f 484 412 485
f 484 412 485
f 414 485 412
f 414 485 412
f 485 414 486
f 485 414 486
f 416 486 414
f 416 486 414
f 486 416 487
f 486 416 487
f 418 487 416
f 418 487 416
f 487 418 488
f 487 418 488
f 420 488 418
f 420 488 418
f 488 420 489
f 488 420 489
f 422 489 420
f 422 489 420
f 489 422 490
f 489 422 490
f 424 490 422
f 424 490 422
f 490 424 491
f 490 424 491
f 426 491 424
f 426 491 424
f 491 426 492
f 491 426 492
f 428 492 426
f 428 492 426
f 492 428 493
f 492 428 493
f 430 493 428
f 430 493 428
f 493 430 494
f 493 430 494
f 432 494 430
f 432 494 430
f 494 432 495
f 494 432 495
f 434 495 432
f 434 495 432
f 495 434 496
f 495 434 496
f 436 496 434
f 436 496 434
f 496 436 497
f 496 436 497
f 438 497 436
f 438 497 436
f 497 438 498
f 497 438 498
f 440 498 438
f 440 498 438
f 498 440 499
f 498 440 499
f 442 499 440
f 442 499 440
f 499 442 500
f 499 442 500
f 444 500 442
f 444 500 442
f 500 444 501
f 500 444 501
f 446 501 444
f 446 501 444
f 501 446 502
f 501 446 502
f 448 502 446
f 448 502 446
f 502 448 458
f 502 448 458
f 458 503 502
f 458 503 502
f 503 458 462
f 503 458 462
f 502 504 501
f 504 502 503
f 502 504 501
f 504 502 503
f 501 505 500
f 505 501 504
f 501 505 500
f 505 501 504
f 506 500 505
f 506 500 505
f 500 506 499
f 500 506 499
f 462 507 503
f 462 507 503
f 507 462 466
f 507 462 466
f 503 508 504
f 508 503 507
f 503 508 504
f 508 503 507
f 504 509 505
f 509 504 508
f 504 509 505
f 509 504 508
f 505 510 506
f 510 505 509
f 505 510 506
f 510 505 509
f 466 511 507
f 466 511 507
f 511 466 470
f 511 466 470
f 507 512 508
f 512 507 511
f 507 512 508
f 512 507 511
f 508 513 509
f 513 508 512
f 508 513 509
f 513 508 512
f 509 514 510
f 514 509 513
f 509 514 510
f 514 509 513
f 470 515 511
f 470 515 511
f 515 470 471
f 515 470 471
f 511 516 512
f 516 511 515
f 511 516 512
f 516 511 515
f 512 517 513
f 517 512 516
f 512 517 513
f 517 512 516
f 513 518 514
f 518 513 517
f 513 518 514
f 518 513 517
f 517 519 518
f 517 519 518
f 516 520 517
f 519 517 520
f 516 520 517
f 519 517 520
f 515 521 516
f 515 521 516
f 520 516 521
f 520 516 521
f 521 515 522
f 521 515 522
f 471 522 515
f 471 522 515
f 522 471 523
f 522 471 523
f 472 523 471
f 472 523 471
f 523 472 524
f 523 472 524
f 473 524 472
f 473 524 472
f 524 473 525
f 524 473 525
f 474 525 473
f 474 525 473
f 525 474 526
f 525 474 526
f 475 526 474
f 475 526 474
f 526 475 527
f 526 475 527
f 476 527 475
f 476 527 475
f 527 476 528
f 527 476 528
f 477 528 476
f 477 528 476
f 528 477 529
f 528 477 529
f 478 529 477
f 478 529 477
f 529 478 530
f 529 478 530
f 479 530 478
f 479 530 478
f 530 479 531
f 530 479 531
f 480 531 479
f 480 531 479
f 531 480 532
f 531 480 532
f 481 532 480
f 481 532 480
f 532 481 533
f 532 481 533
f 482 533 481
f 482 533 481
f 533 482 534
f 533 482 534
f 483 534 482
f 483 534 482
f 534 483 535
f 534 483 535
f 484 535 483
f 484 535 483
f 535 484 536
f 535 484 536
f 485 536 484
f 485 536 484
f 536 485 537
f 536 485 537
f 486 537 485
f 486 537 485
f 537 486 538
f 537 486 538
f 487 538 486
f 487 538 486
f 538 487 539
f 538 487 539
f 488 539 487
f 488 539 487
f 539 488 540
f 539 488 540
f 489 540 488
f 489 540 488
f 540 489 541
f 540 489 541
f 490 541 489
f 490 541 489
f 541 490 542
f 541 490 542
f 491 542 490
f 491 542 490
f 542 491 543
f 542 491 543
f 492 543 491
f 492 543 491
f 543 492 544
f 543 492 544
f 493 544 492
f 493 544 492
f 544 493 545
f 544 493 545
f 494 545 493
f 494 545 493
f 545 494 546
f 545 494 546
f 495 546 494
f 495 546 494
f 546 495 547
f 546 495 547
f 496 547 495
f 496 547 495
f 547 496 548
f 547 496 548
f 497 548 496
f 497 548 496
f 548 497 549
f 548 497 549
f 498 549 497
f 498 549 497
f 549 498 550
f 549 498 550
f 499 550 498
f 499 550 498
f 550 499 506
f 550 499 506
f 506 551 550
f 506 551 550
f 551 506 510
f 551 506 510
f 550 552 549
f 552 550 551
f 550 552 549
f 552 550 551
f 549 553 548
f 553 549 552
f 549 553 548
f 553 549 552
f 554 548 553
f 554 548 553
f 548 554 547
f 548 554 547
f 510 555 551
f 510 555 551
f 555 510 514
f 555 510 514
f 551 556 552
f 556 551 555
f 551 556 552
f 556 551 555
f 552 557 553
f 557 552 556
f 552 557 553
f 557 552 556
f 553 558 554
f 558 553 557
f 553 558 554
f 558 553 557
f 514 559 555
f 514 559 555
f 559 514 518
f 559 514 518
f 555 560 556
f 560 555 559
f 555 560 556
f 560 555 559
f 556 561 557
f 561 556 560
f 556 561 557
f 561 556 560
f 557 562 558
f 562 557 561
f 557 562 558
f 562 557 561
f 518 563 559
f 518 563 559
f 563 518 519
f 563 518 519
f 559 564 560
f 564 559 563
f 559 564 560
f 564 559 563
f 560 565 561
f 565 560 564
f 560 565 561
f 565 560 564
f 561 566 562
f 566 561 565
f 561 566 562
f 566 561 565
f 565 567 566
f 565 567 566
f 567 565 568
f 567 565 568
f 564 568 565
f 564 568 565
f 568 564 569
f 568 564 569
f 563 569 564
f 563 569 564
f 569 563 570
f 569 563 570
f 519 570 563
f 519 570 563
f 570 519 571
f 570 519 571
f 520 571 519
f 520 571 519
f 571 520 572
f 571 520 572
f 521 572 520
f 521 572 520
f 572 521 573
f 572 521 573
f 522 573 521
f 522 573 521
f 573 522 574
f 573 522 574
f 523 574 522
f 523 574 522
f 574 523 575
f 574 523 575
f 524 575 523
f 524 575 523
f 575 524 576
f 575 524 576
f 525 576 524
f 525 576 524
f 576 525 577
f 576 525 577
f 526 577 525
f 526 577 525
f 577 526 578
f 577 526 578
f 527 578 526
f 527 578 526
f 578 527 579
f 578 527 579
f 528 579 527
f 528 579 527
f 579 528 580
f 579 528 580
f 529 580 528
f 529 580 528
f 580 529 581
f 580 529 581
f 530 581 529
f 530 581 529
f 581 530 351
f 581 530 351
f 531 351 530
f 531 351 530
f 351 531 349
f 351 531 349
f 532 349 531
f 532 349 531
f 349 532 340
f 349 532 340
f 533 340 532
f 533 340 532
f 340 533 336
f 340 533 336
f 534 336 533
f 534 336 533
f 336 534 582
f 336 534 582
f 535 582 534
f 535 582 534
f 582 334 336
f 582 334 336
f 582 535 583
f 582 535 583
f 334 582 584
f 334 582 584
f 583 584 582
f 583 584 582
f 584 338 334
f 584 338 334
f 536 583 535
f 536 583 535
f 338 584 585
f 338 584 585
f 585 389 338
f 585 389 338
f 586 585 584
f 586 585 584
f 584 583 586
f 584 583 586
f 583 536 587
f 583 536 587
f 587 586 583
f 587 586 583
f 537 587 536
f 537 587 536
f 389 585 588
f 389 585 588
f 588 378 389
f 588 378 389
f 378 588 370
f 378 588 370
f 585 586 589
f 585 586 589
f 589 588 585
f 589 588 585
f 590 370 588
f 590 370 588
f 588 589 590
f 588 589 590
f 370 590 368
f 370 590 368
f 591 589 586
f 591 589 586
f 586 587 591
f 586 587 591
f 587 537 592
f 587 537 592
f 592 591 587
f 592 591 587
f 538 592 537
f 538 592 537
f 589 591 593
f 593 590 589
f 589 591 593
f 593 590 589
f 594 368 590
f 594 368 590
f 590 593 594
f 590 593 594
f 368 594 357
f 368 594 357
f 592 538 595
f 592 538 595
f 591 592 596
f 591 592 596
f 595 596 592
f 595 596 592
f 596 593 591
f 596 593 591
f 539 595 538
f 539 595 538
f 593 596 597
f 597 594 593
f 593 596 597
f 597 594 593
f 598 357 594
f 598 357 594
f 594 597 598
f 594 597 598
f 357 598 358
f 357 598 358
f 595 539 599
f 595 539 599
f 596 595 600
f 596 595 600
f 599 600 595
f 599 600 595
f 600 597 596
f 600 597 596
f 540 599 539
f 540 599 539
f 597 600 601
f 601 598 597
f 597 600 601
f 601 598 597
f 602 358 598
f 602 358 598
f 598 601 602
f 598 601 602
f 358 602 603
f 358 602 603
f 599 540 604
f 599 540 604
f 600 599 605
f 600 599 605
f 604 605 599
f 604 605 599
f 605 601 600
f 605 601 600
f 541 604 540
f 541 604 540
f 601 605 606
f 606 602 601
f 601 605 606
f 606 602 601
f 607 603 602
f 607 603 602
f 602 606 607
f 602 606 607
f 603 607 608
f 603 607 608
f 604 541 609
f 604 541 609
f 605 604 610
f 605 604 610
f 609 610 604
f 609 610 604
f 610 606 605
f 610 606 605
f 542 609 541
f 542 609 541
f 606 610 611
f 611 607 606
f 606 610 611
f 611 607 606
f 612 608 607
f 612 608 607
f 607 611 612
f 607 611 612
f 608 612 613
f 608 612 613
f 609 542 614
f 609 542 614
f 610 609 615
f 610 609 615
f 614 615 609
f 614 615 609
f 615 611 610
f 615 611 610
f 543 614 542
f 543 614 542
f 611 615 616
f 616 612 611
f 611 615 616
f 616 612 611
f 617 613 612
f 617 613 612
f 612 616 617
f 612 616 617
f 613 617 618
f 613 617 618
f 614 543 619
f 614 543 619
f 615 614 620
f 615 614 620
f 619 620 614
f 619 620 614
f 620 616 615
f 620 616 615
f 544 619 543
f 544 619 543
f 616 620 621
f 621 617 616
f 616 620 621
f 621 617 616
f 622 618 617
f 622 618 617
f 617 621 622
f 617 621 622
f 618 622 623
f 618 622 623
f 619 544 624
f 619 544 624
f 620 619 625
f 620 619 625
f 624 625 619
f 624 625 619
f 625 621 620
f 625 621 620
f 545 624 544
f 545 624 544
f 621 625 626
f 626 622 621
f 621 625 626
f 626 622 621
f 627 623 622
f 627 623 622
f 622 626 627
f 622 626 627
f 623 627 628
f 623 627 628
f 624 545 629
f 624 545 629
f 625 624 630
f 625 624 630
f 629 630 624
f 629 630 624
f 630 626 625
f 630 626 625
f 546 629 545
f 546 629 545
f 626 630 631
f 631 627 626
f 626 630 631
f 631 627 626
f 632 628 627
f 632 628 627
f 627 631 632
f 627 631 632
f 628 632 633
f 628 632 633
f 629 546 634
f 629 546 634
f 547 634 546
f 547 634 546
f 630 629 635
f 630 629 635
f 634 635 629
f 634 635 629
f 635 631 630
f 635 631 630
f 634 547 554
f 634 547 554
f 554 636 634
f 554 636 634
f 635 634 636
f 635 634 636
f 636 554 558
f 636 554 558
f 631 635 637
f 631 635 637
f 636 637 635
f 636 637 635
f 637 632 631
f 637 632 631
f 558 638 636
f 558 638 636
f 637 636 638
f 637 636 638
f 638 558 562
f 638 558 562
f 632 637 639
f 632 637 639
f 638 639 637
f 638 639 637
f 639 633 632
f 639 633 632
f 562 640 638
f 562 640 638
f 639 638 640
f 639 638 640
f 633 639 641
f 633 639 641
f 640 641 639
f 640 641 639
f 641 640 642
f 641 640 642
f 640 562 566
f 640 562 566
f 566 642 640
f 566 642 640
f 642 566 567
f 642 566 567
f 128 643 131
f 128 643 131
f 644 133 132
f 644 133 132
f 131 643 645
f 131 643 645
f 645 646 131
f 645 646 131
f 132 647 644
f 132 647 644
f 648 646 645
f 648 646 645
f 644 647 649
f 644 647 649
f 649 650 644
f 649 650 644
f 651 648 645
f 651 648 645
f 652 650 649
f 652 650 649
f 651 653 648
f 651 653 648
f 649 654 652
f 649 654 652
f 652 654 655
f 652 654 655
f 655 656 652
f 655 656 652
f 653 657 648
f 653 657 648
f 658 656 655
f 658 656 655
f 659 657 653
f 659 657 653
f 655 660 658
f 655 660 658
f 653 661 659
f 653 661 659
f 659 661 662
f 659 661 662
f 662 663 659
f 662 663 659
f 658 660 664
f 658 660 664
f 665 663 662
f 665 663 662
f 664 666 658
f 664 666 658
f 662 667 665
f 662 667 665
f 668 666 664
f 668 666 664
f 665 667 669
f 665 667 669
f 669 670 665
f 669 670 665
f 664 671 668
f 664 671 668
f 672 670 669
f 672 670 669
f 668 671 673
f 668 671 673
f 673 674 668
f 673 674 668
f 669 675 672
f 669 675 672
f 676 674 673
f 676 674 673
f 672 675 677
f 672 675 677
f 677 678 672
f 677 678 672
f 679 678 677
f 679 678 677
f 677 680 679
f 677 680 679
f 673 681 676
f 673 681 676
f 676 681 682
f 676 681 682
f 682 683 676
f 682 683 676
f 684 683 682
f 684 683 682
f 682 685 684
f 682 685 684
f 684 685 686
f 684 685 686
f 687 684 686
f 687 684 686
f 687 686 688
f 687 686 688
f 686 689 688
f 686 689 688
f 688 689 690
f 688 689 690
f 690 691 688
f 690 691 688
f 692 691 690
f 692 691 690
f 690 693 692
f 690 693 692
f 692 693 694
f 692 693 694
f 694 695 692
f 694 695 692
f 696 417 697
f 696 417 697
f 417 696 419
f 417 696 419
f 415 697 417
f 415 697 417
f 698 699 697
f 697 415 698
f 698 699 697
f 697 415 698
f 700 699 701
f 700 699 701
f 702 701 699
f 699 698 702
f 702 701 699
f 699 698 702
f 701 618 700
f 701 618 700
f 623 700 618
f 623 700 618
f 701 702 703
f 701 702 703
f 703 613 701
f 618 701 613
f 703 613 701
f 618 701 613
f 704 703 702
f 704 703 702
f 705 702 698
f 702 705 704
f 705 702 698
f 702 705 704
f 698 413 705
f 698 413 705
f 413 698 415
f 413 698 415
f 411 705 413
f 411 705 413
f 706 704 705
f 705 411 706
f 706 704 705
f 705 411 706
f 703 704 707
f 703 704 707
f 708 707 704
f 704 706 708
f 708 707 704
f 704 706 708
f 707 608 703
f 707 608 703
f 613 703 608
f 613 703 608
f 707 708 709
f 707 708 709
f 709 603 707
f 608 707 603
f 709 603 707
f 608 707 603
f 710 709 708
f 710 709 708
f 711 708 706
f 708 711 710
f 711 708 706
f 708 711 710
f 706 409 711
f 706 409 711
f 409 706 411
f 409 706 411
f 363 711 409
f 363 711 409
f 361 710 711
f 711 363 361
f 361 710 711
f 711 363 361
f 709 710 354
f 709 710 354
f 355 354 710
f 710 361 355
f 355 354 710
f 710 361 355
f 354 358 709
f 354 358 709
f 603 709 358
f 603 709 358
f 712 713 714
f 712 713 714
f 714 576 712
f 577 712 576
f 714 576 712
f 577 712 576
f 715 714 713
f 715 714 713
f 716 713 717
f 713 716 715
f 716 713 717
f 713 716 715
f 717 445 716
f 717 445 716
f 445 717 447
f 445 717 447
f 443 716 445
f 443 716 445
f 718 715 716
f 716 443 718
f 718 715 716
f 716 443 718
f 714 715 719
f 714 715 719
f 720 719 715
f 715 718 720
f 720 719 715
f 715 718 720
f 719 575 714
f 719 575 714
f 576 714 575
f 576 714 575
f 719 720 721
f 719 720 721
f 721 574 719
f 575 719 574
f 721 574 719
f 575 719 574
f 722 721 720
f 722 721 720
f 723 720 718
f 720 723 722
f 723 720 718
f 720 723 722
f 718 441 723
f 718 441 723
f 441 718 443
f 441 718 443
f 439 723 441
f 439 723 441
f 724 722 723
f 723 439 724
f 724 722 723
f 723 439 724
f 721 722 725
f 721 722 725
f 726 725 722
f 722 724 726
f 726 725 722
f 722 724 726
f 725 573 721
f 725 573 721
f 574 721 573
f 574 721 573
f 725 726 727
f 725 726 727
f 727 572 725
f 573 725 572
f 727 572 725
f 573 725 572
f 728 727 726
f 728 727 726
f 729 726 724
f 726 729 728
f 729 726 724
f 726 729 728
f 724 437 729
f 724 437 729
f 437 724 439
f 437 724 439
f 435 729 437
f 435 729 437
f 730 728 729
f 729 435 730
f 730 728 729
f 729 435 730
f 727 728 731
f 727 728 731
f 732 731 728
f 728 730 732
f 732 731 728
f 728 730 732
f 731 571 727
f 731 571 727
f 572 727 571
f 572 727 571
f 731 732 733
f 731 732 733
f 733 570 731
f 571 731 570
f 733 570 731
f 571 731 570
f 734 733 732
f 734 733 732
f 735 732 730
f 732 735 734
f 735 732 730
f 732 735 734
f 730 433 735
f 730 433 735
f 433 730 435
f 433 730 435
f 431 735 433
f 431 735 433
f 736 734 735
f 735 431 736
f 736 734 735
f 735 431 736
f 733 734 737
f 733 734 737
f 738 737 734
f 734 736 738
f 738 737 734
f 734 736 738
f 737 569 733
f 737 569 733
f 570 733 569
f 570 733 569
f 737 738 739
f 737 738 739
f 739 568 737
f 569 737 568
f 739 568 737
f 569 737 568
f 740 739 738
f 740 739 738
f 741 738 736
f 738 741 740
f 741 738 736
f 738 741 740
f 736 429 741
f 736 429 741
f 429 736 431
f 429 736 431
f 427 741 429
f 427 741 429
f 742 740 741
f 741 427 742
f 742 740 741
f 741 427 742
f 739 740 743
f 739 740 743
f 744 743 740
f 740 742 744
f 744 743 740
f 740 742 744
f 743 567 739
f 743 567 739
f 568 739 567
f 568 739 567
f 743 744 745
f 743 744 745
f 745 642 743
f 567 743 642
f 745 642 743
f 567 743 642
f 746 745 744
f 746 745 744
f 747 744 742
f 744 747 746
f 747 744 742
f 744 747 746
f 742 425 747
f 742 425 747
f 425 742 427
f 425 742 427
f 423 747 425
f 423 747 425
f 748 746 747
f 747 423 748
f 748 746 747
f 747 423 748
f 745 746 749
f 745 746 749
f 750 749 746
f 746 748 750
f 750 749 746
f 746 748 750
f 749 641 745
f 749 641 745
f 642 745 641
f 642 745 641
f 749 750 751
f 749 750 751
f 751 633 749
f 641 749 633
f 751 633 749
f 641 749 633
f 752 751 750
f 752 751 750
f 753 750 748
f 750 753 752
f 753 750 748
f 750 753 752
f 748 421 753
f 748 421 753
f 421 748 423
f 421 748 423
f 419 753 421
f 419 753 421
f 696 752 753
f 753 419 696
f 696 752 753
f 753 419 696
f 751 752 754
f 751 752 754
f 755 754 752
f 752 696 755
f 755 754 752
f 752 696 755
f 754 628 751
f 754 628 751
f 633 751 628
f 633 751 628
f 754 755 700
f 754 755 700
f 700 623 754
f 628 754 623
f 700 623 754
f 628 754 623
f 699 700 755
f 699 700 755
f 697 755 696
f 755 697 699
f 697 755 696
f 755 697 699
f 346 391 353
f 346 391 353
f 391 346 345
f 391 346 345
f 394 353 391
f 394 353 391
f 756 352 353
f 353 394 756
f 756 352 353
f 353 394 756
f 350 352 757
f 350 352 757
f 758 757 352
f 352 756 758
f 758 757 352
f 352 756 758
f 757 581 350
f 757 581 350
f 351 350 581
f 351 350 581
f 757 758 759
f 757 758 759
f 759 580 757
f 581 757 580
f 759 580 757
f 581 757 580
f 760 759 758
f 760 759 758
f 761 758 756
f 758 761 760
f 761 758 756
f 758 761 760
f 756 453 761
f 756 453 761
f 453 756 394
f 453 756 394
f 451 761 453
f 451 761 453
f 762 760 761
f 761 451 762
f 762 760 761
f 761 451 762
f 759 760 763
f 759 760 763
f 764 763 760
f 760 762 764
f 764 763 760
f 760 762 764
f 763 579 759
f 763 579 759
f 580 759 579
f 580 759 579
f 763 764 765
f 763 764 765
f 765 578 763
f 579 763 578
f 765 578 763
f 579 763 578
f 766 765 764
f 766 765 764
f 767 764 762
f 764 767 766
f 767 764 762
f 764 767 766
f 762 449 767
f 762 449 767
f 449 762 451
f 449 762 451
f 447 767 449
f 447 767 449
f 717 766 767
f 767 447 717
f 717 766 767
f 767 447 717
f 765 766 712
f 765 766 712
f 713 712 766
f 766 717 713
f 713 712 766
f 766 717 713
f 712 577 765
f 712 577 765
f 578 765 577
f 578 765 577
