v -0.225244746 0.232757628 0.00620710757
v -0.224812478 0.231688529 0.0105977552
v -0.224340186 0.234609738 0.011262564
v -0.224472553 0.231538638 0.0112132877
v -0.224772453 0.229857802 0.00545451045
v -0.224772438 0.235678852 0.00687191682
v -0.224013805 0.228721991 0.0104822777
v -0.224013805 0.234376073 0.0118590295
v -0.224340186 0.228788689 0.00984515809
v -0.223492891 0.228766561 0.0109529663
v -0.223927245 0.231433496 0.0116451178
v -0.222969517 0.237266392 0.0117745064
v -0.223492876 0.234120101 0.0122565329
v -0.222682461 0.236956522 0.0123562859
v -0.222232312 0.23656337 0.0127273584
v -0.22026892 0.238524169 0.0130115049
v -0.220608845 0.239027396 0.0126563851
v -0.220834672 0.23939842 0.0120834671
v -0.223401785 0.238335505 0.00738385739
v -0.218144611 0.240797117 0.012159205
v -0.22126694 0.240467519 0.00769281946
v -0.217995942 0.240385979 0.0127299521
v -0.218576878 0.241866231 0.00776855741
v -0.21779491 0.239810526 0.0130811594
v -0.21516265 0.241325587 0.0119943051
v -0.215099514 0.24089928 0.0125697814
v -0.215052441 0.240296558 0.0129295047
v -0.209835976 0.238760263 0.0120418537
v -0.218622997 0.241955101 0.00675574457
v -0.221268341 0.24057965 0.00668126531
v -0.223367706 0.238483071 0.00637744041
v -0.218598559 0.241838247 0.00578415999
v -0.224715576 0.235870585 0.00587400887
v -0.221143708 0.240514889 0.00571250264
v -0.22316356 0.238497719 0.00542018609
v -0.225180015 0.232997924 0.00522025162
v -0.224460378 0.235984191 0.00493582385
v -0.220832482 0.240185738 0.00483012199
v -0.218468651 0.241414815 0.00489667431
v -0.222708449 0.238312259 0.00455862889
v -0.218262956 0.240773112 0.0041118334
v -0.224907219 0.233220339 0.0043068286
v -0.220390692 0.23966679 0.00405192748
v -0.22391288 0.235977784 0.00410877075
v -0.222079277 0.23798044 0.00380755006
v -0.224715576 0.230146304 0.00448016496
v -0.224327907 0.23341082 0.0035245826
v -0.223163411 0.235879123 0.00340262405
v -0.2234018 0.227263197 0.0046877875
v -0.224460378 0.230476737 0.00359477522
v -0.223367706 0.227594823 0.00372618809
v -0.222969532 0.226194084 0.0090784356
v -0.221266955 0.225227788 0.00398199493
v -0.222682476 0.226201802 0.00973754749
v -0.222232312 0.226380333 0.0102478229
v -0.220268935 0.22450842 0.00959871616
v -0.22060886 0.224224776 0.00905199815
v -0.220834687 0.224158689 0.00837264303
v -0.217794925 0.223334014 0.00906918477
v -0.215052456 0.222972125 0.0087110633
v -0.217995957 0.222984463 0.00849273987
v -0.218576893 0.223950833 0.00340622035
v -0.218144625 0.222881734 0.00779686775
v -0.215099528 0.222602248 0.00811451208
v -0.230898738 -0.24593927 0.00559386751
v -0.230466485 -0.24555631 0.0100965472
v -0.229994178 -0.242575333 0.00979766622
v -0.23012656 -0.245502621 0.0107277865
v -0.230426446 -0.248927876 0.00580271659
v -0.230426446 -0.242958307 0.00529498607
v -0.229667813 -0.248405501 0.0109306462
v -0.229667813 -0.242607147 0.0104374783
v -0.229994193 -0.248544917 0.0103053963
v -0.229146883 -0.24821353 0.01136271
v -0.229581237 -0.245464951 0.0111706359
v -0.228623524 -0.239893824 0.009438009
v -0.229146883 -0.242723405 0.0108957579
v -0.228336468 -0.240002558 0.0100881374
v -0.227886304 -0.240257248 0.0105649875
v -0.225922927 -0.238307908 0.0102107013
v -0.226262853 -0.237943783 0.00971396174
v -0.22648868 -0.237774253 0.00905278325
v -0.229055792 -0.240276784 0.00493532978
v -0.223798618 -0.236424103 0.00867969636
v -0.226920947 -0.238157213 0.00455010356
v -0.223649949 -0.236632347 0.00935157575
v -0.224230886 -0.236807063 0.00417701667
v -0.223448902 -0.237066194 0.00986757874
v -0.220816657 -0.235975534 0.00835526828
v -0.220753521 -0.236196637 0.00903645344
v -0.220706448 -0.236653656 0.00956920814
v -0.215489969 -0.238392487 0.00921630673
v -0.224277005 -0.237044945 0.00318853324
v -0.226922348 -0.238372654 0.00355541799
v -0.229021698 -0.240456998 0.00393424043
v -0.224252567 -0.237464771 0.0023045768
v -0.230369583 -0.243093938 0.0042879181
v -0.226797715 -0.238742203 0.00265756552
v -0.228817552 -0.240747586 0.00302203931
v -0.230834022 -0.246025354 0.0045818314
v -0.230114371 -0.243284643 0.00336232083
v -0.226486489 -0.239334926 0.0019257071
v -0.224122658 -0.238148496 0.00159786362
v -0.228362456 -0.241197452 0.00226421747
v -0.223916963 -0.239006519 0.00105789269
v -0.230561227 -0.246105015 0.0036451011
v -0.2260447 -0.240074441 0.00135299016
v -0.229566887 -0.243553787 0.00258025876
v -0.227733284 -0.241750941 0.00165768934
v -0.230369583 -0.24896428 0.00478720805
v -0.229981914 -0.246173248 0.00284289522
v -0.228817418 -0.243871912 0.00194216438
v -0.229055792 -0.251631618 0.0059010908
v -0.230114385 -0.24893263 0.00384269911
v -0.229021713 -0.251623064 0.00488394732
v -0.228623539 -0.251248658 0.010403771
v -0.226920947 -0.253785819 0.00587936072
v -0.228336468 -0.251031697 0.011026198
v -0.227886319 -0.250700116 0.0114531843
v -0.225922927 -0.252681285 0.011433199
v -0.226262853 -0.253124088 0.0110050905
v -0.22648868 -0.253402829 0.0103820404
v -0.223448917 -0.253963113 0.0113047119
v -0.220706448 -0.254420131 0.0110802986
v -0.223649949 -0.254477888 0.0108693903
v -0.224230886 -0.255179584 0.00573965209
v -0.223798618 -0.254796624 0.0102423318
v -0.220753521 -0.254960567 0.010632378
v 0.225244656 0.232758284 0.00620717928
v 0.224772364 0.235679507 0.00687198807
v 0.224340096 0.234610394 0.0112626357
v 0.222969443 0.237267047 0.0117745772
v 0.224812388 0.231689185 0.0105978269
v 0.224715486 0.23587124 0.00587408058
v 0.224013731 0.234376729 0.0118591012
v 0.22340171 0.238336161 0.0073839291
v 0.224472478 0.231539294 0.0112133604
v 0.223927155 0.231434152 0.0116451904
v 0.224772364 0.229858458 0.00545458216
v 0.223492801 0.228767216 0.010953038
v 0.223492801 0.234120756 0.0122566046
v 0.222682387 0.236957178 0.0123563586
v 0.222232223 0.236564025 0.0127274292
v 0.220834598 0.239399076 0.0120835379
v 0.220608771 0.239028051 0.0126564577
v 0.220268831 0.238524824 0.0130115766
v 0.218144521 0.240797773 0.0121592758
v 0.221266851 0.240468174 0.00769289024
v 0.217995867 0.240386635 0.0127300229
v 0.217794821 0.239811182 0.0130812312
v 0.21516256 0.241326243 0.0119943768
v 0.215099439 0.240899935 0.0125698531
v 0.215052366 0.240297213 0.0129295755
v 0.2121806 0.240932748 0.0116049815
v 0.209835887 0.238760918 0.0120419255
v 0.212202996 0.240517721 0.0121916272
v 0.212309897 0.239935309 0.012571455
v 0.209590092 0.239277408 0.0116323689
v 0.208988085 0.23862341 0.00328352069
v 0.209729314 0.238260582 0.00265980745
v 0.208645165 0.236208335 0.00205335906
v 0.210864037 0.240411982 0.00390372123
v 0.209726557 0.234028399 0.000991023029
v 0.208271608 0.233914673 0.00145808037
v 0.211417899 0.239870504 0.00321806269
v 0.213227883 0.241534069 0.0044096699
v 0.210031793 0.235902503 0.00147741043
v 0.210917622 0.237579331 0.00197292445
v 0.213545635 0.240880519 0.00367347756
v 0.215848222 0.241879851 0.00475184247
v 0.21229732 0.238894761 0.00242906087
v 0.215904251 0.24119176 0.00398147432
v 0.218468562 0.241415471 0.00489674509
v 0.214035839 0.239720017 0.00280116894
v 0.214327395 0.235223785 0.00126206491
v 0.218262866 0.240773767 0.00411190372
v 0.220832407 0.240186393 0.00483019277
v 0.215963006 0.239974335 0.00305282511
v 0.220390603 0.239667445 0.00405199779
v 0.222708359 0.238312915 0.00455870014
v 0.217890173 0.239632785 0.00315939565
v 0.217226565 0.235606357 0.00164064928
v 0.219628707 0.238728851 0.00311044813
v 0.222079188 0.237981096 0.00380762084
v 0.227733538 -0.241751254 0.00165775581
v 0.228362709 -0.241197765 0.00226428383
v 0.229567155 -0.243554085 0.00258032512
v 0.226662755 -0.242633909 0.00100791082
v 0.225283056 -0.24126409 0.000758948852
v 0.228817686 -0.243872225 0.00194223085
v 0.229982167 -0.246173561 0.00284296158
v 0.227548569 -0.244366914 0.00124034833
v 0.222302318 -0.244401515 0.000278418389
v 0.22373651 -0.246365756 0.000583168643
v 0.229191259 -0.246230066 0.00217863475
v 0.227853805 -0.24629344 0.00143350812
v 0.219585344 -0.246399403 0.000187510072
v 0.228817686 -0.248593941 0.002343826
v 0.227548569 -0.248224899 0.00156848179
v 0.229567155 -0.248799741 0.00302648311
v 0.230114639 -0.248932928 0.003842765
v 0.228817835 -0.25149101 0.00393583998
v 0.229021981 -0.251623362 0.00488401297
v 0.226922616 -0.253741741 0.00486264378
v 0.228362724 -0.251175582 0.00311292778
v 0.226797983 -0.253529161 0.0039152801
v 0.224277273 -0.25511235 0.00472525833
v 0.226486772 -0.253068537 0.00309383217
v 0.224252835 -0.254847854 0.00378309726
v 0.221344888 -0.255601019 0.004485304
v 0.221431524 -0.255317986 0.0035522317
v 0.218412489 -0.255159914 0.00416627014
v 0.224122927 -0.254293293 0.00297106546
v 0.226044968 -0.25243637 0.00240444881
v 0.226662755 -0.249972254 0.00163205911
v 0.223917231 -0.253538787 0.00229394506
v 0.221502587 -0.254729956 0.00275664567
v 0.218610197 -0.254893601 0.00324528199
v 0.215767145 -0.253832191 0.00379938516
v 0.21557717 -0.253878087 0.00479819346
v 0.213442311 -0.251758516 0.00441296725
v 0.21366778 -0.251747847 0.00342056272
v 0.212071657 -0.249077007 0.00405331049
v 0.212319911 -0.249110922 0.00306688482
v 0.216065049 -0.253616184 0.0028922942
v 0.214045212 -0.251610786 0.00252782088
v 0.212748393 -0.249073729 0.00218753959
v 0.214642435 -0.251286834 0.00180521025
v 0.216518402 -0.25314936 0.00214371993
v 0.218882248 -0.254335791 0.00247156201
v 0.217072248 -0.252509117 0.00154923438
v 0.215383664 -0.250832617 0.00124453509
v 0.219199985 -0.253577024 0.00184433209
v 0.221558616 -0.25393185 0.00210094196
v 0.21795167 -0.251423895 0.000919240993
v 0.219690204 -0.252296478 0.00116035796
v 0.221617371 -0.252586365 0.00137002731
v 0.223544538 -0.252265215 0.00152772525
v 0.225283056 -0.25136447 0.00161801523
v 0.223340109 -0.247590125 0.000649249356
v 0.223117128 -0.250915438 0.00119488291
v 0.220440939 -0.24807325 0.000412013294
v 0.216571972 -0.250054061 0.000670278852
v 0.21429953 -0.248711646 0.000960060221
v 0.215686142 -0.248321071 0.000437841401
v 0.213925958 -0.246353805 0.000723656267
v 0.215380907 -0.246394545 0.000244681723
v 0.215686142 -0.244463071 0.000109707209
v -0.228817567 -0.251490712 0.00393577386
v -0.229566887 -0.248799428 0.00302641699
v -0.228362456 -0.251175284 0.00311286165
v -0.224122658 -0.254292995 0.00297099887
v -0.226486504 -0.253068238 0.00309376582
v -0.2260447 -0.252436072 0.00240438222
v -0.223916963 -0.253538489 0.0022938787
v -0.227733284 -0.250732183 0.00242157048
v -0.228817418 -0.248593628 0.00234375964
v -0.22919099 -0.246229753 0.00217856839
v -0.227548316 -0.244366601 0.0012402815
v -0.226662487 -0.242633611 0.00100784411
v -0.227853537 -0.246293128 0.00143344153
v -0.227548316 -0.248224586 0.00156841509
v -0.226662487 -0.249971956 0.00163199252
v -0.225282788 -0.241263777 0.00075888203
v -0.223339841 -0.245147511 0.000441456767
v -0.221660659 -0.244304717 0.000208570375
v -0.219686672 -0.245756283 0.000142521574
v -0.220440671 -0.248072937 0.000411946297
v -0.222880661 -0.248053163 0.000644508516
v -0.225282788 -0.251364142 0.00161794852
v -0.22354427 -0.252264917 0.00152765855
v -0.221558347 -0.253931522 0.00210087537
v -0.221617103 -0.252586067 0.00136996061
v -0.219199732 -0.253576726 0.0018442655
v -0.219689935 -0.25229615 0.00116029114
v -0.21707198 -0.252508819 0.00154916767
v -0.217951402 -0.251423597 0.000919174054
v -0.215383396 -0.250832319 0.00124446838
v -0.216571704 -0.250053763 0.000670211914
v -0.215685889 -0.248320773 0.000437774463
v -0.214299262 -0.248711333 0.000959993456
v -0.22316356 0.22802189 0.00286935642
v -0.223912895 0.230862647 0.00286325277
v -0.222708449 0.22858268 0.00218951004
v -0.218468666 0.225672022 0.00106335687
v -0.220832497 0.226794124 0.00156930811
v -0.220390707 0.227612734 0.00111680524
v -0.21826297 0.226602718 0.000661389204
v -0.222079292 0.229222655 0.00167506072
v -0.223163426 0.231274903 0.00228150934
v -0.223536983 0.233568549 0.00287678512
v -0.221894309 0.235633388 0.00257984805
v -0.22100848 0.237350315 0.00291070295
v -0.222199544 0.233745471 0.00215019798
v -0.221894309 0.231871381 0.00166381325
v -0.221008494 0.230194554 0.001168299
v -0.219628781 0.238728195 0.00311037735
v -0.216006666 0.236020207 0.00162140094
v -0.217980653 0.234575704 0.00146401033
v -0.214032665 0.234665051 0.00109707972
v -0.214786664 0.232382998 0.000615641242
v -0.217226654 0.232327789 0.000842417299
v -0.219628796 0.228879124 0.000712162233
v -0.217890278 0.228053868 0.000340053142
v -0.21590434 0.226291478 0.000353392068
v -0.21596311 0.22779955 8.83965913e-05
v -0.213545725 0.22670947 0.00022296235
v -0.214035928 0.228141084 -1.8174429e-05
v -0.211417988 0.227815792 0.000282867841
v -0.21229741 0.229045033 3.0772906e-05
v -0.209729403 0.229502141 0.000527244178
v -0.210917711 0.230422899 0.000230446894
v -0.210031882 0.232139826 0.000561302179
v -0.208645269 0.231603444 0.000932170602
v -0.217951402 -0.241323203 6.01073552e-05
v -0.216571704 -0.242715403 4.60633091e-05
v -0.21707198 -0.240147173 0.000497775269
v -0.215685889 -0.244462758 0.000109640227
v -0.215383396 -0.241851062 0.000480586896
v -0.216518134 -0.239415735 0.000975594332
v -0.215380654 -0.246394232 0.000244614726
v -0.214642167 -0.241308674 0.000956498901
v -0.216064781 -0.238829195 0.00163457892
v -0.214299262 -0.243989617 0.000558397209
v -0.213925689 -0.246353507 0.000723589445
v -0.213437736 -0.24368453 0.00104294368
v -0.214044943 -0.240867332 0.00161401904
v -0.215766877 -0.238463089 0.00249215844
v -0.213022709 -0.246310726 0.0012264665
v -0.212748125 -0.243425414 0.00170709391
v -0.213667512 -0.240581468 0.00247078878
v -0.215576902 -0.238249183 0.00346887042
v -0.213442042 -0.240403369 0.0034471394
v -0.212319642 -0.243240252 0.00256752758
v -0.212071389 -0.243107095 0.00354551361
v -0.212301269 -0.246253043 0.00190469262
v -0.211855203 -0.246179208 0.00277290563
v -0.211599097 -0.246095732 0.0037543634
v -0.213437736 -0.248930201 0.00148910261
v -0.212748125 -0.249073431 0.002187473
v -0.212319642 -0.249110609 0.0030668187
v -0.212071389 -0.249076694 0.00405324483
v -0.213667512 -0.251747549 0.00342049706
v -0.213442042 -0.251758218 0.00441290159
v -0.214044943 -0.251610488 0.00252775452
v -0.214642182 -0.251286536 0.00180514366
v -0.215766877 -0.253831893 0.00379931903
v -0.215576902 -0.253877789 0.0047981278
v -0.216064781 -0.253615856 0.00289222808
v -0.216518134 -0.253149062 0.00214365334
v -0.21841222 -0.255159587 0.00416620402
v -0.218266964 -0.255227923 0.0051712147
v -0.218609929 -0.254893273 0.00324521586
v -0.21888198 -0.254335463 0.00247149542
v -0.22134462 -0.255600721 0.00448523881
v -0.221248925 -0.255676508 0.00549564231
v -0.221431255 -0.255317688 0.00355216581
v -0.221502319 -0.254729658 0.00275657931
v -0.224277005 -0.255112052 0.00472519267
v -0.224252582 -0.254847527 0.0037830316
v -0.226922348 -0.253741443 0.00486257812
v -0.22679773 -0.253528863 0.00391521351
v 0.223912805 0.235978439 0.00410884153
v 0.221008405 0.237350971 0.00291077374
v 0.223163337 0.235879779 0.00340269506
v 0.224327818 0.233411476 0.00352465408
v 0.22189422 0.235634044 0.00257991883
v 0.223536909 0.233569205 0.00287685636
v 0.222199455 0.233746126 0.00215026923
v 0.217980579 0.233324304 0.00115921174
v 0.223163337 0.231275558 0.00228158082
v 0.22189422 0.231872037 0.0016638845
v 0.223912805 0.230863303 0.00286332425
v 0.224460289 0.230477393 0.0035948467
v 0.223163486 0.228022546 0.00286942814
v 0.223367631 0.227595478 0.00372626004
v 0.221268266 0.22559391 0.00303220004
v 0.222708374 0.228583336 0.00218958152
v 0.221143648 0.226096794 0.00220165728
v 0.218622923 0.224338189 0.00246599712
v 0.222079203 0.229223311 0.0016751322
v 0.220832422 0.226794764 0.00156937982
v 0.2185985 0.224888638 0.00165690004
v 0.215690538 0.223951235 0.00208307453
v 0.215777174 0.224516332 0.00128848141
v 0.212758139 0.224470913 0.00192091579
v 0.218468577 0.225672677 0.00106342859
v 0.220390618 0.227613389 0.00111687684
v 0.221008405 0.230195209 0.00116837036
v 0.218262881 0.226603374 0.000661460799
v 0.215848237 0.225326896 0.000721254502
v 0.212955847 0.225016326 0.00113246485
v 0.210112795 0.225846365 0.00199539424
v 0.20992282 0.225485161 0.00292773452
v 0.207787961 0.227617174 0.00323669519
v 0.20801343 0.227942944 0.0022992189
v 0.206417307 0.230273828 0.00374863623
v 0.206665561 0.23055543 0.00280264975
v 0.210410699 0.226339683 0.00120412232
v 0.208390862 0.228356853 0.00149643922
v 0.207094043 0.230870381 0.00198080158
v 0.208988085 0.228893831 0.000914398639
v 0.210864052 0.227020353 0.000642905419
v 0.213227898 0.225791276 0.00057635206
v 0.211417899 0.227816433 0.000282939232
v 0.209729314 0.229502782 0.000527315482
v 0.213545635 0.226710126 0.000223033829
v 0.215904266 0.226292118 0.000353463547
v 0.21229732 0.229045689 3.08441231e-05
v 0.214035854 0.22814174 -1.81029536e-05
v 0.215963021 0.227800205 8.84679248e-05
v 0.217890188 0.228054509 0.000340124592
v 0.219628707 0.22887978 0.000712233596
v 0.21722658 0.232328445 0.000842488371
v 0.215365186 0.232082814 0.000599421735
v 0.210917622 0.230423555 0.000230518039
v 0.20864518 0.231604099 0.000932241557
v 0.210031793 0.232140481 0.000561373075
v 0.213930994 0.234041974 0.000935273652
v 0.230899006 -0.245939583 0.0055939327
v 0.230426714 -0.242958605 0.00529505173
v 0.229994446 -0.242575645 0.00979772955
v 0.228623793 -0.239894137 0.00943807326
v 0.230466738 -0.245556608 0.0100966105
v 0.230369836 -0.243094236 0.00428798376
v 0.229668081 -0.242607459 0.0104375416
v 0.22905606 -0.240277097 0.00493539497
v 0.230126828 -0.245502919 0.0107278498
v 0.229581505 -0.245465264 0.0111706983
v 0.230426714 -0.248928189 0.00580278179
v 0.229147151 -0.248213843 0.0113627734
v 0.229147151 -0.242723703 0.0108958213
v 0.228336737 -0.240002856 0.0100882016
v 0.227886572 -0.240257561 0.0105650509
v 0.226488948 -0.237774566 0.00905284751
v 0.226263121 -0.237944081 0.00971402507
v 0.225923181 -0.238308221 0.0102107646
v 0.223798871 -0.236424416 0.00867976062
v 0.226921201 -0.238157526 0.00455016922
v 0.223650217 -0.23663266 0.00935164001
v 0.223449171 -0.237066507 0.00986764207
v 0.22081691 -0.235975847 0.00835533254
v 0.220753789 -0.236196965 0.00903651677
v 0.220706716 -0.236653969 0.00956927147
v 0.217834949 -0.236472756 0.0081113223
v 0.215490237 -0.2383928 0.00921637099
v 0.217857361 -0.236679628 0.00879950635
v 0.217964247 -0.237110972 0.00934485812
v 0.215244442 -0.238033414 0.0086638052
v 0.214642435 -0.241308987 0.000956565724
v 0.215383664 -0.241851375 0.000480653718
v 0.21429953 -0.243989915 0.000558464031
v 0.216518402 -0.239416048 0.00097566098
v 0.217072248 -0.240147486 0.000497842091
v 0.218882233 -0.238191307 0.00109842641
v 0.216571972 -0.242715716 4.61303607e-05
v 0.219199985 -0.239045069 0.000608346192
v 0.221502572 -0.237754643 0.00131284574
v 0.21795167 -0.241323516 6.01743413e-05
v 0.221558601 -0.238652036 0.000801349466
v 0.224122912 -0.238148808 0.0015979301
v 0.219690189 -0.240422755 0.000150464548
v 0.223917216 -0.239006832 0.00105795939
v 0.226486757 -0.239335239 0.00192577357
v 0.221617356 -0.240101621 0.000308162649
v 0.226044968 -0.240074754 0.00135305687
v 0.223544523 -0.240391523 0.000517832115
v 0.215144888 -0.237866521 0.00797161367
v 0.213010043 -0.240020707 0.00794988312
v 0.218267217 -0.23685573 0.00360864447
v 0.213170826 -0.240125805 0.00864269771
v 0.213526845 -0.240373969 0.00919638481
v 0.215577155 -0.238249496 0.00346893608
v 0.211639389 -0.242724448 0.00804825686
v 0.221249178 -0.236358806 0.00385265518
v 0.211839497 -0.242751986 0.00873824954
v 0.212266266 -0.242860556 0.00928685814
v 0.224231139 -0.236807376 0.00417708233
v 0.212266281 -0.248350695 0.00975381117
v 0.221344873 -0.236604154 0.00286956481
v 0.218412489 -0.237092808 0.00262961048
v 0.215767145 -0.238463402 0.00249222456
v 0.218610197 -0.23751083 0.00176682731
v 0.216065049 -0.238829508 0.00163464539
v 0.221431509 -0.237040684 0.00199769274
v 0.224252835 -0.237465084 0.00230464293
v 0.226922616 -0.238372967 0.00355548388
v 0.229021966 -0.240457311 0.00393430609
v 0.226797983 -0.238742501 0.00265763164
v 0.228817821 -0.240747899 0.00302210543
v 0.230114639 -0.243284941 0.00336238672
v 0.23083429 -0.246025652 0.00458189659
v 0.230561495 -0.246105328 0.00364516699
v 0.230369851 -0.248964578 0.00478727371
v 0.22905606 -0.251631916 0.00590115646
v 0.229994446 -0.248545215 0.0103054596
v 0.226921216 -0.253786117 0.00587942591
v 0.229668081 -0.248405814 0.0109307086
v 0.228623793 -0.251248956 0.0104038343
v 0.227886587 -0.250700414 0.0114532467
v 0.225923195 -0.252681583 0.0114332624
v 0.220706716 -0.254420429 0.0110803619
v 0.226263121 -0.253124386 0.0110051548
v 0.223449185 -0.253963411 0.0113047743
v 0.226488948 -0.253403157 0.0103821037
v 0.223650217 -0.254478186 0.0108694537
v 0.223798886 -0.254796922 0.010242396
v 0.224231154 -0.255179882 0.00573971821
v 0.220753789 -0.254960865 0.0106324423
v 0.217964247 -0.254007906 0.0107819913
v 0.221249193 -0.255676806 0.0054957075
v 0.215490237 -0.252766192 0.0104388688
v 0.217857361 -0.254525155 0.0103173209
v 0.220816925 -0.255293846 0.00999838579
v 0.218267232 -0.255228221 0.00517128035
v 0.217834964 -0.254845262 0.00967395771
v 0.215244457 -0.253213733 0.00995493494
v 0.213526845 -0.250816852 0.0100845816
v 0.213170841 -0.251154959 0.00958075747
v 0.215144902 -0.253495127 0.00930087082
v 0.213010043 -0.251375556 0.00891564507
v 0.211839497 -0.248550355 0.00923141744
v 0.211831912 -0.245609149 0.00947893411
v 0.211380735 -0.245654896 0.00894110836
v 0.211639389 -0.248694032 0.00855598785
v 0.211167082 -0.24571307 0.00825710688
v 0.211599365 -0.24609603 0.00375442929
v 0.212071657 -0.243107408 0.0035455795
v 0.213442311 -0.240403682 0.00344720529
v 0.21366778 -0.240581781 0.0024708549
v 0.212319911 -0.243240565 0.00256759394
v 0.211855456 -0.246179506 0.00277297175
v 0.214045197 -0.240867645 0.00161408552
v 0.212748379 -0.243425727 0.00170716038
v 0.212301537 -0.246253356 0.00190475909
v 0.213438004 -0.243684843 0.00104301039
v 0.213022977 -0.246311039 0.0012265332
v 0.213438004 -0.248930514 0.0014891692
v -0.21229741 0.238894105 0.00242899032
v -0.210917711 0.237578675 0.0019728539
v -0.211417988 0.239869848 0.00321799237
v -0.210031882 0.235901847 0.00147733977
v -0.209729403 0.238259926 0.0026597369
v -0.210864127 0.240411326 0.00390365068
v -0.209726647 0.234027743 0.000990952132
v -0.208988175 0.238622755 0.00328344991
v -0.210410789 0.240757793 0.00471497141
v -0.208645254 0.236207679 0.00205328828
v -0.208271697 0.233914018 0.00145800947
v -0.207783744 0.236342803 0.00260970765
v -0.208390936 0.238832042 0.00404720102
v -0.21011287 0.240832105 0.005644463
v -0.207368717 0.233794615 0.00194837432
v -0.207094118 0.236377209 0.00332178292
v -0.20801352 0.238830552 0.00495040324
v -0.209922895 0.240724251 0.00663849013
v -0.20778805 0.238688856 0.00593269803
v -0.20666565 0.23627907 0.00419642637
v -0.206417397 0.236094236 0.00516597554
v -0.206647277 0.233633578 0.00260972558
v -0.206201196 0.233427435 0.00345633621
v -0.205945104 0.233194396 0.00441337423
v -0.207783744 0.231227651 0.00136418606
v -0.207094133 0.230869725 0.00198073057
v -0.20666565 0.230554774 0.0028025785
v -0.206417397 0.230273172 0.00374856498
v -0.20801352 0.227942288 0.00229914743
v -0.20778805 0.227616534 0.00323662371
v -0.208390951 0.228356197 0.00149636785
v -0.208988175 0.228893176 0.000914327451
v -0.210112885 0.225845709 0.00199532229
v -0.20992291 0.225484505 0.00292766257
v -0.210410789 0.226339027 0.00120405096
v -0.210864142 0.227019697 0.00064283394
v -0.212758228 0.224470258 0.00192084385
v -0.212612972 0.224085808 0.00285192509
v -0.212955937 0.225015685 0.00113239314
v -0.213227987 0.22579062 0.000576280407
v -0.215690613 0.22395058 0.00208300259
v -0.215594932 0.223557338 0.00301682483
v -0.215777263 0.224515676 0.00128840969
v -0.215848327 0.22532624 0.000721182907
v -0.218623012 0.224337533 0.00246592495
v -0.218598574 0.224887982 0.00165682833
v -0.221268356 0.225593254 0.00303212809
v -0.221143723 0.226096138 0.00220158556
v -0.212309986 0.223458141 0.00855940767
v -0.215162665 0.222488225 0.00740747247
v -0.2122031 0.223115548 0.00795434322
v -0.209835976 0.224744514 0.00862906221
v -0.206612021 0.229148582 0.00938403327
v -0.212180704 0.223016694 0.00724257249
v -0.209590197 0.224474132 0.00802790746
v -0.207872584 0.226705298 0.00891320873
v -0.207516581 0.226545006 0.0083280066
v -0.209490642 0.224415392 0.00731830997
v -0.207355782 0.22654742 0.00762727112
v -0.206185237 0.229125455 0.00882526394
v -0.206177652 0.231835172 0.0099954484
v -0.206612021 0.234502122 0.0106876045
v -0.205726489 0.231962875 0.0094710039
v -0.205985129 0.229204074 0.00813921262
v -0.206185237 0.234779552 0.0102020185
v -0.205512837 0.232125282 0.0088040214
v -0.207872584 0.236888349 0.0113927471
v -0.207516581 0.23729974 0.0109467488
v -0.205985129 0.235025138 0.00955662224
v -0.207355782 0.237619743 0.0103233457
v -0.209590182 0.239276752 0.0116322981
v -0.212309986 0.239934653 0.0125713833
v -0.212203085 0.240517065 0.0121915564
v -0.209490627 0.239655137 0.0110291373
v -0.212180689 0.240932077 0.0116049107
v -0.215594918 0.242394686 0.0076036579
v -0.212612957 0.242001191 0.00721426308
v -0.215690613 0.242474794 0.00659358688
v -0.212758213 0.242087826 0.00621066522
v -0.212955937 0.241965935 0.00525972666
v -0.215777248 0.24233824 0.0056281439
v -0.213227972 0.241533414 0.00440959958
v -0.215848312 0.241879195 0.00475177215
v -0.213545725 0.240879864 0.00367340725
v -0.21590434 0.241191104 0.00398140401
v -0.214035928 0.239719361 0.0028010984
v -0.215963095 0.239973679 0.00305275456
v -0.217890263 0.239632145 0.0031593251
v 0.209490538 0.239655793 0.0110292081
v 0.207355693 0.237620398 0.0103234164
v 0.212612867 0.242001846 0.00721433433
v 0.207516477 0.237300396 0.0109468205
v 0.207872495 0.236889005 0.0113928188
v 0.209922805 0.240724906 0.00663856091
v 0.205985039 0.235025793 0.00955669302
v 0.215594828 0.242395341 0.00760372914
v 0.206185147 0.234780207 0.0102020903
v 0.206611916 0.234502777 0.0106876753
v 0.218576789 0.241866887 0.00776862819
v 0.206611931 0.229149237 0.00938410591
v 0.218622908 0.241955757 0.00675581535
v 0.215690523 0.24247545 0.00659365766
v 0.212758139 0.242088482 0.00621073553
v 0.21011278 0.240832761 0.00564453378
v 0.212955847 0.241966605 0.00525979698
v 0.210410699 0.240758449 0.00471504172
v 0.215777159 0.242338896 0.00562821468
v 0.218598485 0.241838902 0.00578423077
v 0.221268252 0.240580305 0.00668133656
v 0.223367617 0.238483727 0.00637751166
v 0.221143633 0.240515545 0.00571257388
v 0.223163471 0.238498375 0.00542025734
v 0.224460289 0.235984847 0.00493589509
v 0.22517994 0.23299858 0.00522032334
v 0.224907145 0.233220994 0.00430689985
v 0.22340171 0.227263838 0.00468785968
v 0.224340096 0.228789344 0.0098452298
v 0.221266866 0.225228444 0.00398206711
v 0.224013731 0.228722647 0.0104823513
v 0.222969458 0.226194739 0.00907850731
v 0.222682387 0.226202458 0.00973762013
v 0.222232237 0.226380989 0.0102478955
v 0.220268846 0.22450906 0.00959878881
v 0.215052366 0.22297278 0.00871113595
v 0.220608786 0.224225432 0.00905207172
v 0.217794836 0.22333467 0.00906925742
v 0.220834598 0.22415933 0.00837271474
v 0.217995867 0.222985119 0.00849281251
v 0.218144536 0.22288239 0.00779694039
v 0.218576804 0.223951489 0.00340629253
v 0.215099439 0.222602889 0.00811458472
v 0.212309912 0.223458797 0.00855948031
v 0.215594843 0.223557994 0.00301689701
v 0.209835887 0.224745169 0.00862913486
v 0.212203011 0.223116204 0.00795441587
v 0.215162575 0.22248888 0.00740754465
v 0.212612882 0.224086449 0.00285199704
v 0.212180614 0.22301735 0.00724264467
v 0.209590107 0.224474788 0.0080279801
v 0.207872495 0.226705953 0.00891328137
v 0.207516491 0.226545662 0.00832807831
v 0.209490553 0.224416047 0.00731838169
v 0.207355693 0.226548076 0.00762734283
v 0.206185147 0.229126096 0.00882533565
v 0.206177562 0.231835827 0.00999552011
v 0.2057264 0.23196353 0.00947107561
v 0.205985039 0.229204714 0.0081392834
v 0.205512732 0.232125938 0.00880409312
v 0.205945015 0.233195052 0.00441344548
v 0.206417307 0.236094892 0.00516604586
v 0.207787961 0.238689512 0.00593276881
v 0.20801343 0.238831207 0.00495047402
v 0.206665561 0.236279726 0.00419649715
v 0.206201106 0.233428091 0.00345640723
v 0.208390847 0.238832697 0.0040472718
v 0.207094029 0.236377865 0.0033218537
v 0.206647187 0.233634233 0.00260979636
v 0.207783654 0.236343458 0.00260977843
v 0.207368627 0.23379527 0.00194844534
v 0.207783654 0.231228307 0.00136425707
v -0.217963994 -0.254007578 0.010781928
v -0.220816657 -0.255293548 0.00999832153
v -0.217857093 -0.254524857 0.0103172567
v -0.215489969 -0.252765864 0.0104388054
v -0.212266013 -0.248350397 0.00975374784
v -0.217834696 -0.254844964 0.00967389345
v -0.215244189 -0.253213435 0.00995487161
v -0.213526577 -0.250816524 0.0100845182
v -0.213170573 -0.251154661 0.00958069321
v -0.215144634 -0.253494799 0.00930080656
v -0.213009775 -0.251375228 0.00891558081
v -0.211839229 -0.248550043 0.00923135318
v -0.211831644 -0.245608836 0.00947887078
v -0.212266013 -0.242860243 0.00928679481
v -0.211380482 -0.245654583 0.0089410441
v -0.211639121 -0.248693734 0.00855592452
v -0.211839229 -0.242751673 0.00873818528
v -0.211166829 -0.245712757 0.00825704262
v -0.213526577 -0.240373656 0.00919632148
v -0.213170573 -0.240125492 0.00864263345
v -0.211639121 -0.242724136 0.0080481926
v -0.213009775 -0.240020394 0.00794981886
v -0.215244189 -0.238033101 0.00866374094
v -0.217963979 -0.237110659 0.00934479479
v -0.217857093 -0.236679316 0.00879944209
v -0.215144634 -0.237866208 0.00797154941
v -0.217834696 -0.236472443 0.00811125804
v -0.221248925 -0.236358494 0.00385258929
v -0.218266964 -0.236855417 0.00360857858
v -0.21841222 -0.237092495 0.00262954459
v -0.218609929 -0.237510517 0.00176676083
v -0.221431255 -0.237040371 0.00199762662
v -0.21888198 -0.238190979 0.00109835982
v -0.221502319 -0.23775433 0.00131277915
v -0.219199717 -0.239044756 0.000608279428
v -0.221558332 -0.238651723 0.000801282702
v -0.219689935 -0.240422443 0.000150397507
v -0.221617103 -0.240101308 0.000308095769
v -0.22354427 -0.24039121 0.000517765293
f 1 2 3
f 3 2 4
f 2 1 5
f 3 6 1
f 7 4 2
f 4 8 3
f 2 9 7
f 5 9 2
f 4 7 10
f 8 4 11
f 10 11 4
f 12 3 8
f 6 3 12
f 11 13 8
f 11 10 13
f 8 14 12
f 14 8 13
f 13 15 14
f 16 15 13
f 10 16 13
f 17 14 15
f 15 16 17
f 18 12 14
f 14 17 18
f 19 12 18
f 12 19 6
f 20 18 17
f 18 21 19
f 21 18 20
f 17 22 20
f 22 17 16
f 20 23 21
f 16 24 22
f 25 20 22
f 23 20 25
f 26 22 24
f 22 26 25
f 27 24 16
f 24 27 26
f 28 27 16
f 21 23 29
f 10 28 16
f 19 21 30
f 29 30 21
f 30 31 19
f 6 19 31
f 30 29 32
f 31 33 6
f 1 6 33
f 31 30 34
f 32 34 30
f 33 31 35
f 34 35 31
f 33 36 1
f 5 1 36
f 35 37 33
f 36 33 37
f 35 34 38
f 34 32 39
f 39 38 34
f 38 40 35
f 37 35 40
f 38 39 41
f 37 42 36
f 40 38 43
f 41 43 38
f 40 44 37
f 42 37 44
f 43 45 40
f 44 40 45
f 46 36 42
f 36 46 5
f 44 47 42
f 45 48 44
f 47 44 48
f 49 5 46
f 9 5 49
f 42 50 46
f 50 42 47
f 46 51 49
f 51 46 50
f 49 52 9
f 53 49 51
f 52 49 53
f 9 52 54
f 54 7 9
f 7 54 55
f 55 10 7
f 56 55 54
f 10 55 56
f 57 54 52
f 54 57 56
f 53 58 52
f 52 58 57
f 59 56 57
f 10 56 60
f 56 59 60
f 57 61 59
f 61 57 58
f 60 59 61
f 58 53 62
f 58 63 61
f 62 63 58
f 64 61 63
f 61 64 60
f 65 66 67
f 67 66 68
f 66 65 69
f 67 70 65
f 71 68 66
f 68 72 67
f 66 73 71
f 69 73 66
f 68 71 74
f 72 68 75
f 74 75 68
f 76 67 72
f 70 67 76
f 75 77 72
f 75 74 77
f 72 78 76
f 78 72 77
f 77 79 78
f 80 79 77
f 74 80 77
f 81 78 79
f 79 80 81
f 82 76 78
f 78 81 82
f 83 76 82
f 76 83 70
f 84 82 81
f 82 85 83
f 85 82 84
f 81 86 84
f 86 81 80
f 84 87 85
f 80 88 86
f 89 84 86
f 87 84 89
f 90 86 88
f 86 90 89
f 91 88 80
f 88 91 90
f 92 91 80
f 85 87 93
f 74 92 80
f 83 85 94
f 93 94 85
f 94 95 83
f 70 83 95
f 94 93 96
f 95 97 70
f 65 70 97
f 95 94 98
f 96 98 94
f 97 95 99
f 98 99 95
f 97 100 65
f 69 65 100
f 99 101 97
f 100 97 101
f 99 98 102
f 98 96 103
f 103 102 98
f 102 104 99
f 101 99 104
f 102 103 105
f 101 106 100
f 104 102 107
f 105 107 102
f 104 108 101
f 106 101 108
f 107 109 104
f 108 104 109
f 110 100 106
f 100 110 69
f 108 111 106
f 109 112 108
f 111 108 112
f 113 69 110
f 73 69 113
f 106 114 110
f 114 106 111
f 110 115 113
f 115 110 114
f 113 116 73
f 117 113 115
f 116 113 117
f 73 116 118
f 118 71 73
f 71 118 119
f 119 74 71
f 120 119 118
f 74 119 120
f 121 118 116
f 118 121 120
f 117 122 116
f 116 122 121
f 123 120 121
f 74 120 124
f 120 123 124
f 121 125 123
f 125 121 122
f 124 123 125
f 122 117 126
f 122 127 125
f 126 127 122
f 128 125 127
f 125 128 124
f 129 130 131
f 132 131 130
f 131 133 129
f 134 130 129
f 135 131 132
f 130 136 132
f 131 135 137
f 137 133 131
f 138 137 135
f 139 129 133
f 137 138 140
f 135 141 138
f 138 141 140
f 141 135 142
f 132 142 135
f 142 143 141
f 142 132 144
f 144 132 136
f 143 142 145
f 144 145 142
f 141 143 146
f 145 146 143
f 141 146 140
f 145 144 147
f 136 148 144
f 147 144 148
f 147 149 145
f 146 145 149
f 149 150 146
f 149 147 151
f 150 149 152
f 151 152 149
f 152 153 150
f 146 150 153
f 152 151 154
f 146 153 155
f 146 155 140
f 153 152 156
f 154 156 152
f 156 157 153
f 153 157 155
f 157 156 158
f 158 155 157
f 159 160 161
f 160 159 162
f 163 164 161
f 162 165 160
f 165 162 166
f 167 161 160
f 161 167 163
f 168 160 165
f 160 168 167
f 166 169 165
f 169 166 170
f 165 171 168
f 171 165 169
f 170 172 169
f 172 170 173
f 169 174 171
f 174 169 172
f 175 167 168
f 173 176 172
f 176 173 177
f 172 178 174
f 178 172 176
f 175 171 174
f 177 179 176
f 179 177 180
f 176 181 178
f 181 176 179
f 174 182 175
f 182 174 178
f 175 168 171
f 182 178 181
f 179 183 181
f 183 182 181
f 183 179 184
f 180 184 179
f 185 186 187
f 185 188 189
f 187 190 185
f 188 185 190
f 190 187 191
f 188 192 189
f 193 189 192
f 190 192 188
f 192 194 193
f 192 190 195
f 191 195 190
f 195 196 192
f 194 192 196
f 197 193 194
f 196 195 198
f 198 199 196
f 195 191 200
f 200 198 195
f 201 200 191
f 200 201 202
f 203 202 201
f 202 203 204
f 202 205 200
f 198 200 205
f 204 206 202
f 205 202 206
f 206 204 207
f 199 198 205
f 206 208 205
f 207 209 206
f 208 206 209
f 209 207 210
f 210 211 209
f 211 210 212
f 209 213 208
f 213 209 211
f 208 214 205
f 214 208 213
f 215 205 214
f 205 215 199
f 213 216 214
f 211 217 213
f 216 213 217
f 217 211 218
f 212 218 211
f 199 215 196
f 194 196 215
f 218 212 219
f 220 219 212
f 219 220 221
f 221 222 219
f 222 221 223
f 223 224 222
f 225 219 222
f 219 225 218
f 226 222 224
f 222 226 225
f 224 227 226
f 228 226 227
f 229 225 226
f 226 228 229
f 230 218 225
f 225 229 230
f 218 230 217
f 231 229 228
f 228 232 231
f 233 230 229
f 229 231 233
f 234 217 230
f 230 233 234
f 217 234 216
f 235 231 232
f 236 233 231
f 231 235 236
f 237 234 233
f 233 236 237
f 238 216 234
f 234 237 238
f 216 238 239
f 239 214 216
f 214 239 215
f 215 240 194
f 240 215 239
f 238 241 239
f 240 239 241
f 241 238 237
f 237 236 241
f 240 241 236
f 236 242 240
f 240 242 194
f 242 197 194
f 242 236 235
f 232 243 235
f 243 232 244
f 242 235 243
f 244 245 243
f 245 244 246
f 246 247 245
f 242 243 245
f 245 197 242
f 197 245 247
f 197 247 248
f 249 114 250
f 250 251 249
f 111 250 114
f 252 253 254
f 254 255 252
f 253 251 256
f 256 254 253
f 251 250 257
f 257 256 251
f 250 111 258
f 258 257 250
f 112 258 111
f 258 112 259
f 260 259 112
f 257 258 261
f 259 261 258
f 256 257 262
f 261 262 257
f 262 263 256
f 254 256 263
f 260 264 265
f 266 265 264
f 259 260 265
f 261 259 265
f 265 266 267
f 262 261 265
f 265 267 268
f 265 269 262
f 262 269 263
f 265 268 269
f 270 263 269
f 263 270 254
f 255 254 270
f 270 271 255
f 271 270 269
f 272 255 271
f 271 273 272
f 274 272 273
f 273 271 269
f 273 275 274
f 276 274 275
f 275 277 276
f 278 276 277
f 275 273 269
f 269 268 275
f 277 275 268
f 279 277 268
f 280 279 268
f 277 279 278
f 279 280 281
f 281 278 279
f 282 50 283
f 283 284 282
f 47 283 50
f 285 286 287
f 287 288 285
f 286 284 289
f 289 287 286
f 284 283 290
f 290 289 284
f 283 47 291
f 291 290 283
f 48 291 47
f 291 48 292
f 293 292 48
f 290 291 294
f 292 294 291
f 289 290 295
f 294 295 290
f 295 296 289
f 287 289 296
f 293 297 298
f 298 299 293
f 292 293 299
f 294 292 299
f 299 298 300
f 295 294 299
f 299 300 301
f 296 295 299
f 299 302 296
f 299 301 302
f 296 303 287
f 288 287 303
f 303 296 302
f 303 304 288
f 305 288 304
f 304 303 302
f 304 306 305
f 307 305 306
f 306 304 302
f 306 308 307
f 309 307 308
f 308 310 309
f 311 309 310
f 308 306 302
f 302 301 308
f 310 308 301
f 312 310 301
f 313 312 301
f 310 312 311
f 312 313 314
f 314 311 312
f 315 316 267
f 316 315 317
f 316 318 267
f 317 319 316
f 319 317 320
f 318 316 319
f 318 321 267
f 320 322 319
f 322 320 323
f 319 324 318
f 324 319 322
f 268 267 321
f 321 318 324
f 321 280 268
f 324 325 321
f 280 321 325
f 325 324 326
f 322 326 324
f 325 281 280
f 326 322 327
f 323 327 322
f 327 323 328
f 326 329 325
f 281 325 329
f 327 330 326
f 329 326 330
f 328 331 327
f 330 327 331
f 331 328 332
f 332 333 331
f 334 331 333
f 331 334 330
f 333 335 334
f 330 336 329
f 336 330 334
f 337 334 335
f 334 337 336
f 335 338 337
f 339 329 336
f 329 339 281
f 340 336 337
f 336 340 339
f 341 337 338
f 337 341 340
f 338 342 341
f 343 341 342
f 342 344 343
f 345 340 341
f 341 343 345
f 346 339 340
f 340 345 346
f 339 346 278
f 278 281 339
f 347 343 344
f 344 348 347
f 349 345 343
f 343 347 349
f 350 346 345
f 345 349 350
f 276 278 346
f 346 350 276
f 351 347 348
f 348 352 351
f 353 349 347
f 347 351 353
f 354 350 349
f 349 353 354
f 274 276 350
f 350 354 274
f 355 351 352
f 352 356 355
f 357 353 351
f 351 355 357
f 358 354 353
f 353 357 358
f 272 274 354
f 354 358 272
f 359 355 356
f 356 126 359
f 360 357 355
f 355 359 360
f 252 358 357
f 357 360 252
f 255 272 358
f 358 252 255
f 361 359 126
f 126 117 361
f 115 361 117
f 359 361 362
f 362 360 359
f 361 115 249
f 249 362 361
f 114 249 115
f 360 362 253
f 253 252 360
f 362 249 251
f 251 253 362
f 184 180 363
f 184 364 183
f 182 183 364
f 363 365 184
f 364 184 365
f 365 363 366
f 365 367 364
f 182 364 367
f 367 365 368
f 366 368 365
f 368 369 367
f 367 370 182
f 370 367 369
f 175 182 370
f 369 368 371
f 371 372 369
f 368 366 373
f 373 371 368
f 374 373 366
f 373 374 375
f 376 375 374
f 375 376 377
f 375 378 373
f 371 373 378
f 377 379 375
f 378 375 379
f 379 377 380
f 378 381 371
f 372 371 381
f 379 382 378
f 381 378 382
f 380 383 379
f 382 379 383
f 383 380 384
f 384 385 383
f 385 384 386
f 383 387 382
f 387 383 385
f 382 388 381
f 388 382 387
f 389 381 388
f 381 389 372
f 387 390 388
f 385 391 387
f 390 387 391
f 391 385 392
f 386 392 385
f 370 372 389
f 372 370 369
f 392 386 393
f 394 393 386
f 393 394 395
f 395 396 393
f 396 395 397
f 397 398 396
f 399 393 396
f 393 399 392
f 400 396 398
f 396 400 399
f 398 401 400
f 402 400 401
f 403 399 400
f 400 402 403
f 404 392 399
f 399 403 404
f 392 404 391
f 405 403 402
f 402 406 405
f 407 404 403
f 403 405 407
f 408 391 404
f 404 407 408
f 391 408 390
f 409 405 406
f 410 407 405
f 405 409 410
f 411 408 407
f 407 410 411
f 412 390 408
f 408 411 412
f 390 412 413
f 413 388 390
f 388 413 389
f 389 414 370
f 414 389 413
f 414 413 412
f 414 412 411
f 411 415 414
f 415 411 410
f 414 415 370
f 415 175 370
f 415 410 409
f 406 416 409
f 416 406 417
f 415 409 416
f 417 418 416
f 418 417 164
f 164 163 418
f 415 416 418
f 418 419 415
f 419 418 163
f 419 163 167
f 415 419 175
f 167 175 419
f 420 421 422
f 423 422 421
f 422 424 420
f 425 421 420
f 426 422 423
f 421 427 423
f 422 426 428
f 428 424 422
f 429 428 426
f 430 420 424
f 428 429 431
f 426 432 429
f 429 432 431
f 432 426 433
f 423 433 426
f 433 434 432
f 433 423 435
f 435 423 427
f 434 433 436
f 435 436 433
f 432 434 437
f 436 437 434
f 432 437 431
f 436 435 438
f 427 439 435
f 438 435 439
f 438 440 436
f 437 436 440
f 440 441 437
f 440 438 442
f 441 440 443
f 442 443 440
f 443 444 441
f 437 441 444
f 443 442 445
f 437 444 446
f 437 446 431
f 444 443 447
f 445 447 443
f 447 448 444
f 444 448 446
f 448 447 449
f 449 446 448
f 450 451 452
f 451 450 453
f 247 246 452
f 453 454 451
f 454 453 455
f 248 452 451
f 452 248 247
f 456 451 454
f 451 456 248
f 455 457 454
f 457 455 458
f 454 459 456
f 459 454 457
f 458 460 457
f 460 458 461
f 457 462 459
f 462 457 460
f 197 248 456
f 461 463 460
f 463 461 464
f 460 465 462
f 465 460 463
f 193 459 462
f 464 466 463
f 466 464 186
f 463 467 465
f 467 463 466
f 193 462 465
f 459 193 197
f 197 456 459
f 193 465 467
f 466 189 467
f 193 467 189
f 189 466 185
f 186 185 466
f 468 449 447
f 447 445 468
f 449 468 469
f 468 445 470
f 446 449 471
f 469 471 449
f 471 472 446
f 469 468 473
f 470 473 468
f 471 469 474
f 475 470 445
f 445 442 475
f 472 471 476
f 474 476 471
f 476 477 472
f 446 472 477
f 478 475 442
f 442 438 478
f 439 478 438
f 446 477 479
f 480 475 478
f 475 480 481
f 481 470 475
f 446 479 431
f 470 481 482
f 482 473 470
f 483 481 480
f 484 482 481
f 481 483 484
f 480 485 483
f 485 480 478
f 453 484 483
f 455 483 485
f 483 455 453
f 478 486 485
f 485 458 455
f 458 485 486
f 486 478 487
f 439 487 478
f 487 439 427
f 427 488 487
f 488 427 421
f 421 425 488
f 489 487 488
f 487 489 486
f 490 488 425
f 488 490 489
f 461 486 489
f 486 461 458
f 464 489 490
f 489 464 461
f 425 491 490
f 490 186 464
f 186 490 491
f 491 425 492
f 420 492 425
f 492 420 430
f 492 493 491
f 491 187 186
f 187 491 493
f 493 492 494
f 430 494 492
f 493 191 187
f 494 201 493
f 191 493 201
f 201 494 203
f 494 430 495
f 495 203 494
f 495 430 496
f 424 496 430
f 203 495 497
f 498 496 424
f 424 428 498
f 431 498 428
f 496 499 495
f 497 495 499
f 496 498 499
f 498 431 500
f 500 499 498
f 501 500 431
f 499 500 501
f 502 501 431
f 501 503 499
f 503 501 504
f 502 504 501
f 503 505 499
f 499 505 497
f 504 506 503
f 505 503 506
f 506 504 502
f 479 502 431
f 506 507 505
f 508 497 505
f 505 507 508
f 507 506 509
f 502 509 506
f 509 502 510
f 204 497 508
f 497 204 203
f 511 508 507
f 512 510 502
f 479 512 502
f 510 513 509
f 513 510 512
f 509 514 507
f 514 509 513
f 507 514 511
f 207 508 511
f 508 207 204
f 515 511 514
f 513 516 514
f 514 516 515
f 516 513 517
f 512 517 513
f 517 512 518
f 479 518 512
f 518 519 517
f 519 518 479
f 517 520 516
f 520 517 519
f 220 515 516
f 516 520 220
f 210 511 515
f 511 210 207
f 212 515 220
f 515 212 210
f 221 220 520
f 519 521 520
f 520 521 221
f 521 519 522
f 479 522 519
f 522 479 523
f 477 523 479
f 524 523 477
f 523 524 522
f 477 476 524
f 522 525 521
f 525 522 524
f 526 524 476
f 524 526 525
f 476 474 526
f 521 525 223
f 223 221 521
f 525 526 527
f 527 223 525
f 526 474 528
f 528 527 526
f 529 528 474
f 474 469 529
f 473 529 469
f 530 529 473
f 473 482 530
f 531 528 529
f 529 530 531
f 532 527 528
f 528 531 532
f 527 532 224
f 224 223 527
f 533 530 482
f 482 484 533
f 534 531 530
f 530 533 534
f 535 532 531
f 531 534 535
f 227 224 532
f 532 535 227
f 450 533 484
f 484 453 450
f 536 534 533
f 533 450 536
f 537 535 534
f 534 536 537
f 538 227 535
f 535 537 538
f 227 538 228
f 452 536 450
f 246 537 536
f 536 452 246
f 244 538 537
f 537 246 244
f 538 244 232
f 232 228 538
f 539 540 300
f 540 539 541
f 540 542 300
f 541 543 540
f 543 541 544
f 542 540 543
f 542 545 300
f 544 546 543
f 546 544 547
f 543 548 542
f 548 543 546
f 301 300 545
f 545 542 548
f 545 313 301
f 548 549 545
f 313 545 549
f 549 548 550
f 546 550 548
f 549 314 313
f 550 546 551
f 547 551 546
f 551 547 552
f 550 553 549
f 314 549 553
f 551 554 550
f 553 550 554
f 552 555 551
f 554 551 555
f 555 552 556
f 556 557 555
f 558 555 557
f 555 558 554
f 557 559 558
f 554 560 553
f 560 554 558
f 561 558 559
f 558 561 560
f 559 562 561
f 563 553 560
f 553 563 314
f 564 560 561
f 560 564 563
f 565 561 562
f 561 565 564
f 562 566 565
f 567 565 566
f 566 568 567
f 569 564 565
f 565 567 569
f 570 563 564
f 564 569 570
f 563 570 311
f 311 314 563
f 571 567 568
f 568 572 571
f 573 569 567
f 567 571 573
f 574 570 569
f 569 573 574
f 309 311 570
f 570 574 309
f 575 571 572
f 572 576 575
f 577 573 571
f 571 575 577
f 578 574 573
f 573 577 578
f 307 309 574
f 574 578 307
f 579 575 576
f 576 580 579
f 581 577 575
f 575 579 581
f 582 578 577
f 577 581 582
f 305 307 578
f 578 582 305
f 583 579 580
f 580 62 583
f 584 581 579
f 579 583 584
f 285 582 581
f 581 584 285
f 288 305 582
f 582 285 288
f 585 583 62
f 62 53 585
f 51 585 53
f 583 585 586
f 586 584 583
f 585 51 282
f 282 586 585
f 50 282 51
f 584 586 286
f 286 285 584
f 586 282 284
f 284 286 586
f 63 62 580
f 587 60 64
f 63 588 64
f 580 588 63
f 64 589 587
f 589 64 588
f 60 587 590
f 590 587 589
f 60 590 591
f 10 60 591
f 10 591 28
f 588 592 589
f 589 593 590
f 593 589 592
f 594 590 593
f 590 594 591
f 593 595 594
f 591 594 595
f 592 596 593
f 595 593 596
f 576 592 588
f 588 580 576
f 572 596 592
f 592 576 572
f 596 597 595
f 595 598 591
f 598 595 597
f 599 591 598
f 568 597 596
f 596 572 568
f 591 599 600
f 598 601 599
f 600 599 601
f 591 600 28
f 601 598 602
f 597 602 598
f 601 603 600
f 566 602 597
f 597 568 566
f 602 604 601
f 603 601 604
f 605 600 603
f 600 605 28
f 603 606 605
f 28 605 606
f 604 607 603
f 606 603 607
f 562 604 602
f 602 566 562
f 559 607 604
f 604 562 559
f 607 608 606
f 606 609 28
f 609 606 608
f 610 28 609
f 28 610 27
f 27 610 611
f 609 611 610
f 611 26 27
f 608 612 609
f 611 609 612
f 26 611 613
f 612 613 611
f 613 25 26
f 614 25 613
f 25 614 23
f 615 613 612
f 613 615 614
f 556 612 608
f 612 556 615
f 608 557 556
f 557 608 607
f 607 559 557
f 23 614 616
f 616 29 23
f 614 615 617
f 617 616 614
f 552 617 615
f 615 556 552
f 616 617 618
f 29 616 619
f 618 619 616
f 619 32 29
f 547 618 617
f 617 552 547
f 619 618 620
f 32 619 621
f 620 621 619
f 621 39 32
f 544 620 618
f 618 547 544
f 621 620 622
f 39 621 623
f 622 623 621
f 623 41 39
f 541 622 620
f 620 544 541
f 623 622 624
f 41 623 625
f 624 625 623
f 625 626 41
f 43 41 626
f 622 541 539
f 539 624 622
f 626 297 43
f 45 43 297
f 297 293 45
f 48 45 293
f 626 625 298
f 297 626 298
f 625 624 298
f 300 298 624
f 624 539 300
f 627 158 156
f 156 154 627
f 158 627 628
f 627 154 629
f 155 158 630
f 628 630 158
f 630 631 155
f 628 627 632
f 629 632 627
f 630 628 633
f 634 629 154
f 154 151 634
f 631 630 635
f 633 635 630
f 635 636 631
f 155 631 636
f 637 634 151
f 151 147 637
f 148 637 147
f 155 636 638
f 639 637 148
f 640 634 637
f 637 639 640
f 634 640 641
f 641 629 634
f 155 638 140
f 629 641 642
f 642 632 629
f 643 641 640
f 644 642 641
f 641 643 644
f 640 645 643
f 645 640 639
f 162 644 643
f 166 643 645
f 643 166 162
f 639 646 645
f 645 170 166
f 170 645 646
f 646 639 647
f 148 647 639
f 647 148 136
f 136 648 647
f 648 136 130
f 130 134 648
f 649 647 648
f 647 649 646
f 650 648 134
f 648 650 649
f 173 646 649
f 646 173 170
f 177 649 650
f 649 177 173
f 134 651 650
f 650 180 177
f 180 650 651
f 651 134 652
f 129 652 134
f 652 129 139
f 652 653 651
f 651 363 180
f 363 651 653
f 653 652 374
f 139 374 652
f 653 366 363
f 366 653 374
f 374 139 654
f 654 376 374
f 654 139 655
f 133 655 139
f 376 654 656
f 657 655 133
f 133 137 657
f 140 657 137
f 655 658 654
f 656 654 658
f 655 657 659
f 659 658 655
f 657 140 660
f 660 659 657
f 661 660 140
f 659 660 661
f 662 661 140
f 658 659 663
f 661 663 659
f 663 661 664
f 662 664 661
f 663 665 658
f 658 665 656
f 664 666 663
f 665 663 666
f 666 664 662
f 638 662 140
f 666 667 665
f 668 656 665
f 665 667 668
f 667 666 669
f 662 669 666
f 669 662 670
f 377 656 668
f 656 377 376
f 671 668 667
f 672 670 662
f 638 672 662
f 670 673 669
f 673 670 672
f 669 674 667
f 674 669 673
f 667 674 671
f 380 668 671
f 668 380 377
f 675 671 674
f 673 676 674
f 674 676 675
f 676 673 677
f 672 677 673
f 677 672 678
f 638 678 672
f 678 679 677
f 679 678 638
f 677 680 676
f 680 677 679
f 394 675 676
f 676 680 394
f 384 671 675
f 671 384 380
f 386 675 394
f 675 386 384
f 395 394 680
f 679 681 680
f 680 681 395
f 681 679 682
f 638 682 679
f 682 638 683
f 636 683 638
f 684 683 636
f 683 684 682
f 636 635 684
f 682 685 681
f 685 682 684
f 686 684 635
f 684 686 685
f 635 633 686
f 681 685 397
f 397 395 681
f 685 686 687
f 687 397 685
f 686 633 688
f 688 687 686
f 689 688 633
f 633 628 689
f 632 689 628
f 690 689 632
f 632 642 690
f 691 688 689
f 689 690 691
f 692 687 688
f 688 691 692
f 687 692 398
f 398 397 687
f 693 690 642
f 642 644 693
f 694 691 690
f 690 693 694
f 695 692 691
f 691 694 695
f 401 398 692
f 692 695 401
f 159 693 644
f 644 162 159
f 696 694 693
f 693 159 696
f 697 695 694
f 694 696 697
f 698 401 695
f 695 697 698
f 401 698 402
f 161 696 159
f 164 697 696
f 696 161 164
f 417 698 697
f 697 164 417
f 698 417 406
f 406 402 698
f 127 126 356
f 699 124 128
f 127 700 128
f 356 700 127
f 128 701 699
f 701 128 700
f 124 699 702
f 702 699 701
f 124 702 703
f 74 124 703
f 74 703 92
f 700 704 701
f 701 705 702
f 705 701 704
f 706 702 705
f 702 706 703
f 705 707 706
f 703 706 707
f 704 708 705
f 707 705 708
f 352 704 700
f 700 356 352
f 348 708 704
f 704 352 348
f 708 709 707
f 707 710 703
f 710 707 709
f 711 703 710
f 344 709 708
f 708 348 344
f 703 711 712
f 710 713 711
f 712 711 713
f 703 712 92
f 713 710 714
f 709 714 710
f 713 715 712
f 342 714 709
f 709 344 342
f 714 716 713
f 715 713 716
f 717 712 715
f 712 717 92
f 715 718 717
f 92 717 718
f 716 719 715
f 718 715 719
f 338 716 714
f 714 342 338
f 335 719 716
f 716 338 335
f 719 720 718
f 718 721 92
f 721 718 720
f 722 92 721
f 92 722 91
f 91 722 723
f 721 723 722
f 723 90 91
f 720 724 721
f 723 721 724
f 90 723 725
f 724 725 723
f 725 89 90
f 726 89 725
f 89 726 87
f 727 725 724
f 725 727 726
f 332 724 720
f 724 332 727
f 720 333 332
f 333 720 719
f 719 335 333
f 726 93 87
f 726 727 728
f 328 728 727
f 727 332 328
f 726 728 729
f 93 726 730
f 729 730 726
f 730 96 93
f 323 729 728
f 728 328 323
f 730 729 731
f 96 730 732
f 731 732 730
f 732 103 96
f 320 731 729
f 729 323 320
f 732 731 733
f 103 732 734
f 733 734 732
f 734 105 103
f 317 733 731
f 731 320 317
f 734 733 735
f 105 734 736
f 735 736 734
f 736 737 105
f 107 105 737
f 733 317 315
f 315 735 733
f 737 264 107
f 109 107 264
f 264 260 109
f 112 109 260
f 737 736 266
f 264 737 266
f 736 735 266
f 267 266 735
f 735 315 267
