v 0.0439286157 -0.0492230654 0.0496894456
v 0.0356841199 -0.0325048752 0.0496894456
v 0.0356841199 -0.0325048752 0.144970238
v 0.0216694213 -0.0202143155 0.144970238
v 0.0439286157 -0.0492230654 0.144970238
v 0.0216694213 -0.0202143155 0.0496894456
v 0.0451477692 -0.0678236708 0.0496894456
v 0.0040181363 -0.0142225083 0.144970238
v 0.0451477692 -0.0678236708 0.144970238
v 0.0040181363 -0.0142225083 0.0496894456
v 0.0391559675 -0.085474968 0.0496894456
v -0.0145824915 -0.0154416561 0.144970238
v 0.0391559675 -0.085474968 0.144970238
v -0.0145824915 -0.0154416561 0.0496894456
v 0.0268654041 -0.0994896665 0.0496894456
v -0.0313006863 -0.0236861538 0.144970238
v 0.0268654041 -0.0994896665 0.144970238
v -0.0313006863 -0.0236861538 0.0496894456
v 0.0101472074 -0.107734174 0.0496894456
v -0.0435912423 -0.0377008505 0.144970238
v 0.0101472074 -0.107734174 0.144970238
v -0.0435912423 -0.0377008505 0.0496894456
v -0.00845342595 -0.108953319 0.0496894456
v -0.0495830476 -0.0553521328 0.144970238
v -0.00845342595 -0.108953319 0.144970238
v -0.0495830476 -0.0553521328 0.0496894456
v -0.0261047184 -0.10296151 0.0496894456
v -0.0483639017 -0.0739527568 0.144970238
v -0.0261047184 -0.10296151 0.144970238
v -0.0483639017 -0.0739527568 0.0496894456
v -0.0401194096 -0.0906709433 0.0496894456
v -0.0401194096 -0.0906709433 0.144970238
v 0.0321511514 -0.0814307332 0.041756399
v 0.0219414588 -0.0930726603 0.041756399
v 0.00805375911 -0.0999213159 0.041756399
v 0.0361157618 -0.0513165146 0.041756399
v 0.0371285044 -0.0667679161 0.041756399
v -0.0073976675 -0.100934058 0.041756399
v -0.0220604856 -0.0959566981 0.041756399
v -0.0405510478 -0.0718593076 0.041756399
v -0.0337023996 -0.0857470036 0.041756399
v 0.0176251885 -0.0272191297 0.041756399
v 0.0292671118 -0.0374288186 0.041756399
v -0.0124890441 -0.0232545119 0.041756399
v 0.00296237855 -0.0222417712 0.041756399
v -0.0365864262 -0.0417450853 0.041756399
v -0.0263767391 -0.0301031619 0.041756399
v -0.0415637828 -0.0564078912 0.041756399
v 0.0439286157 -0.0492230654 0.0496894456
v 0.0361157618 -0.0513165146 0.041756399
v 0.0292671118 -0.0374288186 0.041756399
v 0.0451477692 -0.0678236708 0.0496894456
v 0.0356841199 -0.0325048752 0.0496894456
v 0.0371285044 -0.0667679161 0.041756399
v 0.0176251885 -0.0272191297 0.041756399
v 0.0391559675 -0.085474968 0.0496894456
v 0.0216694213 -0.0202143155 0.0496894456
v 0.0321511514 -0.0814307332 0.041756399
v 0.00296237855 -0.0222417712 0.041756399
v 0.0268654041 -0.0994896665 0.0496894456
v 0.0040181363 -0.0142225083 0.0496894456
v 0.0219414588 -0.0930726603 0.041756399
v -0.0124890441 -0.0232545119 0.041756399
v 0.0101472074 -0.107734174 0.0496894456
v -0.0145824915 -0.0154416561 0.0496894456
v 0.00805375911 -0.0999213159 0.041756399
v -0.0263767391 -0.0301031619 0.041756399
v -0.00845342595 -0.108953319 0.0496894456
v -0.0313006863 -0.0236861538 0.0496894456
v -0.0073976675 -0.100934058 0.041756399
v -0.0365864262 -0.0417450853 0.041756399
v -0.0261047184 -0.10296151 0.0496894456
v -0.0435912423 -0.0377008505 0.0496894456
v -0.0220604856 -0.0959566981 0.041756399
v -0.0415637828 -0.0564078912 0.041756399
v -0.0401194096 -0.0906709433 0.0496894456
v -0.0495830476 -0.0553521328 0.0496894456
v -0.0337023996 -0.0857470036 0.041756399
v -0.0405510478 -0.0718593076 0.041756399
v -0.0483639017 -0.0739527568 0.0496894456
v 0.0288112052 -0.0377786458 0.320492506
v 0.0173378624 -0.027716795 0.320492506
v 0.00288737193 -0.0228115115 0.320492506
v 0.0365587659 -0.0666929036 0.320492506
v 0.0355606899 -0.0514652468 0.320492506
v -0.0123403128 -0.0238095839 0.320492506
v -0.026026912 -0.0305590667 0.320492506
v -0.0409940444 -0.0564828999 0.320492506
v -0.0360887609 -0.0420324095 0.320492506
v 0.0215916317 -0.0926167592 0.320492506
v 0.0316534862 -0.081143409 0.320492506
v -0.00732266065 -0.10036432 0.320492506
v 0.0079050269 -0.0993662402 0.320492506
v -0.0332464948 -0.0853971764 0.320492506
v -0.0217731576 -0.0954590291 0.320492506
v -0.0399959721 -0.0717105791 0.320492506
v -0.165874362 -0.221381426 0.231754422
v -0.20351553 -0.21199058 0.231754422
v -0.20351553 -0.21199058 0.235298499
v -0.165874362 -0.221381426 0.235298499
v -0.165874362 -0.221381426 0.238545403
v -0.215955406 -0.206717134 0.235298499
v -0.215955406 -0.206717134 0.231754422
v -0.20351553 -0.21199058 0.238545403
v -0.20351553 -0.21199058 0.24208948
v -0.165874362 -0.221381426 0.24208948
v -0.215955406 -0.206717134 0.24208948
v -0.215955406 -0.206717134 0.238545403
v -0.225088373 -0.203392997 0.24208948
v -0.225088373 -0.203392997 0.235298499
v -0.225088373 -0.203392997 0.231754422
v -0.225088373 -0.203392997 0.238545403
v -0.234807476 -0.203392997 0.24208948
v -0.234807476 -0.203392997 0.231754422
v -0.234807476 -0.203392997 0.238545403
v -0.243940443 -0.206717134 0.24208948
v -0.243940443 -0.206717134 0.231754422
v -0.243940443 -0.206717134 0.238545403
v -0.251385689 -0.212964445 0.24208948
v -0.251385689 -0.212964445 0.235298499
v -0.251385689 -0.212964445 0.231754422
v -0.256245255 -0.221381426 0.235298499
v -0.256245255 -0.221381426 0.231754422
v -0.256245255 -0.221381426 0.24208948
v -0.257932961 -0.230952874 0.231754422
v -0.257932961 -0.230952874 0.24208948
v -0.256245255 -0.240524322 0.231754422
v -0.256245255 -0.240524322 0.24208948
v -0.251385719 -0.248941302 0.235298499
v -0.251385719 -0.248941302 0.231754422
v -0.251385719 -0.248941302 0.238545403
v -0.251385719 -0.248941302 0.24208948
v -0.243940443 -0.255188614 0.24208948
v -0.243940443 -0.255188614 0.235298499
v -0.243940443 -0.255188614 0.231754422
v -0.243940443 -0.255188614 0.238545403
v -0.234807491 -0.258512735 0.24208948
v -0.234807491 -0.258512735 0.235298499
v -0.234807491 -0.258512735 0.231754422
v -0.234807491 -0.258512735 0.238545403
v -0.225088388 -0.258512765 0.24208948
v -0.225088388 -0.258512765 0.235298499
v -0.225088388 -0.258512765 0.231754422
v -0.225088388 -0.258512765 0.238545403
v -0.215955421 -0.255188644 0.24208948
v -0.215955421 -0.255188644 0.235298499
v -0.215955421 -0.255188644 0.231754422
v -0.215955421 -0.255188644 0.238545403
v -0.20351553 -0.249915197 0.24208948
v -0.20351553 -0.249915197 0.235298499
v -0.20351553 -0.249915197 0.231754422
v -0.20351553 -0.249915197 0.238545403
v -0.165874362 -0.240524337 0.24208948
v -0.165874362 -0.240524337 0.238545403
v -0.165874362 -0.240524337 0.235298499
v -0.165874362 -0.240524337 0.231754422
v -0.20351553 -0.21199058 0.24208948
v -0.204296455 -0.212681323 0.243712932
v -0.166832313 -0.221730098 0.243712932
v -0.165874362 -0.221381426 0.24208948
v -0.215955406 -0.206717134 0.24208948
v -0.21646513 -0.207599983 0.243712932
v -0.225088373 -0.203392997 0.24208948
v -0.225265399 -0.204396948 0.243712932
v -0.234807476 -0.203392997 0.24208948
v -0.234630451 -0.204396948 0.243712932
v -0.243940443 -0.206717134 0.24208948
v -0.243430719 -0.207599983 0.243712932
v -0.251385689 -0.212964445 0.24208948
v -0.250604779 -0.213619724 0.243712932
v -0.256245255 -0.221381426 0.24208948
v -0.25528729 -0.221730098 0.243712932
v -0.257932961 -0.230952874 0.24208948
v -0.256913513 -0.230952874 0.243712932
v -0.256245255 -0.240524322 0.24208948
v -0.25528729 -0.24017565 0.243712932
v -0.251385719 -0.248941302 0.24208948
v -0.250604779 -0.248286024 0.243712932
v -0.243940443 -0.255188614 0.24208948
v -0.243430734 -0.25430575 0.243712932
v -0.234807491 -0.258512735 0.24208948
v -0.234630466 -0.257508814 0.243712932
v -0.225088388 -0.258512765 0.24208948
v -0.225265414 -0.257508814 0.243712932
v -0.215955421 -0.255188644 0.24208948
v -0.216465145 -0.25430578 0.243712932
v -0.20351553 -0.249915197 0.24208948
v -0.20429647 -0.249224439 0.243712932
v -0.165874362 -0.240524337 0.24208948
v -0.166832313 -0.240175664 0.243712932
v -0.166832313 -0.221730098 0.243712932
v -0.20783399 -0.223491326 0.243712932
v -0.206618339 -0.230952874 0.243712932
v -0.204296455 -0.212681323 0.243712932
v -0.16520609 -0.230952874 0.243712932
v -0.211790159 -0.216295347 0.243712932
v -0.166832313 -0.240175664 0.243712932
v -0.21646513 -0.207599983 0.243712932
v -0.207834005 -0.238414437 0.243712932
v -0.218283132 -0.210748866 0.243712932
v -0.20429647 -0.249224439 0.243712932
v -0.225265399 -0.204396948 0.243712932
v -0.211790174 -0.245610416 0.243712932
v -0.225896791 -0.207977727 0.243712932
v -0.216465145 -0.25430578 0.243712932
v -0.234630451 -0.204396948 0.243712932
v -0.218283147 -0.251156896 0.243712932
v -0.233999074 -0.207977727 0.243712932
v -0.225896791 -0.253928035 0.243712932
v -0.243430719 -0.207599983 0.243712932
v -0.225265414 -0.257508814 0.243712932
v -0.241612718 -0.210748866 0.243712932
v -0.233999074 -0.253928035 0.243712932
v -0.250604779 -0.213619724 0.243712932
v -0.234630466 -0.257508814 0.243712932
v -0.247819424 -0.215956911 0.243712932
v -0.241612718 -0.251156896 0.243712932
v -0.25528729 -0.221730098 0.243712932
v -0.243430734 -0.25430575 0.243712932
v -0.251870573 -0.222973689 0.243712932
v -0.247819424 -0.245948836 0.243712932
v -0.256913513 -0.230952874 0.243712932
v -0.250604779 -0.248286024 0.243712932
v -0.25327751 -0.230952874 0.243712932
v -0.251870573 -0.238932058 0.243712932
v -0.25528729 -0.24017565 0.243712932
v -0.211301491 -0.224166125 0.243712932
v -0.229947925 -0.230952874 0.243712932
v -0.210104808 -0.230952874 0.243712932
v -0.211301506 -0.237739637 0.243712932
v -0.21474722 -0.218197972 0.243712932
v -0.21474722 -0.243707791 0.243712932
v -0.220026374 -0.213768229 0.243712932
v -0.220026374 -0.248137519 0.243712932
v -0.22650221 -0.211411223 0.243712932
v -0.22650221 -0.25049454 0.243712932
v -0.233393654 -0.211411223 0.243712932
v -0.233393654 -0.25049454 0.243712932
v -0.23986949 -0.213768229 0.243712932
v -0.23986949 -0.248137519 0.243712932
v -0.245148629 -0.218197972 0.243712932
v -0.245148644 -0.243707776 0.243712932
v -0.248594359 -0.224166125 0.243712932
v -0.248594359 -0.237739623 0.243712932
v -0.249791041 -0.230952874 0.243712932
v -0.208361581 -0.230952874 0.240466028
v -0.206618339 -0.230952874 0.243712932
v -0.20783399 -0.223491326 0.243712932
v -0.209663391 -0.238335863 0.240466028
v -0.209663391 -0.223569915 0.240466028
v -0.207834005 -0.238414437 0.243712932
v -0.211790159 -0.216295347 0.243712932
v -0.213411838 -0.244828328 0.240466028
v -0.213411823 -0.217077434 0.240466028
v -0.211790174 -0.245610416 0.243712932
v -0.218283132 -0.210748866 0.243712932
v -0.21915476 -0.249647215 0.240466028
v -0.219154745 -0.212258548 0.240466028
v -0.218283147 -0.251156896 0.243712932
v -0.225896791 -0.207977727 0.243712932
v -0.226199508 -0.252211273 0.240466028
v -0.226199493 -0.209694475 0.240466028
v -0.225896791 -0.253928035 0.243712932
v -0.233999074 -0.207977727 0.243712932
v -0.233696371 -0.252211273 0.240466028
v -0.233696356 -0.209694475 0.240466028
v -0.233999074 -0.253928035 0.243712932
v -0.241612718 -0.210748866 0.243712932
v -0.240741104 -0.2496472 0.240466028
v -0.240741104 -0.212258548 0.240466028
v -0.241612718 -0.251156896 0.243712932
v -0.247819424 -0.215956911 0.243712932
v -0.246484026 -0.244828314 0.240466028
v -0.246484026 -0.217077434 0.240466028
v -0.247819424 -0.245948836 0.243712932
v -0.251870573 -0.222973689 0.243712932
v -0.250232458 -0.238335833 0.240466028
v -0.250232458 -0.2235699 0.240466028
v -0.251870573 -0.238932058 0.243712932
v -0.25327751 -0.230952874 0.243712932
v -0.251534283 -0.230952874 0.240466028
v -0.208361581 -0.230952874 0.240466028
v -0.209663391 -0.223569915 0.240466028
v -0.211301491 -0.224166125 0.243712932
v -0.213411823 -0.217077434 0.240466028
v -0.210104808 -0.230952874 0.243712932
v -0.21474722 -0.218197972 0.243712932
v -0.209663391 -0.238335863 0.240466028
v -0.219154745 -0.212258548 0.240466028
v -0.211301506 -0.237739637 0.243712932
v -0.220026374 -0.213768229 0.243712932
v -0.21474722 -0.243707791 0.243712932
v -0.226199493 -0.209694475 0.240466028
v -0.213411838 -0.244828328 0.240466028
v -0.22650221 -0.211411223 0.243712932
v -0.220026374 -0.248137519 0.243712932
v -0.233696356 -0.209694475 0.240466028
v -0.21915476 -0.249647215 0.240466028
v -0.233393654 -0.211411223 0.243712932
v -0.22650221 -0.25049454 0.243712932
v -0.240741104 -0.212258548 0.240466028
v -0.226199508 -0.252211273 0.240466028
v -0.23986949 -0.213768229 0.243712932
v -0.233393654 -0.25049454 0.243712932
v -0.246484026 -0.217077434 0.240466028
v -0.233696371 -0.252211273 0.240466028
v -0.245148629 -0.218197972 0.243712932
v -0.23986949 -0.248137519 0.243712932
v -0.250232458 -0.2235699 0.240466028
v -0.240741104 -0.2496472 0.240466028
v -0.248594359 -0.224166125 0.243712932
v -0.245148644 -0.243707776 0.243712932
v -0.251534283 -0.230952874 0.240466028
v -0.246484026 -0.244828314 0.240466028
v -0.249791041 -0.230952874 0.243712932
v -0.248594359 -0.237739623 0.243712932
v -0.250232458 -0.238335833 0.240466028
v -0.165874362 -0.221381426 0.24208948
v -0.166832313 -0.221730098 0.243712932
v -0.16520609 -0.230952874 0.243712932
v -0.164186642 -0.230952874 0.24208948
v -0.166832313 -0.240175664 0.243712932
v -0.165874362 -0.240524337 0.24208948
v -0.164186642 -0.230952874 0.231754422
v -0.165874362 -0.221381426 0.231754422
v -0.165874362 -0.221381426 0.235298499
v -0.164186642 -0.230952874 0.235298499
v -0.165874362 -0.240524337 0.231754422
v -0.165874362 -0.240524337 0.235298499
v -0.165874362 -0.240524337 0.238545403
v -0.165874362 -0.221381426 0.238545403
v -0.165874362 -0.221381426 0.24208948
v -0.164186642 -0.230952874 0.24208948
v -0.165874362 -0.240524337 0.24208948
v -0.165874362 -0.221381426 0.231754422
v -0.166832313 -0.221730098 0.23013097
v -0.204296455 -0.212681323 0.23013097
v -0.20351553 -0.21199058 0.231754422
v -0.21646513 -0.207599983 0.23013097
v -0.215955406 -0.206717134 0.231754422
v -0.225265399 -0.204396948 0.23013097
v -0.225088373 -0.203392997 0.231754422
v -0.234630451 -0.204396948 0.23013097
v -0.234807476 -0.203392997 0.231754422
v -0.243430719 -0.207599983 0.23013097
v -0.243940443 -0.206717134 0.231754422
v -0.250604779 -0.213619724 0.23013097
v -0.251385689 -0.212964445 0.231754422
v -0.25528729 -0.221730098 0.23013097
v -0.256245255 -0.221381426 0.231754422
v -0.256913513 -0.230952874 0.23013097
v -0.257932961 -0.230952874 0.231754422
v -0.25528729 -0.24017565 0.23013097
v -0.256245255 -0.240524322 0.231754422
v -0.250604779 -0.248286024 0.23013097
v -0.251385719 -0.248941302 0.231754422
v -0.243430734 -0.25430575 0.23013097
v -0.243940443 -0.255188614 0.231754422
v -0.234630466 -0.257508814 0.23013097
v -0.234807491 -0.258512735 0.231754422
v -0.225265414 -0.257508814 0.23013097
v -0.225088388 -0.258512765 0.231754422
v -0.216465145 -0.25430578 0.23013097
v -0.215955421 -0.255188644 0.231754422
v -0.20429647 -0.249224439 0.23013097
v -0.20351553 -0.249915197 0.231754422
v -0.166832313 -0.240175664 0.23013097
v -0.165874362 -0.240524337 0.231754422
v -0.166832313 -0.221730098 0.23013097
v -0.16520609 -0.230952874 0.23013097
v -0.206618339 -0.230952874 0.23013097
v -0.166832313 -0.240175664 0.23013097
v -0.20783399 -0.223491326 0.23013097
v -0.207834005 -0.238414437 0.23013097
v -0.204296455 -0.212681323 0.23013097
v -0.20429647 -0.249224439 0.23013097
v -0.211790159 -0.216295347 0.23013097
v -0.211790174 -0.245610416 0.23013097
v -0.21646513 -0.207599983 0.23013097
v -0.216465145 -0.25430578 0.23013097
v -0.218283132 -0.210748866 0.23013097
v -0.218283147 -0.251156896 0.23013097
v -0.225896791 -0.207977727 0.23013097
v -0.225265414 -0.257508814 0.23013097
v -0.225265399 -0.204396948 0.23013097
v -0.225896791 -0.253928035 0.23013097
v -0.233999074 -0.207977727 0.23013097
v -0.234630466 -0.257508814 0.23013097
v -0.234630451 -0.204396948 0.23013097
v -0.233999074 -0.253928035 0.23013097
v -0.241612718 -0.210748866 0.23013097
v -0.243430734 -0.25430575 0.23013097
v -0.243430719 -0.207599983 0.23013097
v -0.241612718 -0.251156896 0.23013097
v -0.247819424 -0.215956911 0.23013097
v -0.250604779 -0.248286024 0.23013097
v -0.250604779 -0.213619724 0.23013097
v -0.247819424 -0.245948836 0.23013097
v -0.251870573 -0.222973689 0.23013097
v -0.25528729 -0.24017565 0.23013097
v -0.25528729 -0.221730098 0.23013097
v -0.251870573 -0.238932058 0.23013097
v -0.25327751 -0.230952874 0.23013097
v -0.256913513 -0.230952874 0.23013097
v -0.210104808 -0.230952874 0.23013097
v -0.229947925 -0.230952874 0.23013097
v -0.211301491 -0.224166125 0.23013097
v -0.21474722 -0.218197972 0.23013097
v -0.211301506 -0.237739637 0.23013097
v -0.220026374 -0.213768229 0.23013097
v -0.21474722 -0.243707791 0.23013097
v -0.22650221 -0.211411223 0.23013097
v -0.220026374 -0.248137519 0.23013097
v -0.233393654 -0.211411223 0.23013097
v -0.22650221 -0.25049454 0.23013097
v -0.23986949 -0.213768229 0.23013097
v -0.233393654 -0.25049454 0.23013097
v -0.245148629 -0.218197972 0.23013097
v -0.23986949 -0.248137519 0.23013097
v -0.248594359 -0.224166125 0.23013097
v -0.245148644 -0.243707776 0.23013097
v -0.249791041 -0.230952874 0.23013097
v -0.248594359 -0.237739623 0.23013097
v -0.164186642 -0.230952874 0.231754422
v -0.16520609 -0.230952874 0.23013097
v -0.166832313 -0.221730098 0.23013097
v -0.165874362 -0.221381426 0.231754422
v -0.165874362 -0.240524337 0.231754422
v -0.166832313 -0.240175664 0.23013097
v -0.209663391 -0.223569915 0.233377874
v -0.20783399 -0.223491326 0.23013097
v -0.206618339 -0.230952874 0.23013097
v -0.213411823 -0.217077434 0.233377874
v -0.208361581 -0.230952874 0.233377874
v -0.211790159 -0.216295347 0.23013097
v -0.207834005 -0.238414437 0.23013097
v -0.219154745 -0.212258548 0.233377874
v -0.209663391 -0.238335863 0.233377874
v -0.218283132 -0.210748866 0.23013097
v -0.211790174 -0.245610416 0.23013097
v -0.226199493 -0.209694475 0.233377874
v -0.213411838 -0.244828328 0.233377874
v -0.225896791 -0.207977727 0.23013097
v -0.218283147 -0.251156896 0.23013097
v -0.233696356 -0.209694475 0.233377874
v -0.21915476 -0.249647215 0.233377874
v -0.233999074 -0.207977727 0.23013097
v -0.225896791 -0.253928035 0.23013097
v -0.240741104 -0.212258548 0.233377874
v -0.226199508 -0.252211273 0.233377874
v -0.241612718 -0.210748866 0.23013097
v -0.233999074 -0.253928035 0.23013097
v -0.246484026 -0.217077434 0.233377874
v -0.233696371 -0.252211273 0.233377874
v -0.247819424 -0.215956911 0.23013097
v -0.241612718 -0.251156896 0.23013097
v -0.250232458 -0.2235699 0.233377874
v -0.240741104 -0.2496472 0.233377874
v -0.251870573 -0.222973689 0.23013097
v -0.247819424 -0.245948836 0.23013097
v -0.251534283 -0.230952874 0.233377874
v -0.246484026 -0.244828314 0.233377874
v -0.25327751 -0.230952874 0.23013097
v -0.251870573 -0.238932058 0.23013097
v -0.250232458 -0.238335833 0.233377874
v -0.209663391 -0.223569915 0.233377874
v -0.208361581 -0.230952874 0.233377874
v -0.210104808 -0.230952874 0.23013097
v -0.209663391 -0.238335863 0.233377874
v -0.211301491 -0.224166125 0.23013097
v -0.211301506 -0.237739637 0.23013097
v -0.213411823 -0.217077434 0.233377874
v -0.21474722 -0.243707791 0.23013097
v -0.21474722 -0.218197972 0.23013097
v -0.213411838 -0.244828328 0.233377874
v -0.219154745 -0.212258548 0.233377874
v -0.220026374 -0.248137519 0.23013097
v -0.220026374 -0.213768229 0.23013097
v -0.21915476 -0.249647215 0.233377874
v -0.226199493 -0.209694475 0.233377874
v -0.22650221 -0.25049454 0.23013097
v -0.22650221 -0.211411223 0.23013097
v -0.226199508 -0.252211273 0.233377874
v -0.233696356 -0.209694475 0.233377874
v -0.233393654 -0.25049454 0.23013097
v -0.233393654 -0.211411223 0.23013097
v -0.233696371 -0.252211273 0.233377874
v -0.240741104 -0.212258548 0.233377874
v -0.23986949 -0.248137519 0.23013097
v -0.23986949 -0.213768229 0.23013097
v -0.240741104 -0.2496472 0.233377874
v -0.246484026 -0.217077434 0.233377874
v -0.245148644 -0.243707776 0.23013097
v -0.245148629 -0.218197972 0.23013097
v -0.246484026 -0.244828314 0.233377874
v -0.250232458 -0.2235699 0.233377874
v -0.248594359 -0.237739623 0.23013097
v -0.248594359 -0.224166125 0.23013097
v -0.250232458 -0.238335833 0.233377874
v -0.251534283 -0.230952874 0.233377874
v -0.249791041 -0.230952874 0.23013097
v 0.0355606899 -0.0514652468 0.147658736
v 0.0368845686 -0.0511105135 0.146314487
v 0.0298985597 -0.0369442888 0.146314487
v 0.0365587659 -0.0666929036 0.147658736
v 0.0288112052 -0.0377786458 0.147658736
v 0.0379176214 -0.066871807 0.146314487
v 0.0180231538 -0.0265298374 0.146314487
v 0.0316534862 -0.081143409 0.147658736
v 0.0173378624 -0.027716795 0.147658736
v 0.0328404456 -0.0818286985 0.146314487
v 0.00306626875 -0.0214526579 0.146314487
v 0.0215916317 -0.0926167592 0.147658736
v 0.00288737193 -0.0228115115 0.147658736
v 0.0224259868 -0.0937041119 0.146314487
v -0.0126950452 -0.0224857051 0.146314487
v 0.0079050269 -0.0993662402 0.147658736
v -0.0123403128 -0.0238095839 0.147658736
v 0.00825975835 -0.100690119 0.146314487
v -0.026861269 -0.029471714 0.146314487
v -0.00732266065 -0.10036432 0.147658736
v -0.026026912 -0.0305590667 0.147658736
v -0.00750155747 -0.101723172 0.146314487
v -0.0372757204 -0.04134712 0.146314487
v -0.0217731576 -0.0954590291 0.147658736
v -0.0360887609 -0.0420324095 0.147658736
v -0.022458449 -0.0966459885 0.146314487
v -0.0423528999 -0.0563040003 0.146314487
v -0.0332464948 -0.0853971764 0.147658736
v -0.0409940444 -0.0564828999 0.147658736
v -0.0343338512 -0.0862315297 0.146314487
v -0.0413198508 -0.0720653087 0.146314487
v -0.0399959721 -0.0717105791 0.147658736
v 0.0426047407 -0.0495777987 0.146314487
v 0.0345967673 -0.0333392322 0.146314487
v 0.0298985597 -0.0369442888 0.146314487
v 0.0180231538 -0.0265298374 0.146314487
v 0.0368845686 -0.0511105135 0.146314487
v 0.0209841318 -0.0214012731 0.146314487
v 0.0437889136 -0.0676447749 0.146314487
v 0.00306626875 -0.0214526579 0.146314487
v 0.0379176214 -0.066871807 0.146314487
v 0.00383923948 -0.0155813619 0.146314487
v 0.0379690081 -0.0847896785 0.146314487
v -0.0126950452 -0.0224857051 0.146314487
v 0.0328404456 -0.0818286985 0.146314487
v -0.01422776 -0.016765533 0.146314487
v 0.0260310471 -0.0984023139 0.146314487
v -0.026861269 -0.029471714 0.146314487
v 0.0224259868 -0.0937041119 0.146314487
v -0.0304663293 -0.0247735083 0.146314487
v 0.00979247596 -0.106410295 0.146314487
v -0.0372757204 -0.04134712 0.146314487
v 0.00825975835 -0.100690119 0.146314487
v -0.0424042828 -0.03838614 0.146314487
v -0.00827452913 -0.107594468 0.146314487
v -0.0423528999 -0.0563040003 0.146314487
v -0.00750155747 -0.101723172 0.146314487
v -0.0482241958 -0.0555310287 0.146314487
v -0.0254194271 -0.101774551 0.146314487
v -0.0413198508 -0.0720653087 0.146314487
v -0.022458449 -0.0966459885 0.146314487
v -0.0470400229 -0.0735980198 0.146314487
v -0.0390320569 -0.08983659 0.146314487
v -0.0343338512 -0.0862315297 0.146314487
v 0.0426047407 -0.0495777987 0.146314487
v 0.0439286157 -0.0492230654 0.144970238
v 0.0356841199 -0.0325048752 0.144970238
v 0.0437889136 -0.0676447749 0.146314487
v 0.0345967673 -0.0333392322 0.146314487
v 0.0451477692 -0.0678236708 0.144970238
v 0.0216694213 -0.0202143155 0.144970238
v 0.0379690081 -0.0847896785 0.146314487
v 0.0209841318 -0.0214012731 0.146314487
v 0.0391559675 -0.085474968 0.144970238
v 0.0040181363 -0.0142225083 0.144970238
v 0.0260310471 -0.0984023139 0.146314487
v 0.00383923948 -0.0155813619 0.146314487
v 0.0268654041 -0.0994896665 0.144970238
v -0.0145824915 -0.0154416561 0.144970238
v 0.00979247596 -0.106410295 0.146314487
v -0.01422776 -0.016765533 0.146314487
v 0.0101472074 -0.107734174 0.144970238
v -0.0313006863 -0.0236861538 0.144970238
v -0.00827452913 -0.107594468 0.146314487
v -0.0304663293 -0.0247735083 0.146314487
v -0.00845342595 -0.108953319 0.144970238
v -0.0435912423 -0.0377008505 0.144970238
v -0.0254194271 -0.101774551 0.146314487
v -0.0424042828 -0.03838614 0.146314487
v -0.0261047184 -0.10296151 0.144970238
v -0.0495830476 -0.0553521328 0.144970238
v -0.0390320569 -0.08983659 0.146314487
v -0.0482241958 -0.0555310287 0.146314487
v -0.0401194096 -0.0906709433 0.144970238
v -0.0483639017 -0.0739527568 0.144970238
v -0.0470400229 -0.0735980198 0.146314487
v 0.0355606899 -0.0514652468 0.147658736
v 0.0288112052 -0.0377786458 0.147658736
v 0.0288112052 -0.0377786458 0.320492506
v 0.0173378624 -0.027716795 0.320492506
v 0.0355606899 -0.0514652468 0.320492506
v 0.0173378624 -0.027716795 0.147658736
v 0.0365587659 -0.0666929036 0.147658736
v 0.00288737193 -0.0228115115 0.320492506
v 0.0365587659 -0.0666929036 0.320492506
v 0.00288737193 -0.0228115115 0.147658736
v 0.0316534862 -0.081143409 0.147658736
v -0.0123403128 -0.0238095839 0.320492506
v 0.0316534862 -0.081143409 0.320492506
v -0.0123403128 -0.0238095839 0.147658736
v 0.0215916317 -0.0926167592 0.147658736
v -0.026026912 -0.0305590667 0.320492506
v 0.0215916317 -0.0926167592 0.320492506
v -0.026026912 -0.0305590667 0.147658736
v 0.0079050269 -0.0993662402 0.147658736
v -0.0360887609 -0.0420324095 0.320492506
v 0.0079050269 -0.0993662402 0.320492506
v -0.0360887609 -0.0420324095 0.147658736
v -0.00732266065 -0.10036432 0.147658736
v -0.0409940444 -0.0564828999 0.320492506
v -0.00732266065 -0.10036432 0.320492506
v -0.0409940444 -0.0564828999 0.147658736
v -0.0217731576 -0.0954590291 0.147658736
v -0.0399959721 -0.0717105791 0.320492506
v -0.0217731576 -0.0954590291 0.320492506
v -0.0399959721 -0.0717105791 0.147658736
v -0.0332464948 -0.0853971764 0.147658736
v -0.0332464948 -0.0853971764 0.320492506
f 1 2 3
f 4 3 2
f 3 5 1
f 2 6 4
f 7 1 5
f 8 4 6
f 5 9 7
f 6 10 8
f 11 7 9
f 12 8 10
f 9 13 11
f 10 14 12
f 15 11 13
f 16 12 14
f 13 17 15
f 14 18 16
f 19 15 17
f 20 16 18
f 17 21 19
f 18 22 20
f 23 19 21
f 24 20 22
f 21 25 23
f 22 26 24
f 27 23 25
f 28 24 26
f 25 29 27
f 26 30 28
f 31 27 29
f 32 28 30
f 30 31 32
f 29 32 31
f 33 34 35
f 33 35 36
f 37 33 36
f 35 38 39
f 35 39 40
f 35 40 36
f 39 41 40
f 42 43 36
f 44 42 36
f 40 44 36
f 44 45 42
f 40 46 44
f 46 47 44
f 40 48 46
f 49 50 51
f 50 49 52
f 51 53 49
f 52 54 50
f 53 51 55
f 54 52 56
f 55 57 53
f 56 58 54
f 57 55 59
f 58 56 60
f 59 61 57
f 60 62 58
f 61 59 63
f 62 60 64
f 63 65 61
f 64 66 62
f 65 63 67
f 66 64 68
f 67 69 65
f 68 70 66
f 69 67 71
f 70 68 72
f 71 73 69
f 72 74 70
f 73 71 75
f 74 72 76
f 75 77 73
f 76 78 74
f 77 75 79
f 78 76 80
f 79 80 77
f 80 79 78
f 81 82 83
f 81 83 84
f 85 81 84
f 83 86 87
f 83 87 88
f 83 88 84
f 87 89 88
f 90 91 84
f 92 90 84
f 88 92 84
f 92 93 90
f 88 94 92
f 94 95 92
f 88 96 94
f 97 98 99
f 99 100 97
f 101 100 99
f 102 99 98
f 98 103 102
f 99 104 101
f 104 99 102
f 101 104 105
f 105 106 101
f 107 105 104
f 104 108 107
f 102 108 104
f 109 107 108
f 110 102 103
f 108 102 110
f 103 111 110
f 108 112 109
f 110 112 108
f 113 109 112
f 114 110 111
f 112 110 114
f 112 115 113
f 114 115 112
f 116 113 115
f 115 114 117
f 115 118 116
f 117 118 115
f 119 116 118
f 118 117 120
f 117 121 120
f 120 119 118
f 122 120 121
f 119 120 122
f 121 123 122
f 122 124 119
f 125 122 123
f 124 122 125
f 125 126 124
f 126 125 127
f 127 128 126
f 128 127 129
f 127 130 129
f 128 131 132
f 129 131 128
f 133 132 131
f 134 129 130
f 131 129 134
f 130 135 134
f 131 136 133
f 134 136 131
f 137 133 136
f 138 134 135
f 136 134 138
f 135 139 138
f 136 140 137
f 138 140 136
f 141 137 140
f 142 138 139
f 140 138 142
f 139 143 142
f 140 144 141
f 142 144 140
f 145 141 144
f 146 142 143
f 144 142 146
f 143 147 146
f 144 148 145
f 146 148 144
f 149 145 148
f 150 146 147
f 148 146 150
f 147 151 150
f 148 152 149
f 150 152 148
f 153 149 152
f 152 154 153
f 155 154 152
f 152 150 155
f 155 150 151
f 151 156 155
f 157 158 159
f 159 160 157
f 158 157 161
f 161 162 158
f 162 161 163
f 163 164 162
f 164 163 165
f 165 166 164
f 166 165 167
f 167 168 166
f 168 167 169
f 169 170 168
f 170 169 171
f 171 172 170
f 172 171 173
f 173 174 172
f 174 173 175
f 175 176 174
f 176 175 177
f 177 178 176
f 178 177 179
f 179 180 178
f 180 179 181
f 181 182 180
f 182 181 183
f 183 184 182
f 184 183 185
f 185 186 184
f 186 185 187
f 187 188 186
f 188 187 189
f 189 190 188
f 191 192 193
f 192 191 194
f 193 195 191
f 194 196 192
f 197 195 193
f 196 194 198
f 193 199 197
f 198 200 196
f 201 197 199
f 200 198 202
f 199 203 201
f 202 204 200
f 205 201 203
f 204 202 206
f 203 207 205
f 206 208 204
f 205 207 209
f 208 206 210
f 209 211 205
f 210 212 208
f 211 209 213
f 212 210 214
f 213 215 211
f 214 216 212
f 215 213 217
f 216 214 218
f 217 219 215
f 218 220 216
f 219 217 221
f 220 218 222
f 221 223 219
f 222 224 220
f 223 221 225
f 224 222 226
f 225 226 223
f 226 225 224
f 227 228 229
f 229 228 230
f 231 228 227
f 230 228 232
f 233 228 231
f 232 228 234
f 235 228 233
f 234 228 236
f 237 228 235
f 236 228 238
f 239 228 237
f 238 228 240
f 241 228 239
f 240 228 242
f 243 228 241
f 242 228 244
f 245 228 243
f 244 228 245
f 246 247 248
f 247 246 249
f 248 250 246
f 249 251 247
f 250 248 252
f 251 249 253
f 252 254 250
f 253 255 251
f 254 252 256
f 255 253 257
f 256 258 254
f 257 259 255
f 258 256 260
f 259 257 261
f 260 262 258
f 261 263 259
f 262 260 264
f 263 261 265
f 264 266 262
f 265 267 263
f 266 264 268
f 267 265 269
f 268 270 266
f 269 271 267
f 270 268 272
f 271 269 273
f 272 274 270
f 273 275 271
f 274 272 276
f 275 273 277
f 276 278 274
f 277 279 275
f 278 276 280
f 279 277 281
f 280 281 278
f 281 280 279
f 282 283 284
f 284 283 285
f 284 286 282
f 285 287 284
f 288 282 286
f 287 285 289
f 286 290 288
f 289 291 287
f 288 290 292
f 291 289 293
f 292 294 288
f 293 295 291
f 294 292 296
f 295 293 297
f 296 298 294
f 297 299 295
f 298 296 300
f 299 297 301
f 300 302 298
f 301 303 299
f 302 300 304
f 303 301 305
f 304 306 302
f 305 307 303
f 306 304 308
f 307 305 309
f 308 310 306
f 309 311 307
f 310 308 312
f 311 309 313
f 312 314 310
f 313 315 311
f 314 312 316
f 315 313 317
f 316 317 314
f 317 316 315
f 318 319 320
f 320 321 318
f 321 320 322
f 322 323 321
f 324 325 326
f 326 327 324
f 328 324 327
f 327 329 328
f 330 329 327
f 326 331 327
f 327 331 332
f 332 333 327
f 330 327 333
f 333 334 330
f 335 336 337
f 337 338 335
f 338 337 339
f 339 340 338
f 340 339 341
f 341 342 340
f 342 341 343
f 343 344 342
f 344 343 345
f 345 346 344
f 346 345 347
f 347 348 346
f 348 347 349
f 349 350 348
f 350 349 351
f 351 352 350
f 352 351 353
f 353 354 352
f 354 353 355
f 355 356 354
f 356 355 357
f 357 358 356
f 358 357 359
f 359 360 358
f 360 359 361
f 361 362 360
f 362 361 363
f 363 364 362
f 364 363 365
f 365 366 364
f 366 365 367
f 367 368 366
f 369 370 371
f 371 370 372
f 371 373 369
f 372 374 371
f 375 369 373
f 374 372 376
f 373 377 375
f 376 378 374
f 379 375 377
f 378 376 380
f 377 381 379
f 380 382 378
f 379 381 383
f 382 380 384
f 383 385 379
f 384 386 382
f 385 383 387
f 386 384 388
f 387 389 385
f 388 390 386
f 389 387 391
f 390 388 392
f 391 393 389
f 392 394 390
f 393 391 395
f 394 392 396
f 395 397 393
f 396 398 394
f 397 395 399
f 398 396 400
f 399 401 397
f 400 402 398
f 401 399 403
f 402 400 404
f 403 404 401
f 404 403 402
f 405 406 407
f 407 406 408
f 409 406 405
f 408 406 410
f 411 406 409
f 410 406 412
f 413 406 411
f 412 406 414
f 415 406 413
f 414 406 416
f 417 406 415
f 416 406 418
f 419 406 417
f 418 406 420
f 421 406 419
f 420 406 422
f 423 406 421
f 422 406 423
f 424 425 426
f 426 427 424
f 425 424 428
f 428 429 425
f 430 431 432
f 431 430 433
f 432 434 430
f 433 435 431
f 434 432 436
f 435 433 437
f 436 438 434
f 437 439 435
f 438 436 440
f 439 437 441
f 440 442 438
f 441 443 439
f 442 440 444
f 443 441 445
f 444 446 442
f 445 447 443
f 446 444 448
f 447 445 449
f 448 450 446
f 449 451 447
f 450 448 452
f 451 449 453
f 452 454 450
f 453 455 451
f 454 452 456
f 455 453 457
f 456 458 454
f 457 459 455
f 458 456 460
f 459 457 461
f 460 462 458
f 461 463 459
f 462 460 464
f 463 461 465
f 464 465 462
f 465 464 463
f 466 467 468
f 468 467 469
f 468 470 466
f 469 471 468
f 472 466 470
f 473 471 469
f 470 474 472
f 469 475 473
f 476 472 474
f 477 473 475
f 474 478 476
f 475 479 477
f 480 476 478
f 481 477 479
f 478 482 480
f 479 483 481
f 484 480 482
f 485 481 483
f 482 486 484
f 483 487 485
f 488 484 486
f 489 485 487
f 486 490 488
f 487 491 489
f 492 488 490
f 493 489 491
f 490 494 492
f 491 495 493
f 496 492 494
f 497 493 495
f 494 498 496
f 495 499 497
f 500 496 498
f 501 497 499
f 498 501 500
f 499 500 501
f 502 503 504
f 503 502 505
f 504 506 502
f 505 507 503
f 506 504 508
f 507 505 509
f 508 510 506
f 509 511 507
f 510 508 512
f 511 509 513
f 512 514 510
f 513 515 511
f 514 512 516
f 515 513 517
f 516 518 514
f 517 519 515
f 518 516 520
f 519 517 521
f 520 522 518
f 521 523 519
f 522 520 524
f 523 521 525
f 524 526 522
f 525 527 523
f 526 524 528
f 527 525 529
f 528 530 526
f 529 531 527
f 530 528 532
f 531 529 533
f 532 533 530
f 533 532 531
f 534 535 536
f 537 536 535
f 536 538 534
f 535 539 537
f 540 534 538
f 541 537 539
f 538 542 540
f 539 543 541
f 544 540 542
f 545 541 543
f 542 546 544
f 543 547 545
f 548 544 546
f 549 545 547
f 546 550 548
f 547 551 549
f 552 548 550
f 553 549 551
f 550 554 552
f 551 555 553
f 556 552 554
f 557 553 555
f 554 558 556
f 555 559 557
f 560 556 558
f 561 557 559
f 558 562 560
f 559 563 561
f 564 560 562
f 565 561 563
f 563 564 565
f 562 565 564
f 566 567 568
f 567 566 569
f 568 570 566
f 569 571 567
f 570 568 572
f 571 569 573
f 572 574 570
f 573 575 571
f 574 572 576
f 575 573 577
f 576 578 574
f 577 579 575
f 578 576 580
f 579 577 581
f 580 582 578
f 581 583 579
f 582 580 584
f 583 581 585
f 584 586 582
f 585 587 583
f 586 584 588
f 587 585 589
f 588 590 586
f 589 591 587
f 590 588 592
f 591 589 593
f 592 594 590
f 593 595 591
f 594 592 596
f 595 593 597
f 596 597 594
f 597 596 595
f 598 599 600
f 601 600 599
f 600 602 598
f 599 603 601
f 604 598 602
f 605 601 603
f 602 606 604
f 603 607 605
f 608 604 606
f 609 605 607
f 606 610 608
f 607 611 609
f 612 608 610
f 613 609 611
f 610 614 612
f 611 615 613
f 616 612 614
f 617 613 615
f 614 618 616
f 615 619 617
f 620 616 618
f 621 617 619
f 618 622 620
f 619 623 621
f 624 620 622
f 625 621 623
f 622 626 624
f 623 627 625
f 628 624 626
f 629 625 627
f 627 628 629
f 626 629 628
