v 0.161548868 0.11360357 0.394491345
v 0.164549708 0.115052462 0.396890223
v 0.163279593 0.109136596 0.401077896
v 0.164369494 0.110835701 0.40467301
v 0.157600462 0.113535516 0.393406063
v 0.158704579 0.118110783 0.388346791
v 0.165798962 0.11749395 0.399959862
v 0.163373724 0.112876222 0.408114314
v 0.164961874 0.120273717 0.402877867
v 0.16268748 0.118321888 0.389273912
v 0.165780738 0.12015371 0.391249299
v 0.167155549 0.123115361 0.393743724
v 0.166443512 0.126413241 0.396088749
v 0.162262753 0.122647069 0.404862344
v 0.166965678 0.124460809 0.384311646
v 0.163835406 0.129163787 0.397656053
v 0.158424839 0.123978019 0.405381471
v 0.167811081 0.13138403 0.388082147
v 0.160030112 0.130629897 0.398025692
v 0.154476449 0.123909891 0.404296219
v 0.165269271 0.134375587 0.389261156
v 0.15604721 0.130418792 0.397098571
v 0.151475579 0.122460991 0.401897341
v 0.161487728 0.135928124 0.389491618
v 0.152953923 0.128586978 0.395123154
v 0.150226325 0.120019548 0.398827642
v 0.157479703 0.135625586 0.388711751
v 0.151579127 0.125625357 0.392628729
v 0.151063398 0.117239811 0.395909667
v 0.154319093 0.133549094 0.387130558
v 0.152291179 0.122327477 0.390283704
v 0.153762534 0.114866458 0.39392522
v 0.152852803 0.130254954 0.385171741
v 0.154899254 0.119576924 0.388716429
v 0.153473735 0.126625955 0.383360088
v 0.1560155 0.123634316 0.382181108
v 0.159797043 0.122081809 0.381950647
v 0.154596195 0.130130902 0.37535122
v 0.163805112 0.122384354 0.382730484
v 0.157090828 0.126992017 0.37450856
v 0.160855442 0.125386745 0.374398619
v 0.164881393 0.125745133 0.375050962
v 0.168089852 0.127971128 0.376290649
v 0.161880851 0.128058821 0.36570245
v 0.169621155 0.131468251 0.377785623
v 0.165908873 0.128420234 0.366338551
v 0.169137254 0.130693525 0.367419153
v 0.218530953 0.225297257 0.00544042187
v 0.221797705 0.22764124 0.0062578544
v 0.214464247 0.224864781 0.00506932801
v 0.223391652 0.231272936 0.00728604896
v 0.158132508 0.129706204 0.365681231
v 0.21068731 0.226459399 0.00524449907
v 0.155668184 0.132920921 0.366280645
v 0.20821248 0.229654789 0.00591598125
v 0.155148253 0.13684167 0.367340028
v 0.207696795 0.233583316 0.0069459877
v 0.154039994 0.13396211 0.376700848
v 0.156711951 0.140417725 0.368575543
v 0.209290758 0.237215087 0.00797422044
v 0.155571282 0.137459189 0.378195822
v 0.159940332 0.142691046 0.369656116
v 0.212557495 0.239558995 0.0087915957
v 0.15877974 0.139685228 0.379435569
v 0.163968369 0.143052414 0.370292246
v 0.216624185 0.239991546 0.00916274637
v 0.162805706 0.140043572 0.380087852
v 0.167716697 0.141405001 0.370313466
v 0.220401168 0.238396853 0.00898755621
v 0.166570336 0.138438359 0.379977912
v 0.170181036 0.138190284 0.369714051
v 0.222875997 0.235201463 0.00831605494
v 0.169064984 0.135299504 0.379135281
v 0.170700952 0.13426958 0.368654668
v -0.14731212 0.105662361 0.40647769
v -0.148801655 0.113383725 0.403524935
v -0.149891555 0.11508283 0.407120049
v -0.148483753 0.104533285 0.402687907
v -0.129916742 -0.211636916 0.405275315
v -0.154016927 0.0949454233 0.400138974
v -0.150033131 0.0954977199 0.400934726
v -0.133783281 -0.211918831 0.406590044
v -0.15142642 0.103361718 0.40006882
v -0.149797454 0.111343205 0.400083661
v -0.157873824 0.0945408791 0.40145576
v -0.136478886 -0.212079197 0.409666747
v -0.155351654 0.102461487 0.399322212
v -0.15261212 0.109508105 0.397718281
v -0.160570368 0.0943924859 0.404532284
v -0.137281299 -0.212074995 0.413681
v -0.159207687 0.102073871 0.400648117
v -0.156491473 0.10837011 0.39706257
v -0.161384046 0.09454 0.408544123
v -0.135975495 -0.211907446 0.41755715
v -0.160096794 0.0949438214 0.412416339
v -0.161961302 0.102302752 0.403691292
v -0.162874669 0.103086755 0.407636344
v -0.16170305 0.104215786 0.411426097
v -0.160396054 0.108234078 0.398292303
v -0.163279608 0.109136596 0.401077896
v -0.164369494 0.110835701 0.40467301
v -0.163373694 0.112876222 0.408114314
v -0.158760369 0.105387397 0.414045215
v -0.160559013 0.114711352 0.410479724
v -0.165798962 0.11749395 0.399959862
v -0.164549679 0.115052462 0.396890223
v -0.161548838 0.11360357 0.394491345
v -0.16496186 0.120273717 0.402877867
v -0.162262738 0.122647069 0.404862344
v -0.15667966 0.115849353 0.411135405
v -0.157600448 0.113535516 0.393406063
v -0.15842481 0.123978019 0.405381471
v -0.152775094 0.115985312 0.409905702
v -0.153762504 0.114866458 0.39392522
v -0.154476419 0.123909891 0.404296219
v -0.151063383 0.117239811 0.395909667
v -0.151475549 0.122460991 0.401897341
v -0.150226295 0.120019548 0.398827642
v -0.15604718 0.130418792 0.397098571
v -0.152953908 0.128586978 0.395123154
v -0.151579112 0.125625357 0.392628729
v -0.152291149 0.122327477 0.390283704
v -0.160030067 0.130629897 0.398025692
v -0.15489924 0.119576924 0.388716429
v -0.163835377 0.129163787 0.397656053
v -0.158704564 0.118110783 0.388346791
v -0.166443497 0.126413241 0.396088749
v -0.162687466 0.118321888 0.389273912
v -0.167155519 0.123115361 0.393743724
v -0.165780723 0.12015371 0.391249299
v -0.168431953 0.127754956 0.386270523
v -0.166965678 0.124460809 0.384311646
v -0.163805082 0.122384354 0.382730484
v -0.159797028 0.122081809 0.381950647
v -0.167811036 0.13138403 0.388082147
v -0.156015486 0.123634316 0.382181108
v -0.165269256 0.134375587 0.389261156
v -0.15347372 0.126625955 0.383360088
v -0.161487728 0.135928124 0.389491618
v -0.152852789 0.130254954 0.385171741
v -0.157479674 0.135625586 0.388711751
v -0.154319063 0.133549094 0.387130558
v -0.162805662 0.140043572 0.380087852
v -0.15877974 0.139685228 0.379435569
v -0.155571267 0.137459189 0.378195822
v -0.154039979 0.13396211 0.376700848
v -0.166570336 0.138438359 0.379977912
v -0.154596165 0.130130902 0.37535122
v -0.169064954 0.135299504 0.379135281
v -0.157090783 0.126992017 0.37450856
v -0.16962114 0.131468251 0.377785623
v -0.160855442 0.125386745 0.374398619
v -0.168089837 0.127971128 0.376290649
v -0.164881378 0.125745133 0.375050962
v -0.169137239 0.130693525 0.367419153
v -0.165908858 0.128420234 0.366338551
v -0.161880821 0.128058821 0.36570245
v -0.221797705 0.22764124 0.00625783531
v -0.218530938 0.225297257 0.00544042187
v -0.223391682 0.231272936 0.00728602987
v -0.214464262 0.224864781 0.00506930891
v -0.170700967 0.13426958 0.368654668
v -0.222875983 0.235201463 0.00831609312
v -0.158132493 0.129706204 0.365681231
v -0.21068731 0.226459399 0.00524449907
v -0.170181021 0.138190284 0.369714051
v -0.220401168 0.238396853 0.00898755621
v -0.155668169 0.132920921 0.366280645
v -0.208212465 0.229654819 0.00591596216
v -0.155148223 0.13684167 0.367340028
v -0.207696795 0.233583346 0.0069459877
v -0.156711936 0.140417725 0.368575543
v -0.209290743 0.237215087 0.00797422044
v -0.159940332 0.142691046 0.369656116
v -0.212557495 0.239558995 0.00879163388
v -0.163968369 0.143052414 0.370292246
v -0.216624171 0.239991546 0.009162765
v -0.167716727 0.141405001 0.370313466
v -0.176330462 -0.214120194 0.384288967
v -0.177271515 -0.210138127 0.38445279
v -0.172567248 -0.209543347 0.391507953
v -0.171745807 -0.213540539 0.39116469
v -0.179842696 -0.207139254 0.385565341
v -0.180442631 -0.210792497 0.376701117
v -0.183232144 -0.207838669 0.377279997
v -0.179421529 -0.214758053 0.376732916
v -0.177271664 -0.218018472 0.38511768
v -0.172567725 -0.217423737 0.392172366
v -0.179842934 -0.220788419 0.386716962
v -0.180442438 -0.218672782 0.377366871
v -0.183231786 -0.221487716 0.378433108
v -0.187042192 -0.222448617 0.379645944
v -0.183355346 -0.221687824 0.388658255
v -0.184926584 -0.222237051 0.369571924
v -0.182056144 -0.219386294 0.368929356
v -0.181005552 -0.215458453 0.368450582
v -0.217691049 -0.25315693 0.00287620164
v -0.214763194 -0.250252008 0.0028762205
v -0.22166881 -0.254220217 0.0028762205
v -0.213669822 -0.246283799 0.0028762205
v -0.188847661 -0.223246843 0.370206147
v -0.225630671 -0.25315693 0.0028762205
v -0.182056248 -0.211505979 0.36826396
v -0.214703843 -0.24231559 0.0028762205
v -0.192768797 -0.222145125 0.370662063
v -0.228515044 -0.250252008 0.0028762205
v -0.184926733 -0.208587945 0.368419439
v -0.217588201 -0.239410654 0.0028762396
v -0.187042594 -0.206688061 0.378314465
v -0.18884784 -0.207486227 0.368875325
v -0.221550077 -0.238347381 0.00287620164
v -0.190853 -0.207648963 0.379527301
v -0.192768946 -0.208496034 0.369509578
v -0.225527853 -0.239410654 0.0028762205
v -0.193642333 -0.210463911 0.380593538
v -0.18943876 -0.20959647 0.390869021
v -0.190379977 -0.213494748 0.391697764
v -0.195639372 -0.211346775 0.370152146
v -0.228455693 -0.24231559 0.0028762396
v -0.194663242 -0.21437864 0.381227493
v -0.189438909 -0.217476815 0.391533911
v -0.196689963 -0.215274617 0.37063089
v -0.229549095 -0.246283799 0.00287620164
v -0.193642154 -0.218344197 0.381259292
v -0.186867729 -0.220475703 0.390421391
v -0.195639282 -0.21922709 0.370817542
v -0.190852627 -0.221298009 0.380680412
v -0.16823934 -0.219609201 0.400711656
v -0.166432813 -0.216916755 0.398192763
v -0.158945203 -0.216522619 0.402877122
v -0.160206988 -0.219186395 0.405736834
v -0.165771335 -0.213046819 0.397027642
v -0.174812779 -0.220152438 0.394260913
v -0.170706838 -0.220402718 0.403909385
v -0.161930367 -0.219940737 0.409400135
v -0.173174143 -0.219084695 0.406929165
v -0.177879378 -0.220995471 0.396870762
v -0.180945858 -0.219726965 0.399302572
v -0.183190569 -0.2166868 0.400904745
v -0.174980178 -0.216008291 0.408961833
v -0.184012026 -0.212689608 0.401248008
v -0.175640956 -0.211997807 0.40946269
v -0.183190092 -0.20880641 0.400240332
v -0.174979493 -0.208127871 0.408297569
v -0.180945069 -0.206077725 0.398151755
v -0.173172981 -0.205435425 0.405778646
v -0.186867476 -0.206826523 0.389269739
v -0.177878425 -0.205234677 0.395541936
v -0.170705482 -0.204641908 0.402580917
v -0.174811944 -0.206503183 0.393110126
v -0.183355078 -0.205927119 0.387328446
v 0.193642125 -0.218344197 0.381259292
v 0.195639253 -0.21922709 0.370817542
v 0.196689934 -0.215274617 0.37063089
v 0.228515029 -0.250252008 0.0028762205
v 0.225630656 -0.25315693 0.0028762205
v 0.22954908 -0.246283799 0.0028762205
v 0.192768767 -0.222145125 0.370662063
v 0.22166878 -0.254220217 0.0028762205
v 0.190852612 -0.221298009 0.380680412
v 0.188847646 -0.223246843 0.370206147
v 0.217691034 -0.25315693 0.00287620164
v 0.187042162 -0.222448617 0.379645944
v 0.184926555 -0.222237051 0.369571924
v 0.214763179 -0.250252008 0.0028762205
v 0.183231756 -0.221487716 0.378433108
v 0.182056129 -0.219386294 0.368929356
v 0.213669807 -0.246283799 0.00287618255
v 0.180442423 -0.218672782 0.377366871
v 0.181005523 -0.215458453 0.368450612
v 0.214703813 -0.242315575 0.0028762396
v 0.179421514 -0.214758053 0.376732916
v 0.182056233 -0.211505979 0.36826396
v 0.217588201 -0.239410654 0.0028762396
v 0.180442616 -0.210792497 0.376701117
v 0.184926704 -0.208587945 0.368419439
v 0.221550047 -0.238347381 0.00287620164
v 0.183232129 -0.207838669 0.377279997
v 0.188847825 -0.207486227 0.368875355
v 0.225527823 -0.239410654 0.0028762205
v 0.187042564 -0.206688061 0.378314465
v 0.192768931 -0.208496034 0.369509578
v 0.228455663 -0.24231559 0.0028762396
v 0.19085297 -0.207648963 0.379527301
v 0.195639357 -0.211346775 0.370152175
v 0.193642318 -0.210463911 0.380593538
v 0.194663227 -0.21437864 0.381227493
v 0.18943873 -0.20959647 0.390869021
v 0.190379947 -0.213494748 0.391697764
v 0.189438879 -0.217476815 0.391533911
v 0.186867699 -0.220475703 0.390421391
v 0.186867461 -0.206826523 0.389269739
v 0.183355317 -0.221687824 0.388658255
v 0.183355048 -0.205927119 0.387328446
v 0.179842919 -0.220788419 0.386716962
v 0.179842666 -0.207139254 0.385565341
v 0.177271649 -0.218018472 0.38511768
v 0.177271485 -0.210138127 0.38445279
v 0.176330447 -0.214120194 0.384288967
v 0.174811929 -0.206503183 0.393110126
v 0.172567219 -0.209543347 0.391507953
v 0.171745792 -0.213540539 0.39116469
v 0.172567695 -0.217423737 0.392172366
v 0.17787841 -0.205234677 0.395541936
v 0.174812764 -0.220152438 0.394260913
v 0.180945039 -0.206077725 0.398151755
v 0.177879363 -0.220995471 0.396870762
v 0.183190063 -0.20880641 0.400240332
v 0.180945843 -0.219726965 0.399302572
v 0.184011996 -0.212689608 0.401248008
v 0.183190539 -0.2166868 0.400904745
v 0.175640941 -0.211997807 0.40946269
v 0.174980149 -0.216008291 0.408961833
v 0.173174128 -0.219084695 0.406929165
v 0.170706809 -0.220402718 0.403909385
v 0.174979463 -0.208127871 0.408297569
v 0.16823931 -0.219609201 0.400711656
v 0.173172966 -0.205435425 0.405778646
v 0.166432783 -0.216916755 0.398192763
v 0.170705467 -0.204641908 0.402580917
v 0.16577132 -0.213046819 0.397027642
v 0.168238148 -0.205959931 0.399561167
v 0.166432127 -0.209036335 0.397528529
v 0.161928982 -0.204179928 0.408071637
v 0.160205811 -0.205537125 0.404586285
v 0.158944517 -0.208642215 0.402212888
v 0.158483103 -0.212663189 0.401587248
v 0.163652346 -0.204934284 0.411734939
v 0.158945188 -0.216522619 0.402877122
v 0.164914116 -0.207598045 0.41459465
v 0.160206974 -0.219186395 0.405736834
v 0.165376216 -0.211457491 0.415884525
v 0.161930338 -0.219940737 0.409400135
v 0.164914802 -0.21547845 0.415258914
v 0.163653523 -0.218583539 0.412885457
v 0.153159425 -0.215135589 0.419336855
v 0.152518392 -0.218258783 0.416748196
v 0.151642576 -0.219640702 0.412968904
v 0.150766656 -0.218911067 0.409011543
v 0.153393909 -0.211107999 0.420041203
v 0.15012531 -0.21626541 0.405936569
v 0.153158993 -0.2072552 0.418672532
v 0.149890408 -0.212412596 0.404567897
v 0.152517647 -0.204609528 0.415597528
v 0.150124893 -0.208385006 0.405272245
v 0.151641726 -0.203879893 0.411640197
v 0.150765911 -0.205261812 0.407860875
v 0.140029341 -0.204495445 0.416955322
v 0.139936179 -0.203772962 0.412912846
v 0.139843032 -0.205162048 0.409048349
v 0.139774889 -0.208290458 0.406397402
v 0.140097603 -0.207135871 0.420092642
v 0.139749989 -0.21231997 0.405670255
v 0.140122607 -0.210986763 0.421484172
v 0.139775008 -0.216170862 0.407061756
v 0.140097708 -0.215016261 0.420757025
v 0.139843255 -0.218811288 0.410199106
v 0.140029564 -0.218144685 0.418106049
v 0.139936417 -0.219533756 0.414241582
v 0.130639926 -0.218193561 0.417526484
v 0.130963713 -0.219580457 0.413687736
v 0.1312875 -0.218855828 0.409670979
v 0.131524518 -0.216213807 0.406552434
v 0.130402893 -0.215066716 0.420158654
v 0.131611273 -0.212362334 0.405167848
v 0.130316138 -0.2110378 0.420878917
v 0.131524503 -0.208333403 0.40588811
v 0.130402878 -0.207186326 0.419494301
v 0.131287485 -0.205206573 0.408520281
v 0.130639911 -0.204544306 0.416375786
v 0.130963698 -0.203819662 0.412359029
v 0.116253726 -0.207308099 0.41805014
v 0.116556279 -0.204665512 0.414938301
v 0.116969563 -0.203940108 0.410930663
v 0.117382862 -0.205326244 0.407101005
v 0.116142996 -0.211159781 0.419432282
v 0.117685415 -0.208452508 0.4044756
v 0.116253749 -0.215188488 0.418714494
v 0.11779616 -0.21248123 0.403757751
v 0.116556294 -0.218314767 0.416089028
v 0.11768543 -0.216332912 0.405139953
v 0.116969593 -0.219700903 0.41225937
v 0.117382877 -0.218975484 0.408251762
v 0.098763153 -0.219865575 0.410306334
v 0.0991693884 -0.219140232 0.406297952
v 0.0994667709 -0.216497704 0.403185606
v 0.0995756164 -0.212646037 0.401803195
v 0.0983569175 -0.21847938 0.414136738
v 0.0994667634 -0.2086173 0.402521253
v 0.0980595201 -0.215353072 0.416762769
v 0.0764452592 -0.211502895 0.415363073
v 0.0987631306 -0.204104781 0.408977628
v 0.0980595127 -0.207472667 0.416098386
v 0.0765401646 -0.207651347 0.413979322
v 0.0767994672 -0.205009133 0.410863191
v 0.0529505089 -0.204448894 0.404896647
v 0.0765401796 -0.215531752 0.414643675
v 0.0775078982 -0.205670848 0.403014153
v 0.0767994896 -0.218658388 0.412013888
v 0.0777672157 -0.208797485 0.400384396
v 0.0771537051 -0.220045015 0.408178389
v 0.0778621286 -0.212826326 0.399664998
v 0.077507928 -0.219320104 0.404164881
v 0.0777672231 -0.216677874 0.401048779
v 0.053219229 -0.219485357 0.402204961
v 0.053415928 -0.216843575 0.399083763
v 0.0534879193 -0.212992176 0.397698164
v 0.0534159169 -0.208963171 0.39841941
v 0.026962854 -0.220330134 0.404797018
v 0.0532192141 -0.205836117 0.401054233
v 0.0526818261 -0.218822479 0.410067797
v 0.0524851233 -0.215695426 0.41270259
v 0.0526818186 -0.205173224 0.408917069
v 0.0524131209 -0.21166642 0.413423836
v 0.0524851158 -0.207815021 0.412038237
v 0.0267034862 -0.215814903 0.411285609
v 0.0266633574 -0.211785749 0.412008584
v 0.0267034788 -0.207934514 0.410621226
v 0.026813101 -0.205293119 0.40749526
v 0.0268131103 -0.218942359 0.408646017
v 0.0269628465 -0.20456934 0.403468311
v 0.0271125901 -0.2059571 0.399619371
v 0.0271126013 -0.219606355 0.400770068
v 0.0272222161 -0.209084556 0.396979749
v 0.0272222236 -0.21696496 0.397644103
v 0.0272623431 -0.213113725 0.396256775
v -9.89474014e-09 -0.217017114 0.397090822
v -9.89474014e-09 -0.213169158 0.395699859
v -9.89474014e-09 -0.209139168 0.396419525
v -9.89474014e-09 -0.20600754 0.399059922
v -9.89474014e-09 -0.219654307 0.400217593
v -9.89474014e-09 -0.204616278 0.402914703
v -9.89474014e-09 -0.220377058 0.404243439
v -9.89474014e-09 -0.205339924 0.406947792
v -9.89474014e-09 -0.218989 0.408097565
v -9.89474014e-09 -0.207981512 0.41007784
v -9.89474014e-09 -0.215861738 0.41074124
v -9.89474014e-09 -0.211832821 0.411466211
v -0.0267035067 -0.215814903 0.411285579
v -0.0266633779 -0.211785749 0.412008584
v -0.0267034993 -0.207934514 0.410621226
v -0.0268131215 -0.205293119 0.40749526
v -0.0524851382 -0.207815021 0.412038237
v -0.0268131308 -0.218942359 0.408646017
v -0.0524131395 -0.21166642 0.413423836
v -0.0524851419 -0.215695426 0.41270259
v -0.0269628745 -0.220330134 0.404797018
v -0.0526818484 -0.218822479 0.410067797
v -0.02711262 -0.219606355 0.400770068
v -0.0529505499 -0.220209703 0.406225353
v -0.0272222422 -0.21696496 0.397644103
v -0.0532192476 -0.219485357 0.402204961
v -0.0272623636 -0.213113725 0.396256745
v -0.0534159467 -0.216843575 0.399083763
v -0.0272222348 -0.209084556 0.396979719
v -0.0534879416 -0.212992176 0.397698164
v -0.0271126106 -0.2059571 0.399619341
v -0.0534159392 -0.208963171 0.39841941
v -0.026962867 -0.20456934 0.403468311
v -0.0532192327 -0.205836117 0.401054233
v -0.0529505312 -0.204448894 0.404896647
v -0.0526818372 -0.205173224 0.408917069
v -0.0771537051 -0.204284221 0.406849682
v -0.076540187 -0.207651347 0.413979322
v -0.0775079206 -0.205670848 0.403014153
v -0.0777672306 -0.208797485 0.400384396
v -0.099169381 -0.205490991 0.405147254
v -0.0764452815 -0.211502895 0.415363073
v -0.077862151 -0.212826326 0.399664998
v -0.0994667783 -0.2086173 0.402521253
v -0.0777672455 -0.216677874 0.401048779
v -0.0994667932 -0.216497704 0.403185606
v -0.0775079429 -0.219320104 0.404164881
v -0.0991694108 -0.219140232 0.406297952
v -0.0771537274 -0.220045015 0.408178389
v -0.0987631679 -0.21986559 0.410306334
v -0.0767995045 -0.218658388 0.412013888
v -0.0983569324 -0.21847938 0.414136738
v -0.0765402019 -0.215531752 0.414643675
v -0.0980595425 -0.215353072 0.416762769
v -0.0979506746 -0.211324334 0.417480767
v -0.0980595276 -0.207472667 0.416098386
v -0.116143018 -0.211159781 0.419432282
v -0.116253771 -0.215188488 0.418714494
v -0.116556309 -0.218314767 0.416089028
v -0.122347802 -0.210851088 0.416664779
v -0.125043422 -0.211011469 0.419741452
v -0.12890996 -0.211293384 0.421056211
v -0.121545389 -0.210855305 0.412650496
v -0.122851193 -0.211022869 0.408774316
v -0.125915319 -0.211308971 0.406074822
v -0.129916742 -0.211636916 0.405275315
v -0.133783281 -0.211918831 0.406590044
v -0.136478886 -0.212079197 0.409666747
v -0.137281299 -0.212074995 0.413681
v -0.135975495 -0.211907446 0.41755715
v -0.132911369 -0.211621329 0.420256674
v 0.128909975 -0.211293384 0.421056211
v 0.125043437 -0.211011469 0.419741452
v 0.122347809 -0.210851088 0.416664779
v 0.121545397 -0.210855305 0.412650496
v 0.122851208 -0.211022869 0.408774316
v 0.125915349 -0.211308971 0.406074822
v 0.129916757 -0.211636916 0.405275315
v 0.133783296 -0.211918831 0.406590044
v 0.136478886 -0.212079197 0.409666747
v 0.137281299 -0.212074995 0.413681
v 0.13597551 -0.211907446 0.41755715
v 0.132911384 -0.211621329 0.420256674
v -0.152518421 -0.218258783 0.416748196
v -0.151642606 -0.219640702 0.412968904
v -0.139936432 -0.219533756 0.414241582
v -0.140029579 -0.218144685 0.418106049
v -0.150766686 -0.218911067 0.409011543
v -0.163653538 -0.218583539 0.412885457
v -0.153159454 -0.215135589 0.419336855
v -0.140097737 -0.215016261 0.420757025
v -0.153393924 -0.211107999 0.420041203
v -0.164914832 -0.21547845 0.415258914
v -0.165376231 -0.211457491 0.415884525
v -0.164914146 -0.207598045 0.41459465
v -0.153159022 -0.2072552 0.418672532
v -0.163652375 -0.204934269 0.411734939
v -0.152517676 -0.204609528 0.415597528
v -0.161929011 -0.204179928 0.408071637
v -0.151641756 -0.203879893 0.411640197
v -0.160205826 -0.205537125 0.404586285
v -0.150765941 -0.205261812 0.407860875
v -0.168238178 -0.205959931 0.399561167
v -0.158944547 -0.208642215 0.402212888
v -0.150124907 -0.208385006 0.405272245
v -0.158483118 -0.212663189 0.401587248
v -0.166432142 -0.209036335 0.397528529
v 0.157053605 0.0954958871 0.415111423
v 0.153069809 0.0960481763 0.415907145
v 0.128909975 -0.211293384 0.421056211
v 0.125043437 -0.211011469 0.419741452
v 0.132911384 -0.211621329 0.420256674
v 0.149212927 0.0964527279 0.414590389
v 0.122347809 -0.210851088 0.416664779
v 0.160096809 0.0949438214 0.412416339
v 0.13597551 -0.211907446 0.41755715
v 0.146516368 0.0966011584 0.411513865
v 0.121545397 -0.210855305 0.412650496
v 0.15483515 0.106287591 0.414791793
v 0.14570269 0.0964536816 0.407502025
v 0.122851208 -0.211022869 0.408774316
v 0.150979117 0.106675163 0.413465887
v 0.148225501 0.106446356 0.410422713
v 0.146989912 0.0960497782 0.40362981
v 0.125915349 -0.211308971 0.406074822
v 0.147312149 0.105662361 0.40647769
v 0.150033161 0.0954977199 0.400934726
v 0.129916757 -0.211636916 0.405275315
v 0.148483768 0.104533285 0.402687907
v 0.154016927 0.0949454233 0.400138974
v 0.133783296 -0.211918831 0.406590044
v 0.151426435 0.103361718 0.40006882
v 0.157873824 0.0945408791 0.40145576
v 0.136478886 -0.212079197 0.409666747
v 0.155351669 0.102461487 0.399322212
v 0.160570368 0.0943924859 0.404532284
v 0.137281299 -0.212074995 0.413681
v 0.159207687 0.102073871 0.400648117
v 0.161384031 0.09454 0.408544123
v 0.161961317 0.102302752 0.403691292
v 0.162874669 0.103086755 0.407636344
v 0.161703035 0.104215786 0.411426097
v 0.158760369 0.105387397 0.414045215
v 0.160559028 0.114711352 0.410479724
v 0.156679675 0.115849353 0.411135405
v 0.152775109 0.115985312 0.409905702
v 0.14989157 0.11508283 0.407120049
v 0.148801655 0.113383725 0.403524935
v 0.149797469 0.111343205 0.400083661
v 0.152612135 0.109508105 0.397718281
v 0.156491503 0.10837011 0.39706257
v 0.160396069 0.108234078 0.398292303
v -0.0983569026 -0.20483014 0.41298604
v -0.116253749 -0.207308099 0.41805014
v -0.116556302 -0.204665512 0.414938301
v -0.098763153 -0.204104781 0.408977628
v -0.116969585 -0.203940108 0.410930693
v -0.131287515 -0.205206573 0.408520281
v -0.11768543 -0.208452508 0.4044756
v -0.130963713 -0.203819662 0.412359029
v -0.130639926 -0.204544306 0.416375786
v -0.117796183 -0.21248123 0.403757781
v -0.131524518 -0.208333403 0.40588811
v -0.131611288 -0.212362334 0.405167848
v -0.117685452 -0.216332912 0.405139953
v -0.131524548 -0.216213807 0.406552434
v -0.117382899 -0.218975484 0.408251762
v -0.131287515 -0.218855828 0.409670979
v -0.116969615 -0.219700903 0.4122594
v -0.130963743 -0.219580457 0.413687736
v -0.130639941 -0.218193561 0.417526484
v -0.130402923 -0.215066716 0.420158654
v -0.13984327 -0.218811288 0.410199106
v -0.15705359 0.0954958871 0.415111423
v -0.132911369 -0.211621329 0.420256674
v -0.12890996 -0.211293384 0.421056211
v -0.153069809 0.0960481763 0.415907145
v -0.125043422 -0.211011469 0.419741452
v -0.149212912 0.0964527279 0.414590389
v -0.122347802 -0.210851088 0.416664779
v -0.154835135 0.106287591 0.414791793
v -0.146516368 0.0966011584 0.411513865
v -0.121545389 -0.210855305 0.412650496
v -0.150979117 0.106675163 0.413465887
v -0.14570269 0.0964536816 0.407502025
v -0.122851193 -0.211022869 0.408774316
v -0.148225501 0.106446356 0.410422713
v -0.146989912 0.0960497782 0.40362981
v -0.125915319 -0.211308971 0.406074822
v -0.130316153 -0.2110378 0.420878917
v -0.140122637 -0.210986763 0.421484172
v -0.130402893 -0.207186326 0.419494301
v -0.140097618 -0.207135871 0.420092642
v -0.140029371 -0.204495445 0.416955322
v -0.139936194 -0.203772962 0.412912846
v -0.139843062 -0.205162048 0.409048349
v -0.139774904 -0.208290458 0.406397402
v -0.139750004 -0.21231997 0.405670255
v -0.149890423 -0.212412596 0.404567897
v -0.139775023 -0.216170862 0.407061756
v -0.15012534 -0.21626541 0.405936569
f 1 2 3
f 4 3 2
f 1 5 6
f 2 7 4
f 8 4 7
f 7 9 8
f 2 1 10
f 6 10 1
f 7 2 11
f 10 11 2
f 9 7 12
f 11 12 7
f 12 13 9
f 14 9 13
f 12 11 15
f 13 16 14
f 17 14 16
f 16 13 18
f 12 18 13
f 16 19 17
f 20 17 19
f 18 21 16
f 19 16 21
f 19 22 20
f 23 20 22
f 21 24 19
f 22 19 24
f 22 25 23
f 26 23 25
f 24 27 22
f 25 22 27
f 25 28 26
f 29 26 28
f 27 30 25
f 28 25 30
f 28 31 29
f 32 29 31
f 30 33 28
f 31 28 33
f 31 34 32
f 5 32 34
f 34 6 5
f 34 31 35
f 33 35 31
f 6 34 36
f 35 36 34
f 36 37 6
f 10 6 37
f 36 35 38
f 37 39 10
f 11 10 39
f 39 15 11
f 37 36 40
f 38 40 36
f 39 37 41
f 40 41 37
f 15 39 42
f 41 42 39
f 42 43 15
f 12 15 43
f 42 41 44
f 43 45 12
f 18 12 45
f 43 42 46
f 44 46 42
f 45 43 47
f 46 47 43
f 48 46 44
f 46 48 49
f 49 47 46
f 44 50 48
f 47 49 51
f 50 44 52
f 52 44 41
f 52 53 50
f 41 40 52
f 53 52 54
f 54 52 40
f 54 55 53
f 40 38 54
f 55 54 56
f 56 54 38
f 56 57 55
f 38 58 56
f 58 38 35
f 35 33 58
f 57 56 59
f 59 56 58
f 59 60 57
f 61 58 33
f 58 61 59
f 33 30 61
f 60 59 62
f 62 59 61
f 62 63 60
f 64 61 30
f 61 64 62
f 30 27 64
f 63 62 65
f 65 62 64
f 65 66 63
f 67 64 27
f 64 67 65
f 27 24 67
f 66 65 68
f 68 65 67
f 68 69 66
f 70 67 24
f 67 70 68
f 24 21 70
f 69 68 71
f 71 68 70
f 71 72 69
f 73 70 21
f 70 73 71
f 21 18 73
f 45 73 18
f 74 71 73
f 73 45 74
f 72 71 74
f 47 74 45
f 74 51 72
f 51 74 47
f 75 76 77
f 76 75 78
f 79 80 81
f 80 79 82
f 81 83 78
f 83 81 80
f 78 84 76
f 84 78 83
f 82 85 80
f 85 82 86
f 80 87 83
f 87 80 85
f 83 88 84
f 88 83 87
f 86 89 85
f 89 86 90
f 85 91 87
f 91 85 89
f 87 92 88
f 92 87 91
f 90 93 89
f 93 90 94
f 94 95 93
f 96 89 93
f 89 96 91
f 97 93 95
f 93 97 96
f 95 98 97
f 99 91 96
f 91 99 92
f 100 96 97
f 96 100 99
f 101 97 98
f 97 101 100
f 98 102 101
f 102 98 103
f 103 104 102
f 105 101 102
f 106 100 101
f 101 105 106
f 100 106 107
f 107 99 100
f 108 102 104
f 102 108 105
f 104 109 108
f 109 104 110
f 99 107 111
f 111 92 99
f 110 112 109
f 112 110 113
f 92 111 114
f 114 88 92
f 113 115 112
f 115 113 77
f 88 114 116
f 116 84 88
f 77 117 115
f 117 77 76
f 118 76 84
f 76 118 117
f 84 116 118
f 119 115 117
f 120 117 118
f 117 120 119
f 121 118 116
f 118 121 120
f 116 122 121
f 122 116 114
f 115 119 123
f 123 112 115
f 114 124 122
f 124 114 111
f 112 123 125
f 125 109 112
f 111 126 124
f 126 111 107
f 109 125 127
f 127 108 109
f 107 128 126
f 128 107 106
f 108 127 129
f 129 105 108
f 130 106 105
f 105 129 130
f 106 130 128
f 131 129 127
f 132 130 129
f 129 131 132
f 133 128 130
f 130 132 133
f 128 133 134
f 134 126 128
f 127 135 131
f 135 127 125
f 126 134 136
f 136 124 126
f 125 137 135
f 137 125 123
f 124 136 138
f 138 122 124
f 123 139 137
f 139 123 119
f 122 138 140
f 140 121 122
f 119 141 139
f 141 119 120
f 142 120 121
f 120 142 141
f 121 140 142
f 143 139 141
f 144 141 142
f 141 144 143
f 145 142 140
f 142 145 144
f 140 146 145
f 146 140 138
f 139 143 147
f 147 137 139
f 138 148 146
f 148 138 136
f 137 147 149
f 149 135 137
f 136 150 148
f 150 136 134
f 135 149 151
f 151 131 135
f 134 152 150
f 152 134 133
f 131 151 153
f 153 132 131
f 154 133 132
f 132 153 154
f 133 154 152
f 155 153 151
f 156 154 153
f 153 155 156
f 157 152 154
f 154 156 157
f 156 155 158
f 158 159 156
f 157 156 159
f 160 158 155
f 159 161 157
f 155 162 160
f 151 162 155
f 163 160 162
f 162 151 149
f 164 157 161
f 152 157 164
f 161 165 164
f 164 150 152
f 149 166 162
f 162 166 163
f 166 149 147
f 167 163 166
f 150 164 168
f 168 164 165
f 168 148 150
f 165 169 168
f 148 168 170
f 170 168 169
f 170 146 148
f 169 171 170
f 146 170 172
f 172 170 171
f 172 145 146
f 171 173 172
f 145 172 174
f 174 172 173
f 174 144 145
f 173 175 174
f 144 174 176
f 176 174 175
f 176 143 144
f 175 177 176
f 143 176 178
f 178 176 177
f 178 147 143
f 177 167 178
f 147 178 166
f 166 178 167
f 179 180 181
f 181 182 179
f 183 180 184
f 184 185 183
f 180 179 186
f 186 184 180
f 187 179 182
f 182 188 187
f 189 187 188
f 179 187 190
f 190 186 179
f 187 189 191
f 191 190 187
f 192 191 189
f 189 193 192
f 190 191 194
f 186 190 195
f 194 195 190
f 195 196 186
f 184 186 196
f 195 194 197
f 197 198 195
f 196 195 198
f 199 197 194
f 198 200 196
f 194 201 199
f 201 194 191
f 191 192 201
f 202 199 201
f 203 196 200
f 196 203 184
f 200 204 203
f 185 184 203
f 201 205 202
f 205 201 192
f 206 202 205
f 207 203 204
f 203 207 185
f 204 208 207
f 209 185 207
f 210 207 208
f 207 210 209
f 208 211 210
f 212 209 210
f 213 210 211
f 210 213 212
f 211 214 213
f 215 212 213
f 212 215 216
f 217 216 215
f 218 213 214
f 213 218 215
f 214 219 218
f 215 220 217
f 220 215 218
f 221 217 220
f 222 218 219
f 218 222 220
f 219 223 222
f 220 224 221
f 224 220 222
f 225 221 224
f 226 222 223
f 222 226 224
f 223 206 226
f 205 226 206
f 227 224 226
f 226 205 227
f 224 227 225
f 192 227 205
f 193 225 227
f 227 192 193
f 228 229 230
f 230 231 228
f 232 229 188
f 188 182 232
f 229 228 233
f 233 188 229
f 234 228 231
f 231 235 234
f 236 234 235
f 228 234 237
f 237 233 228
f 234 236 238
f 238 237 234
f 239 238 236
f 236 240 239
f 237 238 225
f 233 237 193
f 225 193 237
f 193 189 233
f 188 233 189
f 241 239 240
f 240 242 241
f 238 239 221
f 221 225 238
f 239 241 217
f 217 221 239
f 243 241 242
f 242 244 243
f 216 217 241
f 241 243 216
f 245 243 244
f 244 246 245
f 247 216 243
f 243 245 247
f 248 245 246
f 246 249 248
f 250 248 249
f 245 248 251
f 251 247 245
f 248 250 183
f 183 251 248
f 180 183 250
f 250 181 180
f 251 183 185
f 247 251 209
f 185 209 251
f 209 212 247
f 216 247 212
f 252 253 254
f 254 253 255
f 256 255 253
f 255 257 254
f 253 258 256
f 259 256 258
f 260 258 253
f 253 252 260
f 258 261 259
f 262 259 261
f 258 260 263
f 263 261 258
f 261 264 262
f 265 262 264
f 261 263 266
f 266 264 261
f 264 267 265
f 268 265 267
f 264 266 269
f 269 267 264
f 267 270 268
f 271 268 270
f 267 269 272
f 272 270 267
f 270 273 271
f 274 271 273
f 270 272 275
f 275 273 270
f 273 276 274
f 277 274 276
f 273 275 278
f 278 276 273
f 276 279 277
f 280 277 279
f 276 278 281
f 281 279 276
f 279 282 280
f 283 280 282
f 279 281 284
f 284 282 279
f 282 285 283
f 257 283 285
f 285 254 257
f 286 285 282
f 282 284 286
f 287 254 285
f 285 286 287
f 254 287 252
f 288 286 284
f 289 287 286
f 286 288 289
f 290 252 287
f 287 289 290
f 252 290 291
f 291 260 252
f 284 292 288
f 292 284 281
f 260 291 293
f 293 263 260
f 281 294 292
f 294 281 278
f 263 293 295
f 295 266 263
f 278 296 294
f 296 278 275
f 266 295 297
f 297 269 266
f 275 298 296
f 298 275 272
f 299 272 269
f 272 299 298
f 269 297 299
f 300 296 298
f 301 298 299
f 298 301 300
f 302 299 297
f 299 302 301
f 297 303 302
f 303 297 295
f 296 300 304
f 304 294 296
f 295 305 303
f 305 295 293
f 294 304 306
f 306 292 294
f 293 307 305
f 307 293 291
f 292 306 308
f 308 288 292
f 291 309 307
f 309 291 290
f 288 308 310
f 310 289 288
f 311 290 289
f 289 310 311
f 290 311 309
f 312 310 308
f 313 311 310
f 310 312 313
f 314 309 311
f 311 313 314
f 309 314 315
f 315 307 309
f 308 316 312
f 316 308 306
f 307 315 317
f 317 305 307
f 306 318 316
f 318 306 304
f 305 317 319
f 319 303 305
f 304 320 318
f 320 304 300
f 303 319 321
f 321 302 303
f 300 322 320
f 322 300 301
f 323 301 302
f 301 323 322
f 302 321 323
f 324 320 322
f 325 322 323
f 322 325 324
f 326 323 321
f 323 326 325
f 321 327 326
f 327 321 319
f 320 324 328
f 328 318 320
f 319 329 327
f 329 319 317
f 318 328 330
f 330 316 318
f 317 331 329
f 331 317 315
f 316 330 332
f 332 312 316
f 315 333 331
f 333 315 314
f 312 332 334
f 334 313 312
f 335 314 313
f 313 334 335
f 314 335 333
f 336 334 332
f 337 335 334
f 334 336 337
f 338 333 335
f 335 337 338
f 333 338 339
f 339 331 333
f 332 340 336
f 340 332 330
f 331 339 341
f 341 329 331
f 330 342 340
f 342 330 328
f 329 341 343
f 343 327 329
f 328 344 342
f 344 328 324
f 327 343 345
f 345 326 327
f 324 346 344
f 346 324 325
f 347 325 326
f 325 347 346
f 326 345 347
f 348 344 346
f 349 346 347
f 346 349 348
f 350 347 345
f 347 350 349
f 345 351 350
f 351 345 343
f 344 348 352
f 352 342 344
f 343 353 351
f 353 343 341
f 342 352 354
f 354 340 342
f 341 355 353
f 355 341 339
f 340 354 356
f 356 336 340
f 339 357 355
f 357 339 338
f 336 356 358
f 358 337 336
f 359 338 337
f 337 358 359
f 338 359 357
f 360 358 356
f 361 359 358
f 358 360 361
f 362 357 359
f 359 361 362
f 357 362 363
f 363 355 357
f 356 364 360
f 364 356 354
f 355 363 365
f 365 353 355
f 354 366 364
f 366 354 352
f 353 365 367
f 367 351 353
f 352 368 366
f 368 352 348
f 351 367 369
f 369 350 351
f 348 370 368
f 370 348 349
f 371 349 350
f 349 371 370
f 350 369 371
f 372 368 370
f 373 370 371
f 370 373 372
f 374 371 369
f 371 374 373
f 369 375 374
f 375 369 367
f 368 372 376
f 376 366 368
f 367 377 375
f 377 367 365
f 366 376 378
f 378 364 366
f 365 379 377
f 379 365 363
f 364 378 380
f 380 360 364
f 363 381 379
f 381 363 362
f 360 380 382
f 382 361 360
f 383 362 361
f 361 382 383
f 362 383 381
f 384 382 380
f 385 383 382
f 382 384 385
f 386 381 383
f 383 385 386
f 381 386 387
f 387 379 381
f 380 388 384
f 388 380 378
f 379 387 389
f 389 377 379
f 378 390 388
f 390 378 376
f 377 389 375
f 376 391 390
f 391 376 372
f 392 374 375
f 372 393 391
f 393 372 373
f 374 392 373
f 394 393 373
f 393 394 391
f 395 373 392
f 373 395 394
f 392 396 395
f 396 392 375
f 397 390 391
f 375 398 396
f 398 375 389
f 390 397 399
f 399 388 390
f 389 400 398
f 400 389 387
f 388 399 401
f 401 384 388
f 387 402 400
f 402 387 386
f 384 401 403
f 403 385 384
f 404 386 385
f 385 403 404
f 386 404 402
f 405 403 401
f 406 404 403
f 403 405 406
f 407 402 404
f 404 406 407
f 402 407 408
f 408 400 402
f 401 409 405
f 409 401 399
f 400 408 410
f 410 398 400
f 399 411 409
f 411 399 397
f 398 410 396
f 397 412 411
f 412 397 391
f 413 395 396
f 391 414 412
f 414 391 394
f 415 394 395
f 394 415 414
f 395 413 415
f 416 412 414
f 417 414 415
f 414 417 416
f 418 415 413
f 415 418 417
f 413 419 418
f 419 413 396
f 412 416 420
f 420 411 412
f 396 421 419
f 421 396 410
f 411 420 409
f 410 422 421
f 422 410 408
f 423 405 409
f 408 424 422
f 424 408 407
f 405 423 425
f 425 406 405
f 426 407 406
f 406 425 426
f 407 426 424
f 427 425 423
f 428 426 425
f 425 427 428
f 429 424 426
f 426 428 429
f 424 429 430
f 430 422 424
f 423 431 427
f 431 423 409
f 422 430 432
f 432 421 422
f 409 433 431
f 433 409 420
f 421 432 434
f 434 419 421
f 420 435 433
f 435 420 416
f 419 434 436
f 436 418 419
f 416 437 435
f 437 416 417
f 438 417 418
f 417 438 437
f 418 436 438
f 435 437 439
f 437 438 440
f 440 439 437
f 438 436 441
f 441 440 438
f 442 441 436
f 436 434 442
f 440 441 443
f 439 444 435
f 433 435 444
f 439 440 445
f 443 445 440
f 444 439 446
f 445 446 439
f 444 447 433
f 431 433 447
f 446 448 444
f 447 444 448
f 447 449 431
f 427 431 449
f 448 450 447
f 449 447 450
f 449 451 427
f 428 427 451
f 450 452 449
f 451 449 452
f 451 453 428
f 429 428 453
f 452 454 451
f 453 451 454
f 453 455 429
f 430 429 455
f 454 456 453
f 455 453 456
f 455 457 430
f 432 430 457
f 456 458 455
f 457 455 458
f 457 459 432
f 434 432 459
f 459 442 434
f 459 457 460
f 458 460 457
f 442 459 461
f 460 461 459
f 461 462 442
f 441 442 462
f 462 443 441
f 462 461 463
f 462 464 443
f 445 443 464
f 461 460 465
f 465 463 461
f 466 465 460
f 460 458 466
f 463 465 467
f 464 468 445
f 446 445 468
f 469 466 458
f 458 456 469
f 465 466 470
f 470 467 465
f 469 470 466
f 471 469 456
f 456 454 471
f 469 471 472
f 473 471 454
f 454 452 473
f 474 472 471
f 471 473 474
f 475 473 452
f 452 450 475
f 476 474 473
f 473 475 476
f 477 475 450
f 450 448 477
f 478 476 475
f 475 477 478
f 479 477 448
f 448 446 479
f 468 479 446
f 477 479 480
f 480 478 477
f 479 468 481
f 481 480 479
f 482 481 468
f 468 464 482
f 480 481 483
f 478 480 484
f 483 484 480
f 484 485 478
f 476 478 485
f 486 487 488
f 489 486 488
f 490 489 488
f 491 490 488
f 492 491 488
f 493 492 488
f 494 493 488
f 495 494 488
f 496 495 488
f 497 496 488
f 498 499 500
f 498 500 501
f 498 501 502
f 498 502 503
f 498 503 504
f 498 504 505
f 498 505 506
f 498 506 507
f 498 507 508
f 509 498 508
f 510 511 512
f 512 513 510
f 514 511 235
f 235 231 514
f 511 510 515
f 515 235 511
f 516 510 513
f 513 517 516
f 518 516 517
f 510 516 519
f 519 515 510
f 516 518 520
f 520 519 516
f 521 520 518
f 518 522 521
f 519 520 242
f 515 519 240
f 242 240 519
f 240 236 515
f 235 515 236
f 523 521 522
f 522 524 523
f 520 521 244
f 244 242 520
f 521 523 246
f 246 244 521
f 525 523 524
f 524 526 525
f 249 246 523
f 523 525 249
f 527 525 526
f 526 528 527
f 529 249 525
f 525 527 529
f 530 527 528
f 528 531 530
f 532 530 531
f 527 530 533
f 533 529 527
f 530 532 232
f 232 533 530
f 229 232 532
f 532 230 229
f 533 232 182
f 529 533 181
f 182 181 533
f 181 250 529
f 249 529 250
f 534 535 536
f 537 536 535
f 536 538 534
f 535 539 537
f 540 537 539
f 541 534 538
f 538 542 541
f 539 543 540
f 544 540 543
f 539 535 545
f 543 546 544
f 547 544 546
f 543 539 548
f 545 548 539
f 546 543 549
f 548 549 543
f 546 550 547
f 551 547 550
f 549 552 546
f 550 546 552
f 550 553 551
f 554 551 553
f 552 555 550
f 553 550 555
f 553 556 554
f 557 554 556
f 555 558 553
f 556 553 558
f 556 559 557
f 560 557 559
f 558 561 556
f 559 556 561
f 559 562 560
f 563 560 562
f 561 564 559
f 562 559 564
f 562 565 563
f 542 563 565
f 565 541 542
f 565 562 566
f 564 566 562
f 541 565 567
f 566 567 565
f 567 568 541
f 534 541 568
f 567 566 3
f 568 569 534
f 535 534 569
f 569 545 535
f 568 567 4
f 3 4 567
f 569 568 8
f 4 8 568
f 545 569 570
f 8 570 569
f 570 571 545
f 548 545 571
f 570 8 9
f 571 572 548
f 549 548 572
f 571 570 14
f 9 14 570
f 572 571 17
f 14 17 571
f 572 573 549
f 552 549 573
f 17 20 572
f 573 572 20
f 573 574 552
f 555 552 574
f 20 23 573
f 574 573 23
f 574 575 555
f 558 555 575
f 23 26 574
f 575 574 26
f 575 576 558
f 561 558 576
f 26 29 575
f 576 575 29
f 576 577 561
f 564 561 577
f 29 32 576
f 577 576 32
f 577 578 564
f 566 564 578
f 578 3 566
f 578 577 5
f 32 5 577
f 3 578 1
f 5 1 578
f 579 482 464
f 464 462 579
f 481 482 580
f 580 483 481
f 482 579 581
f 581 580 482
f 582 579 462
f 462 463 582
f 467 582 463
f 579 582 583
f 583 581 579
f 582 467 584
f 584 583 582
f 585 584 467
f 467 470 585
f 581 583 586
f 584 586 583
f 586 587 581
f 580 581 587
f 588 585 470
f 470 469 588
f 584 585 589
f 585 588 590
f 590 589 585
f 591 588 469
f 469 472 591
f 592 590 588
f 588 591 592
f 593 591 472
f 472 474 593
f 594 592 591
f 591 593 594
f 595 593 474
f 474 476 595
f 485 595 476
f 593 595 596
f 596 594 593
f 595 485 597
f 597 596 595
f 598 597 485
f 485 484 598
f 596 597 513
f 594 596 512
f 513 512 596
f 512 599 594
f 592 594 599
f 600 601 602
f 601 600 95
f 95 94 601
f 602 603 600
f 603 602 604
f 98 95 600
f 604 605 603
f 605 604 606
f 103 600 603
f 600 103 98
f 607 603 605
f 603 607 103
f 606 608 605
f 608 606 609
f 605 610 607
f 610 605 608
f 104 103 607
f 110 607 610
f 607 110 104
f 609 611 608
f 611 609 612
f 608 613 610
f 613 608 611
f 610 113 110
f 113 610 613
f 612 614 611
f 614 612 615
f 611 75 613
f 75 611 614
f 613 77 113
f 77 613 75
f 615 81 614
f 81 615 79
f 614 78 75
f 78 614 81
f 616 598 484
f 484 483 616
f 597 598 517
f 517 513 597
f 598 616 617
f 617 517 598
f 618 616 483
f 483 580 618
f 587 618 580
f 616 618 619
f 619 617 616
f 618 587 620
f 620 619 618
f 621 620 587
f 587 586 621
f 619 620 524
f 617 619 522
f 524 522 619
f 522 518 617
f 517 617 518
f 622 621 586
f 586 584 622
f 620 621 526
f 526 524 620
f 621 622 528
f 528 526 621
f 623 622 584
f 584 589 623
f 531 528 622
f 622 623 531
f 624 623 589
f 589 590 624
f 625 531 623
f 623 624 625
f 626 624 590
f 590 592 626
f 599 626 592
f 624 626 627
f 627 625 624
f 626 599 514
f 514 627 626
f 511 514 599
f 599 512 511
f 627 514 231
f 625 627 230
f 231 230 627
f 230 532 625
f 531 625 532
