v -0.128711671 -0.247844279 1.20940602
v -0.102834329 -0.247844279 1.20940602
v -0.102834329 -0.229395002 1.20940602
v -0.128711671 -0.229395002 1.20940602
v 0.101035327 -0.247844279 1.20940602
v 0.126912668 -0.247844279 1.20940602
v 0.126912668 -0.229395002 1.20940602
v 0.101035327 -0.229395002 1.20940602
v -0.102834329 -0.247844264 0.399283975
v -0.128711671 -0.247844264 0.399283975
v -0.128711671 -0.229395002 0.399283975
v -0.102834329 -0.229395002 0.399283975
v 0.126912668 -0.247844264 0.399283975
v 0.101035327 -0.247844264 0.399283975
v 0.101035327 -0.229395002 0.399283975
v 0.126912668 -0.229395002 0.399283975
v -0.128811672 -0.247818142 1.209306
v -0.128711671 -0.247844279 1.20940602
v -0.128711671 -0.229395002 1.20940602
v -0.128811672 -0.229395002 1.209306
v 0.12701267 -0.229395002 1.209306
v 0.126912668 -0.229395002 1.20940602
v 0.126912668 -0.247844279 1.20940602
v 0.12701267 -0.247818142 1.209306
v -0.128711671 -0.247844264 0.399283975
v -0.128811672 -0.247818142 0.399383992
v -0.128811672 -0.229395002 0.399383992
v -0.128711671 -0.229395002 0.399283975
v 0.12701267 -0.247818142 0.399383992
v 0.126912668 -0.247844264 0.399283975
v 0.126912668 -0.229395002 0.399283975
v 0.12701267 -0.229395002 0.399383992
v -0.128711671 -0.229395002 1.20940602
v -0.128711671 -0.229295 1.209306
v -0.128811672 -0.229395002 1.209306
v 0.12701267 -0.229395002 1.209306
v 0.126912668 -0.229295 1.209306
v 0.126912668 -0.229395002 1.20940602
v -0.128811672 -0.229395002 0.399383992
v -0.128711671 -0.229295 0.399383992
v -0.128711671 -0.229395002 0.399283975
v 0.126912668 -0.229395002 0.399283975
v 0.126912668 -0.229295 0.399383992
v 0.12701267 -0.229395002 0.399383992
v 0.12701267 -0.247818142 1.209306
v 0.126912668 -0.247844279 1.20940602
v 0.126912668 -0.247944281 1.209306
v -0.128811672 -0.247818142 0.399383992
v -0.128711671 -0.247844264 0.399283975
v -0.128711671 -0.247944266 0.399383992
v -0.102834329 -0.247944281 1.209306
v -0.102834329 -0.247844279 1.20940602
v -0.128711671 -0.247844279 1.20940602
v -0.128711671 -0.247944281 1.209306
v -0.128711671 -0.229295 1.209306
v -0.128711671 -0.229395002 1.20940602
v -0.102834329 -0.229395002 1.20940602
v -0.102834329 -0.229295 1.209306
v 0.126912668 -0.247944281 1.209306
v 0.126912668 -0.247844279 1.20940602
v 0.101035327 -0.247844279 1.20940602
v 0.101035327 -0.247944281 1.209306
v 0.101035327 -0.229295 1.209306
v 0.101035327 -0.229395002 1.20940602
v 0.126912668 -0.229395002 1.20940602
v 0.126912668 -0.229295 1.209306
v -0.128711671 -0.247944266 0.399383992
v -0.128711671 -0.247844264 0.399283975
v -0.102834329 -0.247844264 0.399283975
v -0.102834329 -0.247944266 0.399383992
v -0.102834329 -0.229295 0.399383992
v -0.102834329 -0.229395002 0.399283975
v -0.128711671 -0.229395002 0.399283975
v -0.128711671 -0.229295 0.399383992
v 0.101035327 -0.247944266 0.399383992
v 0.101035327 -0.247844264 0.399283975
v 0.126912668 -0.247844264 0.399283975
v 0.126912668 -0.247944266 0.399383992
v 0.126912668 -0.229295 0.399383992
v 0.126912668 -0.229395002 0.399283975
v 0.101035327 -0.229395002 0.399283975
v 0.101035327 -0.229295 0.399383992
v -0.128811672 -0.24231571 1.08070433
v -0.128711671 -0.242294997 1.08080423
v -0.128711671 -0.229395002 1.08080423
v -0.128811672 -0.229395002 1.08070433
v 0.126912668 -0.242294997 1.08080423
v 0.12701267 -0.24231571 1.08070433
v 0.12701267 -0.229395002 1.08070433
v 0.126912668 -0.229395002 1.08080423
v -0.128711671 -0.242294997 0.527885735
v -0.128811672 -0.242315724 0.527985692
v -0.128811672 -0.229395002 0.527985692
v -0.128711671 -0.229395002 0.527885735
v 0.12701267 -0.242315724 0.527985692
v 0.126912668 -0.242294997 0.527885735
v 0.126912668 -0.229395002 0.527885735
v 0.12701267 -0.229395002 0.527985692
v -0.128711671 -0.242294997 1.08080423
v -0.102834329 -0.242294997 1.08080423
v -0.102834329 -0.229395002 1.08080423
v -0.128711671 -0.229395002 1.08080423
v 0.101035327 -0.242294997 1.08080423
v 0.126912668 -0.242294997 1.08080423
v 0.126912668 -0.229395002 1.08080423
v 0.101035327 -0.229395002 1.08080423
v -0.102834329 -0.242294997 0.527885735
v -0.128711671 -0.242294997 0.527885735
v -0.128711671 -0.229395002 0.527885735
v -0.102834329 -0.229395002 0.527885735
v 0.126912668 -0.242294997 0.527885735
v 0.101035327 -0.242294997 0.527885735
v 0.101035327 -0.229395002 0.527885735
v 0.126912668 -0.229395002 0.527885735
v -0.128811672 -0.242495 0.527874172
v -0.128811672 -0.242315724 0.527985692
v -0.128711671 -0.242294997 0.527885735
v 0.126912668 -0.242294997 0.527885735
v 0.12701267 -0.242315724 0.527985692
v 0.12701267 -0.242495 0.527874172
v -0.128811672 -0.24231571 1.08070433
v -0.128811672 -0.242495 1.08081579
v -0.128711671 -0.242394999 1.08090425
v 0.126912668 -0.242394999 1.08090425
v 0.12701267 -0.242495 1.08081579
v 0.12701267 -0.24231571 1.08070433
v -0.128711671 -0.229395002 1.08080423
v -0.128711671 -0.229295 1.08070433
v -0.128811672 -0.229395002 1.08070433
v 0.12701267 -0.229395002 1.08070433
v 0.126912668 -0.229295 1.08070433
v 0.126912668 -0.229395002 1.08080423
v -0.128811672 -0.229395002 0.527985692
v -0.128711671 -0.229295 0.527985692
v -0.128711671 -0.229395002 0.527885735
v 0.126912668 -0.229395002 0.527885735
v 0.126912668 -0.229295 0.527985692
v 0.12701267 -0.229395002 0.527985692
v -0.128711671 -0.242394999 1.08090425
v -0.128711671 -0.242294997 1.08080423
v -0.128811672 -0.24231571 1.08070433
v 0.12701267 -0.24231571 1.08070433
v 0.126912668 -0.242294997 1.08080423
v 0.126912668 -0.242394999 1.08090425
v -0.128711671 -0.242294997 0.527885735
v -0.128711671 -0.242394999 0.527785718
v -0.128811672 -0.242495 0.527874172
v 0.12701267 -0.242495 0.527874172
v 0.126912668 -0.242394999 0.527785718
v 0.126912668 -0.242294997 0.527885735
v -0.102734327 -0.229395002 1.209306
v -0.102834329 -0.229395002 1.20940602
v -0.102834329 -0.247844279 1.20940602
v -0.102734327 -0.247818142 1.209306
v 0.100935332 -0.247818142 1.209306
v 0.101035327 -0.247844279 1.20940602
v 0.101035327 -0.229395002 1.20940602
v 0.100935332 -0.229395002 1.209306
v -0.102734327 -0.247818142 0.399383992
v -0.102834329 -0.247844264 0.399283975
v -0.102834329 -0.229395002 0.399283975
v -0.102734327 -0.229395002 0.399383992
v 0.101035327 -0.247844264 0.399283975
v 0.100935325 -0.247818142 0.399383992
v 0.100935325 -0.229395002 0.399383992
v 0.101035327 -0.229395002 0.399283975
v -0.128711671 -0.229295 1.08070433
v -0.128711671 -0.229395002 1.08080423
v -0.102834329 -0.229395002 1.08080423
v -0.102834329 -0.229295 1.08070433
v 0.101035327 -0.229295 1.08070433
v 0.101035327 -0.229395002 1.08080423
v 0.126912668 -0.229395002 1.08080423
v 0.126912668 -0.229295 1.08070433
v -0.102834329 -0.229295 0.527985692
v -0.102834329 -0.229395002 0.527885735
v -0.128711671 -0.229395002 0.527885735
v -0.128711671 -0.229295 0.527985692
v 0.126912668 -0.229295 0.527985692
v 0.126912668 -0.229395002 0.527885735
v 0.101035327 -0.229395002 0.527885735
v 0.101035327 -0.229295 0.527985692
v -0.128711671 -0.242294997 1.08080423
v -0.128711671 -0.242394999 1.08090425
v -0.102834329 -0.242394999 1.08090425
v -0.102834329 -0.242294997 1.08080423
v 0.101035327 -0.242294997 1.08080423
v 0.101035327 -0.242394999 1.08090425
v 0.126912668 -0.242394999 1.08090425
v 0.126912668 -0.242294997 1.08080423
v -0.102834329 -0.242294997 0.527885735
v -0.102834329 -0.242394999 0.527785718
v -0.128711671 -0.242394999 0.527785718
v -0.128711671 -0.242294997 0.527885735
v 0.126912668 -0.242294997 0.527885735
v 0.126912668 -0.242394999 0.527785718
v 0.101035327 -0.242394999 0.527785718
v 0.101035327 -0.242294997 0.527885735
v -0.102734327 -0.229395002 1.209306
v -0.102834329 -0.229295 1.209306
v -0.102834329 -0.229395002 1.20940602
v 0.101035327 -0.229395002 1.20940602
v 0.101035327 -0.229295 1.209306
v 0.100935332 -0.229395002 1.209306
v -0.102834329 -0.229395002 0.399283975
v -0.102834329 -0.229295 0.399383992
v -0.102734327 -0.229395002 0.399383992
v 0.100935325 -0.229395002 0.399383992
v 0.101035327 -0.229295 0.399383992
v 0.101035327 -0.229395002 0.399283975
v -0.128811672 -0.247844279 1.20854068
v -0.128711671 -0.247944281 1.209306
v -0.128711671 -0.247844279 1.20940602
v 0.12701267 -0.247844264 0.400149375
v 0.126912668 -0.247944266 0.399383992
v 0.126912668 -0.247844264 0.399283975
v -0.102734327 -0.247818142 1.209306
v -0.102834329 -0.247844279 1.20940602
v -0.102834329 -0.247944281 1.209306
v 0.100935325 -0.247818142 0.399383992
v 0.101035327 -0.247844264 0.399283975
v 0.101035327 -0.247944266 0.399383992
v -0.128811672 -0.242315724 1.18581569
v -0.128811672 -0.247818142 1.209306
v -0.128811672 -0.229395002 1.209306
v -0.128811672 -0.229395002 1.18581569
v -0.128811672 -0.247844279 1.20854068
v -0.128811672 -0.242495 1.18570411
v -0.128811672 -0.242495 1.08081579
v -0.128811672 -0.247844264 1.05797935
v -0.128811672 -0.247818142 1.05721402
v -0.128811672 -0.24231571 1.08070433
v -0.128811672 -0.229395002 1.08070433
v -0.128811672 -0.229395002 1.05721402
v 0.12701267 -0.242315724 1.18581569
v 0.12701267 -0.229395002 1.18581569
v 0.12701267 -0.229395002 1.209306
v 0.12701267 -0.247818142 1.209306
v 0.12701267 -0.242495 1.18570411
v 0.12701267 -0.247844279 1.20854068
v 0.12701267 -0.247844264 1.05797935
v 0.12701267 -0.242495 1.08081579
v 0.12701267 -0.24231571 1.08070433
v 0.12701267 -0.247818142 1.05721402
v 0.12701267 -0.229395002 1.05721402
v 0.12701267 -0.229395002 1.08070433
v -0.128811672 -0.242315724 0.527985692
v -0.128811672 -0.247818142 0.551476002
v -0.128811672 -0.229395002 0.551476002
v -0.128811672 -0.229395002 0.527985692
v -0.128811672 -0.247844279 0.550710618
v -0.128811672 -0.242495 0.527874172
v -0.128811672 -0.242495 0.422985852
v -0.128811672 -0.247844264 0.400149375
v -0.128811672 -0.247818142 0.399383992
v -0.128811672 -0.24231571 0.422874272
v -0.128811672 -0.229395002 0.422874272
v -0.128811672 -0.229395002 0.399383992
v 0.12701267 -0.242315724 0.527985692
v 0.12701267 -0.229395002 0.527985692
v 0.12701267 -0.229395002 0.551476002
v 0.12701267 -0.247818142 0.551476002
v 0.12701267 -0.242495 0.527874172
v 0.12701267 -0.247844279 0.550710618
v 0.12701267 -0.247844264 0.400149375
v 0.12701267 -0.242495 0.422985852
v 0.12701267 -0.24231571 0.422874272
v 0.12701267 -0.247818142 0.399383992
v 0.12701267 -0.229395002 0.399383992
v 0.12701267 -0.229395002 0.422874272
v -0.102834329 -0.242294997 1.08080423
v -0.102734327 -0.24231571 1.08070433
v -0.102734327 -0.229395002 1.08070433
v -0.102834329 -0.229395002 1.08080423
v 0.100935325 -0.24231571 1.08070433
v 0.101035327 -0.242294997 1.08080423
v 0.101035327 -0.229395002 1.08080423
v 0.100935325 -0.229395002 1.08070433
v -0.102734327 -0.242315724 0.527985692
v -0.102834329 -0.242294997 0.527885735
v -0.102834329 -0.229395002 0.527885735
v -0.102734327 -0.229395002 0.527985692
v 0.101035327 -0.242294997 0.527885735
v 0.100935332 -0.242315724 0.527985692
v 0.100935332 -0.229395002 0.527985692
v 0.101035327 -0.229395002 0.527885735
v 0.126912668 -0.247944281 1.209306
v 0.12701267 -0.247844279 1.20854068
v 0.12701267 -0.247818142 1.209306
v -0.128711671 -0.247944266 0.399383992
v -0.128811672 -0.247844264 0.400149375
v -0.128811672 -0.247818142 0.399383992
v -0.102734327 -0.229395002 1.08070433
v -0.102834329 -0.229295 1.08070433
v -0.102834329 -0.229395002 1.08080423
v 0.101035327 -0.229395002 1.08080423
v 0.101035327 -0.229295 1.08070433
v 0.100935325 -0.229395002 1.08070433
v -0.102834329 -0.229395002 0.527885735
v -0.102834329 -0.229295 0.527985692
v -0.102734327 -0.229395002 0.527985692
v 0.100935332 -0.229395002 0.527985692
v 0.101035327 -0.229295 0.527985692
v 0.101035327 -0.229395002 0.527885735
v -0.128711671 -0.247944266 1.05721402
v -0.128811672 -0.247844264 1.05797935
v -0.128811672 -0.247818142 1.05721402
v 0.126912668 -0.247944281 0.551476002
v 0.12701267 -0.247844279 0.550710618
v 0.12701267 -0.247818142 0.551476002
v 0.12701267 -0.247844264 1.05797935
v 0.126912668 -0.247944266 1.05721402
v 0.126912668 -0.247844264 1.05711401
v -0.128811672 -0.247844279 0.550710618
v -0.128711671 -0.247944281 0.551476002
v -0.128711671 -0.247844279 0.551576018
v -0.102834329 -0.242294997 0.527885735
v -0.102734327 -0.242315724 0.527985692
v -0.102734327 -0.242495 0.527874172
v 0.100935332 -0.242495 0.527874172
v 0.100935332 -0.242315724 0.527985692
v 0.101035327 -0.242294997 0.527885735
v -0.128711671 -0.229295 1.18581569
v -0.128811672 -0.229395002 1.18581569
v -0.128811672 -0.229395002 1.209306
v -0.128711671 -0.229295 1.209306
v -0.128711671 -0.229295 1.05721402
v -0.128811672 -0.229395002 1.05721402
v -0.128811672 -0.229395002 1.08070433
v -0.128711671 -0.229295 1.08070433
v 0.126912668 -0.229295 1.209306
v 0.12701267 -0.229395002 1.209306
v 0.12701267 -0.229395002 1.18581569
v 0.126912668 -0.229295 1.18581569
v 0.126912668 -0.229295 1.08070433
v 0.12701267 -0.229395002 1.08070433
v 0.12701267 -0.229395002 1.05721402
v 0.126912668 -0.229295 1.05721402
v -0.128711671 -0.229295 0.527985692
v -0.128811672 -0.229395002 0.527985692
v -0.128811672 -0.229395002 0.551476002
v -0.128711671 -0.229295 0.551476002
v -0.128711671 -0.229295 0.399383992
v -0.128811672 -0.229395002 0.399383992
v -0.128811672 -0.229395002 0.422874272
v -0.128711671 -0.229295 0.422874272
v 0.126912668 -0.229295 0.551476002
v 0.12701267 -0.229395002 0.551476002
v 0.12701267 -0.229395002 0.527985692
v 0.126912668 -0.229295 0.527985692
v 0.126912668 -0.229295 0.422874272
v 0.12701267 -0.229395002 0.422874272
v 0.12701267 -0.229395002 0.399383992
v 0.126912668 -0.229295 0.399383992
v -0.128711671 -0.247944281 1.209306
v -0.128811672 -0.247844279 1.20854068
v -0.128811672 -0.247844264 1.05797935
v -0.128711671 -0.247944266 1.05721402
v 0.126912668 -0.247944266 1.05721402
v 0.12701267 -0.247844264 1.05797935
v 0.12701267 -0.247844279 1.20854068
v 0.126912668 -0.247944281 1.209306
v -0.128711671 -0.247944281 0.551476002
v -0.128811672 -0.247844279 0.550710618
v -0.128811672 -0.247844264 0.400149375
v -0.128711671 -0.247944266 0.399383992
v 0.126912668 -0.247944266 0.399383992
v 0.12701267 -0.247844264 0.400149375
v 0.12701267 -0.247844279 0.550710618
v 0.126912668 -0.247944281 0.551476002
v -0.128711671 -0.242394999 1.08090425
v -0.128811672 -0.242495 1.08081579
v -0.128811672 -0.242495 1.18570411
v -0.128711671 -0.242394999 1.18561566
v 0.126912668 -0.242394999 1.18561566
v 0.12701267 -0.242495 1.18570411
v 0.12701267 -0.242495 1.08081579
v 0.126912668 -0.242394999 1.08090425
v -0.128711671 -0.242394999 0.423074275
v -0.128811672 -0.242495 0.422985852
v -0.128811672 -0.242495 0.527874172
v -0.128711671 -0.242394999 0.527785718
v 0.126912668 -0.242394999 0.527785718
v 0.12701267 -0.242495 0.527874172
v 0.12701267 -0.242495 0.422985852
v 0.126912668 -0.242394999 0.423074275
v -0.102734327 -0.24231571 1.08070433
v -0.102834329 -0.242294997 1.08080423
v -0.102834329 -0.242394999 1.08090425
v 0.101035327 -0.242394999 1.08090425
v 0.101035327 -0.242294997 1.08080423
v 0.100935325 -0.24231571 1.08070433
v -0.102834329 -0.242394999 1.08090425
v -0.102734327 -0.242495 1.08081579
v -0.102734327 -0.24231571 1.08070433
v 0.100935325 -0.24231571 1.08070433
v 0.100935325 -0.242495 1.08081579
v 0.101035327 -0.242394999 1.08090425
v -0.128711671 -0.247844279 1.20940602
v -0.128811672 -0.247818142 1.209306
v -0.128811672 -0.247844279 1.20854068
v 0.126912668 -0.247844264 0.399283975
v 0.12701267 -0.247818142 0.399383992
v 0.12701267 -0.247844264 0.400149375
v 0.126912668 -0.247844264 1.05711401
v 0.12701267 -0.247818142 1.05721402
v 0.12701267 -0.247844264 1.05797935
v -0.128711671 -0.247844279 0.551576018
v -0.128811672 -0.247818142 0.551476002
v -0.128811672 -0.247844279 0.550710618
v -0.102734327 -0.242495 0.527874172
v -0.102834329 -0.242394999 0.527785718
v -0.102834329 -0.242294997 0.527885735
v 0.101035327 -0.242294997 0.527885735
v 0.101035327 -0.242394999 0.527785718
v 0.100935332 -0.242495 0.527874172
v -0.128711671 -0.229295 1.209306
v -0.102834329 -0.229295 1.209306
v -0.102834329 -0.229295 1.18581569
v -0.128711671 -0.229295 1.18581569
v -0.128711671 -0.229295 1.08070433
v -0.102834329 -0.229295 1.08070433
v -0.102834329 -0.229295 1.05721402
v -0.128711671 -0.229295 1.05721402
v -0.128711671 -0.247944281 1.209306
v -0.128711671 -0.247944266 1.05721402
v -0.102834329 -0.247944266 1.05721402
v -0.102834329 -0.247944281 1.209306
v 0.101035327 -0.229295 1.209306
v 0.126912668 -0.229295 1.209306
v 0.126912668 -0.229295 1.18581569
v 0.101035327 -0.229295 1.18581569
v 0.101035327 -0.229295 1.08070433
v 0.126912668 -0.229295 1.08070433
v 0.126912668 -0.229295 1.05721402
v 0.101035327 -0.229295 1.05721402
v 0.101035327 -0.247944281 1.209306
v 0.101035327 -0.247944266 1.05721402
v 0.126912668 -0.247944266 1.05721402
v 0.126912668 -0.247944281 1.209306
v -0.128711671 -0.229295 0.551476002
v -0.102834329 -0.229295 0.551476002
v -0.102834329 -0.229295 0.527985692
v -0.128711671 -0.229295 0.527985692
v -0.128711671 -0.229295 0.422874272
v -0.102834329 -0.229295 0.422874272
v -0.102834329 -0.229295 0.399383992
v -0.128711671 -0.229295 0.399383992
v -0.128711671 -0.247944281 0.551476002
v -0.128711671 -0.247944266 0.399383992
v -0.102834329 -0.247944266 0.399383992
v -0.102834329 -0.247944281 0.551476002
v 0.101035327 -0.229295 0.551476002
v 0.126912668 -0.229295 0.551476002
v 0.126912668 -0.229295 0.527985692
v 0.101035327 -0.229295 0.527985692
v 0.101035327 -0.229295 0.422874272
v 0.126912668 -0.229295 0.422874272
v 0.126912668 -0.229295 0.399383992
v 0.101035327 -0.229295 0.399383992
v 0.101035327 -0.247944281 0.551476002
v 0.101035327 -0.247944266 0.399383992
v 0.126912668 -0.247944266 0.399383992
v 0.126912668 -0.247944281 0.551476002
v -0.128711671 -0.242394999 1.18561566
v -0.102834329 -0.242394999 1.18561566
v -0.102834329 -0.242394999 1.08090425
v -0.128711671 -0.242394999 1.08090425
v 0.101035327 -0.242394999 1.18561566
v 0.126912668 -0.242394999 1.18561566
v 0.126912668 -0.242394999 1.08090425
v 0.101035327 -0.242394999 1.08090425
v -0.128711671 -0.242394999 0.527785718
v -0.102834329 -0.242394999 0.527785718
v -0.102834329 -0.242394999 0.423074275
v -0.128711671 -0.242394999 0.423074275
v 0.101035327 -0.242394999 0.527785718
v 0.126912668 -0.242394999 0.527785718
v 0.126912668 -0.242394999 0.423074275
v 0.101035327 -0.242394999 0.423074275
v 0.101035327 -0.247844279 1.20940602
v 0.100935332 -0.247818142 1.209306
v 0.100935332 -0.247844279 1.20854068
v -0.102834329 -0.247844264 0.399283975
v -0.102734327 -0.247818142 0.399383992
v -0.102734327 -0.247844264 0.400149375
v -0.102834329 -0.247844264 1.05711401
v -0.102734327 -0.247818142 1.05721402
v -0.102734327 -0.247844264 1.05797935
v 0.101035327 -0.247844279 0.551576018
v 0.100935332 -0.247818142 0.551476002
v 0.100935332 -0.247844279 0.550710618
v -0.128811672 -0.247818142 1.05721402
v -0.128711671 -0.247844264 1.05711401
v -0.128711671 -0.247944266 1.05721402
v 0.12701267 -0.247818142 0.551476002
v 0.126912668 -0.247844279 0.551576018
v 0.126912668 -0.247944281 0.551476002
v 0.100935332 -0.247844279 1.20854068
v 0.101035327 -0.247944281 1.209306
v 0.101035327 -0.247844279 1.20940602
v -0.102734327 -0.247844264 0.400149375
v -0.102834329 -0.247944266 0.399383992
v -0.102834329 -0.247844264 0.399283975
v -0.128711671 -0.242294997 1.18571568
v -0.128711671 -0.242394999 1.18561566
v -0.128811672 -0.242495 1.18570411
v 0.12701267 -0.242495 1.18570411
v 0.126912668 -0.242394999 1.18561566
v 0.126912668 -0.242294997 1.18571568
v -0.102834329 -0.247944281 1.209306
v -0.102734327 -0.247844279 1.20854068
v -0.102734327 -0.247818142 1.209306
v -0.102834329 -0.247944266 1.05721402
v -0.102734327 -0.247844264 1.05797935
v -0.102734327 -0.247844279 1.20854068
v -0.102834329 -0.247944281 1.209306
v -0.102834329 -0.229295 1.209306
v -0.102734327 -0.229395002 1.209306
v -0.102734327 -0.229395002 1.18581569
v -0.102834329 -0.229295 1.18581569
v -0.102834329 -0.229295 1.08070433
v -0.102734327 -0.229395002 1.08070433
v -0.102734327 -0.229395002 1.05721402
v -0.102834329 -0.229295 1.05721402
v 0.101035327 -0.247944281 1.209306
v 0.100935332 -0.247844279 1.20854068
v 0.100935325 -0.247844264 1.05797935
v 0.101035327 -0.247944266 1.05721402
v 0.101035327 -0.229295 1.18581569
v 0.100935332 -0.229395002 1.18581569
v 0.100935332 -0.229395002 1.209306
v 0.101035327 -0.229295 1.209306
v 0.101035327 -0.229295 1.05721402
v 0.100935325 -0.229395002 1.05721402
v 0.100935325 -0.229395002 1.08070433
v 0.101035327 -0.229295 1.08070433
v -0.102834329 -0.247944266 0.399383992
v -0.102734327 -0.247844264 0.400149375
v -0.102734327 -0.247844279 0.550710618
v -0.102834329 -0.247944281 0.551476002
v -0.102834329 -0.229295 0.551476002
v -0.102734327 -0.229395002 0.551476002
v -0.102734327 -0.229395002 0.527985692
v -0.102834329 -0.229295 0.527985692
v -0.102834329 -0.229295 0.422874272
v -0.102734327 -0.229395002 0.422874272
v -0.102734327 -0.229395002 0.399383992
v -0.102834329 -0.229295 0.399383992
v 0.101035327 -0.247944266 0.399383992
v 0.100935325 -0.247844264 0.400149375
v 0.100935325 -0.247818142 0.399383992
v 0.101035327 -0.247944281 0.551476002
v 0.100935332 -0.247844279 0.550710618
v 0.100935325 -0.247844264 0.400149375
v 0.101035327 -0.247944266 0.399383992
v 0.101035327 -0.229295 0.527985692
v 0.100935332 -0.229395002 0.527985692
v 0.100935332 -0.229395002 0.551476002
v 0.101035327 -0.229295 0.551476002
v 0.101035327 -0.229295 0.399383992
v 0.100935325 -0.229395002 0.399383992
v 0.100935325 -0.229395002 0.422874272
v 0.101035327 -0.229295 0.422874272
v -0.128811672 -0.229395002 1.05721402
v -0.128711671 -0.229295 1.05721402
v -0.128711671 -0.229395002 1.05711401
v 0.126912668 -0.229395002 1.05711401
v 0.126912668 -0.229295 1.05721402
v 0.12701267 -0.229395002 1.05721402
v -0.128711671 -0.229395002 0.551576018
v -0.128711671 -0.229295 0.551476002
v -0.128811672 -0.229395002 0.551476002
v 0.12701267 -0.229395002 0.551476002
v 0.126912668 -0.229295 0.551476002
v 0.126912668 -0.229395002 0.551576018
v -0.102834329 -0.242394999 1.18561566
v -0.102734327 -0.242495 1.18570411
v -0.102734327 -0.242495 1.08081579
v -0.102834329 -0.242394999 1.08090425
v 0.101035327 -0.242394999 1.08090425
v 0.100935325 -0.242495 1.08081579
v 0.100935332 -0.242495 1.18570411
v 0.101035327 -0.242394999 1.18561566
v -0.102834329 -0.242394999 0.527785718
v -0.102734327 -0.242495 0.527874172
v -0.102734327 -0.242495 0.422985852
v -0.102834329 -0.242394999 0.423074275
v 0.101035327 -0.242394999 0.423074275
v 0.100935325 -0.242495 0.422985852
v 0.100935332 -0.242495 0.527874172
v 0.101035327 -0.242394999 0.527785718
v 0.101035327 -0.247944266 1.05721402
v 0.100935325 -0.247844264 1.05797935
v 0.100935325 -0.247818142 1.05721402
v -0.102834329 -0.247944281 0.551476002
v -0.102734327 -0.247844279 0.550710618
v -0.102734327 -0.247818142 0.551476002
v -0.128711671 -0.247844264 1.05711401
v -0.128811672 -0.247818142 1.05721402
v -0.128811672 -0.229395002 1.05721402
v -0.128711671 -0.229395002 1.05711401
v 0.12701267 -0.247818142 1.05721402
v 0.126912668 -0.247844264 1.05711401
v 0.126912668 -0.229395002 1.05711401
v 0.12701267 -0.229395002 1.05721402
v -0.128811672 -0.247818142 0.551476002
v -0.128711671 -0.247844279 0.551576018
v -0.128711671 -0.229395002 0.551576018
v -0.128811672 -0.229395002 0.551476002
v 0.12701267 -0.229395002 0.551476002
v 0.126912668 -0.229395002 0.551576018
v 0.126912668 -0.247844279 0.551576018
v 0.12701267 -0.247818142 0.551476002
v -0.128811672 -0.24231571 0.422874272
v -0.128811672 -0.242495 0.422985852
v -0.128711671 -0.242394999 0.423074275
v 0.126912668 -0.242394999 0.423074275
v 0.12701267 -0.242495 0.422985852
v 0.12701267 -0.24231571 0.422874272
v -0.102734327 -0.242315724 1.18581569
v -0.102734327 -0.229395002 1.18581569
v -0.102734327 -0.229395002 1.209306
v -0.102734327 -0.247818142 1.209306
v -0.102734327 -0.242495 1.18570411
v -0.102734327 -0.247844279 1.20854068
v -0.102734327 -0.247844264 1.05797935
v -0.102734327 -0.242495 1.08081579
v -0.102734327 -0.24231571 1.08070433
v -0.102734327 -0.247818142 1.05721402
v -0.102734327 -0.229395002 1.05721402
v -0.102734327 -0.229395002 1.08070433
v 0.100935332 -0.242315724 1.18581569
v 0.100935332 -0.247818142 1.209306
v 0.100935332 -0.229395002 1.209306
v 0.100935332 -0.229395002 1.18581569
v 0.100935332 -0.247844279 1.20854068
v 0.100935332 -0.242495 1.18570411
v 0.100935325 -0.242495 1.08081579
v 0.100935325 -0.247844264 1.05797935
v 0.100935325 -0.247818142 1.05721402
v 0.100935325 -0.24231571 1.08070433
v 0.100935325 -0.229395002 1.08070433
v 0.100935325 -0.229395002 1.05721402
v -0.102734327 -0.242315724 0.527985692
v -0.102734327 -0.229395002 0.527985692
v -0.102734327 -0.229395002 0.551476002
v -0.102734327 -0.247818142 0.551476002
v -0.102734327 -0.242495 0.527874172
v -0.102734327 -0.247844279 0.550710618
v -0.102734327 -0.247844264 0.400149375
v -0.102734327 -0.242495 0.422985852
v -0.102734327 -0.24231571 0.422874272
v -0.102734327 -0.247818142 0.399383992
v -0.102734327 -0.229395002 0.399383992
v -0.102734327 -0.229395002 0.422874272
v 0.100935332 -0.242315724 0.527985692
v 0.100935332 -0.247818142 0.551476002
v 0.100935332 -0.229395002 0.551476002
v 0.100935332 -0.229395002 0.527985692
v 0.100935332 -0.247844279 0.550710618
v 0.100935332 -0.242495 0.527874172
v 0.100935325 -0.242495 0.422985852
v 0.100935325 -0.247844264 0.400149375
v 0.100935325 -0.247818142 0.399383992
v 0.100935325 -0.24231571 0.422874272
v 0.100935325 -0.229395002 0.422874272
v 0.100935325 -0.229395002 0.399383992
v -0.128711671 -0.242394999 0.423074275
v -0.128711671 -0.242294997 0.422974288
v -0.128811672 -0.24231571 0.422874272
v 0.12701267 -0.24231571 0.422874272
v 0.126912668 -0.242294997 0.422974288
v 0.126912668 -0.242394999 0.423074275
v -0.102734327 -0.247844264 1.05797935
v -0.102834329 -0.247944266 1.05721402
v -0.102834329 -0.247844264 1.05711401
v 0.100935332 -0.247844279 0.550710618
v 0.101035327 -0.247944281 0.551476002
v 0.101035327 -0.247844279 0.551576018
v -0.128811672 -0.229395002 1.18581569
v -0.128711671 -0.229295 1.18581569
v -0.128711671 -0.229395002 1.18571568
v 0.126912668 -0.229395002 1.18571568
v 0.126912668 -0.229295 1.18581569
v 0.12701267 -0.229395002 1.18581569
v -0.128711671 -0.229395002 0.422974288
v -0.128711671 -0.229295 0.422874272
v -0.128811672 -0.229395002 0.422874272
v 0.12701267 -0.229395002 0.422874272
v 0.126912668 -0.229295 0.422874272
v 0.126912668 -0.229395002 0.422974288
v -0.128811672 -0.242495 1.18570411
v -0.128811672 -0.242315724 1.18581569
v -0.128711671 -0.242294997 1.18571568
v 0.126912668 -0.242294997 1.18571568
v 0.12701267 -0.242315724 1.18581569
v 0.12701267 -0.242495 1.18570411
v -0.102834329 -0.229295 1.05721402
v -0.102834329 -0.229395002 1.05711401
v -0.128711671 -0.229395002 1.05711401
v -0.128711671 -0.229295 1.05721402
v 0.126912668 -0.229295 1.05721402
v 0.126912668 -0.229395002 1.05711401
v 0.101035327 -0.229395002 1.05711401
v 0.101035327 -0.229295 1.05721402
v -0.128711671 -0.229295 0.551476002
v -0.128711671 -0.229395002 0.551576018
v -0.102834329 -0.229395002 0.551576018
v -0.102834329 -0.229295 0.551476002
v 0.101035327 -0.229295 0.551476002
v 0.101035327 -0.229395002 0.551576018
v 0.126912668 -0.229395002 0.551576018
v 0.126912668 -0.229295 0.551476002
v -0.128711671 -0.247944266 1.05721402
v -0.128711671 -0.247844264 1.05711401
v -0.102834329 -0.247844264 1.05711401
v -0.102834329 -0.247944266 1.05721402
v 0.101035327 -0.247944266 1.05721402
v 0.101035327 -0.247844264 1.05711401
v 0.126912668 -0.247844264 1.05711401
v 0.126912668 -0.247944266 1.05721402
v -0.102834329 -0.247944281 0.551476002
v -0.102834329 -0.247844279 0.551576018
v -0.128711671 -0.247844279 0.551576018
v -0.128711671 -0.247944281 0.551476002
v 0.126912668 -0.247944281 0.551476002
v 0.126912668 -0.247844279 0.551576018
v 0.101035327 -0.247844279 0.551576018
v 0.101035327 -0.247944281 0.551476002
v -0.128711671 -0.242294997 1.18571568
v -0.128811672 -0.242315724 1.18581569
v -0.128811672 -0.229395002 1.18581569
v -0.128711671 -0.229395002 1.18571568
v 0.12701267 -0.242315724 1.18581569
v 0.126912668 -0.242294997 1.18571568
v 0.126912668 -0.229395002 1.18571568
v 0.12701267 -0.229395002 1.18581569
v -0.128811672 -0.24231571 0.422874272
v -0.128711671 -0.242294997 0.422974288
v -0.128711671 -0.229395002 0.422974288
v -0.128811672 -0.229395002 0.422874272
v 0.126912668 -0.242294997 0.422974288
v 0.12701267 -0.24231571 0.422874272
v 0.12701267 -0.229395002 0.422874272
v 0.126912668 -0.229395002 0.422974288
v 0.100935325 -0.247818142 1.05721402
v 0.101035327 -0.247844264 1.05711401
v 0.101035327 -0.247944266 1.05721402
v -0.102734327 -0.247818142 0.551476002
v -0.102834329 -0.247844279 0.551576018
v -0.102834329 -0.247944281 0.551476002
v -0.102834329 -0.229395002 1.05711401
v -0.102834329 -0.229295 1.05721402
v -0.102734327 -0.229395002 1.05721402
v 0.100935325 -0.229395002 1.05721402
v 0.101035327 -0.229295 1.05721402
v 0.101035327 -0.229395002 1.05711401
v -0.102734327 -0.229395002 0.551476002
v -0.102834329 -0.229295 0.551476002
v -0.102834329 -0.229395002 0.551576018
v 0.101035327 -0.229395002 0.551576018
v 0.101035327 -0.229295 0.551476002
v 0.100935332 -0.229395002 0.551476002
v -0.102734327 -0.242495 1.18570411
v -0.102834329 -0.242394999 1.18561566
v -0.102834329 -0.242294997 1.18571568
v 0.101035327 -0.242294997 1.18571568
v 0.101035327 -0.242394999 1.18561566
v 0.100935332 -0.242495 1.18570411
v -0.102734327 -0.247818142 1.05721402
v -0.102834329 -0.247844264 1.05711401
v -0.102834329 -0.229395002 1.05711401
v -0.102734327 -0.229395002 1.05721402
v 0.101035327 -0.247844264 1.05711401
v 0.100935325 -0.247818142 1.05721402
v 0.100935325 -0.229395002 1.05721402
v 0.101035327 -0.229395002 1.05711401
v -0.102734327 -0.229395002 0.551476002
v -0.102834329 -0.229395002 0.551576018
v -0.102834329 -0.247844279 0.551576018
v -0.102734327 -0.247818142 0.551476002
v 0.100935332 -0.247818142 0.551476002
v 0.101035327 -0.247844279 0.551576018
v 0.101035327 -0.229395002 0.551576018
v 0.100935332 -0.229395002 0.551476002
v -0.102834329 -0.247844264 1.05711401
v -0.128711671 -0.247844264 1.05711401
v -0.128711671 -0.229395002 1.05711401
v -0.102834329 -0.229395002 1.05711401
v 0.126912668 -0.247844264 1.05711401
v 0.101035327 -0.247844264 1.05711401
v 0.101035327 -0.229395002 1.05711401
v 0.126912668 -0.229395002 1.05711401
v -0.128711671 -0.247844279 0.551576018
v -0.102834329 -0.247844279 0.551576018
v -0.102834329 -0.229395002 0.551576018
v -0.128711671 -0.229395002 0.551576018
v 0.101035327 -0.247844279 0.551576018
v 0.126912668 -0.247844279 0.551576018
v 0.126912668 -0.229395002 0.551576018
v 0.101035327 -0.229395002 0.551576018
v -0.102834329 -0.229295 1.18581569
v -0.102834329 -0.229395002 1.18571568
v -0.128711671 -0.229395002 1.18571568
v -0.128711671 -0.229295 1.18581569
v 0.126912668 -0.229295 1.18581569
v 0.126912668 -0.229395002 1.18571568
v 0.101035327 -0.229395002 1.18571568
v 0.101035327 -0.229295 1.18581569
v -0.128711671 -0.229295 0.422874272
v -0.128711671 -0.229395002 0.422974288
v -0.102834329 -0.229395002 0.422974288
v -0.102834329 -0.229295 0.422874272
v 0.101035327 -0.229295 0.422874272
v 0.101035327 -0.229395002 0.422974288
v 0.126912668 -0.229395002 0.422974288
v 0.126912668 -0.229295 0.422874272
v -0.102834329 -0.242294997 1.18571568
v -0.102834329 -0.242394999 1.18561566
v -0.128711671 -0.242394999 1.18561566
v -0.128711671 -0.242294997 1.18571568
v 0.126912668 -0.242294997 1.18571568
v 0.126912668 -0.242394999 1.18561566
v 0.101035327 -0.242394999 1.18561566
v 0.101035327 -0.242294997 1.18571568
v -0.128711671 -0.242294997 0.422974288
v -0.128711671 -0.242394999 0.423074275
v -0.102834329 -0.242394999 0.423074275
v -0.102834329 -0.242294997 0.422974288
v 0.101035327 -0.242294997 0.422974288
v 0.101035327 -0.242394999 0.423074275
v 0.126912668 -0.242394999 0.423074275
v 0.126912668 -0.242294997 0.422974288
v -0.102734327 -0.24231571 0.422874272
v -0.102834329 -0.242294997 0.422974288
v -0.102834329 -0.242394999 0.423074275
v 0.101035327 -0.242394999 0.423074275
v 0.101035327 -0.242294997 0.422974288
v 0.100935325 -0.24231571 0.422874272
v -0.102834329 -0.229395002 1.18571568
v -0.102834329 -0.229295 1.18581569
v -0.102734327 -0.229395002 1.18581569
v 0.100935332 -0.229395002 1.18581569
v 0.101035327 -0.229295 1.18581569
v 0.101035327 -0.229395002 1.18571568
v -0.102734327 -0.229395002 0.422874272
v -0.102834329 -0.229295 0.422874272
v -0.102834329 -0.229395002 0.422974288
v 0.101035327 -0.229395002 0.422974288
v 0.101035327 -0.229295 0.422874272
v 0.100935325 -0.229395002 0.422874272
v -0.102834329 -0.242394999 0.423074275
v -0.102734327 -0.242495 0.422985852
v -0.102734327 -0.24231571 0.422874272
v 0.100935325 -0.24231571 0.422874272
v 0.100935325 -0.242495 0.422985852
v 0.101035327 -0.242394999 0.423074275
v -0.102834329 -0.242294997 1.18571568
v -0.102734327 -0.242315724 1.18581569
v -0.102734327 -0.242495 1.18570411
v 0.100935332 -0.242495 1.18570411
v 0.100935332 -0.242315724 1.18581569
v 0.101035327 -0.242294997 1.18571568
v -0.102734327 -0.242315724 1.18581569
v -0.102834329 -0.242294997 1.18571568
v -0.102834329 -0.229395002 1.18571568
v -0.102734327 -0.229395002 1.18581569
v 0.101035327 -0.242294997 1.18571568
v 0.100935332 -0.242315724 1.18581569
v 0.100935332 -0.229395002 1.18581569
v 0.101035327 -0.229395002 1.18571568
v -0.102834329 -0.242294997 0.422974288
v -0.102734327 -0.24231571 0.422874272
v -0.102734327 -0.229395002 0.422874272
v -0.102834329 -0.229395002 0.422974288
v 0.100935325 -0.24231571 0.422874272
v 0.101035327 -0.242294997 0.422974288
v 0.101035327 -0.229395002 0.422974288
v 0.100935325 -0.229395002 0.422874272
v -0.102834329 -0.242294997 1.18571568
v -0.128711671 -0.242294997 1.18571568
v -0.128711671 -0.229395002 1.18571568
v -0.102834329 -0.229395002 1.18571568
v 0.126912668 -0.242294997 1.18571568
v 0.101035327 -0.242294997 1.18571568
v 0.101035327 -0.229395002 1.18571568
v 0.126912668 -0.229395002 1.18571568
v -0.128711671 -0.242294997 0.422974288
v -0.102834329 -0.242294997 0.422974288
v -0.102834329 -0.229395002 0.422974288
v -0.128711671 -0.229395002 0.422974288
v 0.101035327 -0.242294997 0.422974288
v 0.126912668 -0.242294997 0.422974288
v 0.126912668 -0.229395002 0.422974288
v 0.101035327 -0.229395002 0.422974288
f 1 2 3
f 3 4 1
f 5 6 7
f 7 8 5
f 9 10 11
f 11 12 9
f 13 14 15
f 15 16 13
f 17 18 19
f 19 20 17
f 21 22 23
f 23 24 21
f 25 26 27
f 27 28 25
f 29 30 31
f 31 32 29
f 33 34 35
f 36 37 38
f 39 40 41
f 42 43 44
f 45 46 47
f 48 49 50
f 51 52 53
f 53 54 51
f 55 56 57
f 57 58 55
f 59 60 61
f 61 62 59
f 63 64 65
f 65 66 63
f 67 68 69
f 69 70 67
f 71 72 73
f 73 74 71
f 75 76 77
f 77 78 75
f 79 80 81
f 81 82 79
f 83 84 85
f 85 86 83
f 87 88 89
f 89 90 87
f 91 92 93
f 93 94 91
f 95 96 97
f 97 98 95
f 99 100 101
f 101 102 99
f 103 104 105
f 105 106 103
f 107 108 109
f 109 110 107
f 111 112 113
f 113 114 111
f 115 116 117
f 118 119 120
f 121 122 123
f 124 125 126
f 127 128 129
f 130 131 132
f 133 134 135
f 136 137 138
f 139 140 141
f 142 143 144
f 145 146 147
f 148 149 150
f 151 152 153
f 153 154 151
f 155 156 157
f 157 158 155
f 159 160 161
f 161 162 159
f 163 164 165
f 165 166 163
f 167 168 169
f 169 170 167
f 171 172 173
f 173 174 171
f 175 176 177
f 177 178 175
f 179 180 181
f 181 182 179
f 183 184 185
f 185 186 183
f 187 188 189
f 189 190 187
f 191 192 193
f 193 194 191
f 195 196 197
f 197 198 195
f 199 200 201
f 202 203 204
f 205 206 207
f 208 209 210
f 211 212 213
f 214 215 216
f 217 218 219
f 220 221 222
f 223 224 225
f 225 226 223
f 227 224 223
f 223 228 227
f 227 228 229
f 229 230 227
f 231 230 229
f 229 232 231
f 231 232 233
f 233 234 231
f 235 236 237
f 237 238 235
f 239 235 238
f 238 240 239
f 239 240 241
f 241 242 239
f 243 242 241
f 241 244 243
f 243 244 245
f 245 246 243
f 247 248 249
f 249 250 247
f 251 248 247
f 247 252 251
f 251 252 253
f 253 254 251
f 255 254 253
f 253 256 255
f 255 256 257
f 257 258 255
f 259 260 261
f 261 262 259
f 263 259 262
f 262 264 263
f 263 264 265
f 265 266 263
f 267 266 265
f 265 268 267
f 267 268 269
f 269 270 267
f 271 272 273
f 273 274 271
f 275 276 277
f 277 278 275
f 279 280 281
f 281 282 279
f 283 284 285
f 285 286 283
f 287 288 289
f 290 291 292
f 293 294 295
f 296 297 298
f 299 300 301
f 302 303 304
f 305 306 307
f 308 309 310
f 311 312 313
f 314 315 316
f 317 318 319
f 320 321 322
f 323 324 325
f 325 326 323
f 327 328 329
f 329 330 327
f 331 332 333
f 333 334 331
f 335 336 337
f 337 338 335
f 339 340 341
f 341 342 339
f 343 344 345
f 345 346 343
f 347 348 349
f 349 350 347
f 351 352 353
f 353 354 351
f 355 356 357
f 357 358 355
f 359 360 361
f 361 362 359
f 363 364 365
f 365 366 363
f 367 368 369
f 369 370 367
f 371 372 373
f 373 374 371
f 375 376 377
f 377 378 375
f 379 380 381
f 381 382 379
f 383 384 385
f 385 386 383
f 387 388 389
f 390 391 392
f 393 394 395
f 396 397 398
f 399 400 401
f 402 403 404
f 405 406 407
f 408 409 410
f 411 412 413
f 414 415 416
f 417 418 419
f 419 420 417
f 421 422 423
f 423 424 421
f 425 426 427
f 427 428 425
f 429 430 431
f 431 432 429
f 433 434 435
f 435 436 433
f 437 438 439
f 439 440 437
f 441 442 443
f 443 444 441
f 445 446 447
f 447 448 445
f 449 450 451
f 451 452 449
f 453 454 455
f 455 456 453
f 457 458 459
f 459 460 457
f 461 462 463
f 463 464 461
f 465 466 467
f 467 468 465
f 469 470 471
f 471 472 469
f 473 474 475
f 475 476 473
f 477 478 479
f 479 480 477
f 481 482 483
f 484 485 486
f 487 488 489
f 490 491 492
f 493 494 495
f 496 497 498
f 499 500 501
f 502 503 504
f 505 506 507
f 508 509 510
f 511 512 513
f 514 515 516
f 516 517 514
f 518 519 520
f 520 521 518
f 522 523 524
f 524 525 522
f 526 527 528
f 528 529 526
f 530 531 532
f 532 533 530
f 534 535 536
f 536 537 534
f 538 539 540
f 540 541 538
f 542 543 544
f 544 545 542
f 546 547 548
f 548 549 546
f 550 551 552
f 553 554 555
f 555 556 553
f 557 558 559
f 559 560 557
f 561 562 563
f 563 564 561
f 565 566 567
f 568 569 570
f 571 572 573
f 574 575 576
f 577 578 579
f 579 580 577
f 581 582 583
f 583 584 581
f 585 586 587
f 587 588 585
f 589 590 591
f 591 592 589
f 593 594 595
f 596 597 598
f 599 600 601
f 601 602 599
f 603 604 605
f 605 606 603
f 607 608 609
f 609 610 607
f 611 612 613
f 613 614 611
f 615 616 617
f 618 619 620
f 621 622 623
f 623 624 621
f 625 621 624
f 624 626 625
f 625 626 627
f 627 628 625
f 629 628 627
f 627 630 629
f 629 630 631
f 631 632 629
f 633 634 635
f 635 636 633
f 637 634 633
f 633 638 637
f 637 638 639
f 639 640 637
f 641 640 639
f 639 642 641
f 641 642 643
f 643 644 641
f 645 646 647
f 647 648 645
f 649 645 648
f 648 650 649
f 649 650 651
f 651 652 649
f 653 652 651
f 651 654 653
f 653 654 655
f 655 656 653
f 657 658 659
f 659 660 657
f 661 658 657
f 657 662 661
f 661 662 663
f 663 664 661
f 665 664 663
f 663 666 665
f 665 666 667
f 667 668 665
f 669 670 671
f 672 673 674
f 675 676 677
f 678 679 680
f 681 682 683
f 684 685 686
f 687 688 689
f 690 691 692
f 693 694 695
f 696 697 698
f 699 700 701
f 701 702 699
f 703 704 705
f 705 706 703
f 707 708 709
f 709 710 707
f 711 712 713
f 713 714 711
f 715 716 717
f 717 718 715
f 719 720 721
f 721 722 719
f 723 724 725
f 725 726 723
f 727 728 729
f 729 730 727
f 731 732 733
f 733 734 731
f 735 736 737
f 737 738 735
f 739 740 741
f 741 742 739
f 743 744 745
f 745 746 743
f 747 748 749
f 750 751 752
f 753 754 755
f 756 757 758
f 759 760 761
f 762 763 764
f 765 766 767
f 768 769 770
f 771 772 773
f 773 774 771
f 775 776 777
f 777 778 775
f 779 780 781
f 781 782 779
f 783 784 785
f 785 786 783
f 787 788 789
f 789 790 787
f 791 792 793
f 793 794 791
f 795 796 797
f 797 798 795
f 799 800 801
f 801 802 799
f 803 804 805
f 805 806 803
f 807 808 809
f 809 810 807
f 811 812 813
f 813 814 811
f 815 816 817
f 817 818 815
f 819 820 821
f 821 822 819
f 823 824 825
f 825 826 823
f 827 828 829
f 829 830 827
f 831 832 833
f 833 834 831
f 835 836 837
f 838 839 840
f 841 842 843
f 844 845 846
f 847 848 849
f 850 851 852
f 853 854 855
f 856 857 858
f 859 860 861
f 862 863 864
f 865 866 867
f 867 868 865
f 869 870 871
f 871 872 869
f 873 874 875
f 875 876 873
f 877 878 879
f 879 880 877
f 881 882 883
f 883 884 881
f 885 886 887
f 887 888 885
f 889 890 891
f 891 892 889
f 893 894 895
f 895 896 893
