v 0.191207036 -0.140418366 0.972089231
v 0.192953363 -0.141805336 0.971821725
v 0.195247218 -0.137487188 0.97325784
v 0.190287322 -0.146737635 0.969661891
v 0.187582344 -0.151654482 0.966974378
v 0.191375509 -0.15320392 0.96670121
v 0.185171708 -0.155926257 0.963955224
v 0.184079915 -0.149543107 0.967346668
v 0.187582344 -0.145107001 0.969949424
v 0.19469519 -0.135817423 0.973644018
v 0.199462712 -0.129449323 0.975317478
v 0.185171694 -0.143077388 0.970307291
v 0.192896917 -0.135805532 0.973554373
v 0.189324155 -0.13920863 0.972279549
v 0.188099757 -0.137358278 0.972628772
v 0.192900762 -0.13405028 0.973955631
v 0.180958599 -0.146915153 0.967810035
v 0.180958614 -0.153386474 0.964403033
v 0.177203938 -0.150225282 0.964960456
v 0.178290114 -0.143841267 0.968352079
v 0.183110788 -0.140703365 0.970725894
v 0.181454986 -0.138039485 0.971195579
v 0.178290114 -0.15652597 0.961056888
v 0.17399399 -0.146527663 0.965612411
v 0.183110803 -0.159432024 0.960544467
v 0.188331634 -0.161564648 0.960168421
v 0.181455001 -0.162050828 0.956682205
v 0.176146179 -0.158850506 0.957246482
v 0.174801752 -0.160190031 0.954187036
v 0.17399399 -0.152908906 0.961694658
v 0.171415031 -0.154867187 0.957948864
v 0.170321122 -0.148678049 0.96244067
v 0.169797808 -0.155977041 0.954929948
v 0.169473082 -0.156115413 0.953844726
v 0.174531817 -0.160374537 0.953093767
v 0.174799114 -0.159981504 0.952983499
v 0.169794619 -0.155768052 0.953726411
v 0.165516153 -0.150839597 0.954595447
v 0.165519804 -0.151049107 0.955798864
v 0.165148258 -0.151133537 0.954723179
v 0.161673561 -0.145543396 0.955708861
v 0.162078723 -0.145309389 0.955570579
v 0.167370245 -0.150207907 0.958770394
v 0.159556136 -0.13932012 0.956626654
v 0.162082732 -0.14551948 0.956773877
v 0.159123644 -0.139489219 0.956776381
v 0.164120555 -0.144979745 0.95969224
v 0.159560412 -0.139530852 0.957829833
v 0.186104745 -0.124953695 0.974816024
v 0.191748679 -0.126886815 0.975218713
v 0.191189319 -0.125188023 0.975426495
v 0.18668738 -0.122813635 0.975170434
v 0.181454971 -0.119967468 0.974382162
v 0.192900762 -0.124660075 0.975611389
v 0.188099742 -0.121097766 0.975495934
v 0.176146165 -0.116992258 0.973086298
v 0.174572811 -0.120727792 0.972427607
v 0.192896903 -0.122873433 0.975834668
v 0.194695175 -0.122892924 0.975923002
v 0.195247203 -0.121191785 0.976131141
v 0.189324155 -0.119239569 0.975800633
v 0.191207036 -0.118037686 0.976035535
v 0.192953363 -0.116642855 0.976258516
v 0.190287307 -0.111269318 0.975915909
v 0.183110774 -0.117303587 0.974851906
v 0.185171694 -0.114929564 0.97527051
v 0.187582329 -0.112899959 0.975628376
v 0.178290099 -0.113543041 0.973694444
v 0.184079915 -0.107841194 0.974699855
v 0.180958584 -0.110469148 0.974236488
v 0.171415001 -0.114230745 0.971307278
v 0.177203923 -0.106384024 0.972690821
v 0.187582329 -0.105729826 0.975072145
v 0.191375494 -0.104180381 0.975345373
v 0.185171694 -0.100683048 0.973696053
v 0.189734519 -0.0988192111 0.974024713
v 0.180958599 -0.10322284 0.973248243
v 0.173993975 -0.11008165 0.972038865
v 0.178290099 -0.0991282091 0.971177638
v 0.170321107 -0.106976137 0.969793797
v 0.173993975 -0.102745272 0.970539868
v 0.183110774 -0.0962221622 0.971690059
v 0.188331604 -0.0940895379 0.972066104
v 0.194538355 -0.0976858735 0.974224567
v 0.181454971 -0.092440322 0.968956351
v 0.19382821 -0.0927927569 0.972294748
v 0.199462697 -0.0923533216 0.972372234
v 0.19325766 -0.0886636525 0.969622314
v 0.199462697 -0.0881797224 0.969707608
v 0.199462697 -0.0854443982 0.967366695
v 0.192899883 -0.0859562308 0.967276454
v 0.187204465 -0.0900917426 0.969370484
v 0.186497658 -0.0874666646 0.96701014
v 0.180416659 -0.0899506584 0.966572106
v 0.180208176 -0.0893663019 0.965614378
v 0.174801737 -0.0933355093 0.965975285
v 0.174531788 -0.0927882046 0.965011001
v 0.176146165 -0.095640637 0.968392074
v 0.171415001 -0.0996239632 0.967689693
v 0.169473067 -0.0970473215 0.964260042
v 0.174799085 -0.0931198075 0.964772999
v 0.169794604 -0.0973332673 0.964030027
v 0.165516153 -0.102261722 0.963160992
v 0.169797793 -0.0975485146 0.965232432
v 0.165148243 -0.102029197 0.963381588
v 0.165519789 -0.10247644 0.964363515
v 0.161673546 -0.107619345 0.962395906
v 0.162078708 -0.107791938 0.962185919
v 0.159556121 -0.113781214 0.961129844
v 0.159123629 -0.113673531 0.961328387
v 0.159560412 -0.113994695 0.962332547
v 0.162082717 -0.108006068 0.963388503
v 0.16737023 -0.104283243 0.966868162
v 0.16412054 -0.109511413 0.965946257
v 0.161735728 -0.115173563 0.964947879
v 0.160285607 -0.121134803 0.963896751
v 0.16737023 -0.111723572 0.968956709
v 0.165204704 -0.116865098 0.968050122
v 0.163887918 -0.122278199 0.967095673
v 0.163441718 -0.127827093 0.966117263
v 0.168371588 -0.123455115 0.969680727
v 0.169522405 -0.118724249 0.970514953
v 0.203802988 -0.142383039 0.971742809
v 0.205972075 -0.141805321 0.971821725
v 0.203678221 -0.137487173 0.97325784
v 0.208638132 -0.14673762 0.969661891
v 0.201969162 -0.136951998 0.973443985
v 0.21134311 -0.151654452 0.966974378
v 0.214845538 -0.149543077 0.967346668
v 0.217966855 -0.153386429 0.964403033
v 0.221721515 -0.150225237 0.964960456
v 0.21375376 -0.155926228 0.963955224
v 0.207549959 -0.153203905 0.96670121
v 0.205708608 -0.147934288 0.969450891
v 0.202624351 -0.148661941 0.969322562
v 0.220635355 -0.15652594 0.961056888
v 0.209190935 -0.157790065 0.963626564
v 0.224931479 -0.152908862 0.961694658
v 0.228604332 -0.14867799 0.96244067
v 0.227510452 -0.154867128 0.957948864
v 0.231555223 -0.150207847 0.958770394
v 0.21581468 -0.159431994 0.960544467
v 0.210593849 -0.161564618 0.960168421
v 0.217470482 -0.162050784 0.956682205
v 0.222779304 -0.158850461 0.957246482
v 0.233405665 -0.151049033 0.955798864
v 0.234804899 -0.144979671 0.959692299
v 0.224123731 -0.160189986 0.954187036
v 0.229127675 -0.155976981 0.954929948
v 0.236842722 -0.145519421 0.956773877
v 0.239365026 -0.139530778 0.957829833
v 0.237251893 -0.145543322 0.955708861
v 0.239801809 -0.139489144 0.956776381
v 0.239369303 -0.139320046 0.956626654
v 0.23684673 -0.145309314 0.955570579
v 0.2334093 -0.150839537 0.954595447
v 0.23377721 -0.151133478 0.954723179
v 0.229452386 -0.156115353 0.953844726
v 0.229130849 -0.155767992 0.953726411
v 0.224126369 -0.159981459 0.952983499
v 0.224393666 -0.160374492 0.953093767
v 0.218717292 -0.163796395 0.952490389
v 0.218510851 -0.16336669 0.952386558
v 0.212429181 -0.165850952 0.951948524
v 0.21850881 -0.163574845 0.953590214
v 0.212569714 -0.166307583 0.952047586
v 0.212427795 -0.166058853 0.953152239
v 0.206097409 -0.167834565 0.951778352
v 0.206026286 -0.167361557 0.95168215
v 0.211720988 -0.164399371 0.956268072
v 0.199462757 -0.167873442 0.951591909
v 0.199462757 -0.168351993 0.951687098
v 0.206025571 -0.167569295 0.952885926
v 0.205667794 -0.165827468 0.956016243
v 0.199462757 -0.16808112 0.952795625
v 0.192828089 -0.16783458 0.951778352
v 0.192899227 -0.167361572 0.95168215
v 0.186496302 -0.165850967 0.951948524
v 0.205097243 -0.162861407 0.959939778
v 0.186355785 -0.166307613 0.952047586
v 0.204387084 -0.158923417 0.963426709
v 0.180208206 -0.163796425 0.952490389
v 0.180414647 -0.16336672 0.952386558
v 0.186497703 -0.166058868 0.953152239
v 0.192899927 -0.167569309 0.952885866
v 0.193257704 -0.165827483 0.956016243
v 0.180416688 -0.163574874 0.953590214
v 0.199462742 -0.166311398 0.955930948
v 0.199462742 -0.163300842 0.959862292
v 0.18720451 -0.1643994 0.956268072
v 0.193828255 -0.162861422 0.959939778
v 0.194538385 -0.158923432 0.963426709
v 0.199462742 -0.159307465 0.963358998
v 0.199462742 -0.154465333 0.966478765
v 0.203556433 -0.154146075 0.966535032
v 0.189734548 -0.157790095 0.963626564
v 0.195369035 -0.154146075 0.966535032
v 0.199462727 -0.148908511 0.96927911
v 0.196301103 -0.148661941 0.969322562
v 0.199462727 -0.143060029 0.971623421
v 0.201705694 -0.143170506 0.971580982
v 0.200915277 -0.138371274 0.973101974
v 0.197219759 -0.143170506 0.971580982
v 0.199462712 -0.13734296 0.973375022
v 0.198010162 -0.138371274 0.973101974
v 0.195122451 -0.142383054 0.971742749
v 0.193216845 -0.147934288 0.969450891
v 0.196956277 -0.136952013 0.973443985
v 0.157573119 -0.133115247 0.957900286
v 0.158022225 -0.133014485 0.957738459
v 0.157502457 -0.12655066 0.958878219
v 0.167370245 -0.143930614 0.963277757
v 0.157047689 -0.126581371 0.959052384
v 0.171415016 -0.142378569 0.966344059
v 0.157573104 -0.120047502 0.960204482
v 0.158022225 -0.120086849 0.960017979
v 0.157506943 -0.126762778 0.96008116
v 0.15802668 -0.133225903 0.958941579
v 0.160285607 -0.133356348 0.961741805
v 0.15802668 -0.120299652 0.961220801
v 0.161735743 -0.139317587 0.960690677
v 0.165204719 -0.138789088 0.964184344
v 0.159794226 -0.127245575 0.962819278
v 0.163887918 -0.133375987 0.965138853
v 0.168371588 -0.133154199 0.96797055
v 0.16952242 -0.137885064 0.967136383
v 0.174572811 -0.136656508 0.969618917
v 0.176146165 -0.14039205 0.968960285
v 0.167981625 -0.12830466 0.968825638
v 0.173616111 -0.132723659 0.970312417
v 0.173291922 -0.12869215 0.971023262
v 0.180239856 -0.135154471 0.971704304
v 0.179500982 -0.132117078 0.972239852
v 0.186104745 -0.133502349 0.973308682
v 0.186687395 -0.135634556 0.972909749
v 0.191189319 -0.13349095 0.973962486
v 0.185301155 -0.131432995 0.973650634
v 0.191748679 -0.13182354 0.974348247
v 0.190291584 -0.130769983 0.974442303
v 0.185417309 -0.129228026 0.974062383
v 0.179250613 -0.12900348 0.97278887
v 0.191351697 -0.129355177 0.97478348
v 0.179500982 -0.125889882 0.973337889
v 0.190291584 -0.12790899 0.974946737
v 0.185301155 -0.127015203 0.974429607
v 0.173616111 -0.124660641 0.971734107
v 0.180239856 -0.122852482 0.973873496
v 0.20717673 -0.1268868 0.975218773
v 0.20773609 -0.125188008 0.975426555
v 0.212820664 -0.124953672 0.974816024
v 0.217470422 -0.119967438 0.974382162
v 0.222779244 -0.116992213 0.973086298
v 0.220635295 -0.113543004 0.973694444
v 0.208633825 -0.127908975 0.974946737
v 0.218685552 -0.122852445 0.973873496
v 0.213624254 -0.127015173 0.974429607
v 0.224352583 -0.120727748 0.972427607
v 0.219424427 -0.125889838 0.973337889
v 0.213508099 -0.129227996 0.974062383
v 0.207573712 -0.129355162 0.97478348
v 0.219674811 -0.129003435 0.97278887
v 0.20863384 -0.130769968 0.974442303
v 0.213624269 -0.131432965 0.973650634
v 0.219424441 -0.132117033 0.972239912
v 0.225633487 -0.128692105 0.971023262
v 0.225309297 -0.124660596 0.971734107
v 0.212820679 -0.133502319 0.973308682
v 0.207176745 -0.131823525 0.974348247
v 0.230553821 -0.123455055 0.969680786
v 0.225309312 -0.132723615 0.970312417
v 0.229402989 -0.118724197 0.970514953
v 0.227510378 -0.114230692 0.971307278
v 0.224931404 -0.110081598 0.972038865
v 0.221721455 -0.106383979 0.972690821
v 0.23372069 -0.116865031 0.968050122
v 0.228604272 -0.106976077 0.969793856
v 0.231555164 -0.111723512 0.968956709
v 0.235037491 -0.122278132 0.967095673
v 0.234804839 -0.109511346 0.965946317
v 0.224931389 -0.102745228 0.970539868
v 0.220635265 -0.0991281718 0.971177638
v 0.21796678 -0.103222802 0.973248243
v 0.227510363 -0.0996239111 0.967689693
v 0.21375367 -0.100683019 0.973696053
v 0.231555149 -0.104283184 0.966868162
v 0.215814576 -0.096222125 0.971690059
v 0.210593745 -0.0940895155 0.972066104
v 0.209190845 -0.0988191888 0.974024713
v 0.217470363 -0.0924402848 0.968956351
v 0.204387024 -0.0976858586 0.974224567
v 0.205097169 -0.092792742 0.972294748
v 0.205667704 -0.0886636451 0.969622314
v 0.211720869 -0.0900917202 0.969370484
v 0.222779199 -0.0956405923 0.968392074
v 0.212427676 -0.0874666348 0.96701014
v 0.224123612 -0.0933354571 0.965975285
v 0.218508691 -0.0899506211 0.966572165
v 0.229127571 -0.097548455 0.965232432
v 0.206025496 -0.0859562159 0.967276454
v 0.23340559 -0.102476373 0.964363515
v 0.229452297 -0.0970472693 0.964260042
v 0.20609732 -0.0853281319 0.966326416
v 0.218717173 -0.0893662646 0.965614378
v 0.212569594 -0.0868550912 0.966057181
v 0.212429076 -0.0872503072 0.965807915
v 0.206026196 -0.0857397243 0.966074288
v 0.218510732 -0.0897345543 0.96536988
v 0.199462697 -0.0852278545 0.966164529
v 0.224126264 -0.0931197628 0.964772999
v 0.224393561 -0.0927881524 0.965011001
v 0.22913076 -0.0973332077 0.964030027
v 0.233409226 -0.102261662 0.963161051
v 0.199462697 -0.0848107189 0.96641767
v 0.233777136 -0.10202913 0.963381588
v 0.192828044 -0.0853281543 0.966326416
v 0.192899182 -0.0857397392 0.966074288
v 0.237251833 -0.107619278 0.962395906
v 0.236846671 -0.107791871 0.962185919
v 0.186496273 -0.087250337 0.965807915
v 0.239369273 -0.113781139 0.961129844
v 0.239801764 -0.113673456 0.961328387
v 0.186355755 -0.086855121 0.966057181
v 0.236842662 -0.108005993 0.963388503
v 0.180414617 -0.089734599 0.96536988
v 0.239364982 -0.113994621 0.962332547
v 0.237189665 -0.115173496 0.964947879
v 0.238639787 -0.121134728 0.963896811
v 0.241352305 -0.12004742 0.960204482
v 0.240903184 -0.120086774 0.960017979
v 0.241422966 -0.126550585 0.958878219
v 0.240898728 -0.120299578 0.961220801
v 0.24187772 -0.126581296 0.959052384
v 0.241418466 -0.126762703 0.96008116
v 0.24135232 -0.133115157 0.957900286
v 0.240903199 -0.133014396 0.957738519
v 0.239131197 -0.127245501 0.962819278
v 0.235483706 -0.127827018 0.966117263
v 0.240898758 -0.133225814 0.958941579
v 0.238639817 -0.133356273 0.961741805
v 0.230943799 -0.128304601 0.968825638
v 0.235037506 -0.133375928 0.965138853
v 0.230553836 -0.133154139 0.96797055
v 0.233720735 -0.138789028 0.964184344
v 0.237189695 -0.139317513 0.960690677
v 0.229403019 -0.137885004 0.967136383
v 0.224352613 -0.136656463 0.969618917
v 0.227510437 -0.142378509 0.966344059
v 0.218685567 -0.135154441 0.971704304
v 0.231555209 -0.143930554 0.963277757
v 0.217470452 -0.138039455 0.971195579
v 0.222779274 -0.140392005 0.968960285
v 0.22063534 -0.143841222 0.968352079
v 0.224931464 -0.146527618 0.965612471
v 0.212238044 -0.135634542 0.972909808
v 0.215814665 -0.140703335 0.970725894
v 0.207736105 -0.133490935 0.973962486
v 0.210825682 -0.137358263 0.972628772
v 0.206024662 -0.134050265 0.973955631
v 0.213753745 -0.143077359 0.970307291
v 0.206028521 -0.135805532 0.973554373
v 0.209601283 -0.139208615 0.972279549
v 0.207718402 -0.140418336 0.972089231
v 0.217966855 -0.146915123 0.967810094
v 0.21134311 -0.145106971 0.969949424
v 0.204230249 -0.135817423 0.973644018
v 0.195369005 -0.103238218 0.975511491
v 0.199462697 -0.102918945 0.975567758
v 0.202624321 -0.109345004 0.976255238
v 0.203556374 -0.10323821 0.975511491
v 0.207549885 -0.104180366 0.975345373
v 0.205708563 -0.110072643 0.976126909
v 0.203802943 -0.116072983 0.976381958
v 0.199462697 -0.0973018184 0.974292278
v 0.208638072 -0.111269295 0.975915909
v 0.205972031 -0.116642848 0.976258516
v 0.203678191 -0.121191777 0.976131141
v 0.201969132 -0.121758334 0.976123035
v 0.207718357 -0.118037671 0.976035535
v 0.204230234 -0.122892916 0.975923002
v 0.211343035 -0.105729803 0.975072145
v 0.214845464 -0.107841164 0.974699855
v 0.21134305 -0.112899937 0.975628376
v 0.206028491 -0.122873418 0.975834668
v 0.209601238 -0.119239546 0.975800633
v 0.2137537 -0.114929542 0.97527051
v 0.210825652 -0.121097744 0.975495934
v 0.217966795 -0.11046911 0.974236488
v 0.206024647 -0.12466006 0.975611389
v 0.21581462 -0.117303558 0.974851906
v 0.212238014 -0.122813612 0.975170434
v 0.199462712 -0.121367387 0.976191938
v 0.198010147 -0.120307691 0.976287067
v 0.199462712 -0.115396 0.976501346
v 0.196956277 -0.121758342 0.976123035
v 0.200915262 -0.120307684 0.976287067
v 0.197219744 -0.115277685 0.976499259
v 0.195122451 -0.11607299 0.976381958
v 0.196301088 -0.109345004 0.976255238
v 0.201705664 -0.115277685 0.976499259
v 0.199462697 -0.109098434 0.97629869
v 0.19321683 -0.110072657 0.976126909
f 1 2 3
f 4 2 1
f 4 5 6
f 6 5 7
f 8 5 4
f 7 5 8
f 1 9 4
f 4 9 8
f 3 10 1
f 11 10 3
f 12 9 1
f 8 9 12
f 1 10 13
f 13 10 11
f 13 14 1
f 1 14 12
f 15 14 13
f 12 14 15
f 11 16 13
f 13 16 15
f 12 17 8
f 8 18 7
f 8 17 19
f 19 18 8
f 20 17 12
f 19 17 20
f 15 21 12
f 12 21 20
f 22 21 15
f 20 21 22
f 7 18 23
f 23 18 19
f 20 24 19
f 23 25 7
f 7 25 26
f 26 25 27
f 27 25 23
f 23 28 27
f 27 28 29
f 19 30 23
f 31 28 23
f 23 30 31
f 29 28 31
f 32 30 19
f 19 24 32
f 31 30 32
f 31 33 29
f 29 33 34
f 34 35 29
f 36 35 34
f 34 37 36
f 38 37 34
f 39 33 31
f 34 33 39
f 34 40 38
f 39 40 34
f 38 40 41
f 41 40 39
f 41 42 38
f 31 43 39
f 32 43 31
f 44 42 41
f 39 45 41
f 41 46 44
f 39 43 47
f 47 45 39
f 47 43 32
f 41 45 48
f 48 46 41
f 48 45 47
f 49 50 51
f 51 50 11
f 51 52 49
f 49 52 53
f 11 54 51
f 55 52 51
f 51 54 55
f 53 52 55
f 53 56 57
f 58 54 11
f 55 54 58
f 11 59 58
f 60 59 11
f 58 61 55
f 62 59 60
f 58 59 62
f 62 61 58
f 60 63 62
f 62 63 64
f 55 65 53
f 55 61 66
f 66 61 62
f 66 65 55
f 64 67 62
f 62 67 66
f 53 65 68
f 68 65 66
f 68 56 53
f 69 67 64
f 66 67 69
f 66 70 68
f 69 70 66
f 71 56 68
f 57 56 71
f 68 70 72
f 72 70 69
f 64 73 69
f 74 73 64
f 75 73 74
f 69 73 75
f 74 76 75
f 69 77 72
f 75 77 69
f 72 78 68
f 68 78 71
f 72 77 79
f 79 77 75
f 80 78 72
f 71 78 80
f 79 81 72
f 72 81 80
f 75 82 79
f 75 76 83
f 83 82 75
f 83 76 84
f 79 82 85
f 85 82 83
f 84 86 83
f 87 86 84
f 88 86 87
f 83 86 88
f 87 89 88
f 88 89 90
f 90 91 88
f 88 92 83
f 83 92 85
f 88 91 93
f 93 92 88
f 85 92 93
f 93 94 85
f 95 94 93
f 96 94 95
f 85 94 96
f 95 97 96
f 96 98 85
f 85 98 79
f 79 98 99
f 99 98 96
f 99 81 79
f 96 97 100
f 100 97 101
f 101 102 100
f 100 102 103
f 100 104 96
f 96 104 99
f 103 105 100
f 106 104 100
f 100 105 106
f 99 104 106
f 107 105 103
f 106 105 107
f 103 108 107
f 107 108 109
f 109 110 107
f 107 110 111
f 107 112 106
f 111 112 107
f 106 113 99
f 106 112 114
f 114 112 111
f 114 113 106
f 99 113 80
f 80 113 114
f 80 81 99
f 111 115 114
f 116 115 111
f 114 117 80
f 80 117 71
f 114 115 118
f 118 117 114
f 118 115 116
f 71 117 118
f 116 119 118
f 120 119 116
f 121 119 120
f 118 119 121
f 121 122 118
f 118 122 71
f 57 122 121
f 71 122 57
f 123 124 125
f 126 124 123
f 11 127 125
f 125 127 123
f 126 128 129
f 129 130 131
f 129 128 132
f 132 130 129
f 133 128 126
f 132 128 133
f 123 134 126
f 126 134 133
f 135 134 123
f 133 134 135
f 131 130 136
f 136 130 132
f 133 137 132
f 136 138 131
f 131 138 139
f 139 138 140
f 140 138 136
f 140 141 139
f 132 142 136
f 132 137 143
f 143 142 132
f 136 142 144
f 144 142 143
f 136 145 140
f 144 145 136
f 146 141 140
f 147 141 146
f 140 145 148
f 148 145 144
f 140 149 146
f 148 149 140
f 146 150 147
f 147 150 151
f 151 150 152
f 152 150 146
f 152 153 151
f 154 153 152
f 152 155 154
f 156 155 152
f 146 157 152
f 152 157 156
f 158 157 146
f 156 157 158
f 146 149 158
f 158 159 156
f 158 149 148
f 160 159 158
f 148 161 158
f 158 161 160
f 160 161 162
f 162 161 148
f 162 163 160
f 164 163 162
f 148 165 162
f 144 165 148
f 162 166 164
f 162 165 167
f 167 165 144
f 167 166 162
f 164 166 168
f 168 166 167
f 168 169 164
f 144 170 167
f 171 169 168
f 143 170 144
f 168 172 171
f 167 173 168
f 167 170 174
f 174 173 167
f 174 170 143
f 168 173 175
f 175 172 168
f 175 173 174
f 171 172 176
f 176 172 175
f 176 177 171
f 178 177 176
f 143 179 174
f 176 180 178
f 181 179 143
f 143 137 181
f 181 137 133
f 178 180 182
f 182 183 178
f 184 180 176
f 182 180 184
f 36 183 182
f 176 185 184
f 175 185 176
f 182 35 36
f 186 185 175
f 184 185 186
f 184 187 182
f 175 188 186
f 174 188 175
f 189 188 174
f 186 188 189
f 174 179 189
f 186 190 184
f 182 187 29
f 29 35 182
f 27 187 184
f 184 190 27
f 29 187 27
f 26 190 186
f 27 190 26
f 186 191 26
f 189 191 186
f 189 179 181
f 192 191 189
f 26 191 192
f 181 193 189
f 189 193 192
f 194 193 181
f 192 193 194
f 181 195 194
f 133 195 181
f 135 195 133
f 194 195 135
f 192 196 26
f 194 197 192
f 6 196 192
f 192 197 6
f 135 198 194
f 199 197 194
f 194 198 199
f 6 197 199
f 26 196 7
f 7 196 6
f 200 198 135
f 199 198 200
f 135 201 200
f 123 201 135
f 202 201 123
f 200 201 202
f 123 127 202
f 200 203 199
f 202 127 11
f 202 204 200
f 11 204 202
f 200 204 205
f 205 203 200
f 205 204 11
f 199 203 206
f 206 203 205
f 206 207 199
f 199 207 6
f 205 208 206
f 11 208 205
f 4 207 206
f 6 207 4
f 206 208 3
f 3 208 11
f 3 2 206
f 206 2 4
f 44 46 209
f 209 46 48
f 209 210 44
f 211 210 209
f 32 212 47
f 209 213 211
f 214 212 32
f 32 24 214
f 214 24 20
f 211 213 215
f 215 216 211
f 217 213 209
f 215 213 217
f 109 216 215
f 209 218 217
f 48 218 209
f 215 110 109
f 219 218 48
f 217 218 219
f 217 220 215
f 48 221 219
f 47 221 48
f 222 221 47
f 219 221 222
f 47 212 222
f 219 223 217
f 215 220 111
f 111 110 215
f 116 220 217
f 217 223 116
f 111 220 116
f 120 223 219
f 116 223 120
f 219 224 120
f 222 224 219
f 222 212 214
f 225 224 222
f 120 224 225
f 214 226 222
f 222 226 225
f 227 226 214
f 225 226 227
f 214 228 227
f 20 228 214
f 22 228 20
f 227 228 22
f 225 229 120
f 227 230 225
f 231 229 225
f 225 230 231
f 22 232 227
f 233 230 227
f 227 232 233
f 231 230 233
f 120 229 121
f 121 229 231
f 234 232 22
f 233 232 234
f 22 235 234
f 15 235 22
f 236 235 15
f 234 235 236
f 15 16 236
f 234 237 233
f 236 16 11
f 236 238 234
f 11 238 236
f 234 238 239
f 239 237 234
f 239 238 11
f 233 237 240
f 240 237 239
f 240 241 233
f 233 241 231
f 239 242 240
f 11 242 239
f 243 241 240
f 231 241 243
f 240 242 244
f 244 242 11
f 244 245 240
f 240 245 243
f 49 245 244
f 243 245 49
f 243 246 231
f 231 246 121
f 57 246 243
f 121 246 57
f 49 247 243
f 243 247 57
f 244 50 49
f 11 50 244
f 53 247 49
f 57 247 53
f 11 248 249
f 249 248 250
f 251 252 253
f 254 248 11
f 250 248 254
f 250 255 251
f 254 256 250
f 251 255 257
f 257 252 251
f 258 255 250
f 250 256 258
f 257 255 258
f 259 256 254
f 258 256 259
f 254 260 259
f 11 260 254
f 259 261 258
f 259 260 262
f 262 260 11
f 262 263 259
f 264 261 259
f 259 263 264
f 258 261 265
f 265 261 264
f 265 266 258
f 258 266 257
f 267 263 262
f 264 263 267
f 262 268 267
f 11 268 262
f 257 266 269
f 269 266 265
f 264 270 265
f 269 271 257
f 257 271 272
f 272 252 257
f 253 252 272
f 272 273 253
f 253 273 274
f 272 271 275
f 275 271 269
f 276 273 272
f 274 273 276
f 275 277 272
f 272 277 276
f 269 278 275
f 279 277 275
f 276 277 279
f 276 280 274
f 274 280 281
f 281 282 274
f 283 280 276
f 281 280 283
f 284 282 281
f 276 285 283
f 279 285 276
f 281 286 284
f 284 286 287
f 287 288 284
f 289 286 281
f 287 286 289
f 290 288 287
f 287 291 290
f 290 291 87
f 292 291 287
f 87 291 292
f 289 293 287
f 287 293 292
f 281 294 289
f 283 294 281
f 295 293 289
f 292 293 295
f 289 294 296
f 296 294 283
f 289 297 295
f 296 297 289
f 292 89 87
f 283 298 296
f 295 299 292
f 300 298 283
f 283 285 300
f 296 298 301
f 301 298 300
f 292 299 90
f 90 89 292
f 302 299 295
f 90 299 302
f 295 297 303
f 303 297 296
f 295 304 302
f 303 304 295
f 302 304 305
f 305 304 303
f 305 306 302
f 303 307 305
f 302 306 308
f 309 307 303
f 296 310 303
f 303 310 309
f 301 310 296
f 309 310 301
f 301 311 309
f 312 311 301
f 308 313 302
f 301 314 312
f 302 313 90
f 300 314 301
f 315 313 308
f 90 313 315
f 308 316 315
f 312 314 317
f 317 314 300
f 317 318 312
f 315 316 319
f 320 318 317
f 315 91 90
f 317 321 320
f 319 322 315
f 300 323 317
f 95 322 319
f 319 324 95
f 315 322 93
f 93 91 315
f 93 322 95
f 95 324 101
f 279 323 300
f 300 285 279
f 317 323 325
f 325 323 279
f 325 321 317
f 101 97 95
f 279 326 325
f 275 326 279
f 327 326 275
f 325 326 327
f 275 278 327
f 328 321 325
f 320 321 328
f 328 329 320
f 330 329 328
f 325 331 328
f 327 331 325
f 328 332 330
f 328 331 333
f 333 332 328
f 333 331 327
f 330 332 334
f 334 332 333
f 334 335 330
f 154 335 334
f 327 336 333
f 334 153 154
f 337 336 327
f 327 278 337
f 337 278 269
f 333 338 334
f 333 336 339
f 339 338 333
f 339 336 337
f 334 338 151
f 151 153 334
f 151 338 339
f 269 340 337
f 265 340 269
f 337 341 339
f 342 340 265
f 337 340 342
f 342 341 337
f 265 270 342
f 339 341 343
f 343 341 342
f 339 344 151
f 343 344 339
f 151 344 147
f 147 344 343
f 342 345 343
f 342 270 346
f 346 345 342
f 346 270 264
f 343 345 347
f 347 345 346
f 264 348 346
f 347 349 343
f 343 349 147
f 267 348 264
f 346 348 350
f 350 348 267
f 346 351 347
f 350 351 346
f 139 349 347
f 147 349 139
f 347 351 352
f 352 351 350
f 347 353 139
f 352 353 347
f 139 141 147
f 267 354 350
f 139 353 131
f 131 353 352
f 350 355 352
f 356 354 267
f 267 268 356
f 350 354 357
f 357 355 350
f 357 354 356
f 356 268 11
f 356 358 357
f 11 358 356
f 359 355 357
f 352 355 359
f 357 358 360
f 360 358 11
f 360 361 357
f 357 361 359
f 362 361 360
f 359 361 362
f 359 363 352
f 352 363 131
f 129 363 359
f 131 363 129
f 362 364 359
f 359 364 129
f 360 365 362
f 11 365 360
f 126 364 362
f 129 364 126
f 362 365 125
f 125 365 11
f 125 124 362
f 362 124 126
f 74 366 84
f 84 366 367
f 368 369 367
f 84 76 74
f 370 369 368
f 368 371 370
f 372 371 368
f 367 369 290
f 290 369 370
f 367 373 84
f 290 373 367
f 84 373 87
f 87 373 290
f 374 371 372
f 370 371 374
f 370 288 290
f 372 375 374
f 376 375 372
f 372 377 376
f 376 377 11
f 378 375 376
f 374 375 378
f 11 379 376
f 376 379 378
f 374 380 370
f 284 288 370
f 370 380 284
f 381 380 374
f 284 380 381
f 378 382 374
f 374 382 381
f 378 379 383
f 383 379 11
f 383 384 378
f 385 382 378
f 378 384 385
f 381 382 385
f 386 384 383
f 385 384 386
f 385 387 381
f 383 388 386
f 11 388 383
f 386 389 385
f 253 387 385
f 385 389 253
f 381 387 274
f 274 387 253
f 274 282 381
f 381 282 284
f 251 389 386
f 253 389 251
f 386 388 249
f 249 388 11
f 249 390 386
f 386 390 251
f 250 390 249
f 251 390 250
f 11 391 392
f 392 391 393
f 392 394 11
f 393 391 395
f 395 391 11
f 393 396 392
f 397 394 392
f 392 396 397
f 11 394 60
f 60 394 397
f 11 377 395
f 397 63 60
f 397 396 398
f 398 396 393
f 395 399 393
f 395 377 372
f 372 399 395
f 393 399 368
f 368 399 372
f 393 400 398
f 368 400 393
f 398 401 397
f 397 401 64
f 64 63 397
f 74 401 398
f 64 401 74
f 398 400 367
f 367 400 368
f 398 366 74
f 367 366 398
