v -0.150000006 -0.25 -5.55111512e-17
v 0.150000006 -0.25 -5.55111512e-17
v 0.150000006 -0.25 0.0199999996
v -0.150000006 -0.25 0.0199999996
v 0.150000006 0.25 5.55111512e-17
v -0.150000006 0.25 5.55111512e-17
v -0.150000006 0.25 0.0199999996
v 0.150000006 0.25 0.0199999996
v 0.150000006 -0.25 -5.55111512e-17
v 0.150000006 0.25 5.55111512e-17
v 0.150000006 0.25 0.0199999996
v 0.150000006 -0.25 0.0199999996
v -0.150000006 0.25 5.55111512e-17
v -0.150000006 -0.25 -5.55111512e-17
v -0.150000006 -0.25 0.0199999996
v -0.150000006 0.25 0.0199999996
v -0.150000006 -0.25 -5.55111512e-17
v -0.150000006 0.25 5.55111512e-17
v 0.150000006 0.25 5.55111512e-17
v 0.150000006 -0.25 -5.55111512e-17
f 1 2 3
f 3 4 1
f 5 6 7
f 7 8 5
f 9 10 11
f 11 12 9
f 13 14 15
f 15 16 13
f 17 18 19
f 19 20 17
