v 0.90988183 0 -1.04049015
v 0.902097821 -0.117473722 -1.05000257
v 0.90988183 0 -1.05000257
v 0.902097821 -0.117473722 -1.04049015
v 0.90988183 0 -1.03046584
v 0.878878355 -0.232937098 -1.05000257
v 0.902097821 -0.117473722 -1.03046584
v 0.878878355 -0.232937098 -1.04049015
v 0.840621233 -0.344415188 -1.05000257
v 0.878878355 -0.232937098 -1.03046584
v 0.840621233 -0.344415188 -1.04049015
v 0.787980795 -0.450000048 -1.05000257
v 0.840621233 -0.344415188 -1.03046584
v 0.787980795 -0.450000048 -1.04049015
v 0.721857667 -0.547885418 -1.05000257
v 0.787980795 -0.450000048 -1.03046584
v 0.721857667 -0.547885418 -1.04049015
v 0.643383384 -0.636396289 -1.05000257
v 0.721857667 -0.547885418 -1.03046584
v 0.643383384 -0.636396289 -1.04049015
v 0.643383384 -0.636396289 -1.03046584
v 0.553900838 -0.714017987 -1.04049015
v 0.553900838 -0.714017987 -1.05000257
v 0.553900838 -0.714017987 -1.03046584
v 0.454940796 -0.779422879 -1.04049015
v 0.454940796 -0.779422879 -1.05000257
v 0.454940796 -0.779422879 -1.03046584
v 0.348196387 -0.83149159 -1.04049015
v 0.348196387 -0.83149159 -1.03046584
v 0.348196387 -0.83149159 -1.05000257
v 0.235494375 -0.869333267 -1.03046584
v 0.235494375 -0.869333267 -1.04049015
v 0.235494375 -0.869333267 -1.05000257
v 0.118763089 -0.892300487 -1.03046584
v 0.118763089 -0.892300487 -1.04049015
v 0.118763089 -0.892300487 -1.05000257
v -4.76837158e-07 -0.899999976 -1.03046584
v -4.76837158e-07 -0.899999976 -1.04049015
v -4.76837158e-07 -0.899999976 -1.05000257
v -0.118763983 -0.892300487 -1.03046584
v -0.118763983 -0.892300487 -1.04049015
v -0.118763983 -0.892300487 -1.05000257
v -0.235495389 -0.869333267 -1.03046584
v -0.235495389 -0.869333267 -1.04049015
v -0.235495389 -0.869333267 -1.05000257
v -0.348197341 -0.83149159 -1.03046584
v -0.348197341 -0.83149159 -1.05000257
v -0.348197341 -0.83149159 -1.04049015
v -0.45494163 -0.779422879 -1.04049015
v -0.45494163 -0.779422879 -1.03046584
v -0.45494163 -0.779422879 -1.05000257
v -0.553901792 -0.714017987 -1.04049015
v -0.553901792 -0.714017987 -1.03046584
v -0.553901792 -0.714017987 -1.05000257
v -0.643384457 -0.636396289 -1.03046584
v -0.643384457 -0.636396289 -1.04049015
v -0.643384457 -0.636396289 -1.05000257
v -0.72185868 -0.547885418 -1.05000257
v -0.72185868 -0.547885418 -1.04049015
v -0.72185868 -0.547885418 -1.03046584
v -0.787981689 -0.450000048 -1.05000257
v -0.787981689 -0.450000048 -1.04049015
v -0.787981689 -0.450000048 -1.03046584
v -0.840622127 -0.344415188 -1.05000257
v -0.840622127 -0.344415188 -1.03046584
v -0.878879309 -0.232937098 -1.05000257
v -0.878879309 -0.232937098 -1.03046584
v -0.902098656 -0.117473722 -1.05000257
v -0.902098656 -0.117473722 -1.03046584
v -0.909882843 0 -1.04049015
v -0.909882843 0 -1.05000257
v -0.909882843 0 -1.03046584
v 0.902097821 0.117473543 -1.04049015
v 0.90988183 0 -1.05000257
v 0.902097821 0.117473543 -1.05000257
v 0.90988183 0 -1.04049015
v 0.902097821 0.117473543 -1.03046584
v 0.90988183 0 -1.03046584
v 0.878878355 0.232937098 -1.03046584
v 0.878878355 0.232937098 -1.04049015
v 0.878878355 0.232937098 -1.05000257
v 0.840621233 0.344415069 -1.03046584
v 0.840621233 0.344415069 -1.04049015
v 0.840621233 0.344415069 -1.05000257
v 0.787980795 0.449999988 -1.03046584
v 0.787980795 0.449999988 -1.04049015
v 0.787980795 0.449999988 -1.05000257
v 0.721857667 0.547885299 -1.03046584
v 0.721857667 0.547885299 -1.04049015
v 0.721857667 0.547885299 -1.05000257
v 0.643383384 0.63639605 -1.05000257
v 0.643383384 0.63639605 -1.03046584
v 0.553900838 0.714017987 -1.05000257
v 0.553900838 0.714017987 -1.03046584
v 0.454940796 0.77942282 -1.03046584
v 0.454940796 0.77942282 -1.05000257
v 0.348196387 0.83149153 -1.05000257
v 0.348196387 0.83149153 -1.03046584
v 0.235494375 0.869333208 -1.03046584
v 0.235494375 0.869333208 -1.05000257
v 0.118763089 0.892300367 -1.05000257
v 0.118763089 0.892300367 -1.03046584
v -4.76837158e-07 0.899999976 -1.05000257
v -4.76837158e-07 0.899999976 -1.03046584
v -0.118763983 0.892300367 -1.05000257
v -0.118763983 0.892300367 -1.03046584
v -0.235495389 0.869333208 -1.05000257
v -0.235495389 0.869333208 -1.03046584
v -0.348197341 0.83149153 -1.03046584
v -0.348197341 0.83149153 -1.05000257
v -0.45494163 0.77942282 -1.05000257
v -0.45494163 0.77942282 -1.03046584
v -0.553901792 0.714017987 -1.05000257
v -0.553901792 0.714017987 -1.03046584
v -0.643384457 0.63639605 -1.05000257
v -0.643384457 0.63639605 -1.03046584
v -0.72185868 0.547885299 -1.03046584
v -0.72185868 0.547885299 -1.05000257
v -0.787981689 0.449999988 -1.03046584
v -0.787981689 0.449999988 -1.05000257
v -0.840622127 0.344415069 -1.03046584
v -0.840622127 0.344415069 -1.05000257
v -0.878879309 0.232937098 -1.05000257
v -0.878879309 0.232937098 -1.03046584
v -0.902098656 0.117473543 -1.03046584
v -0.902098656 0.117473543 -1.05000257
v -0.909882843 0 -1.04049015
v -0.909882843 0 -1.03046584
v -0.909882843 0 -1.05000257
v 0.118763089 0.892300367 -1.05000257
v -0.118763983 0.892300367 -1.05000257
v -4.76837158e-07 0.899999976 -1.05000257
v 0.235494375 0.869333208 -1.05000257
v -0.235495389 0.869333208 -1.05000257
v -0.348197341 0.83149153 -1.05000257
v 0.348196387 0.83149153 -1.05000257
v -0.45494163 0.77942282 -1.05000257
v 0.454940796 0.77942282 -1.05000257
v -0.553901792 0.714017987 -1.05000257
v 0.553900838 0.714017987 -1.05000257
v -0.643384457 0.63639605 -1.05000257
v 0.643383384 0.63639605 -1.05000257
v 0.721857667 0.547885299 -1.05000257
v -0.72185868 0.547885299 -1.05000257
v -0.787981689 0.449999988 -1.05000257
v 0.787980795 0.449999988 -1.05000257
v -0.840622127 0.344415069 -1.05000257
v 0.840621233 0.344415069 -1.05000257
v -0.878879309 0.232937098 -1.05000257
v 0.878878355 0.232937098 -1.05000257
v -0.902098656 0.117473543 -1.05000257
v 0.902097821 0.117473543 -1.05000257
v -0.909882843 0 -1.05000257
v 0.90988183 0 -1.05000257
v 0.902097821 -0.117473722 -1.05000257
v -0.902098656 -0.117473722 -1.05000257
v -0.878879309 -0.232937098 -1.05000257
v 0.878878355 -0.232937098 -1.05000257
v -0.840622127 -0.344415188 -1.05000257
v 0.840621233 -0.344415188 -1.05000257
v 0.787980795 -0.450000048 -1.05000257
v -0.787981689 -0.450000048 -1.05000257
v -0.72185868 -0.547885418 -1.05000257
v 0.721857667 -0.547885418 -1.05000257
v -0.643384457 -0.636396289 -1.05000257
v 0.643383384 -0.636396289 -1.05000257
v -0.553901792 -0.714017987 -1.05000257
v 0.553900838 -0.714017987 -1.05000257
v -0.45494163 -0.779422879 -1.05000257
v 0.454940796 -0.779422879 -1.05000257
v -0.348197341 -0.83149159 -1.05000257
v 0.348196387 -0.83149159 -1.05000257
v 0.235494375 -0.869333267 -1.05000257
v -0.235495389 -0.869333267 -1.05000257
v 0.118763089 -0.892300487 -1.05000257
v -0.118763983 -0.892300487 -1.05000257
v -4.76837158e-07 -0.899999976 -1.05000257
v -0.621892333 0.615137339 -1.03046584
v -0.697745085 0.529583216 -1.03046584
v -0.761659265 0.434967816 -1.03046584
v -0.812541306 0.332909942 -1.03046584
v -0.849520504 0.22515583 -1.03046584
v -0.871964216 0.113549352 -1.03046584
v -0.879488349 0 -1.03046584
v -0.871964216 -0.113549352 -1.03046584
v -0.45494163 -0.779422879 -1.03046584
v -0.849520504 -0.22515583 -1.03046584
v -0.812541306 -0.332910061 -1.03046584
v -0.761659265 -0.434967875 -1.03046584
v -0.697745085 -0.529583216 -1.03046584
v -0.621892333 -0.615137339 -1.03046584
v -0.643384457 -0.636396289 -1.03046584
v -0.553901792 -0.714017987 -1.03046584
v 0.879487276 0 -1.03046584
v -0.553901792 0.714017987 -1.03046584
v -0.643384457 0.63639605 -1.03046584
v 0.553900838 0.714017987 -1.03046584
v 0.454940796 0.77942282 -1.03046584
v -0.45494163 0.77942282 -1.03046584
v 0.348196387 0.83149153 -1.03046584
v -0.348197341 0.83149153 -1.03046584
v 0.235494375 0.869333208 -1.03046584
v -0.235495389 0.869333208 -1.03046584
v 0.118763089 0.892300367 -1.03046584
v -0.118763983 0.892300367 -1.03046584
v -4.76837158e-07 0.899999976 -1.03046584
v 0.621891379 0.615137339 -1.03046584
v 0.643383384 0.63639605 -1.03046584
v 0.622765183 0.614151776 -1.03046584
v 0.697744131 0.529583216 -1.03046584
v 0.76165843 0.434967816 -1.03046584
v 0.812540174 0.332909942 -1.03046584
v 0.849519372 0.22515583 -1.03046584
v 0.871963143 0.113549352 -1.03046584
v 0.454940796 -0.779422879 -1.03046584
v -0.348197341 -0.83149159 -1.03046584
v 0.871963143 -0.113549352 -1.03046584
v 0.849519372 -0.22515583 -1.03046584
v 0.812540174 -0.332910061 -1.03046584
v 0.76165843 -0.434967875 -1.03046584
v 0.697744131 -0.529583216 -1.03046584
v 0.621891379 -0.615137339 -1.03046584
v 0.643383384 -0.636396289 -1.03046584
v 0.553900838 -0.714017987 -1.03046584
v 0.348196387 -0.83149159 -1.03046584
v -0.235495389 -0.869333267 -1.03046584
v 0.235494375 -0.869333267 -1.03046584
v -0.118763983 -0.892300487 -1.03046584
v 0.118763089 -0.892300487 -1.03046584
v -4.76837158e-07 -0.899999976 -1.03046584
f 1 2 3
f 2 1 4
f 5 4 1
f 4 6 2
f 4 5 7
f 6 4 8
f 7 8 4
f 8 9 6
f 8 7 10
f 9 8 11
f 10 11 8
f 11 12 9
f 11 10 13
f 12 11 14
f 13 14 11
f 14 15 12
f 14 13 16
f 15 14 17
f 16 17 14
f 17 18 15
f 17 16 19
f 19 20 17
f 18 17 20
f 20 19 21
f 22 18 20
f 21 22 20
f 18 22 23
f 22 21 24
f 25 23 22
f 24 25 22
f 23 25 26
f 25 24 27
f 28 26 25
f 27 28 25
f 28 27 29
f 26 28 30
f 31 28 29
f 32 30 28
f 28 31 32
f 30 32 33
f 34 32 31
f 35 33 32
f 32 34 35
f 33 35 36
f 37 35 34
f 38 36 35
f 35 37 38
f 36 38 39
f 40 38 37
f 41 39 38
f 38 40 41
f 39 41 42
f 43 41 40
f 44 42 41
f 41 43 44
f 42 44 45
f 46 44 43
f 44 47 45
f 44 46 48
f 47 44 48
f 46 49 48
f 49 47 48
f 49 46 50
f 47 49 51
f 50 52 49
f 52 51 49
f 52 50 53
f 51 52 54
f 55 52 53
f 56 54 52
f 52 55 56
f 54 56 57
f 56 58 57
f 55 59 56
f 58 56 59
f 59 55 60
f 59 61 58
f 60 62 59
f 61 59 62
f 62 60 63
f 62 64 61
f 63 64 62
f 64 63 65
f 65 66 64
f 66 65 67
f 67 68 66
f 68 67 69
f 69 70 68
f 71 68 70
f 70 69 72
f 73 74 75
f 74 73 76
f 77 76 73
f 76 77 78
f 73 79 77
f 75 80 73
f 79 73 80
f 80 75 81
f 80 82 79
f 81 83 80
f 82 80 83
f 83 81 84
f 83 85 82
f 84 86 83
f 85 83 86
f 86 84 87
f 86 88 85
f 87 89 86
f 88 86 89
f 89 87 90
f 90 91 89
f 91 88 89
f 88 91 92
f 93 92 91
f 92 93 94
f 93 95 94
f 93 96 95
f 96 97 95
f 95 97 98
f 99 98 97
f 99 97 100
f 101 99 100
f 99 101 102
f 103 102 101
f 102 103 104
f 105 104 103
f 104 105 106
f 107 106 105
f 106 107 108
f 109 108 107
f 107 110 109
f 111 109 110
f 112 109 111
f 113 112 111
f 112 113 114
f 115 114 113
f 114 115 116
f 115 117 116
f 117 115 118
f 118 119 117
f 119 118 120
f 120 121 119
f 121 120 122
f 123 121 122
f 121 123 124
f 123 125 124
f 125 123 126
f 126 127 125
f 128 125 127
f 127 126 129
f 130 131 132
f 131 130 133
f 131 133 134
f 134 133 135
f 135 133 136
f 135 136 137
f 137 136 138
f 137 138 139
f 139 138 140
f 139 140 141
f 141 140 142
f 141 142 143
f 141 143 144
f 144 143 145
f 145 143 146
f 145 146 147
f 147 146 148
f 147 148 149
f 149 148 150
f 149 150 151
f 151 150 152
f 151 152 153
f 153 152 154
f 153 154 155
f 153 155 156
f 156 155 157
f 157 155 158
f 157 158 159
f 159 158 160
f 159 160 161
f 159 161 162
f 162 161 163
f 163 161 164
f 163 164 165
f 165 164 166
f 165 166 167
f 167 166 168
f 167 168 169
f 169 168 170
f 169 170 171
f 171 170 172
f 171 172 173
f 171 173 174
f 174 173 175
f 174 175 176
f 176 175 177
f 178 179 180
f 180 181 182
f 180 182 183
f 180 183 184
f 180 184 185
f 180 185 186
f 186 185 187
f 186 187 188
f 186 188 189
f 186 189 190
f 186 190 191
f 186 191 192
f 186 192 193
f 180 186 194
f 194 178 180
f 178 195 196
f 197 195 178
f 178 194 197
f 198 195 197
f 198 199 195
f 200 199 198
f 200 201 199
f 202 201 200
f 202 203 201
f 204 203 202
f 204 205 203
f 205 204 206
f 197 207 208
f 197 194 207
f 207 194 209
f 209 194 210
f 210 194 211
f 211 194 212
f 212 194 213
f 213 194 214
f 215 194 186
f 215 186 216
f 194 215 217
f 218 217 219
f 219 217 220
f 220 217 221
f 217 215 221
f 221 215 222
f 222 215 223
f 223 215 224
f 215 216 225
f 225 216 226
f 225 226 227
f 227 226 228
f 227 228 229
f 229 228 230
