v 0.409392476 0.701387644 -0.13176477
v 0.409392476 0.701387644 -1.01134443
v 0.0356664062 0.0611059666 -0.13176477
v 0.0356664062 0.0611059666 -1.01134443
v 0.0356664062 0.0611059666 0.996391773
v 0.409392476 0.701387644 0.996391773
v 0.0356664062 0.0611059666 -0.0361582041
v 0.409392476 0.701387644 -0.0361582041
v 0.409392476 0.701387644 -1.01134443
v 0.0356664062 0.0611059666 -0.13176477
v 0.0356664062 0.0611059666 -1.01134443
v 0.409392476 0.701387644 -0.13176477
v 0.409392476 0.701387644 0.996391773
v 0.0356664062 0.0611059666 -0.0361582041
v 0.409392476 0.701387644 -0.0361582041
v 0.0356664062 0.0611059666 0.996391773
f 1 2 3
f 4 3 2
f 5 6 7
f 8 7 6
f 9 10 11
f 10 9 12
f 13 14 15
f 14 13 16
