v 0.709800959 0.538734198 0.977270842
v 0.774819493 0.442483872 0.977270842
v 0.709800959 0.538734198 -0.934859276
v 0.679959416 0.572392344 -0.934859276
v 0.679959416 0.572392344 0.977270842
v 0.774819493 0.442483872 -0.934859276
v 0.826580763 0.338662505 -0.934859276
v 0.826580763 0.338662505 0.977270842
v 0.864198923 0.229046524 0.977270842
v 0.864198923 0.229046524 -0.934859276
v 0.887030363 0.115511417 0.977270842
v 0.887030363 0.115511417 -0.934859276
v 0.891378522 0.049892962 0.977270842
v 0.891378522 0.049892962 -0.934859276
v 0.864198923 -0.229046464 0.977270842
v 0.826580763 -0.338662505 -0.934859276
v 0.864198923 -0.229046464 -0.934859276
v 0.826580763 -0.338662505 0.977270842
v 0.887030363 -0.115511537 0.977270842
v 0.774819493 -0.442483902 -0.934859276
v 0.887030363 -0.115511537 -0.934859276
v 0.891378522 -0.0498930216 -0.934859276
v 0.891378522 -0.0498930216 0.977270842
v 0.774819493 -0.442483902 0.977270842
v 0.709800959 -0.538734436 -0.934859276
v 0.709800959 -0.538734436 0.977270842
v 0.678642988 -0.573877096 -0.934859276
v 0.678642988 -0.573877096 0.977270842
v -0.709801912 0.538734198 0.977270842
v -0.678644001 0.573877096 -0.934859276
v -0.709801912 0.538734198 -0.934859276
v -0.678644001 0.573877096 0.977270842
v -0.774820507 0.442483872 0.977270842
v -0.774820507 0.442483872 -0.934859276
v -0.826581717 0.338662505 -0.934859276
v -0.826581717 0.338662505 0.977270842
v -0.864199936 0.229046524 0.977270842
v -0.864199936 0.229046524 -0.934859276
v -0.887031436 0.115511417 0.977270842
v -0.887031436 0.115511417 -0.934859276
v -0.891314507 0.0508739948 0.977270842
v -0.891314507 0.0508739948 -0.934859276
v -0.774820507 -0.442483902 0.977270842
v -0.826581717 -0.338662505 -0.934859276
v -0.774820507 -0.442483902 -0.934859276
v -0.826581717 -0.338662505 0.977270842
v -0.709801912 -0.538734436 0.977270842
v -0.864199936 -0.229046464 0.977270842
v -0.709801912 -0.538734436 -0.934859276
v -0.678644001 -0.573877096 0.977270842
v -0.678644001 -0.573877096 -0.934859276
v -0.864199936 -0.229046464 -0.934859276
v -0.887031436 -0.115511537 -0.934859276
v -0.887031436 -0.115511537 0.977270842
v -0.891314507 -0.0508740544 -0.934859276
v -0.891314507 -0.0508740544 0.977270842
v -0.0827455521 0.0472540855 -0.13176477
v -0.0827455521 0.0472540855 -0.992223203
v -0.709089637 0.404946327 -0.13176477
v -0.709089637 0.404946327 -0.992223203
v 0.709088802 -0.404946327 -0.0361582041
v 0.077854991 -0.0444616675 -0.0361582041
v 0.709088802 -0.404946327 0.977270842
v 0.077854991 -0.0444616675 0.977270842
v 0.709088802 -0.404946327 -0.13176477
v 0.709088802 -0.404946327 -0.992223203
v 0.077854991 -0.0444616675 -0.13176477
v 0.077854991 -0.0444616675 -0.992223203
v -0.0827455521 0.0472540855 -0.0361582041
v -0.709089637 0.404946327 -0.0361582041
v -0.0827455521 0.0472540855 0.977270842
v -0.709089637 0.404946327 0.977270842
v -0.0469465256 -0.0804299116 0.977270842
v -0.409393251 -0.701387763 0.977270842
v -0.0469465256 -0.0804299116 -0.0361582041
v -0.409393251 -0.701387763 -0.0361582041
v -0.0469465256 -0.0804299116 -0.13176477
v -0.409393251 -0.701387763 -0.13176477
v -0.0469465256 -0.0804299116 -0.992223203
v -0.409393251 -0.701387763 -0.992223203
v -0.409393251 -0.701387763 0.977270842
v -0.0469465256 -0.0804299116 -0.0361582041
v -0.409393251 -0.701387763 -0.0361582041
v -0.0469465256 -0.0804299116 0.977270842
v -0.409393251 -0.701387763 -0.13176477
v -0.0469465256 -0.0804299116 -0.992223203
v -0.409393251 -0.701387763 -0.992223203
v -0.0469465256 -0.0804299116 -0.13176477
v -0.0827455521 0.0472540855 -0.992223203
v -0.709089637 0.404946327 -0.13176477
v -0.709089637 0.404946327 -0.992223203
v -0.0827455521 0.0472540855 -0.13176477
v 0.077854991 -0.0444616675 -0.0361582041
v 0.709088802 -0.404946327 0.977270842
v 0.077854991 -0.0444616675 0.977270842
v 0.709088802 -0.404946327 -0.0361582041
v 0.709088802 -0.404946327 -0.992223203
v 0.077854991 -0.0444616675 -0.13176477
v 0.077854991 -0.0444616675 -0.992223203
v 0.709088802 -0.404946327 -0.13176477
v -0.709089637 0.404946327 -0.0361582041
v -0.0827455521 0.0472540855 0.977270842
v -0.709089637 0.404946327 0.977270842
v -0.0827455521 0.0472540855 -0.0361582041
v -0.826581717 -0.338662505 0.977270842
v -0.774820507 -0.442483902 0.977270842
v -0.826581717 -0.338662505 -0.934859276
v -0.864199936 -0.229046464 0.977270842
v -0.774820507 -0.442483902 -0.934859276
v -0.864199936 -0.229046464 -0.934859276
v -0.709801912 -0.538734436 0.977270842
v -0.887031436 -0.115511537 -0.934859276
v -0.709801912 -0.538734436 -0.934859276
v -0.678644001 -0.573877096 0.977270842
v -0.678644001 -0.573877096 -0.934859276
v -0.887031436 -0.115511537 0.977270842
v -0.891314507 -0.0508740544 -0.934859276
v -0.891314507 -0.0508740544 0.977270842
v -0.678644001 0.573877096 0.977270842
v -0.709801912 0.538734198 0.977270842
v -0.678644001 0.573877096 -0.934859276
v -0.709801912 0.538734198 -0.934859276
v -0.774820507 0.442483872 0.977270842
v -0.774820507 0.442483872 -0.934859276
v -0.826581717 0.338662505 -0.934859276
v -0.826581717 0.338662505 0.977270842
v -0.864199936 0.229046524 0.977270842
v -0.864199936 0.229046524 -0.934859276
v -0.887031436 0.115511417 0.977270842
v -0.887031436 0.115511417 -0.934859276
v -0.891314507 0.0508739948 0.977270842
v -0.891314507 0.0508739948 -0.934859276
v 0.826580763 -0.338662505 0.977270842
v 0.864198923 -0.229046464 0.977270842
v 0.826580763 -0.338662505 -0.934859276
v 0.864198923 -0.229046464 -0.934859276
v 0.774819493 -0.442483902 -0.934859276
v 0.887030363 -0.115511537 0.977270842
v 0.774819493 -0.442483902 0.977270842
v 0.887030363 -0.115511537 -0.934859276
v 0.891378522 -0.0498930216 -0.934859276
v 0.891378522 -0.0498930216 0.977270842
v 0.709800959 -0.538734436 -0.934859276
v 0.709800959 -0.538734436 0.977270842
v 0.678642988 -0.573877096 -0.934859276
v 0.678642988 -0.573877096 0.977270842
v 0.774819493 0.442483872 0.977270842
v 0.709800959 0.538734198 -0.934859276
v 0.774819493 0.442483872 -0.934859276
v 0.826580763 0.338662505 -0.934859276
v 0.709800959 0.538734198 0.977270842
v 0.679959416 0.572392344 -0.934859276
v 0.679959416 0.572392344 0.977270842
v 0.826580763 0.338662505 0.977270842
v 0.864198923 0.229046524 0.977270842
v 0.864198923 0.229046524 -0.934859276
v 0.887030363 0.115511417 0.977270842
v 0.887030363 0.115511417 -0.934859276
v 0.891378522 0.049892962 0.977270842
v 0.891378522 0.049892962 -0.934859276
f 1 2 3
f 3 4 1
f 5 1 4
f 6 3 2
f 6 2 7
f 8 7 2
f 8 9 7
f 10 7 9
f 9 11 10
f 12 10 11
f 11 13 12
f 14 12 13
f 15 16 17
f 16 15 18
f 17 19 15
f 18 20 16
f 19 17 21
f 22 19 21
f 19 22 23
f 20 18 24
f 24 25 20
f 25 24 26
f 26 27 25
f 27 26 28
f 29 30 31
f 30 29 32
f 31 33 29
f 33 31 34
f 35 33 34
f 33 35 36
f 35 37 36
f 37 35 38
f 38 39 37
f 39 38 40
f 40 41 39
f 41 40 42
f 43 44 45
f 44 43 46
f 45 47 43
f 48 44 46
f 47 45 49
f 49 50 47
f 50 49 51
f 44 48 52
f 48 53 52
f 53 48 54
f 54 55 53
f 55 54 56
f 57 58 59
f 60 59 58
f 61 62 63
f 64 63 62
f 65 66 67
f 68 67 66
f 69 70 71
f 72 71 70
f 73 74 75
f 76 75 74
f 77 78 79
f 80 79 78
f 81 82 83
f 82 81 84
f 85 86 87
f 86 85 88
f 89 90 91
f 90 89 92
f 93 94 95
f 94 93 96
f 97 98 99
f 98 97 100
f 101 102 103
f 102 101 104
f 105 106 107
f 105 107 108
f 109 107 106
f 110 108 107
f 106 111 109
f 110 112 108
f 113 109 111
f 111 114 113
f 115 113 114
f 116 108 112
f 112 117 116
f 118 116 117
f 119 120 121
f 122 121 120
f 120 123 122
f 124 122 123
f 124 123 125
f 126 125 123
f 126 127 125
f 128 125 127
f 127 129 128
f 130 128 129
f 129 131 130
f 132 130 131
f 133 134 135
f 136 135 134
f 135 137 133
f 134 138 136
f 139 133 137
f 140 136 138
f 140 138 141
f 142 141 138
f 137 143 139
f 144 139 143
f 143 145 144
f 146 144 145
f 147 148 149
f 150 147 149
f 148 147 151
f 151 152 148
f 152 151 153
f 147 150 154
f 150 155 154
f 155 150 156
f 156 157 155
f 157 156 158
f 158 159 157
f 159 158 160
