v 0.149999604 -1.14999986 -2.55351264e-16
v 0.299999148 -1.14999986 -2.55351264e-16
v 0.299999148 -1.14999986 0.00100000133
v 0.149999604 -1.14999986 0.00100000133
v -0.299999058 -1.14999986 -2.55351264e-16
v -0.299999058 -1.14999986 0.00100000133
v 0.299999058 1.14999986 2.55351264e-16
v -0.149999604 1.14999986 2.55351264e-16
v -0.149999604 1.14999986 0.00100000133
v 0.299999058 1.14999986 0.00100000133
v -0.299999148 1.14999986 0.00100000133
v -0.299999148 1.14999986 2.55351264e-16
v 0.299999148 -1.14999986 -2.55351264e-16
v 0.299999058 0.574999928 1.27675632e-16
v 0.299999118 -0.574999869 0.00100000133
v 0.299999148 -1.14999986 0.00100000133
v 0.299999058 1.14999986 0.00100000133
v 0.299999058 1.14999986 2.55351264e-16
v -0.299999148 1.14999986 2.55351264e-16
v -0.299999058 -0.574999928 -1.27675632e-16
v -0.299999088 -1.31133522e-08 0.00100000133
v -0.299999148 1.14999986 0.00100000133
v -0.299999058 -1.14999986 0.00100000133
v -0.299999058 -1.14999986 -2.55351264e-16
v 0.299999118 -0.574999869 0.00100000133
v 0.299999058 1.14999986 0.00100000133
v -0.149999604 1.14999986 0.00100000133
v -0.299999148 1.14999986 0.00100000133
v -0.299999088 -1.31133522e-08 0.00100000133
v 0.149999604 -1.14999986 0.00100000133
v 0.299999148 -1.14999986 0.00100000133
v -0.299999058 -1.14999986 0.00100000133
vt -0.979560375 0.749749899
vt -0.979560494 0.999500036
vt -0.979560494 0.999500036
vt -0.979560375 0.749749899
vt -0.979560137 0.000499546528
vt -0.979560137 0.000499546528
vt 1.97956026 0.999500453
vt 1.97956026 0.250250101
vt 1.97956026 0.250250101
vt 1.97956026 0.999500453
vt 1.97956049 0.00049996376
vt 1.97956049 0.00049996376
vt -0.979560494 0.999500036
vt 1.23977983 0.999500394
vt -0.239780307 0.999500155
vt -0.979560494 0.999500036
vt 1.97956026 0.999500453
vt 1.97956026 0.999500453
vt 1.97956049 0.00049996376
vt -0.239779949 0.000499606133
vt 0.500000119 0.000499725342
vt 1.97956049 0.00049996376
vt -0.979560137 0.000499546528
vt -0.979560137 0.000499546528
vt -0.239780307 0.999500155
vt 1.97956026 0.999500453
vt 1.97956026 0.250250101
vt 1.97956049 0.00049996376
vt 0.500000119 0.000499725342
vt -0.979560375 0.749749899
vt -0.979560494 0.999500036
vt -0.979560137 0.000499546528
f 1/1 2/2 3/3
f 3/3 4/4 1/1
f 5/5 1/1 4/4
f 4/4 6/6 5/5
f 7/7 8/8 9/9
f 9/9 10/10 7/7
f 11/11 9/9 8/8
f 8/8 12/12 11/11
f 13/13 14/14 15/15
f 15/15 16/16 13/13
f 17/17 15/15 14/14
f 14/14 18/18 17/17
f 19/19 20/20 21/21
f 21/21 22/22 19/19
f 23/23 21/21 20/20
f 20/20 24/24 23/23
f 25/25 26/26 27/27
f 25/25 27/27 28/28
f 28/28 29/29 25/25
f 30/30 31/31 25/25
f 30/30 25/25 29/29
f 29/29 32/32 30/30
