v 0.121021055 0.0607790649 1.34956635e-17
v 0.131775528 0.0312313791 6.93475924e-18
v 0.135425955 7.15255988e-09 1.58818733e-24
v 0.131775469 -0.0312315673 -6.93480101e-18
v 0.121020965 -0.0607792065 -1.34956949e-17
v 0.0808707699 0.108628303 2.41203286e-17
v 0.103742294 0.0870501176 1.9329009e-17
v 0.103742197 -0.0870502293 -1.93290338e-17
v 0.0536394753 0.124350294 2.7611312e-17
v 0.0808706656 -0.108628362 -2.41203418e-17
v 0.0235164594 0.133368537 2.96137641e-17
v 0.0536393933 -0.124350324 -2.76113186e-17
v -0.00787433423 0.135196835 3.00197278e-17
v 0.0235164016 -0.133368537 -2.96137641e-17
v -0.038840618 0.129736647 2.88073225e-17
v -0.00787435845 -0.13519682 -3.00197245e-17
v -0.067712985 0.117282324 2.60419072e-17
v -0.0388406105 -0.129736632 -2.88073192e-17
v -0.0929349363 0.098505266 2.18725629e-17
v -0.0677129626 -0.117282309 -2.60419039e-17
v -0.113146745 0.0744177625 1.65240627e-17
v -0.0929348916 -0.0985052884 -2.18725678e-17
v -0.127258763 0.0463183895 1.02847485e-17
v -0.113146707 -0.0744177997 -1.65240709e-17
v -0.134510249 0.0157219749 3.4909797e-18
v -0.127258763 -0.0463184267 -1.02847568e-17
v -0.134510234 -0.0157220159 -3.4909888e-18
v 0.131775528 0.0312313791 0.0269547701
v 0.131775469 -0.0312315673 0.0269547701
v 0.135425955 7.15255988e-09 0.0269547701
v 0.121020965 -0.0607792065 0.0269547701
v 0.121021055 0.0607790649 0.0269547701
v 0.103742294 0.0870501176 0.0269547701
v 0.103742197 -0.0870502293 0.0269547701
v 0.0808707699 0.108628303 0.0269547701
v 0.0808706656 -0.108628362 0.0269547701
v 0.0536394753 0.124350294 0.0269547701
v 0.0536393933 -0.124350324 0.0269547701
v 0.0235164594 0.133368537 0.0269547701
v 0.0235164016 -0.133368537 0.0269547701
v -0.00787433423 0.135196835 0.0269547701
v -0.00787435845 -0.13519682 0.0269547701
v -0.038840618 0.129736647 0.0269547701
v -0.0388406105 -0.129736632 0.0269547701
v -0.067712985 0.117282324 0.0269547701
v -0.0677129626 -0.117282309 0.0269547701
v -0.0929349363 0.098505266 0.0269547701
v -0.0929348916 -0.0985052884 0.0269547701
v -0.113146745 0.0744177625 0.0269547701
v -0.113146707 -0.0744177997 0.0269547701
v -0.127258763 0.0463183895 0.0269547701
v -0.127258763 -0.0463184267 0.0269547701
v -0.134510249 0.0157219749 0.0269547701
v -0.134510234 -0.0157220159 0.0269547701
v 0.135425955 7.15255988e-09 1.58818733e-24
v 0.131775528 0.0312313791 0.0269547701
v 0.135425955 7.15255988e-09 0.0269547701
v 0.131775528 0.0312313791 6.93475924e-18
v 0.131775469 -0.0312315673 -6.93480101e-18
v 0.121021055 0.0607790649 0.0269547701
v 0.131775469 -0.0312315673 0.0269547701
v 0.121021055 0.0607790649 1.34956635e-17
v 0.121020965 -0.0607792065 -1.34956949e-17
v 0.103742294 0.0870501176 0.0269547701
v 0.121020965 -0.0607792065 0.0269547701
v 0.103742294 0.0870501176 1.9329009e-17
v 0.103742197 -0.0870502293 -1.93290338e-17
v 0.0808707699 0.108628303 0.0269547701
v 0.103742197 -0.0870502293 0.0269547701
v 0.0808707699 0.108628303 2.41203286e-17
v 0.0808706656 -0.108628362 -2.41203418e-17
v 0.0536394753 0.124350294 0.0269547701
v 0.0808706656 -0.108628362 0.0269547701
v 0.0536394753 0.124350294 2.7611312e-17
v 0.0536393933 -0.124350324 -2.76113186e-17
v 0.0235164594 0.133368537 0.0269547701
v 0.0536393933 -0.124350324 0.0269547701
v 0.0235164594 0.133368537 2.96137641e-17
v 0.0235164016 -0.133368537 -2.96137641e-17
v -0.00787433423 0.135196835 0.0269547701
v 0.0235164016 -0.133368537 0.0269547701
v -0.00787433423 0.135196835 3.00197278e-17
v -0.00787435845 -0.13519682 -3.00197245e-17
v -0.038840618 0.129736647 0.0269547701
v -0.00787435845 -0.13519682 0.0269547701
v -0.038840618 0.129736647 2.88073225e-17
v -0.0388406105 -0.129736632 -2.88073192e-17
v -0.067712985 0.117282324 0.0269547701
v -0.0388406105 -0.129736632 0.0269547701
v -0.067712985 0.117282324 2.60419072e-17
v -0.0677129626 -0.117282309 -2.60419039e-17
v -0.0929349363 0.098505266 0.0269547701
v -0.0677129626 -0.117282309 0.0269547701
v -0.0929349363 0.098505266 2.18725629e-17
v -0.0929348916 -0.0985052884 -2.18725678e-17
v -0.113146745 0.0744177625 0.0269547701
v -0.0929348916 -0.0985052884 0.0269547701
v -0.113146745 0.0744177625 1.65240627e-17
v -0.113146707 -0.0744177997 -1.65240709e-17
v -0.127258763 0.0463183895 0.0269547701
v -0.113146707 -0.0744177997 0.0269547701
v -0.127258763 0.0463183895 1.02847485e-17
v -0.127258763 -0.0463184267 -1.02847568e-17
v -0.134510249 0.0157219749 0.0269547701
v -0.127258763 -0.0463184267 0.0269547701
v -0.134510249 0.0157219749 3.4909797e-18
v -0.134510234 -0.0157220159 -3.4909888e-18
v -0.134510234 -0.0157220159 0.0269547701
f 1 2 3
f 1 3 4
f 1 4 5
f 1 6 7
f 1 5 8
f 1 9 6
f 1 8 10
f 1 11 9
f 1 10 12
f 1 13 11
f 1 12 14
f 1 15 13
f 1 14 16
f 1 17 15
f 1 16 18
f 1 19 17
f 1 18 20
f 1 21 19
f 1 20 22
f 1 23 21
f 1 22 24
f 1 25 23
f 1 24 26
f 1 27 25
f 1 26 27
f 28 29 30
f 28 31 29
f 28 32 33
f 28 34 31
f 28 33 35
f 28 36 34
f 28 35 37
f 28 38 36
f 28 37 39
f 28 40 38
f 28 39 41
f 28 42 40
f 28 41 43
f 28 44 42
f 28 43 45
f 28 46 44
f 28 45 47
f 28 48 46
f 28 47 49
f 28 50 48
f 28 49 51
f 28 52 50
f 28 51 53
f 28 54 52
f 28 53 54
f 55 56 57
f 55 58 56
f 59 55 57
f 58 60 56
f 59 57 61
f 58 62 60
f 63 59 61
f 62 64 60
f 63 61 65
f 62 66 64
f 67 63 65
f 66 68 64
f 67 65 69
f 66 70 68
f 71 67 69
f 70 72 68
f 71 69 73
f 70 74 72
f 75 71 73
f 74 76 72
f 75 73 77
f 74 78 76
f 79 75 77
f 78 80 76
f 79 77 81
f 78 82 80
f 83 79 81
f 82 84 80
f 83 81 85
f 82 86 84
f 87 83 85
f 86 88 84
f 87 85 89
f 86 90 88
f 91 87 89
f 90 92 88
f 91 89 93
f 90 94 92
f 95 91 93
f 94 96 92
f 95 93 97
f 94 98 96
f 99 95 97
f 98 100 96
f 99 97 101
f 98 102 100
f 103 99 101
f 102 104 100
f 103 101 105
f 102 106 104
f 107 103 105
f 106 108 104
f 107 105 108
f 106 107 108
