v 0.398800939 -0.205095649 0.00120000006
v 0.40000093 -0.203895643 0.00120001868
v 0.40000093 -0.20389615 0.0338000208
v 0.398800939 -0.205096155 0.0337999985
v -0.398799092 -0.205096155 0.0338000022
v -0.399999082 -0.20389615 0.0338000208
v -0.399999082 -0.203895643 0.00120001868
v -0.398799092 -0.205095649 0.00120000122
v 0.400000632 0.223797098 0.00120695785
v 0.398800641 0.224997103 0.00120697648
v 0.398800641 0.224996597 0.0338069759
v 0.400000632 0.223796591 0.0338069573
v -0.39879939 0.224997103 0.00120697648
v -0.39999938 0.223797098 0.00120695785
v -0.39999938 0.223796591 0.0338069573
v -0.39879939 0.224996597 0.0338069759
v 0.40000093 -0.203895643 0.00120001868
v 0.400000632 0.223797098 0.00120695785
v 0.400000632 0.223796591 0.0338069573
v 0.40000093 -0.20389615 0.0338000208
v -0.39999938 0.223797098 0.00120695785
v -0.399999082 -0.203895643 0.00120001868
v -0.399999082 -0.20389615 0.0338000208
v -0.39999938 0.223796591 0.0338069573
v -0.398799092 -0.205095649 0.00120000122
v -0.399999082 -0.203895643 0.00120001868
v -0.398799092 -0.203895628 1.86085121e-08
v 0.398800939 -0.203895628 1.85987403e-08
v 0.40000093 -0.203895643 0.00120001868
v 0.398800939 -0.205095649 0.00120000006
v -0.39999938 0.223797098 0.00120695785
v -0.39879939 0.224997103 0.00120697648
v -0.39879939 0.223797113 6.95792369e-06
v 0.398800641 0.223797113 6.95791414e-06
v 0.398800641 0.224997103 0.00120697648
v 0.400000632 0.223797098 0.00120695785
v -0.398799092 -0.205096155 0.0338000022
v -0.398799092 -0.203896165 0.0350000188
v -0.399999082 -0.20389615 0.0338000208
v 0.40000093 -0.20389615 0.0338000208
v 0.398800939 -0.203896165 0.0350000188
v 0.398800939 -0.205096155 0.0337999985
v -0.39999938 0.223796591 0.0338069573
v -0.39879939 0.223796561 0.035006959
v -0.39879939 0.224996597 0.0338069759
v 0.398800641 0.224996597 0.0338069759
v 0.398800641 0.223796561 0.035006959
v 0.400000632 0.223796591 0.0338069573
v -0.398799092 -0.203895628 1.86085121e-08
v -0.399999082 -0.203895643 0.00120001868
v -0.39999938 0.223797098 0.00120695785
v -0.39879939 0.223797113 6.95792369e-06
v 0.398800641 0.223797113 6.95791414e-06
v 0.400000632 0.223797098 0.00120695785
v 0.40000093 -0.203895643 0.00120001868
v 0.398800939 -0.203895628 1.85987403e-08
v 0.398800939 -0.203896165 0.0350000188
v 0.40000093 -0.20389615 0.0338000208
v 0.400000632 0.223796591 0.0338069573
v 0.398800641 0.223796561 0.035006959
v -0.39879939 0.223796561 0.035006959
v -0.39999938 0.223796591 0.0338069573
v -0.399999082 -0.20389615 0.0338000208
v -0.398799092 -0.203896165 0.0350000188
v -0.398799092 -0.205095649 0.00120000122
v 0.398800939 -0.205095649 0.00120000006
v 0.398800939 -0.205096155 0.0337999985
v -0.398799092 -0.205096155 0.0338000022
v 0.398800641 0.224997103 0.00120697648
v -0.39879939 0.224997103 0.00120697648
v -0.39879939 0.224996597 0.0338069759
v 0.398800641 0.224996597 0.0338069759
v -0.39879939 0.223797113 6.95792369e-06
v -0.39879939 0.224997103 0.00120697648
v 0.398800641 0.224997103 0.00120697648
v 0.398800641 0.223797113 6.95791414e-06
v 0.398800939 -0.203895628 1.85987403e-08
v 0.398800939 -0.205095649 0.00120000006
v -0.398799092 -0.205095649 0.00120000122
v -0.398799092 -0.203895628 1.86085121e-08
v -0.398799092 -0.203896165 0.0350000188
v -0.398799092 -0.205096155 0.0338000022
v 0.398800939 -0.205096155 0.0337999985
v 0.398800939 -0.203896165 0.0350000188
v 0.398800641 0.223796561 0.035006959
v 0.398800641 0.224996597 0.0338069759
v -0.39879939 0.224996597 0.0338069759
v -0.39879939 0.223796561 0.035006959
v -0.398799092 -0.203895628 1.86085121e-08
v -0.39879939 0.223797113 6.95792369e-06
v 0.398800641 0.223797113 6.95791414e-06
v 0.398800939 -0.203895628 1.85987403e-08
v -0.398799092 -0.203896165 0.0350000188
v 0.398800939 -0.203896165 0.0350000188
v 0.398800641 0.223796561 0.035006959
v -0.39879939 0.223796561 0.035006959
f 1 2 3
f 3 4 1
f 5 6 7
f 7 8 5
f 9 10 11
f 11 12 9
f 13 14 15
f 15 16 13
f 17 18 19
f 19 20 17
f 21 22 23
f 23 24 21
f 25 26 27
f 28 29 30
f 31 32 33
f 34 35 36
f 37 38 39
f 40 41 42
f 43 44 45
f 46 47 48
f 49 50 51
f 51 52 49
f 53 54 55
f 55 56 53
f 57 58 59
f 59 60 57
f 61 62 63
f 63 64 61
f 65 66 67
f 67 68 65
f 69 70 71
f 71 72 69
f 73 74 75
f 75 76 73
f 77 78 79
f 79 80 77
f 81 82 83
f 83 84 81
f 85 86 87
f 87 88 85
f 89 90 91
f 91 92 89
f 93 94 95
f 95 96 93
