v 0.306746483 0.213426664 0.230472401
v 0.308448195 0.213765159 0.230472401
v 0.309506357 0.211210504 0.226174369
v 0.311846077 0.21277386 0.226174369
v 0.306746453 0.21066153 0.226174384
v 0.309890836 0.214729115 0.230472401
v 0.30504477 0.213765159 0.230472416
v 0.313409418 0.21511358 0.226174369
v 0.303986549 0.211210504 0.226174399
v 0.310854793 0.216171771 0.230472401
v 0.303602099 0.2147291 0.230472416
v 0.313958406 0.217873469 0.226174369
v 0.301646829 0.21277386 0.226174399
v 0.311193258 0.217873484 0.230472401
v 0.302638173 0.216171741 0.230472416
v 0.313409418 0.220633373 0.226174369
v 0.300083488 0.21511358 0.226174399
v 0.310854763 0.219575197 0.230472401
v 0.302299678 0.217873454 0.230472416
v 0.311846077 0.222973093 0.226174369
v 0.2995345 0.217873469 0.226174414
v 0.309890836 0.221017838 0.230472401
v 0.302638143 0.219575182 0.230472416
v 0.309506357 0.224536449 0.226174384
v 0.300083488 0.220633358 0.226174414
v 0.308448166 0.221981779 0.230472401
v 0.303602099 0.221017823 0.230472416
v 0.306746453 0.225085422 0.226174399
v 0.301646829 0.222973093 0.226174399
v 0.306746453 0.222320274 0.230472416
v 0.30504474 0.221981779 0.230472416
v 0.303986549 0.224536449 0.226174399
v 0.306747198 0.209841356 0.481584936
v 0.30982092 0.210452735 0.481584936
v 0.308448851 0.213765025 0.45706895
v 0.309891522 0.214728966 0.45706895
v 0.306747139 0.213426545 0.45706895
v 0.312426686 0.212193832 0.481584936
v 0.303673506 0.210452765 0.481584966
v 0.310855478 0.216171592 0.45706895
v 0.305045426 0.213765055 0.45706898
v 0.314167798 0.214799583 0.481584936
v 0.30106774 0.212193906 0.481584966
v 0.311193973 0.21787332 0.45706895
v 0.303602785 0.214729011 0.45706898
v 0.314779222 0.217873275 0.481584936
v 0.299326658 0.214799672 0.481584966
v 0.310855478 0.219575033 0.45706895
v 0.302638859 0.216171652 0.45706898
v 0.314167857 0.220946983 0.481584936
v 0.298715264 0.21787338 0.481584966
v 0.309891552 0.221017689 0.45706895
v 0.302300364 0.21787338 0.45706898
v 0.312426746 0.223552763 0.481584936
v 0.299326688 0.220947087 0.481584966
v 0.308448911 0.221981645 0.45706895
v 0.302638888 0.219575092 0.45706898
v 0.30982101 0.22529389 0.481584936
v 0.301067829 0.223552838 0.481584966
v 0.306747198 0.222320139 0.45706898
v 0.303602844 0.221017733 0.45706898
v 0.306747288 0.225905314 0.481584966
v 0.303673595 0.225293934 0.481584966
v 0.305045485 0.22198166 0.45706898
v 0.306747377 0.209841311 0.546989322
v 0.309821099 0.210452691 0.546989262
v 0.30982092 0.210452735 0.481584936
v 0.312426686 0.212193832 0.481584936
v 0.306747198 0.209841356 0.481584936
v 0.312426865 0.212193787 0.546989262
v 0.303673685 0.210452735 0.546989322
v 0.314167798 0.214799583 0.481584936
v 0.303673506 0.210452765 0.481584966
v 0.314168006 0.214799538 0.546989262
v 0.301067948 0.212193877 0.546989322
v 0.314779222 0.217873275 0.481584936
v 0.30106774 0.212193906 0.481584966
v 0.314779431 0.217873231 0.546989262
v 0.299326837 0.214799643 0.546989322
v 0.314167857 0.220946983 0.481584936
v 0.299326658 0.214799672 0.481584966
v 0.314168066 0.220946938 0.546989262
v 0.298715472 0.21787335 0.546989322
v 0.312426746 0.223552763 0.481584936
v 0.298715264 0.21787338 0.481584966
v 0.312426955 0.223552719 0.546989262
v 0.299326897 0.220947057 0.546989322
v 0.30982101 0.22529389 0.481584936
v 0.299326688 0.220947087 0.481584966
v 0.309821218 0.22529386 0.546989322
v 0.301068038 0.223552808 0.546989322
v 0.306747288 0.225905314 0.481584966
v 0.301067829 0.223552838 0.481584966
v 0.306747526 0.225905269 0.546989322
v 0.303673804 0.225293905 0.546989322
v 0.303673595 0.225293934 0.481584966
v 0.306747139 0.213426545 0.45706895
v 0.308448851 0.213765025 0.45706895
v 0.308448195 0.213765159 0.230472401
v 0.309890836 0.214729115 0.230472401
v 0.306746483 0.213426664 0.230472401
v 0.309891522 0.214728966 0.45706895
v 0.305045426 0.213765055 0.45706898
v 0.310854793 0.216171771 0.230472401
v 0.30504477 0.213765159 0.230472416
v 0.310855478 0.216171592 0.45706895
v 0.303602785 0.214729011 0.45706898
v 0.311193258 0.217873484 0.230472401
v 0.303602099 0.2147291 0.230472416
v 0.311193973 0.21787332 0.45706895
v 0.302638859 0.216171652 0.45706898
v 0.310854763 0.219575197 0.230472401
v 0.302638173 0.216171741 0.230472416
v 0.310855478 0.219575033 0.45706895
v 0.302300364 0.21787338 0.45706898
v 0.309890836 0.221017838 0.230472401
v 0.302299678 0.217873454 0.230472416
v 0.309891552 0.221017689 0.45706895
v 0.302638888 0.219575092 0.45706898
v 0.308448166 0.221981779 0.230472401
v 0.302638143 0.219575182 0.230472416
v 0.308448911 0.221981645 0.45706895
v 0.303602844 0.221017733 0.45706898
v 0.306746453 0.222320274 0.230472416
v 0.303602099 0.221017823 0.230472416
v 0.306747198 0.222320139 0.45706898
v 0.305045485 0.22198166 0.45706898
v 0.30504474 0.221981779 0.230472416
v 0.306746453 0.21066153 0.226174384
v 0.309506357 0.211210504 0.226174369
v 0.309506267 0.211210519 0.203118667
v 0.311846018 0.212773874 0.203118667
v 0.306746393 0.210661545 0.203118682
v 0.311846077 0.21277386 0.226174369
v 0.303986549 0.211210504 0.226174399
v 0.313409358 0.215113595 0.203118667
v 0.30398649 0.211210519 0.203118682
v 0.313409418 0.21511358 0.226174369
v 0.301646829 0.21277386 0.226174399
v 0.313958347 0.217873484 0.203118667
v 0.301646769 0.212773874 0.203118697
v 0.313958406 0.217873469 0.226174369
v 0.300083488 0.21511358 0.226174399
v 0.313409358 0.220633373 0.203118667
v 0.300083429 0.215113595 0.203118697
v 0.313409418 0.220633373 0.226174369
v 0.2995345 0.217873469 0.226174414
v 0.311846018 0.222973108 0.203118667
v 0.29953444 0.217873484 0.203118697
v 0.311846077 0.222973093 0.226174369
v 0.300083488 0.220633358 0.226174414
v 0.309506267 0.224536464 0.203118682
v 0.300083429 0.220633373 0.203118697
v 0.309506357 0.224536449 0.226174384
v 0.301646829 0.222973093 0.226174399
v 0.306746393 0.225085437 0.203118682
v 0.301646769 0.222973108 0.203118697
v 0.306746453 0.225085422 0.226174399
v 0.303986549 0.224536449 0.226174399
v 0.30398649 0.224536464 0.203118697
v 0.306747437 0.217838198 0.546989322
v 0.309821099 0.210452691 0.546989262
v 0.306747377 0.209841311 0.546989322
v 0.312426865 0.212193787 0.546989262
v 0.303673685 0.210452735 0.546989322
v 0.314168006 0.214799538 0.546989262
v 0.301067948 0.212193877 0.546989322
v 0.314779431 0.217873231 0.546989262
v 0.299326837 0.214799643 0.546989322
v 0.314168066 0.220946938 0.546989262
v 0.298715472 0.21787335 0.546989322
v 0.312426955 0.223552719 0.546989262
v 0.299326897 0.220947057 0.546989322
v 0.309821218 0.22529386 0.546989322
v 0.301068038 0.223552808 0.546989322
v 0.306747526 0.225905269 0.546989322
v 0.303673804 0.225293905 0.546989322
f 1 2 3
f 4 3 2
f 3 5 1
f 2 6 4
f 7 1 5
f 8 4 6
f 5 9 7
f 6 10 8
f 11 7 9
f 12 8 10
f 9 13 11
f 10 14 12
f 15 11 13
f 16 12 14
f 13 17 15
f 14 18 16
f 19 15 17
f 20 16 18
f 17 21 19
f 18 22 20
f 23 19 21
f 24 20 22
f 21 25 23
f 22 26 24
f 27 23 25
f 28 24 26
f 25 29 27
f 26 30 28
f 31 27 29
f 32 28 30
f 30 31 32
f 29 32 31
f 33 34 35
f 36 35 34
f 35 37 33
f 34 38 36
f 39 33 37
f 40 36 38
f 37 41 39
f 38 42 40
f 43 39 41
f 44 40 42
f 41 45 43
f 42 46 44
f 47 43 45
f 48 44 46
f 45 49 47
f 46 50 48
f 51 47 49
f 52 48 50
f 49 53 51
f 50 54 52
f 55 51 53
f 56 52 54
f 53 57 55
f 54 58 56
f 59 55 57
f 60 56 58
f 57 61 59
f 58 62 60
f 63 59 61
f 64 60 62
f 62 63 64
f 61 64 63
f 65 66 67
f 68 67 66
f 67 69 65
f 66 70 68
f 71 65 69
f 72 68 70
f 69 73 71
f 70 74 72
f 75 71 73
f 76 72 74
f 73 77 75
f 74 78 76
f 79 75 77
f 80 76 78
f 77 81 79
f 78 82 80
f 83 79 81
f 84 80 82
f 81 85 83
f 82 86 84
f 87 83 85
f 88 84 86
f 85 89 87
f 86 90 88
f 91 87 89
f 92 88 90
f 89 93 91
f 90 94 92
f 95 91 93
f 96 92 94
f 94 95 96
f 93 96 95
f 97 98 99
f 100 99 98
f 99 101 97
f 98 102 100
f 103 97 101
f 104 100 102
f 101 105 103
f 102 106 104
f 107 103 105
f 108 104 106
f 105 109 107
f 106 110 108
f 111 107 109
f 112 108 110
f 109 113 111
f 110 114 112
f 115 111 113
f 116 112 114
f 113 117 115
f 114 118 116
f 119 115 117
f 120 116 118
f 117 121 119
f 118 122 120
f 123 119 121
f 124 120 122
f 121 125 123
f 122 126 124
f 127 123 125
f 128 124 126
f 126 127 128
f 125 128 127
f 129 130 131
f 132 131 130
f 131 133 129
f 130 134 132
f 135 129 133
f 136 132 134
f 133 137 135
f 134 138 136
f 139 135 137
f 140 136 138
f 137 141 139
f 138 142 140
f 143 139 141
f 144 140 142
f 141 145 143
f 142 146 144
f 147 143 145
f 148 144 146
f 145 149 147
f 146 150 148
f 151 147 149
f 152 148 150
f 149 153 151
f 150 154 152
f 155 151 153
f 156 152 154
f 153 157 155
f 154 158 156
f 159 155 157
f 160 156 158
f 158 159 160
f 157 160 159
f 161 162 163
f 161 164 162
f 161 163 165
f 161 166 164
f 161 165 167
f 161 168 166
f 161 167 169
f 161 170 168
f 161 169 171
f 161 172 170
f 161 171 173
f 161 174 172
f 161 173 175
f 161 176 174
f 161 175 177
f 161 177 176
