v 0.262022823 -0.338706046 0.482561499
v 0.262022883 0.0312939174 0.482561499
v -0.00136953592 0.0312939622 0.482561499
v -0.00136965339 -0.338705987 0.482561499
v -0.0433353633 0.0263495669 0.482561499
v -0.0818743408 0.0122956363 0.482561499
v -0.115882158 -0.00969893951 0.482561499
v -0.144254789 -0.0384652913 0.482561499
v -0.165888026 -0.0728344992 0.482561499
v -0.17967771 -0.111637712 0.482561499
v -0.184519604 -0.153705969 0.482561499
v -0.179677695 -0.195774257 0.482561499
v -0.165888086 -0.234577477 0.482561499
v -0.144254833 -0.268946737 0.482561499
v -0.0433354415 -0.333761662 0.482561499
v -0.0818743557 -0.319707662 0.482561499
v -0.115882203 -0.297713101 0.482561499
v -0.00136953592 0.0312939622 0.482561499
v 0.262022883 0.0312939174 0.482561499
v 0.262022883 0.0312939174 0.452561498
v -0.00136953592 0.0312939622 0.452561498
v -0.0433353633 0.0263495669 0.482561499
v -0.0433353633 0.0263495669 0.452561498
v -0.0818743408 0.0122956363 0.482561499
v -0.0818743408 0.0122956363 0.452561498
v -0.115882158 -0.00969893951 0.482561499
v -0.115882158 -0.00969893951 0.452561498
v -0.144254789 -0.0384652913 0.482561499
v -0.144254789 -0.0384652913 0.452561498
v -0.165888026 -0.0728344992 0.482561499
v -0.165888026 -0.0728344992 0.452561498
v -0.17967771 -0.111637712 0.482561499
v -0.17967771 -0.111637712 0.452561498
v -0.184519604 -0.153705969 0.482561499
v -0.184519604 -0.153705969 0.452561498
v -0.179677695 -0.195774257 0.482561499
v -0.179677695 -0.195774257 0.452561498
v -0.165888086 -0.234577477 0.482561499
v -0.165888086 -0.234577477 0.452561498
v -0.144254833 -0.268946737 0.482561499
v -0.144254833 -0.268946737 0.452561498
v -0.115882203 -0.297713101 0.482561499
v -0.115882203 -0.297713101 0.452561498
v -0.0818743557 -0.319707662 0.482561499
v -0.0818743557 -0.319707662 0.452561498
v -0.0433354415 -0.333761662 0.482561499
v -0.0433354415 -0.333761662 0.452561498
v -0.00136965339 -0.338705987 0.482561499
v -0.00136965339 -0.338705987 0.452561498
v 0.262022823 -0.338706046 0.482561499
v 0.262022823 -0.338706046 0.452561498
v 0.258469373 0.287866592 0.196125209
v 0.256773233 0.287302196 0.196127281
v 0.256782413 0.287284166 0.198107168
v 0.256782413 0.287284166 0.198107168
v 0.258472562 0.287851274 0.198109627
v 0.258469373 0.287866592 0.196125209
v 0.261013508 0.288094819 0.196120709
v 0.258469373 0.287866592 0.196125209
v 0.258472562 0.287851274 0.198109627
v 0.258472562 0.287851274 0.198109627
v 0.261013776 0.288088709 0.198114589
v 0.261013508 0.288094819 0.196120709
v 0.256773233 0.287302196 0.196127281
v 0.255649239 0.286499739 0.196128249
v 0.255665094 0.286483884 0.198106006
v 0.255665094 0.286483884 0.198106006
v 0.256782413 0.287284166 0.198107168
v 0.256773233 0.287302196 0.196127281
v 0.261013776 0.288088709 0.198114589
v 0.357559472 0.287970394 0.198058456
v 0.357642233 0.288053125 0.196156621
v 0.357642233 0.288053125 0.196156621
v 0.261013508 0.288094819 0.196120709
v 0.261013776 0.288088709 0.198114589
v 0.255649239 0.286499739 0.196128249
v 0.254846781 0.285375744 0.196127281
v 0.254864812 0.285366565 0.198107168
v 0.254864812 0.285366565 0.198107168
v 0.255665094 0.286483884 0.198106006
v 0.255649239 0.286499739 0.196128249
v 0.36086899 0.141279936 0.192293346
v 0.36086902 0.291279942 0.192293346
v 0.36086902 0.291279942 0.198329821
v 0.36086899 0.141279936 0.198329821
v 0.357642204 0.144506723 0.196156621
v 0.357642233 0.288053125 0.196156621
v 0.357559472 0.287970394 0.198058456
v 0.357559443 0.144589484 0.198058456
v 0.255649209 0.146060154 0.196128249
v 0.256773204 0.145257697 0.196127281
v 0.256782413 0.145275742 0.198107183
v 0.256782413 0.145275742 0.198107183
v 0.255665064 0.146076009 0.198106006
v 0.255649209 0.146060154 0.196128249
v 0.310483128 0.222485662 0.0945628658
v 0.311408997 0.228598744 0.0958156586
v 0.314116836 0.226952076 0.0958156586
v 0.316280007 0.224635899 0.0958156586
v 0.312312663 0.219893828 0.0945628658
v 0.306772709 0.217924923 0.0941422135
v 0.317738026 0.221822008 0.0958156586
v 0.318382829 0.21871908 0.0958156586
v 0.318166554 0.215557247 0.0958156586
v 0.311992943 0.215220004 0.0945628658
v 0.256773204 0.145257697 0.196127281
v 0.258469343 0.144693285 0.196125209
v 0.258472562 0.144708604 0.198109627
v 0.258472562 0.144708604 0.198109627
v 0.256782413 0.145275742 0.198107183
v 0.256773204 0.145257697 0.196127281
v 0.301969379 0.221315473 0.0945628658
v 0.29726541 0.224635914 0.0958156586
v 0.299428582 0.226952091 0.0958156586
v 0.304430336 0.223317593 0.0945628658
v 0.302136421 0.228598759 0.0958156586
v 0.30518809 0.229453802 0.0958156586
v 0.307573289 0.223749578 0.0945628658
v 0.308357298 0.229453787 0.0958156586
v 0.261013776 0.144471169 0.198114589
v 0.258472562 0.144708604 0.198109627
v 0.258469343 0.144693285 0.196125209
v 0.258469343 0.144693285 0.196125209
v 0.261013478 0.144465059 0.196120709
v 0.261013776 0.144471169 0.198114589
v 0.317105263 0.212571025 0.0958156586
v 0.315277636 0.209981874 0.0958156586
v 0.312819242 0.207981825 0.0958156586
v 0.308358938 0.212263525 0.0945628658
v 0.309912384 0.206719205 0.0958156586
v 0.306772709 0.206287667 0.0958156586
v 0.30518645 0.212263525 0.0945628658
v 0.303633004 0.206719205 0.0958156586
v 0.30247581 0.213911906 0.0945628658
v 0.300726146 0.207981825 0.0958156586
v 0.261013478 0.144465059 0.196120709
v 0.357642204 0.144506723 0.196156621
v 0.357559443 0.144589484 0.198058456
v 0.254846752 0.147184148 0.196127281
v 0.255649209 0.146060154 0.196128249
v 0.255665064 0.146076009 0.198106006
v 0.255665064 0.146076009 0.198106006
v 0.254864782 0.147193342 0.198107168
v 0.254846752 0.147184148 0.196127281
v 0.357559443 0.144589484 0.198058456
v 0.261013776 0.144471169 0.198114589
v 0.261013478 0.144465059 0.196120709
v 0.254846781 0.285375744 0.196127281
v 0.254282385 0.283679605 0.196125209
v 0.254297674 0.283676416 0.198109627
v 0.254297674 0.283676416 0.198109627
v 0.254864812 0.285366565 0.198107168
v 0.254846781 0.285375744 0.196127281
v 0.34568426 0.231754079 0.194180667
v 0.340510249 0.241739467 0.194180667
v 0.340869188 0.241992831 0.19558613
v 0.346098244 0.231901214 0.19558613
v 0.340513408 0.241741702 0.135431543
v 0.332836509 0.249961644 0.135431543
v 0.347972393 0.220743045 0.194180667
v 0.348410696 0.220773026 0.19558613
v 0.345687896 0.231755376 0.135431543
v 0.347204894 0.209523007 0.194180667
v 0.347635061 0.209433615 0.19558613
v 0.347976238 0.220743313 0.135431543
v 0.343438745 0.198926106 0.194180667
v 0.343828827 0.198723972 0.19558613
v 0.347208679 0.209522218 0.135431543
v 0.336953163 0.189738125 0.194180757
v 0.337274104 0.189438105 0.19558613
v 0.328225672 0.182637617 0.19424817
v 0.343442172 0.198924318 0.135431543
v 0.336956084 0.189735606 0.135431543
v 0.290320367 0.255802035 0.194180667
v 0.280711353 0.249958679 0.194180667
v 0.280434072 0.250299484 0.19558613
v 0.280708909 0.249961674 0.135431543
v 0.290145338 0.256205022 0.19558613
v 0.301149607 0.25883624 0.194180667
v 0.301089764 0.259271502 0.19558613
v 0.290318847 0.255805582 0.135431543
v 0.312395841 0.25883624 0.194180667
v 0.312455684 0.259271473 0.19558613
v 0.30114907 0.258840054 0.135431543
v 0.323225081 0.255802035 0.194180667
v 0.32340011 0.256204993 0.19558613
v 0.312396377 0.258840054 0.135431543
v 0.332834095 0.249958649 0.194180667
v 0.333111346 0.250299454 0.19558613
v 0.323226601 0.255805582 0.135431543
v 0.254282355 0.148880288 0.196125209
v 0.254846752 0.147184148 0.196127281
v 0.254864782 0.147193342 0.198107168
v 0.254864782 0.147193342 0.198107168
v 0.254297674 0.148883492 0.198109627
v 0.254282355 0.148880288 0.196125209
v 0.255806327 0.146217272 0.198329821
v 0.255043954 0.147284582 0.198329821
v 0.251980126 0.145724386 0.198329821
v 0.251146764 0.148224398 0.198329821
v 0.253369004 0.143779948 0.198329821
v 0.254497081 0.1489252 0.198329821
v 0.256873637 0.145454913 0.198329821
v 0.250869006 0.151279941 0.198329821
v 0.255313456 0.142391056 0.198329821
v 0.254269004 0.151434168 0.198329821
v 0.257813454 0.141557723 0.198329821
v 0.254269034 0.281125724 0.198329821
v 0.258514255 0.144908041 0.198329821
v 0.250869036 0.281279951 0.198329821
v 0.261023223 0.144679949 0.198329821
v 0.254497111 0.283634692 0.198329821
v 0.260868996 0.141279936 0.198329821
v 0.251146793 0.284335494 0.198329821
v 0.357468992 0.144679934 0.198329821
v 0.255043983 0.28527531 0.198329821
v 0.36086899 0.141279936 0.198329821
v 0.251980126 0.286835492 0.198329821
v 0.36086902 0.291279942 0.198329821
v 0.255806357 0.286342621 0.198329821
v 0.357469022 0.287879944 0.198329821
v 0.253369033 0.288779944 0.198329821
v 0.260869026 0.291279942 0.198329821
v 0.256873667 0.287104994 0.198329821
v 0.261023253 0.287879944 0.198329821
v 0.255313456 0.290168852 0.198329821
v 0.257813483 0.291002184 0.198329821
v 0.258514285 0.287651867 0.198329821
v 0.254060268 0.281135172 0.198114589
v 0.254297674 0.283676416 0.198109627
v 0.254282385 0.283679605 0.196125209
v 0.254282385 0.283679605 0.196125209
v 0.254054129 0.28113547 0.196120709
v 0.254060268 0.281135172 0.198114589
v 0.347402751 0.232364833 0.196329817
v 0.345904738 0.231832445 0.195804819
v 0.348205835 0.220759019 0.195804819
v 0.349791914 0.220867515 0.196329817
v 0.357469022 0.287879944 0.196329817
v 0.347433984 0.209475398 0.195804819
v 0.34899056 0.209151939 0.196329817
v 0.343646497 0.198818445 0.195804819
v 0.357468992 0.144679934 0.196329817
v 0.345058084 0.198087037 0.196329817
v 0.337124258 0.189578533 0.195804819
v 0.338286161 0.188493401 0.196329817
v 0.328320891 0.182516679 0.195802733
v 0.329085171 0.181102782 0.196329817
v 0.317977339 0.177935034 0.195804819
v 0.261023223 0.144679949 0.196329817
v 0.318406254 0.176404178 0.196329817
v 0.306772679 0.176394984 0.195804819
v 0.306772679 0.174805179 0.196329817
v 0.295568019 0.177935049 0.195804819
v 0.295139104 0.176404193 0.196329817
v 0.285194367 0.182440966 0.195804819
v 0.284368336 0.181082591 0.196329817
v 0.2764211 0.189578563 0.195804819
v 0.275259227 0.188493431 0.196329817
v 0.269898862 0.198818475 0.195804819
v 0.268487304 0.198087066 0.196329817
v 0.266245872 0.209411353 0.195804819
v 0.264795572 0.208941847 0.196329817
v 0.254269034 0.281125724 0.196329817
v 0.258514255 0.144908041 0.196329817
v 0.256873637 0.145454913 0.196329817
v 0.255806327 0.146217272 0.196329817
v 0.255043954 0.147284582 0.196329817
v 0.254269004 0.151434168 0.196329817
v 0.254497081 0.1489252 0.196329817
v 0.328231424 0.182637557 0.135431543
v 0.317915261 0.178156629 0.135431543
v 0.343069136 0.199117616 0.129564881
v 0.346797317 0.209607705 0.129564881
v 0.347557068 0.220714644 0.129564881
v 0.33664903 0.190022379 0.129564881
v 0.328013092 0.182996541 0.129564881
v 0.317801893 0.178561196 0.129564881
v 0.306772679 0.176625118 0.135431543
v 0.345292002 0.231614679 0.129564881
v 0.306772679 0.177045271 0.129564881
v 0.295630097 0.178156629 0.135431543
v 0.340170145 0.241499409 0.129564881
v 0.295743465 0.178561196 0.129564881
v 0.285313964 0.182637587 0.135431543
v 0.332571387 0.249635726 0.129564881
v 0.285532266 0.182996571 0.129564881
v 0.276589304 0.189735636 0.135431543
v 0.323059231 0.255420208 0.129564881
v 0.276896358 0.190022409 0.129564881
v 0.270103186 0.198924348 0.135431543
v 0.312339157 0.258423835 0.129564881
v 0.270476252 0.199117646 0.129564881
v 0.266336709 0.209522262 0.135431543
v 0.301206291 0.258423835 0.129564881
v 0.266748071 0.209607735 0.129564881
v 0.26556918 0.220743343 0.135431543
v 0.290486217 0.255420208 0.129564881
v 0.26598835 0.220714673 0.129564881
v 0.267857522 0.231755406 0.135431543
v 0.28097406 0.249635756 0.129564881
v 0.268253386 0.231614709 0.129564881
v 0.27303201 0.241741732 0.135431543
v 0.273375273 0.241499439 0.129564881
v 0.267237872 0.2206292 0.123807162
v 0.269433528 0.231195286 0.123807162
v 0.274398476 0.240777165 0.123807162
v 0.281764477 0.248664215 0.123807162
v 0.267974317 0.20986256 0.123807162
v 0.290985197 0.254271448 0.123807162
v 0.271588266 0.199693859 0.123807162
v 0.30137682 0.257183045 0.123807162
v 0.277811706 0.190877274 0.123807162
v 0.312168628 0.257183045 0.123807162
v 0.286183 0.184066683 0.123807162
v 0.322560251 0.254271448 0.123807162
v 0.296081364 0.179767206 0.123807162
v 0.33178097 0.248664185 0.123807162
v 0.306772679 0.178297713 0.123807162
v 0.339146942 0.240777135 0.123807162
v 0.317463994 0.179767206 0.123807162
v 0.34411186 0.231195256 0.123807162
v 0.327362359 0.184066668 0.123807162
v 0.346307516 0.220629171 0.123807162
v 0.335733682 0.190877244 0.123807162
v 0.345571071 0.20986253 0.123807162
v 0.341957092 0.199693829 0.123807162
v 0.344253242 0.220488653 0.118286282
v 0.343555033 0.210281461 0.118286282
v 0.340128869 0.20064114 0.118286282
v 0.334228814 0.192282677 0.118286282
v 0.342171669 0.230505705 0.118286282
v 0.326292485 0.185825989 0.118286282
v 0.33746472 0.239589706 0.118286282
v 0.316908449 0.181749925 0.118286282
v 0.330481499 0.24706693 0.118286282
v 0.306772679 0.180356801 0.118286282
v 0.321739882 0.252382815 0.118286282
v 0.296636909 0.18174994 0.118286282
v 0.311888248 0.255143136 0.118286282
v 0.287252873 0.185826004 0.118286282
v 0.3016572 0.255143136 0.118286282
v 0.279316545 0.192282706 0.118286282
v 0.291805536 0.252382845 0.118286282
v 0.273416519 0.20064117 0.118286282
v 0.283063918 0.24706696 0.118286282
v 0.269990355 0.210281491 0.118286282
v 0.276080698 0.239589736 0.118286282
v 0.269292176 0.220488682 0.118286282
v 0.271373749 0.230505735 0.118286282
v 0.272755086 0.210856006 0.113114595
v 0.272109389 0.220295981 0.113114595
v 0.2740345 0.229560107 0.113114595
v 0.278387666 0.237961292 0.113114595
v 0.275923729 0.201940298 0.113114595
v 0.284846008 0.244876489 0.113114595
v 0.281380296 0.194210112 0.113114595
v 0.292930543 0.249792799 0.113114595
v 0.288720101 0.188238725 0.113114595
v 0.302041709 0.252345622 0.113114595
v 0.297398776 0.184469029 0.113114595
v 0.311503738 0.252345622 0.113114595
v 0.306772679 0.183180615 0.113114595
v 0.320614874 0.249792784 0.113114595
v 0.316146582 0.184469029 0.113114595
v 0.32869944 0.244876474 0.113114595
v 0.324825287 0.18823871 0.113114595
v 0.335157752 0.237961277 0.113114595
v 0.332165092 0.194210082 0.113114595
v 0.339510918 0.229560077 0.113114595
v 0.337621659 0.201940283 0.113114595
v 0.341435999 0.220295951 0.113114595
v 0.340790302 0.210855976 0.113114595
v 0.336183727 0.228377596 0.108397387
v 0.337913185 0.220054984 0.108397387
v 0.337333083 0.211574391 0.108397387
v 0.334486485 0.203564793 0.108397387
v 0.332272977 0.235924974 0.108397387
v 0.32958445 0.196620226 0.108397387
v 0.326471001 0.242137387 0.108397387
v 0.322990596 0.191255718 0.108397387
v 0.319208115 0.246554062 0.108397387
v 0.315193921 0.187869146 0.108397387
v 0.311022907 0.24884744 0.108397387
v 0.306772679 0.186711684 0.108397387
v 0.30252251 0.248847455 0.108397387
v 0.298351437 0.187869161 0.108397387
v 0.294337332 0.246554077 0.108397387
v 0.290554762 0.191255733 0.108397387
v 0.287074417 0.242137402 0.108397387
v 0.283960909 0.196620241 0.108397387
v 0.281272411 0.235925004 0.108397387
v 0.279058903 0.203564823 0.108397387
v 0.277361691 0.228377625 0.108397387
v 0.276212305 0.21157442 0.108397387
v 0.275632232 0.220055014 0.108397387
v 0.282758236 0.205481648 0.10423068
v 0.280291587 0.212422103 0.10423068
v 0.279788941 0.219770685 0.10423068
v 0.281287551 0.226982355 0.10423068
v 0.287005901 0.199464053 0.10423068
v 0.284676284 0.233522296 0.10423068
v 0.292719603 0.194815621 0.10423068
v 0.289703816 0.238905445 0.10423068
v 0.299475521 0.19188109 0.10423068
v 0.295997232 0.24273257 0.10423068
v 0.306772709 0.190878123 0.10423068
v 0.303089827 0.244719818 0.10423068
v 0.314069837 0.19188109 0.10423068
v 0.31045559 0.244719803 0.10423068
v 0.320825785 0.194815606 0.10423068
v 0.317548186 0.242732555 0.10423068
v 0.326539487 0.199464038 0.10423068
v 0.323841631 0.23890543 0.10423068
v 0.330787152 0.205481634 0.10423068
v 0.328869134 0.233522281 0.10423068
v 0.333253801 0.212422088 0.10423068
v 0.332257837 0.22698234 0.10423068
v 0.333756447 0.219770655 0.10423068
v 0.325015455 0.230802059 0.100699283
v 0.327813178 0.225402698 0.100699283
v 0.329050422 0.21944876 0.100699283
v 0.328635424 0.213381797 0.100699283
v 0.320864767 0.235246375 0.100699283
v 0.326598972 0.207651779 0.100699283
v 0.315668911 0.238406032 0.100699283
v 0.323092103 0.202683672 0.100699283
v 0.309813291 0.24004671 0.100699283
v 0.318374902 0.198845938 0.100699283
v 0.303732127 0.240046725 0.100699283
v 0.312797189 0.196423203 0.100699283
v 0.297876507 0.238406047 0.100699283
v 0.306772709 0.195595145 0.100699283
v 0.292680651 0.23524639 0.100699283
v 0.300748169 0.196423203 0.100699283
v 0.288529962 0.230802074 0.100699283
v 0.295170486 0.198845938 0.100699283
v 0.285732239 0.225402728 0.100699283
v 0.290453285 0.202683687 0.100699283
v 0.284494996 0.219448775 0.100699283
v 0.286946416 0.207651794 0.100699283
v 0.284909964 0.213381812 0.100699283
v 0.294232875 0.206213564 0.0978751183
v 0.291538209 0.210031062 0.0978751183
v 0.289973408 0.214433998 0.0978751183
v 0.289654523 0.219095856 0.0978751183
v 0.297857583 0.203264654 0.0978751183
v 0.290605217 0.223670855 0.0978751183
v 0.302143455 0.201403022 0.0978751183
v 0.292755008 0.227819711 0.0978751183
v 0.306772709 0.200766757 0.0978751183
v 0.295944393 0.231234714 0.0978751183
v 0.311401904 0.201403022 0.0978751183
v 0.299936861 0.233662605 0.0978751183
v 0.315687805 0.203264639 0.0978751183
v 0.304436326 0.234923288 0.0978751183
v 0.319312513 0.206213564 0.0978751183
v 0.309109092 0.234923288 0.0978751183
v 0.322007179 0.210031047 0.0978751183
v 0.313608527 0.23366259 0.0978751183
v 0.32357198 0.214433983 0.0978751183
v 0.317601025 0.231234714 0.0978751183
v 0.323890865 0.219095841 0.0978751183
v 0.32079041 0.227819696 0.0978751183
v 0.322940171 0.22367084 0.0978751183
v 0.295807362 0.221822008 0.0958156586
v 0.295162559 0.21871908 0.0958156586
v 0.295378834 0.215557262 0.0958156586
v 0.298267752 0.209981874 0.0958156586
v 0.296440154 0.21257104 0.0958156586
v 0.301016241 0.216728717 0.0945628658
v 0.263753474 0.220867544 0.196329817
v 0.265339583 0.220759049 0.195804819
v 0.26764068 0.231832474 0.195804819
v 0.266142666 0.232364863 0.196329817
v 0.272844017 0.241874442 0.195804819
v 0.271545172 0.24279125 0.196329817
v 0.280563682 0.25014019 0.195804819
v 0.279560357 0.25137341 0.196329817
v 0.290227145 0.256016672 0.195804819
v 0.289593786 0.25747484 0.196329817
v 0.301117718 0.259068042 0.195804819
v 0.254497111 0.283634692 0.196329817
v 0.255043983 0.28527531 0.196329817
v 0.255806357 0.286342621 0.196329817
v 0.256873667 0.287104994 0.196329817
v 0.258514285 0.287651867 0.196329817
v 0.261023253 0.287879944 0.196329817
v 0.300901264 0.260643035 0.196329817
v 0.3124277 0.259068042 0.195804819
v 0.312644184 0.260643035 0.196329817
v 0.323318303 0.256016642 0.195804819
v 0.323951662 0.25747484 0.196329817
v 0.332981765 0.25014016 0.195804819
v 0.33398506 0.25137338 0.196329817
v 0.340701401 0.241874412 0.195804819
v 0.342000246 0.242791221 0.196329817
v 0.254054129 0.151424423 0.196120709
v 0.254282355 0.148880288 0.196125209
v 0.254297674 0.148883492 0.198109627
v 0.254297674 0.148883492 0.198109627
v 0.254060239 0.151424691 0.198114589
v 0.254054129 0.151424423 0.196120709
v 0.254054129 0.28113547 0.196120709
v 0.254054129 0.151424423 0.196120709
v 0.254060239 0.151424691 0.198114589
v 0.254060268 0.281135172 0.198114589
v 0.266338736 0.209524065 0.19419083
v 0.270106614 0.198926136 0.194180667
v 0.269716293 0.19872427 0.195586219
v 0.266035914 0.209368259 0.195594907
v 0.265572876 0.220742315 0.194181189
v 0.265134811 0.22077167 0.195585951
v 0.267861158 0.231754109 0.194180667
v 0.267447174 0.231901243 0.19558613
v 0.273035169 0.241739497 0.194180667
v 0.272676229 0.241992861 0.19558613
v 0.279089034 0.248225912 0.19418177
v 0.278766751 0.248526931 0.195592701
v 0.317914695 0.178160429 0.194180995
v 0.32842952 0.182338104 0.195587546
v 0.318033338 0.177737668 0.195585936
v 0.306772679 0.176628977 0.194180667
v 0.306772679 0.176189631 0.19558613
v 0.29563114 0.178160354 0.194180667
v 0.295512617 0.177737311 0.19558613
v 0.285315961 0.18264088 0.194180667
v 0.285087675 0.182265505 0.19558613
v 0.276592106 0.189738274 0.194180667
v 0.276271015 0.189438403 0.19558613
v 0.251146793 0.284335494 0.192293346
v 0.250869036 0.281279951 0.192293346
v 0.250869036 0.281279951 0.198329821
v 0.250869006 0.151279941 0.192293346
v 0.251146793 0.284335494 0.198329821
v 0.250869006 0.151279941 0.198329821
v 0.251980126 0.286835492 0.192293346
v 0.251146764 0.148224398 0.192293346
v 0.251980126 0.286835492 0.198329821
v 0.251146764 0.148224398 0.198329821
v 0.253369033 0.288779944 0.192293346
v 0.251980126 0.145724386 0.192293346
v 0.253369033 0.288779944 0.198329821
v 0.251980126 0.145724386 0.198329821
v 0.255313456 0.290168852 0.192293346
v 0.253369004 0.143779948 0.192293346
v 0.255313456 0.290168852 0.198329821
v 0.253369004 0.143779948 0.198329821
v 0.257813483 0.291002184 0.192293346
v 0.255313456 0.142391056 0.192293346
v 0.257813483 0.291002184 0.198329821
v 0.255313456 0.142391056 0.198329821
v 0.260869026 0.291279942 0.192293346
v 0.257813454 0.141557723 0.192293346
v 0.260869026 0.291279942 0.198329821
v 0.36086902 0.291279942 0.192293346
v 0.36086902 0.291279942 0.198329821
v 0.257813454 0.141557723 0.198329821
v 0.260868996 0.141279936 0.192293346
v 0.260868996 0.141279936 0.198329821
v 0.36086899 0.141279936 0.192293346
v 0.36086899 0.141279936 0.198329821
v 0.251168698 0.151293546 0.192293346
v 0.251440436 0.284274071 0.192293346
v 0.25108391 0.281270206 0.198120713
v 0.251361549 0.284290582 0.198125213
v 0.251083881 0.151289687 0.198120698
v 0.252247483 0.286699384 0.192293346
v 0.251440436 0.148285821 0.192293346
v 0.252177358 0.286735088 0.198127285
v 0.251361519 0.148269311 0.198125213
v 0.253581166 0.288567811 0.192293346
v 0.252247453 0.145860523 0.192293346
v 0.253526121 0.288622826 0.198128253
v 0.252177328 0.14582482 0.198127285
v 0.255449593 0.289901495 0.192293346
v 0.253581136 0.143992081 0.192293346
v 0.25541389 0.28997162 0.198127285
v 0.253526121 0.143937051 0.198128238
v 0.257874906 0.290708512 0.192293346
v 0.255449593 0.142658398 0.192293346
v 0.257858396 0.290787429 0.198125213
v 0.25541389 0.142588273 0.198127285
v 0.260882616 0.29098025 0.192293346
v 0.257874876 0.141851366 0.192293346
v 0.260878772 0.291065067 0.198120713
v 0.360656887 0.291067809 0.192293346
v 0.360695839 0.291106731 0.19815661
v 0.257858366 0.141772464 0.198125213
v 0.260882586 0.141579628 0.192293346
v 0.260878742 0.141494825 0.198120698
v 0.360656857 0.141492069 0.192293346
v 0.360695779 0.141453132 0.19815661
v 0.317834347 0.178445309 0.194229826
v 0.317834347 0.178445309 0.135442227
v 0.306772679 0.176924929 0.135442227
v 0.328071952 0.182891414 0.194292352
v 0.328320891 0.182516679 0.195802733
v 0.317977339 0.177935034 0.195804819
v 0.337124258 0.189578533 0.195804819
v 0.306772679 0.176924929 0.194229826
v 0.306772679 0.176394984 0.195804819
v 0.295711011 0.178445324 0.194229826
v 0.295568019 0.177935049 0.195804819
v 0.295711011 0.178445324 0.135442227
v 0.285469741 0.182893753 0.194229826
v 0.285194367 0.182440966 0.195804819
v 0.285469741 0.182893753 0.135442227
v 0.276808411 0.189940274 0.194229826
v 0.2764211 0.189578563 0.195804819
v 0.276808411 0.189940274 0.135442227
v 0.270369381 0.199062288 0.194229826
v 0.269898862 0.198818475 0.195804819
v 0.270369381 0.199062288 0.135442227
v 0.266630262 0.209583253 0.194229826
v 0.266245872 0.209411353 0.195804819
v 0.266630262 0.209583253 0.135442227
v 0.265868276 0.220722884 0.194229826
v 0.265339583 0.220759049 0.195804819
v 0.265868276 0.220722884 0.135442227
v 0.268140018 0.231655002 0.194229826
v 0.26764068 0.231832474 0.195804819
v 0.268140018 0.231655002 0.135442227
v 0.273276955 0.241568834 0.194229826
v 0.272844017 0.241874442 0.195804819
v 0.273276955 0.241568834 0.135442227
v 0.279305458 0.248023793 0.194229826
v 0.280898124 0.249729097 0.194229826
v 0.280563682 0.25014019 0.195804819
v 0.280898124 0.249729097 0.135442227
v 0.290438265 0.255530596 0.194229826
v 0.290227145 0.256016672 0.195804819
v 0.301189899 0.258543044 0.194229826
v 0.301117718 0.259068042 0.195804819
v 0.290438265 0.255530596 0.135442227
v 0.312355548 0.258543044 0.194229826
v 0.3124277 0.259068042 0.195804819
v 0.301189899 0.258543044 0.135442227
v 0.323107153 0.255530566 0.194229826
v 0.323318303 0.256016642 0.195804819
v 0.312355548 0.258543044 0.135442227
v 0.332647324 0.249729082 0.194229826
v 0.332981765 0.25014016 0.195804819
v 0.323107153 0.255530566 0.135442227
v 0.340268463 0.241568804 0.194229826
v 0.340701401 0.241874412 0.195804819
v 0.332647324 0.249729082 0.135442227
v 0.3454054 0.231654972 0.194229826
v 0.345904738 0.231832445 0.195804819
v 0.340268463 0.241568804 0.135442227
v 0.347677112 0.220722854 0.194229826
v 0.348205835 0.220759019 0.195804819
v 0.3454054 0.231654972 0.135442227
v 0.346915156 0.209583223 0.194229826
v 0.347433984 0.209475398 0.195804819
v 0.347677112 0.220722854 0.135442227
v 0.343175977 0.199062258 0.194229826
v 0.343646497 0.198818445 0.195804819
v 0.346915156 0.209583223 0.135442227
v 0.336736977 0.189940244 0.194229826
v 0.343175977 0.199062258 0.135442227
v 0.336736977 0.189940244 0.135442227
v 0.328075647 0.182893723 0.135442227
v 0.342805445 0.199254245 0.12960732
v 0.346506536 0.20966813 0.12960732
v 0.33643198 0.19022508 0.12960732
v 0.345289081 0.209921122 0.123891182
v 0.327858806 0.183250293 0.12960732
v 0.341701388 0.19982633 0.123891182
v 0.335523218 0.19107382 0.123891182
v 0.306746364 0.225722685 0.195250168
v 0.306746393 0.225085437 0.203118682
v 0.30398649 0.224536464 0.203118697
v 0.311701 0.229835093 0.190250158
v 0.310481697 0.226891413 0.192125157
v 0.306746364 0.227634415 0.192125171
v 0.306746364 0.230820641 0.190250173
v 0.303742617 0.225125208 0.195250183
v 0.301646769 0.222973108 0.203118697
v 0.303011 0.226891413 0.192125186
v 0.301791698 0.229835108 0.190250158
v 0.301196158 0.223423705 0.195250183
v 0.300083429 0.220633373 0.203118697
v 0.299844325 0.224775508 0.192125186
v 0.297591329 0.227028504 0.190250173
v 0.299494654 0.220877245 0.195250183
v 0.29953444 0.217873484 0.203118697
v 0.297728419 0.221608832 0.192125186
v 0.294784755 0.222828135 0.190250188
v 0.298897177 0.217873484 0.195250183
v 0.300083429 0.215113595 0.203118697
v 0.296985418 0.217873484 0.192125186
v 0.293799192 0.217873484 0.190250188
v 0.299494654 0.214869738 0.195250183
v 0.301646769 0.212773874 0.203118697
v 0.297728449 0.21413815 0.192125186
v 0.294784755 0.212918833 0.190250173
v 0.301196158 0.212323278 0.195250183
v 0.30398649 0.211210519 0.203118682
v 0.299844354 0.210971475 0.192125186
v 0.297591329 0.208718479 0.190250188
v 0.303011 0.208855569 0.192125171
v 0.303742617 0.210621789 0.195250168
v 0.306746393 0.210661545 0.203118682
v 0.306746364 0.210024297 0.195250154
v 0.306746364 0.208112568 0.192125157
v 0.309506267 0.211210519 0.203118667
v 0.30975011 0.210621774 0.195250154
v 0.310481697 0.208855569 0.192125142
v 0.311846018 0.212773874 0.203118667
v 0.312296569 0.212323278 0.195250139
v 0.262022883 0.0312939174 0.482561499
v 0.262022823 -0.338706046 0.482561499
v 0.262022823 -0.338706046 0.452561498
v 0.262022883 0.0312939174 0.452561498
v 0.317721754 0.178847164 0.12960732
v 0.327212721 0.184312731 0.123891182
v 0.306772679 0.177342251 0.12960732
v 0.317386299 0.180044517 0.123891182
v 0.295823574 0.178847179 0.12960732
v 0.306772679 0.178585708 0.123891182
v 0.285686553 0.183250323 0.12960732
v 0.296159059 0.180044532 0.123891182
v 0.277113408 0.190225109 0.12960732
v 0.286332637 0.184312761 0.123891182
v 0.270739943 0.199254274 0.12960732
v 0.27802217 0.19107385 0.123891182
v 0.267038852 0.209668159 0.12960732
v 0.27184397 0.19982636 0.123891182
v 0.266284645 0.220694408 0.12960732
v 0.268256307 0.209921151 0.123891182
v 0.26853323 0.231515259 0.12960732
v 0.267525196 0.220609546 0.123891182
v 0.273617893 0.241328165 0.12960732
v 0.269704908 0.231098846 0.123891182
v 0.281161487 0.249405384 0.12960732
v 0.274633765 0.240611091 0.123891182
v 0.290604532 0.255147815 0.12960732
v 0.281946212 0.248440817 0.123891182
v 0.301246703 0.258129627 0.12960732
v 0.291099936 0.25400731 0.123891182
v 0.312298715 0.258129597 0.12960732
v 0.301416039 0.256897718 0.123891182
v 0.322940886 0.255147815 0.12960732
v 0.312129408 0.256897718 0.123891182
v 0.33238396 0.249405354 0.12960732
v 0.322445512 0.25400728 0.123891182
v 0.339927524 0.24132815 0.12960732
v 0.331599206 0.248440787 0.123891182
v 0.345012188 0.231515229 0.12960732
v 0.338911653 0.240611061 0.123891182
v 0.347260773 0.220694378 0.12960732
v 0.34384051 0.231098816 0.123891182
v 0.346020192 0.220609516 0.123891182
v 0.33724153 0.239432156 0.118410207
v 0.341914237 0.230414212 0.118410207
v 0.34398067 0.220470011 0.118410207
v 0.334951133 0.237815425 0.113275945
v 0.343287557 0.210337043 0.118410207
v 0.339272588 0.229475379 0.113275945
v 0.341183692 0.220278695 0.113275945
v 0.339886308 0.200766832 0.118410207
v 0.340542674 0.210907429 0.113275945
v 0.334029168 0.192469165 0.118410207
v 0.337397099 0.202056631 0.113275945
v 0.326150537 0.18605943 0.118410207
v 0.331980258 0.194382712 0.113275945
v 0.316834748 0.182013005 0.118410207
v 0.324693859 0.188454807 0.113275945
v 0.306772679 0.180630013 0.118410207
v 0.316078365 0.184712559 0.113275945
v 0.29671061 0.18201302 0.118410207
v 0.306772679 0.183433533 0.113275945
v 0.287394822 0.186059445 0.118410207
v 0.297466993 0.184712574 0.113275945
v 0.27951622 0.19246918 0.118410207
v 0.2888515 0.188454822 0.113275945
v 0.27365908 0.200766861 0.118410207
v 0.28156513 0.194382727 0.113275945
v 0.270257831 0.210337073 0.118410207
v 0.276148289 0.202056661 0.113275945
v 0.269564718 0.220470041 0.118410207
v 0.273002714 0.210907459 0.113275945
v 0.271631181 0.230414256 0.118410207
v 0.272361726 0.220278725 0.113275945
v 0.276303887 0.239432186 0.118410207
v 0.274272799 0.229475409 0.113275945
v 0.283236355 0.246855021 0.118410207
v 0.278594285 0.23781544 0.113275945
v 0.291914374 0.252132237 0.118410207
v 0.285005599 0.2446803 0.113275945
v 0.301694393 0.254872471 0.118410207
v 0.293031305 0.249560833 0.113275945
v 0.311851054 0.254872471 0.118410207
v 0.302076131 0.252095073 0.113275945
v 0.321631044 0.252132237 0.118410207
v 0.311469287 0.252095073 0.113275945
v 0.330309093 0.246854991 0.118410207
v 0.320514113 0.249560818 0.113275945
v 0.328539819 0.244680285 0.113275945
v 0.310991943 0.248622045 0.108592927
v 0.319117457 0.246345386 0.108592927
v 0.326327443 0.241960898 0.108592927
v 0.254269004 0.151434168 0.198329821
v 0.254269004 0.151434168 0.196329817
v 0.254269034 0.281125724 0.196329817
v 0.254269034 0.281125724 0.198329821
v 0.306746334 0.200465634 0.189625159
v 0.313408047 0.20179072 0.189625159
v 0.321377546 0.182550639 0.189625144
v 0.333781242 0.190838546 0.189625144
v 0.306746364 0.179640323 0.189625144
v 0.319055557 0.205564275 0.189625144
v 0.342069149 0.203242242 0.189625144
v 0.300084651 0.20179072 0.189625159
v 0.292115182 0.182550654 0.189625144
v 0.322829098 0.211211771 0.189625144
v 0.344979465 0.217873439 0.189625144
v 0.315901369 0.208718464 0.190250143
v 0.324154198 0.217873484 0.189625144
v 0.342069149 0.232504621 0.189625144
v 0.318707943 0.212918818 0.190250143
v 0.319693506 0.217873484 0.190250143
v 0.322829127 0.224535167 0.189625144
v 0.333781272 0.244908348 0.189625144
v 0.318707973 0.222828135 0.190250143
v 0.319055587 0.230182707 0.189625159
v 0.321377546 0.253196239 0.189625159
v 0.315901369 0.227028504 0.190250143
v 0.313408047 0.233956262 0.189625159
v 0.306746364 0.256106555 0.189625159
v 0.306746364 0.235281348 0.189625174
v 0.292115182 0.253196239 0.189625174
v 0.300084651 0.233956262 0.189625174
v 0.279711455 0.244908363 0.189625189
v 0.29443714 0.230182707 0.189625189
v 0.271423548 0.232504621 0.189625174
v 0.29066357 0.224535182 0.189625174
v 0.268513232 0.217873439 0.189625174
v 0.289338499 0.217873484 0.189625174
v 0.271423548 0.203242272 0.189625189
v 0.2906636 0.211211786 0.189625189
v 0.279711455 0.190838546 0.189625189
v 0.29443714 0.205564275 0.189625174
v 0.301791698 0.20591189 0.190250173
v 0.306746364 0.204926342 0.190250158
v 0.311701 0.20591189 0.190250143
v 0.313648373 0.210971475 0.192125142
v 0.315764278 0.214138135 0.192125142
v 0.31650728 0.217873484 0.192125142
v 0.313998073 0.214869738 0.195250139
v 0.31459555 0.217873484 0.195250139
v 0.315764278 0.221608832 0.192125142
v 0.313998073 0.220877245 0.195250139
v 0.313958347 0.217873484 0.203118667
v 0.313409358 0.220633373 0.203118667
v 0.313409358 0.215113595 0.203118667
v 0.311846018 0.222973108 0.203118667
v 0.312296569 0.223423705 0.195250154
v 0.309506267 0.224536464 0.203118682
v 0.313648373 0.224775508 0.192125142
v 0.30975011 0.225125208 0.195250154
v 0.250869036 0.281279951 0.192293346
v 0.251146793 0.284335494 0.192293346
v 0.251440436 0.284274071 0.192293346
v 0.252247483 0.286699384 0.192293346
v 0.251980126 0.286835492 0.192293346
v 0.250869006 0.151279941 0.192293346
v 0.253581166 0.288567811 0.192293346
v 0.251168698 0.151293546 0.192293346
v 0.253369033 0.288779944 0.192293346
v 0.251146764 0.148224398 0.192293346
v 0.255449593 0.289901495 0.192293346
v 0.251440436 0.148285821 0.192293346
v 0.255313456 0.290168852 0.192293346
v 0.251980126 0.145724386 0.192293346
v 0.257874906 0.290708512 0.192293346
v 0.252247453 0.145860523 0.192293346
v 0.257813483 0.291002184 0.192293346
v 0.253369004 0.143779948 0.192293346
v 0.260882616 0.29098025 0.192293346
v 0.253581136 0.143992081 0.192293346
v 0.260869026 0.291279942 0.192293346
v 0.255313456 0.142391056 0.192293346
v 0.360656887 0.291067809 0.192293346
v 0.255449593 0.142658398 0.192293346
v 0.36086902 0.291279942 0.192293346
v 0.257813454 0.141557723 0.192293346
v 0.360656857 0.141492069 0.192293346
v 0.257874876 0.141851366 0.192293346
v 0.36086899 0.141279936 0.192293346
v 0.260868996 0.141279936 0.192293346
v 0.260882586 0.141579628 0.192293346
v 0.254497081 0.1489252 0.198329821
v 0.254497081 0.1489252 0.196329817
v 0.254269004 0.151434168 0.196329817
v 0.254269004 0.151434168 0.198329821
v 0.357559472 0.287970394 0.198058456
v 0.260878772 0.291065067 0.198120713
v 0.360695839 0.291106731 0.19815661
v 0.26371026 0.220870122 0.196032971
v 0.264750689 0.208932206 0.196033359
v 0.254054129 0.28113547 0.196120709
v 0.265134811 0.22077167 0.195585951
v 0.267447174 0.231901243 0.19558613
v 0.266035914 0.209368259 0.195594907
v 0.266101599 0.232379466 0.196033001
v 0.272676229 0.241992861 0.19558613
v 0.271509558 0.242816389 0.196033001
v 0.278766751 0.248526931 0.195592701
v 0.27953285 0.251407236 0.196033001
v 0.280434072 0.250299484 0.19558613
v 0.290145338 0.256205022 0.19558613
v 0.289576411 0.257514834 0.196033001
v 0.301089764 0.259271502 0.19558613
v 0.254282385 0.283679605 0.196125209
v 0.254846781 0.285375744 0.196127281
v 0.255649239 0.286499739 0.196128249
v 0.256773233 0.287302196 0.196127281
v 0.258469373 0.287866592 0.196125209
v 0.261013508 0.288094819 0.196120709
v 0.357642233 0.288053125 0.196156621
v 0.300895303 0.260686219 0.196033001
v 0.312455684 0.259271473 0.19558613
v 0.312650114 0.260686219 0.196033001
v 0.32340011 0.256204993 0.19558613
v 0.323969036 0.257514805 0.196033001
v 0.333111346 0.250299454 0.19558613
v 0.334012568 0.251407206 0.196033001
v 0.357559443 0.144589484 0.198058456
v 0.357559472 0.287970394 0.198058456
v 0.360695839 0.291106731 0.19815661
v 0.360695779 0.141453132 0.19815661
v 0.340869188 0.241992831 0.19558613
v 0.34203586 0.242816359 0.196033001
v 0.346098244 0.231901214 0.19558613
v 0.347443819 0.232379436 0.196033001
v 0.348410696 0.220773026 0.19558613
v 0.349835396 0.22087048 0.196033001
v 0.347635061 0.209433615 0.19558613
v 0.349033207 0.209143072 0.196033001
v 0.343828827 0.198723972 0.19558613
v 0.357642204 0.144506723 0.196156621
v 0.345096767 0.19806698 0.196033001
v 0.337274104 0.189438105 0.19558613
v 0.338317841 0.188463628 0.196032986
v 0.32842952 0.182338104 0.195587546
v 0.329107672 0.1810655 0.196033001
v 0.318033338 0.177737668 0.195585936
v 0.261013478 0.144465059 0.196120709
v 0.318418086 0.176362306 0.196033001
v 0.306772679 0.176189631 0.19558613
v 0.306772679 0.174761593 0.196033001
v 0.295512617 0.177737311 0.19558613
v 0.295127332 0.176362216 0.196033001
v 0.285087675 0.182265505 0.19558613
v 0.284345686 0.181045353 0.196033001
v 0.276271015 0.189438403 0.19558613
v 0.275227368 0.188463688 0.196033001
v 0.269716293 0.19872427 0.195586219
v 0.268448651 0.198067248 0.196032986
v 0.258469343 0.144693285 0.196125209
v 0.256773204 0.145257697 0.196127281
v 0.255649209 0.146060154 0.196128249
v 0.254846752 0.147184148 0.196127281
v 0.254054129 0.151424423 0.196120709
v 0.254282355 0.148880288 0.196125209
v 0.357559443 0.144589484 0.198058456
v 0.360695779 0.141453132 0.19815661
v 0.260878742 0.141494825 0.198120698
v 0.256782413 0.287284166 0.198107168
v 0.255665094 0.286483884 0.198106006
v 0.253526121 0.288622826 0.198128253
v 0.258472562 0.287851274 0.198109627
v 0.256782413 0.287284166 0.198107168
v 0.25541389 0.28997162 0.198127285
v 0.254269034 0.281125724 0.198329821
v 0.254269034 0.281125724 0.196329817
v 0.254497111 0.283634692 0.196329817
v 0.254497111 0.283634692 0.198329821
v 0.252177328 0.14582482 0.198127285
v 0.254864782 0.147193342 0.198107168
v 0.255665064 0.146076009 0.198106006
v 0.255665064 0.146076009 0.198106006
v 0.253526121 0.143937051 0.198128238
v 0.252177328 0.14582482 0.198127285
v 0.253526121 0.143937051 0.198128238
v 0.255665064 0.146076009 0.198106006
v 0.256782413 0.145275742 0.198107183
v 0.256782413 0.145275742 0.198107183
v 0.25541389 0.142588273 0.198127285
v 0.253526121 0.143937051 0.198128238
v 0.256782413 0.145275742 0.198107183
v 0.258472562 0.144708604 0.198109627
v 0.257858366 0.141772464 0.198125213
v 0.257858366 0.141772464 0.198125213
v 0.25541389 0.142588273 0.198127285
v 0.256782413 0.145275742 0.198107183
v 0.257858366 0.141772464 0.198125213
v 0.258472562 0.144708604 0.198109627
v 0.261013776 0.144471169 0.198114589
v 0.254864782 0.147193342 0.198107168
v 0.252177328 0.14582482 0.198127285
v 0.251361519 0.148269311 0.198125213
v 0.254297674 0.148883492 0.198109627
v 0.251361519 0.148269311 0.198125213
v 0.251083881 0.151289687 0.198120698
v 0.254297674 0.283676416 0.198109627
v 0.25108391 0.281270206 0.198120713
v 0.251361549 0.284290582 0.198125213
v 0.254864812 0.285366565 0.198107168
v 0.251361549 0.284290582 0.198125213
v 0.252177358 0.286735088 0.198127285
v 0.255665094 0.286483884 0.198106006
v 0.254864812 0.285366565 0.198107168
v 0.252177358 0.286735088 0.198127285
v 0.255665094 0.286483884 0.198106006
v 0.252177358 0.286735088 0.198127285
v 0.253526121 0.288622826 0.198128253
v 0.256782413 0.287284166 0.198107168
v 0.253526121 0.288622826 0.198128253
v 0.25541389 0.28997162 0.198127285
v 0.258472562 0.287851274 0.198109627
v 0.25541389 0.28997162 0.198127285
v 0.257858396 0.290787429 0.198125213
v 0.261013776 0.288088709 0.198114589
v 0.258472562 0.287851274 0.198109627
v 0.257858396 0.290787429 0.198125213
v 0.261013776 0.144471169 0.198114589
v 0.260878742 0.141494825 0.198120698
v 0.257858366 0.141772464 0.198125213
v 0.260878742 0.141494825 0.198120698
v 0.261013776 0.144471169 0.198114589
v 0.357559443 0.144589484 0.198058456
v 0.254297674 0.148883492 0.198109627
v 0.254864782 0.147193342 0.198107168
v 0.251361519 0.148269311 0.198125213
v 0.254060239 0.151424691 0.198114589
v 0.254297674 0.148883492 0.198109627
v 0.251083881 0.151289687 0.198120698
v 0.254060268 0.281135172 0.198114589
v 0.254060239 0.151424691 0.198114589
v 0.251083881 0.151289687 0.198120698
v 0.25108391 0.281270206 0.198120713
v 0.254864812 0.285366565 0.198107168
v 0.254297674 0.283676416 0.198109627
v 0.251361549 0.284290582 0.198125213
v 0.261013776 0.288088709 0.198114589
v 0.257858396 0.290787429 0.198125213
v 0.260878772 0.291065067 0.198120713
v 0.357559472 0.287970394 0.198058456
v 0.261013776 0.288088709 0.198114589
v 0.260878772 0.291065067 0.198120713
v 0.254297674 0.283676416 0.198109627
v 0.254060268 0.281135172 0.198114589
v 0.25108391 0.281270206 0.198120713
v 0.255043954 0.147284582 0.198329821
v 0.255043954 0.147284582 0.196329817
v 0.254497081 0.1489252 0.196329817
v 0.254497081 0.1489252 0.198329821
v 0.310428679 0.244524136 0.104456484
v 0.3320871 0.235793784 0.108592927
v 0.317469507 0.242551386 0.104456484
v 0.323716968 0.238752216 0.104456484
v 0.335969359 0.228301406 0.108592927
v 0.328707755 0.233408377 0.104456484
v 0.337686211 0.220039457 0.108592927
v 0.332071751 0.226916194 0.104456484
v 0.337110341 0.211620688 0.108592927
v 0.333559394 0.219757184 0.104456484
v 0.334284484 0.203669474 0.108592927
v 0.333060414 0.212462276 0.104456484
v 0.329418182 0.196775511 0.108592927
v 0.330611795 0.205572501 0.104456484
v 0.32287237 0.191450104 0.108592927
v 0.326395124 0.199598849 0.104456484
v 0.315132558 0.188088223 0.108592927
v 0.320723146 0.194984362 0.104456484
v 0.306772709 0.186939195 0.108592927
v 0.314016551 0.192071274 0.104456484
v 0.29841283 0.188088238 0.108592927
v 0.306772709 0.191075638 0.104456484
v 0.290672988 0.191450119 0.108592927
v 0.299528837 0.192071289 0.104456484
v 0.284127206 0.196775526 0.108592927
v 0.292822212 0.194984376 0.104456484
v 0.279260904 0.203669488 0.108592927
v 0.287150264 0.199598864 0.104456484
v 0.276435047 0.211620703 0.108592927
v 0.282933593 0.205572516 0.104456484
v 0.275859207 0.220039487 0.108592927
v 0.280484974 0.212462291 0.104456484
v 0.277576059 0.228301436 0.108592927
v 0.279985994 0.219757199 0.104456484
v 0.281458288 0.235793799 0.108592927
v 0.281473666 0.226916224 0.104456484
v 0.287218004 0.241960913 0.108592927
v 0.284837633 0.233408391 0.104456484
v 0.294427961 0.246345401 0.108592927
v 0.289828449 0.238752231 0.104456484
v 0.302553505 0.24862206 0.108592927
v 0.29607594 0.242551401 0.104456484
v 0.303116739 0.244524136 0.104456484
v 0.292783856 0.235119566 0.100950815
v 0.297941655 0.238256082 0.100950815
v 0.303754419 0.239884749 0.100950815
v 0.296023995 0.231136858 0.0981472954
v 0.309791028 0.239884734 0.100950815
v 0.299987137 0.233546883 0.0981472954
v 0.304453522 0.234798297 0.0981472954
v 0.315603763 0.238256082 0.100950815
v 0.309091896 0.234798297 0.0981472954
v 0.320761561 0.235119551 0.100950815
v 0.31355828 0.233546883 0.0981472954
v 0.324881881 0.230707765 0.100950815
v 0.317521393 0.231136844 0.0981472954
v 0.3276591 0.225347951 0.100950815
v 0.320687354 0.227746949 0.0981472954
v 0.328887284 0.219437599 0.100950815
v 0.322821319 0.223628595 0.0981472954
v 0.328475356 0.213415056 0.100950815
v 0.32376501 0.219087228 0.0981472954
v 0.326453805 0.207727 0.100950815
v 0.323448479 0.214459658 0.0981472954
v 0.322972596 0.202795267 0.100950815
v 0.321895182 0.210089087 0.0981472954
v 0.318289936 0.198985621 0.100950815
v 0.319220304 0.206299663 0.0981472954
v 0.312753081 0.196580634 0.100950815
v 0.31562227 0.203372434 0.0981472954
v 0.306772709 0.195758656 0.100950815
v 0.311367869 0.201524496 0.0981472954
v 0.300792277 0.196580648 0.100950815
v 0.306772709 0.20089291 0.0981472954
v 0.295255452 0.198985636 0.100950815
v 0.302177489 0.201524511 0.0981472954
v 0.290572792 0.202795282 0.100950815
v 0.297923118 0.203372449 0.0981472954
v 0.287091583 0.207727015 0.100950815
v 0.294325083 0.206299677 0.0981472954
v 0.285070062 0.213415071 0.100950815
v 0.291650206 0.210089102 0.0981472954
v 0.284658104 0.219437614 0.100950815
v 0.290096909 0.214459673 0.0981472954
v 0.285886288 0.225347966 0.100950815
v 0.289780378 0.219087243 0.0981472954
v 0.288663536 0.23070778 0.100950815
v 0.290724099 0.22362861 0.0981472954
v 0.292858064 0.227746964 0.0981472954
v 0.295248598 0.218713194 0.0961030051
v 0.295888603 0.22179313 0.0961030051
v 0.297335863 0.224586189 0.0961030051
v 0.300951391 0.218323112 0.0948595405
v 0.299482971 0.2268852 0.0961030051
v 0.302005768 0.221289799 0.0948595405
v 0.302170753 0.228519663 0.0961030051
v 0.304448068 0.223276764 0.0948595405
v 0.306772709 0.217924923 0.0944422185
v 0.309889138 0.206802234 0.0961030051
v 0.306772709 0.206373885 0.0961030051
v 0.308346927 0.212306395 0.0948595405
v 0.30365625 0.206802234 0.0961030051
v 0.303740978 0.212939471 0.0948595405
v 0.300770968 0.208055496 0.0961030051
v 0.298330784 0.210040733 0.0961030051
v 0.301591963 0.215240493 0.0948595405
v 0.296516716 0.212610707 0.0961030051
v 0.295463264 0.215574801 0.0961030051
v 0.254497111 0.283634692 0.198329821
v 0.254497111 0.283634692 0.196329817
v 0.255043983 0.28527531 0.196329817
v 0.255043983 0.28527531 0.198329821
v 0.357468992 0.144679934 0.198329821
v 0.357468992 0.144679934 0.196329817
v 0.261023223 0.144679949 0.196329817
v 0.261023223 0.144679949 0.198329821
v 0.255806327 0.146217272 0.198329821
v 0.255806327 0.146217272 0.196329817
v 0.255043954 0.147284582 0.196329817
v 0.255043954 0.147284582 0.198329821
v 0.261023223 0.144679949 0.198329821
v 0.261023223 0.144679949 0.196329817
v 0.258514255 0.144908041 0.196329817
v 0.258514255 0.144908041 0.198329821
v 0.31829682 0.218713194 0.0961030051
v 0.318082124 0.215574801 0.0961030051
v 0.312593997 0.218323112 0.0948595405
v 0.311953425 0.215240479 0.0948595405
v 0.317028701 0.212610692 0.0961030051
v 0.315214604 0.210040733 0.0961030051
v 0.311037064 0.213942289 0.0948595405
v 0.31277442 0.208055496 0.0961030051
v 0.258514255 0.144908041 0.198329821
v 0.258514255 0.144908041 0.196329817
v 0.256873637 0.145454913 0.196329817
v 0.256873637 0.145454913 0.198329821
v 0.256873637 0.145454913 0.198329821
v 0.256873637 0.145454913 0.196329817
v 0.255806327 0.146217272 0.196329817
v 0.255806327 0.146217272 0.198329821
v 0.305199832 0.229368374 0.0961030051
v 0.307567209 0.223705485 0.0948595405
v 0.308345556 0.229368374 0.0961030051
v 0.311374635 0.228519663 0.0961030051
v 0.310455054 0.222451121 0.0948595405
v 0.314062417 0.226885185 0.0961030051
v 0.316209555 0.224586174 0.0961030051
v 0.317656785 0.22179313 0.0961030051
v 0.357469022 0.287879944 0.198329821
v 0.357469022 0.287879944 0.196329817
v 0.357468992 0.144679934 0.196329817
v 0.357468992 0.144679934 0.198329821
v 0.360695839 0.291106731 0.19815661
v 0.360656887 0.291067809 0.192293346
v 0.360656857 0.141492069 0.192293346
v 0.360695779 0.141453132 0.19815661
v 0.255043983 0.28527531 0.198329821
v 0.255043983 0.28527531 0.196329817
v 0.255806357 0.286342621 0.196329817
v 0.255806357 0.286342621 0.198329821
v 0.261023253 0.287879944 0.198329821
v 0.261023253 0.287879944 0.196329817
v 0.357469022 0.287879944 0.196329817
v 0.357469022 0.287879944 0.198329821
v 0.255806357 0.286342621 0.198329821
v 0.255806357 0.286342621 0.196329817
v 0.256873667 0.287104994 0.196329817
v 0.256873667 0.287104994 0.198329821
v 0.258514285 0.287651867 0.198329821
v 0.258514285 0.287651867 0.196329817
v 0.261023253 0.287879944 0.196329817
v 0.261023253 0.287879944 0.198329821
v 0.256873667 0.287104994 0.198329821
v 0.256873667 0.287104994 0.196329817
v 0.258514285 0.287651867 0.196329817
v 0.258514285 0.287651867 0.198329821
v -0.00136953592 0.0312939622 0.452561498
v 0.262022883 0.0312939174 0.452561498
v 0.262022823 -0.338706046 0.452561498
v -0.00136965339 -0.338705987 0.452561498
v -0.0433353633 0.0263495669 0.452561498
v -0.0818743408 0.0122956363 0.452561498
v -0.115882158 -0.00969893951 0.452561498
v -0.144254789 -0.0384652913 0.452561498
v -0.165888026 -0.0728344992 0.452561498
v -0.17967771 -0.111637712 0.452561498
v -0.184519604 -0.153705969 0.452561498
v -0.179677695 -0.195774257 0.452561498
v -0.165888086 -0.234577477 0.452561498
v -0.144254833 -0.268946737 0.452561498
v -0.0433354415 -0.333761662 0.452561498
v -0.0818743557 -0.319707662 0.452561498
v -0.115882203 -0.297713101 0.452561498
f 1 2 3
f 1 3 4
f 3 5 4
f 5 6 4
f 6 7 4
f 7 8 4
f 8 9 4
f 9 10 4
f 10 11 4
f 11 12 4
f 12 13 4
f 13 14 4
f 14 15 4
f 14 16 15
f 14 17 16
f 18 19 20
f 20 21 18
f 22 18 21
f 21 23 22
f 24 22 23
f 23 25 24
f 26 24 25
f 25 27 26
f 28 26 27
f 27 29 28
f 30 28 29
f 29 31 30
f 32 30 31
f 31 33 32
f 34 32 33
f 33 35 34
f 36 34 35
f 35 37 36
f 38 36 37
f 37 39 38
f 40 38 39
f 39 41 40
f 42 40 41
f 41 43 42
f 44 42 43
f 43 45 44
f 46 44 45
f 45 47 46
f 48 46 47
f 47 49 48
f 50 48 49
f 49 51 50
f 52 53 54
f 55 56 57
f 58 59 60
f 61 62 63
f 64 65 66
f 67 68 69
f 70 71 72
f 73 74 75
f 76 77 78
f 79 80 81
f 82 83 84
f 84 85 82
f 86 87 88
f 88 89 86
f 90 91 92
f 93 94 95
f 96 97 98
f 96 98 99
f 99 100 96
f 96 100 101
f 100 99 102
f 100 102 103
f 100 103 104
f 104 105 100
f 100 105 101
f 106 107 108
f 109 110 111
f 112 113 114
f 114 115 112
f 112 115 101
f 115 114 116
f 115 116 117
f 117 118 115
f 115 118 101
f 118 117 119
f 118 119 97
f 97 96 118
f 118 96 101
f 120 121 122
f 123 124 125
f 105 104 126
f 105 126 127
f 105 127 128
f 128 129 105
f 105 129 101
f 129 128 130
f 129 130 131
f 131 132 129
f 129 132 101
f 132 131 133
f 132 134 101
f 132 133 135
f 135 134 132
f 136 137 138
f 139 140 141
f 142 143 144
f 145 146 147
f 148 149 150
f 151 152 153
f 154 155 156
f 156 157 154
f 155 158 159
f 158 155 154
f 160 154 157
f 157 161 160
f 154 162 158
f 162 154 160
f 163 160 161
f 161 164 163
f 160 165 162
f 165 160 163
f 166 163 164
f 164 167 166
f 163 168 165
f 168 163 166
f 169 166 167
f 167 170 169
f 171 169 170
f 172 166 169
f 166 172 168
f 173 169 171
f 169 173 172
f 174 175 176
f 177 175 174
f 176 178 174
f 179 174 178
f 178 180 179
f 174 181 177
f 181 174 179
f 182 179 180
f 180 183 182
f 179 184 181
f 184 179 182
f 185 182 183
f 183 186 185
f 182 187 184
f 187 182 185
f 188 185 186
f 186 189 188
f 185 190 187
f 190 185 188
f 155 188 189
f 189 156 155
f 188 159 190
f 159 188 155
f 191 192 193
f 194 195 196
f 197 198 199
f 200 199 198
f 199 201 197
f 200 198 202
f 203 197 201
f 204 200 202
f 201 205 203
f 204 202 206
f 203 205 207
f 204 206 208
f 207 209 203
f 210 204 208
f 211 209 207
f 210 208 212
f 207 213 211
f 214 210 212
f 215 211 213
f 214 212 216
f 213 217 215
f 218 214 216
f 219 215 217
f 218 216 220
f 219 221 215
f 222 218 220
f 219 223 221
f 222 220 224
f 223 225 221
f 226 222 224
f 223 227 225
f 226 224 228
f 227 228 225
f 227 226 228
f 229 230 231
f 232 233 234
f 235 236 237
f 237 238 235
f 239 235 238
f 238 237 240
f 239 238 241
f 240 241 238
f 241 240 242
f 243 239 241
f 242 244 241
f 243 241 244
f 244 242 245
f 245 246 244
f 243 244 246
f 246 245 247
f 243 246 248
f 247 248 246
f 248 247 249
f 243 248 250
f 249 251 248
f 248 251 250
f 251 249 252
f 252 253 251
f 251 253 250
f 253 252 254
f 254 255 253
f 253 255 250
f 255 254 256
f 256 257 255
f 255 257 250
f 257 256 258
f 258 259 257
f 257 259 250
f 259 258 260
f 260 261 259
f 259 261 250
f 261 260 262
f 262 263 261
f 261 263 250
f 263 264 250
f 264 265 250
f 264 266 265
f 264 267 266
f 264 268 267
f 264 269 268
f 269 270 268
f 171 271 173
f 272 271 171
f 273 172 173
f 274 168 172
f 172 273 274
f 168 274 275
f 275 165 168
f 276 173 271
f 173 276 273
f 277 271 272
f 271 277 276
f 272 278 277
f 278 272 279
f 165 275 280
f 280 162 165
f 279 281 278
f 281 279 282
f 162 280 283
f 283 158 162
f 282 284 281
f 284 282 285
f 158 283 286
f 286 159 158
f 285 287 284
f 287 285 288
f 159 286 289
f 289 190 159
f 288 290 287
f 290 288 291
f 190 289 292
f 292 187 190
f 291 293 290
f 293 291 294
f 187 292 295
f 295 184 187
f 294 296 293
f 296 294 297
f 184 295 298
f 298 181 184
f 297 299 296
f 299 297 300
f 181 298 301
f 301 177 181
f 300 302 299
f 302 300 303
f 304 303 177
f 303 304 302
f 177 301 304
f 305 299 302
f 306 302 304
f 302 306 305
f 307 304 301
f 304 307 306
f 301 308 307
f 308 301 298
f 299 305 309
f 309 296 299
f 298 310 308
f 310 298 295
f 296 309 311
f 311 293 296
f 295 312 310
f 312 295 292
f 293 311 313
f 313 290 293
f 292 314 312
f 314 292 289
f 290 313 315
f 315 287 290
f 289 316 314
f 316 289 286
f 287 315 317
f 317 284 287
f 286 318 316
f 318 286 283
f 284 317 319
f 319 281 284
f 283 320 318
f 320 283 280
f 281 319 321
f 321 278 281
f 280 322 320
f 322 280 275
f 278 321 323
f 323 277 278
f 275 324 322
f 324 275 274
f 277 323 325
f 325 276 277
f 274 326 324
f 326 274 273
f 327 273 276
f 273 327 326
f 276 325 327
f 328 324 326
f 329 326 327
f 326 329 328
f 330 327 325
f 327 330 329
f 325 331 330
f 331 325 323
f 324 328 332
f 332 322 324
f 323 333 331
f 333 323 321
f 322 332 334
f 334 320 322
f 321 335 333
f 335 321 319
f 320 334 336
f 336 318 320
f 319 337 335
f 337 319 317
f 318 336 338
f 338 316 318
f 317 339 337
f 339 317 315
f 316 338 340
f 340 314 316
f 315 341 339
f 341 315 313
f 314 340 342
f 342 312 314
f 313 343 341
f 343 313 311
f 312 342 344
f 344 310 312
f 311 345 343
f 345 311 309
f 310 344 346
f 346 308 310
f 309 347 345
f 347 309 305
f 308 346 348
f 348 307 308
f 305 349 347
f 349 305 306
f 350 306 307
f 306 350 349
f 307 348 350
f 351 347 349
f 352 349 350
f 349 352 351
f 353 350 348
f 350 353 352
f 348 354 353
f 354 348 346
f 347 351 355
f 355 345 347
f 346 356 354
f 356 346 344
f 345 355 357
f 357 343 345
f 344 358 356
f 358 344 342
f 343 357 359
f 359 341 343
f 342 360 358
f 360 342 340
f 341 359 361
f 361 339 341
f 340 362 360
f 362 340 338
f 339 361 363
f 363 337 339
f 338 364 362
f 364 338 336
f 337 363 365
f 365 335 337
f 336 366 364
f 366 336 334
f 335 365 367
f 367 333 335
f 334 368 366
f 368 334 332
f 333 367 369
f 369 331 333
f 332 370 368
f 370 332 328
f 331 369 371
f 371 330 331
f 328 372 370
f 372 328 329
f 373 329 330
f 329 373 372
f 330 371 373
f 374 370 372
f 375 372 373
f 372 375 374
f 376 373 371
f 373 376 375
f 371 377 376
f 377 371 369
f 370 374 378
f 378 368 370
f 369 379 377
f 379 369 367
f 368 378 380
f 380 366 368
f 367 381 379
f 381 367 365
f 366 380 382
f 382 364 366
f 365 383 381
f 383 365 363
f 364 382 384
f 384 362 364
f 363 385 383
f 385 363 361
f 362 384 386
f 386 360 362
f 361 387 385
f 387 361 359
f 360 386 388
f 388 358 360
f 359 389 387
f 389 359 357
f 358 388 390
f 390 356 358
f 357 391 389
f 391 357 355
f 356 390 392
f 392 354 356
f 355 393 391
f 393 355 351
f 354 392 394
f 394 353 354
f 351 395 393
f 395 351 352
f 396 352 353
f 352 396 395
f 353 394 396
f 397 393 395
f 398 395 396
f 395 398 397
f 399 396 394
f 396 399 398
f 394 400 399
f 400 394 392
f 393 397 401
f 401 391 393
f 392 402 400
f 402 392 390
f 391 401 403
f 403 389 391
f 390 404 402
f 404 390 388
f 389 403 405
f 405 387 389
f 388 406 404
f 406 388 386
f 387 405 407
f 407 385 387
f 386 408 406
f 408 386 384
f 385 407 409
f 409 383 385
f 384 410 408
f 410 384 382
f 383 409 411
f 411 381 383
f 382 412 410
f 412 382 380
f 381 411 413
f 413 379 381
f 380 414 412
f 414 380 378
f 379 413 415
f 415 377 379
f 378 416 414
f 416 378 374
f 377 415 417
f 417 376 377
f 374 418 416
f 418 374 375
f 419 375 376
f 375 419 418
f 376 417 419
f 420 416 418
f 421 418 419
f 418 421 420
f 422 419 417
f 419 422 421
f 417 423 422
f 423 417 415
f 416 420 424
f 424 414 416
f 415 425 423
f 425 415 413
f 414 424 426
f 426 412 414
f 413 427 425
f 427 413 411
f 412 426 428
f 428 410 412
f 411 429 427
f 429 411 409
f 410 428 430
f 430 408 410
f 409 431 429
f 431 409 407
f 408 430 432
f 432 406 408
f 407 433 431
f 433 407 405
f 406 432 434
f 434 404 406
f 405 435 433
f 435 405 403
f 404 434 436
f 436 402 404
f 403 437 435
f 437 403 401
f 402 436 438
f 438 400 402
f 401 439 437
f 439 401 397
f 400 438 440
f 440 399 400
f 397 441 439
f 441 397 398
f 442 398 399
f 398 442 441
f 399 440 442
f 443 439 441
f 444 441 442
f 441 444 443
f 445 442 440
f 442 445 444
f 440 446 445
f 446 440 438
f 439 443 447
f 447 437 439
f 438 448 446
f 448 438 436
f 437 447 449
f 449 435 437
f 436 450 448
f 450 436 434
f 435 449 451
f 451 433 435
f 434 452 450
f 452 434 432
f 433 451 453
f 453 431 433
f 432 454 452
f 454 432 430
f 431 453 455
f 455 429 431
f 430 456 454
f 456 430 428
f 429 455 457
f 457 427 429
f 428 458 456
f 458 428 426
f 427 457 459
f 459 425 427
f 426 460 458
f 460 426 424
f 425 459 461
f 461 423 425
f 424 462 460
f 462 424 420
f 423 461 463
f 463 422 423
f 420 464 462
f 464 420 421
f 465 421 422
f 421 465 464
f 422 463 465
f 98 462 464
f 99 464 465
f 464 99 98
f 102 465 463
f 465 102 99
f 463 103 102
f 103 463 461
f 462 98 97
f 97 460 462
f 461 104 103
f 104 461 459
f 460 97 119
f 119 458 460
f 459 126 104
f 126 459 457
f 458 119 117
f 117 456 458
f 457 127 126
f 127 457 455
f 456 117 116
f 116 454 456
f 455 128 127
f 128 455 453
f 454 116 114
f 114 452 454
f 453 130 128
f 130 453 451
f 452 114 113
f 113 450 452
f 451 131 130
f 131 451 449
f 450 113 466
f 466 448 450
f 449 133 131
f 133 449 447
f 448 466 467
f 467 446 448
f 447 135 133
f 135 447 443
f 446 467 468
f 468 445 446
f 443 469 135
f 469 443 444
f 470 444 445
f 444 470 469
f 445 468 470
f 134 135 469
f 134 469 470
f 471 470 468
f 470 471 134
f 471 468 467
f 134 471 101
f 471 467 466
f 466 112 471
f 471 112 101
f 112 466 113
f 264 263 472
f 473 472 263
f 472 473 474
f 263 262 473
f 474 475 472
f 264 472 475
f 475 474 476
f 476 477 475
f 264 475 477
f 477 476 478
f 478 479 477
f 264 477 479
f 479 478 480
f 480 481 479
f 264 479 481
f 481 480 482
f 483 264 481
f 484 483 481
f 485 484 481
f 486 485 481
f 487 486 481
f 488 487 481
f 239 488 481
f 482 489 481
f 239 481 489
f 489 482 490
f 490 491 489
f 239 489 491
f 491 490 492
f 492 493 491
f 239 491 493
f 493 492 494
f 494 495 493
f 239 493 495
f 495 494 496
f 496 497 495
f 239 495 497
f 497 496 236
f 236 235 497
f 239 497 235
f 498 499 500
f 501 502 503
f 504 505 506
f 506 507 504
f 508 509 510
f 510 511 508
f 294 291 509
f 509 508 294
f 512 508 511
f 511 513 512
f 297 294 508
f 508 512 297
f 514 512 513
f 513 515 514
f 300 297 512
f 512 514 300
f 516 514 515
f 515 517 516
f 303 300 514
f 514 516 303
f 518 516 517
f 303 516 518
f 517 519 518
f 175 518 519
f 519 176 175
f 177 303 518
f 175 177 518
f 279 272 520
f 171 520 272
f 520 171 521
f 521 522 520
f 170 521 171
f 523 520 522
f 520 523 279
f 522 524 523
f 525 523 524
f 524 526 525
f 282 279 523
f 523 525 282
f 527 525 526
f 526 528 527
f 285 282 525
f 525 527 285
f 529 527 528
f 528 530 529
f 288 285 527
f 527 529 288
f 509 529 530
f 530 510 509
f 291 288 529
f 529 509 291
f 531 532 533
f 533 532 534
f 533 535 531
f 534 536 533
f 537 531 535
f 536 534 538
f 535 539 537
f 538 540 536
f 541 537 539
f 540 538 542
f 539 543 541
f 542 544 540
f 545 541 543
f 544 542 546
f 543 547 545
f 546 548 544
f 549 545 547
f 548 546 550
f 547 551 549
f 550 552 548
f 553 549 551
f 552 550 554
f 551 555 553
f 556 553 555
f 555 557 556
f 554 558 552
f 558 554 559
f 559 560 558
f 560 559 561
f 561 562 560
f 563 564 565
f 564 566 565
f 565 567 563
f 566 564 568
f 569 563 567
f 568 570 566
f 567 571 569
f 570 568 572
f 573 569 571
f 572 574 570
f 571 575 573
f 574 572 576
f 577 573 575
f 576 578 574
f 575 579 577
f 578 576 580
f 581 577 579
f 580 582 578
f 579 583 581
f 582 580 584
f 585 581 583
f 584 586 582
f 586 584 587
f 587 588 586
f 583 589 585
f 590 585 589
f 589 591 590
f 592 590 591
f 591 593 592
f 594 595 596
f 595 594 597
f 598 597 594
f 594 599 598
f 597 598 600
f 599 594 601
f 596 601 594
f 601 602 599
f 602 601 603
f 603 604 602
f 601 596 605
f 605 603 601
f 604 603 606
f 606 607 604
f 603 605 608
f 608 606 603
f 607 606 609
f 609 610 607
f 606 608 611
f 611 609 606
f 610 609 612
f 612 613 610
f 609 611 614
f 614 612 609
f 613 612 615
f 615 616 613
f 612 614 617
f 617 615 612
f 616 615 618
f 618 619 616
f 615 617 620
f 620 618 615
f 619 618 621
f 621 622 619
f 618 620 623
f 623 621 618
f 622 621 624
f 624 625 622
f 621 623 626
f 626 624 621
f 625 624 627
f 627 624 626
f 625 627 628
f 628 629 625
f 627 626 630
f 627 630 628
f 629 628 631
f 631 628 630
f 631 632 629
f 632 631 633
f 633 634 632
f 630 635 631
f 633 631 635
f 634 633 636
f 636 637 634
f 635 638 633
f 636 633 638
f 637 636 639
f 639 640 637
f 638 641 636
f 639 636 641
f 640 639 642
f 642 643 640
f 641 644 639
f 642 639 644
f 643 642 645
f 645 646 643
f 644 647 642
f 645 642 647
f 646 645 648
f 648 649 646
f 647 650 645
f 648 645 650
f 649 648 651
f 651 652 649
f 650 653 648
f 651 648 653
f 652 651 654
f 654 655 652
f 653 656 651
f 654 651 656
f 655 654 657
f 657 658 655
f 656 659 654
f 657 654 659
f 658 657 660
f 660 600 658
f 600 660 597
f 660 657 661
f 659 661 657
f 597 660 662
f 661 662 660
f 662 663 597
f 597 663 595
f 662 661 664
f 661 659 665
f 665 664 661
f 664 666 662
f 663 662 666
f 664 665 667
f 595 663 668
f 666 668 663
f 666 664 669
f 667 669 664
f 668 666 670
f 669 670 666
f 671 672 673
f 674 675 676
f 671 676 675
f 676 677 674
f 673 678 671
f 676 671 678
f 678 673 679
f 677 676 680
f 678 680 676
f 680 681 677
f 679 682 678
f 680 678 682
f 682 679 683
f 681 680 684
f 682 684 680
f 684 685 681
f 683 686 682
f 684 682 686
f 686 683 687
f 685 684 688
f 686 688 684
f 688 689 685
f 687 690 686
f 688 686 690
f 690 687 691
f 689 688 692
f 690 692 688
f 692 693 689
f 691 694 690
f 692 690 694
f 694 691 695
f 693 692 696
f 694 696 692
f 696 697 693
f 695 698 694
f 696 694 698
f 698 695 699
f 697 696 700
f 698 700 696
f 700 701 697
f 701 700 702
f 700 698 703
f 699 703 698
f 703 702 700
f 703 699 704
f 702 703 705
f 704 705 703
f 705 706 702
f 705 704 707
f 706 705 708
f 707 708 705
f 708 709 706
f 708 707 710
f 709 708 711
f 710 711 708
f 712 713 714
f 714 715 712
f 668 716 595
f 596 595 716
f 670 717 668
f 716 668 717
f 716 718 596
f 605 596 718
f 717 719 716
f 718 716 719
f 718 720 605
f 608 605 720
f 719 721 718
f 720 718 721
f 720 722 608
f 611 608 722
f 721 723 720
f 722 720 723
f 722 724 611
f 614 611 724
f 723 725 722
f 724 722 725
f 724 726 614
f 617 614 726
f 725 727 724
f 726 724 727
f 726 728 617
f 620 617 728
f 727 729 726
f 728 726 729
f 728 730 620
f 623 620 730
f 729 731 728
f 730 728 731
f 730 732 623
f 626 623 732
f 731 733 730
f 732 730 733
f 732 734 626
f 630 626 734
f 733 735 732
f 734 732 735
f 734 736 630
f 635 630 736
f 735 737 734
f 736 734 737
f 736 738 635
f 638 635 738
f 737 739 736
f 738 736 739
f 738 740 638
f 641 638 740
f 739 741 738
f 740 738 741
f 740 742 641
f 644 641 742
f 741 743 740
f 742 740 743
f 742 744 644
f 647 644 744
f 743 745 742
f 744 742 745
f 744 746 647
f 650 647 746
f 745 747 744
f 746 744 747
f 746 748 650
f 653 650 748
f 747 749 746
f 748 746 749
f 748 750 653
f 656 653 750
f 749 751 748
f 750 748 751
f 750 752 656
f 659 656 752
f 752 665 659
f 752 750 753
f 751 753 750
f 665 752 754
f 753 754 752
f 754 667 665
f 753 751 755
f 754 753 756
f 755 756 753
f 756 757 754
f 667 754 757
f 756 755 758
f 757 759 667
f 669 667 759
f 757 756 760
f 758 760 756
f 759 757 761
f 760 761 757
f 759 762 669
f 670 669 762
f 761 763 759
f 762 759 763
f 762 764 670
f 717 670 764
f 763 765 762
f 764 762 765
f 764 766 717
f 719 717 766
f 765 767 764
f 766 764 767
f 766 768 719
f 721 719 768
f 767 769 766
f 768 766 769
f 768 770 721
f 723 721 770
f 769 771 768
f 770 768 771
f 770 772 723
f 725 723 772
f 771 773 770
f 772 770 773
f 772 774 725
f 727 725 774
f 773 775 772
f 774 772 775
f 774 776 727
f 729 727 776
f 775 777 774
f 776 774 777
f 776 778 729
f 731 729 778
f 777 779 776
f 778 776 779
f 778 780 731
f 733 731 780
f 779 781 778
f 780 778 781
f 780 782 733
f 735 733 782
f 781 783 780
f 782 780 783
f 782 784 735
f 737 735 784
f 783 785 782
f 784 782 785
f 784 786 737
f 739 737 786
f 785 787 784
f 786 784 787
f 786 788 739
f 741 739 788
f 787 789 786
f 788 786 789
f 788 790 741
f 743 741 790
f 789 791 788
f 790 788 791
f 790 792 743
f 745 743 792
f 791 793 790
f 792 790 793
f 792 794 745
f 747 745 794
f 793 795 792
f 794 792 795
f 794 796 747
f 749 747 796
f 795 797 794
f 796 794 797
f 796 798 749
f 751 749 798
f 798 755 751
f 798 796 799
f 797 799 796
f 755 798 800
f 799 800 798
f 800 758 755
f 799 797 801
f 800 799 802
f 801 802 799
f 802 803 800
f 758 800 803
f 804 805 806
f 806 807 804
f 808 809 810
f 811 810 809
f 810 812 808
f 809 813 811
f 814 811 813
f 815 808 812
f 812 816 815
f 813 817 814
f 818 814 817
f 819 813 809
f 817 820 818
f 821 818 820
f 822 817 813
f 813 819 822
f 823 820 817
f 817 822 823
f 820 824 821
f 825 821 824
f 820 823 826
f 826 824 820
f 824 827 825
f 828 825 827
f 824 826 829
f 829 827 824
f 827 830 828
f 831 828 830
f 827 829 674
f 674 830 827
f 830 832 831
f 833 831 832
f 830 674 677
f 677 832 830
f 832 834 833
f 835 833 834
f 832 677 681
f 681 834 832
f 834 836 835
f 837 835 836
f 834 681 685
f 685 836 834
f 836 838 837
f 839 837 838
f 836 685 689
f 689 838 836
f 838 840 839
f 841 839 840
f 838 689 693
f 693 840 838
f 840 842 841
f 843 841 842
f 840 693 697
f 697 842 840
f 842 844 843
f 816 843 844
f 844 815 816
f 701 844 842
f 842 697 701
f 845 815 844
f 844 701 845
f 815 845 846
f 846 808 815
f 702 845 701
f 808 846 847
f 847 809 808
f 809 847 819
f 706 846 845
f 845 702 706
f 709 847 846
f 846 706 709
f 848 819 847
f 847 709 848
f 819 848 849
f 849 822 819
f 711 848 709
f 822 849 850
f 850 823 822
f 851 849 848
f 848 711 851
f 852 850 849
f 849 851 852
f 823 850 853
f 853 826 823
f 850 852 854
f 854 853 850
f 855 852 851
f 852 855 856
f 856 854 852
f 851 857 855
f 857 851 711
f 854 856 858
f 711 710 857
f 858 859 854
f 853 854 859
f 859 858 860
f 826 853 861
f 859 861 853
f 861 829 826
f 860 862 859
f 861 859 862
f 862 860 672
f 829 861 675
f 862 675 861
f 675 674 829
f 672 671 862
f 675 862 671
f 863 864 865
f 866 865 864
f 864 867 866
f 868 863 865
f 869 866 867
f 865 870 868
f 867 871 869
f 872 868 870
f 873 869 871
f 870 874 872
f 871 875 873
f 876 872 874
f 877 873 875
f 874 878 876
f 875 879 877
f 880 876 878
f 881 877 879
f 878 882 880
f 879 883 881
f 884 880 882
f 885 881 883
f 882 886 884
f 883 887 885
f 888 884 886
f 889 885 887
f 886 890 888
f 887 891 889
f 892 888 890
f 893 889 891
f 891 892 893
f 890 893 892
f 894 895 896
f 896 897 894
f 898 899 900
f 901 902 903
f 902 901 904
f 905 904 901
f 904 906 902
f 901 907 905
f 907 901 903
f 908 905 907
f 907 909 908
f 909 907 903
f 910 908 909
f 909 911 910
f 911 909 903
f 912 910 911
f 913 912 911
f 911 914 913
f 914 911 903
f 915 913 914
f 914 903 916
f 914 916 917
f 914 917 918
f 914 918 919
f 914 919 920
f 914 920 921
f 914 921 922
f 914 923 915
f 923 914 922
f 924 915 923
f 923 925 924
f 925 923 922
f 926 924 925
f 925 927 926
f 927 925 922
f 928 926 927
f 927 929 928
f 929 927 922
f 930 931 932
f 933 930 932
f 934 928 929
f 929 935 934
f 935 929 922
f 936 934 935
f 935 937 936
f 937 935 922
f 938 936 937
f 937 939 938
f 939 937 922
f 940 938 939
f 941 939 922
f 939 941 940
f 942 940 941
f 941 922 943
f 941 944 942
f 944 941 943
f 945 942 944
f 944 946 945
f 946 944 943
f 947 945 946
f 948 946 943
f 946 948 947
f 949 947 948
f 950 948 943
f 948 951 949
f 950 951 948
f 952 949 951
f 951 953 952
f 950 953 951
f 954 952 953
f 953 955 954
f 950 955 953
f 956 954 955
f 955 957 956
f 950 957 955
f 958 956 957
f 957 959 958
f 950 959 957
f 960 958 959
f 959 961 960
f 950 961 959
f 906 960 961
f 961 902 906
f 950 902 961
f 950 903 902
f 950 962 903
f 962 963 903
f 963 964 903
f 964 965 903
f 965 966 903
f 965 967 966
f 968 969 970
f 971 972 973
f 974 975 976
f 977 978 979
f 979 980 977
f 981 982 983
f 984 985 986
f 987 988 989
f 990 991 992
f 993 994 995
f 996 997 998
f 999 1000 1001
f 1002 1003 1004
f 1005 1006 1007
f 1008 1009 1010
f 1011 1012 1013
f 1014 1015 1016
f 1017 1018 1019
f 1020 1021 1022
f 1023 1024 1025
f 1026 1027 1028
f 1029 1030 1031
f 1032 1033 1034
f 1035 1036 1037
f 1038 1039 1040
f 1041 1042 1043
f 1041 1043 1044
f 1045 1046 1047
f 1048 1049 1050
f 1051 1052 1053
f 1054 1055 1056
f 1057 1058 1059
f 1059 1060 1057
f 802 801 1061
f 803 1062 758
f 760 758 1062
f 803 802 1063
f 1061 1063 802
f 1062 803 1064
f 1063 1064 803
f 1062 1065 760
f 761 760 1065
f 1064 1066 1062
f 1065 1062 1066
f 1065 1067 761
f 763 761 1067
f 1066 1068 1065
f 1067 1065 1068
f 1067 1069 763
f 765 763 1069
f 1068 1070 1067
f 1069 1067 1070
f 1069 1071 765
f 767 765 1071
f 1070 1072 1069
f 1071 1069 1072
f 1071 1073 767
f 769 767 1073
f 1072 1074 1071
f 1073 1071 1074
f 1073 1075 769
f 771 769 1075
f 1074 1076 1073
f 1075 1073 1076
f 1075 1077 771
f 773 771 1077
f 1076 1078 1075
f 1077 1075 1078
f 1077 1079 773
f 775 773 1079
f 1078 1080 1077
f 1079 1077 1080
f 1079 1081 775
f 777 775 1081
f 1080 1082 1079
f 1081 1079 1082
f 1081 1083 777
f 779 777 1083
f 1082 1084 1081
f 1083 1081 1084
f 1083 1085 779
f 781 779 1085
f 1084 1086 1083
f 1085 1083 1086
f 1085 1087 781
f 783 781 1087
f 1086 1088 1085
f 1087 1085 1088
f 1087 1089 783
f 785 783 1089
f 1088 1090 1087
f 1089 1087 1090
f 1089 1091 785
f 787 785 1091
f 1090 1092 1089
f 1091 1089 1092
f 1091 1093 787
f 789 787 1093
f 1092 1094 1091
f 1093 1091 1094
f 1093 1095 789
f 791 789 1095
f 1094 1096 1093
f 1095 1093 1096
f 1095 1097 791
f 793 791 1097
f 1096 1098 1095
f 1097 1095 1098
f 1097 1099 793
f 795 793 1099
f 1098 1100 1097
f 1099 1097 1100
f 1099 1101 795
f 797 795 1101
f 1101 801 797
f 1101 1099 1102
f 1100 1102 1099
f 801 1101 1103
f 1102 1103 1101
f 1103 1061 801
f 1102 1100 1104
f 1103 1102 1105
f 1104 1105 1102
f 1105 1106 1103
f 1061 1103 1106
f 1105 1104 1107
f 1106 1108 1061
f 1063 1061 1108
f 1106 1105 1109
f 1107 1109 1105
f 1108 1106 1110
f 1109 1110 1106
f 1108 1111 1063
f 1064 1063 1111
f 1110 1112 1108
f 1111 1108 1112
f 1111 1113 1064
f 1066 1064 1113
f 1112 1114 1111
f 1113 1111 1114
f 1113 1115 1066
f 1068 1066 1115
f 1114 1116 1113
f 1115 1113 1116
f 1115 1117 1068
f 1070 1068 1117
f 1116 1118 1115
f 1117 1115 1118
f 1117 1119 1070
f 1072 1070 1119
f 1118 1120 1117
f 1119 1117 1120
f 1119 1121 1072
f 1074 1072 1121
f 1120 1122 1119
f 1121 1119 1122
f 1121 1123 1074
f 1076 1074 1123
f 1122 1124 1121
f 1123 1121 1124
f 1123 1125 1076
f 1078 1076 1125
f 1124 1126 1123
f 1125 1123 1126
f 1125 1127 1078
f 1080 1078 1127
f 1126 1128 1125
f 1127 1125 1128
f 1127 1129 1080
f 1082 1080 1129
f 1128 1130 1127
f 1129 1127 1130
f 1129 1131 1082
f 1084 1082 1131
f 1130 1132 1129
f 1131 1129 1132
f 1131 1133 1084
f 1086 1084 1133
f 1132 1134 1131
f 1133 1131 1134
f 1133 1135 1086
f 1088 1086 1135
f 1134 1136 1133
f 1135 1133 1136
f 1135 1137 1088
f 1090 1088 1137
f 1136 1138 1135
f 1137 1135 1138
f 1137 1139 1090
f 1092 1090 1139
f 1138 1140 1137
f 1139 1137 1140
f 1139 1141 1092
f 1094 1092 1141
f 1140 1142 1139
f 1141 1139 1142
f 1141 1143 1094
f 1096 1094 1143
f 1142 1144 1141
f 1143 1141 1144
f 1143 1145 1096
f 1098 1096 1145
f 1144 1146 1143
f 1145 1143 1146
f 1145 1147 1098
f 1100 1098 1147
f 1147 1104 1100
f 1147 1145 1148
f 1146 1148 1145
f 1104 1147 1149
f 1148 1149 1147
f 1149 1107 1104
f 1148 1146 1150
f 1149 1148 1151
f 1150 1151 1148
f 1151 1152 1149
f 1107 1149 1152
f 1151 1150 1153
f 1152 1154 1107
f 1109 1107 1154
f 1152 1151 1155
f 1153 1155 1151
f 1154 1152 1155
f 1154 1156 1109
f 1110 1109 1156
f 1155 1157 1154
f 1156 1154 1157
f 1158 1155 1153
f 1159 1160 1134
f 1160 1159 1161
f 1136 1134 1160
f 1160 1162 1136
f 1162 1160 1161
f 1138 1136 1162
f 1161 1163 1162
f 1158 1163 1161
f 1162 1164 1138
f 1164 1162 1163
f 1140 1138 1164
f 1164 1165 1140
f 1165 1164 1163
f 1142 1140 1165
f 1158 1166 1163
f 1163 1166 1165
f 1165 1167 1142
f 1167 1165 1166
f 1144 1142 1167
f 1167 1168 1144
f 1168 1167 1166
f 1146 1144 1168
f 1168 1150 1146
f 1166 1153 1168
f 1150 1168 1153
f 1158 1153 1166
f 1169 1170 1171
f 1171 1172 1169
f 1173 1174 1175
f 1175 1176 1173
f 1177 1178 1179
f 1179 1180 1177
f 1181 1182 1183
f 1183 1184 1181
f 1124 1122 1185
f 1185 1186 1124
f 1186 1185 1187
f 1126 1124 1186
f 1187 1188 1186
f 1158 1188 1187
f 1186 1189 1126
f 1189 1186 1188
f 1128 1126 1189
f 1189 1190 1128
f 1190 1189 1188
f 1130 1128 1190
f 1188 1191 1190
f 1158 1191 1188
f 1190 1192 1130
f 1192 1190 1191
f 1132 1130 1192
f 1191 1161 1192
f 1158 1161 1191
f 1192 1159 1132
f 1159 1192 1161
f 1134 1132 1159
f 1193 1194 1195
f 1195 1196 1193
f 1197 1198 1199
f 1199 1200 1197
f 1158 1157 1155
f 1156 1201 1110
f 1201 1156 1157
f 1112 1110 1201
f 1157 1202 1201
f 1158 1202 1157
f 1201 1203 1112
f 1203 1201 1202
f 1114 1112 1203
f 1203 1204 1114
f 1204 1203 1202
f 1116 1114 1204
f 1202 1205 1204
f 1158 1205 1202
f 1204 1206 1116
f 1206 1204 1205
f 1118 1116 1206
f 1206 1207 1118
f 1207 1206 1205
f 1120 1118 1207
f 1207 1208 1120
f 1208 1207 1205
f 1122 1120 1208
f 1205 1187 1208
f 1158 1187 1205
f 1208 1185 1122
f 1185 1208 1187
f 1209 1210 1211
f 1211 1212 1209
f 1213 1214 1215
f 1215 1216 1213
f 1217 1218 1219
f 1219 1220 1217
f 1221 1222 1223
f 1223 1224 1221
f 1225 1226 1227
f 1227 1228 1225
f 1229 1230 1231
f 1231 1232 1229
f 1233 1234 1235
f 1235 1236 1233
f 1237 1238 1239
f 1240 1237 1239
f 1240 1241 1237
f 1240 1242 1241
f 1240 1243 1242
f 1240 1244 1243
f 1240 1245 1244
f 1240 1246 1245
f 1240 1247 1246
f 1240 1248 1247
f 1240 1249 1248
f 1240 1250 1249
f 1240 1251 1250
f 1251 1252 1250
f 1252 1253 1250
