v 0.360480547 -0.287883133 0.0987660289
v 0.360480249 -0.0195296146 0.0987659693
v 0.360480428 0.0312939025 0.448765963
v 0.360480368 -0.338706046 0.448765963
v 0.360480368 -0.338706046 0.448765963
v 0.360480428 0.0312939025 0.448765963
v -0.0013695159 0.0312939622 0.448765963
v -0.00136963336 -0.338705987 0.448765963
v -0.0433353446 0.0263495669 0.448765963
v -0.0818743184 0.0122956363 0.448765963
v -0.115882136 -0.00969893951 0.448765963
v -0.144254774 -0.0384652913 0.448765993
v -0.165887997 -0.0728344992 0.448765963
v -0.17967768 -0.111637712 0.448765993
v -0.184519589 -0.153705969 0.448765963
v -0.17967768 -0.195774257 0.448765963
v -0.165888071 -0.234577477 0.448765963
v -0.144254804 -0.268946737 0.448765963
v -0.0433354229 -0.333761662 0.448765963
v -0.0818743333 -0.319707662 0.448765963
v -0.115882188 -0.297713101 0.448765963
v 0.0703154057 -0.0195280798 0.0987659693
v 0.360480249 -0.0195296146 0.0987659693
v 0.360480547 -0.287883133 0.0987660289
v 0.0703157112 -0.287881613 0.0987660289
v 0.0366633311 -0.0231139772 0.0987659693
v 0.00575922709 -0.033306852 0.0987659767
v -0.0215113778 -0.0492589287 0.0987659767
v -0.0442631692 -0.070122458 0.0987659842
v -0.0616106652 -0.0950496718 0.0987659842
v -0.0726684555 -0.12319281 0.0987659916
v -0.0765511096 -0.153704047 0.0987659991
v -0.0726683587 -0.184215382 0.0987660065
v -0.0616105311 -0.212358609 0.098766014
v -0.0442629494 -0.237286016 0.098766014
v 0.0366636515 -0.28429538 0.0987660289
v 0.00575955026 -0.274102151 0.0987660289
v -0.0215111077 -0.258149773 0.0987660214
v 0.360480249 -0.0195296146 0.0987659693
v 0.0703154057 -0.0195280798 0.0987659693
v -0.0013695159 0.0312939622 0.448765963
v 0.360480428 0.0312939025 0.448765963
v -0.0433353446 0.0263495669 0.448765963
v 0.0366633311 -0.0231139772 0.0987659693
v -0.0818743184 0.0122956363 0.448765963
v 0.00575922709 -0.033306852 0.0987659767
v -0.115882136 -0.00969893951 0.448765963
v -0.0215113778 -0.0492589287 0.0987659767
v -0.144254774 -0.0384652913 0.448765993
v -0.0442631692 -0.070122458 0.0987659842
v -0.165887997 -0.0728344992 0.448765963
v -0.0616106652 -0.0950496718 0.0987659842
v -0.17967768 -0.111637712 0.448765993
v -0.0726684555 -0.12319281 0.0987659916
v -0.184519589 -0.153705969 0.448765963
v -0.0765511096 -0.153704047 0.0987659991
v -0.17967768 -0.195774257 0.448765963
v -0.0726683587 -0.184215382 0.0987660065
v -0.165888071 -0.234577477 0.448765963
v -0.0616105311 -0.212358609 0.098766014
v -0.144254804 -0.268946737 0.448765963
v -0.0442629494 -0.237286016 0.098766014
v -0.115882188 -0.297713101 0.448765963
v -0.0215111077 -0.258149773 0.0987660214
v -0.0818743333 -0.319707662 0.448765963
v 0.00575955026 -0.274102151 0.0987660289
v -0.0433354229 -0.333761662 0.448765963
v 0.0366636515 -0.28429538 0.0987660289
v -0.00136963336 -0.338705987 0.448765963
v 0.0703157112 -0.287881613 0.0987660289
v 0.360480368 -0.338706046 0.448765963
v 0.360480547 -0.287883133 0.0987660289
f 1 2 3
f 3 4 1
f 5 6 7
f 5 7 8
f 7 9 8
f 9 10 8
f 10 11 8
f 11 12 8
f 12 13 8
f 13 14 8
f 14 15 8
f 15 16 8
f 16 17 8
f 17 18 8
f 18 19 8
f 18 20 19
f 18 21 20
f 22 23 24
f 22 24 25
f 22 25 26
f 25 27 26
f 25 28 27
f 25 29 28
f 25 30 29
f 25 31 30
f 25 32 31
f 25 33 32
f 25 34 33
f 25 35 34
f 25 36 35
f 36 37 35
f 37 38 35
f 39 40 41
f 41 42 39
f 43 41 40
f 40 44 43
f 45 43 44
f 44 46 45
f 47 45 46
f 46 48 47
f 49 47 48
f 48 50 49
f 51 49 50
f 50 52 51
f 53 51 52
f 52 54 53
f 55 53 54
f 54 56 55
f 57 55 56
f 56 58 57
f 59 57 58
f 58 60 59
f 61 59 60
f 60 62 61
f 63 61 62
f 62 64 63
f 65 63 64
f 64 66 65
f 67 65 66
f 66 68 67
f 69 67 68
f 68 70 69
f 71 69 70
f 70 72 71
