v 0.36039564 -0.273705989 0.929298759
v 0.360396117 -0.273706079 1.08729875
v 0.354952812 -0.273706049 1.08729875
v 0.354952365 -0.273705959 0.929298818
v 0.360397071 -0.0337060802 1.08729887
v 0.360396594 -0.033705987 0.929298937
v 0.354953319 -0.0337059647 0.929298937
v 0.354953766 -0.0337060615 1.08729899
v 0.360396594 -0.033705987 0.929298937
v 0.36039564 -0.273705989 0.929298759
v 0.354952365 -0.273705959 0.929298818
v 0.354953319 -0.0337059647 0.929298937
v 0.360396117 -0.273706079 1.08729875
v 0.360397071 -0.0337060802 1.08729887
v 0.354953766 -0.0337060615 1.08729899
v 0.354952812 -0.273706049 1.08729875
v 0.360396594 -0.033705987 0.929298937
v 0.360397071 -0.0337060802 1.08729887
v 0.360396117 -0.273706079 1.08729875
v 0.36039564 -0.273705989 0.929298759
v 0.354953319 -0.0337059647 0.929298937
v 0.354952365 -0.273705959 0.929298818
v 0.354952812 -0.273706049 1.08729875
v 0.354953766 -0.0337060615 1.08729899
vt 0.999500275 0.999500513
vt 0.999500453 0.000499844551
vt 0.999500453 0.000499844551
vt 0.999500275 0.999500513
vt 0.000499725342 0.000499486923
vt 0.000499546528 0.999500155
vt 0.000499546528 0.999500155
vt 0.000499725342 0.000499486923
vt 0.000499546528 0.999500155
vt 0.999500275 0.999500513
vt 0.999500275 0.999500513
vt 0.000499546528 0.999500155
vt 0.999500453 0.000499844551
vt 0.000499725342 0.000499486923
vt 0.000499725342 0.000499486923
vt 0.999500453 0.000499844551
vt 0.000499546528 0.999500155
vt 0.000499725342 0.000499486923
vt 0.999500453 0.000499844551
vt 0.999500275 0.999500513
vt 0.000499546528 0.999500155
vt 0.999500275 0.999500513
vt 0.999500453 0.000499844551
vt 0.000499725342 0.000499486923
f 1/1 2/2 3/3
f 3/3 4/4 1/1
f 5/5 6/6 7/7
f 7/7 8/8 5/5
f 9/9 10/10 11/11
f 11/11 12/12 9/9
f 13/13 14/14 15/15
f 15/15 16/16 13/13
f 17/17 18/18 19/19
f 19/19 20/20 17/17
f 21/21 22/22 23/23
f 23/23 24/24 21/21
