v -0.33899343 0.274714559 0.774837434
v -0.339293122 0.274714559 0.774837434
v -0.339293122 0.273060501 0.775633335
v -0.33899343 0.273060501 0.775633335
v -0.33899343 0.273060501 0.775633335
v -0.339293122 0.273060501 0.775633335
v -0.339293122 0.271343589 0.776282012
v -0.33899343 0.271343589 0.776282012
v -0.33899343 0.271343589 0.776282012
v -0.339293122 0.271343589 0.776282012
v -0.339293122 0.269576639 0.776778579
v -0.33899343 0.269576639 0.776778579
v -0.33899343 0.269576639 0.776778579
v -0.339293122 0.269576639 0.776778579
v -0.339293122 0.267773032 0.777119219
v -0.33899343 0.267773032 0.777119219
v -0.33899343 0.267773032 0.777119219
v -0.339293122 0.267773032 0.777119219
v -0.339293122 0.265946716 0.777301431
v -0.33899343 0.265946716 0.777301431
v -0.33899343 0.265946716 0.777301431
v -0.339293122 0.265946716 0.777301431
v -0.339293122 0.2641114 0.777323782
v -0.33899343 0.2641114 0.777323782
v -0.33899343 0.2641114 0.777323782
v -0.339293122 0.2641114 0.777323782
v -0.339293122 0.26228109 0.777186096
v -0.33899343 0.26228109 0.777186096
v -0.33899343 0.26228109 0.777186096
v -0.339293122 0.26228109 0.777186096
v -0.339293122 0.260469735 0.776889384
v -0.33899343 0.260469735 0.776889384
v -0.33899343 0.260469735 0.776889384
v -0.339293122 0.260469735 0.776889384
v -0.339293122 0.258691162 0.776435852
v -0.33899343 0.258691162 0.776435852
v -0.33899343 0.258691162 0.776435852
v -0.339293122 0.258691162 0.776435852
v -0.339293122 0.256958991 0.775829196
v -0.33899343 0.256958991 0.775829196
v -0.33899343 0.256958991 0.775829196
v -0.339293122 0.256958991 0.775829196
v -0.339293122 0.255286306 0.775073707
v -0.33899343 0.255286306 0.775073707
v -0.33899343 0.255286306 0.775073707
v -0.339293122 0.255286306 0.775073707
v -0.339293122 0.253685683 0.774175406
v -0.33899343 0.253685683 0.774175406
v -0.33899343 0.253685683 0.774175406
v -0.339293122 0.253685683 0.774175406
v -0.339293122 0.2521694 0.773141026
v -0.33899343 0.2521694 0.773141026
v -0.33899343 0.2521694 0.773141026
v -0.339293122 0.2521694 0.773141026
v -0.339293122 0.250749111 0.771978498
v -0.33899343 0.250749111 0.771978498
v -0.33899343 0.250749111 0.771978498
v -0.339293122 0.250749111 0.771978498
v -0.339293122 0.249435648 0.770696521
v -0.33899343 0.249435648 0.770696521
v -0.33899343 0.249435648 0.770696521
v -0.339293122 0.249435648 0.770696521
v -0.339293122 0.248238742 0.769304872
v -0.33899343 0.248238742 0.769304872
v -0.33899343 0.248238742 0.769304872
v -0.339293122 0.248238742 0.769304872
v -0.339293122 0.247167885 0.767814279
v -0.33899343 0.247167885 0.767814279
v -0.33899343 0.247167885 0.767814279
v -0.339293122 0.247167885 0.767814279
v -0.339293122 0.246230841 0.766236067
v -0.33899343 0.246230841 0.766236067
v -0.33899343 0.246230841 0.766236067
v -0.339293122 0.246230841 0.766236067
v -0.339293122 0.245435104 0.764582157
v -0.33899343 0.245435104 0.764582157
v -0.33899343 0.245435104 0.764582157
v -0.339293122 0.245435104 0.764582157
v -0.339293122 0.244786456 0.762865245
v -0.33899343 0.244786456 0.762865245
v -0.33899343 0.244786456 0.762865245
v -0.339293122 0.244786456 0.762865245
v -0.339293122 0.244289771 0.761098087
v -0.33899343 0.244289771 0.761098087
v -0.33899343 0.244289771 0.761098087
v -0.339293122 0.244289771 0.761098087
v -0.339293122 0.243949205 0.759294569
v -0.33899343 0.243949205 0.759294569
v -0.33899343 0.243949205 0.759294569
v -0.339293122 0.243949205 0.759294569
v -0.339293122 0.243766859 0.757468283
v -0.33899343 0.243766859 0.757468283
v -0.33899343 0.243766859 0.757468283
v -0.339293122 0.243766859 0.757468283
v -0.339293122 0.243744597 0.755632937
v -0.33899343 0.243744597 0.755632937
v -0.33899343 0.243744597 0.755632937
v -0.339293122 0.243744597 0.755632937
v -0.339293122 0.243882373 0.753802657
v -0.33899343 0.243882373 0.753802657
v -0.33899343 0.243882373 0.753802657
v -0.339293122 0.243882373 0.753802657
v -0.339293122 0.244178995 0.751991451
v -0.33899343 0.244178995 0.751991451
v -0.33899343 0.244178995 0.751991451
v -0.339293122 0.244178995 0.751991451
v -0.339293122 0.244632497 0.750212789
v -0.33899343 0.244632497 0.750212789
v -0.33899343 0.244632497 0.750212789
v -0.339293122 0.244632497 0.750212789
v -0.339293122 0.245239183 0.748480618
v -0.33899343 0.245239183 0.748480618
v -0.33899343 0.245239183 0.748480618
v -0.339293122 0.245239183 0.748480618
v -0.339293122 0.245994493 0.746807814
v -0.33899343 0.245994493 0.746807814
v -0.33899343 0.245994493 0.746807814
v -0.339293122 0.245994493 0.746807814
v -0.339293122 0.246892929 0.74520731
v -0.33899343 0.246892929 0.74520731
v -0.33899343 0.246892929 0.74520731
v -0.339293122 0.246892929 0.74520731
v -0.339293122 0.247927338 0.743691027
v -0.33899343 0.247927338 0.743691027
v -0.33899343 0.247927338 0.743691027
v -0.339293122 0.247927338 0.743691027
v -0.339293122 0.249089897 0.742270827
v -0.33899343 0.249089897 0.742270827
v -0.33899343 0.249089897 0.742270827
v -0.339293122 0.249089897 0.742270827
v -0.339293122 0.250371963 0.740957201
v -0.33899343 0.250371963 0.740957201
v -0.33899343 0.250371963 0.740957201
v -0.339293122 0.250371963 0.740957201
v -0.339293122 0.251763552 0.739760399
v -0.33899343 0.251763552 0.739760399
v -0.33899343 0.251763552 0.739760399
v -0.339293122 0.251763552 0.739760399
v -0.339293122 0.253254175 0.738689363
v -0.33899343 0.253254175 0.738689363
v -0.33899343 0.253254175 0.738689363
v -0.339293122 0.253254175 0.738689363
v -0.339293122 0.254832238 0.737752557
v -0.33899343 0.254832238 0.737752557
v -0.33899343 0.254832238 0.737752557
v -0.339293122 0.254832238 0.737752557
v -0.339293122 0.256486148 0.736956656
v -0.33899343 0.256486148 0.736956656
v -0.33899343 0.256486148 0.736956656
v -0.339293122 0.256486148 0.736956656
v -0.339293122 0.258203208 0.736307919
v -0.33899343 0.258203208 0.736307919
v -0.33899343 0.258203208 0.736307919
v -0.339293122 0.258203208 0.736307919
v -0.339293122 0.259970188 0.735811353
v -0.33899343 0.259970188 0.735811353
v -0.33899343 0.259970188 0.735811353
v -0.339293122 0.259970188 0.735811353
v -0.339293122 0.261773765 0.735470653
v -0.33899343 0.261773765 0.735470653
v -0.33899343 0.261773765 0.735470653
v -0.339293122 0.261773765 0.735470653
v -0.339293122 0.263600111 0.735288501
v -0.33899343 0.263600111 0.735288501
v -0.33899343 0.263600111 0.735288501
v -0.339293122 0.263600111 0.735288501
v -0.339293122 0.265435427 0.735266149
v -0.33899343 0.265435427 0.735266149
v -0.33899343 0.265435427 0.735266149
v -0.339293122 0.265435427 0.735266149
v -0.339293122 0.267265707 0.735403836
v -0.33899343 0.267265707 0.735403836
v -0.33899343 0.267265707 0.735403836
v -0.339293122 0.267265707 0.735403836
v -0.339293122 0.269077092 0.735700548
v -0.33899343 0.269077092 0.735700548
v -0.33899343 0.269077092 0.735700548
v -0.339293122 0.269077092 0.735700548
v -0.339293122 0.270855665 0.736154139
v -0.33899343 0.270855665 0.736154139
v -0.33899343 0.270855665 0.736154139
v -0.339293122 0.270855665 0.736154139
v -0.339293122 0.272587836 0.736760795
v -0.33899343 0.272587836 0.736760795
v -0.33899343 0.272587836 0.736760795
v -0.339293122 0.272587836 0.736760795
v -0.339293122 0.274260491 0.737516105
v -0.33899343 0.274260491 0.737516105
v -0.33899343 0.274260491 0.737516105
v -0.339293122 0.274260491 0.737516105
v -0.339293122 0.275861144 0.738414466
v -0.33899343 0.275861144 0.738414466
v -0.33899343 0.275861144 0.738414466
v -0.339293122 0.275861144 0.738414466
v -0.339293122 0.277377278 0.739448905
v -0.33899343 0.277377278 0.739448905
v -0.33899343 0.277377278 0.739448905
v -0.339293122 0.277377278 0.739448905
v -0.339293122 0.278797537 0.740611434
v -0.33899343 0.278797537 0.740611434
v -0.33899343 0.278797537 0.740611434
v -0.339293122 0.278797537 0.740611434
v -0.339293122 0.280111015 0.74189347
v -0.33899343 0.280111015 0.74189347
v -0.33899343 0.280111015 0.74189347
v -0.339293122 0.280111015 0.74189347
v -0.339293122 0.281307906 0.74328512
v -0.33899343 0.281307906 0.74328512
v -0.33899343 0.281307906 0.74328512
v -0.339293122 0.281307906 0.74328512
v -0.339293122 0.282378942 0.744775653
v -0.33899343 0.282378942 0.744775653
v -0.33899343 0.282378942 0.744775653
v -0.339293122 0.282378942 0.744775653
v -0.339293122 0.283315808 0.746353924
v -0.33899343 0.283315808 0.746353924
v -0.33899343 0.283315808 0.746353924
v -0.339293122 0.283315808 0.746353924
v -0.339293122 0.284111708 0.748007774
v -0.33899343 0.284111708 0.748007774
v -0.33899343 0.284111708 0.748007774
v -0.339293122 0.284111708 0.748007774
v -0.339293122 0.284760535 0.749724865
v -0.33899343 0.284760535 0.749724865
v -0.33899343 0.284760535 0.749724865
v -0.339293122 0.284760535 0.749724865
v -0.339293122 0.285257041 0.751491725
v -0.33899343 0.285257041 0.751491725
v -0.33899343 0.285257041 0.751491725
v -0.339293122 0.285257041 0.751491725
v -0.339293122 0.285597771 0.753295302
v -0.33899343 0.285597771 0.753295302
v -0.33899343 0.285597771 0.753295302
v -0.339293122 0.285597771 0.753295302
v -0.339293122 0.285779953 0.755121708
v -0.33899343 0.285779953 0.755121708
v -0.33899343 0.285779953 0.755121708
v -0.339293122 0.285779953 0.755121708
v -0.339293122 0.285802215 0.756956875
v -0.33899343 0.285802215 0.756956875
v -0.33899343 0.285802215 0.756956875
v -0.339293122 0.285802215 0.756956875
v -0.339293122 0.285664439 0.758787215
v -0.33899343 0.285664439 0.758787215
v -0.33899343 0.285664439 0.758787215
v -0.339293122 0.285664439 0.758787215
v -0.339293122 0.285367817 0.76059866
v -0.33899343 0.285367817 0.76059866
v -0.33899343 0.285367817 0.76059866
v -0.339293122 0.285367817 0.76059866
v -0.339293122 0.284914464 0.762377143
v -0.33899343 0.284914464 0.762377143
v -0.33899343 0.284914464 0.762377143
v -0.339293122 0.284914464 0.762377143
v -0.339293122 0.28430748 0.764109373
v -0.33899343 0.28430748 0.764109373
v -0.33899343 0.28430748 0.764109373
v -0.339293122 0.28430748 0.764109373
v -0.339293122 0.28355217 0.765782118
v -0.33899343 0.28355217 0.765782118
v -0.33899343 0.28355217 0.765782118
v -0.339293122 0.28355217 0.765782118
v -0.339293122 0.282653868 0.767382622
v -0.33899343 0.282653868 0.767382622
v -0.33899343 0.282653868 0.767382622
v -0.339293122 0.282653868 0.767382622
v -0.339293122 0.281619489 0.768898964
v -0.33899343 0.281619489 0.768898964
v -0.33899343 0.281619489 0.768898964
v -0.339293122 0.281619489 0.768898964
v -0.339293122 0.28045693 0.770319164
v -0.33899343 0.28045693 0.770319164
v -0.33899343 0.28045693 0.770319164
v -0.339293122 0.28045693 0.770319164
v -0.339293122 0.279175013 0.771632731
v -0.33899343 0.279175013 0.771632731
v -0.33899343 0.279175013 0.771632731
v -0.339293122 0.279175013 0.771632731
v -0.339293122 0.277783275 0.772829533
v -0.33899343 0.277783275 0.772829533
v -0.33899343 0.277783275 0.772829533
v -0.339293122 0.277783275 0.772829533
v -0.339293122 0.276292771 0.773900449
v -0.33899343 0.276292771 0.773900449
v -0.33899343 0.276292771 0.773900449
v -0.339293122 0.276292771 0.773900449
v -0.339293122 0.274714559 0.774837434
v -0.33899343 0.274714559 0.774837434
v -0.339293122 0.272749245 0.774906576
v -0.339293122 0.273060501 0.775633335
v -0.339293122 0.274714559 0.774837434
v -0.339293122 0.271096706 0.775530934
v -0.339293122 0.274340898 0.774140596
v -0.339293122 0.271343589 0.776282012
v -0.339293122 0.276292771 0.773900449
v -0.339293122 0.269395947 0.776008785
v -0.339293122 0.275859892 0.773238838
v -0.339293122 0.269576639 0.776778579
v -0.339293122 0.277783275 0.772829533
v -0.339293122 0.267660439 0.77633661
v -0.339293122 0.277294368 0.772208154
v -0.339293122 0.267773032 0.777119219
v -0.339293122 0.279175013 0.771632731
v -0.339293122 0.265902638 0.776512027
v -0.339293122 0.278633654 0.771056294
v -0.339293122 0.265946716 0.777301431
v -0.339293122 0.28045693 0.770319164
v -0.339293122 0.264136255 0.776533425
v -0.339293122 0.27986747 0.769792199
v -0.339293122 0.2641114 0.777323782
v -0.339293122 0.281619489 0.768898964
v -0.339293122 0.262374789 0.776400924
v -0.339293122 0.280986398 0.768425226
v -0.339293122 0.26228109 0.777186096
v -0.339293122 0.282653868 0.767382622
v -0.339293122 0.260631621 0.776115417
v -0.339293122 0.281982034 0.766965985
v -0.339293122 0.260469735 0.776889384
v -0.339293122 0.28355217 0.765782118
v -0.339293122 0.258919895 0.775678933
v -0.339293122 0.2828466 0.765425622
v -0.339293122 0.258691162 0.776435852
v -0.339293122 0.28430748 0.764109373
v -0.339293122 0.257252723 0.775094986
v -0.339293122 0.283573538 0.763815641
v -0.339293122 0.256958991 0.775829196
v -0.339293122 0.284914464 0.762377143
v -0.339293122 0.255642921 0.774367988
v -0.339293122 0.284157336 0.762148499
v -0.339293122 0.255286306 0.775073707
v -0.339293122 0.285367817 0.76059866
v -0.339293122 0.254102409 0.773503423
v -0.339293122 0.28459388 0.760436833
v -0.339293122 0.253685683 0.774175406
v -0.339293122 0.285664439 0.758787215
v -0.339293122 0.252643049 0.772507966
v -0.339293122 0.284879386 0.758693635
v -0.339293122 0.2521694 0.773141026
v -0.339293122 0.285802215 0.756956875
v -0.339293122 0.251276165 0.771389067
v -0.339293122 0.285011977 0.756932199
v -0.339293122 0.250749111 0.771978498
v -0.339293122 0.285779953 0.755121708
v -0.339293122 0.250011981 0.770155251
v -0.339293122 0.28499046 0.755165815
v -0.339293122 0.249435648 0.770696521
v -0.339293122 0.285597771 0.753295302
v -0.339293122 0.24886024 0.768815994
v -0.339293122 0.284815133 0.753408074
v -0.339293122 0.248238742 0.769304872
v -0.339293122 0.285257041 0.751491725
v -0.339293122 0.247829512 0.76738143
v -0.339293122 0.284487218 0.751672328
v -0.339293122 0.247167885 0.767814279
v -0.339293122 0.284760535 0.749724865
v -0.339293122 0.246927708 0.765862405
v -0.339293122 0.284009337 0.749971628
v -0.339293122 0.246230841 0.766236067
v -0.339293122 0.284111708 0.748007774
v -0.339293122 0.246161729 0.764270663
v -0.339293122 0.283384949 0.748319209
v -0.339293122 0.245435104 0.764582157
v -0.339293122 0.283315808 0.746353924
v -0.339293122 0.24553749 0.762618244
v -0.339293122 0.282619119 0.746727407
v -0.339293122 0.244786456 0.762865245
v -0.339293122 0.282378942 0.744775653
v -0.339293122 0.24505958 0.760917664
v -0.339293122 0.2817173 0.745208561
v -0.339293122 0.244289771 0.761098087
v -0.339293122 0.281307906 0.74328512
v -0.339293122 0.24473168 0.759181917
v -0.339293122 0.280686587 0.743773937
v -0.339293122 0.243949205 0.759294569
v -0.339293122 0.280111015 0.74189347
v -0.339293122 0.244556352 0.757424176
v -0.339293122 0.279534847 0.742434621
v -0.339293122 0.243766859 0.757468283
v -0.339293122 0.278797537 0.740611434
v -0.339293122 0.244534835 0.755657792
v -0.339293122 0.278270662 0.741200924
v -0.339293122 0.243744597 0.755632937
v -0.339293122 0.277377278 0.739448905
v -0.339293122 0.244667441 0.753896356
v -0.339293122 0.276903778 0.740081966
v -0.339293122 0.243882373 0.753802657
v -0.339293122 0.275861144 0.738414466
v -0.339293122 0.244952932 0.752153039
v -0.339293122 0.275444448 0.73908639
v -0.339293122 0.244178995 0.751991451
v -0.339293122 0.274260491 0.737516105
v -0.339293122 0.245389342 0.750441372
v -0.339293122 0.273904055 0.738221824
v -0.339293122 0.244632497 0.750212789
v -0.339293122 0.272587836 0.736760795
v -0.339293122 0.245973289 0.748774171
v -0.339293122 0.272294104 0.737494826
v -0.339293122 0.245239183 0.748480618
v -0.339293122 0.270855665 0.736154139
v -0.339293122 0.246700376 0.747164309
v -0.339293122 0.270627081 0.736910939
v -0.339293122 0.245994493 0.746807814
v -0.339293122 0.269077092 0.735700548
v -0.339293122 0.247564942 0.745623887
v -0.339293122 0.268915355 0.736474574
v -0.339293122 0.246892929 0.74520731
v -0.339293122 0.267265707 0.735403836
v -0.339293122 0.248560414 0.744164646
v -0.339293122 0.26717186 0.736188889
v -0.339293122 0.247927338 0.743691027
v -0.339293122 0.265435427 0.735266149
v -0.339293122 0.249679357 0.742797792
v -0.339293122 0.265410542 0.736056387
v -0.339293122 0.249089897 0.742270827
v -0.339293122 0.263600111 0.735288501
v -0.339293122 0.250913024 0.741533577
v -0.339293122 0.263644189 0.736077905
v -0.339293122 0.250371963 0.740957201
v -0.339293122 0.261773765 0.735470653
v -0.339293122 0.25225243 0.740381777
v -0.339293122 0.261886388 0.736253202
v -0.339293122 0.251763552 0.739760399
v -0.339293122 0.259970188 0.735811353
v -0.339293122 0.253687084 0.739351034
v -0.339293122 0.260150701 0.736581087
v -0.339293122 0.253254175 0.738689363
v -0.339293122 0.258203208 0.736307919
v -0.339293122 0.255205929 0.738449275
v -0.339293122 0.25845024 0.737059057
v -0.339293122 0.254832238 0.737752557
v -0.339293122 0.256486148 0.736956656
v -0.339293122 0.256797731 0.737683356
v -0.238993436 0.275859892 0.773238838
v -0.33899343 0.275859892 0.773238838
v -0.33899343 0.277294368 0.772208154
v -0.238993436 0.277294368 0.772208154
v -0.339293122 0.277294368 0.772208154
v -0.339293122 0.275859892 0.773238838
v -0.238993436 0.277294368 0.772208154
v -0.33899343 0.277294368 0.772208154
v -0.33899343 0.278633654 0.771056294
v -0.238993436 0.278633654 0.771056294
v -0.339293122 0.278633654 0.771056294
v -0.339293122 0.277294368 0.772208154
v -0.238993436 0.278633654 0.771056294
v -0.33899343 0.278633654 0.771056294
v -0.33899343 0.27986747 0.769792199
v -0.238993436 0.27986747 0.769792199
v -0.339293122 0.27986747 0.769792199
v -0.339293122 0.278633654 0.771056294
v -0.238993436 0.27986747 0.769792199
v -0.33899343 0.27986747 0.769792199
v -0.33899343 0.280986398 0.768425226
v -0.238993436 0.280986398 0.768425226
v -0.339293122 0.280986398 0.768425226
v -0.339293122 0.27986747 0.769792199
v -0.238993436 0.280986398 0.768425226
v -0.33899343 0.280986398 0.768425226
v -0.33899343 0.281982034 0.766965985
v -0.238993436 0.281981885 0.766965985
v -0.339293122 0.281982034 0.766965985
v -0.339293122 0.280986398 0.768425226
v -0.238993436 0.281981885 0.766965985
v -0.33899343 0.281982034 0.766965985
v -0.33899343 0.2828466 0.765425622
v -0.339293122 0.2828466 0.765425622
v -0.339293122 0.281982034 0.766965985
v -0.238993436 0.283573538 0.763815641
v -0.33899343 0.283573538 0.763815641
v -0.33899343 0.284157336 0.762148499
v -0.238993436 0.284157336 0.762148499
v -0.339293122 0.284157336 0.762148499
v -0.339293122 0.283573538 0.763815641
v -0.238993436 0.284157336 0.762148499
v -0.33899343 0.284157336 0.762148499
v -0.33899343 0.28459388 0.760436833
v -0.339293122 0.28459388 0.760436833
v -0.339293122 0.284157336 0.762148499
v -0.238993436 0.252643019 0.772507966
v -0.33899343 0.252643049 0.772507966
v -0.33899343 0.254102409 0.773503423
v -0.238993436 0.254102379 0.773503423
v -0.339293122 0.254102409 0.773503423
v -0.339293122 0.252643049 0.772507966
v -0.238993436 0.254102379 0.773503423
v -0.33899343 0.254102409 0.773503423
v -0.33899343 0.255642921 0.774367988
v -0.339293122 0.255642921 0.774367988
v -0.339293122 0.254102409 0.773503423
v -0.238993436 0.254102379 0.773503423
v -0.33899343 0.255642921 0.774367988
v -0.238993436 0.255642623 0.774368048
v -0.238993436 0.255642623 0.774368048
v -0.33899343 0.255642921 0.774367988
v -0.33899343 0.257252723 0.775094986
v -0.339293122 0.257252723 0.775094986
v -0.339293122 0.255642921 0.774367988
v -0.238993436 0.255642623 0.774368048
v -0.33899343 0.257252723 0.775094986
v -0.238993436 0.257252723 0.775094986
v -0.238993436 0.257252723 0.775094986
v -0.33899343 0.257252723 0.775094986
v -0.33899343 0.258919895 0.775678933
v -0.238993436 0.258919895 0.775678933
v -0.339293122 0.258919895 0.775678933
v -0.339293122 0.257252723 0.775094986
v -0.238993436 0.258919895 0.775678933
v -0.33899343 0.258919895 0.775678933
v -0.33899343 0.260631621 0.776115417
v -0.339293122 0.260631621 0.776115417
v -0.339293122 0.258919895 0.775678933
v -0.238993436 0.258919895 0.775678933
v -0.33899343 0.260631621 0.776115417
v -0.238993436 0.260631472 0.776115417
v -0.238993436 0.260631472 0.776115417
v -0.33899343 0.260631621 0.776115417
v -0.33899343 0.262374789 0.776400924
v -0.238993436 0.262374789 0.776400924
v -0.339293122 0.262374789 0.776400924
v -0.339293122 0.260631621 0.776115417
v -0.238993436 0.262374789 0.776400924
v -0.33899343 0.262374789 0.776400924
v -0.33899343 0.264136255 0.776533425
v -0.238993436 0.264136255 0.776533425
v -0.339293122 0.264136255 0.776533425
v -0.339293122 0.262374789 0.776400924
v -0.238993436 0.264136255 0.776533425
v -0.33899343 0.264136255 0.776533425
v -0.33899343 0.265902638 0.776512027
v -0.238993436 0.265902609 0.776512027
v -0.339293122 0.265902638 0.776512027
v -0.339293122 0.264136255 0.776533425
v -0.238993436 0.265902609 0.776512027
v -0.33899343 0.265902638 0.776512027
v -0.33899343 0.267660439 0.77633661
v -0.238993436 0.267660439 0.77633667
v -0.339293122 0.267660439 0.77633661
v -0.339293122 0.265902638 0.776512027
v -0.238993436 0.267660439 0.77633667
v -0.33899343 0.267660439 0.77633661
v -0.33899343 0.269395947 0.776008785
v -0.238993436 0.269395947 0.776008785
v -0.339293122 0.269395947 0.776008785
v -0.339293122 0.267660439 0.77633661
v -0.238993436 0.269395947 0.776008785
v -0.33899343 0.269395947 0.776008785
v -0.33899343 0.271096706 0.775530934
v -0.238993436 0.271096706 0.775530934
v -0.339293122 0.271096706 0.775530934
v -0.339293122 0.269395947 0.776008785
v -0.238993436 0.271096706 0.775530934
v -0.33899343 0.271096706 0.775530934
v -0.33899343 0.272749245 0.774906576
v -0.238993436 0.272749066 0.774906576
v -0.339293122 0.272749245 0.774906576
v -0.339293122 0.271096706 0.775530934
v -0.238993436 0.272749066 0.774906576
v -0.33899343 0.272749245 0.774906576
v -0.33899343 0.274340898 0.774140596
v -0.238993436 0.274340868 0.774140596
v -0.339293122 0.274340898 0.774140596
v -0.339293122 0.272749245 0.774906576
v -0.238993436 0.274340868 0.774140596
v -0.33899343 0.274340898 0.774140596
v -0.33899343 0.275859892 0.773238838
v -0.238993436 0.275859892 0.773238838
v -0.339293122 0.275859892 0.773238838
v -0.339293122 0.274340898 0.774140596
v -0.238993436 0.281981885 0.766965985
v -0.33899343 0.2828466 0.765425622
v -0.238993436 0.2828466 0.765425622
v -0.238993436 0.2828466 0.765425622
v -0.33899343 0.2828466 0.765425622
v -0.33899343 0.283573538 0.763815641
v -0.238993436 0.283573538 0.763815641
v -0.339293122 0.283573538 0.763815641
v -0.339293122 0.2828466 0.765425622
v -0.238993436 0.284157336 0.762148499
v -0.33899343 0.28459388 0.760436833
v -0.238993436 0.284593731 0.760436833
v -0.238993436 0.284593731 0.760436833
v -0.33899343 0.28459388 0.760436833
v -0.33899343 0.284879386 0.758693635
v -0.339293122 0.284879386 0.758693635
v -0.339293122 0.28459388 0.760436833
v -0.238993436 0.284593731 0.760436833
v -0.33899343 0.284879386 0.758693635
v -0.238993436 0.284879386 0.758693635
v -0.238993436 0.284879386 0.758693635
v -0.33899343 0.284879386 0.758693635
v -0.33899343 0.285011977 0.756932199
v -0.238993436 0.285011977 0.756932199
v -0.339293122 0.285011977 0.756932199
v -0.339293122 0.284879386 0.758693635
v -0.238993436 0.285011977 0.756932199
v -0.33899343 0.285011977 0.756932199
v -0.33899343 0.28499046 0.755165815
v -0.238993436 0.28499046 0.755165815
v -0.339293122 0.28499046 0.755165815
v -0.339293122 0.285011977 0.756932199
v -0.238993436 0.28499046 0.755165815
v -0.33899343 0.28499046 0.755165815
v -0.33899343 0.284815133 0.753408074
v -0.238993436 0.284815133 0.753408074
v -0.339293122 0.284815133 0.753408074
v -0.339293122 0.28499046 0.755165815
v -0.238993436 0.284815133 0.753408074
v -0.33899343 0.284815133 0.753408074
v -0.33899343 0.284487218 0.751672328
v -0.238993436 0.284487218 0.751672328
v -0.339293122 0.284487218 0.751672328
v -0.339293122 0.284815133 0.753408074
v -0.238993436 0.284487218 0.751672328
v -0.33899343 0.284487218 0.751672328
v -0.33899343 0.284009337 0.749971628
v -0.238993436 0.284009337 0.749971628
v -0.339293122 0.284009337 0.749971628
v -0.339293122 0.284487218 0.751672328
v -0.238993436 0.284009337 0.749971628
v -0.33899343 0.284009337 0.749971628
v -0.33899343 0.283384949 0.748319209
v -0.238993436 0.283384949 0.748319209
v -0.339293122 0.283384949 0.748319209
v -0.339293122 0.284009337 0.749971628
v -0.238993436 0.283384949 0.748319209
v -0.33899343 0.283384949 0.748319209
v -0.33899343 0.282619119 0.746727407
v -0.238993436 0.282619089 0.746727407
v -0.339293122 0.282619119 0.746727407
v -0.339293122 0.283384949 0.748319209
v -0.238993436 0.282619089 0.746727407
v -0.33899343 0.282619119 0.746727407
v -0.33899343 0.2817173 0.745208561
v -0.238993436 0.2817173 0.745208561
v -0.339293122 0.2817173 0.745208561
v -0.339293122 0.282619119 0.746727407
v -0.238993436 0.2817173 0.745208561
v -0.33899343 0.2817173 0.745208561
v -0.33899343 0.280686587 0.743773937
v -0.238993436 0.280686587 0.743773937
v -0.339293122 0.280686587 0.743773937
v -0.339293122 0.2817173 0.745208561
v -0.238993436 0.280686587 0.743773937
v -0.33899343 0.280686587 0.743773937
v -0.33899343 0.279534847 0.742434621
v -0.238993436 0.279534847 0.742434621
v -0.339293122 0.279534847 0.742434621
v -0.339293122 0.280686587 0.743773937
v -0.238993436 0.279534847 0.742434621
v -0.33899343 0.279534847 0.742434621
v -0.33899343 0.278270662 0.741200924
v -0.238993436 0.278270662 0.741200924
v -0.339293122 0.278270662 0.741200924
v -0.339293122 0.279534847 0.742434621
v -0.238993436 0.278270662 0.741200924
v -0.33899343 0.278270662 0.741200924
v -0.33899343 0.276903778 0.740081966
v -0.238993436 0.276903778 0.740081966
v -0.339293122 0.276903778 0.740081966
v -0.339293122 0.278270662 0.741200924
v -0.238993436 0.276903778 0.740081966
v -0.33899343 0.276903778 0.740081966
v -0.33899343 0.275444448 0.73908639
v -0.238993436 0.275444418 0.73908639
v -0.339293122 0.275444448 0.73908639
v -0.339293122 0.276903778 0.740081966
v -0.238993436 0.275444418 0.73908639
v -0.33899343 0.275444448 0.73908639
v -0.33899343 0.273904055 0.738221824
v -0.238993436 0.273904055 0.738221824
v -0.339293122 0.273904055 0.738221824
v -0.339293122 0.275444448 0.73908639
v -0.238993436 0.273904055 0.738221824
v -0.33899343 0.273904055 0.738221824
v -0.33899343 0.272294104 0.737494826
v -0.238993436 0.272294104 0.737494826
v -0.339293122 0.272294104 0.737494826
v -0.339293122 0.273904055 0.738221824
v -0.238993436 0.272294104 0.737494826
v -0.33899343 0.272294104 0.737494826
v -0.33899343 0.270627081 0.736910939
v -0.238993436 0.270626932 0.736910939
v -0.339293122 0.270627081 0.736910939
v -0.339293122 0.272294104 0.737494826
v -0.238993436 0.270626932 0.736910939
v -0.33899343 0.270627081 0.736910939
v -0.33899343 0.268915355 0.736474574
v -0.339293122 0.268915355 0.736474574
v -0.339293122 0.270627081 0.736910939
v -0.238993436 0.270626932 0.736910939
v -0.33899343 0.268915355 0.736474574
v -0.238993436 0.268915355 0.736474574
v -0.238993436 0.268915355 0.736474574
v -0.33899343 0.268915355 0.736474574
v -0.33899343 0.26717186 0.736188889
v -0.238993436 0.26717186 0.736188889
v -0.339293122 0.26717186 0.736188889
v -0.339293122 0.268915355 0.736474574
v -0.238993436 0.26717186 0.736188889
v -0.33899343 0.26717186 0.736188889
v -0.33899343 0.265410542 0.736056387
v -0.238993436 0.265410542 0.736056387
v -0.339293122 0.265410542 0.736056387
v -0.339293122 0.26717186 0.736188889
v -0.238993436 0.265410542 0.736056387
v -0.33899343 0.265410542 0.736056387
v -0.33899343 0.263644189 0.736077905
v -0.238993436 0.263644189 0.736077905
v -0.339293122 0.263644189 0.736077905
v -0.339293122 0.265410542 0.736056387
v -0.238993436 0.263644189 0.736077905
v -0.33899343 0.263644189 0.736077905
v -0.33899343 0.261886388 0.736253202
v -0.238993436 0.261886388 0.736253202
v -0.339293122 0.261886388 0.736253202
v -0.339293122 0.263644189 0.736077905
v -0.238993436 0.261886388 0.736253202
v -0.33899343 0.261886388 0.736253202
v -0.33899343 0.260150701 0.736581087
v -0.238993436 0.260150701 0.736581087
v -0.339293122 0.260150701 0.736581087
v -0.339293122 0.261886388 0.736253202
v -0.238993436 0.260150701 0.736581087
v -0.33899343 0.260150701 0.736581087
v -0.33899343 0.25845024 0.737059057
v -0.339293122 0.25845024 0.737059057
v -0.339293122 0.260150701 0.736581087
v -0.238993436 0.260150701 0.736581087
v -0.33899343 0.25845024 0.737059057
v -0.238993436 0.258449942 0.737059057
v -0.238993436 0.258449942 0.737059057
v -0.33899343 0.25845024 0.737059057
v -0.33899343 0.256797731 0.737683356
v -0.238993436 0.256797582 0.737683356
v -0.339293122 0.256797731 0.737683356
v -0.339293122 0.25845024 0.737059057
v -0.238993436 0.256797582 0.737683356
v -0.33899343 0.256797731 0.737683356
v -0.33899343 0.255205929 0.738449275
v -0.339293122 0.255205929 0.738449275
v -0.339293122 0.256797731 0.737683356
v -0.238993436 0.256797582 0.737683356
v -0.33899343 0.255205929 0.738449275
v -0.238993436 0.255205929 0.738449275
v -0.238993436 0.255205929 0.738449275
v -0.33899343 0.255205929 0.738449275
v -0.33899343 0.253687084 0.739351034
v -0.339293122 0.253687084 0.739351034
v -0.339293122 0.255205929 0.738449275
v -0.238993436 0.255205929 0.738449275
v -0.33899343 0.253687084 0.739351034
v -0.238993436 0.253686905 0.739351034
v -0.238993436 0.253686905 0.739351034
v -0.33899343 0.253687084 0.739351034
v -0.33899343 0.25225243 0.740381777
v -0.339293122 0.25225243 0.740381777
v -0.339293122 0.253687084 0.739351034
v -0.238993436 0.253686905 0.739351034
v -0.33899343 0.25225243 0.740381777
v -0.238993436 0.25225243 0.740381777
v -0.238993436 0.25225243 0.740381777
v -0.33899343 0.25225243 0.740381777
v -0.33899343 0.250913024 0.741533577
v -0.238993436 0.250913024 0.741533577
v -0.339293122 0.250913024 0.741533577
v -0.339293122 0.25225243 0.740381777
v -0.238993436 0.250913024 0.741533577
v -0.33899343 0.250913024 0.741533577
v -0.33899343 0.249679357 0.742797792
v -0.238993436 0.249679342 0.742797792
v -0.339293122 0.249679357 0.742797792
v -0.339293122 0.250913024 0.741533577
v -0.238993436 0.249679342 0.742797792
v -0.33899343 0.249679357 0.742797792
v -0.33899343 0.248560414 0.744164646
v -0.238993436 0.248560414 0.744164646
v -0.339293122 0.248560414 0.744164646
v -0.339293122 0.249679357 0.742797792
v -0.238993436 0.248560414 0.744164646
v -0.33899343 0.248560414 0.744164646
v -0.33899343 0.247564942 0.745623887
v -0.238993436 0.247564927 0.745623887
v -0.339293122 0.247564942 0.745623887
v -0.339293122 0.248560414 0.744164646
v -0.238993436 0.247564927 0.745623887
v -0.33899343 0.247564942 0.745623887
v -0.33899343 0.246700376 0.747164309
v -0.238993436 0.246700212 0.747164309
v -0.339293122 0.246700376 0.747164309
v -0.339293122 0.247564942 0.745623887
v -0.238993436 0.246700212 0.747164309
v -0.33899343 0.246700376 0.747164309
v -0.33899343 0.245973289 0.748774171
v -0.339293122 0.245973289 0.748774171
v -0.339293122 0.246700376 0.747164309
v -0.238993436 0.246700212 0.747164309
v -0.33899343 0.245973289 0.748774171
v -0.238993436 0.245973289 0.748774171
v -0.238993436 0.245973289 0.748774171
v -0.33899343 0.245973289 0.748774171
v -0.33899343 0.245389342 0.750441372
v -0.238993436 0.245389327 0.750441372
v -0.339293122 0.245389342 0.750441372
v -0.339293122 0.245973289 0.748774171
v -0.238993436 0.245389327 0.750441372
v -0.33899343 0.245389342 0.750441372
v -0.33899343 0.244952932 0.752153039
v -0.238993436 0.244952932 0.752153039
v -0.339293122 0.244952932 0.752153039
v -0.339293122 0.245389342 0.750441372
v -0.238993436 0.244952932 0.752153039
v -0.33899343 0.244952932 0.752153039
v -0.33899343 0.244667441 0.753896356
v -0.238993436 0.244667441 0.753896356
v -0.339293122 0.244667441 0.753896356
v -0.339293122 0.244952932 0.752153039
v -0.238993436 0.244667441 0.753896356
v -0.33899343 0.244667441 0.753896356
v -0.33899343 0.244534835 0.755657792
v -0.238993436 0.244534835 0.755657792
v -0.339293122 0.244534835 0.755657792
v -0.339293122 0.244667441 0.753896356
v -0.238993436 0.244534835 0.755657792
v -0.33899343 0.244534835 0.755657792
v -0.33899343 0.244556352 0.757424176
v -0.238993436 0.244556338 0.757424176
v -0.339293122 0.244556352 0.757424176
v -0.339293122 0.244534835 0.755657792
v -0.238993436 0.244556338 0.757424176
v -0.33899343 0.244556352 0.757424176
v -0.33899343 0.24473168 0.759181917
v -0.238993436 0.24473168 0.759181917
v -0.339293122 0.24473168 0.759181917
v -0.339293122 0.244556352 0.757424176
v -0.238993436 0.24473168 0.759181917
v -0.33899343 0.24473168 0.759181917
v -0.33899343 0.24505958 0.760917664
v -0.238993436 0.24505958 0.760917664
v -0.339293122 0.24505958 0.760917664
v -0.339293122 0.24473168 0.759181917
v -0.238993436 0.24505958 0.760917664
v -0.33899343 0.24505958 0.760917664
v -0.33899343 0.24553749 0.762618244
v -0.238993436 0.245537475 0.762618244
v -0.339293122 0.24553749 0.762618244
v -0.339293122 0.24505958 0.760917664
v -0.238993436 0.245537475 0.762618244
v -0.33899343 0.24553749 0.762618244
v -0.33899343 0.246161729 0.764270663
v -0.238993436 0.246161714 0.764270663
v -0.339293122 0.246161729 0.764270663
v -0.339293122 0.24553749 0.762618244
v -0.238993436 0.246161714 0.764270663
v -0.33899343 0.246161729 0.764270663
v -0.33899343 0.246927708 0.765862405
v -0.238993436 0.246927708 0.765862405
v -0.339293122 0.246927708 0.765862405
v -0.339293122 0.246161729 0.764270663
v -0.238993436 0.246927708 0.765862405
v -0.33899343 0.246927708 0.765862405
v -0.33899343 0.247829512 0.76738143
v -0.339293122 0.247829512 0.76738143
v -0.339293122 0.246927708 0.765862405
v -0.238993436 0.246927708 0.765862405
v -0.33899343 0.247829512 0.76738143
v -0.238993436 0.247829348 0.76738143
v -0.238993436 0.247829348 0.76738143
v -0.33899343 0.247829512 0.76738143
v -0.33899343 0.24886024 0.768815994
v -0.339293122 0.24886024 0.768815994
v -0.339293122 0.247829512 0.76738143
v -0.238993436 0.247829348 0.76738143
v -0.33899343 0.24886024 0.768815994
v -0.238993436 0.248860225 0.768815994
v -0.238993436 0.248860225 0.768815994
v -0.33899343 0.24886024 0.768815994
v -0.33899343 0.250011981 0.770155251
v -0.238993436 0.250011951 0.770155251
v -0.339293122 0.250011981 0.770155251
v -0.339293122 0.24886024 0.768815994
v -0.238993436 0.250011951 0.770155251
v -0.33899343 0.250011981 0.770155251
v -0.33899343 0.251276165 0.771389067
v -0.238993436 0.251276165 0.771389067
v -0.339293122 0.251276165 0.771389067
v -0.339293122 0.250011981 0.770155251
v -0.238993436 0.251276165 0.771389067
v -0.33899343 0.251276165 0.771389067
v -0.33899343 0.252643049 0.772507966
v -0.238993436 0.252643019 0.772507966
v -0.339293122 0.252643049 0.772507966
v -0.339293122 0.251276165 0.771389067
f 1 2 3
f 1 3 4
f 5 6 7
f 5 7 8
f 9 10 11
f 9 11 12
f 13 14 15
f 13 15 16
f 17 18 19
f 17 19 20
f 21 22 23
f 21 23 24
f 25 26 27
f 25 27 28
f 29 30 31
f 29 31 32
f 33 34 35
f 33 35 36
f 37 38 39
f 37 39 40
f 41 42 43
f 41 43 44
f 45 46 47
f 45 47 48
f 49 50 51
f 49 51 52
f 53 54 55
f 53 55 56
f 57 58 59
f 57 59 60
f 61 62 63
f 61 63 64
f 65 66 67
f 65 67 68
f 69 70 71
f 69 71 72
f 73 74 75
f 73 75 76
f 77 78 79
f 77 79 80
f 81 82 83
f 81 83 84
f 85 86 87
f 85 87 88
f 89 90 91
f 89 91 92
f 93 94 95
f 93 95 96
f 97 98 99
f 97 99 100
f 101 102 103
f 101 103 104
f 105 106 107
f 105 107 108
f 109 110 111
f 109 111 112
f 113 114 115
f 113 115 116
f 117 118 119
f 117 119 120
f 121 122 123
f 121 123 124
f 125 126 127
f 125 127 128
f 129 130 131
f 129 131 132
f 133 134 135
f 133 135 136
f 137 138 139
f 137 139 140
f 141 142 143
f 141 143 144
f 145 146 147
f 145 147 148
f 149 150 151
f 149 151 152
f 153 154 155
f 153 155 156
f 157 158 159
f 157 159 160
f 161 162 163
f 161 163 164
f 165 166 167
f 165 167 168
f 169 170 171
f 169 171 172
f 173 174 175
f 173 175 176
f 177 178 179
f 177 179 180
f 181 182 183
f 181 183 184
f 185 186 187
f 185 187 188
f 189 190 191
f 189 191 192
f 193 194 195
f 193 195 196
f 197 198 199
f 197 199 200
f 201 202 203
f 201 203 204
f 205 206 207
f 205 207 208
f 209 210 211
f 209 211 212
f 213 214 215
f 213 215 216
f 217 218 219
f 217 219 220
f 221 222 223
f 221 223 224
f 225 226 227
f 225 227 228
f 229 230 231
f 229 231 232
f 233 234 235
f 233 235 236
f 237 238 239
f 237 239 240
f 241 242 243
f 241 243 244
f 245 246 247
f 245 247 248
f 249 250 251
f 249 251 252
f 253 254 255
f 253 255 256
f 257 258 259
f 257 259 260
f 261 262 263
f 261 263 264
f 265 266 267
f 265 267 268
f 269 270 271
f 269 271 272
f 273 274 275
f 273 275 276
f 277 278 279
f 277 279 280
f 281 282 283
f 281 283 284
f 285 286 287
f 285 287 288
f 289 290 291
f 292 290 289
f 289 291 293
f 292 294 290
f 293 291 295
f 296 294 292
f 293 295 297
f 296 298 294
f 297 295 299
f 300 298 296
f 297 299 301
f 300 302 298
f 301 299 303
f 304 302 300
f 301 303 305
f 304 306 302
f 305 303 307
f 308 306 304
f 305 307 309
f 308 310 306
f 309 307 311
f 312 310 308
f 309 311 313
f 312 314 310
f 313 311 315
f 316 314 312
f 313 315 317
f 316 318 314
f 317 315 319
f 320 318 316
f 317 319 321
f 320 322 318
f 321 319 323
f 324 322 320
f 321 323 325
f 324 326 322
f 325 323 327
f 328 326 324
f 325 327 329
f 328 330 326
f 329 327 331
f 332 330 328
f 329 331 333
f 332 334 330
f 333 331 335
f 336 334 332
f 333 335 337
f 336 338 334
f 337 335 339
f 340 338 336
f 337 339 341
f 340 342 338
f 341 339 343
f 344 342 340
f 341 343 345
f 344 346 342
f 345 343 347
f 348 346 344
f 345 347 349
f 348 350 346
f 349 347 351
f 352 350 348
f 349 351 353
f 352 354 350
f 353 351 355
f 356 354 352
f 353 355 357
f 356 358 354
f 357 355 359
f 360 358 356
f 357 359 361
f 360 362 358
f 361 359 363
f 364 362 360
f 361 363 365
f 364 366 362
f 365 363 367
f 368 366 364
f 365 367 369
f 368 370 366
f 369 367 371
f 372 370 368
f 369 371 373
f 372 374 370
f 373 371 375
f 376 374 372
f 373 375 377
f 376 378 374
f 377 375 379
f 380 378 376
f 377 379 381
f 380 382 378
f 381 379 383
f 384 382 380
f 381 383 385
f 384 386 382
f 385 383 387
f 388 386 384
f 385 387 389
f 388 390 386
f 389 387 391
f 392 390 388
f 389 391 393
f 392 394 390
f 393 391 395
f 396 394 392
f 393 395 397
f 396 398 394
f 397 395 399
f 400 398 396
f 397 399 401
f 400 402 398
f 401 399 403
f 404 402 400
f 401 403 405
f 404 406 402
f 405 403 407
f 408 406 404
f 405 407 409
f 408 410 406
f 409 407 411
f 412 410 408
f 409 411 413
f 412 414 410
f 413 411 415
f 416 414 412
f 413 415 417
f 416 418 414
f 417 415 419
f 420 418 416
f 417 419 421
f 420 422 418
f 421 419 423
f 424 422 420
f 421 423 425
f 424 426 422
f 425 423 427
f 428 426 424
f 425 427 429
f 428 430 426
f 429 427 431
f 432 430 428
f 429 431 432
f 432 431 430
f 433 434 435
f 433 435 436
f 434 437 435
f 434 438 437
f 439 440 441
f 439 441 442
f 440 443 441
f 440 444 443
f 445 446 447
f 445 447 448
f 446 449 447
f 446 450 449
f 451 452 453
f 451 453 454
f 452 455 453
f 452 456 455
f 457 458 459
f 457 459 460
f 458 461 459
f 458 462 461
f 463 464 465
f 464 466 465
f 464 467 466
f 468 469 470
f 468 470 471
f 469 472 470
f 469 473 472
f 474 475 476
f 475 477 476
f 475 478 477
f 479 480 481
f 479 481 482
f 480 483 481
f 480 484 483
f 485 486 487
f 486 488 487
f 486 489 488
f 490 491 492
f 493 494 495
f 494 496 495
f 494 497 496
f 498 499 500
f 501 502 503
f 501 503 504
f 502 505 503
f 502 506 505
f 507 508 509
f 508 510 509
f 508 511 510
f 512 513 514
f 515 516 517
f 515 517 518
f 516 519 517
f 516 520 519
f 521 522 523
f 521 523 524
f 522 525 523
f 522 526 525
f 527 528 529
f 527 529 530
f 528 531 529
f 528 532 531
f 533 534 535
f 533 535 536
f 534 537 535
f 534 538 537
f 539 540 541
f 539 541 542
f 540 543 541
f 540 544 543
f 545 546 547
f 545 547 548
f 546 549 547
f 546 550 549
f 551 552 553
f 551 553 554
f 552 555 553
f 552 556 555
f 557 558 559
f 557 559 560
f 558 561 559
f 558 562 561
f 563 564 565
f 563 565 566
f 564 567 565
f 564 568 567
f 569 570 571
f 572 573 574
f 572 574 575
f 573 576 574
f 573 577 576
f 578 579 580
f 581 582 583
f 582 584 583
f 582 585 584
f 586 587 588
f 589 590 591
f 589 591 592
f 590 593 591
f 590 594 593
f 595 596 597
f 595 597 598
f 596 599 597
f 596 600 599
f 601 602 603
f 601 603 604
f 602 605 603
f 602 606 605
f 607 608 609
f 607 609 610
f 608 611 609
f 608 612 611
f 613 614 615
f 613 615 616
f 614 617 615
f 614 618 617
f 619 620 621
f 619 621 622
f 620 623 621
f 620 624 623
f 625 626 627
f 625 627 628
f 626 629 627
f 626 630 629
f 631 632 633
f 631 633 634
f 632 635 633
f 632 636 635
f 637 638 639
f 637 639 640
f 638 641 639
f 638 642 641
f 643 644 645
f 643 645 646
f 644 647 645
f 644 648 647
f 649 650 651
f 649 651 652
f 650 653 651
f 650 654 653
f 655 656 657
f 655 657 658
f 656 659 657
f 656 660 659
f 661 662 663
f 661 663 664
f 662 665 663
f 662 666 665
f 667 668 669
f 667 669 670
f 668 671 669
f 668 672 671
f 673 674 675
f 673 675 676
f 674 677 675
f 674 678 677
f 679 680 681
f 679 681 682
f 680 683 681
f 680 684 683
f 685 686 687
f 686 688 687
f 686 689 688
f 690 691 692
f 693 694 695
f 693 695 696
f 694 697 695
f 694 698 697
f 699 700 701
f 699 701 702
f 700 703 701
f 700 704 703
f 705 706 707
f 705 707 708
f 706 709 707
f 706 710 709
f 711 712 713
f 711 713 714
f 712 715 713
f 712 716 715
f 717 718 719
f 717 719 720
f 718 721 719
f 718 722 721
f 723 724 725
f 724 726 725
f 724 727 726
f 728 729 730
f 731 732 733
f 731 733 734
f 732 735 733
f 732 736 735
f 737 738 739
f 738 740 739
f 738 741 740
f 742 743 744
f 745 746 747
f 746 748 747
f 746 749 748
f 750 751 752
f 753 754 755
f 754 756 755
f 754 757 756
f 758 759 760
f 761 762 763
f 761 763 764
f 762 765 763
f 762 766 765
f 767 768 769
f 767 769 770
f 768 771 769
f 768 772 771
f 773 774 775
f 773 775 776
f 774 777 775
f 774 778 777
f 779 780 781
f 779 781 782
f 780 783 781
f 780 784 783
f 785 786 787
f 785 787 788
f 786 789 787
f 786 790 789
f 791 792 793
f 792 794 793
f 792 795 794
f 796 797 798
f 799 800 801
f 799 801 802
f 800 803 801
f 800 804 803
f 805 806 807
f 805 807 808
f 806 809 807
f 806 810 809
f 811 812 813
f 811 813 814
f 812 815 813
f 812 816 815
f 817 818 819
f 817 819 820
f 818 821 819
f 818 822 821
f 823 824 825
f 823 825 826
f 824 827 825
f 824 828 827
f 829 830 831
f 829 831 832
f 830 833 831
f 830 834 833
f 835 836 837
f 835 837 838
f 836 839 837
f 836 840 839
f 841 842 843
f 841 843 844
f 842 845 843
f 842 846 845
f 847 848 849
f 847 849 850
f 848 851 849
f 848 852 851
f 853 854 855
f 853 855 856
f 854 857 855
f 854 858 857
f 859 860 861
f 860 862 861
f 860 863 862
f 864 865 866
f 867 868 869
f 868 870 869
f 868 871 870
f 872 873 874
f 875 876 877
f 875 877 878
f 876 879 877
f 876 880 879
f 881 882 883
f 881 883 884
f 882 885 883
f 882 886 885
f 887 888 889
f 887 889 890
f 888 891 889
f 888 892 891
