v 0.0400009342 -0.235802367 0.333308846
v 0.0401143581 -0.233481005 0.332997233
v 0.0422071144 -0.233481005 0.33375895
v 0.0420936905 -0.235802367 0.334070563
v 0.0422071181 -0.209944531 0.33375895
v 0.0422071144 -0.233481005 0.33375895
v 0.0401143581 -0.233481005 0.332997233
v 0.0401143618 -0.209944531 0.332997233
v 0.0420936942 -0.207623169 0.334070563
v 0.0422071181 -0.209944531 0.33375895
v 0.0401143618 -0.209944531 0.332997233
v 0.0400009379 -0.207623169 0.333308846
v 0.0459156111 -0.196828008 0.343959004
v 0.0454436503 -0.204941168 0.34663561
v 0.0459156111 -0.204941168 0.343959004
v 0.0454436503 -0.196828023 0.34663561
v 0.0454436503 -0.196828008 0.341282368
v 0.0440846942 -0.204941168 0.348989397
v 0.0454436503 -0.204941168 0.341282368
v 0.0440846942 -0.196828023 0.348989397
v 0.0440846942 -0.196828008 0.33892858
v 0.0420026556 -0.204941168 0.350736439
v 0.0440846942 -0.204941168 0.33892858
v 0.0420026556 -0.196828023 0.350736439
v 0.0420026518 -0.196828008 0.337181538
v 0.0394486561 -0.204941168 0.351666003
v 0.0420026518 -0.204941168 0.337181538
v 0.0394486561 -0.196828023 0.351666003
v 0.0394486524 -0.196828008 0.336251974
v 0.0367307439 -0.204941168 0.351666003
v 0.0394486524 -0.204941168 0.336251974
v 0.0367307439 -0.196828023 0.351666003
v 0.0367307402 -0.196828008 0.336251974
v 0.0341767445 -0.204941168 0.350736439
v 0.0367307402 -0.204941168 0.336251974
v 0.0341767445 -0.196828023 0.350736439
v 0.0341767408 -0.196828008 0.337181568
v 0.0320947058 -0.204941168 0.348989397
v 0.0341767408 -0.204941168 0.337181568
v 0.0320947058 -0.196828023 0.348989397
v 0.0320947021 -0.196828008 0.33892858
v 0.0307357479 -0.204941168 0.34663561
v 0.0320947021 -0.204941168 0.33892858
v 0.0307357479 -0.196828023 0.34663561
v 0.0307357479 -0.196828008 0.341282368
v 0.030263789 -0.204941168 0.343959004
v 0.0307357479 -0.204941168 0.341282368
v 0.030263789 -0.196828008 0.343959004
v 0.0396606699 -0.237460479 0.334243715
v 0.0400009342 -0.235802367 0.333308846
v 0.0420936905 -0.235802367 0.334070563
v 0.0417534262 -0.237460479 0.335005432
v 0.0417534299 -0.205965057 0.335005432
v 0.0420936942 -0.207623169 0.334070563
v 0.0400009379 -0.207623169 0.333308846
v 0.0396606736 -0.205965057 0.334243715
v 0.0390935577 -0.238455355 0.33580184
v 0.0396606699 -0.237460479 0.334243715
v 0.0417534262 -0.237460479 0.335005432
v 0.0411863141 -0.238455355 0.336563528
v 0.0411863215 -0.204970196 0.336563528
v 0.0417534299 -0.205965057 0.335005432
v 0.0396606736 -0.205965057 0.334243715
v 0.0390935652 -0.204970196 0.33580184
v 0.0382996053 -0.238786981 0.337983191
v 0.0390935577 -0.238455355 0.33580184
v 0.0411863141 -0.238455355 0.336563528
v 0.0403923616 -0.238786981 0.338744909
v 0.0401143618 -0.209944531 0.332997233
v 0.0401143581 -0.233481005 0.332997233
v 0.0400009342 -0.235802367 0.333308846
v 0.0396606699 -0.237460479 0.334243715
v 0.0390935577 -0.238455355 0.33580184
v 0.0382996053 -0.238786981 0.337983191
v 0.0347352438 -0.238786966 0.347776175
v 0.0339412913 -0.238455355 0.349957526
v 0.0333741829 -0.237460479 0.351515651
v 0.0330339186 -0.235802367 0.35245052
v 0.0329204947 -0.233481005 0.352762133
v 0.0329204984 -0.209944531 0.352762133
v 0.0330339223 -0.207623169 0.35245052
v 0.0333741866 -0.205965057 0.351515651
v 0.0339412987 -0.204970196 0.349957526
v 0.0347352512 -0.204638571 0.347776175
v 0.0400009379 -0.207623169 0.333308846
v 0.0396606736 -0.205965057 0.334243715
v 0.0390935652 -0.204970196 0.33580184
v 0.0382996127 -0.204638571 0.337983191
v 0.0403923616 -0.238786981 0.338744909
v 0.0368280001 -0.238786981 0.348537862
v 0.0347352438 -0.238786966 0.347776175
v 0.0382996053 -0.238786981 0.337983191
v 0.0401793271 -0.182008043 0.909636021
v 0.0376712233 -0.182008043 0.916526973
v 0.0395328067 -0.182008043 0.9133026
v 0.0348191112 -0.182008043 0.918920159
v 0.039532803 -0.182008043 0.905969381
v 0.0376712196 -0.182008043 0.902745008
v 0.0313204825 -0.182008043 0.920193553
v 0.0348191075 -0.182008043 0.900351822
v 0.0275973156 -0.182008043 0.920193553
v 0.0313204788 -0.182008043 0.899078429
v 0.024098685 -0.182008043 0.918920159
v 0.0275973137 -0.182008043 0.899078429
v 0.0212465767 -0.182008043 0.916526973
v 0.0240986831 -0.182008043 0.900351822
v 0.0193849932 -0.182008043 0.9133026
v 0.0212465748 -0.182008043 0.902745008
v 0.0187384728 -0.182008043 0.909636021
v 0.0193849932 -0.182008043 0.905969381
v 0.0339412913 -0.238455355 0.349957526
v 0.0347352438 -0.238786966 0.347776175
v 0.0368280001 -0.238786981 0.348537862
v 0.0360340476 -0.238455355 0.350719243
v 0.040392369 -0.204638571 0.338744909
v 0.0411863215 -0.204970196 0.336563528
v 0.0390935652 -0.204970196 0.33580184
v 0.0382996127 -0.204638571 0.337983191
v 0.0488101281 -0.186176017 0.343959004
v 0.0463020243 -0.186176017 0.350849956
v 0.0481636077 -0.186176017 0.347625583
v 0.0434499122 -0.186176017 0.353243142
v 0.048163604 -0.186176017 0.340292394
v 0.0463020205 -0.186176017 0.337068021
v 0.0399512835 -0.186176017 0.354516566
v 0.0434499085 -0.186176017 0.334674835
v 0.0362281166 -0.186176017 0.354516566
v 0.039951276 -0.186176017 0.333401442
v 0.0327294841 -0.186176017 0.353243142
v 0.0362281129 -0.186176017 0.333401442
v 0.0298773758 -0.186176017 0.350849956
v 0.0327294841 -0.186176017 0.334674835
v 0.0280157942 -0.186176017 0.347625583
v 0.0298773739 -0.186176017 0.337068051
v 0.0273692738 -0.186176017 0.343959004
v 0.0280157942 -0.186176017 0.340292394
v 0.0454436503 -0.196828023 0.34663561
v 0.0459156111 -0.196828008 0.343959004
v 0.0454436503 -0.196828008 0.341282368
v 0.0420026556 -0.196828023 0.350736439
v 0.0440846942 -0.196828023 0.348989397
v 0.0440846942 -0.196828008 0.33892858
v 0.0394486561 -0.196828023 0.351666003
v 0.0420026518 -0.196828008 0.337181538
v 0.0367307439 -0.196828023 0.351666003
v 0.0394486524 -0.196828008 0.336251974
v 0.0341767445 -0.196828023 0.350736439
v 0.0367307402 -0.196828008 0.336251974
v 0.0320947058 -0.196828023 0.348989397
v 0.0341767408 -0.196828008 0.337181568
v 0.0307357479 -0.196828023 0.34663561
v 0.0320947021 -0.196828008 0.33892858
v 0.030263789 -0.196828008 0.343959004
v 0.0307357479 -0.196828008 0.341282368
v 0.0459156111 -0.204941168 0.343959004
v 0.0454436503 -0.204941168 0.34663561
v 0.0440846942 -0.204941168 0.348989397
v 0.0440846942 -0.204941168 0.33892858
v 0.0454436503 -0.204941168 0.341282368
v 0.0420026556 -0.204941168 0.350736439
v 0.0420026518 -0.204941168 0.337181538
v 0.0394486561 -0.204941168 0.351666003
v 0.0394486524 -0.204941168 0.336251974
v 0.0367307439 -0.204941168 0.351666003
v 0.0367307402 -0.204941168 0.336251974
v 0.0341767445 -0.204941168 0.350736439
v 0.0341767408 -0.204941168 0.337181568
v 0.0320947058 -0.204941168 0.348989397
v 0.0320947021 -0.204941168 0.33892858
v 0.0307357479 -0.204941168 0.34663561
v 0.0307357479 -0.204941168 0.341282368
v 0.030263789 -0.204941168 0.343959004
v 0.0481636077 -0.202084154 0.347625583
v 0.048163604 -0.202084154 0.340292394
v 0.0488101281 -0.202084154 0.343959004
v 0.0463020205 -0.202084154 0.337068021
v 0.0463020243 -0.202084154 0.350849956
v 0.0434499122 -0.202084154 0.353243142
v 0.0434499085 -0.202084154 0.334674835
v 0.0399512835 -0.202084154 0.354516536
v 0.039951276 -0.202084154 0.333401442
v 0.0362281166 -0.202084154 0.354516536
v 0.0362281129 -0.202084154 0.333401442
v 0.0327294841 -0.202084154 0.353243142
v 0.0327294841 -0.202084154 0.334674835
v 0.0298773758 -0.202084154 0.350849956
v 0.0298773739 -0.202084154 0.337068021
v 0.0280157942 -0.202084154 0.347625583
v 0.0280157942 -0.202084154 0.340292394
v 0.0273692738 -0.202084154 0.343959004
v 0.0368280075 -0.204638571 0.348537862
v 0.040392369 -0.204638571 0.338744909
v 0.0382996127 -0.204638571 0.337983191
v 0.0347352512 -0.204638571 0.347776175
v 0.0488101281 -0.186176017 0.343959004
v 0.0481636077 -0.202084154 0.347625583
v 0.0488101281 -0.202084154 0.343959004
v 0.0481636077 -0.186176017 0.347625583
v 0.048163604 -0.186176017 0.340292394
v 0.0463020243 -0.202084154 0.350849956
v 0.048163604 -0.202084154 0.340292394
v 0.0463020243 -0.186176017 0.350849956
v 0.0463020205 -0.186176017 0.337068021
v 0.0434499122 -0.202084154 0.353243142
v 0.0463020205 -0.202084154 0.337068021
v 0.0434499122 -0.186176017 0.353243142
v 0.0434499085 -0.186176017 0.334674835
v 0.0399512835 -0.202084154 0.354516536
v 0.0434499085 -0.202084154 0.334674835
v 0.0399512835 -0.186176017 0.354516566
v 0.039951276 -0.186176017 0.333401442
v 0.0362281166 -0.202084154 0.354516536
v 0.039951276 -0.202084154 0.333401442
v 0.0362281166 -0.186176017 0.354516566
v 0.0362281129 -0.186176017 0.333401442
v 0.0327294841 -0.202084154 0.353243142
v 0.0362281129 -0.202084154 0.333401442
v 0.0327294841 -0.186176017 0.353243142
v 0.0327294841 -0.186176017 0.334674835
v 0.0298773758 -0.202084154 0.350849956
v 0.0327294841 -0.202084154 0.334674835
v 0.0298773758 -0.186176017 0.350849956
v 0.0298773739 -0.186176017 0.337068051
v 0.0280157942 -0.202084154 0.347625583
v 0.0298773739 -0.202084154 0.337068021
v 0.0280157942 -0.186176017 0.347625583
v 0.0280157942 -0.186176017 0.340292394
v 0.0273692738 -0.202084154 0.343959004
v 0.0280157942 -0.202084154 0.340292394
v 0.0273692738 -0.186176017 0.343959004
v 0.0395328067 -0.19791618 0.9133026
v 0.039532803 -0.19791618 0.905969381
v 0.0401793271 -0.19791618 0.909636021
v 0.0376712196 -0.19791618 0.902745008
v 0.0376712233 -0.19791618 0.916526973
v 0.0348191112 -0.19791618 0.918920159
v 0.0348191075 -0.19791618 0.900351822
v 0.0313204825 -0.19791618 0.920193553
v 0.0313204788 -0.19791618 0.899078429
v 0.0275973156 -0.19791618 0.920193553
v 0.0275973137 -0.19791618 0.899078429
v 0.024098685 -0.19791618 0.918920159
v 0.0240986831 -0.19791618 0.900351822
v 0.0212465767 -0.19791618 0.916526973
v 0.0212465748 -0.19791618 0.902745008
v 0.0193849932 -0.19791618 0.9133026
v 0.0193849932 -0.19791618 0.905969381
v 0.0187384728 -0.19791618 0.909636021
v 0.0347352512 -0.204638571 0.347776175
v 0.0339412987 -0.204970196 0.349957526
v 0.0360340551 -0.204970196 0.350719243
v 0.0368280075 -0.204638571 0.348537862
v 0.0333741829 -0.237460479 0.351515651
v 0.0339412913 -0.238455355 0.349957526
v 0.0360340476 -0.238455355 0.350719243
v 0.0354669392 -0.237460479 0.352277339
v 0.040392369 -0.204638571 0.338744909
v 0.0368280075 -0.204638571 0.348537862
v 0.0360340551 -0.204970196 0.350719243
v 0.0354669429 -0.205965057 0.352277339
v 0.0351266786 -0.207623169 0.353212208
v 0.0350132547 -0.209944531 0.35352385
v 0.035013251 -0.233481005 0.35352385
v 0.0351266749 -0.235802367 0.353212208
v 0.0354669392 -0.237460479 0.352277339
v 0.0360340476 -0.238455355 0.350719243
v 0.0368280001 -0.238786981 0.348537862
v 0.0403923616 -0.238786981 0.338744909
v 0.0411863141 -0.238455355 0.336563528
v 0.0417534262 -0.237460479 0.335005432
v 0.0420936905 -0.235802367 0.334070563
v 0.0422071144 -0.233481005 0.33375895
v 0.0411863215 -0.204970196 0.336563528
v 0.0417534299 -0.205965057 0.335005432
v 0.0420936942 -0.207623169 0.334070563
v 0.0422071181 -0.209944531 0.33375895
v 0.0339412987 -0.204970196 0.349957526
v 0.0333741866 -0.205965057 0.351515651
v 0.0354669429 -0.205965057 0.352277339
v 0.0360340551 -0.204970196 0.350719243
v 0.0330339186 -0.235802367 0.35245052
v 0.0333741829 -0.237460479 0.351515651
v 0.0354669392 -0.237460479 0.352277339
v 0.0351266749 -0.235802367 0.353212208
v 0.0333741866 -0.205965057 0.351515651
v 0.0330339223 -0.207623169 0.35245052
v 0.0351266786 -0.207623169 0.353212208
v 0.0354669429 -0.205965057 0.352277339
v 0.0329204947 -0.233481005 0.352762133
v 0.0330339186 -0.235802367 0.35245052
v 0.0351266749 -0.235802367 0.353212208
v 0.035013251 -0.233481005 0.35352385
v 0.0330339223 -0.207623169 0.35245052
v 0.0329204984 -0.209944531 0.352762133
v 0.0350132547 -0.209944531 0.35352385
v 0.0351266786 -0.207623169 0.353212208
v 0.035013251 -0.233481005 0.35352385
v 0.0350132547 -0.209944531 0.35352385
v 0.0329204984 -0.209944531 0.352762133
v 0.0329204947 -0.233481005 0.352762133
v 0.0401793271 -0.182008043 0.909636021
v 0.0395328067 -0.19791618 0.9133026
v 0.0401793271 -0.19791618 0.909636021
v 0.0395328067 -0.182008043 0.9133026
v 0.039532803 -0.182008043 0.905969381
v 0.0376712233 -0.19791618 0.916526973
v 0.039532803 -0.19791618 0.905969381
v 0.0376712233 -0.182008043 0.916526973
v 0.0376712196 -0.182008043 0.902745008
v 0.0348191112 -0.19791618 0.918920159
v 0.0376712196 -0.19791618 0.902745008
v 0.0348191112 -0.182008043 0.918920159
v 0.0348191075 -0.182008043 0.900351822
v 0.0313204825 -0.19791618 0.920193553
v 0.0348191075 -0.19791618 0.900351822
v 0.0313204825 -0.182008043 0.920193553
v 0.0313204788 -0.182008043 0.899078429
v 0.0275973156 -0.19791618 0.920193553
v 0.0313204788 -0.19791618 0.899078429
v 0.0275973156 -0.182008043 0.920193553
v 0.0275973137 -0.182008043 0.899078429
v 0.024098685 -0.19791618 0.918920159
v 0.0275973137 -0.19791618 0.899078429
v 0.024098685 -0.182008043 0.918920159
v 0.0240986831 -0.182008043 0.900351822
v 0.0212465767 -0.19791618 0.916526973
v 0.0240986831 -0.19791618 0.900351822
v 0.0212465767 -0.182008043 0.916526973
v 0.0212465748 -0.182008043 0.902745008
v 0.0193849932 -0.19791618 0.9133026
v 0.0212465748 -0.19791618 0.902745008
v 0.0193849932 -0.182008043 0.9133026
v 0.0193849932 -0.182008043 0.905969381
v 0.0187384728 -0.19791618 0.909636021
v 0.0193849932 -0.19791618 0.905969381
v 0.0187384728 -0.182008043 0.909636021
f 1 2 3
f 3 4 1
f 5 6 7
f 7 8 5
f 9 10 11
f 11 12 9
f 13 14 15
f 13 16 14
f 17 13 15
f 16 18 14
f 17 15 19
f 16 20 18
f 21 17 19
f 20 22 18
f 21 19 23
f 20 24 22
f 25 21 23
f 24 26 22
f 25 23 27
f 24 28 26
f 29 25 27
f 28 30 26
f 29 27 31
f 28 32 30
f 33 29 31
f 32 34 30
f 33 31 35
f 32 36 34
f 37 33 35
f 36 38 34
f 37 35 39
f 36 40 38
f 41 37 39
f 40 42 38
f 41 39 43
f 40 44 42
f 45 41 43
f 44 46 42
f 45 43 47
f 44 48 46
f 48 45 47
f 48 47 46
f 49 50 51
f 51 52 49
f 53 54 55
f 55 56 53
f 57 58 59
f 59 60 57
f 61 62 63
f 63 64 61
f 65 66 67
f 67 68 65
f 69 70 71
f 69 71 72
f 69 72 73
f 69 73 74
f 74 75 76
f 74 76 77
f 74 77 78
f 74 78 79
f 69 74 79
f 79 80 81
f 79 81 82
f 79 82 83
f 79 83 84
f 69 79 84
f 85 69 84
f 86 85 84
f 87 86 84
f 88 87 84
f 89 90 91
f 91 92 89
f 93 94 95
f 93 96 94
f 93 97 98
f 93 99 96
f 93 98 100
f 93 101 99
f 93 100 102
f 93 103 101
f 93 102 104
f 93 105 103
f 93 104 106
f 93 107 105
f 93 106 108
f 93 109 107
f 93 108 110
f 93 110 109
f 111 112 113
f 113 114 111
f 115 116 117
f 117 118 115
f 119 120 121
f 119 122 120
f 119 123 124
f 119 125 122
f 119 124 126
f 119 127 125
f 119 126 128
f 119 129 127
f 119 128 130
f 119 131 129
f 119 130 132
f 119 133 131
f 119 132 134
f 119 135 133
f 119 134 136
f 119 136 135
f 137 138 139
f 137 140 141
f 137 139 142
f 137 143 140
f 137 142 144
f 137 145 143
f 137 144 146
f 137 147 145
f 137 146 148
f 137 149 147
f 137 148 150
f 137 151 149
f 137 150 152
f 137 153 151
f 137 152 154
f 137 154 153
f 155 156 157
f 155 158 159
f 155 157 160
f 155 161 158
f 155 160 162
f 155 163 161
f 155 162 164
f 155 165 163
f 155 164 166
f 155 167 165
f 155 166 168
f 155 169 167
f 155 168 170
f 155 171 169
f 155 170 172
f 155 172 171
f 173 174 175
f 173 176 174
f 173 177 178
f 173 179 176
f 173 178 180
f 173 181 179
f 173 180 182
f 173 183 181
f 173 182 184
f 173 185 183
f 173 184 186
f 173 187 185
f 173 186 188
f 173 189 187
f 173 188 190
f 173 190 189
f 191 192 193
f 193 194 191
f 195 196 197
f 195 198 196
f 199 195 197
f 198 200 196
f 199 197 201
f 198 202 200
f 203 199 201
f 202 204 200
f 203 201 205
f 202 206 204
f 207 203 205
f 206 208 204
f 207 205 209
f 206 210 208
f 211 207 209
f 210 212 208
f 211 209 213
f 210 214 212
f 215 211 213
f 214 216 212
f 215 213 217
f 214 218 216
f 219 215 217
f 218 220 216
f 219 217 221
f 218 222 220
f 223 219 221
f 222 224 220
f 223 221 225
f 222 226 224
f 227 223 225
f 226 228 224
f 227 225 229
f 226 230 228
f 230 227 229
f 230 229 228
f 231 232 233
f 231 234 232
f 231 235 236
f 231 237 234
f 231 236 238
f 231 239 237
f 231 238 240
f 231 241 239
f 231 240 242
f 231 243 241
f 231 242 244
f 231 245 243
f 231 244 246
f 231 247 245
f 231 246 248
f 231 248 247
f 249 250 251
f 251 252 249
f 253 254 255
f 255 256 253
f 257 258 259
f 257 259 260
f 257 260 261
f 257 261 262
f 262 263 264
f 262 264 265
f 262 265 266
f 262 266 267
f 257 262 267
f 267 268 269
f 267 269 270
f 267 270 271
f 267 271 272
f 257 267 272
f 273 257 272
f 274 273 272
f 275 274 272
f 276 275 272
f 277 278 279
f 279 280 277
f 281 282 283
f 283 284 281
f 285 286 287
f 287 288 285
f 289 290 291
f 291 292 289
f 293 294 295
f 295 296 293
f 297 298 299
f 299 300 297
f 301 302 303
f 301 304 302
f 305 301 303
f 304 306 302
f 305 303 307
f 304 308 306
f 309 305 307
f 308 310 306
f 309 307 311
f 308 312 310
f 313 309 311
f 312 314 310
f 313 311 315
f 312 316 314
f 317 313 315
f 316 318 314
f 317 315 319
f 316 320 318
f 321 317 319
f 320 322 318
f 321 319 323
f 320 324 322
f 325 321 323
f 324 326 322
f 325 323 327
f 324 328 326
f 329 325 327
f 328 330 326
f 329 327 331
f 328 332 330
f 333 329 331
f 332 334 330
f 333 331 335
f 332 336 334
f 336 333 335
f 336 335 334
