v 0.597971678 -0.195539787 1.49991846
v 0.598671675 -0.195539787 1.49921846
v 0.598671675 0.238060221 1.49921846
v 0.597971678 0.238060221 1.49991846
v -0.597970307 0.238060206 1.49991846
v -0.598670304 0.238060206 1.49921846
v -0.598670304 -0.195539802 1.49921846
v -0.597970307 -0.195539802 1.49991846
v -0.598670185 -0.180302545 1.47947431
v -0.597970188 -0.180302545 1.4801743
v -0.597970188 0.238060221 1.4801743
v -0.598670185 0.238060221 1.47947431
v 0.598669767 -0.180302545 1.47947466
v 0.598669767 0.238060221 1.47947466
v 0.59796983 0.238060221 1.48017478
v 0.59796983 -0.180302545 1.48017478
v -0.597931266 -0.182442382 1.48016036
v -0.598631382 -0.182442382 1.47946036
v -0.598631382 -0.195538998 1.47946036
v -0.597931266 -0.195538998 1.48016036
v 0.59793061 -0.182442382 1.48016036
v 0.59793061 -0.195538998 1.48016036
v 0.598630667 -0.195538998 1.47946036
v 0.598630667 -0.182442382 1.47946036
v -0.598670304 0.238060206 1.49921846
v -0.597970307 0.238060206 1.49991846
v -0.597970307 0.238760203 1.49921846
v 0.597971678 0.238760218 1.49921846
v 0.597971678 0.238060221 1.49991846
v 0.598671675 0.238060221 1.49921846
v 0.578191519 0.234504044 1.48019505
v 0.578891516 0.234504044 1.47949493
v 0.578891516 0.238085583 1.47949493
v 0.578191519 0.238085583 1.48019505
v -0.578166544 0.238085583 1.48019505
v -0.578866541 0.238085583 1.47949493
v -0.578866541 0.234504044 1.47949493
v -0.578166544 0.234504044 1.48019505
v -0.597970188 0.238060221 1.4801743
v -0.597970188 0.238760218 1.47947431
v -0.598670185 0.238060221 1.47947431
v 0.59796983 0.238060221 1.48017478
v 0.598669767 0.238060221 1.47947466
v 0.59796983 0.238760218 1.47947466
v -0.578166544 0.238085583 1.48019505
v -0.578166544 0.23878558 1.47949493
v -0.578866541 0.238085583 1.47949493
v 0.578891516 0.238085583 1.47949493
v 0.578191519 0.23878558 1.47949493
v 0.578191519 0.238085583 1.48019505
v -0.597970307 -0.195539698 -4.3418535e-17
v -0.598670304 -0.195539698 0.000699999917
v -0.598670304 0.23806031 0.000699999859
v -0.597970307 0.23806031 5.28600076e-17
v 0.597971678 0.23806031 5.28600076e-17
v 0.598671675 0.23806031 0.000699999335
v 0.598671675 -0.195539698 0.000699999335
v 0.597971678 -0.195539698 -4.3418535e-17
v -0.598670304 0.23806031 0.000699999859
v -0.597970307 0.238760307 0.000699999859
v -0.597970307 0.23806031 5.28600076e-17
v 0.597971678 0.23806031 5.28600076e-17
v 0.597971678 0.238760307 0.000699999335
v 0.598671675 0.23806031 0.000699999335
v -0.597970307 -0.196239799 1.49921846
v -0.597970307 -0.195539802 1.49991846
v -0.598670304 -0.195539802 1.49921846
v 0.598671675 -0.195539787 1.49921846
v 0.597971678 -0.195539787 1.49991846
v 0.597971678 -0.196239784 1.49921846
v -0.597931266 -0.195538998 1.48016036
v -0.598631382 -0.195538998 1.47946036
v -0.597931266 -0.196239009 1.47946036
v 0.59793061 -0.195538998 1.48016036
v 0.59793061 -0.196239009 1.47946036
v 0.598630667 -0.195538998 1.47946036
v -0.597970188 -0.181002542 1.47947431
v -0.597970188 -0.180302545 1.4801743
v -0.598670185 -0.180302545 1.47947431
v 0.59796983 -0.181002542 1.47947466
v 0.598669767 -0.180302545 1.47947466
v 0.59796983 -0.180302545 1.48017478
v -0.598670065 0.238060281 0.0463779829
v -0.597970009 0.238760278 0.0463779829
v -0.597970009 0.238060281 0.0456779823
v 0.598670542 0.238060281 0.0463783592
v 0.597970545 0.238060281 0.0456783585
v 0.597970545 0.238760278 0.0463783592
v -0.598670065 0.238060281 0.0463779829
v -0.597970009 0.238060281 0.0456779823
v -0.597970009 -0.180302486 0.0456779748
v -0.598670065 -0.180302486 0.0463779718
v 0.598670542 0.238060281 0.0463783592
v 0.598670542 -0.180302486 0.046378348
v 0.597970605 -0.180302486 0.0456783511
v 0.597970605 -0.180302486 0.0456783511
v 0.597970545 0.238060281 0.0456783585
v 0.598670542 0.238060281 0.0463783592
v -0.597948134 -0.195539117 0.0456323922
v -0.598648131 -0.195539117 0.0463323891
v -0.598648131 -0.182442501 0.0463323891
v -0.597948134 -0.182442501 0.0456323922
v 0.597947478 -0.195539117 0.0456323922
v 0.597947478 -0.182442501 0.0456323922
v 0.598647475 -0.182442501 0.0463323891
v 0.598647475 -0.195539117 0.0463323891
v -0.578866422 0.238085568 0.046389427
v -0.578166425 0.238785565 0.046389427
v -0.578166425 0.238085568 0.0456894301
v 0.578191519 0.238085568 0.0456894375
v 0.578191519 0.23878558 0.0463894345
v 0.578891516 0.238085568 0.0463894345
v 0.578891516 0.234504029 0.0463894345
v 0.578191519 0.234504029 0.0456894375
v 0.578191519 0.238085568 0.0456894375
v 0.578891516 0.238085568 0.0463894345
v -0.578166425 0.234504029 0.0456894375
v -0.578866422 0.234504029 0.0463894345
v -0.578866422 0.238085568 0.046389427
v -0.578166425 0.238085568 0.0456894301
v -0.597970307 -0.196239695 0.000699999859
v -0.598670304 -0.195539698 0.000699999917
v -0.597970307 -0.195539698 -4.3418535e-17
v 0.597971678 -0.195539698 -4.3418535e-17
v 0.598671675 -0.195539698 0.000699999335
v 0.597971678 -0.196239695 0.000699999335
v -0.597970307 -0.195539802 1.49991846
v 0.597971678 -0.195539787 1.49991846
v 0.597971678 0.238060221 1.49991846
v -0.597970307 0.238060206 1.49991846
v -0.598648131 -0.195539117 0.0463323891
v -0.597948134 -0.195539117 0.0456323922
v -0.597948134 -0.196239114 0.0463323891
v 0.598647475 -0.195539117 0.0463323891
v 0.597947478 -0.196239114 0.0463323891
v 0.597947478 -0.195539117 0.0456323922
v -0.597970188 0.238060221 1.4801743
v -0.597970188 -0.180302545 1.4801743
v -0.579586625 -0.180302545 1.48017442
v -0.579586625 0.238060221 1.48017442
v 0.59796983 0.238060221 1.48017478
v 0.579586208 0.238060221 1.48017478
v 0.579586208 -0.180302545 1.48017478
v 0.59796983 -0.180302545 1.48017478
v -0.578166544 0.234504044 1.48019505
v 0.578191519 0.234504044 1.48019505
v 0.578191519 0.238085583 1.48019505
v -0.578166544 0.238085583 1.48019505
v -0.597931266 -0.195538998 1.48016036
v -0.00119143783 -0.195538998 1.48016036
v -0.00119139964 -0.182442382 1.48016036
v -0.597931266 -0.182442382 1.48016036
v 0.59793061 -0.195538998 1.48016036
v 0.59793061 -0.182442382 1.48016036
v 0.00119072618 -0.182442382 1.48016036
v 0.00119076436 -0.195538998 1.48016036
v -0.598670065 -0.180302486 0.0463779718
v -0.597970009 -0.180302486 0.0456779748
v -0.597970009 -0.181002483 0.0463779718
v 0.598670542 -0.180302486 0.046378348
v 0.597970545 -0.181002483 0.046378348
v 0.597970605 -0.180302486 0.0456783511
v 0.597971678 0.238060221 1.49991846
v 0.597971678 0.238760218 1.49921846
v -0.597970307 0.238760203 1.49921846
v -0.597970307 0.238060206 1.49991846
v -0.597970188 0.238760218 1.47947431
v -0.597970188 0.238060221 1.4801743
v -0.579586625 0.238060221 1.48017442
v -0.579586625 0.238760218 1.47947431
v 0.59796983 0.238760218 1.47947466
v 0.579586208 0.238760218 1.47947466
v 0.579586208 0.238060221 1.48017478
v 0.59796983 0.238060221 1.48017478
v -0.578166544 0.23878558 1.47949493
v -0.578166544 0.238085583 1.48019505
v 0.578191519 0.238085583 1.48019505
v 0.578191519 0.23878558 1.47949493
v -0.597931266 -0.182442382 1.48016036
v -0.597931266 -0.181742385 1.47946036
v -0.598631382 -0.182442382 1.47946036
v 0.59793061 -0.182442382 1.48016036
v 0.598630667 -0.182442382 1.47946036
v 0.59793061 -0.181742385 1.47946036
v -0.597970307 0.23806031 5.28600076e-17
v -0.597970307 0.238760307 0.000699999859
v 0.597971678 0.238760307 0.000699999335
v 0.597971678 0.23806031 5.28600076e-17
v -0.597970307 -0.195539698 -4.3418535e-17
v -0.597970307 0.23806031 5.28600076e-17
v 0.597971678 0.23806031 5.28600076e-17
v 0.597971678 -0.195539698 -4.3418535e-17
v -0.597970307 -0.195539802 1.49991846
v -0.597970307 -0.196239799 1.49921846
v 0.597971678 -0.196239784 1.49921846
v 0.597971678 -0.195539787 1.49991846
v -0.00119143783 -0.196239009 1.47946036
v -0.00119143783 -0.195538998 1.48016036
v -0.597931266 -0.195538998 1.48016036
v -0.597931266 -0.196239009 1.47946036
v 0.00119076436 -0.196239009 1.47946036
v 0.59793061 -0.196239009 1.47946036
v 0.59793061 -0.195538998 1.48016036
v 0.00119076436 -0.195538998 1.48016036
v -0.579586625 -0.181002542 1.47947431
v -0.579586625 -0.180302545 1.48017442
v -0.597970188 -0.180302545 1.4801743
v -0.597970188 -0.181002542 1.47947431
v 0.579586208 -0.181002542 1.47947466
v 0.59796983 -0.181002542 1.47947466
v 0.59796983 -0.180302545 1.48017478
v 0.579586208 -0.180302545 1.48017478
v -0.597970009 0.238060281 0.0456779823
v -0.597970009 0.238760278 0.0463779829
v -0.579586446 0.238760278 0.0463779867
v -0.579586446 0.238060281 0.0456779934
v 0.597970545 0.238060281 0.0456783585
v 0.579586983 0.238060281 0.0456783548
v 0.579586983 0.238760278 0.046378348
v 0.597970545 0.238760278 0.0463783592
v 0.578191519 0.23878558 0.0463894345
v 0.578191519 0.238085568 0.0456894375
v -0.578166425 0.238085568 0.0456894301
v -0.578166425 0.238785565 0.046389427
v -0.597970009 -0.180302486 0.0456779748
v -0.597970009 0.238060281 0.0456779823
v -0.579586446 0.238060281 0.0456779934
v -0.579586446 -0.180302486 0.0456779823
v 0.597970605 -0.180302486 0.0456783511
v 0.579586983 -0.180302486 0.0456783473
v 0.579586983 0.238060281 0.0456783548
v 0.597970545 0.238060281 0.0456783585
v 0.578191519 0.234504029 0.0456894375
v -0.578166425 0.234504029 0.0456894375
v -0.578166425 0.238085568 0.0456894301
v 0.578191519 0.238085568 0.0456894375
v -0.00119143783 -0.195539117 0.0456323922
v -0.597948134 -0.195539117 0.0456323922
v -0.597948134 -0.182442501 0.0456323922
v -0.00119139964 -0.182442501 0.0456323735
v 0.00119076436 -0.195539117 0.0456323922
v 0.00119072618 -0.182442501 0.0456323735
v 0.597947478 -0.182442501 0.0456323922
v 0.597947478 -0.195539117 0.0456323922
v -0.598648131 -0.182442501 0.0463323891
v -0.597948134 -0.181742504 0.0463323891
v -0.597948134 -0.182442501 0.0456323922
v 0.598647475 -0.182442501 0.0463323891
v 0.597947478 -0.182442501 0.0456323922
v 0.597947478 -0.181742504 0.0463323891
v -0.578166544 0.234504044 1.48019505
v -0.578866541 0.234504044 1.47949493
v -0.578166544 0.233804047 1.47949493
v 0.578191519 0.233804047 1.47949493
v 0.578891516 0.234504044 1.47949493
v 0.578191519 0.234504044 1.48019505
v 0.598671675 0.23806031 0.000699999335
v 0.597971678 0.238760307 0.000699999335
v 0.597971678 0.238760307 0.0449500233
v 0.598671675 0.23806031 0.0449500233
v -0.597970307 0.238760307 0.000699999859
v -0.598670304 0.23806031 0.000699999859
v -0.598670304 0.23806031 0.0449500233
v -0.597970307 0.238760307 0.0449500233
v -0.598670185 0.238060221 1.47947431
v -0.597970188 0.238760218 1.47947431
v -0.597970009 0.238760278 0.0463779829
v -0.598670065 0.238060281 0.0463779829
v 0.598669767 0.238060221 1.47947466
v 0.598670542 0.238060281 0.0463783592
v 0.597970545 0.238760278 0.0463783592
v 0.597970545 0.238760278 0.0463783592
v 0.59796983 0.238760218 1.47947466
v 0.598669767 0.238060221 1.47947466
v 0.598671675 0.238060266 1.48085856
v 0.597971678 0.238760263 1.48085856
v 0.597971678 0.238760218 1.49921846
v 0.598671675 0.238060221 1.49921846
v -0.597970307 0.238760203 1.48085856
v -0.598670304 0.238060206 1.48085856
v -0.598670304 0.238060206 1.49921846
v -0.597970307 0.238760203 1.49921846
v -0.597931266 -0.195539057 0.41592595
v -0.598631263 -0.195539057 0.416625947
v -0.598631263 -0.182442442 0.416625947
v -0.597931266 -0.182442442 0.41592595
v 0.59793061 -0.195539057 0.41592595
v 0.59793061 -0.182442442 0.41592595
v 0.598630607 -0.182442442 0.416625947
v 0.598630607 -0.195539057 0.416625947
v 0.578191519 0.23878558 1.47949493
v 0.578891516 0.238085583 1.47949493
v 0.578891516 0.238085568 0.0463894345
v 0.578191519 0.23878558 0.0463894345
v -0.578166425 0.238785565 0.046389427
v -0.578866422 0.238085568 0.046389427
v -0.578866541 0.238085583 1.47949493
v -0.578166544 0.23878558 1.47949493
v -0.598670304 0.23806031 0.000699999859
v -0.598670304 -0.195539698 0.000699999917
v -0.598670304 -0.195539698 0.0449500233
v -0.598670304 0.23806031 0.0449500233
v -0.598670185 -0.180302545 1.47947431
v -0.598670185 0.238060221 1.47947431
v -0.598670065 0.238060281 0.0463779829
v -0.598670065 -0.180302486 0.0463779718
v -0.598670304 0.238060206 1.48085856
v -0.598670304 -0.195539802 1.48085856
v -0.598670304 -0.195539802 1.49921846
v -0.598670304 0.238060206 1.49921846
v 0.598671675 -0.195539698 0.000699999335
v 0.598671675 0.23806031 0.000699999335
v 0.598671675 0.23806031 0.0449500233
v 0.598671675 -0.195539698 0.0449500233
v 0.598669767 -0.180302545 1.47947466
v 0.598670542 -0.180302486 0.046378348
v 0.598670542 0.238060281 0.0463783592
v 0.598669767 0.238060221 1.47947466
v -0.598648131 -0.195539117 0.0463323891
v -0.59864819 -0.195539057 0.41444093
v -0.59864819 -0.182442442 0.41444093
v -0.598648131 -0.182442501 0.0463323891
v 0.598647475 -0.195539117 0.0463323891
v 0.598647475 -0.182442501 0.0463323891
v 0.598647535 -0.182442442 0.41444093
v 0.598647535 -0.195539057 0.41444093
v -0.598631263 -0.195539057 0.416625947
v -0.598631382 -0.195538998 1.47946036
v -0.598631382 -0.182442382 1.47946036
v -0.598631263 -0.182442442 0.416625947
v 0.598630607 -0.195539057 0.416625947
v 0.598630607 -0.182442442 0.416625947
v 0.598630667 -0.182442382 1.47946036
v 0.598630667 -0.195538998 1.47946036
v 0.598671675 -0.195539743 1.48085856
v 0.598671675 0.238060266 1.48085856
v 0.598671675 0.238060221 1.49921846
v 0.598671675 -0.195539787 1.49921846
v 0.597971678 -0.195539698 -4.3418535e-17
v 0.597971678 -0.196239695 0.000699999335
v -0.597970307 -0.196239695 0.000699999859
v -0.597970307 -0.195539698 -4.3418535e-17
v -0.598631263 -0.195539057 0.416625947
v -0.597931266 -0.195539057 0.41592595
v -0.597931266 -0.196239054 0.416625947
v 0.598630607 -0.195539057 0.416625947
v 0.59793061 -0.196239054 0.416625947
v 0.59793061 -0.195539057 0.41592595
v 0.578891516 0.234504044 1.47949493
v 0.578891516 0.234504029 0.0463894345
v 0.578891516 0.238085568 0.0463894345
v 0.578891516 0.238085583 1.47949493
v -0.578866422 0.234504029 0.0463894345
v -0.578866541 0.234504044 1.47949493
v -0.578866541 0.238085583 1.47949493
v -0.578866422 0.238085568 0.046389427
v -0.00119143783 -0.195538998 1.48016036
v -0.000491440878 -0.195538998 1.47946036
v -0.000491402694 -0.182442382 1.47946036
v -0.00119139964 -0.182442382 1.48016036
v 0.00119076436 -0.195538998 1.48016036
v 0.00119072618 -0.182442382 1.48016036
v 0.000490729231 -0.182442382 1.47946036
v 0.000490767416 -0.195538998 1.47946036
v -0.597948134 -0.196239114 0.0463323891
v -0.597948134 -0.195539117 0.0456323922
v -0.00119143783 -0.195539117 0.0456323922
v -0.00119143783 -0.196239114 0.0463323891
v 0.597947478 -0.196239114 0.0463323891
v 0.00119076436 -0.196239114 0.0463323891
v 0.00119076436 -0.195539117 0.0456323922
v 0.597947478 -0.195539117 0.0456323922
v -0.597970009 -0.181002483 0.0463779718
v -0.597970009 -0.180302486 0.0456779748
v -0.579586446 -0.180302486 0.0456779823
v -0.579586446 -0.181002483 0.0463779792
v 0.597970545 -0.181002483 0.046378348
v 0.579586983 -0.181002483 0.0463783443
v 0.579586983 -0.180302486 0.0456783473
v 0.597970605 -0.180302486 0.0456783511
v -0.00119143783 -0.196239009 1.47946036
v -0.000491440878 -0.195538998 1.47946036
v -0.00119143783 -0.195538998 1.48016036
v 0.00119076436 -0.196239009 1.47946036
v 0.00119076436 -0.195538998 1.48016036
v 0.000490767416 -0.195538998 1.47946036
v -0.578866422 0.234504029 0.0463894345
v -0.578166425 0.234504029 0.0456894375
v -0.578166425 0.233804032 0.0463894345
v 0.578191519 0.233804032 0.0463894345
v 0.578191519 0.234504029 0.0456894375
v 0.578891516 0.234504029 0.0463894345
v 0.597971678 -0.196239695 0.000699999335
v 0.598671675 -0.195539698 0.000699999335
v 0.598671675 -0.195539698 0.0449500233
v 0.597971678 -0.196239695 0.0449500233
v -0.597970307 -0.196239695 0.0449500233
v -0.598670304 -0.195539698 0.0449500233
v -0.598670304 -0.195539698 0.000699999917
v -0.597970307 -0.196239695 0.000699999859
v -0.597948134 -0.196239054 0.41444093
v -0.59864819 -0.195539057 0.41444093
v -0.598648131 -0.195539117 0.0463323891
v -0.598648131 -0.195539117 0.0463323891
v -0.597948134 -0.196239114 0.0463323891
v -0.597948134 -0.196239054 0.41444093
v 0.597947478 -0.196239054 0.41444093
v 0.597947478 -0.196239114 0.0463323891
v 0.598647475 -0.195539117 0.0463323891
v 0.598647475 -0.195539117 0.0463323891
v 0.598647535 -0.195539057 0.41444093
v 0.597947478 -0.196239054 0.41444093
v -0.597931266 -0.196239009 1.47946036
v -0.598631382 -0.195538998 1.47946036
v -0.598631263 -0.195539057 0.416625947
v -0.598631263 -0.195539057 0.416625947
v -0.597931266 -0.196239054 0.416625947
v -0.597931266 -0.196239009 1.47946036
v 0.59793061 -0.196239009 1.47946036
v 0.59793061 -0.196239054 0.416625947
v 0.598630607 -0.195539057 0.416625947
v 0.598630607 -0.195539057 0.416625947
v 0.598630667 -0.195538998 1.47946036
v 0.59793061 -0.196239009 1.47946036
v 0.597971678 -0.19623974 1.48085856
v 0.598671675 -0.195539743 1.48085856
v 0.598671675 -0.195539787 1.49921846
v 0.597971678 -0.196239784 1.49921846
v -0.597970307 -0.196239799 1.49921846
v -0.598670304 -0.195539802 1.49921846
v -0.598670304 -0.195539802 1.48085856
v -0.597970307 -0.196239799 1.48085856
v -0.598670065 -0.180302486 0.0463779718
v -0.597970009 -0.181002483 0.0463779718
v -0.597970188 -0.181002542 1.47947431
v -0.598670185 -0.180302545 1.47947431
v 0.598670542 -0.180302486 0.046378348
v 0.598669767 -0.180302545 1.47947466
v 0.59796983 -0.181002542 1.47947466
v 0.59796983 -0.181002542 1.47947466
v 0.597970545 -0.181002483 0.046378348
v 0.598670542 -0.180302486 0.046378348
v -0.597931266 -0.181742385 1.47946036
v -0.597931266 -0.182442382 1.48016036
v -0.00119139964 -0.182442382 1.48016036
v -0.00119139964 -0.181742385 1.47946036
v 0.59793061 -0.181742385 1.47946036
v 0.00119072618 -0.181742385 1.47946036
v 0.00119072618 -0.182442382 1.48016036
v 0.59793061 -0.182442382 1.48016036
v -0.00119143783 -0.196239114 0.0463323891
v -0.00119143783 -0.195539117 0.0456323922
v -0.000491440878 -0.195539117 0.0463323891
v 0.00119076436 -0.196239114 0.0463323891
v 0.000490767416 -0.195539117 0.0463323891
v 0.00119076436 -0.195539117 0.0456323922
v -0.000491440878 -0.195539117 0.0463323891
v -0.00119143783 -0.195539117 0.0456323922
v -0.00119139964 -0.182442501 0.0456323735
v -0.000491402694 -0.182442501 0.0463323705
v 0.000490767416 -0.195539117 0.0463323891
v 0.000490729231 -0.182442501 0.0463323705
v 0.00119072618 -0.182442501 0.0456323735
v 0.00119076436 -0.195539117 0.0456323922
v -0.598631263 -0.182442442 0.416625947
v -0.597931266 -0.18174243 0.416625947
v -0.597931266 -0.182442442 0.41592595
v 0.598630607 -0.182442442 0.416625947
v 0.59793061 -0.182442442 0.41592595
v 0.59793061 -0.18174243 0.416625947
v -0.000491402694 -0.182442382 1.47946036
v -0.00119139964 -0.181742385 1.47946036
v -0.00119139964 -0.182442382 1.48016036
v 0.000490729231 -0.182442382 1.47946036
v 0.00119072618 -0.182442382 1.48016036
v 0.00119072618 -0.181742385 1.47946036
v 0.578191519 0.233804047 1.47949493
v 0.578191519 0.234504044 1.48019505
v -0.578166544 0.234504044 1.48019505
v -0.578166544 0.233804047 1.47949493
v -0.00119139964 -0.181742504 0.0463323705
v -0.00119139964 -0.182442501 0.0456323735
v -0.597948134 -0.182442501 0.0456323922
v -0.597948134 -0.181742504 0.0463323891
v 0.00119072618 -0.181742504 0.0463323705
v 0.597947478 -0.181742504 0.0463323891
v 0.597947478 -0.182442501 0.0456323922
v 0.00119072618 -0.182442501 0.0456323735
v -0.597948134 -0.181742504 0.0463323891
v -0.598648131 -0.182442501 0.0463323891
v -0.59864819 -0.182442442 0.41444093
v -0.59864819 -0.182442442 0.41444093
v -0.597948134 -0.181742445 0.41444093
v -0.597948134 -0.181742504 0.0463323891
v 0.597947478 -0.181742504 0.0463323891
v 0.597947478 -0.181742445 0.41444093
v 0.598647535 -0.182442442 0.41444093
v 0.598647535 -0.182442442 0.41444093
v 0.598647475 -0.182442501 0.0463323891
v 0.597947478 -0.181742504 0.0463323891
v -0.597931266 -0.18174243 0.416625947
v -0.598631263 -0.182442442 0.416625947
v -0.598631382 -0.182442382 1.47946036
v -0.598631382 -0.182442382 1.47946036
v -0.597931266 -0.181742385 1.47946036
v -0.597931266 -0.18174243 0.416625947
v 0.59793061 -0.18174243 0.416625947
v 0.59793061 -0.181742385 1.47946036
v 0.598630667 -0.182442382 1.47946036
v 0.598630667 -0.182442382 1.47946036
v 0.598630607 -0.182442442 0.416625947
v 0.59793061 -0.18174243 0.416625947
v -0.597931266 -0.196239054 0.416625947
v -0.597931266 -0.195539057 0.41592595
v -0.00119143783 -0.195539057 0.41592595
v -0.00119143783 -0.196239054 0.416625947
v 0.59793061 -0.196239054 0.416625947
v 0.00119076436 -0.196239054 0.416625947
v 0.00119076436 -0.195539057 0.41592595
v 0.59793061 -0.195539057 0.41592595
v -0.579586625 0.238060221 1.48017442
v -0.578886628 0.238060221 1.47947431
v -0.579586625 0.238760218 1.47947431
v 0.579586208 0.238060221 1.48017478
v 0.579586208 0.238760218 1.47947466
v 0.578886271 0.238060221 1.47947466
v -0.00119139964 -0.182442501 0.0456323735
v -0.00119139964 -0.181742504 0.0463323705
v -0.000491402694 -0.182442501 0.0463323705
v 0.00119072618 -0.182442501 0.0456323735
v 0.000490729231 -0.182442501 0.0463323705
v 0.00119072618 -0.181742504 0.0463323705
v 0.597971678 0.238760307 0.000699999335
v -0.597970307 0.238760307 0.000699999859
v -0.597970307 0.238760307 0.0449500233
v 0.597971678 0.238760307 0.0449500233
v -0.597970009 0.238760278 0.0463779829
v -0.597970188 0.238760218 1.47947431
v -0.579586625 0.238760218 1.47947431
v -0.579586446 0.238760278 0.0463779867
v 0.597970545 0.238760278 0.0463783592
v 0.579586983 0.238760278 0.046378348
v 0.579586208 0.238760218 1.47947466
v 0.59796983 0.238760218 1.47947466
v -0.578166544 0.23878558 1.47949493
v 0.578191519 0.23878558 1.47949493
v 0.578191519 0.23878558 0.0463894345
v -0.578166425 0.238785565 0.046389427
v 0.597971678 0.238760263 1.48085856
v -0.597970307 0.238760203 1.48085856
v -0.597970307 0.238760203 1.49921846
v 0.597971678 0.238760218 1.49921846
v -0.597948134 -0.195539057 0.415140927
v -0.59864819 -0.195539057 0.41444093
v -0.597948134 -0.196239054 0.41444093
v 0.597947478 -0.195539057 0.415140927
v 0.597947478 -0.196239054 0.41444093
v 0.598647535 -0.195539057 0.41444093
v -0.00119143783 -0.195539057 0.41592595
v -0.597931266 -0.195539057 0.41592595
v -0.597931266 -0.182442442 0.41592595
v -0.00119139964 -0.182442442 0.41592595
v 0.00119076436 -0.195539057 0.41592595
v 0.00119072618 -0.182442442 0.41592595
v 0.59793061 -0.182442442 0.41592595
v 0.59793061 -0.195539057 0.41592595
v -0.578166425 0.233804032 0.0463894345
v -0.578166425 0.234504029 0.0456894375
v 0.578191519 0.234504029 0.0456894375
v 0.578191519 0.233804032 0.0463894345
v -0.00119143783 -0.196239054 0.416625947
v -0.00119143783 -0.195539057 0.41592595
v -0.000491440878 -0.195539057 0.416625947
v 0.00119076436 -0.196239054 0.416625947
v 0.000490767416 -0.195539057 0.416625947
v 0.00119076436 -0.195539057 0.41592595
v -0.597948134 -0.182442442 0.415140927
v -0.59864819 -0.182442442 0.41444093
v -0.59864819 -0.195539057 0.41444093
v -0.597948134 -0.195539057 0.415140927
v 0.597947478 -0.182442442 0.415140927
v 0.597947478 -0.195539057 0.415140927
v 0.598647535 -0.195539057 0.41444093
v 0.598647535 -0.182442442 0.41444093
v -0.578166544 0.233804047 1.47949493
v -0.578866541 0.234504044 1.47949493
v -0.578866422 0.234504029 0.0463894345
v -0.578166425 0.233804032 0.0463894345
v 0.578191519 0.233804032 0.0463894345
v 0.578891516 0.234504029 0.0463894345
v 0.578891516 0.234504044 1.47949493
v 0.578191519 0.233804047 1.47949493
v -0.579586625 -0.181002542 1.47947431
v -0.578886628 -0.180302545 1.47947431
v -0.579586625 -0.180302545 1.48017442
v 0.579586208 -0.181002542 1.47947466
v 0.579586208 -0.180302545 1.48017478
v 0.578886271 -0.180302545 1.47947466
v -0.579586446 0.238760278 0.0463779867
v -0.578886449 0.238060281 0.0463779867
v -0.579586446 0.238060281 0.0456779934
v 0.579586983 0.238760278 0.046378348
v 0.579586983 0.238060281 0.0456783548
v 0.578886986 0.238060281 0.046378348
v -0.000491440878 -0.195539057 0.416625947
v -0.00119143783 -0.195539057 0.41592595
v -0.00119139964 -0.182442442 0.41592595
v -0.000491402694 -0.182442442 0.416625947
v 0.000490767416 -0.195539057 0.416625947
v 0.000490729231 -0.182442442 0.416625947
v 0.00119072618 -0.182442442 0.41592595
v 0.00119076436 -0.195539057 0.41592595
v -0.578886628 0.238060221 1.47947431
v -0.579586625 0.238060221 1.48017442
v -0.579586625 -0.180302545 1.48017442
v -0.578886628 -0.180302545 1.47947431
v 0.578886271 0.238060221 1.47947466
v 0.578886271 -0.180302545 1.47947466
v 0.579586208 -0.180302545 1.48017478
v 0.579586208 0.238060221 1.48017478
v -0.597970307 -0.196239695 0.000699999859
v 0.597971678 -0.196239695 0.000699999335
v 0.597971678 -0.196239695 0.0449500233
v -0.597970307 -0.196239695 0.0449500233
v -0.597948134 -0.196239054 0.41444093
v -0.597948134 -0.196239114 0.0463323891
v -0.00119143783 -0.196239114 0.0463323891
v -0.00119143783 -0.196239054 0.41444093
v 0.597947478 -0.196239054 0.41444093
v 0.00119076436 -0.196239054 0.41444093
v 0.00119076436 -0.196239114 0.0463323891
v 0.597947478 -0.196239114 0.0463323891
v -0.597931266 -0.196239009 1.47946036
v -0.597931266 -0.196239054 0.416625947
v -0.00119143783 -0.196239054 0.416625947
v -0.00119143783 -0.196239009 1.47946036
v 0.59793061 -0.196239009 1.47946036
v 0.00119076436 -0.196239009 1.47946036
v 0.00119076436 -0.196239054 0.416625947
v 0.59793061 -0.196239054 0.416625947
v -0.597970307 -0.196239799 1.48085856
v 0.597971678 -0.19623974 1.48085856
v 0.597971678 -0.196239784 1.49921846
v -0.597970307 -0.196239799 1.49921846
v -0.598670304 0.23806031 0.0449500233
v -0.597970307 0.23806031 0.045650024
v -0.597970307 0.238760307 0.0449500233
v 0.597971678 0.238760307 0.0449500233
v 0.597971678 0.23806031 0.045650024
v 0.598671675 0.23806031 0.0449500233
v -0.597970188 -0.181002542 1.47947431
v -0.597970009 -0.181002483 0.0463779718
v -0.579586446 -0.181002483 0.0463779792
v -0.579586625 -0.181002542 1.47947431
v 0.59796983 -0.181002542 1.47947466
v 0.579586208 -0.181002542 1.47947466
v 0.579586983 -0.181002483 0.0463783443
v 0.597970545 -0.181002483 0.046378348
v -0.597948134 -0.182442442 0.415140927
v -0.597948134 -0.181742445 0.41444093
v -0.59864819 -0.182442442 0.41444093
v 0.597947478 -0.182442442 0.415140927
v 0.598647535 -0.182442442 0.41444093
v 0.597947478 -0.181742445 0.41444093
v -0.579586446 -0.180302486 0.0456779823
v -0.578886449 -0.180302486 0.0463779792
v -0.579586446 -0.181002483 0.0463779792
v 0.579586983 -0.180302486 0.0456783473
v 0.579586983 -0.181002483 0.0463783443
v 0.578886986 -0.180302486 0.0463783443
v -0.00119143783 -0.196239114 0.0463323891
v -0.000491440878 -0.195539117 0.0463323891
v -0.000491440878 -0.195539057 0.41444093
v -0.00119143783 -0.196239054 0.41444093
v 0.00119076436 -0.196239114 0.0463323891
v 0.00119076436 -0.196239054 0.41444093
v 0.000490767416 -0.195539057 0.41444093
v 0.000490767416 -0.195539117 0.0463323891
v -0.00119143783 -0.196239054 0.416625947
v -0.000491440878 -0.195539057 0.416625947
v -0.000491440878 -0.195538998 1.47946036
v -0.00119143783 -0.196239009 1.47946036
v 0.00119076436 -0.196239054 0.416625947
v 0.00119076436 -0.196239009 1.47946036
v 0.000490767416 -0.195538998 1.47946036
v 0.000490767416 -0.195539057 0.416625947
v -0.00119139964 -0.18174243 0.416625947
v -0.00119139964 -0.182442442 0.41592595
v -0.597931266 -0.182442442 0.41592595
v -0.597931266 -0.18174243 0.416625947
v 0.00119072618 -0.18174243 0.416625947
v 0.59793061 -0.18174243 0.416625947
v 0.59793061 -0.182442442 0.41592595
v 0.00119072618 -0.182442442 0.41592595
v -0.00119139964 -0.182442442 0.41592595
v -0.00119139964 -0.18174243 0.416625947
v -0.000491402694 -0.182442442 0.416625947
v 0.00119072618 -0.182442442 0.41592595
v 0.000490729231 -0.182442442 0.416625947
v 0.00119072618 -0.18174243 0.416625947
v -0.597970307 -0.196239695 0.0449500233
v -0.597970307 -0.195539698 0.045650024
v -0.598670304 -0.195539698 0.0449500233
v 0.598671675 -0.195539698 0.0449500233
v 0.597971678 -0.195539698 0.045650024
v 0.597971678 -0.196239695 0.0449500233
v -0.598670304 0.238060206 1.48085856
v -0.597970307 0.238760203 1.48085856
v -0.597970307 0.238060206 1.48015857
v 0.597971678 0.238060266 1.48015857
v 0.597971678 0.238760263 1.48085856
v 0.598671675 0.238060266 1.48085856
v -0.578886449 -0.180302486 0.0463779792
v -0.579586446 -0.180302486 0.0456779823
v -0.579586446 0.238060281 0.0456779934
v -0.578886449 0.238060281 0.0463779867
v 0.578886986 -0.180302486 0.0463783443
v 0.578886986 0.238060281 0.046378348
v 0.579586983 0.238060281 0.0456783548
v 0.579586983 -0.180302486 0.0456783473
v -0.000491440878 -0.195539057 0.41444093
v -0.000491440878 -0.195539117 0.0463323891
v -0.000491402694 -0.182442501 0.0463323705
v -0.000491402694 -0.182442442 0.41444093
v 0.000490767416 -0.195539057 0.41444093
v 0.000490729231 -0.182442442 0.41444093
v 0.000490729231 -0.182442501 0.0463323705
v 0.000490767416 -0.195539117 0.0463323891
v -0.000491440878 -0.195538998 1.47946036
v -0.000491440878 -0.195539057 0.416625947
v -0.000491402694 -0.182442442 0.416625947
v -0.000491402694 -0.182442382 1.47946036
v 0.000490767416 -0.195538998 1.47946036
v 0.000490729231 -0.182442382 1.47946036
v 0.000490729231 -0.182442442 0.416625947
v 0.000490767416 -0.195539057 0.416625947
v -0.597970307 -0.196239799 1.48085856
v -0.598670304 -0.195539802 1.48085856
v -0.597970307 -0.195539802 1.48015857
v 0.597971678 -0.195539743 1.48015857
v 0.598671675 -0.195539743 1.48085856
v 0.597971678 -0.19623974 1.48085856
v 0.597971678 -0.195539698 0.045650024
v 0.598671675 -0.195539698 0.0449500233
v 0.598671675 0.23806031 0.0449500233
v 0.597971678 0.23806031 0.045650024
v -0.597970307 0.23806031 0.045650024
v -0.598670304 0.23806031 0.0449500233
v -0.598670304 -0.195539698 0.0449500233
v -0.597970307 -0.195539698 0.045650024
v -0.00119143783 -0.196239054 0.41444093
v -0.000491440878 -0.195539057 0.41444093
v -0.00119143783 -0.195539057 0.415140927
v 0.00119076436 -0.196239054 0.41444093
v 0.00119076436 -0.195539057 0.415140927
v 0.000490767416 -0.195539057 0.41444093
v -0.00119143783 -0.196239054 0.41444093
v -0.00119143783 -0.195539057 0.415140927
v -0.597948134 -0.195539057 0.415140927
v -0.597948134 -0.196239054 0.41444093
v 0.00119076436 -0.196239054 0.41444093
v 0.597947478 -0.196239054 0.41444093
v 0.597947478 -0.195539057 0.415140927
v 0.00119076436 -0.195539057 0.415140927
v -0.00119139964 -0.18174243 0.41444093
v -0.000491402694 -0.182442442 0.41444093
v -0.000491402694 -0.182442501 0.0463323705
v -0.00119139964 -0.181742504 0.0463323705
v 0.00119072618 -0.18174243 0.41444093
v 0.00119072618 -0.181742504 0.0463323705
v 0.000490729231 -0.182442501 0.0463323705
v 0.000490729231 -0.182442442 0.41444093
v -0.00119139964 -0.181742385 1.47946036
v -0.000491402694 -0.182442382 1.47946036
v -0.000491402694 -0.182442442 0.416625947
v -0.00119139964 -0.18174243 0.416625947
v 0.00119072618 -0.181742385 1.47946036
v 0.00119072618 -0.18174243 0.416625947
v 0.000490729231 -0.182442442 0.416625947
v 0.000490729231 -0.182442382 1.47946036
v -0.597948134 -0.181742445 0.41444093
v -0.00119139964 -0.18174243 0.41444093
v -0.00119139964 -0.181742504 0.0463323705
v -0.597948134 -0.181742504 0.0463323891
v 0.597947478 -0.181742445 0.41444093
v 0.597947478 -0.181742504 0.0463323891
v 0.00119072618 -0.181742504 0.0463323705
v 0.00119072618 -0.18174243 0.41444093
v -0.597931266 -0.181742385 1.47946036
v -0.00119139964 -0.181742385 1.47946036
v -0.00119139964 -0.18174243 0.416625947
v -0.597931266 -0.18174243 0.416625947
v 0.59793061 -0.181742385 1.47946036
v 0.59793061 -0.18174243 0.416625947
v 0.00119072618 -0.18174243 0.416625947
v 0.00119072618 -0.181742385 1.47946036
v -0.597970307 -0.195539802 1.48015857
v -0.598670304 -0.195539802 1.48085856
v -0.598670304 0.238060206 1.48085856
v -0.597970307 0.238060206 1.48015857
v 0.597971678 0.238060266 1.48015857
v 0.598671675 0.238060266 1.48085856
v 0.598671675 -0.195539743 1.48085856
v 0.597971678 -0.195539743 1.48015857
v -0.00119143783 -0.195539057 0.415140927
v -0.000491440878 -0.195539057 0.41444093
v -0.000491402694 -0.182442442 0.41444093
v -0.00119139964 -0.182442442 0.415140927
v 0.00119076436 -0.195539057 0.415140927
v 0.00119072618 -0.182442442 0.415140927
v 0.000490729231 -0.182442442 0.41444093
v 0.000490767416 -0.195539057 0.41444093
v -0.578886449 0.238060281 0.0463779867
v -0.579586446 0.238760278 0.0463779867
v -0.579586625 0.238760218 1.47947431
v -0.578886628 0.238060221 1.47947431
v 0.578886986 0.238060281 0.046378348
v 0.578886271 0.238060221 1.47947466
v 0.579586208 0.238760218 1.47947466
v 0.579586208 0.238760218 1.47947466
v 0.579586983 0.238760278 0.046378348
v 0.578886986 0.238060281 0.046378348
v -0.000491402694 -0.182442442 0.41444093
v -0.00119139964 -0.18174243 0.41444093
v -0.00119139964 -0.182442442 0.415140927
v 0.000490729231 -0.182442442 0.41444093
v 0.00119072618 -0.182442442 0.415140927
v 0.00119072618 -0.18174243 0.41444093
v 0.597971678 0.23806031 0.045650024
v 0.597971678 0.238760307 0.0449500233
v -0.597970307 0.238760307 0.0449500233
v -0.597970307 0.23806031 0.045650024
v -0.597948134 -0.195539057 0.415140927
v -0.00119143783 -0.195539057 0.415140927
v -0.00119139964 -0.182442442 0.415140927
v -0.597948134 -0.182442442 0.415140927
v 0.597947478 -0.195539057 0.415140927
v 0.597947478 -0.182442442 0.415140927
v 0.00119072618 -0.182442442 0.415140927
v 0.00119076436 -0.195539057 0.415140927
v -0.578166544 0.233804047 1.47949493
v -0.578166425 0.233804032 0.0463894345
v 0.578191519 0.233804032 0.0463894345
v 0.578191519 0.233804047 1.47949493
v -0.597948134 -0.181742445 0.41444093
v -0.597948134 -0.182442442 0.415140927
v -0.00119139964 -0.182442442 0.415140927
v -0.00119139964 -0.18174243 0.41444093
v 0.597947478 -0.181742445 0.41444093
v 0.00119072618 -0.18174243 0.41444093
v 0.00119072618 -0.182442442 0.415140927
v 0.597947478 -0.182442442 0.415140927
v -0.578886628 -0.180302545 1.47947431
v -0.579586625 -0.181002542 1.47947431
v -0.579586446 -0.181002483 0.0463779792
v -0.578886449 -0.180302486 0.0463779792
v 0.578886271 -0.180302545 1.47947466
v 0.578886986 -0.180302486 0.0463783443
v 0.579586983 -0.181002483 0.0463783443
v 0.579586983 -0.181002483 0.0463783443
v 0.579586208 -0.181002542 1.47947466
v 0.578886271 -0.180302545 1.47947466
v -0.597970307 -0.195539698 0.045650024
v -0.597970307 -0.196239695 0.0449500233
v 0.597971678 -0.196239695 0.0449500233
v 0.597971678 -0.195539698 0.045650024
v -0.597970307 0.238060206 1.48015857
v -0.597970307 0.238760203 1.48085856
v 0.597971678 0.238760263 1.48085856
v 0.597971678 0.238060266 1.48015857
v 0.597971678 -0.195539743 1.48015857
v 0.597971678 -0.19623974 1.48085856
v -0.597970307 -0.196239799 1.48085856
v -0.597970307 -0.195539802 1.48015857
v -0.578886628 -0.180302545 1.47947431
v -0.578886449 -0.180302486 0.0463779792
v -0.578886449 0.238060281 0.0463779867
v -0.578886628 0.238060221 1.47947431
v 0.578886271 -0.180302545 1.47947466
v 0.578886271 0.238060221 1.47947466
v 0.578886986 0.238060281 0.046378348
v 0.578886986 -0.180302486 0.0463783443
v -0.597970307 -0.195539698 0.045650024
v 0.597971678 -0.195539698 0.045650024
v 0.597971678 0.23806031 0.045650024
v -0.597970307 0.23806031 0.045650024
v -0.597970307 -0.195539802 1.48015857
v -0.597970307 0.238060206 1.48015857
v 0.597971678 0.238060266 1.48015857
v 0.597971678 -0.195539743 1.48015857
f 1 2 3
f 3 4 1
f 5 6 7
f 7 8 5
f 9 10 11
f 11 12 9
f 13 14 15
f 15 16 13
f 17 18 19
f 19 20 17
f 21 22 23
f 23 24 21
f 25 26 27
f 28 29 30
f 31 32 33
f 33 34 31
f 35 36 37
f 37 38 35
f 39 40 41
f 42 43 44
f 45 46 47
f 48 49 50
f 51 52 53
f 53 54 51
f 55 56 57
f 57 58 55
f 59 60 61
f 62 63 64
f 65 66 67
f 68 69 70
f 71 72 73
f 74 75 76
f 77 78 79
f 80 81 82
f 83 84 85
f 86 87 88
f 89 90 91
f 91 92 89
f 93 94 95
f 96 97 98
f 99 100 101
f 101 102 99
f 103 104 105
f 105 106 103
f 107 108 109
f 110 111 112
f 113 114 115
f 115 116 113
f 117 118 119
f 119 120 117
f 121 122 123
f 124 125 126
f 127 128 129
f 129 130 127
f 131 132 133
f 134 135 136
f 137 138 139
f 139 140 137
f 141 142 143
f 143 144 141
f 145 146 147
f 147 148 145
f 149 150 151
f 151 152 149
f 153 154 155
f 155 156 153
f 157 158 159
f 160 161 162
f 163 164 165
f 165 166 163
f 167 168 169
f 169 170 167
f 171 172 173
f 173 174 171
f 175 176 177
f 177 178 175
f 179 180 181
f 182 183 184
f 185 186 187
f 187 188 185
f 189 190 191
f 191 192 189
f 193 194 195
f 195 196 193
f 197 198 199
f 199 200 197
f 201 202 203
f 203 204 201
f 205 206 207
f 207 208 205
f 209 210 211
f 211 212 209
f 213 214 215
f 215 216 213
f 217 218 219
f 219 220 217
f 221 222 223
f 223 224 221
f 225 226 227
f 227 228 225
f 229 230 231
f 231 232 229
f 233 234 235
f 235 236 233
f 237 238 239
f 239 240 237
f 241 242 243
f 243 244 241
f 245 246 247
f 248 249 250
f 251 252 253
f 254 255 256
f 257 258 259
f 259 260 257
f 261 262 263
f 263 264 261
f 265 266 267
f 267 268 265
f 269 270 271
f 272 273 274
f 275 276 277
f 277 278 275
f 279 280 281
f 281 282 279
f 283 284 285
f 285 286 283
f 287 288 289
f 289 290 287
f 291 292 293
f 293 294 291
f 295 296 297
f 297 298 295
f 299 300 301
f 301 302 299
f 303 304 305
f 305 306 303
f 307 308 309
f 309 310 307
f 311 312 313
f 313 314 311
f 315 316 317
f 317 318 315
f 319 320 321
f 321 322 319
f 323 324 325
f 325 326 323
f 327 328 329
f 329 330 327
f 331 332 333
f 333 334 331
f 335 336 337
f 337 338 335
f 339 340 341
f 341 342 339
f 343 344 345
f 346 347 348
f 349 350 351
f 351 352 349
f 353 354 355
f 355 356 353
f 357 358 359
f 359 360 357
f 361 362 363
f 363 364 361
f 365 366 367
f 367 368 365
f 369 370 371
f 371 372 369
f 373 374 375
f 375 376 373
f 377 378 379
f 379 380 377
f 381 382 383
f 384 385 386
f 387 388 389
f 390 391 392
f 393 394 395
f 395 396 393
f 397 398 399
f 399 400 397
f 401 402 403
f 404 405 406
f 407 408 409
f 410 411 412
f 413 414 415
f 416 417 418
f 419 420 421
f 422 423 424
f 425 426 427
f 427 428 425
f 429 430 431
f 431 432 429
f 433 434 435
f 435 436 433
f 437 438 439
f 440 441 442
f 443 444 445
f 445 446 443
f 447 448 449
f 449 450 447
f 451 452 453
f 454 455 456
f 457 458 459
f 459 460 457
f 461 462 463
f 463 464 461
f 465 466 467
f 468 469 470
f 471 472 473
f 474 475 476
f 477 478 479
f 479 480 477
f 481 482 483
f 483 484 481
f 485 486 487
f 487 488 485
f 489 490 491
f 492 493 494
f 495 496 497
f 498 499 500
f 501 502 503
f 504 505 506
f 507 508 509
f 510 511 512
f 513 514 515
f 515 516 513
f 517 518 519
f 519 520 517
f 521 522 523
f 524 525 526
f 527 528 529
f 530 531 532
f 533 534 535
f 535 536 533
f 537 538 539
f 539 540 537
f 541 542 543
f 543 544 541
f 545 546 547
f 547 548 545
f 549 550 551
f 551 552 549
f 553 554 555
f 556 557 558
f 559 560 561
f 561 562 559
f 563 564 565
f 565 566 563
f 567 568 569
f 569 570 567
f 571 572 573
f 574 575 576
f 577 578 579
f 579 580 577
f 581 582 583
f 583 584 581
f 585 586 587
f 587 588 585
f 589 590 591
f 591 592 589
f 593 594 595
f 596 597 598
f 599 600 601
f 602 603 604
f 605 606 607
f 607 608 605
f 609 610 611
f 611 612 609
f 613 614 615
f 615 616 613
f 617 618 619
f 619 620 617
f 621 622 623
f 623 624 621
f 625 626 627
f 627 628 625
f 629 630 631
f 631 632 629
f 633 634 635
f 635 636 633
f 637 638 639
f 639 640 637
f 641 642 643
f 643 644 641
f 645 646 647
f 648 649 650
f 651 652 653
f 653 654 651
f 655 656 657
f 657 658 655
f 659 660 661
f 662 663 664
f 665 666 667
f 668 669 670
f 671 672 673
f 673 674 671
f 675 676 677
f 677 678 675
f 679 680 681
f 681 682 679
f 683 684 685
f 685 686 683
f 687 688 689
f 689 690 687
f 691 692 693
f 693 694 691
f 695 696 697
f 698 699 700
f 701 702 703
f 704 705 706
f 707 708 709
f 710 711 712
f 713 714 715
f 715 716 713
f 717 718 719
f 719 720 717
f 721 722 723
f 723 724 721
f 725 726 727
f 727 728 725
f 729 730 731
f 731 732 729
f 733 734 735
f 735 736 733
f 737 738 739
f 740 741 742
f 743 744 745
f 745 746 743
f 747 748 749
f 749 750 747
f 751 752 753
f 754 755 756
f 757 758 759
f 759 760 757
f 761 762 763
f 763 764 761
f 765 766 767
f 767 768 765
f 769 770 771
f 771 772 769
f 773 774 775
f 775 776 773
f 777 778 779
f 779 780 777
f 781 782 783
f 783 784 781
f 785 786 787
f 787 788 785
f 789 790 791
f 791 792 789
f 793 794 795
f 795 796 793
f 797 798 799
f 799 800 797
f 801 802 803
f 803 804 801
f 805 806 807
f 807 808 805
f 809 810 811
f 811 812 809
f 813 814 815
f 815 816 813
f 817 818 819
f 820 821 822
f 823 824 825
f 826 827 828
f 829 830 831
f 831 832 829
f 833 834 835
f 835 836 833
f 837 838 839
f 839 840 837
f 841 842 843
f 843 844 841
f 845 846 847
f 847 848 845
f 849 850 851
f 851 852 849
f 853 854 855
f 855 856 853
f 857 858 859
f 860 861 862
f 863 864 865
f 865 866 863
f 867 868 869
f 869 870 867
f 871 872 873
f 873 874 871
f 875 876 877
f 877 878 875
f 879 880 881
f 881 882 879
f 883 884 885
f 885 886 883
f 887 888 889
f 889 890 887
