v -0.247649997 -0.349249989 -7.75490758e-17
v 0.247649997 -0.349249989 -7.75490758e-17
v 0.247649997 -0.349249989 0.0145903304
v -0.247649997 -0.349249989 0.0145903304
v 0.247649997 0.349249989 7.75490758e-17
v -0.247649997 0.349249989 7.75490758e-17
v -0.247649997 0.349249989 0.0145903304
v 0.247649997 0.349249989 0.0145903304
v 0.247649997 -0.349249989 -7.75490758e-17
v 0.247649997 0.349249989 7.75490758e-17
v 0.247649997 0.349249989 0.0145903304
v 0.247649997 -0.349249989 0.0145903304
v -0.247649997 0.349249989 7.75490758e-17
v -0.247649997 -0.349249989 -7.75490758e-17
v -0.247649997 -0.349249989 0.0145903304
v -0.247649997 0.349249989 0.0145903304
v -0.247649997 -0.349249989 0.0145903304
v 0.247649997 -0.349249989 0.0145903304
v 0.225249991 -0.326849967 0.0145903304
v 0.225249991 0.326849967 0.0145903304
v -0.225249991 -0.326849967 0.0145903304
v 0.247649997 0.349249989 0.0145903304
v -0.247649997 0.349249989 0.0145903304
v -0.225249991 0.326849967 0.0145903304
v 0.225249991 -0.326849967 0.0145903304
v 0.225249991 0.326849967 0.0145903304
v 0.225249991 0.326849967 0.00859033596
v 0.225249991 -0.326849967 0.00859033596
v -0.225249991 0.326849967 0.0145903304
v -0.225249991 -0.326849967 0.0145903304
v -0.225249991 -0.326849967 0.00859033596
v -0.225249991 0.326849967 0.00859033596
v -0.225249991 -0.326849967 0.0145903304
v 0.225249991 -0.326849967 0.0145903304
v 0.225249991 -0.326849967 0.00859033596
v -0.225249991 -0.326849967 0.00859033596
v 0.225249991 0.326849967 0.0145903304
v -0.225249991 0.326849967 0.0145903304
v -0.225249991 0.326849967 0.00859033596
v 0.225249991 0.326849967 0.00859033596
vt 0.05634588 0.0254258513
vt 0.943653822 0.0254258513
vt 0.943653822 0.00455868244
vt 0.05634588 0.00455868244
vt 0.94365412 0.0254259109
vt 0.0563461781 0.0254259109
vt 0.0563461781 0.00455868244
vt 0.94365412 0.00455868244
vt 0.953261375 -0.00393819809
vt 0.0467386842 -0.00393819809
vt 0.0467386842 -0.0248054266
vt 0.953261375 -0.0248054266
vt 0.0467386246 -0.00393819809
vt 0.953261316 -0.00393819809
vt 0.953261316 -0.0248054266
vt 0.0467386246 -0.0248054266
vt 0.000499486923 0.999500275
vt 0.999500155 0.999500453
vt 0.954320312 0.967463732
vt 0.95432055 0.0325363874
vt 0.0456794202 0.967463613
vt 0.999500513 0.000499725342
vt 0.000499844551 0.000499546528
vt 0.0456797183 0.0325362682
vt 0.924190342 -0.0248054266
vt 0.0758097172 -0.0248054266
vt 0.0758097172 -0.0162241459
vt 0.924190342 -0.0162241459
vt 0.0758096576 -0.0248054266
vt 0.924190283 -0.0248054266
vt 0.924190283 -0.0162241459
vt 0.0758096576 -0.0162241459
vt 0.0964744985 0.00455868244
vt 0.903525233 0.00455868244
vt 0.903525233 0.0131398439
vt 0.0964744985 0.0131398439
vt 0.903525472 0.00455868244
vt 0.0964747965 0.00455868244
vt 0.0964747965 0.0131399632
vt 0.903525472 0.0131399632
f 1/1 2/2 3/3
f 3/3 4/4 1/1
f 5/5 6/6 7/7
f 7/7 8/8 5/5
f 9/9 10/10 11/11
f 11/11 12/12 9/9
f 13/13 14/14 15/15
f 15/15 16/16 13/13
f 17/17 18/18 19/19
f 20/20 19/19 18/18
f 19/19 21/21 17/17
f 18/18 22/22 20/20
f 23/23 17/17 21/21
f 24/24 20/20 22/22
f 22/22 23/23 24/24
f 21/21 24/24 23/23
f 25/25 26/26 27/27
f 27/27 28/28 25/25
f 29/29 30/30 31/31
f 31/31 32/32 29/29
f 33/33 34/34 35/35
f 35/35 36/36 33/33
f 37/37 38/38 39/39
f 39/39 40/40 37/37
