v 0.0619833879 0.0229692962 7.09949185e-18
v 0.0665636212 0.0128366658 4.84959615e-18
v 0.0693655536 0.00207571755 2.46018548e-18
v 0.0665636584 -0.0308445077 -4.84957299e-18
v 0.070308581 -0.00900397263 0
v 0.0693655834 -0.0200835411 -2.46015839e-18
v 0.0619834363 -0.0409771577 -7.09947365e-18
v 0.055756662 -0.0501899943 -9.14513432e-18
v 0.0391222239 -0.0648301765 -1.2395907e-17
v 0.0480624735 -0.0582179874 -1.09277069e-17
v -0.00357867917 -0.0740329474 -1.44393326e-17
v 0.029193107 -0.0698363408 -1.35074988e-17
v 0.0185607597 -0.0730924681 -1.42305042e-17
v 0.0075310641 -0.0745048821 -1.45441232e-17
v -0.0144488607 -0.071690239 -1.39191468e-17
v -0.0247667637 -0.0675441623 -1.29985337e-17
v -0.0425828584 -0.054367438 -1.00727123e-17
v -0.0342355669 -0.0617139861 -1.17039737e-17
v -0.0605752021 -0.0145638129 -1.23453253e-18
v -0.0495684966 -0.0457158722 -8.15167965e-18
v -0.0549915396 -0.0360081755 -5.99613713e-18
v -0.0586959608 -0.0255236141 -3.66809727e-18
v -0.0605751947 -0.0034440665 1.23454721e-18
v -0.0586959422 0.0075157322 3.66811133e-18
v -0.0495684594 0.0277079828 8.15169123e-18
v -0.0549915098 0.0180002879 5.99615037e-18
v -0.0144488411 0.0536823049 1.39191501e-17
v -0.0425828099 0.0363595374 1.00727231e-17
v -0.0342355222 0.0437060744 1.17039811e-17
v -0.0247667339 0.0495362319 1.2998537e-17
v 0.0480624177 0.0402100906 1.09277168e-17
v 0.0557566062 0.0321821161 9.14514921e-18
v 0.0291930661 0.0518284068 1.35075021e-17
v 0.0391221754 0.0468222573 1.23959136e-17
v 0.00753105292 0.0564969368 1.45441232e-17
v 0.0185607336 0.0550845228 1.42305042e-17
v -0.00357867498 0.0560249984 1.44393326e-17
v 0.0672957674 0.00172081601 0.189585209
v 0.0682085752 -0.0090039745 0.189585209
v 0.070308581 -0.00900397263 0.189585209
v 0.0693655834 -0.0200835411 0.189585209
v 0.0693655536 0.00207571755 0.189585209
v 0.0672957897 -0.019728642 0.189585209
v 0.0645835847 0.0121370722 0.189585209
v 0.0665636584 -0.0308445077 0.189585209
v 0.0665636212 0.0128366658 0.189585209
v 0.0645836219 -0.0301449187 0.189585209
v 0.0601500571 0.0219451357 0.189585209
v 0.0619834363 -0.0409771577 0.189585209
v 0.0619833879 0.0229692962 0.189585209
v 0.0601501055 -0.0399530046 0.189585209
v 0.0541227311 0.0308628529 0.189585209
v 0.055756662 -0.0501899943 0.189585209
v 0.0557566062 0.0321821161 0.189585209
v 0.0541227832 -0.0488707349 0.189585209
v 0.0466750041 0.0386336744 0.189585209
v 0.0480624735 -0.0582179874 0.189585209
v 0.0480624177 0.0402100906 0.189585209
v 0.0466750562 -0.0566415787 0.189585209
v 0.0380211286 0.0450340472 0.189585209
v 0.0391222239 -0.0648301765 0.189585209
v 0.0391221754 0.0468222573 0.189585209
v 0.0380211771 -0.0630419627 0.189585209
v 0.0284100678 0.0498798415 0.189585209
v 0.029193107 -0.0698363408 0.189585209
v 0.0291930661 0.0518284068 0.189585209
v 0.0284101069 -0.0678877756 0.189585209
v 0.018118307 0.0530316606 0.189585209
v 0.0185607597 -0.0730924681 0.189585209
v 0.0185607336 0.0550845228 0.189585209
v 0.0181183331 -0.0710396022 0.189585209
v 0.00744192582 0.0543988273 0.189585209
v 0.0075310641 -0.0745048821 0.189585209
v 0.00753105292 0.0564969368 0.189585209
v 0.00744193653 -0.0724067762 0.189585209
v -0.00331193767 0.0539420098 0.189585209
v -0.00357867917 -0.0740329474 0.189585209
v -0.00357867498 0.0560249984 0.189585209
v -0.00331194163 -0.0719499514 0.189585209
v -0.013833913 0.0516743511 0.189585209
v -0.0144488607 -0.071690239 0.189585209
v -0.0144488411 0.0536823049 0.189585209
v -0.0138339326 -0.0696822852 0.189585209
v -0.0238213055 0.0476610884 0.189585209
v -0.0247667637 -0.0675441623 0.189585209
v -0.0247667339 0.0495362319 0.189585209
v -0.0238213371 -0.0656690225 0.189585209
v -0.0329867937 0.0420176797 0.189585209
v -0.0342355669 -0.0617139861 0.189585209
v -0.0342355222 0.0437060744 0.189585209
v -0.0329868346 -0.0600255914 0.189585209
v -0.0410667025 0.0349064693 0.189585209
v -0.0425828584 -0.054367438 0.189585209
v -0.0425828099 0.0363595374 0.189585209
v -0.0410667472 -0.0529143661 0.189585209
v -0.0478285886 0.0265320353 0.189585209
v -0.0495684966 -0.0457158722 0.189585209
v -0.0495684594 0.0277079828 0.189585209
v -0.0478286296 -0.0445399247 0.189585209
v -0.0530779287 0.0171352942 0.189585209
v -0.0549915396 -0.0360081755 0.189585209
v -0.0549915098 0.0180002879 0.189585209
v -0.0530779585 -0.0351431817 0.189585209
v -0.0566637069 0.00698657753 0.189585209
v -0.0586959608 -0.0255236141 0.189585209
v -0.0586959422 0.0075157322 0.189585209
v -0.0566637255 -0.0249944609 0.189585209
v -0.0584827624 -0.00362215983 0.189585209
v -0.0605752021 -0.0145638129 0.189585209
v -0.0605751947 -0.0034440665 0.189585209
v -0.0584827699 -0.0143857216 0.189585209
v 0.0687856004 -0.00900397357 0.00144586666
v 0.0682085752 -0.0090039745 0.189585209
v 0.0672957674 0.00172081601 0.189585209
v 0.0678645074 -0.0198261589 0.00144586642
v 0.0678644851 0.00181833282 0.00144586619
v 0.0672957897 -0.019728642 0.189585209
v 0.0645835847 0.0121370722 0.189585209
v 0.0651276782 -0.0303371456 0.00144586677
v 0.065127641 0.0123293018 0.00144586619
v 0.0645836219 -0.0301449187 0.189585209
v 0.0601500571 0.0219451357 0.189585209
v 0.0606538504 -0.0402344093 0.00144586619
v 0.060653802 0.022226546 0.00144586619
v 0.0601501055 -0.0399530046 0.189585209
v 0.0541227311 0.0308628529 0.189585209
v 0.0545717254 -0.0492332317 0.00144586607
v 0.0545716695 0.0312253479 0.00144586642
v 0.0541227832 -0.0488707349 0.189585209
v 0.0466750041 0.0386336744 0.189585209
v 0.0470562764 -0.0570747294 0.00144586607
v 0.0470562242 0.0390668288 0.00144586619
v 0.0466750562 -0.0566415787 0.189585209
v 0.0380211286 0.0450340472 0.189585209
v 0.0383237116 -0.0635333136 0.00144586642
v 0.0383236669 0.0455253944 0.00144586619
v 0.0380211771 -0.0630419627 0.189585209
v 0.0284100678 0.0498798415 0.189585209
v 0.0286252536 -0.0684231818 0.00144586619
v 0.0286252126 0.0504152477 0.00144586642
v 0.0284101069 -0.0678877756 0.189585209
v 0.018118307 0.0530316606 0.189585209
v 0.0182398986 -0.0716036707 0.00144586642
v 0.0182398725 0.0535957254 0.00144586642
v 0.0181183331 -0.0710396022 0.189585209
v 0.00744192582 0.0543988273 0.189585209
v 0.00746642658 -0.0729832724 0.00144586607
v 0.00746641541 0.0549753271 0.00144586619
v 0.00744193653 -0.0724067762 0.189585209
v -0.00331193767 0.0539420098 0.189585209
v -0.00338523346 -0.072522305 0.00144586596
v -0.00338522927 0.054514356 0.00144586642
v -0.00331194163 -0.0719499514 0.189585209
v -0.013833913 0.0516743511 0.189585209
v -0.0140028968 -0.0702340156 0.00144586642
v -0.0140028782 0.0522260815 0.00144586607
v -0.0138339326 -0.0696822852 0.189585209
v -0.0238213055 0.0476610884 0.189585209
v -0.0240811128 -0.0661842525 0.00144586619
v -0.0240810812 0.0481763221 0.00144586642
v -0.0238213371 -0.0656690225 0.189585209
v -0.0329867937 0.0420176797 0.189585209
v -0.0333299488 -0.0604895167 0.00144586619
v -0.0333299078 0.042481605 0.00144586619
v -0.0329868346 -0.0600255914 0.189585209
v -0.0410667025 0.0349064693 0.189585209
v -0.0414833315 -0.0533136278 0.00144586607
v -0.0414832868 0.0353057273 0.00144586642
v -0.0410667472 -0.0529143661 0.189585209
v -0.0478285886 0.0265320353 0.189585209
v -0.0483066924 -0.0448630415 0.00144586642
v -0.0483066589 0.0268551521 0.00144586642
v -0.0478286296 -0.0445399247 0.189585209
v -0.0530779287 0.0171352942 0.189585209
v -0.0536037572 -0.0353808552 0.00144586619
v -0.0536037274 0.0173729714 0.00144586619
v -0.0530779585 -0.0351431817 0.189585209
v -0.0566637069 0.00698657753 0.189585209
v -0.0572221242 -0.0251398571 0.00144586619
v -0.0572221056 0.00713197375 0.00144586642
v -0.0566637255 -0.0249944609 0.189585209
v -0.0584827624 -0.00362215983 0.189585209
v -0.0590577051 -0.0144346561 0.00144586642
v -0.0590577014 -0.00357322488 0.00144586619
v -0.0584827699 -0.0143857216 0.189585209
v 0.0693655536 0.00207571755 0.189585209
v 0.070308581 -0.00900397263 0.189585209
v 0.070308581 -0.00900397263 0
v 0.0693655834 -0.0200835411 -2.46015839e-18
v 0.0693655536 0.00207571755 2.46018548e-18
v 0.0693655834 -0.0200835411 0.189585209
v 0.0665636212 0.0128366658 0.189585209
v 0.0665636584 -0.0308445077 -4.84957299e-18
v 0.0665636212 0.0128366658 4.84959615e-18
v 0.0665636584 -0.0308445077 0.189585209
v 0.0619833879 0.0229692962 0.189585209
v 0.0619834363 -0.0409771577 -7.09947365e-18
v 0.0619833879 0.0229692962 7.09949185e-18
v 0.0619834363 -0.0409771577 0.189585209
v 0.0557566062 0.0321821161 0.189585209
v 0.055756662 -0.0501899943 -9.14513432e-18
v 0.0557566062 0.0321821161 9.14514921e-18
v 0.055756662 -0.0501899943 0.189585209
v 0.0480624177 0.0402100906 0.189585209
v 0.0480624735 -0.0582179874 -1.09277069e-17
v 0.0480624177 0.0402100906 1.09277168e-17
v 0.0480624735 -0.0582179874 0.189585209
v 0.0391221754 0.0468222573 0.189585209
v 0.0391222239 -0.0648301765 -1.2395907e-17
v 0.0391221754 0.0468222573 1.23959136e-17
v 0.0391222239 -0.0648301765 0.189585209
v 0.0291930661 0.0518284068 0.189585209
v 0.029193107 -0.0698363408 -1.35074988e-17
v 0.0291930661 0.0518284068 1.35075021e-17
v 0.029193107 -0.0698363408 0.189585209
v 0.0185607336 0.0550845228 0.189585209
v 0.0185607597 -0.0730924681 -1.42305042e-17
v 0.0185607336 0.0550845228 1.42305042e-17
v 0.0185607597 -0.0730924681 0.189585209
v 0.00753105292 0.0564969368 0.189585209
v 0.0075310641 -0.0745048821 -1.45441232e-17
v 0.00753105292 0.0564969368 1.45441232e-17
v 0.0075310641 -0.0745048821 0.189585209
v -0.00357867498 0.0560249984 0.189585209
v -0.00357867917 -0.0740329474 -1.44393326e-17
v -0.00357867498 0.0560249984 1.44393326e-17
v -0.00357867917 -0.0740329474 0.189585209
v -0.0144488411 0.0536823049 0.189585209
v -0.0144488607 -0.071690239 -1.39191468e-17
v -0.0144488411 0.0536823049 1.39191501e-17
v -0.0144488607 -0.071690239 0.189585209
v -0.0247667339 0.0495362319 0.189585209
v -0.0247667637 -0.0675441623 -1.29985337e-17
v -0.0247667339 0.0495362319 1.2998537e-17
v -0.0247667637 -0.0675441623 0.189585209
v -0.0342355222 0.0437060744 0.189585209
v -0.0342355669 -0.0617139861 -1.17039737e-17
v -0.0342355222 0.0437060744 1.17039811e-17
v -0.0342355669 -0.0617139861 0.189585209
v -0.0425828099 0.0363595374 0.189585209
v -0.0425828584 -0.054367438 -1.00727123e-17
v -0.0425828099 0.0363595374 1.00727231e-17
v -0.0425828584 -0.054367438 0.189585209
v -0.0495684594 0.0277079828 0.189585209
v -0.0495684966 -0.0457158722 -8.15167965e-18
v -0.0495684594 0.0277079828 8.15169123e-18
v -0.0495684966 -0.0457158722 0.189585209
v -0.0549915098 0.0180002879 0.189585209
v -0.0549915396 -0.0360081755 -5.99613713e-18
v -0.0549915098 0.0180002879 5.99615037e-18
v -0.0549915396 -0.0360081755 0.189585209
v -0.0586959422 0.0075157322 0.189585209
v -0.0586959608 -0.0255236141 -3.66809727e-18
v -0.0586959422 0.0075157322 3.66811133e-18
v -0.0586959608 -0.0255236141 0.189585209
v -0.0605751947 -0.0034440665 0.189585209
v -0.0605752021 -0.0145638129 -1.23453253e-18
v -0.0605751947 -0.0034440665 1.23454721e-18
v -0.0605752021 -0.0145638129 0.189585209
v 0.0678644851 0.00181833282 0.00144586619
v 0.065127641 0.0123293018 0.00144586619
v 0.060653802 0.022226546 0.00144586619
v 0.0651276782 -0.0303371456 0.00144586677
v 0.0687856004 -0.00900397357 0.00144586666
v 0.0678645074 -0.0198261589 0.00144586642
v 0.0545717254 -0.0492332317 0.00144586607
v 0.0606538504 -0.0402344093 0.00144586619
v 0.0383237116 -0.0635333136 0.00144586642
v 0.0470562764 -0.0570747294 0.00144586607
v -0.00338523346 -0.072522305 0.00144586596
v 0.0182398986 -0.0716036707 0.00144586642
v 0.0286252536 -0.0684231818 0.00144586619
v 0.00746642658 -0.0729832724 0.00144586607
v -0.0240811128 -0.0661842525 0.00144586619
v -0.0140028968 -0.0702340156 0.00144586642
v -0.0414833315 -0.0533136278 0.00144586607
v -0.0333299488 -0.0604895167 0.00144586619
v -0.0590577051 -0.0144346561 0.00144586642
v -0.0536037572 -0.0353808552 0.00144586619
v -0.0483066924 -0.0448630415 0.00144586642
v -0.0572221242 -0.0251398571 0.00144586619
v -0.0572221056 0.00713197375 0.00144586642
v -0.0590577014 -0.00357322488 0.00144586619
v -0.0483066589 0.0268551521 0.00144586642
v -0.0536037274 0.0173729714 0.00144586619
v -0.0140028782 0.0522260815 0.00144586607
v -0.0333299078 0.042481605 0.00144586619
v -0.0414832868 0.0353057273 0.00144586642
v -0.0240810812 0.0481763221 0.00144586642
v 0.0545716695 0.0312253479 0.00144586642
v 0.0470562242 0.0390668288 0.00144586619
v 0.0286252126 0.0504152477 0.00144586642
v 0.0383236669 0.0455253944 0.00144586619
v 0.00746641541 0.0549753271 0.00144586619
v -0.00338522927 0.054514356 0.00144586642
v 0.0182398725 0.0535957254 0.00144586642
f 1 2 3
f 1 3 4
f 3 5 4
f 5 6 4
f 4 7 8
f 4 8 9
f 8 10 9
f 4 9 11
f 1 4 11
f 9 12 13
f 9 13 11
f 13 14 11
f 11 15 16
f 11 16 17
f 16 18 17
f 11 17 19
f 1 11 19
f 17 20 21
f 17 21 19
f 21 22 19
f 19 23 24
f 19 24 25
f 24 26 25
f 1 19 27
f 19 25 27
f 25 28 29
f 25 29 27
f 29 30 27
f 1 31 32
f 1 33 31
f 1 27 33
f 33 34 31
f 27 35 33
f 35 36 33
f 27 37 35
f 38 39 40
f 41 40 39
f 40 42 38
f 39 43 41
f 44 38 42
f 45 41 43
f 42 46 44
f 43 47 45
f 48 44 46
f 49 45 47
f 46 50 48
f 47 51 49
f 52 48 50
f 53 49 51
f 50 54 52
f 51 55 53
f 56 52 54
f 57 53 55
f 54 58 56
f 55 59 57
f 60 56 58
f 61 57 59
f 58 62 60
f 59 63 61
f 64 60 62
f 65 61 63
f 62 66 64
f 63 67 65
f 68 64 66
f 69 65 67
f 66 70 68
f 67 71 69
f 72 68 70
f 73 69 71
f 70 74 72
f 71 75 73
f 76 72 74
f 77 73 75
f 74 78 76
f 75 79 77
f 80 76 78
f 81 77 79
f 78 82 80
f 79 83 81
f 84 80 82
f 85 81 83
f 82 86 84
f 83 87 85
f 88 84 86
f 89 85 87
f 86 90 88
f 87 91 89
f 92 88 90
f 93 89 91
f 90 94 92
f 91 95 93
f 96 92 94
f 97 93 95
f 94 98 96
f 95 99 97
f 100 96 98
f 101 97 99
f 98 102 100
f 99 103 101
f 104 100 102
f 105 101 103
f 102 106 104
f 103 107 105
f 108 104 106
f 109 105 107
f 106 110 108
f 107 111 109
f 110 109 111
f 111 108 110
f 112 113 114
f 113 112 115
f 114 116 112
f 115 117 113
f 116 114 118
f 117 115 119
f 118 120 116
f 119 121 117
f 120 118 122
f 121 119 123
f 122 124 120
f 123 125 121
f 124 122 126
f 125 123 127
f 126 128 124
f 127 129 125
f 128 126 130
f 129 127 131
f 130 132 128
f 131 133 129
f 132 130 134
f 133 131 135
f 134 136 132
f 135 137 133
f 136 134 138
f 137 135 139
f 138 140 136
f 139 141 137
f 140 138 142
f 141 139 143
f 142 144 140
f 143 145 141
f 144 142 146
f 145 143 147
f 146 148 144
f 147 149 145
f 148 146 150
f 149 147 151
f 150 152 148
f 151 153 149
f 152 150 154
f 153 151 155
f 154 156 152
f 155 157 153
f 156 154 158
f 157 155 159
f 158 160 156
f 159 161 157
f 160 158 162
f 161 159 163
f 162 164 160
f 163 165 161
f 164 162 166
f 165 163 167
f 166 168 164
f 167 169 165
f 168 166 170
f 169 167 171
f 170 172 168
f 171 173 169
f 172 170 174
f 173 171 175
f 174 176 172
f 175 177 173
f 176 174 178
f 177 175 179
f 178 180 176
f 179 181 177
f 180 178 182
f 181 179 183
f 182 184 180
f 183 185 181
f 184 182 185
f 185 183 184
f 186 187 188
f 189 188 187
f 188 190 186
f 187 191 189
f 192 186 190
f 193 189 191
f 190 194 192
f 191 195 193
f 196 192 194
f 197 193 195
f 194 198 196
f 195 199 197
f 200 196 198
f 201 197 199
f 198 202 200
f 199 203 201
f 204 200 202
f 205 201 203
f 202 206 204
f 203 207 205
f 208 204 206
f 209 205 207
f 206 210 208
f 207 211 209
f 212 208 210
f 213 209 211
f 210 214 212
f 211 215 213
f 216 212 214
f 217 213 215
f 214 218 216
f 215 219 217
f 220 216 218
f 221 217 219
f 218 222 220
f 219 223 221
f 224 220 222
f 225 221 223
f 222 226 224
f 223 227 225
f 228 224 226
f 229 225 227
f 226 230 228
f 227 231 229
f 232 228 230
f 233 229 231
f 230 234 232
f 231 235 233
f 236 232 234
f 237 233 235
f 234 238 236
f 235 239 237
f 240 236 238
f 241 237 239
f 238 242 240
f 239 243 241
f 244 240 242
f 245 241 243
f 242 246 244
f 243 247 245
f 248 244 246
f 249 245 247
f 246 250 248
f 247 251 249
f 252 248 250
f 253 249 251
f 250 254 252
f 251 255 253
f 256 252 254
f 257 253 255
f 254 258 256
f 255 259 257
f 258 257 259
f 259 256 258
f 260 261 262
f 260 262 263
f 260 263 264
f 263 265 264
f 266 267 263
f 268 266 263
f 268 269 266
f 270 268 263
f 262 270 263
f 271 272 268
f 270 271 268
f 270 273 271
f 274 275 270
f 276 274 270
f 276 277 274
f 278 276 270
f 262 278 270
f 279 280 276
f 278 279 276
f 278 281 279
f 282 283 278
f 284 282 278
f 284 285 282
f 262 286 278
f 286 284 278
f 287 288 284
f 286 287 284
f 286 289 287
f 262 290 291
f 262 291 292
f 262 292 286
f 291 293 292
f 292 294 286
f 294 295 286
f 292 296 294
