v -0.0598185994 -0.0548463687 0.249906212
v -0.0602103658 -0.0554360598 0.249643356
v -0.0596918017 -0.0549513176 0.249890193
v -0.0595660806 -0.0550288223 0.249815807
v -0.0615294203 -0.0559225753 0.24919048
v -0.0635836422 -0.0559155717 0.24857606
v -0.0601016507 -0.0555294603 0.249560878
v -0.0594605692 -0.055067081 0.249694347
v -0.0590167381 -0.054458838 0.249942079
v -0.0589442663 -0.0544475876 0.249793857
v -0.0586154237 -0.0537569188 0.25002265
v -0.0608100146 -0.0558132753 0.249392495
v -0.060720969 -0.0559190512 0.249301776
v -0.0599422604 -0.0555752628 0.249282077
v -0.0593913347 -0.0550602674 0.249544322
v -0.0614714809 -0.0560708418 0.249145657
v -0.062204279 -0.0560472012 0.248964682
v -0.0614041351 -0.056185063 0.249046847
v -0.0606399663 -0.0559762008 0.249169409
v -0.0621735044 -0.0562004782 0.248910785
v -0.0621291846 -0.0563189574 0.248804271
v -0.0613376275 -0.0562478602 0.248909071
v -0.0605793372 -0.055976022 0.249015555
v -0.0628935173 -0.0561980233 0.248695433
v -0.0628728196 -0.0563164204 0.248581842
v -0.0620780624 -0.0563845895 0.248661339
v -0.0612820908 -0.0562496632 0.248753309
v -0.0636083856 -0.0560635552 0.248506501
v -0.0636111274 -0.0561775379 0.248386726
v -0.062837474 -0.0563820004 0.248434201
v -0.0620279275 -0.0563873909 0.248503789
v 0.0687871799 0.0338463709 0.25060007
v 0.071341157 0.0347621217 0.249788553
v 0.0721745938 0.0358324572 0.249308169
v 0.0723106638 0.0357474536 0.249268085
v 0.072426267 0.0364685096 0.249075696
v 0.0725724697 0.0364091061 0.249026269
v 0.0727073252 0.0371130481 0.248800248
v 0.0719303265 0.0351493545 0.249517947
v 0.0724364743 0.0385329723 0.248496667
v 0.0726831779 0.0363417529 0.248923525
v 0.072822459 0.0370687842 0.248690099
v 0.0724127814 0.0356583968 0.249173298
v 0.0728837848 0.0370191596 0.248544753
v 0.0714436844 0.0346340388 0.24976781
v 0.0727415457 0.0362767018 0.248783141
v 0.0720199719 0.0350406803 0.249431342
v 0.0724654123 0.0355788432 0.249038205
v 0.0715173706 0.0345084593 0.2496894
v 0.0708663762 0.034218058 0.250009626
v 0.0701618865 0.0340706967 0.250238299
v 0.0720642656 0.0349480212 0.249301732
v 0.0724605322 0.0355209075 0.248883381
v 0.070921123 0.0340788327 0.249939159
v 0.0715509951 0.034404505 0.249565259
v 0.0720564574 0.034885481 0.249148846
v 0.0709420964 0.0339657627 0.249820322
v 0.0702169538 0.0339147858 0.250235647
v 0.0702503994 0.0337656178 0.250172585
v 0.0695162937 0.0337339714 0.250438601
v 0.0715394393 0.0343380012 0.249414295
v -0.0648881644 -0.0486853309 0.249548346
v -0.06542781 -0.049101308 0.249308154
v -0.065526776 -0.0489750281 0.24926807
v -0.0659983531 -0.0495078824 0.249026239
v -0.0663649961 -0.0501237549 0.248800218
v -0.0649654046 -0.0485423058 0.249517933
v -0.0664738417 -0.0508584008 0.248663291
v -0.0660794899 -0.0494068377 0.24892351
v -0.0664581582 -0.0500429086 0.248690069
v -0.065592438 -0.0488565043 0.249173269
v -0.066498898 -0.0499753617 0.248544723
v -0.0643323064 -0.0482236333 0.24976778
v -0.0661121979 -0.049325794 0.248783126
v -0.0650126636 -0.0484095886 0.249431327
v -0.0656148121 -0.0487637781 0.249038175
v -0.0629352629 -0.0481307432 0.25023827
v -0.0643587932 -0.048080463 0.24968937
v -0.0636478066 -0.0480292477 0.250009626
v -0.0655904859 -0.0487109721 0.248883367
v -0.0636518374 -0.0478797033 0.249939129
v -0.064354986 -0.0479712747 0.249565244
v -0.0649940819 -0.0482512452 0.249148816
v -0.0636330321 -0.0477662496 0.249820292
v -0.0629339144 -0.0479653999 0.250235647
v -0.062914528 -0.0478137583 0.250172585
v -0.0622135699 -0.048034139 0.250438601
v -0.0643214658 -0.0479126833 0.249414265
v -0.0681945011 0.014989377 0.249906227
v -0.0688659027 0.0147647969 0.249643385
v -0.0681589395 0.0148286708 0.249890223
v -0.0681073591 0.014690279 0.249815822
v -0.0695517287 0.0149960192 0.249427781
v -0.0671068504 0.0225760993 0.250021011
v -0.0688375086 0.0146243097 0.249560893
v -0.0680476129 0.0145952702 0.249694377
v -0.0673237368 0.0148024997 0.249942094
v -0.0672596395 0.0147668505 0.249793887
v -0.0665758476 0.0151097644 0.25002268
v -0.0695707873 0.0148355812 0.249392524
v -0.0695655197 0.0146974158 0.249301806
v -0.0687932596 0.0145279001 0.249434024
v -0.067988798 0.0145581085 0.249544352
v -0.0702509359 0.0150387483 0.249145687
v -0.0708146021 0.0155076161 0.248964712
v -0.0702679753 0.0149072474 0.249046862
v -0.0695367157 0.0146025578 0.249169439
v -0.0687398911 0.0144902477 0.249282107
v -0.0708844885 0.0153677678 0.248910815
v -0.0709223077 0.0152470591 0.248804286
v -0.07025408 0.014816842 0.248909086
v -0.0694887713 0.0145654492 0.249015585
v -0.0714510828 0.0158120655 0.248695448
v -0.0718220621 0.0164589211 0.248576075
v -0.0715074837 0.0157059301 0.248581871
v -0.0709223002 0.0151638649 0.248661369
v -0.0702113658 0.0147812972 0.248753339
v -0.0719325021 0.0163573623 0.248506531
v -0.0720046982 0.016269112 0.248386756
v -0.0715198964 0.0156324748 0.248434231
v -0.0708844587 0.0151308523 0.248503804
v -0.0723132864 0.0169861298 0.248350114
v 0.00650095474 0.0740413442 0.248268992
v 0.00922072306 0.0697503313 0.249788523
v 0.0090285223 0.071763359 0.249075681
v 0.00938030891 0.0711234137 0.24926807
v 0.00918037351 0.0718063116 0.249026239
v 0.00885429326 0.0724445805 0.248800218
v 0.00944767613 0.0704178363 0.249517918
v 0.00829040911 0.0729278922 0.248663291
v 0.00930910651 0.071821183 0.24892351
v 0.00897233095 0.0724803954 0.248690069
v 0.00951560028 0.0711158887 0.249173269
v 0.00905120093 0.0724789128 0.248544723
v 0.00938030984 0.0697122589 0.24976778
v 0.00939512253 0.0718057156 0.248783112
v 0.00958517753 0.0703871623 0.249431312
v 0.0096059991 0.071085453 0.249038175
v 0.00951560121 0.0696584508 0.24968937
v 0.00918037444 0.069029361 0.250009596
v 0.00871506147 0.0684802756 0.25023827
v 0.0096770525 0.0703412667 0.249301702
v 0.0096377423 0.0710367411 0.248883367
v 0.00930910744 0.068953149 0.249939129
v 0.00960600004 0.0695970878 0.249565229
v 0.00970931444 0.0702871233 0.249148816
v 0.00939512439 0.0688768178 0.249820292
v 0.00885429606 0.0683910847 0.250235617
v 0.00897233281 0.0682939366 0.250172555
v 0.00841255393 0.0678179562 0.250438601
v 0.00963774323 0.069537513 0.249414265
v 0.0695267618 0.0335788727 0.250382215
v 0.0702571422 0.0336458981 0.250058711
v 0.0709261 0.0338960551 0.249671206
v 0.0687869191 0.0336814299 0.250611991
v 0.0687734559 0.0335246064 0.250561267
v 0.0695181414 0.033455193 0.250272781
v 0.0702361465 0.0335738584 0.249911338
v 0.0680522621 0.0337588452 0.250750184
v 0.0680147111 0.0336045586 0.25070399
v 0.0687488541 0.0333997719 0.250455618
v 0.0694917589 0.0333817601 0.250126958
v 0.0673359483 0.0339637287 0.25084877
v 0.0661552846 0.0348502211 0.250892192
v 0.0672748983 0.0338161662 0.250805825
v 0.0679740086 0.0334814228 0.250601381
v 0.0687168539 0.0333259366 0.250311166
v 0.0666609928 0.0342895016 0.25090462
v 0.0665778071 0.0341526195 0.250863492
v 0.0672184974 0.0336975195 0.250705391
v 0.0679363534 0.0334081836 0.250457972
v 0.0660490915 0.0347256847 0.250915855
v 0.0659458339 0.0346031114 0.250875115
v 0.0665066093 0.0340411142 0.250764251
v 0.0671753287 0.033625856 0.250562727
v 0.065519914 0.0352582633 0.250882179
v -0.0589756817 -0.0508288853 0.250882149
v -0.0588264689 -0.0507711694 0.250840306
v -0.05915289 -0.0500678159 0.250875086
v -0.059038613 -0.050000798 0.250776112
v -0.0594886243 -0.0493483767 0.250764251
v -0.0594195947 -0.0492998362 0.250622034
v -0.0599758439 -0.0487301163 0.250562698
v -0.0589424595 -0.0515770875 0.250785261
v -0.0587804019 -0.0515504554 0.250804633
v -0.0586247854 -0.0515164062 0.250760227
v -0.0587052628 -0.0507190749 0.250740588
v -0.0589662977 -0.0499570183 0.250633985
v -0.0587121695 -0.0522893853 0.250685751
v -0.0589355193 -0.0529916286 0.250520617
v -0.0585543141 -0.0522795767 0.250637472
v -0.058499299 -0.0514801294 0.25065884
v -0.0586305149 -0.0506805368 0.250598192
v -0.0587731823 -0.0530219302 0.250529349
v -0.0586173274 -0.0530361459 0.250475913
v -0.0584273338 -0.0522594936 0.250533432
v -0.0584230497 -0.0514471419 0.250515848
v -0.0589614771 -0.0537245385 0.250340432
v -0.0588117987 -0.0537618026 0.250280797
v -0.0584916845 -0.0530321188 0.250368476
v -0.0583505593 -0.0522321947 0.250389546
v -0.0592710003 -0.0543746352 0.25012508
v -0.0591314733 -0.0544332191 0.250058383
v -0.0586902797 -0.0537731722 0.250169218
v -0.0584153794 -0.0530104563 0.250223368
v -0.0690906048 0.0229684711 0.249308169
v -0.0704048276 0.0225922391 0.248858422
v -0.0697905645 0.02299821 0.249026269
v -0.069091104 0.0231289119 0.249268085
v -0.0704582259 0.0227375366 0.248800248
v -0.0683823302 0.0231254436 0.249517947
v -0.0697925016 0.023127785 0.248923525
v -0.0704820603 0.0228585601 0.248690099
v -0.0690701008 0.0232627727 0.249173298
v -0.0704727098 0.022936888 0.248544753
v -0.0676870197 0.0229879152 0.24976781
v -0.0697685182 0.0232118256 0.248783141
v -0.0683380738 0.0232591908 0.249431342
v -0.0690307841 0.0233496781 0.249038205
v -0.067619957 0.0231171511 0.2496894
v -0.0670275092 0.0227207467 0.250009626
v -0.0682832226 0.0233460199 0.249301732
v -0.0689791441 0.0233763959 0.248883381
v -0.0669388175 0.0228412207 0.249939159
v -0.0675498694 0.0232009664 0.249565259
v -0.0682261288 0.0233727116 0.249148846
v -0.0668542758 0.0229191799 0.249820322
v -0.0664250106 0.0223325249 0.250235647
v -0.0663165599 0.0224402659 0.250172585
v -0.0660218969 0.0217253231 0.250433415
v -0.0658988878 0.0218357295 0.250438601
v -0.0674874261 0.0232266001 0.249414295
v 0.00124208943 0.0700880885 0.249668911
v 0.00108054921 0.0700636208 0.249643356
v 0.00121474173 0.0693665743 0.249890193
v 0.0010821959 0.069301419 0.249815807
v 0.000943602237 0.0700213313 0.249560863
v 0.000993631664 0.0692324862 0.249694347
v 0.00127215241 0.0685329363 0.249942064
v 0.00124308513 0.0684655979 0.249793857
v 0.00165260618 0.067819491 0.25002265
v 0.00108054921 0.0707720444 0.249392495
v 0.00137108972 0.0714391842 0.249190465
v 0.000943602237 0.0707530007 0.249301776
v 0.000852096651 0.0699676722 0.249433994
v 0.000962532533 0.0691702515 0.249544322
v 0.00121474126 0.0714690909 0.249145657
v 0.0010821959 0.0714729056 0.249046832
v 0.000852096651 0.0707148612 0.249169409
v 0.000819964684 0.0699108019 0.249282077
v 0.00147881242 0.072132349 0.248910785
v 0.00199549226 0.0726613998 0.24875766
v 0.00135492859 0.0721579194 0.248804256
v 0.000993631664 0.0714500472 0.248909071
v 0.000819964684 0.0706634447 0.249015555
v 0.00186427496 0.0727405027 0.248695418
v 0.00175303477 0.0727860183 0.248581842
v 0.0012721516 0.0721495971 0.248661339
v 0.000962532125 0.0714039952 0.248753309
v 0.0023587402 0.073273994 0.248506501
v 0.00303566689 0.0735988691 0.248425692
v 0.00226371875 0.073337011 0.248386726
v 0.00167870626 0.072791025 0.248434201
v 0.00124308479 0.0721086487 0.248503774
v 0.0029463151 0.0737156942 0.248350084
v 0.0656718314 0.0404678434 0.249427781
v 0.0651109368 0.0400104448 0.249643385
v 0.064788565 0.0393780246 0.249890223
v 0.0646439567 0.0394080542 0.249815822
v 0.0649769008 0.0400612168 0.249560893
v 0.0645317286 0.0394080691 0.249694377
v 0.0643216968 0.0386850014 0.249942094
v 0.0642573908 0.0386497304 0.249793887
v 0.0641835555 0.0378883444 0.25002268
v 0.0655461773 0.040569406 0.249392524
v 0.0667773113 0.0412643962 0.248964712
v 0.0654264241 0.0406385139 0.249301806
v 0.0648717359 0.0400750972 0.249434024
v 0.0644689575 0.0393780768 0.249544352
v 0.0660803095 0.0410369374 0.249145687
v 0.0659780726 0.0411213823 0.249046862
v 0.0653307959 0.040664643 0.249169439
v 0.0666961521 0.0413980186 0.248910815
v 0.0681189895 0.0416106284 0.248576075
v 0.0666141137 0.0414943025 0.248804286
v 0.0658941492 0.041157756 0.248909086
v 0.0652738512 0.040643815 0.249015585
v 0.0673739165 0.0416410379 0.248695448
v 0.0673141181 0.0417452939 0.248581871
v 0.0665436909 0.0415385924 0.248661369
v 0.0658413172 0.0411405303 0.248753339
v 0.0680918247 0.0417581834 0.248506531
v 0.0680555701 0.0418662839 0.248386756
v 0.0672585443 0.041794911 0.248434231
v 0.0664955974 0.0415241458 0.248503804
v 0.0688268021 0.0417456999 0.248350114
v -0.0615663826 -0.0483882353 0.25060004
v -0.0621705614 -0.0478847511 0.250382185
v -0.0628800765 -0.0476989076 0.250058681
v -0.0635942444 -0.0477061644 0.249671191
v -0.0615099333 -0.0482332557 0.250611961
v -0.0614438467 -0.048090402 0.250561237
v -0.0621203221 -0.0477714054 0.250272751
v -0.0608456172 -0.0485563539 0.250750154
v -0.0603474826 -0.0491186269 0.25082767
v -0.0607577413 -0.0484240949 0.250703961
v -0.0613781847 -0.0479814187 0.250455588
v -0.0620704927 -0.0477113612 0.250126958
v -0.0602419749 -0.0489930436 0.25084877
v -0.0601342991 -0.0488751121 0.250805795
v -0.0606775172 -0.048322197 0.250601351
v -0.0613229424 -0.0479229055 0.250311136
v -0.059718404 -0.0495292954 0.25090459
v -0.0594340079 -0.0502287708 0.250892162
v -0.0595935546 -0.049428951 0.250863463
v -0.0600408465 -0.0487827845 0.250705361
v -0.0606171638 -0.0482661687 0.250457972
v -0.0592917353 -0.0501478687 0.250915825
v 0.00776822167 0.0674586892 0.25060004
v 0.0085161021 0.0677020103 0.250382185
v 0.0090512028 0.0682036206 0.250058681
v 0.00942532904 0.0688119903 0.249671191
v 0.00786934793 0.067328386 0.250611961
v 0.00795507804 0.0671963766 0.250561237
v 0.00858529098 0.0675991252 0.250272751
v 0.00907889847 0.0681338832 0.249911323
v 0.0072421357 0.0669381097 0.250750154
v 0.0065009566 0.0668158606 0.25082767
v 0.00730729289 0.0667933077 0.250703961
v 0.00801236182 0.0670827702 0.250455588
v 0.0086095864 0.067524977 0.250126928
v 0.00655107712 0.0666596815 0.25084874
v 0.00659356732 0.0665057451 0.250805795
v 0.0073508299 0.0666711405 0.250601351
v 0.00803247653 0.067004852 0.250311136
v 0.0058183833 0.0665020421 0.25090459
v 0.00507488009 0.0666337609 0.250892162
v 0.00583684072 0.066342935 0.250863463
v 0.00662195822 0.0663774759 0.250705361
v 0.00736611802 0.0665902197 0.250457942
v 0.00506760366 0.0664702579 0.250915825
v 0.00506143458 0.0663101077 0.250875086
v 0.00584917329 0.0662112087 0.250764221
v 0.00663192803 0.0662944168 0.250562698
v 0.00432286877 0.0665653497 0.250882149
v 0.00367186079 0.0669356212 0.250785261
v -0.0657731742 0.0219271742 0.250382215
v -0.0662188083 0.0225097165 0.250058711
v -0.0667867586 0.0229427554 0.249671206
v -0.0654660389 0.0212463252 0.250611991
v -0.065092802 0.0198335722 0.2508277
v -0.0653261319 0.0213184357 0.250561267
v -0.0656638965 0.0219857357 0.250272781
v -0.0661466569 0.0225303043 0.249911338
v -0.0651403889 0.0205832571 0.250750184
v -0.0649897978 0.0206336193 0.25070399
v -0.0652073696 0.0213640817 0.250455618
v -0.065587692 0.0220025014 0.250126958
v -0.0649324059 0.0198678374 0.25084877
v -0.0647749901 0.0198947322 0.250805825
v -0.0648638979 0.0206647329 0.250601381
v -0.0651278272 0.0213763099 0.250311166
v -0.0648487583 0.0191230588 0.25090462
v -0.0650541112 0.0183964372 0.250892192
v -0.0646886006 0.0191255249 0.250863492
v -0.0646445304 0.019910166 0.250705391
v -0.0647818521 0.0206718575 0.250457972
v -0.0648921505 0.0183728598 0.250915855
v -0.0647334158 0.0183507204 0.250875115
v -0.0645563081 0.0191246364 0.250764251
v -0.0645608827 0.0199117865 0.250562727
v -0.0650611818 0.0176413544 0.250882179
v -0.0658793151 0.0164298341 0.250670999
v -0.0649079904 0.0175952204 0.250840336
v -0.064602077 0.0183333885 0.250776142
v -0.0644720197 0.0191205237 0.250622034
v -0.0653504208 0.0169520508 0.250804663
v -0.065206714 0.0168833062 0.250760257
v -0.0647803545 0.0175618567 0.250740618
v -0.0645181164 0.0183235034 0.250634015
v -0.0657505617 0.0163271055 0.250685781
v -0.0656199902 0.0162378624 0.250637501
v -0.0650854185 0.0168348346 0.25065884
v -0.0646976978 0.0175463408 0.250598222
v -0.0662487596 0.015786605 0.250529379
v -0.0669160187 0.0154885352 0.250339031
v -0.0661345273 0.0156796332 0.250475943
v -0.0655074567 0.0161756948 0.250533462
v -0.0650049895 0.0168140158 0.250515878
v -0.0668289959 0.0153479194 0.250340462
v -0.0667337924 0.0152265588 0.250280827
v -0.0660329163 0.0156056192 0.250368506
v -0.0654301122 0.0161500648 0.250389576
v -0.0674726143 0.01502515 0.25012508
v -0.0673985258 0.014893203 0.250058413
v -0.0666448995 0.0151429307 0.250169247
v -0.0659594014 0.0155758299 0.250223398
v 0.00429227203 0.0664083213 0.250840306
v 0.00505731301 0.0661776885 0.250776112
v 0.00585350394 0.0661269352 0.250622004
v 0.00360811478 0.0667842701 0.250804633
v 0.00355407363 0.0666344166 0.250760227
v 0.00427182764 0.0662779883 0.250740588
v 0.00505586527 0.0660931692 0.250633985
v 0.00294631487 0.0671199709 0.250685751
v 0.00247082626 0.0676829442 0.250520617
v 0.00287056644 0.0669811293 0.250637472
v 0.00351796439 0.0665088817 0.25065881
v 0.00426464854 0.066194199 0.250598192
v 0.00235874066 0.0675616711 0.250529349
v 0.00226371922 0.0674373135 0.250475913
v 0.00281995256 0.0668629557 0.250533432
v 0.00350528467 0.0664267763 0.250515848
v 0.00186427566 0.0680951625 0.250340432
v 0.00162494392 0.0687804222 0.250131994
v 0.00175303512 0.0679883137 0.250280797
v 0.0022002277 0.0673288181 0.250368476
v 0.00280217966 0.0667834282 0.250389546
v 0.00147881277 0.0687033162 0.250125051
v 0.00135492894 0.0686164126 0.250058383
v 0.00167870673 0.0678915083 0.250169218
v 0.00217793253 0.0672526956 0.250223368
v 0.0653992891 0.035153158 0.250840336
v 0.0658612251 0.0345011652 0.250776142
v 0.0664582476 0.0339719579 0.250622034
v 0.0650904551 0.0358701199 0.250804663
v 0.0647452548 0.0372779109 0.250520647
v 0.0649557561 0.0357850865 0.250760257
v 0.0653030872 0.0350628868 0.250740618
v 0.0658081546 0.0344353653 0.250634015
v 0.0647745356 0.0365415886 0.250685781
v 0.0646294728 0.036478579 0.250637501
v 0.0648501366 0.0357082225 0.25065884
v 0.0652459413 0.0350011848 0.250598222
v 0.0645823032 0.037251085 0.250529379
v 0.0647521019 0.0386635251 0.250132024
v 0.0644309297 0.0372113474 0.250475943
v 0.0645169318 0.03641643 0.250533462
v 0.0647896901 0.0356512293 0.250515878
v 0.0645199344 0.0379758105 0.250340462
v 0.0643141791 0.0371647514 0.250368506
v 0.0645894334 0.0386924669 0.25012508
v 0.0644382909 0.0387000069 0.250058413
v 0.0642483979 0.0379291289 0.250169247
v 0.064249821 0.0371183865 0.250223398
v -0.0653997138 -0.0548273399 0.248236895
v -0.0643203929 -0.0559067763 0.248225182
v -0.0635914579 -0.0562401749 0.248234943
v -0.0627928823 -0.0563847832 0.248274982
v -0.0649316683 -0.0554199591 0.248231217
v -0.0649778172 -0.0555128343 0.248102412
v -0.0643157735 -0.0559636652 0.248069972
v -0.0635523647 -0.0562419221 0.248074278
v -0.0654975548 -0.0549315214 0.248153687
v -0.0655622631 -0.0550083779 0.248022348
v -0.0649871454 -0.0555613637 0.247944593
v -0.0642819703 -0.0559633933 0.2479081
v -0.0659745932 -0.0543517768 0.248120025
v -0.0664635003 -0.0529659614 0.248269007
v -0.0660549477 -0.0544096157 0.247987568
v -0.0655839965 -0.0550462008 0.247862831
v -0.0649582371 -0.0555581599 0.247781798
v -0.0663474575 -0.0536993556 0.248131275
v -0.0664400384 -0.0537357926 0.247999191
v -0.0660871342 -0.0544347316 0.247827306
v -0.0655594394 -0.0550392345 0.24769944
v -0.0666041523 -0.0529952273 0.248187095
v -0.0665906742 -0.052261129 0.248363778
v -0.0667364448 -0.0522620268 0.248285696
v -0.0667051598 -0.0530085713 0.248056844
v -0.0664803982 -0.0537466109 0.247839183
v -0.0667400658 -0.0515233167 0.248423904
v -0.066614911 -0.0508028381 0.248597264
v -0.0668417886 -0.0522513203 0.248158678
v -0.0667511448 -0.0530039556 0.247898057
v -0.0668455288 -0.0514883772 0.248301402
v -0.0667162687 -0.050744269 0.248480454
v -0.0668906718 -0.0522306338 0.248002052
v -0.066894494 -0.0514515042 0.248147815
v -0.0667624921 -0.0506916046 0.248330668
v -0.0667351112 -0.0529820882 0.247734934
v -0.0668756515 -0.0522031263 0.247839674
v -0.0668795034 -0.0514183119 0.24798651
v -0.0667465329 -0.0506528653 0.248170689
v -0.066481024 -0.0499313958 0.248386309
v -0.06422057 -0.0497456864 0.239115804
v -0.0660915002 -0.0492770858 0.248626441
v -0.0640875995 -0.0489802398 0.239299998
v -0.0638220906 -0.0482587703 0.239515617
v -0.0634325668 -0.047604464 0.23975575
v -0.0629315525 -0.0470383465 0.240012676
v -0.0637483075 -0.0482450798 0.23936826
v -0.0623351485 -0.0465786196 0.240278125
v -0.0633616075 -0.0475955121 0.239606649
v -0.0628642216 -0.0470334962 0.239861697
v -0.0616625287 -0.0462400578 0.240543574
v -0.0622721426 -0.0465770997 0.240125239
v -0.0609353073 -0.0460335389 0.2408005
v -0.0616043955 -0.0462409928 0.240388766
v -0.0601768568 -0.0459657051 0.241040632
v -0.0608824417 -0.0460359678 0.240643814
v -0.0594115593 -0.0460387357 0.241256252
v -0.0586640052 -0.04625028 0.24144043
v -0.0579582267 -0.0465935431 0.241587266
v -0.0586275943 -0.0462511368 0.241279125
v -0.0573169068 -0.0470574908 0.241692021
v -0.0579269268 -0.0465919152 0.241424888
v -0.0567380339 -0.0476180948 0.241587758
v -0.057290256 -0.0470525026 0.241528884
v -0.0563073605 -0.0482843928 0.241763279
v -0.0559715815 -0.0490079112 0.241727501
v -0.0562880188 -0.0482705161 0.241599634
v -0.0557641126 -0.0497745164 0.241645142
v -0.0559546724 -0.048988793 0.24156411
v -0.0556916222 -0.0505595692 0.24151884
v -0.0557487085 -0.0497498475 0.241482347
v -0.0557564422 -0.0513378307 0.241352662
v -0.0556767434 -0.0505292118 0.241356969
v -0.0559564866 -0.0520842932 0.241151959
v -0.0557410941 -0.051301837 0.241191998
v -0.0562853292 -0.052774962 0.240923151
v -0.0559396893 -0.0520428903 0.24099274
v -0.0567323975 -0.0533876419 0.240673631
v -0.0562661476 -0.0527285561 0.240765601
v -0.057283327 -0.0539026372 0.240411386
v -0.0567099787 -0.0533367991 0.24051787
v -0.0579204038 -0.0543033965 0.240144864
v -0.0572569147 -0.0538480617 0.240257531
v -0.0586231537 -0.0545770377 0.239882618
v -0.0578893758 -0.054245919 0.239992931
v -0.0593689941 -0.0547147691 0.239633083
v -0.058587037 -0.0545175783 0.239732593
v -0.0601339452 -0.0547121577 0.239404291
v -0.059327472 -0.0546543114 0.239484876
v -0.0608934313 -0.0545692965 0.239203572
v -0.0600868873 -0.0546517186 0.239257723
v -0.0616230331 -0.0542907715 0.239037395
v -0.0622993037 -0.0538855344 0.238911107
v -0.0615651831 -0.0542333834 0.238893494
v -0.0600445233 -0.054537259 0.239146143
v -0.0607828386 -0.0543983765 0.238951027
v -0.0593008921 -0.054539796 0.239368558
v -0.0585758425 -0.0544059053 0.239611134
v -0.0592932925 -0.0543886609 0.239301875
v -0.0600133091 -0.0543862022 0.239086509
v -0.0578926764 -0.0541398898 0.239866078
v -0.058591269 -0.0542590208 0.239536747
v -0.0579298027 -0.0540014543 0.239783585
v -0.0572733581 -0.0537503026 0.240125164
v -0.0573301539 -0.0536242388 0.240034446
v -0.0579951033 -0.0538516864 0.239758015
v -0.0599979945 -0.0542215481 0.239087924
v -0.0629598573 -0.0524467342 0.238534778
v -0.0569201559 -0.0530230813 0.240236476
v -0.0568115935 -0.0531394966 0.240281284
v -0.0607281737 -0.0542517342 0.238897592
v -0.0614921041 -0.0541276149 0.238789484
v -0.0614149161 -0.0539895706 0.238741174
v -0.0619572848 -0.0534735918 0.238641679
v -0.0621495247 -0.0537336729 0.238666698
v -0.0622365549 -0.0538310818 0.238768116
v -0.0620514564 -0.0536081381 0.238622308
v -0.062900506 -0.0533666089 0.238828748
v -0.062833406 -0.0533159189 0.238686353
v -0.0627339706 -0.0532292165 0.238586634
v -0.0626173392 -0.0531197041 0.238544777
v -0.0632266551 -0.0526304543 0.238551855
v -0.0630943775 -0.0525399558 0.2385111
v -0.0636117458 -0.0519566312 0.238563478
v -0.0634672418 -0.0518875346 0.238522366
v -0.0638768673 -0.0512294099 0.238621131
v -0.0637239441 -0.0511834063 0.238578185
v -0.064013496 -0.0504721589 0.238722965
v -0.0638562292 -0.0504502058 0.238676786
v -0.0636957139 -0.0497277118 0.238826901
v -0.0640172362 -0.0497092158 0.238865703
v -0.0638598576 -0.0497114956 0.23881498
v -0.0638879761 -0.0489651076 0.239044756
v -0.0637346953 -0.048991017 0.238988355
v -0.0635754019 -0.0490351096 0.238993555
v -0.0636298656 -0.0482637472 0.23925437
v -0.0634847805 -0.0483119339 0.239191309
v -0.0640119016 -0.0489613228 0.23915419
v -0.0632511973 -0.0476276763 0.239487812
v -0.0641439036 -0.0497212224 0.238971338
v -0.0641400814 -0.0505003519 0.238825575
v -0.0642167181 -0.0505305007 0.238968983
v -0.0640005544 -0.0512736738 0.238721579
v -0.0640761778 -0.0513094664 0.238864228
v -0.0637298077 -0.052016329 0.238662705
v -0.0638034493 -0.0520575382 0.238804922
v -0.0633365437 -0.0527044497 0.238650829
v -0.0634073168 -0.0527506806 0.238792971
v -0.0664623901 -0.0537301637 0.247675613
v 0.0695257559 0.0414623842 0.24831143
v 0.0688146502 0.0418533869 0.248225212
v 0.0680157319 0.0419184677 0.248234972
v 0.0672156736 0.0417823307 0.248275012
v 0.0695552155 0.0416039787 0.248231232
v 0.0695669577 0.0417070203 0.248102427
v 0.0687909275 0.0419052988 0.248070002
v 0.0679783821 0.0419067927 0.248074293
v 0.0702536628 0.0413375758 0.248153716
v 0.0702883154 0.0414318815 0.248022363
v 0.0695591941 0.0417558216 0.247944608
v 0.0687592328 0.0418935269 0.247908115
v 0.0708996952 0.0409550592 0.24812004
v 0.0713688955 0.0403710529 0.248215362
v 0.0709555373 0.0410368182 0.247987583
v 0.0702958629 0.0414748453 0.247862846
v 0.0695331097 0.0417429581 0.247781828
v 0.0714725405 0.0404687226 0.24813129
v 0.0718315318 0.0398187526 0.248269022
v 0.071547173 0.0405345261 0.247999206
v 0.0709772408 0.0410713963 0.247827336
v 0.0702751502 0.0414599329 0.247699454
v 0.0719537959 0.0398941897 0.248187125
v 0.0723279864 0.0392499343 0.248285711
v 0.0720442086 0.0399411507 0.248056859
v 0.0715814307 0.0405584462 0.247839198
v 0.0725830868 0.0385566615 0.248423919
v 0.0727109089 0.0378366522 0.248597279
v 0.0724306777 0.0392757617 0.248158693
v 0.0720890164 0.0399524793 0.247898087
v 0.0726941451 0.0385597497 0.248301432
v 0.0728261545 0.0378161222 0.248480484
v 0.072752744 0.038541764 0.24814783
v 0.0728875548 0.0377823561 0.248330683
v 0.072081387 0.0399264582 0.247734949
v 0.0724789351 0.0392419919 0.247839704
v 0.0727499649 0.0385054499 0.247986525
v 0.0728857592 0.0377404988 0.248170719
v 0.0728819519 0.036971733 0.248386338
v 0.0708200336 0.0360269435 0.239115834
v 0.0727386773 0.0362238586 0.248626471
v 0.0709558278 0.0352619961 0.239300013
v 0.0709520206 0.0344932303 0.239515632
v 0.0708087459 0.0337453522 0.239755765
v 0.0705306008 0.0330424048 0.24001269
v 0.0708873272 0.0344552211 0.239368275
v 0.0701265261 0.0324069746 0.24027814
v 0.0707450882 0.0337127596 0.239606664
v 0.0704689547 0.0330149047 0.239861727
v 0.0696095079 0.0318594947 0.240543589
v 0.0689456388 0.0314018205 0.240643844
v 0.0695545375 0.0318405628 0.240388781
v 0.0683062151 0.031095352 0.241040647
v 0.0675216839 0.0308912508 0.241096303
v 0.0682606846 0.0310819577 0.240882233
v 0.0667869225 0.0308474321 0.24144046
v 0.066006422 0.0309296791 0.241587281
v 0.0667523965 0.0308358334 0.241279155
v 0.0652453974 0.0311473515 0.241692036
v 0.065977551 0.0309174843 0.241424918
v 0.0645283163 0.0314934552 0.241751343
v 0.0652220398 0.0311335791 0.241528898
v 0.0638782233 0.0319568627 0.241763309
v 0.0645101517 0.0314771757 0.241587788
v 0.0633160174 0.0325226821 0.241727531
v 0.0638647676 0.0319372267 0.241599649
v 0.0628597587 0.0331727266 0.241645172
v 0.0633066297 0.0324989446 0.24156414
v 0.0625241175 0.0338861011 0.24151887
v 0.0628536791 0.0331442803 0.241482377
v 0.0623198897 0.0346398801 0.241352692
v 0.0625204742 0.0338524915 0.241356999
v 0.0622536242 0.035409838 0.241151974
v 0.0623177215 0.0346008092 0.241192013
v 0.0623274595 0.0361712277 0.240923181
v 0.0622519366 0.0353651904 0.240992755
v 0.0625390261 0.0368995704 0.240673646
v 0.0623252392 0.0361210592 0.240765616
v 0.0628815144 0.0375714637 0.240411416
v 0.062535271 0.0368441306 0.240517899
v 0.0633439198 0.0381653123 0.240144879
v 0.0628752783 0.037511155 0.240257561
v 0.0639113858 0.0386620238 0.239882648
v 0.0633343384 0.0381007008 0.239992961
v 0.064565666 0.0390456393 0.239633113
v 0.0638976917 0.0385938175 0.239732623
v 0.0652857423 0.0393038243 0.239404306
v 0.0645472333 0.0389746539 0.239484891
v 0.0660484508 0.0394282863 0.239203602
v 0.0652620867 0.0392309688 0.239257753
v 0.0668293014 0.0394150205 0.239037424
v 0.0660192743 0.0393545292 0.239058495
v 0.0676031783 0.0392644554 0.238911122
v 0.06679447 0.0393413566 0.238893524
v 0.0652612597 0.0391089246 0.239146158
v 0.0660027117 0.0392299145 0.238951042
v 0.0645612627 0.0388579331 0.239368588
v 0.0639252141 0.0384850092 0.239611164
v 0.0646056086 0.0387132503 0.23930189
v 0.0652833804 0.0389562696 0.239086539
v 0.0633735657 0.0380021445 0.239866093
v 0.0639897659 0.0383521728 0.239536762
v 0.0634556413 0.0378846414 0.2397836
v 0.0629240498 0.0374248475 0.240125194
v 0.0630203933 0.0373256803 0.240034476
v 0.0635680631 0.0377660841 0.239758044
v 0.0646735355 0.0385626331 0.239294976
v 0.0674219877 0.0387606248 0.238641694
v 0.0626483336 0.0359617658 0.240462273
v 0.062698029 0.0366932601 0.240281314
v 0.0653250813 0.0387962498 0.239087954
v 0.0660012886 0.0390734188 0.238897622
v 0.0660152137 0.038908869 0.238906339
v 0.0667617992 0.0392170176 0.238789499
v 0.066736266 0.0390609317 0.238741204
v 0.0675141066 0.0390706472 0.238666728
v 0.0675627366 0.0391918831 0.238768145
v 0.0674646795 0.0389192104 0.238622323
v 0.0683452189 0.0389814265 0.238828763
v 0.0682994053 0.038910903 0.238686368
v 0.0682354569 0.0387955084 0.238586664
v 0.0681631267 0.0386528112 0.238544807
v 0.0689026788 0.0384004451 0.238551885
v 0.0688091516 0.0382702947 0.23851113
v 0.0692651272 0.0376692936 0.238545626
v 0.0694943145 0.0378981568 0.238563508
v 0.069381997 0.0377839543 0.238522381
v 0.0699913576 0.0373047814 0.23862116
v 0.0698632523 0.0372094251 0.2385782
v 0.0700874701 0.0364976637 0.238694072
v 0.0703778192 0.0366393924 0.238722995
v 0.0702374429 0.0365651697 0.238676801
v 0.0706412941 0.0359233767 0.238865718
v 0.0704925507 0.0358718969 0.23881501
v 0.070332706 0.035831213 0.238826916
v 0.0707733035 0.0351797529 0.239044771
v 0.0706203654 0.0351518877 0.23898837
v 0.070769608 0.0344324112 0.239254385
v 0.0706167892 0.0344282836 0.239191324
v 0.0703224912 0.0337667502 0.23940596
v 0.0708910972 0.0352184176 0.23915422
v 0.0706303194 0.0337053835 0.239487827
v 0.0707562864 0.0359778255 0.238971367
v 0.0704872236 0.036709033 0.238825589
v 0.0705490038 0.0367634892 0.238968998
v 0.0700925589 0.0373885408 0.238721609
v 0.0701514557 0.0374479517 0.238864258
v 0.0695849732 0.0379945077 0.23866272
v 0.0696401671 0.0380583405 0.238804951
v 0.0689807832 0.0385074578 0.238650858
v 0.0690315664 0.0385750346 0.238792986
v -0.0724456459 0.0177286156 0.24831143
v -0.0723979697 0.0169185046 0.248225212
v -0.0720276609 0.0162076075 0.248234972
v -0.0714864209 0.0156028811 0.248275012
v -0.0725811794 0.0176781602 0.248231232
v -0.0726746544 0.0176332332 0.248102427
v -0.072429277 0.0168707799 0.248070002
v -0.0719978884 0.0161822103 0.248074293
v -0.0727275833 0.0184112098 0.248153716
v -0.0726058111 0.019154774 0.248204544
v -0.072825864 0.0183903277 0.248022363
v -0.0727118328 0.017600676 0.247944608
v -0.0724024326 0.0168502219 0.247908115
v -0.0727477968 0.019161718 0.24812004
v -0.072846733 0.0191654544 0.247987583
v -0.0728662461 0.0183738358 0.247862846
v -0.0726870522 0.0175854433 0.247781828
v -0.0726411566 0.0199055653 0.24813129
v -0.0719494447 0.0211897697 0.248363808
v -0.0727365911 0.0199336987 0.247999206
v -0.0728875548 0.0191654116 0.247827336
v -0.0728425905 0.0183642451 0.247699454
v -0.0724110901 0.0206188411 0.248187125
v -0.0720650107 0.0212786198 0.248285711
v -0.0724989846 0.0206703693 0.248056859
v -0.0727750808 0.0199499577 0.247839198
v -0.0716140196 0.021863699 0.248423919
v -0.0710726231 0.0223552696 0.248597279
v -0.0721415505 0.0213517919 0.248158693
v -0.0725324377 0.0207022633 0.247898087
v -0.07167577 0.0219560601 0.248301432
v -0.0711166188 0.0224637557 0.248480484
v -0.0721674114 0.0213981438 0.248002067
v -0.0716917515 0.0220152363 0.24814783
v -0.0711207315 0.0225337055 0.248330683
v -0.0725063458 0.0207096618 0.247734949
v -0.0721386597 0.0214106217 0.247839704
v -0.0716595277 0.0220322162 0.247986525
v -0.0710843429 0.0225544702 0.248170719
v -0.0704315901 0.0229605939 0.248386338
v -0.0685339719 0.0217183474 0.239115834
v -0.069722265 0.0232375376 0.248626471
v -0.0679587871 0.0222405996 0.239300013
v -0.0673060343 0.0226467233 0.239515632
v -0.0665967092 0.022923667 0.239755765
v -0.0658535883 0.0230625272 0.24001269
v -0.0672394112 0.0226121992 0.239368275
v -0.065100573 0.023058841 0.24027814
v -0.0665352196 0.0228871368 0.239606664
v -0.0657974929 0.0230249893 0.239861727
v -0.0643618703 0.0229127295 0.240543589
v -0.0650499314 0.0230213311 0.240125254
v -0.0636612028 0.0226288866 0.240800515
v -0.0643165708 0.0228762776 0.240388781
v -0.0630210936 0.0222164355 0.241040647
v -0.0636209771 0.022594491 0.240643844
v -0.0624621324 0.0216886308 0.241256267
v -0.0629855171 0.0221850276 0.240882233
v -0.0620022751 0.0210624412 0.24144046
v -0.0624305978 0.0216610469 0.241096303
v -0.0616563 0.0203579888 0.241587281
v -0.061974071 0.0210393928 0.241279155
v -0.0614353269 0.0195979159 0.241692036
v -0.0616306029 0.0203400422 0.241424918
v -0.0613464639 0.0188066531 0.241751343
v -0.0614112318 0.0195854772 0.241528898
v -0.0613925643 0.0180096328 0.241763309
v -0.0613230132 0.0187999457 0.241587788
v -0.0615721419 0.0172324702 0.241727531
v -0.0613687783 0.0180086996 0.241599649
v -0.0618794337 0.0165001452 0.241645172
v -0.0615470558 0.0172371659 0.24156414
v -0.0623045564 0.015836196 0.24151887
v -0.0618521199 0.0165101457 0.241482377
v -0.0628338456 0.0152619602 0.241352692
v -0.0622741617 0.0158510059 0.241356999
v -0.0634502918 0.0147958947 0.241151974
v -0.0627996176 0.0152809303 0.241192013
v -0.0641340837 0.0144529799 0.240923181
v -0.0634116009 0.0148182409 0.240992755
v -0.0648632422 0.0142442388 0.240673646
v -0.0640904382 0.0144778108 0.240765616
v -0.0656143352 0.014176378 0.240411416
v -0.0648143142 0.0142705804 0.240517899
v -0.0663632154 0.0142515795 0.240144879
v -0.0655599684 0.0142032113 0.240257561
v -0.06708581 0.0144674266 0.239882648
v -0.0663034171 0.0142778689 0.239992961
v -0.0677589029 0.0148169827 0.239633113
v -0.0670207813 0.0144921532 0.239732623
v -0.0683608651 0.0152890105 0.239404306
v -0.0676890016 0.0148391752 0.239484891
v -0.0688723326 0.0158683397 0.239203602
v -0.0682865977 0.015307785 0.239257753
v -0.0692768767 0.0165363513 0.239037424
v -0.0687943622 0.0158829186 0.239058495
v -0.0695614964 0.0172715746 0.238911122
v -0.0691959783 0.0165460911 0.238893524
v -0.0681828484 0.0153720696 0.239146158
v -0.0686800629 0.0159352515 0.238951042
v -0.0675976723 0.0149131976 0.239368588
v -0.06694334 0.0145733859 0.239611164
v -0.0674988255 0.0150277782 0.23930189
v -0.0680654198 0.0154720759 0.239086539
v -0.0662408844 0.0143635543 0.239866093
v -0.0668652728 0.0146987578 0.239536762
v -0.0661851242 0.0144955907 0.2397836
v -0.0655128807 0.0142904483 0.240125194
v -0.0654802397 0.0144248065 0.240034476
v -0.0667984635 0.0148491841 0.239520758
v -0.0654670224 0.0145858321 0.239999205
v -0.0618095063 0.0173510909 0.241190076
v -0.0647732764 0.0144886812 0.240281314
v -0.0684149712 0.0161167793 0.238906339
v -0.0685468391 0.0160173718 0.238897622
v -0.0690733343 0.0165846422 0.238789499
v -0.0689276233 0.0166461393 0.238741204
v -0.0690385476 0.0173864737 0.238641694
v -0.0693500191 0.0172993708 0.238666728
v -0.0694785342 0.0172759872 0.238768145
v -0.0691955164 0.0173381697 0.238622323
v -0.0697170347 0.0180503763 0.238828763
v -0.0696329474 0.018049147 0.238686368
v -0.0695012286 0.0180564653 0.238586664
v -0.0693419203 0.0180712193 0.238544807
v -0.0691987127 0.0188126322 0.238534808
v -0.0695220977 0.0188315921 0.238551885
v -0.0693621263 0.0188217275 0.23851113
v -0.0694119558 0.0195998363 0.238563508
v -0.0692554861 0.0195655748 0.238522381
v -0.0691743493 0.0203365088 0.23862116
v -0.0690254271 0.0202788506 0.2385782
v -0.0685423464 0.0208476279 0.238694072
v -0.0688169152 0.0210179295 0.238722995
v -0.0686793402 0.0209386311 0.238676801
v -0.0683511347 0.0216221996 0.238865718
v -0.0682283565 0.0215237085 0.23881501
v -0.0677919835 0.0221298952 0.239044771
v -0.0676869601 0.022015281 0.23898837
v -0.0669977292 0.0222500972 0.239188686
v -0.067157425 0.0225246996 0.239254385
v -0.0670725629 0.0223975461 0.239191324
v -0.0678874329 0.0222090166 0.23915422
v -0.0664678663 0.0227939226 0.239487827
v -0.0684584528 0.0216905475 0.238971367
v -0.0689341128 0.021073455 0.238825589
v -0.0690131038 0.0210967511 0.238968998
v -0.0692991391 0.0203775745 0.238721609
v -0.06938079 0.020395793 0.238864258
v -0.0695417896 0.0196252689 0.23866272
v -0.0696252063 0.0196380001 0.238804951
v -0.0696542636 0.0188407209 0.238650858
v -0.0697385073 0.0188477263 0.238792986
v -0.0727507696 0.0199518688 0.247675642
v -0.0728640631 0.0191615969 0.247663692
v 0.00287056668 0.0737932026 0.248225182
v 0.00220022723 0.0733537152 0.248234943
v 0.00165260572 0.0727547556 0.248274982
v 0.00360811478 0.0740513951 0.248231217
v 0.00435895938 0.0741320252 0.24823688
v 0.0035540734 0.0741399154 0.248102397
v 0.00281995302 0.0738195777 0.248069972
v 0.00217793207 0.0733215511 0.248074263
v 0.00432286784 0.0742703155 0.248153687
v 0.0042922711 0.0743660107 0.248022333
v 0.00351796416 0.0741736516 0.247944593
v 0.00280217989 0.0737908185 0.247908086
v 0.00506760227 0.0743654072 0.24812001
v 0.00506143365 0.0744642243 0.247987553
v 0.00427182717 0.0744045451 0.247862816
v 0.00350528443 0.0741474703 0.247781798
v 0.00581838191 0.0743336231 0.248131275
v 0.00583683886 0.074431397 0.247999176
v 0.00505731162 0.0745048448 0.247827306
v 0.00426464807 0.0743800551 0.24769944
v 0.00655107526 0.0741759837 0.248187095
v 0.00724213338 0.0738975555 0.248285696
v 0.00659356499 0.0742685869 0.248056829
v 0.00584917143 0.0744713172 0.247839183
v 0.00786934514 0.0735072866 0.248423889
v 0.00841255207 0.0730177164 0.248597264
v 0.00730729057 0.0739810243 0.248158664
v 0.00662195589 0.0743050575 0.247898057
v 0.00795507524 0.0735779479 0.248301402
v 0.0085160993 0.0730723217 0.248480454
v 0.00735082757 0.0740113854 0.248002052
v 0.00801235903 0.0735997632 0.248147815
v 0.00858528819 0.0730834082 0.248330668
v 0.0066319257 0.0742798373 0.247734919
v 0.00736611523 0.0739840269 0.247839674
v 0.00803247374 0.0735694021 0.247986495
v 0.0086095836 0.0730492771 0.248170689
v 0.0090788966 0.0724403709 0.248386309
v 0.00803247374 0.0704281256 0.239115804
v 0.00942532811 0.0717622638 0.248626441
v 0.0086095836 0.0699080005 0.239299983
v 0.0090788966 0.0692990944 0.239515617
v 0.00939512253 0.0685561597 0.239606634
v 0.0096377423 0.0678954646 0.240012661
v 0.00905120093 0.0692293569 0.239368245
v 0.00970931444 0.0671458468 0.240278125
v 0.0096059991 0.0678358898 0.239861697
v 0.00963774323 0.0663962364 0.240543574
v 0.0096770525 0.0670917109 0.240125224
v 0.00942532904 0.0656707138 0.240800485
v 0.00960600004 0.0663475245 0.240388751
v 0.00907889847 0.0649926066 0.241040617
v 0.00939512439 0.065627262 0.240643814
v 0.0086095864 0.0643837005 0.241256237
v 0.0090512028 0.0649540648 0.240882203
v 0.00801236182 0.0638332143 0.241279125
v 0.00858529098 0.0643495694 0.241096273
v 0.00736611802 0.0634489432 0.241587251
v 0.00663192803 0.0631531402 0.241692007
v 0.0073508299 0.0634215847 0.241424888
v 0.00585350394 0.0629856586 0.241751313
v 0.00662195822 0.06312792 0.241528884
v 0.00505586527 0.0629518926 0.241763279
v 0.00584917329 0.0629616529 0.241587758
v 0.00426464854 0.0630529225 0.241727501
v 0.00505731301 0.0629281327 0.241599634
v 0.00350528467 0.0632854998 0.241645142
v 0.00427182764 0.063028425 0.24156411
v 0.00280217966 0.0636421517 0.24151884
v 0.00351796439 0.0632593259 0.241482347
v 0.00217793253 0.064111419 0.241352662
v 0.00281995256 0.0636133924 0.241356969
v 0.00165260618 0.0646782145 0.241151959
v 0.0022002277 0.0640792623 0.241191998
v 0.00127215241 0.0652833804 0.240765586
v 0.00167870673 0.0646419525 0.240992725
v 0.000962532533 0.066028975 0.240673617
v 0.000819964684 0.0667695254 0.240411386
v 0.000993631664 0.0659829229 0.24051787
v 0.000819964684 0.0675221682 0.240144849
v 0.000852096651 0.066718109 0.240257531
v 0.000962532125 0.0682627186 0.239882618
v 0.000852096651 0.0674653053 0.239992931
v 0.00124308479 0.0689673722 0.239633083
v 0.000993631664 0.0682004914 0.239732593
v 0.00165260572 0.0696134791 0.239404291
v 0.0012721516 0.0689000338 0.239484861
v 0.00217793207 0.0701802745 0.239203572
v 0.00167870626 0.0695414618 0.239257723
v 0.00280217989 0.0706495419 0.239037395
v 0.00220022723 0.070104152 0.239058465
v 0.00350528443 0.0710062012 0.238911092
v 0.00281995302 0.0705700219 0.238893494
v 0.00175303477 0.0694446638 0.239146143
v 0.00226371875 0.0699956566 0.238951012
v 0.00135492859 0.068816565 0.239368558
v 0.0010821959 0.0681315511 0.239611134
v 0.00147881242 0.068729654 0.23930186
v 0.00186427496 0.0693378076 0.239086509
v 0.000943602237 0.0674116388 0.239866063
v 0.00121474126 0.0680664033 0.239536732
v 0.00108054921 0.0673693568 0.23978357
v 0.000943602237 0.0666799769 0.240125164
v 0.00108054921 0.0666609257 0.240034446
v 0.00137108972 0.068014957 0.239520729
v 0.00124208943 0.0666638613 0.239999175
v 0.00650095474 0.070617117 0.238599256
v 0.00199549226 0.0692371726 0.239087924
v 0.00121474173 0.0659638792 0.240281284
v 0.0023587402 0.0698713064 0.238897592
v 0.00303566689 0.0701746345 0.238755941
v 0.00287056668 0.0704518408 0.238789469
v 0.0029463151 0.0703130066 0.238741174
v 0.0035540734 0.070798561 0.238666698
v 0.00351796416 0.0709240958 0.238768116
v 0.00360811478 0.0706487074 0.238622293
v 0.00426464807 0.0712387785 0.238828734
v 0.00427182717 0.0711549893 0.238686353
v 0.0042922711 0.0710246563 0.238586634
v 0.00435895938 0.070707798 0.238567144
v 0.00432286784 0.0708676204 0.238544777
v 0.00506143365 0.0711228698 0.238551855
v 0.00506760227 0.0709627196 0.2385111
v 0.00583683886 0.0710900426 0.238563478
v 0.00581838191 0.0709309354 0.238522351
v 0.00659356499 0.0709272325 0.238621131
v 0.00655107526 0.0707732961 0.238578185
v 0.00730729057 0.0706396699 0.238722965
v 0.00724213338 0.0704948604 0.238676772
v 0.00776821934 0.0699742883 0.238826901
v 0.00795507524 0.0702365935 0.238865703
v 0.00786934514 0.0701045915 0.23881498
v 0.0085160993 0.0697309673 0.239044756
v 0.00841255207 0.0696150213 0.23898834
v 0.00871505961 0.068952702 0.239188656
v 0.00897233095 0.069139041 0.23925437
v 0.00885429326 0.0690418929 0.239191294
v 0.00858528819 0.0698338449 0.23915419
v 0.00930910651 0.0684798285 0.239487797
v 0.00801235903 0.0703502074 0.238971338
v 0.00735082757 0.0707618296 0.238825575
v 0.00736611523 0.0708427504 0.238968983
v 0.00662195589 0.0710554942 0.238721579
v 0.0066319257 0.0711385608 0.238864228
v 0.00584917143 0.0712217614 0.238662705
v 0.00585350208 0.0713060424 0.238804922
v 0.00505731162 0.071255289 0.238650829
v 0.00505586388 0.0713398084 0.238792956
v 0.00585350208 0.0744473189 0.247675613
v 0.00505586388 0.0744810849 0.247663662
v 0.00958517753 0.0670458078 0.239995614
v 0.00951560028 0.0677745268 0.239737555
v 0.00918037351 0.0684036165 0.239417329
v 0.00938030891 0.0677207187 0.239659145
v 0.00928548351 0.0670043677 0.239878595
v 0.00944767613 0.0670151412 0.239909008
v 0.00951560121 0.0663170889 0.240253672
v 0.00938030984 0.0663095638 0.240158871
v 0.00930910744 0.0656117946 0.24050343
v 0.00902852323 0.0656696185 0.24035126
v 0.00918037444 0.0656266659 0.240400687
v 0.00897233281 0.0649525821 0.240736857
v 0.00885429606 0.0649883971 0.240626723
v 0.0085161021 0.0643606558 0.240946472
v 0.00829041097 0.0645050853 0.240763634
v 0.00841255393 0.0644152611 0.240829676
v 0.00795507804 0.0638550222 0.241125524
v 0.00786934793 0.0639256909 0.241003036
v 0.00730729289 0.0634519532 0.241268262
v 0.0072421357 0.0635354221 0.241141245
v 0.00659356732 0.0631643906 0.241370097
v 0.0699671134 0.032404311 0.239995643
v 0.0703599304 0.0330220275 0.239737585
v 0.0704819262 0.0337243415 0.239417344
v 0.0702201203 0.033062689 0.239659175
v 0.0697051957 0.0325557403 0.239878625
v 0.069839783 0.0324645899 0.239909038
v 0.0694645122 0.03187209 0.240253687
v 0.0693531409 0.0319492705 0.240158886
v 0.0688682646 0.0314424634 0.240503445
v 0.0686824098 0.0316604748 0.24035129
v 0.0687758327 0.0315332897 0.240400717
v 0.0681975484 0.0311292466 0.240736887
v 0.0681264102 0.0312300194 0.240626737
v 0.0674739033 0.0309425034 0.240946501
v 0.0666834116 0.0311446115 0.240930319
v 0.0674257576 0.0310492069 0.240829706
v 0.0667206049 0.0308882371 0.241125554
v 0.0666963756 0.0309966654 0.241003066
v 0.0659618527 0.0309681911 0.241268292
v 0.065961726 0.0310740806 0.241141275
v 0.0652220398 0.031179795 0.241370127
v -0.0650134385 0.0229253303 0.239995643
v -0.0657454655 0.0229289122 0.239737585
v -0.0664049014 0.0226582196 0.239417344
v -0.0657054409 0.0227889214 0.239659175
v -0.0656835064 0.0226263292 0.239638433
v -0.0649966672 0.0227854531 0.239909038
v -0.0642953217 0.0227832906 0.240253687
v -0.0643337443 0.0224907883 0.240118816
v -0.0643013492 0.0226479247 0.240158886
v -0.0636141822 0.0225073583 0.240503445
v -0.0636418462 0.0223807562 0.240400717
v -0.0629919246 0.0221064035 0.240736887
v -0.0631205663 0.021860756 0.240568563
v -0.0630393475 0.0219925344 0.240626737
v -0.0624485388 0.0215933118 0.240946501
v -0.0625132248 0.021495739 0.240829706
v -0.0620014966 0.0209845752 0.241125554
v -0.0620803759 0.0209063347 0.241003066
v -0.0616651662 0.0202997588 0.241268292
v -0.0618856512 0.0201791693 0.241063178
v -0.0617547259 0.0202432666 0.241141275
v -0.0614503548 0.0195608716 0.241370127
v -0.0615467392 0.0195278469 0.241239861
v -0.061363969 0.0187916644 0.241427779
v -0.0616053045 0.0187754668 0.241211623
v -0.0614630952 0.0187830683 0.241295695
v -0.0614087805 0.0180168599 0.241439402
v -0.0615064874 0.0180328712 0.241306946
v -0.0615833551 0.017261358 0.241404623
v -0.061675515 0.0173013639 0.241273269
v -0.0618820824 0.0165494457 0.241324559
v -0.061964754 0.0166120604 0.241195753
v -0.0622953549 0.0159040019 0.241201788
v -0.0623649023 0.015987115 0.241076872
v -0.062809892 0.0153457718 0.241040245
v -0.0629511401 0.0155681046 0.240850911
v -0.0628630966 0.0154466145 0.240920454
v -0.0634091571 0.0148926983 0.240845114
v -0.0634433329 0.0150079299 0.240731537
v -0.0640738904 0.0145593416 0.240622699
v -0.0641276389 0.014836112 0.240462273
v -0.0640869513 0.0146851605 0.240516186
v -0.0647827238 0.0143564176 0.240380123
v 0.0065009566 0.0633916259 0.241157934
v 0.00655107712 0.0632569864 0.241239846
v 0.00583684072 0.0630015731 0.241427749
v 0.0058183833 0.0630993471 0.241295666
v 0.00506143458 0.0629687458 0.241439372
v 0.00507488009 0.0632095337 0.241222426
v 0.00506760366 0.0630675629 0.241306916
v 0.00429227203 0.0630669594 0.241404593
v 0.00432286877 0.0631626621 0.241273239
v 0.00355407363 0.0632930622 0.241324529
v 0.00367186079 0.063511394 0.241115525
v 0.00360811478 0.063381575 0.241195723
v 0.00287056644 0.0636397749 0.241201758
v 0.00294631487 0.0637172759 0.241076842
v 0.00226371922 0.0640959591 0.241040215
v 0.00247082626 0.064258717 0.240850881
v 0.00235874066 0.0641589761 0.240920424
v 0.00175303512 0.0646469593 0.240845084
v 0.00186427566 0.0646924749 0.240731508
v 0.00135492894 0.0652750582 0.240622669
v 0.00162494392 0.0653561875 0.240462244
v 0.00147881277 0.0653006211 0.240516156
v 0.0010821959 0.0659600645 0.240380093
v 0.0652454123 0.0312789641 0.241239861
v 0.0645249486 0.0315162502 0.241427779
v 0.0646397397 0.0317291543 0.241211623
v 0.0645704567 0.0316047333 0.241295695
v 0.0638929754 0.0319667421 0.241439402
v 0.0639585555 0.0320409164 0.241306946
v 0.0633464381 0.0325167887 0.241404623
v 0.0635428056 0.0326604359 0.241190076
v 0.0634293705 0.0325734988 0.241273269
v 0.0629028976 0.0331487171 0.241324559
v 0.0629999191 0.0331853554 0.241195753
v 0.0625766143 0.0338422097 0.241201788
v 0.0631299689 0.0332486182 0.241115555
v 0.0626839995 0.0338568203 0.241076872
v 0.062378075 0.0345749781 0.241040245
v 0.0624917634 0.0345663205 0.240920454
v 0.062313661 0.0353234746 0.240845114
v 0.0626414791 0.0345761515 0.240850911
v 0.0624293946 0.0352910422 0.240731537
v 0.0623854399 0.0360636376 0.240622699
v 0.0624988936 0.0360077024 0.240516186
v 0.0625911057 0.0367716812 0.240380123
v -0.0573060066 -0.0470959507 0.241370097
v -0.057361763 -0.0471812226 0.241239846
v -0.057965409 -0.0467445329 0.241141245
v -0.0586679392 -0.0465649478 0.240930304
v -0.056765262 -0.0476497896 0.241427749
v -0.0569457263 -0.0478108414 0.241211608
v -0.056838192 -0.0477174744 0.241295666
v -0.0563245974 -0.0482886545 0.241439387
v -0.0564115234 -0.0483360477 0.241306916
v -0.0559981763 -0.048992008 0.241404608
v -0.0562317409 -0.0490601473 0.241190046
v -0.0560954697 -0.0490170643 0.241273254
v -0.0557964928 -0.0497372448 0.241324529
v -0.05590019 -0.0497386344 0.241195723
v -0.0557260215 -0.0505004153 0.241201758
v -0.0558319576 -0.0504775643 0.241076842
v -0.0557890348 -0.0512569845 0.241040215
v -0.0560370758 -0.0511683412 0.240850896
v -0.0558929704 -0.0512101091 0.240920439
v -0.0559835061 -0.0519826412 0.240845099
v -0.0560812652 -0.0519127175 0.240731508
v -0.0563031808 -0.0526540615 0.240622669
v -0.0563907884 -0.0525628142 0.240516156
v -0.056737788 -0.0532496609 0.240380093
v -0.0621843711 -0.0466304272 0.239995614
v -0.0627641454 -0.0470773429 0.23973757
v -0.0631181449 -0.0476960614 0.239417329
v -0.0626465604 -0.0471632071 0.23965916
v -0.0625293627 -0.0472780168 0.239638418
v -0.0620851964 -0.0467304848 0.239909008
v -0.0615305007 -0.0463013053 0.240253672
v -0.0613811091 -0.0465556979 0.240118787
v -0.0614520945 -0.046411816 0.240158871
v -0.0608235486 -0.0461005419 0.24050343
v -0.060767591 -0.0462174267 0.240400702
v -0.0600862391 -0.0460345969 0.240736872
v -0.0607230924 -0.0463688336 0.24035126
v -0.0600536987 -0.0461535789 0.240626723
v -0.059333358 -0.046222318 0.240829676
v -0.0593443513 -0.0463735312 0.240763649
v -0.0586155541 -0.0463112406 0.241125539
v -0.0586297214 -0.0464214347 0.241003036
v -0.0579294488 -0.0466449335 0.241268262
f 1 2 3
f 2 4 3
f 5 2 1
f 6 5 1
f 2 7 4
f 4 8 9
f 7 8 4
f 9 10 11
f 8 10 9
f 5 12 2
f 12 7 2
f 12 13 7
f 7 14 8
f 13 14 7
f 8 15 10
f 14 15 8
f 5 16 12
f 16 13 12
f 17 16 5
f 6 17 5
f 16 18 13
f 13 19 14
f 18 19 13
f 17 20 16
f 20 18 16
f 20 21 18
f 18 22 19
f 21 22 18
f 19 23 14
f 22 23 19
f 17 24 20
f 24 21 20
f 6 24 17
f 24 25 21
f 21 26 22
f 25 26 21
f 22 27 23
f 26 27 22
f 6 28 24
f 28 25 24
f 28 29 25
f 25 30 26
f 29 30 25
f 26 31 27
f 30 31 26
f 32 33 34
f 33 35 34
f 32 34 36
f 34 37 36
f 34 35 37
f 36 37 38
f 33 39 35
f 32 36 40
f 36 38 40
f 35 41 37
f 37 42 38
f 37 41 42
f 35 43 41
f 39 43 35
f 41 44 42
f 33 45 39
f 43 46 41
f 41 46 44
f 39 47 43
f 45 47 39
f 43 48 46
f 47 48 43
f 45 49 47
f 33 50 45
f 50 49 45
f 51 50 33
f 32 51 33
f 47 52 48
f 49 52 47
f 52 53 48
f 50 54 49
f 49 55 52
f 54 55 49
f 55 56 52
f 52 56 53
f 54 57 55
f 58 54 50
f 51 58 50
f 58 59 54
f 59 57 54
f 60 59 58
f 51 60 58
f 57 61 55
f 55 61 56
f 6 62 63
f 62 64 63
f 63 64 65
f 63 65 66
f 62 67 64
f 6 63 68
f 63 66 68
f 64 69 65
f 65 70 66
f 65 69 70
f 64 71 69
f 67 71 64
f 69 72 70
f 62 73 67
f 71 74 69
f 69 74 72
f 67 75 71
f 73 75 67
f 71 76 74
f 75 76 71
f 77 73 62
f 6 77 62
f 73 78 75
f 77 79 73
f 79 78 73
f 75 80 76
f 79 81 78
f 78 82 75
f 81 82 78
f 82 83 75
f 75 83 80
f 81 84 82
f 85 81 79
f 77 85 79
f 85 86 81
f 86 84 81
f 87 86 85
f 77 87 85
f 84 88 82
f 82 88 83
f 89 90 91
f 90 92 91
f 93 90 89
f 94 93 89
f 90 95 92
f 92 96 97
f 95 96 92
f 97 98 99
f 96 98 97
f 93 100 90
f 100 95 90
f 100 101 95
f 95 102 96
f 101 102 95
f 96 103 98
f 102 103 96
f 93 104 100
f 104 101 100
f 105 104 93
f 94 105 93
f 104 106 101
f 101 107 102
f 106 107 101
f 102 108 103
f 107 108 102
f 105 109 104
f 109 106 104
f 109 110 106
f 106 111 107
f 110 111 106
f 107 112 108
f 111 112 107
f 105 113 109
f 113 110 109
f 114 113 105
f 94 114 105
f 113 115 110
f 110 116 111
f 115 116 110
f 111 117 112
f 116 117 111
f 114 118 113
f 118 115 113
f 118 119 115
f 115 120 116
f 119 120 115
f 116 121 117
f 120 121 116
f 114 122 118
f 122 119 118
f 123 124 125
f 124 126 125
f 125 126 127
f 125 127 128
f 124 129 126
f 123 125 130
f 125 128 130
f 126 131 127
f 127 132 128
f 127 131 132
f 126 133 131
f 129 133 126
f 131 134 132
f 124 135 129
f 133 136 131
f 131 136 134
f 129 137 133
f 135 137 129
f 133 138 136
f 137 138 133
f 135 139 137
f 124 140 135
f 140 139 135
f 141 140 124
f 123 141 124
f 137 142 138
f 139 142 137
f 142 143 138
f 140 144 139
f 139 145 142
f 144 145 139
f 145 146 142
f 142 146 143
f 144 147 145
f 148 144 140
f 141 148 140
f 148 149 144
f 149 147 144
f 150 149 148
f 141 150 148
f 147 151 145
f 145 151 146
f 32 60 51
f 60 152 59
f 59 153 57
f 152 153 59
f 57 154 61
f 153 154 57
f 32 155 60
f 155 152 60
f 155 156 152
f 152 157 153
f 156 157 152
f 153 158 154
f 157 158 153
f 32 159 155
f 159 156 155
f 159 160 156
f 156 161 157
f 160 161 156
f 157 162 158
f 161 162 157
f 32 163 159
f 163 160 159
f 164 163 32
f 163 165 160
f 160 166 161
f 165 166 160
f 161 167 162
f 166 167 161
f 164 168 163
f 168 165 163
f 168 169 165
f 165 170 166
f 169 170 165
f 166 171 167
f 170 171 166
f 164 172 168
f 172 169 168
f 172 173 169
f 169 174 170
f 173 174 169
f 170 175 171
f 174 175 170
f 164 176 172
f 176 173 172
f 177 178 179
f 179 180 181
f 178 180 179
f 181 182 183
f 180 182 181
f 184 185 177
f 185 178 177
f 185 186 178
f 178 187 180
f 186 187 178
f 180 188 182
f 187 188 180
f 184 189 185
f 189 186 185
f 190 189 184
f 6 190 184
f 189 191 186
f 186 192 187
f 191 192 186
f 187 193 188
f 192 193 187
f 190 194 189
f 194 191 189
f 194 195 191
f 191 196 192
f 195 196 191
f 192 197 193
f 196 197 192
f 190 198 194
f 198 195 194
f 198 199 195
f 195 200 196
f 199 200 195
f 196 201 197
f 200 201 196
f 190 202 198
f 202 199 198
f 1 202 190
f 6 1 190
f 202 203 199
f 199 204 200
f 203 204 199
f 200 205 201
f 204 205 200
f 1 3 202
f 3 203 202
f 3 4 203
f 203 9 204
f 4 9 203
f 204 11 205
f 9 11 204
f 94 206 207
f 206 208 207
f 206 209 208
f 207 208 210
f 206 211 209
f 94 211 206
f 209 212 208
f 208 213 210
f 208 212 213
f 209 214 212
f 211 214 209
f 212 215 213
f 94 216 211
f 214 217 212
f 212 217 215
f 211 218 214
f 216 218 211
f 214 219 217
f 218 219 214
f 216 220 218
f 94 221 216
f 221 220 216
f 218 222 219
f 220 222 218
f 222 223 219
f 221 224 220
f 220 225 222
f 224 225 220
f 225 226 222
f 222 226 223
f 224 227 225
f 228 224 221
f 94 228 221
f 228 229 224
f 229 227 224
f 230 228 94
f 231 229 228
f 230 231 228
f 227 232 225
f 225 232 226
f 233 234 235
f 234 236 235
f 234 237 236
f 236 238 239
f 237 238 236
f 239 240 241
f 238 240 239
f 233 242 234
f 242 237 234
f 243 242 233
f 123 243 233
f 242 244 237
f 237 245 238
f 244 245 237
f 238 246 240
f 245 246 238
f 243 247 242
f 247 244 242
f 247 248 244
f 244 249 245
f 248 249 244
f 245 250 246
f 249 250 245
f 243 251 247
f 251 248 247
f 252 251 243
f 123 252 243
f 251 253 248
f 248 254 249
f 253 254 248
f 249 255 250
f 254 255 249
f 252 256 251
f 256 253 251
f 256 257 253
f 253 258 254
f 257 258 253
f 254 259 255
f 258 259 254
f 252 260 256
f 260 257 256
f 261 260 252
f 123 261 252
f 260 262 257
f 257 263 258
f 262 263 257
f 258 264 259
f 263 264 258
f 261 265 260
f 265 262 260
f 266 267 268
f 267 269 268
f 267 270 269
f 269 271 272
f 270 271 269
f 272 273 274
f 271 273 272
f 266 275 267
f 275 270 267
f 276 275 266
f 32 276 266
f 275 277 270
f 270 278 271
f 277 278 270
f 271 279 273
f 278 279 271
f 276 280 275
f 280 277 275
f 280 281 277
f 277 282 278
f 281 282 277
f 276 283 280
f 283 281 280
f 284 283 276
f 32 284 276
f 283 285 281
f 281 286 282
f 285 286 281
f 282 287 278
f 286 287 282
f 284 288 283
f 288 285 283
f 288 289 285
f 285 290 286
f 289 290 285
f 286 291 287
f 290 291 286
f 284 292 288
f 292 289 288
f 292 293 289
f 289 294 290
f 293 294 289
f 290 295 291
f 294 295 290
f 284 296 292
f 296 293 292
f 297 87 77
f 6 297 77
f 87 298 86
f 86 299 84
f 298 299 86
f 84 300 88
f 299 300 84
f 297 301 87
f 301 298 87
f 301 302 298
f 298 303 299
f 302 303 298
f 297 304 301
f 304 302 301
f 305 304 297
f 6 305 297
f 304 306 302
f 302 307 303
f 306 307 302
f 303 308 299
f 307 308 303
f 305 309 304
f 309 306 304
f 309 310 306
f 306 311 307
f 310 311 306
f 307 312 308
f 311 312 307
f 305 313 309
f 313 310 309
f 314 313 305
f 6 314 305
f 313 315 310
f 310 316 311
f 315 316 310
f 311 317 312
f 316 317 311
f 314 318 313
f 318 315 313
f 318 179 315
f 315 181 316
f 179 181 315
f 316 183 317
f 181 183 316
f 314 177 318
f 177 179 318
f 184 177 314
f 6 184 314
f 319 150 141
f 123 319 141
f 150 320 149
f 149 321 147
f 320 321 149
f 147 322 151
f 321 322 147
f 319 323 150
f 323 320 150
f 323 324 320
f 320 325 321
f 324 325 320
f 321 326 322
f 325 326 321
f 319 327 323
f 327 324 323
f 328 327 319
f 123 328 319
f 327 329 324
f 324 330 325
f 329 330 324
f 325 331 326
f 330 331 325
f 328 332 327
f 332 329 327
f 332 333 329
f 329 334 330
f 333 334 329
f 330 335 331
f 334 335 330
f 328 336 332
f 336 333 332
f 337 336 328
f 123 337 328
f 336 338 333
f 333 339 334
f 338 339 333
f 334 340 335
f 339 340 334
f 337 341 336
f 341 338 336
f 341 342 338
f 338 343 339
f 342 343 338
f 339 344 340
f 343 344 339
f 337 345 341
f 345 342 341
f 346 345 337
f 123 346 337
f 231 347 229
f 229 348 227
f 347 348 229
f 227 349 232
f 348 349 227
f 230 350 231
f 350 347 231
f 351 350 230
f 94 351 230
f 350 352 347
f 347 353 348
f 352 353 347
f 348 354 349
f 353 354 348
f 351 355 350
f 355 352 350
f 355 356 352
f 352 357 353
f 356 357 352
f 353 358 354
f 357 358 353
f 351 359 355
f 359 356 355
f 359 360 356
f 356 361 357
f 360 361 356
f 357 362 358
f 361 362 357
f 351 363 359
f 363 360 359
f 364 363 351
f 94 364 351
f 363 365 360
f 360 366 361
f 365 366 360
f 361 367 362
f 366 367 361
f 364 368 363
f 368 365 363
f 368 369 365
f 365 370 366
f 369 370 365
f 366 371 367
f 370 371 366
f 364 372 368
f 372 369 368
f 373 372 364
f 94 373 364
f 372 374 369
f 369 375 370
f 374 375 369
f 370 376 371
f 375 376 370
f 373 377 372
f 377 374 372
f 377 378 374
f 374 379 375
f 378 379 374
f 375 380 376
f 379 380 375
f 373 381 377
f 381 378 377
f 381 382 378
f 378 383 379
f 382 383 378
f 379 384 380
f 383 384 379
f 373 385 381
f 385 382 381
f 386 385 373
f 94 386 373
f 385 387 382
f 382 388 383
f 387 388 382
f 383 389 384
f 388 389 383
f 386 390 385
f 390 387 385
f 390 391 387
f 387 392 388
f 391 392 387
f 388 393 389
f 392 393 388
f 386 394 390
f 394 391 390
f 89 394 386
f 94 89 386
f 394 395 391
f 391 396 392
f 395 396 391
f 392 397 393
f 396 397 392
f 89 91 394
f 91 395 394
f 91 92 395
f 395 97 396
f 92 97 395
f 396 99 397
f 97 99 396
f 345 398 342
f 342 399 343
f 398 399 342
f 343 400 344
f 399 400 343
f 346 401 345
f 401 398 345
f 401 402 398
f 398 403 399
f 402 403 398
f 399 404 400
f 403 404 399
f 346 405 401
f 405 402 401
f 406 405 346
f 123 406 346
f 405 407 402
f 402 408 403
f 407 408 402
f 403 409 404
f 408 409 403
f 406 410 405
f 410 407 405
f 410 411 407
f 407 412 408
f 411 412 407
f 408 413 409
f 412 413 408
f 406 414 410
f 414 411 410
f 415 414 406
f 123 415 406
f 414 416 411
f 411 417 412
f 416 417 411
f 412 418 413
f 417 418 412
f 415 419 414
f 419 416 414
f 419 420 416
f 416 421 417
f 420 421 416
f 417 422 418
f 421 422 417
f 415 235 419
f 235 420 419
f 233 235 415
f 123 233 415
f 235 236 420
f 420 239 421
f 236 239 420
f 421 241 422
f 239 241 421
f 176 423 173
f 173 424 174
f 423 424 173
f 174 425 175
f 424 425 174
f 164 426 176
f 426 423 176
f 427 426 164
f 32 427 164
f 426 428 423
f 423 429 424
f 428 429 423
f 424 430 425
f 429 430 424
f 427 431 426
f 431 428 426
f 431 432 428
f 428 433 429
f 432 433 428
f 429 434 430
f 433 434 429
f 427 435 431
f 435 432 431
f 436 435 427
f 32 436 427
f 435 437 432
f 432 438 433
f 437 438 432
f 433 439 434
f 438 439 433
f 436 440 435
f 440 437 435
f 437 441 438
f 440 441 437
f 436 442 440
f 442 443 440
f 440 444 441
f 443 444 440
f 441 445 438
f 444 445 441
f 436 268 442
f 268 443 442
f 266 268 436
f 32 266 436
f 268 269 443
f 443 272 444
f 269 272 443
f 444 274 445
f 272 274 444
f 446 28 6
f 28 447 29
f 29 448 30
f 447 448 29
f 30 449 31
f 448 449 30
f 446 450 28
f 450 447 28
f 450 451 447
f 447 452 448
f 451 452 447
f 448 453 449
f 452 453 448
f 446 454 450
f 454 451 450
f 454 455 451
f 451 456 452
f 455 456 451
f 452 457 453
f 456 457 452
f 446 458 454
f 458 455 454
f 459 458 446
f 6 459 446
f 458 460 455
f 455 461 456
f 460 461 455
f 456 462 457
f 461 462 456
f 459 463 458
f 463 460 458
f 463 464 460
f 460 465 461
f 464 465 460
f 461 466 462
f 465 466 461
f 459 467 463
f 467 464 463
f 6 468 459
f 468 467 459
f 468 469 467
f 467 470 464
f 469 470 467
f 464 471 465
f 470 471 464
f 6 68 468
f 468 472 469
f 68 472 468
f 68 473 472
f 68 66 473
f 469 474 470
f 472 474 469
f 474 475 470
f 470 475 471
f 472 476 474
f 473 476 472
f 66 477 473
f 473 477 476
f 66 70 477
f 476 478 474
f 474 478 475
f 477 479 476
f 476 479 478
f 70 480 477
f 477 480 479
f 70 72 480
f 478 481 475
f 479 482 478
f 478 482 481
f 480 483 479
f 479 483 482
f 72 484 480
f 480 484 483
f 72 485 484
f 74 485 72
f 484 486 483
f 74 487 485
f 76 487 74
f 76 80 487
f 485 488 484
f 484 488 486
f 487 489 485
f 485 489 488
f 80 490 487
f 487 490 489
f 80 491 490
f 83 491 80
f 490 492 489
f 83 493 491
f 88 493 83
f 491 494 490
f 490 494 492
f 493 495 491
f 491 495 494
f 88 496 493
f 300 496 88
f 493 497 495
f 496 497 493
f 300 498 496
f 299 498 300
f 496 499 497
f 498 499 496
f 299 500 498
f 308 500 299
f 498 501 499
f 500 501 498
f 308 502 500
f 312 502 308
f 312 503 502
f 317 503 312
f 317 504 503
f 183 504 317
f 503 505 502
f 504 505 503
f 183 506 504
f 182 506 183
f 504 507 505
f 506 507 504
f 182 508 506
f 188 508 182
f 506 509 507
f 508 509 506
f 188 510 508
f 193 510 188
f 193 511 510
f 197 511 193
f 510 512 508
f 511 512 510
f 197 513 511
f 201 513 197
f 511 514 512
f 513 514 511
f 201 515 513
f 205 515 201
f 513 516 514
f 515 516 513
f 205 517 515
f 11 517 205
f 515 518 516
f 517 518 515
f 11 519 517
f 10 519 11
f 517 520 518
f 519 520 517
f 10 521 519
f 15 521 10
f 519 522 520
f 521 522 519
f 15 523 521
f 14 523 15
f 521 524 522
f 523 524 521
f 14 525 523
f 23 525 14
f 523 526 524
f 525 526 523
f 23 527 525
f 27 527 23
f 525 528 526
f 527 528 525
f 27 529 527
f 31 529 27
f 527 530 528
f 529 530 527
f 31 531 529
f 449 531 31
f 529 532 530
f 531 532 529
f 449 533 531
f 453 533 449
f 531 534 532
f 533 534 531
f 453 535 533
f 457 535 453
f 533 536 534
f 535 536 533
f 457 537 535
f 462 537 457
f 462 538 537
f 466 538 462
f 537 539 535
f 538 539 537
f 535 540 536
f 539 541 535
f 535 541 540
f 536 540 542
f 536 542 534
f 534 542 543
f 534 543 532
f 540 544 542
f 541 545 540
f 540 545 544
f 532 543 546
f 532 546 530
f 542 547 543
f 542 544 547
f 543 548 546
f 543 547 548
f 530 546 549
f 530 549 528
f 546 548 550
f 546 550 549
f 547 551 548
f 548 551 550
f 544 551 547
f 544 552 551
f 552 553 551
f 545 552 544
f 550 551 554
f 551 553 554
f 550 554 555
f 549 550 555
f 556 552 545
f 541 556 545
f 557 556 541
f 539 557 541
f 558 552 556
f 557 558 556
f 558 559 552
f 559 553 552
f 560 558 557
f 561 557 539
f 561 560 557
f 538 561 539
f 560 562 558
f 562 559 558
f 563 561 538
f 466 563 538
f 564 560 561
f 563 564 561
f 565 562 560
f 564 565 560
f 565 566 562
f 566 559 562
f 566 553 559
f 567 566 565
f 568 553 566
f 567 568 566
f 569 568 567
f 570 553 568
f 569 570 568
f 571 570 569
f 572 553 570
f 571 572 570
f 573 572 571
f 574 553 572
f 573 574 572
f 574 575 553
f 576 574 573
f 577 575 574
f 576 577 574
f 578 577 576
f 579 575 577
f 578 579 577
f 579 580 575
f 580 553 575
f 581 579 578
f 582 580 579
f 581 582 579
f 492 581 578
f 494 581 492
f 492 578 583
f 583 578 576
f 489 492 583
f 489 583 488
f 494 584 581
f 584 582 581
f 495 584 494
f 488 583 585
f 583 576 585
f 488 585 486
f 585 576 573
f 585 573 586
f 486 585 586
f 586 573 571
f 486 586 587
f 483 486 587
f 483 587 482
f 586 571 588
f 587 586 588
f 588 571 569
f 482 587 589
f 587 588 589
f 482 589 481
f 588 569 590
f 589 588 590
f 590 569 567
f 481 589 591
f 589 590 591
f 590 567 592
f 591 590 592
f 592 567 565
f 592 565 564
f 593 592 564
f 591 592 593
f 593 564 563
f 481 591 594
f 594 591 593
f 475 481 594
f 475 594 471
f 594 593 465
f 465 593 563
f 471 594 465
f 465 563 466
f 595 296 284
f 32 595 284
f 296 596 293
f 293 597 294
f 596 597 293
f 294 598 295
f 597 598 294
f 595 599 296
f 599 596 296
f 599 600 596
f 596 601 597
f 600 601 596
f 597 602 598
f 601 602 597
f 595 603 599
f 603 600 599
f 603 604 600
f 600 605 601
f 604 605 600
f 601 606 602
f 605 606 601
f 595 607 603
f 607 604 603
f 608 607 595
f 32 608 595
f 607 609 604
f 604 610 605
f 609 610 604
f 605 611 606
f 610 611 605
f 608 612 607
f 612 609 607
f 613 612 608
f 32 613 608
f 612 614 609
f 609 615 610
f 614 615 609
f 610 616 611
f 615 616 610
f 613 617 612
f 617 614 612
f 32 40 613
f 613 618 617
f 40 618 613
f 617 619 614
f 618 619 617
f 614 620 615
f 619 620 614
f 40 621 618
f 40 622 621
f 40 38 622
f 618 623 619
f 621 623 618
f 623 624 619
f 619 624 620
f 621 625 623
f 622 625 621
f 38 626 622
f 622 626 625
f 38 42 626
f 626 627 625
f 625 627 623
f 42 628 626
f 626 628 627
f 42 44 628
f 623 629 624
f 627 630 623
f 623 630 629
f 628 631 627
f 627 631 630
f 44 632 628
f 628 632 631
f 44 633 632
f 46 633 44
f 632 634 631
f 46 635 633
f 48 635 46
f 48 53 635
f 633 636 632
f 632 636 634
f 635 637 633
f 633 637 636
f 53 638 635
f 635 638 637
f 53 639 638
f 56 639 53
f 638 640 637
f 56 641 639
f 61 641 56
f 639 642 638
f 638 642 640
f 641 643 639
f 639 643 642
f 61 644 641
f 154 644 61
f 154 645 644
f 158 645 154
f 644 646 641
f 645 646 644
f 158 647 645
f 162 647 158
f 162 648 647
f 167 648 162
f 647 649 645
f 648 649 647
f 167 650 648
f 171 650 167
f 171 651 650
f 175 651 171
f 650 652 648
f 651 652 650
f 175 653 651
f 425 653 175
f 651 654 652
f 653 654 651
f 425 655 653
f 430 655 425
f 653 656 654
f 655 656 653
f 430 657 655
f 434 657 430
f 655 658 656
f 657 658 655
f 434 659 657
f 439 659 434
f 657 660 658
f 659 660 657
f 439 661 659
f 438 661 439
f 659 662 660
f 661 662 659
f 438 663 661
f 445 663 438
f 661 664 662
f 663 664 661
f 445 665 663
f 274 665 445
f 663 666 664
f 665 666 663
f 274 667 665
f 273 667 274
f 665 668 666
f 667 668 665
f 273 669 667
f 279 669 273
f 667 670 668
f 669 670 667
f 279 671 669
f 278 671 279
f 669 672 670
f 671 672 669
f 278 673 671
f 287 673 278
f 671 674 672
f 673 674 671
f 287 675 673
f 291 675 287
f 673 676 674
f 675 676 673
f 291 677 675
f 295 677 291
f 675 678 676
f 677 678 675
f 295 679 677
f 598 679 295
f 677 680 678
f 679 680 677
f 598 681 679
f 602 681 598
f 679 682 680
f 681 682 679
f 602 683 681
f 606 683 602
f 681 684 682
f 683 684 681
f 606 685 683
f 611 685 606
f 683 686 684
f 685 686 683
f 611 687 685
f 616 687 611
f 685 688 686
f 687 688 685
f 686 689 684
f 688 690 686
f 686 690 689
f 684 689 691
f 684 691 682
f 682 691 692
f 682 692 680
f 689 693 691
f 690 694 689
f 689 694 693
f 680 692 695
f 680 695 678
f 691 696 692
f 691 693 696
f 692 697 695
f 692 696 697
f 678 695 698
f 678 698 676
f 695 697 699
f 695 699 698
f 696 700 697
f 697 700 699
f 696 701 700
f 693 701 696
f 701 702 700
f 694 701 693
f 699 700 703
f 700 702 703
f 699 703 704
f 698 699 704
f 694 705 701
f 705 702 701
f 706 705 694
f 690 706 694
f 706 707 705
f 707 702 705
f 708 706 690
f 688 708 690
f 709 707 706
f 708 709 706
f 709 702 707
f 710 709 708
f 711 708 688
f 711 710 708
f 687 711 688
f 710 712 709
f 712 702 709
f 713 711 687
f 616 713 687
f 714 710 711
f 713 714 711
f 715 712 710
f 714 715 710
f 715 716 712
f 716 702 712
f 717 716 715
f 718 702 716
f 717 718 716
f 718 719 702
f 720 718 717
f 721 719 718
f 720 721 718
f 722 721 720
f 723 719 721
f 722 723 721
f 723 724 719
f 724 702 719
f 725 723 722
f 726 724 723
f 725 726 723
f 727 726 725
f 728 724 726
f 727 728 726
f 728 729 724
f 729 702 724
f 730 728 727
f 731 729 728
f 730 731 728
f 732 731 730
f 733 729 731
f 732 733 731
f 733 734 729
f 734 702 729
f 640 732 730
f 642 732 640
f 640 730 735
f 735 730 727
f 637 640 735
f 637 735 636
f 642 736 732
f 736 733 732
f 643 736 642
f 636 735 737
f 735 727 737
f 636 737 634
f 737 727 725
f 737 725 738
f 634 737 738
f 738 725 722
f 634 738 739
f 631 634 739
f 631 739 630
f 738 722 740
f 739 738 740
f 740 722 720
f 630 739 741
f 739 740 741
f 630 741 629
f 740 720 742
f 741 740 742
f 742 720 717
f 629 741 743
f 741 742 743
f 742 717 744
f 743 742 744
f 744 717 715
f 744 715 714
f 745 744 714
f 743 744 745
f 745 714 713
f 629 743 620
f 620 743 745
f 624 629 620
f 620 745 615
f 615 745 713
f 615 713 616
f 746 122 114
f 94 746 114
f 122 747 119
f 119 748 120
f 747 748 119
f 120 749 121
f 748 749 120
f 746 750 122
f 750 747 122
f 750 751 747
f 747 752 748
f 751 752 747
f 748 753 749
f 752 753 748
f 746 754 750
f 754 751 750
f 755 754 746
f 94 755 746
f 754 756 751
f 751 757 752
f 756 757 751
f 752 758 753
f 757 758 752
f 755 759 754
f 759 756 754
f 759 760 756
f 756 761 757
f 760 761 756
f 757 762 758
f 761 762 757
f 755 763 759
f 763 760 759
f 764 763 755
f 94 764 755
f 763 765 760
f 760 766 761
f 765 766 760
f 761 767 762
f 766 767 761
f 764 768 763
f 768 765 763
f 764 769 768
f 768 770 765
f 769 770 768
f 765 771 766
f 770 771 765
f 94 207 764
f 764 772 769
f 207 772 764
f 207 773 772
f 207 210 773
f 769 774 770
f 772 774 769
f 774 775 770
f 770 775 771
f 772 776 774
f 773 776 772
f 210 777 773
f 773 777 776
f 210 213 777
f 776 778 774
f 774 778 775
f 777 779 776
f 776 779 778
f 213 780 777
f 777 780 779
f 213 215 780
f 778 781 775
f 779 782 778
f 778 782 781
f 780 783 779
f 779 783 782
f 215 784 780
f 780 784 783
f 215 785 784
f 217 785 215
f 784 786 783
f 217 787 785
f 219 787 217
f 219 223 787
f 785 788 784
f 784 788 786
f 787 789 785
f 785 789 788
f 223 790 787
f 787 790 789
f 223 791 790
f 226 791 223
f 790 792 789
f 226 793 791
f 232 793 226
f 791 794 790
f 790 794 792
f 793 795 791
f 791 795 794
f 232 796 793
f 349 796 232
f 793 797 795
f 796 797 793
f 349 798 796
f 354 798 349
f 796 799 797
f 798 799 796
f 354 800 798
f 358 800 354
f 798 801 799
f 800 801 798
f 358 802 800
f 362 802 358
f 800 803 801
f 802 803 800
f 362 804 802
f 367 804 362
f 802 805 803
f 804 805 802
f 367 806 804
f 371 806 367
f 804 807 805
f 806 807 804
f 371 808 806
f 376 808 371
f 806 809 807
f 808 809 806
f 376 810 808
f 380 810 376
f 808 811 809
f 810 811 808
f 380 812 810
f 384 812 380
f 810 813 811
f 812 813 810
f 384 814 812
f 389 814 384
f 812 815 813
f 814 815 812
f 389 816 814
f 393 816 389
f 814 817 815
f 816 817 814
f 393 818 816
f 397 818 393
f 816 819 817
f 818 819 816
f 397 820 818
f 99 820 397
f 818 821 819
f 820 821 818
f 99 822 820
f 98 822 99
f 820 823 821
f 822 823 820
f 98 824 822
f 103 824 98
f 822 825 823
f 824 825 822
f 103 826 824
f 108 826 103
f 824 827 825
f 826 827 824
f 108 828 826
f 112 828 108
f 826 829 827
f 828 829 826
f 112 830 828
f 117 830 112
f 828 831 829
f 830 831 828
f 117 832 830
f 121 832 117
f 830 833 831
f 832 833 830
f 121 834 832
f 749 834 121
f 832 835 833
f 834 835 832
f 749 836 834
f 753 836 749
f 834 837 835
f 836 837 834
f 753 838 836
f 758 838 753
f 836 839 837
f 838 839 836
f 758 840 838
f 762 840 758
f 838 841 839
f 840 841 838
f 762 842 840
f 767 842 762
f 840 843 841
f 842 843 840
f 841 844 839
f 843 845 841
f 841 845 844
f 839 844 846
f 839 846 837
f 837 846 847
f 837 847 835
f 844 848 846
f 845 849 844
f 844 849 848
f 835 847 850
f 835 850 833
f 846 851 847
f 846 848 851
f 847 852 850
f 847 851 852
f 833 850 853
f 833 853 831
f 850 852 854
f 850 854 853
f 851 855 852
f 852 856 854
f 852 855 856
f 848 855 851
f 855 857 856
f 849 855 848
f 854 856 858
f 853 854 858
f 849 859 855
f 859 857 855
f 860 859 849
f 845 860 849
f 861 860 845
f 843 861 845
f 862 859 860
f 861 862 860
f 862 863 859
f 863 857 859
f 864 862 861
f 865 861 843
f 865 864 861
f 842 865 843
f 864 866 862
f 866 863 862
f 867 865 842
f 767 867 842
f 868 864 865
f 867 868 865
f 869 866 864
f 868 869 864
f 869 870 866
f 870 863 866
f 870 871 863
f 871 857 863
f 872 870 869
f 873 871 870
f 872 873 870
f 874 873 872
f 875 871 873
f 874 875 873
f 876 875 874
f 877 871 875
f 876 877 875
f 877 878 871
f 878 857 871
f 879 877 876
f 880 878 877
f 879 880 877
f 881 880 879
f 882 878 880
f 881 882 880
f 883 882 881
f 884 878 882
f 883 884 882
f 884 885 878
f 885 857 878
f 886 884 883
f 887 885 884
f 886 887 884
f 792 886 883
f 794 886 792
f 792 883 888
f 888 883 881
f 789 792 888
f 789 888 788
f 794 889 886
f 889 887 886
f 795 889 794
f 788 888 890
f 888 881 890
f 788 890 786
f 890 881 879
f 890 879 891
f 786 890 891
f 891 879 876
f 786 891 892
f 783 786 892
f 783 892 782
f 891 876 893
f 892 891 893
f 893 876 874
f 782 892 894
f 892 893 894
f 782 894 781
f 893 874 895
f 894 893 895
f 895 874 872
f 781 894 896
f 894 895 896
f 895 872 897
f 896 895 897
f 897 872 869
f 897 869 868
f 898 897 868
f 896 897 898
f 898 868 867
f 781 896 899
f 899 896 898
f 775 781 899
f 775 899 771
f 899 898 900
f 900 898 867
f 771 899 900
f 900 867 767
f 771 900 766
f 766 900 767
f 265 901 262
f 262 902 263
f 901 902 262
f 263 903 264
f 902 903 263
f 261 904 265
f 904 901 265
f 905 904 261
f 123 905 261
f 904 906 901
f 901 907 902
f 906 907 901
f 902 908 903
f 907 908 902
f 905 909 904
f 909 906 904
f 909 910 906
f 906 911 907
f 910 911 906
f 907 912 908
f 911 912 907
f 905 913 909
f 913 910 909
f 123 913 905
f 913 914 910
f 910 915 911
f 914 915 910
f 911 916 912
f 915 916 911
f 123 917 913
f 917 914 913
f 917 918 914
f 914 919 915
f 918 919 914
f 915 920 916
f 919 920 915
f 123 921 917
f 921 918 917
f 123 922 921
f 130 922 123
f 921 923 918
f 922 923 921
f 918 924 919
f 923 924 918
f 130 925 922
f 130 926 925
f 130 128 926
f 922 927 923
f 925 927 922
f 927 928 923
f 923 928 924
f 925 929 927
f 926 929 925
f 128 930 926
f 926 930 929
f 128 132 930
f 929 931 927
f 927 931 928
f 930 932 929
f 929 932 931
f 132 933 930
f 930 933 932
f 132 134 933
f 931 934 928
f 932 935 931
f 931 935 934
f 933 936 932
f 932 936 935
f 134 937 933
f 933 937 936
f 134 938 937
f 136 938 134
f 937 939 936
f 136 940 938
f 138 940 136
f 138 143 940
f 938 941 937
f 937 941 939
f 940 942 938
f 938 942 941
f 143 943 940
f 940 943 942
f 143 944 943
f 146 944 143
f 943 945 942
f 146 946 944
f 151 946 146
f 946 947 944
f 944 947 943
f 151 948 946
f 322 948 151
f 946 949 947
f 948 949 946
f 322 950 948
f 326 950 322
f 948 951 949
f 950 951 948
f 326 952 950
f 331 952 326
f 950 953 951
f 952 953 950
f 331 954 952
f 335 954 331
f 952 955 953
f 954 955 952
f 335 956 954
f 340 956 335
f 954 957 955
f 956 957 954
f 340 958 956
f 344 958 340
f 344 959 958
f 400 959 344
f 958 960 956
f 959 960 958
f 400 961 959
f 404 961 400
f 959 962 960
f 961 962 959
f 404 963 961
f 409 963 404
f 961 964 962
f 963 964 961
f 409 965 963
f 413 965 409
f 963 966 964
f 965 966 963
f 413 967 965
f 418 967 413
f 965 968 966
f 967 968 965
f 418 969 967
f 422 969 418
f 967 970 968
f 969 970 967
f 422 971 969
f 241 971 422
f 969 972 970
f 971 972 969
f 241 973 971
f 240 973 241
f 971 974 972
f 973 974 971
f 240 975 973
f 246 975 240
f 973 976 974
f 975 976 973
f 246 977 975
f 250 977 246
f 250 978 977
f 255 978 250
f 977 979 975
f 978 979 977
f 255 980 978
f 259 980 255
f 978 981 979
f 980 981 978
f 259 982 980
f 264 982 259
f 980 983 981
f 982 983 980
f 264 984 982
f 903 984 264
f 982 985 983
f 984 985 982
f 903 986 984
f 908 986 903
f 984 987 985
f 986 987 984
f 908 988 986
f 912 988 908
f 986 989 987
f 988 989 986
f 912 990 988
f 916 990 912
f 988 991 989
f 990 991 988
f 916 992 990
f 920 992 916
f 990 993 991
f 992 993 990
f 991 994 989
f 993 995 991
f 991 995 994
f 989 994 996
f 989 996 987
f 987 996 997
f 987 997 985
f 994 998 996
f 995 999 994
f 994 999 998
f 985 997 1000
f 985 1000 983
f 996 1001 997
f 996 998 1001
f 997 1002 1000
f 997 1001 1002
f 983 1000 1003
f 983 1003 981
f 1000 1002 1004
f 1000 1004 1003
f 1001 1005 1002
f 1002 1006 1004
f 1002 1005 1006
f 998 1005 1001
f 1005 1007 1006
f 998 1008 1005
f 1008 1007 1005
f 999 1008 998
f 1004 1006 1009
f 1003 1004 1009
f 1010 1008 999
f 995 1010 999
f 1010 1011 1008
f 1011 1007 1008
f 1012 1010 995
f 993 1012 995
f 1013 1011 1010
f 1012 1013 1010
f 1014 1013 1012
f 1015 1012 993
f 1015 1014 1012
f 992 1015 993
f 1014 1016 1013
f 1016 1011 1013
f 1017 1015 992
f 920 1017 992
f 1018 1014 1015
f 1017 1018 1015
f 1019 1016 1014
f 1018 1019 1014
f 1016 1020 1011
f 1020 1007 1011
f 1019 1021 1016
f 1021 1020 1016
f 1022 1021 1019
f 1023 1020 1021
f 1022 1023 1021
f 1024 1023 1022
f 1025 1020 1023
f 1024 1025 1023
f 1025 1007 1020
f 1026 1025 1024
f 1027 1007 1025
f 1026 1027 1025
f 1028 1027 1026
f 1029 1007 1027
f 1028 1029 1027
f 1029 1030 1007
f 1031 1029 1028
f 1032 1030 1029
f 1031 1032 1029
f 1033 1032 1031
f 1034 1030 1032
f 1033 1034 1032
f 1034 1035 1030
f 1035 1007 1030
f 1036 1034 1033
f 1037 1035 1034
f 1036 1037 1034
f 945 1036 1033
f 943 1036 945
f 945 1033 1038
f 1038 1033 1031
f 942 945 1038
f 942 1038 941
f 943 1039 1036
f 1039 1037 1036
f 947 1039 943
f 941 1038 1040
f 1038 1031 1040
f 941 1040 939
f 1040 1031 1028
f 1040 1028 1041
f 939 1040 1041
f 1041 1028 1026
f 939 1041 1042
f 936 939 1042
f 936 1042 935
f 1041 1026 1043
f 1042 1041 1043
f 1043 1026 1024
f 935 1042 1044
f 1042 1043 1044
f 935 1044 934
f 1043 1024 1045
f 1044 1043 1045
f 1045 1024 1022
f 934 1044 1046
f 1044 1045 1046
f 1045 1022 1047
f 1046 1045 1047
f 1047 1022 1019
f 1047 1019 1018
f 1048 1047 1018
f 1046 1047 1048
f 1048 1018 1017
f 934 1046 1049
f 1049 1046 1048
f 928 934 1049
f 928 1049 924
f 1049 1048 1050
f 1050 1048 1017
f 924 1049 1050
f 1050 1017 920
f 924 1050 919
f 919 1050 920
f 949 1051 1052
f 949 1052 947
f 947 1052 1039
f 951 1051 949
f 1052 1053 1039
f 1039 1053 1037
f 1053 1035 1037
f 1052 1054 1053
f 1051 1054 1052
f 1054 1035 1053
f 1054 1055 1035
f 1055 1007 1035
f 1051 1056 1054
f 1056 1055 1054
f 951 1057 1051
f 1057 1056 1051
f 953 1057 951
f 1057 1058 1056
f 1058 1055 1056
f 953 1059 1057
f 1059 1058 1057
f 955 1059 953
f 1058 1060 1055
f 1060 1007 1055
f 1059 1061 1058
f 1061 1060 1058
f 955 1062 1059
f 1062 1061 1059
f 957 1062 955
f 1062 1063 1061
f 1063 1060 1061
f 957 1064 1062
f 1064 1063 1062
f 956 1064 957
f 1063 1065 1060
f 1065 1007 1060
f 1064 1066 1063
f 1066 1065 1063
f 956 1067 1064
f 1067 1066 1064
f 960 1067 956
f 1067 1068 1066
f 1068 1065 1066
f 960 1069 1067
f 1069 1068 1067
f 962 1069 960
f 1069 1070 1068
f 1070 1065 1068
f 962 1071 1069
f 1071 1070 1069
f 641 1072 1073
f 641 1073 643
f 643 1073 736
f 646 1072 641
f 1073 1074 736
f 736 1074 733
f 1074 734 733
f 1073 1075 1074
f 1072 1075 1073
f 1075 734 1074
f 1075 1076 734
f 1076 702 734
f 1072 1077 1075
f 1077 1076 1075
f 646 1078 1072
f 1078 1077 1072
f 645 1078 646
f 1078 1079 1077
f 1079 1076 1077
f 645 1080 1078
f 1080 1079 1078
f 649 1080 645
f 1079 1081 1076
f 1081 702 1076
f 1080 1082 1079
f 1082 1081 1079
f 649 1083 1080
f 1083 1082 1080
f 648 1083 649
f 1083 1084 1082
f 1084 1081 1082
f 648 1085 1083
f 1085 1084 1083
f 652 1085 648
f 1084 1086 1081
f 1086 702 1081
f 1085 1087 1084
f 1087 1086 1084
f 652 1088 1085
f 1088 1087 1085
f 654 1088 652
f 1088 1089 1087
f 1089 1086 1087
f 654 1090 1088
f 1090 1089 1088
f 656 1090 654
f 1090 1091 1089
f 1091 1086 1089
f 656 1092 1090
f 1092 1091 1090
f 797 1093 1094
f 797 1094 795
f 795 1094 889
f 799 1093 797
f 1094 1095 889
f 889 1095 887
f 1095 885 887
f 1094 1096 1095
f 1093 1096 1094
f 1095 1097 885
f 1096 1097 1095
f 1097 857 885
f 1093 1098 1096
f 1098 1097 1096
f 799 1099 1093
f 1099 1098 1093
f 801 1099 799
f 1098 1100 1097
f 1100 857 1097
f 1099 1101 1098
f 1101 1100 1098
f 801 1102 1099
f 1102 1101 1099
f 803 1102 801
f 1102 1103 1101
f 1103 1100 1101
f 803 1104 1102
f 1104 1103 1102
f 805 1104 803
f 1103 1105 1100
f 1105 857 1100
f 1104 1106 1103
f 1106 1105 1103
f 805 1107 1104
f 1107 1106 1104
f 807 1107 805
f 1107 1108 1106
f 1108 1105 1106
f 807 1109 1107
f 1109 1108 1107
f 809 1109 807
f 1109 1110 1108
f 1110 1105 1108
f 809 1111 1109
f 1111 1110 1109
f 811 1111 809
f 1110 1112 1105
f 1112 857 1105
f 1111 1113 1110
f 1113 1112 1110
f 811 1114 1111
f 1114 1113 1111
f 813 1114 811
f 1114 1115 1113
f 1115 1112 1113
f 813 1116 1114
f 1116 1115 1114
f 815 1116 813
f 1115 1117 1112
f 1117 857 1112
f 1116 1118 1115
f 1118 1117 1115
f 815 1119 1116
f 1119 1118 1116
f 817 1119 815
f 1119 1120 1118
f 1120 1117 1118
f 817 1121 1119
f 1121 1120 1119
f 819 1121 817
f 1120 857 1117
f 1121 1122 1120
f 1122 857 1120
f 819 1123 1121
f 1123 1122 1121
f 821 1123 819
f 1123 1124 1122
f 1124 857 1122
f 821 1125 1123
f 1125 1124 1123
f 823 1125 821
f 1125 1126 1124
f 1126 857 1124
f 823 1127 1125
f 1127 1126 1125
f 825 1127 823
f 1126 1128 857
f 1127 1129 1126
f 1129 1128 1126
f 825 1130 1127
f 1130 1129 1127
f 827 1130 825
f 1130 1131 1129
f 1131 1128 1129
f 827 1132 1130
f 1132 1131 1130
f 829 1132 827
f 1131 1133 1128
f 1133 857 1128
f 1132 1134 1131
f 1134 1133 1131
f 829 1135 1132
f 1135 1134 1132
f 831 1135 829
f 831 853 1135
f 853 858 1135
f 1135 858 1134
f 858 1133 1134
f 856 857 1133
f 858 856 1133
f 964 1071 962
f 1070 1136 1065
f 1136 1007 1065
f 1071 1137 1070
f 1137 1136 1070
f 964 1138 1071
f 1138 1137 1071
f 966 1138 964
f 1138 1139 1137
f 1139 1136 1137
f 966 1140 1138
f 1140 1139 1138
f 968 1140 966
f 1139 1141 1136
f 1141 1007 1136
f 1140 1142 1139
f 1142 1141 1139
f 968 1143 1140
f 1143 1142 1140
f 970 1143 968
f 1143 1144 1142
f 1144 1141 1142
f 970 1145 1143
f 1145 1144 1143
f 972 1145 970
f 1144 1146 1141
f 1146 1007 1141
f 1145 1147 1144
f 1147 1146 1144
f 972 1148 1145
f 1148 1147 1145
f 974 1148 972
f 1148 1149 1147
f 1149 1146 1147
f 974 1150 1148
f 1150 1149 1148
f 976 1150 974
f 1149 1151 1146
f 1151 1007 1146
f 1150 1152 1149
f 1152 1151 1149
f 976 1153 1150
f 1153 1152 1150
f 975 1153 976
f 1153 1154 1152
f 1154 1151 1152
f 975 1155 1153
f 1155 1154 1153
f 979 1155 975
f 1154 1156 1151
f 1156 1007 1151
f 1155 1157 1154
f 1157 1156 1154
f 979 1158 1155
f 1158 1157 1155
f 981 1158 979
f 981 1003 1158
f 1003 1009 1158
f 1158 1009 1157
f 1009 1156 1157
f 1006 1007 1156
f 1009 1006 1156
f 658 1092 656
f 1092 1159 1091
f 1159 1086 1091
f 658 1160 1092
f 1160 1159 1092
f 660 1160 658
f 1159 1161 1086
f 1161 702 1086
f 1160 1162 1159
f 1162 1161 1159
f 660 1163 1160
f 1163 1162 1160
f 662 1163 660
f 1163 1164 1162
f 1164 1161 1162
f 662 1165 1163
f 1165 1164 1163
f 664 1165 662
f 1164 1166 1161
f 1166 702 1161
f 1165 1167 1164
f 1167 1166 1164
f 664 1168 1165
f 1168 1167 1165
f 666 1168 664
f 1168 1169 1167
f 1169 1166 1167
f 666 1170 1168
f 1170 1169 1168
f 668 1170 666
f 1169 1171 1166
f 1171 702 1166
f 1170 1172 1169
f 1172 1171 1169
f 668 1173 1170
f 1173 1172 1170
f 670 1173 668
f 1173 1174 1172
f 1174 1171 1172
f 670 1175 1173
f 1175 1174 1173
f 672 1175 670
f 1174 1176 1171
f 1176 702 1171
f 1175 1177 1174
f 1177 1176 1174
f 672 1178 1175
f 1178 1177 1175
f 674 1178 672
f 1177 703 1176
f 703 702 1176
f 1178 1179 1177
f 1179 703 1177
f 674 1180 1178
f 1180 1179 1178
f 676 1180 674
f 676 698 1180
f 698 704 1180
f 1180 704 1179
f 704 703 1179
f 508 1181 509
f 1181 1182 1183
f 1182 1184 1183
f 508 1185 1181
f 1185 1182 1181
f 512 1185 508
f 1182 1186 1184
f 1186 553 1184
f 1185 1187 1182
f 1187 1186 1182
f 512 1188 1185
f 1188 1187 1185
f 514 1188 512
f 1188 1189 1187
f 1189 1186 1187
f 514 1190 1188
f 1190 1189 1188
f 516 1190 514
f 1189 1191 1186
f 1191 553 1186
f 1190 1192 1189
f 1192 1191 1189
f 516 1193 1190
f 1193 1192 1190
f 518 1193 516
f 1193 1194 1192
f 1194 1191 1192
f 518 1195 1193
f 1195 1194 1193
f 520 1195 518
f 1195 1196 1194
f 1196 1191 1194
f 520 1197 1195
f 1197 1196 1195
f 522 1197 520
f 1196 1198 1191
f 1198 553 1191
f 1197 1199 1196
f 1199 1198 1196
f 522 1200 1197
f 1200 1199 1197
f 524 1200 522
f 1200 1201 1199
f 1201 1198 1199
f 524 1202 1200
f 1202 1201 1200
f 526 1202 524
f 1202 1203 1201
f 1203 1198 1201
f 526 1204 1202
f 1204 1203 1202
f 528 1204 526
f 528 549 1204
f 549 555 1204
f 1204 555 1203
f 554 553 1198
f 1203 554 1198
f 555 554 1203
f 497 1205 1206
f 497 1206 495
f 495 1206 584
f 499 1205 497
f 1206 1207 584
f 584 1207 582
f 1207 580 582
f 1206 1208 1207
f 1205 1208 1206
f 1207 1209 580
f 1208 1209 1207
f 1209 553 580
f 1205 1210 1208
f 1210 1209 1208
f 499 1211 1205
f 1211 1210 1205
f 501 1211 499
f 1210 1212 1209
f 1212 553 1209
f 1211 1213 1210
f 1213 1212 1210
f 501 1214 1211
f 1214 1213 1211
f 500 1214 501
f 1214 1215 1213
f 1215 1212 1213
f 500 1216 1214
f 1216 1215 1214
f 502 1216 500
f 1215 1217 1212
f 1217 553 1212
f 1216 1218 1215
f 1218 1217 1215
f 502 1219 1216
f 1219 1218 1216
f 505 1219 502
f 1218 1220 1217
f 1220 553 1217
f 1219 1220 1218
f 505 1221 1219
f 507 1221 505
f 1221 1222 1219
f 1222 1220 1219
f 507 1223 1221
f 1223 1222 1221
f 509 1223 507
f 1222 1184 1220
f 1184 553 1220
f 1223 1183 1222
f 1183 1184 1222
f 509 1181 1223
f 1181 1183 1223
