v -0.0616948828 0.070254676 0.227986753
v -0.0650664493 0.0696088374 0.227544606
v -0.0671083629 0.0668492839 0.227986753
v -0.0584848151 0.0651516989 0.230121613
v -0.0589686818 0.0684084669 0.229054183
v -0.0638982952 0.0617463104 0.230121613
v -0.0605267286 0.0623921454 0.23056376
v -0.0666244924 0.0635925159 0.229054183
v 0.00714889448 0.0736716986 0.227986678
v 0.00409189798 0.0752335414 0.227544546
v 0.000785393117 0.07431072 0.227986693
v 0.00654652575 0.0676731989 0.230121553
v 0.00816563424 0.0705401003 0.229054123
v 0.000183025797 0.0683122203 0.230121553
v 0.00324002141 0.0667503774 0.2305637
v -0.000833715021 0.0714438111 0.229054123
v 0.0626326576 -0.014714851 0.227986753
v 0.0638812408 -0.0115170982 0.227544606
v 0.0626326576 -0.00831934437 0.227986753
v 0.0566039905 -0.014714851 0.230121613
v 0.059618324 -0.016039405 0.229054183
v 0.0566039905 -0.00831934437 0.230121613
v 0.055355411 -0.0115170972 0.230563745
v 0.059618324 -0.00699479086 0.229054183
v 0.0178565141 -0.0779467672 0.227986768
v 0.0208062809 -0.0761907995 0.227544621
v 0.0217857677 -0.072900638 0.227986768
v 0.0130998157 -0.0742428824 0.230121613
v 0.0146643901 -0.077139914 0.229054183
v 0.0170290694 -0.0691967532 0.230121613
v 0.0140793016 -0.0709527209 0.23056376
v 0.0202211924 -0.0700036064 0.229054183
v -0.0490425788 -0.0218018424 0.00464755576
v -0.046092812 -0.0200458746 0.00420540385
v -0.0429006852 -0.020852726 0.00313797523
v -0.0484574884 -0.0279890336 0.00313797523
v -0.0500220619 -0.0250920095 0.00420540385
v -0.0423155949 -0.0270399172 0.00162839459
v -0.0452653691 -0.0287958849 0.00207054662
v -0.0413361117 -0.0237497501 0.00207054662
v -0.0246457048 -0.0115170935 0.00464756554
v -0.0233971253 -0.00831934065 0.00420541316
v -0.0203827899 -0.00699478714 0.00313798478
v -0.0203827899 -0.0160394013 0.00313798478
v -0.0233971272 -0.0147148473 0.00420541316
v -0.016119875 -0.0115170944 0.00162840413
v -0.0173684545 -0.0147148473 0.00207055616
v -0.0173684545 -0.00831934065 0.00207055616
v -0.00475350488 -0.0128504038 0.00464750873
v -0.00781050045 -0.0112885628 0.00420536473
v -0.00882724114 -0.00815696642 0.00313793239
v 0.000172108514 -0.00906067807 0.00313793076
v -0.00144700031 -0.0119275842 0.00420536334
v -0.00390162808 -0.0043672407 0.00162835419
v -0.000844631926 -0.0059290817 0.00207049865
v -0.00720813312 -0.0052900603 0.00207049958
v -0.0179288089 -0.00532486709 0.00464753248
v -0.0213003736 -0.00597070204 0.00420538802
v -0.0240265746 -0.0041244952 0.00313795637
v -0.0163707603 0.000691454625 0.00313795661
v -0.0158868972 -0.00256531243 0.00420538802
v -0.0224685259 0.00189182709 0.00162838015
v -0.0190969612 0.00253766193 0.00207052496
v -0.0245104395 -0.000867728435 0.00207052473
v -0.0484574884 -0.0279890336 0.00313797523
v -0.0452653691 -0.0287958849 0.00207054662
v 0.0178565141 -0.0779467672 0.227986768
v 0.0146643901 -0.077139914 0.229054183
v -0.0224685259 0.00189182709 0.00162838015
v -0.0245104395 -0.000867728435 0.00207052473
v -0.0671083629 0.0668492839 0.227986753
v -0.0650664493 0.0696088374 0.227544606
v -0.0452653691 -0.0287958849 0.00207054662
v -0.0423155949 -0.0270399172 0.00162839459
v 0.0208062809 -0.0761907995 0.227544621
v 0.0178565141 -0.0779467672 0.227986768
v -0.0190969612 0.00253766193 0.00207052496
v -0.0224685259 0.00189182709 0.00162838015
v -0.0650664493 0.0696088374 0.227544606
v -0.0616948828 0.070254676 0.227986753
v -0.0173684545 -0.0147148473 0.00207055616
v -0.016119875 -0.0115170944 0.00162840413
v 0.0638812408 -0.0115170982 0.227544606
v 0.0626326576 -0.014714851 0.227986753
v -0.0500220619 -0.0250920095 0.00420540385
v -0.0484574884 -0.0279890336 0.00313797523
v 0.0146643901 -0.077139914 0.229054183
v 0.0130998157 -0.0742428824 0.230121613
v -0.000844631926 -0.0059290817 0.00207049865
v -0.00390162808 -0.0043672407 0.00162835419
v 0.00409189798 0.0752335414 0.227544546
v 0.00714889448 0.0736716986 0.227986678
v -0.0245104395 -0.000867728435 0.00207052473
v -0.0240265746 -0.0041244952 0.00313795637
v -0.0666244924 0.0635925159 0.229054183
v -0.0671083629 0.0668492839 0.227986753
v -0.00390162808 -0.0043672407 0.00162835419
v -0.00720813312 -0.0052900603 0.00207049958
v 0.000785393117 0.07431072 0.227986693
v 0.00409189798 0.0752335414 0.227544546
v -0.0203827899 -0.0160394013 0.00313798478
v -0.0173684545 -0.0147148473 0.00207055616
v 0.0626326576 -0.014714851 0.227986753
v 0.059618324 -0.016039405 0.229054183
v -0.016119875 -0.0115170944 0.00162840413
v -0.0173684545 -0.00831934065 0.00207055616
v 0.0626326576 -0.00831934437 0.227986753
v 0.0638812408 -0.0115170982 0.227544606
v 0.000172108514 -0.00906067807 0.00313793076
v -0.000844631926 -0.0059290817 0.00207049865
v 0.00714889448 0.0736716986 0.227986678
v 0.00816563424 0.0705401003 0.229054123
v -0.0423155949 -0.0270399172 0.00162839459
v -0.0413361117 -0.0237497501 0.00207054662
v 0.0217857677 -0.072900638 0.227986768
v 0.0208062809 -0.0761907995 0.227544621
v -0.00720813312 -0.0052900603 0.00207049958
v -0.00882724114 -0.00815696642 0.00313793239
v -0.000833715021 0.0714438111 0.229054123
v 0.000785393117 0.07431072 0.227986693
v -0.0163707603 0.000691454625 0.00313795661
v -0.0190969612 0.00253766193 0.00207052496
v -0.0616948828 0.070254676 0.227986753
v -0.0589686818 0.0684084669 0.229054183
v -0.0233971272 -0.0147148473 0.00420541316
v -0.0203827899 -0.0160394013 0.00313798478
v 0.059618324 -0.016039405 0.229054183
v 0.0566039905 -0.014714851 0.230121613
v -0.0173684545 -0.00831934065 0.00207055616
v -0.0203827899 -0.00699478714 0.00313798478
v 0.059618324 -0.00699479086 0.229054183
v 0.0626326576 -0.00831934437 0.227986753
v -0.0240265746 -0.0041244952 0.00313795637
v -0.0213003736 -0.00597070204 0.00420538802
v -0.0638982952 0.0617463104 0.230121613
v -0.0666244924 0.0635925159 0.229054183
v -0.00144700031 -0.0119275842 0.00420536334
v 0.000172108514 -0.00906067807 0.00313793076
v 0.00816563424 0.0705401003 0.229054123
v 0.00654652575 0.0676731989 0.230121553
v -0.0490425788 -0.0218018424 0.00464755576
v -0.0500220619 -0.0250920095 0.00420540385
v 0.0130998157 -0.0742428824 0.230121613
v 0.0140793016 -0.0709527209 0.23056376
v -0.00882724114 -0.00815696642 0.00313793239
v -0.00781050045 -0.0112885628 0.00420536473
v 0.000183025797 0.0683122203 0.230121553
v -0.000833715021 0.0714438111 0.229054123
v -0.0246457048 -0.0115170935 0.00464756554
v -0.0233971272 -0.0147148473 0.00420541316
v 0.0566039905 -0.014714851 0.230121613
v 0.055355411 -0.0115170972 0.230563745
v -0.0203827899 -0.00699478714 0.00313798478
v -0.0233971253 -0.00831934065 0.00420541316
v 0.0566039905 -0.00831934437 0.230121613
v 0.059618324 -0.00699479086 0.229054183
v -0.00475350488 -0.0128504038 0.00464750873
v -0.00144700031 -0.0119275842 0.00420536334
v 0.00654652575 0.0676731989 0.230121553
v 0.00324002141 0.0667503774 0.2305637
v -0.0158868972 -0.00256531243 0.00420538802
v -0.0163707603 0.000691454625 0.00313795661
v -0.0589686818 0.0684084669 0.229054183
v -0.0584848151 0.0651516989 0.230121613
v -0.00781050045 -0.0112885628 0.00420536473
v -0.00475350488 -0.0128504038 0.00464750873
v 0.00324002141 0.0667503774 0.2305637
v 0.000183025797 0.0683122203 0.230121553
v -0.0413361117 -0.0237497501 0.00207054662
v -0.0429006852 -0.020852726 0.00313797523
v 0.0202211924 -0.0700036064 0.229054183
v 0.0217857677 -0.072900638 0.227986768
v -0.0233971253 -0.00831934065 0.00420541316
v -0.0246457048 -0.0115170935 0.00464756554
v 0.055355411 -0.0115170972 0.230563745
v 0.0566039905 -0.00831934437 0.230121613
v -0.0213003736 -0.00597070204 0.00420538802
v -0.0179288089 -0.00532486709 0.00464753248
v -0.0605267286 0.0623921454 0.23056376
v -0.0638982952 0.0617463104 0.230121613
v -0.046092812 -0.0200458746 0.00420540385
v -0.0490425788 -0.0218018424 0.00464755576
v 0.0140793016 -0.0709527209 0.23056376
v 0.0170290694 -0.0691967532 0.230121613
v -0.0179288089 -0.00532486709 0.00464753248
v -0.0158868972 -0.00256531243 0.00420538802
v -0.0584848151 0.0651516989 0.230121613
v -0.0605267286 0.0623921454 0.23056376
v -0.0429006852 -0.020852726 0.00313797523
v -0.046092812 -0.0200458746 0.00420540385
v 0.0170290694 -0.0691967532 0.230121613
v 0.0202211924 -0.0700036064 0.229054183
vt 0.959155321 0.575449347
vt 1.03460407 0.606701195
vt 1.11005282 0.575449288
vt 0.959155321 0.424551785
vt 0.927903414 0.500000536
vt 1.11005282 0.424551785
vt 1.03460407 0.393299878
vt 1.14130473 0.500000536
vt 0.959155321 0.575449347
vt 1.03460407 0.606701195
vt 1.11005282 0.575449288
vt 0.959155321 0.424551785
vt 0.927903414 0.500000536
vt 1.11005282 0.424551785
vt 1.03460407 0.393299878
vt 1.14130473 0.500000536
vt 0.959155321 0.575449347
vt 1.03460407 0.606701195
vt 1.11005282 0.575449288
vt 0.959155321 0.424551785
vt 0.927903414 0.500000536
vt 1.11005282 0.424551785
vt 1.03460407 0.393299878
vt 1.14130473 0.500000536
vt 0.959155321 0.575449347
vt 1.03460407 0.606701195
vt 1.11005282 0.575449288
vt 0.959155321 0.424551785
vt 0.927903414 0.500000536
vt 1.11005282 0.424551785
vt 1.03460407 0.393299878
vt 1.14130473 0.500000536
vt -0.034604907 0.393298745
vt -0.110053658 0.424550593
vt -0.141305566 0.499999344
vt 0.0720957518 0.499999404
vt 0.0408438444 0.424550593
vt -0.034604907 0.606700063
vt 0.0408438444 0.575448155
vt -0.110053658 0.575448155
vt -0.034604907 0.393298745
vt -0.110053658 0.424550593
vt -0.141305566 0.499999344
vt 0.0720957518 0.499999404
vt 0.0408438444 0.424550593
vt -0.034604907 0.606700063
vt 0.0408438444 0.575448155
vt -0.110053658 0.575448155
vt -0.034604907 0.393298745
vt -0.110053658 0.424550593
vt -0.141305566 0.499999344
vt 0.0720957518 0.499999404
vt 0.0408438444 0.424550593
vt -0.034604907 0.606700063
vt 0.0408438444 0.575448155
vt -0.110053658 0.575448155
vt -0.034604907 0.393298745
vt -0.110053658 0.424550593
vt -0.141305566 0.499999344
vt 0.0720957518 0.499999404
vt 0.0408438444 0.424550593
vt -0.034604907 0.606700063
vt 0.0408438444 0.575448155
vt -0.110053658 0.575448155
vt 0.500000596 -2.09388971
vt 0.424551845 -2.09388971
vt 0.424550682 3.09388971
vt 0.499999464 3.09388971
vt -0.034604907 -2.09388971
vt -0.110053658 -2.09388971
vt -0.110052824 3.09388971
vt -0.0346040726 3.09388971
vt 0.0408438444 -2.09388971
vt -0.034604907 -2.09388971
vt -0.0346040726 3.09388971
vt 0.0408447087 3.09388971
vt 0.0408438444 -2.09388971
vt -0.034604907 -2.09388971
vt -0.0346040726 3.09388971
vt 0.0408447087 3.09388971
vt 0.0408438444 -2.09388971
vt -0.034604907 -2.09388971
vt -0.0346040726 3.09388971
vt 0.0408447087 3.09388971
vt 0.575449407 -2.09388971
vt 0.500000596 -2.09388971
vt 0.499999464 3.09388971
vt 0.575448215 3.09388971
vt 0.0408438444 -2.09388971
vt -0.034604907 -2.09388971
vt -0.0346040726 3.09388971
vt 0.0408447087 3.09388971
vt 0.575448155 -2.09388971
vt 0.499999344 -2.09388971
vt 0.500000536 3.09388971
vt 0.575449288 3.09388971
vt -0.034604907 -2.09388971
vt -0.110053658 -2.09388971
vt -0.110052824 3.09388971
vt -0.0346040726 3.09388971
vt 0.500000596 -2.09388971
vt 0.424551845 -2.09388971
vt 0.424550682 3.09388971
vt 0.499999464 3.09388971
vt -0.034604907 -2.09388971
vt -0.110053658 -2.09388971
vt -0.110052824 3.09388971
vt -0.0346040726 3.09388971
vt 0.500000596 -2.09388971
vt 0.424551845 -2.09388971
vt 0.424550682 3.09388971
vt 0.499999464 3.09388971
vt -0.034604907 -2.09388971
vt -0.110053658 -2.09388971
vt -0.110052824 3.09388971
vt -0.0346040726 3.09388971
vt 0.575448155 -2.09388971
vt 0.499999344 -2.09388971
vt 0.500000536 3.09388971
vt 0.575449288 3.09388971
vt 0.500000596 -2.09388971
vt 0.424551845 -2.09388971
vt 0.424550682 3.09388971
vt 0.499999464 3.09388971
vt 0.575449407 -2.09388971
vt 0.500000596 -2.09388971
vt 0.499999464 3.09388971
vt 0.575448215 3.09388971
vt 0.575448155 -2.09388971
vt 0.499999344 -2.09388971
vt 0.500000536 3.09388971
vt 0.575449288 3.09388971
vt 0.499999344 -2.09388971
vt 0.424550593 -2.09388971
vt 0.424551755 3.09388971
vt 0.500000536 3.09388971
vt 0.575449407 -2.09388971
vt 0.500000596 -2.09388971
vt 0.499999464 3.09388971
vt 0.575448215 3.09388971
vt 1.03460491 -2.09388971
vt 0.959156156 -2.09388971
vt 0.959155321 3.09388971
vt 1.03460407 3.09388971
vt 0.499999344 -2.09388971
vt 0.424550593 -2.09388971
vt 0.424551755 3.09388971
vt 0.500000536 3.09388971
vt 1.03460491 -2.09388971
vt 0.959156156 -2.09388971
vt 0.959155321 3.09388971
vt 1.03460407 3.09388971
vt 0.499999344 -2.09388971
vt 0.424550593 -2.09388971
vt 0.424551755 3.09388971
vt 0.500000536 3.09388971
vt 1.03460491 -2.09388971
vt 0.959156156 -2.09388971
vt 0.959155321 3.09388971
vt 1.03460407 3.09388971
vt 0.575449407 -2.09388971
vt 0.500000596 -2.09388971
vt 0.499999464 3.09388971
vt 0.575448215 3.09388971
vt 1.11005366 -2.09388971
vt 1.03460491 -2.09388971
vt 1.03460407 3.09388971
vt 1.11005282 3.09388971
vt 0.575448155 -2.09388971
vt 0.499999344 -2.09388971
vt 0.500000536 3.09388971
vt 0.575449288 3.09388971
vt 1.11005366 -2.09388971
vt 1.03460491 -2.09388971
vt 1.03460407 3.09388971
vt 1.11005282 3.09388971
vt 1.11005366 -2.09388971
vt 1.03460491 -2.09388971
vt 1.03460407 3.09388971
vt 1.11005282 3.09388971
vt 1.11005366 -2.09388971
vt 1.03460491 -2.09388971
vt 1.03460407 3.09388971
vt 1.11005282 3.09388971
vt 1.03460491 -2.09388971
vt 0.959156156 -2.09388971
vt 0.959155321 3.09388971
vt 1.03460407 3.09388971
vt 0.499999344 -2.09388971
vt 0.424550593 -2.09388971
vt 0.424551755 3.09388971
vt 0.500000536 3.09388971
f 1/1 2/2 3/3
f 1/1 3/3 4/4
f 5/5 1/1 4/4
f 3/3 6/6 4/4
f 6/6 7/7 4/4
f 3/3 8/8 6/6
f 9/9 10/10 11/11
f 9/9 11/11 12/12
f 13/13 9/9 12/12
f 11/11 14/14 12/12
f 14/14 15/15 12/12
f 11/11 16/16 14/14
f 17/17 18/18 19/19
f 17/17 19/19 20/20
f 21/21 17/17 20/20
f 19/19 22/22 20/20
f 22/22 23/23 20/20
f 19/19 24/24 22/22
f 25/25 26/26 27/27
f 25/25 27/27 28/28
f 29/29 25/25 28/28
f 27/27 30/30 28/28
f 30/30 31/31 28/28
f 27/27 32/32 30/30
f 33/33 34/34 35/35
f 33/33 35/35 36/36
f 37/37 33/33 36/36
f 35/35 38/38 36/36
f 38/38 39/39 36/36
f 35/35 40/40 38/38
f 41/41 42/42 43/43
f 41/41 43/43 44/44
f 45/45 41/41 44/44
f 43/43 46/46 44/44
f 46/46 47/47 44/44
f 43/43 48/48 46/46
f 49/49 50/50 51/51
f 49/49 51/51 52/52
f 53/53 49/49 52/52
f 51/51 54/54 52/52
f 54/54 55/55 52/52
f 51/51 56/56 54/54
f 57/57 58/58 59/59
f 57/57 59/59 60/60
f 61/61 57/57 60/60
f 59/59 62/62 60/60
f 62/62 63/63 60/60
f 59/59 64/64 62/62
f 65/65 66/66 67/67
f 67/67 68/68 65/65
f 69/69 70/70 71/71
f 71/71 72/72 69/69
f 73/73 74/74 75/75
f 75/75 76/76 73/73
f 77/77 78/78 79/79
f 79/79 80/80 77/77
f 81/81 82/82 83/83
f 83/83 84/84 81/81
f 85/85 86/86 87/87
f 87/87 88/88 85/85
f 89/89 90/90 91/91
f 91/91 92/92 89/89
f 93/93 94/94 95/95
f 95/95 96/96 93/93
f 97/97 98/98 99/99
f 99/99 100/100 97/97
f 101/101 102/102 103/103
f 103/103 104/104 101/101
f 105/105 106/106 107/107
f 107/107 108/108 105/105
f 109/109 110/110 111/111
f 111/111 112/112 109/109
f 113/113 114/114 115/115
f 115/115 116/116 113/113
f 117/117 118/118 119/119
f 119/119 120/120 117/117
f 121/121 122/122 123/123
f 123/123 124/124 121/121
f 125/125 126/126 127/127
f 127/127 128/128 125/125
f 129/129 130/130 131/131
f 131/131 132/132 129/129
f 133/133 134/134 135/135
f 135/135 136/136 133/133
f 137/137 138/138 139/139
f 139/139 140/140 137/137
f 141/141 142/142 143/143
f 143/143 144/144 141/141
f 145/145 146/146 147/147
f 147/147 148/148 145/145
f 149/149 150/150 151/151
f 151/151 152/152 149/149
f 153/153 154/154 155/155
f 155/155 156/156 153/153
f 157/157 158/158 159/159
f 159/159 160/160 157/157
f 161/161 162/162 163/163
f 163/163 164/164 161/161
f 165/165 166/166 167/167
f 167/167 168/168 165/165
f 169/169 170/170 171/171
f 171/171 172/172 169/169
f 173/173 174/174 175/175
f 175/175 176/176 173/173
f 177/177 178/178 179/179
f 179/179 180/180 177/177
f 181/181 182/182 183/183
f 183/183 184/184 181/181
f 185/185 186/186 187/187
f 187/187 188/188 185/185
f 189/189 190/190 191/191
f 191/191 192/192 189/189
