v -0.0682638586 0.0757484511 0.248131275
v -0.0683002993 0.0758410394 0.247999176
v -0.0689741224 0.0754559487 0.247987553
v -0.0675304681 0.0758645013 0.248268992
v -0.0689162835 0.0753755867 0.24812001
v -0.0693918467 0.0748007149 0.24823688
v -0.0702394769 0.0702945441 0.249427751
v -0.0695728809 0.0749632567 0.248022333
v -0.0694960281 0.0748985484 0.248153687
v -0.0700773373 0.0743788183 0.248102397
v -0.0699844658 0.0743326694 0.248231217
v -0.0702280551 0.0736448094 0.248425692
v -0.0704712793 0.0737213939 0.248225182
v -0.0703658983 0.0736961216 0.248350084
v -0.0707420409 0.0730121285 0.248386726
v -0.0706280544 0.0730093867 0.248506501
v -0.0708809271 0.0722738132 0.248581842
v -0.07076253 0.0722945184 0.248695418
v -0.0708834603 0.0715301856 0.248804256
v -0.0707649812 0.0715745017 0.248910785
v -0.0646074191 0.0758591518 0.248690069
v -0.0646882579 0.0757659897 0.248800218
v -0.0640723929 0.0753993466 0.249026239
v -0.0639713481 0.0754804835 0.24892351
v -0.065308772 0.0761172622 0.248480454
v -0.0629434958 0.0736805499 0.249788523
v -0.0627881438 0.0737333 0.24976778
v -0.0631068125 0.0743663982 0.249517918
v -0.0647700951 0.0756345913 0.248858392
v -0.0653673485 0.0760159045 0.248597264
v -0.066115506 0.0759951472 0.248496637
v -0.0660528839 0.0762465224 0.248301402
v -0.0660878196 0.0761410594 0.248423889
v -0.0668158233 0.0762427822 0.248158664
v -0.0668265298 0.0761374384 0.248285696
v -0.067573078 0.0761061534 0.248056829
v -0.067559734 0.0760051534 0.248187095
v -0.070749566 0.0708051324 0.249046832
v -0.0706353486 0.0708724782 0.249145657
v -0.0704835504 0.0701219738 0.249301776
v -0.070377782 0.0702110156 0.249392495
v -0.070093967 0.0695026517 0.249560863
v -0.0700005665 0.0696113631 0.249643356
v -0.0694108754 0.0692195967 0.249906197
v -0.0695933253 0.0689670816 0.249815807
v -0.0695158243 0.0690928027 0.249890193
v 0.0225808155 -0.0819569975 0.248858392
v 0.0225486495 -0.0821084157 0.248800203
v 0.0232722536 -0.0821119919 0.248597249
v 0.0232517254 -0.082227245 0.248480454
v 0.0239953529 -0.0820952356 0.248301402
v 0.0239922628 -0.0819841772 0.248423889
v 0.0239685792 -0.0818375647 0.248496637
v 0.020285828 -0.0755563751 0.250892162
v 0.024711363 -0.0818317607 0.248158664
v 0.0246855374 -0.0817290694 0.248285681
v 0.0246350262 -0.0815923288 0.248363778
v 0.0253767502 -0.0814452991 0.248056829
v 0.025806658 -0.0807699859 0.248215333
v 0.0259701274 -0.080948256 0.247999176
v 0.0263906643 -0.0803007782 0.24812001
v -0.0636658147 0.0748288035 0.249308139
v -0.0635395348 0.0749277696 0.24926807
v -0.063421011 0.0749934316 0.249173269
v -0.0689977258 0.0685324743 0.250058383
v -0.0689391419 0.0686719939 0.250125051
v -0.0683263093 0.0682127997 0.250280797
v -0.0682890415 0.0683624744 0.250340432
v -0.0675561354 0.0683365166 0.250520617
v -0.0676006526 0.0680183247 0.250475913
v -0.0675864369 0.0681741834 0.250529349
v 0.0264724176 -0.0803566203 0.247987553
v 0.0268674828 -0.0796894059 0.248022333
v 0.0267731789 -0.0796547532 0.248153687
v 0.0268979911 -0.0789268464 0.2483114
v 0.0271426216 -0.0789680481 0.248102397
v 0.0270395819 -0.078956306 0.248231202
v 0.027288992 -0.0782157406 0.248225167
v 0.0271813031 -0.0782278925 0.248350084
v 0.0206931029 -0.0812100545 0.249548331
v 0.0212680604 -0.0815756768 0.249308139
v 0.0211830586 -0.0817117468 0.249268055
v 0.0219041128 -0.0818273574 0.249075666
v 0.0205849577 -0.0813314095 0.249517918
v 0.0200696439 -0.0808447748 0.24976778
v 0.0217773542 -0.0820842683 0.248923495
v 0.021094 -0.0818138719 0.249173254
v -0.0647123754 0.0686927289 0.250915825
v -0.0641986355 0.0692451671 0.250881344
v -0.0661415979 0.0683434531 0.250785261
v -0.0646323264 0.0685538873 0.250875086
v -0.0639934614 0.0689945519 0.250863463
v -0.0640938058 0.0691194013 0.25090459
v -0.0634396225 0.0695352927 0.250805795
v -0.0635575503 0.0696429685 0.25084874
v -0.0632633418 0.0703287646 0.250732899
v -0.0629886016 0.0701587349 0.250703961
v -0.0631208643 0.0702466145 0.250750154
v 0.00534111401 0.0820422247 0.248131335
v 0.00536924787 0.0821376666 0.247999251
v 0.00460100267 0.0822478011 0.247987628
v 0.00459032319 0.0820068866 0.248204574
v 0.0045972676 0.0821488649 0.248120084
v 0.0038258764 0.082226932 0.248022407
v 0.00384675851 0.0821286589 0.248153761
v 0.00316416472 0.0818467215 0.248311475
v 0.00840402022 0.0784916803 0.249308214
v 0.00306878216 0.08207573 0.248102471
v 0.00311370869 0.081982255 0.248231277
v 0.00235405331 0.0817990452 0.248225242
v 0.00242167874 0.0817143619 0.248350158
v -0.0668440834 0.0679553151 0.250637472
v -0.0668538958 0.0681131706 0.250685751
v -0.0660809129 0.0680257827 0.250760227
v -0.0661149621 0.0681813955 0.250804633
v -0.0653356761 0.0682274625 0.250840306
v -0.0653933957 0.0683766752 0.250882149
v 0.0682533756 -0.0154417967 0.249026224
v 0.0682682469 -0.0155705288 0.248923495
v 0.068927452 -0.0152337542 0.248690054
v 0.0695193857 -0.0147775225 0.248480439
v 0.0661973953 -0.0154821463 0.249788508
v 0.0661593229 -0.015641734 0.249767765
v 0.0668648928 -0.0157091003 0.249517903
v 0.0694647804 -0.0146739744 0.248597249
v 0.0668756664 -0.0115170982 0.249548316
v 0.0702207536 -0.0134266969 0.248363763
v 0.0700250119 -0.0142164985 0.248301387
v 0.0704280883 -0.0135687133 0.248158649
v 0.070344612 -0.0135035561 0.248285666
v 0.0707156509 -0.0128549887 0.248056814
v 0.0704884082 -0.012762377 0.248268977
v 0.070878461 -0.0120982621 0.247999161
v 0.070780687 -0.0120798042 0.248131245
v 0.0705790892 -0.0106203817 0.248236865
v 0.0709112883 -0.0113228559 0.247987539
v 0.0708124712 -0.011329026 0.248119995
v 0.0708130747 -0.0105536943 0.248022318
v 0.0707173795 -0.0105842901 0.248153672
v 0.070498459 -0.00986953732 0.248231202
v 0.0703686401 -0.00993328355 0.248311386
v 0.0701627582 -0.00920773763 0.248350069
v 0.0702402666 -0.00913198944 0.248225167
v 0.00829410926 0.0798831359 0.248690128
v 0.00817308482 0.0798593014 0.248800278
v 0.00843375828 0.07919164 0.249026313
v 0.00856333319 0.0791935772 0.24892357
v 0.00789930578 0.0805176869 0.248480529
v 0.00826847833 0.0771419108 0.249788597
v 0.00842346251 0.0770880878 0.249767855
v 0.00856099091 0.0777833983 0.249517992
v 0.00766031304 0.080396533 0.248663366
v 0.00779081928 0.0804736987 0.248597324
v 0.00739160972 0.0810768455 0.248301476
v 0.00729924766 0.0810150951 0.248423964
v 0.00662531983 0.0813505128 0.248363853
v 0.00678734062 0.081542626 0.248158738
v 0.0067141694 0.0814660788 0.248285756
v 0.00610591937 0.0819000602 0.248056903
v 0.00605438976 0.0818121657 0.248187155
v 0.0270462297 -0.0775200799 0.248576045
v 0.0273018852 -0.0774566606 0.248386711
v 0.027076643 -0.0767750069 0.248695418
v 0.0271808971 -0.0767152011 0.248581842
v 0.0269336142 -0.0768299475 0.24875766
v 0.0269299056 -0.0760152042 0.248804256
v 0.0268336218 -0.0760972425 0.24891077
v 0.00189447019 0.0812231377 0.24857612
v 0.00170466152 0.0814057738 0.248386785
v 0.00179291109 0.0813335776 0.248506576
v 0.00114147901 0.0809085593 0.248581916
v 0.00124761474 0.0808521584 0.248695493
v 0.000943164167 0.0802156776 0.248964757
v 0.00068260741 0.0803233832 0.248804331
v 0.000803316478 0.0802855641 0.248910844
v 0.000342795101 0.0796690509 0.249046907
v 0.00047429619 0.0796520114 0.249145716
v 0.000431567401 0.0789528042 0.249427825
v 0.000132963833 0.0789665952 0.249301836
v 0.000271128869 0.0789718628 0.249392554
v 5.98577535e-05 0.0782385841 0.249560937
v 0.000200344584 0.0782669783 0.24964343
v 0.000125826584 0.0775084347 0.249815866
v 0.000264218776 0.077560015 0.249890268
v 0.0675704703 -0.0156417321 0.249268055
v 0.0201612879 -0.075450182 0.250915825
v 0.0213859826 -0.0746348351 0.250785261
v 0.0200387165 -0.0753469244 0.250875086
v 0.0195882302 -0.0759788975 0.250863463
v 0.0197251048 -0.0760620832 0.25090456
v 0.0198665205 -0.0761446059 0.250881344
v 0.0192517731 -0.0766759887 0.250805795
v 0.0193993356 -0.0767370388 0.25084874
v 0.019553354 -0.0767934471 0.25082767
v 0.0190401673 -0.0774158016 0.250703961
v 0.0191944521 -0.0774533525 0.250750154
v 0.00856446009 0.0784921795 0.249268129
v 0.00869832188 0.0784711763 0.249173328
v 0.069784075 -0.00852514058 0.248386696
v 0.069721058 -0.00862016436 0.248506486
v 0.0691084638 -0.00825691503 0.248757645
v 0.0692330822 -0.0080144573 0.248581827
v 0.0691875592 -0.00812569819 0.248695403
v 0.0686049759 -0.00761635089 0.248804256
v 0.068579413 -0.00774023542 0.24891077
v 0.0672161728 -0.00750351185 0.249427751
v 0.000613801589 0.0769358128 0.250132054
v 0.000328750379 0.0767996013 0.250058442
v 0.000460697629 0.0768736899 0.25012514
v 0.000662106439 0.076134868 0.250280857
v 0.000783466734 0.0762300715 0.250340492
v 0.00134579407 0.0757593066 0.250520706
v 0.00111518067 0.0755356029 0.250475973
v 0.00122215156 0.0756498352 0.250529408
v 0.0265569855 -0.0753791556 0.249046832
v 0.0264725424 -0.0754813924 0.249145642
v 0.0263528936 -0.075586386 0.249190465
v 0.0260741152 -0.0748275146 0.249301761
v 0.0260050129 -0.0749472678 0.24939248
v 0.0259034466 -0.0750729218 0.249427751
v 0.0254968237 -0.0743779913 0.249560863
v 0.0254460499 -0.0745120272 0.249643356
v 0.0248436574 -0.0740450472 0.249815792
v 0.0248136297 -0.0741896555 0.249890193
v 0.0241356157 -0.0738393813 0.250058383
v 0.024128072 -0.0739905238 0.250125051
v 0.0234114137 -0.0739210248 0.250340432
v 0.0233954508 -0.0737676024 0.250280797
v 0.0226469543 -0.0738320202 0.250475913
v 0.0226866882 -0.0739833936 0.250529349
v 0.0679199696 -0.00734361866 0.249046817
v 0.0679161549 -0.00747616543 0.249145642
v 0.0672000572 -0.00720502622 0.249301746
v 0.0672191158 -0.00734197116 0.24939248
v 0.0664683953 -0.00720502622 0.249560848
v 0.0665106848 -0.00734197116 0.249643341
v 0.0657484904 -0.00734361866 0.249815777
v 0.0658136383 -0.00747616496 0.249890178
v 0.00380840735 0.074293226 0.250915915
v 0.0045531569 0.0744134709 0.250881404
v 0.00312878098 0.0746176764 0.250859857
v 0.00378626748 0.0741344914 0.250875145
v 0.00456107268 0.0740896761 0.250863522
v 0.00455860561 0.0742498338 0.250904649
v 0.00533027994 0.0741760656 0.250805885
v 0.0053033838 0.074333474 0.25084883
v 0.0059568584 0.0746938214 0.250732958
v 0.00606916659 0.0743908733 0.25070405
v 0.00601880392 0.0745414644 0.250750214
v 0.0629173219 -0.011329026 0.250915825
v 0.0627571717 -0.0113228578 0.250875056
v 0.0627899989 -0.0120982621 0.250863433
v 0.0631722435 -0.0106203817 0.250859767
v 0.0629491061 -0.0120798061 0.25090456
v 0.0632629246 -0.0127623798 0.25082767
v 0.062952809 -0.0128549905 0.250805795
v 0.0631067455 -0.0128124999 0.25084874
v 0.0632403716 -0.0135687161 0.250703961
v 0.0633851737 -0.013503558 0.250750124
v 0.0635305792 -0.0134266997 0.250732869
v 0.0646428689 -0.00825691409 0.250339001
v 0.0650634766 -0.00761635043 0.250058353
v 0.0651503801 -0.00774023542 0.250125051
v 0.0644353777 -0.0080144573 0.250280768
v 0.0645422265 -0.00812569819 0.250340402
v 0.0638843775 -0.00852514245 0.250475883
v 0.0640087351 -0.00862016436 0.250529319
v 0.0641300082 -0.00873224996 0.250520617
v 0.00167341006 0.0750210658 0.250637531
v 0.00176265219 0.0751516372 0.250685841
v 0.00231885398 0.0746077895 0.250760317
v 0.00238759769 0.0747514963 0.250804693
v 0.00303076697 0.0743090659 0.250840366
v 0.00307690096 0.0744622573 0.250882238
v 0.0219141841 -0.0740305632 0.250637442
v 0.0219771937 -0.074175626 0.250685751
v 0.0220314711 -0.0743311346 0.250670969
v 0.0212206915 -0.0743568465 0.250760227
v 0.021305725 -0.0744915456 0.250804633
v 0.0205887668 -0.0748003796 0.250840306
v 0.0206938665 -0.0749210045 0.250882149
v 0.0634281933 -0.00913198944 0.250637442
v 0.0635670349 -0.00920773763 0.250685751
v 0.0630814806 -0.00981549732 0.250760227
v 0.0632313341 -0.00986953732 0.250804633
v 0.0628553852 -0.0105536934 0.250840276
v 0.0630124137 -0.010584292 0.250882149
v 0.0636434406 -0.0142165013 0.250561237
v 0.06377545 -0.0141307712 0.250611931
v 0.0639057532 -0.0140296435 0.25060001
v 0.0641490743 -0.0147775244 0.250382155
v 0.0642650202 -0.0146739772 0.250438571
v 0.0647410005 -0.015233756 0.250172555
v 0.0648381487 -0.0151157184 0.250235617
v 0.0655409172 -0.0152899465 0.250020981
v 0.065400213 -0.0155705307 0.249939114
v 0.065476425 -0.0154417967 0.250009596
v 0.0661055073 -0.0157770235 0.249689355
v 0.0668342263 -0.0158466008 0.249431297
v 0.0667883307 -0.0159384757 0.249301687
v 0.0660441518 -0.0158674233 0.249565214
v 0.0653238818 -0.0156565476 0.249820277
v 0.067532517 -0.0158674214 0.24903816
v 0.0682527795 -0.0156565458 0.248783097
v 0.0646506846 -0.015312626 0.250058651
v 0.0689259768 -0.0153126242 0.248544708
v 0.0640461892 -0.0148467133 0.250272721
v 0.0695304647 -0.0148467114 0.248330653
v 0.0635298342 -0.0142737841 0.250455588
v 0.0700468272 -0.0142737823 0.248147801
v 0.0631182045 -0.0136122536 0.250601351
v 0.0704584494 -0.0136122517 0.248002023
v 0.0628245398 -0.0128833819 0.250705332
v 0.0707521215 -0.0128833791 0.247898042
v 0.0626582801 -0.0121105956 0.250764221
v 0.0709183812 -0.0121105937 0.247839168
v 0.0626247525 -0.0113187358 0.250776082
v 0.0709519088 -0.0113187339 0.247827291
v 0.0627250522 -0.0105332518 0.250740558
v 0.0708516091 -0.0105332499 0.247862801
v 0.0629559457 -0.00977938622 0.25065881
v 0.0706207156 -0.00977938622 0.247944564
v 0.0633100197 -0.00908137579 0.250533432
v 0.0702378824 -0.00906360429 0.247908071
v 0.0637758821 -0.00846164953 0.250368446
v 0.0698007718 -0.00846164953 0.248234928
v 0.0643385723 -0.00794013031 0.250169188
v 0.069238089 -0.00794012751 0.248434186
v 0.0649800003 -0.00753357634 0.249942049
v 0.0685966611 -0.00753357401 0.248661324
v 0.0656795502 -0.00725505361 0.249694332
v 0.0678971112 -0.00725505361 0.248909056
v 0.0664147362 -0.00711351866 0.249433994
v 0.0671619251 -0.00711351866 0.249169394
v 0.0656173155 -0.00722395629 0.249544308
v 0.0663578659 -0.0070813871 0.249282062
v 0.0649126619 -0.00750450836 0.249793842
v 0.0685557127 -0.00750450836 0.24850376
v 0.0692018196 -0.00791402813 0.248274967
v 0.0636997595 -0.0084393546 0.250223339
v 0.0697686151 -0.0084393546 0.248074248
v 0.0628738403 -0.0097667072 0.250515819
v 0.0705945343 -0.0097667072 0.247781783
v 0.062641263 -0.0105260704 0.250598192
v 0.0708271191 -0.0105260704 0.247699425
v 0.0625402331 -0.0113172885 0.250633955
v 0.0709281415 -0.0113172866 0.247663632
v 0.0625739992 -0.0121149272 0.250622004
v 0.0708943829 -0.0121149253 0.247675598
v 0.0627414808 -0.0128933499 0.250562698
v 0.0707269013 -0.012893348 0.247734904
v 0.0630372837 -0.0136275413 0.250457942
v 0.0704310909 -0.0136275385 0.247839659
v 0.063451916 -0.0142938998 0.250311106
v 0.0700164586 -0.014293897 0.247986481
v 0.0694963336 -0.0148710068 0.248170674
v 0.0645809472 -0.0153403208 0.249911308
v 0.0688874349 -0.0153403198 0.248386294
v 0.0652590543 -0.0156867523 0.249671176
v 0.0682093203 -0.0156867504 0.248626426
v 0.0659845769 -0.0158991665 0.24941425
v 0.0674838051 -0.0158991665 0.248883352
v 0.0667341873 -0.0159707386 0.249148801
v 0.0650680438 -0.0156867504 0.239755735
v 0.0643425211 -0.0158991665 0.240012646
v 0.0635929108 -0.0159707386 0.24027811
v 0.0628433004 -0.0158991665 0.240543559
v 0.0657461584 -0.0153403198 0.239515603
v 0.0620743223 -0.0156565476 0.240643799
v 0.0663550571 -0.0148710068 0.239299983
v 0.0614396669 -0.0153403208 0.241040602
v 0.0668751821 -0.014293897 0.23911579
v 0.0607966334 -0.0148467133 0.241096258
v 0.0672898144 -0.0136275385 0.238968953
v 0.0603106394 -0.0142938988 0.241440415
v 0.0675856173 -0.012893348 0.238864213
v 0.0598960072 -0.0136275403 0.241587237
v 0.0677530989 -0.0121149253 0.238804892
v 0.0596002005 -0.0128933499 0.241691992
v 0.0677868724 -0.0113172866 0.238792956
v 0.0594327226 -0.0121149272 0.241751298
v 0.0676858351 -0.0105260704 0.238828719
v 0.0593989529 -0.0113172885 0.241763264
v 0.0674532577 -0.0097667072 0.238911077
v 0.0594999827 -0.0105260704 0.241727486
v 0.0670966059 -0.00906360429 0.23903738
v 0.0597325638 -0.0097667072 0.241645128
v 0.0665512159 -0.00846164953 0.23905845
v 0.0600892156 -0.00906360149 0.241518825
v 0.0660605431 -0.00791402813 0.239404276
v 0.0605263226 -0.00846164953 0.241191968
v 0.0654144362 -0.00750450836 0.239633068
v 0.0611252785 -0.00791402813 0.241151944
v 0.0647097826 -0.00722395396 0.239882603
v 0.0617713854 -0.00750450836 0.240923136
v 0.0639123693 -0.00711351866 0.239992917
v 0.0624760389 -0.00722395629 0.240673602
v 0.0632165894 -0.00708138663 0.240411356
v 0.0617304407 -0.00753357634 0.240765572
v 0.0624299869 -0.00725505315 0.240517855
v 0.0631651729 -0.00711351866 0.240257517
v 0.0610890128 -0.00794013031 0.240992725
v 0.0646475479 -0.00725505315 0.239732578
v 0.0653470978 -0.00753357401 0.239484847
v 0.0600604601 -0.00908137485 0.241356954
v 0.0659885257 -0.00794012751 0.239257708
v 0.0594754927 -0.0105332518 0.241564095
v 0.0670170859 -0.00908137579 0.238893479
v 0.059375193 -0.0113187358 0.241599619
v 0.0673711523 -0.00977938622 0.238768101
v 0.0594087131 -0.0121105956 0.241587743
v 0.0676020458 -0.010533249 0.238686323
v 0.059574984 -0.0128833819 0.241528869
v 0.0677023456 -0.0113187339 0.238650814
v 0.0598686486 -0.0136122536 0.241424873
v 0.0676688254 -0.0121105937 0.23866269
v 0.0602802746 -0.0142737841 0.24127911
v 0.0675025582 -0.0128833791 0.238721564
v 0.0672088936 -0.0136122508 0.23882556
v 0.061401125 -0.015312626 0.240882188
v 0.0667972639 -0.0142737813 0.238971323
v 0.0662809089 -0.0148467114 0.239154175
v 0.0627945885 -0.0158674233 0.240388736
v 0.0656764135 -0.0153126242 0.23936823
v 0.0635387674 -0.0159384757 0.240125209
v 0.0650032237 -0.0156565458 0.239606619
v 0.0642829537 -0.0158674214 0.239861682
v 0.0655860975 -0.0152337542 0.239254341
v 0.0649268925 -0.0155705288 0.239487782
v 0.0642215908 -0.0157770235 0.23973754
v 0.0634928718 -0.0158466008 0.239995599
v 0.0661780313 -0.0147775216 0.239044741
v 0.0627641529 -0.0157770235 0.240253657
v 0.0666836575 -0.0142164985 0.238865688
v 0.0620588548 -0.0155705307 0.240503415
v 0.0670867264 -0.0135687133 0.23872295
v 0.0613996461 -0.015233756 0.240736857
v 0.067374289 -0.0128549887 0.238621116
v 0.0608077161 -0.0147775244 0.240946457
v 0.0675370991 -0.0120982621 0.238563463
v 0.0603020862 -0.0142165013 0.241125509
v 0.0675699264 -0.0113228559 0.23855184
v 0.0598990135 -0.0135687161 0.241268247
v 0.0674717128 -0.0105536934 0.238586619
v 0.0596114509 -0.0128549905 0.241370082
v 0.0672456175 -0.00981549732 0.238666683
v 0.0594486371 -0.0120982621 0.241427734
v 0.0668989047 -0.00913198944 0.238789454
v 0.0594158135 -0.0113228578 0.241439372
v 0.0664427206 -0.00852514058 0.238950998
v 0.0595140271 -0.0105536934 0.241404593
v 0.0658917204 -0.0080144573 0.239146128
v 0.059828639 -0.00986953732 0.241195709
v 0.0652636215 -0.00761635043 0.239368543
v 0.0600868352 -0.00913198944 0.241201743
v 0.0645786151 -0.00734361866 0.239611119
v 0.060543023 -0.00852514245 0.2410402
v 0.0638587028 -0.00720502576 0.239866048
v 0.0610940196 -0.0080144573 0.240845069
v 0.0631270409 -0.00720502576 0.240125149
v 0.0617221184 -0.00761635043 0.240622655
v 0.0624071285 -0.00734361866 0.240380079
v 0.0611395352 -0.00812569819 0.240731493
v 0.0617476888 -0.00774023496 0.240516141
v 0.0624109432 -0.00747616496 0.240281269
v 0.0631079897 -0.00734197116 0.240034431
v 0.0606060401 -0.00862016436 0.24092041
v 0.0638164133 -0.00734197116 0.239783555
v 0.0645134598 -0.00747616496 0.239536732
v 0.0651767179 -0.00774023542 0.23930186
v 0.0596097223 -0.010584292 0.241273224
v 0.0657848716 -0.00812569819 0.239086494
v 0.0595146269 -0.011329026 0.241306901
v 0.066318363 -0.00862016436 0.238897577
v 0.059546411 -0.0120798061 0.241295651
v 0.0667600632 -0.00920773763 0.238741159
v 0.0597040504 -0.0128124999 0.241239831
v 0.067095764 -0.00986953732 0.238622278
v 0.0599824823 -0.013503558 0.24114123
v 0.0673146844 -0.0105842901 0.238544762
v 0.0603727549 -0.0141307712 0.241003022
v 0.0674097762 -0.011329026 0.238511086
v 0.0608623251 -0.0146739762 0.240829661
v 0.067377992 -0.0120798042 0.238522351
v 0.0614354573 -0.0151157184 0.240626708
v 0.0672203526 -0.012812498 0.238578156
v 0.0620737299 -0.0154417967 0.240400687
v 0.0669419244 -0.0135035561 0.238676757
v 0.0627566278 -0.015641734 0.240158856
v 0.0665516555 -0.0141307684 0.238814965
v 0.0634622052 -0.0157091003 0.239908993
v 0.0660620853 -0.0146739744 0.238988325
v 0.0641677827 -0.0156417321 0.239659131
v 0.0654889494 -0.0151157165 0.239191294
v 0.0648506805 -0.0154417967 0.239417315
v 0.065399766 -0.0149764819 0.239188641
v 0.0641297102 -0.0154821454 0.239638388
v 0.0599584542 -0.00993328262 0.24111551
v 0.0627731606 -0.0154821463 0.240118772
v 0.0615031049 -0.0149764828 0.240568519
v 0.0598386899 -0.0127623789 0.241157919
v 0.0596565939 -0.0113363024 0.241222411
v 0.0602811687 -0.00929708965 0.241001233
v 0.0624408498 -0.0076325126 0.240236446
v 0.064462021 -0.00763251306 0.239520714
v 0.0656842291 -0.00825691409 0.239087909
v 0.0669444129 -0.00993328355 0.238641664
v 0.0672157183 -0.0120580336 0.238545582
v 0.0664213523 -0.0140296435 0.238826886
v 0.00675398391 0.0747272074 0.250561297
v 0.00668187207 0.0748671144 0.25061202
v 0.00736272102 0.0751742497 0.250382245
v 0.00727127632 0.0752999634 0.25043866
v 0.00763844652 0.0759287402 0.250238329
v 0.00787581317 0.075717628 0.250172645
v 0.00776807312 0.0758260861 0.250235707
v 0.00827676803 0.076339893 0.249939203
v 0.008156294 0.0764285848 0.250009686
v 0.00855270028 0.0770210326 0.249689445
v 0.00869473908 0.0777391493 0.249431387
v 0.00878156908 0.0776842982 0.249301776
v 0.00863651466 0.076950945 0.249565303
v 0.00835472811 0.0762553513 0.249820367
v 0.00878522731 0.0784318596 0.249038249
v 0.00864737388 0.0791695938 0.248783186
v 0.00794526376 0.0756198838 0.25005874
v 0.00837243721 0.0798737854 0.248544797
v 0.00742128398 0.075064972 0.25027281
v 0.00796925556 0.0805217996 0.248330727
v 0.00679962896 0.0746084452 0.250455678
v 0.00745078595 0.0810928196 0.248147875
v 0.00610027928 0.0742649734 0.250601441
v 0.00683369348 0.081568487 0.248002112
v 0.00534571288 0.074045606 0.250705421
v 0.00613781204 0.0819335058 0.247898117
v 0.0045601828 0.0739573836 0.25076431
v 0.00538550783 0.0821761563 0.247839242
v 0.00376893533 0.0740031525 0.250776172
v 0.00460095983 0.0822886303 0.247827366
v 0.0029974028 0.07418143 0.250740647
v 0.003809385 0.0822673216 0.24786289
v 0.00227038236 0.0744864941 0.2506589
v 0.00303622452 0.0821129009 0.247944653
v 0.00161124149 0.0749085322 0.250533521
v 0.00230632862 0.0818303451 0.248070031
v 0.00104116614 0.0754339918 0.250368536
v 0.00164315617 0.0814287364 0.248235017
v 0.000578477513 0.0760459751 0.250169277
v 0.0010680228 0.0809209719 0.248434275
v 0.000238047389 0.0767248124 0.249942139
v 0.000599413062 0.0803233758 0.248661414
v 3.08174058e-05 0.0774486884 0.249694422
v 0.000252390164 0.0796551555 0.248909131
v -3.65516426e-05 0.0781943351 0.249434069
v 3.81057944e-05 0.0789377913 0.249169484
v -6.34414573e-06 0.0773898736 0.249544397
v -7.42048287e-05 0.0781409666 0.249282151
v 9.97372922e-07 0.0788898468 0.249015629
v 0.000216844972 0.0796124414 0.248753384
v 0.000202397569 0.076660715 0.249793917
v 0.000566400529 0.0802855343 0.248503849
v 0.000545311836 0.0759769231 0.250022709
v 0.00103842921 0.0808874965 0.248275056
v 0.00101137673 0.075360477 0.250223428
v 0.00161775923 0.0813989639 0.248074338
v 0.00158561196 0.0748311877 0.250389606
v 0.00228577084 0.0818035081 0.24790816
v 0.00224956241 0.074406065 0.250515908
v 0.00302099274 0.0820881277 0.247781858
v 0.00298188766 0.0740987733 0.250598252
v 0.00379979471 0.0822436661 0.247699499
v 0.00375905004 0.073919192 0.250634044
v 0.0045971456 0.0822651386 0.247663721
v 0.00455607101 0.0738730952 0.250622094
v 0.00538741844 0.0821518376 0.247675687
v 0.00534733338 0.0739619583 0.250562787
v 0.00614521187 0.0819074214 0.247734994
v 0.00610740529 0.0741829276 0.250458032
v 0.00684617134 0.0815397352 0.247839734
v 0.00681185769 0.0745289028 0.250311196
v 0.00746776629 0.0810605958 0.24798657
v 0.00743804919 0.0749887601 0.250127017
v 0.00799001846 0.080485411 0.248170748
v 0.00839614309 0.0798326656 0.248386383
v 0.00867308583 0.0791233331 0.248626515
v 0.00880825985 0.0776272044 0.24914889
v 0.00835921615 0.0759977773 0.239755809
v 0.00849807635 0.0752546638 0.240012735
v 0.00849439017 0.0745016485 0.240278184
v 0.0083482787 0.0737629384 0.240543634
v 0.00804774836 0.0766404867 0.23936832
v 0.00806443486 0.0730622709 0.24080056
v 0.00767614972 0.0773598552 0.239300057
v 0.00765198329 0.0724221691 0.241040692
v 0.00715389708 0.07793504 0.239115879
v 0.00712417997 0.0718632042 0.241256312
v 0.00653230213 0.0784141794 0.238969043
v 0.00649798848 0.071403347 0.241440505
v 0.00583134266 0.0787818655 0.238864303
v 0.00579353608 0.0710573718 0.241587326
v 0.00507354923 0.0790262818 0.238804981
v 0.00503346417 0.0708364025 0.241692081
v 0.00428327639 0.0791395754 0.23879303
v 0.0042422018 0.0707475394 0.241751388
v 0.0034859255 0.0791181102 0.238828808
v 0.00344518083 0.0707936361 0.241763353
v 0.00270712352 0.0789625645 0.238911167
v 0.00266801845 0.0709732175 0.241727576
v 0.00197190163 0.0786779523 0.239037469
v 0.00193569309 0.0712805092 0.241645217
v 0.00130389002 0.0782734081 0.239203647
v 0.00127174275 0.0717056319 0.241518915
v 0.000724560057 0.0777619332 0.239404351
v 0.000697507581 0.0722349212 0.241352737
v 0.000252531347 0.0771599784 0.239633158
v 0.000231442667 0.0728513673 0.241152018
v -9.70242108e-05 0.0764868855 0.239882678
v -8.66410701e-05 0.0734915137 0.240765661
v -0.000286582654 0.0757044926 0.239993006
v -0.000320213323 0.0742643178 0.240673691
v -0.000388074026 0.0750154033 0.24041146
v -0.000293871068 0.0742153898 0.240517944
v -0.000361240091 0.0749610364 0.240257591
v 0.000253789069 0.0728126764 0.240992799
v -7.22982877e-05 0.0764218569 0.239732668
v 0.000716477749 0.0722006932 0.241192058
v 0.000274724618 0.0770900771 0.239484936
v 0.0012865531 0.0716752335 0.241357043
v 0.000743334356 0.0776876733 0.239257798
v 0.00194569398 0.0712531954 0.241482422
v 0.00131846778 0.0781954378 0.239058539
v 0.00267271418 0.0709481314 0.241564184
v 0.00198164023 0.0785970539 0.238893569
v 0.00344424695 0.0707698539 0.241599694
v 0.00271153613 0.0788796023 0.238768175
v 0.00423549395 0.070724085 0.241587833
v 0.00348469638 0.079034023 0.238686413
v 0.0050210245 0.0708123073 0.241528958
v 0.00427627144 0.0790553316 0.238650903
v 0.00577559089 0.0710316747 0.241424963
v 0.00506081944 0.0789428577 0.238662764
v 0.00647494011 0.0713751465 0.2412792
v 0.00581312366 0.0787002072 0.238721654
v 0.0070965956 0.0718316734 0.241096348
v 0.00650900509 0.0783351883 0.238825634
v 0.00762057537 0.0723865852 0.240882277
v 0.00712609757 0.0778595209 0.238971412
v 0.00803003926 0.0730220526 0.240643889
v 0.00764456671 0.077288501 0.239154249
v 0.00831182674 0.0737176463 0.240388826
v 0.00845688023 0.0744509995 0.240125299
v 0.00832268503 0.0759362951 0.239606708
v 0.00846053939 0.075198561 0.239861771
v 0.00796024874 0.0765585005 0.23925443
v 0.00822947267 0.0758689418 0.239487872
v 0.00836446136 0.075146541 0.23973763
v 0.00836087856 0.074414514 0.239995688
v 0.0075654448 0.0771930516 0.239044815
v 0.00821883976 0.0736963898 0.240253732
v 0.0070577492 0.0777522027 0.238865763
v 0.00794290751 0.0730152577 0.24050349
v 0.00645348011 0.0782179832 0.23872304
v 0.00754195219 0.0723929927 0.240736932
v 0.00577205885 0.0785754248 0.238621205
v 0.00702886051 0.0718496144 0.240946546
v 0.00503538735 0.0788130313 0.238563552
v 0.00642012293 0.0714025721 0.241125599
v 0.00426714215 0.0789231658 0.23855193
v 0.00573530607 0.071066238 0.241268337
v 0.00349201588 0.0789022967 0.238586709
v 0.00499641942 0.0708514303 0.241370171
v 0.00273492141 0.0787510946 0.238666773
v 0.00422721216 0.0707650408 0.241427824
v 0.00202019257 0.0784744099 0.238789544
v 0.00345240673 0.0708098561 0.241439447
v 0.00137080089 0.0780811384 0.238951087
v 0.00269690645 0.0709844306 0.241404667
v 0.000807618373 0.0775839239 0.239146203
v 0.00198499346 0.0712831542 0.241324604
v 0.000348746718 0.0769987479 0.239368632
v 0.00133954943 0.0716964304 0.241201833
v 8.93445304e-06 0.0763444155 0.239611208
v 0.000781320035 0.0722109675 0.241040289
v -0.000200896829 0.0756419525 0.239866138
v 0.000328245776 0.0728102326 0.240845159
v -0.000274002901 0.0749139488 0.240125239
v -5.11029612e-06 0.073474966 0.240622744
v -0.000208034078 0.0741837993 0.240380168
v 0.000443477416 0.072844401 0.240731582
v 0.000120708333 0.0734880269 0.24051623
v -7.57705202e-05 0.0741743445 0.240281358
v -0.000139644719 0.0748813152 0.240034521
v 0.000882162305 0.0722641721 0.240920499
v -6.88604196e-05 0.0755861998 0.239783645
v 0.00142266287 0.0717659742 0.241076916
v 0.000134306887 0.0762663484 0.239536807
v 0.00204760837 0.0713658258 0.241195798
v 0.000463327189 0.076899901 0.239301935
v 0.00273691164 0.0710765868 0.241273314
v 0.000907625421 0.0774664879 0.239086583
v 0.00346841803 0.0709075555 0.24130699
v 0.00145292177 0.0779479146 0.238897666
v 0.00421861652 0.0708641708 0.24129574
v 0.00208168942 0.0783286914 0.238741249
v 0.00496339425 0.070947811 0.241239905
v 0.00277371937 0.0785965919 0.238622367
v 0.00567881484 0.0711558014 0.241141319
v 0.00350676919 0.0787429959 0.238544852
v 0.00634188252 0.0714814514 0.241003111
v 0.00425727805 0.0787632018 0.238511175
v 0.00693128724 0.0719142929 0.240829751
v 0.00500112446 0.0786565617 0.238522425
v 0.00742808357 0.0724404231 0.240626782
v 0.00571440021 0.0784265026 0.238578245
v 0.00781630538 0.0730429217 0.240400761
v 0.00637418032 0.0780804157 0.238676846
v 0.00808347389 0.0737024248 0.24015893
v 0.00695925858 0.0776294246 0.238815054
v 0.00822100136 0.0743977353 0.239909083
v 0.00745083019 0.0770880356 0.238988414
v 0.00822447054 0.0751065165 0.23965922
v 0.00783309527 0.076473631 0.239191368
v 0.00809376873 0.0758059695 0.239417389
v 0.00731817121 0.0769894347 0.23899363
v 0.00806187931 0.075084582 0.239638478
v 0.00282202335 0.0784396231 0.238641739
v 0.00792633742 0.0737348199 0.240118861
v 0.00729630515 0.0725216419 0.240568608
v 0.00625213049 0.0715997741 0.240930364
v 0.00421101553 0.0710063726 0.241211668
v 0.00212400616 0.0714886263 0.2411156
v 0.000581940985 0.0729099959 0.24066934
v 8.27830518e-05 0.0741884783 0.240236536
v 8.94259792e-05 0.0755457059 0.239758089
v 0.000601022737 0.0768085793 0.239295021
v 0.00155232882 0.0778160468 0.238906384
v 0.0056489259 0.0782761127 0.23859933
v 0.0189602114 -0.0781745464 0.250561237
v 0.0191170387 -0.0781880096 0.250611961
v 0.0192819759 -0.0781882703 0.25060004
v 0.0190144796 -0.0789278522 0.250382185
v 0.0191695802 -0.0789173841 0.250438571
v 0.0192012228 -0.0796514899 0.250172555
v 0.0193503927 -0.0796180442 0.250235617
v 0.0195063036 -0.079562977 0.25023827
v 0.0196536612 -0.0802674592 0.250009596
v 0.0197978374 -0.0801872686 0.250020981
v 0.0199440643 -0.0809184611 0.24968937
v 0.0204762854 -0.0814210624 0.249431312
v 0.0203836225 -0.0814653486 0.249301702
v 0.0198401082 -0.0809520856 0.249565229
v 0.0194013659 -0.0803431869 0.249820292
v 0.0209565125 -0.0818616226 0.248883352
v 0.021712305 -0.0821426287 0.248783112
v 0.0190815032 -0.0796582326 0.250058681
v 0.0224547647 -0.0822848678 0.248544723
v 0.0188907981 -0.0789192319 0.250272751
v 0.0232179612 -0.0822886452 0.248330653
v 0.0188353788 -0.0781499445 0.250455588
v 0.0239410512 -0.0821510479 0.247986495
v 0.0189170279 -0.0773750991 0.250601351
v 0.0247085784 -0.0818847716 0.248002037
v 0.0191331264 -0.0766195878 0.250705361
v 0.0253880862 -0.0814901069 0.247898057
v 0.0194767211 -0.0759076998 0.250764221
v 0.0259940494 -0.0809825137 0.247839168
v 0.0199367739 -0.0752623156 0.250776082
v 0.0265070032 -0.0803783238 0.247827291
v 0.0204984918 -0.0747041777 0.250740588
v 0.0269104503 -0.0796969458 0.247862816
v 0.0211438295 -0.0742512271 0.25065881
v 0.0271914266 -0.0789602846 0.247944579
v 0.0218520369 -0.0739180222 0.250533432
v 0.0273409002 -0.0781920105 0.248069957
v 0.0226003565 -0.0737152696 0.250368476
v 0.0273540709 -0.0774168223 0.248234943
v 0.0233647376 -0.0736494884 0.250169218
v 0.0272305124 -0.0766596347 0.248434201
v 0.0241206102 -0.0737227872 0.249942064
v 0.0269741993 -0.0759447813 0.248661339
v 0.024843676 -0.0739328191 0.249694347
v 0.0265933629 -0.0752952397 0.248909056
v 0.0254855752 -0.0742125362 0.249282077
v 0.0261002462 -0.0747318864 0.249169409
v 0.0248136837 -0.0738700479 0.249544308
v 0.0265761353 -0.0752424076 0.248753309
v 0.0240853373 -0.0736584812 0.249793842
v 0.0269597508 -0.0758966878 0.248503774
v 0.0233239476 -0.073584646 0.25002265
v 0.0225539953 -0.0736509115 0.250223368
v 0.0273423977 -0.0773794726 0.248074263
v 0.0273291282 -0.0781603158 0.247908086
v 0.0210868381 -0.0741907805 0.250515819
v 0.0271785613 -0.0789342001 0.247781783
v 0.0204367898 -0.0746470392 0.250598192
v 0.0268955342 -0.0796762332 0.247699425
v 0.0198709741 -0.0752092451 0.250633955
v 0.0264891461 -0.0803625882 0.247663662
v 0.0194075648 -0.075859338 0.250622004
v 0.0259724502 -0.0809711888 0.247675613
v 0.019061463 -0.0765764192 0.250562698
v 0.0253620595 -0.0814824775 0.247734919
v 0.0188437905 -0.0773374438 0.250457942
v 0.0246775933 -0.0818800256 0.247839659
v 0.0187615417 -0.0781179443 0.250311136
v 0.0188173652 -0.0788928494 0.250126928
v 0.0231761038 -0.0822868422 0.248170689
v 0.0190094635 -0.0796372369 0.249911308
v 0.022407338 -0.0822830424 0.248386309
v 0.0216594618 -0.0821397677 0.248626441
v 0.0197736043 -0.0809405297 0.249414265
v 0.0203210842 -0.0814575404 0.249148816
v 0.0191809535 -0.0802098364 0.239755735
v 0.018450506 -0.0798700452 0.239861697
v 0.0178425778 -0.0795276165 0.24027811
v 0.0172950979 -0.0790105984 0.240543559
v 0.0199288297 -0.080353111 0.239515603
v 0.0168531537 -0.0783972591 0.240800485
v 0.0206975956 -0.0803569108 0.239299983
v 0.0165309552 -0.0777073056 0.241040617
v 0.0214625429 -0.0802211165 0.23911579
v 0.016326854 -0.0769227743 0.241096258
v 0.0221990887 -0.0799500942 0.238968968
v 0.0162830353 -0.076188013 0.24144043
v 0.0228241421 -0.0794936493 0.238721579
v 0.0163652822 -0.0754075125 0.241587251
v 0.02349394 -0.0790412575 0.238804907
v 0.0165829528 -0.0746464878 0.241692007
v 0.0240106359 -0.0784326568 0.238792956
v 0.0169290565 -0.0739294067 0.241751313
v 0.024417026 -0.0777463093 0.238828734
v 0.0173924658 -0.0732793137 0.241763279
v 0.0246274825 -0.076963827 0.238768101
v 0.0179582834 -0.0727171078 0.241727486
v 0.0248506237 -0.0762303919 0.239037395
v 0.0185798854 -0.0722547695 0.241482332
v 0.0248638894 -0.0754495412 0.239203557
v 0.0193217061 -0.071925208 0.24151884
v 0.0246665683 -0.0746631771 0.239257723
v 0.0200754851 -0.0717209801 0.241352662
v 0.0244812407 -0.0739667565 0.239633083
v 0.0208454449 -0.0716547146 0.241151944
v 0.0240976252 -0.0733124763 0.239882603
v 0.021606829 -0.0717285499 0.240923151
v 0.0236009136 -0.0727450103 0.240144849
v 0.0223351736 -0.0719401166 0.240673617
v 0.0230070669 -0.0722826049 0.240411371
v 0.0215566661 -0.0717263296 0.240765586
v 0.0222797319 -0.0719363615 0.240517855
v 0.0229467601 -0.0722763687 0.240257531
v 0.0235363021 -0.0727354288 0.239992931
v 0.0208007935 -0.0716530308 0.24099274
v 0.0240294188 -0.0732987821 0.239732578
v 0.0200364143 -0.071718812 0.241191983
v 0.0244102553 -0.0739483237 0.239484861
v 0.0192880947 -0.0719215646 0.241356954
v 0.0247901268 -0.0754203647 0.239058465
v 0.0179345496 -0.0727077201 0.24156411
v 0.0247769561 -0.0761955529 0.238893479
v 0.0173728298 -0.073265858 0.241599619
v 0.016912777 -0.0739112422 0.241587743
v 0.0243465062 -0.0777004957 0.238686338
v 0.0165691823 -0.0746231303 0.241528884
v 0.0163530875 -0.0753786415 0.241424873
v 0.0234301053 -0.0789860636 0.23866269
v 0.0162714366 -0.076153487 0.241279125
v 0.0221446343 -0.079888314 0.23882556
v 0.0165175609 -0.0776617751 0.240882203
v 0.0214134231 -0.0801573768 0.238971338
v 0.0168374255 -0.0783467293 0.240643814
v 0.0206540171 -0.0802921876 0.239154175
v 0.0172761641 -0.078955628 0.240388751
v 0.0198908206 -0.0802884102 0.239368245
v 0.0178196803 -0.0794688985 0.240125224
v 0.0191483609 -0.0801461786 0.239606634
v 0.0198680125 -0.080170691 0.239254355
v 0.0191409849 -0.0800314099 0.239487797
v 0.0184576288 -0.0797610208 0.239737555
v 0.0178399123 -0.0793682039 0.239995614
v 0.0206153505 -0.080174394 0.239044741
v 0.0173076913 -0.0788656026 0.240253657
v 0.021358978 -0.0800423846 0.238865688
v 0.0168780647 -0.078269355 0.240503415
v 0.0220749918 -0.0797789097 0.238722965
v 0.0165648479 -0.0775986388 0.240736857
v 0.0226450264 -0.0792643428 0.238578171
v 0.0163781047 -0.0768749937 0.240946472
v 0.0233337563 -0.0788954049 0.238563478
v 0.0163238402 -0.0761216953 0.241125524
v 0.0238360465 -0.0783037692 0.238551855
v 0.0164037943 -0.0753629431 0.241268262
v 0.0242311116 -0.0776365474 0.238586634
v 0.0166154001 -0.0746231377 0.241370097
v 0.0245062467 -0.0769151971 0.238666698
v 0.0169518534 -0.073926039 0.241427749
v 0.0246526171 -0.0761628821 0.238789469
v 0.0174023453 -0.0732940659 0.241439372
v 0.0246655159 -0.0754038021 0.238951012
v 0.0179523937 -0.0727475286 0.241404593
v 0.0245445278 -0.0746623501 0.239146128
v 0.0185843203 -0.072303988 0.241324529
v 0.0242935345 -0.0739623457 0.239368543
v 0.0239206143 -0.0733263046 0.239611119
v 0.0200105831 -0.0717791691 0.2410402
v 0.0234377459 -0.0727746561 0.239866063
v 0.0207590796 -0.0717147514 0.240845084
v 0.0228604525 -0.0723251402 0.240125149
v 0.0214992408 -0.0717865303 0.240622669
v 0.0222072862 -0.0719921961 0.240380093
v 0.0207266454 -0.0718304887 0.240731508
v 0.0214433018 -0.0718999878 0.240516141
v 0.0221288614 -0.0720991194 0.240281269
v 0.0227612853 -0.0724214837 0.240034446
v 0.0200019237 -0.0718928576 0.240920424
v 0.0233202428 -0.0728567317 0.23978357
v 0.0192924235 -0.07208509 0.241076842
v 0.0237877779 -0.0733908564 0.239536732
v 0.0186209567 -0.0724010095 0.241195723
v 0.0241488535 -0.074006699 0.23930186
v 0.0180091001 -0.072830461 0.241273239
v 0.0243918728 -0.0746844709 0.239086509
v 0.0174765233 -0.0733596459 0.241306916
v 0.024509022 -0.075402379 0.238897592
v 0.024496533 -0.076137349 0.238741174
v 0.0167145673 -0.0746465027 0.241239846
v 0.0243548136 -0.0768657699 0.238622293
v 0.0165096819 -0.0753628165 0.241141245
v 0.0240884125 -0.0775642172 0.238544777
v 0.0164322685 -0.0760974661 0.241003036
v 0.0237058941 -0.0782102421 0.238511086
v 0.01648481 -0.0768268481 0.240829676
v 0.0232195538 -0.0787830874 0.238522351
v 0.0166656226 -0.0775275007 0.240626708
v 0.0169688929 -0.0781769231 0.240400687
v 0.0220007729 -0.0796385333 0.238676772
v 0.0173848737 -0.0787542313 0.240158856
v 0.0213074982 -0.0798936412 0.238814965
v 0.0179001931 -0.0792408735 0.239909008
v 0.0205874834 -0.0800214559 0.23898834
v 0.0184982885 -0.0796212107 0.239659145
v 0.019863883 -0.0800178796 0.239191294
v 0.0191599429 -0.0798830166 0.239417315
v 0.0205746628 -0.0798566639 0.23899354
v 0.0192023534 -0.0797235817 0.23940593
v 0.0168045405 -0.0774592087 0.240568534
v 0.0165802147 -0.076084502 0.240930289
v 0.0166546348 -0.0753782764 0.241063148
v 0.0171647575 -0.0740408301 0.241211593
v 0.0186842233 -0.0725310668 0.241115525
v 0.0207084399 -0.0719826147 0.240669265
v 0.0226643533 -0.0725507513 0.239999175
v 0.0236511305 -0.0734826103 0.239520729
v 0.0242318511 -0.0747261718 0.239087924
v 0.0241962261 -0.0768230706 0.238641664
v 0.023104893 -0.0786662102 0.238545582
v 0.0225525927 -0.0791288465 0.238599256
v -0.0626549125 0.070844844 0.250561237
v -0.0627977625 0.0709109306 0.250611961
v -0.0624492615 0.0715715587 0.250382185
v -0.0625986457 0.0716145635 0.250438601
v -0.0626952499 0.0723362565 0.25023827
v -0.0623782687 0.0723155215 0.250172555
v -0.0625299066 0.0723349005 0.250235617
v -0.0624442101 0.073052831 0.249939129
v -0.0625937581 0.0730488002 0.250009596
v -0.0626449734 0.0737597868 0.24968937
v -0.0629740953 0.0744136572 0.249431312
v -0.0628718883 0.0744237229 0.249301702
v -0.0625357851 0.0737559795 0.249565229
v -0.0623307601 0.0730340257 0.249820292
v -0.0633282885 0.0750158057 0.249038175
v -0.0638903007 0.0755131915 0.248783112
v -0.062263418 0.0722810701 0.250058681
v -0.0645398721 0.0758998916 0.248544723
v -0.0623359159 0.071521312 0.250272751
v -0.0652561113 0.0761634856 0.248330668
v -0.0625459328 0.0707791746 0.250455588
v -0.0660160109 0.0762954876 0.248147815
v -0.0628867075 0.0700785145 0.250601351
v -0.0667951405 0.0762916654 0.248002052
v -0.0633472949 0.0694418401 0.250705361
v -0.0675684586 0.0761521459 0.247898057
v -0.0639128834 0.0688896179 0.250764221
v -0.0683111176 0.0758813992 0.247839183
v -0.0645653009 0.0684396103 0.250776112
v -0.0689992383 0.0754881352 0.247827306
v -0.0652835816 0.0681062564 0.250740588
v -0.0696107075 0.0749849901 0.247862816
v -0.0660446361 0.0679002926 0.25065881
v -0.0701258704 0.0743881464 0.247944593
v -0.0668239966 0.0678283349 0.250533432
v -0.070528172 0.0737167746 0.248069972
v -0.0675966218 0.0678926855 0.250368476
v -0.0708046779 0.0729924589 0.248234943
v -0.0683376789 0.0680912808 0.250169218
v -0.0709465072 0.0722384751 0.248434201
v -0.0690233409 0.0684177354 0.249942064
v -0.0709490925 0.0714790598 0.248661339
v -0.069631584 0.0688615665 0.249694347
v -0.0708123595 0.0707386285 0.248909071
v -0.0701428503 0.0694085062 0.249433994
v -0.0705407038 0.0700409636 0.249169409
v -0.0696247742 0.0687923357 0.249544322
v -0.0701397657 0.0693432614 0.249282077
v -0.070540525 0.0699803382 0.249015555
v -0.0708141699 0.0706830919 0.248753309
v -0.0690120906 0.0683452636 0.249793857
v -0.0709518939 0.0714289248 0.248503774
v -0.0683214217 0.0680164248 0.25002265
v -0.0709492862 0.0721938834 0.248274982
v -0.067574963 0.0678163767 0.250223368
v -0.0708064213 0.0729533657 0.248074263
v -0.0667966977 0.0677515566 0.250389546
v -0.0705278963 0.0736829638 0.247908086
v -0.0660116524 0.0678240433 0.250515848
v -0.0701226592 0.0743592381 0.247781798
v -0.0652450472 0.0680315122 0.250598192
v -0.0696037412 0.0749604404 0.24769944
v -0.0645215213 0.068367295 0.250633985
v -0.0689878091 0.0754672512 0.247663662
v -0.0638643429 0.0688205883 0.250622004
v -0.0682946667 0.0758633837 0.247675613
v -0.0632946268 0.0693768412 0.250562698
v -0.0675465986 0.0761361048 0.247734919
v -0.0628306791 0.0700181574 0.250457942
v -0.066767633 0.0762766525 0.247839674
v -0.062487416 0.070723936 0.250311136
v -0.0659828186 0.076280497 0.247986495
v -0.0622758679 0.07147149 0.250126928
v -0.0652173758 0.0761475265 0.248170689
v -0.062202841 0.0722367838 0.249911323
v -0.0644959062 0.0758820176 0.248386309
v -0.0622706749 0.072995238 0.249671191
v -0.0638415962 0.0754924938 0.248626441
v -0.0624771938 0.0737224594 0.249414265
v -0.0632754788 0.0749914795 0.248883367
v -0.0628157556 0.0743950754 0.249148816
v -0.0621689707 0.072833553 0.23975575
v -0.061602857 0.0723325387 0.240012661
v -0.0611431301 0.071736142 0.240278125
v -0.0608045682 0.0710635185 0.240543574
v -0.0628232807 0.0732230768 0.239515617
v -0.0605980493 0.0703362972 0.240800485
v -0.0635447502 0.0734885931 0.239299998
v -0.0605302155 0.0695778504 0.241040617
v -0.0643101931 0.0736215636 0.239115804
v -0.0606032424 0.0688125491 0.241256252
v -0.0650950074 0.0736177117 0.238968983
v -0.0608147904 0.0680649951 0.24144043
v -0.0658739731 0.0734771714 0.238864228
v -0.0611580499 0.067359224 0.241587266
v -0.0666220412 0.0732044503 0.238804922
v -0.0616219975 0.0667179003 0.241692007
v -0.0673151836 0.0728083178 0.238792956
v -0.0621917173 0.0661616549 0.241751313
v -0.0679311156 0.0723014995 0.238828734
v -0.0628488958 0.0657083541 0.241763279
v -0.0684500337 0.0717002973 0.238911092
v -0.0635724217 0.0653725788 0.241727501
v -0.0688552707 0.0710240304 0.239037395
v -0.0643390268 0.0651651099 0.241645142
v -0.0691337958 0.0702944249 0.239203572
v -0.0651240721 0.0650926158 0.24151884
v -0.0692766607 0.0695349425 0.239404291
v -0.0659023374 0.0651574433 0.241352662
v -0.0692792684 0.0687699914 0.239633083
v -0.0666487962 0.0653574839 0.241151959
v -0.0691415444 0.068024151 0.239882618
v -0.067339465 0.0656863302 0.240923151
v -0.0688678995 0.0673213974 0.240144849
v -0.0679521486 0.0661333948 0.240673617
v -0.0684671402 0.0666843206 0.240411386
v -0.0672930628 0.065667145 0.240765586
v -0.0679013059 0.066110976 0.24051787
v -0.0684125647 0.0666579157 0.240257531
v -0.0688104182 0.0672903731 0.239992931
v -0.0666073933 0.0653406829 0.24099274
v -0.0690820813 0.0679880381 0.239732593
v -0.0658663437 0.0651420876 0.241191998
v -0.0692188144 0.0687284693 0.239484861
v -0.0650937185 0.065077737 0.241356969
v -0.0692162216 0.0694878846 0.239257723
v -0.0643143505 0.0651497021 0.241482347
v -0.0690743923 0.0702418685 0.239058465
v -0.0635533035 0.065355666 0.24156411
v -0.0687978864 0.0709661841 0.238893494
v -0.0628350228 0.0656890124 0.241599634
v -0.0683955848 0.071637556 0.238768116
v -0.0621826015 0.0661390275 0.241587758
v -0.0678804219 0.0722343996 0.238686353
v -0.0616170093 0.0666912496 0.241528884
v -0.0672689527 0.0727375448 0.238650829
v -0.0611564219 0.0673279241 0.241424888
v -0.066580832 0.0731308013 0.238662705
v -0.0608156472 0.0680285841 0.241279125
v -0.0658381805 0.073401548 0.238721579
v -0.060605634 0.0687707216 0.241096273
v -0.0650648624 0.073541075 0.238825575
v -0.0605331361 0.0695304796 0.240882203
v -0.0642857328 0.0735448971 0.238971338
v -0.0606004782 0.0702834353 0.240643814
v -0.0635258332 0.0734128952 0.23915419
v -0.0608054996 0.0710053891 0.240388751
v -0.0628095865 0.0731493011 0.239368245
v -0.0611416101 0.0716731325 0.240125224
v -0.0621600188 0.0727626011 0.239606634
v -0.0615980066 0.0722652152 0.239861697
v -0.0628282577 0.0730308592 0.23925437
v -0.062192183 0.0726521909 0.239487797
v -0.0616418496 0.072165139 0.239737555
v -0.0611949377 0.0715853646 0.239995614
v -0.0635296181 0.0732889697 0.239044756
v -0.060865812 0.0709314942 0.240253672
v -0.0642737225 0.0734182298 0.238865703
v -0.0606650524 0.0702245384 0.24050343
v -0.0650366619 0.0734144896 0.238722965
v -0.0605991073 0.069487229 0.240736872
v -0.0657939166 0.0732778609 0.238621131
v -0.0606701002 0.0687432587 0.240946472
v -0.066521138 0.0730127394 0.238563478
v -0.0608757474 0.068016544 0.241125524
v -0.067194961 0.0726276487 0.238551855
v -0.061209444 0.0673304424 0.241268262
v -0.0677937195 0.0721349642 0.238586634
v -0.0616604574 0.0667070001 0.241370097
v -0.0682981759 0.0715505183 0.238666698
v -0.0622143 0.0661662519 0.241427749
v -0.0686921179 0.0708931014 0.238789469
v -0.062853165 0.0657255948 0.241439372
v -0.0689628795 0.0701838359 0.238951012
v -0.0635565147 0.0653991699 0.241404593
v -0.0691017658 0.0694455206 0.239146143
v -0.0643017516 0.0651974827 0.241324529
v -0.0691042989 0.0687018856 0.239368558
v -0.065064922 0.0651270151 0.241201758
v -0.0689704046 0.0679768398 0.239611134
v -0.0658214912 0.0651900321 0.241040215
v -0.0687043965 0.0672936738 0.239866063
v -0.0665471479 0.0653844997 0.240845099
v -0.0683148056 0.0666743591 0.240125164
v -0.0672185645 0.0657041743 0.240622669
v -0.0678141639 0.0661387816 0.240380093
v -0.0664772242 0.0654822588 0.240731508
v -0.0671273172 0.0657917857 0.240516156
v -0.0677039996 0.0662125871 0.240281284
v -0.0681887418 0.0667311475 0.240034446
v -0.0657746121 0.0652939677 0.240920424
v -0.0685659572 0.0673308 0.23978357
v -0.065042071 0.0652329549 0.241076842
v -0.0688235238 0.06799227 0.239536732
v -0.0643031374 0.0653011873 0.241195723
v -0.0689531639 0.0686942935 0.239301875
v -0.063581571 0.0654964671 0.241273239
v -0.0689507052 0.0694143102 0.239086509
v -0.0629005581 0.0658125207 0.241306916
v -0.0688162372 0.070129171 0.238897592
v -0.0622819811 0.0662391856 0.241295666
v -0.0685540736 0.0708159134 0.238741174
v -0.061745733 0.0667627528 0.241239846
v -0.0681726411 0.0714524537 0.238622293
v -0.0613090396 0.0673663989 0.241141245
v -0.0676842034 0.0720183402 0.238544777
v -0.0609859452 0.068030715 0.241003036
v -0.0671044588 0.0724953786 0.2385111
v -0.0607868247 0.0687343478 0.240829676
v -0.0664520413 0.0728682354 0.238522351
v -0.0607180856 0.0694546923 0.240626723
v -0.0657479167 0.0731249377 0.238578185
v -0.0607819371 0.0701685846 0.240400687
v -0.0650147125 0.0732572228 0.238676772
v -0.0609763227 0.0708530843 0.240158871
v -0.0642760023 0.0732608438 0.23881498
v -0.0612949952 0.07148619 0.239909008
v -0.0635555238 0.0731356889 0.23898834
v -0.0617277138 0.072047554 0.239659145
v -0.0628764406 0.0728857741 0.239191294
v -0.0622605719 0.0725191385 0.239417329
v -0.0642922148 0.0730967075 0.238826901
v -0.0623547658 0.0723836944 0.23940593
v -0.0614265501 0.0713907108 0.239878595
v -0.0629699901 0.0659365579 0.241222426
v -0.0609333403 0.0701240823 0.24035126
v -0.0611294545 0.0680689365 0.240930304
v -0.0618598461 0.0668500364 0.241157934
v -0.0657328442 0.0654380694 0.240850881
v -0.0670332164 0.0659166276 0.240462244
v -0.0680535734 0.0668196529 0.239999175
v -0.0686637908 0.0680319741 0.239520729
v -0.0686567873 0.0700861961 0.238906309
v -0.0675685555 0.0719022676 0.238567144
v -0.0663840622 0.0727192834 0.238545597
f 1 2 3
f 4 1 5
f 3 5 1
f 5 6 4
f 7 4 6
f 5 3 8
f 6 5 9
f 8 9 5
f 9 8 10
f 6 9 11
f 10 11 9
f 11 12 6
f 7 6 12
f 11 10 13
f 12 11 14
f 13 14 11
f 14 13 15
f 12 14 16
f 15 16 14
f 16 15 17
f 12 16 18
f 17 18 16
f 18 7 12
f 18 17 19
f 7 18 20
f 19 20 18
f 21 22 23
f 23 24 21
f 22 21 25
f 26 27 28
f 29 22 30
f 25 30 22
f 30 31 29
f 7 29 31
f 30 25 32
f 31 30 33
f 32 33 30
f 33 32 34
f 31 33 35
f 34 35 33
f 35 4 31
f 7 31 4
f 35 34 36
f 4 35 37
f 36 37 35
f 37 36 2
f 4 37 1
f 2 1 37
f 20 19 38
f 7 20 39
f 38 39 20
f 39 38 40
f 7 39 41
f 40 41 39
f 41 40 42
f 7 41 43
f 42 43 41
f 43 44 7
f 43 42 45
f 44 43 46
f 45 46 43
f 47 48 49
f 50 49 48
f 49 50 51
f 47 49 52
f 51 52 49
f 52 53 47
f 54 47 53
f 52 51 55
f 53 52 56
f 55 56 52
f 56 57 53
f 54 53 57
f 56 55 58
f 57 56 59
f 58 59 56
f 54 57 59
f 59 58 60
f 60 61 59
f 7 62 29
f 23 29 62
f 62 63 23
f 29 23 22
f 62 28 63
f 7 26 62
f 28 62 26
f 24 23 63
f 64 63 28
f 63 64 24
f 46 45 65
f 44 46 66
f 65 66 46
f 66 65 67
f 44 66 68
f 67 68 66
f 68 69 44
f 7 44 69
f 68 67 70
f 69 68 71
f 70 71 68
f 61 60 72
f 61 72 73
f 59 61 74
f 73 74 61
f 74 75 59
f 54 59 75
f 74 73 76
f 75 74 77
f 76 77 74
f 77 76 78
f 75 77 79
f 78 79 77
f 54 80 81
f 82 81 80
f 54 81 83
f 48 83 81
f 81 82 48
f 80 84 82
f 54 83 47
f 48 47 83
f 54 85 80
f 84 80 85
f 86 48 82
f 87 82 84
f 82 87 86
f 88 89 90
f 7 90 89
f 88 91 92
f 89 88 93
f 92 93 88
f 93 92 94
f 89 93 95
f 94 95 93
f 95 96 89
f 7 89 96
f 95 94 97
f 96 95 98
f 97 98 95
f 99 100 101
f 102 99 103
f 101 103 99
f 103 101 104
f 102 103 105
f 104 105 103
f 105 106 102
f 107 102 106
f 105 104 108
f 106 105 109
f 108 109 105
f 109 108 110
f 106 109 111
f 110 111 109
f 71 70 112
f 69 71 113
f 112 113 71
f 113 90 69
f 7 69 90
f 113 112 114
f 90 113 115
f 114 115 113
f 115 114 116
f 90 115 117
f 116 117 115
f 117 116 91
f 90 117 88
f 91 88 117
f 118 119 120
f 118 120 121
f 122 123 124
f 121 125 118
f 126 125 127
f 125 121 128
f 128 127 125
f 127 128 129
f 129 130 127
f 130 129 131
f 130 132 127
f 126 127 132
f 130 131 133
f 132 130 134
f 133 134 130
f 134 135 132
f 126 132 135
f 134 133 136
f 135 134 137
f 136 137 134
f 137 136 138
f 135 137 139
f 138 139 137
f 139 138 140
f 135 139 140
f 140 141 135
f 126 135 141
f 141 140 142
f 143 142 140
f 144 145 146
f 146 147 144
f 145 144 148
f 149 150 151
f 152 145 153
f 148 153 145
f 153 148 154
f 152 153 155
f 154 155 153
f 155 156 152
f 107 152 156
f 155 154 157
f 156 155 158
f 157 158 155
f 158 157 159
f 156 158 160
f 159 160 158
f 160 159 100
f 156 160 99
f 100 99 160
f 99 102 156
f 107 156 102
f 79 161 75
f 54 75 161
f 79 78 162
f 161 79 163
f 162 163 79
f 163 162 164
f 163 165 161
f 54 161 165
f 163 164 166
f 165 163 167
f 166 167 163
f 111 168 106
f 107 106 168
f 111 110 169
f 168 111 170
f 169 170 111
f 170 169 171
f 168 170 172
f 171 172 170
f 172 173 168
f 107 168 173
f 172 171 174
f 173 172 175
f 174 175 172
f 175 174 176
f 173 175 177
f 176 177 175
f 177 178 173
f 107 173 178
f 177 176 179
f 178 177 180
f 179 180 177
f 180 179 181
f 178 180 182
f 181 182 180
f 182 181 183
f 178 182 184
f 183 184 182
f 126 122 118
f 122 185 118
f 122 124 185
f 126 118 125
f 119 118 185
f 186 54 187
f 186 188 189
f 54 186 190
f 189 190 186
f 190 191 54
f 190 189 192
f 191 190 193
f 192 193 190
f 193 194 191
f 54 191 194
f 193 192 195
f 194 193 196
f 195 196 193
f 196 54 194
f 107 197 146
f 107 146 145
f 107 151 197
f 145 152 107
f 151 107 149
f 147 146 197
f 198 197 151
f 197 198 147
f 142 143 199
f 141 142 200
f 199 200 142
f 200 201 141
f 126 141 201
f 200 199 202
f 201 200 203
f 202 203 200
f 203 202 204
f 201 203 205
f 204 205 203
f 205 206 201
f 126 201 206
f 184 207 178
f 107 178 207
f 184 183 208
f 207 184 209
f 208 209 184
f 209 208 210
f 207 209 211
f 210 211 209
f 211 212 207
f 107 207 212
f 211 210 213
f 212 211 214
f 213 214 211
f 167 166 215
f 165 167 216
f 215 216 167
f 216 217 165
f 54 165 217
f 216 215 218
f 217 216 219
f 218 219 216
f 219 220 217
f 54 217 220
f 219 218 221
f 220 219 222
f 221 222 219
f 222 221 223
f 220 222 224
f 223 224 222
f 54 220 224
f 224 223 225
f 225 226 224
f 226 227 224
f 54 224 227
f 226 225 228
f 228 227 226
f 227 228 229
f 229 230 227
f 54 227 230
f 205 204 231
f 206 205 232
f 231 232 205
f 232 231 233
f 206 232 234
f 233 234 232
f 234 233 235
f 206 234 236
f 235 236 234
f 236 235 237
f 206 236 238
f 237 238 236
f 239 240 241
f 107 241 240
f 239 242 243
f 240 239 244
f 243 244 239
f 244 243 245
f 240 244 246
f 245 246 244
f 246 247 240
f 107 240 247
f 246 245 248
f 247 246 249
f 248 249 246
f 250 251 252
f 253 250 254
f 252 254 250
f 254 255 253
f 126 253 255
f 254 252 256
f 255 254 257
f 256 257 254
f 257 256 258
f 255 257 259
f 258 259 257
f 259 260 255
f 126 255 260
f 238 261 206
f 126 206 261
f 238 237 262
f 261 238 263
f 262 263 238
f 263 262 264
f 261 263 265
f 264 265 263
f 265 264 266
f 261 265 267
f 266 267 265
f 267 268 261
f 126 261 268
f 214 213 269
f 212 214 270
f 269 270 214
f 270 269 271
f 212 270 272
f 271 272 270
f 272 241 212
f 107 212 241
f 272 271 273
f 241 272 274
f 273 274 272
f 274 273 242
f 241 274 239
f 242 239 274
f 230 229 275
f 275 276 230
f 276 277 230
f 54 230 277
f 276 275 278
f 277 276 279
f 278 279 276
f 279 187 277
f 54 277 187
f 279 278 280
f 187 279 281
f 280 281 279
f 281 280 188
f 187 281 186
f 188 186 281
f 267 266 282
f 268 267 283
f 282 283 267
f 283 282 284
f 268 283 285
f 284 285 283
f 285 253 268
f 126 268 253
f 285 284 286
f 253 285 287
f 286 287 285
f 287 286 251
f 253 287 250
f 251 250 287
f 259 258 288
f 260 259 289
f 288 289 259
f 289 290 260
f 126 260 290
f 289 288 291
f 290 289 292
f 291 292 289
f 292 291 293
f 290 292 294
f 293 294 292
f 294 295 290
f 126 290 295
f 294 293 296
f 126 295 122
f 295 294 297
f 296 297 294
f 123 122 295
f 295 297 123
f 297 296 298
f 298 123 297
f 123 298 299
f 299 124 123
f 124 299 185
f 300 299 298
f 301 298 296
f 298 301 300
f 296 302 301
f 302 296 293
f 303 185 299
f 299 300 303
f 185 303 304
f 304 119 185
f 293 305 302
f 305 293 291
f 119 304 306
f 306 120 119
f 291 307 305
f 307 291 288
f 120 306 308
f 308 121 120
f 288 309 307
f 309 288 258
f 121 308 310
f 310 128 121
f 258 311 309
f 311 258 256
f 128 310 312
f 312 129 128
f 256 313 311
f 313 256 252
f 129 312 314
f 314 131 129
f 252 315 313
f 315 252 251
f 131 314 316
f 316 133 131
f 251 317 315
f 317 251 286
f 133 316 318
f 318 136 133
f 286 319 317
f 319 286 284
f 136 318 320
f 320 138 136
f 284 321 319
f 321 284 282
f 138 320 322
f 322 140 138
f 282 323 321
f 323 282 266
f 140 322 324
f 324 143 140
f 266 325 323
f 325 266 264
f 143 324 326
f 326 199 143
f 264 327 325
f 327 264 262
f 199 326 328
f 328 202 199
f 262 329 327
f 329 262 237
f 202 328 330
f 330 204 202
f 237 331 329
f 331 237 235
f 204 330 332
f 332 231 204
f 235 333 331
f 333 235 233
f 334 233 231
f 233 334 333
f 231 332 334
f 335 331 333
f 336 333 334
f 333 336 335
f 331 335 337
f 337 329 331
f 330 338 332
f 338 330 328
f 329 337 327
f 328 339 338
f 339 328 326
f 340 325 327
f 326 341 339
f 341 326 324
f 325 340 323
f 342 321 323
f 322 343 324
f 343 322 320
f 321 342 344
f 344 319 321
f 320 345 343
f 345 320 318
f 319 344 346
f 346 317 319
f 318 347 345
f 347 318 316
f 317 346 348
f 348 315 317
f 316 349 347
f 349 316 314
f 315 348 350
f 350 313 315
f 314 351 349
f 351 314 312
f 313 350 352
f 352 311 313
f 312 353 351
f 353 312 310
f 311 352 354
f 354 309 311
f 310 355 353
f 355 310 308
f 309 354 307
f 308 356 355
f 356 308 306
f 357 305 307
f 306 358 356
f 358 306 304
f 305 357 359
f 359 302 305
f 304 360 358
f 360 304 303
f 302 359 361
f 361 301 302
f 303 362 360
f 362 303 300
f 363 300 301
f 300 363 362
f 301 361 363
f 364 360 362
f 365 362 363
f 362 365 364
f 366 363 361
f 363 366 365
f 361 367 366
f 367 361 359
f 360 364 368
f 368 358 360
f 359 369 367
f 369 359 357
f 358 368 370
f 370 356 358
f 357 371 369
f 371 357 307
f 356 370 372
f 372 355 356
f 307 373 371
f 373 307 354
f 355 372 374
f 374 353 355
f 354 375 373
f 375 354 352
f 353 374 376
f 376 351 353
f 352 377 375
f 377 352 350
f 351 376 378
f 378 349 351
f 350 379 377
f 379 350 348
f 349 378 380
f 380 347 349
f 348 381 379
f 381 348 346
f 347 380 382
f 382 345 347
f 346 383 381
f 383 346 344
f 345 382 384
f 384 343 345
f 344 385 383
f 385 344 342
f 343 384 386
f 386 324 343
f 342 387 385
f 387 342 323
f 324 386 388
f 388 341 324
f 323 389 387
f 389 323 340
f 341 388 390
f 390 339 341
f 340 391 389
f 391 340 327
f 339 390 392
f 392 338 339
f 327 393 391
f 393 327 337
f 338 392 394
f 394 332 338
f 337 395 393
f 395 337 335
f 332 394 396
f 396 334 332
f 335 397 395
f 397 335 336
f 398 336 334
f 336 398 397
f 334 396 398
f 399 395 397
f 400 397 398
f 397 400 399
f 401 398 396
f 398 401 400
f 395 399 402
f 402 393 395
f 394 403 396
f 403 394 392
f 393 402 391
f 392 404 403
f 404 392 390
f 405 389 391
f 390 406 404
f 406 390 388
f 389 405 387
f 407 385 387
f 386 408 388
f 408 386 384
f 385 407 409
f 409 383 385
f 384 410 408
f 410 384 382
f 383 409 411
f 411 381 383
f 382 412 410
f 412 382 380
f 381 411 413
f 413 379 381
f 380 414 412
f 414 380 378
f 379 413 415
f 415 377 379
f 378 416 414
f 416 378 376
f 377 415 417
f 417 375 377
f 376 418 416
f 418 376 374
f 375 417 373
f 374 419 418
f 419 374 372
f 420 371 373
f 372 421 419
f 421 372 370
f 371 420 369
f 370 422 421
f 422 370 368
f 423 367 369
f 368 424 422
f 424 368 364
f 367 423 425
f 425 366 367
f 364 426 424
f 426 364 365
f 427 365 366
f 365 427 426
f 366 425 427
f 428 424 426
f 429 426 427
f 426 429 428
f 430 427 425
f 427 430 429
f 425 431 430
f 431 425 423
f 424 428 432
f 432 422 424
f 423 433 431
f 433 423 369
f 422 432 434
f 434 421 422
f 369 435 433
f 435 369 420
f 421 434 436
f 436 419 421
f 420 437 435
f 437 420 373
f 419 436 438
f 438 418 419
f 373 439 437
f 439 373 417
f 418 438 440
f 440 416 418
f 417 441 439
f 441 417 415
f 416 440 442
f 442 414 416
f 415 443 441
f 443 415 413
f 414 442 444
f 444 412 414
f 413 445 443
f 445 413 411
f 412 444 446
f 446 410 412
f 411 447 445
f 447 411 409
f 410 446 448
f 448 408 410
f 409 449 447
f 449 409 407
f 408 448 450
f 450 388 408
f 407 451 449
f 451 407 387
f 388 450 452
f 452 406 388
f 387 453 451
f 453 387 405
f 406 452 454
f 454 404 406
f 405 455 453
f 455 405 391
f 404 454 456
f 456 403 404
f 391 457 455
f 457 391 402
f 403 456 458
f 458 396 403
f 402 459 457
f 459 402 399
f 396 458 460
f 460 401 396
f 399 461 459
f 461 399 400
f 462 400 401
f 400 462 461
f 401 460 462
f 463 459 461
f 464 461 462
f 461 464 463
f 465 462 460
f 462 465 464
f 460 466 465
f 466 460 458
f 459 463 467
f 467 457 459
f 458 468 466
f 468 458 456
f 467 455 457
f 456 469 468
f 469 456 454
f 455 467 453
f 454 470 469
f 470 454 452
f 471 451 453
f 452 472 470
f 472 452 450
f 451 471 473
f 473 449 451
f 450 474 472
f 474 450 448
f 449 473 475
f 475 447 449
f 448 476 474
f 476 448 446
f 447 475 477
f 477 445 447
f 446 478 476
f 478 446 444
f 445 477 479
f 479 443 445
f 444 480 478
f 480 444 442
f 443 479 481
f 481 441 443
f 442 482 480
f 482 442 440
f 441 481 483
f 483 439 441
f 440 484 482
f 484 440 438
f 439 483 485
f 485 437 439
f 438 486 484
f 486 438 436
f 437 485 487
f 487 435 437
f 436 488 486
f 488 436 434
f 435 487 489
f 489 433 435
f 434 490 488
f 490 434 432
f 433 489 491
f 491 431 433
f 432 492 490
f 492 432 428
f 431 491 493
f 493 430 431
f 428 494 492
f 494 428 429
f 495 429 430
f 429 495 494
f 430 493 495
f 496 492 494
f 496 494 495
f 496 495 493
f 493 497 496
f 497 493 491
f 497 498 496
f 491 499 497
f 499 498 497
f 499 491 489
f 499 489 487
f 487 500 499
f 500 498 499
f 500 487 485
f 500 485 483
f 500 483 481
f 481 501 500
f 501 498 500
f 501 481 479
f 501 479 477
f 501 477 475
f 475 502 501
f 502 498 501
f 502 475 473
f 502 473 471
f 471 498 502
f 498 471 453
f 498 453 467
f 467 503 498
f 503 467 463
f 463 504 503
f 504 498 503
f 504 463 464
f 504 464 465
f 504 465 466
f 504 466 468
f 468 505 504
f 505 498 504
f 505 468 469
f 505 469 470
f 505 470 472
f 472 506 505
f 506 498 505
f 506 472 474
f 506 474 476
f 476 507 506
f 507 498 506
f 507 476 478
f 507 478 480
f 507 480 482
f 482 508 507
f 508 498 507
f 508 482 484
f 508 484 486
f 486 509 508
f 509 498 508
f 509 486 488
f 509 488 490
f 496 498 509
f 509 490 492
f 492 496 509
f 249 248 510
f 247 249 511
f 510 511 249
f 511 510 512
f 247 511 513
f 512 513 511
f 513 514 247
f 107 247 514
f 513 512 515
f 514 513 516
f 515 516 513
f 516 515 517
f 107 514 149
f 514 516 518
f 518 149 514
f 517 518 516
f 149 518 150
f 518 517 519
f 519 150 518
f 150 519 520
f 520 151 150
f 151 520 198
f 521 520 519
f 522 519 517
f 519 522 521
f 517 523 522
f 523 517 515
f 524 198 520
f 520 521 524
f 198 524 525
f 525 147 198
f 515 526 523
f 526 515 512
f 147 525 527
f 527 144 147
f 512 528 526
f 528 512 510
f 144 527 529
f 529 148 144
f 510 530 528
f 530 510 248
f 148 529 531
f 531 154 148
f 248 532 530
f 532 248 245
f 154 531 533
f 533 157 154
f 245 534 532
f 534 245 243
f 157 533 535
f 535 159 157
f 243 536 534
f 536 243 242
f 159 535 537
f 537 100 159
f 242 538 536
f 538 242 273
f 100 537 539
f 539 101 100
f 273 540 538
f 540 273 271
f 101 539 541
f 541 104 101
f 271 542 540
f 542 271 269
f 104 541 543
f 543 108 104
f 269 544 542
f 544 269 213
f 108 543 545
f 545 110 108
f 213 546 544
f 546 213 210
f 110 545 547
f 547 169 110
f 210 548 546
f 548 210 208
f 169 547 549
f 549 171 169
f 208 550 548
f 550 208 183
f 171 549 551
f 551 174 171
f 183 552 550
f 552 183 181
f 174 551 553
f 553 176 174
f 181 554 552
f 554 181 179
f 555 179 176
f 179 555 554
f 176 553 555
f 556 552 554
f 557 554 555
f 554 557 556
f 558 555 553
f 555 558 557
f 553 559 558
f 559 553 551
f 552 556 560
f 560 550 552
f 551 561 559
f 561 551 549
f 550 560 562
f 562 548 550
f 549 563 561
f 563 549 547
f 548 562 564
f 564 546 548
f 547 565 563
f 565 547 545
f 546 564 566
f 566 544 546
f 545 567 565
f 567 545 543
f 544 566 568
f 568 542 544
f 543 569 567
f 569 543 541
f 542 568 570
f 570 540 542
f 541 571 569
f 571 541 539
f 540 570 572
f 572 538 540
f 539 573 571
f 573 539 537
f 538 572 574
f 574 536 538
f 537 575 573
f 575 537 535
f 536 574 576
f 576 534 536
f 535 577 575
f 577 535 533
f 534 576 578
f 578 532 534
f 533 579 577
f 579 533 531
f 532 578 580
f 580 530 532
f 531 581 579
f 581 531 529
f 530 580 582
f 582 528 530
f 529 583 581
f 583 529 527
f 528 582 526
f 527 584 583
f 584 527 525
f 525 585 584
f 585 525 524
f 586 521 522
f 521 586 524
f 587 585 524
f 588 524 586
f 524 588 587
f 589 586 522
f 586 589 588
f 522 590 589
f 590 522 523
f 585 587 591
f 591 584 585
f 523 592 590
f 592 523 526
f 584 591 593
f 593 583 584
f 526 594 592
f 594 526 582
f 583 593 595
f 595 581 583
f 582 596 594
f 596 582 580
f 581 595 597
f 597 579 581
f 580 598 596
f 598 580 578
f 579 597 599
f 599 577 579
f 578 600 598
f 600 578 576
f 577 599 601
f 601 575 577
f 576 602 600
f 602 576 574
f 575 601 603
f 603 573 575
f 574 604 602
f 604 574 572
f 573 603 605
f 605 571 573
f 572 606 604
f 606 572 570
f 571 605 607
f 607 569 571
f 570 608 606
f 608 570 568
f 569 607 609
f 609 567 569
f 568 610 608
f 610 568 566
f 567 609 611
f 611 565 567
f 566 612 610
f 612 566 564
f 565 611 613
f 613 563 565
f 564 614 612
f 614 564 562
f 563 613 615
f 615 561 563
f 562 616 614
f 616 562 560
f 561 615 617
f 617 559 561
f 560 618 616
f 618 560 556
f 559 617 619
f 619 558 559
f 556 620 618
f 620 556 557
f 621 557 558
f 557 621 620
f 558 619 621
f 622 620 621
f 620 622 618
f 623 621 619
f 621 623 622
f 624 616 618
f 617 625 619
f 625 617 615
f 616 624 626
f 626 614 616
f 615 627 625
f 627 615 613
f 614 626 628
f 628 612 614
f 613 629 627
f 629 613 611
f 612 628 630
f 630 610 612
f 611 631 629
f 631 611 609
f 610 630 632
f 632 608 610
f 609 633 631
f 633 609 607
f 608 632 634
f 634 606 608
f 607 635 633
f 635 607 605
f 606 634 636
f 636 604 606
f 605 637 635
f 637 605 603
f 604 636 638
f 638 602 604
f 603 639 637
f 639 603 601
f 602 638 640
f 640 600 602
f 601 641 639
f 641 601 599
f 600 640 642
f 642 598 600
f 599 643 641
f 643 599 597
f 598 642 644
f 644 596 598
f 597 645 643
f 645 597 595
f 596 644 646
f 646 594 596
f 595 647 645
f 647 595 593
f 594 646 648
f 648 592 594
f 593 649 647
f 649 593 591
f 592 648 650
f 650 590 592
f 590 650 651
f 651 589 590
f 587 652 591
f 652 587 588
f 653 588 589
f 588 653 652
f 589 651 653
f 654 591 652
f 655 652 653
f 652 655 654
f 656 653 651
f 653 656 655
f 651 657 656
f 657 651 650
f 591 654 658
f 658 649 591
f 650 659 657
f 659 650 648
f 649 658 660
f 660 647 649
f 648 661 659
f 661 648 646
f 647 660 662
f 662 645 647
f 646 663 661
f 663 646 644
f 645 662 664
f 664 643 645
f 644 665 663
f 665 644 642
f 643 664 666
f 666 641 643
f 642 667 665
f 667 642 640
f 641 666 668
f 668 639 641
f 640 669 667
f 669 640 638
f 639 668 670
f 670 637 639
f 638 671 669
f 671 638 636
f 637 670 672
f 672 635 637
f 636 673 671
f 673 636 634
f 635 672 674
f 674 633 635
f 634 675 673
f 675 634 632
f 633 674 676
f 676 631 633
f 632 677 675
f 677 632 630
f 631 676 678
f 678 629 631
f 630 679 677
f 679 630 628
f 629 678 680
f 680 627 629
f 628 681 679
f 681 628 626
f 627 680 682
f 682 625 627
f 626 683 681
f 683 626 624
f 625 682 684
f 684 619 625
f 624 685 683
f 685 624 618
f 619 684 686
f 686 623 619
f 618 687 685
f 687 618 622
f 688 622 623
f 622 688 687
f 623 686 688
f 689 685 687
f 690 687 688
f 687 690 689
f 691 688 686
f 688 691 690
f 686 692 691
f 692 686 684
f 685 689 693
f 693 683 685
f 684 694 692
f 694 684 682
f 683 693 695
f 695 681 683
f 682 696 694
f 696 682 680
f 681 695 697
f 697 679 681
f 680 698 696
f 698 680 678
f 679 697 699
f 699 677 679
f 678 700 698
f 700 678 676
f 677 699 701
f 701 675 677
f 676 702 700
f 702 676 674
f 675 701 703
f 703 673 675
f 674 704 702
f 704 674 672
f 673 703 705
f 705 671 673
f 672 706 704
f 706 672 670
f 671 705 707
f 707 669 671
f 670 708 706
f 708 670 668
f 669 707 709
f 709 667 669
f 668 710 708
f 710 668 666
f 667 709 711
f 711 665 667
f 666 712 710
f 712 666 664
f 665 711 713
f 713 663 665
f 664 714 712
f 714 664 662
f 663 713 715
f 715 661 663
f 662 716 714
f 716 662 660
f 661 715 717
f 717 659 661
f 660 718 716
f 718 660 658
f 659 717 719
f 719 657 659
f 658 720 718
f 720 658 654
f 657 719 721
f 721 656 657
f 654 722 720
f 722 654 655
f 723 655 656
f 655 723 722
f 656 721 723
f 724 720 722
f 724 722 723
f 725 723 721
f 723 725 724
f 725 721 719
f 725 726 724
f 719 727 725
f 727 726 725
f 727 719 717
f 727 717 715
f 715 728 727
f 728 726 727
f 728 715 713
f 728 713 711
f 711 729 728
f 729 726 728
f 729 711 709
f 729 709 707
f 729 707 705
f 705 730 729
f 730 726 729
f 730 705 703
f 730 703 701
f 730 701 699
f 699 731 730
f 731 726 730
f 731 699 697
f 731 697 695
f 731 695 693
f 693 732 731
f 732 726 731
f 732 693 689
f 732 689 690
f 690 733 732
f 733 726 732
f 733 690 691
f 733 691 692
f 692 734 733
f 734 726 733
f 734 692 694
f 734 694 696
f 696 735 734
f 735 726 734
f 735 696 698
f 735 698 700
f 700 736 735
f 736 726 735
f 736 700 702
f 736 702 704
f 704 726 736
f 726 704 706
f 726 706 708
f 726 708 710
f 726 710 712
f 712 737 726
f 737 712 714
f 737 714 716
f 737 716 718
f 724 726 737
f 718 724 737
f 724 718 720
f 196 195 738
f 54 196 739
f 738 739 196
f 739 740 54
f 739 738 741
f 740 739 742
f 741 742 739
f 742 741 743
f 740 742 744
f 743 744 742
f 744 745 740
f 54 740 745
f 744 743 746
f 54 745 747
f 54 747 85
f 745 744 746
f 746 747 745
f 747 746 85
f 748 85 746
f 85 748 749
f 749 84 85
f 84 749 87
f 750 749 748
f 751 748 746
f 748 751 750
f 746 752 751
f 752 746 743
f 753 87 749
f 749 750 753
f 87 753 754
f 754 86 87
f 743 755 752
f 755 743 741
f 86 754 756
f 756 48 86
f 741 757 755
f 757 741 738
f 48 756 758
f 758 50 48
f 738 759 757
f 759 738 195
f 50 758 760
f 760 51 50
f 195 761 759
f 761 195 192
f 51 760 762
f 762 55 51
f 192 763 761
f 763 192 189
f 55 762 764
f 764 58 55
f 189 765 763
f 765 189 188
f 58 764 766
f 766 60 58
f 188 767 765
f 767 188 280
f 60 766 768
f 768 72 60
f 280 769 767
f 769 280 278
f 72 768 770
f 770 73 72
f 278 771 769
f 771 278 275
f 73 770 772
f 772 76 73
f 275 773 771
f 773 275 229
f 76 772 774
f 774 78 76
f 229 775 773
f 775 229 228
f 78 774 776
f 776 162 78
f 228 777 775
f 777 228 225
f 162 776 778
f 778 164 162
f 225 779 777
f 779 225 223
f 164 778 780
f 780 166 164
f 223 781 779
f 781 223 221
f 166 780 782
f 782 215 166
f 221 783 781
f 783 221 218
f 784 218 215
f 218 784 783
f 215 782 784
f 785 781 783
f 782 786 784
f 786 782 780
f 781 785 787
f 787 779 781
f 780 788 786
f 788 780 778
f 779 787 789
f 789 777 779
f 777 789 790
f 790 775 777
f 776 791 778
f 791 776 774
f 775 790 773
f 774 792 791
f 792 774 772
f 793 771 773
f 772 794 792
f 794 772 770
f 771 793 795
f 795 769 771
f 770 796 794
f 796 770 768
f 769 795 797
f 797 767 769
f 768 798 796
f 798 768 766
f 767 797 799
f 799 765 767
f 766 800 798
f 800 766 764
f 765 799 801
f 801 763 765
f 764 802 800
f 802 764 762
f 763 801 803
f 803 761 763
f 762 804 802
f 804 762 760
f 761 803 805
f 805 759 761
f 759 805 806
f 806 757 759
f 758 807 760
f 807 758 756
f 757 806 808
f 808 755 757
f 756 809 807
f 809 756 754
f 755 808 752
f 754 810 809
f 810 754 753
f 811 751 752
f 812 750 751
f 750 812 753
f 751 811 812
f 813 810 753
f 814 753 812
f 753 814 813
f 815 812 811
f 812 815 814
f 811 816 815
f 816 811 752
f 810 813 817
f 817 809 810
f 752 818 816
f 818 752 808
f 809 817 819
f 819 807 809
f 808 820 818
f 820 808 806
f 807 819 821
f 821 760 807
f 806 822 820
f 822 806 805
f 760 821 823
f 823 804 760
f 805 824 822
f 824 805 803
f 804 823 825
f 825 802 804
f 803 826 824
f 826 803 801
f 802 825 827
f 827 800 802
f 801 828 826
f 828 801 799
f 800 827 829
f 829 798 800
f 799 830 828
f 830 799 797
f 798 829 831
f 831 796 798
f 797 832 830
f 832 797 795
f 796 831 833
f 833 794 796
f 795 834 832
f 834 795 793
f 794 833 835
f 835 792 794
f 793 836 834
f 836 793 773
f 792 835 837
f 837 791 792
f 773 838 836
f 838 773 790
f 791 837 839
f 839 778 791
f 790 840 838
f 840 790 789
f 778 839 841
f 841 788 778
f 789 842 840
f 842 789 787
f 788 841 843
f 843 786 788
f 787 844 842
f 844 787 785
f 786 843 845
f 845 784 786
f 785 846 844
f 846 785 783
f 847 783 784
f 783 847 846
f 784 845 847
f 848 844 846
f 849 846 847
f 846 849 848
f 850 847 845
f 847 850 849
f 845 851 850
f 851 845 843
f 844 848 852
f 852 842 844
f 843 853 851
f 853 843 841
f 842 852 854
f 854 840 842
f 841 855 853
f 855 841 839
f 840 854 856
f 856 838 840
f 838 856 836
f 837 857 839
f 857 837 835
f 858 834 836
f 835 859 857
f 859 835 833
f 834 858 860
f 860 832 834
f 832 860 861
f 861 830 832
f 831 862 833
f 862 831 829
f 830 861 863
f 863 828 830
f 828 863 864
f 864 826 828
f 827 865 829
f 865 827 825
f 826 864 866
f 866 824 826
f 824 866 822
f 823 867 825
f 867 823 821
f 868 820 822
f 821 869 867
f 869 821 819
f 820 868 870
f 870 818 820
f 819 871 869
f 871 819 817
f 818 870 872
f 872 816 818
f 817 873 871
f 873 817 813
f 816 872 874
f 874 815 816
f 813 875 873
f 875 813 814
f 815 874 814
f 876 873 875
f 877 875 814
f 875 877 876
f 878 814 874
f 814 878 877
f 874 879 878
f 879 874 872
f 873 876 880
f 880 871 873
f 872 881 879
f 881 872 870
f 871 880 882
f 882 869 871
f 870 883 881
f 883 870 868
f 869 882 884
f 884 867 869
f 868 885 883
f 885 868 822
f 867 884 886
f 886 825 867
f 822 887 885
f 887 822 866
f 825 886 888
f 888 865 825
f 866 889 887
f 889 866 864
f 865 888 890
f 890 829 865
f 864 891 889
f 891 864 863
f 829 890 892
f 892 862 829
f 863 893 891
f 893 863 861
f 862 892 894
f 894 833 862
f 861 895 893
f 895 861 860
f 833 894 896
f 896 859 833
f 860 897 895
f 897 860 858
f 859 896 898
f 898 857 859
f 858 899 897
f 899 858 836
f 857 898 900
f 900 839 857
f 836 901 899
f 901 836 856
f 839 900 902
f 902 855 839
f 855 902 903
f 903 853 855
f 854 904 856
f 904 854 852
f 853 903 905
f 905 851 853
f 852 906 904
f 906 852 848
f 851 905 907
f 907 850 851
f 848 908 906
f 908 848 849
f 909 849 850
f 849 909 908
f 850 907 909
f 910 906 908
f 911 908 909
f 908 911 910
f 912 909 907
f 909 912 911
f 907 913 912
f 913 907 905
f 906 910 914
f 914 904 906
f 905 915 913
f 915 905 903
f 904 914 916
f 916 856 904
f 903 917 915
f 917 903 902
f 856 916 918
f 918 901 856
f 902 919 917
f 919 902 900
f 901 918 920
f 920 899 901
f 900 921 919
f 921 900 898
f 899 920 922
f 922 897 899
f 898 923 921
f 923 898 896
f 922 895 897
f 896 924 923
f 924 896 894
f 895 922 925
f 925 893 895
f 894 926 924
f 926 894 892
f 893 925 927
f 927 891 893
f 892 928 926
f 928 892 890
f 891 927 929
f 929 889 891
f 890 930 928
f 930 890 888
f 889 929 931
f 931 887 889
f 888 932 930
f 932 888 886
f 887 931 933
f 933 885 887
f 885 933 934
f 934 883 885
f 884 935 886
f 935 884 882
f 883 934 936
f 936 881 883
f 882 937 935
f 937 882 880
f 881 936 938
f 938 879 881
f 880 939 937
f 939 880 876
f 879 938 940
f 940 878 879
f 876 941 939
f 941 876 877
f 942 877 878
f 877 942 941
f 878 940 942
f 943 939 941
f 943 941 942
f 944 942 940
f 942 944 943
f 944 940 938
f 944 945 943
f 938 945 944
f 945 938 936
f 945 936 934
f 945 934 933
f 945 933 931
f 931 946 945
f 946 931 929
f 946 929 927
f 927 947 946
f 947 945 946
f 947 927 925
f 925 948 947
f 948 945 947
f 948 925 922
f 948 922 920
f 920 949 948
f 949 945 948
f 949 920 918
f 949 918 916
f 949 916 914
f 914 950 949
f 950 945 949
f 950 914 910
f 950 910 911
f 911 951 950
f 951 945 950
f 951 911 912
f 951 912 913
f 951 913 915
f 915 952 951
f 952 945 951
f 952 915 917
f 952 917 919
f 919 953 952
f 953 945 952
f 953 919 921
f 953 921 923
f 923 954 953
f 954 945 953
f 954 923 924
f 954 924 926
f 954 926 928
f 954 928 930
f 930 955 954
f 955 945 954
f 955 930 932
f 955 932 886
f 886 956 955
f 956 945 955
f 956 886 935
f 956 935 937
f 943 945 956
f 937 943 956
f 943 937 939
f 98 97 957
f 96 98 958
f 957 958 98
f 958 957 959
f 96 958 960
f 959 960 958
f 960 961 96
f 7 96 961
f 960 959 962
f 961 960 963
f 962 963 960
f 963 962 964
f 7 961 26
f 961 963 965
f 965 26 961
f 964 965 963
f 26 965 27
f 965 964 966
f 966 27 965
f 27 966 967
f 967 28 27
f 28 967 64
f 968 967 966
f 969 966 964
f 966 969 968
f 964 970 969
f 970 964 962
f 971 64 967
f 967 968 971
f 64 971 972
f 972 24 64
f 962 973 970
f 973 962 959
f 24 972 974
f 974 21 24
f 959 975 973
f 975 959 957
f 21 974 976
f 976 25 21
f 957 977 975
f 977 957 97
f 25 976 978
f 978 32 25
f 97 979 977
f 979 97 94
f 32 978 980
f 980 34 32
f 94 981 979
f 981 94 92
f 34 980 982
f 982 36 34
f 92 983 981
f 983 92 91
f 36 982 984
f 984 2 36
f 91 985 983
f 985 91 116
f 2 984 986
f 986 3 2
f 116 987 985
f 987 116 114
f 3 986 988
f 988 8 3
f 114 989 987
f 989 114 112
f 8 988 990
f 990 10 8
f 112 991 989
f 991 112 70
f 10 990 992
f 992 13 10
f 70 993 991
f 993 70 67
f 13 992 994
f 994 15 13
f 67 995 993
f 995 67 65
f 15 994 996
f 996 17 15
f 65 997 995
f 997 65 45
f 17 996 998
f 998 19 17
f 45 999 997
f 999 45 42
f 19 998 1000
f 1000 38 19
f 42 1001 999
f 1001 42 40
f 1002 40 38
f 40 1002 1001
f 38 1000 1002
f 1003 999 1001
f 1004 1001 1002
f 1001 1004 1003
f 1005 1002 1000
f 1002 1005 1004
f 1000 1006 1005
f 1006 1000 998
f 999 1003 1007
f 1007 997 999
f 998 1008 1006
f 1008 998 996
f 997 1007 1009
f 1009 995 997
f 996 1010 1008
f 1010 996 994
f 995 1009 1011
f 1011 993 995
f 994 1012 1010
f 1012 994 992
f 993 1011 1013
f 1013 991 993
f 992 1014 1012
f 1014 992 990
f 991 1013 1015
f 1015 989 991
f 990 1016 1014
f 1016 990 988
f 989 1015 1017
f 1017 987 989
f 988 1018 1016
f 1018 988 986
f 987 1017 1019
f 1019 985 987
f 986 1020 1018
f 1020 986 984
f 985 1019 1021
f 1021 983 985
f 984 1022 1020
f 1022 984 982
f 983 1021 1023
f 1023 981 983
f 982 1024 1022
f 1024 982 980
f 981 1023 1025
f 1025 979 981
f 980 1026 1024
f 1026 980 978
f 979 1025 1027
f 1027 977 979
f 978 1028 1026
f 1028 978 976
f 977 1027 1029
f 1029 975 977
f 976 1030 1028
f 1030 976 974
f 975 1029 1031
f 1031 973 975
f 974 1032 1030
f 1032 974 972
f 973 1031 1033
f 1033 970 973
f 972 1034 1032
f 1034 972 971
f 970 1033 1035
f 1035 969 970
f 971 1036 1034
f 1036 971 968
f 1037 968 969
f 968 1037 1036
f 969 1035 1037
f 1038 1034 1036
f 1039 1036 1037
f 1036 1039 1038
f 1040 1037 1035
f 1037 1040 1039
f 1035 1041 1040
f 1041 1035 1033
f 1034 1038 1042
f 1042 1032 1034
f 1033 1043 1041
f 1043 1033 1031
f 1032 1042 1044
f 1044 1030 1032
f 1031 1045 1043
f 1045 1031 1029
f 1030 1044 1046
f 1046 1028 1030
f 1029 1047 1045
f 1047 1029 1027
f 1028 1046 1048
f 1048 1026 1028
f 1027 1049 1047
f 1049 1027 1025
f 1026 1048 1050
f 1050 1024 1026
f 1025 1051 1049
f 1051 1025 1023
f 1024 1050 1052
f 1052 1022 1024
f 1023 1053 1051
f 1053 1023 1021
f 1022 1052 1054
f 1054 1020 1022
f 1021 1055 1053
f 1055 1021 1019
f 1020 1054 1056
f 1056 1018 1020
f 1019 1057 1055
f 1057 1019 1017
f 1018 1056 1058
f 1058 1016 1018
f 1017 1059 1057
f 1059 1017 1015
f 1016 1058 1060
f 1060 1014 1016
f 1015 1061 1059
f 1061 1015 1013
f 1014 1060 1062
f 1062 1012 1014
f 1013 1063 1061
f 1063 1013 1011
f 1012 1062 1064
f 1064 1010 1012
f 1011 1065 1063
f 1065 1011 1009
f 1010 1064 1066
f 1066 1008 1010
f 1009 1067 1065
f 1067 1009 1007
f 1008 1066 1068
f 1068 1006 1008
f 1007 1069 1067
f 1069 1007 1003
f 1006 1068 1070
f 1070 1005 1006
f 1003 1071 1069
f 1071 1003 1004
f 1072 1004 1005
f 1004 1072 1071
f 1005 1070 1072
f 1073 1069 1071
f 1074 1071 1072
f 1071 1074 1073
f 1075 1072 1070
f 1072 1075 1074
f 1070 1076 1075
f 1076 1070 1068
f 1069 1073 1077
f 1077 1067 1069
f 1068 1078 1076
f 1078 1068 1066
f 1067 1077 1079
f 1079 1065 1067
f 1066 1080 1078
f 1080 1066 1064
f 1065 1079 1081
f 1081 1063 1065
f 1064 1082 1080
f 1082 1064 1062
f 1063 1081 1083
f 1083 1061 1063
f 1062 1084 1082
f 1084 1062 1060
f 1061 1083 1085
f 1085 1059 1061
f 1060 1086 1084
f 1086 1060 1058
f 1059 1085 1087
f 1087 1057 1059
f 1058 1088 1086
f 1088 1058 1056
f 1057 1087 1089
f 1089 1055 1057
f 1056 1090 1088
f 1090 1056 1054
f 1055 1089 1091
f 1091 1053 1055
f 1054 1092 1090
f 1092 1054 1052
f 1053 1091 1093
f 1093 1051 1053
f 1052 1094 1092
f 1094 1052 1050
f 1051 1093 1095
f 1095 1049 1051
f 1050 1096 1094
f 1096 1050 1048
f 1049 1095 1097
f 1097 1047 1049
f 1048 1098 1096
f 1098 1048 1046
f 1047 1097 1099
f 1099 1045 1047
f 1046 1100 1098
f 1100 1046 1044
f 1045 1099 1101
f 1101 1043 1045
f 1044 1102 1100
f 1102 1044 1042
f 1043 1101 1103
f 1103 1041 1043
f 1042 1104 1102
f 1104 1042 1038
f 1041 1103 1105
f 1105 1040 1041
f 1038 1106 1104
f 1106 1038 1039
f 1107 1039 1040
f 1039 1107 1106
f 1040 1105 1107
f 1108 1104 1106
f 1109 1106 1107
f 1106 1109 1108
f 1110 1107 1105
f 1107 1110 1109
f 1105 1111 1110
f 1111 1105 1103
f 1104 1108 1112
f 1112 1102 1104
f 1103 1113 1111
f 1113 1103 1101
f 1102 1112 1114
f 1114 1100 1102
f 1101 1115 1113
f 1115 1101 1099
f 1100 1114 1116
f 1116 1098 1100
f 1099 1117 1115
f 1117 1099 1097
f 1098 1116 1118
f 1118 1096 1098
f 1097 1119 1117
f 1119 1097 1095
f 1096 1118 1120
f 1120 1094 1096
f 1095 1121 1119
f 1121 1095 1093
f 1094 1120 1122
f 1122 1092 1094
f 1093 1123 1121
f 1123 1093 1091
f 1092 1122 1124
f 1124 1090 1092
f 1091 1125 1123
f 1125 1091 1089
f 1090 1124 1126
f 1126 1088 1090
f 1089 1127 1125
f 1127 1089 1087
f 1088 1126 1128
f 1128 1086 1088
f 1087 1129 1127
f 1129 1087 1085
f 1086 1128 1130
f 1130 1084 1086
f 1085 1131 1129
f 1131 1085 1083
f 1084 1130 1132
f 1132 1082 1084
f 1083 1133 1131
f 1133 1083 1081
f 1082 1132 1134
f 1134 1080 1082
f 1081 1135 1133
f 1135 1081 1079
f 1080 1134 1136
f 1136 1078 1080
f 1079 1137 1135
f 1137 1079 1077
f 1078 1136 1138
f 1138 1076 1078
f 1077 1139 1137
f 1139 1077 1073
f 1076 1138 1140
f 1140 1075 1076
f 1073 1141 1139
f 1141 1073 1074
f 1142 1074 1075
f 1074 1142 1141
f 1075 1140 1142
f 1143 1139 1141
f 1144 1141 1142
f 1141 1144 1143
f 1145 1142 1140
f 1142 1145 1144
f 1140 1146 1145
f 1146 1140 1138
f 1139 1143 1147
f 1147 1137 1139
f 1138 1148 1146
f 1148 1138 1136
f 1137 1147 1149
f 1149 1135 1137
f 1136 1150 1148
f 1150 1136 1134
f 1135 1149 1151
f 1151 1133 1135
f 1134 1152 1150
f 1152 1134 1132
f 1133 1151 1153
f 1153 1131 1133
f 1132 1154 1152
f 1154 1132 1130
f 1131 1153 1155
f 1155 1129 1131
f 1130 1156 1154
f 1156 1130 1128
f 1129 1155 1157
f 1157 1127 1129
f 1128 1158 1156
f 1158 1128 1126
f 1127 1157 1159
f 1159 1125 1127
f 1126 1160 1158
f 1160 1126 1124
f 1125 1159 1161
f 1161 1123 1125
f 1124 1162 1160
f 1162 1124 1122
f 1123 1161 1163
f 1163 1121 1123
f 1122 1164 1162
f 1164 1122 1120
f 1121 1163 1165
f 1165 1119 1121
f 1120 1166 1164
f 1166 1120 1118
f 1119 1165 1167
f 1167 1117 1119
f 1118 1168 1166
f 1168 1118 1116
f 1117 1167 1169
f 1169 1115 1117
f 1116 1170 1168
f 1170 1116 1114
f 1115 1169 1171
f 1171 1113 1115
f 1114 1172 1170
f 1172 1114 1112
f 1113 1171 1173
f 1173 1111 1113
f 1112 1174 1172
f 1174 1112 1108
f 1111 1173 1175
f 1175 1110 1111
f 1108 1176 1174
f 1176 1108 1109
f 1177 1109 1110
f 1109 1177 1176
f 1110 1175 1177
f 1178 1174 1176
f 1179 1176 1177
f 1176 1179 1178
f 1179 1177 1175
f 1175 1180 1179
f 1180 1175 1173
f 1180 1181 1179
f 1179 1181 1178
f 1180 1173 1171
f 1171 1182 1180
f 1182 1181 1180
f 1182 1171 1169
f 1182 1169 1167
f 1182 1167 1165
f 1165 1183 1182
f 1183 1181 1182
f 1183 1165 1163
f 1183 1163 1161
f 1161 1184 1183
f 1184 1181 1183
f 1184 1161 1159
f 1184 1159 1157
f 1157 1181 1184
f 1181 1157 1155
f 1181 1155 1153
f 1181 1153 1151
f 1181 1151 1149
f 1149 1185 1181
f 1185 1149 1147
f 1185 1147 1143
f 1143 1186 1185
f 1186 1181 1185
f 1186 1143 1144
f 1186 1144 1145
f 1145 1187 1186
f 1187 1181 1186
f 1187 1145 1146
f 1187 1146 1148
f 1148 1188 1187
f 1188 1181 1187
f 1188 1148 1150
f 1188 1150 1152
f 1188 1152 1154
f 1154 1189 1188
f 1189 1181 1188
f 1189 1154 1156
f 1189 1156 1158
f 1189 1158 1160
f 1160 1190 1189
f 1190 1181 1189
f 1190 1160 1162
f 1190 1162 1164
f 1164 1191 1190
f 1191 1181 1190
f 1191 1164 1166
f 1191 1166 1168
f 1191 1168 1170
f 1170 1178 1191
f 1178 1181 1191
f 1178 1170 1172
f 1178 1172 1174
