v -0.0486917421 0.0336335748 0.146730661
v -0.0536780506 0.0355375893 0.146730646
v -0.0585875586 0.00943820737 0.146730676
v -0.0355568752 0.0549890175 0.146730646
v -0.0532692 0.00943261385 0.146730676
v -0.0395416804 0.0584889948 0.146730646
v -0.0536780506 -0.0166611802 0.146730676
v -0.0152550731 0.0707658827 0.146730646
v -0.0486909933 -0.014761257 0.146730646
v -0.0178835113 0.0755241662 0.146730661
v -0.0395416804 -0.0396125913 0.146730676
v 0.00959778577 0.0791948363 0.146730646
v -0.03559459 -0.0360518433 0.146730676
v 0.00868416671 0.0845883787 0.146730646
v -0.0178834908 -0.0566477366 0.146730661
v 0.0360475965 0.0791933462 0.146730646
v -0.0152570028 -0.0518878996 0.146730646
v 0.0369569175 0.0845883712 0.146730632
v 0.0086841872 -0.0657119527 0.146730676
v 0.0608981177 0.0707643256 0.146730632
v 0.00959351007 -0.0603168868 0.146730676
v 0.0635246038 0.0755241588 0.146730646
v 0.0369569398 -0.0657119527 0.146730661
v 0.0810783654 0.0548833609 0.146730632
v 0.0360433199 -0.060318388 0.146730676
v 0.0851827785 0.0584889948 0.146730646
v 0.0635246187 -0.0566477366 0.146730676
v 0.0943320766 0.0336376652 0.146730646
v 0.060896188 -0.0518894233 0.146730661
v 0.0993191451 0.0355375931 0.146730646
v 0.0851827934 -0.0396125503 0.146730676
v 0.0989102945 0.00943260361 0.146730632
v 0.081197992 -0.0361125804 0.146730646
v 0.104228668 0.00943819713 0.146730661
v 0.09931916 -0.0166611373 0.146730661
v 0.0943328589 -0.0147571033 0.146730661
v -0.0294256099 -0.00990643725 1.93239725e-14
v -0.0197709259 -0.026917832 1.93201947e-14
v -0.0395416804 -0.0396125913 0.146730676
v -0.0178834908 -0.0566477366 0.146730661
v -0.0536780506 -0.0166611802 0.146730676
v -0.00497904792 -0.0395441316 5.39234897e-08
v -0.0327786766 0.00943818688 5.39234897e-08
v 0.0086841872 -0.0657119527 0.146730676
v -0.0585875586 0.00943820737 0.146730676
v 0.0131658735 -0.0462624542 2.69617537e-08
v -0.0294256099 0.0287828315 1.93325631e-14
v 0.0369569398 -0.0657119527 0.146730661
v -0.0536780506 0.0355375893 0.146730646
v 0.0324752741 -0.0462624542 1.93158986e-14
v -0.0197709259 0.0457942188 2.69617537e-08
v 0.0635246187 -0.0566477366 0.146730676
v -0.0395416804 0.0584889948 0.146730646
v 0.0506201759 -0.0395441316 1.9317391e-14
v -0.00497906888 0.0584205464 1.93391428e-14
v 0.0851827934 -0.0396125503 0.146730676
v -0.0178835113 0.0755241662 0.146730661
v 0.013165853 0.0651388466 1.93406353e-14
v 0.00868416671 0.0845883787 0.146730646
v 0.0654120222 -0.0269178115 1.93201947e-14
v 0.09931916 -0.0166611373 0.146730661
v 0.0750667155 -0.00990641583 2.69617537e-08
v 0.104228668 0.00943819713 0.146730661
v 0.0784197599 0.00943818688 1.93282669e-14
v 0.0993191451 0.0355375931 0.146730646
v 0.0750667155 0.0287828315 2.69617537e-08
v 0.0851827785 0.0584889948 0.146730646
v 0.0654120222 0.0457942262 2.69617537e-08
v 0.0635246038 0.0755241588 0.146730646
v 0.0506201535 0.0584205277 1.93391428e-14
v 0.0369569175 0.0845883712 0.146730632
v 0.0324752443 0.0651388615 1.93406353e-14
v 0.00868416671 0.0845883787 0.146730646
v 0.013165853 0.0651388466 1.93406353e-14
v -0.03559459 -0.0360518433 0.146730676
v -0.0175777394 -0.0246177036 0.0116290813
v -0.0267353151 -0.00868255179 0.0116290813
v -0.0152570028 -0.0518878996 0.146730646
v -0.0486909933 -0.014761257 0.146730646
v -0.00354756205 -0.0364451818 0.0116290813
v -0.0299157035 0.00943820737 0.0116290813
v 0.00959351007 -0.0603168868 0.146730676
v -0.0532692 0.00943261385 0.146730676
v 0.0136630042 -0.0427384637 0.0116290813
v -0.0267353151 0.027558947 0.0116290543
v 0.0360433199 -0.060318388 0.146730676
v -0.0486917421 0.0336335748 0.146730661
v 0.0319781117 -0.0427384637 0.0116290543
v -0.0355568752 0.0549890175 0.146730646
v 0.0491886884 -0.0364451632 0.0116290543
v -0.0175777599 0.0434940942 0.0116290543
v 0.060896188 -0.0518894233 0.146730661
v -0.0152550731 0.0707658827 0.146730646
v 0.0632188767 -0.0246176831 0.0116290543
v -0.00354758278 0.0553215779 0.0116290813
v 0.00959778577 0.0791948363 0.146730646
v 0.0136630042 0.0616148598 0.0116290813
v 0.081197992 -0.0361125804 0.146730646
v 0.0723764226 -0.0086825313 0.0116290543
v 0.0943328589 -0.0147571033 0.146730661
v 0.0989102945 0.00943260361 0.146730632
v 0.0755567998 0.00943818688 0.0116290543
v 0.0943320766 0.0336376652 0.146730646
v 0.0723764077 0.0275589675 0.0116290543
v 0.0810783654 0.0548833609 0.146730632
v 0.0632188544 0.0434940867 0.0116290543
v 0.0608981177 0.0707643256 0.146730632
v 0.0491886772 0.0553215891 0.0116290543
v 0.0360475965 0.0791933462 0.146730646
v 0.0319781005 0.0616148487 0.0116290543
v 0.00959778577 0.0791948363 0.146730646
v 0.0136630042 0.0616148598 0.0116290813
v 0.0632188544 0.0434940867 0.0116290543
v 0.0491886772 0.0553215891 0.0116290543
v 0.0319781005 0.0616148487 0.0116290543
v 0.0136630042 0.0616148598 0.0116290813
v -0.00354758278 0.0553215779 0.0116290813
v -0.0175777599 0.0434940942 0.0116290543
v -0.0267353151 0.027558947 0.0116290543
v -0.0267353151 -0.00868255179 0.0116290813
v -0.0299157035 0.00943820737 0.0116290813
v 0.0755567998 0.00943818688 0.0116290543
v 0.0723764077 0.0275589675 0.0116290543
v 0.0319781117 -0.0427384637 0.0116290543
v 0.0632188767 -0.0246176831 0.0116290543
v 0.0723764226 -0.0086825313 0.0116290543
v 0.0491886884 -0.0364451632 0.0116290543
v -0.00354756205 -0.0364451818 0.0116290813
v 0.0136630042 -0.0427384637 0.0116290813
v -0.0175777394 -0.0246177036 0.0116290813
f 1 2 3
f 2 1 4
f 5 1 3
f 6 2 4
f 5 3 7
f 6 4 8
f 9 5 7
f 10 6 8
f 9 7 11
f 10 8 12
f 13 9 11
f 14 10 12
f 13 11 15
f 14 12 16
f 17 13 15
f 18 14 16
f 17 15 19
f 18 16 20
f 17 19 21
f 22 18 20
f 19 23 21
f 22 20 24
f 23 25 21
f 26 22 24
f 23 27 25
f 26 24 28
f 27 29 25
f 30 26 28
f 27 31 29
f 30 28 32
f 31 33 29
f 34 30 32
f 31 35 33
f 35 34 32
f 35 36 33
f 35 32 36
f 37 38 39
f 40 39 38
f 39 41 37
f 38 42 40
f 43 37 41
f 44 40 42
f 41 45 43
f 42 46 44
f 47 43 45
f 48 44 46
f 45 49 47
f 46 50 48
f 51 47 49
f 52 48 50
f 49 53 51
f 50 54 52
f 55 51 53
f 56 52 54
f 53 57 55
f 58 55 57
f 57 59 58
f 54 60 56
f 61 56 60
f 60 62 61
f 63 61 62
f 62 64 63
f 65 63 64
f 64 66 65
f 67 65 66
f 66 68 67
f 69 67 68
f 68 70 69
f 71 69 70
f 70 72 71
f 73 71 72
f 72 74 73
f 75 76 77
f 76 75 78
f 77 79 75
f 78 80 76
f 79 77 81
f 80 78 82
f 81 83 79
f 82 84 80
f 83 81 85
f 84 82 86
f 85 87 83
f 86 88 84
f 89 87 85
f 90 88 86
f 85 91 89
f 86 92 90
f 93 89 91
f 94 90 92
f 91 95 93
f 96 93 95
f 95 97 96
f 92 98 94
f 99 94 98
f 98 100 99
f 99 100 101
f 101 102 99
f 102 101 103
f 103 104 102
f 104 103 105
f 105 106 104
f 106 105 107
f 107 108 106
f 108 107 109
f 109 110 108
f 110 109 111
f 111 112 110
f 113 114 115
f 115 116 117
f 113 115 117
f 117 118 119
f 117 119 120
f 113 117 120
f 119 121 120
f 113 122 123
f 113 124 122
f 113 120 124
f 124 125 122
f 125 126 122
f 124 127 125
f 120 128 124
f 128 129 124
f 120 130 128
