v -0.190000102 -0.161375061 -3.58324616e-17
v -0.189999849 0.037173029 8.25407055e-18
v 0.189999849 -0.0430452041 -9.55795535e-18
v 2.33694607e-07 0.184127614 4.08845433e-17
v -0.189999714 0.155503362 3.45286827e-17
v 0.190000087 0.1555029 3.45285801e-17
v -0.187993646 0.168085456 3.73224686e-17
v -0.189478397 0.162062228 3.59850433e-17
v -0.182609588 0.177834883 3.94872764e-17
v -0.1856644 0.173400521 3.85026502e-17
v -0.178948 0.181215942 4.02380222e-17
v -0.174798518 0.183371112 4.07165661e-17
v -0.170280084 0.184127823 4.08845896e-17
v 0.187994063 0.168084979 3.73223628e-17
v 0.189478785 0.162061766 3.59849408e-17
v 0.18261002 0.177834451 3.94871805e-17
v 0.185664833 0.173400089 3.85025543e-17
v 0.174798951 0.18337068 4.07164701e-17
v 0.178948432 0.18121551 4.02379263e-17
v 0.170280516 0.184127405 4.0884497e-17
v -0.174798951 -0.18924284 -4.20203516e-17
v -0.178948388 -0.187087625 -4.15417978e-17
v -0.18260999 -0.183706596 -4.07910586e-17
v -0.185664833 -0.179272249 -3.98064358e-17
v -0.187994078 -0.173957154 -3.86262476e-17
v -0.189478785 -0.167933926 -3.72888222e-17
v -2.21222805e-07 -0.189999774 -4.21884248e-17
v -0.170280516 -0.189999565 -4.21883785e-17
v 0.189999714 -0.161375508 -3.58325609e-17
v 0.174798518 -0.189243257 -4.20204442e-17
v 0.170280084 -0.189999983 -4.21884711e-17
v 0.182609558 -0.183707029 -4.07911546e-17
v 0.178947955 -0.187088057 -4.15418938e-17
v 0.187993661 -0.173957616 -3.86263501e-17
v 0.1856644 -0.179272681 -3.98065317e-17
v 0.189478397 -0.167934403 -3.72889281e-17
v -0.181915939 -0.182617232 0.30626449
v -0.178268269 -0.185985431 0.30626449
v -0.177239239 -0.184847042 0.366731286
v -0.178948388 -0.187087625 -4.15417978e-17
v -0.18260999 -0.183706596 -4.07910586e-17
v -0.180865854 -0.181498319 0.366731286
v -0.177016497 -0.18460317 0.377917677
v -0.180638567 -0.181258634 0.377917677
v -0.172911838 -0.186735108 0.377917677
v -0.17312941 -0.186981693 0.366731286
v -0.168442205 -0.187483668 0.377917677
v -0.168654129 -0.187731206 0.366731286
v -0.174134582 -0.188132435 0.30626449
v -0.169633314 -0.188886315 0.30626449
v -0.174798951 -0.18924284 -4.20203516e-17
v -0.170280516 -0.189999565 -4.21883785e-17
v 0.181915492 -0.182617664 0.30626449
v 0.180865392 -0.181498736 0.366731286
v 0.177016065 -0.184603602 0.377917677
v 0.180638134 -0.181259066 0.377917677
v 0.172911406 -0.186735541 0.377917677
v 0.173128963 -0.186982125 0.366731286
v 0.168441743 -0.1874841 0.377917677
v 0.168653697 -0.187731624 0.366731286
v 0.178267837 -0.185985863 0.30626449
v 0.174134135 -0.188132867 0.30626449
v 0.169632867 -0.188886747 0.30626449
v 0.178947955 -0.187088057 -4.15418938e-17
v 0.182609558 -0.183707029 -4.07911546e-17
v 0.174798518 -0.189243257 -4.20204442e-17
v 0.170280084 -0.189999983 -4.21884711e-17
v -0.168653697 0.182822853 0.366731286
v -0.169632882 0.18381913 0.30626449
v -0.17413415 0.183065265 0.30626449
v -0.170280084 0.184127823 4.08845896e-17
v -0.174798518 0.183371112 4.07165661e-17
v -0.178948 0.181215942 4.02380222e-17
v -0.17291142 0.181856155 0.377917677
v -0.168441772 0.18260473 0.377917677
v -0.178267851 0.180918276 0.30626449
v -0.182609588 0.177834883 3.94872764e-17
v -0.181915522 0.177550077 0.30626449
v -0.177238837 0.179938763 0.366731286
v -0.177016094 0.179724261 0.377917677
v -0.180865437 0.176589966 0.366731286
v -0.180638149 0.176379681 0.377917677
v 0.168654129 0.182822436 0.366731286
v 0.17312941 0.182072923 0.366731286
v 0.174134567 0.183064833 0.30626449
v 0.168442175 0.182604313 0.377917677
v 0.172911867 0.181855738 0.377917677
v 0.169633299 0.183818698 0.30626449
v 0.174798951 0.18337068 4.07164701e-17
v 0.170280516 0.184127405 4.0884497e-17
v 0.178948432 0.18121551 4.02379263e-17
v 0.178268284 0.180917844 0.30626449
v 0.18261002 0.177834451 3.94871805e-17
v 0.181915954 0.177549645 0.30626449
v 0.177016526 0.179723829 0.377917677
v 0.180865869 0.176589534 0.366731286
v 0.180638582 0.176379248 0.377917677
v -0.180865437 0.176589966 0.366731286
v -0.181915522 0.177550077 0.30626449
v -0.184958741 0.173132554 0.30626449
v -0.182609588 0.177834883 3.94872764e-17
v -0.1856644 0.173400521 3.85026502e-17
v -0.187993646 0.168085456 3.73224686e-17
v -0.187279135 0.167837709 0.30626449
v -0.183891103 0.172197983 0.366731286
v -0.180638149 0.176379681 0.377917677
v -0.183660015 0.171993211 0.377917677
v -0.189478397 0.162062228 3.59850433e-17
v -0.185964093 0.1667355 0.377917677
v -0.187432826 0.16077733 0.377917677
v -0.188184977 0.154471785 0.366731286
v -0.18794851 0.154289275 0.377917677
v -0.188758224 0.161837384 0.30626449
v -0.18927756 0.155303448 0.30626449
v -0.189999714 0.155503362 3.45286827e-17
v -0.188185349 -0.159380078 0.366731286
v -0.189277932 -0.160370588 0.30626449
v -0.188758597 -0.166904524 0.30626449
v -0.190000102 -0.161375061 -3.58324616e-17
v -0.189478785 -0.167933926 -3.72888222e-17
v -0.187994078 -0.173957154 -3.86262476e-17
v -0.187433183 -0.165656254 0.377917677
v -0.187948897 -0.159168184 0.377917677
v -0.187279552 -0.172904864 0.30626449
v -0.185664833 -0.179272249 -3.98064358e-17
v -0.186198518 -0.171841994 0.366731286
v -0.185964525 -0.171614468 0.377917677
v -0.184959173 -0.178199738 0.30626449
v -0.18260999 -0.183706596 -4.07910586e-17
v -0.181915939 -0.182617232 0.30626449
v -0.180865854 -0.181498319 0.366731286
v -0.183891535 -0.177106291 0.366731286
v -0.183660433 -0.176872149 0.377917677
v -0.180638567 -0.181258634 0.377917677
v 0.180865869 0.176589534 0.366731286
v 0.183891505 0.172197551 0.366731286
v 0.184959173 0.173132122 0.30626449
v 0.180638582 0.176379248 0.377917677
v 0.183660433 0.171992779 0.377917677
v 0.181915954 0.177549645 0.30626449
v 0.185664833 0.173400089 3.85025543e-17
v 0.18261002 0.177834451 3.94871805e-17
v 0.187994063 0.168084979 3.73223628e-17
v 0.187279552 0.167837232 0.30626449
v 0.189478785 0.162061766 3.59849408e-17
v 0.186198503 0.166933224 0.366731286
v 0.18596451 0.166735068 0.377917677
v 0.187433198 0.160776854 0.377917677
v 0.187669024 0.160967514 0.366731286
v 0.187948897 0.154288828 0.377917677
v 0.188185349 0.154471338 0.366731286
v 0.188758597 0.161836907 0.30626449
v 0.189277932 0.155302987 0.30626449
v 0.190000087 0.1555029 3.45285801e-17
v 0.188184962 -0.159380525 0.366731286
v 0.187668651 -0.165876761 0.366731286
v 0.188758194 -0.166904986 0.30626449
v 0.18794851 -0.159168631 0.377917677
v 0.187432811 -0.165656731 0.377917677
v 0.18927756 -0.16037105 0.30626449
v 0.189478397 -0.167934403 -3.72889281e-17
v 0.189999714 -0.161375508 -3.58325609e-17
v 0.187993661 -0.173957616 -3.86263501e-17
v 0.18727912 -0.172905341 0.30626449
v 0.1856644 -0.179272681 -3.98065317e-17
v 0.1861981 -0.171842426 0.366731286
v 0.185964108 -0.1716149 0.377917677
v 0.184958741 -0.17820017 0.30626449
v 0.182609558 -0.183707029 -4.07911546e-17
v 0.181915492 -0.182617664 0.30626449
v 0.180865392 -0.181498736 0.366731286
v 0.183891088 -0.177106738 0.366731286
v 0.183660001 -0.176872581 0.377917677
v 0.180638134 -0.181259066 0.377917677
v -0.188185215 -0.0421799533 0.366731286
v -0.189277798 -0.0424900167 0.30626449
v -0.189277932 -0.160370588 0.30626449
v -0.190000102 -0.161375061 -3.58324616e-17
v -0.189999849 0.037173029 8.25407055e-18
v -0.188185349 -0.159380078 0.366731286
v -0.189277694 0.0374228656 0.30626449
v -0.189999714 0.155503362 3.45286827e-17
v -0.18927756 0.155303448 0.30626449
v -0.188185111 0.0372716449 0.366731286
v -0.188184977 0.154471785 0.366731286
v -0.187948659 0.0372364223 0.377917677
v -0.18794851 0.154289275 0.377917677
v -0.187948763 -0.0421153381 0.377917677
v -0.187948897 -0.159168184 0.377917677
v 0.188185111 -0.0421804078 0.366731286
v 0.188184962 -0.159380525 0.366731286
v 0.18927756 -0.16037105 0.30626449
v 0.187948644 -0.0421157926 0.377917677
v 0.18794851 -0.159168631 0.377917677
v 0.187948748 0.0372359678 0.377917677
v 0.189277694 -0.0424904786 0.30626449
v 0.189999714 -0.161375508 -3.58325609e-17
v 0.188185215 0.0372711904 0.366731286
v 0.189999849 -0.0430452041 -9.55795535e-18
v 0.189277798 0.0374224111 0.30626449
v 0.190000087 0.1555029 3.45285801e-17
v 0.189277932 0.155302987 0.30626449
v 0.188185349 0.154471338 0.366731286
v 0.187948897 0.154288828 0.377917677
v -0.169633314 -0.188886315 0.30626449
v -2.21187136e-07 -0.188886523 0.30626449
v -2.20042793e-07 -0.187731415 0.366731286
v -0.168654129 -0.187731206 0.366731286
v -0.170280516 -0.189999565 -4.21883785e-17
v -2.21222805e-07 -0.189999774 -4.21884248e-17
v 0.170280084 -0.189999983 -4.21884711e-17
v 0.169632867 -0.188886747 0.30626449
v -0.168442205 -0.187483668 0.377917677
v 0.168653697 -0.187731624 0.366731286
v -2.19789939e-07 -0.187483877 0.377917677
v 0.168441743 -0.1874841 0.377917677
v -0.168653697 0.182822853 0.366731286
v 0.169633299 0.183818698 0.30626449
v -0.169632882 0.18381913 0.30626449
v -0.170280084 0.184127823 4.08845896e-17
v 2.33694607e-07 0.184127614 4.08845433e-17
v 0.170280516 0.184127405 4.0884497e-17
v 0.168654129 0.182822436 0.366731286
v 2.30216273e-07 0.182604522 0.377917677
v -0.168441772 0.18260473 0.377917677
v 0.168442175 0.182604313 0.377917677
v -0.168018267 0.175470069 0.379246444
v -0.168441772 0.18260473 0.377917677
v -0.17291142 0.181856155 0.377917677
v 2.2152318e-07 0.175457343 0.379148453
v -0.171627402 0.174905479 0.379495859
v 2.30216273e-07 0.182604522 0.377917677
v -0.177016094 0.179724261 0.377917677
v 0.168018684 0.175469652 0.379246444
v -0.174704492 0.173310861 0.379748315
v 0.168442175 0.182604313 0.377917677
v -0.180638149 0.176379681 0.377917677
v 0.171627805 0.174905047 0.379495859
v -0.177436158 0.170790046 0.37991631
v 0.172911867 0.181855738 0.377917677
v -0.183660015 0.171993211 0.377917677
v 0.174704894 0.173310429 0.379748315
v -0.179724514 0.167469934 0.379999995
v 0.177016526 0.179723829 0.377917677
v -0.185964093 0.1667355 0.377917677
v 0.17743659 0.170789614 0.37991631
v -0.181468785 0.163492501 0.379998326
v 0.180638582 0.176379248 0.377917677
v -0.187432826 0.16077733 0.377917677
v 0.179724947 0.167469501 0.379999995
v -0.182577386 0.158997849 0.379907072
v 0.183660433 0.171992779 0.377917677
v -0.18794851 0.154289275 0.377917677
v 0.181469217 0.163492069 0.379998326
v -0.182973191 0.153713301 0.379775614
v 0.18596451 0.166735068 0.377917677
v -0.187948659 0.0372364223 0.377917677
v 0.182577744 0.158997416 0.379907072
v -0.182965681 -0.0420745201 0.379718095
v 0.187433198 0.160776854 0.377917677
v -0.187948763 -0.0421153381 0.377917677
v 0.182973579 0.153712854 0.379775614
v 0.187948897 0.154288828 0.377917677
v -0.187948897 -0.159168184 0.377917677
v 0.182965651 0.0371998772 0.379718095
v -0.182973579 -0.158587322 0.379775614
v 0.187948748 0.0372359678 0.377917677
v -0.187433183 -0.165656254 0.377917677
v 0.182965547 -0.0420749635 0.379718095
v -0.182577744 -0.163871586 0.379907072
v 0.187948644 -0.0421157926 0.377917677
v -0.185964525 -0.171614468 0.377917677
v 0.182973176 -0.158587784 0.379775614
v -0.181469217 -0.168366 0.379998326
v 0.18794851 -0.159168631 0.377917677
v -0.183660433 -0.176872149 0.377917677
v 0.182577357 -0.163872018 0.379907072
v -0.179724962 -0.172343388 0.379999995
v 0.187432811 -0.165656731 0.377917677
v -0.180638567 -0.181258634 0.377917677
v 0.181468785 -0.168366432 0.379998326
v -0.17743656 -0.175663739 0.37991631
v 0.185964108 -0.1716149 0.377917677
v -0.177016497 -0.18460317 0.377917677
v 0.179724544 -0.172343805 0.379999995
v -0.17470488 -0.178184956 0.379748315
v 0.183660001 -0.176872581 0.377917677
v -0.172911838 -0.186735108 0.377917677
v 0.177436143 -0.175664157 0.37991631
v -0.17162779 -0.17978029 0.379495859
v 0.180638134 -0.181259066 0.377917677
v -0.168442205 -0.187483668 0.377917677
v 0.174704447 -0.178185388 0.379748315
v -0.168018684 -0.180345535 0.379246444
v 0.177016065 -0.184603602 0.377917677
v -2.19789939e-07 -0.187483877 0.377917677
v 0.171627358 -0.179780722 0.379495859
v -2.11100783e-07 -0.18033348 0.379148453
v 0.172911406 -0.186735541 0.377917677
v 0.168441743 -0.1874841 0.377917677
v 0.168018252 -0.180345953 0.379246444
v -0.184114724 0.0373879261 0.308064878
v -0.189277694 0.0374228656 0.30626449
v -0.189277798 -0.0424900167 0.30626449
v -0.184114829 -0.0424503684 0.308064878
v 0.184114724 -0.0424508154 0.308064878
v 0.189277694 -0.0424904786 0.30626449
v 0.189277798 0.0374224111 0.30626449
v 0.184114829 0.0373874828 0.308064878
v -0.183173954 0.0372357294 0.368531734
v -0.188185111 0.0372716449 0.366731286
v -0.189277694 0.0374228656 0.30626449
v -0.184114724 0.0373879261 0.308064878
v 0.184114829 0.0373874828 0.308064878
v 0.189277798 0.0374224111 0.30626449
v 0.188185215 0.0372711904 0.366731286
v 0.183174044 0.0372352861 0.368531734
v -0.184114829 -0.0424503684 0.308064878
v -0.189277798 -0.0424900167 0.30626449
v -0.188185215 -0.0421799533 0.366731286
v -0.183174059 -0.0421393141 0.368531734
v 0.18317394 -0.0421397611 0.368531734
v 0.188185111 -0.0421804078 0.366731286
v 0.189277694 -0.0424904786 0.30626449
v 0.184114724 -0.0424508154 0.308064878
v -0.183174059 -0.0421393141 0.368531734
v -0.188185215 -0.0421799533 0.366731286
v -0.188185111 0.0372716449 0.366731286
v -0.183173954 0.0372357294 0.368531734
v 0.183174044 0.0372352861 0.368531734
v 0.188185215 0.0372711904 0.366731286
v 0.188185111 -0.0421804078 0.366731286
v 0.18317394 -0.0421397611 0.368531734
v -0.169228792 0.176415786 0.30758515
v 2.2298012e-07 0.176404223 0.307495266
v 0.168256 0.175643995 0.368051976
v -0.169479847 0.177762285 0.00780754071
v 2.26007487e-07 0.177833647 0.00790557824
v 0.169480264 0.177761853 0.00780754071
v 0.169229224 0.176415369 0.30758515
v -0.168255568 0.175644413 0.368051976
v 2.2152318e-07 0.175457343 0.379148453
v -0.168018267 0.175470069 0.379246444
v 0.168018684 0.175469652 0.379246444
v -2.1130262e-07 -0.180539221 0.367962122
v -2.12172665e-07 -0.181468606 0.307495266
v -0.169229224 -0.181479514 0.30758515
v -0.168256 -0.180549294 0.368051976
v -0.169480279 -0.183613494 0.00780754071
v -2.1357846e-07 -0.183685035 0.00790557824
v 0.169479847 -0.183613911 0.00780754071
v 0.169228792 -0.181479931 0.30758515
v -0.168018684 -0.180345535 0.379246444
v 0.168255568 -0.180549726 0.368051976
v -2.11100783e-07 -0.18033348 0.379148453
v 0.168018252 -0.180345953 0.379246444
v -0.184122562 -0.159801647 0.308119535
v -0.184114829 -0.0424503684 0.308064878
v -0.183174059 -0.0421393141 0.368531734
v -0.185492426 -0.160496697 0.00798995979
v -0.185545087 0.0370384157 0.00809391029
v -0.183181211 -0.158820152 0.368586361
v -0.184114724 0.0373879261 0.308064878
v -0.185492054 0.154645979 0.00798995979
v -0.18412219 0.154739395 0.308119535
v -0.183173954 0.0372357294 0.368531734
v -0.183180839 0.153916731 0.368586361
v -0.182965681 -0.0420745201 0.379718095
v -0.182973191 0.153713301 0.379775614
v -0.182973579 -0.158587322 0.379775614
v 0.18412216 -0.159802094 0.308119535
v 0.183180824 -0.158820599 0.368586361
v 0.18317394 -0.0421397611 0.368531734
v 0.182965547 -0.0420749635 0.379718095
v 0.182973176 -0.158587784 0.379775614
v 0.182965651 0.0371998772 0.379718095
v 0.184114724 -0.0424508154 0.308064878
v 0.185492039 -0.160497159 0.00798995979
v 0.185545087 -0.0428893268 0.00809391029
v 0.183174044 0.0372352861 0.368531734
v 0.184114829 0.0373874828 0.308064878
v 0.185545191 0.0370379686 0.00809391029
v 0.185492441 0.154645532 0.00798995979
v 0.184122548 0.154738948 0.308119535
v 0.183181211 0.153916284 0.368586361
v 0.182973579 0.153712854 0.379775614
v -0.180889621 0.168440402 0.30834657
v -0.178619042 0.17173934 0.308260739
v -0.177661508 0.17095089 0.368727565
v -0.182001248 0.169278413 0.00796142593
v -0.179551944 0.172806039 0.00793151837
v -0.183859035 0.16503486 0.00795669574
v -0.1826213 0.164491996 0.308344811
v -0.179938123 0.167642176 0.368813396
v -0.177436158 0.170790046 0.37991631
v -0.179724514 0.167469934 0.379999995
v -0.185025305 0.160232976 0.00791820511
v -0.181468785 0.163492501 0.379998326
v -0.182577386 0.158997849 0.379907072
v -0.182973191 0.153713301 0.379775614
v -0.183180839 0.153916731 0.368586361
v -0.183724061 0.160032466 0.308251143
v -0.18412219 0.154739395 0.308119535
v -0.185492054 0.154645979 0.00798995979
v -0.183724418 -0.16509442 0.308251143
v -0.184122562 -0.159801647 0.308119535
v -0.183181211 -0.158820152 0.368586361
v -0.185025677 -0.166083932 0.00791820511
v -0.185492426 -0.160496697 0.00798995979
v -0.183859482 -0.170885682 0.00795669574
v -0.182577744 -0.163871586 0.379907072
v -0.182973579 -0.158587322 0.379775614
v -0.182621732 -0.169553727 0.308344811
v -0.182001665 -0.17512919 0.00796142593
v -0.181469217 -0.168366 0.379998326
v -0.180890068 -0.173502102 0.30834657
v -0.179552346 -0.178656921 0.00793151837
v -0.178619444 -0.176801249 0.308260739
v -0.177661926 -0.175853968 0.368727565
v -0.179724962 -0.172343388 0.379999995
v -0.17743656 -0.175663739 0.37991631
v 0.180890054 0.168439969 0.30834657
v 0.17993857 0.167641774 0.368813396
v 0.177661911 0.170950472 0.368727565
v 0.17743659 0.170789614 0.37991631
v 0.179724947 0.167469501 0.379999995
v 0.178619444 0.171738908 0.308260739
v 0.182001665 0.169277981 0.00796142593
v 0.179552361 0.172805607 0.00793151837
v 0.183859468 0.165034413 0.00795669574
v 0.182621732 0.164491564 0.308344811
v 0.185025692 0.160232529 0.00791820511
v 0.181675166 0.163681984 0.368811637
v 0.181469217 0.163492069 0.379998326
v 0.182577744 0.158997416 0.379907072
v 0.182781577 0.159209594 0.368717998
v 0.182973579 0.153712854 0.379775614
v 0.183181211 0.153916284 0.368586361
v 0.183724418 0.160032034 0.308251143
v 0.184122548 0.154738948 0.308119535
v 0.185492441 0.154645532 0.00798995979
v 0.183724016 -0.165094852 0.308251143
v 0.182781205 -0.164113566 0.368717998
v 0.183180824 -0.158820599 0.368586361
v 0.182973176 -0.158587784 0.379775614
v 0.182577357 -0.163872018 0.379907072
v 0.18412216 -0.159802094 0.308119535
v 0.18502529 -0.166084379 0.00791820511
v 0.185492039 -0.160497159 0.00798995979
v 0.183859065 -0.170886129 0.00795669574
v 0.1826213 -0.169554159 0.308344811
v 0.182001248 -0.175129637 0.00796142593
v 0.181674764 -0.168585747 0.368811637
v 0.181468785 -0.168366432 0.379998326
v 0.180889636 -0.173502535 0.30834657
v 0.179551914 -0.178657353 0.00793151837
v 0.178618997 -0.176801682 0.308260739
v 0.177661493 -0.1758544 0.368727565
v 0.179938138 -0.172545463 0.368813396
v 0.179724544 -0.172343805 0.379999995
v 0.177436143 -0.175664157 0.37991631
v -0.172856644 0.175841197 0.307830602
v -0.169228792 0.176415786 0.30758515
v -0.168255568 0.175644413 0.368051976
v -0.173324794 0.177109972 0.00777069107
v -0.169479847 0.177762285 0.00780754071
v -0.176622868 0.175461978 0.00786727946
v -0.171883404 0.175067276 0.368297428
v -0.168018267 0.175470069 0.379246444
v -0.171627402 0.174905479 0.379495859
v -0.175909385 0.174247876 0.30808866
v -0.179551944 0.172806039 0.00793151837
v -0.178619042 0.17173934 0.308260739
v -0.174944609 0.173467696 0.368555486
v -0.177661508 0.17095089 0.368727565
v -0.174704492 0.173310861 0.379748315
v -0.177436158 0.170790046 0.37991631
v -0.174944997 -0.178371221 0.368555486
v -0.175909787 -0.179310262 0.30808866
v -0.178619444 -0.176801249 0.308260739
v -0.17662327 -0.181313008 0.00786727946
v -0.179552346 -0.178656921 0.00793151837
v -0.177661926 -0.175853968 0.368727565
v -0.17470488 -0.178184956 0.379748315
v -0.17743656 -0.175663739 0.37991631
v -0.17162779 -0.17978029 0.379495859
v -0.171883792 -0.179971516 0.368297428
v -0.168018684 -0.180345535 0.379246444
v -0.168256 -0.180549294 0.368051976
v -0.172857061 -0.180904284 0.307830602
v -0.169229224 -0.181479514 0.30758515
v -0.173325196 -0.182961285 0.00777065288
v -0.169480279 -0.183613494 0.00780754071
v 0.172857076 0.17584078 0.307830602
v 0.171883821 0.175066844 0.368297398
v 0.168256 0.175643995 0.368051976
v 0.168018684 0.175469652 0.379246444
v 0.171627805 0.174905047 0.379495859
v 0.169229224 0.176415369 0.30758515
v 0.173325226 0.17710954 0.00777069107
v 0.169480264 0.177761853 0.00780754071
v 0.176623285 0.17546156 0.00786727946
v 0.175909802 0.174247459 0.30808866
v 0.179552361 0.172805607 0.00793151837
v 0.178619444 0.171738908 0.308260739
v 0.174945012 0.173467264 0.368555486
v 0.177661911 0.170950472 0.368727565
v 0.174704894 0.173310429 0.379748315
v 0.17743659 0.170789614 0.37991631
v 0.174944565 -0.178371638 0.368555486
v 0.177661493 -0.1758544 0.368727565
v 0.178618997 -0.176801682 0.308260739
v 0.174704447 -0.178185388 0.379748315
v 0.177436143 -0.175664157 0.37991631
v 0.171627358 -0.179780722 0.379495859
v 0.172856629 -0.180904716 0.307830602
v 0.168018252 -0.180345953 0.379246444
v 0.168255568 -0.180549726 0.368051976
v 0.17590934 -0.179310694 0.30808866
v 0.169228792 -0.181479931 0.30758515
v 0.176622838 -0.18131344 0.00786727946
v 0.179551914 -0.178657353 0.00793151837
v 0.173324764 -0.182961717 0.00777065288
v 0.169479847 -0.183613911 0.00780754071
v -2.1357846e-07 -0.183685035 0.00790557824
v -5.11013241e-08 -0.050053183 0.0105817029
v -0.185492426 -0.160496697 0.00798995979
v 0.185492039 -0.160497159 0.00798995979
v -0.173325196 -0.182961285 0.00777065288
v -0.169480279 -0.183613494 0.00780754071
v -0.179552346 -0.178656921 0.00793151837
v -0.17662327 -0.181313008 0.00786727946
v -0.183859482 -0.170885682 0.00795669574
v -0.182001665 -0.17512919 0.00796142593
v -0.185025677 -0.166083932 0.00791820511
v 0.173324764 -0.182961717 0.00777065288
v 0.169479847 -0.183613911 0.00780754071
v 0.179551914 -0.178657353 0.00793151837
v 0.176622838 -0.18131344 0.00786727946
v 0.183859065 -0.170886129 0.00795669574
v 0.182001248 -0.175129637 0.00796142593
v 0.18502529 -0.166084379 0.00791820511
v -0.185545087 0.0370384157 0.00809391029
v 6.35158557e-08 0.0442088284 0.0105817029
v 0.185545087 -0.0428893268 0.00809391029
v 0.185545191 0.0370379686 0.00809391029
v 2.26007487e-07 0.177833647 0.00790557824
v 0.185492441 0.154645532 0.00798995979
v -0.185492054 0.154645979 0.00798995979
v 0.185025692 0.160232529 0.00791820511
v 0.183859468 0.165034413 0.00795669574
v 0.179552361 0.172805607 0.00793151837
v 0.182001665 0.169277981 0.00796142593
v 0.176623285 0.17546156 0.00786727946
v 0.173325226 0.17710954 0.00777069107
v 0.169480264 0.177761853 0.00780754071
v -0.183859035 0.16503486 0.00795669574
v -0.185025305 0.160232976 0.00791820511
v -0.179551944 0.172806039 0.00793151837
v -0.182001248 0.169278413 0.00796142593
v -0.173324794 0.177109972 0.00777069107
v -0.176622868 0.175461978 0.00786727946
v -0.169479847 0.177762285 0.00780754071
vt 1.41584373 1.03518713
vt 1.41584301 0.463588357
vt -0.415842623 0.694528461
vt 0.499999583 0.0405219793
vt 1.41584265 0.122928023
vt -0.415843338 0.122929692
vt 1.40617311 0.0867054462
vt 1.41332996 0.104045749
vt 1.38022065 0.0586379766
vt 1.39494562 0.0714039803
vt 1.362571 0.0489041805
vt 1.34256959 0.0426996946
vt 1.32078958 0.0405212641
vt -0.406173795 0.0867072344
vt -0.413330466 0.104047418
vt -0.380221367 0.0586395264
vt -0.394946337 0.07140553
vt -0.342570305 0.0427013636
vt -0.362571716 0.0489057302
vt -0.32079041 0.0405226946
vt 1.34257078 1.11541557
vt 1.36257195 1.10921085
vt 1.38022184 1.09947729
vt 1.39494681 1.08671117
vt 1.40617442 1.0714097
vt 1.41333079 1.0540694
vt 0.500000834 1.11759484
vt 1.32079089 1.117594
vt -0.415842265 1.03518879
vt -0.342569053 1.115417
vt -0.320789158 1.11759555
vt -0.380220026 1.09947884
vt -0.362570286 1.10921252
vt -0.406172633 1.07141137
vt -0.394945085 1.08671284
vt -0.413329303 1.05407119
vt -0.516093969 -0.0893057585
vt -0.49571979 -0.0893057585
vt -0.522007704 -0.342400074
vt -0.362571537 1.19261706
vt -0.380221277 1.19261706
vt -0.542919695 -0.342400074
vt -0.526870847 -0.389222503
vt -0.547882438 -0.389222503
vt -0.503059745 -0.389222503
vt -0.498309284 -0.342400074
vt -0.477131367 -0.389222503
vt -0.472503662 -0.342400074
vt -0.472631067 -0.0893057585
vt -0.447489202 -0.0893057585
vt -0.342570305 1.19261706
vt -0.32079041 1.19261706
vt 1.5160929 -0.0893057585
vt 1.54291868 -0.342400074
vt 1.52687001 -0.389222503
vt 1.54788136 -0.389222503
vt 1.50305879 -0.389222503
vt 1.49830842 -0.342400074
vt 1.47713041 -0.389222503
vt 1.47250271 -0.342400074
vt 1.49571884 -0.0893057585
vt 1.47263002 -0.0893057585
vt 1.44748831 -0.0893057585
vt 1.36257076 1.19261706
vt 1.38022041 1.19261706
vt 1.34256959 1.19261706
vt 1.32078958 1.19261706
vt 1.47250271 -0.342400074
vt 1.44748831 -0.0893057585
vt 1.47263002 -0.0893057585
vt 1.32078958 1.19261706
vt 1.34256959 1.19261706
vt 1.362571 1.19261706
vt 1.50305879 -0.389222503
vt 1.47713041 -0.389222503
vt 1.49571896 -0.0893057585
vt 1.38022065 1.19261706
vt 1.51609302 -0.0893057585
vt 1.52200675 -0.342400074
vt 1.52687001 -0.389222503
vt 1.54291892 -0.342400074
vt 1.54788172 -0.389222503
vt -0.472503662 -0.342400074
vt -0.498309374 -0.342400074
vt -0.472631067 -0.0893057585
vt -0.477131367 -0.389222503
vt -0.503059864 -0.389222503
vt -0.447489202 -0.0893057585
vt -0.342570305 1.19261706
vt -0.32079041 1.19261706
vt -0.362571716 1.19261706
vt -0.495719969 -0.0893057585
vt -0.380221367 1.19261706
vt -0.516094029 -0.0893057585
vt -0.526871085 -0.389222503
vt -0.542919755 -0.342400074
vt -0.547882557 -0.389222503
vt -0.108161643 -0.342400074
vt -0.0923012048 -0.0893057585
vt -0.077564612 -0.0893057585
vt -0.0119681954 1.19261706
vt 0.000797867775 1.19261706
vt 0.0160993934 1.19261706
vt -0.0599011034 -0.0893057585
vt -0.093035996 -0.342400074
vt -0.11109589 -0.389222503
vt -0.0958981812 -0.389222503
vt 0.0334396362 1.19261706
vt -0.0776820481 -0.389222503
vt -0.0570389181 -0.389222503
vt -0.0319883823 -0.342400074
vt -0.0345600843 -0.389222503
vt -0.0398842245 -0.0893057585
vt -0.0180872977 -0.0893057585
vt 0.0523218513 1.19261706
vt 1.04889095 -0.342400074
vt 1.03498983 -0.0893057585
vt 1.05678689 -0.0893057585
vt 0.964581013 1.19261706
vt 0.983463287 1.19261706
vt 1.00080347 1.19261706
vt 1.07394171 -0.389222503
vt 1.05146265 -0.389222503
vt 1.07680368 -0.0893057585
vt 1.01610506 1.19261706
vt 1.0918088 -0.342400074
vt 1.0945847 -0.389222503
vt 1.0944674 -0.0893057585
vt 1.02887118 1.19261706
vt 1.10920393 -0.0893057585
vt 1.12506437 -0.342400074
vt 1.10993862 -0.342400074
vt 1.11280084 -0.389222503
vt 1.12799859 -0.389222503
vt 1.10816026 -0.342400074
vt 1.09303451 -0.342400074
vt 1.07756317 -0.0893057585
vt 1.11109436 -0.389222503
vt 1.09589672 -0.389222503
vt 1.0922997 -0.0893057585
vt 0.999201059 1.19261706
vt 1.01196706 1.19261706
vt 0.983899355 1.19261706
vt 1.05989957 -0.0893057585
vt 0.966559172 1.19261706
vt 1.07490456 -0.342400074
vt 1.07768059 -0.389222503
vt 1.05703747 -0.389222503
vt 1.0543592 -0.342400074
vt 1.03455853 -0.389222503
vt 1.03198695 -0.342400074
vt 1.03988278 -0.0893057585
vt 1.01808584 -0.0893057585
vt 0.947676897 1.19261706
vt -0.0488924682 -0.342400074
vt -0.0712649077 -0.342400074
vt -0.0567883551 -0.0893057585
vt -0.0514641702 -0.389222503
vt -0.0739430934 -0.389222503
vt -0.0349913836 -0.0893057585
vt 0.0165354609 1.19261706
vt 0.0354177654 1.19261706
vt -0.000804752111 1.19261706
vt -0.076805234 -0.0893057585
vt -0.0161062181 1.19261706
vt -0.0918102711 -0.342400074
vt -0.0945862234 -0.389222503
vt -0.0944686979 -0.0893057585
vt -0.0288722813 1.19261706
vt -0.109205291 -0.0893057585
vt -0.125065729 -0.342400074
vt -0.109940082 -0.342400074
vt -0.112802267 -0.389222503
vt -0.127999976 -0.389222503
vt 0.645263672 -0.342400074
vt 0.641744614 -0.0893057585
vt 1.03498983 -0.0893057585
vt 0.964581013 1.19261706
vt 0.392982304 1.19261706
vt 1.04889095 -0.342400074
vt 0.375158131 -0.0893057585
vt 0.0523218513 1.19261706
vt -0.0180872977 -0.0893057585
vt 0.371639013 -0.342400074
vt -0.0319883823 -0.342400074
vt 0.370987952 -0.389222503
vt -0.0345600843 -0.389222503
vt 0.645914674 -0.389222503
vt 1.05146265 -0.389222503
vt 0.354734838 -0.342400074
vt -0.0488924682 -0.342400074
vt -0.0349913836 -0.0893057585
vt 0.354083836 -0.389222503
vt -0.0514641702 -0.389222503
vt 0.629010439 -0.389222503
vt 0.358253956 -0.0893057585
vt 0.0354177654 1.19261706
vt 0.628359497 -0.342400074
vt 0.376078129 1.19261706
vt 0.624840438 -0.0893057585
vt 0.947676897 1.19261706
vt 1.01808584 -0.0893057585
vt 1.03198695 -0.342400074
vt 1.03455853 -0.389222503
vt -0.447489202 -0.0893057585
vt 0.499999523 -0.0893057585
vt 0.499999523 -0.342400074
vt -0.472503662 -0.342400074
vt -0.32079041 1.19261706
vt 0.499999642 1.19261706
vt 1.32078958 1.19261706
vt 1.44748831 -0.0893057585
vt -0.477131367 -0.389222503
vt 1.47250271 -0.342400074
vt 0.499999523 -0.389222503
vt 1.47713041 -0.389222503
vt 1.47250271 -0.342400074
vt -0.447489202 -0.0893057585
vt 1.44748831 -0.0893057585
vt 1.32078958 1.19261706
vt 0.499999583 1.19261706
vt -0.32079041 1.19261706
vt -0.472503662 -0.342400074
vt 0.499999404 -0.389222503
vt 1.47713041 -0.389222503
vt -0.477131367 -0.389222503
vt -0.475370944 -0.0377733707
vt -0.477129936 -0.0620572567
vt -0.503058434 -0.0594638586
vt 0.500001073 -0.0376969576
vt -0.496456414 -0.0358973742
vt 0.500001073 -0.0620564222
vt -0.526869655 -0.0520775318
vt 1.47537279 -0.0377715826
vt -0.514459729 -0.030449748
vt 1.47713184 -0.0620554686
vt -0.547881126 -0.0404897928
vt 1.49645841 -0.0358954668
vt -0.530415058 -0.0217609406
vt 1.50306022 -0.0594619513
vt -0.565410912 -0.0252920389
vt 1.51446176 -0.0304478407
vt -0.54375124 -0.0102716684
vt 1.52687144 -0.0520756245
vt -0.578776896 -0.0070759058
vt 1.53041697 -0.0217590332
vt -0.553880095 0.00352478027
vt 1.54788315 -0.0404877663
vt -0.587296963 0.01356709
vt 1.54375327 -0.0102697611
vt -0.560266078 0.0191417933
vt 1.56541276 -0.0252901316
vt -0.590288401 0.0360460281
vt 1.553882 0.00352680683
vt -0.56248939 0.0375083685
vt 1.57877874 -0.00707399845
vt -0.590288877 0.441594064
vt 1.56026781 0.0191437006
vt -0.562412143 0.716520786
vt 1.58729875 0.0135691166
vt -0.590289235 0.716520786
vt 1.56249118 0.0375102758
vt 1.59029007 0.0360480547
vt -0.590289652 1.12206876
vt 1.5624125 0.441596031
vt -0.562490582 1.12060642
vt 1.59028959 0.44159615
vt -0.587298095 1.1445477
vt 1.56241214 0.716522694
vt -0.56026721 1.13897312
vt 1.59028924 0.716522753
vt -0.578778386 1.16519082
vt 1.56248975 1.12060845
vt -0.553881526 1.15459013
vt 1.59028888 1.12207079
vt -0.565412343 1.18340683
vt 1.56026638 1.13897514
vt -0.543752789 1.16838646
vt 1.58729732 1.14454973
vt -0.547882438 1.19860458
vt 1.55388057 1.15459216
vt -0.530416369 1.17987573
vt 1.57877755 1.16519284
vt -0.526870847 1.21019232
vt 1.54375184 1.16838837
vt -0.5144611 1.18856442
vt 1.56541133 1.18340886
vt -0.503059745 1.21757877
vt 1.53041553 1.17987764
vt -0.496457666 1.19401228
vt 1.54788136 1.19860661
vt -0.477131367 1.22017229
vt 1.51446009 1.18856633
vt -0.475372374 1.1958884
vt 1.52687001 1.21019411
vt 0.499999523 1.22017312
vt 1.49645662 1.19401419
vt 0.499999583 1.19581378
vt 1.50305879 1.21758056
vt 1.47713041 1.22017407
vt 1.47537136 1.19589019
vt -0.529336631 0.445764303
vt -0.557213783 0.445764184
vt -0.557214141 0.712350726
vt -0.529336989 0.712350726
vt 1.52933717 0.712352633
vt 1.55721438 0.712352633
vt 1.55721474 0.445766151
vt 1.52933741 0.445766151
vt -0.557248116 -0.349936008
vt -0.585125148 -0.342400074
vt -0.557213783 -0.0893057585
vt -0.529336631 -0.0968416929
vt 1.52933741 -0.0968416929
vt 1.55721474 -0.0893057585
vt 1.58512592 -0.342400074
vt 1.55724907 -0.349936008
vt 1.52933741 -0.0968416929
vt 1.55721474 -0.0893057585
vt 1.58512592 -0.342400074
vt 1.55724907 -0.349936008
vt -0.557248116 -0.349936008
vt -0.585125148 -0.342400074
vt -0.557213783 -0.0893057585
vt -0.529336631 -0.0968416929
vt 1.55724907 0.715869784
vt 1.58512592 0.715869725
vt 1.58512568 0.442245126
vt 1.55724871 0.442245126
vt -0.557248473 0.442247093
vt -0.585125506 0.442247093
vt -0.585125148 0.715871751
vt -0.557248116 0.715871692
vt -0.445878267 -0.0948336124
vt 0.500000954 -0.0944575071
vt 1.47089458 -0.347927928
vt -0.319795132 1.15993702
vt 0.500000834 1.15952682
vt 1.3197968 1.15993702
vt 1.44588017 -0.0948336124
vt -0.470892727 -0.347927928
vt 0.500001073 -0.394374132
vt -0.475370944 -0.394784331
vt 1.47537279 -0.394784331
vt 0.500000954 -0.347551703
vt 0.500000834 -0.0944575071
vt 1.44588017 -0.0948336124
vt 1.47089458 -0.347927928
vt 1.3197968 1.15993702
vt 0.500000775 1.15952682
vt -0.319795132 1.15993702
vt -0.445878267 -0.0948336124
vt 1.47537279 -0.394784331
vt -0.470892727 -0.347927928
vt 0.500000954 -0.394374132
vt -0.475370944 -0.394784331
vt -0.0336046368 -0.0970703363
vt 0.358255863 -0.0968416929
vt 0.354736805 -0.349936008
vt 0.0362906456 1.15917373
vt 0.607018113 1.15873837
vt -0.0475057214 -0.350164771
vt 0.624842286 -0.0968416929
vt 0.946807384 1.15917373
vt 1.01670289 -0.0970703363
vt 0.628361464 -0.349936008
vt 1.03060412 -0.350164771
vt 0.354085803 -0.396758437
vt 1.03309822 -0.396999121
vt -0.0499998629 -0.396999121
vt 1.03360701 -0.0970703363
vt 1.04750812 -0.350164771
vt 0.645265639 -0.349936008
vt 0.645916581 -0.396758437
vt 1.05000234 -0.396999121
vt 0.370989978 -0.396758437
vt 0.641746521 -0.0968416929
vt 0.9637115 1.15917373
vt 0.623922348 1.15873837
vt 0.37164098 -0.349936008
vt 0.375160038 -0.0968416929
vt 0.392983913 1.15873837
vt 0.0531947315 1.15917373
vt -0.0167005956 -0.0970703363
vt -0.0306016356 -0.350164771
vt -0.0330958217 -0.396999121
vt 1.06251931 -0.0980206728
vt 1.07351089 -0.097661376
vt 1.0893712 -0.350755692
vt 0.989077449 1.15929294
vt 0.999262691 1.15941811
vt 0.976815939 1.15931273
vt 1.04933286 -0.0980132818
vt 1.07799077 -0.351115108
vt 1.09236753 -0.397588134
vt 1.08087826 -0.397938609
vt 0.962934494 1.1594739
vt 1.06708181 -0.397931218
vt 1.0514648 -0.39754951
vt 1.03309822 -0.396999121
vt 1.03060412 -0.350164771
vt 1.03441393 -0.0976213217
vt 1.01670289 -0.0970703363
vt 0.946807384 1.15917373
vt -0.0513157547 -0.0976213217
vt -0.0336046368 -0.0970703363
vt -0.0475057214 -0.350164771
vt 0.0201633573 1.1594739
vt 0.0362906456 1.15917373
vt 0.00628197193 1.15931273
vt -0.0683665574 -0.39754951
vt -0.0499998629 -0.396999121
vt -0.0662346482 -0.0980132818
vt -0.00597940385 1.15929294
vt -0.0839835852 -0.397931218
vt -0.0794210136 -0.0980206728
vt -0.0161646903 1.15941811
vt -0.0904124826 -0.097661376
vt -0.106272921 -0.350755692
vt -0.0977799296 -0.397938609
vt -0.109269172 -0.397588134
vt -0.0625170171 -0.0980206728
vt -0.0779883564 -0.351115108
vt -0.0893688798 -0.350755692
vt -0.0923651755 -0.397588134
vt -0.0808758885 -0.397938609
vt -0.0735084862 -0.097661376
vt 0.0109246373 1.15929294
vt 0.000739336014 1.15941811
vt 0.0231860876 1.15931273
vt -0.0493304729 -0.0980132818
vt 0.0370675325 1.1594739
vt -0.0643354207 -0.351107597
vt -0.06707941 -0.397931218
vt -0.0514623821 -0.39754951
vt -0.0488880873 -0.350715637
vt -0.0330958217 -0.396999121
vt -0.0306016356 -0.350164771
vt -0.0344116241 -0.0976213217
vt -0.0167005956 -0.0970703363
vt 0.0531947315 1.15917373
vt 1.05131817 -0.0976213217
vt 1.06579471 -0.350715637
vt 1.04750812 -0.350164771
vt 1.05000234 -0.396999121
vt 1.06836903 -0.39754951
vt 1.03360701 -0.0970703363
vt 0.97983861 1.1594739
vt 0.9637115 1.15917373
vt 0.993720174 1.15931273
vt 1.06623697 -0.0980132818
vt 1.00598145 1.15929294
vt 1.08124208 -0.351107597
vt 1.08398604 -0.397931218
vt 1.07942343 -0.0980206728
vt 1.01616681 1.15941811
vt 1.09041488 -0.097661376
vt 1.10627532 -0.350755692
vt 1.09489465 -0.351115108
vt 1.09778225 -0.397938609
vt 1.10927153 -0.397588134
vt -0.466278613 -0.0958609581
vt -0.445878267 -0.0948336124
vt -0.470892727 -0.347927928
vt -0.3383798 1.16009152
vt -0.319795132 1.15993702
vt -0.354369789 1.15968704
vt -0.491956919 -0.348955393
vt -0.475370944 -0.394784331
vt -0.496456414 -0.395828247
vt -0.483475238 -0.0969412327
vt -0.368563503 1.15941811
vt -0.498713493 -0.097661376
vt -0.509763002 -0.350035429
vt -0.525539279 -0.350755692
vt -0.514459729 -0.396885037
vt -0.530415058 -0.397588134
vt 1.50976467 -0.350035429
vt 1.48347688 -0.0969412327
vt 1.4987154 -0.097661376
vt 1.35437143 1.15968704
vt 1.36856508 1.15941811
vt 1.52554107 -0.350755692
vt 1.51446152 -0.396885037
vt 1.53041697 -0.397588134
vt 1.49645805 -0.395828247
vt 1.49195874 -0.348955393
vt 1.47537279 -0.394784331
vt 1.47089458 -0.347927928
vt 1.46628034 -0.0958608389
vt 1.44588017 -0.0948336124
vt 1.33838153 1.16009152
vt 1.3197968 1.15993702
vt 1.46628046 -0.0958608389
vt 1.49195874 -0.348955274
vt 1.47089458 -0.347927928
vt 1.47537279 -0.394784331
vt 1.49645841 -0.395828247
vt 1.44588017 -0.0948336124
vt 1.33838153 1.16009152
vt 1.3197968 1.15993702
vt 1.35437143 1.15968704
vt 1.48347723 -0.0969412327
vt 1.36856532 1.15941811
vt 1.4987154 -0.097661376
vt 1.50976503 -0.350035429
vt 1.52554107 -0.350755692
vt 1.51446176 -0.396885037
vt 1.53041697 -0.397588134
vt -0.509762883 -0.350035429
vt -0.52553916 -0.350755692
vt -0.498713404 -0.097661376
vt -0.51445967 -0.396885037
vt -0.530414939 -0.397588134
vt -0.496456236 -0.395828247
vt -0.466278523 -0.0958608389
vt -0.475370944 -0.394784331
vt -0.470892727 -0.347927928
vt -0.483475059 -0.0969412327
vt -0.445878267 -0.0948336124
vt -0.3543697 1.15968704
vt -0.368563414 1.15941811
vt -0.338379711 1.16009152
vt -0.319795132 1.15993702
vt 0.499999642 1.10129225
vt 0.500000119 0.715388894
vt -0.397322774 1.03431594
vt 1.39732218 1.03431749
vt -0.338380963 1.09916902
vt -0.319796383 1.10106206
vt -0.368564665 1.08677125
vt -0.354370952 1.09442997
vt -0.389409989 1.06432462
vt -0.380424857 1.07658601
vt -0.395036101 1.05044317
vt 1.3383801 1.09917057
vt 1.31979561 1.10106361
vt 1.36856389 1.08677292
vt 1.35437012 1.09443164
vt 1.3894093 1.06432629
vt 1.38042402 1.07658756
vt 1.39503551 1.05044484
vt -0.397619873 0.463588476
vt 0.500000417 0.442727923
vt 1.39762044 0.694528461
vt 1.3976208 0.463590026
vt 0.500000834 0.0568245649
vt 1.39732325 0.123800874
vt -0.397321701 0.123799205
vt 1.39503658 0.107673764
vt 1.38941038 0.0937922001
vt 1.36856532 0.0713454485
vt 1.38042533 0.0815306902
vt 1.35437143 0.0636867285
vt 1.33838153 0.0589476824
vt 1.3197968 0.0570546389
vt -0.389408827 0.0937906504
vt -0.395035028 0.107672095
vt -0.368563503 0.0713438988
vt -0.380423605 0.0815291405
vt -0.3383798 0.0589462519
vt -0.354369789 0.0636850595
vt -0.319795132 0.0570532084
f 1/1 2/2 3/3
f 4/4 3/3 2/2
f 4/4 2/2 5/5
f 6/6 3/3 4/4
f 7/7 5/5 8/8
f 7/7 9/9 5/5
f 7/7 10/10 9/9
f 9/9 4/4 5/5
f 9/9 11/11 12/12
f 9/9 12/12 4/4
f 12/12 13/13 4/4
f 14/14 15/15 6/6
f 16/16 14/14 6/6
f 16/16 6/6 4/4
f 16/16 17/17 14/14
f 18/18 16/16 4/4
f 18/18 19/19 16/16
f 18/18 4/4 20/20
f 21/21 22/22 23/23
f 23/23 24/24 25/25
f 23/23 25/25 1/1
f 21/21 23/23 1/1
f 25/25 26/26 1/1
f 21/21 1/1 27/27
f 21/21 27/27 28/28
f 1/1 3/3 27/27
f 27/27 3/3 29/29
f 30/30 27/27 29/29
f 30/30 31/31 27/27
f 32/32 30/30 29/29
f 32/32 33/33 30/30
f 34/34 32/32 29/29
f 34/34 35/35 32/32
f 34/34 29/29 36/36
f 37/37 38/38 39/39
f 40/40 38/38 37/37
f 37/37 41/41 40/40
f 39/39 42/42 37/37
f 42/42 39/39 43/43
f 43/43 44/44 42/42
f 45/45 43/43 39/39
f 39/39 46/46 45/45
f 46/46 39/39 38/38
f 47/47 45/45 46/46
f 46/46 48/48 47/47
f 38/38 49/49 46/46
f 48/48 46/46 49/49
f 49/49 38/38 40/40
f 49/49 50/50 48/48
f 40/40 51/51 49/49
f 50/50 49/49 51/51
f 51/51 52/52 50/50
f 53/53 54/54 55/55
f 54/54 56/56 55/55
f 57/57 58/58 55/55
f 58/58 57/57 59/59
f 59/59 60/60 58/58
f 61/61 55/55 58/58
f 55/55 61/61 53/53
f 62/62 58/58 60/60
f 58/58 62/62 61/61
f 60/60 63/63 62/62
f 53/53 61/61 64/64
f 64/64 61/61 62/62
f 64/64 65/65 53/53
f 62/62 66/66 64/64
f 66/66 62/62 63/63
f 63/63 67/67 66/66
f 68/68 69/69 70/70
f 69/69 71/71 72/72
f 72/72 70/70 69/69
f 70/70 72/72 73/73
f 70/70 74/74 68/68
f 75/75 68/68 74/74
f 73/73 76/76 70/70
f 74/74 70/70 76/76
f 76/76 73/73 77/77
f 77/77 78/78 76/76
f 76/76 79/79 74/74
f 79/79 76/76 78/78
f 79/79 80/80 74/74
f 78/78 81/81 79/79
f 80/80 79/79 81/81
f 81/81 82/82 80/80
f 83/83 84/84 85/85
f 84/84 83/83 86/86
f 86/86 87/87 84/84
f 85/85 88/88 83/83
f 88/88 85/85 89/89
f 89/89 90/90 88/88
f 91/91 89/89 85/85
f 85/85 92/92 91/91
f 92/92 85/85 84/84
f 93/93 91/91 92/92
f 92/92 94/94 93/93
f 84/84 95/95 92/92
f 94/94 92/92 95/95
f 95/95 84/84 87/87
f 95/95 96/96 94/94
f 95/95 97/97 96/96
f 98/98 99/99 100/100
f 99/99 101/101 102/102
f 102/102 100/100 99/99
f 100/100 102/102 103/103
f 103/103 104/104 100/100
f 100/100 105/105 98/98
f 105/105 100/100 104/104
f 106/106 98/98 105/105
f 105/105 107/107 106/106
f 104/104 103/103 108/108
f 107/107 105/105 109/109
f 104/104 109/109 105/105
f 110/110 109/109 104/104
f 110/110 111/111 112/112
f 104/104 113/113 110/110
f 111/111 110/110 113/113
f 108/108 113/113 104/104
f 113/113 114/114 111/111
f 113/113 108/108 115/115
f 115/115 114/114 113/113
f 116/116 117/117 118/118
f 117/117 119/119 120/120
f 120/120 118/118 117/117
f 118/118 120/120 121/121
f 118/118 122/122 116/116
f 123/123 116/116 122/122
f 121/121 124/124 118/118
f 122/122 118/118 124/124
f 124/124 121/121 125/125
f 124/124 126/126 122/122
f 126/126 127/127 122/122
f 125/125 128/128 124/124
f 126/126 124/124 128/128
f 128/128 125/125 129/129
f 129/129 130/130 128/128
f 128/128 130/130 131/131
f 128/128 132/132 126/126
f 127/127 126/126 132/132
f 131/131 132/132 128/128
f 132/132 133/133 127/127
f 132/132 131/131 134/134
f 134/134 133/133 132/132
f 135/135 136/136 137/137
f 136/136 135/135 138/138
f 138/138 139/139 136/136
f 137/137 140/140 135/135
f 140/140 137/137 141/141
f 141/141 142/142 140/140
f 143/143 141/141 137/137
f 137/137 144/144 143/143
f 144/144 137/137 136/136
f 145/145 143/143 144/144
f 146/146 136/136 139/139
f 136/136 146/146 144/144
f 139/139 147/147 146/146
f 146/146 147/147 148/148
f 148/148 149/149 146/146
f 144/144 146/146 149/149
f 149/149 148/148 150/150
f 150/150 151/151 149/149
f 149/149 152/152 144/144
f 152/152 149/149 151/151
f 144/144 152/152 145/145
f 151/151 153/153 152/152
f 154/154 145/145 152/152
f 152/152 153/153 154/154
f 155/155 156/156 157/157
f 156/156 155/155 158/158
f 158/158 159/159 156/156
f 157/157 160/160 155/155
f 160/160 157/157 161/161
f 161/161 162/162 160/160
f 163/163 161/161 157/157
f 157/157 164/164 163/163
f 164/164 157/157 156/156
f 165/165 163/163 164/164
f 166/166 156/156 159/159
f 156/156 166/166 164/164
f 159/159 167/167 166/166
f 164/164 168/168 165/165
f 168/168 164/164 166/166
f 169/169 165/165 168/168
f 168/168 170/170 169/169
f 171/171 170/170 168/168
f 172/172 166/166 167/167
f 166/166 172/172 168/168
f 168/168 172/172 171/171
f 167/167 173/173 172/172
f 174/174 171/171 172/172
f 172/172 173/173 174/174
f 175/175 176/176 177/177
f 178/178 177/177 176/176
f 176/176 179/179 178/178
f 177/177 180/180 175/175
f 179/179 176/176 181/181
f 182/182 179/179 181/181
f 181/181 183/183 182/182
f 183/183 181/181 184/184
f 184/184 185/185 183/183
f 185/185 184/184 186/186
f 186/186 184/184 175/175
f 186/186 187/187 185/185
f 175/175 188/188 186/186
f 188/188 175/175 180/180
f 180/180 189/189 188/188
f 190/190 191/191 192/192
f 191/191 190/190 193/193
f 193/193 194/194 191/191
f 195/195 193/193 190/190
f 192/192 196/196 190/190
f 196/196 192/192 197/197
f 190/190 198/198 195/195
f 197/197 199/199 196/196
f 200/200 196/196 199/199
f 200/200 199/199 201/201
f 201/201 202/202 200/200
f 198/198 200/200 202/202
f 202/202 203/203 198/198
f 195/195 198/198 203/203
f 203/203 204/204 195/195
f 205/205 206/206 207/207
f 207/207 208/208 205/205
f 206/206 205/205 209/209
f 209/209 210/210 206/206
f 206/206 210/210 211/211
f 211/211 212/212 206/206
f 207/207 206/206 212/212
f 213/213 208/208 207/207
f 212/212 214/214 207/207
f 207/207 215/215 213/213
f 207/207 214/214 216/216
f 216/216 215/215 207/207
f 217/217 218/218 219/219
f 220/220 219/219 218/218
f 218/218 221/221 220/220
f 222/222 221/221 218/218
f 217/217 223/223 218/218
f 223/223 217/217 224/224
f 217/217 225/225 224/224
f 224/224 226/226 223/223
f 227/227 228/228 229/229
f 228/228 227/227 230/230
f 229/229 231/231 227/227
f 230/230 232/232 228/228
f 231/231 229/229 233/233
f 232/232 230/230 234/234
f 233/233 235/235 231/231
f 234/234 236/236 232/232
f 235/235 233/233 237/237
f 236/236 234/234 238/238
f 237/237 239/239 235/235
f 238/238 240/240 236/236
f 239/239 237/237 241/241
f 240/240 238/238 242/242
f 241/241 243/243 239/239
f 242/242 244/244 240/240
f 243/243 241/241 245/245
f 244/244 242/242 246/246
f 245/245 247/247 243/243
f 246/246 248/248 244/244
f 247/247 245/245 249/249
f 248/248 246/246 250/250
f 249/249 251/251 247/247
f 250/250 252/252 248/248
f 251/251 249/249 253/253
f 252/252 250/250 254/254
f 253/253 255/255 251/251
f 254/254 256/256 252/252
f 255/255 253/253 257/257
f 256/256 254/254 258/258
f 257/257 259/259 255/255
f 258/258 260/260 256/256
f 259/259 257/257 261/261
f 260/260 258/258 262/262
f 262/262 263/263 260/260
f 259/259 261/261 264/264
f 263/263 262/262 265/265
f 264/264 266/266 259/259
f 265/265 267/267 263/263
f 266/266 264/264 268/268
f 267/267 265/265 269/269
f 268/268 270/270 266/266
f 269/269 271/271 267/267
f 270/270 268/268 272/272
f 271/271 269/269 273/273
f 272/272 274/274 270/270
f 273/273 275/275 271/271
f 274/274 272/272 276/276
f 275/275 273/273 277/277
f 276/276 278/278 274/274
f 277/277 279/279 275/275
f 278/278 276/276 280/280
f 279/279 277/277 281/281
f 280/280 282/282 278/278
f 281/281 283/283 279/279
f 282/282 280/280 284/284
f 283/283 281/281 285/285
f 284/284 286/286 282/282
f 285/285 287/287 283/283
f 286/286 284/284 288/288
f 287/287 285/285 289/289
f 288/288 290/290 286/286
f 289/289 291/291 287/287
f 290/290 288/288 292/292
f 291/291 289/289 293/293
f 292/292 294/294 290/290
f 293/293 295/295 291/291
f 294/294 292/292 296/296
f 295/295 293/293 297/297
f 296/296 298/298 294/294
f 297/297 299/299 295/295
f 298/298 296/296 300/300
f 299/299 297/297 301/301
f 300/300 301/301 298/298
f 301/301 300/300 299/299
f 302/302 303/303 304/304
f 304/304 305/305 302/302
f 306/306 307/307 308/308
f 308/308 309/309 306/306
f 310/310 311/311 312/312
f 312/312 313/313 310/310
f 314/314 315/315 316/316
f 316/316 317/317 314/314
f 318/318 319/319 320/320
f 320/320 321/321 318/318
f 322/322 323/323 324/324
f 324/324 325/325 322/322
f 326/326 327/327 328/328
f 328/328 329/329 326/326
f 330/330 331/331 332/332
f 332/332 333/333 330/330
f 334/334 335/335 336/336
f 335/335 334/334 337/337
f 337/337 338/338 335/335
f 335/335 338/338 339/339
f 339/339 340/340 335/335
f 336/336 335/335 340/340
f 336/336 341/341 334/334
f 341/341 336/336 342/342
f 342/342 343/343 341/341
f 336/336 344/344 342/342
f 345/345 346/346 347/347
f 347/347 348/348 345/345
f 349/349 347/347 346/346
f 346/346 350/350 349/349
f 351/351 350/350 346/346
f 346/346 352/352 351/351
f 352/352 346/346 345/345
f 345/345 348/348 353/353
f 345/345 354/354 352/352
f 353/353 355/355 345/345
f 356/356 354/354 345/345
f 345/345 355/355 356/356
f 357/357 358/358 359/359
f 358/358 357/357 360/360
f 360/360 361/361 358/358
f 359/359 362/362 357/357
f 363/363 358/358 361/361
f 363/363 361/361 364/364
f 364/364 365/365 363/363
f 366/366 363/363 365/365
f 365/365 367/367 366/366
f 368/368 366/366 367/367
f 359/359 366/366 368/368
f 367/367 369/369 368/368
f 362/362 359/359 368/368
f 368/368 370/370 362/362
f 371/371 372/372 373/373
f 374/374 373/373 372/372
f 372/372 375/375 374/374
f 373/373 374/374 376/376
f 373/373 377/377 371/371
f 378/378 371/371 377/377
f 377/377 379/379 378/378
f 376/376 380/380 373/373
f 379/379 377/377 381/381
f 381/381 382/382 379/379
f 383/383 382/382 381/381
f 381/381 384/384 383/383
f 384/384 381/381 380/380
f 380/380 385/385 384/384
f 385/385 380/380 376/376
f 376/376 386/386 385/385
f 387/387 388/388 389/389
f 390/390 391/391 388/388
f 388/388 387/387 390/390
f 392/392 390/390 387/387
f 387/387 393/393 392/392
f 389/389 394/394 387/387
f 393/393 387/387 394/394
f 394/394 389/389 395/395
f 395/395 396/396 394/394
f 397/397 392/392 393/393
f 398/398 394/394 396/396
f 394/394 398/398 393/393
f 393/393 398/398 399/399
f 400/400 401/401 399/399
f 399/399 402/402 393/393
f 402/402 399/399 401/401
f 393/393 402/402 397/397
f 401/401 403/403 402/402
f 404/404 397/397 402/402
f 402/402 403/403 404/404
f 405/405 406/406 407/407
f 408/408 409/409 406/406
f 406/406 405/405 408/408
f 410/410 408/408 405/405
f 407/407 411/411 405/405
f 411/411 407/407 412/412
f 405/405 413/413 410/410
f 413/413 405/405 411/411
f 414/414 410/410 413/413
f 411/411 415/415 413/413
f 413/413 416/416 414/414
f 416/416 413/413 415/415
f 417/417 414/414 416/416
f 416/416 418/418 417/417
f 419/419 418/418 416/416
f 415/415 420/420 416/416
f 416/416 420/420 419/419
f 421/421 419/419 420/420
f 422/422 423/423 424/424
f 425/425 424/424 423/423
f 423/423 426/426 425/425
f 424/424 427/427 422/422
f 428/428 422/422 427/427
f 427/427 429/429 428/428
f 422/422 428/428 430/430
f 430/430 431/431 422/422
f 423/423 422/422 431/431
f 431/431 430/430 432/432
f 426/426 423/423 433/433
f 431/431 433/433 423/423
f 433/433 434/434 426/426
f 435/435 434/434 433/433
f 433/433 436/436 435/435
f 436/436 433/433 431/431
f 437/437 435/435 436/436
f 436/436 438/438 437/437
f 431/431 439/439 436/436
f 438/438 436/436 439/439
f 432/432 439/439 431/431
f 439/439 440/440 438/438
f 439/439 432/432 441/441
f 441/441 440/440 439/439
f 442/442 443/443 444/444
f 445/445 444/444 443/443
f 443/443 446/446 445/445
f 444/444 447/447 442/442
f 448/448 442/442 447/447
f 447/447 449/449 448/448
f 442/442 448/448 450/450
f 450/450 451/451 442/442
f 443/443 442/442 451/451
f 451/451 450/450 452/452
f 446/446 443/443 453/453
f 451/451 453/453 443/443
f 453/453 454/454 446/446
f 452/452 455/455 451/451
f 453/453 451/451 455/455
f 455/455 452/452 456/456
f 456/456 457/457 455/455
f 455/455 457/457 458/458
f 455/455 459/459 453/453
f 454/454 453/453 459/459
f 458/458 459/459 455/455
f 459/459 460/460 454/454
f 459/459 458/458 461/461
f 461/461 460/460 459/459
f 462/462 463/463 464/464
f 465/465 466/466 463/463
f 463/463 462/462 465/465
f 467/467 465/465 462/462
f 464/464 468/468 462/462
f 468/468 464/464 469/469
f 469/469 470/470 468/468
f 462/462 471/471 467/467
f 471/471 462/462 468/468
f 472/472 467/467 471/471
f 471/471 473/473 472/472
f 468/468 474/474 471/471
f 473/473 471/471 474/474
f 474/474 468/468 470/470
f 474/474 475/475 473/473
f 470/470 476/476 474/474
f 475/475 474/474 476/476
f 476/476 477/477 475/475
f 478/478 479/479 480/480
f 480/480 479/479 481/481
f 481/481 482/482 480/480
f 480/480 483/483 478/478
f 484/484 478/478 483/483
f 483/483 485/485 484/484
f 478/478 484/484 486/486
f 486/486 487/487 478/478
f 479/479 478/478 487/487
f 487/487 486/486 488/488
f 488/488 489/489 487/487
f 487/487 490/490 479/479
f 490/490 487/487 489/489
f 481/481 479/479 490/490
f 489/489 491/491 490/490
f 490/490 492/492 481/481
f 492/492 490/490 491/491
f 491/491 493/493 492/492
f 494/494 495/495 496/496
f 497/497 496/496 495/495
f 495/495 498/498 497/497
f 496/496 499/499 494/494
f 500/500 494/494 499/499
f 499/499 501/501 500/500
f 494/494 500/500 502/502
f 502/502 503/503 494/494
f 495/495 494/494 503/503
f 503/503 502/502 504/504
f 504/504 505/505 503/503
f 503/503 506/506 495/495
f 506/506 503/503 505/505
f 498/498 495/495 506/506
f 505/505 507/507 506/506
f 506/506 508/508 498/498
f 508/508 506/506 507/507
f 507/507 509/509 508/508
f 510/510 511/511 512/512
f 513/513 514/514 511/511
f 511/511 510/510 513/513
f 515/515 513/513 510/510
f 510/510 516/516 515/515
f 517/517 515/515 516/516
f 516/516 518/518 517/517
f 516/516 510/510 519/519
f 512/512 519/519 510/510
f 516/516 520/520 518/518
f 521/521 519/519 512/512
f 516/516 519/519 521/521
f 512/512 522/522 521/521
f 521/521 523/523 516/516
f 520/520 516/516 523/523
f 523/523 524/524 520/520
f 525/525 526/526 527/527
f 528/528 526/526 525/525
f 525/525 527/527 529/529
f 525/525 529/529 530/530
f 527/527 531/531 529/529
f 531/531 532/532 529/529
f 527/527 533/533 531/531
f 533/533 534/534 531/531
f 527/527 535/535 533/533
f 528/528 525/525 536/536
f 525/525 537/537 536/536
f 528/528 536/536 538/538
f 536/536 539/539 538/538
f 528/528 538/538 540/540
f 538/538 541/541 540/540
f 528/528 540/540 542/542
f 543/543 526/526 544/544
f 526/526 543/543 527/527
f 544/544 526/526 545/545
f 545/545 546/546 544/544
f 528/528 545/545 526/526
f 547/547 544/544 546/546
f 543/543 544/544 547/547
f 547/547 546/546 548/548
f 549/549 543/543 547/547
f 548/548 550/550 551/551
f 548/548 551/551 552/552
f 551/551 553/553 552/552
f 547/547 548/548 552/552
f 552/552 554/554 555/555
f 547/547 552/552 555/555
f 547/547 555/555 556/556
f 549/549 557/557 558/558
f 549/549 559/559 557/557
f 549/549 547/547 559/559
f 559/559 560/560 557/557
f 547/547 561/561 559/559
f 561/561 562/562 559/559
f 547/547 563/563 561/561
