v -0.154695421 0.204222187 0.00418780046
v -0.196913242 0.204999998 0.00606561778
v 0.126944631 0.204999998 0.00606561778
v -0.196913242 0.204222187 0.00418780046
v -0.196913242 0.205000013 0.296746701
v -0.196913242 0.204264238 0.298664391
v -0.154695436 0.204264253 0.298664391
v -0.0553149953 0.204264253 0.298664391
v 0.126944661 0.205000043 0.296746701
v 0.126944661 0.204264253 0.298664391
v 0.126944661 0.205000043 0.285119444
v 0.126944646 0.205000013 0.14001146
v 0.126944631 0.204222187 0.00418780046
v -0.160480529 0.192562297 1.60966405e-08
v -0.192433164 0.192562297 1.60966405e-08
v -0.192433164 0.192562297 0.00850865897
v -0.160480529 0.192562297 0.00850865897
v -0.0553149953 0.204264253 0.298664391
v -0.0210382044 0.203150257 0.299902469
v 0.126944661 0.203150228 0.299902469
v 0.126944661 0.204264253 0.298664391
v 0.126944661 0.201320559 0.300835848
v 0.0847267956 0.201320559 0.300835848
v -0.0210382044 0.201320574 0.300835878
v -0.0553149953 0.203150257 0.299902469
v -0.154695436 0.204264253 0.298664391
v -0.154695436 0.201320559 0.300835848
v -0.196913242 0.204264238 0.298664391
v -0.196913242 0.203150213 0.299902469
v -0.196913242 0.201320529 0.300835848
v -0.192433164 -0.192703202 -4.27887064e-17
v -0.192433164 -0.175685927 -3.90101123e-17
v -0.160480559 -0.175685927 -3.90101123e-17
v -0.160480559 -0.192703202 -4.27887064e-17
v -0.192433164 0.175545007 1.60966405e-08
v -0.192433164 0.192562297 1.60966405e-08
v -0.160480529 0.192562297 1.60966405e-08
v -0.160480529 0.175545007 1.60966405e-08
v -0.196913213 -0.201299995 0.00236561778
v -0.154695436 -0.20317781 0.00314343488
v -0.196913213 -0.20317781 0.00314343488
v -0.196913213 -0.204222187 0.00418780046
v -0.154695436 -0.204222187 0.00418780046
v -0.14946048 -0.204222187 0.00418781303
v 0.126944661 -0.201299995 0.00236561778
v 0.0731071904 -0.20317784 0.00314344396
v 0.0731071904 -0.204222187 0.00418781303
v -0.196913242 0.20317781 0.00314343511
v -0.196913242 0.204222187 0.00418780046
v -0.154695421 0.204222187 0.00418780046
v -0.196913242 0.201299995 0.00236561825
v 0.126944631 0.20317781 0.00314343511
v 0.126944631 0.204222187 0.00418780046
v 0.126944631 0.201299995 0.00236561825
v 0.126944661 0.114675075 0.00236562709
v 0.126944646 -0.0454862565 0.00236561778
v 0.0847267956 -0.20317781 0.00314343488
v 0.126944661 -0.20317781 0.00314343488
v 0.0847267956 -0.204222187 0.00418780046
v 0.126944661 -0.204222187 0.00418780046
v -0.130173281 -0.204999998 0.0363177955
v -0.12864773 -0.204099998 0.0356264338
v 0.0522945002 -0.204099998 0.0356264338
v -0.133401543 -0.204999998 0.0352006033
v 0.0538200475 -0.204999998 0.0363177955
v -0.133537039 -0.204099998 0.0341301449
v -0.138061672 -0.204999998 0.0321278349
v -0.137311786 -0.204099998 0.0315871462
v 0.0571837872 -0.204099998 0.0341301449
v 0.0570482984 -0.204999998 0.0352006033
v 0.0609585345 -0.204099998 0.0315871462
v 0.0617084242 -0.204999998 0.0321278311
v -0.0210382044 0.114862509 0.274023145
v -0.0553149953 0.112087943 0.233611584
v -0.154695436 0.112087943 0.233611584
v -0.154695436 0.114862517 0.274023145
v -0.0210382044 0.112087935 0.233611584
v 0.0847267881 0.114862509 0.274023145
v 0.0847267881 0.112087935 0.233611584
v -0.12864773 -0.164586678 0.0356264338
v 0.0522945002 -0.164586678 0.0356264338
v 0.0522945002 -0.204099998 0.0356264338
v 0.0571837872 -0.204099998 0.0341301449
v -0.12864773 -0.204099998 0.0356264338
v 0.0571837872 -0.164586678 0.0341301449
v -0.133537039 -0.164586678 0.0341301449
v 0.0609585345 -0.204099998 0.0315871462
v -0.133537039 -0.204099998 0.0341301449
v 0.0609585345 -0.164586678 0.0315871462
v 0.0642089024 -0.204099998 0.0275998488
v 0.0642089024 -0.164586678 0.0275998488
v -0.137311786 -0.164586678 0.0315871462
v -0.137311786 -0.204099998 0.0315871462
v -0.140562147 -0.164586678 0.0275998544
v -0.140562147 -0.204099998 0.0275998544
v 0.0847267956 -0.204999998 0.00606561732
v 0.0847267956 -0.204222187 0.00418780046
v 0.126944661 -0.204222187 0.00418780046
v 0.126944661 -0.204999998 0.00606561732
v 0.0731071904 -0.204655588 0.0052341437
v 0.0740712285 -0.204999998 0.00606563408
v 0.0731071904 -0.204222187 0.00418781303
v 0.0722177699 -0.204999998 0.00606563548
v 0.0731071904 -0.204099998 0.00606563548
v -0.14946048 -0.204655588 0.0052341437
v -0.148571059 -0.204999998 0.00606563548
v -0.14946048 -0.204222187 0.00418781303
v -0.15042451 -0.204999998 0.00606563222
v -0.14946048 -0.204099998 0.00606563548
v -0.154695436 -0.204999998 0.00606561732
v -0.154695436 -0.204222187 0.00418780046
v -0.196913213 -0.204999998 0.00606561732
v -0.196913213 -0.204222187 0.00418780046
v 0.188174903 -0.159966111 0.300477833
v 0.187469587 -0.160027117 0.301175147
v 0.187283218 -0.160971642 0.301092535
v 0.187934831 -0.161182731 0.300371379
v 0.187934831 -0.161182731 0.300371379
v 0.187283218 -0.160971642 0.301092535
v 0.186752439 -0.161772385 0.30102247
v 0.186752439 -0.161772385 0.30102247
v 0.18725118 -0.16221413 0.300281137
v 0.187934831 -0.161182731 0.300371379
v 0.189853102 -0.127735943 0.303860366
v 0.18877247 -0.127829418 0.30492875
v 0.188486919 -0.129276559 0.30480215
v 0.189485297 -0.129599944 0.303697288
v 0.189485297 -0.125871941 0.304023445
v 0.188486919 -0.126382291 0.30505538
v 0.18877247 -0.127829418 0.30492875
v 0.189853102 -0.127735943 0.303860366
v 0.168986201 -0.161182731 0.300371379
v 0.168334588 -0.160971642 0.301092535
v 0.167803809 -0.161772385 0.30102247
v 0.167803809 -0.161772385 0.30102247
v 0.168302551 -0.16221413 0.300281137
v 0.168986201 -0.161182731 0.300371379
v 0.189485297 -0.129599944 0.303697288
v 0.188486919 -0.129276559 0.30480215
v 0.187673733 -0.130503371 0.304694831
v 0.188437849 -0.131180167 0.303559035
v 0.169226274 -0.159966111 0.300477833
v 0.168520957 -0.160027117 0.301175147
v 0.168334588 -0.160971642 0.301092535
v 0.168986201 -0.161182731 0.300371379
v 0.187934831 -0.158749491 0.300584257
v 0.187283218 -0.159082592 0.301257789
v 0.187469587 -0.160027117 0.301175147
v 0.187469587 -0.160027117 0.301175147
v 0.188174903 -0.159966111 0.300477833
v 0.187934831 -0.158749491 0.300584257
v 0.18725118 -0.16221413 0.300281137
v 0.186752439 -0.161772385 0.30102247
v 0.185958117 -0.162307411 0.30097568
v 0.185958117 -0.162307411 0.30097568
v 0.186228022 -0.162903294 0.300220847
v 0.18725118 -0.16221413 0.300281137
v 0.189853102 -0.127219558 0.297958106
v 0.189485297 -0.125355557 0.298121184
v 0.189485297 -0.125871941 0.304023445
v 0.188437849 -0.124291703 0.304161668
v 0.188437849 -0.123775333 0.298259437
v 0.189853102 -0.127735943 0.303860366
v 0.189485297 -0.129083574 0.297795027
v 0.189485297 -0.129599944 0.303697288
v 0.188437849 -0.130663797 0.297656775
v 0.188437849 -0.131180167 0.303559035
v 0.188174903 -0.159629077 0.296625495
v 0.187934831 -0.158412471 0.296731949
v 0.187934831 -0.158749491 0.300584257
v 0.18725118 -0.157718107 0.300674498
v 0.18725118 -0.157381073 0.29682216
v 0.188174903 -0.159966111 0.300477833
v 0.187934831 -0.160845697 0.296519041
v 0.187934831 -0.161182731 0.300371379
v 0.18725118 -0.161877096 0.296428829
v 0.18725118 -0.16221413 0.300281137
v 0.150037572 -0.161182731 0.300371379
v 0.149385944 -0.160971642 0.301092535
v 0.148855194 -0.161772385 0.30102247
v 0.148855194 -0.161772385 0.30102247
v 0.149353921 -0.16221413 0.300281137
v 0.150037572 -0.161182731 0.300371379
v 0.168302551 -0.16221413 0.300281137
v 0.167803809 -0.161772385 0.30102247
v 0.167009488 -0.162307411 0.30097568
v 0.167009488 -0.162307411 0.30097568
v 0.167279392 -0.162903294 0.300220847
v 0.168302551 -0.16221413 0.300281137
v 0.150277644 -0.159966111 0.300477833
v 0.149572328 -0.160027117 0.301175147
v 0.149385944 -0.160971642 0.301092535
v 0.150037572 -0.161182731 0.300371379
v 0.168986201 -0.158749491 0.300584257
v 0.168334588 -0.159082592 0.301257789
v 0.168520957 -0.160027117 0.301175147
v 0.168520957 -0.160027117 0.301175147
v 0.169226274 -0.159966111 0.300477833
v 0.168986201 -0.158749491 0.300584257
v 0.188437849 -0.124291703 0.304161668
v 0.187673733 -0.125155464 0.305162728
v 0.188486919 -0.126382291 0.30505538
v 0.189485297 -0.125871941 0.304023445
v 0.149353921 -0.16221413 0.300281137
v 0.148855194 -0.161772385 0.30102247
v 0.148060843 -0.162307411 0.30097568
v 0.148060843 -0.162307411 0.30097568
v 0.148330763 -0.162903294 0.300220847
v 0.149353921 -0.16221413 0.300281137
v 0.188437849 -0.131180167 0.303559035
v 0.187673733 -0.130503371 0.304694831
v 0.186456695 -0.131323114 0.304623097
v 0.186456695 -0.131323114 0.304623097
v 0.186870247 -0.132236049 0.303466648
v 0.188437849 -0.131180167 0.303559035
v 0.169226274 -0.159629077 0.296625495
v 0.168986201 -0.158412471 0.296731949
v 0.168986201 -0.158749491 0.300584257
v 0.168302551 -0.157718107 0.300674498
v 0.168302551 -0.157381073 0.29682216
v 0.169226274 -0.159966111 0.300477833
v 0.168986201 -0.160845697 0.296519041
v 0.168986201 -0.161182731 0.300371379
v 0.168302551 -0.161877096 0.296428829
v 0.168302551 -0.16221413 0.300281137
v -0.021038197 -0.204999968 0.26797682
v -0.021038197 -0.204100624 0.270058334
v -0.0218068678 -0.204102933 0.268161356
v -0.0232342482 -0.204106212 0.266702473
v -0.0232342444 -0.204999968 0.26572451
v -0.021038197 -0.204999968 0.26797682
v -0.0218068678 -0.204102933 0.268161356
v -0.0250899792 -0.204108521 0.265916914
v -0.0235855263 -0.204999968 0.265415102
v 0.150037572 -0.158749491 0.300584257
v 0.149385944 -0.159082592 0.301257789
v 0.149572328 -0.160027117 0.301175147
v 0.149572328 -0.160027117 0.301175147
v 0.150277644 -0.159966111 0.300477833
v 0.150037572 -0.158749491 0.300584257
v 0.18725118 -0.157718107 0.300674498
v 0.186752439 -0.158281863 0.301327854
v 0.187283218 -0.159082592 0.301257789
v 0.187934831 -0.158749491 0.300584257
v -0.0553149842 -0.204257846 0.293839872
v -0.154695421 -0.203152537 0.29504928
v -0.196913257 -0.203152567 0.29504928
v -0.196913257 -0.204257891 0.293839902
v -0.196913257 -0.201314911 0.295959949
v -0.154695421 -0.201314881 0.295959949
v -0.021038197 -0.204257846 0.293839872
v -0.0553149842 -0.201314881 0.29595992
v -0.021038197 -0.203152537 0.29504928
v 0.0847268254 -0.204257876 0.293839902
v -0.021038197 -0.201314881 0.29595992
v 0.0847268254 -0.203152537 0.29504928
v 0.126944631 -0.204257876 0.293839902
v 0.0847268254 -0.201314881 0.295959949
v 0.126944631 -0.203152537 0.29504928
v 0.126944631 -0.201314881 0.295959949
v 0.186228022 -0.162903294 0.300220847
v 0.185958117 -0.162307411 0.30097568
v 0.185021117 -0.162495285 0.300959229
v 0.185021117 -0.163145274 0.300199687
v 0.167279392 -0.162903294 0.300220847
v 0.167009488 -0.162307411 0.30097568
v 0.166072488 -0.162495285 0.300959229
v 0.166072488 -0.163145274 0.300199687
v -0.196913257 -0.204999983 0.291927934
v -0.196913257 -0.204999983 0.281600982
v -0.154695421 -0.204999968 0.281593442
v -0.0553149842 -0.204999968 0.281593442
v -0.0553149842 -0.204257846 0.293839872
v -0.196913257 -0.204257891 0.293839902
v -0.021038197 -0.204999968 0.281593442
v 0.126944631 -0.204999968 0.291927934
v -0.021038197 -0.204257846 0.293839872
v 0.0847268254 -0.204257876 0.293839902
v 0.126944631 -0.204999968 0.281600982
v 0.126944631 -0.204257876 0.293839902
v 0.148330763 -0.162903294 0.300220847
v 0.148060843 -0.162307411 0.30097568
v 0.147123858 -0.162495285 0.300959229
v 0.147123858 -0.163145274 0.300199687
v 0.084726803 -0.202099979 0.13819097
v 0.125166938 -0.202719778 0.138191074
v 0.126944646 -0.204999983 0.138891071
v 0.049508296 -0.204999998 0.138890952
v 0.049508296 -0.202099994 0.138190955
v -0.12586154 -0.204999998 0.138890952
v -0.12586154 -0.202099994 0.138190955
v -0.154695421 -0.202099979 0.13819097
v -0.195135534 -0.202719808 0.138191074
v -0.196913242 -0.204999998 0.138891071
v -0.0539314449 -0.150064349 0.300677955
v -0.0539314449 -0.100910164 0.305106729
v -0.0546232164 -0.0999437794 0.302181661
v -0.0546232164 -0.150492311 0.29762727
v 0.084726803 -0.204999983 0.136690974
v 0.0847267956 -0.204999998 0.00606561732
v 0.126944661 -0.204999998 0.00606561732
v 0.126944646 -0.204999983 0.136690855
v 0.049508296 -0.204999998 0.136690959
v 0.0628767908 -0.204999998 0.0315950401
v 0.0740712285 -0.204999998 0.00606563408
v 0.0625071302 -0.204999998 0.0327037089
v 0.0570482984 -0.204999998 0.0352006033
v 0.0617084242 -0.204999998 0.0321278311
v 0.0538200475 -0.204999998 0.0363177955
v -0.130173281 -0.204999998 0.0363177955
v -0.125861511 -0.204999998 0.136690959
v 0.0628767908 -0.204999998 0.0315950401
v 0.0617084242 -0.204999998 0.0321278311
v 0.0642089024 -0.204099998 0.0275998488
v 0.0609585345 -0.204099998 0.0315871462
v -0.133401543 -0.204999998 0.0352006033
v -0.138061672 -0.204999998 0.0321278349
v -0.139230028 -0.204999998 0.0315950401
v -0.15042451 -0.204999998 0.00606563222
v -0.154695421 -0.204999983 0.136690974
v -0.154695436 -0.204999998 0.00606561732
v -0.196913213 -0.204999998 0.00606561732
v -0.196913242 -0.204999998 0.136690855
v -0.154695421 -0.204999968 0.279393435
v -0.196913257 -0.204999983 0.279385865
v -0.196913242 -0.204999998 0.138891071
v -0.12586154 -0.204999998 0.138890952
v -0.0553149842 -0.204999968 0.26797682
v -0.0562044047 -0.204999968 0.279393435
v -0.053118933 -0.204999968 0.26572451
v -0.0527676493 -0.204999968 0.265415102
v -0.0235855263 -0.204999968 0.265415102
v 0.049508296 -0.204999998 0.138890952
v -0.0232342444 -0.204999968 0.26572451
v -0.021038197 -0.204999968 0.26797682
v -0.0201487821 -0.204999968 0.279393435
v 0.0847268254 -0.204999968 0.279393435
v 0.126944631 -0.204999968 0.279385865
v 0.126944646 -0.204999983 0.138891071
v 0.168302551 -0.157718107 0.300674498
v 0.167803809 -0.158281863 0.301327854
v 0.168334588 -0.159082592 0.301257789
v 0.168986201 -0.158749491 0.300584257
v 0.150277644 -0.159629077 0.296625495
v 0.150037572 -0.158412471 0.296731949
v 0.150037572 -0.158749491 0.300584257
v 0.149353921 -0.157718107 0.300674498
v 0.149353921 -0.157381073 0.29682216
v 0.150277644 -0.159966111 0.300477833
v 0.150037572 -0.160845697 0.296519041
v 0.150037572 -0.161182731 0.300371379
v 0.149353921 -0.161877096 0.296428829
v 0.149353921 -0.16221413 0.300281137
v 0.049508296 -0.202099994 0.137390956
v 0.049508296 -0.202099994 0.138190955
v -0.12586154 -0.202099994 0.138190955
v 0.084726803 -0.202099979 0.137390971
v -0.125861511 -0.202099994 0.137390956
v 0.084726803 -0.202099979 0.13819097
v 0.125186294 -0.202715486 0.137390852
v 0.125166938 -0.202719778 0.138191074
v -0.154695421 -0.202099979 0.13819097
v -0.154695421 -0.202099979 0.137390971
v -0.195135534 -0.202719808 0.138191074
v -0.19515489 -0.202715516 0.137390852
v -0.021038197 -0.201640993 0.269703001
v -0.021038197 -0.201640993 0.278908193
v -0.0553149842 -0.201640993 0.278908193
v -0.0553149916 -0.201772079 0.279246718
v -0.0232342482 -0.201640993 0.266346335
v -0.0218068678 -0.201640993 0.267805696
v -0.0512631983 -0.201640993 0.265560448
v -0.0250899792 -0.201640993 0.265560448
v -0.0545463152 -0.201640993 0.267805696
v -0.053118933 -0.201640993 0.266346335
v -0.0553149842 -0.201640993 0.269703001
v -0.0219275989 -0.202099949 0.280093431
v -0.0210381933 -0.201772079 0.279246718
v -0.020148769 -0.202099949 0.280093431
v -0.0210381933 -0.202099949 0.280893445
v -0.0544255786 -0.202099949 0.280093431
v -0.0562044121 -0.202099949 0.280093431
v -0.0553149991 -0.202099949 0.280893445
v -0.154695481 -0.202099949 0.280093431
v -0.154695481 -0.202099949 0.280893445
v -0.195229664 -0.202698827 0.280900985
v -0.195070565 -0.202733606 0.280085862
v -0.020148769 -0.202099949 0.280093431
v 0.0847268775 -0.202099949 0.280093431
v 0.0847268775 -0.202099949 0.280893445
v 0.125101954 -0.202733591 0.280085862
v 0.125261039 -0.202698797 0.280900985
v -0.0201487821 -0.204999968 0.279393435
v -0.021038197 -0.203690931 0.279204339
v -0.021038197 -0.204100624 0.270058334
v -0.021038197 -0.204999968 0.26797682
v 0.186870247 -0.123235829 0.304254085
v 0.186456695 -0.124335721 0.305234432
v 0.187673733 -0.125155464 0.305162728
v 0.188437849 -0.124291703 0.304161668
v 0.149353921 -0.157718107 0.300674498
v 0.148855194 -0.158281863 0.301327854
v 0.149385944 -0.159082592 0.301257789
v 0.150037572 -0.158749491 0.300584257
v -0.192433164 -0.192703202 -4.27887064e-17
v -0.160480559 -0.192703202 -4.27887064e-17
v -0.160480559 -0.192703202 0.00850864314
v -0.192433164 -0.192703202 0.00850864314
v 0.186870247 -0.132236049 0.303466648
v 0.186456695 -0.131323114 0.304623097
v 0.185021117 -0.13161096 0.304597944
v 0.185021117 -0.132606834 0.303434223
v -0.137311786 -0.204099998 0.0315871462
v -0.138061672 -0.204999998 0.0321278349
v -0.139230028 -0.204999998 0.0315950401
v -0.140562147 -0.204099998 0.0275998544
v -0.0553149842 -0.0468805842 0.309874356
v -0.0553149842 -0.0454862304 0.308600008
v -0.154695421 -0.0454862304 0.308600008
v -0.154695421 -0.0468805842 0.309874356
v 0.0847268254 -0.0468805842 0.309874356
v 0.0847268254 -0.0454862304 0.308600008
v -0.020148769 -0.202099949 0.280093431
v -0.0210381933 -0.201772079 0.279246718
v -0.021038197 -0.203690931 0.279204339
v -0.0201487821 -0.204999968 0.279393435
v -0.0235855263 -0.204999968 0.265415102
v -0.0250899792 -0.204108521 0.265916914
v -0.0512631983 -0.204108521 0.265916914
v -0.0527676493 -0.204999968 0.265415102
v 0.0847268254 0.0588174611 0.280790776
v 0.0847267881 0.114862509 0.274023145
v -0.0210382044 0.114862509 0.274023145
v -0.021038197 0.0588174686 0.280790776
v 0.0847268254 -0.0454862304 0.303784996
v -0.0553149842 -0.0454862304 0.303784996
v -0.0553149842 0.0588174686 0.280790776
v -0.154695436 0.114862517 0.274023145
v -0.154695421 0.0588174723 0.280790776
v -0.154695421 -0.0454862304 0.303784996
v 0.147123858 -0.163145274 0.300199687
v 0.147123858 -0.162495285 0.300959229
v 0.146186873 -0.162307411 0.30097568
v 0.145916954 -0.162903294 0.300220847
v 0.186228022 -0.157028943 0.300734788
v 0.185958117 -0.157746837 0.301374674
v 0.186752439 -0.158281863 0.301327854
v 0.18725118 -0.157718107 0.300674498
v 0.181555316 -0.129276559 0.30480215
v 0.182368517 -0.130503371 0.304694831
v 0.183585554 -0.131323114 0.304623097
v 0.181555316 -0.126382291 0.30505538
v 0.18126978 -0.127829418 0.30492875
v 0.185021117 -0.13161096 0.304597944
v 0.186456695 -0.131323114 0.304623097
v 0.188486919 -0.129276559 0.30480215
v 0.187673733 -0.130503371 0.304694831
v 0.183585554 -0.124335721 0.305234432
v 0.182368517 -0.125155464 0.305162728
v 0.186456695 -0.124335721 0.305234432
v 0.185021117 -0.124047868 0.305259615
v 0.188486919 -0.126382291 0.30505538
v 0.187673733 -0.125155464 0.305162728
v 0.18877247 -0.127829418 0.30492875
v 0.166072488 -0.163145274 0.300199687
v 0.166072488 -0.162495285 0.300959229
v 0.165135503 -0.162307411 0.30097568
v 0.164865598 -0.162903294 0.300220847
v 0.144861788 -0.160971642 0.301092535
v 0.145392537 -0.161772385 0.30102247
v 0.146186873 -0.162307411 0.30097568
v 0.144861788 -0.159082592 0.301257789
v 0.144675404 -0.160027117 0.301175147
v 0.147123858 -0.162495285 0.300959229
v 0.148060843 -0.162307411 0.30097568
v 0.149385944 -0.160971642 0.301092535
v 0.148855194 -0.161772385 0.30102247
v 0.146186873 -0.157746837 0.301374674
v 0.145392537 -0.158281863 0.301327854
v 0.148060843 -0.157746837 0.301374674
v 0.147123858 -0.157558948 0.301391095
v 0.149385944 -0.159082592 0.301257789
v 0.148855194 -0.158281863 0.301327854
v 0.149572328 -0.160027117 0.301175147
v 0.163810402 -0.160971642 0.301092535
v 0.164341182 -0.161772385 0.30102247
v 0.165135503 -0.162307411 0.30097568
v 0.163810402 -0.159082592 0.301257789
v 0.163624018 -0.160027117 0.301175147
v 0.166072488 -0.162495285 0.300959229
v 0.167009488 -0.162307411 0.30097568
v 0.168334588 -0.160971642 0.301092535
v 0.167803809 -0.161772385 0.30102247
v 0.165135503 -0.157746837 0.301374674
v 0.164341182 -0.158281863 0.301327854
v 0.167009488 -0.157746837 0.301374674
v 0.166072488 -0.157558948 0.301391095
v 0.168334588 -0.159082592 0.301257789
v 0.167803809 -0.158281863 0.301327854
v 0.168520957 -0.160027117 0.301175147
v 0.182759032 -0.160971642 0.301092535
v 0.183289811 -0.161772385 0.30102247
v 0.184084132 -0.162307411 0.30097568
v 0.182759032 -0.159082592 0.301257789
v 0.182572648 -0.160027117 0.301175147
v 0.185021117 -0.162495285 0.300959229
v 0.185958117 -0.162307411 0.30097568
v 0.187283218 -0.160971642 0.301092535
v 0.186752439 -0.161772385 0.30102247
v 0.184084132 -0.157746837 0.301374674
v 0.183289811 -0.158281863 0.301327854
v 0.185958117 -0.157746837 0.301374674
v 0.185021117 -0.157558948 0.301391095
v 0.187283218 -0.159082592 0.301257789
v 0.186752439 -0.158281863 0.301327854
v 0.187469587 -0.160027117 0.301175147
v -0.0217299648 -0.099943772 0.302181661
v -0.0217299648 -0.150492311 0.29762727
v -0.021038197 -0.151449725 0.300452739
v -0.021038197 -0.0995068252 0.305132776
v -0.0539314449 -0.150064349 0.300677955
v -0.0224217325 -0.150064334 0.300677955
v -0.0224217325 -0.100910157 0.305106729
v -0.0539314449 -0.100910164 0.305106729
v 0.185021117 -0.163145274 0.300199687
v 0.185021117 -0.162495285 0.300959229
v 0.184084132 -0.162307411 0.30097568
v 0.183814228 -0.162903294 0.300220847
v 0.125101954 -0.202733591 0.280085862
v 0.0847268775 -0.202099949 0.280093431
v 0.0847268254 -0.204999968 0.279393435
v 0.126944631 -0.204999968 0.279385865
v -0.020148769 -0.202099949 0.280093431
v -0.0201487821 -0.204999968 0.279393435
v -0.154695481 -0.202099949 0.280093431
v -0.195070565 -0.202733606 0.280085862
v -0.196913257 -0.204999983 0.279385865
v -0.154695421 -0.204999968 0.279393435
v -0.0562044047 -0.204999968 0.279393435
v -0.0562044121 -0.202099949 0.280093431
v -0.0210382044 0.116067305 0.309852749
v -0.0210382044 0.201320574 0.300835878
v -0.154695436 0.201320559 0.300835848
v 0.0847267956 0.116067313 0.309852749
v -0.0553149953 0.116067305 0.309852749
v 0.0847267956 0.201320559 0.300835848
v -0.154695436 0.116067313 0.309852749
v -0.196913242 0.201320529 0.300835848
v -0.196913213 0.11467509 0.310000002
v -0.156078979 0.114675082 0.310000002
v -0.15607895 -0.0454862304 0.310000002
v 0.0861103386 0.114675082 0.310000002
v -0.196913242 -0.0454862304 0.310000002
v -0.154695421 -0.201314881 0.295959949
v -0.196913257 -0.201314911 0.295959949
v -0.154695421 -0.0468805842 0.309874356
v -0.0553149842 -0.201314881 0.29595992
v 0.126944661 0.11467509 0.310000002
v 0.126944661 0.201320559 0.300835848
v 0.126944646 -0.0454862304 0.310000002
v 0.0861103609 -0.0454862304 0.310000002
v 0.0847268254 -0.0468805842 0.309874356
v 0.126944631 -0.201314881 0.295959949
v 0.0847268254 -0.201314881 0.295959949
v -0.0553149842 -0.0468805842 0.309874356
v -0.021038197 -0.0995068252 0.305132776
v -0.0553149842 -0.0995068327 0.305132776
v -0.021038197 -0.151449725 0.300452739
v -0.021038197 -0.201314881 0.29595992
v -0.0553149842 -0.151449725 0.300452739
v 0.167279392 -0.157028943 0.300734788
v 0.167009488 -0.157746837 0.301374674
v 0.167803809 -0.158281863 0.301327854
v 0.168302551 -0.157718107 0.300674498
v -0.140562147 -0.164586678 0.0275998544
v -0.14946048 -0.164586678 0.00606563548
v 0.0731071904 -0.164586678 0.00606563548
v 0.0642089024 -0.164586678 0.0275998488
v 0.0609585345 -0.164586678 0.0315871462
v 0.0522945002 -0.164586678 0.0356264338
v 0.0571837872 -0.164586678 0.0341301449
v -0.133537039 -0.164586678 0.0341301449
v -0.12864773 -0.164586678 0.0356264338
v -0.137311786 -0.164586678 0.0315871462
v 0.148330763 -0.157028943 0.300734788
v 0.148060843 -0.157746837 0.301374674
v 0.148855194 -0.158281863 0.301327854
v 0.149353921 -0.157718107 0.300674498
v -0.021038197 -0.201640993 0.278908193
v -0.021038197 -0.201640993 0.269703001
v -0.021038197 -0.204100624 0.270058334
v -0.0218068678 -0.204102933 0.268161356
v -0.0218068678 -0.201640993 0.267805696
v -0.021038197 -0.203690931 0.279204339
v -0.0210381933 -0.201772079 0.279246718
v -0.0224217325 -0.150064334 0.300677955
v -0.0539314449 -0.150064349 0.300677955
v -0.0546232164 -0.150492311 0.29762727
v -0.0217299648 -0.150492311 0.29762727
v 0.185021117 -0.122865058 0.30428651
v 0.185021117 -0.124047868 0.305259615
v 0.186456695 -0.124335721 0.305234432
v 0.186870247 -0.123235829 0.304254085
v 0.144893795 -0.161877096 0.296428829
v 0.145916954 -0.162566245 0.29636851
v 0.145916954 -0.162903294 0.300220847
v 0.144893795 -0.16221413 0.300281137
v 0.147123858 -0.163145274 0.300199687
v 0.147123858 -0.162808239 0.29634735
v 0.148330763 -0.162903294 0.300220847
v 0.148330763 -0.162566245 0.29636851
v 0.149353921 -0.16221413 0.300281137
v 0.149353921 -0.161877096 0.296428829
v 0.163842425 -0.161877096 0.296428829
v 0.164865598 -0.162566245 0.29636851
v 0.164865598 -0.162903294 0.300220847
v 0.163842425 -0.16221413 0.300281137
v 0.166072488 -0.163145274 0.300199687
v 0.166072488 -0.162808239 0.29634735
v 0.167279392 -0.162903294 0.300220847
v 0.167279392 -0.162566245 0.29636851
v 0.168302551 -0.16221413 0.300281137
v 0.168302551 -0.161877096 0.296428829
v 0.182791054 -0.161877096 0.296428829
v 0.183814228 -0.162566245 0.29636851
v 0.183814228 -0.162903294 0.300220847
v 0.182791054 -0.16221413 0.300281137
v 0.185021117 -0.163145274 0.300199687
v 0.185021117 -0.162808239 0.29634735
v 0.186228022 -0.162903294 0.300220847
v 0.186228022 -0.162566245 0.29636851
v 0.18725118 -0.16221413 0.300281137
v 0.18725118 -0.161877096 0.296428829
v 0.0642089024 -0.164586678 0.0275998488
v 0.0731071904 -0.164586678 0.00606563548
v 0.0731071904 -0.204099998 0.00606563548
v 0.0642089024 -0.204099998 0.0275998488
v 0.0628767908 -0.204999998 0.0315950401
v 0.0740712285 -0.204999998 0.00606563408
v 0.185021117 -0.132606834 0.303434223
v 0.185021117 -0.13161096 0.304597944
v 0.183585554 -0.131323114 0.304623097
v 0.183172002 -0.132236049 0.303466648
v -0.0553149842 -0.0454862304 0.308600008
v -0.0553149842 -0.0454862304 0.303784996
v -0.154695421 -0.0454862304 0.303784996
v -0.154695421 -0.0454862304 0.308600008
v 0.0847268254 -0.0454862304 0.308600008
v 0.0847268254 -0.0454862304 0.303784996
v 0.0847268254 -0.0454862304 0.308600008
v 0.0847268254 -0.0468805842 0.309874356
v 0.0861103609 -0.0454862304 0.310000002
v 0.145916954 -0.162903294 0.300220847
v 0.146186873 -0.162307411 0.30097568
v 0.145392537 -0.161772385 0.30102247
v 0.144893795 -0.16221413 0.300281137
v 0.164865598 -0.162903294 0.300220847
v 0.165135503 -0.162307411 0.30097568
v 0.164341182 -0.161772385 0.30102247
v 0.163842425 -0.16221413 0.300281137
v 0.185021117 -0.156786948 0.300755948
v 0.185021117 -0.157558948 0.301391095
v 0.185958117 -0.157746837 0.301374674
v 0.185958117 -0.157746837 0.301374674
v 0.186228022 -0.157028943 0.300734788
v 0.185021117 -0.156786948 0.300755948
v 0.166072488 -0.156786948 0.300755948
v 0.166072488 -0.157558948 0.301391095
v 0.167009488 -0.157746837 0.301374674
v 0.167009488 -0.157746837 0.301374674
v 0.167279392 -0.157028943 0.300734788
v 0.166072488 -0.156786948 0.300755948
v 0.183814228 -0.162903294 0.300220847
v 0.184084132 -0.162307411 0.30097568
v 0.183289811 -0.161772385 0.30102247
v 0.182791054 -0.16221413 0.300281137
v 0.147123858 -0.156786948 0.300755948
v 0.147123858 -0.157558948 0.301391095
v 0.148060843 -0.157746837 0.301374674
v 0.148060843 -0.157746837 0.301374674
v 0.148330763 -0.157028943 0.300734788
v 0.147123858 -0.156786948 0.300755948
v 0.181604385 -0.130663797 0.297656775
v 0.183172002 -0.131719664 0.297564417
v 0.183172002 -0.132236049 0.303466648
v 0.181604385 -0.131180167 0.303559035
v 0.185021117 -0.132606834 0.303434223
v 0.185021117 -0.132090449 0.297531962
v 0.186870247 -0.132236049 0.303466648
v 0.186870247 -0.131719664 0.297564417
v 0.188437849 -0.131180167 0.303559035
v 0.188437849 -0.130663797 0.297656775
v 0.0861103386 0.114675082 0.310000002
v 0.0847267956 0.114675082 0.308600008
v 0.0847268254 -0.0454862304 0.308600008
v 0.0861103609 -0.0454862304 0.310000002
v -0.0250899792 -0.201640993 0.265560448
v -0.0512631983 -0.201640993 0.265560448
v -0.0512631983 -0.204108521 0.265916914
v -0.053118933 -0.204106212 0.266702473
v -0.0250899792 -0.204108521 0.265916914
v -0.053118933 -0.201640993 0.266346335
v -0.0232342482 -0.201640993 0.266346335
v -0.0545463152 -0.204102933 0.268161356
v -0.0545463152 -0.201640993 0.267805696
v -0.0232342482 -0.204106212 0.266702473
v -0.0218068678 -0.201640993 0.267805696
v -0.0218068678 -0.204102933 0.268161356
v -0.0553149842 -0.204999968 0.26797682
v -0.053118933 -0.204999968 0.26572451
v -0.053118933 -0.204106212 0.266702473
v -0.0527676493 -0.204999968 0.265415102
v -0.0512631983 -0.204108521 0.265916914
v 0.183172002 -0.123235829 0.304254085
v 0.183585554 -0.124335721 0.305234432
v 0.185021117 -0.124047868 0.305259615
v 0.185021117 -0.122865058 0.30428651
v -0.0553149991 0.172751576 0.229446545
v -0.0553149953 0.112087943 0.233611584
v -0.0210382044 0.112087935 0.233611584
v -0.154695436 0.172751561 0.229446545
v -0.154695436 0.112087943 0.233611584
v -0.0210382063 0.172751546 0.229446545
v 0.0847267881 0.112087935 0.233611584
v 0.0847267881 0.172751546 0.229446545
v -0.0539314449 -0.100910164 0.305106729
v -0.0224217325 -0.100910157 0.305106729
v -0.0217299648 -0.099943772 0.302181661
v -0.0546232164 -0.0999437794 0.302181661
v 0.144893795 -0.16221413 0.300281137
v 0.145392537 -0.161772385 0.30102247
v 0.144861788 -0.160971642 0.301092535
v 0.144861788 -0.160971642 0.301092535
v 0.144210145 -0.161182731 0.300371379
v 0.144893795 -0.16221413 0.300281137
v 0.183172002 -0.132236049 0.303466648
v 0.183585554 -0.131323114 0.304623097
v 0.182368517 -0.130503371 0.304694831
v 0.181604385 -0.131180167 0.303559035
v -0.0546232164 -0.0999437794 0.302181661
v -0.0217299648 -0.099943772 0.302181661
v -0.021038197 -0.0995068252 0.305132776
v -0.0553149842 -0.0995068327 0.305132776
v 0.163842425 -0.16221413 0.300281137
v 0.164341182 -0.161772385 0.30102247
v 0.163810402 -0.160971642 0.301092535
v 0.163810402 -0.160971642 0.301092535
v 0.163158789 -0.161182731 0.300371379
v 0.163842425 -0.16221413 0.300281137
v 0.145916954 -0.157028943 0.300734788
v 0.146186873 -0.157746837 0.301374674
v 0.147123858 -0.157558948 0.301391095
v 0.147123858 -0.157558948 0.301391095
v 0.147123858 -0.156786948 0.300755948
v 0.145916954 -0.157028943 0.300734788
v 0.164865598 -0.157028943 0.300734788
v 0.165135503 -0.157746837 0.301374674
v 0.166072488 -0.157558948 0.301391095
v 0.166072488 -0.157558948 0.301391095
v 0.166072488 -0.156786948 0.300755948
v 0.164865598 -0.157028943 0.300734788
v -0.0562044047 -0.204999968 0.279393435
v -0.0553149842 -0.203690931 0.279204339
v -0.0553149916 -0.201772079 0.279246718
v -0.0562044121 -0.202099949 0.280093431
v 0.183814228 -0.157028943 0.300734788
v 0.184084132 -0.157746837 0.301374674
v 0.185021117 -0.157558948 0.301391095
v 0.185021117 -0.157558948 0.301391095
v 0.185021117 -0.156786948 0.300755948
v 0.183814228 -0.157028943 0.300734788
v 0.182791054 -0.16221413 0.300281137
v 0.183289811 -0.161772385 0.30102247
v 0.182759032 -0.160971642 0.301092535
v 0.182759032 -0.160971642 0.301092535
v 0.182107419 -0.161182731 0.300371379
v 0.182791054 -0.16221413 0.300281137
v 0.144210145 -0.161182731 0.300371379
v 0.144861788 -0.160971642 0.301092535
v 0.144675404 -0.160027117 0.301175147
v 0.143970087 -0.159966111 0.300477833
v -0.15042451 -0.204999998 0.00606563222
v -0.14946048 -0.204099998 0.00606563548
v -0.140562147 -0.204099998 0.0275998544
v -0.139230028 -0.204999998 0.0315950401
v 0.181604385 -0.124291703 0.304161668
v 0.182368517 -0.125155464 0.305162728
v 0.183585554 -0.124335721 0.305234432
v 0.183172002 -0.123235829 0.304254085
v 0.181604385 -0.131180167 0.303559035
v 0.182368517 -0.130503371 0.304694831
v 0.181555316 -0.129276559 0.30480215
v 0.180556938 -0.129599944 0.303697288
v 0.144893795 -0.157718107 0.300674498
v 0.145392537 -0.158281863 0.301327854
v 0.146186873 -0.157746837 0.301374674
v 0.145916954 -0.157028943 0.300734788
v 0.188437849 -0.123775333 0.298259437
v 0.186870247 -0.122719452 0.298351824
v 0.186870247 -0.123235829 0.304254085
v 0.188437849 -0.124291703 0.304161668
v 0.185021117 -0.122865058 0.30428651
v 0.185021117 -0.122348674 0.298384279
v 0.183172002 -0.123235829 0.304254085
v 0.183172002 -0.122719452 0.298351824
v 0.181604385 -0.124291703 0.304161668
v 0.181604385 -0.123775333 0.298259437
v 0.163158789 -0.161182731 0.300371379
v 0.163810402 -0.160971642 0.301092535
v 0.163624018 -0.160027117 0.301175147
v 0.162918702 -0.159966111 0.300477833
v 0.143970087 -0.159966111 0.300477833
v 0.144675404 -0.160027117 0.301175147
v 0.144861788 -0.159082592 0.301257789
v 0.144861788 -0.159082592 0.301257789
v 0.144210145 -0.158749491 0.300584257
v 0.143970087 -0.159966111 0.300477833
v 0.163842425 -0.157718107 0.300674498
v 0.164341182 -0.158281863 0.301327854
v 0.165135503 -0.157746837 0.301374674
v 0.164865598 -0.157028943 0.300734788
v 0.0847268775 -0.202099949 0.280893445
v 0.125261039 -0.202698797 0.280900985
v 0.126944631 -0.204999968 0.281600982
v -0.021038197 -0.204999968 0.281593442
v -0.0210381933 -0.202099949 0.280893445
v -0.0553149842 -0.204999968 0.281593442
v -0.0553149991 -0.202099949 0.280893445
v -0.154695421 -0.204999968 0.281593442
v -0.154695481 -0.202099949 0.280893445
v -0.195229664 -0.202698827 0.280900985
v -0.196913257 -0.204999983 0.281600982
v 0.144210145 -0.158749491 0.300584257
v 0.144861788 -0.159082592 0.301257789
v 0.145392537 -0.158281863 0.301327854
v 0.144893795 -0.157718107 0.300674498
v -0.0217299648 -0.150492311 0.29762727
v -0.0546232164 -0.150492311 0.29762727
v -0.0553149842 -0.151449725 0.300452739
v -0.021038197 -0.151449725 0.300452739
v 0.182791054 -0.157718107 0.300674498
v 0.183289811 -0.158281863 0.301327854
v 0.184084132 -0.157746837 0.301374674
v 0.183814228 -0.157028943 0.300734788
v 0.182107419 -0.161182731 0.300371379
v 0.182759032 -0.160971642 0.301092535
v 0.182572648 -0.160027117 0.301175147
v 0.181867331 -0.159966111 0.300477833
v 0.180556938 -0.125871941 0.304023445
v 0.181555316 -0.126382291 0.30505538
v 0.182368517 -0.125155464 0.305162728
v 0.181604385 -0.124291703 0.304161668
v 0.162918702 -0.159966111 0.300477833
v 0.163624018 -0.160027117 0.301175147
v 0.163810402 -0.159082592 0.301257789
v 0.163810402 -0.159082592 0.301257789
v 0.163158789 -0.158749491 0.300584257
v 0.162918702 -0.159966111 0.300477833
v 0.180556938 -0.129599944 0.303697288
v 0.181555316 -0.129276559 0.30480215
v 0.18126978 -0.127829418 0.30492875
v 0.180189133 -0.127735943 0.303860366
v 0.163158789 -0.158749491 0.300584257
v 0.163810402 -0.159082592 0.301257789
v 0.164341182 -0.158281863 0.301327854
v 0.163842425 -0.157718107 0.300674498
v -0.15607895 -0.0454862304 0.310000002
v -0.154695421 -0.0468805842 0.309874356
v -0.154695421 -0.0454862304 0.308600008
v 0.0847267956 0.114675082 0.298177838
v 0.0847268254 -0.0454862304 0.303784996
v 0.0847268254 -0.0454862304 0.308600008
v 0.0847267956 0.114675082 0.308600008
v 0.0847267881 0.114862509 0.274023145
v 0.0847268254 0.0588174611 0.280790776
v 0.0847267881 0.1753387 0.294012815
v 0.0847267881 0.175526127 0.269858092
v 0.0847267881 0.172751546 0.229446545
v 0.0847267881 0.112087935 0.233611584
v -0.0224217325 -0.100910157 0.305106729
v -0.0224217325 -0.150064334 0.300677955
v -0.0217299648 -0.150492311 0.29762727
v -0.0217299648 -0.099943772 0.302181661
v 0.180189133 -0.127735943 0.303860366
v 0.18126978 -0.127829418 0.30492875
v 0.181555316 -0.126382291 0.30505538
v 0.180556938 -0.125871941 0.304023445
v 0.182107419 -0.158749491 0.300584257
v 0.182759032 -0.159082592 0.301257789
v 0.183289811 -0.158281863 0.301327854
v 0.182791054 -0.157718107 0.300674498
v 0.181867331 -0.159966111 0.300477833
v 0.182572648 -0.160027117 0.301175147
v 0.182759032 -0.159082592 0.301257789
v 0.182759032 -0.159082592 0.301257789
v 0.182107419 -0.158749491 0.300584257
v 0.181867331 -0.159966111 0.300477833
v 0.149353921 -0.157381073 0.29682216
v 0.148330763 -0.156691909 0.29688248
v 0.148330763 -0.157028943 0.300734788
v 0.149353921 -0.157718107 0.300674498
v 0.147123858 -0.156786948 0.300755948
v 0.147123858 -0.156449914 0.29690364
v 0.145916954 -0.157028943 0.300734788
v 0.145916954 -0.156691909 0.29688248
v 0.144893795 -0.157718107 0.300674498
v 0.144893795 -0.157381073 0.29682216
v 0.168302551 -0.157381073 0.29682216
v 0.167279392 -0.156691909 0.29688248
v 0.167279392 -0.157028943 0.300734788
v 0.168302551 -0.157718107 0.300674498
v 0.166072488 -0.156786948 0.300755948
v 0.166072488 -0.156449914 0.29690364
v 0.164865598 -0.157028943 0.300734788
v 0.164865598 -0.156691909 0.29688248
v 0.163842425 -0.157718107 0.300674498
v 0.163842425 -0.157381073 0.29682216
v 0.18725118 -0.157381073 0.29682216
v 0.186228022 -0.156691909 0.29688248
v 0.186228022 -0.157028943 0.300734788
v 0.18725118 -0.157718107 0.300674498
v 0.185021117 -0.156786948 0.300755948
v 0.185021117 -0.156449914 0.29690364
v 0.183814228 -0.157028943 0.300734788
v 0.183814228 -0.156691909 0.29688248
v 0.182791054 -0.157718107 0.300674498
v 0.182791054 -0.157381073 0.29682216
v -0.125861511 -0.202099994 0.137390956
v -0.125861511 -0.204999998 0.136690959
v 0.049508296 -0.204999998 0.136690959
v 0.049508296 -0.202099994 0.137390956
v -0.154695421 -0.202099979 0.137390971
v 0.084726803 -0.204999983 0.136690974
v -0.154695421 -0.204999983 0.136690974
v -0.196913242 -0.204999998 0.136690855
v -0.19515489 -0.202715516 0.137390852
v 0.084726803 -0.202099979 0.137390971
v 0.125186294 -0.202715486 0.137390852
v 0.126944646 -0.204999983 0.136690855
v 0.181604385 -0.123775333 0.298259437
v 0.183172002 -0.122719452 0.298351824
v 0.185021117 -0.122348674 0.298384279
v 0.180189133 -0.127219558 0.297958106
v 0.180556938 -0.125355557 0.298121184
v 0.186870247 -0.122719452 0.298351824
v 0.188437849 -0.123775333 0.298259437
v 0.189853102 -0.127219558 0.297958106
v 0.189485297 -0.125355557 0.298121184
v 0.181604385 -0.130663797 0.297656775
v 0.180556938 -0.129083574 0.297795027
v 0.185021117 -0.132090449 0.297531962
v 0.183172002 -0.131719664 0.297564417
v 0.188437849 -0.130663797 0.297656775
v 0.186870247 -0.131719664 0.297564417
v 0.189485297 -0.129083574 0.297795027
v 0.144893795 -0.157381073 0.29682216
v 0.145916954 -0.156691909 0.29688248
v 0.147123858 -0.156449914 0.29690364
v 0.143970087 -0.159629077 0.296625495
v 0.144210145 -0.158412471 0.296731949
v 0.148330763 -0.156691909 0.29688248
v 0.149353921 -0.157381073 0.29682216
v 0.150277644 -0.159629077 0.296625495
v 0.150037572 -0.158412471 0.296731949
v 0.144893795 -0.161877096 0.296428829
v 0.144210145 -0.160845697 0.296519041
v 0.147123858 -0.162808239 0.29634735
v 0.145916954 -0.162566245 0.29636851
v 0.149353921 -0.161877096 0.296428829
v 0.148330763 -0.162566245 0.29636851
v 0.150037572 -0.160845697 0.296519041
v 0.163842425 -0.157381073 0.29682216
v 0.164865598 -0.156691909 0.29688248
v 0.166072488 -0.156449914 0.29690364
v 0.162918702 -0.159629077 0.296625495
v 0.163158789 -0.158412471 0.296731949
v 0.167279392 -0.156691909 0.29688248
v 0.168302551 -0.157381073 0.29682216
v 0.169226274 -0.159629077 0.296625495
v 0.168986201 -0.158412471 0.296731949
v 0.163842425 -0.161877096 0.296428829
v 0.163158789 -0.160845697 0.296519041
v 0.166072488 -0.162808239 0.29634735
v 0.164865598 -0.162566245 0.29636851
v 0.168302551 -0.161877096 0.296428829
v 0.167279392 -0.162566245 0.29636851
v 0.168986201 -0.160845697 0.296519041
v 0.182791054 -0.157381073 0.29682216
v 0.183814228 -0.156691909 0.29688248
v 0.185021117 -0.156449914 0.29690364
v 0.181867331 -0.159629077 0.296625495
v 0.182107419 -0.158412471 0.296731949
v 0.186228022 -0.156691909 0.29688248
v 0.18725118 -0.157381073 0.29682216
v 0.188174903 -0.159629077 0.296625495
v 0.187934831 -0.158412471 0.296731949
v 0.182791054 -0.161877096 0.296428829
v 0.182107419 -0.160845697 0.296519041
v 0.185021117 -0.162808239 0.29634735
v 0.183814228 -0.162566245 0.29636851
v 0.18725118 -0.161877096 0.296428829
v 0.186228022 -0.162566245 0.29636851
v 0.187934831 -0.160845697 0.296519041
v -0.0546232164 -0.150492311 0.29762727
v -0.0546232164 -0.0999437794 0.302181661
v -0.0553149842 -0.0995068327 0.305132776
v -0.0553149842 -0.151449725 0.300452739
v -0.0553149916 -0.201772079 0.279246718
v -0.0553149842 -0.203690931 0.279204339
v -0.0553149842 -0.201640993 0.278908193
v -0.0553149842 -0.201640993 0.269703001
v -0.0562044047 -0.204999968 0.279393435
v -0.0553149842 -0.204999968 0.26797682
v -0.0553149842 -0.204100624 0.270058334
v -0.0545463152 -0.201640993 0.267805696
v -0.0545463152 -0.204102933 0.268161356
v -0.0553149842 -0.204999968 0.26797682
v -0.160480559 -0.175685927 -3.90101123e-17
v -0.192433164 -0.175685927 -3.90101123e-17
v -0.192433164 -0.175685927 0.00850864314
v -0.160480559 -0.175685927 0.00850864314
v -0.0553149953 0.116067305 0.309852749
v -0.0553149953 0.114675075 0.308600008
v -0.0210382044 0.114675075 0.308600008
v -0.154695436 0.116067313 0.309852749
v -0.154695436 0.114675082 0.308600008
v -0.0210382044 0.116067305 0.309852749
v 0.0847267956 0.114675082 0.308600008
v 0.0847267956 0.116067313 0.309852749
v -0.15607895 -0.0454862304 0.310000002
v -0.154695421 -0.0454862304 0.308600008
v -0.154695436 0.114675082 0.308600008
v -0.156078979 0.114675082 0.310000002
v -0.0553149991 0.1753387 0.294012845
v -0.0210382044 0.114675082 0.298177868
v -0.0553149953 0.114675082 0.298177868
v 0.0847267881 0.1753387 0.294012815
v 0.0847267956 0.114675082 0.298177838
v -0.154695421 0.114675082 0.298177838
v -0.154695436 0.1753387 0.294012815
v 0.0861103386 0.114675082 0.310000002
v 0.0847267956 0.116067313 0.309852749
v 0.0847267956 0.114675082 0.308600008
v -0.14946048 -0.164586678 0.00606563548
v -0.140562147 -0.164586678 0.0275998544
v -0.140562147 -0.204099998 0.0275998544
v -0.14946048 -0.204099998 0.00606563548
v 0.144893795 -0.157381073 0.29682216
v 0.144210145 -0.158412471 0.296731949
v 0.144210145 -0.158749491 0.300584257
v 0.144893795 -0.157718107 0.300674498
v 0.143970087 -0.159966111 0.300477833
v 0.143970087 -0.159629077 0.296625495
v 0.144210145 -0.161182731 0.300371379
v 0.144210145 -0.160845697 0.296519041
v 0.144893795 -0.16221413 0.300281137
v 0.144893795 -0.161877096 0.296428829
v 0.163842425 -0.157381073 0.29682216
v 0.163158789 -0.158412471 0.296731949
v 0.163158789 -0.158749491 0.300584257
v 0.163842425 -0.157718107 0.300674498
v 0.162918702 -0.159966111 0.300477833
v 0.162918702 -0.159629077 0.296625495
v 0.163158789 -0.161182731 0.300371379
v 0.163158789 -0.160845697 0.296519041
v 0.163842425 -0.16221413 0.300281137
v 0.163842425 -0.161877096 0.296428829
v 0.181604385 -0.123775333 0.298259437
v 0.180556938 -0.125355557 0.298121184
v 0.180556938 -0.125871941 0.304023445
v 0.181604385 -0.124291703 0.304161668
v 0.180189133 -0.127735943 0.303860366
v 0.180189133 -0.127219558 0.297958106
v 0.180556938 -0.129599944 0.303697288
v 0.180556938 -0.129083574 0.297795027
v 0.181604385 -0.131180167 0.303559035
v 0.181604385 -0.130663797 0.297656775
v 0.182791054 -0.157381073 0.29682216
v 0.182107419 -0.158412471 0.296731949
v 0.182107419 -0.158749491 0.300584257
v 0.182791054 -0.157718107 0.300674498
v 0.181867331 -0.159966111 0.300477833
v 0.181867331 -0.159629077 0.296625495
v 0.182107419 -0.161182731 0.300371379
v 0.182107419 -0.160845697 0.296519041
v 0.182791054 -0.16221413 0.300281137
v 0.182791054 -0.161877096 0.296428829
v -0.154695436 0.114675082 0.308600008
v -0.154695436 0.116067313 0.309852749
v -0.156078979 0.114675082 0.310000002
v -0.154695421 -0.0454862304 0.303784996
v -0.154695421 0.114675082 0.298177838
v -0.154695436 0.114675082 0.308600008
v -0.154695421 -0.0454862304 0.308600008
v -0.154695421 0.0588174723 0.280790776
v -0.154695436 0.114862517 0.274023145
v -0.154695436 0.175526142 0.269858092
v -0.154695436 0.1753387 0.294012815
v -0.154695436 0.112087943 0.233611584
v -0.154695436 0.172751561 0.229446545
v -0.160480559 -0.192703202 -4.27887064e-17
v -0.160480559 -0.175685927 -3.90101123e-17
v -0.160480559 -0.175685927 0.00850864314
v -0.160480559 -0.192703202 0.00850864314
v -0.160480529 0.175545007 1.60966405e-08
v -0.160480529 0.192562297 1.60966405e-08
v -0.160480529 0.192562297 0.00850865897
v -0.160480529 0.175545007 0.00850865897
v -0.0210382044 0.114675082 0.298177868
v -0.0210382044 0.114675075 0.308600008
v -0.0553149953 0.114675075 0.308600008
v 0.0847267956 0.114675082 0.298177838
v 0.0847267956 0.114675082 0.308600008
v -0.0553149953 0.114675082 0.298177868
v -0.154695436 0.114675082 0.308600008
v -0.154695421 0.114675082 0.298177838
v -0.192433164 -0.192703202 0.00850864314
v -0.160480559 -0.192703202 0.00850864314
v -0.160480559 -0.175685927 0.00850864314
v -0.192433164 -0.175685927 0.00850864314
v -0.192433164 0.175545007 0.00850865897
v -0.160480529 0.175545007 0.00850865897
v -0.160480529 0.192562297 0.00850865897
v -0.192433164 0.192562297 0.00850865897
v -0.148571059 -0.204999998 0.00606563548
v 0.0722177699 -0.204999998 0.00606563548
v 0.0731071904 -0.204099998 0.00606563548
v 0.0731071904 -0.164586678 0.00606563548
v -0.14946048 -0.164586678 0.00606563548
v -0.14946048 -0.204099998 0.00606563548
v 0.0847267881 0.175526127 0.269858092
v 0.0847267881 0.1753387 0.294012815
v -0.0553149991 0.1753387 0.294012845
v -0.154695436 0.175526142 0.269858092
v 0.0847267881 0.172751546 0.229446545
v -0.0210382063 0.172751546 0.229446545
v -0.154695436 0.1753387 0.294012815
v -0.0553149991 0.172751576 0.229446545
v -0.154695436 0.172751561 0.229446545
v -0.192433164 0.175545007 1.60966405e-08
v -0.160480529 0.175545007 1.60966405e-08
v -0.160480529 0.175545007 0.00850865897
v -0.192433164 0.175545007 0.00850865897
f 1 2 3
f 2 1 4
f 5 3 2
f 5 6 7
f 5 7 8
f 8 9 5
f 9 8 10
f 3 5 9
f 9 11 12
f 12 3 9
f 3 13 1
f 14 15 16
f 16 17 14
f 18 19 20
f 20 21 18
f 22 20 19
f 19 23 22
f 19 24 23
f 18 25 19
f 24 19 25
f 25 18 26
f 25 27 24
f 25 26 28
f 28 29 25
f 27 25 29
f 29 30 27
f 31 32 33
f 33 34 31
f 35 36 37
f 37 38 35
f 39 40 41
f 42 41 40
f 40 43 42
f 40 44 43
f 40 39 45
f 44 40 46
f 45 46 40
f 46 47 44
f 48 49 50
f 51 48 52
f 50 52 48
f 52 50 53
f 52 54 51
f 39 51 54
f 54 55 39
f 45 39 55
f 55 56 45
f 45 57 46
f 47 46 57
f 45 58 57
f 57 59 47
f 59 57 58
f 58 60 59
f 61 62 63
f 62 61 64
f 63 65 61
f 64 66 62
f 66 64 67
f 67 68 66
f 65 63 69
f 69 70 65
f 70 69 71
f 71 72 70
f 73 74 75
f 75 76 73
f 73 77 74
f 77 73 78
f 78 79 77
f 80 81 82
f 83 82 81
f 82 84 80
f 81 85 83
f 86 80 84
f 87 83 85
f 84 88 86
f 85 89 87
f 90 87 89
f 89 91 90
f 92 86 88
f 88 93 92
f 94 92 93
f 93 95 94
f 96 97 98
f 98 99 96
f 100 97 96
f 100 96 101
f 100 102 97
f 103 100 101
f 103 102 100
f 101 104 103
f 103 105 102
f 103 106 105
f 105 107 102
f 108 105 106
f 107 105 108
f 106 109 108
f 107 108 110
f 107 110 111
f 111 110 112
f 112 113 111
f 114 115 116
f 116 117 114
f 118 119 120
f 121 122 123
f 124 125 126
f 126 127 124
f 128 129 130
f 130 131 128
f 132 133 134
f 135 136 137
f 138 139 140
f 140 141 138
f 142 143 144
f 144 145 142
f 146 147 148
f 149 150 151
f 152 153 154
f 155 156 157
f 158 159 160
f 161 160 159
f 159 162 161
f 160 163 158
f 164 158 163
f 163 165 164
f 166 164 165
f 165 167 166
f 168 169 170
f 171 170 169
f 169 172 171
f 170 173 168
f 174 168 173
f 173 175 174
f 176 174 175
f 175 177 176
f 178 179 180
f 181 182 183
f 184 185 186
f 187 188 189
f 190 191 192
f 192 193 190
f 194 195 196
f 197 198 199
f 200 201 202
f 202 203 200
f 204 205 206
f 207 208 209
f 210 211 212
f 213 214 215
f 216 217 218
f 219 218 217
f 217 220 219
f 218 221 216
f 222 216 221
f 221 223 222
f 224 222 223
f 223 225 224
f 226 227 228
f 229 230 231
f 231 232 229
f 230 229 233
f 233 234 230
f 235 236 237
f 238 239 240
f 241 242 243
f 243 244 241
f 245 246 247
f 247 248 245
f 249 247 246
f 246 250 249
f 246 245 251
f 246 252 250
f 251 253 246
f 252 246 253
f 253 251 254
f 253 255 252
f 254 256 253
f 255 253 256
f 256 254 257
f 256 258 255
f 257 259 256
f 258 256 259
f 259 260 258
f 261 262 263
f 263 264 261
f 265 266 267
f 267 268 265
f 269 270 271
f 269 271 272
f 269 273 274
f 269 272 275
f 275 276 269
f 273 269 276
f 276 277 273
f 276 278 277
f 275 279 276
f 276 280 278
f 281 282 283
f 283 284 281
f 285 286 287
f 287 288 285
f 288 289 285
f 289 288 290
f 290 291 289
f 290 292 291
f 293 292 290
f 290 294 293
f 295 296 297
f 297 298 295
f 299 300 301
f 301 302 299
f 300 299 303
f 304 300 303
f 304 305 300
f 303 306 304
f 307 306 303
f 307 308 306
f 307 303 309
f 310 309 303
f 310 303 311
f 312 306 313
f 314 312 313
f 313 315 314
f 310 311 316
f 317 316 311
f 317 311 318
f 319 318 311
f 319 311 320
f 319 320 321
f 322 321 320
f 320 323 322
f 324 325 326
f 326 327 324
f 328 324 327
f 328 329 324
f 330 328 327
f 330 327 331
f 332 331 327
f 332 327 333
f 332 333 334
f 335 334 333
f 336 335 333
f 336 333 337
f 338 337 333
f 333 339 338
f 340 341 342
f 342 343 340
f 344 345 346
f 347 346 345
f 345 348 347
f 346 349 344
f 350 344 349
f 349 351 350
f 352 350 351
f 351 353 352
f 354 355 356
f 355 354 357
f 356 358 354
f 357 359 355
f 359 357 360
f 360 361 359
f 358 356 362
f 362 363 358
f 363 362 364
f 364 365 363
f 366 367 368
f 367 369 368
f 366 370 371
f 366 372 370
f 366 368 372
f 372 373 370
f 368 374 372
f 374 375 372
f 368 376 374
f 367 377 369
f 367 378 377
f 377 378 379
f 379 380 377
f 377 381 369
f 381 377 380
f 382 369 381
f 381 383 382
f 383 381 380
f 383 384 382
f 383 385 384
f 384 385 386
f 386 387 384
f 380 388 389
f 380 389 390
f 390 389 391
f 391 392 390
f 393 394 395
f 395 396 393
f 397 398 399
f 399 400 397
f 401 402 403
f 403 404 401
f 405 406 407
f 407 408 405
f 409 410 411
f 411 412 409
f 413 414 415
f 415 416 413
f 417 418 419
f 419 420 417
f 418 417 421
f 421 422 418
f 423 424 425
f 425 426 423
f 427 428 429
f 429 430 427
f 431 432 433
f 433 434 431
f 435 431 434
f 434 436 435
f 433 437 434
f 436 434 437
f 437 433 438
f 438 439 437
f 436 437 439
f 439 440 436
f 441 442 443
f 443 444 441
f 445 446 447
f 447 448 445
f 449 450 451
f 449 451 452
f 449 452 453
f 451 454 455
f 451 455 456
f 451 456 452
f 455 457 456
f 458 459 452
f 460 458 452
f 456 460 452
f 460 461 458
f 456 462 460
f 462 463 460
f 456 464 462
f 465 466 467
f 467 468 465
f 469 470 471
f 469 471 472
f 469 472 473
f 471 474 475
f 471 475 476
f 471 476 472
f 475 477 476
f 478 479 472
f 480 478 472
f 476 480 472
f 480 481 478
f 476 482 480
f 482 483 480
f 476 484 482
f 485 486 487
f 485 487 488
f 485 488 489
f 487 490 491
f 487 491 492
f 487 492 488
f 491 493 492
f 494 495 488
f 496 494 488
f 492 496 488
f 496 497 494
f 492 498 496
f 498 499 496
f 492 500 498
f 501 502 503
f 501 503 504
f 501 504 505
f 503 506 507
f 503 507 508
f 503 508 504
f 507 509 508
f 510 511 504
f 512 510 504
f 508 512 504
f 512 513 510
f 508 514 512
f 514 515 512
f 508 516 514
f 517 518 519
f 519 520 517
f 521 522 523
f 523 524 521
f 525 526 527
f 527 528 525
f 529 530 531
f 531 532 529
f 531 530 533
f 533 534 531
f 535 536 537
f 537 538 535
f 535 538 539
f 539 540 535
f 541 542 543
f 542 541 544
f 543 545 541
f 544 546 542
f 543 547 545
f 547 543 548
f 547 548 549
f 547 549 550
f 551 550 549
f 546 544 552
f 549 553 551
f 554 551 553
f 554 553 555
f 554 556 551
f 556 554 557
f 546 552 558
f 546 558 559
f 560 558 552
f 552 561 560
f 562 560 561
f 562 563 560
f 562 564 563
f 564 562 565
f 564 565 566
f 567 566 565
f 564 566 568
f 556 567 565
f 564 568 569
f 556 570 567
f 557 569 568
f 556 557 570
f 568 570 557
f 571 572 573
f 573 574 571
f 575 576 577
f 577 578 579
f 577 579 580
f 575 577 580
f 579 581 580
f 575 580 582
f 580 583 582
f 575 582 584
f 585 586 587
f 587 588 585
f 589 590 591
f 592 591 590
f 590 593 592
f 591 594 589
f 594 595 589
f 596 597 598
f 598 599 596
f 600 601 602
f 602 603 600
f 604 605 606
f 606 607 604
f 608 606 605
f 605 609 608
f 610 608 609
f 609 611 610
f 612 610 611
f 611 613 612
f 614 615 616
f 616 617 614
f 618 616 615
f 615 619 618
f 620 618 619
f 619 621 620
f 622 620 621
f 621 623 622
f 624 625 626
f 626 627 624
f 628 626 625
f 625 629 628
f 630 628 629
f 629 631 630
f 632 630 631
f 631 633 632
f 634 635 636
f 636 637 634
f 638 637 636
f 636 639 638
f 640 641 642
f 642 643 640
f 644 645 646
f 646 647 644
f 645 644 648
f 648 649 645
f 650 651 652
f 653 654 655
f 655 656 653
f 657 658 659
f 659 660 657
f 661 662 663
f 664 665 666
f 667 668 669
f 670 671 672
f 673 674 675
f 675 676 673
f 677 678 679
f 680 681 682
f 683 684 685
f 685 686 683
f 687 685 684
f 684 688 687
f 689 687 688
f 688 690 689
f 691 689 690
f 690 692 691
f 693 694 695
f 695 696 693
f 697 698 699
f 700 699 698
f 699 701 697
f 698 702 700
f 703 697 701
f 704 700 702
f 702 705 704
f 701 706 703
f 707 703 706
f 706 708 707
f 704 709 710
f 710 711 704
f 711 710 712
f 712 713 711
f 714 715 716
f 716 717 714
f 718 719 720
f 719 718 721
f 721 722 719
f 720 723 718
f 723 720 724
f 724 725 723
f 726 727 728
f 728 729 726
f 730 731 732
f 733 734 735
f 736 737 738
f 738 739 736
f 740 741 742
f 742 743 740
f 744 745 746
f 747 748 749
f 750 751 752
f 753 754 755
f 756 757 758
f 759 760 761
f 762 763 764
f 764 765 762
f 766 767 768
f 769 770 771
f 772 773 774
f 775 776 777
f 778 779 780
f 780 781 778
f 782 783 784
f 784 785 782
f 786 787 788
f 788 789 786
f 790 791 792
f 792 793 790
f 794 795 796
f 796 797 794
f 798 799 800
f 800 801 798
f 802 800 799
f 799 803 802
f 804 802 803
f 803 805 804
f 806 804 805
f 805 807 806
f 808 809 810
f 810 811 808
f 812 813 814
f 815 816 817
f 818 819 820
f 820 821 818
f 822 823 824
f 824 825 822
f 825 826 822
f 826 825 827
f 827 828 826
f 828 827 829
f 829 830 828
f 831 830 829
f 829 832 831
f 833 834 835
f 835 836 833
f 837 838 839
f 839 840 837
f 841 842 843
f 843 844 841
f 845 846 847
f 847 848 845
f 849 850 851
f 851 852 849
f 853 854 855
f 856 857 858
f 859 860 861
f 861 862 859
f 863 864 865
f 865 866 863
f 867 868 869
f 870 871 872
f 872 873 870
f 871 870 874
f 874 875 871
f 874 870 876
f 876 877 874
f 874 877 878
f 878 879 874
f 880 881 882
f 882 883 880
f 884 885 886
f 886 887 884
f 888 889 890
f 890 891 888
f 892 893 894
f 895 896 897
f 898 899 900
f 900 901 898
f 902 900 899
f 899 903 902
f 904 902 903
f 903 905 904
f 906 904 905
f 905 907 906
f 908 909 910
f 910 911 908
f 912 910 909
f 909 913 912
f 914 912 913
f 913 915 914
f 916 914 915
f 915 917 916
f 918 919 920
f 920 921 918
f 922 920 919
f 919 923 922
f 924 922 923
f 923 925 924
f 926 924 925
f 925 927 926
f 928 929 930
f 930 931 928
f 929 928 932
f 931 930 933
f 932 934 929
f 935 934 932
f 932 936 935
f 933 937 931
f 938 937 933
f 933 939 938
f 940 941 942
f 940 942 943
f 940 943 944
f 942 945 946
f 942 946 947
f 942 947 943
f 946 948 947
f 949 950 943
f 951 949 943
f 947 951 943
f 951 952 949
f 947 953 951
f 953 954 951
f 947 955 953
f 956 957 958
f 956 958 959
f 956 959 960
f 958 961 962
f 958 962 963
f 958 963 959
f 962 964 963
f 965 966 959
f 967 965 959
f 963 967 959
f 967 968 965
f 963 969 967
f 969 970 967
f 963 971 969
f 972 973 974
f 972 974 975
f 972 975 976
f 974 977 978
f 974 978 979
f 974 979 975
f 978 980 979
f 981 982 975
f 983 981 975
f 979 983 975
f 983 984 981
f 979 985 983
f 985 986 983
f 979 987 985
f 988 989 990
f 988 990 991
f 988 991 992
f 990 993 994
f 990 994 995
f 990 995 991
f 994 996 995
f 997 998 991
f 999 997 991
f 995 999 991
f 999 1000 997
f 995 1001 999
f 1001 1002 999
f 995 1003 1001
f 1004 1005 1006
f 1006 1007 1004
f 1008 1009 1010
f 1011 1010 1009
f 1009 1012 1013
f 1013 1014 1009
f 1009 1014 1011
f 1015 1011 1014
f 1014 1016 1015
f 1017 1016 1014
f 1018 1019 1020
f 1020 1021 1018
f 1022 1023 1024
f 1023 1022 1025
f 1025 1026 1023
f 1024 1027 1022
f 1027 1024 1028
f 1028 1029 1027
f 1030 1031 1032
f 1032 1033 1030
f 1034 1035 1036
f 1035 1034 1037
f 1037 1038 1035
f 1034 1036 1039
f 1039 1040 1034
f 1041 1042 1043
f 1044 1045 1046
f 1046 1047 1044
f 1048 1049 1050
f 1050 1051 1048
f 1052 1050 1049
f 1049 1053 1052
f 1054 1052 1053
f 1053 1055 1054
f 1056 1054 1055
f 1055 1057 1056
f 1058 1059 1060
f 1060 1061 1058
f 1062 1060 1059
f 1059 1063 1062
f 1064 1062 1063
f 1063 1065 1064
f 1066 1064 1065
f 1065 1067 1066
f 1068 1069 1070
f 1070 1071 1068
f 1072 1070 1069
f 1069 1073 1072
f 1074 1072 1073
f 1073 1075 1074
f 1076 1074 1075
f 1075 1077 1076
f 1078 1079 1080
f 1080 1081 1078
f 1082 1080 1079
f 1079 1083 1082
f 1084 1082 1083
f 1083 1085 1084
f 1086 1084 1085
f 1085 1087 1086
f 1088 1089 1090
f 1091 1092 1093
f 1093 1094 1091
f 1092 1091 1095
f 1095 1096 1092
f 1092 1096 1097
f 1097 1098 1092
f 1097 1096 1099
f 1099 1100 1097
f 1101 1102 1103
f 1103 1104 1101
f 1105 1106 1107
f 1107 1108 1105
f 1109 1110 1111
f 1110 1109 1112
f 1112 1113 1110
f 1111 1114 1109
f 1114 1111 1115
f 1115 1116 1114
f 1117 1118 1119
f 1119 1120 1117
f 1121 1122 1123
f 1123 1124 1121
f 1125 1126 1127
f 1125 1127 1128
f 1125 1128 1129
f 1125 1129 1130
f 1131 1132 1133
f 1133 1134 1131
f 1135 1131 1134
f 1134 1136 1135
f 1134 1133 1137
f 1134 1138 1136
f 1134 1139 1138
f 1140 1141 1142
f 1142 1143 1140
