v 0.20923233 0.202399999 0.00418779766
v 0.208200246 0.202399999 0.00314343208
v 0.20743157 0.20317781 0.00314343208
v 0.208200246 0.204222187 0.00496561453
v 0.20743157 0.204222187 0.00418779766
v 0.20923233 0.20317781 0.00496561453
v -0.207431555 0.204222187 0.00418779859
v -0.207431555 0.20317781 0.00314343325
v -0.208200216 0.202399999 0.00314343325
v -0.209232315 0.20317781 0.00496561499
v -0.209232315 0.202399999 0.00418779813
v -0.208200216 0.204222187 0.00496561499
v 0.20743157 -0.204222187 0.00418779766
v 0.20743157 -0.20317781 0.00314343208
v 0.208200246 -0.202399999 0.00314343208
v 0.20923233 -0.20317781 0.00496561453
v 0.20923233 -0.202399999 0.00418779766
v 0.208200246 -0.204222187 0.00496561453
v 0.20743157 0.204264209 0.298664391
v 0.20743157 0.203150183 0.299902469
v 0.208200246 0.202410087 0.29993844
v 0.20923233 0.203177795 0.298029244
v 0.20923233 0.20240429 0.298888892
v 0.208200246 0.204222158 0.297924638
v -0.209232315 -0.202399999 0.00418779766
v -0.208200216 -0.202399999 0.00314343208
v -0.207431555 -0.20317781 0.00314343208
v -0.208200216 -0.204222187 0.00496561499
v -0.207431555 -0.204222187 0.00418779813
v -0.209232315 -0.20317781 0.00496561499
v -0.209232315 0.202404305 0.298888892
v -0.208200216 0.202410102 0.29993844
v -0.207431555 0.203150198 0.299902469
v -0.208200216 0.204222187 0.297924638
v -0.207431555 0.204264224 0.298664391
v -0.209232315 0.20317781 0.298029244
v 0.209232315 -0.202403188 0.294032335
v 0.208200216 -0.202407375 0.295080572
v 0.207431555 -0.203152612 0.29504928
v 0.208200216 -0.204222217 0.293094873
v 0.207431555 -0.20425795 0.293839902
v 0.209232315 -0.203177854 0.293184727
v -0.20743157 -0.204257905 0.293839902
v -0.20743157 -0.203152582 0.29504928
v -0.208200246 -0.202407345 0.295080572
v -0.20923233 -0.20317781 0.293184727
v -0.20923233 -0.202403143 0.294032335
v -0.208200246 -0.204222187 0.293094873
v 0.208200246 -0.204222202 0.137735561
v 0.208200246 -0.204222187 0.00496561453
v 0.20923233 -0.20317781 0.00496561453
v 0.20923233 -0.20317784 0.137776986
v 0.209232315 -0.203177854 0.281655967
v 0.2063445 -0.204999998 0.00606561499
v 0.20743157 -0.204222187 0.00418779766
v 0.12911877 -0.204999998 0.00606561732
v 0.12911877 -0.204222187 0.00418780046
v 0.2063445 -0.205000013 0.137790963
v 0.206344485 -0.205000043 0.280493438
v 0.208200216 -0.204222217 0.28156969
v 0.206344485 -0.205000043 0.291927934
v 0.208200216 -0.204222217 0.293094873
v 0.209232315 -0.203177854 0.293184727
v 0.207431555 -0.20425795 0.293839902
v 0.129118755 -0.204257876 0.293839902
v 0.129118755 -0.204999968 0.291927934
v -0.194851652 -0.200576186 0.137448058
v -0.194865748 -0.200541019 0.138248578
v -0.197540298 -0.199252859 0.137850016
v -0.199087381 0.204999998 0.00606561732
v -0.199087381 0.204222187 0.00418780046
v -0.207431555 0.204222187 0.00418779859
v -0.206344485 0.204999998 0.00606561545
v -0.208200216 0.204222187 0.00496561499
v -0.209232315 0.20317781 0.00496561499
v -0.209232315 0.20317781 0.140009344
v -0.206344485 0.204999998 0.296746701
v -0.199087381 0.205000013 0.296746701
v -0.208200216 0.204222187 0.297924638
v -0.209232315 0.20317781 0.298029244
v -0.207431555 0.204264224 0.298664391
v -0.199087381 0.204264238 0.298664391
v -0.197604999 -0.202152848 0.138950288
v -0.196913242 -0.204999998 0.138891071
v -0.196913257 -0.204999983 0.279385865
v -0.197605029 -0.202149794 0.278888434
v 0.124883041 -0.200576216 0.137448058
v 0.127571687 -0.199252859 0.137850016
v 0.124897145 -0.200541034 0.138248578
v -0.199087396 -0.204999983 0.280493438
v -0.199087396 -0.204999983 0.291927934
v -0.2063445 -0.204999998 0.291927934
v -0.199087396 -0.204257891 0.293839902
v -0.20743157 -0.204257905 0.293839902
v -0.208200246 -0.204222187 0.293094873
v -0.20923233 -0.20317781 0.293184727
v -0.20923233 -0.20317781 0.281655967
v -0.208200216 -0.204222187 0.00496561499
v -0.209232315 -0.20317781 0.137776986
v -0.2063445 -0.204999998 0.280493438
v -0.209232315 -0.20317781 0.00496561499
v -0.206344485 -0.204999998 0.137790963
v -0.199087381 -0.204999998 0.137790963
v -0.206344485 -0.204999998 0.00606561545
v -0.207431555 -0.204222187 0.00418779813
v -0.199087366 -0.204999998 0.00606561732
v -0.199087366 -0.204222187 0.00418779999
v -0.194797575 -0.200698763 0.280434906
v -0.197544277 -0.199249759 0.280003577
v -0.194913208 -0.200409353 0.279600441
v 0.12911877 0.205000043 0.285119444
v 0.12911877 0.205000043 0.296746701
v 0.2063445 0.204999983 0.296746701
v 0.12911877 0.204264253 0.298664391
v 0.20743157 0.204264209 0.298664391
v 0.208200246 0.204222158 0.297924638
v 0.20923233 0.203177795 0.298029244
v 0.20923233 0.203177795 0.286306709
v 0.208200246 0.204222158 0.286206275
v 0.12911877 0.205000013 0.14001146
v 0.208200246 0.204222187 0.139961123
v 0.2063445 0.204999998 0.00606561499
v 0.208200246 0.204222187 0.00496561453
v 0.20923233 0.20317781 0.00496561453
v 0.129118755 0.204999998 0.00606561778
v 0.129118755 0.204222187 0.00418780046
v 0.20743157 0.204222187 0.00418779766
v 0.20923233 0.114675052 0.00418780046
v 0.210000992 0.114675052 0.00606561778
v 0.210000992 -0.201299995 0.00606561499
v 0.20923233 -0.045486249 0.00418780046
v 0.20923233 0.202399999 0.00418779766
v 0.20923233 -0.202399999 0.00418779766
v 0.20923233 -0.20317781 0.00496561453
v 0.20923233 -0.20317784 0.137776986
v 0.210000992 -0.20130001 0.137937695
v 0.209232315 -0.203177854 0.281655967
v 0.210000977 -0.201300025 0.292246372
v 0.209232315 -0.203177854 0.293184727
v 0.209232315 -0.202403188 0.294032335
v 0.210000992 -0.0454862677 0.306292534
v 0.20923233 -0.0454862677 0.308174133
v 0.210000992 0.114675052 0.306289703
v 0.20923233 0.114675052 0.308172733
v 0.210000992 0.201299965 0.297117472
v 0.20923233 0.20240429 0.298888892
v 0.20923233 0.203177795 0.298029244
v 0.20923233 0.203177795 0.286306709
v 0.210000992 0.201299965 0.285475403
v 0.210000992 0.201299995 0.140182316
v 0.210000992 0.201299995 0.00606561499
v 0.20923233 0.20317781 0.00496561453
v -0.197604984 -0.200734228 0.00520989532
v -0.197604999 0.200734228 0.00520989578
v -0.196913213 -0.201299995 0.00236561778
v -0.197604984 -0.201566651 0.00555469887
v -0.196913242 0.201299995 0.00236561825
v -0.196913213 -0.20317781 0.00314343488
v -0.197604984 -0.201810911 0.00579895545
v -0.196913242 0.20317781 0.00314343511
v -0.196913213 -0.204222187 0.00418780046
v -0.197604999 0.201566651 0.00555469934
v -0.197604984 -0.202155724 0.00663137855
v -0.196913242 0.204222187 0.00418780046
v -0.196913213 -0.204999998 0.00606561732
v -0.196913242 -0.204999998 0.136690855
v -0.197604999 -0.202152878 0.136749834
v -0.197604999 0.201810911 0.00579895638
v -0.196913242 0.204999998 0.00606561778
v -0.197604999 0.202155724 0.00663137995
v -0.19839561 0.201810911 0.00579895545
v -0.19839561 0.202155724 0.00663137902
v -0.197604999 0.202155724 0.00663137995
v -0.197604999 0.201810911 0.00579895638
v -0.19839561 0.202148527 0.296218425
v -0.197604999 0.202148527 0.296218425
v -0.197604999 0.201791212 0.297149748
v -0.19839561 0.201791212 0.297149748
v 0.127636403 0.202155724 0.00663137995
v 0.127636418 0.202148557 0.296218425
v 0.128427014 0.202148557 0.296218425
v 0.128427014 0.201791227 0.297149748
v 0.127636418 0.201791227 0.297149748
v 0.128427014 0.20214884 0.284634948
v 0.128426999 0.202155724 0.00663137995
v 0.127636403 0.201810911 0.00579895638
v 0.128426999 0.201810911 0.00579895638
v -0.197604999 0.202148527 0.296218425
v -0.196913242 0.205000013 0.296746701
v -0.196913242 0.204264238 0.298664391
v -0.197604999 0.201791212 0.297149748
v -0.196913242 0.203150213 0.299902469
v -0.197604999 0.201383874 0.297602475
v -0.196913242 0.201320529 0.300835848
v -0.197604999 0.200495303 0.298055738
v -0.196913213 0.11467509 0.310000002
v -0.197604984 0.114522368 0.307104021
v -0.196913242 -0.0454862304 0.310000002
v -0.197604999 -0.0453559831 0.307102919
v -0.196913257 -0.201314911 0.295959949
v -0.197605029 -0.200527489 0.293168902
v -0.196913257 -0.203152567 0.29504928
v -0.197605029 -0.20140861 0.292732269
v -0.196913257 -0.204257891 0.293839902
v -0.197605029 -0.201793715 0.292310894
v -0.196913257 -0.204999983 0.291927934
v -0.197605029 -0.202149525 0.291394144
v -0.196913257 -0.204999983 0.281600982
v -0.197605029 -0.202149749 0.28111884
v 0.199297532 -0.192703202 -4.27887064e-17
v 0.199297532 -0.175685927 -3.90101123e-17
v 0.199297532 -0.175685927 0.00850864314
v 0.199297532 -0.192703202 0.00850864314
v 0.199297562 0.175545007 1.60966405e-08
v 0.199297562 0.192562297 1.60966405e-08
v 0.199297562 0.192562297 0.00850865897
v 0.199297562 0.175545007 0.00850865897
v -0.209232315 0.114675038 0.00418780092
v -0.210000977 -0.201299995 0.00606561499
v -0.210000977 0.201299995 0.00606561406
v -0.209232315 -0.202399999 0.00418779766
v -0.209232315 0.202399999 0.00418779813
v -0.209232315 0.20317781 0.00496561499
v -0.209232315 0.20317781 0.140009344
v -0.210000977 0.201299995 0.297117472
v -0.209232315 0.20317781 0.298029244
v -0.209232315 0.202404305 0.298888892
v -0.210000977 0.114675075 0.306289703
v -0.209232315 0.114675075 0.308172733
v -0.210000977 -0.045486249 0.306292534
v -0.209232315 -0.045486249 0.308174133
v -0.210000992 -0.201299995 0.292246372
v -0.20923233 -0.202403143 0.294032335
v -0.20923233 -0.20317781 0.293184727
v -0.20923233 -0.20317781 0.281655967
v -0.209232315 -0.20317781 0.137776986
v -0.209232315 -0.20317781 0.00496561499
v 0.199297562 0.192562297 1.60966405e-08
v 0.167344928 0.192562297 1.60966405e-08
v 0.167344928 0.192562297 0.00850865897
v 0.199297562 0.192562297 0.00850865897
v -0.197605029 -0.202149749 0.28111884
v -0.197605029 -0.202149525 0.291394144
v -0.19839564 -0.202149525 0.291394144
v -0.19839564 -0.202149779 0.280003637
v -0.19839564 -0.201793715 0.292310894
v -0.197605029 -0.201793715 0.292310894
v 0.128426999 -0.20214951 0.291394144
v 0.128426999 -0.201793686 0.292310894
v 0.127636403 -0.201793686 0.292310894
v 0.127636403 -0.20214951 0.291394144
v 0.128426999 -0.202149749 0.280003637
v 0.127636403 -0.202149734 0.28111884
v 0.12911877 -0.204999983 0.137790963
v 0.12911877 -0.204999998 0.00606561732
v 0.2063445 -0.204999998 0.00606561499
v 0.2063445 -0.205000013 0.137790963
v 0.206344485 -0.205000043 0.280493438
v 0.129118755 -0.204999968 0.280493438
v 0.206344485 -0.205000043 0.291927934
v 0.129118755 -0.204999968 0.291927934
v -0.199087381 0.201299995 0.00236561801
v -0.206344485 -0.201299995 0.00236561545
v -0.206344485 0.201299995 0.00236561708
v -0.199087366 -0.201299995 0.00236561755
v -0.199087381 0.20317781 0.00314343488
v -0.207431555 0.20317781 0.00314343325
v -0.199087381 0.204222187 0.00418780046
v -0.207431555 0.204222187 0.00418779859
v -0.208200216 0.202399999 0.00314343325
v -0.208200216 -0.202399999 0.00314343208
v -0.209232315 0.202399999 0.00418779813
v -0.209232315 0.114675038 0.00418780092
v -0.209232315 -0.202399999 0.00418779766
v -0.207431555 -0.20317781 0.00314343208
v -0.199087366 -0.20317781 0.00314343441
v -0.207431555 -0.204222187 0.00418779813
v -0.199087366 -0.204222187 0.00418779999
v 0.124828927 -0.200698763 0.280434906
v 0.124944568 -0.200409353 0.279600441
v 0.127575636 -0.199249744 0.280003577
v 0.127636403 -0.202152878 0.136749834
v 0.127636418 -0.202155724 0.00663137855
v 0.128427014 -0.202155724 0.00663137855
v 0.128426999 -0.202152863 0.137850061
v 0.128427014 -0.201810911 0.00579895545
v 0.127636418 -0.201810911 0.00579895545
v -0.198395595 -0.202155724 0.00663137855
v -0.198395595 -0.201810911 0.00579895498
v -0.197604984 -0.201810911 0.00579895545
v -0.197604984 -0.202155724 0.00663137855
v -0.19839561 -0.202152863 0.137850061
v -0.197604999 -0.202152878 0.136749834
v -0.197604999 -0.202152848 0.138950288
v -0.197605029 -0.202149794 0.278888434
v -0.19839564 -0.202149779 0.280003637
v -0.19839561 -0.202152863 0.137850061
v 0.127636403 -0.202149779 0.278888434
v 0.127636403 -0.202152848 0.138950288
v 0.128426999 -0.202152863 0.137850061
v 0.128426999 -0.202149749 0.280003637
v -0.192433164 -0.175685927 -3.90101123e-17
v -0.192433164 -0.192703202 -4.27887064e-17
v -0.192433164 -0.192703202 0.00850864314
v -0.192433164 -0.175685927 0.00850864314
v -0.192433164 0.192562297 1.60966405e-08
v -0.192433164 0.175545007 1.60966405e-08
v -0.192433164 0.175545007 0.00850865897
v -0.192433164 0.192562297 0.00850865897
v 0.167344928 -0.192703202 -4.27887064e-17
v 0.199297532 -0.192703202 -4.27887064e-17
v 0.199297532 -0.192703202 0.00850864314
v 0.167344928 -0.192703202 0.00850864314
v 0.127636403 -0.202149779 0.278888434
v 0.126944631 -0.204999968 0.279385865
v 0.126944646 -0.204999983 0.138891071
v 0.127636403 -0.202152848 0.138950288
v -0.199087366 0.11467509 0.310000002
v -0.206344485 0.114675075 0.310000002
v -0.206344485 -0.0454862453 0.310000002
v -0.199087381 -0.0454862304 0.310000002
v -0.199087381 0.201320529 0.300835848
v -0.2063445 -0.201314926 0.295959949
v -0.199087396 -0.201314911 0.295959949
v -0.199087396 -0.203152567 0.29504928
v -0.20743157 -0.203152582 0.29504928
v -0.199087396 -0.204257891 0.293839902
v -0.20743157 -0.204257905 0.293839902
v -0.208200246 -0.202407345 0.295080572
v -0.208200216 -0.0454862453 0.309220612
v -0.20923233 -0.202403143 0.294032335
v -0.209232315 -0.045486249 0.308174133
v -0.208200216 0.114675075 0.309220016
v -0.209232315 0.114675075 0.308172733
v -0.208200216 0.202410102 0.29993844
v -0.209232315 0.202404305 0.298888892
v -0.206344485 0.201320514 0.300835848
v -0.207431555 0.203150198 0.299902469
v -0.199087381 0.203150213 0.299902469
v -0.207431555 0.204264224 0.298664391
v -0.199087381 0.204264238 0.298664391
v 0.129118755 0.201299995 0.00236561825
v 0.2063445 0.201299995 0.00236561545
v 0.2063445 -0.201299995 0.00236561499
v 0.12911877 -0.0454862565 0.00236561778
v 0.12911877 -0.201299995 0.00236561778
v 0.12911877 -0.20317781 0.00314343488
v 0.20743157 -0.20317781 0.00314343208
v 0.12911877 -0.204222187 0.00418780046
v 0.20743157 -0.204222187 0.00418779766
v 0.208200246 -0.202399999 0.00314343208
v 0.208200246 -0.045486249 0.00314343488
v 0.20923233 -0.202399999 0.00418779766
v 0.20923233 -0.045486249 0.00418780046
v 0.208200246 0.114675052 0.00314343511
v 0.20923233 0.114675052 0.00418780046
v 0.208200246 0.202399999 0.00314343208
v 0.20923233 0.202399999 0.00418779766
v 0.20743157 0.20317781 0.00314343208
v 0.129118755 0.20317781 0.00314343511
v 0.20743157 0.204222187 0.00418779766
v 0.129118755 0.204222187 0.00418780046
v 0.167344928 -0.192703202 -4.27887064e-17
v 0.167344928 -0.175685927 -3.90101123e-17
v 0.199297532 -0.175685927 -3.90101123e-17
v 0.199297532 -0.192703202 -4.27887064e-17
v 0.167344928 0.175545007 1.60966405e-08
v 0.167344928 0.192562297 1.60966405e-08
v 0.199297562 0.192562297 1.60966405e-08
v 0.199297562 0.175545007 1.60966405e-08
v 0.128427014 0.114675075 0.00526562706
v 0.127636418 0.114675075 0.00526562706
v 0.127636403 0.200734228 0.00520989578
v 0.128426999 -0.0454862565 0.00526561728
v 0.128426999 0.200734228 0.00520989578
v 0.127636403 -0.0454862565 0.00526561728
v 0.128426999 0.201566651 0.00555469934
v 0.128427014 -0.200734228 0.00520989532
v 0.127636403 0.201566651 0.00555469934
v 0.128426999 0.201810911 0.00579895638
v 0.127636403 0.201810911 0.00579895638
v 0.127636418 -0.200734228 0.00520989532
v 0.127636418 -0.201566651 0.00555469887
v 0.128427014 -0.201566651 0.00555469887
v 0.127636418 -0.201810911 0.00579895545
v 0.128427014 -0.201810911 0.00579895545
v -0.19839561 0.114675038 0.00526562613
v -0.197604999 0.200734228 0.00520989578
v -0.197604984 -0.200734228 0.00520989532
v -0.198395595 -0.200734228 0.00520989532
v -0.198395595 -0.201566651 0.00555469887
v -0.19839561 0.200734228 0.00520989532
v -0.197604984 -0.201566651 0.00555469887
v -0.198395595 -0.201810911 0.00579895498
v -0.197604984 -0.201810911 0.00579895545
v -0.197604999 0.201566651 0.00555469934
v -0.19839561 0.201566651 0.00555469887
v -0.197604999 0.201810911 0.00579895638
v -0.19839561 0.201810911 0.00579895545
v -0.194865748 -0.200541019 0.138248578
v -0.194851652 -0.200576186 0.137448058
v -0.19515489 -0.202715516 0.137390852
v -0.195135534 -0.202719808 0.138191074
v -0.194797575 -0.200698763 0.280434906
v -0.194913208 -0.200409353 0.279600441
v -0.195070565 -0.202733606 0.280085862
v -0.195229664 -0.202698827 0.280900985
v -0.195070565 -0.202733606 0.280085862
v -0.194913208 -0.200409353 0.279600441
v -0.197605029 -0.202149794 0.278888434
v -0.196913257 -0.204999983 0.279385865
v 0.141867056 -0.0530285724 0.302237123
v 0.141867056 -0.0534571968 0.307165205
v 0.141867056 -0.0560607053 0.306938767
v 0.141867056 -0.0556320809 0.302010655
v 0.139791757 -0.0562426671 0.309030861
v 0.139791757 -0.116501138 0.303789794
v 0.139791757 -0.0554501154 0.299918562
v 0.12911877 -0.0454862304 0.310000002
v 0.2063445 -0.0454862677 0.310000002
v 0.2063445 0.114675052 0.310000002
v 0.12911877 0.11467509 0.310000002
v 0.2063445 0.201320499 0.300835848
v 0.12911877 0.201320559 0.300835848
v 0.12911877 0.203150228 0.299902469
v 0.20743157 0.203150183 0.299902469
v 0.12911877 0.204264253 0.298664391
v 0.20743157 0.204264209 0.298664391
v 0.208200246 0.202410087 0.29993844
v 0.208200246 0.114675052 0.309220016
v 0.20923233 0.20240429 0.298888892
v 0.20923233 0.114675052 0.308172733
v 0.208200246 -0.0454862677 0.309220612
v 0.20923233 -0.0454862677 0.308174133
v 0.208200216 -0.202407375 0.295080572
v 0.209232315 -0.202403188 0.294032335
v 0.206344485 -0.201314971 0.295959949
v 0.207431555 -0.203152612 0.29504928
v 0.195671514 -0.0562426932 0.309030861
v 0.139791757 -0.0562426671 0.309030861
v 0.195671499 -0.116501197 0.303789794
v 0.139791757 -0.116501138 0.303789794
v 0.195671514 -0.0554501452 0.299918562
v 0.139791757 -0.0554501154 0.299918562
v 0.129118755 -0.201314881 0.295959949
v 0.129118755 -0.203152537 0.29504928
v 0.207431555 -0.20425795 0.293839902
v 0.129118755 -0.204257876 0.293839902
v 0.193596214 -0.0530285984 0.302237123
v 0.141867056 -0.0530285724 0.302237123
v 0.141867056 -0.0556320809 0.302010655
v 0.193596214 -0.0556321032 0.302010655
v 0.128426999 -0.0453559831 0.307102919
v 0.127636403 -0.0453559831 0.307102919
v 0.127636403 -0.200527474 0.293168902
v 0.128427014 0.114522368 0.307104021
v 0.128426999 -0.200527474 0.293168902
v 0.127636418 0.114522368 0.307104021
v 0.128426999 -0.201408595 0.292732269
v 0.128427014 0.200495318 0.298055738
v 0.127636403 -0.201408595 0.292732269
v 0.128426999 -0.201793686 0.292310894
v 0.127636403 -0.201793686 0.292310894
v 0.127636418 0.200495318 0.298055738
v 0.127636418 0.201383889 0.297602475
v 0.128427014 0.201383889 0.297602475
v 0.127636418 0.201791227 0.297149748
v 0.128427014 0.201791227 0.297149748
v -0.198395595 0.114522368 0.307104021
v -0.197604984 0.114522368 0.307104021
v -0.197604999 0.200495303 0.298055738
v -0.19839561 -0.0453559831 0.307102919
v -0.19839561 0.200495303 0.298055738
v -0.197604999 -0.0453559831 0.307102919
v -0.19839561 0.201383874 0.297602475
v -0.19839564 -0.200527489 0.293168902
v -0.197604999 0.201383874 0.297602475
v -0.19839561 0.201791212 0.297149748
v -0.197604999 0.201791212 0.297149748
v -0.197605029 -0.200527489 0.293168902
v -0.197605029 -0.20140861 0.292732269
v -0.19839564 -0.20140861 0.292732269
v -0.197605029 -0.201793715 0.292310894
v -0.19839564 -0.201793715 0.292310894
v 0.127636403 0.200734228 0.00520989578
v 0.127636418 0.114675075 0.00526562706
v 0.126944661 -0.201299995 0.00236561778
v 0.126944631 0.201299995 0.00236561825
v 0.127636403 -0.0454862565 0.00526561728
v 0.127636403 0.201566651 0.00555469934
v 0.126944631 0.20317781 0.00314343511
v 0.127636418 -0.200734228 0.00520989532
v 0.127636403 0.201810911 0.00579895638
v 0.126944661 -0.20317781 0.00314343488
v 0.126944631 0.204222187 0.00418780046
v 0.127636418 -0.201566651 0.00555469887
v 0.127636403 0.202155724 0.00663137995
v 0.126944661 -0.204222187 0.00418780046
v 0.126944631 0.204999998 0.00606561778
v 0.127636418 -0.201810911 0.00579895545
v 0.126944661 -0.204999998 0.00606561732
v 0.127636418 -0.202155724 0.00663137855
v 0.127636403 -0.202152878 0.136749834
v 0.126944646 -0.204999983 0.136690855
v 0.127636418 0.202148557 0.296218425
v 0.126944661 0.205000043 0.296746701
v 0.127636418 0.201791227 0.297149748
v 0.126944661 0.204264253 0.298664391
v 0.127636418 0.201383889 0.297602475
v 0.126944661 0.203150228 0.299902469
v 0.127636418 0.200495318 0.298055738
v 0.126944661 0.201320559 0.300835848
v 0.127636418 0.114522368 0.307104021
v 0.126944661 0.11467509 0.310000002
v 0.127636403 -0.0453559831 0.307102919
v 0.126944646 -0.0454862304 0.310000002
v 0.127636403 -0.200527474 0.293168902
v 0.126944631 -0.201314881 0.295959949
v 0.127636403 -0.201408595 0.292732269
v 0.126944631 -0.203152537 0.29504928
v 0.127636403 -0.201793686 0.292310894
v 0.126944631 -0.204257876 0.293839902
v 0.127636403 -0.20214951 0.291394144
v 0.126944631 -0.204999968 0.291927934
v 0.126944631 -0.204999968 0.281600982
v 0.127636403 -0.202149734 0.28111884
v 0.127575636 -0.199249744 0.280003577
v 0.124944568 -0.200409353 0.279600441
v 0.127636403 -0.202149779 0.278888434
v 0.128426999 -0.202149749 0.280003637
v 0.124944568 -0.200409353 0.279600441
v 0.125101954 -0.202733591 0.280085862
v 0.126944631 -0.204999968 0.279385865
v 0.127636403 -0.202149779 0.278888434
v -0.194913208 -0.200409353 0.279600441
v -0.197544277 -0.199249759 0.280003577
v -0.19839564 -0.202149779 0.280003637
v -0.197605029 -0.202149794 0.278888434
v 0.124883041 -0.200576216 0.137448058
v 0.124897145 -0.200541034 0.138248578
v 0.125166938 -0.202719778 0.138191074
v 0.125186294 -0.202715486 0.137390852
v 0.124944568 -0.200409353 0.279600441
v 0.124828927 -0.200698763 0.280434906
v 0.125261039 -0.202698797 0.280900985
v 0.125101954 -0.202733591 0.280085862
v -0.194865748 -0.200541019 0.138248578
v -0.195135534 -0.202719808 0.138191074
v -0.196913242 -0.204999998 0.138891071
v -0.197604999 -0.202152848 0.138950288
v -0.197540298 -0.199252859 0.137850016
v -0.19839561 -0.202152863 0.137850061
v 0.125166938 -0.202719778 0.138191074
v 0.124897145 -0.200541034 0.138248578
v 0.127636403 -0.202152848 0.138950288
v 0.126944646 -0.204999983 0.138891071
v 0.124897145 -0.200541034 0.138248578
v 0.127571687 -0.199252859 0.137850016
v 0.128426999 -0.202152863 0.137850061
v 0.127636403 -0.202152848 0.138950288
v 0.141867056 -0.0560607053 0.306938767
v 0.193596214 -0.0560607277 0.306938767
v 0.195671514 -0.0562426932 0.309030861
v 0.195671514 -0.0554501452 0.299918562
v 0.139791757 -0.0562426671 0.309030861
v 0.193596214 -0.0556321032 0.302010655
v 0.141867056 -0.0556320809 0.302010655
v 0.139791757 -0.0554501154 0.299918562
v 0.141867056 -0.0530285724 0.302237123
v 0.193596214 -0.0530285984 0.302237123
v 0.193596214 -0.0534572229 0.307165205
v 0.141867056 -0.0534571968 0.307165205
v -0.19515489 -0.202715516 0.137390852
v -0.194851652 -0.200576186 0.137448058
v -0.197604999 -0.202152878 0.136749834
v -0.196913242 -0.204999998 0.136690855
v 0.124883041 -0.200576216 0.137448058
v 0.125186294 -0.202715486 0.137390852
v 0.126944646 -0.204999983 0.136690855
v 0.127636403 -0.202152878 0.136749834
v 0.127571687 -0.199252859 0.137850016
v 0.128426999 -0.202152863 0.137850061
v -0.194851652 -0.200576186 0.137448058
v -0.197540298 -0.199252859 0.137850016
v -0.19839561 -0.202152863 0.137850061
v -0.197604999 -0.202152878 0.136749834
v 0.125261039 -0.202698797 0.280900985
v 0.124828927 -0.200698763 0.280434906
v 0.127636403 -0.202149734 0.28111884
v 0.126944631 -0.204999968 0.281600982
v -0.194797575 -0.200698763 0.280434906
v -0.195229664 -0.202698827 0.280900985
v -0.196913257 -0.204999983 0.281600982
v -0.197605029 -0.202149749 0.28111884
v -0.197544277 -0.199249759 0.280003577
v -0.19839564 -0.202149779 0.280003637
v 0.124828927 -0.200698763 0.280434906
v 0.127575636 -0.199249744 0.280003577
v 0.128426999 -0.202149749 0.280003637
v 0.127636403 -0.202149734 0.28111884
v 0.128427014 0.114675075 0.00526562706
v 0.128426999 0.200734228 0.00520989578
v 0.129118755 0.201299995 0.00236561825
v 0.129118755 0.20317781 0.00314343511
v 0.128426999 0.201566651 0.00555469934
v 0.128426999 -0.0454862565 0.00526561728
v 0.129118755 0.204222187 0.00418780046
v 0.12911877 -0.0454862565 0.00236561778
v 0.128426999 0.201810911 0.00579895638
v 0.128427014 -0.200734228 0.00520989532
v 0.129118755 0.204999998 0.00606561778
v 0.12911877 -0.201299995 0.00236561778
v 0.128426999 0.202155724 0.00663137995
v 0.128427014 -0.201566651 0.00555469887
v 0.12911877 -0.20317781 0.00314343488
v 0.12911877 0.205000013 0.14001146
v 0.128427014 -0.201810911 0.00579895545
v 0.128427014 0.20214884 0.284634948
v 0.12911877 -0.204222187 0.00418780046
v 0.12911877 0.205000043 0.285119444
v 0.128427014 -0.202155724 0.00663137855
v 0.128427014 0.202148557 0.296218425
v 0.12911877 -0.204999998 0.00606561732
v 0.12911877 0.205000043 0.296746701
v 0.12911877 -0.204999983 0.137790963
v 0.12911877 0.204264253 0.298664391
v 0.128426999 -0.202152863 0.137850061
v 0.128427014 0.201791227 0.297149748
v 0.129118755 -0.204999968 0.280493438
v 0.12911877 0.203150228 0.299902469
v 0.128426999 -0.202149749 0.280003637
v 0.128427014 0.201383889 0.297602475
v 0.128426999 -0.20214951 0.291394144
v 0.12911877 0.201320559 0.300835848
v 0.129118755 -0.204999968 0.291927934
v 0.128427014 0.200495318 0.298055738
v 0.128426999 -0.201793686 0.292310894
v 0.12911877 0.11467509 0.310000002
v 0.129118755 -0.204257876 0.293839902
v 0.128427014 0.114522368 0.307104021
v 0.128426999 -0.201408595 0.292732269
v 0.12911877 -0.0454862304 0.310000002
v 0.129118755 -0.203152537 0.29504928
v 0.128426999 -0.0453559831 0.307102919
v 0.128426999 -0.200527474 0.293168902
v 0.129118755 -0.201314881 0.295959949
v 0.141867056 -0.0534571968 0.307165205
v 0.193596214 -0.0534572229 0.307165205
v 0.193596214 -0.0560607277 0.306938767
v 0.141867056 -0.0560607053 0.306938767
v 0.167344928 -0.192703202 0.00850864314
v 0.199297532 -0.192703202 0.00850864314
v 0.199297532 -0.175685927 0.00850864314
v 0.167344928 -0.175685927 0.00850864314
v 0.167344928 0.175545007 0.00850865897
v 0.199297562 0.175545007 0.00850865897
v 0.199297562 0.192562297 0.00850865897
v 0.167344928 0.192562297 0.00850865897
v 0.199297532 -0.175685927 -3.90101123e-17
v 0.167344928 -0.175685927 -3.90101123e-17
v 0.167344928 -0.175685927 0.00850864314
v 0.199297532 -0.175685927 0.00850864314
v 0.167344928 -0.175685927 -3.90101123e-17
v 0.167344928 -0.192703202 -4.27887064e-17
v 0.167344928 -0.192703202 0.00850864314
v 0.167344928 -0.175685927 0.00850864314
v 0.167344928 0.192562297 1.60966405e-08
v 0.167344928 0.175545007 1.60966405e-08
v 0.167344928 0.175545007 0.00850865897
v 0.167344928 0.192562297 0.00850865897
v 0.167344928 0.175545007 1.60966405e-08
v 0.199297562 0.175545007 1.60966405e-08
v 0.199297562 0.175545007 0.00850865897
v 0.167344928 0.175545007 0.00850865897
v -0.19839561 0.114675038 0.00526562613
v -0.198395595 -0.200734228 0.00520989532
v -0.199087366 -0.201299995 0.00236561755
v -0.199087366 -0.20317781 0.00314343441
v -0.199087381 0.201299995 0.00236561801
v -0.198395595 -0.201566651 0.00555469887
v -0.199087366 -0.204222187 0.00418779999
v -0.198395595 -0.201810911 0.00579895498
v -0.19839561 0.200734228 0.00520989532
v -0.199087366 -0.204999998 0.00606561732
v -0.198395595 -0.202155724 0.00663137855
v -0.19839561 0.201566651 0.00555469887
v -0.19839561 -0.202152863 0.137850061
v -0.199087381 0.20317781 0.00314343488
v -0.199087381 -0.204999998 0.137790963
v -0.19839561 0.201810911 0.00579895545
v -0.19839564 -0.202149779 0.280003637
v -0.199087381 0.204222187 0.00418780046
v -0.199087396 -0.204999983 0.280493438
v -0.19839561 0.202155724 0.00663137902
v -0.19839564 -0.202149525 0.291394144
v -0.199087381 0.204999998 0.00606561732
v -0.199087396 -0.204999983 0.291927934
v -0.199087396 -0.204257891 0.293839902
v -0.19839564 -0.201793715 0.292310894
v -0.199087381 0.205000013 0.296746701
v -0.199087396 -0.203152567 0.29504928
v -0.19839561 0.202148527 0.296218425
v -0.19839564 -0.20140861 0.292732269
v -0.199087396 -0.201314911 0.295959949
v -0.19839564 -0.200527489 0.293168902
v -0.19839561 0.201791212 0.297149748
v -0.199087381 -0.0454862304 0.310000002
v -0.199087381 0.204264238 0.298664391
v -0.19839561 -0.0453559831 0.307102919
v -0.19839561 0.201383874 0.297602475
v -0.199087366 0.11467509 0.310000002
v -0.199087381 0.203150213 0.299902469
v -0.198395595 0.114522368 0.307104021
v -0.19839561 0.200495303 0.298055738
v -0.199087381 0.201320529 0.300835848
v 0.193596214 -0.0534572229 0.307165205
v 0.193596214 -0.0530285984 0.302237123
v 0.193596214 -0.0556321032 0.302010655
v 0.193596214 -0.0560607277 0.306938767
v 0.195671499 -0.116501197 0.303789794
v 0.195671514 -0.0562426932 0.309030861
v 0.195671514 -0.0554501452 0.299918562
f 1 2 3
f 1 3 4
f 3 5 4
f 1 4 6
f 7 8 9
f 7 9 10
f 9 11 10
f 7 10 12
f 13 14 15
f 13 15 16
f 15 17 16
f 13 16 18
f 19 20 21
f 19 21 22
f 21 23 22
f 19 22 24
f 25 26 27
f 25 27 28
f 27 29 28
f 25 28 30
f 31 32 33
f 31 33 34
f 33 35 34
f 31 34 36
f 37 38 39
f 37 39 40
f 39 41 40
f 37 40 42
f 43 44 45
f 43 45 46
f 45 47 46
f 43 46 48
f 49 50 51
f 51 52 49
f 49 52 53
f 54 50 49
f 55 50 54
f 55 54 56
f 56 57 55
f 49 58 54
f 59 58 49
f 49 60 59
f 53 60 49
f 61 59 60
f 62 60 53
f 60 62 61
f 53 63 62
f 62 64 61
f 61 64 65
f 65 66 61
f 67 68 69
f 70 71 72
f 72 73 70
f 72 74 73
f 75 76 74
f 70 73 77
f 77 73 74
f 77 78 70
f 76 79 74
f 74 79 77
f 76 80 79
f 79 81 77
f 82 78 77
f 77 81 82
f 83 84 85
f 85 86 83
f 87 88 89
f 90 91 92
f 91 93 94
f 94 92 91
f 94 95 92
f 95 96 97
f 97 98 95
f 92 95 98
f 98 97 99
f 92 100 90
f 98 100 92
f 98 99 101
f 90 100 102
f 98 102 100
f 102 103 90
f 104 102 98
f 103 102 104
f 98 105 104
f 104 106 103
f 104 105 107
f 107 106 104
f 108 109 110
f 111 112 113
f 112 114 115
f 115 113 112
f 115 116 113
f 116 117 118
f 118 119 116
f 113 116 119
f 113 120 111
f 113 119 121
f 118 121 119
f 120 113 122
f 122 113 121
f 123 121 118
f 121 123 122
f 118 124 123
f 122 125 120
f 126 125 122
f 123 127 122
f 122 127 126
f 128 129 130
f 130 131 128
f 129 128 132
f 130 133 131
f 134 133 130
f 135 134 130
f 130 136 135
f 130 129 136
f 136 137 135
f 137 136 138
f 138 139 137
f 140 139 138
f 129 138 136
f 140 138 141
f 141 142 140
f 142 141 143
f 143 141 138
f 143 144 142
f 143 138 129
f 144 143 145
f 145 146 144
f 147 146 145
f 148 147 145
f 129 149 143
f 143 149 145
f 145 149 148
f 148 149 150
f 150 149 129
f 129 151 150
f 148 150 151
f 132 151 129
f 151 152 148
f 132 152 151
f 153 154 155
f 156 153 155
f 157 155 154
f 155 158 156
f 159 156 158
f 160 157 154
f 158 161 159
f 154 162 160
f 163 159 161
f 164 160 162
f 161 165 163
f 163 165 166
f 166 167 163
f 162 168 164
f 169 164 168
f 168 170 169
f 171 172 173
f 173 174 171
f 173 172 175
f 175 176 173
f 177 176 175
f 175 178 177
f 179 180 181
f 182 181 180
f 180 183 182
f 181 184 179
f 179 184 185
f 186 179 185
f 185 187 186
f 169 170 188
f 188 189 169
f 190 189 188
f 188 191 190
f 192 190 191
f 191 193 192
f 194 192 193
f 193 195 194
f 196 194 195
f 195 197 196
f 198 196 197
f 197 199 198
f 200 198 199
f 199 201 200
f 202 200 201
f 201 203 202
f 204 202 203
f 203 205 204
f 206 204 205
f 205 207 206
f 208 206 207
f 207 209 208
f 210 211 212
f 212 213 210
f 214 215 216
f 216 217 214
f 218 219 220
f 219 218 221
f 220 222 218
f 223 222 220
f 224 223 220
f 224 220 225
f 225 226 224
f 227 226 225
f 219 225 220
f 227 225 228
f 228 229 227
f 229 228 230
f 230 228 225
f 230 231 229
f 225 219 230
f 231 230 232
f 232 230 219
f 232 233 231
f 234 233 232
f 235 234 232
f 235 232 219
f 219 236 235
f 219 237 236
f 221 237 219
f 238 239 240
f 240 241 238
f 242 243 244
f 242 244 245
f 246 244 243
f 243 247 246
f 248 249 250
f 250 251 248
f 252 248 251
f 252 251 253
f 254 255 256
f 256 257 254
f 254 257 258
f 258 259 254
f 259 258 260
f 260 261 259
f 262 263 264
f 263 262 265
f 266 262 264
f 264 267 266
f 268 266 267
f 267 269 268
f 267 264 270
f 264 271 270
f 271 264 263
f 272 270 271
f 271 273 272
f 271 274 273
f 271 263 275
f 275 263 265
f 265 276 275
f 277 275 276
f 276 278 277
f 279 280 281
f 282 283 284
f 282 284 285
f 286 284 283
f 283 287 286
f 288 289 290
f 290 291 288
f 292 288 291
f 292 291 293
f 294 295 296
f 297 294 296
f 298 299 300
f 301 298 300
f 302 303 304
f 304 305 302
f 306 307 308
f 308 309 306
f 310 311 312
f 312 313 310
f 314 315 316
f 316 317 314
f 318 319 320
f 320 321 318
f 319 318 322
f 321 320 323
f 323 324 321
f 325 324 323
f 323 326 325
f 327 325 326
f 326 328 327
f 326 323 329
f 329 323 320
f 320 330 329
f 330 320 319
f 331 329 330
f 330 332 331
f 332 330 333
f 319 333 330
f 333 334 332
f 334 333 335
f 335 336 334
f 333 319 337
f 337 335 333
f 322 337 319
f 335 337 338
f 338 337 322
f 322 339 338
f 340 338 339
f 339 341 340
f 342 343 344
f 344 345 342
f 344 346 345
f 347 346 344
f 344 348 347
f 349 347 348
f 348 350 349
f 348 344 351
f 344 352 351
f 352 344 343
f 353 351 352
f 352 354 353
f 354 352 355
f 343 355 352
f 355 356 354
f 356 355 357
f 357 358 356
f 343 357 355
f 357 343 359
f 359 343 342
f 342 360 359
f 361 359 360
f 360 362 361
f 363 364 365
f 365 366 363
f 367 368 369
f 369 370 367
f 371 372 373
f 372 371 374
f 373 375 371
f 374 376 372
f 377 375 373
f 376 374 378
f 373 379 377
f 380 377 379
f 379 381 380
f 378 382 376
f 383 382 378
f 378 384 383
f 385 383 384
f 384 386 385
f 387 388 389
f 389 390 387
f 391 390 389
f 388 387 392
f 389 393 391
f 394 391 393
f 393 395 394
f 396 388 392
f 392 397 396
f 398 396 397
f 397 399 398
f 400 401 402
f 402 403 400
f 404 405 406
f 406 407 404
f 408 409 410
f 410 411 408
f 412 413 414
f 414 415 412
f 416 417 418
f 419 420 421
f 421 422 419
f 422 421 423
f 423 424 422
f 425 424 423
f 423 426 425
f 427 425 426
f 426 428 427
f 426 423 429
f 429 423 421
f 421 430 429
f 431 429 430
f 430 421 420
f 430 432 431
f 432 430 433
f 420 433 430
f 433 434 432
f 434 433 435
f 435 436 434
f 437 435 433
f 433 420 437
f 435 437 438
f 437 420 439
f 440 439 420
f 420 419 440
f 439 441 437
f 442 440 419
f 442 441 443
f 443 444 442
f 419 445 442
f 441 442 445
f 445 437 441
f 438 437 445
f 445 446 438
f 447 438 446
f 446 448 447
f 449 450 451
f 451 452 449
f 453 454 455
f 454 453 456
f 455 457 453
f 456 458 454
f 459 457 455
f 458 456 460
f 455 461 459
f 462 459 461
f 461 463 462
f 460 464 458
f 465 464 460
f 460 466 465
f 467 465 466
f 466 468 467
f 469 470 471
f 470 469 472
f 471 473 469
f 472 474 470
f 475 473 471
f 474 472 476
f 471 477 475
f 478 475 477
f 477 479 478
f 476 480 474
f 481 480 476
f 476 482 481
f 483 481 482
f 482 484 483
f 485 486 487
f 487 488 485
f 486 489 487
f 490 485 488
f 488 491 490
f 489 492 487
f 493 490 491
f 494 487 492
f 491 495 493
f 492 496 494
f 497 493 495
f 498 494 496
f 495 499 497
f 496 500 498
f 501 498 500
f 500 502 501
f 501 502 503
f 503 504 501
f 505 497 499
f 499 506 505
f 507 505 506
f 506 508 507
f 509 507 508
f 508 510 509
f 511 509 510
f 510 512 511
f 513 511 512
f 512 514 513
f 515 513 514
f 514 516 515
f 517 515 516
f 516 518 517
f 519 517 518
f 518 520 519
f 521 519 520
f 520 522 521
f 523 521 522
f 522 524 523
f 523 524 525
f 525 526 523
f 527 528 529
f 529 530 527
f 531 532 533
f 533 534 531
f 535 536 537
f 537 538 535
f 539 540 541
f 541 542 539
f 543 544 545
f 545 546 543
f 547 548 549
f 549 550 547
f 551 547 550
f 550 552 551
f 553 554 555
f 555 556 553
f 557 558 559
f 559 560 557
f 561 562 563
f 564 563 562
f 563 565 561
f 562 566 564
f 567 561 565
f 568 564 566
f 566 567 568
f 565 568 567
f 569 570 571
f 571 572 569
f 573 574 575
f 575 576 573
f 577 578 579
f 579 580 577
f 581 577 580
f 580 582 581
f 583 584 585
f 585 586 583
f 587 588 589
f 589 590 587
f 591 592 593
f 593 594 591
f 595 591 594
f 594 596 595
f 597 598 599
f 599 600 597
f 601 602 603
f 604 603 602
f 602 605 604
f 606 601 603
f 607 604 605
f 603 608 606
f 605 609 607
f 610 606 608
f 611 607 609
f 608 612 610
f 609 613 611
f 614 610 612
f 612 615 614
f 613 616 611
f 617 614 615
f 616 613 618
f 615 619 617
f 618 620 616
f 621 617 619
f 620 618 622
f 619 623 621
f 622 624 620
f 621 623 625
f 626 624 622
f 625 627 621
f 622 628 626
f 627 625 629
f 630 626 628
f 629 631 627
f 628 632 630
f 633 631 629
f 634 630 632
f 629 635 633
f 632 636 634
f 637 633 635
f 638 634 636
f 635 639 637
f 636 640 638
f 641 637 639
f 642 638 640
f 639 643 641
f 640 644 642
f 645 641 643
f 646 642 644
f 644 645 646
f 643 646 645
f 647 648 649
f 649 650 647
f 651 652 653
f 653 654 651
f 655 656 657
f 657 658 655
f 659 660 661
f 661 662 659
f 663 664 665
f 665 666 663
f 667 668 669
f 669 670 667
f 671 672 673
f 673 674 671
f 675 676 677
f 678 677 676
f 677 679 675
f 676 680 678
f 681 678 680
f 680 682 681
f 683 675 679
f 684 681 682
f 682 685 684
f 686 683 679
f 684 685 687
f 679 688 686
f 687 689 684
f 690 686 688
f 689 687 691
f 688 692 690
f 691 693 689
f 694 690 692
f 693 691 695
f 692 696 694
f 695 697 693
f 698 697 695
f 695 699 698
f 694 696 700
f 701 698 699
f 700 702 694
f 699 703 701
f 704 701 703
f 703 705 704
f 706 702 700
f 707 704 705
f 700 708 706
f 705 709 707
f 710 706 708
f 711 707 709
f 708 712 710
f 709 713 711
f 714 710 712
f 715 711 713
f 713 714 715
f 712 715 714
f 716 717 718
f 718 719 716
f 720 721 722
