v -0.907936454 -0.302820086 0.118925616
v -0.907058954 -0.278315693 0.0870857909
v -0.905433536 -0.283301592 0.0103628282
v -0.905303955 -0.299257636 0.00455805007
v -0.905303955 -0.289517403 0.00455805054
v -0.907936454 -0.275140017 0.118925616
v -0.907151043 -0.3054654 0.130128205
v -0.90429914 -0.301927686 0.00455805054
v -0.905160427 -0.307456046 0.130128205
v -0.901622713 -0.304604173 0.00455805007
v -0.908813953 -0.302766979 0.159612402
v -0.908046126 -0.273138791 0.125214174
v -0.907370389 -0.305684775 0.139956281
v -0.908155859 -0.267790288 0.130128205
v -0.908265531 -0.257135659 0.135042235
v -0.908375204 -0.241364285 0.139956281
v -0.905379772 -0.307675421 0.139956281
v -0.905599773 -0.30789417 0.149784341
v -0.907589197 -0.305904746 0.149784341
v -0.905133307 -0.308113545 0.159612402
v -0.907808542 -0.30543828 0.159612402
v -0.908594608 -0.240691364 0.149784341
v -0.908813953 -0.240018457 0.159612402
v 0.905303955 0.299346626 0.00455805007
v 0.907058954 0.278404683 0.0870857909
v 0.905433536 0.283390582 0.0103628282
v 0.905303955 0.289606392 0.00455805054
v 0.907936454 0.302909106 0.118925616
v 0.907936454 0.275229007 0.118925616
v 0.90429914 0.302016705 0.00455805054
v 0.905160427 0.307545036 0.130128205
v 0.901622713 0.304693162 0.00455805007
v 0.906931639 0.305335194 0.118925616
v 0.907041371 0.305444896 0.125214174
v 0.907151043 0.30555439 0.130128205
v 0.908046126 0.303018838 0.125214174
v 0.908046126 0.273227811 0.125214174
v 0.908155859 0.303128272 0.130128205
v 0.907370389 0.305773765 0.139956281
v 0.908155859 0.267879277 0.130128205
v 0.908265531 0.303237945 0.13504225
v 0.908265531 0.257224649 0.135042235
v 0.908375204 0.303347617 0.139956281
v 0.908375204 0.24145329 0.139956281
v 0.905379772 0.307764411 0.139956281
v 0.905599773 0.30798319 0.149784341
v 0.907589197 0.305993766 0.149784341
v 0.905133307 0.308202565 0.159612402
v 0.907808542 0.3055273 0.159612402
v 0.908594608 0.303566396 0.149784341
v 0.908594608 0.240780368 0.149784341
v 0.908813953 0.302855998 0.159612402
v 0.908813953 0.240107447 0.159612402
v 0.905304015 -0.299257994 0.00455805054
v 0.905304015 -0.28951779 0.00455805007
v 0.905433595 -0.28330195 0.0103628263
v 0.907059014 -0.301942557 0.0870857984
v 0.907059014 -0.278316081 0.0870857909
v 0.906054258 -0.304368883 0.0870857984
v 0.904299259 -0.301928073 0.00455805101
v 0.907151103 -0.305465788 0.130128205
v 0.907936573 -0.302820474 0.118925616
v 0.907936573 -0.275140375 0.118925616
v 0.908046186 -0.302930206 0.125214174
v 0.908046186 -0.273139179 0.125214174
v 0.908155918 -0.30303964 0.130128205
v 0.908155918 -0.267790645 0.130128205
v 0.907260835 -0.30557546 0.13504225
v 0.908375263 -0.303259015 0.139956281
v 0.908265591 -0.257136017 0.135042235
v 0.907370448 -0.305685163 0.139956281
v 0.908375263 -0.241364673 0.139956281
v 0.907589257 -0.305905133 0.149784341
v 0.908814013 -0.302767366 0.159612402
v 0.907808602 -0.305438638 0.159612402
v 0.908594668 -0.240691736 0.149784341
v 0.908814013 -0.24001883 0.159612402
v -0.905304015 0.299346417 0.00455805054
v -0.905304015 0.289606214 0.00455805007
v -0.905433595 0.283390403 0.0103628263
v -0.907936573 0.302908897 0.118925616
v -0.907059014 0.278404504 0.0870857909
v -0.906931698 0.305334985 0.118925616
v -0.904299259 0.302016497 0.00455805101
v -0.907936573 0.275228798 0.118925616
v -0.908046186 0.273227602 0.125214174
v -0.908155918 0.267879099 0.130128205
v -0.908265591 0.257224441 0.135042235
v -0.907589257 0.305993557 0.149784341
v -0.908814013 0.30285579 0.159612402
v -0.908375323 0.241453096 0.139956281
v -0.907808602 0.305527091 0.159612402
v -0.908594668 0.24078016 0.149784341
v -0.908814013 0.240107253 0.159612402
v -0.908813953 -0.240018457 0.159612402
v -0.908813953 -0.219860211 0.158450142
v -0.90865463 -0.221954331 0.151476607
v -0.90865463 -0.221954331 0.151476607
v -0.908594608 -0.240691364 0.149784341
v -0.908813953 -0.240018457 0.159612402
v -0.908594608 -0.240691364 0.149784341
v -0.90865463 -0.221954331 0.151476607
v -0.908495307 -0.227727041 0.144503072
v -0.908495307 -0.227727041 0.144503072
v -0.908375204 -0.241364285 0.139956281
v -0.908594608 -0.240691364 0.149784341
v 0.908814013 -0.24001883 0.159612402
v 0.908594668 -0.240691736 0.149784341
v 0.90865469 -0.221954703 0.151476607
v 0.90865469 -0.221954703 0.151476607
v 0.908814013 -0.219860569 0.158450142
v 0.908814013 -0.24001883 0.159612402
v 0.908594668 -0.240691736 0.149784341
v 0.908375263 -0.241364673 0.139956281
v 0.908495426 -0.227727413 0.144503072
v 0.908495426 -0.227727413 0.144503072
v 0.90865469 -0.221954703 0.151476607
v 0.908594668 -0.240691736 0.149784341
v 0.908813953 0.240107447 0.159612402
v 0.908813953 0.219949216 0.158450142
v 0.90865463 0.222043335 0.151476607
v 0.90865463 0.222043335 0.151476607
v 0.908594608 0.240780368 0.149784341
v 0.908813953 0.240107447 0.159612402
v 0.908594608 0.240780368 0.149784341
v 0.90865463 0.222043335 0.151476607
v 0.908495307 0.22781603 0.144503072
v 0.908495307 0.22781603 0.144503072
v 0.908375204 0.24145329 0.139956281
v 0.908594608 0.240780368 0.149784341
v -0.908814013 0.240107253 0.159612402
v -0.908594668 0.24078016 0.149784341
v -0.90865469 0.222043127 0.151476607
v -0.90865469 0.222043127 0.151476607
v -0.908814013 0.219948992 0.158450142
v -0.908814013 0.240107253 0.159612402
v -0.908594668 0.24078016 0.149784341
v -0.908375323 0.241453096 0.139956281
v -0.908495426 0.227815837 0.144503072
v -0.908495426 0.227815837 0.144503072
v -0.90865469 0.222043127 0.151476607
v -0.908594668 0.24078016 0.149784341
v 0.902624905 -0.308351517 0.125214174
v 0.878010809 -0.307364345 0.0870857909
v 0.882996678 -0.305738926 0.0103628291
v 0.898952723 -0.305609345 0.00455805101
v 0.889212489 -0.305609345 0.00455805101
v 0.901622772 -0.30460456 0.00455805101
v 0.874835074 -0.308241844 0.118925616
v 0.906054258 -0.304368883 0.0870857984
v 0.904299259 -0.301928073 0.00455805101
v 0.905050993 -0.307346731 0.125214174
v 0.907151103 -0.305465788 0.130128205
v 0.872833848 -0.308351547 0.125214174
v 0.867485344 -0.308461219 0.130128205
v 0.905160427 -0.307456404 0.130128205
v 0.856830657 -0.308570892 0.135042235
v 0.905270159 -0.307566106 0.13504225
v 0.907260835 -0.30557546 0.13504225
v 0.841059327 -0.308680594 0.139956281
v 0.905379891 -0.307675779 0.139956281
v 0.907370448 -0.305685163 0.139956281
v 0.84038645 -0.308899969 0.149784341
v 0.902462065 -0.309119344 0.159612402
v 0.839713514 -0.309119344 0.159612402
v 0.905599833 -0.307894558 0.149784341
v 0.905133367 -0.308113933 0.159612402
v 0.907589257 -0.305905133 0.149784341
v 0.907808602 -0.305438638 0.159612402
v -0.902515173 0.308330268 0.118925616
v -0.878010809 0.307452768 0.0870857909
v -0.882996678 0.305827349 0.0103628291
v -0.898952723 0.305697799 0.00455805101
v -0.889212489 0.305697799 0.00455805101
v -0.901622772 0.304692984 0.00455805101
v -0.874835074 0.308330268 0.118925616
v -0.905599833 0.307982981 0.149784341
v -0.904299259 0.302016497 0.00455805101
v -0.906931698 0.305334985 0.118925616
v -0.872833848 0.30843994 0.125214174
v -0.902462065 0.309207767 0.159612402
v -0.867485344 0.308549643 0.130128205
v -0.856830657 0.308659315 0.135042235
v -0.841059327 0.308769017 0.139956281
v -0.907589257 0.305993557 0.149784341
v -0.84038645 0.308988392 0.149784341
v -0.839713514 0.309207767 0.159612402
v -0.905133367 0.308202356 0.159612402
v -0.907808602 0.305527091 0.159612402
v -0.898952603 -0.305608958 0.00455805007
v -0.88921243 -0.305608958 0.00455805007
v -0.882996559 -0.305738539 0.0103628282
v -0.87801069 -0.307363957 0.0870857909
v -0.905160427 -0.307456046 0.130128205
v -0.901622713 -0.304604173 0.00455805007
v -0.902462006 -0.309118956 0.159612402
v -0.874835014 -0.308241457 0.118925616
v -0.872833788 -0.308351159 0.125214174
v -0.867485285 -0.308460832 0.130128205
v -0.856830657 -0.308570534 0.135042235
v -0.905379772 -0.307675421 0.139956281
v -0.907151043 -0.3054654 0.130128205
v -0.907370389 -0.305684775 0.139956281
v -0.841059268 -0.308680207 0.139956281
v -0.840386391 -0.308899581 0.149784341
v -0.905599773 -0.30789417 0.149784341
v -0.839713454 -0.309118956 0.159612402
v -0.905133307 -0.308113545 0.159612402
v 0.898952603 0.305697978 0.00455805007
v 0.88921243 0.305697978 0.00455805007
v 0.882996559 0.305827528 0.0103628282
v 0.902624846 0.308440149 0.125214174
v 0.901622713 0.304693162 0.00455805007
v 0.87801069 0.307452977 0.0870857909
v 0.905160427 0.307545036 0.130128205
v 0.874835014 0.308330476 0.118925616
v 0.872833788 0.308440149 0.125214174
v 0.902462006 0.309207946 0.159612402
v 0.867485285 0.308549851 0.130128205
v 0.856830657 0.308659524 0.135042235
v 0.9052701 0.307654738 0.13504225
v 0.907151043 0.30555439 0.130128205
v 0.907370389 0.305773765 0.139956281
v 0.841059268 0.308769226 0.139956281
v 0.905379772 0.307764411 0.139956281
v 0.840386391 0.308988601 0.149784341
v 0.905599773 0.30798319 0.149784341
v 0.839713454 0.309207976 0.159612402
v 0.905133307 0.308202565 0.159612402
v -0.839713454 -0.309118956 0.159612402
v -0.840386391 -0.308899581 0.149784341
v -0.821649313 -0.308959633 0.151476607
v -0.821649313 -0.308959633 0.151476607
v -0.819555223 -0.309118956 0.158450142
v -0.839713454 -0.309118956 0.159612402
v -0.840386391 -0.308899581 0.149784341
v -0.841059268 -0.308680207 0.139956281
v -0.827422023 -0.30880031 0.144503072
v -0.827422023 -0.30880031 0.144503072
v -0.821649313 -0.308959633 0.151476607
v -0.840386391 -0.308899581 0.149784341
v 0.839713514 -0.309119344 0.159612402
v 0.819555283 -0.309119344 0.158450142
v 0.821649373 -0.308960021 0.151476607
v 0.821649373 -0.308960021 0.151476607
v 0.84038645 -0.308899969 0.149784341
v 0.839713514 -0.309119344 0.159612402
v 0.84038645 -0.308899969 0.149784341
v 0.821649373 -0.308960021 0.151476607
v 0.827422082 -0.308800697 0.144503072
v 0.827422082 -0.308800697 0.144503072
v 0.841059327 -0.308680594 0.139956281
v 0.84038645 -0.308899969 0.149784341
v 0.839713454 0.309207976 0.159612402
v 0.840386391 0.308988601 0.149784341
v 0.821649313 0.309048653 0.151476607
v 0.821649313 0.309048653 0.151476607
v 0.819555223 0.309207946 0.158450142
v 0.839713454 0.309207976 0.159612402
v 0.840386391 0.308988601 0.149784341
v 0.841059268 0.308769226 0.139956281
v 0.827422023 0.308889329 0.144503072
v 0.827422023 0.308889329 0.144503072
v 0.821649313 0.309048653 0.151476607
v 0.840386391 0.308988601 0.149784341
v -0.839713514 0.309207767 0.159612402
v -0.819555283 0.309207737 0.158450142
v -0.821649373 0.309048444 0.151476607
v -0.821649373 0.309048444 0.151476607
v -0.84038645 0.308988392 0.149784341
v -0.839713514 0.309207767 0.159612402
v -0.84038645 0.308988392 0.149784341
v -0.821649373 0.309048444 0.151476607
v -0.827422082 0.308889121 0.144503072
v -0.827422082 0.308889121 0.144503072
v -0.841059327 0.308769017 0.139956281
v -0.84038645 0.308988392 0.149784341
v -0.898952603 -0.305608958 0.00455805007
v -0.892849684 -0.299505651 0.00455805101
v -0.88921243 -0.299505651 0.00455805194
v -0.88921243 -0.305608958 0.00455805007
v -0.895519376 -0.298500836 0.00455805101
v -0.901622713 -0.304604173 0.00455805007
v -0.898195863 -0.295824379 0.00455805101
v -0.90429914 -0.301927686 0.00455805054
v -0.899200678 -0.293154687 0.00455805101
v -0.905303955 -0.299257636 0.00455805007
v -0.899200678 -0.289517403 0.0045580524
v -0.905303955 -0.289517403 0.00455805054
v 0.898952723 -0.305609345 0.00455805101
v 0.889212489 -0.305609345 0.00455805101
v 0.889212489 -0.299506038 0.00455805194
v 0.892849743 -0.299506038 0.00455805147
v 0.895519435 -0.298501253 0.00455805147
v 0.901622772 -0.30460456 0.00455805101
v 0.898195863 -0.295824766 0.00455805101
v 0.904299259 -0.301928073 0.00455805101
v 0.899200737 -0.293155074 0.00455805101
v 0.905304015 -0.299257994 0.00455805054
v 0.899200737 -0.28951779 0.00455805194
v 0.905304015 -0.28951779 0.00455805007
v 0.898952603 0.305697978 0.00455805007
v 0.892849684 0.299594641 0.00455805101
v 0.88921243 0.299594641 0.00455805194
v 0.88921243 0.305697978 0.00455805007
v 0.895519376 0.298589855 0.00455805101
v 0.901622713 0.304693162 0.00455805007
v 0.898195863 0.295913368 0.00455805101
v 0.90429914 0.302016705 0.00455805054
v 0.899200678 0.293243676 0.00455805101
v 0.905303955 0.299346626 0.00455805007
v 0.899200678 0.289606392 0.0045580524
v 0.905303955 0.289606392 0.00455805054
v -0.898952723 0.305697799 0.00455805101
v -0.889212489 0.305697799 0.00455805101
v -0.889212489 0.299594462 0.00455805194
v -0.892849743 0.299594462 0.00455805147
v -0.895519435 0.298589677 0.00455805147
v -0.901622772 0.304692984 0.00455805101
v -0.898195863 0.29591319 0.00455805101
v -0.904299259 0.302016497 0.00455805101
v -0.899200737 0.293243498 0.00455805101
v -0.905304015 0.299346417 0.00455805054
v -0.899200737 0.289606214 0.00455805194
v -0.905304015 0.289606214 0.00455805007
v -0.902462006 -0.309118956 0.159612402
v -0.839713454 -0.309118956 0.159612402
v -0.839713454 -0.295995682 0.159612402
v -0.889335692 -0.295995682 0.159612402
v -0.905133307 -0.308113545 0.159612402
v -0.892010033 -0.294990271 0.159612402
v -0.907808542 -0.30543828 0.159612402
v -0.894685268 -0.292315006 0.159612402
v -0.908813953 -0.302766979 0.159612402
v -0.89569068 -0.289640695 0.159612402
v -0.89569068 -0.240018457 0.159612402
v -0.908813953 -0.240018457 0.159612402
v 0.902462065 -0.309119344 0.159612402
v 0.889335811 -0.29599607 0.159612402
v 0.839713514 -0.29599607 0.159612402
v 0.839713514 -0.309119344 0.159612402
v 0.905133367 -0.308113933 0.159612402
v 0.892010033 -0.294990659 0.159612402
v 0.907808602 -0.305438638 0.159612402
v 0.894685388 -0.292315394 0.159612402
v 0.908814013 -0.302767366 0.159612402
v 0.895690739 -0.289641052 0.159612402
v 0.895690739 -0.24001883 0.159612402
v 0.908814013 -0.24001883 0.159612402
v 0.902462006 0.309207946 0.159612402
v 0.839713454 0.309207976 0.159612402
v 0.839713454 0.296084672 0.159612402
v 0.889335692 0.296084672 0.159612402
v 0.905133307 0.308202565 0.159612402
v 0.892010033 0.295079291 0.159612402
v 0.907808542 0.3055273 0.159612402
v 0.894685268 0.292403996 0.159612402
v 0.908813953 0.302855998 0.159612402
v 0.89569068 0.289729685 0.159612402
v 0.89569068 0.240107447 0.159612402
v 0.908813953 0.240107447 0.159612402
v -0.902462065 0.309207767 0.159612402
v -0.889335811 0.296084493 0.159612402
v -0.839713514 0.296084493 0.159612402
v -0.839713514 0.309207767 0.159612402
v -0.905133367 0.308202356 0.159612402
v -0.892010033 0.295079082 0.159612402
v -0.907808602 0.305527091 0.159612402
v -0.894685388 0.292403817 0.159612402
v -0.908814013 0.30285579 0.159612402
v -0.895690739 0.289729476 0.159612402
v -0.895690739 0.240107253 0.159612402
v -0.908814013 0.240107253 0.159612402
v -0.89569068 -0.240018457 0.159612402
v -0.89569068 -0.219860211 0.158450142
v -0.908813953 -0.219860211 0.158450142
v -0.908813953 -0.240018457 0.159612402
v 0.895690739 -0.24001883 0.159612402
v 0.908814013 -0.24001883 0.159612402
v 0.908814013 -0.219860569 0.158450142
v 0.895690739 -0.219860598 0.158450142
v 0.89569068 0.240107447 0.159612402
v 0.89569068 0.219949216 0.158450142
v 0.908813953 0.219949216 0.158450142
v 0.908813953 0.240107447 0.159612402
v -0.895690739 0.240107253 0.159612402
v -0.908814013 0.240107253 0.159612402
v -0.908814013 0.219948992 0.158450142
v -0.895690739 0.219949022 0.158450142
v -0.839713454 -0.295995682 0.159612402
v -0.839713454 -0.309118956 0.159612402
v -0.819555223 -0.309118956 0.158450142
v -0.819555223 -0.295995682 0.158450142
v 0.839713514 -0.29599607 0.159612402
v 0.819555283 -0.29599607 0.158450142
v 0.819555283 -0.309119344 0.158450142
v 0.839713514 -0.309119344 0.159612402
v 0.839713454 0.296084672 0.159612402
v 0.839713454 0.309207976 0.159612402
v 0.819555223 0.309207946 0.158450142
v 0.819555223 0.296084672 0.158450142
v -0.839713514 0.296084493 0.159612402
v -0.819555283 0.296084493 0.158450142
v -0.819555283 0.309207737 0.158450142
v -0.839713514 0.309207767 0.159612402
v -0.908375204 -0.241364285 0.139956281
v -0.908495307 -0.227727041 0.144503072
v -0.896009326 -0.227727041 0.144503072
v -0.896129429 -0.241364285 0.139956281
v 0.908375263 -0.241364673 0.139956281
v 0.896129429 -0.241364673 0.139956281
v 0.896009386 -0.227727413 0.144503072
v 0.908495426 -0.227727413 0.144503072
v 0.908375204 0.24145329 0.139956281
v 0.908495307 0.22781603 0.144503072
v 0.896009326 0.22781603 0.144503072
v 0.896129429 0.24145329 0.139956281
v -0.908375323 0.241453096 0.139956281
v -0.896129549 0.241453096 0.139956281
v -0.896009386 0.227815837 0.144503072
v -0.908495426 0.227815837 0.144503072
v -0.899200678 -0.289517403 0.0045580524
v -0.905303955 -0.289517403 0.00455805054
v -0.905433536 -0.283301592 0.0103628282
v -0.899071097 -0.283301592 0.01036283
v 0.899200737 -0.28951779 0.00455805194
v 0.899071097 -0.28330195 0.0103628291
v 0.905433595 -0.28330195 0.0103628263
v 0.905304015 -0.28951779 0.00455805007
v 0.899200678 0.289606392 0.0045580524
v 0.905303955 0.289606392 0.00455805054
v 0.905433536 0.283390582 0.0103628282
v 0.899071097 0.283390582 0.01036283
v -0.899200737 0.289606214 0.00455805194
v -0.899071097 0.283390403 0.0103628291
v -0.905433595 0.283390403 0.0103628263
v -0.905304015 0.289606214 0.00455805007
v -0.896239102 -0.257135659 0.135042235
v -0.896348774 -0.267790258 0.130128205
v -0.908155859 -0.267790288 0.130128205
v -0.908046126 -0.273138791 0.125214174
v -0.896458507 -0.273138791 0.125214174
v -0.908265531 -0.257135659 0.135042235
v -0.896129429 -0.241364285 0.139956281
v -0.908375204 -0.241364285 0.139956281
v 0.896239161 -0.257136017 0.135042235
v 0.908265591 -0.257136017 0.135042235
v 0.908155918 -0.267790645 0.130128205
v 0.896129429 -0.241364673 0.139956281
v 0.908375263 -0.241364673 0.139956281
v 0.896348894 -0.267790645 0.130128205
v 0.908046186 -0.273139179 0.125214174
v 0.896458507 -0.273139179 0.125214174
v 0.896239102 0.257224649 0.135042235
v 0.896348774 0.267879277 0.130128205
v 0.908155859 0.267879277 0.130128205
v 0.908046126 0.273227811 0.125214174
v 0.896458507 0.273227811 0.125214174
v 0.908265531 0.257224649 0.135042235
v 0.896129429 0.24145329 0.139956281
v 0.908375204 0.24145329 0.139956281
v -0.896239161 0.257224441 0.135042235
v -0.908265591 0.257224441 0.135042235
v -0.908155918 0.267879099 0.130128205
v -0.896129549 0.241453096 0.139956281
v -0.908375323 0.241453096 0.139956281
v -0.896348894 0.267879069 0.130128205
v -0.908046186 0.273227602 0.125214174
v -0.896458566 0.273227602 0.125214174
v -0.895850003 -0.221954331 0.151476607
v -0.896009326 -0.227727041 0.144503072
v -0.908495307 -0.227727041 0.144503072
v -0.90865463 -0.221954331 0.151476607
v -0.89569068 -0.219860211 0.158450142
v -0.908813953 -0.219860211 0.158450142
v 0.895850062 -0.221954703 0.151476607
v 0.90865469 -0.221954703 0.151476607
v 0.908495426 -0.227727413 0.144503072
v 0.896009386 -0.227727413 0.144503072
v 0.895690739 -0.219860598 0.158450142
v 0.908814013 -0.219860569 0.158450142
v 0.895850003 0.222043335 0.151476607
v 0.896009326 0.22781603 0.144503072
v 0.908495307 0.22781603 0.144503072
v 0.90865463 0.222043335 0.151476607
v 0.89569068 0.219949216 0.158450142
v 0.908813953 0.219949216 0.158450142
v -0.895850062 0.222043127 0.151476607
v -0.90865469 0.222043127 0.151476607
v -0.908495426 0.227815837 0.144503072
v -0.896009386 0.227815837 0.144503072
v -0.895690739 0.219949022 0.158450142
v -0.908814013 0.219948992 0.158450142
v -0.899071097 -0.283301592 0.01036283
v -0.905433536 -0.283301592 0.0103628282
v -0.907058954 -0.278315693 0.0870857909
v -0.897445679 -0.278315693 0.0870857909
v -0.896568179 -0.275140017 0.118925616
v -0.907936454 -0.275140017 0.118925616
v -0.896458507 -0.273138791 0.125214174
v -0.908046126 -0.273138791 0.125214174
v 0.899071097 -0.28330195 0.0103628291
v 0.897445738 -0.278316081 0.0870857909
v 0.907059014 -0.278316081 0.0870857909
v 0.905433595 -0.28330195 0.0103628263
v 0.896568239 -0.275140375 0.118925616
v 0.907936573 -0.275140375 0.118925616
v 0.896458507 -0.273139179 0.125214174
v 0.908046186 -0.273139179 0.125214174
v 0.899071097 0.283390582 0.01036283
v 0.905433536 0.283390582 0.0103628282
v 0.907058954 0.278404683 0.0870857909
v 0.897445679 0.278404683 0.0870857909
v 0.896568179 0.275229007 0.118925616
v 0.907936454 0.275229007 0.118925616
v 0.896458507 0.273227811 0.125214174
v 0.908046126 0.273227811 0.125214174
v -0.899071097 0.283390403 0.0103628291
v -0.897445738 0.278404504 0.0870857909
v -0.907059014 0.278404504 0.0870857909
v -0.905433595 0.283390403 0.0103628263
v -0.896568239 0.275228798 0.118925616
v -0.907936573 0.275228798 0.118925616
v -0.896458566 0.273227602 0.125214174
v -0.908046186 0.273227602 0.125214174
v -0.841059268 -0.308680207 0.139956281
v -0.841059268 -0.296434432 0.139956281
v -0.827422023 -0.296314329 0.144503072
v -0.827422023 -0.30880031 0.144503072
v 0.841059327 -0.308680594 0.139956281
v 0.827422082 -0.308800697 0.144503072
v 0.827422082 -0.296314687 0.144503072
v 0.841059327 -0.29643479 0.139956281
v 0.841059268 0.308769226 0.139956281
v 0.841059268 0.296523422 0.139956281
v 0.827422023 0.296403319 0.144503072
v 0.827422023 0.308889329 0.144503072
v -0.841059327 0.308769017 0.139956281
v -0.827422082 0.308889121 0.144503072
v -0.827422082 0.29640311 0.144503072
v -0.841059327 0.296523213 0.139956281
v -0.840386391 -0.296215057 0.149784341
v -0.821649313 -0.296155006 0.151476607
v -0.827422023 -0.296314329 0.144503072
v -0.827422023 -0.296314329 0.144503072
v -0.841059268 -0.296434432 0.139956281
v -0.840386391 -0.296215057 0.149784341
v -0.839713454 -0.295995682 0.159612402
v -0.819555223 -0.295995682 0.158450142
v -0.821649313 -0.296155006 0.151476607
v -0.821649313 -0.296155006 0.151476607
v -0.840386391 -0.296215057 0.149784341
v -0.839713454 -0.295995682 0.159612402
v 0.84038645 -0.296215415 0.149784341
v 0.841059327 -0.29643479 0.139956281
v 0.827422082 -0.296314687 0.144503072
v 0.827422082 -0.296314687 0.144503072
v 0.821649373 -0.296155363 0.151476607
v 0.84038645 -0.296215415 0.149784341
v 0.839713514 -0.29599607 0.159612402
v 0.84038645 -0.296215415 0.149784341
v 0.821649373 -0.296155363 0.151476607
v 0.821649373 -0.296155363 0.151476607
v 0.819555283 -0.29599607 0.158450142
v 0.839713514 -0.29599607 0.159612402
v 0.840386391 0.296304047 0.149784341
v 0.821649313 0.296243995 0.151476607
v 0.827422023 0.296403319 0.144503072
v 0.827422023 0.296403319 0.144503072
v 0.841059268 0.296523422 0.139956281
v 0.840386391 0.296304047 0.149784341
v 0.839713454 0.296084672 0.159612402
v 0.819555223 0.296084672 0.158450142
v 0.821649313 0.296243995 0.151476607
v 0.821649313 0.296243995 0.151476607
v 0.840386391 0.296304047 0.149784341
v 0.839713454 0.296084672 0.159612402
v -0.84038645 0.296303838 0.149784341
v -0.841059327 0.296523213 0.139956281
v -0.827422082 0.29640311 0.144503072
v -0.827422082 0.29640311 0.144503072
v -0.821649373 0.296243787 0.151476607
v -0.84038645 0.296303838 0.149784341
v -0.839713514 0.296084493 0.159612402
v -0.84038645 0.296303838 0.149784341
v -0.821649373 0.296243787 0.151476607
v -0.821649373 0.296243787 0.151476607
v -0.819555283 0.296084493 0.158450142
v -0.839713514 0.296084493 0.159612402
v -0.88921243 -0.299505651 0.00455805194
v -0.892849684 -0.299505651 0.00455805101
v -0.891146839 -0.296873182 0.118925631
v -0.895519376 -0.298500836 0.00455805101
v -0.894450188 -0.296745867 0.0870857909
v -0.87801069 -0.297750652 0.0870857909
v -0.882996559 -0.29937607 0.0103628291
v -0.874835014 -0.296873182 0.118925616
v -0.872833788 -0.29676348 0.125214174
v -0.890485644 -0.296215057 0.149784341
v -0.892915249 -0.295209646 0.149784341
v -0.867485285 -0.296653807 0.130128205
v -0.856830657 -0.296544105 0.135042235
v -0.841059268 -0.296434432 0.139956281
v -0.892010033 -0.294990271 0.159612402
v -0.840386391 -0.296215057 0.149784341
v -0.889335692 -0.295995682 0.159612402
v -0.839713454 -0.295995682 0.159612402
v 0.88921243 0.299594641 0.00455805194
v 0.892849684 0.299594641 0.00455805101
v 0.891037166 0.296852499 0.125214174
v 0.895519376 0.298589855 0.00455805101
v 0.894450188 0.296834856 0.0870857909
v 0.893572927 0.295957386 0.118925631
v 0.87801069 0.297839671 0.0870857909
v 0.882996559 0.29946509 0.0103628291
v 0.893463254 0.295847684 0.125214174
v 0.874835014 0.296962172 0.118925616
v 0.89324367 0.295628309 0.13504225
v 0.872833788 0.296852499 0.125214174
v 0.867485285 0.296742797 0.130128205
v 0.892915249 0.295298666 0.149784341
v 0.856830657 0.296633124 0.135042235
v 0.841059268 0.296523422 0.139956281
v 0.889335692 0.296084672 0.159612402
v 0.892010033 0.295079291 0.159612402
v 0.840386391 0.296304047 0.149784341
v 0.839713454 0.296084672 0.159612402
v -0.856830657 -0.296544105 0.135042235
v -0.856830657 -0.308570534 0.135042235
v -0.867485285 -0.308460832 0.130128205
v -0.841059268 -0.296434432 0.139956281
v -0.841059268 -0.308680207 0.139956281
v -0.867485285 -0.296653807 0.130128205
v -0.872833788 -0.308351159 0.125214174
v -0.872833788 -0.29676348 0.125214174
v 0.856830657 -0.296544492 0.135042235
v 0.867485344 -0.296654195 0.130128205
v 0.867485344 -0.308461219 0.130128205
v 0.872833848 -0.308351547 0.125214174
v 0.872833848 -0.296763867 0.125214174
v 0.856830657 -0.308570892 0.135042235
v 0.841059327 -0.29643479 0.139956281
v 0.841059327 -0.308680594 0.139956281
v 0.856830657 0.296633124 0.135042235
v 0.856830657 0.308659524 0.135042235
v 0.867485285 0.308549851 0.130128205
v 0.841059268 0.296523422 0.139956281
v 0.841059268 0.308769226 0.139956281
v 0.867485285 0.296742797 0.130128205
v 0.872833788 0.308440149 0.125214174
v 0.872833788 0.296852499 0.125214174
v -0.856830657 0.296632916 0.135042235
v -0.867485344 0.296742588 0.130128205
v -0.867485344 0.308549643 0.130128205
v -0.872833848 0.30843994 0.125214174
v -0.872833848 0.296852291 0.125214174
v -0.856830657 0.308659315 0.135042235
v -0.841059327 0.296523213 0.139956281
v -0.841059327 0.308769017 0.139956281
v 0.89070791 -0.29643479 0.139956281
v 0.892849743 -0.299506038 0.00455805147
v 0.889212489 -0.299506038 0.00455805194
v 0.882996678 -0.299376458 0.0103628291
v 0.878010809 -0.297751039 0.0870857909
v 0.893463314 -0.295759082 0.125214174
v 0.895519435 -0.298501253 0.00455805147
v 0.896440864 -0.294755578 0.0870857909
v 0.898195863 -0.295824766 0.00455805101
v 0.895563424 -0.293878257 0.118925631
v 0.895453691 -0.293768644 0.125214174
v 0.874835074 -0.29687354 0.118925616
v 0.872833848 -0.296763867 0.125214174
v 0.893353403 -0.295649379 0.130128205
v 0.895234346 -0.293549061 0.13504225
v 0.867485344 -0.296654195 0.130128205
v 0.89324373 -0.295539707 0.13504225
v 0.895124674 -0.293439358 0.139956281
v 0.856830657 -0.296544492 0.135042235
v 0.893134058 -0.295430005 0.139956281
v 0.894904733 -0.293220609 0.149784341
v 0.841059327 -0.29643479 0.139956281
v 0.892915249 -0.295210004 0.149784341
v 0.894685388 -0.292315394 0.159612402
v 0.892010033 -0.294990659 0.159612402
v 0.889335811 -0.29599607 0.159612402
v 0.84038645 -0.296215415 0.149784341
v 0.839713514 -0.29599607 0.159612402
v -0.892024219 0.297839463 0.0870857909
v -0.892849743 0.299594462 0.00455805147
v -0.889212489 0.299594462 0.00455805194
v -0.882996678 0.299464881 0.0103628291
v -0.878010809 0.297839463 0.0870857909
v -0.894450307 0.296834648 0.0870857909
v -0.895519435 0.298589677 0.00455805147
v -0.896440864 0.294844031 0.0870857909
v -0.898195863 0.29591319 0.00455805101
v -0.892915249 0.295298457 0.149784341
v -0.894904733 0.293309033 0.149784341
v -0.891146839 0.296961963 0.118925631
v -0.874835074 0.296961963 0.118925616
v -0.891037226 0.296852291 0.125214174
v -0.872833848 0.296852291 0.125214174
v -0.867485344 0.296742588 0.130128205
v -0.856830657 0.296632916 0.135042235
v -0.841059327 0.296523213 0.139956281
v -0.894685388 0.292403817 0.159612402
v -0.892010033 0.295079082 0.159612402
v -0.889335811 0.296084493 0.159612402
v -0.84038645 0.296303838 0.149784341
v -0.839713514 0.296084493 0.159612402
v -0.88921243 -0.299505651 0.00455805194
v -0.882996559 -0.29937607 0.0103628291
v -0.882996559 -0.305738539 0.0103628282
v -0.88921243 -0.305608958 0.00455805007
v 0.889212489 -0.299506038 0.00455805194
v 0.889212489 -0.305609345 0.00455805101
v 0.882996678 -0.305738926 0.0103628291
v 0.882996678 -0.299376458 0.0103628291
v 0.88921243 0.299594641 0.00455805194
v 0.882996559 0.29946509 0.0103628291
v 0.882996559 0.305827528 0.0103628282
v 0.88921243 0.305697978 0.00455805007
v -0.889212489 0.299594462 0.00455805194
v -0.889212489 0.305697799 0.00455805101
v -0.882996678 0.305827349 0.0103628291
v -0.882996678 0.299464881 0.0103628291
v -0.821649313 -0.296155006 0.151476607
v -0.821649313 -0.308959633 0.151476607
v -0.827422023 -0.30880031 0.144503072
v -0.827422023 -0.296314329 0.144503072
v -0.819555223 -0.295995682 0.158450142
v -0.819555223 -0.309118956 0.158450142
v 0.821649373 -0.296155363 0.151476607
v 0.827422082 -0.296314687 0.144503072
v 0.827422082 -0.308800697 0.144503072
v 0.821649373 -0.308960021 0.151476607
v 0.819555283 -0.29599607 0.158450142
v 0.819555283 -0.309119344 0.158450142
v 0.821649313 0.296243995 0.151476607
v 0.821649313 0.309048653 0.151476607
v 0.827422023 0.308889329 0.144503072
v 0.827422023 0.296403319 0.144503072
v 0.819555223 0.296084672 0.158450142
v 0.819555223 0.309207946 0.158450142
v -0.821649373 0.296243787 0.151476607
v -0.827422082 0.29640311 0.144503072
v -0.827422082 0.308889121 0.144503072
v -0.821649373 0.309048444 0.151476607
v -0.819555283 0.296084493 0.158450142
v -0.819555283 0.309207737 0.158450142
v -0.882996559 -0.29937607 0.0103628291
v -0.87801069 -0.297750652 0.0870857909
v -0.87801069 -0.307363957 0.0870857909
v -0.882996559 -0.305738539 0.0103628282
v -0.874835014 -0.296873182 0.118925616
v -0.874835014 -0.308241457 0.118925616
v -0.872833788 -0.29676348 0.125214174
v -0.872833788 -0.308351159 0.125214174
v 0.882996678 -0.299376458 0.0103628291
v 0.882996678 -0.305738926 0.0103628291
v 0.878010809 -0.307364345 0.0870857909
v 0.878010809 -0.297751039 0.0870857909
v 0.874835074 -0.29687354 0.118925616
v 0.874835074 -0.308241844 0.118925616
v 0.872833848 -0.296763867 0.125214174
v 0.872833848 -0.308351547 0.125214174
v 0.882996559 0.29946509 0.0103628291
v 0.87801069 0.297839671 0.0870857909
v 0.87801069 0.307452977 0.0870857909
v 0.882996559 0.305827528 0.0103628282
v 0.874835014 0.296962172 0.118925616
v 0.874835014 0.308330476 0.118925616
v 0.872833788 0.296852499 0.125214174
v 0.872833788 0.308440149 0.125214174
v -0.882996678 0.299464881 0.0103628291
v -0.882996678 0.305827349 0.0103628291
v -0.878010809 0.307452768 0.0870857909
v -0.878010809 0.297839463 0.0870857909
v -0.874835074 0.296961963 0.118925616
v -0.874835074 0.308330268 0.118925616
v -0.872833848 0.296852291 0.125214174
v -0.872833848 0.30843994 0.125214174
v -0.895910084 -0.240691364 0.149784341
v -0.896129429 -0.241364285 0.139956281
v -0.896009326 -0.227727041 0.144503072
v -0.896009326 -0.227727041 0.144503072
v -0.895850003 -0.221954331 0.151476607
v -0.895910084 -0.240691364 0.149784341
v -0.89569068 -0.240018457 0.159612402
v -0.895910084 -0.240691364 0.149784341
v -0.895850003 -0.221954331 0.151476607
v -0.895850003 -0.221954331 0.151476607
v -0.89569068 -0.219860211 0.158450142
v -0.89569068 -0.240018457 0.159612402
v 0.895910084 -0.240691736 0.149784341
v 0.895850062 -0.221954703 0.151476607
v 0.896009386 -0.227727413 0.144503072
v 0.896009386 -0.227727413 0.144503072
v 0.896129429 -0.241364673 0.139956281
v 0.895910084 -0.240691736 0.149784341
v 0.895690739 -0.24001883 0.159612402
v 0.895690739 -0.219860598 0.158450142
v 0.895850062 -0.221954703 0.151476607
v 0.895850062 -0.221954703 0.151476607
v 0.895910084 -0.240691736 0.149784341
v 0.895690739 -0.24001883 0.159612402
v 0.895910084 0.240780368 0.149784341
v 0.896129429 0.24145329 0.139956281
v 0.896009326 0.22781603 0.144503072
v 0.896009326 0.22781603 0.144503072
v 0.895850003 0.222043335 0.151476607
v 0.895910084 0.240780368 0.149784341
v 0.89569068 0.240107447 0.159612402
v 0.895910084 0.240780368 0.149784341
v 0.895850003 0.222043335 0.151476607
v 0.895850003 0.222043335 0.151476607
v 0.89569068 0.219949216 0.158450142
v 0.89569068 0.240107447 0.159612402
v -0.895910084 0.24078016 0.149784341
v -0.895850062 0.222043127 0.151476607
v -0.896009386 0.227815837 0.144503072
v -0.896009386 0.227815837 0.144503072
v -0.896129549 0.241453096 0.139956281
v -0.895910084 0.24078016 0.149784341
v -0.895690739 0.240107253 0.159612402
v -0.895690739 0.219949022 0.158450142
v -0.895850062 0.222043127 0.151476607
v -0.895850062 0.222043127 0.151476607
v -0.895910084 0.24078016 0.149784341
v -0.895690739 0.240107253 0.159612402
v 0.899200737 -0.28951779 0.00455805194
v 0.899200737 -0.293155074 0.00455805101
v 0.896568239 -0.291452199 0.118925631
v 0.898195863 -0.295824766 0.00455805101
v 0.896440864 -0.294755578 0.0870857909
v 0.897445738 -0.278316081 0.0870857909
v 0.899071097 -0.28330195 0.0103628291
v 0.895563424 -0.293878257 0.118925631
v 0.896568239 -0.275140375 0.118925616
v 0.896348894 -0.291232616 0.130128205
v 0.895453691 -0.293768644 0.125214174
v 0.896458507 -0.273139179 0.125214174
v 0.896348894 -0.267790645 0.130128205
v 0.896239161 -0.291122913 0.13504225
v 0.895234346 -0.293549061 0.13504225
v 0.896239161 -0.257136017 0.135042235
v 0.896129429 -0.291013211 0.139956281
v 0.895124674 -0.293439358 0.139956281
v 0.896129429 -0.241364673 0.139956281
v 0.895910084 -0.290791035 0.149784341
v 0.894904733 -0.293220609 0.149784341
v 0.895910084 -0.240691736 0.149784341
v 0.895690739 -0.289641052 0.159612402
v 0.894685388 -0.292315394 0.159612402
v 0.895690739 -0.24001883 0.159612402
v -0.899200737 0.289606214 0.00455805194
v -0.899200737 0.293243498 0.00455805101
v -0.897445738 0.292417973 0.0870857909
v -0.898195863 0.29591319 0.00455805101
v -0.896440864 0.294844031 0.0870857909
v -0.897445738 0.278404504 0.0870857909
v -0.899071097 0.283390403 0.0103628291
v -0.896568239 0.291540623 0.118925631
v -0.896568239 0.275228798 0.118925616
v -0.894904733 0.293309033 0.149784341
v -0.896458566 0.273227602 0.125214174
v -0.895690739 0.289729476 0.159612402
v -0.896348894 0.267879069 0.130128205
v -0.896239161 0.257224441 0.135042235
v -0.896129549 0.241453096 0.139956281
v -0.895910084 0.24078016 0.149784341
v -0.894685388 0.292403817 0.159612402
v -0.895690739 0.240107253 0.159612402
v -0.897445679 -0.292329162 0.0870857909
v -0.899200678 -0.293154687 0.00455805101
v -0.899200678 -0.289517403 0.0045580524
v -0.898195863 -0.295824379 0.00455805101
v -0.897445679 -0.278315693 0.0870857909
v -0.899071097 -0.283301592 0.01036283
v -0.896440864 -0.29475522 0.0870857909
v -0.895519376 -0.298500836 0.00455805101
v -0.894450188 -0.296745867 0.0870857909
v -0.896348774 -0.291232228 0.130128205
v -0.896568179 -0.275140017 0.118925616
v -0.894904673 -0.293220222 0.149784341
v -0.896458507 -0.273138791 0.125214174
v -0.896348774 -0.267790258 0.130128205
v -0.896239102 -0.257135659 0.135042235
v -0.892915249 -0.295209646 0.149784341
v -0.89569068 -0.289640695 0.159612402
v -0.896129429 -0.241364285 0.139956281
v -0.895910084 -0.240691364 0.149784341
v -0.89569068 -0.240018457 0.159612402
v -0.894685268 -0.292315006 0.159612402
v -0.892010033 -0.294990271 0.159612402
v 0.897445679 0.278404683 0.0870857909
v 0.899200678 0.293243676 0.00455805101
v 0.899200678 0.289606392 0.0045580524
v 0.899071097 0.283390582 0.01036283
v 0.896440864 0.29484421 0.0870857909
v 0.898195863 0.295913368 0.00455805101
v 0.895519376 0.298589855 0.00455805101
v 0.894450188 0.296834856 0.0870857909
v 0.896568179 0.275229007 0.118925616
v 0.895563364 0.293966889 0.118925631
v 0.893572927 0.295957386 0.118925631
v 0.896458507 0.291431159 0.125214174
v 0.896458507 0.273227811 0.125214174
v 0.895453691 0.293857247 0.125214174
v 0.893463254 0.295847684 0.125214174
v 0.896348774 0.291321218 0.130128205
v 0.896348774 0.267879277 0.130128205
v 0.895344019 0.293747365 0.130128205
v 0.89324367 0.295628309 0.13504225
v 0.896239102 0.291211545 0.13504225
v 0.896239102 0.257224649 0.135042235
v 0.895234346 0.293637693 0.13504225
v 0.896129429 0.291101843 0.139956281
v 0.896129429 0.24145329 0.139956281
v 0.895124614 0.293527991 0.139956281
v 0.892915249 0.295298666 0.149784341
v 0.895910025 0.290879667 0.149784341
v 0.895910084 0.240780368 0.149784341
v 0.894904673 0.293309242 0.149784341
v 0.89569068 0.289729685 0.159612402
v 0.89569068 0.240107447 0.159612402
v 0.894685268 0.292403996 0.159612402
v 0.892010033 0.295079291 0.159612402
vt 1.50954819 0.377198696
vt 1.42786682 0.483331442
vt 1.4444865 0.739074647
vt 1.49767327 0.758423924
vt 1.46520591 0.758423924
vt 1.41728127 0.377198696
vt 1.51836586 0.339856744
vt 1.50657356 0.758423924
vt 1.52500129 0.339856744
vt 1.51549506 0.758423924
vt 1.50937116 0.241576076
vt 1.41061056 0.356236815
vt 1.51909709 0.307096541
vt 1.39278221 0.339856744
vt 1.35726666 0.323476672
vt 1.30469549 0.307096541
vt 1.52573264 0.307096541
vt 1.52646184 0.274336338
vt 1.51983035 0.274336338
vt 1.52719307 0.241576076
vt 1.5182755 0.241576076
vt 1.30245245 0.274336338
vt 1.3002094 0.241576076
vt 1.49767327 0.758423924
vt 1.42786682 0.483331442
vt 1.4444865 0.739074647
vt 1.46520591 0.758423924
vt 1.50954819 0.377198696
vt 1.41728127 0.377198696
vt 1.50657356 0.758423924
vt 1.52500129 0.339856744
vt 1.51549506 0.758423924
vt 1.51763511 0.377198696
vt 1.51800084 0.356236815
vt 1.51836586 0.339856744
vt 1.50991392 0.356236815
vt 1.41061056 0.356236815
vt 1.5102787 0.339856744
vt 1.51909709 0.307096541
vt 1.39278221 0.339856744
vt 1.51064432 0.323476613
vt 1.35726666 0.323476672
vt 1.51100993 0.307096541
vt 1.30469549 0.307096541
vt 1.52573264 0.307096541
vt 1.52646184 0.274336338
vt 1.51983035 0.274336338
vt 1.52719307 0.241576076
vt 1.5182755 0.241576076
vt 1.51173913 0.274336338
vt 1.30245245 0.274336338
vt 1.50937116 0.241576076
vt 1.3002094 0.241576076
vt -0.497674704 0.758423924
vt -0.465207338 0.758423924
vt -0.444487929 0.739074647
vt -0.506623268 0.483331442
vt -0.427868307 0.483331442
vt -0.514711022 0.483331442
vt -0.506574988 0.758423924
vt -0.51836729 0.339856744
vt -0.509549618 0.377198696
vt -0.417282701 0.377198696
vt -0.509915471 0.356236815
vt -0.410611987 0.356236815
vt -0.510280132 0.339856744
vt -0.392783582 0.339856744
vt -0.518732905 0.323476613
vt -0.511011481 0.307096541
vt -0.357268155 0.323476672
vt -0.51909852 0.307096541
vt -0.304696977 0.307096541
vt -0.519831896 0.274336338
vt -0.509372592 0.241576076
vt -0.51827693 0.241576076
vt -0.302453876 0.274336338
vt -0.300210834 0.241576076
vt -0.497674704 0.758423924
vt -0.465207338 0.758423924
vt -0.444487929 0.739074647
vt -0.509549618 0.377198696
vt -0.427868366 0.483331442
vt -0.517636538 0.377198696
vt -0.506574988 0.758423924
vt -0.417282701 0.377198696
vt -0.410611987 0.356236815
vt -0.392783642 0.339856744
vt -0.357268095 0.323476672
vt -0.519831896 0.274336338
vt -0.509372592 0.241576076
vt -0.304697037 0.307096541
vt -0.51827693 0.241576076
vt -0.302453876 0.274336338
vt -0.300210834 0.241576076
vt 1.3002094 0.241576076
vt 1.2330153 0.245450258
vt 1.23999572 0.268695354
vt 1.23999572 0.268695354
vt 1.30245245 0.274336338
vt 1.3002094 0.241576076
vt 1.30245245 0.274336338
vt 1.23999572 0.268695354
vt 1.259238 0.29194051
vt 1.259238 0.29194051
vt 1.30469549 0.307096541
vt 1.30245245 0.274336338
vt -0.300210834 0.241576076
vt -0.302453876 0.274336338
vt -0.239997149 0.268695354
vt -0.239997149 0.268695354
vt -0.233016729 0.245450258
vt -0.300210834 0.241576076
vt -0.302453876 0.274336338
vt -0.304696977 0.307096541
vt -0.259239435 0.29194051
vt -0.259239435 0.29194051
vt -0.239997149 0.268695354
vt -0.302453876 0.274336338
vt 1.3002094 0.241576076
vt 1.2330153 0.245450258
vt 1.23999572 0.268695354
vt 1.23999572 0.268695354
vt 1.30245245 0.274336338
vt 1.3002094 0.241576076
vt 1.30245245 0.274336338
vt 1.23999572 0.268695354
vt 1.259238 0.29194051
vt 1.259238 0.29194051
vt 1.30469549 0.307096541
vt 1.30245245 0.274336338
vt -0.300210834 0.241576076
vt -0.302453876 0.274336338
vt -0.239997149 0.268695354
vt -0.239997149 0.268695354
vt -0.233016729 0.245450258
vt -0.300210834 0.241576076
vt -0.302453876 0.274336338
vt -0.304697037 0.307096541
vt -0.259239435 0.29194051
vt -0.259239435 0.29194051
vt -0.239997149 0.268695354
vt -0.302453876 0.274336338
vt 3.50874901 0.356236815
vt 3.42670202 0.483331442
vt 3.4433217 0.739074647
vt 3.49650836 0.758423924
vt 3.46404099 0.758423924
vt 3.50540876 0.758423924
vt 3.41611648 0.377198696
vt 3.52018023 0.483331442
vt 3.51433015 0.758423924
vt 3.51683593 0.356236815
vt 3.52383637 0.339856744
vt 3.40944576 0.356236815
vt 3.3916173 0.339856744
vt 3.51720095 0.339856744
vt 3.35610175 0.323476672
vt 3.51756668 0.323476613
vt 3.52420211 0.323476613
vt 3.30353069 0.307096541
vt 3.51793218 0.307096541
vt 3.52456784 0.307096541
vt 3.30128765 0.274336338
vt 3.50820637 0.241576076
vt 3.29904461 0.241576076
vt 3.51866555 0.274336338
vt 3.51711059 0.241576076
vt 3.52529693 0.274336338
vt 3.52602816 0.241576076
vt 3.50838327 0.377198696
vt 3.42670202 0.483331442
vt 3.4433217 0.739074647
vt 3.49650836 0.758423924
vt 3.46404099 0.758423924
vt 3.50540876 0.758423924
vt 3.41611648 0.377198696
vt 3.51866555 0.274336338
vt 3.51433015 0.758423924
vt 3.52310514 0.377198696
vt 3.40944576 0.356236815
vt 3.50820637 0.241576076
vt 3.3916173 0.339856744
vt 3.35610175 0.323476672
vt 3.30353069 0.307096541
vt 3.52529693 0.274336338
vt 3.30128765 0.274336338
vt 3.29904461 0.241576076
vt 3.51711059 0.241576076
vt 3.52602816 0.241576076
vt -2.49650884 0.758423924
vt -2.46404147 0.758423924
vt -2.44332218 0.739074647
vt -2.4267025 0.483331442
vt -2.51720142 0.339856744
vt -2.50540924 0.758423924
vt -2.50820684 0.241576076
vt -2.41611695 0.377198696
vt -2.40944624 0.356236815
vt -2.39161777 0.339856744
vt -2.35610247 0.323476672
vt -2.51793265 0.307096541
vt -2.52383685 0.339856744
vt -2.52456832 0.307096541
vt -2.30353117 0.307096541
vt -2.30128813 0.274336338
vt -2.51866603 0.274336338
vt -2.29904509 0.241576076
vt -2.51711106 0.241576076
vt -2.49650884 0.758423924
vt -2.46404147 0.758423924
vt -2.44332218 0.739074647
vt -2.50874972 0.356236815
vt -2.50540924 0.758423924
vt -2.4267025 0.483331442
vt -2.51720142 0.339856744
vt -2.41611695 0.377198696
vt -2.40944624 0.356236815
vt -2.50820684 0.241576076
vt -2.39161777 0.339856744
vt -2.35610247 0.323476672
vt -2.51756716 0.323476613
vt -2.52383685 0.339856744
vt -2.52456832 0.307096541
vt -2.30353117 0.307096541
vt -2.51793265 0.307096541
vt -2.30128813 0.274336338
vt -2.51866603 0.274336338
vt -2.29904509 0.241576076
vt -2.51711106 0.241576076
vt -2.29904509 0.241576076
vt -2.30128813 0.274336338
vt -2.23883128 0.268695354
vt -2.23883128 0.268695354
vt -2.23185086 0.245450258
vt -2.29904509 0.241576076
vt -2.30128813 0.274336338
vt -2.30353117 0.307096541
vt -2.25807357 0.29194051
vt -2.25807357 0.29194051
vt -2.23883128 0.268695354
vt -2.30128813 0.274336338
vt 3.29904461 0.241576076
vt 3.23185039 0.245450258
vt 3.2388308 0.268695354
vt 3.2388308 0.268695354
vt 3.30128765 0.274336338
vt 3.29904461 0.241576076
vt 3.30128765 0.274336338
vt 3.2388308 0.268695354
vt 3.25807309 0.29194051
vt 3.25807309 0.29194051
vt 3.30353069 0.307096541
vt 3.30128765 0.274336338
vt -2.29904509 0.241576076
vt -2.30128813 0.274336338
vt -2.23883128 0.268695354
vt -2.23883128 0.268695354
vt -2.23185086 0.245450258
vt -2.29904509 0.241576076
vt -2.30128813 0.274336338
vt -2.30353117 0.307096541
vt -2.25807357 0.29194051
vt -2.25807357 0.29194051
vt -2.23883128 0.268695354
vt -2.30128813 0.274336338
vt 3.29904461 0.241576076
vt 3.23185039 0.245450258
vt 3.2388308 0.268695354
vt 3.2388308 0.268695354
vt 3.30128765 0.274336338
vt 3.29904461 0.241576076
vt 3.30128765 0.274336338
vt 3.2388308 0.268695354
vt 3.25807309 0.29194051
vt 3.25807309 0.29194051
vt 3.30353069 0.307096541
vt 3.30128765 0.274336338
vt 3.49650884 1.51884449
vt 3.47616577 1.49850011
vt 3.46404147 1.49850011
vt 3.46404147 1.51884449
vt 3.48506474 1.49515069
vt 3.50540924 1.51549506
vt 3.49398637 1.48622918
vt 3.51433063 1.50657356
vt 3.49733567 1.47733021
vt 3.51768017 1.49767327
vt 3.49733567 1.46520591
vt 3.51768017 1.46520591
vt -2.49650836 1.51884592
vt -2.46404099 1.51884592
vt -2.46404099 1.49850154
vt -2.47616529 1.49850154
vt -2.48506427 1.49515212
vt -2.50540876 1.51549649
vt -2.49398589 1.48623061
vt -2.51433015 1.50657499
vt -2.4973352 1.47733164
vt -2.51767969 1.4976747
vt -2.4973352 1.46520734
vt -2.51767969 1.46520734
vt -2.49650884 -0.518844485
vt -2.47616577 -0.498500109
vt -2.46404147 -0.498500109
vt -2.46404147 -0.518844485
vt -2.48506474 -0.495150685
vt -2.50540924 -0.515495062
vt -2.49398637 -0.486229181
vt -2.51433063 -0.506573558
vt -2.49733567 -0.477330208
vt -2.51768017 -0.497673273
vt -2.49733567 -0.465205908
vt -2.51768017 -0.465205908
vt 3.49650836 -0.518845916
vt 3.46404099 -0.518845916
vt 3.46404099 -0.498501539
vt 3.47616529 -0.498501539
vt 3.48506427 -0.495152116
vt 3.50540876 -0.515496492
vt 3.49398589 -0.486230612
vt 3.51433015 -0.506574988
vt 3.4973352 -0.477331638
vt 3.51767969 -0.497674704
vt 3.4973352 -0.465207338
vt 3.51767969 -0.465207338
vt -2.50820684 1.5305444
vt -2.29904509 1.53054452
vt -2.29904509 1.48680019
vt -2.46445251 1.48680019
vt -2.51711106 1.52719307
vt -2.47336698 1.48344874
vt -2.52602863 1.5182755
vt -2.48228431 1.47453117
vt -2.52938008 1.50937116
vt -2.48563576 1.46561682
vt -2.48563576 1.3002094
vt -2.52938008 1.3002094
vt 3.50820637 1.53054583
vt 3.46445203 1.48680162
vt 3.29904461 1.48680151
vt 3.29904461 1.53054583
vt 3.51711059 1.5271945
vt 3.47336626 1.48345017
vt 3.52602816 1.51827693
vt 3.48228383 1.4745326
vt 3.52937961 1.50937259
vt 3.48563528 1.46561825
vt 3.48563528 1.30021083
vt 3.52937961 1.30021083
vt 3.50820684 -0.5305444
vt 3.29904509 -0.530544519
vt 3.29904509 -0.486800194
vt 3.46445251 -0.486800194
vt 3.51711106 -0.527193069
vt 3.47336698 -0.483448744
vt 3.52602863 -0.518275499
vt 3.48228431 -0.474531174
vt 3.52938008 -0.509371161
vt 3.48563576 -0.465616822
vt 3.48563576 -0.300209403
vt 3.52938008 -0.300209403
vt -2.50820637 -0.530545831
vt -2.46445203 -0.486801624
vt -2.29904461 -0.486801505
vt -2.29904461 -0.530545831
vt -2.51711059 -0.5271945
vt -2.47336626 -0.483450174
vt -2.52602816 -0.51827693
vt -2.48228383 -0.474532604
vt -2.52937961 -0.509372592
vt -2.48563528 -0.465618253
vt -2.48563528 -0.300210834
vt -2.52937961 -0.300210834
vt -2.48563576 1.3002094
vt -2.48563576 1.2330153
vt -2.52938008 1.2330153
vt -2.52938008 1.3002094
vt 3.48563528 1.30021083
vt 3.52937961 1.30021083
vt 3.52937961 1.23301673
vt 3.48563528 1.23301673
vt 3.48563576 -0.300209403
vt 3.48563576 -0.233015299
vt 3.52938008 -0.233015299
vt 3.52938008 -0.300209403
vt -2.48563528 -0.300210834
vt -2.52937961 -0.300210834
vt -2.52937961 -0.233016729
vt -2.48563528 -0.233016729
vt -2.29904509 1.48680019
vt -2.29904509 1.53054452
vt -2.23185086 1.53054452
vt -2.23185086 1.48680019
vt 3.29904461 1.48680151
vt 3.23185039 1.48680151
vt 3.23185039 1.53054583
vt 3.29904461 1.53054583
vt 3.29904509 -0.486800194
vt 3.29904509 -0.530544519
vt 3.23185086 -0.530544519
vt 3.23185086 -0.486800194
vt -2.29904461 -0.486801505
vt -2.23185039 -0.486801505
vt -2.23185039 -0.530545831
vt -2.29904461 -0.530545831
vt 3.52791762 1.30469549
vt 3.52831793 1.259238
vt 3.48669791 1.259238
vt 3.48709822 1.30469561
vt -2.52791715 1.30469704
vt -2.48709774 1.30469704
vt -2.48669744 1.25923944
vt -2.52831745 1.25923944
vt -2.52791762 -0.304695487
vt -2.52831793 -0.259238005
vt -2.48669791 -0.259238005
vt -2.48709822 -0.304695606
vt 3.52791715 -0.304697037
vt 3.48709774 -0.304697037
vt 3.48669744 -0.259239435
vt 3.52831745 -0.259239435
vt 3.49733567 1.46520591
vt 3.51768017 1.46520591
vt 3.51811194 1.4444865
vt 3.49690366 1.4444865
vt -2.4973352 1.46520734
vt -2.49690342 1.44448793
vt -2.51811147 1.44448793
vt -2.51767969 1.46520734
vt -2.49733567 -0.465205908
vt -2.51768017 -0.465205908
vt -2.51811194 -0.444486499
vt -2.49690366 -0.444486499
vt 3.4973352 -0.465207338
vt 3.49690342 -0.444487929
vt 3.51811147 -0.444487929
vt 3.51767969 -0.465207338
vt 3.48746395 1.35726666
vt 3.48782945 1.39278209
vt 3.52718639 1.39278221
vt 3.52682066 1.41061056
vt 3.48819518 1.41061056
vt 3.52755189 1.35726666
vt 3.48709822 1.30469561
vt 3.52791762 1.30469549
vt -2.48746347 1.3572681
vt -2.52755141 1.3572681
vt -2.52718592 1.39278364
vt -2.48709774 1.30469704
vt -2.52791715 1.30469704
vt -2.48782897 1.39278352
vt -2.52682018 1.41061199
vt -2.4881947 1.41061199
vt -2.48746395 -0.357266665
vt -2.48782945 -0.392782092
vt -2.52718639 -0.392782211
vt -2.52682066 -0.410610557
vt -2.48819518 -0.410610557
vt -2.52755189 -0.357266665
vt -2.48709822 -0.304695606
vt -2.52791762 -0.304695487
vt 3.48746347 -0.357268095
vt 3.52755141 -0.357268095
vt 3.52718592 -0.392783642
vt 3.48709774 -0.304697037
vt 3.52791715 -0.304697037
vt 3.48782897 -0.392783523
vt 3.52682018 -0.410611987
vt 3.4881947 -0.410611987
vt 3.48616672 0.268695354
vt 3.48669791 0.29194051
vt 3.52831793 0.29194051
vt 3.52884889 0.268695354
vt 3.48563576 0.245450258
vt 3.52938008 0.245450258
vt -2.48616648 0.268695354
vt -2.52884865 0.268695354
vt -2.52831745 0.29194051
vt -2.48669744 0.29194051
vt -2.48563528 0.245450258
vt -2.52937961 0.245450258
vt 3.48616672 0.268695354
vt 3.48669791 0.29194051
vt 3.52831793 0.29194051
vt 3.52884889 0.268695354
vt 3.48563576 0.245450258
vt 3.52938008 0.245450258
vt -2.48616648 0.268695354
vt -2.52884865 0.268695354
vt -2.52831745 0.29194051
vt -2.48669744 0.29194051
vt -2.48563528 0.245450258
vt -2.52937961 0.245450258
vt 3.49690366 0.739074647
vt 3.51811194 0.739074647
vt 3.52353001 0.483331442
vt 3.4914856 0.483331442
vt 3.48856068 0.377198696
vt 3.52645493 0.377198696
vt 3.48819518 0.356236815
vt 3.52682066 0.356236815
vt -2.49690342 0.739074647
vt -2.49148536 0.483331442
vt -2.52352953 0.483331442
vt -2.51811147 0.739074647
vt -2.4885602 0.377198696
vt -2.52645469 0.377198696
vt -2.4881947 0.356236815
vt -2.52682018 0.356236815
vt 3.49690366 0.739074647
vt 3.51811194 0.739074647
vt 3.52353001 0.483331442
vt 3.4914856 0.483331442
vt 3.48856068 0.377198696
vt 3.52645493 0.377198696
vt 3.48819518 0.356236815
vt 3.52682066 0.356236815
vt -2.49690342 0.739074647
vt -2.49148536 0.483331442
vt -2.52352953 0.483331442
vt -2.51811147 0.739074647
vt -2.4885602 0.377198696
vt -2.52645469 0.377198696
vt -2.4881947 0.356236815
vt -2.52682018 0.356236815
vt 3.30353117 1.52908194
vt 3.30353117 1.48826265
vt 3.25807357 1.48786235
vt 3.25807357 1.52948236
vt -2.30353069 1.52908337
vt -2.25807309 1.52948368
vt -2.25807309 1.48786366
vt -2.30353069 1.48826408
vt -2.30353117 -0.529081941
vt -2.30353117 -0.488262653
vt -2.25807357 -0.487862349
vt -2.25807357 -0.529482365
vt 3.30353069 -0.529083371
vt 3.25807309 -0.529483676
vt 3.25807309 -0.48786366
vt 3.30353069 -0.488264084
vt 3.30128813 0.274336338
vt 3.23883128 0.268695354
vt 3.25807357 0.29194051
vt 3.25807357 0.29194051
vt 3.30353117 0.307096541
vt 3.30128813 0.274336338
vt 3.29904509 0.241576076
vt 3.23185086 0.245450258
vt 3.23883128 0.268695354
vt 3.23883128 0.268695354
vt 3.30128813 0.274336338
vt 3.29904509 0.241576076
vt -2.30128765 0.274336338
vt -2.30353069 0.307096541
vt -2.25807309 0.29194051
vt -2.25807309 0.29194051
vt -2.2388308 0.268695354
vt -2.30128765 0.274336338
vt -2.29904461 0.241576076
vt -2.30128765 0.274336338
vt -2.2388308 0.268695354
vt -2.2388308 0.268695354
vt -2.23185039 0.245450258
vt -2.29904461 0.241576076
vt 3.30128813 0.274336338
vt 3.23883128 0.268695354
vt 3.25807357 0.29194051
vt 3.25807357 0.29194051
vt 3.30353117 0.307096541
vt 3.30128813 0.274336338
vt 3.29904509 0.241576076
vt 3.23185086 0.245450258
vt 3.23883128 0.268695354
vt 3.23883128 0.268695354
vt 3.30128813 0.274336338
vt 3.29904509 0.241576076
vt -2.30128765 0.274336338
vt -2.30353069 0.307096541
vt -2.25807309 0.29194051
vt -2.25807309 0.29194051
vt -2.2388308 0.268695354
vt -2.30128765 0.274336338
vt -2.29904461 0.241576076
vt -2.30128765 0.274336338
vt -2.2388308 0.268695354
vt -2.2388308 0.268695354
vt -2.23185039 0.245450258
vt -2.29904461 0.241576076
vt 3.46404147 0.758423924
vt 3.47616577 0.758423924
vt 3.4704895 0.377198696
vt 3.48506474 0.758423924
vt 3.48150086 0.483331442
vt 3.4267025 0.483331442
vt 3.44332218 0.739074647
vt 3.41611695 0.377198696
vt 3.40944624 0.356236815
vt 3.4682858 0.274336338
vt 3.47638416 0.274336338
vt 3.39161777 0.339856744
vt 3.35610223 0.323476672
vt 3.30353117 0.307096541
vt 3.47336698 0.241576076
vt 3.30128813 0.274336338
vt 3.46445251 0.241576076
vt 3.29904509 0.241576076
vt 3.46404147 0.758423924
vt 3.47616577 0.758423924
vt 3.47012401 0.356236815
vt 3.48506474 0.758423924
vt 3.48150086 0.483331442
vt 3.47857642 0.377198696
vt 3.4267025 0.483331442
vt 3.44332218 0.739074647
vt 3.47821093 0.356236815
vt 3.41611695 0.377198696
vt 3.47747922 0.323476613
vt 3.40944624 0.356236815
vt 3.39161777 0.339856744
vt 3.47638416 0.274336338
vt 3.35610223 0.323476672
vt 3.30353117 0.307096541
vt 3.46445251 0.241576076
vt 3.47336698 0.241576076
vt 3.30128813 0.274336338
vt 3.29904509 0.241576076
vt 3.35610223 1.48862827
vt 3.35610247 1.52871633
vt 3.39161777 1.52835071
vt 3.30353117 1.48826265
vt 3.30353117 1.52908194
vt 3.39161777 1.48899388
vt 3.40944624 1.5279851
vt 3.40944624 1.4893595
vt -2.35610175 1.48862958
vt -2.3916173 1.48899531
vt -2.3916173 1.52835202
vt -2.40944576 1.52798641
vt -2.40944576 1.48936093
vt -2.35610175 1.52871776
vt -2.30353069 1.48826408
vt -2.30353069 1.52908337
vt -2.35610223 -0.488628268
vt -2.35610247 -0.528716326
vt -2.39161777 -0.528350711
vt -2.30353117 -0.488262653
vt -2.30353117 -0.529081941
vt -2.39161777 -0.488993883
vt -2.40944624 -0.527985096
vt -2.40944624 -0.489359498
vt 3.35610175 -0.48862958
vt 3.3916173 -0.488995314
vt 3.3916173 -0.528352022
vt 3.40944576 -0.527986407
vt 3.40944576 -0.489360929
vt 3.35610175 -0.528717756
vt 3.30353069 -0.488264084
vt 3.30353069 -0.529083371
vt -2.46902585 0.307096541
vt -2.47616529 0.758423924
vt -2.46404099 0.758423924
vt -2.4433217 0.739074647
vt -2.42670202 0.483331442
vt -2.47821045 0.356236815
vt -2.48506427 0.758423924
vt -2.48813581 0.483331442
vt -2.49398589 0.758423924
vt -2.4852109 0.377198696
vt -2.4848454 0.356236815
vt -2.41611648 0.377198696
vt -2.40944576 0.356236815
vt -2.47784424 0.339856744
vt -2.48411417 0.323476613
vt -2.3916173 0.339856744
vt -2.47747874 0.323476613
vt -2.48374844 0.307096541
vt -2.35610175 0.323476672
vt -2.47711301 0.307096541
vt -2.4830153 0.274336338
vt -2.30353069 0.307096541
vt -2.47638369 0.274336338
vt -2.48228383 0.241576076
vt -2.47336626 0.241576076
vt -2.46445203 0.241576076
vt -2.30128765 0.274336338
vt -2.29904461 0.241576076
vt -2.47341347 0.483331442
vt -2.47616529 0.758423924
vt -2.46404099 0.758423924
vt -2.4433217 0.739074647
vt -2.42670202 0.483331442
vt -2.48150039 0.483331442
vt -2.48506427 0.758423924
vt -2.48813581 0.483331442
vt -2.49398589 0.758423924
vt -2.47638369 0.274336338
vt -2.4830153 0.274336338
vt -2.47048903 0.377198696
vt -2.41611648 0.377198696
vt -2.47012353 0.356236815
vt -2.40944576 0.356236815
vt -2.3916173 0.339856744
vt -2.35610175 0.323476672
vt -2.30353069 0.307096541
vt -2.48228383 0.241576076
vt -2.47336626 0.241576076
vt -2.46445203 0.241576076
vt -2.30128765 0.274336338
vt -2.29904461 0.241576076
vt 3.46404147 1.49850011
vt 3.44332218 1.49806809
vt 3.44332218 1.51927638
vt 3.46404147 1.51884449
vt -2.46404099 1.49850154
vt -2.46404099 1.51884592
vt -2.4433217 1.51927781
vt -2.4433217 1.49806952
vt -2.46404147 -0.498500109
vt -2.44332218 -0.498068094
vt -2.44332218 -0.519276381
vt -2.46404147 -0.518844485
vt 3.46404099 -0.498501539
vt 3.46404099 -0.518845916
vt 3.4433217 -0.519277811
vt 3.4433217 -0.498069525
vt -0.487331271 0.268695354
vt -0.530013442 0.268695354
vt -0.529482365 0.29194051
vt -0.487862349 0.29194051
vt -0.486800194 0.245450258
vt -0.530544519 0.245450258
vt 1.48733258 0.268695354
vt 1.48786366 0.29194051
vt 1.52948368 0.29194051
vt 1.53001475 0.268695354
vt 1.48680151 0.245450258
vt 1.53054583 0.245450258
vt -0.487331271 0.268695354
vt -0.530013442 0.268695354
vt -0.529482365 0.29194051
vt -0.487862349 0.29194051
vt -0.486800194 0.245450258
vt -0.530544519 0.245450258
vt 1.48733258 0.268695354
vt 1.48786366 0.29194051
vt 1.52948368 0.29194051
vt 1.53001475 0.268695354
vt 1.48680151 0.245450258
vt 1.53054583 0.245450258
vt -0.498068154 0.739074647
vt -0.492650092 0.483331442
vt -0.524694443 0.483331442
vt -0.519276381 0.739074647
vt -0.489725113 0.377198696
vt -0.527619481 0.377198696
vt -0.489359498 0.356236815
vt -0.527985096 0.356236815
vt 1.49806952 0.739074647
vt 1.51927781 0.739074647
vt 1.52469587 0.483331442
vt 1.49265146 0.483331442
vt 1.48972654 0.377198696
vt 1.52762079 0.377198696
vt 1.48936093 0.356236815
vt 1.52798641 0.356236815
vt -0.498068094 0.739074647
vt -0.492650032 0.483331442
vt -0.524694443 0.483331442
vt -0.519276381 0.739074647
vt -0.489725113 0.377198696
vt -0.527619481 0.377198696
vt -0.489359498 0.356236815
vt -0.527985096 0.356236815
vt 1.49806952 0.739074647
vt 1.51927781 0.739074647
vt 1.52469587 0.483331442
vt 1.49265146 0.483331442
vt 1.48972654 0.377198696
vt 1.52762079 0.377198696
vt 1.48936093 0.356236815
vt 1.52798641 0.356236815
vt -0.302452445 0.274336338
vt -0.304695547 0.307096541
vt -0.259238005 0.29194051
vt -0.259238005 0.29194051
vt -0.239995658 0.268695354
vt -0.302452445 0.274336338
vt -0.300209403 0.241576076
vt -0.302452445 0.274336338
vt -0.239995658 0.268695354
vt -0.239995658 0.268695354
vt -0.233015299 0.245450258
vt -0.300209403 0.241576076
vt 1.30245388 0.274336338
vt 1.23999715 0.268695354
vt 1.25923944 0.29194051
vt 1.25923944 0.29194051
vt 1.30469704 0.307096541
vt 1.30245388 0.274336338
vt 1.30021083 0.241576076
vt 1.23301673 0.245450258
vt 1.23999715 0.268695354
vt 1.23999715 0.268695354
vt 1.30245388 0.274336338
vt 1.30021083 0.241576076
vt -0.302452445 0.274336338
vt -0.304695606 0.307096541
vt -0.259238005 0.29194051
vt -0.259238005 0.29194051
vt -0.239995718 0.268695354
vt -0.302452445 0.274336338
vt -0.300209403 0.241576076
vt -0.302452445 0.274336338
vt -0.239995718 0.268695354
vt -0.239995718 0.268695354
vt -0.233015299 0.245450258
vt -0.300209403 0.241576076
vt 1.30245388 0.274336338
vt 1.23999715 0.268695354
vt 1.25923944 0.29194051
vt 1.25923944 0.29194051
vt 1.30469704 0.307096541
vt 1.30245388 0.274336338
vt 1.30021083 0.241576076
vt 1.23301673 0.245450258
vt 1.23999715 0.268695354
vt 1.23999715 0.268695354
vt 1.30245388 0.274336338
vt 1.30021083 0.241576076
vt 1.46520734 0.758423924
vt 1.47733164 0.758423924
vt 1.47165537 0.377198696
vt 1.48623061 0.758423924
vt 1.48266673 0.483331442
vt 1.42786837 0.483331442
vt 1.44448793 0.739074647
vt 1.47974229 0.377198696
vt 1.4172827 0.377198696
vt 1.47092342 0.339856744
vt 1.47937679 0.356236815
vt 1.41061199 0.356236815
vt 1.39278352 0.339856744
vt 1.47055769 0.323476613
vt 1.47864485 0.323476613
vt 1.3572681 0.323476672
vt 1.47019219 0.307096541
vt 1.47827935 0.307096541
vt 1.30469704 0.307096541
vt 1.46945143 0.274336338
vt 1.47755003 0.274336338
vt 1.30245388 0.274336338
vt 1.46561825 0.241576076
vt 1.4745326 0.241576076
vt 1.30021083 0.241576076
vt 1.46520734 0.758423924
vt 1.47733164 0.758423924
vt 1.47457981 0.483331442
vt 1.48623061 0.758423924
vt 1.48266673 0.483331442
vt 1.42786837 0.483331442
vt 1.44448793 0.739074647
vt 1.47165537 0.377198696
vt 1.4172827 0.377198696
vt 1.47755003 0.274336338
vt 1.41061199 0.356236815
vt 1.46561825 0.241576076
vt 1.39278352 0.339856744
vt 1.3572681 0.323476672
vt 1.30469704 0.307096541
vt 1.30245388 0.274336338
vt 1.4745326 0.241576076
vt 1.30021083 0.241576076
vt -0.474578381 0.483331442
vt -0.477330148 0.758423924
vt -0.465205908 0.758423924
vt -0.486229122 0.758423924
vt -0.427866876 0.483331442
vt -0.444486499 0.739074647
vt -0.482665241 0.483331442
vt -0.495150685 0.758423924
vt -0.489300728 0.483331442
vt -0.470921934 0.339856744
vt -0.41728127 0.377198696
vt -0.477548659 0.274336338
vt -0.410610557 0.356236815
vt -0.392782092 0.339856744
vt -0.357266724 0.323476672
vt -0.484180033 0.274336338
vt -0.465616822 0.241576076
vt -0.304695547 0.307096541
vt -0.302452445 0.274336338
vt -0.300209403 0.241576076
vt -0.474531233 0.241576076
vt -0.483448803 0.241576076
vt -0.427866936 0.483331442
vt -0.477330208 0.758423924
vt -0.465205908 0.758423924
vt -0.444486499 0.739074647
vt -0.4826653 0.483331442
vt -0.486229181 0.758423924
vt -0.495150685 0.758423924
vt -0.489300728 0.483331442
vt -0.41728127 0.377198696
vt -0.479740858 0.377198696
vt -0.486375809 0.377198696
vt -0.471288443 0.356236815
vt -0.410610557 0.356236815
vt -0.479375362 0.356236815
vt -0.486010194 0.356236815
vt -0.470921993 0.339856744
vt -0.392782092 0.339856744
vt -0.479009151 0.339856744
vt -0.485278964 0.323476613
vt -0.470556259 0.323476613
vt -0.357266665 0.323476672
vt -0.478643417 0.323476613
vt -0.470190763 0.307096541
vt -0.304695606 0.307096541
vt -0.478277922 0.307096541
vt -0.484179974 0.274336338
vt -0.469449997 0.274336338
vt -0.302452445 0.274336338
vt -0.477548599 0.274336338
vt -0.465616822 0.241576076
vt -0.300209403 0.241576076
vt -0.474531174 0.241576076
vt -0.483448744 0.241576076
f 1/1 2/2 3/3
f 4/4 3/3 5/5
f 4/4 1/1 3/3
f 1/1 6/6 2/2
f 7/7 1/1 4/4
f 4/4 8/8 7/7
f 9/9 7/7 8/8
f 8/8 10/10 9/9
f 7/7 11/11 1/1
f 6/6 1/1 11/11
f 11/11 12/12 6/6
f 11/11 7/7 13/13
f 11/11 14/14 12/12
f 11/11 15/15 14/14
f 11/11 16/16 15/15
f 13/13 17/17 18/18
f 18/18 19/19 13/13
f 11/11 13/13 19/19
f 19/19 18/18 20/20
f 20/20 21/21 19/19
f 11/11 19/19 21/21
f 11/11 22/22 16/16
f 11/11 23/23 22/22
f 24/24 25/25 26/26
f 24/24 26/26 27/27
f 25/25 24/24 28/28
f 28/28 29/29 25/25
f 24/24 30/30 31/31
f 30/30 32/32 31/31
f 24/24 31/31 33/33
f 33/33 28/28 24/24
f 31/31 34/34 33/33
f 28/28 33/33 34/34
f 31/31 35/35 34/34
f 34/34 36/36 28/28
f 36/36 34/34 35/35
f 29/29 28/28 36/36
f 36/36 37/37 29/29
f 35/35 38/38 36/36
f 37/37 36/36 38/38
f 38/38 35/35 39/39
f 38/38 40/40 37/37
f 39/39 41/41 38/38
f 40/40 38/38 41/41
f 41/41 42/42 40/40
f 42/42 41/41 43/43
f 39/39 43/43 41/41
f 43/43 44/44 42/42
f 39/39 45/45 46/46
f 46/46 47/47 39/39
f 43/43 39/39 47/47
f 47/47 46/46 48/48
f 48/48 49/49 47/47
f 47/47 50/50 43/43
f 44/44 43/43 50/50
f 50/50 47/47 49/49
f 50/50 51/51 44/44
f 49/49 52/52 50/50
f 51/51 50/50 52/52
f 52/52 53/53 51/51
f 54/54 55/55 56/56
f 54/54 56/56 57/57
f 56/56 58/58 57/57
f 54/54 57/57 59/59
f 59/59 60/60 54/54
f 61/61 59/59 57/57
f 62/62 57/57 58/58
f 57/57 62/62 61/61
f 58/58 63/63 62/62
f 64/64 62/62 63/63
f 62/62 64/64 61/61
f 63/63 65/65 64/64
f 66/66 64/64 65/65
f 64/64 66/66 61/61
f 65/65 67/67 66/66
f 68/68 61/61 66/66
f 69/69 66/66 67/67
f 66/66 69/69 68/68
f 67/67 70/70 69/69
f 71/71 68/68 69/69
f 70/70 72/72 69/69
f 73/73 71/71 69/69
f 74/74 69/69 72/72
f 69/69 74/74 73/73
f 75/75 73/73 74/74
f 72/72 76/76 74/74
f 76/76 77/77 74/74
f 78/78 79/79 80/80
f 78/78 80/80 81/81
f 80/80 82/82 81/81
f 78/78 81/81 83/83
f 83/83 84/84 78/78
f 82/82 85/85 81/81
f 85/85 86/86 81/81
f 86/86 87/87 81/81
f 87/87 88/88 81/81
f 89/89 83/83 81/81
f 90/90 81/81 88/88
f 81/81 90/90 89/89
f 88/88 91/91 90/90
f 92/92 89/89 90/90
f 91/91 93/93 90/90
f 93/93 94/94 90/90
f 95/95 96/96 97/97
f 98/98 99/99 100/100
f 101/101 102/102 103/103
f 104/104 105/105 106/106
f 107/107 108/108 109/109
f 110/110 111/111 112/112
f 113/113 114/114 115/115
f 116/116 117/117 118/118
f 119/119 120/120 121/121
f 122/122 123/123 124/124
f 125/125 126/126 127/127
f 128/128 129/129 130/130
f 131/131 132/132 133/133
f 134/134 135/135 136/136
f 137/137 138/138 139/139
f 140/140 141/141 142/142
f 143/143 144/144 145/145
f 146/146 145/145 147/147
f 146/146 143/143 145/145
f 143/143 146/146 148/148
f 143/143 149/149 144/144
f 148/148 150/150 143/143
f 150/150 148/148 151/151
f 150/150 152/152 143/143
f 150/150 153/153 152/152
f 143/143 154/154 149/149
f 143/143 155/155 154/154
f 156/156 152/152 153/153
f 152/152 156/156 143/143
f 143/143 157/157 155/155
f 158/158 156/156 153/153
f 156/156 158/158 143/143
f 153/153 159/159 158/158
f 143/143 160/160 157/157
f 161/161 158/158 159/159
f 158/158 161/161 143/143
f 159/159 162/162 161/161
f 143/143 163/163 160/160
f 163/163 143/143 164/164
f 164/164 165/165 163/163
f 161/161 166/166 143/143
f 164/164 143/143 166/166
f 166/166 161/161 162/162
f 166/166 167/167 164/164
f 162/162 168/168 166/166
f 167/167 166/166 168/168
f 168/168 169/169 167/167
f 170/170 171/171 172/172
f 173/173 172/172 174/174
f 173/173 170/170 172/172
f 170/170 173/173 175/175
f 170/170 176/176 171/171
f 175/175 177/177 170/170
f 177/177 175/175 178/178
f 178/178 179/179 177/177
f 170/170 180/180 176/176
f 180/180 170/170 181/181
f 181/181 170/170 177/177
f 181/181 182/182 180/180
f 181/181 183/183 182/182
f 181/181 184/184 183/183
f 179/179 185/185 177/177
f 181/181 186/186 184/184
f 181/181 187/187 186/186
f 177/177 188/188 181/181
f 188/188 177/177 185/185
f 185/185 189/189 188/188
f 190/190 191/191 192/192
f 192/192 193/193 190/190
f 190/190 194/194 195/195
f 196/196 190/190 193/193
f 194/194 190/190 196/196
f 193/193 197/197 196/196
f 197/197 198/198 196/196
f 198/198 199/199 196/196
f 199/199 200/200 196/196
f 196/196 201/201 194/194
f 202/202 194/194 201/201
f 201/201 203/203 202/202
f 200/200 204/204 196/196
f 204/204 205/205 196/196
f 196/196 206/206 201/201
f 205/205 207/207 196/196
f 196/196 208/208 206/206
f 209/209 210/210 211/211
f 209/209 211/211 212/212
f 213/213 209/209 212/212
f 211/211 214/214 212/212
f 212/212 215/215 213/213
f 214/214 216/216 212/212
f 216/216 217/217 212/212
f 218/218 212/212 217/217
f 215/215 212/212 218/218
f 217/217 219/219 218/218
f 219/219 220/220 218/218
f 218/218 221/221 215/215
f 222/222 215/215 221/221
f 221/221 223/223 222/222
f 220/220 224/224 218/218
f 223/223 221/221 225/225
f 218/218 225/225 221/221
f 224/224 226/226 218/218
f 218/218 227/227 225/225
f 226/226 228/228 218/218
f 218/218 229/229 227/227
f 230/230 231/231 232/232
f 233/233 234/234 235/235
f 236/236 237/237 238/238
f 239/239 240/240 241/241
f 242/242 243/243 244/244
f 245/245 246/246 247/247
f 248/248 249/249 250/250
f 251/251 252/252 253/253
f 254/254 255/255 256/256
f 257/257 258/258 259/259
f 260/260 261/261 262/262
f 263/263 264/264 265/265
f 266/266 267/267 268/268
f 269/269 270/270 271/271
f 272/272 273/273 274/274
f 275/275 276/276 277/277
f 278/278 279/279 280/280
f 280/280 281/281 278/278
f 282/282 279/279 278/278
f 278/278 283/283 282/282
f 284/284 282/282 283/283
f 283/283 285/285 284/284
f 286/286 284/284 285/285
f 285/285 287/287 286/286
f 288/288 286/286 287/287
f 287/287 289/289 288/288
f 290/290 291/291 292/292
f 292/292 293/293 290/290
f 290/290 293/293 294/294
f 294/294 295/295 290/290
f 295/295 294/294 296/296
f 296/296 297/297 295/295
f 297/297 296/296 298/298
f 298/298 299/299 297/297
f 299/299 298/298 300/300
f 300/300 301/301 299/299
f 302/302 303/303 304/304
f 304/304 305/305 302/302
f 306/306 303/303 302/302
f 302/302 307/307 306/306
f 308/308 306/306 307/307
f 307/307 309/309 308/308
f 310/310 308/308 309/309
f 309/309 311/311 310/310
f 312/312 310/310 311/311
f 311/311 313/313 312/312
f 314/314 315/315 316/316
f 316/316 317/317 314/314
f 314/314 317/317 318/318
f 318/318 319/319 314/314
f 319/319 318/318 320/320
f 320/320 321/321 319/319
f 321/321 320/320 322/322
f 322/322 323/323 321/321
f 323/323 322/322 324/324
f 324/324 325/325 323/323
f 326/326 327/327 328/328
f 328/328 329/329 326/326
f 330/330 326/326 329/329
f 329/329 331/331 330/330
f 332/332 330/330 331/331
f 331/331 333/333 332/332
f 334/334 332/332 333/333
f 333/333 335/335 334/334
f 334/334 335/335 336/336
f 336/336 337/337 334/334
f 338/338 339/339 340/340
f 340/340 341/341 338/338
f 339/339 338/338 342/342
f 342/342 343/343 339/339
f 343/343 342/342 344/344
f 344/344 345/345 343/343
f 345/345 344/344 346/346
f 346/346 347/347 345/345
f 348/348 347/347 346/346
f 346/346 349/349 348/348
f 350/350 351/351 352/352
f 352/352 353/353 350/350
f 354/354 350/350 353/353
f 353/353 355/355 354/354
f 356/356 354/354 355/355
f 355/355 357/357 356/356
f 358/358 356/356 357/357
f 357/357 359/359 358/358
f 358/358 359/359 360/360
f 360/360 361/361 358/358
f 362/362 363/363 364/364
f 364/364 365/365 362/362
f 363/363 362/362 366/366
f 366/366 367/367 363/363
f 367/367 366/366 368/368
f 368/368 369/369 367/367
f 369/369 368/368 370/370
f 370/370 371/371 369/369
f 372/372 371/371 370/370
f 370/370 373/373 372/372
f 374/374 375/375 376/376
f 376/376 377/377 374/374
f 378/378 379/379 380/380
f 380/380 381/381 378/378
f 382/382 383/383 384/384
f 384/384 385/385 382/382
f 386/386 387/387 388/388
f 388/388 389/389 386/386
f 390/390 391/391 392/392
f 392/392 393/393 390/390
f 394/394 395/395 396/396
f 396/396 397/397 394/394
f 398/398 399/399 400/400
f 400/400 401/401 398/398
f 402/402 403/403 404/404
f 404/404 405/405 402/402
f 406/406 407/407 408/408
f 408/408 409/409 406/406
f 410/410 411/411 412/412
f 412/412 413/413 410/410
f 414/414 415/415 416/416
f 416/416 417/417 414/414
f 418/418 419/419 420/420
f 420/420 421/421 418/418
f 422/422 423/423 424/424
f 424/424 425/425 422/422
f 426/426 427/427 428/428
f 428/428 429/429 426/426
f 430/430 431/431 432/432
f 432/432 433/433 430/430
f 434/434 435/435 436/436
f 436/436 437/437 434/434
f 438/438 439/439 440/440
f 441/441 440/440 439/439
f 439/439 442/442 441/441
f 440/440 443/443 438/438
f 444/444 438/438 443/443
f 443/443 445/445 444/444
f 446/446 447/447 448/448
f 447/447 446/446 449/449
f 449/449 450/450 447/447
f 448/448 451/451 446/446
f 451/451 448/448 452/452
f 452/452 453/453 451/451
f 454/454 455/455 456/456
f 457/457 456/456 455/455
f 455/455 458/458 457/457
f 456/456 459/459 454/454
f 460/460 454/454 459/459
f 459/459 461/461 460/460
f 462/462 463/463 464/464
f 463/463 462/462 465/465
f 465/465 466/466 463/463
f 464/464 467/467 462/462
f 467/467 464/464 468/468
f 468/468 469/469 467/467
f 470/470 471/471 472/472
f 472/472 473/473 470/470
f 474/474 470/470 473/473
f 473/473 475/475 474/474
f 476/476 477/477 478/478
f 478/478 479/479 476/476
f 477/477 476/476 480/480
f 480/480 481/481 477/477
f 482/482 483/483 484/484
f 484/484 485/485 482/482
f 486/486 482/482 485/485
f 485/485 487/487 486/486
f 488/488 489/489 490/490
f 490/490 491/491 488/488
f 489/489 488/488 492/492
f 492/492 493/493 489/489
f 494/494 495/495 496/496
f 496/496 497/497 494/494
f 498/498 497/497 496/496
f 496/496 499/499 498/498
f 500/500 498/498 499/499
f 499/499 501/501 500/500
f 502/502 503/503 504/504
f 504/504 505/505 502/502
f 504/504 503/503 506/506
f 506/506 507/507 504/504
f 507/507 506/506 508/508
f 508/508 509/509 507/507
f 510/510 511/511 512/512
f 512/512 513/513 510/510
f 514/514 513/513 512/512
f 512/512 515/515 514/514
f 516/516 514/514 515/515
f 515/515 517/517 516/516
f 518/518 519/519 520/520
f 520/520 521/521 518/518
f 520/520 519/519 522/522
f 522/522 523/523 520/520
f 523/523 522/522 524/524
f 524/524 525/525 523/523
f 526/526 527/527 528/528
f 528/528 529/529 526/526
f 530/530 531/531 532/532
f 532/532 533/533 530/530
f 534/534 535/535 536/536
f 536/536 537/537 534/534
f 538/538 539/539 540/540
f 540/540 541/541 538/538
f 542/542 543/543 544/544
f 545/545 546/546 547/547
f 548/548 549/549 550/550
f 551/551 552/552 553/553
f 554/554 555/555 556/556
f 557/557 558/558 559/559
f 560/560 561/561 562/562
f 563/563 564/564 565/565
f 566/566 567/567 568/568
f 569/569 570/570 571/571
f 572/572 573/573 574/574
f 575/575 576/576 577/577
f 578/578 579/579 580/580
f 581/581 582/582 583/583
f 584/584 585/585 586/586
f 587/587 588/588 589/589
f 590/590 591/591 592/592
f 591/591 593/593 594/594
f 594/594 592/592 591/591
f 590/590 592/592 595/595
f 596/596 590/590 595/595
f 592/592 597/597 595/595
f 592/592 598/598 597/597
f 594/594 599/599 592/592
f 598/598 592/592 599/599
f 599/599 594/594 600/600
f 599/599 601/601 598/598
f 599/599 602/602 601/601
f 599/599 603/603 602/602
f 599/599 600/600 604/604
f 599/599 605/605 603/603
f 604/604 606/606 599/599
f 605/605 599/599 606/606
f 606/606 607/607 605/605
f 608/608 609/609 610/610
f 609/609 611/611 612/612
f 612/612 610/610 609/609
f 610/610 612/612 613/613
f 608/608 610/610 614/614
f 615/615 608/608 614/614
f 610/610 613/613 616/616
f 610/610 617/617 614/614
f 610/610 616/616 618/618
f 610/610 619/619 617/617
f 610/610 620/620 619/619
f 610/610 618/618 621/621
f 610/610 622/622 620/620
f 610/610 623/623 622/622
f 621/621 624/624 610/610
f 623/623 610/610 624/624
f 624/624 621/621 625/625
f 624/624 626/626 623/623
f 624/624 627/627 626/626
f 628/628 629/629 630/630
f 629/629 628/628 631/631
f 631/631 632/632 629/629
f 630/630 633/633 628/628
f 633/633 630/630 634/634
f 634/634 635/635 633/633
f 636/636 637/637 638/638
f 639/639 638/638 637/637
f 637/637 640/640 639/639
f 638/638 641/641 636/636
f 642/642 636/636 641/641
f 641/641 643/643 642/642
f 644/644 645/645 646/646
f 645/645 644/644 647/647
f 647/647 648/648 645/645
f 646/646 649/649 644/644
f 649/649 646/646 650/650
f 650/650 651/651 649/649
f 652/652 653/653 654/654
f 655/655 654/654 653/653
f 653/653 656/656 655/655
f 654/654 657/657 652/652
f 658/658 652/652 657/657
f 657/657 659/659 658/658
f 660/660 661/661 662/662
f 663/663 664/664 662/662
f 664/664 660/660 662/662
f 661/661 660/660 665/665
f 665/665 666/666 661/661
f 666/666 665/665 667/667
f 667/667 668/668 666/666
f 669/669 667/667 665/665
f 670/670 669/669 665/665
f 664/664 671/671 660/660
f 671/671 672/672 660/660
f 665/665 673/673 670/670
f 673/673 665/665 660/660
f 674/674 670/670 673/673
f 672/672 675/675 660/660
f 673/673 676/676 674/674
f 676/676 673/673 660/660
f 677/677 674/674 676/676
f 675/675 678/678 660/660
f 676/676 679/679 677/677
f 679/679 676/676 660/660
f 680/680 677/677 679/679
f 678/678 681/681 660/660
f 679/679 682/682 680/680
f 682/682 679/679 660/660
f 683/683 680/680 682/682
f 682/682 684/684 683/683
f 660/660 685/685 682/682
f 684/684 682/682 685/685
f 685/685 660/660 681/681
f 681/681 686/686 685/685
f 686/686 687/687 685/685
f 688/688 689/689 690/690
f 691/691 692/692 690/690
f 692/692 688/688 690/690
f 689/689 688/688 693/693
f 693/693 694/694 689/689
f 694/694 693/693 695/695
f 695/695 696/696 694/694
f 693/693 697/697 695/695
f 697/697 693/693 688/688
f 698/698 695/695 697/697
f 699/699 688/688 692/692
f 688/688 699/699 697/697
f 692/692 700/700 699/699
f 701/701 699/699 700/700
f 699/699 701/701 697/697
f 700/700 702/702 701/701
f 702/702 703/703 701/701
f 703/703 704/704 701/701
f 704/704 705/705 701/701
f 706/706 698/698 697/697
f 697/697 707/707 706/706
f 701/701 708/708 697/697
f 707/707 697/697 708/708
f 708/708 701/701 705/705
f 705/705 709/709 708/708
f 709/709 710/710 708/708
f 711/711 712/712 713/713
f 713/713 714/714 711/711
f 715/715 716/716 717/717
f 717/717 718/718 715/715
f 719/719 720/720 721/721
f 721/721 722/722 719/719
f 723/723 724/724 725/725
f 725/725 726/726 723/723
f 727/727 728/728 729/729
f 729/729 730/730 727/727
f 728/728 727/727 731/731
f 731/731 732/732 728/728
f 733/733 734/734 735/735
f 735/735 736/736 733/733
f 737/737 733/733 736/736
f 736/736 738/738 737/737
f 739/739 740/740 741/741
f 741/741 742/742 739/739
f 740/740 739/739 743/743
f 743/743 744/744 740/740
f 745/745 746/746 747/747
f 747/747 748/748 745/745
f 749/749 745/745 748/748
f 748/748 750/750 749/749
f 751/751 752/752 753/753
f 753/753 754/754 751/751
f 753/753 752/752 755/755
f 755/755 756/756 753/753
f 756/756 755/755 757/757
f 757/757 758/758 756/756
f 759/759 760/760 761/761
f 761/761 762/762 759/759
f 763/763 762/762 761/761
f 761/761 764/764 763/763
f 765/765 763/763 764/764
f 764/764 766/766 765/765
f 767/767 768/768 769/769
f 769/769 770/770 767/767
f 769/769 768/768 771/771
f 771/771 772/772 769/769
f 772/772 771/771 773/773
f 773/773 774/774 772/772
f 775/775 776/776 777/777
f 777/777 778/778 775/775
f 779/779 778/778 777/777
f 777/777 780/780 779/779
f 781/781 779/779 780/780
f 780/780 782/782 781/781
f 783/783 784/784 785/785
f 786/786 787/787 788/788
f 789/789 790/790 791/791
f 792/792 793/793 794/794
f 795/795 796/796 797/797
f 798/798 799/799 800/800
f 801/801 802/802 803/803
f 804/804 805/805 806/806
f 807/807 808/808 809/809
f 810/810 811/811 812/812
f 813/813 814/814 815/815
f 816/816 817/817 818/818
f 819/819 820/820 821/821
f 822/822 823/823 824/824
f 825/825 826/826 827/827
f 828/828 829/829 830/830
f 831/831 832/832 833/833
f 833/833 832/832 834/834
f 834/834 835/835 833/833
f 831/831 833/833 836/836
f 837/837 831/831 836/836
f 835/835 838/838 833/833
f 833/833 839/839 836/836
f 840/840 833/833 838/838
f 839/839 833/833 840/840
f 838/838 841/841 840/840
f 840/840 842/842 839/839
f 840/840 843/843 842/842
f 844/844 840/840 841/841
f 843/843 840/840 844/844
f 841/841 845/845 844/844
f 844/844 846/846 843/843
f 847/847 844/844 845/845
f 846/846 844/844 847/847
f 845/845 848/848 847/847
f 847/847 849/849 846/846
f 850/850 847/847 848/848
f 849/849 847/847 850/850
f 848/848 851/851 850/850
f 850/850 852/852 849/849
f 853/853 850/850 851/851
f 852/852 850/850 853/853
f 851/851 854/854 853/853
f 853/853 855/855 852/852
f 856/856 857/857 858/858
f 858/858 857/857 859/859
f 859/859 860/860 858/858
f 856/856 858/858 861/861
f 862/862 856/856 861/861
f 863/863 858/858 860/860
f 861/861 858/858 863/863
f 863/863 864/864 861/861
f 860/860 865/865 863/863
f 863/863 866/866 864/864
f 867/867 863/863 865/865
f 866/866 863/863 867/867
f 867/867 868/868 866/866
f 867/867 869/869 868/868
f 867/867 870/870 869/869
f 867/867 871/871 870/870
f 865/865 872/872 867/867
f 867/867 873/873 871/871
f 874/874 875/875 876/876
f 877/877 875/875 874/874
f 878/878 874/874 876/876
f 879/879 878/878 876/876
f 874/874 880/880 877/877
f 881/881 877/877 880/880
f 880/880 882/882 881/881
f 883/883 874/874 878/878
f 880/880 874/874 883/883
f 878/878 884/884 883/883
f 882/882 880/880 885/885
f 883/883 885/885 880/880
f 884/884 886/886 883/883
f 886/886 887/887 883/883
f 887/887 888/888 883/883
f 885/885 889/889 882/882
f 890/890 883/883 888/888
f 885/885 883/883 890/890
f 888/888 891/891 890/890
f 891/891 892/892 890/890
f 892/892 893/893 890/890
f 890/890 894/894 885/885
f 889/889 885/885 894/894
f 894/894 895/895 889/889
f 896/896 897/897 898/898
f 899/899 896/896 898/898
f 897/897 900/900 901/901
f 902/902 901/901 900/900
f 900/900 903/903 902/902
f 896/896 904/904 897/897
f 903/903 900/900 905/905
f 897/897 905/905 900/900
f 905/905 906/906 903/903
f 907/907 897/897 904/904
f 905/905 897/897 907/907
f 904/904 908/908 907/907
f 906/906 905/905 909/909
f 907/907 909/909 905/905
f 909/909 910/910 906/906
f 911/911 907/907 908/908
f 909/909 907/907 911/911
f 908/908 912/912 911/911
f 910/910 909/909 913/913
f 911/911 913/913 909/909
f 913/913 914/914 910/910
f 915/915 911/911 912/912
f 913/913 911/911 915/915
f 912/912 916/916 915/915
f 914/914 913/913 917/917
f 915/915 917/917 913/913
f 918/918 915/915 916/916
f 917/917 915/915 918/918
f 916/916 919/919 918/918
f 914/914 917/917 920/920
f 918/918 920/920 917/917
f 920/920 921/921 914/914
f 922/922 918/918 919/919
f 920/920 918/918 922/922
f 919/919 923/923 922/922
f 921/921 920/920 924/924
f 922/922 924/924 920/920
f 925/925 922/922 923/923
f 924/924 922/922 925/925
f 923/923 926/926 925/925
f 925/925 927/927 924/924
f 921/921 924/924 927/927
f 927/927 928/928 921/921
