v 0.496120363 -0.249000013 0.298889011
v 0.496120363 0.248999983 0.298889011
v 0.496120363 0.248999983 0.889889002
v 0.496120363 -0.249000013 0.889889002
v -0.499879599 0.248999983 0.298889011
v -0.499879599 -0.249000013 0.298889011
v -0.499879599 -0.249000013 0.889889002
v -0.499879599 0.248999983 0.889889002
v 0.483853102 -0.249000028 0.665775537
v 0.483853102 -0.249000013 0.312317222
v 0.483853102 -0.244000003 0.312317222
v 0.483853102 -0.244000033 0.665775537
v -0.487612337 -0.249000013 0.312317222
v -0.487612337 -0.249000028 0.665775537
v -0.487612337 -0.244000033 0.665775537
v -0.487612337 -0.244000003 0.312317222
v -0.487612337 -0.249000028 0.670375526
v -0.487612337 -0.249000028 0.889793932
v -0.487612337 -0.244000033 0.889793932
v -0.487612337 -0.244000033 0.670375526
v 0.483853102 -0.249000028 0.889793932
v 0.483853102 -0.249000028 0.670375526
v 0.483853102 -0.244000033 0.670375526
v 0.483853102 -0.244000033 0.889793932
v 0.496120363 0.248999983 0.298889011
v -0.499879599 0.248999983 0.298889011
v -0.499879599 0.248999983 0.889889002
v 0.496120363 0.248999983 0.889889002
v -0.487612337 -0.249000028 0.889793932
v 0.483853102 -0.249000028 0.889793932
v 0.483853102 -0.244000033 0.889793932
v -0.487612337 -0.244000033 0.889793932
v -0.499879599 -0.249000013 0.298889011
v -0.499879599 0.248999983 0.298889011
v 0.496120363 0.248999983 0.298889011
v 0.496120363 -0.249000013 0.298889011
v 0.483853102 -0.249000013 0.312317222
v -0.487612337 -0.249000013 0.312317222
v -0.487612337 -0.244000003 0.312317222
v 0.483853102 -0.244000003 0.312317222
v -0.487612337 -0.249000028 0.665775537
v 0.483853102 -0.249000028 0.665775537
v 0.483853102 -0.244000033 0.665775537
v -0.487612337 -0.244000033 0.665775537
v -0.499879599 -0.249000013 0.298889011
v 0.496120363 -0.249000013 0.298889011
v 0.488621324 -0.249000013 0.307885438
v 0.48845309 -0.249000028 0.889806747
v 0.496120363 -0.249000013 0.889889002
v -0.492380559 -0.249000013 0.307885438
v -0.499879599 -0.249000013 0.889889002
v -0.492212325 -0.249000028 0.889806747
v 0.483853102 -0.249000013 0.312317222
v 0.483853102 -0.249000028 0.665775537
v -0.487612337 -0.249000028 0.665775537
v -0.487612337 -0.249000013 0.312317222
v 0.483853102 -0.249000028 0.889793932
v -0.487612337 -0.249000028 0.889793932
v -0.487612337 -0.249000028 0.670375526
v 0.483853102 -0.249000028 0.670375526
v -0.487612337 -0.244000033 0.665775537
v 0.483853102 -0.244000033 0.665775537
v 0.483853102 -0.244000003 0.312317222
v -0.487612337 -0.244000003 0.312317222
v -0.487612337 -0.244000033 0.670375526
v -0.487612337 -0.244000033 0.889793932
v 0.483853102 -0.244000033 0.889793932
v 0.483853102 -0.244000033 0.670375526
v 0.483853102 -0.249000028 0.670375526
v -0.487612337 -0.249000028 0.670375526
v -0.487612337 -0.244000033 0.670375526
v 0.483853102 -0.244000033 0.670375526
v -0.492380559 -0.249000013 0.307885438
v 0.488621324 -0.249000013 0.307885438
v 0.488621324 -0.24206157 0.307885438
v -0.492380559 -0.24206157 0.307885438
v 0.488621324 -0.249000013 0.307885438
v 0.48845309 -0.249000028 0.889806747
v 0.48845309 -0.242061585 0.889806747
v 0.488621324 -0.24206157 0.307885438
v -0.492212325 -0.249000028 0.889806747
v -0.492380559 -0.249000013 0.307885438
v -0.492380559 -0.24206157 0.307885438
v -0.492212325 -0.242061585 0.889806747
f 1 2 3
f 3 4 1
f 5 6 7
f 7 8 5
f 9 10 11
f 11 12 9
f 13 14 15
f 15 16 13
f 17 18 19
f 19 20 17
f 21 22 23
f 23 24 21
f 25 26 27
f 27 28 25
f 29 30 31
f 31 32 29
f 33 34 35
f 35 36 33
f 37 38 39
f 39 40 37
f 41 42 43
f 43 44 41
f 45 46 47
f 48 47 46
f 46 49 48
f 47 50 45
f 51 45 50
f 50 52 51
f 53 54 55
f 55 56 53
f 57 58 59
f 59 60 57
f 61 62 63
f 63 64 61
f 65 66 67
f 67 68 65
f 69 70 71
f 71 72 69
f 73 74 75
f 75 76 73
f 77 78 79
f 79 80 77
f 81 82 83
f 83 84 81
