v 0.476879627 0.24958396 1.23429096
v 0.476879627 0.24958393 1.93429101
v 0.476879627 0.209143043 1.93429101
v 0.476879627 0.209143072 1.23429096
v -0.473120362 0.24958393 1.93429101
v -0.473120362 0.24958396 1.23429096
v -0.473120362 0.209143072 1.23429096
v -0.473120362 0.209143043 1.93429101
v -0.473120362 0.24958396 1.23429096
v 0.476879627 0.24958396 1.23429096
v 0.476879627 0.209143072 1.23429096
v -0.473120362 0.209143072 1.23429096
v 0.476879627 0.24958393 1.93429101
v -0.473120362 0.24958393 1.93429101
v -0.473120362 0.209143043 1.93429101
v 0.476879627 0.209143043 1.93429101
v -0.473120362 0.24958396 1.23429096
v -0.473120362 0.24958393 1.93429101
v 0.476879627 0.24958393 1.93429101
v 0.476879627 0.24958396 1.23429096
v -0.461720377 0.205824956 1.24569106
v 0.465479642 0.205824956 1.24569106
v 0.450919628 0.205824956 1.26025105
v 0.450919628 0.205824926 1.90833104
v -0.447160363 0.205824956 1.26025105
v 0.465479642 0.205824926 1.92289102
v -0.461720377 0.205824926 1.92289102
v -0.447160363 0.205824926 1.90833104
v -0.473120362 0.209143072 1.23429096
v 0.476879627 0.209143072 1.23429096
v 0.476879627 0.209143043 1.93429101
v -0.473120362 0.209143043 1.93429101
f 1 2 3
f 3 4 1
f 5 6 7
f 7 8 5
f 9 10 11
f 11 12 9
f 13 14 15
f 15 16 13
f 17 18 19
f 19 20 17
f 21 22 23
f 24 23 22
f 23 25 21
f 22 26 24
f 27 21 25
f 28 24 26
f 26 27 28
f 25 28 27
f 29 30 31
f 31 32 29
