v -0.298449993 -0.527050018 -1.17028613e-16
v 0.298449993 -0.527050018 -1.17028613e-16
v 0.298449993 -0.527050018 0.031750001
v -0.298449993 -0.527050018 0.031750001
v 0.298449993 0.527050018 1.17028613e-16
v -0.298449993 0.527050018 1.17028613e-16
v -0.298449993 0.527050018 0.031750001
v 0.298449993 0.527050018 0.031750001
v 0.298449993 -0.527050018 -1.17028613e-16
v 0.298449993 0.527050018 1.17028613e-16
v 0.298449993 0.527050018 0.031750001
v 0.298449993 -0.527050018 0.031750001
v -0.298449993 0.527050018 1.17028613e-16
v -0.298449993 -0.527050018 -1.17028613e-16
v -0.298449993 -0.527050018 0.031750001
v -0.298449993 0.527050018 0.031750001
v -0.284050018 -0.512650013 0.02339283
v 0.284050018 -0.512650013 0.02339283
v 0.281450003 -0.510049999 0.02339283
v 0.281450003 0.510049999 0.0233928245
v -0.281450003 -0.510049999 0.02339283
v 0.284050018 0.512650013 0.0233928245
v -0.284050018 0.512650013 0.0233928245
v -0.281450003 0.510049999 0.0233928245
v 0.298449993 -0.527050018 0.031750001
v 0.298449993 0.527050018 0.031750001
v 0.295520693 0.524120688 0.0311317872
v 0.295520693 -0.524120688 0.0311317872
v -0.298449993 0.527050018 0.031750001
v -0.298449993 -0.527050018 0.031750001
v -0.295520693 -0.524120688 0.0311317872
v -0.295520693 0.524120688 0.0311317872
v 0.295520693 0.524120688 0.0311317872
v 0.291824043 0.520424068 0.0299383979
v 0.291824043 -0.520424068 0.0299384017
v 0.295520693 -0.524120688 0.0311317872
v -0.295520693 -0.524120688 0.0311317872
v -0.291824043 -0.520424068 0.0299384017
v -0.291824043 0.520424068 0.0299383979
v -0.295520693 0.524120688 0.0311317872
v -0.298449993 -0.527050018 0.031750001
v 0.298449993 -0.527050018 0.031750001
v 0.295520693 -0.524120688 0.0311317872
v -0.295520693 -0.524120688 0.0311317872
v 0.298449993 0.527050018 0.031750001
v -0.298449993 0.527050018 0.031750001
v -0.295520693 0.524120688 0.0311317872
v 0.295520693 0.524120688 0.0311317872
v 0.291824043 0.520424068 0.0299383979
v 0.288561732 0.517161727 0.0280101914
v 0.288561732 -0.517161727 0.028010197
v 0.291824043 -0.520424068 0.0299384017
v -0.291824043 -0.520424068 0.0299384017
v -0.288561732 -0.517161727 0.028010197
v -0.288561732 0.517161727 0.0280101914
v -0.291824043 0.520424068 0.0299383979
v 0.295520693 -0.524120688 0.0311317872
v 0.291824043 -0.520424068 0.0299384017
v -0.291824043 -0.520424068 0.0299384017
v -0.295520693 -0.524120688 0.0311317872
v -0.295520693 0.524120688 0.0311317872
v -0.291824043 0.520424068 0.0299383979
v 0.291824043 0.520424068 0.0299383979
v 0.295520693 0.524120688 0.0311317872
v 0.288561732 0.517161727 0.0280101914
v 0.285733759 0.514333725 0.0253471676
v 0.285733759 -0.514333725 0.0253471732
v 0.288561732 -0.517161727 0.028010197
v -0.288561732 -0.517161727 0.028010197
v -0.285733759 -0.514333725 0.0253471732
v -0.285733759 0.514333725 0.0253471676
v -0.288561732 0.517161727 0.0280101914
v 0.285733759 -0.514333725 0.0253471732
v 0.285733759 0.514333725 0.0253471676
v 0.284050018 0.512650013 0.0233928245
v 0.284050018 -0.512650013 0.02339283
v -0.285733759 0.514333725 0.0253471676
v -0.285733759 -0.514333725 0.0253471732
v -0.284050018 -0.512650013 0.02339283
v -0.284050018 0.512650013 0.0233928245
v 0.291824043 -0.520424068 0.0299384017
v 0.288561732 -0.517161727 0.028010197
v -0.288561732 -0.517161727 0.028010197
v -0.291824043 -0.520424068 0.0299384017
v -0.291824043 0.520424068 0.0299383979
v -0.288561732 0.517161727 0.0280101914
v 0.288561732 0.517161727 0.0280101914
v 0.291824043 0.520424068 0.0299383979
v 0.281450003 -0.510049999 0.02339283
v 0.281450003 0.510049999 0.0233928245
v 0.281450003 0.510049999 0.0213928279
v 0.281450003 -0.510049999 0.0213928316
v -0.281450003 0.510049999 0.0233928245
v -0.281450003 -0.510049999 0.02339283
v -0.281450003 -0.510049999 0.0213928316
v -0.281450003 0.510049999 0.0213928279
v 0.288561732 -0.517161727 0.028010197
v 0.285733759 -0.514333725 0.0253471732
v -0.285733759 -0.514333725 0.0253471732
v -0.288561732 -0.517161727 0.028010197
v -0.288561732 0.517161727 0.0280101914
v -0.285733759 0.514333725 0.0253471676
v 0.285733759 0.514333725 0.0253471676
v 0.288561732 0.517161727 0.0280101914
v -0.285733759 -0.514333725 0.0253471732
v 0.285733759 -0.514333725 0.0253471732
v 0.284050018 -0.512650013 0.02339283
v -0.284050018 -0.512650013 0.02339283
v 0.285733759 0.514333725 0.0253471676
v -0.285733759 0.514333725 0.0253471676
v -0.284050018 0.512650013 0.0233928245
v 0.284050018 0.512650013 0.0233928245
v -0.281450003 -0.510049999 0.02339283
v 0.281450003 -0.510049999 0.02339283
v 0.281450003 -0.510049999 0.0213928316
v -0.281450003 -0.510049999 0.0213928316
v 0.281450003 0.510049999 0.0233928245
v -0.281450003 0.510049999 0.0233928245
v -0.281450003 0.510049999 0.0213928279
v 0.281450003 0.510049999 0.0213928279
vt 0.112966835 -0.00254464149
vt 0.887032807 -0.00254464149
vt 0.887032807 -0.0156677961
vt 0.112966835 -0.0156677961
vt 0.887033165 -0.00254464149
vt 0.112967193 -0.00254464149
vt 0.112967193 -0.0156677961
vt 0.887033165 -0.0156677961
vt 0.976728976 0.933773279
vt 0.976728976 0.06622684
vt 0.993059993 0.06622684
vt 0.993059993 0.933773279
vt 0.976729035 0.0662267208
vt 0.976729035 0.93377316
vt 0.993060112 0.93377316
vt 0.993060112 0.0662267208
vt 0.024600029 0.985853076
vt 0.975399554 0.985853195
vt 0.971048057 0.98338908
vt 0.971048474 0.0166110396
vt 0.0289515257 0.98338896
vt 0.975399971 0.014146924
vt 0.0246004462 0.0141468048
vt 0.0289519429 0.0166109204
vt 0.999500036 0.999500453
vt 0.999500513 0.000499665737
vt 0.994597852 0.00327587128
vt 0.994597435 0.996724248
vt 0.000499933958 0.000499546528
vt 0.000499516726 0.999500334
vt 0.00540214777 0.996724129
vt 0.005402565 0.00327575207
vt 0.994597852 0.00327587128
vt 0.98841095 0.00677925348
vt 0.988410592 0.993220866
vt 0.994597435 0.996724248
vt 0.00540214777 0.996724129
vt 0.0115890205 0.993220747
vt 0.0115894377 0.00677913427
vt 0.005402565 0.00327575207
vt 0.000499516726 0.999500334
vt 0.999500036 0.999500453
vt 0.994597435 0.996724248
vt 0.00540214777 0.996724129
vt 0.999500513 0.000499665737
vt 0.000499933958 0.000499546528
vt 0.005402565 0.00327575207
vt 0.994597852 0.00327587128
vt 0.98841095 0.00677925348
vt 0.982951045 0.00987100601
vt 0.982950628 0.990129113
vt 0.988410592 0.993220866
vt 0.0115890205 0.993220747
vt 0.017048955 0.990128994
vt 0.0170493722 0.0098708868
vt 0.0115894377 0.00677913427
vt 0.994597435 0.996724248
vt 0.988410592 0.993220866
vt 0.0115890205 0.993220747
vt 0.00540214777 0.996724129
vt 0.005402565 0.00327575207
vt 0.0115894377 0.00677913427
vt 0.98841095 0.00677925348
vt 0.994597852 0.00327587128
vt 0.982951045 0.00987100601
vt 0.978217959 0.0125512481
vt 0.978217602 0.987448871
vt 0.982950628 0.990129113
vt 0.017048955 0.990128994
vt 0.0217820108 0.987448752
vt 0.021782428 0.0125511289
vt 0.0170493722 0.0098708868
vt 0.978217602 0.987448871
vt 0.978217959 0.0125512481
vt 0.975399971 0.014146924
vt 0.975399554 0.985853195
vt 0.021782428 0.0125511289
vt 0.0217820108 0.987448752
vt 0.024600029 0.985853076
vt 0.0246004462 0.0141468048
vt 0.988410592 0.993220866
vt 0.982950628 0.990129113
vt 0.017048955 0.990128994
vt 0.0115890205 0.993220747
vt 0.0115894377 0.00677913427
vt 0.0170493722 0.0098708868
vt 0.982951045 0.00987100601
vt 0.98841095 0.00677925348
vt 0.971048057 0.98338908
vt 0.971048474 0.0166110396
vt 0.971048474 0.0166110396
vt 0.971048057 0.98338908
vt 0.0289519429 0.0166109204
vt 0.0289515257 0.98338896
vt 0.0289515257 0.98338896
vt 0.0289519429 0.0166109204
vt 0.982950628 0.990129113
vt 0.978217602 0.987448871
vt 0.0217820108 0.987448752
vt 0.017048955 0.990128994
vt 0.0170493722 0.0098708868
vt 0.021782428 0.0125511289
vt 0.978217959 0.0125512481
vt 0.982951045 0.00987100601
vt 0.0217820108 0.987448752
vt 0.978217602 0.987448871
vt 0.975399554 0.985853195
vt 0.024600029 0.985853076
vt 0.978217959 0.0125512481
vt 0.021782428 0.0125511289
vt 0.0246004462 0.0141468048
vt 0.975399971 0.014146924
vt 0.0289515257 0.98338896
vt 0.971048057 0.98338908
vt 0.971048057 0.98338908
vt 0.0289515257 0.98338896
vt 0.971048474 0.0166110396
vt 0.0289519429 0.0166109204
vt 0.0289519429 0.0166109204
vt 0.971048474 0.0166110396
f 1/1 2/2 3/3
f 3/3 4/4 1/1
f 5/5 6/6 7/7
f 7/7 8/8 5/5
f 9/9 10/10 11/11
f 11/11 12/12 9/9
f 13/13 14/14 15/15
f 15/15 16/16 13/13
f 17/17 18/18 19/19
f 20/20 19/19 18/18
f 19/19 21/21 17/17
f 18/18 22/22 20/20
f 23/23 17/17 21/21
f 24/24 20/20 22/22
f 22/22 23/23 24/24
f 21/21 24/24 23/23
f 25/25 26/26 27/27
f 27/27 28/28 25/25
f 29/29 30/30 31/31
f 31/31 32/32 29/29
f 33/33 34/34 35/35
f 35/35 36/36 33/33
f 37/37 38/38 39/39
f 39/39 40/40 37/37
f 41/41 42/42 43/43
f 43/43 44/44 41/41
f 45/45 46/46 47/47
f 47/47 48/48 45/45
f 49/49 50/50 51/51
f 51/51 52/52 49/49
f 53/53 54/54 55/55
f 55/55 56/56 53/53
f 57/57 58/58 59/59
f 59/59 60/60 57/57
f 61/61 62/62 63/63
f 63/63 64/64 61/61
f 65/65 66/66 67/67
f 67/67 68/68 65/65
f 69/69 70/70 71/71
f 71/71 72/72 69/69
f 73/73 74/74 75/75
f 75/75 76/76 73/73
f 77/77 78/78 79/79
f 79/79 80/80 77/77
f 81/81 82/82 83/83
f 83/83 84/84 81/81
f 85/85 86/86 87/87
f 87/87 88/88 85/85
f 89/89 90/90 91/91
f 91/91 92/92 89/89
f 93/93 94/94 95/95
f 95/95 96/96 93/93
f 97/97 98/98 99/99
f 99/99 100/100 97/97
f 101/101 102/102 103/103
f 103/103 104/104 101/101
f 105/105 106/106 107/107
f 107/107 108/108 105/105
f 109/109 110/110 111/111
f 111/111 112/112 109/109
f 113/113 114/114 115/115
f 115/115 116/116 113/113
f 117/117 118/118 119/119
f 119/119 120/120 117/117
