v 0.174868137 0.304609925 0.00309586641
v 0.23977676 0.316055089 0.0030958557
v 0.241169721 0.315107971 0.00285049435
v 0.242441505 0.301474184 0
v 0.243412107 0.302838057 0.000245361123
v 0.176139861 0.290976197 0.000245372183
v 0.177532822 0.290029079 1.07102096e-08
v 0.173897535 0.303246051 0.00285050529
v -0.265036792 0.213184968 0.000245445175
v -0.266021818 0.211818591 8.40518624e-08
v -0.330930442 0.200373426 9.48784873e-08
v -0.268504828 0.226431504 0.00309593976
v -0.267126173 0.225481823 0.00285057817
v -0.334398478 0.213619962 0.00285058934
v -0.333413452 0.214986399 0.00309595047
v -0.332309097 0.201323107 0.000245456351
v 0.333426803 -0.214984074 0.00264341338
v 0.26851812 -0.226429179 0.00264342432
v 0.267135292 -0.225467339 0.00246979855
v 0.332272261 -0.201179549 0.000626067922
v 0.334407479 -0.213605478 0.00246978737
v 0.26598075 -0.211662814 0.000452452921
v 0.330889434 -0.200217709 0.000452442095
v 0.265000075 -0.21304144 0.00062607904
v -0.243426532 -0.302690536 0.00062616315
v -0.242456049 -0.301313728 0.000452536973
v -0.177547425 -0.289868623 0.000452526263
v -0.173910826 -0.303235501 0.00246987143
v -0.176154345 -0.290828645 0.000626152032
v -0.239790052 -0.316057414 0.00264350837
v -0.174881309 -0.304612279 0.00264349766
v -0.241183013 -0.315097362 0.0024698826
v 0.244424731 0.18950595 0.59587872
v 0.245259255 0.19028987 0.594768167
v 0.243862361 0.191357568 0.594441891
v -0.294603556 0.0964117274 0.59444195
v -0.295551032 0.0949306712 0.594768226
v -0.294498652 0.094479464 0.595878839
v 0.300422639 -0.131819591 0.595517755
v 0.301024109 -0.132822528 0.594436884
v 0.301977068 -0.131373689 0.594769299
v -0.238833159 -0.226732895 0.594769359
v -0.237442106 -0.227768436 0.594437003
v -0.2372199 -0.226620272 0.595517814
v 0.299739808 -0.118689097 0.594789624
v 0.298829645 -0.119057633 0.596012056
v 0.300936729 -0.130993322 0.59590143
v 0.23977676 0.316055089 0.0030958557
v 0.243862361 0.191357568 0.594441891
v 0.245259255 0.19028987 0.594768167
v 0.241169721 0.315107971 0.00285049435
v -0.237985581 -0.226019666 0.595901549
v -0.240087837 -0.21408312 0.596012115
v -0.241069168 -0.214048102 0.594789684
v -0.333413452 0.214986399 0.00309595047
v -0.334398478 0.213619962 0.00285058934
v -0.295551032 0.0949306712 0.594768226
v -0.294603556 0.0964117274 0.59444195
v 0.246551543 0.17742385 0.596035063
v 0.247519821 0.177464679 0.594797194
v 0.245259255 0.19028987 0.594768167
v 0.245259255 0.19028987 0.594768167
v 0.244424731 0.18950595 0.59587872
v 0.246551543 0.17742385 0.596035063
v -0.292364925 0.0823986158 0.596035123
v -0.294498652 0.094479464 0.595878839
v -0.295551032 0.0949306712 0.594768226
v -0.295551032 0.0949306712 0.594768226
v -0.293288678 0.0821057186 0.594797254
v -0.292364925 0.0823986158 0.596035123
v 0.300936729 -0.130993322 0.59590143
v 0.301977068 -0.131373689 0.594769299
v 0.299739808 -0.118689097 0.594789624
v -0.241069168 -0.214048102 0.594789684
v -0.238833159 -0.226732895 0.594769359
v -0.237985581 -0.226019666 0.595901549
v 0.301977068 -0.131373689 0.594769299
v 0.300936729 -0.130993322 0.59590143
v 0.300422639 -0.131819591 0.595517755
v -0.2372199 -0.226620272 0.595517814
v -0.237985581 -0.226019666 0.595901549
v -0.238833159 -0.226732895 0.594769359
v 0.333426803 -0.214984074 0.00264341338
v 0.334407479 -0.213605478 0.00246978737
v 0.301977068 -0.131373689 0.594769299
v 0.301024109 -0.132822528 0.594436884
v -0.239790052 -0.316057414 0.00264350837
v -0.237442106 -0.227768436 0.594437003
v -0.238833159 -0.226732895 0.594769359
v -0.241183013 -0.315097362 0.0024698826
v 0.243862361 0.191357568 0.594441891
v 0.243652135 0.190145031 0.59546268
v 0.244424731 0.18950595 0.59587872
v -0.294498652 0.094479464 0.595878839
v -0.293991178 0.0953442082 0.595462799
v -0.294603556 0.0964117274 0.59444195
v 0.299739808 -0.118689097 0.594789624
v 0.301977068 -0.131373689 0.594769299
v 0.334407479 -0.213605478 0.00246978737
v 0.332272261 -0.201179549 0.000626067922
v 0.243412107 0.302838057 0.000245361123
v 0.241169721 0.315107971 0.00285049435
v 0.245259255 0.19028987 0.594768167
v 0.247519821 0.177464679 0.594797194
v -0.241069168 -0.214048102 0.594789684
v -0.243426532 -0.302690536 0.00062616315
v -0.241183013 -0.315097362 0.0024698826
v -0.238833159 -0.226732895 0.594769359
v -0.332309097 0.201323107 0.000245456351
v -0.293288678 0.0821057186 0.594797254
v -0.295551032 0.0949306712 0.594768226
v -0.334398478 0.213619962 0.00285058934
v 0.302879304 -0.111842133 0.407779992
v 0.30977717 -0.149692819 0.400918216
v 0.30966273 -0.147428021 0.387930632
v 0.302792817 -0.10973046 0.394764513
v 0.294383556 -0.0647773519 0.413821727
v 0.294377238 -0.0631078258 0.400737196
v 0.285880655 -0.0173677616 0.41821751
v 0.285996884 -0.0163795762 0.405059278
v 0.275602967 0.0405641384 0.420141011
v 0.27586934 0.0407078452 0.406945527
v 0.263250142 0.110874794 0.418767065
v 0.263677865 0.110098504 0.405598223
v 0.254150182 0.163499489 0.413272053
v 0.254736274 0.161807433 0.400199264
v 0.244179279 0.221976653 0.402839333
v 0.244841307 0.21983923 0.389846325
v -0.246361583 -0.208688006 0.407779992
v -0.247002572 -0.206674144 0.394764513
v -0.240564913 -0.244447872 0.387930632
v -0.239897817 -0.246615216 0.400918216
v -0.254475206 -0.161555842 0.413821727
v -0.255040377 -0.159984872 0.400737196
v -0.26270017 -0.114097215 0.41821751
v -0.263147324 -0.113208391 0.405059278
v -0.272856206 -0.0561439209 0.420141011
v -0.273155659 -0.0560999326 0.406945527
v -0.285295933 0.0141514139 0.418767065
v -0.285432309 0.0132757025 0.405598223
v -0.294743508 0.0667149052 0.413272053
v -0.294715494 0.0649244413 0.400199264
v -0.305374235 0.125075713 0.402839333
v -0.305265278 0.122840725 0.389846325
v 0.244179279 0.221976653 0.402839333
v 0.243046314 0.221995488 0.404075235
v 0.253024608 0.163475111 0.414515495
v 0.253024608 0.163475111 0.414515495
v 0.254150182 0.163499489 0.413272053
v 0.244179279 0.221976653 0.402839333
v -0.305374235 0.125075713 0.402839333
v -0.294743508 0.0667149052 0.413272053
v -0.293677419 0.0670769438 0.414515495
v -0.293677419 0.0670769438 0.414515495
v -0.304316014 0.125480846 0.404075235
v -0.305374235 0.125075713 0.402839333
v 0.302879304 -0.111842133 0.407779992
v 0.301818937 -0.112235345 0.40901804
v 0.308719486 -0.150100872 0.402153611
v 0.30977717 -0.149692819 0.400918216
v -0.246361583 -0.208688006 0.407779992
v -0.239897817 -0.246615216 0.400918216
v -0.238764256 -0.246636912 0.402153611
v -0.245230645 -0.208694831 0.40901804
v 0.254150182 0.163499489 0.413272053
v 0.253024608 0.163475111 0.414515495
v 0.262139946 0.110761605 0.420019567
v 0.262139946 0.110761605 0.420019567
v 0.263250142 0.110874794 0.418767065
v 0.254150182 0.163499489 0.413272053
v -0.294743508 0.0667149052 0.413272053
v -0.285295933 0.0141514139 0.418767065
v -0.28421399 0.0144247608 0.420019567
v -0.28421399 0.0144247608 0.420019567
v -0.293677419 0.0670769438 0.414515495
v -0.294743508 0.0667149052 0.413272053
v 0.294383556 -0.0647773519 0.413821727
v 0.293315381 -0.0651276484 0.415066272
v 0.301818937 -0.112235345 0.40901804
v 0.301818937 -0.112235345 0.40901804
v 0.302879304 -0.111842133 0.407779992
v 0.294383556 -0.0647773519 0.413821727
v -0.254475206 -0.161555842 0.413821727
v -0.246361583 -0.208688006 0.407779992
v -0.245230645 -0.208694831 0.40901804
v -0.245230645 -0.208694831 0.40901804
v -0.253351778 -0.161519691 0.415066272
v -0.254475206 -0.161555842 0.413821727
v 0.285880655 -0.0173677616 0.41821751
v 0.284800619 -0.0176519565 0.419468969
v 0.293315381 -0.0651276484 0.415066272
v 0.293315381 -0.0651276484 0.415066272
v 0.294383556 -0.0647773519 0.413821727
v 0.285880655 -0.0173677616 0.41821751
v -0.26270017 -0.114097215 0.41821751
v -0.254475206 -0.161555842 0.413821727
v -0.253351778 -0.161519691 0.415066272
v -0.253351778 -0.161519691 0.415066272
v -0.261588067 -0.113994934 0.419468969
v -0.26270017 -0.114097215 0.41821751
v 0.263250142 0.110874794 0.418767065
v 0.262139946 0.110761605 0.420019567
v 0.274508446 0.0403617211 0.421396017
v 0.274508446 0.0403617211 0.421396017
v 0.275602967 0.0405641384 0.420141011
v 0.263250142 0.110874794 0.418767065
v -0.285295933 0.0141514139 0.418767065
v -0.272856206 -0.0561439209 0.420141011
v -0.271758407 -0.0559597425 0.421396017
v -0.271758407 -0.0559597425 0.421396017
v -0.28421399 0.0144247608 0.420019567
v -0.285295933 0.0141514139 0.418767065
v 0.275602967 0.0405641384 0.420141011
v 0.274508446 0.0403617211 0.421396017
v 0.284800619 -0.0176519565 0.419468969
v 0.284800619 -0.0176519565 0.419468969
v 0.285880655 -0.0173677616 0.41821751
v 0.275602967 0.0405641384 0.420141011
v -0.272856206 -0.0561439209 0.420141011
v -0.26270017 -0.114097215 0.41821751
v -0.261588067 -0.113994934 0.419468969
v -0.261588067 -0.113994934 0.419468969
v -0.271758407 -0.0559597425 0.421396017
v -0.272856206 -0.0561439209 0.420141011
v 0.243652135 0.190145031 0.59546268
v 0.243862361 0.191357568 0.594441891
v 0.178831905 0.183630362 0.576810539
v -0.230851978 0.111392222 0.576810598
v -0.294603556 0.0964117274 0.59444195
v -0.293991178 0.0953442082 0.595462799
v 0.301024109 -0.132822528 0.594436884
v 0.300422639 -0.131819591 0.595517755
v 0.237234145 -0.14558132 0.577879667
v -0.17313537 -0.217940375 0.577879727
v -0.2372199 -0.226620272 0.595517814
v -0.237442106 -0.227768436 0.594437003
v 0.178831905 0.183630362 0.576810539
v 0.179375678 0.182553485 0.577824354
v 0.243652135 0.190145031 0.59546268
v -0.293991178 0.0953442082 0.595462799
v -0.230994672 0.110194348 0.577824414
v -0.230851978 0.111392222 0.576810598
v 0.237234145 -0.14558132 0.577879667
v 0.237081259 -0.146716699 0.576796949
v 0.301024109 -0.132822528 0.594436884
v -0.237442106 -0.227768436 0.594437003
v -0.172603339 -0.218954965 0.576797009
v -0.17313537 -0.217940375 0.577879727
v 0.23977676 0.316055089 0.0030958557
v 0.174868137 0.304609925 0.00309586641
v 0.178831905 0.183630362 0.576810539
v 0.243862361 0.191357568 0.594441891
v -0.333413452 0.214986399 0.00309595047
v -0.294603556 0.0964117274 0.59444195
v -0.230851978 0.111392222 0.576810598
v -0.268504828 0.226431504 0.00309593976
v 0.179940671 0.212729171 0.413422108
v 0.243046314 0.221995488 0.404075235
v 0.244179279 0.221976653 0.402839333
v 0.243817717 0.219501331 0.388906151
v 0.244841307 0.21983923 0.389846325
v 0.179874688 0.210299209 0.398944527
v 0.181028515 0.210290447 0.397716105
v 0.178937942 0.212401345 0.412489444
v -0.240953773 0.136095896 0.398944527
v -0.242035002 0.135693029 0.397716105
v -0.304187864 0.122873329 0.388906151
v -0.241846889 0.13835676 0.413422108
v -0.240792483 0.138391629 0.412489444
v -0.305374235 0.125075713 0.402839333
v -0.304316014 0.125480846 0.404075235
v -0.305265278 0.122840725 0.389846325
v 0.333426803 -0.214984074 0.00264341338
v 0.301024109 -0.132822528 0.594436884
v 0.237081259 -0.146716699 0.576796949
v 0.26851812 -0.226429179 0.00264342432
v -0.239790052 -0.316057414 0.00264350837
v -0.174881309 -0.304612279 0.00264349766
v -0.172603339 -0.218954965 0.576797009
v -0.237442106 -0.227768436 0.594437003
v 0.308719486 -0.150100872 0.402153611
v 0.246254772 -0.163001314 0.411496043
v 0.245200068 -0.163034216 0.410563707
v 0.30966273 -0.147428021 0.387930632
v 0.30977717 -0.149692819 0.400918216
v 0.246436566 -0.160302863 0.395796329
v 0.308584958 -0.147458538 0.386990815
v 0.245355874 -0.160708532 0.397024274
v -0.240564913 -0.244447872 0.387930632
v -0.23954162 -0.244107917 0.386990815
v -0.176748246 -0.234921649 0.395796329
v -0.17465207 -0.23706539 0.410563707
v -0.175593942 -0.234933242 0.397024274
v -0.238764256 -0.246636912 0.402153611
v -0.175654501 -0.237395212 0.411496043
v -0.239897817 -0.246615216 0.400918216
v 0.285996884 -0.0163795762 0.405059278
v 0.284935206 -0.0164992623 0.404107988
v 0.274818152 0.0405292697 0.405991733
v 0.274818152 0.0405292697 0.405991733
v 0.27586934 0.0407078452 0.406945527
v 0.285996884 -0.0163795762 0.405059278
v -0.263147324 -0.113208391 0.405059278
v -0.273155659 -0.0560999326 0.406945527
v -0.272106737 -0.0559082441 0.405991733
v -0.272106737 -0.0559082441 0.405991733
v -0.262108773 -0.112957753 0.404107988
v -0.263147324 -0.113208391 0.405059278
v 0.27586934 0.0407078452 0.406945527
v 0.274818152 0.0405292697 0.405991733
v 0.262637943 0.109855674 0.404646188
v 0.262637943 0.109855674 0.404646188
v 0.263677865 0.110098504 0.405598223
v 0.27586934 0.0407078452 0.406945527
v -0.273155659 -0.0560999326 0.406945527
v -0.285432309 0.0132757025 0.405598223
v -0.284372061 0.0134031968 0.404646188
v -0.284372061 0.0134031968 0.404646188
v -0.272106737 -0.0559082441 0.405991733
v -0.273155659 -0.0560999326 0.406945527
v 0.284935206 -0.0164992623 0.404107988
v 0.285996884 -0.0163795762 0.405059278
v 0.294377238 -0.0631078258 0.400737196
v -0.255040377 -0.159984872 0.400737196
v -0.263147324 -0.113208391 0.405059278
v -0.262108773 -0.112957753 0.404107988
v 0.294377238 -0.0631078258 0.400737196
v 0.293307036 -0.0631799474 0.399790853
v 0.284935206 -0.0164992623 0.404107988
v -0.262108773 -0.112957753 0.404107988
v -0.254010051 -0.15968658 0.399790853
v -0.255040377 -0.159984872 0.400737196
v 0.302792817 -0.10973046 0.394764513
v 0.301717013 -0.109771706 0.393822819
v 0.293307036 -0.0631799474 0.399790853
v 0.293307036 -0.0631799474 0.399790853
v 0.294377238 -0.0631078258 0.400737196
v 0.302792817 -0.10973046 0.394764513
v -0.247002572 -0.206674144 0.394764513
v -0.255040377 -0.159984872 0.400737196
v -0.254010051 -0.15968658 0.399790853
v -0.254010051 -0.15968658 0.399790853
v -0.245977491 -0.206344888 0.393822819
v -0.247002572 -0.206674144 0.394764513
v 0.263677865 0.110098504 0.405598223
v 0.262637943 0.109855674 0.404646188
v 0.253707379 0.161500707 0.399253696
v 0.253707379 0.161500707 0.399253696
v 0.254736274 0.161807433 0.400199264
v 0.263677865 0.110098504 0.405598223
v -0.285432309 0.0132757025 0.405598223
v -0.294715494 0.0649244413 0.400199264
v -0.293643683 0.0649880394 0.399253696
v -0.293643683 0.0649880394 0.399253696
v -0.284372061 0.0134031968 0.404646188
v -0.285432309 0.0132757025 0.405598223
v 0.30966273 -0.147428021 0.387930632
v 0.308584958 -0.147458538 0.386990815
v 0.301717013 -0.109771706 0.393822819
v 0.302792817 -0.10973046 0.394764513
v -0.240564913 -0.244447872 0.387930632
v -0.247002572 -0.206674144 0.394764513
v -0.245977491 -0.206344888 0.393822819
v -0.23954162 -0.244107917 0.386990815
v 0.254736274 0.161807433 0.400199264
v 0.253707379 0.161500707 0.399253696
v 0.243817717 0.219501331 0.388906151
v 0.243817717 0.219501331 0.388906151
v 0.244841307 0.21983923 0.389846325
v 0.254736274 0.161807433 0.400199264
v -0.294715494 0.0649244413 0.400199264
v -0.305265278 0.122840725 0.389846325
v -0.304187864 0.122873329 0.388906151
v -0.304187864 0.122873329 0.388906151
v -0.293643683 0.0649880394 0.399253696
v -0.294715494 0.0649244413 0.400199264
v 0.298829645 -0.119057633 0.596012056
v 0.299739808 -0.118689097 0.594789624
v 0.298365682 -0.117749251 0.594457448
v -0.240099281 -0.212694988 0.594457507
v -0.241069168 -0.214048102 0.594789684
v -0.240087837 -0.21408312 0.596012115
v 0.24602142 0.176692083 0.595840335
v 0.246548682 0.176117793 0.594470978
v 0.247519821 0.177464679 0.594797194
v -0.293288678 0.0821057186 0.594797254
v -0.291915506 0.0811722502 0.594471097
v -0.29161641 0.0818922743 0.595840454
v 0.298365682 -0.117749251 0.594457448
v 0.298080832 -0.11854998 0.595785022
v 0.298829645 -0.119057633 0.596012056
v -0.240087837 -0.21408312 0.596012115
v -0.239557832 -0.213349983 0.595785141
v -0.240099281 -0.212694988 0.594457507
v 0.247519821 0.177464679 0.594797194
v 0.246551543 0.17742385 0.596035063
v 0.24602142 0.176692083 0.595840335
v -0.29161641 0.0818922743 0.595840454
v -0.292364925 0.0823986158 0.596035123
v -0.293288678 0.0821057186 0.594797254
v 0.330889434 -0.200217709 0.000452442095
v 0.298365682 -0.117749251 0.594457448
v 0.299739808 -0.118689097 0.594789624
v 0.332272261 -0.201179549 0.000626067922
v -0.242456049 -0.301313728 0.000452536973
v -0.243426532 -0.302690536 0.00062616315
v -0.241069168 -0.214048102 0.594789684
v -0.240099281 -0.212694988 0.594457507
v 0.179375678 0.182553485 0.577824354
v 0.178831905 0.183630362 0.576810539
v 0.177860826 0.182281509 0.576493502
v -0.229478091 0.110456787 0.576493561
v -0.230851978 0.111392222 0.576810598
v -0.230994672 0.110194348 0.577824414
v 0.177860826 0.182281509 0.576493502
v 0.178845495 0.181821719 0.577629507
v 0.179375678 0.182553485 0.577824354
v -0.230994672 0.110194348 0.577824414
v -0.230246156 0.109688006 0.577629566
v -0.229478091 0.110456787 0.576493561
v 0.236485332 -0.145073697 0.577652574
v 0.235705942 -0.145773903 0.576486051
v 0.237081259 -0.146716699 0.576796949
v -0.172603339 -0.218954965 0.576797009
v -0.171633452 -0.217598662 0.576486111
v -0.172605246 -0.217207238 0.577652693
v 0.242441505 0.301474184 0
v 0.243412107 0.302838057 0.000245361123
v 0.247519821 0.177464679 0.594797194
v 0.246548682 0.176117793 0.594470978
v -0.330930442 0.200373426 9.48784873e-08
v -0.291915506 0.0811722502 0.594471097
v -0.293288678 0.0821057186 0.594797254
v -0.293288678 0.0821057186 0.594797254
v -0.332309097 0.201323107 0.000245456351
v -0.330930442 0.200373426 9.48784873e-08
v 0.239331216 -0.125009343 0.41838339
v 0.246254772 -0.163001314 0.411496043
v 0.308719486 -0.150100872 0.402153611
v 0.301818937 -0.112235345 0.40901804
v 0.230761439 -0.0775366798 0.424488395
v 0.293315381 -0.0651276484 0.415066272
v 0.222145468 -0.0294985585 0.428951651
v 0.284800619 -0.0176519565 0.419468969
v 0.211729378 0.029212255 0.430909306
v 0.274508446 0.0403617211 0.421396017
v 0.199227661 0.100371502 0.429510981
v 0.262139946 0.110761605 0.420019567
v 0.189981669 0.153841093 0.423927963
v 0.253024608 0.163475111 0.414515495
v 0.179940671 0.212729171 0.413422108
v 0.243046314 0.221995488 0.404075235
v -0.182142466 -0.199326441 0.41838339
v -0.245230645 -0.208694831 0.40901804
v -0.238764256 -0.246636912 0.402153611
v -0.175654501 -0.237395212 0.411496043
v -0.190326065 -0.151785657 0.424488395
v -0.253351778 -0.161519691 0.415066272
v -0.198659748 -0.103697754 0.428951651
v -0.261588067 -0.113994934 0.419468969
v -0.208952039 -0.0449651293 0.430909306
v -0.271758407 -0.0559597425 0.421396017
v -0.22154209 0.0261785574 0.429510981
v -0.28421399 0.0144247608 0.420019567
v -0.231141418 0.0795858726 0.423927963
v -0.293677419 0.0670769438 0.414515495
v -0.241846889 0.13835676 0.413422108
v -0.304316014 0.125480846 0.404075235
v 0.237081259 -0.146716699 0.576796949
v 0.237234145 -0.14558132 0.577879667
v 0.236485332 -0.145073697 0.577652574
v -0.172605246 -0.217207238 0.577652693
v -0.17313537 -0.217940375 0.577879727
v -0.172603339 -0.218954965 0.576797009
v 0.173897535 0.303246051 0.00285050529
v 0.177860826 0.182281509 0.576493502
v 0.178831905 0.183630362 0.576810539
v 0.174868137 0.304609925 0.00309586641
v -0.267126173 0.225481823 0.00285057817
v -0.268504828 0.226431504 0.00309593976
v -0.230851978 0.111392222 0.576810598
v -0.230851978 0.111392222 0.576810598
v -0.229478091 0.110456787 0.576493561
v -0.267126173 0.225481823 0.00285057817
v 0.267135292 -0.225467339 0.00246979855
v 0.26851812 -0.226429179 0.00264342432
v 0.237081259 -0.146716699 0.576796949
v 0.235705942 -0.145773903 0.576486051
v -0.173910826 -0.303235501 0.00246987143
v -0.171633452 -0.217598662 0.576486111
v -0.172603339 -0.218954965 0.576797009
v -0.174881309 -0.304612279 0.00264349766
v 0.301717013 -0.109771706 0.393822819
v 0.308584958 -0.147458538 0.386990815
v 0.246436566 -0.160302863 0.395796329
v 0.239545554 -0.122489609 0.40265125
v 0.293307036 -0.0631799474 0.399790853
v 0.231069416 -0.0755328909 0.408676028
v 0.284935206 -0.0164992623 0.404107988
v 0.222596437 -0.0282898955 0.413053691
v 0.274818152 0.0405292697 0.405991733
v 0.212355465 0.029435534 0.414968073
v 0.262637943 0.109855674 0.404646188
v 0.200042099 0.0995213017 0.413600653
v 0.253707379 0.161500707 0.399253696
v 0.190980822 0.151922181 0.408129245
v 0.243817717 0.219501331 0.388906151
v 0.181028515 0.210290447 0.397716105
v -0.245977491 -0.206344888 0.393822819
v -0.183205694 -0.19703199 0.40265125
v -0.176748246 -0.234921649 0.395796329
v -0.23954162 -0.244107917 0.386990815
v -0.254010051 -0.15968658 0.399790853
v -0.191300839 -0.150008067 0.408676028
v -0.262108773 -0.112957753 0.404107988
v -0.199496835 -0.102716185 0.413053691
v -0.272106737 -0.0559082441 0.405991733
v -0.20961675 -0.0449694209 0.414968073
v -0.284372061 0.0134031968 0.404646188
v -0.222016662 0.0251010843 0.413600653
v -0.293643683 0.0649880394 0.399253696
v -0.231424063 0.0774409398 0.408129245
v -0.304187864 0.122873329 0.388906151
v -0.242035002 0.135693029 0.397716105
v 0.178845495 0.181821719 0.577629507
v 0.177860826 0.182281509 0.576493502
v 0.180120975 0.169468537 0.576464534
v -0.227219671 0.0976435766 0.576464593
v -0.229478091 0.110456787 0.576493561
v -0.230246156 0.109688006 0.577629566
v 0.235705942 -0.145773903 0.576486051
v 0.236485332 -0.145073697 0.577652574
v 0.234378248 -0.133137986 0.5777632
v -0.174707502 -0.205270693 0.577763319
v -0.172605246 -0.217207238 0.577652693
v -0.171633452 -0.217598662 0.576486111
v 0.234378248 -0.133137986 0.5777632
v 0.233470947 -0.133094952 0.576465666
v 0.235705942 -0.145773903 0.576486051
v -0.171633452 -0.217598662 0.576486111
v -0.173869699 -0.204919919 0.576465726
v -0.174707502 -0.205270693 0.577763319
v 0.180120975 0.169468537 0.576464534
v 0.180972308 0.169739679 0.577785909
v 0.178845495 0.181821719 0.577629507
v -0.230246156 0.109688006 0.577629566
v -0.228112429 0.0976071581 0.577786028
v -0.227219671 0.0976435766 0.576464593
v 0.234425098 -0.131649122 0.576776445
v 0.234892339 -0.132311717 0.578146994
v 0.298080832 -0.11854998 0.595785022
v -0.239557832 -0.213349983 0.595785141
v -0.175473183 -0.204670057 0.578147054
v -0.175260752 -0.203887627 0.576776505
v 0.298080832 -0.11854998 0.595785022
v 0.298365682 -0.117749251 0.594457448
v 0.234425098 -0.131649122 0.576776445
v -0.175260752 -0.203887627 0.576776505
v -0.240099281 -0.212694988 0.594457507
v -0.239557832 -0.213349983 0.595785141
v 0.181744903 0.169100598 0.57820195
v 0.18151775 0.168402925 0.576781332
v 0.246548682 0.176117793 0.594470978
v -0.291915506 0.0811722502 0.594471097
v -0.228167742 0.0961644873 0.576781392
v -0.228619784 0.0967424139 0.578202009
v 0.246548682 0.176117793 0.594470978
v 0.24602142 0.176692083 0.595840335
v 0.181744903 0.169100598 0.57820195
v -0.228619784 0.0967424139 0.578202009
v -0.29161641 0.0818922743 0.595840454
v -0.291915506 0.0811722502 0.594471097
v 0.179940671 0.212729171 0.413422108
v 0.178937942 0.212401345 0.412489444
v 0.188973814 0.15354313 0.422990322
v 0.188973814 0.15354313 0.422990322
v 0.189981669 0.153841093 0.423927963
v 0.179940671 0.212729171 0.413422108
v -0.241846889 0.13835676 0.413422108
v -0.231141418 0.0795858726 0.423927963
v -0.230092376 0.0796505436 0.422990322
v -0.230092376 0.0796505436 0.422990322
v -0.240792483 0.138391629 0.412489444
v -0.241846889 0.13835676 0.413422108
v 0.239331216 -0.125009343 0.41838339
v 0.238278359 -0.125052527 0.417449325
v 0.245200068 -0.163034216 0.410563707
v 0.245200068 -0.163034216 0.410563707
v 0.246254772 -0.163001314 0.411496043
v 0.239331216 -0.125009343 0.41838339
v -0.182142466 -0.199326441 0.41838339
v -0.175654501 -0.237395212 0.411496043
v -0.17465207 -0.23706539 0.410563707
v -0.181138247 -0.1990069 0.417449325
v 0.233470947 -0.133094952 0.576465666
v 0.234378248 -0.133137986 0.5777632
v 0.234892339 -0.132311717 0.578146994
v -0.175473183 -0.204670057 0.578147054
v -0.174707502 -0.205270693 0.577763319
v -0.173869699 -0.204919919 0.576465726
v 0.189981669 0.153841093 0.423927963
v 0.188973814 0.15354313 0.422990322
v 0.198209256 0.100134932 0.428567439
v 0.198209256 0.100134932 0.428567439
v 0.199227661 0.100371502 0.429510981
v 0.189981669 0.153841093 0.423927963
v -0.231141418 0.0795858726 0.423927963
v -0.22154209 0.0261785574 0.429510981
v -0.220504254 0.0263045616 0.428567439
v -0.220504254 0.0263045616 0.428567439
v -0.230092376 0.0796505436 0.422990322
v -0.231141418 0.0795858726 0.423927963
v 0.230761439 -0.0775366798 0.424488395
v 0.229713947 -0.0776094571 0.423550069
v 0.238278359 -0.125052527 0.417449325
v 0.238278359 -0.125052527 0.417449325
v 0.239331216 -0.125009343 0.41838339
v 0.230761439 -0.0775366798 0.424488395
v -0.190326065 -0.151785657 0.424488395
v -0.182142466 -0.199326441 0.41838339
v -0.181138247 -0.1990069 0.417449325
v -0.181138247 -0.1990069 0.417449325
v -0.189316839 -0.151495829 0.423550069
v -0.190326065 -0.151785657 0.424488395
v 0.229713947 -0.0776094571 0.423550069
v 0.230761439 -0.0775366798 0.424488395
v 0.222145468 -0.0294985585 0.428951651
v -0.198659748 -0.103697754 0.428951651
v -0.190326065 -0.151785657 0.424488395
v -0.189316839 -0.151495829 0.423550069
v 0.222145468 -0.0294985585 0.428951651
v 0.221106201 -0.0296170525 0.428008765
v 0.229713947 -0.0776094571 0.423550069
v -0.189316839 -0.151495829 0.423550069
v -0.197642654 -0.103453673 0.428008765
v -0.198659748 -0.103697754 0.428951651
v 0.199227661 0.100371502 0.429510981
v 0.198209256 0.100134932 0.428567439
v 0.210700125 0.0290372558 0.429964125
v 0.210700125 0.0290372558 0.429964125
v 0.211729378 0.029212255 0.430909306
v 0.199227661 0.100371502 0.429510981
v -0.22154209 0.0261785574 0.429510981
v -0.208952039 -0.0449651293 0.430909306
v -0.207925051 -0.0447775535 0.429964125
v -0.207925051 -0.0447775535 0.429964125
v -0.220504254 0.0263045616 0.428567439
v -0.22154209 0.0261785574 0.429510981
v 0.211729378 0.029212255 0.430909306
v 0.210700125 0.0290372558 0.429964125
v 0.221106201 -0.0296170525 0.428008765
v 0.221106201 -0.0296170525 0.428008765
v 0.222145468 -0.0294985585 0.428951651
v 0.211729378 0.029212255 0.430909306
v -0.208952039 -0.0449651293 0.430909306
v -0.198659748 -0.103697754 0.428951651
v -0.197642654 -0.103453673 0.428008765
v -0.197642654 -0.103453673 0.428008765
v -0.207925051 -0.0447775535 0.429964125
v -0.208952039 -0.0449651293 0.430909306
v 0.180972308 0.169739679 0.577785909
v 0.180120975 0.169468537 0.576464534
v 0.18151775 0.168402925 0.576781332
v -0.228167742 0.0961644873 0.576781392
v -0.227219671 0.0976435766 0.576464593
v -0.228112429 0.0976071581 0.577786028
v 0.234892339 -0.132311717 0.578146994
v 0.234425098 -0.131649122 0.576776445
v 0.233470947 -0.133094952 0.576465666
v -0.173869699 -0.204919919 0.576465726
v -0.175260752 -0.203887627 0.576776505
v -0.175473183 -0.204670057 0.578147054
v 0.18151775 0.168402925 0.576781332
v 0.181744903 0.169100598 0.57820195
v 0.180972308 0.169739679 0.577785909
v -0.228112429 0.0976071581 0.577786028
v -0.228619784 0.0967424139 0.578202009
v -0.228167742 0.0961644873 0.576781392
v 0.21123895 0.0292296 0.416214466
v 0.212355465 0.029435534 0.414968073
v 0.222596437 -0.0282898955 0.413053691
v 0.222596437 -0.0282898955 0.413053691
v 0.221494049 -0.0285752825 0.414296776
v 0.21123895 0.0292296 0.416214466
v -0.208497137 -0.0447811298 0.416214466
v -0.198363274 -0.102607347 0.414296776
v -0.199496835 -0.102716185 0.413053691
v -0.199496835 -0.102716185 0.413053691
v -0.20961675 -0.0449694209 0.414968073
v -0.208497137 -0.0447811298 0.416214466
v 0.198910385 0.0994019136 0.414844692
v 0.200042099 0.0995213017 0.413600653
v 0.212355465 0.029435534 0.414968073
v 0.212355465 0.029435534 0.414968073
v 0.21123895 0.0292296 0.416214466
v 0.198910385 0.0994019136 0.414844692
v -0.220912308 0.0253759213 0.414844692
v -0.208497137 -0.0447811298 0.416214466
v -0.20961675 -0.0449694209 0.414968073
v -0.20961675 -0.0449694209 0.414968073
v -0.222016662 0.0251010843 0.413600653
v -0.220912308 0.0253759213 0.414844692
v 0.221494049 -0.0285752825 0.414296776
v 0.222596437 -0.0282898955 0.413053691
v 0.231069416 -0.0755328909 0.408676028
v 0.231069416 -0.0755328909 0.408676028
v 0.229978472 -0.0758824721 0.409912586
v 0.221494049 -0.0285752825 0.414296776
v -0.198363274 -0.102607347 0.414296776
v -0.190156072 -0.149963424 0.409912586
v -0.191300839 -0.150008067 0.408676028
v -0.191300839 -0.150008067 0.408676028
v -0.199496835 -0.102716185 0.413053691
v -0.198363274 -0.102607347 0.414296776
v 0.229978472 -0.0758824721 0.409912586
v 0.231069416 -0.0755328909 0.408676028
v 0.239545554 -0.122489609 0.40265125
v 0.239545554 -0.122489609 0.40265125
v 0.23846224 -0.122880854 0.403881669
v 0.229978472 -0.0758824721 0.409912586
v -0.190156072 -0.149963424 0.409912586
v -0.182053894 -0.197029099 0.403881669
v -0.183205694 -0.19703199 0.40265125
v -0.183205694 -0.19703199 0.40265125
v -0.191300839 -0.150008067 0.408676028
v -0.190156072 -0.149963424 0.409912586
v 0.234425098 -0.131649122 0.576776445
v 0.298365682 -0.117749251 0.594457448
v 0.330889434 -0.200217709 0.000452442095
v 0.26598075 -0.211662814 0.000452452921
v -0.175260752 -0.203887627 0.576776505
v -0.177547425 -0.289868623 0.000452526263
v -0.242456049 -0.301313728 0.000452536973
v -0.240099281 -0.212694988 0.594457507
v 0.189834207 0.151888981 0.40936479
v 0.190980822 0.151922181 0.408129245
v 0.200042099 0.0995213017 0.413600653
v 0.200042099 0.0995213017 0.413600653
v 0.198910385 0.0994019136 0.414844692
v 0.189834207 0.151888981 0.40936479
v -0.230335087 0.0778019056 0.40936479
v -0.220912308 0.0253759213 0.414844692
v -0.222016662 0.0251010843 0.413600653
v -0.222016662 0.0251010843 0.413600653
v -0.231424063 0.0774409398 0.408129245
v -0.230335087 0.0778019056 0.40936479
v 0.23846224 -0.122880854 0.403881669
v 0.239545554 -0.122489609 0.40265125
v 0.246436566 -0.160302863 0.395796329
v 0.246436566 -0.160302863 0.395796329
v 0.245355874 -0.160708532 0.397024274
v 0.23846224 -0.122880854 0.403881669
v -0.182053894 -0.197029099 0.403881669
v -0.175593942 -0.234933242 0.397024274
v -0.176748246 -0.234921649 0.395796329
v -0.176748246 -0.234921649 0.395796329
v -0.183205694 -0.19703199 0.40265125
v -0.182053894 -0.197029099 0.403881669
v 0.179874688 0.210299209 0.398944527
v 0.181028515 0.210290447 0.397716105
v 0.190980822 0.151922181 0.408129245
v 0.190980822 0.151922181 0.408129245
v 0.189834207 0.151888981 0.40936479
v 0.179874688 0.210299209 0.398944527
v -0.240953773 0.136095896 0.398944527
v -0.230335087 0.0778019056 0.40936479
v -0.231424063 0.0774409398 0.408129245
v -0.231424063 0.0774409398 0.408129245
v -0.242035002 0.135693029 0.397716105
v -0.240953773 0.136095896 0.398944527
v 0.18151775 0.168402925 0.576781332
v 0.177532822 0.290029079 1.07102096e-08
v 0.242441505 0.301474184 0
v 0.246548682 0.176117793 0.594470978
v -0.228167742 0.0961644873 0.576781392
v -0.291915506 0.0811722502 0.594471097
v -0.330930442 0.200373426 9.48784873e-08
v -0.266021818 0.211818591 8.40518624e-08
v 0.235705942 -0.145773903 0.576486051
v 0.233470947 -0.133094952 0.576465666
v 0.265000075 -0.21304144 0.00062607904
v 0.267135292 -0.225467339 0.00246979855
v 0.173897535 0.303246051 0.00285050529
v 0.176139861 0.290976197 0.000245372183
v 0.180120975 0.169468537 0.576464534
v 0.177860826 0.182281509 0.576493502
v -0.171633452 -0.217598662 0.576486111
v -0.173910826 -0.303235501 0.00246987143
v -0.176154345 -0.290828645 0.000626152032
v -0.173869699 -0.204919919 0.576465726
v -0.267126173 0.225481823 0.00285057817
v -0.229478091 0.110456787 0.576493561
v -0.227219671 0.0976435766 0.576464593
v -0.265036792 0.213184968 0.000245445175
v 0.23846224 -0.122880854 0.403881669
v 0.245355874 -0.160708532 0.397024274
v 0.245200068 -0.163034216 0.410563707
v 0.238278359 -0.125052527 0.417449325
v 0.229978472 -0.0758824721 0.409912586
v 0.229713947 -0.0776094571 0.423550069
v 0.221494049 -0.0285752825 0.414296776
v 0.221106201 -0.0296170525 0.428008765
v 0.21123895 0.0292296 0.416214466
v 0.210700125 0.0290372558 0.429964125
v 0.198910385 0.0994019136 0.414844692
v 0.198209256 0.100134932 0.428567439
v 0.189834207 0.151888981 0.40936479
v 0.188973814 0.15354313 0.422990322
v 0.179874688 0.210299209 0.398944527
v 0.178937942 0.212401345 0.412489444
v -0.182053894 -0.197029099 0.403881669
v -0.181138247 -0.1990069 0.417449325
v -0.17465207 -0.23706539 0.410563707
v -0.175593942 -0.234933242 0.397024274
v -0.190156072 -0.149963424 0.409912586
v -0.189316839 -0.151495829 0.423550069
v -0.198363274 -0.102607347 0.414296776
v -0.197642654 -0.103453673 0.428008765
v -0.208497137 -0.0447811298 0.416214466
v -0.207925051 -0.0447775535 0.429964125
v -0.220912308 0.0253759213 0.414844692
v -0.220504254 0.0263045616 0.428567439
v -0.230335087 0.0778019056 0.40936479
v -0.230092376 0.0796505436 0.422990322
v -0.240953773 0.136095896 0.398944527
v -0.240792483 0.138391629 0.412489444
v 0.26598075 -0.211662814 0.000452452921
v 0.265000075 -0.21304144 0.00062607904
v 0.233470947 -0.133094952 0.576465666
v 0.234425098 -0.131649122 0.576776445
v -0.177547425 -0.289868623 0.000452526263
v -0.175260752 -0.203887627 0.576776505
v -0.173869699 -0.204919919 0.576465726
v -0.176154345 -0.290828645 0.000626152032
v 0.177532822 0.290029079 1.07102096e-08
v 0.18151775 0.168402925 0.576781332
v 0.180120975 0.169468537 0.576464534
v 0.176139861 0.290976197 0.000245372183
v -0.266021818 0.211818591 8.40518624e-08
v -0.265036792 0.213184968 0.000245445175
v -0.227219671 0.0976435766 0.576464593
v -0.228167742 0.0961644873 0.576781392
vt 0.20441556 0.746067703
vt 0.20441556 0.811977684
vt 0.205590189 0.813184977
vt 0.219237685 0.812070012
vt 0.218063056 0.813262701
vt 0.218062997 0.744952679
vt 0.219237685 0.746159971
vt 0.205590189 0.744875014
vt 0.218062997 0.29697001
vt 0.219237626 0.295762718
vt 0.219237626 0.229852676
vt 0.20441556 0.295854986
vt 0.205590129 0.297047675
vt 0.205590129 0.228737712
vt 0.2044155 0.229944944
vt 0.218062997 0.228659987
vt 0.743649244 0.811991155
vt 0.743649244 0.746081114
vt 0.74246192 0.744886279
vt 0.729853988 0.813251257
vt 0.74246192 0.813196301
vt 0.728666604 0.746146441
vt 0.728666604 0.812056482
vt 0.729853988 0.744941294
vt 0.729853928 0.228671312
vt 0.728666544 0.229866147
vt 0.728666544 0.295776129
vt 0.742461801 0.29703629
vt 0.729853928 0.296981335
vt 0.743649185 0.229931474
vt 0.743649185 0.295841455
vt 0.742461801 0.228726268
vt 0.670150876 0.794579983
vt 0.670777977 0.795537949
vt 0.672071993 0.794347644
vt 0.672072053 0.247575045
vt 0.670778036 0.24638474
vt 0.670150876 0.247342706
vt 0.343982965 0.793929636
vt 0.342890859 0.794347763
vt 0.344152212 0.795537889
vt 0.344152242 0.24638474
vt 0.342890888 0.247574806
vt 0.343983024 0.247992992
vt 0.357032567 0.203227878
vt 0.356827706 0.202005446
vt 0.344707429 0.202116013
vt 0.79558444 0.794921696
vt 0.672071993 0.203575671
vt 0.670777977 0.203249395
vt 0.794409811 0.795167089
vt 0.655292511 0.202116013
vt 0.643172264 0.202005386
vt 0.642967403 0.203227878
vt 0.20441556 0.794921696
vt 0.205590189 0.795167089
vt 0.329221964 0.203249335
vt 0.327927947 0.203575611
vt 0.657883048 0.201982498
vt 0.657755017 0.203220367
vt 0.670777977 0.203249395
vt 0.670777977 0.203249395
vt 0.670150876 0.202138782
vt 0.657883048 0.201982498
vt 0.342116952 0.201982498
vt 0.329849124 0.202138782
vt 0.329221964 0.203249335
vt 0.329221964 0.203249335
vt 0.342244864 0.203220367
vt 0.342116952 0.201982498
vt 0.344707429 0.202116013
vt 0.344152212 0.203248203
vt 0.357032567 0.203227878
vt 0.642967403 0.203227878
vt 0.655847788 0.203248143
vt 0.655292511 0.202116013
vt 0.344152212 0.795537889
vt 0.344707429 0.794579387
vt 0.343982965 0.793929636
vt 0.343983024 0.247992992
vt 0.344707489 0.247343302
vt 0.344152242 0.24638474
vt 0.256350756 0.795374036
vt 0.25753811 0.795547724
vt 0.344152212 0.203248203
vt 0.342890859 0.203580618
vt 0.743649244 0.795374036
vt 0.657109141 0.203580618
vt 0.655847788 0.203248143
vt 0.74246192 0.795547724
vt 0.672071993 0.794347644
vt 0.670914412 0.793930054
vt 0.670150876 0.794579983
vt 0.670150876 0.247342706
vt 0.670914471 0.247992635
vt 0.672072053 0.247575045
vt 0.357032567 0.203227878
vt 0.344152212 0.203248203
vt 0.25753811 0.795547724
vt 0.270146042 0.797391415
vt 0.781936944 0.797772169
vt 0.794409811 0.795167089
vt 0.670777977 0.203249395
vt 0.657755017 0.203220367
vt 0.642967403 0.203227878
vt 0.729853988 0.797391415
vt 0.74246192 0.795547724
vt 0.655847788 0.203248143
vt 0.218062997 0.797772169
vt 0.342244864 0.203220367
vt 0.329221964 0.203249335
vt 0.205590189 0.795167089
vt 0.498829901 0.375939131
vt 0.491968155 0.337465644
vt 0.478980541 0.339715958
vt 0.485814452 0.378033698
vt 0.504871666 0.423764169
vt 0.491787076 0.425409377
vt 0.509267449 0.471930027
vt 0.496109188 0.472882986
vt 0.511190891 0.530766487
vt 0.497995436 0.530861735
vt 0.509817004 0.602154016
vt 0.496648133 0.60131526
vt 0.504321933 0.65555948
vt 0.491249204 0.653791368
vt 0.493889213 0.714879692
vt 0.480896235 0.712659776
vt 0.501170039 0.37593919
vt 0.514185488 0.378033757
vt 0.521019399 0.339716017
vt 0.508031845 0.337465763
vt 0.495128304 0.423764229
vt 0.508212864 0.425409496
vt 0.490732551 0.471930087
vt 0.503890753 0.472883105
vt 0.488809019 0.530766606
vt 0.502004504 0.530861855
vt 0.490182966 0.602154136
vt 0.503351808 0.601315379
vt 0.495678008 0.65555954
vt 0.508750796 0.653791428
vt 0.506110728 0.714879751
vt 0.519103706 0.712659836
vt 0.493889213 0.714879692
vt 0.495125115 0.715094924
vt 0.505565405 0.655730903
vt 0.505565405 0.655730903
vt 0.504321933 0.65555948
vt 0.493889213 0.714879692
vt 0.506110728 0.714879751
vt 0.495678008 0.65555954
vt 0.494434536 0.655730963
vt 0.494434536 0.655730963
vt 0.504874825 0.715095043
vt 0.506110728 0.714879751
vt 0.498829901 0.375939131
vt 0.500067949 0.375735998
vt 0.493203521 0.337247491
vt 0.491968155 0.337465644
vt 0.501170039 0.37593919
vt 0.508031845 0.337465763
vt 0.50679642 0.33724755
vt 0.499932021 0.375736117
vt 0.504321933 0.65555948
vt 0.505565405 0.655730903
vt 0.511069477 0.602235317
vt 0.511069477 0.602235317
vt 0.509817004 0.602154016
vt 0.504321933 0.65555948
vt 0.495678008 0.65555954
vt 0.490182966 0.602154136
vt 0.488930494 0.602235436
vt 0.488930494 0.602235436
vt 0.494434536 0.655730963
vt 0.495678008 0.65555954
vt 0.504871666 0.423764169
vt 0.506116152 0.423604667
vt 0.500067949 0.375735998
vt 0.500067949 0.375735998
vt 0.498829901 0.375939131
vt 0.504871666 0.423764169
vt 0.495128304 0.423764229
vt 0.501170039 0.37593919
vt 0.499932021 0.375736117
vt 0.499932021 0.375736117
vt 0.493883759 0.423604727
vt 0.495128304 0.423764229
vt 0.509267449 0.471930027
vt 0.510518909 0.47183764
vt 0.506116152 0.423604667
vt 0.506116152 0.423604667
vt 0.504871666 0.423764169
vt 0.509267449 0.471930027
vt 0.490732551 0.471930087
vt 0.495128304 0.423764229
vt 0.493883759 0.423604727
vt 0.493883759 0.423604727
vt 0.489481062 0.471837699
vt 0.490732551 0.471930087
vt 0.509817004 0.602154016
vt 0.511069477 0.602235317
vt 0.512445927 0.530757248
vt 0.512445927 0.530757248
vt 0.511190891 0.530766487
vt 0.509817004 0.602154016
vt 0.490182966 0.602154136
vt 0.488809019 0.530766606
vt 0.487554014 0.530757308
vt 0.487554014 0.530757308
vt 0.488930494 0.602235436
vt 0.490182966 0.602154136
vt 0.511190891 0.530766487
vt 0.512445927 0.530757248
vt 0.510518909 0.47183764
vt 0.510518909 0.47183764
vt 0.509267449 0.471930027
vt 0.511190891 0.530766487
vt 0.488809019 0.530766606
vt 0.490732551 0.471930087
vt 0.489481062 0.471837699
vt 0.489481062 0.471837699
vt 0.487554014 0.530757308
vt 0.488809019 0.530766606
vt 0.670914412 0.793930054
vt 0.672071993 0.794347644
vt 0.675754607 0.728963315
vt 0.675754666 0.312959433
vt 0.672072053 0.247575045
vt 0.670914471 0.247992635
vt 0.342890859 0.794347763
vt 0.343982965 0.793929636
vt 0.341402888 0.729311407
vt 0.341402918 0.312611282
vt 0.343983024 0.247992992
vt 0.342890888 0.247574806
vt 0.675754607 0.728963315
vt 0.674599648 0.729311824
vt 0.670914412 0.793930054
vt 0.670914471 0.247992635
vt 0.674599767 0.312610865
vt 0.675754666 0.312959433
vt 0.341402888 0.729311407
vt 0.340311289 0.728963733
vt 0.342890859 0.794347763
vt 0.342890888 0.247574806
vt 0.340311348 0.312958956
vt 0.341402918 0.312611282
vt 0.188022316 0.794921696
vt 0.253932297 0.794921696
vt 0.271036685 0.221207023
vt 0.205652326 0.203575671
vt 0.770055056 0.794921637
vt 0.752424955 0.203575611
vt 0.687040567 0.221207023
vt 0.704145014 0.794921637
vt 0.735108614 0.504472017
vt 0.798864603 0.495125115
vt 0.799977064 0.493889213
vt 0.799191117 0.47995609
vt 0.800257862 0.480896235
vt 0.734621644 0.489994407
vt 0.735756397 0.488766015
vt 0.734064162 0.503539324
vt 0.307301164 0.489994466
vt 0.30616641 0.488766074
vt 0.24273169 0.47995609
vt 0.306814194 0.504472017
vt 0.307858706 0.503539383
vt 0.241945744 0.493889272
vt 0.243058205 0.495125175
vt 0.241665006 0.480896294
vt 0.811991155 0.795374036
vt 0.794347763 0.203580618
vt 0.728963733 0.221220613
vt 0.746081114 0.795374036
vt 0.229931474 0.795374036
vt 0.295841455 0.795374036
vt 0.312958956 0.221220553
vt 0.247574806 0.203580618
vt 0.201073825 0.493203521
vt 0.264829665 0.502545953
vt 0.265874118 0.501613617
vt 0.199680746 0.478980541
vt 0.199961364 0.491968155
vt 0.264182061 0.486846268
vt 0.20074746 0.478040755
vt 0.265316814 0.488074183
vt 0.758396506 0.478980601
vt 0.757329822 0.478040755
vt 0.693895221 0.486846268
vt 0.692203164 0.501613677
vt 0.692760527 0.488074243
vt 0.757003427 0.49320358
vt 0.693247676 0.502546012
vt 0.758115888 0.491968155
vt 0.799769282 0.472882986
vt 0.798702955 0.472949505
vt 0.798642457 0.530868411
vt 0.798642457 0.530868411
vt 0.799708724 0.530861735
vt 0.799769282 0.472882986
vt 0.242153525 0.472883105
vt 0.242214084 0.530861855
vt 0.243280292 0.53086853
vt 0.243280292 0.53086853
vt 0.243219852 0.472949564
vt 0.242153525 0.472883105
vt 0.799708724 0.530861735
vt 0.798642457 0.530868411
vt 0.79868567 0.601256728
vt 0.79868567 0.601256728
vt 0.799751997 0.60131526
vt 0.799708724 0.530861735
vt 0.242214084 0.530861855
vt 0.242170811 0.601315379
vt 0.243237019 0.601256847
vt 0.243237019 0.601256847
vt 0.243280292 0.53086853
vt 0.242214084 0.530861855
vt 0.798702955 0.472949505
vt 0.799769282 0.472882986
vt 0.799908042 0.425409377
vt 0.242014647 0.425409496
vt 0.242153525 0.472883105
vt 0.243219852 0.472949564
vt 0.799908042 0.425409377
vt 0.798841536 0.425524235
vt 0.798702955 0.472949505
vt 0.243219852 0.472949564
vt 0.243081212 0.425524354
vt 0.242014647 0.425409496
vt 0.80009985 0.378033698
vt 0.799033165 0.378179908
vt 0.798841536 0.425524235
vt 0.798841536 0.425524235
vt 0.799908042 0.425409377
vt 0.80009985 0.378033698
vt 0.241822958 0.378033757
vt 0.242014647 0.425409496
vt 0.243081212 0.425524354
vt 0.243081212 0.425524354
vt 0.242889524 0.378180027
vt 0.241822958 0.378033757
vt 0.799751997 0.60131526
vt 0.79868567 0.601256728
vt 0.798858881 0.653667927
vt 0.798858881 0.653667927
vt 0.799925387 0.653791368
vt 0.799751997 0.60131526
vt 0.242170811 0.601315379
vt 0.241997361 0.653791428
vt 0.243063927 0.653667986
vt 0.243063927 0.653667986
vt 0.243237019 0.601256847
vt 0.242170811 0.601315379
vt 0.800319254 0.339715958
vt 0.79925251 0.339873075
vt 0.799033165 0.378179908
vt 0.80009985 0.378033698
vt 0.241603494 0.339716017
vt 0.241822958 0.378033757
vt 0.242889524 0.378180027
vt 0.242670178 0.339873135
vt 0.799925387 0.653791368
vt 0.798858881 0.653667927
vt 0.799191117 0.712504745
vt 0.799191117 0.712504745
vt 0.800257862 0.712659776
vt 0.799925387 0.653791368
vt 0.241997361 0.653791428
vt 0.241665006 0.712659836
vt 0.24273169 0.712504864
vt 0.24273169 0.712504864
vt 0.243063927 0.653667986
vt 0.241997361 0.653791428
vt 0.205423057 0.202005446
vt 0.204462707 0.203227878
vt 0.205652803 0.203560054
vt 0.752424598 0.203559995
vt 0.753614664 0.203227878
vt 0.752654314 0.202005386
vt 0.793927312 0.202177167
vt 0.794346809 0.203546524
vt 0.795537114 0.203220367
vt 0.246385574 0.203220367
vt 0.247575879 0.203546524
vt 0.247995496 0.202177167
vt 0.205652803 0.203560054
vt 0.20607236 0.20223248
vt 0.205423057 0.202005446
vt 0.752654314 0.202005386
vt 0.752004981 0.20223248
vt 0.752424598 0.203559995
vt 0.795537114 0.203220367
vt 0.794576406 0.201982498
vt 0.793927312 0.202177167
vt 0.247995496 0.202177167
vt 0.247346282 0.201982498
vt 0.246385574 0.203220367
vt 0.271333396 0.797564983
vt 0.358196735 0.203560054
vt 0.357032567 0.203227878
vt 0.270146042 0.797391415
vt 0.728666604 0.797564983
vt 0.729853988 0.797391415
vt 0.642967403 0.203227878
vt 0.641803265 0.203559995
vt 0.674599648 0.729311824
vt 0.675754607 0.728963315
vt 0.674594879 0.727772772
vt 0.674594879 0.314149976
vt 0.675754666 0.312959433
vt 0.674599767 0.312610865
vt 0.674594879 0.727772772
vt 0.673971057 0.72866267
vt 0.674599648 0.729311824
vt 0.674599767 0.312610865
vt 0.673971117 0.313260078
vt 0.674594879 0.314149976
vt 0.34203282 0.728662133
vt 0.341478586 0.727772951
vt 0.340311289 0.728963733
vt 0.340311348 0.312958956
vt 0.341478646 0.314149737
vt 0.34203285 0.313260555
vt 0.780762315 0.798017502
vt 0.781936944 0.797772169
vt 0.657755017 0.203220367
vt 0.656597257 0.203546524
vt 0.219237685 0.798017502
vt 0.343402684 0.203546524
vt 0.342244864 0.203220367
vt 0.342244864 0.203220367
vt 0.218062997 0.797772169
vt 0.219237685 0.798017502
vt 0.265050828 0.374006927
vt 0.264829665 0.335389853
vt 0.201073825 0.337247491
vt 0.201294214 0.375735998
vt 0.265246868 0.422246575
vt 0.201488435 0.423604667
vt 0.265390217 0.471050978
vt 0.201629788 0.47183764
vt 0.265453041 0.53067863
vt 0.201691628 0.530757248
vt 0.265408128 0.602927685
vt 0.201647401 0.602235317
vt 0.265228808 0.657190561
vt 0.201470673 0.655730903
vt 0.264891416 0.716927588
vt 0.201135397 0.715094924
vt 0.693026483 0.374006987
vt 0.756783009 0.375736117
vt 0.757003427 0.33724755
vt 0.693247676 0.335389972
vt 0.692830384 0.422246635
vt 0.756588817 0.423604727
vt 0.692687035 0.471051097
vt 0.756447434 0.471837699
vt 0.692624211 0.53067863
vt 0.756385565 0.530757308
vt 0.692669034 0.602927804
vt 0.756429791 0.602235436
vt 0.692848384 0.657190621
vt 0.756606579 0.655730963
vt 0.693185806 0.716927648
vt 0.756941795 0.715095043
vt 0.340311289 0.728963733
vt 0.341402888 0.729311407
vt 0.34203282 0.728662133
vt 0.34203285 0.313260555
vt 0.341402918 0.312611282
vt 0.340311348 0.312958956
vt 0.205590189 0.795167089
vt 0.325405121 0.221524119
vt 0.324245393 0.221207023
vt 0.20441556 0.794921696
vt 0.794409811 0.795167089
vt 0.79558444 0.794921696
vt 0.675754666 0.221207023
vt 0.675754666 0.221207023
vt 0.674594879 0.22152406
vt 0.794409811 0.795167089
vt 0.74246192 0.795547724
vt 0.743649244 0.795374036
vt 0.659688711 0.221220613
vt 0.658521414 0.22153151
vt 0.25753811 0.795547724
vt 0.341478646 0.221531451
vt 0.340311348 0.221220553
vt 0.256350756 0.795374036
vt 0.799033165 0.378179908
vt 0.79925251 0.339873075
vt 0.735817909 0.338015795
vt 0.735597849 0.376451194
vt 0.798841536 0.425524235
vt 0.735404372 0.424166381
vt 0.798702955 0.472949505
vt 0.735263824 0.472163022
vt 0.798642457 0.530868411
vt 0.735202312 0.530789793
vt 0.79868567 0.601256728
vt 0.735246241 0.601948977
vt 0.798858881 0.653667927
vt 0.735422015 0.655127287
vt 0.799191117 0.712504745
vt 0.735756397 0.714336991
vt 0.242889524 0.378180027
vt 0.30632484 0.376451254
vt 0.306104779 0.338015854
vt 0.242670178 0.339873135
vt 0.243081212 0.425524354
vt 0.306518376 0.424166441
vt 0.243219852 0.472949564
vt 0.306658983 0.472163081
vt 0.243280292 0.53086853
vt 0.306720376 0.530789852
vt 0.243237019 0.601256847
vt 0.306676507 0.601949096
vt 0.243063927 0.653667986
vt 0.306500793 0.655127347
vt 0.24273169 0.712504864
vt 0.30616641 0.714337111
vt 0.326028943 0.220388055
vt 0.325405121 0.221524119
vt 0.338415921 0.221553028
vt 0.661584139 0.221552968
vt 0.674594879 0.22152406
vt 0.673971117 0.220388055
vt 0.658521414 0.22153151
vt 0.65796721 0.220364928
vt 0.645846903 0.220254302
vt 0.354153126 0.220254242
vt 0.34203285 0.220364869
vt 0.341478646 0.221531451
vt 0.645846903 0.220254302
vt 0.645646989 0.221551895
vt 0.658521414 0.22153151
vt 0.341478646 0.221531451
vt 0.35435307 0.221551836
vt 0.354153126 0.220254242
vt 0.338415921 0.221553028
vt 0.338296771 0.220231652
vt 0.326028943 0.220388055
vt 0.673971117 0.220388055
vt 0.661703348 0.220231593
vt 0.661584139 0.221552968
vt 0.271035671 0.221241117
vt 0.27069062 0.219870508
vt 0.20607236 0.20223248
vt 0.752004981 0.20223248
vt 0.687386751 0.219870448
vt 0.68704164 0.221241057
vt 0.20607236 0.20223248
vt 0.205652803 0.203560054
vt 0.271035671 0.221241117
vt 0.68704164 0.221241057
vt 0.752424598 0.203559995
vt 0.752004981 0.20223248
vt 0.729309022 0.219815612
vt 0.72896421 0.221236229
vt 0.794346809 0.203546524
vt 0.247575879 0.203546524
vt 0.312958539 0.221236229
vt 0.312613726 0.219815612
vt 0.794346809 0.203546524
vt 0.793927312 0.202177167
vt 0.729309022 0.219815612
vt 0.312613726 0.219815612
vt 0.247995496 0.202177167
vt 0.247575879 0.203546524
vt 0.264891416 0.716927588
vt 0.265935838 0.716778815
vt 0.266273081 0.657072127
vt 0.266273081 0.657072127
vt 0.265228808 0.657190561
vt 0.264891416 0.716927588
vt 0.693185806 0.716927648
vt 0.692848384 0.657190621
vt 0.691804111 0.657072186
vt 0.691804111 0.657072186
vt 0.692141294 0.716778874
vt 0.693185806 0.716927648
vt 0.265050828 0.374006927
vt 0.266095221 0.374147236
vt 0.265874118 0.335540652
vt 0.265874118 0.335540652
vt 0.264829665 0.335389853
vt 0.265050828 0.374006927
vt 0.693026483 0.374006987
vt 0.693247676 0.335389972
vt 0.692203164 0.335540712
vt 0.69198209 0.374147296
vt 0.645646989 0.221551895
vt 0.645846903 0.220254302
vt 0.645122468 0.219870508
vt 0.354877591 0.219870448
vt 0.354153126 0.220254242
vt 0.35435307 0.221551836
vt 0.265228808 0.657190561
vt 0.266273081 0.657072127
vt 0.266452193 0.602871597
vt 0.266452193 0.602871597
vt 0.265408128 0.602927685
vt 0.265228808 0.657190561
vt 0.692848384 0.657190621
vt 0.692669034 0.602927804
vt 0.691625059 0.602871656
vt 0.691625059 0.602871656
vt 0.691804111 0.657072186
vt 0.692848384 0.657190621
vt 0.265246868 0.422246575
vt 0.266291112 0.422356725
vt 0.266095221 0.374147236
vt 0.266095221 0.374147236
vt 0.265050828 0.374006927
vt 0.265246868 0.422246575
vt 0.692830384 0.422246635
vt 0.693026483 0.374006987
vt 0.69198209 0.374147296
vt 0.69198209 0.374147296
vt 0.69178617 0.422356784
vt 0.692830384 0.422246635
vt 0.266291112 0.422356725
vt 0.265246868 0.422246575
vt 0.265390217 0.471050978
vt 0.692687035 0.471051097
vt 0.692830384 0.422246635
vt 0.69178617 0.422356784
vt 0.265390217 0.471050978
vt 0.266434252 0.471114814
vt 0.266291112 0.422356725
vt 0.69178617 0.422356784
vt 0.691643 0.471114874
vt 0.692687035 0.471051097
vt 0.265408128 0.602927685
vt 0.266452193 0.602871597
vt 0.266497046 0.530684948
vt 0.266497046 0.530684948
vt 0.265453041 0.53067863
vt 0.265408128 0.602927685
vt 0.692669034 0.602927804
vt 0.692624211 0.53067863
vt 0.691580176 0.530685067
vt 0.691580176 0.530685067
vt 0.691625059 0.602871656
vt 0.692669034 0.602927804
vt 0.265453041 0.53067863
vt 0.266497046 0.530684948
vt 0.266434252 0.471114814
vt 0.266434252 0.471114814
vt 0.265390217 0.471050978
vt 0.265453041 0.53067863
vt 0.692624211 0.53067863
vt 0.692687035 0.471051097
vt 0.691643 0.471114874
vt 0.691643 0.471114874
vt 0.691580176 0.530685067
vt 0.692624211 0.53067863
vt 0.338296771 0.220231652
vt 0.338415921 0.221553028
vt 0.339707911 0.221236229
vt 0.660292149 0.221236229
vt 0.661584139 0.221552968
vt 0.661703348 0.220231593
vt 0.645122468 0.219870508
vt 0.644388795 0.221241117
vt 0.645646989 0.221551895
vt 0.35435307 0.221551836
vt 0.355611235 0.221241057
vt 0.354877591 0.219870448
vt 0.339707911 0.221236229
vt 0.339060247 0.219815612
vt 0.338296771 0.220231652
vt 0.661703348 0.220231593
vt 0.660939813 0.219815612
vt 0.660292149 0.221236229
vt 0.492735624 0.530780852
vt 0.493982017 0.530789793
vt 0.495896369 0.472163022
vt 0.495896369 0.472163022
vt 0.494653314 0.472073376
vt 0.492735624 0.530780852
vt 0.507264376 0.530780911
vt 0.505346775 0.472073436
vt 0.504103661 0.472163081
vt 0.504103661 0.472163081
vt 0.506018043 0.530789852
vt 0.507264376 0.530780911
vt 0.494105369 0.602027893
vt 0.495349407 0.601948977
vt 0.493982017 0.530789793
vt 0.493982017 0.530789793
vt 0.492735624 0.530780852
vt 0.494105369 0.602027893
vt 0.505894661 0.602027953
vt 0.507264376 0.530780911
vt 0.506018043 0.530789852
vt 0.506018043 0.530789852
vt 0.504650593 0.601949096
vt 0.505894661 0.602027953
vt 0.494653314 0.472073376
vt 0.495896369 0.472163022
vt 0.500274062 0.424166381
vt 0.500274062 0.424166381
vt 0.499037504 0.424011588
vt 0.494653314 0.472073376
vt 0.505346775 0.472073436
vt 0.500962496 0.424011648
vt 0.499725997 0.424166441
vt 0.499725997 0.424166441
vt 0.504103661 0.472163081
vt 0.505346775 0.472073436
vt 0.499037504 0.424011588
vt 0.500274062 0.424166381
vt 0.50629884 0.376451194
vt 0.50629884 0.376451194
vt 0.505068421 0.376253963
vt 0.499037504 0.424011588
vt 0.500962496 0.424011648
vt 0.494931638 0.376254022
vt 0.49370122 0.376451254
vt 0.49370122 0.376451254
vt 0.499725997 0.424166441
vt 0.500962496 0.424011648
vt 0.271035671 0.221241117
vt 0.205652803 0.203560054
vt 0.187943518 0.797564983
vt 0.253853559 0.797564983
vt 0.68704164 0.221241057
vt 0.704223871 0.797564983
vt 0.770133853 0.797564983
vt 0.752424598 0.203559995
vt 0.499585301 0.655293703
vt 0.500820816 0.655127287
vt 0.495349407 0.601948977
vt 0.495349407 0.601948977
vt 0.494105369 0.602027893
vt 0.499585301 0.655293703
vt 0.500414729 0.655293763
vt 0.505894661 0.602027953
vt 0.504650593 0.601949096
vt 0.504650593 0.601949096
vt 0.499179184 0.655127347
vt 0.500414729 0.655293763
vt 0.505068421 0.376253963
vt 0.50629884 0.376451194
vt 0.513153732 0.338015795
vt 0.513153732 0.338015795
vt 0.511925817 0.33780396
vt 0.505068421 0.376253963
vt 0.494931638 0.376254022
vt 0.488074243 0.337804019
vt 0.486846268 0.338015854
vt 0.486846268 0.338015854
vt 0.49370122 0.376451254
vt 0.494931638 0.376254022
vt 0.510005593 0.714546025
vt 0.511233985 0.714336991
vt 0.500820816 0.655127287
vt 0.500820816 0.655127287
vt 0.499585301 0.655293703
vt 0.510005593 0.714546025
vt 0.489994466 0.714546084
vt 0.500414729 0.655293763
vt 0.499179184 0.655127347
vt 0.499179184 0.655127347
vt 0.488766074 0.714337111
vt 0.489994466 0.714546084
vt 0.72896421 0.221236229
vt 0.746159971 0.798017502
vt 0.812070012 0.798017502
vt 0.794346809 0.203546524
vt 0.312958539 0.221236229
vt 0.247575879 0.203546524
vt 0.229852676 0.798017502
vt 0.295762718 0.798017502
vt 0.658521414 0.22153151
vt 0.645646989 0.221551895
vt 0.729853988 0.797391415
vt 0.74246192 0.795547724
vt 0.205590189 0.795167089
vt 0.218062997 0.797772169
vt 0.338415921 0.221553028
vt 0.325405121 0.221524119
vt 0.341478646 0.221531451
vt 0.25753811 0.795547724
vt 0.270146042 0.797391415
vt 0.35435307 0.221551836
vt 0.794409811 0.795167089
vt 0.674594879 0.22152406
vt 0.661584139 0.221552968
vt 0.781936944 0.797772169
vt 0.505068421 0.376253963
vt 0.511925817 0.33780396
vt 0.498386353 0.335540652
vt 0.491500765 0.374147236
vt 0.499037504 0.424011588
vt 0.485400021 0.422356725
vt 0.494653314 0.472073376
vt 0.480941296 0.471114814
vt 0.492735624 0.530780852
vt 0.478985935 0.530684948
vt 0.494105369 0.602027893
vt 0.480382651 0.602871597
vt 0.499585301 0.655293703
vt 0.485959768 0.657072127
vt 0.510005593 0.714546025
vt 0.496460646 0.716778815
vt 0.494931638 0.376254022
vt 0.508499265 0.374147296
vt 0.501613677 0.335540712
vt 0.488074243 0.337804019
vt 0.500962496 0.424011648
vt 0.514600039 0.422356784
vt 0.505346775 0.472073436
vt 0.519058704 0.471114874
vt 0.507264376 0.530780911
vt 0.521014094 0.530685067
vt 0.505894661 0.602027953
vt 0.519617379 0.602871656
vt 0.500414729 0.655293763
vt 0.514040232 0.657072186
vt 0.489994466 0.714546084
vt 0.503539383 0.716778874
vt 0.728666604 0.797564983
vt 0.729853988 0.797391415
vt 0.645646989 0.221551895
vt 0.644388795 0.221241117
vt 0.271333396 0.797564983
vt 0.355611235 0.221241057
vt 0.35435307 0.221551836
vt 0.270146042 0.797391415
vt 0.219237685 0.798017502
vt 0.339707911 0.221236229
vt 0.338415921 0.221553028
vt 0.218062997 0.797772169
vt 0.780762315 0.798017502
vt 0.781936944 0.797772169
vt 0.661584139 0.221552968
vt 0.660292149 0.221236229
f 1/1 2/2 3/3
f 1/1 3/3 4/4
f 3/3 5/5 4/4
f 1/1 4/4 6/6
f 4/4 7/7 6/6
f 8/8 1/1 6/6
f 9/9 10/10 11/11
f 9/9 11/11 12/12
f 13/13 9/9 12/12
f 11/11 14/14 12/12
f 14/14 15/15 12/12
f 11/11 16/16 14/14
f 17/17 18/18 19/19
f 17/17 19/19 20/20
f 21/21 17/17 20/20
f 19/19 22/22 20/20
f 22/22 23/23 20/20
f 19/19 24/24 22/22
f 25/25 26/26 27/27
f 25/25 27/27 28/28
f 27/27 29/29 28/28
f 25/25 28/28 30/30
f 28/28 31/31 30/30
f 32/32 25/25 30/30
f 33/33 34/34 35/35
f 36/36 37/37 38/38
f 39/39 40/40 41/41
f 42/42 43/43 44/44
f 45/45 46/46 47/47
f 48/48 49/49 50/50
f 50/50 51/51 48/48
f 52/52 53/53 54/54
f 55/55 56/56 57/57
f 57/57 58/58 55/55
f 59/59 60/60 61/61
f 62/62 63/63 64/64
f 65/65 66/66 67/67
f 68/68 69/69 70/70
f 71/71 72/72 73/73
f 74/74 75/75 76/76
f 77/77 78/78 79/79
f 80/80 81/81 82/82
f 83/83 84/84 85/85
f 85/85 86/86 83/83
f 87/87 88/88 89/89
f 89/89 90/90 87/87
f 91/91 92/92 93/93
f 94/94 95/95 96/96
f 97/97 98/98 99/99
f 99/99 100/100 97/97
f 101/101 102/102 103/103
f 103/103 104/104 101/101
f 105/105 106/106 107/107
f 107/107 108/108 105/105
f 109/109 110/110 111/111
f 111/111 112/112 109/109
f 113/113 114/114 115/115
f 115/115 116/116 113/113
f 117/117 113/113 116/116
f 116/116 118/118 117/117
f 119/119 117/117 118/118
f 118/118 120/120 119/119
f 121/121 119/119 120/120
f 120/120 122/122 121/121
f 123/123 121/121 122/122
f 122/122 124/124 123/123
f 125/125 123/123 124/124
f 124/124 126/126 125/125
f 127/127 125/125 126/126
f 126/126 128/128 127/127
f 129/129 130/130 131/131
f 131/131 132/132 129/129
f 130/130 129/129 133/133
f 133/133 134/134 130/130
f 134/134 133/133 135/135
f 135/135 136/136 134/134
f 136/136 135/135 137/137
f 137/137 138/138 136/136
f 138/138 137/137 139/139
f 139/139 140/140 138/138
f 140/140 139/139 141/141
f 141/141 142/142 140/140
f 142/142 141/141 143/143
f 143/143 144/144 142/142
f 145/145 146/146 147/147
f 148/148 149/149 150/150
f 151/151 152/152 153/153
f 154/154 155/155 156/156
f 157/157 158/158 159/159
f 159/159 160/160 157/157
f 161/161 162/162 163/163
f 163/163 164/164 161/161
f 165/165 166/166 167/167
f 168/168 169/169 170/170
f 171/171 172/172 173/173
f 174/174 175/175 176/176
f 177/177 178/178 179/179
f 180/180 181/181 182/182
f 183/183 184/184 185/185
f 186/186 187/187 188/188
f 189/189 190/190 191/191
f 192/192 193/193 194/194
f 195/195 196/196 197/197
f 198/198 199/199 200/200
f 201/201 202/202 203/203
f 204/204 205/205 206/206
f 207/207 208/208 209/209
f 210/210 211/211 212/212
f 213/213 214/214 215/215
f 216/216 217/217 218/218
f 219/219 220/220 221/221
f 222/222 223/223 224/224
f 225/225 226/226 227/227
f 228/228 229/229 230/230
f 231/231 232/232 233/233
f 234/234 235/235 236/236
f 237/237 238/238 239/239
f 240/240 241/241 242/242
f 243/243 244/244 245/245
f 246/246 247/247 248/248
f 249/249 250/250 251/251
f 251/251 252/252 249/249
f 253/253 254/254 255/255
f 255/255 256/256 253/253
f 257/257 258/258 259/259
f 257/257 259/259 260/260
f 259/259 261/261 260/260
f 257/257 260/260 262/262
f 260/260 263/263 262/262
f 264/264 257/257 262/262
f 265/265 266/266 267/267
f 265/265 267/267 268/268
f 269/269 265/265 268/268
f 267/267 270/270 268/268
f 270/270 271/271 268/268
f 267/267 272/272 270/270
f 273/273 274/274 275/275
f 275/275 276/276 273/273
f 277/277 278/278 279/279
f 279/279 280/280 277/277
f 281/281 282/282 283/283
f 281/281 283/283 284/284
f 285/285 281/281 284/284
f 283/283 286/286 284/284
f 286/286 287/287 284/284
f 283/283 288/288 286/286
f 289/289 290/290 291/291
f 289/289 291/291 292/292
f 291/291 293/293 292/292
f 289/289 292/292 294/294
f 292/292 295/295 294/294
f 296/296 289/289 294/294
f 297/297 298/298 299/299
f 300/300 301/301 302/302
f 303/303 304/304 305/305
f 306/306 307/307 308/308
f 309/309 310/310 311/311
f 312/312 313/313 314/314
f 315/315 316/316 317/317
f 318/318 319/319 320/320
f 321/321 322/322 323/323
f 324/324 325/325 326/326
f 327/327 328/328 329/329
f 330/330 331/331 332/332
f 333/333 334/334 335/335
f 336/336 337/337 338/338
f 339/339 340/340 341/341
f 342/342 343/343 344/344
f 345/345 346/346 347/347
f 348/348 349/349 350/350
f 351/351 352/352 353/353
f 354/354 355/355 356/356
f 357/357 358/358 359/359
f 359/359 360/360 357/357
f 361/361 362/362 363/363
f 363/363 364/364 361/361
f 365/365 366/366 367/367
f 368/368 369/369 370/370
f 371/371 372/372 373/373
f 374/374 375/375 376/376
f 377/377 378/378 379/379
f 380/380 381/381 382/382
f 383/383 384/384 385/385
f 386/386 387/387 388/388
f 389/389 390/390 391/391
f 392/392 393/393 394/394
f 395/395 396/396 397/397
f 398/398 399/399 400/400
f 401/401 402/402 403/403
f 403/403 404/404 401/401
f 405/405 406/406 407/407
f 407/407 408/408 405/405
f 409/409 410/410 411/411
f 412/412 413/413 414/414
f 415/415 416/416 417/417
f 418/418 419/419 420/420
f 421/421 422/422 423/423
f 424/424 425/425 426/426
f 427/427 428/428 429/429
f 429/429 430/430 427/427
f 431/431 432/432 433/433
f 434/434 435/435 436/436
f 437/437 438/438 439/439
f 439/439 440/440 437/437
f 441/441 437/437 440/440
f 440/440 442/442 441/441
f 443/443 441/441 442/442
f 442/442 444/444 443/443
f 445/445 443/443 444/444
f 444/444 446/446 445/445
f 447/447 445/445 446/446
f 446/446 448/448 447/447
f 449/449 447/447 448/448
f 448/448 450/450 449/449
f 451/451 449/449 450/450
f 450/450 452/452 451/451
f 453/453 454/454 455/455
f 455/455 456/456 453/453
f 454/454 453/453 457/457
f 457/457 458/458 454/454
f 458/458 457/457 459/459
f 459/459 460/460 458/458
f 460/460 459/459 461/461
f 461/461 462/462 460/460
f 462/462 461/461 463/463
f 463/463 464/464 462/462
f 464/464 463/463 465/465
f 465/465 466/466 464/464
f 466/466 465/465 467/467
f 467/467 468/468 466/466
f 469/469 470/470 471/471
f 472/472 473/473 474/474
f 475/475 476/476 477/477
f 477/477 478/478 475/475
f 479/479 480/480 481/481
f 482/482 483/483 484/484
f 485/485 486/486 487/487
f 487/487 488/488 485/485
f 489/489 490/490 491/491
f 491/491 492/492 489/489
f 493/493 494/494 495/495
f 495/495 496/496 493/493
f 497/497 493/493 496/496
f 496/496 498/498 497/497
f 499/499 497/497 498/498
f 498/498 500/500 499/499
f 501/501 499/499 500/500
f 500/500 502/502 501/501
f 503/503 501/501 502/502
f 502/502 504/504 503/503
f 505/505 503/503 504/504
f 504/504 506/506 505/505
f 507/507 505/505 506/506
f 506/506 508/508 507/507
f 509/509 510/510 511/511
f 511/511 512/512 509/509
f 510/510 509/509 513/513
f 513/513 514/514 510/510
f 514/514 513/513 515/515
f 515/515 516/516 514/514
f 516/516 515/515 517/517
f 517/517 518/518 516/516
f 518/518 517/517 519/519
f 519/519 520/520 518/518
f 520/520 519/519 521/521
f 521/521 522/522 520/520
f 522/522 521/521 523/523
f 523/523 524/524 522/522
f 525/525 526/526 527/527
f 528/528 529/529 530/530
f 531/531 532/532 533/533
f 534/534 535/535 536/536
f 537/537 538/538 539/539
f 540/540 541/541 542/542
f 543/543 544/544 545/545
f 546/546 547/547 548/548
f 549/549 550/550 551/551
f 552/552 553/553 554/554
f 555/555 556/556 557/557
f 558/558 559/559 560/560
f 561/561 562/562 563/563
f 564/564 565/565 566/566
f 567/567 568/568 569/569
f 570/570 571/571 572/572
f 573/573 574/574 575/575
f 576/576 577/577 578/578
f 579/579 580/580 581/581
f 582/582 583/583 584/584
f 585/585 586/586 587/587
f 588/588 589/589 590/590
f 591/591 592/592 593/593
f 593/593 594/594 591/591
f 595/595 596/596 597/597
f 598/598 599/599 600/600
f 601/601 602/602 603/603
f 604/604 605/605 606/606
f 607/607 608/608 609/609
f 610/610 611/611 612/612
f 613/613 614/614 615/615
f 616/616 617/617 618/618
f 619/619 620/620 621/621
f 622/622 623/623 624/624
f 625/625 626/626 627/627
f 628/628 629/629 630/630
f 631/631 632/632 633/633
f 634/634 635/635 636/636
f 637/637 638/638 639/639
f 640/640 641/641 642/642
f 643/643 644/644 645/645
f 646/646 647/647 648/648
f 649/649 650/650 651/651
f 652/652 653/653 654/654
f 655/655 656/656 657/657
f 658/658 659/659 660/660
f 661/661 662/662 663/663
f 664/664 665/665 666/666
f 667/667 668/668 669/669
f 670/670 671/671 672/672
f 673/673 674/674 675/675
f 676/676 677/677 678/678
f 679/679 680/680 681/681
f 682/682 683/683 684/684
f 685/685 686/686 687/687
f 688/688 689/689 690/690
f 691/691 692/692 693/693
f 694/694 695/695 696/696
f 697/697 698/698 699/699
f 700/700 701/701 702/702
f 703/703 704/704 705/705
f 706/706 707/707 708/708
f 709/709 710/710 711/711
f 712/712 713/713 714/714
f 715/715 716/716 717/717
f 718/718 719/719 720/720
f 721/721 722/722 723/723
f 724/724 725/725 726/726
f 727/727 728/728 729/729
f 729/729 730/730 727/727
f 731/731 732/732 733/733
f 733/733 734/734 731/731
f 735/735 736/736 737/737
f 738/738 739/739 740/740
f 741/741 742/742 743/743
f 744/744 745/745 746/746
f 747/747 748/748 749/749
f 750/750 751/751 752/752
f 753/753 754/754 755/755
f 756/756 757/757 758/758
f 759/759 760/760 761/761
f 762/762 763/763 764/764
f 765/765 766/766 767/767
f 768/768 769/769 770/770
f 771/771 772/772 773/773
f 773/773 774/774 771/771
f 775/775 776/776 777/777
f 777/777 778/778 775/775
f 779/779 780/780 781/781
f 781/781 782/782 779/779
f 783/783 784/784 785/785
f 785/785 786/786 783/783
f 787/787 788/788 789/789
f 789/789 790/790 787/787
f 791/791 792/792 793/793
f 793/793 794/794 791/791
f 795/795 796/796 797/797
f 797/797 798/798 795/795
f 799/799 795/795 798/798
f 798/798 800/800 799/799
f 801/801 799/799 800/800
f 800/800 802/802 801/801
f 803/803 801/801 802/802
f 802/802 804/804 803/803
f 805/805 803/803 804/804
f 804/804 806/806 805/805
f 807/807 805/805 806/806
f 806/806 808/808 807/807
f 809/809 807/807 808/808
f 808/808 810/810 809/809
f 811/811 812/812 813/813
f 813/813 814/814 811/811
f 812/812 811/811 815/815
f 815/815 816/816 812/812
f 816/816 815/815 817/817
f 817/817 818/818 816/816
f 818/818 817/817 819/819
f 819/819 820/820 818/818
f 820/820 819/819 821/821
f 821/821 822/822 820/820
f 822/822 821/821 823/823
f 823/823 824/824 822/822
f 824/824 823/823 825/825
f 825/825 826/826 824/824
f 827/827 828/828 829/829
f 829/829 830/830 827/827
f 831/831 832/832 833/833
f 833/833 834/834 831/831
f 835/835 836/836 837/837
f 837/837 838/838 835/835
f 839/839 840/840 841/841
f 841/841 842/842 839/839
