v 0.301077336 -0.129092261 0.611201942
v 0.300689727 -0.127646223 0.61558336
v 0.299654335 -0.128938302 0.617060125
v 0.299998254 -0.130221352 0.613172591
v -0.238767952 -0.224281326 0.611202061
v -0.237367719 -0.224973276 0.61317271
v -0.237483352 -0.223649964 0.617060184
v -0.238898247 -0.222789928 0.615583479
v 0.245538324 0.185111895 0.615710735
v 0.245364755 0.18682684 0.611453772
v 0.24398306 0.187430754 0.613326907
v 0.244138867 0.185891166 0.617148519
v -0.2940422 0.0899695382 0.615710795
v -0.292993635 0.0911804065 0.617148578
v -0.293373793 0.0926804766 0.613327026
v -0.29446575 0.0916403756 0.611453891
v 0.243869454 0.190898195 0.596883297
v 0.24398306 0.187430754 0.613326907
v 0.245364755 0.18682684 0.611453772
v 0.245266289 0.189832523 0.597200096
v -0.294453114 0.0959776267 0.596883416
v -0.295401186 0.0944984779 0.597200215
v -0.29446575 0.0916403756 0.611453891
v -0.293373793 0.0926804766 0.613327026
v 0.301077336 -0.129092261 0.611201942
v 0.299998254 -0.130221352 0.613172591
v 0.300889879 -0.132482186 0.596888304
v 0.301844031 -0.131036356 0.597199023
v -0.238767952 -0.224281326 0.611202061
v -0.238823503 -0.226370409 0.597199082
v -0.237432331 -0.227402702 0.596888423
v -0.237367719 -0.224973276 0.61317271
v 0.24364236 0.190200523 0.595462739
v 0.243869454 0.190898195 0.596883297
v 0.245266289 0.189832523 0.597200096
v -0.295401186 0.0944984779 0.597200215
v -0.294453114 0.0959776267 0.596883416
v -0.294000953 0.0953997001 0.595462799
v 0.300889879 -0.132482186 0.596888304
v 0.300422639 -0.131819591 0.595517755
v 0.300936729 -0.130993322 0.59590143
v -0.237985581 -0.226019666 0.595901549
v -0.2372199 -0.226620272 0.595517814
v -0.237432331 -0.227402702 0.596888423
v 0.300689727 -0.127646223 0.61558336
v 0.300091118 -0.12473888 0.618422329
v 0.299123198 -0.126358643 0.619579136
v 0.299654335 -0.128938302 0.617060125
v -0.238898247 -0.222789928 0.615583479
v -0.237483352 -0.223649964 0.617060184
v -0.23786661 -0.221044227 0.619579196
v -0.239330143 -0.219853207 0.618422389
v 0.24598971 0.182077959 0.618471205
v 0.245538324 0.185111895 0.615710735
v 0.244138867 0.185891166 0.617148519
v 0.244544059 0.183167532 0.619626641
v -0.293428749 0.0869641528 0.618471265
v -0.292442888 0.0884824619 0.619626701
v -0.292993635 0.0911804065 0.617148578
v -0.2940422 0.0899695382 0.615710795
v 0.245266289 0.189832523 0.597200096
v 0.244414955 0.189561442 0.59587872
v 0.24364236 0.190200523 0.595462739
v -0.294000953 0.0953997001 0.595462799
v -0.294508427 0.0945349559 0.595878839
v -0.295401186 0.0944984779 0.597200215
v 0.294116944 -0.0915892497 0.622683704
v 0.299281567 -0.120370217 0.61971879
v 0.297684699 -0.109309353 0.608044028
v 0.29849425 -0.113678016 0.606747448
v 0.294282168 -0.0903481618 0.609997392
v 0.300091118 -0.12473888 0.618422329
v 0.289287895 -0.0646105781 0.625063419
v 0.299092859 -0.116585352 0.603908479
v 0.289501518 -0.0636398569 0.612353265
v 0.300689727 -0.127646223 0.61558336
v 0.284466535 -0.0375402384 0.626652539
v 0.299480468 -0.11803136 0.599527061
v 0.284744531 -0.0369309001 0.613921106
v 0.301077336 -0.129092261 0.611201942
v 0.301844031 -0.131036356 0.597199023
v 0.299609035 -0.118357457 0.597178638
v 0.27966401 -0.0104401512 0.627447069
v 0.2800062 -0.0101929707 0.614705026
v 0.270795137 0.0398579426 0.627447128
v 0.271201164 0.0397427268 0.614705026
v 0.261099249 0.0949826464 0.626652479
v 0.261568874 0.094505094 0.613921106
v 0.25637123 0.1220695 0.62506336
v 0.256903976 0.121230327 0.612353206
v 0.251681894 0.149072722 0.622683704
v 0.252261609 0.147963002 0.609997392
v 0.246718973 0.177725032 0.619735241
v 0.248898238 0.167380705 0.607999146
v 0.24598971 0.182077959 0.618471205
v 0.248168975 0.171733633 0.606735051
v 0.245538324 0.185111895 0.615710735
v 0.247717589 0.174767628 0.603974521
v 0.245364755 0.18682684 0.611453772
v 0.24754402 0.176482514 0.599717617
v 0.245266289 0.189832523 0.597200096
v 0.247526437 0.177019551 0.597171068
v -0.245054096 -0.18665947 0.622683823
v -0.245633811 -0.185549721 0.609997511
v -0.242346019 -0.204531118 0.608044088
v -0.249743432 -0.159656152 0.625063479
v -0.240063518 -0.215471104 0.61971885
v -0.250276178 -0.158817038 0.612353325
v -0.241612643 -0.208913222 0.606747568
v -0.254471391 -0.132569358 0.626652658
v -0.239330143 -0.219853207 0.618422389
v -0.254941076 -0.132091835 0.613921165
v -0.241180629 -0.211849943 0.603908598
v -0.259227246 -0.105460979 0.627447128
v -0.238898247 -0.222789928 0.615583479
v -0.259633392 -0.105345763 0.614705145
v -0.241050333 -0.213341311 0.59952718
v -0.268096179 -0.0551629476 0.627447248
v -0.238767952 -0.224281326 0.611202061
v -0.238823503 -0.226370409 0.597199082
v -0.241059631 -0.213691697 0.597178698
v -0.268438309 -0.0554100685 0.614705145
v -0.277838796 -4.64722507e-05 0.626652539
v -0.278116673 -0.000655810523 0.613921165
v -0.282660097 0.0270239301 0.625063419
v -0.28287372 0.0260532089 0.612353325
v -0.287489146 0.054002542 0.622683764
v -0.28765437 0.0527614541 0.609997511
v -0.292625159 0.082624279 0.61973536
v -0.291135043 0.0721584782 0.607999265
v -0.293428749 0.0869641528 0.618471265
v -0.291938633 0.076498352 0.60673517
v -0.2940422 0.0899695382 0.615710795
v -0.292552084 0.0795037374 0.60397464
v -0.29446575 0.0916403756 0.611453891
v -0.292975634 0.0811745748 0.599717677
v -0.295401186 0.0944984779 0.597200215
v -0.293142766 0.0816852078 0.597171187
v 0.300936729 -0.130993322 0.59590143
v 0.301844031 -0.131036356 0.597199023
v 0.300889879 -0.132482186 0.596888304
v -0.237432331 -0.227402702 0.596888423
v -0.238823503 -0.226370409 0.597199082
v -0.237985581 -0.226019666 0.595901549
v 0.300091118 -0.12473888 0.618422329
v 0.299281567 -0.120370217 0.61971879
v 0.298404843 -0.122482307 0.620729506
v 0.299123198 -0.126358643 0.619579136
v -0.239330143 -0.219853207 0.618422389
v -0.23786661 -0.221044227 0.619579196
v -0.238517374 -0.217155978 0.620729625
v -0.240063518 -0.215471104 0.61971885
v 0.246718973 0.177725032 0.619735241
v 0.24598971 0.182077959 0.618471205
v 0.244544059 0.183167532 0.619626641
v 0.245198756 0.179259792 0.620761395
v -0.292625159 0.082624279 0.61973536
v -0.291721553 0.0845864639 0.620761454
v -0.292442888 0.0884824619 0.619626701
v -0.293428749 0.0869641528 0.618471265
v 0.244414955 0.189561442 0.59587872
v 0.245266289 0.189832523 0.597200096
v 0.247526437 0.177019551 0.597171068
v -0.293142766 0.0816852078 0.597171187
v -0.295401186 0.0944984779 0.597200215
v -0.294508427 0.0945349559 0.595878839
v 0.301844031 -0.131036356 0.597199023
v 0.300936729 -0.130993322 0.59590143
v 0.298829645 -0.119057633 0.596012056
v -0.240087837 -0.21408312 0.596012115
v -0.237985581 -0.226019666 0.595901549
v -0.238823503 -0.226370409 0.597199082
v 0.298829645 -0.119057633 0.596012056
v 0.299609035 -0.118357457 0.597178638
v 0.301844031 -0.131036356 0.597199023
v -0.238823503 -0.226370409 0.597199082
v -0.241059631 -0.213691697 0.597178698
v -0.240087837 -0.21408312 0.596012115
v 0.247526437 0.177019551 0.597171068
v 0.246541768 0.177479342 0.596035063
v 0.244414955 0.189561442 0.59587872
v -0.294508427 0.0945349559 0.595878839
v -0.2923747 0.0824540481 0.596035182
v -0.293142766 0.0816852078 0.597171187
v 0.294116944 -0.0915892497 0.622683704
v 0.292919666 -0.0919145122 0.623878539
v 0.298404843 -0.122482307 0.620729506
v 0.299281567 -0.120370217 0.61971879
v 0.246718973 0.177725032 0.619735241
v 0.245198756 0.179259792 0.620761395
v 0.250445515 0.148968831 0.623878479
v 0.251681894 0.149072722 0.622683704
v -0.245054096 -0.18665947 0.622683823
v -0.240063518 -0.215471104 0.61971885
v -0.238517374 -0.217155978 0.620729625
v -0.243817657 -0.186555579 0.623878598
v -0.292625159 0.082624279 0.61973536
v -0.287489146 0.054002542 0.622683764
v -0.286291808 0.054327745 0.623878539
v -0.291721553 0.0845864639 0.620761454
v 0.289287895 -0.0646105781 0.625063419
v 0.288085967 -0.0649103895 0.6262604
v 0.292919666 -0.0919145122 0.623878539
v 0.294116944 -0.0915892497 0.622683704
v 0.251681894 0.149072722 0.622683704
v 0.250445515 0.148968831 0.623878479
v 0.255139261 0.121940099 0.6262604
v 0.25637123 0.1220695 0.62506336
v -0.249743432 -0.159656152 0.625063479
v -0.245054096 -0.18665947 0.622683823
v -0.243817657 -0.186555579 0.623878598
v -0.248511523 -0.15952678 0.626260459
v -0.287489146 0.054002542 0.622683764
v -0.282660097 0.0270239301 0.625063419
v -0.281458229 0.0273236819 0.626260459
v -0.286291808 0.054327745 0.623878539
v 0.284466535 -0.0375402384 0.626652539
v 0.283258587 -0.0378060155 0.627851486
v 0.288085967 -0.0649103895 0.6262604
v 0.289287895 -0.0646105781 0.625063419
v 0.25637123 0.1220695 0.62506336
v 0.255139261 0.121940099 0.6262604
v 0.259873241 0.0948192105 0.627851486
v 0.261099249 0.0949826464 0.626652479
v -0.254471391 -0.132569358 0.626652658
v -0.249743432 -0.159656152 0.625063479
v -0.248511523 -0.15952678 0.626260459
v -0.253245443 -0.132405922 0.627851605
v -0.282660097 0.0270239301 0.625063419
v -0.277838796 -4.64722507e-05 0.626652539
v -0.276630729 0.000219304857 0.627851605
v -0.281458229 0.0273236819 0.626260459
v 0.27966401 -0.0104401512 0.627447069
v 0.278450042 -0.0106717749 0.628647029
v 0.283258587 -0.0378060155 0.627851486
v 0.284466535 -0.0375402384 0.626652539
v -0.259227246 -0.105460979 0.627447128
v -0.254471391 -0.132569358 0.626652658
v -0.253245443 -0.132405922 0.627851605
v -0.258007258 -0.105263449 0.628647089
v 0.270795137 0.0398579426 0.627447128
v 0.269575089 0.0396604128 0.628647029
v 0.278450042 -0.0106717749 0.628647029
v 0.27966401 -0.0104401512 0.627447069
v 0.261099249 0.0949826464 0.626652479
v 0.259873241 0.0948192105 0.627851486
v 0.269575089 0.0396604128 0.628647029
v 0.269575089 0.0396604128 0.628647029
v 0.270795137 0.0398579426 0.627447128
v 0.261099249 0.0949826464 0.626652479
v -0.268096179 -0.0551629476 0.627447248
v -0.259227246 -0.105460979 0.627447128
v -0.258007258 -0.105263449 0.628647089
v -0.266882151 -0.0549312644 0.628647089
v -0.277838796 -4.64722507e-05 0.626652539
v -0.268096179 -0.0551629476 0.627447248
v -0.266882151 -0.0549312644 0.628647089
v -0.266882151 -0.0549312644 0.628647089
v -0.276630729 0.000219304857 0.627851605
v -0.277838796 -4.64722507e-05 0.626652539
v 0.179365844 0.182608977 0.577824354
v 0.178838581 0.183183327 0.579193652
v 0.243869454 0.190898195 0.596883297
v 0.243869454 0.190898195 0.596883297
v 0.24364236 0.190200523 0.595462739
v 0.179365844 0.182608977 0.577824354
v -0.231004447 0.11024984 0.577824414
v -0.294000953 0.0953997001 0.595462799
v -0.294453114 0.0959776267 0.596883416
v -0.294453114 0.0959776267 0.596883416
v -0.230705351 0.110969864 0.579193771
v -0.231004447 0.11024984 0.577824414
v 0.2800062 -0.0101929707 0.614705026
v 0.278856665 -0.0103781028 0.613505065
v 0.270057648 0.0395234413 0.613505065
v 0.271201164 0.0397427268 0.614705026
v -0.259633392 -0.105345763 0.614705145
v -0.268438309 -0.0554100685 0.614705145
v -0.267288774 -0.0552249961 0.613505185
v -0.258489817 -0.105126537 0.613505125
v 0.271201164 0.0397427268 0.614705026
v 0.270057648 0.0395234413 0.613505065
v 0.260431319 0.0942517146 0.612722099
v 0.260431319 0.0942517146 0.612722099
v 0.261568874 0.094505094 0.613921106
v 0.271201164 0.0397427268 0.614705026
v -0.268438309 -0.0554100685 0.614705145
v -0.278116673 -0.000655810523 0.613921165
v -0.276961178 -0.000504831958 0.612722218
v -0.276961178 -0.000504831958 0.612722218
v -0.267288774 -0.0552249961 0.613505185
v -0.268438309 -0.0554100685 0.614705145
v 0.284744531 -0.0369309001 0.613921106
v 0.283588916 -0.0370819382 0.612722099
v 0.278856665 -0.0103781028 0.613505065
v 0.2800062 -0.0101929707 0.614705026
v -0.254941076 -0.132091835 0.613921165
v -0.259633392 -0.105345763 0.614705145
v -0.258489817 -0.105126537 0.613505125
v -0.253803462 -0.131838486 0.612722218
v 0.236949295 -0.146382049 0.579207301
v 0.237234145 -0.14558132 0.577879667
v 0.300422639 -0.131819591 0.595517755
v -0.2372199 -0.226620272 0.595517814
v -0.17313537 -0.217940375 0.577879727
v -0.172593802 -0.218595371 0.579207361
v 0.289501518 -0.0636398569 0.612353265
v 0.288339823 -0.0637568608 0.611156166
v 0.283588916 -0.0370819382 0.612722099
v 0.283588916 -0.0370819382 0.612722099
v 0.284744531 -0.0369309001 0.613921106
v 0.289501518 -0.0636398569 0.612353265
v -0.250276178 -0.158817038 0.612353325
v -0.254941076 -0.132091835 0.613921165
v -0.253803462 -0.131838486 0.612722218
v -0.253803462 -0.131838486 0.612722218
v -0.249144524 -0.158529654 0.611156225
v -0.250276178 -0.158817038 0.612353325
v 0.261568874 0.094505094 0.613921106
v 0.260431319 0.0942517146 0.612722099
v 0.255772382 0.120942913 0.611156225
v 0.256903976 0.121230327 0.612353206
v -0.278116673 -0.000655810523 0.613921165
v -0.28287372 0.0260532089 0.612353325
v -0.281712025 0.0261701532 0.611156344
v -0.276961178 -0.000504831958 0.612722218
v 0.300422639 -0.131819591 0.595517755
v 0.300889879 -0.132482186 0.596888304
v 0.236949295 -0.146382049 0.579207301
v -0.172593802 -0.218595371 0.579207361
v -0.237432331 -0.227402702 0.596888423
v -0.2372199 -0.226620272 0.595517814
v 0.294282168 -0.0903481618 0.609997392
v 0.293116003 -0.0904396549 0.608802676
v 0.288339823 -0.0637568608 0.611156166
v 0.288339823 -0.0637568608 0.611156166
v 0.289501518 -0.0636398569 0.612353265
v 0.294282168 -0.0903481618 0.609997392
v 0.256903976 0.121230327 0.612353206
v 0.255772382 0.120942913 0.611156225
v 0.251134425 0.147650138 0.608802617
v 0.252261609 0.147963002 0.609997392
v -0.245633811 -0.185549721 0.609997511
v -0.250276178 -0.158817038 0.612353325
v -0.249144524 -0.158529654 0.611156225
v -0.249144524 -0.158529654 0.611156225
v -0.244506568 -0.185236827 0.608802795
v -0.245633811 -0.185549721 0.609997511
v -0.28287372 0.0260532089 0.612353325
v -0.28765437 0.0527614541 0.609997511
v -0.286488146 0.0528529473 0.608802736
v -0.281712025 0.0261701532 0.611156344
v 0.297684699 -0.109309353 0.608044028
v 0.29650721 -0.109338082 0.60685575
v 0.293116003 -0.0904396549 0.608802676
v 0.294282168 -0.0903481618 0.609997392
v -0.242346019 -0.204531118 0.608044088
v -0.245633811 -0.185549721 0.609997511
v -0.244506568 -0.185236827 0.608802795
v -0.241229743 -0.2041554 0.60685581
v 0.252261609 0.147963002 0.609997392
v 0.251134425 0.147650138 0.608802617
v 0.247788519 0.166967109 0.606814742
v 0.248898238 0.167380705 0.607999146
v -0.28765437 0.0527614541 0.609997511
v -0.291135043 0.0721584782 0.607999265
v -0.289950818 0.0721493587 0.606814861
v -0.286488146 0.0528529473 0.608802736
v 0.247788519 0.166967109 0.606814742
v 0.247133821 0.170874849 0.605679989
v 0.248168975 0.171733633 0.606735051
v 0.248898238 0.167380705 0.607999146
v -0.289950818 0.0721493587 0.606814861
v -0.291135043 0.0721584782 0.607999265
v -0.291938633 0.076498352 0.60673517
v -0.290672153 0.0760453567 0.605680048
v 0.297225505 -0.113214411 0.605705321
v 0.29650721 -0.109338082 0.60685575
v 0.297684699 -0.109309353 0.608044028
v 0.29849425 -0.113678016 0.606747448
v -0.24057886 -0.20804362 0.60570538
v -0.241612643 -0.208913222 0.606747568
v -0.242346019 -0.204531118 0.608044088
v -0.241229743 -0.2041554 0.60685581
v 0.247133821 0.170874849 0.605679989
v 0.246728569 0.173598543 0.603201807
v 0.247717589 0.174767628 0.603974521
v 0.247717589 0.174767628 0.603974521
v 0.248168975 0.171733633 0.606735051
v 0.247133821 0.170874849 0.605679989
v -0.290672153 0.0760453567 0.605680048
v -0.291938633 0.076498352 0.60673517
v -0.292552084 0.0795037374 0.60397464
v -0.2912229 0.0787433609 0.603201926
v 0.297756642 -0.1157941 0.603186309
v 0.297225505 -0.113214411 0.605705321
v 0.29849425 -0.113678016 0.606747448
v 0.299092859 -0.116585352 0.603908479
v -0.240195721 -0.210649386 0.603186369
v -0.241180629 -0.211849943 0.603908598
v -0.241612643 -0.208913222 0.606747568
v -0.24057886 -0.20804362 0.60570538
v 0.299609035 -0.118357457 0.597178638
v 0.298829645 -0.119057633 0.596012056
v 0.298080832 -0.11854998 0.595785022
v -0.239557832 -0.213349983 0.595785141
v -0.240087837 -0.21408312 0.596012115
v -0.241059631 -0.213691697 0.597178698
v 0.246555358 0.175670698 0.59685415
v 0.246011585 0.176747575 0.595840335
v 0.246541768 0.177479342 0.596035063
v -0.2923747 0.0824540481 0.596035182
v -0.291626185 0.0819477662 0.595840454
v -0.291768879 0.0807498321 0.59685421
v 0.298080832 -0.11854998 0.595785022
v 0.298233658 -0.117414631 0.5968678
v 0.299609035 -0.118357457 0.597178638
v -0.241059631 -0.213691697 0.597178698
v -0.240089744 -0.212335363 0.596867859
v -0.239557832 -0.213349983 0.595785141
v 0.246541768 0.177479342 0.596035063
v 0.247526437 0.177019551 0.597171068
v 0.246555358 0.175670698 0.59685415
v -0.291768879 0.0807498321 0.59685421
v -0.293142766 0.0816852078 0.597171187
v -0.2923747 0.0824540481 0.596035182
v 0.246728569 0.173598543 0.603201807
v 0.246572822 0.175138071 0.599380255
v 0.24754402 0.176482514 0.599717617
v 0.247717589 0.174767628 0.603974521
v -0.2912229 0.0787433609 0.603201926
v -0.292552084 0.0795037374 0.60397464
v -0.292975634 0.0811745748 0.599717677
v -0.291603059 0.0802433118 0.599380374
v 0.298100561 -0.117077149 0.599298775
v 0.297756642 -0.1157941 0.603186309
v 0.299092859 -0.116585352 0.603908479
v 0.299480468 -0.11803136 0.599527061
v -0.240080088 -0.211972699 0.599298894
v -0.241050333 -0.213341311 0.59952718
v -0.241180629 -0.211849943 0.603908598
v -0.240195721 -0.210649386 0.603186369
v 0.298100561 -0.117077149 0.599298775
v 0.299480468 -0.11803136 0.599527061
v 0.299609035 -0.118357457 0.597178638
v 0.298233658 -0.117414631 0.5968678
v -0.240080088 -0.211972699 0.599298894
v -0.240089744 -0.212335363 0.596867859
v -0.241059631 -0.213691697 0.597178698
v -0.241050333 -0.213341311 0.59952718
v 0.246572822 0.175138071 0.599380255
v 0.246555358 0.175670698 0.59685415
v 0.247526437 0.177019551 0.597171068
v 0.24754402 0.176482514 0.599717617
v -0.291603059 0.0802433118 0.599380374
v -0.292975634 0.0811745748 0.599717677
v -0.293142766 0.0816852078 0.597171187
v -0.293142766 0.0816852078 0.597171187
v -0.291768879 0.0807498321 0.59685421
v -0.291603059 0.0802433118 0.599380374
v -0.17313537 -0.217940375 0.577879727
v -0.172605246 -0.217207238 0.577652693
v -0.171623915 -0.217242226 0.578875065
v 0.23557511 -0.145442203 0.578875005
v 0.236485332 -0.145073697 0.577652574
v 0.237234145 -0.14558132 0.577879667
v 0.178838581 0.183183327 0.579193652
v 0.179365844 0.182608977 0.577824354
v 0.17883572 0.181877211 0.577629507
v -0.230255932 0.109743439 0.577629566
v -0.231004447 0.11024984 0.577824414
v -0.230705351 0.110969864 0.579193771
v 0.237234145 -0.14558132 0.577879667
v 0.236949295 -0.146382049 0.579207301
v 0.23557511 -0.145442203 0.578875005
v -0.171623915 -0.217242226 0.578875065
v -0.172593802 -0.218595371 0.579207361
v -0.17313537 -0.217940375 0.577879727
v -0.230705351 0.110969864 0.579193771
v -0.22933206 0.110036276 0.578867435
v -0.230255932 0.109743439 0.577629566
v 0.17883572 0.181877211 0.577629507
v 0.177867442 0.181836382 0.578867376
v 0.178838581 0.183183327 0.579193652
v 0.228010982 -0.103359617 0.623878479
v 0.233496219 -0.13392742 0.620729506
v 0.298404843 -0.122482307 0.620729506
v 0.299123198 -0.126358643 0.619579136
v 0.292919666 -0.0919145122 0.623878539
v 0.234214514 -0.137803748 0.619579136
v 0.223177284 -0.0763554946 0.6262604
v 0.299654335 -0.128938302 0.617060125
v 0.288085967 -0.0649103895 0.6262604
v 0.234745651 -0.140383407 0.617060125
v 0.218349904 -0.0492511205 0.627851486
v 0.299998254 -0.130221352 0.613172591
v 0.283258587 -0.0378060155 0.627851486
v 0.23508957 -0.141666457 0.613172591
v 0.300889879 -0.132482186 0.596888304
v 0.236949295 -0.146382049 0.579207301
v 0.213541359 -0.0221168809 0.62864697
v 0.278450042 -0.0106717749 0.628647029
v 0.204666466 0.0282153077 0.628647029
v 0.269575089 0.0396604128 0.628647029
v 0.194964558 0.0833741054 0.627851486
v 0.259873241 0.0948192105 0.627851486
v 0.190230578 0.110494994 0.6262604
v 0.255139261 0.121940099 0.6262604
v 0.185536832 0.137523785 0.623878479
v 0.250445515 0.148968831 0.623878479
v 0.180290073 0.167814687 0.620761395
v 0.245198756 0.179259792 0.620761395
v 0.179635435 0.171722427 0.619626582
v 0.244544059 0.183167532 0.619626641
v 0.179230183 0.174446061 0.617148459
v 0.244138867 0.185891166 0.617148519
v 0.179074377 0.175985649 0.613326907
v 0.24398306 0.187430754 0.613326907
v 0.243869454 0.190898195 0.596883297
v 0.178838581 0.183183327 0.579193652
v -0.178909034 -0.175110415 0.623878539
v -0.243817657 -0.186555579 0.623878598
v -0.238517374 -0.217155978 0.620729625
v -0.18360278 -0.148081645 0.626260459
v -0.17360875 -0.205710813 0.620729625
v -0.248511523 -0.15952678 0.626260459
v -0.23786661 -0.221044227 0.619579196
v -0.188336819 -0.120960779 0.627851605
v -0.172957867 -0.209599063 0.619579196
v -0.253245443 -0.132405922 0.627851605
v -0.237483352 -0.223649964 0.617060184
v -0.193098634 -0.0938182846 0.628647029
v -0.172574729 -0.212204829 0.617060184
v -0.258007258 -0.105263449 0.628647089
v -0.237367719 -0.224973276 0.61317271
v -0.201973528 -0.0434861593 0.628647089
v -0.172459096 -0.213528141 0.61317271
v -0.237432331 -0.227402702 0.596888423
v -0.172593802 -0.218595371 0.579207361
v -0.266882151 -0.0549312644 0.628647089
v -0.211722106 0.0116644101 0.627851605
v -0.276630729 0.000219304857 0.627851605
v -0.216549486 0.0387688465 0.626260459
v -0.281458229 0.0273236819 0.626260459
v -0.221383184 0.065772973 0.623878539
v -0.286291808 0.054327745 0.623878539
v -0.226812929 0.0960315689 0.620761454
v -0.291721553 0.0845864639 0.620761454
v -0.227534264 0.0999275669 0.619626701
v -0.292442888 0.0884824619 0.619626701
v -0.228085011 0.102625571 0.617148578
v -0.292993635 0.0911804065 0.617148578
v -0.22846517 0.104125582 0.613326967
v -0.293373793 0.0926804766 0.613327026
v -0.294453114 0.0959776267 0.596883416
v -0.230705351 0.110969864 0.579193771
v 0.293116003 -0.0904396549 0.608802676
v 0.29650721 -0.109338082 0.60685575
v 0.231598526 -0.120783187 0.60685575
v 0.232316881 -0.124659516 0.605705321
v 0.22820732 -0.10188476 0.608802676
v 0.297225505 -0.113214411 0.605705321
v 0.288339823 -0.0637568608 0.611156166
v 0.232847959 -0.127239183 0.603186309
v 0.22343114 -0.0752019659 0.611156285
v 0.297756642 -0.1157941 0.603186309
v 0.283588916 -0.0370819382 0.612722099
v 0.233191878 -0.128522232 0.599298775
v 0.218680233 -0.0485270433 0.612722158
v 0.298100561 -0.117077149 0.599298775
v 0.298233658 -0.117414631 0.5968678
v 0.234290868 -0.131308779 0.579227865
v 0.278856665 -0.0103781028 0.613505065
v 0.213947982 -0.0218232088 0.613505065
v 0.270057648 0.0395234413 0.613505065
v 0.205148965 0.0280783363 0.613505065
v 0.260431319 0.0942517146 0.612722099
v 0.195522636 0.0828066096 0.612722158
v 0.255772382 0.120942913 0.611156225
v 0.190863699 0.109497808 0.611156225
v 0.251134425 0.147650138 0.608802617
v 0.186225742 0.136204973 0.608802676
v 0.247788519 0.166967109 0.606814742
v 0.182879835 0.155522004 0.606814802
v 0.247133821 0.170874849 0.605679989
v 0.182225138 0.159429744 0.605679989
v 0.246728569 0.173598543 0.603201807
v 0.181819886 0.162153378 0.603201807
v 0.246572822 0.175138071 0.599380255
v 0.181664139 0.163692906 0.599380255
v 0.246555358 0.175670698 0.59685415
v 0.181524843 0.167943552 0.579222739
v -0.244506568 -0.185236827 0.608802795
v -0.179597944 -0.173791662 0.608802736
v -0.176321 -0.192710236 0.60685581
v -0.249144524 -0.158529654 0.611156225
v -0.241229743 -0.2041554 0.60685581
v -0.184235901 -0.147084489 0.611156344
v -0.175670236 -0.196598485 0.60570538
v -0.253803462 -0.131838486 0.612722218
v -0.24057886 -0.20804362 0.60570538
v -0.188894838 -0.120393343 0.612722218
v -0.175287098 -0.199204251 0.603186369
v -0.258489817 -0.105126537 0.613505125
v -0.240195721 -0.210649386 0.603186369
v -0.193581194 -0.0936814323 0.613505125
v -0.175171345 -0.200527534 0.599298835
v -0.267288774 -0.0552249961 0.613505185
v -0.240080088 -0.211972699 0.599298894
v -0.240089744 -0.212335363 0.596867859
v -0.175251096 -0.203521922 0.579227924
v -0.202380151 -0.043779891 0.613505125
v -0.276961178 -0.000504831958 0.612722218
v -0.212052435 0.0109402733 0.612722218
v -0.281712025 0.0261701532 0.611156344
v -0.216803402 0.0376152582 0.611156285
v -0.286488146 0.0528529473 0.608802736
v -0.221579522 0.0642981157 0.608802736
v -0.289950818 0.0721493587 0.606814861
v -0.225042194 0.0835945234 0.606814861
v -0.290672153 0.0760453567 0.605680048
v -0.22576341 0.0874905214 0.605680108
v -0.2912229 0.0787433609 0.603201926
v -0.226314276 0.0901885256 0.603201866
v -0.291603059 0.0802433118 0.599380374
v -0.226694435 0.0916884765 0.599380314
v -0.291768879 0.0807498321 0.59685421
v -0.2280173 0.0957303867 0.579222858
v 0.178092569 0.174964979 0.611453772
v 0.179074377 0.175985649 0.613326907
v 0.178838581 0.183183327 0.579193652
v 0.177867442 0.181836382 0.578867376
v -0.227193445 0.103502296 0.611453831
v -0.22933206 0.110036276 0.578867435
v -0.230705351 0.110969864 0.579193771
v -0.22846517 0.104125582 0.613326967
v 0.23380509 -0.140954122 0.611202002
v 0.23557511 -0.145442203 0.578875005
v 0.236949295 -0.146382049 0.579207301
v 0.23508957 -0.141666457 0.613172591
v -0.171495646 -0.212419435 0.611202061
v -0.172459096 -0.213528141 0.61317271
v -0.172593802 -0.218595371 0.579207361
v -0.171623915 -0.217242226 0.578875065
v 0.246011585 0.176747575 0.595840335
v 0.246555358 0.175670698 0.59685415
v 0.181524843 0.167943552 0.579222739
v -0.2280173 0.0957303867 0.579222858
v -0.291768879 0.0807498321 0.59685421
v -0.291626185 0.0819477662 0.595840454
v 0.298233658 -0.117414631 0.5968678
v 0.298080832 -0.11854998 0.595785022
v 0.234892339 -0.132311717 0.578146994
v -0.175473183 -0.204670057 0.578147054
v -0.239557832 -0.213349983 0.595785141
v -0.240089744 -0.212335363 0.596867859
v 0.181524843 0.167943552 0.579222739
v 0.181735128 0.169156089 0.57820195
v 0.246011585 0.176747575 0.595840335
v -0.291626185 0.0819477662 0.595840454
v -0.228629559 0.0967979059 0.578202009
v -0.2280173 0.0957303867 0.579222858
v 0.234892339 -0.132311717 0.578146994
v 0.234290868 -0.131308779 0.579227865
v 0.298233658 -0.117414631 0.5968678
v -0.240089744 -0.212335363 0.596867859
v -0.175251096 -0.203521922 0.579227924
v -0.175473183 -0.204670057 0.578147054
v 0.179230183 0.174446061 0.617148459
v 0.179074377 0.175985649 0.613326907
v 0.178092569 0.174964979 0.611453772
v 0.178266078 0.173250034 0.615710735
v -0.228085011 0.102625571 0.617148578
v -0.226770014 0.101831399 0.615710795
v -0.227193445 0.103502296 0.611453831
v -0.22846517 0.104125582 0.613326967
v 0.23508957 -0.141666457 0.613172591
v 0.234745651 -0.140383407 0.617060125
v 0.233417481 -0.139508083 0.61558342
v 0.23380509 -0.140954122 0.611202002
v -0.172459096 -0.213528141 0.61317271
v -0.171495646 -0.212419435 0.611202061
v -0.171626061 -0.210928038 0.615583479
v -0.172574729 -0.212204829 0.617060184
v 0.179635435 0.171722427 0.619626582
v 0.179230183 0.174446061 0.617148459
v 0.178266078 0.173250034 0.615710735
v 0.178717464 0.170216098 0.618471205
v -0.227534264 0.0999275669 0.619626701
v -0.226156443 0.0988260135 0.618471265
v -0.226770014 0.101831399 0.615710795
v -0.228085011 0.102625571 0.617148578
v 0.234745651 -0.140383407 0.617060125
v 0.234214514 -0.137803748 0.619579136
v 0.232818931 -0.136600748 0.618422329
v 0.233417481 -0.139508083 0.61558342
v -0.172574729 -0.212204829 0.617060184
v -0.171626061 -0.210928038 0.615583479
v -0.172057956 -0.207991287 0.618422389
v -0.172957867 -0.209599063 0.619579196
v 0.234290868 -0.131308779 0.579227865
v 0.234892339 -0.132311717 0.578146994
v 0.234378248 -0.133137986 0.5777632
v -0.174707502 -0.205270693 0.577763319
v -0.175473183 -0.204670057 0.578147054
v -0.175251096 -0.203521922 0.579227924
v 0.180290073 0.167814687 0.620761395
v 0.179635435 0.171722427 0.619626582
v 0.178717464 0.170216098 0.618471205
v 0.179446787 0.165863112 0.619735241
v -0.226812929 0.0960315689 0.620761454
v -0.225352973 0.0944861397 0.619735301
v -0.226156443 0.0988260135 0.618471265
v -0.227534264 0.0999275669 0.619626701
v 0.180290073 0.167814687 0.620761395
v 0.179446787 0.165863112 0.619735241
v 0.184409648 0.137210861 0.622683644
v 0.184409648 0.137210861 0.622683644
v 0.185536832 0.137523785 0.623878479
v 0.180290073 0.167814687 0.620761395
v -0.226812929 0.0960315689 0.620761454
v -0.221383184 0.065772973 0.623878539
v -0.22021696 0.0658644661 0.622683704
v -0.22021696 0.0658644661 0.622683704
v -0.225352973 0.0944861397 0.619735301
v -0.226812929 0.0960315689 0.620761454
v 0.228010982 -0.103359617 0.623878479
v 0.226844758 -0.10345111 0.622683704
v 0.232009381 -0.132232055 0.61971879
v 0.233496219 -0.13392742 0.620729506
v -0.178909034 -0.175110415 0.623878539
v -0.17360875 -0.205710813 0.620729625
v -0.172791332 -0.203609183 0.61971885
v -0.17778191 -0.17479752 0.622683764
v 0.234214514 -0.137803748 0.619579136
v 0.233496219 -0.13392742 0.620729506
v 0.232009381 -0.132232055 0.61971879
v 0.232818931 -0.136600748 0.618422329
v -0.172957867 -0.209599063 0.619579196
v -0.172057956 -0.207991287 0.618422389
v -0.172791332 -0.203609183 0.61971885
v -0.17360875 -0.205710813 0.620729625
v 0.223177284 -0.0763554946 0.6262604
v 0.222015649 -0.0764724389 0.625063479
v 0.226844758 -0.10345111 0.622683704
v 0.226844758 -0.10345111 0.622683704
v 0.228010982 -0.103359617 0.623878479
v 0.223177284 -0.0763554946 0.6262604
v 0.185536832 0.137523785 0.623878479
v 0.184409648 0.137210861 0.622683644
v 0.189098984 0.11020764 0.62506336
v 0.190230578 0.110494994 0.6262604
v -0.18360278 -0.148081645 0.626260459
v -0.178909034 -0.175110415 0.623878539
v -0.17778191 -0.17479752 0.622683764
v -0.17778191 -0.17479752 0.622683764
v -0.182471246 -0.147794202 0.625063598
v -0.18360278 -0.148081645 0.626260459
v -0.221383184 0.065772973 0.623878539
v -0.216549486 0.0387688465 0.626260459
v -0.215387911 0.0388857909 0.625063419
v -0.22021696 0.0658644661 0.622683704
v 0.190230578 0.110494994 0.6262604
v 0.189098984 0.11020764 0.62506336
v 0.193827003 0.0831207857 0.626652479
v 0.194964558 0.0833741054 0.627851486
v -0.216549486 0.0387688465 0.626260459
v -0.211722106 0.0116644101 0.627851605
v -0.210566491 0.0118154483 0.626652539
v -0.215387911 0.0388857909 0.625063419
v 0.218349904 -0.0492511205 0.627851486
v 0.217194349 -0.0494020991 0.626652539
v 0.222015649 -0.0764724389 0.625063479
v 0.222015649 -0.0764724389 0.625063479
v 0.223177284 -0.0763554946 0.6262604
v 0.218349904 -0.0492511205 0.627851486
v -0.188336819 -0.120960779 0.627851605
v -0.18360278 -0.148081645 0.626260459
v -0.182471246 -0.147794202 0.625063598
v -0.187199205 -0.12070743 0.626652598
v 0.213541359 -0.0221168809 0.62864697
v 0.212391824 -0.0223020129 0.627447009
v 0.217194349 -0.0494020991 0.626652539
v 0.218349904 -0.0492511205 0.627851486
v -0.193098634 -0.0938182846 0.628647029
v -0.188336819 -0.120960779 0.627851605
v -0.187199205 -0.12070743 0.626652598
v -0.19195506 -0.0935990587 0.627447069
v 0.194964558 0.0833741054 0.627851486
v 0.193827003 0.0831207857 0.626652479
v 0.203522891 0.0279960819 0.627447069
v 0.203522891 0.0279960819 0.627447069
v 0.204666466 0.0282153077 0.628647029
v 0.194964558 0.0833741054 0.627851486
v -0.211722106 0.0116644101 0.627851605
v -0.201973528 -0.0434861593 0.628647089
v -0.200823992 -0.0433010273 0.627447128
v -0.200823992 -0.0433010273 0.627447128
v -0.210566491 0.0118154483 0.626652539
v -0.211722106 0.0116644101 0.627851605
v 0.204666466 0.0282153077 0.628647029
v 0.203522891 0.0279960819 0.627447069
v 0.212391824 -0.0223020129 0.627447009
v 0.213541359 -0.0221168809 0.62864697
v -0.201973528 -0.0434861593 0.628647089
v -0.193098634 -0.0938182846 0.628647029
v -0.19195506 -0.0935990587 0.627447069
v -0.200823992 -0.0433010273 0.627447128
v 0.180962533 0.16979517 0.577785909
v 0.180127949 0.169011191 0.578896523
v 0.177867442 0.181836382 0.578867376
v -0.22933206 0.110036276 0.578867435
v -0.227069825 0.0972114429 0.578896582
v -0.228122205 0.09766265 0.577786028
v 0.181735128 0.169156089 0.57820195
v 0.181524843 0.167943552 0.579222739
v 0.180127949 0.169011191 0.578896523
v -0.227069825 0.0972114429 0.578896582
v -0.2280173 0.0957303867 0.579222858
v -0.228629559 0.0967979059 0.578202009
v 0.233337909 -0.132757619 0.57889539
v 0.234378248 -0.133137986 0.5777632
v 0.236485332 -0.145073697 0.577652574
v -0.172605246 -0.217207238 0.577652693
v -0.174707502 -0.205270693 0.577763319
v -0.173860043 -0.204557434 0.57889545
v 0.236485332 -0.145073697 0.577652574
v 0.23557511 -0.145442203 0.578875005
v 0.233337909 -0.132757619 0.57889539
v -0.173860043 -0.204557434 0.57889545
v -0.171623915 -0.217242226 0.578875065
v -0.172605246 -0.217207238 0.577652693
v 0.177867442 0.181836382 0.578867376
v 0.17883572 0.181877211 0.577629507
v 0.180962533 0.16979517 0.577785909
v -0.228122205 0.09766265 0.577786028
v -0.230255932 0.109743439 0.577629566
v -0.22933206 0.110036276 0.578867435
v 0.203928977 0.0278808065 0.614705086
v 0.205148965 0.0280783363 0.613505065
v 0.213947982 -0.0218232088 0.613505065
v 0.212733954 -0.0220548324 0.614705086
v -0.201166123 -0.0435482077 0.614705145
v -0.192361087 -0.0934839025 0.614705145
v -0.193581194 -0.0936814323 0.613505125
v -0.202380151 -0.043779891 0.613505125
v 0.194296628 0.0826432332 0.613921106
v 0.195522636 0.0828066096 0.612722158
v 0.205148965 0.0280783363 0.613505065
v 0.205148965 0.0280783363 0.613505065
v 0.203928977 0.0278808065 0.614705086
v 0.194296628 0.0826432332 0.613921106
v -0.210844487 0.0112060504 0.613921165
v -0.201166123 -0.0435482077 0.614705145
v -0.202380151 -0.043779891 0.613505125
v -0.202380151 -0.043779891 0.613505125
v -0.212052435 0.0109402733 0.612722218
v -0.210844487 0.0112060504 0.613921165
v 0.212733954 -0.0220548324 0.614705086
v 0.213947982 -0.0218232088 0.613505065
v 0.218680233 -0.0485270433 0.612722158
v 0.217472285 -0.0487927608 0.613921165
v -0.192361087 -0.0934839025 0.614705145
v -0.18766889 -0.120229907 0.613921225
v -0.188894838 -0.120393343 0.612722218
v -0.193581194 -0.0936814323 0.613505125
v 0.217472285 -0.0487927608 0.613921165
v 0.218680233 -0.0485270433 0.612722158
v 0.22343114 -0.0752019659 0.611156285
v 0.222229272 -0.0755017176 0.612353325
v -0.18766889 -0.120229907 0.613921225
v -0.183003873 -0.146955118 0.612353384
v -0.184235901 -0.147084489 0.611156344
v -0.188894838 -0.120393343 0.612722218
v 0.18963173 0.109368466 0.612353206
v 0.190863699 0.109497808 0.611156225
v 0.195522636 0.0828066096 0.612722158
v 0.194296628 0.0826432332 0.613921106
v -0.215601414 0.0379150696 0.612353265
v -0.210844487 0.0112060504 0.613921165
v -0.212052435 0.0109402733 0.612722218
v -0.216803402 0.0376152582 0.611156285
v 0.222229272 -0.0755017176 0.612353325
v 0.22343114 -0.0752019659 0.611156285
v 0.22820732 -0.10188476 0.608802676
v 0.227009982 -0.102210023 0.609997392
v -0.183003873 -0.146955118 0.612353384
v -0.178361624 -0.173687801 0.609997511
v -0.179597944 -0.173791662 0.608802736
v -0.184235901 -0.147084489 0.611156344
v 0.184989363 0.136101082 0.609997392
v 0.186225742 0.136204973 0.608802676
v 0.190863699 0.109497808 0.611156225
v 0.18963173 0.109368466 0.612353206
v -0.220382184 0.0646233186 0.609997451
v -0.215601414 0.0379150696 0.612353265
v -0.216803402 0.0376152582 0.611156285
v -0.221579522 0.0642981157 0.608802736
v 0.227009982 -0.102210023 0.609997392
v 0.22820732 -0.10188476 0.608802676
v 0.231598526 -0.120783187 0.60685575
v 0.230412453 -0.121171184 0.608044028
v -0.178361624 -0.173687801 0.609997511
v -0.175073832 -0.192669198 0.608044088
v -0.176321 -0.192710236 0.60685581
v -0.179597944 -0.173791662 0.608802736
v 0.181625992 0.155518845 0.607999086
v 0.182879835 0.155522004 0.606814802
v 0.186225742 0.136204973 0.608802676
v 0.184989363 0.136101082 0.609997392
v -0.223862857 0.084020339 0.607999146
v -0.220382184 0.0646233186 0.609997451
v -0.221579522 0.0642981157 0.608802736
v -0.225042194 0.0835945234 0.606814861
v 0.180127949 0.169011191 0.578896523
v 0.180962533 0.16979517 0.577785909
v 0.181735128 0.169156089 0.57820195
v -0.228629559 0.0967979059 0.578202009
v -0.228122205 0.09766265 0.577786028
v -0.227069825 0.0972114429 0.578896582
v 0.234378248 -0.133137986 0.5777632
v 0.233337909 -0.132757619 0.57889539
v 0.234290868 -0.131308779 0.579227865
v -0.175251096 -0.203521922 0.579227924
v -0.173860043 -0.204557434 0.57889545
v -0.174707502 -0.205270693 0.577763319
v 0.231222004 -0.125539884 0.606747508
v 0.230412453 -0.121171184 0.608044028
v 0.231598526 -0.120783187 0.60685575
v 0.232316881 -0.124659516 0.605705321
v -0.174340338 -0.197051302 0.606747568
v -0.175670236 -0.196598485 0.60570538
v -0.176321 -0.192710236 0.60685581
v -0.175073832 -0.192669198 0.608044088
v 0.181625992 0.155518845 0.607999086
v 0.180896729 0.159871772 0.606735051
v 0.182225138 0.159429744 0.605679989
v 0.182879835 0.155522004 0.606814802
v -0.223862857 0.084020339 0.607999146
v -0.225042194 0.0835945234 0.606814861
v -0.22576341 0.0874905214 0.605680108
v -0.224666446 0.0883602127 0.60673511
v 0.227009982 -0.102210023 0.609997392
v 0.230412453 -0.121171184 0.608044028
v 0.232009381 -0.132232055 0.61971879
v 0.232818931 -0.136600748 0.618422329
v 0.226844758 -0.10345111 0.622683704
v 0.231222004 -0.125539884 0.606747508
v 0.222229272 -0.0755017176 0.612353325
v 0.233417481 -0.139508083 0.61558342
v 0.222015649 -0.0764724389 0.625063479
v 0.231820613 -0.12844722 0.603908539
v 0.217472285 -0.0487927608 0.613921165
v 0.23380509 -0.140954122 0.611202002
v 0.217194349 -0.0494020991 0.626652539
v 0.232208222 -0.129893228 0.599527121
v 0.23557511 -0.145442203 0.578875005
v 0.233337909 -0.132757619 0.57889539
v 0.212733954 -0.0220548324 0.614705086
v 0.212391824 -0.0223020129 0.627447009
v 0.203928977 0.0278808065 0.614705086
v 0.203522891 0.0279960819 0.627447069
v 0.194296628 0.0826432332 0.613921106
v 0.193827003 0.0831207857 0.626652479
v 0.18963173 0.109368466 0.612353206
v 0.189098984 0.11020764 0.62506336
v 0.184989363 0.136101082 0.609997392
v 0.184409648 0.137210861 0.622683644
v 0.181625992 0.155518845 0.607999086
v 0.179446787 0.165863112 0.619735241
v 0.180896729 0.159871772 0.606735051
v 0.178717464 0.170216098 0.618471205
v 0.180445343 0.162905708 0.603974521
v 0.178266078 0.173250034 0.615710735
v 0.180271834 0.164620653 0.599717557
v 0.178092569 0.174964979 0.611453772
v 0.177867442 0.181836382 0.578867376
v 0.180127949 0.169011191 0.578896523
v -0.178361624 -0.173687801 0.609997511
v -0.17778191 -0.17479752 0.622683764
v -0.172791332 -0.203609183 0.61971885
v -0.183003873 -0.146955118 0.612353384
v -0.175073832 -0.192669198 0.608044088
v -0.182471246 -0.147794202 0.625063598
v -0.172057956 -0.207991287 0.618422389
v -0.18766889 -0.120229907 0.613921225
v -0.174340338 -0.197051302 0.606747568
v -0.187199205 -0.12070743 0.626652598
v -0.171626061 -0.210928038 0.615583479
v -0.192361087 -0.0934839025 0.614705145
v -0.173908442 -0.199988022 0.603908598
v -0.19195506 -0.0935990587 0.627447069
v -0.171495646 -0.212419435 0.611202061
v -0.201166123 -0.0435482077 0.614705145
v -0.173778147 -0.20147942 0.59952718
v -0.171623915 -0.217242226 0.578875065
v -0.173860043 -0.204557434 0.57889545
v -0.200823992 -0.0433010273 0.627447128
v -0.210844487 0.0112060504 0.613921165
v -0.210566491 0.0118154483 0.626652539
v -0.215601414 0.0379150696 0.612353265
v -0.215387911 0.0388857909 0.625063419
v -0.220382184 0.0646233186 0.609997451
v -0.22021696 0.0658644661 0.622683704
v -0.223862857 0.084020339 0.607999146
v -0.225352973 0.0944861397 0.619735301
v -0.224666446 0.0883602127 0.60673511
v -0.226156443 0.0988260135 0.618471265
v -0.225279897 0.0913655981 0.603974581
v -0.226770014 0.101831399 0.615710795
v -0.225703329 0.0930364355 0.599717617
v -0.227193445 0.103502296 0.611453831
v -0.22933206 0.110036276 0.578867435
v -0.227069825 0.0972114429 0.578896582
v 0.180896729 0.159871772 0.606735051
v 0.180445343 0.162905708 0.603974521
v 0.181819886 0.162153378 0.603201807
v 0.182225138 0.159429744 0.605679989
v -0.224666446 0.0883602127 0.60673511
v -0.22576341 0.0874905214 0.605680108
v -0.226314276 0.0901885256 0.603201866
v -0.225279897 0.0913655981 0.603974581
v 0.231820613 -0.12844722 0.603908539
v 0.231222004 -0.125539884 0.606747508
v 0.232316881 -0.124659516 0.605705321
v 0.232847959 -0.127239183 0.603186309
v -0.173908442 -0.199988022 0.603908598
v -0.175287098 -0.199204251 0.603186369
v -0.175670236 -0.196598485 0.60570538
v -0.174340338 -0.197051302 0.606747568
v 0.180445343 0.162905708 0.603974521
v 0.180271834 0.164620653 0.599717557
v 0.181664139 0.163692906 0.599380255
v 0.181819886 0.162153378 0.603201807
v -0.225279897 0.0913655981 0.603974581
v -0.226314276 0.0901885256 0.603201866
v -0.226694435 0.0916884765 0.599380314
v -0.225703329 0.0930364355 0.599717617
v 0.232208222 -0.129893228 0.599527121
v 0.231820613 -0.12844722 0.603908539
v 0.232847959 -0.127239183 0.603186309
v 0.233191878 -0.128522232 0.599298775
v -0.173778147 -0.20147942 0.59952718
v -0.175171345 -0.200527534 0.599298835
v -0.175287098 -0.199204251 0.603186369
v -0.173908442 -0.199988022 0.603908598
v 0.232208222 -0.129893228 0.599527121
v 0.233191878 -0.128522232 0.599298775
v 0.234290868 -0.131308779 0.579227865
v 0.233337909 -0.132757619 0.57889539
v -0.173778147 -0.20147942 0.59952718
v -0.173860043 -0.204557434 0.57889545
v -0.175251096 -0.203521922 0.579227924
v -0.175171345 -0.200527534 0.599298835
v 0.181524843 0.167943552 0.579222739
v 0.181664139 0.163692906 0.599380255
v 0.180271834 0.164620653 0.599717557
v 0.180127949 0.169011191 0.578896523
v -0.2280173 0.0957303867 0.579222858
v -0.227069825 0.0972114429 0.578896582
v -0.225703329 0.0930364355 0.599717617
v -0.226694435 0.0916884765 0.599380314
vt -1 2
vt -1 2
vt -1 2
vt -1 2
vt -1 2
vt -1 2
vt -1 2
vt -1 2
vt -1 2
vt -1 2
vt -1 2
vt -1 2
vt -1 2
vt -1 2
vt -1 2
vt -1 2
vt -1 2
vt -1 2
vt -1 2
vt -1 2
vt -1 2
vt -1 2
vt -1 2
vt -1 2
vt -1 2
vt -1 2
vt -1 2
vt -1 2
vt -1 2
vt -1 2
vt -1 2
vt -1 2
vt -1 2
vt -1 2
vt -1 2
vt -1 2
vt -1 2
vt -1 2
vt -1 2
vt -1 2
vt -1 2
vt -1 2
vt -1 2
vt -1 2
vt -1 2
vt -1 2
vt -1 2
vt -1 2
vt -1 2
vt -1 2
vt -1 2
vt -1 2
vt -1 2
vt -1 2
vt -1 2
vt -1 2
vt -1 2
vt -1 2
vt -1 2
vt -1 2
vt -1 2
vt -1 2
vt -1 2
vt -1 2
vt -1 2
vt -1 2
vt -1 2
vt -1 2
vt -1 2
vt -1 2
vt -1 2
vt -1 2
vt -1 2
vt -1 2
vt -1 2
vt -1 2
vt -1 2
vt -1 2
vt -1 2
vt -1 2
vt -1 2
vt -1 2
vt -1 2
vt -1 2
vt -1 2
vt -1 2
vt -1 2
vt -1 2
vt -1 2
vt -1 2
vt -1 2
vt -1 2
vt -1 2
vt -1 2
vt -1 2
vt -1 2
vt -1 2
vt -1 2
vt -1 2
vt -1 2
vt -1 2
vt -1 2
vt -1 2
vt -1 2
vt -1 2
vt -1 2
vt -1 2
vt -1 2
vt -1 2
vt -1 2
vt -1 2
vt -1 2
vt -1 2
vt -1 2
vt -1 2
vt -1 2
vt -1 2
vt -1 2
vt -1 2
vt -1 2
vt -1 2
vt -1 2
vt -1 2
vt -1 2
vt -1 2
vt -1 2
vt -1 2
vt -1 2
vt -1 2
vt -1 2
vt -1 2
vt -1 2
vt -1 2
vt -1 2
vt -1 2
vt -1 2
vt -1 2
vt -1 2
vt -1 2
vt -1 2
vt -1 2
vt -1 2
vt -1 2
vt -1 2
vt -1 2
vt -1 2
vt -1 2
vt -1 2
vt -1 2
vt -1 2
vt -1 2
vt -1 2
vt -1 2
vt -1 2
vt -1 2
vt -1 2
vt -1 2
vt -1 2
vt -1 2
vt -1 2
vt -1 2
vt -1 2
vt -1 2
vt -1 2
vt -1 2
vt -1 2
vt -1 2
vt -1 2
vt -1 2
vt -1 2
vt -1 2
vt -1 2
vt -1 2
vt -1 2
vt -1 2
vt -1 2
vt -1 2
vt -1 2
vt -1 2
vt -1 2
vt -1 2
vt -1 2
vt -1 2
vt -1 2
vt -1 2
vt -1 2
vt -1 2
vt -1 2
vt -1 2
vt -1 2
vt -1 2
vt -1 2
vt -1 2
vt -1 2
vt -1 2
vt -1 2
vt -1 2
vt -1 2
vt -1 2
vt -1 2
vt -1 2
vt -1 2
vt -1 2
vt -1 2
vt -1 2
vt -1 2
vt -1 2
vt -1 2
vt -1 2
vt -1 2
vt -1 2
vt -1 2
vt -1 2
vt -1 2
vt -1 2
vt -1 2
vt -1 2
vt -1 2
vt -1 2
vt -1 2
vt -1 2
vt -1 2
vt -1 2
vt -1 2
vt -1 2
vt -1 2
vt -1 2
vt -1 2
vt -1 2
vt -1 2
vt -1 2
vt -1 2
vt -1 2
vt -1 2
vt -1 2
vt -1 2
vt -1 2
vt -1 2
vt -1 2
vt -1 2
vt -1 2
vt -1 2
vt -1 2
vt -1 2
vt -1 2
vt -1 2
vt -1 2
vt -1 2
vt -1 2
vt -1 2
vt -1 2
vt -1 2
vt -1 2
vt -1 2
vt -1 2
vt -1 2
vt -1 2
vt -1 2
vt -1 2
vt -1 2
vt -1 2
vt -1 2
vt -1 2
vt -1 2
vt -1 2
vt -1 2
vt -1 2
vt -1 2
vt -1 2
vt -1 2
vt -1 2
vt -1 2
vt -1 2
vt -1 2
vt -1 2
vt -1 2
vt -1 2
vt -1 2
vt -1 2
vt -1 2
vt -1 2
vt -1 2
vt -1 2
vt -1 2
vt -1 2
vt -1 2
vt -1 2
vt -1 2
vt -1 2
vt -1 2
vt -1 2
vt -1 2
vt -1 2
vt -1 2
vt -1 2
vt -1 2
vt -1 2
vt -1 2
vt -1 2
vt -1 2
vt -1 2
vt -1 2
vt -1 2
vt -1 2
vt -1 2
vt -1 2
vt -1 2
vt -1 2
vt -1 2
vt -1 2
vt -1 2
vt -1 2
vt -1 2
vt -1 2
vt -1 2
vt -1 2
vt -1 2
vt -1 2
vt -1 2
vt -1 2
vt -1 2
vt -1 2
vt -1 2
vt -1 2
vt -1 2
vt -1 2
vt -1 2
vt -1 2
vt -1 2
vt -1 2
vt -1 2
vt -1 2
vt -1 2
vt -1 2
vt -1 2
vt -1 2
vt -1 2
vt -1 2
vt -1 2
vt -1 2
vt -1 2
vt -1 2
vt -1 2
vt -1 2
vt -1 2
vt -1 2
vt -1 2
vt -1 2
vt -1 2
vt -1 2
vt -1 2
vt -1 2
vt -1 2
vt -1 2
vt -1 2
vt -1 2
vt -1 2
vt -1 2
vt -1 2
vt -1 2
vt -1 2
vt -1 2
vt -1 2
vt -1 2
vt -1 2
vt -1 2
vt -1 2
vt -1 2
vt -1 2
vt -1 2
vt -1 2
vt -1 2
vt -1 2
vt -1 2
vt -1 2
vt -1 2
vt -1 2
vt -1 2
vt -1 2
vt -1 2
vt -1 2
vt -1 2
vt -1 2
vt -1 2
vt -1 2
vt -1 2
vt -1 2
vt -1 2
vt -1 2
vt -1 2
vt -1 2
vt -1 2
vt -1 2
vt -1 2
vt -1 2
vt -1 2
vt -1 2
vt -1 2
vt -1 2
vt -1 2
vt -1 2
vt -1 2
vt -1 2
vt -1 2
vt -1 2
vt -1 2
vt -1 2
vt -1 2
vt -1 2
vt -1 2
vt -1 2
vt -1 2
vt -1 2
vt -1 2
vt -1 2
vt -1 2
vt -1 2
vt -1 2
vt -1 2
vt -1 2
vt -1 2
vt -1 2
vt -1 2
vt -1 2
vt -1 2
vt -1 2
vt -1 2
vt -1 2
vt -1 2
vt -1 2
vt -1 2
vt -1 2
vt -1 2
vt -1 2
vt -1 2
vt -1 2
vt -1 2
vt -1 2
vt -1 2
vt -1 2
vt -1 2
vt -1 2
vt -1 2
vt -1 2
vt -1 2
vt -1 2
vt -1 2
vt -1 2
vt -1 2
vt -1 2
vt -1 2
vt -1 2
vt -1 2
vt -1 2
vt -1 2
vt -1 2
vt -1 2
vt -1 2
vt -1 2
vt -1 2
vt -1 2
vt -1 2
vt -1 2
vt -1 2
vt -1 2
vt -1 2
vt -1 2
vt -1 2
vt -1 2
vt -1 2
vt -1 2
vt -1 2
vt -1 2
vt -1 2
vt -1 2
vt -1 2
vt -1 2
vt -1 2
vt -1 2
vt -1 2
vt -1 2
vt -1 2
vt -1 2
vt -1 2
vt -1 2
vt -1 2
vt -1 2
vt -1 2
vt -1 2
vt -1 2
vt -1 2
vt -1 2
vt -1 2
vt -1 2
vt -1 2
vt -1 2
vt -1 2
vt -1 2
vt -1 2
vt -1 2
vt -1 2
vt -1 2
vt -1 2
vt -1 2
vt -1 2
vt -1 2
vt -1 2
vt -1 2
vt -1 2
vt -1 2
vt -1 2
vt -1 2
vt -1 2
vt -1 2
vt -1 2
vt -1 2
vt -1 2
vt -1 2
vt -1 2
vt -1 2
vt -1 2
vt -1 2
vt -1 2
vt -1 2
vt -1 2
vt -1 2
vt -1 2
vt -1 2
vt -1 2
vt -1 2
vt -1 2
vt -1 2
vt -1 2
vt -1 2
vt -1 2
vt -1 2
vt -1 2
vt -1 2
vt -1 2
vt -1 2
vt -1 2
vt -1 2
vt -1 2
vt -1 2
vt -1 2
vt -1 2
vt -1 2
vt -1 2
vt -1 2
vt -1 2
vt -1 2
vt -1 2
vt -1 2
vt -1 2
vt -1 2
vt -1 2
vt -1 2
vt -1 2
vt -1 2
vt -1 2
vt -1 2
vt -1 2
vt -1 2
vt -1 2
vt -1 2
vt -1 2
vt -1 2
vt -1 2
vt -1 2
vt -1 2
vt -1 2
vt -1 2
vt -1 2
vt -1 2
vt -1 2
vt -1 2
vt -1 2
vt -1 2
vt -1 2
vt -1 2
vt -1 2
vt -1 2
vt -1 2
vt -1 2
vt -1 2
vt -1 2
vt -1 2
vt -1 2
vt -1 2
vt -1 2
vt -1 2
vt -1 2
vt -1 2
vt -1 2
vt -1 2
vt -1 2
vt -1 2
vt -1 2
vt -1 2
vt -1 2
vt -1 2
vt -1 2
vt -1 2
vt -1 2
vt -1 2
vt -1 2
vt -1 2
vt -1 2
vt -1 2
vt -1 2
vt -1 2
vt -1 2
vt -1 2
vt -1 2
vt -1 2
vt -1 2
vt -1 2
vt -1 2
vt -1 2
vt -1 2
vt -1 2
vt -1 2
vt -1 2
vt -1 2
vt -1 2
vt -1 2
vt -1 2
vt -1 2
vt -1 2
vt -1 2
vt -1 2
vt -1 2
vt -1 2
vt -1 2
vt -1 2
vt -1 2
vt -1 2
vt -1 2
vt -1 2
vt -1 2
vt -1 2
vt -1 2
vt -1 2
vt -1 2
vt -1 2
vt -1 2
vt -1 2
vt -1 2
vt -1 2
vt -1 2
vt -1 2
vt -1 2
vt -1 2
vt -1 2
vt -1 2
vt -1 2
vt -1 2
vt -1 2
vt -1 2
vt -1 2
vt -1 2
vt -1 2
vt -1 2
vt -1 2
vt -1 2
vt -1 2
vt -1 2
vt -1 2
vt -1 2
vt -1 2
vt -1 2
vt -1 2
vt -1 2
vt -1 2
vt -1 2
vt -1 2
vt -1 2
vt -1 2
vt -1 2
vt -1 2
vt -1 2
vt -1 2
vt -1 2
vt -1 2
vt -1 2
vt -1 2
vt -1 2
vt -1 2
vt -1 2
vt -1 2
vt -1 2
vt -1 2
vt -1 2
vt -1 2
vt -1 2
vt -1 2
vt -1 2
vt -1 2
vt -1 2
vt -1 2
vt -1 2
vt -1 2
vt -1 2
vt -1 2
vt -1 2
vt -1 2
vt -1 2
vt -1 2
vt -1 2
vt -1 2
vt -1 2
vt -1 2
vt -1 2
vt -1 2
vt -1 2
vt -1 2
vt -1 2
vt -1 2
vt -1 2
vt -1 2
vt -1 2
vt -1 2
vt -1 2
vt -1 2
vt -1 2
vt -1 2
vt -1 2
vt -1 2
vt -1 2
vt -1 2
vt -1 2
vt -1 2
vt -1 2
vt -1 2
vt -1 2
vt -1 2
vt -1 2
vt -1 2
vt -1 2
vt -1 2
vt -1 2
vt -1 2
vt -1 2
vt -1 2
vt -1 2
vt -1 2
vt -1 2
vt -1 2
vt -1 2
vt -1 2
vt -1 2
vt -1 2
vt -1 2
vt -1 2
vt -1 2
vt -1 2
vt -1 2
vt -1 2
vt -1 2
vt -1 2
vt -1 2
vt -1 2
vt -1 2
vt -1 2
vt -1 2
vt -1 2
vt -1 2
vt -1 2
vt -1 2
vt -1 2
vt -1 2
vt -1 2
vt -1 2
vt -1 2
vt -1 2
vt -1 2
vt -1 2
vt -1 2
vt -1 2
vt -1 2
vt -1 2
vt -1 2
vt -1 2
vt -1 2
vt -1 2
vt -1 2
vt -1 2
vt -1 2
vt -1 2
vt -1 2
vt -1 2
vt -1 2
vt -1 2
vt -1 2
vt -1 2
vt -1 2
vt -1 2
vt -1 2
vt -1 2
vt -1 2
vt -1 2
vt -1 2
vt -1 2
vt -1 2
vt -1 2
vt -1 2
vt -1 2
vt -1 2
vt -1 2
vt -1 2
vt -1 2
vt -1 2
vt -1 2
vt -1 2
vt -1 2
vt -1 2
vt -1 2
vt -1 2
vt -1 2
vt -1 2
vt -1 2
vt -1 2
vt -1 2
vt -1 2
vt -1 2
vt -1 2
vt -1 2
vt -1 2
vt -1 2
vt -1 2
vt -1 2
vt -1 2
vt -1 2
vt -1 2
vt -1 2
vt -1 2
vt -1 2
vt -1 2
vt -1 2
vt -1 2
vt -1 2
vt -1 2
vt -1 2
vt -1 2
vt -1 2
vt -1 2
vt -1 2
vt -1 2
vt -1 2
vt -1 2
vt -1 2
vt -1 2
vt -1 2
vt -1 2
vt -1 2
vt -1 2
vt -1 2
vt -1 2
vt -1 2
vt -1 2
vt -1 2
vt -1 2
vt -1 2
vt -1 2
vt -1 2
vt -1 2
vt -1 2
vt -1 2
vt -1 2
vt -1 2
vt -1 2
vt -1 2
vt -1 2
vt -1 2
vt -1 2
vt -1 2
vt -1 2
vt -1 2
vt -1 2
vt -1 2
vt -1 2
vt -1 2
vt -1 2
vt -1 2
vt -1 2
vt -1 2
vt -1 2
vt -1 2
vt -1 2
vt -1 2
vt -1 2
vt -1 2
vt -1 2
vt -1 2
vt -1 2
vt -1 2
vt -1 2
vt -1 2
vt -1 2
vt -1 2
vt -1 2
vt -1 2
vt -1 2
vt -1 2
vt -1 2
vt -1 2
vt -1 2
vt -1 2
vt -1 2
vt -1 2
vt -1 2
vt -1 2
vt -1 2
vt -1 2
vt -1 2
vt -1 2
vt -1 2
vt -1 2
vt -1 2
vt -1 2
vt -1 2
vt -1 2
vt -1 2
vt -1 2
vt -1 2
vt -1 2
vt -1 2
vt -1 2
vt -1 2
vt -1 2
vt -1 2
vt -1 2
vt -1 2
vt -1 2
vt -1 2
vt -1 2
vt -1 2
vt -1 2
vt -1 2
vt -1 2
vt -1 2
vt -1 2
vt -1 2
vt -1 2
vt -1 2
vt -1 2
vt -1 2
vt -1 2
vt -1 2
vt -1 2
vt -1 2
vt -1 2
vt -1 2
vt -1 2
vt -1 2
vt -1 2
vt -1 2
vt -1 2
vt -1 2
vt -1 2
vt -1 2
vt -1 2
vt -1 2
vt -1 2
vt -1 2
vt -1 2
vt -1 2
vt -1 2
vt -1 2
vt -1 2
vt -1 2
vt -1 2
vt -1 2
vt -1 2
vt -1 2
vt -1 2
vt -1 2
vt -1 2
vt -1 2
vt -1 2
vt -1 2
vt -1 2
vt -1 2
vt -1 2
vt -1 2
vt -1 2
vt -1 2
vt -1 2
vt -1 2
vt -1 2
vt -1 2
vt -1 2
vt -1 2
vt -1 2
vt -1 2
vt -1 2
vt -1 2
vt -1 2
vt -1 2
vt -1 2
vt -1 2
vt -1 2
vt -1 2
vt -1 2
vt -1 2
vt -1 2
vt -1 2
vt -1 2
vt -1 2
vt -1 2
vt -1 2
vt -1 2
vt -1 2
vt -1 2
vt -1 2
vt -1 2
vt -1 2
vt -1 2
vt -1 2
vt -1 2
vt -1 2
vt -1 2
vt -1 2
vt -1 2
vt -1 2
vt -1 2
vt -1 2
vt -1 2
vt -1 2
vt -1 2
vt -1 2
vt -1 2
vt -1 2
vt -1 2
vt -1 2
vt -1 2
vt -1 2
vt -1 2
vt -1 2
vt -1 2
vt -1 2
vt -1 2
vt -1 2
vt -1 2
vt -1 2
vt -1 2
vt -1 2
vt -1 2
vt -1 2
vt -1 2
vt -1 2
vt -1 2
vt -1 2
vt -1 2
vt -1 2
vt -1 2
vt -1 2
vt -1 2
vt -1 2
vt -1 2
vt -1 2
vt -1 2
f 1/1 2/2 3/3
f 3/3 4/4 1/1
f 5/5 6/6 7/7
f 7/7 8/8 5/5
f 9/9 10/10 11/11
f 11/11 12/12 9/9
f 13/13 14/14 15/15
f 15/15 16/16 13/13
f 17/17 18/18 19/19
f 19/19 20/20 17/17
f 21/21 22/22 23/23
f 23/23 24/24 21/21
f 25/25 26/26 27/27
f 27/27 28/28 25/25
f 29/29 30/30 31/31
f 31/31 32/32 29/29
f 33/33 34/34 35/35
f 36/36 37/37 38/38
f 39/39 40/40 41/41
f 42/42 43/43 44/44
f 45/45 46/46 47/47
f 47/47 48/48 45/45
f 49/49 50/50 51/51
f 51/51 52/52 49/49
f 53/53 54/54 55/55
f 55/55 56/56 53/53
f 57/57 58/58 59/59
f 59/59 60/60 57/57
f 61/61 62/62 63/63
f 64/64 65/65 66/66
f 67/67 68/68 69/69
f 70/70 69/69 68/68
f 69/69 71/71 67/67
f 68/68 72/72 70/70
f 73/73 67/67 71/71
f 74/74 70/70 72/72
f 71/71 75/75 73/73
f 72/72 76/76 74/74
f 77/77 73/73 75/75
f 78/78 74/74 76/76
f 75/75 79/79 77/77
f 76/76 80/80 78/78
f 78/78 80/80 81/81
f 81/81 82/82 78/78
f 83/83 77/77 79/79
f 79/79 84/84 83/83
f 85/85 83/83 84/84
f 84/84 86/86 85/85
f 87/87 85/85 86/86
f 86/86 88/88 87/87
f 89/89 87/87 88/88
f 88/88 90/90 89/89
f 91/91 89/89 90/90
f 90/90 92/92 91/91
f 93/93 91/91 92/92
f 92/92 94/94 93/93
f 95/95 93/93 94/94
f 94/94 96/96 95/95
f 97/97 95/95 96/96
f 96/96 98/98 97/97
f 99/99 97/97 98/98
f 98/98 100/100 99/99
f 101/101 99/99 100/100
f 100/100 102/102 101/101
f 103/103 104/104 105/105
f 104/104 103/103 106/106
f 105/105 107/107 103/103
f 106/106 108/108 104/104
f 107/107 105/105 109/109
f 108/108 106/106 110/110
f 109/109 111/111 107/107
f 110/110 112/112 108/108
f 111/111 109/109 113/113
f 112/112 110/110 114/114
f 113/113 115/115 111/111
f 114/114 116/116 112/112
f 115/115 113/113 117/117
f 116/116 114/114 118/118
f 117/117 119/119 115/115
f 120/120 119/119 117/117
f 117/117 121/121 120/120
f 118/118 122/122 116/116
f 122/122 118/118 123/123
f 123/123 124/124 122/122
f 124/124 123/123 125/125
f 125/125 126/126 124/124
f 126/126 125/125 127/127
f 127/127 128/128 126/126
f 128/128 127/127 129/129
f 129/129 130/130 128/128
f 130/130 129/129 131/131
f 131/131 132/132 130/130
f 132/132 131/131 133/133
f 133/133 134/134 132/132
f 134/134 133/133 135/135
f 135/135 136/136 134/134
f 136/136 135/135 137/137
f 137/137 138/138 136/136
f 139/139 140/140 141/141
f 142/142 143/143 144/144
f 145/145 146/146 147/147
f 147/147 148/148 145/145
f 149/149 150/150 151/151
f 151/151 152/152 149/149
f 153/153 154/154 155/155
f 155/155 156/156 153/153
f 157/157 158/158 159/159
f 159/159 160/160 157/157
f 161/161 162/162 163/163
f 164/164 165/165 166/166
f 167/167 168/168 169/169
f 170/170 171/171 172/172
f 173/173 174/174 175/175
f 176/176 177/177 178/178
f 179/179 180/180 181/181
f 182/182 183/183 184/184
f 185/185 186/186 187/187
f 187/187 188/188 185/185
f 189/189 190/190 191/191
f 191/191 192/192 189/189
f 193/193 194/194 195/195
f 195/195 196/196 193/193
f 197/197 198/198 199/199
f 199/199 200/200 197/197
f 201/201 202/202 203/203
f 203/203 204/204 201/201
f 205/205 206/206 207/207
f 207/207 208/208 205/205
f 209/209 210/210 211/211
f 211/211 212/212 209/209
f 213/213 214/214 215/215
f 215/215 216/216 213/213
f 217/217 218/218 219/219
f 219/219 220/220 217/217
f 221/221 222/222 223/223
f 223/223 224/224 221/221
f 225/225 226/226 227/227
f 227/227 228/228 225/225
f 229/229 230/230 231/231
f 231/231 232/232 229/229
f 233/233 234/234 235/235
f 235/235 236/236 233/233
f 237/237 238/238 239/239
f 239/239 240/240 237/237
f 241/241 242/242 243/243
f 243/243 244/244 241/241
f 245/245 246/246 247/247
f 248/248 249/249 250/250
f 251/251 252/252 253/253
f 253/253 254/254 251/251
f 255/255 256/256 257/257
f 258/258 259/259 260/260
f 261/261 262/262 263/263
f 264/264 265/265 266/266
f 267/267 268/268 269/269
f 270/270 271/271 272/272
f 273/273 274/274 275/275
f 275/275 276/276 273/273
f 277/277 278/278 279/279
f 279/279 280/280 277/277
f 281/281 282/282 283/283
f 284/284 285/285 286/286
f 287/287 288/288 289/289
f 290/290 291/291 292/292
f 293/293 294/294 295/295
f 295/295 296/296 293/293
f 297/297 298/298 299/299
f 299/299 300/300 297/297
f 301/301 302/302 303/303
f 304/304 305/305 306/306
f 307/307 308/308 309/309
f 310/310 311/311 312/312
f 313/313 314/314 315/315
f 316/316 317/317 318/318
f 319/319 320/320 321/321
f 321/321 322/322 319/319
f 323/323 324/324 325/325
f 325/325 326/326 323/323
f 327/327 328/328 329/329
f 330/330 331/331 332/332
f 333/333 334/334 335/335
f 336/336 337/337 338/338
f 339/339 340/340 341/341
f 341/341 342/342 339/339
f 343/343 344/344 345/345
f 346/346 347/347 348/348
f 349/349 350/350 351/351
f 351/351 352/352 349/349
f 353/353 354/354 355/355
f 355/355 356/356 353/353
f 357/357 358/358 359/359
f 359/359 360/360 357/357
f 361/361 362/362 363/363
f 363/363 364/364 361/361
f 365/365 366/366 367/367
f 367/367 368/368 365/365
f 369/369 370/370 371/371
f 371/371 372/372 369/369
f 373/373 374/374 375/375
f 375/375 376/376 373/373
f 377/377 378/378 379/379
f 379/379 380/380 377/377
f 381/381 382/382 383/383
f 383/383 384/384 381/381
f 385/385 386/386 387/387
f 388/388 389/389 390/390
f 391/391 392/392 393/393
f 393/393 394/394 391/391
f 395/395 396/396 397/397
f 397/397 398/398 395/395
f 399/399 400/400 401/401
f 401/401 402/402 399/399
f 403/403 404/404 405/405
f 406/406 407/407 408/408
f 409/409 410/410 411/411
f 412/412 413/413 414/414
f 415/415 416/416 417/417
f 418/418 419/419 420/420
f 421/421 422/422 423/423
f 424/424 425/425 426/426
f 427/427 428/428 429/429
f 429/429 430/430 427/427
f 431/431 432/432 433/433
f 433/433 434/434 431/431
f 435/435 436/436 437/437
f 437/437 438/438 435/435
f 439/439 440/440 441/441
f 441/441 442/442 439/439
f 443/443 444/444 445/445
f 445/445 446/446 443/443
f 447/447 448/448 449/449
f 449/449 450/450 447/447
f 451/451 452/452 453/453
f 453/453 454/454 451/451
f 455/455 456/456 457/457
f 458/458 459/459 460/460
f 461/461 462/462 463/463
f 464/464 465/465 466/466
f 467/467 468/468 469/469
f 470/470 471/471 472/472
f 473/473 474/474 475/475
f 476/476 477/477 478/478
f 479/479 480/480 481/481
f 482/482 483/483 484/484
f 485/485 486/486 487/487
f 488/488 487/487 486/486
f 487/487 489/489 485/485
f 486/486 490/490 488/488
f 491/491 485/485 489/489
f 492/492 488/488 490/490
f 489/489 493/493 491/491
f 490/490 494/494 492/492
f 495/495 491/491 493/493
f 496/496 492/492 494/494
f 493/493 497/497 495/495
f 494/494 498/498 496/496
f 499/499 496/496 498/498
f 498/498 500/500 499/499
f 501/501 495/495 497/497
f 497/497 502/502 501/501
f 503/503 501/501 502/502
f 502/502 504/504 503/503
f 505/505 503/503 504/504
f 504/504 506/506 505/505
f 507/507 505/505 506/506
f 506/506 508/508 507/507
f 509/509 507/507 508/508
f 508/508 510/510 509/509
f 511/511 509/509 510/510
f 510/510 512/512 511/511
f 513/513 511/511 512/512
f 512/512 514/514 513/513
f 515/515 513/513 514/514
f 514/514 516/516 515/515
f 517/517 515/515 516/516
f 516/516 518/518 517/517
f 517/517 518/518 519/519
f 519/519 520/520 517/517
f 521/521 522/522 523/523
f 522/522 521/521 524/524
f 523/523 525/525 521/521
f 524/524 526/526 522/522
f 525/525 523/523 527/527
f 526/526 524/524 528/528
f 527/527 529/529 525/525
f 528/528 530/530 526/526
f 529/529 527/527 531/531
f 530/530 528/528 532/532
f 531/531 533/533 529/529
f 532/532 534/534 530/530
f 533/533 531/531 535/535
f 534/534 532/532 536/536
f 535/535 537/537 533/533
f 537/537 535/535 538/538
f 538/538 539/539 537/537
f 536/536 540/540 534/534
f 540/540 536/536 541/541
f 541/541 542/542 540/540
f 542/542 541/541 543/543
f 543/543 544/544 542/542
f 544/544 543/543 545/545
f 545/545 546/546 544/544
f 546/546 545/545 547/547
f 547/547 548/548 546/546
f 548/548 547/547 549/549
f 549/549 550/550 548/548
f 550/550 549/549 551/551
f 551/551 552/552 550/550
f 552/552 551/551 553/553
f 553/553 554/554 552/552
f 555/555 554/554 553/553
f 553/553 556/556 555/555
f 557/557 558/558 559/559
f 560/560 559/559 558/558
f 559/559 561/561 557/557
f 558/558 562/562 560/560
f 563/563 557/557 561/561
f 564/564 560/560 562/562
f 561/561 565/565 563/563
f 562/562 566/566 564/564
f 567/567 563/563 565/565
f 568/568 564/564 566/566
f 565/565 569/569 567/567
f 566/566 570/570 568/568
f 568/568 570/570 571/571
f 571/571 572/572 568/568
f 573/573 567/567 569/569
f 569/569 574/574 573/573
f 575/575 573/573 574/574
f 574/574 576/576 575/575
f 577/577 575/575 576/576
f 576/576 578/578 577/577
f 579/579 577/577 578/578
f 578/578 580/580 579/579
f 581/581 579/579 580/580
f 580/580 582/582 581/581
f 583/583 581/581 582/582
f 582/582 584/584 583/583
f 585/585 583/583 584/584
f 584/584 586/586 585/585
f 587/587 585/585 586/586
f 586/586 588/588 587/587
f 589/589 587/587 588/588
f 588/588 590/590 589/589
f 591/591 589/589 590/590
f 590/590 592/592 591/591
f 593/593 594/594 595/595
f 594/594 593/593 596/596
f 595/595 597/597 593/593
f 596/596 598/598 594/594
f 597/597 595/595 599/599
f 598/598 596/596 600/600
f 599/599 601/601 597/597
f 600/600 602/602 598/598
f 601/601 599/599 603/603
f 602/602 600/600 604/604
f 603/603 605/605 601/601
f 604/604 606/606 602/602
f 605/605 603/603 607/607
f 606/606 604/604 608/608
f 607/607 609/609 605/605
f 610/610 609/609 607/607
f 607/607 611/611 610/610
f 608/608 612/612 606/606
f 612/612 608/608 613/613
f 613/613 614/614 612/612
f 614/614 613/613 615/615
f 615/615 616/616 614/614
f 616/616 615/615 617/617
f 617/617 618/618 616/616
f 618/618 617/617 619/619
f 619/619 620/620 618/618
f 620/620 619/619 621/621
f 621/621 622/622 620/620
f 622/622 621/621 623/623
f 623/623 624/624 622/622
f 624/624 623/623 625/625
f 625/625 626/626 624/624
f 626/626 625/625 627/627
f 627/627 628/628 626/626
f 629/629 630/630 631/631
f 631/631 632/632 629/629
f 633/633 634/634 635/635
f 635/635 636/636 633/633
f 637/637 638/638 639/639
f 639/639 640/640 637/637
f 641/641 642/642 643/643
f 643/643 644/644 641/641
f 645/645 646/646 647/647
f 648/648 649/649 650/650
f 651/651 652/652 653/653
f 654/654 655/655 656/656
f 657/657 658/658 659/659
f 660/660 661/661 662/662
f 663/663 664/664 665/665
f 666/666 667/667 668/668
f 669/669 670/670 671/671
f 671/671 672/672 669/669
f 673/673 674/674 675/675
f 675/675 676/676 673/673
f 677/677 678/678 679/679
f 679/679 680/680 677/677
f 681/681 682/682 683/683
f 683/683 684/684 681/681
f 685/685 686/686 687/687
f 687/687 688/688 685/685
f 689/689 690/690 691/691
f 691/691 692/692 689/689
f 693/693 694/694 695/695
f 695/695 696/696 693/693
f 697/697 698/698 699/699
f 699/699 700/700 697/697
f 701/701 702/702 703/703
f 704/704 705/705 706/706
f 707/707 708/708 709/709
f 709/709 710/710 707/707
f 711/711 712/712 713/713
f 713/713 714/714 711/711
f 715/715 716/716 717/717
f 718/718 719/719 720/720
f 721/721 722/722 723/723
f 724/724 725/725 726/726
f 727/727 728/728 729/729
f 729/729 730/730 727/727
f 731/731 732/732 733/733
f 733/733 734/734 731/731
f 735/735 736/736 737/737
f 737/737 738/738 735/735
f 739/739 740/740 741/741
f 741/741 742/742 739/739
f 743/743 744/744 745/745
f 746/746 747/747 748/748
f 749/749 750/750 751/751
f 751/751 752/752 749/749
f 753/753 754/754 755/755
f 756/756 757/757 758/758
f 759/759 760/760 761/761
f 761/761 762/762 759/759
f 763/763 764/764 765/765
f 765/765 766/766 763/763
f 767/767 768/768 769/769
f 769/769 770/770 767/767
f 771/771 772/772 773/773
f 774/774 775/775 776/776
f 777/777 778/778 779/779
f 779/779 780/780 777/777
f 781/781 782/782 783/783
f 783/783 784/784 781/781
f 785/785 786/786 787/787
f 787/787 788/788 785/785
f 789/789 790/790 791/791
f 792/792 793/793 794/794
f 795/795 796/796 797/797
f 798/798 799/799 800/800
f 801/801 802/802 803/803
f 803/803 804/804 801/801
f 805/805 806/806 807/807
f 807/807 808/808 805/805
f 809/809 810/810 811/811
f 812/812 813/813 814/814
f 815/815 816/816 817/817
f 818/818 819/819 820/820
f 821/821 822/822 823/823
f 824/824 825/825 826/826
f 827/827 828/828 829/829
f 830/830 831/831 832/832
f 833/833 834/834 835/835
f 836/836 837/837 838/838
f 839/839 840/840 841/841
f 841/841 842/842 839/839
f 843/843 844/844 845/845
f 845/845 846/846 843/843
f 847/847 848/848 849/849
f 850/850 851/851 852/852
f 853/853 854/854 855/855
f 856/856 857/857 858/858
f 859/859 860/860 861/861
f 861/861 862/862 859/859
f 863/863 864/864 865/865
f 865/865 866/866 863/863
f 867/867 868/868 869/869
f 869/869 870/870 867/867
f 871/871 872/872 873/873
f 873/873 874/874 871/871
f 875/875 876/876 877/877
f 877/877 878/878 875/875
f 879/879 880/880 881/881
f 881/881 882/882 879/879
f 883/883 884/884 885/885
f 885/885 886/886 883/883
f 887/887 888/888 889/889
f 889/889 890/890 887/887
f 891/891 892/892 893/893
f 893/893 894/894 891/891
f 895/895 896/896 897/897
f 897/897 898/898 895/895
f 899/899 900/900 901/901
f 901/901 902/902 899/899
f 903/903 904/904 905/905
f 905/905 906/906 903/903
f 907/907 908/908 909/909
f 909/909 910/910 907/907
f 911/911 912/912 913/913
f 913/913 914/914 911/911
f 915/915 916/916 917/917
f 918/918 919/919 920/920
f 921/921 922/922 923/923
f 924/924 925/925 926/926
f 927/927 928/928 929/929
f 929/929 930/930 927/927
f 931/931 932/932 933/933
f 933/933 934/934 931/931
f 935/935 936/936 937/937
f 937/937 938/938 935/935
f 939/939 940/940 941/941
f 941/941 942/942 939/939
f 943/943 944/944 945/945
f 946/946 945/945 944/944
f 945/945 947/947 943/943
f 944/944 948/948 946/946
f 949/949 943/943 947/947
f 950/950 946/946 948/948
f 947/947 951/951 949/949
f 948/948 952/952 950/950
f 953/953 949/949 951/951
f 954/954 950/950 952/952
f 951/951 955/955 953/953
f 952/952 956/956 954/954
f 957/957 954/954 956/956
f 956/956 958/958 957/957
f 959/959 953/953 955/955
f 955/955 960/960 959/959
f 961/961 959/959 960/960
f 960/960 962/962 961/961
f 963/963 961/961 962/962
f 962/962 964/964 963/963
f 965/965 963/963 964/964
f 964/964 966/966 965/965
f 967/967 965/965 966/966
f 966/966 968/968 967/967
f 969/969 967/967 968/968
f 968/968 970/970 969/969
f 971/971 969/969 970/970
f 970/970 972/972 971/971
f 973/973 971/971 972/972
f 972/972 974/974 973/973
f 975/975 973/973 974/974
f 974/974 976/976 975/975
f 975/975 976/976 977/977
f 977/977 978/978 975/975
f 979/979 980/980 981/981
f 980/980 979/979 982/982
f 981/981 983/983 979/979
f 982/982 984/984 980/980
f 983/983 981/981 985/985
f 984/984 982/982 986/986
f 985/985 987/987 983/983
f 986/986 988/988 984/984
f 987/987 985/985 989/989
f 988/988 986/986 990/990
f 989/989 991/991 987/987
f 990/990 992/992 988/988
f 991/991 989/989 993/993
f 992/992 990/990 994/994
f 993/993 995/995 991/991
f 995/995 993/993 996/996
f 996/996 997/997 995/995
f 994/994 998/998 992/992
f 998/998 994/994 999/999
f 999/999 1000/1000 998/998
f 1000/1000 999/999 1001/1001
f 1001/1001 1002/1002 1000/1000
f 1002/1002 1001/1001 1003/1003
f 1003/1003 1004/1004 1002/1002
f 1004/1004 1003/1003 1005/1005
f 1005/1005 1006/1006 1004/1004
f 1006/1006 1005/1005 1007/1007
f 1007/1007 1008/1008 1006/1006
f 1008/1008 1007/1007 1009/1009
f 1009/1009 1010/1010 1008/1008
f 1010/1010 1009/1009 1011/1011
f 1011/1011 1012/1012 1010/1010
f 1013/1013 1012/1012 1011/1011
f 1011/1011 1014/1014 1013/1013
f 1015/1015 1016/1016 1017/1017
f 1017/1017 1018/1018 1015/1015
f 1019/1019 1020/1020 1021/1021
f 1021/1021 1022/1022 1019/1019
f 1023/1023 1024/1024 1025/1025
f 1025/1025 1026/1026 1023/1023
f 1027/1027 1028/1028 1029/1029
f 1029/1029 1030/1030 1027/1027
f 1031/1031 1032/1032 1033/1033
f 1033/1033 1034/1034 1031/1031
f 1035/1035 1036/1036 1037/1037
f 1037/1037 1038/1038 1035/1035
f 1039/1039 1040/1040 1041/1041
f 1041/1041 1042/1042 1039/1039
f 1043/1043 1044/1044 1045/1045
f 1045/1045 1046/1046 1043/1043
f 1047/1047 1048/1048 1049/1049
f 1049/1049 1050/1050 1047/1047
f 1051/1051 1052/1052 1053/1053
f 1053/1053 1054/1054 1051/1051
f 1055/1055 1056/1056 1057/1057
f 1057/1057 1058/1058 1055/1055
f 1059/1059 1060/1060 1061/1061
f 1061/1061 1062/1062 1059/1059
