v -0.0325733349 0.0383484736 0.0752895251
v -0.032742314 0.0398127809 0.0752862468
v -0.0328079388 0.039797999 0.0755362883
v -0.0332846567 0.0411301628 0.0755333081
v -0.0326408073 0.0383490101 0.075539507
v -0.0332240984 0.0411592498 0.0752832666
v -0.0329873487 0.0397565737 0.0757193938
v -0.0334500596 0.0410496369 0.0757165328
v -0.0328249857 0.0383494273 0.0757225528
v -0.0328079388 0.0397968665 0.0750363246
v -0.0326408073 0.0383479372 0.0750395432
v -0.032742314 0.0368841663 0.0752928033
v -0.0328079388 0.0368989483 0.0750427619
v -0.0328079388 0.0369000211 0.0755427256
v -0.0332240984 0.0355376974 0.0752957836
v -0.0332846567 0.0355667844 0.0750456825
v -0.0329873487 0.0369403735 0.0748596564
v -0.0334500596 0.0356473103 0.0748625174
v -0.0328249857 0.0383475199 0.0748564973
v -0.0336760208 0.0357576981 0.0747952834
v -0.033232443 0.0369974151 0.0747925416
v -0.034371905 0.0346637741 0.0747977272
v -0.0341756865 0.034506537 0.0748650208
v -0.0340320393 0.0343917981 0.0750483051
v -0.0351272151 0.0335550681 0.0748671666
v -0.0352845713 0.0337511078 0.0747997537
v -0.0345680639 0.0348212495 0.0748643652
v -0.0354419276 0.0339474455 0.0748662725
v -0.033901982 0.0358684435 0.0748620406
v -0.0355571434 0.0340914503 0.0750489607
v -0.0347117111 0.0349368826 0.075047113
v -0.0365700647 0.0334471241 0.0750503913
v -0.036489062 0.0332813039 0.0748677626
v -0.0363784954 0.0330552235 0.0748013034
v -0.0376754329 0.0328568593 0.0748687163
v -0.0377172753 0.0330366269 0.0750513449
v -0.0351272151 0.0431399718 0.0748458281
v -0.0341756865 0.0421884432 0.0748479739
v -0.034371905 0.0420309678 0.0747813359
v -0.0336760208 0.0409369841 0.0747837797
v -0.0375610515 0.0443283096 0.0748432055
v -0.038968198 0.0444906726 0.0748428479
v -0.038968198 0.0446752682 0.0750254765
v -0.0404171869 0.0445080772 0.0750258341
v -0.0362679288 0.0438655987 0.0748442188
v -0.0375192091 0.0445080772 0.0750258341
v -0.0361869857 0.0440314189 0.075026907
v -0.0350119993 0.0432839766 0.0750285164
v -0.0375038907 0.044574298 0.0752756968
v -0.0340320393 0.0423040763 0.0750307217
v -0.0334500596 0.0410477296 0.0748504773
v -0.038968198 0.0447432771 0.0752752796
v -0.038968198 0.0446764007 0.0755254403
v -0.0332846567 0.0411290899 0.0750333443
v -0.0404325053 0.044574298 0.0752756968
v -0.0404171273 0.0445092097 0.0755257979
v -0.0403752849 0.0443302169 0.075709261
v -0.0417789742 0.0440925136 0.0752767697
v -0.0417493507 0.0440325513 0.0755268708
v -0.0429243371 0.0432851091 0.0755285397
v -0.0416684076 0.0438675657 0.0757102743
v -0.041557841 0.0436417237 0.0757777467
v -0.0428091213 0.0431418791 0.0757118836
v -0.0437606499 0.0421903506 0.0757139698
v -0.042651765 0.0429458395 0.0757792965
v -0.0424944088 0.0427495018 0.0757127777
v -0.0435644314 0.0420331731 0.075781323
v -0.0442603156 0.0409392491 0.0757837668
v -0.0433682725 0.0418756381 0.075714685
v -0.0432246253 0.0417600647 0.0755319372
v -0.0440343544 0.0408285037 0.0757170096
v -0.0444588587 0.0396421924 0.0757196322
v -0.0438689515 0.0407471433 0.0755342022
v -0.0438083932 0.0407169834 0.0752842799
v -0.0442794487 0.0395999327 0.0755367652
v -0.0444238111 0.0383490101 0.075539507
v -0.044213824 0.0395840183 0.0752867833
v -0.0442794487 0.0395988002 0.0750367418
v -0.0443563387 0.0383484736 0.0752895251
v -0.044213824 0.0371128693 0.0752922669
v -0.0444238111 0.0383479372 0.0750395432
v -0.0446079895 0.0383475199 0.0748564973
v -0.0442794487 0.0370970145 0.075042285
v -0.0438689515 0.0359498039 0.075044848
v -0.0444588587 0.0370547548 0.0748593584
v -0.0447038934 0.0369974151 0.0747925416
v -0.0440343544 0.0358684435 0.0748620406
v -0.0433682725 0.0348212495 0.0748643652
v -0.0442603156 0.0357576981 0.0747952834
v -0.0444862768 0.0356473103 0.0748625174
v -0.0435644314 0.0346637741 0.0747977272
v -0.042651765 0.0337511078 0.0747997537
v -0.0437606499 0.034506537 0.0748650208
v -0.0439042971 0.0343917981 0.0750483051
v -0.0428091213 0.0335550681 0.0748671666
v -0.0416684076 0.0328293815 0.0748687759
v -0.0429243371 0.0334118381 0.0750505105
v -0.0429664776 0.0333598033 0.0753006116
v -0.0417493507 0.0326643959 0.0750521794
v -0.0404171273 0.0321877375 0.0750531927
v -0.0417789742 0.032604374 0.0753022805
v -0.0417493507 0.0326655284 0.0755521432
v -0.0404325053 0.0321225896 0.0753033534
v -0.038968198 0.0319536701 0.075303711
v -0.0404171273 0.0321888104 0.075553216
v -0.0403752849 0.0323686376 0.0757358447
v -0.038968198 0.032021679 0.0755535737
v -0.0375192091 0.0321888104 0.075553216
v -0.038968198 0.0322062746 0.0757362023
v -0.038968198 0.0324581042 0.0758026019
v -0.0375610515 0.0323686376 0.0757358447
v -0.0362679288 0.0328313485 0.0757347718
v -0.0376182124 0.0326138511 0.0758022442
v -0.0376754329 0.0328587666 0.0757347122
v -0.0363784954 0.0330574289 0.0758012906
v -0.0352845713 0.0337533131 0.0757997409
v -0.036489062 0.0332832113 0.0757338181
v -0.0365700647 0.0334482566 0.0755504146
v -0.0354419276 0.0339493528 0.075732328
v -0.0345680639 0.0348232165 0.075730361
v -0.0355571434 0.0340925828 0.0755489841
v -0.0355992839 0.0341446176 0.075298883
v -0.0347117111 0.034938015 0.0755470768
v -0.0340673849 0.0359508768 0.0755448714
v -0.0347642824 0.0349796191 0.0752970353
v -0.0341279432 0.0359799638 0.0752947703
v -0.033722572 0.0371128693 0.0752922669
v -0.0340673849 0.0359498039 0.075044848
v -0.0336568877 0.0370970145 0.075042285
v -0.0335125253 0.0383479372 0.0750395432
v -0.0334774777 0.0370547548 0.0748593584
v -0.0333283469 0.0383475199 0.0748564973
v -0.0334774777 0.0396402851 0.0748536363
v -0.0330766961 0.0383473411 0.0747895017
v -0.033232443 0.0396972671 0.0747865215
v -0.0329873487 0.0397546068 0.0748533979
v -0.0597844645 0.0108929668 0.0753505602
v -0.0595468208 0.00883291103 0.0753551498
v -0.0594811365 0.00884876586 0.0756051317
v -0.0597170517 0.0108923707 0.0751005784
v -0.0594811365 0.00884769298 0.0751051083
v -0.0588087365 0.00696841814 0.0751092806
v -0.0593017265 0.00888911821 0.0749220029
v -0.0595328137 0.0108920131 0.0749175325
v -0.0586433336 0.00704894401 0.0749261156
v -0.0577541515 0.00531063415 0.0751129761
v -0.0592811629 0.0108918343 0.0748505965
v -0.0590566918 0.00894615985 0.074854888
v -0.0590566918 0.0128375087 0.0748462453
v -0.0593017265 0.0128948484 0.0749131218
v -0.0594811365 0.0129371081 0.0750960484
v -0.0586433336 0.0147350226 0.074909009
v -0.0584173724 0.0146243367 0.0748422518
v -0.0588115975 0.012780467 0.0749133602
v -0.0581914112 0.0145138893 0.0749094859
v -0.0590295121 0.0108920131 0.0749175325
v -0.0580259487 0.0144333635 0.0750927106
v -0.0586322471 0.0127390418 0.0750964656
v -0.0570745394 0.0159290824 0.0750893727
v -0.057218127 0.0160438213 0.0749060884
v -0.0574143454 0.0162010584 0.0748387352
v -0.0559415147 0.0173204336 0.074903287
v -0.0558263585 0.0171772633 0.0750865713
v -0.0570219681 0.0158874784 0.0753394738
v -0.0557841584 0.0171252284 0.075336732
v -0.05796545 0.0144042764 0.075342752
v -0.0558263585 0.0171783362 0.0755865946
v -0.0570745394 0.0159301553 0.0755893961
v -0.0543306395 0.0181298051 0.0755844489
v -0.054301016 0.0180687103 0.0753345862
v -0.0543306395 0.0181286726 0.0750844851
v -0.0526209995 0.0186698232 0.0753332749
v -0.0526363179 0.0187360439 0.0755831376
v -0.0544115826 0.0182956252 0.0757671371
v -0.0526781604 0.0189158712 0.0757657662
v -0.0559415147 0.0173224006 0.0757692829
v -0.0527353808 0.0191610251 0.0758321658
v -0.0545221493 0.0185217056 0.0758335963
v -0.0507896468 0.0193855558 0.0758316889
v -0.0507896468 0.0191337261 0.0757652298
v -0.0507896468 0.0189491306 0.0755826607
v -0.0519109294 0.0263434444 0.0750661865
v -0.0534623191 0.0253565703 0.0750683919
v -0.0534919426 0.025417665 0.0753182545
v -0.0552350804 0.024793962 0.075319685
v -0.055219762 0.0247277413 0.0750698224
v -0.0519530699 0.0263965521 0.0753161088
v -0.0506162569 0.0276381169 0.0750633255
v -0.055219762 0.0247288737 0.0755697861
v -0.0534623191 0.0253577027 0.0755684152
v -0.0571351573 0.0245078597 0.0755703226
v -0.0571351573 0.0245747361 0.0753201619
v -0.0571351573 0.0245067272 0.0750702992
v -0.0551779196 0.024547914 0.0748871937
v -0.0590352342 0.024793962 0.075319685
v -0.0590505525 0.0247288141 0.0755697861
v -0.0571351573 0.024324039 0.0757537261
v -0.059092395 0.024549881 0.0757531896
v -0.0551779196 0.024549881 0.0757531896
v -0.0591496155 0.0243049655 0.0758207217
v -0.0571351573 0.0240725074 0.0758212581
v -0.0609995052 0.0249668751 0.0758192912
v -0.0608889386 0.0251926575 0.0757517591
v -0.0608079955 0.0253577027 0.0755684152
v -0.062474601 0.0262013469 0.0757495537
v -0.0626319572 0.0260053072 0.0758169666
v -0.0611101314 0.0247407351 0.0757527724
v -0.0627893135 0.0258089695 0.0757503882
v -0.0592067763 0.024059752 0.0757543221
v -0.0629045293 0.0256649051 0.0755677
v -0.0611910746 0.0245749149 0.0755701438
v -0.0643337294 0.0270941053 0.0755645409
v -0.0641900823 0.0272097383 0.0757472888
v -0.0639939234 0.0273672137 0.0758139268
v -0.0652582571 0.0288889203 0.0757435933
v -0.0654237196 0.02880756 0.0755607262
v -0.0643863007 0.0270513687 0.0753146186
v -0.0654842183 0.0287774 0.0753108039
v -0.0629466698 0.0256117973 0.0753178373
v -0.0654237196 0.0288064871 0.0750607625
v -0.0643337294 0.0270930324 0.0750645176
v -0.0661187097 0.0307488833 0.0750564113
v -0.0661843941 0.0307341013 0.0753064528
v -0.0661187097 0.0307499561 0.0755564347
v -0.0514810011 0.0399168506 0.0748530403
v -0.0500802323 0.0385160819 0.0748561397
v -0.0502764508 0.0383585468 0.0747895017
v -0.0492380187 0.0367261544 0.0747931376
v -0.0550635383 0.0416660681 0.0748491064
v -0.0571351573 0.0419050828 0.0748485699
v -0.0571351573 0.0420896783 0.0750311986
v -0.0592486188 0.0418458357 0.075031735
v -0.0531602427 0.0409850255 0.0748506561
v -0.0550216958 0.0418458357 0.075031735
v -0.0530792996 0.0411508456 0.0750332847
v -0.0513658449 0.0400608554 0.0750357285
v -0.0550063774 0.0419120565 0.0752815977
v -0.0499366447 0.0386316553 0.0750388876
v -0.0490120575 0.0368368402 0.0748598948
v -0.0571351573 0.0421576872 0.0752810612
v -0.0571351573 0.0420908108 0.0755312219
v -0.0488466546 0.0369182006 0.0750427023
v -0.0592639372 0.0419120565 0.0752815977
v -0.0592486188 0.0418469682 0.0755317584
v -0.0592067763 0.0416679755 0.0757151619
v -0.0612206981 0.0412119403 0.0752831474
v -0.0611910746 0.0411519185 0.0755333081
v -0.0629045293 0.0400619879 0.0755356923
v -0.0611101314 0.0409869328 0.075716652
v -0.0609995052 0.0407611504 0.075784184
v -0.0627893135 0.039918758 0.0757190362
v -0.0641900823 0.0385179892 0.0757221356
v -0.0626319572 0.0397227183 0.075786449
v -0.062474601 0.0395263806 0.0757199302
v -0.0639939234 0.0383607522 0.0757894889
v -0.0650323555 0.0367283598 0.0757931247
v -0.0637977049 0.0382032767 0.0757228509
v -0.0636540577 0.0380876437 0.075540103
v -0.0648063943 0.0366176143 0.0757263675
v -0.0654491708 0.0348210707 0.075730361
v -0.0646409318 0.036536254 0.0755435601
v -0.0645804331 0.036506094 0.0752936378
v -0.0652698204 0.034778811 0.0755474344
v -0.0654907748 0.0328634158 0.0755517259
v -0.0652041361 0.0347629562 0.0752975121
v -0.0652698204 0.0347777382 0.0750474706
v -0.065423362 0.0328628793 0.075301744
v -0.0652041361 0.0309628043 0.0753059164
v -0.0654907748 0.0328623429 0.0750517026
v -0.0656750128 0.0328619257 0.0748687163
v -0.0652698204 0.0309469495 0.0750559941
v -0.0646409318 0.0291895065 0.0750598684
v -0.0654491708 0.0309046898 0.0748730674
v -0.0656942651 0.0308473501 0.074806191
v -0.0648063943 0.0291081462 0.0748770609
v -0.0637977049 0.0275224838 0.0748805776
v -0.0650323555 0.0289974008 0.0748103037
v -0.0652582571 0.028887013 0.0748775378
v -0.0639939234 0.0273650084 0.0748139396
v -0.0626319572 0.0260030422 0.0748169795
v -0.0641900823 0.0272077713 0.0748812929
v -0.0627893135 0.0258070026 0.0748843923
v -0.0611101314 0.0247388277 0.0748867765
v -0.0629045293 0.0256638322 0.0750677362
v -0.0611910746 0.0245738421 0.0750701204
v -0.0592486188 0.0238787923 0.0750716701
v -0.0612206981 0.0245138202 0.0753202811
v -0.0592639372 0.023813704 0.0753218308
v -0.0571351573 0.0235680733 0.0753223673
v -0.0592486188 0.0238799248 0.0755716935
v -0.0571351573 0.0236360822 0.0755722299
v -0.0550216958 0.0238799248 0.0755716935
v -0.0571351573 0.0238207374 0.0757548586
v -0.0550635383 0.024059752 0.0757543221
v -0.0531602427 0.0247407351 0.0757527724
v -0.0551207587 0.0243049655 0.0758207217
v -0.0532708094 0.0249668751 0.0758192912
v -0.0516383573 0.0260053072 0.0758169666
v -0.053381376 0.0251926575 0.0757517591
v -0.0517957136 0.0262013469 0.0757495537
v -0.0504726097 0.0275244508 0.0757465735
v -0.0519109294 0.0263445769 0.0755662099
v -0.0506162569 0.0276391897 0.0755633488
v -0.0496293828 0.0291905794 0.0755598918
v -0.0506688282 0.0276807938 0.0753132477
v -0.0496899411 0.0292196665 0.0753097907
v -0.0490662381 0.0309628043 0.0753059164
v -0.0496293828 0.0291895065 0.0750598684
v -0.0494639799 0.0291081462 0.0748770609
v -0.0490005538 0.0309469495 0.0750559941
v -0.0487795398 0.0328623429 0.0750517026
v -0.0488211438 0.0309046898 0.0748730674
v -0.0485761091 0.0308473501 0.074806191
v -0.0485953018 0.0328619257 0.0748687163
v -0.0488211438 0.0348191634 0.0748643652
v -0.048343651 0.0328617468 0.0748017207
v -0.0480920002 0.0328619257 0.0748687163
v -0.0485761091 0.034876205 0.0747972503
v -0.0483310148 0.0349335447 0.0748641267
v -0.0481516048 0.0349758044 0.0750469938
v -0.0417948291 0.0108929668 0.0753505602
v -0.0420325324 0.0129530225 0.0753459707
v -0.0420982167 0.0129382405 0.0755960122
v -0.0427706167 0.0148175154 0.0755918398
v -0.0418623015 0.0108935032 0.0756005421
v -0.0427100584 0.0148466025 0.0753417984
v -0.0422775671 0.0128967557 0.0757791176
v -0.0429360196 0.0147369895 0.0757750049
v -0.0420464799 0.0108939204 0.075783588
v -0.0420982167 0.0129371081 0.0750960484
v -0.0418623015 0.0108923707 0.0751005784
v -0.0420325324 0.00883291103 0.0753551498
v -0.0420982167 0.00884769298 0.0751051083
v -0.0420982167 0.00884876586 0.0756051317
v -0.0427100584 0.00693933107 0.0753593817
v -0.0427706167 0.00696841814 0.0751092806
v -0.0422775671 0.00888911821 0.0749220029
v -0.0429360196 0.00704894401 0.0749261156
v -0.0420464799 0.0108920131 0.0749175325
v -0.0431619808 0.00715933181 0.0748588815
v -0.0425226614 0.00894615985 0.074854888
v -0.0441650078 0.00558261015 0.0748623982
v -0.0439687893 0.0054254327 0.0749296919
v -0.0438251421 0.00531063415 0.0751129761
v -0.0453230664 0.00407115556 0.0749327317
v -0.0454804227 0.00426719524 0.0748653188
v -0.0443611667 0.00574014522 0.0749290362
v -0.0456377789 0.00446353294 0.0749318376
v -0.043387942 0.00727007724 0.0749255791
v -0.0457529947 0.00460753776 0.0751145259
v -0.0445048138 0.00585571863 0.075111784
v -0.0472487137 0.00365612819 0.0751166716
v -0.0471677706 0.00349030807 0.0749339834
v -0.0470571443 0.00326416804 0.0748675242
v -0.0489011332 0.00287006213 0.0749354139
v -0.0489430353 0.00304988935 0.0751179829
v -0.0489011332 0.0189158712 0.0757657662
v -0.0488439724 0.0191610251 0.0758321658
v -0.0507896468 0.0196370278 0.0757641569
v -0.0487868115 0.0194059405 0.0757646337
v -0.0527925417 0.0194059405 0.0757646337
v -0.0487449691 0.0195849333 0.0755812302
v -0.0507896468 0.0198208485 0.0755806938
v -0.0468656346 0.0189125333 0.0755827203
v -0.0469465777 0.0187475476 0.0757661238
v -0.0470572039 0.0185217056 0.0758335963
v -0.0453230664 0.017714778 0.0757683888
v -0.0452079102 0.0178580079 0.0755851045
v -0.0468360111 0.0189724956 0.0753326192
v -0.0451657102 0.0179099832 0.0753349438
v -0.0487295911 0.0196500812 0.0753310695
v -0.0452079102 0.0178568754 0.0750850812
v -0.0468656346 0.0189114008 0.0750827566
v -0.0438251421 0.0164741669 0.0750881806
v -0.0437725708 0.0165168438 0.0753380433
v -0.0438251421 0.0164752398 0.0755881444
v -0.0427706167 0.0148163829 0.0750918165
v -0.0439687893 0.0163605008 0.0757714286
v -0.0454804227 0.0175187383 0.0758358613
v -0.0441650078 0.0162032638 0.0758387819
v -0.0431619808 0.0146265421 0.075842239
v -0.0471677706 0.0182956252 0.0757671371
v -0.0456377789 0.0173224006 0.0757692829
v -0.0443611667 0.0160457883 0.0757721439
v -0.0425226614 0.0128397737 0.0758462325
v -0.043387942 0.0145158563 0.0757755414
v -0.0489430353 0.0187360439 0.0755831376
v -0.0472487137 0.0181298051 0.0755844489
v -0.0507896468 0.0188811217 0.0753327981
v -0.0489583537 0.0186698232 0.0753332749
v -0.0457529947 0.0171783362 0.0755865946
v -0.0472783372 0.0180687103 0.0753345862
v -0.0445048138 0.0159301553 0.0755893961
v -0.0457951352 0.0171252284 0.075336732
v -0.0435533449 0.0144344959 0.0755926743
v -0.0445573851 0.0158874784 0.0753394738
v -0.0427676961 0.012782434 0.0757793561
v -0.0422981903 0.0108940396 0.0758505836
v -0.0422775671 0.00889102556 0.0757880583
v -0.0427706167 0.00696949102 0.075609304
v -0.0437725708 0.00526903011 0.0753630772
v -0.0452079102 0.0039279256 0.0751160756
v -0.0469465777 0.00303838565 0.0749349967
v -0.0488439724 0.00262484862 0.0748689547
v -0.0507896468 0.00265214755 0.0749358907
v -0.0507896468 0.00283680274 0.0751184598
v -0.0526363179 0.00304988935 0.0751179829
v -0.0526209995 0.00311611011 0.0753678456
v -0.054301016 0.00371722295 0.0753665343
v -0.0543306395 0.00365720107 0.0756166354
v -0.0558263585 0.00460867025 0.0756145492
v -0.0559415147 0.00446544029 0.0757978931
v -0.057218127 0.00574205257 0.0757950321
v -0.0574143454 0.00558487512 0.0758623853
v -0.0584173724 0.00716159679 0.0758588687
v -0.0586433336 0.00705085136 0.0757921115
v -0.0593017265 0.00889102556 0.0757880583
v -0.0597170517 0.0108935032 0.0756005421
v -0.0595468208 0.0129530225 0.0753459707
v -0.0588087365 0.0148163829 0.0750918165
v -0.0576105639 0.0163585339 0.0749053732
v -0.0560988709 0.0175164733 0.0748358145
v -0.0544115826 0.0182936583 0.0749010816
v -0.0526363179 0.0187349115 0.0750831142
v -0.0507896468 0.0189479981 0.0750826374
v -0.0526781604 0.0189139042 0.0748997107
v -0.0545221493 0.0185195003 0.0748336092
v -0.0562562272 0.0177128706 0.0749023929
v -0.0489430353 0.0187349115 0.0750831142
v -0.0507896468 0.0191318188 0.0748992339
v -0.0527353808 0.0191588197 0.0748321787
v -0.0546327159 0.0187455807 0.0749000683
v -0.0472487137 0.0181286726 0.0750844851
v -0.0489011332 0.0189139042 0.0748997107
v -0.0507896468 0.0193832908 0.0748317018
v -0.0527925417 0.0194040332 0.0748986378
v -0.0457529947 0.0171772633 0.0750865713
v -0.0471677706 0.0182936583 0.0749010816
v -0.0488439724 0.0191588197 0.0748321787
v -0.0507896468 0.0196351204 0.0748981014
v -0.0528343841 0.0195838604 0.0750812665
v -0.054713659 0.0189114008 0.0750827566
v -0.056371443 0.0178568754 0.0750850812
v -0.0577541515 0.0164741669 0.0750881806
v -0.0588692352 0.0148466025 0.0753417984
v -0.0578067228 0.0165168438 0.0753380433
v -0.0564135835 0.0179099832 0.0753349438
v -0.0547432825 0.0189724956 0.0753326192
v -0.0594811365 0.0129382405 0.0755960122
v -0.0588087365 0.0148175154 0.0755918398
v -0.0577541515 0.0164752398 0.0755881444
v -0.056371443 0.0178580079 0.0755851045
v -0.0595328137 0.0108939204 0.075783588
v -0.0593017265 0.0128967557 0.0757791176
v -0.0586433336 0.0147369895 0.0757750049
v -0.0576105639 0.0163605008 0.0757714286
v -0.0590566918 0.00894836523 0.0758548751
v -0.0592811629 0.0108940396 0.0758505836
v -0.0590566918 0.0128397737 0.0758462325
v -0.0584173724 0.0146265421 0.075842239
v -0.0581914112 0.00727198459 0.0757916346
v -0.0588115975 0.00900540687 0.0757877603
v -0.0590295121 0.0108939204 0.075783588
v -0.0588115975 0.012782434 0.0757793561
v -0.0570745394 0.00585685112 0.0756117478
v -0.0580259487 0.00735251047 0.0756084099
v -0.0586322471 0.0090468917 0.0756046548
v -0.0588452742 0.0108935032 0.0756005421
v -0.0557841584 0.0046607051 0.0753644481
v -0.0570219681 0.00589845516 0.0753616467
v -0.05796545 0.00738159753 0.0753583685
v -0.0585665628 0.00906161405 0.0753546134
v -0.0543306395 0.00365612819 0.0751166716
v -0.0558263585 0.00460753776 0.0751145259
v -0.0570745394 0.00585571863 0.075111784
v -0.0580259487 0.00735143758 0.0751084462
v -0.0526781604 0.00287006213 0.0749354139
v -0.0544115826 0.00349030807 0.0749339834
v -0.0559415147 0.00446353294 0.0749318376
v -0.057218127 0.00574014522 0.0749290362
v -0.0507896468 0.00240037753 0.0748694316
v -0.0527353808 0.00262484862 0.0748689547
v -0.0545221493 0.00326416804 0.0748675242
v -0.0560988709 0.00426719524 0.0748653188
v -0.0487868115 0.00237993314 0.0749364868
v -0.0507896468 0.00214884593 0.0749370232
v -0.0527925417 0.00237993314 0.0749364868
v -0.0546327159 0.00303838565 0.0749349967
v -0.0468656346 0.00287339999 0.0751184002
v -0.0487449095 0.00220094039 0.0751198903
v -0.0507896468 0.00196502521 0.0751204267
v -0.0528343841 0.00220094039 0.0751198903
v -0.0451657102 0.00387589051 0.0753661767
v -0.0468360111 0.00281337812 0.0753685609
v -0.0487295911 0.00213585212 0.075370051
v -0.0507896468 0.0018981488 0.0753705874
v -0.0438251421 0.00531176664 0.0756129995
v -0.0452079102 0.00392899849 0.0756160393
v -0.0468656346 0.00287447288 0.0756184235
v -0.0487449095 0.00220207288 0.0756199136
v -0.0429360196 0.00705085136 0.0757921115
v -0.0439687893 0.00542734005 0.0757957473
v -0.0453230664 0.00407306291 0.0757987276
v -0.0469465777 0.003040293 0.0758010522
v -0.0425226614 0.00894836523 0.0758548751
v -0.0431619808 0.00716159679 0.0758588687
v -0.0441650078 0.00558487512 0.0758623853
v -0.0454804227 0.00426940061 0.075865306
v -0.0425498411 0.0108939204 0.075783588
v -0.0427676961 0.00900540687 0.0757877603
v -0.043387942 0.00727198459 0.0757916346
v -0.0443611667 0.00574205257 0.0757950321
v -0.0429471061 0.0127401743 0.075596489
v -0.0427340791 0.0108935032 0.0756005421
v -0.0429471061 0.0090468917 0.0756046548
v -0.0435533449 0.00735251047 0.0756084099
v -0.0436139032 0.0144042764 0.075342752
v -0.0430127904 0.0127242599 0.0753465071
v -0.0428014919 0.0108929668 0.0753505602
v -0.0430127904 0.00906161405 0.0753546134
v -0.0445048138 0.0159290824 0.0750893727
v -0.0435533449 0.0144333635 0.0750927106
v -0.0429471061 0.0127390418 0.0750964656
v -0.0427340791 0.0108923707 0.0751005784
v -0.0456377789 0.0173204336 0.074903287
v -0.0443611667 0.0160438213 0.0749060884
v -0.043387942 0.0145138893 0.0749094859
v -0.0427676961 0.012780467 0.0749133602
v -0.0470572039 0.0185195003 0.0748336092
v -0.0454804227 0.0175164733 0.0748358145
v -0.0441650078 0.0162010584 0.0748387352
v -0.0431619808 0.0146243367 0.0748422518
v -0.0487868115 0.0194040332 0.0748986378
v -0.0469465777 0.0187455807 0.0749000683
v -0.0453230664 0.0177128706 0.0749023929
v -0.0551779196 0.0411778465 0.0757162347
v -0.0571351573 0.0414036885 0.0757157579
v -0.0571351573 0.0412190333 0.0755331293
v -0.0551207587 0.04142306 0.0757826939
v -0.0571351573 0.0416554585 0.0757821575
v -0.0591496155 0.04142306 0.0757826939
v -0.0571351573 0.0419069901 0.0757146254
v -0.0550635383 0.0416679755 0.0757151619
v -0.0550216958 0.0418469682 0.0755317584
v -0.0530792996 0.0411519185 0.0755333081
v -0.0531602427 0.0409869328 0.075716652
v -0.0532708094 0.0407611504 0.075784184
v -0.0514810011 0.039918758 0.0757190362
v -0.0513658449 0.0400619879 0.0755356923
v -0.0530496761 0.0412119403 0.0752831474
v -0.0513236448 0.0401139632 0.0752855912
v -0.0498840734 0.0386743918 0.0752888098
v -0.0499366447 0.0386327878 0.0755389109
v -0.0487860963 0.0369483605 0.0752926245
v -0.0488466546 0.036919333 0.0755427256
v -0.0500802323 0.0385179892 0.0757221356
v -0.0490120575 0.0368387476 0.0757258907
v -0.0516383573 0.0397227183 0.075786449
v -0.0502764508 0.0383607522 0.0757894889
v -0.0492380187 0.0367283598 0.0757931247
v -0.0483310148 0.034935452 0.0757301226
v -0.053381376 0.0405350104 0.0757176653
v -0.0517957136 0.0395263806 0.0757199302
v -0.0504726693 0.0382032767 0.0757228509
v -0.0485761091 0.0348784104 0.0757972375
v -0.0480920002 0.032863833 0.0757347122
v -0.0494639799 0.0366176143 0.0757263675
v -0.055219762 0.0409980193 0.0755336061
v -0.0534623191 0.0403691903 0.0755350366
v -0.0571351573 0.0411510244 0.0752832666
v -0.0590352342 0.0409317985 0.075283803
v -0.0552350804 0.0409317985 0.075283803
v -0.0519109294 0.0393823162 0.075537242
v -0.0534919426 0.0403080955 0.075285174
v -0.0506162569 0.0380877033 0.075540103
v -0.0519530699 0.0393292084 0.0752873197
v -0.0496293828 0.036536254 0.0755435601
v -0.0506688282 0.0380449668 0.0752901807
v -0.0488211438 0.0348210707 0.075730361
v -0.048343651 0.0328640118 0.0758017078
v -0.0483310148 0.0307922158 0.0757393613
v -0.0481516048 0.0307499561 0.0755564347
v -0.0488466546 0.02880756 0.0755607262
v -0.0487860963 0.0287774 0.0753108039
v -0.0498840734 0.0270513687 0.0753146186
v -0.0499366447 0.0270930324 0.0750645176
v -0.0513658449 0.0256637726 0.0750677362
v -0.0514810011 0.0258070026 0.0748843923
v -0.0531602427 0.0247388277 0.0748867765
v -0.0532708094 0.0249646697 0.074819304
v -0.0551207587 0.0243027005 0.0748207346
v -0.0571351573 0.0243221316 0.0748876706
v -0.0590505525 0.0247277413 0.0750698224
v -0.060778372 0.025417665 0.0753182545
v -0.0623593852 0.0263445769 0.0755662099
v -0.0637977049 0.0275244508 0.0757465735
v -0.0650323555 0.0289996658 0.0758102909
v -0.0659392998 0.0307922158 0.0757393613
v -0.0663625523 0.0328634158 0.0755517259
v -0.0664299652 0.0328628793 0.075301744
v -0.0661843941 0.0349916592 0.0752969757
v -0.0661187097 0.0349758044 0.0750469938
v -0.0654237196 0.0369182006 0.0750427023
v -0.0652582571 0.0368368402 0.0748598948
v -0.0641900823 0.0385160819 0.0748561397
v -0.0639939234 0.0383585468 0.0747895017
v -0.0626319572 0.0397204533 0.0747864619
v -0.062474601 0.0395244136 0.0748538747
v -0.0608889386 0.040533103 0.0748516694
v -0.0608079955 0.0403681174 0.0750350133
v -0.0590505525 0.0409969464 0.0750336424
v -0.0571351573 0.0412179008 0.0750331655
v -0.059092395 0.0411759391 0.0748502389
v -0.0609995052 0.0407588854 0.0747841373
v -0.0627893135 0.0399168506 0.0748530403
v -0.055219762 0.0409969464 0.0750336424
v -0.0571351573 0.0414017215 0.0748497024
v -0.0591496155 0.0414208546 0.0747827068
v -0.0611101314 0.0409850255 0.0748506561
v -0.0534623191 0.0403681174 0.0750350133
v -0.0551779196 0.0411759391 0.0748502389
v -0.0571351573 0.0416532531 0.0747821704
v -0.0592067763 0.0416660681 0.0748491064
v -0.0519109294 0.0393812433 0.0750372186
v -0.053381376 0.040533103 0.0748516694
v -0.0551207587 0.0414208546 0.0747827068
v -0.0611910746 0.0411508456 0.0750332847
v -0.0629045293 0.0400608554 0.0750357285
v -0.0643337294 0.0386316553 0.0750388876
v -0.0654842183 0.0369483605 0.0752926245
v -0.0643863007 0.0386743918 0.0752888098
v -0.0629466698 0.0401139632 0.0752855912
v -0.0661187097 0.0349768773 0.0755470172
v -0.0654237196 0.036919333 0.0755427256
v -0.0643337294 0.0386327878 0.0755389109
v -0.0661783144 0.032863833 0.0757347122
v -0.0659392998 0.034935452 0.0757301226
v -0.0652582571 0.0368387476 0.0757258907
v -0.0656942651 0.0308495555 0.0758061782
v -0.0659266636 0.0328640118 0.0758017078
v -0.0656942651 0.0348784104 0.0757972375
v -0.0648063943 0.0291100536 0.0757430568
v -0.0654491708 0.0309065972 0.0757390633
v -0.0656750128 0.032863833 0.0757347122
v -0.0636540577 0.0276391897 0.0755633488
v -0.0646409318 0.0291905794 0.0755598918
v -0.0652698204 0.030948082 0.0755559579
v -0.0623172447 0.0263965521 0.0753161088
v -0.0636014864 0.0276807938 0.0753132477
v -0.0645804331 0.0292196665 0.0753097907
v -0.0608079955 0.0253565703 0.0750683919
v -0.0623593852 0.0263434444 0.0750661865
v -0.0636540577 0.0276381169 0.0750633255
v -0.059092395 0.024547914 0.0748871937
v -0.0608889386 0.0251907501 0.0748857632
v -0.062474601 0.0261994395 0.0748834983
v -0.0571351573 0.024070302 0.074821271
v -0.0591496155 0.0243027005 0.0748207346
v -0.0609995052 0.0249646697 0.074819304
v -0.0550635383 0.024057785 0.0748882666
v -0.0571351573 0.0238187704 0.0748888031
v -0.0592067763 0.024057785 0.0748882666
v -0.0530792996 0.0245738421 0.0750701204
v -0.0550216958 0.0238787923 0.0750716701
v -0.0571351573 0.0236349497 0.0750722066
v -0.0513236448 0.0256117973 0.0753178373
v -0.0530496761 0.0245138202 0.0753202811
v -0.0550063774 0.023813704 0.0753218308
v -0.0499366447 0.0270941053 0.0755645409
v -0.0513658449 0.0256649051 0.0755677
v -0.0530792996 0.0245749149 0.0755701438
v -0.0490120575 0.0288889203 0.0757435933
v -0.0500802323 0.0272097383 0.0757472888
v -0.0514810011 0.0258089695 0.0757503882
v -0.0485761091 0.0308495555 0.0758061782
v -0.0492380187 0.0289996658 0.0758102909
v -0.0502764508 0.0273672137 0.0758139268
v -0.0485953018 0.032863833 0.0757347122
v -0.0488211438 0.0309065972 0.0757390633
v -0.0494639799 0.0291100536 0.0757430568
v -0.0490005538 0.034778811 0.0755474344
v -0.0487795398 0.0328634158 0.0755517259
v -0.0490005538 0.030948082 0.0755559579
v -0.0496899411 0.036506094 0.0752936378
v -0.0490662381 0.0347629562 0.0752975121
v -0.0488470122 0.0328628793 0.075301744
v -0.0506162569 0.0380865708 0.0750400797
v -0.0496293828 0.0365351811 0.0750435367
v -0.0490005538 0.0347777382 0.0750474706
v -0.0517957136 0.0395244136 0.0748538747
v -0.0504726693 0.0382013693 0.074856855
v -0.0494639799 0.036615707 0.0748603716
v -0.0532708094 0.0407588854 0.0747841373
v -0.0516383573 0.0397204533 0.0747864619
v -0.0478403494 0.0328628793 0.075301744
v -0.0480859801 0.0349916592 0.0752969757
v -0.0481516048 0.0349769369 0.0755470172
v -0.0479077622 0.0328634158 0.0755517259
v -0.0479077622 0.0328623429 0.0750517026
v -0.0480859801 0.0307341013 0.0753064528
v -0.0481516048 0.0307488833 0.0750564113
v -0.0488466546 0.0288064871 0.0750607625
v -0.0483310148 0.0307903085 0.0748733059
v -0.0490120575 0.028887013 0.0748775378
v -0.0492380187 0.0289974008 0.0748103037
v -0.0502764508 0.0273650084 0.0748139396
v -0.0500802323 0.0272077713 0.0748812929
v -0.0516383573 0.0260030422 0.0748169795
v -0.0504726097 0.0275224838 0.0748805776
v -0.0517957136 0.0261994395 0.0748834983
v -0.053381376 0.0251907501 0.0748857632
v -0.0365996882 0.0335082188 0.0753002539
v -0.0377325937 0.0331028476 0.0753012076
v -0.0377172753 0.0330377594 0.0755513087
v -0.038968198 0.0328933969 0.0755516663
v -0.038968198 0.0329602733 0.0753015056
v -0.038968198 0.032892324 0.075051643
v -0.0402037427 0.0331028476 0.0753012076
v -0.0402190611 0.0330377594 0.0755513087
v -0.038968198 0.0327095762 0.0757350698
v -0.0402609035 0.0328587666 0.0757347122
v -0.040318124 0.0326138511 0.0758022442
v -0.041557841 0.0330574289 0.0758012906
v -0.0414472744 0.0332832113 0.0757338181
v -0.0413663313 0.0334482566 0.0755504146
v -0.0424944088 0.0339493528 0.075732328
v -0.042651765 0.0337533131 0.0757997409
v -0.0416684076 0.0328313485 0.0757347718
v -0.0428091213 0.0335569754 0.0757331625
v -0.0429243371 0.033412911 0.0755504742
v -0.0439042971 0.034392871 0.0755483285
v -0.0437606499 0.034508504 0.0757310763
v -0.0435644314 0.0346659794 0.0757977143
v -0.0444862768 0.0356492177 0.0757285133
v -0.0446517393 0.0355678573 0.0755457059
v -0.0439568684 0.034350194 0.0752984062
v -0.044712238 0.0355376974 0.0752957836
v -0.0446517393 0.0355667844 0.0750456825
v -0.0451283976 0.0368989483 0.0750427619
v -0.0451940224 0.0368841663 0.0752928033
v -0.0451283976 0.0369000211 0.0755427256
v -0.0472783372 0.00371722295 0.0753665343
v -0.0489583537 0.00311611011 0.0753678456
v -0.0457951352 0.0046607051 0.0753644481
v -0.0489430353 0.00305096223 0.0756180063
v -0.0472487137 0.00365720107 0.0756166354
v -0.0507896468 0.00283793523 0.0756184831
v -0.0507896468 0.00290481164 0.0753683224
v -0.0526363179 0.00305096223 0.0756180063
v -0.0507896468 0.00265411451 0.0758018866
v -0.0526781604 0.00287196948 0.0758014098
v -0.0489011332 0.00287196948 0.0758014098
v -0.0527353808 0.002627054 0.0758689418
v -0.0507896468 0.0024025829 0.0758694187
v -0.0545221493 0.00326643302 0.0758675113
v -0.0544115826 0.00349221542 0.0758000389
v -0.0560988709 0.00426940061 0.075865306
v -0.0546327159 0.003040293 0.0758010522
v -0.0562562272 0.00407306291 0.0757987276
v -0.0527925417 0.00238184049 0.0758024827
v -0.056371443 0.00392899849 0.0756160393
v -0.054713659 0.00287447288 0.0756184235
v -0.0577541515 0.00531176664 0.0756129995
v -0.0576105639 0.00542734005 0.0757957473
v -0.0588087365 0.00696949102 0.075609304
v -0.0578067228 0.00526903011 0.0753630772
v -0.0588692352 0.00693933107 0.0753593817
v -0.0564135835 0.00387589051 0.0753661767
v -0.0376754329 0.043840088 0.0757103339
v -0.038968198 0.0439892784 0.0757099763
v -0.038968198 0.0438046232 0.0755274072
v -0.0376182124 0.0440853015 0.0757767931
v -0.038968198 0.0442410484 0.0757764354
v -0.040318124 0.0440853015 0.0757767931
v -0.038968198 0.04449258 0.0757088438
v -0.0375610515 0.0443302169 0.075709261
v -0.0375192091 0.0445092097 0.0755257979
v -0.0361869857 0.0440325513 0.0755268708
v -0.0362679288 0.0438675657 0.0757102743
v -0.0363784954 0.0436417237 0.0757777467
v -0.0351272151 0.0431418791 0.0757118836
v -0.0350119993 0.0432851091 0.0755285397
v -0.0361573622 0.0440925136 0.0752767697
v -0.0349698588 0.043337144 0.0752784386
v -0.033979468 0.0423467532 0.075280644
v -0.0340320393 0.0423051491 0.0755307451
v -0.0341756865 0.0421903506 0.0757139698
v -0.0352845713 0.0429458395 0.0757792965
v -0.034371905 0.0420331731 0.075781323
v -0.0336760208 0.0409392491 0.0757837668
v -0.0364891216 0.0434156433 0.0757112876
v -0.0354419276 0.0427495018 0.0757127777
v -0.0345680639 0.0418756381 0.075714685
v -0.033232443 0.0396995321 0.0757865086
v -0.033901982 0.0408285037 0.0757170096
v -0.0377172753 0.0436603203 0.0755277053
v -0.0365700647 0.0432498232 0.0755285993
v -0.038968198 0.0437366143 0.0752775446
v -0.0402037427 0.0435940996 0.0752778426
v -0.0377325937 0.0435940996 0.0752778426
v -0.0355571434 0.0426054969 0.0755300298
v -0.0365996882 0.0431887284 0.0752787367
v -0.0347117111 0.0417600647 0.0755319372
v -0.0355992839 0.0425523296 0.0752801672
v -0.0340673849 0.0407471433 0.0755342022
v -0.0347642824 0.0417173281 0.0752820149
v -0.0334774777 0.0396421924 0.0757196322
v -0.0330766961 0.0383496061 0.0757894889
v -0.0329873487 0.0369423404 0.0757256523
v -0.0332846567 0.0355678573 0.0755457059
v -0.033979468 0.034350194 0.0752984062
v -0.0350119993 0.0334118381 0.0750505105
v -0.0362679288 0.0328293815 0.0748687759
v -0.0376182124 0.0326116458 0.0748022571
v -0.038968198 0.0327076688 0.0748690739
v -0.0402190611 0.0330366269 0.0750513449
v -0.0413366482 0.0335082188 0.0753002539
v -0.042379193 0.0340925828 0.0755489841
v -0.0433682725 0.0348232165 0.075730361
v -0.0442603156 0.0357599631 0.0757952705
v -0.0449489877 0.0369422808 0.0757256523
v -0.0452955291 0.0383490101 0.075539507
v -0.0453630015 0.0383484736 0.0752895251
v -0.0451940224 0.0398127809 0.0752862468
v -0.0451283976 0.0397968665 0.0750363246
v -0.0446517393 0.0411290899 0.0750333443
v -0.0444862768 0.0410477296 0.0748504773
v -0.0437606499 0.0421884432 0.0748479739
v -0.0435644314 0.0420309678 0.0747813359
v -0.042651765 0.0429436341 0.0747793093
v -0.0424944088 0.0427475944 0.0748467222
v -0.0414472744 0.0434136763 0.0748452321
v -0.0413663313 0.0432486907 0.0750286356
v -0.0402190611 0.0436591879 0.0750276819
v -0.038968198 0.0438034907 0.0750273839
v -0.0402609035 0.0438381806 0.0748442784
v -0.041557841 0.0436395183 0.0747777596
v -0.0428091213 0.0431399718 0.0748458281
v -0.0377172753 0.0436591879 0.0750276819
v -0.038968198 0.0439873114 0.0748439804
v -0.040318124 0.0440830961 0.0747767463
v -0.0416684076 0.0438655987 0.0748442188
v -0.0365700647 0.0432486907 0.0750286356
v -0.0376754329 0.0438381806 0.0748442784
v -0.038968198 0.044238843 0.0747764483
v -0.0403752849 0.0443283096 0.0748432055
v -0.0355571434 0.0426043645 0.0750300661
v -0.0364891216 0.0434136763 0.0748452321
v -0.0376182124 0.0440830961 0.0747767463
v -0.0417493507 0.0440314189 0.075026907
v -0.0429243371 0.0432839766 0.0750285164
v -0.0439042971 0.0423040763 0.0750307217
v -0.044712238 0.0411592498 0.0752832666
v -0.0439568684 0.0423467532 0.075280644
v -0.0429664776 0.043337144 0.0752784386
v -0.0451283976 0.039797999 0.0755362883
v -0.0446517393 0.0411301628 0.0755333081
v -0.0439042971 0.0423051491 0.0755307451
v -0.0451113507 0.0383494273 0.0757225528
v -0.0449489877 0.0397565737 0.0757193938
v -0.0444862768 0.0410496369 0.0757165328
v -0.0447038934 0.0369996205 0.0757925287
v -0.0448596999 0.0383496061 0.0757894889
v -0.0447038934 0.0396995321 0.0757865086
v -0.0440343544 0.0358703509 0.0757280365
v -0.0444588587 0.0370566621 0.0757254139
v -0.0446079895 0.0383494273 0.0757225528
v -0.0432246253 0.0349379554 0.0755470768
v -0.0438689515 0.0359508768 0.0755448714
v -0.0442794487 0.037098147 0.0755423084
v -0.0423370525 0.0341446176 0.075298883
v -0.043172054 0.0349796191 0.0752970353
v -0.0438083932 0.0359799638 0.0752947703
v -0.0413663313 0.0334471241 0.0750503913
v -0.042379193 0.0340914503 0.0750489607
v -0.0432246253 0.0349368826 0.075047113
v -0.0402609035 0.0328568593 0.0748687163
v -0.0414472744 0.0332813039 0.0748677626
v -0.0424944088 0.0339474455 0.0748662725
v -0.038968198 0.0324558988 0.0748026147
v -0.040318124 0.0326116458 0.0748022571
v -0.041557841 0.0330552235 0.0748013034
v -0.0375610515 0.0323667303 0.0748697892
v -0.038968198 0.0322043672 0.0748701468
v -0.0403752849 0.0323667303 0.0748697892
v -0.0361869857 0.0326643959 0.0750521794
v -0.0375192091 0.0321877375 0.0750531927
v -0.038968198 0.0320205465 0.0750536099
v -0.0349698588 0.0333598033 0.0753006116
v -0.0361573622 0.032604374 0.0753022805
v -0.0375038311 0.0321225896 0.0753033534
v -0.0340320393 0.034392871 0.0755483285
v -0.0350119993 0.033412911 0.0755504742
v -0.0361869857 0.0326655284 0.0755521432
v -0.0334500596 0.0356492177 0.0757285133
v -0.0341756865 0.034508504 0.0757310763
v -0.0351272151 0.0335569754 0.0757331625
v -0.033232443 0.0369996205 0.0757925287
v -0.0336760208 0.0357599631 0.0757952705
v -0.034371905 0.0346659794 0.0757977143
v -0.0333283469 0.0383494273 0.0757225528
v -0.0334774777 0.0370566621 0.0757254139
v -0.033901982 0.0358703509 0.0757280365
v -0.0336568877 0.0395999327 0.0755367652
v -0.0335125253 0.0383490101 0.075539507
v -0.0336568877 0.037098147 0.0755423084
v -0.0341279432 0.0407169834 0.0752842799
v -0.033722572 0.0395840183 0.0752867833
v -0.0335799977 0.0383484736 0.0752895251
v -0.0347117111 0.0417589322 0.0750319138
v -0.0340673849 0.0407460704 0.0750341788
v -0.0336568877 0.0395988002 0.0750367418
v -0.0354419276 0.0427475944 0.0748467222
v -0.0345680639 0.0418737307 0.0748486891
v -0.033901982 0.0408265963 0.0748510137
v -0.0363784954 0.0436395183 0.0747777596
v -0.0352845713 0.0429436341 0.0747793093
v -0.0452955291 0.0383479372 0.0750395432
v -0.0449489877 0.0369403735 0.0748596564
v -0.0451113507 0.0383475199 0.0748564973
v -0.0448596999 0.0383473411 0.0747895017
v -0.0447038934 0.0396972671 0.0747865215
v -0.0449489877 0.0397546068 0.0748533979
v -0.0442603156 0.0409369841 0.0747837797
v -0.0444588587 0.0396402851 0.0748536363
v -0.0440343544 0.0408265963 0.0748510137
v -0.0438689515 0.0407460704 0.0750341788
v -0.0432246253 0.0417589322 0.0750319138
v -0.0433682725 0.0418737307 0.0748486891
v -0.0423792526 0.0426043645 0.0750300661
v -0.043172054 0.0417173281 0.0752820149
v -0.0423370525 0.0425523296 0.0752801672
v -0.0423792526 0.0426054969 0.0755300298
v -0.0413663313 0.0432498232 0.0755285993
v -0.0413366482 0.0431887284 0.0752787367
v -0.0402190611 0.0436603203 0.0755277053
v -0.0414472744 0.0434156433 0.0757112876
v -0.0402609035 0.043840088 0.0757103339
v -0.0663625523 0.0328623429 0.0750517026
v -0.0659392998 0.0307903085 0.0748733059
v -0.0661783144 0.0328619257 0.0748687163
v -0.0659266636 0.0328617468 0.0748017207
v -0.0656942651 0.034876205 0.0747972503
v -0.0659392998 0.0349335447 0.0748641267
v -0.0650323555 0.0367260948 0.0747931376
v -0.0654491708 0.0348191634 0.0748643652
v -0.0648063943 0.036615707 0.0748603716
v -0.0646409318 0.0365351811 0.0750435367
v -0.0636540577 0.0380865708 0.0750400797
v -0.0637977049 0.0382013693 0.074856855
v -0.0623594448 0.0393812433 0.0750372186
v -0.0636014864 0.0380449668 0.0752901807
v -0.0623172447 0.0393292084 0.0752873197
v -0.0623594448 0.0393823162 0.075537242
v -0.0608079955 0.0403691903 0.0755350366
v -0.060778372 0.0403080955 0.075285174
v -0.0590505525 0.0409980193 0.0755336061
v -0.0608889386 0.0405350104 0.0757176653
v -0.059092395 0.0411778465 0.0757162347
v -0.0439687893 0.0163585339 0.0749053732
v -0.0507896468 0.0198197756 0.07508073
v -0.0487449691 0.0195838604 0.0750812665
v -0.0429360196 0.0147350226 0.074909009
v -0.0507896468 0.0198877249 0.0753305927
v -0.0528497025 0.0196500812 0.0753310695
v -0.0528343841 0.0195849333 0.0755812302
v -0.054713659 0.0189125333 0.0755827203
v -0.0546327159 0.0187475476 0.0757661238
v -0.0562562272 0.017714778 0.0757683888
v -0.0560988709 0.0175187383 0.0758358613
v -0.0574143454 0.0162032638 0.0758387819
v -0.057218127 0.0160457883 0.0757721439
v -0.0581914112 0.0145158563 0.0757755414
v -0.0580259487 0.0144344959 0.0755926743
v -0.0586322471 0.0127401743 0.075596489
v -0.0585665628 0.0127242599 0.0753465071
v -0.0587778613 0.0108929668 0.0753505602
v -0.0588452742 0.0108923707 0.0751005784
v -0.0586322471 0.00904575922 0.0751046911
v -0.0588115975 0.00900349952 0.0749217644
v -0.0581914112 0.00727007724 0.0749255791
v -0.0584173724 0.00715933181 0.0748588815
v -0.0574143454 0.00558261015 0.0748623982
v -0.0576105639 0.0054254327 0.0749296919
v -0.0562562272 0.00407115556 0.0749327317
v -0.056371443 0.0039279256 0.0751160756
v -0.054713659 0.00287339999 0.0751184002
v -0.0547432825 0.00281337812 0.0753685609
v -0.0528497025 0.00213585212 0.075370051
v -0.0528343841 0.00220207288 0.0756199136
v -0.0507896468 0.0019661577 0.0756203905
v -0.0507896468 0.00215075328 0.0758030191
v -0.0487868115 0.00238184049 0.0758024827
v -0.0488439724 0.002627054 0.0758689418
v -0.0470571443 0.00326643302 0.0758675113
v -0.0471677706 0.00349221542 0.0758000389
v -0.0456377789 0.00446544029 0.0757978931
v -0.0457529947 0.00460867025 0.0756145492
v -0.0445048138 0.00585685112 0.0756117478
v -0.0445573851 0.00589845516 0.0753616467
v -0.0436139032 0.00738159753 0.0753583685
v -0.0435533449 0.00735143758 0.0751084462
v -0.0429471061 0.00904575922 0.0751046911
v -0.0427676961 0.00900349952 0.0749217644
v -0.0425498411 0.0108920131 0.0749175325
v -0.0422981903 0.0108918343 0.0748505965
v -0.0425226614 0.0128375087 0.0748462453
v -0.0422775671 0.0128948484 0.0749131218
f 1 2 3
f 1 2 3
f 4 3 2
f 4 3 2
f 3 5 1
f 3 5 1
f 2 6 4
f 2 6 4
f 5 3 7
f 5 3 7
f 8 7 3
f 3 4 8
f 8 7 3
f 3 4 8
f 7 9 5
f 7 9 5
f 6 2 10
f 6 2 10
f 2 1 11
f 2 1 11
f 11 10 2
f 11 10 2
f 12 1 5
f 12 1 5
f 13 11 1
f 1 12 13
f 13 11 1
f 1 12 13
f 14 5 9
f 5 14 12
f 14 5 9
f 5 14 12
f 15 12 14
f 15 12 14
f 16 13 12
f 12 15 16
f 16 13 12
f 12 15 16
f 11 13 17
f 11 13 17
f 18 17 13
f 13 16 18
f 18 17 13
f 13 16 18
f 17 19 11
f 17 19 11
f 10 11 19
f 10 11 19
f 17 18 20
f 17 18 20
f 20 21 17
f 19 17 21
f 20 21 17
f 19 17 21
f 22 20 18
f 22 20 18
f 23 18 16
f 18 23 22
f 23 18 16
f 18 23 22
f 16 24 23
f 16 24 23
f 24 16 15
f 24 16 15
f 25 23 24
f 25 23 24
f 26 22 23
f 23 25 26
f 26 22 23
f 23 25 26
f 20 22 27
f 20 22 27
f 28 27 22
f 22 26 28
f 28 27 22
f 22 26 28
f 27 29 20
f 27 29 20
f 21 20 29
f 21 20 29
f 27 28 30
f 27 28 30
f 30 31 27
f 29 27 31
f 30 31 27
f 29 27 31
f 32 30 28
f 32 30 28
f 33 28 26
f 28 33 32
f 33 28 26
f 28 33 32
f 26 34 33
f 26 34 33
f 34 26 25
f 34 26 25
f 35 33 34
f 35 33 34
f 36 32 33
f 33 35 36
f 36 32 33
f 33 35 36
f 37 38 39
f 37 38 39
f 40 39 38
f 40 39 38
f 41 42 43
f 41 42 43
f 44 43 42
f 44 43 42
f 45 41 46
f 43 46 41
f 45 41 46
f 43 46 41
f 37 45 47
f 46 47 45
f 37 45 47
f 46 47 45
f 47 48 37
f 47 48 37
f 38 37 48
f 38 37 48
f 47 46 49
f 47 46 49
f 48 50 38
f 48 50 38
f 51 38 50
f 51 38 50
f 38 51 40
f 38 51 40
f 52 49 46
f 52 49 46
f 46 43 52
f 46 43 52
f 49 52 53
f 49 52 53
f 50 54 51
f 50 54 51
f 55 52 43
f 55 52 43
f 43 44 55
f 43 44 55
f 56 53 52
f 56 53 52
f 52 55 56
f 52 55 56
f 53 56 57
f 53 56 57
f 58 55 44
f 58 55 44
f 55 58 59
f 55 58 59
f 59 56 55
f 59 56 55
f 60 59 58
f 60 59 58
f 61 57 56
f 61 57 56
f 56 59 61
f 56 59 61
f 57 61 62
f 57 61 62
f 59 60 63
f 59 60 63
f 63 61 59
f 63 61 59
f 64 63 60
f 64 63 60
f 65 62 61
f 65 62 61
f 61 63 65
f 61 63 65
f 62 65 66
f 62 65 66
f 63 64 67
f 63 64 67
f 67 65 63
f 67 65 63
f 68 67 64
f 68 67 64
f 69 66 65
f 69 66 65
f 65 67 69
f 65 67 69
f 66 69 70
f 66 69 70
f 67 68 71
f 67 68 71
f 71 69 67
f 71 69 67
f 72 71 68
f 72 71 68
f 73 70 69
f 73 70 69
f 69 71 73
f 69 71 73
f 70 73 74
f 70 73 74
f 71 72 75
f 71 72 75
f 75 73 71
f 75 73 71
f 76 75 72
f 76 75 72
f 77 74 73
f 77 74 73
f 73 75 77
f 73 75 77
f 74 77 78
f 74 77 78
f 75 76 79
f 75 76 79
f 79 77 75
f 79 77 75
f 80 79 76
f 80 79 76
f 81 78 77
f 81 78 77
f 77 79 81
f 77 79 81
f 78 81 82
f 78 81 82
f 79 80 83
f 79 80 83
f 83 81 79
f 83 81 79
f 84 83 80
f 84 83 80
f 85 82 81
f 85 82 81
f 81 83 85
f 81 83 85
f 82 85 86
f 82 85 86
f 83 84 87
f 83 84 87
f 87 85 83
f 87 85 83
f 88 87 84
f 88 87 84
f 89 86 85
f 89 86 85
f 85 87 89
f 85 87 89
f 86 89 90
f 86 89 90
f 87 88 91
f 87 88 91
f 91 89 87
f 91 89 87
f 92 91 88
f 92 91 88
f 93 90 89
f 93 90 89
f 89 91 93
f 89 91 93
f 90 93 94
f 90 93 94
f 91 92 95
f 91 92 95
f 95 93 91
f 95 93 91
f 96 95 92
f 96 95 92
f 97 94 93
f 97 94 93
f 93 95 97
f 93 95 97
f 94 97 98
f 94 97 98
f 95 96 99
f 95 96 99
f 99 97 95
f 99 97 95
f 100 99 96
f 100 99 96
f 101 98 97
f 101 98 97
f 97 99 101
f 97 99 101
f 98 101 102
f 98 101 102
f 99 100 103
f 99 100 103
f 103 101 99
f 103 101 99
f 104 103 100
f 104 103 100
f 105 102 101
f 105 102 101
f 101 103 105
f 101 103 105
f 102 105 106
f 102 105 106
f 103 104 107
f 103 104 107
f 107 105 103
f 107 105 103
f 108 107 104
f 108 107 104
f 109 106 105
f 109 106 105
f 105 107 109
f 105 107 109
f 106 109 110
f 106 109 110
f 107 108 111
f 107 108 111
f 111 109 107
f 111 109 107
f 112 111 108
f 112 111 108
f 113 110 109
f 113 110 109
f 109 111 113
f 109 111 113
f 110 113 114
f 110 113 114
f 111 112 115
f 111 112 115
f 115 113 111
f 115 113 111
f 116 115 112
f 116 115 112
f 117 114 113
f 117 114 113
f 113 115 117
f 113 115 117
f 114 117 118
f 114 117 118
f 115 116 119
f 115 116 119
f 119 117 115
f 119 117 115
f 120 119 116
f 120 119 116
f 121 118 117
f 121 118 117
f 117 119 121
f 117 119 121
f 118 121 122
f 118 121 122
f 119 120 123
f 119 120 123
f 123 121 119
f 123 121 119
f 124 123 120
f 124 123 120
f 125 122 121
f 125 122 121
f 121 123 125
f 121 123 125
f 122 125 31
f 122 125 31
f 123 124 126
f 123 124 126
f 126 125 123
f 126 125 123
f 127 126 124
f 127 126 124
f 128 31 125
f 128 31 125
f 125 126 128
f 125 126 128
f 31 128 29
f 31 128 29
f 126 127 129
f 126 127 129
f 129 128 126
f 129 128 126
f 130 129 127
f 130 129 127
f 131 29 128
f 131 29 128
f 128 129 131
f 128 129 131
f 29 131 21
f 29 131 21
f 129 130 132
f 129 130 132
f 132 131 129
f 132 131 129
f 133 132 130
f 133 132 130
f 134 21 131
f 134 21 131
f 131 132 134
f 131 132 134
f 21 134 19
f 21 134 19
f 132 133 135
f 132 133 135
f 135 134 132
f 135 134 132
f 40 135 133
f 40 135 133
f 136 19 134
f 136 19 134
f 134 135 136
f 134 135 136
f 19 136 10
f 19 136 10
f 54 10 136
f 54 10 136
f 135 40 51
f 135 40 51
f 136 51 54
f 136 51 54
f 51 136 135
f 51 136 135
f 137 138 139
f 137 138 139
f 140 141 138
f 138 137 140
f 140 141 138
f 138 137 140
f 142 141 143
f 142 141 143
f 144 143 141
f 141 140 144
f 144 143 141
f 141 140 144
f 143 145 142
f 143 145 142
f 146 142 145
f 146 142 145
f 143 144 147
f 143 144 147
f 147 148 143
f 145 143 148
f 147 148 143
f 145 143 148
f 149 147 144
f 149 147 144
f 150 144 140
f 144 150 149
f 150 144 140
f 144 150 149
f 140 151 150
f 140 151 150
f 151 140 137
f 151 140 137
f 152 150 151
f 152 150 151
f 153 149 150
f 150 152 153
f 153 149 150
f 150 152 153
f 147 149 154
f 147 149 154
f 155 154 149
f 149 153 155
f 155 154 149
f 149 153 155
f 154 156 147
f 154 156 147
f 148 147 156
f 148 147 156
f 154 155 157
f 154 155 157
f 157 158 154
f 156 154 158
f 157 158 154
f 156 154 158
f 159 157 155
f 159 157 155
f 160 155 153
f 155 160 159
f 160 155 153
f 155 160 159
f 153 161 160
f 153 161 160
f 161 153 152
f 161 153 152
f 162 160 161
f 162 160 161
f 163 159 160
f 160 162 163
f 163 159 160
f 160 162 163
f 157 159 164
f 157 159 164
f 165 164 159
f 159 163 165
f 165 164 159
f 159 163 165
f 164 166 157
f 164 166 157
f 158 157 166
f 158 157 166
f 164 165 167
f 164 165 167
f 167 168 164
f 166 164 168
f 167 168 164
f 166 164 168
f 169 167 165
f 169 167 165
f 170 165 163
f 165 170 169
f 170 165 163
f 165 170 169
f 163 171 170
f 163 171 170
f 171 163 162
f 171 163 162
f 172 170 171
f 172 170 171
f 173 169 170
f 170 172 173
f 173 169 170
f 170 172 173
f 167 169 174
f 167 169 174
f 175 174 169
f 169 173 175
f 175 174 169
f 169 173 175
f 174 176 167
f 174 176 167
f 168 167 176
f 168 167 176
f 174 175 177
f 174 175 177
f 177 178 174
f 176 174 178
f 177 178 174
f 176 174 178
f 179 177 175
f 179 177 175
f 180 175 173
f 175 180 179
f 180 175 173
f 175 180 179
f 173 181 180
f 173 181 180
f 181 173 172
f 181 173 172
f 182 183 184
f 182 183 184
f 185 184 183
f 183 186 185
f 185 184 183
f 183 186 185
f 184 187 182
f 184 187 182
f 188 182 187
f 188 182 187
f 184 185 189
f 184 185 189
f 189 190 184
f 187 184 190
f 189 190 184
f 187 184 190
f 191 189 185
f 191 189 185
f 192 185 186
f 185 192 191
f 192 185 186
f 185 192 191
f 186 193 192
f 186 193 192
f 193 186 194
f 193 186 194
f 195 192 193
f 195 192 193
f 196 191 192
f 192 195 196
f 196 191 192
f 192 195 196
f 189 191 197
f 189 191 197
f 198 197 191
f 191 196 198
f 198 197 191
f 191 196 198
f 197 199 189
f 197 199 189
f 190 189 199
f 190 189 199
f 197 198 200
f 197 198 200
f 200 201 197
f 199 197 201
f 200 201 197
f 199 197 201
f 202 200 198
f 202 200 198
f 203 198 196
f 198 203 202
f 203 198 196
f 198 203 202
f 196 204 203
f 196 204 203
f 204 196 195
f 204 196 195
f 205 203 204
f 205 203 204
f 206 202 203
f 203 205 206
f 206 202 203
f 203 205 206
f 200 202 207
f 200 202 207
f 208 207 202
f 202 206 208
f 208 207 202
f 202 206 208
f 207 209 200
f 207 209 200
f 201 200 209
f 201 200 209
f 207 208 210
f 207 208 210
f 210 211 207
f 209 207 211
f 210 211 207
f 209 207 211
f 212 210 208
f 212 210 208
f 213 208 206
f 208 213 212
f 213 208 206
f 208 213 212
f 206 214 213
f 206 214 213
f 214 206 205
f 214 206 205
f 215 213 214
f 215 213 214
f 216 212 213
f 213 215 216
f 216 212 213
f 213 215 216
f 210 212 217
f 210 212 217
f 218 217 212
f 212 216 218
f 218 217 212
f 212 216 218
f 217 219 210
f 217 219 210
f 211 210 219
f 211 210 219
f 217 218 220
f 217 218 220
f 220 221 217
f 219 217 221
f 220 221 217
f 219 217 221
f 222 220 218
f 222 220 218
f 223 218 216
f 218 223 222
f 223 218 216
f 218 223 222
f 216 224 223
f 216 224 223
f 224 216 215
f 224 216 215
f 225 226 227
f 225 226 227
f 228 227 226
f 228 227 226
f 229 230 231
f 229 230 231
f 232 231 230
f 232 231 230
f 233 229 234
f 231 234 229
f 233 229 234
f 231 234 229
f 225 233 235
f 234 235 233
f 225 233 235
f 234 235 233
f 235 236 225
f 235 236 225
f 226 225 236
f 226 225 236
f 235 234 237
f 235 234 237
f 236 238 226
f 236 238 226
f 239 226 238
f 239 226 238
f 226 239 228
f 226 239 228
f 240 237 234
f 240 237 234
f 234 231 240
f 234 231 240
f 237 240 241
f 237 240 241
f 238 242 239
f 238 242 239
f 243 240 231
f 243 240 231
f 231 232 243
f 231 232 243
f 244 241 240
f 244 241 240
f 240 243 244
f 240 243 244
f 241 244 245
f 241 244 245
f 246 243 232
f 246 243 232
f 243 246 247
f 243 246 247
f 247 244 243
f 247 244 243
f 248 247 246
f 248 247 246
f 249 245 244
f 249 245 244
f 244 247 249
f 244 247 249
f 245 249 250
f 245 249 250
f 247 248 251
f 247 248 251
f 251 249 247
f 251 249 247
f 252 251 248
f 252 251 248
f 253 250 249
f 253 250 249
f 249 251 253
f 249 251 253
f 250 253 254
f 250 253 254
f 251 252 255
f 251 252 255
f 255 253 251
f 255 253 251
f 256 255 252
f 256 255 252
f 257 254 253
f 257 254 253
f 253 255 257
f 253 255 257
f 254 257 258
f 254 257 258
f 255 256 259
f 255 256 259
f 259 257 255
f 259 257 255
f 260 259 256
f 260 259 256
f 261 258 257
f 261 258 257
f 257 259 261
f 257 259 261
f 258 261 262
f 258 261 262
f 259 260 263
f 259 260 263
f 263 261 259
f 263 261 259
f 264 263 260
f 264 263 260
f 265 262 261
f 265 262 261
f 261 263 265
f 261 263 265
f 262 265 266
f 262 265 266
f 263 264 267
f 263 264 267
f 267 265 263
f 267 265 263
f 268 267 264
f 268 267 264
f 269 266 265
f 269 266 265
f 265 267 269
f 265 267 269
f 266 269 270
f 266 269 270
f 267 268 271
f 267 268 271
f 271 269 267
f 271 269 267
f 272 271 268
f 272 271 268
f 273 270 269
f 273 270 269
f 269 271 273
f 269 271 273
f 270 273 274
f 270 273 274
f 271 272 275
f 271 272 275
f 275 273 271
f 275 273 271
f 276 275 272
f 276 275 272
f 277 274 273
f 277 274 273
f 273 275 277
f 273 275 277
f 274 277 278
f 274 277 278
f 275 276 279
f 275 276 279
f 279 277 275
f 279 277 275
f 280 279 276
f 280 279 276
f 281 278 277
f 281 278 277
f 277 279 281
f 277 279 281
f 278 281 221
f 278 281 221
f 279 280 282
f 279 280 282
f 282 281 279
f 282 281 279
f 283 282 280
f 283 282 280
f 284 221 281
f 284 221 281
f 281 282 284
f 281 282 284
f 221 284 219
f 221 284 219
f 282 283 285
f 282 283 285
f 285 284 282
f 285 284 282
f 286 285 283
f 286 285 283
f 287 219 284
f 287 219 284
f 284 285 287
f 284 285 287
f 219 287 211
f 219 287 211
f 285 286 288
f 285 286 288
f 288 287 285
f 288 287 285
f 289 288 286
f 289 288 286
f 290 211 287
f 290 211 287
f 287 288 290
f 287 288 290
f 211 290 209
f 211 290 209
f 288 289 291
f 288 289 291
f 291 290 288
f 291 290 288
f 292 291 289
f 292 291 289
f 293 209 290
f 293 209 290
f 290 291 293
f 290 291 293
f 209 293 201
f 209 293 201
f 291 292 294
f 291 292 294
f 294 293 291
f 294 293 291
f 295 294 292
f 295 294 292
f 296 201 293
f 296 201 293
f 293 294 296
f 293 294 296
f 201 296 199
f 201 296 199
f 294 295 297
f 294 295 297
f 297 296 294
f 297 296 294
f 298 297 295
f 298 297 295
f 299 199 296
f 299 199 296
f 296 297 299
f 296 297 299
f 199 299 190
f 199 299 190
f 297 298 300
f 297 298 300
f 300 299 297
f 300 299 297
f 301 300 298
f 301 300 298
f 302 190 299
f 302 190 299
f 299 300 302
f 299 300 302
f 190 302 187
f 190 302 187
f 300 301 303
f 300 301 303
f 303 302 300
f 303 302 300
f 304 303 301
f 304 303 301
f 305 187 302
f 305 187 302
f 302 303 305
f 302 303 305
f 187 305 188
f 187 305 188
f 303 304 306
f 303 304 306
f 306 305 303
f 306 305 303
f 307 306 304
f 307 306 304
f 308 188 305
f 308 188 305
f 305 306 308
f 305 306 308
f 188 308 309
f 188 308 309
f 306 307 310
f 306 307 310
f 310 308 306
f 310 308 306
f 311 310 307
f 311 310 307
f 312 309 308
f 312 309 308
f 308 310 312
f 308 310 312
f 309 312 313
f 309 312 313
f 310 311 314
f 310 311 314
f 314 312 310
f 314 312 310
f 315 314 311
f 315 314 311
f 316 313 312
f 316 313 312
f 312 314 316
f 312 314 316
f 313 316 317
f 313 316 317
f 314 315 318
f 314 315 318
f 318 316 314
f 318 316 314
f 228 318 315
f 228 318 315
f 319 317 316
f 319 317 316
f 316 318 319
f 316 318 319
f 317 319 320
f 317 319 320
f 242 320 319
f 242 320 319
f 318 228 239
f 318 228 239
f 319 239 242
f 319 239 242
f 239 319 318
f 239 319 318
f 321 322 323
f 321 322 323
f 324 323 322
f 324 323 322
f 323 325 321
f 323 325 321
f 322 326 324
f 322 326 324
f 325 323 327
f 325 323 327
f 328 327 323
f 323 324 328
f 328 327 323
f 323 324 328
f 327 329 325
f 327 329 325
f 326 322 330
f 326 322 330
f 322 321 331
f 322 321 331
f 331 330 322
f 331 330 322
f 332 321 325
f 332 321 325
f 333 331 321
f 321 332 333
f 333 331 321
f 321 332 333
f 334 325 329
f 325 334 332
f 334 325 329
f 325 334 332
f 335 332 334
f 335 332 334
f 336 333 332
f 332 335 336
f 336 333 332
f 332 335 336
f 331 333 337
f 331 333 337
f 338 337 333
f 333 336 338
f 338 337 333
f 333 336 338
f 337 339 331
f 337 339 331
f 330 331 339
f 330 331 339
f 337 338 340
f 337 338 340
f 340 341 337
f 339 337 341
f 340 341 337
f 339 337 341
f 342 340 338
f 342 340 338
f 343 338 336
f 338 343 342
f 343 338 336
f 338 343 342
f 336 344 343
f 336 344 343
f 344 336 335
f 344 336 335
f 345 343 344
f 345 343 344
f 346 342 343
f 343 345 346
f 346 342 343
f 343 345 346
f 340 342 347
f 340 342 347
f 348 347 342
f 342 346 348
f 348 347 342
f 342 346 348
f 347 349 340
f 347 349 340
f 341 340 349
f 341 340 349
f 347 348 350
f 347 348 350
f 350 351 347
f 349 347 351
f 350 351 347
f 349 347 351
f 352 350 348
f 352 350 348
f 353 348 346
f 348 353 352
f 353 348 346
f 348 353 352
f 346 354 353
f 346 354 353
f 354 346 345
f 354 346 345
f 355 353 354
f 355 353 354
f 356 352 353
f 353 355 356
f 356 352 353
f 353 355 356
f 357 180 181
f 357 180 181
f 358 179 180
f 180 357 358
f 358 179 180
f 180 357 358
f 177 179 359
f 177 179 359
f 360 359 179
f 179 358 360
f 360 359 179
f 179 358 360
f 359 361 177
f 359 361 177
f 178 177 361
f 178 177 361
f 359 360 362
f 359 360 362
f 362 363 359
f 361 359 363
f 362 363 359
f 361 359 363
f 364 362 360
f 364 362 360
f 365 360 358
f 360 365 364
f 365 360 358
f 360 365 364
f 358 366 365
f 358 366 365
f 366 358 357
f 366 358 357
f 367 365 366
f 367 365 366
f 368 364 365
f 365 367 368
f 368 364 365
f 365 367 368
f 362 364 369
f 362 364 369
f 370 369 364
f 364 368 370
f 370 369 364
f 364 368 370
f 369 371 362
f 369 371 362
f 363 362 371
f 363 362 371
f 369 370 372
f 369 370 372
f 372 373 369
f 371 369 373
f 372 373 369
f 371 369 373
f 374 372 370
f 374 372 370
f 375 370 368
f 370 375 374
f 375 370 368
f 370 375 374
f 368 376 375
f 368 376 375
f 376 368 367
f 376 368 367
f 326 375 376
f 326 375 376
f 377 374 375
f 375 326 377
f 377 374 375
f 375 326 377
f 376 324 326
f 376 324 326
f 324 376 378
f 324 376 378
f 367 378 376
f 367 378 376
f 378 328 324
f 378 328 324
f 330 377 326
f 330 377 326
f 378 367 379
f 378 367 379
f 366 379 367
f 366 379 367
f 328 378 380
f 379 380 378
f 328 378 380
f 379 380 378
f 380 381 328
f 380 381 328
f 327 328 381
f 327 328 381
f 379 366 382
f 379 366 382
f 357 382 366
f 357 382 366
f 380 379 383
f 382 383 379
f 380 379 383
f 382 383 379
f 381 380 384
f 381 380 384
f 383 384 380
f 383 384 380
f 381 385 327
f 381 385 327
f 329 327 385
f 329 327 385
f 385 381 386
f 385 381 386
f 384 386 381
f 384 386 381
f 382 357 387
f 382 357 387
f 181 387 357
f 181 387 357
f 387 388 382
f 387 388 382
f 383 382 388
f 383 382 388
f 387 181 389
f 387 181 389
f 172 389 181
f 172 389 181
f 388 387 390
f 388 387 390
f 389 390 387
f 389 390 387
f 388 391 383
f 388 391 383
f 384 383 391
f 384 383 391
f 391 388 392
f 391 388 392
f 390 392 388
f 390 392 388
f 391 393 384
f 391 393 384
f 386 384 393
f 386 384 393
f 393 391 394
f 393 391 394
f 392 394 391
f 392 394 391
f 393 395 386
f 393 395 386
f 394 396 393
f 395 393 396
f 394 396 393
f 395 393 396
f 397 386 395
f 397 386 395
f 386 397 385
f 386 397 385
f 398 385 397
f 398 385 397
f 385 398 329
f 385 398 329
f 399 329 398
f 399 329 398
f 329 399 334
f 329 399 334
f 400 334 399
f 400 334 399
f 334 400 335
f 334 400 335
f 401 335 400
f 401 335 400
f 335 401 344
f 335 401 344
f 402 344 401
f 402 344 401
f 344 402 345
f 344 402 345
f 403 345 402
f 403 345 402
f 345 403 354
f 345 403 354
f 404 354 403
f 404 354 403
f 354 404 355
f 354 404 355
f 405 355 404
f 405 355 404
f 355 405 406
f 355 405 406
f 407 406 405
f 407 406 405
f 406 407 408
f 406 407 408
f 409 408 407
f 409 408 407
f 408 409 410
f 408 409 410
f 411 410 409
f 411 410 409
f 410 411 412
f 410 411 412
f 413 412 411
f 413 412 411
f 412 413 414
f 412 413 414
f 415 414 413
f 415 414 413
f 414 415 416
f 414 415 416
f 417 416 415
f 417 416 415
f 416 417 139
f 416 417 139
f 418 139 417
f 418 139 417
f 139 418 137
f 139 418 137
f 419 137 418
f 419 137 418
f 137 419 151
f 137 419 151
f 420 151 419
f 420 151 419
f 151 420 152
f 151 420 152
f 421 152 420
f 421 152 420
f 152 421 161
f 152 421 161
f 422 161 421
f 422 161 421
f 161 422 162
f 161 422 162
f 423 162 422
f 423 162 422
f 162 423 171
f 162 423 171
f 424 171 423
f 424 171 423
f 171 424 172
f 171 424 172
f 389 172 424
f 389 172 424
f 424 425 389
f 424 425 389
f 390 389 425
f 390 389 425
f 423 426 424
f 423 426 424
f 425 424 426
f 425 424 426
f 422 427 423
f 422 427 423
f 426 423 427
f 426 423 427
f 427 422 428
f 427 422 428
f 421 428 422
f 421 428 422
f 425 429 390
f 425 429 390
f 392 390 429
f 392 390 429
f 426 430 425
f 426 430 425
f 429 425 430
f 429 425 430
f 427 431 426
f 427 431 426
f 430 426 431
f 430 426 431
f 428 432 427
f 428 432 427
f 431 427 432
f 431 427 432
f 429 433 392
f 429 433 392
f 394 392 433
f 394 392 433
f 430 434 429
f 430 434 429
f 433 429 434
f 433 429 434
f 431 435 430
f 431 435 430
f 434 430 435
f 434 430 435
f 432 436 431
f 432 436 431
f 435 431 436
f 435 431 436
f 433 437 394
f 433 437 394
f 396 394 437
f 396 394 437
f 434 438 433
f 434 438 433
f 437 433 438
f 437 433 438
f 435 439 434
f 435 439 434
f 438 434 439
f 438 434 439
f 436 440 435
f 436 440 435
f 439 435 440
f 439 435 440
f 440 436 441
f 440 436 441
f 442 441 436
f 442 441 436
f 436 432 442
f 436 432 442
f 443 442 432
f 443 442 432
f 432 428 443
f 432 428 443
f 444 443 428
f 444 443 428
f 428 421 444
f 428 421 444
f 420 444 421
f 420 444 421
f 444 420 445
f 444 420 445
f 419 445 420
f 419 445 420
f 443 444 446
f 445 446 444
f 443 444 446
f 445 446 444
f 442 443 447
f 446 447 443
f 442 443 447
f 446 447 443
f 447 448 442
f 447 448 442
f 441 442 448
f 441 442 448
f 445 419 449
f 445 419 449
f 418 449 419
f 418 449 419
f 446 445 450
f 449 450 445
f 446 445 450
f 449 450 445
f 447 446 451
f 450 451 446
f 447 446 451
f 450 451 446
f 451 452 447
f 451 452 447
f 448 447 452
f 448 447 452
f 449 418 453
f 449 418 453
f 417 453 418
f 417 453 418
f 450 449 454
f 453 454 449
f 450 449 454
f 453 454 449
f 451 450 455
f 454 455 450
f 451 450 455
f 454 455 450
f 455 456 451
f 455 456 451
f 452 451 456
f 452 451 456
f 453 417 457
f 453 417 457
f 415 457 417
f 415 457 417
f 454 453 458
f 457 458 453
f 454 453 458
f 457 458 453
f 455 454 459
f 458 459 454
f 455 454 459
f 458 459 454
f 459 460 455
f 459 460 455
f 456 455 460
f 456 455 460
f 457 415 461
f 457 415 461
f 413 461 415
f 413 461 415
f 458 457 462
f 461 462 457
f 458 457 462
f 461 462 457
f 459 458 463
f 462 463 458
f 459 458 463
f 462 463 458
f 463 464 459
f 463 464 459
f 460 459 464
f 460 459 464
f 461 413 465
f 461 413 465
f 411 465 413
f 411 465 413
f 462 461 466
f 465 466 461
f 462 461 466
f 465 466 461
f 463 462 467
f 466 467 462
f 463 462 467
f 466 467 462
f 467 468 463
f 467 468 463
f 464 463 468
f 464 463 468
f 465 411 469
f 465 411 469
f 409 469 411
f 409 469 411
f 466 465 470
f 469 470 465
f 466 465 470
f 469 470 465
f 467 466 471
f 470 471 466
f 467 466 471
f 470 471 466
f 471 472 467
f 471 472 467
f 468 467 472
f 468 467 472
f 469 409 473
f 469 409 473
f 407 473 409
f 407 473 409
f 470 469 474
f 473 474 469
f 470 469 474
f 473 474 469
f 471 470 475
f 474 475 470
f 471 470 475
f 474 475 470
f 475 476 471
f 475 476 471
f 472 471 476
f 472 471 476
f 473 407 477
f 473 407 477
f 405 477 407
f 405 477 407
f 474 473 478
f 477 478 473
f 474 473 478
f 477 478 473
f 475 474 479
f 478 479 474
f 475 474 479
f 478 479 474
f 479 480 475
f 479 480 475
f 476 475 480
f 476 475 480
f 477 405 481
f 477 405 481
f 404 481 405
f 404 481 405
f 478 477 482
f 481 482 477
f 478 477 482
f 481 482 477
f 479 478 483
f 482 483 478
f 479 478 483
f 482 483 478
f 483 484 479
f 483 484 479
f 480 479 484
f 480 479 484
f 481 404 485
f 481 404 485
f 403 485 404
f 403 485 404
f 482 481 486
f 485 486 481
f 482 481 486
f 485 486 481
f 483 482 487
f 486 487 482
f 483 482 487
f 486 487 482
f 487 488 483
f 487 488 483
f 484 483 488
f 484 483 488
f 485 403 489
f 485 403 489
f 402 489 403
f 402 489 403
f 486 485 490
f 489 490 485
f 486 485 490
f 489 490 485
f 487 486 491
f 490 491 486
f 487 486 491
f 490 491 486
f 491 492 487
f 491 492 487
f 488 487 492
f 488 487 492
f 489 402 493
f 489 402 493
f 401 493 402
f 401 493 402
f 490 489 494
f 493 494 489
f 490 489 494
f 493 494 489
f 491 490 495
f 494 495 490
f 491 490 495
f 494 495 490
f 495 496 491
f 495 496 491
f 492 491 496
f 492 491 496
f 493 401 497
f 493 401 497
f 400 497 401
f 400 497 401
f 494 493 498
f 497 498 493
f 494 493 498
f 497 498 493
f 495 494 499
f 498 499 494
f 495 494 499
f 498 499 494
f 499 500 495
f 499 500 495
f 496 495 500
f 496 495 500
f 497 400 501
f 497 400 501
f 399 501 400
f 399 501 400
f 498 497 502
f 501 502 497
f 498 497 502
f 501 502 497
f 499 498 503
f 502 503 498
f 499 498 503
f 502 503 498
f 503 504 499
f 503 504 499
f 500 499 504
f 500 499 504
f 501 399 505
f 501 399 505
f 398 505 399
f 398 505 399
f 502 501 506
f 505 506 501
f 502 501 506
f 505 506 501
f 503 502 507
f 506 507 502
f 503 502 507
f 506 507 502
f 507 508 503
f 507 508 503
f 504 503 508
f 504 503 508
f 505 398 509
f 505 398 509
f 397 509 398
f 397 509 398
f 506 505 510
f 509 510 505
f 506 505 510
f 509 510 505
f 507 506 511
f 510 511 506
f 507 506 511
f 510 511 506
f 511 512 507
f 511 512 507
f 508 507 512
f 508 507 512
f 509 397 513
f 509 397 513
f 395 513 397
f 395 513 397
f 510 509 514
f 513 514 509
f 510 509 514
f 513 514 509
f 511 510 515
f 514 515 510
f 511 510 515
f 514 515 510
f 515 516 511
f 515 516 511
f 512 511 516
f 512 511 516
f 513 395 517
f 513 395 517
f 396 517 395
f 396 517 395
f 514 513 518
f 517 518 513
f 514 513 518
f 517 518 513
f 515 514 519
f 518 519 514
f 515 514 519
f 518 519 514
f 519 520 515
f 519 520 515
f 516 515 520
f 516 515 520
f 517 396 521
f 517 396 521
f 437 521 396
f 437 521 396
f 518 517 522
f 521 522 517
f 518 517 522
f 521 522 517
f 519 518 523
f 522 523 518
f 519 518 523
f 522 523 518
f 523 524 519
f 523 524 519
f 520 519 524
f 520 519 524
f 521 437 525
f 521 437 525
f 438 525 437
f 438 525 437
f 522 521 526
f 525 526 521
f 522 521 526
f 525 526 521
f 523 522 527
f 526 527 522
f 523 522 527
f 526 527 522
f 527 528 523
f 527 528 523
f 524 523 528
f 524 523 528
f 525 438 529
f 525 438 529
f 439 529 438
f 439 529 438
f 526 525 530
f 529 530 525
f 526 525 530
f 529 530 525
f 527 526 531
f 530 531 526
f 527 526 531
f 530 531 526
f 531 532 527
f 531 532 527
f 528 527 532
f 528 527 532
f 529 439 533
f 529 439 533
f 440 533 439
f 440 533 439
f 530 529 534
f 533 534 529
f 530 529 534
f 533 534 529
f 531 530 535
f 534 535 530
f 531 530 535
f 534 535 530
f 536 537 538
f 536 537 538
f 539 540 537
f 537 536 539
f 539 540 537
f 537 536 539
f 541 540 542
f 541 540 542
f 543 542 540
f 540 539 543
f 543 542 540
f 540 539 543
f 542 245 541
f 542 245 541
f 250 541 245
f 250 541 245
f 542 543 544
f 542 543 544
f 544 241 542
f 245 542 241
f 544 241 542
f 245 542 241
f 545 544 543
f 545 544 543
f 546 543 539
f 543 546 545
f 546 543 539
f 543 546 545
f 539 547 546
f 539 547 546
f 547 539 536
f 547 539 536
f 548 546 547
f 548 546 547
f 549 545 546
f 546 548 549
f 549 545 546
f 546 548 549
f 544 545 550
f 544 545 550
f 551 550 545
f 545 549 551
f 551 550 545
f 545 549 551
f 550 237 544
f 550 237 544
f 241 544 237
f 241 544 237
f 550 551 236
f 550 551 236
f 236 235 550
f 237 550 235
f 236 235 550
f 237 550 235
f 238 236 551
f 238 236 551
f 552 551 549
f 551 552 238
f 552 551 549
f 551 552 238
f 549 553 552
f 549 553 552
f 553 549 548
f 553 549 548
f 554 552 553
f 554 552 553
f 242 238 552
f 552 554 242
f 242 238 552
f 552 554 242
f 553 555 554
f 553 555 554
f 555 553 556
f 555 553 556
f 548 556 553
f 548 556 553
f 556 557 555
f 556 557 555
f 320 242 554
f 320 242 554
f 556 548 558
f 556 548 558
f 547 558 548
f 547 558 548
f 557 556 559
f 558 559 556
f 557 556 559
f 558 559 556
f 559 560 557
f 559 560 557
f 561 557 560
f 561 557 560
f 558 547 562
f 558 547 562
f 536 562 547
f 536 562 547
f 559 558 563
f 562 563 558
f 559 558 563
f 562 563 558
f 560 559 564
f 560 559 564
f 563 564 559
f 563 564 559
f 560 565 561
f 560 565 561
f 566 561 565
f 566 561 565
f 565 560 567
f 565 560 567
f 564 567 560
f 564 567 560
f 562 536 568
f 562 536 568
f 538 568 536
f 538 568 536
f 568 569 562
f 568 569 562
f 563 562 569
f 563 562 569
f 568 538 570
f 568 538 570
f 571 570 538
f 571 570 538
f 569 568 572
f 569 568 572
f 570 572 568
f 570 572 568
f 569 573 563
f 569 573 563
f 564 563 573
f 564 563 573
f 573 569 574
f 573 569 574
f 572 574 569
f 572 574 569
f 573 575 564
f 573 575 564
f 567 564 575
f 567 564 575
f 575 573 576
f 575 573 576
f 574 576 573
f 574 576 573
f 575 577 567
f 575 577 567
f 576 578 575
f 577 575 578
f 576 578 575
f 577 575 578
f 579 567 577
f 579 567 577
f 567 579 565
f 567 579 565
f 580 565 579
f 580 565 579
f 565 580 566
f 565 580 566
f 581 566 580
f 581 566 580
f 566 581 582
f 566 581 582
f 583 582 581
f 583 582 581
f 582 583 584
f 582 583 584
f 585 584 583
f 585 584 583
f 584 585 586
f 584 585 586
f 587 586 585
f 587 586 585
f 586 587 588
f 586 587 588
f 589 588 587
f 589 588 587
f 588 589 590
f 588 589 590
f 591 590 589
f 591 590 589
f 590 591 194
f 590 591 194
f 592 194 591
f 592 194 591
f 194 592 193
f 194 592 193
f 593 193 592
f 593 193 592
f 193 593 195
f 193 593 195
f 594 195 593
f 594 195 593
f 195 594 204
f 195 594 204
f 595 204 594
f 595 204 594
f 204 595 205
f 204 595 205
f 596 205 595
f 596 205 595
f 205 596 214
f 205 596 214
f 597 214 596
f 597 214 596
f 214 597 215
f 214 597 215
f 598 215 597
f 598 215 597
f 215 598 224
f 215 598 224
f 599 224 598
f 599 224 598
f 224 599 600
f 224 599 600
f 601 600 599
f 601 600 599
f 600 601 602
f 600 601 602
f 603 602 601
f 603 602 601
f 602 603 604
f 602 603 604
f 605 604 603
f 605 604 603
f 604 605 606
f 604 605 606
f 607 606 605
f 607 606 605
f 606 607 608
f 606 607 608
f 609 608 607
f 609 608 607
f 608 609 610
f 608 609 610
f 611 610 609
f 611 610 609
f 610 611 571
f 610 611 571
f 570 571 611
f 570 571 611
f 611 612 570
f 611 612 570
f 572 570 612
f 572 570 612
f 609 613 611
f 609 613 611
f 612 611 613
f 612 611 613
f 607 614 609
f 607 614 609
f 613 609 614
f 613 609 614
f 614 607 615
f 614 607 615
f 605 615 607
f 605 615 607
f 612 616 572
f 612 616 572
f 574 572 616
f 574 572 616
f 613 617 612
f 613 617 612
f 616 612 617
f 616 612 617
f 614 618 613
f 614 618 613
f 617 613 618
f 617 613 618
f 615 619 614
f 615 619 614
f 618 614 619
f 618 614 619
f 616 620 574
f 616 620 574
f 576 574 620
f 576 574 620
f 617 621 616
f 617 621 616
f 620 616 621
f 620 616 621
f 618 622 617
f 618 622 617
f 621 617 622
f 621 617 622
f 619 623 618
f 619 623 618
f 622 618 623
f 622 618 623
f 620 624 576
f 620 624 576
f 578 576 624
f 578 576 624
f 621 625 620
f 621 625 620
f 624 620 625
f 624 620 625
f 622 626 621
f 622 626 621
f 625 621 626
f 625 621 626
f 623 230 622
f 623 230 622
f 626 622 230
f 626 622 230
f 230 623 232
f 230 623 232
f 627 232 623
f 627 232 623
f 623 619 627
f 623 619 627
f 628 627 619
f 628 627 619
f 619 615 628
f 619 615 628
f 629 628 615
f 629 628 615
f 615 605 629
f 615 605 629
f 603 629 605
f 603 629 605
f 629 603 630
f 629 603 630
f 601 630 603
f 601 630 603
f 628 629 631
f 630 631 629
f 628 629 631
f 630 631 629
f 627 628 632
f 631 632 628
f 627 628 632
f 631 632 628
f 632 246 627
f 632 246 627
f 232 627 246
f 232 627 246
f 630 601 633
f 630 601 633
f 599 633 601
f 599 633 601
f 631 630 634
f 633 634 630
f 631 630 634
f 633 634 630
f 632 631 635
f 634 635 631
f 632 631 635
f 634 635 631
f 635 248 632
f 635 248 632
f 246 632 248
f 246 632 248
f 633 599 636
f 633 599 636
f 598 636 599
f 598 636 599
f 634 633 637
f 636 637 633
f 634 633 637
f 636 637 633
f 635 634 638
f 637 638 634
f 635 634 638
f 637 638 634
f 638 252 635
f 638 252 635
f 248 635 252
f 248 635 252
f 636 598 639
f 636 598 639
f 597 639 598
f 597 639 598
f 637 636 640
f 639 640 636
f 637 636 640
f 639 640 636
f 638 637 641
f 640 641 637
f 638 637 641
f 640 641 637
f 641 256 638
f 641 256 638
f 252 638 256
f 252 638 256
f 639 597 642
f 639 597 642
f 596 642 597
f 596 642 597
f 640 639 643
f 642 643 639
f 640 639 643
f 642 643 639
f 641 640 644
f 643 644 640
f 641 640 644
f 643 644 640
f 644 260 641
f 644 260 641
f 256 641 260
f 256 641 260
f 642 596 645
f 642 596 645
f 595 645 596
f 595 645 596
f 643 642 646
f 645 646 642
f 643 642 646
f 645 646 642
f 644 643 647
f 646 647 643
f 644 643 647
f 646 647 643
f 647 264 644
f 647 264 644
f 260 644 264
f 260 644 264
f 645 595 648
f 645 595 648
f 594 648 595
f 594 648 595
f 646 645 649
f 648 649 645
f 646 645 649
f 648 649 645
f 647 646 650
f 649 650 646
f 647 646 650
f 649 650 646
f 650 268 647
f 650 268 647
f 264 647 268
f 264 647 268
f 648 594 651
f 648 594 651
f 593 651 594
f 593 651 594
f 649 648 652
f 651 652 648
f 649 648 652
f 651 652 648
f 650 649 653
f 652 653 649
f 650 649 653
f 652 653 649
f 653 272 650
f 653 272 650
f 268 650 272
f 268 650 272
f 651 593 654
f 651 593 654
f 592 654 593
f 592 654 593
f 652 651 655
f 654 655 651
f 652 651 655
f 654 655 651
f 653 652 656
f 655 656 652
f 653 652 656
f 655 656 652
f 656 276 653
f 656 276 653
f 272 653 276
f 272 653 276
f 654 592 657
f 654 592 657
f 591 657 592
f 591 657 592
f 655 654 658
f 657 658 654
f 655 654 658
f 657 658 654
f 656 655 659
f 658 659 655
f 656 655 659
f 658 659 655
f 659 280 656
f 659 280 656
f 276 656 280
f 276 656 280
f 657 591 660
f 657 591 660
f 589 660 591
f 589 660 591
f 658 657 661
f 660 661 657
f 658 657 661
f 660 661 657
f 659 658 662
f 661 662 658
f 659 658 662
f 661 662 658
f 662 283 659
f 662 283 659
f 280 659 283
f 280 659 283
f 660 589 663
f 660 589 663
f 587 663 589
f 587 663 589
f 661 660 664
f 663 664 660
f 661 660 664
f 663 664 660
f 662 661 665
f 664 665 661
f 662 661 665
f 664 665 661
f 665 286 662
f 665 286 662
f 283 662 286
f 283 662 286
f 663 587 666
f 663 587 666
f 585 666 587
f 585 666 587
f 664 663 667
f 666 667 663
f 664 663 667
f 666 667 663
f 665 664 668
f 667 668 664
f 665 664 668
f 667 668 664
f 668 289 665
f 668 289 665
f 286 665 289
f 286 665 289
f 666 585 669
f 666 585 669
f 583 669 585
f 583 669 585
f 667 666 670
f 669 670 666
f 667 666 670
f 669 670 666
f 668 667 671
f 670 671 667
f 668 667 671
f 670 671 667
f 671 292 668
f 671 292 668
f 289 668 292
f 289 668 292
f 669 583 672
f 669 583 672
f 581 672 583
f 581 672 583
f 670 669 673
f 672 673 669
f 670 669 673
f 672 673 669
f 671 670 674
f 673 674 670
f 671 670 674
f 673 674 670
f 674 295 671
f 674 295 671
f 292 671 295
f 292 671 295
f 672 581 675
f 672 581 675
f 580 675 581
f 580 675 581
f 673 672 676
f 675 676 672
f 673 672 676
f 675 676 672
f 674 673 677
f 676 677 673
f 674 673 677
f 676 677 673
f 677 298 674
f 677 298 674
f 295 674 298
f 295 674 298
f 675 580 678
f 675 580 678
f 579 678 580
f 579 678 580
f 676 675 679
f 678 679 675
f 676 675 679
f 678 679 675
f 677 676 680
f 679 680 676
f 677 676 680
f 679 680 676
f 680 301 677
f 680 301 677
f 298 677 301
f 298 677 301
f 678 579 681
f 678 579 681
f 577 681 579
f 577 681 579
f 679 678 682
f 681 682 678
f 679 678 682
f 681 682 678
f 680 679 683
f 682 683 679
f 680 679 683
f 682 683 679
f 683 304 680
f 683 304 680
f 301 680 304
f 301 680 304
f 681 577 684
f 681 577 684
f 578 684 577
f 578 684 577
f 682 681 685
f 684 685 681
f 682 681 685
f 684 685 681
f 683 682 686
f 685 686 682
f 683 682 686
f 685 686 682
f 686 307 683
f 686 307 683
f 304 683 307
f 304 683 307
f 684 578 687
f 684 578 687
f 624 687 578
f 624 687 578
f 685 684 688
f 687 688 684
f 685 684 688
f 687 688 684
f 686 685 689
f 688 689 685
f 686 685 689
f 688 689 685
f 689 311 686
f 689 311 686
f 307 686 311
f 307 686 311
f 687 624 690
f 687 624 690
f 625 690 624
f 625 690 624
f 688 687 691
f 690 691 687
f 688 687 691
f 690 691 687
f 689 688 692
f 691 692 688
f 689 688 692
f 691 692 688
f 692 315 689
f 692 315 689
f 311 689 315
f 311 689 315
f 690 625 693
f 690 625 693
f 626 693 625
f 626 693 625
f 691 690 694
f 693 694 690
f 691 690 694
f 693 694 690
f 692 691 227
f 694 227 691
f 692 691 227
f 694 227 691
f 227 228 692
f 227 228 692
f 315 692 228
f 315 692 228
f 693 626 229
f 693 626 229
f 230 229 626
f 230 229 626
f 694 693 233
f 229 233 693
f 694 693 233
f 229 233 693
f 227 694 225
f 233 225 694
f 227 694 225
f 233 225 694
f 695 696 697
f 695 696 697
f 555 697 696
f 555 697 696
f 697 698 695
f 697 698 695
f 696 554 555
f 696 554 555
f 698 697 561
f 698 697 561
f 557 561 697
f 697 555 557
f 557 561 697
f 697 555 557
f 561 566 698
f 561 566 698
f 554 696 320
f 554 696 320
f 696 695 699
f 696 695 699
f 699 320 696
f 699 320 696
f 700 695 698
f 700 695 698
f 701 699 695
f 695 700 701
f 701 699 695
f 695 700 701
f 582 698 566
f 698 582 700
f 582 698 566
f 698 582 700
f 584 700 582
f 584 700 582
f 702 701 700
f 700 584 702
f 702 701 700
f 700 584 702
f 699 701 703
f 699 701 703
f 704 703 701
f 701 702 704
f 704 703 701
f 701 702 704
f 703 317 699
f 703 317 699
f 320 699 317
f 320 699 317
f 703 704 705
f 703 704 705
f 705 313 703
f 317 703 313
f 705 313 703
f 317 703 313
f 706 705 704
f 706 705 704
f 707 704 702
f 704 707 706
f 707 704 702
f 704 707 706
f 702 586 707
f 702 586 707
f 586 702 584
f 586 702 584
f 588 707 586
f 588 707 586
f 708 706 707
f 707 588 708
f 708 706 707
f 707 588 708
f 705 706 709
f 705 706 709
f 710 709 706
f 706 708 710
f 710 709 706
f 706 708 710
f 709 309 705
f 709 309 705
f 313 705 309
f 313 705 309
f 709 710 182
f 709 710 182
f 182 188 709
f 309 709 188
f 182 188 709
f 309 709 188
f 183 182 710
f 183 182 710
f 711 710 708
f 710 711 183
f 711 710 708
f 710 711 183
f 708 590 711
f 708 590 711
f 590 708 588
f 590 708 588
f 194 711 590
f 194 711 590
f 186 183 711
f 711 194 186
f 186 183 711
f 711 194 186
f 30 32 712
f 30 32 712
f 713 712 32
f 32 36 713
f 713 712 32
f 32 36 713
f 712 122 30
f 712 122 30
f 31 30 122
f 31 30 122
f 712 713 714
f 712 713 714
f 714 118 712
f 122 712 118
f 714 118 712
f 122 712 118
f 715 714 713
f 715 714 713
f 716 713 36
f 713 716 715
f 716 713 36
f 713 716 715
f 36 717 716
f 36 717 716
f 717 36 35
f 717 36 35
f 718 716 717
f 718 716 717
f 719 715 716
f 716 718 719
f 719 715 716
f 716 718 719
f 714 715 720
f 714 715 720
f 721 720 715
f 715 719 721
f 721 720 715
f 715 719 721
f 720 114 714
f 720 114 714
f 118 714 114
f 118 714 114
f 720 721 722
f 720 721 722
f 722 110 720
f 114 720 110
f 722 110 720
f 114 720 110
f 723 722 721
f 723 722 721
f 724 721 719
f 721 724 723
f 724 721 719
f 721 724 723
f 719 725 724
f 719 725 724
f 725 719 718
f 725 719 718
f 726 724 725
f 726 724 725
f 727 723 724
f 724 726 727
f 727 723 724
f 724 726 727
f 722 723 728
f 722 723 728
f 729 728 723
f 723 727 729
f 729 728 723
f 723 727 729
f 728 106 722
f 728 106 722
f 110 722 106
f 110 722 106
f 728 729 730
f 728 729 730
f 730 102 728
f 106 728 102
f 730 102 728
f 106 728 102
f 731 730 729
f 731 730 729
f 732 729 727
f 729 732 731
f 732 729 727
f 729 732 731
f 727 733 732
f 727 733 732
f 733 727 726
f 733 727 726
f 734 732 733
f 734 732 733
f 735 731 732
f 732 734 735
f 735 731 732
f 732 734 735
f 730 731 736
f 730 731 736
f 737 736 731
f 731 735 737
f 737 736 731
f 731 735 737
f 736 98 730
f 736 98 730
f 102 730 98
f 102 730 98
f 736 737 738
f 736 737 738
f 738 94 736
f 98 736 94
f 738 94 736
f 98 736 94
f 739 738 737
f 739 738 737
f 740 737 735
f 737 740 739
f 740 737 735
f 737 740 739
f 735 741 740
f 735 741 740
f 741 735 734
f 741 735 734
f 350 352 742
f 350 352 742
f 743 742 352
f 352 356 743
f 743 742 352
f 352 356 743
f 742 744 350
f 742 744 350
f 351 350 744
f 351 350 744
f 742 743 745
f 742 743 745
f 745 746 742
f 744 742 746
f 745 746 742
f 744 742 746
f 747 745 743
f 747 745 743
f 748 743 356
f 743 748 747
f 748 743 356
f 743 748 747
f 356 406 748
f 356 406 748
f 406 356 355
f 406 356 355
f 408 748 406
f 408 748 406
f 749 747 748
f 748 408 749
f 749 747 748
f 748 408 749
f 745 747 750
f 745 747 750
f 751 750 747
f 747 749 751
f 751 750 747
f 747 749 751
f 750 752 745
f 750 752 745
f 746 745 752
f 746 745 752
f 750 751 753
f 750 751 753
f 753 754 750
f 752 750 754
f 753 754 750
f 752 750 754
f 755 753 751
f 755 753 751
f 756 751 749
f 751 756 755
f 756 751 749
f 751 756 755
f 749 410 756
f 749 410 756
f 410 749 408
f 410 749 408
f 412 756 410
f 412 756 410
f 757 755 756
f 756 412 757
f 757 755 756
f 756 412 757
f 753 755 758
f 753 755 758
f 759 758 755
f 755 757 759
f 759 758 755
f 755 757 759
f 758 760 753
f 758 760 753
f 754 753 760
f 754 753 760
f 758 759 761
f 758 759 761
f 761 762 758
f 760 758 762
f 761 762 758
f 760 758 762
f 763 761 759
f 763 761 759
f 764 759 757
f 759 764 763
f 764 759 757
f 759 764 763
f 757 414 764
f 757 414 764
f 414 757 412
f 414 757 412
f 416 764 414
f 416 764 414
f 765 763 764
f 764 416 765
f 765 763 764
f 764 416 765
f 761 763 766
f 761 763 766
f 767 766 763
f 763 765 767
f 767 766 763
f 763 765 767
f 766 768 761
f 766 768 761
f 762 761 768
f 762 761 768
f 766 767 142
f 766 767 142
f 142 146 766
f 768 766 146
f 142 146 766
f 768 766 146
f 141 142 767
f 141 142 767
f 138 767 765
f 767 138 141
f 138 767 765
f 767 138 141
f 765 139 138
f 765 139 138
f 139 765 416
f 139 765 416
f 769 770 771
f 769 770 771
f 772 773 770
f 770 769 772
f 772 773 770
f 770 769 772
f 774 773 775
f 774 773 775
f 776 775 773
f 773 772 776
f 776 775 773
f 773 772 776
f 775 57 774
f 775 57 774
f 62 774 57
f 62 774 57
f 775 776 777
f 775 776 777
f 777 53 775
f 57 775 53
f 777 53 775
f 57 775 53
f 778 777 776
f 778 777 776
f 779 776 772
f 776 779 778
f 779 776 772
f 776 779 778
f 772 780 779
f 772 780 779
f 780 772 769
f 780 772 769
f 781 779 780
f 781 779 780
f 782 778 779
f 779 781 782
f 782 778 779
f 779 781 782
f 777 778 783
f 777 778 783
f 784 783 778
f 778 782 784
f 784 783 778
f 778 782 784
f 783 49 777
f 783 49 777
f 53 777 49
f 53 777 49
f 783 784 48
f 783 784 48
f 48 47 783
f 49 783 47
f 48 47 783
f 49 783 47
f 50 48 784
f 50 48 784
f 785 784 782
f 784 785 50
f 785 784 782
f 784 785 50
f 782 786 785
f 782 786 785
f 786 782 781
f 786 782 781
f 6 785 786
f 6 785 786
f 54 50 785
f 785 6 54
f 54 50 785
f 785 6 54
f 786 4 6
f 786 4 6
f 4 786 787
f 4 786 787
f 781 787 786
f 781 787 786
f 787 8 4
f 787 8 4
f 10 54 6
f 10 54 6
f 787 781 788
f 787 781 788
f 780 788 781
f 780 788 781
f 8 787 789
f 788 789 787
f 8 787 789
f 788 789 787
f 789 790 8
f 789 790 8
f 7 8 790
f 7 8 790
f 788 780 791
f 788 780 791
f 769 791 780
f 769 791 780
f 789 788 792
f 791 792 788
f 789 788 792
f 791 792 788
f 790 789 793
f 790 789 793
f 792 793 789
f 792 793 789
f 790 794 7
f 790 794 7
f 9 7 794
f 9 7 794
f 794 790 795
f 794 790 795
f 793 795 790
f 793 795 790
f 791 769 796
f 791 769 796
f 771 796 769
f 771 796 769
f 796 797 791
f 796 797 791
f 792 791 797
f 792 791 797
f 796 771 798
f 796 771 798
f 799 798 771
f 799 798 771
f 797 796 800
f 797 796 800
f 798 800 796
f 798 800 796
f 797 801 792
f 797 801 792
f 793 792 801
f 793 792 801
f 801 797 802
f 801 797 802
f 800 802 797
f 800 802 797
f 801 803 793
f 801 803 793
f 795 793 803
f 795 793 803
f 803 801 804
f 803 801 804
f 802 804 801
f 802 804 801
f 803 805 795
f 803 805 795
f 804 806 803
f 805 803 806
f 804 806 803
f 805 803 806
f 807 795 805
f 807 795 805
f 795 807 794
f 795 807 794
f 808 794 807
f 808 794 807
f 794 808 9
f 794 808 9
f 809 9 808
f 809 9 808
f 9 809 14
f 9 809 14
f 810 14 809
f 810 14 809
f 14 810 15
f 14 810 15
f 811 15 810
f 811 15 810
f 15 811 24
f 15 811 24
f 812 24 811
f 812 24 811
f 24 812 25
f 24 812 25
f 813 25 812
f 813 25 812
f 25 813 34
f 25 813 34
f 814 34 813
f 814 34 813
f 34 814 35
f 34 814 35
f 815 35 814
f 815 35 814
f 35 815 717
f 35 815 717
f 816 717 815
f 816 717 815
f 717 816 718
f 717 816 718
f 817 718 816
f 817 718 816
f 718 817 725
f 718 817 725
f 818 725 817
f 818 725 817
f 725 818 726
f 725 818 726
f 819 726 818
f 819 726 818
f 726 819 733
f 726 819 733
f 820 733 819
f 820 733 819
f 733 820 734
f 733 820 734
f 821 734 820
f 821 734 820
f 734 821 741
f 734 821 741
f 822 741 821
f 822 741 821
f 741 822 823
f 741 822 823
f 824 823 822
f 824 823 822
f 823 824 825
f 823 824 825
f 826 825 824
f 826 825 824
f 825 826 827
f 825 826 827
f 828 827 826
f 828 827 826
f 827 828 829
f 827 828 829
f 830 829 828
f 830 829 828
f 829 830 831
f 829 830 831
f 832 831 830
f 832 831 830
f 831 832 833
f 831 832 833
f 834 833 832
f 834 833 832
f 833 834 799
f 833 834 799
f 798 799 834
f 798 799 834
f 834 835 798
f 834 835 798
f 800 798 835
f 800 798 835
f 832 836 834
f 832 836 834
f 835 834 836
f 835 834 836
f 830 837 832
f 830 837 832
f 836 832 837
f 836 832 837
f 837 830 838
f 837 830 838
f 828 838 830
f 828 838 830
f 835 839 800
f 835 839 800
f 802 800 839
f 802 800 839
f 836 840 835
f 836 840 835
f 839 835 840
f 839 835 840
f 837 841 836
f 837 841 836
f 840 836 841
f 840 836 841
f 838 842 837
f 838 842 837
f 841 837 842
f 841 837 842
f 839 843 802
f 839 843 802
f 804 802 843
f 804 802 843
f 840 844 839
f 840 844 839
f 843 839 844
f 843 839 844
f 841 845 840
f 841 845 840
f 844 840 845
f 844 840 845
f 842 846 841
f 842 846 841
f 845 841 846
f 845 841 846
f 843 847 804
f 843 847 804
f 806 804 847
f 806 804 847
f 844 848 843
f 844 848 843
f 847 843 848
f 847 843 848
f 845 849 844
f 845 849 844
f 848 844 849
f 848 844 849
f 846 42 845
f 846 42 845
f 849 845 42
f 849 845 42
f 42 846 44
f 42 846 44
f 850 44 846
f 850 44 846
f 846 842 850
f 846 842 850
f 851 850 842
f 851 850 842
f 842 838 851
f 842 838 851
f 852 851 838
f 852 851 838
f 838 828 852
f 838 828 852
f 826 852 828
f 826 852 828
f 852 826 853
f 852 826 853
f 824 853 826
f 824 853 826
f 851 852 854
f 853 854 852
f 851 852 854
f 853 854 852
f 850 851 855
f 854 855 851
f 850 851 855
f 854 855 851
f 855 58 850
f 855 58 850
f 44 850 58
f 44 850 58
f 853 824 856
f 853 824 856
f 822 856 824
f 822 856 824
f 854 853 857
f 856 857 853
f 854 853 857
f 856 857 853
f 855 854 858
f 857 858 854
f 855 854 858
f 857 858 854
f 858 60 855
f 858 60 855
f 58 855 60
f 58 855 60
f 856 822 859
f 856 822 859
f 821 859 822
f 821 859 822
f 857 856 860
f 859 860 856
f 857 856 860
f 859 860 856
f 858 857 861
f 860 861 857
f 858 857 861
f 860 861 857
f 861 64 858
f 861 64 858
f 60 858 64
f 60 858 64
f 859 821 862
f 859 821 862
f 820 862 821
f 820 862 821
f 860 859 863
f 862 863 859
f 860 859 863
f 862 863 859
f 861 860 864
f 863 864 860
f 861 860 864
f 863 864 860
f 864 68 861
f 864 68 861
f 64 861 68
f 64 861 68
f 862 820 865
f 862 820 865
f 819 865 820
f 819 865 820
f 863 862 866
f 865 866 862
f 863 862 866
f 865 866 862
f 864 863 867
f 866 867 863
f 864 863 867
f 866 867 863
f 867 72 864
f 867 72 864
f 68 864 72
f 68 864 72
f 865 819 868
f 865 819 868
f 818 868 819
f 818 868 819
f 866 865 869
f 868 869 865
f 866 865 869
f 868 869 865
f 867 866 870
f 869 870 866
f 867 866 870
f 869 870 866
f 870 76 867
f 870 76 867
f 72 867 76
f 72 867 76
f 868 818 871
f 868 818 871
f 817 871 818
f 817 871 818
f 869 868 872
f 871 872 868
f 869 868 872
f 871 872 868
f 870 869 873
f 872 873 869
f 870 869 873
f 872 873 869
f 873 80 870
f 873 80 870
f 76 870 80
f 76 870 80
f 871 817 874
f 871 817 874
f 816 874 817
f 816 874 817
f 872 871 875
f 874 875 871
f 872 871 875
f 874 875 871
f 873 872 876
f 875 876 872
f 873 872 876
f 875 876 872
f 876 84 873
f 876 84 873
f 80 873 84
f 80 873 84
f 874 816 877
f 874 816 877
f 815 877 816
f 815 877 816
f 875 874 878
f 877 878 874
f 875 874 878
f 877 878 874
f 876 875 879
f 878 879 875
f 876 875 879
f 878 879 875
f 879 88 876
f 879 88 876
f 84 876 88
f 84 876 88
f 877 815 880
f 877 815 880
f 814 880 815
f 814 880 815
f 878 877 881
f 880 881 877
f 878 877 881
f 880 881 877
f 879 878 882
f 881 882 878
f 879 878 882
f 881 882 878
f 882 92 879
f 882 92 879
f 88 879 92
f 88 879 92
f 880 814 883
f 880 814 883
f 813 883 814
f 813 883 814
f 881 880 884
f 883 884 880
f 881 880 884
f 883 884 880
f 882 881 885
f 884 885 881
f 882 881 885
f 884 885 881
f 885 96 882
f 885 96 882
f 92 882 96
f 92 882 96
f 883 813 886
f 883 813 886
f 812 886 813
f 812 886 813
f 884 883 887
f 886 887 883
f 884 883 887
f 886 887 883
f 885 884 888
f 887 888 884
f 885 884 888
f 887 888 884
f 888 100 885
f 888 100 885
f 96 885 100
f 96 885 100
f 886 812 889
f 886 812 889
f 811 889 812
f 811 889 812
f 887 886 890
f 889 890 886
f 887 886 890
f 889 890 886
f 888 887 891
f 890 891 887
f 888 887 891
f 890 891 887
f 891 104 888
f 891 104 888
f 100 888 104
f 100 888 104
f 889 811 892
f 889 811 892
f 810 892 811
f 810 892 811
f 890 889 893
f 892 893 889
f 890 889 893
f 892 893 889
f 891 890 894
f 893 894 890
f 891 890 894
f 893 894 890
f 894 108 891
f 894 108 891
f 104 891 108
f 104 891 108
f 892 810 895
f 892 810 895
f 809 895 810
f 809 895 810
f 893 892 896
f 895 896 892
f 893 892 896
f 895 896 892
f 894 893 897
f 896 897 893
f 894 893 897
f 896 897 893
f 897 112 894
f 897 112 894
f 108 894 112
f 108 894 112
f 895 809 898
f 895 809 898
f 808 898 809
f 808 898 809
f 896 895 899
f 898 899 895
f 896 895 899
f 898 899 895
f 897 896 900
f 899 900 896
f 897 896 900
f 899 900 896
f 900 116 897
f 900 116 897
f 112 897 116
f 112 897 116
f 898 808 901
f 898 808 901
f 807 901 808
f 807 901 808
f 899 898 902
f 901 902 898
f 899 898 902
f 901 902 898
f 900 899 903
f 902 903 899
f 900 899 903
f 902 903 899
f 903 120 900
f 903 120 900
f 116 900 120
f 116 900 120
f 901 807 904
f 901 807 904
f 805 904 807
f 805 904 807
f 902 901 905
f 904 905 901
f 902 901 905
f 904 905 901
f 903 902 906
f 905 906 902
f 903 902 906
f 905 906 902
f 906 124 903
f 906 124 903
f 120 903 124
f 120 903 124
f 904 805 907
f 904 805 907
f 806 907 805
f 806 907 805
f 905 904 908
f 907 908 904
f 905 904 908
f 907 908 904
f 906 905 909
f 908 909 905
f 906 905 909
f 908 909 905
f 909 127 906
f 909 127 906
f 124 906 127
f 124 906 127
f 907 806 910
f 907 806 910
f 847 910 806
f 847 910 806
f 908 907 911
f 910 911 907
f 908 907 911
f 910 911 907
f 909 908 912
f 911 912 908
f 909 908 912
f 911 912 908
f 912 130 909
f 912 130 909
f 127 909 130
f 127 909 130
f 910 847 913
f 910 847 913
f 848 913 847
f 848 913 847
f 911 910 914
f 913 914 910
f 911 910 914
f 913 914 910
f 912 911 915
f 914 915 911
f 912 911 915
f 914 915 911
f 915 133 912
f 915 133 912
f 130 912 133
f 130 912 133
f 913 848 916
f 913 848 916
f 849 916 848
f 849 916 848
f 914 913 917
f 916 917 913
f 914 913 917
f 916 917 913
f 915 914 39
f 917 39 914
f 915 914 39
f 917 39 914
f 39 40 915
f 39 40 915
f 133 915 40
f 133 915 40
f 916 849 41
f 916 849 41
f 42 41 849
f 42 41 849
f 917 916 45
f 41 45 916
f 917 916 45
f 41 45 916
f 39 917 37
f 45 37 917
f 39 917 37
f 45 37 917
f 823 740 741
f 823 740 741
f 918 739 740
f 740 823 918
f 918 739 740
f 740 823 918
f 738 739 919
f 738 739 919
f 920 919 739
f 739 918 920
f 920 919 739
f 739 918 920
f 919 90 738
f 919 90 738
f 94 738 90
f 94 738 90
f 919 920 921
f 919 920 921
f 921 86 919
f 90 919 86
f 921 86 919
f 90 919 86
f 922 921 920
f 922 921 920
f 923 920 918
f 920 923 922
f 923 920 918
f 920 923 922
f 918 825 923
f 918 825 923
f 825 918 823
f 825 918 823
f 827 923 825
f 827 923 825
f 924 922 923
f 923 827 924
f 924 922 923
f 923 827 924
f 921 922 925
f 921 922 925
f 926 925 922
f 922 924 926
f 926 925 922
f 922 924 926
f 925 82 921
f 925 82 921
f 86 921 82
f 86 921 82
f 925 926 927
f 925 926 927
f 927 78 925
f 82 925 78
f 927 78 925
f 82 925 78
f 928 927 926
f 928 927 926
f 929 926 924
f 926 929 928
f 929 926 924
f 926 929 928
f 924 829 929
f 924 829 929
f 829 924 827
f 829 924 827
f 831 929 829
f 831 929 829
f 930 928 929
f 929 831 930
f 930 928 929
f 929 831 930
f 927 928 931
f 927 928 931
f 932 931 928
f 928 930 932
f 932 931 928
f 928 930 932
f 931 74 927
f 931 74 927
f 78 927 74
f 78 927 74
f 931 932 933
f 931 932 933
f 933 70 931
f 74 931 70
f 933 70 931
f 74 931 70
f 934 933 932
f 934 933 932
f 935 932 930
f 932 935 934
f 935 932 930
f 932 935 934
f 930 833 935
f 930 833 935
f 833 930 831
f 833 930 831
f 799 935 833
f 799 935 833
f 936 934 935
f 935 799 936
f 936 934 935
f 935 799 936
f 933 934 937
f 933 934 937
f 938 937 934
f 934 936 938
f 938 937 934
f 934 936 938
f 937 66 933
f 937 66 933
f 70 933 66
f 70 933 66
f 937 938 774
f 937 938 774
f 774 62 937
f 66 937 62
f 774 62 937
f 66 937 62
f 773 774 938
f 773 774 938
f 770 938 936
f 938 770 773
f 770 938 936
f 938 770 773
f 936 771 770
f 936 771 770
f 771 936 799
f 771 936 799
f 600 223 224
f 600 223 224
f 939 222 223
f 223 600 939
f 939 222 223
f 223 600 939
f 220 222 940
f 220 222 940
f 941 940 222
f 222 939 941
f 941 940 222
f 222 939 941
f 940 278 220
f 940 278 220
f 221 220 278
f 221 220 278
f 940 941 942
f 940 941 942
f 942 274 940
f 278 940 274
f 942 274 940
f 278 940 274
f 943 942 941
f 943 942 941
f 944 941 939
f 941 944 943
f 944 941 939
f 941 944 943
f 939 602 944
f 939 602 944
f 602 939 600
f 602 939 600
f 604 944 602
f 604 944 602
f 945 943 944
f 944 604 945
f 945 943 944
f 944 604 945
f 942 943 946
f 942 943 946
f 947 946 943
f 943 945 947
f 947 946 943
f 943 945 947
f 946 270 942
f 946 270 942
f 274 942 270
f 274 942 270
f 946 947 948
f 946 947 948
f 948 266 946
f 270 946 266
f 948 266 946
f 270 946 266
f 949 948 947
f 949 948 947
f 950 947 945
f 947 950 949
f 950 947 945
f 947 950 949
f 945 606 950
f 945 606 950
f 606 945 604
f 606 945 604
f 608 950 606
f 608 950 606
f 951 949 950
f 950 608 951
f 951 949 950
f 950 608 951
f 948 949 952
f 948 949 952
f 953 952 949
f 949 951 953
f 953 952 949
f 949 951 953
f 952 262 948
f 952 262 948
f 266 948 262
f 266 948 262
f 952 953 954
f 952 953 954
f 954 258 952
f 262 952 258
f 954 258 952
f 262 952 258
f 955 954 953
f 955 954 953
f 956 953 951
f 953 956 955
f 956 953 951
f 953 956 955
f 951 610 956
f 951 610 956
f 610 951 608
f 610 951 608
f 571 956 610
f 571 956 610
f 957 955 956
f 956 571 957
f 957 955 956
f 956 571 957
f 954 955 958
f 954 955 958
f 959 958 955
f 955 957 959
f 959 958 955
f 955 957 959
f 958 254 954
f 958 254 954
f 258 954 254
f 258 954 254
f 958 959 541
f 958 959 541
f 541 250 958
f 254 958 250
f 541 250 958
f 254 958 250
f 540 541 959
f 540 541 959
f 537 959 957
f 959 537 540
f 537 959 957
f 959 537 540
f 957 538 537
f 957 538 537
f 538 957 571
f 538 957 571
f 535 960 531
f 535 960 531
f 532 531 960
f 532 531 960
f 533 440 961
f 533 440 961
f 441 961 440
f 441 961 440
f 534 533 962
f 961 962 533
f 534 533 962
f 961 962 533
f 535 534 373
f 962 373 534
f 535 534 373
f 962 373 534
f 373 372 535
f 373 372 535
f 960 535 372
f 960 535 372
f 373 962 371
f 373 962 371
f 372 374 960
f 372 374 960
f 963 960 374
f 963 960 374
f 960 963 532
f 960 963 532
f 964 371 962
f 964 371 962
f 962 961 964
f 962 961 964
f 371 964 363
f 371 964 363
f 374 377 963
f 374 377 963
f 965 964 961
f 965 964 961
f 961 441 965
f 961 441 965
f 966 363 964
f 966 363 964
f 964 965 966
f 964 965 966
f 363 966 361
f 363 966 361
f 448 965 441
f 448 965 441
f 965 448 967
f 965 448 967
f 967 966 965
f 967 966 965
f 452 967 448
f 452 967 448
f 968 361 966
f 968 361 966
f 966 967 968
f 966 967 968
f 361 968 178
f 361 968 178
f 967 452 969
f 967 452 969
f 969 968 967
f 969 968 967
f 456 969 452
f 456 969 452
f 970 178 968
f 970 178 968
f 968 969 970
f 968 969 970
f 178 970 176
f 178 970 176
f 969 456 971
f 969 456 971
f 971 970 969
f 971 970 969
f 460 971 456
f 460 971 456
f 972 176 970
f 972 176 970
f 970 971 972
f 970 971 972
f 176 972 168
f 176 972 168
f 971 460 973
f 971 460 973
f 973 972 971
f 973 972 971
f 464 973 460
f 464 973 460
f 974 168 972
f 974 168 972
f 972 973 974
f 972 973 974
f 168 974 166
f 168 974 166
f 973 464 975
f 973 464 975
f 975 974 973
f 975 974 973
f 468 975 464
f 468 975 464
f 976 166 974
f 976 166 974
f 974 975 976
f 974 975 976
f 166 976 158
f 166 976 158
f 975 468 977
f 975 468 977
f 977 976 975
f 977 976 975
f 472 977 468
f 472 977 468
f 978 158 976
f 978 158 976
f 976 977 978
f 976 977 978
f 158 978 156
f 158 978 156
f 977 472 979
f 977 472 979
f 979 978 977
f 979 978 977
f 476 979 472
f 476 979 472
f 980 156 978
f 980 156 978
f 978 979 980
f 978 979 980
f 156 980 148
f 156 980 148
f 979 476 981
f 979 476 981
f 981 980 979
f 981 980 979
f 480 981 476
f 480 981 476
f 982 148 980
f 982 148 980
f 980 981 982
f 980 981 982
f 148 982 145
f 148 982 145
f 981 480 983
f 981 480 983
f 983 982 981
f 983 982 981
f 484 983 480
f 484 983 480
f 984 145 982
f 984 145 982
f 982 983 984
f 982 983 984
f 145 984 146
f 145 984 146
f 983 484 985
f 983 484 985
f 985 984 983
f 985 984 983
f 488 985 484
f 488 985 484
f 986 146 984
f 986 146 984
f 984 985 986
f 984 985 986
f 146 986 768
f 146 986 768
f 985 488 987
f 985 488 987
f 987 986 985
f 987 986 985
f 492 987 488
f 492 987 488
f 988 768 986
f 988 768 986
f 986 987 988
f 986 987 988
f 768 988 762
f 768 988 762
f 987 492 989
f 987 492 989
f 989 988 987
f 989 988 987
f 496 989 492
f 496 989 492
f 990 762 988
f 990 762 988
f 988 989 990
f 988 989 990
f 762 990 760
f 762 990 760
f 989 496 991
f 989 496 991
f 991 990 989
f 991 990 989
f 500 991 496
f 500 991 496
f 992 760 990
f 992 760 990
f 990 991 992
f 990 991 992
f 760 992 754
f 760 992 754
f 991 500 993
f 991 500 993
f 993 992 991
f 993 992 991
f 504 993 500
f 504 993 500
f 994 754 992
f 994 754 992
f 992 993 994
f 992 993 994
f 754 994 752
f 754 994 752
f 993 504 995
f 993 504 995
f 995 994 993
f 995 994 993
f 508 995 504
f 508 995 504
f 996 752 994
f 996 752 994
f 994 995 996
f 994 995 996
f 752 996 746
f 752 996 746
f 995 508 997
f 995 508 997
f 997 996 995
f 997 996 995
f 512 997 508
f 512 997 508
f 998 746 996
f 998 746 996
f 996 997 998
f 996 997 998
f 746 998 744
f 746 998 744
f 997 512 999
f 997 512 999
f 999 998 997
f 999 998 997
f 516 999 512
f 516 999 512
f 1000 744 998
f 1000 744 998
f 998 999 1000
f 998 999 1000
f 744 1000 351
f 744 1000 351
f 999 516 1001
f 999 516 1001
f 1001 1000 999
f 1001 1000 999
f 520 1001 516
f 520 1001 516
f 1002 351 1000
f 1002 351 1000
f 1000 1001 1002
f 1000 1001 1002
f 351 1002 349
f 351 1002 349
f 1001 520 1003
f 1001 520 1003
f 1003 1002 1001
f 1003 1002 1001
f 524 1003 520
f 524 1003 520
f 1004 349 1002
f 1004 349 1002
f 1002 1003 1004
f 1002 1003 1004
f 349 1004 341
f 349 1004 341
f 1003 524 1005
f 1003 524 1005
f 1005 1004 1003
f 1005 1004 1003
f 528 1005 524
f 528 1005 524
f 1006 341 1004
f 1006 341 1004
f 1004 1005 1006
f 1004 1005 1006
f 341 1006 339
f 341 1006 339
f 1005 528 1007
f 1005 528 1007
f 1007 1006 1005
f 1007 1006 1005
f 532 1007 528
f 532 1007 528
f 1008 339 1006
f 1008 339 1006
f 1006 1007 1008
f 1006 1007 1008
f 339 1008 330
f 339 1008 330
f 377 330 1008
f 377 330 1008
f 1007 532 963
f 1007 532 963
f 1008 963 377
f 1008 963 377
f 963 1008 1007
f 963 1008 1007
