v -0.176041767 0.00146345212 0.0671116486
v -0.176042482 0.015361229 0.0670816675
v -0.175333902 0.0153604541 0.0667544976
v -0.175333962 0.031696476 0.0667181388
v -0.176544234 0.00138632371 0.0677677169
v -0.176545069 0.0153001938 0.0677385107
v -0.1766821 0.00130973174 0.0682941452
v -0.176071092 -0.0101090278 0.0677867904
v -0.176209435 -0.0101929512 0.0683170334
v -0.17476891 -0.019302031 0.0683324113
v -0.176042542 0.0316971913 0.0670453086
v -0.175334021 0.0501504317 0.0666771308
v -0.176042542 0.0501511469 0.0670043007
v -0.176545069 0.0316484347 0.0677022114
v -0.176545128 0.0501176491 0.0676611438
v -0.176545128 0.0703727379 0.0676160827
v -0.176042601 0.0703891292 0.0669592991
v -0.176682636 0.0315950289 0.0682275668
v -0.176545128 0.114899911 0.0675170794
v -0.176042601 0.114881314 0.0668603554
v -0.176042542 0.137351558 0.0668104067
v -0.176682577 0.0152334366 0.0682639256
v -0.176479325 0.0315465108 0.0689988509
v -0.176479325 0.0151726399 0.0690353289
v -0.176478907 0.00124720647 0.0690653697
v -0.176007137 -0.0102350917 0.0690877214
v -0.17457585 -0.0192862954 0.069103159
v -0.171792373 -0.0260300245 0.0683444515
v -0.171649024 -0.0259044971 0.0691191331
v -0.166722044 -0.0301884618 0.0683656111
v -0.166706786 -0.029958209 0.0691439882
v -0.155827209 -0.0322039947 0.0683896318
v -0.155910656 -0.0319513902 0.0691647306
v -0.135282263 -0.0328494534 0.068397738
v -0.135380134 -0.0325953588 0.069172956
v -0.10091012 -0.0328497514 0.0683989301
v -0.100988917 -0.0325955376 0.0691741481
v -0.0486313626 -0.0328497514 0.0683989301
v -0.100988917 -0.0318358168 0.0698001161
v -0.135367379 -0.0318358168 0.0698000565
v -0.155826196 -0.0311975684 0.0697985068
v -0.166382596 -0.0292828288 0.0697940961
v -0.171053514 -0.0254533496 0.0697854534
v -0.173856124 -0.0190708246 0.0697710887
v -0.175257429 -0.0101573672 0.0697511211
v -0.175724551 0.00126496865 0.0697256103
v -0.175724551 0.01517413 0.0696945563
v -0.175724551 0.0315480009 0.0696580783
v -0.176479265 0.0500476137 0.0689577237
v -0.175724551 0.0500490442 0.069616951
v -0.176682636 0.0500808135 0.0681864396
v -0.176479325 0.0703383461 0.068912603
v -0.175724551 0.0703397766 0.0695717707
v -0.176682636 0.0703544989 0.0681413189
v -0.176479325 0.0920811668 0.0688642636
v -0.175724551 0.0920825973 0.0695234314
v -0.176682636 0.1149197 0.0680422559
v -0.175724551 0.114940025 0.0694726482
v -0.176545128 0.137386248 0.0674670711
v -0.176479325 0.114938535 0.0688134208
v -0.176682636 0.1374235 0.067992188
v -0.176479265 0.137458429 0.0687633529
v -0.175724551 0.137459859 0.0694225803
v -0.176479325 0.158188626 0.0687172785
v -0.175724551 0.158190116 0.0693765059
v -0.176682636 0.158139452 0.0679461733
v -0.176545069 0.158086702 0.0674210563
v -0.176479325 0.175677106 0.0686784163
v -0.175724551 0.175678536 0.0693377033
v -0.176042542 0.158037826 0.066764392
v -0.176545069 0.175550625 0.0673821941
v -0.176042482 0.175490007 0.0667255893
v -0.176478729 0.188492462 0.0686487928
v -0.176682577 0.17561619 0.067907311
v -0.175724551 0.188473091 0.0693093315
v -0.176001891 0.197497115 0.0686246529
v -0.176681921 0.188431129 0.0678779259
v -0.176543996 0.188354954 0.0673515573
v -0.176041529 0.188275501 0.0666960254
v -0.175257429 0.19738768 0.0692896619
v -0.176064476 0.197382137 0.067322351
v -0.175565109 0.197251901 0.0666708127
v -0.174528465 0.203560457 0.0686075464
v -0.176202938 0.197467789 0.0678539053
v -0.173856124 0.203236088 0.0692767873
v -0.17152296 0.207411632 0.0686046258
v -0.174704716 0.203625247 0.0678338185
v -0.174565837 0.203535363 0.0672951117
v -0.174095675 0.203289494 0.0666471496
v -0.171053514 0.206832156 0.0692689791
v -0.171463773 0.207509264 0.067295827
v -0.171098992 0.207127318 0.0666427389
v -0.166590735 0.209712192 0.0686160102
v -0.171605572 0.207594439 0.0678283349
v -0.166382596 0.208989844 0.06926433
v -0.155874357 0.210823402 0.0686265603
v -0.16655241 0.209952101 0.0678393617
v -0.166415259 0.209866986 0.0673273578
v -0.166189 0.209418103 0.066659607
v -0.155826256 0.210068628 0.069262065
v -0.155656442 0.21098493 0.0673510209
v -0.15551649 0.210526034 0.0666731969
v -0.135374591 0.211184964 0.0686297789
v -0.155776486 0.211071119 0.0678505674
v 0.176160231 0.20623605 0.0535197034
v 0.15632011 0.206566676 0.0534853712
v 0.157670006 0.208017036 0.057456769
v 0.122932501 0.206566259 0.0534840599
v 0.177726403 0.20766513 0.0574597493
v 0.123968728 0.208016559 0.0574551001
v 0.188075706 0.206608221 0.0574645773
v 0.0726847723 0.208016261 0.0574540868
v 0.186324582 0.205243334 0.053619422
v 0.0721258 0.20656608 0.0534832254
v 0.190747455 0.203227326 0.0536896363
v 0.0126094893 0.206565961 0.053482987
v 0.0126094893 0.208016202 0.0574537292
v 0.192655668 0.204493746 0.0574719086
v -0.0474657938 0.208016261 0.0574540868
v 0.195404068 0.200969085 0.0574823394
v 0.193363145 0.199826702 0.0536355749
v -0.0469068214 0.20656608 0.0534832254
v 0.194647357 0.194220468 0.0535543934
v -0.0977135226 0.206566259 0.0534840599
v -0.0987497494 0.208016559 0.0574551001
v 0.196778789 0.19523637 0.057497479
v -0.132451043 0.208017036 0.057456769
v 0.197237566 0.186497733 0.0575189367
v 0.195075855 0.18558751 0.0535433069
v -0.131101117 0.206566676 0.0534853712
v 0.195076421 0.17316179 0.0535722151
v -0.150941238 0.20623605 0.0535197034
v -0.152507409 0.20766513 0.0574597493
v 0.196872965 -0.025944313 0.0678062215
v 0.19984965 -0.0192132201 0.0677954927
v 0.199987933 -0.019302031 0.0683324113
v 0.196867988 -0.0259044971 0.0691191331
v 0.199794874 -0.0192862954 0.069103159
v 0.199075118 -0.0190708246 0.0697710887
v 0.200476423 -0.0101573672 0.0697511211
v 0.201290146 -0.0101090278 0.0677867904
v 0.200789407 -0.00999744795 0.0671336427
v 0.201428428 -0.0101930108 0.0683170334
v 0.20122613 -0.0102350917 0.0690877214
v 0.200943515 0.00126496865 0.0697256103
v 0.201697871 0.00124720647 0.0690653697
v 0.201901123 0.00130973174 0.0682941452
v 0.2019016 0.0152334366 0.0682639256
v 0.201764062 0.0153001938 0.0677385107
v 0.20190163 0.0315950289 0.0682275668
v 0.201763287 0.00138632371 0.0677677169
v 0.20126079 0.00146345212 0.0671116486
v 0.200086609 -0.00993098877 0.066810824
v 0.200552836 0.00147632672 0.0667854324
v 0.201261476 0.0153611694 0.0670816675
v 0.200552925 0.0153604541 0.0667544976
v 0.201261535 0.0316971913 0.0670453086
v 0.200552955 0.031696476 0.0667181388
v 0.201764062 0.0316484347 0.0677022114
v 0.201764122 0.0501176491 0.0676611438
v 0.201261565 0.0501511469 0.0670043007
v 0.200552985 0.0501504317 0.0666771308
v 0.201764122 0.0703727379 0.0676160827
v 0.201261565 0.0703891292 0.0669592991
v 0.200553015 0.070388414 0.0666321293
v 0.201764122 0.114899911 0.0675170794
v 0.201261565 0.114881314 0.0668603554
v 0.200553015 0.114880599 0.0665331855
v 0.201261565 0.137351558 0.0668104067
v 0.200552985 0.137350842 0.0664832368
v 0.201261535 0.158037826 0.066764392
v 0.200552955 0.158037052 0.0664372221
v -0.135367379 0.210428223 0.0692613497
v -0.100988917 0.211185083 0.0686304942
v -0.135274693 0.211433157 0.0678535476
v -0.135171756 0.211346969 0.0673566833
v -0.135065719 0.210887477 0.0666760579
v -0.100988917 0.210428223 0.0692614689
v -0.10083162 0.211347148 0.0673576966
v -0.100752883 0.210887656 0.0666765943
v -0.0486738607 0.211185083 0.0686304942
v -0.100910179 0.211433277 0.0678542033
v -0.0486738607 0.210428223 0.0692615286
v 0.0126094893 0.211185083 0.0686304942
v -0.0486314222 0.211433277 0.0678542033
v -0.0485889837 0.211347148 0.0673576966
v -0.0485464856 0.210887596 0.0666765943
v 0.0126094893 0.210428223 0.0692615286
v 0.0126094893 0.211347088 0.0673576966
v 0.0126094893 0.210887596 0.0666765943
v 0.0737655237 0.210887596 0.0666765943
v 0.0738928393 0.211185083 0.0686304942
v 0.0738928393 0.210428223 0.0692615286
v 0.0126094893 0.211433277 0.0678542033
v 0.0738504007 0.211433277 0.0678542033
v 0.126207933 0.211185083 0.0686304942
v 0.126207933 0.210428223 0.0692614689
v 0.160593584 0.211185023 0.0686297789
v 0.160586372 0.210428223 0.0692613497
v 0.126129195 0.211433277 0.0678542033
v 0.18109335 0.210823402 0.0686265603
v 0.181045249 0.210068628 0.069262065
v 0.160493717 0.211433157 0.0678535476
v 0.191809759 0.209712192 0.0686160102
v 0.191601589 0.208989844 0.06926433
v 0.180995479 0.211071119 0.0678505674
v 0.196741953 0.207411632 0.0686046258
v 0.196272537 0.206832156 0.0692689791
v 0.191771403 0.209952101 0.0678393617
v 0.199747488 0.203560457 0.0686075464
v 0.199075118 0.203236088 0.0692767873
v 0.196824566 0.207594439 0.0678283349
v 0.201220885 0.197497115 0.0686246529
v 0.200476423 0.19738768 0.0692896619
v 0.199923739 0.203625247 0.0678338185
v 0.201697722 0.188492462 0.0686487928
v 0.200943515 0.188473091 0.0693093315
v 0.201421961 0.197467789 0.0678539053
v 0.201698318 0.175677106 0.0686784163
v 0.200943545 0.175678536 0.0693377033
v 0.201900914 0.188431129 0.0678779259
v 0.201698318 0.158188626 0.0687172785
v 0.200943545 0.158190116 0.0693765059
v 0.2019016 0.17561619 0.067907311
v 0.201698288 0.137458429 0.0687633529
v 0.200943545 0.137459859 0.0694225803
v 0.20190163 0.158139452 0.0679461733
v 0.201698318 0.114938535 0.0688134208
v 0.200943574 0.114940025 0.0694726482
v 0.20190163 0.1374235 0.067992188
v 0.201698318 0.0703383461 0.068912603
v 0.200943574 0.0703397766 0.0695717707
v 0.201764062 0.175550625 0.0673821941
v 0.201698288 0.0500476137 0.0689577237
v 0.200943545 0.0500490442 0.069616951
v 0.201698318 0.0315465108 0.0689988509
v 0.200943545 0.0315480009 0.0696580783
v 0.20190163 0.0500808135 0.0681864396
v 0.201698318 0.0151726399 0.0690353289
v 0.200943545 0.01517413 0.0696945563
v 0.201901659 0.0703544393 0.0681413189
v 0.201901659 0.1149197 0.0680422559
v 0.201764122 0.137386248 0.0674670711
v 0.201764062 0.158086702 0.0674210563
v 0.201261476 0.175489947 0.0667255893
v 0.201260522 0.188275501 0.0666960254
v 0.201763019 0.188354954 0.0673515573
v 0.200784072 0.197251901 0.0666708127
v 0.20128347 0.197382137 0.067322351
v 0.199314639 0.203289494 0.0666471496
v 0.19978486 0.203535363 0.0672951117
v 0.196317986 0.207127318 0.0666427389
v 0.196682766 0.207509264 0.067295827
v 0.191408023 0.209418103 0.066659607
v 0.191634223 0.209866986 0.0673273578
v 0.180735484 0.210526034 0.0666731969
v 0.180875435 0.21098493 0.0673510209
v 0.160284713 0.210887477 0.0666760579
v 0.16039075 0.211346969 0.0673566833
v 0.125971869 0.210887656 0.0666765943
v 0.126050606 0.211347148 0.0673576966
v 0.0738079622 0.211347148 0.0673576966
v 0.0126094893 -0.0327684507 0.0679032579
v 0.0126094893 -0.0328497514 0.0683989301
v 0.0126094893 -0.0325955376 0.0691742077
v 0.0738503411 -0.0328497514 0.0683989301
v -0.0486738607 -0.0325955376 0.0691742077
v -0.0486738607 -0.0318358168 0.0698001757
v 0.0126094893 -0.0318358168 0.0698002353
v 0.0738928989 -0.0318358168 0.0698001757
v 0.0738928989 -0.0325955376 0.0691742077
v 0.126207933 -0.0318358168 0.0698001161
v 0.126207933 -0.0325955376 0.0691741481
v 0.160586372 -0.0318358168 0.0698000565
v 0.126129106 -0.0328497514 0.0683989301
v 0.160599157 -0.0325953588 0.069172956
v 0.181045219 -0.0311975684 0.0697985068
v 0.160501286 -0.0328494534 0.068397738
v 0.126050726 -0.0327684507 0.0679032579
v 0.0738080218 -0.0327684507 0.0679032579
v 0.181129649 -0.0319513902 0.0691647306
v 0.191601589 -0.0292828884 0.0697940961
v 0.181046203 -0.0322039947 0.0683896318
v 0.0737655237 -0.0323144421 0.067218937
v 0.0126094893 -0.0323143825 0.067218937
v 0.0737655237 -0.0315941796 0.0668591633
v 0.125971869 -0.0323144421 0.067218937
v 0.125971869 -0.0315941796 0.0668591633
v 0.160289243 -0.0323140845 0.0672179237
v 0.160278931 -0.0315942988 0.0668591633
v 0.160398111 -0.032768093 0.0679015294
v 0.18076621 -0.0316696987 0.0672097579
v 0.18069534 -0.0309564676 0.0668577328
v 0.180923954 -0.0321223959 0.067888476
v 0.191513106 -0.0296813454 0.0671800748
v 0.191229895 -0.0290428605 0.0668534413
v 0.196442559 -0.0256344881 0.0671557561
v 0.195891246 -0.025215527 0.0668448582
v 0.191800669 -0.0301087704 0.067845799
v 0.191941038 -0.0301884618 0.0683656111
v 0.199361548 -0.0190296378 0.0671466962
v 0.198688105 -0.0188365784 0.0668306723
v 0.191925809 -0.029958209 0.0691439882
v 0.196272537 -0.0254533496 0.0697854534
v 0.197011366 -0.0260300245 0.0683444515
v -0.10083168 -0.0327684507 0.0679032579
v -0.0485890433 -0.0327684507 0.0679032579
v -0.0485465452 -0.0323144421 0.067218937
v -0.100752883 -0.0323144421 0.067218937
v -0.100752883 -0.0315941796 0.0668591633
v -0.0485465452 -0.0315941796 0.0668591633
v -0.135059878 -0.0315942988 0.0668591633
v 0.0126094893 -0.0315941796 0.0668591633
v -0.135070249 -0.0323140845 0.0672179237
v -0.155476376 -0.0309564676 0.0668577328
v -0.135179088 -0.032768093 0.0679015294
v -0.155547187 -0.0316696987 0.0672097579
v -0.166010901 -0.0290428605 0.0668534413
v -0.15570496 -0.0321223959 0.067888476
v -0.166294083 -0.0296813454 0.0671800748
v -0.170672223 -0.025215527 0.0668449178
v -0.166581675 -0.0301087704 0.067845799
v -0.171223566 -0.0256344881 0.0671557561
v -0.173469111 -0.0188365784 0.0668306723
v -0.171653971 -0.025944313 0.0678062215
v -0.174142525 -0.0190296378 0.0671466962
v -0.174867615 -0.00993098877 0.066810824
v -0.174630627 -0.0192132201 0.0677954927
v -0.175570413 -0.00999744795 0.0671336427
v -0.175333843 0.00147632672 0.0667854324
v 0.0555107072 0.0429592505 0.0755714551
v 0.0554347709 0.0436177626 0.0755700245
v 0.0553690866 0.0436029807 0.075820066
v 0.0551477745 0.0442213789 0.0758186355
v 0.0554437712 0.0429559723 0.0758214965
v 0.0552083328 0.0442504659 0.075568594
v 0.0551896766 0.0435614958 0.0760031715
v 0.0549823716 0.044140853 0.0760018602
v 0.0552607253 0.0429457799 0.0760044828
v 0.0553690866 0.0436018482 0.0753200427
v 0.0554437712 0.0429548398 0.0753214732
v 0.0555107072 0.00338385417 0.0756594911
v 0.0554437712 0.00338719203 0.0754094496
v 0.0554437712 0.00338826491 0.075909473
v 0.0554347113 0.00272534206 0.0756609216
v 0.0553690866 0.00274012401 0.0754108801
v 0.0552607253 0.00339732482 0.0752264038
v 0.0551896766 0.00278166845 0.0752277747
v 0.0552607253 0.0429438725 0.0751384869
v 0.0549446419 0.00283876969 0.0751606598
v 0.0550107434 0.00341157033 0.0751594082
v 0.0547564104 0.0023126991 0.0751618519
v 0.0549823716 0.00220225169 0.075229086
v 0.0534990504 0.0449491516 0.0751340166
v 0.0539164618 0.0446836725 0.0751346126
v 0.0538013056 0.0445404425 0.0753179565
v 0.0534181669 0.0447841659 0.0753174201
v 0.0530264452 0.0451183096 0.0751336589
v 0.0541212633 0.0442204252 0.0753186718
v 0.0542649105 0.0443352237 0.0751353875
v 0.054073818 0.0448797122 0.0750671998
v 0.054461129 0.0444924012 0.0750680342
v 0.0542311743 0.0450760499 0.0751337186
v 0.0545304492 0.0439177528 0.0751363412
v 0.0543650463 0.0438372269 0.0753195062
v 0.054068692 0.0441788211 0.0755687729
v 0.054304488 0.0438081399 0.0755696073
v 0.0537591651 0.0444884077 0.0755680576
v 0.0543650463 0.0438383594 0.0758195296
v 0.0541212633 0.0442215577 0.0758186355
v 0.0545201972 0.043404676 0.0758204833
v 0.0544545725 0.0433887616 0.0755705014
v 0.0545201972 0.0434035435 0.0753204599
v 0.0545107201 0.0429016128 0.0755715743
v 0.0545777157 0.0429060236 0.0758216158
v 0.0546996072 0.0434469953 0.0760034099
v 0.0547607616 0.0429169908 0.076004602
v 0.0545304492 0.0439197198 0.076002337
v 0.0550107434 0.0429315343 0.076071538
v 0.0549446419 0.0435043946 0.0760702863
v 0.0550107434 0.00341383531 0.0761593953
v 0.0547607616 0.00342808082 0.0760923997
v 0.0545777157 0.00343821361 0.0759093538
v 0.0546996072 0.00289807632 0.0760935321
v 0.0549446419 0.00284097507 0.076160647
v 0.0552607253 0.00339923217 0.0760924593
v 0.0551896766 0.00278357579 0.0760938302
v 0.0553690866 0.0027412565 0.0759109035
v 0.0547564104 0.0440304056 0.0760690942
v 0.0552083328 0.00209263875 0.0756623521
v 0.0551477745 0.00212172582 0.0754122511
v 0.0551477745 0.00212285831 0.0759122744
v 0.0548009947 0.00157652213 0.0754135028
v 0.0546573475 0.00169132068 0.0752302185
v 0.054853566 0.00153491809 0.0756636038
v 0.0549823716 0.00220421865 0.0760950819
v 0.0548009947 0.00157765462 0.0759134665
v 0.0547564104 0.00231490447 0.0761618391
v 0.0546573475 0.00169322803 0.0760962144
v 0.054461129 0.0018507035 0.0761628523
v 0.0545304492 0.00242535188 0.076094605
v 0.0545201972 0.00293962075 0.0759104267
v 0.0545107201 0.00344155147 0.0756593123
v 0.0545777157 0.0429048911 0.0753215924
v 0.0546996072 0.0434450284 0.0751373544
v 0.0547564104 0.0440282002 0.0750691071
v 0.0546573475 0.0446498767 0.0751346722
v 0.0543463901 0.0452201143 0.0753164664
v 0.0538011268 0.0455669537 0.0753156915
v 0.0538307503 0.0456280485 0.0755655542
v 0.0531979278 0.0458544865 0.0755650178
v 0.0531826094 0.0457893386 0.0758151785
v 0.052535601 0.0458639637 0.0758149996
v 0.0525251105 0.0456813946 0.0759984031
v -0.0276412889 0.0456813946 0.0759984031
v -0.0276269242 0.045431532 0.0760659948
v -0.0281997249 0.0453654304 0.076066114
v -0.028142564 0.0451202169 0.0759996548
v -0.0286152288 0.0449511185 0.0760000721
v -0.0285342261 0.0447852984 0.0758173838
v -0.0289173648 0.044541575 0.0758179799
v -0.0288752243 0.0444884673 0.0755680576
v -0.0291848704 0.0441788211 0.0755687729
v -0.0292374417 0.0442204252 0.0753186718
v -0.0294812247 0.0438372269 0.0753195062
v -0.0296466276 0.0439177528 0.0751363412
v -0.0298157856 0.0434450284 0.0751373544
v -0.0300608203 0.0435021296 0.0750702396
v -0.0301269218 0.042929329 0.0750715509
v -0.0303769037 0.0429438725 0.0751384869
v -0.0303769037 0.00339732482 0.0752264038
v -0.03055989 0.00338719203 0.0754094496
v -0.030485265 0.00274012401 0.0754108801
v -0.0305508897 0.00272534206 0.0756609216
v -0.0303245112 0.00209263875 0.0756623521
v -0.0302639529 0.00212285831 0.0759122744
v -0.0299171731 0.00157765462 0.0759134665
v -0.0297735259 0.00169322803 0.0760962144
v -0.0293473527 0.00126705482 0.076097168
v -0.0291899964 0.00146345212 0.0761637464
v -0.0287257954 0.00116811111 0.0761644021
v -0.0286152288 0.00139395311 0.0760969296
v -0.028142564 0.00122485473 0.0760972872
v -0.0281007215 0.00140384748 0.0759138837
v -0.0276020095 0.00134626939 0.075914003
v -0.0275981948 0.00141272857 0.0756638423
v 0.0524820164 0.00141272857 0.0756638423
v 0.0524858311 0.0013451369 0.0754139796
v 0.0529845431 0.00140271499 0.0754138604
v 0.0530263856 0.00122288777 0.0752312317
v 0.0534990504 0.00139198615 0.0752308741
v 0.0536096171 0.00116590573 0.0751644149
v 0.054073818 0.00146118714 0.0751637593
v 0.0542312339 0.00126520707 0.0752311721
v 0.0543464497 0.00112197711 0.075414516
v 0.0537202433 0.000940123398 0.0752318874
v 0.0530835465 0.000977674266 0.0751648322
v 0.0524963811 0.00116173341 0.0752314106
v 0.0543886498 0.00107000186 0.0756646171
v 0.0538011864 0.000775137742 0.0754152909
v 0.0531407073 0.000732758839 0.0752323642
v 0.0525107458 0.000911572773 0.0751649514
v 0.0543464497 0.0011231096 0.0759144798
v 0.0538308695 0.000715115864 0.075665392
v 0.0531825498 0.000553766091 0.0754157677
v 0.0525251105 0.000661769707 0.0752324834
v 0.0542312339 0.00126711442 0.076097168
v 0.0538011864 0.000776210625 0.0759152547
v 0.0531978682 0.000488677819 0.0756659284
v 0.052535601 0.000479141076 0.0754159465
v 0.0525394753 0.000412681897 0.0756660476
v 0.0531825498 0.000554898579 0.0759157315
v 0.0537202433 0.000942030747 0.0760978833
v 0.054073818 0.00146345212 0.0761637464
v 0.0542649105 0.00200788095 0.0760955587
v 0.0543650463 0.00250587775 0.07591144
v 0.0544545725 0.00295440271 0.0756604448
v 0.0545777157 0.00343714072 0.0754093304
v 0.0547607616 0.0429150239 0.0751385465
v 0.0549446419 0.0435021296 0.0750702396
v 0.0549823716 0.0441389456 0.0751358047
v 0.0548009947 0.0447655097 0.0753174797
v 0.0543885306 0.045273222 0.0755663291
v 0.0538011268 0.0455680266 0.0758156553
v 0.0531407073 0.0456103459 0.0759985819
v 0.0525107458 0.045431532 0.0760659948
v -0.0276125595 0.0451813713 0.0759995356
v -0.0281007215 0.0449404493 0.0758170858
v -0.0285046026 0.0447242036 0.0755675212
v -0.0289173648 0.0445405021 0.0753179565
v -0.0293810889 0.0443352237 0.0751353875
v -0.0298725888 0.0440282002 0.0750691071
v -0.030305855 0.0435595289 0.075137116
v -0.03055989 0.0429548398 0.0753214732
v -0.0306268856 0.00338385417 0.0756594911
v -0.030485265 0.0027412565 0.0759109035
v -0.03009855 0.00220421865 0.0760950819
v -0.0295773074 0.0018507035 0.0761628523
v -0.0290326402 0.0016594918 0.0760963336
v -0.0285343453 0.00155899837 0.0759135261
v -0.0280854031 0.00146893575 0.0756637231
v -0.0276020095 0.0013451369 0.0754139796
v -0.0276125595 0.00116173341 0.0752314106
v -0.0281007215 0.00140271499 0.0754138604
v -0.0285047218 0.00161896064 0.0756633654
v -0.028917484 0.00180272176 0.0759129897
v -0.0276269242 0.000911572773 0.0751649514
v -0.028142564 0.00122288777 0.0752312317
v -0.0285343453 0.00155786588 0.0754135028
v -0.0288752839 0.00185469701 0.0756628886
v -0.0276412889 0.000661769707 0.0752324834
v -0.0281997249 0.000977674266 0.0751648322
v -0.0286152288 0.00139204576 0.0752308741
v -0.028917484 0.00180158927 0.0754129663
v -0.0276517794 0.000479141076 0.0754159465
v -0.0282568857 0.000732758839 0.0752323642
v -0.0287257954 0.00116590573 0.0751644149
v -0.0290326402 0.00165758445 0.0752302781
v -0.0291899964 0.00146118714 0.0751637593
v -0.0288363621 0.000940123398 0.0752318874
v -0.0282987282 0.000553766091 0.0754157677
v -0.0276556537 0.000412681897 0.0756660476
v 0.052535601 0.000480273564 0.0759159103
v 0.0531407073 0.000734666188 0.0760983601
v 0.0536096171 0.00116811111 0.0761644021
v 0.0539164618 0.00165943219 0.0760963336
v 0.0541212633 0.00212267949 0.0759122744
v 0.054304488 0.00253496482 0.0756613389
v 0.0545201972 0.00293848827 0.0754104629
v 0.0547607616 0.00342617347 0.0752263442
v 0.0550107434 0.042929329 0.0750715509
v 0.0551896766 0.0435595289 0.075137116
v 0.0551477745 0.044220306 0.0753186718
v 0.054853566 0.0448081866 0.0755673423
v 0.0543463901 0.0452211872 0.0758164302
v 0.0537201837 0.0454030409 0.0759990588
v 0.0530836061 0.0453654304 0.076066114
v 0.0524963811 0.0451813713 0.0759995356
v -0.0276020095 0.0449979678 0.075816907
v -0.0280854031 0.0448742285 0.0755672231
v -0.0285342261 0.0447842255 0.0753174201
v -0.0290325806 0.0446836725 0.0751346126
v -0.0295773074 0.0444924012 0.0750680342
v -0.03009855 0.0441389456 0.0751358047
v -0.030485265 0.0436018482 0.0753200427
v -0.0306268856 0.0429592505 0.0755714551
v -0.03055989 0.00338826491 0.075909473
v -0.030305855 0.00278357579 0.0760938302
v -0.0298725888 0.00231490447 0.0761618391
v -0.0293810889 0.00200788095 0.0760955587
v -0.0292374417 0.00212267949 0.0759122744
v -0.0296466276 0.00242535188 0.076094605
v -0.0300608203 0.00284097507 0.076160647
v -0.0303769037 0.00339923217 0.0760924593
v -0.0291848704 0.00216428353 0.0756621733
v -0.0294812247 0.00250587775 0.07591144
v -0.0298157856 0.00289807632 0.0760935321
v -0.0301269218 0.00341383531 0.0761593953
v -0.0292374417 0.002121547 0.0754122511
v -0.0294206664 0.00253496482 0.0756613389
v -0.0296363756 0.00293956115 0.0759104267
v -0.0298768803 0.00342808082 0.0760923997
v -0.0293810889 0.0020059736 0.0752295032
v -0.0294812247 0.00250480487 0.0754114166
v -0.0295707509 0.00295440271 0.0756604448
v -0.0296938941 0.00343821361 0.0759093538
v -0.0296268985 0.00344155147 0.0756593123
v -0.0296363756 0.00293848827 0.0754104629
v -0.0296466276 0.00242344453 0.0752286091
v -0.0295773074 0.00184849813 0.0751628652
v -0.0293473527 0.00126514747 0.0752311721
v -0.0289172456 0.000775078137 0.0754152909
v -0.0283140466 0.000488677819 0.0756659284
v -0.0276517794 0.000480273564 0.0759159103
v 0.0525251105 0.000663677056 0.0760985389
v 0.0530835465 0.000979939243 0.0761648193
v 0.0534990504 0.00139395311 0.0760969296
v 0.053801246 0.00180266215 0.0759129897
v 0.054068692 0.00216428353 0.0756621733
v 0.0543650463 0.00250480487 0.0754114166
v 0.0546996072 0.00289616897 0.0752275363
v 0.0548009947 0.0447665825 0.0758174434
v 0.0542311743 0.0450779572 0.075999774
v 0.0546573475 0.0446518436 0.0760007277
v 0.054461129 0.0444946066 0.076068081
v 0.054073818 0.0448819175 0.0760671869
v 0.0536096171 0.0451771989 0.0760665312
v 0.0542649105 0.0443371311 0.076001443
v 0.0539164618 0.0446855798 0.0760006681
v 0.0538013056 0.0445415154 0.0758179799
v 0.0534990504 0.0449511185 0.0760000721
v 0.0530264452 0.0451202169 0.0759996548
v 0.0534181669 0.0447852388 0.0758173838
v 0.0533885434 0.044724144 0.0755675212
v 0.0524858311 0.0449979678 0.075816907
v 0.0529845431 0.0449403897 0.0758170858
v 0.0529692844 0.0448741689 0.0755672231
v 0.0529845431 0.0449393168 0.0753170624
v -0.0275981948 0.0449304357 0.0755671039
v 0.0524820164 0.0449304357 0.0755671039
v 0.0524858311 0.0449968353 0.0753169432
v 0.0524963811 0.0451794639 0.0751335397
v 0.0525107458 0.0454293266 0.0750659481
v -0.0281007215 0.0449393168 0.0753170624
v -0.0276020095 0.0449968353 0.0753169432
v -0.0276125595 0.0451794639 0.0751335397
v -0.0276269242 0.0454293266 0.0750659481
v -0.0276412889 0.0456794873 0.0751324072
v -0.0286152288 0.0449492112 0.0751340166
v -0.028142564 0.0451183096 0.0751336589
v -0.0281997249 0.045363225 0.0750661269
v -0.0282568857 0.0456084386 0.0751325861
v -0.0282987282 0.0457882658 0.0753151551
v -0.0291899964 0.0448797122 0.0750671998
v -0.0287257954 0.0451749936 0.0750665441
v -0.0288364217 0.045401074 0.0751330033
v -0.0289173648 0.0455668941 0.0753156915
v -0.0289469883 0.0456279889 0.0755655542
v -0.0297735259 0.0446498767 0.0751346722
v -0.0293474123 0.0450759903 0.0751337186
v -0.0294626281 0.0452199951 0.0753164664
v -0.0295047686 0.0452731624 0.0755663291
v -0.0294626281 0.0452211276 0.0758164302
v -0.0302639529 0.044220306 0.0753186718
v -0.0299171135 0.0447655097 0.0753174797
v -0.0299696848 0.0448081866 0.0755673423
v -0.0299171135 0.0447665825 0.0758174434
v -0.0297735259 0.0446518436 0.0760007277
v -0.0305508897 0.0436177626 0.0755700245
v -0.0303245112 0.0442504659 0.075568594
v -0.0302639529 0.0442213789 0.0758186355
v -0.03009855 0.044140853 0.0760018602
v -0.0298725888 0.0440304056 0.0760690942
v -0.03055989 0.0429559723 0.0758214965
v -0.030485265 0.0436029807 0.075820066
v -0.0303769037 0.0429457799 0.0760044828
v -0.030305855 0.0435614958 0.0760031715
v -0.0301269218 0.0429315343 0.076071538
v -0.0300608203 0.0435043946 0.0760702863
v -0.0298768803 0.0429169908 0.076004602
v -0.0298157856 0.0434469953 0.0760034099
v -0.0296938941 0.0429060236 0.0758216158
v 0.197238252 0.173955306 0.0575483814
v -0.162856683 0.206608221 0.0574645773
v 0.197238669 0.156811103 0.057587482
v 0.195076749 0.156177208 0.0536107197
v -0.161105618 0.205243394 0.053619422
v 0.195076898 0.136051521 0.0536558405
v -0.165528461 0.203227326 0.0536896363
v -0.167436644 0.204493746 0.0574719086
v 0.197238907 0.136494026 0.0576330796
v -0.170185074 0.200969085 0.0574823394
v 0.197238967 0.11443273 0.057682313
v -0.168144152 0.199826762 0.0536355749
v -0.169428334 0.194220528 0.0535543934
v -0.171559796 0.19523643 0.057497479
v 0.195076957 0.114202179 0.0537045375
v -0.172018573 0.186497793 0.0575189367
v 0.195076957 0.0920469537 0.0537537709
v -0.169856831 0.18558751 0.0535433069
v 0.197238937 0.0920561329 0.0577320829
v 0.197238937 0.0707930103 0.0577793494
v 0.195076957 0.0710034147 0.0538005605
v -0.169857368 0.17316179 0.0535722151
v 0.195076898 0.0513774529 0.0538441315
v -0.172019228 0.173955306 0.0575483814
v 0.197238877 0.0509586111 0.057823278
v -0.172019646 0.156811103 0.057587482
v 0.197238669 0.0328684226 0.0578630343
v 0.195076749 0.0334751382 0.0538835302
v -0.169857726 0.156177267 0.0536107197
v 0.195076391 0.0176022444 0.0539181009
v -0.169857904 0.136051521 0.0536558405
v -0.172019884 0.136494026 0.0576330796
v 0.197238252 0.016837636 0.0578977838
v -0.172019944 0.11443273 0.057682313
v 0.197237566 0.00318173482 0.0579265729
v 0.195075855 0.00406483747 0.0539469495
v 0.194967553 0.00125447824 0.0539608374
v 0.197040811 -0.0016409962 0.0579364076
v -0.169857964 0.114202179 0.0537045375
v -0.169857964 0.0920469537 0.0537537709
v -0.172019944 0.0920561329 0.0577320829
v -0.172019944 0.0707930103 0.0577793494
v -0.169857964 0.0710034147 0.0538005605
v -0.169857904 0.0513774529 0.0538441315
v -0.172019884 0.0509586111 0.057823278
v -0.172019646 0.032868363 0.0578630343
v -0.169857726 0.0334751382 0.0538835302
v -0.169857427 0.0176022444 0.0539181009
v -0.172019288 0.016837636 0.0578977838
v -0.172018573 0.00318173482 0.0579265729
v -0.169856891 0.00406483747 0.0539469495
v -0.169748828 0.00125459745 0.0539607182
v -0.171821699 -0.00164093659 0.0579364672
v -0.0287257954 0.0451771989 0.0760665312
v -0.0282568857 0.0456103459 0.0759985819
v -0.0276517794 0.0458639637 0.0758149996
v -0.0282987282 0.0457893386 0.0758151785
v -0.0289173648 0.0455680266 0.0758156553
v -0.0283140466 0.0458544865 0.0755650178
v -0.0276556537 0.0459304228 0.0755648389
v -0.0276517794 0.0458628908 0.0753150359
v 0.052535601 0.0458628908 0.0753150359
v 0.0525394753 0.0459304228 0.0755648389
v 0.0531826094 0.0457882658 0.0753151551
v 0.0525251105 0.0456794873 0.0751324072
v 0.0531407073 0.0456084386 0.0751325861
v 0.0530836061 0.045363225 0.0750661269
v 0.0536096171 0.0451749936 0.0750665441
v 0.0537201837 0.0454011336 0.0751330033
v 0.0530263856 0.00122485473 0.0760972872
v 0.0524963811 0.00116370036 0.0760974064
v 0.0525107458 0.00091383775 0.0761649385
v -0.0276269242 0.00091383775 0.0761649385
v -0.0276125595 0.00116370036 0.0760974064
v 0.0524858311 0.00134626939 0.075914003
v -0.0281997249 0.000979939243 0.0761648193
v -0.0276412889 0.000663677056 0.0760985389
v -0.0282568857 0.000734725792 0.0760983601
v -0.0282987282 0.000554898579 0.0759157315
v -0.0289172456 0.000776210625 0.0759152547
v -0.0288363621 0.000942030747 0.0760978833
v -0.0294625685 0.00112304999 0.0759144798
v -0.0289468691 0.000715115864 0.075665392
v -0.0295047089 0.00106994226 0.0756646171
v -0.0294625685 0.00112191751 0.075414516
v -0.0299171731 0.00157652213 0.0754135028
v -0.0299697444 0.00153491809 0.0756636038
v -0.0302639529 0.00212172582 0.0754122511
v -0.0297735259 0.00169132068 0.0752302185
v -0.03009855 0.00220225169 0.075229086
v -0.0298725888 0.0023126991 0.0751618519
v -0.0300608203 0.00283876969 0.0751606598
v -0.030305855 0.00278166845 0.0752277747
v -0.0301269218 0.00341157033 0.0751594082
v -0.0298157856 0.00289616897 0.0752275363
v -0.0298768803 0.00342617347 0.0752263442
v -0.0296938941 0.00343714072 0.0754093304
v -0.0296938941 0.0429048911 0.0753215924
v -0.0298768803 0.0429150239 0.0751385465
v -0.0296363756 0.0434035435 0.0753204599
v -0.0296268985 0.0429016128 0.0755715743
v -0.0295707509 0.0433887616 0.0755705014
v -0.0296363756 0.043404676 0.0758204833
v -0.0294812247 0.0438383594 0.0758195296
v -0.0294206664 0.0438081399 0.0755696073
v -0.0292374417 0.0442215577 0.0758186355
v -0.0296466276 0.0439197198 0.076002337
v -0.0293810889 0.0443371311 0.076001443
v -0.0295773074 0.0444946066 0.076068081
v -0.0291899964 0.0448819175 0.0760671869
v -0.0290325806 0.0446855798 0.0760006681
v -0.0293474123 0.0450779572 0.075999774
v -0.0288364217 0.0454029813 0.0759990588
v 0.054461129 0.00184849813 0.0751628652
v 0.0545304492 0.00242344453 0.0752286091
v 0.0542649105 0.0020059736 0.0752295032
v 0.0541212633 0.002121547 0.0754122511
v 0.053801246 0.00180152967 0.0754129663
v 0.0539164618 0.00165752484 0.0752302781
v 0.0534180477 0.00155780627 0.0754135028
v 0.0537590459 0.0018546374 0.0756628886
v 0.0533884242 0.00161890103 0.0756633654
v 0.0534180477 0.00155893876 0.0759135261
v 0.0529845431 0.00140384748 0.0759138837
v 0.0529692248 0.00146893575 0.0756637231
f 1 2 3
f 1 2 3
f 4 3 2
f 4 3 2
f 1 5 6
f 1 5 6
f 6 2 1
f 6 2 1
f 7 5 8
f 7 5 8
f 6 5 7
f 6 5 7
f 8 9 7
f 8 9 7
f 10 9 8
f 10 9 8
f 11 4 2
f 11 4 2
f 11 12 4
f 11 12 4
f 11 13 12
f 11 13 12
f 2 6 14
f 14 11 2
f 2 6 14
f 14 11 2
f 15 13 11
f 11 14 15
f 15 13 11
f 11 14 15
f 13 15 16
f 13 15 16
f 16 17 13
f 16 17 13
f 15 14 18
f 15 14 18
f 18 14 6
f 18 14 6
f 17 16 19
f 17 16 19
f 19 20 17
f 19 20 17
f 21 20 19
f 21 20 19
f 6 22 18
f 6 22 18
f 7 22 6
f 7 22 6
f 23 18 22
f 23 18 22
f 24 22 7
f 22 24 23
f 24 22 7
f 22 24 23
f 7 25 24
f 7 25 24
f 25 7 9
f 25 7 9
f 9 26 25
f 9 26 25
f 26 9 10
f 26 9 10
f 10 27 26
f 10 27 26
f 27 10 28
f 27 10 28
f 28 29 27
f 28 29 27
f 29 28 30
f 29 28 30
f 30 31 29
f 30 31 29
f 31 30 32
f 31 30 32
f 32 33 31
f 32 33 31
f 33 32 34
f 33 32 34
f 34 35 33
f 34 35 33
f 35 34 36
f 35 34 36
f 36 37 35
f 36 37 35
f 37 36 38
f 37 36 38
f 35 37 39
f 35 37 39
f 39 40 35
f 39 40 35
f 33 35 40
f 33 35 40
f 40 41 33
f 40 41 33
f 31 33 41
f 31 33 41
f 41 42 31
f 41 42 31
f 29 31 42
f 29 31 42
f 42 43 29
f 42 43 29
f 27 29 43
f 27 29 43
f 43 44 27
f 43 44 27
f 26 27 44
f 26 27 44
f 44 45 26
f 44 45 26
f 25 26 45
f 25 26 45
f 45 46 25
f 45 46 25
f 24 25 46
f 24 25 46
f 46 47 24
f 46 47 24
f 23 24 47
f 23 24 47
f 47 48 23
f 47 48 23
f 49 23 48
f 49 23 48
f 18 23 49
f 18 23 49
f 48 50 49
f 48 50 49
f 49 51 18
f 49 51 18
f 52 49 50
f 52 49 50
f 51 49 52
f 51 49 52
f 50 53 52
f 50 53 52
f 18 51 15
f 18 51 15
f 15 51 54
f 15 51 54
f 52 54 51
f 52 54 51
f 54 16 15
f 54 16 15
f 55 52 53
f 55 52 53
f 55 54 52
f 55 54 52
f 53 56 55
f 53 56 55
f 16 54 57
f 16 54 57
f 55 57 54
f 55 57 54
f 57 19 16
f 57 19 16
f 55 56 58
f 55 56 58
f 59 19 57
f 59 19 57
f 19 59 21
f 19 59 21
f 55 60 57
f 55 60 57
f 58 60 55
f 58 60 55
f 61 57 60
f 61 57 60
f 57 61 59
f 57 61 59
f 62 60 58
f 62 60 58
f 60 62 61
f 60 62 61
f 58 63 62
f 58 63 62
f 64 62 63
f 64 62 63
f 61 62 64
f 61 62 64
f 63 65 64
f 63 65 64
f 59 61 66
f 59 61 66
f 64 66 61
f 64 66 61
f 21 59 67
f 21 59 67
f 66 67 59
f 66 67 59
f 68 64 65
f 68 64 65
f 66 64 68
f 66 64 68
f 65 69 68
f 65 69 68
f 67 70 21
f 67 70 21
f 70 67 71
f 70 67 71
f 71 67 66
f 71 67 66
f 71 72 70
f 71 72 70
f 73 68 69
f 73 68 69
f 68 74 66
f 68 74 66
f 74 68 73
f 74 68 73
f 66 74 71
f 66 74 71
f 69 75 73
f 69 75 73
f 76 73 75
f 76 73 75
f 73 77 74
f 73 77 74
f 77 73 76
f 77 73 76
f 71 74 77
f 71 74 77
f 72 71 78
f 72 71 78
f 77 78 71
f 77 78 71
f 78 79 72
f 78 79 72
f 75 80 76
f 75 80 76
f 79 78 81
f 79 78 81
f 81 78 77
f 81 78 77
f 81 82 79
f 81 82 79
f 83 76 80
f 83 76 80
f 76 84 77
f 76 84 77
f 84 76 83
f 84 76 83
f 77 84 81
f 77 84 81
f 80 85 83
f 80 85 83
f 86 83 85
f 86 83 85
f 83 87 84
f 83 87 84
f 87 83 86
f 87 83 86
f 81 84 87
f 81 84 87
f 82 81 88
f 82 81 88
f 87 88 81
f 87 88 81
f 88 89 82
f 88 89 82
f 85 90 86
f 85 90 86
f 89 88 91
f 89 88 91
f 91 88 87
f 91 88 87
f 91 92 89
f 91 92 89
f 93 86 90
f 93 86 90
f 86 94 87
f 86 94 87
f 94 86 93
f 94 86 93
f 87 94 91
f 87 94 91
f 90 95 93
f 90 95 93
f 96 93 95
f 96 93 95
f 93 97 94
f 93 97 94
f 97 93 96
f 97 93 96
f 91 94 97
f 91 94 97
f 92 91 98
f 92 91 98
f 97 98 91
f 97 98 91
f 98 99 92
f 98 99 92
f 95 100 96
f 95 100 96
f 99 98 101
f 99 98 101
f 101 98 97
f 101 98 97
f 101 102 99
f 101 102 99
f 103 96 100
f 103 96 100
f 96 104 97
f 96 104 97
f 104 96 103
f 104 96 103
f 97 104 101
f 105 106 107
f 105 106 107
f 107 106 108
f 107 106 108
f 107 109 105
f 107 109 105
f 108 110 107
f 108 110 107
f 105 109 111
f 105 109 111
f 112 110 108
f 112 110 108
f 111 113 105
f 111 113 105
f 108 114 112
f 108 114 112
f 115 113 111
f 115 113 111
f 112 114 116
f 112 114 116
f 116 117 112
f 116 117 112
f 111 118 115
f 111 118 115
f 119 117 116
f 119 117 116
f 115 118 120
f 115 118 120
f 120 121 115
f 120 121 115
f 116 122 119
f 116 122 119
f 123 121 120
f 123 121 120
f 119 122 124
f 119 122 124
f 124 125 119
f 124 125 119
f 120 126 123
f 120 126 123
f 127 125 124
f 127 125 124
f 123 126 128
f 123 126 128
f 128 129 123
f 128 129 123
f 124 130 127
f 124 130 127
f 131 129 128
f 131 129 128
f 127 130 132
f 127 130 132
f 132 133 127
f 132 133 127
f 134 135 136
f 137 138 139
f 137 138 139
f 136 138 137
f 136 138 137
f 140 139 138
f 140 139 138
f 136 135 141
f 136 135 141
f 142 141 135
f 142 141 135
f 138 136 143
f 141 143 136
f 138 136 143
f 141 143 136
f 138 144 140
f 138 144 140
f 143 144 138
f 143 144 138
f 145 140 144
f 145 140 144
f 144 146 145
f 144 146 145
f 144 143 147
f 147 146 144
f 144 143 147
f 147 146 144
f 147 143 141
f 147 143 141
f 146 147 148
f 146 147 148
f 149 148 147
f 149 148 147
f 150 148 149
f 150 148 149
f 141 151 147
f 141 151 147
f 147 151 149
f 147 151 149
f 141 142 152
f 141 142 152
f 152 151 141
f 152 151 141
f 152 142 153
f 152 142 153
f 153 154 152
f 153 154 152
f 151 152 155
f 155 152 154
f 151 152 155
f 155 152 154
f 155 149 151
f 155 149 151
f 154 156 155
f 154 156 155
f 157 155 156
f 157 155 156
f 149 155 157
f 149 155 157
f 156 158 157
f 156 158 157
f 149 159 150
f 149 159 150
f 157 159 149
f 157 159 149
f 150 159 160
f 150 159 160
f 161 157 158
f 161 157 158
f 159 157 161
f 159 157 161
f 161 160 159
f 161 160 159
f 158 162 161
f 158 162 161
f 163 160 161
f 163 160 161
f 164 161 162
f 161 164 163
f 164 161 162
f 161 164 163
f 162 165 164
f 162 165 164
f 166 163 164
f 166 163 164
f 167 164 165
f 164 167 166
f 167 164 165
f 164 167 166
f 165 168 167
f 165 168 167
f 166 167 169
f 166 167 169
f 169 167 168
f 169 167 168
f 169 168 170
f 169 168 170
f 169 170 171
f 169 170 171
f 170 172 171
f 170 172 171
f 97 104 101
f 100 173 103
f 100 173 103
f 174 103 173
f 174 103 173
f 103 175 104
f 103 175 104
f 175 103 174
f 175 103 174
f 101 104 175
f 101 104 175
f 102 101 176
f 102 101 176
f 175 176 101
f 175 176 101
f 176 177 102
f 176 177 102
f 173 178 174
f 173 178 174
f 177 176 179
f 177 176 179
f 179 176 175
f 179 176 175
f 179 180 177
f 179 180 177
f 181 174 178
f 181 174 178
f 174 182 175
f 174 182 175
f 182 174 181
f 182 174 181
f 175 182 179
f 175 182 179
f 178 183 181
f 178 183 181
f 184 181 183
f 184 181 183
f 181 185 182
f 181 185 182
f 185 181 184
f 185 181 184
f 179 182 185
f 179 182 185
f 180 179 186
f 180 179 186
f 185 186 179
f 185 186 179
f 186 187 180
f 186 187 180
f 183 188 184
f 183 188 184
f 187 186 189
f 187 186 189
f 189 186 185
f 189 186 185
f 189 190 187
f 189 190 187
f 191 190 189
f 191 190 189
f 192 184 188
f 192 184 188
f 188 193 192
f 188 193 192
f 184 194 185
f 185 194 189
f 184 194 185
f 185 194 189
f 195 194 184
f 195 194 184
f 184 192 195
f 184 192 195
f 189 194 195
f 189 194 195
f 196 192 193
f 196 192 193
f 195 192 196
f 195 192 196
f 193 197 196
f 193 197 196
f 198 196 197
f 198 196 197
f 197 199 198
f 197 199 198
f 200 196 198
f 200 196 198
f 196 200 195
f 196 200 195
f 201 198 199
f 201 198 199
f 199 202 201
f 199 202 201
f 203 198 201
f 203 198 201
f 198 203 200
f 198 203 200
f 204 201 202
f 204 201 202
f 202 205 204
f 202 205 204
f 206 201 204
f 206 201 204
f 201 206 203
f 201 206 203
f 207 204 205
f 207 204 205
f 205 208 207
f 205 208 207
f 209 204 207
f 209 204 207
f 204 209 206
f 204 209 206
f 210 207 208
f 210 207 208
f 208 211 210
f 208 211 210
f 212 207 210
f 212 207 210
f 207 212 209
f 207 212 209
f 213 210 211
f 213 210 211
f 211 214 213
f 211 214 213
f 215 210 213
f 215 210 213
f 210 215 212
f 210 215 212
f 216 213 214
f 216 213 214
f 214 217 216
f 214 217 216
f 218 213 216
f 218 213 216
f 213 218 215
f 213 218 215
f 219 216 217
f 219 216 217
f 217 220 219
f 217 220 219
f 221 216 219
f 221 216 219
f 216 221 218
f 216 221 218
f 222 219 220
f 222 219 220
f 220 223 222
f 220 223 222
f 224 219 222
f 224 219 222
f 219 224 221
f 219 224 221
f 225 222 223
f 225 222 223
f 223 226 225
f 223 226 225
f 227 222 225
f 227 222 225
f 222 227 224
f 222 227 224
f 228 225 226
f 228 225 226
f 226 229 228
f 226 229 228
f 230 225 228
f 230 225 228
f 225 230 227
f 225 230 227
f 231 228 229
f 231 228 229
f 229 232 231
f 229 232 231
f 233 224 227
f 233 224 227
f 221 224 233
f 221 224 233
f 234 231 232
f 234 231 232
f 232 235 234
f 232 235 234
f 236 234 235
f 236 234 235
f 237 236 235
f 237 236 235
f 238 234 236
f 238 234 236
f 231 234 238
f 231 234 238
f 237 239 236
f 237 239 236
f 237 240 239
f 237 240 239
f 236 150 238
f 236 150 238
f 150 236 239
f 150 236 239
f 238 241 231
f 238 241 231
f 228 231 241
f 228 231 241
f 160 238 150
f 160 238 150
f 241 238 160
f 241 238 160
f 146 239 240
f 146 239 240
f 240 145 146
f 240 145 146
f 239 148 150
f 239 148 150
f 148 239 146
f 148 239 146
f 241 242 228
f 241 242 228
f 228 242 230
f 228 242 230
f 242 241 163
f 242 241 163
f 160 163 241
f 160 163 241
f 243 230 242
f 243 230 242
f 227 230 243
f 227 230 243
f 242 166 243
f 163 166 242
f 242 166 243
f 163 166 242
f 243 244 227
f 243 244 227
f 227 244 233
f 227 244 233
f 171 244 243
f 171 244 243
f 169 243 166
f 243 169 171
f 169 243 166
f 243 169 171
f 245 233 244
f 245 233 244
f 244 171 245
f 244 171 245
f 233 245 246
f 233 245 246
f 246 247 233
f 246 247 233
f 233 247 221
f 233 247 221
f 247 246 248
f 247 246 248
f 221 247 249
f 248 249 247
f 221 247 249
f 248 249 247
f 249 218 221
f 249 218 221
f 249 248 250
f 249 248 250
f 215 218 249
f 215 218 249
f 250 251 249
f 250 251 249
f 249 251 215
f 249 251 215
f 251 250 252
f 251 250 252
f 215 251 253
f 252 253 251
f 215 251 253
f 252 253 251
f 253 212 215
f 253 212 215
f 253 252 254
f 253 252 254
f 209 212 253
f 209 212 253
f 254 255 253
f 254 255 253
f 253 255 209
f 253 255 209
f 255 254 256
f 255 254 256
f 209 255 257
f 256 257 255
f 209 255 257
f 256 257 255
f 257 206 209
f 257 206 209
f 257 256 258
f 257 256 258
f 203 206 257
f 203 206 257
f 258 259 257
f 258 259 257
f 257 259 203
f 257 259 203
f 259 258 260
f 259 258 260
f 203 259 261
f 260 261 259
f 203 259 261
f 260 261 259
f 261 200 203
f 261 200 203
f 261 260 191
f 261 260 191
f 195 200 261
f 195 200 261
f 191 262 261
f 261 262 195
f 261 262 195
f 191 262 261
f 195 262 189
f 195 262 189
f 189 262 191
f 189 262 191
f 263 264 38
f 263 264 38
f 38 264 265
f 38 264 265
f 266 264 263
f 266 264 263
f 265 264 266
f 265 264 266
f 265 267 38
f 265 267 38
f 38 267 37
f 38 267 37
f 37 267 268
f 37 267 268
f 268 39 37
f 268 39 37
f 269 268 267
f 269 268 267
f 267 265 269
f 267 265 269
f 270 269 265
f 270 269 265
f 265 271 270
f 265 271 270
f 266 271 265
f 266 271 265
f 272 270 271
f 272 270 271
f 271 273 272
f 271 273 272
f 274 272 273
f 274 272 273
f 275 273 271
f 275 273 271
f 271 266 275
f 271 266 275
f 273 276 274
f 273 276 274
f 277 274 276
f 277 274 276
f 273 275 278
f 273 275 278
f 278 276 273
f 278 276 273
f 279 275 266
f 279 275 266
f 278 275 279
f 278 275 279
f 266 280 279
f 266 280 279
f 263 280 266
f 263 280 266
f 276 281 277
f 276 281 277
f 282 277 281
f 282 277 281
f 276 278 283
f 276 278 283
f 283 281 276
f 283 281 276
f 284 280 263
f 284 280 263
f 263 285 284
f 263 285 284
f 286 284 285
f 286 284 285
f 280 284 287
f 287 284 286
f 280 284 287
f 287 284 286
f 287 279 280
f 287 279 280
f 286 288 287
f 286 288 287
f 289 287 288
f 289 287 288
f 279 287 289
f 279 287 289
f 288 290 289
f 288 290 289
f 289 291 279
f 289 291 279
f 279 291 278
f 279 291 278
f 292 289 290
f 292 289 290
f 291 289 292
f 291 289 292
f 290 293 292
f 290 293 292
f 278 291 294
f 278 291 294
f 292 294 291
f 292 294 291
f 294 283 278
f 294 283 278
f 295 292 293
f 295 292 293
f 294 292 295
f 294 292 295
f 293 296 295
f 293 296 295
f 297 295 296
f 297 295 296
f 296 298 297
f 296 298 297
f 299 295 297
f 299 295 297
f 295 299 294
f 295 299 294
f 300 283 294
f 300 283 294
f 294 299 300
f 294 299 300
f 281 283 300
f 281 283 300
f 301 297 298
f 301 297 298
f 297 134 299
f 297 134 299
f 134 297 301
f 134 297 301
f 300 299 134
f 300 299 134
f 298 302 301
f 298 302 301
f 300 303 281
f 300 303 281
f 281 303 282
f 281 303 282
f 304 282 303
f 304 282 303
f 142 301 302
f 142 301 302
f 302 153 142
f 302 153 142
f 135 301 142
f 135 301 142
f 301 135 134
f 301 135 134
f 303 137 304
f 303 137 304
f 139 304 137
f 139 304 137
f 303 300 305
f 303 300 305
f 134 305 300
f 134 305 300
f 305 137 303
f 305 137 303
f 136 305 134
f 136 305 134
f 137 305 136
f 137 305 136
f 134 135 136
f 306 307 38
f 306 307 38
f 308 307 306
f 308 307 306
f 38 307 263
f 263 307 308
f 263 307 308
f 38 307 263
f 306 309 308
f 306 309 308
f 38 36 306
f 38 36 306
f 308 309 310
f 308 309 310
f 310 311 308
f 310 311 308
f 312 310 309
f 312 310 309
f 308 311 313
f 308 311 313
f 313 285 308
f 313 285 308
f 308 285 263
f 308 285 263
f 285 313 286
f 285 313 286
f 309 314 312
f 309 314 312
f 315 312 314
f 315 312 314
f 316 314 309
f 316 314 309
f 309 306 316
f 309 306 316
f 314 317 315
f 314 317 315
f 318 315 317
f 318 315 317
f 314 316 319
f 314 316 319
f 319 317 314
f 319 317 314
f 34 316 306
f 34 316 306
f 319 316 34
f 319 316 34
f 306 36 34
f 306 36 34
f 317 320 318
f 317 320 318
f 321 318 320
f 321 318 320
f 317 319 322
f 317 319 322
f 322 320 317
f 322 320 317
f 320 323 321
f 320 323 321
f 324 321 323
f 324 321 323
f 320 322 325
f 320 322 325
f 325 323 320
f 325 323 320
f 30 322 319
f 30 322 319
f 325 322 30
f 325 322 30
f 319 32 30
f 319 32 30
f 34 32 319
f 34 32 319
f 323 326 324
f 323 326 324
f 327 324 326
f 327 324 326
f 323 325 328
f 323 325 328
f 328 326 323
f 328 326 323
f 326 329 327
f 326 329 327
f 330 327 329
f 330 327 329
f 326 328 8
f 326 328 8
f 8 329 326
f 8 329 326
f 10 328 325
f 10 328 325
f 8 328 10
f 8 328 10
f 325 28 10
f 325 28 10
f 30 28 325
f 30 28 325
f 329 1 330
f 329 1 330
f 3 330 1
f 3 330 1
f 329 8 5
f 329 8 5
f 5 1 329
f 5 1 329
f 331 332 333
f 331 332 333
f 334 333 332
f 334 333 332
f 333 335 331
f 333 335 331
f 332 336 334
f 332 336 334
f 335 333 337
f 335 333 337
f 338 337 333
f 333 334 338
f 338 337 333
f 333 334 338
f 337 339 335
f 337 339 335
f 336 332 340
f 336 332 340
f 332 331 341
f 332 331 341
f 341 340 332
f 341 340 332
f 342 331 335
f 342 331 335
f 343 341 331
f 331 342 343
f 343 341 331
f 331 342 343
f 344 335 339
f 335 344 342
f 344 335 339
f 335 344 342
f 345 342 344
f 345 342 344
f 346 343 342
f 342 345 346
f 346 343 342
f 342 345 346
f 341 343 347
f 341 343 347
f 348 347 343
f 343 346 348
f 348 347 343
f 343 346 348
f 347 349 341
f 347 349 341
f 340 341 349
f 340 341 349
f 347 348 350
f 347 348 350
f 350 351 347
f 349 347 351
f 350 351 347
f 349 347 351
f 352 350 348
f 352 350 348
f 353 348 346
f 348 353 352
f 353 348 346
f 348 353 352
f 354 355 356
f 354 355 356
f 356 357 354
f 358 354 357
f 356 357 354
f 358 354 357
f 359 356 355
f 359 356 355
f 360 355 361
f 355 360 359
f 360 355 361
f 355 360 359
f 361 362 360
f 361 362 360
f 362 361 363
f 362 361 363
f 364 360 362
f 364 360 362
f 365 359 360
f 360 364 365
f 365 359 360
f 360 364 365
f 356 359 366
f 356 359 366
f 367 366 359
f 359 365 367
f 367 366 359
f 359 365 367
f 366 368 356
f 366 368 356
f 357 356 368
f 357 356 368
f 366 367 369
f 366 367 369
f 369 370 366
f 368 366 370
f 369 370 366
f 368 366 370
f 371 369 367
f 371 369 367
f 372 367 365
f 367 372 371
f 372 367 365
f 367 372 371
f 365 373 372
f 365 373 372
f 373 365 364
f 373 365 364
f 374 372 373
f 374 372 373
f 375 371 372
f 372 374 375
f 375 371 372
f 372 374 375
f 369 371 376
f 369 371 376
f 377 376 371
f 371 375 377
f 377 376 371
f 371 375 377
f 376 378 369
f 376 378 369
f 370 369 378
f 370 369 378
f 376 377 379
f 376 377 379
f 379 380 376
f 378 376 380
f 379 380 376
f 378 376 380
f 381 379 377
f 381 379 377
f 382 377 375
f 377 382 381
f 382 377 375
f 377 382 381
f 375 383 382
f 375 383 382
f 383 375 374
f 383 375 374
f 384 382 383
f 384 382 383
f 385 381 382
f 382 384 385
f 385 381 382
f 382 384 385
f 379 381 386
f 379 381 386
f 387 386 381
f 381 385 387
f 387 386 381
f 381 385 387
f 386 339 379
f 386 339 379
f 380 379 339
f 380 379 339
f 339 386 344
f 339 386 344
f 339 337 380
f 339 337 380
f 388 344 386
f 388 344 386
f 386 387 388
f 386 387 388
f 344 388 345
f 344 388 345
f 389 380 337
f 389 380 337
f 380 389 378
f 380 389 378
f 337 338 389
f 337 338 389
f 390 345 388
f 390 345 388
f 345 390 391
f 345 390 391
f 388 392 390
f 388 392 390
f 392 388 387
f 392 388 387
f 393 391 390
f 393 391 390
f 391 393 394
f 391 393 394
f 395 390 392
f 395 390 392
f 390 395 393
f 390 395 393
f 387 396 392
f 387 396 392
f 396 387 385
f 396 387 385
f 397 392 396
f 397 392 396
f 392 397 395
f 392 397 395
f 385 398 396
f 385 398 396
f 398 385 384
f 398 385 384
f 399 396 398
f 399 396 398
f 396 399 397
f 396 399 397
f 398 400 399
f 398 400 399
f 384 401 398
f 400 398 401
f 384 401 398
f 400 398 401
f 401 384 402
f 401 384 402
f 383 402 384
f 383 402 384
f 402 383 403
f 402 383 403
f 374 403 383
f 374 403 383
f 403 374 404
f 403 374 404
f 373 404 374
f 373 404 374
f 404 373 405
f 404 373 405
f 364 405 373
f 364 405 373
f 405 364 406
f 405 364 406
f 362 406 364
f 362 406 364
f 406 362 407
f 406 362 407
f 363 407 362
f 363 407 362
f 407 363 408
f 407 363 408
f 409 408 363
f 409 408 363
f 408 409 410
f 408 409 410
f 411 410 409
f 411 410 409
f 410 411 412
f 410 411 412
f 413 412 411
f 413 412 411
f 412 413 414
f 412 413 414
f 415 414 413
f 415 414 413
f 414 415 416
f 414 415 416
f 417 416 415
f 417 416 415
f 416 417 418
f 416 417 418
f 419 418 417
f 419 418 417
f 418 419 420
f 418 419 420
f 421 420 419
f 421 420 419
f 420 421 422
f 420 421 422
f 423 422 421
f 423 422 421
f 422 423 424
f 422 423 424
f 425 424 423
f 425 424 423
f 424 425 426
f 424 425 426
f 427 426 425
f 427 426 425
f 426 427 428
f 426 427 428
f 429 428 427
f 429 428 427
f 428 429 430
f 428 429 430
f 431 430 429
f 431 430 429
f 430 431 432
f 430 431 432
f 433 432 431
f 433 432 431
f 432 433 434
f 432 433 434
f 435 434 433
f 435 434 433
f 434 435 436
f 434 435 436
f 437 436 435
f 437 436 435
f 436 437 438
f 436 437 438
f 439 438 437
f 439 438 437
f 438 439 440
f 438 439 440
f 441 440 439
f 441 440 439
f 440 441 442
f 440 441 442
f 443 442 441
f 443 442 441
f 442 443 444
f 442 443 444
f 445 444 443
f 445 444 443
f 444 445 446
f 444 445 446
f 447 446 445
f 447 446 445
f 446 447 448
f 446 447 448
f 449 448 447
f 449 448 447
f 448 449 450
f 448 449 450
f 451 450 449
f 451 450 449
f 450 451 452
f 450 451 452
f 453 452 451
f 453 452 451
f 452 453 454
f 452 453 454
f 394 454 453
f 394 454 453
f 454 394 393
f 454 394 393
f 393 455 454
f 393 455 454
f 455 393 395
f 455 393 395
f 454 456 452
f 456 454 455
f 454 456 452
f 456 454 455
f 452 457 450
f 457 452 456
f 452 457 450
f 457 452 456
f 458 450 457
f 458 450 457
f 450 458 448
f 450 458 448
f 395 459 455
f 395 459 455
f 459 395 397
f 459 395 397
f 455 460 456
f 460 455 459
f 455 460 456
f 460 455 459
f 456 461 457
f 461 456 460
f 456 461 457
f 461 456 460
f 457 462 458
f 462 457 461
f 457 462 458
f 462 457 461
f 397 463 459
f 397 463 459
f 463 397 399
f 463 397 399
f 459 464 460
f 464 459 463
f 459 464 460
f 464 459 463
f 460 465 461
f 465 460 464
f 460 465 461
f 465 460 464
f 461 466 462
f 466 461 465
f 461 466 462
f 466 461 465
f 399 467 463
f 399 467 463
f 467 399 400
f 467 399 400
f 463 468 464
f 468 463 467
f 463 468 464
f 468 463 467
f 464 469 465
f 469 464 468
f 464 469 465
f 469 464 468
f 465 470 466
f 470 465 469
f 465 470 466
f 470 465 469
f 469 471 470
f 469 471 470
f 468 472 469
f 471 469 472
f 468 472 469
f 471 469 472
f 467 473 468
f 467 473 468
f 472 468 473
f 472 468 473
f 473 467 474
f 473 467 474
f 400 474 467
f 400 474 467
f 474 400 475
f 474 400 475
f 401 475 400
f 401 475 400
f 475 401 476
f 475 401 476
f 402 476 401
f 402 476 401
f 476 402 477
f 476 402 477
f 403 477 402
f 403 477 402
f 477 403 478
f 477 403 478
f 404 478 403
f 404 478 403
f 478 404 479
f 478 404 479
f 405 479 404
f 405 479 404
f 479 405 480
f 479 405 480
f 406 480 405
f 406 480 405
f 480 406 481
f 480 406 481
f 407 481 406
f 407 481 406
f 481 407 482
f 481 407 482
f 408 482 407
f 408 482 407
f 482 408 483
f 482 408 483
f 410 483 408
f 410 483 408
f 483 410 484
f 483 410 484
f 412 484 410
f 412 484 410
f 484 412 485
f 484 412 485
f 414 485 412
f 414 485 412
f 485 414 486
f 485 414 486
f 416 486 414
f 416 486 414
f 486 416 487
f 486 416 487
f 418 487 416
f 418 487 416
f 487 418 488
f 487 418 488
f 420 488 418
f 420 488 418
f 488 420 489
f 488 420 489
f 422 489 420
f 422 489 420
f 489 422 490
f 489 422 490
f 424 490 422
f 424 490 422
f 490 424 491
f 490 424 491
f 426 491 424
f 426 491 424
f 491 426 492
f 491 426 492
f 428 492 426
f 428 492 426
f 492 428 493
f 492 428 493
f 430 493 428
f 430 493 428
f 493 430 494
f 493 430 494
f 432 494 430
f 432 494 430
f 494 432 495
f 494 432 495
f 434 495 432
f 434 495 432
f 495 434 496
f 495 434 496
f 436 496 434
f 436 496 434
f 496 436 497
f 496 436 497
f 438 497 436
f 438 497 436
f 497 438 498
f 497 438 498
f 440 498 438
f 440 498 438
f 498 440 499
f 498 440 499
f 442 499 440
f 442 499 440
f 499 442 500
f 499 442 500
f 444 500 442
f 444 500 442
f 500 444 501
f 500 444 501
f 446 501 444
f 446 501 444
f 501 446 502
f 501 446 502
f 448 502 446
f 448 502 446
f 502 448 458
f 502 448 458
f 458 503 502
f 458 503 502
f 503 458 462
f 503 458 462
f 502 504 501
f 504 502 503
f 502 504 501
f 504 502 503
f 501 505 500
f 505 501 504
f 501 505 500
f 505 501 504
f 506 500 505
f 506 500 505
f 500 506 499
f 500 506 499
f 462 507 503
f 462 507 503
f 507 462 466
f 507 462 466
f 503 508 504
f 508 503 507
f 503 508 504
f 508 503 507
f 504 509 505
f 509 504 508
f 504 509 505
f 509 504 508
f 505 510 506
f 510 505 509
f 505 510 506
f 510 505 509
f 466 511 507
f 466 511 507
f 511 466 470
f 511 466 470
f 507 512 508
f 512 507 511
f 507 512 508
f 512 507 511
f 508 513 509
f 513 508 512
f 508 513 509
f 513 508 512
f 509 514 510
f 514 509 513
f 509 514 510
f 514 509 513
f 470 515 511
f 470 515 511
f 515 470 471
f 515 470 471
f 511 516 512
f 516 511 515
f 511 516 512
f 516 511 515
f 512 517 513
f 517 512 516
f 512 517 513
f 517 512 516
f 513 518 514
f 518 513 517
f 513 518 514
f 518 513 517
f 517 519 518
f 517 519 518
f 516 520 517
f 519 517 520
f 516 520 517
f 519 517 520
f 515 521 516
f 515 521 516
f 520 516 521
f 520 516 521
f 521 515 522
f 521 515 522
f 471 522 515
f 471 522 515
f 522 471 523
f 522 471 523
f 472 523 471
f 472 523 471
f 523 472 524
f 523 472 524
f 473 524 472
f 473 524 472
f 524 473 525
f 524 473 525
f 474 525 473
f 474 525 473
f 525 474 526
f 525 474 526
f 475 526 474
f 475 526 474
f 526 475 527
f 526 475 527
f 476 527 475
f 476 527 475
f 527 476 528
f 527 476 528
f 477 528 476
f 477 528 476
f 528 477 529
f 528 477 529
f 478 529 477
f 478 529 477
f 529 478 530
f 529 478 530
f 479 530 478
f 479 530 478
f 530 479 531
f 530 479 531
f 480 531 479
f 480 531 479
f 531 480 532
f 531 480 532
f 481 532 480
f 481 532 480
f 532 481 533
f 532 481 533
f 482 533 481
f 482 533 481
f 533 482 534
f 533 482 534
f 483 534 482
f 483 534 482
f 534 483 535
f 534 483 535
f 484 535 483
f 484 535 483
f 535 484 536
f 535 484 536
f 485 536 484
f 485 536 484
f 536 485 537
f 536 485 537
f 486 537 485
f 486 537 485
f 537 486 538
f 537 486 538
f 487 538 486
f 487 538 486
f 538 487 539
f 538 487 539
f 488 539 487
f 488 539 487
f 539 488 540
f 539 488 540
f 489 540 488
f 489 540 488
f 540 489 541
f 540 489 541
f 490 541 489
f 490 541 489
f 541 490 542
f 541 490 542
f 491 542 490
f 491 542 490
f 542 491 543
f 542 491 543
f 492 543 491
f 492 543 491
f 543 492 544
f 543 492 544
f 493 544 492
f 493 544 492
f 544 493 545
f 544 493 545
f 494 545 493
f 494 545 493
f 545 494 546
f 545 494 546
f 495 546 494
f 495 546 494
f 546 495 547
f 546 495 547
f 496 547 495
f 496 547 495
f 547 496 548
f 547 496 548
f 497 548 496
f 497 548 496
f 548 497 549
f 548 497 549
f 498 549 497
f 498 549 497
f 549 498 550
f 549 498 550
f 499 550 498
f 499 550 498
f 550 499 506
f 550 499 506
f 506 551 550
f 506 551 550
f 551 506 510
f 551 506 510
f 550 552 549
f 552 550 551
f 550 552 549
f 552 550 551
f 549 553 548
f 553 549 552
f 549 553 548
f 553 549 552
f 554 548 553
f 554 548 553
f 548 554 547
f 548 554 547
f 510 555 551
f 510 555 551
f 555 510 514
f 555 510 514
f 551 556 552
f 556 551 555
f 551 556 552
f 556 551 555
f 552 557 553
f 557 552 556
f 552 557 553
f 557 552 556
f 553 558 554
f 558 553 557
f 553 558 554
f 558 553 557
f 514 559 555
f 514 559 555
f 559 514 518
f 559 514 518
f 555 560 556
f 560 555 559
f 555 560 556
f 560 555 559
f 556 561 557
f 561 556 560
f 556 561 557
f 561 556 560
f 557 562 558
f 562 557 561
f 557 562 558
f 562 557 561
f 518 563 559
f 518 563 559
f 563 518 519
f 563 518 519
f 559 564 560
f 564 559 563
f 559 564 560
f 564 559 563
f 560 565 561
f 565 560 564
f 560 565 561
f 565 560 564
f 561 566 562
f 566 561 565
f 561 566 562
f 566 561 565
f 565 567 566
f 565 567 566
f 567 565 568
f 567 565 568
f 564 568 565
f 564 568 565
f 568 564 569
f 568 564 569
f 563 569 564
f 563 569 564
f 569 563 570
f 569 563 570
f 519 570 563
f 519 570 563
f 570 519 571
f 570 519 571
f 520 571 519
f 520 571 519
f 571 520 572
f 571 520 572
f 521 572 520
f 521 572 520
f 572 521 573
f 572 521 573
f 522 573 521
f 522 573 521
f 573 522 574
f 573 522 574
f 523 574 522
f 523 574 522
f 574 523 575
f 574 523 575
f 524 575 523
f 524 575 523
f 575 524 576
f 575 524 576
f 525 576 524
f 525 576 524
f 576 525 577
f 576 525 577
f 526 577 525
f 526 577 525
f 577 526 578
f 577 526 578
f 527 578 526
f 527 578 526
f 578 527 579
f 578 527 579
f 528 579 527
f 528 579 527
f 579 528 580
f 579 528 580
f 529 580 528
f 529 580 528
f 580 529 581
f 580 529 581
f 530 581 529
f 530 581 529
f 581 530 351
f 581 530 351
f 531 351 530
f 531 351 530
f 351 531 349
f 351 531 349
f 532 349 531
f 532 349 531
f 349 532 340
f 349 532 340
f 533 340 532
f 533 340 532
f 340 533 336
f 340 533 336
f 534 336 533
f 534 336 533
f 336 534 582
f 336 534 582
f 535 582 534
f 535 582 534
f 582 334 336
f 582 334 336
f 582 535 583
f 582 535 583
f 334 582 584
f 334 582 584
f 583 584 582
f 583 584 582
f 584 338 334
f 584 338 334
f 536 583 535
f 536 583 535
f 338 584 585
f 338 584 585
f 585 389 338
f 585 389 338
f 586 585 584
f 586 585 584
f 584 583 586
f 584 583 586
f 583 536 587
f 583 536 587
f 587 586 583
f 587 586 583
f 537 587 536
f 537 587 536
f 389 585 588
f 389 585 588
f 588 378 389
f 588 378 389
f 378 588 370
f 378 588 370
f 585 586 589
f 585 586 589
f 589 588 585
f 589 588 585
f 590 370 588
f 590 370 588
f 588 589 590
f 588 589 590
f 370 590 368
f 370 590 368
f 591 589 586
f 591 589 586
f 586 587 591
f 586 587 591
f 587 537 592
f 587 537 592
f 592 591 587
f 592 591 587
f 538 592 537
f 538 592 537
f 589 591 593
f 593 590 589
f 589 591 593
f 593 590 589
f 594 368 590
f 594 368 590
f 590 593 594
f 590 593 594
f 368 594 357
f 368 594 357
f 592 538 595
f 592 538 595
f 591 592 596
f 591 592 596
f 595 596 592
f 595 596 592
f 596 593 591
f 596 593 591
f 539 595 538
f 539 595 538
f 593 596 597
f 597 594 593
f 593 596 597
f 597 594 593
f 598 357 594
f 598 357 594
f 594 597 598
f 594 597 598
f 357 598 358
f 357 598 358
f 595 539 599
f 595 539 599
f 596 595 600
f 596 595 600
f 599 600 595
f 599 600 595
f 600 597 596
f 600 597 596
f 540 599 539
f 540 599 539
f 597 600 601
f 601 598 597
f 597 600 601
f 601 598 597
f 602 358 598
f 602 358 598
f 598 601 602
f 598 601 602
f 358 602 603
f 358 602 603
f 599 540 604
f 599 540 604
f 600 599 605
f 600 599 605
f 604 605 599
f 604 605 599
f 605 601 600
f 605 601 600
f 541 604 540
f 541 604 540
f 601 605 606
f 606 602 601
f 601 605 606
f 606 602 601
f 607 603 602
f 607 603 602
f 602 606 607
f 602 606 607
f 603 607 608
f 603 607 608
f 604 541 609
f 604 541 609
f 605 604 610
f 605 604 610
f 609 610 604
f 609 610 604
f 610 606 605
f 610 606 605
f 542 609 541
f 542 609 541
f 606 610 611
f 611 607 606
f 606 610 611
f 611 607 606
f 612 608 607
f 612 608 607
f 607 611 612
f 607 611 612
f 608 612 613
f 608 612 613
f 609 542 614
f 609 542 614
f 610 609 615
f 610 609 615
f 614 615 609
f 614 615 609
f 615 611 610
f 615 611 610
f 543 614 542
f 543 614 542
f 611 615 616
f 616 612 611
f 611 615 616
f 616 612 611
f 617 613 612
f 617 613 612
f 612 616 617
f 612 616 617
f 613 617 618
f 613 617 618
f 614 543 619
f 614 543 619
f 615 614 620
f 615 614 620
f 619 620 614
f 619 620 614
f 620 616 615
f 620 616 615
f 544 619 543
f 544 619 543
f 616 620 621
f 621 617 616
f 616 620 621
f 621 617 616
f 622 618 617
f 622 618 617
f 617 621 622
f 617 621 622
f 618 622 623
f 618 622 623
f 619 544 624
f 619 544 624
f 620 619 625
f 620 619 625
f 624 625 619
f 624 625 619
f 625 621 620
f 625 621 620
f 545 624 544
f 545 624 544
f 621 625 626
f 626 622 621
f 621 625 626
f 626 622 621
f 627 623 622
f 627 623 622
f 622 626 627
f 622 626 627
f 623 627 628
f 623 627 628
f 624 545 629
f 624 545 629
f 625 624 630
f 625 624 630
f 629 630 624
f 629 630 624
f 630 626 625
f 630 626 625
f 546 629 545
f 546 629 545
f 626 630 631
f 631 627 626
f 626 630 631
f 631 627 626
f 632 628 627
f 632 628 627
f 627 631 632
f 627 631 632
f 628 632 633
f 628 632 633
f 629 546 634
f 629 546 634
f 547 634 546
f 547 634 546
f 630 629 635
f 630 629 635
f 634 635 629
f 634 635 629
f 635 631 630
f 635 631 630
f 634 547 554
f 634 547 554
f 554 636 634
f 554 636 634
f 635 634 636
f 635 634 636
f 636 554 558
f 636 554 558
f 631 635 637
f 631 635 637
f 636 637 635
f 636 637 635
f 637 632 631
f 637 632 631
f 558 638 636
f 558 638 636
f 637 636 638
f 637 636 638
f 638 558 562
f 638 558 562
f 632 637 639
f 632 637 639
f 638 639 637
f 638 639 637
f 639 633 632
f 639 633 632
f 562 640 638
f 562 640 638
f 639 638 640
f 639 638 640
f 633 639 641
f 633 639 641
f 640 641 639
f 640 641 639
f 641 640 642
f 641 640 642
f 640 562 566
f 640 562 566
f 566 642 640
f 566 642 640
f 642 566 567
f 642 566 567
f 128 643 131
f 128 643 131
f 644 133 132
f 644 133 132
f 131 643 645
f 131 643 645
f 645 646 131
f 645 646 131
f 132 647 644
f 132 647 644
f 648 646 645
f 648 646 645
f 644 647 649
f 644 647 649
f 649 650 644
f 649 650 644
f 651 648 645
f 651 648 645
f 652 650 649
f 652 650 649
f 651 653 648
f 651 653 648
f 649 654 652
f 649 654 652
f 652 654 655
f 652 654 655
f 655 656 652
f 655 656 652
f 653 657 648
f 653 657 648
f 658 656 655
f 658 656 655
f 659 657 653
f 659 657 653
f 655 660 658
f 655 660 658
f 653 661 659
f 653 661 659
f 659 661 662
f 659 661 662
f 662 663 659
f 662 663 659
f 658 660 664
f 658 660 664
f 665 663 662
f 665 663 662
f 664 666 658
f 664 666 658
f 662 667 665
f 662 667 665
f 668 666 664
f 668 666 664
f 665 667 669
f 665 667 669
f 669 670 665
f 669 670 665
f 664 671 668
f 664 671 668
f 672 670 669
f 672 670 669
f 668 671 673
f 668 671 673
f 673 674 668
f 673 674 668
f 669 675 672
f 669 675 672
f 676 674 673
f 676 674 673
f 672 675 677
f 672 675 677
f 677 678 672
f 677 678 672
f 679 678 677
f 679 678 677
f 677 680 679
f 677 680 679
f 673 681 676
f 673 681 676
f 676 681 682
f 676 681 682
f 682 683 676
f 682 683 676
f 684 683 682
f 684 683 682
f 682 685 684
f 682 685 684
f 684 685 686
f 684 685 686
f 687 684 686
f 687 684 686
f 687 686 688
f 687 686 688
f 686 689 688
f 686 689 688
f 688 689 690
f 688 689 690
f 690 691 688
f 690 691 688
f 692 691 690
f 692 691 690
f 690 693 692
f 690 693 692
f 692 693 694
f 692 693 694
f 694 695 692
f 694 695 692
f 696 417 697
f 696 417 697
f 417 696 419
f 417 696 419
f 415 697 417
f 415 697 417
f 698 699 697
f 697 415 698
f 698 699 697
f 697 415 698
f 700 699 701
f 700 699 701
f 702 701 699
f 699 698 702
f 702 701 699
f 699 698 702
f 701 618 700
f 701 618 700
f 623 700 618
f 623 700 618
f 701 702 703
f 701 702 703
f 703 613 701
f 618 701 613
f 703 613 701
f 618 701 613
f 704 703 702
f 704 703 702
f 705 702 698
f 702 705 704
f 705 702 698
f 702 705 704
f 698 413 705
f 698 413 705
f 413 698 415
f 413 698 415
f 411 705 413
f 411 705 413
f 706 704 705
f 705 411 706
f 706 704 705
f 705 411 706
f 703 704 707
f 703 704 707
f 708 707 704
f 704 706 708
f 708 707 704
f 704 706 708
f 707 608 703
f 707 608 703
f 613 703 608
f 613 703 608
f 707 708 709
f 707 708 709
f 709 603 707
f 608 707 603
f 709 603 707
f 608 707 603
f 710 709 708
f 710 709 708
f 711 708 706
f 708 711 710
f 711 708 706
f 708 711 710
f 706 409 711
f 706 409 711
f 409 706 411
f 409 706 411
f 363 711 409
f 363 711 409
f 361 710 711
f 711 363 361
f 361 710 711
f 711 363 361
f 709 710 354
f 709 710 354
f 355 354 710
f 710 361 355
f 355 354 710
f 710 361 355
f 354 358 709
f 354 358 709
f 603 709 358
f 603 709 358
f 712 713 714
f 712 713 714
f 714 576 712
f 577 712 576
f 714 576 712
f 577 712 576
f 715 714 713
f 715 714 713
f 716 713 717
f 713 716 715
f 716 713 717
f 713 716 715
f 717 445 716
f 717 445 716
f 445 717 447
f 445 717 447
f 443 716 445
f 443 716 445
f 718 715 716
f 716 443 718
f 718 715 716
f 716 443 718
f 714 715 719
f 714 715 719
f 720 719 715
f 715 718 720
f 720 719 715
f 715 718 720
f 719 575 714
f 719 575 714
f 576 714 575
f 576 714 575
f 719 720 721
f 719 720 721
f 721 574 719
f 575 719 574
f 721 574 719
f 575 719 574
f 722 721 720
f 722 721 720
f 723 720 718
f 720 723 722
f 723 720 718
f 720 723 722
f 718 441 723
f 718 441 723
f 441 718 443
f 441 718 443
f 439 723 441
f 439 723 441
f 724 722 723
f 723 439 724
f 724 722 723
f 723 439 724
f 721 722 725
f 721 722 725
f 726 725 722
f 722 724 726
f 726 725 722
f 722 724 726
f 725 573 721
f 725 573 721
f 574 721 573
f 574 721 573
f 725 726 727
f 725 726 727
f 727 572 725
f 573 725 572
f 727 572 725
f 573 725 572
f 728 727 726
f 728 727 726
f 729 726 724
f 726 729 728
f 729 726 724
f 726 729 728
f 724 437 729
f 724 437 729
f 437 724 439
f 437 724 439
f 435 729 437
f 435 729 437
f 730 728 729
f 729 435 730
f 730 728 729
f 729 435 730
f 727 728 731
f 727 728 731
f 732 731 728
f 728 730 732
f 732 731 728
f 728 730 732
f 731 571 727
f 731 571 727
f 572 727 571
f 572 727 571
f 731 732 733
f 731 732 733
f 733 570 731
f 571 731 570
f 733 570 731
f 571 731 570
f 734 733 732
f 734 733 732
f 735 732 730
f 732 735 734
f 735 732 730
f 732 735 734
f 730 433 735
f 730 433 735
f 433 730 435
f 433 730 435
f 431 735 433
f 431 735 433
f 736 734 735
f 735 431 736
f 736 734 735
f 735 431 736
f 733 734 737
f 733 734 737
f 738 737 734
f 734 736 738
f 738 737 734
f 734 736 738
f 737 569 733
f 737 569 733
f 570 733 569
f 570 733 569
f 737 738 739
f 737 738 739
f 739 568 737
f 569 737 568
f 739 568 737
f 569 737 568
f 740 739 738
f 740 739 738
f 741 738 736
f 738 741 740
f 741 738 736
f 738 741 740
f 736 429 741
f 736 429 741
f 429 736 431
f 429 736 431
f 427 741 429
f 427 741 429
f 742 740 741
f 741 427 742
f 742 740 741
f 741 427 742
f 739 740 743
f 739 740 743
f 744 743 740
f 740 742 744
f 744 743 740
f 740 742 744
f 743 567 739
f 743 567 739
f 568 739 567
f 568 739 567
f 743 744 745
f 743 744 745
f 745 642 743
f 567 743 642
f 745 642 743
f 567 743 642
f 746 745 744
f 746 745 744
f 747 744 742
f 744 747 746
f 747 744 742
f 744 747 746
f 742 425 747
f 742 425 747
f 425 742 427
f 425 742 427
f 423 747 425
f 423 747 425
f 748 746 747
f 747 423 748
f 748 746 747
f 747 423 748
f 745 746 749
f 745 746 749
f 750 749 746
f 746 748 750
f 750 749 746
f 746 748 750
f 749 641 745
f 749 641 745
f 642 745 641
f 642 745 641
f 749 750 751
f 749 750 751
f 751 633 749
f 641 749 633
f 751 633 749
f 641 749 633
f 752 751 750
f 752 751 750
f 753 750 748
f 750 753 752
f 753 750 748
f 750 753 752
f 748 421 753
f 748 421 753
f 421 748 423
f 421 748 423
f 419 753 421
f 419 753 421
f 696 752 753
f 753 419 696
f 696 752 753
f 753 419 696
f 751 752 754
f 751 752 754
f 755 754 752
f 752 696 755
f 755 754 752
f 752 696 755
f 754 628 751
f 754 628 751
f 633 751 628
f 633 751 628
f 754 755 700
f 754 755 700
f 700 623 754
f 628 754 623
f 700 623 754
f 628 754 623
f 699 700 755
f 699 700 755
f 697 755 696
f 755 697 699
f 697 755 696
f 755 697 699
f 346 391 353
f 346 391 353
f 391 346 345
f 391 346 345
f 394 353 391
f 394 353 391
f 756 352 353
f 353 394 756
f 756 352 353
f 353 394 756
f 350 352 757
f 350 352 757
f 758 757 352
f 352 756 758
f 758 757 352
f 352 756 758
f 757 581 350
f 757 581 350
f 351 350 581
f 351 350 581
f 757 758 759
f 757 758 759
f 759 580 757
f 581 757 580
f 759 580 757
f 581 757 580
f 760 759 758
f 760 759 758
f 761 758 756
f 758 761 760
f 761 758 756
f 758 761 760
f 756 453 761
f 756 453 761
f 453 756 394
f 453 756 394
f 451 761 453
f 451 761 453
f 762 760 761
f 761 451 762
f 762 760 761
f 761 451 762
f 759 760 763
f 759 760 763
f 764 763 760
f 760 762 764
f 764 763 760
f 760 762 764
f 763 579 759
f 763 579 759
f 580 759 579
f 580 759 579
f 763 764 765
f 763 764 765
f 765 578 763
f 579 763 578
f 765 578 763
f 579 763 578
f 766 765 764
f 766 765 764
f 767 764 762
f 764 767 766
f 767 764 762
f 764 767 766
f 762 449 767
f 762 449 767
f 449 762 451
f 449 762 451
f 447 767 449
f 447 767 449
f 717 766 767
f 767 447 717
f 717 766 767
f 767 447 717
f 765 766 712
f 765 766 712
f 713 712 766
f 766 717 713
f 713 712 766
f 766 717 713
f 712 577 765
f 712 577 765
f 578 765 577
f 578 765 577
