v 0.151018187 -0.024435183 0.0486402288
v 0.151018187 -0.0244279709 0.0518772379
v 0.151018187 -0.0288336482 0.051887013
v 0.151018187 -0.0288408007 0.048650004
v 0.146543458 -0.0288330521 0.051242508
v 0.146543458 -0.0288373437 0.049294509
v 0.146543458 -0.0245406833 0.0492849723
v 0.146543458 -0.0245363321 0.0512329713
v 0.142298177 -0.024435183 0.0486402288
v 0.142298177 -0.0244279709 0.0518772379
v 0.142298177 -0.0288336482 0.051887013
v 0.142298177 -0.0288408007 0.048650004
v 0.138108209 -0.0288330521 0.051242508
v 0.138108209 -0.0288373437 0.049294509
v 0.138108209 -0.0245406833 0.0492849723
v 0.138108209 -0.0245363321 0.0512329713
v 0.133868471 -0.024435183 0.0486402288
v 0.133868471 -0.0244279709 0.0518772379
v 0.133868471 -0.0288336482 0.051887013
v 0.133868471 -0.0288408007 0.048650004
v 0.129409537 -0.0288330521 0.051242508
v 0.129409537 -0.0288373437 0.049294509
v 0.129409537 -0.0245406833 0.0492849723
v 0.129409537 -0.0245363321 0.0512329713
v 0.151018187 -0.0288408007 0.048650004
v 0.151018187 -0.0288336482 0.051887013
v 0.150803372 -0.0289618578 0.0516724959
v 0.150803372 -0.0289681163 0.0488651171
v 0.146328613 -0.0289623346 0.0514576212
v 0.146328613 -0.0289676394 0.0490799323
v 0.146543458 -0.0288373437 0.049294509
v 0.146543458 -0.0288330521 0.051242508
v 0.142298177 -0.0288408007 0.048650004
v 0.142298177 -0.0288336482 0.051887013
v 0.142083332 -0.0289618578 0.0516724959
v 0.142083332 -0.0289681163 0.0488651171
v 0.137893364 -0.0289623346 0.0514576212
v 0.137893364 -0.0289676394 0.0490799323
v 0.138108209 -0.0288373437 0.049294509
v 0.138108209 -0.0288330521 0.051242508
v -0.172319219 0.174623534 0.0579547063
v -0.171413884 0.17461209 0.0528204218
v -0.171676621 0.174148187 0.0531264916
v -0.172461733 0.174158081 0.0575792566
v 0.133868471 -0.0288408007 0.048650004
v 0.133868471 -0.0288336482 0.051887013
v 0.133653626 -0.0289618578 0.0516724959
v 0.133653626 -0.0289681163 0.0488651171
v 0.129194722 -0.0289623346 0.0514576212
v 0.129194722 -0.0289676394 0.0490799323
v 0.129409537 -0.0288373437 0.049294509
v 0.129409537 -0.0288330521 0.051242508
v -0.171736702 0.164505586 0.0534886494
v -0.172401652 0.164513931 0.0572599545
v -0.172135755 0.164977893 0.0569544807
v -0.171590909 0.164971039 0.0538646951
v -0.173474535 0.158799872 0.0602019206
v -0.172052428 0.158781931 0.0521368757
v -0.172465071 0.158053204 0.0526176468
v -0.17369841 0.158068761 0.0596121922
v -0.172559485 0.143819913 0.0531845465
v -0.173604056 0.143833086 0.0591085926
v -0.173186347 0.144561872 0.0586287156
v -0.172330543 0.144551083 0.053775169
v -0.172319219 0.137567744 0.0580371395
v -0.171413884 0.1375563 0.0529027954
v -0.171676621 0.137092337 0.0532088652
v -0.172461733 0.137102291 0.0576616898
v -0.171736702 0.127415463 0.0535711423
v -0.172401711 0.127423868 0.0573424473
v -0.172135755 0.12788783 0.0570369735
v -0.171590969 0.127880976 0.053947188
v -0.172319219 0.10740409 0.0581041947
v -0.171413884 0.107392706 0.0529698506
v -0.171676621 0.106928743 0.0532759205
v -0.172461793 0.106938638 0.057728745
v -0.165331289 0.174626276 0.0591868535
v -0.164426014 0.174614832 0.054052569
v -0.171413884 0.17461209 0.0528204218
v -0.172319219 0.174623534 0.0579547063
v -0.171736702 0.0972861424 0.0536381379
v -0.172401711 0.0972944871 0.057409443
v -0.172135755 0.0977584496 0.0571039096
v -0.171590969 0.0977515951 0.054014124
v -0.172319219 0.0885913745 0.0581459776
v -0.171413943 0.0885799304 0.0530116931
v -0.171676621 0.0881160274 0.0533177629
v -0.172461793 0.0881259218 0.0577705875
v -0.171590909 0.164971039 0.0538646951
v -0.172135755 0.164977893 0.0569544807
v -0.165320739 0.164980575 0.0581561103
v -0.164775893 0.164973721 0.0550663248
v -0.171736702 0.0790549889 0.053678669
v -0.172401711 0.0790633932 0.0574499741
v -0.172135755 0.0795273557 0.0571444407
v -0.171590969 0.0795205012 0.0540546551
v -0.172319219 0.0703483 0.0581865683
v -0.171413943 0.0703368559 0.0530522838
v -0.171676621 0.069872953 0.0533583537
v -0.172461793 0.0698828474 0.0578111187
v -0.172465071 0.158053204 0.0526176468
v -0.172465131 0.143088922 0.0526509061
v -0.172559485 0.143819913 0.0531845465
v -0.173604056 0.143833086 0.0591085926
v -0.172559485 0.157324538 0.0531545058
v -0.17369841 0.143104479 0.0596454516
v -0.173604056 0.15733771 0.0590785518
v -0.17369841 0.158068761 0.0596121922
v -0.171676621 0.106928743 0.0532759205
v -0.171676621 0.0968207493 0.0532983914
v -0.171736702 0.0972861424 0.0536381379
v -0.172401711 0.0972944871 0.057409443
v -0.171736702 0.1064649 0.0536176935
v -0.172461793 0.0968306437 0.057751216
v -0.172401711 0.106473245 0.0573889986
v -0.172461793 0.106938638 0.057728745
v -0.171676621 0.0881160274 0.0533177629
v -0.171676621 0.0785896555 0.0533389226
v -0.171736702 0.0790549889 0.053678669
v -0.172401711 0.0790633932 0.0574499741
v -0.171736702 0.0876521245 0.0536595359
v -0.172461793 0.0785995498 0.0577917472
v -0.172401711 0.0876605287 0.057430841
v -0.172461793 0.0881259218 0.0577705875
v -0.171676621 0.069872953 0.0533583537
v -0.171676621 0.0597306862 0.0533808842
v -0.171736702 0.0601960793 0.0537206307
v -0.172401711 0.060204424 0.0574918762
v -0.171736702 0.06940905 0.0537001267
v -0.172461793 0.0597405806 0.0578337088
v -0.172401711 0.0694174543 0.0574714318
v -0.172461793 0.0698828474 0.0578111187
v -0.171676621 0.174148187 0.0531264916
v -0.171676621 0.164040193 0.0531489626
v -0.171736702 0.164505586 0.0534886494
v -0.172401652 0.164513931 0.0572599545
v -0.171736702 0.173684284 0.0534682646
v -0.172461733 0.164050087 0.0576017275
v -0.172401652 0.173692688 0.0572395101
v -0.172461733 0.174158081 0.0575792566
v -0.171676621 0.137092337 0.0532088652
v -0.171676621 0.12695013 0.0532314554
v -0.171736702 0.127415463 0.0535711423
v -0.172401711 0.127423868 0.0573424473
v -0.171736702 0.136628494 0.0535506383
v -0.172461793 0.126960024 0.0576842204
v -0.172401652 0.136636898 0.0573219433
v -0.172461733 0.137102291 0.0576616898
v -0.162497744 0.158804163 0.0621374026
v -0.161075637 0.158786282 0.0540723577
v -0.172052428 0.158781931 0.0521368757
v -0.173474535 0.158799872 0.0602019206
v -0.171736702 0.0601960793 0.0537206307
v -0.172401711 0.060204424 0.0574918762
v -0.172135755 0.0606683865 0.0571864024
v -0.171590969 0.060661532 0.0540966168
v -0.173474535 0.142375931 0.0602384582
v -0.173474535 0.158799872 0.0602019206
v -0.17369841 0.158068761 0.0596121922
v -0.17369841 0.143104479 0.0596454516
v -0.172319219 0.09636686 0.0581286922
v -0.172319219 0.10740409 0.0581041947
v -0.172461793 0.106938638 0.057728745
v -0.172461793 0.0968306437 0.057751216
v -0.172319219 0.0781357661 0.058169283
v -0.172319219 0.0885913745 0.0581459776
v -0.172461793 0.0881259218 0.0577705875
v -0.172461793 0.0785995498 0.0577917472
v -0.172319219 0.0592767969 0.058211185
v -0.172319219 0.0703483 0.0581865683
v -0.172461793 0.0698828474 0.0578111187
v -0.172461793 0.0597405806 0.0578337088
v -0.172319219 0.163586304 0.0579792634
v -0.172319219 0.174623534 0.0579547063
v -0.172461733 0.174158081 0.0575792566
v -0.172461733 0.164050087 0.0576017275
v -0.172319219 0.12649624 0.0580617562
v -0.172319219 0.137567744 0.0580371395
v -0.172461733 0.137102291 0.0576616898
v -0.172461793 0.126960024 0.0576842204
v -0.172559485 0.157324538 0.0531545058
v -0.172559485 0.143819913 0.0531845465
v -0.172330543 0.144551083 0.053775169
v -0.172330543 0.15659599 0.0537484065
v -0.171736702 0.1064649 0.0536176935
v -0.171736702 0.0972861424 0.0536381379
v -0.171590969 0.0977515951 0.054014124
v -0.171590969 0.106001057 0.0539957657
v -0.171736702 0.0876521245 0.0536595359
v -0.171736702 0.0790549889 0.053678669
v -0.171590969 0.0795205012 0.0540546551
v -0.171590969 0.0871883407 0.0540376082
v -0.171736702 0.06940905 0.0537001267
v -0.171736702 0.0601960793 0.0537206307
v -0.171590969 0.060661532 0.0540966168
v -0.171590969 0.0689452663 0.054078199
v -0.171736702 0.173684284 0.0534682646
v -0.171736702 0.164505586 0.0534886494
v -0.171590909 0.164971039 0.0538646951
v -0.171590909 0.1732205 0.0538463369
v -0.171736702 0.136628494 0.0535506383
v -0.171736702 0.127415463 0.0535711423
v -0.171590969 0.127880976 0.053947188
v -0.171590969 0.13616471 0.0539287105
v -0.172330543 0.144551083 0.053775169
v -0.173186347 0.144561872 0.0586287156
v -0.162481114 0.144566104 0.0605162755
v -0.161625311 0.144555256 0.0556627885
v -0.171413943 0.0592653528 0.0530769005
v -0.172319219 0.0592767969 0.058211185
v -0.172461793 0.0597405806 0.0578337088
v -0.171676621 0.0597306862 0.0533808842
v -0.172052428 0.158781931 0.0521368757
v -0.172052428 0.14235799 0.0521733537
v -0.172465131 0.143088922 0.0526509061
v -0.172465071 0.158053204 0.0526176468
v -0.171413943 0.0885799304 0.0530116931
v -0.171413943 0.078124322 0.0530349389
v -0.171676621 0.0785896555 0.0533389226
v -0.171676621 0.0881160274 0.0533177629
v -0.171413943 0.0703368559 0.0530522838
v -0.171413943 0.0592653528 0.0530769005
v -0.171676621 0.0597306862 0.0533808842
v -0.171676621 0.069872953 0.0533583537
v -0.171413884 0.107392706 0.0529698506
v -0.171413943 0.0963554159 0.0529944077
v -0.171676621 0.0968207493 0.0532983914
v -0.171676621 0.106928743 0.0532759205
v -0.171413884 0.17461209 0.0528204218
v -0.171413884 0.163574859 0.0528449789
v -0.171676621 0.164040193 0.0531489626
v -0.171676621 0.174148187 0.0531264916
v -0.171413884 0.1375563 0.0529027954
v -0.171413884 0.126484796 0.0529274121
v -0.171676621 0.12695013 0.0532314554
v -0.171676621 0.137092337 0.0532088652
v -0.172401711 0.0694174543 0.0574714318
v -0.171736702 0.06940905 0.0537001267
v -0.171590969 0.0689452663 0.054078199
v -0.172135755 0.0689521208 0.0571679845
v -0.165331349 0.137570485 0.0592692867
v -0.164426014 0.137559041 0.0541349426
v -0.171413884 0.1375563 0.0529027954
v -0.172319219 0.137567744 0.0580371395
v -0.172401711 0.0972944871 0.057409443
v -0.172401711 0.106473245 0.0573889986
v -0.172135755 0.106007971 0.0570855513
v -0.172135755 0.0977584496 0.0571039096
v -0.172401711 0.0790633932 0.0574499741
v -0.172401711 0.0876605287 0.057430841
v -0.172135755 0.0871952549 0.0571273938
v -0.172135755 0.0795273557 0.0571444407
v -0.172401711 0.060204424 0.0574918762
v -0.172401711 0.0694174543 0.0574714318
v -0.172135755 0.0689521208 0.0571679845
v -0.172135755 0.0606683865 0.0571864024
v -0.172401652 0.164513931 0.0572599545
v -0.172401652 0.173692688 0.0572395101
v -0.172135755 0.173227414 0.0569361225
v -0.172135755 0.164977893 0.0569544807
v -0.172401711 0.127423868 0.0573424473
v -0.172401652 0.136636898 0.0573219433
v -0.172135755 0.136171564 0.0570184961
v -0.172135755 0.12788783 0.0570369735
v -0.173604056 0.143833086 0.0591085926
v -0.173604056 0.15733771 0.0590785518
v -0.173186347 0.156606779 0.0586018935
v -0.173186347 0.144561872 0.0586287156
v -0.171413943 0.078124322 0.0530349389
v -0.172319219 0.0781357661 0.058169283
v -0.172461793 0.0785995498 0.0577917472
v -0.171676621 0.0785896555 0.0533389226
v -0.172401711 0.0876605287 0.057430841
v -0.171736702 0.0876521245 0.0536595359
v -0.171590969 0.0871883407 0.0540376082
v -0.172135755 0.0871952549 0.0571273938
v -0.171413943 0.0963554159 0.0529944077
v -0.172319219 0.09636686 0.0581286922
v -0.172461793 0.0968306437 0.057751216
v -0.171676621 0.0968207493 0.0532983914
v -0.171590969 0.127880976 0.053947188
v -0.172135755 0.12788783 0.0570369735
v -0.165320739 0.127890512 0.0582386032
v -0.164775893 0.127883598 0.0551488176
v -0.172401711 0.106473245 0.0573889986
v -0.171736702 0.1064649 0.0536176935
v -0.171590969 0.106001057 0.0539957657
v -0.172135755 0.106007971 0.0570855513
v -0.171413884 0.126484796 0.0529274121
v -0.172319219 0.12649624 0.0580617562
v -0.172461793 0.126960024 0.0576842204
v -0.171676621 0.12695013 0.0532314554
v 0.128979877 -0.0289681163 0.0488651171
v 0.133653626 -0.0289681163 0.0488651171
v 0.133438781 -0.0289676394 0.0490799323
v 0.133438781 -0.0289623346 0.0514576212
v 0.129194722 -0.0289676394 0.0490799323
v 0.133653626 -0.0289618578 0.0516724959
v 0.129194722 -0.0289623346 0.0514576212
v 0.128979877 -0.0289618578 0.0516724959
v 0.137678519 -0.0289681163 0.0488651171
v 0.142083332 -0.0289681163 0.0488651171
v 0.141868517 -0.0289676394 0.0490799323
v 0.141868517 -0.0289623346 0.0514576212
v 0.137893364 -0.0289676394 0.0490799323
v 0.142083332 -0.0289618578 0.0516724959
v 0.137893364 -0.0289623346 0.0514576212
v 0.137678519 -0.0289618578 0.0516724959
v 0.146113768 -0.0289681163 0.0488651171
v 0.150803372 -0.0289681163 0.0488651171
v 0.150588527 -0.0289676394 0.0490799323
v 0.150588527 -0.0289623346 0.0514576212
v 0.146328613 -0.0289676394 0.0490799323
v 0.150803372 -0.0289618578 0.0516724959
v 0.146328613 -0.0289623346 0.0514576212
v 0.146113768 -0.0289618578 0.0516724959
v 0.128765061 -0.0288408007 0.048650004
v 0.133868471 -0.0288408007 0.048650004
v 0.133653626 -0.0289681163 0.0488651171
v 0.128979877 -0.0289681163 0.0488651171
v 0.137463704 -0.0288408007 0.048650004
v 0.142298177 -0.0288408007 0.048650004
v 0.142083332 -0.0289681163 0.0488651171
v 0.137678519 -0.0289681163 0.0488651171
v 0.145898953 -0.0288408007 0.048650004
v 0.151018187 -0.0288408007 0.048650004
v 0.150803372 -0.0289681163 0.0488651171
v 0.146113768 -0.0289681163 0.0488651171
v 0.133438781 -0.0289623346 0.0514576212
v 0.129194722 -0.0289623346 0.0514576212
v 0.129409537 -0.0288330521 0.051242508
v 0.133223966 -0.0288330521 0.051242508
v 0.141868517 -0.0289623346 0.0514576212
v 0.137893364 -0.0289623346 0.0514576212
v 0.138108209 -0.0288330521 0.051242508
v 0.141653672 -0.0288330521 0.051242508
v 0.150588527 -0.0289623346 0.0514576212
v 0.146328613 -0.0289623346 0.0514576212
v 0.146543458 -0.0288330521 0.051242508
v 0.150373682 -0.0288330521 0.051242508
v -0.172401652 0.136636898 0.0573219433
v -0.171736702 0.136628494 0.0535506383
v -0.171590969 0.13616471 0.0539287105
v -0.172135755 0.136171564 0.0570184961
v -0.172052428 0.14235799 0.0521733537
v -0.173474535 0.142375931 0.0602384582
v -0.17369841 0.143104479 0.0596454516
v -0.172465131 0.143088922 0.0526509061
v -0.165331349 0.107406832 0.0593363419
v -0.164426014 0.107395448 0.0542019978
v -0.171413884 0.107392706 0.0529698506
v -0.172319219 0.10740409 0.0581041947
v -0.173604056 0.15733771 0.0590785518
v -0.172559485 0.157324538 0.0531545058
v -0.172330543 0.15659599 0.0537484065
v -0.173186347 0.156606779 0.0586018935
v -0.171413884 0.163574859 0.0528449789
v -0.172319219 0.163586304 0.0579792634
v -0.172461733 0.164050087 0.0576017275
v -0.171676621 0.164040193 0.0531489626
v -0.171590969 0.0977515951 0.054014124
v -0.172135755 0.0977584496 0.0571039096
v -0.165320739 0.0977611318 0.0583055988
v -0.164775893 0.0977542773 0.0552158132
v 0.133868471 -0.0288336482 0.051887013
v 0.128765061 -0.0288336482 0.051887013
v 0.128979877 -0.0289618578 0.0516724959
v 0.133653626 -0.0289618578 0.0516724959
v 0.142298177 -0.0288336482 0.051887013
v 0.137463704 -0.0288336482 0.051887013
v 0.137678519 -0.0289618578 0.0516724959
v 0.142083332 -0.0289618578 0.0516724959
v 0.151018187 -0.0288336482 0.051887013
v 0.145898953 -0.0288336482 0.051887013
v 0.146113768 -0.0289618578 0.0516724959
v 0.150803372 -0.0289618578 0.0516724959
v 0.129194722 -0.0289676394 0.0490799323
v 0.133438781 -0.0289676394 0.0490799323
v 0.133223966 -0.0288373437 0.049294509
v 0.129409537 -0.0288373437 0.049294509
v 0.137893364 -0.0289676394 0.0490799323
v 0.141868517 -0.0289676394 0.0490799323
v 0.141653672 -0.0288373437 0.049294509
v 0.138108209 -0.0288373437 0.049294509
v 0.146328613 -0.0289676394 0.0490799323
v 0.150588527 -0.0289676394 0.0490799323
v 0.150373682 -0.0288373437 0.049294509
v 0.146543458 -0.0288373437 0.049294509
v -0.172401652 0.173692688 0.0572395101
v -0.171736702 0.173684284 0.0534682646
v -0.171590909 0.1732205 0.0538463369
v -0.172135755 0.173227414 0.0569361225
v -0.165331349 0.0885941163 0.0593781248
v -0.164426014 0.0885826722 0.0542438403
v -0.171413943 0.0885799304 0.0530116931
v -0.172319219 0.0885913745 0.0581459776
v -0.171590969 0.0795205012 0.0540546551
v -0.172135755 0.0795273557 0.0571444407
v -0.165320739 0.0795300379 0.05834613
v -0.164775953 0.0795231238 0.0552563444
v -0.165331349 0.0703510419 0.0594187155
v -0.164426014 0.0703395978 0.054284431
v -0.171413943 0.0703368559 0.0530522838
v -0.172319219 0.0703483 0.0581865683
v 0.128765061 -0.024435183 0.0486402288
v 0.133868471 -0.024435183 0.0486402288
v 0.133868471 -0.0288408007 0.048650004
v 0.128765061 -0.0288408007 0.048650004
v 0.137463704 -0.024435183 0.0486402288
v 0.142298177 -0.024435183 0.0486402288
v 0.142298177 -0.0288408007 0.048650004
v 0.137463704 -0.0288408007 0.048650004
v 0.145898953 -0.024435183 0.0486402288
v 0.151018187 -0.024435183 0.0486402288
v 0.151018187 -0.0288408007 0.048650004
v 0.145898953 -0.0288408007 0.048650004
v -0.171590969 0.060661532 0.0540966168
v -0.172135755 0.0606683865 0.0571864024
v -0.165320739 0.0606710687 0.0583880916
v -0.164775953 0.0606641546 0.055298306
v 0.133223966 -0.0288330521 0.051242508
v 0.129409537 -0.0288330521 0.051242508
v 0.129409537 -0.0245363321 0.0512329713
v 0.133223966 -0.0245363321 0.0512329713
v 0.141653672 -0.0288330521 0.051242508
v 0.138108209 -0.0288330521 0.051242508
v 0.138108209 -0.0245363321 0.0512329713
v 0.141653672 -0.0245363321 0.0512329713
v 0.150373682 -0.0288330521 0.051242508
v 0.146543458 -0.0288330521 0.051242508
v 0.146543458 -0.0245363321 0.0512329713
v 0.150373682 -0.0245363321 0.0512329713
v -0.162497744 0.142380223 0.0621739402
v -0.162497744 0.158804163 0.0621374026
v -0.173474535 0.158799872 0.0602019206
v -0.173474535 0.142375931 0.0602384582
v -0.165331349 0.0963696018 0.0593608394
v -0.165331349 0.107406832 0.0593363419
v -0.172319219 0.10740409 0.0581041947
v -0.172319219 0.09636686 0.0581286922
v -0.165331349 0.0781384483 0.0594014302
v -0.165331349 0.0885941163 0.0593781248
v -0.172319219 0.0885913745 0.0581459776
v -0.172319219 0.0781357661 0.058169283
v -0.165331349 0.0592795387 0.0594433323
v -0.165331349 0.0703510419 0.0594187155
v -0.172319219 0.0703483 0.0581865683
v -0.172319219 0.0592767969 0.058211185
v -0.165331289 0.163589045 0.0592114106
v -0.165331289 0.174626276 0.0591868535
v -0.172319219 0.174623534 0.0579547063
v -0.172319219 0.163586304 0.0579792634
v -0.165331349 0.126498923 0.0592939034
v -0.165331349 0.137570485 0.0592692867
v -0.172319219 0.137567744 0.0580371395
v -0.172319219 0.12649624 0.0580617562
v -0.171590969 0.106001057 0.0539957657
v -0.171590969 0.0977515951 0.054014124
v -0.164775893 0.0977542773 0.0552158132
v -0.164775893 0.106003739 0.055197455
v -0.171590969 0.0871883407 0.0540376082
v -0.171590969 0.0795205012 0.0540546551
v -0.164775953 0.0795231238 0.0552563444
v -0.164775953 0.0871910229 0.0552392974
v -0.171590969 0.0689452663 0.054078199
v -0.171590969 0.060661532 0.0540966168
v -0.164775953 0.0606641546 0.055298306
v -0.164775953 0.0689479485 0.0552798882
v -0.171590909 0.1732205 0.0538463369
v -0.171590909 0.164971039 0.0538646951
v -0.164775893 0.164973721 0.0550663248
v -0.164775893 0.173223183 0.0550479665
v -0.172330543 0.15659599 0.0537484065
v -0.172330543 0.144551083 0.053775169
v -0.161625311 0.144555256 0.0556627885
v -0.161625311 0.156600162 0.055636026
v -0.171590969 0.13616471 0.0539287105
v -0.171590969 0.127880976 0.053947188
v -0.164775893 0.127883598 0.0551488176
v -0.164775893 0.136167392 0.0551303998
v -0.0390414521 0.0384789482 0.0758688822
v -0.0358361527 0.0384789482 0.0758688822
v -0.0362656042 0.0400815979 0.075865306
v -0.036029689 0.0402176157 0.0757919922
v -0.0374388024 0.0412548557 0.0758626834
v -0.0373026058 0.0414905325 0.0757891908
v -0.0390414521 0.041956462 0.0757881775
v -0.0390414521 0.0416842476 0.0758617297
v -0.0390414521 0.0421554223 0.0755883232
v -0.0372029468 0.0416627899 0.0755893961
v -0.0355637595 0.0384787694 0.0757958665
v -0.0362656042 0.0368762985 0.0758724585
v -0.0358570144 0.0403168574 0.0755924359
v -0.0390414521 0.0422277823 0.0753158107
v -0.0371664688 0.0417253748 0.0753168836
v -0.0390414521 0.0422250405 0.074082233
v -0.040916495 0.0417226329 0.0740833655
v -0.040916495 0.0417253748 0.0753168836
v -0.040880017 0.0416627899 0.0755893961
v -0.0407802984 0.0414905325 0.0757891908
v -0.0406441018 0.0412548557 0.0758626834
v -0.0420532152 0.0402176157 0.0757919922
v -0.0418173596 0.0400815979 0.075865306
v -0.0422258899 0.0403168574 0.0755924359
v -0.0422891304 0.0403527394 0.0753199831
v -0.0573248789 0.032658197 0.0758818164
v -0.0524195358 0.032658197 0.0758818164
v -0.0530767366 0.0351108089 0.0758763328
v -0.052840881 0.0352468267 0.0758030787
v -0.0548722073 0.0369062796 0.0758723393
v -0.0547360107 0.037142016 0.0757988468
v -0.0573248789 0.0378356948 0.0757972971
v -0.0573248789 0.0375634804 0.0758709088
v -0.0573248789 0.0380345955 0.0755975023
v -0.0546363518 0.0373142138 0.0755991116
v -0.0521472022 0.0326580182 0.0758088008
v -0.0530767366 0.0302055273 0.0758872405
v -0.0526682064 0.0353460684 0.0756034628
v -0.0573248789 0.0381070152 0.0753249303
v -0.0545998737 0.0373768583 0.0753265992
v -0.0573248789 0.0381042734 0.0740914121
v -0.060049884 0.0373741165 0.0740930215
v -0.060049884 0.0373768583 0.0753265992
v -0.060013406 0.0373142138 0.0755991116
v -0.0599136874 0.037142016 0.0757988468
v -0.0597775504 0.0369062796 0.0758723393
v -0.0618088767 0.0352468267 0.0758030787
v -0.0615730211 0.0351108089 0.0758763328
v -0.0619815513 0.0353460684 0.0756034628
v -0.0620447323 0.03538201 0.0753310099
v -0.0503431484 0.0113222394 0.0759292617
v -0.045437865 0.0113222394 0.0759292617
v -0.0460950658 0.0137749109 0.0759237781
v -0.0458591506 0.0139109287 0.075850524
v -0.0478905365 0.0155703817 0.0759197846
v -0.0477543399 0.0158060584 0.0758462921
v -0.0503431484 0.0164997373 0.0758447424
v -0.0503431484 0.0162275229 0.0759183541
v -0.0503431484 0.0166986976 0.0756449476
v -0.0476546213 0.0159783158 0.0756465569
v -0.0451654717 0.0113220606 0.0758562461
v -0.0460950658 0.00886956789 0.0759346858
v -0.0456864759 0.0140101705 0.0756509081
v -0.0503431484 0.0167710576 0.0753723755
v -0.0476181433 0.0160409007 0.0753740445
v -0.0503431484 0.0167683158 0.0741388574
v -0.0530682132 0.0160381589 0.0741404667
v -0.0530682132 0.0160409007 0.0753740445
v -0.0530317351 0.0159783158 0.0756465569
v -0.0529320166 0.0158060584 0.0758462921
v -0.0527958199 0.0155703221 0.0759197846
v -0.0548271462 0.0139109287 0.075850524
v -0.0545912907 0.0137749109 0.0759237781
v -0.0549998209 0.0140101705 0.0756509081
v -0.0550630614 0.0140460525 0.0753784552
v -0.0550630614 0.0140433107 0.0741448775
v -0.0557932183 0.0113183055 0.0741509572
v -0.0557932183 0.0113210473 0.0753845349
v -0.0557202622 0.0113216434 0.0756568685
v -0.0555208251 0.0113220606 0.0758562461
v -0.0552484915 0.0113222394 0.0759292617
v -0.0548271462 0.00873325206 0.0758620277
v -0.0545912907 0.00886956789 0.0759346858
v -0.0549998209 0.00863311626 0.0756628886
v -0.0550630614 0.00859598257 0.075390555
v -0.0550630614 0.00859324075 0.0741570368
v -0.0530682132 0.0065983925 0.0741614476
v -0.0530682132 0.00660113432 0.0753950253
v -0.0530317351 0.00666497089 0.0756672397
v -0.0529320166 0.00683806278 0.0758662596
v -0.0527958199 0.00707415678 0.0759386793
v -0.0503431484 0.00614438392 0.0758678094
v -0.0503431484 0.00641695596 0.0759401694
v -0.0478905365 0.00707415678 0.0759386793
v -0.0477543399 0.00683806278 0.0758662596
v -0.0458591506 0.00873325206 0.0758620277
v -0.0503431484 0.00594458915 0.0756688491
v -0.0476546213 0.00666497089 0.0756672397
v -0.0456864759 0.00863311626 0.0756628886
v -0.0449660942 0.0113216434 0.0756568685
v -0.045623295 0.0140460525 0.0753784552
v -0.0448931381 0.0113210473 0.0753845349
v -0.045623295 0.00859598257 0.075390555
v -0.0476181433 0.00660113432 0.0753950253
v -0.0476181433 0.0160381589 0.0741404667
v -0.045623295 0.0140433107 0.0741448775
v -0.0448931381 0.0113183055 0.0741509572
v -0.045623295 0.00859324075 0.0741570368
v -0.0503431484 0.00587097742 0.0753966346
v -0.0503431484 0.0058682356 0.0741630569
v -0.0476181433 0.0065983925 0.0741614476
v -0.0503431484 0.00594065525 0.0738905445
v -0.0476546213 0.00666103698 0.0738889351
v -0.0530317351 0.00666103698 0.0738889351
v -0.0456864759 0.00862912275 0.073884584
v -0.0449660942 0.0113177095 0.0738785639
v -0.0549998209 0.00862918235 0.073884584
v -0.0456864759 0.0140062366 0.0738726035
v -0.0476546213 0.0159743223 0.0738682523
v -0.0557202622 0.0113177095 0.0738785639
v -0.0503431484 0.0166947637 0.073866643
v -0.0530317351 0.0159743223 0.0738682523
v -0.0549998209 0.0140062366 0.0738726035
v -0.0548271462 0.0139060412 0.0736734644
v -0.0529320166 0.0158012304 0.0736692324
v -0.0503431484 0.0164949093 0.0736676827
v -0.0555208251 0.0113172326 0.0736791864
v -0.0548271462 0.00872842409 0.0736849681
v -0.0477543399 0.0158012304 0.0736692324
v -0.0529320166 0.0068332348 0.0736892
v -0.0503431484 0.00613955595 0.0736906901
v -0.0458591506 0.0139060412 0.0736734644
v -0.0477543399 0.0068332348 0.0736892
v -0.0458591506 0.00872842409 0.0736849681
v -0.0451654717 0.0113172326 0.0736791864
v -0.045437865 0.0113170538 0.0736062303
v -0.0460950658 0.00886444189 0.0736116543
v -0.0478905365 0.00706897117 0.0736156479
v -0.0503431484 0.0113170538 0.0736062303
v -0.0503431484 0.00641177036 0.073617138
v -0.0460950658 0.0137697253 0.0736007467
v -0.0478905365 0.0155651961 0.0735967532
v -0.0527958199 0.00706897117 0.0736156479
v -0.0545912907 0.00886444189 0.0736116543
v -0.0503431484 0.0162223969 0.0735953227
v -0.0527958199 0.0155651961 0.0735967532
v -0.0552484915 0.0113170538 0.0736062303
v -0.0545912907 0.0137697253 0.0736007467
v -0.0620447323 0.0353792682 0.0740974322
v -0.0627749488 0.0326542035 0.0741035119
v -0.0627749488 0.0326569453 0.0753370896
v -0.0627019331 0.0326575413 0.0756094232
v -0.0625025555 0.0326580182 0.0758088008
v -0.0622301623 0.032658197 0.0758818164
v -0.0618088767 0.0300692115 0.0758145824
v -0.0615730211 0.0302055273 0.0758872405
v -0.0619815513 0.0299690161 0.0756154433
v -0.0620447323 0.029931942 0.0753431097
v -0.0620447323 0.0299292002 0.0741095915
v -0.060049884 0.0279343519 0.0741140023
v -0.060049884 0.0279370937 0.07534758
v -0.060013406 0.0280009303 0.0756197944
v -0.0599136874 0.0281740222 0.0758188143
v -0.0597775504 0.0284100566 0.075891234
v -0.0573248789 0.0274803434 0.0758203641
v -0.0573248789 0.0277528558 0.0758927241
v -0.0548722073 0.0284100566 0.075891234
v -0.0547360107 0.0281740222 0.0758188143
v -0.052840881 0.0300691519 0.0758145824
v -0.0573248789 0.027280489 0.0756214038
v -0.0546363518 0.0280009303 0.0756197944
v -0.0526682064 0.0299690161 0.0756154433
v -0.0519478247 0.0326575413 0.0756094232
v -0.0526049659 0.03538201 0.0753310099
v -0.051874809 0.0326569453 0.0753370896
v -0.0526049659 0.029931942 0.0753431097
v -0.0545998737 0.0279370937 0.07534758
v -0.0545998737 0.0373741165 0.0740930215
v -0.0526049659 0.0353792682 0.0740974322
v -0.051874809 0.0326542035 0.0741035119
v -0.0526049659 0.0299292002 0.0741095915
v -0.0573248789 0.0272069369 0.0753491893
v -0.0573248789 0.027204195 0.0741156116
v -0.0545998737 0.0279343519 0.0741140023
v -0.0573248789 0.0272765551 0.0738430992
v -0.0546363518 0.0279969368 0.0738414899
v -0.060013406 0.0279969368 0.0738414899
v -0.0526682064 0.0299650822 0.0738371387
v -0.0519478247 0.0326536074 0.0738311782
v -0.0619815513 0.0299650822 0.0738371387
v -0.0526682064 0.0353421345 0.0738251582
v -0.0546363518 0.0373102799 0.073820807
v -0.0627019331 0.0326536074 0.0738311782
v -0.0573248789 0.0380306616 0.0738191977
v -0.060013406 0.0373102799 0.073820807
v -0.0619815513 0.0353421345 0.0738251582
v -0.0618088767 0.0352419987 0.0736260191
v -0.0599136874 0.037137188 0.0736217871
v -0.0573248789 0.0378308669 0.0736202374
v -0.0625025555 0.0326531902 0.0736317411
v -0.0618088767 0.0300643239 0.0736375228
v -0.0547360107 0.037137188 0.0736217871
v -0.0599136874 0.0281691942 0.0736417547
v -0.0573248789 0.0274755154 0.0736432448
v -0.052840881 0.0352419987 0.0736260191
v -0.0547360107 0.0281691942 0.0736417547
v -0.052840881 0.0300643239 0.0736375228
v -0.0521472022 0.0326531902 0.0736317411
v -0.0524195358 0.0326530114 0.073558785
v -0.0530767366 0.0302003417 0.073564209
v -0.0548722073 0.028404871 0.0735682026
v -0.0573248789 0.0326530114 0.073558785
v -0.0573248789 0.0277477298 0.0735696927
v -0.0530767366 0.0351056829 0.0735533014
v -0.0548722073 0.036901094 0.0735493079
v -0.0597775504 0.0284049306 0.0735682026
v -0.0615730211 0.0302003417 0.073564209
v -0.0573248789 0.0375582948 0.0735478774
v -0.0597775504 0.036901094 0.0735493079
v -0.0622301623 0.0326530114 0.073558785
v -0.0615730211 0.0351056829 0.0735533014
v -0.0422891304 0.0403499976 0.0740864053
v -0.0427915379 0.0384750143 0.0740905777
v -0.0427915379 0.0384777561 0.0753241554
v -0.0427185223 0.0384783521 0.075596489
v -0.0425191447 0.0384787694 0.0757958665
v -0.0422467515 0.0384789482 0.0758688822
v -0.0420532152 0.0367399827 0.0757997409
v -0.0418173596 0.0368762985 0.0758724585
v -0.0422258899 0.0366398469 0.0756006017
v -0.0422891304 0.0366027132 0.0753283277
v -0.0422891304 0.0365999714 0.07409475
v -0.040916495 0.0352273956 0.0740977898
v -0.040916495 0.0352301374 0.0753313676
v -0.040880017 0.0352939144 0.075603582
v -0.0407802984 0.0354670659 0.0758026019
v -0.0406441018 0.0357031003 0.0758750215
v -0.0390414521 0.0350011364 0.0758036152
v -0.0390414521 0.0352736488 0.0758759752
v -0.0374388024 0.0357031003 0.0758750215
v -0.0373026058 0.0354670659 0.0758026019
v -0.036029689 0.0367399827 0.0757997409
v -0.0390414521 0.034801282 0.0756046548
v -0.0372029468 0.0352939144 0.075603582
v -0.0358570144 0.0366398469 0.0756006017
v -0.035364382 0.0384783521 0.075596489
v -0.0357938334 0.0403527394 0.0753199831
v -0.0352914259 0.0384777561 0.0753241554
v -0.0357938334 0.0366027132 0.0753283277
v -0.0371664688 0.0352301374 0.0753313676
v -0.0371664688 0.0417226329 0.0740833655
v -0.0357938334 0.0403499976 0.0740864053
v -0.0352914259 0.0384750143 0.0740905777
v -0.0357938334 0.0365999714 0.07409475
v -0.0390414521 0.0347277299 0.0753324404
v -0.0390414521 0.034724988 0.0740989223
v -0.0371664688 0.0352273956 0.0740977898
v -0.0390414521 0.0347973481 0.0738264099
v -0.0372029468 0.0352899805 0.0738252774
v -0.040880017 0.0352899805 0.0738252774
v -0.0358570144 0.0366358534 0.0738222972
v -0.035364382 0.0384744182 0.0738181844
v -0.0422258899 0.0366358534 0.0738222972
v -0.0358570144 0.0403129235 0.0738141313
v -0.0372029468 0.0416587964 0.0738111511
v -0.0427185223 0.0384744182 0.0738181844
v -0.0390414521 0.0421514288 0.0738100186
v -0.040880017 0.0416587964 0.0738111511
v -0.0422258899 0.0403129235 0.0738141313
v -0.0420532152 0.0402127877 0.0736149326
v -0.0407802984 0.0414857045 0.0736121312
v -0.0390414521 0.041951634 0.0736110583
v -0.0425191447 0.0384739414 0.0736188069
v -0.0420532152 0.0367350951 0.0736226812
v -0.0373026058 0.0414857045 0.0736121312
v -0.0407802984 0.0354621783 0.0736255422
v -0.0390414521 0.0349963084 0.0736265555
v -0.036029689 0.0402127877 0.0736149326
v -0.0373026058 0.0354621783 0.0736255422
v -0.036029689 0.0367350951 0.0736226812
v -0.0355637595 0.0384739414 0.0736188069
v -0.0358361527 0.0384738222 0.0735458508
v -0.0362656042 0.0368711129 0.0735494271
v -0.0374388024 0.0356979147 0.0735519901
v -0.0390414521 0.0384738222 0.0735458508
v -0.0390414521 0.0352684632 0.0735529438
v -0.0362656042 0.0400764719 0.0735422745
v -0.0374388024 0.0412496701 0.0735396519
v -0.0406441018 0.0356979147 0.0735519901
v -0.0418173596 0.0368711725 0.0735494271
v -0.0390414521 0.0416791216 0.0735386983
v -0.0406441018 0.0412496701 0.0735396519
v -0.0422467515 0.0384738222 0.0735458508
v -0.0418173596 0.0400764719 0.0735422745
v -0.161075637 0.158786282 0.0540723577
v -0.161075696 0.142362282 0.0541088954
v -0.172052428 0.14235799 0.0521733537
v -0.172052428 0.158781931 0.0521368757
v -0.164426014 0.107395448 0.0542019978
v -0.164426014 0.0963581577 0.0542265549
v -0.171413943 0.0963554159 0.0529944077
v -0.171413884 0.107392706 0.0529698506
v -0.164426014 0.0885826722 0.0542438403
v -0.164426014 0.0781270638 0.0542670861
v -0.171413943 0.078124322 0.0530349389
v -0.171413943 0.0885799304 0.0530116931
v -0.164426014 0.0703395978 0.054284431
v -0.164426014 0.0592680946 0.0543090478
v -0.171413943 0.0592653528 0.0530769005
v -0.171413943 0.0703368559 0.0530522838
v -0.164426014 0.174614832 0.054052569
v -0.164426014 0.163577601 0.0540771261
v -0.171413884 0.163574859 0.0528449789
v -0.171413884 0.17461209 0.0528204218
v -0.164426014 0.137559041 0.0541349426
v -0.164426014 0.126487538 0.0541595593
v -0.171413884 0.126484796 0.0529274121
v -0.171413884 0.1375563 0.0529027954
v -0.172135755 0.0977584496 0.0571039096
v -0.172135755 0.106007971 0.0570855513
v -0.165320739 0.106010653 0.0582872406
v -0.165320739 0.0977611318 0.0583055988
v -0.172135755 0.0795273557 0.0571444407
v -0.172135755 0.0871952549 0.0571273938
v -0.165320739 0.0871978775 0.058329083
v -0.165320739 0.0795300379 0.05834613
v -0.172135755 0.0606683865 0.0571864024
v -0.172135755 0.0689521208 0.0571679845
v -0.165320739 0.068954803 0.0583696738
v -0.165320739 0.0606710687 0.0583880916
v -0.172135755 0.164977893 0.0569544807
v -0.172135755 0.173227414 0.0569361225
v -0.165320739 0.173230037 0.0581377521
v -0.165320739 0.164980575 0.0581561103
v -0.172135755 0.12788783 0.0570369735
v -0.172135755 0.136171564 0.0570184961
v -0.165320739 0.136174247 0.0582201853
v -0.165320739 0.127890512 0.0582386032
v -0.173186347 0.144561872 0.0586287156
v -0.173186347 0.156606779 0.0586018935
v -0.162481114 0.15661101 0.060489513
v -0.162481114 0.144566104 0.0605162755
v 0.133868471 -0.0244279709 0.0518772379
v 0.128765061 -0.0244279709 0.0518772379
v 0.128765061 -0.0288336482 0.051887013
v 0.133868471 -0.0288336482 0.051887013
v 0.142298177 -0.0244279709 0.0518772379
v 0.137463704 -0.0244279709 0.0518772379
v 0.137463704 -0.0288336482 0.051887013
v 0.142298177 -0.0288336482 0.051887013
v 0.151018187 -0.0244279709 0.0518772379
v 0.145898953 -0.0244279709 0.0518772379
v 0.145898953 -0.0288336482 0.051887013
v 0.151018187 -0.0288336482 0.051887013
v -0.164426014 0.0592680946 0.0543090478
v -0.165331349 0.0592795387 0.0594433323
v -0.172319219 0.0592767969 0.058211185
v -0.171413943 0.0592653528 0.0530769005
v 0.129409537 -0.0288373437 0.049294509
v 0.133223966 -0.0288373437 0.049294509
v 0.133223966 -0.0245406833 0.0492849723
v 0.129409537 -0.0245406833 0.0492849723
v 0.138108209 -0.0288373437 0.049294509
v 0.141653672 -0.0288373437 0.049294509
v 0.141653672 -0.0245406833 0.0492849723
v 0.138108209 -0.0245406833 0.0492849723
v 0.146543458 -0.0288373437 0.049294509
v 0.150373682 -0.0288373437 0.049294509
v 0.150373682 -0.0245406833 0.0492849723
v 0.146543458 -0.0245406833 0.0492849723
v -0.172135755 0.0689521208 0.0571679845
v -0.171590969 0.0689452663 0.054078199
v -0.164775953 0.0689479485 0.0552798882
v -0.165320739 0.068954803 0.0583696738
v 0.128765061 -0.0288336482 0.051887013
v 0.128765061 -0.0288408007 0.048650004
v 0.128979877 -0.0289681163 0.0488651171
v 0.128979877 -0.0289618578 0.0516724959
v -0.164426014 0.0781270638 0.0542670861
v -0.165331349 0.0781384483 0.0594014302
v -0.172319219 0.0781357661 0.058169283
v -0.171413943 0.078124322 0.0530349389
v 0.133438781 -0.0289676394 0.0490799323
v 0.133438781 -0.0289623346 0.0514576212
v 0.133223966 -0.0288330521 0.051242508
v 0.133223966 -0.0288373437 0.049294509
v 0.137463704 -0.0288336482 0.051887013
v 0.137463704 -0.0288408007 0.048650004
v 0.137678519 -0.0289681163 0.0488651171
v 0.137678519 -0.0289618578 0.0516724959
v 0.141868517 -0.0289676394 0.0490799323
v 0.141868517 -0.0289623346 0.0514576212
v 0.141653672 -0.0288330521 0.051242508
v 0.141653672 -0.0288373437 0.049294509
v 0.145898953 -0.0288336482 0.051887013
v 0.145898953 -0.0288408007 0.048650004
v 0.146113768 -0.0289681163 0.0488651171
v 0.146113768 -0.0289618578 0.0516724959
v -0.172135755 0.0871952549 0.0571273938
v -0.171590969 0.0871883407 0.0540376082
v -0.164775953 0.0871910229 0.0552392974
v -0.165320739 0.0871978775 0.058329083
v 0.150588527 -0.0289676394 0.0490799323
v 0.150588527 -0.0289623346 0.0514576212
v 0.150373682 -0.0288330521 0.051242508
v 0.150373682 -0.0288373437 0.049294509
v -0.164426014 0.0963581577 0.0542265549
v -0.165331349 0.0963696018 0.0593608394
v -0.172319219 0.09636686 0.0581286922
v -0.171413943 0.0963554159 0.0529944077
v -0.172135755 0.106007971 0.0570855513
v -0.171590969 0.106001057 0.0539957657
v -0.164775893 0.106003739 0.055197455
v -0.165320739 0.106010653 0.0582872406
v -0.164426014 0.126487538 0.0541595593
v -0.165331349 0.126498923 0.0592939034
v -0.172319219 0.12649624 0.0580617562
v -0.171413884 0.126484796 0.0529274121
v -0.172135755 0.136171564 0.0570184961
v -0.171590969 0.13616471 0.0539287105
v -0.164775893 0.136167392 0.0551303998
v -0.165320739 0.136174247 0.0582201853
v -0.161075696 0.142362282 0.0541088954
v -0.162497744 0.142380223 0.0621739402
v -0.173474535 0.142375931 0.0602384582
v -0.172052428 0.14235799 0.0521733537
v -0.173186347 0.156606779 0.0586018935
v -0.172330543 0.15659599 0.0537484065
v -0.161625311 0.156600162 0.055636026
v -0.162481114 0.15661101 0.060489513
v -0.164426014 0.163577601 0.0540771261
v -0.165331289 0.163589045 0.0592114106
v -0.172319219 0.163586304 0.0579792634
v -0.171413884 0.163574859 0.0528449789
v -0.172135755 0.173227414 0.0569361225
v -0.171590909 0.1732205 0.0538463369
v -0.164775893 0.173223183 0.0550479665
v -0.165320739 0.173230037 0.0581377521
v 0.128765061 -0.0244279709 0.0518772379
v 0.128765061 -0.024435183 0.0486402288
v 0.128765061 -0.0288408007 0.048650004
v 0.128765061 -0.0288336482 0.051887013
v 0.133223966 -0.0288373437 0.049294509
v 0.133223966 -0.0288330521 0.051242508
v 0.133223966 -0.0245363321 0.0512329713
v 0.133223966 -0.0245406833 0.0492849723
v 0.137463704 -0.0244279709 0.0518772379
v 0.137463704 -0.024435183 0.0486402288
v 0.137463704 -0.0288408007 0.048650004
v 0.137463704 -0.0288336482 0.051887013
v 0.141653672 -0.0288373437 0.049294509
v 0.141653672 -0.0288330521 0.051242508
v 0.141653672 -0.0245363321 0.0512329713
v 0.141653672 -0.0245406833 0.0492849723
v 0.145898953 -0.0244279709 0.0518772379
v 0.145898953 -0.024435183 0.0486402288
v 0.145898953 -0.0288408007 0.048650004
v 0.145898953 -0.0288336482 0.051887013
v 0.150373682 -0.0288373437 0.049294509
v 0.150373682 -0.0288330521 0.051242508
v 0.150373682 -0.0245363321 0.0512329713
v 0.150373682 -0.0245406833 0.0492849723
f 1 2 3
f 1 2 3
f 3 4 1
f 3 4 1
f 5 6 7
f 5 6 7
f 7 8 5
f 7 8 5
f 9 10 11
f 9 10 11
f 11 12 9
f 11 12 9
f 13 14 15
f 13 14 15
f 15 16 13
f 15 16 13
f 17 18 19
f 17 18 19
f 19 20 17
f 19 20 17
f 21 22 23
f 21 22 23
f 23 24 21
f 23 24 21
f 25 26 27
f 25 26 27
f 27 28 25
f 27 28 25
f 29 30 31
f 29 30 31
f 31 32 29
f 31 32 29
f 33 34 35
f 33 34 35
f 35 36 33
f 35 36 33
f 37 38 39
f 37 38 39
f 39 40 37
f 39 40 37
f 41 42 43
f 41 42 43
f 43 44 41
f 43 44 41
f 45 46 47
f 45 46 47
f 47 48 45
f 47 48 45
f 49 50 51
f 49 50 51
f 51 52 49
f 51 52 49
f 53 54 55
f 53 54 55
f 55 56 53
f 55 56 53
f 57 58 59
f 57 58 59
f 59 60 57
f 59 60 57
f 61 62 63
f 61 62 63
f 63 64 61
f 63 64 61
f 65 66 67
f 65 66 67
f 67 68 65
f 67 68 65
f 69 70 71
f 69 70 71
f 71 72 69
f 71 72 69
f 73 74 75
f 73 74 75
f 75 76 73
f 75 76 73
f 77 78 79
f 77 78 79
f 79 80 77
f 79 80 77
f 81 82 83
f 81 82 83
f 83 84 81
f 83 84 81
f 85 86 87
f 85 86 87
f 87 88 85
f 87 88 85
f 89 90 91
f 89 90 91
f 91 92 89
f 91 92 89
f 93 94 95
f 93 94 95
f 95 96 93
f 95 96 93
f 97 98 99
f 97 98 99
f 99 100 97
f 99 100 97
f 101 102 103
f 101 102 103
f 104 103 102
f 104 103 102
f 103 105 101
f 103 105 101
f 102 106 104
f 102 106 104
f 107 104 106
f 107 104 106
f 108 101 105
f 108 101 105
f 105 107 108
f 105 107 108
f 106 108 107
f 106 108 107
f 109 110 111
f 109 110 111
f 112 111 110
f 112 111 110
f 111 113 109
f 111 113 109
f 110 114 112
f 110 114 112
f 115 112 114
f 115 112 114
f 116 109 113
f 116 109 113
f 113 115 116
f 113 115 116
f 114 116 115
f 114 116 115
f 117 118 119
f 117 118 119
f 120 119 118
f 120 119 118
f 119 121 117
f 119 121 117
f 118 122 120
f 118 122 120
f 123 120 122
f 123 120 122
f 124 117 121
f 124 117 121
f 121 123 124
f 121 123 124
f 122 124 123
f 122 124 123
f 125 126 127
f 125 126 127
f 128 127 126
f 128 127 126
f 127 129 125
f 127 129 125
f 126 130 128
f 126 130 128
f 131 128 130
f 131 128 130
f 132 125 129
f 132 125 129
f 129 131 132
f 129 131 132
f 130 132 131
f 130 132 131
f 133 134 135
f 133 134 135
f 136 135 134
f 136 135 134
f 135 137 133
f 135 137 133
f 134 138 136
f 134 138 136
f 139 136 138
f 139 136 138
f 140 133 137
f 140 133 137
f 137 139 140
f 137 139 140
f 138 140 139
f 138 140 139
f 141 142 143
f 141 142 143
f 144 143 142
f 144 143 142
f 143 145 141
f 143 145 141
f 142 146 144
f 142 146 144
f 147 144 146
f 147 144 146
f 148 141 145
f 148 141 145
f 145 147 148
f 145 147 148
f 146 148 147
f 146 148 147
f 149 150 151
f 149 150 151
f 151 152 149
f 151 152 149
f 153 154 155
f 153 154 155
f 155 156 153
f 155 156 153
f 157 158 159
f 157 158 159
f 159 160 157
f 159 160 157
f 161 162 163
f 161 162 163
f 163 164 161
f 163 164 161
f 165 166 167
f 165 166 167
f 167 168 165
f 167 168 165
f 169 170 171
f 169 170 171
f 171 172 169
f 171 172 169
f 173 174 175
f 173 174 175
f 175 176 173
f 175 176 173
f 177 178 179
f 177 178 179
f 179 180 177
f 179 180 177
f 181 182 183
f 181 182 183
f 183 184 181
f 183 184 181
f 185 186 187
f 185 186 187
f 187 188 185
f 187 188 185
f 189 190 191
f 189 190 191
f 191 192 189
f 191 192 189
f 193 194 195
f 193 194 195
f 195 196 193
f 195 196 193
f 197 198 199
f 197 198 199
f 199 200 197
f 199 200 197
f 201 202 203
f 201 202 203
f 203 204 201
f 203 204 201
f 205 206 207
f 205 206 207
f 207 208 205
f 207 208 205
f 209 210 211
f 209 210 211
f 211 212 209
f 211 212 209
f 213 214 215
f 213 214 215
f 215 216 213
f 215 216 213
f 217 218 219
f 217 218 219
f 219 220 217
f 219 220 217
f 221 222 223
f 221 222 223
f 223 224 221
f 223 224 221
f 225 226 227
f 225 226 227
f 227 228 225
f 227 228 225
f 229 230 231
f 229 230 231
f 231 232 229
f 231 232 229
f 233 234 235
f 233 234 235
f 235 236 233
f 235 236 233
f 237 238 239
f 237 238 239
f 239 240 237
f 239 240 237
f 241 242 243
f 241 242 243
f 243 244 241
f 243 244 241
f 245 246 247
f 245 246 247
f 247 248 245
f 247 248 245
f 249 250 251
f 249 250 251
f 251 252 249
f 251 252 249
f 253 254 255
f 253 254 255
f 255 256 253
f 255 256 253
f 257 258 259
f 257 258 259
f 259 260 257
f 259 260 257
f 261 262 263
f 261 262 263
f 263 264 261
f 263 264 261
f 265 266 267
f 265 266 267
f 267 268 265
f 267 268 265
f 269 270 271
f 269 270 271
f 271 272 269
f 271 272 269
f 273 274 275
f 273 274 275
f 275 276 273
f 275 276 273
f 277 278 279
f 277 278 279
f 279 280 277
f 279 280 277
f 281 282 283
f 281 282 283
f 283 284 281
f 283 284 281
f 285 286 287
f 285 286 287
f 287 288 285
f 287 288 285
f 289 290 291
f 289 290 291
f 291 292 289
f 291 292 289
f 293 294 295
f 293 294 295
f 296 295 294
f 296 295 294
f 295 297 293
f 295 297 293
f 294 298 296
f 294 298 296
f 299 296 298
f 299 296 298
f 300 293 297
f 300 293 297
f 297 299 300
f 297 299 300
f 298 300 299
f 298 300 299
f 301 302 303
f 301 302 303
f 304 303 302
f 304 303 302
f 303 305 301
f 303 305 301
f 302 306 304
f 302 306 304
f 307 304 306
f 307 304 306
f 308 301 305
f 308 301 305
f 305 307 308
f 305 307 308
f 306 308 307
f 306 308 307
f 309 310 311
f 309 310 311
f 312 311 310
f 312 311 310
f 311 313 309
f 311 313 309
f 310 314 312
f 310 314 312
f 315 312 314
f 315 312 314
f 316 309 313
f 316 309 313
f 313 315 316
f 313 315 316
f 314 316 315
f 314 316 315
f 317 318 319
f 317 318 319
f 319 320 317
f 319 320 317
f 321 322 323
f 321 322 323
f 323 324 321
f 323 324 321
f 325 326 327
f 325 326 327
f 327 328 325
f 327 328 325
f 329 330 331
f 329 330 331
f 331 332 329
f 331 332 329
f 333 334 335
f 333 334 335
f 335 336 333
f 335 336 333
f 337 338 339
f 337 338 339
f 339 340 337
f 339 340 337
f 341 342 343
f 341 342 343
f 343 344 341
f 343 344 341
f 345 346 347
f 345 346 347
f 347 348 345
f 347 348 345
f 349 350 351
f 349 350 351
f 351 352 349
f 351 352 349
f 353 354 355
f 353 354 355
f 355 356 353
f 355 356 353
f 357 358 359
f 357 358 359
f 359 360 357
f 359 360 357
f 361 362 363
f 361 362 363
f 363 364 361
f 363 364 361
f 365 366 367
f 365 366 367
f 367 368 365
f 367 368 365
f 369 370 371
f 369 370 371
f 371 372 369
f 371 372 369
f 373 374 375
f 373 374 375
f 375 376 373
f 375 376 373
f 377 378 379
f 377 378 379
f 379 380 377
f 379 380 377
f 381 382 383
f 381 382 383
f 383 384 381
f 383 384 381
f 385 386 387
f 385 386 387
f 387 388 385
f 387 388 385
f 389 390 391
f 389 390 391
f 391 392 389
f 391 392 389
f 393 394 395
f 393 394 395
f 395 396 393
f 395 396 393
f 397 398 399
f 397 398 399
f 399 400 397
f 399 400 397
f 401 402 403
f 401 402 403
f 403 404 401
f 403 404 401
f 405 406 407
f 405 406 407
f 407 408 405
f 407 408 405
f 409 410 411
f 409 410 411
f 411 412 409
f 411 412 409
f 413 414 415
f 413 414 415
f 415 416 413
f 415 416 413
f 417 418 419
f 417 418 419
f 419 420 417
f 419 420 417
f 421 422 423
f 421 422 423
f 423 424 421
f 423 424 421
f 425 426 427
f 425 426 427
f 427 428 425
f 427 428 425
f 429 430 431
f 429 430 431
f 431 432 429
f 431 432 429
f 433 434 435
f 433 434 435
f 435 436 433
f 435 436 433
f 437 438 439
f 437 438 439
f 439 440 437
f 439 440 437
f 441 442 443
f 441 442 443
f 443 444 441
f 443 444 441
f 445 446 447
f 445 446 447
f 447 448 445
f 447 448 445
f 449 450 451
f 449 450 451
f 451 452 449
f 451 452 449
f 453 454 455
f 453 454 455
f 455 456 453
f 455 456 453
f 457 458 459
f 457 458 459
f 459 460 457
f 459 460 457
f 461 462 463
f 461 462 463
f 463 464 461
f 463 464 461
f 465 466 467
f 465 466 467
f 467 468 465
f 467 468 465
f 469 470 471
f 469 470 471
f 471 472 469
f 471 472 469
f 473 474 475
f 473 474 475
f 475 476 473
f 475 476 473
f 477 478 479
f 477 478 479
f 479 480 477
f 479 480 477
f 481 482 483
f 481 482 483
f 482 484 483
f 482 484 483
f 481 483 485
f 481 483 485
f 483 484 486
f 483 486 485
f 483 484 486
f 483 486 485
f 485 486 487
f 485 486 487
f 485 487 488
f 481 485 488
f 485 487 488
f 481 485 488
f 486 489 487
f 486 489 487
f 484 490 486
f 486 490 489
f 484 490 486
f 486 490 489
f 482 491 484
f 482 491 484
f 481 492 482
f 492 491 482
f 481 492 482
f 492 491 482
f 484 493 490
f 484 493 490
f 491 493 484
f 491 493 484
f 490 494 489
f 490 494 489
f 493 495 490
f 490 495 494
f 493 495 490
f 490 495 494
f 495 496 494
f 495 496 494
f 494 496 497
f 494 496 497
f 489 494 498
f 494 497 498
f 489 494 498
f 494 497 498
f 489 498 499
f 489 498 499
f 487 489 499
f 487 489 499
f 487 499 500
f 487 499 500
f 488 487 500
f 488 487 500
f 488 500 501
f 488 500 501
f 481 488 501
f 481 488 501
f 501 500 502
f 501 500 502
f 481 501 503
f 501 502 503
f 481 501 503
f 501 502 503
f 500 499 504
f 500 499 504
f 500 504 502
f 500 504 502
f 499 505 504
f 499 505 504
f 499 498 505
f 506 507 508
f 506 507 508
f 507 509 508
f 507 509 508
f 506 508 510
f 506 508 510
f 508 509 511
f 508 511 510
f 508 509 511
f 508 511 510
f 510 511 512
f 510 511 512
f 510 512 513
f 506 510 513
f 510 512 513
f 506 510 513
f 511 514 512
f 511 514 512
f 509 515 511
f 511 515 514
f 509 515 511
f 511 515 514
f 507 516 509
f 507 516 509
f 506 517 507
f 517 516 507
f 506 517 507
f 517 516 507
f 509 518 515
f 509 518 515
f 516 518 509
f 516 518 509
f 515 519 514
f 515 519 514
f 518 520 515
f 515 520 519
f 518 520 515
f 515 520 519
f 520 521 519
f 520 521 519
f 519 521 522
f 519 521 522
f 514 519 523
f 519 522 523
f 514 519 523
f 519 522 523
f 514 523 524
f 514 523 524
f 512 514 524
f 512 514 524
f 512 524 525
f 512 524 525
f 513 512 525
f 513 512 525
f 513 525 526
f 513 525 526
f 506 513 526
f 506 513 526
f 526 525 527
f 526 525 527
f 506 526 528
f 526 527 528
f 506 526 528
f 526 527 528
f 525 524 529
f 525 524 529
f 525 529 527
f 525 529 527
f 524 530 529
f 524 530 529
f 524 523 530
f 531 532 533
f 531 532 533
f 532 534 533
f 532 534 533
f 531 533 535
f 531 533 535
f 533 534 536
f 533 536 535
f 533 534 536
f 533 536 535
f 535 536 537
f 535 536 537
f 535 537 538
f 531 535 538
f 535 537 538
f 531 535 538
f 536 539 537
f 536 539 537
f 534 540 536
f 536 540 539
f 534 540 536
f 536 540 539
f 532 541 534
f 532 541 534
f 531 542 532
f 542 541 532
f 531 542 532
f 542 541 532
f 534 543 540
f 534 543 540
f 541 543 534
f 541 543 534
f 540 544 539
f 540 544 539
f 543 545 540
f 540 545 544
f 543 545 540
f 540 545 544
f 545 546 544
f 545 546 544
f 544 546 547
f 544 546 547
f 539 544 548
f 544 547 548
f 539 544 548
f 544 547 548
f 539 548 549
f 539 548 549
f 537 539 549
f 537 539 549
f 537 549 550
f 537 549 550
f 538 537 550
f 538 537 550
f 538 550 551
f 538 550 551
f 531 538 551
f 531 538 551
f 551 550 552
f 551 550 552
f 531 551 553
f 551 552 553
f 531 551 553
f 551 552 553
f 550 549 554
f 550 549 554
f 550 554 552
f 550 554 552
f 549 555 554
f 549 555 554
f 549 548 555
f 549 548 555
f 548 556 555
f 548 556 555
f 548 547 556
f 548 547 556
f 555 556 557
f 555 556 557
f 554 555 558
f 555 557 558
f 554 555 558
f 555 557 558
f 552 554 559
f 552 554 559
f 554 558 559
f 554 558 559
f 552 559 560
f 552 559 560
f 553 552 560
f 553 552 560
f 553 560 561
f 553 560 561
f 531 553 561
f 531 553 561
f 561 560 562
f 561 560 562
f 531 561 563
f 561 562 563
f 531 561 563
f 561 562 563
f 560 559 564
f 560 559 564
f 560 564 562
f 560 564 562
f 559 565 564
f 559 565 564
f 559 558 565
f 559 558 565
f 558 566 565
f 558 566 565
f 558 557 566
f 558 557 566
f 565 566 567
f 565 566 567
f 564 565 568
f 565 567 568
f 564 565 568
f 565 567 568
f 562 564 569
f 562 564 569
f 564 568 569
f 564 568 569
f 562 569 570
f 562 569 570
f 563 562 570
f 563 562 570
f 563 570 571
f 563 570 571
f 531 563 571
f 531 563 571
f 571 570 572
f 571 570 572
f 531 571 573
f 571 572 573
f 531 571 573
f 571 572 573
f 531 573 574
f 531 573 574
f 531 574 542
f 531 574 542
f 573 575 574
f 573 572 575
f 573 575 574
f 573 572 575
f 574 576 542
f 574 576 542
f 574 575 576
f 574 575 576
f 542 576 541
f 542 576 541
f 570 577 572
f 570 577 572
f 570 569 577
f 570 569 577
f 572 578 575
f 572 578 575
f 572 577 578
f 572 577 578
f 575 579 576
f 575 579 576
f 575 578 579
f 575 578 579
f 576 580 541
f 576 580 541
f 576 579 580
f 576 579 580
f 541 580 543
f 541 580 543
f 580 581 543
f 580 581 543
f 543 581 545
f 543 581 545
f 579 582 580
f 579 582 580
f 580 582 581
f 580 582 581
f 578 583 579
f 578 583 579
f 579 583 582
f 579 583 582
f 578 584 583
f 578 584 583
f 577 584 578
f 577 584 578
f 581 585 545
f 581 585 545
f 545 585 546
f 545 585 546
f 582 586 581
f 582 586 581
f 581 586 585
f 581 586 585
f 583 587 582
f 583 587 582
f 582 587 586
f 582 587 586
f 584 588 583
f 584 588 583
f 583 588 587
f 583 588 587
f 577 589 584
f 577 589 584
f 569 589 577
f 569 589 577
f 569 568 589
f 569 568 589
f 568 590 589
f 568 590 589
f 589 591 584
f 589 591 584
f 584 591 588
f 584 591 588
f 589 590 591
f 589 590 591
f 568 567 590
f 568 567 590
f 567 592 590
f 567 592 590
f 590 592 593
f 590 593 591
f 590 592 593
f 590 593 591
f 567 594 592
f 567 594 592
f 566 594 567
f 566 594 567
f 591 593 595
f 591 593 595
f 591 595 588
f 591 595 588
f 588 595 596
f 588 595 596
f 588 596 587
f 588 596 587
f 566 597 594
f 566 597 594
f 557 597 566
f 557 597 566
f 587 596 598
f 587 596 598
f 587 598 586
f 587 598 586
f 586 598 599
f 586 598 599
f 586 599 585
f 586 599 585
f 557 600 597
f 557 600 597
f 556 600 557
f 556 600 557
f 585 599 601
f 585 599 601
f 585 601 546
f 585 601 546
f 546 601 602
f 546 601 602
f 546 602 547
f 546 602 547
f 547 603 556
f 547 603 556
f 556 603 600
f 556 603 600
f 547 602 603
f 547 602 603
f 602 604 603
f 602 604 603
f 601 605 602
f 602 605 604
f 601 605 602
f 602 605 604
f 601 606 605
f 601 606 605
f 599 606 601
f 599 606 601
f 603 607 600
f 603 604 607
f 603 607 600
f 603 604 607
f 600 607 608
f 600 607 608
f 600 608 597
f 600 608 597
f 599 609 606
f 599 609 606
f 598 609 599
f 598 609 599
f 597 608 610
f 597 608 610
f 597 610 594
f 597 610 594
f 594 610 611
f 594 610 611
f 594 611 592
f 594 611 592
f 598 612 609
f 598 612 609
f 596 612 598
f 596 612 598
f 592 611 613
f 592 611 613
f 592 613 593
f 592 613 593
f 593 613 614
f 593 613 614
f 593 614 595
f 593 614 595
f 595 615 596
f 595 615 596
f 596 615 612
f 596 615 612
f 595 614 615
f 595 614 615
f 614 616 615
f 614 616 615
f 613 617 614
f 614 617 616
f 613 617 614
f 614 617 616
f 613 618 617
f 613 618 617
f 611 618 613
f 611 618 613
f 618 619 617
f 618 619 617
f 617 619 616
f 617 619 616
f 611 620 618
f 611 620 618
f 620 619 618
f 620 619 618
f 610 620 611
f 610 620 611
f 615 616 621
f 615 616 621
f 616 619 621
f 616 619 621
f 615 621 612
f 615 621 612
f 612 621 622
f 612 621 622
f 621 619 622
f 621 619 622
f 610 623 620
f 610 623 620
f 623 619 620
f 623 619 620
f 608 623 610
f 608 623 610
f 612 622 609
f 612 622 609
f 608 624 623
f 608 624 623
f 624 619 623
f 624 619 623
f 607 624 608
f 607 624 608
f 609 622 625
f 609 622 625
f 622 619 625
f 622 619 625
f 609 625 606
f 609 625 606
f 606 625 626
f 606 625 626
f 625 619 626
f 625 619 626
f 607 627 624
f 607 627 624
f 627 619 624
f 627 619 624
f 604 627 607
f 604 627 607
f 628 619 627
f 604 628 627
f 628 619 627
f 604 628 627
f 626 619 628
f 626 619 628
f 605 628 604
f 605 628 604
f 606 626 605
f 606 626 605
f 605 626 628
f 605 626 628
f 524 523 530
f 523 629 530
f 523 629 530
f 523 522 629
f 523 522 629
f 530 629 630
f 530 629 630
f 529 530 631
f 530 630 631
f 529 530 631
f 530 630 631
f 527 529 632
f 527 529 632
f 529 631 632
f 529 631 632
f 527 632 633
f 527 632 633
f 528 527 633
f 528 527 633
f 528 633 634
f 528 633 634
f 506 528 634
f 506 528 634
f 634 633 635
f 634 633 635
f 506 634 636
f 634 635 636
f 506 634 636
f 634 635 636
f 633 632 637
f 633 632 637
f 633 637 635
f 633 637 635
f 632 638 637
f 632 638 637
f 632 631 638
f 632 631 638
f 631 639 638
f 631 639 638
f 631 630 639
f 631 630 639
f 638 639 640
f 638 639 640
f 637 638 641
f 638 640 641
f 637 638 641
f 638 640 641
f 635 637 642
f 635 637 642
f 637 641 642
f 637 641 642
f 635 642 643
f 635 642 643
f 636 635 643
f 636 635 643
f 636 643 644
f 636 643 644
f 506 636 644
f 506 636 644
f 644 643 645
f 644 643 645
f 506 644 646
f 644 645 646
f 506 644 646
f 644 645 646
f 506 646 647
f 506 646 647
f 506 647 517
f 506 647 517
f 646 648 647
f 646 645 648
f 646 648 647
f 646 645 648
f 647 649 517
f 647 649 517
f 647 648 649
f 647 648 649
f 517 649 516
f 517 649 516
f 643 650 645
f 643 650 645
f 643 642 650
f 643 642 650
f 645 651 648
f 645 651 648
f 645 650 651
f 645 650 651
f 648 652 649
f 648 652 649
f 648 651 652
f 648 651 652
f 649 653 516
f 649 653 516
f 649 652 653
f 649 652 653
f 516 653 518
f 516 653 518
f 653 654 518
f 653 654 518
f 518 654 520
f 518 654 520
f 652 655 653
f 652 655 653
f 653 655 654
f 653 655 654
f 651 656 652
f 651 656 652
f 652 656 655
f 652 656 655
f 651 657 656
f 651 657 656
f 650 657 651
f 650 657 651
f 654 658 520
f 654 658 520
f 520 658 521
f 520 658 521
f 655 659 654
f 655 659 654
f 654 659 658
f 654 659 658
f 656 660 655
f 656 660 655
f 655 660 659
f 655 660 659
f 657 661 656
f 657 661 656
f 656 661 660
f 656 661 660
f 650 662 657
f 650 662 657
f 642 662 650
f 642 662 650
f 642 641 662
f 642 641 662
f 641 663 662
f 641 663 662
f 662 664 657
f 662 664 657
f 657 664 661
f 657 664 661
f 662 663 664
f 662 663 664
f 641 640 663
f 641 640 663
f 640 665 663
f 640 665 663
f 663 665 666
f 663 666 664
f 663 665 666
f 663 666 664
f 640 667 665
f 640 667 665
f 639 667 640
f 639 667 640
f 664 666 668
f 664 666 668
f 664 668 661
f 664 668 661
f 661 668 669
f 661 668 669
f 661 669 660
f 661 669 660
f 639 670 667
f 639 670 667
f 630 670 639
f 630 670 639
f 660 669 671
f 660 669 671
f 660 671 659
f 660 671 659
f 659 671 672
f 659 671 672
f 659 672 658
f 659 672 658
f 630 673 670
f 630 673 670
f 629 673 630
f 629 673 630
f 658 672 674
f 658 672 674
f 658 674 521
f 658 674 521
f 521 674 675
f 521 674 675
f 521 675 522
f 521 675 522
f 522 676 629
f 522 676 629
f 629 676 673
f 629 676 673
f 522 675 676
f 522 675 676
f 675 677 676
f 675 677 676
f 674 678 675
f 675 678 677
f 674 678 675
f 675 678 677
f 674 679 678
f 674 679 678
f 672 679 674
f 672 679 674
f 676 680 673
f 676 677 680
f 676 680 673
f 676 677 680
f 673 680 681
f 673 680 681
f 673 681 670
f 673 681 670
f 672 682 679
f 672 682 679
f 671 682 672
f 671 682 672
f 670 681 683
f 670 681 683
f 670 683 667
f 670 683 667
f 667 683 684
f 667 683 684
f 667 684 665
f 667 684 665
f 671 685 682
f 671 685 682
f 669 685 671
f 669 685 671
f 665 684 686
f 665 684 686
f 665 686 666
f 665 686 666
f 666 686 687
f 666 686 687
f 666 687 668
f 666 687 668
f 668 688 669
f 668 688 669
f 669 688 685
f 669 688 685
f 668 687 688
f 668 687 688
f 687 689 688
f 687 689 688
f 686 690 687
f 687 690 689
f 686 690 687
f 687 690 689
f 686 691 690
f 686 691 690
f 684 691 686
f 684 691 686
f 691 692 690
f 691 692 690
f 690 692 689
f 690 692 689
f 684 693 691
f 684 693 691
f 693 692 691
f 693 692 691
f 683 693 684
f 683 693 684
f 688 689 694
f 688 689 694
f 689 692 694
f 689 692 694
f 688 694 685
f 688 694 685
f 685 694 695
f 685 694 695
f 694 692 695
f 694 692 695
f 683 696 693
f 683 696 693
f 696 692 693
f 696 692 693
f 681 696 683
f 681 696 683
f 685 695 682
f 685 695 682
f 681 697 696
f 681 697 696
f 697 692 696
f 697 692 696
f 680 697 681
f 680 697 681
f 682 695 698
f 682 695 698
f 695 692 698
f 695 692 698
f 682 698 679
f 682 698 679
f 679 698 699
f 679 698 699
f 698 692 699
f 698 692 699
f 680 700 697
f 680 700 697
f 700 692 697
f 700 692 697
f 677 700 680
f 677 700 680
f 701 692 700
f 677 701 700
f 701 692 700
f 677 701 700
f 699 692 701
f 699 692 701
f 678 701 677
f 678 701 677
f 679 699 678
f 679 699 678
f 678 699 701
f 678 699 701
f 499 498 505
f 498 702 505
f 498 702 505
f 498 497 702
f 498 497 702
f 505 702 703
f 505 702 703
f 504 505 704
f 505 703 704
f 504 505 704
f 505 703 704
f 502 504 705
f 502 504 705
f 504 704 705
f 504 704 705
f 502 705 706
f 502 705 706
f 503 502 706
f 503 502 706
f 503 706 707
f 503 706 707
f 481 503 707
f 481 503 707
f 707 706 708
f 707 706 708
f 481 707 709
f 707 708 709
f 481 707 709
f 707 708 709
f 706 705 710
f 706 705 710
f 706 710 708
f 706 710 708
f 705 711 710
f 705 711 710
f 705 704 711
f 705 704 711
f 704 712 711
f 704 712 711
f 704 703 712
f 704 703 712
f 711 712 713
f 711 712 713
f 710 711 714
f 711 713 714
f 710 711 714
f 711 713 714
f 708 710 715
f 708 710 715
f 710 714 715
f 710 714 715
f 708 715 716
f 708 715 716
f 709 708 716
f 709 708 716
f 709 716 717
f 709 716 717
f 481 709 717
f 481 709 717
f 717 716 718
f 717 716 718
f 481 717 719
f 717 718 719
f 481 717 719
f 717 718 719
f 481 719 720
f 481 719 720
f 481 720 492
f 481 720 492
f 719 721 720
f 719 718 721
f 719 721 720
f 719 718 721
f 720 722 492
f 720 722 492
f 720 721 722
f 720 721 722
f 492 722 491
f 492 722 491
f 716 723 718
f 716 723 718
f 716 715 723
f 716 715 723
f 718 724 721
f 718 724 721
f 718 723 724
f 718 723 724
f 721 725 722
f 721 725 722
f 721 724 725
f 721 724 725
f 722 726 491
f 722 726 491
f 722 725 726
f 722 725 726
f 491 726 493
f 491 726 493
f 726 727 493
f 726 727 493
f 493 727 495
f 493 727 495
f 725 728 726
f 725 728 726
f 726 728 727
f 726 728 727
f 724 729 725
f 724 729 725
f 725 729 728
f 725 729 728
f 724 730 729
f 724 730 729
f 723 730 724
f 723 730 724
f 727 731 495
f 727 731 495
f 495 731 496
f 495 731 496
f 728 732 727
f 728 732 727
f 727 732 731
f 727 732 731
f 729 733 728
f 729 733 728
f 728 733 732
f 728 733 732
f 730 734 729
f 730 734 729
f 729 734 733
f 729 734 733
f 723 735 730
f 723 735 730
f 715 735 723
f 715 735 723
f 715 714 735
f 715 714 735
f 714 736 735
f 714 736 735
f 735 737 730
f 735 737 730
f 730 737 734
f 730 737 734
f 735 736 737
f 735 736 737
f 714 713 736
f 714 713 736
f 713 738 736
f 713 738 736
f 736 738 739
f 736 739 737
f 736 738 739
f 736 739 737
f 713 740 738
f 713 740 738
f 712 740 713
f 712 740 713
f 737 739 741
f 737 739 741
f 737 741 734
f 737 741 734
f 734 741 742
f 734 741 742
f 734 742 733
f 734 742 733
f 712 743 740
f 712 743 740
f 703 743 712
f 703 743 712
f 733 742 744
f 733 742 744
f 733 744 732
f 733 744 732
f 732 744 745
f 732 744 745
f 732 745 731
f 732 745 731
f 703 746 743
f 703 746 743
f 702 746 703
f 702 746 703
f 731 745 747
f 731 745 747
f 731 747 496
f 731 747 496
f 496 747 748
f 496 747 748
f 496 748 497
f 496 748 497
f 497 749 702
f 497 749 702
f 702 749 746
f 702 749 746
f 497 748 749
f 497 748 749
f 748 750 749
f 748 750 749
f 747 751 748
f 748 751 750
f 747 751 748
f 748 751 750
f 747 752 751
f 747 752 751
f 745 752 747
f 745 752 747
f 749 753 746
f 749 750 753
f 749 753 746
f 749 750 753
f 746 753 754
f 746 753 754
f 746 754 743
f 746 754 743
f 745 755 752
f 745 755 752
f 744 755 745
f 744 755 745
f 743 754 756
f 743 754 756
f 743 756 740
f 743 756 740
f 740 756 757
f 740 756 757
f 740 757 738
f 740 757 738
f 744 758 755
f 744 758 755
f 742 758 744
f 742 758 744
f 738 757 759
f 738 757 759
f 738 759 739
f 738 759 739
f 739 759 760
f 739 759 760
f 739 760 741
f 739 760 741
f 741 761 742
f 741 761 742
f 742 761 758
f 742 761 758
f 741 760 761
f 741 760 761
f 760 762 761
f 760 762 761
f 759 763 760
f 760 763 762
f 759 763 760
f 760 763 762
f 759 764 763
f 759 764 763
f 757 764 759
f 757 764 759
f 764 765 763
f 764 765 763
f 763 765 762
f 763 765 762
f 757 766 764
f 757 766 764
f 766 765 764
f 766 765 764
f 756 766 757
f 756 766 757
f 761 762 767
f 761 762 767
f 762 765 767
f 762 765 767
f 761 767 758
f 761 767 758
f 758 767 768
f 758 767 768
f 767 765 768
f 767 765 768
f 756 769 766
f 756 769 766
f 769 765 766
f 769 765 766
f 754 769 756
f 754 769 756
f 758 768 755
f 758 768 755
f 754 770 769
f 754 770 769
f 770 765 769
f 770 765 769
f 753 770 754
f 753 770 754
f 755 768 771
f 755 768 771
f 768 765 771
f 768 765 771
f 755 771 752
f 755 771 752
f 752 771 772
f 752 771 772
f 771 765 772
f 771 765 772
f 753 773 770
f 753 773 770
f 773 765 770
f 773 765 770
f 750 773 753
f 750 773 753
f 774 765 773
f 750 774 773
f 774 765 773
f 750 774 773
f 772 765 774
f 772 765 774
f 751 774 750
f 751 774 750
f 752 772 751
f 752 772 751
f 751 772 774
f 751 772 774
f 775 776 777
f 775 776 777
f 777 778 775
f 777 778 775
f 779 780 781
f 779 780 781
f 781 782 779
f 781 782 779
f 783 784 785
f 783 784 785
f 785 786 783
f 785 786 783
f 787 788 789
f 787 788 789
f 789 790 787
f 789 790 787
f 791 792 793
f 791 792 793
f 793 794 791
f 793 794 791
f 795 796 797
f 795 796 797
f 797 798 795
f 797 798 795
f 799 800 801
f 799 800 801
f 801 802 799
f 801 802 799
f 803 804 805
f 803 804 805
f 805 806 803
f 805 806 803
f 807 808 809
f 807 808 809
f 809 810 807
f 809 810 807
f 811 812 813
f 811 812 813
f 813 814 811
f 813 814 811
f 815 816 817
f 815 816 817
f 817 818 815
f 817 818 815
f 819 820 821
f 819 820 821
f 821 822 819
f 821 822 819
f 823 824 825
f 823 824 825
f 825 826 823
f 825 826 823
f 827 828 829
f 827 828 829
f 829 830 827
f 829 830 827
f 831 832 833
f 831 832 833
f 833 834 831
f 833 834 831
f 835 836 837
f 835 836 837
f 837 838 835
f 837 838 835
f 839 840 841
f 839 840 841
f 841 842 839
f 841 842 839
f 843 844 845
f 843 844 845
f 845 846 843
f 845 846 843
f 847 848 849
f 847 848 849
f 849 850 847
f 849 850 847
f 851 852 853
f 851 852 853
f 853 854 851
f 853 854 851
f 855 856 857
f 855 856 857
f 857 858 855
f 857 858 855
f 859 860 861
f 859 860 861
f 861 862 859
f 861 862 859
f 863 864 865
f 863 864 865
f 865 866 863
f 865 866 863
f 867 868 869
f 867 868 869
f 869 870 867
f 869 870 867
f 871 872 873
f 871 872 873
f 873 874 871
f 873 874 871
f 875 876 877
f 875 876 877
f 877 878 875
f 877 878 875
f 879 880 881
f 879 880 881
f 881 882 879
f 881 882 879
f 883 884 885
f 883 884 885
f 885 886 883
f 885 886 883
f 887 888 889
f 887 888 889
f 889 890 887
f 889 890 887
f 891 892 893
f 891 892 893
f 893 894 891
f 893 894 891
f 895 896 897
f 895 896 897
f 897 898 895
f 897 898 895
f 899 900 901
f 899 900 901
f 901 902 899
f 901 902 899
f 903 904 905
f 903 904 905
f 905 906 903
f 905 906 903
f 907 908 909
f 907 908 909
f 909 910 907
f 909 910 907
f 911 912 913
f 911 912 913
f 913 914 911
f 913 914 911
f 915 916 917
f 915 916 917
f 917 918 915
f 917 918 915
f 919 920 921
f 919 920 921
f 921 922 919
f 921 922 919
f 923 924 925
f 923 924 925
f 925 926 923
f 925 926 923
f 927 928 929
f 927 928 929
f 929 930 927
f 929 930 927
f 931 932 933
f 931 932 933
f 933 934 931
f 933 934 931
f 935 936 937
f 935 936 937
f 937 938 935
f 937 938 935
f 939 940 941
f 939 940 941
f 941 942 939
f 941 942 939
