v -0.127661675 -0.248894274 1.37478602
v -0.101784326 -0.248894274 1.37478602
v -0.101784326 -0.230444998 1.37478602
v -0.127661675 -0.230444998 1.37478602
v 0.10208533 -0.248894274 1.37478602
v 0.127962679 -0.248894274 1.37478602
v 0.127962679 -0.230444998 1.37478602
v 0.10208533 -0.230444998 1.37478602
v -0.101784334 -0.248894274 0.399283975
v -0.127661675 -0.248894274 0.399283975
v -0.127661675 -0.230444998 0.399283975
v -0.101784334 -0.230444998 0.399283975
v 0.127962664 -0.248894274 0.399283975
v 0.102085322 -0.248894274 0.399283975
v 0.102085322 -0.230444998 0.399283975
v 0.127962664 -0.230444998 0.399283975
v -0.127761677 -0.248868138 1.374686
v -0.127661675 -0.248894274 1.37478602
v -0.127661675 -0.230444998 1.37478602
v -0.127761677 -0.230444998 1.374686
v 0.12806268 -0.230444998 1.374686
v 0.127962679 -0.230444998 1.37478602
v 0.127962679 -0.248894274 1.37478602
v 0.12806268 -0.248868138 1.374686
v -0.127661675 -0.248894274 0.399283975
v -0.127761677 -0.248868138 0.399383992
v -0.127761677 -0.230444998 0.399383992
v -0.127661675 -0.230444998 0.399283975
v 0.128062665 -0.248868138 0.399383992
v 0.127962664 -0.248894274 0.399283975
v 0.127962664 -0.230444998 0.399283975
v 0.128062665 -0.230444998 0.399383992
v -0.127661675 -0.230444998 1.37478602
v -0.127661675 -0.230345011 1.374686
v -0.127761677 -0.230444998 1.374686
v 0.12806268 -0.230444998 1.374686
v 0.127962679 -0.230345011 1.374686
v 0.127962679 -0.230444998 1.37478602
v -0.127761677 -0.230444998 0.399383992
v -0.127661675 -0.230344996 0.399383992
v -0.127661675 -0.230444998 0.399283975
v 0.127962664 -0.230444998 0.399283975
v 0.127962664 -0.230344996 0.399383992
v 0.128062665 -0.230444998 0.399383992
v -0.127661675 -0.243344992 1.24618423
v -0.101784326 -0.243344992 1.24618423
v -0.101784326 -0.230444998 1.24618423
v -0.127661675 -0.230444998 1.24618423
v 0.10208533 -0.243344992 1.24618423
v 0.127962664 -0.243344992 1.24618423
v 0.127962664 -0.230444998 1.24618423
v 0.10208533 -0.230444998 1.24618423
v -0.101784326 -0.243345007 0.527885735
v -0.127661675 -0.243345007 0.527885735
v -0.127661675 -0.230444998 0.527885735
v -0.101784326 -0.230444998 0.527885735
v 0.127962679 -0.243345007 0.527885735
v 0.10208533 -0.243345007 0.527885735
v 0.10208533 -0.230444998 0.527885735
v 0.127962679 -0.230444998 0.527885735
v -0.101784326 -0.248994276 1.374686
v -0.101784326 -0.248894274 1.37478602
v -0.127661675 -0.248894274 1.37478602
v -0.127661675 -0.248994276 1.374686
v -0.127661675 -0.230345011 1.374686
v -0.127661675 -0.230444998 1.37478602
v -0.101784326 -0.230444998 1.37478602
v -0.101784326 -0.230345011 1.374686
v 0.127962679 -0.248994276 1.374686
v 0.127962679 -0.248894274 1.37478602
v 0.10208533 -0.248894274 1.37478602
v 0.10208533 -0.248994276 1.374686
v 0.10208533 -0.230345011 1.374686
v 0.10208533 -0.230444998 1.37478602
v 0.127962679 -0.230444998 1.37478602
v 0.127962679 -0.230345011 1.374686
v -0.127661675 -0.248994276 0.399383992
v -0.127661675 -0.248894274 0.399283975
v -0.101784334 -0.248894274 0.399283975
v -0.101784334 -0.248994276 0.399383992
v -0.101784334 -0.230344996 0.399383992
v -0.101784334 -0.230444998 0.399283975
v -0.127661675 -0.230444998 0.399283975
v -0.127661675 -0.230344996 0.399383992
v 0.102085322 -0.248994276 0.399383992
v 0.102085322 -0.248894274 0.399283975
v 0.127962664 -0.248894274 0.399283975
v 0.127962664 -0.248994276 0.399383992
v 0.127962664 -0.230344996 0.399383992
v 0.127962664 -0.230444998 0.399283975
v 0.102085322 -0.230444998 0.399283975
v 0.102085322 -0.230344996 0.399383992
v 0.12806268 -0.248868138 1.374686
v 0.127962679 -0.248894274 1.37478602
v 0.127962679 -0.248994276 1.374686
v -0.127761677 -0.248868138 0.399383992
v -0.127661675 -0.248894274 0.399283975
v -0.127661675 -0.248994276 0.399383992
v -0.127761677 -0.24336572 1.24608433
v -0.127661675 -0.243344992 1.24618423
v -0.127661675 -0.230444998 1.24618423
v -0.127761677 -0.230444998 1.24608433
v 0.127962664 -0.243344992 1.24618423
v 0.128062665 -0.24336572 1.24608433
v 0.128062665 -0.230444998 1.24608433
v 0.127962664 -0.230444998 1.24618423
v -0.127661675 -0.243345007 0.527885735
v -0.127761677 -0.24336572 0.527985692
v -0.127761677 -0.230444998 0.527985692
v -0.127661675 -0.230444998 0.527885735
v 0.12806268 -0.24336572 0.527985692
v 0.127962679 -0.243345007 0.527885735
v 0.127962679 -0.230444998 0.527885735
v 0.12806268 -0.230444998 0.527985692
v -0.127761677 -0.243544996 0.527874172
v -0.127761677 -0.24336572 0.527985692
v -0.127661675 -0.243345007 0.527885735
v 0.127962679 -0.243345007 0.527885735
v 0.12806268 -0.24336572 0.527985692
v 0.12806268 -0.243544996 0.527874172
v -0.127761677 -0.24336572 1.24608433
v -0.127761677 -0.243544996 1.24619579
v -0.127661675 -0.243444994 1.24628425
v 0.127962664 -0.243444994 1.24628425
v 0.128062665 -0.243544996 1.24619579
v 0.128062665 -0.24336572 1.24608433
v -0.127661675 -0.230444998 1.24618423
v -0.127661675 -0.230344996 1.24608433
v -0.127761677 -0.230444998 1.24608433
v 0.128062665 -0.230444998 1.24608433
v 0.127962664 -0.230344996 1.24608433
v 0.127962664 -0.230444998 1.24618423
v -0.127761677 -0.230444998 0.527985692
v -0.127661675 -0.230344996 0.527985692
v -0.127661675 -0.230444998 0.527885735
v 0.127962679 -0.230444998 0.527885735
v 0.127962679 -0.230344996 0.527985692
v 0.12806268 -0.230444998 0.527985692
v -0.127661675 -0.243444994 1.24628425
v -0.127661675 -0.243344992 1.24618423
v -0.127761677 -0.24336572 1.24608433
v 0.128062665 -0.24336572 1.24608433
v 0.127962664 -0.243344992 1.24618423
v 0.127962664 -0.243444994 1.24628425
v -0.101684324 -0.230444998 1.374686
v -0.101784326 -0.230444998 1.37478602
v -0.101784326 -0.248894274 1.37478602
v -0.101684324 -0.248868138 1.374686
v 0.101985328 -0.248868138 1.374686
v 0.10208533 -0.248894274 1.37478602
v 0.10208533 -0.230444998 1.37478602
v 0.101985328 -0.230444998 1.374686
v -0.101684332 -0.248868138 0.399383992
v -0.101784334 -0.248894274 0.399283975
v -0.101784334 -0.230444998 0.399283975
v -0.101684332 -0.230444998 0.399383992
v 0.102085322 -0.248894274 0.399283975
v 0.101985328 -0.248868138 0.399383992
v 0.101985328 -0.230444998 0.399383992
v 0.102085322 -0.230444998 0.399283975
v -0.127661675 -0.230344996 1.24608433
v -0.127661675 -0.230444998 1.24618423
v -0.101784326 -0.230444998 1.24618423
v -0.101784326 -0.230344996 1.24608433
v 0.10208533 -0.230344996 1.24608433
v 0.10208533 -0.230444998 1.24618423
v 0.127962664 -0.230444998 1.24618423
v 0.127962664 -0.230344996 1.24608433
v -0.101784326 -0.230344996 0.527985692
v -0.101784326 -0.230444998 0.527885735
v -0.127661675 -0.230444998 0.527885735
v -0.127661675 -0.230344996 0.527985692
v 0.127962679 -0.230344996 0.527985692
v 0.127962679 -0.230444998 0.527885735
v 0.10208533 -0.230444998 0.527885735
v 0.10208533 -0.230344996 0.527985692
v -0.127661675 -0.243345007 0.527885735
v -0.127661675 -0.243445009 0.527785718
v -0.127761677 -0.243544996 0.527874172
v 0.12806268 -0.243544996 0.527874172
v 0.127962679 -0.243445009 0.527785718
v 0.127962679 -0.243345007 0.527885735
v -0.127661675 -0.243344992 1.24618423
v -0.127661675 -0.243444994 1.24628425
v -0.101784326 -0.243444994 1.24628425
v -0.101784326 -0.243344992 1.24618423
v 0.10208533 -0.243344992 1.24618423
v 0.10208533 -0.243444994 1.24628425
v 0.127962664 -0.243444994 1.24628425
v 0.127962664 -0.243344992 1.24618423
v -0.101784326 -0.243345007 0.527885735
v -0.101784326 -0.243445009 0.527785718
v -0.127661675 -0.243445009 0.527785718
v -0.127661675 -0.243345007 0.527885735
v 0.127962679 -0.243345007 0.527885735
v 0.127962679 -0.243445009 0.527785718
v 0.10208533 -0.243445009 0.527785718
v 0.10208533 -0.243345007 0.527885735
v -0.101684324 -0.230444998 1.374686
v -0.101784326 -0.230345011 1.374686
v -0.101784326 -0.230444998 1.37478602
v 0.10208533 -0.230444998 1.37478602
v 0.10208533 -0.230345011 1.374686
v 0.101985328 -0.230444998 1.374686
v -0.101784334 -0.230444998 0.399283975
v -0.101784334 -0.230344996 0.399383992
v -0.101684332 -0.230444998 0.399383992
v 0.101985328 -0.230444998 0.399383992
v 0.102085322 -0.230344996 0.399383992
v 0.102085322 -0.230444998 0.399283975
v -0.101684324 -0.248868138 1.374686
v -0.101784326 -0.248894274 1.37478602
v -0.101784326 -0.248994276 1.374686
v 0.101985328 -0.248868138 0.399383992
v 0.102085322 -0.248894274 0.399283975
v 0.102085322 -0.248994276 0.399383992
v -0.127761677 -0.248894274 1.37392068
v -0.127661675 -0.248994276 1.374686
v -0.127661675 -0.248894274 1.37478602
v 0.128062665 -0.248894274 0.400149375
v 0.127962664 -0.248994276 0.399383992
v 0.127962664 -0.248894274 0.399283975
v 0.101985328 -0.24336572 1.24608433
v 0.10208533 -0.243344992 1.24618423
v 0.10208533 -0.230444998 1.24618423
v 0.101985328 -0.230444998 1.24608433
v -0.101784326 -0.243344992 1.24618423
v -0.101684332 -0.24336572 1.24608433
v -0.101684332 -0.230444998 1.24608433
v -0.101784326 -0.230444998 1.24618423
v -0.101684324 -0.24336572 0.527985692
v -0.101784326 -0.243345007 0.527885735
v -0.101784326 -0.230444998 0.527885735
v -0.101684324 -0.230444998 0.527985692
v 0.10208533 -0.243345007 0.527885735
v 0.101985328 -0.24336572 0.527985692
v 0.101985328 -0.230444998 0.527985692
v 0.10208533 -0.230444998 0.527885735
v -0.101684332 -0.230444998 1.24608433
v -0.101784326 -0.230344996 1.24608433
v -0.101784326 -0.230444998 1.24618423
v 0.10208533 -0.230444998 1.24618423
v 0.10208533 -0.230344996 1.24608433
v 0.101985328 -0.230444998 1.24608433
v -0.101784326 -0.230444998 0.527885735
v -0.101784326 -0.230344996 0.527985692
v -0.101684324 -0.230444998 0.527985692
v 0.101985328 -0.230444998 0.527985692
v 0.10208533 -0.230344996 0.527985692
v 0.10208533 -0.230444998 0.527885735
v -0.101784326 -0.243345007 0.527885735
v -0.101684324 -0.24336572 0.527985692
v -0.101684324 -0.243544996 0.527874172
v 0.101985328 -0.243544996 0.527874172
v 0.101985328 -0.24336572 0.527985692
v 0.10208533 -0.243345007 0.527885735
v -0.127761677 -0.24336572 1.35119569
v -0.127761677 -0.248868138 1.374686
v -0.127761677 -0.230444998 1.374686
v -0.127761677 -0.230444998 1.35119569
v -0.127761677 -0.248894274 1.37392068
v -0.127761677 -0.243544996 1.35108411
v -0.127761677 -0.243544996 1.24619579
v -0.127761677 -0.248894274 1.22335935
v -0.127761677 -0.248868138 1.22259402
v -0.127761677 -0.24336572 1.24608433
v -0.127761677 -0.230444998 1.24608433
v -0.127761677 -0.230444998 1.22259402
v 0.12806268 -0.24336572 1.35119569
v 0.12806268 -0.230444998 1.35119569
v 0.12806268 -0.230444998 1.374686
v 0.12806268 -0.248868138 1.374686
v 0.12806268 -0.243544996 1.35108411
v 0.12806268 -0.248894274 1.37392068
v 0.128062665 -0.248894274 1.22335935
v 0.128062665 -0.243544996 1.24619579
v 0.128062665 -0.24336572 1.24608433
v 0.128062665 -0.248868138 1.22259402
v 0.128062665 -0.230444998 1.22259402
v 0.128062665 -0.230444998 1.24608433
v -0.127761677 -0.24336572 0.527985692
v -0.127761677 -0.248868138 0.551476002
v -0.127761677 -0.230444998 0.551476002
v -0.127761677 -0.230444998 0.527985692
v -0.127761677 -0.248894274 0.550710618
v -0.127761677 -0.243544996 0.527874172
v -0.127761677 -0.243544996 0.422985852
v -0.127761677 -0.248894274 0.400149375
v -0.127761677 -0.248868138 0.399383992
v -0.127761677 -0.24336572 0.422874272
v -0.127761677 -0.230444998 0.422874272
v -0.127761677 -0.230444998 0.399383992
v 0.12806268 -0.24336572 0.527985692
v 0.12806268 -0.230444998 0.527985692
v 0.12806268 -0.230444998 0.551476002
v 0.12806268 -0.248868138 0.551476002
v 0.12806268 -0.243544996 0.527874172
v 0.12806268 -0.248894274 0.550710618
v 0.128062665 -0.248894274 0.400149375
v 0.128062665 -0.243544996 0.422985852
v 0.128062665 -0.24336572 0.422874272
v 0.128062665 -0.248868138 0.399383992
v 0.128062665 -0.230444998 0.399383992
v 0.128062665 -0.230444998 0.422874272
v -0.101684332 -0.24336572 1.24608433
v -0.101784326 -0.243344992 1.24618423
v -0.101784326 -0.243444994 1.24628425
v 0.10208533 -0.243444994 1.24628425
v 0.10208533 -0.243344992 1.24618423
v 0.101985328 -0.24336572 1.24608433
v 0.127962679 -0.248994276 1.374686
v 0.12806268 -0.248894274 1.37392068
v 0.12806268 -0.248868138 1.374686
v -0.127661675 -0.248994276 0.399383992
v -0.127761677 -0.248894274 0.400149375
v -0.127761677 -0.248868138 0.399383992
v -0.101784326 -0.243444994 1.24628425
v -0.101684332 -0.243544996 1.24619579
v -0.101684332 -0.24336572 1.24608433
v 0.101985328 -0.24336572 1.24608433
v 0.101985328 -0.243544996 1.24619579
v 0.10208533 -0.243444994 1.24628425
v -0.127661675 -0.248994276 1.22259402
v -0.127761677 -0.248894274 1.22335935
v -0.127761677 -0.248868138 1.22259402
v 0.127962679 -0.248994276 0.551476002
v 0.12806268 -0.248894274 0.550710618
v 0.12806268 -0.248868138 0.551476002
v -0.127661675 -0.248994276 1.374686
v -0.127761677 -0.248894274 1.37392068
v -0.127761677 -0.248894274 1.22335935
v -0.127661675 -0.248994276 1.22259402
v -0.127661675 -0.230344996 1.35119569
v -0.127761677 -0.230444998 1.35119569
v -0.127761677 -0.230444998 1.374686
v -0.127661675 -0.230345011 1.374686
v -0.127661675 -0.230344996 1.22259402
v -0.127761677 -0.230444998 1.22259402
v -0.127761677 -0.230444998 1.24608433
v -0.127661675 -0.230344996 1.24608433
v 0.127962664 -0.248994276 1.22259402
v 0.128062665 -0.248894274 1.22335935
v 0.12806268 -0.248894274 1.37392068
v 0.127962679 -0.248994276 1.374686
v 0.127962679 -0.230345011 1.374686
v 0.12806268 -0.230444998 1.374686
v 0.12806268 -0.230444998 1.35119569
v 0.127962679 -0.230344996 1.35119569
v 0.127962664 -0.230344996 1.24608433
v 0.128062665 -0.230444998 1.24608433
v 0.128062665 -0.230444998 1.22259402
v 0.127962664 -0.230344996 1.22259402
v -0.127661675 -0.248994276 0.551476002
v -0.127761677 -0.248894274 0.550710618
v -0.127761677 -0.248894274 0.400149375
v -0.127661675 -0.248994276 0.399383992
v -0.127661675 -0.230344996 0.527985692
v -0.127761677 -0.230444998 0.527985692
v -0.127761677 -0.230444998 0.551476002
v -0.127661675 -0.230345011 0.551476002
v -0.127661675 -0.230344996 0.399383992
v -0.127761677 -0.230444998 0.399383992
v -0.127761677 -0.230444998 0.422874272
v -0.127661675 -0.230344996 0.422874272
v 0.127962664 -0.248994276 0.399383992
v 0.128062665 -0.248894274 0.400149375
v 0.12806268 -0.248894274 0.550710618
v 0.127962679 -0.248994276 0.551476002
v 0.127962679 -0.230345011 0.551476002
v 0.12806268 -0.230444998 0.551476002
v 0.12806268 -0.230444998 0.527985692
v 0.127962679 -0.230344996 0.527985692
v 0.127962664 -0.230344996 0.422874272
v 0.128062665 -0.230444998 0.422874272
v 0.128062665 -0.230444998 0.399383992
v 0.127962664 -0.230344996 0.399383992
v 0.128062665 -0.248894274 1.22335935
v 0.127962664 -0.248994276 1.22259402
v 0.127962664 -0.248894274 1.22249401
v -0.127761677 -0.248894274 0.550710618
v -0.127661675 -0.248994276 0.551476002
v -0.127661675 -0.248894274 0.551576018
v -0.127661675 -0.243444994 1.24628425
v -0.127761677 -0.243544996 1.24619579
v -0.127761677 -0.243544996 1.35108411
v -0.127661675 -0.243445009 1.35099566
v 0.127962679 -0.243445009 1.35099566
v 0.12806268 -0.243544996 1.35108411
v 0.128062665 -0.243544996 1.24619579
v 0.127962664 -0.243444994 1.24628425
v -0.127661675 -0.243444994 0.423074275
v -0.127761677 -0.243544996 0.422985852
v -0.127761677 -0.243544996 0.527874172
v -0.127661675 -0.243445009 0.527785718
v 0.127962679 -0.243445009 0.527785718
v 0.12806268 -0.243544996 0.527874172
v 0.128062665 -0.243544996 0.422985852
v 0.127962664 -0.243444994 0.423074275
v -0.101684324 -0.243544996 0.527874172
v -0.101784326 -0.243445009 0.527785718
v -0.101784326 -0.243345007 0.527885735
v 0.10208533 -0.243345007 0.527885735
v 0.10208533 -0.243445009 0.527785718
v 0.101985328 -0.243544996 0.527874172
v -0.127661675 -0.248894274 1.37478602
v -0.127761677 -0.248868138 1.374686
v -0.127761677 -0.248894274 1.37392068
v 0.127962664 -0.248894274 0.399283975
v 0.128062665 -0.248868138 0.399383992
v 0.128062665 -0.248894274 0.400149375
v 0.127962664 -0.248894274 1.22249401
v 0.128062665 -0.248868138 1.22259402
v 0.128062665 -0.248894274 1.22335935
v -0.127661675 -0.248894274 0.551576018
v -0.127761677 -0.248868138 0.551476002
v -0.127761677 -0.248894274 0.550710618
v -0.127661675 -0.230345011 1.374686
v -0.101784326 -0.230345011 1.374686
v -0.101784326 -0.230344996 1.35119569
v -0.127661675 -0.230344996 1.35119569
v -0.127661675 -0.230344996 1.24608433
v -0.101784326 -0.230344996 1.24608433
v -0.101784334 -0.230344996 1.22259402
v -0.127661675 -0.230344996 1.22259402
v -0.127661675 -0.248994276 1.374686
v -0.127661675 -0.248994276 1.22259402
v -0.101784334 -0.248994276 1.22259402
v -0.101784326 -0.248994276 1.374686
v 0.10208533 -0.230345011 1.374686
v 0.127962679 -0.230345011 1.374686
v 0.127962679 -0.230344996 1.35119569
v 0.10208533 -0.230344996 1.35119569
v 0.10208533 -0.230344996 1.24608433
v 0.127962664 -0.230344996 1.24608433
v 0.127962664 -0.230344996 1.22259402
v 0.102085322 -0.230344996 1.22259402
v 0.10208533 -0.248994276 1.374686
v 0.102085322 -0.248994276 1.22259402
v 0.127962664 -0.248994276 1.22259402
v 0.127962679 -0.248994276 1.374686
v -0.127661675 -0.230345011 0.551476002
v -0.101784326 -0.230345011 0.551476002
v -0.101784326 -0.230344996 0.527985692
v -0.127661675 -0.230344996 0.527985692
v -0.127661675 -0.230344996 0.422874272
v -0.101784326 -0.230344996 0.422874272
v -0.101784334 -0.230344996 0.399383992
v -0.127661675 -0.230344996 0.399383992
v -0.127661675 -0.248994276 0.551476002
v -0.127661675 -0.248994276 0.399383992
v -0.101784334 -0.248994276 0.399383992
v -0.101784326 -0.248994276 0.551476002
v 0.10208533 -0.230345011 0.551476002
v 0.127962679 -0.230345011 0.551476002
v 0.127962679 -0.230344996 0.527985692
v 0.10208533 -0.230344996 0.527985692
v 0.10208533 -0.230344996 0.422874272
v 0.127962664 -0.230344996 0.422874272
v 0.127962664 -0.230344996 0.399383992
v 0.102085322 -0.230344996 0.399383992
v 0.10208533 -0.248994276 0.551476002
v 0.102085322 -0.248994276 0.399383992
v 0.127962664 -0.248994276 0.399383992
v 0.127962679 -0.248994276 0.551476002
v -0.127661675 -0.243445009 1.35099566
v -0.101784326 -0.243445009 1.35099566
v -0.101784326 -0.243444994 1.24628425
v -0.127661675 -0.243444994 1.24628425
v 0.10208533 -0.243445009 1.35099566
v 0.127962679 -0.243445009 1.35099566
v 0.127962664 -0.243444994 1.24628425
v 0.10208533 -0.243444994 1.24628425
v -0.127661675 -0.243445009 0.527785718
v -0.101784326 -0.243445009 0.527785718
v -0.101784326 -0.243444994 0.423074275
v -0.127661675 -0.243444994 0.423074275
v 0.10208533 -0.243445009 0.527785718
v 0.127962679 -0.243445009 0.527785718
v 0.127962664 -0.243444994 0.423074275
v 0.10208533 -0.243444994 0.423074275
v 0.10208533 -0.248894274 1.37478602
v 0.101985328 -0.248868138 1.374686
v 0.101985328 -0.248894274 1.37392068
v -0.101784334 -0.248894274 0.399283975
v -0.101684332 -0.248868138 0.399383992
v -0.101684332 -0.248894274 0.400149375
v -0.101784334 -0.248894274 1.22249401
v -0.101684332 -0.248868138 1.22259402
v -0.101684332 -0.248894274 1.22335935
v 0.10208533 -0.248894274 0.551576018
v 0.101985328 -0.248868138 0.551476002
v 0.101985328 -0.248894274 0.550710618
v 0.101985328 -0.248894274 1.37392068
v 0.10208533 -0.248994276 1.374686
v 0.10208533 -0.248894274 1.37478602
v -0.101684332 -0.248894274 0.400149375
v -0.101784334 -0.248994276 0.399383992
v -0.101784334 -0.248894274 0.399283975
v -0.101784326 -0.248994276 1.374686
v -0.101684324 -0.248894274 1.37392068
v -0.101684324 -0.248868138 1.374686
v 0.102085322 -0.248994276 0.399383992
v 0.101985328 -0.248894274 0.400149375
v 0.101985328 -0.248868138 0.399383992
v -0.101784334 -0.248994276 1.22259402
v -0.101684332 -0.248894274 1.22335935
v -0.101684324 -0.248894274 1.37392068
v -0.101784326 -0.248994276 1.374686
v -0.101784326 -0.230345011 1.374686
v -0.101684324 -0.230444998 1.374686
v -0.101684324 -0.230444998 1.35119569
v -0.101784326 -0.230344996 1.35119569
v -0.101784326 -0.230344996 1.24608433
v -0.101684332 -0.230444998 1.24608433
v -0.101684332 -0.230444998 1.22259402
v -0.101784334 -0.230344996 1.22259402
v 0.10208533 -0.248994276 1.374686
v 0.101985328 -0.248894274 1.37392068
v 0.101985328 -0.248894274 1.22335935
v 0.102085322 -0.248994276 1.22259402
v 0.10208533 -0.230344996 1.35119569
v 0.101985328 -0.230444998 1.35119569
v 0.101985328 -0.230444998 1.374686
v 0.10208533 -0.230345011 1.374686
v 0.102085322 -0.230344996 1.22259402
v 0.101985328 -0.230444998 1.22259402
v 0.101985328 -0.230444998 1.24608433
v 0.10208533 -0.230344996 1.24608433
v -0.101784334 -0.248994276 0.399383992
v -0.101684332 -0.248894274 0.400149375
v -0.101684324 -0.248894274 0.550710618
v -0.101784326 -0.248994276 0.551476002
v -0.101784326 -0.230345011 0.551476002
v -0.101684324 -0.230444998 0.551476002
v -0.101684324 -0.230444998 0.527985692
v -0.101784326 -0.230344996 0.527985692
v -0.101784326 -0.230344996 0.422874272
v -0.101684332 -0.230444998 0.422874272
v -0.101684332 -0.230444998 0.399383992
v -0.101784334 -0.230344996 0.399383992
v 0.10208533 -0.248994276 0.551476002
v 0.101985328 -0.248894274 0.550710618
v 0.101985328 -0.248894274 0.400149375
v 0.102085322 -0.248994276 0.399383992
v 0.10208533 -0.230344996 0.527985692
v 0.101985328 -0.230444998 0.527985692
v 0.101985328 -0.230444998 0.551476002
v 0.10208533 -0.230345011 0.551476002
v 0.102085322 -0.230344996 0.399383992
v 0.101985328 -0.230444998 0.399383992
v 0.101985328 -0.230444998 0.422874272
v 0.10208533 -0.230344996 0.422874272
v -0.101784326 -0.243445009 1.35099566
v -0.101684324 -0.243544996 1.35108411
v -0.101684332 -0.243544996 1.24619579
v -0.101784326 -0.243444994 1.24628425
v 0.10208533 -0.243444994 1.24628425
v 0.101985328 -0.243544996 1.24619579
v 0.101985328 -0.243544996 1.35108411
v 0.10208533 -0.243445009 1.35099566
v -0.101784326 -0.243445009 0.527785718
v -0.101684324 -0.243544996 0.527874172
v -0.101684332 -0.243544996 0.422985852
v -0.101784326 -0.243444994 0.423074275
v 0.10208533 -0.243444994 0.423074275
v 0.101985328 -0.243544996 0.422985852
v 0.101985328 -0.243544996 0.527874172
v 0.10208533 -0.243445009 0.527785718
v 0.102085322 -0.248994276 1.22259402
v 0.101985328 -0.248894274 1.22335935
v 0.101985328 -0.248868138 1.22259402
v -0.101784326 -0.248994276 0.551476002
v -0.101684324 -0.248894274 0.550710618
v -0.101684324 -0.248868138 0.551476002
v -0.127761677 -0.248868138 1.22259402
v -0.127661675 -0.248894274 1.22249401
v -0.127661675 -0.248994276 1.22259402
v 0.12806268 -0.248868138 0.551476002
v 0.127962679 -0.248894274 0.551576018
v 0.127962679 -0.248994276 0.551476002
v -0.127661675 -0.243345007 1.35109568
v -0.127661675 -0.243445009 1.35099566
v -0.127761677 -0.243544996 1.35108411
v 0.12806268 -0.243544996 1.35108411
v 0.127962679 -0.243445009 1.35099566
v 0.127962679 -0.243345007 1.35109568
v -0.101684324 -0.24336572 1.35119569
v -0.101684324 -0.230444998 1.35119569
v -0.101684324 -0.230444998 1.374686
v -0.101684324 -0.248868138 1.374686
v -0.101684324 -0.243544996 1.35108411
v -0.101684324 -0.248894274 1.37392068
v -0.101684332 -0.248894274 1.22335935
v -0.101684332 -0.243544996 1.24619579
v -0.101684332 -0.24336572 1.24608433
v -0.101684332 -0.248868138 1.22259402
v -0.101684332 -0.230444998 1.22259402
v -0.101684332 -0.230444998 1.24608433
v 0.101985328 -0.24336572 1.35119569
v 0.101985328 -0.248868138 1.374686
v 0.101985328 -0.230444998 1.374686
v 0.101985328 -0.230444998 1.35119569
v 0.101985328 -0.248894274 1.37392068
v 0.101985328 -0.243544996 1.35108411
v 0.101985328 -0.243544996 1.24619579
v 0.101985328 -0.248894274 1.22335935
v 0.101985328 -0.248868138 1.22259402
v 0.101985328 -0.24336572 1.24608433
v 0.101985328 -0.230444998 1.24608433
v 0.101985328 -0.230444998 1.22259402
v -0.101684324 -0.24336572 0.527985692
v -0.101684324 -0.230444998 0.527985692
v -0.101684324 -0.230444998 0.551476002
v -0.101684324 -0.248868138 0.551476002
v -0.101684324 -0.243544996 0.527874172
v -0.101684324 -0.248894274 0.550710618
v -0.101684332 -0.248894274 0.400149375
v -0.101684332 -0.243544996 0.422985852
v -0.101684332 -0.24336572 0.422874272
v -0.101684332 -0.248868138 0.399383992
v -0.101684332 -0.230444998 0.399383992
v -0.101684332 -0.230444998 0.422874272
v 0.101985328 -0.24336572 0.527985692
v 0.101985328 -0.248868138 0.551476002
v 0.101985328 -0.230444998 0.551476002
v 0.101985328 -0.230444998 0.527985692
v 0.101985328 -0.248894274 0.550710618
v 0.101985328 -0.243544996 0.527874172
v 0.101985328 -0.243544996 0.422985852
v 0.101985328 -0.248894274 0.400149375
v 0.101985328 -0.248868138 0.399383992
v 0.101985328 -0.24336572 0.422874272
v 0.101985328 -0.230444998 0.422874272
v 0.101985328 -0.230444998 0.399383992
v -0.127761677 -0.230444998 1.22259402
v -0.127661675 -0.230344996 1.22259402
v -0.127661675 -0.230444998 1.22249401
v 0.127962664 -0.230444998 1.22249401
v 0.127962664 -0.230344996 1.22259402
v 0.128062665 -0.230444998 1.22259402
v -0.127661675 -0.230444998 0.551576018
v -0.127661675 -0.230345011 0.551476002
v -0.127761677 -0.230444998 0.551476002
v 0.12806268 -0.230444998 0.551476002
v 0.127962679 -0.230345011 0.551476002
v 0.127962679 -0.230444998 0.551576018
v -0.101684332 -0.248894274 1.22335935
v -0.101784334 -0.248994276 1.22259402
v -0.101784334 -0.248894274 1.22249401
v 0.101985328 -0.248894274 0.550710618
v 0.10208533 -0.248994276 0.551476002
v 0.10208533 -0.248894274 0.551576018
v -0.127761677 -0.24336572 0.422874272
v -0.127761677 -0.243544996 0.422985852
v -0.127661675 -0.243444994 0.423074275
v 0.127962664 -0.243444994 0.423074275
v 0.128062665 -0.243544996 0.422985852
v 0.128062665 -0.24336572 0.422874272
v -0.127661675 -0.248894274 1.22249401
v -0.127761677 -0.248868138 1.22259402
v -0.127761677 -0.230444998 1.22259402
v -0.127661675 -0.230444998 1.22249401
v 0.128062665 -0.248868138 1.22259402
v 0.127962664 -0.248894274 1.22249401
v 0.127962664 -0.230444998 1.22249401
v 0.128062665 -0.230444998 1.22259402
v -0.127761677 -0.248868138 0.551476002
v -0.127661675 -0.248894274 0.551576018
v -0.127661675 -0.230444998 0.551576018
v -0.127761677 -0.230444998 0.551476002
v 0.12806268 -0.230444998 0.551476002
v 0.127962679 -0.230444998 0.551576018
v 0.127962679 -0.248894274 0.551576018
v 0.12806268 -0.248868138 0.551476002
v -0.127661675 -0.243444994 0.423074275
v -0.127661675 -0.243344992 0.422974288
v -0.127761677 -0.24336572 0.422874272
v 0.128062665 -0.24336572 0.422874272
v 0.127962664 -0.243344992 0.422974288
v 0.127962664 -0.243444994 0.423074275
v -0.127761677 -0.230444998 1.35119569
v -0.127661675 -0.230344996 1.35119569
v -0.127661675 -0.230444998 1.35109568
v 0.127962679 -0.230444998 1.35109568
v 0.127962679 -0.230344996 1.35119569
v 0.12806268 -0.230444998 1.35119569
v -0.127661675 -0.230444998 0.422974288
v -0.127661675 -0.230344996 0.422874272
v -0.127761677 -0.230444998 0.422874272
v 0.128062665 -0.230444998 0.422874272
v 0.127962664 -0.230344996 0.422874272
v 0.127962664 -0.230444998 0.422974288
v -0.127761677 -0.243544996 1.35108411
v -0.127761677 -0.24336572 1.35119569
v -0.127661675 -0.243345007 1.35109568
v 0.127962679 -0.243345007 1.35109568
v 0.12806268 -0.24336572 1.35119569
v 0.12806268 -0.243544996 1.35108411
v -0.101784334 -0.230344996 1.22259402
v -0.101784334 -0.230444998 1.22249401
v -0.127661675 -0.230444998 1.22249401
v -0.127661675 -0.230344996 1.22259402
v 0.127962664 -0.230344996 1.22259402
v 0.127962664 -0.230444998 1.22249401
v 0.102085322 -0.230444998 1.22249401
v 0.102085322 -0.230344996 1.22259402
v -0.127661675 -0.230345011 0.551476002
v -0.127661675 -0.230444998 0.551576018
v -0.101784326 -0.230444998 0.551576018
v -0.101784326 -0.230345011 0.551476002
v 0.10208533 -0.230345011 0.551476002
v 0.10208533 -0.230444998 0.551576018
v 0.127962679 -0.230444998 0.551576018
v 0.127962679 -0.230345011 0.551476002
v -0.127661675 -0.248994276 1.22259402
v -0.127661675 -0.248894274 1.22249401
v -0.101784334 -0.248894274 1.22249401
v -0.101784334 -0.248994276 1.22259402
v 0.102085322 -0.248994276 1.22259402
v 0.102085322 -0.248894274 1.22249401
v 0.127962664 -0.248894274 1.22249401
v 0.127962664 -0.248994276 1.22259402
v -0.101784326 -0.248994276 0.551476002
v -0.101784326 -0.248894274 0.551576018
v -0.127661675 -0.248894274 0.551576018
v -0.127661675 -0.248994276 0.551476002
v 0.127962679 -0.248994276 0.551476002
v 0.127962679 -0.248894274 0.551576018
v 0.10208533 -0.248894274 0.551576018
v 0.10208533 -0.248994276 0.551476002
v -0.127661675 -0.243345007 1.35109568
v -0.127761677 -0.24336572 1.35119569
v -0.127761677 -0.230444998 1.35119569
v -0.127661675 -0.230444998 1.35109568
v 0.12806268 -0.24336572 1.35119569
v 0.127962679 -0.243345007 1.35109568
v 0.127962679 -0.230444998 1.35109568
v 0.12806268 -0.230444998 1.35119569
v -0.127761677 -0.24336572 0.422874272
v -0.127661675 -0.243344992 0.422974288
v -0.127661675 -0.230444998 0.422974288
v -0.127761677 -0.230444998 0.422874272
v 0.127962664 -0.243344992 0.422974288
v 0.128062665 -0.24336572 0.422874272
v 0.128062665 -0.230444998 0.422874272
v 0.127962664 -0.230444998 0.422974288
v 0.101985328 -0.248868138 1.22259402
v 0.102085322 -0.248894274 1.22249401
v 0.102085322 -0.248994276 1.22259402
v -0.101684324 -0.248868138 0.551476002
v -0.101784326 -0.248894274 0.551576018
v -0.101784326 -0.248994276 0.551476002
v -0.101784334 -0.230444998 1.22249401
v -0.101784334 -0.230344996 1.22259402
v -0.101684332 -0.230444998 1.22259402
v 0.101985328 -0.230444998 1.22259402
v 0.102085322 -0.230344996 1.22259402
v 0.102085322 -0.230444998 1.22249401
v -0.101684324 -0.230444998 0.551476002
v -0.101784326 -0.230345011 0.551476002
v -0.101784326 -0.230444998 0.551576018
v 0.10208533 -0.230444998 0.551576018
v 0.10208533 -0.230345011 0.551476002
v 0.101985328 -0.230444998 0.551476002
v -0.101684324 -0.243544996 1.35108411
v -0.101784326 -0.243445009 1.35099566
v -0.101784326 -0.243345007 1.35109568
v 0.10208533 -0.243345007 1.35109568
v 0.10208533 -0.243445009 1.35099566
v 0.101985328 -0.243544996 1.35108411
v -0.101684332 -0.248868138 1.22259402
v -0.101784334 -0.248894274 1.22249401
v -0.101784334 -0.230444998 1.22249401
v -0.101684332 -0.230444998 1.22259402
v 0.102085322 -0.248894274 1.22249401
v 0.101985328 -0.248868138 1.22259402
v 0.101985328 -0.230444998 1.22259402
v 0.102085322 -0.230444998 1.22249401
v -0.101684324 -0.230444998 0.551476002
v -0.101784326 -0.230444998 0.551576018
v -0.101784326 -0.248894274 0.551576018
v -0.101684324 -0.248868138 0.551476002
v 0.101985328 -0.248868138 0.551476002
v 0.10208533 -0.248894274 0.551576018
v 0.10208533 -0.230444998 0.551576018
v 0.101985328 -0.230444998 0.551476002
v -0.101684332 -0.24336572 0.422874272
v -0.101784326 -0.243344992 0.422974288
v -0.101784326 -0.243444994 0.423074275
v 0.10208533 -0.243444994 0.423074275
v 0.10208533 -0.243344992 0.422974288
v 0.101985328 -0.24336572 0.422874272
v -0.101784326 -0.230444998 1.35109568
v -0.101784326 -0.230344996 1.35119569
v -0.101684324 -0.230444998 1.35119569
v -0.101784326 -0.230344996 1.35119569
v -0.101784326 -0.230444998 1.35109568
v -0.127661675 -0.230444998 1.35109568
v -0.127661675 -0.230344996 1.35119569
v 0.101985328 -0.230444998 1.35119569
v 0.10208533 -0.230344996 1.35119569
v 0.10208533 -0.230444998 1.35109568
v 0.127962679 -0.230344996 1.35119569
v 0.127962679 -0.230444998 1.35109568
v 0.10208533 -0.230444998 1.35109568
v 0.10208533 -0.230344996 1.35119569
v -0.101684332 -0.230444998 0.422874272
v -0.101784326 -0.230344996 0.422874272
v -0.101784326 -0.230444998 0.422974288
v -0.127661675 -0.230344996 0.422874272
v -0.127661675 -0.230444998 0.422974288
v -0.101784326 -0.230444998 0.422974288
v -0.101784326 -0.230344996 0.422874272
v 0.10208533 -0.230444998 0.422974288
v 0.10208533 -0.230344996 0.422874272
v 0.101985328 -0.230444998 0.422874272
v 0.10208533 -0.230344996 0.422874272
v 0.10208533 -0.230444998 0.422974288
v 0.127962664 -0.230444998 0.422974288
v 0.127962664 -0.230344996 0.422874272
v -0.101784326 -0.243444994 0.423074275
v -0.101684332 -0.243544996 0.422985852
v -0.101684332 -0.24336572 0.422874272
v 0.101985328 -0.24336572 0.422874272
v 0.101985328 -0.243544996 0.422985852
v 0.10208533 -0.243444994 0.423074275
v -0.101784326 -0.243345007 1.35109568
v -0.101784326 -0.243445009 1.35099566
v -0.127661675 -0.243445009 1.35099566
v -0.127661675 -0.243345007 1.35109568
v 0.127962679 -0.243345007 1.35109568
v 0.127962679 -0.243445009 1.35099566
v 0.10208533 -0.243445009 1.35099566
v 0.10208533 -0.243345007 1.35109568
v -0.127661675 -0.243344992 0.422974288
v -0.127661675 -0.243444994 0.423074275
v -0.101784326 -0.243444994 0.423074275
v -0.101784326 -0.243344992 0.422974288
v 0.10208533 -0.243344992 0.422974288
v 0.10208533 -0.243444994 0.423074275
v 0.127962664 -0.243444994 0.423074275
v 0.127962664 -0.243344992 0.422974288
v -0.101784334 -0.248894274 1.22249401
v -0.127661675 -0.248894274 1.22249401
v -0.127661675 -0.230444998 1.22249401
v -0.101784334 -0.230444998 1.22249401
v 0.127962664 -0.248894274 1.22249401
v 0.102085322 -0.248894274 1.22249401
v 0.102085322 -0.230444998 1.22249401
v 0.127962664 -0.230444998 1.22249401
v -0.127661675 -0.248894274 0.551576018
v -0.101784326 -0.248894274 0.551576018
v -0.101784326 -0.230444998 0.551576018
v -0.127661675 -0.230444998 0.551576018
v 0.10208533 -0.248894274 0.551576018
v 0.127962679 -0.248894274 0.551576018
v 0.127962679 -0.230444998 0.551576018
v 0.10208533 -0.230444998 0.551576018
v -0.101784326 -0.243345007 1.35109568
v -0.101684324 -0.24336572 1.35119569
v -0.101684324 -0.243544996 1.35108411
v 0.101985328 -0.243544996 1.35108411
v 0.101985328 -0.24336572 1.35119569
v 0.10208533 -0.243345007 1.35109568
v -0.101684324 -0.24336572 1.35119569
v -0.101784326 -0.243345007 1.35109568
v -0.101784326 -0.230444998 1.35109568
v -0.101684324 -0.230444998 1.35119569
v 0.10208533 -0.243345007 1.35109568
v 0.101985328 -0.24336572 1.35119569
v 0.101985328 -0.230444998 1.35119569
v 0.10208533 -0.230444998 1.35109568
v -0.101784326 -0.243344992 0.422974288
v -0.101684332 -0.24336572 0.422874272
v -0.101684332 -0.230444998 0.422874272
v -0.101784326 -0.230444998 0.422974288
v 0.101985328 -0.24336572 0.422874272
v 0.10208533 -0.243344992 0.422974288
v 0.10208533 -0.230444998 0.422974288
v 0.101985328 -0.230444998 0.422874272
v -0.101784326 -0.243345007 1.35109568
v -0.127661675 -0.243345007 1.35109568
v -0.127661675 -0.230444998 1.35109568
v -0.101784326 -0.230444998 1.35109568
v 0.127962679 -0.243345007 1.35109568
v 0.10208533 -0.243345007 1.35109568
v 0.10208533 -0.230444998 1.35109568
v 0.127962679 -0.230444998 1.35109568
v -0.127661675 -0.243344992 0.422974288
v -0.101784326 -0.243344992 0.422974288
v -0.101784326 -0.230444998 0.422974288
v -0.127661675 -0.230444998 0.422974288
v 0.10208533 -0.243344992 0.422974288
v 0.127962664 -0.243344992 0.422974288
v 0.127962664 -0.230444998 0.422974288
v 0.10208533 -0.230444998 0.422974288
f 1 2 3
f 3 4 1
f 5 6 7
f 7 8 5
f 9 10 11
f 11 12 9
f 13 14 15
f 15 16 13
f 17 18 19
f 19 20 17
f 21 22 23
f 23 24 21
f 25 26 27
f 27 28 25
f 29 30 31
f 31 32 29
f 33 34 35
f 36 37 38
f 39 40 41
f 42 43 44
f 45 46 47
f 47 48 45
f 49 50 51
f 51 52 49
f 53 54 55
f 55 56 53
f 57 58 59
f 59 60 57
f 61 62 63
f 63 64 61
f 65 66 67
f 67 68 65
f 69 70 71
f 71 72 69
f 73 74 75
f 75 76 73
f 77 78 79
f 79 80 77
f 81 82 83
f 83 84 81
f 85 86 87
f 87 88 85
f 89 90 91
f 91 92 89
f 93 94 95
f 96 97 98
f 99 100 101
f 101 102 99
f 103 104 105
f 105 106 103
f 107 108 109
f 109 110 107
f 111 112 113
f 113 114 111
f 115 116 117
f 118 119 120
f 121 122 123
f 124 125 126
f 127 128 129
f 130 131 132
f 133 134 135
f 136 137 138
f 139 140 141
f 142 143 144
f 145 146 147
f 147 148 145
f 149 150 151
f 151 152 149
f 153 154 155
f 155 156 153
f 157 158 159
f 159 160 157
f 161 162 163
f 163 164 161
f 165 166 167
f 167 168 165
f 169 170 171
f 171 172 169
f 173 174 175
f 175 176 173
f 177 178 179
f 180 181 182
f 183 184 185
f 185 186 183
f 187 188 189
f 189 190 187
f 191 192 193
f 193 194 191
f 195 196 197
f 197 198 195
f 199 200 201
f 202 203 204
f 205 206 207
f 208 209 210
f 211 212 213
f 214 215 216
f 217 218 219
f 220 221 222
f 223 224 225
f 225 226 223
f 227 228 229
f 229 230 227
f 231 232 233
f 233 234 231
f 235 236 237
f 237 238 235
f 239 240 241
f 242 243 244
f 245 246 247
f 248 249 250
f 251 252 253
f 254 255 256
f 257 258 259
f 259 260 257
f 261 258 257
f 257 262 261
f 261 262 263
f 263 264 261
f 265 264 263
f 263 266 265
f 265 266 267
f 267 268 265
f 269 270 271
f 271 272 269
f 273 269 272
f 272 274 273
f 273 274 275
f 275 276 273
f 277 276 275
f 275 278 277
f 277 278 279
f 279 280 277
f 281 282 283
f 283 284 281
f 285 282 281
f 281 286 285
f 285 286 287
f 287 288 285
f 289 288 287
f 287 290 289
f 289 290 291
f 291 292 289
f 293 294 295
f 295 296 293
f 297 293 296
f 296 298 297
f 297 298 299
f 299 300 297
f 301 300 299
f 299 302 301
f 301 302 303
f 303 304 301
f 305 306 307
f 308 309 310
f 311 312 313
f 314 315 316
f 317 318 319
f 320 321 322
f 323 324 325
f 326 327 328
f 329 330 331
f 331 332 329
f 333 334 335
f 335 336 333
f 337 338 339
f 339 340 337
f 341 342 343
f 343 344 341
f 345 346 347
f 347 348 345
f 349 350 351
f 351 352 349
f 353 354 355
f 355 356 353
f 357 358 359
f 359 360 357
f 361 362 363
f 363 364 361
f 365 366 367
f 367 368 365
f 369 370 371
f 371 372 369
f 373 374 375
f 375 376 373
f 377 378 379
f 380 381 382
f 383 384 385
f 385 386 383
f 387 388 389
f 389 390 387
f 391 392 393
f 393 394 391
f 395 396 397
f 397 398 395
f 399 400 401
f 402 403 404
f 405 406 407
f 408 409 410
f 411 412 413
f 414 415 416
f 417 418 419
f 419 420 417
f 421 422 423
f 423 424 421
f 425 426 427
f 427 428 425
f 429 430 431
f 431 432 429
f 433 434 435
f 435 436 433
f 437 438 439
f 439 440 437
f 441 442 443
f 443 444 441
f 445 446 447
f 447 448 445
f 449 450 451
f 451 452 449
f 453 454 455
f 455 456 453
f 457 458 459
f 459 460 457
f 461 462 463
f 463 464 461
f 465 466 467
f 467 468 465
f 469 470 471
f 471 472 469
f 473 474 475
f 475 476 473
f 477 478 479
f 479 480 477
f 481 482 483
f 484 485 486
f 487 488 489
f 490 491 492
f 493 494 495
f 496 497 498
f 499 500 501
f 502 503 504
f 505 506 507
f 507 508 505
f 509 510 511
f 511 512 509
f 513 514 515
f 515 516 513
f 517 518 519
f 519 520 517
f 521 522 523
f 523 524 521
f 525 526 527
f 527 528 525
f 529 530 531
f 531 532 529
f 533 534 535
f 535 536 533
f 537 538 539
f 539 540 537
f 541 542 543
f 543 544 541
f 545 546 547
f 547 548 545
f 549 550 551
f 551 552 549
f 553 554 555
f 555 556 553
f 557 558 559
f 559 560 557
f 561 562 563
f 563 564 561
f 565 566 567
f 567 568 565
f 569 570 571
f 572 573 574
f 575 576 577
f 578 579 580
f 581 582 583
f 584 585 586
f 587 588 589
f 589 590 587
f 591 587 590
f 590 592 591
f 591 592 593
f 593 594 591
f 595 594 593
f 593 596 595
f 595 596 597
f 597 598 595
f 599 600 601
f 601 602 599
f 603 600 599
f 599 604 603
f 603 604 605
f 605 606 603
f 607 606 605
f 605 608 607
f 607 608 609
f 609 610 607
f 611 612 613
f 613 614 611
f 615 611 614
f 614 616 615
f 615 616 617
f 617 618 615
f 619 618 617
f 617 620 619
f 619 620 621
f 621 622 619
f 623 624 625
f 625 626 623
f 627 624 623
f 623 628 627
f 627 628 629
f 629 630 627
f 631 630 629
f 629 632 631
f 631 632 633
f 633 634 631
f 635 636 637
f 638 639 640
f 641 642 643
f 644 645 646
f 647 648 649
f 650 651 652
f 653 654 655
f 656 657 658
f 659 660 661
f 661 662 659
f 663 664 665
f 665 666 663
f 667 668 669
f 669 670 667
f 671 672 673
f 673 674 671
f 675 676 677
f 678 679 680
f 681 682 683
f 684 685 686
f 687 688 689
f 690 691 692
f 693 694 695
f 696 697 698
f 699 700 701
f 701 702 699
f 703 704 705
f 705 706 703
f 707 708 709
f 709 710 707
f 711 712 713
f 713 714 711
f 715 716 717
f 717 718 715
f 719 720 721
f 721 722 719
f 723 724 725
f 725 726 723
f 727 728 729
f 729 730 727
f 731 732 733
f 733 734 731
f 735 736 737
f 737 738 735
f 739 740 741
f 741 742 739
f 743 744 745
f 745 746 743
f 747 748 749
f 750 751 752
f 753 754 755
f 756 757 758
f 759 760 761
f 762 763 764
f 765 766 767
f 768 769 770
f 771 772 773
f 773 774 771
f 775 776 777
f 777 778 775
f 779 780 781
f 781 782 779
f 783 784 785
f 785 786 783
f 787 788 789
f 790 791 792
f 793 794 795
f 796 797 798
f 798 799 796
f 800 801 802
f 803 804 805
f 805 806 803
f 807 808 809
f 810 811 812
f 812 813 810
f 814 815 816
f 817 818 819
f 819 820 817
f 821 822 823
f 824 825 826
f 827 828 829
f 829 830 827
f 831 832 833
f 833 834 831
f 835 836 837
f 837 838 835
f 839 840 841
f 841 842 839
f 843 844 845
f 845 846 843
f 847 848 849
f 849 850 847
f 851 852 853
f 853 854 851
f 855 856 857
f 857 858 855
f 859 860 861
f 862 863 864
f 865 866 867
f 867 868 865
f 869 870 871
f 871 872 869
f 873 874 875
f 875 876 873
f 877 878 879
f 879 880 877
f 881 882 883
f 883 884 881
f 885 886 887
f 887 888 885
f 889 890 891
f 891 892 889
f 893 894 895
f 895 896 893
