v 0.0121739702 0.090974398 0.0603538975
v 0.0143281277 0.0940244421 0.0794659108
v 0.027640013 0.0802375972 0.0794659108
v -0.00641990779 0.0877238512 0.044151634
v -0.00988403894 0.0722308308 0.0333254971
v -0.0172490608 0.0723901689 0.0333254971
v -0.013970525 0.0539555289 0.029523911
v -0.00410486013 0.0980760008 0.0603538975
v -0.0200285595 0.0880182385 0.044151634
v -0.0241152514 0.0697429851 0.0333254971
v -0.013970525 0.0539555289 0.029523911
v -0.0218859501 0.0984606519 0.0603538975
v -0.00329217454 0.101711161 0.0794659108
v -0.0327151008 0.08312691 0.044151634
v -0.022537848 0.1021275 0.0794659108
v -0.0294365659 0.0646922961 0.0333254933
v -0.013970525 0.0539555289 0.029523911
v -0.0384615473 0.0920697898 0.0603538975
v -0.0425482392 0.0737944618 0.0441516303
v -0.0324035138 0.0580070429 0.0333254933
v -0.013970525 0.0539555289 0.029523911
v -0.0513087735 0.0798763484 0.0603538975
v -0.0404794179 0.0952101052 0.0794659108
v -0.0480302386 0.0614417456 0.0441516303
v -0.0543851443 0.0820120722 0.0794659108
v -0.0325641967 0.0507049747 0.0333254933
v -0.013970525 0.0539555289 0.029523911
v -0.0584718361 0.0637367368 0.0603538975
v -0.0483273156 0.047949288 0.0441516303
v -0.0298942234 0.0438977629 0.0333254933
v -0.013970525 0.0539555289 0.029523911
v -0.0588598028 0.0461079925 0.0603538975
v -0.0621382371 0.0645426437 0.0794659108
v -0.043393556 0.0353712477 0.0441516303
v -0.0247999858 0.0386218019 0.0333254933
v -0.013970525 0.0539555289 0.029523911
v -0.0339809172 0.0256225076 0.0441516303
v -0.0524138026 0.0296739973 0.0603538975
v -0.0401152261 0.0169366188 0.0603538975
v -0.0625581145 0.0454614386 0.0794659108
v -0.0555812679 0.0276733637 0.0794659108
v -0.0422693826 0.0138865793 0.0794659108
v -0.0483732261 0.0353951491 0.0985778719
v -0.0357415453 0.0231291577 0.0985778719
v -0.0557670705 0.0504867882 0.0985778719
v -0.0567981862 0.0661065131 0.0985778719
v -0.0513087735 0.0798763409 0.0985778719
v -0.0369834788 0.0415399149 0.122762747
v -0.0285338107 0.0333348252 0.122762747
v -0.0419295877 0.0516351722 0.122762747
v -0.0426193699 0.0620836988 0.122762747
v -0.0389472023 0.0712947845 0.122762747
v -0.0251296926 0.0479351878 0.137728572
v -0.0210322961 0.0439565405 0.137728572
v -0.013970525 0.0539555103 0.141530156
v -0.0275280159 0.0528303795 0.137728572
v -0.013970525 0.0539555103 0.141530156
v -0.0278622527 0.0578968674 0.137728572
v -0.013970525 0.0539555103 0.141530156
v -0.0260817558 0.062363293 0.137728572
v -0.013970525 0.0539555103 0.141530156
v -0.0224573519 0.0655497164 0.137728572
v -0.013970525 0.0539555103 0.141530156
v -0.0314730667 0.0778660998 0.122762747
v -0.0175411943 0.0669710413 0.137728572
v -0.013970525 0.0539555103 0.141530156
v -0.0401351973 0.0897000059 0.0985778719
v -0.0213341061 0.0807972848 0.122762747
v -0.0249781702 0.0940818489 0.0985778719
v -0.0120811211 0.0664108396 0.137728572
v -0.013970525 0.0539555103 0.141530156
v -0.0100741629 0.0796420053 0.122762747
v -0.00814543664 0.0923548341 0.0985778719
v -0.00690896017 0.0639544502 0.137728572
v -0.013970525 0.0539555103 0.141530156
v 0.000592761731 0.0745761916 0.122762747
v 0.00780049665 0.0847818553 0.0985778719
v -0.00281156274 0.0599757917 0.137728572
v -0.013970525 0.0539555103 0.141530156
v 0.00904222298 0.0663710535 0.122762747
v 0.0204320718 0.0725158453 0.0985778719
v -0.000413239206 0.0550806038 0.137728572
v -0.013970525 0.0539555103 0.141530156
v 0.0139883338 0.0562757961 0.122762747
v 0.0278259162 0.0574241467 0.0985778719
v 0.0346168615 0.0624495074 0.0794659108
v -7.90035483e-05 0.0500141233 0.137728572
v -0.013970525 0.0539555103 0.141530156
v 0.0146781132 0.0458272845 0.122762747
v 0.0288569313 0.0418044329 0.0985778719
v 0.0341969803 0.043368306 0.0794659108
v -0.00185950065 0.0455476977 0.137728572
v -0.013970525 0.0539555103 0.141530156
v 0.0110061532 0.0366162024 0.122762747
v 0.0233675186 0.0280346163 0.0985778719
v 0.0264440924 0.0258989241 0.0794659108
v 0.0121941464 0.0182109922 0.0985778719
v 0.00353181199 0.0300448928 0.122762747
v -0.00660714973 0.0271137618 0.122762747
v -0.00548390392 0.0423612744 0.137728572
v -0.013970525 0.0539555103 0.141530156
v -0.0104000606 0.0409399532 0.137728572
v -0.013970525 0.0539555103 0.141530156
v -0.0158601347 0.0415001363 0.137728572
v -0.013970525 0.0539555103 0.141530156
v 0.0786752328 -0.104561463 0.0608605556
v 0.0770880505 -0.107936054 0.0799725726
v 0.0615636446 -0.0966504663 0.0799725726
v 0.0964171067 -0.0981591791 0.0446582399
v 0.0971152186 -0.0823050886 0.0338321552
v 0.104396351 -0.0811940059 0.0338321552
v 0.0979388207 -0.0636038929 0.0300305709
v 0.095950596 -0.108752556 0.0608605556
v 0.109870732 -0.0961061791 0.0446582399
v 0.110694326 -0.0774049908 0.0338321552
v 0.0979388207 -0.0636038929 0.0300305709
v 0.113528691 -0.106070168 0.0608605556
v 0.0957868248 -0.112472452 0.0799725726
v 0.121507935 -0.0891049877 0.0446582399
v 0.114813134 -0.10956908 0.0799725726
v 0.115050405 -0.0715148747 0.0338321552
v 0.0979388207 -0.0636038929 0.0300305709
v 0.128733277 -0.0969226658 0.0608605556
v 0.129556879 -0.078221485 0.0446582399
v 0.116801359 -0.0644203871 0.0338321552
v 0.0979388207 -0.0636038929 0.0300305709
v 0.139249817 -0.0827027038 0.0608605556
v 0.131270558 -0.0996678919 0.0799725726
v 0.132792279 -0.0651125833 0.0446582399
v 0.14265351 -0.0842762887 0.0799725726
v 0.115680687 -0.0572015941 0.0338321552
v 0.0979388207 -0.0636038929 0.0300305709
v 0.143477008 -0.0655750856 0.0608605593
v 0.130721495 -0.0517739952 0.0446582399
v 0.111858957 -0.0509574935 0.0338321552
v 0.0979388207 -0.0636038929 0.0300305709
v 0.140771523 -0.0481473915 0.0608605593
v 0.147229061 -0.0657375082 0.0799725726
v 0.123659931 -0.0402364098 0.0446582399
v 0.105918065 -0.0466387123 0.0338321552
v 0.0979388207 -0.0636038929 0.0300305709
v 0.112682551 -0.0322563238 0.0446582399
v 0.131545097 -0.0330727994 0.0608605593
v 0.117202401 -0.0226463359 0.0608605593
v 0.14430061 -0.0468738899 0.0799725726
v 0.134313986 -0.030557273 0.0799725726
v 0.118789583 -0.0192717463 0.0799725726
v 0.128567964 -0.0394026749 0.0990845338
v 0.113979965 -0.0294977278 0.0990845338
v 0.138492912 -0.052992072 0.0990845338
v 0.142243937 -0.0681970194 0.0990845338
v 0.139249817 -0.0827027038 0.0990845338
v 0.11842756 -0.0474149548 0.123269357
v 0.108669251 -0.0407892317 0.123269357
v 0.125066668 -0.0565053187 0.123269357
v 0.127575859 -0.0666763708 0.123269357
v 0.125573009 -0.0763796791 0.123269357
v 0.10787376 -0.0557538904 0.138235196
v 0.103141963 -0.0525410809 0.138235196
v 0.0979388207 -0.0636038929 0.142036811
v 0.111093104 -0.0601617992 0.138235196
v 0.0979388207 -0.0636038929 0.142036811
v 0.112309821 -0.0650937334 0.138235196
v 0.0979388207 -0.0636038929 0.142036811
v 0.111338608 -0.069798857 0.138235196
v 0.0979388207 -0.0636038929 0.142036811
v 0.108327404 -0.0735608563 0.138235196
v 0.0979388207 -0.0636038929 0.142036811
v 0.119363151 -0.0841379762 0.123269357
v 0.103734672 -0.0758069977 0.138235196
v 0.0979388207 -0.0636038929 0.142036811
v 0.129966453 -0.0943007693 0.0990845338
v 0.109891526 -0.0887701437 0.123269357
v 0.115807302 -0.10122551 0.0990845338
v 0.0982595682 -0.0761953145 0.138235196
v 0.0979388207 -0.0636038929 0.142036811
v 0.0986002907 -0.0895709768 0.123269357
v 0.0989277288 -0.102422692 0.0990845338
v 0.0927356705 -0.0746667087 0.138235196
v 0.0979388207 -0.0636038929 0.142036811
v 0.0872083828 -0.0864185467 0.123269357
v 0.0818976685 -0.0977100655 0.0990845338
v 0.088003777 -0.0714538917 0.138235196
v 0.0979388207 -0.0636038929 0.142036811
v 0.0774500817 -0.079792805 0.123269357
v 0.0673096776 -0.0878050774 0.0990845338
v 0.0847845301 -0.0670459792 0.138235196
v 0.0979388207 -0.0636038929 0.142036811
v 0.0708109662 -0.070702441 0.123269357
v 0.0573847219 -0.0742156804 0.0990845338
v 0.0515770279 -0.0803338438 0.0799725726
v 0.0835678205 -0.0621140413 0.138235196
v 0.0979388207 -0.0636038929 0.142036811
v 0.068301782 -0.060531389 0.123269357
v 0.0536338091 -0.0590107404 0.0990845338
v 0.0486485809 -0.0614702404 0.0799725726
v 0.084539026 -0.0574089251 0.138235196
v 0.0979388207 -0.0636038929 0.142036811
v 0.0703046247 -0.050828103 0.123269357
v 0.0566278249 -0.0445050597 0.0990845338
v 0.0532241203 -0.042931471 0.0799725726
v 0.0659111813 -0.0329070091 0.0990845338
v 0.0765145943 -0.0430698097 0.123269357
v 0.0859861076 -0.0384376459 0.123269357
v 0.0875502378 -0.053646937 0.138235196
v 0.0979388207 -0.0636038929 0.142036811
v 0.0921430662 -0.0514007919 0.138235196
v 0.0979388207 -0.0636038929 0.142036811
v 0.0976180658 -0.0510124676 0.138235196
v 0.0979388207 -0.0636038929 0.142036811
v 0.00280168164 -0.136813551 0.141159266
v -0.00590409152 -0.128182292 0.137357682
v -0.00924222823 -0.132805884 0.137357682
v -0.0220361352 -0.128548592 0.12239179
v -0.0151520325 -0.119013421 0.12239179
v -0.0343290493 -0.12445806 0.0982069671
v -0.0240377393 -0.110203721 0.0982069671
v -0.0251389574 -0.139342025 0.12239179
v -0.0427799486 -0.118094571 0.079095006
v -0.0320849232 -0.102225348 0.079095006
v -0.0389674827 -0.14059341 0.0982069671
v -0.0465354957 -0.136813566 0.079095006
v -0.0393102616 -0.119519465 0.059983097
v -0.0294293612 -0.10485822 0.0599831007
v -0.0427799486 -0.136813566 0.059983097
v -0.0294293612 -0.12357723 0.043780677
v -0.0218669064 -0.112356007 0.043780677
v -0.0320849232 -0.136813566 0.043780677
v -0.0146416724 -0.129650101 0.0329546966
v -0.0105489073 -0.123577222 0.0329546966
v 0.00280168164 -0.136813551 0.029153008
v -0.0160788763 -0.136813551 0.0329546966
v 0.00280168164 -0.136813551 0.029153008
v -0.0146416724 -0.143977016 0.0329546966
v 0.00280168164 -0.136813551 0.029153008
v -0.0294293612 -0.150049895 0.0437806733
v -0.0105489073 -0.15004991 0.0329546966
v 0.00280168164 -0.136813551 0.029153008
v -0.0393102616 -0.154107675 0.059983097
v -0.0218669064 -0.161271125 0.0437806733
v -0.00442355219 -0.154107675 0.0329546928
v 0.00280168164 -0.136813551 0.029153008
v -0.0294293612 -0.168768898 0.059983097
v -0.0427799486 -0.155532554 0.079095006
v -0.0105489073 -0.168768898 0.0437806733
v -0.0372466892 -0.156153277 0.0982070193
v -0.0320849232 -0.171401769 0.079095006
v -0.0146416724 -0.178565204 0.059983097
v 0.00280168164 -0.155532584 0.0329546928
v 0.00280168164 -0.136813551 0.029153008
v 0.00280168164 -0.171401769 0.0437806733
v 0.0100269159 -0.15410769 0.0329546928
v 0.00280168164 -0.136813551 0.029153008
v 0.00280168164 -0.182005227 0.059983097
v -0.0160788763 -0.182005242 0.079095006
v 0.0161521677 -0.168768927 0.0437806733
v 0.00280168164 -0.185728684 0.079095006
v 0.0161522701 -0.15004991 0.0329546966
v 0.00280168164 -0.136813551 0.029153008
v 0.0202450361 -0.178565219 0.059983097
v 0.0274702702 -0.161271125 0.0437806733
v 0.0202450361 -0.143977016 0.0329546966
v 0.00280168164 -0.136813551 0.029153008
v 0.0350327231 -0.168768898 0.059983097
v 0.0216821358 -0.182005242 0.079095006
v 0.0350327231 -0.15004991 0.0437806733
v -0.0782613233 -0.058725398 0.142036781
v -0.0889236182 -0.0648286268 0.138235196
v -0.0852830485 -0.0692220926 0.138235196
v -0.0927420557 -0.0803725645 0.123269357
v -0.100250058 -0.0713119954 0.123269357
v -0.0999089256 -0.0910862461 0.0990845338
v -0.111132734 -0.077541396 0.0990845338
v -0.0830295607 -0.0861375406 0.123269357
v -0.108295903 -0.0975323692 0.0799725726
v -0.120988518 -0.0831829533 0.0799725726
v -0.0853893831 -0.0997044519 0.0990845338
v -0.0910307318 -0.10597378 0.0799725726
v -0.106009677 -0.094578363 0.0608605556
v -0.117736131 -0.0813212395 0.0608605556
v -0.0900586993 -0.102377199 0.0608605556
v -0.0994989276 -0.0861660689 0.0446582399
v -0.108474083 -0.0760194957 0.0446582399
v -0.0872906297 -0.092135042 0.0446582399
v -0.0897550359 -0.0735761821 0.0338321552
v -0.0946123153 -0.0680849031 0.0338321552
v -0.0782613233 -0.0587253869 0.0300305728
v -0.0831479356 -0.0768065676 0.0338321552
v -0.0782613233 -0.0587253869 0.0300305728
v -0.0757969171 -0.0772842467 0.0338321552
v -0.0782613233 -0.0587253869 0.0300305728
v -0.0737077072 -0.0930176973 0.0446582399
v -0.0688210949 -0.0749365315 0.0338321552
v -0.0782613233 -0.0587253869 0.0300305728
v -0.0723116845 -0.103530437 0.0608605556
v -0.0608179681 -0.0886796638 0.0446582399
v -0.063282378 -0.0701208115 0.0338321552
v -0.0782613233 -0.0587253869 0.0300305728
v -0.0554705076 -0.0978625268 0.0608605556
v -0.0718214959 -0.107222043 0.0799725726
v -0.0505838953 -0.0797813758 0.0446582399
v -0.069784686 -0.102083974 0.0990845338
v -0.053592734 -0.101087138 0.0799725726
v -0.0420990214 -0.0862363502 0.0608605556
v -0.0600241199 -0.0635702312 0.0338321552
v -0.0782613233 -0.0587253869 0.0300305728
v -0.0445634313 -0.0676774904 0.0446582399
v -0.0595423765 -0.0562820658 0.0338321552
v -0.0782613233 -0.0587253869 0.0300305728
v -0.0342329033 -0.0704218671 0.0608605593
v -0.0391195193 -0.0885030329 0.0799725726
v -0.0436731316 -0.0542107224 0.0446582399
v -0.0306053106 -0.0713855699 0.0799725726
v -0.061910335 -0.0493658856 0.0338321552
v -0.0782613233 -0.0587253869 0.0300305728
v -0.0330697186 -0.0528266951 0.0608605593
v -0.0480485633 -0.0414312817 0.0446582399
v -0.0667676106 -0.043874599 0.0338321552
v -0.0782613233 -0.0587253869 0.0300305728
v -0.0387865193 -0.0361295529 0.0608605593
v -0.029346291 -0.05234069 0.0799725726
v -0.057023719 -0.0312847085 0.0446582399
v -0.0355341285 -0.0342678316 0.0799725726
v -0.0733748153 -0.0406442173 0.0338321552
v -0.0782613233 -0.0587253869 0.0300305728
v -0.0505129695 -0.0228724163 0.0608605593
v -0.0692320168 -0.0253157299 0.0446582399
v -0.0807257295 -0.040166527 0.0338321552
v -0.0782613233 -0.0587253869 0.0300305728
v -0.0664639473 -0.0150735751 0.0608605593
v -0.0482267439 -0.0199184008 0.0799725726
v -0.0828149393 -0.0244330838 0.0446582399
v -0.0654919147 -0.0114770131 0.0799725726
v -0.0877015516 -0.0425142571 0.0338321552
v -0.0782613233 -0.0587253869 0.0300305728
v -0.0842109621 -0.0139203267 0.0608605593
v -0.0957046747 -0.028771136 0.0446582399
v -0.0932402685 -0.0473299921 0.0338321552
v -0.0782613233 -0.0587253869 0.0300305728
v -0.101052143 -0.01958826 0.0608605593
v -0.0847011507 -0.0102287512 0.0799725726
v -0.105938755 -0.0376694463 0.0446582399
v -0.102929913 -0.0163636673 0.0799725726
v -0.0964985266 -0.0538805686 0.0338321552
v -0.0782613233 -0.0587253869 0.0300305728
v -0.114423625 -0.03121447 0.0608605593
v -0.111959219 -0.0497733355 0.0446582399
v -0.0969802737 -0.0611687265 0.0338321552
v -0.0782613233 -0.0587253869 0.0300305728
v -0.12228974 -0.04702897 0.0608605593
v -0.117403127 -0.0289477836 0.0799725726
v -0.112849519 -0.063240096 0.0446582399
v -0.0946123153 -0.0680849031 0.0338321552
v -0.0782613233 -0.0587253869 0.0300305728
v -0.108474083 -0.0760194957 0.0446582399
v -0.123452924 -0.0646241382 0.0608605593
v -0.117736131 -0.0813212395 0.0608605556
v -0.12591733 -0.0460652746 0.0799725726
v -0.127176359 -0.0651101544 0.0799725726
v -0.120988518 -0.0831829533 0.0799725726
v -0.117352277 -0.0611320212 0.0990845338
v -0.111132734 -0.077541396 0.0990845338
v -0.117620528 -0.0443562157 0.0990845338
v -0.111896627 -0.0297679976 0.0990845338
v -0.101052143 -0.0195882618 0.0990845338
v -0.104410455 -0.0603352636 0.123269357
v -0.100250058 -0.0713119954 0.123269357
v -0.104589976 -0.0491134152 0.123269357
v -0.100761034 -0.0393548943 0.123269357
v -0.0935067758 -0.0325453691 0.123269357
v -0.0909409672 -0.0595060214 0.138235196
v -0.0889236182 -0.0648286268 0.138235196
v -0.0782613233 -0.058725398 0.142036781
v -0.091028057 -0.054064557 0.138235196
v -0.0782613233 -0.058725398 0.142036781
v -0.0891713873 -0.049332656 0.138235196
v -0.0782613233 -0.058725398 0.142036781
v -0.0856538266 -0.0460307226 0.138235196
v -0.0782613233 -0.058725398 0.142036781
v -0.0810108706 -0.0446614362 0.138235196
v -0.0782613233 -0.058725398 0.142036781
v -0.0839315951 -0.0297215115 0.123269357
v -0.0759492591 -0.0454332605 0.138235196
v -0.0782613233 -0.058725398 0.142036781
v -0.0867379606 -0.0153668225 0.0990845338
v -0.0734930858 -0.0313132443 0.123269357
v -0.0711332634 -0.0177463256 0.0990845338
v -0.0712395981 -0.0482287034 0.138235196
v -0.0782613233 -0.058725398 0.142036781
v -0.0637805909 -0.0370782278 0.123269357
v -0.0566137247 -0.0263645388 0.0990845338
v -0.0675990283 -0.0526221618 0.138235196
v -0.0782613233 -0.058725398 0.142036781
v -0.0562725924 -0.0461387932 0.123269357
v -0.045389913 -0.0399093963 0.0990845338
v -0.0655816793 -0.0579447895 0.138235196
v -0.0782613233 -0.058725398 0.142036781
v -0.0521121956 -0.0571155623 0.123269357
v -0.0391703695 -0.0563188232 0.0990845338
v -0.0654945895 -0.063386254 0.138235196
v -0.0782613233 -0.058725398 0.142036781
v -0.0519327782 -0.0683374107 0.123269357
v -0.0389022194 -0.0730946213 0.0990845338
v -0.0673512593 -0.0681181476 0.138235196
v -0.0782613233 -0.058725398 0.142036781
v -0.055761613 -0.0780959204 0.123269357
v -0.0446260162 -0.0876828358 0.0990845338
v -0.07086882 -0.0714200735 0.138235196
v -0.0782613233 -0.058725398 0.142036781
v -0.0630158782 -0.0849054232 0.123269357
v -0.0554705076 -0.0978625417 0.0990845338
v -0.0725910515 -0.0877292678 0.123269357
v -0.0755117834 -0.0727893561 0.138235196
v -0.0782613233 -0.058725398 0.142036781
v -0.0805733874 -0.0720175281 0.138235196
v -0.0782613233 -0.058725398 0.142036781
v -0.0782613233 -0.058725398 0.142036781
v 0.0376882851 -0.171401769 0.079095006
v 0.0216822382 -0.136813551 0.0329546966
v 0.00280168164 -0.136813551 0.029153008
v 0.0449136235 -0.15410766 0.059983097
v 0.0376882851 -0.136813551 0.043780677
v 0.0202450361 -0.129650101 0.0329546966
v 0.00280168164 -0.136813551 0.029153008
v 0.0483833142 -0.136813551 0.059983097
v 0.0483833142 -0.155532554 0.079095006
v 0.0350327231 -0.123577207 0.043780677
v 0.0521388575 -0.136813566 0.079095006
v 0.0161521677 -0.123577215 0.0329546966
v 0.00280168164 -0.136813551 0.029153008
v 0.0449136235 -0.11951945 0.059983097
v 0.0274702702 -0.112355992 0.043780677
v 0.0100269159 -0.119519442 0.0329546966
v 0.00280168164 -0.136813551 0.029153008
v 0.0350327231 -0.104858197 0.0599831007
v 0.0483833142 -0.118094549 0.079095006
v 0.0161521677 -0.104858212 0.043780677
v 0.0376882851 -0.102225333 0.079095006
v 0.00280168164 -0.118094549 0.0329546966
v 0.00280168164 -0.136813551 0.029153008
v 0.0202449337 -0.0950618908 0.0599831007
v 0.00280168164 -0.102225341 0.043780677
v -0.00442355219 -0.119519457 0.0329546966
v 0.00280168164 -0.136813551 0.029153008
v 0.00280168164 -0.0916218832 0.0599831007
v 0.0216821358 -0.0916218758 0.079095006
v -0.0105489073 -0.104858242 0.043780677
v -0.0105489073 -0.123577222 0.0329546966
v 0.00280168164 -0.136813551 0.029153008
v -0.0218669064 -0.112356007 0.043780677
v -0.0146416724 -0.095061928 0.0599831007
v -0.0294293612 -0.10485822 0.0599831007
v 0.00280168164 -0.0878984407 0.0790950134
v -0.0160788763 -0.091621913 0.079095006
v -0.0320849232 -0.102225348 0.079095006
v -0.00966046005 -0.10000053 0.0982069746
v -0.0240377393 -0.110203721 0.0982069671
v 0.00661404757 -0.0954017341 0.0982069746
v 0.0223082993 -0.0971075222 0.0982069746
v 0.0350327231 -0.104858205 0.0982069671
v -0.00553465169 -0.112188183 0.12239179
v -0.0151520325 -0.119013421 0.12239179
v 0.0053519397 -0.10911192 0.12239179
v 0.0158502534 -0.110252969 0.12239179
v 0.0243619923 -0.115437642 0.12239179
v -0.00124064484 -0.124872737 0.137357682
v -0.00590409152 -0.128182292 0.137357682
v 0.00280168164 -0.136813551 0.141159266
v 0.00403826078 -0.123381056 0.137357682
v 0.00280168164 -0.136813551 0.141159266
v 0.00912889559 -0.123934351 0.137357682
v 0.00280168164 -0.136813551 0.141159266
v 0.0132562472 -0.126448393 0.137357682
v 0.00280168164 -0.136813551 0.141159266
v 0.0157919917 -0.130540445 0.137357637
v 0.00280168164 -0.136813551 0.141159266
v 0.0295913853 -0.123876601 0.12239179
v 0.0163501147 -0.135587528 0.137357637
v 0.00280168164 -0.136813551 0.141159266
v 0.042850256 -0.117473818 0.0982069671
v 0.0307423212 -0.134285107 0.12239179
v 0.0445708446 -0.133033708 0.0982069671
v 0.0148454877 -0.140821233 0.137357637
v 0.00280168164 -0.136813551 0.141159266
v 0.0276394971 -0.145078525 0.12239179
v 0.0399324112 -0.149169043 0.0982070193
v 0.0115074553 -0.14544484 0.137357637
v 0.00280168164 -0.136813551 0.141159266
v 0.0207553953 -0.154613718 0.12239179
v 0.029641103 -0.163423404 0.0982070193
v 0.00684390496 -0.148754418 0.137357637
v 0.00280168164 -0.136813551 0.141159266
v 0.011137912 -0.161438957 0.12239179
v 0.0152638229 -0.173626631 0.0982070193
v 0.00156510237 -0.150246084 0.137357637
v 0.00280168164 -0.136813551 0.141159266
v 0.000251423451 -0.164515227 0.12239179
v -0.00101078709 -0.178225413 0.0982070193
v -0.00352553208 -0.149692804 0.137357637
v 0.00280168164 -0.136813551 0.141159266
v -0.0102467872 -0.163374141 0.12239179
v -0.0167049374 -0.176519588 0.0982070193
v -0.00765288435 -0.147178724 0.137357682
v 0.00280168164 -0.136813551 0.141159266
v -0.0187586285 -0.158189461 0.12239179
v -0.0294293612 -0.168768898 0.0982070193
v -0.0239880215 -0.149750531 0.12239179
v -0.010188628 -0.143086687 0.137357682
v 0.00280168164 -0.136813551 0.141159266
v -0.0107467519 -0.138039619 0.137357682
v 0.00280168164 -0.136813551 0.141159266
v 0.00280168164 -0.136813551 0.141159266
v 0.0979388207 -0.0636038929 0.142036811
v 0.103141963 -0.0525410809 0.138235196
v 0.0972773433 -0.0376368128 0.123269357
v 0.108669251 -0.0407892317 0.123269357
v 0.0969500095 -0.0247850902 0.0990845338
v 0.113979965 -0.0294977278 0.0990845338
v 0.100090913 -0.0147353355 0.0799725726
v 0.118789583 -0.0192717463 0.0799725726
v 0.080070436 -0.0259822868 0.0990845338
v 0.0810644999 -0.0176387206 0.0799725726
v 0.099927038 -0.0184552316 0.0608605593
v 0.117202401 -0.0226463359 0.0608605593
v 0.0823489428 -0.0211376138 0.0608605593
v 0.0994605348 -0.0290486142 0.0446582399
v 0.112682551 -0.0322563238 0.0446582399
v 0.0860069022 -0.0311016086 0.0446582399
v 0.0987624153 -0.0449026972 0.0338321552
v 0.105918065 -0.0466387123 0.0338321552
v 0.0979388207 -0.0636038929 0.0300305709
v 0.0914812833 -0.0460137762 0.0338321552
v 0.0979388207 -0.0636038929 0.0300305709
v 0.0851833075 -0.0498027913 0.0338321552
v 0.0979388207 -0.0636038929 0.0300305709
v 0.0743696988 -0.0381027833 0.0446582399
v 0.0808272287 -0.0556928962 0.0338321552
v 0.0979388207 -0.0636038929 0.0300305709
v 0.0671443641 -0.0302850958 0.0608605593
v 0.066320762 -0.0489862785 0.0446582399
v 0.0790762752 -0.0627873763 0.0338321552
v 0.0979388207 -0.0636038929 0.0300305709
v 0.0566278249 -0.0445050634 0.0608605593
v 0.0646070689 -0.0275398921 0.0799725726
v 0.0630853549 -0.062095169 0.0446582399
v 0.0524006262 -0.0616326556 0.0608605593
v 0.0801969469 -0.0700061694 0.0338321552
v 0.0979388207 -0.0636038929 0.0300305709
v 0.0651561394 -0.0754337534 0.0446582399
v 0.0840186775 -0.07625027 0.0338321552
v 0.0979388207 -0.0636038929 0.0300305709
v 0.0551061109 -0.0790603459 0.0608605593
v 0.0722177029 -0.08697135 0.0446582399
v 0.0899595693 -0.080569081 0.0338321552
v 0.0979388207 -0.0636038929 0.0300305709
v 0.0643325374 -0.0941349417 0.0608605556
v 0.0831950828 -0.0949514583 0.0446582399
v 0.0979388207 -0.0636038929 0.0300305709
v -0.013970525 0.0539555103 0.141530156
v -0.0210322961 0.0439565405 0.137728572
v -0.017867092 0.0282690115 0.122762747
v -0.0285338107 0.0333348252 0.122762747
v -0.0197958183 0.015556179 0.0985778719
v -0.0357415453 0.0231291577 0.0985778719
v -0.0246490818 0.00619986607 0.0794659108
v -0.0422693826 0.0138865793 0.0794659108
v -0.00296287984 0.0138291465 0.0985778719
v -0.00540320156 0.00578349875 0.0794659108
v -0.0238363948 0.00983503181 0.0603538938
v -0.0401152261 0.0169366188 0.0603538975
v -0.00605540862 0.00945038162 0.0603538938
v -0.0215213485 0.0201871861 0.0441516303
v -0.0339809172 0.0256225076 0.0441516303
v -0.00791249052 0.0198927671 0.0441516303
v -0.0180572178 0.0356802084 0.0333254933
v -0.0247999858 0.0386218019 0.0333254933
v -0.013970525 0.0539555289 0.029523911
v -0.0106919892 0.035520874 0.0333254933
v -0.013970525 0.0539555289 0.029523911
v -0.00382600445 0.0381680578 0.0333254933
v -0.013970525 0.0539555289 0.029523911
v 0.00477405265 0.0247841161 0.0441516303
v 0.00149551709 0.0432187319 0.0333254933
v -0.013970525 0.0539555289 0.029523911
v 0.010520394 0.0158412233 0.0603538975
v 0.0146069834 0.0341165178 0.0441516303
v 0.00446246332 0.0499039739 0.0333254933
v -0.013970525 0.0539555289 0.029523911
v 0.0233675186 0.0280346051 0.0603538975
v 0.0125382636 0.012700893 0.0794659108
v 0.0200889837 0.0464692451 0.0441516303
v 0.0305305794 0.0441742055 0.0603538975
v 0.00462294184 0.0572060421 0.0333254933
v -0.013970525 0.0539555289 0.029523911
v 0.0203861613 0.0599616729 0.0441516303
v 0.00195317389 0.0640132278 0.0333254933
v -0.013970525 0.0539555289 0.029523911
v 0.0309184454 0.061802946 0.0603538975
v 0.0154524036 0.0725397393 0.0441516303
v -0.00314126909 0.0692892149 0.0333254971
v -0.013970525 0.0539555289 0.029523911
v 0.0244726483 0.0782370195 0.0603538975
v 0.00603966042 0.0822885484 0.044151634
v -0.013970525 0.0539555289 0.029523911
vt 0.49999997 0.625
vt 0.49999997 0.5
vt 0.43749997 0.5
vt 0.56249994 0.75
vt 0.56249994 0.87499994
vt 0.62499994 0.87499994
vt 0.56249994 0.99999994
vt 0.56249994 0.625
vt 0.62499994 0.75
vt 0.68749994 0.87499994
vt 0.62499994 0.99999994
vt 0.62499994 0.625
vt 0.56249994 0.5
vt 0.68749994 0.75
vt 0.62499994 0.5
vt 0.75 0.87499994
vt 0.68749994 0.99999994
vt 0.68749994 0.625
vt 0.75 0.75
vt 0.8125 0.87499994
vt 0.75 0.99999994
vt 0.75 0.625
vt 0.68749994 0.5
vt 0.8125 0.75
vt 0.75 0.5
vt 0.875 0.87499994
vt 0.8125 0.99999994
vt 0.8125 0.625
vt 0.875 0.75
vt 0.93750006 0.87499994
vt 0.875 0.99999994
vt 0.875 0.625
vt 0.8125 0.5
vt 0.93750006 0.75
vt 1.00000012 0.87499994
vt 0.93750006 0.99999994
vt 1.00000012 0.75
vt 0.93750006 0.625
vt 1.00000012 0.625
vt 0.875 0.5
vt 0.93750006 0.5
vt 1.00000012 0.5
vt 0.93750006 0.375
vt 1.00000012 0.375
vt 0.875 0.375
vt 0.8125 0.375
vt 0.75 0.375
vt 0.93750006 0.25
vt 1.00000012 0.25
vt 0.875 0.25
vt 0.8125 0.25
vt 0.75 0.25
vt 0.93750006 0.125
vt 1.00000012 0.125
vt 0.93750006 0
vt 0.875 0.125
vt 0.875 0
vt 0.8125 0.125
vt 0.8125 0
vt 0.75 0.125
vt 0.75 0
vt 0.68749994 0.125
vt 0.68749994 0
vt 0.68749994 0.25
vt 0.62499994 0.125
vt 0.62499994 0
vt 0.68749994 0.375
vt 0.62499994 0.25
vt 0.62499994 0.375
vt 0.56249994 0.125
vt 0.56249994 0
vt 0.56249994 0.25
vt 0.56249994 0.375
vt 0.49999997 0.125
vt 0.49999997 0
vt 0.49999997 0.25
vt 0.49999997 0.375
vt 0.43749997 0.125
vt 0.43749997 0
vt 0.43749997 0.25
vt 0.43749997 0.375
vt 0.375 0.125
vt 0.375 0
vt 0.375 0.25
vt 0.375 0.375
vt 0.375 0.5
vt 0.3125 0.125
vt 0.3125 0
vt 0.3125 0.25
vt 0.3125 0.375
vt 0.3125 0.5
vt 0.25 0.125
vt 0.25 0
vt 0.25 0.25
vt 0.25 0.375
vt 0.25 0.5
vt 0.1875 0.375
vt 0.1875 0.25
vt 0.125 0.25
vt 0.1875 0.125
vt 0.1875 0
vt 0.125 0.125
vt 0.125 0
vt 0.0625 0.125
vt 0.0625 0
vt 0.49999997 0.625
vt 0.49999997 0.5
vt 0.43749997 0.5
vt 0.56249994 0.75
vt 0.56249994 0.87499994
vt 0.62499994 0.87499994
vt 0.56249994 0.99999994
vt 0.56249994 0.625
vt 0.62499994 0.75
vt 0.68749994 0.87499994
vt 0.62499994 0.99999994
vt 0.62499994 0.625
vt 0.56249994 0.5
vt 0.68749994 0.75
vt 0.62499994 0.5
vt 0.75 0.87499994
vt 0.68749994 0.99999994
vt 0.68749994 0.625
vt 0.75 0.75
vt 0.8125 0.87499994
vt 0.75 0.99999994
vt 0.75 0.625
vt 0.68749994 0.5
vt 0.8125 0.75
vt 0.75 0.5
vt 0.875 0.87499994
vt 0.8125 0.99999994
vt 0.8125 0.625
vt 0.875 0.75
vt 0.93750006 0.87499994
vt 0.875 0.99999994
vt 0.875 0.625
vt 0.8125 0.5
vt 0.93750006 0.75
vt 1.00000012 0.87499994
vt 0.93750006 0.99999994
vt 1.00000012 0.75
vt 0.93750006 0.625
vt 1.00000012 0.625
vt 0.875 0.5
vt 0.93750006 0.5
vt 1.00000012 0.5
vt 0.93750006 0.375
vt 1.00000012 0.375
vt 0.875 0.375
vt 0.8125 0.375
vt 0.75 0.375
vt 0.93750006 0.25
vt 1.00000012 0.25
vt 0.875 0.25
vt 0.8125 0.25
vt 0.75 0.25
vt 0.93750006 0.125
vt 1.00000012 0.125
vt 0.93750006 0
vt 0.875 0.125
vt 0.875 0
vt 0.8125 0.125
vt 0.8125 0
vt 0.75 0.125
vt 0.75 0
vt 0.68749994 0.125
vt 0.68749994 0
vt 0.68749994 0.25
vt 0.62499994 0.125
vt 0.62499994 0
vt 0.68749994 0.375
vt 0.62499994 0.25
vt 0.62499994 0.375
vt 0.56249994 0.125
vt 0.56249994 0
vt 0.56249994 0.25
vt 0.56249994 0.375
vt 0.49999997 0.125
vt 0.49999997 0
vt 0.49999997 0.25
vt 0.49999997 0.375
vt 0.43749997 0.125
vt 0.43749997 0
vt 0.43749997 0.25
vt 0.43749997 0.375
vt 0.375 0.125
vt 0.375 0
vt 0.375 0.25
vt 0.375 0.375
vt 0.375 0.5
vt 0.3125 0.125
vt 0.3125 0
vt 0.3125 0.25
vt 0.3125 0.375
vt 0.3125 0.5
vt 0.25 0.125
vt 0.25 0
vt 0.25 0.25
vt 0.25 0.375
vt 0.25 0.5
vt 0.1875 0.375
vt 0.1875 0.25
vt 0.125 0.25
vt 0.1875 0.125
vt 0.1875 0
vt 0.125 0.125
vt 0.125 0
vt 0.0625 0.125
vt 0.0625 0
vt 0 0
vt 0 0.125
vt 0.0625 0.125
vt 0.0625 0.25
vt 0 0.25
vt 0.0625 0.375
vt 0 0.375
vt 0.125 0.25
vt 0.0625 0.5
vt 0 0.5
vt 0.125 0.375
vt 0.125 0.5
vt 0.0625 0.625
vt 0 0.625
vt 0.125 0.625
vt 0.0625 0.75
vt 0 0.75
vt 0.125 0.75
vt 0.0625 0.87499994
vt 0 0.87499994
vt 0 0.99999994
vt 0.125 0.87499994
vt 0.0625 0.99999994
vt 0.1875 0.87499994
vt 0.125 0.99999994
vt 0.1875 0.75
vt 0.25 0.87499994
vt 0.1875 0.99999994
vt 0.1875 0.625
vt 0.25 0.75
vt 0.3125 0.87499994
vt 0.25 0.99999994
vt 0.25 0.625
vt 0.1875 0.5
vt 0.3125 0.75
vt 0.1875 0.375
vt 0.25 0.5
vt 0.3125 0.625
vt 0.375 0.87499994
vt 0.3125 0.99999994
vt 0.375 0.75
vt 0.43749997 0.87499994
vt 0.375 0.99999994
vt 0.375 0.625
vt 0.3125 0.5
vt 0.43749997 0.75
vt 0.375 0.5
vt 0.49999997 0.87499994
vt 0.43749997 0.99999994
vt 0.43749997 0.625
vt 0.49999997 0.75
vt 0.56249994 0.87499994
vt 0.49999997 0.99999994
vt 0.49999997 0.625
vt 0.43749997 0.5
vt 0.56249994 0.75
vt 0 0
vt 0 0.125
vt 0.0625 0.125
vt 0.0625 0.25
vt 0 0.25
vt 0.0625 0.375
vt 0 0.375
vt 0.125 0.25
vt 0.0625 0.5
vt 0 0.5
vt 0.125 0.375
vt 0.125 0.5
vt 0.0625 0.625
vt 0 0.625
vt 0.125 0.625
vt 0.0625 0.75
vt 0 0.75
vt 0.125 0.75
vt 0.0625 0.87499994
vt 0 0.87499994
vt 0 0.99999994
vt 0.125 0.87499994
vt 0.0625 0.99999994
vt 0.1875 0.87499994
vt 0.125 0.99999994
vt 0.1875 0.75
vt 0.25 0.87499994
vt 0.1875 0.99999994
vt 0.1875 0.625
vt 0.25 0.75
vt 0.3125 0.87499994
vt 0.25 0.99999994
vt 0.25 0.625
vt 0.1875 0.5
vt 0.3125 0.75
vt 0.1875 0.375
vt 0.25 0.5
vt 0.3125 0.625
vt 0.375 0.87499994
vt 0.3125 0.99999994
vt 0.375 0.75
vt 0.43749997 0.87499994
vt 0.375 0.99999994
vt 0.375 0.625
vt 0.3125 0.5
vt 0.43749997 0.75
vt 0.375 0.5
vt 0.49999997 0.87499994
vt 0.43749997 0.99999994
vt 0.43749997 0.625
vt 0.49999997 0.75
vt 0.56249994 0.87499994
vt 0.49999997 0.99999994
vt 0.49999997 0.625
vt 0.43749997 0.5
vt 0.56249994 0.75
vt 0.49999997 0.5
vt 0.62499994 0.87499994
vt 0.56249994 0.99999994
vt 0.56249994 0.625
vt 0.62499994 0.75
vt 0.68749994 0.87499994
vt 0.62499994 0.99999994
vt 0.62499994 0.625
vt 0.56249994 0.5
vt 0.68749994 0.75
vt 0.62499994 0.5
vt 0.75 0.87499994
vt 0.68749994 0.99999994
vt 0.68749994 0.625
vt 0.75 0.75
vt 0.8125 0.87499994
vt 0.75 0.99999994
vt 0.75 0.625
vt 0.68749994 0.5
vt 0.8125 0.75
vt 0.75 0.5
vt 0.875 0.87499994
vt 0.8125 0.99999994
vt 0.8125 0.625
vt 0.875 0.75
vt 0.93750006 0.87499994
vt 0.875 0.99999994
vt 0.875 0.625
vt 0.8125 0.5
vt 0.93750006 0.75
vt 1.00000012 0.87499994
vt 0.93750006 0.99999994
vt 1.00000012 0.75
vt 0.93750006 0.625
vt 1.00000012 0.625
vt 0.875 0.5
vt 0.93750006 0.5
vt 1.00000012 0.5
vt 0.93750006 0.375
vt 1.00000012 0.375
vt 0.875 0.375
vt 0.8125 0.375
vt 0.75 0.375
vt 0.93750006 0.25
vt 1.00000012 0.25
vt 0.875 0.25
vt 0.8125 0.25
vt 0.75 0.25
vt 0.93750006 0.125
vt 1.00000012 0.125
vt 0.93750006 0
vt 0.875 0.125
vt 0.875 0
vt 0.8125 0.125
vt 0.8125 0
vt 0.75 0.125
vt 0.75 0
vt 0.68749994 0.125
vt 0.68749994 0
vt 0.68749994 0.25
vt 0.62499994 0.125
vt 0.62499994 0
vt 0.68749994 0.375
vt 0.62499994 0.25
vt 0.62499994 0.375
vt 0.56249994 0.125
vt 0.56249994 0
vt 0.56249994 0.25
vt 0.56249994 0.375
vt 0.49999997 0.125
vt 0.49999997 0
vt 0.49999997 0.25
vt 0.49999997 0.375
vt 0.43749997 0.125
vt 0.43749997 0
vt 0.43749997 0.25
vt 0.43749997 0.375
vt 0.375 0.125
vt 0.375 0
vt 0.375 0.25
vt 0.375 0.375
vt 0.3125 0.125
vt 0.3125 0
vt 0.3125 0.25
vt 0.3125 0.375
vt 0.25 0.125
vt 0.25 0
vt 0.25 0.25
vt 0.25 0.375
vt 0.1875 0.25
vt 0.1875 0.125
vt 0.1875 0
vt 0.125 0.125
vt 0.125 0
vt 0.0625 0
vt 0.49999997 0.5
vt 0.62499994 0.87499994
vt 0.56249994 0.99999994
vt 0.56249994 0.625
vt 0.62499994 0.75
vt 0.68749994 0.87499994
vt 0.62499994 0.99999994
vt 0.62499994 0.625
vt 0.56249994 0.5
vt 0.68749994 0.75
vt 0.62499994 0.5
vt 0.75 0.87499994
vt 0.68749994 0.99999994
vt 0.68749994 0.625
vt 0.75 0.75
vt 0.8125 0.87499994
vt 0.75 0.99999994
vt 0.75 0.625
vt 0.68749994 0.5
vt 0.8125 0.75
vt 0.75 0.5
vt 0.875 0.87499994
vt 0.8125 0.99999994
vt 0.8125 0.625
vt 0.875 0.75
vt 0.93750006 0.87499994
vt 0.875 0.99999994
vt 0.875 0.625
vt 0.8125 0.5
vt 0.93750006 0.75
vt 1.00000012 0.87499994
vt 0.93750006 0.99999994
vt 1.00000012 0.75
vt 0.93750006 0.625
vt 1.00000012 0.625
vt 0.875 0.5
vt 0.93750006 0.5
vt 1.00000012 0.5
vt 0.93750006 0.375
vt 1.00000012 0.375
vt 0.875 0.375
vt 0.8125 0.375
vt 0.75 0.375
vt 0.93750006 0.25
vt 1.00000012 0.25
vt 0.875 0.25
vt 0.8125 0.25
vt 0.75 0.25
vt 0.93750006 0.125
vt 1.00000012 0.125
vt 0.93750006 0
vt 0.875 0.125
vt 0.875 0
vt 0.8125 0.125
vt 0.8125 0
vt 0.75 0.125
vt 0.75 0
vt 0.68749994 0.125
vt 0.68749994 0
vt 0.68749994 0.25
vt 0.62499994 0.125
vt 0.62499994 0
vt 0.68749994 0.375
vt 0.62499994 0.25
vt 0.62499994 0.375
vt 0.56249994 0.125
vt 0.56249994 0
vt 0.56249994 0.25
vt 0.56249994 0.375
vt 0.49999997 0.125
vt 0.49999997 0
vt 0.49999997 0.25
vt 0.49999997 0.375
vt 0.43749997 0.125
vt 0.43749997 0
vt 0.43749997 0.25
vt 0.43749997 0.375
vt 0.375 0.125
vt 0.375 0
vt 0.375 0.25
vt 0.375 0.375
vt 0.3125 0.125
vt 0.3125 0
vt 0.3125 0.25
vt 0.3125 0.375
vt 0.25 0.125
vt 0.25 0
vt 0.25 0.25
vt 0.25 0.375
vt 0.1875 0.25
vt 0.1875 0.125
vt 0.1875 0
vt 0.125 0.125
vt 0.125 0
vt 0.0625 0
vt 0 0
vt 0 0.125
vt 0.0625 0.25
vt 0 0.25
vt 0.0625 0.375
vt 0 0.375
vt 0.0625 0.5
vt 0 0.5
vt 0.125 0.375
vt 0.125 0.5
vt 0.0625 0.625
vt 0 0.625
vt 0.125 0.625
vt 0.0625 0.75
vt 0 0.75
vt 0.125 0.75
vt 0.0625 0.87499994
vt 0 0.87499994
vt 0 0.99999994
vt 0.125 0.87499994
vt 0.0625 0.99999994
vt 0.1875 0.87499994
vt 0.125 0.99999994
vt 0.1875 0.75
vt 0.25 0.87499994
vt 0.1875 0.99999994
vt 0.1875 0.625
vt 0.25 0.75
vt 0.3125 0.87499994
vt 0.25 0.99999994
vt 0.25 0.625
vt 0.1875 0.5
vt 0.3125 0.75
vt 0.3125 0.625
vt 0.375 0.87499994
vt 0.3125 0.99999994
vt 0.375 0.75
vt 0.43749997 0.87499994
vt 0.375 0.99999994
vt 0.375 0.625
vt 0.43749997 0.75
vt 0.49999997 0.87499994
vt 0.43749997 0.99999994
vt 0.43749997 0.625
vt 0.49999997 0.75
vt 0.49999997 0.99999994
vt 0 0
vt 0 0.125
vt 0.0625 0.25
vt 0 0.25
vt 0.0625 0.375
vt 0 0.375
vt 0.0625 0.5
vt 0 0.5
vt 0.125 0.375
vt 0.125 0.5
vt 0.0625 0.625
vt 0 0.625
vt 0.125 0.625
vt 0.0625 0.75
vt 0 0.75
vt 0.125 0.75
vt 0.0625 0.87499994
vt 0 0.87499994
vt 0 0.99999994
vt 0.125 0.87499994
vt 0.0625 0.99999994
vt 0.1875 0.87499994
vt 0.125 0.99999994
vt 0.1875 0.75
vt 0.25 0.87499994
vt 0.1875 0.99999994
vt 0.1875 0.625
vt 0.25 0.75
vt 0.3125 0.87499994
vt 0.25 0.99999994
vt 0.25 0.625
vt 0.1875 0.5
vt 0.3125 0.75
vt 0.3125 0.625
vt 0.375 0.87499994
vt 0.3125 0.99999994
vt 0.375 0.75
vt 0.43749997 0.87499994
vt 0.375 0.99999994
vt 0.375 0.625
vt 0.43749997 0.75
vt 0.49999997 0.87499994
vt 0.43749997 0.99999994
vt 0.43749997 0.625
vt 0.49999997 0.75
vt 0.49999997 0.99999994
f 1/1 2/2 3/3
f 4/4 5/5 6/6
f 7/7 6/6 5/5
f 4/4 8/8 1/1
f 2/2 1/1 8/8
f 6/6 9/9 4/4
f 8/8 4/4 9/9
f 9/9 6/6 10/10
f 11/11 10/10 6/6
f 9/9 12/12 8/8
f 8/8 13/13 2/2
f 13/13 8/8 12/12
f 12/12 9/9 14/14
f 10/10 14/14 9/9
f 12/12 15/15 13/13
f 14/14 10/10 16/16
f 17/17 16/16 10/10
f 14/14 18/18 12/12
f 15/15 12/12 18/18
f 16/16 19/19 14/14
f 18/18 14/14 19/19
f 19/19 16/16 20/20
f 21/21 20/20 16/16
f 19/19 22/22 18/18
f 18/18 23/23 15/15
f 23/23 18/18 22/22
f 22/22 19/19 24/24
f 20/20 24/24 19/19
f 22/22 25/25 23/23
f 24/24 20/20 26/26
f 27/27 26/26 20/20
f 24/24 28/28 22/22
f 25/25 22/22 28/28
f 26/26 29/29 24/24
f 28/28 24/24 29/29
f 29/29 26/26 30/30
f 31/31 30/30 26/26
f 29/29 32/32 28/28
f 28/28 33/33 25/25
f 33/33 28/28 32/32
f 32/32 29/29 34/34
f 30/30 34/34 29/29
f 34/34 30/30 35/35
f 36/36 35/35 30/30
f 35/35 37/37 34/34
f 38/38 34/34 37/37
f 34/34 38/38 32/32
f 37/37 39/39 38/38
f 32/32 40/40 33/33
f 40/40 32/32 38/38
f 41/41 38/38 39/39
f 38/38 41/41 40/40
f 39/39 42/42 41/41
f 43/43 41/41 42/42
f 42/42 44/44 43/43
f 45/45 40/40 41/41
f 41/41 43/43 45/45
f 46/46 33/33 40/40
f 40/40 45/45 46/46
f 33/33 46/46 47/47
f 47/47 25/25 33/33
f 48/48 43/43 44/44
f 44/44 49/49 48/48
f 50/50 45/45 43/43
f 43/43 48/48 50/50
f 51/51 46/46 45/45
f 45/45 50/50 51/51
f 52/52 47/47 46/46
f 46/46 51/51 52/52
f 53/53 48/48 49/49
f 49/49 54/54 53/53
f 55/55 53/53 54/54
f 48/48 53/53 56/56
f 56/56 50/50 48/48
f 57/57 56/56 53/53
f 50/50 56/56 58/58
f 58/58 51/51 50/50
f 59/59 58/58 56/56
f 51/51 58/58 60/60
f 61/61 60/60 58/58
f 60/60 52/52 51/51
f 52/52 60/60 62/62
f 63/63 62/62 60/60
f 62/62 64/64 52/52
f 47/47 52/52 64/64
f 64/64 62/62 65/65
f 66/66 65/65 62/62
f 64/64 67/67 47/47
f 25/25 47/47 67/67
f 67/67 23/23 25/25
f 67/67 64/64 68/68
f 65/65 68/68 64/64
f 23/23 67/67 69/69
f 68/68 69/69 67/67
f 69/69 15/15 23/23
f 68/68 65/65 70/70
f 71/71 70/70 65/65
f 69/69 68/68 72/72
f 70/70 72/72 68/68
f 15/15 69/69 73/73
f 72/72 73/73 69/69
f 73/73 13/13 15/15
f 72/72 70/70 74/74
f 75/75 74/74 70/70
f 73/73 72/72 76/76
f 74/74 76/76 72/72
f 13/13 73/73 77/77
f 76/76 77/77 73/73
f 77/77 2/2 13/13
f 76/76 74/74 78/78
f 79/79 78/78 74/74
f 77/77 76/76 80/80
f 78/78 80/80 76/76
f 2/2 77/77 81/81
f 80/80 81/81 77/77
f 81/81 3/3 2/2
f 80/80 78/78 82/82
f 83/83 82/82 78/78
f 81/81 80/80 84/84
f 82/82 84/84 80/80
f 3/3 81/81 85/85
f 84/84 85/85 81/81
f 85/85 86/86 3/3
f 84/84 82/82 87/87
f 88/88 87/87 82/82
f 85/85 84/84 89/89
f 87/87 89/89 84/84
f 86/86 85/85 90/90
f 89/89 90/90 85/85
f 90/90 91/91 86/86
f 89/89 87/87 92/92
f 93/93 92/92 87/87
f 90/90 89/89 94/94
f 92/92 94/94 89/89
f 91/91 90/90 95/95
f 94/94 95/95 90/90
f 95/95 96/96 91/91
f 96/96 95/95 97/97
f 98/98 97/97 95/95
f 95/95 94/94 98/98
f 97/97 98/98 99/99
f 94/94 92/92 100/100
f 100/100 98/98 94/94
f 101/101 100/100 92/92
f 102/102 99/99 98/98
f 98/98 100/100 102/102
f 103/103 102/102 100/100
f 99/99 102/102 104/104
f 105/105 104/104 102/102
f 106/106 107/107 108/108
f 109/109 110/110 111/111
f 112/112 111/111 110/110
f 109/109 113/113 106/106
f 107/107 106/106 113/113
f 111/111 114/114 109/109
f 113/113 109/109 114/114
f 114/114 111/111 115/115
f 116/116 115/115 111/111
f 114/114 117/117 113/113
f 113/113 118/118 107/107
f 118/118 113/113 117/117
f 117/117 114/114 119/119
f 115/115 119/119 114/114
f 117/117 120/120 118/118
f 119/119 115/115 121/121
f 122/122 121/121 115/115
f 119/119 123/123 117/117
f 120/120 117/117 123/123
f 121/121 124/124 119/119
f 123/123 119/119 124/124
f 124/124 121/121 125/125
f 126/126 125/125 121/121
f 124/124 127/127 123/123
f 123/123 128/128 120/120
f 128/128 123/123 127/127
f 127/127 124/124 129/129
f 125/125 129/129 124/124
f 127/127 130/130 128/128
f 129/129 125/125 131/131
f 132/132 131/131 125/125
f 129/129 133/133 127/127
f 130/130 127/127 133/133
f 131/131 134/134 129/129
f 133/133 129/129 134/134
f 134/134 131/131 135/135
f 136/136 135/135 131/131
f 134/134 137/137 133/133
f 133/133 138/138 130/130
f 138/138 133/133 137/137
f 137/137 134/134 139/139
f 135/135 139/139 134/134
f 139/139 135/135 140/140
f 141/141 140/140 135/135
f 140/140 142/142 139/139
f 143/143 139/139 142/142
f 139/139 143/143 137/137
f 142/142 144/144 143/143
f 137/137 145/145 138/138
f 145/145 137/137 143/143
f 146/146 143/143 144/144
f 143/143 146/146 145/145
f 144/144 147/147 146/146
f 148/148 146/146 147/147
f 147/147 149/149 148/148
f 150/150 145/145 146/146
f 146/146 148/148 150/150
f 151/151 138/138 145/145
f 145/145 150/150 151/151
f 138/138 151/151 152/152
f 152/152 130/130 138/138
f 153/153 148/148 149/149
f 149/149 154/154 153/153
f 155/155 150/150 148/148
f 148/148 153/153 155/155
f 156/156 151/151 150/150
f 150/150 155/155 156/156
f 157/157 152/152 151/151
f 151/151 156/156 157/157
f 158/158 153/153 154/154
f 154/154 159/159 158/158
f 160/160 158/158 159/159
f 153/153 158/158 161/161
f 161/161 155/155 153/153
f 162/162 161/161 158/158
f 155/155 161/161 163/163
f 163/163 156/156 155/155
f 164/164 163/163 161/161
f 156/156 163/163 165/165
f 166/166 165/165 163/163
f 165/165 157/157 156/156
f 157/157 165/165 167/167
f 168/168 167/167 165/165
f 167/167 169/169 157/157
f 152/152 157/157 169/169
f 169/169 167/167 170/170
f 171/171 170/170 167/167
f 169/169 172/172 152/152
f 130/130 152/152 172/172
f 172/172 128/128 130/130
f 172/172 169/169 173/173
f 170/170 173/173 169/169
f 128/128 172/172 174/174
f 173/173 174/174 172/172
f 174/174 120/120 128/128
f 173/173 170/170 175/175
f 176/176 175/175 170/170
f 174/174 173/173 177/177
f 175/175 177/177 173/173
f 120/120 174/174 178/178
f 177/177 178/178 174/174
f 178/178 118/118 120/120
f 177/177 175/175 179/179
f 180/180 179/179 175/175
f 178/178 177/177 181/181
f 179/179 181/181 177/177
f 118/118 178/178 182/182
f 181/181 182/182 178/178
f 182/182 107/107 118/118
f 181/181 179/179 183/183
f 184/184 183/183 179/179
f 182/182 181/181 185/185
f 183/183 185/185 181/181
f 107/107 182/182 186/186
f 185/185 186/186 182/182
f 186/186 108/108 107/107
f 185/185 183/183 187/187
f 188/188 187/187 183/183
f 186/186 185/185 189/189
f 187/187 189/189 185/185
f 108/108 186/186 190/190
f 189/189 190/190 186/186
f 190/190 191/191 108/108
f 189/189 187/187 192/192
f 193/193 192/192 187/187
f 190/190 189/189 194/194
f 192/192 194/194 189/189
f 191/191 190/190 195/195
f 194/194 195/195 190/190
f 195/195 196/196 191/191
f 194/194 192/192 197/197
f 198/198 197/197 192/192
f 195/195 194/194 199/199
f 197/197 199/199 194/194
f 196/196 195/195 200/200
f 199/199 200/200 195/195
f 200/200 201/201 196/196
f 201/201 200/200 202/202
f 203/203 202/202 200/200
f 200/200 199/199 203/203
f 202/202 203/203 204/204
f 199/199 197/197 205/205
f 205/205 203/203 199/199
f 206/206 205/205 197/197
f 207/207 204/204 203/203
f 203/203 205/205 207/207
f 208/208 207/207 205/205
f 204/204 207/207 209/209
f 210/210 209/209 207/207
f 211/211 212/212 213/213
f 214/214 213/213 212/212
f 212/212 215/215 214/214
f 216/216 214/214 215/215
f 215/215 217/217 216/216
f 213/213 214/214 218/218
f 219/219 216/216 217/217
f 217/217 220/220 219/219
f 214/214 216/216 221/221
f 221/221 218/218 214/214
f 216/216 219/219 222/222
f 222/222 221/221 216/216
f 223/223 219/219 220/220
f 220/220 224/224 223/223
f 225/225 222/222 219/219
f 219/219 223/223 225/225
f 226/226 223/223 224/224
f 224/224 227/227 226/226
f 228/228 225/225 223/223
f 223/223 226/226 228/228
f 229/229 226/226 227/227
f 227/227 230/230 229/229
f 231/231 229/229 230/230
f 226/226 229/229 232/232
f 232/232 228/228 226/226
f 233/233 232/232 229/229
f 228/228 232/232 234/234
f 235/235 234/234 232/232
f 234/234 236/236 228/228
f 225/225 228/228 236/236
f 236/236 234/234 237/237
f 238/238 237/237 234/234
f 236/236 239/239 225/225
f 222/222 225/225 239/239
f 237/237 240/240 236/236
f 239/239 236/236 240/240
f 240/240 237/237 241/241
f 242/242 241/241 237/237
f 240/240 243/243 239/239
f 239/239 244/244 222/222
f 244/244 239/239 243/243
f 221/221 222/222 244/244
f 243/243 240/240 245/245
f 241/241 245/245 240/240
f 244/244 246/246 221/221
f 218/218 221/221 246/246
f 243/243 247/247 244/244
f 246/246 244/244 247/247
f 245/245 248/248 243/243
f 247/247 243/243 248/248
f 245/245 241/241 249/249
f 250/250 249/249 241/241
f 248/248 245/245 251/251
f 249/249 251/251 245/245
f 251/251 249/249 252/252
f 253/253 252/252 249/249
f 251/251 254/254 248/248
f 248/248 255/255 247/247
f 255/255 248/248 254/254
f 254/254 251/251 256/256
f 252/252 256/256 251/251
f 254/254 257/257 255/255
f 256/256 252/252 258/258
f 259/259 258/258 252/252
f 256/256 260/260 254/254
f 257/257 254/254 260/260
f 258/258 261/261 256/256
f 260/260 256/256 261/261
f 261/261 258/258 262/262
f 263/263 262/262 258/258
f 261/261 264/264 260/260
f 260/260 265/265 257/257
f 265/265 260/260 264/264
f 264/264 261/261 266/266
f 262/262 266/266 261/261
f 267/267 268/268 269/269
f 270/270 269/269 268/268
f 268/268 271/271 270/270
f 272/272 270/270 271/271
f 271/271 273/273 272/272
f 269/269 270/270 274/274
f 275/275 272/272 273/273
f 273/273 276/276 275/275
f 270/270 272/272 277/277
f 277/277 274/274 270/270
f 272/272 275/275 278/278
f 278/278 277/277 272/272
f 279/279 275/275 276/276
f 276/276 280/280 279/279
f 281/281 278/278 275/275
f 275/275 279/279 281/281
f 282/282 279/279 280/280
f 280/280 283/283 282/282
f 284/284 281/281 279/279
f 279/279 282/282 284/284
f 285/285 282/282 283/283
f 283/283 286/286 285/285
f 287/287 285/285 286/286
f 282/282 285/285 288/288
f 288/288 284/284 282/282
f 289/289 288/288 285/285
f 284/284 288/288 290/290
f 291/291 290/290 288/288
f 290/290 292/292 284/284
f 281/281 284/284 292/292
f 292/292 290/290 293/293
f 294/294 293/293 290/290
f 292/292 295/295 281/281
f 278/278 281/281 295/295
f 293/293 296/296 292/292
f 295/295 292/292 296/296
f 296/296 293/293 297/297
f 298/298 297/297 293/293
f 296/296 299/299 295/295
f 295/295 300/300 278/278
f 300/300 295/295 299/299
f 277/277 278/278 300/300
f 299/299 296/296 301/301
f 297/297 301/301 296/296
f 300/300 302/302 277/277
f 274/274 277/277 302/302
f 299/299 303/303 300/300
f 302/302 300/300 303/303
f 301/301 304/304 299/299
f 303/303 299/299 304/304
f 301/301 297/297 305/305
f 306/306 305/305 297/297
f 304/304 301/301 307/307
f 305/305 307/307 301/301
f 307/307 305/305 308/308
f 309/309 308/308 305/305
f 307/307 310/310 304/304
f 304/304 311/311 303/303
f 311/311 304/304 310/310
f 310/310 307/307 312/312
f 308/308 312/312 307/307
f 310/310 313/313 311/311
f 312/312 308/308 314/314
f 315/315 314/314 308/308
f 312/312 316/316 310/310
f 313/313 310/310 316/316
f 314/314 317/317 312/312
f 316/316 312/312 317/317
f 317/317 314/314 318/318
f 319/319 318/318 314/314
f 317/317 320/320 316/316
f 316/316 321/321 313/313
f 321/321 316/316 320/320
f 320/320 317/317 322/322
f 318/318 322/322 317/317
f 320/320 323/323 321/321
f 322/322 318/318 324/324
f 325/325 324/324 318/318
f 322/322 326/326 320/320
f 323/323 320/320 326/326
f 324/324 327/327 322/322
f 326/326 322/322 327/327
f 327/327 324/324 328/328
f 329/329 328/328 324/324
f 327/327 330/330 326/326
f 326/326 331/331 323/323
f 331/331 326/326 330/330
f 330/330 327/327 332/332
f 328/328 332/332 327/327
f 330/330 333/333 331/331
f 332/332 328/328 334/334
f 335/335 334/334 328/328
f 332/332 336/336 330/330
f 333/333 330/330 336/336
f 334/334 337/337 332/332
f 336/336 332/332 337/337
f 337/337 334/334 338/338
f 339/339 338/338 334/334
f 337/337 340/340 336/336
f 336/336 341/341 333/333
f 341/341 336/336 340/340
f 340/340 337/337 342/342
f 338/338 342/342 337/337
f 340/340 343/343 341/341
f 342/342 338/338 344/344
f 345/345 344/344 338/338
f 342/342 346/346 340/340
f 343/343 340/340 346/346
f 344/344 347/347 342/342
f 346/346 342/342 347/347
f 347/347 344/344 348/348
f 349/349 348/348 344/344
f 347/347 350/350 346/346
f 346/346 351/351 343/343
f 351/351 346/346 350/350
f 350/350 347/347 352/352
f 348/348 352/352 347/347
f 352/352 348/348 353/353
f 354/354 353/353 348/348
f 353/353 355/355 352/352
f 356/356 352/352 355/355
f 352/352 356/356 350/350
f 355/355 357/357 356/356
f 350/350 358/358 351/351
f 358/358 350/350 356/356
f 359/359 356/356 357/357
f 356/356 359/359 358/358
f 357/357 360/360 359/359
f 361/361 359/359 360/360
f 360/360 362/362 361/361
f 363/363 358/358 359/359
f 359/359 361/361 363/363
f 364/364 351/351 358/358
f 358/358 363/363 364/364
f 351/351 364/364 365/365
f 365/365 343/343 351/351
f 366/366 361/361 362/362
f 362/362 367/367 366/366
f 368/368 363/363 361/361
f 361/361 366/366 368/368
f 369/369 364/364 363/363
f 363/363 368/368 369/369
f 370/370 365/365 364/364
f 364/364 369/369 370/370
f 371/371 366/366 367/367
f 367/367 372/372 371/371
f 373/373 371/371 372/372
f 366/366 371/371 374/374
f 374/374 368/368 366/366
f 375/375 374/374 371/371
f 368/368 374/374 376/376
f 376/376 369/369 368/368
f 377/377 376/376 374/374
f 369/369 376/376 378/378
f 379/379 378/378 376/376
f 378/378 370/370 369/369
f 370/370 378/378 380/380
f 381/381 380/380 378/378
f 380/380 382/382 370/370
f 365/365 370/370 382/382
f 382/382 380/380 383/383
f 384/384 383/383 380/380
f 382/382 385/385 365/365
f 343/343 365/365 385/385
f 385/385 341/341 343/343
f 385/385 382/382 386/386
f 383/383 386/386 382/382
f 341/341 385/385 387/387
f 386/386 387/387 385/385
f 387/387 333/333 341/341
f 386/386 383/383 388/388
f 389/389 388/388 383/383
f 387/387 386/386 390/390
f 388/388 390/390 386/386
f 333/333 387/387 391/391
f 390/390 391/391 387/387
f 391/391 331/331 333/333
f 390/390 388/388 392/392
f 393/393 392/392 388/388
f 391/391 390/390 394/394
f 392/392 394/394 390/390
f 331/331 391/391 395/395
f 394/394 395/395 391/391
f 395/395 323/323 331/331
f 394/394 392/392 396/396
f 397/397 396/396 392/392
f 395/395 394/394 398/398
f 396/396 398/398 394/394
f 323/323 395/395 399/399
f 398/398 399/399 395/395
f 399/399 321/321 323/323
f 398/398 396/396 400/400
f 401/401 400/400 396/396
f 399/399 398/398 402/402
f 400/400 402/402 398/398
f 321/321 399/399 403/403
f 402/402 403/403 399/399
f 403/403 313/313 321/321
f 402/402 400/400 404/404
f 405/405 404/404 400/400
f 403/403 402/402 406/406
f 404/404 406/406 402/402
f 313/313 403/403 407/407
f 406/406 407/407 403/403
f 407/407 311/311 313/313
f 406/406 404/404 408/408
f 409/409 408/408 404/404
f 407/407 406/406 410/410
f 408/408 410/410 406/406
f 311/311 407/407 411/411
f 410/410 411/411 407/407
f 411/411 303/303 311/311
f 303/303 411/411 302/302
f 412/412 302/302 411/411
f 411/411 410/410 412/412
f 302/302 412/412 274/274
f 410/410 408/408 413/413
f 413/413 412/412 410/410
f 414/414 413/413 408/408
f 415/415 274/274 412/412
f 412/412 413/413 415/415
f 416/416 415/415 413/413
f 274/274 415/415 269/269
f 417/417 269/269 415/415
f 264/264 418/418 265/265
f 266/266 262/262 419/419
f 420/420 419/419 262/262
f 266/266 421/421 264/264
f 418/418 264/264 421/421
f 419/419 422/422 266/266
f 421/421 266/266 422/422
f 422/422 419/419 423/423
f 424/424 423/423 419/419
f 422/422 425/425 421/421
f 421/421 426/426 418/418
f 426/426 421/421 425/425
f 425/425 422/422 427/427
f 423/423 427/427 422/422
f 425/425 428/428 426/426
f 427/427 423/423 429/429
f 430/430 429/429 423/423
f 427/427 431/431 425/425
f 428/428 425/425 431/431
f 429/429 432/432 427/427
f 431/431 427/427 432/432
f 432/432 429/429 433/433
f 434/434 433/433 429/429
f 432/432 435/435 431/431
f 431/431 436/436 428/428
f 436/436 431/431 435/435
f 435/435 432/432 437/437
f 433/433 437/437 432/432
f 435/435 438/438 436/436
f 437/437 433/433 439/439
f 440/440 439/439 433/433
f 437/437 441/441 435/435
f 438/438 435/435 441/441
f 439/439 442/442 437/437
f 441/441 437/437 442/442
f 442/442 439/439 443/443
f 444/444 443/443 439/439
f 442/442 445/445 441/441
f 441/441 446/446 438/438
f 446/446 441/441 445/445
f 445/445 442/442 447/447
f 443/443 447/447 442/442
f 447/447 443/443 448/448
f 449/449 448/448 443/443
f 448/448 450/450 447/447
f 451/451 447/447 450/450
f 447/447 451/451 445/445
f 450/450 452/452 451/451
f 445/445 453/453 446/446
f 453/453 445/445 451/451
f 454/454 451/451 452/452
f 451/451 454/454 453/453
f 452/452 455/455 454/454
f 456/456 454/454 455/455
f 455/455 457/457 456/456
f 458/458 453/453 454/454
f 454/454 456/456 458/458
f 459/459 446/446 453/453
f 453/453 458/458 459/459
f 446/446 459/459 460/460
f 460/460 438/438 446/446
f 461/461 456/456 457/457
f 457/457 462/462 461/461
f 463/463 458/458 456/456
f 456/456 461/461 463/463
f 464/464 459/459 458/458
f 458/458 463/463 464/464
f 465/465 460/460 459/459
f 459/459 464/464 465/465
f 466/466 461/461 462/462
f 462/462 467/467 466/466
f 468/468 466/466 467/467
f 461/461 466/466 469/469
f 469/469 463/463 461/461
f 470/470 469/469 466/466
f 463/463 469/469 471/471
f 471/471 464/464 463/463
f 472/472 471/471 469/469
f 464/464 471/471 473/473
f 474/474 473/473 471/471
f 473/473 465/465 464/464
f 465/465 473/473 475/475
f 476/476 475/475 473/473
f 475/475 477/477 465/465
f 460/460 465/465 477/477
f 477/477 475/475 478/478
f 479/479 478/478 475/475
f 477/477 480/480 460/460
f 438/438 460/460 480/480
f 480/480 436/436 438/438
f 480/480 477/477 481/481
f 478/478 481/481 477/477
f 436/436 480/480 482/482
f 481/481 482/482 480/480
f 482/482 428/428 436/436
f 481/481 478/478 483/483
f 484/484 483/483 478/478
f 482/482 481/481 485/485
f 483/483 485/485 481/481
f 428/428 482/482 486/486
f 485/485 486/486 482/482
f 486/486 426/426 428/428
f 485/485 483/483 487/487
f 488/488 487/487 483/483
f 486/486 485/485 489/489
f 487/487 489/489 485/485
f 426/426 486/486 490/490
f 489/489 490/490 486/486
f 490/490 418/418 426/426
f 489/489 487/487 491/491
f 492/492 491/491 487/487
f 490/490 489/489 493/493
f 491/491 493/493 489/489
f 418/418 490/490 494/494
f 493/493 494/494 490/490
f 494/494 265/265 418/418
f 493/493 491/491 495/495
f 496/496 495/495 491/491
f 494/494 493/493 497/497
f 495/495 497/497 493/493
f 265/265 494/494 498/498
f 497/497 498/498 494/494
f 498/498 257/257 265/265
f 497/497 495/495 499/499
f 500/500 499/499 495/495
f 498/498 497/497 501/501
f 499/499 501/501 497/497
f 257/257 498/498 502/502
f 501/501 502/502 498/498
f 502/502 255/255 257/257
f 501/501 499/499 503/503
f 504/504 503/503 499/499
f 502/502 501/501 505/505
f 503/503 505/505 501/501
f 255/255 502/502 506/506
f 505/505 506/506 502/502
f 506/506 247/247 255/255
f 247/247 506/506 246/246
f 507/507 246/246 506/506
f 506/506 505/505 507/507
f 246/246 507/507 218/218
f 505/505 503/503 508/508
f 508/508 507/507 505/505
f 509/509 508/508 503/503
f 510/510 218/218 507/507
f 507/507 508/508 510/510
f 511/511 510/510 508/508
f 218/218 510/510 213/213
f 512/512 213/213 510/510
f 513/513 514/514 209/209
f 515/515 209/209 514/514
f 514/514 516/516 515/515
f 517/517 515/515 516/516
f 516/516 518/518 517/517
f 209/209 515/515 204/204
f 519/519 517/517 518/518
f 518/518 520/520 519/519
f 515/515 517/517 521/521
f 521/521 204/204 515/515
f 517/517 519/519 522/522
f 522/522 521/521 517/517
f 523/523 519/519 520/520
f 520/520 524/524 523/523
f 525/525 522/522 519/519
f 519/519 523/523 525/525
f 526/526 523/523 524/524
f 524/524 527/527 526/526
f 528/528 525/525 523/523
f 523/523 526/526 528/528
f 529/529 526/526 527/527
f 527/527 530/530 529/529
f 531/531 529/529 530/530
f 526/526 529/529 532/532
f 532/532 528/528 526/526
f 533/533 532/532 529/529
f 528/528 532/532 534/534
f 535/535 534/534 532/532
f 534/534 536/536 528/528
f 525/525 528/528 536/536
f 536/536 534/534 537/537
f 538/538 537/537 534/534
f 536/536 539/539 525/525
f 522/522 525/525 539/539
f 537/537 540/540 536/536
f 539/539 536/536 540/540
f 540/540 537/537 541/541
f 542/542 541/541 537/537
f 540/540 543/543 539/539
f 539/539 544/544 522/522
f 544/544 539/539 543/543
f 521/521 522/522 544/544
f 543/543 540/540 545/545
f 541/541 545/545 540/540
f 544/544 202/202 521/521
f 204/204 521/521 202/202
f 543/543 201/201 544/544
f 202/202 544/544 201/201
f 545/545 546/546 543/543
f 201/201 543/543 546/546
f 545/545 541/541 547/547
f 548/548 547/547 541/541
f 546/546 545/545 549/549
f 547/547 549/549 545/545
f 549/549 547/547 550/550
f 551/551 550/550 547/547
f 549/549 552/552 546/546
f 546/546 196/196 201/201
f 196/196 546/546 552/552
f 552/552 549/549 553/553
f 550/550 553/553 549/549
f 552/552 191/191 196/196
f 553/553 550/550 554/554
f 555/555 554/554 550/550
f 553/553 556/556 552/552
f 191/191 552/552 556/556
f 554/554 557/557 553/553
f 556/556 553/553 557/557
f 557/557 554/554 110/110
f 558/558 110/110 554/554
f 557/557 106/106 556/556
f 556/556 108/108 191/191
f 108/108 556/556 106/106
f 106/106 557/557 109/109
f 110/110 109/109 557/557
f 559/559 560/560 104/104
f 561/561 104/104 560/560
f 560/560 562/562 561/561
f 563/563 561/561 562/562
f 562/562 564/564 563/563
f 104/104 561/561 99/99
f 565/565 563/563 564/564
f 564/564 566/566 565/565
f 561/561 563/563 567/567
f 567/567 99/99 561/561
f 563/563 565/565 568/568
f 568/568 567/567 563/563
f 569/569 565/565 566/566
f 566/566 570/570 569/569
f 571/571 568/568 565/565
f 565/565 569/569 571/571
f 572/572 569/569 570/570
f 570/570 573/573 572/572
f 574/574 571/571 569/569
f 569/569 572/572 574/574
f 575/575 572/572 573/573
f 573/573 576/576 575/575
f 577/577 575/575 576/576
f 572/572 575/575 578/578
f 578/578 574/574 572/572
f 579/579 578/578 575/575
f 574/574 578/578 580/580
f 581/581 580/580 578/578
f 580/580 582/582 574/574
f 571/571 574/574 582/582
f 582/582 580/580 583/583
f 584/584 583/583 580/580
f 582/582 585/585 571/571
f 568/568 571/571 585/585
f 583/583 586/586 582/582
f 585/585 582/582 586/586
f 586/586 583/583 587/587
f 588/588 587/587 583/583
f 586/586 589/589 585/585
f 585/585 590/590 568/568
f 590/590 585/585 589/589
f 567/567 568/568 590/590
f 589/589 586/586 591/591
f 587/587 591/591 586/586
f 590/590 97/97 567/567
f 99/99 567/567 97/97
f 589/589 96/96 590/590
f 97/97 590/590 96/96
f 591/591 592/592 589/589
f 96/96 589/589 592/592
f 591/591 587/587 593/593
f 594/594 593/593 587/587
f 592/592 591/591 595/595
f 593/593 595/595 591/591
f 595/595 593/593 596/596
f 597/597 596/596 593/593
f 595/595 598/598 592/592
f 592/592 91/91 96/96
f 91/91 592/592 598/598
f 598/598 595/595 599/599
f 596/596 599/599 595/595
f 598/598 86/86 91/91
f 599/599 596/596 600/600
f 601/601 600/600 596/596
f 599/599 602/602 598/598
f 86/86 598/598 602/602
f 600/600 603/603 599/599
f 602/602 599/599 603/603
f 603/603 600/600 5/5
f 604/604 5/5 600/600
f 603/603 1/1 602/602
f 602/602 3/3 86/86
f 3/3 602/602 1/1
f 1/1 603/603 4/4
f 5/5 4/4 603/603
