v 0.758825004 -0.619125009 -1.37473368e-16
v 0.758825004 0.619125009 1.37473368e-16
v 0.758825004 0.619125009 0.0342683792
v 0.758825004 -0.619125009 0.0342683792
v -0.758825004 0.619125009 1.37473368e-16
v -0.758825004 -0.619125009 -1.37473368e-16
v -0.758825004 -0.619125009 0.0342683792
v -0.758825004 0.619125009 0.0342683792
v -0.758825004 -0.619125009 -1.37473368e-16
v 0.758825004 -0.619125009 -1.37473368e-16
v 0.758825004 -0.619125009 0.0342683792
v -0.758825004 -0.619125009 0.0342683792
v 0.758825004 0.619125009 1.37473368e-16
v -0.758825004 0.619125009 1.37473368e-16
v -0.758825004 0.619125009 0.0342683792
v 0.758825004 0.619125009 0.0342683792
v -0.758825004 -0.619125009 0.0342683792
v 0.758825004 -0.619125009 0.0342683792
v 0.744525015 -0.60482496 0.0342683792
v -0.744525015 -0.60482496 0.0342683792
v -0.758825004 0.619125009 0.0342683792
v -0.758825004 -0.619125009 0.0342683792
v -0.744525015 0.60482496 0.0342683792
v 0.758825004 0.619125009 0.0342683792
v -0.758825004 0.619125009 0.0342683792
v 0.744525015 0.60482496 0.0342683792
v 0.758825004 -0.619125009 0.0342683792
v 0.758825004 0.619125009 0.0342683792
v -0.744525015 -0.60482496 0.0342683792
v 0.744525015 -0.60482496 0.0342683792
v 0.744525015 -0.60482496 0.0172683913
v -0.744525015 -0.60482496 0.0172683913
v 0.744525015 0.60482496 0.0342683792
v -0.744525015 0.60482496 0.0342683792
v -0.744525015 0.60482496 0.0172683913
v 0.744525015 0.60482496 0.0172683913
v 0.744525015 -0.60482496 0.0342683792
v 0.744525015 0.60482496 0.0342683792
v 0.744525015 0.60482496 0.0172683913
v 0.744525015 -0.60482496 0.0172683913
v -0.744525015 0.60482496 0.0342683792
v -0.744525015 -0.60482496 0.0342683792
v -0.744525015 -0.60482496 0.0172683913
v -0.744525015 0.60482496 0.0172683913
vt 0 1
vt 1 1
vt 1 0
vt 0 0
vt 0 1
vt 1 1
vt 1 0
vt 0 0
vt 0 1
vt 1 1
vt 1 0
vt 0 0
vt 0 1
vt 1 1
vt 1 0
vt 0 0
vt 0 0
vt 1 0
vt 1 1
vt 0 1
vt 0 0
vt 1 0
vt 0 0
vt 0 0
vt 1 0
vt 1 0
vt 0 0
vt 1 0
vt 0 1
vt 1 1
vt 1 1
vt 0 1
vt 1 0
vt 0 0
vt 0 0
vt 1 0
vt 1 1
vt 1 0
vt 1 0
vt 1 1
vt 0 0
vt 0 1
vt 0 1
vt 0 0
f 1/1 2/2 3/3
f 3/3 4/4 1/1
f 5/5 6/6 7/7
f 7/7 8/8 5/5
f 9/9 10/10 11/11
f 11/11 12/12 9/9
f 13/13 14/14 15/15
f 15/15 16/16 13/13
f 17/17 18/18 19/19
f 19/19 20/20 17/17
f 21/21 22/22 20/20
f 20/20 23/23 21/21
f 24/24 25/25 23/23
f 23/23 26/26 24/24
f 26/26 19/19 27/27
f 27/27 28/28 26/26
f 29/29 30/30 31/31
f 31/31 32/32 29/29
f 33/33 34/34 35/35
f 35/35 36/36 33/33
f 37/37 38/38 39/39
f 39/39 40/40 37/37
f 41/41 42/42 43/43
f 43/43 44/44 41/41
