v 0.682624996 -0.555625021 -1.23373538e-16
v 0.682624996 0.555625021 1.23373538e-16
v 0.682624996 0.555625021 0.0359999985
v 0.682624996 -0.555625021 0.0359999985
v -0.682624996 0.555625021 1.23373538e-16
v -0.682624996 -0.555625021 -1.23373538e-16
v -0.682624996 -0.555625021 0.0359999985
v -0.682624996 0.555625021 0.0359999985
v 0.682624996 0.555625021 0.0359999985
v 0.682391644 0.555391669 0.0371666662
v 0.682391644 -0.555391669 0.0371666662
v 0.682624996 -0.555625021 0.0359999985
v -0.682624996 -0.555625021 0.0359999985
v -0.682391644 -0.555391669 0.0371666662
v -0.682391644 0.555391669 0.0371666662
v -0.682624996 0.555625021 0.0359999985
v -0.682624996 -0.555625021 -1.23373538e-16
v 0.682624996 -0.555625021 -1.23373538e-16
v 0.682624996 -0.555625021 0.0359999985
v -0.682624996 -0.555625021 0.0359999985
v 0.682624996 0.555625021 1.23373538e-16
v -0.682624996 0.555625021 1.23373538e-16
v -0.682624996 0.555625021 0.0359999985
v 0.682624996 0.555625021 0.0359999985
v 0.682624996 -0.555625021 0.0359999985
v 0.682391644 -0.555391669 0.0371666662
v -0.682391644 -0.555391669 0.0371666662
v -0.682624996 -0.555625021 0.0359999985
v -0.682624996 0.555625021 0.0359999985
v -0.682391644 0.555391669 0.0371666662
v 0.682391644 0.555391669 0.0371666662
v 0.682624996 0.555625021 0.0359999985
v 0.682391644 0.555391669 0.0371666662
v 0.681691647 0.554691672 0.0378666669
v 0.681691647 -0.554691672 0.0378666669
v 0.682391644 -0.555391669 0.0371666662
v -0.682391644 -0.555391669 0.0371666662
v -0.681691647 -0.554691672 0.0378666669
v -0.681691647 0.554691672 0.0378666669
v -0.682391644 0.555391669 0.0371666662
v 0.682391644 -0.555391669 0.0371666662
v 0.681691647 -0.554691672 0.0378666669
v -0.681691647 -0.554691672 0.0378666669
v -0.682391644 -0.555391669 0.0371666662
v -0.682391644 0.555391669 0.0371666662
v -0.681691647 0.554691672 0.0378666669
v 0.681691647 0.554691672 0.0378666669
v 0.682391644 0.555391669 0.0371666662
v 0.681691647 0.554691672 0.0378666669
v 0.680525005 0.553525031 0.0381000005
v 0.680525005 -0.553525031 0.0381000005
v 0.681691647 -0.554691672 0.0378666669
v -0.681691647 -0.554691672 0.0378666669
v -0.680525005 -0.553525031 0.0381000005
v -0.680525005 0.553525031 0.0381000005
v -0.681691647 0.554691672 0.0378666669
v 0.681691647 -0.554691672 0.0378666669
v 0.680525005 -0.553525031 0.0381000005
v -0.680525005 -0.553525031 0.0381000005
v -0.681691647 -0.554691672 0.0378666669
v -0.681691647 0.554691672 0.0378666669
v -0.680525005 0.553525031 0.0381000005
v 0.680525005 0.553525031 0.0381000005
v 0.681691647 0.554691672 0.0378666669
v -0.682624996 -0.555625021 -1.23373538e-16
v -0.682624996 0.555625021 1.23373538e-16
v 0.682624996 0.555625021 1.23373538e-16
v 0.682624996 -0.555625021 -1.23373538e-16
v -0.680525005 -0.553525031 0.0381000005
v 0.680525005 -0.553525031 0.0381000005
v 0.631724954 -0.504724979 0.0381000005
v 0.631724954 0.504724979 0.0381000005
v -0.631724954 -0.504724979 0.0381000005
v 0.680525005 0.553525031 0.0381000005
v -0.680525005 0.553525031 0.0381000005
v -0.631724954 0.504724979 0.0381000005
v 0.631724954 -0.504724979 0.0381000005
v 0.630558312 -0.503558338 0.0378666669
v -0.630558312 -0.503558338 0.0378666669
v -0.631724954 -0.504724979 0.0381000005
v -0.631724954 0.504724979 0.0381000005
v -0.630558312 0.503558338 0.0378666669
v 0.630558312 0.503558338 0.0378666669
v 0.631724954 0.504724979 0.0381000005
v 0.631724954 0.504724979 0.0381000005
v 0.630558312 0.503558338 0.0378666669
v 0.630558312 -0.503558338 0.0378666669
v 0.631724954 -0.504724979 0.0381000005
v -0.631724954 -0.504724979 0.0381000005
v -0.630558312 -0.503558338 0.0378666669
v -0.630558312 0.503558338 0.0378666669
v -0.631724954 0.504724979 0.0381000005
v 0.630558312 -0.503558338 0.0378666669
v 0.629858315 -0.502858341 0.0371666662
v -0.629858315 -0.502858341 0.0371666662
v -0.630558312 -0.503558338 0.0378666669
v -0.630558312 0.503558338 0.0378666669
v -0.629858315 0.502858341 0.0371666662
v 0.629858315 0.502858341 0.0371666662
v 0.630558312 0.503558338 0.0378666669
v 0.630558312 0.503558338 0.0378666669
v 0.629858315 0.502858341 0.0371666662
v 0.629858315 -0.502858341 0.0371666662
v 0.630558312 -0.503558338 0.0378666669
v -0.630558312 -0.503558338 0.0378666669
v -0.629858315 -0.502858341 0.0371666662
v -0.629858315 0.502858341 0.0371666662
v -0.630558312 0.503558338 0.0378666669
v 0.629858315 -0.502858341 0.0371666662
v 0.629624963 -0.502624989 0.0359999985
v -0.629624963 -0.502624989 0.0359999985
v -0.629858315 -0.502858341 0.0371666662
v -0.629858315 0.502858341 0.0371666662
v -0.629624963 0.502624989 0.0359999985
v 0.629624963 0.502624989 0.0359999985
v 0.629858315 0.502858341 0.0371666662
v -0.629624963 -0.502624989 0.0359999985
v 0.629624963 -0.502624989 0.0359999985
v 0.629624963 -0.502624989 0.0267000012
v -0.629624963 -0.502624989 0.0267000012
v 0.629624963 0.502624989 0.0359999985
v -0.629624963 0.502624989 0.0359999985
v -0.629624963 0.502624989 0.0267000012
v 0.629624963 0.502624989 0.0267000012
v 0.629858315 0.502858341 0.0371666662
v 0.629624963 0.502624989 0.0359999985
v 0.629624963 -0.502624989 0.0359999985
v 0.629858315 -0.502858341 0.0371666662
v -0.629858315 -0.502858341 0.0371666662
v -0.629624963 -0.502624989 0.0359999985
v -0.629624963 0.502624989 0.0359999985
v -0.629858315 0.502858341 0.0371666662
v 0.629624963 -0.502624989 0.0359999985
v 0.629624963 0.502624989 0.0359999985
v 0.629624963 0.502624989 0.0267000012
v 0.629624963 -0.502624989 0.0267000012
v -0.629624963 0.502624989 0.0359999985
v -0.629624963 -0.502624989 0.0359999985
v -0.629624963 -0.502624989 0.0267000012
v -0.629624963 0.502624989 0.0267000012
vt -0.593750477 0.537500024
vt 1.59374976 0.537500024
vt 1.59374976 0.466633856
vt -0.593750477 0.466633856
vt -0.593750477 0.537500024
vt 1.59374976 0.537500024
vt 1.59374976 0.466633856
vt -0.593750477 0.466633856
vt 1.59374976 0.466633856
vt 1.59329045 0.464337289
vt -0.593291163 0.464337289
vt -0.593750477 0.466633856
vt 1.59374976 0.466633856
vt 1.59329045 0.464337289
vt -0.593291163 0.464337289
vt -0.593750477 0.466633856
vt -0.843750358 0.537500024
vt 1.84374988 0.537500024
vt 1.84374988 0.466633856
vt -0.843750358 0.466633856
vt -0.843750358 0.537500024
vt 1.84374988 0.537500024
vt 1.84374988 0.466633856
vt -0.843750358 0.466633856
vt 1.84374988 0.466633856
vt 1.84329057 0.464337289
vt -0.843291044 0.464337289
vt -0.843750358 0.466633856
vt 1.84374988 0.466633856
vt 1.84329057 0.464337289
vt -0.843291044 0.464337289
vt -0.843750358 0.466633856
vt 1.59329045 0.464337289
vt 1.59191251 0.46295929
vt -0.591913223 0.46295929
vt -0.593291163 0.464337289
vt 1.59329045 0.464337289
vt 1.59191251 0.46295929
vt -0.591913223 0.46295929
vt -0.593291163 0.464337289
vt 1.84329057 0.464337289
vt 1.84191263 0.46295929
vt -0.841913104 0.46295929
vt -0.843291044 0.464337289
vt 1.84329057 0.464337289
vt 1.84191263 0.46295929
vt -0.841913104 0.46295929
vt -0.843291044 0.464337289
vt 1.8419131 -0.591912508
vt 1.83961642 -0.589615941
vt 1.83961594 1.58961666
vt 1.84191263 1.59191322
vt -0.841913104 1.59191251
vt -0.839616418 1.58961594
vt -0.839615941 -0.589616656
vt -0.841912627 -0.591913223
vt 1.84191263 1.59191322
vt 1.83961594 1.58961666
vt -0.839616418 1.58961594
vt -0.841913104 1.59191251
vt -0.841912627 -0.591913223
vt -0.839615941 -0.589616656
vt 1.83961642 -0.589615941
vt 1.8419131 -0.591912508
vt 1.84375036 1.59374976
vt 1.84374988 -0.593750477
vt -0.843750358 -0.593749762
vt -0.843749881 1.59375048
vt -0.839616418 1.58961594
vt 1.83961594 1.58961666
vt 1.74355292 1.49355352
vt 1.7435534 -0.493552923
vt -0.7435534 1.49355292
vt 1.83961642 -0.589615941
vt -0.839615941 -0.589616656
vt -0.743552923 -0.493553519
vt 1.74355292 1.49355352
vt 1.74125636 1.49125695
vt -0.741256833 1.49125636
vt -0.7435534 1.49355292
vt -0.743552923 -0.493553519
vt -0.741256356 -0.491256952
vt 1.74125683 -0.491256356
vt 1.7435534 -0.493552923
vt 1.7435534 -0.493552923
vt 1.74125683 -0.491256356
vt 1.74125636 1.49125695
vt 1.74355292 1.49355352
vt -0.7435534 1.49355292
vt -0.741256833 1.49125636
vt -0.741256356 -0.491256952
vt -0.743552923 -0.493553519
vt -0.741256356 0.46295929
vt -0.739878416 0.464337289
vt 1.73987889 0.464337289
vt 1.74125683 0.46295929
vt -0.741256356 0.46295929
vt -0.739878416 0.464337289
vt 1.73987889 0.464337289
vt 1.74125683 0.46295929
vt -0.491256356 0.46295929
vt -0.489878416 0.464337289
vt 1.48987901 0.464337289
vt 1.49125695 0.46295929
vt -0.491256356 0.46295929
vt -0.489878416 0.464337289
vt 1.48987901 0.464337289
vt 1.49125695 0.46295929
vt -0.739878416 0.464337289
vt -0.739419103 0.466633856
vt 1.73941958 0.466633856
vt 1.73987889 0.464337289
vt -0.739878416 0.464337289
vt -0.739419103 0.466633856
vt 1.73941958 0.466633856
vt 1.73987889 0.464337289
vt 1.73941958 0.466633856
vt -0.739419103 0.466633856
vt -0.739419103 0.484940946
vt 1.73941958 0.484940946
vt 1.73941958 0.466633856
vt -0.739419103 0.466633856
vt -0.739419103 0.484940946
vt 1.73941958 0.484940946
vt -0.489878416 0.464337289
vt -0.489419103 0.466633856
vt 1.4894197 0.466633856
vt 1.48987901 0.464337289
vt -0.489878416 0.464337289
vt -0.489419103 0.466633856
vt 1.4894197 0.466633856
vt 1.48987901 0.464337289
vt 1.4894197 0.466633856
vt -0.489419103 0.466633856
vt -0.489419103 0.484940946
vt 1.4894197 0.484940946
vt 1.4894197 0.466633856
vt -0.489419103 0.466633856
vt -0.489419103 0.484940946
vt 1.4894197 0.484940946
f 1/1 2/2 3/3
f 3/3 4/4 1/1
f 5/5 6/6 7/7
f 7/7 8/8 5/5
f 9/9 10/10 11/11
f 11/11 12/12 9/9
f 13/13 14/14 15/15
f 15/15 16/16 13/13
f 17/17 18/18 19/19
f 19/19 20/20 17/17
f 21/21 22/22 23/23
f 23/23 24/24 21/21
f 25/25 26/26 27/27
f 27/27 28/28 25/25
f 29/29 30/30 31/31
f 31/31 32/32 29/29
f 33/33 34/34 35/35
f 35/35 36/36 33/33
f 37/37 38/38 39/39
f 39/39 40/40 37/37
f 41/41 42/42 43/43
f 43/43 44/44 41/41
f 45/45 46/46 47/47
f 47/47 48/48 45/45
f 49/49 50/50 51/51
f 51/51 52/52 49/49
f 53/53 54/54 55/55
f 55/55 56/56 53/53
f 57/57 58/58 59/59
f 59/59 60/60 57/57
f 61/61 62/62 63/63
f 63/63 64/64 61/61
f 65/65 66/66 67/67
f 67/67 68/68 65/65
f 69/69 70/70 71/71
f 72/72 71/71 70/70
f 71/71 73/73 69/69
f 70/70 74/74 72/72
f 75/75 69/69 73/73
f 76/76 72/72 74/74
f 74/74 75/75 76/76
f 73/73 76/76 75/75
f 77/77 78/78 79/79
f 79/79 80/80 77/77
f 81/81 82/82 83/83
f 83/83 84/84 81/81
f 85/85 86/86 87/87
f 87/87 88/88 85/85
f 89/89 90/90 91/91
f 91/91 92/92 89/89
f 93/93 94/94 95/95
f 95/95 96/96 93/93
f 97/97 98/98 99/99
f 99/99 100/100 97/97
f 101/101 102/102 103/103
f 103/103 104/104 101/101
f 105/105 106/106 107/107
f 107/107 108/108 105/105
f 109/109 110/110 111/111
f 111/111 112/112 109/109
f 113/113 114/114 115/115
f 115/115 116/116 113/113
f 117/117 118/118 119/119
f 119/119 120/120 117/117
f 121/121 122/122 123/123
f 123/123 124/124 121/121
f 125/125 126/126 127/127
f 127/127 128/128 125/125
f 129/129 130/130 131/131
f 131/131 132/132 129/129
f 133/133 134/134 135/135
f 135/135 136/136 133/133
f 137/137 138/138 139/139
f 139/139 140/140 137/137
