v -0.627524972 -0.500524998 0.015300001
v 0.627524972 -0.500524998 0.015300001
v 0.624324977 -0.497325033 0.015300001
v 0.624324977 0.497325033 0.015300001
v -0.624324977 -0.497325033 0.015300001
v 0.627524972 0.500524998 0.015300001
v -0.627524972 0.500524998 0.015300001
v -0.624324977 0.497325033 0.015300001
v 0.628691614 -0.501691639 0.0155333336
v 0.627524972 -0.500524998 0.015300001
v -0.627524972 -0.500524998 0.015300001
v -0.628691614 -0.501691639 0.0155333336
v -0.628691614 0.501691639 0.0155333336
v -0.627524972 0.500524998 0.015300001
v 0.627524972 0.500524998 0.015300001
v 0.628691614 0.501691639 0.0155333336
v 0.628691614 0.501691639 0.0155333336
v 0.627524972 0.500524998 0.015300001
v 0.627524972 -0.500524998 0.015300001
v 0.628691614 -0.501691639 0.0155333336
v -0.628691614 -0.501691639 0.0155333336
v -0.627524972 -0.500524998 0.015300001
v -0.627524972 0.500524998 0.015300001
v -0.628691614 0.501691639 0.0155333336
v 0.629391611 -0.502391636 0.0162333343
v 0.628691614 -0.501691639 0.0155333336
v -0.628691614 -0.501691639 0.0155333336
v -0.629391611 -0.502391636 0.0162333343
v -0.629391611 0.502391636 0.0162333343
v -0.628691614 0.501691639 0.0155333336
v 0.628691614 0.501691639 0.0155333336
v 0.629391611 0.502391636 0.0162333343
v 0.629391611 0.502391636 0.0162333343
v 0.628691614 0.501691639 0.0155333336
v 0.628691614 -0.501691639 0.0155333336
v 0.629391611 -0.502391636 0.0162333343
v -0.629391611 -0.502391636 0.0162333343
v -0.628691614 -0.501691639 0.0155333336
v -0.628691614 0.501691639 0.0155333336
v -0.629391611 0.502391636 0.0162333343
v 0.629624963 -0.502624989 0.0174000021
v 0.629391611 -0.502391636 0.0162333343
v -0.629391611 -0.502391636 0.0162333343
v -0.629624963 -0.502624989 0.0174000021
v -0.629624963 0.502624989 0.0174000021
v -0.629391611 0.502391636 0.0162333343
v 0.629391611 0.502391636 0.0162333343
v 0.629624963 0.502624989 0.0174000021
v -0.629624963 -0.502624989 0.0267000012
v 0.629624963 -0.502624989 0.0267000012
v 0.629624963 -0.502624989 0.0174000021
v -0.629624963 -0.502624989 0.0174000021
v 0.629624963 0.502624989 0.0267000012
v -0.629624963 0.502624989 0.0267000012
v -0.629624963 0.502624989 0.0174000021
v 0.629624963 0.502624989 0.0174000021
v 0.629624963 0.502624989 0.0174000021
v 0.629391611 0.502391636 0.0162333343
v 0.629391611 -0.502391636 0.0162333343
v 0.629624963 -0.502624989 0.0174000021
v -0.629624963 -0.502624989 0.0174000021
v -0.629391611 -0.502391636 0.0162333343
v -0.629391611 0.502391636 0.0162333343
v -0.629624963 0.502624989 0.0174000021
v 0.629624963 -0.502624989 0.0267000012
v 0.629624963 0.502624989 0.0267000012
v 0.629624963 0.502624989 0.0174000021
v 0.629624963 -0.502624989 0.0174000021
v -0.629624963 0.502624989 0.0267000012
v -0.629624963 -0.502624989 0.0267000012
v -0.629624963 -0.502624989 0.0174000021
v -0.629624963 0.502624989 0.0174000021
f 1 2 3
f 4 3 2
f 3 5 1
f 2 6 4
f 7 1 5
f 8 4 6
f 6 7 8
f 5 8 7
f 9 10 11
f 11 12 9
f 13 14 15
f 15 16 13
f 17 18 19
f 19 20 17
f 21 22 23
f 23 24 21
f 25 26 27
f 27 28 25
f 29 30 31
f 31 32 29
f 33 34 35
f 35 36 33
f 37 38 39
f 39 40 37
f 41 42 43
f 43 44 41
f 45 46 47
f 47 48 45
f 49 50 51
f 51 52 49
f 53 54 55
f 55 56 53
f 57 58 59
f 59 60 57
f 61 62 63
f 63 64 61
f 65 66 67
f 67 68 65
f 69 70 71
f 71 72 69
