v 0.0921172649 -0.0515805967 0.00855981652
v 0.0921172649 -0.0443315692 0.00855981652
v 0.0921172649 -0.0443315692 0.0139125464
v 0.0921172649 -0.0515805967 0.0139125464
v -0.0900715068 -0.0133995684 0.010564982
v -0.0900715068 -0.0133995684 0.0128069315
v -0.0895271525 -0.0132912882 0.0128069315
v -0.0895271525 -0.0132912882 0.010564982
v -0.0905329958 -0.0137079228 0.010564982
v -0.0905329958 -0.0137079228 0.0128069315
v -0.0908413529 -0.0141694108 0.010564982
v -0.0908413529 -0.0141694108 0.0128069315
v -0.0909496322 -0.0147137698 0.010564982
v -0.0909496322 -0.0147137698 0.0128069315
v -0.0909496322 -0.0561238304 0.010564982
v -0.0909496322 -0.0561238304 0.0128069315
v -0.0908413529 -0.0566681884 0.010564982
v -0.0908413529 -0.0566681884 0.0128069315
v -0.0905329958 -0.0571296774 0.010564982
v -0.0905329958 -0.0571296774 0.0128069315
v -0.0900715068 -0.0574380308 0.010564982
v -0.0900715068 -0.0574380308 0.0128069315
v -0.0895271525 -0.0575463101 0.010564982
v -0.0895271525 -0.0575463101 0.0128069315
v -0.0397402495 -0.0575463101 0.010564982
v -0.0397402495 -0.0575463101 0.0128069315
v -0.0123540107 -0.0515805967 0.00855981652
v 0.0921172649 -0.0515805967 0.00855981652
v 0.0921172649 -0.0515805967 0.0139125464
v -0.0123540107 -0.0515805967 0.0139125464
v -0.0391958877 -0.0574380308 0.010564982
v -0.0391958877 -0.0574380308 0.0128069315
v -0.0387344025 -0.0571296774 0.010564982
v -0.0387344025 -0.0571296774 0.0128069315
v -0.0384260491 -0.0566681884 0.010564982
v -0.0384260491 -0.0566681884 0.0128069315
v -0.038317766 -0.0561238304 0.010564982
v -0.038317766 -0.0561238304 0.0128069315
v -0.038317766 -0.0147137698 0.010564982
v -0.038317766 -0.0147137698 0.0128069315
v -0.0384260491 -0.0141694108 0.010564982
v -0.0384260491 -0.0141694108 0.0128069315
v -0.0387344025 -0.0137079228 0.010564982
v -0.0387344025 -0.0137079228 0.0128069315
v -0.0391958877 -0.0133995684 0.010564982
v -0.0391958877 -0.0133995684 0.0128069315
v -0.0397402495 -0.0132912882 0.010564982
v -0.0397402495 -0.0132912882 0.0128069315
v -0.0895271525 -0.0132912882 0.010564982
v -0.0895271525 -0.0132912882 0.0128069315
v -0.0900300741 -0.0134996064 0.0100206211
v -0.0900715068 -0.0133995684 0.010564982
v -0.0895271525 -0.0132912882 0.010564982
v -0.0904564336 -0.0137844887 0.0100206211
v -0.0905329958 -0.0137079228 0.010564982
v -0.0895271525 -0.0133995684 0.0100206211
v -0.0397402495 -0.0132912882 0.010564982
v -0.0902383924 -0.014002529 0.00955913495
v -0.0397402495 -0.0133995684 0.0100206211
v -0.0391958877 -0.0133995684 0.010564982
v -0.0899120718 -0.0137844887 0.00955913495
v -0.0895271525 -0.0137079228 0.00955913495
v -0.0392373279 -0.0134996064 0.0100206211
v -0.0387344025 -0.0137079228 0.010564982
v -0.0397402495 -0.0137079228 0.00955913495
v -0.0897354707 -0.0142108472 0.00925077964
v -0.0895271525 -0.0141694108 0.00925077964
v -0.0388109684 -0.0137844887 0.0100206211
v -0.0384260491 -0.0141694108 0.010564982
v -0.0393553302 -0.0137844887 0.00955913495
v -0.0395319313 -0.0142108472 0.00925077964
v -0.0895271525 -0.0147137698 0.00914250035
v -0.0899120718 -0.0143288504 0.00925077964
v -0.0900300741 -0.0145054515 0.00925077964
v -0.0904564336 -0.0143288504 0.00955913495
v -0.090741314 -0.0142108472 0.0100206211
v -0.0908413529 -0.0141694108 0.010564982
v -0.0905329958 -0.0147137698 0.00955913495
v -0.0908413529 -0.0147137698 0.0100206211
v -0.0909496322 -0.0147137698 0.010564982
v -0.0900715068 -0.0561238304 0.00925077964
v -0.0908413529 -0.0561238304 0.0100206211
v -0.0905329958 -0.0561238304 0.00955913495
v -0.0909496322 -0.0561238304 0.010564982
v -0.0900300741 -0.0563321486 0.00925077964
v -0.0895271525 -0.0561238304 0.00914250035
v -0.090741314 -0.056626752 0.0100206211
v -0.0904564336 -0.0565087497 0.00955913495
v -0.0908413529 -0.0566681884 0.010564982
v -0.0899120718 -0.0565087497 0.00925077964
v -0.0902383924 -0.0568350703 0.00955913495
v -0.0904564336 -0.0570531115 0.0100206211
v -0.0905329958 -0.0571296774 0.010564982
v -0.0897354707 -0.056626752 0.00925077964
v -0.0899120718 -0.0570531115 0.00955913495
v -0.0900300741 -0.0573379919 0.0100206211
v -0.0900715068 -0.0574380308 0.010564982
v -0.0895271525 -0.0571296774 0.00955913495
v -0.0895271525 -0.0574380308 0.0100206211
v -0.0895271525 -0.0575463101 0.010564982
v -0.0395319313 -0.056626752 0.00925077964
v -0.0397402495 -0.0574380308 0.0100206211
v -0.0397402495 -0.0571296774 0.00955913495
v -0.0397402495 -0.0575463101 0.010564982
v -0.0397402495 -0.0561238304 0.00914250035
v -0.0392373279 -0.0573379919 0.0100206211
v -0.0393553302 -0.0570531115 0.00955913495
v -0.0391958877 -0.0574380308 0.010564982
v -0.0393553302 -0.0565087497 0.00925077964
v -0.0390290096 -0.0568350703 0.00955913495
v -0.0123540107 -0.0515805967 0.0139125464
v 0.0921172649 -0.0515805967 0.0139125464
v 0.0921172649 -0.0443315692 0.0139125464
v -0.0123540107 -0.0443315692 0.0139125464
v -0.0900715068 -0.0133995684 0.0128069315
v -0.0900300741 -0.0134996064 0.0133512914
v -0.0895271525 -0.0133995684 0.0133512914
v -0.0905329958 -0.0137079228 0.0128069315
v -0.0895271525 -0.0132912882 0.0128069315
v -0.0904564336 -0.0137844887 0.0133512914
v -0.0397402495 -0.0133995684 0.0133512914
v -0.0908413529 -0.0141694108 0.0128069315
v -0.0397402495 -0.0132912882 0.0128069315
v -0.090741314 -0.0142108472 0.0133512914
v -0.0392373279 -0.0134996064 0.0133512914
v -0.0909496322 -0.0147137698 0.0128069315
v -0.0391958877 -0.0133995684 0.0128069315
v -0.0908413529 -0.0147137698 0.0133512914
v -0.0388109684 -0.0137844887 0.0133512914
v -0.0909496322 -0.0561238304 0.0128069315
v -0.0387344025 -0.0137079228 0.0128069315
v -0.0908413529 -0.0561238304 0.0133512914
v -0.0385260843 -0.0142108472 0.0133512914
v -0.0908413529 -0.0566681884 0.0128069315
v -0.0384260491 -0.0141694108 0.0128069315
v -0.090741314 -0.056626752 0.0133512914
v -0.0384260491 -0.0147137698 0.0133512914
v -0.0905329958 -0.0571296774 0.0128069315
v -0.038317766 -0.0147137698 0.0128069315
v -0.0904564336 -0.0570531115 0.0133512914
v -0.0384260491 -0.0561238304 0.0133512914
v -0.0900715068 -0.0574380308 0.0128069315
v -0.038317766 -0.0561238304 0.0128069315
v -0.0900300741 -0.0573379919 0.0133512914
v -0.0385260843 -0.056626752 0.0133512914
v -0.0895271525 -0.0575463101 0.0128069315
v -0.0384260491 -0.0566681884 0.0128069315
v -0.0895271525 -0.0574380308 0.0133512914
v -0.0388109684 -0.0570531115 0.0133512914
v -0.0397402495 -0.0575463101 0.0128069315
v -0.0387344025 -0.0571296774 0.0128069315
v -0.0397402495 -0.0574380308 0.0133512914
v -0.0392373279 -0.0573379919 0.0133512914
v -0.0391958877 -0.0574380308 0.0128069315
v -0.0123540107 -0.0515805967 0.00855981652
v -0.0123540107 -0.0443315692 0.00855981652
v 0.0921172649 -0.0443315692 0.00855981652
v 0.0921172649 -0.0515805967 0.00855981652
v -0.0388109684 -0.0570531115 0.0100206211
v -0.0387344025 -0.0571296774 0.010564982
v -0.0392373279 -0.0563321486 0.00925077964
v -0.0388109684 -0.0565087497 0.00955913495
v -0.0385260843 -0.056626752 0.0100206211
v -0.0384260491 -0.0566681884 0.010564982
v -0.0387344025 -0.0561238304 0.00955913495
v -0.0384260491 -0.0561238304 0.0100206211
v -0.038317766 -0.0561238304 0.010564982
v -0.0392373279 -0.0145054515 0.00925077964
v -0.0397402495 -0.0147137698 0.00914250035
v -0.0387344025 -0.0147137698 0.00955913495
v -0.0384260491 -0.0147137698 0.0100206211
v -0.038317766 -0.0147137698 0.010564982
v -0.0388109684 -0.0143288504 0.00955913495
v -0.0385260843 -0.0142108472 0.0100206211
v -0.0390290096 -0.014002529 0.00955913495
v -0.0393553302 -0.0143288504 0.00925077964
v 0.0921172649 -0.0443315692 0.00855981652
v -0.0123540107 -0.0443315692 0.00855981652
v -0.0123540107 -0.0443315692 0.0139125464
v 0.0921172649 -0.0443315692 0.0139125464
v -0.0123540107 -0.0443315692 0.00855981652
v -0.0123540107 -0.0515805967 0.00855981652
v -0.0123540107 -0.0515805967 0.0139125464
v -0.0123540107 -0.0443315692 0.0139125464
f 1 2 3
f 3 4 1
f 5 6 7
f 7 8 5
f 6 5 9
f 9 10 6
f 10 9 11
f 11 12 10
f 12 11 13
f 13 14 12
f 14 13 15
f 15 16 14
f 16 15 17
f 17 18 16
f 18 17 19
f 19 20 18
f 20 19 21
f 21 22 20
f 22 21 23
f 23 24 22
f 24 23 25
f 25 26 24
f 27 28 29
f 29 30 27
f 26 25 31
f 31 32 26
f 32 31 33
f 33 34 32
f 34 33 35
f 35 36 34
f 36 35 37
f 37 38 36
f 38 37 39
f 39 40 38
f 40 39 41
f 41 42 40
f 42 41 43
f 43 44 42
f 44 43 45
f 45 46 44
f 46 45 47
f 47 48 46
f 48 47 49
f 49 50 48
f 51 52 53
f 52 51 54
f 54 55 52
f 53 56 51
f 56 53 57
f 58 54 51
f 57 59 56
f 59 57 60
f 61 51 56
f 51 61 58
f 62 56 59
f 56 62 61
f 60 63 59
f 63 60 64
f 59 65 62
f 65 59 63
f 66 61 62
f 67 62 65
f 62 67 66
f 64 68 63
f 68 64 69
f 63 70 65
f 70 63 68
f 65 71 67
f 71 65 70
f 67 72 66
f 72 67 71
f 61 66 73
f 66 72 73
f 73 58 61
f 58 73 74
f 73 72 74
f 74 75 58
f 54 58 75
f 75 76 54
f 55 54 76
f 76 77 55
f 76 75 78
f 74 78 75
f 77 76 79
f 78 79 76
f 79 80 77
f 78 74 81
f 80 79 82
f 79 78 83
f 81 83 78
f 83 82 79
f 82 84 80
f 83 81 85
f 86 81 74
f 81 86 85
f 74 72 86
f 84 82 87
f 82 83 88
f 85 88 83
f 88 87 82
f 87 89 84
f 88 85 90
f 85 86 90
f 87 88 91
f 90 91 88
f 89 87 92
f 91 92 87
f 92 93 89
f 91 90 94
f 90 86 94
f 92 91 95
f 94 95 91
f 93 92 96
f 95 96 92
f 96 97 93
f 96 95 98
f 94 98 95
f 97 96 99
f 98 99 96
f 99 100 97
f 98 94 101
f 100 99 102
f 99 98 103
f 101 103 98
f 103 102 99
f 102 104 100
f 105 101 94
f 94 86 105
f 104 102 106
f 102 103 107
f 101 107 103
f 107 106 102
f 106 108 104
f 107 101 109
f 101 105 109
f 106 107 110
f 109 110 107
f 111 112 113
f 113 114 111
f 115 116 117
f 116 115 118
f 117 119 115
f 118 120 116
f 119 117 121
f 120 118 122
f 121 123 119
f 122 124 120
f 123 121 125
f 124 122 126
f 125 127 123
f 126 128 124
f 127 125 129
f 128 126 130
f 129 131 127
f 130 132 128
f 131 129 133
f 132 130 134
f 133 135 131
f 134 136 132
f 135 133 137
f 136 134 138
f 137 139 135
f 138 140 136
f 139 137 141
f 140 138 142
f 141 143 139
f 142 144 140
f 143 141 145
f 144 142 146
f 145 147 143
f 146 148 144
f 147 145 149
f 148 146 150
f 149 151 147
f 150 152 148
f 151 149 153
f 152 150 154
f 153 154 151
f 154 153 152
f 155 156 157
f 157 158 155
f 108 106 159
f 110 159 106
f 159 160 108
f 110 109 161
f 109 105 161
f 159 110 162
f 161 162 110
f 160 159 163
f 162 163 159
f 163 164 160
f 163 162 165
f 161 165 162
f 164 163 166
f 165 166 163
f 166 167 164
f 165 161 168
f 161 105 169
f 169 168 161
f 169 105 86
f 86 72 169
f 71 169 72
f 166 165 170
f 168 170 165
f 167 166 171
f 170 171 166
f 171 172 167
f 171 170 173
f 168 173 170
f 172 171 174
f 173 174 171
f 174 69 172
f 69 174 68
f 175 68 174
f 174 173 175
f 68 175 70
f 173 168 176
f 176 175 173
f 168 169 176
f 71 70 175
f 175 176 71
f 176 169 71
f 177 178 179
f 179 180 177
f 181 182 183
f 183 184 181
