v -0.11020992 -0.110666052 0.0115585849
v -0.11020992 -0.110705495 0.0113602187
v -0.11020992 -0.11081785 0.011192048
v -0.11020992 -0.110817894 0.0119251031
v -0.11020992 -0.110705525 0.0117569454
v -0.11020992 -0.110986069 0.0120374551
v -0.11020992 -0.111184433 0.0120768994
v -0.11020992 -0.111382797 0.01203743
v -0.11020992 -0.11155095 0.0119250547
v -0.11020992 -0.111663304 0.011756883
v -0.11020992 -0.111702748 0.0115585178
v -0.11020992 -0.111663282 0.0113601573
v -0.11020992 -0.111550905 0.0111919995
v -0.11020992 -0.111184366 0.0110402033
v -0.11020992 -0.11138273 0.0110796466
v -0.11020992 -0.110986009 0.0110796727
v -0.11020992 -0.0989572704 0.0115585849
v -0.11020992 -0.0989967138 0.0113602187
v -0.11020992 -0.0991090611 0.011192048
v -0.11020992 -0.0991091132 0.0119251031
v -0.11020992 -0.0989967361 0.0117569454
v -0.11020992 -0.0992772803 0.0120374551
v -0.11020992 -0.099475652 0.0120768994
v -0.11020992 -0.0996740088 0.01203743
v -0.11020992 -0.0998421684 0.0119250547
v -0.11020992 -0.0999545231 0.011756883
v -0.11020992 -0.0999939665 0.0115585178
v -0.11020992 -0.0999544933 0.0113601573
v -0.11020992 -0.0998421162 0.0111919995
v -0.11020992 -0.0994755849 0.0110402033
v -0.11020992 -0.0996739492 0.0110796466
v -0.11020992 -0.0992772207 0.0110796727
v -0.0951775238 -0.1076793 0.0130104208
v 0.10856276 -0.10765671 0.0130197769
v 0.10856276 -0.107366055 0.0115585607
v -0.0951775238 -0.108501717 0.0142412474
v 0.10856276 -0.108484425 0.0142585356
v -0.0951775238 -0.107390501 0.0115585607
v -0.11020992 -0.110817894 0.0119251031
v -0.11020992 -0.110705525 0.0117569454
v -0.11020992 -0.110986069 0.0120374551
v -0.11020992 -0.110666052 0.0115585849
v 0.10856276 -0.10765671 0.0100973444
v -0.0951775238 -0.107679293 0.0101066977
v -0.11020992 -0.110705495 0.0113602187
v 0.10856276 -0.108484425 0.00885858573
v -0.0951775238 -0.108501703 0.00887586921
v -0.11020992 -0.11081785 0.011192048
v 0.10856276 -0.109723181 0.00803087279
v -0.0951775238 -0.109732531 0.00805345178
v -0.11020992 -0.110986009 0.0110796727
v 0.10856276 -0.111184403 0.00774021866
v -0.0951775238 -0.111184388 0.00776465423
v -0.11020992 -0.111184366 0.0110402033
v 0.10856276 -0.112645619 0.00803087279
v -0.0951775238 -0.112636253 0.00805344433
v -0.11020992 -0.11138273 0.0110796466
v 0.10856276 -0.113884374 0.0088585848
v -0.0951775238 -0.113867082 0.00887585524
v -0.11020992 -0.111550905 0.0111919995
v 0.10856276 -0.114712089 0.0100973453
v -0.0951775238 -0.114689499 0.0101066818
v -0.11020992 -0.111663282 0.0113601573
v 0.10856276 -0.115002744 0.0115585607
v -0.0951775238 -0.114978299 0.011558543
v -0.11020992 -0.111702748 0.0115585178
v 0.10856276 -0.114712089 0.0130197769
v -0.0951775238 -0.114689507 0.0130104041
v -0.11020992 -0.111663304 0.011756883
v 0.10856276 -0.113884374 0.0142585365
v -0.0951775238 -0.113867097 0.0142412353
v -0.11020992 -0.11155095 0.0119250547
v 0.10856276 -0.112645619 0.0150862485
v -0.0951775238 -0.112636268 0.0150636518
v -0.11020992 -0.111382797 0.01203743
v 0.10856276 -0.111184403 0.0153769022
v -0.0951775238 -0.111184411 0.0153524484
v -0.11020992 -0.111184433 0.0120768994
v 0.10856276 -0.109723181 0.0150862485
v -0.0951775238 -0.109732546 0.0150636584
v -0.0951775238 -0.0959705114 0.0130104208
v 0.10856276 -0.0959479287 0.0130197769
v 0.10856276 -0.0956572741 0.0115585607
v -0.0951775238 -0.0967929289 0.0142412474
v 0.10856276 -0.0967756361 0.0142585356
v -0.0951775238 -0.0956817195 0.0115585607
v -0.11020992 -0.0991091132 0.0119251031
v -0.11020992 -0.0989967361 0.0117569454
v -0.11020992 -0.0992772803 0.0120374551
v -0.11020992 -0.0989572704 0.0115585849
v 0.10856276 -0.0959479287 0.0100973444
v -0.0951775238 -0.0959705114 0.0101066977
v -0.11020992 -0.0989967138 0.0113602187
v 0.10856276 -0.0967756361 0.00885858573
v -0.0951775238 -0.0967929214 0.00887586921
v -0.11020992 -0.0991090611 0.011192048
v 0.10856276 -0.0980143994 0.00803087279
v -0.0951775238 -0.0980237424 0.00805345178
v -0.11020992 -0.0992772207 0.0110796727
v 0.10856276 -0.0994756147 0.00774021866
v -0.0951775238 -0.0994756073 0.00776465423
v -0.11020992 -0.0994755849 0.0110402033
v 0.10856276 -0.10093683 0.00803087279
v -0.0951775238 -0.100927465 0.00805344433
v -0.11020992 -0.0996739492 0.0110796466
v 0.10856276 -0.102175593 0.0088585848
v -0.0951775238 -0.102158301 0.00887585524
v -0.11020992 -0.0998421162 0.0111919995
v 0.10856276 -0.103003301 0.0100973453
v -0.0951775238 -0.102980718 0.0101066818
v -0.11020992 -0.0999544933 0.0113601573
v 0.10856276 -0.103293955 0.0115585607
v -0.0951775238 -0.10326951 0.011558543
v -0.11020992 -0.0999939665 0.0115585178
v 0.10856276 -0.103003301 0.0130197769
v -0.0951775238 -0.102980725 0.0130104041
v -0.11020992 -0.0999545231 0.011756883
v 0.10856276 -0.102175593 0.0142585365
v -0.0951775238 -0.102158315 0.0142412353
v -0.11020992 -0.0998421684 0.0119250547
v 0.10856276 -0.10093683 0.0150862485
v -0.0951775238 -0.100927487 0.0150636518
v -0.11020992 -0.0996740088 0.01203743
v 0.10856276 -0.0994756147 0.0153769022
v -0.0951775238 -0.0994756222 0.0153524484
v -0.11020992 -0.099475652 0.0120768994
v 0.10856276 -0.0980143994 0.0150862485
v -0.0951775238 -0.0980237648 0.0150636584
v 0.109631851 -0.111184403 0.0120284706
v 0.109617122 -0.111184403 0.0122162513
v 0.109617122 -0.111436084 0.0121661872
v 0.109631851 -0.111364223 0.0119927004
v 0.109641664 -0.111292265 0.0118189761
v 0.109646559 -0.111148551 0.0116451029
v 0.109631851 -0.111516677 0.011890837
v 0.109617122 -0.111649454 0.0120236184
v 0.109617122 -0.111792028 0.0118102478
v 0.109597489 -0.111965187 0.0118819736
v 0.109631851 -0.111618541 0.0113787344
v 0.109641664 -0.111466274 0.0115585616
v 0.109641664 -0.111444816 0.0114506939
v 0.109617122 -0.111792028 0.0113068735
v 0.109597489 -0.111965187 0.0112351486
v 0.109617122 -0.111649461 0.0110935038
v 0.109597489 -0.111781992 0.0109609729
v 0.109631851 -0.111516677 0.0112262852
v 0.109597489 -0.111507811 0.0107777743
v 0.109641664 -0.111383714 0.0113592483
v 0.109617122 -0.111436091 0.0109509341
v 0.109631851 -0.111364231 0.0111244209
v 0.109646559 -0.111250639 0.0114923241
v 0.109646559 -0.111220248 0.0114720184
v 0.109641664 -0.111292265 0.0112981461
v 0.109631851 -0.111184403 0.0110886516
v 0.109646559 -0.111148551 0.0114720184
v 0.109646559 -0.111097857 0.0115227131
v 0.109641664 -0.111184403 0.0112766894
v 0.109646559 -0.111184403 0.0114648882
v 0.109641664 -0.111076534 0.0112981452
v 0.109646559 -0.11111816 0.0114923241
v 0.109631851 -0.111004576 0.0111244209
v 0.109641664 -0.110985085 0.0113592474
v 0.109631851 -0.110714488 0.0115585607
v 0.109617122 -0.110576771 0.0113068735
v 0.109641664 -0.099215202 0.0116664283
v 0.109646559 -0.0994093791 0.0116247972
v 0.109646559 -0.099381946 0.0115585607
v 0.109646559 -0.0993890762 0.0115227131
v 0.109641664 -0.0991937444 0.0115585607
v 0.109641664 -0.0992763042 0.0117578739
v 0.109631851 -0.0990414768 0.0117383869
v 0.109646559 -0.09943977 0.0116451029
v 0.109641664 -0.0993677452 0.0118189761
v 0.109631851 -0.0991433412 0.011890837
v 0.109631851 -0.0992957875 0.0119927004
v 0.109641664 -0.0994756147 0.011840432
v 0.109617122 -0.0990105569 0.0120236175
v 0.109617122 -0.0994756147 0.0122162513
v 0.109646559 -0.111090727 0.0115585607
v 0.109646559 -0.11111816 0.0116247972
v 0.109631851 -0.111004576 0.0119927004
v 0.109617122 -0.110576771 0.0118102478
v 0.109631851 -0.110852122 0.011890837
v 0.109617122 -0.0997273028 0.0121661872
v 0.109646559 -0.0994756147 0.011652234
v 0.109631851 -0.0996554419 0.0119927004
v 0.109641664 -0.0995834842 0.0118189761
v 0.109631851 -0.0998078883 0.011890837
v 0.109617122 -0.0999406725 0.0120236184
v 0.109641664 -0.0996749252 0.0117578739
v 0.109646559 -0.0995418504 0.0116247982
v 0.109646559 -0.0995621607 0.0115944082
v 0.109641664 -0.0997360274 0.0116664283
v 0.109617122 -0.100083239 0.0118102478
v 0.109646559 -0.0995621607 0.011522714
v 0.109597489 -0.100256398 0.0118819736
v 0.109631851 -0.0999455228 0.0115585616
v 0.109631851 -0.0999097526 0.0113787344
v 0.109641664 -0.0997360274 0.0114506939
v 0.109617122 -0.100133307 0.0115585616
v 0.109617122 -0.100083239 0.0113068735
v 0.109572954 -0.100429147 0.0119535262
v 0.109597489 -0.100256406 0.0112351486
v 0.109631851 -0.0998078883 0.0112262852
v 0.109617122 -0.0997273028 0.0109509341
v 0.109572954 -0.100205414 0.0108287605
v 0.109631851 -0.0996554419 0.0111244209
v 0.109641664 -0.0995834842 0.0112981461
v 0.109646559 -0.0995114595 0.0114720184
v 0.109631851 -0.0994756147 0.0110886516
v 0.109646559 -0.09943977 0.0114720184
v 0.109641664 -0.0994756147 0.0112766894
v 0.109646559 -0.0994756147 0.0114648882
v 0.109641664 -0.0993677452 0.0112981452
v 0.109646559 -0.0994093791 0.0114923241
v 0.109631851 -0.0992957875 0.0111244209
v 0.109641664 -0.0992763042 0.0113592474
v 0.109641664 -0.099215202 0.011450693
v 0.109631851 -0.110750258 0.0113787344
v 0.109597489 -0.110403612 0.0118819727
v 0.109617122 -0.110719346 0.0110935038
v 0.109597489 -0.110339284 0.0115585607
v 0.109509148 -0.109886989 0.011021154
v 0.109617122 -0.110932715 0.0109509341
v 0.109597489 -0.110586815 0.0109609729
v 0.109617122 -0.111184403 0.0109008709
v 0.109597489 -0.110860988 0.0107777743
v 0.109597489 -0.111184403 0.0107134432
v 0.109597489 -0.110860988 0.012339347
v 0.109597489 -0.111184403 0.0124036781
v 0.109572954 -0.110789433 0.0125120915
v 0.109572954 -0.111184403 0.0125906551
v 0.109597489 -0.111507811 0.012339348
v 0.109572954 -0.111579366 0.0125120915
v 0.109597489 -0.111781992 0.0121561494
v 0.109572954 -0.112137929 0.0119535262
v 0.109543502 -0.112046026 0.0124201877
v 0.109543502 -0.112402923 0.0115585607
v 0.109543502 -0.112310171 0.0110922521
v 0.109543502 -0.112046026 0.0106969345
v 0.109572954 -0.111579366 0.0106050298
v 0.109543502 -0.111650713 0.010432791
v 0.109572954 -0.111184403 0.0105264662
v 0.109543502 -0.111184403 0.0103400368
v 0.109572954 -0.110789433 0.0106050298
v 0.109572954 -0.110454597 0.0108287605
v 0.109543502 -0.110322773 0.0106969345
v 0.109572954 -0.110152304 0.0115585607
v 0.109543502 -0.109965876 0.0115585607
v 0.109572954 -0.110230871 0.0119535262
v 0.109543502 -0.110058628 0.0120248692
v 0.109543502 -0.110322773 0.0124201877
v 0.109509148 -0.110191405 0.0125515582
v 0.109543502 -0.111184403 0.0127770854
v 0.109509148 -0.110646993 0.012855974
v 0.109509148 -0.111184403 0.0129628712
v 0.109543502 -0.111650713 0.0126843303
v 0.109509148 -0.111721806 0.012855974
v 0.109509148 -0.112177394 0.0125515582
v 0.109509148 -0.112481818 0.0120959673
v 0.109509148 -0.112588711 0.0115585607
v 0.109427311 -0.112436913 0.0128110759
v 0.109509148 -0.112481818 0.0110211549
v 0.109427311 -0.112955727 0.0115585607
v 0.109509148 -0.112177394 0.0105655631
v 0.109509148 -0.111721806 0.0102611473
v 0.109427311 -0.111862257 0.00992207136
v 0.109509148 -0.111184403 0.0101542501
v 0.109509148 -0.110646993 0.0102611473
v 0.109427311 -0.110506542 0.00992207136
v 0.109509148 -0.110191405 0.0105655631
v 0.109427311 -0.109931886 0.0103060463
v 0.109427311 -0.109547913 0.010880704
v 0.109509148 -0.109886989 0.0120959664
v 0.109427311 -0.109547913 0.0122364163
v 0.109427311 -0.109931886 0.012811075
v 0.109427311 -0.110506542 0.0131950499
v 0.109212548 -0.109428905 0.013314059
v 0.109427311 -0.111184403 0.013329884
v 0.109328635 -0.111184403 0.0136892851
v 0.109427311 -0.111862257 0.0131950499
v 0.109328635 -0.112691052 0.0130652105
v 0.109328635 -0.113152936 0.0123739541
v 0.109328635 -0.113315128 0.0115585607
v 0.109212548 -0.113478072 0.0125086298
v 0.109328635 -0.113152936 0.0107431682
v 0.109212548 -0.113667049 0.0115585607
v 0.109212548 -0.113478072 0.0106084924
v 0.109212548 -0.112939902 0.0098030623
v 0.109328635 -0.111999795 0.00959002785
v 0.109328635 -0.111184403 0.00942783616
v 0.109212548 -0.111184403 0.00907591078
v 0.109328635 -0.110369004 0.00959002879
v 0.109212548 -0.110234328 0.00926489197
v 0.109212548 -0.109428905 0.0098030623
v 0.109328635 -0.10921587 0.0107431673
v 0.109212548 -0.108890735 0.0106084915
v 0.109212548 -0.108701751 0.0115585607
v 0.109328635 -0.10921587 0.0123739531
v 0.109078482 -0.108572371 0.0126404976
v 0.109212548 -0.110234328 0.0138522303
v 0.109078482 -0.109185241 0.01355772
v 0.109212548 -0.111184403 0.0140412105
v 0.109078482 -0.11010246 0.014170588
v 0.109078482 -0.111184403 0.0143857989
v 0.109078482 -0.112266339 0.014170588
v 0.109212548 -0.112939902 0.0133140599
v 0.109078482 -0.113183558 0.01355772
v 0.109078482 -0.113796428 0.0126404976
v 0.109078482 -0.114011638 0.0115585607
v 0.108925879 -0.11410813 0.0127696097
v 0.108925879 -0.114349023 0.0115585607
v 0.109078482 -0.113183558 0.00955940131
v 0.108754165 -0.113655701 0.00908725988
v 0.109078482 -0.112266339 0.00894653331
v 0.108925879 -0.11239545 0.00863482896
v 0.109078482 -0.111184403 0.00873132236
v 0.108925879 -0.111184403 0.00839393586
v 0.109078482 -0.11010246 0.00894653331
v 0.108925879 -0.109973349 0.00863482896
v 0.109078482 -0.109185241 0.00955940224
v 0.108925879 -0.108946674 0.00932083372
v 0.109078482 -0.108572371 0.0104766237
v 0.108925879 -0.108260669 0.0103475107
v 0.108925879 -0.108260669 0.0127696097
v 0.108925879 -0.108946674 0.0137962876
v 0.108754165 -0.108713098 0.0140298614
v 0.108925879 -0.111184403 0.0147231854
v 0.108754165 -0.109846942 0.01478747
v 0.10856276 -0.111184403 0.0153769022
v 0.108925879 -0.11239545 0.0144822923
v 0.108754165 -0.112521857 0.0147874709
v 0.10856276 -0.112645619 0.0150862485
v 0.10856276 -0.109723181 0.0150862485
v 0.10856276 -0.113884374 0.0142585365
v 0.10856276 -0.108484425 0.0142585356
v 0.108754165 -0.113655701 0.0140298614
v 0.10856276 -0.114712089 0.0130197769
v 0.108754165 -0.114413314 0.012896019
v 0.10856276 -0.115002744 0.0115585607
v 0.108754165 -0.114679344 0.0115585607
v 0.10856276 -0.114712089 0.0100973453
v 0.108754165 -0.114413314 0.0102211032
v 0.10856276 -0.113884374 0.0088585848
v 0.10856276 -0.112645619 0.00803087279
v 0.108754165 -0.112521857 0.00832965039
v 0.10856276 -0.111184403 0.00774021866
v 0.108754165 -0.111184403 0.00806361344
v 0.10856276 -0.109723181 0.00803087279
v 0.108754165 -0.109846942 0.00832965132
v 0.10856276 -0.108484425 0.00885858573
v 0.108754165 -0.108713098 0.00908726081
v 0.10856276 -0.10765671 0.0100973444
v 0.108754165 -0.107955493 0.0102211023
v 0.10856276 -0.107366055 0.0115585607
v 0.108754165 -0.107689455 0.0115585607
v 0.10856276 -0.10765671 0.0130197769
v 0.108754165 -0.107955493 0.012896019
v 0.109631851 -0.0990057066 0.0115585607
v 0.109617122 -0.0988179222 0.0115585607
v 0.109597489 -0.0994756147 0.0107134432
v 0.109597489 -0.0986948311 0.0118819727
v 0.109597489 -0.0991521999 0.0107777743
v 0.109597489 -0.098878026 0.0121561484
v 0.109572954 -0.0998705775 0.0125120915
v 0.109572954 -0.0987458155 0.0122883618
v 0.109572954 -0.099080652 0.0125120915
v 0.109572954 -0.0994756147 0.0125906551
v 0.109597489 -0.0997990295 0.012339348
v 0.109597489 -0.100073203 0.0121561494
v 0.109572954 -0.100205414 0.0122883618
v 0.109543502 -0.100601383 0.0120248701
v 0.109543502 -0.100601383 0.0110922521
v 0.109543502 -0.100337245 0.0106969345
v 0.109543502 -0.0999419242 0.010432791
v 0.109572954 -0.0994756147 0.0105264662
v 0.109543502 -0.0994756147 0.0103400368
v 0.109572954 -0.099080652 0.0106050298
v 0.109543502 -0.0986139849 0.0106969345
v 0.109572954 -0.0987458155 0.0108287605
v 0.109572954 -0.098443523 0.0115585607
v 0.109543502 -0.0983498469 0.0110922512
v 0.109543502 -0.0982570946 0.0115585607
v 0.109572954 -0.098522082 0.0119535262
v 0.109543502 -0.0983498469 0.0120248692
v 0.109543502 -0.0986139849 0.0124201877
v 0.109543502 -0.0990093052 0.0126843303
v 0.109509148 -0.0984826162 0.0125515582
v 0.109543502 -0.0994756147 0.0127770854
v 0.109509148 -0.0989382118 0.012855974
v 0.109509148 -0.0994756147 0.0129628712
v 0.109543502 -0.0999419242 0.0126843303
v 0.109509148 -0.100013018 0.012855974
v 0.109543502 -0.100337245 0.0124201877
v 0.109509148 -0.100468613 0.0125515582
v 0.109509148 -0.100879923 0.0115585607
v 0.109427311 -0.100728132 0.0103060463
v 0.109427311 -0.101246938 0.0115585607
v 0.109427311 -0.101112105 0.010880705
v 0.109509148 -0.100468613 0.0105655631
v 0.109509148 -0.100013025 0.0102611473
v 0.109427311 -0.100153469 0.00992207136
v 0.109427311 -0.0994756147 0.00978723727
v 0.109427311 -0.0982230976 0.0103060463
v 0.109427311 -0.0987977609 0.00992207136
v 0.109509148 -0.0984826162 0.0105655631
v 0.109509148 -0.0981782004 0.011021154
v 0.109328635 -0.0975070819 0.0107431673
v 0.109509148 -0.0980713069 0.0115585607
v 0.109427311 -0.0977042913 0.0115585607
v 0.109509148 -0.0981782004 0.0120959664
v 0.109427311 -0.0978391245 0.0122364163
v 0.109427311 -0.0982230976 0.012811075
v 0.109427311 -0.0987977609 0.0131950499
v 0.109328635 -0.0975070819 0.0123739531
v 0.109427311 -0.0994756147 0.013329884
v 0.109328635 -0.0986602232 0.0135270935
v 0.109328635 -0.0994756147 0.0136892851
v 0.109328635 -0.100291006 0.0135270935
v 0.109427311 -0.100728132 0.0128110759
v 0.109328635 -0.100982264 0.0130652105
v 0.109328635 -0.101606339 0.0115585607
v 0.109212548 -0.101769283 0.0125086298
v 0.109328635 -0.101444148 0.0107431682
v 0.109212548 -0.101958267 0.0115585607
v 0.109212548 -0.101769283 0.0106084924
v 0.109328635 -0.100982264 0.0100519117
v 0.109212548 -0.101231113 0.0098030623
v 0.109328635 -0.100291006 0.00959002785
v 0.109328635 -0.0994756147 0.00942783616
v 0.109328635 -0.0986602232 0.00959002879
v 0.109212548 -0.0985255465 0.00926489197
v 0.109328635 -0.0979689658 0.0100519117
v 0.109212548 -0.0977201164 0.0098030623
v 0.109212548 -0.097181946 0.0106084915
v 0.109328635 -0.0973448902 0.0115585607
v 0.109212548 -0.0977201164 0.013314059
v 0.109212548 -0.0985255465 0.0138522303
v 0.109078482 -0.0974764526 0.01355772
v 0.109212548 -0.0994756147 0.0140412105
v 0.109078482 -0.0983936787 0.014170588
v 0.109078482 -0.0994756147 0.0143857989
v 0.109212548 -0.100425683 0.0138522303
v 0.109078482 -0.100557551 0.014170588
v 0.109212548 -0.101231113 0.0133140599
v 0.109078482 -0.101474777 0.01355772
v 0.109078482 -0.102087639 0.0126404976
v 0.109078482 -0.102302857 0.0115585607
v 0.108925879 -0.102399349 0.0127696097
v 0.109078482 -0.102087639 0.0104766237
v 0.108925879 -0.102640241 0.0115585607
v 0.108925879 -0.102399349 0.0103475116
v 0.109078482 -0.101474777 0.00955940131
v 0.108925879 -0.101713344 0.00932083279
v 0.109078482 -0.100557551 0.00894653331
v 0.108925879 -0.100686662 0.00863482896
v 0.109078482 -0.0994756147 0.00873132236
v 0.108925879 -0.0994756147 0.00839393586
v 0.108925879 -0.0982645676 0.00863482896
v 0.109078482 -0.0974764526 0.00955940224
v 0.108925879 -0.097237885 0.00932083372
v 0.109078482 -0.0968635902 0.0104766237
v 0.108925879 -0.0965518802 0.0103475107
v 0.108925879 -0.0963109881 0.0115585607
v 0.109078482 -0.0968635902 0.0126404976
v 0.108754165 -0.0962467045 0.012896019
v 0.108925879 -0.097237885 0.0137962876
v 0.108754165 -0.0970043167 0.0140298614
v 0.108925879 -0.0994756147 0.0147231854
v 0.108754165 -0.0994756147 0.0150535079
v 0.108754165 -0.100813076 0.0147874709
v 0.10856276 -0.0994756147 0.0153769022
v 0.10856276 -0.10093683 0.0150862485
v 0.10856276 -0.0980143994 0.0150862485
v 0.10856276 -0.102175593 0.0142585365
v 0.10856276 -0.0967756361 0.0142585356
v 0.108754165 -0.101946913 0.0140298614
v 0.10856276 -0.103003301 0.0130197769
v 0.108925879 -0.101713344 0.0137962885
v 0.108754165 -0.102704525 0.012896019
v 0.10856276 -0.103293955 0.0115585607
v 0.108754165 -0.102704525 0.0102211032
v 0.10856276 -0.103003301 0.0100973453
v 0.10856276 -0.102175593 0.0088585848
v 0.108754165 -0.101946913 0.00908725988
v 0.10856276 -0.10093683 0.00803087279
v 0.108754165 -0.100813076 0.00832965039
v 0.10856276 -0.0994756147 0.00774021866
v 0.108754165 -0.0994756147 0.00806361344
v 0.10856276 -0.0980143994 0.00803087279
v 0.108754165 -0.0981381536 0.00832965132
v 0.10856276 -0.0967756361 0.00885858573
v 0.10856276 -0.0959479287 0.0100973444
v 0.10856276 -0.0956572741 0.0115585607
v 0.108754165 -0.0959806666 0.0115585607
v 0.10856276 -0.0959479287 0.0130197769
vt -0.0204695463 0.432184994
vt -0.0204695463 0.437344909
vt -0.0204695463 0.45204246
vt -0.0204695463 0.452048719
vt -0.0204695463 0.437348306
vt -0.0204695463 0.474048197
vt -0.0204695463 0.499997616
vt -0.0204695463 0.525946379
vt -0.0204695463 0.547944009
vt -0.0204695463 0.562641561
vt -0.0204695463 0.567801476
vt -0.0204695463 0.562638164
vt -0.0204695463 0.547937751
vt -0.0204695463 0.499988854
vt -0.0204695463 0.525938213
vt -0.0204695463 0.474040091
vt -0.025434494 0.432185173
vt -0.025434494 0.437345088
vt -0.025434494 0.45204258
vt -0.025434494 0.452048838
vt -0.025434494 0.437348425
vt -0.025434494 0.474048376
vt -0.025434494 0.499997795
vt -0.025434494 0.525946558
vt -0.025434494 0.547944188
vt -0.025434494 0.56264174
vt -0.025434494 0.567801595
vt -0.025434494 0.562638342
vt -0.025434494 0.54793793
vt -0.025434494 0.499988973
vt -0.025434494 0.525938392
vt -0.025434494 0.47404021
vt 0.0458269417 0.0414705873
vt 0.944370985 0.0385221243
vt 0.944370985 0.00049996376
vt 0.0458269417 0.149055719
vt 0.944370985 0.146800101
vt 0.0458269417 0.00369137526
vt -0.0204695463 0.452048719
vt -0.0204695463 0.437348306
vt -0.0204695463 0.474048197
vt -0.0204695463 0.432184994
vt 0.944370985 0.0385221243
vt 0.0458269417 0.0414696932
vt -0.0204695463 0.437344909
vt 0.944370985 0.146800041
vt 0.0458269417 0.14905405
vt -0.0204695463 0.45204246
vt 0.944370985 0.308849573
vt 0.0458269417 0.310065866
vt -0.0204695463 0.474040091
vt 0.944370985 0.500000119
vt 0.0458269417 0.499992549
vt -0.0204695463 0.499988854
vt 0.944370985 0.691150308
vt 0.0458269417 0.689919114
vt -0.0204695463 0.525938213
vt 0.944370985 0.853199899
vt 0.0458269417 0.850931525
vt -0.0204695463 0.547937751
vt 0.944370985 0.961477995
vt 0.0458269417 0.958516777
vt -0.0204695463 0.562638164
vt 0.944370985 0.999500096
vt 0.0458269417 0.996296048
vt -0.0204695463 0.567801476
vt 0.944370985 0.961477995
vt 0.0458269417 0.958517671
vt -0.0204695463 0.562641561
vt 0.944370985 0.853199899
vt 0.0458269417 0.850933194
vt -0.0204695463 0.547944009
vt 0.944370985 0.691150486
vt 0.0458269417 0.689921439
vt -0.0204695463 0.525946379
vt 0.944370985 0.5
vt 0.0458269417 0.499994874
vt -0.0204695463 0.499997616
vt 0.944370985 0.308849633
vt 0.0458269417 0.310068071
vt 0.0444474816 0.0414707661
vt 0.991586447 0.0385222435
vt 0.991586447 0.000500142574
vt 0.0444474816 0.149055958
vt 0.991586447 0.14680028
vt 0.0444474816 0.00369155407
vt -0.025434494 0.452048838
vt -0.025434494 0.437348425
vt -0.025434494 0.474048376
vt -0.025434494 0.432185173
vt 0.991586447 0.0385223031
vt 0.0444474816 0.0414698124
vt -0.025434494 0.437345088
vt 0.991586447 0.14680028
vt 0.0444474816 0.149054289
vt -0.025434494 0.45204258
vt 0.991586447 0.308849752
vt 0.0444474816 0.310065985
vt -0.025434494 0.47404021
vt 0.991586447 0.500000238
vt 0.0444474816 0.499992728
vt -0.025434494 0.499988973
vt 0.991586447 0.691150486
vt 0.0444474816 0.689919293
vt -0.025434494 0.525938392
vt 0.991586447 0.853200078
vt 0.0444474816 0.850931704
vt -0.025434494 0.54793793
vt 0.991586447 0.961478114
vt 0.0444474816 0.958516955
vt -0.025434494 0.562638342
vt 0.991586447 0.999500275
vt 0.0444474816 0.996296167
vt -0.025434494 0.567801595
vt 0.991586447 0.961478114
vt 0.0444474816 0.958517909
vt -0.025434494 0.56264174
vt 0.991586447 0.853200078
vt 0.0444474816 0.850933433
vt -0.025434494 0.547944188
vt 0.991586447 0.691150606
vt 0.0444474816 0.689921618
vt -0.025434494 0.525946558
vt 0.991586447 0.500000179
vt 0.0444474816 0.499995053
vt -0.025434494 0.499997795
vt 0.991586447 0.308849812
vt 0.0444474816 0.31006819
vt 0.949085951 0.5
vt 0.949020982 0.5
vt 0.949020982 0.532924771
vt 0.949085951 0.523524225
vt 0.949129224 0.514110804
vt 0.949150801 0.495310664
vt 0.949085951 0.543467045
vt 0.949020982 0.560836971
vt 0.949020982 0.579487324
vt 0.948934436 0.602139473
vt 0.949085951 0.556792498
vt 0.949129224 0.536873341
vt 0.949129224 0.534066558
vt 0.949020982 0.579487324
vt 0.948934436 0.602139473
vt 0.949020982 0.56083703
vt 0.948934436 0.578174233
vt 0.949085951 0.543467164
vt 0.948934436 0.542307615
vt 0.949129224 0.526073456
vt 0.949020982 0.532924771
vt 0.949085951 0.523524284
vt 0.949150801 0.508664966
vt 0.949150801 0.504689515
vt 0.949129224 0.514110923
vt 0.949085951 0.500000119
vt 0.949150801 0.495310783
vt 0.949150801 0.488678992
vt 0.949129224 0.500000119
vt 0.949150801 0.500000119
vt 0.949129224 0.485889316
vt 0.949150801 0.491335273
vt 0.949085951 0.476475954
vt 0.949129224 0.473926783
vt 0.949085951 0.438528419
vt 0.949020982 0.420512855
vt 0.996601939 0.46593374
vt 0.996624708 0.491335392
vt 0.996624708 0.487746358
vt 0.996624708 0.488679111
vt 0.996601939 0.463126957
vt 0.996601939 0.473926842
vt 0.996556342 0.4432078
vt 0.996624708 0.495310843
vt 0.996601939 0.485889435
vt 0.996556342 0.456533194
vt 0.996556342 0.476476014
vt 0.996601939 0.500000238
vt 0.996487856 0.439163327
vt 0.996487856 0.500000238
vt 0.949150801 0.487746179
vt 0.949150801 0.491335213
vt 0.949085951 0.476475835
vt 0.949020982 0.420512795
vt 0.949085951 0.456533015
vt 0.996487856 0.532924891
vt 0.996624708 0.500000238
vt 0.996556342 0.523524404
vt 0.996601939 0.514110982
vt 0.996556342 0.543467224
vt 0.996487856 0.56083715
vt 0.996601939 0.526073575
vt 0.996624708 0.508665025
vt 0.996624708 0.511321366
vt 0.996601939 0.534066677
vt 0.996487856 0.579487503
vt 0.996624708 0.511321425
vt 0.996396661 0.602139592
vt 0.996556342 0.561471939
vt 0.996556342 0.556792676
vt 0.996601939 0.534066737
vt 0.996487856 0.586036623
vt 0.996487856 0.579487503
vt 0.996282578 0.624737263
vt 0.996396661 0.602139592
vt 0.996556342 0.543467283
vt 0.996487856 0.53292495
vt 0.996282578 0.595469832
vt 0.996556342 0.523524463
vt 0.996601939 0.514111042
vt 0.996624708 0.504689693
vt 0.996556342 0.500000298
vt 0.996624708 0.495310903
vt 0.996601939 0.500000298
vt 0.996624708 0.500000298
vt 0.996601939 0.485889494
vt 0.996624708 0.491335452
vt 0.996556342 0.476476073
vt 0.996601939 0.473926902
vt 0.996601939 0.4659338
vt 0.949085951 0.443207681
vt 0.948934436 0.397860706
vt 0.949020982 0.439163208
vt 0.948934436 0.389445245
vt 0.9485448 0.330277681
vt 0.949020982 0.467075408
vt 0.948934436 0.421826005
vt 0.949020982 0.500000119
vt 0.948934436 0.457692623
vt 0.948934436 0.500000119
vt 0.948934436 0.457692504
vt 0.948934436 0.5
vt 0.948826194 0.44833225
vt 0.948826194 0.5
vt 0.948934436 0.542307556
vt 0.948826194 0.551667809
vt 0.948934436 0.578174114
vt 0.948826194 0.624737144
vt 0.948696256 0.612714589
vt 0.948696256 0.65940249
vt 0.948696256 0.647268772
vt 0.948696256 0.612714648
vt 0.948826194 0.551667869
vt 0.948696256 0.561000764
vt 0.948826194 0.500000119
vt 0.948696256 0.500000119
vt 0.948826194 0.44833231
vt 0.948826194 0.404530525
vt 0.948696256 0.387285531
vt 0.948826194 0.364985704
vt 0.948696256 0.34059763
vt 0.948826194 0.375263035
vt 0.948696256 0.352731466
vt 0.948696256 0.387285531
vt 0.9485448 0.370100141
vt 0.948696256 0.5
vt 0.9485448 0.429698706
vt 0.9485448 0.50000006
vt 0.948696256 0.561000705
vt 0.9485448 0.570301414
vt 0.9485448 0.629899979
vt 0.9485448 0.669722497
vt 0.9485448 0.683706284
vt 0.948183894 0.663848996
vt 0.9485448 0.669722497
vt 0.948183894 0.731717467
vt 0.9485448 0.629899979
vt 0.9485448 0.570301414
vt 0.948183894 0.588674426
vt 0.9485448 0.500000119
vt 0.9485448 0.429698765
vt 0.948183894 0.411325693
vt 0.9485448 0.370100141
vt 0.948183894 0.336151123
vt 0.948183894 0.285921156
vt 0.9485448 0.330277681
vt 0.948183894 0.285921156
vt 0.948183894 0.336151123
vt 0.948183894 0.411325634
vt 0.947236657 0.27035284
vt 0.948183894 0.50000006
vt 0.947748661 0.5
vt 0.948183894 0.588674426
vt 0.947748661 0.697093844
vt 0.947748661 0.75751555
vt 0.947748661 0.778732777
vt 0.947236657 0.800048649
vt 0.947748661 0.75751555
vt 0.947236657 0.824770331
vt 0.947236657 0.800048709
vt 0.947236657 0.729647279
vt 0.947748661 0.606666446
vt 0.947748661 0.500000119
vt 0.947236657 0.500000119
vt 0.947748661 0.393333673
vt 0.947236657 0.375715852
vt 0.947236657 0.270352781
vt 0.947748661 0.24248457
vt 0.947236657 0.19995153
vt 0.947236657 0.175229788
vt 0.947748661 0.24248457
vt 0.946645439 0.158305168
vt 0.947236657 0.375715852
vt 0.946645439 0.238478065
vt 0.947236657 0.5
vt 0.946645439 0.358465374
vt 0.946645439 0.5
vt 0.946645439 0.641534686
vt 0.947236657 0.729647279
vt 0.946645439 0.761521935
vt 0.946645439 0.841694951
vt 0.946645439 0.869847894
vt 0.945972443 0.882470846
vt 0.945972443 0.913983464
vt 0.946645439 0.761521995
vt 0.945215106 0.82328558
vt 0.946645439 0.641534686
vt 0.945972443 0.658424616
vt 0.946645439 0.500000119
vt 0.945972443 0.500000119
vt 0.946645439 0.358465433
vt 0.945972443 0.341575444
vt 0.946645439 0.238478065
vt 0.945972443 0.207269549
vt 0.946645439 0.158305168
vt 0.945972443 0.117529273
vt 0.945972443 0.117529213
vt 0.945972443 0.207269549
vt 0.945215106 0.17671442
vt 0.945972443 0.5
vt 0.945215106 0.325039148
vt 0.944370985 0.5
vt 0.945972443 0.658424675
vt 0.945215106 0.674960971
vt 0.944370985 0.691150486
vt 0.944370985 0.308849633
vt 0.944370985 0.853199899
vt 0.944370985 0.146800101
vt 0.945215106 0.82328558
vt 0.944370985 0.961477995
vt 0.945215106 0.922393084
vt 0.944370985 0.999500096
vt 0.945215106 0.957194924
vt 0.944370985 0.961477995
vt 0.945215106 0.922393084
vt 0.944370985 0.853199899
vt 0.944370985 0.691150308
vt 0.945215106 0.674960852
vt 0.944370985 0.500000119
vt 0.945215106 0.500000119
vt 0.944370985 0.308849573
vt 0.945215106 0.325039148
vt 0.944370985 0.146800041
vt 0.945215106 0.17671442
vt 0.944370985 0.0385221243
vt 0.945215106 0.0776071548
vt 0.944370985 0.00049996376
vt 0.945215106 0.0428051949
vt 0.944370985 0.0385221243
vt 0.945215106 0.0776070356
vt 0.996556342 0.438528597
vt 0.996487856 0.413963854
vt 0.996396661 0.500000298
vt 0.996396661 0.397860885
vt 0.996396661 0.457692742
vt 0.996396661 0.421826124
vt 0.996282578 0.551667988
vt 0.996282578 0.404530644
vt 0.996282578 0.448332429
vt 0.996282578 0.500000238
vt 0.996396661 0.542307734
vt 0.996396661 0.578174293
vt 0.996282578 0.595469832
vt 0.996145666 0.647268891
vt 0.996145666 0.647268891
vt 0.996145666 0.612714767
vt 0.996145666 0.561000943
vt 0.996282578 0.500000298
vt 0.996145666 0.500000298
vt 0.996282578 0.448332489
vt 0.996145666 0.387285709
vt 0.996282578 0.404530644
vt 0.996282578 0.364985824
vt 0.996145666 0.352731586
vt 0.996145666 0.340597808
vt 0.996282578 0.375263214
vt 0.996145666 0.352731586
vt 0.996145666 0.38728565
vt 0.996145666 0.438999534
vt 0.995985985 0.37010026
vt 0.996145666 0.500000238
vt 0.995985985 0.429698884
vt 0.995985985 0.500000238
vt 0.996145666 0.561000884
vt 0.995985985 0.570301533
vt 0.996145666 0.612714767
vt 0.995985985 0.629900098
vt 0.995985985 0.683706462
vt 0.995605469 0.663849175
vt 0.995605469 0.731717587
vt 0.995605469 0.714079201
vt 0.995985985 0.629900157
vt 0.995985985 0.570301533
vt 0.995605469 0.588674605
vt 0.995605469 0.500000298
vt 0.995605469 0.336151302
vt 0.995605469 0.411325872
vt 0.995985985 0.370100319
vt 0.995985985 0.330277801
vt 0.995146751 0.242484808
vt 0.995985985 0.316294014
vt 0.995605469 0.26828289
vt 0.995985985 0.330277801
vt 0.995605469 0.285921276
vt 0.995605469 0.336151302
vt 0.995605469 0.411325812
vt 0.995146751 0.242484748
vt 0.995605469 0.500000238
vt 0.995146751 0.393333793
vt 0.995146751 0.500000238
vt 0.995146751 0.606666625
vt 0.995605469 0.663849115
vt 0.995146751 0.697094023
vt 0.995146751 0.778733015
vt 0.994607091 0.800048828
vt 0.995146751 0.757515728
vt 0.994607091 0.824770451
vt 0.994607091 0.800048828
vt 0.995146751 0.697094023
vt 0.994607091 0.729647458
vt 0.995146751 0.606666565
vt 0.995146751 0.500000238
vt 0.995146751 0.393333852
vt 0.994607091 0.375716031
vt 0.995146751 0.302906394
vt 0.994607091 0.27035296
vt 0.994607091 0.199951649
vt 0.995146751 0.221267462
vt 0.994607091 0.27035296
vt 0.994607091 0.375716031
vt 0.993983865 0.238478303
vt 0.994607091 0.500000238
vt 0.993983865 0.358465552
vt 0.993983865 0.500000238
vt 0.994607091 0.624284387
vt 0.993983865 0.641534865
vt 0.994607091 0.729647398
vt 0.993983865 0.761522174
vt 0.993983865 0.84169513
vt 0.993983865 0.869848132
vt 0.99327445 0.882471085
vt 0.993983865 0.841695189
vt 0.99327445 0.913983703
vt 0.99327445 0.882471085
vt 0.993983865 0.761522174
vt 0.99327445 0.792730689
vt 0.993983865 0.641534805
vt 0.99327445 0.658424735
vt 0.993983865 0.500000238
vt 0.99327445 0.500000238
vt 0.99327445 0.341575623
vt 0.993983865 0.238478243
vt 0.99327445 0.207269669
vt 0.993983865 0.158305407
vt 0.99327445 0.117529392
vt 0.99327445 0.0860167742
vt 0.993983865 0.158305287
vt 0.992476225 0.0776072741
vt 0.99327445 0.207269728
vt 0.992476225 0.176714659
vt 0.99327445 0.500000238
vt 0.992476225 0.500000238
vt 0.992476225 0.67496109
vt 0.991586447 0.500000179
vt 0.991586447 0.691150606
vt 0.991586447 0.308849812
vt 0.991586447 0.853200078
vt 0.991586447 0.14680028
vt 0.992476225 0.823285818
vt 0.991586447 0.961478114
vt 0.99327445 0.792730689
vt 0.992476225 0.922393203
vt 0.991586447 0.999500275
vt 0.992476225 0.922393203
vt 0.991586447 0.961478114
vt 0.991586447 0.853200078
vt 0.992476225 0.823285818
vt 0.991586447 0.691150486
vt 0.992476225 0.674960971
vt 0.991586447 0.500000238
vt 0.992476225 0.500000238
vt 0.991586447 0.308849752
vt 0.992476225 0.325039268
vt 0.991586447 0.14680028
vt 0.991586447 0.0385223031
vt 0.991586447 0.000500142574
vt 0.992476225 0.0428053737
vt 0.991586447 0.0385222435
f 1/1 2/2 3/3
f 1/1 4/4 5/5
f 1/1 3/3 4/4
f 3/3 6/6 4/4
f 3/3 7/7 6/6
f 3/3 8/8 7/7
f 3/3 9/9 8/8
f 3/3 10/10 9/9
f 3/3 11/11 10/10
f 3/3 12/12 11/11
f 3/3 13/13 12/12
f 3/3 14/14 13/13
f 14/14 15/15 13/13
f 3/3 16/16 14/14
f 17/17 18/18 19/19
f 17/17 20/20 21/21
f 17/17 19/19 20/20
f 19/19 22/22 20/20
f 19/19 23/23 22/22
f 19/19 24/24 23/23
f 19/19 25/25 24/24
f 19/19 26/26 25/25
f 19/19 27/27 26/26
f 19/19 28/28 27/27
f 19/19 29/29 28/28
f 19/19 30/30 29/29
f 30/30 31/31 29/29
f 19/19 32/32 30/30
f 33/33 34/34 35/35
f 34/34 33/33 36/36
f 36/36 37/37 34/34
f 35/35 38/38 33/33
f 39/39 36/36 33/33
f 33/33 40/40 39/39
f 40/40 33/33 38/38
f 36/36 39/39 41/41
f 38/38 42/42 40/40
f 38/38 35/35 43/43
f 42/42 38/38 44/44
f 43/43 44/44 38/38
f 44/44 45/45 42/42
f 44/44 43/43 46/46
f 45/45 44/44 47/47
f 46/46 47/47 44/44
f 47/47 48/48 45/45
f 47/47 46/46 49/49
f 48/48 47/47 50/50
f 49/49 50/50 47/47
f 50/50 51/51 48/48
f 50/50 49/49 52/52
f 51/51 50/50 53/53
f 52/52 53/53 50/50
f 53/53 54/54 51/51
f 53/53 52/52 55/55
f 54/54 53/53 56/56
f 55/55 56/56 53/53
f 56/56 57/57 54/54
f 56/56 55/55 58/58
f 57/57 56/56 59/59
f 58/58 59/59 56/56
f 59/59 60/60 57/57
f 59/59 58/58 61/61
f 60/60 59/59 62/62
f 61/61 62/62 59/59
f 62/62 63/63 60/60
f 62/62 61/61 64/64
f 63/63 62/62 65/65
f 64/64 65/65 62/62
f 65/65 66/66 63/63
f 65/65 64/64 67/67
f 66/66 65/65 68/68
f 67/67 68/68 65/65
f 68/68 69/69 66/66
f 68/68 67/67 70/70
f 69/69 68/68 71/71
f 70/70 71/71 68/68
f 71/71 72/72 69/69
f 71/71 70/70 73/73
f 72/72 71/71 74/74
f 73/73 74/74 71/71
f 74/74 75/75 72/72
f 74/74 73/73 76/76
f 75/75 74/74 77/77
f 76/76 77/77 74/74
f 77/77 78/78 75/75
f 77/77 76/76 79/79
f 78/78 77/77 80/80
f 79/79 80/80 77/77
f 80/80 41/41 78/78
f 80/80 79/79 37/37
f 41/41 80/80 36/36
f 37/37 36/36 80/80
f 81/81 82/82 83/83
f 82/82 81/81 84/84
f 84/84 85/85 82/82
f 83/83 86/86 81/81
f 87/87 84/84 81/81
f 81/81 88/88 87/87
f 88/88 81/81 86/86
f 84/84 87/87 89/89
f 86/86 90/90 88/88
f 86/86 83/83 91/91
f 90/90 86/86 92/92
f 91/91 92/92 86/86
f 92/92 93/93 90/90
f 92/92 91/91 94/94
f 93/93 92/92 95/95
f 94/94 95/95 92/92
f 95/95 96/96 93/93
f 95/95 94/94 97/97
f 96/96 95/95 98/98
f 97/97 98/98 95/95
f 98/98 99/99 96/96
f 98/98 97/97 100/100
f 99/99 98/98 101/101
f 100/100 101/101 98/98
f 101/101 102/102 99/99
f 101/101 100/100 103/103
f 102/102 101/101 104/104
f 103/103 104/104 101/101
f 104/104 105/105 102/102
f 104/104 103/103 106/106
f 105/105 104/104 107/107
f 106/106 107/107 104/104
f 107/107 108/108 105/105
f 107/107 106/106 109/109
f 108/108 107/107 110/110
f 109/109 110/110 107/107
f 110/110 111/111 108/108
f 110/110 109/109 112/112
f 111/111 110/110 113/113
f 112/112 113/113 110/110
f 113/113 114/114 111/111
f 113/113 112/112 115/115
f 114/114 113/113 116/116
f 115/115 116/116 113/113
f 116/116 117/117 114/114
f 116/116 115/115 118/118
f 117/117 116/116 119/119
f 118/118 119/119 116/116
f 119/119 120/120 117/117
f 119/119 118/118 121/121
f 120/120 119/119 122/122
f 121/121 122/122 119/119
f 122/122 123/123 120/120
f 122/122 121/121 124/124
f 123/123 122/122 125/125
f 124/124 125/125 122/122
f 125/125 126/126 123/123
f 125/125 124/124 127/127
f 126/126 125/125 128/128
f 127/127 128/128 125/125
f 128/128 89/89 126/126
f 128/128 127/127 85/85
f 89/89 128/128 84/84
f 85/85 84/84 128/128
f 129/129 130/130 131/131
f 131/131 132/132 129/129
f 132/132 133/133 129/129
f 133/133 134/134 129/129
f 133/133 132/132 135/135
f 132/132 131/131 136/136
f 136/136 135/135 132/132
f 135/135 134/134 133/133
f 135/135 136/136 137/137
f 137/137 134/134 135/135
f 138/138 137/137 136/136
f 139/139 140/140 134/134
f 134/134 140/140 141/141
f 139/139 141/141 140/140
f 139/139 134/134 142/142
f 143/143 134/134 137/137
f 137/137 138/138 143/143
f 143/143 142/142 134/134
f 139/139 142/142 144/144
f 142/142 143/143 145/145
f 145/145 144/144 142/142
f 144/144 146/146 139/139
f 141/141 139/139 146/146
f 144/144 145/145 147/147
f 146/146 148/148 141/141
f 134/134 141/141 148/148
f 146/146 144/144 149/149
f 147/147 149/149 144/144
f 148/148 146/146 150/150
f 149/149 150/150 146/146
f 148/148 151/151 134/134
f 134/134 151/151 152/152
f 151/151 148/148 153/153
f 150/150 153/153 148/148
f 153/153 152/152 151/151
f 153/153 150/150 154/154
f 134/134 152/152 155/155
f 134/134 155/155 156/156
f 152/152 153/153 157/157
f 154/154 157/157 153/153
f 157/157 158/158 152/152
f 152/152 158/158 155/155
f 158/158 157/157 159/159
f 159/159 155/155 158/158
f 155/155 160/160 156/156
f 161/161 159/159 157/157
f 157/157 154/154 161/161
f 155/155 159/159 162/162
f 162/162 160/160 155/155
f 156/156 160/160 163/163
f 164/164 162/162 159/159
f 159/159 161/161 164/164
f 165/165 166/166 167/167
f 166/166 168/168 167/167
f 167/167 169/169 165/165
f 169/169 167/167 168/168
f 166/166 165/165 170/170
f 171/171 165/165 169/169
f 166/166 172/172 168/168
f 166/166 170/170 173/173
f 173/173 172/172 166/166
f 174/174 170/170 165/165
f 165/165 171/171 174/174
f 175/175 173/173 170/170
f 170/170 174/174 175/175
f 173/173 175/175 176/176
f 177/177 174/174 171/171
f 177/177 175/175 174/174
f 175/175 177/177 178/178
f 178/178 176/176 175/175
f 172/172 173/173 176/176
f 163/163 179/179 156/156
f 163/163 180/180 179/179
f 179/179 180/180 134/134
f 179/179 134/134 156/156
f 180/180 163/163 181/181
f 181/181 134/134 180/180
f 163/163 182/182 183/183
f 163/163 183/183 181/181
f 181/181 183/183 130/130
f 130/130 129/129 181/181
f 134/134 181/181 129/129
f 176/176 178/178 184/184
f 176/176 185/185 172/172
f 184/184 186/186 176/176
f 185/185 176/176 187/187
f 186/186 187/187 176/176
f 187/187 186/186 188/188
f 186/186 184/184 189/189
f 189/189 188/188 186/186
f 188/188 190/190 187/187
f 185/185 187/187 190/190
f 190/190 191/191 185/185
f 185/185 191/191 192/192
f 172/172 185/185 192/192
f 191/191 190/190 193/193
f 193/193 192/192 191/191
f 188/188 193/193 190/190
f 188/188 189/189 194/194
f 172/172 192/192 195/195
f 196/196 194/194 189/189
f 193/193 188/188 197/197
f 192/192 193/193 198/198
f 197/197 198/198 193/193
f 198/198 199/199 192/192
f 192/192 199/199 195/195
f 200/200 197/197 188/188
f 188/188 194/194 200/200
f 201/201 198/198 197/197
f 197/197 200/200 201/201
f 202/202 200/200 194/194
f 194/194 196/196 202/202
f 203/203 201/201 200/200
f 200/200 202/202 203/203
f 198/198 201/201 203/203
f 203/203 204/204 198/198
f 199/199 198/198 204/204
f 195/195 199/199 204/204
f 204/204 203/203 205/205
f 206/206 205/205 203/203
f 205/205 207/207 204/204
f 195/195 204/204 208/208
f 207/207 208/208 204/204
f 208/208 209/209 195/195
f 172/172 195/195 209/209
f 208/208 207/207 210/210
f 172/172 209/209 211/211
f 172/172 211/211 168/168
f 209/209 208/208 212/212
f 210/210 212/212 208/208
f 212/212 213/213 209/209
f 209/209 213/213 211/211
f 213/213 212/212 214/214
f 214/214 211/211 213/213
f 211/211 215/215 168/168
f 216/216 214/214 212/212
f 212/212 210/210 216/216
f 211/211 214/214 217/217
f 217/217 215/215 211/211
f 218/218 168/168 215/215
f 215/215 217/217 218/218
f 168/168 218/218 169/169
f 216/216 217/217 214/214
f 219/219 160/160 162/162
f 162/162 164/164 219/219
f 160/160 219/219 163/163
f 220/220 163/163 219/219
f 163/163 220/220 182/182
f 219/219 164/164 220/220
f 221/221 164/164 161/161
f 222/222 220/220 164/164
f 223/223 164/164 221/221
f 164/164 223/223 222/222
f 161/161 224/224 221/221
f 224/224 161/161 154/154
f 221/221 225/225 223/223
f 225/225 221/221 224/224
f 154/154 226/226 224/224
f 226/226 154/154 150/150
f 150/150 149/149 226/226
f 227/227 224/224 226/226
f 224/224 227/227 225/225
f 228/228 226/226 149/149
f 226/226 228/228 227/227
f 149/149 147/147 228/228
f 229/229 183/183 182/182
f 183/183 229/229 230/230
f 230/230 130/130 183/183
f 231/231 229/229 182/182
f 182/182 220/220 231/231
f 232/232 230/230 229/229
f 229/229 231/231 232/232
f 130/130 230/230 233/233
f 233/233 131/131 130/130
f 230/230 232/232 234/234
f 234/234 233/233 230/230
f 131/131 233/233 235/235
f 235/235 136/136 131/131
f 136/136 235/235 138/138
f 236/236 138/138 235/235
f 235/235 233/233 236/236
f 236/236 143/143 138/138
f 237/237 236/236 233/233
f 236/236 237/237 238/238
f 239/239 143/143 236/236
f 236/236 238/238 239/239
f 143/143 239/239 240/240
f 145/145 143/143 241/241
f 241/241 147/147 145/145
f 143/143 240/240 242/242
f 242/242 241/241 143/143
f 147/147 241/241 243/243
f 243/243 228/228 147/147
f 241/241 242/242 244/244
f 244/244 243/243 241/241
f 228/228 243/243 245/245
f 245/245 227/227 228/228
f 243/243 244/244 245/245
f 227/227 245/245 246/246
f 246/246 225/225 227/227
f 247/247 246/246 245/245
f 225/225 246/246 223/223
f 246/246 247/247 223/223
f 248/248 222/222 223/223
f 249/249 248/248 223/223
f 222/222 248/248 250/250
f 250/250 220/220 222/222
f 251/251 250/250 248/248
f 248/248 249/249 251/251
f 252/252 220/220 250/250
f 250/250 251/251 252/252
f 253/253 252/252 251/251
f 231/231 220/220 254/254
f 254/254 232/232 231/231
f 255/255 220/220 252/252
f 252/252 253/253 255/255
f 256/256 254/254 220/220
f 220/220 255/255 256/256
f 232/232 254/254 257/257
f 257/257 234/234 232/232
f 254/254 256/256 258/258
f 258/258 257/257 254/254
f 234/234 257/257 237/237
f 237/237 233/233 234/234
f 259/259 237/237 257/257
f 257/257 258/258 259/259
f 237/237 259/259 260/260
f 237/237 260/260 261/261
f 261/261 238/238 237/237
f 262/262 260/260 259/259
f 238/238 261/261 263/263
f 263/263 239/239 238/238
f 264/264 261/261 260/260
f 260/260 262/262 264/264
f 261/261 264/264 263/263
f 239/239 263/263 265/265
f 265/265 240/240 239/239
f 240/240 265/265 266/266
f 266/266 242/242 240/240
f 265/265 263/263 267/267
f 267/267 266/266 265/265
f 242/242 266/266 268/268
f 268/268 244/244 242/242
f 267/267 268/268 266/266
f 244/244 268/268 269/269
f 269/269 245/245 244/244
f 268/268 267/267 270/270
f 270/270 269/269 268/268
f 245/245 269/269 271/271
f 271/271 247/247 245/245
f 269/269 270/270 272/272
f 272/272 271/271 269/269
f 247/247 271/271 223/223
f 271/271 272/272 273/273
f 273/273 223/223 271/271
f 273/273 249/249 223/223
f 249/249 273/273 274/274
f 274/274 251/251 249/249
f 251/251 274/274 253/253
f 275/275 274/274 273/273
f 276/276 253/253 274/274
f 274/274 275/275 276/276
f 253/253 276/276 277/277
f 277/277 255/255 253/253
f 278/278 276/276 275/275
f 255/255 277/277 279/279
f 279/279 256/256 255/255
f 280/280 277/277 276/276
f 276/276 278/278 280/280
f 280/280 279/279 277/277
f 256/256 279/279 281/281
f 281/281 258/258 256/256
f 258/258 281/281 262/262
f 262/262 259/259 258/258
f 282/282 262/262 281/281
f 281/281 279/279 282/282
f 262/262 282/282 283/283
f 262/262 283/283 284/284
f 284/284 264/264 262/262
f 285/285 283/283 282/282
f 264/264 284/284 286/286
f 286/286 263/263 264/264
f 287/287 284/284 283/283
f 283/283 285/285 287/287
f 288/288 286/286 284/284
f 284/284 287/287 288/288
f 263/263 286/286 289/289
f 286/286 288/288 289/289
f 263/263 289/289 290/290
f 290/290 267/267 263/263
f 267/267 290/290 291/291
f 292/292 291/291 290/290
f 267/267 291/291 293/293
f 293/293 270/270 267/267
f 291/291 292/292 294/294
f 294/294 293/293 291/291
f 270/270 293/293 295/295
f 295/295 272/272 270/270
f 293/293 294/294 295/295
f 272/272 295/295 296/296
f 296/296 273/273 272/272
f 297/297 296/296 295/295
f 273/273 296/296 298/298
f 296/296 297/297 298/298
f 273/273 298/298 299/299
f 299/299 275/275 273/273
f 275/275 299/299 278/278
f 300/300 299/299 298/298
f 299/299 300/300 278/278
f 301/301 280/280 278/278
f 302/302 278/278 300/300
f 280/280 301/301 303/303
f 304/304 301/301 278/278
f 278/278 302/302 304/304
f 305/305 303/303 301/301
f 301/301 304/304 305/305
f 303/303 279/279 280/280
f 303/303 305/305 306/306
f 279/279 303/303 307/307
f 307/307 282/282 279/279
f 282/282 307/307 285/285
f 308/308 307/307 303/303
f 303/303 306/306 308/308
f 309/309 285/285 307/307
f 307/307 308/308 309/309
f 285/285 309/309 310/310
f 310/310 287/287 285/285
f 311/311 309/309 308/308
f 287/287 310/310 288/288
f 312/312 310/310 309/309
f 309/309 311/311 312/312
f 310/310 312/312 288/288
f 313/313 289/289 288/288
f 314/314 313/313 288/288
f 289/289 313/313 315/315
f 315/315 290/290 289/289
f 313/313 314/314 316/316
f 316/316 315/315 313/313
f 290/290 315/315 317/317
f 317/317 292/292 290/290
f 315/315 316/316 318/318
f 318/318 317/317 315/315
f 292/292 317/317 319/319
f 319/319 294/294 292/292
f 317/317 318/318 320/320
f 320/320 319/319 317/317
f 294/294 319/319 321/321
f 321/321 295/295 294/294
f 319/319 320/320 322/322
f 322/322 321/321 319/319
f 295/295 321/321 323/323
f 323/323 297/297 295/295
f 321/321 322/322 324/324
f 324/324 323/323 321/321
f 297/297 323/323 298/298
f 323/323 324/324 298/298
f 325/325 300/300 298/298
f 326/326 302/302 300/300
f 300/300 325/325 326/326
f 302/302 326/326 304/304
f 327/327 326/326 325/325
f 328/328 305/305 304/304
f 329/329 304/304 326/326
f 326/326 327/327 329/329
f 330/330 328/328 304/304
f 304/304 329/329 330/330
f 305/305 328/328 331/331
f 331/331 306/306 305/305
f 328/328 330/330 332/332
f 332/332 331/331 328/328
f 333/333 332/332 330/330
f 329/329 334/334 330/330
f 334/334 329/329 327/327
f 332/332 333/333 335/335
f 327/327 336/336 334/334
f 335/335 337/337 332/332
f 331/331 332/332 337/337
f 337/337 335/335 338/338
f 306/306 331/331 337/337
f 337/337 308/308 306/306
f 308/308 337/337 311/311
f 338/338 339/339 337/337
f 339/339 311/311 337/337
f 339/339 338/338 340/340
f 311/311 339/339 341/341
f 340/340 341/341 339/339
f 341/341 312/312 311/311
f 341/341 340/340 342/342
f 312/312 341/341 343/343
f 342/342 343/343 341/341
f 343/343 288/288 312/312
f 343/343 342/342 344/344
f 288/288 343/343 314/314
f 344/344 314/314 343/343
f 314/314 344/344 345/345
f 345/345 346/346 314/314
f 346/346 316/316 314/314
f 346/346 345/345 347/347
f 316/316 346/346 348/348
f 347/347 348/348 346/346
f 348/348 318/318 316/316
f 348/348 347/347 349/349
f 318/318 348/348 350/350
f 349/349 350/350 348/348
f 350/350 320/320 318/318
f 350/350 349/349 351/351
f 320/320 350/350 352/352
f 351/351 352/352 350/350
f 352/352 322/322 320/320
f 352/352 351/351 353/353
f 322/322 352/352 354/354
f 353/353 354/354 352/352
f 354/354 324/324 322/322
f 354/354 353/353 355/355
f 324/324 354/354 356/356
f 355/355 356/356 354/354
f 356/356 298/298 324/324
f 356/356 355/355 357/357
f 298/298 356/356 358/358
f 357/357 358/358 356/356
f 358/358 325/325 298/298
f 358/358 357/357 336/336
f 325/325 358/358 327/327
f 336/336 327/327 358/358
f 359/359 169/169 218/218
f 218/218 217/217 359/359
f 169/169 359/359 171/171
f 171/171 359/359 177/177
f 360/360 359/359 217/217
f 217/217 216/216 360/360
f 361/361 216/216 210/210
f 362/362 359/359 360/360
f 361/361 210/210 207/207
f 207/207 205/205 361/361
f 361/361 363/363 216/216
f 205/205 206/206 361/361
f 359/359 362/362 364/364
f 364/364 177/177 359/359
f 177/177 364/364 365/365
f 366/366 364/364 362/362
f 365/365 178/178 177/177
f 367/367 365/365 364/364
f 364/364 366/366 367/367
f 365/365 367/367 368/368
f 178/178 365/365 369/369
f 369/369 184/184 178/178
f 184/184 369/369 370/370
f 370/370 189/189 184/184
f 189/189 370/370 196/196
f 371/371 370/370 369/369
f 369/369 365/365 371/371
f 202/202 196/196 370/370
f 370/370 371/371 202/202
f 372/372 202/202 371/371
f 203/203 202/202 206/206
f 202/202 373/373 374/374
f 374/374 206/206 202/202
f 206/206 374/374 375/375
f 376/376 361/361 206/206
f 206/206 375/375 377/377
f 377/377 376/376 206/206
f 361/361 376/376 378/378
f 378/378 363/363 361/361
f 376/376 377/377 379/379
f 379/379 378/378 376/376
f 363/363 378/378 380/380
f 380/380 216/216 363/363
f 379/379 380/380 378/378
f 216/216 380/380 381/381
f 380/380 379/379 382/382
f 382/382 381/381 380/380
f 381/381 360/360 216/216
f 381/381 382/382 383/383
f 360/360 381/381 384/384
f 384/384 362/362 360/360
f 362/362 384/384 366/366
f 385/385 384/384 381/381
f 381/381 383/383 385/385
f 386/386 366/366 384/384
f 384/384 385/385 386/386
f 366/366 386/386 387/387
f 387/387 367/367 366/366
f 388/388 386/386 385/385
f 367/367 387/387 389/389
f 389/389 368/368 367/367
f 390/390 387/387 386/386
f 386/386 388/388 390/390
f 391/391 389/389 387/387
f 387/387 390/390 391/391
f 368/368 389/389 392/392
f 392/392 365/365 368/368
f 389/389 391/391 393/393
f 393/393 392/392 389/389
f 365/365 392/392 394/394
f 394/394 371/371 365/365
f 371/371 394/394 372/372
f 395/395 394/394 392/392
f 392/392 393/393 395/395
f 394/394 395/395 372/372
f 396/396 202/202 372/372
f 202/202 396/396 397/397
f 397/397 373/373 202/202
f 398/398 396/396 372/372
f 399/399 397/397 396/396
f 396/396 398/398 399/399
f 373/373 397/397 400/400
f 400/400 374/374 373/373
f 374/374 400/400 401/401
f 401/401 375/375 374/374
f 400/400 397/397 402/402
f 402/402 401/401 400/400
f 401/401 377/377 375/375
f 401/401 402/402 403/403
f 377/377 401/401 404/404
f 404/404 379/379 377/377
f 401/401 403/403 405/405
f 405/405 404/404 401/401
f 379/379 404/404 406/406
f 379/379 406/406 407/407
f 407/407 382/382 379/379
f 406/406 404/404 408/408
f 408/408 407/407 406/406
f 382/382 407/407 409/409
f 409/409 383/383 382/382
f 407/407 408/408 410/410
f 410/410 409/409 407/407
f 383/383 409/409 411/411
f 411/411 385/385 383/383
f 385/385 411/411 388/388
f 412/412 411/411 409/409
f 409/409 410/410 412/412
f 413/413 388/388 411/411
f 411/411 412/412 413/413
f 388/388 413/413 414/414
f 414/414 390/390 388/388
f 415/415 413/413 412/412
f 390/390 414/414 416/416
f 416/416 391/391 390/390
f 417/417 414/414 413/413
f 413/413 415/415 417/417
f 418/418 416/416 414/414
f 414/414 417/417 418/418
f 416/416 418/418 419/419
f 419/419 391/391 416/416
f 393/393 391/391 420/420
f 420/420 395/395 393/393
f 395/395 420/420 372/372
f 421/421 420/420 391/391
f 391/391 419/419 421/421
f 420/420 421/421 372/372
f 422/422 398/398 372/372
f 423/423 372/372 421/421
f 398/398 422/422 424/424
f 424/424 399/399 398/398
f 425/425 422/422 372/372
f 372/372 423/423 425/425
f 426/426 424/424 422/422
f 422/422 425/425 426/426
f 399/399 424/424 427/427
f 427/427 397/397 399/399
f 424/424 426/426 428/428
f 428/428 427/427 424/424
f 397/397 427/427 429/429
f 429/429 402/402 397/397
f 427/427 428/428 429/429
f 402/402 429/429 430/430
f 430/430 403/403 402/402
f 403/403 430/430 431/431
f 431/431 405/405 403/403
f 430/430 429/429 432/432
f 432/432 431/431 430/430
f 405/405 431/431 433/433
f 433/433 404/404 405/405
f 431/431 432/432 434/434
f 434/434 433/433 431/431
f 404/404 433/433 408/408
f 433/433 434/434 435/435
f 435/435 408/408 433/433
f 436/436 410/410 408/408
f 408/408 435/435 436/436
f 410/410 436/436 415/415
f 415/415 412/412 410/410
f 415/415 437/437 438/438
f 438/438 417/417 415/415
f 439/439 437/437 415/415
f 417/417 438/438 440/440
f 440/440 418/418 417/417
f 441/441 438/438 437/437
f 437/437 439/439 441/441
f 442/442 440/440 438/438
f 438/438 441/441 442/442
f 418/418 440/440 443/443
f 443/443 419/419 418/418
f 440/440 442/442 444/444
f 444/444 443/443 440/440
f 419/419 443/443 445/445
f 445/445 421/421 419/419
f 421/421 445/445 423/423
f 446/446 445/445 443/443
f 443/443 444/444 446/446
f 447/447 423/423 445/445
f 445/445 446/446 447/447
f 423/423 447/447 448/448
f 448/448 425/425 423/423
f 449/449 447/447 446/446
f 425/425 448/448 450/450
f 450/450 426/426 425/425
f 451/451 448/448 447/447
f 447/447 449/449 451/451
f 452/452 450/450 448/448
f 448/448 451/451 452/452
f 426/426 450/450 453/453
f 453/453 428/428 426/426
f 450/450 452/452 454/454
f 454/454 453/453 450/450
f 428/428 453/453 455/455
f 455/455 429/429 428/428
f 453/453 454/454 456/456
f 456/456 455/455 453/453
f 429/429 455/455 457/457
f 455/455 456/456 458/458
f 458/458 457/457 455/455
f 429/429 457/457 432/432
f 457/457 458/458 459/459
f 459/459 432/432 457/457
f 460/460 434/434 432/432
f 432/432 459/459 461/461
f 461/461 460/460 432/432
f 434/434 460/460 462/462
f 462/462 435/435 434/434
f 460/460 461/461 463/463
f 463/463 462/462 460/460
f 435/435 462/462 436/436
f 462/462 463/463 464/464
f 464/464 436/436 462/462
f 465/465 415/415 436/436
f 415/415 465/465 439/439
f 466/466 465/465 436/436
f 436/436 464/464 466/466
f 467/467 439/439 465/465
f 465/465 466/466 467/467
f 439/439 467/467 441/441
f 468/468 467/467 466/466
f 469/469 442/442 441/441
f 467/467 468/468 441/441
f 470/470 469/469 441/441
f 442/442 469/469 471/471
f 471/471 444/444 442/442
f 469/469 470/470 471/471
f 472/472 470/470 441/441
f 470/470 472/472 473/473
f 473/473 471/471 470/470
f 441/441 474/474 472/472
f 474/474 441/441 468/468
f 471/471 473/473 475/475
f 468/468 476/476 474/474
f 475/475 477/477 471/471
f 477/477 475/475 478/478
f 444/444 471/471 479/479
f 477/477 479/479 471/471
f 479/479 446/446 444/444
f 446/446 479/479 449/449
f 479/479 477/477 480/480
f 478/478 480/480 477/477
f 480/480 449/449 479/479
f 480/480 478/478 481/481
f 449/449 480/480 481/481
f 481/481 451/451 449/449
f 451/451 481/481 482/482
f 483/483 482/482 481/481
f 482/482 452/452 451/451
f 482/482 483/483 484/484
f 452/452 482/482 485/485
f 484/484 485/485 482/482
f 485/485 454/454 452/452
f 485/485 484/484 486/486
f 454/454 485/485 487/487
f 486/486 487/487 485/485
f 487/487 456/456 454/454
f 487/487 486/486 488/488
f 456/456 487/487 489/489
f 488/488 489/489 487/487
f 489/489 458/458 456/456
f 489/489 488/488 490/490
f 458/458 489/489 491/491
f 490/490 491/491 489/489
f 491/491 459/459 458/458
f 491/491 490/490 492/492
f 459/459 491/491 461/461
f 492/492 461/461 491/491
f 461/461 492/492 493/493
f 493/493 463/463 461/461
f 463/463 493/493 494/494
f 494/494 495/495 463/463
f 495/495 464/464 463/463
f 495/495 494/494 496/496
f 464/464 495/495 466/466
f 496/496 466/466 495/495
f 466/466 496/496 476/476
f 476/476 468/468 466/466
