v 0.192359462 0.165465966 0.399001241
v 0.190731674 0.165704742 0.400355458
v 0.19073233 0.165531844 0.400387794
v 0.19073081 0.16593276 0.400312781
v 0.192360193 0.165292934 0.399032861
v 0.192360133 0.165165603 0.399055481
v 0.19373776 0.165010497 0.397431016
v 0.192358494 0.165694147 0.398959577
v 0.192357332 0.165963724 0.398910344
v 0.193736032 0.165411964 0.397359163
v 0.193737 0.165183619 0.397400022
v 0.194864303 0.164857522 0.395550638
v 0.194864988 0.16468437 0.395581454
v 0.19486472 0.164556965 0.395603657
v 0.195741877 0.164314419 0.393483341
v 0.194863394 0.165085897 0.395510018
v 0.194862321 0.165355682 0.395462006
v 0.195740581 0.164715707 0.393410474
v 0.196399286 0.163274392 0.386572242
v 0.196392164 0.162819579 0.386655003
v 0.196869701 0.160246566 0.370413452
v 0.196398109 0.163771719 0.386478901
v 0.196868181 0.161212653 0.370226294
v 0.196869448 0.160419255 0.370380014
v 0.197183073 0.15495041 0.340377569
v 0.197182342 0.154823482 0.340402484
v 0.197182775 0.155350611 0.340298623
v 0.197182551 0.155619502 0.340245545
v 0.197370976 0.146814242 0.291886568
v 0.197371066 0.146586567 0.291931182
v -0.295383662 0.106703281 0.0684047267
v -0.293520838 0.108067662 0.0670068637
v -0.293505996 0.106507659 0.0672953203
v -0.29701075 0.106942378 0.0697607026
v -0.297026783 0.108502991 0.0694757625
v -0.298387378 0.107224964 0.0713633001
v -0.298402607 0.108786032 0.0710809305
v -0.299527675 0.109112531 0.0729326084
v -0.299513698 0.107551023 0.0732125044
v -0.300389737 0.10792058 0.0753083527
v -0.300402403 0.109482422 0.0750303715
v -0.301046818 0.109132916 0.0821837857
v -0.301058203 0.110694863 0.0819064528
v -0.301516145 0.111987293 0.0983717367
v -0.302024543 0.146286994 0.291989833
v -0.301516145 0.159965053 0.370466173
v -0.301526457 0.161523014 0.370166183
v -0.301058203 0.164379284 0.386364877
v -0.301046818 0.162819579 0.386655003
v -0.300402403 0.165593505 0.393251032
v -0.298395753 0.165010497 0.397431016
v -0.298396677 0.165183634 0.397400022
v -0.299527645 0.165964276 0.395353734
v -0.298397899 0.165411964 0.397359163
v 0.19743374 0.136430115 0.23433128
v 0.197433785 0.13625735 0.234364375
v 0.197370261 0.125973701 0.176787823
v 0.197433725 0.136657953 0.234287649
v 0.19743365 0.136927113 0.234236106
v 0.197370976 0.126501858 0.176689774
v 0.197182909 0.117737763 0.128322035
v 0.197183073 0.117564671 0.128353268
v 0.197182298 0.117437378 0.128376082
v 0.196869686 0.112268977 0.0983199775
v 0.19718276 0.117966034 0.128280848
v 0.197182551 0.1182357 0.128232196
v 0.196869075 0.112670556 0.0982487947
v 0.196869403 0.112442158 0.0982892811
v 0.196405023 0.109587274 0.0821070671
v 0.196423918 0.109291784 0.0821903571
v 0.195787758 0.108202182 0.0753019899
v 0.19640103 0.109815478 0.082063444
v 0.196398675 0.110085294 0.0820142329
v 0.195764259 0.108373418 0.0752485991
v 0.194921687 0.10800086 0.073187016
v 0.194979712 0.107832626 0.0732749626
v 0.195361376 0.107690439 0.0740500763
v 0.193967238 0.107506663 0.0715410262
v 0.194868058 0.108495973 0.0730472654
v 0.193781972 0.107893273 0.071286045
v 0.193851784 0.107669905 0.0713955835
v 0.192640066 0.107217088 0.0700046569
v 0.192983285 0.107122026 0.0703814924
v 0.190816447 0.10674417 0.0686957166
v 0.190762043 0.107351042 0.0683251321
v 0.188738421 0.106527828 0.0674653426
v 0.192414582 0.107601106 0.069696784
v 0.192371428 0.107869871 0.0696039125
v 0.190728649 0.166499048 0.400206894
v 0.19235611 0.166260868 0.398856074
v 0.192354813 0.166571811 0.39879927
v 0.188852116 0.166397288 0.401369274
v 0.190729767 0.166202128 0.400262415
v 0.193733618 0.165979043 0.397257715
v 0.194859892 0.165964276 0.395353734
v 0.194861144 0.16565308 0.395409107
v 0.193734869 0.165681705 0.397310913
v 0.195738673 0.165282518 0.393307507
v 0.195737675 0.165593505 0.393251032
v 0.196396604 0.164379284 0.386364877
v 0.196397364 0.164068609 0.3864232
v 0.195739686 0.164985314 0.393361509
v 0.197182089 0.156226084 0.340125918
v 0.197370768 0.147379667 0.291775793
v 0.197433606 0.13722381 0.234179288
v 0.197370902 0.147083193 0.291833878
v 0.197182313 0.118532963 0.128178567
v 0.196867719 0.113549016 0.0980930775
v 0.196868181 0.113237791 0.0981482416
v 0.196396604 0.110694259 0.0819065571
v 0.196397349 0.11038284 0.0819613263
v 0.196868643 0.112940364 0.0982009619
v 0.195738673 0.109168209 0.0750856102
v 0.195737675 0.109479986 0.0750308037
v 0.194859892 0.109106444 0.0729337111
v 0.194861144 0.108793996 0.0729888454
v 0.195741966 0.108870484 0.0751402602
v 0.193733647 0.108460285 0.0711387917
v 0.192354858 0.108484134 0.0694792047
v 0.192356199 0.108169325 0.0695354491
v 0.193746418 0.108161747 0.0712034404
v 0.190728754 0.107923359 0.0681787506
v 0.188850373 0.108040892 0.0670117438
v 0.188848719 0.107422195 0.0671270862
v 0.19073768 0.10762237 0.0682437122
v 0.186708286 0.107272282 0.066258274
v 0.186723307 0.107891172 0.0661484227
v 0.177321762 0.107782699 0.0655011907
v -0.29701972 0.165465966 0.399001271
v -0.297022909 0.165963724 0.398910314
v -0.295393586 0.16593276 0.400312811
v -0.295391977 0.165704742 0.400355458
v -0.293513358 0.165900171 0.401463747
v -0.293510914 0.165600166 0.401519984
v -0.2913827 0.165879622 0.402360082
v -0.293514907 0.166128069 0.401420444
v -0.293516755 0.166397303 0.401369274
v -0.291384906 0.166280359 0.402284086
v -0.291383684 0.166052431 0.402327299
v -0.281978846 0.166166872 0.402976274
v -0.28197825 0.165993974 0.40300858
v -0.281977504 0.165866703 0.403031558
v -0.258274674 0.166075781 0.403472513
v -0.28197971 0.166394889 0.402933627
v -0.281980664 0.166664273 0.402883291
v -0.2582753 0.16647695 0.403398991
v -0.258274943 0.166248783 0.403440803
v -0.213247836 0.166303501 0.403751075
v -0.213247895 0.166130394 0.403782189
v -0.213247806 0.166002959 0.403804272
v -0.139873818 0.166163161 0.403968006
v -0.213247776 0.166531801 0.403710008
v -0.213247672 0.166801497 0.403661549
v -0.139873207 0.166564703 0.40389666
v -0.139873564 0.166336328 0.40393725
v -0.052325841 0.166347265 0.403999299
v -0.0523262061 0.166174069 0.404029965
v -0.0523264706 0.166046575 0.404051661
v 0.0352211781 0.166163161 0.403968006
v -0.0523248017 0.1668455 0.403911084
v 0.0352220312 0.166564703 0.40389666
v 0.10859485 0.166303501 0.403751075
v 0.108594574 0.166130394 0.403782219
v 0.108594261 0.166002959 0.403804272
v 0.153620198 0.166075781 0.403472543
v 0.153620318 0.166248783 0.403440803
v 0.153620467 0.16647695 0.403398991
v 0.177322403 0.165993974 0.40300858
v 0.177320048 0.165711015 0.403053135
v 0.186725289 0.166052431 0.402327299
v 0.177322194 0.166394889 0.402933657
v 0.177322045 0.166664258 0.402883291
v 0.186724871 0.166280359 0.402284086
v 0.188853621 0.165900171 0.401463747
v 0.188854143 0.165727362 0.401496589
v 0.188854098 0.165600166 0.401520014
v 0.188852921 0.166128069 0.401420444
v -0.213247493 0.107666165 0.0647298843
v 0.153621078 0.107708111 0.0650390014
v 0.0663892031 0.106092185 0.0648301095
v -0.139859989 0.106073 0.0648301989
v -0.0530639887 0.106212512 0.0647269636
v -0.258269697 0.106159925 0.0653231889
v -0.291377753 0.106355518 0.0664324909
v -0.291389763 0.107915513 0.0661440119
v -0.281973988 0.10624142 0.0657853931
v 0.126402467 0.106142066 0.0650219098
v 0.103170119 0.106060125 0.0649894103
v 0.153250486 0.106388375 0.0651989281
v 0.146427482 0.106244415 0.0651468113
v 0.176853269 0.10644991 0.0656537637
v 0.186300978 0.106433079 0.0664020255
v 0.174447358 0.106274113 0.0655727759
v 0.146465719 0.106138349 0.0652051196
v 0.108511306 0.106052049 0.0651256144
v 0.10861744 0.106061205 0.0653278604
v 0.153505832 0.10612376 0.065603517
v 0.177094713 0.106213816 0.0660421848
v 0.186504334 0.106333859 0.066696614
v 0.188696146 0.106491074 0.0675865039
v 0.190631628 0.106692679 0.0687315837
v 0.192273706 0.106927857 0.0700917095
v 0.19254531 0.106985189 0.0701152757
v 0.19419533 0.107329346 0.0719595701
v 0.193585262 0.107185818 0.0716267228
v 0.194623545 0.107482389 0.0733877793
v 0.194843724 0.10750442 0.0733623952
v 0.195064589 0.107568204 0.0735421032
v 0.194230869 0.10744106 0.0719332919
v 0.195592046 0.107819438 0.0746258125
v 0.195943877 0.108053453 0.0756850988
v 0.196004421 0.108026214 0.0758519918
v 0.196447641 0.109213449 0.0822665691
v 0.195840791 0.108093433 0.0754243135
v 0.196866244 0.112050563 0.0983575061
v 0.197174311 0.117282614 0.128402859
v 0.197179645 0.117346488 0.1283921
v 0.196868941 0.112141587 0.0983422697
v 0.197367683 0.125882939 0.176804557
v 0.197362617 0.146132752 0.292019576
v 0.197179839 0.154732853 0.340420038
v 0.196861699 0.159965038 0.370466143
v 0.197370291 0.146286994 0.291989833
v 0.196866676 0.16002883 0.370454907
v 0.196869045 0.160119548 0.37043789
v 0.195739433 0.164096132 0.393521607
v 0.195734888 0.164032042 0.393531173
v 0.193732113 0.164727673 0.397476345
v 0.194862843 0.164465874 0.395618558
v 0.195741519 0.164187118 0.39350614
v 0.193735942 0.164791986 0.397468001
v 0.192355335 0.165010154 0.399078339
v 0.192358702 0.165074497 0.399070293
v 0.190731063 0.165313527 0.400425851
v 0.188850731 0.165444672 0.401542693
v 0.190732285 0.165404603 0.400410891
v 0.186722741 0.165596843 0.40240562
v 0.153618217 0.165792614 0.403515846
v 0.0352208577 0.166035682 0.403989792
v -0.0523267947 0.165890574 0.404071391
v -0.0523266606 0.16595526 0.404065192
v -0.213247508 0.165911674 0.403818071
v -0.258272409 0.165792614 0.403515875
v -0.139873952 0.166035682 0.403989792
v -0.258273602 0.165857211 0.40350917
v -0.281974673 0.165711015 0.403053135
v -0.258274287 0.165948421 0.403495014
v -0.291377753 0.165596843 0.40240562
v -0.293505996 0.165444687 0.401542693
v -0.293509007 0.165509105 0.401535004
v -0.29701072 0.165010154 0.399078339
v -0.298391819 0.164791986 0.397468001
v -0.299513668 0.16440165 0.395627379
v -0.298394382 0.164883092 0.397453278
v -0.300389737 0.164032042 0.393531173
v -0.30202195 0.125882998 0.17680493
v -0.30207935 0.135976046 0.234418243
v -0.301834196 0.117346652 0.128393039
v -0.302025706 0.12737906 0.176526859
v -0.281982869 0.107801564 0.0654977486
v -0.301526457 0.113549016 0.0980930775
v -0.298402607 0.166290179 0.397202045
v -0.297026783 0.166571811 0.3987993
v -0.29539752 0.166499063 0.400206894
v -0.295399666 0.166809767 0.400148779
v -0.293520838 0.16700463 0.401253879
v -0.293518722 0.166694075 0.401312888
v -0.295395464 0.166202128 0.400262415
v -0.291386396 0.166549608 0.402233034
v -0.291389763 0.167156979 0.402117878
v -0.281982869 0.167271912 0.402769685
v -0.281981766 0.166961193 0.40282777
v -0.258276165 0.167043597 0.40329513
v -0.213247493 0.167409882 0.403552145
v -0.213247597 0.16709879 0.403608084
v -0.258275688 0.166746482 0.403349578
v -0.0523241796 0.167142928 0.403858453
v 0.108596638 0.167409882 0.403552145
v 0.0352232307 0.167131901 0.403795868
v 0.108596131 0.16709879 0.403608084
v 0.0352225974 0.166834489 0.403848708
v 0.153620824 0.167043597 0.40329513
v 0.177321672 0.167271912 0.402769685
v 0.15362066 0.166746482 0.403349578
v 0.186723813 0.166846395 0.402176768
v 0.186723232 0.167156979 0.402117878
v 0.188850299 0.16700463 0.401253879
v 0.188851222 0.166694075 0.401312858
v 0.186724365 0.166549608 0.402233034
f 1 2 3
f 4 2 1
f 3 5 1
f 6 5 3
f 7 5 6
f 1 5 7
f 1 8 4
f 4 8 9
f 9 8 10
f 10 8 1
f 7 11 1
f 1 11 10
f 12 11 7
f 10 11 12
f 7 13 12
f 14 13 7
f 15 13 14
f 12 13 15
f 12 16 10
f 10 16 17
f 17 16 18
f 18 16 12
f 15 18 12
f 19 18 15
f 15 20 19
f 19 20 21
f 18 19 22
f 22 19 23
f 21 24 19
f 19 24 23
f 21 25 24
f 26 25 21
f 24 27 23
f 23 27 28
f 28 27 29
f 29 27 24
f 25 30 24
f 24 30 29
f 31 32 33
f 34 35 31
f 36 35 34
f 36 37 35
f 38 37 36
f 36 39 38
f 38 39 40
f 38 40 41
f 41 40 42
f 42 43 41
f 44 43 42
f 45 46 47
f 47 46 48
f 46 49 48
f 48 49 50
f 51 52 53
f 53 52 54
f 55 30 25
f 29 30 55
f 25 56 55
f 57 56 25
f 55 58 29
f 29 58 59
f 59 58 60
f 60 58 55
f 56 61 55
f 55 61 60
f 56 62 61
f 63 62 56
f 64 62 63
f 61 62 64
f 61 65 60
f 60 65 66
f 66 65 67
f 67 65 61
f 64 68 61
f 61 68 67
f 69 68 64
f 67 68 69
f 70 69 64
f 71 69 70
f 69 72 67
f 67 72 73
f 73 72 74
f 74 72 69
f 71 74 69
f 75 74 71
f 71 76 75
f 77 76 71
f 78 76 77
f 75 76 78
f 75 79 74
f 80 79 75
f 78 81 75
f 75 81 80
f 82 81 78
f 80 81 82
f 83 82 78
f 84 82 83
f 85 84 86
f 82 84 85
f 82 87 80
f 85 87 82
f 80 87 88
f 88 87 85
f 89 90 91
f 92 93 89
f 91 90 94
f 94 95 91
f 9 90 89
f 89 93 9
f 94 90 9
f 4 93 92
f 9 93 4
f 94 96 95
f 9 97 94
f 95 96 98
f 98 99 95
f 17 96 94
f 94 97 17
f 98 96 17
f 100 99 98
f 10 97 9
f 17 97 10
f 98 101 100
f 17 102 98
f 100 101 23
f 22 101 98
f 98 102 22
f 23 101 22
f 103 100 23
f 18 102 17
f 22 102 18
f 28 103 23
f 104 103 28
f 104 105 103
f 28 106 104
f 103 105 107
f 59 105 104
f 104 106 59
f 107 105 59
f 108 103 107
f 29 106 28
f 59 106 29
f 108 107 109
f 107 59 66
f 109 107 66
f 110 108 109
f 66 59 60
f 109 111 110
f 66 112 109
f 110 111 113
f 113 114 110
f 73 111 109
f 109 112 73
f 113 111 73
f 115 114 113
f 67 112 66
f 73 112 67
f 113 116 115
f 73 117 113
f 115 116 118
f 79 116 113
f 113 117 79
f 118 116 79
f 119 115 118
f 74 117 73
f 79 117 74
f 118 120 119
f 79 121 118
f 119 120 122
f 88 120 118
f 118 121 88
f 122 120 88
f 123 119 122
f 80 121 79
f 88 121 80
f 122 124 123
f 88 125 122
f 123 124 126
f 126 127 123
f 122 125 124
f 128 127 126
f 85 125 88
f 124 125 85
f 129 52 51
f 54 52 129
f 129 130 54
f 131 130 129
f 129 132 131
f 131 132 133
f 132 134 133
f 133 134 135
f 133 136 131
f 131 136 137
f 137 136 138
f 138 136 133
f 135 139 133
f 133 139 138
f 140 139 135
f 138 139 140
f 135 141 140
f 142 141 135
f 143 141 142
f 140 141 143
f 140 144 138
f 138 144 145
f 145 144 146
f 146 144 140
f 143 147 140
f 140 147 146
f 148 147 143
f 146 147 148
f 143 149 148
f 150 149 143
f 151 149 150
f 148 149 151
f 148 152 146
f 146 152 153
f 153 152 154
f 154 152 148
f 151 155 148
f 148 155 154
f 156 155 151
f 154 155 156
f 151 157 156
f 158 157 151
f 159 157 158
f 156 157 159
f 156 160 154
f 161 160 156
f 159 162 156
f 156 162 161
f 159 163 162
f 164 163 159
f 165 163 164
f 162 163 165
f 165 166 162
f 162 166 167
f 168 166 165
f 167 166 168
f 169 168 165
f 170 168 169
f 168 171 167
f 167 171 172
f 172 171 173
f 173 171 168
f 168 170 173
f 173 170 174
f 170 175 174
f 176 175 170
f 3 175 176
f 174 175 3
f 174 177 173
f 173 177 92
f 92 177 4
f 4 177 174
f 3 2 174
f 174 2 4
f 178 179 180
f 181 178 182
f 182 178 180
f 183 178 181
f 184 185 186
f 32 185 184
f 33 32 184
f 180 181 182
f 187 188 180
f 189 190 187
f 179 187 180
f 179 189 187
f 191 189 179
f 179 128 191
f 191 128 126
f 191 126 192
f 189 191 193
f 193 191 192
f 193 190 189
f 187 190 193
f 192 126 86
f 126 124 86
f 86 124 85
f 193 194 187
f 187 194 188
f 194 195 188
f 196 195 194
f 194 197 196
f 198 197 194
f 194 193 198
f 198 193 192
f 192 199 198
f 200 199 192
f 192 86 200
f 200 86 84
f 84 201 200
f 202 201 84
f 84 203 202
f 83 203 84
f 202 203 204
f 204 203 83
f 204 205 202
f 206 205 204
f 204 207 206
f 208 207 204
f 208 204 77
f 77 204 83
f 83 209 77
f 210 77 211
f 211 212 210
f 78 209 83
f 77 209 78
f 211 213 212
f 77 214 211
f 212 213 215
f 70 213 211
f 211 214 70
f 215 213 70
f 216 212 215
f 71 214 77
f 70 214 71
f 215 217 216
f 70 218 215
f 216 217 219
f 63 217 215
f 215 218 63
f 219 217 63
f 220 216 219
f 64 218 70
f 63 218 64
f 219 57 220
f 63 57 219
f 220 57 221
f 222 220 221
f 56 57 63
f 57 223 221
f 222 221 224
f 221 223 26
f 224 221 26
f 20 222 224
f 25 223 57
f 26 223 25
f 26 225 224
f 226 227 20
f 224 225 20
f 228 227 226
f 21 225 26
f 20 225 21
f 226 229 228
f 20 230 226
f 228 229 231
f 14 229 226
f 226 230 14
f 231 229 14
f 232 228 231
f 15 230 20
f 14 230 15
f 231 233 232
f 14 7 231
f 232 233 234
f 234 235 232
f 6 233 231
f 231 7 6
f 234 233 6
f 234 176 235
f 6 236 234
f 235 176 170
f 170 237 235
f 234 236 176
f 169 237 170
f 3 236 6
f 176 236 3
f 165 238 169
f 165 164 238
f 238 164 239
f 239 240 238
f 239 241 240
f 158 241 239
f 240 241 158
f 159 239 164
f 158 239 159
f 240 242 243
f 158 244 240
f 243 242 245
f 150 242 240
f 240 244 150
f 245 242 150
f 246 243 245
f 151 244 158
f 150 244 151
f 150 247 245
f 135 248 246
f 142 246 245
f 245 247 142
f 135 246 142
f 249 248 135
f 143 247 150
f 142 247 143
f 135 250 249
f 249 250 132
f 132 251 249
f 134 250 135
f 132 250 134
f 132 129 251
f 251 129 252
f 252 253 251
f 252 53 253
f 129 254 252
f 253 53 255
f 252 254 53
f 51 254 129
f 53 254 51
f 50 255 53
f 49 255 50
f 256 44 257
f 46 45 257
f 256 258 44
f 259 256 257
f 258 256 259
f 35 32 31
f 260 186 185
f 183 186 260
f 183 260 178
f 261 258 259
f 44 261 43
f 258 261 44
f 259 257 45
f 47 259 45
f 262 130 263
f 263 130 264
f 264 265 263
f 266 265 264
f 54 262 53
f 130 262 54
f 264 267 266
f 130 268 264
f 266 267 269
f 269 270 266
f 137 267 264
f 264 268 137
f 269 267 137
f 271 270 269
f 131 268 130
f 137 268 131
f 269 272 271
f 271 272 273
f 145 272 269
f 273 272 145
f 274 271 273
f 138 269 137
f 145 269 138
f 273 275 274
f 145 276 273
f 274 275 277
f 153 275 273
f 273 276 153
f 277 275 153
f 278 274 277
f 146 276 145
f 153 276 146
f 153 160 277
f 278 277 279
f 279 277 160
f 154 160 153
f 279 280 278
f 160 281 279
f 278 280 282
f 282 283 278
f 162 280 279
f 279 281 162
f 282 280 162
f 161 281 160
f 162 281 161
f 162 284 282
f 285 286 283
f 172 283 282
f 282 284 172
f 285 283 172
f 287 286 285
f 167 284 162
f 172 284 167
f 285 288 287
f 172 289 285
f 287 288 89
f 89 91 287
f 92 288 285
f 285 289 92
f 89 288 92
f 173 289 172
f 92 289 173
