v -0.457200021 0.202199996 0.179290444
v -0.456200033 0.203199998 0.179290444
v -0.456200033 0.202199996 0.178290442
v 0.456200033 0.202199996 0.178290442
v 0.456200033 0.203199998 0.179290444
v 0.457200021 0.202199996 0.179290444
v -0.456200033 0.202199996 0.714501977
v -0.456200033 0.203199998 0.71350199
v -0.457200021 0.202199996 0.71350199
v 0.457200021 0.202199996 0.71350199
v 0.456200033 0.203199998 0.71350199
v 0.456200033 0.202199996 0.714501977
v 0.454828382 0.202199996 0.195178807
v 0.454828382 0.203199998 0.196178824
v 0.455828369 0.202199996 0.196178824
v -0.455828369 0.202199996 0.196178824
v -0.454828382 0.203199998 0.196178824
v -0.454828382 0.202199996 0.195178807
v 0.454828382 0.203199998 0.69661355
v 0.454828382 0.202199996 0.697613537
v 0.455828369 0.202199996 0.69661355
v -0.455828369 0.202199996 0.69661355
v -0.454828382 0.202199996 0.697613537
v -0.454828382 0.203199998 0.69661355
v -0.456200033 -0.203199998 0.179290444
v -0.457200021 -0.202199996 0.179290444
v -0.456200033 -0.202199996 0.178290442
v 0.456200033 -0.202199996 0.178290442
v 0.457200021 -0.202199996 0.179290444
v 0.456200033 -0.203199998 0.179290444
v 0.434813142 0.202199996 0.196178824
v 0.433813184 0.202199996 0.195178807
v 0.433813184 0.203199998 0.196178824
v -0.433813184 0.202199996 0.195178807
v -0.434813142 0.202199996 0.196178824
v -0.433813184 0.203199998 0.196178824
v -0.456200033 -0.202199996 0.714501977
v -0.457200021 -0.202199996 0.71350199
v -0.456200033 -0.203199998 0.71350199
v 0.456200033 -0.203199998 0.71350199
v 0.457200021 -0.202199996 0.71350199
v 0.456200033 -0.202199996 0.714501977
v 0.434813142 0.202199996 0.69661355
v 0.433813184 0.203199998 0.69661355
v 0.433813184 0.202199996 0.697613537
v -0.433813184 0.203199998 0.69661355
v -0.434813142 0.202199996 0.69661355
v -0.433813184 0.202199996 0.697613537
v 0.455828369 -0.202199996 0.196178824
v 0.454828382 -0.203199998 0.196178824
v 0.454828382 -0.202199996 0.195178807
v -0.454828382 -0.202199996 0.195178807
v -0.454828382 -0.203199998 0.196178824
v -0.455828369 -0.202199996 0.196178824
v -0.456200033 -0.202199996 0.178290442
v -0.457200021 -0.202199996 0.179290444
v -0.457200021 0.202199996 0.179290444
v -0.456200033 0.202199996 0.178290442
v 0.456200033 0.202199996 0.178290442
v 0.457200021 0.202199996 0.179290444
v 0.457200021 -0.202199996 0.179290444
v 0.456200033 -0.202199996 0.178290442
v 0.455828369 -0.202199996 0.69661355
v 0.454828382 -0.202199996 0.697613537
v 0.454828382 -0.203199998 0.69661355
v -0.454828382 -0.203199998 0.69661355
v -0.454828382 -0.202199996 0.697613537
v -0.455828369 -0.202199996 0.69661355
v 0.456200033 -0.202199996 0.714501977
v 0.457200021 -0.202199996 0.71350199
v 0.457200021 0.202199996 0.71350199
v 0.456200033 0.202199996 0.714501977
v -0.456200033 0.202199996 0.714501977
v -0.457200021 0.202199996 0.71350199
v -0.457200021 -0.202199996 0.71350199
v -0.456200033 -0.202199996 0.714501977
v 0.455828369 -0.202199996 0.196178824
v 0.454828382 -0.202199996 0.195178807
v 0.454828382 0.202199996 0.195178807
v 0.455828369 0.202199996 0.196178824
v -0.455828369 0.202199996 0.196178824
v -0.454828382 0.202199996 0.195178807
v -0.454828382 -0.202199996 0.195178807
v -0.455828369 -0.202199996 0.196178824
v 0.455828369 0.202199996 0.69661355
v 0.454828382 0.202199996 0.697613537
v 0.454828382 -0.202199996 0.697613537
v 0.455828369 -0.202199996 0.69661355
v -0.455828369 -0.202199996 0.69661355
v -0.454828382 -0.202199996 0.697613537
v -0.454828382 0.202199996 0.697613537
v -0.455828369 0.202199996 0.69661355
v 0.433813184 0.202199996 0.195178807
v 0.434813142 0.202199996 0.196178824
v 0.434813142 0.191642776 0.196178824
v 0.433813184 0.191642776 0.195178807
v -0.433813184 0.191642776 0.195178807
v -0.434813142 0.191642776 0.196178824
v -0.434813142 0.202199996 0.196178824
v -0.433813184 0.202199996 0.195178807
v -0.433813184 0.202199996 0.697613537
v -0.434813142 0.202199996 0.69661355
v -0.434813142 0.191642776 0.69661355
v -0.433813184 0.191642776 0.697613537
v 0.433813184 0.191642776 0.697613537
v 0.434813142 0.191642776 0.69661355
v 0.434813142 0.202199996 0.69661355
v 0.433813184 0.202199996 0.697613537
v 0.457200021 0.202199996 0.179290444
v 0.456200033 0.203199998 0.179290444
v 0.456200033 0.203199998 0.194178805
v 0.457200021 0.202199996 0.194178805
v -0.456200033 0.203199998 0.179290444
v -0.457200021 0.202199996 0.179290444
v -0.457200021 0.202199996 0.194178805
v -0.456200033 0.203199998 0.194178805
v 0.457200021 0.202199996 0.698613524
v 0.456200033 0.203199998 0.698613524
v 0.456200033 0.203199998 0.71350199
v 0.457200021 0.202199996 0.71350199
v -0.456200033 0.203199998 0.698613524
v -0.457200021 0.202199996 0.698613524
v -0.457200021 0.202199996 0.71350199
v -0.456200033 0.203199998 0.71350199
v 0.454828382 0.203199998 0.69661355
v 0.455828369 0.202199996 0.69661355
v 0.455828369 0.202199996 0.196178824
v 0.454828382 0.203199998 0.196178824
v -0.455828369 0.202199996 0.69661355
v -0.454828382 0.203199998 0.69661355
v -0.454828382 0.203199998 0.196178824
v -0.455828369 0.202199996 0.196178824
v 0.433813184 0.203199998 0.69661355
v 0.434813142 0.202199996 0.69661355
v 0.434813142 0.202199996 0.196178824
v 0.433813184 0.203199998 0.196178824
v -0.433813184 0.203199998 0.196178824
v -0.434813142 0.202199996 0.196178824
v -0.434813142 0.202199996 0.69661355
v -0.433813184 0.203199998 0.69661355
v 0.457200021 0.202199996 0.179290444
v 0.457200021 0.202199996 0.194178805
v 0.457200021 -0.202199996 0.194178805
v 0.457200021 -0.202199996 0.179290444
v -0.457200021 -0.202199996 0.179290444
v -0.457200021 -0.202199996 0.194178805
v -0.457200021 0.202199996 0.194178805
v -0.457200021 0.202199996 0.179290444
v 0.457200021 0.202199996 0.71350199
v 0.457200021 -0.202199996 0.71350199
v 0.457200021 -0.202199996 0.698613524
v 0.457200021 0.202199996 0.698613524
v -0.457200021 -0.202199996 0.71350199
v -0.457200021 0.202199996 0.71350199
v -0.457200021 0.202199996 0.698613524
v -0.457200021 -0.202199996 0.698613524
v 0.455828369 0.202199996 0.196178824
v 0.455828369 0.202199996 0.69661355
v 0.455828369 -0.202199996 0.69661355
v 0.455828369 -0.202199996 0.196178824
v -0.455828369 -0.202199996 0.196178824
v -0.455828369 -0.202199996 0.69661355
v -0.455828369 0.202199996 0.69661355
v -0.455828369 0.202199996 0.196178824
v 0.456200033 -0.203199998 0.179290444
v 0.457200021 -0.202199996 0.179290444
v 0.457200021 -0.202199996 0.194178805
v 0.456200033 -0.203199998 0.194178805
v -0.456200033 -0.203199998 0.71350199
v -0.457200021 -0.202199996 0.71350199
v -0.457200021 -0.202199996 0.698613524
v -0.456200033 -0.203199998 0.698613524
v 0.456200033 -0.203199998 0.698613524
v 0.457200021 -0.202199996 0.698613524
v 0.457200021 -0.202199996 0.71350199
v 0.456200033 -0.203199998 0.71350199
v -0.456200033 -0.203199998 0.194178805
v -0.457200021 -0.202199996 0.194178805
v -0.457200021 -0.202199996 0.179290444
v -0.456200033 -0.203199998 0.179290444
v 0.455828369 -0.202199996 0.69661355
v 0.454828382 -0.203199998 0.69661355
v 0.454828382 -0.203199998 0.196178824
v 0.455828369 -0.202199996 0.196178824
v -0.454828382 -0.203199998 0.69661355
v -0.455828369 -0.202199996 0.69661355
v -0.455828369 -0.202199996 0.196178824
v -0.454828382 -0.203199998 0.196178824
v -0.434813142 0.202199996 0.69661355
v -0.434813142 0.202199996 0.196178824
v -0.434813142 0.191642776 0.196178824
v -0.434813142 0.191642776 0.69661355
v 0.434813142 0.191642776 0.69661355
v 0.434813142 0.191642776 0.196178824
v 0.434813142 0.202199996 0.196178824
v 0.434813142 0.202199996 0.69661355
v -0.456200033 0.202199996 0.178290442
v -0.456200033 0.203199998 0.179290444
v 0.456200033 0.203199998 0.179290444
v 0.456200033 0.202199996 0.178290442
v 0.456200033 0.202199996 0.714501977
v 0.456200033 0.203199998 0.71350199
v -0.456200033 0.203199998 0.71350199
v -0.456200033 0.202199996 0.714501977
v 0.454828382 0.203199998 0.196178824
v 0.454828382 0.202199996 0.195178807
v 0.435813129 0.202199996 0.195178807
v 0.435813129 0.203199998 0.196178824
v -0.435813129 0.203199998 0.196178824
v -0.435813129 0.202199996 0.195178807
v -0.454828382 0.202199996 0.195178807
v -0.454828382 0.203199998 0.196178824
v -0.433813184 0.202199996 0.195178807
v -0.433813184 0.203199998 0.196178824
v 0.433813184 0.203199998 0.196178824
v 0.433813184 0.202199996 0.195178807
v -0.454828382 0.203199998 0.69661355
v -0.454828382 0.202199996 0.697613537
v -0.435813129 0.202199996 0.697613537
v -0.435813129 0.203199998 0.69661355
v 0.435813129 0.203199998 0.69661355
v 0.435813129 0.202199996 0.697613537
v 0.454828382 0.202199996 0.697613537
v 0.454828382 0.203199998 0.69661355
v -0.433813184 0.203199998 0.69661355
v -0.433813184 0.202199996 0.697613537
v 0.433813184 0.202199996 0.697613537
v 0.433813184 0.203199998 0.69661355
v 0.456200033 -0.202199996 0.178290442
v 0.456200033 -0.203199998 0.179290444
v -0.456200033 -0.203199998 0.179290444
v -0.456200033 -0.202199996 0.178290442
v -0.456200033 -0.202199996 0.714501977
v -0.456200033 -0.203199998 0.71350199
v 0.456200033 -0.203199998 0.71350199
v 0.456200033 -0.202199996 0.714501977
v -0.00316416495 -0.212450653 0.69435674
v -0.00225559226 -0.214001685 0.692805707
v 0.00225559226 -0.214001685 0.692805707
v 0.00316416542 -0.212450653 0.69435674
v -0.454828382 -0.203199998 0.196178824
v -0.454828382 -0.202199996 0.195178807
v -0.435813129 -0.202199996 0.195178807
v -0.435813129 -0.203199998 0.196178824
v 0.435813129 -0.203199998 0.196178824
v 0.435813129 -0.202199996 0.195178807
v 0.454828382 -0.202199996 0.195178807
v 0.454828382 -0.203199998 0.196178824
v 0.454828382 -0.203199998 0.69661355
v 0.454828382 -0.202199996 0.697613537
v 0.435813129 -0.202199996 0.697613537
v 0.435813129 -0.203199998 0.69661355
v -0.435813129 -0.203199998 0.69661355
v -0.435813129 -0.202199996 0.697613537
v -0.454828382 -0.202199996 0.697613537
v -0.454828382 -0.203199998 0.69661355
v 0.00316416495 -0.212450638 0.209854007
v 0.00225559226 -0.21400167 0.211405024
v -0.00225559226 -0.21400167 0.211405024
v -0.00316416542 -0.212450638 0.209854007
v -0.00225559226 -0.214001685 0.692805707
v -0.00316416495 -0.212450653 0.69435674
v -0.00490336772 -0.212904945 0.692805707
v 0.00490336772 -0.212904945 0.692805707
v 0.00316416542 -0.212450653 0.69435674
v 0.00225559226 -0.214001685 0.692805707
v -0.00225559226 -0.21400167 0.211405024
v -0.00490336772 -0.212904915 0.211405024
v -0.00316416542 -0.212450638 0.209854007
v 0.00316416495 -0.212450638 0.209854007
v 0.00490336772 -0.212904915 0.211405024
v 0.00225559226 -0.21400167 0.211405024
v 0.433813184 0.190642774 0.196178824
v 0.433813184 0.191642776 0.195178807
v 0.434813142 0.191642776 0.196178824
v -0.433813184 0.190642774 0.196178824
v -0.434813142 0.191642776 0.196178824
v -0.433813184 0.191642776 0.195178807
v 0.433813184 0.191642776 0.697613537
v 0.433813184 0.190642774 0.69661355
v 0.434813142 0.191642776 0.69661355
v -0.433813184 0.191642776 0.697613537
v -0.434813142 0.191642776 0.69661355
v -0.433813184 0.190642774 0.69661355
v -0.00490336772 -0.212904945 0.692805707
v -0.00316416495 -0.212450653 0.69435674
v -0.0056861043 -0.209928721 0.69435674
v -0.00614039041 -0.211667925 0.692805707
v 0.00614039041 -0.211667925 0.692805707
v 0.0056861043 -0.209928721 0.69435674
v 0.00316416542 -0.212450653 0.69435674
v 0.00490336772 -0.212904945 0.692805707
v -0.456200033 -0.202199996 0.178290442
v -0.456200033 0.202199996 0.178290442
v 0.456200033 0.202199996 0.178290442
v 0.456200033 -0.202199996 0.178290442
v -0.456200033 -0.202199996 0.714501977
v 0.456200033 -0.202199996 0.714501977
v 0.456200033 0.202199996 0.714501977
v -0.456200033 0.202199996 0.714501977
v -0.00614039041 -0.211667895 0.211405024
v -0.0056861043 -0.209928691 0.209854007
v -0.00316416542 -0.212450638 0.209854007
v -0.00316416542 -0.212450638 0.209854007
v -0.00490336772 -0.212904915 0.211405024
v -0.00614039041 -0.211667895 0.211405024
v 0.00490336772 -0.212904915 0.211405024
v 0.00316416495 -0.212450638 0.209854007
v 0.0056861043 -0.209928691 0.209854007
v 0.0056861043 -0.209928691 0.209854007
v 0.00614039041 -0.211667895 0.211405024
v 0.00490336772 -0.212904915 0.211405024
v -0.454828382 0.202199996 0.195178807
v -0.435813129 0.202199996 0.195178807
v -0.435813129 -0.202199996 0.195178807
v -0.454828382 -0.202199996 0.195178807
v 0.454828382 0.202199996 0.195178807
v 0.454828382 -0.202199996 0.195178807
v 0.435813129 -0.202199996 0.195178807
v 0.435813129 0.202199996 0.195178807
v -0.433813184 0.202199996 0.195178807
v 0.433813184 0.202199996 0.195178807
v 0.433813184 0.191642776 0.195178807
v -0.433813184 0.191642776 0.195178807
v 0.454828382 0.202199996 0.697613537
v 0.435813129 0.202199996 0.697613537
v 0.435813129 -0.202199996 0.697613537
v 0.454828382 -0.202199996 0.697613537
v -0.454828382 0.202199996 0.697613537
v -0.454828382 -0.202199996 0.697613537
v -0.435813129 -0.202199996 0.697613537
v -0.435813129 0.202199996 0.697613537
v 0.433813184 0.202199996 0.697613537
v -0.433813184 0.202199996 0.697613537
v -0.433813184 0.191642776 0.697613537
v 0.433813184 0.191642776 0.697613537
v 0.457200021 0.202199996 0.698613524
v 0.456200033 0.202199996 0.697613537
v 0.456200033 0.203199998 0.698613524
v -0.456200033 0.203199998 0.698613524
v -0.456200033 0.202199996 0.697613537
v -0.457200021 0.202199996 0.698613524
v -0.00316416495 -0.212450653 0.69435674
v 0.00316416542 -0.212450653 0.69435674
v 0.0056861043 -0.209928721 0.69435674
v 0.0056861043 -0.205051392 0.69435674
v -0.0056861043 -0.205051392 0.69435674
v -0.0056861043 -0.209928721 0.69435674
v 0.456200033 0.203199998 0.194178805
v 0.456200033 0.202199996 0.195178807
v 0.457200021 0.202199996 0.194178805
v -0.457200021 0.202199996 0.194178805
v -0.456200033 0.202199996 0.195178807
v -0.456200033 0.203199998 0.194178805
v -0.0056861043 -0.209928691 0.209854007
v -0.0056861043 -0.205051363 0.209854007
v 0.0056861043 -0.205051363 0.209854007
v 0.00316416495 -0.212450638 0.209854007
v 0.0056861043 -0.209928691 0.209854007
v -0.00316416542 -0.212450638 0.209854007
v 0.456200033 -0.203199998 0.698613524
v 0.456200033 -0.202199996 0.697613537
v 0.457200021 -0.202199996 0.698613524
v -0.457200021 -0.202199996 0.698613524
v -0.456200033 -0.202199996 0.697613537
v -0.456200033 -0.203199998 0.698613524
v 0.457200021 -0.202199996 0.194178805
v 0.456200033 -0.202199996 0.195178807
v 0.456200033 -0.203199998 0.194178805
v -0.456200033 -0.203199998 0.194178805
v -0.456200033 -0.202199996 0.195178807
v -0.457200021 -0.202199996 0.194178805
v -0.456200033 0.203199998 0.179290444
v -0.456200033 0.203199998 0.194178805
v 0.456200033 0.203199998 0.194178805
v 0.456200033 0.203199998 0.179290444
v -0.456200033 0.203199998 0.71350199
v 0.456200033 0.203199998 0.71350199
v 0.456200033 0.203199998 0.698613524
v -0.456200033 0.203199998 0.698613524
v -0.454828382 0.203199998 0.69661355
v -0.435813129 0.203199998 0.69661355
v -0.435813129 0.203199998 0.196178824
v -0.454828382 0.203199998 0.196178824
v 0.454828382 0.203199998 0.69661355
v 0.454828382 0.203199998 0.196178824
v 0.435813129 0.203199998 0.196178824
v 0.435813129 0.203199998 0.69661355
v -0.433813184 0.203199998 0.69661355
v 0.433813184 0.203199998 0.69661355
v 0.433813184 0.203199998 0.196178824
v -0.433813184 0.203199998 0.196178824
v 0.0056861043 -0.209928721 0.69435674
v 0.00614039041 -0.211667925 0.692805707
v 0.00723713497 -0.209020138 0.692805707
v -0.0056861043 -0.209928721 0.69435674
v -0.00723713497 -0.209020138 0.692805707
v -0.00614039041 -0.211667925 0.692805707
v -0.00614039041 -0.211667895 0.211405024
v -0.00723713497 -0.209020123 0.211405024
v -0.0056861043 -0.209928691 0.209854007
v 0.0056861043 -0.209928691 0.209854007
v 0.00723713497 -0.209020123 0.211405024
v 0.00614039041 -0.211667895 0.211405024
v -0.00225559226 -0.21400167 0.211405024
v 0.00225559226 -0.21400167 0.211405024
v 0.00225559226 -0.214001685 0.692805707
v -0.00225559226 -0.214001685 0.692805707
v 0.456200033 -0.203199998 0.179290444
v 0.456200033 -0.203199998 0.194178805
v -0.456200033 -0.203199998 0.194178805
v -0.456200033 -0.203199998 0.179290444
v 0.456200033 -0.203199998 0.71350199
v -0.456200033 -0.203199998 0.71350199
v -0.456200033 -0.203199998 0.698613524
v 0.456200033 -0.203199998 0.698613524
v 0.454828382 -0.203199998 0.69661355
v 0.435813129 -0.203199998 0.69661355
v 0.435813129 -0.203199998 0.196178824
v 0.454828382 -0.203199998 0.196178824
v -0.454828382 -0.203199998 0.69661355
v -0.454828382 -0.203199998 0.196178824
v -0.435813129 -0.203199998 0.196178824
v -0.435813129 -0.203199998 0.69661355
v 0.00225559226 -0.21400167 0.211405024
v 0.00490336772 -0.212904915 0.211405024
v 0.00490336772 -0.212904945 0.692805707
v 0.00225559226 -0.214001685 0.692805707
v -0.00225559226 -0.214001685 0.692805707
v -0.00490336772 -0.212904945 0.692805707
v -0.00490336772 -0.212904915 0.211405024
v -0.00225559226 -0.21400167 0.211405024
v 0.0056861043 -0.209928721 0.69435674
v 0.00723713497 -0.209020138 0.692805707
v 0.00723713497 -0.205051392 0.692805707
v 0.0056861043 -0.205051392 0.69435674
v -0.0056861043 -0.205051392 0.69435674
v -0.00723713497 -0.205051392 0.692805707
v -0.00723713497 -0.209020138 0.692805707
v -0.0056861043 -0.209928721 0.69435674
v -0.0056861043 -0.209928691 0.209854007
v -0.00723713497 -0.209020123 0.211405024
v -0.00723713497 -0.205051363 0.211405024
v -0.0056861043 -0.205051363 0.209854007
v 0.0056861043 -0.205051363 0.209854007
v 0.00723713497 -0.205051363 0.211405024
v 0.00723713497 -0.209020123 0.211405024
v 0.0056861043 -0.209928691 0.209854007
v -0.433813184 0.190642774 0.69661355
v -0.434813142 0.191642776 0.69661355
v -0.434813142 0.191642776 0.196178824
v -0.433813184 0.190642774 0.196178824
v 0.433813184 0.190642774 0.196178824
v 0.434813142 0.191642776 0.196178824
v 0.434813142 0.191642776 0.69661355
v 0.433813184 0.190642774 0.69661355
v 0.457200021 -0.202199996 0.698613524
v 0.456200033 -0.202199996 0.697613537
v 0.456200033 0.202199996 0.697613537
v 0.457200021 0.202199996 0.698613524
v -0.457200021 0.202199996 0.698613524
v -0.456200033 0.202199996 0.697613537
v -0.456200033 -0.202199996 0.697613537
v -0.457200021 -0.202199996 0.698613524
v 0.457200021 0.202199996 0.194178805
v 0.456200033 0.202199996 0.195178807
v 0.456200033 -0.202199996 0.195178807
v 0.457200021 -0.202199996 0.194178805
v -0.457200021 -0.202199996 0.194178805
v -0.456200033 -0.202199996 0.195178807
v -0.456200033 0.202199996 0.195178807
v -0.457200021 0.202199996 0.194178805
v 0.00490336772 -0.212904915 0.211405024
v 0.00614039041 -0.211667895 0.211405024
v 0.00614039041 -0.211667925 0.692805707
v 0.00490336772 -0.212904945 0.692805707
v -0.00490336772 -0.212904945 0.692805707
v -0.00614039041 -0.211667925 0.692805707
v -0.00614039041 -0.211667895 0.211405024
v -0.00490336772 -0.212904915 0.211405024
v 0.00614039041 -0.211667895 0.211405024
v 0.00723713497 -0.209020123 0.211405024
v 0.00723713497 -0.209020138 0.692805707
v 0.00614039041 -0.211667925 0.692805707
v -0.00614039041 -0.211667925 0.692805707
v -0.00723713497 -0.209020138 0.692805707
v -0.00723713497 -0.209020123 0.211405024
v -0.00614039041 -0.211667895 0.211405024
v 0.0056861043 -0.205051392 0.69435674
v 0.0056861043 -0.20350036 0.692805707
v -0.0056861043 -0.20350036 0.692805707
v -0.0056861043 -0.205051392 0.69435674
v -0.00723713497 -0.205051392 0.692805707
v -0.0056861043 -0.205051392 0.69435674
v -0.0056861043 -0.20350036 0.692805707
v 0.0056861043 -0.20350036 0.692805707
v 0.0056861043 -0.205051392 0.69435674
v 0.00723713497 -0.205051392 0.692805707
v -0.0056861043 -0.205051363 0.209854007
v -0.0056861043 -0.20350033 0.211405024
v 0.0056861043 -0.20350033 0.211405024
v 0.0056861043 -0.205051363 0.209854007
v -0.0056861043 -0.205051363 0.209854007
v -0.00723713497 -0.205051363 0.211405024
v -0.0056861043 -0.20350033 0.211405024
v 0.0056861043 -0.20350033 0.211405024
v 0.00723713497 -0.205051363 0.211405024
v 0.0056861043 -0.205051363 0.209854007
v -0.433813184 0.190642774 0.196178824
v -0.433813184 0.191642776 0.195178807
v 0.433813184 0.191642776 0.195178807
v 0.433813184 0.190642774 0.196178824
v -0.433813184 0.191642776 0.697613537
v -0.433813184 0.190642774 0.69661355
v 0.433813184 0.190642774 0.69661355
v 0.433813184 0.191642776 0.697613537
v 0.435813129 0.202199996 0.195178807
v 0.434813142 0.202199996 0.196178824
v 0.435813129 0.203199998 0.196178824
v -0.435813129 0.203199998 0.196178824
v -0.434813142 0.202199996 0.196178824
v -0.435813129 0.202199996 0.195178807
v 0.435813129 0.203199998 0.69661355
v 0.434813142 0.202199996 0.69661355
v 0.435813129 0.202199996 0.697613537
v -0.435813129 0.202199996 0.697613537
v -0.434813142 0.202199996 0.69661355
v -0.435813129 0.203199998 0.69661355
v 0.00723713497 -0.209020123 0.211405024
v 0.00723713497 -0.205051363 0.211405024
v 0.00723713497 -0.205051392 0.692805707
v 0.00723713497 -0.209020138 0.692805707
v -0.00723713497 -0.205051363 0.211405024
v -0.00723713497 -0.209020123 0.211405024
v -0.00723713497 -0.209020138 0.692805707
v -0.00723713497 -0.205051392 0.692805707
v 0.435813129 -0.203199998 0.196178824
v 0.434813142 -0.202199996 0.196178824
v 0.435813129 -0.202199996 0.195178807
v -0.435813129 -0.202199996 0.195178807
v -0.434813142 -0.202199996 0.196178824
v -0.435813129 -0.203199998 0.196178824
v 0.435813129 -0.202199996 0.697613537
v 0.434813142 -0.202199996 0.69661355
v 0.435813129 -0.203199998 0.69661355
v -0.435813129 -0.203199998 0.69661355
v -0.434813142 -0.202199996 0.69661355
v -0.435813129 -0.202199996 0.697613537
v 0.456200033 0.203199998 0.698613524
v 0.456200033 0.202199996 0.697613537
v -0.456200033 0.202199996 0.697613537
v -0.456200033 0.203199998 0.698613524
v -0.456200033 0.203199998 0.194178805
v -0.456200033 0.202199996 0.195178807
v 0.456200033 0.202199996 0.195178807
v 0.456200033 0.203199998 0.194178805
v -0.456200033 -0.203199998 0.698613524
v -0.456200033 -0.202199996 0.697613537
v 0.456200033 -0.202199996 0.697613537
v 0.456200033 -0.203199998 0.698613524
v 0.456200033 -0.203199998 0.194178805
v 0.456200033 -0.202199996 0.195178807
v -0.456200033 -0.202199996 0.195178807
v -0.456200033 -0.203199998 0.194178805
v 0.00723713497 -0.205051363 0.211405024
v 0.0056861043 -0.20350033 0.211405024
v 0.0056861043 -0.20350036 0.692805707
v 0.00723713497 -0.205051392 0.692805707
v -0.0056861043 -0.20350033 0.211405024
v -0.00723713497 -0.205051363 0.211405024
v -0.00723713497 -0.205051392 0.692805707
v -0.0056861043 -0.20350036 0.692805707
v -0.435813129 0.202199996 0.195178807
v -0.434813142 0.202199996 0.196178824
v -0.434813142 -0.202199996 0.196178824
v -0.435813129 -0.202199996 0.195178807
v 0.435813129 -0.202199996 0.195178807
v 0.434813142 -0.202199996 0.196178824
v 0.434813142 0.202199996 0.196178824
v 0.435813129 0.202199996 0.195178807
v 0.435813129 0.202199996 0.697613537
v 0.434813142 0.202199996 0.69661355
v 0.434813142 -0.202199996 0.69661355
v 0.435813129 -0.202199996 0.697613537
v -0.435813129 -0.202199996 0.697613537
v -0.434813142 -0.202199996 0.69661355
v -0.434813142 0.202199996 0.69661355
v -0.435813129 0.202199996 0.697613537
v -0.435813129 0.203199998 0.69661355
v -0.434813142 0.202199996 0.69661355
v -0.434813142 0.202199996 0.196178824
v -0.435813129 0.203199998 0.196178824
v 0.435813129 0.203199998 0.196178824
v 0.434813142 0.202199996 0.196178824
v 0.434813142 0.202199996 0.69661355
v 0.435813129 0.203199998 0.69661355
v 0.435813129 -0.203199998 0.69661355
v 0.434813142 -0.202199996 0.69661355
v 0.434813142 -0.202199996 0.196178824
v 0.435813129 -0.203199998 0.196178824
v -0.435813129 -0.203199998 0.196178824
v -0.434813142 -0.202199996 0.196178824
v -0.434813142 -0.202199996 0.69661355
v -0.435813129 -0.203199998 0.69661355
v 0.0056861043 -0.20350033 0.211405024
v -0.0056861043 -0.20350033 0.211405024
v -0.0056861043 -0.20350036 0.692805707
v 0.0056861043 -0.20350036 0.692805707
v 0.433813184 0.190642774 0.69661355
v -0.433813184 0.190642774 0.69661355
v -0.433813184 0.190642774 0.196178824
v 0.433813184 0.190642774 0.196178824
v -0.456200033 0.202199996 0.697613537
v 0.456200033 0.202199996 0.697613537
v 0.456200033 -0.202199996 0.697613537
v -0.456200033 -0.202199996 0.697613537
v 0.456200033 0.202199996 0.195178807
v -0.456200033 0.202199996 0.195178807
v -0.456200033 -0.202199996 0.195178807
v 0.456200033 -0.202199996 0.195178807
v 0.434813142 0.202199996 0.69661355
v 0.434813142 0.202199996 0.196178824
v 0.434813142 -0.202199996 0.196178824
v 0.434813142 -0.202199996 0.69661355
v -0.434813142 -0.202199996 0.69661355
v -0.434813142 -0.202199996 0.196178824
v -0.434813142 0.202199996 0.196178824
v -0.434813142 0.202199996 0.69661355
vt 0.0127692223 0.000499606133
vt 0.0127692223 0.00159215927
vt 0.0114865303 0.00159215927
vt 0.0114866495 0.99840796
vt 0.0127692819 0.99840796
vt 0.0127692819 0.999500513
vt 0.699266791 0.00159209967
vt 0.697984099 0.00159209967
vt 0.697984099 0.000499606133
vt 0.697984219 0.999500513
vt 0.697984219 0.99840796
vt 0.699266911 0.99840796
vt 0.0331487656 0.99690944
vt 0.0344314575 0.99690944
vt 0.0344314575 0.998001933
vt 0.0344313383 0.00199818611
vt 0.0344313383 0.00309067965
vt 0.0331486464 0.00309067965
vt 0.676322043 0.99690938
vt 0.677604675 0.99690938
vt 0.676322043 0.998001933
vt 0.676321924 0.00199812651
vt 0.677604556 0.00309062004
vt 0.676321924 0.00309062004
vt 0.987230837 0.00159204006
vt 0.987230837 0.000499546528
vt 0.98851347 0.00159204006
vt 0.98851341 0.99840796
vt 0.987230718 0.999500453
vt 0.987230718 0.99840796
vt 0.0344314575 0.975042403
vt 0.0331487656 0.973949909
vt 0.0344314575 0.973949909
vt 0.0331486464 0.02605021
vt 0.0344313383 0.0249577165
vt 0.0344313383 0.02605021
vt 0.300733209 0.00159204006
vt 0.302015901 0.000499486923
vt 0.302015901 0.00159204006
vt 0.302015781 0.9984079
vt 0.302015781 0.999500394
vt 0.300733089 0.9984079
vt 0.676322043 0.975042343
vt 0.676322043 0.973949909
vt 0.677604675 0.973949909
vt 0.676321924 0.02605021
vt 0.676321924 0.0249576569
vt 0.677604556 0.02605021
vt 0.965568602 0.998001933
vt 0.965568602 0.99690938
vt 0.966851234 0.99690938
vt 0.966851354 0.00309062004
vt 0.965568662 0.00309062004
vt 0.965568662 0.0019980669
vt 0.00295829773 0.00159204006
vt 0.00295829773 0.000499546528
vt 0.997042298 0.000499606133
vt 0.997042298 0.00159215927
vt 0.997041821 0.99840796
vt 0.997041821 0.999500513
vt 0.00295782089 0.999500453
vt 0.00295782089 0.99840796
vt 0.323677957 0.998001873
vt 0.322395325 0.99690938
vt 0.323677957 0.99690938
vt 0.323678076 0.00309062004
vt 0.322395444 0.00309062004
vt 0.323678076 0.0019980669
vt 0.997042179 0.9984079
vt 0.997042179 0.999500394
vt 0.00295817852 0.999500513
vt 0.00295817852 0.99840796
vt 0.00295782089 0.00159209967
vt 0.00295782089 0.000499606133
vt 0.997041821 0.000499486923
vt 0.997041821 0.00159204006
vt 0.00295782089 0.998001933
vt 0.00295782089 0.99690938
vt 0.997041821 0.99690944
vt 0.997041821 0.998001933
vt 0.997042298 0.00199818611
vt 0.997042298 0.00309067965
vt 0.00295829773 0.00309062004
vt 0.00295829773 0.0019980669
vt 0.00295817852 0.998001933
vt 0.00295817852 0.99690938
vt 0.997042179 0.99690938
vt 0.997042179 0.998001873
vt 0.997041821 0.0019980669
vt 0.997041821 0.00309062004
vt 0.00295782089 0.00309062004
vt 0.00295782089 0.00199812651
vt 0.997041821 0.973949909
vt 0.997041821 0.975042403
vt 0.971090436 0.975042403
vt 0.971090436 0.973949909
vt 0.971090853 0.02605021
vt 0.971090853 0.0249577165
vt 0.997042298 0.0249577165
vt 0.997042298 0.02605021
vt 0.00295782089 0.02605021
vt 0.00295782089 0.0249576569
vt 0.0289092064 0.0249576569
vt 0.0289092064 0.02605021
vt 0.0289096236 0.973949909
vt 0.0289096236 0.975042343
vt 0.00295817852 0.975042343
vt 0.00295817852 0.973949909
vt 0.0127692819 0.999500513
vt 0.0127692819 0.99840796
vt 0.0318660736 0.99840796
vt 0.0318660736 0.999500513
vt 0.0127692223 0.00159215927
vt 0.0127692223 0.000499606133
vt 0.0318659544 0.000499606133
vt 0.0318659544 0.00159215927
vt 0.678887308 0.999500513
vt 0.678887308 0.99840796
vt 0.697984219 0.99840796
vt 0.697984219 0.999500513
vt 0.678887188 0.00159209967
vt 0.678887188 0.000499606133
vt 0.697984099 0.000499606133
vt 0.697984099 0.00159209967
vt 0.676322043 0.99690938
vt 0.676322043 0.998001933
vt 0.0344314575 0.998001933
vt 0.0344314575 0.99690944
vt 0.676321924 0.00199812651
vt 0.676321924 0.00309062004
vt 0.0344313383 0.00309067965
vt 0.0344313383 0.00199818611
vt 0.676322043 0.973949909
vt 0.676322043 0.975042343
vt 0.0344314575 0.975042403
vt 0.0344314575 0.973949909
vt 0.0344313383 0.02605021
vt 0.0344313383 0.0249577165
vt 0.676321924 0.0249576569
vt 0.676321924 0.02605021
vt 0.0871214867 0.240645111
vt 0.123719573 0.240645111
vt 0.123719573 0.759355187
vt 0.0871214867 0.759355187
vt 0.912878394 0.759354889
vt 0.876280308 0.759354889
vt 0.876280308 0.240644813
vt 0.912878394 0.240644813
vt 1.40030444 0.240645111
vt 1.40030444 0.759355187
vt 1.36370599 0.759355187
vt 1.36370599 0.240645111
vt -0.400304437 0.759354889
vt -0.400304437 0.240644813
vt -0.363705993 0.240644813
vt -0.363705993 0.759354889
vt 0.997041821 0.0344314575
vt 0.997041821 0.676322043
vt 0.00295782089 0.676322043
vt 0.00295782089 0.0344313979
vt 0.997041702 0.0344313383
vt 0.997041821 0.676321924
vt 0.00295782089 0.676321924
vt 0.00295770168 0.0344313383
vt 0.987230718 0.99840796
vt 0.987230718 0.999500453
vt 0.968133926 0.999500453
vt 0.968133926 0.99840796
vt 0.302015901 0.00159204006
vt 0.302015901 0.000499486923
vt 0.321112812 0.000499486923
vt 0.321112812 0.00159204006
vt 0.321112692 0.9984079
vt 0.321112692 0.999500394
vt 0.302015781 0.999500394
vt 0.302015781 0.9984079
vt 0.968134046 0.00159204006
vt 0.968134046 0.000499546528
vt 0.987230837 0.000499546528
vt 0.987230837 0.00159204006
vt 0.323677957 0.998001873
vt 0.323677957 0.99690938
vt 0.965568602 0.99690938
vt 0.965568602 0.998001933
vt 0.323678076 0.00309062004
vt 0.323678076 0.0019980669
vt 0.965568662 0.0019980669
vt 0.965568662 0.00309062004
vt 0.00295782089 0.676321924
vt 0.00295770168 0.0344313383
vt 0.0289091468 0.0344313383
vt 0.0289092064 0.676321924
vt 0.971090376 0.676322043
vt 0.971090436 0.0344314575
vt 0.997041821 0.0344314575
vt 0.997041821 0.676322043
vt 0.0114865303 0.00159215927
vt 0.0127692223 0.00159215927
vt 0.0127692819 0.99840796
vt 0.0114866495 0.99840796
vt 0.699266911 0.99840796
vt 0.697984219 0.99840796
vt 0.697984099 0.00159209967
vt 0.699266791 0.00159209967
vt 0.0344314575 0.99690944
vt 0.0331487656 0.99690944
vt 0.0331487656 0.976134896
vt 0.0344314575 0.976134896
vt 0.0344313383 0.0238652229
vt 0.0331486464 0.0238652229
vt 0.0331486464 0.00309067965
vt 0.0344313383 0.00309067965
vt 0.0331486464 0.02605021
vt 0.0344313383 0.02605021
vt 0.0344314575 0.973949909
vt 0.0331487656 0.973949909
vt 0.676321924 0.00309062004
vt 0.677604556 0.00309062004
vt 0.677604556 0.0238652229
vt 0.676321924 0.0238652229
vt 0.676322043 0.976134896
vt 0.677604675 0.976134896
vt 0.677604675 0.99690938
vt 0.676322043 0.99690938
vt 0.676321924 0.02605021
vt 0.677604556 0.02605021
vt 0.677604675 0.973949909
vt 0.676322043 0.973949909
vt 0.98851341 0.99840796
vt 0.987230718 0.99840796
vt 0.987230837 0.00159204006
vt 0.98851347 0.00159204006
vt 0.300733209 0.00159204006
vt 0.302015901 0.00159204006
vt 0.302015781 0.9984079
vt 0.300733089 0.9984079
vt 0.530000031 0.728962898
vt 0.531165421 0.727268398
vt 0.53695178 0.727268398
vt 0.53811717 0.728962898
vt 0.965568662 0.00309062004
vt 0.966851354 0.00309062004
vt 0.966851354 0.0238651633
vt 0.965568662 0.0238651633
vt 0.965568602 0.976134837
vt 0.966851234 0.976134837
vt 0.966851234 0.99690938
vt 0.965568602 0.99690938
vt 0.323677957 0.99690938
vt 0.322395325 0.99690938
vt 0.322395325 0.976134777
vt 0.323677957 0.976134777
vt 0.323678076 0.0238651037
vt 0.322395444 0.0238651037
vt 0.322395444 0.00309062004
vt 0.323678076 0.00309062004
vt 0.53811723 0.199633658
vt 0.53695184 0.201328158
vt 0.531165481 0.201328158
vt 0.530000091 0.199633658
vt 0.531165421 0.727268398
vt 0.530000031 0.728962898
vt 0.527769208 0.727268398
vt 0.540347993 0.727268398
vt 0.53811717 0.728962898
vt 0.53695178 0.727268398
vt 0.531165481 0.201328158
vt 0.527769268 0.201328158
vt 0.530000091 0.199633658
vt 0.53811723 0.199633658
vt 0.540348053 0.201328158
vt 0.53695184 0.201328158
vt 0.965568542 0.973949909
vt 0.966851234 0.973949909
vt 0.965568542 0.975042403
vt 0.965568662 0.02605021
vt 0.965568662 0.0249577165
vt 0.966851354 0.02605021
vt 0.322395325 0.973949909
vt 0.323677957 0.973949909
vt 0.323677957 0.975042343
vt 0.322395444 0.02605021
vt 0.323678076 0.0249576569
vt 0.323678076 0.02605021
vt 0.527769208 0.727268398
vt 0.530000031 0.728962898
vt 0.526765227 0.728962898
vt 0.526182532 0.727268398
vt 0.541934669 0.727268398
vt 0.541351974 0.728962898
vt 0.53811717 0.728962898
vt 0.540347993 0.727268398
vt 0.00295829773 0.00159204006
vt 0.997042298 0.00159215927
vt 0.997041821 0.99840796
vt 0.00295782089 0.99840796
vt 0.997041821 0.00159204006
vt 0.997042179 0.9984079
vt 0.00295817852 0.99840796
vt 0.00295782089 0.00159209967
vt 0.526182592 0.201328158
vt 0.526765287 0.199633658
vt 0.530000091 0.199633658
vt 0.530000091 0.199633658
vt 0.527769268 0.201328158
vt 0.526182592 0.201328158
vt 0.540348053 0.201328158
vt 0.53811723 0.199633658
vt 0.541352034 0.199633658
vt 0.541352034 0.199633658
vt 0.541934729 0.201328158
vt 0.540348053 0.201328158
vt 0.997042298 0.00309067965
vt 0.997042298 0.0238652229
vt 0.00295829773 0.0238651633
vt 0.00295829773 0.00309062004
vt 0.997041821 0.99690944
vt 0.00295782089 0.99690938
vt 0.00295782089 0.976134837
vt 0.997041821 0.976134896
vt 0.997042298 0.02605021
vt 0.997041821 0.973949909
vt 0.971090436 0.973949909
vt 0.971090853 0.02605021
vt 0.00295817852 0.99690938
vt 0.00295817852 0.976134896
vt 0.997042179 0.976134777
vt 0.997042179 0.99690938
vt 0.00295782089 0.00309062004
vt 0.997041821 0.00309062004
vt 0.997041821 0.0238651037
vt 0.00295782089 0.0238652229
vt 0.00295817852 0.973949909
vt 0.00295782089 0.02605021
vt 0.0289092064 0.02605021
vt 0.0289096236 0.973949909
vt 0.678887308 0.999500513
vt 0.677604675 0.99840796
vt 0.678887308 0.99840796
vt 0.678887188 0.00159209967
vt 0.677604556 0.00159209967
vt 0.678887188 0.000499606133
vt 0.490905583 0.469999969
vt 0.490905583 0.46188283
vt 0.497104943 0.458648026
vt 0.509094238 0.458648026
vt 0.509094238 0.473234773
vt 0.497104943 0.473234773
vt 0.0318660736 0.99840796
vt 0.0331487656 0.99840796
vt 0.0318660736 0.999500513
vt 0.0318659544 0.000499606133
vt 0.0331486464 0.00159215927
vt 0.0318659544 0.00159215927
vt 0.502894998 0.473234713
vt 0.490905643 0.473234713
vt 0.490905643 0.458647966
vt 0.509094357 0.46188277
vt 0.502894998 0.458647966
vt 0.509094357 0.469999909
vt 0.321112692 0.9984079
vt 0.322395325 0.9984079
vt 0.321112692 0.999500394
vt 0.321112812 0.000499486923
vt 0.322395444 0.00159204006
vt 0.321112812 0.00159204006
vt 0.968133926 0.999500453
vt 0.966851234 0.99840796
vt 0.968133926 0.99840796
vt 0.968134046 0.00159204006
vt 0.966851354 0.00159204006
vt 0.968134046 0.000499546528
vt 0.0127692223 0.00159215927
vt 0.0318659544 0.00159215927
vt 0.0318660736 0.99840796
vt 0.0127692819 0.99840796
vt 0.697984099 0.00159209967
vt 0.697984219 0.99840796
vt 0.678887308 0.99840796
vt 0.678887188 0.00159209967
vt -0.466543674 0.349816501
vt -0.419800997 0.349816501
vt -0.419800758 0.896551728
vt -0.466543436 0.896551728
vt 1.76954746 0.349816382
vt 1.7695477 0.896551609
vt 1.72280502 0.896551609
vt 1.72280478 0.349816382
vt 0.676321924 0.0212628245
vt 0.676322043 0.978737235
vt 0.0344313979 0.978737235
vt 0.0344313383 0.0212628841
vt 0.497104943 0.728962898
vt 0.49282968 0.727268398
vt 0.499338388 0.727268398
vt 0.502895057 0.728962898
vt 0.500661612 0.727268398
vt 0.50717032 0.727268398
vt 0.5071702 0.201328158
vt 0.500661492 0.201328158
vt 0.502894998 0.199633658
vt 0.497105002 0.199633658
vt 0.499338448 0.201328158
vt 0.4928298 0.201328158
vt 0.531165481 0.201328158
vt 0.53695184 0.201328158
vt 0.53695178 0.727268398
vt 0.531165421 0.727268398
vt 0.432064414 0.998407841
vt 0.412967682 0.998407841
vt 0.412967741 0.00159204006
vt 0.432064533 0.00159204006
vt 0.302015781 0.9984079
vt 0.302015901 0.00159204006
vt 0.321112812 0.00159204006
vt 0.321112692 0.9984079
vt -0.769547462 0.349816382
vt -0.722804785 0.349816382
vt -0.722804785 0.896551609
vt -0.769547462 0.896551609
vt 1.46654367 0.349816501
vt 1.46654367 0.896551728
vt 1.419801 0.896551728
vt 1.419801 0.349816501
vt 0.53695184 0.201328158
vt 0.540348053 0.201328158
vt 0.540347993 0.727268398
vt 0.53695178 0.727268398
vt 0.531165421 0.727268398
vt 0.527769208 0.727268398
vt 0.527769268 0.201328158
vt 0.531165481 0.201328158
vt 0.497104943 0.728962898
vt 0.499338388 0.727268398
vt 0.509094238 0.727268398
vt 0.509094238 0.728962898
vt 0.490905762 0.728962898
vt 0.490905762 0.727268398
vt 0.500661612 0.727268398
vt 0.502895057 0.728962898
vt 0.502894998 0.199633658
vt 0.500661492 0.201328158
vt 0.490905643 0.201328158
vt 0.490905643 0.199633658
vt 0.509094357 0.199633658
vt 0.509094357 0.201328158
vt 0.499338448 0.201328158
vt 0.497105002 0.199633658
vt 0.323678076 0.02605021
vt 0.323678076 0.0249576569
vt 0.965568662 0.0249577165
vt 0.965568662 0.02605021
vt 0.965568542 0.973949909
vt 0.965568542 0.975042403
vt 0.323677957 0.975042343
vt 0.323677957 0.973949909
vt 0.00295782089 0.999500394
vt 0.00295782089 0.9984079
vt 0.997041821 0.99840796
vt 0.997041821 0.999500513
vt 0.997042179 0.000499606133
vt 0.997042179 0.00159209967
vt 0.00295817852 0.00159204006
vt 0.00295817852 0.000499486923
vt 0.00295817852 0.999500513
vt 0.00295817852 0.99840796
vt 0.997042179 0.99840796
vt 0.997042179 0.999500453
vt 0.997041702 0.000499546528
vt 0.997041702 0.00159204006
vt 0.00295770168 0.00159215927
vt 0.00295770168 0.000499606133
vt 0.540348053 0.201328158
vt 0.541934729 0.201328158
vt 0.541934669 0.727268398
vt 0.540347993 0.727268398
vt 0.527769208 0.727268398
vt 0.526182532 0.727268398
vt 0.526182592 0.201328158
vt 0.527769268 0.201328158
vt 0.4928298 0.201328158
vt 0.499338448 0.201328158
vt 0.499338388 0.727268398
vt 0.49282968 0.727268398
vt 0.50717032 0.727268398
vt 0.500661612 0.727268398
vt 0.500661492 0.201328158
vt 0.5071702 0.201328158
vt 0.458648026 0.728962898
vt 0.458648026 0.727268398
vt 0.473234773 0.727268398
vt 0.473234773 0.728962898
vt 0.475224197 0.727268398
vt 0.473234773 0.728962898
vt 0.473234773 0.727268398
vt 0.458648026 0.727268398
vt 0.458648026 0.728962898
vt 0.456658542 0.727268398
vt 0.473234713 0.199633658
vt 0.473234713 0.201328158
vt 0.458647966 0.201328158
vt 0.458647966 0.199633658
vt 0.473234713 0.199633658
vt 0.475224197 0.201328158
vt 0.473234713 0.201328158
vt 0.458647966 0.201328158
vt 0.456658542 0.201328158
vt 0.458647966 0.199633658
vt 0.965568662 0.02605021
vt 0.966851354 0.02605021
vt 0.966851234 0.973949909
vt 0.965568542 0.973949909
vt 0.322395444 0.02605021
vt 0.323678076 0.02605021
vt 0.323677957 0.973949909
vt 0.322395325 0.973949909
vt 0.0331487656 0.976134896
vt 0.0344314575 0.975042403
vt 0.0344314575 0.976134896
vt 0.0344313383 0.0238652229
vt 0.0344313383 0.0249577165
vt 0.0331486464 0.0238652229
vt 0.676322043 0.976134896
vt 0.676322043 0.975042343
vt 0.677604675 0.976134896
vt 0.677604556 0.0238652229
vt 0.676321924 0.0249576569
vt 0.676321924 0.0238652229
vt 0.499338448 0.201328158
vt 0.509094357 0.201328158
vt 0.509094238 0.727268398
vt 0.499338388 0.727268398
vt 0.490905643 0.201328158
vt 0.500661492 0.201328158
vt 0.500661612 0.727268398
vt 0.490905762 0.727268398
vt 0.965568602 0.976134837
vt 0.965568602 0.975042343
vt 0.966851234 0.976134837
vt 0.966851354 0.0238651633
vt 0.965568662 0.0249576569
vt 0.965568662 0.0238651633
vt 0.322395325 0.976134777
vt 0.323677957 0.975042343
vt 0.323677957 0.976134777
vt 0.323678076 0.0238651037
vt 0.323678076 0.0249576569
vt 0.322395444 0.0238651037
vt 0.678887308 0.99840796
vt 0.677604675 0.99840796
vt 0.677604556 0.00159209967
vt 0.678887188 0.00159209967
vt 0.0318659544 0.00159215927
vt 0.0331486464 0.00159215927
vt 0.0331487656 0.99840796
vt 0.0318660736 0.99840796
vt 0.321112812 0.00159204006
vt 0.322395444 0.00159204006
vt 0.322395325 0.9984079
vt 0.321112692 0.9984079
vt 0.968133926 0.99840796
vt 0.966851234 0.99840796
vt 0.966851354 0.00159204006
vt 0.968134046 0.00159204006
vt 0.456658542 0.201328158
vt 0.458647966 0.201328158
vt 0.458648026 0.727268398
vt 0.456658542 0.727268398
vt 0.473234713 0.201328158
vt 0.475224197 0.201328158
vt 0.475224197 0.727268398
vt 0.473234773 0.727268398
vt 0.997042298 0.0238652229
vt 0.997042298 0.0249577165
vt 0.00295829773 0.0249576569
vt 0.00295829773 0.0238651633
vt 0.00295782089 0.976134837
vt 0.00295782089 0.975042343
vt 0.997041821 0.975042403
vt 0.997041821 0.976134896
vt 0.00295817852 0.976134896
vt 0.00295817852 0.975042343
vt 0.997042179 0.975042343
vt 0.997042179 0.976134777
vt 0.997041821 0.0238651037
vt 0.997041821 0.0249576569
vt 0.00295782089 0.0249576569
vt 0.00295782089 0.0238652229
vt 0.676321924 0.0238652229
vt 0.676321924 0.0249576569
vt 0.0344313383 0.0249577165
vt 0.0344313383 0.0238652229
vt 0.0344314575 0.976134896
vt 0.0344314575 0.975042403
vt 0.676322043 0.975042343
vt 0.676322043 0.976134896
vt 0.323677957 0.976134777
vt 0.323677957 0.975042343
vt 0.965568602 0.975042343
vt 0.965568602 0.976134837
vt 0.965568662 0.0238651633
vt 0.965568662 0.0249576569
vt 0.323678076 0.0249576569
vt 0.323678076 0.0238651037
vt 0.458647966 0.201328158
vt 0.473234713 0.201328158
vt 0.473234773 0.727268398
vt 0.458648026 0.727268398
vt 0.323677957 0.973949909
vt 0.323678076 0.02605021
vt 0.965568662 0.02605021
vt 0.965568542 0.973949909
vt 0.997042179 0.00159209967
vt 0.997041821 0.99840796
vt 0.00295782089 0.9984079
vt 0.00295817852 0.00159204006
vt 0.00295817852 0.99840796
vt 0.00295770168 0.00159215927
vt 0.997041702 0.00159204006
vt 0.997042179 0.99840796
vt 0.00295817852 0.676322043
vt 0.00295817852 0.0344314575
vt 0.997042179 0.0344313979
vt 0.997042179 0.676322043
vt 0.00295817852 0.676321924
vt 0.00295829773 0.0344313383
vt 0.997042298 0.0344313383
vt 0.997042179 0.676321924
f 1/1 2/2 3/3
f 4/4 5/5 6/6
f 7/7 8/8 9/9
f 10/10 11/11 12/12
f 13/13 14/14 15/15
f 16/16 17/17 18/18
f 19/19 20/20 21/21
f 22/22 23/23 24/24
f 25/25 26/26 27/27
f 28/28 29/29 30/30
f 31/31 32/32 33/33
f 34/34 35/35 36/36
f 37/37 38/38 39/39
f 40/40 41/41 42/42
f 43/43 44/44 45/45
f 46/46 47/47 48/48
f 49/49 50/50 51/51
f 52/52 53/53 54/54
f 55/55 56/56 57/57
f 57/57 58/58 55/55
f 59/59 60/60 61/61
f 61/61 62/62 59/59
f 63/63 64/64 65/65
f 66/66 67/67 68/68
f 69/69 70/70 71/71
f 71/71 72/72 69/69
f 73/73 74/74 75/75
f 75/75 76/76 73/73
f 77/77 78/78 79/79
f 79/79 80/80 77/77
f 81/81 82/82 83/83
f 83/83 84/84 81/81
f 85/85 86/86 87/87
f 87/87 88/88 85/85
f 89/89 90/90 91/91
f 91/91 92/92 89/89
f 93/93 94/94 95/95
f 95/95 96/96 93/93
f 97/97 98/98 99/99
f 99/99 100/100 97/97
f 101/101 102/102 103/103
f 103/103 104/104 101/101
f 105/105 106/106 107/107
f 107/107 108/108 105/105
f 109/109 110/110 111/111
f 111/111 112/112 109/109
f 113/113 114/114 115/115
f 115/115 116/116 113/113
f 117/117 118/118 119/119
f 119/119 120/120 117/117
f 121/121 122/122 123/123
f 123/123 124/124 121/121
f 125/125 126/126 127/127
f 127/127 128/128 125/125
f 129/129 130/130 131/131
f 131/131 132/132 129/129
f 133/133 134/134 135/135
f 135/135 136/136 133/133
f 137/137 138/138 139/139
f 139/139 140/140 137/137
f 141/141 142/142 143/143
f 143/143 144/144 141/141
f 145/145 146/146 147/147
f 147/147 148/148 145/145
f 149/149 150/150 151/151
f 151/151 152/152 149/149
f 153/153 154/154 155/155
f 155/155 156/156 153/153
f 157/157 158/158 159/159
f 159/159 160/160 157/157
f 161/161 162/162 163/163
f 163/163 164/164 161/161
f 165/165 166/166 167/167
f 167/167 168/168 165/165
f 169/169 170/170 171/171
f 171/171 172/172 169/169
f 173/173 174/174 175/175
f 175/175 176/176 173/173
f 177/177 178/178 179/179
f 179/179 180/180 177/177
f 181/181 182/182 183/183
f 183/183 184/184 181/181
f 185/185 186/186 187/187
f 187/187 188/188 185/185
f 189/189 190/190 191/191
f 191/191 192/192 189/189
f 193/193 194/194 195/195
f 195/195 196/196 193/193
f 197/197 198/198 199/199
f 199/199 200/200 197/197
f 201/201 202/202 203/203
f 203/203 204/204 201/201
f 205/205 206/206 207/207
f 207/207 208/208 205/205
f 209/209 210/210 211/211
f 211/211 212/212 209/209
f 213/213 214/214 215/215
f 215/215 216/216 213/213
f 217/217 218/218 219/219
f 219/219 220/220 217/217
f 221/221 222/222 223/223
f 223/223 224/224 221/221
f 225/225 226/226 227/227
f 227/227 228/228 225/225
f 229/229 230/230 231/231
f 231/231 232/232 229/229
f 233/233 234/234 235/235
f 235/235 236/236 233/233
f 237/237 238/238 239/239
f 239/239 240/240 237/237
f 241/241 242/242 243/243
f 243/243 244/244 241/241
f 245/245 246/246 247/247
f 247/247 248/248 245/245
f 249/249 250/250 251/251
f 251/251 252/252 249/249
f 253/253 254/254 255/255
f 255/255 256/256 253/253
f 257/257 258/258 259/259
f 259/259 260/260 257/257
f 261/261 262/262 263/263
f 264/264 265/265 266/266
f 267/267 268/268 269/269
f 270/270 271/271 272/272
f 273/273 274/274 275/275
f 276/276 277/277 278/278
f 279/279 280/280 281/281
f 282/282 283/283 284/284
f 285/285 286/286 287/287
f 287/287 288/288 285/285
f 289/289 290/290 291/291
f 291/291 292/292 289/289
f 293/293 294/294 295/295
f 295/295 296/296 293/293
f 297/297 298/298 299/299
f 299/299 300/300 297/297
f 301/301 302/302 303/303
f 304/304 305/305 306/306
f 307/307 308/308 309/309
f 310/310 311/311 312/312
f 313/313 314/314 315/315
f 315/315 316/316 313/313
f 317/317 318/318 319/319
f 319/319 320/320 317/317
f 321/321 322/322 323/323
f 323/323 324/324 321/321
f 325/325 326/326 327/327
f 327/327 328/328 325/325
f 329/329 330/330 331/331
f 331/331 332/332 329/329
f 333/333 334/334 335/335
f 335/335 336/336 333/333
f 337/337 338/338 339/339
f 340/340 341/341 342/342
f 343/343 344/344 345/345
f 343/343 345/345 346/346
f 343/343 346/346 347/347
f 348/348 343/343 347/347
f 349/349 350/350 351/351
f 352/352 353/353 354/354
f 355/355 356/356 357/357
f 355/355 357/357 358/358
f 357/357 359/359 358/358
f 360/360 355/355 358/358
f 361/361 362/362 363/363
f 364/364 365/365 366/366
f 367/367 368/368 369/369
f 370/370 371/371 372/372
f 373/373 374/374 375/375
f 375/375 376/376 373/373
f 377/377 378/378 379/379
f 379/379 380/380 377/377
f 381/381 382/382 383/383
f 383/383 384/384 381/381
f 385/385 386/386 387/387
f 387/387 388/388 385/385
f 389/389 390/390 391/391
f 391/391 392/392 389/389
f 393/393 394/394 395/395
f 396/396 397/397 398/398
f 399/399 400/400 401/401
f 402/402 403/403 404/404
f 405/405 406/406 407/407
f 407/407 408/408 405/405
f 409/409 410/410 411/411
f 411/411 412/412 409/409
f 413/413 414/414 415/415
f 415/415 416/416 413/413
f 417/417 418/418 419/419
f 419/419 420/420 417/417
f 421/421 422/422 423/423
f 423/423 424/424 421/421
f 425/425 426/426 427/427
f 427/427 428/428 425/425
f 429/429 430/430 431/431
f 431/431 432/432 429/429
f 433/433 434/434 435/435
f 435/435 436/436 433/433
f 437/437 438/438 439/439
f 439/439 440/440 437/437
f 441/441 442/442 443/443
f 443/443 444/444 441/441
f 445/445 446/446 447/447
f 447/447 448/448 445/445
f 449/449 450/450 451/451
f 451/451 452/452 449/449
f 453/453 454/454 455/455
f 455/455 456/456 453/453
f 457/457 458/458 459/459
f 459/459 460/460 457/457
f 461/461 462/462 463/463
f 463/463 464/464 461/461
f 465/465 466/466 467/467
f 467/467 468/468 465/465
f 469/469 470/470 471/471
f 471/471 472/472 469/469
f 473/473 474/474 475/475
f 475/475 476/476 473/473
f 477/477 478/478 479/479
f 479/479 480/480 477/477
f 481/481 482/482 483/483
f 483/483 484/484 481/481
f 485/485 486/486 487/487
f 487/487 488/488 485/485
f 489/489 490/490 491/491
f 491/491 492/492 489/489
f 493/493 494/494 495/495
f 496/496 497/497 498/498
f 499/499 500/500 501/501
f 501/501 502/502 499/499
f 503/503 504/504 505/505
f 506/506 507/507 508/508
f 509/509 510/510 511/511
f 511/511 512/512 509/509
f 513/513 514/514 515/515
f 515/515 516/516 513/513
f 517/517 518/518 519/519
f 520/520 521/521 522/522
f 523/523 524/524 525/525
f 526/526 527/527 528/528
f 529/529 530/530 531/531
f 531/531 532/532 529/529
f 533/533 534/534 535/535
f 535/535 536/536 533/533
f 537/537 538/538 539/539
f 540/540 541/541 542/542
f 543/543 544/544 545/545
f 546/546 547/547 548/548
f 549/549 550/550 551/551
f 551/551 552/552 549/549
f 553/553 554/554 555/555
f 555/555 556/556 553/553
f 557/557 558/558 559/559
f 559/559 560/560 557/557
f 561/561 562/562 563/563
f 563/563 564/564 561/561
f 565/565 566/566 567/567
f 567/567 568/568 565/565
f 569/569 570/570 571/571
f 571/571 572/572 569/569
f 573/573 574/574 575/575
f 575/575 576/576 573/573
f 577/577 578/578 579/579
f 579/579 580/580 577/577
f 581/581 582/582 583/583
f 583/583 584/584 581/581
f 585/585 586/586 587/587
f 587/587 588/588 585/585
f 589/589 590/590 591/591
f 591/591 592/592 589/589
f 593/593 594/594 595/595
f 595/595 596/596 593/593
f 597/597 598/598 599/599
f 599/599 600/600 597/597
f 601/601 602/602 603/603
f 603/603 604/604 601/601
f 605/605 606/606 607/607
f 607/607 608/608 605/605
f 609/609 610/610 611/611
f 611/611 612/612 609/609
f 613/613 614/614 615/615
f 615/615 616/616 613/613
f 617/617 618/618 619/619
f 619/619 620/620 617/617
f 621/621 622/622 623/623
f 623/623 624/624 621/621
f 625/625 626/626 627/627
f 627/627 628/628 625/625
