v -0.432813197 -0.1812668 0.69661355
v -0.433813184 -0.1812668 0.695613563
v -0.433813184 -0.202199996 0.695613563
v -0.432813197 -0.202199996 0.69661355
v 0.432813197 -0.202199996 0.69661355
v 0.433813184 -0.202199996 0.695613563
v 0.433813184 -0.1812668 0.695613563
v 0.432813197 -0.1812668 0.69661355
v 0.432813197 -0.1812668 0.196178824
v 0.433813184 -0.1812668 0.197178826
v 0.433813184 -0.202199996 0.197178826
v 0.432813197 -0.202199996 0.196178824
v -0.432813197 -0.202199996 0.196178824
v -0.433813184 -0.202199996 0.197178826
v -0.433813184 -0.1812668 0.197178826
v -0.432813197 -0.1812668 0.196178824
v -0.433813184 -0.1812668 0.695613563
v -0.433813184 -0.1812668 0.197178826
v -0.433813184 -0.202199996 0.197178826
v -0.433813184 -0.202199996 0.695613563
v 0.433813184 -0.202199996 0.695613563
v 0.433813184 -0.202199996 0.197178826
v 0.433813184 -0.1812668 0.197178826
v 0.433813184 -0.1812668 0.695613563
v 0.433813184 -0.202199996 0.695613563
v 0.432813197 -0.202199996 0.69661355
v 0.432813197 -0.203199998 0.695613563
v -0.432813197 -0.203199998 0.695613563
v -0.432813197 -0.202199996 0.69661355
v -0.433813184 -0.202199996 0.695613563
v -0.433813184 -0.202199996 0.197178826
v -0.432813197 -0.202199996 0.196178824
v -0.432813197 -0.203199998 0.197178826
v 0.432813197 -0.203199998 0.197178826
v 0.432813197 -0.202199996 0.196178824
v 0.433813184 -0.202199996 0.197178826
v -0.432813197 -0.1812668 0.69661355
v -0.432813197 -0.180266798 0.695613563
v -0.433813184 -0.1812668 0.695613563
v 0.433813184 -0.1812668 0.695613563
v 0.432813197 -0.180266798 0.695613563
v 0.432813197 -0.1812668 0.69661355
v 0.432813197 -0.1812668 0.196178824
v 0.432813197 -0.180266798 0.197178826
v 0.433813184 -0.1812668 0.197178826
v -0.433813184 -0.1812668 0.197178826
v -0.432813197 -0.180266798 0.197178826
v -0.432813197 -0.1812668 0.196178824
v -0.432813197 -0.203199998 0.695613563
v -0.433813184 -0.202199996 0.695613563
v -0.433813184 -0.202199996 0.197178826
v -0.432813197 -0.203199998 0.197178826
v 0.432813197 -0.203199998 0.197178826
v 0.433813184 -0.202199996 0.197178826
v 0.433813184 -0.202199996 0.695613563
v 0.432813197 -0.203199998 0.695613563
v 0.432813197 -0.180266798 0.695613563
v 0.433813184 -0.1812668 0.695613563
v 0.433813184 -0.1812668 0.197178826
v 0.432813197 -0.180266798 0.197178826
v -0.432813197 -0.180266798 0.197178826
v -0.433813184 -0.1812668 0.197178826
v -0.433813184 -0.1812668 0.695613563
v -0.432813197 -0.180266798 0.695613563
v 0.00349999964 -0.1812668 0.69661355
v 0.00349999964 -0.202199996 0.69661355
v 0.432813197 -0.202199996 0.69661355
v 0.432813197 -0.1812668 0.69661355
v -0.00349999964 -0.1812668 0.196178824
v -0.00349999964 -0.202199996 0.196178824
v -0.432813197 -0.202199996 0.196178824
v -0.432813197 -0.1812668 0.196178824
v -0.432813197 -0.1812668 0.69661355
v -0.432813197 -0.202199996 0.69661355
v -0.00349999964 -0.202199996 0.69661355
v -0.00349999964 -0.1812668 0.69661355
v 0.432813197 -0.1812668 0.196178824
v 0.432813197 -0.202199996 0.196178824
v 0.00349999964 -0.202199996 0.196178824
v 0.00349999964 -0.1812668 0.196178824
v -0.432813197 -0.202199996 0.69661355
v -0.432813197 -0.203199998 0.695613563
v -0.00349999964 -0.203199998 0.695613563
v -0.00349999964 -0.202199996 0.69661355
v -0.432813197 -0.203199998 0.197178826
v -0.432813197 -0.202199996 0.196178824
v -0.00349999964 -0.202199996 0.196178824
v -0.00349999964 -0.203199998 0.197178826
v -0.432813197 -0.180266798 0.695613563
v -0.432813197 -0.1812668 0.69661355
v -0.00349999964 -0.1812668 0.69661355
v -0.00349999964 -0.180266798 0.695613563
v -0.432813197 -0.1812668 0.196178824
v -0.432813197 -0.180266798 0.197178826
v -0.00349999964 -0.180266798 0.197178826
v -0.00349999964 -0.1812668 0.196178824
v 0.00349999964 -0.202199996 0.69661355
v 0.00349999964 -0.203199998 0.695613563
v 0.432813197 -0.203199998 0.695613563
v 0.432813197 -0.202199996 0.69661355
v 0.00349999964 -0.203199998 0.197178826
v 0.00349999964 -0.202199996 0.196178824
v 0.432813197 -0.202199996 0.196178824
v 0.432813197 -0.203199998 0.197178826
v 0.00349999964 -0.180266798 0.695613563
v 0.00349999964 -0.1812668 0.69661355
v 0.432813197 -0.1812668 0.69661355
v 0.432813197 -0.180266798 0.695613563
v 0.00349999964 -0.1812668 0.196178824
v 0.00349999964 -0.180266798 0.197178826
v 0.432813197 -0.180266798 0.197178826
v 0.432813197 -0.1812668 0.196178824
v 0.00349999964 -0.1812668 0.69661355
v 0.00249999971 -0.1812668 0.695613563
v 0.00249999971 -0.202199996 0.695613563
v 0.00349999964 -0.202199996 0.69661355
v -0.00349999964 -0.1812668 0.196178824
v -0.00249999971 -0.1812668 0.197178826
v -0.00249999971 -0.202199996 0.197178826
v -0.00349999964 -0.202199996 0.196178824
v -0.00349999964 -0.202199996 0.69661355
v -0.00249999971 -0.202199996 0.695613563
v -0.00249999971 -0.1812668 0.695613563
v -0.00349999964 -0.1812668 0.69661355
v 0.00349999964 -0.202199996 0.196178824
v 0.00249999971 -0.202199996 0.197178826
v 0.00249999971 -0.1812668 0.197178826
v 0.00349999964 -0.1812668 0.196178824
v 0.00349999964 -0.202199996 0.69661355
v 0.00249999971 -0.202199996 0.695613563
v 0.00349999964 -0.203199998 0.695613563
v -0.00349999964 -0.202199996 0.196178824
v -0.00249999971 -0.202199996 0.197178826
v -0.00349999964 -0.203199998 0.197178826
v -0.00349999964 -0.1812668 0.69661355
v -0.00249999971 -0.1812668 0.695613563
v -0.00349999964 -0.180266798 0.695613563
v 0.00349999964 -0.1812668 0.196178824
v 0.00249999971 -0.1812668 0.197178826
v 0.00349999964 -0.180266798 0.197178826
v -0.00349999964 -0.203199998 0.695613563
v -0.00249999971 -0.202199996 0.695613563
v -0.00349999964 -0.202199996 0.69661355
v 0.00349999964 -0.203199998 0.197178826
v 0.00249999971 -0.202199996 0.197178826
v 0.00349999964 -0.202199996 0.196178824
v 0.00349999964 -0.180266798 0.695613563
v 0.00249999971 -0.1812668 0.695613563
v 0.00349999964 -0.1812668 0.69661355
v -0.00349999964 -0.180266798 0.197178826
v -0.00249999971 -0.1812668 0.197178826
v -0.00349999964 -0.1812668 0.196178824
v -0.00349999964 -0.180266798 0.695613563
v -0.00349999964 -0.180266798 0.197178826
v -0.432813197 -0.180266798 0.197178826
v -0.432813197 -0.180266798 0.695613563
v 0.432813197 -0.180266798 0.695613563
v 0.432813197 -0.180266798 0.197178826
v 0.00349999964 -0.180266798 0.197178826
v 0.00349999964 -0.180266798 0.695613563
v -0.432813197 -0.203199998 0.695613563
v -0.432813197 -0.203199998 0.197178826
v -0.00349999964 -0.203199998 0.197178826
v -0.00349999964 -0.203199998 0.695613563
v 0.00349999964 -0.203199998 0.695613563
v 0.00349999964 -0.203199998 0.197178826
v 0.432813197 -0.203199998 0.197178826
v 0.432813197 -0.203199998 0.695613563
v 0.00349999964 -0.203199998 0.695613563
v 0.00249999971 -0.202199996 0.695613563
v 0.00249999971 -0.202199996 0.197178826
v 0.00349999964 -0.203199998 0.197178826
v -0.00349999964 -0.180266798 0.695613563
v -0.00249999971 -0.1812668 0.695613563
v -0.00249999971 -0.1812668 0.197178826
v -0.00349999964 -0.180266798 0.197178826
v -0.00349999964 -0.203199998 0.197178826
v -0.00249999971 -0.202199996 0.197178826
v -0.00249999971 -0.202199996 0.695613563
v -0.00349999964 -0.203199998 0.695613563
v 0.00349999964 -0.180266798 0.197178826
v 0.00249999971 -0.1812668 0.197178826
v 0.00249999971 -0.1812668 0.695613563
v 0.00349999964 -0.180266798 0.695613563
v 0.00249999971 -0.1812668 0.695613563
v 0.00249999971 -0.1812668 0.197178826
v 0.00249999971 -0.202199996 0.197178826
v 0.00249999971 -0.202199996 0.695613563
v -0.00249999971 -0.202199996 0.695613563
v -0.00249999971 -0.202199996 0.197178826
v -0.00249999971 -0.1812668 0.197178826
v -0.00249999971 -0.1812668 0.695613563
vt 0.958561361 0.0314958096
vt 0.957462668 0.0333682299
vt 0.0670199245 0.0333682299
vt 0.0681186169 0.0314958096
vt 0.976584971 0.0314958096
vt 0.976584971 0.0333682299
vt 0.998932421 0.0333682299
vt 0.998932421 0.0314958096
vt 0.997833729 0.96850431
vt 0.998932421 0.966631889
vt 0.976584971 0.966631889
vt 0.975486279 0.96850431
vt 0.0670199245 0.96850431
vt 0.0670199245 0.966631889
vt 0.957462668 0.966631889
vt 0.957462668 0.96850431
vt 0.957462668 0.0333682299
vt 0.957462668 0.966631889
vt 0.0670199245 0.966631889
vt 0.0670199245 0.0333682299
vt 0.976584971 0.0333682299
vt 0.976584971 0.966631889
vt 0.998932421 0.966631889
vt 0.998932421 0.0333682299
vt 0.976584971 0.0333682299
vt 0.976584971 0.0314958096
vt 0.9744187 0.0333681703
vt 0.025581263 0.0333682299
vt 0.0681186169 0.0314958096
vt 0.0670199245 0.0333682299
vt 0.0670199245 0.966631889
vt 0.0670199245 0.96850431
vt 0.025581263 0.966631889
vt 0.9744187 0.966631889
vt 0.975486279 0.96850431
vt 0.976584971 0.966631889
vt 0.958561361 0.0314958096
vt 1 0.0333681703
vt 0.957462668 0.0333682299
vt 0.998932421 0.0333682299
vt 1 0.0333682299
vt 0.998932421 0.0314958096
vt 0.997833729 0.96850431
vt 1 0.966631889
vt 0.998932421 0.966631889
vt 0.957462668 0.966631889
vt 1 0.966631889
vt 0.957462668 0.96850431
vt 0.025581263 0.0333682299
vt 0.0670199245 0.0333682299
vt 0.0670199245 0.966631889
vt 0.025581263 0.966631889
vt 0.9744187 0.966631889
vt 0.976584971 0.966631889
vt 0.976584971 0.0333682299
vt 0.9744187 0.0333681703
vt 1 0.0333682299
vt 0.998932421 0.0333682299
vt 0.998932421 0.966631889
vt 1 0.966631889
vt 1 0.966631889
vt 0.957462668 0.966631889
vt 0.957462668 0.0333682299
vt 1 0.0333681703
vt 0.979367733 0.0314958096
vt 0.524469972 0.0314958096
vt 0.976584971 0.0314958096
vt 0.998932421 0.0314958096
vt 0.977027297 0.96850431
vt 0.519134879 0.96850431
vt 0.0670199245 0.96850431
vt 0.957462668 0.96850431
vt 0.958561361 0.0314958096
vt 0.0681186169 0.0314958096
vt 0.520233572 0.0314958096
vt 0.978125989 0.0314958096
vt 0.997833729 0.96850431
vt 0.975486279 0.96850431
vt 0.523371339 0.96850431
vt 0.9782691 0.96850431
vt 0.0681186169 0.0314958096
vt 0.025581263 0.0333682299
vt 0.497260869 0.0333681703
vt 0.520233572 0.0314958096
vt 0.025581263 0.966631889
vt 0.0670199245 0.96850431
vt 0.519134879 0.96850431
vt 0.497260869 0.966631889
vt 1 0.0333681703
vt 0.958561361 0.0314958096
vt 0.978125989 0.0314958096
vt 1 0.0333682299
vt 0.957462668 0.96850431
vt 1 0.966631889
vt 1 0.966631889
vt 0.977027297 0.96850431
vt 0.524469972 0.0314958096
vt 0.502739072 0.0333682299
vt 0.9744187 0.0333681703
vt 0.976584971 0.0314958096
vt 0.502739072 0.966631889
vt 0.523371339 0.96850431
vt 0.975486279 0.96850431
vt 0.9744187 0.966631889
vt 1 0.0333681703
vt 0.979367733 0.0314958096
vt 0.998932421 0.0314958096
vt 1 0.0333682299
vt 0.9782691 0.96850431
vt 1 0.966631889
vt 1 0.966631889
vt 0.997833729 0.96850431
vt 0.979367733 0.0314958096
vt 0.9782691 0.0333682299
vt 0.523371279 0.0333682299
vt 0.524469972 0.0314958096
vt 0.977027297 0.96850431
vt 0.978125989 0.966631889
vt 0.520233572 0.966631889
vt 0.519134879 0.96850431
vt 0.520233572 0.0314958096
vt 0.520233572 0.0333682299
vt 0.978125989 0.0333682299
vt 0.978125989 0.0314958096
vt 0.523371339 0.96850431
vt 0.523371279 0.966631889
vt 0.9782691 0.966631889
vt 0.9782691 0.96850431
vt 0.524469972 0.0314958096
vt 0.523371279 0.0333682299
vt 0.502739072 0.0333682299
vt 0.519134879 0.96850431
vt 0.520233572 0.966631889
vt 0.497260869 0.966631889
vt 0.978125989 0.0314958096
vt 0.978125989 0.0333682299
vt 1 0.0333682299
vt 0.9782691 0.96850431
vt 0.9782691 0.966631889
vt 1 0.966631889
vt 0.497260869 0.0333681703
vt 0.520233572 0.0333682299
vt 0.520233572 0.0314958096
vt 0.502739072 0.966631889
vt 0.523371279 0.966631889
vt 0.523371339 0.96850431
vt 1 0.0333681703
vt 0.9782691 0.0333682299
vt 0.979367733 0.0314958096
vt 1 0.966631889
vt 0.978125989 0.966631889
vt 0.977027297 0.96850431
vt 1 0.0333682299
vt 1 0.966631889
vt 1 0.966631889
vt 1 0.0333681703
vt 1 0.0333682299
vt 1 0.966631889
vt 1 0.966631889
vt 1 0.0333681703
vt 0.000499486923 0.000499486923
vt 0.000499486923 0.999500394
vt 0.999500513 0.999500394
vt 0.999500513 0.000499486923
vt 0.000499457121 0.000499486923
vt 0.000499457121 0.999500394
vt 0.999500453 0.999500394
vt 0.999500453 0.000499486923
vt 0.502739072 0.0333682299
vt 0.523371279 0.0333682299
vt 0.523371279 0.966631889
vt 0.502739072 0.966631889
vt 1 0.0333682299
vt 0.978125989 0.0333682299
vt 0.978125989 0.966631889
vt 1 0.966631889
vt 0.497260869 0.966631889
vt 0.520233572 0.966631889
vt 0.520233572 0.0333682299
vt 0.497260869 0.0333681703
vt 1 0.966631889
vt 0.9782691 0.966631889
vt 0.9782691 0.0333682299
vt 1 0.0333681703
vt 0.9782691 0.0333682299
vt 0.9782691 0.966631889
vt 0.523371279 0.966631889
vt 0.523371279 0.0333682299
vt 0.520233572 0.0333682299
vt 0.520233572 0.966631889
vt 0.978125989 0.966631889
vt 0.978125989 0.0333682299
f 1/1 2/2 3/3
f 3/3 4/4 1/1
f 5/5 6/6 7/7
f 7/7 8/8 5/5
f 9/9 10/10 11/11
f 11/11 12/12 9/9
f 13/13 14/14 15/15
f 15/15 16/16 13/13
f 17/17 18/18 19/19
f 19/19 20/20 17/17
f 21/21 22/22 23/23
f 23/23 24/24 21/21
f 25/25 26/26 27/27
f 28/28 29/29 30/30
f 31/31 32/32 33/33
f 34/34 35/35 36/36
f 37/37 38/38 39/39
f 40/40 41/41 42/42
f 43/43 44/44 45/45
f 46/46 47/47 48/48
f 49/49 50/50 51/51
f 51/51 52/52 49/49
f 53/53 54/54 55/55
f 55/55 56/56 53/53
f 57/57 58/58 59/59
f 59/59 60/60 57/57
f 61/61 62/62 63/63
f 63/63 64/64 61/61
f 65/65 66/66 67/67
f 67/67 68/68 65/65
f 69/69 70/70 71/71
f 71/71 72/72 69/69
f 73/73 74/74 75/75
f 75/75 76/76 73/73
f 77/77 78/78 79/79
f 79/79 80/80 77/77
f 81/81 82/82 83/83
f 83/83 84/84 81/81
f 85/85 86/86 87/87
f 87/87 88/88 85/85
f 89/89 90/90 91/91
f 91/91 92/92 89/89
f 93/93 94/94 95/95
f 95/95 96/96 93/93
f 97/97 98/98 99/99
f 99/99 100/100 97/97
f 101/101 102/102 103/103
f 103/103 104/104 101/101
f 105/105 106/106 107/107
f 107/107 108/108 105/105
f 109/109 110/110 111/111
f 111/111 112/112 109/109
f 113/113 114/114 115/115
f 115/115 116/116 113/113
f 117/117 118/118 119/119
f 119/119 120/120 117/117
f 121/121 122/122 123/123
f 123/123 124/124 121/121
f 125/125 126/126 127/127
f 127/127 128/128 125/125
f 129/129 130/130 131/131
f 132/132 133/133 134/134
f 135/135 136/136 137/137
f 138/138 139/139 140/140
f 141/141 142/142 143/143
f 144/144 145/145 146/146
f 147/147 148/148 149/149
f 150/150 151/151 152/152
f 153/153 154/154 155/155
f 155/155 156/156 153/153
f 157/157 158/158 159/159
f 159/159 160/160 157/157
f 161/161 162/162 163/163
f 163/163 164/164 161/161
f 165/165 166/166 167/167
f 167/167 168/168 165/165
f 169/169 170/170 171/171
f 171/171 172/172 169/169
f 173/173 174/174 175/175
f 175/175 176/176 173/173
f 177/177 178/178 179/179
f 179/179 180/180 177/177
f 181/181 182/182 183/183
f 183/183 184/184 181/181
f 185/185 186/186 187/187
f 187/187 188/188 185/185
f 189/189 190/190 191/191
f 191/191 192/192 189/189
