v -0.087597765 -0.0746461451 -1.65747738e-17
v -0.087597765 0.081258513 1.80430144e-17
v 0.0675577372 0.081258513 1.80430144e-17
v 0.0675577372 -0.0746461451 -1.65747738e-17
v 0.0869345441 -0.0941165313 0.312770873
v -0.106974572 -0.0941165313 0.312770873
v -0.128913119 -0.116161004 0.312760472
v -0.128913119 0.122773349 0.312760472
v 0.108873092 -0.116161004 0.312760472
v -0.106974572 0.100728877 0.312770873
v 0.0869345441 0.100728877 0.312770873
v 0.108873092 0.122773349 0.312760472
v 0.0675577372 -0.0746461451 -1.65747738e-17
v 0.108873092 -0.116161004 0.312760472
v -0.128913119 -0.116161004 0.312760472
v -0.087597765 -0.0746461451 -1.65747738e-17
v -0.087597765 0.081258513 1.80430144e-17
v -0.128913119 0.122773349 0.312760472
v 0.108873092 0.122773349 0.312760472
v 0.0675577372 0.081258513 1.80430144e-17
v 0.0675577372 0.081258513 1.80430144e-17
v 0.108873092 0.122773349 0.312760472
v 0.108873092 -0.116161004 0.312760472
v 0.0675577372 -0.0746461451 -1.65747738e-17
v -0.087597765 -0.0746461451 -1.65747738e-17
v -0.128913119 -0.116161004 0.312760472
v -0.128913119 0.122773349 0.312760472
v -0.087597765 0.081258513 1.80430144e-17
v 0.0869345441 -0.0941165313 0.312770873
v 0.0869345441 0.100728877 0.312770873
v 0.0505413376 0.0641599521 0.0212052613
v 0.050541345 -0.0575475879 0.0212052613
v -0.106974572 0.100728877 0.312770873
v -0.106974572 -0.0941165313 0.312770873
v -0.0705813691 -0.0575475879 0.0212052613
v -0.0705813691 0.0641599521 0.0212052613
v -0.106974572 -0.0941165313 0.312770873
v 0.0869345441 -0.0941165313 0.312770873
v 0.050541345 -0.0575475879 0.0212052613
v -0.0705813691 -0.0575475879 0.0212052613
v 0.0869345441 0.100728877 0.312770873
v -0.106974572 0.100728877 0.312770873
v -0.0705813691 0.0641599521 0.0212052613
v 0.0505413376 0.0641599521 0.0212052613
v 0.0505413376 0.0641599521 0.0212052613
v -0.0705813691 0.0641599521 0.0212052613
v -0.0705813691 -0.0575475879 0.0212052613
v 0.050541345 -0.0575475879 0.0212052613
vt -7.82999992 8.82999992
vt -7.82999992 -6.82999992
vt 7.82999992 -6.82999992
vt 7.82999992 8.82999992
vt 9.78572083 10.7857218
vt -9.78572083 10.7857218
vt -12 13.000001
vt -12 -10.999999
vt 12 13.000001
vt -9.78572083 -8.78571987
vt 9.78572083 -8.78571987
vt 12 -10.999999
vt 7.82999992 8.82999992
vt 12 13.000001
vt -12 13.000001
vt -7.82999992 8.82999992
vt -7.82999992 -6.82999992
vt -12 -10.999999
vt 12 -10.999999
vt 7.82999992 -6.82999992
vt 7.82999992 -6.82999992
vt 12 -10.999999
vt 12 13.000001
vt 7.82999992 8.82999992
vt -7.82999992 8.82999992
vt -12 13.000001
vt -12 -10.999999
vt -7.82999992 -6.82999992
vt 9.78572083 10.7857218
vt 9.78572083 -8.78571987
vt 6.11251783 -5.11251783
vt 6.11251831 7.11251783
vt -9.78572083 -8.78571987
vt -9.78572083 10.7857218
vt -6.11251783 7.11251783
vt -6.11251783 -5.11251783
vt -9.78572083 10.7857218
vt 9.78572083 10.7857218
vt 6.11251831 7.11251783
vt -6.11251783 7.11251783
vt 9.78572083 -8.78571987
vt -9.78572083 -8.78571987
vt -6.11251783 -5.11251783
vt 6.11251783 -5.11251783
vt 6.11251783 -5.11251783
vt -6.11251783 -5.11251783
vt -6.11251783 7.11251783
vt 6.11251831 7.11251783
f 1/1 2/2 3/3
f 3/3 4/4 1/1
f 5/5 6/6 7/7
f 8/8 7/7 6/6
f 7/7 9/9 5/5
f 6/6 10/10 8/8
f 11/11 5/5 9/9
f 12/12 8/8 10/10
f 10/10 11/11 12/12
f 9/9 12/12 11/11
f 13/13 14/14 15/15
f 15/15 16/16 13/13
f 17/17 18/18 19/19
f 19/19 20/20 17/17
f 21/21 22/22 23/23
f 23/23 24/24 21/21
f 25/25 26/26 27/27
f 27/27 28/28 25/25
f 29/29 30/30 31/31
f 31/31 32/32 29/29
f 33/33 34/34 35/35
f 35/35 36/36 33/33
f 37/37 38/38 39/39
f 39/39 40/40 37/37
f 41/41 42/42 43/43
f 43/43 44/44 41/41
f 45/45 46/46 47/47
f 47/47 48/48 45/45
