v -0.11318101 0.110169895 0.275587976
v -0.11318101 -0.103558421 0.275587976
v 0.0952662602 -0.103558421 0.275587976
v 0.0952662602 0.110169895 0.275587976
v 0.0952662602 0.0567378215 0.275587976
v 0.0952662602 0.00330574182 0.275587976
v 0.0952662602 -0.0501263365 0.275587976
vt -0.642347217 -0.606612563
vt -0.642347693 1.54020298
vt 1.4615314 1.54020345
vt 1.46153188 -0.606612086
vt 1.46153188 -0.0699083805
vt 1.46153164 0.466795623
vt 1.46153164 1.00349951
f 1/1 2/2 3/3
f 4/4 1/1 3/3
f 3/3 5/5 4/4
f 3/3 6/6 5/5
f 7/7 6/6 3/3
