v 0.285026968 0.129574195 0.212356627
v 0.285030812 0.129308239 0.212404415
v 0.284799665 0.119084075 0.153513491
v 0.285103709 0.141923353 0.282392204
v 0.284796774 0.119195394 0.153495595
v 0.284413159 0.112756453 0.116978601
v 0.284791231 0.119274646 0.153485656
v 0.285098016 0.142001733 0.282377213
v 0.285021335 0.129653051 0.212344408
v 0.285026968 0.154273391 0.352432758
v 0.285029829 0.154162928 0.352455616
v 0.285030812 0.154008448 0.352486283
v 0.284417152 0.170833454 0.44790563
v 0.284800678 0.164390162 0.4113639
v 0.284800828 0.164180249 0.411405325
v 0.285107553 0.141447812 0.28248325
v 0.285107583 0.14117071 0.282536328
v 0.284801066 0.163903415 0.411459923
v 0.284801304 0.163576365 0.411524445
v 0.284417897 0.170346409 0.447999984
v 0.28441748 0.170623422 0.44794634
v 0.283843219 0.174098715 0.467655778
v 0.283843935 0.173821434 0.467707843
v 0.283844709 0.173493862 0.467769325
v 0.283041567 0.175299317 0.476089388
v 0.283040643 0.17557691 0.476038963
v 0.283842742 0.174308971 0.46761629
v 0.283039987 0.175787374 0.476000726
v 0.283841491 0.17446357 0.467586339
v 0.28441605 0.170987904 0.447874814
v 0.2819722 0.176028699 0.478601217
v 0.281973302 0.175750941 0.47865063
v 0.281974584 0.175422817 0.478709012
v 0.280601501 0.176147148 0.480897576
v 0.281971365 0.176239312 0.478563756
v 0.280600339 0.176424861 0.480847895
v 0.280599415 0.176635429 0.480810195
v 0.281969935 0.176394165 0.478535324
v 0.283038646 0.175942123 0.475971699
v 0.278922677 0.177131712 0.48271814
v 0.278927565 0.17616114 0.482896239
v 0.276947409 0.176777616 0.484473139
v 0.283035755 0.176052541 0.47594887
v 0.276946336 0.177054942 0.484421283
v 0.280597955 0.176790252 0.480781674
v 0.276945561 0.177265227 0.484381944
v -0.322340459 0.129711345 0.212337643
v -0.322113752 0.119333506 0.153482318
v -0.322130948 0.11737299 0.153821468
v -0.321735919 0.112895019 0.116968326
v -0.321168572 0.109424211 0.0972850472
v -0.321181953 0.107461639 0.0976113752
v -0.320384324 0.105987012 0.0892483667
v -0.319312096 0.107499093 0.0863682926
v -0.31932044 0.105537131 0.0866969675
v -0.317952096 0.10514003 0.0844448656
v -0.320373386 0.107949458 0.088921912
v -0.317946315 0.107101478 0.0841136128
v -0.316274911 0.106756791 0.0821588933
v -0.316278726 0.104795791 0.08249259
v -0.314299762 0.104504526 0.0808407515
v 0.27694121 0.10632509 0.0805171356
v 0.27694416 0.106212161 0.0805349275
v 0.274653941 0.106166944 0.0791560039
v 0.278922677 0.10650453 0.0821881965
v 0.278919756 0.106617115 0.0821705684
v 0.278914481 0.106697164 0.0821612477
v 0.276935905 0.106405362 0.0805076808
v 0.280595034 0.106962286 0.0841247737
v 0.280600339 0.106481582 0.084206745
v 0.28197217 0.106881224 0.0864597932
v 0.280601501 0.106201693 0.084256433
v 0.281973302 0.106602341 0.0865089968
v 0.283041567 0.107054368 0.089060761
v 0.283040643 0.107332647 0.089011848
v 0.283038616 0.107699104 0.0889483467
v 0.283842742 0.109018698 0.0973375067
v 0.283843935 0.10852997 0.0974234641
v 0.28441748 0.112279184 0.117059648
v 0.284417182 0.112489812 0.117022313
v 0.283841461 0.109173976 0.0973111168
v 0.284800828 0.118718483 0.153578728
v 0.284801066 0.118440837 0.153628811
v 0.28441897 0.111311495 0.11723119
v 0.285030961 0.128820524 0.212494999
v 0.284800678 0.118928999 0.153540745
v 0.285030842 0.129097924 0.212443471
v 0.28441602 0.112645 0.116995692
v 0.285107642 0.140843347 0.282599002
v 0.285107523 0.141657934 0.282443017
v -0.31430915 0.177530184 0.484329104
v -0.314310879 0.177419841 0.484352201
v -0.312025338 0.177655965 0.485691279
v -0.31628561 0.176488996 0.482836366
v -0.31628716 0.177242115 0.48269549
v -0.312018842 0.177843645 0.485648125
v -0.309424043 0.17802909 0.486699551
v -0.31430468 0.177607611 0.484309673
v -0.317946315 0.177034214 0.480721921
v -0.317952096 0.175079018 0.481088668
v -0.319326729 0.176394165 0.478535324
v -0.31932041 0.174682632 0.478840679
v -0.320373386 0.176185861 0.475909859
v -0.320384324 0.174231693 0.476283282
v -0.321181953 0.172754914 0.467907995
v -0.322113752 0.164788574 0.411270857
v -0.322130948 0.162838638 0.411669999
v -0.321751446 0.169280976 0.448206395
v -0.321735889 0.171231449 0.447810709
v -0.322416037 0.142059296 0.282366216
v -0.322340459 0.154408112 0.352400005
v -0.0186548773 0.178394631 0.488771647
v 0.0878237486 0.178192839 0.488735974
v 0.17706205 0.178151816 0.488503397
v 0.0878238082 0.178037971 0.488764465
v 0.0878205895 0.178380936 0.488694042
v -0.125132561 0.178380936 0.488694042
v -0.214381978 0.177508801 0.488619953
v -0.214381814 0.177997008 0.488532156
v -0.269149512 0.176751643 0.488360763
v -0.2691513 0.177928746 0.488145024
v -0.269151002 0.177718341 0.488183588
v -0.297986448 0.177617028 0.487609029
v -0.297985435 0.177339703 0.487660885
v -0.297984242 0.177012086 0.487722129
v -0.309428573 0.177199438 0.486865401
v -0.309431225 0.177686825 0.486772984
v -0.297987223 0.177827314 0.487569749
v -0.297979176 0.178169727 0.487496912
v -0.312021852 0.177014068 0.485814124
v -0.312019616 0.176686615 0.485876352
v -0.314307243 0.176777616 0.484473139
v -0.31430915 0.177054942 0.484421283
v -0.31431061 0.177265227 0.484381944
v -0.309431165 0.17784138 0.486742824
v 0.280589849 0.17697826 0.480740398
v 0.281967044 0.176504657 0.478513032
v 0.278914511 0.177319616 0.482676357
v 0.281961799 0.176582173 0.478493989
v 0.27694124 0.177530184 0.484329104
v 0.27694416 0.177419856 0.484352201
v 0.274663627 0.177501425 0.485721499
v 0.274664283 0.177291259 0.485761464
v 0.274667203 0.176325664 0.485944927
v 0.272079289 0.177199438 0.486865401
v 0.272077203 0.17784138 0.486742824
v 0.260646075 0.177339703 0.487660885
v 0.231821701 0.177718341 0.488183588
v 0.23182106 0.176751643 0.488360763
v 0.260645777 0.177827314 0.487569749
v 0.231821835 0.177928761 0.488145024
v 0.260644764 0.177981943 0.487539947
v 0.177062169 0.177786469 0.488570005
v 0.177061737 0.177508801 0.488619953
v 0.177061185 0.177180782 0.488678902
v 0.177062511 0.177997008 0.488532156
v 0.23182106 0.178083479 0.488115758
v -0.0186560359 0.177840978 0.488879174
v -0.0186566189 0.177563176 0.488928348
v -0.125138268 0.177221447 0.488909543
v 0.231818482 0.178193882 0.48809281
v -0.0186555944 0.178051621 0.488841861
v -0.125128508 0.105701096 0.076168716
v -0.1251394 0.103738517 0.0764964819
v -0.21436739 0.105740309 0.0763914287
v -0.0186547581 0.105688013 0.0760944858
v 0.0878167376 0.105701052 0.076168716
v 0.0878205225 0.103735551 0.0764970034
v 0.177048862 0.105740204 0.0763914511
v 0.231804505 0.105805457 0.0767626539
v 0.231820881 0.103829019 0.0770963952
v 0.26064679 0.103919737 0.0776585266
v 0.272059441 0.106041729 0.0781050846
v 0.272081405 0.104051664 0.0784457251
v 0.260626942 0.105903678 0.077320978
v 0.274665177 0.105319478 0.0793002248
v 0.276947439 0.105559111 0.080651395
v 0.278925061 0.106134556 0.0822534785
v 0.278927594 0.105521634 0.0823629946
v 0.278924167 0.106347606 0.0822153986
v -0.314296693 0.10646522 0.0805051848
v -0.312010527 0.106226943 0.0791535452
v -0.312014639 0.104266316 0.0794897974
v -0.309415191 0.106042147 0.0781049952
v -0.309422702 0.104081273 0.0784403607
v -0.29798159 0.103942677 0.0776543394
v -0.297970057 0.105903998 0.0773208961
v -0.269148946 0.103843816 0.0770937055
v -0.269134343 0.105805665 0.0767626017
v 0.268009305 0.145300359 0.281773508
v 0.276638091 0.155544639 0.349339634
v 0.276535869 0.143716544 0.282062888
v 0.276968807 0.165448517 0.40609619
v 0.262159854 0.172366694 0.429857135
v 0.256551087 0.147345334 0.281402588
v 0.243330881 0.160122529 0.340989858
v 0.27753067 0.171570197 0.441795409
v 0.277533859 0.174853072 0.461003065
v 0.230616614 0.171141699 0.392666906
v 0.227438793 0.162040442 0.337394953
v 0.209652796 0.16331467 0.329959214
v 0.210453585 0.170345932 0.37138477
v 0.24646835 0.168563828 0.392337173
v 0.252992451 0.173308626 0.426311046
v 0.261197746 0.175486386 0.447551429
v 0.269378752 0.176226601 0.460698307
v 0.276188374 0.176240534 0.468284935
v 0.271992892 0.177084669 0.471505672
v 0.256290197 0.176089093 0.447182357
v 0.263427347 0.177066326 0.462325394
v 0.244888827 0.174542755 0.4263933
v 0.269872993 0.177464962 0.473466605
v 0.252320528 0.176772892 0.449066967
v 0.25882563 0.177861765 0.466836601
v 0.239552185 0.175946072 0.431317151
v 0.248685151 0.177420869 0.452193528
v -0.313877732 0.143728152 0.282128692
v -0.305365711 0.145323575 0.281905115
v -0.313980639 0.13183099 0.214852795
v -0.2944161 0.136381432 0.219844893
v -0.299531281 0.120103873 0.133459851
v -0.314313471 0.121725723 0.158131868
v -0.284028083 0.168629766 0.392711133
v -0.280718118 0.139004841 0.22122547
v -0.314878792 0.115271002 0.122506745
v -0.314887136 0.11179021 0.103355713
v -0.308629841 0.114078447 0.109413639
v -0.306747556 0.113186486 0.103180014
v -0.313548774 0.110606737 0.0960571021
v -0.290376097 0.122202881 0.136475891
v -0.298575312 0.116985582 0.115776755
v -0.293675959 0.117678761 0.115920864
v -0.300809562 0.113418981 0.101363309
v -0.307250381 0.109982491 0.0907543972
v -0.283855259 0.129366577 0.170038447
v -0.268014759 0.131676361 0.168847799
v -0.282282352 0.123334773 0.135978267
v -0.264833122 0.142040119 0.223967493
v -0.276951104 0.122967951 0.130863234
v -0.289711893 0.117675573 0.113909326
v -0.286079168 0.117213212 0.110738859
v -0.271171391 0.121912643 0.124331422
v -0.261732072 0.120979026 0.11958345
v -0.294886172 0.111913793 0.0940026566
v -0.303436428 0.109108828 0.0865828916
v -0.282173663 0.116528891 0.107406192
v -0.27935496 0.115499072 0.103559211
v -0.294462949 0.111049913 0.091062896
v -0.301926523 0.108584605 0.084589012
v -0.253276616 0.119534314 0.11442478
v -0.291582078 0.10825178 0.0832882896
v -0.206425861 0.124483354 0.128054246
v -0.285219878 0.110522129 0.089244768
v -0.27898261 0.114000209 0.0988458544
v -0.250448376 0.116945684 0.106660858
v -0.314887136 0.11179021 0.103355713
v -0.314878792 0.115271002 0.122506745
v -0.313548774 0.110606737 0.0960571021
v -0.314313471 0.121725723 0.158131868
v -0.307250381 0.109982491 0.0907543972
v -0.303436428 0.109108828 0.0865828916
v -0.301926523 0.108584605 0.084589012
v -0.291582078 0.10825178 0.0832882896
v -0.263272703 0.108354472 0.0832811221
v -0.209385037 0.108621344 0.083813183
v -0.122305661 0.108781062 0.0841301307
v -0.0186319668 0.10883379 0.084232904
v 0.0850387067 0.108779706 0.0841224492
v 0.172109008 0.108618975 0.0837997645
v 0.225981623 0.10835176 0.0832657591
v 0.254276365 0.108248949 0.0832722113
v 0.264613122 0.108581387 0.0845707804
v 0.276927352 0.106464803 0.0805052668
v 0.266120225 0.109105185 0.086562261
v 0.267925978 0.109576434 0.0886473581
v 0.272054136 0.110294804 0.092721425
v 0.278906137 0.106756471 0.0821589604
v 0.274186879 0.110508673 0.0945218354
v 0.280581445 0.107101277 0.0841136575
v 0.280589819 0.107042089 0.0841156915
v 0.281169474 0.107833147 0.0871853605
v 0.276239038 0.110603511 0.0960388482
v -0.252187878 0.113835365 0.0979093537
v -0.263272703 0.108354472 0.0832811221
v -0.209385037 0.108621344 0.083813183
v -0.200228095 0.115069486 0.101082958
v -0.122305661 0.108781062 0.0841301307
v -0.199549332 0.119288944 0.112885378
v -0.0185841303 0.115939416 0.103290707
v -0.0186319668 0.10883379 0.084232904
v 0.163043022 0.115061775 0.101039216
v 0.0850387067 0.108779706 0.0841224492
v -0.114820004 0.125666782 0.131109625
v -0.10664957 0.131262839 0.148184165
v 0.172109008 0.108618975 0.0837997645
v -0.0185633842 0.13152115 0.14883095
v 0.0798470378 0.120426133 0.115860336
v 0.0695250109 0.131255835 0.148144484
v 0.0777138472 0.125659123 0.131066248
v 0.169319883 0.124468699 0.127971113
v 0.162408173 0.119277976 0.112823188
v 0.213273361 0.116934083 0.106595077
v 0.216125458 0.119520232 0.114344932
v 0.242147237 0.115487911 0.103495918
v 0.241761744 0.113990553 0.0987911299
v 0.225981623 0.10835176 0.0832657591
v 0.214978158 0.113826774 0.0978606641
v 0.24795182 0.110516459 0.0892126262
v 0.257192463 0.111043483 0.0910264403
v 0.254276365 0.108248949 0.0832722113
v -0.268245757 0.171223819 0.393132687
v -0.264953673 0.162108108 0.337778747
v -0.24704127 0.145781949 0.230526164
v -0.246393099 0.154718757 0.280391097
v -0.223615557 0.157005861 0.279946834
v -0.247151494 0.163376853 0.330311894
v -0.224241138 0.164354488 0.322375804
v -0.248047546 0.170421034 0.371810704
v -0.225712508 0.17044045 0.358923137
v -0.193050504 0.165407166 0.31741935
v -0.247812256 0.174516037 0.39640978
v -0.195323914 0.170802385 0.351087451
v -0.151736647 0.171245918 0.346658051
v -0.199091598 0.174345657 0.3762995
v -0.227710217 0.174257278 0.383654624
v -0.263080537 0.175109208 0.412974805
v -0.277197868 0.176024079 0.431759566
v -0.240710795 0.17657049 0.408705145
v -0.271430105 0.177265838 0.438255101
v -0.261991143 0.178008974 0.443016499
v -0.239954934 0.177887008 0.428728461
v -0.206717461 0.178406015 0.433864951
v -0.221008301 0.177492976 0.413292855
v -0.225898311 0.175857887 0.396399587
v -0.206828207 0.176441133 0.396039814
v -0.179482937 0.177765086 0.41346091
v -0.164426968 0.176617637 0.393955708
v -0.106912851 0.177868351 0.412497282
v 0.267864704 0.177797049 0.475545794
v 0.225404054 0.175020739 0.412473023
v 0.257091254 0.178357273 0.472782016
v 0.210157871 0.174431726 0.395931602
v 0.188170895 0.170380011 0.35858041
v 0.264562547 0.178255558 0.479712754
v 0.241966113 0.1782635 0.459514141
v 0.254229844 0.178389996 0.481062055
v 0.244780153 0.177916095 0.455550432
v 0.247858644 0.178485423 0.47468394
v 0.224332169 0.177933246 0.442586958
v 0.241603538 0.178468019 0.464461118
v 0.233770609 0.177186817 0.437806934
v 0.203028649 0.176483661 0.408212721
v 0.215882093 0.178340971 0.447934061
v 0.213065669 0.178565606 0.456124961
v 0.214819983 0.178637818 0.465422541
v 0.225931093 0.178492293 0.481052727
v 0.172051847 0.178564981 0.480483502
v 0.0849774703 0.178610548 0.480153114
v 0.16216588 0.178644776 0.449509174
v 0.169028461 0.178335115 0.433462858
v 0.0798135102 0.178771719 0.460252345
v -0.0186946075 0.178628191 0.480056882
v -0.200409144 0.178755 0.462261677
v -0.122367039 0.17861709 0.480190217
v -0.209442452 0.178576425 0.480548441
v 0.202256724 0.177802533 0.428249419
v 0.183328927 0.177413315 0.412841052
v -0.263323456 0.178505391 0.481126964
v -0.285313308 0.178512841 0.474839419
v -0.291628808 0.178403705 0.481139809
v -0.11722938 0.178731471 0.446526527
v -0.252346307 0.178679332 0.465658009
v -0.294564366 0.178388372 0.472958386
v -0.301977217 0.1782711 0.47980094
v -0.115106151 0.178453073 0.430475682
v -0.279141039 0.178514689 0.464725822
v -0.295000881 0.178198174 0.469920248
v -0.250656277 0.178621694 0.456443071
v -0.279536307 0.178317487 0.459820271
v -0.305303723 0.177815869 0.475652546
v -0.199791819 0.178697824 0.449809998
v -0.309428036 0.17710349 0.471612394
v -0.300932169 0.177103966 0.462538898
v -0.253520191 0.17840907 0.44832027
v -0.282367259 0.177974552 0.455881983
v -0.286275446 0.177480996 0.452534586
v -0.289902359 0.176831916 0.449401736
v -0.306848884 0.1762577 0.460874647
v -0.293851793 0.176144063 0.447494149
v -0.313599408 0.176256076 0.46837309
v -0.31493172 0.174867153 0.461082876
v -0.298727393 0.175534233 0.44782272
v -0.308719158 0.174958616 0.45468232
v -0.299666554 0.1724125 0.430116832
v -0.314921439 0.17158477 0.441878021
v -0.314350784 0.165463671 0.40618214
v -0.290558875 0.173369363 0.426655531
v -0.314001977 0.155558586 0.34941873
v -0.282504231 0.174614877 0.426802248
v 0.274668455 0.104233757 0.0794957355
v 0.27694872 0.105226107 0.0807112008
v 0.278930753 0.104772851 0.0824967772
v 0.278929144 0.105155736 0.0824283659
v 0.280602902 0.105871066 0.0843151361
v 0.280606121 0.105125226 0.0844475552
v 0.281977534 0.105529733 0.0866983086
v 0.283043861 0.106363252 0.0891822502
v 0.283045113 0.105984047 0.0892488882
v 0.283846527 0.107460894 0.0976115018
v 0.283845633 0.107839651 0.0975448862
v 0.283042639 0.106725626 0.0891185477
v 0.284419537 0.110932976 0.117298305
v 0.284801602 0.117751315 0.153753206
v 0.284418404 0.111673236 0.117167063
v 0.28503117 0.128131628 0.212622941
v 0.284801871 0.162838638 0.411669999
v 0.285107702 0.140482485 0.282668114
v 0.28503105 0.128492847 0.212555856
v 0.28503117 0.152833894 0.352716416
v 0.284801573 0.163215861 0.411595553
v 0.28503105 0.153194472 0.352645785
v 0.284418941 0.169658452 0.44813326
v 0.283846527 0.172754899 0.467907995
v 0.283845603 0.173132762 0.467837095
v 0.284418404 0.170019165 0.448063374
v 0.283043861 0.174609944 0.476214588
v 0.283045113 0.174231693 0.476283282
v 0.281977534 0.174682632 0.478840679
v 0.281976044 0.175061122 0.478773355
v 0.283042639 0.174971402 0.476148933
v 0.280604422 0.175457433 0.481020987
v 0.278930724 0.175421551 0.483031303
v 0.278929114 0.175799742 0.482962251
v 0.280602902 0.175819069 0.480956286
v 0.276950002 0.17608887 0.484601974
v 0.272081316 0.176133245 0.48706755
v 0.276948631 0.176449999 0.484534413
v 0.2720806 0.17651099 0.486995935
v 0.260646671 0.176273033 0.487860292
v 0.260646462 0.176650941 0.487789661
v 0.177059993 0.176440835 0.48881197
v 0.0878213197 0.176859736 0.488973856
v -0.125138819 0.176859736 0.488973856
v -0.214382321 0.176440835 0.48881197
v -0.29798162 0.176273033 0.487860292
v -0.297982961 0.176650941 0.487789661
v -0.309424788 0.176510975 0.486995935
v -0.309422702 0.176133245 0.48706755
v -0.314299762 0.175710961 0.484672636
v -0.312017173 0.176325664 0.485944927
v -0.314304948 0.176449999 0.484534413
v 0.110960215 0.16032815 0.27918452
v 0.111782119 0.16629681 0.314423442
v 0.155627936 0.165374026 0.317231357
v 0.0508285351 0.166851267 0.312743157
v 0.114288971 0.171219289 0.346507072
v 0.0523833707 0.171497449 0.343917727
v -0.0187068507 0.171594128 0.343077123
v 0.157833725 0.170758978 0.350841254
v 0.0549790449 0.174669415 0.369948179
v -0.0187458713 0.174723998 0.369234234
v -0.092478402 0.174688339 0.370055497
v -0.0898055732 0.171510056 0.343989253
v 0.18678011 0.164305717 0.322099179
v 0.186241686 0.156968281 0.279733717
v 0.209005803 0.154670671 0.280118376
v 0.20976299 0.145746604 0.230325699
v 0.18686603 0.149372965 0.23741138
v 0.188333884 0.142602414 0.201045752
v 0.210656211 0.138184801 0.188989863
v 0.230847552 0.131650463 0.168700963
v 0.2104173 0.133627564 0.164519608
v 0.19032599 0.137739256 0.176550508
v 0.161717936 0.140328839 0.183380529
v 0.188509643 0.134888336 0.1640497
v 0.169443995 0.135555416 0.164165378
v 0.227559313 0.142001793 0.223750144
v 0.203313842 0.131355852 0.152280167
v 0.183613434 0.130650654 0.147636771
v 0.127048388 0.136425287 0.166013539
v 0.142091855 0.130840987 0.147341028
v 0.202553406 0.125743628 0.133008569
v 0.225679159 0.1285218 0.148764417
v 0.224591061 0.120963365 0.119494654
v 0.239798844 0.122950017 0.130761504
v 0.234029189 0.12189585 0.124236196
v 0.248881266 0.117200665 0.110667706
v 0.244973585 0.116516806 0.107337639
v 0.252510905 0.117662907 0.113837533
v 0.258948207 0.112610847 0.096780166
v 0.266443789 0.113441087 0.102664411
v 0.272054136 0.110294804 0.092721425
v 0.267925978 0.109576434 0.0886473581
v 0.266120225 0.109105185 0.086562261
v 0.274186879 0.110508673 0.0945218354
v 0.264613122 0.108581387 0.0845707804
v 0.256465912 0.117666595 0.115851872
v 0.26948002 0.113180049 0.103143528
v 0.276239038 0.110603511 0.0960388482
v 0.277578533 0.111786991 0.103337526
v 0.245110631 0.123316675 0.135875672
v 0.261349767 0.116974756 0.115715399
v 0.253175139 0.122186624 0.136383727
v 0.262295127 0.120090999 0.133386895
v 0.277573377 0.1152668 0.122482948
v 0.277006179 0.121719643 0.158097401
v 0.276659429 0.131822214 0.2148031
v 0.246641114 0.129342705 0.169903085
v -0.155999869 0.17456229 0.372410923
v -0.0976900607 0.176704422 0.392415732
v -0.0187882353 0.176718801 0.391744524
v -0.0188229587 0.17786932 0.411684543
v 0.0692617968 0.177834526 0.412305385
v 0.0601077713 0.176678136 0.392266661
v 0.126828015 0.176567823 0.393673241
v 0.0774277896 0.178416073 0.430265814
v 0.141819671 0.177702874 0.41310811
v 0.118477695 0.174524799 0.372198284
v 0.169202566 0.176373333 0.395655304
v 0.161531389 0.174290314 0.375985622
v 0.190103635 0.174185961 0.383250087
v 0.188257918 0.175781831 0.395968258
v -0.15164201 0.147543877 0.21223712
v -0.149128079 0.153893799 0.244082481
v -0.0881662741 0.154989094 0.245469436
v -0.0897293389 0.148693174 0.21458821
v -0.192987576 0.152068034 0.241769359
v -0.148303807 0.160341129 0.279258192
v -0.192271635 0.158911794 0.279558748
v -0.0876545832 0.161198512 0.279076487
v -0.0186367501 0.14907515 0.215365589
v -0.0186528414 0.155353114 0.245925635
v -0.0186660662 0.161482841 0.279007673
v -0.0881993249 0.166859463 0.312789679
v -0.149172306 0.166315347 0.314528584
v -0.0186821576 0.167038471 0.312196553
v -0.224155188 0.149401024 0.23757045
v -0.225549459 0.142623633 0.201166138
v -0.19519861 0.145627722 0.208314806
v -0.198904976 0.140342638 0.18345876
v -0.155842558 0.141861901 0.186957762
v -0.092338711 0.142772645 0.189052537
v -0.16420652 0.136435881 0.166073605
v -0.227487743 0.137757391 0.176653385
v -0.247552708 0.133648679 0.164639384
v -0.24784486 0.13821055 0.189135969
v -0.225646451 0.134905562 0.164147422
v -0.206586674 0.135570019 0.164248228
v -0.220723659 0.130667135 0.147730201
v -0.240425423 0.131374732 0.152387217
v -0.262805313 0.128543273 0.148886204
v -0.179210648 0.130853847 0.147413969
v -0.239658102 0.125761092 0.133107632
v -0.0974826813 0.137028784 0.167403981
v -0.0185853969 0.137255609 0.167937562
v -0.0186120607 0.143074796 0.189742655
v 0.0551186986 0.142768264 0.189027667
v 0.0524595939 0.148689389 0.214566752
v 0.0508615784 0.154985055 0.245446488
v 0.0503195785 0.161193073 0.279045701
v 0.114383563 0.147535443 0.212189242
v 0.111826345 0.153884098 0.244027421
v 0.0603151023 0.137023225 0.167372495
v 0.118634924 0.141852975 0.186907113
v 0.155690819 0.152049437 0.241663843
v 0.157958984 0.145612866 0.20823057
v 0.154913709 0.158886999 0.27941817
v 0.281961769 0.107439876 0.086369969
v 0.283030421 0.107890263 0.0889230594
v 0.283833236 0.109365009 0.0972860083
v 0.277578533 0.111786991 0.103337526
v 0.277573377 0.1152668 0.122482948
v 0.284398615 0.112895012 0.116968304
v 0.284781963 0.119333498 0.153482288
v 0.277006179 0.121719643 0.158097401
v 0.276659429 0.131822214 0.2148031
v 0.276535869 0.143716544 0.282062888
v 0.284166545 0.154553086 0.352084398
v 0.276638091 0.155544639 0.349339634
v 0.276968807 0.165448517 0.40609619
v 0.284398615 0.171231449 0.447810739
v 0.27753067 0.171570197 0.441795409
v 0.277533859 0.174853072 0.461003065
v 0.283824414 0.174707085 0.467522711
v 0.276188374 0.176240534 0.468284935
v 0.28303045 0.176129982 0.47592926
v 0.284781992 0.164788574 0.411270857
v 0.271992892 0.177084669 0.471505672
v 0.281953335 0.176638111 0.478475243
v 0.279715478 0.177069813 0.479787558
v 0.269872993 0.177464962 0.473466605
v 0.267864704 0.177797049 0.475545794
v 0.276927352 0.177663535 0.484290957
v 0.272059441 0.178085014 0.486680448
v 0.273779392 0.177946702 0.484818995
v 0.264562547 0.178255558 0.479712754
v 0.254229844 0.178389996 0.481062055
v 0.259979337 0.178272679 0.486822844
v 0.23120971 0.178374454 0.487340331
v 0.225931093 0.178492293 0.481052727
v 0.172051847 0.178564981 0.480483502
v 0.177048907 0.178395882 0.488441825
v 0.0878167599 0.178436995 0.488674641
v 0.0849774703 0.178610548 0.480153114
v -0.0186946075 0.178628191 0.480056882
v 0.231813282 0.178271398 0.48807314
v -0.214367464 0.178395882 0.488441825
v -0.122367039 0.17861709 0.480190217
v -0.209442452 0.178576425 0.480548441
v -0.269134432 0.178327382 0.488053828
v -0.263323456 0.178505391 0.481126964
v -0.291628808 0.178403705 0.481139809
v -0.297970086 0.178225681 0.48747766
v -0.309415221 0.178084999 0.486680448
v -0.301977217 0.1782711 0.47980094
v -0.311151654 0.177948445 0.484828949
v -0.315371901 0.177416965 0.481736958
v -0.305303723 0.177815869 0.475652546
v -0.309428036 0.17710349 0.471612394
v -0.319312096 0.176638111 0.478475243
v -0.313599408 0.176256076 0.46837309
v -0.31493172 0.174867153 0.461082876
v -0.321168512 0.174707085 0.467522711
v -0.314921439 0.17158477 0.441878021
v -0.314350784 0.165463671 0.40618214
v -0.314001977 0.155558586 0.34941873
v -0.313877732 0.143728152 0.282128692
v -0.313980639 0.13183099 0.214852795
v -0.214374602 0.178339854 0.488461196
v -0.0186547618 0.178450689 0.488752216
v 0.2606363 0.178169742 0.487496912
v 0.260641903 0.178092286 0.487516671
v 0.272074252 0.177951679 0.48671937
v 0.274653912 0.17784366 0.485648125
v 0.276935905 0.177607626 0.484309673
v 0.283833236 0.17465125 0.467542619
v 0.28383866 0.174573869 0.467562795
v 0.284407675 0.171175525 0.447830468
v 0.284413189 0.171098128 0.447850794
v 0.284791201 0.164732352 0.411289155
v 0.284796774 0.164654821 0.411308825
v 0.284407675 0.112835884 0.116969869
v 0.28383863 0.109285511 0.097294338
v 0.283035755 0.107810736 0.0889315009
v 0.281967044 0.107360274 0.0863787532
vt 0.999370873 0.669649243
vt 0.999377191 0.669647217
vt 0.998997033 0.812133431
vt 0.999497056 0.500119925
vt 0.998992383 0.812129378
vt 0.998361528 0.900523067
vt 0.998983264 0.812119901
vt 0.999487758 0.500122666
vt 0.999361634 0.669645309
vt 0.999370933 0.330578446
vt 0.999375582 0.330570519
vt 0.999377251 0.330562472
vt 0.998368263 0.0995886326
vt 0.99899888 0.188042164
vt 0.998999119 0.188031793
vt 0.999503374 0.500102997
vt 0.999503493 0.500093102
vt 0.998999476 0.188018262
vt 0.998999834 0.18800211
vt 0.998369455 0.0995687246
vt 0.99836874 0.0995800495
vt 0.997424483 0.0518710017
vt 0.997425675 0.0518636107
vt 0.997426927 0.0518548489
vt 0.996106327 0.0315750241
vt 0.996104836 0.0315784812
vt 0.997423708 0.051876545
vt 0.996103644 0.0315810442
vt 0.997421622 0.0518829226
vt 0.998366356 0.0995969772
vt 0.99434787 0.0253762603
vt 0.994349718 0.0253751874
vt 0.994351804 0.0253740549
vt 0.99209404 0.019936204
vt 0.994346499 0.0253769755
vt 0.992092073 0.0199378729
vt 0.992090583 0.0199391842
vt 0.994344115 0.0253796577
vt 0.996101439 0.0315852165
vt 0.989333451 0.0152546167
vt 0.989341557 0.0152382255
vt 0.986085474 0.0112811327
vt 0.99609673 0.0315930843
vt 0.986083746 0.0112880468
vt 0.992088139 0.0199421048
vt 0.986082375 0.011293292
vt 0.000651079929 0.669636726
vt 0.00102385355 0.812103033
vt 0.000995522831 0.812118411
vt 0.00164516899 0.900489509
vt 0.00257805712 0.948135197
vt 0.00255602296 0.94818157
vt 0.0038675766 0.968425214
vt 0.00563067524 0.974560559
vt 0.00561698573 0.974601209
vt 0.00786698796 0.98005265
vt 0.00388554903 0.9683792
vt 0.00787646696 0.980018318
vt 0.0106248381 0.984749973
vt 0.0106185507 0.984778285
vt 0.0138726346 0.988776863
vt 0.986075103 0.98878324
vt 0.986079872 0.988788247
vt 0.98231411 0.992044151
vt 0.989333391 0.984785974
vt 0.989328504 0.984780729
vt 0.989319921 0.984769464
vt 0.986066341 0.988772213
vt 0.992083132 0.980050087
vt 0.992091894 0.980056703
vt 0.994347692 0.974601924
vt 0.992093861 0.980055869
vt 0.994349539 0.974601865
vt 0.996106148 0.968424141
vt 0.996104658 0.968423784
vt 0.99610132 0.968421161
vt 0.99742353 0.948180318
vt 0.997425497 0.948180795
vt 0.998368621 0.900530398
vt 0.998368084 0.900530815
vt 0.997421503 0.948177934
vt 0.998999059 0.812131643
vt 0.998999357 0.812129021
vt 0.998371065 0.900528193
vt 0.999377429 0.669636428
vt 0.998998761 0.81213367
vt 0.99937731 0.669642568
vt 0.998366237 0.900529087
vt 0.999503613 0.50008142
vt 0.999503374 0.500110507
vt 0.0138574485 0.0113073587
vt 0.0138545958 0.0112987757
vt 0.0176128093 0.00805741549
vt 0.010607467 0.015242815
vt 0.0106049115 0.0152617097
vt 0.0176235214 0.00808113813
vt 0.021890223 0.0055359602
vt 0.013864792 0.0113209486
vt 0.00787665136 0.019980967
vt 0.00786716305 0.019929409
vt 0.00560681289 0.0253791809
vt 0.00561715476 0.0253708959
vt 0.00388573133 0.0316290855
vt 0.00386773678 0.0315614343
vt 0.00255616801 0.0518348217
vt 0.00102396752 0.188095331
vt 0.0009956141 0.187965512
vt 0.00161970768 0.0995248556
vt 0.0016453187 0.0996462703
vt 0.000526843884 0.500124216
vt 0.000651141163 0.330599189
vt 0.500014186 0.00052022934
vt 0.675101399 0.000687599182
vt 0.82183969 0.00125056505
vt 0.675101519 0.000684857368
vt 0.675096214 0.000708222389
vt 0.324928403 0.00070810318
vt 0.178171843 0.00124299526
vt 0.178172082 0.00124692917
vt 0.0881152824 0.0021649003
vt 0.0881123245 0.00218403339
vt 0.088112846 0.00218063593
vt 0.0406975001 0.00357139111
vt 0.0406991467 0.00356447697
vt 0.0407010913 0.00355631113
vt 0.0218827575 0.00549006462
vt 0.0218783505 0.0055052042
vt 0.0406962484 0.00357663631
vt 0.0407094806 0.00360584259
vt 0.017618522 0.00803482533
vt 0.0176221654 0.00802433491
vt 0.0138605814 0.0112807155
vt 0.0138574028 0.0112876892
vt 0.0138549944 0.0112929344
vt 0.0218784511 0.00551199913
vt 0.992074788 0.0199611187
vt 0.994339347 0.0253862143
vt 0.989320099 0.0152749419
vt 0.994330704 0.02539891
vt 0.986075222 0.0113077164
vt 0.98608005 0.0112991333
vt 0.982330084 0.00805079937
vt 0.982331157 0.00804406404
vt 0.982335925 0.00801301003
vt 0.978080571 0.00549036264
vt 0.978077054 0.00551235676
vt 0.959280491 0.00356477499
vt 0.911883295 0.00218087435
vt 0.911882281 0.00216513872
vt 0.959280014 0.00357687473
vt 0.911883533 0.00218433142
vt 0.959278345 0.0035828352
vt 0.821839929 0.00124537945
vt 0.821839213 0.00124317408
vt 0.821838379 0.00124049187
vt 0.821840465 0.00124716759
vt 0.911882281 0.00218898058
vt 0.500012219 0.000496983528
vt 0.500011325 0.000496566296
vt 0.324919045 0.000682115555
vt 0.911878109 0.00219714642
vt 0.500012994 0.000497341156
vt 0.3249349 0.999249876
vt 0.324917018 0.999292791
vt 0.178195626 0.998710752
vt 0.500014186 0.999429584
vt 0.675089717 0.999249995
vt 0.675095975 0.99929285
vt 0.821817875 0.99871093
vt 0.911854982 0.99781251
vt 0.911881804 0.99784708
vt 0.959281445 0.996489942
vt 0.978047729 0.994563162
vt 0.978083849 0.994587183
vt 0.9592489 0.996461093
vt 0.982332468 0.99205637
vt 0.986085355 0.988785148
vt 0.989337146 0.984785855
vt 0.989341378 0.984782517
vt 0.989335775 0.984787047
vt 0.013877701 0.988752961
vt 0.0176369678 0.99202472
vt 0.0176302064 0.992046952
vt 0.0219045524 0.994562864
vt 0.0218922272 0.994587243
vt 0.0407053083 0.996489942
vt 0.0407242961 0.996460795
vt 0.0881160647 0.997847021
vt 0.0881400406 0.997812212
vt 0.0229791608 0.500186443
vt 0.000499546528 0.27663815
vt 0.000499516726 0.500152171
vt 0.00049957633 0.0531241894
vt 0.0371037647 0.133220434
vt 0.0460649244 0.500215173
vt 0.0692174509 0.355046928
vt 0.00150556117 0.0457482934
vt 0.00251154602 0.0383723974
vt 0.0901227742 0.229174078
vt 0.0953479707 0.362692118
vt 0.124592498 0.379620075
vt 0.123275779 0.27946341
vt 0.0640586764 0.231015265
vt 0.0533314422 0.149297774
vt 0.0386600457 0.0966598392
vt 0.0216687601 0.0598669052
vt 0.00351753086 0.0309965014
vt 0.00752812624 0.0193403959
vt 0.0465351269 0.0969685316
vt 0.0302991811 0.0542013049
vt 0.0666557625 0.148593843
vt 0.0105327368 0.0150601864
vt 0.0529675372 0.092195034
vt 0.0375540666 0.0437773466
vt 0.0754304975 0.136454225
vt 0.0589031726 0.0846453905
vt 0.999500275 0.500152051
vt 0.977059782 0.499931455
vt 0.999500334 0.723665953
vt 0.954804301 0.656692982
vt 0.96296823 0.86693424
vt 0.999500394 0.947179854
vt 0.936325133 0.230110049
vt 0.930882692 0.644934475
vt 0.998509169 0.954453409
vt 0.997517943 0.961726904
vt 0.980976462 0.930631101
vt 0.978396654 0.940196693
vt 0.996526718 0.969000459
vt 0.94676286 0.850838482
vt 0.961423159 0.903455257
vt 0.953561723 0.903134465
vt 0.969788313 0.945861459
vt 0.989541411 0.985020757
vt 0.936040938 0.769085288
vt 0.909995377 0.77092427
vt 0.933454633 0.851538122
vt 0.904763937 0.637241185
vt 0.924688816 0.863697469
vt 0.947138309 0.907927513
vt 0.94120729 0.91550982
vt 0.915185571 0.879467726
vt 0.899665117 0.890999973
vt 0.960175216 0.962773561
vt 0.98354739 0.99376744
vt 0.934822559 0.923556983
vt 0.930140615 0.932877719
vt 0.958636701 0.968903661
vt 0.978512287 0.995200634
vt 0.885762215 0.903707922
vt 0.973477125 0.996633887
vt 0.80872798 0.869664311
vt 0.949606776 0.972640812
vt 0.929317713 0.944280565
vt 0.88111192 0.923005223
vt 0.00245328248 0.961734653
vt 0.00146200508 0.95446074
vt 0.00344455987 0.969008625
vt 0.000470727682 0.947186768
vt 0.0104302466 0.985029757
vt 0.0164246559 0.993776917
vt 0.021460101 0.99521023
vt 0.0264955461 0.996643543
vt 0.0315309912 0.998076856
vt 0.0365664363 0.999510169
vt 0.268291384 0.999510288
vt 0.500016332 0.999510348
vt 0.731741309 0.999510407
vt 0.963466287 0.999510527
vt 0.968471408 0.998077214
vt 0.97347647 0.996643901
vt 0.978481531 0.995210588
vt 0.986052334 0.988753259
vt 0.983486652 0.993777275
vt 0.986491442 0.989403725
vt 0.99250102 0.980656505
vt 0.989306092 0.984750271
vt 0.995505869 0.976282954
vt 0.9920609 0.980018675
vt 0.992074609 0.980038404
vt 0.994392574 0.974670112
vt 0.996511936 0.969009042
vt 0.892013133 0.946507931
vt 0.968441963 0.998067081
vt 0.963406801 0.999500275
vt 0.809976876 0.938794971
vt 0.731695414 0.999500334
vt 0.797421336 0.907423258
vt 0.499873608 0.933386505
vt 0.499984026 0.999500394
vt 0.189796463 0.938897729
vt 0.268272638 0.999500394
vt 0.658105493 0.862002015
vt 0.644671261 0.819603205
vt 0.0365612209 0.999500394
vt 0.499835968 0.817977965
vt 0.338025093 0.899968922
vt 0.354996979 0.819699287
vt 0.341532558 0.862107038
vt 0.190909728 0.869865656
vt 0.202274293 0.907573879
vt 0.118639417 0.923164546
vt 0.113949887 0.903901339
vt 0.0696744919 0.933025956
vt 0.0705172792 0.944408715
vt 0.0315564424 0.9980672
vt 0.107800625 0.946622133
vt 0.0503225923 0.972703159
vt 0.0413046926 0.968974352
vt 0.0265516639 0.996633947
vt 0.910375059 0.228046775
vt 0.904962182 0.361763
vt 0.875509739 0.620295882
vt 0.874443948 0.499539018
vt 0.836992145 0.49963516
vt 0.875690937 0.378766358
vt 0.838020682 0.396991551
vt 0.877164304 0.27843225
vt 0.840440035 0.308677673
vt 0.786735594 0.408191085
vt 0.876777411 0.218991041
vt 0.7904737 0.326922059
vt 0.718805492 0.337136567
vt 0.796668768 0.266270339
vt 0.843724728 0.249040782
vt 0.901882231 0.179859161
vt 0.925094604 0.135383308
vt 0.865100861 0.189277351
vt 0.915610909 0.119621038
vt 0.900090933 0.108136117
vt 0.863858044 0.141727686
vt 0.809207499 0.12945509
vt 0.83270514 0.178125799
vt 0.840745568 0.218459487
vt 0.809389591 0.219062686
vt 0.764427185 0.177618623
vt 0.739671588 0.22388202
vt 0.64510417 0.179838061
vt 0.0135373473 0.0107799768
vt 0.0986935124 0.181073785
vt 0.0414376967 0.0312920213
vt 0.123762034 0.220148504
vt 0.159914032 0.30950737
vt 0.0215466544 0.00499975681
vt 0.0699628294 0.0673166513
vt 0.026551351 0.00349968672
vt 0.065287903 0.0766257048
vt 0.0504450276 0.0275062323
vt 0.100455984 0.109175861
vt 0.0707690045 0.0558986664
vt 0.0849368498 0.120705903
vt 0.135484233 0.190469265
vt 0.114349961 0.0964548588
vt 0.11898084 0.0771337748
vt 0.108052313 0.0536037683
vt 0.0315560475 0.00199961662
vt 0.036560744 0.000499606133
vt 0.26827234 0.000499606133
vt 0.202672616 0.0926314592
vt 0.191388875 0.130428314
vt 0.330531538 0.0653290749
vt 0.499983966 0.000499606133
vt 0.810265124 0.0607432723
vt 0.731695533 0.000499606133
vt 0.963407159 0.000499606133
vt 0.13675344 0.142887235
vt 0.167875364 0.179219425
vt 0.968442202 0.00199961662
vt 0.949729681 0.0272051096
vt 0.973477304 0.00349968672
vt 0.662067056 0.0995973349
vt 0.89226532 0.0530517697
vt 0.958770156 0.0309504867
vt 0.978512406 0.00499975681
vt 0.658575952 0.137391865
vt 0.92956984 0.0552791357
vt 0.960326076 0.0370537043
vt 0.881453753 0.0763636827
vt 0.93042922 0.0665997267
vt 0.98654443 0.0107799768
vt 0.797819972 0.0919033289
vt 0.992538393 0.0193403959
vt 0.969949543 0.0537878871
vt 0.886162579 0.0955199003
vt 0.935130715 0.075848937
vt 0.941519618 0.0838461518
vt 0.947441399 0.0914105177
vt 0.978529811 0.0595253706
vt 0.953841388 0.0962380767
vt 0.996526599 0.0309965014
vt 0.997517824 0.0383723974
vt 0.961664796 0.0960244536
vt 0.981093824 0.0691816807
vt 0.963183522 0.132611752
vt 0.998509049 0.045748353
vt 0.999500215 0.053124249
vt 0.947063327 0.148463905
vt 0.999500275 0.27663815
vt 0.933819532 0.147603929
vt 0.982337832 0.992046833
vt 0.986087441 0.988782585
vt 0.989346683 0.984778345
vt 0.989344001 0.98478049
vt 0.992096186 0.980054975
vt 0.992101431 0.980052829
vt 0.994356453 0.974601448
vt 0.996109903 0.968425035
vt 0.996111989 0.968425572
vt 0.997429729 0.948181927
vt 0.997428298 0.94818151
vt 0.996107936 0.968424559
vt 0.998372078 0.900527358
vt 0.999000311 0.812122345
vt 0.998370171 0.900529027
vt 0.999377847 0.669621229
vt 0.999000847 0.18796593
vt 0.999503672 0.500068545
vt 0.999377608 0.669629216
vt 0.999377787 0.330508351
vt 0.999000311 0.187984407
vt 0.999377608 0.330524981
vt 0.998371184 0.0995405912
vt 0.997429907 0.0518351793
vt 0.997428417 0.0518451929
vt 0.99837029 0.0995553732
vt 0.996110082 0.0315664411
vt 0.996112108 0.0315617323
vt 0.994356632 0.0253712535
vt 0.994354188 0.0253726244
vt 0.996108115 0.0315709114
vt 0.992098808 0.0199320316
vt 0.989346623 0.0152272582
vt 0.989344001 0.0152329206
vt 0.992096305 0.0199341774
vt 0.986089706 0.0112637877
vt 0.978083849 0.00545716286
vt 0.986087441 0.0112728477
vt 0.978082716 0.00546896458
vt 0.959281445 0.00353819132
vt 0.959281147 0.00354766846
vt 0.821836352 0.0012345314
vt 0.675097466 0.000681042671
vt 0.324918151 0.000680923462
vt 0.178171277 0.00123423338
vt 0.0407054834 0.0035378933
vt 0.0407032371 0.00354731083
vt 0.0218889862 0.00546860695
vt 0.021892406 0.00545680523
vt 0.0138728134 0.011253953
vt 0.0176261812 0.0080126524
vt 0.0138643375 0.0112725496
vt 0.286867321 0.500049591
vt 0.285515904 0.414855778
vt 0.213422641 0.408646226
vt 0.385738581 0.418570757
vt 0.281394035 0.337502062
vt 0.383182049 0.343465447
vt 0.500071824 0.345398664
vt 0.209795758 0.327518165
vt 0.378914148 0.281046033
vt 0.500136018 0.282699347
vt 0.621370435 0.280786216
vt 0.616975605 0.343292236
vt 0.162200809 0.397661209
vt 0.163086101 0.500151038
vt 0.125656307 0.500199199
vt 0.124411322 0.620781183
vt 0.162059546 0.60264647
vt 0.159646049 0.690817177
vt 0.122942671 0.720946908
vt 0.0897431523 0.771279693
vt 0.123335473 0.780277073
vt 0.156370521 0.750332654
vt 0.20340918 0.733227253
vt 0.159357071 0.780858278
vt 0.190705657 0.780310631
vt 0.0951498151 0.637767315
vt 0.135015279 0.809949398
vt 0.167407617 0.82114166
vt 0.260414451 0.775611997
vt 0.235679269 0.821757197
vt 0.13626565 0.857512474
vt 0.0982412323 0.819375753
vt 0.100030348 0.891215026
vt 0.0750249922 0.863943815
vt 0.084511742 0.879698277
vt 0.0585909896 0.915676713
vt 0.0649800003 0.923717678
vt 0.0526646227 0.908096015
vt 0.0373929217 0.956488788
vt 0.0257555135 0.942499578
vt 0.0075282082 0.980647504
vt 0.013537474 0.989394128
vt 0.0165421069 0.9937675
vt 0.00452357531 0.976274133
vt 0.0215468854 0.995200694
vt 0.0462555513 0.90329659
vt 0.0215355493 0.940267444
vt 0.00351754576 0.969000638
vt 0.00251151621 0.961727142
vt 0.0662911087 0.851786554
vt 0.0384184271 0.903599381
vt 0.0530310608 0.851061642
vt 0.0368884131 0.867105186
vt 0.00150548667 0.954453647
vt 0.000499457121 0.947180152
vt 0.000499486923 0.723666191
vt 0.0637746155 0.769412994
vt 0.725815296 0.275309086
vt 0.629939675 0.227461159
vt 0.500205576 0.229030967
vt 0.500262737 0.181745529
vt 0.355429739 0.180302501
vt 0.370481223 0.227821946
vt 0.260776728 0.224565685
vt 0.342002869 0.137899876
vt 0.236126766 0.178472638
vt 0.274506748 0.275823772
vt 0.191102594 0.219993353
vt 0.203715891 0.26703012
vt 0.156736135 0.250020027
vt 0.159770966 0.219503522
vt 0.718649924 0.662500024
vt 0.714516401 0.585114777
vt 0.614280224 0.58140552
vt 0.616850257 0.656505167
vt 0.78663218 0.591300547
vt 0.713161111 0.499871254
vt 0.785454988 0.49975729
vt 0.613438845 0.499942899
vt 0.499956608 0.654522181
vt 0.499983042 0.580183983
vt 0.500004768 0.499986768
vt 0.614334524 0.418458104
vt 0.714589119 0.414601207
vt 0.500031233 0.41977644
vt 0.837879419 0.602261424
vt 0.840171933 0.690525711
vt 0.790267646 0.672500789
vt 0.796361804 0.733037889
vt 0.725556612 0.724195182
vt 0.621140718 0.718900681
vt 0.739309013 0.775466561
vt 0.843358934 0.750083566
vt 0.876350641 0.779987097
vt 0.876831055 0.720593214
vt 0.840331435 0.780621648
vt 0.808992386 0.780110061
vt 0.832237124 0.820915461
vt 0.864631653 0.809690237
vt 0.901429653 0.819080889
vt 0.763979495 0.821580529
vt 0.863369942 0.857272625
vt 0.629598618 0.772098064
vt 0.499872148 0.770751655
vt 0.499916017 0.717155576
vt 0.378684521 0.718960881
vt 0.38305673 0.656557083
vt 0.385684252 0.581461132
vt 0.386575431 0.500017524
vt 0.281238496 0.662615955
vt 0.285443187 0.585248113
vt 0.370140344 0.772174358
vt 0.274248242 0.724317789
vt 0.213319227 0.591556013
vt 0.209589809 0.672704756
vt 0.214596987 0.500097692
vt 0.994330585 0.97458154
vt 0.99608779 0.968401372
vt 0.997407854 0.948157787
vt 0.997518063 0.961735129
vt 0.998524129 0.954461217
vt 0.998337626 0.900489926
vt 0.998968005 0.812103391
vt 0.999530196 0.947187304
vt 0.999530196 0.723660707
vt 0.999530196 0.50013417
vt 0.9993577 0.323858976
vt 0.999530196 0.276607633
vt 0.999530196 0.0530810356
vt 0.998337746 0.0996466279
vt 0.998524189 0.0457047224
vt 0.997518122 0.0383284092
vt 0.997393489 0.0519315004
vt 0.996512055 0.030952096
vt 0.996087968 0.0316070914
vt 0.998968124 0.188095689
vt 0.992501259 0.0192953944
vt 0.994316876 0.0254197121
vt 0.992105842 0.0199106932
vt 0.989496469 0.0150149465
vt 0.98649168 0.0107344985
vt 0.986052513 0.0113420486
vt 0.978047967 0.00555801392
vt 0.982374907 0.00799906254
vt 0.978481889 0.00495386124
vt 0.973476887 0.00345373154
vt 0.961016119 0.00362253189
vt 0.918921471 0.0022149086
vt 0.968471885 0.00195360184
vt 0.963466883 0.000453472137
vt 0.821818113 0.00129413605
vt 0.675089896 0.000730514526
vt 0.731741726 0.000453412533
vt 0.50001657 0.000453352928
vt 0.911869526 0.00221121311
vt 0.178195715 0.00129389763
vt 0.268291384 0.000453293324
vt 0.0365661979 0.000453233719
vt 0.0881401375 0.00223314762
vt 0.0315308422 0.00195336342
vt 0.0264954865 0.00345349312
vt 0.0407244042 0.0036278367
vt 0.0219046809 0.00555771589
vt 0.0214601308 0.00495362282
vt 0.0175596159 0.00799882412
vt 0.0106104743 0.0152749419
vt 0.0134276003 0.0107342005
vt 0.00743325055 0.0192950964
vt 0.00563086104 0.0254192948
vt 0.00344479829 0.0309518576
vt 0.00245352089 0.0383281708
vt 0.00257822871 0.0519311428
vt 0.0014622435 0.045704484
vt 0.000470966101 0.0530808568
vt 0.000470906496 0.276607335
vt 0.000470846891 0.500133812
vt 0.000470787287 0.72366029
vt 0.178183973 0.0012716651
vt 0.500014305 0.000542640686
vt 0.959264398 0.00360614061
vt 0.959273577 0.00359177589
vt 0.978072226 0.00552177429
vt 0.982314229 0.00808137655
vt 0.98606652 0.0113213062
vt 0.997408032 0.051907897
vt 0.997416973 0.051892519
vt 0.998352587 0.0996234417
vt 0.998361647 0.0996077061
vt 0.998983204 0.188076019
vt 0.998992443 0.188061953
vt 0.998352468 0.900510669
vt 0.997416735 0.948171139
vt 0.996096551 0.968414485
vt 0.994339168 0.974593878
f 1/1 2/2 3/3
f 4/4 2/2 1/1
f 3/3 5/5 1/1
f 6/6 5/5 3/3
f 1/1 5/5 7/7
f 7/7 5/5 6/6
f 8/8 4/4 1/1
f 7/7 9/9 1/1
f 1/1 9/9 8/8
f 10/10 4/4 8/8
f 10/10 11/11 4/4
f 4/4 11/11 12/12
f 12/12 11/11 13/13
f 13/13 11/11 10/10
f 13/13 14/14 12/12
f 12/12 14/14 15/15
f 15/15 16/16 12/12
f 17/17 16/16 15/15
f 15/15 18/18 17/17
f 17/17 18/18 19/19
f 19/19 18/18 20/20
f 20/20 18/18 15/15
f 15/15 14/14 13/13
f 15/15 21/21 20/20
f 13/13 21/21 15/15
f 20/20 21/21 22/22
f 22/22 21/21 13/13
f 22/22 23/23 20/20
f 20/20 23/23 24/24
f 24/24 23/23 25/25
f 25/25 23/23 22/22
f 22/22 26/26 25/25
f 13/13 27/27 22/22
f 28/28 26/26 22/22
f 22/22 27/27 28/28
f 29/29 27/27 13/13
f 13/13 30/30 29/29
f 28/28 27/27 29/29
f 25/25 26/26 31/31
f 31/31 26/26 28/28
f 31/31 32/32 25/25
f 25/25 32/32 33/33
f 33/33 32/32 34/34
f 34/34 32/32 31/31
f 28/28 35/35 31/31
f 31/31 36/36 34/34
f 31/31 35/35 37/37
f 37/37 36/36 31/31
f 38/38 35/35 28/28
f 37/37 35/35 38/38
f 28/28 39/39 38/38
f 29/29 39/39 28/28
f 34/34 36/36 40/40
f 40/40 36/36 37/37
f 34/34 40/40 41/41
f 41/41 40/40 42/42
f 43/43 39/39 29/29
f 38/38 39/39 43/43
f 40/40 44/44 42/42
f 38/38 45/45 37/37
f 46/46 44/44 40/40
f 37/37 45/45 40/40
f 47/47 48/48 49/49
f 49/49 48/48 50/50
f 51/51 52/52 50/50
f 53/53 52/52 51/51
f 54/54 55/55 53/53
f 56/56 55/55 54/54
f 53/53 57/57 54/54
f 51/51 57/57 53/53
f 54/54 58/58 56/56
f 59/59 60/60 56/56
f 56/56 58/58 59/59
f 61/61 60/60 59/59
f 62/62 63/63 64/64
f 65/65 63/63 62/62
f 62/62 66/66 65/65
f 67/67 66/66 62/62
f 64/64 68/68 62/62
f 62/62 68/68 67/67
f 65/65 66/66 69/69
f 69/69 66/66 67/67
f 69/69 70/70 65/65
f 71/71 70/70 69/69
f 72/72 70/70 71/71
f 71/71 73/73 72/72
f 74/74 73/73 71/71
f 71/71 75/75 74/74
f 76/76 75/75 71/71
f 74/74 75/75 77/77
f 77/77 75/75 76/76
f 77/77 78/78 74/74
f 79/79 78/78 77/77
f 80/80 79/79 77/77
f 81/81 77/77 76/76
f 80/80 77/77 81/81
f 82/82 79/79 80/80
f 82/82 83/83 79/79
f 79/79 83/83 84/84
f 84/84 83/83 85/85
f 85/85 83/83 82/82
f 80/80 86/86 82/82
f 82/82 87/87 85/85
f 82/82 86/86 2/2
f 2/2 87/87 82/82
f 3/3 86/86 80/80
f 2/2 86/86 3/3
f 80/80 88/88 3/3
f 81/81 88/88 80/80
f 85/85 87/87 16/16
f 16/16 87/87 2/2
f 16/16 17/17 85/85
f 85/85 17/17 89/89
f 6/6 88/88 81/81
f 3/3 88/88 6/6
f 2/2 90/90 16/16
f 16/16 90/90 12/12
f 4/4 90/90 2/2
f 12/12 90/90 4/4
f 91/91 92/92 93/93
f 94/94 92/92 91/91
f 91/91 95/95 94/94
f 91/91 93/93 96/96
f 96/96 93/93 97/97
f 96/96 98/98 91/91
f 91/91 98/98 95/95
f 94/94 95/95 99/99
f 99/99 100/100 94/94
f 101/101 100/100 99/99
f 101/101 102/102 100/100
f 103/103 102/102 101/101
f 103/103 104/104 102/102
f 105/105 104/104 103/103
f 106/106 107/107 108/108
f 108/108 109/109 106/106
f 105/105 109/109 108/108
f 110/110 47/47 49/49
f 106/106 111/111 107/107
f 107/107 111/111 110/110
f 112/112 113/113 114/114
f 115/115 113/113 112/112
f 114/114 116/116 112/112
f 115/115 112/112 117/117
f 118/118 117/117 119/119
f 120/120 118/118 119/119
f 121/121 119/119 117/117
f 119/119 122/122 120/120
f 121/121 122/122 119/119
f 120/120 122/122 123/123
f 123/123 122/122 121/121
f 123/123 124/124 120/120
f 120/120 124/124 125/125
f 125/125 124/124 126/126
f 126/126 124/124 123/123
f 123/123 127/127 126/126
f 121/121 128/128 123/123
f 123/123 128/128 127/127
f 129/129 128/128 121/121
f 127/127 128/128 129/129
f 126/126 127/127 93/93
f 93/93 130/130 126/126
f 126/126 130/130 131/131
f 131/131 130/130 132/132
f 132/132 130/130 93/93
f 93/93 133/133 132/132
f 134/134 133/133 93/93
f 127/127 135/135 93/93
f 129/129 135/135 127/127
f 132/132 133/133 94/94
f 94/94 133/133 134/134
f 97/97 135/135 129/129
f 93/93 135/135 97/97
f 93/93 92/92 134/134
f 134/134 92/92 94/94
f 136/136 45/45 38/38
f 40/40 45/45 136/136
f 38/38 137/137 136/136
f 43/43 137/137 38/38
f 136/136 138/138 40/40
f 136/136 137/137 139/139
f 139/139 137/137 43/43
f 40/40 138/138 140/140
f 140/140 141/141 40/40
f 40/40 141/141 46/46
f 46/46 141/141 142/142
f 142/142 141/141 140/140
f 46/46 142/142 143/143
f 143/143 44/44 46/46
f 42/42 44/44 143/143
f 143/143 144/144 42/42
f 145/145 144/144 143/143
f 143/143 142/142 145/145
f 142/142 146/146 145/145
f 147/147 148/148 149/149
f 145/145 150/150 147/147
f 151/151 148/148 147/147
f 147/147 150/150 151/151
f 152/152 150/150 145/145
f 145/145 146/146 152/152
f 151/151 150/150 152/152
f 149/149 148/148 153/153
f 153/153 148/148 151/151
f 153/153 154/154 149/149
f 149/149 154/154 155/155
f 155/155 154/154 153/153
f 151/151 156/156 153/153
f 153/153 156/156 115/115
f 114/114 156/156 151/151
f 115/115 156/156 114/114
f 151/151 157/157 114/114
f 152/152 157/157 151/151
f 153/153 115/115 158/158
f 158/158 159/159 153/153
f 153/153 159/159 160/160
f 160/160 159/159 118/118
f 118/118 159/159 158/158
f 161/161 157/157 152/152
f 114/114 157/157 161/161
f 158/158 117/117 118/118
f 114/114 113/113 115/115
f 115/115 162/162 158/158
f 158/158 162/162 117/117
f 117/117 162/162 115/115
f 163/163 164/164 165/165
f 166/166 164/164 163/163
f 166/166 167/167 168/168
f 168/168 167/167 169/169
f 169/169 170/170 171/171
f 172/172 173/173 174/174
f 171/171 170/170 175/175
f 175/175 172/172 171/171
f 173/173 172/172 175/175
f 174/174 173/173 176/176
f 173/173 64/64 176/176
f 176/176 63/63 177/177
f 176/176 64/64 63/63
f 177/177 63/63 178/178
f 177/177 178/178 179/179
f 179/179 178/178 72/72
f 178/178 70/70 72/72
f 63/63 180/180 178/178
f 178/178 180/180 70/70
f 65/65 180/180 63/63
f 70/70 180/180 65/65
f 181/181 61/61 59/59
f 182/182 61/61 181/181
f 61/61 182/182 183/183
f 183/183 184/184 185/185
f 185/185 184/184 186/186
f 183/183 182/182 184/184
f 187/187 186/186 184/184
f 188/188 186/186 187/187
f 189/189 188/188 187/187
f 165/165 188/188 189/189
f 181/181 59/59 58/58
f 58/58 54/54 57/57
f 190/190 191/191 192/192
f 193/193 191/191 190/190
f 190/190 194/194 193/193
f 190/190 195/195 194/194
f 194/194 195/195 196/196
f 194/194 197/197 193/193
f 198/198 197/197 194/194
f 199/199 200/200 201/201
f 196/196 200/200 199/199
f 201/201 202/202 199/199
f 196/196 203/203 194/194
f 199/199 203/203 196/196
f 194/194 203/203 204/204
f 204/204 203/203 199/199
f 205/205 194/194 204/204
f 205/205 198/198 194/194
f 206/206 198/198 205/205
f 206/206 207/207 198/198
f 208/208 207/207 206/206
f 206/206 205/205 209/209
f 209/209 205/205 204/204
f 208/208 206/206 210/210
f 210/210 206/206 209/209
f 204/204 211/211 209/209
f 199/199 211/211 204/204
f 212/212 208/208 210/210
f 209/209 213/213 210/210
f 210/210 214/214 212/212
f 209/209 211/211 215/215
f 215/215 213/213 209/209
f 215/215 211/211 199/199
f 210/210 213/213 216/216
f 216/216 214/214 210/210
f 216/216 213/213 215/215
f 217/217 218/218 219/219
f 219/219 218/218 220/220
f 219/219 221/221 222/222
f 223/223 224/224 220/220
f 219/219 220/220 221/221
f 221/221 220/220 224/224
f 221/221 225/225 222/222
f 226/226 225/225 221/221
f 221/221 227/227 226/226
f 226/226 227/227 228/228
f 228/228 229/229 226/226
f 227/227 221/221 230/230
f 227/227 231/231 228/228
f 230/230 231/231 227/227
f 228/228 231/231 232/232
f 232/232 231/231 230/230
f 229/229 228/228 233/233
f 233/233 228/228 232/232
f 233/233 234/234 229/229
f 221/221 235/235 230/230
f 224/224 235/235 221/221
f 236/236 235/235 224/224
f 230/230 235/235 236/236
f 236/236 237/237 230/230
f 230/230 237/237 232/232
f 224/224 238/238 236/236
f 239/239 237/237 236/236
f 232/232 237/237 239/239
f 232/232 240/240 233/233
f 239/239 240/240 232/232
f 233/233 240/240 241/241
f 241/241 240/240 239/239
f 239/239 242/242 241/241
f 241/241 242/242 243/243
f 244/244 233/233 241/241
f 234/234 233/233 244/244
f 244/244 245/245 234/234
f 243/243 246/246 241/241
f 241/241 246/246 244/244
f 247/247 246/246 243/243
f 244/244 246/246 247/247
f 245/245 244/244 248/248
f 248/248 244/244 247/247
f 248/248 249/249 245/245
f 243/243 250/250 247/247
f 251/251 249/249 248/248
f 252/252 250/250 243/243
f 248/248 253/253 251/251
f 247/247 254/254 248/248
f 247/247 250/250 255/255
f 255/255 254/254 247/247
f 255/255 250/250 252/252
f 248/248 254/254 253/253
f 253/253 254/254 255/255
f 256/256 51/51 50/50
f 57/57 51/51 256/256
f 50/50 257/257 256/256
f 256/256 258/258 57/57
f 259/259 257/257 50/50
f 57/57 258/258 58/58
f 258/258 260/260 58/58
f 50/50 48/48 259/259
f 261/261 58/58 260/260
f 261/261 181/181 58/58
f 182/182 181/181 261/261
f 182/182 261/261 262/262
f 262/262 184/184 182/182
f 187/187 184/184 262/262
f 262/262 263/263 187/187
f 187/187 263/263 189/189
f 263/263 264/264 189/189
f 189/189 264/264 265/265
f 189/189 265/265 165/165
f 265/265 266/266 267/267
f 267/267 167/167 265/265
f 167/167 165/165 265/265
f 163/163 165/165 167/167
f 267/267 268/268 167/167
f 167/167 166/166 163/163
f 167/167 268/268 269/269
f 167/167 269/269 169/169
f 169/169 269/269 170/170
f 269/269 270/270 170/170
f 170/170 270/270 271/271
f 271/271 175/175 170/170
f 272/272 175/175 271/271
f 272/272 173/173 175/175
f 273/273 173/173 272/272
f 272/272 274/274 273/273
f 274/274 275/275 273/273
f 273/273 64/64 173/173
f 273/273 275/275 276/276
f 273/273 68/68 64/64
f 276/276 277/277 273/273
f 67/67 68/68 273/273
f 278/278 277/277 276/276
f 273/273 277/277 67/67
f 278/278 279/279 277/277
f 67/67 277/277 279/279
f 279/279 280/280 67/67
f 67/67 280/280 69/69
f 281/281 279/279 278/278
f 282/282 281/281 278/278
f 251/251 253/253 283/283
f 283/283 284/284 251/251
f 255/255 283/283 253/253
f 285/285 284/284 283/283
f 286/286 283/283 255/255
f 285/285 283/283 287/287
f 287/287 283/283 286/286
f 255/255 288/288 286/286
f 252/252 288/288 255/255
f 287/287 286/286 289/289
f 289/289 286/286 288/288
f 290/290 287/287 291/291
f 291/291 287/287 289/289
f 291/291 292/292 290/290
f 252/252 293/293 288/288
f 294/294 293/293 252/252
f 295/295 292/292 291/291
f 294/294 296/296 293/293
f 288/288 297/297 289/289
f 293/293 297/297 288/288
f 293/293 296/296 298/298
f 298/298 299/299 293/293
f 293/293 299/299 297/297
f 300/300 299/299 298/298
f 297/297 299/299 300/300
f 297/297 291/291 289/289
f 300/300 301/301 297/297
f 297/297 301/301 291/291
f 302/302 301/301 300/300
f 291/291 301/301 302/302
f 300/300 303/303 302/302
f 302/302 303/303 304/304
f 304/304 305/305 302/302
f 295/295 291/291 306/306
f 302/302 307/307 291/291
f 291/291 307/307 306/306
f 308/308 307/307 302/302
f 302/302 305/305 308/308
f 306/306 307/307 308/308
f 308/308 305/305 309/309
f 306/306 308/308 310/310
f 310/310 308/308 309/309
f 311/311 312/312 223/223
f 312/312 224/224 223/223
f 312/312 238/238 224/224
f 313/313 238/238 312/312
f 312/312 314/314 313/313
f 313/313 314/314 315/315
f 316/316 314/314 312/312
f 315/315 314/314 316/316
f 316/316 312/312 311/311
f 316/316 317/317 315/315
f 311/311 318/318 316/316
f 319/319 317/317 316/316
f 316/316 318/318 319/319
f 320/320 317/317 319/319
f 321/321 318/318 311/311
f 319/319 318/318 321/321
f 319/319 322/322 320/320
f 320/320 322/322 323/323
f 324/324 322/322 319/319
f 323/323 322/322 324/324
f 321/321 325/325 319/319
f 319/319 325/325 324/324
f 311/311 326/326 321/321
f 327/327 326/326 311/311
f 328/328 326/326 327/327
f 321/321 326/326 328/328
f 327/327 329/329 328/328
f 328/328 329/329 330/330
f 330/330 331/331 328/328
f 332/332 331/331 330/330
f 328/328 331/331 333/333
f 333/333 331/331 332/332
f 321/321 328/328 334/334
f 334/334 325/325 321/321
f 334/334 328/328 333/333
f 324/324 325/325 334/334
f 333/333 335/335 334/334
f 334/334 335/335 324/324
f 332/332 336/336 333/333
f 337/337 335/335 333/333
f 324/324 335/335 337/337
f 333/333 336/336 337/337
f 338/338 336/336 332/332
f 337/337 336/336 338/338
f 214/214 339/339 212/212
f 199/199 340/340 215/215
f 214/214 341/341 339/339
f 342/342 340/340 199/199
f 199/199 202/202 342/342
f 342/342 202/202 343/343
f 341/341 344/344 339/339
f 345/345 341/341 214/214
f 346/346 344/344 341/341
f 214/214 347/347 345/345
f 216/216 347/347 214/214
f 341/341 348/348 346/346
f 349/349 347/347 216/216
f 345/345 347/347 349/349
f 345/345 350/350 341/341
f 216/216 351/351 349/349
f 215/215 351/351 216/216
f 352/352 351/351 215/215
f 349/349 351/351 352/352
f 215/215 340/340 352/352
f 349/349 353/353 345/345
f 341/341 350/350 348/348
f 354/354 350/350 345/345
f 348/348 350/350 354/354
f 345/345 353/353 354/354
f 346/346 348/348 355/355
f 355/355 356/356 346/346
f 357/357 356/356 355/355
f 354/354 355/355 348/348
f 357/357 355/355 358/358
f 354/354 359/359 355/355
f 360/360 359/359 354/354
f 354/354 353/353 360/360
f 355/355 361/361 358/358
f 359/359 361/361 355/355
f 360/360 353/353 349/349
f 362/362 358/358 363/363
f 363/363 358/358 361/361
f 363/363 364/364 362/362
f 365/365 364/364 363/363
f 349/349 366/366 360/360
f 352/352 366/366 349/349
f 367/367 366/366 352/352
f 360/360 366/366 367/367
f 365/365 363/363 368/368
f 368/368 369/369 370/370
f 371/371 363/363 361/361
f 363/363 372/372 368/368
f 359/359 371/371 361/361
f 370/370 369/369 373/373
f 373/373 374/374 370/370
f 368/368 372/372 369/369
f 375/375 371/371 359/359
f 369/369 376/376 373/373
f 373/373 377/377 374/374
f 369/369 372/372 378/378
f 378/378 376/376 369/369
f 378/378 372/372 363/363
f 373/373 376/376 379/379
f 379/379 377/377 373/373
f 379/379 376/376 378/378
f 377/377 380/380 374/374
f 363/363 381/381 378/378
f 371/371 381/381 363/363
f 382/382 380/380 377/377
f 332/332 381/381 371/371
f 378/378 381/381 332/332
f 377/377 383/383 382/382
f 378/378 384/384 379/379
f 332/332 384/384 378/378
f 379/379 385/385 377/377
f 371/371 375/375 332/332
f 379/379 384/384 330/330
f 330/330 385/385 379/379
f 330/330 384/384 332/332
f 377/377 385/385 386/386
f 386/386 383/383 377/377
f 386/386 385/385 330/330
f 386/386 387/387 383/383
f 383/383 388/388 382/382
f 330/330 329/329 386/386
f 383/383 387/387 389/389
f 389/389 388/388 383/383
f 327/327 387/387 386/386
f 386/386 329/329 327/327
f 389/389 387/387 327/327
f 388/388 390/390 382/382
f 391/391 390/390 388/388
f 389/389 392/392 388/388
f 388/388 393/393 391/391
f 388/388 392/392 393/393
f 391/391 393/393 394/394
f 394/394 395/395 391/391
f 396/396 395/395 394/394
f 397/397 392/392 389/389
f 393/393 392/392 397/397
f 397/397 394/394 393/393
f 218/218 396/396 394/394
f 218/218 398/398 396/396
f 389/389 399/399 397/397
f 217/217 398/398 218/218
f 327/327 399/399 389/389
f 311/311 399/399 327/327
f 397/397 399/399 311/311
f 397/397 223/223 394/394
f 311/311 223/223 397/397
f 218/218 394/394 220/220
f 220/220 394/394 223/223
f 168/168 169/169 171/171
f 166/166 168/168 164/164
f 174/174 176/176 400/400
f 400/400 176/176 401/401
f 401/401 402/402 400/400
f 401/401 403/403 402/402
f 179/179 403/403 401/401
f 402/402 403/403 404/404
f 404/404 403/403 179/179
f 404/404 405/405 402/402
f 406/406 405/405 404/404
f 177/177 401/401 176/176
f 179/179 401/401 177/177
f 404/404 73/73 406/406
f 406/406 73/73 407/407
f 407/407 408/408 406/406
f 409/409 408/408 407/407
f 72/72 404/404 179/179
f 73/73 404/404 72/72
f 407/407 410/410 409/409
f 73/73 411/411 407/407
f 409/409 410/410 84/84
f 84/84 412/412 409/409
f 78/78 410/410 407/407
f 407/407 411/411 78/78
f 84/84 410/410 78/78
f 74/74 411/411 73/73
f 78/78 411/411 74/74
f 84/84 413/413 412/412
f 78/78 414/414 84/84
f 412/412 413/413 415/415
f 415/415 416/416 412/412
f 415/415 413/413 84/84
f 79/79 414/414 78/78
f 84/84 414/414 79/79
f 415/415 417/417 416/416
f 84/84 418/418 415/415
f 416/416 417/417 419/419
f 89/89 417/417 415/415
f 415/415 418/418 89/89
f 419/419 417/417 89/89
f 85/85 418/418 84/84
f 89/89 418/418 85/85
f 419/419 420/420 416/416
f 89/89 421/421 419/419
f 416/416 420/420 422/422
f 422/422 423/423 416/416
f 19/19 420/420 419/419
f 419/419 421/421 19/19
f 422/422 420/420 19/19
f 17/17 421/421 89/89
f 19/19 421/421 17/17
f 422/422 424/424 423/423
f 19/19 425/425 422/422
f 423/423 424/424 426/426
f 426/426 427/427 423/423
f 24/24 424/424 422/422
f 422/422 425/425 24/24
f 426/426 424/424 24/24
f 428/428 427/427 426/426
f 20/20 425/425 19/19
f 24/24 425/425 20/20
f 426/426 429/429 428/428
f 24/24 430/430 426/426
f 428/428 429/429 431/431
f 431/431 432/432 428/428
f 33/33 429/429 426/426
f 426/426 430/430 33/33
f 431/431 429/429 33/33
f 25/25 430/430 24/24
f 33/33 430/430 25/25
f 431/431 433/433 432/432
f 33/33 434/434 431/431
f 432/432 433/433 435/435
f 41/41 433/433 431/431
f 431/431 434/434 41/41
f 435/435 433/433 41/41
f 436/436 432/432 435/435
f 34/34 434/434 33/33
f 41/41 434/434 34/34
f 435/435 144/144 436/436
f 41/41 437/437 435/435
f 436/436 144/144 438/438
f 435/435 437/437 144/144
f 439/439 436/436 438/438
f 42/42 437/437 41/41
f 144/144 437/437 42/42
f 438/438 440/440 439/439
f 144/144 145/145 438/438
f 439/439 440/440 149/149
f 147/147 440/440 438/438
f 438/438 145/145 147/147
f 149/149 440/440 147/147
f 441/441 439/439 149/149
f 155/155 441/441 149/149
f 442/442 441/441 155/155
f 442/442 160/160 441/441
f 441/441 160/160 443/443
f 443/443 444/444 441/441
f 442/442 155/155 160/160
f 160/160 155/155 153/153
f 443/443 118/118 444/444
f 444/444 118/118 120/120
f 120/120 445/445 444/444
f 443/443 160/160 118/118
f 120/120 446/446 445/445
f 445/445 446/446 447/447
f 447/447 448/448 445/445
f 125/125 446/446 120/120
f 447/447 446/446 125/125
f 449/449 448/448 447/447
f 447/447 450/450 449/449
f 131/131 450/450 447/447
f 449/449 450/450 131/131
f 126/126 447/447 125/125
f 131/131 447/447 126/126
f 131/131 451/451 449/449
f 449/449 94/94 100/100
f 449/449 451/451 94/94
f 132/132 451/451 131/131
f 94/94 451/451 132/132
f 49/49 107/107 110/110
f 50/50 52/52 49/49
f 188/188 165/165 164/164
f 452/452 453/453 454/454
f 455/455 453/453 452/452
f 456/456 453/453 455/455
f 454/454 453/453 456/456
f 455/455 457/457 456/456
f 458/458 457/457 455/455
f 456/456 459/459 454/454
f 460/460 457/457 458/458
f 456/456 457/457 460/460
f 458/458 461/461 460/460
f 462/462 461/461 458/458
f 458/458 463/463 462/462
f 462/462 463/463 323/323
f 454/454 459/459 343/343
f 343/343 464/464 454/454
f 454/454 464/464 465/465
f 465/465 464/464 201/201
f 201/201 464/464 343/343
f 201/201 466/466 465/465
f 465/465 466/466 467/467
f 467/467 468/468 465/465
f 200/200 466/466 201/201
f 467/467 466/466 200/200
f 469/469 468/468 467/467
f 467/467 470/470 469/469
f 343/343 202/202 201/201
f 471/471 470/470 467/467
f 469/469 470/470 472/472
f 472/472 470/470 471/471
f 472/472 473/473 469/469
f 469/469 473/473 474/474
f 474/474 473/473 475/475
f 475/475 473/473 472/472
f 475/475 476/476 474/474
f 467/467 477/477 471/471
f 200/200 477/477 467/467
f 472/472 478/478 475/475
f 479/479 476/476 475/475
f 475/475 478/478 479/479
f 480/480 476/476 479/479
f 479/479 481/481 480/480
f 480/480 481/481 298/298
f 300/300 481/481 479/479
f 298/298 481/481 300/300
f 478/478 482/482 479/479
f 479/479 482/482 300/300
f 472/472 483/483 478/478
f 471/471 483/483 472/472
f 484/484 482/482 478/478
f 300/300 482/482 484/484
f 478/478 483/483 485/485
f 485/485 483/483 471/471
f 478/478 486/486 484/484
f 485/485 486/486 478/478
f 484/484 486/486 487/487
f 487/487 486/486 485/485
f 484/484 303/303 300/300
f 487/487 488/488 484/484
f 304/304 303/303 484/484
f 484/484 488/488 304/304
f 485/485 489/489 487/487
f 490/490 488/488 487/487
f 304/304 488/488 490/490
f 487/487 489/489 491/491
f 491/491 490/490 487/487
f 492/492 490/490 491/491
f 492/492 493/493 490/490
f 490/490 493/493 494/494
f 495/495 492/492 491/491
f 494/494 309/309 490/490
f 490/490 309/309 304/304
f 494/494 496/496 309/309
f 309/309 496/496 310/310
f 309/309 305/305 304/304
f 491/491 489/489 497/497
f 495/495 491/491 498/498
f 498/498 491/491 497/497
f 498/498 499/499 495/495
f 497/497 489/489 485/485
f 500/500 499/499 498/498
f 485/485 501/501 497/497
f 471/471 501/501 485/485
f 497/497 502/502 498/498
f 497/497 501/501 503/503
f 503/503 502/502 497/497
f 503/503 501/501 471/471
f 502/502 500/500 498/498
f 504/504 500/500 502/502
f 504/504 505/505 500/500
f 503/503 504/504 502/502
f 506/506 505/505 504/504
f 506/506 504/504 507/507
f 503/503 508/508 504/504
f 471/471 508/508 503/503
f 471/471 477/477 508/508
f 507/507 190/190 192/192
f 508/508 477/477 200/200
f 507/507 504/504 195/195
f 195/195 504/504 508/508
f 195/195 190/190 507/507
f 200/200 196/196 508/508
f 508/508 196/196 195/195
f 332/332 375/375 338/338
f 337/337 509/509 324/324
f 324/324 509/509 323/323
f 323/323 509/509 462/462
f 462/462 509/509 337/337
f 337/337 510/510 462/462
f 338/338 510/510 337/337
f 462/462 510/510 511/511
f 511/511 510/510 338/338
f 511/511 461/461 462/462
f 375/375 512/512 338/338
f 338/338 512/512 511/511
f 460/460 461/461 511/511
f 513/513 512/512 375/375
f 511/511 512/512 513/513
f 511/511 514/514 460/460
f 513/513 514/514 511/511
f 460/460 514/514 515/515
f 515/515 514/514 513/513
f 375/375 516/516 513/513
f 359/359 516/516 375/375
f 360/360 516/516 359/359
f 513/513 516/516 360/360
f 360/360 517/517 513/513
f 513/513 517/517 515/515
f 367/367 517/517 360/360
f 515/515 517/517 367/367
f 515/515 518/518 460/460
f 460/460 518/518 456/456
f 367/367 519/519 515/515
f 456/456 518/518 520/520
f 520/520 518/518 515/515
f 515/515 519/519 520/520
f 520/520 459/459 456/456
f 343/343 459/459 520/520
f 520/520 521/521 343/343
f 343/343 521/521 342/342
f 520/520 519/519 522/522
f 522/522 521/521 520/520
f 522/522 519/519 367/367
f 342/342 521/521 522/522
f 367/367 352/352 522/522
f 522/522 352/352 342/342
f 352/352 340/340 342/342
f 523/523 524/524 525/525
f 525/525 526/526 523/523
f 527/527 524/524 523/523
f 525/525 524/524 528/528
f 528/528 524/524 527/527
f 527/527 529/529 528/528
f 528/528 530/530 525/525
f 531/531 526/526 525/525
f 528/528 529/529 320/320
f 525/525 532/532 531/531
f 525/525 530/530 533/533
f 533/533 532/532 525/525
f 534/534 530/530 528/528
f 533/533 530/530 534/534
f 320/320 535/535 528/528
f 528/528 535/535 534/534
f 320/320 529/529 315/315
f 315/315 529/529 527/527
f 323/323 535/535 320/320
f 534/534 535/535 323/323
f 315/315 317/317 320/320
f 534/534 536/536 533/533
f 527/527 537/537 315/315
f 458/458 536/536 534/534
f 534/534 463/463 458/458
f 323/323 463/463 534/534
f 533/533 536/536 455/455
f 455/455 536/536 458/458
f 538/538 537/537 527/527
f 527/527 539/539 538/538
f 523/523 539/539 527/527
f 540/540 539/539 523/523
f 538/538 539/539 540/540
f 523/523 541/541 540/540
f 542/542 541/541 523/523
f 523/523 526/526 542/542
f 540/540 541/541 543/543
f 543/543 541/541 542/542
f 540/540 544/544 538/538
f 313/313 537/537 538/538
f 315/315 537/537 313/313
f 538/538 544/544 545/545
f 545/545 546/546 538/538
f 538/538 546/546 313/313
f 547/547 544/544 540/540
f 545/545 544/544 547/547
f 540/540 548/548 547/547
f 543/543 548/548 540/540
f 547/547 548/548 549/549
f 549/549 548/548 543/543
f 547/547 550/550 545/545
f 549/549 550/550 547/547
f 236/236 546/546 545/545
f 313/313 546/546 236/236
f 545/545 551/551 236/236
f 550/550 551/551 545/545
f 236/236 238/238 313/313
f 543/543 552/552 549/549
f 549/549 553/553 550/550
f 239/239 551/551 550/550
f 236/236 551/551 239/239
f 549/549 552/552 252/252
f 252/252 553/553 549/549
f 294/294 552/552 543/543
f 252/252 552/552 294/294
f 543/543 554/554 294/294
f 542/542 554/554 543/543
f 555/555 554/554 542/542
f 294/294 554/554 555/555
f 550/550 553/553 243/243
f 243/243 553/553 252/252
f 243/243 242/242 550/550
f 550/550 242/242 239/239
f 542/542 556/556 555/555
f 531/531 556/556 542/542
f 542/542 526/526 531/531
f 557/557 556/556 531/531
f 555/555 556/556 557/557
f 531/531 558/558 557/557
f 555/555 296/296 294/294
f 559/559 558/558 531/531
f 531/531 532/532 559/559
f 559/559 532/532 533/533
f 533/533 560/560 559/559
f 455/455 560/560 533/533
f 561/561 558/558 559/559
f 557/557 558/558 561/561
f 559/559 560/560 452/452
f 452/452 560/560 455/455
f 559/559 562/562 561/561
f 452/452 562/562 559/559
f 557/557 563/563 555/555
f 555/555 563/563 298/298
f 298/298 296/296 555/555
f 480/480 563/563 557/557
f 298/298 563/563 480/480
f 561/561 564/564 557/557
f 557/557 564/564 480/480
f 561/561 562/562 565/565
f 565/565 562/562 452/452
f 474/474 564/564 561/561
f 480/480 564/564 474/474
f 565/565 566/566 561/561
f 561/561 566/566 474/474
f 452/452 567/567 565/565
f 469/469 566/566 565/565
f 474/474 566/566 469/469
f 474/474 476/476 480/480
f 565/565 468/468 469/469
f 565/565 567/567 465/465
f 465/465 468/468 565/565
f 454/454 567/567 452/452
f 465/465 567/567 454/454
f 281/281 568/568 279/279
f 282/282 569/569 281/281
f 569/569 568/568 281/281
f 570/570 569/569 282/282
f 282/282 571/571 570/570
f 570/570 571/571 572/572
f 572/572 573/573 570/570
f 574/574 573/573 572/572
f 572/572 575/575 574/574
f 575/575 576/576 577/577
f 8/8 574/574 575/575
f 575/575 577/577 8/8
f 8/8 577/577 578/578
f 577/577 579/579 578/578
f 578/578 579/579 580/580
f 578/578 580/580 581/581
f 581/581 580/580 582/582
f 8/8 578/578 581/581
f 582/582 583/583 584/584
f 584/584 581/581 582/582
f 584/584 583/583 585/585
f 585/585 586/586 584/584
f 581/581 587/587 8/8
f 585/585 588/588 589/589
f 589/589 586/586 585/585
f 589/589 588/588 590/590
f 590/590 588/588 591/591
f 590/590 591/591 138/138
f 138/138 591/591 592/592
f 589/589 590/590 136/136
f 136/136 590/590 138/138
f 592/592 593/593 138/138
f 594/594 595/595 592/592
f 592/592 596/596 594/594
f 595/595 593/593 592/592
f 594/594 596/596 597/597
f 597/597 598/598 594/594
f 599/599 598/598 597/597
f 597/597 600/600 599/599
f 599/599 600/600 601/601
f 601/601 602/602 599/599
f 603/603 602/602 601/601
f 601/601 604/604 603/603
f 603/603 604/604 605/605
f 598/598 599/599 606/606
f 606/606 599/599 602/602
f 607/607 603/603 605/605
f 605/605 608/608 607/607
f 607/607 608/608 609/609
f 610/610 607/607 609/609
f 609/609 611/611 610/610
f 610/610 611/611 612/612
f 612/612 613/613 610/610
f 614/614 613/613 612/612
f 612/612 615/615 614/614
f 615/615 616/616 614/614
f 617/617 616/616 615/615
f 615/615 618/618 617/617
f 617/617 618/618 619/619
f 99/99 617/617 619/619
f 619/619 620/620 99/99
f 621/621 620/620 619/619
f 622/622 623/623 621/621
f 621/621 103/103 620/620
f 624/624 623/623 622/622
f 623/623 103/103 621/621
f 624/624 109/109 623/623
f 624/624 625/625 109/109
f 625/625 626/626 627/627
f 627/627 111/111 625/625
f 48/48 111/111 627/627
f 627/627 628/628 48/48
f 48/48 628/628 259/259
f 111/111 48/48 47/47
f 47/47 110/110 111/111
f 625/625 111/111 109/109
f 111/111 106/106 109/109
f 105/105 623/623 109/109
f 103/103 623/623 105/105
f 103/103 101/101 620/620
f 620/620 101/101 99/99
f 99/99 95/95 617/617
f 617/617 95/95 98/98
f 616/616 617/617 98/98
f 98/98 96/96 616/616
f 616/616 96/96 614/614
f 96/96 97/97 614/614
f 614/614 97/97 129/129
f 129/129 613/613 614/614
f 610/610 613/613 129/129
f 129/129 121/121 610/610
f 117/117 629/629 121/121
f 610/610 121/121 629/629
f 629/629 607/607 610/610
f 117/117 607/607 629/629
f 603/603 607/607 117/117
f 117/117 630/630 603/603
f 112/112 630/630 117/117
f 603/603 630/630 112/112
f 112/112 116/116 603/603
f 603/603 116/116 114/114
f 114/114 602/602 603/603
f 606/606 602/602 114/114
f 161/161 606/606 114/114
f 631/631 606/606 161/161
f 606/606 631/631 598/598
f 598/598 631/631 594/594
f 161/161 632/632 631/631
f 152/152 632/632 161/161
f 633/633 632/632 152/152
f 631/631 632/632 633/633
f 152/152 146/146 633/633
f 631/631 633/633 594/594
f 633/633 146/146 142/142
f 594/594 634/634 595/595
f 594/594 633/633 634/634
f 633/633 142/142 634/634
f 634/634 142/142 140/140
f 595/595 634/634 593/593
f 140/140 635/635 634/634
f 634/634 635/635 593/593
f 138/138 635/635 140/140
f 593/593 635/635 138/138
f 139/139 589/589 136/136
f 586/586 589/589 139/139
f 43/43 586/586 139/139
f 636/636 584/584 586/586
f 636/636 586/586 43/43
f 581/581 584/584 636/636
f 43/43 637/637 636/636
f 29/29 637/637 43/43
f 636/636 638/638 581/581
f 639/639 637/637 29/29
f 636/636 637/637 639/639
f 639/639 638/638 636/636
f 29/29 30/30 639/639
f 639/639 30/30 13/13
f 581/581 638/638 640/640
f 640/640 638/638 639/639
f 640/640 587/587 581/581
f 13/13 641/641 639/639
f 639/639 641/641 640/640
f 10/10 641/641 13/13
f 640/640 641/641 10/10
f 10/10 8/8 640/640
f 8/8 587/587 640/640
f 8/8 9/9 574/574
f 574/574 9/9 7/7
f 573/573 574/574 7/7
f 7/7 642/642 573/573
f 6/6 642/642 7/7
f 573/573 642/642 570/570
f 570/570 642/642 6/6
f 6/6 643/643 570/570
f 81/81 643/643 6/6
f 644/644 643/643 81/81
f 570/570 643/643 644/644
f 644/644 569/569 570/570
f 81/81 76/76 644/644
f 644/644 76/76 71/71
f 568/568 569/569 644/644
f 71/71 645/645 644/644
f 644/644 645/645 568/568
f 69/69 645/645 71/71
f 568/568 645/645 69/69
f 69/69 280/280 568/568
f 568/568 280/280 279/279
