v 0.0997001082 -0.108249933 0.0121174054
v 0.098896347 -0.108249933 0.0109144924
v 0.0976934358 -0.108249933 0.0101107312
v 0.0997001082 -0.108249933 0.0149552682
v 0.0999823511 -0.108249933 0.0135363378
v 0.0962745026 -0.108249933 0.00982848834
v 0.0948555693 -0.108249933 0.0101107312
v 0.092848897 -0.108249933 0.0121174054
v 0.0936526582 -0.108249933 0.0109144924
v 0.0976934358 -0.108249933 0.0169619434
v 0.098896347 -0.108249933 0.0161581822
v 0.0948555693 -0.108249933 0.0169619434
v 0.0962745026 -0.108249933 0.0172441863
v 0.092848897 -0.108249933 0.0149552692
v 0.0936526507 -0.108249933 0.0161581822
v 0.0925666541 -0.108249933 0.0135363368
v 0.0986694247 -0.186118007 0.0159312729
v 0.0975706205 -0.186118007 0.0166654699
v 0.0962745026 -0.186118007 0.0169232842
v 0.0996614322 -0.186118007 0.0135363508
v 0.0994036198 -0.186118007 0.0148324724
v 0.0949783772 -0.186118007 0.0166654699
v 0.093879573 -0.186118007 0.0159312747
v 0.0928875655 -0.186118007 0.0135363499
v 0.0931453779 -0.186118007 0.0148324734
v 0.0986694247 -0.186118007 0.0111414259
v 0.0994036198 -0.186118007 0.0122402264
v 0.0962745026 -0.186118007 0.0101494165
v 0.0975706205 -0.186118007 0.0104072308
v 0.093879573 -0.186118007 0.0111414259
v 0.0949783772 -0.186118007 0.0104072308
v 0.0931453779 -0.186118007 0.0122402264
v 0.0999823511 -0.185803249 0.0135363499
v 0.0996614322 -0.186118007 0.0135363508
v 0.0994036198 -0.186118007 0.0122402264
v 0.0997001082 -0.185803249 0.0121174175
v 0.0997001082 -0.185803249 0.0121174175
v 0.0994036198 -0.186118007 0.0122402264
v 0.0986694247 -0.186118007 0.0111414259
v 0.098896347 -0.185803249 0.0109145045
v 0.098896347 -0.185803249 0.0109145045
v 0.0986694247 -0.186118007 0.0111414259
v 0.0975706205 -0.186118007 0.0104072308
v 0.0976934358 -0.185803249 0.0101107443
v 0.0976934358 -0.185803249 0.0101107443
v 0.0975706205 -0.186118007 0.0104072308
v 0.0962745026 -0.186118007 0.0101494165
v 0.0962745026 -0.185803249 0.00982850045
v 0.0962745026 -0.185803249 0.00982850045
v 0.0962745026 -0.186118007 0.0101494165
v 0.0949783772 -0.186118007 0.0104072308
v 0.0948555693 -0.185803249 0.0101107443
v 0.0948555693 -0.185803249 0.0101107443
v 0.0949783772 -0.186118007 0.0104072308
v 0.093879573 -0.186118007 0.0111414259
v 0.0936526582 -0.185803249 0.0109145045
v 0.0936526582 -0.185803249 0.0109145045
v 0.093879573 -0.186118007 0.0111414259
v 0.0931453779 -0.186118007 0.0122402264
v 0.092848897 -0.185803249 0.0121174175
v 0.092848897 -0.185803249 0.0121174175
v 0.0931453779 -0.186118007 0.0122402264
v 0.0928875655 -0.186118007 0.0135363499
v 0.0925666541 -0.185803249 0.0135363499
v 0.0925666541 -0.185803249 0.0135363499
v 0.0928875655 -0.186118007 0.0135363499
v 0.0931453779 -0.186118007 0.0148324734
v 0.092848897 -0.185803249 0.0149552822
v 0.092848897 -0.185803249 0.0149552822
v 0.0931453779 -0.186118007 0.0148324734
v 0.093879573 -0.186118007 0.0159312747
v 0.0936526507 -0.185803249 0.0161581952
v 0.0936526507 -0.185803249 0.0161581952
v 0.093879573 -0.186118007 0.0159312747
v 0.0949783772 -0.186118007 0.0166654699
v 0.0948555693 -0.185803249 0.0169619564
v 0.0948555693 -0.185803249 0.0169619564
v 0.0949783772 -0.186118007 0.0166654699
v 0.0962745026 -0.186118007 0.0169232842
v 0.0962745026 -0.185803249 0.0172441993
v 0.0962745026 -0.185803249 0.0172441993
v 0.0962745026 -0.186118007 0.0169232842
v 0.0975706205 -0.186118007 0.0166654699
v 0.0976934358 -0.185803249 0.0169619564
v 0.0976934358 -0.185803249 0.0169619564
v 0.0975706205 -0.186118007 0.0166654699
v 0.0986694247 -0.186118007 0.0159312729
v 0.098896347 -0.185803249 0.0161581952
v 0.098896347 -0.185803249 0.0161581952
v 0.0986694247 -0.186118007 0.0159312729
v 0.0994036198 -0.186118007 0.0148324724
v 0.0997001082 -0.185803249 0.0149552813
v 0.0997001082 -0.185803249 0.0149552813
v 0.0994036198 -0.186118007 0.0148324724
v 0.0996614322 -0.186118007 0.0135363508
v 0.0999823511 -0.185803249 0.0135363499
v 0.0999823511 -0.185803249 0.0135363499
v 0.0997001082 -0.185803249 0.0121174175
v 0.0997001082 -0.108249933 0.0121174054
v 0.098896347 -0.108249933 0.0109144924
v 0.0999823511 -0.108249933 0.0135363378
v 0.098896347 -0.185803249 0.0109145045
v 0.0997001082 -0.185803249 0.0149552813
v 0.0976934358 -0.108249933 0.0101107312
v 0.0997001082 -0.108249933 0.0149552682
v 0.0976934358 -0.185803249 0.0101107443
v 0.098896347 -0.185803249 0.0161581952
v 0.0962745026 -0.108249933 0.00982848834
v 0.098896347 -0.108249933 0.0161581822
v 0.0962745026 -0.185803249 0.00982850045
v 0.0976934358 -0.185803249 0.0169619564
v 0.0948555693 -0.108249933 0.0101107312
v 0.0976934358 -0.108249933 0.0169619434
v 0.0948555693 -0.185803249 0.0101107443
v 0.0962745026 -0.185803249 0.0172441993
v 0.0936526582 -0.108249933 0.0109144924
v 0.0962745026 -0.108249933 0.0172441863
v 0.0936526582 -0.185803249 0.0109145045
v 0.0948555693 -0.185803249 0.0169619564
v 0.092848897 -0.108249933 0.0121174054
v 0.0948555693 -0.108249933 0.0169619434
v 0.092848897 -0.185803249 0.0121174175
v 0.0936526507 -0.185803249 0.0161581952
v 0.0925666541 -0.108249933 0.0135363368
v 0.0936526507 -0.108249933 0.0161581822
v 0.0925666541 -0.185803249 0.0135363499
v 0.092848897 -0.185803249 0.0149552822
v 0.092848897 -0.108249933 0.0149552692
v 0.0987352803 -0.184107319 0.0125170611
v 0.0984387919 -0.183792561 0.0126398699
v 0.0986171141 -0.183792561 0.0135363499
v 0.098938033 -0.184107319 0.0135363499
v 0.0981578976 -0.184107319 0.0116529502
v 0.0979309753 -0.183792561 0.0118798716
v 0.0984387919 -0.183792561 0.0126398699
v 0.0987352803 -0.184107319 0.0125170611
v 0.0972937867 -0.184107319 0.0110755693
v 0.0971709788 -0.183792561 0.0113720559
v 0.0979309753 -0.183792561 0.0118798716
v 0.0981578976 -0.184107319 0.0116529502
v 0.0962745026 -0.184107319 0.0108728204
v 0.0962745026 -0.183792561 0.0111937355
v 0.0971709788 -0.183792561 0.0113720559
v 0.0972937867 -0.184107319 0.0110755693
v 0.095255211 -0.184107319 0.0110755693
v 0.0953780189 -0.183792561 0.0113720559
v 0.0962745026 -0.183792561 0.0111937355
v 0.0962745026 -0.184107319 0.0108728204
v 0.0943911001 -0.184107319 0.0116529502
v 0.0946180224 -0.183792561 0.0118798716
v 0.0953780189 -0.183792561 0.0113720559
v 0.095255211 -0.184107319 0.0110755693
v 0.0938137174 -0.184107319 0.0125170611
v 0.0941102058 -0.183792561 0.0126398699
v 0.0946180224 -0.183792561 0.0118798716
v 0.0943911001 -0.184107319 0.0116529502
v 0.0936109722 -0.184107319 0.0135363499
v 0.0939318836 -0.183792561 0.0135363499
v 0.0941102058 -0.183792561 0.0126398699
v 0.0938137174 -0.184107319 0.0125170611
v 0.0938137174 -0.184107319 0.0145556377
v 0.0941102058 -0.183792561 0.0144328289
v 0.0939318836 -0.183792561 0.0135363499
v 0.0936109722 -0.184107319 0.0135363499
v 0.0943911001 -0.184107319 0.0154197495
v 0.0946180224 -0.183792561 0.0151928281
v 0.0941102058 -0.183792561 0.0144328289
v 0.0938137174 -0.184107319 0.0145556377
v 0.095255211 -0.184107319 0.0159971304
v 0.0953780189 -0.183792561 0.0157006439
v 0.0946180224 -0.183792561 0.0151928281
v 0.0943911001 -0.184107319 0.0154197495
v 0.0962745026 -0.184107319 0.0161998793
v 0.0962745026 -0.183792561 0.0158789642
v 0.0953780189 -0.183792561 0.0157006439
v 0.095255211 -0.184107319 0.0159971304
v 0.0972937867 -0.184107319 0.0159971304
v 0.0971709788 -0.183792561 0.0157006439
v 0.0962745026 -0.183792561 0.0158789642
v 0.0962745026 -0.184107319 0.0161998793
v 0.0981578976 -0.184107319 0.0154197495
v 0.0979309753 -0.183792561 0.0151928281
v 0.0971709788 -0.183792561 0.0157006439
v 0.0972937867 -0.184107319 0.0159971304
v 0.0987352803 -0.184107319 0.0145556377
v 0.0984387919 -0.183792561 0.0144328289
v 0.0979309753 -0.183792561 0.0151928281
v 0.0981578976 -0.184107319 0.0154197495
v 0.098938033 -0.184107319 0.0135363499
v 0.0986171141 -0.183792561 0.0135363499
v 0.0984387919 -0.183792561 0.0144328289
v 0.0987352803 -0.184107319 0.0145556377
v 0.0984387919 -0.183792561 0.0126398699
v 0.0979309753 -0.183792561 0.0118798716
v 0.0971709788 -0.183792561 0.0113720559
v 0.0984387919 -0.183792561 0.0144328289
v 0.0986171141 -0.183792561 0.0135363499
v 0.0962745026 -0.183792561 0.0111937355
v 0.0953780189 -0.183792561 0.0113720559
v 0.0941102058 -0.183792561 0.0126398699
v 0.0946180224 -0.183792561 0.0118798716
v 0.0971709788 -0.183792561 0.0157006439
v 0.0979309753 -0.183792561 0.0151928281
v 0.0953780189 -0.183792561 0.0157006439
v 0.0962745026 -0.183792561 0.0158789642
v 0.0941102058 -0.183792561 0.0144328289
v 0.0946180224 -0.183792561 0.0151928281
v 0.0939318836 -0.183792561 0.0135363499
f 1 2 3
f 1 3 4
f 5 1 4
f 3 6 7
f 3 7 8
f 3 8 4
f 7 9 8
f 10 11 4
f 12 10 4
f 8 12 4
f 12 13 10
f 8 14 12
f 14 15 12
f 8 16 14
f 17 18 19
f 17 19 20
f 21 17 20
f 19 22 23
f 19 23 24
f 19 24 20
f 23 25 24
f 26 27 20
f 28 26 20
f 24 28 20
f 28 29 26
f 24 30 28
f 30 31 28
f 24 32 30
f 33 34 35
f 35 36 33
f 37 38 39
f 39 40 37
f 41 42 43
f 43 44 41
f 45 46 47
f 47 48 45
f 49 50 51
f 51 52 49
f 53 54 55
f 55 56 53
f 57 58 59
f 59 60 57
f 61 62 63
f 63 64 61
f 65 66 67
f 67 68 65
f 69 70 71
f 71 72 69
f 73 74 75
f 75 76 73
f 77 78 79
f 79 80 77
f 81 82 83
f 83 84 81
f 85 86 87
f 87 88 85
f 89 90 91
f 91 92 89
f 93 94 95
f 95 96 93
f 97 98 99
f 100 99 98
f 99 101 97
f 98 102 100
f 103 97 101
f 104 100 102
f 101 105 103
f 102 106 104
f 107 103 105
f 108 104 106
f 105 109 107
f 106 110 108
f 111 107 109
f 112 108 110
f 109 113 111
f 110 114 112
f 115 111 113
f 116 112 114
f 113 117 115
f 114 118 116
f 119 115 117
f 120 116 118
f 117 121 119
f 118 122 120
f 123 119 121
f 124 120 122
f 121 125 123
f 122 126 124
f 127 123 125
f 128 124 126
f 126 127 128
f 125 128 127
f 129 130 131
f 131 132 129
f 133 134 135
f 135 136 133
f 137 138 139
f 139 140 137
f 141 142 143
f 143 144 141
f 145 146 147
f 147 148 145
f 149 150 151
f 151 152 149
f 153 154 155
f 155 156 153
f 157 158 159
f 159 160 157
f 161 162 163
f 163 164 161
f 165 166 167
f 167 168 165
f 169 170 171
f 171 172 169
f 173 174 175
f 175 176 173
f 177 178 179
f 179 180 177
f 181 182 183
f 183 184 181
f 185 186 187
f 187 188 185
f 189 190 191
f 191 192 189
f 193 194 195
f 193 195 196
f 197 193 196
f 195 198 199
f 195 199 200
f 195 200 196
f 199 201 200
f 202 203 196
f 204 202 196
f 200 204 196
f 204 205 202
f 200 206 204
f 206 207 204
f 200 208 206
