v 0.159425989 -0.200000003 0.000574009668
v 0.159999996 -0.19942598 0.000574009668
v 0.159999996 -0.19942598 0.021468319
v 0.159425989 -0.200000003 0.021468319
v -0.159425989 -0.200000003 0.021468319
v -0.159999996 -0.19942598 0.021468319
v -0.159999996 -0.19942598 0.000574009668
v -0.159425989 -0.200000003 0.000574009668
v 0.159999996 0.19942598 0.000574009668
v 0.159425989 0.200000003 0.000574009668
v 0.159425989 0.200000003 0.021468319
v 0.159999996 0.19942598 0.021468319
v -0.159425989 0.200000003 0.000574009668
v -0.159999996 0.19942598 0.000574009668
v -0.159999996 0.19942598 0.021468319
v -0.159425989 0.200000003 0.021468319
v -0.159425989 -0.200000003 0.000574009668
v 0.159425989 -0.200000003 0.000574009668
v 0.159425989 -0.200000003 0.021468319
v -0.159425989 -0.200000003 0.021468319
v 0.159425989 0.200000003 0.000574009668
v -0.159425989 0.200000003 0.000574009668
v -0.159425989 0.200000003 0.021468319
v 0.159425989 0.200000003 0.021468319
v 0.159999996 -0.19942598 0.000574009668
v 0.159999996 0.19942598 0.000574009668
v 0.159999996 0.19942598 0.021468319
v 0.159999996 -0.19942598 0.021468319
v -0.159999996 0.19942598 0.000574009668
v -0.159999996 -0.19942598 0.000574009668
v -0.159999996 -0.19942598 0.021468319
v -0.159999996 0.19942598 0.021468319
v -0.158614218 0.19942598 4.4281463e-17
v -0.159425989 0.200000003 0.000574009668
v 0.159425989 0.200000003 0.000574009668
v 0.158614218 0.19942598 4.4281463e-17
v 0.158614218 -0.19942598 -4.4281463e-17
v 0.159425989 -0.200000003 0.000574009668
v -0.159425989 -0.200000003 0.000574009668
v -0.158614218 -0.19942598 -4.4281463e-17
v -0.158614218 -0.19942598 0.0220423285
v -0.159425989 -0.200000003 0.021468319
v 0.159425989 -0.200000003 0.021468319
v 0.158614218 -0.19942598 0.0220423285
v 0.158614218 0.19942598 0.0220423285
v 0.159425989 0.200000003 0.021468319
v -0.159425989 0.200000003 0.021468319
v -0.158614218 0.19942598 0.0220423285
v -0.159425989 -0.200000003 0.000574009668
v -0.159999996 -0.19942598 0.000574009668
v -0.159425989 -0.19861421 -4.41012138e-17
v -0.158614218 -0.19942598 -4.4281463e-17
v 0.158614218 -0.19942598 -4.4281463e-17
v 0.159425989 -0.19861421 -4.41012138e-17
v 0.159999996 -0.19942598 0.000574009668
v 0.159425989 -0.200000003 0.000574009668
v -0.159999996 0.19942598 0.000574009668
v -0.159425989 0.200000003 0.000574009668
v -0.158614218 0.19942598 4.4281463e-17
v -0.159425989 0.19861421 4.41012138e-17
v 0.159425989 0.19861421 4.41012138e-17
v 0.158614218 0.19942598 4.4281463e-17
v 0.159425989 0.200000003 0.000574009668
v 0.159999996 0.19942598 0.000574009668
v -0.159425989 -0.200000003 0.021468319
v -0.158614218 -0.19942598 0.0220423285
v -0.159425989 -0.19861421 0.0220423285
v -0.159999996 -0.19942598 0.021468319
v 0.159999996 -0.19942598 0.021468319
v 0.159425989 -0.19861421 0.0220423285
v 0.158614218 -0.19942598 0.0220423285
v 0.159425989 -0.200000003 0.021468319
v -0.159999996 0.19942598 0.021468319
v -0.159425989 0.19861421 0.0220423285
v -0.158614218 0.19942598 0.0220423285
v -0.159425989 0.200000003 0.021468319
v 0.159425989 0.200000003 0.021468319
v 0.158614218 0.19942598 0.0220423285
v 0.159425989 0.19861421 0.0220423285
v 0.159999996 0.19942598 0.021468319
v -0.159425989 -0.19861421 -4.41012138e-17
v -0.159999996 -0.19942598 0.000574009668
v -0.159999996 0.19942598 0.000574009668
v -0.159425989 0.19861421 4.41012138e-17
v 0.159425989 0.19861421 4.41012138e-17
v 0.159999996 0.19942598 0.000574009668
v 0.159999996 -0.19942598 0.000574009668
v 0.159425989 -0.19861421 -4.41012138e-17
v 0.159425989 -0.19861421 0.0220423285
v 0.159999996 -0.19942598 0.021468319
v 0.159999996 0.19942598 0.021468319
v 0.159425989 0.19861421 0.0220423285
v -0.159425989 0.19861421 0.0220423285
v -0.159999996 0.19942598 0.021468319
v -0.159999996 -0.19942598 0.021468319
v -0.159425989 -0.19861421 0.0220423285
v -0.159425989 -0.19861421 -4.41012138e-17
v -0.159425989 0.19861421 4.41012138e-17
v -0.150830731 0.190018952 4.21926831e-17
v -0.150018975 0.190830752 4.2372939e-17
v -0.150830731 -0.190018952 -4.21926831e-17
v -0.158614218 0.19942598 4.4281463e-17
v -0.158614218 -0.19942598 -4.4281463e-17
v 0.150018975 0.190830752 4.2372939e-17
v -0.150018975 -0.190830752 -4.2372939e-17
v 0.158614218 0.19942598 4.4281463e-17
v 0.158614218 -0.19942598 -4.4281463e-17
v 0.150830731 0.190018952 4.21926831e-17
v 0.150018975 -0.190830752 -4.2372939e-17
v 0.159425989 0.19861421 4.41012138e-17
v 0.159425989 -0.19861421 -4.41012138e-17
v 0.150830731 -0.190018952 -4.21926831e-17
v -0.158614218 -0.19942598 0.0220423285
v 0.158614218 -0.19942598 0.0220423285
v 0.150018975 -0.190830752 0.0220423285
v 0.150830731 -0.190018952 0.0220423285
v 0.159425989 -0.19861421 0.0220423285
v -0.150018975 -0.190830752 0.0220423285
v -0.159425989 -0.19861421 0.0220423285
v -0.150830731 -0.190018952 0.0220423285
v 0.159425989 -0.19861421 0.0220423285
v 0.159425989 0.19861421 0.0220423285
v 0.150830731 0.190018952 0.0220423285
v 0.150830731 -0.190018952 0.0220423285
v 0.158614218 0.19942598 0.0220423285
v -0.158614218 0.19942598 0.0220423285
v -0.150018975 0.190830752 0.0220423285
v -0.150830731 0.190018952 0.0220423285
v -0.159425989 0.19861421 0.0220423285
v 0.150018975 0.190830752 0.0220423285
v 0.159425989 0.19861421 0.0220423285
v 0.150830731 0.190018952 0.0220423285
v -0.159425989 0.19861421 0.0220423285
v -0.159425989 -0.19861421 0.0220423285
v -0.150830731 -0.190018952 0.0220423285
v -0.150830731 0.190018952 0.0220423285
v -0.150830731 0.190018952 4.21926831e-17
v -0.150256723 0.189682707 0.000574009668
v -0.150256723 -0.189682707 0.000574009668
v -0.150830731 -0.190018952 -4.21926831e-17
v 0.150830731 -0.190018952 -4.21926831e-17
v 0.150256723 -0.189682707 0.000574009668
v 0.150256723 0.189682707 0.000574009668
v 0.150830731 0.190018952 4.21926831e-17
v 0.150830731 0.190018952 0.0220423285
v 0.150256723 0.189682707 0.021468319
v 0.150256723 -0.189682707 0.021468319
v 0.150830731 -0.190018952 0.0220423285
v -0.150830731 -0.190018952 0.0220423285
v -0.150256723 -0.189682707 0.021468319
v -0.150256723 0.189682707 0.021468319
v -0.150830731 0.190018952 0.0220423285
v 0.150018975 0.190830752 4.2372939e-17
v 0.149682716 0.19025673 0.000574009668
v -0.149682716 0.19025673 0.000574009668
v -0.150018975 0.190830752 4.2372939e-17
v -0.150018975 -0.190830752 -4.2372939e-17
v -0.149682716 -0.19025673 0.000574009668
v 0.149682716 -0.19025673 0.000574009668
v 0.150018975 -0.190830752 -4.2372939e-17
v 0.150018975 -0.190830752 0.0220423285
v 0.149682716 -0.19025673 0.021468319
v -0.149682716 -0.19025673 0.021468319
v -0.150018975 -0.190830752 0.0220423285
v -0.150018975 0.190830752 0.0220423285
v -0.149682716 0.19025673 0.021468319
v 0.149682716 0.19025673 0.021468319
v 0.150018975 0.190830752 0.0220423285
v 0.150256723 0.189682707 0.000574009668
v 0.150256723 -0.189682707 0.000574009668
v 0.150256723 -0.189682707 0.021468319
v 0.150256723 0.189682707 0.021468319
v -0.150256723 -0.189682707 0.000574009668
v -0.150256723 0.189682707 0.000574009668
v -0.150256723 0.189682707 0.021468319
v -0.150256723 -0.189682707 0.021468319
v -0.150830731 -0.190018952 -4.21926831e-17
v -0.150256723 -0.189682707 0.000574009668
v -0.149682716 -0.19025673 0.000574009668
v -0.150018975 -0.190830752 -4.2372939e-17
v -0.150018975 0.190830752 4.2372939e-17
v -0.149682716 0.19025673 0.000574009668
v -0.150256723 0.189682707 0.000574009668
v -0.150830731 0.190018952 4.21926831e-17
v 0.150830731 0.190018952 4.21926831e-17
v 0.150256723 0.189682707 0.000574009668
v 0.149682716 0.19025673 0.000574009668
v 0.150018975 0.190830752 4.2372939e-17
v 0.150018975 -0.190830752 -4.2372939e-17
v 0.149682716 -0.19025673 0.000574009668
v 0.150256723 -0.189682707 0.000574009668
v 0.150830731 -0.190018952 -4.21926831e-17
v -0.150018975 -0.190830752 0.0220423285
v -0.149682716 -0.19025673 0.021468319
v -0.150256723 -0.189682707 0.021468319
v -0.150830731 -0.190018952 0.0220423285
v 0.150830731 -0.190018952 0.0220423285
v 0.150256723 -0.189682707 0.021468319
v 0.149682716 -0.19025673 0.021468319
v 0.150018975 -0.190830752 0.0220423285
v 0.150018975 0.190830752 0.0220423285
v 0.149682716 0.19025673 0.021468319
v 0.150256723 0.189682707 0.021468319
v 0.150830731 0.190018952 0.0220423285
v -0.150830731 0.190018952 0.0220423285
v -0.150256723 0.189682707 0.021468319
v -0.149682716 0.19025673 0.021468319
v -0.150018975 0.190830752 0.0220423285
v -0.149682716 0.19025673 0.000574009668
v 0.149682716 0.19025673 0.000574009668
v 0.149682716 0.19025673 0.021468319
v -0.149682716 0.19025673 0.021468319
v 0.149682716 -0.19025673 0.000574009668
v -0.149682716 -0.19025673 0.000574009668
v -0.149682716 -0.19025673 0.021468319
v 0.149682716 -0.19025673 0.021468319
v -0.150256723 0.189682707 0.000574009668
v -0.149682716 0.19025673 0.000574009668
v -0.149682716 0.19025673 0.021468319
v -0.150256723 0.189682707 0.021468319
v 0.149682716 0.19025673 0.000574009668
v 0.150256723 0.189682707 0.000574009668
v 0.150256723 0.189682707 0.021468319
v 0.149682716 0.19025673 0.021468319
v 0.150256723 -0.189682707 0.000574009668
v 0.149682716 -0.19025673 0.000574009668
v 0.149682716 -0.19025673 0.021468319
v 0.150256723 -0.189682707 0.021468319
v -0.149682716 -0.19025673 0.000574009668
v -0.150256723 -0.189682707 0.000574009668
v -0.150256723 -0.189682707 0.021468319
v -0.149682716 -0.19025673 0.021468319
vt 0.997708201 0.69247365
vt 0.999500215 0.69247365
vt 0.999500215 0.30752635
vt 0.997708201 0.30752635
vt 0.00229147077 0.30752635
vt 0.000499486923 0.30752635
vt 0.000499486923 0.69247365
vt 0.00229147077 0.69247365
vt 0.000499486923 0.69247365
vt 0.00229147077 0.69247365
vt 0.00229147077 0.30752635
vt 0.000499486923 0.30752635
vt 0.997708201 0.69247365
vt 0.999500215 0.69247365
vt 0.999500215 0.30752635
vt 0.997708201 0.30752635
vt 0.00229147077 0.69247365
vt 0.997708201 0.69247365
vt 0.997708201 0.30752635
vt 0.00229147077 0.30752635
vt 0.00229147077 0.69247365
vt 0.997708201 0.69247365
vt 0.997708201 0.30752635
vt 0.00229147077 0.30752635
vt -0.559716821 0.69247365
vt 1.55971634 0.69247365
vt 1.55971634 0.30752635
vt -0.559716821 0.30752635
vt -0.559716821 0.69247365
vt 1.55971634 0.69247365
vt 1.55971634 0.30752635
vt -0.559716821 0.30752635
vt 0.995173931 -0.559716821
vt 0.997708201 -0.562767029
vt 0.00229147077 -0.562766552
vt 0.00482574105 -0.559716344
vt 0.00482603908 1.55971682
vt 0.00229176879 1.56276703
vt 0.997708559 1.56276655
vt 0.995174289 1.55971634
vt 0.00482574105 1.55971634
vt 0.00229147077 1.56276655
vt 0.997708201 1.56276703
vt 0.995173931 1.55971682
vt 0.995174289 -0.559716344
vt 0.997708559 -0.562766552
vt 0.00229176879 -0.562767029
vt 0.00482603908 -0.559716821
vt 0.997708559 1.56276655
vt 0.999500513 1.55971634
vt 0.997708559 1.55540276
vt 0.995174289 1.55971634
vt 0.00482603908 1.55971682
vt 0.00229176879 1.55540323
vt 0.000499784946 1.55971682
vt 0.00229176879 1.56276703
vt 0.999500215 -0.559716821
vt 0.997708201 -0.562767029
vt 0.995173931 -0.559716821
vt 0.997708201 -0.555403233
vt 0.00229147077 -0.555402756
vt 0.00482574105 -0.559716344
vt 0.00229147077 -0.562766552
vt 0.000499486923 -0.559716344
vt 0.00229147077 1.56276655
vt 0.00482574105 1.55971634
vt 0.00229147077 1.55540276
vt 0.000499486923 1.55971634
vt 0.999500215 1.55971682
vt 0.997708201 1.55540323
vt 0.995173931 1.55971682
vt 0.997708201 1.56276703
vt 0.000499784946 -0.559716821
vt 0.00229176879 -0.555403233
vt 0.00482603908 -0.559716821
vt 0.00229176879 -0.562767029
vt 0.997708559 -0.562766552
vt 0.995174289 -0.559716344
vt 0.997708559 -0.555402756
vt 0.999500513 -0.559716344
vt 0.997708559 1.55540276
vt 0.999500513 1.55971634
vt 0.999500215 -0.559716821
vt 0.997708201 -0.555403233
vt 0.00229147077 -0.555402756
vt 0.000499486923 -0.559716344
vt 0.000499784946 1.55971682
vt 0.00229176879 1.55540323
vt 0.997708201 1.55540323
vt 0.999500215 1.55971682
vt 0.999500513 -0.559716344
vt 0.997708559 -0.555402756
vt 0.00229176879 -0.555403233
vt 0.000499784946 -0.559716821
vt 0.000499486923 1.55971634
vt 0.00229147077 1.55540276
vt 0.997708559 1.55540276
vt 0.997708201 -0.555403233
vt 0.970874906 -0.509729505
vt 0.968340635 -0.514043212
vt 0.970875204 1.50972903
vt 0.995173931 -0.559716821
vt 0.995174289 1.55971634
vt 0.0316590369 -0.514042735
vt 0.968340993 1.51404274
vt 0.00482574105 -0.559716344
vt 0.00482603908 1.55971682
vt 0.0291247964 -0.509729028
vt 0.0316593349 1.51404321
vt 0.00229147077 -0.555402756
vt 0.00229176879 1.55540323
vt 0.0291250944 1.5097295
vt 0.00482574105 1.55971634
vt 0.995173931 1.55971682
vt 0.968340635 1.51404321
vt 0.970874906 1.5097295
vt 0.997708201 1.55540323
vt 0.0316590369 1.51404274
vt 0.00229147077 1.55540276
vt 0.0291247964 1.50972903
vt 0.999500513 -0.479412556
vt 0.000499546528 -0.479412794
vt 0.0221159756 -0.426608801
vt 0.977884054 -0.426608801
vt 0.995174289 -0.559716344
vt 0.00482603908 -0.559716821
vt 0.0316593349 -0.514043212
vt 0.0291250944 -0.509729505
vt 0.00229176879 -0.555403233
vt 0.968340993 -0.514042735
vt 0.997708559 -0.555402756
vt 0.970875204 -0.509729028
vt 0.000499486923 1.47941256
vt 0.999500453 1.47941279
vt 0.977884054 1.4266088
vt 0.022115916 1.4266088
vt 0.970874906 -0.509729505
vt 0.969082952 -0.507942677
vt 0.96908319 1.5079422
vt 0.970875204 1.50972903
vt 0.0291250944 1.5097295
vt 0.0309170783 1.50794268
vt 0.0309167802 -0.5079422
vt 0.0291247964 -0.509729028
vt 0.970875204 -0.509729028
vt 0.96908319 -0.5079422
vt 0.969082952 1.50794268
vt 0.970874906 1.5097295
vt 0.0291247964 1.50972903
vt 0.0309167802 1.5079422
vt 0.0309170783 -0.507942677
vt 0.0291250944 -0.509729505
vt 0.0316590369 -0.514042735
vt 0.0327087641 -0.510992527
vt 0.967290938 -0.510993004
vt 0.968340635 -0.514043212
vt 0.968340993 1.51404274
vt 0.967291236 1.51099253
vt 0.0327090621 1.510993
vt 0.0316593349 1.51404321
vt 0.968340635 1.51404321
vt 0.967290938 1.510993
vt 0.0327087641 1.51099253
vt 0.0316590369 1.51404274
vt 0.0316593349 -0.514043212
vt 0.0327090621 -0.510993004
vt 0.967291236 -0.510992527
vt 0.968340993 -0.514042735
vt -0.5079422 0.69247365
vt 1.50794268 0.69247365
vt 1.50794268 0.30752635
vt -0.5079422 0.30752635
vt -0.5079422 0.69247365
vt 1.50794268 0.69247365
vt 1.50794268 0.30752635
vt -0.5079422 0.30752635
vt 0.970875204 1.50972903
vt 0.96908319 1.5079422
vt 0.967291236 1.51099253
vt 0.968340993 1.51404274
vt 0.968340635 -0.514043212
vt 0.967290938 -0.510993004
vt 0.969082952 -0.507942677
vt 0.970874906 -0.509729505
vt 0.0291247964 -0.509729028
vt 0.0309167802 -0.5079422
vt 0.0327087641 -0.510992527
vt 0.0316590369 -0.514042735
vt 0.0316593349 1.51404321
vt 0.0327090621 1.510993
vt 0.0309170783 1.50794268
vt 0.0291250944 1.5097295
vt 0.0316590369 1.51404274
vt 0.0327087641 1.51099253
vt 0.0309167802 1.5079422
vt 0.0291247964 1.50972903
vt 0.970874906 1.5097295
vt 0.969082952 1.50794268
vt 0.967290938 1.510993
vt 0.968340635 1.51404321
vt 0.968340993 -0.514042735
vt 0.967291236 -0.510992527
vt 0.96908319 -0.5079422
vt 0.970875204 -0.509729028
vt 0.0291250944 -0.509729505
vt 0.0309170783 -0.507942677
vt 0.0327090621 -0.510993004
vt 0.0316593349 -0.514043212
vt 0.0327090621 0.69247365
vt 0.967291236 0.69247365
vt 0.967291236 0.30752635
vt 0.0327090621 0.30752635
vt 0.0327090621 0.69247365
vt 0.967291236 0.69247365
vt 0.967291236 0.30752635
vt 0.0327090621 0.30752635
vt 0.0309170783 0.69247365
vt 0.0327090621 0.69247365
vt 0.0327090621 0.30752635
vt 0.0309170783 0.30752635
vt 0.967291236 0.69247365
vt 0.96908319 0.69247365
vt 0.96908319 0.30752635
vt 0.967291236 0.30752635
vt 0.0309170783 0.69247365
vt 0.0327090621 0.69247365
vt 0.0327090621 0.30752635
vt 0.0309170783 0.30752635
vt 0.967291236 0.69247365
vt 0.96908319 0.69247365
vt 0.96908319 0.30752635
vt 0.967291236 0.30752635
f 1/1 2/2 3/3
f 3/3 4/4 1/1
f 5/5 6/6 7/7
f 7/7 8/8 5/5
f 9/9 10/10 11/11
f 11/11 12/12 9/9
f 13/13 14/14 15/15
f 15/15 16/16 13/13
f 17/17 18/18 19/19
f 19/19 20/20 17/17
f 21/21 22/22 23/23
f 23/23 24/24 21/21
f 25/25 26/26 27/27
f 27/27 28/28 25/25
f 29/29 30/30 31/31
f 31/31 32/32 29/29
f 33/33 34/34 35/35
f 35/35 36/36 33/33
f 37/37 38/38 39/39
f 39/39 40/40 37/37
f 41/41 42/42 43/43
f 43/43 44/44 41/41
f 45/45 46/46 47/47
f 47/47 48/48 45/45
f 49/49 50/50 51/51
f 51/51 52/52 49/49
f 53/53 54/54 55/55
f 55/55 56/56 53/53
f 57/57 58/58 59/59
f 59/59 60/60 57/57
f 61/61 62/62 63/63
f 63/63 64/64 61/61
f 65/65 66/66 67/67
f 67/67 68/68 65/65
f 69/69 70/70 71/71
f 71/71 72/72 69/69
f 73/73 74/74 75/75
f 75/75 76/76 73/73
f 77/77 78/78 79/79
f 79/79 80/80 77/77
f 81/81 82/82 83/83
f 83/83 84/84 81/81
f 85/85 86/86 87/87
f 87/87 88/88 85/85
f 89/89 90/90 91/91
f 91/91 92/92 89/89
f 93/93 94/94 95/95
f 95/95 96/96 93/93
f 97/97 98/98 99/99
f 100/100 99/99 98/98
f 99/99 101/101 97/97
f 98/98 102/102 100/100
f 103/103 97/97 101/101
f 104/104 100/100 102/102
f 101/101 105/105 103/103
f 102/102 106/106 104/104
f 107/107 103/103 105/105
f 108/108 104/104 106/106
f 105/105 109/109 107/107
f 106/106 110/110 108/108
f 111/111 107/107 109/109
f 112/112 108/108 110/110
f 110/110 111/111 112/112
f 109/109 112/112 111/111
f 113/113 114/114 115/115
f 116/116 115/115 114/114
f 114/114 117/117 116/116
f 115/115 118/118 113/113
f 119/119 113/113 118/118
f 118/118 120/120 119/119
f 121/121 122/122 123/123
f 123/123 124/124 121/121
f 125/125 126/126 127/127
f 128/128 127/127 126/126
f 126/126 129/129 128/128
f 127/127 130/130 125/125
f 131/131 125/125 130/130
f 130/130 132/132 131/131
f 133/133 134/134 135/135
f 135/135 136/136 133/133
f 137/137 138/138 139/139
f 139/139 140/140 137/137
f 141/141 142/142 143/143
f 143/143 144/144 141/141
f 145/145 146/146 147/147
f 147/147 148/148 145/145
f 149/149 150/150 151/151
f 151/151 152/152 149/149
f 153/153 154/154 155/155
f 155/155 156/156 153/153
f 157/157 158/158 159/159
f 159/159 160/160 157/157
f 161/161 162/162 163/163
f 163/163 164/164 161/161
f 165/165 166/166 167/167
f 167/167 168/168 165/165
f 169/169 170/170 171/171
f 171/171 172/172 169/169
f 173/173 174/174 175/175
f 175/175 176/176 173/173
f 177/177 178/178 179/179
f 179/179 180/180 177/177
f 181/181 182/182 183/183
f 183/183 184/184 181/181
f 185/185 186/186 187/187
f 187/187 188/188 185/185
f 189/189 190/190 191/191
f 191/191 192/192 189/189
f 193/193 194/194 195/195
f 195/195 196/196 193/193
f 197/197 198/198 199/199
f 199/199 200/200 197/197
f 201/201 202/202 203/203
f 203/203 204/204 201/201
f 205/205 206/206 207/207
f 207/207 208/208 205/205
f 209/209 210/210 211/211
f 211/211 212/212 209/209
f 213/213 214/214 215/215
f 215/215 216/216 213/213
f 217/217 218/218 219/219
f 219/219 220/220 217/217
f 221/221 222/222 223/223
f 223/223 224/224 221/221
f 225/225 226/226 227/227
f 227/227 228/228 225/225
f 229/229 230/230 231/231
f 231/231 232/232 229/229
