v -0.881652296 -0.0122914137 0.427535653
v -0.861074507 0.00828642305 0.396569669
v -0.868543506 0.0157553926 0.396569669
v -0.889121294 -0.00482245395 0.427535653
v -0.868726492 0.0155723719 0.393611133
v -0.868543506 0.0157553926 0.396569669
v -0.861074507 0.00828642305 0.396569669
v -0.861257553 0.0081034014 0.393611133
v -0.883744299 -0.0143833915 0.427794516
v -0.881652296 -0.0122914137 0.427535653
v -0.889121294 -0.00482245395 0.427535653
v -0.891213298 -0.00691443263 0.427794516
v -0.860727131 0.00566398678 0.395219803
v -0.861074507 0.00828642305 0.396569669
v -0.881652296 -0.0122914137 0.427535653
v -0.88130486 -0.0149138356 0.426185876
v -0.89174372 -0.00447502546 0.426185906
v -0.889121294 -0.00482245395 0.427535653
v -0.868543506 0.0157553926 0.396569669
v -0.871165931 0.0161028039 0.395219833
v -0.861257553 0.0081034014 0.393611133
v -0.861074507 0.00828642305 0.396569669
v -0.860727131 0.00566398678 0.395219803
v -0.868726492 0.0155723719 0.393611133
v -0.871165931 0.0161028039 0.395219833
v -0.868543506 0.0157553926 0.396569669
v -0.881652296 -0.0122914137 0.427535653
v -0.883744299 -0.0143833915 0.427794516
v -0.88130486 -0.0149138356 0.426185876
v -0.889121294 -0.00482245395 0.427535653
v -0.89174372 -0.00447502546 0.426185906
v -0.891213298 -0.00691443263 0.427794516
v -0.861257553 0.0081034014 0.393611133
v -1.17319131 -0.303830236 0.0178895034
v -1.18146288 -0.297163904 0.0169370566
v -0.868726492 0.0155723719 0.393611133
v -0.883744299 -0.0143833915 0.427794516
v -0.891213298 -0.00691443263 0.427794516
v -1.18146288 -0.297163874 0.077804774
v -1.17319131 -0.303830236 0.0787571818
v -1.17319131 -0.303830236 0.0787571818
v -1.17295241 -0.306561172 0.0745372325
v -0.88130486 -0.0149138356 0.426185876
v -0.868726492 0.0155723719 0.393611133
v -1.18146288 -0.297163904 0.0169370566
v -1.18170178 -0.294432938 0.02115703
v -0.88130486 -0.0149138356 0.426185876
v -0.883744299 -0.0143833915 0.427794516
v -1.17319131 -0.303830236 0.0787571818
v -1.18170178 -0.294432938 0.02115703
v -0.871165931 0.0161028039 0.395219833
v -0.868726492 0.0155723719 0.393611133
v -0.861257553 0.0081034014 0.393611133
v -0.860727131 0.00566398678 0.395219803
v -1.17295241 -0.306561142 0.0191522948
v -1.17295241 -0.306561142 0.0191522948
v -1.17319131 -0.303830236 0.0178895034
v -0.861257553 0.0081034014 0.393611133
v -0.891213298 -0.00691443263 0.427794516
v -0.89174372 -0.00447502546 0.426185906
v -1.18170178 -0.294432968 0.0765420198
v -1.18170178 -0.294432968 0.0765420198
v -1.18146288 -0.297163874 0.077804774
v -0.891213298 -0.00691443263 0.427794516
v -0.860727131 0.00566398678 0.395219803
v -0.88130486 -0.0149138356 0.426185876
v -1.17295241 -0.306561172 0.0745372325
v -1.17295241 -0.306561142 0.0191522948
v -0.871165931 0.0161028039 0.395219833
v -1.18170178 -0.294432938 0.02115703
v -1.18170178 -0.294432968 0.0765420198
v -0.89174372 -0.00447502546 0.426185906
f 1 2 3
f 3 4 1
f 5 6 7
f 7 8 5
f 9 10 11
f 11 12 9
f 13 14 15
f 15 16 13
f 17 18 19
f 19 20 17
f 21 22 23
f 24 25 26
f 27 28 29
f 30 31 32
f 33 34 35
f 35 36 33
f 37 38 39
f 39 40 37
f 41 42 43
f 44 45 46
f 47 48 49
f 50 51 52
f 53 54 55
f 56 57 58
f 59 60 61
f 62 63 64
f 65 66 67
f 67 68 65
f 69 70 71
f 71 72 69
