v -1.50026369 -0.412928402 0.729771316
v -1.50026369 0.412928432 0.729771316
v -1.50026369 0.412928432 0.708971322
v -1.50026369 -0.412928402 0.708971322
v 1.50026381 0.412928432 0.729771316
v 1.50026381 -0.412928402 0.729771316
v 1.50026381 -0.412928402 0.708971322
v 1.50026405 0.412928432 0.708971322
v -1.49783015 0.41557467 0.708971322
v -1.50026369 0.412928432 0.708971322
v -1.50026369 0.412928432 0.729771316
v -1.49783015 0.41557467 0.729771316
v -1.50026369 -0.412928402 0.708971322
v -1.49782383 -0.41555503 0.708970368
v -1.49782383 -0.41555503 0.729770362
v -1.50026369 -0.412928402 0.729771316
v 1.49784589 -0.41561988 0.708972335
v 1.50026381 -0.412928402 0.708971322
v 1.50026381 -0.412928402 0.729771316
v 1.49784589 -0.41561994 0.729772329
v 1.49783576 0.415591478 0.729771316
v 1.50026381 0.412928432 0.729771316
v 1.50026405 0.412928432 0.708971322
v 1.49783576 0.415591538 0.708971322
v -1.49774325 0.413419455 0.706871331
v -1.50026369 0.412928432 0.708971322
v -1.49783015 0.41557467 0.708971322
v -1.50026369 0.412928432 0.729771316
v -1.49774349 0.413419455 0.731871307
v -1.49783015 0.41557467 0.729771316
v -1.49774349 -0.413403094 0.706871271
v -1.49782383 -0.41555503 0.708970368
v -1.50026369 -0.412928402 0.708971322
v 1.50026381 -0.412928402 0.708971322
v 1.49784589 -0.41561988 0.708972335
v 1.49774396 -0.413456261 0.706871271
v -1.49782383 -0.41555503 0.729770362
v -1.49774349 -0.413403094 0.731871307
v -1.50026369 -0.412928402 0.729771316
v 1.50026381 -0.412928402 0.729771316
v 1.49774361 -0.413456261 0.731871247
v 1.49784589 -0.41561994 0.729772329
v 1.49783576 0.415591538 0.708971322
v 1.50026405 0.412928432 0.708971322
v 1.49774361 0.413433045 0.706871331
v 1.49783576 0.415591478 0.729771316
v 1.49774361 0.413433045 0.731871307
v 1.50026381 0.412928432 0.729771316
v -1.50026369 0.412928432 0.708971322
v -1.49774325 0.413419455 0.706871331
v -1.49774349 -0.413403094 0.706871271
v -1.50026369 -0.412928402 0.708971322
v -1.50026369 -0.412928402 0.729771316
v -1.49774349 -0.413403094 0.731871307
v -1.49774349 0.413419455 0.731871307
v -1.50026369 0.412928432 0.729771316
v 1.50026381 -0.412928402 0.708971322
v 1.49774396 -0.413456261 0.706871271
v 1.49774361 0.413433045 0.706871331
v 1.49774361 0.413433045 0.706871331
v 1.50026405 0.412928432 0.708971322
v 1.50026381 -0.412928402 0.708971322
v 1.50026381 0.412928432 0.729771316
v 1.49774361 0.413433045 0.731871307
v 1.49774361 -0.413456261 0.731871247
v 1.50026381 -0.412928402 0.729771316
v -1.3652724 -0.444166213 0.729721069
v -1.49782383 -0.41555503 0.729770362
v -1.49782383 -0.41555503 0.708970368
v -1.3652724 -0.444166213 0.708921075
v -1.23422861 -0.47135371 0.729590535
v -1.23422849 -0.47135371 0.708790541
v -1.10572302 -0.496419519 0.729409754
v -1.10572302 -0.496419519 0.70860976
v -0.978346586 -0.519192159 0.729208887
v -0.978346586 -0.519192159 0.708408892
v -0.850691259 -0.539500237 0.729018092
v -0.850691199 -0.539500237 0.708218098
v -0.721347749 -0.557172656 0.728867471
v -0.72134769 -0.557172656 0.708067477
v -0.588907182 -0.572037876 0.728787124
v -0.588907182 -0.572037876 0.70798713
v -0.4519611 -0.583924532 0.728807211
v -0.4519611 -0.583924532 0.708007216
v -0.30910024 -0.592661262 0.728957832
v -0.3091003 -0.592661262 0.708157837
v -0.158916205 -0.59807688 0.729269147
v -0.158916205 -0.59807688 0.708469152
v -1.16822768e-07 -0.599999785 0.729771316
v 1.37943792 0.443048358 0.729771316
v 1.49783576 0.415591478 0.729771316
v 1.49783576 0.415591538 0.708971322
v 1.37943792 0.443048447 0.708971322
v 1.25730681 0.469273567 0.729771316
v 1.25730681 0.469273716 0.708971322
v 1.13326716 0.493555784 0.729771316
v 1.13326716 0.493555784 0.708971322
v 1.00671697 0.515745819 0.729771316
v 1.00671697 0.515745938 0.708971322
v 0.877054334 0.535694957 0.729771316
v 0.877054334 0.535695016 0.708971322
v 0.743677258 0.553254485 0.729771316
v 0.743677258 0.553254604 0.708971322
v 0.605984092 0.568275511 0.729771316
v 0.605984092 0.568275571 0.708971322
v 0.463371456 0.580609441 0.729771316
v 0.463371456 0.5806095 0.708971322
v 0.315238059 0.590107322 0.729771316
v 0.315238237 0.590107441 0.708971322
v 0.160981789 0.596620381 0.729771316
v 0.160981938 0.5966205 0.708971322
v 1.12049754e-07 0.599999845 0.729771316
v 3.57686112e-08 0.599999845 0.708971322
v -0.159447059 0.599760115 0.729771316
v -0.159446985 0.599760115 0.708971322
v -0.30971393 0.595640123 0.729771316
v -0.30971393 0.595640182 0.708971322
v -0.452323407 0.58782804 0.729771316
v -0.452323407 0.587828159 0.708971322
v -0.588798106 0.576512456 0.729771316
v -0.588798106 0.576512516 0.708971322
v -0.720660746 0.561881721 0.729771316
v -0.720660686 0.56188184 0.708971322
v -0.849434376 0.544124365 0.729771316
v -0.849434495 0.544124544 0.708971322
v -0.976641715 0.523428738 0.729771316
v -0.976641715 0.523428738 0.708971322
v -1.10380554 0.499982655 0.729771316
v -1.10380554 0.499982715 0.708971322
v -1.23244858 0.473974943 0.729771316
v -1.23244858 0.473975033 0.708971322
v -1.36409378 0.445594221 0.729771316
v -1.36409378 0.445594221 0.708971322
v -1.49783015 0.41557467 0.729771316
v -1.49783015 0.41557467 0.708971322
v -4.05270804e-08 -0.599999785 0.708971322
v 0.160503417 -0.598272324 0.730273426
v 0.160503268 -0.598272324 0.709473431
v 0.314813882 -0.592974186 0.730584741
v 0.314813882 -0.592974186 0.709784746
v 0.463388085 -0.584289491 0.730735362
v 0.463387936 -0.584289491 0.709935367
v 0.606682479 -0.572402596 0.730755448
v 0.606682599 -0.572402596 0.709955454
v 0.745154142 -0.557498157 0.730675101
v 0.745154023 -0.557498157 0.709875107
v 0.879258633 -0.53976053 0.73052448
v 0.879258454 -0.53976053 0.709724486
v 1.00945342 -0.519374013 0.730333686
v 1.00945342 -0.519374013 0.709533691
v 1.13619506 -0.496523201 0.730132818
v 1.13619506 -0.496523201 0.709332824
v 1.25993907 -0.471392334 0.729952037
v 1.25993896 -0.471392334 0.709152043
v 1.38114357 -0.444165945 0.729821503
v 1.38114333 -0.444165945 0.709021509
v 1.49784589 -0.41561994 0.729772329
v 1.49784589 -0.41561988 0.708972335
v 1.38114333 -0.444165945 0.709021509
v 1.38046062 -0.442144424 0.706871808
v 1.49774396 -0.413456261 0.706871271
v 1.00945342 -0.519374013 0.709533691
v 1.00895405 -0.517315447 0.706877112
v 1.13563013 -0.494476467 0.706875026
v 1.13619506 -0.496523201 0.709332824
v 1.13563013 -0.494476467 0.706875026
v 1.25931239 -0.469358116 0.706873119
v 1.25993896 -0.471392334 0.709152043
v 1.25931239 -0.469358116 0.706873119
v 1.38046062 -0.442144424 0.706871808
v -0.978346586 -0.519192159 0.729208887
v -0.977845907 -0.517133892 0.731868088
v -1.1051712 -0.494370341 0.731869221
v -0.850691259 -0.539500237 0.729018092
v -0.8502509 -0.537432373 0.731867015
v -0.977845907 -0.517133892 0.731868088
v 0.879258454 -0.53976053 0.709724486
v 0.878828168 -0.537691176 0.706879079
v 1.00895405 -0.517315447 0.706877112
v 1.49774396 -0.413456261 0.706871271
v 1.49784589 -0.41561988 0.708972335
v 1.38114333 -0.444165945 0.709021509
v 1.49784589 -0.41561994 0.729772329
v 1.49774361 -0.413456261 0.731871247
v 1.38046062 -0.442144424 0.731871545
v -1.10572302 -0.496419519 0.729409754
v -1.1051712 -0.494370341 0.731869221
v -1.23363674 -0.4693124 0.731870234
v -0.721347749 -0.557172656 0.728867471
v -0.720975459 -0.555095494 0.731866181
v -0.8502509 -0.537432373 0.731867015
v 0.745154023 -0.557498157 0.709875107
v 0.744794965 -0.555419385 0.706880629
v 0.878828168 -0.537691176 0.706879079
v 1.38046062 -0.442144424 0.731871545
v 1.38114357 -0.444165945 0.729821503
v 1.49784589 -0.41561994 0.729772329
v -1.23422861 -0.47135371 0.729590535
v -1.23363674 -0.4693124 0.731870234
v -1.3646518 -0.442130864 0.731871009
v -0.588907182 -0.572037876 0.728787124
v -0.588608384 -0.569952428 0.731865704
v -0.720975459 -0.555095494 0.731866181
v 1.49783576 0.415591538 0.708971322
v 1.49774361 0.413433045 0.706871331
v 1.37878549 0.441019714 0.706871331
v 1.37943792 0.443048447 0.708971322
v 1.37943792 0.443048358 0.729771316
v 1.37878585 0.441019773 0.731871307
v 1.49774361 0.413433045 0.731871307
v 1.49783576 0.415591478 0.729771316
v -0.977845907 -0.517133892 0.731868088
v -0.978346586 -0.519192159 0.729208887
v -0.850691259 -0.539500237 0.729018092
v -0.8502509 -0.537432373 0.731867015
v -0.850691259 -0.539500237 0.729018092
v -0.721347749 -0.557172656 0.728867471
v 0.606682599 -0.572402596 0.709955454
v 0.606396079 -0.570315957 0.706881464
v 0.744794965 -0.555419385 0.706880629
v 1.00895405 -0.517315447 0.706877112
v 1.00945342 -0.519374013 0.709533691
v 0.879258454 -0.53976053 0.709724486
v 1.13563013 -0.494476467 0.706875026
v 1.13619506 -0.496523201 0.709332824
v 1.00945342 -0.519374013 0.709533691
v 1.38046062 -0.442144424 0.706871808
v 1.38114333 -0.444165945 0.709021509
v 1.25993896 -0.471392334 0.709152043
v 0.878828168 -0.537691176 0.706879079
v 0.879258454 -0.53976053 0.709724486
v 0.745154023 -0.557498157 0.709875107
v 1.25931239 -0.469358116 0.706873119
v 1.25993896 -0.471392334 0.709152043
v 1.13619506 -0.496523201 0.709332824
v -1.36409378 0.445594221 0.708971322
v -1.36345017 0.443563879 0.706871331
v -1.49774325 0.413419455 0.706871331
v -1.49783015 0.41557467 0.708971322
v -1.49783015 0.41557467 0.729771316
v -1.49774349 0.413419455 0.731871307
v -1.36345017 0.443563968 0.731871307
v -1.36409378 0.445594221 0.729771316
v -1.1051712 -0.494370341 0.731869221
v -1.10572302 -0.496419519 0.729409754
v -0.978346586 -0.519192159 0.729208887
v -0.720975459 -0.555095494 0.731866181
v -0.721347749 -0.557172656 0.728867471
v -0.588907182 -0.572037876 0.728787124
v 0.744794965 -0.555419385 0.706880629
v 0.745154023 -0.557498157 0.709875107
v 0.606682599 -0.572402596 0.709955454
v -1.3652724 -0.444166213 0.729721069
v -1.3646518 -0.442130864 0.731871009
v -1.49774349 -0.413403094 0.731871307
v -1.23363674 -0.4693124 0.731870234
v -1.23422861 -0.47135371 0.729590535
v -1.10572302 -0.496419519 0.729409754
v -1.23244858 0.473975033 0.708971322
v -1.23183572 0.471937984 0.706871331
v -1.36345017 0.443563879 0.706871331
v -1.36409378 0.445594221 0.708971322
v -1.36409378 0.445594221 0.729771316
v -1.36345017 0.443563968 0.731871307
v -1.23183572 0.471937984 0.731871307
v -1.23183572 0.471937984 0.731871307
v -1.23244858 0.473974943 0.729771316
v -1.36409378 0.445594221 0.729771316
v -0.4519611 -0.583924532 0.728807211
v -0.451738089 -0.581832528 0.731865823
v -0.588608384 -0.569952428 0.731865704
v -0.588608384 -0.569952428 0.731865704
v -0.588907182 -0.572037876 0.728787124
v -0.4519611 -0.583924532 0.728807211
v 1.38114357 -0.444165945 0.729821503
v 1.38046062 -0.442144424 0.731871545
v 1.25931239 -0.469358116 0.73187232
v -1.49782383 -0.41555503 0.708970368
v -1.49774349 -0.413403094 0.706871271
v -1.3646518 -0.442130893 0.706870735
v -1.49774349 -0.413403094 0.731871307
v -1.49782383 -0.41555503 0.729770362
v -1.3652724 -0.444166213 0.729721069
v 0.463387936 -0.584289491 0.709935367
v 0.463175088 -0.582196772 0.706881285
v 0.606396079 -0.570315957 0.706881464
v 0.606396079 -0.570315957 0.706881464
v 0.606682599 -0.572402596 0.709955454
v 0.463387936 -0.584289491 0.709935367
v 1.37943792 0.443048447 0.708971322
v 1.37878549 0.441019714 0.706871331
v 1.25670409 0.467234373 0.706871331
v 1.25730681 0.469273716 0.708971322
v 1.25730681 0.469273567 0.729771316
v 1.25670409 0.467234373 0.731871307
v 1.37878585 0.441019773 0.731871307
v 1.37943792 0.443048358 0.729771316
v -1.3646518 -0.442130864 0.731871009
v -1.3652724 -0.444166213 0.729721069
v -1.23422861 -0.47135371 0.729590535
v -1.3646518 -0.442130893 0.706870735
v -1.3652724 -0.444166213 0.708921075
v -1.49782383 -0.41555503 0.708970368
v -0.451738089 -0.581832528 0.731865823
v -0.4519611 -0.583924532 0.728807211
v -0.30910024 -0.592661262 0.728957832
v -1.10380554 0.499982715 0.708971322
v -1.10323596 0.497936904 0.706871331
v -1.23183572 0.471937984 0.706871331
v -1.23183572 0.471937984 0.706871331
v -1.23244858 0.473975033 0.708971322
v -1.10380554 0.499982715 0.708971322
v -1.23244858 0.473974943 0.729771316
v -1.23183572 0.471937984 0.731871307
v -1.10323596 0.497936815 0.731871307
v -1.10380554 0.499982655 0.729771316
v 0.463175088 -0.582196772 0.706881285
v 0.463387936 -0.584289491 0.709935367
v 0.314813882 -0.592974186 0.709784746
v -1.3652724 -0.444166213 0.708921075
v -1.3646518 -0.442130893 0.706870735
v -1.23363674 -0.4693124 0.706869423
v 1.25931239 -0.469358116 0.73187232
v 1.25993907 -0.471392334 0.729952037
v 1.38114357 -0.444165945 0.729821503
v 1.25730681 0.469273716 0.708971322
v 1.25670409 0.467234373 0.706871331
v 1.13271892 0.491505861 0.706871331
v 1.13326716 0.493555784 0.708971322
v 1.13326716 0.493555784 0.729771316
v 1.13271892 0.491505861 0.731871307
v 1.25670409 0.467234373 0.731871307
v 1.25730681 0.469273567 0.729771316
v -0.30910024 -0.592661262 0.728957832
v -0.308953434 -0.590564609 0.731866658
v -0.451738089 -0.581832528 0.731865823
v 0.314813882 -0.592974186 0.709784746
v 0.314673662 -0.590877175 0.706879675
v 0.463175088 -0.582196772 0.706881285
v -0.976641715 0.523428738 0.708971322
v -0.976127923 0.521372616 0.706871331
v -1.10323596 0.497936904 0.706871331
v -1.10380554 0.499982715 0.708971322
v -1.10380554 0.499982655 0.729771316
v -1.10323596 0.497936815 0.731871307
v -0.976127923 0.521372616 0.731871307
v -0.976641715 0.523428738 0.729771316
v -0.308953434 -0.590564609 0.731866658
v -0.30910024 -0.592661262 0.728957832
v -0.158916205 -0.59807688 0.729269147
v 0.314673662 -0.590877175 0.706879675
v 0.314813882 -0.592974186 0.709784746
v 0.160503268 -0.598272324 0.709473431
v -1.23363674 -0.4693124 0.706869423
v -1.23422849 -0.47135371 0.708790541
v -1.3652724 -0.444166213 0.708921075
v 1.13326716 0.493555784 0.708971322
v 1.13271892 0.491505861 0.706871331
v 1.00622857 0.513685465 0.706871331
v 1.00671697 0.515745938 0.708971322
v 1.00671697 0.515745819 0.729771316
v 1.00622857 0.513685465 0.731871307
v 1.13271892 0.491505861 0.731871307
v 1.13326716 0.493555784 0.729771316
v 1.25993907 -0.471392334 0.729952037
v 1.25931239 -0.469358116 0.73187232
v 1.13563013 -0.494476467 0.731873333
v -0.849434495 0.544124544 0.708971322
v -0.848986983 0.542057633 0.706871331
v -0.976127923 0.521372616 0.706871331
v -0.976641715 0.523428738 0.708971322
v -0.976641715 0.523428738 0.729771316
v -0.976127923 0.521372616 0.731871307
v -0.848987103 0.542057574 0.731871307
v -0.848987103 0.542057574 0.731871307
v -0.849434376 0.544124365 0.729771316
v -0.976641715 0.523428738 0.729771316
v -1.23422849 -0.47135371 0.708790541
v -1.23363674 -0.4693124 0.706869423
v -1.10517132 -0.494370341 0.706867516
v -0.158916205 -0.59807688 0.729269147
v -0.158843502 -0.595977485 0.731868446
v -0.308953434 -0.590564609 0.731866658
v 0.160503268 -0.598272324 0.709473431
v 0.160434917 -0.596172869 0.706876457
v 0.314673662 -0.590877175 0.706879675
v 1.00671697 0.515745938 0.708971322
v 1.00622857 0.513685465 0.706871331
v 0.876628757 0.533624947 0.706871331
v 0.877054334 0.535695016 0.708971322
v 0.877054334 0.535694957 0.729771316
v 0.876628757 0.533625007 0.731871307
v 1.00622857 0.513685465 0.731871307
v 1.00671697 0.515745819 0.729771316
v -0.158843502 -0.595977485 0.731868446
v -0.158916205 -0.59807688 0.729269147
v -1.16822768e-07 -0.599999785 0.729771316
v 0.160434917 -0.596172869 0.706876457
v 0.160503268 -0.598272324 0.709473431
v -4.05270804e-08 -0.599999785 0.708971322
v -0.720660686 0.56188184 0.708971322
v -0.720288515 0.559804499 0.706871331
v -0.848986983 0.542057633 0.706871331
v -0.849434495 0.544124544 0.708971322
v -0.849434376 0.544124365 0.729771316
v -0.848987103 0.542057574 0.731871307
v -0.720288575 0.559804499 0.731871307
v -0.720660746 0.561881721 0.729771316
v 0.877054334 0.535695016 0.708971322
v 0.876628757 0.533624947 0.706871331
v 0.743317306 0.551176012 0.706871331
v 0.743677258 0.553254604 0.708971322
v 0.743677258 0.553254485 0.729771316
v 0.743317127 0.551175833 0.731871307
v 0.876628757 0.533625007 0.731871307
v 0.877054334 0.535694957 0.729771316
v 1.13563013 -0.494476467 0.731873333
v 1.13619506 -0.496523201 0.730132818
v 1.25993907 -0.471392334 0.729952037
v -0.588798106 0.576512516 0.708971322
v -0.588506818 0.574426353 0.706871331
v -0.720288515 0.559804499 0.706871331
v -0.720660686 0.56188184 0.708971322
v -0.720660746 0.561881721 0.729771316
v -0.720288575 0.559804499 0.731871307
v -0.588506877 0.574426353 0.731871307
v -0.588798106 0.576512456 0.729771316
v -1.10517132 -0.494370341 0.706867516
v -1.10572302 -0.496419519 0.70860976
v -1.23422849 -0.47135371 0.708790541
v 0.743677258 0.553254604 0.708971322
v 0.743317306 0.551176012 0.706871331
v 0.605690062 0.566189706 0.706871331
v 0.605984092 0.568275571 0.708971322
v 0.605984092 0.568275511 0.729771316
v 0.605690062 0.566189706 0.731871307
v 0.743317127 0.551175833 0.731871307
v 0.743677258 0.553254485 0.729771316
v -0.452323407 0.587828159 0.708971322
v -0.452115893 0.585734904 0.706871331
v -0.588506818 0.574426353 0.706871331
v -0.588798106 0.576512516 0.708971322
v -0.588798106 0.576512456 0.729771316
v -0.588506877 0.574426353 0.731871307
v -0.452115893 0.585734904 0.731871307
v -0.452323407 0.58782804 0.729771316
v 1.13619506 -0.496523201 0.730132818
v 1.13563013 -0.494476467 0.731873333
v 1.00895405 -0.517315447 0.731874466
v 0.605984092 0.568275571 0.708971322
v 0.605690062 0.566189706 0.706871331
v 0.463144571 0.578517854 0.706871331
v 0.463371456 0.5806095 0.708971322
v 0.463371456 0.580609441 0.729771316
v 0.463144571 0.578517854 0.731871307
v 0.605690062 0.566189706 0.731871307
v 0.605984092 0.568275511 0.729771316
v -1.10572302 -0.496419519 0.70860976
v -1.10517132 -0.494370341 0.706867516
v -0.977845907 -0.517133892 0.70686543
v -0.30971393 0.595640182 0.708971322
v -0.309589893 0.593542337 0.706871331
v -0.452115893 0.585734904 0.706871331
v -0.452115893 0.585734904 0.706871331
v -0.452323407 0.587828159 0.708971322
v -0.30971393 0.595640182 0.708971322
v -0.452323407 0.58782804 0.729771316
v -0.452115893 0.585734904 0.731871307
v -0.309589893 0.593542397 0.731871307
v -0.30971393 0.595640123 0.729771316
v 0.463371456 0.5806095 0.708971322
v 0.463144571 0.578517854 0.706871331
v 0.315077394 0.588011444 0.706871331
v 0.315238237 0.590107441 0.708971322
v 0.315238059 0.590107322 0.729771316
v 0.315077394 0.588011444 0.731871307
v 0.463144571 0.578517854 0.731871307
v 0.463371456 0.580609441 0.729771316
v 0.315238237 0.590107441 0.708971322
v 0.315077394 0.588011444 0.706871331
v 0.160886273 0.594521701 0.706871331
v 0.160981938 0.5966205 0.708971322
v 0.160981789 0.596620381 0.729771316
v 0.160886273 0.594521701 0.731871307
v 0.315077394 0.588011444 0.731871307
v 0.315238059 0.590107322 0.729771316
v -0.159446985 0.599760115 0.708971322
v -0.159403339 0.597660124 0.706871331
v -0.309589893 0.593542337 0.706871331
v -0.30971393 0.595640182 0.708971322
v -0.30971393 0.595640123 0.729771316
v -0.309589893 0.593542397 0.731871307
v -0.159403339 0.597660184 0.731871307
v -0.159447059 0.599760115 0.729771316
v 0.160981938 0.5966205 0.708971322
v 0.160886273 0.594521701 0.706871331
v -2.94136989e-05 0.597899795 0.706871331
v -2.94136989e-05 0.597899795 0.706871331
v 3.57686112e-08 0.599999845 0.708971322
v 0.160981938 0.5966205 0.708971322
v 1.12049754e-07 0.599999845 0.729771316
v -2.94136989e-05 0.597899854 0.731871307
v 0.160886273 0.594521701 0.731871307
v 0.160981789 0.596620381 0.729771316
v 3.57686112e-08 0.599999845 0.708971322
v -2.94136989e-05 0.597899795 0.706871331
v -0.159403339 0.597660124 0.706871331
v -0.159446985 0.599760115 0.708971322
v -0.159447059 0.599760115 0.729771316
v -0.159403339 0.597660184 0.731871307
v -2.94136989e-05 0.597899854 0.731871307
v 1.12049754e-07 0.599999845 0.729771316
v 2.01939838e-06 -0.597899616 0.706871271
v -4.05270804e-08 -0.599999785 0.708971322
v -0.158916205 -0.59807688 0.708469152
v -1.16822768e-07 -0.599999785 0.729771316
v 1.94311724e-06 -0.597899616 0.731871247
v -0.158843502 -0.595977485 0.731868446
v -4.05270804e-08 -0.599999785 0.708971322
v 2.01939838e-06 -0.597899616 0.706871271
v 0.160434917 -0.596172869 0.706876457
v 1.94311724e-06 -0.597899616 0.731871247
v -1.16822768e-07 -0.599999785 0.729771316
v 0.160503417 -0.598272324 0.730273426
v 1.00895405 -0.517315447 0.731874466
v 1.00945342 -0.519374013 0.730333686
v 1.13619506 -0.496523201 0.730132818
v -0.977845907 -0.517133892 0.70686543
v -0.978346586 -0.519192159 0.708408892
v -1.10572302 -0.496419519 0.70860976
v -0.978346586 -0.519192159 0.708408892
v -0.977845907 -0.517133892 0.70686543
v -0.85025084 -0.537432373 0.706863463
v 1.00945342 -0.519374013 0.730333686
v 1.00895405 -0.517315447 0.731874466
v 0.878827989 -0.537691176 0.731875539
v -0.158843651 -0.595977485 0.706866086
v -0.158916205 -0.59807688 0.708469152
v -0.3091003 -0.592661262 0.708157837
v 0.160435215 -0.596172869 0.731874108
v 0.160503417 -0.598272324 0.730273426
v 0.314813882 -0.592974186 0.730584741
v -0.158916205 -0.59807688 0.708469152
v -0.158843651 -0.595977485 0.706866086
v 2.01939838e-06 -0.597899616 0.706871271
v 0.160503417 -0.598272324 0.730273426
v 0.160435215 -0.596172869 0.731874108
v 1.94311724e-06 -0.597899616 0.731871247
v -0.85025084 -0.537432373 0.706863463
v -0.850691199 -0.539500237 0.708218098
v -0.978346586 -0.519192159 0.708408892
v 0.878827989 -0.537691176 0.731875539
v 0.879258633 -0.53976053 0.73052448
v 1.00945342 -0.519374013 0.730333686
v -0.850691199 -0.539500237 0.708218098
v -0.85025084 -0.537432373 0.706863463
v -0.720975459 -0.555095494 0.706861913
v 0.879258633 -0.53976053 0.73052448
v 0.878827989 -0.537691176 0.731875539
v 0.744794667 -0.555419385 0.731876373
v -0.720975459 -0.555095494 0.706861913
v -0.72134769 -0.557172656 0.708067477
v -0.850691199 -0.539500237 0.708218098
v 0.744794667 -0.555419385 0.731876373
v 0.745154142 -0.557498157 0.730675101
v 0.879258633 -0.53976053 0.73052448
v -0.308953583 -0.590564609 0.706862867
v -0.3091003 -0.592661262 0.708157837
v -0.4519611 -0.583924532 0.708007216
v 0.314673662 -0.590877175 0.731875837
v 0.314813882 -0.592974186 0.730584741
v 0.463388085 -0.584289491 0.730735362
v -0.3091003 -0.592661262 0.708157837
v -0.308953583 -0.590564609 0.706862867
v -0.158843651 -0.595977485 0.706866086
v -0.72134769 -0.557172656 0.708067477
v -0.720975459 -0.555095494 0.706861913
v -0.588608265 -0.569952428 0.706861079
v 0.314813882 -0.592974186 0.730584741
v 0.314673662 -0.590877175 0.731875837
v 0.160435215 -0.596172869 0.731874108
v 0.745154142 -0.557498157 0.730675101
v 0.744794667 -0.555419385 0.731876373
v 0.606396198 -0.570315957 0.731876791
v -0.588608265 -0.569952428 0.706861079
v -0.588907182 -0.572037876 0.70798713
v -0.72134769 -0.557172656 0.708067477
v -0.451738179 -0.581832528 0.706861258
v -0.4519611 -0.583924532 0.708007216
v -0.588907182 -0.572037876 0.70798713
v 0.606396198 -0.570315957 0.731876791
v 0.606682479 -0.572402596 0.730755448
v 0.745154142 -0.557498157 0.730675101
v 0.463175088 -0.582196772 0.731876731
v 0.463388085 -0.584289491 0.730735362
v 0.606682479 -0.572402596 0.730755448
v -0.588907182 -0.572037876 0.70798713
v -0.588608265 -0.569952428 0.706861079
v -0.451738179 -0.581832528 0.706861258
v -0.4519611 -0.583924532 0.708007216
v -0.451738179 -0.581832528 0.706861258
v -0.308953583 -0.590564609 0.706862867
v 0.463388085 -0.584289491 0.730735362
v 0.463175088 -0.582196772 0.731876731
v 0.314673662 -0.590877175 0.731875837
v 0.606682479 -0.572402596 0.730755448
v 0.606396198 -0.570315957 0.731876791
v 0.463175088 -0.582196772 0.731876731
v 1.37878549 0.441019714 0.706871331
v 1.49774361 0.413433045 0.706871331
v 1.49774396 -0.413456261 0.706871271
v 1.38046062 -0.442144424 0.706871808
v 1.25670409 0.467234373 0.706871331
v 1.25931239 -0.469358116 0.706873119
v 1.13271892 0.491505861 0.706871331
v 1.13563013 -0.494476467 0.706875026
v 1.00622857 0.513685465 0.706871331
v 1.00895405 -0.517315447 0.706877112
v 0.878828168 -0.537691176 0.706879079
v 0.876628757 0.533624947 0.706871331
v 0.744794965 -0.555419385 0.706880629
v 0.743317306 0.551176012 0.706871331
v 0.606396079 -0.570315957 0.706881464
v 0.605690062 0.566189706 0.706871331
v 0.463175088 -0.582196772 0.706881285
v 0.463144571 0.578517854 0.706871331
v 0.314673662 -0.590877175 0.706879675
v 0.315077394 0.588011444 0.706871331
v 0.160434917 -0.596172869 0.706876457
v 0.160886273 0.594521701 0.706871331
v 2.01939838e-06 -0.597899616 0.706871271
v -2.94136989e-05 0.597899795 0.706871331
v -0.158843651 -0.595977485 0.706866086
v -0.159403339 0.597660124 0.706871331
v -0.308953583 -0.590564609 0.706862867
v -0.309589893 0.593542337 0.706871331
v -0.451738179 -0.581832528 0.706861258
v -0.452115893 0.585734904 0.706871331
v -0.588608265 -0.569952428 0.706861079
v -0.588506818 0.574426353 0.706871331
v -0.720975459 -0.555095494 0.706861913
v -0.720288515 0.559804499 0.706871331
v -0.848986983 0.542057633 0.706871331
v -0.85025084 -0.537432373 0.706863463
v -0.976127923 0.521372616 0.706871331
v -0.977845907 -0.517133892 0.70686543
v -1.10323596 0.497936904 0.706871331
v -1.10517132 -0.494370341 0.706867516
v -1.23183572 0.471937984 0.706871331
v -1.23363674 -0.4693124 0.706869423
v -1.36345017 0.443563879 0.706871331
v -1.3646518 -0.442130893 0.706870735
v -1.49774325 0.413419455 0.706871331
v -1.49774349 -0.413403094 0.706871271
v -1.49774349 0.413419455 0.731871307
v -1.49774349 -0.413403094 0.731871307
v -1.3646518 -0.442130864 0.731871009
v -1.36345017 0.443563968 0.731871307
v -1.23363674 -0.4693124 0.731870234
v -1.23183572 0.471937984 0.731871307
v -1.1051712 -0.494370341 0.731869221
v -1.10323596 0.497936815 0.731871307
v -0.977845907 -0.517133892 0.731868088
v -0.976127923 0.521372616 0.731871307
v -0.8502509 -0.537432373 0.731867015
v -0.848987103 0.542057574 0.731871307
v -0.720975459 -0.555095494 0.731866181
v -0.720288575 0.559804499 0.731871307
v -0.588506877 0.574426353 0.731871307
v -0.588608384 -0.569952428 0.731865704
v -0.452115893 0.585734904 0.731871307
v -0.451738089 -0.581832528 0.731865823
v -0.309589893 0.593542397 0.731871307
v -0.308953434 -0.590564609 0.731866658
v -0.159403339 0.597660184 0.731871307
v -0.158843502 -0.595977485 0.731868446
v -2.94136989e-05 0.597899854 0.731871307
v 1.94311724e-06 -0.597899616 0.731871247
v 0.160886273 0.594521701 0.731871307
v 0.160435215 -0.596172869 0.731874108
v 0.315077394 0.588011444 0.731871307
v 0.314673662 -0.590877175 0.731875837
v 0.463144571 0.578517854 0.731871307
v 0.463175088 -0.582196772 0.731876731
v 0.605690062 0.566189706 0.731871307
v 0.606396198 -0.570315957 0.731876791
v 0.743317127 0.551175833 0.731871307
v 0.744794667 -0.555419385 0.731876373
v 0.876628757 0.533625007 0.731871307
v 0.878827989 -0.537691176 0.731875539
v 1.00622857 0.513685465 0.731871307
v 1.00895405 -0.517315447 0.731874466
v 1.13563013 -0.494476467 0.731873333
v 1.13271892 0.491505861 0.731871307
v 1.25931239 -0.469358116 0.73187232
v 1.25670409 0.467234373 0.731871307
v 1.38046062 -0.442144424 0.731871545
v 1.37878585 0.441019773 0.731871307
v 1.49774361 -0.413456261 0.731871247
v 1.49774361 0.413433045 0.731871307
vt 0.510402322 0.912928283
vt 0.510402322 0.087071538
vt 0.489602327 0.087071538
vt 0.489602387 0.912928283
vt 0.489602327 0.087071538
vt 0.489602387 0.912928283
vt 0.510402322 0.912928283
vt 0.510402322 0.087071538
vt 0.489602327 0.084425211
vt 0.489602327 0.087071538
vt 0.510402322 0.087071538
vt 0.510402322 0.084425211
vt 0.489602387 0.912928283
vt 0.489601433 0.915554941
vt 0.510401487 0.915554941
vt 0.510402322 0.912928283
vt 0.5103966 0.915620267
vt 0.510402322 0.912928283
vt 0.489602387 0.912928283
vt 0.489596605 0.915620327
vt 0.489597678 0.0844089389
vt 0.489602327 0.087071538
vt 0.510402322 0.087071538
vt 0.510397673 0.0844088793
vt 0.487502337 0.0865804553
vt 0.489602327 0.087071538
vt 0.489602327 0.084425211
vt 0.510402322 0.087071538
vt 0.512502313 0.0865804553
vt 0.510402322 0.084425211
vt 0.487502337 0.913403034
vt 0.489601433 0.915554941
vt 0.489602387 0.912928283
vt 0.510402322 0.912928283
vt 0.5103966 0.915620267
vt 0.512497663 0.913456678
vt 0.510401487 0.915554941
vt 0.512502313 0.913403034
vt 0.510402322 0.912928283
vt 0.489602387 0.912928283
vt 0.487497658 0.913456678
vt 0.489596605 0.915620327
vt 0.510397673 0.0844088793
vt 0.510402322 0.087071538
vt 0.512497663 0.0865674019
vt 0.489597678 0.0844089389
vt 0.487497658 0.0865674019
vt 0.489602327 0.087071538
vt 0.912928462 2.00049114
vt 0.913419545 1.99797058
vt 0.0865969956 1.99797094
vt 0.0870717168 2.00049114
vt 0.912928462 2.00049114
vt 0.913403034 1.99797094
vt 0.0865804553 1.9979707
vt 0.0870717168 2.00049114
vt 0.0870712399 -1.00003624
vt 0.0865433514 -0.997516274
vt 0.913432598 -0.997516274
vt 0.913432598 -0.997516274
vt 0.912927985 -1.00003672
vt 0.0870712399 -1.00003624
vt 0.0870712399 -1.00003624
vt 0.0865674019 -0.997516274
vt 0.913456678 -0.997516036
vt 0.912927985 -1.00003672
vt 0.489647835 1.86549997
vt 0.489598542 1.9980514
vt 0.510398567 1.9980514
vt 0.51044786 1.86549997
vt 0.489778399 1.73445606
vt 0.510578394 1.73445606
vt 0.489959151 1.60595059
vt 0.510759175 1.60595059
vt 0.490160018 1.47857404
vt 0.510959983 1.47857404
vt 0.490350813 1.35091877
vt 0.511150837 1.35091853
vt 0.490501463 1.22157526
vt 0.511301458 1.22157514
vt 0.49058181 1.08913469
vt 0.511381805 1.08913469
vt 0.490561724 0.952188611
vt 0.511361718 0.952188611
vt 0.490411073 0.809327722
vt 0.511211097 0.809327781
vt 0.490099758 0.659143686
vt 0.510899782 0.659143686
vt 0.489602327 0.500227273
vt 0.510402322 -0.879210591
vt 0.510402322 -0.997608423
vt 0.489602327 -0.997608423
vt 0.489602327 -0.879210591
vt 0.510402322 -0.757079363
vt 0.489602327 -0.757079363
vt 0.510402322 -0.633039832
vt 0.489602327 -0.633039832
vt 0.510402322 -0.506489635
vt 0.489602327 -0.506489635
vt 0.510402322 -0.376827002
vt 0.489602327 -0.376827002
vt 0.510402322 -0.243449926
vt 0.489602327 -0.243449926
vt 0.510402322 -0.10575676
vt 0.489602327 -0.10575676
vt 0.510402322 0.0368558168
vt 0.489602327 0.0368558168
vt 0.510402322 0.184989214
vt 0.489602327 0.184989095
vt 0.510402322 0.339245498
vt 0.489602327 0.339245379
vt 0.510402322 0.500227213
vt 0.489602327 0.500227273
vt 0.510402322 0.659674346
vt 0.489602327 0.659674287
vt 0.510402322 0.809941232
vt 0.489602327 0.809941232
vt 0.510402322 0.952550709
vt 0.489602327 0.952550709
vt 0.510402322 1.0890255
vt 0.489602327 1.0890255
vt 0.510402322 1.22088814
vt 0.489602327 1.2208879
vt 0.510402322 1.34966171
vt 0.489602327 1.34966183
vt 0.510402322 1.47686911
vt 0.489602327 1.47686911
vt 0.510402322 1.60403287
vt 0.489602327 1.60403287
vt 0.510402322 1.73267591
vt 0.489602327 1.73267591
vt 0.510402322 1.86432111
vt 0.489602327 1.86432111
vt 0.510402322 1.99805737
vt 0.489602327 1.99805737
vt 0.510402322 0.500227213
vt 0.489095509 0.339724064
vt 0.509895504 0.339724183
vt 0.488784164 0.185413599
vt 0.509584188 0.185413599
vt 0.488633543 0.036839366
vt 0.509433508 0.0368395448
vt 0.488613456 -0.106455088
vt 0.509413481 -0.106455088
vt 0.488693804 -0.244926691
vt 0.509493768 -0.244926453
vt 0.488844424 -0.379031181
vt 0.509644449 -0.379030943
vt 0.489035249 -0.509225726
vt 0.509835243 -0.509225726
vt 0.489236087 -0.635967374
vt 0.510036111 -0.635967374
vt 0.489416867 -0.759711504
vt 0.510216892 -0.759711266
vt 0.489547431 -0.880915999
vt 0.510347426 -0.880915642
vt 0.489596605 -0.997618198
vt 0.5103966 -0.997618198
vt 0.0558336973 -0.880915642
vt 0.0578552186 -0.880233049
vt 0.0865433514 -0.997516274
vt 0.509835243 -0.509225726
vt 0.512491822 -0.508726478
vt 0.512493908 -0.63540256
vt 0.510036111 -0.635967374
vt 0.512493908 -0.63540256
vt 0.512495756 -0.759084821
vt 0.510216892 -0.759711266
vt 0.512495756 -0.759084821
vt 0.512497127 -0.880233049
vt 0.490160018 1.47857404
vt 0.487500817 1.47807336
vt 0.487499684 1.60539877
vt 0.490350813 1.35091877
vt 0.487501889 1.35047841
vt 0.487500817 1.47807336
vt 0.509644449 -0.379030943
vt 0.512489855 -0.378600717
vt 0.512491822 -0.508726478
vt 0.0865433514 -0.997516274
vt 0.0843797326 -0.997618198
vt 0.0558336973 -0.880915642
vt 0.915620327 -0.997618198
vt 0.913456678 -0.997516036
vt 0.942144752 -0.880233049
vt 0.489959151 1.60595059
vt 0.487499684 1.60539877
vt 0.487498671 1.73386431
vt 0.490501463 1.22157526
vt 0.487502754 1.22120285
vt 0.487501889 1.35047841
vt 0.509493768 -0.244926453
vt 0.512488306 -0.244567513
vt 0.512489855 -0.378600717
vt 0.942144752 -0.880233049
vt 0.944166303 -0.880915999
vt 0.915620327 -0.997618198
vt 0.489778399 1.73445606
vt 0.487498671 1.73386431
vt 0.487497926 1.86487937
vt 0.49058181 1.08913469
vt 0.487503201 1.08883572
vt 0.487502754 1.22120285
vt 0.915591121 -0.997608423
vt 0.913432598 -0.997516274
vt 0.941019297 -0.878558159
vt 0.94304806 -0.879210591
vt 0.0569519997 -0.879210591
vt 0.0589805841 -0.878558397
vt 0.0865674019 -0.997516274
vt 0.0844089389 -0.997608423
vt 0.487500817 1.47807336
vt 0.490160018 1.47857404
vt 0.490350813 1.35091877
vt 0.487501889 1.35047841
vt 0.490350813 1.35091877
vt 0.490501463 1.22157526
vt 0.509413481 -0.106455088
vt 0.512487471 -0.106168509
vt 0.512488306 -0.244567513
vt 0.512491822 -0.508726478
vt 0.509835243 -0.509225726
vt 0.509644449 -0.379030943
vt 0.512493908 -0.63540256
vt 0.510036111 -0.635967374
vt 0.509835243 -0.509225726
vt 0.512497127 -0.880233049
vt 0.510347426 -0.880915642
vt 0.510216892 -0.759711266
vt 0.512489855 -0.378600717
vt 0.509644449 -0.379030943
vt 0.509493768 -0.244926453
vt 0.512495756 -0.759084821
vt 0.510216892 -0.759711266
vt 0.510036111 -0.635967374
vt 0.945594251 1.86432111
vt 0.943563938 1.8636775
vt 0.913419545 1.99797058
vt 0.915574789 1.99805737
vt 0.084425211 1.99805737
vt 0.0865804553 1.9979707
vt 0.0564360023 1.8636775
vt 0.0544057488 1.86432111
vt 0.487499684 1.60539877
vt 0.489959151 1.60595059
vt 0.490160018 1.47857404
vt 0.487502754 1.22120285
vt 0.490501463 1.22157526
vt 0.49058181 1.08913469
vt 0.512488306 -0.244567513
vt 0.509493768 -0.244926453
vt 0.509413481 -0.106455088
vt 0.944166183 1.86549997
vt 0.942130804 1.86487937
vt 0.913403034 1.99797094
vt 0.487498671 1.73386431
vt 0.489778399 1.73445606
vt 0.489959151 1.60595059
vt 0.973975062 1.73267591
vt 0.971938014 1.73206294
vt 0.943563938 1.8636775
vt 0.945594251 1.86432111
vt 0.0544057488 1.86432111
vt 0.0564360023 1.8636775
vt 0.028061986 1.73206294
vt 0.028061986 1.73206294
vt 0.0260250568 1.73267591
vt 0.0544057488 1.86432111
vt 0.490561724 0.952188611
vt 0.487503082 0.95196557
vt 0.487503201 1.08883572
vt 0.487503201 1.08883572
vt 0.49058181 1.08913469
vt 0.490561724 0.952188611
vt 0.944166303 -0.880915999
vt 0.942144752 -0.880233049
vt 0.969358444 -0.759084821
vt 0.0844450593 1.9980514
vt 0.0865969956 1.99797094
vt 0.0578691661 1.86487937
vt 0.913403034 1.99797094
vt 0.915554941 1.9980514
vt 0.944166183 1.86549997
vt 0.509433508 0.0368395448
vt 0.51248765 0.037052393
vt 0.512487471 -0.106168509
vt 0.512487471 -0.106168509
vt 0.509413481 -0.106455088
vt 0.509433508 0.0368395448
vt 0.94304806 -0.879210591
vt 0.941019297 -0.878558159
vt 0.967234015 -0.756476641
vt 0.969273388 -0.757079363
vt 0.0307267904 -0.757079363
vt 0.0327659845 -0.756476641
vt 0.0589805841 -0.878558397
vt 0.0569519997 -0.879210591
vt 0.487497926 1.86487937
vt 0.489647835 1.86549997
vt 0.489778399 1.73445606
vt 0.0578691661 1.86487937
vt 0.0558338463 1.86549997
vt 0.0844450593 1.9980514
vt 0.487503082 0.95196557
vt 0.490561724 0.952188611
vt 0.490411073 0.809327722
vt 0.999982715 1.60403287
vt 0.997936904 1.60346329
vt 0.971938014 1.73206294
vt 0.971938014 1.73206294
vt 0.973975062 1.73267591
vt 0.999982715 1.60403287
vt 0.0260250568 1.73267591
vt 0.028061986 1.73206294
vt 0.00206315517 1.60346329
vt 1.73449516e-05 1.60403287
vt 0.51248765 0.037052393
vt 0.509433508 0.0368395448
vt 0.509584188 0.185413599
vt 0.0558338463 1.86549997
vt 0.0578691661 1.86487937
vt 0.0306876302 1.73386431
vt 0.969358444 -0.759084821
vt 0.971392632 -0.759711504
vt 0.944166303 -0.880915999
vt 0.969273388 -0.757079363
vt 0.967234015 -0.756476641
vt 0.991505504 -0.632491589
vt 0.993555427 -0.633039832
vt 0.0064445734 -0.633039832
vt 0.00849449635 -0.632491589
vt 0.0327659845 -0.756476641
vt 0.0307267904 -0.757079363
vt 0.490411073 0.809327722
vt 0.487502247 0.809180915
vt 0.487503082 0.95196557
vt 0.509584188 0.185413599
vt 0.5124892 0.185553849
vt 0.51248765 0.037052393
vt 1.02342868 1.47686911
vt 1.02137256 1.4763552
vt 0.997936904 1.60346329
vt 0.999982715 1.60403287
vt 1.73449516e-05 1.60403287
vt 0.00206315517 1.60346329
vt -0.0213725567 1.4763552
vt -0.0234286785 1.47686911
vt 0.487502247 0.809180915
vt 0.490411073 0.809327722
vt 0.490099758 0.659143686
vt 0.5124892 0.185553849
vt 0.509584188 0.185413599
vt 0.509895504 0.339724183
vt 0.0306876302 1.73386431
vt 0.0286463201 1.73445606
vt 0.0558338463 1.86549997
vt 0.993555427 -0.633039832
vt 0.991505504 -0.632491589
vt 1.01368499 -0.506001234
vt 1.01574552 -0.506489635
vt -0.0157454014 -0.506489635
vt -0.013684988 -0.506001234
vt 0.00849449635 -0.632491589
vt 0.0064445734 -0.633039832
vt 0.971392632 -0.759711504
vt 0.969358444 -0.759084821
vt 0.994476795 -0.63540256
vt 1.04412436 1.34966183
vt 1.04205751 1.34921432
vt 1.02137256 1.4763552
vt 1.02342868 1.47686911
vt -0.0234286785 1.47686911
vt -0.0213725567 1.4763552
vt -0.0420575142 1.34921432
vt -0.0420575142 1.34921432
vt -0.0441243649 1.34966171
vt -0.0234286785 1.47686911
vt 0.0286463201 1.73445606
vt 0.0306876302 1.73386431
vt 0.0056296885 1.60539889
vt 0.490099758 0.659143686
vt 0.487500489 0.659070969
vt 0.487502247 0.809180915
vt 0.509895504 0.339724183
vt 0.512492478 0.339792609
vt 0.5124892 0.185553849
vt 1.01574552 -0.506489635
vt 1.01368499 -0.506001234
vt 1.03362465 -0.376401424
vt 1.03569472 -0.376827002
vt -0.0356945992 -0.376827002
vt -0.033624649 -0.376401424
vt -0.013684988 -0.506001234
vt -0.0157454014 -0.506489635
vt 0.487500489 0.659070969
vt 0.490099758 0.659143686
vt 0.489602327 0.500227273
vt 0.512492478 0.339792609
vt 0.509895504 0.339724183
vt 0.510402322 0.500227213
vt 1.06188178 1.2208879
vt 1.05980444 1.22051585
vt 1.04205751 1.34921432
vt 1.04412436 1.34966183
vt -0.0441243649 1.34966171
vt -0.0420575142 1.34921432
vt -0.0598044395 1.22051597
vt -0.0618815422 1.22088814
vt 1.03569472 -0.376827002
vt 1.03362465 -0.376401424
vt 1.05117559 -0.243089914
vt 1.05325437 -0.243449926
vt -0.0532541275 -0.243449926
vt -0.0511755943 -0.243089795
vt -0.033624649 -0.376401424
vt -0.0356945992 -0.376827002
vt 0.994476795 -0.63540256
vt 0.996523499 -0.635967374
vt 0.971392632 -0.759711504
vt 1.07651234 1.0890255
vt 1.07442617 1.08873415
vt 1.05980444 1.22051585
vt 1.06188178 1.2208879
vt -0.0618815422 1.22088814
vt -0.0598044395 1.22051597
vt -0.0744261742 1.08873415
vt -0.0765123367 1.0890255
vt 0.0056296885 1.60539889
vt 0.00358051062 1.60595059
vt 0.0286463201 1.73445606
vt 1.05325437 -0.243449926
vt 1.05117559 -0.243089914
vt 1.06618941 -0.10546267
vt 1.06827521 -0.10575676
vt -0.0682752132 -0.10575676
vt -0.0661894083 -0.10546267
vt -0.0511755943 -0.243089795
vt -0.0532541275 -0.243449926
vt 1.08782792 0.952550709
vt 1.08573484 0.952343225
vt 1.07442617 1.08873415
vt 1.07651234 1.0890255
vt -0.0765123367 1.0890255
vt -0.0744261742 1.08873415
vt -0.0857348442 0.952343225
vt -0.0878279209 0.952550709
vt 0.996523499 -0.635967374
vt 0.994476795 -0.63540256
vt 1.01731586 -0.508726478
vt 1.06827521 -0.10575676
vt 1.06618941 -0.10546267
vt 1.07851756 0.0370827317
vt 1.08060932 0.0368558168
vt -0.0806092024 0.0368558168
vt -0.0785175562 0.0370827317
vt -0.0661894083 -0.10546267
vt -0.0682752132 -0.10575676
vt 0.00358051062 1.60595059
vt 0.0056296885 1.60539889
vt -0.0171339512 1.47807336
vt 1.09564006 0.809941232
vt 1.0935421 0.809817195
vt 1.08573484 0.952343225
vt 1.08573484 0.952343225
vt 1.08782792 0.952550709
vt 1.09564006 0.809941232
vt -0.0878279209 0.952550709
vt -0.0857348442 0.952343225
vt -0.0935423374 0.809817195
vt -0.0956399441 0.809941232
vt 1.08060932 0.0368558168
vt 1.07851756 0.0370827317
vt 1.08801126 0.185149908
vt 1.0901072 0.184989095
vt -0.0901070833 0.184989214
vt -0.0880112648 0.185149908
vt -0.0785175562 0.0370827317
vt -0.0806092024 0.0368558168
vt 1.0901072 0.184989095
vt 1.08801126 0.185149908
vt 1.09452152 0.339341044
vt 1.09662032 0.339245379
vt -0.0966202021 0.339245498
vt -0.0945215225 0.339341044
vt -0.0880112648 0.185149908
vt -0.0901070833 0.184989214
vt 1.09975994 0.659674287
vt 1.09765995 0.659630656
vt 1.0935421 0.809817195
vt 1.09564006 0.809941232
vt -0.0956399441 0.809941232
vt -0.0935423374 0.809817195
vt -0.0976600647 0.659630656
vt -0.0997599363 0.659674346
vt 1.09662032 0.339245379
vt 1.09452152 0.339341044
vt 1.09789956 0.500256717
vt 1.09789956 0.500256717
vt 1.09999967 0.500227273
vt 1.09662032 0.339245379
vt -0.0999996662 0.500227213
vt -0.0978996754 0.500256717
vt -0.0945215225 0.339341044
vt -0.0966202021 0.339245498
vt 1.09999967 0.500227273
vt 1.09789956 0.500256717
vt 1.09765995 0.659630656
vt 1.09975994 0.659674287
vt 0.510402322 0.659674346
vt 0.512502313 0.659630656
vt 0.512502313 0.500256717
vt 0.510402322 0.500227213
vt -0.0978997946 0.500225425
vt -0.0999996662 0.500227213
vt -0.0980770588 0.659143686
vt 0.489602327 0.500227273
vt 0.487497658 0.500225544
vt 0.487500489 0.659070969
vt 0.510402322 0.500227213
vt 0.512497663 0.500225425
vt 0.512492478 0.339792609
vt 1.09789979 0.500225544
vt 1.09999967 0.500227273
vt 1.09827256 0.339724064
vt 1.01731586 -0.508726478
vt 1.01937437 -0.509225726
vt 0.996523499 -0.635967374
vt -0.0171339512 1.47807336
vt -0.0191921592 1.47857404
vt 0.00358051062 1.60595059
vt -0.0191921592 1.47857404
vt -0.0171339512 1.47807336
vt -0.0374324322 1.35047817
vt 1.01937437 -0.509225726
vt 1.01731586 -0.508726478
vt 1.03769147 -0.378600597
vt -0.095977664 0.659071147
vt -0.0980770588 0.659143686
vt -0.0926613808 0.809327781
vt 1.09617305 0.339792252
vt 1.09827256 0.339724064
vt 1.09297442 0.185413599
vt -0.0980770588 0.659143686
vt -0.095977664 0.659071147
vt -0.0978997946 0.500225425
vt 1.09827256 0.339724064
vt 1.09617305 0.339792252
vt 1.09789979 0.500225544
vt -0.0374324322 1.35047817
vt -0.0395002961 1.35091853
vt -0.0191921592 1.47857404
vt 1.03769147 -0.378600597
vt 1.03976083 -0.379031181
vt 1.01937437 -0.509225726
vt -0.0395002961 1.35091853
vt -0.0374324322 1.35047817
vt -0.0550955534 1.22120285
vt 1.03976083 -0.379031181
vt 1.03769147 -0.378600597
vt 1.05541968 -0.244567156
vt -0.0550955534 1.22120285
vt -0.0571727157 1.22157514
vt -0.0395002961 1.35091853
vt 1.05541968 -0.244567156
vt 1.05749846 -0.244926691
vt 1.03976083 -0.379031181
vt -0.0905646682 0.809181094
vt -0.0926613808 0.809327781
vt -0.0839246511 0.952188611
vt 1.09087741 0.185553849
vt 1.09297442 0.185413599
vt 1.08428979 0.036839366
vt -0.0926613808 0.809327781
vt -0.0905646682 0.809181094
vt -0.095977664 0.659071147
vt -0.0571727157 1.22157514
vt -0.0550955534 1.22120285
vt -0.0699525476 1.08883572
vt 1.09297442 0.185413599
vt 1.09087741 0.185553849
vt 1.09617305 0.339792252
vt 1.05749846 -0.244926691
vt 1.05541968 -0.244567156
vt 1.07031631 -0.106168747
vt -0.0699525476 1.08883572
vt -0.0720379949 1.08913469
vt -0.0571727157 1.22157514
vt -0.0818326473 0.95196563
vt -0.0839246511 0.952188611
vt -0.0720379949 1.08913469
vt 1.07031631 -0.106168747
vt 1.07240295 -0.106455088
vt 1.05749846 -0.244926691
vt 1.08219695 0.037052393
vt 1.08428979 0.036839366
vt 1.07240295 -0.106455088
vt -0.0720379949 1.08913469
vt -0.0699525476 1.08883572
vt -0.0818326473 0.95196563
vt -0.0839246511 0.952188611
vt -0.0818326473 0.95196563
vt -0.0905646682 0.809181094
vt 1.08428979 0.036839366
vt 1.08219695 0.037052393
vt 1.09087741 0.185553849
vt 1.07240295 -0.106455088
vt 1.07031631 -0.106168747
vt 1.08219695 0.037052393
vt 0.941019297 -0.878558159
vt 0.913432598 -0.997516274
vt 0.0865433514 -0.997516274
vt 0.0578552186 -0.880233049
vt 0.967234015 -0.756476641
vt 0.0306415856 -0.759084821
vt 0.991505504 -0.632491589
vt 0.0055232048 -0.63540256
vt 1.01368499 -0.506001234
vt -0.017315805 -0.508726478
vt -0.037691474 -0.378600717
vt 1.03362465 -0.376401424
vt -0.0554196239 -0.244567513
vt 1.05117559 -0.243089914
vt -0.0703162551 -0.106168509
vt 1.06618941 -0.10546267
vt -0.0821970105 0.037052393
vt 1.07851756 0.0370827317
vt -0.0908774137 0.185553849
vt 1.08801126 0.185149908
vt -0.096173048 0.339792609
vt 1.09452152 0.339341044
vt -0.0978997946 0.500225425
vt 1.09789956 0.500256717
vt -0.095977664 0.659071147
vt 1.09765995 0.659630656
vt -0.0905646682 0.809181094
vt 1.0935421 0.809817195
vt -0.0818326473 0.95196563
vt 1.08573484 0.952343225
vt -0.0699525476 1.08883572
vt 1.07442617 1.08873415
vt -0.0550955534 1.22120285
vt 1.05980444 1.22051585
vt 1.04205751 1.34921432
vt -0.0374324322 1.35047817
vt 1.02137256 1.4763552
vt -0.0171339512 1.47807336
vt 0.997936904 1.60346329
vt 0.0056296885 1.60539889
vt 0.971938014 1.73206294
vt 0.0306876302 1.73386431
vt 0.943563938 1.8636775
vt 0.0578691661 1.86487937
vt 0.913419545 1.99797058
vt 0.0865969956 1.99797094
vt 0.0865804553 1.9979707
vt 0.913403034 1.99797094
vt 0.942130804 1.86487937
vt 0.0564360023 1.8636775
vt 0.96931237 1.73386431
vt 0.028061986 1.73206294
vt 0.994370341 1.60539877
vt 0.00206315517 1.60346329
vt 1.01713395 1.47807336
vt -0.0213725567 1.4763552
vt 1.03743243 1.35047841
vt -0.0420575142 1.34921432
vt 1.05509555 1.22120285
vt -0.0598044395 1.22051597
vt -0.0744261742 1.08873415
vt 1.06995249 1.08883572
vt -0.0857348442 0.952343225
vt 1.08183265 0.95196557
vt -0.0935423374 0.809817195
vt 1.09056473 0.809180915
vt -0.0976600647 0.659630656
vt 1.09597766 0.659070969
vt -0.0978996754 0.500256717
vt 1.09789979 0.500225544
vt -0.0945215225 0.339341044
vt 1.09617305 0.339792252
vt -0.0880112648 0.185149908
vt 1.09087741 0.185553849
vt -0.0785175562 0.0370827317
vt 1.08219695 0.037052393
vt -0.0661894083 -0.10546267
vt 1.07031631 -0.106168747
vt -0.0511755943 -0.243089795
vt 1.05541968 -0.244567156
vt -0.033624649 -0.376401424
vt 1.03769147 -0.378600597
vt -0.013684988 -0.506001234
vt 1.01731586 -0.508726478
vt 0.994476795 -0.63540256
vt 0.00849449635 -0.632491589
vt 0.969358444 -0.759084821
vt 0.0327659845 -0.756476641
vt 0.942144752 -0.880233049
vt 0.0589805841 -0.878558397
vt 0.913456678 -0.997516036
vt 0.0865674019 -0.997516274
f 1/1 2/2 3/3
f 3/3 4/4 1/1
f 5/5 6/6 7/7
f 7/7 8/8 5/5
f 9/9 10/10 11/11
f 11/11 12/12 9/9
f 13/13 14/14 15/15
f 15/15 16/16 13/13
f 17/17 18/18 19/19
f 19/19 20/20 17/17
f 21/21 22/22 23/23
f 23/23 24/24 21/21
f 25/25 26/26 27/27
f 28/28 29/29 30/30
f 31/31 32/32 33/33
f 34/34 35/35 36/36
f 37/37 38/38 39/39
f 40/40 41/41 42/42
f 43/43 44/44 45/45
f 46/46 47/47 48/48
f 49/49 50/50 51/51
f 51/51 52/52 49/49
f 53/53 54/54 55/55
f 55/55 56/56 53/53
f 57/57 58/58 59/59
f 60/60 61/61 62/62
f 63/63 64/64 65/65
f 65/65 66/66 63/63
f 67/67 68/68 69/69
f 69/69 70/70 67/67
f 71/71 67/67 70/70
f 70/70 72/72 71/71
f 73/73 71/71 72/72
f 72/72 74/74 73/73
f 75/75 73/73 74/74
f 74/74 76/76 75/75
f 77/77 75/75 76/76
f 76/76 78/78 77/77
f 79/79 77/77 78/78
f 78/78 80/80 79/79
f 81/81 79/79 80/80
f 80/80 82/82 81/81
f 83/83 81/81 82/82
f 82/82 84/84 83/83
f 85/85 83/83 84/84
f 84/84 86/86 85/85
f 87/87 85/85 86/86
f 86/86 88/88 87/87
f 89/89 87/87 88/88
f 90/90 91/91 92/92
f 92/92 93/93 90/90
f 94/94 90/90 93/93
f 93/93 95/95 94/94
f 96/96 94/94 95/95
f 95/95 97/97 96/96
f 98/98 96/96 97/97
f 97/97 99/99 98/98
f 100/100 98/98 99/99
f 99/99 101/101 100/100
f 102/102 100/100 101/101
f 101/101 103/103 102/102
f 104/104 102/102 103/103
f 103/103 105/105 104/104
f 106/106 104/104 105/105
f 105/105 107/107 106/106
f 108/108 106/106 107/107
f 107/107 109/109 108/108
f 110/110 108/108 109/109
f 109/109 111/111 110/110
f 112/112 110/110 111/111
f 111/111 113/113 112/112
f 114/114 112/112 113/113
f 113/113 115/115 114/114
f 116/116 114/114 115/115
f 115/115 117/117 116/116
f 118/118 116/116 117/117
f 117/117 119/119 118/118
f 120/120 118/118 119/119
f 119/119 121/121 120/120
f 122/122 120/120 121/121
f 121/121 123/123 122/122
f 124/124 122/122 123/123
f 123/123 125/125 124/124
f 126/126 124/124 125/125
f 125/125 127/127 126/126
f 128/128 126/126 127/127
f 127/127 129/129 128/128
f 130/130 128/128 129/129
f 129/129 131/131 130/130
f 132/132 130/130 131/131
f 131/131 133/133 132/132
f 134/134 132/132 133/133
f 133/133 135/135 134/134
f 88/88 136/136 89/89
f 137/137 89/89 136/136
f 136/136 138/138 137/137
f 139/139 137/137 138/138
f 138/138 140/140 139/139
f 141/141 139/139 140/140
f 140/140 142/142 141/141
f 143/143 141/141 142/142
f 142/142 144/144 143/143
f 145/145 143/143 144/144
f 144/144 146/146 145/145
f 147/147 145/145 146/146
f 146/146 148/148 147/147
f 149/149 147/147 148/148
f 148/148 150/150 149/149
f 151/151 149/149 150/150
f 150/150 152/152 151/151
f 153/153 151/151 152/152
f 152/152 154/154 153/153
f 155/155 153/153 154/154
f 154/154 156/156 155/155
f 157/157 155/155 156/156
f 156/156 158/158 157/157
f 159/159 160/160 161/161
f 162/162 163/163 164/164
f 165/165 166/166 167/167
f 168/168 169/169 170/170
f 171/171 172/172 173/173
f 174/174 175/175 176/176
f 177/177 178/178 179/179
f 180/180 181/181 182/182
f 183/183 184/184 185/185
f 186/186 187/187 188/188
f 189/189 190/190 191/191
f 192/192 193/193 194/194
f 195/195 196/196 197/197
f 198/198 199/199 200/200
f 201/201 202/202 203/203
f 204/204 205/205 206/206
f 206/206 207/207 204/204
f 208/208 209/209 210/210
f 210/210 211/211 208/208
f 212/212 213/213 214/214
f 215/215 216/216 217/217
f 218/218 219/219 220/220
f 221/221 222/222 223/223
f 224/224 225/225 226/226
f 227/227 228/228 229/229
f 230/230 231/231 232/232
f 233/233 234/234 235/235
f 236/236 237/237 238/238
f 238/238 239/239 236/236
f 240/240 241/241 242/242
f 242/242 243/243 240/240
f 244/244 245/245 246/246
f 247/247 248/248 249/249
f 250/250 251/251 252/252
f 253/253 254/254 255/255
f 256/256 257/257 258/258
f 259/259 260/260 261/261
f 261/261 262/262 259/259
f 263/263 264/264 265/265
f 266/266 267/267 268/268
f 269/269 270/270 271/271
f 272/272 273/273 274/274
f 275/275 276/276 277/277
f 278/278 279/279 280/280
f 281/281 282/282 283/283
f 284/284 285/285 286/286
f 287/287 288/288 289/289
f 290/290 291/291 292/292
f 292/292 293/293 290/290
f 294/294 295/295 296/296
f 296/296 297/297 294/294
f 298/298 299/299 300/300
f 301/301 302/302 303/303
f 304/304 305/305 306/306
f 307/307 308/308 309/309
f 310/310 311/311 312/312
f 313/313 314/314 315/315
f 315/315 316/316 313/313
f 317/317 318/318 319/319
f 320/320 321/321 322/322
f 323/323 324/324 325/325
f 326/326 327/327 328/328
f 328/328 329/329 326/326
f 330/330 331/331 332/332
f 332/332 333/333 330/330
f 334/334 335/335 336/336
f 337/337 338/338 339/339
f 340/340 341/341 342/342
f 342/342 343/343 340/340
f 344/344 345/345 346/346
f 346/346 347/347 344/344
f 348/348 349/349 350/350
f 351/351 352/352 353/353
f 354/354 355/355 356/356
f 357/357 358/358 359/359
f 359/359 360/360 357/357
f 361/361 362/362 363/363
f 363/363 364/364 361/361
f 365/365 366/366 367/367
f 368/368 369/369 370/370
f 370/370 371/371 368/368
f 372/372 373/373 374/374
f 375/375 376/376 377/377
f 378/378 379/379 380/380
f 381/381 382/382 383/383
f 384/384 385/385 386/386
f 387/387 388/388 389/389
f 389/389 390/390 387/387
f 391/391 392/392 393/393
f 393/393 394/394 391/391
f 395/395 396/396 397/397
f 398/398 399/399 400/400
f 401/401 402/402 403/403
f 403/403 404/404 401/401
f 405/405 406/406 407/407
f 407/407 408/408 405/405
f 409/409 410/410 411/411
f 411/411 412/412 409/409
f 413/413 414/414 415/415
f 415/415 416/416 413/413
f 417/417 418/418 419/419
f 420/420 421/421 422/422
f 422/422 423/423 420/420
f 424/424 425/425 426/426
f 426/426 427/427 424/424
f 428/428 429/429 430/430
f 431/431 432/432 433/433
f 433/433 434/434 431/431
f 435/435 436/436 437/437
f 437/437 438/438 435/435
f 439/439 440/440 441/441
f 441/441 442/442 439/439
f 443/443 444/444 445/445
f 445/445 446/446 443/443
f 447/447 448/448 449/449
f 450/450 451/451 452/452
f 452/452 453/453 450/450
f 454/454 455/455 456/456
f 456/456 457/457 454/454
f 458/458 459/459 460/460
f 461/461 462/462 463/463
f 464/464 465/465 466/466
f 467/467 468/468 469/469
f 469/469 470/470 467/467
f 471/471 472/472 473/473
f 473/473 474/474 471/471
f 475/475 476/476 477/477
f 477/477 478/478 475/475
f 479/479 480/480 481/481
f 481/481 482/482 479/479
f 483/483 484/484 485/485
f 485/485 486/486 483/483
f 487/487 488/488 489/489
f 489/489 490/490 487/487
f 491/491 492/492 493/493
f 493/493 494/494 491/491
f 495/495 496/496 497/497
f 498/498 499/499 500/500
f 501/501 502/502 503/503
f 503/503 504/504 501/501
f 505/505 506/506 507/507
f 507/507 508/508 505/505
f 509/509 510/510 511/511
f 511/511 512/512 509/509
f 513/513 514/514 515/515
f 516/516 517/517 518/518
f 519/519 520/520 521/521
f 522/522 523/523 524/524
f 525/525 526/526 527/527
f 528/528 529/529 530/530
f 531/531 532/532 533/533
f 534/534 535/535 536/536
f 537/537 538/538 539/539
f 540/540 541/541 542/542
f 543/543 544/544 545/545
f 546/546 547/547 548/548
f 549/549 550/550 551/551
f 552/552 553/553 554/554
f 555/555 556/556 557/557
f 558/558 559/559 560/560
f 561/561 562/562 563/563
f 564/564 565/565 566/566
f 567/567 568/568 569/569
f 570/570 571/571 572/572
f 573/573 574/574 575/575
f 576/576 577/577 578/578
f 579/579 580/580 581/581
f 582/582 583/583 584/584
f 585/585 586/586 587/587
f 588/588 589/589 590/590
f 591/591 592/592 593/593
f 594/594 595/595 596/596
f 597/597 598/598 599/599
f 600/600 601/601 602/602
f 603/603 604/604 605/605
f 606/606 607/607 608/608
f 609/609 610/610 611/611
f 609/609 611/611 612/612
f 613/613 609/609 612/612
f 613/613 612/612 614/614
f 615/615 613/613 614/614
f 615/615 614/614 616/616
f 617/617 615/615 616/616
f 617/617 616/616 618/618
f 617/617 618/618 619/619
f 620/620 617/617 619/619
f 620/620 619/619 621/621
f 622/622 620/620 621/621
f 622/622 621/621 623/623
f 624/624 622/622 623/623
f 624/624 623/623 625/625
f 626/626 624/624 625/625
f 626/626 625/625 627/627
f 628/628 626/626 627/627
f 628/628 627/627 629/629
f 630/630 628/628 629/629
f 630/630 629/629 631/631
f 632/632 630/630 631/631
f 632/632 631/631 633/633
f 634/634 632/632 633/633
f 634/634 633/633 635/635
f 636/636 634/634 635/635
f 636/636 635/635 637/637
f 638/638 636/636 637/637
f 638/638 637/637 639/639
f 640/640 638/638 639/639
f 640/640 639/639 641/641
f 642/642 640/640 641/641
f 643/643 642/642 641/641
f 643/643 641/641 644/644
f 645/645 643/643 644/644
f 645/645 644/644 646/646
f 647/647 645/645 646/646
f 647/647 646/646 648/648
f 649/649 647/647 648/648
f 649/649 648/648 650/650
f 651/651 649/649 650/650
f 651/651 650/650 652/652
f 653/653 651/651 652/652
f 653/653 652/652 654/654
f 655/655 656/656 657/657
f 655/655 657/657 658/658
f 657/657 659/659 658/658
f 659/659 660/660 658/658
f 659/659 661/661 660/660
f 661/661 662/662 660/660
f 661/661 663/663 662/662
f 663/663 664/664 662/662
f 663/663 665/665 664/664
f 665/665 666/666 664/664
f 665/665 667/667 666/666
f 667/667 668/668 666/666
f 667/667 669/669 668/668
f 667/667 670/670 669/669
f 670/670 671/671 669/669
f 670/670 672/672 671/671
f 672/672 673/673 671/671
f 672/672 674/674 673/673
f 674/674 675/675 673/673
f 674/674 676/676 675/675
f 676/676 677/677 675/675
f 676/676 678/678 677/677
f 678/678 679/679 677/677
f 678/678 680/680 679/679
f 680/680 681/681 679/679
f 680/680 682/682 681/681
f 682/682 683/683 681/681
f 682/682 684/684 683/683
f 684/684 685/685 683/683
f 684/684 686/686 685/685
f 686/686 687/687 685/685
f 686/686 688/688 687/687
f 688/688 689/689 687/687
f 688/688 690/690 689/689
f 690/690 691/691 689/689
f 690/690 692/692 691/691
f 692/692 693/693 691/691
f 693/693 694/694 691/691
f 693/693 695/695 694/694
f 695/695 696/696 694/694
f 695/695 697/697 696/696
f 697/697 698/698 696/696
f 697/697 699/699 698/698
f 699/699 700/700 698/698
